# FamiTracker text export 0.4.2

# Song information
TITLE           ""
AUTHOR          ""
COPYRIGHT       ""

# Song comment
COMMENT ""

# Global settings
MACHINE         0
FRAMERATE       0
EXPANSION       0
VIBRATO         1
SPLIT           32

# Macros
MACRO       0   0  -1  17   0 : 5 12 15 15 14 13 12 12 11 11 11 11 11 10 10 9 9 9 0 3 5 4 2 0
MACRO       0   1  -1  -1   0 : 8 15 9 1 3 3 1 0
MACRO       0   2   3  -1   0 : 7 5 2 5 2
MACRO       0   3  -1  -1   0 : 11 7 5 4 3 2 1 0
MACRO       0   4  -1  -1   0 : 7 9 10 10 10 10 10 9 9 8 8 7 7 6 6 5 5 4 4 3 3 2 2 1
MACRO       0   5  -1  -1   0 : 4 11 15 15 13 12 11 9 7 1 2 3 3 3 2 2 0
MACRO       0   6  -1  -1   0 : 4 10 11 11 11 9 0 0 1 2 3 3 3 2 2 0
MACRO       1   0   3  -1   0 : -2 0 1 -1 1
MACRO       1   1  -1  -1   0 : -3 0
MACRO       1   2  -1  -1   0 : -2 -1 1
MACRO       1   3  -1  -1   0 : 6 0
MACRO       2   0  -1  -1   0 : 3 -3
MACRO       4   0  -1  -1   0 : 1 0

# DPCM samples
DPCMDEF   0   449 "ZeldaSNES Snare"
DPCM : 55 25 AB 65 55 55 77 1B 15 A5 14 91 B4 AC 5B 56 6D 91 9C 6D EB 6E AB 2A 95 A6 92 8A 52 A5 4A 69
DPCM : AA 24 13 45 52 F6 AE DF B5 6D AB B5 96 96 AA B4 95 92 22 4A A9 24 85 D0 E3 D4 6A AD CD 6D 65 D5
DPCM : 55 37 5B 55 55 55 55 4A 45 54 55 92 CB AA 59 8C 2C 25 AA A8 4E EF 6E BB 75 B5 54 56 99 56 AA 52
DPCM : 94 49 65 31 49 2C B5 8A EE B4 BA 66 55 4B 55 AB EA B2 69 B3 AA 4A 55 54 49 A5 A5 D2 54 4D 4B AA
DPCM : CA C8 65 D5 EA 6A AD AE 1B 35 AB 62 B2 54 69 95 54 55 55 25 4B 95 36 AA 9C 96 6D 55 55 55 55 55
DPCM : 55 75 DA AA AA A9 CA 52 49 55 55 55 AC 52 2A B3 66 D9 52 AD 71 55 D5 54 D5 6C 59 55 DA 52 AA AA
DPCM : 26 CB B2 54 95 52 AB AA AA AA AC 2A 6D A5 56 55 5A 55 CB A9 59 69 96 53 95 69 52 55 95 A5 4A CB
DPCM : 2C AB AA 6A 55 55 55 55 D5 D4 54 55 D5 B4 B2 AA AA AA AA AA 54 55 55 55 55 55 6A AA AA AA AA A6
DPCM : AA 55 55 D3 2A AB AA AA AA AA AA 2A D5 52 55 55 65 A5 AA AA AA 96 5A 55 55 55 55 55 55 55 55 55
DPCM : 55 D5 AC 54 55 55 55 55 55 55 55 59 55 95 6A A9 AA AA AA 55 55 55 55 53 D5 52 CB 54 4D 53 4D 55
DPCM : 55 55 55 55 55 55 55 A9 A9 9A 56 55 55 55 55 55 55 55 D5 34 4D CD 54 4D 55 55 55 55 55 55 55 55
DPCM : 55 55 55 55 55 55 55 55 55 55 55 55 55 55 55 55 55 55 55 55 55 55 55 55 55 55 55 95 55 59 55 55
DPCM : 55 55 55 55 55 55 55 4D 55 55 55 55 55 55 55 55 55 55 55 55 55 55 55 55 55 55 55 55 55 55 55 55
DPCM : 55 55 55 55 55 55 55 55 55 55 55 55 55 55 55 55 55 55 55 55 55 55 55 55 55 55 55 55 55 55 55 55
DPCM : 55
DPCMDEF   1  1569 "B"
DPCM : 55 55 55 55 55 55 55 55 55 55 55 55 55 55 55 55 55 55 55 55 55 55 55 D9 AE ED 5C DB B2 59 9B 66
DPCM : 69 95 56 96 51 55 CD 54 16 13 26 25 45 31 55 A5 D2 D4 62 55 2A 9D 55 19 25 06 9D DB DB D5 D9 5A
DPCM : 9B 56 D5 D2 AC 9A 96 B5 59 65 31 31 52 24 55 2A 53 A6 2A 95 A9 52 2D 2D 16 6D D5 E9 6C 6D D6 AC
DPCM : DA 9A 9A AD 69 9D 4D 2A 92 AA 6A 56 55 52 26 15 59 96 2A D5 62 2A CD 1A 13 5A D6 B9 D9 D9 DA 6A
DPCM : 2D 55 D5 6C D6 D6 AA 52 6E AA AA 52 30 26 55 55 1A 2D 26 53 D3 62 32 26 C8 9A DF 6B 6D D6 DA 36
DPCM : 19 2D AD D2 E6 D9 9C 55 52 A8 58 16 55 2A 55 55 95 A9 D9 AA 92 51 6C AE 56 32 D5 6C DA AC 9C 75
DPCM : 9E 4D 55 4D D3 2A 95 DA BC CA 8A 49 A9 52 54 12 45 E7 DA 2C 15 43 C8 F6 5C 9A 6A D5 DA 5C D5 7A
DPCM : 56 55 65 67 D5 34 5A AA 92 34 A9 2C 55 55 2B 55 32 24 91 5D AD AE CB A5 55 25 53 69 6A 36 AD D6
DPCM : 6C AB CA 57 29 92 54 B5 E6 5A B5 34 72 6A 32 32 C9 98 AA 54 8B 55 67 13 A3 30 EA DC D6 7A 75 73
DPCM : AA AA AA AA 66 95 A6 D6 B2 B4 18 A9 AA 2A 55 29 89 96 A9 B6 4E 93 B4 CA 74 76 75 AD C2 94 52 75
DPCM : 55 D3 3C 33 97 A6 0C 4B 95 56 35 D7 8C E6 D6 C9 C8 50 A8 D6 2A 89 69 C9 74 B6 6A D7 54 22 D5 EC
DPCM : AC 6A D6 EA CE 56 33 29 95 2A 9A AA AA 6A A9 4C 55 29 89 4A D5 D4 B2 E6 EC 5C 6B AD 92 D2 7C 8E
DPCM : 44 92 AA 56 6D 7D AE 94 14 53 55 4D 95 2C AD BD D6 54 65 29 29 95 C9 AA 2A 19 C3 B4 E9 6E 4C 51
DPCM : 6A E7 DA 32 55 55 73 7D 9A AA 66 E5 48 11 A5 AA 2A 6B AD AB A4 8C 91 8C 4A D3 BA AA 69 6D 76 6D
DPCM : 1A 52 94 72 5D 55 55 56 EB AC 44 99 5A 6D 95 52 55 D6 AE 77 95 12 C9 C4 54 45 29 59 5A AA 92 67
DPCM : 5B CA 64 6B 6B 55 55 55 CB 66 55 AD AC 3A 9B 49 55 49 94 A9 66 5D CB A4 54 45 91 44 B3 B3 7B 56
DPCM : AB AA B2 AA 54 49 4A 93 E5 76 6D 6B AA 4C 4A 59 5A B3 75 B6 A5 49 93 49 54 55 55 95 49 A9 74 9A
DPCM : 94 8A A5 AB 6E DB 46 45 93 4B 67 CD 66 B3 79 AE 8A 49 49 99 54 35 5B 55 49 95 95 55 95 49 99 4C
DPCM : 55 55 55 4B E7 59 59 55 AB 46 99 B4 6A 9B 95 46 B3 B5 B5 95 49 A1 54 95 75 B6 4B 46 A6 94 49 A9
DPCM : 6A CA 98 94 96 96 AB 9E 67 55 55 35 97 96 A6 A6 A6 B5 D9 9A 95 49 89 D4 D4 D4 AA 56 A9 94 4A D1
DPCM : B4 69 B2 54 55 26 97 2B AF 55 55 2B 67 4B B5 52 95 AA AA AA 6A B3 56 2B 36 96 4C 49 95 2C 57 55
DPCM : 55 46 A9 D2 B2 54 AA 96 36 2D 9B 36 6B D7 D3 A4 48 35 AD D5 B2 A9 AA 4A B5 36 4D 26 8D 4A 55 9A
DPCM : 4C 56 A9 CA A4 AA 2C 8D 9B 9D 6B 2D 4D 55 55 B5 AD D9 52 55 29 D3 C8 54 55 DB 56 26 45 55 55 55
DPCM : 55 A6 AA 4A A9 A9 D9 64 52 9A 2C 37 AF D5 4C 55 55 35 5B AD CA A5 A9 A5 AA AA 36 26 A5 AA 5A A6
DPCM : 4A 55 32 45 C5 AA 55 53 55 4D DA 2C 5B 3A AD 35 3B 5B 65 CA D9 AA 2A 25 25 53 55 55 55 55 55 53
DPCM : D3 54 2A 55 53 53 53 53 CB CA A5 C5 52 32 D9 DC AC D5 2C 5B AD A5 A5 25 CB A4 A5 A5 55 B5 4A AA
DPCM : AA 4A 53 55 5A 2A 55 C6 A4 64 BA 3C 5B 35 35 AD 55 D5 6C 5A DB A6 5A AA 4C 29 4A A9 AA 5A 55 55
DPCM : AA 55 55 55 55 AA 4A 4B CB A6 55 55 C6 94 5A AD D5 54 95 A5 AA 95 35 5B DB AA 2A 49 52 55 4D 4B
DPCM : 55 4D 9B A6 2A 53 65 4A 26 53 65 6A E9 B4 59 6D 55 B5 69 6A B4 B4 AA 5A CD CE AA 52 29 49 65 2A
DPCM : D5 AA 4A 93 4D 9B 55 55 55 96 56 55 95 96 96 55 55 55 16 2B 9B 55 55 D5 D4 AC AA AA 9A 9D B5 62
DPCM : 52 64 4A 4D 4E AD 55 9B 16 53 A9 4A 4D 93 56 55 55 AD 5A 56 56 D5 D4 AA AA AA 9A 9D 2A 4D 96 9A
DPCM : 9A 46 65 18 93 5A 6D 6D 56 6D 96 4D 26 55 1A 2D 9D 56 55 55 55 26 9B 56 D5 52 55 99 55 55 AD 5A
DPCM : 2E 2D 4D 26 29 59 56 2E 6D 56 6D 9E AA 52 4A 51 5A 56 6E 9A 9A 9A 56 55 55 55 55 55 55 55 AD 5A
DPCM : 2E 59 26 55 55 55 A9 72 32 2D 2D 6D D6 DA 2C 35 9A 54 A9 72 9A 9A 9A 55 AD 2C 55 19 2D 6D 9A 55
DPCM : 55 55 55 55 6D 56 9A 54 59 32 55 6E 56 6B 36 35 35 B5 2A 19 55 32 B2 AC DA 6C 5A 55 55 55 55 9A
DPCM : AC AC 5C CD AD AC 58 5A B2 2C 55 B2 B4 6C 5A 55 D5 6A 36 2D 35 9A 54 2A 59 6A 76 56 55 55 55 55
DPCM : 55 99 B4 AC 5C 55 55 53 55 6B B5 34 32 A5 74 6A 75 D9 AC 95 95 52 4A 35 95 49 69 32 55 D5 5A B3
DPCM : 6C 59 55 55 55 55 55 55 D5 6A D9 B4 52 99 54 C9 6C 6A 55 55 55 73 E9 54 CA 54 55 95 AA D2 B4 B4
DPCM : 74 6A 56 55 55 55 69 B2 6C 55 55 55 55 6B D9 B4 68 69 B2 54 55 73 B6 2A 4B A9 52 15 4B 95 CA B2
DPCM : 54 55 D5 6A D5 56 CD AA AA 2A 55 D5 6A 69 D3 34 69 69 C9 34 55 A9 AA 6A 55 D5 B2 32 55 55 55 A9
DPCM : D2 D4 AC A9 C9 B2 B2 B2 66 55 55 4D 55 4D 55 D5 AA 66 69 D3 D4 A8 C9 32 55 D5 D2 D2 54 55 56 96
DPCM : D2 C8 B2 AA AA AA 56 D5 66 35 CD 6A D5 D2 D2 64 A9 D2 B2 A9 A9 C9 52 55 55 AA AA CA D2 B2 55 D5
DPCM : CA D2 54 95 D1 64 65 D5 66 55 55 55 55 55 55 AB AA A6 AA 2A 55 55 CB A6 A5 A5 C9 52 55 AA AA 55
DPCM : 55 55 55 95 D1 A4 AA 5A 55 AB AA 56 55 75 5A 55 CB 64 A5 A5 A5 C5 C6 52 55 55 55 55 55 55 AA 4A
DPCM : B3 A9 65 55 55 55 55 55 55 95 C5 CA CA 66 55 B5 AA B4 AA CA CA CA CA CA 4A 55 55 55 CB 54 55 55
DPCM : 55 AA AA A6 A6 A6 66 55 55 A6 C5 CA CA 9A A5 55 35 35 AB 56 4B 4B 93 A5 49 4B CB 54 55 55 55 55
DPCM : 55 AA A6 A6 A6 A6 A6 A6 66 55 55 55 55 55 55 95 A6 A5 55 55 AB 96 95 95 95 49 4B 4B 55 55 AA AA
DPCM : A6 55 55 55 55 A6 A6 55 55 55 55 55 55 55 55 55 55 55 55 55 55 55 AB 96 95 96 96 96 4C 55 55 55
DPCM : 55 55 55 95 66 95 A6 A6 96 96 66 55 55 55 55 55 55 55 55 55 55 55 42 A8 AA 5A 55 55 55 B5 55 55
DPCM : 55
DPCMDEF   2  1473 "C"
DPCM : 55 55 55 55 55 55 55 55 55 55 55 55 55 55 55 55 55 55 55 55 55 65 F3 DC AE CD AB 66 B5 5A AA 95
DPCM : 56 5A 4C A5 33 53 32 61 52 52 C8 54 95 26 B5 64 55 CA 6C 55 46 49 B0 B9 FD 5C 67 6B B3 59 D5 D4
DPCM : AC 6C 69 6D 56 25 13 23 05 53 A9 64 99 AA 34 A9 D2 D4 92 25 5B B3 CD D6 56 B5 6A 73 A9 B5 69 DD
DPCM : 34 92 A4 2A 9B 55 25 23 53 4C 5A AA 34 65 2A 75 CA 84 A5 B5 A7 9B AD 75 B6 52 55 B3 D9 DA AA 54
DPCM : B3 AA AA 24 4C 52 55 A5 2C 99 4C 2D 4D 4A 26 A8 EA 77 DB 5A B3 F5 94 49 CD 2A 9B 5B 9B 55 52 B0
DPCM : 64 45 95 4C 55 55 69 6A AD 4A 46 D1 AE 56 32 D5 B2 65 2B 5B DB D9 54 D5 52 AB 54 5A DB CA 8A 49
DPCM : AA 14 A5 48 CC AE 2D 53 92 20 DB 9B 96 6A D5 E6 66 B5 9E 55 55 6E 56 2D 59 AA 0A 4B A6 2C 55 55
DPCM : 4B 95 0C 06 D6 D5 EA CE 96 56 55 4A 99 6A D6 AC 35 DB AA DA 55 22 51 55 9B 6B 4D 4B 66 6A 92 49
DPCM : 46 A6 2A 4D 59 76 93 49 C4 A8 DB D9 7A 75 B3 AA AA AA 9A 4E 69 6A AD B4 64 A4 AA 2A 55 29 51 5A
DPCM : AA CD 4B 46 AB 4C 5B D7 B6 0A 65 52 75 55 53 B7 CC A5 26 A9 54 69 55 9B 53 6A 5B 1B C9 90 A8 B6
DPCM : 4A 92 9A 52 67 AB 5E D3 04 95 9B 6D AA D5 E6 B3 D5 52 52 A9 A2 A9 A6 AA A5 52 55 19 49 4A 4D AD
DPCM : AC D9 D9 D5 D6 4A C9 F4 3A 21 51 AA 56 6D 77 2B 25 26 55 D5 54 46 2B F7 5A 53 55 29 29 95 A6 AA
DPCM : 4A 26 52 9B DE 26 C5 A8 9D DD 2C 55 55 5B B7 A5 AA A5 8D 14 52 AA AA AC D5 AD 94 8C 61 94 32 B5
DPCM : AD AA D6 66 B7 96 44 49 AA 5D 55 55 55 EB CA 50 66 D6 56 29 55 56 BD DE 55 92 C8 A4 54 46 4A 96
DPCM : 96 2A B3 B6 65 62 CD 9D 55 55 55 CB 66 55 AB 6A B6 96 52 95 48 A5 9A 75 AD 94 4C 45 A1 50 ED E6
DPCM : 5D CD AA 4A AB 4A 25 29 35 D9 76 6D 6B AA 92 52 5A 35 5B 67 67 45 4B 26 54 55 55 95 4C 2A 9B 26
DPCM : 25 53 BA EA 73 27 15 35 D6 6C AD 36 AD 9D AB 92 92 92 49 55 AD 55 25 53 69 55 95 49 49 53 55 55
DPCM : 4D 6D 5E 55 55 CD 1A 95 B2 6A 9B 95 B2 6C 6D 5D 96 18 4A 55 D5 D9 36 C9 A4 94 49 A9 A6 26 25 96
DPCM : 56 BA EA B5 55 55 D5 6C A9 A5 9A AA AD D6 96 15 95 44 2D 35 AD 5A A5 94 49 D1 D2 25 2B 55 95 6C
DPCM : B6 F4 5A 55 2D 5D 4D B5 4A 95 AA AA AA DA 6C B5 4C 63 C9 24 55 B2 6C 55 55 46 2A 4B 2D 95 9A 5A
DPCM : B6 D2 A5 9D 9D 4F 93 42 55 AD 4D 9B AA AA 52 6D D6 24 4B 29 55 69 92 55 A9 CA A4 2A 53 33 37 BB
DPCM : D6 D2 54 55 D5 B6 36 55 55 29 55 26 55 D5 75 59 62 54 55 55 53 C9 CA 4A A9 A5 4E 96 94 96 6C F6
DPCM : 5A 4D 55 55 D5 6C B5 B2 A9 A5 A9 AA 6A 4E 4C AA AA 15 2B 55 C9 24 99 AA 55 53 55 A3 35 6D 5A D3
DPCM : 59 9B AD 95 29 3B AB 2A 25 25 55 55 55 56 55 35 B5 54 A6 54 4D B5 D4 D2 4A 6B 5A B2 94 4C B9 D9
DPCM : 5A 2D 5D B6 56 5A 69 D2 94 56 5A 56 AD 94 AA AA 54 55 59 B1 54 C9 94 4C BA D6 56 4D 35 5B 55 CD
DPCM : 96 AD A7 6A A9 4A 25 4A A9 AA 56 55 95 6A 55 55 55 A5 2A 2D B5 69 55 55 26 95 56 6B D5 54 56 AA
DPCM : 66 D5 6C 6D AB 2A 45 52 55 B5 34 55 4B 9B AA 32 55 29 99 4C 95 9A DA B4 59 6B 55 6D AA 49 4B 9B
DPCM : AA 35 37 AB 4A 25 45 65 4A B5 AA 52 96 2D 5B 55 55 95 5A 55 A5 A5 95 55 55 95 C9 AA 96 55 55 35
DPCM : B5 AA AA 6A B3 B5 64 52 94 52 95 4D 5B B5 69 51 95 2A B5 64 65 55 55 AD 6C 65 55 D5 B4 AA AA AA
DPCM : CD 9A 54 A9 A9 A6 26 95 C8 A4 56 DB 5C D5 66 4D 93 52 69 D2 B2 56 55 55 95 C9 96 55 35 55 95 55
DPCM : 55 B5 6A 59 4B 4D 32 C9 A4 95 2B 9D D5 E6 A9 2A 19 45 69 A5 CD 9A 5A 6A 55 55 55 55 55 55 55 B5
DPCM : 6A D9 A4 45 53 55 55 A9 B1 49 2D AD 6C AD 4D 2D 59 54 A5 CA 9A 5A 6A 55 AB 4A 55 B2 D2 A6 55 55
DPCM : 55 55 55 6D 56 9A 54 A9 89 D5 5C D5 E6 4A 4B 35 AB 24 53 4A A6 AC D6 B2 65 55 55 55 A5 29 AB 6A
DPCM : 56 CF 4A 53 56 B2 32 95 4C AD 6C 59 55 AD 36 B5 D4 28 53 2A 59 72 B3 55 55 55 55 55 95 29 AD 6C
DPCM : 55 55 55 55 6B D3 92 49 29 6D 5A A7 CD 56 A5 49 29 53 55 49 69 32 55 B5 D6 AC 69 59 55 55 55 55
DPCM : 55 55 6B D6 B4 D2 44 55 32 AB 5A 55 55 35 6B D6 28 53 55 95 AA 52 4B 2D 6D 6A 55 55 55 55 9A B2
DPCM : 55 55 55 55 6B 65 4B 56 5A 32 55 35 5B AB 2A A5 4A 65 4A 95 C9 CA 54 55 B5 56 AD D5 AC AA AA 54
DPCM : D5 6A 5A D6 92 A5 96 B2 54 96 AA AA 56 55 D3 CA 54 55 55 A9 52 4B 9B 6A D2 D2 2A 6B 5A 55 55 55
DPCM : 55 55 D5 AA 96 95 35 35 A9 49 53 55 B5 D4 52 55 65 95 D2 C8 AA AA AA AA 55 AD 55 53 A7 55 4B 2B
DPCM : 53 B2 B2 B2 95 9A B2 54 55 95 AA AA D4 D2 5A D5 AC B4 54 95 4C 56 59 B5 65 55 55 55 55 35 AD AA
DPCM : 9A AA 2A 55 D5 AC 69 A9 A5 29 55 A5 AA 5A 55 55 55 95 D2 A4 AA 5A D5 AA AA 55 55 AB 55 4D 53 56
DPCM : 5A A9 C5 26 4D 55 55 55 55 55 A5 AA D2 A6 9A 55 55 55 55 55 55 65 D1 4A 6B 56 55 AB 52 AB AA AC
DPCM : B2 CA 2A 4B 55 55 CD 4A 55 55 55 A5 AA AA 9A 6A 69 55 55 5A B2 B2 CA 96 56 55 4D AD 5A 2D B5 34
DPCM : A9 49 4B 2D 55 55 55 55 55 A5 AA A9 A6 9A 6A 6A 69 55 55 55 55 55 55 95 5A 5A 35 AD 5A 56 5A 69
DPCM : 49 2B 4D 55 95 AA A6 5A 55 55 55 A5 96 56 55 55 55 55 55 55 55 55 55 55 55 55 55 AD 5A 5A 69 A5
DPCM : A5 2C 55 55 55 55 55 55 A9 56 A6 A6 5A 6A 69 55 55 55 55 55 55 55 55 55 55 45 88 AA 6A 55 55 55
DPCM : B5
DPCMDEF   3  1233 "D sharp"
DPCM : 55 55 55 55 55 55 55 55 55 55 55 55 55 55 55 55 55 55 CD DB 75 DB AA D5 5A 6A 55 55 52 95 4D 55
DPCM : 12 49 12 26 55 A9 54 65 95 D2 56 29 49 68 DB 6F DD 6C AB 55 55 AD AC DA 6C A5 24 23 41 95 32 95
DPCM : 2A 65 2A 55 2D A5 56 6B DB 6A B3 DA 56 DA 5A 67 25 49 AA DA 54 49 52 31 55 2A D5 A4 D4 CA 84 55
DPCM : BB AD AD 9B 2D 55 2D DB AE 2A B5 AA AA 04 49 55 A5 A9 24 55 2D 49 12 AA 7E 6F 5B 9B 5D 99 AA 29
DPCM : DB 55 5B 49 A2 54 51 49 55 55 A9 DA 2A 13 D1 AE 65 52 6B 65 D5 D6 6D 55 55 B5 2A A5 ED AA 4C 92
DPCM : 4A 94 48 B4 DB 4A 31 A0 F6 56 A9 D5 66 5B ED 56 55 B5 95 95 AA 4A 2A A9 52 55 35 65 82 44 5D EB
DPCM : AE 95 56 32 A5 AA D5 5A EB AA 7A 25 12 55 B3 5B 4B 25 AB 92 89 49 AA 54 53 DB 94 28 52 DE B6 5E
DPCM : D7 AA AA AA 56 4B AA AD AA 44 AA AA 54 46 A8 A6 B6 2B D1 4A 5B DD B6 42 25 D5 59 2B 2F 5B AA A2
DPCM : 54 5A B5 CE D4 DA 32 09 A1 B6 52 A4 49 DB AA 5E 55 60 6D AB AA 6D BE 55 4B 52 2A AA AA AA A5 54
DPCM : 55 84 49 55 AD DA B6 76 B6 92 D4 67 42 98 6A B5 7D 2B 89 52 55 53 A5 CA B7 4D 55 45 2A 69 AA 4A
DPCM : 32 D4 EA 9B C4 68 37 2F 55 55 DB AD AA 56 9A 48 98 AA B2 D5 2B 29 19 92 52 6B AB 6A 5B 37 2B 91
DPCM : 24 77 55 55 B6 AE 42 66 B5 95 54 69 DD 77 25 21 93 54 91 4C 55 2A 73 5D 29 35 B7 55 55 B5 5A 55
DPCM : AB DA 6C 49 95 50 A9 D9 B6 92 54 11 09 B5 ED 57 AB AA AC 4A 45 D2 52 BB 6D 9B 2A 49 A5 36 DB 75
DPCM : 29 B5 24 54 55 55 52 A9 AC 54 4A E5 EA DD 4A D4 2C 6D CB D6 B6 AE 92 24 99 64 B3 55 49 55 59 95
DPCM : 4A 4A 55 55 55 B5 57 55 B5 A9 94 AC D6 96 A6 6A DB 95 54 50 55 B5 3D 25 A9 64 92 AA CA 24 AA 55
DPCM : AB 77 55 55 D5 AA AA AA 6A 5B 5B 25 93 50 55 B5 5A A9 64 12 55 6B 2A 55 C9 D6 EA 59 D5 D4 36 B5
DPCM : 52 A5 AA AA DA 6C AD 34 A5 24 95 AC 55 55 45 9A AA 52 AA 5A AB B4 DA B6 2F 29 51 D3 B6 9A AA 2A
DPCM : B5 4D 25 95 4A A5 25 55 AA 4A AA B4 B2 6D 6E 55 55 55 75 AD 55 55 29 95 54 55 77 25 15 55 55 55
DPCM : A5 AA 94 AA 5A CA 94 2A DB 5B 2D 55 55 B3 B5 6A A9 9A AA 6A 26 99 AA 56 2A 55 52 54 AA 55 55 55
DPCM : A9 D5 6A AD B5 CD 56 A9 CD AA 92 24 53 55 56 55 55 55 55 4A 55 55 55 55 AD 5A A5 24 53 DB 66 2D
DPCM : AD 6D 55 AA D4 54 55 65 B5 92 AA 4A 55 A5 A6 54 92 49 6A DD 56 55 5D 55 CD 6A 7B AA A5 4A 89 89
DPCM : AA 5A 55 A5 56 55 55 A5 4A 55 AD 55 55 49 69 B5 36 55 95 6A 65 5B ED AA 52 44 55 53 55 D5 AA AA
DPCM : 52 55 92 32 95 AA 5A 5B AD 55 B3 AA 54 AD AA D5 B6 2A 96 44 95 52 AB B2 D4 D2 56 55 A5 56 55 A5
DPCM : AA 56 55 55 A9 5A 56 55 53 AD AA 6A B3 AD 24 51 52 D5 D4 56 AD 26 A5 2A 55 55 55 55 AB 55 55 D5
DPCM : AA AA AA B6 A9 54 AA AA CA A4 24 69 AD B5 D5 56 2B 49 A5 54 6B 55 55 55 4A 6B 55 53 55 55 55 AB
DPCM : 5A 55 55 49 52 95 D6 6A B5 AD AA 24 45 5A D5 A6 AA AA 55 55 55 55 55 55 AB 5A 4D A5 54 55 A5 B2
DPCM : B4 AA 6A B5 59 55 9A 94 AA AA AA 5A B5 2A 55 A9 D2 6A 55 55 55 D5 56 25 53 6A 52 6D D6 66 55 55
DPCM : AD 92 52 92 AC 6A 6B 55 55 55 95 B2 AA 5A F5 2A 65 55 A9 52 A5 4A AD 56 D5 DA D2 54 4A A5 A4 65
DPCM : 9B 55 55 55 55 65 AA AA 59 55 55 D5 B6 4A 49 51 AB 75 B5 5A 55 92 52 55 4A A9 52 D5 5A AD 56 55
DPCM : 55 55 55 55 B5 56 CB 52 52 25 AD 5A 55 55 B3 5A 69 52 55 A5 4A 55 D5 6A 55 55 55 A5 B2 56 55 55
DPCM : D5 56 56 53 55 4A 55 B5 AD 2A A9 52 A6 54 4A 2D 55 D5 5A 6D B6 AA AA 52 D5 5A 69 55 AA AA 29 55
DPCM : A9 AA 56 D5 AA 52 55 55 2A D5 9A AA D2 AA AA 56 55 55 55 55 55 AB 56 35 55 A9 52 53 D5 4A 55 55
DPCM : 55 25 4D AA AA AA 6A D5 56 55 6B B5 4A 4D A5 AA 96 AA 4A 55 55 A9 AA 52 D5 56 B5 AA 52 95 54 55
DPCM : D5 56 55 55 55 D5 B4 AA A6 AA 54 55 AD 56 AA AA 54 A5 AA 55 55 55 95 94 AA 6A D5 AA 5A 56 AB 56
DPCM : AD 54 55 95 4A D3 52 55 55 55 55 A9 D2 AA AA 55 55 55 55 55 55 AA 2A 5B 55 AB B4 AA AA AA AA AA
DPCM : 54 55 2D 55 55 55 A5 AA AA AA AA 55 55 55 AA AA AA 55 55 D5 6A 59 55 A5 96 2A 2B 55 55 55 55 A5
DPCM : AA AA AA AA AA 56 55 55 55 55 55 56 55 55 AD 5A 55 55 A5 AA 54 55 A9 AA 5A 55 55 95 AA 56 55 55
DPCM : 55 55 55 55 55 55 55 55 35 AB 55 55 A5 2A 55 55 55 55 55 95 5A A9 AA AA AA 56 55 55 55 55 55 55
DPCM : 55 55 04 AA 6A 55 55 55 55 55 55 55 55 55 55 55 55
DPCMDEF   4  1825 "G sharp"
DPCM : 55 55 55 55 55 55 55 55 55 55 55 55 55 55 55 55 55 55 55 55 55 55 55 55 55 55 65 D5 6B F5 6C AD
DPCM : 2B B3 D6 AC 66 9A 99 66 55 66 54 55 CD 52 96 31 8A 29 29 25 C6 54 55 A6 34 CD 62 55 A9 CC 59 55
DPCM : 2A 25 46 74 AE BD 73 75 CE 5A 73 6A 55 CD 34 AB 9A 69 D6 AC 55 65 8C 29 4A 11 53 65 52 66 A9 AA
DPCM : 4C A5 AA 34 CD 32 16 B3 D5 AC CE 5A 6B D6 AC 6A CD 69 5A 6B 66 9D 53 19 23 A9 CA 72 4E 55 19 63
DPCM : 52 49 65 99 AA 54 35 A6 52 B3 1A 93 68 96 9D 67 73 CE DA 9C B5 52 55 35 73 D6 3A AB 4A D5 9C AA
DPCM : AA 4A 42 19 53 55 95 A9 CC A4 D4 34 CD 94 32 52 24 AB FE DC 5A 6B CD 59 5B 8D D1 34 AB B2 D6 5A
DPCM : 6B 56 A5 14 B1 58 65 54 29 53 55 55 95 69 66 AB 2A 63 94 72 AE 5A 19 53 B5 9A E5 2C B3 D5 D6 59
DPCM : 53 55 CD 34 AB 52 A9 35 B7 CA 32 25 A5 2A 25 95 22 C5 AC 6B CE 52 C5 08 C9 CE 73 96 A9 5A D5 D6
DPCM : 9C 55 6B 67 55 55 35 67 55 33 95 69 AA C2 34 A6 B2 52 55 55 4B 55 4A 91 22 D9 35 AB AD AB 99 66
DPCM : 55 A6 54 AA 9A 4E B5 6A CD D9 AA CA 5B A5 44 49 55 B5 DA 5A CD 34 25 6B 9A 92 31 29 63 AA 2A D5
DPCM : 54 D6 E6 8C 29 8C 64 E6 D6 5A DB D5 D6 6A AA AA AA AA 96 53 99 A6 D6 B2 4C 63 94 AA AA 4A 55 19
DPCM : 25 A6 99 AA AD 35 53 D4 AA 4C 67 5D 6D AD 12 93 29 55 5D 55 D3 DC 4A 9B 69 2A A3 4C 95 59 55 73
DPCM : 2E A3 B9 56 2B 63 0C 45 AA B5 2A 45 A9 A6 CC EA AC 6A 57 CD 44 94 AD 39 A7 69 56 73 DE 9C D5 8A
DPCM : 29 95 AA A4 69 AA AA 5A A5 32 4D 95 51 62 4A 35 4D B3 6C CD 39 57 67 AD 4A 29 CD 9D 63 48 52 AA
DPCM : 5A D5 DA 6E AD 94 61 4C 55 D5 52 65 4C D3 75 67 4D 55 95 25 25 55 69 AC AA 4A 19 43 CD 6A DE 9C
DPCM : 52 8C 6A 9D 73 33 53 55 55 F3 DC A9 AA 6A 65 39 86 11 95 AA AA D2 56 73 AB 94 32 19 29 A5 52 D3
DPCM : BC AA 6A D6 5A 5D 6B A6 50 49 29 D7 56 55 95 65 B5 CE 32 52 A5 D9 AC 55 4A 55 99 D5 B3 BB 55 4A
DPCM : 91 8A 31 55 2A A5 54 A6 99 AA 8C E7 5C 29 63 36 D7 5A 55 55 55 AD AC 56 55 AB AA E6 AC 99 52 55
DPCM : 8A 4C A9 5A D5 B5 2A 25 55 19 25 4C 54 E7 6C 77 D6 AC AA 2A AB AA 54 49 29 CD 54 CE 5B 3D 6B AA
DPCM : 32 A5 54 59 56 AD B5 59 67 19 CD 62 8C 54 55 55 55 19 53 AA 74 26 53 CA 98 E6 AA 5E DB 1A 95 34
DPCM : 65 33 5B AD 9C CD 9A 6B AB 4C 49 29 65 4C 55 B5 56 55 29 53 66 59 55 65 4A 19 4B 55 55 55 D3 34
DPCM : E7 56 55 95 35 A7 32 95 B2 AA CD 59 A9 51 AD 35 D7 96 99 94 30 55 55 D5 59 D7 8C 4A 29 95 31 A5
DPCM : AA A6 31 A6 98 66 59 AE EA D6 5A 55 55 D5 9C 65 9A A6 A9 AA B5 E6 AC 59 A6 62 8A 34 D3 34 AD 6A
DPCM : 65 2A 95 31 C5 4C B3 19 CB 54 55 19 6B 39 CB 6B 55 55 33 9B B5 54 2D 53 95 AA AA AA AA 9A AD 55
DPCM : B3 98 63 19 53 52 95 C9 9C 55 55 95 51 AA 34 CD 52 A5 9A A6 39 4D 73 9A B3 76 EE CC A4 C4 54 D5
DPCM : 5A B3 9C A6 AA 2A 55 6B 36 95 31 8D 32 55 A5 19 53 55 AA 1A 63 AA 4A 4D E3 9C AB AD 35 D3 54 55
DPCM : 55 D5 B5 E6 34 55 55 2A 53 19 53 55 D5 B5 65 29 25 55 55 55 55 A5 B1 AA 2A A5 9A A6 33 96 52 66
DPCM : 31 5B 73 6B D5 4C 55 55 55 73 56 2B CB 69 9A 9A AA AA AA 39 26 A5 AA AA 55 AC 52 55 C6 14 65 AC
DPCM : 6A D5 52 55 55 9A CD 74 96 D9 9C D5 9C B5 96 95 AC D6 AA AA 92 52 CA 54 55 95 55 55 55 D5 34 4D
DPCM : 55 A9 54 35 4D D3 2C D3 34 CD 66 9A A9 94 32 96 73 D6 5A 35 CB 69 AD 99 A6 59 46 33 99 66 59 66
DPCM : 55 AB 94 AA AA 4A 55 53 65 99 4A 55 CA 98 32 A6 B3 CE 5A 55 D5 B4 56 55 35 A7 59 6B AB 6A A5 2A
DPCM : 53 29 CA A4 AA AA 55 55 55 AA 56 55 55 55 95 AA 46 33 4D 67 5A 55 55 C6 54 6A D5 5A 55 55 99 A5
DPCM : AA 96 55 B3 D6 BC AA AA 14 23 55 55 33 CD 54 35 CB A9 AA CA 54 55 29 A9 31 55 99 A6 59 4D EB D4
DPCM : 5A 55 CD 69 9A D2 34 B5 AA 56 AD D6 AA 32 95 52 52 55 2A 55 AB AA 34 66 33 9D 55 55 55 65 A6 55
DPCM : 55 A5 59 A6 59 55 55 55 A6 B2 AC 65 55 55 55 53 AD AA AA AA 56 6B AD 4C 49 49 A6 54 93 36 B5 55
DPCM : CD 66 32 55 A9 4A D3 4C 65 59 56 55 AD 6A 59 56 55 D5 D4 AA AA AA AA CD 99 C6 34 9A 69 9A A6 54
DPCM : 15 C9 94 5A B5 D6 66 55 6B 59 CD 98 52 A5 32 CB 6C 56 55 55 55 65 CC 66 56 55 4B 55 55 5A 55 55
DPCM : AD 6A 36 D3 34 95 31 29 63 99 E5 32 9B 55 6B B5 AA 2A 65 54 92 59 96 39 9B 65 9A A6 55 55 55 55
DPCM : 55 55 55 55 55 AD 6A 66 33 9A C9 54 55 55 95 6A AC CC B2 4C B3 59 AD 39 4D 33 1A 53 A5 2A 6B 9A
DPCM : A6 9A 55 B5 AA 52 55 C6 B2 CC 65 56 55 55 55 55 55 AD 59 96 31 55 A6 32 56 B5 56 D5 5A CB 32 4D
DPCM : 53 AB 94 31 95 52 2A CB 6A CE 6A 5A 55 55 55 55 99 A9 2C CB 56 55 AF 2C 8B 59 96 B1 2C 55 19 CD
DPCM : B2 9C 66 55 55 AB 36 D3 32 95 19 55 AA 8C 66 DA 9C 55 55 55 55 55 55 55 C6 2C CB 72 56 55 D5 54
DPCM : 55 AD D5 2C 63 4A 49 73 9A D5 59 CE 5A 65 19 53 2A 55 55 19 53 A6 31 55 55 6B E5 32 97 65 D5 54
DPCM : 55 55 55 55 55 D5 AA 55 4E AB 54 C6 54 29 B3 9A 56 55 55 55 AD 66 36 A9 31 65 55 55 AA 4A 4D D3
DPCM : 34 AB 69 56 55 55 55 55 96 B1 9C 55 55 55 55 55 6B 59 CD 64 96 65 2C 55 55 CD 59 AB 2A 53 AA 52
DPCM : 65 2A 55 A9 B1 AC 54 55 35 AB 55 AD 59 B5 AA AA AA 54 55 B5 9A 65 2E D3 58 A6 69 2A 53 55 A9 AA
DPCM : AA 5A 55 D5 B2 CC 54 55 55 55 AA D2 2C B3 A9 A6 B1 2C CB 2C 9B 59 D5 54 D5 54 55 55 55 AB AA 59
DPCM : 96 D3 54 A3 99 CC 52 55 D5 34 CD 54 55 59 65 99 52 19 B3 AC AA AA AA 56 55 5B 59 33 9D 5A D5 2C
DPCM : CB 62 16 AB 2C AB 69 96 69 2C 53 55 55 AA AA AA 34 CD 6A 55 D5 2A CB 52 55 65 34 56 59 56 73 59
DPCM : 55 55 55 55 55 35 B5 AA AA A5 AA 2A 55 55 B5 AA 99 A6 69 2A D3 54 95 AA AA 55 55 55 55 55 65 4C
DPCM : A6 AA AA 55 B5 AA AA 56 55 35 AB 55 D5 32 96 65 9A 65 59 CC B1 4C 55 55 55 55 55 55 55 AA 2A CD
DPCM : 6A 9A 56 55 55 55 55 55 55 55 65 26 CB 2C 9B 55 55 AD 2A D5 AA AA AA 2C CB B2 CA 32 55 55 55 CD
DPCM : 32 55 55 55 55 A5 AA AA 9A A6 69 AA 55 55 95 69 C6 B2 2C AB 59 66 55 D5 54 AB 5A B9 4C D3 8C A6
DPCM : B1 CC D4 4C 55 55 55 55 55 55 A5 AA 6A 9A AA 9A A6 69 9A 59 55 55 55 55 55 55 55 65 96 69 56 35
DPCM : B5 AA 55 96 65 59 C6 B2 4C 53 55 55 A9 AA 6A 5A 55 55 55 55 99 A6 59 55 55 55 55 55 55 55 55 55
DPCM : 55 55 55 55 55 55 55 D5 AA 66 9A 65 59 A6 69 4C 55 55 55 55 55 55 55 95 A9 55 6A 9A A6 69 A6 69
DPCM : 55 55 55 55 55 55 55 55 55 55 55 55 55 22 A2 AA AA 55 55 55 55 55 55 55 55 55 55 55 55 55 55 55
DPCM : 55
DPCMDEF   5  3761 "CRASH cymbal 3"
DPCM : 55 55 55 55 55 55 55 55 55 55 55 55 55 75 38 78 F8 C5 0B 17 8E E1 CE D1 05 37 F2 68 1C 1F 3C 3C
DPCM : 87 E3 5C F0 E1 03 27 DE 6E 36 C0 22 ED CF 8F 02 00 BC 7F EE E4 C7 E3 C0 81 0C 62 BC 9D 7B FC 70
DPCM : 52 52 F3 31 E1 01 F3 F5 C0 C3 03 17 7E FC E1 01 0E 2F 1E E3 FD 1E 33 40 04 E0 CF BF 33 4F 07 1D
DPCM : 1C F8 80 DA 73 FE 80 81 77 F8 C3 07 03 5F 8C 7F 78 F8 E0 0D 04 1F F8 31 62 9E C3 1F FE 33 86 05
DPCM : CC 07 5E 25 FC E4 C0 93 67 3E CC 51 1E B5 4F 80 EF 00 38 F7 79 C0 E1 FE 73 86 0F 09 1E 38 58 BE
DPCM : F8 54 D6 A0 33 DC DC B9 37 86 67 80 01 1D BC FA F1 C7 0F 48 71 E0 4F F1 0D 79 C2 C1 07 7E 8A F7
DPCM : 19 34 1B F0 13 3F C4 D5 80 FE C0 7F 03 26 12 F7 01 7E 7E FC 81 3B 00 7F F8 18 17 1E F0 30 FE 87
DPCM : 1F 4C 70 03 4F FC E5 E9 C0 41 F8 80 F7 1E F8 E3 07 0F 1C 78 F8 03 1F 7C F0 C0 E7 07 06 FC C5 8F
DPCM : F9 81 07 1E 3C 3C F8 F1 00 FC C1 1B FF C1 0F 1C B0 60 FE C1 0F 1E 3C 70 FC C1 0F BF F0 01 19 F0
DPCM : F3 70 9C 1F 7C 90 0C 07 7F 3C FC C3 A1 40 E0 8F DF 0F BE 00 A3 06 FF E1 C3 3C 3E 78 D0 C0 2D 3C
DPCM : 7E F8 8C 01 3F 7C F8 F0 03 FC 10 D0 9F F8 70 E5 81 3F 0E F5 C1 C0 F6 07 7C 78 01 9E 67 A6 3D 66
DPCM : F0 E1 C3 07 C3 F1 C0 87 F3 63 E0 8F E3 C1 A1 C1 F1 F8 FC 81 87 01 3C D0 EF C3 1F 3E C6 E0 03 8E
DPCM : CF C0 63 E7 C3 F3 05 0C 0F 4E F8 55 EC 86 3F F0 21 8C 0F 1E 8E 9F 83 1F CE 81 03 DE F1 39 92 0F
DPCM : 39 3F 70 0C 0E 0F 1E E7 C7 87 17 3F 04 0E 1E CC 0F 87 1F E8 C3 F3 01 7F F0 C0 0F 3C 1E CE 81 8F
DPCM : 07 F8 F1 D8 13 3F 70 70 05 7F 38 F0 C1 8F 18 FE E0 C3 8F 3E 78 78 C0 1E 1E 3E C0 47 3E 38 FC 1C
DPCM : 87 1F F8 E0 0C 07 7E 38 FC E1 0F 5C 7C E0 F0 21 1E FC E1 43 1F B8 70 E0 87 F7 E4 C0 C7 31 1D F8
DPCM : 30 E6 87 F1 E3 F8 81 07 62 E2 F9 C3 C3 1C E0 E7 18 07 E7 0F CA E3 07 35 F0 B9 70 46 7C 72 E1 07
DPCM : 1F 8F D4 84 07 7E 78 5C DD 80 1F 0E 7E C4 07 77 58 95 C3 0D 3E F8 F0 1C 0E 7E 4C 1E 8C 7F 70 3C
DPCM : E0 19 1E 3C FC 06 3F 1E F4 82 C1 0F BC E1 D3 C7 38 F0 70 81 1F 3E 7C 3C E2 07 1D 70 87 67 EC C3
DPCM : 61 F5 30 7C FC 81 07 38 1E E7 F1 61 47 38 78 E2 78 FC F0 3C 18 0E F6 E0 1D 47 E1 F1 3C 0E 1E 39
DPCM : F2 81 79 1C 3F B0 C7 81 3F F8 02 FE 70 F0 81 C3 1F 9E F1 C0 43 1E 0F E7 C3 C3 07 7E 70 F0 03 7C
DPCM : 07 CF 81 0F 5E 7C 98 AF 43 38 C5 71 81 1F 7C 3E CA 07 C3 07 F0 E3 3D 1E 34 A0 CF 41 3F 0F 3E B4
DPCM : F1 E0 0C F1 71 8C 3F 06 3F 1C 56 63 3C F1 51 F0 83 1F 3E F0 03 0F 3E 1D 16 F8 1F 7E 40 05 0F 3E
DPCM : 17 3E C7 43 1E 1E E0 47 D7 34 3C 7C 70 1A 7E F0 73 0C F1 30 1F F0 3D F4 70 E0 53 5C 85 B7 C3 E3
DPCM : 30 DC 43 3C C5 F0 91 37 1E FC C4 91 07 6F C0 F3 E0 7D 10 3E 81 3F 85 9F E1 C3 83 67 E0 83 C7 8F
DPCM : E1 1B D8 81 67 1B C3 07 D7 14 C7 E3 70 C5 3F D0 D8 01 5F 85 1F 0F 75 70 F8 40 1F 1F 9E 86 8B C3
DPCM : E3 D0 2B 65 3D 0C 4F 7C 70 CA CB 70 0F 1E 1E 5E E0 13 4F 7C 1C C3 87 87 3E 58 78 5C F1 F0 58 3D
DPCM : 38 7C 78 E0 83 1F 72 7C F0 71 38 F8 E0 85 67 0F E9 73 E0 13 78 38 F1 11 DF 63 F8 C1 23 78 F8 E0
DPCM : C7 33 F8 E0 F0 E0 2E 78 7C E1 D1 C2 E3 D1 F0 E4 C1 E1 E3 C3 0E 4E 07 E3 C3 F1 E3 C0 87 E1 11 1F
DPCM : 0F BE F0 C1 E1 07 1F 2D 3D C6 C1 39 6E E0 99 07 1F 8E D3 07 07 C7 C5 85 1F BC 1C 1E 1E C3 F1 C0
DPCM : 87 8F 0F 3E 7C 30 78 8C 3E C6 CF 81 33 E1 47 D4 47 76 E4 58 07 FE 38 78 38 78 13 3E 9C C7 F0 3C
DPCM : 3C 78 18 1F A9 1E 3C 3E 38 3C 3C 45 97 89 67 3D F8 30 0F 0E 79 3C F8 13 1E FC 40 E7 70 8E F3 30
DPCM : 7C 58 3C B8 93 0E 0F 4F F9 E1 60 7C 70 F8 E0 F1 C3 38 1E 4E 83 9B C3 73 E2 E1 C1 E3 11 2F F1 8C
DPCM : C3 47 87 87 C3 E3 C3 C1 C3 87 1D 37 D8 83 31 0E 9F E3 C3 83 0F 0F F0 1C 3E 0F 3E 1C 1D C6 0B 5E
DPCM : C7 98 EB 70 46 1C 2F 3C 3E 78 13 3C 0E 67 3C F2 C1 1D 4E 71 1E FA 10 3E 9C 0F 27 7C D8 70 0E 7F
DPCM : E0 74 84 77 30 7F D0 C6 31 E6 F0 38 EC 0D 78 7C F0 1E 3C 68 C5 07 8F 1F 38 87 E5 E8 F8 10 3F 0C
DPCM : 0F CE 8D E1 C7 14 E7 E1 98 27 5C AC 83 8F 0F F8 06 8F 75 E1 F1 90 83 F7 C0 1F 06 4F 78 56 E1 C3
DPCM : 47 75 F0 E1 61 3C 3C F8 86 0F 3E 06 DE 84 4F E5 58 36 8E 87 39 7C CC C1 87 5C 72 C3 87 0F 3C 39
DPCM : 3E 38 3C 15 1F 4E 55 0E 0F FE D0 61 0D 3D 3C E6 31 7C 1C 3E 54 AD E0 87 99 ED E0 38 F1 78 E0 0F
DPCM : 1E 7C F8 50 1E 53 D5 C1 71 4D 39 27 7C 98 BC 41 9E 65 E3 86 CD 51 B9 68 3D E0 1D 9A 17 CE 11 8F
DPCM : 47 E1 D3 C1 63 B8 35 E6 0C FE 10 8F 83 87 0F 7B C1 87 53 B5 E1 F0 30 1F E6 8C 63 E5 82 57 CC E3
DPCM : 52 1E 78 39 E6 05 1F 0F 83 87 E7 F0 D4 D8 F0 46 F8 11 1F 1E 0E C7 CB E1 07 1E 79 F0 11 3D 1E 3C
DPCM : 3C 0F 0E 1F B1 07 C7 D9 D8 D8 F0 43 CD 78 E0 79 E8 43 3D D0 C3 63 66 55 78 F9 88 0F 5C C5 47 4D
DPCM : 87 53 E1 C5 E5 E1 A8 35 FC 30 7C 98 63 C6 8B 47 8B CC 63 E9 D8 E1 91 3C 1C 3E 0E 1F 56 8D C7 C1
DPCM : 71 E6 70 3E 8C 1D 3C A6 C3 13 1F CE 78 E1 83 3D F0 F0 61 0B 1E CF 70 07 8F 39 C3 C3 63 0D FC F0
DPCM : E1 03 1F 3C 3C C3 87 0F FA E0 C1 13 2F 5C 75 58 07 3E F1 61 8E 47 53 65 C3 C3 67 78 F0 12 57 0D
DPCM : 1F 76 C4 33 E5 C1 83 4F 79 78 F0 94 0B 2F E6 E1 31 67 E4 78 70 C5 39 D5 2C 4E 39 72 1E 3A C3 C3
DPCM : 53 75 E1 70 15 3E 3C 7C C4 87 13 1F 7C 58 56 A3 75 38 59 19 1F 2E BA 83 53 16 CF C3 07 0B 7B F0
DPCM : F0 54 59 D6 78 C2 0B 67 E9 E1 F0 78 38 1E 76 11 1F 76 58 C5 C3 95 47 D6 A1 0F BC E0 15 3D 56 3C
DPCM : 4E D3 11 CF E8 52 CC C3 75 78 1C 2B 4E 9C C3 C3 8D 13 6F D4 49 63 19 D7 F0 58 95 1B 5E 1C B5 94
DPCM : A3 F1 E1 64 71 75 38 55 53 96 1E 66 8E C7 43 E5 E1 71 70 5C 4E 56 0D 1F 55 4D 59 53 C3 C7 81 8F
DPCM : 36 F1 D4 74 54 07 57 C5 15 4F DA 31 B5 58 59 F8 F0 C1 17 4E 8E 53 C5 95 4E F8 E1 51 35 0D 7B 94
DPCM : C3 1B 1E 5C 87 AE 94 E5 D8 62 23 1F CE E8 91 47 8D 56 D1 87 87 D3 E0 87 95 D9 C1 D3 C8 63 9A 4E
DPCM : D6 51 59 4D 9E F0 E4 4A 3A C7 E8 0C A7 C3 35 55 D6 64 4D 55 F5 C0 C3 C3 79 58 4E 55 1D 6A 87 55
DPCM : 8D 55 56 C5 07 57 1E E5 91 93 53 CE E0 C3 4B 75 54 55 96 96 96 7A F0 4C 35 55 36 9A 95 4D 56 B9
DPCM : C1 1B 3A 55 55 C3 07 2F F1 58 53 BC 14 2F 7C 58 15 57 55 4D 55 E3 54 35 99 07 D7 54 C3 63 D5 F0
DPCM : 64 E5 D8 54 65 07 6F 54 59 95 95 36 3C 55 65 55 55 2E 7C 68 93 55 35 59 56 15 4F 4E 35 07 4F 69
DPCM : 13 4F 8D 55 8D 96 53 95 1E 16 2F 5C 87 87 0F 53 69 E5 C1 8B 53 39 93 55 93 C7 64 55 13 AF B8 F0
DPCM : 94 55 55 39 65 87 13 1F 7A D8 C1 4D 35 7A 58 D3 54 3C 5A 35 5C 35 D5 8C 8D 8E 55 65 59 4D 4E 39
DPCM : 35 65 96 5A E5 4C 93 47 D6 68 C3 87 F1 78 D8 54 36 76 D8 91 47 1D 3C F2 C4 C3 1D 76 D8 61 55 1E
DPCM : 7A 70 E3 8C 75 E4 64 93 35 4E D9 64 8D 1D 1E 5C 95 93 8E D9 E4 54 95 56 55 55 4D 55 53 D5 54 55
DPCM : 55 39 4D 65 95 55 59 63 93 1E 36 3C 79 64 55 1E 4E 2E 3C 63 47 2D 5C 55 56 55 55 55 35 3C 75 D8
DPCM : 94 13 57 8D 75 D8 54 55 35 B6 D8 54 55 4D B5 E4 E4 54 55 E5 54 D5 54 D5 38 55 65 55 35 66 55 55
DPCM : 55 35 E9 E1 F0 64 35 D6 38 E5 34 55 B5 58 65 65 55 55 D5 54 55 55 55 35 95 55 56 56 65 55 4D D5
DPCM : E2 54 65 55 3A 76 D4 52 8B 93 36 5A C5 53 55 D5 54 55 35 55 56 65 95 4E 4D D5 E2 4A 55 55 35 59
DPCM : 55 35 35 D5 94 93 55 55 55 65 53 55 55 55 59 39 4D 36 55 55 55 63 53 55 55 55 55 5A 55 53 35 55
DPCM : 55 E5 52 69 55 55 D5 54 8B 55 59 59 55 56 55 55 53 55 55 55 95 53 D5 34 59 55 8B 8E D5 D4 94 93
DPCM : 55 55 65 53 4D 4D 65 A5 95 55 55 D5 51 53 4E 56 F1 64 93 47 D5 E4 61 93 56 59 59 C3 53 55 55 55
DPCM : D5 54 4D 95 55 96 55 D5 54 55 55 4D 55 59 A5 55 55 4E 55 55 55 55 95 55 55 55 55 55 55 55 55 36
DPCM : 55 95 55 55 D5 E2 54 55 55 55 55 56 55 55 55 53 55 55 95 55 D5 62 55 56 55 55 55 8D 55 55 55 55
DPCM : 53 55 59 55 55 53 55 55 55 65 55 4D 55 95 95 53 55 D5 E8 54 4D 55 55 55 95 8B 55 55 53 55 55 55
DPCM : 55 65 55 55 55 55 55 8B 4D 55 55 95 53 55 4D D5 54 8B 55 59 36 56 55 55 4D 55 55 55 55 55 55 63
DPCM : 2D 36 56 55 95 4D 4D 55 55 55 55 55 55 55 55 35 55 D5 54 55 35 56 55 55 55 55 55 55 55 4D 56 55
DPCM : 55 55 55 55 55 55 55 55 55 55 55 55 B9 58 55 55 55 55 55 65 55 55 55 55 39 55 55 55 55 55 55 55
DPCM : 55 55 55 56 35 D9 54 55 55 55 55 55 55 55 35 55 55 95 95 55 55 55 55 55 55 55 55 55 55 55 55 55
DPCM : 95 4D 55 55 55 55 55 55 D5 54 55 55 95 55 55 55 55 55 55 55 65 55 55 55 55 35 55 55 55 55 55 55
DPCM : 55 55 55 55 55 55 55 59 55 55 55 55 55 55 55 55 55 55 55 55 55 55 55 55 55 55 55 55 55 55 55 55
DPCM : 55 55 55 55 55 55 55 55 55 95 55 55 55 55 55 55 55 59 55 55 55 55 55 55 55 55 55 65 55 53 55 55
DPCM : 55 55 55 36 55 55 55 55 55 55 55 55 55 55 55 55 55 55 55 55 55 55 55 55 55 55 4D 2D 59 55 55 55
DPCM : 55 55 55 55 55 55 55 55 55 55 55 55 55 55 55 55 55 65 55 55 55 59 55 55 55 55 55 55 55 55 55 55
DPCM : 55 55 55 55 55 55 55 55 55 55 55 55 55 D5 58 55 55 55 55 55 55 55 55 55 55 55 55 55 55 55 55 55
DPCM : 55 55 55 55 55 55 55 55 55 55 55 55 55 55 55 55 55 55 55 55 55 55 55 55 55 55 55 55 55 55 55 55
DPCM : 55 55 55 55 55 55 55 55 55 55 55 55 55 55 55 55 55 55 55 55 55 55 55 55 55 55 55 55 55 55 55 55
DPCM : 55 55 55 55 55 55 55 55 55 55 55 55 55 55 55 55 55 55 55 55 55 55 55 55 55 55 55 55 55 55 55 55
DPCM : 55 55 55 55 55 55 55 55 55 55 55 55 55 55 55 55 55 55 55 55 55 55 55 55 55 55 55 55 55 55 55 55
DPCM : 55 55 55 55 55 55 55 55 55 55 55 55 55 55 55 55 55 55 55 55 55 55 55 55 55 55 55 55 55 55 55 55
DPCM : 55 55 55 55 55 55 55 55 55 55 55 55 55 55 55 55 55 55 55 55 55 55 55 55 55 55 55 55 55 55 55 55
DPCM : 55 55 55 55 55 55 55 55 55 55 55 55 55 55 55 55 55 55 55 55 55 55 55 55 55 55 55 55 55 55 55 55
DPCM : 55 55 55 55 55 55 55 55 55 55 55 55 55 55 55 55 55 55 55 55 55 55 55 55 55 55 55 55 55 55 55 55
DPCM : 55 55 55 55 55 55 55 55 55 55 55 55 55 55 55 55 55 55 55 55 55 55 55 55 55 55 55 55 55 55 55 55
DPCM : 55 55 55 55 55 55 55 55 55 55 55 55 55 55 55 55 55 55 55 55 55 55 55 55 55 55 55 55 55 55 55 55
DPCM : 55 55 55 55 55 55 55 55 55 55 55 55 55 55 55 55 55 55 55 55 55 55 55 55 55 55 55 55 55 55 55 55
DPCM : 55 55 55 55 55 55 55 55 55 55 55 55 55 55 55 55 55 55 55 55 55 55 55 55 55 55 55 55 55 55 55 55
DPCM : 55 55 55 55 55 55 55 55 55 55 55 55 55 55 55 55 55 55 55 55 55 55 55 55 55 55 55 55 55 55 55 55
DPCM : 55 55 55 55 55 55 55 55 55 55 55 55 55 55 55 55 55 55 55 55 55 55 55 55 55 55 55 55 55 55 55 55
DPCM : 55 55 55 55 55 55 55 55 55 55 55 55 55 55 55 55 55 55 55 55 55 55 55 55 55 55 55 55 55 55 55 55
DPCM : 55 55 55 55 55 55 55 55 55 55 55 55 55 55 55 55 55 55 55 55 55 55 55 55 55 55 55 55 55 55 55 55
DPCM : 55 55 55 55 55 55 55 55 55 55 55 55 55 55 55 55 55 55 55 55 55 55 55 55 55 55 55 55 55 55 55 55
DPCM : 55 55 55 55 55 55 55 55 55 55 55 55 55 55 55 55 55 55 55 55 55 55 55 55 55 55 55 55 55 55 55 55
DPCM : 55 55 55 55 55 55 55 55 55 55 55 55 55 55 55 55 55 55 55 55 55 55 55 55 55 55 55 55 55 55 55 55
DPCM : 55 55 55 55 55 55 55 55 55 55 55 55 55 55 55 55 55 55 55 55 55 55 55 55 55 55 55 55 55 55 55 55
DPCM : 55 55 55 55 55 55 55 55 55 55 55 55 55 55 55 55 55 55 55 55 55 55 55 55 55 55 55 55 55 55 55 55
DPCM : 55 55 55 55 55 55 55 55 55 55 55 55 55 55 55 55 55 55 55 55 55 55 55 55 55 55 55 55 55 55 55 55
DPCM : 55 55 55 55 55 55 55 55 55 55 55 55 55 55 55 55 55 55 55 55 55 55 55 55 55 55 55 55 55 55 55 55
DPCM : 55 55 55 55 55 55 55 55 55 55 55 55 55 55 55 55 55 55 55 55 55 55 55 55 55 55 55 55 55 55 55 55
DPCM : 55 55 55 55 55 55 55 55 55 55 55 55 55 55 55 55 55 55 55 55 55 55 55 55 55 55 55 55 55 55 55 55
DPCM : 55 55 55 55 55 55 55 55 55 55 55 55 55 55 55 55 55 55 55 55 55 55 55 55 55 55 55 55 55 55 55 55
DPCM : 55 55 55 55 55 55 55 55 55 55 55 55 55 55 55 55 55 55 55 55 55 55 55 55 55 55 55 55 55 55 55 55
DPCM : 55 55 55 55 55 55 55 55 55 55 55 55 55 55 55 55 55 55 55 55 55 55 55 55 55 55 55 55 55 55 55 55
DPCM : 55 55 55 55 55 55 55 55 55 55 55 55 55 55 55 55 55 55 55 55 55 55 55 55 55 55 55 55 55 55 55 55
DPCM : 55 55 55 55 55 55 55 55 55 55 55 55 55 55 55 55 55 55 55 55 55 55 55 55 55 55 55 55 55 55 55 55
DPCM : 55 55 55 55 55 55 55 55 55 55 55 55 55 55 55 55 55 55 55 55 55 55 55 55 55 55 55 55 55 55 55 55
DPCM : 55 55 55 55 55 55 55 55 55 55 55 55 55 55 55 55 55 55 55 55 55 55 55 55 55 55 55 55 55 55 55 55
DPCM : 55 55 55 55 55 55 55 55 55 55 55 55 55 55 55 55 55 55 55 55 55 55 55 55 55 55 55 55 55 55 55 55
DPCM : 55 55 55 55 55 55 55 55 55 55 55 55 55 55 55 55 55 55 55 55 55 55 55 55 55 55 55 55 55 55 55 55
DPCM : 55 55 55 55 55 55 55 55 55 55 55 55 55 55 55 55 55 55 55 55 55 55 55 55 55 55 55 55 55 55 55 55
DPCM : 55 55 55 55 55 55 55 55 55 55 55 55 55 55 55 55 55 55 55 55 55 55 55 55 55 55 55 55 55 55 55 55
DPCM : 55 55 55 55 55 55 55 55 55 55 55 55 55 55 55 55 55

# Instruments
INST2A03   0     0  -1  -1  -1  -1 "Lead"
KEYDPCM   0   3   0     0  15   0     0  -1
KEYDPCM   0   3   1     2  15   0     0  -1
KEYDPCM   0   3   2     3  15   0     0  -1
KEYDPCM   0   3   3     4  15   0     0  -1
KEYDPCM   0   3   4     1  15   0     0  -1
KEYDPCM   0   3   5     5  15   0     0  -1
INST2A03   1    -1  -1  -1  -1  -1 "New instrument"
INST2A03   2     1  -1  -1  -1  -1 "New instrument"
INST2A03   3     2   0  -1  -1  -1 "Drumroll Please"
INST2A03   4     3   1  -1  -1  -1 "Snare"
INST2A03   5     4   2  -1  -1  -1 "New instrument"
INST2A03   6    -1   3  -1  -1  -1 "New instrument"
INST2A03   7     5  -1  -1  -1  -1 "New instrument"
KEYDPCM   7   3   0     0  15   0     0  -1
INST2A03   8     6  -1  -1  -1  -1 "New instrument"

# Tracks

TRACK  64   3 150 "Hyrule Field"
COLUMNS : 1 2 1 1 2

ORDER 00 : 00 00 00 00 00
ORDER 01 : 01 01 01 01 01
ORDER 02 : 02 02 02 02 02
ORDER 03 : 03 03 03 02 02
ORDER 04 : 04 04 04 02 02
ORDER 05 : 05 05 05 03 03
ORDER 06 : 02 02 02 02 02
ORDER 07 : 06 06 06 04 04
ORDER 08 : 07 07 07 05 05
ORDER 09 : 08 08 07 05 06
ORDER 0A : 09 09 04 02 02
ORDER 0B : 05 05 08 03 07

PATTERN 00
ROW 00 : F-2 00 A ... : A#3 00 A P7F ... : F-1 06 . ... : 9-# 03 F ... : D#3 00 . Z00 ...
ROW 01 : ... .. . ... : ... .. . ... ... : ... .. . ... : ... .. . ... : D#3 00 . ... ...
ROW 02 : ... .. . ... : ... .. . ... ... : ... .. . ... : ... .. . ... : D#3 00 . ... ...
ROW 03 : ... .. . ... : ... .. . ... ... : ... .. . ... : ... .. . ... : D#3 00 . ... ...
ROW 04 : ... .. . ... : ... .. . ... ... : ... .. . ... : ... .. . ... : D#3 00 . ... ...
ROW 05 : ... .. . ... : ... .. . ... ... : ... .. . ... : ... .. . ... : D#3 00 . ... ...
ROW 06 : ... .. . ... : ... .. . ... ... : ... .. . ... : ... .. . ... : D#3 00 . ... ...
ROW 07 : ... .. . ... : ... .. . ... ... : ... .. . S00 : ... .. . ... : D#3 00 . ... ...
ROW 08 : ... .. . 484 : ... .. . 483 ... : F-1 06 . ... : 9-# 03 . ... : D#3 00 . Z00 ...
ROW 09 : ... .. . ... : ... .. . ... ... : ... .. . S02 : ... .. . ... : D#3 00 . ... ...
ROW 0A : ... .. . ... : ... .. . ... ... : F-1 06 . G02 : ... .. . ... : D#3 00 . ... ...
ROW 0B : ... .. . ... : ... .. . ... ... : ... .. . S04 : ... .. . ... : D#3 00 . ... ...
ROW 0C : F-2 00 4 ... : A#3 00 3 ... ... : ... .. . ... : 9-# 03 . ... : D#3 00 . Z00 ...
ROW 0D : ... .. . ... : ... .. . ... ... : F-1 06 . G01 : 9-# 03 . G01 : D#3 00 . Z00 ...
ROW 0E : ... .. . ... : ... .. . ... ... : ... .. . S03 : 9-# 03 . G02 : D#3 00 . Z00 ...
ROW 0F : ... .. . 400 : ... .. . 400 ... : ... .. . ... : ... .. . ... : D#3 00 . ... ...
ROW 10 : A#2 00 . ... : D#2 00 4 ... ... : F-1 06 . ... : 9-# 04 . ... : D#3 00 . Z00 ...
ROW 11 : ... .. . ... : ... .. . ... ... : ... .. . ... : ... .. . ... : ... .. . ... ...
ROW 12 : ... .. . ... : ... .. . ... ... : ... .. . ... : ... .. . ... : ... .. . ... ...
ROW 13 : ... .. . ... : ... .. . S01 ... : ... .. . ... : ... .. . ... : ... .. . ... ...
ROW 14 : A#3 02 8 G03 : D#3 00 5 G03 ... : ... .. . ... : ... .. . ... : ... .. . ... ...
ROW 15 : ... .. . S02 : ... .. . ... ... : ... .. . ... : ... .. . ... : ... .. . ... ...
ROW 16 : A#3 02 . G01 : === .. . ... ... : ... .. . ... : ... .. . ... : ... .. . ... ...
ROW 17 : ... .. . S01 : ... .. . ... ... : ... .. . S00 : ... .. . ... : ... .. . ... ...
ROW 18 : F-2 02 A ... : A#3 02 A ... ... : F-1 06 . ... : 9-# 04 A ... : D#3 00 . ... Z00
ROW 19 : ... .. . ... : ... .. . ... ... : ... .. . S02 : ... .. . ... : ... .. . ... ...
ROW 1A : F-2 02 . G02 : A#3 02 . G02 ... : F-1 06 . G02 : 9-# 04 . G02 : D#3 00 . G02 Z00
ROW 1B : ... .. . ... : ... .. . ... ... : ... .. . S04 : ... .. . ... : ... .. . ... ...
ROW 1C : ... .. . ... : ... .. . ... ... : ... .. . ... : ... .. . ... : ... .. . ... ...
ROW 1D : F-2 02 . G01 : A#3 02 . G01 ... : F-1 06 . G01 : 9-# 04 . G01 : D#3 00 . G01 Z00
ROW 1E : ... .. . ... : ... .. . ... ... : ... .. . S03 : ... .. . ... : ... .. . ... ...
ROW 1F : ... .. . ... : ... .. . ... ... : ... .. . ... : ... .. . ... : ... .. . ... ...
ROW 20 : F-2 00 A ... : A#3 00 A ... ... : G-2 06 . ... : 9-# 03 F ... : D#3 00 . Z00 ...
ROW 21 : ... .. . ... : ... .. . ... ... : ... .. . ... : ... .. . ... : D#3 00 . ... ...
ROW 22 : === .. . ... : ... .. . ... ... : ... .. . ... : ... .. . ... : D#3 00 . ... ...
ROW 23 : F-2 00 3 ... : A#3 00 3 ... ... : ... .. . ... : ... .. . ... : D#3 00 . ... ...
ROW 24 : ... .. . ... : ... .. . ... ... : ... .. . ... : ... .. . ... : D#3 00 . ... ...
ROW 25 : G-3 00 A G01 : C-3 00 A G01 ... : ... .. . ... : ... .. . ... : D#3 00 . ... ...
ROW 26 : ... .. . ... : ... .. . ... ... : ... .. . ... : ... .. . ... : D#3 00 . ... ...
ROW 27 : === .. . ... : === .. . ... ... : ... .. . S00 : ... .. . ... : D#3 00 . ... ...
ROW 28 : F-2 00 . ... : A#3 00 . ... ... : G-2 06 . ... : 9-# 03 . ... : D#3 00 . Z00 ...
ROW 29 : ... .. . ... : ... .. . ... ... : ... .. . S02 : ... .. . ... : D#3 00 . ... ...
ROW 2A : ... .. . ... : ... .. . ... ... : G-2 06 . G02 : ... .. . ... : D#3 00 . ... ...
ROW 2B : ... .. . ... : ... .. . ... ... : ... .. . S04 : ... .. . ... : D#3 00 . ... ...
ROW 2C : ... .. . ... : ... .. . ... ... : ... .. . ... : 9-# 03 . ... : D#3 00 . Z00 ...
ROW 2D : ... .. . ... : ... .. . ... ... : G-2 06 . G01 : 9-# 03 . G01 : D#3 00 . Z00 ...
ROW 2E : ... .. . ... : ... .. . ... ... : ... .. . S03 : 9-# 03 . G02 : D#3 00 . Z00 ...
ROW 2F : ... .. . ... : ... .. . ... ... : ... .. . ... : ... .. . ... : D#3 00 . ... ...
ROW 30 : ... .. . 484 : ... .. . 484 ... : G-2 06 . ... : 9-# 04 . ... : D#3 00 . Z00 ...
ROW 31 : === .. . ... : ... .. . ... ... : ... .. . ... : ... .. . ... : ... .. . ... ...
ROW 32 : F-2 00 4 400 : A#3 00 3 400 ... : ... .. . ... : ... .. . ... : ... .. . ... ...
ROW 33 : ... .. . ... : ... .. . ... ... : ... .. . ... : ... .. . ... : ... .. . ... ...
ROW 34 : A#3 02 8 G03 : D#3 00 4 G03 ... : ... .. . ... : ... .. . ... : ... .. . ... ...
ROW 35 : ... .. . S02 : ... .. . ... ... : ... .. . ... : ... .. . ... : ... .. . ... ...
ROW 36 : A#3 02 . G01 : === .. . ... ... : ... .. . ... : ... .. . ... : ... .. . ... ...
ROW 37 : ... .. . S01 : ... .. . ... ... : ... .. . S00 : ... .. . ... : ... .. . ... ...
ROW 38 : F-2 02 A ... : A#3 02 A ... ... : G-2 06 . ... : 9-# 04 A ... : D#3 00 . ... Z00
ROW 39 : ... .. . ... : ... .. . ... ... : ... .. . S02 : ... .. . ... : ... .. . ... ...
ROW 3A : F-2 02 . G02 : A#3 02 . G02 ... : G-2 06 . G02 : 9-# 04 . G02 : D#3 00 . G02 Z00
ROW 3B : ... .. . ... : ... .. . ... ... : ... .. . S04 : ... .. . ... : ... .. . ... ...
ROW 3C : ... .. . ... : ... .. . ... ... : ... .. . ... : ... .. . ... : ... .. . ... ...
ROW 3D : F-2 02 . G01 : A#3 02 . G01 ... : G-2 06 . G01 : 9-# 04 . G01 : D#3 00 . G01 Z00
ROW 3E : ... .. . ... : ... .. . ... ... : ... .. . S03 : ... .. . ... : ... .. . ... ...
ROW 3F : ... .. . ... : ... .. . ... ... : ... .. . ... : ... .. . ... : ... .. . ... ...

PATTERN 01
ROW 00 : F-2 00 A ... : A#3 00 A ... ... : A-2 06 . ... : 9-# 03 F ... : D#3 00 . Z00 ...
ROW 01 : ... .. . ... : ... .. . ... ... : ... .. . ... : ... .. . ... : D#3 00 . ... ...
ROW 02 : === .. . ... : ... .. . ... ... : ... .. . ... : ... .. . ... : D#3 00 . ... ...
ROW 03 : F-2 00 3 ... : A#3 00 3 ... ... : ... .. . ... : ... .. . ... : D#3 00 . ... ...
ROW 04 : ... .. . ... : ... .. . ... ... : ... .. . ... : ... .. . ... : D#3 00 . ... ...
ROW 05 : G-3 00 A G01 : C-3 00 A G01 ... : ... .. . ... : ... .. . ... : D#3 00 . ... ...
ROW 06 : ... .. . ... : ... .. . ... ... : ... .. . ... : ... .. . ... : D#3 00 . ... ...
ROW 07 : === .. . ... : === .. . ... ... : ... .. . S00 : ... .. . ... : D#3 00 . ... ...
ROW 08 : F-2 00 . ... : A#3 00 . ... ... : A-2 06 . ... : 9-# 03 . ... : D#3 00 . Z00 ...
ROW 09 : ... .. . ... : ... .. . ... ... : ... .. . S02 : ... .. . ... : D#3 00 . ... ...
ROW 0A : ... .. . ... : ... .. . ... ... : A-2 06 . G02 : ... .. . ... : D#3 00 . ... ...
ROW 0B : ... .. . ... : ... .. . ... ... : ... .. . S04 : ... .. . ... : D#3 00 . ... ...
ROW 0C : ... .. . ... : ... .. . ... ... : ... .. . ... : 9-# 03 . ... : D#3 00 . Z00 ...
ROW 0D : ... .. . ... : ... .. . ... ... : A-2 06 . G01 : 9-# 03 . G01 : D#3 00 . Z00 ...
ROW 0E : ... .. . ... : ... .. . ... ... : ... .. . S03 : 9-# 03 . G02 : D#3 00 . Z00 ...
ROW 0F : ... .. . ... : ... .. . ... ... : ... .. . ... : ... .. . ... : D#3 00 . ... ...
ROW 10 : ... .. . 484 : ... .. . 484 ... : A-2 06 . ... : 9-# 04 . ... : D#3 00 . Z00 ...
ROW 11 : === .. . ... : ... .. . ... ... : ... .. . ... : ... .. . ... : ... .. . ... ...
ROW 12 : F-2 00 4 400 : A#3 00 3 400 ... : ... .. . ... : ... .. . ... : ... .. . ... ...
ROW 13 : ... .. . ... : ... .. . ... ... : ... .. . ... : ... .. . ... : ... .. . ... ...
ROW 14 : A#3 02 8 G03 : D#3 00 4 G03 ... : ... .. . ... : ... .. . ... : ... .. . ... ...
ROW 15 : ... .. . S02 : ... .. . ... ... : ... .. . ... : ... .. . ... : ... .. . ... ...
ROW 16 : A#3 02 . G01 : === .. . ... ... : ... .. . ... : ... .. . ... : ... .. . ... ...
ROW 17 : ... .. . S01 : ... .. . ... ... : ... .. . S00 : ... .. . ... : ... .. . ... ...
ROW 18 : F-2 02 A ... : A#3 02 A ... ... : A-2 06 . ... : 9-# 04 A ... : D#3 00 . ... Z00
ROW 19 : ... .. . ... : ... .. . ... ... : ... .. . S02 : ... .. . ... : ... .. . ... ...
ROW 1A : F-2 02 . G02 : A#3 02 . G02 ... : A-2 06 . G02 : 9-# 04 . G02 : D#3 00 . G02 Z00
ROW 1B : ... .. . ... : ... .. . ... ... : ... .. . S04 : ... .. . ... : ... .. . ... ...
ROW 1C : ... .. . ... : ... .. . ... ... : ... .. . ... : ... .. . ... : ... .. . ... ...
ROW 1D : F-2 02 . G01 : A#3 02 . G01 ... : A-2 06 . G01 : 9-# 04 . G01 : D#3 00 . G01 Z00
ROW 1E : ... .. . ... : ... .. . ... ... : ... .. . S03 : ... .. . ... : ... .. . ... ...
ROW 1F : ... .. . ... : ... .. . ... ... : ... .. . ... : ... .. . ... : ... .. . ... ...
ROW 20 : F-2 00 A ... : A#3 00 8 ... ... : A#2 06 . ... : 9-# 05 A ... : A#3 00 . Z00 ...
ROW 21 : === .. . G02 : === .. . G02 ... : ... .. . ... : ... .. . ... : ... .. . ... ...
ROW 22 : ... .. . ... : ... .. . ... ... : ... .. . ... : ... .. . ... : ... .. . ... ...
ROW 23 : ... .. . ... : ... .. . ... ... : ... .. . ... : ... .. . ... : ... .. . ... ...
ROW 24 : A#3 02 . ... : F-1 02 . ... ... : ... .. . ... : ... .. . ... : ... .. . ... ...
ROW 25 : ... .. . ... : ... .. . ... ... : ... .. . ... : ... .. . ... : ... .. . ... ...
ROW 26 : A#3 02 . ... : F-1 02 . ... ... : ... .. . ... : ... .. . ... : ... .. . ... SFF
ROW 27 : ... .. . ... : ... .. . ... ... : ... .. . S00 : ... .. . ... : ... .. . ... AFF
ROW 28 : A#3 00 . ... : E-1 00 . ... ... : A#2 06 . ... : 9-# 04 F G01 : D#3 00 . Z00 Y00
ROW 29 : === .. . G02 : === .. . G02 ... : ... .. . ... : ... .. . ... : ... .. . ... ...
ROW 2A : ... .. . ... : ... .. . ... ... : ... .. . ... : ... .. . ... : ... .. . ... G0F
ROW 2B : A#3 .. 4 ... : ... .. . ... ... : ... .. . ... : ... .. . ... : ... .. . ... R00
ROW 2C : A#3 02 A ... : E-1 02 . ... ... : ... .. . ... : ... .. . ... : ... .. . ... A00
ROW 2D : ... .. . ... : ... .. . ... ... : ... .. . ... : ... .. . ... : ... .. . ... P00
ROW 2E : A#3 02 . ... : E-1 02 . ... ... : ... .. . ... : ... .. . ... : ... .. . ... E00
ROW 2F : ... .. . ... : ... .. . ... ... : ... .. . S00 : ... .. . ... : ... .. . ... SFF
ROW 30 : A#3 00 . ... : D#3 00 . ... ... : A#2 06 . ... : 9-# 05 A ... : A#3 00 . Z00 ...
ROW 31 : === .. . G02 : === .. . G02 ... : ... .. . ... : ... .. . ... : ... .. . ... ...
ROW 32 : ... .. . ... : ... .. . ... ... : ... .. . ... : ... .. . ... : ... .. . ... ...
ROW 33 : A#3 .. 4 ... : ... .. . ... ... : ... .. . ... : ... .. . ... : ... .. . ... ...
ROW 34 : A#3 02 A ... : D#3 02 . ... ... : ... .. . ... : ... .. . ... : ... .. . ... ...
ROW 35 : ... .. . ... : ... .. . ... ... : ... .. . ... : ... .. . ... : ... .. . ... ...
ROW 36 : A#3 02 . ... : D#3 02 . ... ... : ... .. . ... : ... .. . ... : ... .. . ... ...
ROW 37 : ... .. . ... : ... .. . ... ... : ... .. . S00 : ... .. . ... : ... .. . ... ...
ROW 38 : A#3 00 . ... : D-3 00 . ... ... : G#2 06 . ... : 9-# 04 A G01 : D#3 00 . Z00 ...
ROW 39 : === .. . G04 : === .. . G04 ... : ... .. . ... : ... .. . ... : ... .. . ... ...
ROW 3A : ... .. . ... : ... .. . ... ... : ... .. . ... : ... .. . ... : ... .. . ... ...
ROW 3B : A#3 .. 3 ... : ... .. . ... ... : ... .. . S00 : ... .. . ... : ... .. . ... ...
ROW 3C : A#3 00 A ... : D-3 00 . ... ... : F#1 06 . ... : 9-# 04 . G01 : D#3 00 . Z00 ...
ROW 3D : === .. . G04 : === .. . G04 ... : ... .. . ... : ... .. . ... : ... .. . ... ...
ROW 3E : ... .. . ... : ... .. . ... ... : ... .. . ... : ... .. . ... : ... .. . ... ...
ROW 3F : ... .. . ... : ... .. . ... ... : ... .. . S00 : ... .. . ... : ... .. . ... ...

PATTERN 02
ROW 00 : F-2 07 B ... : C#3 07 A ... V00 : F-1 06 . ... : 9-# 04 A ... : D#3 00 . Z00 ...
ROW 01 : ... .. . ... : ... .. . ... ... : ... .. . ... : ... .. . ... : ... .. . ... ...
ROW 02 : ... .. . ... : ... .. . ... ... : ... .. . ... : ... .. . ... : ... .. . ... ...
ROW 03 : ... .. . ... : ... .. . ... ... : ... .. . ... : ... .. . ... : ... .. . ... ...
ROW 04 : ... .. . ... : ... .. . ... ... : ... .. . ... : ... .. . ... : ... .. . ... ...
ROW 05 : ... .. . ... : ... .. . ... ... : ... .. . ... : ... .. . ... : ... .. . ... ...
ROW 06 : ... .. . ... : ... .. . ... ... : ... .. . ... : ... .. . ... : ... .. . ... ...
ROW 07 : ... .. . ... : ... .. . P7F V01 : ... .. . S00 : ... .. . ... : ... .. . ... ...
ROW 08 : A#3 00 . ... : F-1 00 7 ... ... : F-1 06 . ... : 9-# 04 . ... : D#3 00 . Z00 ...
ROW 09 : ... .. . ... : ... .. . ... ... : ... .. . S02 : ... .. . ... : ... .. . ... ...
ROW 0A : ... .. . ... : ... .. . ... ... : F-1 06 . G02 : 9-# 04 . G02 : D#3 00 . G02 Z00
ROW 0B : ... .. . ... : ... .. . ... ... : ... .. . S04 : ... .. . ... : ... .. . ... ...
ROW 0C : ... .. . ... : ... .. . ... ... : ... .. . ... : ... .. . ... : ... .. . ... ...
ROW 0D : ... .. . ... : ... .. . ... ... : G-2 06 . G01 : 9-# 04 . G01 : D#3 00 . G01 Z00
ROW 0E : ... .. . ... : ... .. . ... ... : ... .. . S03 : ... .. . ... : ... .. . ... ...
ROW 0F : ... .. . ... : === .. . ... ... : ... .. . ... : ... .. . ... : ... .. . ... ...
ROW 10 : ... .. . 484 : A#2 00 . ... ... : F-1 06 . ... : 9-# 04 . ... : D#3 00 . Z00 ...
ROW 11 : ... .. . ... : ... .. . ... ... : ... .. . ... : ... .. . ... : ... .. . ... ...
ROW 12 : ... .. . ... : ... .. . ... ... : ... .. . ... : ... .. . ... : ... .. . ... ...
ROW 13 : ... .. . ... : ... .. . ... ... : ... .. . ... : ... .. . ... : ... .. . ... ...
ROW 14 : === .. . ... : ... .. . ... ... : ... .. . ... : 9-# 04 . ... : D#3 00 . Z00 ...
ROW 15 : ... .. . ... : ... .. . ... ... : ... .. . ... : ... .. . ... : ... .. . ... ...
ROW 16 : F-2 00 . 400 : C#3 00 . 400 V00 : ... .. . ... : ... .. . ... : ... .. . ... ...
ROW 17 : === .. . ... : === .. . ... ... : ... .. . S00 : ... .. . ... : ... .. . ... ...
ROW 18 : F-2 00 B ... : C#3 00 A ... ... : F-1 06 . ... : 9-# 04 8 ... : D#3 00 . Z00 ...
ROW 19 : F-2 .. 4 ... : C#3 .. 4 ... ... : ... .. . ... : ... .. . ... : ... .. . ... ...
ROW 1A : D#4 00 B ... : C-3 00 A ... ... : ... .. . ... : 9-# 04 . ... : D#3 00 . Z00 ...
ROW 1B : F-2 .. 4 ... : C#3 .. 4 ... ... : ... .. . ... : ... .. . ... : ... .. . ... ...
ROW 1C : C#4 00 B ... : A#3 00 A ... ... : ... .. . ... : 9-# 04 . ... : D#3 00 . Z00 ...
ROW 1D : D#4 .. 4 ... : C-3 .. 4 ... ... : ... .. . ... : ... .. . ... : ... .. . ... ...
ROW 1E : C-4 00 B ... : G#3 00 A ... ... : ... .. . ... : 9-# 04 . ... : D#3 00 . Z00 ...
ROW 1F : C#4 .. 4 ... : A#3 .. 4 ... ... : ... .. . S00 : ... .. . ... : ... .. . ... ...
ROW 20 : A#4 00 B ... : G-3 00 8 ... ... : G-2 06 . ... : 9-# 04 A ... : D#3 00 . Z00 ...
ROW 21 : ... .. . ... : ... .. . ... ... : ... .. . ... : ... .. . ... : ... .. . ... ...
ROW 22 : ... .. . ... : ... .. . ... ... : ... .. . ... : ... .. . ... : ... .. . ... ...
ROW 23 : ... .. . ... : ... .. . ... ... : ... .. . ... : ... .. . ... : ... .. . ... ...
ROW 24 : ... .. . ... : ... .. . ... ... : ... .. . ... : ... .. . ... : ... .. . ... ...
ROW 25 : ... .. . ... : F-1 00 7 G01 V01 : ... .. . ... : ... .. . ... : ... .. . ... ...
ROW 26 : ... .. . ... : G-3 01 3 G01 V00 : ... .. . ... : ... .. . ... : ... .. . ... ...
ROW 27 : ... .. . ... : ... .. . ... ... : ... .. . S00 : ... .. . ... : ... .. . ... ...
ROW 28 : ... .. . 483 : D#3 00 7 ... V01 : G-2 06 . ... : 9-# 04 . ... : D#3 00 . Z00 ...
ROW 29 : ... .. . ... : G-3 01 3 ... V00 : ... .. . S02 : ... .. . ... : ... .. . ... ...
ROW 2A : ... .. . ... : C#3 00 7 G02 V01 : G-2 06 . G02 : 9-# 04 . G02 : D#3 00 . G02 Z00
ROW 2B : ... .. . ... : G-3 01 3 G02 V00 : ... .. . S04 : ... .. . ... : ... .. . ... ...
ROW 2C : A#4 00 4 G02 : ... .. . ... ... : ... .. . ... : ... .. . ... : ... .. . ... ...
ROW 2D : ... .. . ... : C-3 00 7 G01 V01 : A-2 06 . G01 : 9-# 04 . G01 : D#3 00 . G01 Z00
ROW 2E : ... .. . ... : G-3 01 3 G01 V00 : ... .. . S03 : ... .. . ... : ... .. . ... ...
ROW 2F : ... .. . ... : ... .. . ... ... : ... .. . ... : ... .. . ... : ... .. . ... ...
ROW 30 : === .. . 400 : A#3 00 7 V01 ... : G-2 06 . ... : 9-# 04 . ... : D#3 00 . Z00 ...
ROW 31 : ... .. . ... : ... .. . ... ... : ... .. . ... : ... .. . ... : ... .. . ... ...
ROW 32 : ... .. . ... : ... .. . ... ... : ... .. . ... : ... .. . ... : ... .. . ... ...
ROW 33 : ... .. . ... : ... .. . ... ... : ... .. . ... : ... .. . ... : ... .. . ... ...
ROW 34 : A#4 00 B ... : G-3 00 A V00 ... : ... .. . ... : 9-# 04 . ... : D#3 00 . Z00 ...
ROW 35 : ... .. . S02 : ... .. . S02 ... : ... .. . ... : ... .. . ... : ... .. . ... ...
ROW 36 : ... .. . ... : ... .. . ... ... : ... .. . ... : ... .. . ... : ... .. . ... ...
ROW 37 : A#4 00 4 ... : G-3 00 3 ... ... : ... .. . S00 : ... .. . ... : ... .. . ... ...
ROW 38 : A#4 00 B ... : G-3 00 A ... ... : G-2 06 . ... : 9-# 04 8 ... : D#3 00 . Z00 ...
ROW 39 : === .. . ... : === .. . ... ... : ... .. . ... : ... .. . ... : ... .. . ... ...
ROW 3A : A-4 00 . G02 : F-2 00 . G02 ... : ... .. . ... : 9-# 04 . ... : D#3 00 . Z00 ...
ROW 3B : ... .. . ... : ... .. . ... ... : ... .. . ... : ... .. . ... : ... .. . ... ...
ROW 3C : === .. . ... : === 00 . ... ... : ... .. . ... : 9-# 04 . ... : D#3 00 . Z00 ...
ROW 3D : G-4 00 . G01 : D#4 00 . G01 ... : ... .. . ... : ... .. . ... : ... .. . ... ...
ROW 3E : ... .. . ... : ... .. . ... ... : ... .. . ... : 9-# 04 . ... : D#3 00 . Z00 ...
ROW 3F : === .. . ... : === .. . ... ... : ... .. . S00 : ... .. . ... : ... .. . ... ...

PATTERN 03
ROW 00 : F-3 00 B ... : D-4 00 A P7F ... : A-2 06 . ... : 9-# 04 A ... : D#3 00 . Z00 ...
ROW 01 : ... .. . ... : ... .. . ... ... : ... .. . ... : ... .. . ... : ... .. . ... ...
ROW 02 : ... .. . ... : ... .. . ... ... : ... .. . ... : ... .. . ... : ... .. . ... ...
ROW 03 : ... .. . ... : ... .. . ... ... : ... .. . ... : ... .. . ... : ... .. . ... ...
ROW 04 : ... .. . ... : ... .. . ... ... : ... .. . ... : ... .. . ... : ... .. . ... ...
ROW 05 : ... .. . ... : A-2 00 7 G01 V01 : ... .. . ... : ... .. . ... : ... .. . ... ...
ROW 06 : ... .. . 472 : D-4 01 3 G01 V00 : ... .. . ... : ... .. . ... : ... .. . ... ...
ROW 07 : ... .. . ... : ... .. . ... ... : ... .. . S00 : ... .. . ... : ... .. . ... ...
ROW 08 : ... .. . ... : G-2 00 7 ... V01 : A-2 06 . ... : 9-# 04 . ... : D#3 00 . Z00 ...
ROW 09 : ... .. . ... : D-4 01 3 ... V00 : ... .. . S02 : ... .. . ... : ... .. . ... ...
ROW 0A : ... .. . ... : F-1 00 7 G02 V01 : A-2 06 . G02 : 9-# 04 . G02 : D#3 00 . G02 Z00
ROW 0B : ... .. . ... : D-4 01 3 G02 V00 : ... .. . S04 : ... .. . ... : ... .. . ... ...
ROW 0C : F-3 00 3 G02 : ... .. . ... ... : ... .. . ... : ... .. . ... : ... .. . ... ...
ROW 0D : ... .. . ... : D#3 00 7 G01 V01 : B-2 06 . G01 : 9-# 04 . G01 : D#3 00 . G01 Z00
ROW 0E : ... .. . ... : D-4 01 3 G01 V00 : ... .. . S03 : ... .. . ... : ... .. . ... ...
ROW 0F : === .. . G01 : ... .. . ... ... : ... .. . ... : ... .. . ... : ... .. . ... ...
ROW 10 : ... .. . 400 : D-3 00 7 V01 ... : A-2 06 . ... : 9-# 04 . ... : D#3 00 . Z00 ...
ROW 11 : ... .. . ... : ... .. . ... ... : ... .. . ... : ... .. . ... : ... .. . ... ...
ROW 12 : ... .. . ... : ... .. . ... ... : ... .. . ... : ... .. . ... : ... .. . ... ...
ROW 13 : ... .. . ... : ... .. . ... ... : ... .. . ... : ... .. . ... : ... .. . ... ...
ROW 14 : ... .. . ... : ... .. . ... ... : ... .. . ... : 9-# 04 . ... : D#3 00 . Z00 ...
ROW 15 : F-3 02 B G01 : D-4 02 A G01 V00 : ... .. . ... : ... .. . ... : ... .. . ... ...
ROW 16 : ... .. . ... : ... .. . ... ... : ... .. . ... : ... .. . ... : ... .. . ... ...
ROW 17 : ... .. . ... : ... .. . ... ... : ... .. . S00 : ... .. . ... : ... .. . ... ...
ROW 18 : F-3 00 . ... : D-4 00 . ... ... : A-2 06 . ... : 9-# 04 8 ... : D#3 00 . Z00 ...
ROW 19 : === .. . G02 : === .. . G02 ... : ... .. . ... : ... .. . ... : ... .. . ... ...
ROW 1A : G-4 00 . G02 : D#4 00 . G02 ... : ... .. . ... : 9-# 04 . ... : D#3 00 . Z00 ...
ROW 1B : === .. . G04 : === .. . G04 ... : ... .. . ... : ... .. . ... : ... .. . ... ...
ROW 1C : ... .. . ... : ... .. . ... ... : ... .. . ... : 9-# 04 . ... : D#3 00 . Z00 ...
ROW 1D : A-4 00 . G01 : F-2 00 . G01 ... : ... .. . ... : ... .. . ... : ... .. . ... ...
ROW 1E : === .. . G03 : === .. . G03 ... : ... .. . ... : 9-# 04 . ... : D#3 00 . Z00 ...
ROW 1F : ... .. . ... : ... .. . ... ... : ... .. . S00 : ... .. . ... : ... .. . ... ...
ROW 20 : G-4 00 B A00 : D#4 00 A A00 ... : D-3 06 . ... : 9-# 04 A ... : D#3 00 . Z00 ...
ROW 21 : ... .. . A0C : ... .. . A0C ... : ... .. . ... : ... .. . ... : ... .. . ... ...
ROW 22 : ... .. . S01 : ... .. . S01 ... : ... .. . ... : ... .. . ... : ... .. . ... ...
ROW 23 : G-4 00 3 A00 : D#4 00 3 A00 ... : ... .. . ... : ... .. . ... : ... .. . ... ...
ROW 24 : ... .. . ... : ... .. . ... ... : ... .. . ... : 9-# 04 6 ... : D#3 00 . Z00 ...
ROW 25 : A-4 00 B G01 : F-2 00 A G01 ... : ... .. . ... : ... .. . ... : ... .. . ... ...
ROW 26 : === .. . G01 : === .. . G01 ... : ... .. . ... : 9-# 04 . ... : D#3 00 . Z00 ...
ROW 27 : ... .. . ... : ... .. . ... ... : ... .. . S00 : ... .. . ... : ... .. . ... ...
ROW 28 : A#4 00 . ... : G-3 00 . ... ... : D-3 06 . ... : 9-# 04 A ... : D#3 00 . Z00 ...
ROW 29 : ... .. . ... : ... .. . ... ... : ... .. . S02 : ... .. . ... : ... .. . ... ...
ROW 2A : ... .. . ... : ... .. . ... ... : D-3 06 . G02 : ... .. . ... : ... .. . ... ...
ROW 2B : ... .. . ... : ... .. . ... ... : ... .. . S04 : ... .. . ... : ... .. . ... ...
ROW 2C : ... .. . ... : ... .. . ... ... : ... .. . ... : 9-# 04 6 ... : D#3 00 . Z00 ...
ROW 2D : ... .. . ... : C-2 00 7 G01 V01 : E-1 06 . G01 : ... .. . ... : ... .. . ... ...
ROW 2E : ... .. . ... : ... .. . ... ... : ... .. . S03 : 9-# 04 . ... : D#3 00 . Z00 ...
ROW 2F : ... .. . ... : ... .. . ... ... : ... .. . ... : ... .. . ... : ... .. . ... ...
ROW 30 : ... .. . ... : A#2 00 . ... ... : D-3 06 . ... : 9-# 04 A ... : D#3 00 . Z00 ...
ROW 31 : ... .. . ... : ... .. . ... ... : ... .. . ... : ... .. . ... : ... .. . ... ...
ROW 32 : ... .. . ... : ... .. . ... ... : ... .. . ... : ... .. . ... : ... .. . ... ...
ROW 33 : ... .. . ... : ... .. . ... ... : ... .. . ... : ... .. . ... : ... .. . ... ...
ROW 34 : A#4 00 3 ... : ... .. . ... ... : ... .. . ... : 9-# 04 6 ... : D#3 00 . Z00 ...
ROW 35 : ... .. . ... : ... .. . ... ... : ... .. . ... : ... .. . ... : ... .. . ... ...
ROW 36 : ... .. . ... : ... .. . ... ... : ... .. . ... : 9-# 04 . ... : D#3 00 . Z00 ...
ROW 37 : ... .. . ... : ... .. . ... ... : ... .. . S00 : ... .. . ... : ... .. . ... ...
ROW 38 : A#4 00 B ... : G-3 00 A V00 ... : D-3 06 . ... : 9-# 04 A ... : D#3 00 . Z00 ...
ROW 39 : ... .. . ... : ... .. . ... ... : ... .. . ... : ... .. . ... : ... .. . ... ...
ROW 3A : ... .. . ... : ... .. . ... ... : ... .. . ... : 9-# 04 8 ... : D#3 00 . Z00 ...
ROW 3B : ... .. . ... : ... .. . ... ... : ... .. . ... : ... .. . ... : ... .. . ... ...
ROW 3C : A#4 00 3 ... : G-3 00 3 ... ... : ... .. . ... : 9-# 04 6 ... : D#3 00 . Z00 ...
ROW 3D : ... .. . ... : ... .. . ... ... : ... .. . ... : ... .. . ... : ... .. . ... ...
ROW 3E : ... .. . ... : ... .. . ... ... : ... .. . ... : 9-# 04 . ... : D#3 00 . Z00 ...
ROW 3F : ... .. . ... : ... .. . ... ... : ... .. . S00 : ... .. . ... : ... .. . ... ...

PATTERN 04
ROW 00 : C-4 08 B ... : A-3 08 A ... ... : E-1 06 . ... : 9-# 04 A ... : D#3 00 . Z00 ...
ROW 01 : ... .. . ... : ... .. . ... ... : ... .. . ... : ... .. . ... : ... .. . ... ...
ROW 02 : ... .. . ... : ... .. . ... ... : ... .. . ... : ... .. . ... : ... .. . ... ...
ROW 03 : ... .. . ... : ... .. . ... ... : ... .. . ... : ... .. . ... : ... .. . ... ...
ROW 04 : C-4 02 . ... : A-3 02 . ... ... : ... .. . ... : ... .. . ... : ... .. . ... ...
ROW 05 : ... .. . ... : ... .. . ... ... : ... .. . ... : ... .. . ... : ... .. . ... ...
ROW 06 : A#4 02 . S03 : G-3 02 . S03 ... : ... .. . ... : ... .. . ... : ... .. . ... ...
ROW 07 : C-4 .. 3 G01 : A-3 .. 3 G01 ... : ... .. . S00 : ... .. . ... : ... .. . ... ...
ROW 08 : A-4 00 B ... : A-2 00 7 ... V01 : E-1 06 . ... : 9-# 04 . ... : D#3 00 . Z00 ...
ROW 09 : ... .. . ... : F-2 01 5 ... V00 : ... .. . S02 : ... .. . ... : ... .. . ... ...
ROW 0A : ... .. . ... : A-2 00 7 G02 V01 : E-1 06 . G02 : 9-# 04 . G02 : D#3 00 . G02 Z00
ROW 0B : ... .. . ... : F-2 01 3 G02 V00 : ... .. . S04 : ... .. . ... : ... .. . ... ...
ROW 0C : ... .. . ... : ... .. . ... ... : ... .. . ... : ... .. . ... : ... .. . ... ...
ROW 0D : ... .. . ... : G-2 00 7 G01 V01 : F-1 06 . G01 : 9-# 04 . G01 : D#3 00 . G01 Z00
ROW 0E : ... .. . ... : F-2 01 3 G01 V00 : ... .. . S03 : ... .. . ... : ... .. . ... ...
ROW 0F : ... .. . ... : ... .. . ... ... : ... .. . ... : ... .. . ... : ... .. . ... ...
ROW 10 : ... .. . 473 : F-1 00 7 V01 ... : E-1 06 . ... : 9-# 04 . ... : D#3 00 . Z00 ...
ROW 11 : ... .. . ... : ... .. . ... ... : ... .. . ... : ... .. . ... : ... .. . ... ...
ROW 12 : A-4 00 4 ... : ... .. . ... ... : ... .. . ... : ... .. . ... : ... .. . ... ...
ROW 13 : ... .. . ... : ... .. . ... ... : ... .. . ... : ... .. . ... : ... .. . ... ...
ROW 14 : === .. . ... : ... .. . ... ... : ... .. . ... : 9-# 04 . ... : D#3 00 . Z00 ...
ROW 15 : ... .. . ... : ... .. . ... ... : ... .. . ... : ... .. . ... : ... .. . ... ...
ROW 16 : ... .. . ... : ... .. . ... ... : ... .. . S01 : ... .. . ... : ... .. . ... ...
ROW 17 : ... .. . ... : ... .. . ... ... : ... .. . ... : ... .. . ... : ... .. . ... ...
ROW 18 : A#4 00 B 400 : G-3 00 A V00 ... : E-1 06 . ... : 9-# 04 8 ... : D#3 00 . Z00 ...
ROW 19 : ... .. . ... : ... .. . ... ... : ... .. . S01 : ... .. . ... : ... .. . ... ...
ROW 1A : === .. . G02 : === .. . G02 ... : E-1 06 . G02 : 9-# 04 . ... : D#3 00 . Z00 ...
ROW 1B : ... .. . ... : ... .. . ... ... : ... .. . S03 : ... .. . ... : ... .. . ... ...
ROW 1C : C-4 00 . ... : A-3 00 . ... ... : ... .. . ... : 9-# 04 . ... : D#3 00 . Z00 ...
ROW 1D : ... .. . ... : ... .. . ... ... : E-1 06 . G01 : ... .. . ... : ... .. . ... ...
ROW 1E : === .. . G02 : === .. . G02 ... : ... .. . S02 : 9-# 04 . ... : D#3 00 . Z00 ...
ROW 1F : ... .. . ... : ... .. . ... ... : ... .. . ... : ... .. . ... : ... .. . ... ...
ROW 20 : D-4 08 B ... : A#3 08 A ... ... : F-1 06 . ... : 9-# 04 A ... : D#3 00 . Z00 ...
ROW 21 : ... .. . ... : ... .. . ... ... : ... .. . ... : ... .. . ... : ... .. . ... ...
ROW 22 : ... .. . ... : ... .. . ... ... : ... .. . ... : ... .. . ... : ... .. . ... ...
ROW 23 : ... .. . ... : ... .. . ... ... : ... .. . ... : ... .. . ... : ... .. . ... ...
ROW 24 : D-4 02 . ... : A#3 02 . ... ... : ... .. . ... : ... .. . ... : ... .. . ... ...
ROW 25 : ... .. . ... : ... .. . ... ... : ... .. . ... : ... .. . ... : ... .. . ... ...
ROW 26 : C-4 02 . S03 : A-3 02 . S03 ... : ... .. . ... : ... .. . ... : ... .. . ... ...
ROW 27 : D-4 .. 3 G01 : A#3 .. 3 G01 ... : ... .. . S00 : ... .. . ... : ... .. . ... ...
ROW 28 : A#4 00 B ... : A#2 00 7 ... V01 : F-1 06 . ... : 9-# 04 . ... : D#3 00 . Z00 ...
ROW 29 : ... .. . ... : G-3 01 5 ... V00 : ... .. . S02 : ... .. . ... : ... .. . ... ...
ROW 2A : ... .. . ... : A#2 00 7 G02 V01 : F-1 06 . G02 : 9-# 04 . G02 : D#3 00 . G02 Z00
ROW 2B : ... .. . ... : G-3 01 3 G02 V00 : ... .. . S04 : ... .. . ... : ... .. . ... ...
ROW 2C : ... .. . ... : ... .. . ... ... : ... .. . ... : ... .. . ... : ... .. . ... ...
ROW 2D : ... .. . ... : A-2 00 7 G01 V01 : G-2 06 . G01 : 9-# 04 . G01 : D#3 00 . G01 Z00
ROW 2E : ... .. . ... : G-3 01 3 G01 V00 : ... .. . S03 : ... .. . ... : ... .. . ... ...
ROW 2F : ... .. . ... : ... .. . ... ... : ... .. . ... : ... .. . ... : ... .. . ... ...
ROW 30 : ... .. . 473 : G-2 00 7 V01 ... : F-1 06 . ... : 9-# 04 . ... : D#3 00 . Z00 ...
ROW 31 : ... .. . ... : ... .. . ... ... : ... .. . ... : ... .. . ... : ... .. . ... ...
ROW 32 : A#4 00 4 ... : ... .. . ... ... : ... .. . ... : ... .. . ... : ... .. . ... ...
ROW 33 : ... .. . ... : ... .. . ... ... : ... .. . ... : ... .. . ... : ... .. . ... ...
ROW 34 : === .. . ... : ... .. . ... ... : ... .. . ... : 9-# 04 . ... : D#3 00 . Z00 ...
ROW 35 : ... .. . ... : ... .. . ... ... : ... .. . ... : ... .. . ... : ... .. . ... ...
ROW 36 : ... .. . ... : ... .. . ... ... : ... .. . S01 : ... .. . ... : ... .. . ... ...
ROW 37 : ... .. . ... : ... .. . ... ... : ... .. . ... : ... .. . ... : ... .. . ... ...
ROW 38 : C-4 00 B 400 : A-3 00 A V00 ... : F-1 06 . ... : 9-# 04 8 ... : D#3 00 . Z00 ...
ROW 39 : ... .. . ... : ... .. . ... ... : ... .. . S01 : ... .. . ... : ... .. . ... ...
ROW 3A : === .. . G02 : === .. . G02 ... : F-1 06 . G02 : 9-# 04 . ... : D#3 00 . Z00 ...
ROW 3B : ... .. . ... : ... .. . ... ... : ... .. . S03 : ... .. . ... : ... .. . ... I00
ROW 3C : D-4 00 . ... : A#3 00 . ... ... : ... .. . ... : 9-# 04 . ... : D#3 00 . Z00 M00
ROW 3D : ... .. . ... : ... .. . ... ... : F-1 06 . G01 : ... .. . ... : ... .. . ... S00
ROW 3E : === .. . G02 : === .. . G02 ... : ... .. . S02 : 9-# 04 . ... : D#3 00 . Z00 ...
ROW 3F : ... .. . ... : ... .. . ... ... : ... .. . ... : ... .. . ... : ... .. . ... D00

PATTERN 05
ROW 00 : D#4 08 B ... : B-3 08 B P7F ... : D#3 06 . ... : 9-# 04 A ... : D#3 00 . Z00 A00
ROW 01 : ... .. . ... : ... .. . ... ... : ... .. . ... : ... .. . ... : ... .. . ... 
ROW 02 : ... .. . ... : ... .. . ... ... : ... .. . ... : 9-# 04 . ... : D#3 00 . Z00 G00
ROW 03 : ... .. . ... : ... .. . ... ... : ... .. . ... : ... .. . ... : ... .. . ... E00
ROW 04 : D#4 02 . ... : B-3 02 . ... ... : ... .. . ... : 9-# 04 8 ... : D#3 00 . ... R00
ROW 05 : ... .. . ... : ... .. . ... ... : ... .. . ... : ... .. . ... : ... .. . ... B00
ROW 06 : C#4 02 . S03 : A#3 02 . S03 ... : ... .. . ... : 9-# 04 6 ... : D#3 00 . ... V00
ROW 07 : D#4 .. 3 G01 : B-3 .. 3 G01 ... : ... .. . S00 : ... .. . ... : ... .. . ... SFF
ROW 08 : B-4 00 B ... : B-2 00 7 ... V01 : D#3 06 . ... : 9-# 04 7 ... : D#3 00 . ... ...
ROW 09 : ... .. . ... : G#3 01 5 ... V00 : ... .. . S02 : ... .. . ... : ... .. . ... M00
ROW 0A : ... .. . ... : B-2 00 7 G02 V01 : D#3 06 . G02 : 9-# 04 8 ... : D#3 00 . Z00 B00
ROW 0B : ... .. . ... : G#3 01 3 G02 V00 : ... .. . S04 : ... .. . ... : ... .. . ... ...
ROW 0C : ... .. . ... : ... .. . ... ... : ... .. . ... : 9-# 04 9 ... : D#3 00 . Z00 G00
ROW 0D : ... .. . ... : A#2 00 7 G01 V01 : E-1 06 . G01 : ... .. . ... : ... .. . ... B00
ROW 0E : ... .. . ... : G#3 01 3 G01 V00 : ... .. . S03 : 9-# 04 A ... : D#3 00 . Z00 ...
ROW 0F : ... .. . ... : ... .. . ... ... : ... .. . ... : ... .. . ... : ... .. . ... A00
ROW 10 : ... .. . 473 : G#2 00 7 V01 ... : D#3 06 . ... : 9-# 05 A ... : A#3 00 . Z00 8FF
ROW 11 : ... .. . ... : ... .. . ... ... : ... .. . ... : ... .. . ... : ... .. . ... B00
ROW 12 : ... .. . ... : ... .. . ... ... : ... .. . ... : ... .. . ... : ... .. . ... 
ROW 13 : ... .. . ... : ... .. . ... ... : ... .. . ... : ... .. . ... : ... .. . ... E00
ROW 14 : ... .. . ... : G#2 00 . ... ... : ... .. . ... : ... .. . ... : ... .. . ... ...
ROW 15 : ... .. . ... : === .. . ... ... : ... .. . ... : ... .. . ... : ... .. . ... ...
ROW 16 : B-4 00 4 ... : F#1 00 . ... ... : ... .. . S00 : ... .. . ... : ... .. . ... ...
ROW 17 : === .. . ... : === .. . ... ... : ... .. . ... : ... .. . ... : ... .. . ... ...
ROW 18 : G#4 00 B 400 : F-1 00 . ... ... : D#3 06 . ... : 9-# 04 A ... : D#3 00 . Z00 ...
ROW 19 : ... .. . ... : ... .. . ... ... : ... .. . S02 : ... .. . ... : ... .. . ... ...
ROW 1A : ... .. . ... : === .. . G02 ... : D#3 06 . G02 : 9-# 04 8 ... : D#3 00 . Z00 ...
ROW 1B : ... .. . ... : ... .. . ... ... : ... .. . S04 : ... .. . ... : ... .. . ... ...
ROW 1C : ... .. . ... : D#3 00 . ... ... : ... .. . ... : 9-# 04 7 ... : D#3 00 . Z00 ...
ROW 1D : ... .. . ... : ... .. . ... ... : D#3 06 . G01 : ... .. . ... : ... .. . ... ...
ROW 1E : === .. . ... : === .. . G02 ... : ... .. . S03 : 9-# 04 9 ... : D#3 00 . Z00 ...
ROW 1F : ... .. . ... : ... .. . ... ... : ... .. . ... : ... .. . ... : ... .. . ... ...
ROW 20 : A#4 00 . ... : F#2 00 A V00 ... : A#2 06 . ... : 9-# 04 A ... : D#3 00 . Z00 ...
ROW 21 : ... .. . ... : ... .. . ... ... : ... .. . ... : ... .. . ... : ... .. . ... ...
ROW 22 : ... .. . ... : ... .. . ... ... : ... .. . ... : ... .. . ... : ... .. . ... ...
ROW 23 : === .. . ... : === .. . ... ... : ... .. . ... : ... .. . ... : ... .. . ... ...
ROW 24 : A#3 02 . ... : F#1 02 . ... ... : ... .. . ... : ... .. . ... : ... .. . ... ...
ROW 25 : ... .. . ... : ... .. . ... ... : ... .. . ... : ... .. . ... : ... .. . ... ...
ROW 26 : A#3 02 . ... : F#1 02 . ... ... : ... .. . ... : ... .. . ... : ... .. . ... ...
ROW 27 : ... .. . ... : ... .. . ... ... : ... .. . S00 : ... .. . ... : ... .. . ... ...
ROW 28 : A#3 00 . ... : F#1 00 . ... ... : A#2 06 . ... : 9-# 04 . ... : D#3 00 . Z00 ...
ROW 29 : === .. . G02 : === .. . G02 ... : ... .. . ... : ... .. . ... : ... .. . ... ...
ROW 2A : ... .. . ... : ... .. . ... ... : ... .. . ... : 9-# 04 . G02 : D#3 00 . G02 Z00
ROW 2B : A#3 .. 4 ... : F#1 .. 4 ... ... : ... .. . ... : ... .. . ... : ... .. . ... ...
ROW 2C : A#3 02 B ... : F#1 02 A ... ... : ... .. . ... : ... .. . ... : ... .. . ... ...
ROW 2D : ... .. . ... : ... .. . ... ... : ... .. . ... : 9-# 04 . G01 : D#3 00 . G01 Z00
ROW 2E : A#3 02 . ... : F#1 02 . ... ... : ... .. . ... : ... .. . ... : ... .. . ... ...
ROW 2F : ... .. . ... : ... .. . ... ... : ... .. . S00 : ... .. . ... : ... .. . ... ...
ROW 30 : A#3 00 . ... : F#1 00 . ... ... : A#2 06 . ... : 9-# 04 . ... : D#3 00 . Z00 ...
ROW 31 : === .. . G02 : === .. . G02 ... : ... .. . ... : ... .. . ... : ... .. . ... ...
ROW 32 : ... .. . ... : ... .. . ... ... : ... .. . ... : ... .. . ... : ... .. . ... ...
ROW 33 : A#3 .. 4 ... : F#1 .. 4 ... ... : ... .. . ... : ... .. . ... : ... .. . ... ...
ROW 34 : A#3 02 B ... : F#1 02 A ... ... : ... .. . ... : 9-# 04 . ... : D#3 00 . Z00 ...
ROW 35 : ... .. . ... : ... .. . ... ... : ... .. . ... : ... .. . ... : ... .. . ... ...
ROW 36 : A#3 02 . ... : F#1 02 . ... ... : ... .. . ... : ... .. . ... : ... .. . ... ...
ROW 37 : ... .. . ... : ... .. . ... ... : ... .. . S00 : ... .. . ... : ... .. . ... ...
ROW 38 : A#3 00 . ... : F#1 00 . ... ... : G#2 06 . ... : 9-# 04 8 ... : D#3 00 . Z00 ...
ROW 39 : === .. . G04 : === .. . G02 ... : ... .. . ... : ... .. . ... : ... .. . ... ...
ROW 3A : ... .. . ... : ... .. . ... ... : ... .. . ... : 9-# 04 . ... : D#3 00 . Z00 ...
ROW 3B : A#3 .. 3 ... : F#1 .. 4 ... ... : ... .. . S00 : ... .. . ... : ... .. . ... ...
ROW 3C : A#3 00 B ... : F#1 00 A ... ... : F#1 06 . ... : 9-# 04 . ... : D#3 00 . Z00 ...
ROW 3D : === .. . G04 : === .. . G02 ... : ... .. . ... : ... .. . ... : ... .. . ... ...
ROW 3E : ... .. . ... : ... .. . ... ... : ... .. . ... : 9-# 04 . ... : D#3 00 . Z00 ...
ROW 3F : ... .. . ... : F#1 .. 4 ... ... : ... .. . S00 : ... .. . ... : ... .. . ... ...

PATTERN 06
ROW 00 : F-3 00 B ... : D-4 00 A P7F ... : A-2 06 . ... : ... .. . ... : D#3 00 . Z00 ...
ROW 01 : ... .. . ... : ... .. . ... ... : ... .. . ... : ... .. . ... : ... .. . ... ...
ROW 02 : ... .. . ... : ... .. . ... ... : ... .. . ... : ... .. . ... : D#3 00 . Z00 ...
ROW 03 : ... .. . ... : ... .. . ... ... : ... .. . ... : ... .. . ... : ... .. . ... ...
ROW 04 : ... .. . ... : ... .. . ... ... : ... .. . ... : ... .. . ... : D#3 00 . ... ...
ROW 05 : ... .. . ... : A-2 00 7 G01 V01 : ... .. . ... : ... .. . ... : ... .. . ... ...
ROW 06 : ... .. . 472 : D-4 01 3 G01 V00 : ... .. . ... : ... .. . ... : D#3 00 . ... ...
ROW 07 : ... .. . ... : ... .. . ... ... : ... .. . S00 : ... .. . ... : ... .. . ... ...
ROW 08 : ... .. . ... : G-2 00 7 ... V01 : A-2 06 . ... : ... .. . ... : D#3 00 . ... ...
ROW 09 : ... .. . ... : D-4 01 3 ... V00 : ... .. . S02 : ... .. . ... : ... .. . ... ...
ROW 0A : ... .. . ... : F-1 00 7 G02 V01 : A-2 06 . G02 : ... .. . ... : D#3 00 . Z00 ...
ROW 0B : ... .. . ... : D-4 01 3 G02 V00 : ... .. . S04 : ... .. . ... : ... .. . ... ...
ROW 0C : ... .. . ... : ... .. . ... ... : ... .. . ... : ... .. . ... : D#3 00 . Z00 ...
ROW 0D : ... .. . ... : D#3 00 7 G01 V01 : B-2 06 . G01 : ... .. . ... : ... .. . ... ...
ROW 0E : ... .. . ... : D-4 01 3 G01 V00 : ... .. . S03 : ... .. . ... : D#3 00 . Z00 ...
ROW 0F : ... .. . ... : ... .. . ... ... : ... .. . ... : ... .. . ... : ... .. . ... ...
ROW 10 : ... .. . ... : D-3 00 7 V01 ... : A-2 06 . ... : ... .. . ... : A#3 00 . Z00 ...
ROW 11 : ... .. . ... : ... .. . ... ... : ... .. . ... : ... .. . ... : ... .. . ... ...
ROW 12 : ... .. . ... : ... .. . ... ... : ... .. . ... : ... .. . ... : ... .. . ... ...
ROW 13 : ... .. . ... : ... .. . ... ... : ... .. . ... : ... .. . ... : ... .. . ... ...
ROW 14 : F-3 00 3 G02 : ... .. . ... ... : ... .. . ... : ... .. . ... : ... .. . ... ...
ROW 15 : ... .. . ... : ... .. . ... ... : ... .. . ... : ... .. . ... : ... .. . ... ...
ROW 16 : ... .. . ... : ... .. . ... ... : ... .. . ... : ... .. . ... : ... .. . ... ...
ROW 17 : === .. . G01 : === .. . ... ... : ... .. . S00 : ... .. . ... : ... .. . ... ...
ROW 18 : D-5 00 B 400 : B-4 00 A V00 ... : A-2 06 . ... : ... .. . ... : D#3 00 . Z00 ...
ROW 19 : ... .. . ... : ... .. . ... ... : ... .. . ... : ... .. . ... : ... .. . ... ...
ROW 1A : ... .. . ... : ... .. . ... ... : ... .. . ... : ... .. . ... : D#3 00 . Z00 ...
ROW 1B : ... .. . ... : ... .. . ... ... : ... .. . ... : ... .. . ... : ... .. . ... M00
ROW 1C : ... .. . ... : ... .. . ... ... : ... .. . ... : ... .. . ... : D#3 00 . Z00 A00
ROW 1D : ... .. . ... : ... .. . ... ... : ... .. . ... : ... .. . ... : ... .. . ... H00
ROW 1E : === .. . ... : === .. . ... ... : ... .. . ... : ... .. . ... : D#3 00 . Z00 E00
ROW 1F : ... .. . ... : ... .. . ... ... : ... .. . S00 : ... .. . ... : ... .. . ... ...
ROW 20 : D#5 07 . ... : A#2 00 7 V01 ... : A#2 06 . ... : ... .. . ... : D#3 00 . Z00 M00
ROW 21 : ... .. . ... : ... .. . ... ... : ... .. . ... : ... .. . ... : ... .. . ... H00
ROW 22 : ... .. . ... : ... .. . ... ... : ... .. . ... : ... .. . ... : ... .. . ... I00
ROW 23 : ... .. . ... : ... .. . ... ... : ... .. . ... : ... .. . ... : ... .. . ... SFF
ROW 24 : ... .. . ... : ... .. . ... ... : ... .. . ... : ... .. . ... : ... .. . ... ...
ROW 25 : ... .. . ... : ... .. . ... ... : ... .. . ... : ... .. . ... : ... .. . ... ...
ROW 26 : ... .. . ... : ... .. . ... ... : ... .. . ... : ... .. . ... : ... .. . ... ...
ROW 27 : ... .. . ... : ... .. . ... ... : ... .. . S00 : ... .. . ... : ... .. . ... ...
ROW 28 : F#3 00 . ... : A#2 00 7 ... V01 : A#2 06 . ... : ... .. . ... : D#3 00 . Z00 ...
ROW 29 : ... .. . ... : D#4 01 3 ... V00 : ... .. . S02 : ... .. . ... : ... .. . ... ...
ROW 2A : ... .. . ... : A#2 00 7 G02 V01 : A#2 06 . G02 : ... .. . ... : D#3 00 . G02 Z00
ROW 2B : ... .. . ... : D#4 01 3 G02 V00 : ... .. . S04 : ... .. . ... : ... .. . ... ...
ROW 2C : ... .. . ... : ... .. . ... ... : ... .. . ... : ... .. . ... : ... .. . ... ...
ROW 2D : ... .. . ... : A#2 00 7 G01 V01 : C-2 06 . G01 : ... .. . ... : D#3 00 . G01 Z00
ROW 2E : ... .. . ... : D#4 01 3 G01 V00 : ... .. . S03 : ... .. . ... : ... .. . ... ...
ROW 2F : ... .. . ... : ... .. . ... ... : ... .. . ... : ... .. . ... : ... .. . ... ...
ROW 30 : ... .. . ... : F#1 00 7 V01 ... : A#2 06 . ... : ... .. . ... : D#3 00 . Z00 ...
ROW 31 : ... .. . ... : ... .. . ... ... : ... .. . ... : ... .. . ... : ... .. . ... ...
ROW 32 : ... .. . ... : ... .. . ... ... : ... .. . ... : ... .. . ... : ... .. . ... ...
ROW 33 : ... .. . ... : ... .. . ... ... : ... .. . ... : ... .. . ... : ... .. . ... ...
ROW 34 : F#3 00 3 ... : ... .. . ... ... : ... .. . ... : ... .. . ... : D#3 00 . Z00 ...
ROW 35 : ... .. . ... : ... .. . ... ... : ... .. . ... : ... .. . ... : ... .. . ... ...
ROW 36 : ... .. . ... : ... .. . ... ... : ... .. . ... : ... .. . ... : ... .. . ... ...
ROW 37 : === .. . ... : ... .. . ... ... : ... .. . S00 : ... .. . ... : ... .. . ... ...
ROW 38 : A#4 00 B ... : F#2 00 A V00 ... : A#2 06 . ... : ... .. . ... : D#3 00 . Z00 ...
ROW 39 : ... .. . ... : ... .. . ... ... : ... .. . ... : ... .. . ... : ... .. . ... ...
ROW 3A : ... .. . ... : ... .. . ... ... : ... .. . ... : ... .. . ... : D#3 00 . Z00 ...
ROW 3B : ... .. . ... : ... .. . ... ... : ... .. . ... : ... .. . ... : ... .. . ... ...
ROW 3C : ... .. . ... : ... .. . ... ... : ... .. . ... : ... .. . ... : D#3 00 . Z00 ...
ROW 3D : ... .. . ... : ... .. . ... ... : ... .. . ... : ... .. . ... : ... .. . ... ...
ROW 3E : === .. . ... : === .. . ... ... : ... .. . ... : ... .. . ... : D#3 00 . Z00 ...
ROW 3F : ... .. . ... : ... .. . ... ... : ... .. . S00 : ... .. . ... : ... .. . ... ...

PATTERN 07
ROW 00 : A-4 00 B ... : F-2 00 A P7F ... : C-2 06 . ... : ... .. . ... : D#3 00 . Z00 ...
ROW 01 : ... .. . ... : ... .. . ... ... : ... .. . S02 : ... .. . ... : ... .. . ... ...
ROW 02 : ... .. . ... : ... .. . ... ... : F-1 06 . G02 : ... .. . ... : ... .. . ... ...
ROW 03 : ... .. . ... : ... .. . ... ... : ... .. . S04 : ... .. . ... : ... .. . ... ...
ROW 04 : ... .. . ... : ... .. . ... ... : ... .. . ... : ... .. . ... : ... .. . ... ...
ROW 05 : ... .. . ... : ... .. . ... ... : D-3 06 . G01 : ... .. . ... : ... .. . ... ...
ROW 06 : ... .. . ... : ... .. . ... ... : ... .. . S03 : ... .. . ... : ... .. . ... ...
ROW 07 : ... .. . ... : ... .. . ... ... : ... .. . ... : ... .. . ... : ... .. . ... ...
ROW 08 : ... .. . 483 : ... .. . 473 ... : B-3 06 . ... : ... .. . ... : D#3 00 . Z00 ...
ROW 09 : ... .. . ... : ... .. . ... ... : ... .. . S02 : ... .. . ... : ... .. . ... ...
ROW 0A : ... .. . ... : ... .. . ... ... : F-2 06 . G02 : ... .. . ... : D#3 00 . G02 Z00
ROW 0B : ... .. . ... : ... .. . ... ... : ... .. . S04 : ... .. . ... : ... .. . ... ...
ROW 0C : ... .. . ... : ... .. . ... ... : ... .. . ... : ... .. . ... : ... .. . ... ...
ROW 0D : ... .. . ... : ... .. . ... ... : D-4 06 . G01 : ... .. . ... : D#3 00 . G01 Z00
ROW 0E : ... .. . ... : ... .. . ... ... : ... .. . S03 : ... .. . ... : ... .. . ... ...
ROW 0F : ... .. . ... : ... .. . 400 G0F : ... .. . ... : ... .. . ... : ... .. . ... ...
ROW 10 : A-4 00 3 400 : F-1 00 8 069 V01 : B-4 06 . ... : ... .. . ... : D#3 00 . Z00 ...
ROW 11 : ... .. . ... : ... .. . ... ... : ... .. . ... : ... .. . ... : ... .. . ... ...
ROW 12 : ... .. . ... : ... .. . ... ... : ... .. . ... : ... .. . ... : ... .. . ... ...
ROW 13 : ... .. . ... : ... .. . ... ... : ... .. . ... : ... .. . ... : ... .. . ... ...
ROW 14 : === .. . ... : ... .. . ... ... : ... .. . ... : ... .. . ... : D#3 00 . Z00 ...
ROW 15 : ... .. . ... : ... .. . ... ... : ... .. . ... : ... .. . ... : ... .. . ... ...
ROW 16 : ... .. . ... : ... .. . ... ... : ... .. . ... : ... .. . ... : ... .. . ... ...
ROW 17 : ... .. . ... : ... .. . ... ... : ... .. . 473 : ... .. . ... : ... .. . ... ...
ROW 18 : F-3 00 B ... : D-4 00 . 000 V00 : ... .. . ... : ... .. . ... : D#3 00 . Z00 ...
ROW 19 : ... .. . ... : ... .. . ... ... : ... .. . ... : ... .. . ... : ... .. . ... ...
ROW 1A : ... .. . ... : ... .. . ... ... : ... .. . ... : ... .. . ... : D#3 00 . Z00 ...
ROW 1B : ... .. . ... : ... .. . ... ... : ... .. . ... : ... .. . ... : ... .. . ... ...
ROW 1C : ... .. . ... : ... .. . ... ... : ... .. . ... : ... .. . ... : D#3 00 . Z00 ...
ROW 1D : ... .. . ... : ... .. . ... ... : --- .. . 400 : ... .. . ... : ... .. . ... ...
ROW 1E : === .. . ... : === .. . ... ... : ... .. . ... : ... .. . ... : D#3 00 . Z00 ...
ROW 1F : ... .. . ... : ... .. . ... ... : ... .. . ... : ... .. . ... : ... .. . ... ...
ROW 20 : F#3 00 . ... : D#4 00 . ... ... : A#4 06 . ... : ... .. . ... : D#3 00 . Z00 ...
ROW 21 : ... .. . ... : ... .. . ... ... : ... .. . ... : ... .. . ... : ... .. . ... ...
ROW 22 : === .. . G01 : === .. . ... ... : ... .. . ... : ... .. . ... : ... .. . ... ...
ROW 23 : ... .. . ... : ... .. . ... ... : ... .. . ... : ... .. . ... : ... .. . ... ...
ROW 24 : ... .. . ... : ... .. . ... ... : --- .. . ... : ... .. . ... : D#3 00 . Z00 ...
ROW 25 : ... .. . ... : ... .. . ... ... : ... .. . ... : ... .. . ... : ... .. . ... ...
ROW 26 : ... .. . ... : ... .. . ... ... : ... .. . ... : ... .. . ... : D#3 00 . Z00 ...
ROW 27 : ... .. . ... : ... .. . ... ... : ... .. . ... : ... .. . ... : ... .. . ... ...
ROW 28 : A#4 00 . ... : F#2 00 . ... ... : A#2 06 . ... : ... .. . ... : D#3 00 . Z00 ...
ROW 29 : ... .. . ... : ... .. . ... ... : ... .. . S02 : ... .. . ... : ... .. . ... ...
ROW 2A : ... .. . ... : ... .. . ... ... : A#2 06 . G02 : ... .. . ... : ... .. . ... ...
ROW 2B : ... .. . ... : ... .. . ... ... : ... .. . S04 : ... .. . ... : ... .. . ... ...
ROW 2C : ... .. . ... : ... .. . ... ... : ... .. . ... : ... .. . ... : D#3 00 . Z00 ...
ROW 2D : ... .. . ... : ... .. . ... ... : A#2 06 . G01 : ... .. . ... : ... .. . ... ...
ROW 2E : ... .. . 483 : ... .. . 482 ... : ... .. . S03 : ... .. . ... : D#3 00 . Z00 ...
ROW 2F : ... .. . ... : ... .. . ... ... : ... .. . ... : ... .. . ... : ... .. . ... ...
ROW 30 : ... .. . ... : ... .. . ... ... : A#2 06 . ... : ... .. . ... : D#3 00 . Z00 ...
ROW 31 : ... .. . ... : ... .. . ... ... : ... .. . ... : ... .. . ... : ... .. . ... ...
ROW 32 : ... .. . ... : ... .. . ... ... : ... .. . ... : ... .. . ... : ... .. . ... ...
ROW 33 : ... .. . ... : ... .. . ... ... : ... .. . ... : ... .. . ... : ... .. . ... ...
ROW 34 : A#4 00 3 400 : F#2 00 3 400 ... : ... .. . ... : ... .. . ... : D#3 00 . Z00 ...
ROW 35 : ... .. . ... : ... .. . ... ... : ... .. . ... : ... .. . ... : ... .. . ... ...
ROW 36 : === .. . G01 : === .. . G01 ... : ... .. . ... : ... .. . ... : D#3 00 . Z00 ...
ROW 37 : ... .. . ... : ... .. . ... ... : ... .. . 473 : ... .. . ... : ... .. . ... ...
ROW 38 : A#4 00 B ... : F#2 00 A ... ... : ... .. . ... : ... .. . ... : D#3 00 . Z00 ...
ROW 39 : ... .. . ... : ... .. . ... ... : ... .. . ... : ... .. . ... : ... .. . ... ...
ROW 3A : ... .. . ... : ... .. . ... ... : ... .. . ... : ... .. . ... : D#3 00 . Z00 ...
ROW 3B : ... .. . ... : ... .. . ... ... : ... .. . ... : ... .. . ... : ... .. . ... ...
ROW 3C : ... .. . ... : ... .. . ... ... : ... .. . ... : ... .. . ... : D#3 00 . Z00 ...
ROW 3D : ... .. . ... : ... .. . ... ... : ... .. . ... : ... .. . ... : ... .. . ... ...
ROW 3E : A#4 00 3 G01 : F#2 00 3 G01 ... : --- .. . 400 : ... .. . ... : D#3 00 . Z00 ...
ROW 3F : ... .. . ... : ... .. . ... ... : ... .. . ... : ... .. . ... : ... .. . ... ...

PATTERN 08
ROW 00 : A-4 00 B ... : F-2 00 A P7F ... : D#3 06 . ... : ... .. . ... : ... .. . ... ...
ROW 01 : ... .. . ... : ... .. . ... ... : ... .. . ... : ... .. . ... : ... .. . ... ...
ROW 02 : ... .. . ... : ... .. . ... ... : ... .. . ... : ... .. . ... : ... .. . ... ...
ROW 03 : ... .. . ... : ... .. . ... ... : ... .. . ... : ... .. . ... : ... .. . ... ...
ROW 04 : ... .. . ... : ... .. . ... ... : ... .. . ... : ... .. . ... : ... .. . ... ...
ROW 05 : ... .. . ... : ... .. . ... ... : ... .. . ... : ... .. . ... : ... .. . ... ...
ROW 06 : ... .. . ... : ... .. . ... ... : ... .. . ... : ... .. . ... : ... .. . ... ...
ROW 07 : ... .. . ... : ... .. . ... ... : ... .. . S00 : ... .. . ... : ... .. . ... ...
ROW 08 : ... .. . 483 : ... .. . 473 ... : D#3 06 . ... : ... .. . ... : ... .. . ... ...
ROW 09 : ... .. . ... : ... .. . ... ... : ... .. . S02 : ... .. . ... : ... .. . ... ...
ROW 0A : ... .. . ... : ... .. . ... ... : D#3 06 . G02 : ... .. . ... : ... .. . ... ...
ROW 0B : ... .. . ... : ... .. . ... ... : ... .. . S04 : ... .. . ... : ... .. . ... ...
ROW 0C : ... .. . ... : ... .. . ... ... : ... .. . ... : ... .. . ... : ... .. . ... ...
ROW 0D : ... .. . ... : ... .. . ... ... : E-1 06 . G01 : ... .. . ... : ... .. . ... ...
ROW 0E : ... .. . ... : ... .. . ... ... : ... .. . S03 : ... .. . ... : ... .. . ... ...
ROW 0F : ... .. . ... : ... .. . 400 G0F : ... .. . ... : ... .. . ... : ... .. . ... ...
ROW 10 : A-4 00 3 400 : F-1 00 8 069 V01 : D#3 06 . ... : ... .. . ... : ... .. . ... ...
ROW 11 : ... .. . ... : ... .. . ... ... : ... .. . ... : ... .. . ... : ... .. . ... ...
ROW 12 : ... .. . ... : ... .. . ... ... : ... .. . ... : ... .. . ... : ... .. . ... ...
ROW 13 : ... .. . ... : ... .. . ... ... : ... .. . ... : ... .. . ... : ... .. . ... ...
ROW 14 : === .. . ... : ... .. . ... ... : ... .. . ... : ... .. . ... : ... .. . ... ...
ROW 15 : ... .. . ... : ... .. . ... ... : ... .. . ... : ... .. . ... : ... .. . ... ...
ROW 16 : ... .. . ... : ... .. . ... ... : ... .. . S00 : ... .. . ... : ... .. . ... ...
ROW 17 : ... .. . ... : ... .. . ... ... : ... .. . ... : ... .. . ... : ... .. . ... ...
ROW 18 : F-3 00 B ... : D-4 00 . 000 V00 : D#3 06 . ... : ... .. . ... : ... .. . ... ...
ROW 19 : ... .. . ... : ... .. . ... ... : ... .. . S02 : ... .. . ... : ... .. . ... ...
ROW 1A : ... .. . ... : ... .. . ... ... : D#3 06 . G02 : ... .. . ... : ... .. . ... ...
ROW 1B : ... .. . ... : ... .. . ... ... : ... .. . S04 : ... .. . ... : ... .. . ... ...
ROW 1C : ... .. . ... : ... .. . ... ... : ... .. . ... : ... .. . ... : ... .. . ... ...
ROW 1D : ... .. . ... : ... .. . ... ... : D#3 06 . G01 : ... .. . ... : ... .. . ... ...
ROW 1E : === .. . ... : === .. . ... ... : ... .. . S03 : ... .. . ... : ... .. . ... ...
ROW 1F : ... .. . ... : ... .. . ... ... : ... .. . ... : ... .. . ... : ... .. . ... ...
ROW 20 : F#3 00 . ... : D#4 00 . ... ... : A#2 06 . ... : ... .. . ... : ... .. . ... ...
ROW 21 : ... .. . ... : ... .. . ... ... : ... .. . ... : ... .. . ... : ... .. . ... ...
ROW 22 : === .. . G01 : === .. . ... ... : ... .. . ... : ... .. . ... : ... .. . ... ...
ROW 23 : ... .. . ... : ... .. . ... ... : ... .. . ... : ... .. . ... : ... .. . ... ...
ROW 24 : ... .. . ... : ... .. . ... ... : ... .. . ... : ... .. . ... : ... .. . ... ...
ROW 25 : ... .. . ... : ... .. . ... ... : ... .. . ... : ... .. . ... : ... .. . ... ...
ROW 26 : ... .. . ... : ... .. . ... ... : ... .. . ... : ... .. . ... : ... .. . ... ...
ROW 27 : ... .. . ... : ... .. . ... ... : ... .. . S00 : ... .. . ... : ... .. . ... ...
ROW 28 : A#4 00 . ... : F#2 00 . ... ... : A#2 06 . ... : ... .. . ... : ... .. . ... ...
ROW 29 : ... .. . ... : ... .. . ... ... : ... .. . ... : ... .. . ... : ... .. . ... ...
ROW 2A : ... .. . ... : ... .. . ... ... : ... .. . ... : ... .. . ... : ... .. . ... ...
ROW 2B : ... .. . ... : ... .. . ... ... : ... .. . ... : ... .. . ... : ... .. . ... ...
ROW 2C : ... .. . ... : ... .. . ... ... : ... .. . ... : ... .. . ... : ... .. . ... ...
ROW 2D : ... .. . ... : ... .. . ... ... : ... .. . ... : ... .. . ... : ... .. . ... ...
ROW 2E : ... .. . 483 : ... .. . 482 ... : ... .. . ... : ... .. . ... : ... .. . ... ...
ROW 2F : ... .. . ... : ... .. . ... ... : ... .. . S00 : ... .. . ... : ... .. . ... ...
ROW 30 : ... .. . ... : ... .. . ... ... : A#2 06 . ... : ... .. . ... : ... .. . ... ...
ROW 31 : ... .. . ... : ... .. . ... ... : ... .. . ... : ... .. . ... : ... .. . ... ...
ROW 32 : ... .. . ... : ... .. . ... ... : ... .. . ... : ... .. . ... : ... .. . ... ...
ROW 33 : ... .. . ... : ... .. . ... ... : ... .. . ... : ... .. . ... : ... .. . ... ...
ROW 34 : A#4 00 3 400 : F#2 00 3 400 ... : ... .. . ... : ... .. . ... : ... .. . ... ...
ROW 35 : ... .. . ... : ... .. . ... ... : ... .. . ... : ... .. . ... : ... .. . ... ...
ROW 36 : === .. . G01 : === .. . G01 ... : ... .. . ... : ... .. . ... : ... .. . ... ...
ROW 37 : ... .. . ... : ... .. . ... ... : ... .. . S00 : ... .. . ... : ... .. . ... ...
ROW 38 : C#4 00 B ... : A#3 00 A ... ... : G#2 06 . ... : ... .. . ... : ... .. . ... ...
ROW 39 : ... .. . ... : ... .. . ... ... : ... .. . ... : ... .. . ... : ... .. . ... ...
ROW 3A : ... .. . ... : ... .. . ... ... : ... .. . ... : ... .. . ... : ... .. . ... ...
ROW 3B : ... .. . ... : ... .. . ... ... : ... .. . S00 : ... .. . ... : ... .. . ... ...
ROW 3C : ... .. . ... : ... .. . ... ... : F#1 06 . ... : ... .. . ... : ... .. . ... ...
ROW 3D : ... .. . ... : ... .. . ... ... : ... .. . ... : ... .. . ... : ... .. . ... ...
ROW 3E : C#4 00 3 G01 : A#3 00 3 G01 ... : ... .. . S04 : ... .. . ... : ... .. . ... ...
ROW 3F : ... .. . ... : ... .. . ... ... : ... .. . B02 : ... .. . ... : ... .. . ... ...

PATTERN 09
ROW 00 : C-4 00 B ... : A-3 00 A P7F ... : ... .. . ... : ... .. . ... : ... .. . ... ...
ROW 01 : ... .. . ... : ... .. . ... ... : ... .. . ... : ... .. . ... : ... .. . ... ...
ROW 02 : ... .. . ... : ... .. . ... ... : ... .. . ... : ... .. . ... : ... .. . ... ...
ROW 03 : ... .. . ... : ... .. . ... ... : ... .. . ... : ... .. . ... : ... .. . ... ...
ROW 04 : ... .. . ... : ... .. . ... ... : ... .. . ... : ... .. . ... : ... .. . ... ...
ROW 05 : ... .. . ... : ... .. . ... ... : ... .. . ... : ... .. . ... : ... .. . ... ...
ROW 06 : ... .. . ... : ... .. . ... ... : ... .. . ... : ... .. . ... : ... .. . ... ...
ROW 07 : ... .. . ... : ... .. . ... ... : ... .. . ... : ... .. . ... : ... .. . ... ...
ROW 08 : ... .. . 483 : ... .. . 473 ... : ... .. . ... : ... .. . ... : ... .. . ... ...
ROW 09 : ... .. . ... : ... .. . ... ... : ... .. . ... : ... .. . ... : ... .. . ... ...
ROW 0A : ... .. . ... : ... .. . ... ... : ... .. . ... : ... .. . ... : ... .. . ... ...
ROW 0B : ... .. . ... : ... .. . ... ... : ... .. . ... : ... .. . ... : ... .. . ... ...
ROW 0C : ... .. . ... : ... .. . ... ... : ... .. . ... : ... .. . ... : ... .. . ... ...
ROW 0D : ... .. . ... : ... .. . ... ... : ... .. . ... : ... .. . ... : ... .. . ... ...
ROW 0E : ... .. . ... : ... .. . ... ... : ... .. . ... : ... .. . ... : ... .. . ... ...
ROW 0F : ... .. . ... : ... .. . 400 G0F : ... .. . ... : ... .. . ... : ... .. . ... ...
ROW 10 : C-4 00 3 400 : A-2 00 8 ... V01 : ... .. . ... : ... .. . ... : ... .. . ... ...
ROW 11 : ... .. . ... : ... .. . ... ... : ... .. . ... : ... .. . ... : ... .. . ... ...
ROW 12 : ... .. . ... : ... .. . ... ... : ... .. . ... : ... .. . ... : ... .. . ... ...
ROW 13 : ... .. . ... : ... .. . ... ... : ... .. . ... : ... .. . ... : ... .. . ... ...
ROW 14 : === .. . ... : ... .. . ... ... : ... .. . ... : ... .. . ... : ... .. . ... ...
ROW 15 : ... .. . ... : ... .. . ... ... : ... .. . ... : ... .. . ... : ... .. . ... ...
ROW 16 : ... .. . ... : ... .. . ... ... : ... .. . ... : ... .. . ... : ... .. . ... ...
ROW 17 : ... .. . ... : ... .. . ... ... : ... .. . ... : ... .. . ... : ... .. . ... ...
ROW 18 : A-4 00 B ... : E-2 00 . 000 V00 : ... .. . ... : ... .. . ... : ... .. . ... ...
ROW 19 : ... .. . ... : ... .. . ... ... : ... .. . ... : ... .. . ... : ... .. . ... ...
ROW 1A : ... .. . ... : ... .. . ... ... : ... .. . ... : ... .. . ... : ... .. . ... ...
ROW 1B : ... .. . ... : ... .. . ... ... : ... .. . ... : ... .. . ... : ... .. . ... ...
ROW 1C : ... .. . ... : ... .. . ... ... : ... .. . ... : ... .. . ... : ... .. . ... ...
ROW 1D : ... .. . ... : ... .. . ... ... : ... .. . ... : ... .. . ... : ... .. . ... ...
ROW 1E : === .. . ... : === .. . ... ... : ... .. . ... : ... .. . ... : ... .. . ... ...
ROW 1F : ... .. . ... : ... .. . ... ... : ... .. . ... : ... .. . ... : ... .. . ... ...
ROW 20 : A#4 00 . ... : F-2 00 . ... ... : ... .. . ... : ... .. . ... : ... .. . ... ...
ROW 21 : ... .. . ... : ... .. . ... ... : ... .. . ... : ... .. . ... : ... .. . ... ...
ROW 22 : === .. . G01 : === .. . ... ... : ... .. . ... : ... .. . ... : ... .. . ... ...
ROW 23 : ... .. . ... : ... .. . ... ... : ... .. . ... : ... .. . ... : ... .. . ... ...
ROW 24 : ... .. . ... : ... .. . ... ... : ... .. . ... : ... .. . ... : ... .. . ... ...
ROW 25 : ... .. . ... : ... .. . ... ... : ... .. . ... : ... .. . ... : ... .. . ... ...
ROW 26 : ... .. . ... : ... .. . ... ... : ... .. . ... : ... .. . ... : ... .. . ... ...
ROW 27 : ... .. . ... : ... .. . ... ... : ... .. . ... : ... .. . ... : ... .. . ... ...
ROW 28 : D-4 00 . ... : A#2 00 7 ... V01 : ... .. . ... : ... .. . ... : ... .. . ... ...
ROW 29 : ... .. . ... : A#3 01 3 ... V00 : ... .. . ... : ... .. . ... : ... .. . ... ...
ROW 2A : ... .. . ... : A#2 00 7 G02 V01 : ... .. . ... : ... .. . ... : ... .. . ... ...
ROW 2B : ... .. . ... : A#3 01 3 G02 V00 : ... .. . ... : ... .. . ... : ... .. . ... ...
ROW 2C : ... .. . ... : ... .. . ... ... : ... .. . ... : ... .. . ... : ... .. . ... ...
ROW 2D : ... .. . ... : C-2 00 7 G01 V01 : ... .. . ... : ... .. . ... : ... .. . ... ...
ROW 2E : ... .. . 483 : A#3 01 3 G01 V00 : ... .. . ... : ... .. . ... : ... .. . ... ...
ROW 2F : ... .. . ... : ... .. . ... ... : ... .. . ... : ... .. . ... : ... .. . ... ...
ROW 30 : ... .. . ... : A#2 00 7 V01 ... : ... .. . ... : ... .. . ... : ... .. . ... ...
ROW 31 : ... .. . ... : ... .. . ... ... : ... .. . ... : ... .. . ... : ... .. . ... ...
ROW 32 : ... .. . ... : ... .. . ... ... : ... .. . ... : ... .. . ... : ... .. . ... ...
ROW 33 : ... .. . ... : ... .. . ... ... : ... .. . ... : ... .. . ... : ... .. . ... ...
ROW 34 : D-4 00 3 400 : ... .. . ... ... : ... .. . ... : ... .. . ... : ... .. . ... ...
ROW 35 : ... .. . ... : ... .. . ... ... : ... .. . ... : ... .. . ... : ... .. . ... ...
ROW 36 : === .. . G01 : === .. . ... ... : ... .. . ... : ... .. . ... : ... .. . ... ...
ROW 37 : ... .. . ... : ... .. . ... ... : ... .. . ... : ... .. . ... : ... .. . ... ...
ROW 38 : F-2 00 B ... : D-3 00 A V00 ... : ... .. . ... : ... .. . ... : ... .. . ... ...
ROW 39 : ... .. . ... : ... .. . ... ... : ... .. . ... : ... .. . ... : ... .. . ... ...
ROW 3A : ... .. . ... : ... .. . ... ... : ... .. . ... : ... .. . ... : ... .. . ... ...
ROW 3B : ... .. . ... : ... .. . ... ... : ... .. . ... : ... .. . ... : ... .. . ... ...
ROW 3C : ... .. . ... : ... .. . ... ... : ... .. . ... : ... .. . ... : ... .. . ... ...
ROW 3D : ... .. . ... : ... .. . ... ... : ... .. . ... : ... .. . ... : ... .. . ... ...
ROW 3E : F-2 00 3 G01 : D-3 00 3 G01 ... : ... .. . ... : ... .. . ... : ... .. . ... ...
ROW 3F : ... .. . ... : ... .. . ... ... : ... .. . ... : ... .. . ... : ... .. . ... ...

# End of export
