# FamiTracker text export 0.4.2

# Song information
TITLE           "The Legend of Zelda"
AUTHOR          "Koji Kondo"
COPYRIGHT       "1987 Nintendo"

# Song comment
COMMENT ""

# Global settings
MACHINE         0
FRAMERATE       0
EXPANSION       0
VIBRATO         1
SPLIT           21

# Macros

# DPCM samples

# Instruments
INST2A03   0    -1  -1  -1  -1  -1 "blank"

# Tracks

TRACK 256   1 150 "New song"
COLUMNS : 3 3 1 1 2

ORDER 00 : 00 00 00 00 00
ORDER 01 : 01 01 01 01 01
ORDER 02 : 02 02 02 02 02
ORDER 03 : 03 03 03 03 03
ORDER 04 : 04 04 04 04 04
ORDER 05 : 05 05 05 05 05
ORDER 06 : 06 06 06 06 06
ORDER 07 : 07 07 07 07 07
ORDER 08 : 08 08 08 08 08
ORDER 09 : 09 09 09 09 09
ORDER 0A : 0A 0A 0A 0A 0A
ORDER 0B : 0B 0B 0B 0B 0B
ORDER 0C : 0C 0C 0C 0C 0C
ORDER 0D : 0D 0D 0D 0D 0D
ORDER 0E : 0E 0E 0E 0E 0E
ORDER 0F : 0F 0F 0F 0F 0F
ORDER 10 : 10 10 10 10 10
ORDER 11 : 11 11 11 11 11
ORDER 12 : 12 12 12 12 12
ORDER 13 : 13 13 13 13 13
ORDER 14 : 14 14 14 14 14
ORDER 15 : 15 15 15 15 15
ORDER 16 : 16 16 16 16 16
ORDER 17 : 17 17 17 17 17
ORDER 18 : 18 18 18 18 18
ORDER 19 : 19 19 19 19 19
ORDER 1A : 1A 1A 1A 1A 1A
ORDER 1B : 1B 1B 1B 1B 1B
ORDER 1C : 1C 1C 1C 1C 1C

PATTERN 00
ROW 00 : --- .. 0 P80 V02 ... : A#3 00 7 P80 V02 ... : A#2 00 . P80 : F-# 00 0 V00 : === 00 . ... ...
ROW 01 : ... .. . ... ... ... : ... .. . ... ... ... : ... .. . ... : ... .. . ... : ... .. . ... ...
ROW 02 : ... .. . ... ... ... : ... .. 8 ... ... ... : ... .. . ... : ... .. . ... : ... .. . ... ...
ROW 03 : ... .. . ... ... ... : ... .. . ... ... ... : ... .. . ... : ... .. . ... : ... .. . ... ...
ROW 04 : ... .. . ... ... ... : ... .. 9 ... ... ... : ... .. . ... : ... .. . ... : ... .. . ... ...
ROW 05 : A#3 00 7 ... ... ... : ... .. . ... ... ... : ... .. . ... : ... .. . ... : ... .. . ... ...
ROW 06 : ... .. . ... ... ... : ... .. . ... ... ... : ... .. . ... : ... .. . ... : ... .. . ... ...
ROW 07 : ... .. 8 ... ... ... : ... .. 8 ... ... ... : ... .. . ... : ... .. . ... : ... .. . ... ...
ROW 08 : ... .. . ... ... ... : ... .. . ... ... ... : ... .. . ... : ... .. . ... : ... .. . ... ...
ROW 09 : ... .. 9 ... ... ... : ... .. . ... ... ... : ... .. . ... : ... .. . ... : ... .. . ... ...
ROW 0A : ... .. . ... ... ... : ... .. . ... ... ... : ... .. . ... : ... .. . ... : ... .. . ... ...
ROW 0B : ... .. . ... ... ... : ... .. 7 ... ... ... : ... .. . ... : ... .. . ... : ... .. . ... ...
ROW 0C : ... .. 8 ... ... ... : ... .. . ... ... ... : ... .. . ... : ... .. . ... : ... .. . ... ...
ROW 0D : ... .. . ... ... ... : ... .. . ... ... ... : ... .. . ... : ... .. . ... : ... .. . ... ...
ROW 0E : ... .. . ... ... ... : ... .. . ... ... ... : ... .. . ... : ... .. . ... : ... .. . ... ...
ROW 0F : ... .. . ... ... ... : ... .. 6 P7F ... ... : ... .. . P7F : ... .. . ... : ... .. . ... ...
ROW 10 : ... .. 7 ... ... ... : ... .. . ... ... ... : ... .. . ... : ... .. . ... : ... .. . ... ...
ROW 11 : ... .. . ... ... ... : ... .. . ... ... ... : ... .. . ... : ... .. . ... : ... .. . ... ...
ROW 12 : ... .. . ... ... ... : ... .. . ... ... ... : ... .. . ... : ... .. . ... : ... .. . ... ...
ROW 13 : ... .. . ... ... ... : ... .. . P81 ... ... : ... .. . P81 : ... .. . ... : ... .. . ... ...
ROW 14 : ... .. 6 P7F ... ... : ... .. . ... ... ... : ... .. . ... : ... .. . ... : ... .. . ... ...
ROW 15 : ... .. . ... ... ... : ... .. . ... ... ... : ... .. . ... : ... .. . ... : ... .. . ... ...
ROW 16 : ... .. . ... ... ... : ... .. . ... ... ... : ... .. . ... : ... .. . ... : ... .. . ... ...
ROW 17 : ... .. . ... ... ... : ... .. 5 P7F ... ... : ... .. . P7F : ... .. . ... : ... .. . ... ...
ROW 18 : ... .. . P81 ... ... : ... .. . ... ... ... : ... .. . ... : ... .. . ... : ... .. . ... ...
ROW 19 : ... .. . ... ... ... : ... .. . ... ... ... : ... .. . ... : ... .. . ... : ... .. . ... ...
ROW 1A : ... .. . ... ... ... : ... .. . ... ... ... : ... .. . ... : ... .. . ... : ... .. . ... ...
ROW 1B : ... .. . ... ... ... : ... .. . P81 ... ... : ... .. . P81 : ... .. . ... : ... .. . ... ...
ROW 1C : ... .. 5 P7F ... ... : ... .. 4 ... ... ... : ... .. . ... : ... .. . ... : ... .. . ... ...
ROW 1D : ... .. . ... ... ... : ... .. . ... ... ... : ... .. . ... : ... .. . ... : ... .. . ... ...
ROW 1E : ... .. . ... ... ... : ... .. . ... ... ... : ... .. . ... : ... .. . ... : ... .. . ... ...
ROW 1F : ... .. . ... ... ... : ... .. . P7F ... ... : ... .. . P7F : ... .. . ... : ... .. . ... ...
ROW 20 : ... .. . P81 ... ... : ... .. . ... ... ... : ... .. . ... : ... .. . ... : ... .. . ... ...
ROW 21 : ... .. 4 ... ... ... : ... .. . ... ... ... : ... .. . ... : ... .. . ... : ... .. . ... ...
ROW 22 : ... .. . ... ... ... : ... .. . ... ... ... : ... .. . ... : ... .. . ... : ... .. . ... ...
ROW 23 : ... .. . ... ... ... : ... .. . P81 ... ... : ... .. . P81 : ... .. . ... : ... .. . ... ...
ROW 24 : ... .. . P7F ... ... : ... .. . ... ... ... : ... .. . ... : ... .. . ... : ... .. . ... ...
ROW 25 : ... .. . ... ... ... : ... .. . ... ... ... : ... .. . ... : ... .. . ... : ... .. . ... ...
ROW 26 : ... .. . ... ... ... : ... .. . ... ... ... : ... .. . ... : ... .. . ... : ... .. . ... ...
ROW 27 : ... .. . ... ... ... : ... .. . P7F ... ... : ... .. . P7F : ... .. . ... : ... .. . ... ...
ROW 28 : ... .. . P81 ... ... : ... .. . ... ... ... : F-3 00 . ... : ... .. . ... : ... .. . ... ...
ROW 29 : ... .. . ... ... ... : ... .. . ... ... ... : ... .. . ... : ... .. . ... : ... .. . ... ...
ROW 2A : ... .. . ... ... ... : ... .. . ... ... ... : ... .. . ... : ... .. . ... : ... .. . ... ...
ROW 2B : ... .. . ... ... ... : ... .. . P81 ... ... : ... .. . ... : ... .. . ... : ... .. . ... ...
ROW 2C : ... .. . P7F ... ... : ... .. . ... ... ... : ... .. . ... : ... .. . ... : ... .. . ... ...
ROW 2D : ... .. . ... ... ... : ... .. . ... ... ... : ... .. . ... : ... .. . ... : ... .. . ... ...
ROW 2E : ... .. . ... ... ... : ... .. . ... ... ... : ... .. . ... : ... .. . ... : ... .. . ... ...
ROW 2F : ... .. . ... ... ... : ... .. . P7F ... ... : ... .. . ... : ... .. . ... : ... .. . ... ...
ROW 30 : ... .. . P81 ... ... : ... .. . ... ... ... : ... .. . ... : ... .. . ... : ... .. . ... ...
ROW 31 : ... .. . ... ... ... : ... .. . ... ... ... : ... .. . ... : ... .. . ... : ... .. . ... ...
ROW 32 : ... .. . ... ... ... : ... .. . ... ... ... : ... .. . ... : ... .. . ... : ... .. . ... ...
ROW 33 : ... .. . ... ... ... : ... .. . P81 ... ... : ... .. . ... : ... .. . ... : ... .. . ... ...
ROW 34 : ... .. . P7F ... ... : ... .. . ... ... ... : ... .. . ... : ... .. . ... : ... .. . ... ...
ROW 35 : ... .. . ... ... ... : ... .. . ... ... ... : ... .. . ... : ... .. . ... : ... .. . ... ...
ROW 36 : ... .. . ... ... ... : ... .. . ... ... ... : ... .. . ... : ... .. . ... : ... .. . ... ...
ROW 37 : ... .. . ... ... ... : ... .. . P7F ... ... : ... .. . P7E : ... .. . ... : ... .. . ... ...
ROW 38 : ... .. . P81 ... ... : ... .. . ... ... ... : ... .. . ... : ... .. . ... : ... .. . ... ...
ROW 39 : ... .. . ... ... ... : ... .. . ... ... ... : ... .. . ... : ... .. . ... : ... .. . ... ...
ROW 3A : ... .. . ... ... ... : ... .. . ... ... ... : ... .. . ... : ... .. . ... : ... .. . ... ...
ROW 3B : ... .. . ... ... ... : ... .. . P81 ... ... : ... .. . P80 : ... .. . ... : ... .. . ... ...
ROW 3C : ... .. . P7F ... ... : ... .. . ... ... ... : ... .. . ... : ... .. . ... : ... .. . ... ...
ROW 3D : ... .. . ... ... ... : ... .. . ... ... ... : ... .. . ... : ... .. . ... : ... .. . ... ...
ROW 3E : ... .. . ... ... ... : ... .. . ... ... ... : ... .. . ... : ... .. . ... : ... .. . ... ...
ROW 3F : ... .. . ... ... ... : ... .. . P7F ... ... : ... .. . P7E : ... .. . ... : ... .. . ... ...
ROW 40 : ... .. . P81 ... ... : ... .. . ... ... ... : ... .. . ... : ... .. . ... : ... .. . ... ...
ROW 41 : ... .. . ... ... ... : ... .. . ... ... ... : ... .. . ... : ... .. . ... : ... .. . ... ...
ROW 42 : ... .. . ... ... ... : ... .. . ... ... ... : ... .. . ... : ... .. . ... : ... .. . ... ...
ROW 43 : ... .. . ... ... ... : ... .. . P81 ... ... : ... .. . P80 : ... .. . ... : ... .. . ... ...
ROW 44 : ... .. . P7F ... ... : ... .. . ... ... ... : ... .. . ... : ... .. . ... : ... .. . ... ...
ROW 45 : ... .. . ... ... ... : ... .. . ... ... ... : ... .. . ... : ... .. . ... : ... .. . ... ...
ROW 46 : ... .. . ... ... ... : ... .. . ... ... ... : ... .. . ... : ... .. . ... : ... .. . ... ...
ROW 47 : ... .. . ... ... ... : ... .. . P7F ... ... : ... .. . P7E : ... .. . ... : ... .. . ... ...
ROW 48 : ... .. . P81 ... ... : ... .. . ... ... ... : ... .. . ... : ... .. . ... : ... .. . ... ...
ROW 49 : ... .. . ... ... ... : ... .. . ... ... ... : ... .. . ... : ... .. . ... : ... .. . ... ...
ROW 4A : ... .. . ... ... ... : ... .. . ... ... ... : ... .. . ... : ... .. . ... : ... .. . ... ...
ROW 4B : ... .. . ... ... ... : ... .. . P81 ... ... : ... .. . P80 : ... .. . ... : ... .. . ... ...
ROW 4C : ... .. . P7F ... ... : ... .. . ... ... ... : ... .. . ... : ... .. . ... : ... .. . ... ...
ROW 4D : ... .. . ... ... ... : ... .. . ... ... ... : ... .. . ... : ... .. . ... : ... .. . ... ...
ROW 4E : ... .. . ... ... ... : ... .. . ... ... ... : ... .. . ... : ... .. . ... : ... .. . ... ...
ROW 4F : ... .. . ... ... ... : ... .. . P7F ... ... : ... .. . P7E : ... .. . ... : ... .. . ... ...
ROW 50 : ... .. . P81 ... ... : ... .. . P80 ... ... : A#3 00 . P80 : ... .. . ... : ... .. . ... ...
ROW 51 : ... .. . ... ... ... : ... .. . ... ... ... : ... .. . ... : ... .. . ... : ... .. . ... ...
ROW 52 : ... .. . ... ... ... : ... .. . ... ... ... : ... .. . ... : ... .. . ... : ... .. . ... ...
ROW 53 : ... .. . ... ... ... : ... .. . ... ... ... : ... .. . ... : ... .. . ... : ... .. . ... ...
ROW 54 : ... .. . P7F ... ... : ... .. . ... ... ... : ... .. . ... : ... .. . ... : ... .. . ... ...
ROW 55 : ... .. . P80 ... ... : ... .. . ... ... ... : ... .. . ... : ... .. . ... : ... .. . ... ...
ROW 56 : ... .. . ... ... ... : ... .. . ... ... ... : ... .. . ... : ... .. . ... : ... .. . ... ...
ROW 57 : ... .. . ... ... ... : ... .. . ... ... ... : ... .. . ... : ... .. . ... : ... .. . ... ...
ROW 58 : ... .. . ... ... ... : ... .. . ... ... ... : ... .. . ... : ... .. . ... : ... .. . ... ...
ROW 59 : ... .. . ... ... ... : ... .. . ... ... ... : ... .. . ... : ... .. . ... : ... .. . ... ...
ROW 5A : ... .. . ... ... ... : ... .. . ... ... ... : ... .. . ... : ... .. . ... : ... .. . ... ...
ROW 5B : ... .. . ... ... ... : ... .. . ... ... ... : ... .. . ... : ... .. . ... : ... .. . ... ...
ROW 5C : ... .. . ... ... ... : ... .. . ... ... ... : ... .. . ... : ... .. . ... : ... .. . ... ...
ROW 5D : ... .. . ... ... ... : ... .. . ... ... ... : ... .. . ... : ... .. . ... : ... .. . ... ...
ROW 5E : ... .. . ... ... ... : ... .. . ... ... ... : ... .. . ... : ... .. . ... : ... .. . ... ...
ROW 5F : ... .. . ... ... ... : ... .. . P7F ... ... : ... .. . P7F : ... .. . ... : ... .. . ... ...
ROW 60 : ... .. . ... ... ... : ... .. . ... ... ... : ... .. . ... : ... .. . ... : ... .. . ... ...
ROW 61 : ... .. . ... ... ... : ... .. . ... ... ... : ... .. . ... : ... .. . ... : ... .. . ... ...
ROW 62 : ... .. . ... ... ... : ... .. . ... ... ... : ... .. . ... : ... .. . ... : ... .. . ... ...
ROW 63 : ... .. . ... ... ... : ... .. . P81 ... ... : ... .. . P81 : ... .. . ... : ... .. . ... ...
ROW 64 : ... .. . P7F ... ... : F-3 00 7 P7F ... ... : ... .. . ... : ... .. . ... : ... .. . ... ...
ROW 65 : ... .. . ... ... ... : ... .. . ... ... ... : ... .. . ... : ... .. . ... : ... .. . ... ...
ROW 66 : ... .. . ... ... ... : ... .. 8 ... ... ... : ... .. . ... : ... .. . ... : ... .. . ... ...
ROW 67 : ... .. . ... ... ... : ... .. . ... ... ... : ... .. . P7F : ... .. . ... : ... .. . ... ...
ROW 68 : ... .. . P81 ... ... : ... .. 9 ... ... ... : ... .. . ... : ... .. . ... : ... .. . ... ...
ROW 69 : F-3 00 7 P7F ... ... : ... .. . ... ... ... : ... .. . ... : ... .. . ... : ... .. . ... ...
ROW 6A : ... .. . ... ... ... : ... .. . ... ... ... : ... .. . ... : ... .. . ... : ... .. . ... ...
ROW 6B : ... .. 8 ... ... ... : ... .. 8 ... ... ... : ... .. . P81 : ... .. . ... : ... .. . ... ...
ROW 6C : ... .. . ... ... ... : ... .. . ... ... ... : ... .. . ... : ... .. . ... : ... .. . ... ...
ROW 6D : ... .. 9 ... ... ... : ... .. . ... ... ... : ... .. . ... : ... .. . ... : ... .. . ... ...
ROW 6E : ... .. . ... ... ... : ... .. . ... ... ... : ... .. . ... : ... .. . ... : ... .. . ... ...
ROW 6F : ... .. . ... ... ... : ... .. 7 ... ... ... : ... .. . P7F : ... .. . ... : ... .. . ... ...
ROW 70 : ... .. 8 ... ... ... : ... .. . ... ... ... : ... .. . ... : ... .. . ... : ... .. . ... ...
ROW 71 : ... .. . ... ... ... : ... .. . ... ... ... : ... .. . ... : ... .. . ... : ... .. . ... ...
ROW 72 : ... .. . ... ... ... : ... .. . ... ... ... : ... .. . ... : ... .. . ... : ... .. . ... ...
ROW 73 : ... .. . ... ... ... : ... .. 6 P7E ... ... : ... .. . P81 : ... .. . ... : ... .. . ... ...
ROW 74 : ... .. 7 ... ... ... : ... .. . ... ... ... : ... .. . ... : ... .. . ... : ... .. . ... ...
ROW 75 : ... .. . ... ... ... : ... .. . ... ... ... : ... .. . ... : ... .. . ... : ... .. . ... ...
ROW 76 : ... .. . ... ... ... : ... .. . ... ... ... : ... .. . ... : ... .. . ... : ... .. . ... ...
ROW 77 : ... .. . ... ... ... : ... .. . P80 ... ... : ... .. . P7F : ... .. . ... : ... .. . ... ...
ROW 78 : ... .. 6 P7E ... ... : ... .. 7 P7F ... ... : ... .. . ... : ... .. . ... : ... .. . ... ...
ROW 79 : ... .. . ... ... ... : ... .. . ... ... ... : ... .. . ... : ... .. . ... : ... .. . ... ...
ROW 7A : ... .. . ... ... ... : ... .. 8 ... ... ... : ... .. . ... : ... .. . ... : ... .. . ... ...
ROW 7B : ... .. . ... ... ... : ... .. . ... ... ... : ... .. . P81 : ... .. . ... : ... .. . ... ...
ROW 7C : ... .. . P80 ... ... : ... .. 9 ... ... ... : ... .. . ... : ... .. . ... : ... .. . ... ...
ROW 7D : ... .. 7 P7F ... ... : ... .. . ... ... ... : ... .. . ... : ... .. . ... : ... .. . ... ...
ROW 7E : ... .. . ... ... ... : ... .. . ... ... ... : ... .. . ... : ... .. . ... : ... .. . ... ...
ROW 7F : ... .. 8 ... ... ... : ... .. 8 ... ... ... : ... .. . P7F : ... .. . ... : ... .. . ... ...
ROW 80 : ... .. . ... ... ... : ... .. . ... ... ... : ... .. . ... : ... .. . ... : ... .. . ... ...
ROW 81 : ... .. 9 ... ... ... : ... .. . ... ... ... : ... .. . ... : ... .. . ... : ... .. . ... ...
ROW 82 : ... .. . ... ... ... : ... .. . ... ... ... : ... .. . ... : ... .. . ... : ... .. . ... ...
ROW 83 : ... .. . ... ... ... : ... .. 7 ... ... ... : ... .. . P81 : ... .. . ... : ... .. . ... ...
ROW 84 : ... .. 8 ... ... ... : ... .. . ... ... ... : ... .. . ... : ... .. . ... : ... .. . ... ...
ROW 85 : ... .. . ... ... ... : ... .. . ... ... ... : ... .. . ... : ... .. . ... : ... .. . ... ...
ROW 86 : ... .. . ... ... ... : ... .. . ... ... ... : ... .. . ... : ... .. . ... : ... .. . ... ...
ROW 87 : ... .. . ... ... ... : ... .. 6 P7E ... ... : ... .. . P7F : ... .. . ... : ... .. . ... ...
ROW 88 : ... .. 7 ... ... ... : ... .. . ... ... ... : ... .. . ... : ... .. . ... : ... .. . ... ...
ROW 89 : ... .. . ... ... ... : ... .. . ... ... ... : ... .. . ... : ... .. . ... : ... .. . ... ...
ROW 8A : ... .. . ... ... ... : ... .. . ... ... ... : ... .. . ... : ... .. . ... : ... .. . ... ...
ROW 8B : ... .. . ... ... ... : ... .. . P80 ... ... : ... .. . P81 : ... .. . ... : ... .. . ... ...
ROW 8C : ... .. 6 P7E ... ... : A#3 00 7 ... ... ... : ... .. . ... : ... .. . ... : ... .. . ... ...
ROW 8D : ... .. . ... ... ... : ... .. . ... ... ... : ... .. . ... : ... .. . ... : ... .. . ... ...
ROW 8E : ... .. . ... ... ... : ... .. 8 ... ... ... : ... .. . ... : ... .. . ... : ... .. . ... ...
ROW 8F : ... .. . ... ... ... : ... .. . ... ... ... : ... .. . P7F : ... .. . ... : ... .. . ... ...
ROW 90 : ... .. . P80 ... ... : ... .. 9 ... ... ... : ... .. . ... : ... .. . ... : ... .. . ... ...
ROW 91 : A#3 00 7 ... ... ... : ... .. . ... ... ... : ... .. . ... : ... .. . ... : ... .. . ... ...
ROW 92 : ... .. . ... ... ... : ... .. . ... ... ... : ... .. . ... : ... .. . ... : ... .. . ... ...
ROW 93 : ... .. 8 ... ... ... : ... .. 8 ... ... ... : ... .. . P81 : ... .. . ... : ... .. . ... ...
ROW 94 : ... .. . ... ... ... : ... .. . ... ... ... : ... .. . ... : ... .. . ... : ... .. . ... ...
ROW 95 : ... .. 9 ... ... ... : ... .. . ... ... ... : ... .. . ... : ... .. . ... : ... .. . ... ...
ROW 96 : ... .. . ... ... ... : ... .. . ... ... ... : ... .. . ... : ... .. . ... : ... .. . ... ...
ROW 97 : ... .. . ... ... ... : ... .. 7 ... ... ... : ... .. . P7F : ... .. . ... : ... .. . ... ...
ROW 98 : ... .. 8 ... ... ... : ... .. . ... ... ... : ... .. . ... : ... .. . ... : ... .. . ... ...
ROW 99 : ... .. . ... ... ... : ... .. . ... ... ... : ... .. . ... : ... .. . ... : ... .. . ... ...
ROW 9A : ... .. . ... ... ... : ... .. . ... ... ... : ... .. . ... : ... .. . ... : ... .. . ... ...
ROW 9B : ... .. . ... ... ... : ... .. 6 P7F ... ... : ... .. . P81 : ... .. . ... : ... .. . ... ...
ROW 9C : ... .. 7 ... ... ... : ... .. . ... ... ... : ... .. . ... : ... .. . ... : ... .. . ... ...
ROW 9D : ... .. . ... ... ... : ... .. . ... ... ... : ... .. . ... : ... .. . ... : ... .. . ... ...
ROW 9E : ... .. . ... ... ... : ... .. . ... ... ... : ... .. . ... : ... .. . ... : ... .. . ... ...
ROW 9F : ... .. . ... ... ... : ... .. . P81 ... ... : ... .. . P7F : ... .. . ... : ... .. . ... ...
ROW A0 : ... .. 6 P7F ... ... : G#3 00 7 P7F ... ... : G#2 00 . P80 : ... .. . ... : ... .. . ... ...
ROW A1 : ... .. . ... ... ... : ... .. . ... ... ... : ... .. . ... : ... .. . ... : ... .. . ... ...
ROW A2 : ... .. . ... ... ... : ... .. 8 ... ... ... : ... .. . ... : ... .. . ... : ... .. . ... ...
ROW A3 : ... .. . ... ... ... : ... .. . ... ... ... : ... .. . ... : ... .. . ... : ... .. . ... ...
ROW A4 : ... .. . P81 ... ... : ... .. 9 ... ... ... : ... .. . ... : ... .. . ... : ... .. . ... ...
ROW A5 : G#3 00 7 P7F ... ... : ... .. . ... ... ... : ... .. . ... : ... .. . ... : ... .. . ... ...
ROW A6 : ... .. . ... ... ... : ... .. . ... ... ... : ... .. . ... : ... .. . ... : ... .. . ... ...
ROW A7 : ... .. 8 ... ... ... : ... .. 8 ... ... ... : ... .. . ... : ... .. . ... : ... .. . ... ...
ROW A8 : ... .. . ... ... ... : ... .. . ... ... ... : ... .. . ... : ... .. . ... : ... .. . ... ...
ROW A9 : ... .. 9 ... ... ... : ... .. . ... ... ... : ... .. . ... : ... .. . ... : ... .. . ... ...
ROW AA : ... .. . ... ... ... : F#3 00 7 ... ... ... : ... .. . ... : ... .. . ... : ... .. . ... ...
ROW AB : ... .. . ... ... ... : ... .. . ... ... ... : ... .. . ... : ... .. . ... : ... .. . ... ...
ROW AC : ... .. 8 ... ... ... : ... .. 8 ... ... ... : ... .. . ... : ... .. . ... : ... .. . ... ...
ROW AD : ... .. . ... ... ... : ... .. . ... ... ... : ... .. . ... : ... .. . ... : ... .. . ... ...
ROW AE : ... .. . ... ... ... : ... .. 9 ... ... ... : ... .. . ... : ... .. . ... : ... .. . ... ...
ROW AF : F#3 00 7 ... ... ... : ... .. . ... ... ... : ... .. . P7F : ... .. . ... : ... .. . ... ...
ROW B0 : ... .. . ... ... ... : ... .. . ... ... ... : ... .. . ... : ... .. . ... : ... .. . ... ...
ROW B1 : ... .. 8 ... ... ... : ... .. 8 ... ... ... : ... .. . ... : ... .. . ... : ... .. . ... ...
ROW B2 : ... .. . ... ... ... : ... .. . ... ... ... : ... .. . ... : ... .. . ... : ... .. . ... ...
ROW B3 : ... .. 9 ... ... ... : ... .. . ... ... ... : ... .. . P81 : ... .. . ... : ... .. . ... ...
ROW B4 : ... .. . ... ... ... : G#3 00 7 ... ... ... : ... .. . ... : ... .. . ... : ... .. . ... ...
ROW B5 : ... .. . ... ... ... : ... .. . ... ... ... : ... .. . ... : ... .. . ... : ... .. . ... ...
ROW B6 : ... .. 8 ... ... ... : ... .. 8 ... ... ... : ... .. . ... : ... .. . ... : ... .. . ... ...
ROW B7 : ... .. . ... ... ... : ... .. . ... ... ... : ... .. . P7F : ... .. . ... : ... .. . ... ...
ROW B8 : ... .. . ... ... ... : ... .. 9 ... ... ... : ... .. . ... : ... .. . ... : ... .. . ... ...
ROW B9 : G#3 00 7 ... ... ... : ... .. . ... ... ... : ... .. . ... : ... .. . ... : ... .. . ... ...
ROW BA : ... .. . ... ... ... : ... .. . ... ... ... : ... .. . ... : ... .. . ... : ... .. . ... ...
ROW BB : ... .. 8 ... ... ... : ... .. 8 ... ... ... : ... .. . P81 : ... .. . ... : ... .. . ... ...
ROW BC : ... .. . ... ... ... : ... .. . ... ... ... : ... .. . ... : ... .. . ... : ... .. . ... ...
ROW BD : ... .. 9 ... ... ... : ... .. . ... ... ... : ... .. . ... : ... .. . ... : ... .. . ... ...
ROW BE : ... .. . ... ... ... : ... .. . ... ... ... : ... .. . ... : ... .. . ... : ... .. . ... ...
ROW BF : ... .. . ... ... ... : ... .. 7 ... ... ... : ... .. . P7F : ... .. . ... : ... .. . ... ...
ROW C0 : ... .. 8 ... ... ... : ... .. . ... ... ... : ... .. . ... : ... .. . ... : ... .. . ... ...
ROW C1 : ... .. . ... ... ... : ... .. . ... ... ... : ... .. . ... : ... .. . ... : ... .. . ... ...
ROW C2 : ... .. . ... ... ... : ... .. . ... ... ... : ... .. . ... : ... .. . ... : ... .. . ... ...
ROW C3 : ... .. . ... ... ... : ... .. 6 P7E ... ... : ... .. . P81 : ... .. . ... : ... .. . ... ...
ROW C4 : ... .. 7 ... ... ... : ... .. . ... ... ... : ... .. . ... : ... .. . ... : ... .. . ... ...
ROW C5 : ... .. . ... ... ... : ... .. . ... ... ... : ... .. . ... : ... .. . ... : ... .. . ... ...
ROW C6 : ... .. . ... ... ... : ... .. . ... ... ... : ... .. . ... : ... .. . ... : ... .. . ... ...
ROW C7 : ... .. . ... ... ... : ... .. . P80 ... ... : ... .. . P7F : ... .. . ... : ... .. . ... ...
ROW C8 : ... .. 6 P7E ... ... : ... .. . ... ... ... : D#3 00 . P80 : ... .. . ... : ... .. . ... ...
ROW C9 : ... .. . ... ... ... : ... .. . ... ... ... : ... .. . ... : ... .. . ... : ... .. . ... ...
ROW CA : ... .. . ... ... ... : ... .. . ... ... ... : ... .. . ... : ... .. . ... : ... .. . ... ...
ROW CB : ... .. . ... ... ... : ... .. 5 P7E ... ... : ... .. . ... : ... .. . ... : ... .. . ... ...
ROW CC : ... .. . P80 ... ... : ... .. . ... ... ... : ... .. . ... : ... .. . ... : ... .. . ... ...
ROW CD : ... .. . ... ... ... : ... .. . ... ... ... : ... .. . ... : ... .. . ... : ... .. . ... ...
ROW CE : ... .. . ... ... ... : ... .. . ... ... ... : ... .. . ... : ... .. . ... : ... .. . ... ...
ROW CF : ... .. . ... ... ... : ... .. . P80 ... ... : ... .. . ... : ... .. . ... : ... .. . ... ...
ROW D0 : ... .. 5 P7E ... ... : ... .. 4 ... ... ... : ... .. . ... : ... .. . ... : ... .. . ... ...
ROW D1 : ... .. . ... ... ... : ... .. . ... ... ... : ... .. . ... : ... .. . ... : ... .. . ... ...
ROW D2 : ... .. . ... ... ... : ... .. . ... ... ... : ... .. . ... : ... .. . ... : ... .. . ... ...
ROW D3 : ... .. . ... ... ... : ... .. . P7E ... ... : ... .. . ... : ... .. . ... : ... .. . ... ...
ROW D4 : ... .. . P80 ... ... : ... .. . ... ... ... : ... .. . ... : ... .. . ... : ... .. . ... ...
ROW D5 : ... .. 4 ... ... ... : ... .. . ... ... ... : ... .. . ... : ... .. . ... : ... .. . ... ...
ROW D6 : ... .. . ... ... ... : ... .. . ... ... ... : ... .. . ... : ... .. . ... : ... .. . ... ...
ROW D7 : ... .. . ... ... ... : ... .. . P80 ... ... : ... .. . P7F : ... .. . ... : ... .. . ... ...
ROW D8 : ... .. . P7E ... ... : ... .. . ... ... ... : ... .. . ... : ... .. . ... : ... .. . ... ...
ROW D9 : ... .. . ... ... ... : ... .. . ... ... ... : ... .. . ... : ... .. . ... : ... .. . ... ...
ROW DA : ... .. . ... ... ... : ... .. . ... ... ... : ... .. . ... : ... .. . ... : ... .. . ... ...
ROW DB : ... .. . ... ... ... : ... .. . P7E ... ... : ... .. . P81 : ... .. . ... : ... .. . ... ...
ROW DC : ... .. . P80 ... ... : ... .. . ... ... ... : ... .. . ... : ... .. . ... : ... .. . ... ...
ROW DD : ... .. . ... ... ... : ... .. . ... ... ... : ... .. . ... : ... .. . ... : ... .. . ... ...
ROW DE : ... .. . ... ... ... : ... .. . ... ... ... : ... .. . ... : ... .. . ... : ... .. . ... ...
ROW DF : ... .. . ... ... ... : ... .. . P80 ... ... : ... .. . P7F : ... .. . ... : ... .. . ... ...
ROW E0 : ... .. . P7E ... ... : ... .. . ... ... ... : ... .. . ... : ... .. . ... : ... .. . ... ...
ROW E1 : ... .. . ... ... ... : ... .. . ... ... ... : ... .. . ... : ... .. . ... : ... .. . ... ...
ROW E2 : ... .. . ... ... ... : ... .. . ... ... ... : ... .. . ... : ... .. . ... : ... .. . ... ...
ROW E3 : ... .. . ... ... ... : ... .. . P7E ... ... : ... .. . P81 : ... .. . ... : ... .. . ... ...
ROW E4 : ... .. . P80 ... ... : ... .. . ... ... ... : ... .. . ... : ... .. . ... : ... .. . ... ...
ROW E5 : ... .. . ... ... ... : ... .. . ... ... ... : ... .. . ... : ... .. . ... : ... .. . ... ...
ROW E6 : ... .. . ... ... ... : ... .. . ... ... ... : ... .. . ... : ... .. . ... : ... .. . ... ...
ROW E7 : ... .. . ... ... ... : ... .. . P80 ... ... : ... .. . P7F : ... .. . ... : ... .. . ... ...
ROW E8 : ... .. . P7E ... ... : ... .. . ... ... ... : ... .. . ... : ... .. . ... : ... .. . ... ...
ROW E9 : ... .. . ... ... ... : ... .. . ... ... ... : ... .. . ... : ... .. . ... : ... .. . ... ...
ROW EA : ... .. . ... ... ... : ... .. . ... ... ... : ... .. . ... : ... .. . ... : ... .. . ... ...
ROW EB : ... .. . ... ... ... : ... .. . P7E ... ... : ... .. . P81 : ... .. . ... : ... .. . ... ...
ROW EC : ... .. . P80 ... ... : ... .. . ... ... ... : ... .. . ... : ... .. . ... : ... .. . ... ...
ROW ED : ... .. . ... ... ... : ... .. . ... ... ... : ... .. . ... : ... .. . ... : ... .. . ... ...
ROW EE : ... .. . ... ... ... : ... .. . ... ... ... : ... .. . ... : ... .. . ... : ... .. . ... ...
ROW EF : ... .. . ... ... ... : ... .. . P80 ... ... : ... .. . P7F : ... .. . ... : ... .. . ... ...
ROW F0 : ... .. . P7E ... ... : ... .. . ... ... ... : G#3 00 . ... : ... .. . ... : ... .. . ... ...
ROW F1 : ... .. . ... ... ... : ... .. . ... ... ... : ... .. . ... : ... .. . ... : ... .. . ... ...
ROW F2 : ... .. . ... ... ... : ... .. . ... ... ... : ... .. . ... : ... .. . ... : ... .. . ... ...
ROW F3 : ... .. . ... ... ... : ... .. . P7E ... ... : ... .. . ... : ... .. . ... : ... .. . ... ...
ROW F4 : ... .. . P80 ... ... : ... .. . ... ... ... : ... .. . ... : ... .. . ... : ... .. . ... ...
ROW F5 : ... .. . ... ... ... : ... .. . ... ... ... : ... .. . ... : ... .. . ... : ... .. . ... ...
ROW F6 : ... .. . ... ... ... : ... .. . ... ... ... : ... .. . ... : ... .. . ... : ... .. . ... ...
ROW F7 : ... .. . ... ... ... : ... .. . P80 ... ... : ... .. . ... : ... .. . ... : ... .. . ... ...
ROW F8 : ... .. . P7E ... ... : ... .. . ... ... ... : ... .. . ... : ... .. . ... : ... .. . ... ...
ROW F9 : ... .. . ... ... ... : ... .. . ... ... ... : ... .. . ... : ... .. . ... : ... .. . ... ...
ROW FA : ... .. . ... ... ... : ... .. . ... ... ... : ... .. . ... : ... .. . ... : ... .. . ... ...
ROW FB : ... .. . ... ... ... : ... .. . P7E ... ... : ... .. . ... : ... .. . ... : ... .. . ... ...
ROW FC : ... .. . P80 ... ... : ... .. . ... ... ... : ... .. . ... : ... .. . ... : ... .. . ... ...
ROW FD : ... .. . ... ... ... : ... .. . ... ... ... : ... .. . ... : ... .. . ... : ... .. . ... ...
ROW FE : ... .. . ... ... ... : ... .. . ... ... ... : ... .. . ... : ... .. . ... : ... .. . ... ...
ROW FF : ... .. . ... ... ... : ... .. . P80 ... ... : ... .. . P7E : ... .. . ... : ... .. . ... ...

PATTERN 01
ROW 00 : ... .. . P7E ... ... : ... .. . ... ... ... : ... .. . ... : ... .. . ... : ... .. . ... ...
ROW 01 : ... .. . ... ... ... : ... .. . ... ... ... : ... .. . ... : ... .. . ... : ... .. . ... ...
ROW 02 : ... .. . ... ... ... : ... .. . ... ... ... : ... .. . ... : ... .. . ... : ... .. . ... ...
ROW 03 : ... .. . ... ... ... : ... .. . P7E ... ... : ... .. . P80 : ... .. . ... : ... .. . ... ...
ROW 04 : ... .. . P80 ... ... : ... .. . P7F ... ... : ... .. . ... : ... .. . ... : ... .. . ... ...
ROW 05 : ... .. . ... ... ... : ... .. . ... ... ... : ... .. . ... : ... .. . ... : ... .. . ... ...
ROW 06 : ... .. . ... ... ... : ... .. . ... ... ... : ... .. . ... : ... .. . ... : ... .. . ... ...
ROW 07 : ... .. . ... ... ... : ... .. . ... ... ... : ... .. . P7E : ... .. . ... : ... .. . ... ...
ROW 08 : ... .. . P7E ... ... : ... .. . ... ... ... : ... .. . ... : ... .. . ... : ... .. . ... ...
ROW 09 : ... .. . P7F ... ... : ... .. . ... ... ... : ... .. . ... : ... .. . ... : ... .. . ... ...
ROW 0A : ... .. . ... ... ... : ... .. . ... ... ... : ... .. . ... : ... .. . ... : ... .. . ... ...
ROW 0B : ... .. . ... ... ... : ... .. . ... ... ... : ... .. . P80 : ... .. . ... : ... .. . ... ...
ROW 0C : ... .. . ... ... ... : ... .. . ... ... ... : ... .. . ... : ... .. . ... : ... .. . ... ...
ROW 0D : ... .. . ... ... ... : ... .. . ... ... ... : ... .. . ... : ... .. . ... : ... .. . ... ...
ROW 0E : ... .. . ... ... ... : ... .. . ... ... ... : ... .. . ... : ... .. . ... : ... .. . ... ...
ROW 0F : ... .. . ... ... ... : ... .. . ... ... ... : ... .. . P7E : ... .. . ... : ... .. . ... ...
ROW 10 : ... .. . ... ... ... : ... .. . ... ... ... : ... .. . ... : ... .. . ... : ... .. . ... ...
ROW 11 : ... .. . ... ... ... : ... .. . ... ... ... : ... .. . ... : ... .. . ... : ... .. . ... ...
ROW 12 : ... .. . ... ... ... : ... .. . ... ... ... : ... .. . ... : ... .. . ... : ... .. . ... ...
ROW 13 : ... .. . ... ... ... : ... .. . P7E ... ... : ... .. . P80 : ... .. . ... : ... .. . ... ...
ROW 14 : ... .. . ... ... ... : ... .. . ... ... ... : ... .. . ... : ... .. . ... : ... .. . ... ...
ROW 15 : ... .. . ... ... ... : ... .. . ... ... ... : ... .. . ... : ... .. . ... : ... .. . ... ...
ROW 16 : ... .. . ... ... ... : ... .. . ... ... ... : ... .. . ... : ... .. . ... : ... .. . ... ...
ROW 17 : ... .. . ... ... ... : ... .. . P80 ... ... : ... .. . P7E : ... .. . ... : ... .. . ... ...
ROW 18 : ... .. . P7E ... ... : ... .. . ... ... ... : ... .. . ... : ... .. . ... : ... .. . ... ...
ROW 19 : ... .. . ... ... ... : ... .. . ... ... ... : ... .. . ... : ... .. . ... : ... .. . ... ...
ROW 1A : ... .. . ... ... ... : ... .. . ... ... ... : ... .. . ... : ... .. . ... : ... .. . ... ...
ROW 1B : ... .. . ... ... ... : ... .. . P7E ... ... : ... .. . P80 : ... .. . ... : ... .. . ... ...
ROW 1C : ... .. . P80 ... ... : ... .. . ... ... ... : ... .. . ... : ... .. . ... : ... .. . ... ...
ROW 1D : ... .. . ... ... ... : ... .. . ... ... ... : ... .. . ... : ... .. . ... : ... .. . ... ...
ROW 1E : ... .. . ... ... ... : ... .. . ... ... ... : ... .. . ... : ... .. . ... : ... .. . ... ...
ROW 1F : ... .. . ... ... ... : ... .. . P80 ... ... : ... .. . P7E : ... .. . ... : ... .. . ... ...
ROW 20 : ... .. . P7E ... ... : ... .. . ... ... ... : ... .. . ... : ... .. . ... : ... .. . ... ...
ROW 21 : ... .. . ... ... ... : ... .. . ... ... ... : ... .. . ... : ... .. . ... : ... .. . ... ...
ROW 22 : ... .. . ... ... ... : ... .. . ... ... ... : ... .. . ... : ... .. . ... : ... .. . ... ...
ROW 23 : ... .. . ... ... ... : ... .. . P7E ... ... : ... .. . P80 : ... .. . ... : ... .. . ... ...
ROW 24 : ... .. . P80 ... ... : ... .. . ... ... ... : ... .. . ... : ... .. . ... : ... .. . ... ...
ROW 25 : ... .. . ... ... ... : ... .. . ... ... ... : ... .. . ... : ... .. . ... : ... .. . ... ...
ROW 26 : ... .. . ... ... ... : ... .. . ... ... ... : ... .. . ... : ... .. . ... : ... .. . ... ...
ROW 27 : ... .. . ... ... ... : ... .. . P80 ... ... : ... .. . P7E : ... .. . ... : ... .. . ... ...
ROW 28 : ... .. . P7E ... ... : ... .. . ... ... ... : ... .. . ... : ... .. . ... : ... .. . ... ...
ROW 29 : ... .. . ... ... ... : ... .. . ... ... ... : ... .. . ... : ... .. . ... : ... .. . ... ...
ROW 2A : ... .. . ... ... ... : ... .. . ... ... ... : ... .. . ... : ... .. . ... : ... .. . ... ...
ROW 2B : ... .. . ... ... ... : ... .. . P7E ... ... : ... .. . P80 : ... .. . ... : ... .. . ... ...
ROW 2C : ... .. . P80 ... ... : ... .. . ... ... ... : ... .. . ... : ... .. . ... : ... .. . ... ...
ROW 2D : ... .. . ... ... ... : ... .. . ... ... ... : ... .. . ... : ... .. . ... : ... .. . ... ...
ROW 2E : ... .. . ... ... ... : ... .. . ... ... ... : ... .. . ... : ... .. . ... : ... .. . ... ...
ROW 2F : ... .. . ... ... ... : ... .. . P80 ... ... : ... .. . P7E : ... .. . ... : ... .. . ... ...
ROW 30 : ... .. . P7E ... ... : ... .. . ... ... ... : ... .. . ... : ... .. . ... : ... .. . ... ...
ROW 31 : ... .. . ... ... ... : ... .. . ... ... ... : ... .. . ... : ... .. . ... : ... .. . ... ...
ROW 32 : ... .. . ... ... ... : ... .. . ... ... ... : ... .. . ... : ... .. . ... : ... .. . ... ...
ROW 33 : ... .. . ... ... ... : ... .. 0 P7E ... ... : ... .. . P80 : ... .. . ... : ... .. . ... ...
ROW 34 : ... .. . P80 ... ... : ... .. . ... ... ... : ... .. . ... : ... .. . ... : ... .. . ... ...
ROW 35 : ... .. . ... ... ... : ... .. . ... ... ... : ... .. . ... : ... .. . ... : ... .. . ... ...
ROW 36 : ... .. . ... ... ... : ... .. . ... ... ... : ... .. . ... : ... .. . ... : ... .. . ... ...
ROW 37 : ... .. . ... ... ... : ... .. . P80 ... ... : ... .. . P7E : ... .. . ... : ... .. . ... ...
ROW 38 : ... .. 0 P7E ... ... : ... .. . ... ... ... : ... .. . ... : ... .. . ... : ... .. . ... ...
ROW 39 : ... .. . ... ... ... : ... .. . ... ... ... : ... .. . ... : ... .. . ... : ... .. . ... ...
ROW 3A : ... .. . ... ... ... : ... .. . ... ... ... : ... .. . ... : ... .. . ... : ... .. . ... ...
ROW 3B : ... .. . ... ... ... : ... .. . P7E ... ... : ... .. . P80 : ... .. . ... : ... .. . ... ...
ROW 3C : ... .. . P80 ... ... : ... .. . ... ... ... : ... .. . ... : ... .. . ... : ... .. . ... ...
ROW 3D : ... .. . ... ... ... : ... .. . ... ... ... : ... .. . ... : ... .. . ... : ... .. . ... ...
ROW 3E : ... .. . ... ... ... : ... .. . ... ... ... : ... .. . ... : ... .. . ... : ... .. . ... ...
ROW 3F : ... .. . ... ... ... : ... .. . P80 ... ... : ... .. . P7E : ... .. . ... : ... .. . ... ...
ROW 40 : ... .. . P7E ... ... : A#3 00 7 ... ... ... : F#2 00 . P80 : ... .. . ... : ... .. . ... ...
ROW 41 : ... .. . ... ... ... : ... .. . ... ... ... : ... .. . ... : ... .. . ... : ... .. . ... ...
ROW 42 : ... .. . ... ... ... : ... .. 8 ... ... ... : ... .. . ... : ... .. . ... : ... .. . ... ...
ROW 43 : ... .. . ... ... ... : ... .. . ... ... ... : ... .. . ... : ... .. . ... : ... .. . ... ...
ROW 44 : ... .. . P80 ... ... : ... .. 9 ... ... ... : ... .. . ... : ... .. . ... : ... .. . ... ...
ROW 45 : A#3 00 7 ... ... ... : ... .. . ... ... ... : ... .. . ... : ... .. . ... : ... .. . ... ...
ROW 46 : ... .. . ... ... ... : ... .. . ... ... ... : ... .. . ... : ... .. . ... : ... .. . ... ...
ROW 47 : ... .. 8 ... ... ... : ... .. 8 ... ... ... : ... .. . ... : ... .. . ... : ... .. . ... ...
ROW 48 : ... .. . ... ... ... : ... .. . ... ... ... : ... .. . ... : ... .. . ... : ... .. . ... ...
ROW 49 : ... .. 9 ... ... ... : ... .. . ... ... ... : ... .. . ... : ... .. . ... : ... .. . ... ...
ROW 4A : ... .. . ... ... ... : ... .. . ... ... ... : ... .. . ... : ... .. . ... : ... .. . ... ...
ROW 4B : ... .. . ... ... ... : ... .. 7 ... ... ... : ... .. . ... : ... .. . ... : ... .. . ... ...
ROW 4C : ... .. 8 ... ... ... : ... .. . ... ... ... : ... .. . ... : ... .. . ... : ... .. . ... ...
ROW 4D : ... .. . ... ... ... : ... .. . ... ... ... : ... .. . ... : ... .. . ... : ... .. . ... ...
ROW 4E : ... .. . ... ... ... : ... .. . ... ... ... : ... .. . ... : ... .. . ... : ... .. . ... ...
ROW 4F : ... .. . ... ... ... : ... .. 6 P7F ... ... : ... .. . P7F : ... .. . ... : ... .. . ... ...
ROW 50 : ... .. 7 ... ... ... : ... .. . ... ... ... : ... .. . ... : ... .. . ... : ... .. . ... ...
ROW 51 : ... .. . ... ... ... : ... .. . ... ... ... : ... .. . ... : ... .. . ... : ... .. . ... ...
ROW 52 : ... .. . ... ... ... : ... .. . ... ... ... : ... .. . ... : ... .. . ... : ... .. . ... ...
ROW 53 : ... .. . ... ... ... : ... .. . P81 ... ... : ... .. . P81 : ... .. . ... : ... .. . ... ...
ROW 54 : ... .. 6 P7F ... ... : ... .. . ... ... ... : ... .. . ... : ... .. . ... : ... .. . ... ...
ROW 55 : ... .. . ... ... ... : ... .. . ... ... ... : ... .. . ... : ... .. . ... : ... .. . ... ...
ROW 56 : ... .. . ... ... ... : ... .. . ... ... ... : ... .. . ... : ... .. . ... : ... .. . ... ...
ROW 57 : ... .. . ... ... ... : ... .. 5 P7F ... ... : ... .. . P7F : ... .. . ... : ... .. . ... ...
ROW 58 : ... .. . P81 ... ... : ... .. . ... ... ... : ... .. . ... : ... .. . ... : ... .. . ... ...
ROW 59 : ... .. . ... ... ... : ... .. . ... ... ... : ... .. . ... : ... .. . ... : ... .. . ... ...
ROW 5A : ... .. . ... ... ... : ... .. . ... ... ... : ... .. . ... : ... .. . ... : ... .. . ... ...
ROW 5B : ... .. . ... ... ... : ... .. . P81 ... ... : ... .. . P81 : ... .. . ... : ... .. . ... ...
ROW 5C : ... .. 5 P7F ... ... : ... .. 4 ... ... ... : ... .. . ... : ... .. . ... : ... .. . ... ...
ROW 5D : ... .. . ... ... ... : ... .. . ... ... ... : ... .. . ... : ... .. . ... : ... .. . ... ...
ROW 5E : ... .. . ... ... ... : ... .. . ... ... ... : ... .. . ... : ... .. . ... : ... .. . ... ...
ROW 5F : ... .. . ... ... ... : ... .. . P7F ... ... : ... .. . P7F : ... .. . ... : ... .. . ... ...
ROW 60 : ... .. . P81 ... ... : ... .. . ... ... ... : ... .. . ... : ... .. . ... : ... .. . ... ...
ROW 61 : ... .. 4 ... ... ... : ... .. . ... ... ... : ... .. . ... : ... .. . ... : ... .. . ... ...
ROW 62 : ... .. . ... ... ... : ... .. . ... ... ... : ... .. . ... : ... .. . ... : ... .. . ... ...
ROW 63 : ... .. . ... ... ... : ... .. . P81 ... ... : ... .. . P81 : ... .. . ... : ... .. . ... ...
ROW 64 : ... .. . P7F ... ... : ... .. . ... ... ... : ... .. . ... : ... .. . ... : ... .. . ... ...
ROW 65 : ... .. . ... ... ... : ... .. . ... ... ... : ... .. . ... : ... .. . ... : ... .. . ... ...
ROW 66 : ... .. . ... ... ... : ... .. . ... ... ... : ... .. . ... : ... .. . ... : ... .. . ... ...
ROW 67 : ... .. . ... ... ... : ... .. . P7F ... ... : ... .. . P7F : ... .. . ... : ... .. . ... ...
ROW 68 : ... .. . P81 ... ... : ... .. . ... ... ... : C#3 00 . P80 : ... .. . ... : ... .. . ... ...
ROW 69 : ... .. . ... ... ... : ... .. . ... ... ... : ... .. . ... : ... .. . ... : ... .. . ... ...
ROW 6A : ... .. . ... ... ... : ... .. . ... ... ... : ... .. . ... : ... .. . ... : ... .. . ... ...
ROW 6B : ... .. . ... ... ... : ... .. . P81 ... ... : ... .. . ... : ... .. . ... : ... .. . ... ...
ROW 6C : ... .. . P7F ... ... : ... .. . ... ... ... : ... .. . ... : ... .. . ... : ... .. . ... ...
ROW 6D : ... .. . ... ... ... : ... .. . ... ... ... : ... .. . ... : ... .. . ... : ... .. . ... ...
ROW 6E : ... .. . ... ... ... : ... .. . ... ... ... : ... .. . ... : ... .. . ... : ... .. . ... ...
ROW 6F : ... .. . ... ... ... : ... .. . P7F ... ... : ... .. . ... : ... .. . ... : ... .. . ... ...
ROW 70 : ... .. . P81 ... ... : ... .. . ... ... ... : ... .. . ... : ... .. . ... : ... .. . ... ...
ROW 71 : ... .. . ... ... ... : ... .. . ... ... ... : ... .. . ... : ... .. . ... : ... .. . ... ...
ROW 72 : ... .. . ... ... ... : ... .. . ... ... ... : ... .. . ... : ... .. . ... : ... .. . ... ...
ROW 73 : ... .. . ... ... ... : ... .. . P81 ... ... : ... .. . ... : ... .. . ... : ... .. . ... ...
ROW 74 : ... .. . P7F ... ... : ... .. . ... ... ... : ... .. . ... : ... .. . ... : ... .. . ... ...
ROW 75 : ... .. . ... ... ... : ... .. . ... ... ... : ... .. . ... : ... .. . ... : ... .. . ... ...
ROW 76 : ... .. . ... ... ... : ... .. . ... ... ... : ... .. . ... : ... .. . ... : ... .. . ... ...
ROW 77 : ... .. . ... ... ... : ... .. . P7F ... ... : ... .. . P7F : ... .. . ... : ... .. . ... ...
ROW 78 : ... .. . P81 ... ... : ... .. . ... ... ... : ... .. . ... : ... .. . ... : ... .. . ... ...
ROW 79 : ... .. . ... ... ... : ... .. . ... ... ... : ... .. . ... : ... .. . ... : ... .. . ... ...
ROW 7A : ... .. . ... ... ... : ... .. . ... ... ... : ... .. . ... : ... .. . ... : ... .. . ... ...
ROW 7B : ... .. . ... ... ... : ... .. . P81 ... ... : ... .. . P81 : ... .. . ... : ... .. . ... ...
ROW 7C : ... .. . P7F ... ... : ... .. . ... ... ... : ... .. . ... : ... .. . ... : ... .. . ... ...
ROW 7D : ... .. . ... ... ... : ... .. . ... ... ... : ... .. . ... : ... .. . ... : ... .. . ... ...
ROW 7E : ... .. . ... ... ... : ... .. . ... ... ... : ... .. . ... : ... .. . ... : ... .. . ... ...
ROW 7F : ... .. . ... ... ... : ... .. . P7F ... ... : ... .. . P7F : ... .. . ... : ... .. . ... ...
ROW 80 : ... .. . P81 ... ... : ... .. . ... ... ... : ... .. . ... : ... .. . ... : ... .. . ... ...
ROW 81 : ... .. . ... ... ... : ... .. . ... ... ... : ... .. . ... : ... .. . ... : ... .. . ... ...
ROW 82 : ... .. . ... ... ... : ... .. . ... ... ... : ... .. . ... : ... .. . ... : ... .. . ... ...
ROW 83 : ... .. . ... ... ... : ... .. . P81 ... ... : ... .. . P81 : ... .. . ... : ... .. . ... ...
ROW 84 : ... .. . P7F ... ... : ... .. . ... ... ... : ... .. . ... : ... .. . ... : ... .. . ... ...
ROW 85 : ... .. . ... ... ... : ... .. . ... ... ... : ... .. . ... : ... .. . ... : ... .. . ... ...
ROW 86 : ... .. . ... ... ... : ... .. . ... ... ... : ... .. . ... : ... .. . ... : ... .. . ... ...
ROW 87 : ... .. . ... ... ... : ... .. . P7F ... ... : ... .. . P7F : ... .. . ... : ... .. . ... ...
ROW 88 : ... .. . P81 ... ... : ... .. . ... ... ... : ... .. . ... : ... .. . ... : ... .. . ... ...
ROW 89 : ... .. . ... ... ... : ... .. . ... ... ... : ... .. . ... : ... .. . ... : ... .. . ... ...
ROW 8A : ... .. . ... ... ... : ... .. . ... ... ... : ... .. . ... : ... .. . ... : ... .. . ... ...
ROW 8B : ... .. . ... ... ... : ... .. . P81 ... ... : ... .. . P81 : ... .. . ... : ... .. . ... ...
ROW 8C : ... .. . P7F ... ... : ... .. . ... ... ... : ... .. . ... : ... .. . ... : ... .. . ... ...
ROW 8D : ... .. . ... ... ... : ... .. . ... ... ... : ... .. . ... : ... .. . ... : ... .. . ... ...
ROW 8E : ... .. . ... ... ... : ... .. . ... ... ... : ... .. . ... : ... .. . ... : ... .. . ... ...
ROW 8F : ... .. . ... ... ... : ... .. . P7F ... ... : ... .. . P7F : ... .. . ... : ... .. . ... ...
ROW 90 : ... .. . P81 ... ... : ... .. . P80 ... ... : F#3 00 . ... : ... .. . ... : ... .. . ... ...
ROW 91 : ... .. . ... ... ... : ... .. . ... ... ... : ... .. . ... : ... .. . ... : ... .. . ... ...
ROW 92 : ... .. . ... ... ... : ... .. . ... ... ... : ... .. . ... : ... .. . ... : ... .. . ... ...
ROW 93 : ... .. . ... ... ... : ... .. . ... ... ... : ... .. . ... : ... .. . ... : ... .. . ... ...
ROW 94 : ... .. . P7F ... ... : ... .. . ... ... ... : ... .. . ... : ... .. . ... : ... .. . ... ...
ROW 95 : ... .. . P80 ... ... : ... .. . ... ... ... : ... .. . ... : ... .. . ... : ... .. . ... ...
ROW 96 : ... .. . ... ... ... : ... .. . ... ... ... : ... .. . ... : ... .. . ... : ... .. . ... ...
ROW 97 : ... .. . ... ... ... : ... .. . ... ... ... : ... .. . ... : ... .. . ... : ... .. . ... ...
ROW 98 : ... .. . ... ... ... : ... .. . ... ... ... : ... .. . ... : ... .. . ... : ... .. . ... ...
ROW 99 : ... .. . ... ... ... : ... .. . ... ... ... : ... .. . ... : ... .. . ... : ... .. . ... ...
ROW 9A : ... .. . ... ... ... : ... .. . ... ... ... : ... .. . ... : ... .. . ... : ... .. . ... ...
ROW 9B : ... .. . ... ... ... : ... .. . ... ... ... : ... .. . ... : ... .. . ... : ... .. . ... ...
ROW 9C : ... .. . ... ... ... : ... .. . ... ... ... : ... .. . ... : ... .. . ... : ... .. . ... ...
ROW 9D : ... .. . ... ... ... : ... .. . ... ... ... : ... .. . ... : ... .. . ... : ... .. . ... ...
ROW 9E : ... .. . ... ... ... : ... .. . ... ... ... : ... .. . ... : ... .. . ... : ... .. . ... ...
ROW 9F : ... .. . ... ... ... : ... .. . P7F ... ... : ... .. . P7E : ... .. . ... : ... .. . ... ...
ROW A0 : ... .. . ... ... ... : ... .. . ... ... ... : ... .. . ... : ... .. . ... : ... .. . ... ...
ROW A1 : ... .. . ... ... ... : ... .. . ... ... ... : ... .. . ... : ... .. . ... : ... .. . ... ...
ROW A2 : ... .. . ... ... ... : ... .. . ... ... ... : ... .. . ... : ... .. . ... : ... .. . ... ...
ROW A3 : ... .. . ... ... ... : ... .. . P81 ... ... : ... .. . P80 : ... .. . ... : ... .. . ... ...
ROW A4 : ... .. . P7F ... ... : F#3 00 7 P7F ... ... : ... .. . ... : ... .. . ... : ... .. . ... ...
ROW A5 : ... .. . ... ... ... : ... .. . ... ... ... : ... .. . ... : ... .. . ... : ... .. . ... ...
ROW A6 : ... .. . ... ... ... : ... .. 8 ... ... ... : ... .. . ... : ... .. . ... : ... .. . ... ...
ROW A7 : ... .. . ... ... ... : ... .. . ... ... ... : ... .. . P7E : ... .. . ... : ... .. . ... ...
ROW A8 : ... .. . P81 ... ... : ... .. 9 ... ... ... : ... .. . ... : ... .. . ... : ... .. . ... ...
ROW A9 : F#3 00 7 P7F ... ... : ... .. . ... ... ... : ... .. . ... : ... .. . ... : ... .. . ... ...
ROW AA : ... .. . ... ... ... : ... .. . ... ... ... : ... .. . ... : ... .. . ... : ... .. . ... ...
ROW AB : ... .. 8 ... ... ... : ... .. 8 ... ... ... : ... .. . P80 : ... .. . ... : ... .. . ... ...
ROW AC : ... .. . ... ... ... : ... .. . ... ... ... : ... .. . ... : ... .. . ... : ... .. . ... ...
ROW AD : ... .. 9 ... ... ... : ... .. . ... ... ... : ... .. . ... : ... .. . ... : ... .. . ... ...
ROW AE : ... .. . ... ... ... : ... .. . ... ... ... : ... .. . ... : ... .. . ... : ... .. . ... ...
ROW AF : ... .. . ... ... ... : ... .. 7 ... ... ... : ... .. . P7E : ... .. . ... : ... .. . ... ...
ROW B0 : ... .. 8 ... ... ... : ... .. . ... ... ... : ... .. . ... : ... .. . ... : ... .. . ... ...
ROW B1 : ... .. . ... ... ... : ... .. . ... ... ... : ... .. . ... : ... .. . ... : ... .. . ... ...
ROW B2 : ... .. . ... ... ... : ... .. . ... ... ... : ... .. . ... : ... .. . ... : ... .. . ... ...
ROW B3 : ... .. . ... ... ... : ... .. 6 P7E ... ... : ... .. . P80 : ... .. . ... : ... .. . ... ...
ROW B4 : ... .. 7 ... ... ... : ... .. . ... ... ... : ... .. . ... : ... .. . ... : ... .. . ... ...
ROW B5 : ... .. . ... ... ... : ... .. . ... ... ... : ... .. . ... : ... .. . ... : ... .. . ... ...
ROW B6 : ... .. . ... ... ... : ... .. . ... ... ... : ... .. . ... : ... .. . ... : ... .. . ... ...
ROW B7 : ... .. . ... ... ... : ... .. . P80 ... ... : ... .. . P7E : ... .. . ... : ... .. . ... ...
ROW B8 : ... .. 6 P7E ... ... : ... .. 7 P7F ... ... : ... .. . ... : ... .. . ... : ... .. . ... ...
ROW B9 : ... .. . ... ... ... : ... .. . ... ... ... : ... .. . ... : ... .. . ... : ... .. . ... ...
ROW BA : ... .. . ... ... ... : ... .. 8 ... ... ... : ... .. . ... : ... .. . ... : ... .. . ... ...
ROW BB : ... .. . ... ... ... : ... .. . ... ... ... : ... .. . P80 : ... .. . ... : ... .. . ... ...
ROW BC : ... .. . P80 ... ... : ... .. 9 ... ... ... : ... .. . ... : ... .. . ... : ... .. . ... ...
ROW BD : ... .. 7 P7F ... ... : ... .. . ... ... ... : ... .. . ... : ... .. . ... : ... .. . ... ...
ROW BE : ... .. . ... ... ... : ... .. . ... ... ... : ... .. . ... : ... .. . ... : ... .. . ... ...
ROW BF : ... .. 8 ... ... ... : ... .. 8 ... ... ... : ... .. . P7E : ... .. . ... : ... .. . ... ...
ROW C0 : ... .. . ... ... ... : ... .. . ... ... ... : ... .. . ... : ... .. . ... : ... .. . ... ...
ROW C1 : ... .. 9 ... ... ... : ... .. . ... ... ... : ... .. . ... : ... .. . ... : ... .. . ... ...
ROW C2 : ... .. . ... ... ... : ... .. . ... ... ... : ... .. . ... : ... .. . ... : ... .. . ... ...
ROW C3 : ... .. . ... ... ... : ... .. 7 ... ... ... : ... .. . P80 : ... .. . ... : ... .. . ... ...
ROW C4 : ... .. 8 ... ... ... : ... .. . ... ... ... : ... .. . ... : ... .. . ... : ... .. . ... ...
ROW C5 : ... .. . ... ... ... : ... .. . ... ... ... : ... .. . ... : ... .. . ... : ... .. . ... ...
ROW C6 : ... .. . ... ... ... : ... .. . ... ... ... : ... .. . ... : ... .. . ... : ... .. . ... ...
ROW C7 : ... .. . ... ... ... : ... .. 6 P7E ... ... : ... .. . P7E : ... .. . ... : ... .. . ... ...
ROW C8 : ... .. 7 ... ... ... : ... .. . ... ... ... : ... .. . ... : ... .. . ... : ... .. . ... ...
ROW C9 : ... .. . ... ... ... : ... .. . ... ... ... : ... .. . ... : ... .. . ... : ... .. . ... ...
ROW CA : ... .. . ... ... ... : ... .. . ... ... ... : ... .. . ... : ... .. . ... : ... .. . ... ...
ROW CB : ... .. . ... ... ... : ... .. . P80 ... ... : ... .. . P80 : ... .. . ... : ... .. . ... ...
ROW CC : ... .. 6 P7E ... ... : A#3 00 7 ... ... ... : ... .. . ... : ... .. . ... : ... .. . ... ...
ROW CD : ... .. . ... ... ... : ... .. . ... ... ... : ... .. . ... : ... .. . ... : ... .. . ... ...
ROW CE : ... .. . ... ... ... : ... .. 8 ... ... ... : ... .. . ... : ... .. . ... : ... .. . ... ...
ROW CF : ... .. . ... ... ... : ... .. . ... ... ... : ... .. . P7E : ... .. . ... : ... .. . ... ...
ROW D0 : ... .. . P80 ... ... : ... .. 9 ... ... ... : ... .. . ... : ... .. . ... : ... .. . ... ...
ROW D1 : A#3 00 7 ... ... ... : ... .. . ... ... ... : ... .. . ... : ... .. . ... : ... .. . ... ...
ROW D2 : ... .. . ... ... ... : ... .. . ... ... ... : ... .. . ... : ... .. . ... : ... .. . ... ...
ROW D3 : ... .. 8 ... ... ... : ... .. 8 ... ... ... : ... .. . P80 : ... .. . ... : ... .. . ... ...
ROW D4 : ... .. . ... ... ... : ... .. . ... ... ... : ... .. . ... : ... .. . ... : ... .. . ... ...
ROW D5 : ... .. 9 ... ... ... : ... .. . ... ... ... : ... .. . ... : ... .. . ... : ... .. . ... ...
ROW D6 : ... .. . ... ... ... : ... .. . ... ... ... : ... .. . ... : ... .. . ... : ... .. . ... ...
ROW D7 : ... .. . ... ... ... : ... .. 7 ... ... ... : ... .. . P7E : ... .. . ... : ... .. . ... ...
ROW D8 : ... .. 8 ... ... ... : ... .. . ... ... ... : ... .. . ... : ... .. . ... : ... .. . ... ...
ROW D9 : ... .. . ... ... ... : ... .. . ... ... ... : ... .. . ... : ... .. . ... : ... .. . ... ...
ROW DA : ... .. . ... ... ... : ... .. . ... ... ... : ... .. . ... : ... .. . ... : ... .. . ... ...
ROW DB : ... .. . ... ... ... : ... .. 6 P7F ... ... : ... .. . P80 : ... .. . ... : ... .. . ... ...
ROW DC : ... .. 7 ... ... ... : ... .. . ... ... ... : ... .. . ... : ... .. . ... : ... .. . ... ...
ROW DD : ... .. . ... ... ... : ... .. . ... ... ... : ... .. . ... : ... .. . ... : ... .. . ... ...
ROW DE : ... .. . ... ... ... : ... .. . ... ... ... : ... .. . ... : ... .. . ... : ... .. . ... ...
ROW DF : ... .. . ... ... ... : ... .. . P81 ... ... : ... .. . P7E : ... .. . ... : ... .. . ... ...
ROW E0 : ... .. 6 P7F ... ... : A-3 00 7 P7F ... ... : F-2 00 . P80 : ... .. . ... : ... .. . ... ...
ROW E1 : ... .. . ... ... ... : ... .. . ... ... ... : ... .. . ... : ... .. . ... : ... .. . ... ...
ROW E2 : ... .. . ... ... ... : ... .. 8 ... ... ... : ... .. . ... : ... .. . ... : ... .. . ... ...
ROW E3 : ... .. . ... ... ... : ... .. . ... ... ... : ... .. . ... : ... .. . ... : ... .. . ... ...
ROW E4 : ... .. . P81 ... ... : ... .. 9 ... ... ... : ... .. . ... : ... .. . ... : ... .. . ... ...
ROW E5 : A-3 00 7 P7F ... ... : ... .. . ... ... ... : ... .. . ... : ... .. . ... : ... .. . ... ...
ROW E6 : ... .. . ... ... ... : ... .. . ... ... ... : ... .. . ... : ... .. . ... : ... .. . ... ...
ROW E7 : ... .. 8 ... ... ... : ... .. 8 ... ... ... : ... .. . ... : ... .. . ... : ... .. . ... ...
ROW E8 : ... .. . ... ... ... : ... .. . ... ... ... : ... .. . ... : ... .. . ... : ... .. . ... ...
ROW E9 : ... .. 9 ... ... ... : ... .. . ... ... ... : ... .. . ... : ... .. . ... : ... .. . ... ...
ROW EA : ... .. . ... ... ... : G-3 00 7 ... ... ... : ... .. . ... : ... .. . ... : ... .. . ... ...
ROW EB : ... .. . ... ... ... : ... .. . ... ... ... : ... .. . ... : ... .. . ... : ... .. . ... ...
ROW EC : ... .. 8 ... ... ... : ... .. 8 ... ... ... : ... .. . ... : ... .. . ... : ... .. . ... ...
ROW ED : ... .. . ... ... ... : ... .. . ... ... ... : ... .. . ... : ... .. . ... : ... .. . ... ...
ROW EE : ... .. . ... ... ... : ... .. 9 ... ... ... : ... .. . ... : ... .. . ... : ... .. . ... ...
ROW EF : G-3 00 7 ... ... ... : ... .. . ... ... ... : ... .. . P7F : ... .. . ... : ... .. . ... ...
ROW F0 : ... .. . ... ... ... : ... .. . ... ... ... : ... .. . ... : ... .. . ... : ... .. . ... ...
ROW F1 : ... .. 8 ... ... ... : ... .. 8 ... ... ... : ... .. . ... : ... .. . ... : ... .. . ... ...
ROW F2 : ... .. . ... ... ... : ... .. . ... ... ... : ... .. . ... : ... .. . ... : ... .. . ... ...
ROW F3 : ... .. 9 ... ... ... : ... .. . ... ... ... : ... .. . P81 : ... .. . ... : ... .. . ... ...
ROW F4 : ... .. . ... ... ... : A-3 00 7 ... ... ... : ... .. . ... : ... .. . ... : ... .. . ... ...
ROW F5 : ... .. . ... ... ... : ... .. . ... ... ... : ... .. . ... : ... .. . ... : ... .. . ... ...
ROW F6 : ... .. 8 ... ... ... : ... .. 8 ... ... ... : ... .. . ... : ... .. . ... : ... .. . ... ...
ROW F7 : ... .. . ... ... ... : ... .. . ... ... ... : ... .. . P7F : ... .. . ... : ... .. . ... ...
ROW F8 : ... .. . ... ... ... : ... .. 9 ... ... ... : ... .. . ... : ... .. . ... : ... .. . ... ...
ROW F9 : A-3 00 7 ... ... ... : ... .. . ... ... ... : ... .. . ... : ... .. . ... : ... .. . ... ...
ROW FA : ... .. . ... ... ... : ... .. . ... ... ... : ... .. . ... : ... .. . ... : ... .. . ... ...
ROW FB : ... .. 8 ... ... ... : ... .. 8 ... ... ... : ... .. . P81 : ... .. . ... : ... .. . ... ...
ROW FC : ... .. . ... ... ... : ... .. . ... ... ... : ... .. . ... : ... .. . ... : ... .. . ... ...
ROW FD : ... .. 9 ... ... ... : ... .. . ... ... ... : ... .. . ... : ... .. . ... : ... .. . ... ...
ROW FE : ... .. . ... ... ... : ... .. . ... ... ... : ... .. . ... : ... .. . ... : ... .. . ... ...
ROW FF : ... .. . ... ... ... : ... .. 7 ... ... ... : ... .. . P7F : ... .. . ... : ... .. . ... ...

PATTERN 02
ROW 00 : ... .. 8 ... ... ... : ... .. . ... ... ... : ... .. . ... : ... .. . ... : ... .. . ... ...
ROW 01 : ... .. . ... ... ... : ... .. . ... ... ... : ... .. . ... : ... .. . ... : ... .. . ... ...
ROW 02 : ... .. . ... ... ... : ... .. . ... ... ... : ... .. . ... : ... .. . ... : ... .. . ... ...
ROW 03 : ... .. . ... ... ... : ... .. 6 P7E ... ... : ... .. . P81 : ... .. . ... : ... .. . ... ...
ROW 04 : ... .. 7 ... ... ... : ... .. . ... ... ... : ... .. . ... : ... .. . ... : ... .. . ... ...
ROW 05 : ... .. . ... ... ... : ... .. . ... ... ... : ... .. . ... : ... .. . ... : ... .. . ... ...
ROW 06 : ... .. . ... ... ... : ... .. . ... ... ... : ... .. . ... : ... .. . ... : ... .. . ... ...
ROW 07 : ... .. . ... ... ... : ... .. . P80 ... ... : ... .. . P7F : ... .. . ... : ... .. . ... ...
ROW 08 : ... .. 6 P7E ... ... : ... .. . ... ... ... : C-3 00 . P80 : ... .. . ... : ... .. . ... ...
ROW 09 : ... .. . ... ... ... : ... .. . ... ... ... : ... .. . ... : ... .. . ... : ... .. . ... ...
ROW 0A : ... .. . ... ... ... : ... .. . ... ... ... : ... .. . ... : ... .. . ... : ... .. . ... ...
ROW 0B : ... .. . ... ... ... : ... .. 5 P7E ... ... : ... .. . ... : ... .. . ... : ... .. . ... ...
ROW 0C : ... .. . P80 ... ... : ... .. . ... ... ... : ... .. . ... : ... .. . ... : ... .. . ... ...
ROW 0D : ... .. . ... ... ... : ... .. . ... ... ... : ... .. . ... : ... .. . ... : ... .. . ... ...
ROW 0E : ... .. . ... ... ... : ... .. . ... ... ... : ... .. . ... : ... .. . ... : ... .. . ... ...
ROW 0F : ... .. . ... ... ... : ... .. . P80 ... ... : ... .. . ... : ... .. . ... : ... .. . ... ...
ROW 10 : ... .. 5 P7E ... ... : ... .. 4 ... ... ... : ... .. . ... : ... .. . ... : ... .. . ... ...
ROW 11 : ... .. . ... ... ... : ... .. . ... ... ... : ... .. . ... : ... .. . ... : ... .. . ... ...
ROW 12 : ... .. . ... ... ... : ... .. . ... ... ... : ... .. . ... : ... .. . ... : ... .. . ... ...
ROW 13 : ... .. . ... ... ... : ... .. . P7E ... ... : ... .. . ... : ... .. . ... : ... .. . ... ...
ROW 14 : ... .. . P80 ... ... : ... .. . ... ... ... : ... .. . ... : ... .. . ... : ... .. . ... ...
ROW 15 : ... .. 4 ... ... ... : ... .. . ... ... ... : ... .. . ... : ... .. . ... : ... .. . ... ...
ROW 16 : ... .. . ... ... ... : ... .. . ... ... ... : ... .. . ... : ... .. . ... : ... .. . ... ...
ROW 17 : ... .. . ... ... ... : ... .. . P80 ... ... : ... .. . P7F : ... .. . ... : ... .. . ... ...
ROW 18 : ... .. . P7E ... ... : ... .. . ... ... ... : ... .. . ... : ... .. . ... : ... .. . ... ...
ROW 19 : ... .. . ... ... ... : ... .. . ... ... ... : ... .. . ... : ... .. . ... : ... .. . ... ...
ROW 1A : ... .. . ... ... ... : ... .. . ... ... ... : ... .. . ... : ... .. . ... : ... .. . ... ...
ROW 1B : ... .. . ... ... ... : ... .. . P7E ... ... : ... .. . P81 : ... .. . ... : ... .. . ... ...
ROW 1C : ... .. . P80 ... ... : ... .. . ... ... ... : ... .. . ... : ... .. . ... : ... .. . ... ...
ROW 1D : ... .. . ... ... ... : ... .. . ... ... ... : ... .. . ... : ... .. . ... : ... .. . ... ...
ROW 1E : ... .. . ... ... ... : ... .. . ... ... ... : ... .. . ... : ... .. . ... : ... .. . ... ...
ROW 1F : ... .. . ... ... ... : ... .. . P80 ... ... : ... .. . P7F : ... .. . ... : ... .. . ... ...
ROW 20 : ... .. . P7E ... ... : ... .. . ... ... ... : ... .. . ... : ... .. . ... : ... .. . ... ...
ROW 21 : ... .. . ... ... ... : ... .. . ... ... ... : ... .. . ... : ... .. . ... : ... .. . ... ...
ROW 22 : ... .. . ... ... ... : ... .. . ... ... ... : ... .. . ... : ... .. . ... : ... .. . ... ...
ROW 23 : ... .. . ... ... ... : ... .. . P7E ... ... : ... .. . P81 : ... .. . ... : ... .. . ... ...
ROW 24 : ... .. . P80 ... ... : ... .. . ... ... ... : ... .. . ... : ... .. . ... : ... .. . ... ...
ROW 25 : ... .. . ... ... ... : ... .. . ... ... ... : ... .. . ... : ... .. . ... : ... .. . ... ...
ROW 26 : ... .. . ... ... ... : ... .. . ... ... ... : ... .. . ... : ... .. . ... : ... .. . ... ...
ROW 27 : ... .. . ... ... ... : ... .. . P80 ... ... : ... .. . P7F : ... .. . ... : ... .. . ... ...
ROW 28 : ... .. . P7E ... ... : ... .. . ... ... ... : ... .. . ... : ... .. . ... : ... .. . ... ...
ROW 29 : ... .. . ... ... ... : ... .. . ... ... ... : ... .. . ... : ... .. . ... : ... .. . ... ...
ROW 2A : ... .. . ... ... ... : ... .. . ... ... ... : ... .. . ... : ... .. . ... : ... .. . ... ...
ROW 2B : ... .. . ... ... ... : ... .. . P7E ... ... : ... .. . P81 : ... .. . ... : ... .. . ... ...
ROW 2C : ... .. . P80 ... ... : ... .. . ... ... ... : ... .. . ... : ... .. . ... : ... .. . ... ...
ROW 2D : ... .. . ... ... ... : ... .. . ... ... ... : ... .. . ... : ... .. . ... : ... .. . ... ...
ROW 2E : ... .. . ... ... ... : ... .. . ... ... ... : ... .. . ... : ... .. . ... : ... .. . ... ...
ROW 2F : ... .. . ... ... ... : ... .. . P80 ... ... : ... .. . P7F : ... .. . ... : ... .. . ... ...
ROW 30 : ... .. . P7E ... ... : ... .. . ... ... ... : F-3 00 . ... : ... .. . ... : ... .. . ... ...
ROW 31 : ... .. . ... ... ... : ... .. . ... ... ... : ... .. . ... : ... .. . ... : ... .. . ... ...
ROW 32 : ... .. . ... ... ... : ... .. . ... ... ... : ... .. . ... : ... .. . ... : ... .. . ... ...
ROW 33 : ... .. . ... ... ... : ... .. . P7E ... ... : ... .. . ... : ... .. . ... : ... .. . ... ...
ROW 34 : ... .. . P80 ... ... : ... .. . ... ... ... : ... .. . ... : ... .. . ... : ... .. . ... ...
ROW 35 : ... .. . ... ... ... : ... .. . ... ... ... : ... .. . ... : ... .. . ... : ... .. . ... ...
ROW 36 : ... .. . ... ... ... : ... .. . ... ... ... : ... .. . ... : ... .. . ... : ... .. . ... ...
ROW 37 : ... .. . ... ... ... : ... .. . P80 ... ... : ... .. . ... : ... .. . ... : ... .. . ... ...
ROW 38 : ... .. . P7E ... ... : ... .. . ... ... ... : ... .. . ... : ... .. . ... : ... .. . ... ...
ROW 39 : ... .. . ... ... ... : ... .. . ... ... ... : ... .. . ... : ... .. . ... : ... .. . ... ...
ROW 3A : ... .. . ... ... ... : ... .. . ... ... ... : ... .. . ... : ... .. . ... : ... .. . ... ...
ROW 3B : ... .. . ... ... ... : ... .. . P7E ... ... : ... .. . ... : ... .. . ... : ... .. . ... ...
ROW 3C : ... .. . P80 ... ... : ... .. . ... ... ... : ... .. . ... : ... .. . ... : ... .. . ... ...
ROW 3D : ... .. . ... ... ... : ... .. . ... ... ... : ... .. . ... : ... .. . ... : ... .. . ... ...
ROW 3E : ... .. . ... ... ... : ... .. . ... ... ... : ... .. . ... : ... .. . ... : ... .. . ... ...
ROW 3F : ... .. . ... ... ... : ... .. . P80 ... ... : ... .. . P7E : ... .. . ... : ... .. . ... ...
ROW 40 : ... .. . P7E ... ... : ... .. . ... ... ... : ... .. . ... : ... .. . ... : ... .. . ... ...
ROW 41 : ... .. . ... ... ... : ... .. . ... ... ... : ... .. . ... : ... .. . ... : ... .. . ... ...
ROW 42 : ... .. . ... ... ... : ... .. . ... ... ... : ... .. . ... : ... .. . ... : ... .. . ... ...
ROW 43 : ... .. . ... ... ... : ... .. . P7E ... ... : ... .. . P80 : ... .. . ... : ... .. . ... ...
ROW 44 : ... .. . P80 ... ... : ... .. . P7F ... ... : ... .. . ... : ... .. . ... : ... .. . ... ...
ROW 45 : ... .. . ... ... ... : ... .. . ... ... ... : ... .. . ... : ... .. . ... : ... .. . ... ...
ROW 46 : ... .. . ... ... ... : ... .. . ... ... ... : ... .. . ... : ... .. . ... : ... .. . ... ...
ROW 47 : ... .. . ... ... ... : ... .. . ... ... ... : ... .. . P7E : ... .. . ... : ... .. . ... ...
ROW 48 : ... .. . P7E ... ... : ... .. . ... ... ... : ... .. . ... : ... .. . ... : ... .. . ... ...
ROW 49 : ... .. . P7F ... ... : ... .. . ... ... ... : ... .. . ... : ... .. . ... : ... .. . ... ...
ROW 4A : ... .. . ... ... ... : ... .. . ... ... ... : ... .. . ... : ... .. . ... : ... .. . ... ...
ROW 4B : ... .. . ... ... ... : ... .. . ... ... ... : ... .. . P80 : ... .. . ... : ... .. . ... ...
ROW 4C : ... .. . ... ... ... : ... .. . ... ... ... : ... .. . ... : ... .. . ... : ... .. . ... ...
ROW 4D : ... .. . ... ... ... : ... .. . ... ... ... : ... .. . ... : ... .. . ... : ... .. . ... ...
ROW 4E : ... .. . ... ... ... : ... .. . ... ... ... : ... .. . ... : ... .. . ... : ... .. . ... ...
ROW 4F : ... .. . ... ... ... : ... .. . ... ... ... : ... .. . P7E : ... .. . ... : ... .. . ... ...
ROW 50 : ... .. . ... ... ... : ... .. . ... ... ... : ... .. . ... : ... .. . ... : ... .. . ... ...
ROW 51 : ... .. . ... ... ... : ... .. . ... ... ... : ... .. . ... : ... .. . ... : ... .. . ... ...
ROW 52 : ... .. . ... ... ... : ... .. . ... ... ... : ... .. . ... : ... .. . ... : ... .. . ... ...
ROW 53 : ... .. . ... ... ... : ... .. . P7E ... ... : ... .. . P80 : ... .. . ... : ... .. . ... ...
ROW 54 : ... .. . ... ... ... : ... .. . ... ... ... : ... .. . ... : ... .. . ... : ... .. . ... ...
ROW 55 : ... .. . ... ... ... : ... .. . ... ... ... : ... .. . ... : ... .. . ... : ... .. . ... ...
ROW 56 : ... .. . ... ... ... : ... .. . ... ... ... : ... .. . ... : ... .. . ... : ... .. . ... ...
ROW 57 : ... .. . ... ... ... : ... .. . P80 ... ... : ... .. . P7E : ... .. . ... : ... .. . ... ...
ROW 58 : ... .. . P7E ... ... : ... .. . ... ... ... : ... .. . ... : ... .. . ... : ... .. . ... ...
ROW 59 : ... .. . ... ... ... : ... .. . ... ... ... : ... .. . ... : ... .. . ... : ... .. . ... ...
ROW 5A : ... .. . ... ... ... : ... .. . ... ... ... : ... .. . ... : ... .. . ... : ... .. . ... ...
ROW 5B : ... .. . ... ... ... : ... .. . P7E ... ... : ... .. . P80 : ... .. . ... : ... .. . ... ...
ROW 5C : ... .. . P80 ... ... : ... .. . ... ... ... : ... .. . ... : ... .. . ... : ... .. . ... ...
ROW 5D : ... .. . ... ... ... : ... .. . ... ... ... : ... .. . ... : ... .. . ... : ... .. . ... ...
ROW 5E : ... .. . ... ... ... : ... .. . ... ... ... : ... .. . ... : ... .. . ... : ... .. . ... ...
ROW 5F : ... .. . ... ... ... : ... .. . P80 ... ... : ... .. . P7E : ... .. . ... : ... .. . ... ...
ROW 60 : ... .. . P7E ... ... : ... .. . ... ... ... : ... .. . ... : ... .. . ... : ... .. . ... ...
ROW 61 : ... .. . ... ... ... : ... .. . ... ... ... : ... .. . ... : ... .. . ... : ... .. . ... ...
ROW 62 : ... .. . ... ... ... : ... .. . ... ... ... : ... .. . ... : ... .. . ... : ... .. . ... ...
ROW 63 : ... .. . ... ... ... : ... .. . P7E ... ... : ... .. . P80 : ... .. . ... : ... .. . ... ...
ROW 64 : ... .. . P80 ... ... : ... .. . ... ... ... : ... .. . ... : ... .. . ... : ... .. . ... ...
ROW 65 : ... .. . ... ... ... : ... .. . ... ... ... : ... .. . ... : ... .. . ... : ... .. . ... ...
ROW 66 : ... .. . ... ... ... : ... .. . ... ... ... : ... .. . ... : ... .. . ... : ... .. . ... ...
ROW 67 : ... .. . ... ... ... : ... .. . P80 ... ... : ... .. . P7E : ... .. . ... : ... .. . ... ...
ROW 68 : ... .. . P7E ... ... : ... .. . ... ... ... : ... .. . ... : ... .. . ... : ... .. . ... ...
ROW 69 : ... .. . ... ... ... : ... .. . ... ... ... : ... .. . ... : ... .. . ... : ... .. . ... ...
ROW 6A : ... .. . ... ... ... : ... .. . ... ... ... : ... .. . ... : ... .. . ... : ... .. . ... ...
ROW 6B : ... .. . ... ... ... : ... .. . P7E ... ... : ... .. . P80 : ... .. . ... : ... .. . ... ...
ROW 6C : ... .. . P80 ... ... : ... .. . ... ... ... : ... .. . ... : ... .. . ... : ... .. . ... ...
ROW 6D : ... .. . ... ... ... : ... .. . ... ... ... : ... .. . ... : ... .. . ... : ... .. . ... ...
ROW 6E : ... .. . ... ... ... : ... .. . ... ... ... : ... .. . ... : ... .. . ... : ... .. . ... ...
ROW 6F : ... .. . ... ... ... : ... .. . P80 ... ... : ... .. . P7E : ... .. . ... : ... .. . ... ...
ROW 70 : ... .. . P7E ... ... : ... .. . ... ... ... : ... .. . ... : ... .. . ... : ... .. . ... ...
ROW 71 : ... .. . ... ... ... : ... .. . ... ... ... : ... .. . ... : ... .. . ... : ... .. . ... ...
ROW 72 : ... .. . ... ... ... : ... .. . ... ... ... : ... .. . ... : ... .. . ... : ... .. . ... ...
ROW 73 : ... .. . ... ... ... : ... .. 0 P7E ... ... : ... .. . P80 : ... .. . ... : ... .. . ... ...
ROW 74 : ... .. . P80 ... ... : ... .. . ... ... ... : ... .. . ... : ... .. . ... : ... .. . ... ...
ROW 75 : ... .. . ... ... ... : ... .. . ... ... ... : ... .. . ... : ... .. . ... : ... .. . ... ...
ROW 76 : ... .. . ... ... ... : ... .. . ... ... ... : ... .. . ... : ... .. . ... : ... .. . ... ...
ROW 77 : ... .. . ... ... ... : ... .. . P80 ... ... : ... .. . P7E : ... .. . ... : ... .. . ... ...
ROW 78 : ... .. 0 P7E ... ... : ... .. . ... ... ... : ... .. . ... : ... .. . ... : ... .. . ... ...
ROW 79 : ... .. . ... ... ... : ... .. . ... ... ... : ... .. . ... : ... .. . ... : ... .. . ... ...
ROW 7A : ... .. . ... ... ... : ... .. . ... ... ... : ... .. . ... : ... .. . ... : ... .. . ... ...
ROW 7B : ... .. . ... ... ... : ... .. . P7E ... ... : ... .. . P80 : ... .. . ... : ... .. . ... ...
ROW 7C : ... .. . P80 ... ... : ... .. . ... ... ... : ... .. . ... : ... .. . ... : ... .. . ... ...
ROW 7D : ... .. . ... ... ... : ... .. . ... ... ... : ... .. . ... : ... .. . ... : ... .. . ... ...
ROW 7E : ... .. . ... ... ... : ... .. . ... ... ... : ... .. . ... : ... .. . ... : ... .. . ... ...
ROW 7F : ... .. . ... ... ... : ... .. . P80 ... ... : ... .. . P7E : ... .. . ... : ... .. . ... ...
ROW 80 : F-2 00 4 ... ... ... : C#2 00 4 P7F ... ... : A#2 00 . P80 : C-# 00 C ... : ... .. . ... ...
ROW 81 : ... .. 5 ... ... ... : ... .. 5 ... ... ... : ... .. . ... : ... .. 0 ... : ... .. . ... ...
ROW 82 : ... .. 6 ... ... ... : ... .. 6 ... ... ... : ... .. . ... : ... .. . ... : ... .. . ... ...
ROW 83 : ... .. . ... ... ... : ... .. . ... ... ... : ... .. . ... : ... .. . ... : ... .. . ... ...
ROW 84 : ... .. 7 ... ... ... : ... .. 7 ... ... ... : ... .. . ... : ... .. . ... : ... .. . ... ...
ROW 85 : ... .. . ... ... ... : ... .. . ... ... ... : ... .. . ... : ... .. . ... : ... .. . ... ...
ROW 86 : ... .. . ... ... ... : ... .. . ... ... ... : ... .. . ... : ... .. . ... : ... .. . ... ...
ROW 87 : ... .. 6 ... ... ... : ... .. 6 ... ... ... : ... .. . ... : ... .. . ... : ... .. . ... ...
ROW 88 : ... .. . ... ... ... : ... .. . ... ... ... : --- .. . ... : ... .. . ... : ... .. . ... ...
ROW 89 : ... .. . ... ... ... : ... .. . ... ... ... : ... .. . ... : ... .. . ... : ... .. . ... ...
ROW 8A : ... .. . ... ... ... : ... .. . ... ... ... : ... .. . ... : ... .. . ... : ... .. . ... ...
ROW 8B : ... .. 5 ... ... ... : ... .. 5 ... ... ... : ... .. . ... : ... .. . ... : ... .. . ... ...
ROW 8C : ... .. . ... ... ... : ... .. . ... ... ... : ... .. . ... : ... .. . ... : ... .. . ... ...
ROW 8D : ... .. . ... ... ... : ... .. . ... ... ... : ... .. . ... : ... .. . ... : ... .. . ... ...
ROW 8E : ... .. . ... ... ... : ... .. . ... ... ... : ... .. . ... : ... .. . ... : ... .. . ... ...
ROW 8F : ... .. 4 P7F ... ... : ... .. 4 P7E ... ... : ... .. . P7F : ... .. . ... : ... .. . ... ...
ROW 90 : ... .. . ... ... ... : ... .. . ... ... ... : ... .. . ... : ... .. . ... : ... .. . ... ...
ROW 91 : ... .. . ... ... ... : ... .. . ... ... ... : ... .. . ... : ... .. . ... : ... .. . ... ...
ROW 92 : ... .. . ... ... ... : ... .. . ... ... ... : ... .. . ... : ... .. . ... : ... .. . ... ...
ROW 93 : ... .. . P81 ... ... : ... .. . P80 ... ... : ... .. . P81 : ... .. . ... : ... .. . ... ...
ROW 94 : ... .. . P80 ... ... : ... .. . ... ... ... : A#2 00 . P80 : ... .. C ... : ... .. . ... ...
ROW 95 : ... .. 5 ... ... ... : ... .. . ... ... ... : ... .. . ... : ... .. 0 ... : ... .. . ... ...
ROW 96 : ... .. 6 ... ... ... : ... .. . ... ... ... : ... .. . ... : ... .. . ... : ... .. . ... ...
ROW 97 : ... .. . ... ... ... : ... .. . P7E ... ... : ... .. . ... : ... .. . ... : ... .. . ... ...
ROW 98 : ... .. 7 ... ... ... : ... .. . ... ... ... : ... .. . ... : ... .. . ... : ... .. . ... ...
ROW 99 : ... .. . ... ... ... : ... .. 3 ... ... ... : ... .. . ... : ... .. . ... : ... .. . ... ...
ROW 9A : ... .. . ... ... ... : ... .. . ... ... ... : ... .. . ... : ... .. . ... : ... .. . ... ...
ROW 9B : ... .. 6 ... ... ... : ... .. . P80 ... ... : ... .. . ... : ... .. . ... : ... .. . ... ...
ROW 9C : ... .. . ... ... ... : ... .. . ... ... ... : --- .. . ... : ... .. . ... : ... .. . ... ...
ROW 9D : ... .. . ... ... ... : ... .. . ... ... ... : ... .. . ... : ... .. . ... : ... .. . ... ...
ROW 9E : A#1 00 4 ... ... ... : ... .. 2 ... ... ... : A#2 00 . ... : ... .. C ... : ... .. . ... ...
ROW 9F : ... .. 5 ... ... ... : ... .. . P7E ... ... : ... .. . ... : ... .. 0 ... : ... .. . ... ...
ROW A0 : ... .. 6 ... ... ... : ... .. 0 ... ... ... : ... .. . ... : ... .. . ... : ... .. . ... ...
ROW A1 : ... .. . ... ... ... : ... .. . ... ... ... : ... .. . ... : ... .. . ... : ... .. . ... ...
ROW A2 : ... .. 7 ... ... ... : ... .. . ... ... ... : ... .. . ... : ... .. . ... : ... .. . ... ...
ROW A3 : ... .. . ... ... ... : ... .. . P80 ... ... : ... .. . ... : ... .. . ... : ... .. . ... ...
ROW A4 : ... .. . ... ... ... : ... .. . ... ... ... : ... .. . ... : ... .. . ... : ... .. . ... ...
ROW A5 : ... .. 6 ... ... ... : ... .. . ... ... ... : ... .. . ... : ... .. . ... : ... .. . ... ...
ROW A6 : ... .. . ... ... ... : ... .. . ... ... ... : --- .. . ... : ... .. . ... : ... .. . ... ...
ROW A7 : ... .. . ... ... ... : ... .. . P7E ... ... : ... .. . ... : ... .. . ... : ... .. . ... ...
ROW A8 : F-2 00 4 ... ... ... : ... .. . ... ... ... : A#2 00 . ... : ... .. C ... : ... .. . ... ...
ROW A9 : ... .. 5 ... ... ... : ... .. . ... ... ... : ... .. . ... : ... .. 0 ... : ... .. . ... ...
ROW AA : ... .. 6 ... ... ... : ... .. . ... ... ... : ... .. . ... : ... .. . ... : ... .. . ... ...
ROW AB : ... .. . ... ... ... : ... .. . P80 ... ... : ... .. . ... : ... .. . ... : ... .. . ... ...
ROW AC : ... .. 7 ... ... ... : ... .. . ... ... ... : ... .. . ... : ... .. . ... : ... .. . ... ...
ROW AD : ... .. . ... ... ... : ... .. . ... ... ... : ... .. . ... : ... .. . ... : ... .. . ... ...
ROW AE : ... .. . ... ... ... : ... .. . ... ... ... : ... .. . ... : ... .. . ... : ... .. . ... ...
ROW AF : ... .. 6 ... ... ... : ... .. . P7E ... ... : ... .. . ... : ... .. . ... : ... .. . ... ...
ROW B0 : ... .. . ... ... ... : ... .. . ... ... ... : --- .. . ... : ... .. . ... : ... .. . ... ...
ROW B1 : ... .. . ... ... ... : ... .. . ... ... ... : ... .. . ... : ... .. . ... : ... .. . ... ...
ROW B2 : ... .. . ... ... ... : ... .. . ... ... ... : ... .. . ... : ... .. . ... : ... .. . ... ...
ROW B3 : ... .. 5 ... ... ... : ... .. . P80 ... ... : ... .. . ... : ... .. . ... : ... .. . ... ...
ROW B4 : ... .. . ... ... ... : ... .. . ... ... ... : ... .. . ... : ... .. . ... : ... .. . ... ...
ROW B5 : ... .. . ... ... ... : ... .. . ... ... ... : ... .. . ... : ... .. . ... : ... .. . ... ...
ROW B6 : ... .. . ... ... ... : ... .. . ... ... ... : ... .. . ... : ... .. . ... : ... .. . ... ...
ROW B7 : ... .. 4 P7F ... ... : ... .. . P7E ... ... : ... .. . P7F : ... .. . ... : ... .. . ... ...
ROW B8 : ... .. . ... ... ... : ... .. . ... ... ... : ... .. . ... : ... .. . ... : ... .. . ... ...
ROW B9 : ... .. . ... ... ... : ... .. . ... ... ... : ... .. . ... : ... .. . ... : ... .. . ... ...
ROW BA : ... .. . ... ... ... : ... .. . ... ... ... : ... .. . ... : ... .. . ... : ... .. . ... ...
ROW BB : ... .. . P81 ... ... : ... .. . P80 ... ... : ... .. . P81 : ... .. . ... : ... .. . ... ...
ROW BC : ... .. . P80 ... ... : ... .. . ... ... ... : A#2 00 . P80 : ... .. C ... : ... .. . ... ...
ROW BD : ... .. 5 ... ... ... : ... .. . ... ... ... : ... .. . ... : ... .. 0 ... : ... .. . ... ...
ROW BE : ... .. 6 ... ... ... : ... .. . ... ... ... : ... .. . ... : ... .. . ... : ... .. . ... ...
ROW BF : ... .. . ... ... ... : ... .. . P7E ... ... : ... .. . ... : ... .. . ... : ... .. . ... ...
ROW C0 : ... .. 7 ... ... ... : ... .. . ... ... ... : ... .. . ... : ... .. . ... : ... .. . ... ...
ROW C1 : ... .. . ... ... ... : ... .. . ... ... ... : ... .. . ... : ... .. . ... : ... .. . ... ...
ROW C2 : ... .. . ... ... ... : ... .. . ... ... ... : ... .. . ... : ... .. . ... : ... .. . ... ...
ROW C3 : ... .. 6 ... ... ... : ... .. . P80 ... ... : ... .. . ... : ... .. . ... : ... .. . ... ...
ROW C4 : ... .. . ... ... ... : ... .. . ... ... ... : --- .. . ... : ... .. . ... : ... .. . ... ...
ROW C5 : ... .. . ... ... ... : ... .. . ... ... ... : ... .. . ... : ... .. . ... : ... .. . ... ...
ROW C6 : A#1 00 4 ... ... ... : ... .. . ... ... ... : A#2 00 . ... : ... .. C ... : ... .. . ... ...
ROW C7 : ... .. 5 ... ... ... : ... .. . P7E ... ... : ... .. . ... : ... .. 0 ... : ... .. . ... ...
ROW C8 : ... .. 6 ... ... ... : ... .. . ... ... ... : ... .. . ... : ... .. . ... : ... .. . ... ...
ROW C9 : ... .. . ... ... ... : ... .. . ... ... ... : ... .. . ... : ... .. . ... : ... .. . ... ...
ROW CA : ... .. 7 ... ... ... : ... .. . ... ... ... : ... .. . ... : ... .. . ... : ... .. . ... ...
ROW CB : ... .. . ... ... ... : ... .. . P80 ... ... : ... .. . ... : ... .. . ... : ... .. . ... ...
ROW CC : ... .. . ... ... ... : ... .. . ... ... ... : ... .. . ... : ... .. . ... : ... .. . ... ...
ROW CD : ... .. 6 ... ... ... : ... .. . ... ... ... : ... .. . ... : ... .. . ... : ... .. . ... ...
ROW CE : ... .. . ... ... ... : ... .. . ... ... ... : --- .. . ... : ... .. . ... : ... .. . ... ...
ROW CF : ... .. . ... ... ... : ... .. . P7E ... ... : ... .. . ... : ... .. . ... : ... .. . ... ...
ROW D0 : F-2 00 4 ... ... ... : ... .. . P7F ... ... : A#2 00 . ... : ... .. C ... : ... .. . ... ...
ROW D1 : ... .. 5 ... ... ... : ... .. . ... ... ... : ... .. . ... : ... .. 0 ... : ... .. . ... ...
ROW D2 : ... .. 6 ... ... ... : ... .. . ... ... ... : ... .. . ... : ... .. . ... : ... .. . ... ...
ROW D3 : ... .. . ... ... ... : ... .. . ... ... ... : ... .. . ... : ... .. . ... : ... .. . ... ...
ROW D4 : ... .. 7 ... ... ... : ... .. . ... ... ... : ... .. . ... : ... .. . ... : ... .. . ... ...
ROW D5 : ... .. . ... ... ... : ... .. . ... ... ... : ... .. . ... : ... .. . ... : ... .. . ... ...
ROW D6 : ... .. . ... ... ... : ... .. . ... ... ... : ... .. . ... : ... .. . ... : ... .. . ... ...
ROW D7 : ... .. 6 ... ... ... : ... .. . ... ... ... : ... .. . ... : ... .. . ... : ... .. . ... ...
ROW D8 : ... .. . ... ... ... : ... .. . ... ... ... : --- .. . ... : ... .. . ... : ... .. . ... ...
ROW D9 : ... .. . ... ... ... : ... .. . ... ... ... : ... .. . ... : ... .. . ... : ... .. . ... ...
ROW DA : ... .. . ... ... ... : ... .. . ... ... ... : ... .. . ... : ... .. . ... : ... .. . ... ...
ROW DB : ... .. 5 ... ... ... : ... .. . ... ... ... : ... .. . ... : ... .. . ... : ... .. . ... ...
ROW DC : ... .. . ... ... ... : ... .. . ... ... ... : ... .. . ... : ... .. . ... : ... .. . ... ...
ROW DD : ... .. . ... ... ... : ... .. . ... ... ... : ... .. . ... : ... .. . ... : ... .. . ... ...
ROW DE : ... .. . ... ... ... : ... .. . ... ... ... : ... .. . ... : ... .. . ... : ... .. . ... ...
ROW DF : ... .. 4 P7F ... ... : ... .. . P7E ... ... : ... .. . P7F : ... .. . ... : ... .. . ... ...
ROW E0 : ... .. . ... ... ... : ... .. . ... ... ... : ... .. . ... : ... .. . ... : ... .. . ... ...
ROW E1 : ... .. . ... ... ... : ... .. . ... ... ... : ... .. . ... : ... .. . ... : ... .. . ... ...
ROW E2 : ... .. . ... ... ... : ... .. . ... ... ... : ... .. . ... : ... .. . ... : ... .. . ... ...
ROW E3 : ... .. . P81 ... ... : ... .. . P80 ... ... : ... .. . P81 : ... .. . ... : ... .. . ... ...
ROW E4 : ... .. . P80 ... ... : ... .. . ... ... ... : A#2 00 . P80 : ... .. C ... : ... .. . ... ...
ROW E5 : ... .. 5 ... ... ... : ... .. . ... ... ... : ... .. . ... : ... .. 0 ... : ... .. . ... ...
ROW E6 : ... .. 6 ... ... ... : ... .. . ... ... ... : ... .. . ... : ... .. . ... : ... .. . ... ...
ROW E7 : ... .. . ... ... ... : ... .. . P7E ... ... : ... .. . ... : ... .. . ... : ... .. . ... ...
ROW E8 : ... .. 7 ... ... ... : ... .. . ... ... ... : ... .. . ... : ... .. . ... : ... .. . ... ...
ROW E9 : ... .. . ... ... ... : ... .. . ... ... ... : ... .. . ... : ... .. . ... : ... .. . ... ...
ROW EA : ... .. . ... ... ... : ... .. . ... ... ... : ... .. . ... : ... .. . ... : ... .. . ... ...
ROW EB : ... .. 6 ... ... ... : ... .. . P80 ... ... : ... .. . ... : ... .. . ... : ... .. . ... ...
ROW EC : ... .. . ... ... ... : ... .. . ... ... ... : --- .. . ... : ... .. . ... : ... .. . ... ...
ROW ED : ... .. . ... ... ... : ... .. . ... ... ... : ... .. . ... : ... .. . ... : ... .. . ... ...
ROW EE : A#1 00 4 ... ... ... : ... .. . ... ... ... : A#2 00 . ... : ... .. C ... : ... .. . ... ...
ROW EF : ... .. 5 ... ... ... : ... .. . P7E ... ... : ... .. . ... : ... .. 0 ... : ... .. . ... ...
ROW F0 : ... .. 6 ... ... ... : ... .. . ... ... ... : ... .. . ... : ... .. . ... : ... .. . ... ...
ROW F1 : ... .. . ... ... ... : ... .. . ... ... ... : ... .. . ... : ... .. . ... : ... .. . ... ...
ROW F2 : ... .. 7 ... ... ... : ... .. . ... ... ... : ... .. . ... : ... .. . ... : ... .. . ... ...
ROW F3 : ... .. . ... ... ... : ... .. . P80 ... ... : ... .. . ... : ... .. . ... : ... .. . ... ...
ROW F4 : ... .. . ... ... ... : ... .. . ... ... ... : ... .. . ... : ... .. . ... : ... .. . ... ...
ROW F5 : ... .. 6 ... ... ... : ... .. . ... ... ... : ... .. . ... : ... .. . ... : ... .. . ... ...
ROW F6 : ... .. . ... ... ... : ... .. . ... ... ... : --- .. . ... : ... .. . ... : ... .. . ... ...
ROW F7 : ... .. . ... ... ... : ... .. . P7E ... ... : ... .. . ... : ... .. . ... : ... .. . ... ...
ROW F8 : F-2 00 4 ... ... ... : ... .. . ... ... ... : A#2 00 . ... : ... .. C ... : ... .. . ... ...
ROW F9 : ... .. 5 ... ... ... : ... .. . ... ... ... : ... .. . ... : ... .. 0 ... : ... .. . ... ...
ROW FA : ... .. 6 ... ... ... : ... .. . ... ... ... : ... .. . ... : ... .. . ... : ... .. . ... ...
ROW FB : ... .. . ... ... ... : ... .. . P80 ... ... : ... .. . ... : ... .. . ... : ... .. . ... ...
ROW FC : ... .. 7 ... ... ... : ... .. . ... ... ... : ... .. . ... : ... .. . ... : ... .. . ... ...
ROW FD : ... .. . ... ... ... : ... .. . ... ... ... : ... .. . ... : ... .. . ... : ... .. . ... ...
ROW FE : ... .. . ... ... ... : ... .. . ... ... ... : ... .. . ... : ... .. . ... : ... .. . ... ...
ROW FF : ... .. 6 ... ... ... : ... .. . P7E ... ... : ... .. . ... : ... .. . ... : ... .. . ... ...

PATTERN 03
ROW 00 : ... .. . ... ... ... : ... .. . ... ... ... : --- .. . ... : ... .. . ... : ... .. . ... ...
ROW 01 : ... .. . ... ... ... : ... .. . ... ... ... : ... .. . ... : ... .. . ... : ... .. . ... ...
ROW 02 : A#1 00 4 ... ... ... : ... .. . ... ... ... : ... .. . ... : ... .. . ... : ... .. . ... ...
ROW 03 : ... .. 5 ... ... ... : ... .. . P80 ... ... : ... .. . ... : ... .. . ... : ... .. . ... ...
ROW 04 : ... .. 6 ... ... ... : ... .. . ... ... ... : ... .. . ... : ... .. . ... : ... .. . ... ...
ROW 05 : ... .. . ... ... ... : ... .. . ... ... ... : ... .. . ... : ... .. . ... : ... .. . ... ...
ROW 06 : ... .. 7 ... ... ... : ... .. . ... ... ... : ... .. . ... : ... .. . ... : ... .. . ... ...
ROW 07 : ... .. . ... ... ... : ... .. . P7E ... ... : ... .. . P7F : ... .. . ... : ... .. . ... ...
ROW 08 : ... .. . ... ... ... : ... .. . ... ... ... : ... .. . ... : ... .. . ... : ... .. . ... ...
ROW 09 : ... .. 6 ... ... ... : ... .. . ... ... ... : ... .. . ... : ... .. . ... : ... .. . ... ...
ROW 0A : ... .. . ... ... ... : ... .. . ... ... ... : ... .. . ... : ... .. . ... : ... .. . ... ...
ROW 0B : ... .. . ... ... ... : ... .. . P80 ... ... : ... .. . P81 : ... .. . ... : ... .. . ... ...
ROW 0C : F-2 00 4 ... ... ... : ... .. . ... ... ... : A#2 00 . P80 : ... .. C ... : ... .. . ... ...
ROW 0D : ... .. 5 ... ... ... : ... .. . ... ... ... : ... .. . ... : ... .. 0 ... : ... .. . ... ...
ROW 0E : ... .. 6 ... ... ... : ... .. . ... ... ... : ... .. . ... : ... .. . ... : ... .. . ... ...
ROW 0F : ... .. . ... ... ... : ... .. . P7E ... ... : ... .. . ... : ... .. . ... : ... .. . ... ...
ROW 10 : ... .. 7 ... ... ... : ... .. . ... ... ... : ... .. . ... : ... .. . ... : ... .. . ... ...
ROW 11 : ... .. . ... ... ... : ... .. . ... ... ... : ... .. . ... : ... .. . ... : ... .. . ... ...
ROW 12 : ... .. . ... ... ... : ... .. . ... ... ... : ... .. . ... : ... .. . ... : ... .. . ... ...
ROW 13 : ... .. 6 ... ... ... : ... .. . P80 ... ... : ... .. . ... : ... .. . ... : ... .. . ... ...
ROW 14 : ... .. . ... ... ... : ... .. . ... ... ... : --- .. . ... : ... .. . ... : ... .. . ... ...
ROW 15 : ... .. . ... ... ... : ... .. . ... ... ... : ... .. . ... : ... .. . ... : ... .. . ... ...
ROW 16 : A#1 00 4 ... ... ... : ... .. . ... ... ... : A#2 00 . ... : ... .. C ... : ... .. . ... ...
ROW 17 : ... .. 5 ... ... ... : ... .. . P7E ... ... : ... .. . ... : ... .. 0 ... : ... .. . ... ...
ROW 18 : ... .. 6 ... ... ... : ... .. . ... ... ... : ... .. . ... : ... .. . ... : ... .. . ... ...
ROW 19 : ... .. . ... ... ... : ... .. . ... ... ... : ... .. . ... : ... .. . ... : ... .. . ... ...
ROW 1A : ... .. 7 ... ... ... : ... .. . ... ... ... : ... .. . ... : ... .. . ... : ... .. . ... ...
ROW 1B : ... .. . ... ... ... : ... .. . P80 ... ... : ... .. . ... : ... .. . ... : ... .. . ... ...
ROW 1C : ... .. . ... ... ... : ... .. . ... ... ... : ... .. . ... : ... .. . ... : ... .. . ... ...
ROW 1D : ... .. 6 ... ... ... : ... .. . ... ... ... : ... .. . ... : ... .. . ... : ... .. . ... ...
ROW 1E : ... .. . ... ... ... : ... .. . ... ... ... : --- .. . ... : ... .. . ... : ... .. . ... ...
ROW 1F : ... .. . ... ... ... : ... .. . P7E ... ... : ... .. . ... : ... .. . ... : ... .. . ... ...
ROW 20 : F-2 00 4 ... ... ... : ... .. 4 P7F ... ... : A#2 00 . ... : ... .. C ... : ... .. . ... ...
ROW 21 : ... .. 5 ... ... ... : ... .. 5 ... ... ... : ... .. . ... : ... .. 0 ... : ... .. . ... ...
ROW 22 : ... .. 6 ... ... ... : ... .. 6 ... ... ... : ... .. . ... : ... .. . ... : ... .. . ... ...
ROW 23 : ... .. . ... ... ... : ... .. . ... ... ... : ... .. . ... : ... .. . ... : ... .. . ... ...
ROW 24 : ... .. 7 ... ... ... : ... .. 7 ... ... ... : ... .. . ... : ... .. . ... : ... .. . ... ...
ROW 25 : ... .. . ... ... ... : ... .. . ... ... ... : ... .. . ... : ... .. . ... : ... .. . ... ...
ROW 26 : ... .. . ... ... ... : ... .. . ... ... ... : ... .. . ... : ... .. . ... : ... .. . ... ...
ROW 27 : ... .. 6 ... ... ... : ... .. 6 ... ... ... : ... .. . ... : ... .. . ... : ... .. . ... ...
ROW 28 : ... .. . ... ... ... : ... .. . ... ... ... : --- .. . ... : ... .. . ... : ... .. . ... ...
ROW 29 : ... .. . ... ... ... : ... .. . ... ... ... : ... .. . ... : ... .. . ... : ... .. . ... ...
ROW 2A : ... .. . ... ... ... : ... .. . ... ... ... : ... .. . ... : ... .. . ... : ... .. . ... ...
ROW 2B : ... .. 5 ... ... ... : ... .. 5 ... ... ... : ... .. . ... : ... .. . ... : ... .. . ... ...
ROW 2C : ... .. . ... ... ... : ... .. . ... ... ... : ... .. . ... : ... .. . ... : ... .. . ... ...
ROW 2D : ... .. . ... ... ... : ... .. . ... ... ... : ... .. . ... : ... .. . ... : ... .. . ... ...
ROW 2E : ... .. . ... ... ... : ... .. . ... ... ... : ... .. . ... : ... .. . ... : ... .. . ... ...
ROW 2F : ... .. 4 P7F ... ... : ... .. 4 P7E ... ... : ... .. . P7F : ... .. . ... : ... .. . ... ...
ROW 30 : ... .. . ... ... ... : ... .. . ... ... ... : ... .. . ... : ... .. . ... : ... .. . ... ...
ROW 31 : ... .. . ... ... ... : ... .. . ... ... ... : ... .. . ... : ... .. . ... : ... .. . ... ...
ROW 32 : ... .. . ... ... ... : ... .. . ... ... ... : ... .. . ... : ... .. . ... : ... .. . ... ...
ROW 33 : ... .. . P81 ... ... : ... .. . P80 ... ... : ... .. . P81 : ... .. . ... : ... .. . ... ...
ROW 34 : ... .. . P80 ... ... : ... .. . ... ... ... : A#2 00 . P80 : ... .. C ... : ... .. . ... ...
ROW 35 : ... .. 5 ... ... ... : ... .. . ... ... ... : ... .. . ... : ... .. 0 ... : ... .. . ... ...
ROW 36 : ... .. 6 ... ... ... : ... .. . ... ... ... : ... .. . ... : ... .. . ... : ... .. . ... ...
ROW 37 : ... .. . ... ... ... : ... .. . P7E ... ... : ... .. . ... : ... .. . ... : ... .. . ... ...
ROW 38 : ... .. 7 ... ... ... : ... .. . ... ... ... : ... .. . ... : ... .. . ... : ... .. . ... ...
ROW 39 : ... .. . ... ... ... : ... .. 3 ... ... ... : ... .. . ... : ... .. . ... : ... .. . ... ...
ROW 3A : ... .. . ... ... ... : ... .. . ... ... ... : ... .. . ... : ... .. . ... : ... .. . ... ...
ROW 3B : ... .. 6 ... ... ... : ... .. . P80 ... ... : ... .. . ... : ... .. . ... : ... .. . ... ...
ROW 3C : ... .. . ... ... ... : ... .. . ... ... ... : --- .. . ... : ... .. . ... : ... .. . ... ...
ROW 3D : ... .. . ... ... ... : ... .. . ... ... ... : ... .. . ... : ... .. . ... : ... .. . ... ...
ROW 3E : A#1 00 4 ... ... ... : ... .. 2 ... ... ... : A#2 00 . ... : ... .. C ... : ... .. . ... ...
ROW 3F : ... .. 5 ... ... ... : ... .. . P7E ... ... : ... .. . ... : ... .. 0 ... : ... .. . ... ...
ROW 40 : ... .. 6 ... ... ... : ... .. 0 ... ... ... : ... .. . ... : ... .. . ... : ... .. . ... ...
ROW 41 : ... .. . ... ... ... : ... .. . ... ... ... : ... .. . ... : ... .. . ... : ... .. . ... ...
ROW 42 : ... .. 7 ... ... ... : ... .. . ... ... ... : ... .. . ... : ... .. . ... : ... .. . ... ...
ROW 43 : ... .. . ... ... ... : ... .. . P80 ... ... : ... .. . ... : ... .. . ... : ... .. . ... ...
ROW 44 : ... .. . ... ... ... : ... .. . ... ... ... : ... .. . ... : ... .. . ... : ... .. . ... ...
ROW 45 : ... .. 6 ... ... ... : ... .. . ... ... ... : ... .. . ... : ... .. . ... : ... .. . ... ...
ROW 46 : ... .. . ... ... ... : ... .. . ... ... ... : --- .. . ... : ... .. . ... : ... .. . ... ...
ROW 47 : ... .. . ... ... ... : ... .. . P7E ... ... : ... .. . ... : ... .. . ... : ... .. . ... ...
ROW 48 : F-2 00 4 ... ... ... : ... .. . ... ... ... : A#2 00 . ... : ... .. C ... : ... .. . ... ...
ROW 49 : ... .. 5 ... ... ... : ... .. . ... ... ... : ... .. . ... : ... .. 0 ... : ... .. . ... ...
ROW 4A : ... .. 6 ... ... ... : ... .. . ... ... ... : ... .. . ... : ... .. . ... : ... .. . ... ...
ROW 4B : ... .. . ... ... ... : ... .. . P80 ... ... : ... .. . ... : ... .. . ... : ... .. . ... ...
ROW 4C : ... .. 7 ... ... ... : ... .. . ... ... ... : ... .. . ... : ... .. . ... : ... .. . ... ...
ROW 4D : ... .. . ... ... ... : ... .. . ... ... ... : ... .. . ... : ... .. . ... : ... .. . ... ...
ROW 4E : ... .. . ... ... ... : ... .. . ... ... ... : ... .. . ... : ... .. . ... : ... .. . ... ...
ROW 4F : ... .. 6 ... ... ... : ... .. . P7E ... ... : ... .. . ... : ... .. . ... : ... .. . ... ...
ROW 50 : ... .. . ... ... ... : ... .. . ... ... ... : --- .. . ... : ... .. . ... : ... .. . ... ...
ROW 51 : ... .. . ... ... ... : ... .. . ... ... ... : ... .. . ... : ... .. . ... : ... .. . ... ...
ROW 52 : ... .. . ... ... ... : ... .. . ... ... ... : ... .. . ... : ... .. . ... : ... .. . ... ...
ROW 53 : ... .. 5 ... ... ... : ... .. . P80 ... ... : ... .. . ... : ... .. . ... : ... .. . ... ...
ROW 54 : ... .. . ... ... ... : ... .. . ... ... ... : ... .. . ... : ... .. . ... : ... .. . ... ...
ROW 55 : ... .. . ... ... ... : ... .. . ... ... ... : ... .. . ... : ... .. . ... : ... .. . ... ...
ROW 56 : ... .. . ... ... ... : ... .. . ... ... ... : ... .. . ... : ... .. . ... : ... .. . ... ...
ROW 57 : ... .. 4 P7F ... ... : ... .. . P7E ... ... : ... .. . P7F : ... .. . ... : ... .. . ... ...
ROW 58 : ... .. . ... ... ... : ... .. . ... ... ... : ... .. . ... : ... .. . ... : ... .. . ... ...
ROW 59 : ... .. . ... ... ... : ... .. . ... ... ... : ... .. . ... : ... .. . ... : ... .. . ... ...
ROW 5A : ... .. . ... ... ... : ... .. . ... ... ... : ... .. . ... : ... .. . ... : ... .. . ... ...
ROW 5B : ... .. . P81 ... ... : ... .. . P80 ... ... : ... .. . P81 : ... .. . ... : ... .. . ... ...
ROW 5C : ... .. . P80 ... ... : ... .. . ... ... ... : A#2 00 . P80 : ... .. C ... : ... .. . ... ...
ROW 5D : ... .. 5 ... ... ... : ... .. . ... ... ... : ... .. . ... : ... .. 0 ... : ... .. . ... ...
ROW 5E : ... .. 6 ... ... ... : ... .. . ... ... ... : ... .. . ... : ... .. . ... : ... .. . ... ...
ROW 5F : ... .. . ... ... ... : ... .. . P7E ... ... : ... .. . ... : ... .. . ... : ... .. . ... ...
ROW 60 : ... .. 7 ... ... ... : ... .. . ... ... ... : ... .. . ... : ... .. . ... : ... .. . ... ...
ROW 61 : ... .. . ... ... ... : ... .. . ... ... ... : ... .. . ... : ... .. . ... : ... .. . ... ...
ROW 62 : ... .. . ... ... ... : ... .. . ... ... ... : ... .. . ... : ... .. . ... : ... .. . ... ...
ROW 63 : ... .. 6 ... ... ... : ... .. . P80 ... ... : ... .. . ... : ... .. . ... : ... .. . ... ...
ROW 64 : ... .. . ... ... ... : ... .. . ... ... ... : --- .. . ... : ... .. . ... : ... .. . ... ...
ROW 65 : ... .. . ... ... ... : ... .. . ... ... ... : ... .. . ... : ... .. . ... : ... .. . ... ...
ROW 66 : A#1 00 4 ... ... ... : ... .. . ... ... ... : A#2 00 . ... : ... .. C ... : ... .. . ... ...
ROW 67 : ... .. 5 ... ... ... : ... .. . P7E ... ... : ... .. . ... : ... .. 0 ... : ... .. . ... ...
ROW 68 : ... .. 6 ... ... ... : ... .. . ... ... ... : ... .. . ... : ... .. . ... : ... .. . ... ...
ROW 69 : ... .. . ... ... ... : ... .. . ... ... ... : ... .. . ... : ... .. . ... : ... .. . ... ...
ROW 6A : ... .. 7 ... ... ... : ... .. . ... ... ... : ... .. . ... : ... .. . ... : ... .. . ... ...
ROW 6B : ... .. . ... ... ... : ... .. . P80 ... ... : ... .. . ... : ... .. . ... : ... .. . ... ...
ROW 6C : ... .. . ... ... ... : ... .. . ... ... ... : ... .. . ... : ... .. . ... : ... .. . ... ...
ROW 6D : ... .. 6 ... ... ... : ... .. . ... ... ... : ... .. . ... : ... .. . ... : ... .. . ... ...
ROW 6E : ... .. . ... ... ... : ... .. . ... ... ... : --- .. . ... : ... .. . ... : ... .. . ... ...
ROW 6F : ... .. . ... ... ... : ... .. . P7E ... ... : ... .. . ... : ... .. . ... : ... .. . ... ...
ROW 70 : F-2 00 4 ... ... ... : ... .. . P7F ... ... : A#2 00 . ... : ... .. C ... : ... .. . ... ...
ROW 71 : ... .. 5 ... ... ... : ... .. . ... ... ... : ... .. . ... : ... .. 0 ... : ... .. . ... ...
ROW 72 : ... .. 6 ... ... ... : ... .. . ... ... ... : ... .. . ... : ... .. . ... : ... .. . ... ...
ROW 73 : ... .. . ... ... ... : ... .. . ... ... ... : ... .. . ... : ... .. . ... : ... .. . ... ...
ROW 74 : ... .. 7 ... ... ... : ... .. . ... ... ... : ... .. . ... : ... .. . ... : ... .. . ... ...
ROW 75 : ... .. . ... ... ... : ... .. . ... ... ... : ... .. . ... : ... .. . ... : ... .. . ... ...
ROW 76 : ... .. . ... ... ... : ... .. . ... ... ... : ... .. . ... : ... .. . ... : ... .. . ... ...
ROW 77 : ... .. 6 ... ... ... : ... .. . ... ... ... : ... .. . ... : ... .. . ... : ... .. . ... ...
ROW 78 : ... .. . ... ... ... : ... .. . ... ... ... : --- .. . ... : ... .. . ... : ... .. . ... ...
ROW 79 : ... .. . ... ... ... : ... .. . ... ... ... : ... .. . ... : ... .. . ... : ... .. . ... ...
ROW 7A : ... .. . ... ... ... : ... .. . ... ... ... : ... .. . ... : ... .. . ... : ... .. . ... ...
ROW 7B : ... .. 5 ... ... ... : ... .. . ... ... ... : ... .. . ... : ... .. . ... : ... .. . ... ...
ROW 7C : ... .. . ... ... ... : ... .. . ... ... ... : ... .. . ... : ... .. . ... : ... .. . ... ...
ROW 7D : ... .. . ... ... ... : ... .. . ... ... ... : ... .. . ... : ... .. . ... : ... .. . ... ...
ROW 7E : ... .. . ... ... ... : ... .. . ... ... ... : ... .. . ... : ... .. . ... : ... .. . ... ...
ROW 7F : ... .. 4 P7F ... ... : ... .. . P7E ... ... : ... .. . P7F : ... .. . ... : ... .. . ... ...
ROW 80 : ... .. . ... ... ... : ... .. . ... ... ... : ... .. . ... : ... .. . ... : ... .. . ... ...
ROW 81 : ... .. . ... ... ... : ... .. . ... ... ... : ... .. . ... : ... .. . ... : ... .. . ... ...
ROW 82 : ... .. . ... ... ... : ... .. . ... ... ... : ... .. . ... : ... .. . ... : ... .. . ... ...
ROW 83 : ... .. . P81 ... ... : ... .. . P80 ... ... : ... .. . P81 : ... .. . ... : ... .. . ... ...
ROW 84 : ... .. . P80 ... ... : ... .. . ... ... ... : A#2 00 . P80 : ... .. C ... : ... .. . ... ...
ROW 85 : ... .. 5 ... ... ... : ... .. . ... ... ... : ... .. . ... : ... .. 0 ... : ... .. . ... ...
ROW 86 : ... .. 6 ... ... ... : ... .. . ... ... ... : ... .. . ... : ... .. . ... : ... .. . ... ...
ROW 87 : ... .. . ... ... ... : ... .. . P7E ... ... : ... .. . ... : ... .. . ... : ... .. . ... ...
ROW 88 : ... .. 7 ... ... ... : ... .. . ... ... ... : ... .. . ... : ... .. . ... : ... .. . ... ...
ROW 89 : ... .. . ... ... ... : ... .. . ... ... ... : ... .. . ... : ... .. . ... : ... .. . ... ...
ROW 8A : ... .. . ... ... ... : ... .. . ... ... ... : ... .. . ... : ... .. . ... : ... .. . ... ...
ROW 8B : ... .. 6 ... ... ... : ... .. . P80 ... ... : ... .. . ... : ... .. . ... : ... .. . ... ...
ROW 8C : ... .. . ... ... ... : ... .. . ... ... ... : --- .. . ... : ... .. . ... : ... .. . ... ...
ROW 8D : ... .. . ... ... ... : ... .. . ... ... ... : ... .. . ... : ... .. . ... : ... .. . ... ...
ROW 8E : A#1 00 4 ... ... ... : ... .. . ... ... ... : A#2 00 . ... : ... .. C ... : ... .. . ... ...
ROW 8F : ... .. 5 ... ... ... : ... .. . P7E ... ... : ... .. . ... : ... .. 0 ... : ... .. . ... ...
ROW 90 : ... .. 6 ... ... ... : ... .. . ... ... ... : ... .. . ... : ... .. . ... : ... .. . ... ...
ROW 91 : ... .. . ... ... ... : ... .. . ... ... ... : ... .. . ... : ... .. . ... : ... .. . ... ...
ROW 92 : ... .. 7 ... ... ... : ... .. . ... ... ... : ... .. . ... : ... .. . ... : ... .. . ... ...
ROW 93 : ... .. . ... ... ... : ... .. . P80 ... ... : ... .. . ... : ... .. . ... : ... .. . ... ...
ROW 94 : ... .. . ... ... ... : ... .. . ... ... ... : ... .. . ... : ... .. . ... : ... .. . ... ...
ROW 95 : ... .. 6 ... ... ... : ... .. . ... ... ... : ... .. . ... : ... .. . ... : ... .. . ... ...
ROW 96 : ... .. . ... ... ... : ... .. . ... ... ... : --- .. . ... : ... .. . ... : ... .. . ... ...
ROW 97 : ... .. . ... ... ... : ... .. . P7E ... ... : ... .. . ... : ... .. . ... : ... .. . ... ...
ROW 98 : F-2 00 4 ... ... ... : ... .. . ... ... ... : A#2 00 . ... : ... .. C ... : ... .. . ... ...
ROW 99 : ... .. 5 ... ... ... : ... .. . ... ... ... : ... .. . ... : ... .. 0 ... : ... .. . ... ...
ROW 9A : ... .. 6 ... ... ... : ... .. . ... ... ... : ... .. . ... : ... .. . ... : ... .. . ... ...
ROW 9B : ... .. . ... ... ... : ... .. . P80 ... ... : ... .. . ... : ... .. . ... : ... .. . ... ...
ROW 9C : ... .. 7 ... ... ... : ... .. . ... ... ... : ... .. . ... : ... .. . ... : ... .. . ... ...
ROW 9D : ... .. . ... ... ... : ... .. . ... ... ... : ... .. . ... : ... .. . ... : ... .. . ... ...
ROW 9E : ... .. . ... ... ... : ... .. . ... ... ... : ... .. . ... : ... .. . ... : ... .. . ... ...
ROW 9F : ... .. 6 ... ... ... : ... .. . P7E ... ... : ... .. . ... : ... .. . ... : ... .. . ... ...
ROW A0 : ... .. . ... ... ... : ... .. . ... ... ... : --- .. . ... : ... .. . ... : ... .. . ... ...
ROW A1 : ... .. . ... ... ... : ... .. . ... ... ... : ... .. . ... : ... .. . ... : ... .. . ... ...
ROW A2 : A#1 00 4 ... ... ... : ... .. . ... ... ... : ... .. . ... : ... .. . ... : ... .. . ... ...
ROW A3 : ... .. 5 ... ... ... : ... .. . P80 ... ... : ... .. . ... : ... .. . ... : ... .. . ... ...
ROW A4 : ... .. 6 ... ... ... : ... .. . ... ... ... : ... .. . ... : ... .. . ... : ... .. . ... ...
ROW A5 : ... .. . ... ... ... : ... .. . ... ... ... : ... .. . ... : ... .. . ... : ... .. . ... ...
ROW A6 : ... .. 7 ... ... ... : ... .. . ... ... ... : ... .. . ... : ... .. . ... : ... .. . ... ...
ROW A7 : ... .. . ... ... ... : ... .. . P7E ... ... : ... .. . P7F : ... .. . ... : ... .. . ... ...
ROW A8 : ... .. . ... ... ... : ... .. . ... ... ... : ... .. . ... : ... .. . ... : ... .. . ... ...
ROW A9 : ... .. 6 ... ... ... : ... .. . ... ... ... : ... .. . ... : ... .. . ... : ... .. . ... ...
ROW AA : ... .. . ... ... ... : ... .. . ... ... ... : ... .. . ... : ... .. . ... : ... .. . ... ...
ROW AB : ... .. . ... ... ... : ... .. . P80 ... ... : ... .. . P81 : ... .. . ... : ... .. . ... ...
ROW AC : F-2 00 4 ... ... ... : ... .. . ... ... ... : A#2 00 . P80 : ... .. C ... : ... .. . ... ...
ROW AD : ... .. 5 ... ... ... : ... .. . ... ... ... : ... .. . ... : ... .. 0 ... : ... .. . ... ...
ROW AE : ... .. 6 ... ... ... : ... .. . ... ... ... : ... .. . ... : ... .. . ... : ... .. . ... ...
ROW AF : ... .. . ... ... ... : ... .. . P7E ... ... : ... .. . ... : ... .. . ... : ... .. . ... ...
ROW B0 : ... .. 7 ... ... ... : ... .. . ... ... ... : ... .. . ... : ... .. . ... : ... .. . ... ...
ROW B1 : ... .. . ... ... ... : ... .. . ... ... ... : ... .. . ... : ... .. . ... : ... .. . ... ...
ROW B2 : ... .. . ... ... ... : ... .. . ... ... ... : ... .. . ... : ... .. . ... : ... .. . ... ...
ROW B3 : ... .. 6 ... ... ... : ... .. . P80 ... ... : ... .. . ... : ... .. . ... : ... .. . ... ...
ROW B4 : ... .. . ... ... ... : ... .. . ... ... ... : --- .. . ... : ... .. . ... : ... .. . ... ...
ROW B5 : ... .. . ... ... ... : ... .. . ... ... ... : ... .. . ... : ... .. . ... : ... .. . ... ...
ROW B6 : A#1 00 4 ... ... ... : ... .. . ... ... ... : A#2 00 . ... : ... .. C ... : ... .. . ... ...
ROW B7 : ... .. 5 ... ... ... : ... .. . P7E ... ... : ... .. . ... : ... .. 0 ... : ... .. . ... ...
ROW B8 : ... .. 6 ... ... ... : ... .. . ... ... ... : ... .. . ... : ... .. . ... : ... .. . ... ...
ROW B9 : ... .. . ... ... ... : ... .. . ... ... ... : ... .. . ... : ... .. . ... : ... .. . ... ...
ROW BA : ... .. 7 ... ... ... : ... .. . ... ... ... : ... .. . ... : ... .. . ... : ... .. . ... ...
ROW BB : ... .. . ... ... ... : ... .. . P80 ... ... : ... .. . ... : ... .. . ... : ... .. . ... ...
ROW BC : ... .. . ... ... ... : ... .. . ... ... ... : ... .. . ... : ... .. . ... : ... .. . ... ...
ROW BD : ... .. 6 ... ... ... : ... .. . ... ... ... : ... .. . ... : ... .. . ... : ... .. . ... ...
ROW BE : ... .. . ... ... ... : ... .. . ... ... ... : --- .. . ... : ... .. . ... : ... .. . ... ...
ROW BF : ... .. . ... ... ... : ... .. . P7E ... ... : ... .. . ... : ... .. . ... : ... .. . ... ...
ROW C0 : F-2 00 4 ... ... ... : A#3 00 4 P80 ... ... : A#2 00 . ... : ... .. C ... : ... .. . ... ...
ROW C1 : ... .. 5 ... ... ... : ... .. 5 ... ... ... : ... .. . ... : ... .. 0 ... : ... .. . ... ...
ROW C2 : ... .. 6 ... ... ... : ... .. 6 ... ... ... : ... .. . ... : ... .. . ... : ... .. . ... ...
ROW C3 : ... .. . ... ... ... : ... .. . ... ... ... : ... .. . ... : ... .. . ... : ... .. . ... ...
ROW C4 : ... .. 7 ... ... ... : ... .. 7 ... ... ... : ... .. . ... : ... .. . ... : ... .. . ... ...
ROW C5 : ... .. . ... ... ... : ... .. . ... ... ... : ... .. . ... : ... .. . ... : ... .. . ... ...
ROW C6 : ... .. . ... ... ... : ... .. . ... ... ... : ... .. . ... : ... .. . ... : ... .. . ... ...
ROW C7 : ... .. 6 ... ... ... : ... .. 6 ... ... ... : ... .. . ... : ... .. . ... : ... .. . ... ...
ROW C8 : ... .. . ... ... ... : ... .. . ... ... ... : --- .. . ... : ... .. . ... : ... .. . ... ...
ROW C9 : ... .. . ... ... ... : ... .. . ... ... ... : ... .. . ... : ... .. . ... : ... .. . ... ...
ROW CA : ... .. . ... ... ... : ... .. . ... ... ... : ... .. . ... : ... .. . ... : ... .. . ... ...
ROW CB : ... .. 5 ... ... ... : ... .. 5 ... ... ... : ... .. . ... : ... .. . ... : ... .. . ... ...
ROW CC : ... .. . ... ... ... : ... .. . ... ... ... : ... .. . ... : ... .. . ... : ... .. . ... ...
ROW CD : ... .. . ... ... ... : ... .. . ... ... ... : ... .. . ... : ... .. . ... : ... .. . ... ...
ROW CE : ... .. . ... ... ... : ... .. . ... ... ... : ... .. . ... : ... .. . ... : ... .. . ... ...
ROW CF : ... .. 4 P7F ... ... : ... .. 4 P7F ... ... : ... .. . P7F : ... .. . ... : ... .. . ... ...
ROW D0 : ... .. . ... ... ... : ... .. . ... ... ... : ... .. . ... : ... .. . ... : ... .. . ... ...
ROW D1 : ... .. . ... ... ... : ... .. . ... ... ... : ... .. . ... : ... .. . ... : ... .. . ... ...
ROW D2 : ... .. . ... ... ... : ... .. . ... ... ... : ... .. . ... : ... .. . ... : ... .. . ... ...
ROW D3 : ... .. . P81 ... ... : ... .. . P81 ... ... : ... .. . P81 : ... .. . ... : ... .. . ... ...
ROW D4 : ... .. . P80 ... ... : ... .. . ... ... ... : A#2 00 . P80 : ... .. C ... : ... .. . ... ...
ROW D5 : ... .. 5 ... ... ... : ... .. . ... ... ... : ... .. . ... : ... .. 0 ... : ... .. . ... ...
ROW D6 : ... .. 6 ... ... ... : ... .. . ... ... ... : ... .. . ... : ... .. . ... : ... .. . ... ...
ROW D7 : ... .. . ... ... ... : ... .. . P7F ... ... : ... .. . ... : ... .. . ... : ... .. . ... ...
ROW D8 : ... .. 7 ... ... ... : ... .. . ... ... ... : ... .. . ... : ... .. . ... : ... .. . ... ...
ROW D9 : ... .. . ... ... ... : ... .. 3 ... ... ... : ... .. . ... : ... .. . ... : ... .. . ... ...
ROW DA : ... .. . ... ... ... : ... .. . ... ... ... : ... .. . ... : ... .. . ... : ... .. . ... ...
ROW DB : ... .. 6 ... ... ... : ... .. . P81 ... ... : ... .. . ... : ... .. . ... : ... .. . ... ...
ROW DC : ... .. . ... ... ... : ... .. . ... ... ... : --- .. . ... : ... .. . ... : ... .. . ... ...
ROW DD : ... .. . ... ... ... : ... .. . ... ... ... : ... .. . ... : ... .. . ... : ... .. . ... ...
ROW DE : A#1 00 4 ... ... ... : ... .. 2 ... ... ... : A#2 00 . ... : ... .. C ... : ... .. . ... ...
ROW DF : ... .. 5 ... ... ... : ... .. . P7F ... ... : ... .. . ... : ... .. 0 ... : ... .. . ... ...
ROW E0 : ... .. 6 ... ... ... : ... .. 0 ... ... ... : ... .. . ... : ... .. . ... : ... .. . ... ...
ROW E1 : ... .. . ... ... ... : ... .. . ... ... ... : ... .. . ... : ... .. . ... : ... .. . ... ...
ROW E2 : ... .. 7 ... ... ... : ... .. . ... ... ... : ... .. . ... : ... .. . ... : ... .. . ... ...
ROW E3 : ... .. . ... ... ... : ... .. . P81 ... ... : ... .. . ... : ... .. . ... : ... .. . ... ...
ROW E4 : ... .. . ... ... ... : ... .. . ... ... ... : ... .. . ... : ... .. . ... : ... .. . ... ...
ROW E5 : ... .. 6 ... ... ... : ... .. . ... ... ... : ... .. . ... : ... .. . ... : ... .. . ... ...
ROW E6 : ... .. . ... ... ... : ... .. . ... ... ... : --- .. . ... : ... .. . ... : ... .. . ... ...
ROW E7 : ... .. . ... ... ... : ... .. . P7F ... ... : ... .. . ... : ... .. . ... : ... .. . ... ...
ROW E8 : F-2 00 4 ... ... ... : F-3 00 4 ... ... ... : A#2 00 . ... : ... .. C ... : ... .. . ... ...
ROW E9 : ... .. 5 ... ... ... : ... .. 5 ... ... ... : ... .. . ... : ... .. 0 ... : ... .. . ... ...
ROW EA : ... .. 6 ... ... ... : ... .. 6 ... ... ... : ... .. . ... : ... .. . ... : ... .. . ... ...
ROW EB : ... .. . ... ... ... : ... .. . ... ... ... : ... .. . ... : ... .. . ... : ... .. . ... ...
ROW EC : ... .. 7 ... ... ... : ... .. 7 ... ... ... : ... .. . ... : ... .. . ... : ... .. . ... ...
ROW ED : ... .. . ... ... ... : ... .. . ... ... ... : ... .. . ... : ... .. . ... : ... .. . ... ...
ROW EE : ... .. . ... ... ... : ... .. . ... ... ... : ... .. . ... : ... .. . ... : ... .. . ... ...
ROW EF : ... .. 6 ... ... ... : ... .. 6 ... ... ... : ... .. . ... : ... .. . ... : ... .. . ... ...
ROW F0 : ... .. . ... ... ... : ... .. . ... ... ... : --- .. . ... : ... .. . ... : ... .. . ... ...
ROW F1 : ... .. . ... ... ... : ... .. . ... ... ... : ... .. . ... : ... .. . ... : ... .. . ... ...
ROW F2 : ... .. . ... ... ... : ... .. . ... ... ... : ... .. . ... : ... .. . ... : ... .. . ... ...
ROW F3 : ... .. 5 ... ... ... : ... .. 5 ... ... ... : ... .. . ... : ... .. . ... : ... .. . ... ...
ROW F4 : ... .. . ... ... ... : ... .. . ... ... ... : ... .. . ... : ... .. . ... : ... .. . ... ...
ROW F5 : ... .. . ... ... ... : ... .. . ... ... ... : ... .. . ... : ... .. . ... : ... .. . ... ...
ROW F6 : ... .. . ... ... ... : ... .. . ... ... ... : ... .. . ... : ... .. . ... : ... .. . ... ...
ROW F7 : ... .. 4 P7F ... ... : ... .. 4 P7E ... ... : ... .. . P7F : ... .. . ... : ... .. . ... ...
ROW F8 : ... .. . ... ... ... : ... .. . ... ... ... : ... .. . ... : ... .. . ... : ... .. . ... ...
ROW F9 : ... .. . ... ... ... : ... .. . ... ... ... : ... .. . ... : ... .. . ... : ... .. . ... ...
ROW FA : ... .. . ... ... ... : ... .. . ... ... ... : ... .. . ... : ... .. . ... : ... .. . ... ...
ROW FB : ... .. . P81 ... ... : ... .. . P80 ... ... : ... .. . P81 : ... .. . ... : ... .. . ... ...
ROW FC : ... .. . P80 ... ... : ... .. . ... ... ... : A#2 00 . P80 : ... .. C ... : ... .. . ... ...
ROW FD : ... .. 5 ... ... ... : ... .. . ... ... ... : ... .. . ... : ... .. 0 ... : ... .. . ... ...
ROW FE : ... .. 6 ... ... ... : ... .. . ... ... ... : ... .. . ... : ... .. . ... : ... .. . ... ...
ROW FF : ... .. . ... ... ... : ... .. . P7E ... ... : ... .. . ... : ... .. . ... : ... .. . ... ...

PATTERN 04
ROW 00 : ... .. 7 ... ... ... : ... .. . ... ... ... : ... .. . ... : ... .. . ... : ... .. . ... ...
ROW 01 : ... .. . ... ... ... : ... .. 3 ... ... ... : ... .. . ... : ... .. . ... : ... .. . ... ...
ROW 02 : ... .. . ... ... ... : ... .. . ... ... ... : ... .. . ... : ... .. . ... : ... .. . ... ...
ROW 03 : ... .. 6 ... ... ... : ... .. . P80 ... ... : ... .. . ... : ... .. . ... : ... .. . ... ...
ROW 04 : ... .. . ... ... ... : ... .. . ... ... ... : --- .. . ... : ... .. . ... : ... .. . ... ...
ROW 05 : ... .. . ... ... ... : ... .. . ... ... ... : ... .. . ... : ... .. . ... : ... .. . ... ...
ROW 06 : A#1 00 4 ... ... ... : ... .. 2 ... ... ... : A#2 00 . ... : ... .. C ... : ... .. . ... ...
ROW 07 : ... .. 5 ... ... ... : ... .. . P7E ... ... : ... .. . ... : ... .. 0 ... : ... .. . ... ...
ROW 08 : ... .. 6 ... ... ... : ... .. 0 ... ... ... : ... .. . ... : ... .. . ... : ... .. . ... ...
ROW 09 : ... .. . ... ... ... : ... .. . ... ... ... : ... .. . ... : ... .. . ... : ... .. . ... ...
ROW 0A : ... .. 7 ... ... ... : ... .. . ... ... ... : ... .. . ... : ... .. . ... : ... .. . ... ...
ROW 0B : ... .. . ... ... ... : ... .. . P80 ... ... : ... .. . ... : ... .. . ... : ... .. . ... ...
ROW 0C : ... .. . ... ... ... : ... .. . ... ... ... : ... .. . ... : ... .. . ... : ... .. . ... ...
ROW 0D : ... .. 6 ... ... ... : ... .. . ... ... ... : ... .. . ... : ... .. . ... : ... .. . ... ...
ROW 0E : ... .. . ... ... ... : ... .. . ... ... ... : --- .. . ... : ... .. . ... : ... .. . ... ...
ROW 0F : ... .. . ... ... ... : ... .. . P7E ... ... : ... .. . ... : ... .. . ... : ... .. . ... ...
ROW 10 : F-2 00 4 ... ... ... : ... .. . ... ... ... : A#2 00 . ... : ... .. C ... : ... .. . ... ...
ROW 11 : ... .. 5 ... ... ... : ... .. . ... ... ... : ... .. . ... : ... .. 0 ... : ... .. . ... ...
ROW 12 : ... .. 6 ... ... ... : ... .. . ... ... ... : ... .. . ... : ... .. . ... : ... .. . ... ...
ROW 13 : ... .. . ... ... ... : ... .. . P80 ... ... : ... .. . ... : ... .. . ... : ... .. . ... ...
ROW 14 : ... .. 7 ... ... ... : ... .. . ... ... ... : ... .. . ... : ... .. . ... : ... .. . ... ...
ROW 15 : ... .. . ... ... ... : ... .. . ... ... ... : ... .. . ... : ... .. . ... : ... .. . ... ...
ROW 16 : ... .. . ... ... ... : ... .. . ... ... ... : ... .. . ... : ... .. . ... : ... .. . ... ...
ROW 17 : ... .. 6 ... ... ... : ... .. . P7E ... ... : ... .. . ... : ... .. . ... : ... .. . ... ...
ROW 18 : ... .. . ... ... ... : ... .. . ... ... ... : --- .. . ... : ... .. . ... : ... .. . ... ...
ROW 19 : ... .. . ... ... ... : ... .. . ... ... ... : ... .. . ... : ... .. . ... : ... .. . ... ...
ROW 1A : ... .. . ... ... ... : ... .. . ... ... ... : ... .. . ... : ... .. . ... : ... .. . ... ...
ROW 1B : ... .. 5 ... ... ... : ... .. . P80 ... ... : ... .. . ... : ... .. . ... : ... .. . ... ...
ROW 1C : ... .. . ... ... ... : ... .. . ... ... ... : ... .. . ... : ... .. . ... : ... .. . ... ...
ROW 1D : ... .. . ... ... ... : ... .. . ... ... ... : ... .. . ... : ... .. . ... : ... .. . ... ...
ROW 1E : ... .. . ... ... ... : ... .. . ... ... ... : ... .. . ... : ... .. . ... : ... .. . ... ...
ROW 1F : ... .. 4 P7F ... ... : ... .. . P7E ... ... : ... .. . P7F : ... .. . ... : ... .. . ... ...
ROW 20 : ... .. . ... ... ... : ... .. . ... ... ... : ... .. . ... : ... .. . ... : ... .. . ... ...
ROW 21 : ... .. . ... ... ... : ... .. . ... ... ... : ... .. . ... : ... .. . ... : ... .. . ... ...
ROW 22 : ... .. . ... ... ... : ... .. . ... ... ... : ... .. . ... : ... .. . ... : ... .. . ... ...
ROW 23 : ... .. . P81 ... ... : ... .. . P80 ... ... : ... .. . P81 : ... .. . ... : ... .. . ... ...
ROW 24 : ... .. . P80 ... ... : A#3 00 4 ... ... ... : A#2 00 . P80 : ... .. C ... : ... .. . ... ...
ROW 25 : ... .. 5 ... ... ... : ... .. 5 ... ... ... : ... .. . ... : ... .. 0 ... : ... .. . ... ...
ROW 26 : ... .. 6 ... ... ... : ... .. 6 ... ... ... : ... .. . ... : ... .. . ... : ... .. . ... ...
ROW 27 : ... .. . ... ... ... : ... .. . ... ... ... : ... .. . ... : ... .. . ... : ... .. . ... ...
ROW 28 : ... .. 7 ... ... ... : ... .. 7 ... ... ... : ... .. . ... : ... .. . ... : ... .. . ... ...
ROW 29 : ... .. . ... ... ... : ... .. . ... ... ... : ... .. . ... : ... .. . ... : ... .. . ... ...
ROW 2A : ... .. . ... ... ... : ... .. . ... ... ... : ... .. . ... : ... .. . ... : ... .. . ... ...
ROW 2B : ... .. 6 ... ... ... : ... .. 6 ... ... ... : ... .. . ... : ... .. . ... : ... .. . ... ...
ROW 2C : ... .. . ... ... ... : ... .. . ... ... ... : --- .. . ... : ... .. . ... : ... .. . ... ...
ROW 2D : ... .. . ... ... ... : ... .. . ... ... ... : ... .. . ... : ... .. . ... : ... .. . ... ...
ROW 2E : A#1 00 4 ... ... ... : ... .. . ... ... ... : A#2 00 . ... : ... .. C ... : ... .. . ... ...
ROW 2F : ... .. 5 ... ... ... : ... .. 5 ... ... ... : ... .. . ... : ... .. 0 ... : ... .. . ... ...
ROW 30 : ... .. 6 ... ... ... : ... .. . ... ... ... : ... .. . ... : ... .. . ... : ... .. . ... ...
ROW 31 : ... .. . ... ... ... : ... .. . ... ... ... : ... .. . ... : ... .. . ... : ... .. . ... ...
ROW 32 : ... .. 7 ... ... ... : ... .. . ... ... ... : ... .. . ... : ... .. . ... : ... .. . ... ...
ROW 33 : ... .. . ... ... ... : ... .. 4 P7F ... ... : ... .. . ... : ... .. . ... : ... .. . ... ...
ROW 34 : ... .. . ... ... ... : ... .. . ... ... ... : ... .. . ... : ... .. . ... : ... .. . ... ...
ROW 35 : ... .. 6 ... ... ... : ... .. . ... ... ... : ... .. . ... : ... .. . ... : ... .. . ... ...
ROW 36 : ... .. . ... ... ... : ... .. . ... ... ... : --- .. . ... : ... .. . ... : ... .. . ... ...
ROW 37 : ... .. . ... ... ... : ... .. . P81 ... ... : ... .. . ... : ... .. . ... : ... .. . ... ...
ROW 38 : F-2 00 4 ... ... ... : ... .. . P80 ... ... : A#2 00 . ... : ... .. C ... : ... .. . ... ...
ROW 39 : ... .. 5 ... ... ... : ... .. 5 ... ... ... : ... .. . ... : ... .. 0 ... : ... .. . ... ...
ROW 3A : ... .. 6 ... ... ... : ... .. 6 ... ... ... : ... .. . ... : ... .. . ... : ... .. . ... ...
ROW 3B : ... .. . ... ... ... : ... .. . ... ... ... : ... .. . ... : ... .. . ... : ... .. . ... ...
ROW 3C : ... .. 7 ... ... ... : ... .. 7 ... ... ... : ... .. . ... : ... .. . ... : ... .. . ... ...
ROW 3D : ... .. . ... ... ... : ... .. . ... ... ... : ... .. . ... : ... .. . ... : ... .. . ... ...
ROW 3E : ... .. . ... ... ... : ... .. . ... ... ... : ... .. . ... : ... .. . ... : ... .. . ... ...
ROW 3F : ... .. 6 ... ... ... : ... .. 6 ... ... ... : ... .. . ... : ... .. . ... : ... .. . ... ...
ROW 40 : ... .. . ... ... ... : ... .. . ... ... ... : --- .. . ... : ... .. . ... : ... .. . ... ...
ROW 41 : ... .. . ... ... ... : ... .. . ... ... ... : ... .. . ... : ... .. . ... : ... .. . ... ...
ROW 42 : A#1 00 4 ... ... ... : C-4 00 4 ... ... ... : ... .. . ... : ... .. . ... : ... .. . ... ...
ROW 43 : ... .. 5 ... ... ... : ... .. 5 ... ... ... : ... .. . ... : ... .. . ... : ... .. . ... ...
ROW 44 : ... .. 6 ... ... ... : ... .. 6 ... ... ... : ... .. . ... : ... .. . ... : ... .. . ... ...
ROW 45 : ... .. . ... ... ... : ... .. . ... ... ... : ... .. . ... : ... .. . ... : ... .. . ... ...
ROW 46 : ... .. 7 ... ... ... : ... .. 7 ... ... ... : ... .. . ... : ... .. . ... : ... .. . ... ...
ROW 47 : ... .. . ... ... ... : ... .. . ... ... ... : ... .. . P7F : ... .. . ... : ... .. . ... ...
ROW 48 : ... .. . ... ... ... : ... .. . ... ... ... : ... .. . ... : ... .. . ... : ... .. . ... ...
ROW 49 : ... .. 6 ... ... ... : ... .. 6 ... ... ... : ... .. . ... : ... .. . ... : ... .. . ... ...
ROW 4A : ... .. . ... ... ... : ... .. . ... ... ... : ... .. . ... : ... .. . ... : ... .. . ... ...
ROW 4B : ... .. . ... ... ... : ... .. . ... ... ... : ... .. . P81 : ... .. . ... : ... .. . ... ...
ROW 4C : F-2 00 4 ... ... ... : D-4 00 4 P7F ... ... : A#2 00 . P80 : ... .. C ... : ... .. . ... ...
ROW 4D : ... .. 5 ... ... ... : ... .. 5 ... ... ... : ... .. . ... : ... .. 0 ... : ... .. . ... ...
ROW 4E : ... .. 6 ... ... ... : ... .. 6 ... ... ... : ... .. . ... : ... .. . ... : ... .. . ... ...
ROW 4F : ... .. . ... ... ... : ... .. . ... ... ... : ... .. . ... : ... .. . ... : ... .. . ... ...
ROW 50 : ... .. 7 ... ... ... : ... .. 7 ... ... ... : ... .. . ... : ... .. . ... : ... .. . ... ...
ROW 51 : ... .. . ... ... ... : ... .. . ... ... ... : ... .. . ... : ... .. . ... : ... .. . ... ...
ROW 52 : ... .. . ... ... ... : ... .. . ... ... ... : ... .. . ... : ... .. . ... : ... .. . ... ...
ROW 53 : ... .. 6 ... ... ... : ... .. 6 ... ... ... : ... .. . ... : ... .. . ... : ... .. . ... ...
ROW 54 : ... .. . ... ... ... : ... .. . ... ... ... : --- .. . ... : ... .. . ... : ... .. . ... ...
ROW 55 : ... .. . ... ... ... : ... .. . ... ... ... : ... .. . ... : ... .. . ... : ... .. . ... ...
ROW 56 : A#1 00 4 ... ... ... : D#4 00 4 P80 ... ... : A#2 00 . ... : ... .. C ... : ... .. . ... ...
ROW 57 : ... .. 5 ... ... ... : ... .. 5 ... ... ... : ... .. . ... : ... .. 0 ... : ... .. . ... ...
ROW 58 : ... .. 6 ... ... ... : ... .. 6 ... ... ... : ... .. . ... : ... .. . ... : ... .. . ... ...
ROW 59 : ... .. . ... ... ... : ... .. . ... ... ... : ... .. . ... : ... .. . ... : ... .. . ... ...
ROW 5A : ... .. 7 ... ... ... : ... .. 7 ... ... ... : ... .. . ... : ... .. . ... : ... .. . ... ...
ROW 5B : ... .. . ... ... ... : ... .. . ... ... ... : ... .. . ... : ... .. . ... : ... .. . ... ...
ROW 5C : ... .. . ... ... ... : ... .. . ... ... ... : ... .. . ... : ... .. . ... : ... .. . ... ...
ROW 5D : ... .. 6 ... ... ... : ... .. 6 ... ... ... : ... .. . ... : ... .. . ... : ... .. . ... ...
ROW 5E : ... .. . ... ... ... : ... .. . ... ... ... : --- .. . ... : ... .. . ... : ... .. . ... ...
ROW 5F : ... .. . ... ... ... : ... .. . ... ... ... : ... .. . ... : ... .. . ... : ... .. . ... ...
ROW 60 : D#2 00 4 P7F ... ... : F-4 00 4 P7F ... ... : G#2 00 . ... : ... .. C ... : ... .. . ... ...
ROW 61 : ... .. 5 ... ... ... : ... .. 5 ... ... ... : ... .. . ... : ... .. 0 ... : ... .. . ... ...
ROW 62 : ... .. 6 ... ... ... : ... .. 6 ... ... ... : ... .. . ... : ... .. . ... : ... .. . ... ...
ROW 63 : ... .. . ... ... ... : ... .. . ... ... ... : ... .. . ... : ... .. . ... : ... .. . ... ...
ROW 64 : ... .. 7 ... ... ... : ... .. 7 ... ... ... : ... .. . ... : ... .. . ... : ... .. . ... ...
ROW 65 : ... .. . ... ... ... : ... .. . ... ... ... : ... .. . ... : ... .. . ... : ... .. . ... ...
ROW 66 : ... .. . ... ... ... : ... .. . ... ... ... : ... .. . ... : ... .. . ... : ... .. . ... ...
ROW 67 : ... .. 6 ... ... ... : ... .. 6 ... ... ... : ... .. . ... : ... .. . ... : ... .. . ... ...
ROW 68 : ... .. . ... ... ... : ... .. . ... ... ... : --- .. . ... : ... .. . ... : ... .. . ... ...
ROW 69 : ... .. . ... ... ... : ... .. . ... ... ... : ... .. . ... : ... .. . ... : ... .. . ... ...
ROW 6A : ... .. . ... ... ... : ... .. . ... ... ... : ... .. . ... : ... .. . ... : ... .. . ... ...
ROW 6B : ... .. 5 ... ... ... : ... .. 5 ... ... ... : ... .. . ... : ... .. . ... : ... .. . ... ...
ROW 6C : ... .. . ... ... ... : ... .. . ... ... ... : ... .. . ... : ... .. . ... : ... .. . ... ...
ROW 6D : ... .. . ... ... ... : ... .. . ... ... ... : ... .. . ... : ... .. . ... : ... .. . ... ...
ROW 6E : ... .. . ... ... ... : ... .. . ... ... ... : ... .. . ... : ... .. . ... : ... .. . ... ...
ROW 6F : ... .. 4 P7E ... ... : ... .. 4 P7E ... ... : ... .. . P7F : ... .. . ... : ... .. . ... ...
ROW 70 : ... .. . ... ... ... : ... .. . ... ... ... : ... .. . ... : ... .. . ... : ... .. . ... ...
ROW 71 : ... .. . ... ... ... : ... .. . ... ... ... : ... .. . ... : ... .. . ... : ... .. . ... ...
ROW 72 : ... .. . ... ... ... : ... .. . ... ... ... : ... .. . ... : ... .. . ... : ... .. . ... ...
ROW 73 : ... .. . P80 ... ... : ... .. . P80 ... ... : ... .. . P81 : ... .. . ... : ... .. . ... ...
ROW 74 : A#2 00 4 ... ... ... : ... .. . ... ... ... : G#2 00 . P80 : ... .. C ... : ... .. . ... ...
ROW 75 : ... .. 5 ... ... ... : ... .. . ... ... ... : ... .. . ... : ... .. 0 ... : ... .. . ... ...
ROW 76 : ... .. 6 ... ... ... : ... .. . ... ... ... : ... .. . ... : ... .. . ... : ... .. . ... ...
ROW 77 : ... .. . ... ... ... : ... .. . P7E ... ... : ... .. . ... : ... .. . ... : ... .. . ... ...
ROW 78 : ... .. 7 ... ... ... : ... .. . ... ... ... : ... .. . ... : ... .. . ... : ... .. . ... ...
ROW 79 : ... .. . ... ... ... : ... .. 3 ... ... ... : ... .. . ... : ... .. . ... : ... .. . ... ...
ROW 7A : ... .. . ... ... ... : ... .. . ... ... ... : ... .. . ... : ... .. . ... : ... .. . ... ...
ROW 7B : ... .. 6 ... ... ... : ... .. . P80 ... ... : ... .. . ... : ... .. . ... : ... .. . ... ...
ROW 7C : ... .. . ... ... ... : ... .. . ... ... ... : --- .. . ... : ... .. . ... : ... .. . ... ...
ROW 7D : ... .. . ... ... ... : ... .. . ... ... ... : ... .. . ... : ... .. . ... : ... .. . ... ...
ROW 7E : ... .. . ... ... ... : ... .. 2 ... ... ... : G#2 00 . ... : ... .. C ... : ... .. . ... ...
ROW 7F : ... .. 5 ... ... ... : ... .. . P7E ... ... : ... .. . ... : ... .. 0 ... : ... .. . ... ...
ROW 80 : ... .. . ... ... ... : ... .. 0 ... ... ... : ... .. . ... : ... .. . ... : ... .. . ... ...
ROW 81 : ... .. . ... ... ... : ... .. . ... ... ... : ... .. . ... : ... .. . ... : ... .. . ... ...
ROW 82 : ... .. . ... ... ... : ... .. . ... ... ... : ... .. . ... : ... .. . ... : ... .. . ... ...
ROW 83 : ... .. 4 P7F ... ... : ... .. . P80 ... ... : ... .. . ... : ... .. . ... : ... .. . ... ...
ROW 84 : ... .. . ... ... ... : ... .. . ... ... ... : ... .. . ... : ... .. . ... : ... .. . ... ...
ROW 85 : ... .. . ... ... ... : ... .. . ... ... ... : ... .. . ... : ... .. . ... : ... .. . ... ...
ROW 86 : ... .. . ... ... ... : ... .. . ... ... ... : --- .. . ... : ... .. . ... : ... .. . ... ...
ROW 87 : ... .. . P81 ... ... : ... .. . P7E ... ... : ... .. . ... : ... .. . ... : ... .. . ... ...
ROW 88 : ... .. . P80 ... ... : ... .. . ... ... ... : G#2 00 . ... : ... .. C ... : ... .. . ... ...
ROW 89 : ... .. 5 ... ... ... : ... .. . ... ... ... : ... .. . ... : ... .. 0 ... : ... .. . ... ...
ROW 8A : ... .. 6 ... ... ... : ... .. . ... ... ... : ... .. . ... : ... .. . ... : ... .. . ... ...
ROW 8B : ... .. . ... ... ... : ... .. . P80 ... ... : ... .. . ... : ... .. . ... : ... .. . ... ...
ROW 8C : ... .. 7 ... ... ... : ... .. . ... ... ... : ... .. . ... : ... .. . ... : ... .. . ... ...
ROW 8D : ... .. . ... ... ... : ... .. . ... ... ... : ... .. . ... : ... .. . ... : ... .. . ... ...
ROW 8E : ... .. . ... ... ... : ... .. . ... ... ... : ... .. . ... : ... .. . ... : ... .. . ... ...
ROW 8F : ... .. 6 ... ... ... : ... .. . P7E ... ... : ... .. . ... : ... .. . ... : ... .. . ... ...
ROW 90 : ... .. . ... ... ... : ... .. . ... ... ... : --- .. . ... : ... .. . ... : ... .. . ... ...
ROW 91 : ... .. . ... ... ... : ... .. . ... ... ... : ... .. . ... : ... .. . ... : ... .. . ... ...
ROW 92 : C-3 00 4 ... ... ... : ... .. . ... ... ... : ... .. . ... : ... .. . ... : ... .. . ... ...
ROW 93 : ... .. 5 ... ... ... : ... .. . P80 ... ... : ... .. . ... : ... .. . ... : ... .. . ... ...
ROW 94 : ... .. 6 ... ... ... : ... .. . ... ... ... : ... .. . ... : ... .. . ... : ... .. . ... ...
ROW 95 : ... .. . ... ... ... : ... .. . ... ... ... : ... .. . ... : ... .. . ... : ... .. . ... ...
ROW 96 : ... .. 7 ... ... ... : ... .. . ... ... ... : ... .. . ... : ... .. . ... : ... .. . ... ...
ROW 97 : ... .. . ... ... ... : ... .. . P7E ... ... : ... .. . P7F : ... .. . ... : ... .. . ... ...
ROW 98 : ... .. . ... ... ... : ... .. . ... ... ... : ... .. . ... : ... .. . ... : ... .. . ... ...
ROW 99 : ... .. 6 ... ... ... : ... .. . ... ... ... : ... .. . ... : ... .. . ... : ... .. . ... ...
ROW 9A : ... .. . ... ... ... : ... .. . ... ... ... : ... .. . ... : ... .. . ... : ... .. . ... ...
ROW 9B : ... .. . ... ... ... : ... .. . P80 ... ... : ... .. . P81 : ... .. . ... : ... .. . ... ...
ROW 9C : D-3 00 4 ... ... ... : ... .. . ... ... ... : G#2 00 . P80 : ... .. C ... : ... .. . ... ...
ROW 9D : ... .. 5 ... ... ... : ... .. . ... ... ... : ... .. . ... : ... .. 0 ... : ... .. . ... ...
ROW 9E : ... .. 6 ... ... ... : ... .. . ... ... ... : ... .. . ... : ... .. . ... : ... .. . ... ...
ROW 9F : ... .. . ... ... ... : ... .. . P7E ... ... : ... .. . ... : ... .. . ... : ... .. . ... ...
ROW A0 : ... .. 7 ... ... ... : ... .. . ... ... ... : ... .. . ... : ... .. . ... : ... .. . ... ...
ROW A1 : ... .. . ... ... ... : ... .. . ... ... ... : ... .. . ... : ... .. . ... : ... .. . ... ...
ROW A2 : ... .. . ... ... ... : ... .. . ... ... ... : ... .. . ... : ... .. . ... : ... .. . ... ...
ROW A3 : ... .. 6 ... ... ... : ... .. . P80 ... ... : ... .. . ... : ... .. . ... : ... .. . ... ...
ROW A4 : ... .. . ... ... ... : ... .. . ... ... ... : --- .. . ... : ... .. . ... : ... .. . ... ...
ROW A5 : ... .. . ... ... ... : ... .. . ... ... ... : ... .. . ... : ... .. . ... : ... .. . ... ...
ROW A6 : D#3 00 4 ... ... ... : ... .. . ... ... ... : G#2 00 . ... : ... .. C ... : ... .. . ... ...
ROW A7 : ... .. 5 ... ... ... : ... .. . P7E ... ... : ... .. . ... : ... .. 0 ... : ... .. . ... ...
ROW A8 : ... .. 6 ... ... ... : ... .. . ... ... ... : ... .. . ... : ... .. . ... : ... .. . ... ...
ROW A9 : ... .. . ... ... ... : ... .. . ... ... ... : ... .. . ... : ... .. . ... : ... .. . ... ...
ROW AA : ... .. 7 ... ... ... : ... .. . ... ... ... : ... .. . ... : ... .. . ... : ... .. . ... ...
ROW AB : ... .. . ... ... ... : ... .. . P80 ... ... : ... .. . ... : ... .. . ... : ... .. . ... ...
ROW AC : ... .. . ... ... ... : ... .. . ... ... ... : ... .. . ... : ... .. . ... : ... .. . ... ...
ROW AD : ... .. 6 ... ... ... : ... .. . ... ... ... : ... .. . ... : ... .. . ... : ... .. . ... ...
ROW AE : ... .. . ... ... ... : ... .. . ... ... ... : --- .. . ... : ... .. . ... : ... .. . ... ...
ROW AF : ... .. . ... ... ... : ... .. . P7E ... ... : ... .. . ... : ... .. . ... : ... .. . ... ...
ROW B0 : F-3 00 4 P7F ... ... : ... .. . P7F ... ... : G#2 00 . ... : ... .. C ... : ... .. . ... ...
ROW B1 : ... .. 5 ... ... ... : ... .. . ... ... ... : ... .. . ... : ... .. 0 ... : ... .. . ... ...
ROW B2 : ... .. 6 ... ... ... : ... .. . ... ... ... : ... .. . ... : ... .. . ... : ... .. . ... ...
ROW B3 : ... .. . ... ... ... : ... .. . ... ... ... : ... .. . ... : ... .. . ... : ... .. . ... ...
ROW B4 : ... .. 7 ... ... ... : ... .. . ... ... ... : ... .. . ... : ... .. . ... : ... .. . ... ...
ROW B5 : ... .. . ... ... ... : ... .. . ... ... ... : ... .. . ... : ... .. . ... : ... .. . ... ...
ROW B6 : ... .. . ... ... ... : ... .. . ... ... ... : ... .. . ... : ... .. . ... : ... .. . ... ...
ROW B7 : ... .. 6 ... ... ... : ... .. . ... ... ... : ... .. . ... : ... .. . ... : ... .. . ... ...
ROW B8 : ... .. . ... ... ... : ... .. . ... ... ... : --- .. . ... : ... .. . ... : ... .. . ... ...
ROW B9 : ... .. . ... ... ... : ... .. . ... ... ... : ... .. . ... : ... .. . ... : ... .. . ... ...
ROW BA : ... .. . ... ... ... : ... .. . ... ... ... : ... .. . ... : ... .. . ... : ... .. . ... ...
ROW BB : ... .. 5 ... ... ... : ... .. . ... ... ... : ... .. . ... : ... .. . ... : ... .. . ... ...
ROW BC : ... .. . ... ... ... : ... .. . ... ... ... : ... .. . ... : ... .. . ... : ... .. . ... ...
ROW BD : ... .. . ... ... ... : ... .. . ... ... ... : ... .. . ... : ... .. . ... : ... .. . ... ...
ROW BE : ... .. . ... ... ... : ... .. . ... ... ... : ... .. . ... : ... .. . ... : ... .. . ... ...
ROW BF : ... .. 4 P7E ... ... : ... .. . P7E ... ... : ... .. . P7F : ... .. . ... : ... .. . ... ...
ROW C0 : ... .. . ... ... ... : ... .. . ... ... ... : ... .. . ... : ... .. . ... : ... .. . ... ...
ROW C1 : ... .. . ... ... ... : ... .. . ... ... ... : ... .. . ... : ... .. . ... : ... .. . ... ...
ROW C2 : ... .. . ... ... ... : ... .. . ... ... ... : ... .. . ... : ... .. . ... : ... .. . ... ...
ROW C3 : ... .. . P80 ... ... : ... .. . P80 ... ... : ... .. . P81 : ... .. . ... : ... .. . ... ...
ROW C4 : D#2 00 4 P7F ... ... : ... .. . ... ... ... : G#2 00 . P80 : ... .. C ... : ... .. . ... ...
ROW C5 : ... .. 5 ... ... ... : ... .. . ... ... ... : ... .. . ... : ... .. 0 ... : ... .. . ... ...
ROW C6 : ... .. 6 ... ... ... : ... .. . ... ... ... : ... .. . ... : ... .. . ... : ... .. . ... ...
ROW C7 : ... .. . ... ... ... : ... .. . P7E ... ... : ... .. . ... : ... .. . ... : ... .. . ... ...
ROW C8 : ... .. 7 ... ... ... : ... .. . ... ... ... : ... .. . ... : ... .. . ... : ... .. . ... ...
ROW C9 : ... .. . ... ... ... : ... .. . ... ... ... : ... .. . ... : ... .. . ... : ... .. . ... ...
ROW CA : ... .. . ... ... ... : ... .. . ... ... ... : ... .. . ... : ... .. . ... : ... .. . ... ...
ROW CB : ... .. 6 ... ... ... : ... .. . P80 ... ... : ... .. . ... : ... .. . ... : ... .. . ... ...
ROW CC : ... .. . ... ... ... : ... .. . ... ... ... : --- .. . ... : ... .. . ... : ... .. . ... ...
ROW CD : ... .. . ... ... ... : ... .. . ... ... ... : ... .. . ... : ... .. . ... : ... .. . ... ...
ROW CE : G#1 00 4 ... ... ... : ... .. . ... ... ... : G#2 00 . ... : ... .. C ... : ... .. . ... ...
ROW CF : ... .. 5 ... ... ... : ... .. . P7E ... ... : ... .. . ... : ... .. 0 ... : ... .. . ... ...
ROW D0 : ... .. 6 ... ... ... : ... .. . ... ... ... : ... .. . ... : ... .. . ... : ... .. . ... ...
ROW D1 : ... .. . ... ... ... : ... .. . ... ... ... : ... .. . ... : ... .. . ... : ... .. . ... ...
ROW D2 : ... .. 7 ... ... ... : ... .. . ... ... ... : ... .. . ... : ... .. . ... : ... .. . ... ...
ROW D3 : ... .. . ... ... ... : ... .. . P80 ... ... : ... .. . ... : ... .. . ... : ... .. . ... ...
ROW D4 : ... .. . ... ... ... : ... .. . ... ... ... : ... .. . ... : ... .. . ... : ... .. . ... ...
ROW D5 : ... .. 6 ... ... ... : ... .. . ... ... ... : ... .. . ... : ... .. . ... : ... .. . ... ...
ROW D6 : ... .. . ... ... ... : ... .. . ... ... ... : --- .. . ... : ... .. . ... : ... .. . ... ...
ROW D7 : ... .. . ... ... ... : ... .. . P7E ... ... : ... .. . ... : ... .. . ... : ... .. . ... ...
ROW D8 : D#2 00 4 ... ... ... : ... .. . ... ... ... : G#2 00 . ... : ... .. C ... : ... .. . ... ...
ROW D9 : ... .. 5 ... ... ... : ... .. . ... ... ... : ... .. . ... : ... .. 0 ... : ... .. . ... ...
ROW DA : ... .. 6 ... ... ... : ... .. . ... ... ... : ... .. . ... : ... .. . ... : ... .. . ... ...
ROW DB : ... .. . ... ... ... : ... .. . P80 ... ... : ... .. . ... : ... .. . ... : ... .. . ... ...
ROW DC : ... .. 7 ... ... ... : ... .. . ... ... ... : ... .. . ... : ... .. . ... : ... .. . ... ...
ROW DD : ... .. . ... ... ... : ... .. . ... ... ... : ... .. . ... : ... .. . ... : ... .. . ... ...
ROW DE : ... .. . ... ... ... : ... .. . ... ... ... : ... .. . ... : ... .. . ... : ... .. . ... ...
ROW DF : ... .. 6 ... ... ... : ... .. . P7E ... ... : ... .. . ... : ... .. . ... : ... .. . ... ...
ROW E0 : ... .. . ... ... ... : ... .. . ... ... ... : --- .. . ... : ... .. . ... : ... .. . ... ...
ROW E1 : ... .. . ... ... ... : ... .. . ... ... ... : ... .. . ... : ... .. . ... : ... .. . ... ...
ROW E2 : G#1 00 4 ... ... ... : ... .. . ... ... ... : ... .. . ... : ... .. . ... : ... .. . ... ...
ROW E3 : ... .. 5 ... ... ... : ... .. . P80 ... ... : ... .. . ... : ... .. . ... : ... .. . ... ...
ROW E4 : ... .. 6 ... ... ... : ... .. . ... ... ... : ... .. . ... : ... .. . ... : ... .. . ... ...
ROW E5 : ... .. . ... ... ... : ... .. . ... ... ... : ... .. . ... : ... .. . ... : ... .. . ... ...
ROW E6 : ... .. 7 ... ... ... : ... .. . ... ... ... : ... .. . ... : ... .. . ... : ... .. . ... ...
ROW E7 : ... .. . ... ... ... : ... .. . P7E ... ... : ... .. . P7F : ... .. . ... : ... .. . ... ...
ROW E8 : ... .. . ... ... ... : ... .. . ... ... ... : ... .. . ... : ... .. . ... : ... .. . ... ...
ROW E9 : ... .. 6 ... ... ... : ... .. . ... ... ... : ... .. . ... : ... .. . ... : ... .. . ... ...
ROW EA : ... .. . ... ... ... : ... .. . ... ... ... : ... .. . ... : ... .. . ... : ... .. . ... ...
ROW EB : ... .. . ... ... ... : ... .. . P80 ... ... : ... .. . P81 : ... .. . ... : ... .. . ... ...
ROW EC : D#2 00 4 ... ... ... : ... .. . ... ... ... : G#2 00 . P80 : ... .. C ... : ... .. . ... ...
ROW ED : ... .. 5 ... ... ... : ... .. . ... ... ... : ... .. . ... : ... .. 0 ... : ... .. . ... ...
ROW EE : ... .. 6 ... ... ... : ... .. . ... ... ... : ... .. . ... : ... .. . ... : ... .. . ... ...
ROW EF : ... .. . ... ... ... : ... .. . P7E ... ... : ... .. . ... : ... .. . ... : ... .. . ... ...
ROW F0 : ... .. 7 ... ... ... : ... .. . ... ... ... : ... .. . ... : ... .. . ... : ... .. . ... ...
ROW F1 : ... .. . ... ... ... : ... .. . ... ... ... : ... .. . ... : ... .. . ... : ... .. . ... ...
ROW F2 : ... .. . ... ... ... : ... .. . ... ... ... : ... .. . ... : ... .. . ... : ... .. . ... ...
ROW F3 : ... .. 6 ... ... ... : ... .. . P80 ... ... : ... .. . ... : ... .. . ... : ... .. . ... ...
ROW F4 : ... .. . ... ... ... : ... .. . ... ... ... : --- .. . ... : ... .. . ... : ... .. . ... ...
ROW F5 : ... .. . ... ... ... : ... .. . ... ... ... : ... .. . ... : ... .. . ... : ... .. . ... ...
ROW F6 : G#1 00 4 ... ... ... : ... .. . ... ... ... : G#2 00 . ... : ... .. C ... : ... .. . ... ...
ROW F7 : ... .. 5 ... ... ... : ... .. . P7E ... ... : ... .. . ... : ... .. 0 ... : ... .. . ... ...
ROW F8 : ... .. 6 ... ... ... : ... .. . ... ... ... : ... .. . ... : ... .. . ... : ... .. . ... ...
ROW F9 : ... .. . ... ... ... : ... .. . ... ... ... : ... .. . ... : ... .. . ... : ... .. . ... ...
ROW FA : ... .. 7 ... ... ... : ... .. . ... ... ... : ... .. . ... : ... .. . ... : ... .. . ... ...
ROW FB : ... .. . ... ... ... : ... .. . P80 ... ... : ... .. . ... : ... .. . ... : ... .. . ... ...
ROW FC : ... .. . ... ... ... : ... .. . ... ... ... : ... .. . ... : ... .. . ... : ... .. . ... ...
ROW FD : ... .. 6 ... ... ... : ... .. . ... ... ... : ... .. . ... : ... .. . ... : ... .. . ... ...
ROW FE : ... .. . ... ... ... : ... .. . ... ... ... : --- .. . ... : ... .. . ... : ... .. . ... ...
ROW FF : ... .. . ... ... ... : ... .. . P7E ... ... : ... .. . ... : ... .. . ... : ... .. . ... ...

PATTERN 05
ROW 00 : C#2 00 4 ... ... ... : A#3 00 4 P80 ... ... : F#2 00 . ... : ... .. C ... : ... .. . ... ...
ROW 01 : ... .. 5 ... ... ... : ... .. 5 ... ... ... : ... .. . ... : ... .. 0 ... : ... .. . ... ...
ROW 02 : ... .. 6 ... ... ... : ... .. 6 ... ... ... : ... .. . ... : ... .. . ... : ... .. . ... ...
ROW 03 : ... .. . ... ... ... : ... .. . ... ... ... : ... .. . ... : ... .. . ... : ... .. . ... ...
ROW 04 : ... .. 7 ... ... ... : ... .. 7 ... ... ... : ... .. . ... : ... .. . ... : ... .. . ... ...
ROW 05 : ... .. . ... ... ... : ... .. . ... ... ... : ... .. . ... : ... .. . ... : ... .. . ... ...
ROW 06 : ... .. . ... ... ... : ... .. . ... ... ... : ... .. . ... : ... .. . ... : ... .. . ... ...
ROW 07 : ... .. 6 ... ... ... : ... .. 6 ... ... ... : ... .. . ... : ... .. . ... : ... .. . ... ...
ROW 08 : ... .. . ... ... ... : ... .. . ... ... ... : --- .. . ... : ... .. . ... : ... .. . ... ...
ROW 09 : ... .. . ... ... ... : ... .. . ... ... ... : ... .. . ... : ... .. . ... : ... .. . ... ...
ROW 0A : ... .. . ... ... ... : ... .. . ... ... ... : ... .. . ... : ... .. . ... : ... .. . ... ...
ROW 0B : ... .. 5 ... ... ... : ... .. 5 ... ... ... : ... .. . ... : ... .. . ... : ... .. . ... ...
ROW 0C : ... .. . ... ... ... : ... .. . ... ... ... : ... .. . ... : ... .. . ... : ... .. . ... ...
ROW 0D : ... .. . ... ... ... : ... .. . ... ... ... : ... .. . ... : ... .. . ... : ... .. . ... ...
ROW 0E : ... .. . ... ... ... : ... .. . ... ... ... : ... .. . ... : ... .. . ... : ... .. . ... ...
ROW 0F : ... .. 4 P7E ... ... : ... .. 4 P7F ... ... : ... .. . P7F : ... .. . ... : ... .. . ... ...
ROW 10 : ... .. . ... ... ... : ... .. . ... ... ... : ... .. . ... : ... .. . ... : ... .. . ... ...
ROW 11 : ... .. . ... ... ... : ... .. . ... ... ... : ... .. . ... : ... .. . ... : ... .. . ... ...
ROW 12 : ... .. . ... ... ... : ... .. . ... ... ... : ... .. . ... : ... .. . ... : ... .. . ... ...
ROW 13 : ... .. . P80 ... ... : ... .. . P81 ... ... : ... .. . P81 : ... .. . ... : ... .. . ... ...
ROW 14 : ... .. . P7F ... ... : ... .. . ... ... ... : F#2 00 . P80 : ... .. C ... : ... .. . ... ...
ROW 15 : ... .. 5 ... ... ... : ... .. . ... ... ... : ... .. . ... : ... .. 0 ... : ... .. . ... ...
ROW 16 : ... .. 6 ... ... ... : ... .. . ... ... ... : ... .. . ... : ... .. . ... : ... .. . ... ...
ROW 17 : ... .. . ... ... ... : ... .. . P7F ... ... : ... .. . ... : ... .. . ... : ... .. . ... ...
ROW 18 : ... .. 7 ... ... ... : ... .. . ... ... ... : ... .. . ... : ... .. . ... : ... .. . ... ...
ROW 19 : ... .. . ... ... ... : ... .. 3 ... ... ... : ... .. . ... : ... .. . ... : ... .. . ... ...
ROW 1A : ... .. . ... ... ... : ... .. . ... ... ... : ... .. . ... : ... .. . ... : ... .. . ... ...
ROW 1B : ... .. 6 ... ... ... : ... .. . P81 ... ... : ... .. . ... : ... .. . ... : ... .. . ... ...
ROW 1C : ... .. . ... ... ... : ... .. . ... ... ... : --- .. . ... : ... .. . ... : ... .. . ... ...
ROW 1D : ... .. . ... ... ... : ... .. . ... ... ... : ... .. . ... : ... .. . ... : ... .. . ... ...
ROW 1E : F#1 00 4 ... ... ... : ... .. 2 ... ... ... : F#2 00 . ... : ... .. C ... : ... .. . ... ...
ROW 1F : ... .. 5 ... ... ... : ... .. . P7F ... ... : ... .. . ... : ... .. 0 ... : ... .. . ... ...
ROW 20 : ... .. 6 ... ... ... : ... .. 0 ... ... ... : ... .. . ... : ... .. . ... : ... .. . ... ...
ROW 21 : ... .. . ... ... ... : ... .. . ... ... ... : ... .. . ... : ... .. . ... : ... .. . ... ...
ROW 22 : ... .. 7 ... ... ... : ... .. . ... ... ... : ... .. . ... : ... .. . ... : ... .. . ... ...
ROW 23 : ... .. . ... ... ... : ... .. . P81 ... ... : ... .. . ... : ... .. . ... : ... .. . ... ...
ROW 24 : ... .. . ... ... ... : ... .. . ... ... ... : ... .. . ... : ... .. . ... : ... .. . ... ...
ROW 25 : ... .. 6 ... ... ... : ... .. . ... ... ... : ... .. . ... : ... .. . ... : ... .. . ... ...
ROW 26 : ... .. . ... ... ... : ... .. . ... ... ... : --- .. . ... : ... .. . ... : ... .. . ... ...
ROW 27 : ... .. . ... ... ... : ... .. . P7F ... ... : ... .. . ... : ... .. . ... : ... .. . ... ...
ROW 28 : C#2 00 4 ... ... ... : F-3 00 4 ... ... ... : F#2 00 . ... : ... .. C ... : ... .. . ... ...
ROW 29 : ... .. 5 ... ... ... : ... .. 5 ... ... ... : ... .. . ... : ... .. 0 ... : ... .. . ... ...
ROW 2A : ... .. 6 ... ... ... : ... .. 6 ... ... ... : ... .. . ... : ... .. . ... : ... .. . ... ...
ROW 2B : ... .. . ... ... ... : ... .. . ... ... ... : ... .. . ... : ... .. . ... : ... .. . ... ...
ROW 2C : ... .. 7 ... ... ... : ... .. 7 ... ... ... : ... .. . ... : ... .. . ... : ... .. . ... ...
ROW 2D : ... .. . ... ... ... : ... .. . ... ... ... : ... .. . ... : ... .. . ... : ... .. . ... ...
ROW 2E : ... .. . ... ... ... : ... .. . ... ... ... : ... .. . ... : ... .. . ... : ... .. . ... ...
ROW 2F : ... .. 6 ... ... ... : ... .. 6 ... ... ... : ... .. . ... : ... .. . ... : ... .. . ... ...
ROW 30 : ... .. . ... ... ... : ... .. . ... ... ... : --- .. . ... : ... .. . ... : ... .. . ... ...
ROW 31 : ... .. . ... ... ... : ... .. . ... ... ... : ... .. . ... : ... .. . ... : ... .. . ... ...
ROW 32 : ... .. . ... ... ... : ... .. . ... ... ... : ... .. . ... : ... .. . ... : ... .. . ... ...
ROW 33 : ... .. 5 ... ... ... : ... .. 5 ... ... ... : ... .. . ... : ... .. . ... : ... .. . ... ...
ROW 34 : ... .. . ... ... ... : ... .. . ... ... ... : ... .. . ... : ... .. . ... : ... .. . ... ...
ROW 35 : ... .. . ... ... ... : ... .. . ... ... ... : ... .. . ... : ... .. . ... : ... .. . ... ...
ROW 36 : ... .. . ... ... ... : ... .. . ... ... ... : ... .. . ... : ... .. . ... : ... .. . ... ...
ROW 37 : ... .. 4 P7E ... ... : ... .. 4 P7E ... ... : ... .. . P7F : ... .. . ... : ... .. . ... ...
ROW 38 : ... .. . ... ... ... : ... .. . ... ... ... : ... .. . ... : ... .. . ... : ... .. . ... ...
ROW 39 : ... .. . ... ... ... : ... .. . ... ... ... : ... .. . ... : ... .. . ... : ... .. . ... ...
ROW 3A : ... .. . ... ... ... : ... .. . ... ... ... : ... .. . ... : ... .. . ... : ... .. . ... ...
ROW 3B : ... .. . P80 ... ... : ... .. . P80 ... ... : ... .. . P81 : ... .. . ... : ... .. . ... ...
ROW 3C : ... .. . P7F ... ... : ... .. . ... ... ... : F#2 00 . P80 : ... .. C ... : ... .. . ... ...
ROW 3D : ... .. 5 ... ... ... : ... .. . ... ... ... : ... .. . ... : ... .. 0 ... : ... .. . ... ...
ROW 3E : ... .. 6 ... ... ... : ... .. . ... ... ... : ... .. . ... : ... .. . ... : ... .. . ... ...
ROW 3F : ... .. . ... ... ... : ... .. . P7E ... ... : ... .. . ... : ... .. . ... : ... .. . ... ...
ROW 40 : ... .. 7 ... ... ... : ... .. . ... ... ... : ... .. . ... : ... .. . ... : ... .. . ... ...
ROW 41 : ... .. . ... ... ... : ... .. 3 ... ... ... : ... .. . ... : ... .. . ... : ... .. . ... ...
ROW 42 : ... .. . ... ... ... : ... .. . ... ... ... : ... .. . ... : ... .. . ... : ... .. . ... ...
ROW 43 : ... .. 6 ... ... ... : ... .. . P80 ... ... : ... .. . ... : ... .. . ... : ... .. . ... ...
ROW 44 : ... .. . ... ... ... : ... .. . ... ... ... : --- .. . ... : ... .. . ... : ... .. . ... ...
ROW 45 : ... .. . ... ... ... : ... .. . ... ... ... : ... .. . ... : ... .. . ... : ... .. . ... ...
ROW 46 : F#1 00 4 ... ... ... : ... .. 2 ... ... ... : F#2 00 . ... : ... .. C ... : ... .. . ... ...
ROW 47 : ... .. 5 ... ... ... : ... .. . P7E ... ... : ... .. . ... : ... .. 0 ... : ... .. . ... ...
ROW 48 : ... .. 6 ... ... ... : ... .. 0 ... ... ... : ... .. . ... : ... .. . ... : ... .. . ... ...
ROW 49 : ... .. . ... ... ... : ... .. . ... ... ... : ... .. . ... : ... .. . ... : ... .. . ... ...
ROW 4A : ... .. 7 ... ... ... : ... .. . ... ... ... : ... .. . ... : ... .. . ... : ... .. . ... ...
ROW 4B : ... .. . ... ... ... : ... .. . P80 ... ... : ... .. . ... : ... .. . ... : ... .. . ... ...
ROW 4C : ... .. . ... ... ... : ... .. . ... ... ... : ... .. . ... : ... .. . ... : ... .. . ... ...
ROW 4D : ... .. 6 ... ... ... : ... .. . ... ... ... : ... .. . ... : ... .. . ... : ... .. . ... ...
ROW 4E : ... .. . ... ... ... : ... .. . ... ... ... : --- .. . ... : ... .. . ... : ... .. . ... ...
ROW 4F : ... .. . ... ... ... : ... .. . P7E ... ... : ... .. . ... : ... .. . ... : ... .. . ... ...
ROW 50 : C#2 00 4 ... ... ... : ... .. . ... ... ... : F#2 00 . ... : ... .. C ... : ... .. . ... ...
ROW 51 : ... .. 5 ... ... ... : ... .. . ... ... ... : ... .. . ... : ... .. 0 ... : ... .. . ... ...
ROW 52 : ... .. 6 ... ... ... : ... .. . ... ... ... : ... .. . ... : ... .. . ... : ... .. . ... ...
ROW 53 : ... .. . ... ... ... : ... .. . P80 ... ... : ... .. . ... : ... .. . ... : ... .. . ... ...
ROW 54 : ... .. 7 ... ... ... : ... .. . ... ... ... : ... .. . ... : ... .. . ... : ... .. . ... ...
ROW 55 : ... .. . ... ... ... : ... .. . ... ... ... : ... .. . ... : ... .. . ... : ... .. . ... ...
ROW 56 : ... .. . ... ... ... : ... .. . ... ... ... : ... .. . ... : ... .. . ... : ... .. . ... ...
ROW 57 : ... .. 6 ... ... ... : ... .. . P7E ... ... : ... .. . ... : ... .. . ... : ... .. . ... ...
ROW 58 : ... .. . ... ... ... : ... .. . ... ... ... : --- .. . ... : ... .. . ... : ... .. . ... ...
ROW 59 : ... .. . ... ... ... : ... .. . ... ... ... : ... .. . ... : ... .. . ... : ... .. . ... ...
ROW 5A : ... .. . ... ... ... : ... .. . ... ... ... : ... .. . ... : ... .. . ... : ... .. . ... ...
ROW 5B : ... .. 5 ... ... ... : ... .. . P80 ... ... : ... .. . ... : ... .. . ... : ... .. . ... ...
ROW 5C : ... .. . ... ... ... : ... .. . ... ... ... : ... .. . ... : ... .. . ... : ... .. . ... ...
ROW 5D : ... .. . ... ... ... : ... .. . ... ... ... : ... .. . ... : ... .. . ... : ... .. . ... ...
ROW 5E : ... .. . ... ... ... : ... .. . ... ... ... : ... .. . ... : ... .. . ... : ... .. . ... ...
ROW 5F : ... .. 4 P7E ... ... : ... .. . P7E ... ... : ... .. . P7F : ... .. . ... : ... .. . ... ...
ROW 60 : ... .. . ... ... ... : ... .. . ... ... ... : ... .. . ... : ... .. . ... : ... .. . ... ...
ROW 61 : ... .. . ... ... ... : ... .. . ... ... ... : ... .. . ... : ... .. . ... : ... .. . ... ...
ROW 62 : ... .. . ... ... ... : ... .. . ... ... ... : ... .. . ... : ... .. . ... : ... .. . ... ...
ROW 63 : ... .. . P80 ... ... : ... .. . P80 ... ... : ... .. . P81 : ... .. . ... : ... .. . ... ...
ROW 64 : ... .. . P7F ... ... : A#3 00 4 ... ... ... : F#2 00 . P80 : ... .. C ... : ... .. . ... ...
ROW 65 : ... .. 5 ... ... ... : ... .. 5 ... ... ... : ... .. . ... : ... .. 0 ... : ... .. . ... ...
ROW 66 : ... .. 6 ... ... ... : ... .. 6 ... ... ... : ... .. . ... : ... .. . ... : ... .. . ... ...
ROW 67 : ... .. . ... ... ... : ... .. . ... ... ... : ... .. . ... : ... .. . ... : ... .. . ... ...
ROW 68 : ... .. 7 ... ... ... : ... .. 7 ... ... ... : ... .. . ... : ... .. . ... : ... .. . ... ...
ROW 69 : ... .. . ... ... ... : ... .. . ... ... ... : ... .. . ... : ... .. . ... : ... .. . ... ...
ROW 6A : ... .. . ... ... ... : ... .. . ... ... ... : ... .. . ... : ... .. . ... : ... .. . ... ...
ROW 6B : ... .. 6 ... ... ... : ... .. 6 ... ... ... : ... .. . ... : ... .. . ... : ... .. . ... ...
ROW 6C : ... .. . ... ... ... : ... .. . ... ... ... : --- .. . ... : ... .. . ... : ... .. . ... ...
ROW 6D : ... .. . ... ... ... : ... .. . ... ... ... : ... .. . ... : ... .. . ... : ... .. . ... ...
ROW 6E : F#1 00 4 ... ... ... : ... .. . ... ... ... : F#2 00 . ... : ... .. C ... : ... .. . ... ...
ROW 6F : ... .. 5 ... ... ... : ... .. 5 ... ... ... : ... .. . ... : ... .. 0 ... : ... .. . ... ...
ROW 70 : ... .. 6 ... ... ... : ... .. . ... ... ... : ... .. . ... : ... .. . ... : ... .. . ... ...
ROW 71 : ... .. . ... ... ... : ... .. . ... ... ... : ... .. . ... : ... .. . ... : ... .. . ... ...
ROW 72 : ... .. 7 ... ... ... : ... .. . ... ... ... : ... .. . ... : ... .. . ... : ... .. . ... ...
ROW 73 : ... .. . ... ... ... : ... .. 4 P7F ... ... : ... .. . ... : ... .. . ... : ... .. . ... ...
ROW 74 : ... .. . ... ... ... : ... .. . ... ... ... : ... .. . ... : ... .. . ... : ... .. . ... ...
ROW 75 : ... .. 6 ... ... ... : ... .. . ... ... ... : ... .. . ... : ... .. . ... : ... .. . ... ...
ROW 76 : ... .. . ... ... ... : ... .. . ... ... ... : --- .. . ... : ... .. . ... : ... .. . ... ...
ROW 77 : ... .. . ... ... ... : ... .. . P81 ... ... : ... .. . ... : ... .. . ... : ... .. . ... ...
ROW 78 : C#2 00 4 ... ... ... : ... .. . P80 ... ... : F#2 00 . ... : ... .. C ... : ... .. . ... ...
ROW 79 : ... .. 5 ... ... ... : ... .. 5 ... ... ... : ... .. . ... : ... .. 0 ... : ... .. . ... ...
ROW 7A : ... .. 6 ... ... ... : ... .. 6 ... ... ... : ... .. . ... : ... .. . ... : ... .. . ... ...
ROW 7B : ... .. . ... ... ... : ... .. . ... ... ... : ... .. . ... : ... .. . ... : ... .. . ... ...
ROW 7C : ... .. 7 ... ... ... : ... .. 7 ... ... ... : ... .. . ... : ... .. . ... : ... .. . ... ...
ROW 7D : ... .. . ... ... ... : ... .. . ... ... ... : ... .. . ... : ... .. . ... : ... .. . ... ...
ROW 7E : ... .. . ... ... ... : ... .. . ... ... ... : ... .. . ... : ... .. . ... : ... .. . ... ...
ROW 7F : ... .. 6 ... ... ... : ... .. 6 ... ... ... : ... .. . ... : ... .. . ... : ... .. . ... ...
ROW 80 : ... .. . ... ... ... : ... .. . ... ... ... : --- .. . ... : ... .. . ... : ... .. . ... ...
ROW 81 : ... .. . ... ... ... : ... .. . ... ... ... : ... .. . ... : ... .. . ... : ... .. . ... ...
ROW 82 : F#1 00 4 ... ... ... : C-4 00 4 ... ... ... : ... .. . ... : ... .. . ... : ... .. . ... ...
ROW 83 : ... .. 5 ... ... ... : ... .. 5 ... ... ... : ... .. . ... : ... .. . ... : ... .. . ... ...
ROW 84 : ... .. 6 ... ... ... : ... .. 6 ... ... ... : ... .. . ... : ... .. . ... : ... .. . ... ...
ROW 85 : ... .. . ... ... ... : ... .. . ... ... ... : ... .. . ... : ... .. . ... : ... .. . ... ...
ROW 86 : ... .. 7 ... ... ... : ... .. 7 ... ... ... : ... .. . ... : ... .. . ... : ... .. . ... ...
ROW 87 : ... .. . ... ... ... : ... .. . ... ... ... : ... .. . P7F : ... .. . ... : ... .. . ... ...
ROW 88 : ... .. . ... ... ... : ... .. . ... ... ... : ... .. . ... : ... .. . ... : ... .. . ... ...
ROW 89 : ... .. 6 ... ... ... : ... .. 6 ... ... ... : ... .. . ... : ... .. . ... : ... .. . ... ...
ROW 8A : ... .. . ... ... ... : ... .. . ... ... ... : ... .. . ... : ... .. . ... : ... .. . ... ...
ROW 8B : ... .. . ... ... ... : ... .. . ... ... ... : ... .. . P81 : ... .. . ... : ... .. . ... ...
ROW 8C : C#2 00 4 ... ... ... : D-4 00 4 P7F ... ... : F#2 00 . P80 : ... .. C ... : ... .. . ... ...
ROW 8D : ... .. 5 ... ... ... : ... .. 5 ... ... ... : ... .. . ... : ... .. 0 ... : ... .. . ... ...
ROW 8E : ... .. 6 ... ... ... : ... .. 6 ... ... ... : ... .. . ... : ... .. . ... : ... .. . ... ...
ROW 8F : ... .. . ... ... ... : ... .. . ... ... ... : ... .. . ... : ... .. . ... : ... .. . ... ...
ROW 90 : ... .. 7 ... ... ... : ... .. 7 ... ... ... : ... .. . ... : ... .. . ... : ... .. . ... ...
ROW 91 : ... .. . ... ... ... : ... .. . ... ... ... : ... .. . ... : ... .. . ... : ... .. . ... ...
ROW 92 : ... .. . ... ... ... : ... .. . ... ... ... : ... .. . ... : ... .. . ... : ... .. . ... ...
ROW 93 : ... .. 6 ... ... ... : ... .. 6 ... ... ... : ... .. . ... : ... .. . ... : ... .. . ... ...
ROW 94 : ... .. . ... ... ... : ... .. . ... ... ... : --- .. . ... : ... .. . ... : ... .. . ... ...
ROW 95 : ... .. . ... ... ... : ... .. . ... ... ... : ... .. . ... : ... .. . ... : ... .. . ... ...
ROW 96 : F#1 00 4 ... ... ... : D#4 00 4 P80 ... ... : F#2 00 . ... : ... .. C ... : ... .. . ... ...
ROW 97 : ... .. 5 ... ... ... : ... .. 5 ... ... ... : ... .. . ... : ... .. 0 ... : ... .. . ... ...
ROW 98 : ... .. 6 ... ... ... : ... .. 6 ... ... ... : ... .. . ... : ... .. . ... : ... .. . ... ...
ROW 99 : ... .. . ... ... ... : ... .. . ... ... ... : ... .. . ... : ... .. . ... : ... .. . ... ...
ROW 9A : ... .. 7 ... ... ... : ... .. 7 ... ... ... : ... .. . ... : ... .. . ... : ... .. . ... ...
ROW 9B : ... .. . ... ... ... : ... .. . ... ... ... : ... .. . ... : ... .. . ... : ... .. . ... ...
ROW 9C : ... .. . ... ... ... : ... .. . ... ... ... : ... .. . ... : ... .. . ... : ... .. . ... ...
ROW 9D : ... .. 6 ... ... ... : ... .. 6 ... ... ... : ... .. . ... : ... .. . ... : ... .. . ... ...
ROW 9E : ... .. . ... ... ... : ... .. . ... ... ... : --- .. . ... : ... .. . ... : ... .. . ... ...
ROW 9F : ... .. . ... ... ... : ... .. . ... ... ... : ... .. . ... : ... .. . ... : ... .. . ... ...
ROW A0 : C-2 00 4 ... ... ... : F-4 00 4 P7F ... ... : F-2 00 . ... : ... .. C ... : ... .. . ... ...
ROW A1 : ... .. 5 ... ... ... : ... .. 5 ... ... ... : ... .. . ... : ... .. 0 ... : ... .. . ... ...
ROW A2 : ... .. 6 ... ... ... : ... .. 6 ... ... ... : ... .. . ... : ... .. . ... : ... .. . ... ...
ROW A3 : ... .. . ... ... ... : ... .. . ... ... ... : ... .. . ... : ... .. . ... : ... .. . ... ...
ROW A4 : ... .. 7 ... ... ... : ... .. 7 ... ... ... : ... .. . ... : ... .. . ... : ... .. . ... ...
ROW A5 : ... .. . ... ... ... : ... .. . ... ... ... : ... .. . ... : ... .. . ... : ... .. . ... ...
ROW A6 : ... .. . ... ... ... : ... .. . ... ... ... : ... .. . ... : ... .. . ... : ... .. . ... ...
ROW A7 : ... .. 6 ... ... ... : ... .. 6 ... ... ... : ... .. . ... : ... .. . ... : ... .. . ... ...
ROW A8 : ... .. . ... ... ... : ... .. . ... ... ... : --- .. . ... : ... .. . ... : ... .. . ... ...
ROW A9 : ... .. . ... ... ... : ... .. . ... ... ... : ... .. . ... : ... .. . ... : ... .. . ... ...
ROW AA : ... .. . ... ... ... : ... .. . ... ... ... : ... .. . ... : ... .. . ... : ... .. . ... ...
ROW AB : ... .. 5 ... ... ... : ... .. 5 ... ... ... : ... .. . ... : ... .. . ... : ... .. . ... ...
ROW AC : ... .. . ... ... ... : ... .. . ... ... ... : ... .. . ... : ... .. . ... : ... .. . ... ...
ROW AD : ... .. . ... ... ... : ... .. . ... ... ... : ... .. . ... : ... .. . ... : ... .. . ... ...
ROW AE : ... .. . ... ... ... : ... .. . ... ... ... : ... .. . ... : ... .. . ... : ... .. . ... ...
ROW AF : ... .. 4 P7E ... ... : ... .. 4 P7E ... ... : ... .. . P7F : ... .. . ... : ... .. . ... ...
ROW B0 : ... .. . ... ... ... : ... .. . ... ... ... : ... .. . ... : ... .. . ... : ... .. . ... ...
ROW B1 : ... .. . ... ... ... : ... .. . ... ... ... : ... .. . ... : ... .. . ... : ... .. . ... ...
ROW B2 : ... .. . ... ... ... : ... .. . ... ... ... : ... .. . ... : ... .. . ... : ... .. . ... ...
ROW B3 : ... .. . P80 ... ... : ... .. . P80 ... ... : ... .. . P81 : ... .. . ... : ... .. . ... ...
ROW B4 : A#2 00 4 ... ... ... : ... .. . ... ... ... : F-2 00 . P80 : ... .. C ... : ... .. . ... ...
ROW B5 : ... .. 5 ... ... ... : ... .. . ... ... ... : ... .. . ... : ... .. 0 ... : ... .. . ... ...
ROW B6 : ... .. 6 ... ... ... : ... .. . ... ... ... : ... .. . ... : ... .. . ... : ... .. . ... ...
ROW B7 : ... .. . ... ... ... : ... .. . P7E ... ... : ... .. . ... : ... .. . ... : ... .. . ... ...
ROW B8 : ... .. 7 ... ... ... : ... .. . ... ... ... : ... .. . ... : ... .. . ... : ... .. . ... ...
ROW B9 : ... .. . ... ... ... : ... .. 3 ... ... ... : ... .. . ... : ... .. . ... : ... .. . ... ...
ROW BA : ... .. . ... ... ... : ... .. . ... ... ... : ... .. . ... : ... .. . ... : ... .. . ... ...
ROW BB : ... .. 6 ... ... ... : ... .. . P80 ... ... : ... .. . ... : ... .. . ... : ... .. . ... ...
ROW BC : ... .. . ... ... ... : ... .. . ... ... ... : --- .. . ... : ... .. . ... : ... .. . ... ...
ROW BD : ... .. . ... ... ... : ... .. . ... ... ... : ... .. . ... : ... .. . ... : ... .. . ... ...
ROW BE : ... .. . ... ... ... : ... .. 2 ... ... ... : F-2 00 . ... : ... .. C ... : ... .. . ... ...
ROW BF : ... .. 5 ... ... ... : ... .. . P7E ... ... : ... .. . ... : ... .. 0 ... : ... .. . ... ...
ROW C0 : ... .. . ... ... ... : ... .. 0 ... ... ... : ... .. . ... : ... .. . ... : ... .. . ... ...
ROW C1 : ... .. . ... ... ... : ... .. . ... ... ... : ... .. . ... : ... .. . ... : ... .. . ... ...
ROW C2 : ... .. . ... ... ... : ... .. . ... ... ... : ... .. . ... : ... .. . ... : ... .. . ... ...
ROW C3 : ... .. 4 P7F ... ... : ... .. . P80 ... ... : ... .. . ... : ... .. . ... : ... .. . ... ...
ROW C4 : ... .. . ... ... ... : ... .. . ... ... ... : ... .. . ... : ... .. . ... : ... .. . ... ...
ROW C5 : ... .. . ... ... ... : ... .. . ... ... ... : ... .. . ... : ... .. . ... : ... .. . ... ...
ROW C6 : ... .. . ... ... ... : ... .. . ... ... ... : --- .. . ... : ... .. . ... : ... .. . ... ...
ROW C7 : ... .. . P81 ... ... : ... .. . P7E ... ... : ... .. . ... : ... .. . ... : ... .. . ... ...
ROW C8 : ... .. . P80 ... ... : ... .. . ... ... ... : F-2 00 . ... : ... .. C ... : ... .. . ... ...
ROW C9 : ... .. 5 ... ... ... : ... .. . ... ... ... : ... .. . ... : ... .. 0 ... : ... .. . ... ...
ROW CA : ... .. 6 ... ... ... : ... .. . ... ... ... : ... .. . ... : ... .. . ... : ... .. . ... ...
ROW CB : ... .. . ... ... ... : ... .. . P80 ... ... : ... .. . ... : ... .. . ... : ... .. . ... ...
ROW CC : ... .. 7 ... ... ... : ... .. . ... ... ... : ... .. . ... : ... .. . ... : ... .. . ... ...
ROW CD : ... .. . ... ... ... : ... .. . ... ... ... : ... .. . ... : ... .. . ... : ... .. . ... ...
ROW CE : ... .. . ... ... ... : ... .. . ... ... ... : ... .. . ... : ... .. . ... : ... .. . ... ...
ROW CF : ... .. 6 ... ... ... : ... .. . P7E ... ... : ... .. . ... : ... .. . ... : ... .. . ... ...
ROW D0 : ... .. . ... ... ... : ... .. . ... ... ... : --- .. . ... : ... .. . ... : ... .. . ... ...
ROW D1 : ... .. . ... ... ... : ... .. . ... ... ... : ... .. . ... : ... .. . ... : ... .. . ... ...
ROW D2 : C-3 00 4 ... ... ... : ... .. . ... ... ... : ... .. . ... : ... .. . ... : ... .. . ... ...
ROW D3 : ... .. 5 ... ... ... : ... .. . P80 ... ... : ... .. . ... : ... .. . ... : ... .. . ... ...
ROW D4 : ... .. 6 ... ... ... : ... .. . ... ... ... : ... .. . ... : ... .. . ... : ... .. . ... ...
ROW D5 : ... .. . ... ... ... : ... .. . ... ... ... : ... .. . ... : ... .. . ... : ... .. . ... ...
ROW D6 : ... .. 7 ... ... ... : ... .. . ... ... ... : ... .. . ... : ... .. . ... : ... .. . ... ...
ROW D7 : ... .. . ... ... ... : ... .. . P7E ... ... : ... .. . P7F : ... .. . ... : ... .. . ... ...
ROW D8 : ... .. . ... ... ... : ... .. . ... ... ... : ... .. . ... : ... .. . ... : ... .. . ... ...
ROW D9 : ... .. 6 ... ... ... : ... .. . ... ... ... : ... .. . ... : ... .. . ... : ... .. . ... ...
ROW DA : ... .. . ... ... ... : ... .. . ... ... ... : ... .. . ... : ... .. . ... : ... .. . ... ...
ROW DB : ... .. . ... ... ... : ... .. . P80 ... ... : ... .. . P81 : ... .. . ... : ... .. . ... ...
ROW DC : D-3 00 4 ... ... ... : ... .. . ... ... ... : F-2 00 . P80 : ... .. C ... : ... .. . ... ...
ROW DD : ... .. 5 ... ... ... : ... .. . ... ... ... : ... .. . ... : ... .. 0 ... : ... .. . ... ...
ROW DE : ... .. 6 ... ... ... : ... .. . ... ... ... : ... .. . ... : ... .. . ... : ... .. . ... ...
ROW DF : ... .. . ... ... ... : ... .. . P7E ... ... : ... .. . ... : ... .. . ... : ... .. . ... ...
ROW E0 : ... .. 7 ... ... ... : ... .. . ... ... ... : ... .. . ... : ... .. . ... : ... .. . ... ...
ROW E1 : ... .. . ... ... ... : ... .. . ... ... ... : ... .. . ... : ... .. . ... : ... .. . ... ...
ROW E2 : ... .. . ... ... ... : ... .. . ... ... ... : ... .. . ... : ... .. . ... : ... .. . ... ...
ROW E3 : ... .. 6 ... ... ... : ... .. . P80 ... ... : ... .. . ... : ... .. . ... : ... .. . ... ...
ROW E4 : ... .. . ... ... ... : ... .. . ... ... ... : --- .. . ... : ... .. . ... : ... .. . ... ...
ROW E5 : ... .. . ... ... ... : ... .. . ... ... ... : ... .. . ... : ... .. . ... : ... .. . ... ...
ROW E6 : D#3 00 4 ... ... ... : ... .. . ... ... ... : F-2 00 . ... : ... .. C ... : ... .. . ... ...
ROW E7 : ... .. 5 ... ... ... : ... .. . P7E ... ... : ... .. . ... : ... .. 0 ... : ... .. . ... ...
ROW E8 : ... .. 6 ... ... ... : ... .. . ... ... ... : ... .. . ... : ... .. . ... : ... .. . ... ...
ROW E9 : ... .. . ... ... ... : ... .. . ... ... ... : ... .. . ... : ... .. . ... : ... .. . ... ...
ROW EA : ... .. 7 ... ... ... : ... .. . ... ... ... : ... .. . ... : ... .. . ... : ... .. . ... ...
ROW EB : ... .. . ... ... ... : ... .. . P80 ... ... : ... .. . ... : ... .. . ... : ... .. . ... ...
ROW EC : ... .. . ... ... ... : ... .. . ... ... ... : ... .. . ... : ... .. . ... : ... .. . ... ...
ROW ED : ... .. 6 ... ... ... : ... .. . ... ... ... : ... .. . ... : ... .. . ... : ... .. . ... ...
ROW EE : ... .. . ... ... ... : ... .. . ... ... ... : --- .. . ... : ... .. . ... : ... .. . ... ...
ROW EF : ... .. . ... ... ... : ... .. . P7E ... ... : ... .. . ... : ... .. . ... : ... .. . ... ...
ROW F0 : F-3 00 4 P7F ... ... : ... .. . P7F ... ... : F-2 00 . ... : ... .. C ... : ... .. . ... ...
ROW F1 : ... .. 5 ... ... ... : ... .. . ... ... ... : ... .. . ... : ... .. 0 ... : ... .. . ... ...
ROW F2 : ... .. 6 ... ... ... : ... .. . ... ... ... : ... .. . ... : ... .. . ... : ... .. . ... ...
ROW F3 : ... .. . ... ... ... : ... .. . ... ... ... : ... .. . ... : ... .. . ... : ... .. . ... ...
ROW F4 : ... .. 7 ... ... ... : ... .. . ... ... ... : ... .. . ... : ... .. . ... : ... .. . ... ...
ROW F5 : ... .. . ... ... ... : ... .. . ... ... ... : ... .. . ... : ... .. . ... : ... .. . ... ...
ROW F6 : ... .. . ... ... ... : ... .. . ... ... ... : ... .. . ... : ... .. . ... : ... .. . ... ...
ROW F7 : ... .. 6 ... ... ... : ... .. . ... ... ... : ... .. . ... : ... .. . ... : ... .. . ... ...
ROW F8 : ... .. . ... ... ... : ... .. . ... ... ... : --- .. . ... : ... .. . ... : ... .. . ... ...
ROW F9 : ... .. . ... ... ... : ... .. . ... ... ... : ... .. . ... : ... .. . ... : ... .. . ... ...
ROW FA : ... .. . ... ... ... : ... .. . ... ... ... : ... .. . ... : ... .. . ... : ... .. . ... ...
ROW FB : ... .. 5 ... ... ... : ... .. . ... ... ... : ... .. . ... : ... .. . ... : ... .. . ... ...
ROW FC : ... .. . ... ... ... : ... .. . ... ... ... : ... .. . ... : ... .. . ... : ... .. . ... ...
ROW FD : ... .. . ... ... ... : ... .. . ... ... ... : ... .. . ... : ... .. . ... : ... .. . ... ...
ROW FE : ... .. . ... ... ... : ... .. . ... ... ... : ... .. . ... : ... .. . ... : ... .. . ... ...
ROW FF : ... .. 4 P7E ... ... : ... .. . P7E ... ... : ... .. . P7F : ... .. . ... : ... .. . ... ...

PATTERN 06
ROW 00 : ... .. . ... ... ... : ... .. . ... ... ... : ... .. . ... : ... .. . ... : ... .. . ... ...
ROW 01 : ... .. . ... ... ... : ... .. . ... ... ... : ... .. . ... : ... .. . ... : ... .. . ... ...
ROW 02 : ... .. . ... ... ... : ... .. . ... ... ... : ... .. . ... : ... .. . ... : ... .. . ... ...
ROW 03 : ... .. . P80 ... ... : ... .. . P80 ... ... : ... .. . P81 : ... .. . ... : ... .. . ... ...
ROW 04 : C-2 00 4 P7F ... ... : ... .. . ... ... ... : F-2 00 . P80 : ... .. C ... : ... .. . ... ...
ROW 05 : ... .. 5 ... ... ... : ... .. . ... ... ... : ... .. . ... : ... .. 0 ... : ... .. . ... ...
ROW 06 : ... .. 6 ... ... ... : ... .. . ... ... ... : ... .. . ... : ... .. . ... : ... .. . ... ...
ROW 07 : ... .. . ... ... ... : ... .. . P7E ... ... : ... .. . ... : ... .. . ... : ... .. . ... ...
ROW 08 : ... .. 7 ... ... ... : ... .. . ... ... ... : ... .. . ... : ... .. . ... : ... .. . ... ...
ROW 09 : ... .. . ... ... ... : ... .. . ... ... ... : ... .. . ... : ... .. . ... : ... .. . ... ...
ROW 0A : ... .. . ... ... ... : ... .. . ... ... ... : ... .. . ... : ... .. . ... : ... .. . ... ...
ROW 0B : ... .. 6 ... ... ... : ... .. . P80 ... ... : ... .. . ... : ... .. . ... : ... .. . ... ...
ROW 0C : ... .. . ... ... ... : ... .. . ... ... ... : --- .. . ... : ... .. . ... : ... .. . ... ...
ROW 0D : ... .. . ... ... ... : ... .. . ... ... ... : ... .. . ... : ... .. . ... : ... .. . ... ...
ROW 0E : F-1 00 4 ... ... ... : ... .. . ... ... ... : F-2 00 . ... : ... .. C ... : ... .. . ... ...
ROW 0F : ... .. 5 ... ... ... : ... .. . P7E ... ... : ... .. . ... : ... .. 0 ... : ... .. . ... ...
ROW 10 : ... .. 6 ... ... ... : ... .. . ... ... ... : ... .. . ... : ... .. . ... : ... .. . ... ...
ROW 11 : ... .. . ... ... ... : ... .. . ... ... ... : ... .. . ... : ... .. . ... : ... .. . ... ...
ROW 12 : ... .. 7 ... ... ... : ... .. . ... ... ... : ... .. . ... : ... .. . ... : ... .. . ... ...
ROW 13 : ... .. . ... ... ... : ... .. . P80 ... ... : ... .. . ... : ... .. . ... : ... .. . ... ...
ROW 14 : ... .. . ... ... ... : ... .. . ... ... ... : ... .. . ... : ... .. . ... : ... .. . ... ...
ROW 15 : ... .. 6 ... ... ... : ... .. . ... ... ... : ... .. . ... : ... .. . ... : ... .. . ... ...
ROW 16 : ... .. . ... ... ... : ... .. . ... ... ... : --- .. . ... : ... .. . ... : ... .. . ... ...
ROW 17 : ... .. . ... ... ... : ... .. . P7E ... ... : ... .. . ... : ... .. . ... : ... .. . ... ...
ROW 18 : C-2 00 4 ... ... ... : ... .. . ... ... ... : F-2 00 . ... : ... .. C ... : ... .. . ... ...
ROW 19 : ... .. 5 ... ... ... : ... .. . ... ... ... : ... .. . ... : ... .. 0 ... : ... .. . ... ...
ROW 1A : ... .. 6 ... ... ... : ... .. . ... ... ... : ... .. . ... : ... .. . ... : ... .. . ... ...
ROW 1B : ... .. . ... ... ... : ... .. . P80 ... ... : ... .. . ... : ... .. . ... : ... .. . ... ...
ROW 1C : ... .. 7 ... ... ... : ... .. . ... ... ... : ... .. . ... : ... .. . ... : ... .. . ... ...
ROW 1D : ... .. . ... ... ... : ... .. . ... ... ... : ... .. . ... : ... .. . ... : ... .. . ... ...
ROW 1E : ... .. . ... ... ... : ... .. . ... ... ... : ... .. . ... : ... .. . ... : ... .. . ... ...
ROW 1F : ... .. 6 ... ... ... : ... .. . P7E ... ... : ... .. . ... : ... .. . ... : ... .. . ... ...
ROW 20 : ... .. . ... ... ... : ... .. . ... ... ... : --- .. . ... : ... .. . ... : ... .. . ... ...
ROW 21 : ... .. . ... ... ... : ... .. . ... ... ... : ... .. . ... : ... .. . ... : ... .. . ... ...
ROW 22 : F-1 00 4 ... ... ... : ... .. . ... ... ... : ... .. . ... : ... .. . ... : ... .. . ... ...
ROW 23 : ... .. 5 ... ... ... : ... .. . P80 ... ... : ... .. . ... : ... .. . ... : ... .. . ... ...
ROW 24 : ... .. 6 ... ... ... : ... .. . ... ... ... : ... .. . ... : ... .. . ... : ... .. . ... ...
ROW 25 : ... .. . ... ... ... : ... .. . ... ... ... : ... .. . ... : ... .. . ... : ... .. . ... ...
ROW 26 : ... .. 7 ... ... ... : ... .. . ... ... ... : ... .. . ... : ... .. . ... : ... .. . ... ...
ROW 27 : ... .. . ... ... ... : ... .. . P7E ... ... : ... .. . P7F : ... .. . ... : ... .. . ... ...
ROW 28 : ... .. . ... ... ... : ... .. . ... ... ... : ... .. . ... : ... .. . ... : ... .. . ... ...
ROW 29 : ... .. 6 ... ... ... : ... .. . ... ... ... : ... .. . ... : ... .. . ... : ... .. . ... ...
ROW 2A : ... .. . ... ... ... : ... .. . ... ... ... : ... .. . ... : ... .. . ... : ... .. . ... ...
ROW 2B : ... .. . ... ... ... : ... .. . P80 ... ... : ... .. . P81 : ... .. . ... : ... .. . ... ...
ROW 2C : C-2 00 4 ... ... ... : ... .. . ... ... ... : F-2 00 . P80 : ... .. C ... : ... .. . ... ...
ROW 2D : ... .. 5 ... ... ... : ... .. . ... ... ... : ... .. . ... : ... .. 0 ... : ... .. . ... ...
ROW 2E : ... .. 6 ... ... ... : ... .. . ... ... ... : ... .. . ... : ... .. . ... : ... .. . ... ...
ROW 2F : ... .. . ... ... ... : ... .. . P7E ... ... : ... .. . ... : ... .. . ... : ... .. . ... ...
ROW 30 : ... .. 7 ... ... ... : ... .. . ... ... ... : ... .. . ... : ... .. . ... : ... .. . ... ...
ROW 31 : ... .. . ... ... ... : ... .. . ... ... ... : ... .. . ... : ... .. . ... : ... .. . ... ...
ROW 32 : ... .. . ... ... ... : ... .. . ... ... ... : ... .. . ... : ... .. . ... : ... .. . ... ...
ROW 33 : ... .. 6 ... ... ... : ... .. . P80 ... ... : ... .. . ... : ... .. . ... : ... .. . ... ...
ROW 34 : ... .. . ... ... ... : ... .. . ... ... ... : --- .. . ... : ... .. . ... : ... .. . ... ...
ROW 35 : ... .. . ... ... ... : ... .. . ... ... ... : ... .. . ... : ... .. . ... : ... .. . ... ...
ROW 36 : F-1 00 4 ... ... ... : ... .. . ... ... ... : F-2 00 . ... : ... .. C ... : ... .. . ... ...
ROW 37 : ... .. 5 ... ... ... : ... .. . P7E ... ... : ... .. . ... : ... .. 0 ... : ... .. . ... ...
ROW 38 : ... .. 6 ... ... ... : ... .. . ... ... ... : ... .. . ... : ... .. . ... : ... .. . ... ...
ROW 39 : ... .. . ... ... ... : ... .. . ... ... ... : ... .. . ... : ... .. . ... : ... .. . ... ...
ROW 3A : ... .. 7 ... ... ... : ... .. . ... ... ... : ... .. . ... : ... .. . ... : ... .. . ... ...
ROW 3B : ... .. . ... ... ... : ... .. . P80 ... ... : ... .. . ... : ... .. . ... : ... .. . ... ...
ROW 3C : ... .. . ... ... ... : ... .. . ... ... ... : ... .. . ... : ... .. . ... : ... .. . ... ...
ROW 3D : ... .. 6 ... ... ... : ... .. . ... ... ... : ... .. . ... : ... .. . ... : ... .. . ... ...
ROW 3E : ... .. . ... ... ... : ... .. . ... ... ... : --- .. . ... : ... .. . ... : ... .. . ... ...
ROW 3F : ... .. . ... ... ... : ... .. . P7E ... ... : ... .. . ... : ... .. . ... : ... .. . ... ...
ROW 40 : D-3 00 7 P80 ... ... : A#3 00 7 P80 ... ... : A#2 00 . ... : ... .. C ... : ... .. . ... ...
ROW 41 : ... .. . ... ... ... : ... .. . ... ... ... : ... .. . ... : ... .. 0 ... : ... .. . ... ...
ROW 42 : ... .. 8 ... ... ... : ... .. 8 ... ... ... : ... .. . ... : ... .. . ... : ... .. . ... ...
ROW 43 : ... .. . ... ... ... : ... .. . ... ... ... : ... .. . ... : ... .. . ... : ... .. . ... ...
ROW 44 : ... .. 9 ... ... ... : ... .. 9 ... ... ... : ... .. . ... : ... .. . ... : ... .. . ... ...
ROW 45 : ... .. . ... ... ... : ... .. . ... ... ... : ... .. . ... : ... .. . ... : ... .. . ... ...
ROW 46 : ... .. . ... ... ... : ... .. . ... ... ... : ... .. . ... : ... .. . ... : ... .. . ... ...
ROW 47 : ... .. 8 ... ... ... : ... .. 8 ... ... ... : ... .. . ... : ... .. . ... : ... .. . ... ...
ROW 48 : ... .. . ... ... ... : ... .. . ... ... ... : --- .. . ... : ... .. . ... : ... .. . ... ...
ROW 49 : ... .. . ... ... ... : ... .. . ... ... ... : ... .. . ... : ... .. . ... : ... .. . ... ...
ROW 4A : ... .. . ... ... ... : ... .. . ... ... ... : ... .. . ... : ... .. . ... : ... .. . ... ...
ROW 4B : ... .. 7 ... ... ... : ... .. 7 ... ... ... : ... .. . ... : ... .. . ... : ... .. . ... ...
ROW 4C : ... .. . ... ... ... : ... .. . ... ... ... : ... .. . ... : ... .. . ... : ... .. . ... ...
ROW 4D : ... .. . ... ... ... : ... .. . ... ... ... : ... .. . ... : ... .. . ... : ... .. . ... ...
ROW 4E : ... .. . ... ... ... : ... .. . ... ... ... : ... .. . ... : ... .. . ... : ... .. . ... ...
ROW 4F : ... .. 6 P7F ... ... : ... .. 6 P7F ... ... : ... .. . P7F : ... .. . ... : ... .. . ... ...
ROW 50 : ... .. . ... ... ... : ... .. . ... ... ... : ... .. . ... : ... .. . ... : ... .. . ... ...
ROW 51 : ... .. . ... ... ... : ... .. . ... ... ... : ... .. . ... : ... .. . ... : ... .. . ... ...
ROW 52 : ... .. . ... ... ... : ... .. . ... ... ... : ... .. . ... : ... .. . ... : ... .. . ... ...
ROW 53 : ... .. . P81 ... ... : ... .. . P81 ... ... : ... .. . P81 : ... .. . ... : ... .. . ... ...
ROW 54 : ... .. 4 P80 ... ... : ... .. 4 P80 ... ... : A#2 00 . P80 : ... .. C ... : ... .. . ... ...
ROW 55 : ... .. . ... ... ... : ... .. . ... ... ... : ... .. . ... : ... .. 0 ... : ... .. . ... ...
ROW 56 : ... .. . ... ... ... : ... .. . ... ... ... : ... .. . ... : ... .. . ... : ... .. . ... ...
ROW 57 : ... .. . ... ... ... : ... .. . ... ... ... : ... .. . ... : ... .. . ... : ... .. . ... ...
ROW 58 : ... .. . ... ... ... : ... .. . ... ... ... : ... .. . ... : ... .. . ... : ... .. . ... ...
ROW 59 : ... .. . ... ... ... : ... .. . ... ... ... : ... .. . ... : ... .. . ... : ... .. . ... ...
ROW 5A : ... .. . ... ... ... : ... .. . ... ... ... : ... .. . ... : ... .. . ... : ... .. . ... ...
ROW 5B : ... .. . ... ... ... : ... .. . ... ... ... : ... .. . ... : ... .. . ... : ... .. . ... ...
ROW 5C : ... .. . ... ... ... : ... .. . ... ... ... : --- .. . ... : ... .. . ... : ... .. . ... ...
ROW 5D : ... .. . ... ... ... : ... .. . ... ... ... : ... .. . ... : ... .. . ... : ... .. . ... ...
ROW 5E : ... .. . ... ... ... : ... .. . ... ... ... : A#2 00 . ... : ... .. C ... : ... .. . ... ...
ROW 5F : ... .. . ... ... ... : ... .. . ... ... ... : ... .. . ... : ... .. 0 ... : ... .. . ... ...
ROW 60 : ... .. . ... ... ... : ... .. . ... ... ... : ... .. . ... : ... .. . ... : ... .. . ... ...
ROW 61 : ... .. . ... ... ... : ... .. . ... ... ... : ... .. . ... : ... .. . ... : ... .. . ... ...
ROW 62 : ... .. . ... ... ... : ... .. . ... ... ... : ... .. . ... : ... .. . ... : ... .. . ... ...
ROW 63 : ... .. . P7F ... ... : ... .. . P7F ... ... : ... .. . ... : ... .. . ... : ... .. . ... ...
ROW 64 : ... .. . ... ... ... : ... .. . ... ... ... : ... .. . ... : ... .. . ... : ... .. . ... ...
ROW 65 : ... .. . ... ... ... : ... .. . ... ... ... : ... .. . ... : ... .. . ... : ... .. . ... ...
ROW 66 : ... .. . ... ... ... : ... .. . ... ... ... : --- .. . ... : ... .. . ... : ... .. . ... ...
ROW 67 : ... .. . P81 ... ... : ... .. . P81 ... ... : ... .. . ... : ... .. . ... : ... .. . ... ...
ROW 68 : ... .. 7 P80 ... ... : F-3 00 7 P7F ... ... : A#2 00 . ... : ... .. C ... : ... .. . ... ...
ROW 69 : ... .. . ... ... ... : ... .. . ... ... ... : ... .. . ... : ... .. 0 ... : ... .. . ... ...
ROW 6A : ... .. 8 ... ... ... : ... .. 8 ... ... ... : ... .. . ... : ... .. . ... : ... .. . ... ...
ROW 6B : ... .. . ... ... ... : ... .. . ... ... ... : ... .. . ... : ... .. . ... : ... .. . ... ...
ROW 6C : ... .. 9 ... ... ... : ... .. 9 ... ... ... : ... .. . ... : ... .. . ... : ... .. . ... ...
ROW 6D : ... .. . ... ... ... : ... .. . ... ... ... : ... .. . ... : ... .. . ... : ... .. . ... ...
ROW 6E : ... .. . ... ... ... : ... .. . ... ... ... : ... .. . ... : ... .. . ... : ... .. . ... ...
ROW 6F : ... .. 8 ... ... ... : ... .. 8 ... ... ... : ... .. . ... : ... .. . ... : ... .. . ... ...
ROW 70 : ... .. . ... ... ... : ... .. . ... ... ... : --- .. . ... : ... .. . ... : ... .. . ... ...
ROW 71 : ... .. . ... ... ... : ... .. . ... ... ... : ... .. . ... : ... .. . ... : ... .. . ... ...
ROW 72 : ... .. . ... ... ... : ... .. . ... ... ... : ... .. . ... : ... .. . ... : ... .. . ... ...
ROW 73 : ... .. 7 ... ... ... : ... .. 7 ... ... ... : ... .. . ... : ... .. . ... : ... .. . ... ...
ROW 74 : ... .. . ... ... ... : ... .. . ... ... ... : ... .. . ... : ... .. . ... : ... .. . ... ...
ROW 75 : ... .. . ... ... ... : ... .. . ... ... ... : ... .. . ... : ... .. . ... : ... .. . ... ...
ROW 76 : ... .. . ... ... ... : ... .. . ... ... ... : ... .. . ... : ... .. . ... : ... .. . ... ...
ROW 77 : ... .. 8 ... ... ... : ... .. 6 P7E ... ... : ... .. . P7F : ... .. . ... : ... .. . ... ...
ROW 78 : ... .. . ... ... ... : ... .. . ... ... ... : ... .. . ... : ... .. . ... : ... .. . ... ...
ROW 79 : ... .. 9 ... ... ... : ... .. . ... ... ... : ... .. . ... : ... .. . ... : ... .. . ... ...
ROW 7A : ... .. . ... ... ... : ... .. . ... ... ... : ... .. . ... : ... .. . ... : ... .. . ... ...
ROW 7B : ... .. . ... ... ... : ... .. . P80 ... ... : ... .. . P81 : ... .. . ... : ... .. . ... ...
ROW 7C : ... .. 8 ... ... ... : ... .. . ... ... ... : A#2 00 . P80 : ... .. C ... : ... .. . ... ...
ROW 7D : ... .. . ... ... ... : ... .. . ... ... ... : ... .. . ... : ... .. 0 ... : ... .. . ... ...
ROW 7E : ... .. . ... ... ... : ... .. . ... ... ... : ... .. . ... : ... .. . ... : ... .. . ... ...
ROW 7F : ... .. . ... ... ... : ... .. 5 P7E ... ... : ... .. . ... : ... .. . ... : ... .. . ... ...
ROW 80 : ... .. 7 ... ... ... : ... .. . ... ... ... : ... .. . ... : ... .. . ... : ... .. . ... ...
ROW 81 : ... .. . ... ... ... : ... .. . ... ... ... : ... .. . ... : ... .. . ... : ... .. . ... ...
ROW 82 : C-3 00 7 ... ... ... : ... .. . ... ... ... : ... .. . ... : ... .. . ... : ... .. . ... ...
ROW 83 : ... .. . ... ... ... : ... .. . P80 ... ... : ... .. . ... : ... .. . ... : ... .. . ... ...
ROW 84 : ... .. 8 ... ... ... : ... .. 4 ... ... ... : --- .. . ... : ... .. . ... : ... .. . ... ...
ROW 85 : ... .. . ... ... ... : ... .. . ... ... ... : ... .. . ... : ... .. . ... : ... .. . ... ...
ROW 86 : ... .. 9 ... ... ... : ... .. . ... ... ... : A#2 00 . ... : ... .. C ... : ... .. . ... ...
ROW 87 : ... .. . ... ... ... : ... .. . P7E ... ... : ... .. . ... : ... .. 0 ... : ... .. . ... ...
ROW 88 : ... .. . ... ... ... : ... .. . ... ... ... : ... .. . ... : ... .. . ... : ... .. . ... ...
ROW 89 : ... .. 8 ... ... ... : ... .. . ... ... ... : ... .. . ... : ... .. . ... : ... .. . ... ...
ROW 8A : ... .. . ... ... ... : ... .. . ... ... ... : ... .. . ... : ... .. . ... : ... .. . ... ...
ROW 8B : ... .. . ... ... ... : ... .. . P80 ... ... : ... .. . ... : ... .. . ... : ... .. . ... ...
ROW 8C : ... .. . ... ... ... : ... .. . ... ... ... : ... .. . ... : ... .. . ... : ... .. . ... ...
ROW 8D : ... .. 7 ... ... ... : ... .. . ... ... ... : ... .. . ... : ... .. . ... : ... .. . ... ...
ROW 8E : ... .. . ... ... ... : ... .. . ... ... ... : --- .. . ... : ... .. . ... : ... .. . ... ...
ROW 8F : ... .. . ... ... ... : ... .. . P7E ... ... : ... .. . ... : ... .. . ... : ... .. . ... ...
ROW 90 : D-3 00 7 ... ... ... : ... .. . ... ... ... : A#2 00 . ... : ... .. C ... : ... .. . ... ...
ROW 91 : ... .. . ... ... ... : ... .. . ... ... ... : ... .. . ... : ... .. 0 ... : ... .. . ... ...
ROW 92 : ... .. 8 ... ... ... : ... .. . ... ... ... : ... .. . ... : ... .. . ... : ... .. . ... ...
ROW 93 : ... .. . ... ... ... : ... .. . P80 ... ... : ... .. . ... : ... .. . ... : ... .. . ... ...
ROW 94 : ... .. 9 ... ... ... : ... .. . ... ... ... : ... .. . ... : ... .. . ... : ... .. . ... ...
ROW 95 : ... .. . ... ... ... : ... .. . ... ... ... : ... .. . ... : ... .. . ... : ... .. . ... ...
ROW 96 : ... .. . ... ... ... : ... .. . ... ... ... : ... .. . ... : ... .. . ... : ... .. . ... ...
ROW 97 : ... .. 8 ... ... ... : ... .. . P7E ... ... : ... .. . ... : ... .. . ... : ... .. . ... ...
ROW 98 : ... .. . ... ... ... : ... .. . ... ... ... : --- .. . ... : ... .. . ... : ... .. . ... ...
ROW 99 : ... .. . ... ... ... : ... .. . ... ... ... : ... .. . ... : ... .. . ... : ... .. . ... ...
ROW 9A : ... .. . ... ... ... : ... .. . ... ... ... : ... .. . ... : ... .. . ... : ... .. . ... ...
ROW 9B : ... .. 7 ... ... ... : ... .. . P80 ... ... : ... .. . ... : ... .. . ... : ... .. . ... ...
ROW 9C : ... .. . ... ... ... : ... .. . ... ... ... : ... .. . ... : ... .. . ... : ... .. . ... ...
ROW 9D : ... .. . ... ... ... : ... .. . ... ... ... : ... .. . ... : ... .. . ... : ... .. . ... ...
ROW 9E : ... .. . ... ... ... : ... .. . ... ... ... : ... .. . ... : ... .. . ... : ... .. . ... ...
ROW 9F : ... .. 6 P7F ... ... : ... .. . P7E ... ... : ... .. . P7F : ... .. . ... : ... .. . ... ...
ROW A0 : ... .. . ... ... ... : ... .. . ... ... ... : ... .. . ... : ... .. . ... : ... .. . ... ...
ROW A1 : ... .. . ... ... ... : ... .. . ... ... ... : ... .. . ... : ... .. . ... : ... .. . ... ...
ROW A2 : ... .. . ... ... ... : ... .. . ... ... ... : ... .. . ... : ... .. . ... : ... .. . ... ...
ROW A3 : ... .. . P81 ... ... : ... .. . P80 ... ... : ... .. . P81 : ... .. . ... : ... .. . ... ...
ROW A4 : ... .. 4 P80 ... ... : A#3 00 7 ... ... ... : A#2 00 . P80 : ... .. C ... : ... .. . ... ...
ROW A5 : ... .. . ... ... ... : ... .. . ... ... ... : ... .. . ... : ... .. 0 ... : ... .. . ... ...
ROW A6 : ... .. . ... ... ... : ... .. 8 ... ... ... : ... .. . ... : ... .. . ... : ... .. . ... ...
ROW A7 : ... .. . ... ... ... : ... .. . ... ... ... : ... .. . ... : ... .. . ... : ... .. . ... ...
ROW A8 : ... .. . ... ... ... : ... .. 9 ... ... ... : ... .. . ... : ... .. . ... : ... .. . ... ...
ROW A9 : ... .. . ... ... ... : ... .. . ... ... ... : ... .. . ... : ... .. . ... : ... .. . ... ...
ROW AA : ... .. . ... ... ... : ... .. . ... ... ... : ... .. . ... : ... .. . ... : ... .. . ... ...
ROW AB : ... .. . ... ... ... : ... .. 8 ... ... ... : ... .. . ... : ... .. . ... : ... .. . ... ...
ROW AC : ... .. . ... ... ... : ... .. . ... ... ... : --- .. . ... : ... .. . ... : ... .. . ... ...
ROW AD : ... .. . ... ... ... : ... .. . ... ... ... : ... .. . ... : ... .. . ... : ... .. . ... ...
ROW AE : ... .. 7 ... ... ... : ... .. . ... ... ... : A#2 00 . ... : ... .. C ... : ... .. . ... ...
ROW AF : ... .. . ... ... ... : ... .. 7 ... ... ... : ... .. . ... : ... .. 0 ... : ... .. . ... ...
ROW B0 : ... .. 8 ... ... ... : ... .. . ... ... ... : ... .. . ... : ... .. . ... : ... .. . ... ...
ROW B1 : ... .. . ... ... ... : ... .. . ... ... ... : ... .. . ... : ... .. . ... : ... .. . ... ...
ROW B2 : ... .. 9 ... ... ... : ... .. . ... ... ... : ... .. . ... : ... .. . ... : ... .. . ... ...
ROW B3 : ... .. . ... ... ... : ... .. 6 P7F ... ... : ... .. . ... : ... .. . ... : ... .. . ... ...
ROW B4 : ... .. . ... ... ... : ... .. . ... ... ... : ... .. . ... : ... .. . ... : ... .. . ... ...
ROW B5 : ... .. 8 ... ... ... : ... .. . ... ... ... : ... .. . ... : ... .. . ... : ... .. . ... ...
ROW B6 : ... .. . ... ... ... : ... .. . ... ... ... : --- .. . ... : ... .. . ... : ... .. . ... ...
ROW B7 : ... .. . ... ... ... : ... .. . P81 ... ... : ... .. . ... : ... .. . ... : ... .. . ... ...
ROW B8 : ... .. 7 ... ... ... : ... .. 7 P80 ... ... : A#2 00 . ... : ... .. C ... : ... .. . ... ...
ROW B9 : ... .. . ... ... ... : ... .. . ... ... ... : ... .. . ... : ... .. 0 ... : ... .. . ... ...
ROW BA : ... .. 8 ... ... ... : ... .. 8 ... ... ... : ... .. . ... : ... .. . ... : ... .. . ... ...
ROW BB : ... .. . ... ... ... : ... .. . ... ... ... : ... .. . ... : ... .. . ... : ... .. . ... ...
ROW BC : ... .. 9 ... ... ... : ... .. 9 ... ... ... : ... .. . ... : ... .. . ... : ... .. . ... ...
ROW BD : ... .. . ... ... ... : ... .. . ... ... ... : ... .. . ... : ... .. . ... : ... .. . ... ...
ROW BE : ... .. . ... ... ... : ... .. . ... ... ... : ... .. . ... : ... .. . ... : ... .. . ... ...
ROW BF : ... .. 8 ... ... ... : ... .. 8 ... ... ... : ... .. . ... : ... .. . ... : ... .. . ... ...
ROW C0 : ... .. . ... ... ... : ... .. . ... ... ... : --- .. . ... : ... .. . ... : ... .. . ... ...
ROW C1 : ... .. . ... ... ... : ... .. . ... ... ... : ... .. . ... : ... .. . ... : ... .. . ... ...
ROW C2 : D#3 00 7 ... ... ... : C-4 00 7 ... ... ... : ... .. . ... : ... .. . ... : ... .. . ... ...
ROW C3 : ... .. . ... ... ... : ... .. . ... ... ... : ... .. . ... : ... .. . ... : ... .. . ... ...
ROW C4 : ... .. 8 ... ... ... : ... .. 8 ... ... ... : ... .. . ... : ... .. . ... : ... .. . ... ...
ROW C5 : ... .. . ... ... ... : ... .. . ... ... ... : ... .. . ... : ... .. . ... : ... .. . ... ...
ROW C6 : ... .. 9 ... ... ... : ... .. 9 ... ... ... : ... .. . ... : ... .. . ... : ... .. . ... ...
ROW C7 : ... .. . ... ... ... : ... .. . ... ... ... : ... .. . P7F : ... .. . ... : ... .. . ... ...
ROW C8 : ... .. . ... ... ... : ... .. . ... ... ... : ... .. . ... : ... .. . ... : ... .. . ... ...
ROW C9 : ... .. 8 ... ... ... : ... .. 8 ... ... ... : ... .. . ... : ... .. . ... : ... .. . ... ...
ROW CA : ... .. . ... ... ... : ... .. . ... ... ... : ... .. . ... : ... .. . ... : ... .. . ... ...
ROW CB : ... .. . ... ... ... : ... .. . ... ... ... : ... .. . P81 : ... .. . ... : ... .. . ... ...
ROW CC : F-3 00 7 P7F ... ... : D-4 00 7 P7F ... ... : A#2 00 . P80 : ... .. C ... : ... .. . ... ...
ROW CD : ... .. . ... ... ... : ... .. . ... ... ... : ... .. . ... : ... .. 0 ... : ... .. . ... ...
ROW CE : ... .. 8 ... ... ... : ... .. 8 ... ... ... : ... .. . ... : ... .. . ... : ... .. . ... ...
ROW CF : ... .. . ... ... ... : ... .. . ... ... ... : ... .. . ... : ... .. . ... : ... .. . ... ...
ROW D0 : ... .. 9 ... ... ... : ... .. 9 ... ... ... : ... .. . ... : ... .. . ... : ... .. . ... ...
ROW D1 : ... .. . ... ... ... : ... .. . ... ... ... : ... .. . ... : ... .. . ... : ... .. . ... ...
ROW D2 : ... .. . ... ... ... : ... .. . ... ... ... : ... .. . ... : ... .. . ... : ... .. . ... ...
ROW D3 : ... .. 8 ... ... ... : ... .. 8 ... ... ... : ... .. . ... : ... .. . ... : ... .. . ... ...
ROW D4 : ... .. . ... ... ... : ... .. . ... ... ... : --- .. . ... : ... .. . ... : ... .. . ... ...
ROW D5 : ... .. . ... ... ... : ... .. . ... ... ... : ... .. . ... : ... .. . ... : ... .. . ... ...
ROW D6 : G-3 00 7 ... ... ... : D#4 00 7 P80 ... ... : A#2 00 . ... : ... .. C ... : ... .. . ... ...
ROW D7 : ... .. . ... ... ... : ... .. . ... ... ... : ... .. . ... : ... .. 0 ... : ... .. . ... ...
ROW D8 : ... .. 8 ... ... ... : ... .. 8 ... ... ... : ... .. . ... : ... .. . ... : ... .. . ... ...
ROW D9 : ... .. . ... ... ... : ... .. . ... ... ... : ... .. . ... : ... .. . ... : ... .. . ... ...
ROW DA : ... .. 9 ... ... ... : ... .. 9 ... ... ... : ... .. . ... : ... .. . ... : ... .. . ... ...
ROW DB : ... .. . ... ... ... : ... .. . ... ... ... : ... .. . ... : ... .. . ... : ... .. . ... ...
ROW DC : ... .. . ... ... ... : ... .. . ... ... ... : ... .. . ... : ... .. . ... : ... .. . ... ...
ROW DD : ... .. 8 ... ... ... : ... .. 8 ... ... ... : ... .. . ... : ... .. . ... : ... .. . ... ...
ROW DE : ... .. . ... ... ... : ... .. . ... ... ... : --- .. . ... : ... .. . ... : ... .. . ... ...
ROW DF : ... .. . ... ... ... : ... .. . ... ... ... : ... .. . ... : ... .. . ... : ... .. . ... ...
ROW E0 : G#3 00 7 ... ... ... : F-4 00 7 P7F ... ... : G#2 00 . ... : ... .. C ... : ... .. . ... ...
ROW E1 : ... .. . ... ... ... : ... .. . ... ... ... : ... .. . ... : ... .. 0 ... : ... .. . ... ...
ROW E2 : ... .. 8 ... ... ... : ... .. 8 ... ... ... : ... .. . ... : ... .. . ... : ... .. . ... ...
ROW E3 : ... .. . ... ... ... : ... .. . ... ... ... : ... .. . ... : ... .. . ... : ... .. . ... ...
ROW E4 : ... .. 9 ... ... ... : ... .. 9 ... ... ... : ... .. . ... : ... .. . ... : ... .. . ... ...
ROW E5 : ... .. . ... ... ... : ... .. . ... ... ... : ... .. . ... : ... .. . ... : ... .. . ... ...
ROW E6 : ... .. . ... ... ... : ... .. . ... ... ... : ... .. . ... : ... .. . ... : ... .. . ... ...
ROW E7 : ... .. 8 ... ... ... : ... .. 8 ... ... ... : ... .. . ... : ... .. . ... : ... .. . ... ...
ROW E8 : ... .. . ... ... ... : ... .. . ... ... ... : --- .. . ... : ... .. . ... : ... .. . ... ...
ROW E9 : ... .. . ... ... ... : ... .. . ... ... ... : ... .. . ... : ... .. . ... : ... .. . ... ...
ROW EA : ... .. . ... ... ... : ... .. . ... ... ... : ... .. . ... : ... .. . ... : ... .. . ... ...
ROW EB : ... .. 7 ... ... ... : ... .. 7 ... ... ... : ... .. . ... : ... .. . ... : ... .. . ... ...
ROW EC : ... .. . ... ... ... : ... .. . ... ... ... : ... .. . ... : ... .. . ... : ... .. . ... ...
ROW ED : ... .. . ... ... ... : ... .. . ... ... ... : ... .. . ... : ... .. . ... : ... .. . ... ...
ROW EE : ... .. . ... ... ... : ... .. . ... ... ... : ... .. . ... : ... .. . ... : ... .. . ... ...
ROW EF : ... .. 6 P7E ... ... : ... .. 6 P7E ... ... : ... .. . P7F : ... .. . ... : ... .. . ... ...
ROW F0 : ... .. . ... ... ... : ... .. . ... ... ... : ... .. . ... : ... .. . ... : ... .. . ... ...
ROW F1 : ... .. . ... ... ... : ... .. . ... ... ... : ... .. . ... : ... .. . ... : ... .. . ... ...
ROW F2 : ... .. . ... ... ... : ... .. . ... ... ... : ... .. . ... : ... .. . ... : ... .. . ... ...
ROW F3 : ... .. . P80 ... ... : ... .. . P80 ... ... : ... .. . P81 : ... .. . ... : ... .. . ... ...
ROW F4 : ... .. 4 P7F ... ... : ... .. . ... ... ... : G#2 00 . P80 : ... .. C ... : ... .. . ... ...
ROW F5 : ... .. . ... ... ... : ... .. . ... ... ... : ... .. . ... : ... .. 0 ... : ... .. . ... ...
ROW F6 : ... .. . ... ... ... : ... .. . ... ... ... : ... .. . ... : ... .. . ... : ... .. . ... ...
ROW F7 : ... .. . ... ... ... : ... .. 5 P7E ... ... : ... .. . ... : ... .. . ... : ... .. . ... ...
ROW F8 : ... .. . ... ... ... : ... .. . ... ... ... : ... .. . ... : ... .. . ... : ... .. . ... ...
ROW F9 : ... .. . ... ... ... : ... .. . ... ... ... : ... .. . ... : ... .. . ... : ... .. . ... ...
ROW FA : ... .. . ... ... ... : ... .. . ... ... ... : ... .. . ... : ... .. . ... : ... .. . ... ...
ROW FB : ... .. . ... ... ... : ... .. . P80 ... ... : ... .. . ... : ... .. . ... : ... .. . ... ...
ROW FC : ... .. . ... ... ... : ... .. 4 ... ... ... : --- .. . ... : ... .. . ... : ... .. . ... ...
ROW FD : ... .. . ... ... ... : ... .. . ... ... ... : ... .. . ... : ... .. . ... : ... .. . ... ...
ROW FE : A#3 00 7 P80 ... ... : ... .. . ... ... ... : G#2 00 . ... : ... .. C ... : ... .. . ... ...
ROW FF : ... .. . ... ... ... : ... .. . P7E ... ... : ... .. . ... : ... .. 0 ... : ... .. . ... ...

PATTERN 07
ROW 00 : ... .. 8 ... ... ... : ... .. . ... ... ... : ... .. . ... : ... .. . ... : ... .. . ... ...
ROW 01 : ... .. . ... ... ... : ... .. . ... ... ... : ... .. . ... : ... .. . ... : ... .. . ... ...
ROW 02 : ... .. 9 ... ... ... : ... .. . ... ... ... : ... .. . ... : ... .. . ... : ... .. . ... ...
ROW 03 : ... .. . ... ... ... : ... .. . P80 ... ... : ... .. . ... : ... .. . ... : ... .. . ... ...
ROW 04 : ... .. . ... ... ... : ... .. . ... ... ... : ... .. . ... : ... .. . ... : ... .. . ... ...
ROW 05 : ... .. 8 ... ... ... : ... .. . ... ... ... : ... .. . ... : ... .. . ... : ... .. . ... ...
ROW 06 : ... .. . ... ... ... : ... .. . ... ... ... : --- .. . ... : ... .. . ... : ... .. . ... ...
ROW 07 : ... .. . ... ... ... : ... .. . P7E ... ... : ... .. . ... : ... .. . ... : ... .. . ... ...
ROW 08 : ... .. 7 ... ... ... : ... .. . ... ... ... : G#2 00 . ... : ... .. C ... : ... .. . ... ...
ROW 09 : ... .. . ... ... ... : ... .. . ... ... ... : ... .. . ... : ... .. 0 ... : ... .. . ... ...
ROW 0A : ... .. 8 ... ... ... : ... .. . ... ... ... : ... .. . ... : ... .. . ... : ... .. . ... ...
ROW 0B : ... .. . ... ... ... : ... .. . P80 ... ... : ... .. . ... : ... .. . ... : ... .. . ... ...
ROW 0C : ... .. 9 ... ... ... : ... .. . ... ... ... : ... .. . ... : ... .. . ... : ... .. . ... ...
ROW 0D : ... .. . ... ... ... : ... .. . ... ... ... : ... .. . ... : ... .. . ... : ... .. . ... ...
ROW 0E : ... .. . ... ... ... : ... .. . ... ... ... : ... .. . ... : ... .. . ... : ... .. . ... ...
ROW 0F : ... .. 8 ... ... ... : ... .. . P7E ... ... : ... .. . ... : ... .. . ... : ... .. . ... ...
ROW 10 : ... .. . ... ... ... : ... .. . ... ... ... : --- .. . ... : ... .. . ... : ... .. . ... ...
ROW 11 : ... .. . ... ... ... : ... .. . ... ... ... : ... .. . ... : ... .. . ... : ... .. . ... ...
ROW 12 : C-4 00 7 ... ... ... : ... .. . ... ... ... : ... .. . ... : ... .. . ... : ... .. . ... ...
ROW 13 : ... .. . ... ... ... : ... .. . P80 ... ... : ... .. . ... : ... .. . ... : ... .. . ... ...
ROW 14 : ... .. 8 ... ... ... : ... .. . ... ... ... : ... .. . ... : ... .. . ... : ... .. . ... ...
ROW 15 : ... .. . ... ... ... : ... .. . ... ... ... : ... .. . ... : ... .. . ... : ... .. . ... ...
ROW 16 : ... .. 9 ... ... ... : ... .. . ... ... ... : ... .. . ... : ... .. . ... : ... .. . ... ...
ROW 17 : ... .. . ... ... ... : ... .. . P7E ... ... : ... .. . P7F : ... .. . ... : ... .. . ... ...
ROW 18 : ... .. . ... ... ... : ... .. . ... ... ... : ... .. . ... : ... .. . ... : ... .. . ... ...
ROW 19 : ... .. 8 ... ... ... : ... .. . ... ... ... : ... .. . ... : ... .. . ... : ... .. . ... ...
ROW 1A : ... .. . ... ... ... : ... .. . ... ... ... : ... .. . ... : ... .. . ... : ... .. . ... ...
ROW 1B : ... .. . ... ... ... : ... .. . P80 ... ... : ... .. . P81 : ... .. . ... : ... .. . ... ...
ROW 1C : D-4 00 7 P7F ... ... : ... .. . ... ... ... : G#2 00 . P80 : ... .. C ... : ... .. . ... ...
ROW 1D : ... .. . ... ... ... : ... .. . ... ... ... : ... .. . ... : ... .. 0 ... : ... .. . ... ...
ROW 1E : ... .. 8 ... ... ... : ... .. . ... ... ... : ... .. . ... : ... .. . ... : ... .. . ... ...
ROW 1F : ... .. . ... ... ... : ... .. . P7E ... ... : ... .. . ... : ... .. . ... : ... .. . ... ...
ROW 20 : ... .. 9 ... ... ... : ... .. . ... ... ... : ... .. . ... : ... .. . ... : ... .. . ... ...
ROW 21 : ... .. . ... ... ... : ... .. . ... ... ... : ... .. . ... : ... .. . ... : ... .. . ... ...
ROW 22 : ... .. . ... ... ... : ... .. . ... ... ... : ... .. . ... : ... .. . ... : ... .. . ... ...
ROW 23 : ... .. 8 ... ... ... : ... .. . P80 ... ... : ... .. . ... : ... .. . ... : ... .. . ... ...
ROW 24 : ... .. . ... ... ... : ... .. . ... ... ... : --- .. . ... : ... .. . ... : ... .. . ... ...
ROW 25 : ... .. . ... ... ... : ... .. . ... ... ... : ... .. . ... : ... .. . ... : ... .. . ... ...
ROW 26 : D#4 00 7 P80 ... ... : ... .. . ... ... ... : G#2 00 . ... : ... .. C ... : ... .. . ... ...
ROW 27 : ... .. . ... ... ... : ... .. . P7E ... ... : ... .. . ... : ... .. 0 ... : ... .. . ... ...
ROW 28 : ... .. 8 ... ... ... : ... .. . ... ... ... : ... .. . ... : ... .. . ... : ... .. . ... ...
ROW 29 : ... .. . ... ... ... : ... .. . ... ... ... : ... .. . ... : ... .. . ... : ... .. . ... ...
ROW 2A : ... .. 9 ... ... ... : ... .. . ... ... ... : ... .. . ... : ... .. . ... : ... .. . ... ...
ROW 2B : ... .. . ... ... ... : ... .. . P80 ... ... : ... .. . ... : ... .. . ... : ... .. . ... ...
ROW 2C : ... .. . ... ... ... : ... .. . ... ... ... : ... .. . ... : ... .. . ... : ... .. . ... ...
ROW 2D : ... .. 8 ... ... ... : ... .. . ... ... ... : ... .. . ... : ... .. . ... : ... .. . ... ...
ROW 2E : ... .. . ... ... ... : ... .. . ... ... ... : --- .. . ... : ... .. . ... : ... .. . ... ...
ROW 2F : ... .. . ... ... ... : ... .. . P7E ... ... : ... .. . ... : ... .. . ... : ... .. . ... ...
ROW 30 : F-4 00 7 P7F ... ... : ... .. . P7F ... ... : G#2 00 . ... : ... .. C ... : ... .. . ... ...
ROW 31 : ... .. . ... ... ... : ... .. . ... ... ... : ... .. . ... : ... .. 0 ... : ... .. . ... ...
ROW 32 : ... .. 8 ... ... ... : ... .. . ... ... ... : ... .. . ... : ... .. . ... : ... .. . ... ...
ROW 33 : ... .. . ... ... ... : ... .. . ... ... ... : ... .. . ... : ... .. . ... : ... .. . ... ...
ROW 34 : ... .. 9 ... ... ... : ... .. . ... ... ... : ... .. . ... : ... .. . ... : ... .. . ... ...
ROW 35 : ... .. . ... ... ... : ... .. . ... ... ... : ... .. . ... : ... .. . ... : ... .. . ... ...
ROW 36 : ... .. . ... ... ... : ... .. . ... ... ... : ... .. . ... : ... .. . ... : ... .. . ... ...
ROW 37 : ... .. 8 ... ... ... : ... .. . ... ... ... : ... .. . ... : ... .. . ... : ... .. . ... ...
ROW 38 : ... .. . ... ... ... : ... .. . ... ... ... : --- .. . ... : ... .. . ... : ... .. . ... ...
ROW 39 : ... .. . ... ... ... : ... .. . ... ... ... : ... .. . ... : ... .. . ... : ... .. . ... ...
ROW 3A : ... .. . ... ... ... : ... .. . ... ... ... : ... .. . ... : ... .. . ... : ... .. . ... ...
ROW 3B : ... .. 7 ... ... ... : ... .. . ... ... ... : ... .. . ... : ... .. . ... : ... .. . ... ...
ROW 3C : ... .. . ... ... ... : ... .. . ... ... ... : ... .. . ... : ... .. . ... : ... .. . ... ...
ROW 3D : ... .. . ... ... ... : ... .. . ... ... ... : ... .. . ... : ... .. . ... : ... .. . ... ...
ROW 3E : ... .. . ... ... ... : ... .. . ... ... ... : ... .. . ... : ... .. . ... : ... .. . ... ...
ROW 3F : ... .. 6 P7E ... ... : ... .. . P7E ... ... : ... .. . P7F : ... .. . ... : ... .. . ... ...
ROW 40 : ... .. . ... ... ... : ... .. . ... ... ... : ... .. . ... : ... .. . ... : ... .. . ... ...
ROW 41 : ... .. . ... ... ... : ... .. . ... ... ... : ... .. . ... : ... .. . ... : ... .. . ... ...
ROW 42 : ... .. . ... ... ... : ... .. . ... ... ... : ... .. . ... : ... .. . ... : ... .. . ... ...
ROW 43 : ... .. . P80 ... ... : ... .. . P80 ... ... : ... .. . P81 : ... .. . ... : ... .. . ... ...
ROW 44 : ... .. . ... ... ... : ... .. 7 P7F ... ... : G#2 00 . P80 : ... .. C ... : ... .. . ... ...
ROW 45 : ... .. . ... ... ... : ... .. . ... ... ... : ... .. . ... : ... .. 0 ... : ... .. . ... ...
ROW 46 : ... .. . ... ... ... : ... .. 8 ... ... ... : ... .. . ... : ... .. . ... : ... .. . ... ...
ROW 47 : ... .. 5 P7E ... ... : ... .. . ... ... ... : ... .. . ... : ... .. . ... : ... .. . ... ...
ROW 48 : ... .. . ... ... ... : ... .. 9 ... ... ... : ... .. . ... : ... .. . ... : ... .. . ... ...
ROW 49 : ... .. . ... ... ... : ... .. . ... ... ... : ... .. . ... : ... .. . ... : ... .. . ... ...
ROW 4A : ... .. . ... ... ... : ... .. . ... ... ... : ... .. . ... : ... .. . ... : ... .. . ... ...
ROW 4B : ... .. . P80 ... ... : ... .. 8 ... ... ... : ... .. . ... : ... .. . ... : ... .. . ... ...
ROW 4C : ... .. 4 ... ... ... : ... .. . ... ... ... : --- .. . ... : ... .. . ... : ... .. . ... ...
ROW 4D : ... .. . ... ... ... : ... .. . ... ... ... : ... .. . ... : ... .. . ... : ... .. . ... ...
ROW 4E : ... .. . ... ... ... : ... .. . ... ... ... : G#2 00 . ... : ... .. C ... : ... .. . ... ...
ROW 4F : ... .. . P7E ... ... : ... .. 7 ... ... ... : ... .. . ... : ... .. 0 ... : ... .. . ... ...
ROW 50 : ... .. . ... ... ... : ... .. . ... ... ... : ... .. . ... : ... .. . ... : ... .. . ... ...
ROW 51 : ... .. . ... ... ... : ... .. . ... ... ... : ... .. . ... : ... .. . ... : ... .. . ... ...
ROW 52 : ... .. . ... ... ... : ... .. . ... ... ... : ... .. . ... : ... .. . ... : ... .. . ... ...
ROW 53 : ... .. . P80 ... ... : ... .. 6 P7E ... ... : ... .. . ... : ... .. . ... : ... .. . ... ...
ROW 54 : ... .. . ... ... ... : ... .. . ... ... ... : ... .. . ... : ... .. . ... : ... .. . ... ...
ROW 55 : ... .. . ... ... ... : ... .. . ... ... ... : ... .. . ... : ... .. . ... : ... .. . ... ...
ROW 56 : ... .. . ... ... ... : ... .. . ... ... ... : --- .. . ... : ... .. . ... : ... .. . ... ...
ROW 57 : ... .. . P7E ... ... : ... .. . P80 ... ... : ... .. . ... : ... .. . ... : ... .. . ... ...
ROW 58 : G#3 00 7 P7F ... ... : ... .. 7 P7F ... ... : G#2 00 . ... : ... .. C ... : ... .. . ... ...
ROW 59 : ... .. . ... ... ... : ... .. . ... ... ... : ... .. . ... : ... .. 0 ... : ... .. . ... ...
ROW 5A : ... .. 8 ... ... ... : ... .. 8 ... ... ... : ... .. . ... : ... .. . ... : ... .. . ... ...
ROW 5B : ... .. . ... ... ... : ... .. . ... ... ... : ... .. . ... : ... .. . ... : ... .. . ... ...
ROW 5C : ... .. 9 ... ... ... : ... .. 9 ... ... ... : ... .. . ... : ... .. . ... : ... .. . ... ...
ROW 5D : ... .. . ... ... ... : ... .. . ... ... ... : ... .. . ... : ... .. . ... : ... .. . ... ...
ROW 5E : ... .. . ... ... ... : ... .. . ... ... ... : ... .. . ... : ... .. . ... : ... .. . ... ...
ROW 5F : ... .. 8 ... ... ... : ... .. 8 ... ... ... : ... .. . ... : ... .. . ... : ... .. . ... ...
ROW 60 : ... .. . ... ... ... : ... .. . ... ... ... : --- .. . ... : ... .. . ... : ... .. . ... ...
ROW 61 : ... .. . ... ... ... : ... .. . ... ... ... : ... .. . ... : ... .. . ... : ... .. . ... ...
ROW 62 : ... .. . ... ... ... : ... .. . ... ... ... : ... .. . ... : ... .. . ... : ... .. . ... ...
ROW 63 : ... .. 7 ... ... ... : ... .. 7 ... ... ... : ... .. . ... : ... .. . ... : ... .. . ... ...
ROW 64 : ... .. . ... ... ... : ... .. . ... ... ... : ... .. . ... : ... .. . ... : ... .. . ... ...
ROW 65 : A#3 00 7 P80 ... ... : F#4 00 7 ... ... ... : ... .. . ... : ... .. . ... : ... .. . ... ...
ROW 66 : ... .. . ... ... ... : ... .. . ... ... ... : ... .. . ... : ... .. . ... : ... .. . ... ...
ROW 67 : ... .. 8 ... ... ... : ... .. 8 ... ... ... : ... .. . P7F : ... .. . ... : ... .. . ... ...
ROW 68 : ... .. . ... ... ... : ... .. . ... ... ... : ... .. . ... : ... .. . ... : ... .. . ... ...
ROW 69 : ... .. 9 ... ... ... : ... .. 9 ... ... ... : ... .. . ... : ... .. . ... : ... .. . ... ...
ROW 6A : ... .. . ... ... ... : ... .. . ... ... ... : ... .. . ... : ... .. . ... : ... .. . ... ...
ROW 6B : ... .. . ... ... ... : ... .. . ... ... ... : ... .. . P81 : ... .. . ... : ... .. . ... ...
ROW 6C : ... .. 8 ... ... ... : ... .. 8 ... ... ... : G#2 00 . P80 : ... .. C ... : ... .. . ... ...
ROW 6D : ... .. . ... ... ... : ... .. . ... ... ... : ... .. . ... : ... .. 0 ... : ... .. . ... ...
ROW 6E : ... .. . ... ... ... : ... .. . ... ... ... : ... .. . ... : ... .. . ... : ... .. . ... ...
ROW 6F : ... .. . ... ... ... : ... .. . ... ... ... : ... .. . ... : ... .. . ... : ... .. . ... ...
ROW 70 : ... .. 7 ... ... ... : ... .. 7 ... ... ... : ... .. . ... : ... .. . ... : ... .. . ... ...
ROW 71 : ... .. . ... ... ... : ... .. . ... ... ... : ... .. . ... : ... .. . ... : ... .. . ... ...
ROW 72 : C-4 00 7 ... ... ... : G#4 00 7 P80 ... ... : ... .. . ... : ... .. . ... : ... .. . ... ...
ROW 73 : ... .. . ... ... ... : ... .. . ... ... ... : ... .. . ... : ... .. . ... : ... .. . ... ...
ROW 74 : ... .. 8 ... ... ... : ... .. 8 ... ... ... : --- .. . ... : ... .. . ... : ... .. . ... ...
ROW 75 : ... .. . ... ... ... : ... .. . ... ... ... : ... .. . ... : ... .. . ... : ... .. . ... ...
ROW 76 : ... .. 9 ... ... ... : ... .. 9 ... ... ... : G#2 00 . ... : ... .. C ... : ... .. . ... ...
ROW 77 : ... .. . ... ... ... : ... .. . ... ... ... : ... .. . ... : ... .. 0 ... : ... .. . ... ...
ROW 78 : ... .. . ... ... ... : ... .. . ... ... ... : ... .. . ... : ... .. . ... : ... .. . ... ...
ROW 79 : ... .. 8 ... ... ... : ... .. 8 ... ... ... : ... .. . ... : ... .. . ... : ... .. . ... ...
ROW 7A : ... .. . ... ... ... : ... .. . ... ... ... : ... .. . ... : ... .. . ... : ... .. . ... ...
ROW 7B : ... .. . ... ... ... : ... .. . ... ... ... : ... .. . ... : ... .. . ... : ... .. . ... ...
ROW 7C : ... .. . ... ... ... : ... .. . ... ... ... : ... .. . ... : ... .. . ... : ... .. . ... ...
ROW 7D : ... .. 7 ... ... ... : ... .. 7 ... ... ... : ... .. . ... : ... .. . ... : ... .. . ... ...
ROW 7E : ... .. . ... ... ... : ... .. . ... ... ... : --- .. . ... : ... .. . ... : ... .. . ... ...
ROW 7F : ... .. . ... ... ... : ... .. . ... ... ... : ... .. . ... : ... .. . ... : ... .. . ... ...
ROW 80 : F#3 00 7 P7F ... ... : A#4 00 7 ... ... ... : F#2 00 . ... : ... .. C ... : ... .. . ... ...
ROW 81 : ... .. . ... ... ... : ... .. . ... ... ... : ... .. . ... : ... .. 0 ... : ... .. . ... ...
ROW 82 : ... .. 8 ... ... ... : ... .. 8 ... ... ... : ... .. . ... : ... .. . ... : ... .. . ... ...
ROW 83 : ... .. . ... ... ... : ... .. . ... ... ... : ... .. . ... : ... .. . ... : ... .. . ... ...
ROW 84 : ... .. 9 ... ... ... : ... .. 9 ... ... ... : ... .. . ... : ... .. . ... : ... .. . ... ...
ROW 85 : ... .. . ... ... ... : ... .. . ... ... ... : ... .. . ... : ... .. . ... : ... .. . ... ...
ROW 86 : ... .. . ... ... ... : ... .. . ... ... ... : ... .. . ... : ... .. . ... : ... .. . ... ...
ROW 87 : ... .. 8 ... ... ... : ... .. 8 ... ... ... : ... .. . ... : ... .. . ... : ... .. . ... ...
ROW 88 : ... .. . ... ... ... : ... .. . ... ... ... : --- .. . ... : ... .. . ... : ... .. . ... ...
ROW 89 : ... .. . ... ... ... : ... .. . ... ... ... : ... .. . ... : ... .. . ... : ... .. . ... ...
ROW 8A : ... .. . ... ... ... : ... .. . ... ... ... : ... .. . ... : ... .. . ... : ... .. . ... ...
ROW 8B : ... .. 7 ... ... ... : ... .. 7 ... ... ... : ... .. . ... : ... .. . ... : ... .. . ... ...
ROW 8C : ... .. . ... ... ... : ... .. . ... ... ... : ... .. . ... : ... .. . ... : ... .. . ... ...
ROW 8D : ... .. . ... ... ... : ... .. . ... ... ... : ... .. . ... : ... .. . ... : ... .. . ... ...
ROW 8E : ... .. . ... ... ... : ... .. . ... ... ... : ... .. . ... : ... .. . ... : ... .. . ... ...
ROW 8F : ... .. 6 P7E ... ... : ... .. 6 P7F ... ... : ... .. . P7F : ... .. . ... : ... .. . ... ...
ROW 90 : ... .. . ... ... ... : ... .. . ... ... ... : ... .. . ... : ... .. . ... : ... .. . ... ...
ROW 91 : ... .. . ... ... ... : ... .. . ... ... ... : ... .. . ... : ... .. . ... : ... .. . ... ...
ROW 92 : ... .. . ... ... ... : ... .. . ... ... ... : ... .. . ... : ... .. . ... : ... .. . ... ...
ROW 93 : ... .. . P80 ... ... : ... .. . P81 ... ... : ... .. . P81 : ... .. . ... : ... .. . ... ...
ROW 94 : ... .. 4 P7F ... ... : ... .. . ... ... ... : F#2 00 . P80 : ... .. C ... : ... .. . ... ...
ROW 95 : ... .. . ... ... ... : ... .. . ... ... ... : ... .. . ... : ... .. 0 ... : ... .. . ... ...
ROW 96 : ... .. . ... ... ... : ... .. . ... ... ... : ... .. . ... : ... .. . ... : ... .. . ... ...
ROW 97 : ... .. . ... ... ... : ... .. 5 P7F ... ... : ... .. . ... : ... .. . ... : ... .. . ... ...
ROW 98 : ... .. . ... ... ... : ... .. . ... ... ... : ... .. . ... : ... .. . ... : ... .. . ... ...
ROW 99 : ... .. . ... ... ... : ... .. . ... ... ... : ... .. . ... : ... .. . ... : ... .. . ... ...
ROW 9A : ... .. . ... ... ... : ... .. . ... ... ... : ... .. . ... : ... .. . ... : ... .. . ... ...
ROW 9B : ... .. . ... ... ... : ... .. . P81 ... ... : ... .. . ... : ... .. . ... : ... .. . ... ...
ROW 9C : ... .. . ... ... ... : ... .. 4 ... ... ... : --- .. . ... : ... .. . ... : ... .. . ... ...
ROW 9D : ... .. . ... ... ... : ... .. . ... ... ... : ... .. . ... : ... .. . ... : ... .. . ... ...
ROW 9E : ... .. 7 ... ... ... : ... .. . ... ... ... : F#2 00 . ... : ... .. C ... : ... .. . ... ...
ROW 9F : ... .. . ... ... ... : ... .. . P7F ... ... : ... .. . ... : ... .. 0 ... : ... .. . ... ...
ROW A0 : ... .. 8 ... ... ... : ... .. . ... ... ... : ... .. . ... : ... .. . ... : ... .. . ... ...
ROW A1 : ... .. . ... ... ... : ... .. . ... ... ... : ... .. . ... : ... .. . ... : ... .. . ... ...
ROW A2 : ... .. 9 ... ... ... : ... .. . ... ... ... : ... .. . ... : ... .. . ... : ... .. . ... ...
ROW A3 : ... .. . ... ... ... : ... .. . P81 ... ... : ... .. . ... : ... .. . ... : ... .. . ... ...
ROW A4 : ... .. . ... ... ... : ... .. . ... ... ... : ... .. . ... : ... .. . ... : ... .. . ... ...
ROW A5 : ... .. 8 ... ... ... : ... .. . ... ... ... : ... .. . ... : ... .. . ... : ... .. . ... ...
ROW A6 : ... .. . ... ... ... : ... .. . ... ... ... : --- .. . ... : ... .. . ... : ... .. . ... ...
ROW A7 : ... .. . ... ... ... : ... .. . P7F ... ... : ... .. . ... : ... .. . ... : ... .. . ... ...
ROW A8 : ... .. 7 ... ... ... : ... .. . ... ... ... : F#2 00 . ... : ... .. C ... : ... .. . ... ...
ROW A9 : ... .. . ... ... ... : ... .. . ... ... ... : ... .. . ... : ... .. 0 ... : ... .. . ... ...
ROW AA : ... .. 8 ... ... ... : ... .. . ... ... ... : ... .. . ... : ... .. . ... : ... .. . ... ...
ROW AB : ... .. . ... ... ... : ... .. . P81 ... ... : ... .. . ... : ... .. . ... : ... .. . ... ...
ROW AC : ... .. 9 ... ... ... : ... .. . ... ... ... : ... .. . ... : ... .. . ... : ... .. . ... ...
ROW AD : ... .. . ... ... ... : ... .. . ... ... ... : ... .. . ... : ... .. . ... : ... .. . ... ...
ROW AE : ... .. . ... ... ... : ... .. . ... ... ... : ... .. . ... : ... .. . ... : ... .. . ... ...
ROW AF : ... .. 8 ... ... ... : ... .. . P7F ... ... : ... .. . ... : ... .. . ... : ... .. . ... ...
ROW B0 : ... .. . ... ... ... : ... .. . ... ... ... : --- .. . ... : ... .. . ... : ... .. . ... ...
ROW B1 : ... .. . ... ... ... : ... .. . ... ... ... : ... .. . ... : ... .. . ... : ... .. . ... ...
ROW B2 : G#3 00 7 ... ... ... : ... .. . ... ... ... : ... .. . ... : ... .. . ... : ... .. . ... ...
ROW B3 : ... .. . ... ... ... : ... .. . P81 ... ... : ... .. . ... : ... .. . ... : ... .. . ... ...
ROW B4 : ... .. 8 ... ... ... : ... .. . ... ... ... : ... .. . ... : ... .. . ... : ... .. . ... ...
ROW B5 : ... .. . ... ... ... : ... .. . ... ... ... : ... .. . ... : ... .. . ... : ... .. . ... ...
ROW B6 : ... .. 9 ... ... ... : ... .. . ... ... ... : ... .. . ... : ... .. . ... : ... .. . ... ...
ROW B7 : ... .. . ... ... ... : ... .. . P7F ... ... : ... .. . P7F : ... .. . ... : ... .. . ... ...
ROW B8 : ... .. . ... ... ... : ... .. . ... ... ... : ... .. . ... : ... .. . ... : ... .. . ... ...
ROW B9 : ... .. 8 ... ... ... : ... .. . ... ... ... : ... .. . ... : ... .. . ... : ... .. . ... ...
ROW BA : ... .. . ... ... ... : ... .. . ... ... ... : ... .. . ... : ... .. . ... : ... .. . ... ...
ROW BB : ... .. . ... ... ... : ... .. . P81 ... ... : ... .. . P81 : ... .. . ... : ... .. . ... ...
ROW BC : A#3 00 7 P80 ... ... : ... .. . ... ... ... : F#2 00 . P80 : ... .. C ... : ... .. . ... ...
ROW BD : ... .. . ... ... ... : ... .. . ... ... ... : ... .. . ... : ... .. 0 ... : ... .. . ... ...
ROW BE : ... .. 8 ... ... ... : ... .. . ... ... ... : ... .. . ... : ... .. . ... : ... .. . ... ...
ROW BF : ... .. . ... ... ... : ... .. . P7F ... ... : ... .. . ... : ... .. . ... : ... .. . ... ...
ROW C0 : ... .. 9 ... ... ... : ... .. . ... ... ... : ... .. . ... : ... .. . ... : ... .. . ... ...
ROW C1 : ... .. . ... ... ... : ... .. . ... ... ... : ... .. . ... : ... .. . ... : ... .. . ... ...
ROW C2 : ... .. . ... ... ... : ... .. . ... ... ... : ... .. . ... : ... .. . ... : ... .. . ... ...
ROW C3 : ... .. 8 ... ... ... : ... .. . P81 ... ... : ... .. . ... : ... .. . ... : ... .. . ... ...
ROW C4 : ... .. . ... ... ... : ... .. . ... ... ... : --- .. . ... : ... .. . ... : ... .. . ... ...
ROW C5 : ... .. . ... ... ... : ... .. . ... ... ... : ... .. . ... : ... .. . ... : ... .. . ... ...
ROW C6 : C-4 00 7 ... ... ... : ... .. . ... ... ... : F#2 00 . ... : ... .. C ... : ... .. . ... ...
ROW C7 : ... .. . ... ... ... : ... .. . P7F ... ... : ... .. . ... : ... .. 0 ... : ... .. . ... ...
ROW C8 : ... .. 8 ... ... ... : ... .. . ... ... ... : ... .. . ... : ... .. . ... : ... .. . ... ...
ROW C9 : ... .. . ... ... ... : ... .. . ... ... ... : ... .. . ... : ... .. . ... : ... .. . ... ...
ROW CA : ... .. 9 ... ... ... : ... .. . ... ... ... : ... .. . ... : ... .. . ... : ... .. . ... ...
ROW CB : ... .. . ... ... ... : ... .. . P81 ... ... : ... .. . ... : ... .. . ... : ... .. . ... ...
ROW CC : ... .. . ... ... ... : ... .. . ... ... ... : ... .. . ... : ... .. . ... : ... .. . ... ...
ROW CD : ... .. 8 ... ... ... : ... .. . ... ... ... : ... .. . ... : ... .. . ... : ... .. . ... ...
ROW CE : ... .. . ... ... ... : ... .. . ... ... ... : --- .. . ... : ... .. . ... : ... .. . ... ...
ROW CF : ... .. . ... ... ... : ... .. . P7F ... ... : ... .. . ... : ... .. . ... : ... .. . ... ...
ROW D0 : C#4 00 7 ... ... ... : ... .. . P80 ... ... : F#2 00 . ... : ... .. C ... : ... .. . ... ...
ROW D1 : ... .. . ... ... ... : ... .. . ... ... ... : ... .. . ... : ... .. 0 ... : ... .. . ... ...
ROW D2 : ... .. 8 ... ... ... : ... .. . ... ... ... : ... .. . ... : ... .. . ... : ... .. . ... ...
ROW D3 : ... .. . ... ... ... : ... .. . ... ... ... : ... .. . ... : ... .. . ... : ... .. . ... ...
ROW D4 : ... .. 9 ... ... ... : ... .. . ... ... ... : ... .. . ... : ... .. . ... : ... .. . ... ...
ROW D5 : ... .. . ... ... ... : ... .. . ... ... ... : ... .. . ... : ... .. . ... : ... .. . ... ...
ROW D6 : ... .. . ... ... ... : ... .. . ... ... ... : ... .. . ... : ... .. . ... : ... .. . ... ...
ROW D7 : ... .. 8 ... ... ... : ... .. . ... ... ... : ... .. . ... : ... .. . ... : ... .. . ... ...
ROW D8 : ... .. . ... ... ... : ... .. . ... ... ... : --- .. . ... : ... .. . ... : ... .. . ... ...
ROW D9 : ... .. . ... ... ... : ... .. . ... ... ... : ... .. . ... : ... .. . ... : ... .. . ... ...
ROW DA : ... .. . ... ... ... : ... .. . ... ... ... : ... .. . ... : ... .. . ... : ... .. . ... ...
ROW DB : ... .. 7 ... ... ... : ... .. . ... ... ... : ... .. . ... : ... .. . ... : ... .. . ... ...
ROW DC : ... .. . ... ... ... : ... .. . ... ... ... : ... .. . ... : ... .. . ... : ... .. . ... ...
ROW DD : ... .. 4 ... ... ... : ... .. . ... ... ... : ... .. . ... : ... .. . ... : ... .. . ... ...
ROW DE : ... .. . ... ... ... : ... .. . ... ... ... : ... .. . ... : ... .. . ... : ... .. . ... ...
ROW DF : ... .. . ... ... ... : ... .. . ... ... ... : ... .. . P7F : ... .. . ... : ... .. . ... ...
ROW E0 : ... .. . ... ... ... : ... .. . ... ... ... : ... .. . ... : ... .. . ... : ... .. . ... ...
ROW E1 : ... .. . ... ... ... : ... .. . ... ... ... : ... .. . ... : ... .. . ... : ... .. . ... ...
ROW E2 : ... .. . ... ... ... : ... .. . ... ... ... : ... .. . ... : ... .. . ... : ... .. . ... ...
ROW E3 : ... .. . ... ... ... : ... .. . ... ... ... : ... .. . P81 : ... .. . ... : ... .. . ... ...
ROW E4 : ... .. . ... ... ... : ... .. . ... ... ... : F#2 00 . P80 : ... .. C ... : ... .. . ... ...
ROW E5 : ... .. . ... ... ... : ... .. . ... ... ... : ... .. . ... : ... .. 0 ... : ... .. . ... ...
ROW E6 : ... .. . ... ... ... : ... .. . ... ... ... : ... .. . ... : ... .. . ... : ... .. . ... ...
ROW E7 : ... .. . ... ... ... : ... .. . ... ... ... : ... .. . ... : ... .. . ... : ... .. . ... ...
ROW E8 : ... .. . ... ... ... : ... .. . ... ... ... : ... .. . ... : ... .. . ... : ... .. . ... ...
ROW E9 : ... .. . ... ... ... : ... .. . ... ... ... : ... .. . ... : ... .. . ... : ... .. . ... ...
ROW EA : ... .. 7 ... ... ... : ... .. 7 ... ... ... : ... .. . ... : ... .. . ... : ... .. . ... ...
ROW EB : ... .. . ... ... ... : ... .. . ... ... ... : ... .. . ... : ... .. . ... : ... .. . ... ...
ROW EC : ... .. 8 ... ... ... : ... .. 8 ... ... ... : --- .. . ... : ... .. . ... : ... .. . ... ...
ROW ED : ... .. . ... ... ... : ... .. . ... ... ... : ... .. . ... : ... .. . ... : ... .. . ... ...
ROW EE : ... .. 9 ... ... ... : ... .. 9 ... ... ... : F#2 00 . ... : ... .. C ... : ... .. . ... ...
ROW EF : ... .. . ... ... ... : ... .. . ... ... ... : ... .. . ... : ... .. 0 ... : ... .. . ... ...
ROW F0 : ... .. . ... ... ... : ... .. . ... ... ... : ... .. . ... : ... .. . ... : ... .. . ... ...
ROW F1 : ... .. 8 ... ... ... : ... .. 8 ... ... ... : ... .. . ... : ... .. . ... : ... .. . ... ...
ROW F2 : ... .. . ... ... ... : ... .. . ... ... ... : ... .. . ... : ... .. . ... : ... .. . ... ...
ROW F3 : ... .. . ... ... ... : ... .. . ... ... ... : ... .. . ... : ... .. . ... : ... .. . ... ...
ROW F4 : ... .. . ... ... ... : ... .. . ... ... ... : ... .. . ... : ... .. . ... : ... .. . ... ...
ROW F5 : ... .. 7 ... ... ... : ... .. 7 ... ... ... : ... .. . ... : ... .. . ... : ... .. . ... ...
ROW F6 : ... .. . ... ... ... : ... .. . ... ... ... : --- .. . ... : ... .. . ... : ... .. . ... ...
ROW F7 : ... .. . ... ... ... : ... .. . ... ... ... : ... .. . ... : ... .. . ... : ... .. . ... ...
ROW F8 : ... .. . ... ... ... : ... .. . ... ... ... : F#2 00 . ... : ... .. C ... : ... .. . ... ...
ROW F9 : ... .. . ... ... ... : ... .. 8 ... ... ... : ... .. . ... : ... .. 0 ... : ... .. . ... ...
ROW FA : ... .. 8 ... ... ... : ... .. . ... ... ... : ... .. . ... : ... .. . ... : ... .. . ... ...
ROW FB : ... .. . ... ... ... : ... .. 9 ... ... ... : ... .. . ... : ... .. . ... : ... .. . ... ...
ROW FC : ... .. 9 ... ... ... : ... .. . ... ... ... : ... .. . ... : ... .. . ... : ... .. . ... ...
ROW FD : ... .. . ... ... ... : ... .. . ... ... ... : ... .. . ... : ... .. . ... : ... .. . ... ...
ROW FE : ... .. . ... ... ... : ... .. 8 ... ... ... : ... .. . ... : ... .. . ... : ... .. . ... ...
ROW FF : ... .. 8 ... ... ... : ... .. . ... ... ... : ... .. . ... : ... .. . ... : ... .. . ... ...

PATTERN 08
ROW 00 : ... .. . ... ... ... : ... .. . ... ... ... : --- .. . ... : ... .. . ... : ... .. . ... ...
ROW 01 : ... .. . ... ... ... : ... .. . ... ... ... : ... .. . ... : ... .. . ... : ... .. . ... ...
ROW 02 : ... .. . ... ... ... : ... .. 7 ... ... ... : ... .. . ... : ... .. . ... : ... .. . ... ...
ROW 03 : ... .. 7 ... ... ... : ... .. . ... ... ... : ... .. . ... : ... .. . ... : ... .. . ... ...
ROW 04 : ... .. . ... ... ... : G#4 00 7 ... ... ... : ... .. . ... : ... .. . ... : ... .. . ... ...
ROW 05 : ... .. . ... ... ... : ... .. . ... ... ... : ... .. . ... : ... .. . ... : ... .. . ... ...
ROW 06 : C-4 00 7 ... ... ... : ... .. 8 ... ... ... : ... .. . ... : ... .. . ... : ... .. . ... ...
ROW 07 : ... .. . ... ... ... : ... .. . ... ... ... : ... .. . P7F : ... .. . ... : ... .. . ... ...
ROW 08 : ... .. 8 ... ... ... : ... .. 9 ... ... ... : ... .. . ... : ... .. . ... : ... .. . ... ...
ROW 09 : ... .. . ... ... ... : ... .. . ... ... ... : ... .. . ... : ... .. . ... : ... .. . ... ...
ROW 0A : ... .. 9 ... ... ... : ... .. . ... ... ... : ... .. . ... : ... .. . ... : ... .. . ... ...
ROW 0B : ... .. . ... ... ... : ... .. 8 ... ... ... : ... .. . P81 : ... .. . ... : ... .. . ... ...
ROW 0C : ... .. . ... ... ... : ... .. . ... ... ... : F#2 00 . P80 : ... .. C ... : ... .. . ... ...
ROW 0D : ... .. 8 ... ... ... : ... .. . ... ... ... : ... .. . ... : ... .. 0 ... : ... .. . ... ...
ROW 0E : ... .. . ... ... ... : ... .. . ... ... ... : ... .. . ... : ... .. . ... : ... .. . ... ...
ROW 0F : ... .. . ... ... ... : ... .. 7 ... ... ... : ... .. . ... : ... .. . ... : ... .. . ... ...
ROW 10 : ... .. . ... ... ... : ... .. . ... ... ... : ... .. . ... : ... .. . ... : ... .. . ... ...
ROW 11 : ... .. 7 ... ... ... : ... .. . ... ... ... : ... .. . ... : ... .. . ... : ... .. . ... ...
ROW 12 : ... .. . ... ... ... : F#4 00 7 P7F ... ... : ... .. . ... : ... .. . ... : ... .. . ... ...
ROW 13 : A#3 00 7 ... ... ... : ... .. . ... ... ... : ... .. . ... : ... .. . ... : ... .. . ... ...
ROW 14 : ... .. . ... ... ... : ... .. 8 ... ... ... : --- .. . ... : ... .. . ... : ... .. . ... ...
ROW 15 : ... .. 8 ... ... ... : ... .. . ... ... ... : ... .. . ... : ... .. . ... : ... .. . ... ...
ROW 16 : ... .. . ... ... ... : ... .. 9 ... ... ... : F#2 00 . ... : ... .. C ... : ... .. . ... ...
ROW 17 : ... .. 9 ... ... ... : ... .. . ... ... ... : ... .. . ... : ... .. 0 ... : ... .. . ... ...
ROW 18 : ... .. . ... ... ... : ... .. . ... ... ... : ... .. . ... : ... .. . ... : ... .. . ... ...
ROW 19 : ... .. . ... ... ... : ... .. 8 ... ... ... : ... .. . ... : ... .. . ... : ... .. . ... ...
ROW 1A : ... .. 8 ... ... ... : ... .. . ... ... ... : ... .. . ... : ... .. . ... : ... .. . ... ...
ROW 1B : ... .. . ... ... ... : ... .. . ... ... ... : ... .. . ... : ... .. . ... : ... .. . ... ...
ROW 1C : ... .. . ... ... ... : ... .. . ... ... ... : ... .. . ... : ... .. . ... : ... .. . ... ...
ROW 1D : ... .. . ... ... ... : ... .. 7 ... ... ... : ... .. . ... : ... .. . ... : ... .. . ... ...
ROW 1E : ... .. 7 ... ... ... : ... .. . ... ... ... : --- .. . ... : ... .. . ... : ... .. . ... ...
ROW 1F : ... .. . ... ... ... : ... .. . ... ... ... : ... .. . ... : ... .. . ... : ... .. . ... ...
ROW 20 : C#4 00 7 ... ... ... : G#4 00 7 P80 ... ... : C#3 00 . ... : ... .. C ... : ... .. . ... ...
ROW 21 : ... .. . ... ... ... : ... .. . ... ... ... : ... .. . ... : ... .. 0 ... : ... .. . ... ...
ROW 22 : ... .. 8 ... ... ... : ... .. 8 ... ... ... : ... .. . ... : ... .. . ... : ... .. . ... ...
ROW 23 : ... .. . ... ... ... : ... .. . ... ... ... : ... .. . ... : ... .. . ... : ... .. . ... ...
ROW 24 : ... .. 9 ... ... ... : ... .. 9 ... ... ... : ... .. . ... : ... .. . ... : ... .. . ... ...
ROW 25 : ... .. . ... ... ... : ... .. . ... ... ... : ... .. . ... : ... .. . ... : ... .. . ... ...
ROW 26 : ... .. . ... ... ... : ... .. . ... ... ... : ... .. . ... : ... .. . ... : ... .. . ... ...
ROW 27 : ... .. 8 ... ... ... : ... .. 8 ... ... ... : ... .. . ... : ... .. . ... : ... .. . ... ...
ROW 28 : ... .. . ... ... ... : ... .. . ... ... ... : --- .. . ... : ... .. . ... : ... .. . ... ...
ROW 29 : ... .. . ... ... ... : ... .. . ... ... ... : ... .. . ... : ... .. . ... : ... .. . ... ...
ROW 2A : ... .. . ... ... ... : ... .. . ... ... ... : ... .. . ... : ... .. . ... : ... .. . ... ...
ROW 2B : ... .. 7 ... ... ... : ... .. 7 ... ... ... : ... .. . ... : ... .. . ... : ... .. . ... ...
ROW 2C : ... .. . ... ... ... : ... .. . ... ... ... : ... .. . ... : ... .. . ... : ... .. . ... ...
ROW 2D : ... .. 4 ... ... ... : ... .. . ... ... ... : ... .. . ... : ... .. . ... : ... .. . ... ...
ROW 2E : ... .. . ... ... ... : ... .. 4 ... ... ... : ... .. . ... : ... .. . ... : ... .. . ... ...
ROW 2F : ... .. . ... ... ... : ... .. . ... ... ... : ... .. . P7F : ... .. . ... : ... .. . ... ...
ROW 30 : ... .. . ... ... ... : ... .. . ... ... ... : ... .. . ... : ... .. . ... : ... .. . ... ...
ROW 31 : ... .. . ... ... ... : ... .. . ... ... ... : ... .. . ... : ... .. . ... : ... .. . ... ...
ROW 32 : ... .. . ... ... ... : ... .. . ... ... ... : ... .. . ... : ... .. . ... : ... .. . ... ...
ROW 33 : ... .. . ... ... ... : ... .. . ... ... ... : ... .. . P81 : ... .. . ... : ... .. . ... ...
ROW 34 : ... .. . ... ... ... : ... .. . ... ... ... : C#3 00 . P80 : ... .. C ... : ... .. . ... ...
ROW 35 : ... .. . ... ... ... : ... .. . ... ... ... : ... .. . ... : ... .. 0 ... : ... .. . ... ...
ROW 36 : ... .. . ... ... ... : ... .. . ... ... ... : ... .. . ... : ... .. . ... : ... .. . ... ...
ROW 37 : ... .. . ... ... ... : ... .. . ... ... ... : ... .. . ... : ... .. . ... : ... .. . ... ...
ROW 38 : ... .. . ... ... ... : ... .. . ... ... ... : ... .. . ... : ... .. . ... : ... .. . ... ...
ROW 39 : ... .. . ... ... ... : ... .. . ... ... ... : ... .. . ... : ... .. . ... : ... .. . ... ...
ROW 3A : A#3 00 7 ... ... ... : ... .. . ... ... ... : ... .. . ... : ... .. . ... : ... .. . ... ...
ROW 3B : ... .. . ... ... ... : F#4 00 7 P7F ... ... : ... .. . ... : ... .. . ... : ... .. . ... ...
ROW 3C : ... .. 8 ... ... ... : ... .. . ... ... ... : --- .. . ... : ... .. . ... : ... .. . ... ...
ROW 3D : ... .. . ... ... ... : ... .. 8 ... ... ... : ... .. . ... : ... .. . ... : ... .. . ... ...
ROW 3E : ... .. 9 ... ... ... : ... .. . ... ... ... : C#3 00 . ... : ... .. C ... : ... .. . ... ...
ROW 3F : ... .. . ... ... ... : ... .. 9 ... ... ... : ... .. . ... : ... .. 0 ... : ... .. . ... ...
ROW 40 : ... .. . ... ... ... : ... .. . ... ... ... : ... .. . ... : ... .. . ... : ... .. . ... ...
ROW 41 : ... .. 8 ... ... ... : ... .. . ... ... ... : ... .. . ... : ... .. . ... : ... .. . ... ...
ROW 42 : ... .. . ... ... ... : ... .. 8 ... ... ... : ... .. . ... : ... .. . ... : ... .. . ... ...
ROW 43 : ... .. . ... ... ... : ... .. . ... ... ... : ... .. . ... : ... .. . ... : ... .. . ... ...
ROW 44 : ... .. . ... ... ... : ... .. . ... ... ... : ... .. . ... : ... .. . ... : ... .. . ... ...
ROW 45 : ... .. 7 ... ... ... : ... .. . ... ... ... : ... .. . ... : ... .. . ... : ... .. . ... ...
ROW 46 : ... .. . ... ... ... : ... .. 7 ... ... ... : --- .. . ... : ... .. . ... : ... .. . ... ...
ROW 47 : ... .. . ... ... ... : ... .. . ... ... ... : ... .. . ... : ... .. . ... : ... .. . ... ...
ROW 48 : G#3 00 7 P7F ... ... : F-4 00 7 ... ... ... : C#3 00 . ... : ... .. C ... : ... .. . ... ...
ROW 49 : ... .. . ... ... ... : ... .. . ... ... ... : ... .. . ... : ... .. 0 ... : ... .. . ... ...
ROW 4A : ... .. 8 ... ... ... : ... .. 8 ... ... ... : ... .. . ... : ... .. . ... : ... .. . ... ...
ROW 4B : ... .. . ... ... ... : ... .. . ... ... ... : ... .. . ... : ... .. . ... : ... .. . ... ...
ROW 4C : ... .. 9 ... ... ... : ... .. 9 ... ... ... : ... .. . ... : ... .. . ... : ... .. . ... ...
ROW 4D : ... .. . ... ... ... : ... .. . ... ... ... : ... .. . ... : ... .. . ... : ... .. . ... ...
ROW 4E : ... .. . ... ... ... : ... .. . ... ... ... : ... .. . ... : ... .. . ... : ... .. . ... ...
ROW 4F : ... .. 8 ... ... ... : ... .. 8 ... ... ... : ... .. . ... : ... .. . ... : ... .. . ... ...
ROW 50 : ... .. . ... ... ... : ... .. . ... ... ... : --- .. . ... : ... .. . ... : ... .. . ... ...
ROW 51 : ... .. . ... ... ... : ... .. . ... ... ... : ... .. . ... : ... .. . ... : ... .. . ... ...
ROW 52 : ... .. . ... ... ... : ... .. . ... ... ... : ... .. . ... : ... .. . ... : ... .. . ... ...
ROW 53 : ... .. 7 ... ... ... : ... .. 7 ... ... ... : ... .. . ... : ... .. . ... : ... .. . ... ...
ROW 54 : ... .. . ... ... ... : ... .. . ... ... ... : ... .. . ... : ... .. . ... : ... .. . ... ...
ROW 55 : ... .. . ... ... ... : ... .. . ... ... ... : ... .. . ... : ... .. . ... : ... .. . ... ...
ROW 56 : ... .. . ... ... ... : ... .. . ... ... ... : ... .. . ... : ... .. . ... : ... .. . ... ...
ROW 57 : ... .. 8 ... ... ... : ... .. 6 P7E ... ... : ... .. . P7F : ... .. . ... : ... .. . ... ...
ROW 58 : ... .. . ... ... ... : ... .. . ... ... ... : ... .. . ... : ... .. . ... : ... .. . ... ...
ROW 59 : ... .. 9 ... ... ... : ... .. . ... ... ... : ... .. . ... : ... .. . ... : ... .. . ... ...
ROW 5A : ... .. . ... ... ... : ... .. . ... ... ... : ... .. . ... : ... .. . ... : ... .. . ... ...
ROW 5B : ... .. . ... ... ... : ... .. . P80 ... ... : ... .. . P81 : ... .. . ... : ... .. . ... ...
ROW 5C : ... .. 8 ... ... ... : ... .. . ... ... ... : C#3 00 . P80 : ... .. C ... : ... .. . ... ...
ROW 5D : ... .. . ... ... ... : ... .. . ... ... ... : ... .. . ... : ... .. 0 ... : ... .. . ... ...
ROW 5E : ... .. . ... ... ... : ... .. . ... ... ... : ... .. . ... : ... .. . ... : ... .. . ... ...
ROW 5F : ... .. . ... ... ... : ... .. 5 P7E ... ... : ... .. . ... : ... .. . ... : ... .. . ... ...
ROW 60 : ... .. 7 ... ... ... : ... .. . ... ... ... : ... .. . ... : ... .. . ... : ... .. . ... ...
ROW 61 : ... .. . ... ... ... : ... .. . ... ... ... : ... .. . ... : ... .. . ... : ... .. . ... ...
ROW 62 : F#3 00 7 ... ... ... : ... .. . ... ... ... : ... .. . ... : ... .. . ... : ... .. . ... ...
ROW 63 : ... .. . ... ... ... : ... .. . P80 ... ... : ... .. . ... : ... .. . ... : ... .. . ... ...
ROW 64 : ... .. 8 ... ... ... : ... .. 4 ... ... ... : --- .. . ... : ... .. . ... : ... .. . ... ...
ROW 65 : ... .. . ... ... ... : ... .. . ... ... ... : ... .. . ... : ... .. . ... : ... .. . ... ...
ROW 66 : ... .. 9 ... ... ... : ... .. . ... ... ... : C#3 00 . ... : ... .. C ... : ... .. . ... ...
ROW 67 : ... .. . ... ... ... : ... .. . P7E ... ... : ... .. . ... : ... .. 0 ... : ... .. . ... ...
ROW 68 : ... .. . ... ... ... : ... .. . ... ... ... : ... .. . ... : ... .. . ... : ... .. . ... ...
ROW 69 : ... .. 8 ... ... ... : ... .. . ... ... ... : ... .. . ... : ... .. . ... : ... .. . ... ...
ROW 6A : ... .. . ... ... ... : ... .. . ... ... ... : ... .. . ... : ... .. . ... : ... .. . ... ...
ROW 6B : ... .. . ... ... ... : ... .. . P80 ... ... : ... .. . ... : ... .. . ... : ... .. . ... ...
ROW 6C : ... .. . ... ... ... : ... .. . ... ... ... : ... .. . ... : ... .. . ... : ... .. . ... ...
ROW 6D : ... .. 7 ... ... ... : ... .. . ... ... ... : ... .. . ... : ... .. . ... : ... .. . ... ...
ROW 6E : ... .. . ... ... ... : ... .. . ... ... ... : --- .. . ... : ... .. . ... : ... .. . ... ...
ROW 6F : G#3 00 7 ... ... ... : ... .. . P7E ... ... : ... .. . ... : ... .. . ... : ... .. . ... ...
ROW 70 : ... .. . ... ... ... : ... .. . ... ... ... : C#3 00 . ... : ... .. C ... : ... .. . ... ...
ROW 71 : ... .. 8 ... ... ... : ... .. . ... ... ... : ... .. . ... : ... .. 0 ... : ... .. . ... ...
ROW 72 : ... .. . ... ... ... : ... .. . ... ... ... : ... .. . ... : ... .. . ... : ... .. . ... ...
ROW 73 : ... .. 9 ... ... ... : ... .. . P80 ... ... : ... .. . ... : ... .. . ... : ... .. . ... ...
ROW 74 : ... .. . ... ... ... : ... .. . ... ... ... : ... .. . ... : ... .. . ... : ... .. . ... ...
ROW 75 : ... .. . ... ... ... : ... .. . ... ... ... : ... .. . ... : ... .. . ... : ... .. . ... ...
ROW 76 : ... .. 8 ... ... ... : ... .. . ... ... ... : ... .. . ... : ... .. . ... : ... .. . ... ...
ROW 77 : ... .. . ... ... ... : ... .. . P7E ... ... : ... .. . ... : ... .. . ... : ... .. . ... ...
ROW 78 : ... .. . ... ... ... : ... .. . ... ... ... : --- .. . ... : ... .. . ... : ... .. . ... ...
ROW 79 : ... .. . ... ... ... : ... .. . ... ... ... : ... .. . ... : ... .. . ... : ... .. . ... ...
ROW 7A : ... .. 7 ... ... ... : ... .. . ... ... ... : ... .. . ... : ... .. . ... : ... .. . ... ...
ROW 7B : ... .. . ... ... ... : ... .. . P80 ... ... : ... .. . ... : ... .. . ... : ... .. . ... ...
ROW 7C : ... .. 4 ... ... ... : ... .. . ... ... ... : ... .. . ... : ... .. . ... : ... .. . ... ...
ROW 7D : ... .. . ... ... ... : ... .. . ... ... ... : ... .. . ... : ... .. . ... : ... .. . ... ...
ROW 7E : ... .. . ... ... ... : ... .. . ... ... ... : ... .. . ... : ... .. . ... : ... .. . ... ...
ROW 7F : ... .. . ... ... ... : ... .. . P7E ... ... : ... .. . P7F : ... .. . ... : ... .. . ... ...
ROW 80 : ... .. . ... ... ... : ... .. . ... ... ... : ... .. . ... : ... .. . ... : ... .. . ... ...
ROW 81 : ... .. . ... ... ... : ... .. . ... ... ... : ... .. . ... : ... .. . ... : ... .. . ... ...
ROW 82 : ... .. . ... ... ... : ... .. . ... ... ... : ... .. . ... : ... .. . ... : ... .. . ... ...
ROW 83 : ... .. . ... ... ... : ... .. . P80 ... ... : ... .. . P81 : ... .. . ... : ... .. . ... ...
ROW 84 : ... .. . ... ... ... : ... .. . ... ... ... : C#3 00 . P80 : ... .. C ... : ... .. . ... ...
ROW 85 : ... .. . ... ... ... : ... .. . ... ... ... : ... .. . ... : ... .. 0 ... : ... .. . ... ...
ROW 86 : ... .. . ... ... ... : ... .. . ... ... ... : ... .. . ... : ... .. . ... : ... .. . ... ...
ROW 87 : ... .. . ... ... ... : ... .. . P7E ... ... : ... .. . ... : ... .. . ... : ... .. . ... ...
ROW 88 : ... .. . ... ... ... : ... .. . ... ... ... : ... .. . ... : ... .. . ... : ... .. . ... ...
ROW 89 : ... .. 7 ... ... ... : ... .. . ... ... ... : ... .. . ... : ... .. . ... : ... .. . ... ...
ROW 8A : ... .. . ... ... ... : ... .. . ... ... ... : ... .. . ... : ... .. . ... : ... .. . ... ...
ROW 8B : ... .. 8 ... ... ... : ... .. . P80 ... ... : ... .. . ... : ... .. . ... : ... .. . ... ...
ROW 8C : ... .. . ... ... ... : ... .. . ... ... ... : --- .. . ... : ... .. . ... : ... .. . ... ...
ROW 8D : ... .. 9 ... ... ... : ... .. . ... ... ... : ... .. . ... : ... .. . ... : ... .. . ... ...
ROW 8E : ... .. . ... ... ... : ... .. . ... ... ... : C#3 00 . ... : ... .. C ... : ... .. . ... ...
ROW 8F : ... .. . ... ... ... : ... .. . P7E ... ... : ... .. . ... : ... .. 0 ... : ... .. . ... ...
ROW 90 : ... .. 8 ... ... ... : ... .. . ... ... ... : ... .. . ... : ... .. . ... : ... .. . ... ...
ROW 91 : ... .. . ... ... ... : ... .. . ... ... ... : ... .. . ... : ... .. . ... : ... .. . ... ...
ROW 92 : ... .. . ... ... ... : ... .. . ... ... ... : ... .. . ... : ... .. . ... : ... .. . ... ...
ROW 93 : ... .. . ... ... ... : ... .. . P80 ... ... : ... .. . ... : ... .. . ... : ... .. . ... ...
ROW 94 : ... .. 7 ... ... ... : ... .. . ... ... ... : ... .. . ... : ... .. . ... : ... .. . ... ...
ROW 95 : ... .. . ... ... ... : ... .. . ... ... ... : ... .. . ... : ... .. . ... : ... .. . ... ...
ROW 96 : ... .. . ... ... ... : ... .. . ... ... ... : --- .. . ... : ... .. . ... : ... .. . ... ...
ROW 97 : ... .. . ... ... ... : ... .. . P7E ... ... : ... .. . ... : ... .. . ... : ... .. . ... ...
ROW 98 : ... .. . ... ... ... : ... .. 7 P7F ... ... : C#3 00 . ... : ... .. C ... : ... .. . ... ...
ROW 99 : ... .. 8 ... ... ... : ... .. . ... ... ... : ... .. . ... : ... .. 0 ... : ... .. . ... ...
ROW 9A : ... .. . ... ... ... : ... .. 8 ... ... ... : ... .. . ... : ... .. . ... : ... .. . ... ...
ROW 9B : ... .. 9 ... ... ... : ... .. . ... ... ... : ... .. . ... : ... .. . ... : ... .. . ... ...
ROW 9C : ... .. . ... ... ... : ... .. 9 ... ... ... : ... .. . ... : ... .. . ... : ... .. . ... ...
ROW 9D : ... .. . ... ... ... : ... .. . ... ... ... : ... .. . ... : ... .. . ... : ... .. . ... ...
ROW 9E : ... .. 8 ... ... ... : ... .. . ... ... ... : ... .. . ... : ... .. . ... : ... .. . ... ...
ROW 9F : ... .. . ... ... ... : ... .. 8 ... ... ... : ... .. . ... : ... .. . ... : ... .. . ... ...
ROW A0 : ... .. . ... ... ... : ... .. . ... ... ... : --- .. . ... : ... .. . ... : ... .. . ... ...
ROW A1 : ... .. . ... ... ... : ... .. . ... ... ... : ... .. . ... : ... .. . ... : ... .. . ... ...
ROW A2 : ... .. 7 ... ... ... : ... .. . ... ... ... : ... .. . ... : ... .. . ... : ... .. . ... ...
ROW A3 : ... .. . ... ... ... : ... .. 7 ... ... ... : ... .. . ... : ... .. . ... : ... .. . ... ...
ROW A4 : ... .. . ... ... ... : ... .. . ... ... ... : ... .. . ... : ... .. . ... : ... .. . ... ...
ROW A5 : F#3 00 7 ... ... ... : ... .. . ... ... ... : ... .. . ... : ... .. . ... : ... .. . ... ...
ROW A6 : ... .. . ... ... ... : ... .. . ... ... ... : ... .. . ... : ... .. . ... : ... .. . ... ...
ROW A7 : ... .. 8 ... ... ... : ... .. 6 P7E ... ... : ... .. . P7F : ... .. . ... : ... .. . ... ...
ROW A8 : ... .. . ... ... ... : ... .. . ... ... ... : ... .. . ... : ... .. . ... : ... .. . ... ...
ROW A9 : ... .. 9 ... ... ... : ... .. . ... ... ... : ... .. . ... : ... .. . ... : ... .. . ... ...
ROW AA : ... .. . ... ... ... : ... .. . ... ... ... : ... .. . ... : ... .. . ... : ... .. . ... ...
ROW AB : ... .. . ... ... ... : ... .. . P80 ... ... : ... .. . P81 : ... .. . ... : ... .. . ... ...
ROW AC : ... .. 8 ... ... ... : ... .. . ... ... ... : C#3 00 . P80 : ... .. C ... : ... .. . ... ...
ROW AD : ... .. . ... ... ... : ... .. . ... ... ... : ... .. . ... : ... .. 0 ... : ... .. . ... ...
ROW AE : ... .. . ... ... ... : ... .. . ... ... ... : ... .. . ... : ... .. . ... : ... .. . ... ...
ROW AF : ... .. . ... ... ... : ... .. 5 P7E ... ... : ... .. . ... : ... .. . ... : ... .. . ... ...
ROW B0 : ... .. 7 ... ... ... : ... .. . ... ... ... : ... .. . ... : ... .. . ... : ... .. . ... ...
ROW B1 : ... .. . ... ... ... : ... .. . ... ... ... : ... .. . ... : ... .. . ... : ... .. . ... ...
ROW B2 : G#3 00 7 ... ... ... : ... .. . ... ... ... : ... .. . ... : ... .. . ... : ... .. . ... ...
ROW B3 : ... .. . ... ... ... : ... .. . P80 ... ... : ... .. . ... : ... .. . ... : ... .. . ... ...
ROW B4 : ... .. 8 ... ... ... : ... .. 4 ... ... ... : --- .. . ... : ... .. . ... : ... .. . ... ...
ROW B5 : ... .. . ... ... ... : ... .. . ... ... ... : ... .. . ... : ... .. . ... : ... .. . ... ...
ROW B6 : ... .. 9 ... ... ... : ... .. . ... ... ... : C#3 00 . ... : ... .. C ... : ... .. . ... ...
ROW B7 : ... .. . ... ... ... : ... .. . P7E ... ... : ... .. . ... : ... .. 0 ... : ... .. . ... ...
ROW B8 : ... .. . ... ... ... : ... .. . ... ... ... : ... .. . ... : ... .. . ... : ... .. . ... ...
ROW B9 : ... .. 8 ... ... ... : ... .. . ... ... ... : ... .. . ... : ... .. . ... : ... .. . ... ...
ROW BA : ... .. . ... ... ... : ... .. . ... ... ... : ... .. . ... : ... .. . ... : ... .. . ... ...
ROW BB : ... .. . ... ... ... : ... .. . P80 ... ... : ... .. . ... : ... .. . ... : ... .. . ... ...
ROW BC : ... .. . ... ... ... : ... .. . ... ... ... : ... .. . ... : ... .. . ... : ... .. . ... ...
ROW BD : ... .. 7 ... ... ... : ... .. . ... ... ... : ... .. . ... : ... .. . ... : ... .. . ... ...
ROW BE : ... .. . ... ... ... : ... .. . ... ... ... : --- .. . ... : ... .. . ... : ... .. . ... ...
ROW BF : F#3 00 7 ... ... ... : ... .. . P7E ... ... : ... .. . ... : ... .. . ... : ... .. . ... ...
ROW C0 : ... .. . ... ... ... : D#4 00 7 P80 ... ... : B-2 00 . ... : ... .. C ... : ... .. . ... ...
ROW C1 : ... .. 8 ... ... ... : ... .. . ... ... ... : ... .. . ... : ... .. 0 ... : ... .. . ... ...
ROW C2 : ... .. . ... ... ... : ... .. 8 ... ... ... : ... .. . ... : ... .. . ... : ... .. . ... ...
ROW C3 : ... .. 9 ... ... ... : ... .. . ... ... ... : ... .. . ... : ... .. . ... : ... .. . ... ...
ROW C4 : ... .. . ... ... ... : ... .. 9 ... ... ... : ... .. . ... : ... .. . ... : ... .. . ... ...
ROW C5 : ... .. . ... ... ... : ... .. . ... ... ... : ... .. . ... : ... .. . ... : ... .. . ... ...
ROW C6 : ... .. 8 ... ... ... : ... .. . ... ... ... : ... .. . ... : ... .. . ... : ... .. . ... ...
ROW C7 : ... .. . ... ... ... : ... .. 8 ... ... ... : ... .. . ... : ... .. . ... : ... .. . ... ...
ROW C8 : ... .. . ... ... ... : ... .. . ... ... ... : --- .. . ... : ... .. . ... : ... .. . ... ...
ROW C9 : ... .. . ... ... ... : ... .. . ... ... ... : ... .. . ... : ... .. . ... : ... .. . ... ...
ROW CA : ... .. 7 ... ... ... : ... .. . ... ... ... : ... .. . ... : ... .. . ... : ... .. . ... ...
ROW CB : ... .. . ... ... ... : ... .. 7 ... ... ... : ... .. . ... : ... .. . ... : ... .. . ... ...
ROW CC : ... .. . ... ... ... : ... .. . ... ... ... : ... .. . ... : ... .. . ... : ... .. . ... ...
ROW CD : ... .. . ... ... ... : ... .. . ... ... ... : ... .. . ... : ... .. . ... : ... .. . ... ...
ROW CE : ... .. 6 P7E ... ... : ... .. . ... ... ... : ... .. . ... : ... .. . ... : ... .. . ... ...
ROW CF : ... .. . ... ... ... : ... .. 6 P7F ... ... : ... .. . P7F : ... .. . ... : ... .. . ... ...
ROW D0 : ... .. . ... ... ... : ... .. . ... ... ... : ... .. . ... : ... .. . ... : ... .. . ... ...
ROW D1 : ... .. . ... ... ... : ... .. . ... ... ... : ... .. . ... : ... .. . ... : ... .. . ... ...
ROW D2 : ... .. . P80 ... ... : ... .. . ... ... ... : ... .. . ... : ... .. . ... : ... .. . ... ...
ROW D3 : ... .. 7 P7F ... ... : ... .. . P81 ... ... : ... .. . P81 : ... .. . ... : ... .. . ... ...
ROW D4 : ... .. . ... ... ... : ... .. 7 P80 ... ... : B-2 00 . P80 : ... .. C ... : ... .. . ... ...
ROW D5 : ... .. 8 ... ... ... : ... .. . ... ... ... : ... .. . ... : ... .. 0 ... : ... .. . ... ...
ROW D6 : ... .. . ... ... ... : ... .. 8 ... ... ... : ... .. . ... : ... .. . ... : ... .. . ... ...
ROW D7 : ... .. 9 ... ... ... : ... .. . ... ... ... : ... .. . ... : ... .. . ... : ... .. . ... ...
ROW D8 : ... .. . ... ... ... : ... .. 9 ... ... ... : ... .. . ... : ... .. . ... : ... .. . ... ...
ROW D9 : ... .. . ... ... ... : ... .. . ... ... ... : ... .. . ... : ... .. . ... : ... .. . ... ...
ROW DA : ... .. 8 ... ... ... : ... .. . ... ... ... : ... .. . ... : ... .. . ... : ... .. . ... ...
ROW DB : ... .. . ... ... ... : ... .. 8 ... ... ... : ... .. . ... : ... .. . ... : ... .. . ... ...
ROW DC : ... .. . ... ... ... : ... .. . ... ... ... : --- .. . ... : ... .. . ... : ... .. . ... ...
ROW DD : F-3 00 7 ... ... ... : ... .. . ... ... ... : ... .. . ... : ... .. . ... : ... .. . ... ...
ROW DE : ... .. . ... ... ... : F-4 00 7 P7F ... ... : B-2 00 . ... : ... .. C ... : ... .. . ... ...
ROW DF : ... .. 8 ... ... ... : ... .. . ... ... ... : ... .. . ... : ... .. 0 ... : ... .. . ... ...
ROW E0 : ... .. . ... ... ... : ... .. 8 ... ... ... : ... .. . ... : ... .. . ... : ... .. . ... ...
ROW E1 : ... .. 9 ... ... ... : ... .. . ... ... ... : ... .. . ... : ... .. . ... : ... .. . ... ...
ROW E2 : ... .. . ... ... ... : ... .. 9 ... ... ... : ... .. . ... : ... .. . ... : ... .. . ... ...
ROW E3 : ... .. . ... ... ... : ... .. . ... ... ... : ... .. . ... : ... .. . ... : ... .. . ... ...
ROW E4 : ... .. 8 ... ... ... : ... .. . ... ... ... : ... .. . ... : ... .. . ... : ... .. . ... ...
ROW E5 : ... .. . ... ... ... : ... .. 8 ... ... ... : ... .. . ... : ... .. . ... : ... .. . ... ...
ROW E6 : ... .. . ... ... ... : ... .. . ... ... ... : --- .. . ... : ... .. . ... : ... .. . ... ...
ROW E7 : F#3 00 7 ... ... ... : ... .. . ... ... ... : ... .. . ... : ... .. . ... : ... .. . ... ...
ROW E8 : ... .. . ... ... ... : F#4 00 7 ... ... ... : B-2 00 . ... : ... .. C ... : ... .. . ... ...
ROW E9 : ... .. 8 ... ... ... : ... .. . ... ... ... : ... .. . ... : ... .. 0 ... : ... .. . ... ...
ROW EA : ... .. . ... ... ... : ... .. 8 ... ... ... : ... .. . ... : ... .. . ... : ... .. . ... ...
ROW EB : ... .. 9 ... ... ... : ... .. . ... ... ... : ... .. . ... : ... .. . ... : ... .. . ... ...
ROW EC : ... .. . ... ... ... : ... .. 9 ... ... ... : ... .. . ... : ... .. . ... : ... .. . ... ...
ROW ED : ... .. . ... ... ... : ... .. . ... ... ... : ... .. . ... : ... .. . ... : ... .. . ... ...
ROW EE : ... .. 8 ... ... ... : ... .. . ... ... ... : ... .. . ... : ... .. . ... : ... .. . ... ...
ROW EF : ... .. . ... ... ... : ... .. 8 ... ... ... : ... .. . ... : ... .. . ... : ... .. . ... ...
ROW F0 : ... .. . ... ... ... : ... .. . ... ... ... : --- .. . ... : ... .. . ... : ... .. . ... ...
ROW F1 : ... .. . ... ... ... : ... .. . ... ... ... : ... .. . ... : ... .. . ... : ... .. . ... ...
ROW F2 : ... .. 7 ... ... ... : ... .. . ... ... ... : ... .. . ... : ... .. . ... : ... .. . ... ...
ROW F3 : ... .. . ... ... ... : ... .. 7 ... ... ... : ... .. . ... : ... .. . ... : ... .. . ... ...
ROW F4 : ... .. . ... ... ... : ... .. . ... ... ... : ... .. . ... : ... .. . ... : ... .. . ... ...
ROW F5 : ... .. . ... ... ... : ... .. . ... ... ... : ... .. . ... : ... .. . ... : ... .. . ... ...
ROW F6 : ... .. 6 P7E ... ... : ... .. . ... ... ... : ... .. . ... : ... .. . ... : ... .. . ... ...
ROW F7 : ... .. . ... ... ... : ... .. 6 P7E ... ... : ... .. . P7F : ... .. . ... : ... .. . ... ...
ROW F8 : ... .. . ... ... ... : ... .. . ... ... ... : ... .. . ... : ... .. . ... : ... .. . ... ...
ROW F9 : ... .. . ... ... ... : ... .. . ... ... ... : ... .. . ... : ... .. . ... : ... .. . ... ...
ROW FA : ... .. . P80 ... ... : ... .. . ... ... ... : ... .. . ... : ... .. . ... : ... .. . ... ...
ROW FB : ... .. 7 P7F ... ... : ... .. . P80 ... ... : ... .. . P81 : ... .. . ... : ... .. . ... ...
ROW FC : ... .. . ... ... ... : ... .. . ... ... ... : B-2 00 . P80 : ... .. C ... : ... .. . ... ...
ROW FD : ... .. 8 ... ... ... : ... .. . ... ... ... : ... .. . ... : ... .. 0 ... : ... .. . ... ...
ROW FE : ... .. . ... ... ... : ... .. . ... ... ... : ... .. . ... : ... .. . ... : ... .. . ... ...
ROW FF : ... .. 9 ... ... ... : ... .. 5 P7E ... ... : ... .. . ... : ... .. . ... : ... .. . ... ...

PATTERN 09
ROW 00 : ... .. . ... ... ... : ... .. . ... ... ... : ... .. . ... : ... .. . ... : ... .. . ... ...
ROW 01 : ... .. . ... ... ... : ... .. . ... ... ... : ... .. . ... : ... .. . ... : ... .. . ... ...
ROW 02 : ... .. 8 ... ... ... : ... .. . ... ... ... : ... .. . ... : ... .. . ... : ... .. . ... ...
ROW 03 : ... .. . ... ... ... : ... .. . P80 ... ... : ... .. . ... : ... .. . ... : ... .. . ... ...
ROW 04 : ... .. . ... ... ... : ... .. 4 ... ... ... : --- .. . ... : ... .. . ... : ... .. . ... ...
ROW 05 : G#3 00 7 ... ... ... : ... .. . ... ... ... : ... .. . ... : ... .. . ... : ... .. . ... ...
ROW 06 : ... .. . ... ... ... : ... .. . ... ... ... : B-2 00 . ... : ... .. C ... : ... .. . ... ...
ROW 07 : ... .. 8 ... ... ... : ... .. . P7E ... ... : ... .. . ... : ... .. 0 ... : ... .. . ... ...
ROW 08 : ... .. . ... ... ... : ... .. . ... ... ... : ... .. . ... : ... .. . ... : ... .. . ... ...
ROW 09 : ... .. 9 ... ... ... : ... .. . ... ... ... : ... .. . ... : ... .. . ... : ... .. . ... ...
ROW 0A : ... .. . ... ... ... : ... .. . ... ... ... : ... .. . ... : ... .. . ... : ... .. . ... ...
ROW 0B : ... .. . ... ... ... : ... .. . P80 ... ... : ... .. . ... : ... .. . ... : ... .. . ... ...
ROW 0C : ... .. 8 ... ... ... : ... .. . ... ... ... : ... .. . ... : ... .. . ... : ... .. . ... ...
ROW 0D : ... .. . ... ... ... : ... .. . ... ... ... : ... .. . ... : ... .. . ... : ... .. . ... ...
ROW 0E : ... .. . ... ... ... : ... .. . ... ... ... : --- .. . ... : ... .. . ... : ... .. . ... ...
ROW 0F : A#3 00 7 P80 ... ... : ... .. . P7E ... ... : ... .. . ... : ... .. . ... : ... .. . ... ...
ROW 10 : ... .. . ... ... ... : ... .. . ... ... ... : B-2 00 . ... : ... .. C ... : ... .. . ... ...
ROW 11 : ... .. 8 ... ... ... : ... .. . ... ... ... : ... .. . ... : ... .. 0 ... : ... .. . ... ...
ROW 12 : ... .. . ... ... ... : ... .. . ... ... ... : ... .. . ... : ... .. . ... : ... .. . ... ...
ROW 13 : ... .. 9 ... ... ... : ... .. . P80 ... ... : ... .. . ... : ... .. . ... : ... .. . ... ...
ROW 14 : ... .. . ... ... ... : ... .. . ... ... ... : ... .. . ... : ... .. . ... : ... .. . ... ...
ROW 15 : ... .. . ... ... ... : ... .. . ... ... ... : ... .. . ... : ... .. . ... : ... .. . ... ...
ROW 16 : ... .. 8 ... ... ... : ... .. . ... ... ... : ... .. . ... : ... .. . ... : ... .. . ... ...
ROW 17 : ... .. . ... ... ... : ... .. . P7E ... ... : ... .. . ... : ... .. . ... : ... .. . ... ...
ROW 18 : ... .. . ... ... ... : ... .. . ... ... ... : --- .. . ... : ... .. . ... : ... .. . ... ...
ROW 19 : ... .. . ... ... ... : ... .. . ... ... ... : ... .. . ... : ... .. . ... : ... .. . ... ...
ROW 1A : ... .. 7 ... ... ... : ... .. . ... ... ... : ... .. . ... : ... .. . ... : ... .. . ... ...
ROW 1B : ... .. . ... ... ... : ... .. . P80 ... ... : ... .. . ... : ... .. . ... : ... .. . ... ...
ROW 1C : ... .. . ... ... ... : ... .. . ... ... ... : ... .. . ... : ... .. . ... : ... .. . ... ...
ROW 1D : ... .. . ... ... ... : ... .. . ... ... ... : ... .. . ... : ... .. . ... : ... .. . ... ...
ROW 1E : ... .. 6 P7F ... ... : ... .. . ... ... ... : ... .. . ... : ... .. . ... : ... .. . ... ...
ROW 1F : ... .. . ... ... ... : ... .. . P7E ... ... : ... .. . P7F : ... .. . ... : ... .. . ... ...
ROW 20 : ... .. . ... ... ... : ... .. . ... ... ... : ... .. . ... : ... .. . ... : ... .. . ... ...
ROW 21 : ... .. . ... ... ... : ... .. . ... ... ... : ... .. . ... : ... .. . ... : ... .. . ... ...
ROW 22 : ... .. . P81 ... ... : ... .. . ... ... ... : ... .. . ... : ... .. . ... : ... .. . ... ...
ROW 23 : ... .. . ... ... ... : ... .. . P80 ... ... : ... .. . P81 : ... .. . ... : ... .. . ... ...
ROW 24 : ... .. . ... ... ... : ... .. . ... ... ... : B-2 00 . P80 : ... .. C ... : ... .. . ... ...
ROW 25 : ... .. . ... ... ... : ... .. . ... ... ... : ... .. . ... : ... .. 0 ... : ... .. . ... ...
ROW 26 : ... .. 5 P7F ... ... : ... .. . ... ... ... : ... .. . ... : ... .. . ... : ... .. . ... ...
ROW 27 : ... .. . ... ... ... : ... .. . P7E ... ... : ... .. . ... : ... .. . ... : ... .. . ... ...
ROW 28 : ... .. . ... ... ... : ... .. . ... ... ... : ... .. . ... : ... .. . ... : ... .. . ... ...
ROW 29 : ... .. . ... ... ... : ... .. . ... ... ... : ... .. . ... : ... .. . ... : ... .. . ... ...
ROW 2A : ... .. . P81 ... ... : ... .. . ... ... ... : ... .. . ... : ... .. . ... : ... .. . ... ...
ROW 2B : ... .. 4 ... ... ... : ... .. . P80 ... ... : ... .. . ... : ... .. . ... : ... .. . ... ...
ROW 2C : ... .. . ... ... ... : ... .. . ... ... ... : --- .. . ... : ... .. . ... : ... .. . ... ...
ROW 2D : ... .. . ... ... ... : ... .. . ... ... ... : ... .. . ... : ... .. . ... : ... .. . ... ...
ROW 2E : ... .. . P7F ... ... : ... .. . ... ... ... : B-2 00 . ... : ... .. C ... : ... .. . ... ...
ROW 2F : ... .. . ... ... ... : ... .. . P7E ... ... : ... .. . ... : ... .. 0 ... : ... .. . ... ...
ROW 30 : ... .. . ... ... ... : ... .. . ... ... ... : ... .. . ... : ... .. . ... : ... .. . ... ...
ROW 31 : ... .. . ... ... ... : ... .. . ... ... ... : ... .. . ... : ... .. . ... : ... .. . ... ...
ROW 32 : ... .. . P81 ... ... : ... .. . ... ... ... : ... .. . ... : ... .. . ... : ... .. . ... ...
ROW 33 : ... .. . ... ... ... : ... .. . P80 ... ... : ... .. . ... : ... .. . ... : ... .. . ... ...
ROW 34 : ... .. . ... ... ... : ... .. . ... ... ... : ... .. . ... : ... .. . ... : ... .. . ... ...
ROW 35 : ... .. . ... ... ... : ... .. . ... ... ... : ... .. . ... : ... .. . ... : ... .. . ... ...
ROW 36 : ... .. . P7F ... ... : ... .. . ... ... ... : --- .. . ... : ... .. . ... : ... .. . ... ...
ROW 37 : G#3 00 7 ... ... ... : ... .. . P7E ... ... : ... .. . ... : ... .. . ... : ... .. . ... ...
ROW 38 : ... .. . ... ... ... : F-4 00 7 P7F ... ... : B-2 00 . ... : ... .. C ... : ... .. . ... ...
ROW 39 : ... .. 8 ... ... ... : ... .. . ... ... ... : ... .. . ... : ... .. 0 ... : ... .. . ... ...
ROW 3A : ... .. . ... ... ... : ... .. 8 ... ... ... : ... .. . ... : ... .. . ... : ... .. . ... ...
ROW 3B : ... .. 9 ... ... ... : ... .. . ... ... ... : ... .. . ... : ... .. . ... : ... .. . ... ...
ROW 3C : ... .. . ... ... ... : ... .. 9 ... ... ... : ... .. . ... : ... .. . ... : ... .. . ... ...
ROW 3D : ... .. . ... ... ... : ... .. . ... ... ... : ... .. . ... : ... .. . ... : ... .. . ... ...
ROW 3E : ... .. 8 ... ... ... : ... .. . ... ... ... : ... .. . ... : ... .. . ... : ... .. . ... ...
ROW 3F : ... .. . ... ... ... : ... .. 8 ... ... ... : ... .. . ... : ... .. . ... : ... .. . ... ...
ROW 40 : ... .. . ... ... ... : ... .. . ... ... ... : --- .. . ... : ... .. . ... : ... .. . ... ...
ROW 41 : ... .. . ... ... ... : ... .. . ... ... ... : ... .. . ... : ... .. . ... : ... .. . ... ...
ROW 42 : ... .. 7 ... ... ... : ... .. . ... ... ... : ... .. . ... : ... .. . ... : ... .. . ... ...
ROW 43 : ... .. . ... ... ... : ... .. 7 ... ... ... : ... .. . ... : ... .. . ... : ... .. . ... ...
ROW 44 : ... .. . ... ... ... : ... .. . ... ... ... : ... .. . ... : ... .. . ... : ... .. . ... ...
ROW 45 : ... .. . ... ... ... : ... .. . ... ... ... : ... .. . ... : ... .. . ... : ... .. . ... ...
ROW 46 : ... .. 6 P7E ... ... : ... .. . ... ... ... : ... .. . ... : ... .. . ... : ... .. . ... ...
ROW 47 : ... .. . ... ... ... : ... .. 6 P7E ... ... : ... .. . P7F : ... .. . ... : ... .. . ... ...
ROW 48 : ... .. . ... ... ... : ... .. . ... ... ... : ... .. . ... : ... .. . ... : ... .. . ... ...
ROW 49 : ... .. . ... ... ... : ... .. . ... ... ... : ... .. . ... : ... .. . ... : ... .. . ... ...
ROW 4A : ... .. . P80 ... ... : ... .. . ... ... ... : ... .. . ... : ... .. . ... : ... .. . ... ...
ROW 4B : F#3 00 7 P7F ... ... : ... .. . P80 ... ... : ... .. . P81 : ... .. . ... : ... .. . ... ...
ROW 4C : ... .. . ... ... ... : D#4 00 7 ... ... ... : B-2 00 . P80 : ... .. C ... : ... .. . ... ...
ROW 4D : ... .. 8 ... ... ... : ... .. . ... ... ... : ... .. . ... : ... .. 0 ... : ... .. . ... ...
ROW 4E : ... .. . ... ... ... : ... .. 8 ... ... ... : ... .. . ... : ... .. . ... : ... .. . ... ...
ROW 4F : ... .. 9 ... ... ... : ... .. . ... ... ... : ... .. . ... : ... .. . ... : ... .. . ... ...
ROW 50 : ... .. . ... ... ... : ... .. 9 ... ... ... : ... .. . ... : ... .. . ... : ... .. . ... ...
ROW 51 : ... .. . ... ... ... : ... .. . ... ... ... : ... .. . ... : ... .. . ... : ... .. . ... ...
ROW 52 : ... .. 8 ... ... ... : ... .. . ... ... ... : ... .. . ... : ... .. . ... : ... .. . ... ...
ROW 53 : ... .. . ... ... ... : ... .. 8 ... ... ... : ... .. . ... : ... .. . ... : ... .. . ... ...
ROW 54 : ... .. . ... ... ... : ... .. . ... ... ... : --- .. . ... : ... .. . ... : ... .. . ... ...
ROW 55 : ... .. . ... ... ... : ... .. . ... ... ... : ... .. . ... : ... .. . ... : ... .. . ... ...
ROW 56 : ... .. 7 ... ... ... : ... .. . ... ... ... : B-2 00 . ... : ... .. C ... : ... .. . ... ...
ROW 57 : ... .. . ... ... ... : ... .. 7 ... ... ... : ... .. . ... : ... .. 0 ... : ... .. . ... ...
ROW 58 : ... .. . ... ... ... : ... .. . ... ... ... : ... .. . ... : ... .. . ... : ... .. . ... ...
ROW 59 : ... .. . ... ... ... : ... .. . ... ... ... : ... .. . ... : ... .. . ... : ... .. . ... ...
ROW 5A : ... .. 6 P7E ... ... : ... .. . ... ... ... : ... .. . ... : ... .. . ... : ... .. . ... ...
ROW 5B : ... .. . ... ... ... : ... .. 6 P7F ... ... : ... .. . ... : ... .. . ... : ... .. . ... ...
ROW 5C : ... .. . ... ... ... : ... .. . ... ... ... : ... .. . ... : ... .. . ... : ... .. . ... ...
ROW 5D : ... .. . ... ... ... : ... .. . ... ... ... : ... .. . ... : ... .. . ... : ... .. . ... ...
ROW 5E : ... .. . P80 ... ... : ... .. . ... ... ... : --- .. . ... : ... .. . ... : ... .. . ... ...
ROW 5F : F-3 00 7 P7F ... ... : ... .. . P81 ... ... : ... .. . ... : ... .. . ... : ... .. . ... ...
ROW 60 : ... .. . ... ... ... : C#4 00 7 P80 ... ... : A#2 00 . ... : ... .. C ... : ... .. . ... ...
ROW 61 : ... .. 8 ... ... ... : ... .. . ... ... ... : ... .. . ... : ... .. 0 ... : ... .. . ... ...
ROW 62 : ... .. . ... ... ... : ... .. 8 ... ... ... : ... .. . ... : ... .. . ... : ... .. . ... ...
ROW 63 : ... .. 9 ... ... ... : ... .. . ... ... ... : ... .. . ... : ... .. . ... : ... .. . ... ...
ROW 64 : ... .. . ... ... ... : ... .. 9 ... ... ... : ... .. . ... : ... .. . ... : ... .. . ... ...
ROW 65 : ... .. . ... ... ... : ... .. . ... ... ... : ... .. . ... : ... .. . ... : ... .. . ... ...
ROW 66 : ... .. 8 ... ... ... : ... .. . ... ... ... : ... .. . ... : ... .. . ... : ... .. . ... ...
ROW 67 : ... .. . ... ... ... : ... .. 8 ... ... ... : ... .. . ... : ... .. . ... : ... .. . ... ...
ROW 68 : ... .. . ... ... ... : ... .. . ... ... ... : --- .. . ... : ... .. . ... : ... .. . ... ...
ROW 69 : ... .. . ... ... ... : ... .. . ... ... ... : ... .. . ... : ... .. . ... : ... .. . ... ...
ROW 6A : ... .. 7 ... ... ... : ... .. . ... ... ... : ... .. . ... : ... .. . ... : ... .. . ... ...
ROW 6B : ... .. . ... ... ... : ... .. 7 ... ... ... : ... .. . ... : ... .. . ... : ... .. . ... ...
ROW 6C : ... .. . ... ... ... : ... .. . ... ... ... : ... .. . ... : ... .. . ... : ... .. . ... ...
ROW 6D : ... .. . ... ... ... : ... .. . ... ... ... : ... .. . ... : ... .. . ... : ... .. . ... ...
ROW 6E : ... .. 6 P7E ... ... : ... .. . ... ... ... : ... .. . ... : ... .. . ... : ... .. . ... ...
ROW 6F : ... .. . ... ... ... : ... .. 6 P7F ... ... : ... .. . P7F : ... .. . ... : ... .. . ... ...
ROW 70 : ... .. . ... ... ... : ... .. . ... ... ... : ... .. . ... : ... .. . ... : ... .. . ... ...
ROW 71 : ... .. . ... ... ... : ... .. . ... ... ... : ... .. . ... : ... .. . ... : ... .. . ... ...
ROW 72 : ... .. . P80 ... ... : ... .. . ... ... ... : ... .. . ... : ... .. . ... : ... .. . ... ...
ROW 73 : ... .. 7 P7F ... ... : ... .. . P81 ... ... : ... .. . P81 : ... .. . ... : ... .. . ... ...
ROW 74 : ... .. . ... ... ... : ... .. 7 P80 ... ... : A#2 00 . P80 : ... .. C ... : ... .. . ... ...
ROW 75 : ... .. 8 ... ... ... : ... .. . ... ... ... : ... .. . ... : ... .. 0 ... : ... .. . ... ...
ROW 76 : ... .. . ... ... ... : ... .. 8 ... ... ... : ... .. . ... : ... .. . ... : ... .. . ... ...
ROW 77 : ... .. 9 ... ... ... : ... .. . ... ... ... : ... .. . ... : ... .. . ... : ... .. . ... ...
ROW 78 : ... .. . ... ... ... : ... .. 9 ... ... ... : ... .. . ... : ... .. . ... : ... .. . ... ...
ROW 79 : ... .. . ... ... ... : ... .. . ... ... ... : ... .. . ... : ... .. . ... : ... .. . ... ...
ROW 7A : ... .. 8 ... ... ... : ... .. . ... ... ... : ... .. . ... : ... .. . ... : ... .. . ... ...
ROW 7B : ... .. . ... ... ... : ... .. 8 ... ... ... : ... .. . ... : ... .. . ... : ... .. . ... ...
ROW 7C : ... .. . ... ... ... : ... .. . ... ... ... : --- .. . ... : ... .. . ... : ... .. . ... ...
ROW 7D : D#3 00 7 P80 ... ... : ... .. . ... ... ... : ... .. . ... : ... .. . ... : ... .. . ... ...
ROW 7E : ... .. . ... ... ... : D#4 00 7 ... ... ... : A#2 00 . ... : ... .. C ... : ... .. . ... ...
ROW 7F : ... .. 8 ... ... ... : ... .. . ... ... ... : ... .. . ... : ... .. 0 ... : ... .. . ... ...
ROW 80 : ... .. . ... ... ... : ... .. 8 ... ... ... : ... .. . ... : ... .. . ... : ... .. . ... ...
ROW 81 : ... .. 9 ... ... ... : ... .. . ... ... ... : ... .. . ... : ... .. . ... : ... .. . ... ...
ROW 82 : ... .. . ... ... ... : ... .. 9 ... ... ... : ... .. . ... : ... .. . ... : ... .. . ... ...
ROW 83 : ... .. . ... ... ... : ... .. . ... ... ... : ... .. . ... : ... .. . ... : ... .. . ... ...
ROW 84 : ... .. 8 ... ... ... : ... .. . ... ... ... : ... .. . ... : ... .. . ... : ... .. . ... ...
ROW 85 : ... .. . ... ... ... : ... .. 8 ... ... ... : ... .. . ... : ... .. . ... : ... .. . ... ...
ROW 86 : ... .. . ... ... ... : ... .. . ... ... ... : --- .. . ... : ... .. . ... : ... .. . ... ...
ROW 87 : F-3 00 7 P7F ... ... : ... .. . ... ... ... : ... .. . ... : ... .. . ... : ... .. . ... ...
ROW 88 : ... .. . ... ... ... : F-4 00 7 P7F ... ... : A#2 00 . ... : ... .. C ... : ... .. . ... ...
ROW 89 : ... .. 8 ... ... ... : ... .. . ... ... ... : ... .. . ... : ... .. 0 ... : ... .. . ... ...
ROW 8A : ... .. . ... ... ... : ... .. 8 ... ... ... : ... .. . ... : ... .. . ... : ... .. . ... ...
ROW 8B : ... .. 9 ... ... ... : ... .. . ... ... ... : ... .. . ... : ... .. . ... : ... .. . ... ...
ROW 8C : ... .. . ... ... ... : ... .. 9 ... ... ... : ... .. . ... : ... .. . ... : ... .. . ... ...
ROW 8D : ... .. . ... ... ... : ... .. . ... ... ... : ... .. . ... : ... .. . ... : ... .. . ... ...
ROW 8E : ... .. 8 ... ... ... : ... .. . ... ... ... : ... .. . ... : ... .. . ... : ... .. . ... ...
ROW 8F : ... .. . ... ... ... : ... .. 8 ... ... ... : ... .. . ... : ... .. . ... : ... .. . ... ...
ROW 90 : ... .. . ... ... ... : ... .. . ... ... ... : --- .. . ... : ... .. . ... : ... .. . ... ...
ROW 91 : ... .. . ... ... ... : ... .. . ... ... ... : ... .. . ... : ... .. . ... : ... .. . ... ...
ROW 92 : ... .. 7 ... ... ... : ... .. . ... ... ... : ... .. . ... : ... .. . ... : ... .. . ... ...
ROW 93 : ... .. . ... ... ... : ... .. 7 ... ... ... : ... .. . ... : ... .. . ... : ... .. . ... ...
ROW 94 : ... .. . ... ... ... : ... .. . ... ... ... : ... .. . ... : ... .. . ... : ... .. . ... ...
ROW 95 : ... .. . ... ... ... : ... .. . ... ... ... : ... .. . ... : ... .. . ... : ... .. . ... ...
ROW 96 : ... .. 6 P7E ... ... : ... .. . ... ... ... : ... .. . ... : ... .. . ... : ... .. . ... ...
ROW 97 : ... .. . ... ... ... : ... .. 6 P7E ... ... : ... .. . P7F : ... .. . ... : ... .. . ... ...
ROW 98 : ... .. . ... ... ... : ... .. . ... ... ... : ... .. . ... : ... .. . ... : ... .. . ... ...
ROW 99 : ... .. . ... ... ... : ... .. . ... ... ... : ... .. . ... : ... .. . ... : ... .. . ... ...
ROW 9A : ... .. . P80 ... ... : ... .. . ... ... ... : ... .. . ... : ... .. . ... : ... .. . ... ...
ROW 9B : ... .. 7 P7F ... ... : ... .. . P80 ... ... : ... .. . P81 : ... .. . ... : ... .. . ... ...
ROW 9C : ... .. . ... ... ... : ... .. . ... ... ... : A#2 00 . P80 : ... .. C ... : ... .. . ... ...
ROW 9D : ... .. 8 ... ... ... : ... .. . ... ... ... : ... .. . ... : ... .. 0 ... : ... .. . ... ...
ROW 9E : ... .. . ... ... ... : ... .. . ... ... ... : ... .. . ... : ... .. . ... : ... .. . ... ...
ROW 9F : ... .. 9 ... ... ... : ... .. 5 P7E ... ... : ... .. . ... : ... .. . ... : ... .. . ... ...
ROW A0 : ... .. . ... ... ... : ... .. . ... ... ... : ... .. . ... : ... .. . ... : ... .. . ... ...
ROW A1 : ... .. . ... ... ... : ... .. . ... ... ... : ... .. . ... : ... .. . ... : ... .. . ... ...
ROW A2 : ... .. 8 ... ... ... : ... .. . ... ... ... : ... .. . ... : ... .. . ... : ... .. . ... ...
ROW A3 : ... .. . ... ... ... : ... .. . P80 ... ... : ... .. . ... : ... .. . ... : ... .. . ... ...
ROW A4 : ... .. . ... ... ... : ... .. 4 ... ... ... : --- .. . ... : ... .. . ... : ... .. . ... ...
ROW A5 : F#3 00 7 ... ... ... : ... .. . ... ... ... : ... .. . ... : ... .. . ... : ... .. . ... ...
ROW A6 : ... .. . ... ... ... : ... .. . ... ... ... : A#2 00 . ... : ... .. C ... : ... .. . ... ...
ROW A7 : ... .. 8 ... ... ... : ... .. . P7E ... ... : ... .. . ... : ... .. 0 ... : ... .. . ... ...
ROW A8 : ... .. . ... ... ... : ... .. . ... ... ... : ... .. . ... : ... .. . ... : ... .. . ... ...
ROW A9 : ... .. 9 ... ... ... : ... .. . ... ... ... : ... .. . ... : ... .. . ... : ... .. . ... ...
ROW AA : ... .. . ... ... ... : ... .. . ... ... ... : ... .. . ... : ... .. . ... : ... .. . ... ...
ROW AB : ... .. . ... ... ... : ... .. . P80 ... ... : ... .. . ... : ... .. . ... : ... .. . ... ...
ROW AC : ... .. 8 ... ... ... : ... .. . ... ... ... : ... .. . ... : ... .. . ... : ... .. . ... ...
ROW AD : ... .. . ... ... ... : ... .. . ... ... ... : ... .. . ... : ... .. . ... : ... .. . ... ...
ROW AE : ... .. . ... ... ... : ... .. . ... ... ... : --- .. . ... : ... .. . ... : ... .. . ... ...
ROW AF : G#3 00 7 ... ... ... : ... .. . P7E ... ... : ... .. . ... : ... .. . ... : ... .. . ... ...
ROW B0 : ... .. . ... ... ... : ... .. . ... ... ... : A#2 00 . ... : ... .. C ... : ... .. . ... ...
ROW B1 : ... .. 8 ... ... ... : ... .. . ... ... ... : ... .. . ... : ... .. 0 ... : ... .. . ... ...
ROW B2 : ... .. . ... ... ... : ... .. . ... ... ... : ... .. . ... : ... .. . ... : ... .. . ... ...
ROW B3 : ... .. 9 ... ... ... : ... .. . P80 ... ... : ... .. . ... : ... .. . ... : ... .. . ... ...
ROW B4 : ... .. . ... ... ... : ... .. . ... ... ... : ... .. . ... : ... .. . ... : ... .. . ... ...
ROW B5 : ... .. . ... ... ... : ... .. . ... ... ... : ... .. . ... : ... .. . ... : ... .. . ... ...
ROW B6 : ... .. 8 ... ... ... : ... .. . ... ... ... : ... .. . ... : ... .. . ... : ... .. . ... ...
ROW B7 : ... .. . ... ... ... : ... .. . P7E ... ... : ... .. . ... : ... .. . ... : ... .. . ... ...
ROW B8 : ... .. . ... ... ... : ... .. . ... ... ... : --- .. . ... : ... .. . ... : ... .. . ... ...
ROW B9 : ... .. . ... ... ... : ... .. . ... ... ... : ... .. . ... : ... .. . ... : ... .. . ... ...
ROW BA : ... .. 7 ... ... ... : ... .. . ... ... ... : ... .. . ... : ... .. . ... : ... .. . ... ...
ROW BB : ... .. . ... ... ... : ... .. . P80 ... ... : ... .. . ... : ... .. . ... : ... .. . ... ...
ROW BC : ... .. . ... ... ... : ... .. . ... ... ... : ... .. . ... : ... .. . ... : ... .. . ... ...
ROW BD : ... .. . ... ... ... : ... .. . ... ... ... : ... .. . ... : ... .. . ... : ... .. . ... ...
ROW BE : ... .. 6 P7E ... ... : ... .. . ... ... ... : ... .. . ... : ... .. . ... : ... .. . ... ...
ROW BF : ... .. . ... ... ... : ... .. . P7E ... ... : ... .. . P7F : ... .. . ... : ... .. . ... ...
ROW C0 : ... .. . ... ... ... : ... .. . ... ... ... : ... .. . ... : ... .. . ... : ... .. . ... ...
ROW C1 : ... .. . ... ... ... : ... .. . ... ... ... : ... .. . ... : ... .. . ... : ... .. . ... ...
ROW C2 : ... .. . P80 ... ... : ... .. . ... ... ... : ... .. . ... : ... .. . ... : ... .. . ... ...
ROW C3 : ... .. . ... ... ... : ... .. . P80 ... ... : ... .. . P81 : ... .. . ... : ... .. . ... ...
ROW C4 : ... .. . ... ... ... : ... .. . ... ... ... : A#2 00 . P80 : ... .. C ... : ... .. . ... ...
ROW C5 : ... .. . ... ... ... : ... .. . ... ... ... : ... .. . ... : ... .. 0 ... : ... .. . ... ...
ROW C6 : ... .. 5 P7E ... ... : ... .. . ... ... ... : ... .. . ... : ... .. . ... : ... .. . ... ...
ROW C7 : ... .. . ... ... ... : ... .. . P7E ... ... : ... .. . ... : ... .. . ... : ... .. . ... ...
ROW C8 : ... .. . ... ... ... : ... .. . ... ... ... : ... .. . ... : ... .. . ... : ... .. . ... ...
ROW C9 : ... .. . ... ... ... : ... .. . ... ... ... : ... .. . ... : ... .. . ... : ... .. . ... ...
ROW CA : ... .. . P80 ... ... : ... .. . ... ... ... : ... .. . ... : ... .. . ... : ... .. . ... ...
ROW CB : ... .. 4 ... ... ... : ... .. . P80 ... ... : ... .. . ... : ... .. . ... : ... .. . ... ...
ROW CC : ... .. . ... ... ... : ... .. . ... ... ... : --- .. . ... : ... .. . ... : ... .. . ... ...
ROW CD : ... .. . ... ... ... : ... .. . ... ... ... : ... .. . ... : ... .. . ... : ... .. . ... ...
ROW CE : ... .. . P7E ... ... : ... .. . ... ... ... : A#2 00 . ... : ... .. C ... : ... .. . ... ...
ROW CF : ... .. . ... ... ... : ... .. . P7E ... ... : ... .. . ... : ... .. 0 ... : ... .. . ... ...
ROW D0 : ... .. . ... ... ... : ... .. . ... ... ... : ... .. . ... : ... .. . ... : ... .. . ... ...
ROW D1 : ... .. . ... ... ... : ... .. . ... ... ... : ... .. . ... : ... .. . ... : ... .. . ... ...
ROW D2 : ... .. . P80 ... ... : ... .. . ... ... ... : ... .. . ... : ... .. . ... : ... .. . ... ...
ROW D3 : ... .. . ... ... ... : ... .. . P80 ... ... : ... .. . ... : ... .. . ... : ... .. . ... ...
ROW D4 : ... .. . ... ... ... : ... .. . ... ... ... : ... .. . ... : ... .. . ... : ... .. . ... ...
ROW D5 : ... .. . ... ... ... : ... .. . ... ... ... : ... .. . ... : ... .. . ... : ... .. . ... ...
ROW D6 : ... .. . P7E ... ... : ... .. . ... ... ... : --- .. . ... : ... .. . ... : ... .. . ... ...
ROW D7 : F#3 00 7 P7F ... ... : ... .. . P7E ... ... : ... .. . ... : ... .. . ... : ... .. . ... ...
ROW D8 : ... .. . ... ... ... : D#4 00 7 P80 ... ... : A#2 00 . ... : ... .. C ... : ... .. . ... ...
ROW D9 : ... .. 8 ... ... ... : ... .. . ... ... ... : ... .. . ... : ... .. 0 ... : ... .. . ... ...
ROW DA : ... .. . ... ... ... : ... .. 8 ... ... ... : ... .. . ... : ... .. . ... : ... .. . ... ...
ROW DB : ... .. 9 ... ... ... : ... .. . ... ... ... : ... .. . ... : ... .. . ... : ... .. . ... ...
ROW DC : ... .. . ... ... ... : ... .. 9 ... ... ... : ... .. . ... : ... .. . ... : ... .. . ... ...
ROW DD : ... .. . ... ... ... : ... .. . ... ... ... : ... .. . ... : ... .. . ... : ... .. . ... ...
ROW DE : ... .. 8 ... ... ... : ... .. . ... ... ... : ... .. . ... : ... .. . ... : ... .. . ... ...
ROW DF : ... .. . ... ... ... : ... .. 8 ... ... ... : ... .. . ... : ... .. . ... : ... .. . ... ...
ROW E0 : ... .. . ... ... ... : ... .. . ... ... ... : --- .. . ... : ... .. . ... : ... .. . ... ...
ROW E1 : ... .. . ... ... ... : ... .. . ... ... ... : ... .. . ... : ... .. . ... : ... .. . ... ...
ROW E2 : ... .. 7 ... ... ... : ... .. . ... ... ... : ... .. . ... : ... .. . ... : ... .. . ... ...
ROW E3 : ... .. . ... ... ... : ... .. 7 ... ... ... : ... .. . ... : ... .. . ... : ... .. . ... ...
ROW E4 : ... .. . ... ... ... : ... .. . ... ... ... : ... .. . ... : ... .. . ... : ... .. . ... ...
ROW E5 : ... .. . ... ... ... : ... .. . ... ... ... : ... .. . ... : ... .. . ... : ... .. . ... ...
ROW E6 : ... .. 6 P7E ... ... : ... .. . ... ... ... : ... .. . ... : ... .. . ... : ... .. . ... ...
ROW E7 : ... .. . ... ... ... : ... .. 6 P7F ... ... : ... .. . P7F : ... .. . ... : ... .. . ... ...
ROW E8 : ... .. . ... ... ... : ... .. . ... ... ... : ... .. . ... : ... .. . ... : ... .. . ... ...
ROW E9 : ... .. . ... ... ... : ... .. . ... ... ... : ... .. . ... : ... .. . ... : ... .. . ... ...
ROW EA : ... .. . P80 ... ... : ... .. . ... ... ... : ... .. . ... : ... .. . ... : ... .. . ... ...
ROW EB : F-3 00 7 P7F ... ... : ... .. . P81 ... ... : ... .. . P81 : ... .. . ... : ... .. . ... ...
ROW EC : ... .. . ... ... ... : C#4 00 7 P80 ... ... : A#2 00 . P80 : ... .. C ... : ... .. . ... ...
ROW ED : ... .. 8 ... ... ... : ... .. . ... ... ... : ... .. . ... : ... .. 0 ... : ... .. . ... ...
ROW EE : ... .. . ... ... ... : ... .. 8 ... ... ... : ... .. . ... : ... .. . ... : ... .. . ... ...
ROW EF : ... .. 9 ... ... ... : ... .. . ... ... ... : ... .. . ... : ... .. . ... : ... .. . ... ...
ROW F0 : ... .. . ... ... ... : ... .. 9 ... ... ... : ... .. . ... : ... .. . ... : ... .. . ... ...
ROW F1 : ... .. . ... ... ... : ... .. . ... ... ... : ... .. . ... : ... .. . ... : ... .. . ... ...
ROW F2 : ... .. 8 ... ... ... : ... .. . ... ... ... : ... .. . ... : ... .. . ... : ... .. . ... ...
ROW F3 : ... .. . ... ... ... : ... .. 8 ... ... ... : ... .. . ... : ... .. . ... : ... .. . ... ...
ROW F4 : ... .. . ... ... ... : ... .. . ... ... ... : --- .. . ... : ... .. . ... : ... .. . ... ...
ROW F5 : ... .. . ... ... ... : ... .. . ... ... ... : ... .. . ... : ... .. . ... : ... .. . ... ...
ROW F6 : ... .. 7 ... ... ... : ... .. . ... ... ... : A#2 00 . ... : ... .. C ... : ... .. . ... ...
ROW F7 : ... .. . ... ... ... : ... .. 7 ... ... ... : ... .. . ... : ... .. 0 ... : ... .. . ... ...
ROW F8 : ... .. . ... ... ... : ... .. . ... ... ... : ... .. . ... : ... .. . ... : ... .. . ... ...
ROW F9 : ... .. . ... ... ... : ... .. . ... ... ... : ... .. . ... : ... .. . ... : ... .. . ... ...
ROW FA : ... .. 6 P7E ... ... : ... .. . ... ... ... : ... .. . ... : ... .. . ... : ... .. . ... ...
ROW FB : ... .. . ... ... ... : ... .. 6 P7F ... ... : ... .. . ... : ... .. . ... : ... .. . ... ...
ROW FC : ... .. . ... ... ... : ... .. . ... ... ... : ... .. . ... : ... .. . ... : ... .. . ... ...
ROW FD : ... .. . ... ... ... : ... .. . ... ... ... : ... .. . ... : ... .. . ... : ... .. . ... ...
ROW FE : ... .. . P80 ... ... : ... .. . ... ... ... : --- .. . ... : ... .. . ... : ... .. . ... ...
ROW FF : A#7 00 0 P8C ... ... : ... .. . P81 ... ... : ... .. . ... : ... .. . ... : ... .. . ... ...

PATTERN 0A
ROW 00 : C-4 00 7 P80 ... ... : E-3 00 7 P7F ... ... : C-3 00 . ... : ... .. C ... : ... .. . ... ...
ROW 01 : ... .. . ... ... ... : ... .. . ... ... ... : ... .. . ... : ... .. 0 ... : ... .. . ... ...
ROW 02 : ... .. 8 ... ... ... : ... .. 8 ... ... ... : ... .. . ... : ... .. . ... : ... .. . ... ...
ROW 03 : ... .. . ... ... ... : ... .. . ... ... ... : ... .. . ... : ... .. . ... : ... .. . ... ...
ROW 04 : ... .. 9 ... ... ... : ... .. 9 ... ... ... : ... .. . ... : ... .. . ... : ... .. . ... ...
ROW 05 : ... .. . ... ... ... : ... .. . ... ... ... : ... .. . ... : ... .. . ... : ... .. . ... ...
ROW 06 : ... .. . ... ... ... : ... .. . ... ... ... : ... .. . ... : ... .. . ... : ... .. . ... ...
ROW 07 : ... .. 8 ... ... ... : ... .. 8 ... ... ... : ... .. . ... : ... .. . ... : ... .. . ... ...
ROW 08 : ... .. . ... ... ... : ... .. . ... ... ... : --- .. . ... : ... .. . ... : ... .. . ... ...
ROW 09 : ... .. . ... ... ... : ... .. . ... ... ... : ... .. . ... : ... .. . ... : ... .. . ... ...
ROW 0A : ... .. . ... ... ... : ... .. . ... ... ... : ... .. . ... : ... .. . ... : ... .. . ... ...
ROW 0B : ... .. 7 ... ... ... : ... .. 7 ... ... ... : ... .. . ... : ... .. . ... : ... .. . ... ...
ROW 0C : ... .. . ... ... ... : ... .. . ... ... ... : ... .. . ... : ... .. . ... : ... .. . ... ...
ROW 0D : ... .. . ... ... ... : ... .. . ... ... ... : ... .. . ... : ... .. . ... : ... .. . ... ...
ROW 0E : ... .. . ... ... ... : ... .. . ... ... ... : ... .. . ... : ... .. . ... : ... .. . ... ...
ROW 0F : ... .. 6 P7F ... ... : ... .. 6 P7E ... ... : ... .. . P7F : ... .. . ... : ... .. . ... ...
ROW 10 : ... .. . ... ... ... : ... .. . ... ... ... : ... .. . ... : ... .. . ... : ... .. . ... ...
ROW 11 : ... .. . ... ... ... : ... .. . ... ... ... : ... .. . ... : ... .. . ... : ... .. . ... ...
ROW 12 : ... .. . ... ... ... : ... .. . ... ... ... : ... .. . ... : ... .. . ... : ... .. . ... ...
ROW 13 : ... .. . P81 ... ... : ... .. . P80 ... ... : ... .. . P81 : ... .. . ... : ... .. . ... ...
ROW 14 : ... .. 7 P80 ... ... : ... .. . ... ... ... : C-3 00 . P80 : ... .. C ... : ... .. . ... ...
ROW 15 : ... .. . ... ... ... : ... .. . ... ... ... : ... .. . ... : ... .. 0 ... : ... .. . ... ...
ROW 16 : ... .. 8 ... ... ... : ... .. . ... ... ... : ... .. . ... : ... .. . ... : ... .. . ... ...
ROW 17 : ... .. . ... ... ... : ... .. 5 P7E ... ... : ... .. . ... : ... .. . ... : ... .. . ... ...
ROW 18 : ... .. 9 ... ... ... : ... .. . ... ... ... : ... .. . ... : ... .. . ... : ... .. . ... ...
ROW 19 : ... .. . ... ... ... : ... .. . ... ... ... : ... .. . ... : ... .. . ... : ... .. . ... ...
ROW 1A : ... .. . ... ... ... : ... .. . ... ... ... : ... .. . ... : ... .. . ... : ... .. . ... ...
ROW 1B : ... .. 8 ... ... ... : ... .. . P80 ... ... : ... .. . ... : ... .. . ... : ... .. . ... ...
ROW 1C : ... .. . ... ... ... : ... .. 4 ... ... ... : --- .. . ... : ... .. . ... : ... .. . ... ...
ROW 1D : ... .. . ... ... ... : ... .. . ... ... ... : ... .. . ... : ... .. . ... : ... .. . ... ...
ROW 1E : D-4 00 7 P7F ... ... : ... .. . ... ... ... : C-3 00 . ... : ... .. C ... : ... .. . ... ...
ROW 1F : ... .. . ... ... ... : ... .. . P7E ... ... : ... .. . ... : ... .. 0 ... : ... .. . ... ...
ROW 20 : ... .. 8 ... ... ... : ... .. . ... ... ... : ... .. . ... : ... .. . ... : ... .. . ... ...
ROW 21 : ... .. . ... ... ... : ... .. . ... ... ... : ... .. . ... : ... .. . ... : ... .. . ... ...
ROW 22 : ... .. 9 ... ... ... : ... .. . ... ... ... : ... .. . ... : ... .. . ... : ... .. . ... ...
ROW 23 : ... .. . ... ... ... : ... .. . P80 ... ... : ... .. . ... : ... .. . ... : ... .. . ... ...
ROW 24 : ... .. . ... ... ... : ... .. . ... ... ... : ... .. . ... : ... .. . ... : ... .. . ... ...
ROW 25 : ... .. 8 ... ... ... : ... .. . ... ... ... : ... .. . ... : ... .. . ... : ... .. . ... ...
ROW 26 : ... .. . ... ... ... : ... .. . ... ... ... : --- .. . ... : ... .. . ... : ... .. . ... ...
ROW 27 : ... .. . ... ... ... : ... .. . P7E ... ... : ... .. . ... : ... .. . ... : ... .. . ... ...
ROW 28 : E-4 00 7 P80 ... ... : ... .. 7 P7F ... ... : C-3 00 . ... : ... .. C ... : ... .. . ... ...
ROW 29 : ... .. . ... ... ... : ... .. . ... ... ... : ... .. . ... : ... .. 0 ... : ... .. . ... ...
ROW 2A : ... .. 8 ... ... ... : ... .. 8 ... ... ... : ... .. . ... : ... .. . ... : ... .. . ... ...
ROW 2B : ... .. . ... ... ... : ... .. . ... ... ... : ... .. . ... : ... .. . ... : ... .. . ... ...
ROW 2C : ... .. 9 ... ... ... : ... .. 9 ... ... ... : ... .. . ... : ... .. . ... : ... .. . ... ...
ROW 2D : ... .. . ... ... ... : ... .. . ... ... ... : ... .. . ... : ... .. . ... : ... .. . ... ...
ROW 2E : ... .. . ... ... ... : ... .. . ... ... ... : ... .. . ... : ... .. . ... : ... .. . ... ...
ROW 2F : ... .. 8 ... ... ... : ... .. 8 ... ... ... : ... .. . ... : ... .. . ... : ... .. . ... ...
ROW 30 : ... .. . ... ... ... : ... .. . ... ... ... : --- .. . ... : ... .. . ... : ... .. . ... ...
ROW 31 : ... .. . ... ... ... : ... .. . ... ... ... : ... .. . ... : ... .. . ... : ... .. . ... ...
ROW 32 : ... .. . ... ... ... : ... .. . ... ... ... : ... .. . ... : ... .. . ... : ... .. . ... ...
ROW 33 : ... .. 7 ... ... ... : ... .. 7 ... ... ... : ... .. . ... : ... .. . ... : ... .. . ... ...
ROW 34 : ... .. . ... ... ... : ... .. . ... ... ... : ... .. . ... : ... .. . ... : ... .. . ... ...
ROW 35 : ... .. . ... ... ... : ... .. . ... ... ... : ... .. . ... : ... .. . ... : ... .. . ... ...
ROW 36 : ... .. . ... ... ... : ... .. . ... ... ... : ... .. . ... : ... .. . ... : ... .. . ... ...
ROW 37 : ... .. 6 P7F ... ... : ... .. 6 P7E ... ... : ... .. . P7F : ... .. . ... : ... .. . ... ...
ROW 38 : ... .. . ... ... ... : ... .. . ... ... ... : ... .. . ... : ... .. . ... : ... .. . ... ...
ROW 39 : ... .. . ... ... ... : ... .. . ... ... ... : ... .. . ... : ... .. . ... : ... .. . ... ...
ROW 3A : ... .. . ... ... ... : ... .. . ... ... ... : ... .. . ... : ... .. . ... : ... .. . ... ...
ROW 3B : ... .. . P81 ... ... : ... .. . P80 ... ... : ... .. . P81 : ... .. . ... : ... .. . ... ...
ROW 3C : ... .. . ... ... ... : ... .. 7 P7F ... ... : C-3 00 . P80 : ... .. C ... : ... .. . ... ...
ROW 3D : ... .. . ... ... ... : ... .. . ... ... ... : ... .. . ... : ... .. 0 ... : ... .. . ... ...
ROW 3E : ... .. . ... ... ... : ... .. 8 ... ... ... : ... .. . ... : ... .. . ... : ... .. . ... ...
ROW 3F : ... .. 5 P7F ... ... : ... .. . ... ... ... : ... .. . ... : ... .. . ... : ... .. . ... ...
ROW 40 : ... .. . ... ... ... : ... .. 9 ... ... ... : ... .. . ... : ... .. . ... : ... .. . ... ...
ROW 41 : ... .. . ... ... ... : ... .. . ... ... ... : ... .. . ... : ... .. . ... : ... .. . ... ...
ROW 42 : ... .. . ... ... ... : ... .. . ... ... ... : ... .. . ... : ... .. . ... : ... .. . ... ...
ROW 43 : ... .. . P81 ... ... : ... .. 8 ... ... ... : ... .. . ... : ... .. . ... : ... .. . ... ...
ROW 44 : ... .. 4 ... ... ... : ... .. . ... ... ... : --- .. . ... : ... .. . ... : ... .. . ... ...
ROW 45 : ... .. . ... ... ... : ... .. . ... ... ... : ... .. . ... : ... .. . ... : ... .. . ... ...
ROW 46 : ... .. . ... ... ... : F-3 00 7 ... ... ... : C-3 00 . ... : ... .. C ... : ... .. . ... ...
ROW 47 : ... .. . P7F ... ... : ... .. . ... ... ... : ... .. . ... : ... .. 0 ... : ... .. . ... ...
ROW 48 : ... .. . ... ... ... : ... .. 8 ... ... ... : ... .. . ... : ... .. . ... : ... .. . ... ...
ROW 49 : ... .. . ... ... ... : ... .. . ... ... ... : ... .. . ... : ... .. . ... : ... .. . ... ...
ROW 4A : ... .. . ... ... ... : ... .. 9 ... ... ... : ... .. . ... : ... .. . ... : ... .. . ... ...
ROW 4B : ... .. . P81 ... ... : ... .. . ... ... ... : ... .. . ... : ... .. . ... : ... .. . ... ...
ROW 4C : ... .. . ... ... ... : ... .. . ... ... ... : ... .. . ... : ... .. . ... : ... .. . ... ...
ROW 4D : ... .. . ... ... ... : ... .. 8 ... ... ... : ... .. . ... : ... .. . ... : ... .. . ... ...
ROW 4E : ... .. . ... ... ... : ... .. . ... ... ... : --- .. . ... : ... .. . ... : ... .. . ... ...
ROW 4F : ... .. . P7F ... ... : ... .. . ... ... ... : ... .. . ... : ... .. . ... : ... .. . ... ...
ROW 50 : ... .. . ... ... ... : G-3 00 7 ... ... ... : C-3 00 . ... : ... .. C ... : ... .. . ... ...
ROW 51 : ... .. . ... ... ... : ... .. . ... ... ... : ... .. . ... : ... .. 0 ... : ... .. . ... ...
ROW 52 : ... .. . ... ... ... : ... .. 8 ... ... ... : ... .. . ... : ... .. . ... : ... .. . ... ...
ROW 53 : ... .. . P81 ... ... : ... .. . ... ... ... : ... .. . ... : ... .. . ... : ... .. . ... ...
ROW 54 : ... .. . ... ... ... : ... .. 9 ... ... ... : ... .. . ... : ... .. . ... : ... .. . ... ...
ROW 55 : ... .. . ... ... ... : ... .. . ... ... ... : ... .. . ... : ... .. . ... : ... .. . ... ...
ROW 56 : ... .. . ... ... ... : ... .. . ... ... ... : ... .. . ... : ... .. . ... : ... .. . ... ...
ROW 57 : ... .. . P7F ... ... : ... .. 8 ... ... ... : ... .. . ... : ... .. . ... : ... .. . ... ...
ROW 58 : ... .. . ... ... ... : ... .. . ... ... ... : --- .. . ... : ... .. . ... : ... .. . ... ...
ROW 59 : ... .. . ... ... ... : ... .. . ... ... ... : ... .. . ... : ... .. . ... : ... .. . ... ...
ROW 5A : ... .. . ... ... ... : ... .. . ... ... ... : ... .. . ... : ... .. . ... : ... .. . ... ...
ROW 5B : ... .. . P81 ... ... : ... .. 7 ... ... ... : ... .. . ... : ... .. . ... : ... .. . ... ...
ROW 5C : ... .. . ... ... ... : ... .. . ... ... ... : ... .. . ... : ... .. . ... : ... .. . ... ...
ROW 5D : ... .. . ... ... ... : ... .. . ... ... ... : ... .. . ... : ... .. . ... : ... .. . ... ...
ROW 5E : ... .. . ... ... ... : ... .. . ... ... ... : ... .. . ... : ... .. . ... : ... .. . ... ...
ROW 5F : ... .. . P7F ... ... : ... .. 6 P7E ... ... : ... .. . P7F : ... .. . ... : ... .. . ... ...
ROW 60 : ... .. . ... ... ... : ... .. . ... ... ... : ... .. . ... : ... .. . ... : ... .. . ... ...
ROW 61 : ... .. . ... ... ... : ... .. . ... ... ... : ... .. . ... : ... .. . ... : ... .. . ... ...
ROW 62 : ... .. . ... ... ... : ... .. . ... ... ... : ... .. . ... : ... .. . ... : ... .. . ... ...
ROW 63 : ... .. . P81 ... ... : ... .. . P80 ... ... : ... .. . P81 : ... .. . ... : ... .. . ... ...
ROW 64 : ... .. . ... ... ... : ... .. 7 P7F ... ... : C-3 00 . P80 : ... .. C ... : ... .. . ... ...
ROW 65 : ... .. . ... ... ... : ... .. . ... ... ... : ... .. . ... : ... .. 0 ... : ... .. . ... ...
ROW 66 : ... .. . ... ... ... : ... .. 8 ... ... ... : ... .. . ... : ... .. . ... : ... .. . ... ...
ROW 67 : ... .. . P7F ... ... : ... .. . ... ... ... : ... .. . ... : ... .. . ... : ... .. . ... ...
ROW 68 : ... .. . ... ... ... : ... .. 9 ... ... ... : ... .. . ... : ... .. . ... : ... .. . ... ...
ROW 69 : ... .. . ... ... ... : ... .. . ... ... ... : ... .. . ... : ... .. . ... : ... .. . ... ...
ROW 6A : ... .. . ... ... ... : ... .. . ... ... ... : ... .. . ... : ... .. . ... : ... .. . ... ...
ROW 6B : ... .. . P81 ... ... : ... .. 8 ... ... ... : ... .. . ... : ... .. . ... : ... .. . ... ...
ROW 6C : ... .. . ... ... ... : ... .. . ... ... ... : --- .. . ... : ... .. . ... : ... .. . ... ...
ROW 6D : ... .. . ... ... ... : ... .. . ... ... ... : ... .. . ... : ... .. . ... : ... .. . ... ...
ROW 6E : ... .. . ... ... ... : A-3 00 7 ... ... ... : C-3 00 . ... : ... .. C ... : ... .. . ... ...
ROW 6F : ... .. . P7F ... ... : ... .. . ... ... ... : ... .. . ... : ... .. 0 ... : ... .. . ... ...
ROW 70 : ... .. . ... ... ... : ... .. 8 ... ... ... : ... .. . ... : ... .. . ... : ... .. . ... ...
ROW 71 : ... .. . ... ... ... : ... .. . ... ... ... : ... .. . ... : ... .. . ... : ... .. . ... ...
ROW 72 : ... .. . ... ... ... : ... .. 9 ... ... ... : ... .. . ... : ... .. . ... : ... .. . ... ...
ROW 73 : ... .. . P81 ... ... : ... .. . ... ... ... : ... .. . ... : ... .. . ... : ... .. . ... ...
ROW 74 : ... .. . ... ... ... : ... .. . ... ... ... : ... .. . ... : ... .. . ... : ... .. . ... ...
ROW 75 : ... .. . ... ... ... : ... .. 8 ... ... ... : ... .. . ... : ... .. . ... : ... .. . ... ...
ROW 76 : ... .. . ... ... ... : ... .. . ... ... ... : --- .. . ... : ... .. . ... : ... .. . ... ...
ROW 77 : ... .. . P7F ... ... : ... .. . ... ... ... : ... .. . ... : ... .. . ... : ... .. . ... ...
ROW 78 : G-4 00 7 P80 ... ... : A#3 00 7 P80 ... ... : C-3 00 . ... : ... .. C ... : ... .. . ... ...
ROW 79 : ... .. . ... ... ... : ... .. . ... ... ... : ... .. . ... : ... .. 0 ... : ... .. . ... ...
ROW 7A : ... .. 8 ... ... ... : ... .. 8 ... ... ... : ... .. . ... : ... .. . ... : ... .. . ... ...
ROW 7B : ... .. . ... ... ... : ... .. . ... ... ... : ... .. . ... : ... .. . ... : ... .. . ... ...
ROW 7C : ... .. 9 ... ... ... : ... .. 9 ... ... ... : ... .. . ... : ... .. . ... : ... .. . ... ...
ROW 7D : ... .. . ... ... ... : ... .. . ... ... ... : ... .. . ... : ... .. . ... : ... .. . ... ...
ROW 7E : ... .. . ... ... ... : ... .. . ... ... ... : ... .. . ... : ... .. . ... : ... .. . ... ...
ROW 7F : ... .. 8 ... ... ... : ... .. 8 ... ... ... : ... .. . ... : ... .. . ... : ... .. . ... ...
ROW 80 : ... .. . ... ... ... : ... .. . ... ... ... : --- .. . ... : ... .. . ... : ... .. . ... ...
ROW 81 : ... .. . ... ... ... : ... .. . ... ... ... : ... .. . ... : ... .. . ... : ... .. . ... ...
ROW 82 : ... .. . ... ... ... : ... .. . ... ... ... : ... .. . ... : ... .. . ... : ... .. . ... ...
ROW 83 : ... .. 7 ... ... ... : ... .. 7 ... ... ... : ... .. . ... : ... .. . ... : ... .. . ... ...
ROW 84 : ... .. . ... ... ... : ... .. . ... ... ... : ... .. . ... : ... .. . ... : ... .. . ... ...
ROW 85 : ... .. . ... ... ... : ... .. . ... ... ... : ... .. . ... : ... .. . ... : ... .. . ... ...
ROW 86 : ... .. . ... ... ... : ... .. . ... ... ... : ... .. . ... : ... .. . ... : ... .. . ... ...
ROW 87 : ... .. 6 P7F ... ... : ... .. 6 P7F ... ... : ... .. . P7F : ... .. . ... : ... .. . ... ...
ROW 88 : ... .. . ... ... ... : ... .. . ... ... ... : ... .. . ... : ... .. . ... : ... .. . ... ...
ROW 89 : ... .. . ... ... ... : ... .. . ... ... ... : ... .. . ... : ... .. . ... : ... .. . ... ...
ROW 8A : ... .. . ... ... ... : ... .. . ... ... ... : ... .. . ... : ... .. . ... : ... .. . ... ...
ROW 8B : ... .. . P81 ... ... : ... .. . P81 ... ... : ... .. . P81 : ... .. . ... : ... .. . ... ...
ROW 8C : ... .. . ... ... ... : C-4 00 7 P80 ... ... : C-3 00 . P80 : ... .. C ... : ... .. . ... ...
ROW 8D : ... .. . ... ... ... : ... .. . ... ... ... : ... .. . ... : ... .. 0 ... : ... .. . ... ...
ROW 8E : ... .. . ... ... ... : ... .. 8 ... ... ... : ... .. . ... : ... .. . ... : ... .. . ... ...
ROW 8F : ... .. 5 P7F ... ... : ... .. . ... ... ... : ... .. . ... : ... .. . ... : ... .. . ... ...
ROW 90 : ... .. . ... ... ... : ... .. 9 ... ... ... : ... .. . ... : ... .. . ... : ... .. . ... ...
ROW 91 : ... .. . ... ... ... : ... .. . ... ... ... : ... .. . ... : ... .. . ... : ... .. . ... ...
ROW 92 : ... .. . ... ... ... : ... .. . ... ... ... : ... .. . ... : ... .. . ... : ... .. . ... ...
ROW 93 : ... .. . P81 ... ... : ... .. 8 ... ... ... : ... .. . ... : ... .. . ... : ... .. . ... ...
ROW 94 : ... .. 4 ... ... ... : ... .. . ... ... ... : --- .. . ... : ... .. . ... : ... .. . ... ...
ROW 95 : ... .. . ... ... ... : ... .. . ... ... ... : ... .. . ... : ... .. . ... : ... .. . ... ...
ROW 96 : ... .. . ... ... ... : ... .. . ... ... ... : C-3 00 . ... : ... .. C ... : ... .. . ... ...
ROW 97 : ... .. . P7F ... ... : ... .. 7 ... ... ... : ... .. . ... : ... .. 0 ... : ... .. . ... ...
ROW 98 : ... .. . ... ... ... : ... .. . ... ... ... : ... .. . ... : ... .. . ... : ... .. . ... ...
ROW 99 : ... .. . ... ... ... : ... .. . ... ... ... : ... .. . ... : ... .. . ... : ... .. . ... ...
ROW 9A : ... .. . ... ... ... : ... .. . ... ... ... : ... .. . ... : ... .. . ... : ... .. . ... ...
ROW 9B : ... .. . P81 ... ... : ... .. 6 P7F ... ... : ... .. . ... : ... .. . ... : ... .. . ... ...
ROW 9C : ... .. . ... ... ... : ... .. . ... ... ... : ... .. . ... : ... .. . ... : ... .. . ... ...
ROW 9D : ... .. . ... ... ... : ... .. . ... ... ... : ... .. . ... : ... .. . ... : ... .. . ... ...
ROW 9E : ... .. . ... ... ... : ... .. . ... ... ... : --- .. . ... : ... .. . ... : ... .. . ... ...
ROW 9F : ... .. . P7F ... ... : ... .. . P81 ... ... : ... .. . ... : ... .. . ... : ... .. . ... ...
ROW A0 : F-4 00 7 ... ... ... : A-2 00 7 P7F ... ... : F-3 00 . P7F : ... .. C ... : ... .. . ... ...
ROW A1 : ... .. . ... ... ... : ... .. . ... ... ... : ... .. . ... : ... .. 0 ... : ... .. . ... ...
ROW A2 : ... .. 8 ... ... ... : ... .. 8 ... ... ... : ... .. . ... : ... .. . ... : ... .. . ... ...
ROW A3 : ... .. . ... ... ... : ... .. . ... ... ... : ... .. . ... : ... .. . ... : ... .. . ... ...
ROW A4 : ... .. 9 ... ... ... : ... .. 9 ... ... ... : ... .. . ... : ... .. . ... : ... .. . ... ...
ROW A5 : ... .. . ... ... ... : ... .. . ... ... ... : ... .. . ... : ... .. . ... : ... .. . ... ...
ROW A6 : ... .. . ... ... ... : ... .. . ... ... ... : ... .. . ... : ... .. . ... : ... .. . ... ...
ROW A7 : ... .. 8 ... ... ... : ... .. 8 ... ... ... : ... .. . ... : ... .. . ... : ... .. . ... ...
ROW A8 : ... .. . ... ... ... : ... .. . ... ... ... : --- .. . ... : ... .. . ... : ... .. . ... ...
ROW A9 : ... .. . ... ... ... : ... .. . ... ... ... : ... .. . ... : ... .. . ... : ... .. . ... ...
ROW AA : ... .. 4 ... ... ... : ... .. . ... ... ... : ... .. . ... : ... .. . ... : ... .. . ... ...
ROW AB : ... .. . ... ... ... : ... .. 7 ... ... ... : ... .. . ... : ... .. . ... : ... .. . ... ...
ROW AC : ... .. . ... ... ... : ... .. . ... ... ... : ... .. . ... : ... .. . ... : ... .. . ... ...
ROW AD : ... .. . ... ... ... : ... .. . ... ... ... : ... .. . ... : ... .. . ... : ... .. . ... ...
ROW AE : ... .. . ... ... ... : ... .. . ... ... ... : ... .. . ... : ... .. . ... : ... .. . ... ...
ROW AF : ... .. . ... ... ... : ... .. 6 P7E ... ... : ... .. . P7E : ... .. . ... : ... .. . ... ...
ROW B0 : ... .. . ... ... ... : ... .. . ... ... ... : ... .. . ... : ... .. . ... : ... .. . ... ...
ROW B1 : ... .. . ... ... ... : ... .. . ... ... ... : ... .. . ... : ... .. . ... : ... .. . ... ...
ROW B2 : ... .. . ... ... ... : ... .. . ... ... ... : ... .. . ... : ... .. . ... : ... .. . ... ...
ROW B3 : ... .. . ... ... ... : ... .. . P80 ... ... : ... .. . P80 : ... .. . ... : ... .. . ... ...
ROW B4 : F-3 00 7 ... ... ... : ... .. 7 P7F ... ... : F-2 00 . ... : ... .. C ... : ... .. . ... ...
ROW B5 : ... .. . ... ... ... : ... .. . ... ... ... : ... .. . ... : ... .. 0 ... : ... .. . ... ...
ROW B6 : ... .. 8 ... ... ... : ... .. 8 ... ... ... : ... .. . ... : ... .. . ... : ... .. . ... ...
ROW B7 : ... .. . ... ... ... : ... .. . ... ... ... : ... .. . ... : ... .. . ... : ... .. . ... ...
ROW B8 : ... .. 9 ... ... ... : ... .. 9 ... ... ... : ... .. . ... : ... .. . ... : ... .. . ... ...
ROW B9 : ... .. . ... ... ... : ... .. . ... ... ... : ... .. . ... : ... .. . ... : ... .. . ... ...
ROW BA : ... .. . ... ... ... : ... .. . ... ... ... : ... .. . ... : ... .. . ... : ... .. . ... ...
ROW BB : ... .. 8 ... ... ... : ... .. 8 ... ... ... : ... .. . ... : ... .. . ... : ... .. . ... ...
ROW BC : ... .. . ... ... ... : ... .. . ... ... ... : --- .. . ... : ... .. . ... : ... .. . ... ...
ROW BD : ... .. . ... ... ... : ... .. . ... ... ... : ... .. . ... : ... .. . ... : ... .. . ... ...
ROW BE : ... .. 7 ... ... ... : ... .. 7 ... ... ... : F-2 00 . ... : ... .. C ... : ... .. . ... ...
ROW BF : ... .. . ... ... ... : ... .. . ... ... ... : ... .. . ... : ... .. 0 ... : ... .. . ... ...
ROW C0 : ... .. 8 ... ... ... : ... .. 8 ... ... ... : ... .. . ... : ... .. . ... : ... .. . ... ...
ROW C1 : ... .. . ... ... ... : ... .. . ... ... ... : ... .. . ... : ... .. . ... : ... .. . ... ...
ROW C2 : ... .. 9 ... ... ... : ... .. 9 ... ... ... : ... .. . ... : ... .. . ... : ... .. . ... ...
ROW C3 : ... .. . ... ... ... : ... .. . ... ... ... : ... .. . ... : ... .. . ... : ... .. . ... ...
ROW C4 : ... .. . ... ... ... : ... .. . ... ... ... : ... .. . ... : ... .. . ... : ... .. . ... ...
ROW C5 : ... .. 8 ... ... ... : ... .. 8 ... ... ... : ... .. . ... : ... .. . ... : ... .. . ... ...
ROW C6 : ... .. . ... ... ... : ... .. . ... ... ... : --- .. . ... : ... .. . ... : ... .. . ... ...
ROW C7 : ... .. . ... ... ... : ... .. . ... ... ... : ... .. . ... : ... .. . ... : ... .. . ... ...
ROW C8 : ... .. 7 ... ... ... : G#2 00 7 P80 ... ... : F-2 00 . ... : ... .. C ... : ... .. . ... ...
ROW C9 : ... .. . ... ... ... : ... .. . ... ... ... : ... .. . ... : ... .. 0 ... : ... .. . ... ...
ROW CA : ... .. 8 ... ... ... : ... .. 8 ... ... ... : ... .. . ... : ... .. . ... : ... .. . ... ...
ROW CB : ... .. . ... ... ... : ... .. . ... ... ... : ... .. . ... : ... .. . ... : ... .. . ... ...
ROW CC : ... .. 9 ... ... ... : ... .. 9 ... ... ... : ... .. . ... : ... .. . ... : ... .. . ... ...
ROW CD : ... .. . ... ... ... : ... .. . ... ... ... : ... .. . ... : ... .. . ... : ... .. . ... ...
ROW CE : ... .. . ... ... ... : ... .. . ... ... ... : ... .. . ... : ... .. . ... : ... .. . ... ...
ROW CF : ... .. 8 ... ... ... : ... .. 8 ... ... ... : ... .. . ... : ... .. . ... : ... .. . ... ...
ROW D0 : ... .. . ... ... ... : ... .. . ... ... ... : --- .. . ... : ... .. . ... : ... .. . ... ...
ROW D1 : ... .. . ... ... ... : ... .. . ... ... ... : ... .. . ... : ... .. . ... : ... .. . ... ...
ROW D2 : ... .. 4 ... ... ... : ... .. . ... ... ... : ... .. . ... : ... .. . ... : ... .. . ... ...
ROW D3 : ... .. . ... ... ... : ... .. 7 ... ... ... : ... .. . ... : ... .. . ... : ... .. . ... ...
ROW D4 : ... .. . ... ... ... : ... .. . ... ... ... : ... .. . ... : ... .. . ... : ... .. . ... ...
ROW D5 : ... .. . ... ... ... : ... .. . ... ... ... : ... .. . ... : ... .. . ... : ... .. . ... ...
ROW D6 : ... .. . ... ... ... : ... .. . ... ... ... : ... .. . ... : ... .. . ... : ... .. . ... ...
ROW D7 : ... .. . ... ... ... : ... .. 6 P7F ... ... : ... .. . P7F : ... .. . ... : ... .. . ... ...
ROW D8 : ... .. . ... ... ... : ... .. . ... ... ... : ... .. . ... : ... .. . ... : ... .. . ... ...
ROW D9 : ... .. . ... ... ... : ... .. . ... ... ... : ... .. . ... : ... .. . ... : ... .. . ... ...
ROW DA : ... .. . ... ... ... : ... .. . ... ... ... : ... .. . ... : ... .. . ... : ... .. . ... ...
ROW DB : ... .. . ... ... ... : ... .. . P81 ... ... : ... .. . P81 : ... .. . ... : ... .. . ... ...
ROW DC : ... .. 7 ... ... ... : ... .. 7 P80 ... ... : F-2 00 . P80 : ... .. C ... : ... .. . ... ...
ROW DD : ... .. . ... ... ... : ... .. . ... ... ... : ... .. . ... : ... .. 0 ... : ... .. . ... ...
ROW DE : ... .. 8 ... ... ... : ... .. 8 ... ... ... : ... .. . ... : ... .. . ... : ... .. . ... ...
ROW DF : ... .. . ... ... ... : ... .. . ... ... ... : ... .. . ... : ... .. . ... : ... .. . ... ...
ROW E0 : ... .. 9 ... ... ... : ... .. 9 ... ... ... : ... .. . ... : ... .. . ... : ... .. . ... ...
ROW E1 : ... .. . ... ... ... : ... .. . ... ... ... : ... .. . ... : ... .. . ... : ... .. . ... ...
ROW E2 : ... .. . ... ... ... : ... .. . ... ... ... : ... .. . ... : ... .. . ... : ... .. . ... ...
ROW E3 : ... .. 8 ... ... ... : ... .. 8 ... ... ... : ... .. . ... : ... .. . ... : ... .. . ... ...
ROW E4 : ... .. . ... ... ... : ... .. . ... ... ... : --- .. . ... : ... .. . ... : ... .. . ... ...
ROW E5 : ... .. . ... ... ... : ... .. . ... ... ... : ... .. . ... : ... .. . ... : ... .. . ... ...
ROW E6 : ... .. 7 ... ... ... : ... .. 7 ... ... ... : F-2 00 . ... : ... .. C ... : ... .. . ... ...
ROW E7 : ... .. . ... ... ... : ... .. . ... ... ... : ... .. . ... : ... .. 0 ... : ... .. . ... ...
ROW E8 : ... .. 8 ... ... ... : ... .. 8 ... ... ... : ... .. . ... : ... .. . ... : ... .. . ... ...
ROW E9 : ... .. . ... ... ... : ... .. . ... ... ... : ... .. . ... : ... .. . ... : ... .. . ... ...
ROW EA : ... .. 9 ... ... ... : ... .. 9 ... ... ... : ... .. . ... : ... .. . ... : ... .. . ... ...
ROW EB : ... .. . ... ... ... : ... .. . ... ... ... : ... .. . ... : ... .. . ... : ... .. . ... ...
ROW EC : ... .. . ... ... ... : ... .. . ... ... ... : ... .. . ... : ... .. . ... : ... .. . ... ...
ROW ED : ... .. 8 ... ... ... : ... .. 8 ... ... ... : ... .. . ... : ... .. . ... : ... .. . ... ...
ROW EE : ... .. . ... ... ... : ... .. . ... ... ... : --- .. . ... : ... .. . ... : ... .. . ... ...
ROW EF : ... .. . ... ... ... : ... .. . ... ... ... : ... .. . ... : ... .. . ... : ... .. . ... ...
ROW F0 : ... .. 7 ... ... ... : G-2 00 7 ... ... ... : F-2 00 . ... : ... .. C ... : ... .. . ... ...
ROW F1 : ... .. . ... ... ... : ... .. . ... ... ... : ... .. . ... : ... .. 0 ... : ... .. . ... ...
ROW F2 : ... .. 8 ... ... ... : ... .. 8 ... ... ... : ... .. . ... : ... .. . ... : ... .. . ... ...
ROW F3 : ... .. . ... ... ... : ... .. . ... ... ... : ... .. . ... : ... .. . ... : ... .. . ... ...
ROW F4 : ... .. 9 ... ... ... : ... .. 9 ... ... ... : ... .. . ... : ... .. . ... : ... .. . ... ...
ROW F5 : ... .. . ... ... ... : ... .. . ... ... ... : ... .. . ... : ... .. . ... : ... .. . ... ...
ROW F6 : ... .. . ... ... ... : ... .. . ... ... ... : ... .. . ... : ... .. . ... : ... .. . ... ...
ROW F7 : ... .. 8 ... ... ... : ... .. 8 ... ... ... : ... .. . ... : ... .. . ... : ... .. . ... ...
ROW F8 : ... .. . ... ... ... : ... .. . ... ... ... : --- .. . ... : ... .. . ... : ... .. . ... ...
ROW F9 : ... .. . ... ... ... : ... .. . ... ... ... : ... .. . ... : ... .. . ... : ... .. . ... ...
ROW FA : ... .. 4 ... ... ... : ... .. . ... ... ... : ... .. . ... : ... .. . ... : ... .. . ... ...
ROW FB : ... .. . ... ... ... : ... .. 7 ... ... ... : ... .. . ... : ... .. . ... : ... .. . ... ...
ROW FC : ... .. . ... ... ... : ... .. . ... ... ... : ... .. . ... : ... .. . ... : ... .. . ... ...
ROW FD : ... .. . ... ... ... : ... .. . ... ... ... : ... .. . ... : ... .. . ... : ... .. . ... ...
ROW FE : ... .. . ... ... ... : ... .. . ... ... ... : ... .. . ... : ... .. . ... : ... .. . ... ...
ROW FF : ... .. . ... ... ... : ... .. 6 P7F ... ... : ... .. . P7F : ... .. . ... : ... .. . ... ...

PATTERN 0B
ROW 00 : ... .. . ... ... ... : ... .. . ... ... ... : ... .. . ... : ... .. . ... : ... .. . ... ...
ROW 01 : ... .. . ... ... ... : ... .. . ... ... ... : ... .. . ... : ... .. . ... : ... .. . ... ...
ROW 02 : ... .. . ... ... ... : ... .. . ... ... ... : ... .. . ... : ... .. . ... : ... .. . ... ...
ROW 03 : ... .. . ... ... ... : ... .. . P81 ... ... : ... .. . P81 : ... .. . ... : ... .. . ... ...
ROW 04 : ... .. 7 ... ... ... : ... .. 7 P80 ... ... : F-2 00 . P80 : ... .. C ... : ... .. . ... ...
ROW 05 : ... .. . ... ... ... : ... .. . ... ... ... : ... .. . ... : ... .. 0 ... : ... .. . ... ...
ROW 06 : ... .. 8 ... ... ... : ... .. 8 ... ... ... : ... .. . ... : ... .. . ... : ... .. . ... ...
ROW 07 : ... .. . ... ... ... : ... .. . ... ... ... : ... .. . ... : ... .. . ... : ... .. . ... ...
ROW 08 : ... .. 9 ... ... ... : ... .. 9 ... ... ... : ... .. . ... : ... .. . ... : ... .. . ... ...
ROW 09 : ... .. . ... ... ... : ... .. . ... ... ... : ... .. . ... : ... .. . ... : ... .. . ... ...
ROW 0A : ... .. . ... ... ... : ... .. . ... ... ... : ... .. . ... : ... .. . ... : ... .. . ... ...
ROW 0B : ... .. 8 ... ... ... : ... .. 8 ... ... ... : ... .. . ... : ... .. . ... : ... .. . ... ...
ROW 0C : ... .. . ... ... ... : ... .. . ... ... ... : --- .. . ... : ... .. . ... : ... .. . ... ...
ROW 0D : ... .. . ... ... ... : ... .. . ... ... ... : ... .. . ... : ... .. . ... : ... .. . ... ...
ROW 0E : ... .. 7 ... ... ... : ... .. 7 ... ... ... : F-2 00 . ... : ... .. C ... : ... .. . ... ...
ROW 0F : ... .. . ... ... ... : ... .. . ... ... ... : ... .. . ... : ... .. 0 ... : ... .. . ... ...
ROW 10 : ... .. 8 ... ... ... : ... .. 8 ... ... ... : ... .. . ... : ... .. . ... : ... .. . ... ...
ROW 11 : ... .. . ... ... ... : ... .. . ... ... ... : ... .. . ... : ... .. . ... : ... .. . ... ...
ROW 12 : ... .. 9 ... ... ... : ... .. 9 ... ... ... : ... .. . ... : ... .. . ... : ... .. . ... ...
ROW 13 : ... .. . ... ... ... : ... .. . ... ... ... : ... .. . ... : ... .. . ... : ... .. . ... ...
ROW 14 : ... .. . ... ... ... : ... .. . ... ... ... : ... .. . ... : ... .. . ... : ... .. . ... ...
ROW 15 : ... .. 8 ... ... ... : ... .. 8 ... ... ... : ... .. . ... : ... .. . ... : ... .. . ... ...
ROW 16 : ... .. . ... ... ... : ... .. . ... ... ... : --- .. . ... : ... .. . ... : ... .. . ... ...
ROW 17 : ... .. . ... ... ... : ... .. . ... ... ... : ... .. . ... : ... .. . ... : ... .. . ... ...
ROW 18 : ... .. 7 ... ... ... : F#2 00 7 ... ... ... : F-2 00 . ... : ... .. C ... : ... .. . ... ...
ROW 19 : ... .. . ... ... ... : ... .. . ... ... ... : ... .. . ... : ... .. 0 ... : ... .. . ... ...
ROW 1A : ... .. 8 ... ... ... : ... .. 8 ... ... ... : ... .. . ... : ... .. . ... : ... .. . ... ...
ROW 1B : ... .. . ... ... ... : ... .. . ... ... ... : ... .. . ... : ... .. . ... : ... .. . ... ...
ROW 1C : ... .. 9 ... ... ... : ... .. 9 ... ... ... : ... .. . ... : ... .. . ... : ... .. . ... ...
ROW 1D : ... .. . ... ... ... : ... .. . ... ... ... : ... .. . ... : ... .. . ... : ... .. . ... ...
ROW 1E : ... .. . ... ... ... : ... .. . ... ... ... : ... .. . ... : ... .. . ... : ... .. . ... ...
ROW 1F : ... .. 8 ... ... ... : ... .. 8 ... ... ... : ... .. . ... : ... .. . ... : ... .. . ... ...
ROW 20 : ... .. . ... ... ... : ... .. . ... ... ... : --- .. . ... : ... .. . ... : ... .. . ... ...
ROW 21 : ... .. . ... ... ... : ... .. . ... ... ... : ... .. . ... : ... .. . ... : ... .. . ... ...
ROW 22 : ... .. . ... ... ... : ... .. . ... ... ... : ... .. . ... : ... .. . ... : ... .. . ... ...
ROW 23 : ... .. 7 ... ... ... : ... .. 7 ... ... ... : ... .. . ... : ... .. . ... : ... .. . ... ...
ROW 24 : ... .. . ... ... ... : ... .. . ... ... ... : ... .. . ... : ... .. . ... : ... .. . ... ...
ROW 25 : ... .. . ... ... ... : ... .. . ... ... ... : ... .. . ... : ... .. . ... : ... .. . ... ...
ROW 26 : ... .. . ... ... ... : ... .. . ... ... ... : ... .. . ... : ... .. . ... : ... .. . ... ...
ROW 27 : ... .. 6 P7E ... ... : ... .. 6 P7F ... ... : ... .. . P7F : ... .. . ... : ... .. . ... ...
ROW 28 : ... .. . ... ... ... : ... .. . ... ... ... : ... .. . ... : ... .. . ... : ... .. . ... ...
ROW 29 : ... .. . ... ... ... : ... .. . ... ... ... : ... .. . ... : ... .. . ... : ... .. . ... ...
ROW 2A : ... .. . ... ... ... : ... .. . ... ... ... : ... .. . ... : ... .. . ... : ... .. . ... ...
ROW 2B : ... .. . P80 ... ... : ... .. . P81 ... ... : ... .. . P81 : ... .. . ... : ... .. . ... ...
ROW 2C : ... .. 7 P7F ... ... : ... .. 7 P80 ... ... : G-2 00 . P80 : ... .. C ... : ... .. . ... ...
ROW 2D : ... .. . ... ... ... : ... .. . ... ... ... : ... .. . ... : ... .. 0 ... : ... .. . ... ...
ROW 2E : ... .. 8 ... ... ... : ... .. 8 ... ... ... : ... .. . ... : ... .. . ... : ... .. . ... ...
ROW 2F : ... .. . ... ... ... : ... .. . ... ... ... : ... .. . ... : ... .. . ... : ... .. . ... ...
ROW 30 : ... .. 9 ... ... ... : ... .. 9 ... ... ... : ... .. . ... : ... .. . ... : ... .. . ... ...
ROW 31 : ... .. . ... ... ... : ... .. . ... ... ... : ... .. . ... : ... .. . ... : ... .. . ... ...
ROW 32 : ... .. . ... ... ... : ... .. . ... ... ... : ... .. . ... : ... .. . ... : ... .. . ... ...
ROW 33 : ... .. 8 ... ... ... : ... .. 8 ... ... ... : ... .. . ... : ... .. . ... : ... .. . ... ...
ROW 34 : ... .. . ... ... ... : ... .. . ... ... ... : --- .. . ... : ... .. . ... : ... .. . ... ...
ROW 35 : ... .. . ... ... ... : ... .. . ... ... ... : ... .. . ... : ... .. . ... : ... .. . ... ...
ROW 36 : ... .. . ... ... ... : ... .. . ... ... ... : A-2 00 . P7F : ... .. C ... : ... .. . ... ...
ROW 37 : ... .. 7 ... ... ... : ... .. 7 ... ... ... : ... .. . ... : ... .. 0 ... : ... .. . ... ...
ROW 38 : ... .. . ... ... ... : ... .. . ... ... ... : ... .. . ... : ... .. . ... : ... .. . ... ...
ROW 39 : ... .. . ... ... ... : ... .. . ... ... ... : ... .. . ... : ... .. . ... : ... .. . ... ...
ROW 3A : ... .. . ... ... ... : ... .. . ... ... ... : ... .. . ... : ... .. . ... : ... .. . ... ...
ROW 3B : ... .. 6 P7E ... ... : ... .. 6 P7F ... ... : ... .. . ... : ... .. . ... : ... .. . ... ...
ROW 3C : ... .. . ... ... ... : ... .. . ... ... ... : ... .. . ... : ... .. . ... : ... .. . ... ...
ROW 3D : ... .. . ... ... ... : ... .. . ... ... ... : ... .. . ... : ... .. . ... : ... .. . ... ...
ROW 3E : ... .. . ... ... ... : ... .. . ... ... ... : --- .. . ... : ... .. . ... : ... .. . ... ...
ROW 3F : ... .. . P80 ... ... : ... .. . P81 ... ... : ... .. . ... : ... .. . ... : ... .. . ... ...
ROW 40 : D-3 00 7 ... ... ... : A#3 00 7 P80 ... ... : A#2 00 . P80 : ... .. C ... : ... .. . ... ...
ROW 41 : ... .. . ... ... ... : ... .. . ... ... ... : ... .. . ... : ... .. 0 ... : ... .. . ... ...
ROW 42 : ... .. 8 ... ... ... : ... .. 8 ... ... ... : ... .. . ... : ... .. . ... : ... .. . ... ...
ROW 43 : ... .. . ... ... ... : ... .. . ... ... ... : ... .. . ... : ... .. . ... : ... .. . ... ...
ROW 44 : ... .. 9 ... ... ... : ... .. 9 ... ... ... : ... .. . ... : ... .. . ... : ... .. . ... ...
ROW 45 : ... .. . ... ... ... : ... .. . ... ... ... : ... .. . ... : ... .. . ... : ... .. . ... ...
ROW 46 : ... .. . ... ... ... : ... .. . ... ... ... : ... .. . ... : ... .. . ... : ... .. . ... ...
ROW 47 : ... .. 8 ... ... ... : ... .. 8 ... ... ... : ... .. . ... : ... .. . ... : ... .. . ... ...
ROW 48 : ... .. . ... ... ... : ... .. . ... ... ... : --- .. . ... : ... .. . ... : ... .. . ... ...
ROW 49 : ... .. . ... ... ... : ... .. . ... ... ... : ... .. . ... : ... .. . ... : ... .. . ... ...
ROW 4A : ... .. . ... ... ... : ... .. . ... ... ... : ... .. . ... : ... .. . ... : ... .. . ... ...
ROW 4B : ... .. 7 ... ... ... : ... .. 7 ... ... ... : ... .. . ... : ... .. . ... : ... .. . ... ...
ROW 4C : ... .. . ... ... ... : ... .. . ... ... ... : ... .. . ... : ... .. . ... : ... .. . ... ...
ROW 4D : ... .. . ... ... ... : ... .. . ... ... ... : ... .. . ... : ... .. . ... : ... .. . ... ...
ROW 4E : ... .. . ... ... ... : ... .. . ... ... ... : ... .. . ... : ... .. . ... : ... .. . ... ...
ROW 4F : ... .. 6 P7F ... ... : ... .. 6 P7F ... ... : ... .. . P7F : ... .. . ... : ... .. . ... ...
ROW 50 : ... .. . ... ... ... : ... .. . ... ... ... : ... .. . ... : ... .. . ... : ... .. . ... ...
ROW 51 : ... .. . ... ... ... : ... .. . ... ... ... : ... .. . ... : ... .. . ... : ... .. . ... ...
ROW 52 : ... .. . ... ... ... : ... .. . ... ... ... : ... .. . ... : ... .. . ... : ... .. . ... ...
ROW 53 : ... .. . P81 ... ... : ... .. . P81 ... ... : ... .. . P81 : ... .. . ... : ... .. . ... ...
ROW 54 : ... .. 4 P80 ... ... : ... .. 4 P80 ... ... : A#2 00 . P80 : ... .. C ... : ... .. . ... ...
ROW 55 : ... .. . ... ... ... : ... .. . ... ... ... : ... .. . ... : ... .. 0 ... : ... .. . ... ...
ROW 56 : ... .. . ... ... ... : ... .. . ... ... ... : ... .. . ... : ... .. . ... : ... .. . ... ...
ROW 57 : ... .. . ... ... ... : ... .. . ... ... ... : ... .. . ... : ... .. . ... : ... .. . ... ...
ROW 58 : ... .. . ... ... ... : ... .. . ... ... ... : ... .. . ... : ... .. . ... : ... .. . ... ...
ROW 59 : ... .. . ... ... ... : ... .. . ... ... ... : ... .. . ... : ... .. . ... : ... .. . ... ...
ROW 5A : ... .. . ... ... ... : ... .. . ... ... ... : ... .. . ... : ... .. . ... : ... .. . ... ...
ROW 5B : ... .. . ... ... ... : ... .. . ... ... ... : ... .. . ... : ... .. . ... : ... .. . ... ...
ROW 5C : ... .. . ... ... ... : ... .. . ... ... ... : --- .. . ... : ... .. . ... : ... .. . ... ...
ROW 5D : ... .. . ... ... ... : ... .. . ... ... ... : ... .. . ... : ... .. . ... : ... .. . ... ...
ROW 5E : ... .. . ... ... ... : ... .. . ... ... ... : A#2 00 . ... : ... .. C ... : ... .. . ... ...
ROW 5F : ... .. . ... ... ... : ... .. . ... ... ... : ... .. . ... : ... .. 0 ... : ... .. . ... ...
ROW 60 : ... .. . ... ... ... : ... .. . ... ... ... : ... .. . ... : ... .. . ... : ... .. . ... ...
ROW 61 : ... .. . ... ... ... : ... .. . ... ... ... : ... .. . ... : ... .. . ... : ... .. . ... ...
ROW 62 : ... .. . ... ... ... : ... .. . ... ... ... : ... .. . ... : ... .. . ... : ... .. . ... ...
ROW 63 : ... .. . P7F ... ... : ... .. . P7F ... ... : ... .. . ... : ... .. . ... : ... .. . ... ...
ROW 64 : ... .. . ... ... ... : ... .. . ... ... ... : ... .. . ... : ... .. . ... : ... .. . ... ...
ROW 65 : ... .. . ... ... ... : ... .. . ... ... ... : ... .. . ... : ... .. . ... : ... .. . ... ...
ROW 66 : ... .. . ... ... ... : ... .. . ... ... ... : --- .. . ... : ... .. . ... : ... .. . ... ...
ROW 67 : ... .. . P81 ... ... : ... .. . P81 ... ... : ... .. . ... : ... .. . ... : ... .. . ... ...
ROW 68 : ... .. 7 P80 ... ... : F-3 00 7 P7F ... ... : A#2 00 . ... : ... .. C ... : ... .. . ... ...
ROW 69 : ... .. . ... ... ... : ... .. . ... ... ... : ... .. . ... : ... .. 0 ... : ... .. . ... ...
ROW 6A : ... .. 8 ... ... ... : ... .. 8 ... ... ... : ... .. . ... : ... .. . ... : ... .. . ... ...
ROW 6B : ... .. . ... ... ... : ... .. . ... ... ... : ... .. . ... : ... .. . ... : ... .. . ... ...
ROW 6C : ... .. 9 ... ... ... : ... .. 9 ... ... ... : ... .. . ... : ... .. . ... : ... .. . ... ...
ROW 6D : ... .. . ... ... ... : ... .. . ... ... ... : ... .. . ... : ... .. . ... : ... .. . ... ...
ROW 6E : ... .. . ... ... ... : ... .. . ... ... ... : ... .. . ... : ... .. . ... : ... .. . ... ...
ROW 6F : ... .. 8 ... ... ... : ... .. 8 ... ... ... : ... .. . ... : ... .. . ... : ... .. . ... ...
ROW 70 : ... .. . ... ... ... : ... .. . ... ... ... : --- .. . ... : ... .. . ... : ... .. . ... ...
ROW 71 : ... .. . ... ... ... : ... .. . ... ... ... : ... .. . ... : ... .. . ... : ... .. . ... ...
ROW 72 : ... .. . ... ... ... : ... .. . ... ... ... : ... .. . ... : ... .. . ... : ... .. . ... ...
ROW 73 : ... .. 7 ... ... ... : ... .. 7 ... ... ... : ... .. . ... : ... .. . ... : ... .. . ... ...
ROW 74 : ... .. . ... ... ... : ... .. . ... ... ... : ... .. . ... : ... .. . ... : ... .. . ... ...
ROW 75 : ... .. . ... ... ... : ... .. . ... ... ... : ... .. . ... : ... .. . ... : ... .. . ... ...
ROW 76 : ... .. . ... ... ... : ... .. . ... ... ... : ... .. . ... : ... .. . ... : ... .. . ... ...
ROW 77 : ... .. 8 ... ... ... : ... .. 6 P7E ... ... : ... .. . P7F : ... .. . ... : ... .. . ... ...
ROW 78 : ... .. . ... ... ... : ... .. . ... ... ... : ... .. . ... : ... .. . ... : ... .. . ... ...
ROW 79 : ... .. 9 ... ... ... : ... .. . ... ... ... : ... .. . ... : ... .. . ... : ... .. . ... ...
ROW 7A : ... .. . ... ... ... : ... .. . ... ... ... : ... .. . ... : ... .. . ... : ... .. . ... ...
ROW 7B : ... .. . ... ... ... : ... .. . P80 ... ... : ... .. . P81 : ... .. . ... : ... .. . ... ...
ROW 7C : ... .. 8 ... ... ... : ... .. . ... ... ... : A#2 00 . P80 : ... .. C ... : ... .. . ... ...
ROW 7D : ... .. . ... ... ... : ... .. . ... ... ... : ... .. . ... : ... .. 0 ... : ... .. . ... ...
ROW 7E : ... .. . ... ... ... : ... .. . ... ... ... : ... .. . ... : ... .. . ... : ... .. . ... ...
ROW 7F : ... .. . ... ... ... : ... .. 5 P7E ... ... : ... .. . ... : ... .. . ... : ... .. . ... ...
ROW 80 : ... .. 7 ... ... ... : ... .. . ... ... ... : ... .. . ... : ... .. . ... : ... .. . ... ...
ROW 81 : ... .. . ... ... ... : ... .. . ... ... ... : ... .. . ... : ... .. . ... : ... .. . ... ...
ROW 82 : C-3 00 7 ... ... ... : ... .. . ... ... ... : ... .. . ... : ... .. . ... : ... .. . ... ...
ROW 83 : ... .. . ... ... ... : ... .. . P80 ... ... : ... .. . ... : ... .. . ... : ... .. . ... ...
ROW 84 : ... .. 8 ... ... ... : ... .. 4 ... ... ... : --- .. . ... : ... .. . ... : ... .. . ... ...
ROW 85 : ... .. . ... ... ... : ... .. . ... ... ... : ... .. . ... : ... .. . ... : ... .. . ... ...
ROW 86 : ... .. 9 ... ... ... : ... .. . ... ... ... : A#2 00 . ... : ... .. C ... : ... .. . ... ...
ROW 87 : ... .. . ... ... ... : ... .. . P7E ... ... : ... .. . ... : ... .. 0 ... : ... .. . ... ...
ROW 88 : ... .. . ... ... ... : ... .. . ... ... ... : ... .. . ... : ... .. . ... : ... .. . ... ...
ROW 89 : ... .. 8 ... ... ... : ... .. . ... ... ... : ... .. . ... : ... .. . ... : ... .. . ... ...
ROW 8A : ... .. . ... ... ... : ... .. . ... ... ... : ... .. . ... : ... .. . ... : ... .. . ... ...
ROW 8B : ... .. . ... ... ... : ... .. . P80 ... ... : ... .. . ... : ... .. . ... : ... .. . ... ...
ROW 8C : ... .. . ... ... ... : ... .. . ... ... ... : ... .. . ... : ... .. . ... : ... .. . ... ...
ROW 8D : ... .. 7 ... ... ... : ... .. . ... ... ... : ... .. . ... : ... .. . ... : ... .. . ... ...
ROW 8E : ... .. . ... ... ... : ... .. . ... ... ... : --- .. . ... : ... .. . ... : ... .. . ... ...
ROW 8F : ... .. . ... ... ... : ... .. . P7E ... ... : ... .. . ... : ... .. . ... : ... .. . ... ...
ROW 90 : D-3 00 7 ... ... ... : ... .. . ... ... ... : A#2 00 . ... : ... .. C ... : ... .. . ... ...
ROW 91 : ... .. . ... ... ... : ... .. . ... ... ... : ... .. . ... : ... .. 0 ... : ... .. . ... ...
ROW 92 : ... .. 8 ... ... ... : ... .. . ... ... ... : ... .. . ... : ... .. . ... : ... .. . ... ...
ROW 93 : ... .. . ... ... ... : ... .. . P80 ... ... : ... .. . ... : ... .. . ... : ... .. . ... ...
ROW 94 : ... .. 9 ... ... ... : ... .. . ... ... ... : ... .. . ... : ... .. . ... : ... .. . ... ...
ROW 95 : ... .. . ... ... ... : ... .. . ... ... ... : ... .. . ... : ... .. . ... : ... .. . ... ...
ROW 96 : ... .. . ... ... ... : ... .. . ... ... ... : ... .. . ... : ... .. . ... : ... .. . ... ...
ROW 97 : ... .. 8 ... ... ... : ... .. . P7E ... ... : ... .. . ... : ... .. . ... : ... .. . ... ...
ROW 98 : ... .. . ... ... ... : ... .. . ... ... ... : --- .. . ... : ... .. . ... : ... .. . ... ...
ROW 99 : ... .. . ... ... ... : ... .. . ... ... ... : ... .. . ... : ... .. . ... : ... .. . ... ...
ROW 9A : ... .. . ... ... ... : ... .. . ... ... ... : ... .. . ... : ... .. . ... : ... .. . ... ...
ROW 9B : ... .. 7 ... ... ... : ... .. . P80 ... ... : ... .. . ... : ... .. . ... : ... .. . ... ...
ROW 9C : ... .. . ... ... ... : ... .. . ... ... ... : ... .. . ... : ... .. . ... : ... .. . ... ...
ROW 9D : ... .. . ... ... ... : ... .. . ... ... ... : ... .. . ... : ... .. . ... : ... .. . ... ...
ROW 9E : ... .. . ... ... ... : ... .. . ... ... ... : ... .. . ... : ... .. . ... : ... .. . ... ...
ROW 9F : ... .. 6 P7F ... ... : ... .. . P7E ... ... : ... .. . P7F : ... .. . ... : ... .. . ... ...
ROW A0 : ... .. . ... ... ... : ... .. . ... ... ... : ... .. . ... : ... .. . ... : ... .. . ... ...
ROW A1 : ... .. . ... ... ... : ... .. . ... ... ... : ... .. . ... : ... .. . ... : ... .. . ... ...
ROW A2 : ... .. . ... ... ... : ... .. . ... ... ... : ... .. . ... : ... .. . ... : ... .. . ... ...
ROW A3 : ... .. . P81 ... ... : ... .. . P80 ... ... : ... .. . P81 : ... .. . ... : ... .. . ... ...
ROW A4 : ... .. 4 P80 ... ... : A#3 00 7 ... ... ... : A#2 00 . P80 : ... .. C ... : ... .. . ... ...
ROW A5 : ... .. . ... ... ... : ... .. . ... ... ... : ... .. . ... : ... .. 0 ... : ... .. . ... ...
ROW A6 : ... .. . ... ... ... : ... .. 8 ... ... ... : ... .. . ... : ... .. . ... : ... .. . ... ...
ROW A7 : ... .. . ... ... ... : ... .. . ... ... ... : ... .. . ... : ... .. . ... : ... .. . ... ...
ROW A8 : ... .. . ... ... ... : ... .. 9 ... ... ... : ... .. . ... : ... .. . ... : ... .. . ... ...
ROW A9 : ... .. . ... ... ... : ... .. . ... ... ... : ... .. . ... : ... .. . ... : ... .. . ... ...
ROW AA : ... .. . ... ... ... : ... .. . ... ... ... : ... .. . ... : ... .. . ... : ... .. . ... ...
ROW AB : ... .. . ... ... ... : ... .. 8 ... ... ... : ... .. . ... : ... .. . ... : ... .. . ... ...
ROW AC : ... .. . ... ... ... : ... .. . ... ... ... : --- .. . ... : ... .. . ... : ... .. . ... ...
ROW AD : ... .. . ... ... ... : ... .. . ... ... ... : ... .. . ... : ... .. . ... : ... .. . ... ...
ROW AE : ... .. 7 ... ... ... : ... .. . ... ... ... : A#2 00 . ... : ... .. C ... : ... .. . ... ...
ROW AF : ... .. . ... ... ... : ... .. 7 ... ... ... : ... .. . ... : ... .. 0 ... : ... .. . ... ...
ROW B0 : ... .. 8 ... ... ... : ... .. . ... ... ... : ... .. . ... : ... .. . ... : ... .. . ... ...
ROW B1 : ... .. . ... ... ... : ... .. . ... ... ... : ... .. . ... : ... .. . ... : ... .. . ... ...
ROW B2 : ... .. 9 ... ... ... : ... .. . ... ... ... : ... .. . ... : ... .. . ... : ... .. . ... ...
ROW B3 : ... .. . ... ... ... : ... .. 6 P7F ... ... : ... .. . ... : ... .. . ... : ... .. . ... ...
ROW B4 : ... .. . ... ... ... : ... .. . ... ... ... : ... .. . ... : ... .. . ... : ... .. . ... ...
ROW B5 : ... .. 8 ... ... ... : ... .. . ... ... ... : ... .. . ... : ... .. . ... : ... .. . ... ...
ROW B6 : ... .. . ... ... ... : ... .. . ... ... ... : --- .. . ... : ... .. . ... : ... .. . ... ...
ROW B7 : ... .. . ... ... ... : ... .. . P81 ... ... : ... .. . ... : ... .. . ... : ... .. . ... ...
ROW B8 : ... .. 7 ... ... ... : ... .. 7 P80 ... ... : A#2 00 . ... : ... .. C ... : ... .. . ... ...
ROW B9 : ... .. . ... ... ... : ... .. . ... ... ... : ... .. . ... : ... .. 0 ... : ... .. . ... ...
ROW BA : ... .. 8 ... ... ... : ... .. 8 ... ... ... : ... .. . ... : ... .. . ... : ... .. . ... ...
ROW BB : ... .. . ... ... ... : ... .. . ... ... ... : ... .. . ... : ... .. . ... : ... .. . ... ...
ROW BC : ... .. 9 ... ... ... : ... .. 9 ... ... ... : ... .. . ... : ... .. . ... : ... .. . ... ...
ROW BD : ... .. . ... ... ... : ... .. . ... ... ... : ... .. . ... : ... .. . ... : ... .. . ... ...
ROW BE : ... .. . ... ... ... : ... .. . ... ... ... : ... .. . ... : ... .. . ... : ... .. . ... ...
ROW BF : ... .. 8 ... ... ... : ... .. 8 ... ... ... : ... .. . ... : ... .. . ... : ... .. . ... ...
ROW C0 : ... .. . ... ... ... : ... .. . ... ... ... : --- .. . ... : ... .. . ... : ... .. . ... ...
ROW C1 : ... .. . ... ... ... : ... .. . ... ... ... : ... .. . ... : ... .. . ... : ... .. . ... ...
ROW C2 : D#3 00 7 ... ... ... : C-4 00 7 ... ... ... : ... .. . ... : ... .. . ... : ... .. . ... ...
ROW C3 : ... .. . ... ... ... : ... .. . ... ... ... : ... .. . ... : ... .. . ... : ... .. . ... ...
ROW C4 : ... .. 8 ... ... ... : ... .. 8 ... ... ... : ... .. . ... : ... .. . ... : ... .. . ... ...
ROW C5 : ... .. . ... ... ... : ... .. . ... ... ... : ... .. . ... : ... .. . ... : ... .. . ... ...
ROW C6 : ... .. 9 ... ... ... : ... .. 9 ... ... ... : ... .. . ... : ... .. . ... : ... .. . ... ...
ROW C7 : ... .. . ... ... ... : ... .. . ... ... ... : ... .. . P7F : ... .. . ... : ... .. . ... ...
ROW C8 : ... .. . ... ... ... : ... .. . ... ... ... : ... .. . ... : ... .. . ... : ... .. . ... ...
ROW C9 : ... .. 8 ... ... ... : ... .. 8 ... ... ... : ... .. . ... : ... .. . ... : ... .. . ... ...
ROW CA : ... .. . ... ... ... : ... .. . ... ... ... : ... .. . ... : ... .. . ... : ... .. . ... ...
ROW CB : ... .. . ... ... ... : ... .. . ... ... ... : ... .. . P81 : ... .. . ... : ... .. . ... ...
ROW CC : F-3 00 7 P7F ... ... : D-4 00 7 P7F ... ... : A#2 00 . P80 : ... .. C ... : ... .. . ... ...
ROW CD : ... .. . ... ... ... : ... .. . ... ... ... : ... .. . ... : ... .. 0 ... : ... .. . ... ...
ROW CE : ... .. 8 ... ... ... : ... .. 8 ... ... ... : ... .. . ... : ... .. . ... : ... .. . ... ...
ROW CF : ... .. . ... ... ... : ... .. . ... ... ... : ... .. . ... : ... .. . ... : ... .. . ... ...
ROW D0 : ... .. 9 ... ... ... : ... .. 9 ... ... ... : ... .. . ... : ... .. . ... : ... .. . ... ...
ROW D1 : ... .. . ... ... ... : ... .. . ... ... ... : ... .. . ... : ... .. . ... : ... .. . ... ...
ROW D2 : ... .. . ... ... ... : ... .. . ... ... ... : ... .. . ... : ... .. . ... : ... .. . ... ...
ROW D3 : ... .. 8 ... ... ... : ... .. 8 ... ... ... : ... .. . ... : ... .. . ... : ... .. . ... ...
ROW D4 : ... .. . ... ... ... : ... .. . ... ... ... : --- .. . ... : ... .. . ... : ... .. . ... ...
ROW D5 : ... .. . ... ... ... : ... .. . ... ... ... : ... .. . ... : ... .. . ... : ... .. . ... ...
ROW D6 : G-3 00 7 ... ... ... : D#4 00 7 P80 ... ... : A#2 00 . ... : ... .. C ... : ... .. . ... ...
ROW D7 : ... .. . ... ... ... : ... .. . ... ... ... : ... .. . ... : ... .. 0 ... : ... .. . ... ...
ROW D8 : ... .. 8 ... ... ... : ... .. 8 ... ... ... : ... .. . ... : ... .. . ... : ... .. . ... ...
ROW D9 : ... .. . ... ... ... : ... .. . ... ... ... : ... .. . ... : ... .. . ... : ... .. . ... ...
ROW DA : ... .. 9 ... ... ... : ... .. 9 ... ... ... : ... .. . ... : ... .. . ... : ... .. . ... ...
ROW DB : ... .. . ... ... ... : ... .. . ... ... ... : ... .. . ... : ... .. . ... : ... .. . ... ...
ROW DC : ... .. . ... ... ... : ... .. . ... ... ... : ... .. . ... : ... .. . ... : ... .. . ... ...
ROW DD : ... .. 8 ... ... ... : ... .. 8 ... ... ... : ... .. . ... : ... .. . ... : ... .. . ... ...
ROW DE : ... .. . ... ... ... : ... .. . ... ... ... : --- .. . ... : ... .. . ... : ... .. . ... ...
ROW DF : ... .. . ... ... ... : ... .. . ... ... ... : ... .. . ... : ... .. . ... : ... .. . ... ...
ROW E0 : G#3 00 7 ... ... ... : F-4 00 7 P7F ... ... : G#2 00 . ... : ... .. C ... : ... .. . ... ...
ROW E1 : ... .. . ... ... ... : ... .. . ... ... ... : ... .. . ... : ... .. 0 ... : ... .. . ... ...
ROW E2 : ... .. 8 ... ... ... : ... .. 8 ... ... ... : ... .. . ... : ... .. . ... : ... .. . ... ...
ROW E3 : ... .. . ... ... ... : ... .. . ... ... ... : ... .. . ... : ... .. . ... : ... .. . ... ...
ROW E4 : ... .. 9 ... ... ... : ... .. 9 ... ... ... : ... .. . ... : ... .. . ... : ... .. . ... ...
ROW E5 : ... .. . ... ... ... : ... .. . ... ... ... : ... .. . ... : ... .. . ... : ... .. . ... ...
ROW E6 : ... .. . ... ... ... : ... .. . ... ... ... : ... .. . ... : ... .. . ... : ... .. . ... ...
ROW E7 : ... .. 8 ... ... ... : ... .. 8 ... ... ... : ... .. . ... : ... .. . ... : ... .. . ... ...
ROW E8 : ... .. . ... ... ... : ... .. . ... ... ... : --- .. . ... : ... .. . ... : ... .. . ... ...
ROW E9 : ... .. . ... ... ... : ... .. . ... ... ... : ... .. . ... : ... .. . ... : ... .. . ... ...
ROW EA : ... .. . ... ... ... : ... .. . ... ... ... : ... .. . ... : ... .. . ... : ... .. . ... ...
ROW EB : ... .. 7 ... ... ... : ... .. 7 ... ... ... : ... .. . ... : ... .. . ... : ... .. . ... ...
ROW EC : ... .. . ... ... ... : ... .. . ... ... ... : ... .. . ... : ... .. . ... : ... .. . ... ...
ROW ED : ... .. . ... ... ... : ... .. . ... ... ... : ... .. . ... : ... .. . ... : ... .. . ... ...
ROW EE : ... .. . ... ... ... : ... .. . ... ... ... : ... .. . ... : ... .. . ... : ... .. . ... ...
ROW EF : ... .. 6 P7E ... ... : ... .. 6 P7E ... ... : ... .. . P7F : ... .. . ... : ... .. . ... ...
ROW F0 : ... .. . ... ... ... : ... .. . ... ... ... : ... .. . ... : ... .. . ... : ... .. . ... ...
ROW F1 : ... .. . ... ... ... : ... .. . ... ... ... : ... .. . ... : ... .. . ... : ... .. . ... ...
ROW F2 : ... .. . ... ... ... : ... .. . ... ... ... : ... .. . ... : ... .. . ... : ... .. . ... ...
ROW F3 : ... .. . P80 ... ... : ... .. . P80 ... ... : ... .. . P81 : ... .. . ... : ... .. . ... ...
ROW F4 : ... .. 4 P7F ... ... : ... .. . ... ... ... : G#2 00 . P80 : ... .. C ... : ... .. . ... ...
ROW F5 : ... .. . ... ... ... : ... .. . ... ... ... : ... .. . ... : ... .. 0 ... : ... .. . ... ...
ROW F6 : ... .. . ... ... ... : ... .. . ... ... ... : ... .. . ... : ... .. . ... : ... .. . ... ...
ROW F7 : ... .. . ... ... ... : ... .. 5 P7E ... ... : ... .. . ... : ... .. . ... : ... .. . ... ...
ROW F8 : ... .. . ... ... ... : ... .. . ... ... ... : ... .. . ... : ... .. . ... : ... .. . ... ...
ROW F9 : ... .. . ... ... ... : ... .. . ... ... ... : ... .. . ... : ... .. . ... : ... .. . ... ...
ROW FA : ... .. . ... ... ... : ... .. . ... ... ... : ... .. . ... : ... .. . ... : ... .. . ... ...
ROW FB : ... .. . ... ... ... : ... .. . P80 ... ... : ... .. . ... : ... .. . ... : ... .. . ... ...
ROW FC : ... .. . ... ... ... : ... .. 4 ... ... ... : --- .. . ... : ... .. . ... : ... .. . ... ...
ROW FD : ... .. . ... ... ... : ... .. . ... ... ... : ... .. . ... : ... .. . ... : ... .. . ... ...
ROW FE : A#3 00 7 P80 ... ... : ... .. . ... ... ... : G#2 00 . ... : ... .. C ... : ... .. . ... ...
ROW FF : ... .. . ... ... ... : ... .. . P7E ... ... : ... .. . ... : ... .. 0 ... : ... .. . ... ...

PATTERN 0C
ROW 00 : ... .. 8 ... ... ... : ... .. . ... ... ... : ... .. . ... : ... .. . ... : ... .. . ... ...
ROW 01 : ... .. . ... ... ... : ... .. . ... ... ... : ... .. . ... : ... .. . ... : ... .. . ... ...
ROW 02 : ... .. 9 ... ... ... : ... .. . ... ... ... : ... .. . ... : ... .. . ... : ... .. . ... ...
ROW 03 : ... .. . ... ... ... : ... .. . P80 ... ... : ... .. . ... : ... .. . ... : ... .. . ... ...
ROW 04 : ... .. . ... ... ... : ... .. . ... ... ... : ... .. . ... : ... .. . ... : ... .. . ... ...
ROW 05 : ... .. 8 ... ... ... : ... .. . ... ... ... : ... .. . ... : ... .. . ... : ... .. . ... ...
ROW 06 : ... .. . ... ... ... : ... .. . ... ... ... : --- .. . ... : ... .. . ... : ... .. . ... ...
ROW 07 : ... .. . ... ... ... : ... .. . P7E ... ... : ... .. . ... : ... .. . ... : ... .. . ... ...
ROW 08 : ... .. 7 ... ... ... : ... .. . ... ... ... : G#2 00 . ... : ... .. C ... : ... .. . ... ...
ROW 09 : ... .. . ... ... ... : ... .. . ... ... ... : ... .. . ... : ... .. 0 ... : ... .. . ... ...
ROW 0A : ... .. 8 ... ... ... : ... .. . ... ... ... : ... .. . ... : ... .. . ... : ... .. . ... ...
ROW 0B : ... .. . ... ... ... : ... .. . P80 ... ... : ... .. . ... : ... .. . ... : ... .. . ... ...
ROW 0C : ... .. 9 ... ... ... : ... .. . ... ... ... : ... .. . ... : ... .. . ... : ... .. . ... ...
ROW 0D : ... .. . ... ... ... : ... .. . ... ... ... : ... .. . ... : ... .. . ... : ... .. . ... ...
ROW 0E : ... .. . ... ... ... : ... .. . ... ... ... : ... .. . ... : ... .. . ... : ... .. . ... ...
ROW 0F : ... .. 8 ... ... ... : ... .. . P7E ... ... : ... .. . ... : ... .. . ... : ... .. . ... ...
ROW 10 : ... .. . ... ... ... : ... .. . ... ... ... : --- .. . ... : ... .. . ... : ... .. . ... ...
ROW 11 : ... .. . ... ... ... : ... .. . ... ... ... : ... .. . ... : ... .. . ... : ... .. . ... ...
ROW 12 : C-4 00 7 ... ... ... : ... .. . ... ... ... : ... .. . ... : ... .. . ... : ... .. . ... ...
ROW 13 : ... .. . ... ... ... : ... .. . P80 ... ... : ... .. . ... : ... .. . ... : ... .. . ... ...
ROW 14 : ... .. 8 ... ... ... : ... .. . ... ... ... : ... .. . ... : ... .. . ... : ... .. . ... ...
ROW 15 : ... .. . ... ... ... : ... .. . ... ... ... : ... .. . ... : ... .. . ... : ... .. . ... ...
ROW 16 : ... .. 9 ... ... ... : ... .. . ... ... ... : ... .. . ... : ... .. . ... : ... .. . ... ...
ROW 17 : ... .. . ... ... ... : ... .. . P7E ... ... : ... .. . P7F : ... .. . ... : ... .. . ... ...
ROW 18 : ... .. . ... ... ... : ... .. . ... ... ... : ... .. . ... : ... .. . ... : ... .. . ... ...
ROW 19 : ... .. 8 ... ... ... : ... .. . ... ... ... : ... .. . ... : ... .. . ... : ... .. . ... ...
ROW 1A : ... .. . ... ... ... : ... .. . ... ... ... : ... .. . ... : ... .. . ... : ... .. . ... ...
ROW 1B : ... .. . ... ... ... : ... .. . P80 ... ... : ... .. . P81 : ... .. . ... : ... .. . ... ...
ROW 1C : D-4 00 7 P7F ... ... : ... .. . ... ... ... : G#2 00 . P80 : ... .. C ... : ... .. . ... ...
ROW 1D : ... .. . ... ... ... : ... .. . ... ... ... : ... .. . ... : ... .. 0 ... : ... .. . ... ...
ROW 1E : ... .. 8 ... ... ... : ... .. . ... ... ... : ... .. . ... : ... .. . ... : ... .. . ... ...
ROW 1F : ... .. . ... ... ... : ... .. . P7E ... ... : ... .. . ... : ... .. . ... : ... .. . ... ...
ROW 20 : ... .. 9 ... ... ... : ... .. . ... ... ... : ... .. . ... : ... .. . ... : ... .. . ... ...
ROW 21 : ... .. . ... ... ... : ... .. . ... ... ... : ... .. . ... : ... .. . ... : ... .. . ... ...
ROW 22 : ... .. . ... ... ... : ... .. . ... ... ... : ... .. . ... : ... .. . ... : ... .. . ... ...
ROW 23 : ... .. 8 ... ... ... : ... .. . P80 ... ... : ... .. . ... : ... .. . ... : ... .. . ... ...
ROW 24 : ... .. . ... ... ... : ... .. . ... ... ... : --- .. . ... : ... .. . ... : ... .. . ... ...
ROW 25 : ... .. . ... ... ... : ... .. . ... ... ... : ... .. . ... : ... .. . ... : ... .. . ... ...
ROW 26 : D#4 00 7 P80 ... ... : ... .. . ... ... ... : G#2 00 . ... : ... .. C ... : ... .. . ... ...
ROW 27 : ... .. . ... ... ... : ... .. . P7E ... ... : ... .. . ... : ... .. 0 ... : ... .. . ... ...
ROW 28 : ... .. 8 ... ... ... : ... .. . ... ... ... : ... .. . ... : ... .. . ... : ... .. . ... ...
ROW 29 : ... .. . ... ... ... : ... .. . ... ... ... : ... .. . ... : ... .. . ... : ... .. . ... ...
ROW 2A : ... .. 9 ... ... ... : ... .. . ... ... ... : ... .. . ... : ... .. . ... : ... .. . ... ...
ROW 2B : ... .. . ... ... ... : ... .. . P80 ... ... : ... .. . ... : ... .. . ... : ... .. . ... ...
ROW 2C : ... .. . ... ... ... : ... .. . ... ... ... : ... .. . ... : ... .. . ... : ... .. . ... ...
ROW 2D : ... .. 8 ... ... ... : ... .. . ... ... ... : ... .. . ... : ... .. . ... : ... .. . ... ...
ROW 2E : ... .. . ... ... ... : ... .. . ... ... ... : --- .. . ... : ... .. . ... : ... .. . ... ...
ROW 2F : ... .. . ... ... ... : ... .. . P7E ... ... : ... .. . ... : ... .. . ... : ... .. . ... ...
ROW 30 : F-4 00 7 P7F ... ... : ... .. . P7F ... ... : G#2 00 . ... : ... .. C ... : ... .. . ... ...
ROW 31 : ... .. . ... ... ... : ... .. . ... ... ... : ... .. . ... : ... .. 0 ... : ... .. . ... ...
ROW 32 : ... .. 8 ... ... ... : ... .. . ... ... ... : ... .. . ... : ... .. . ... : ... .. . ... ...
ROW 33 : ... .. . ... ... ... : ... .. . ... ... ... : ... .. . ... : ... .. . ... : ... .. . ... ...
ROW 34 : ... .. 9 ... ... ... : ... .. . ... ... ... : ... .. . ... : ... .. . ... : ... .. . ... ...
ROW 35 : ... .. . ... ... ... : ... .. . ... ... ... : ... .. . ... : ... .. . ... : ... .. . ... ...
ROW 36 : ... .. . ... ... ... : ... .. . ... ... ... : ... .. . ... : ... .. . ... : ... .. . ... ...
ROW 37 : ... .. 8 ... ... ... : ... .. . ... ... ... : ... .. . ... : ... .. . ... : ... .. . ... ...
ROW 38 : ... .. . ... ... ... : ... .. . ... ... ... : --- .. . ... : ... .. . ... : ... .. . ... ...
ROW 39 : ... .. . ... ... ... : ... .. . ... ... ... : ... .. . ... : ... .. . ... : ... .. . ... ...
ROW 3A : ... .. . ... ... ... : ... .. . ... ... ... : ... .. . ... : ... .. . ... : ... .. . ... ...
ROW 3B : ... .. 7 ... ... ... : ... .. . ... ... ... : ... .. . ... : ... .. . ... : ... .. . ... ...
ROW 3C : ... .. . ... ... ... : ... .. . ... ... ... : ... .. . ... : ... .. . ... : ... .. . ... ...
ROW 3D : ... .. . ... ... ... : ... .. . ... ... ... : ... .. . ... : ... .. . ... : ... .. . ... ...
ROW 3E : ... .. . ... ... ... : ... .. . ... ... ... : ... .. . ... : ... .. . ... : ... .. . ... ...
ROW 3F : ... .. 6 P7E ... ... : ... .. . P7E ... ... : ... .. . P7F : ... .. . ... : ... .. . ... ...
ROW 40 : ... .. . ... ... ... : ... .. . ... ... ... : ... .. . ... : ... .. . ... : ... .. . ... ...
ROW 41 : ... .. . ... ... ... : ... .. . ... ... ... : ... .. . ... : ... .. . ... : ... .. . ... ...
ROW 42 : ... .. . ... ... ... : ... .. . ... ... ... : ... .. . ... : ... .. . ... : ... .. . ... ...
ROW 43 : ... .. . P80 ... ... : ... .. . P80 ... ... : ... .. . P81 : ... .. . ... : ... .. . ... ...
ROW 44 : ... .. . ... ... ... : ... .. 7 P7F ... ... : G#2 00 . P80 : ... .. C ... : ... .. . ... ...
ROW 45 : ... .. . ... ... ... : ... .. . ... ... ... : ... .. . ... : ... .. 0 ... : ... .. . ... ...
ROW 46 : ... .. . ... ... ... : ... .. 8 ... ... ... : ... .. . ... : ... .. . ... : ... .. . ... ...
ROW 47 : ... .. 5 P7E ... ... : ... .. . ... ... ... : ... .. . ... : ... .. . ... : ... .. . ... ...
ROW 48 : ... .. . ... ... ... : ... .. 9 ... ... ... : ... .. . ... : ... .. . ... : ... .. . ... ...
ROW 49 : ... .. . ... ... ... : ... .. . ... ... ... : ... .. . ... : ... .. . ... : ... .. . ... ...
ROW 4A : ... .. . ... ... ... : ... .. . ... ... ... : ... .. . ... : ... .. . ... : ... .. . ... ...
ROW 4B : ... .. . P80 ... ... : ... .. 8 ... ... ... : ... .. . ... : ... .. . ... : ... .. . ... ...
ROW 4C : ... .. 4 ... ... ... : ... .. . ... ... ... : --- .. . ... : ... .. . ... : ... .. . ... ...
ROW 4D : ... .. . ... ... ... : ... .. . ... ... ... : ... .. . ... : ... .. . ... : ... .. . ... ...
ROW 4E : ... .. . ... ... ... : ... .. . ... ... ... : G#2 00 . ... : ... .. C ... : ... .. . ... ...
ROW 4F : ... .. . P7E ... ... : ... .. 7 ... ... ... : ... .. . ... : ... .. 0 ... : ... .. . ... ...
ROW 50 : ... .. . ... ... ... : ... .. . ... ... ... : ... .. . ... : ... .. . ... : ... .. . ... ...
ROW 51 : ... .. . ... ... ... : ... .. . ... ... ... : ... .. . ... : ... .. . ... : ... .. . ... ...
ROW 52 : ... .. . ... ... ... : ... .. . ... ... ... : ... .. . ... : ... .. . ... : ... .. . ... ...
ROW 53 : ... .. . P80 ... ... : ... .. 6 P7E ... ... : ... .. . ... : ... .. . ... : ... .. . ... ...
ROW 54 : ... .. . ... ... ... : ... .. . ... ... ... : ... .. . ... : ... .. . ... : ... .. . ... ...
ROW 55 : ... .. . ... ... ... : ... .. . ... ... ... : ... .. . ... : ... .. . ... : ... .. . ... ...
ROW 56 : ... .. . ... ... ... : ... .. . ... ... ... : --- .. . ... : ... .. . ... : ... .. . ... ...
ROW 57 : ... .. . P7E ... ... : ... .. . P80 ... ... : ... .. . ... : ... .. . ... : ... .. . ... ...
ROW 58 : G#3 00 7 P7F ... ... : ... .. 7 P7F ... ... : G#2 00 . ... : ... .. C ... : ... .. . ... ...
ROW 59 : ... .. . ... ... ... : ... .. . ... ... ... : ... .. . ... : ... .. 0 ... : ... .. . ... ...
ROW 5A : ... .. 8 ... ... ... : ... .. 8 ... ... ... : ... .. . ... : ... .. . ... : ... .. . ... ...
ROW 5B : ... .. . ... ... ... : ... .. . ... ... ... : ... .. . ... : ... .. . ... : ... .. . ... ...
ROW 5C : ... .. 9 ... ... ... : ... .. 9 ... ... ... : ... .. . ... : ... .. . ... : ... .. . ... ...
ROW 5D : ... .. . ... ... ... : ... .. . ... ... ... : ... .. . ... : ... .. . ... : ... .. . ... ...
ROW 5E : ... .. . ... ... ... : ... .. . ... ... ... : ... .. . ... : ... .. . ... : ... .. . ... ...
ROW 5F : ... .. 8 ... ... ... : ... .. 8 ... ... ... : ... .. . ... : ... .. . ... : ... .. . ... ...
ROW 60 : ... .. . ... ... ... : ... .. . ... ... ... : --- .. . ... : ... .. . ... : ... .. . ... ...
ROW 61 : ... .. . ... ... ... : ... .. . ... ... ... : ... .. . ... : ... .. . ... : ... .. . ... ...
ROW 62 : ... .. . ... ... ... : ... .. . ... ... ... : ... .. . ... : ... .. . ... : ... .. . ... ...
ROW 63 : ... .. 7 ... ... ... : ... .. 7 ... ... ... : ... .. . ... : ... .. . ... : ... .. . ... ...
ROW 64 : ... .. . ... ... ... : ... .. . ... ... ... : ... .. . ... : ... .. . ... : ... .. . ... ...
ROW 65 : A#3 00 7 P80 ... ... : F#4 00 7 ... ... ... : ... .. . ... : ... .. . ... : ... .. . ... ...
ROW 66 : ... .. . ... ... ... : ... .. . ... ... ... : ... .. . ... : ... .. . ... : ... .. . ... ...
ROW 67 : ... .. 8 ... ... ... : ... .. 8 ... ... ... : ... .. . P7F : ... .. . ... : ... .. . ... ...
ROW 68 : ... .. . ... ... ... : ... .. . ... ... ... : ... .. . ... : ... .. . ... : ... .. . ... ...
ROW 69 : ... .. 9 ... ... ... : ... .. 9 ... ... ... : ... .. . ... : ... .. . ... : ... .. . ... ...
ROW 6A : ... .. . ... ... ... : ... .. . ... ... ... : ... .. . ... : ... .. . ... : ... .. . ... ...
ROW 6B : ... .. . ... ... ... : ... .. . ... ... ... : ... .. . P81 : ... .. . ... : ... .. . ... ...
ROW 6C : ... .. 8 ... ... ... : ... .. 8 ... ... ... : G#2 00 . P80 : ... .. C ... : ... .. . ... ...
ROW 6D : ... .. . ... ... ... : ... .. . ... ... ... : ... .. . ... : ... .. 0 ... : ... .. . ... ...
ROW 6E : ... .. . ... ... ... : ... .. . ... ... ... : ... .. . ... : ... .. . ... : ... .. . ... ...
ROW 6F : ... .. . ... ... ... : ... .. . ... ... ... : ... .. . ... : ... .. . ... : ... .. . ... ...
ROW 70 : ... .. 7 ... ... ... : ... .. 7 ... ... ... : ... .. . ... : ... .. . ... : ... .. . ... ...
ROW 71 : ... .. . ... ... ... : ... .. . ... ... ... : ... .. . ... : ... .. . ... : ... .. . ... ...
ROW 72 : C-4 00 7 ... ... ... : G#4 00 7 P80 ... ... : ... .. . ... : ... .. . ... : ... .. . ... ...
ROW 73 : ... .. . ... ... ... : ... .. . ... ... ... : ... .. . ... : ... .. . ... : ... .. . ... ...
ROW 74 : ... .. 8 ... ... ... : ... .. 8 ... ... ... : --- .. . ... : ... .. . ... : ... .. . ... ...
ROW 75 : ... .. . ... ... ... : ... .. . ... ... ... : ... .. . ... : ... .. . ... : ... .. . ... ...
ROW 76 : ... .. 9 ... ... ... : ... .. 9 ... ... ... : G#2 00 . ... : ... .. C ... : ... .. . ... ...
ROW 77 : ... .. . ... ... ... : ... .. . ... ... ... : ... .. . ... : ... .. 0 ... : ... .. . ... ...
ROW 78 : ... .. . ... ... ... : ... .. . ... ... ... : ... .. . ... : ... .. . ... : ... .. . ... ...
ROW 79 : ... .. 8 ... ... ... : ... .. 8 ... ... ... : ... .. . ... : ... .. . ... : ... .. . ... ...
ROW 7A : ... .. . ... ... ... : ... .. . ... ... ... : ... .. . ... : ... .. . ... : ... .. . ... ...
ROW 7B : ... .. . ... ... ... : ... .. . ... ... ... : ... .. . ... : ... .. . ... : ... .. . ... ...
ROW 7C : ... .. . ... ... ... : ... .. . ... ... ... : ... .. . ... : ... .. . ... : ... .. . ... ...
ROW 7D : ... .. 7 ... ... ... : ... .. 7 ... ... ... : ... .. . ... : ... .. . ... : ... .. . ... ...
ROW 7E : ... .. . ... ... ... : ... .. . ... ... ... : --- .. . ... : ... .. . ... : ... .. . ... ...
ROW 7F : ... .. . ... ... ... : ... .. . ... ... ... : ... .. . ... : ... .. . ... : ... .. . ... ...
ROW 80 : A#4 00 7 ... ... ... : C#4 00 7 ... ... ... : F#2 00 . ... : ... .. C ... : ... .. . ... ...
ROW 81 : ... .. . ... ... ... : ... .. . ... ... ... : ... .. . ... : ... .. 0 ... : ... .. . ... ...
ROW 82 : ... .. 8 ... ... ... : ... .. 8 ... ... ... : ... .. . ... : ... .. . ... : ... .. . ... ...
ROW 83 : ... .. . ... ... ... : ... .. . ... ... ... : ... .. . ... : ... .. . ... : ... .. . ... ...
ROW 84 : ... .. 9 ... ... ... : ... .. 9 ... ... ... : ... .. . ... : ... .. . ... : ... .. . ... ...
ROW 85 : ... .. . ... ... ... : ... .. . ... ... ... : ... .. . ... : ... .. . ... : ... .. . ... ...
ROW 86 : ... .. . ... ... ... : ... .. . ... ... ... : ... .. . ... : ... .. . ... : ... .. . ... ...
ROW 87 : ... .. 8 ... ... ... : ... .. 8 ... ... ... : ... .. . ... : ... .. . ... : ... .. . ... ...
ROW 88 : ... .. . ... ... ... : ... .. . ... ... ... : --- .. . ... : ... .. . ... : ... .. . ... ...
ROW 89 : ... .. . ... ... ... : ... .. . ... ... ... : ... .. . ... : ... .. . ... : ... .. . ... ...
ROW 8A : ... .. . ... ... ... : ... .. . ... ... ... : ... .. . ... : ... .. . ... : ... .. . ... ...
ROW 8B : ... .. 7 ... ... ... : ... .. 7 ... ... ... : ... .. . ... : ... .. . ... : ... .. . ... ...
ROW 8C : ... .. . ... ... ... : ... .. . ... ... ... : ... .. . ... : ... .. . ... : ... .. . ... ...
ROW 8D : ... .. . ... ... ... : ... .. . ... ... ... : ... .. . ... : ... .. . ... : ... .. . ... ...
ROW 8E : ... .. . ... ... ... : ... .. . ... ... ... : ... .. . ... : ... .. . ... : ... .. . ... ...
ROW 8F : ... .. 6 P7F ... ... : ... .. 6 P7F ... ... : ... .. . P7F : ... .. . ... : ... .. . ... ...
ROW 90 : ... .. . ... ... ... : ... .. . ... ... ... : ... .. . ... : ... .. . ... : ... .. . ... ...
ROW 91 : ... .. . ... ... ... : ... .. . ... ... ... : ... .. . ... : ... .. . ... : ... .. . ... ...
ROW 92 : ... .. . ... ... ... : ... .. . ... ... ... : ... .. . ... : ... .. . ... : ... .. . ... ...
ROW 93 : ... .. . P81 ... ... : ... .. . P81 ... ... : ... .. . P81 : ... .. . ... : ... .. . ... ...
ROW 94 : ... .. . ... ... ... : ... .. . ... ... ... : F#2 00 . P80 : ... .. C ... : ... .. . ... ...
ROW 95 : ... .. . ... ... ... : ... .. . ... ... ... : ... .. . ... : ... .. 0 ... : ... .. . ... ...
ROW 96 : ... .. . ... ... ... : ... .. . ... ... ... : ... .. . ... : ... .. . ... : ... .. . ... ...
ROW 97 : ... .. 5 P7F ... ... : ... .. 5 P7F ... ... : ... .. . ... : ... .. . ... : ... .. . ... ...
ROW 98 : ... .. . ... ... ... : ... .. . ... ... ... : ... .. . ... : ... .. . ... : ... .. . ... ...
ROW 99 : ... .. . ... ... ... : ... .. . ... ... ... : ... .. . ... : ... .. . ... : ... .. . ... ...
ROW 9A : ... .. . ... ... ... : ... .. . ... ... ... : ... .. . ... : ... .. . ... : ... .. . ... ...
ROW 9B : ... .. . P81 ... ... : ... .. . P81 ... ... : ... .. . ... : ... .. . ... : ... .. . ... ...
ROW 9C : ... .. 4 ... ... ... : ... .. 4 ... ... ... : --- .. . ... : ... .. . ... : ... .. . ... ...
ROW 9D : ... .. . ... ... ... : ... .. . ... ... ... : ... .. . ... : ... .. . ... : ... .. . ... ...
ROW 9E : ... .. . ... ... ... : ... .. . ... ... ... : F#2 00 . ... : ... .. C ... : ... .. . ... ...
ROW 9F : ... .. . P7F ... ... : ... .. . P7F ... ... : ... .. . ... : ... .. 0 ... : ... .. . ... ...
ROW A0 : ... .. . ... ... ... : ... .. . ... ... ... : ... .. . ... : ... .. . ... : ... .. . ... ...
ROW A1 : ... .. . ... ... ... : ... .. . ... ... ... : ... .. . ... : ... .. . ... : ... .. . ... ...
ROW A2 : ... .. . ... ... ... : ... .. . ... ... ... : ... .. . ... : ... .. . ... : ... .. . ... ...
ROW A3 : ... .. . P81 ... ... : ... .. . P81 ... ... : ... .. . ... : ... .. . ... : ... .. . ... ...
ROW A4 : ... .. . ... ... ... : ... .. . ... ... ... : ... .. . ... : ... .. . ... : ... .. . ... ...
ROW A5 : ... .. . ... ... ... : ... .. . ... ... ... : ... .. . ... : ... .. . ... : ... .. . ... ...
ROW A6 : ... .. . ... ... ... : ... .. . ... ... ... : --- .. . ... : ... .. . ... : ... .. . ... ...
ROW A7 : ... .. . P7F ... ... : ... .. . P7F ... ... : ... .. . ... : ... .. . ... : ... .. . ... ...
ROW A8 : ... .. . ... ... ... : ... .. . ... ... ... : F#2 00 . ... : ... .. C ... : ... .. . ... ...
ROW A9 : ... .. . ... ... ... : ... .. . ... ... ... : ... .. . ... : ... .. 0 ... : ... .. . ... ...
ROW AA : ... .. . ... ... ... : ... .. . ... ... ... : ... .. . ... : ... .. . ... : ... .. . ... ...
ROW AB : ... .. . P81 ... ... : ... .. . P81 ... ... : ... .. . ... : ... .. . ... : ... .. . ... ...
ROW AC : ... .. . ... ... ... : ... .. . ... ... ... : ... .. . ... : ... .. . ... : ... .. . ... ...
ROW AD : ... .. . ... ... ... : ... .. . ... ... ... : ... .. . ... : ... .. . ... : ... .. . ... ...
ROW AE : ... .. . ... ... ... : ... .. . ... ... ... : ... .. . ... : ... .. . ... : ... .. . ... ...
ROW AF : ... .. . P7F ... ... : ... .. . P7F ... ... : ... .. . ... : ... .. . ... : ... .. . ... ...
ROW B0 : ... .. . ... ... ... : ... .. . ... ... ... : --- .. . ... : ... .. . ... : ... .. . ... ...
ROW B1 : ... .. . ... ... ... : ... .. . ... ... ... : ... .. . ... : ... .. . ... : ... .. . ... ...
ROW B2 : ... .. . ... ... ... : ... .. . ... ... ... : ... .. . ... : ... .. . ... : ... .. . ... ...
ROW B3 : ... .. . P81 ... ... : ... .. . P81 ... ... : ... .. . ... : ... .. . ... : ... .. . ... ...
ROW B4 : ... .. . ... ... ... : ... .. . ... ... ... : ... .. . ... : ... .. . ... : ... .. . ... ...
ROW B5 : ... .. . ... ... ... : ... .. . ... ... ... : ... .. . ... : ... .. . ... : ... .. . ... ...
ROW B6 : ... .. . ... ... ... : ... .. . ... ... ... : ... .. . ... : ... .. . ... : ... .. . ... ...
ROW B7 : ... .. . P7F ... ... : ... .. . P7F ... ... : ... .. . P7F : ... .. . ... : ... .. . ... ...
ROW B8 : ... .. . ... ... ... : ... .. . ... ... ... : ... .. . ... : ... .. . ... : ... .. . ... ...
ROW B9 : ... .. . ... ... ... : ... .. . ... ... ... : ... .. . ... : ... .. . ... : ... .. . ... ...
ROW BA : ... .. . ... ... ... : ... .. . ... ... ... : ... .. . ... : ... .. . ... : ... .. . ... ...
ROW BB : ... .. . P81 ... ... : ... .. . P81 ... ... : ... .. . P81 : ... .. . ... : ... .. . ... ...
ROW BC : ... .. . ... ... ... : ... .. . ... ... ... : F#2 00 . P80 : ... .. C ... : ... .. . ... ...
ROW BD : ... .. . ... ... ... : ... .. . ... ... ... : ... .. . ... : ... .. 0 ... : ... .. . ... ...
ROW BE : ... .. . ... ... ... : ... .. . ... ... ... : ... .. . ... : ... .. . ... : ... .. . ... ...
ROW BF : ... .. . P7F ... ... : ... .. . P7F ... ... : ... .. . ... : ... .. . ... : ... .. . ... ...
ROW C0 : ... .. . ... ... ... : ... .. . ... ... ... : ... .. . ... : ... .. . ... : ... .. . ... ...
ROW C1 : ... .. . ... ... ... : ... .. . ... ... ... : ... .. . ... : ... .. . ... : ... .. . ... ...
ROW C2 : ... .. . ... ... ... : ... .. . ... ... ... : ... .. . ... : ... .. . ... : ... .. . ... ...
ROW C3 : ... .. . P81 ... ... : ... .. . P81 ... ... : ... .. . ... : ... .. . ... : ... .. . ... ...
ROW C4 : ... .. . ... ... ... : ... .. . ... ... ... : --- .. . ... : ... .. . ... : ... .. . ... ...
ROW C5 : ... .. . ... ... ... : ... .. . ... ... ... : ... .. . ... : ... .. . ... : ... .. . ... ...
ROW C6 : ... .. . ... ... ... : ... .. . ... ... ... : F#2 00 . ... : ... .. C ... : ... .. . ... ...
ROW C7 : ... .. . P7F ... ... : ... .. . P7F ... ... : ... .. . ... : ... .. 0 ... : ... .. . ... ...
ROW C8 : ... .. . ... ... ... : ... .. . ... ... ... : ... .. . ... : ... .. . ... : ... .. . ... ...
ROW C9 : ... .. . ... ... ... : ... .. . ... ... ... : ... .. . ... : ... .. . ... : ... .. . ... ...
ROW CA : ... .. . ... ... ... : ... .. . ... ... ... : ... .. . ... : ... .. . ... : ... .. . ... ...
ROW CB : ... .. . P81 ... ... : ... .. . P81 ... ... : ... .. . ... : ... .. . ... : ... .. . ... ...
ROW CC : ... .. . ... ... ... : ... .. . ... ... ... : ... .. . ... : ... .. . ... : ... .. . ... ...
ROW CD : ... .. . ... ... ... : ... .. . ... ... ... : ... .. . ... : ... .. . ... : ... .. . ... ...
ROW CE : ... .. . ... ... ... : ... .. . ... ... ... : --- .. . ... : ... .. . ... : ... .. . ... ...
ROW CF : ... .. . P7F ... ... : ... .. . P7F ... ... : ... .. . ... : ... .. . ... : ... .. . ... ...
ROW D0 : ... .. . P80 ... ... : ... .. . P80 ... ... : F#2 00 . ... : ... .. C ... : ... .. . ... ...
ROW D1 : ... .. . ... ... ... : ... .. . ... ... ... : ... .. . ... : ... .. 0 ... : ... .. . ... ...
ROW D2 : ... .. . ... ... ... : ... .. . ... ... ... : ... .. . ... : ... .. . ... : ... .. . ... ...
ROW D3 : ... .. . ... ... ... : ... .. . ... ... ... : ... .. . ... : ... .. . ... : ... .. . ... ...
ROW D4 : ... .. . ... ... ... : ... .. . ... ... ... : ... .. . ... : ... .. . ... : ... .. . ... ...
ROW D5 : ... .. . ... ... ... : ... .. . ... ... ... : ... .. . ... : ... .. . ... : ... .. . ... ...
ROW D6 : ... .. . ... ... ... : ... .. . ... ... ... : ... .. . ... : ... .. . ... : ... .. . ... ...
ROW D7 : ... .. . ... ... ... : ... .. . ... ... ... : ... .. . ... : ... .. . ... : ... .. . ... ...
ROW D8 : ... .. . ... ... ... : ... .. . ... ... ... : --- .. . ... : ... .. . ... : ... .. . ... ...
ROW D9 : ... .. . ... ... ... : ... .. . ... ... ... : ... .. . ... : ... .. . ... : ... .. . ... ...
ROW DA : ... .. . ... ... ... : ... .. . ... ... ... : ... .. . ... : ... .. . ... : ... .. . ... ...
ROW DB : ... .. . ... ... ... : ... .. . ... ... ... : ... .. . ... : ... .. . ... : ... .. . ... ...
ROW DC : ... .. . ... ... ... : ... .. . ... ... ... : ... .. . ... : ... .. . ... : ... .. . ... ...
ROW DD : ... .. . ... ... ... : ... .. . ... ... ... : ... .. . ... : ... .. . ... : ... .. . ... ...
ROW DE : ... .. . ... ... ... : ... .. . ... ... ... : ... .. . ... : ... .. . ... : ... .. . ... ...
ROW DF : ... .. . P7F ... ... : ... .. . P7F ... ... : ... .. . P7F : ... .. . ... : ... .. . ... ...
ROW E0 : ... .. . ... ... ... : ... .. . ... ... ... : ... .. . ... : ... .. . ... : ... .. . ... ...
ROW E1 : ... .. . ... ... ... : ... .. . ... ... ... : ... .. . ... : ... .. . ... : ... .. . ... ...
ROW E2 : ... .. . ... ... ... : ... .. . ... ... ... : ... .. . ... : ... .. . ... : ... .. . ... ...
ROW E3 : ... .. . P81 ... ... : ... .. . P81 ... ... : ... .. . P81 : ... .. . ... : ... .. . ... ...
ROW E4 : ... .. . ... ... ... : ... .. . ... ... ... : F#2 00 . P80 : ... .. C ... : ... .. . ... ...
ROW E5 : ... .. . ... ... ... : ... .. . ... ... ... : ... .. . ... : ... .. 0 ... : ... .. . ... ...
ROW E6 : ... .. . ... ... ... : ... .. . ... ... ... : ... .. . ... : ... .. . ... : ... .. . ... ...
ROW E7 : ... .. . P7F ... ... : ... .. . P7F ... ... : ... .. . ... : ... .. . ... : ... .. . ... ...
ROW E8 : ... .. . ... ... ... : ... .. . ... ... ... : ... .. . ... : ... .. . ... : ... .. . ... ...
ROW E9 : ... .. . ... ... ... : ... .. . ... ... ... : ... .. . ... : ... .. . ... : ... .. . ... ...
ROW EA : ... .. . ... ... ... : ... .. . ... ... ... : ... .. . ... : ... .. . ... : ... .. . ... ...
ROW EB : ... .. . P81 ... ... : ... .. . P81 ... ... : ... .. . ... : ... .. . ... : ... .. . ... ...
ROW EC : ... .. . ... ... ... : ... .. . ... ... ... : --- .. . ... : ... .. . ... : ... .. . ... ...
ROW ED : ... .. . ... ... ... : ... .. . ... ... ... : ... .. . ... : ... .. . ... : ... .. . ... ...
ROW EE : ... .. . ... ... ... : ... .. . ... ... ... : F#2 00 . ... : ... .. C ... : ... .. . ... ...
ROW EF : ... .. . P7F ... ... : ... .. . P7F ... ... : ... .. . ... : ... .. 0 ... : ... .. . ... ...
ROW F0 : ... .. . ... ... ... : ... .. . ... ... ... : ... .. . ... : ... .. . ... : ... .. . ... ...
ROW F1 : ... .. . ... ... ... : ... .. . ... ... ... : ... .. . ... : ... .. . ... : ... .. . ... ...
ROW F2 : ... .. . ... ... ... : ... .. . ... ... ... : ... .. . ... : ... .. . ... : ... .. . ... ...
ROW F3 : ... .. . P81 ... ... : ... .. . P81 ... ... : ... .. . ... : ... .. . ... : ... .. . ... ...
ROW F4 : ... .. . ... ... ... : ... .. . ... ... ... : ... .. . ... : ... .. . ... : ... .. . ... ...
ROW F5 : ... .. . ... ... ... : ... .. . ... ... ... : ... .. . ... : ... .. . ... : ... .. . ... ...
ROW F6 : ... .. . ... ... ... : ... .. . ... ... ... : --- .. . ... : ... .. . ... : ... .. . ... ...
ROW F7 : ... .. . P7F ... ... : ... .. . P7F ... ... : ... .. . ... : ... .. . ... : ... .. . ... ...
ROW F8 : C#5 00 7 P80 ... ... : E-4 00 7 P80 ... ... : F#2 00 . ... : ... .. C ... : ... .. . ... ...
ROW F9 : ... .. . ... ... ... : ... .. . ... ... ... : ... .. . ... : ... .. 0 ... : ... .. . ... ...
ROW FA : ... .. 8 ... ... ... : ... .. 8 ... ... ... : ... .. . ... : ... .. . ... : ... .. . ... ...
ROW FB : ... .. . ... ... ... : ... .. . ... ... ... : ... .. . ... : ... .. . ... : ... .. . ... ...
ROW FC : ... .. 9 ... ... ... : ... .. 9 ... ... ... : ... .. . ... : ... .. . ... : ... .. . ... ...
ROW FD : ... .. . ... ... ... : ... .. . ... ... ... : ... .. . ... : ... .. . ... : ... .. . ... ...
ROW FE : ... .. . ... ... ... : ... .. . ... ... ... : ... .. . ... : ... .. . ... : ... .. . ... ...
ROW FF : ... .. 8 ... ... ... : ... .. 8 ... ... ... : ... .. . ... : ... .. . ... : ... .. . ... ...

PATTERN 0D
ROW 00 : ... .. . ... ... ... : ... .. . ... ... ... : --- .. . ... : ... .. . ... : ... .. . ... ...
ROW 01 : ... .. . ... ... ... : ... .. . ... ... ... : ... .. . ... : ... .. . ... : ... .. . ... ...
ROW 02 : ... .. . ... ... ... : ... .. . ... ... ... : ... .. . ... : ... .. . ... : ... .. . ... ...
ROW 03 : ... .. 7 ... ... ... : ... .. 7 ... ... ... : ... .. . ... : ... .. . ... : ... .. . ... ...
ROW 04 : ... .. . ... ... ... : ... .. . ... ... ... : ... .. . ... : ... .. . ... : ... .. . ... ...
ROW 05 : ... .. . ... ... ... : ... .. . ... ... ... : ... .. . ... : ... .. . ... : ... .. . ... ...
ROW 06 : ... .. . ... ... ... : ... .. . ... ... ... : ... .. . ... : ... .. . ... : ... .. . ... ...
ROW 07 : ... .. 6 P7F ... ... : ... .. 6 P7F ... ... : ... .. . P7F : ... .. . ... : ... .. . ... ...
ROW 08 : ... .. . ... ... ... : ... .. . ... ... ... : ... .. . ... : ... .. . ... : ... .. . ... ...
ROW 09 : ... .. . ... ... ... : ... .. . ... ... ... : ... .. . ... : ... .. . ... : ... .. . ... ...
ROW 0A : ... .. . ... ... ... : ... .. . ... ... ... : ... .. . ... : ... .. . ... : ... .. . ... ...
ROW 0B : ... .. . P81 ... ... : ... .. . P81 ... ... : ... .. . P81 : ... .. . ... : ... .. . ... ...
ROW 0C : ... .. . ... ... ... : ... .. . ... ... ... : F#2 00 . P80 : ... .. C ... : ... .. . ... ...
ROW 0D : ... .. . ... ... ... : ... .. . ... ... ... : ... .. . ... : ... .. 0 ... : ... .. . ... ...
ROW 0E : ... .. . ... ... ... : ... .. . ... ... ... : ... .. . ... : ... .. . ... : ... .. . ... ...
ROW 0F : ... .. 5 P7F ... ... : ... .. 5 P7F ... ... : ... .. . ... : ... .. . ... : ... .. . ... ...
ROW 10 : ... .. . ... ... ... : ... .. . ... ... ... : ... .. . ... : ... .. . ... : ... .. . ... ...
ROW 11 : ... .. . ... ... ... : ... .. . ... ... ... : ... .. . ... : ... .. . ... : ... .. . ... ...
ROW 12 : ... .. . ... ... ... : ... .. . ... ... ... : ... .. . ... : ... .. . ... : ... .. . ... ...
ROW 13 : ... .. . P81 ... ... : ... .. . P81 ... ... : ... .. . ... : ... .. . ... : ... .. . ... ...
ROW 14 : ... .. 4 ... ... ... : ... .. 4 ... ... ... : --- .. . ... : ... .. . ... : ... .. . ... ...
ROW 15 : ... .. . ... ... ... : ... .. . ... ... ... : ... .. . ... : ... .. . ... : ... .. . ... ...
ROW 16 : ... .. . ... ... ... : ... .. . ... ... ... : F#2 00 . ... : ... .. C ... : ... .. . ... ...
ROW 17 : ... .. . P7F ... ... : ... .. . P7F ... ... : ... .. . ... : ... .. 0 ... : ... .. . ... ...
ROW 18 : ... .. . ... ... ... : ... .. . ... ... ... : ... .. . ... : ... .. . ... : ... .. . ... ...
ROW 19 : ... .. . ... ... ... : ... .. . ... ... ... : ... .. . ... : ... .. . ... : ... .. . ... ...
ROW 1A : ... .. . ... ... ... : ... .. . ... ... ... : ... .. . ... : ... .. . ... : ... .. . ... ...
ROW 1B : ... .. . P81 ... ... : ... .. . P81 ... ... : ... .. . ... : ... .. . ... : ... .. . ... ...
ROW 1C : ... .. . ... ... ... : ... .. . ... ... ... : ... .. . ... : ... .. . ... : ... .. . ... ...
ROW 1D : ... .. . ... ... ... : ... .. . ... ... ... : ... .. . ... : ... .. . ... : ... .. . ... ...
ROW 1E : ... .. . ... ... ... : ... .. . ... ... ... : --- .. . ... : ... .. . ... : ... .. . ... ...
ROW 1F : ... .. . P7F ... ... : ... .. . P7F ... ... : ... .. . ... : ... .. . ... : ... .. . ... ...
ROW 20 : C-5 00 7 P80 ... ... : D#4 00 7 P80 ... ... : F-2 00 . ... : ... .. C ... : ... .. . ... ...
ROW 21 : ... .. . ... ... ... : ... .. . ... ... ... : ... .. . ... : ... .. 0 ... : ... .. . ... ...
ROW 22 : ... .. 8 ... ... ... : ... .. 8 ... ... ... : ... .. . ... : ... .. . ... : ... .. . ... ...
ROW 23 : ... .. . ... ... ... : ... .. . ... ... ... : ... .. . ... : ... .. . ... : ... .. . ... ...
ROW 24 : ... .. 9 ... ... ... : ... .. 9 ... ... ... : ... .. . ... : ... .. . ... : ... .. . ... ...
ROW 25 : ... .. . ... ... ... : ... .. . ... ... ... : ... .. . ... : ... .. . ... : ... .. . ... ...
ROW 26 : ... .. . ... ... ... : ... .. . ... ... ... : ... .. . ... : ... .. . ... : ... .. . ... ...
ROW 27 : ... .. 8 ... ... ... : ... .. 8 ... ... ... : ... .. . ... : ... .. . ... : ... .. . ... ...
ROW 28 : ... .. . ... ... ... : ... .. . ... ... ... : --- .. . ... : ... .. . ... : ... .. . ... ...
ROW 29 : ... .. . ... ... ... : ... .. . ... ... ... : ... .. . ... : ... .. . ... : ... .. . ... ...
ROW 2A : ... .. . ... ... ... : ... .. . ... ... ... : ... .. . ... : ... .. . ... : ... .. . ... ...
ROW 2B : ... .. 7 ... ... ... : ... .. 7 ... ... ... : ... .. . ... : ... .. . ... : ... .. . ... ...
ROW 2C : ... .. . ... ... ... : ... .. . ... ... ... : ... .. . ... : ... .. . ... : ... .. . ... ...
ROW 2D : ... .. . ... ... ... : ... .. . ... ... ... : ... .. . ... : ... .. . ... : ... .. . ... ...
ROW 2E : ... .. . ... ... ... : ... .. . ... ... ... : ... .. . ... : ... .. . ... : ... .. . ... ...
ROW 2F : ... .. 6 P7F ... ... : ... .. 6 P7F ... ... : ... .. . P7F : ... .. . ... : ... .. . ... ...
ROW 30 : ... .. . ... ... ... : ... .. . ... ... ... : ... .. . ... : ... .. . ... : ... .. . ... ...
ROW 31 : ... .. . ... ... ... : ... .. . ... ... ... : ... .. . ... : ... .. . ... : ... .. . ... ...
ROW 32 : ... .. . ... ... ... : ... .. . ... ... ... : ... .. . ... : ... .. . ... : ... .. . ... ...
ROW 33 : ... .. . P81 ... ... : ... .. . P81 ... ... : ... .. . P81 : ... .. . ... : ... .. . ... ...
ROW 34 : ... .. 4 P80 ... ... : ... .. 4 P80 ... ... : F-2 00 . P80 : ... .. C ... : ... .. . ... ...
ROW 35 : ... .. . ... ... ... : ... .. . ... ... ... : ... .. . ... : ... .. 0 ... : ... .. . ... ...
ROW 36 : ... .. . ... ... ... : ... .. . ... ... ... : ... .. . ... : ... .. . ... : ... .. . ... ...
ROW 37 : ... .. . ... ... ... : ... .. . ... ... ... : ... .. . ... : ... .. . ... : ... .. . ... ...
ROW 38 : ... .. . ... ... ... : ... .. . ... ... ... : ... .. . ... : ... .. . ... : ... .. . ... ...
ROW 39 : ... .. . ... ... ... : ... .. . ... ... ... : ... .. . ... : ... .. . ... : ... .. . ... ...
ROW 3A : ... .. . ... ... ... : ... .. . ... ... ... : ... .. . ... : ... .. . ... : ... .. . ... ...
ROW 3B : ... .. . ... ... ... : ... .. . ... ... ... : ... .. . ... : ... .. . ... : ... .. . ... ...
ROW 3C : ... .. . ... ... ... : ... .. . ... ... ... : --- .. . ... : ... .. . ... : ... .. . ... ...
ROW 3D : ... .. . ... ... ... : ... .. . ... ... ... : ... .. . ... : ... .. . ... : ... .. . ... ...
ROW 3E : ... .. . ... ... ... : ... .. . ... ... ... : F-2 00 . ... : ... .. C ... : ... .. . ... ...
ROW 3F : ... .. . ... ... ... : ... .. . ... ... ... : ... .. . ... : ... .. 0 ... : ... .. . ... ...
ROW 40 : ... .. . ... ... ... : ... .. . ... ... ... : ... .. . ... : ... .. . ... : ... .. . ... ...
ROW 41 : ... .. . ... ... ... : ... .. . ... ... ... : ... .. . ... : ... .. . ... : ... .. . ... ...
ROW 42 : ... .. . ... ... ... : ... .. . ... ... ... : ... .. . ... : ... .. . ... : ... .. . ... ...
ROW 43 : ... .. . P7F ... ... : ... .. . P7F ... ... : ... .. . ... : ... .. . ... : ... .. . ... ...
ROW 44 : ... .. . ... ... ... : ... .. . ... ... ... : ... .. . ... : ... .. . ... : ... .. . ... ...
ROW 45 : ... .. . ... ... ... : ... .. . ... ... ... : ... .. . ... : ... .. . ... : ... .. . ... ...
ROW 46 : ... .. . ... ... ... : ... .. . ... ... ... : --- .. . ... : ... .. . ... : ... .. . ... ...
ROW 47 : ... .. . P81 ... ... : ... .. . P81 ... ... : ... .. . ... : ... .. . ... : ... .. . ... ...
ROW 48 : A-4 00 7 P80 ... ... : C-4 00 7 P80 ... ... : F-2 00 . ... : ... .. C ... : ... .. . ... ...
ROW 49 : ... .. . ... ... ... : ... .. . ... ... ... : ... .. . ... : ... .. 0 ... : ... .. . ... ...
ROW 4A : ... .. 8 ... ... ... : ... .. 8 ... ... ... : ... .. . ... : ... .. . ... : ... .. . ... ...
ROW 4B : ... .. . ... ... ... : ... .. . ... ... ... : ... .. . ... : ... .. . ... : ... .. . ... ...
ROW 4C : ... .. 9 ... ... ... : ... .. 9 ... ... ... : ... .. . ... : ... .. . ... : ... .. . ... ...
ROW 4D : ... .. . ... ... ... : ... .. . ... ... ... : ... .. . ... : ... .. . ... : ... .. . ... ...
ROW 4E : ... .. . ... ... ... : ... .. . ... ... ... : ... .. . ... : ... .. . ... : ... .. . ... ...
ROW 4F : ... .. 8 ... ... ... : ... .. 8 ... ... ... : ... .. . ... : ... .. . ... : ... .. . ... ...
ROW 50 : ... .. . ... ... ... : ... .. . ... ... ... : --- .. . ... : ... .. . ... : ... .. . ... ...
ROW 51 : ... .. . ... ... ... : ... .. . ... ... ... : ... .. . ... : ... .. . ... : ... .. . ... ...
ROW 52 : ... .. . ... ... ... : ... .. . ... ... ... : ... .. . ... : ... .. . ... : ... .. . ... ...
ROW 53 : ... .. 7 ... ... ... : ... .. 7 ... ... ... : ... .. . ... : ... .. . ... : ... .. . ... ...
ROW 54 : ... .. . ... ... ... : ... .. . ... ... ... : ... .. . ... : ... .. . ... : ... .. . ... ...
ROW 55 : ... .. . ... ... ... : ... .. . ... ... ... : ... .. . ... : ... .. . ... : ... .. . ... ...
ROW 56 : ... .. . ... ... ... : ... .. . ... ... ... : ... .. . ... : ... .. . ... : ... .. . ... ...
ROW 57 : ... .. 6 P7F ... ... : ... .. 6 P7F ... ... : ... .. . P7F : ... .. . ... : ... .. . ... ...
ROW 58 : ... .. . ... ... ... : ... .. . ... ... ... : ... .. . ... : ... .. . ... : ... .. . ... ...
ROW 59 : ... .. . ... ... ... : ... .. . ... ... ... : ... .. . ... : ... .. . ... : ... .. . ... ...
ROW 5A : ... .. . ... ... ... : ... .. . ... ... ... : ... .. . ... : ... .. . ... : ... .. . ... ...
ROW 5B : ... .. . P81 ... ... : ... .. . P81 ... ... : ... .. . P81 : ... .. . ... : ... .. . ... ...
ROW 5C : ... .. . ... ... ... : ... .. . ... ... ... : F-2 00 . P80 : ... .. C ... : ... .. . ... ...
ROW 5D : ... .. . ... ... ... : ... .. . ... ... ... : ... .. . ... : ... .. 0 ... : ... .. . ... ...
ROW 5E : ... .. . ... ... ... : ... .. . ... ... ... : ... .. . ... : ... .. . ... : ... .. . ... ...
ROW 5F : ... .. 5 P7F ... ... : ... .. 5 P7F ... ... : ... .. . ... : ... .. . ... : ... .. . ... ...
ROW 60 : ... .. . ... ... ... : ... .. . ... ... ... : ... .. . ... : ... .. . ... : ... .. . ... ...
ROW 61 : ... .. . ... ... ... : ... .. . ... ... ... : ... .. . ... : ... .. . ... : ... .. . ... ...
ROW 62 : ... .. . ... ... ... : ... .. . ... ... ... : ... .. . ... : ... .. . ... : ... .. . ... ...
ROW 63 : ... .. . P81 ... ... : ... .. . P81 ... ... : ... .. . ... : ... .. . ... : ... .. . ... ...
ROW 64 : ... .. 4 ... ... ... : ... .. 4 ... ... ... : --- .. . ... : ... .. . ... : ... .. . ... ...
ROW 65 : ... .. . ... ... ... : ... .. . ... ... ... : ... .. . ... : ... .. . ... : ... .. . ... ...
ROW 66 : ... .. . ... ... ... : ... .. . ... ... ... : F-2 00 . ... : ... .. C ... : ... .. . ... ...
ROW 67 : ... .. . P7F ... ... : ... .. . P7F ... ... : ... .. . ... : ... .. 0 ... : ... .. . ... ...
ROW 68 : ... .. . ... ... ... : ... .. . ... ... ... : ... .. . ... : ... .. . ... : ... .. . ... ...
ROW 69 : ... .. . ... ... ... : ... .. . ... ... ... : ... .. . ... : ... .. . ... : ... .. . ... ...
ROW 6A : ... .. . ... ... ... : ... .. . ... ... ... : ... .. . ... : ... .. . ... : ... .. . ... ...
ROW 6B : ... .. . P81 ... ... : ... .. . P81 ... ... : ... .. . ... : ... .. . ... : ... .. . ... ...
ROW 6C : ... .. . ... ... ... : ... .. . ... ... ... : ... .. . ... : ... .. . ... : ... .. . ... ...
ROW 6D : ... .. . ... ... ... : ... .. . ... ... ... : ... .. . ... : ... .. . ... : ... .. . ... ...
ROW 6E : ... .. . ... ... ... : ... .. . ... ... ... : --- .. . ... : ... .. . ... : ... .. . ... ...
ROW 6F : ... .. . P7F ... ... : ... .. . P7F ... ... : ... .. . ... : ... .. . ... : ... .. . ... ...
ROW 70 : ... .. . ... ... ... : ... .. . ... ... ... : F-2 00 . ... : ... .. C ... : ... .. . ... ...
ROW 71 : ... .. . ... ... ... : ... .. . ... ... ... : ... .. . ... : ... .. 0 ... : ... .. . ... ...
ROW 72 : ... .. . ... ... ... : ... .. . ... ... ... : ... .. . ... : ... .. . ... : ... .. . ... ...
ROW 73 : ... .. . P81 ... ... : ... .. . P81 ... ... : ... .. . ... : ... .. . ... : ... .. . ... ...
ROW 74 : ... .. . ... ... ... : ... .. . ... ... ... : ... .. . ... : ... .. . ... : ... .. . ... ...
ROW 75 : ... .. . ... ... ... : ... .. . ... ... ... : ... .. . ... : ... .. . ... : ... .. . ... ...
ROW 76 : ... .. . ... ... ... : ... .. . ... ... ... : ... .. . ... : ... .. . ... : ... .. . ... ...
ROW 77 : ... .. . P7F ... ... : ... .. . P7F ... ... : ... .. . ... : ... .. . ... : ... .. . ... ...
ROW 78 : ... .. . ... ... ... : ... .. . ... ... ... : --- .. . ... : ... .. . ... : ... .. . ... ...
ROW 79 : ... .. . ... ... ... : ... .. . ... ... ... : ... .. . ... : ... .. . ... : ... .. . ... ...
ROW 7A : ... .. . ... ... ... : ... .. . ... ... ... : ... .. . ... : ... .. . ... : ... .. . ... ...
ROW 7B : ... .. . P81 ... ... : ... .. . P81 ... ... : ... .. . ... : ... .. . ... : ... .. . ... ...
ROW 7C : ... .. . ... ... ... : ... .. . ... ... ... : ... .. . ... : ... .. . ... : ... .. . ... ...
ROW 7D : ... .. . ... ... ... : ... .. . ... ... ... : ... .. . ... : ... .. . ... : ... .. . ... ...
ROW 7E : ... .. . ... ... ... : ... .. . ... ... ... : ... .. . ... : ... .. . ... : ... .. . ... ...
ROW 7F : ... .. . P7F ... ... : ... .. . P7F ... ... : ... .. . P7F : ... .. . ... : ... .. . ... ...
ROW 80 : ... .. . ... ... ... : ... .. . ... ... ... : ... .. . ... : ... .. . ... : ... .. . ... ...
ROW 81 : ... .. . ... ... ... : ... .. . ... ... ... : ... .. . ... : ... .. . ... : ... .. . ... ...
ROW 82 : ... .. . ... ... ... : ... .. . ... ... ... : ... .. . ... : ... .. . ... : ... .. . ... ...
ROW 83 : ... .. . P81 ... ... : ... .. . P81 ... ... : ... .. . P81 : ... .. . ... : ... .. . ... ...
ROW 84 : ... .. . ... ... ... : ... .. . ... ... ... : F-2 00 . P80 : ... .. C ... : ... .. . ... ...
ROW 85 : ... .. . ... ... ... : ... .. . ... ... ... : ... .. . ... : ... .. 0 ... : ... .. . ... ...
ROW 86 : ... .. . ... ... ... : ... .. . ... ... ... : ... .. . ... : ... .. . ... : ... .. . ... ...
ROW 87 : ... .. . P7F ... ... : ... .. . P7F ... ... : ... .. . ... : ... .. . ... : ... .. . ... ...
ROW 88 : ... .. . ... ... ... : ... .. . ... ... ... : ... .. . ... : ... .. . ... : ... .. . ... ...
ROW 89 : ... .. . ... ... ... : ... .. . ... ... ... : ... .. . ... : ... .. . ... : ... .. . ... ...
ROW 8A : ... .. . ... ... ... : ... .. . ... ... ... : ... .. . ... : ... .. . ... : ... .. . ... ...
ROW 8B : ... .. . P81 ... ... : ... .. . P81 ... ... : ... .. . ... : ... .. . ... : ... .. . ... ...
ROW 8C : ... .. . ... ... ... : ... .. . ... ... ... : --- .. . ... : ... .. . ... : ... .. . ... ...
ROW 8D : ... .. . ... ... ... : ... .. . ... ... ... : ... .. . ... : ... .. . ... : ... .. . ... ...
ROW 8E : ... .. . ... ... ... : ... .. . ... ... ... : F-2 00 . ... : ... .. C ... : ... .. . ... ...
ROW 8F : ... .. . P7F ... ... : ... .. . P7F ... ... : ... .. . ... : ... .. 0 ... : ... .. . ... ...
ROW 90 : ... .. . ... ... ... : ... .. . ... ... ... : ... .. . ... : ... .. . ... : ... .. . ... ...
ROW 91 : ... .. . ... ... ... : ... .. . ... ... ... : ... .. . ... : ... .. . ... : ... .. . ... ...
ROW 92 : ... .. . ... ... ... : ... .. . ... ... ... : ... .. . ... : ... .. . ... : ... .. . ... ...
ROW 93 : ... .. . P81 ... ... : ... .. . P81 ... ... : ... .. . ... : ... .. . ... : ... .. . ... ...
ROW 94 : ... .. . ... ... ... : ... .. . ... ... ... : ... .. . ... : ... .. . ... : ... .. . ... ...
ROW 95 : ... .. . ... ... ... : ... .. . ... ... ... : ... .. . ... : ... .. . ... : ... .. . ... ...
ROW 96 : ... .. . ... ... ... : ... .. . ... ... ... : --- .. . ... : ... .. . ... : ... .. . ... ...
ROW 97 : ... .. . P7F ... ... : ... .. . P7F ... ... : ... .. . ... : ... .. . ... : ... .. . ... ...
ROW 98 : F-4 00 7 ... ... ... : A-3 00 7 ... ... ... : F-2 00 . ... : ... .. C ... : ... .. . ... ...
ROW 99 : ... .. . ... ... ... : ... .. . ... ... ... : ... .. . ... : ... .. 0 ... : ... .. . ... ...
ROW 9A : ... .. 8 ... ... ... : ... .. 8 ... ... ... : ... .. . ... : ... .. . ... : ... .. . ... ...
ROW 9B : ... .. . ... ... ... : ... .. . ... ... ... : ... .. . ... : ... .. . ... : ... .. . ... ...
ROW 9C : ... .. 9 ... ... ... : ... .. 9 ... ... ... : ... .. . ... : ... .. . ... : ... .. . ... ...
ROW 9D : ... .. . ... ... ... : ... .. . ... ... ... : ... .. . ... : ... .. . ... : ... .. . ... ...
ROW 9E : ... .. . ... ... ... : ... .. . ... ... ... : ... .. . ... : ... .. . ... : ... .. . ... ...
ROW 9F : ... .. 8 ... ... ... : ... .. 8 ... ... ... : ... .. . ... : ... .. . ... : ... .. . ... ...
ROW A0 : ... .. . ... ... ... : ... .. . ... ... ... : --- .. . ... : ... .. . ... : ... .. . ... ...
ROW A1 : ... .. . ... ... ... : ... .. . ... ... ... : ... .. . ... : ... .. . ... : ... .. . ... ...
ROW A2 : ... .. . ... ... ... : ... .. . ... ... ... : ... .. . ... : ... .. . ... : ... .. . ... ...
ROW A3 : ... .. 7 ... ... ... : ... .. 7 ... ... ... : ... .. . ... : ... .. . ... : ... .. . ... ...
ROW A4 : ... .. . ... ... ... : ... .. . ... ... ... : ... .. . ... : ... .. . ... : ... .. . ... ...
ROW A5 : ... .. . ... ... ... : ... .. . ... ... ... : ... .. . ... : ... .. . ... : ... .. . ... ...
ROW A6 : ... .. . ... ... ... : ... .. . ... ... ... : ... .. . ... : ... .. . ... : ... .. . ... ...
ROW A7 : ... .. 6 P7E ... ... : ... .. 6 P7E ... ... : ... .. . P7F : ... .. . ... : ... .. . ... ...
ROW A8 : ... .. . ... ... ... : ... .. . ... ... ... : ... .. . ... : ... .. . ... : ... .. . ... ...
ROW A9 : ... .. . ... ... ... : ... .. . ... ... ... : ... .. . ... : ... .. . ... : ... .. . ... ...
ROW AA : ... .. . ... ... ... : ... .. . ... ... ... : ... .. . ... : ... .. . ... : ... .. . ... ...
ROW AB : ... .. . P80 ... ... : ... .. . P80 ... ... : ... .. . P81 : ... .. . ... : ... .. . ... ...
ROW AC : ... .. . ... ... ... : ... .. . ... ... ... : F-2 00 . P80 : ... .. C ... : ... .. . ... ...
ROW AD : ... .. . ... ... ... : ... .. . ... ... ... : ... .. . ... : ... .. 0 ... : ... .. . ... ...
ROW AE : ... .. . ... ... ... : ... .. . ... ... ... : ... .. . ... : ... .. . ... : ... .. . ... ...
ROW AF : ... .. 5 P7E ... ... : ... .. 5 P7E ... ... : ... .. . ... : ... .. . ... : ... .. . ... ...
ROW B0 : ... .. . ... ... ... : ... .. . ... ... ... : ... .. . ... : ... .. . ... : ... .. . ... ...
ROW B1 : ... .. . ... ... ... : ... .. . ... ... ... : ... .. . ... : ... .. . ... : ... .. . ... ...
ROW B2 : ... .. . ... ... ... : ... .. . ... ... ... : ... .. . ... : ... .. . ... : ... .. . ... ...
ROW B3 : ... .. . P80 ... ... : ... .. . P80 ... ... : ... .. . ... : ... .. . ... : ... .. . ... ...
ROW B4 : ... .. 4 ... ... ... : ... .. 4 ... ... ... : --- .. . ... : ... .. . ... : ... .. . ... ...
ROW B5 : ... .. . ... ... ... : ... .. . ... ... ... : ... .. . ... : ... .. . ... : ... .. . ... ...
ROW B6 : ... .. . ... ... ... : ... .. . ... ... ... : F-2 00 . ... : ... .. C ... : ... .. . ... ...
ROW B7 : ... .. . P7E ... ... : ... .. . P7E ... ... : ... .. . ... : ... .. 0 ... : ... .. . ... ...
ROW B8 : ... .. . ... ... ... : ... .. . ... ... ... : ... .. . ... : ... .. . ... : ... .. . ... ...
ROW B9 : ... .. . ... ... ... : ... .. . ... ... ... : ... .. . ... : ... .. . ... : ... .. . ... ...
ROW BA : ... .. . ... ... ... : ... .. . ... ... ... : ... .. . ... : ... .. . ... : ... .. . ... ...
ROW BB : ... .. . P80 ... ... : ... .. . P80 ... ... : ... .. . ... : ... .. . ... : ... .. . ... ...
ROW BC : ... .. . ... ... ... : ... .. . ... ... ... : ... .. . ... : ... .. . ... : ... .. . ... ...
ROW BD : ... .. . ... ... ... : ... .. . ... ... ... : ... .. . ... : ... .. . ... : ... .. . ... ...
ROW BE : ... .. . ... ... ... : ... .. . ... ... ... : --- .. . ... : ... .. . ... : ... .. . ... ...
ROW BF : ... .. . P7E ... ... : ... .. . P7E ... ... : ... .. . ... : ... .. . ... : ... .. . ... ...
ROW C0 : F#4 00 7 P7F ... ... : E-1 00 7 P7F ... ... : E-2 00 . ... : ... .. C ... : ... .. . ... ...
ROW C1 : ... .. . ... ... ... : ... .. . ... ... ... : ... .. . ... : ... .. 0 ... : ... .. . ... ...
ROW C2 : ... .. 8 ... ... ... : ... .. 8 ... ... ... : ... .. . ... : ... .. . ... : ... .. . ... ...
ROW C3 : ... .. . ... ... ... : ... .. . ... ... ... : ... .. . ... : ... .. . ... : ... .. . ... ...
ROW C4 : ... .. 9 ... ... ... : ... .. 9 ... ... ... : ... .. . ... : ... .. . ... : ... .. . ... ...
ROW C5 : ... .. . ... ... ... : ... .. . ... ... ... : ... .. . ... : ... .. . ... : ... .. . ... ...
ROW C6 : ... .. . ... ... ... : ... .. . ... ... ... : ... .. . ... : ... .. . ... : ... .. . ... ...
ROW C7 : ... .. 8 ... ... ... : ... .. 8 ... ... ... : ... .. . ... : ... .. . ... : ... .. . ... ...
ROW C8 : ... .. . ... ... ... : ... .. . ... ... ... : --- .. . ... : ... .. . ... : ... .. . ... ...
ROW C9 : ... .. . ... ... ... : ... .. . ... ... ... : ... .. . ... : ... .. . ... : ... .. . ... ...
ROW CA : ... .. . ... ... ... : ... .. . ... ... ... : ... .. . ... : ... .. . ... : ... .. . ... ...
ROW CB : ... .. 7 ... ... ... : ... .. 7 ... ... ... : ... .. . ... : ... .. . ... : ... .. . ... ...
ROW CC : ... .. . ... ... ... : ... .. . ... ... ... : ... .. . ... : ... .. . ... : ... .. . ... ...
ROW CD : ... .. . ... ... ... : A#1 00 7 P80 ... ... : ... .. . ... : ... .. . ... : ... .. . ... ...
ROW CE : ... .. . ... ... ... : ... .. . ... ... ... : ... .. . ... : ... .. . ... : ... .. . ... ...
ROW CF : ... .. 6 P7E ... ... : ... .. 8 ... ... ... : ... .. . P7F : ... .. . ... : ... .. . ... ...
ROW D0 : ... .. . ... ... ... : ... .. . ... ... ... : ... .. . ... : ... .. . ... : ... .. . ... ...
ROW D1 : ... .. . ... ... ... : ... .. 9 ... ... ... : ... .. . ... : ... .. . ... : ... .. . ... ...
ROW D2 : ... .. . ... ... ... : ... .. . ... ... ... : ... .. . ... : ... .. . ... : ... .. . ... ...
ROW D3 : ... .. . P80 ... ... : ... .. . ... ... ... : ... .. . P81 : ... .. . ... : ... .. . ... ...
ROW D4 : ... .. . ... ... ... : ... .. 8 ... ... ... : E-2 00 . P80 : ... .. C ... : ... .. . ... ...
ROW D5 : ... .. . ... ... ... : ... .. . ... ... ... : ... .. . ... : ... .. 0 ... : ... .. . ... ...
ROW D6 : ... .. . ... ... ... : ... .. . ... ... ... : ... .. . ... : ... .. . ... : ... .. . ... ...
ROW D7 : ... .. 5 P7E ... ... : ... .. . ... ... ... : ... .. . ... : ... .. . ... : ... .. . ... ...
ROW D8 : ... .. . ... ... ... : ... .. 7 ... ... ... : ... .. . ... : ... .. . ... : ... .. . ... ...
ROW D9 : ... .. . ... ... ... : ... .. . ... ... ... : ... .. . ... : ... .. . ... : ... .. . ... ...
ROW DA : ... .. . ... ... ... : C#2 00 7 P7F ... ... : ... .. . ... : ... .. . ... : ... .. . ... ...
ROW DB : ... .. . P80 ... ... : ... .. . ... ... ... : ... .. . ... : ... .. . ... : ... .. . ... ...
ROW DC : ... .. 4 ... ... ... : ... .. 8 ... ... ... : --- .. . ... : ... .. . ... : ... .. . ... ...
ROW DD : ... .. . ... ... ... : ... .. . ... ... ... : ... .. . ... : ... .. . ... : ... .. . ... ...
ROW DE : ... .. . ... ... ... : ... .. 9 ... ... ... : E-2 00 . ... : ... .. C ... : ... .. . ... ...
ROW DF : ... .. . P7E ... ... : ... .. . ... ... ... : ... .. . ... : ... .. 0 ... : ... .. . ... ...
ROW E0 : ... .. . ... ... ... : ... .. . ... ... ... : ... .. . ... : ... .. . ... : ... .. . ... ...
ROW E1 : ... .. . ... ... ... : ... .. 8 ... ... ... : ... .. . ... : ... .. . ... : ... .. . ... ...
ROW E2 : ... .. . ... ... ... : ... .. . ... ... ... : ... .. . ... : ... .. . ... : ... .. . ... ...
ROW E3 : ... .. . P80 ... ... : ... .. . ... ... ... : ... .. . ... : ... .. . ... : ... .. . ... ...
ROW E4 : ... .. . ... ... ... : ... .. . ... ... ... : ... .. . ... : ... .. . ... : ... .. . ... ...
ROW E5 : ... .. . ... ... ... : ... .. 7 ... ... ... : ... .. . ... : ... .. . ... : ... .. . ... ...
ROW E6 : ... .. . ... ... ... : ... .. . ... ... ... : --- .. . ... : ... .. . ... : ... .. . ... ...
ROW E7 : ... .. . P7E ... ... : E-2 00 7 P80 ... ... : ... .. . ... : ... .. . ... : ... .. . ... ...
ROW E8 : ... .. . ... ... ... : ... .. . ... ... ... : E-2 00 . ... : ... .. C ... : ... .. . ... ...
ROW E9 : ... .. . ... ... ... : ... .. 8 ... ... ... : ... .. . ... : ... .. 0 ... : ... .. . ... ...
ROW EA : ... .. . ... ... ... : ... .. . ... ... ... : ... .. . ... : ... .. . ... : ... .. . ... ...
ROW EB : ... .. . P80 ... ... : ... .. 9 ... ... ... : ... .. . ... : ... .. . ... : ... .. . ... ...
ROW EC : ... .. . ... ... ... : ... .. . ... ... ... : ... .. . ... : ... .. . ... : ... .. . ... ...
ROW ED : ... .. . ... ... ... : ... .. . ... ... ... : ... .. . ... : ... .. . ... : ... .. . ... ...
ROW EE : ... .. . ... ... ... : ... .. 8 ... ... ... : ... .. . ... : ... .. . ... : ... .. . ... ...
ROW EF : ... .. . P7E ... ... : ... .. . ... ... ... : ... .. . ... : ... .. . ... : ... .. . ... ...
ROW F0 : ... .. . ... ... ... : ... .. . ... ... ... : --- .. . ... : ... .. . ... : ... .. . ... ...
ROW F1 : ... .. . ... ... ... : ... .. . ... ... ... : ... .. . ... : ... .. . ... : ... .. . ... ...
ROW F2 : ... .. . ... ... ... : ... .. 7 ... ... ... : ... .. . ... : ... .. . ... : ... .. . ... ...
ROW F3 : ... .. . P80 ... ... : ... .. . ... ... ... : ... .. . ... : ... .. . ... : ... .. . ... ...
ROW F4 : ... .. . ... ... ... : A#2 00 7 ... ... ... : ... .. . ... : ... .. . ... : ... .. . ... ...
ROW F5 : ... .. . ... ... ... : ... .. . ... ... ... : ... .. . ... : ... .. . ... : ... .. . ... ...
ROW F6 : ... .. . ... ... ... : ... .. 8 ... ... ... : ... .. . ... : ... .. . ... : ... .. . ... ...
ROW F7 : ... .. . P7E ... ... : ... .. . ... ... ... : ... .. . P7F : ... .. . ... : ... .. . ... ...
ROW F8 : ... .. . ... ... ... : ... .. 9 ... ... ... : ... .. . ... : ... .. . ... : ... .. . ... ...
ROW F9 : ... .. . ... ... ... : ... .. . ... ... ... : ... .. . ... : ... .. . ... : ... .. . ... ...
ROW FA : ... .. . ... ... ... : ... .. . ... ... ... : ... .. . ... : ... .. . ... : ... .. . ... ...
ROW FB : ... .. . P80 ... ... : ... .. 8 ... ... ... : ... .. . P81 : ... .. . ... : ... .. . ... ...
ROW FC : ... .. . ... ... ... : ... .. . ... ... ... : E-2 00 . P80 : ... .. C ... : ... .. . ... ...
ROW FD : ... .. . ... ... ... : ... .. . ... ... ... : ... .. . ... : ... .. 0 ... : ... .. . ... ...
ROW FE : ... .. . ... ... ... : ... .. . ... ... ... : ... .. . ... : ... .. . ... : ... .. . ... ...
ROW FF : ... .. . P7E ... ... : ... .. 7 ... ... ... : ... .. . ... : ... .. . ... : ... .. . ... ...

PATTERN 0E
ROW 00 : ... .. . ... ... ... : ... .. . ... ... ... : ... .. . ... : ... .. . ... : ... .. . ... ...
ROW 01 : ... .. . ... ... ... : ... .. . ... ... ... : ... .. . ... : ... .. . ... : ... .. . ... ...
ROW 02 : ... .. . ... ... ... : C#3 00 7 ... ... ... : ... .. . ... : ... .. . ... : ... .. . ... ...
ROW 03 : ... .. . P80 ... ... : ... .. . ... ... ... : ... .. . ... : ... .. . ... : ... .. . ... ...
ROW 04 : ... .. . ... ... ... : ... .. 8 ... ... ... : --- .. . ... : ... .. . ... : ... .. . ... ...
ROW 05 : ... .. . ... ... ... : ... .. . ... ... ... : ... .. . ... : ... .. . ... : ... .. . ... ...
ROW 06 : ... .. . ... ... ... : ... .. 9 ... ... ... : E-2 00 . ... : ... .. C ... : ... .. . ... ...
ROW 07 : ... .. . P7E ... ... : ... .. . ... ... ... : ... .. . ... : ... .. 0 ... : ... .. . ... ...
ROW 08 : ... .. . ... ... ... : ... .. . ... ... ... : ... .. . ... : ... .. . ... : ... .. . ... ...
ROW 09 : ... .. . ... ... ... : ... .. 8 ... ... ... : ... .. . ... : ... .. . ... : ... .. . ... ...
ROW 0A : ... .. . ... ... ... : ... .. . ... ... ... : ... .. . ... : ... .. . ... : ... .. . ... ...
ROW 0B : ... .. . P80 ... ... : ... .. . ... ... ... : ... .. . ... : ... .. . ... : ... .. . ... ...
ROW 0C : ... .. . ... ... ... : ... .. . ... ... ... : ... .. . ... : ... .. . ... : ... .. . ... ...
ROW 0D : ... .. . ... ... ... : ... .. 7 ... ... ... : ... .. . ... : ... .. . ... : ... .. . ... ...
ROW 0E : ... .. . ... ... ... : ... .. . ... ... ... : --- .. . ... : ... .. . ... : ... .. . ... ...
ROW 0F : ... .. . P7E ... ... : ... .. . ... ... ... : ... .. . ... : ... .. . ... : ... .. . ... ...
ROW 10 : ... .. . P7F ... ... : E-3 00 7 P7F ... ... : E-2 00 . ... : ... .. C ... : ... .. . ... ...
ROW 11 : ... .. . ... ... ... : ... .. . ... ... ... : ... .. . ... : ... .. 0 ... : ... .. . ... ...
ROW 12 : ... .. . ... ... ... : ... .. 8 ... ... ... : ... .. . ... : ... .. . ... : ... .. . ... ...
ROW 13 : ... .. . ... ... ... : ... .. . ... ... ... : ... .. . ... : ... .. . ... : ... .. . ... ...
ROW 14 : ... .. . ... ... ... : ... .. 9 ... ... ... : ... .. . ... : ... .. . ... : ... .. . ... ...
ROW 15 : ... .. . ... ... ... : ... .. . ... ... ... : ... .. . ... : ... .. . ... : ... .. . ... ...
ROW 16 : ... .. . ... ... ... : ... .. . ... ... ... : ... .. . ... : ... .. . ... : ... .. . ... ...
ROW 17 : ... .. . ... ... ... : ... .. 8 ... ... ... : ... .. . ... : ... .. . ... : ... .. . ... ...
ROW 18 : ... .. . ... ... ... : ... .. . ... ... ... : --- .. . ... : ... .. . ... : ... .. . ... ...
ROW 19 : ... .. . ... ... ... : ... .. . ... ... ... : ... .. . ... : ... .. . ... : ... .. . ... ...
ROW 1A : ... .. . ... ... ... : ... .. . ... ... ... : ... .. . ... : ... .. . ... : ... .. . ... ...
ROW 1B : ... .. . ... ... ... : ... .. 7 ... ... ... : ... .. . ... : ... .. . ... : ... .. . ... ...
ROW 1C : ... .. . ... ... ... : ... .. . ... ... ... : ... .. . ... : ... .. . ... : ... .. . ... ...
ROW 1D : ... .. . ... ... ... : ... .. . ... ... ... : ... .. . ... : ... .. . ... : ... .. . ... ...
ROW 1E : ... .. . ... ... ... : ... .. . ... ... ... : ... .. . ... : ... .. . ... : ... .. . ... ...
ROW 1F : ... .. . P7E ... ... : ... .. 6 P7E ... ... : ... .. . P7F : ... .. . ... : ... .. . ... ...
ROW 20 : ... .. . ... ... ... : ... .. . ... ... ... : ... .. . ... : ... .. . ... : ... .. . ... ...
ROW 21 : ... .. . ... ... ... : ... .. . ... ... ... : ... .. . ... : ... .. . ... : ... .. . ... ...
ROW 22 : ... .. . ... ... ... : ... .. . ... ... ... : ... .. . ... : ... .. . ... : ... .. . ... ...
ROW 23 : ... .. . P80 ... ... : ... .. . P80 ... ... : ... .. . P81 : ... .. . ... : ... .. . ... ...
ROW 24 : ... .. . ... ... ... : ... .. . ... ... ... : E-2 00 . P80 : ... .. C ... : ... .. . ... ...
ROW 25 : ... .. . ... ... ... : ... .. . ... ... ... : ... .. . ... : ... .. 0 ... : ... .. . ... ...
ROW 26 : ... .. . ... ... ... : ... .. . ... ... ... : ... .. . ... : ... .. . ... : ... .. . ... ...
ROW 27 : ... .. . P7E ... ... : ... .. 5 P7E ... ... : ... .. . ... : ... .. . ... : ... .. . ... ...
ROW 28 : ... .. . ... ... ... : ... .. . ... ... ... : ... .. . ... : ... .. . ... : ... .. . ... ...
ROW 29 : ... .. . ... ... ... : ... .. . ... ... ... : ... .. . ... : ... .. . ... : ... .. . ... ...
ROW 2A : ... .. . ... ... ... : ... .. . ... ... ... : ... .. . ... : ... .. . ... : ... .. . ... ...
ROW 2B : ... .. . P80 ... ... : ... .. . P80 ... ... : ... .. . ... : ... .. . ... : ... .. . ... ...
ROW 2C : ... .. . ... ... ... : ... .. 4 ... ... ... : --- .. . ... : ... .. . ... : ... .. . ... ...
ROW 2D : ... .. . ... ... ... : ... .. . ... ... ... : ... .. . ... : ... .. . ... : ... .. . ... ...
ROW 2E : ... .. . ... ... ... : ... .. . ... ... ... : E-2 00 . ... : ... .. C ... : ... .. . ... ...
ROW 2F : ... .. . P7E ... ... : ... .. . P7E ... ... : ... .. . ... : ... .. 0 ... : ... .. . ... ...
ROW 30 : ... .. . ... ... ... : ... .. . ... ... ... : ... .. . ... : ... .. . ... : ... .. . ... ...
ROW 31 : ... .. . ... ... ... : ... .. . ... ... ... : ... .. . ... : ... .. . ... : ... .. . ... ...
ROW 32 : ... .. . ... ... ... : ... .. . ... ... ... : ... .. . ... : ... .. . ... : ... .. . ... ...
ROW 33 : ... .. . P80 ... ... : ... .. . P80 ... ... : ... .. . ... : ... .. . ... : ... .. . ... ...
ROW 34 : ... .. . ... ... ... : ... .. . ... ... ... : ... .. . ... : ... .. . ... : ... .. . ... ...
ROW 35 : ... .. . ... ... ... : ... .. . ... ... ... : ... .. . ... : ... .. . ... : ... .. . ... ...
ROW 36 : ... .. . ... ... ... : ... .. . ... ... ... : --- .. . ... : ... .. . ... : ... .. . ... ...
ROW 37 : ... .. . P7E ... ... : ... .. . P7E ... ... : ... .. . ... : ... .. . ... : ... .. . ... ...
ROW 38 : A#4 00 7 P80 ... ... : ... .. . ... ... ... : E-2 00 . ... : ... .. C ... : ... .. . ... ...
ROW 39 : ... .. . ... ... ... : ... .. . ... ... ... : ... .. . ... : ... .. 0 ... : ... .. . ... ...
ROW 3A : ... .. 8 ... ... ... : ... .. . ... ... ... : ... .. . ... : ... .. . ... : ... .. . ... ...
ROW 3B : ... .. . ... ... ... : ... .. . P80 ... ... : ... .. . ... : ... .. . ... : ... .. . ... ...
ROW 3C : ... .. 9 ... ... ... : ... .. . ... ... ... : ... .. . ... : ... .. . ... : ... .. . ... ...
ROW 3D : ... .. . ... ... ... : ... .. . ... ... ... : ... .. . ... : ... .. . ... : ... .. . ... ...
ROW 3E : ... .. . ... ... ... : ... .. . ... ... ... : ... .. . ... : ... .. . ... : ... .. . ... ...
ROW 3F : ... .. 8 ... ... ... : ... .. . P7E ... ... : ... .. . ... : ... .. . ... : ... .. . ... ...
ROW 40 : ... .. . ... ... ... : ... .. . ... ... ... : --- .. . ... : ... .. . ... : ... .. . ... ...
ROW 41 : ... .. . ... ... ... : ... .. . ... ... ... : ... .. . ... : ... .. . ... : ... .. . ... ...
ROW 42 : ... .. . ... ... ... : ... .. . ... ... ... : ... .. . ... : ... .. . ... : ... .. . ... ...
ROW 43 : ... .. 7 ... ... ... : ... .. . P80 ... ... : ... .. . ... : ... .. . ... : ... .. . ... ...
ROW 44 : ... .. . ... ... ... : ... .. . ... ... ... : ... .. . ... : ... .. . ... : ... .. . ... ...
ROW 45 : ... .. . ... ... ... : ... .. . ... ... ... : ... .. . ... : ... .. . ... : ... .. . ... ...
ROW 46 : ... .. . ... ... ... : ... .. . ... ... ... : ... .. . ... : ... .. . ... : ... .. . ... ...
ROW 47 : ... .. 6 P7F ... ... : ... .. . P7E ... ... : ... .. . P7F : ... .. . ... : ... .. . ... ...
ROW 48 : ... .. . ... ... ... : ... .. . ... ... ... : ... .. . ... : ... .. . ... : ... .. . ... ...
ROW 49 : ... .. . ... ... ... : ... .. . ... ... ... : ... .. . ... : ... .. . ... : ... .. . ... ...
ROW 4A : ... .. . ... ... ... : ... .. . ... ... ... : ... .. . ... : ... .. . ... : ... .. . ... ...
ROW 4B : ... .. . P81 ... ... : ... .. . P80 ... ... : ... .. . P81 : ... .. . ... : ... .. . ... ...
ROW 4C : ... .. . ... ... ... : ... .. . ... ... ... : E-2 00 . P80 : ... .. C ... : ... .. . ... ...
ROW 4D : ... .. . ... ... ... : ... .. . ... ... ... : ... .. . ... : ... .. 0 ... : ... .. . ... ...
ROW 4E : ... .. . ... ... ... : ... .. . ... ... ... : ... .. . ... : ... .. . ... : ... .. . ... ...
ROW 4F : ... .. 5 P7F ... ... : ... .. . P7E ... ... : ... .. . ... : ... .. . ... : ... .. . ... ...
ROW 50 : ... .. . ... ... ... : ... .. . ... ... ... : ... .. . ... : ... .. . ... : ... .. . ... ...
ROW 51 : ... .. . ... ... ... : ... .. . ... ... ... : ... .. . ... : ... .. . ... : ... .. . ... ...
ROW 52 : ... .. . ... ... ... : ... .. . ... ... ... : ... .. . ... : ... .. . ... : ... .. . ... ...
ROW 53 : ... .. . P81 ... ... : ... .. . P80 ... ... : ... .. . ... : ... .. . ... : ... .. . ... ...
ROW 54 : ... .. 4 ... ... ... : ... .. . ... ... ... : --- .. . ... : ... .. . ... : ... .. . ... ...
ROW 55 : ... .. . ... ... ... : ... .. . ... ... ... : ... .. . ... : ... .. . ... : ... .. . ... ...
ROW 56 : ... .. . ... ... ... : ... .. . ... ... ... : E-2 00 . ... : ... .. C ... : ... .. . ... ...
ROW 57 : ... .. . P7F ... ... : ... .. . P7E ... ... : ... .. . ... : ... .. 0 ... : ... .. . ... ...
ROW 58 : ... .. . ... ... ... : ... .. . ... ... ... : ... .. . ... : ... .. . ... : ... .. . ... ...
ROW 59 : ... .. . ... ... ... : ... .. . ... ... ... : ... .. . ... : ... .. . ... : ... .. . ... ...
ROW 5A : ... .. . ... ... ... : ... .. . ... ... ... : ... .. . ... : ... .. . ... : ... .. . ... ...
ROW 5B : ... .. . P81 ... ... : ... .. . P80 ... ... : ... .. . ... : ... .. . ... : ... .. . ... ...
ROW 5C : ... .. . ... ... ... : ... .. . ... ... ... : ... .. . ... : ... .. . ... : ... .. . ... ...
ROW 5D : ... .. . ... ... ... : ... .. . ... ... ... : ... .. . ... : ... .. . ... : ... .. . ... ...
ROW 5E : ... .. . ... ... ... : ... .. . ... ... ... : --- .. . ... : ... .. . ... : ... .. . ... ...
ROW 5F : ... .. . P7F ... ... : ... .. . P7E ... ... : ... .. . ... : ... .. . ... : ... .. . ... ...
ROW 60 : A-4 00 7 P80 ... ... : F-3 00 7 P7F ... ... : F-2 00 . ... : ... .. C ... : ... .. . ... ...
ROW 61 : ... .. . ... ... ... : ... .. . ... ... ... : ... .. . ... : ... .. 0 ... : ... .. . ... ...
ROW 62 : ... .. 8 ... ... ... : ... .. 8 ... ... ... : ... .. . ... : ... .. . ... : ... .. . ... ...
ROW 63 : ... .. . ... ... ... : ... .. . ... ... ... : ... .. . ... : ... .. . ... : ... .. . ... ...
ROW 64 : ... .. 9 ... ... ... : ... .. 9 ... ... ... : ... .. . ... : ... .. . ... : ... .. . ... ...
ROW 65 : ... .. . ... ... ... : ... .. . ... ... ... : ... .. . ... : ... .. . ... : ... .. . ... ...
ROW 66 : ... .. . ... ... ... : ... .. . ... ... ... : ... .. . ... : ... .. . ... : ... .. . ... ...
ROW 67 : ... .. 8 ... ... ... : ... .. 8 ... ... ... : ... .. . ... : ... .. . ... : ... .. . ... ...
ROW 68 : ... .. . ... ... ... : ... .. . ... ... ... : --- .. . ... : ... .. . ... : ... .. . ... ...
ROW 69 : ... .. . ... ... ... : ... .. . ... ... ... : ... .. . ... : ... .. . ... : ... .. . ... ...
ROW 6A : ... .. . ... ... ... : ... .. . ... ... ... : ... .. . ... : ... .. . ... : ... .. . ... ...
ROW 6B : ... .. 7 ... ... ... : ... .. 7 ... ... ... : ... .. . ... : ... .. . ... : ... .. . ... ...
ROW 6C : ... .. . ... ... ... : ... .. . ... ... ... : ... .. . ... : ... .. . ... : ... .. . ... ...
ROW 6D : ... .. . ... ... ... : ... .. . ... ... ... : ... .. . ... : ... .. . ... : ... .. . ... ...
ROW 6E : ... .. . ... ... ... : ... .. . ... ... ... : ... .. . ... : ... .. . ... : ... .. . ... ...
ROW 6F : ... .. 6 P7F ... ... : ... .. 6 P7E ... ... : ... .. . P7F : ... .. . ... : ... .. . ... ...
ROW 70 : ... .. . ... ... ... : ... .. . ... ... ... : ... .. . ... : ... .. . ... : ... .. . ... ...
ROW 71 : ... .. . ... ... ... : ... .. . ... ... ... : ... .. . ... : ... .. . ... : ... .. . ... ...
ROW 72 : ... .. . ... ... ... : ... .. . ... ... ... : ... .. . ... : ... .. . ... : ... .. . ... ...
ROW 73 : ... .. . P81 ... ... : ... .. . P80 ... ... : ... .. . P81 : ... .. . ... : ... .. . ... ...
ROW 74 : ... .. 4 P80 ... ... : ... .. . ... ... ... : F-2 00 . P80 : ... .. C ... : ... .. . ... ...
ROW 75 : ... .. . ... ... ... : ... .. . ... ... ... : ... .. . ... : ... .. 0 ... : ... .. . ... ...
ROW 76 : ... .. . ... ... ... : ... .. . ... ... ... : ... .. . ... : ... .. . ... : ... .. . ... ...
ROW 77 : ... .. . ... ... ... : ... .. 5 P7E ... ... : ... .. . ... : ... .. . ... : ... .. . ... ...
ROW 78 : ... .. . ... ... ... : ... .. . ... ... ... : ... .. . ... : ... .. . ... : ... .. . ... ...
ROW 79 : ... .. . ... ... ... : ... .. . ... ... ... : ... .. . ... : ... .. . ... : ... .. . ... ...
ROW 7A : ... .. . ... ... ... : ... .. . ... ... ... : ... .. . ... : ... .. . ... : ... .. . ... ...
ROW 7B : ... .. . ... ... ... : ... .. . P80 ... ... : ... .. . ... : ... .. . ... : ... .. . ... ...
ROW 7C : ... .. . ... ... ... : ... .. 4 ... ... ... : --- .. . ... : ... .. . ... : ... .. . ... ...
ROW 7D : ... .. . ... ... ... : ... .. . ... ... ... : ... .. . ... : ... .. . ... : ... .. . ... ...
ROW 7E : ... .. . ... ... ... : ... .. . ... ... ... : F-2 00 . ... : ... .. C ... : ... .. . ... ...
ROW 7F : ... .. . ... ... ... : ... .. . P7E ... ... : ... .. . ... : ... .. 0 ... : ... .. . ... ...
ROW 80 : ... .. . ... ... ... : ... .. . ... ... ... : ... .. . ... : ... .. . ... : ... .. . ... ...
ROW 81 : ... .. . ... ... ... : ... .. . ... ... ... : ... .. . ... : ... .. . ... : ... .. . ... ...
ROW 82 : ... .. . ... ... ... : ... .. . ... ... ... : ... .. . ... : ... .. . ... : ... .. . ... ...
ROW 83 : ... .. . P7F ... ... : ... .. . P80 ... ... : ... .. . ... : ... .. . ... : ... .. . ... ...
ROW 84 : ... .. . ... ... ... : ... .. . ... ... ... : ... .. . ... : ... .. . ... : ... .. . ... ...
ROW 85 : ... .. . ... ... ... : ... .. . ... ... ... : ... .. . ... : ... .. . ... : ... .. . ... ...
ROW 86 : ... .. . ... ... ... : ... .. . ... ... ... : --- .. . ... : ... .. . ... : ... .. . ... ...
ROW 87 : ... .. . P81 ... ... : ... .. . P7E ... ... : ... .. . ... : ... .. . ... : ... .. . ... ...
ROW 88 : F-4 00 7 P7F ... ... : F-2 00 7 P80 ... ... : F-2 00 . ... : ... .. C ... : ... .. . ... ...
ROW 89 : ... .. . ... ... ... : ... .. . ... ... ... : ... .. . ... : ... .. 0 ... : ... .. . ... ...
ROW 8A : ... .. 8 ... ... ... : ... .. 8 ... ... ... : ... .. . ... : ... .. . ... : ... .. . ... ...
ROW 8B : ... .. . ... ... ... : ... .. . ... ... ... : ... .. . ... : ... .. . ... : ... .. . ... ...
ROW 8C : ... .. 9 ... ... ... : ... .. 9 ... ... ... : ... .. . ... : ... .. . ... : ... .. . ... ...
ROW 8D : ... .. . ... ... ... : ... .. . ... ... ... : ... .. . ... : ... .. . ... : ... .. . ... ...
ROW 8E : ... .. . ... ... ... : ... .. . ... ... ... : ... .. . ... : ... .. . ... : ... .. . ... ...
ROW 8F : ... .. 8 ... ... ... : ... .. 8 ... ... ... : ... .. . ... : ... .. . ... : ... .. . ... ...
ROW 90 : ... .. . ... ... ... : ... .. . ... ... ... : --- .. . ... : ... .. . ... : ... .. . ... ...
ROW 91 : ... .. . ... ... ... : ... .. . ... ... ... : ... .. . ... : ... .. . ... : ... .. . ... ...
ROW 92 : ... .. . ... ... ... : ... .. . ... ... ... : ... .. . ... : ... .. . ... : ... .. . ... ...
ROW 93 : ... .. 7 ... ... ... : ... .. 7 ... ... ... : ... .. . ... : ... .. . ... : ... .. . ... ...
ROW 94 : ... .. . ... ... ... : ... .. . ... ... ... : ... .. . ... : ... .. . ... : ... .. . ... ...
ROW 95 : ... .. . ... ... ... : ... .. . ... ... ... : ... .. . ... : ... .. . ... : ... .. . ... ...
ROW 96 : ... .. . ... ... ... : ... .. . ... ... ... : ... .. . ... : ... .. . ... : ... .. . ... ...
ROW 97 : ... .. 6 P7E ... ... : ... .. 8 ... ... ... : ... .. . P7F : ... .. . ... : ... .. . ... ...
ROW 98 : ... .. . ... ... ... : ... .. . ... ... ... : ... .. . ... : ... .. . ... : ... .. . ... ...
ROW 99 : ... .. . ... ... ... : ... .. 9 ... ... ... : ... .. . ... : ... .. . ... : ... .. . ... ...
ROW 9A : ... .. . ... ... ... : ... .. . ... ... ... : ... .. . ... : ... .. . ... : ... .. . ... ...
ROW 9B : ... .. . P80 ... ... : ... .. . ... ... ... : ... .. . P81 : ... .. . ... : ... .. . ... ...
ROW 9C : ... .. . ... ... ... : ... .. 8 ... ... ... : F-2 00 . P80 : ... .. C ... : ... .. . ... ...
ROW 9D : ... .. . ... ... ... : ... .. . ... ... ... : ... .. . ... : ... .. 0 ... : ... .. . ... ...
ROW 9E : ... .. . ... ... ... : ... .. . ... ... ... : ... .. . ... : ... .. . ... : ... .. . ... ...
ROW 9F : ... .. 5 P7E ... ... : ... .. . ... ... ... : ... .. . ... : ... .. . ... : ... .. . ... ...
ROW A0 : ... .. . ... ... ... : ... .. 7 ... ... ... : ... .. . ... : ... .. . ... : ... .. . ... ...
ROW A1 : ... .. . ... ... ... : ... .. . ... ... ... : ... .. . ... : ... .. . ... : ... .. . ... ...
ROW A2 : ... .. . ... ... ... : ... .. . ... ... ... : ... .. . ... : ... .. . ... : ... .. . ... ...
ROW A3 : ... .. . P80 ... ... : ... .. . ... ... ... : ... .. . ... : ... .. . ... : ... .. . ... ...
ROW A4 : ... .. 4 ... ... ... : ... .. 8 ... ... ... : --- .. . ... : ... .. . ... : ... .. . ... ...
ROW A5 : ... .. . ... ... ... : ... .. . ... ... ... : ... .. . ... : ... .. . ... : ... .. . ... ...
ROW A6 : ... .. . ... ... ... : ... .. 9 ... ... ... : F-2 00 . ... : ... .. C ... : ... .. . ... ...
ROW A7 : ... .. . P7E ... ... : ... .. . ... ... ... : ... .. . ... : ... .. 0 ... : ... .. . ... ...
ROW A8 : ... .. . ... ... ... : ... .. . ... ... ... : ... .. . ... : ... .. . ... : ... .. . ... ...
ROW A9 : ... .. . ... ... ... : ... .. 8 ... ... ... : ... .. . ... : ... .. . ... : ... .. . ... ...
ROW AA : ... .. . ... ... ... : ... .. . ... ... ... : ... .. . ... : ... .. . ... : ... .. . ... ...
ROW AB : ... .. . P80 ... ... : ... .. . ... ... ... : ... .. . ... : ... .. . ... : ... .. . ... ...
ROW AC : ... .. . ... ... ... : ... .. . ... ... ... : ... .. . ... : ... .. . ... : ... .. . ... ...
ROW AD : ... .. . ... ... ... : ... .. 7 ... ... ... : ... .. . ... : ... .. . ... : ... .. . ... ...
ROW AE : ... .. . ... ... ... : ... .. . ... ... ... : --- .. . ... : ... .. . ... : ... .. . ... ...
ROW AF : ... .. . P7E ... ... : ... .. . ... ... ... : ... .. . ... : ... .. . ... : ... .. . ... ...
ROW B0 : ... .. . ... ... ... : ... .. . ... ... ... : F-2 00 . ... : ... .. C ... : ... .. . ... ...
ROW B1 : ... .. . ... ... ... : ... .. . ... ... ... : ... .. . ... : ... .. 0 ... : ... .. . ... ...
ROW B2 : ... .. . ... ... ... : ... .. 8 ... ... ... : ... .. . ... : ... .. . ... : ... .. . ... ...
ROW B3 : ... .. . P80 ... ... : ... .. . ... ... ... : ... .. . ... : ... .. . ... : ... .. . ... ...
ROW B4 : ... .. . ... ... ... : ... .. 9 ... ... ... : ... .. . ... : ... .. . ... : ... .. . ... ...
ROW B5 : ... .. . ... ... ... : ... .. . ... ... ... : ... .. . ... : ... .. . ... : ... .. . ... ...
ROW B6 : ... .. . ... ... ... : ... .. . ... ... ... : ... .. . ... : ... .. . ... : ... .. . ... ...
ROW B7 : ... .. . P7E ... ... : ... .. 8 ... ... ... : ... .. . ... : ... .. . ... : ... .. . ... ...
ROW B8 : ... .. . ... ... ... : ... .. . ... ... ... : --- .. . ... : ... .. . ... : ... .. . ... ...
ROW B9 : ... .. . ... ... ... : ... .. . ... ... ... : ... .. . ... : ... .. . ... : ... .. . ... ...
ROW BA : ... .. . ... ... ... : ... .. . ... ... ... : ... .. . ... : ... .. . ... : ... .. . ... ...
ROW BB : ... .. . P80 ... ... : ... .. 7 ... ... ... : ... .. . ... : ... .. . ... : ... .. . ... ...
ROW BC : ... .. . ... ... ... : ... .. . ... ... ... : ... .. . ... : ... .. . ... : ... .. . ... ...
ROW BD : ... .. . ... ... ... : ... .. . ... ... ... : ... .. . ... : ... .. . ... : ... .. . ... ...
ROW BE : ... .. . ... ... ... : ... .. . ... ... ... : ... .. . ... : ... .. . ... : ... .. . ... ...
ROW BF : ... .. . P7E ... ... : ... .. 6 P7F ... ... : ... .. . P7F : ... .. . ... : ... .. . ... ...
ROW C0 : ... .. . ... ... ... : ... .. . ... ... ... : ... .. . ... : ... .. . ... : ... .. . ... ...
ROW C1 : ... .. . ... ... ... : ... .. . ... ... ... : ... .. . ... : ... .. . ... : ... .. . ... ...
ROW C2 : ... .. . ... ... ... : ... .. . ... ... ... : ... .. . ... : ... .. . ... : ... .. . ... ...
ROW C3 : ... .. . P80 ... ... : ... .. . P81 ... ... : ... .. . P81 : ... .. . ... : ... .. . ... ...
ROW C4 : ... .. . ... ... ... : ... .. . ... ... ... : F-2 00 . P80 : ... .. C ... : ... .. . ... ...
ROW C5 : ... .. . ... ... ... : ... .. . ... ... ... : ... .. . ... : ... .. 0 ... : ... .. . ... ...
ROW C6 : ... .. . ... ... ... : ... .. . ... ... ... : ... .. . ... : ... .. . ... : ... .. . ... ...
ROW C7 : ... .. . P7E ... ... : ... .. 5 P7F ... ... : ... .. . ... : ... .. . ... : ... .. . ... ...
ROW C8 : ... .. . ... ... ... : ... .. . ... ... ... : ... .. . ... : ... .. . ... : ... .. . ... ...
ROW C9 : ... .. . ... ... ... : ... .. . ... ... ... : ... .. . ... : ... .. . ... : ... .. . ... ...
ROW CA : ... .. . ... ... ... : ... .. . ... ... ... : ... .. . ... : ... .. . ... : ... .. . ... ...
ROW CB : ... .. . P80 ... ... : ... .. . P81 ... ... : ... .. . ... : ... .. . ... : ... .. . ... ...
ROW CC : ... .. . ... ... ... : ... .. 4 ... ... ... : --- .. . ... : ... .. . ... : ... .. . ... ...
ROW CD : ... .. . ... ... ... : ... .. . ... ... ... : ... .. . ... : ... .. . ... : ... .. . ... ...
ROW CE : ... .. . ... ... ... : ... .. . ... ... ... : F-2 00 . ... : ... .. C ... : ... .. . ... ...
ROW CF : ... .. . P7E ... ... : ... .. . P7F ... ... : ... .. . ... : ... .. 0 ... : ... .. . ... ...
ROW D0 : ... .. . ... ... ... : ... .. . ... ... ... : ... .. . ... : ... .. . ... : ... .. . ... ...
ROW D1 : ... .. . ... ... ... : ... .. . ... ... ... : ... .. . ... : ... .. . ... : ... .. . ... ...
ROW D2 : ... .. . ... ... ... : ... .. . ... ... ... : ... .. . ... : ... .. . ... : ... .. . ... ...
ROW D3 : ... .. . P80 ... ... : ... .. . P81 ... ... : ... .. . ... : ... .. . ... : ... .. . ... ...
ROW D4 : ... .. . ... ... ... : ... .. . ... ... ... : ... .. . ... : ... .. . ... : ... .. . ... ...
ROW D5 : ... .. . ... ... ... : ... .. . ... ... ... : ... .. . ... : ... .. . ... : ... .. . ... ...
ROW D6 : ... .. . ... ... ... : ... .. . ... ... ... : --- .. . ... : ... .. . ... : ... .. . ... ...
ROW D7 : ... .. . P7E ... ... : ... .. . P7F ... ... : ... .. . ... : ... .. . ... : ... .. . ... ...
ROW D8 : ... .. 7 P7F ... ... : ... .. . ... ... ... : F-2 00 . ... : ... .. C ... : ... .. . ... ...
ROW D9 : ... .. . ... ... ... : ... .. . ... ... ... : ... .. . ... : ... .. 0 ... : ... .. . ... ...
ROW DA : ... .. 8 ... ... ... : ... .. . ... ... ... : ... .. . ... : ... .. . ... : ... .. . ... ...
ROW DB : ... .. . ... ... ... : ... .. . P81 ... ... : ... .. . ... : ... .. . ... : ... .. . ... ...
ROW DC : ... .. 9 ... ... ... : ... .. . ... ... ... : ... .. . ... : ... .. . ... : ... .. . ... ...
ROW DD : ... .. . ... ... ... : ... .. . ... ... ... : ... .. . ... : ... .. . ... : ... .. . ... ...
ROW DE : ... .. . ... ... ... : ... .. . ... ... ... : ... .. . ... : ... .. . ... : ... .. . ... ...
ROW DF : ... .. 8 ... ... ... : ... .. . P7F ... ... : ... .. . ... : ... .. . ... : ... .. . ... ...
ROW E0 : ... .. . ... ... ... : ... .. . ... ... ... : --- .. . ... : ... .. . ... : ... .. . ... ...
ROW E1 : ... .. . ... ... ... : ... .. . ... ... ... : ... .. . ... : ... .. . ... : ... .. . ... ...
ROW E2 : ... .. . ... ... ... : ... .. . ... ... ... : ... .. . ... : ... .. . ... : ... .. . ... ...
ROW E3 : ... .. 7 ... ... ... : ... .. . P81 ... ... : ... .. . ... : ... .. . ... : ... .. . ... ...
ROW E4 : ... .. . ... ... ... : ... .. . ... ... ... : ... .. . ... : ... .. . ... : ... .. . ... ...
ROW E5 : ... .. . ... ... ... : ... .. . ... ... ... : ... .. . ... : ... .. . ... : ... .. . ... ...
ROW E6 : ... .. . ... ... ... : ... .. . ... ... ... : ... .. . ... : ... .. . ... : ... .. . ... ...
ROW E7 : ... .. 6 P7E ... ... : ... .. . P7F ... ... : ... .. . P7F : ... .. . ... : ... .. . ... ...
ROW E8 : ... .. . ... ... ... : ... .. . ... ... ... : ... .. . ... : ... .. . ... : ... .. . ... ...
ROW E9 : ... .. . ... ... ... : ... .. . ... ... ... : ... .. . ... : ... .. . ... : ... .. . ... ...
ROW EA : ... .. . ... ... ... : ... .. . ... ... ... : ... .. . ... : ... .. . ... : ... .. . ... ...
ROW EB : ... .. . P80 ... ... : ... .. . P81 ... ... : ... .. . P81 : ... .. . ... : ... .. . ... ...
ROW EC : ... .. . ... ... ... : ... .. . ... ... ... : F-2 00 . P80 : ... .. C ... : ... .. . ... ...
ROW ED : ... .. . ... ... ... : ... .. . ... ... ... : ... .. . ... : ... .. 0 ... : ... .. . ... ...
ROW EE : ... .. . ... ... ... : ... .. . ... ... ... : ... .. . ... : ... .. . ... : ... .. . ... ...
ROW EF : ... .. 5 P7E ... ... : ... .. . P7F ... ... : ... .. . ... : ... .. . ... : ... .. . ... ...
ROW F0 : ... .. . ... ... ... : ... .. . ... ... ... : ... .. . ... : ... .. . ... : ... .. . ... ...
ROW F1 : ... .. . ... ... ... : ... .. . ... ... ... : ... .. . ... : ... .. . ... : ... .. . ... ...
ROW F2 : ... .. . ... ... ... : ... .. . ... ... ... : ... .. . ... : ... .. . ... : ... .. . ... ...
ROW F3 : ... .. . P80 ... ... : ... .. . P81 ... ... : ... .. . ... : ... .. . ... : ... .. . ... ...
ROW F4 : ... .. 4 ... ... ... : ... .. . ... ... ... : --- .. . ... : ... .. . ... : ... .. . ... ...
ROW F5 : ... .. . ... ... ... : ... .. . ... ... ... : ... .. . ... : ... .. . ... : ... .. . ... ...
ROW F6 : ... .. . ... ... ... : ... .. . ... ... ... : F-2 00 . ... : ... .. C ... : ... .. . ... ...
ROW F7 : ... .. . P7E ... ... : ... .. . P7F ... ... : ... .. . ... : ... .. 0 ... : ... .. . ... ...
ROW F8 : ... .. . ... ... ... : ... .. . ... ... ... : ... .. . ... : ... .. . ... : ... .. . ... ...
ROW F9 : ... .. . ... ... ... : ... .. . ... ... ... : ... .. . ... : ... .. . ... : ... .. . ... ...
ROW FA : ... .. . ... ... ... : ... .. . ... ... ... : ... .. . ... : ... .. . ... : ... .. . ... ...
ROW FB : ... .. . P80 ... ... : ... .. . P81 ... ... : ... .. . ... : ... .. . ... : ... .. . ... ...
ROW FC : ... .. . ... ... ... : ... .. . ... ... ... : ... .. . ... : ... .. . ... : ... .. . ... ...
ROW FD : ... .. . ... ... ... : ... .. . ... ... ... : ... .. . ... : ... .. . ... : ... .. . ... ...
ROW FE : ... .. . ... ... ... : ... .. . ... ... ... : --- .. . ... : ... .. . ... : ... .. . ... ...
ROW FF : ... .. . P7E ... ... : ... .. . P7F ... ... : ... .. . ... : ... .. . ... : ... .. . ... ...

PATTERN 0F
ROW 00 : F#4 00 7 P7F ... ... : E-1 00 7 ... ... ... : E-2 00 . ... : ... .. C ... : ... .. . ... ...
ROW 01 : ... .. . ... ... ... : ... .. . ... ... ... : ... .. . ... : ... .. 0 ... : ... .. . ... ...
ROW 02 : ... .. 8 ... ... ... : ... .. 8 ... ... ... : ... .. . ... : ... .. . ... : ... .. . ... ...
ROW 03 : ... .. . ... ... ... : ... .. . ... ... ... : ... .. . ... : ... .. . ... : ... .. . ... ...
ROW 04 : ... .. 9 ... ... ... : ... .. 9 ... ... ... : ... .. . ... : ... .. . ... : ... .. . ... ...
ROW 05 : ... .. . ... ... ... : ... .. . ... ... ... : ... .. . ... : ... .. . ... : ... .. . ... ...
ROW 06 : ... .. . ... ... ... : ... .. . ... ... ... : ... .. . ... : ... .. . ... : ... .. . ... ...
ROW 07 : ... .. 8 ... ... ... : ... .. 8 ... ... ... : ... .. . ... : ... .. . ... : ... .. . ... ...
ROW 08 : ... .. . ... ... ... : ... .. . ... ... ... : --- .. . ... : ... .. . ... : ... .. . ... ...
ROW 09 : ... .. . ... ... ... : ... .. . ... ... ... : ... .. . ... : ... .. . ... : ... .. . ... ...
ROW 0A : ... .. . ... ... ... : ... .. . ... ... ... : ... .. . ... : ... .. . ... : ... .. . ... ...
ROW 0B : ... .. 7 ... ... ... : ... .. 7 ... ... ... : ... .. . ... : ... .. . ... : ... .. . ... ...
ROW 0C : ... .. . ... ... ... : ... .. . ... ... ... : ... .. . ... : ... .. . ... : ... .. . ... ...
ROW 0D : ... .. . ... ... ... : A#1 00 7 P80 ... ... : ... .. . ... : ... .. . ... : ... .. . ... ...
ROW 0E : ... .. . ... ... ... : ... .. . ... ... ... : ... .. . ... : ... .. . ... : ... .. . ... ...
ROW 0F : ... .. 6 P7E ... ... : ... .. 8 ... ... ... : ... .. . P7F : ... .. . ... : ... .. . ... ...
ROW 10 : ... .. . ... ... ... : ... .. . ... ... ... : ... .. . ... : ... .. . ... : ... .. . ... ...
ROW 11 : ... .. . ... ... ... : ... .. 9 ... ... ... : ... .. . ... : ... .. . ... : ... .. . ... ...
ROW 12 : ... .. . ... ... ... : ... .. . ... ... ... : ... .. . ... : ... .. . ... : ... .. . ... ...
ROW 13 : ... .. . P80 ... ... : ... .. . ... ... ... : ... .. . P81 : ... .. . ... : ... .. . ... ...
ROW 14 : ... .. . ... ... ... : ... .. 8 ... ... ... : E-2 00 . P80 : ... .. C ... : ... .. . ... ...
ROW 15 : ... .. . ... ... ... : ... .. . ... ... ... : ... .. . ... : ... .. 0 ... : ... .. . ... ...
ROW 16 : ... .. . ... ... ... : ... .. . ... ... ... : ... .. . ... : ... .. . ... : ... .. . ... ...
ROW 17 : ... .. 5 P7E ... ... : ... .. . ... ... ... : ... .. . ... : ... .. . ... : ... .. . ... ...
ROW 18 : ... .. . ... ... ... : ... .. 7 ... ... ... : ... .. . ... : ... .. . ... : ... .. . ... ...
ROW 19 : ... .. . ... ... ... : ... .. . ... ... ... : ... .. . ... : ... .. . ... : ... .. . ... ...
ROW 1A : ... .. . ... ... ... : C#2 00 7 P7F ... ... : ... .. . ... : ... .. . ... : ... .. . ... ...
ROW 1B : ... .. . P80 ... ... : ... .. . ... ... ... : ... .. . ... : ... .. . ... : ... .. . ... ...
ROW 1C : ... .. 4 ... ... ... : ... .. 8 ... ... ... : --- .. . ... : ... .. . ... : ... .. . ... ...
ROW 1D : ... .. . ... ... ... : ... .. . ... ... ... : ... .. . ... : ... .. . ... : ... .. . ... ...
ROW 1E : ... .. . ... ... ... : ... .. 9 ... ... ... : E-2 00 . ... : ... .. C ... : ... .. . ... ...
ROW 1F : ... .. . P7E ... ... : ... .. . ... ... ... : ... .. . ... : ... .. 0 ... : ... .. . ... ...
ROW 20 : ... .. . ... ... ... : ... .. . ... ... ... : ... .. . ... : ... .. . ... : ... .. . ... ...
ROW 21 : ... .. . ... ... ... : ... .. 8 ... ... ... : ... .. . ... : ... .. . ... : ... .. . ... ...
ROW 22 : ... .. . ... ... ... : ... .. . ... ... ... : ... .. . ... : ... .. . ... : ... .. . ... ...
ROW 23 : ... .. . P80 ... ... : ... .. . ... ... ... : ... .. . ... : ... .. . ... : ... .. . ... ...
ROW 24 : ... .. . ... ... ... : ... .. . ... ... ... : ... .. . ... : ... .. . ... : ... .. . ... ...
ROW 25 : ... .. . ... ... ... : ... .. 7 ... ... ... : ... .. . ... : ... .. . ... : ... .. . ... ...
ROW 26 : ... .. . ... ... ... : ... .. . ... ... ... : --- .. . ... : ... .. . ... : ... .. . ... ...
ROW 27 : ... .. . P7E ... ... : E-2 00 7 P80 ... ... : ... .. . ... : ... .. . ... : ... .. . ... ...
ROW 28 : ... .. . ... ... ... : ... .. . ... ... ... : E-2 00 . ... : ... .. C ... : ... .. . ... ...
ROW 29 : ... .. . ... ... ... : ... .. 8 ... ... ... : ... .. . ... : ... .. 0 ... : ... .. . ... ...
ROW 2A : ... .. . ... ... ... : ... .. . ... ... ... : ... .. . ... : ... .. . ... : ... .. . ... ...
ROW 2B : ... .. . P80 ... ... : ... .. 9 ... ... ... : ... .. . ... : ... .. . ... : ... .. . ... ...
ROW 2C : ... .. . ... ... ... : ... .. . ... ... ... : ... .. . ... : ... .. . ... : ... .. . ... ...
ROW 2D : ... .. . ... ... ... : ... .. . ... ... ... : ... .. . ... : ... .. . ... : ... .. . ... ...
ROW 2E : ... .. . ... ... ... : ... .. 8 ... ... ... : ... .. . ... : ... .. . ... : ... .. . ... ...
ROW 2F : ... .. . P7E ... ... : ... .. . ... ... ... : ... .. . ... : ... .. . ... : ... .. . ... ...
ROW 30 : ... .. . ... ... ... : ... .. . ... ... ... : --- .. . ... : ... .. . ... : ... .. . ... ...
ROW 31 : ... .. . ... ... ... : ... .. . ... ... ... : ... .. . ... : ... .. . ... : ... .. . ... ...
ROW 32 : ... .. . ... ... ... : ... .. 7 ... ... ... : ... .. . ... : ... .. . ... : ... .. . ... ...
ROW 33 : ... .. . P80 ... ... : ... .. . ... ... ... : ... .. . ... : ... .. . ... : ... .. . ... ...
ROW 34 : ... .. . ... ... ... : A#2 00 7 ... ... ... : ... .. . ... : ... .. . ... : ... .. . ... ...
ROW 35 : ... .. . ... ... ... : ... .. . ... ... ... : ... .. . ... : ... .. . ... : ... .. . ... ...
ROW 36 : ... .. . ... ... ... : ... .. 8 ... ... ... : ... .. . ... : ... .. . ... : ... .. . ... ...
ROW 37 : ... .. . P7E ... ... : ... .. . ... ... ... : ... .. . P7F : ... .. . ... : ... .. . ... ...
ROW 38 : ... .. . ... ... ... : ... .. 9 ... ... ... : ... .. . ... : ... .. . ... : ... .. . ... ...
ROW 39 : ... .. . ... ... ... : ... .. . ... ... ... : ... .. . ... : ... .. . ... : ... .. . ... ...
ROW 3A : ... .. . ... ... ... : ... .. . ... ... ... : ... .. . ... : ... .. . ... : ... .. . ... ...
ROW 3B : ... .. . P80 ... ... : ... .. 8 ... ... ... : ... .. . P81 : ... .. . ... : ... .. . ... ...
ROW 3C : ... .. . ... ... ... : ... .. . ... ... ... : E-2 00 . P80 : ... .. C ... : ... .. . ... ...
ROW 3D : ... .. . ... ... ... : ... .. . ... ... ... : ... .. . ... : ... .. 0 ... : ... .. . ... ...
ROW 3E : ... .. . ... ... ... : ... .. . ... ... ... : ... .. . ... : ... .. . ... : ... .. . ... ...
ROW 3F : ... .. . P7E ... ... : ... .. 7 ... ... ... : ... .. . ... : ... .. . ... : ... .. . ... ...
ROW 40 : ... .. . ... ... ... : ... .. . ... ... ... : ... .. . ... : ... .. . ... : ... .. . ... ...
ROW 41 : ... .. . ... ... ... : ... .. . ... ... ... : ... .. . ... : ... .. . ... : ... .. . ... ...
ROW 42 : ... .. . ... ... ... : C#3 00 7 ... ... ... : ... .. . ... : ... .. . ... : ... .. . ... ...
ROW 43 : ... .. . P80 ... ... : ... .. . ... ... ... : ... .. . ... : ... .. . ... : ... .. . ... ...
ROW 44 : ... .. . ... ... ... : ... .. 8 ... ... ... : --- .. . ... : ... .. . ... : ... .. . ... ...
ROW 45 : ... .. . ... ... ... : ... .. . ... ... ... : ... .. . ... : ... .. . ... : ... .. . ... ...
ROW 46 : ... .. . ... ... ... : ... .. 9 ... ... ... : E-2 00 . ... : ... .. C ... : ... .. . ... ...
ROW 47 : ... .. . P7E ... ... : ... .. . ... ... ... : ... .. . ... : ... .. 0 ... : ... .. . ... ...
ROW 48 : ... .. . ... ... ... : ... .. . ... ... ... : ... .. . ... : ... .. . ... : ... .. . ... ...
ROW 49 : ... .. . ... ... ... : ... .. 8 ... ... ... : ... .. . ... : ... .. . ... : ... .. . ... ...
ROW 4A : ... .. . ... ... ... : ... .. . ... ... ... : ... .. . ... : ... .. . ... : ... .. . ... ...
ROW 4B : ... .. . P80 ... ... : ... .. . ... ... ... : ... .. . ... : ... .. . ... : ... .. . ... ...
ROW 4C : ... .. . ... ... ... : ... .. . ... ... ... : ... .. . ... : ... .. . ... : ... .. . ... ...
ROW 4D : ... .. . ... ... ... : ... .. 7 ... ... ... : ... .. . ... : ... .. . ... : ... .. . ... ...
ROW 4E : ... .. . ... ... ... : ... .. . ... ... ... : --- .. . ... : ... .. . ... : ... .. . ... ...
ROW 4F : ... .. . P7E ... ... : ... .. . ... ... ... : ... .. . ... : ... .. . ... : ... .. . ... ...
ROW 50 : ... .. . P7F ... ... : E-3 00 7 P7F ... ... : E-2 00 . ... : ... .. C ... : ... .. . ... ...
ROW 51 : ... .. . ... ... ... : ... .. . ... ... ... : ... .. . ... : ... .. 0 ... : ... .. . ... ...
ROW 52 : ... .. . ... ... ... : ... .. 8 ... ... ... : ... .. . ... : ... .. . ... : ... .. . ... ...
ROW 53 : ... .. . ... ... ... : ... .. . ... ... ... : ... .. . ... : ... .. . ... : ... .. . ... ...
ROW 54 : ... .. . ... ... ... : ... .. 9 ... ... ... : ... .. . ... : ... .. . ... : ... .. . ... ...
ROW 55 : ... .. . ... ... ... : ... .. . ... ... ... : ... .. . ... : ... .. . ... : ... .. . ... ...
ROW 56 : ... .. . ... ... ... : ... .. . ... ... ... : ... .. . ... : ... .. . ... : ... .. . ... ...
ROW 57 : ... .. . ... ... ... : ... .. 8 ... ... ... : ... .. . ... : ... .. . ... : ... .. . ... ...
ROW 58 : ... .. . ... ... ... : ... .. . ... ... ... : --- .. . ... : ... .. . ... : ... .. . ... ...
ROW 59 : ... .. . ... ... ... : ... .. . ... ... ... : ... .. . ... : ... .. . ... : ... .. . ... ...
ROW 5A : ... .. . ... ... ... : ... .. . ... ... ... : ... .. . ... : ... .. . ... : ... .. . ... ...
ROW 5B : ... .. . ... ... ... : ... .. 7 ... ... ... : ... .. . ... : ... .. . ... : ... .. . ... ...
ROW 5C : ... .. . ... ... ... : ... .. . ... ... ... : ... .. . ... : ... .. . ... : ... .. . ... ...
ROW 5D : ... .. . ... ... ... : ... .. . ... ... ... : ... .. . ... : ... .. . ... : ... .. . ... ...
ROW 5E : ... .. . ... ... ... : ... .. . ... ... ... : ... .. . ... : ... .. . ... : ... .. . ... ...
ROW 5F : ... .. . P7E ... ... : ... .. 6 P7E ... ... : ... .. . P7F : ... .. . ... : ... .. . ... ...
ROW 60 : ... .. . ... ... ... : ... .. . ... ... ... : ... .. . ... : ... .. . ... : ... .. . ... ...
ROW 61 : ... .. . ... ... ... : ... .. . ... ... ... : ... .. . ... : ... .. . ... : ... .. . ... ...
ROW 62 : ... .. . ... ... ... : ... .. . ... ... ... : ... .. . ... : ... .. . ... : ... .. . ... ...
ROW 63 : ... .. . P80 ... ... : ... .. . P80 ... ... : ... .. . P81 : ... .. . ... : ... .. . ... ...
ROW 64 : ... .. . ... ... ... : ... .. . ... ... ... : E-2 00 . P80 : ... .. C ... : ... .. . ... ...
ROW 65 : ... .. . ... ... ... : ... .. . ... ... ... : ... .. . ... : ... .. 0 ... : ... .. . ... ...
ROW 66 : ... .. . ... ... ... : ... .. . ... ... ... : ... .. . ... : ... .. . ... : ... .. . ... ...
ROW 67 : ... .. . P7E ... ... : ... .. 5 P7E ... ... : ... .. . ... : ... .. . ... : ... .. . ... ...
ROW 68 : ... .. . ... ... ... : ... .. . ... ... ... : ... .. . ... : ... .. . ... : ... .. . ... ...
ROW 69 : ... .. . ... ... ... : ... .. . ... ... ... : ... .. . ... : ... .. . ... : ... .. . ... ...
ROW 6A : ... .. . ... ... ... : ... .. . ... ... ... : ... .. . ... : ... .. . ... : ... .. . ... ...
ROW 6B : ... .. . P80 ... ... : ... .. . P80 ... ... : ... .. . ... : ... .. . ... : ... .. . ... ...
ROW 6C : ... .. . ... ... ... : ... .. 4 ... ... ... : --- .. . ... : ... .. . ... : ... .. . ... ...
ROW 6D : ... .. . ... ... ... : ... .. . ... ... ... : ... .. . ... : ... .. . ... : ... .. . ... ...
ROW 6E : ... .. . ... ... ... : ... .. . ... ... ... : E-2 00 . ... : ... .. C ... : ... .. . ... ...
ROW 6F : ... .. . P7E ... ... : ... .. . P7E ... ... : ... .. . ... : ... .. 0 ... : ... .. . ... ...
ROW 70 : ... .. . ... ... ... : ... .. . ... ... ... : ... .. . ... : ... .. . ... : ... .. . ... ...
ROW 71 : ... .. . ... ... ... : ... .. . ... ... ... : ... .. . ... : ... .. . ... : ... .. . ... ...
ROW 72 : ... .. . ... ... ... : ... .. . ... ... ... : ... .. . ... : ... .. . ... : ... .. . ... ...
ROW 73 : ... .. . P80 ... ... : ... .. . P80 ... ... : ... .. . ... : ... .. . ... : ... .. . ... ...
ROW 74 : ... .. . ... ... ... : ... .. . ... ... ... : ... .. . ... : ... .. . ... : ... .. . ... ...
ROW 75 : ... .. . ... ... ... : ... .. . ... ... ... : ... .. . ... : ... .. . ... : ... .. . ... ...
ROW 76 : ... .. . ... ... ... : ... .. . ... ... ... : --- .. . ... : ... .. . ... : ... .. . ... ...
ROW 77 : ... .. . P7E ... ... : ... .. . P7E ... ... : ... .. . ... : ... .. . ... : ... .. . ... ...
ROW 78 : A#4 00 7 P80 ... ... : ... .. . ... ... ... : E-2 00 . ... : ... .. C ... : ... .. . ... ...
ROW 79 : ... .. . ... ... ... : ... .. . ... ... ... : ... .. . ... : ... .. 0 ... : ... .. . ... ...
ROW 7A : ... .. 8 ... ... ... : ... .. . ... ... ... : ... .. . ... : ... .. . ... : ... .. . ... ...
ROW 7B : ... .. . ... ... ... : ... .. . P80 ... ... : ... .. . ... : ... .. . ... : ... .. . ... ...
ROW 7C : ... .. 9 ... ... ... : ... .. . ... ... ... : ... .. . ... : ... .. . ... : ... .. . ... ...
ROW 7D : ... .. . ... ... ... : ... .. . ... ... ... : ... .. . ... : ... .. . ... : ... .. . ... ...
ROW 7E : ... .. . ... ... ... : ... .. . ... ... ... : ... .. . ... : ... .. . ... : ... .. . ... ...
ROW 7F : ... .. 8 ... ... ... : ... .. . P7E ... ... : ... .. . ... : ... .. . ... : ... .. . ... ...
ROW 80 : ... .. . ... ... ... : ... .. . ... ... ... : --- .. . ... : ... .. . ... : ... .. . ... ...
ROW 81 : ... .. . ... ... ... : ... .. . ... ... ... : ... .. . ... : ... .. . ... : ... .. . ... ...
ROW 82 : ... .. . ... ... ... : ... .. . ... ... ... : ... .. . ... : ... .. . ... : ... .. . ... ...
ROW 83 : ... .. 7 ... ... ... : ... .. . P80 ... ... : ... .. . ... : ... .. . ... : ... .. . ... ...
ROW 84 : ... .. . ... ... ... : ... .. . ... ... ... : ... .. . ... : ... .. . ... : ... .. . ... ...
ROW 85 : ... .. . ... ... ... : ... .. . ... ... ... : ... .. . ... : ... .. . ... : ... .. . ... ...
ROW 86 : ... .. . ... ... ... : ... .. . ... ... ... : ... .. . ... : ... .. . ... : ... .. . ... ...
ROW 87 : ... .. 6 P7F ... ... : ... .. . P7E ... ... : ... .. . P7F : ... .. . ... : ... .. . ... ...
ROW 88 : ... .. . ... ... ... : ... .. . ... ... ... : ... .. . ... : ... .. . ... : ... .. . ... ...
ROW 89 : ... .. . ... ... ... : ... .. . ... ... ... : ... .. . ... : ... .. . ... : ... .. . ... ...
ROW 8A : ... .. . ... ... ... : ... .. . ... ... ... : ... .. . ... : ... .. . ... : ... .. . ... ...
ROW 8B : ... .. . P81 ... ... : ... .. . P80 ... ... : ... .. . P81 : ... .. . ... : ... .. . ... ...
ROW 8C : ... .. . ... ... ... : ... .. . ... ... ... : E-2 00 . P80 : ... .. C ... : ... .. . ... ...
ROW 8D : ... .. . ... ... ... : ... .. . ... ... ... : ... .. . ... : ... .. 0 ... : ... .. . ... ...
ROW 8E : ... .. . ... ... ... : ... .. . ... ... ... : ... .. . ... : ... .. . ... : ... .. . ... ...
ROW 8F : ... .. 5 P7F ... ... : ... .. . P7E ... ... : ... .. . ... : ... .. . ... : ... .. . ... ...
ROW 90 : ... .. . ... ... ... : ... .. . ... ... ... : ... .. . ... : ... .. . ... : ... .. . ... ...
ROW 91 : ... .. . ... ... ... : ... .. . ... ... ... : ... .. . ... : ... .. . ... : ... .. . ... ...
ROW 92 : ... .. . ... ... ... : ... .. . ... ... ... : ... .. . ... : ... .. . ... : ... .. . ... ...
ROW 93 : ... .. . P81 ... ... : ... .. . P80 ... ... : ... .. . ... : ... .. . ... : ... .. . ... ...
ROW 94 : ... .. 4 ... ... ... : ... .. . ... ... ... : --- .. . ... : ... .. . ... : ... .. . ... ...
ROW 95 : ... .. . ... ... ... : ... .. . ... ... ... : ... .. . ... : ... .. . ... : ... .. . ... ...
ROW 96 : ... .. . ... ... ... : ... .. . ... ... ... : E-2 00 . ... : ... .. C ... : ... .. . ... ...
ROW 97 : ... .. . P7F ... ... : ... .. . P7E ... ... : ... .. . ... : ... .. 0 ... : ... .. . ... ...
ROW 98 : ... .. . ... ... ... : ... .. . ... ... ... : ... .. . ... : ... .. . ... : ... .. . ... ...
ROW 99 : ... .. . ... ... ... : ... .. . ... ... ... : ... .. . ... : ... .. . ... : ... .. . ... ...
ROW 9A : ... .. . ... ... ... : ... .. . ... ... ... : ... .. . ... : ... .. . ... : ... .. . ... ...
ROW 9B : ... .. . P81 ... ... : ... .. . P80 ... ... : ... .. . ... : ... .. . ... : ... .. . ... ...
ROW 9C : ... .. . ... ... ... : ... .. . ... ... ... : ... .. . ... : ... .. . ... : ... .. . ... ...
ROW 9D : ... .. . ... ... ... : ... .. . ... ... ... : ... .. . ... : ... .. . ... : ... .. . ... ...
ROW 9E : ... .. . ... ... ... : ... .. . ... ... ... : --- .. . ... : ... .. . ... : ... .. . ... ...
ROW 9F : ... .. . P7F ... ... : ... .. . P7E ... ... : ... .. . ... : ... .. . ... : ... .. . ... ...
ROW A0 : A-4 00 7 P80 ... ... : F-3 00 7 P7F ... ... : F-2 00 . ... : ... .. C ... : ... .. . ... ...
ROW A1 : ... .. . ... ... ... : ... .. . ... ... ... : ... .. . ... : ... .. 0 ... : ... .. . ... ...
ROW A2 : ... .. 8 ... ... ... : ... .. 8 ... ... ... : ... .. . ... : ... .. . ... : ... .. . ... ...
ROW A3 : ... .. . ... ... ... : ... .. . ... ... ... : ... .. . ... : ... .. . ... : ... .. . ... ...
ROW A4 : ... .. 9 ... ... ... : ... .. 9 ... ... ... : ... .. . ... : ... .. . ... : ... .. . ... ...
ROW A5 : ... .. . ... ... ... : ... .. . ... ... ... : ... .. . ... : ... .. . ... : ... .. . ... ...
ROW A6 : ... .. . ... ... ... : ... .. . ... ... ... : ... .. . ... : ... .. . ... : ... .. . ... ...
ROW A7 : ... .. 8 ... ... ... : ... .. 8 ... ... ... : ... .. . ... : ... .. . ... : ... .. . ... ...
ROW A8 : ... .. . ... ... ... : ... .. . ... ... ... : --- .. . ... : ... .. . ... : ... .. . ... ...
ROW A9 : ... .. . ... ... ... : ... .. . ... ... ... : ... .. . ... : ... .. . ... : ... .. . ... ...
ROW AA : ... .. . ... ... ... : ... .. . ... ... ... : ... .. . ... : ... .. . ... : ... .. . ... ...
ROW AB : ... .. 7 ... ... ... : ... .. 7 ... ... ... : ... .. . ... : ... .. . ... : ... .. . ... ...
ROW AC : ... .. . ... ... ... : ... .. . ... ... ... : ... .. . ... : ... .. . ... : ... .. . ... ...
ROW AD : ... .. . ... ... ... : ... .. . ... ... ... : ... .. . ... : ... .. . ... : ... .. . ... ...
ROW AE : ... .. . ... ... ... : ... .. . ... ... ... : ... .. . ... : ... .. . ... : ... .. . ... ...
ROW AF : ... .. 6 P7F ... ... : ... .. 6 P7E ... ... : ... .. . P7F : ... .. . ... : ... .. . ... ...
ROW B0 : ... .. . ... ... ... : ... .. . ... ... ... : ... .. . ... : ... .. . ... : ... .. . ... ...
ROW B1 : ... .. . ... ... ... : ... .. . ... ... ... : ... .. . ... : ... .. . ... : ... .. . ... ...
ROW B2 : ... .. . ... ... ... : ... .. . ... ... ... : ... .. . ... : ... .. . ... : ... .. . ... ...
ROW B3 : ... .. . P81 ... ... : ... .. . P80 ... ... : ... .. . P81 : ... .. . ... : ... .. . ... ...
ROW B4 : ... .. 4 P80 ... ... : ... .. . ... ... ... : F-2 00 . P80 : ... .. C ... : ... .. . ... ...
ROW B5 : ... .. . ... ... ... : ... .. . ... ... ... : ... .. . ... : ... .. 0 ... : ... .. . ... ...
ROW B6 : ... .. . ... ... ... : ... .. . ... ... ... : ... .. . ... : ... .. . ... : ... .. . ... ...
ROW B7 : ... .. . ... ... ... : ... .. 5 P7E ... ... : ... .. . ... : ... .. . ... : ... .. . ... ...
ROW B8 : ... .. . ... ... ... : ... .. . ... ... ... : ... .. . ... : ... .. . ... : ... .. . ... ...
ROW B9 : ... .. . ... ... ... : ... .. . ... ... ... : ... .. . ... : ... .. . ... : ... .. . ... ...
ROW BA : ... .. . ... ... ... : ... .. . ... ... ... : ... .. . ... : ... .. . ... : ... .. . ... ...
ROW BB : ... .. . ... ... ... : ... .. . P80 ... ... : ... .. . ... : ... .. . ... : ... .. . ... ...
ROW BC : ... .. . ... ... ... : ... .. 4 ... ... ... : --- .. . ... : ... .. . ... : ... .. . ... ...
ROW BD : ... .. . ... ... ... : ... .. . ... ... ... : ... .. . ... : ... .. . ... : ... .. . ... ...
ROW BE : ... .. . ... ... ... : ... .. . ... ... ... : F-2 00 . ... : ... .. C ... : ... .. . ... ...
ROW BF : ... .. . ... ... ... : ... .. . P7E ... ... : ... .. . ... : ... .. 0 ... : ... .. . ... ...
ROW C0 : ... .. . ... ... ... : ... .. . ... ... ... : ... .. . ... : ... .. . ... : ... .. . ... ...
ROW C1 : ... .. . ... ... ... : ... .. . ... ... ... : ... .. . ... : ... .. . ... : ... .. . ... ...
ROW C2 : ... .. . ... ... ... : ... .. . ... ... ... : ... .. . ... : ... .. . ... : ... .. . ... ...
ROW C3 : ... .. . P7F ... ... : ... .. . P80 ... ... : ... .. . ... : ... .. . ... : ... .. . ... ...
ROW C4 : ... .. . ... ... ... : ... .. . ... ... ... : ... .. . ... : ... .. . ... : ... .. . ... ...
ROW C5 : ... .. . ... ... ... : ... .. . ... ... ... : ... .. . ... : ... .. . ... : ... .. . ... ...
ROW C6 : ... .. . ... ... ... : ... .. . ... ... ... : --- .. . ... : ... .. . ... : ... .. . ... ...
ROW C7 : ... .. . P81 ... ... : ... .. . P7E ... ... : ... .. . ... : ... .. . ... : ... .. . ... ...
ROW C8 : F-4 00 7 P7F ... ... : F-2 00 7 P80 ... ... : F-2 00 . ... : ... .. C ... : ... .. . ... ...
ROW C9 : ... .. . ... ... ... : ... .. . ... ... ... : ... .. . ... : ... .. 0 ... : ... .. . ... ...
ROW CA : ... .. 8 ... ... ... : ... .. 8 ... ... ... : ... .. . ... : ... .. . ... : ... .. . ... ...
ROW CB : ... .. . ... ... ... : ... .. . ... ... ... : ... .. . ... : ... .. . ... : ... .. . ... ...
ROW CC : ... .. 9 ... ... ... : ... .. 9 ... ... ... : ... .. . ... : ... .. . ... : ... .. . ... ...
ROW CD : ... .. . ... ... ... : ... .. . ... ... ... : ... .. . ... : ... .. . ... : ... .. . ... ...
ROW CE : ... .. . ... ... ... : ... .. . ... ... ... : ... .. . ... : ... .. . ... : ... .. . ... ...
ROW CF : ... .. 8 ... ... ... : ... .. 8 ... ... ... : ... .. . ... : ... .. . ... : ... .. . ... ...
ROW D0 : ... .. . ... ... ... : ... .. . ... ... ... : --- .. . ... : ... .. . ... : ... .. . ... ...
ROW D1 : ... .. . ... ... ... : ... .. . ... ... ... : ... .. . ... : ... .. . ... : ... .. . ... ...
ROW D2 : ... .. . ... ... ... : ... .. . ... ... ... : ... .. . ... : ... .. . ... : ... .. . ... ...
ROW D3 : ... .. 7 ... ... ... : ... .. 7 ... ... ... : ... .. . ... : ... .. . ... : ... .. . ... ...
ROW D4 : ... .. . ... ... ... : ... .. . ... ... ... : ... .. . ... : ... .. . ... : ... .. . ... ...
ROW D5 : ... .. . ... ... ... : ... .. . ... ... ... : ... .. . ... : ... .. . ... : ... .. . ... ...
ROW D6 : ... .. . ... ... ... : ... .. . ... ... ... : ... .. . ... : ... .. . ... : ... .. . ... ...
ROW D7 : ... .. 6 P7E ... ... : ... .. 8 ... ... ... : ... .. . P7F : ... .. . ... : ... .. . ... ...
ROW D8 : ... .. . ... ... ... : ... .. . ... ... ... : ... .. . ... : ... .. . ... : ... .. . ... ...
ROW D9 : ... .. . ... ... ... : ... .. 9 ... ... ... : ... .. . ... : ... .. . ... : ... .. . ... ...
ROW DA : ... .. . ... ... ... : ... .. . ... ... ... : ... .. . ... : ... .. . ... : ... .. . ... ...
ROW DB : ... .. . P80 ... ... : ... .. . ... ... ... : ... .. . P81 : ... .. . ... : ... .. . ... ...
ROW DC : ... .. . ... ... ... : ... .. 8 ... ... ... : F-2 00 . P80 : ... .. C ... : ... .. . ... ...
ROW DD : ... .. . ... ... ... : ... .. . ... ... ... : ... .. . ... : ... .. 0 ... : ... .. . ... ...
ROW DE : ... .. . ... ... ... : ... .. . ... ... ... : ... .. . ... : ... .. . ... : ... .. . ... ...
ROW DF : ... .. 5 P7E ... ... : ... .. . ... ... ... : ... .. . ... : ... .. . ... : ... .. . ... ...
ROW E0 : ... .. . ... ... ... : ... .. 7 ... ... ... : ... .. . ... : ... .. . ... : ... .. . ... ...
ROW E1 : ... .. . ... ... ... : ... .. . ... ... ... : ... .. . ... : ... .. . ... : ... .. . ... ...
ROW E2 : ... .. . ... ... ... : ... .. . ... ... ... : ... .. . ... : ... .. . ... : ... .. . ... ...
ROW E3 : ... .. . P80 ... ... : ... .. . ... ... ... : ... .. . ... : ... .. . ... : ... .. . ... ...
ROW E4 : ... .. 4 ... ... ... : ... .. 8 ... ... ... : --- .. . ... : ... .. . ... : ... .. . ... ...
ROW E5 : ... .. . ... ... ... : ... .. . ... ... ... : ... .. . ... : ... .. . ... : ... .. . ... ...
ROW E6 : ... .. . ... ... ... : ... .. 9 ... ... ... : F-2 00 . ... : ... .. C ... : ... .. . ... ...
ROW E7 : ... .. . P7E ... ... : ... .. . ... ... ... : ... .. . ... : ... .. 0 ... : ... .. . ... ...
ROW E8 : ... .. . ... ... ... : ... .. . ... ... ... : ... .. . ... : ... .. . ... : ... .. . ... ...
ROW E9 : ... .. . ... ... ... : ... .. 8 ... ... ... : ... .. . ... : ... .. . ... : ... .. . ... ...
ROW EA : ... .. . ... ... ... : ... .. . ... ... ... : ... .. . ... : ... .. . ... : ... .. . ... ...
ROW EB : ... .. . P80 ... ... : ... .. . ... ... ... : ... .. . ... : ... .. . ... : ... .. . ... ...
ROW EC : ... .. . ... ... ... : ... .. . ... ... ... : ... .. . ... : ... .. . ... : ... .. . ... ...
ROW ED : ... .. . ... ... ... : ... .. 7 ... ... ... : ... .. . ... : ... .. . ... : ... .. . ... ...
ROW EE : ... .. . ... ... ... : ... .. . ... ... ... : --- .. . ... : ... .. . ... : ... .. . ... ...
ROW EF : ... .. . P7E ... ... : ... .. . ... ... ... : ... .. . ... : ... .. . ... : ... .. . ... ...
ROW F0 : ... .. . ... ... ... : ... .. . ... ... ... : F-2 00 . ... : ... .. C ... : ... .. . ... ...
ROW F1 : ... .. . ... ... ... : ... .. . ... ... ... : ... .. . ... : ... .. 0 ... : ... .. . ... ...
ROW F2 : ... .. . ... ... ... : ... .. 8 ... ... ... : ... .. . ... : ... .. . ... : ... .. . ... ...
ROW F3 : ... .. . P80 ... ... : ... .. . ... ... ... : ... .. . ... : ... .. . ... : ... .. . ... ...
ROW F4 : ... .. . ... ... ... : ... .. 9 ... ... ... : ... .. . ... : ... .. . ... : ... .. . ... ...
ROW F5 : ... .. . ... ... ... : ... .. . ... ... ... : ... .. . ... : ... .. . ... : ... .. . ... ...
ROW F6 : ... .. . ... ... ... : ... .. . ... ... ... : ... .. . ... : ... .. . ... : ... .. . ... ...
ROW F7 : ... .. . P7E ... ... : ... .. 8 ... ... ... : ... .. . ... : ... .. . ... : ... .. . ... ...
ROW F8 : ... .. . ... ... ... : ... .. . ... ... ... : --- .. . ... : ... .. . ... : ... .. . ... ...
ROW F9 : ... .. . ... ... ... : ... .. . ... ... ... : ... .. . ... : ... .. . ... : ... .. . ... ...
ROW FA : ... .. . ... ... ... : ... .. . ... ... ... : ... .. . ... : ... .. . ... : ... .. . ... ...
ROW FB : ... .. . P80 ... ... : ... .. 7 ... ... ... : ... .. . ... : ... .. . ... : ... .. . ... ...
ROW FC : ... .. . ... ... ... : ... .. . ... ... ... : ... .. . ... : ... .. . ... : ... .. . ... ...
ROW FD : ... .. . ... ... ... : ... .. . ... ... ... : ... .. . ... : ... .. . ... : ... .. . ... ...
ROW FE : ... .. . ... ... ... : ... .. . ... ... ... : ... .. . ... : ... .. . ... : ... .. . ... ...
ROW FF : ... .. . P7E ... ... : ... .. 6 P7F ... ... : ... .. . P7F : ... .. . ... : ... .. . ... ...

PATTERN 10
ROW 00 : ... .. . ... ... ... : ... .. . ... ... ... : ... .. . ... : ... .. . ... : ... .. . ... ...
ROW 01 : ... .. . ... ... ... : ... .. . ... ... ... : ... .. . ... : ... .. . ... : ... .. . ... ...
ROW 02 : ... .. . ... ... ... : ... .. . ... ... ... : ... .. . ... : ... .. . ... : ... .. . ... ...
ROW 03 : ... .. . P80 ... ... : ... .. . P81 ... ... : ... .. . P81 : ... .. . ... : ... .. . ... ...
ROW 04 : ... .. . ... ... ... : ... .. . ... ... ... : F-2 00 . P80 : ... .. C ... : ... .. . ... ...
ROW 05 : ... .. . ... ... ... : ... .. . ... ... ... : ... .. . ... : ... .. 0 ... : ... .. . ... ...
ROW 06 : ... .. . ... ... ... : ... .. . ... ... ... : ... .. . ... : ... .. . ... : ... .. . ... ...
ROW 07 : ... .. . P7E ... ... : ... .. 5 P7F ... ... : ... .. . ... : ... .. . ... : ... .. . ... ...
ROW 08 : ... .. . ... ... ... : ... .. . ... ... ... : ... .. . ... : ... .. . ... : ... .. . ... ...
ROW 09 : ... .. . ... ... ... : ... .. . ... ... ... : ... .. . ... : ... .. . ... : ... .. . ... ...
ROW 0A : ... .. . ... ... ... : ... .. . ... ... ... : ... .. . ... : ... .. . ... : ... .. . ... ...
ROW 0B : ... .. . P80 ... ... : ... .. . P81 ... ... : ... .. . ... : ... .. . ... : ... .. . ... ...
ROW 0C : ... .. . ... ... ... : ... .. 4 ... ... ... : --- .. . ... : ... .. . ... : ... .. . ... ...
ROW 0D : ... .. . ... ... ... : ... .. . ... ... ... : ... .. . ... : ... .. . ... : ... .. . ... ...
ROW 0E : ... .. . ... ... ... : ... .. . ... ... ... : F-2 00 . ... : ... .. C ... : ... .. . ... ...
ROW 0F : ... .. . P7E ... ... : ... .. . P7F ... ... : ... .. . ... : ... .. 0 ... : ... .. . ... ...
ROW 10 : ... .. . ... ... ... : ... .. . ... ... ... : ... .. . ... : ... .. . ... : ... .. . ... ...
ROW 11 : ... .. . ... ... ... : ... .. . ... ... ... : ... .. . ... : ... .. . ... : ... .. . ... ...
ROW 12 : ... .. . ... ... ... : ... .. . ... ... ... : ... .. . ... : ... .. . ... : ... .. . ... ...
ROW 13 : ... .. . P80 ... ... : ... .. . P81 ... ... : ... .. . ... : ... .. . ... : ... .. . ... ...
ROW 14 : ... .. . ... ... ... : ... .. . ... ... ... : ... .. . ... : ... .. . ... : ... .. . ... ...
ROW 15 : ... .. . ... ... ... : ... .. . ... ... ... : ... .. . ... : ... .. . ... : ... .. . ... ...
ROW 16 : ... .. . ... ... ... : ... .. . ... ... ... : --- .. . ... : ... .. . ... : ... .. . ... ...
ROW 17 : ... .. . P7E ... ... : ... .. . P7F ... ... : ... .. . ... : ... .. . ... : ... .. . ... ...
ROW 18 : D-4 00 7 P7F ... ... : ... .. . ... ... ... : F-2 00 . ... : ... .. C ... : ... .. . ... ...
ROW 19 : ... .. . ... ... ... : ... .. . ... ... ... : ... .. . ... : ... .. 0 ... : ... .. . ... ...
ROW 1A : ... .. 8 ... ... ... : ... .. . ... ... ... : ... .. . ... : ... .. . ... : ... .. . ... ...
ROW 1B : ... .. . ... ... ... : ... .. . P81 ... ... : ... .. . ... : ... .. . ... : ... .. . ... ...
ROW 1C : ... .. 9 ... ... ... : ... .. . ... ... ... : ... .. . ... : ... .. . ... : ... .. . ... ...
ROW 1D : ... .. . ... ... ... : ... .. . ... ... ... : ... .. . ... : ... .. . ... : ... .. . ... ...
ROW 1E : ... .. . ... ... ... : ... .. . ... ... ... : ... .. . ... : ... .. . ... : ... .. . ... ...
ROW 1F : ... .. 8 ... ... ... : ... .. . P7F ... ... : ... .. . ... : ... .. . ... : ... .. . ... ...
ROW 20 : ... .. . ... ... ... : ... .. . ... ... ... : --- .. . ... : ... .. . ... : ... .. . ... ...
ROW 21 : ... .. . ... ... ... : ... .. . ... ... ... : ... .. . ... : ... .. . ... : ... .. . ... ...
ROW 22 : ... .. . ... ... ... : ... .. . ... ... ... : ... .. . ... : ... .. . ... : ... .. . ... ...
ROW 23 : ... .. 7 ... ... ... : ... .. . P81 ... ... : ... .. . ... : ... .. . ... : ... .. . ... ...
ROW 24 : ... .. . ... ... ... : ... .. . ... ... ... : ... .. . ... : ... .. . ... : ... .. . ... ...
ROW 25 : ... .. . ... ... ... : ... .. . ... ... ... : ... .. . ... : ... .. . ... : ... .. . ... ...
ROW 26 : ... .. . ... ... ... : ... .. . ... ... ... : ... .. . ... : ... .. . ... : ... .. . ... ...
ROW 27 : ... .. 6 P7E ... ... : ... .. . P7F ... ... : ... .. . P7F : ... .. . ... : ... .. . ... ...
ROW 28 : ... .. . ... ... ... : ... .. . ... ... ... : ... .. . ... : ... .. . ... : ... .. . ... ...
ROW 29 : ... .. . ... ... ... : ... .. . ... ... ... : ... .. . ... : ... .. . ... : ... .. . ... ...
ROW 2A : ... .. . ... ... ... : ... .. . ... ... ... : ... .. . ... : ... .. . ... : ... .. . ... ...
ROW 2B : ... .. . P80 ... ... : ... .. . P81 ... ... : ... .. . P81 : ... .. . ... : ... .. . ... ...
ROW 2C : ... .. . ... ... ... : ... .. . ... ... ... : F-2 00 . P80 : ... .. C ... : ... .. . ... ...
ROW 2D : ... .. . ... ... ... : ... .. . ... ... ... : ... .. . ... : ... .. 0 ... : ... .. . ... ...
ROW 2E : ... .. . ... ... ... : ... .. . ... ... ... : ... .. . ... : ... .. . ... : ... .. . ... ...
ROW 2F : ... .. 5 P7E ... ... : ... .. . P7F ... ... : ... .. . ... : ... .. . ... : ... .. . ... ...
ROW 30 : ... .. . ... ... ... : ... .. . ... ... ... : ... .. . ... : ... .. . ... : ... .. . ... ...
ROW 31 : ... .. . ... ... ... : ... .. . ... ... ... : ... .. . ... : ... .. . ... : ... .. . ... ...
ROW 32 : ... .. . ... ... ... : ... .. . ... ... ... : ... .. . ... : ... .. . ... : ... .. . ... ...
ROW 33 : ... .. . P80 ... ... : ... .. . P81 ... ... : ... .. . ... : ... .. . ... : ... .. . ... ...
ROW 34 : ... .. 4 ... ... ... : ... .. . ... ... ... : --- .. . ... : ... .. . ... : ... .. . ... ...
ROW 35 : ... .. . ... ... ... : ... .. . ... ... ... : ... .. . ... : ... .. . ... : ... .. . ... ...
ROW 36 : ... .. . ... ... ... : ... .. . ... ... ... : F-2 00 . ... : ... .. C ... : ... .. . ... ...
ROW 37 : ... .. . P7E ... ... : ... .. . P7F ... ... : ... .. . ... : ... .. 0 ... : ... .. . ... ...
ROW 38 : ... .. . ... ... ... : ... .. . ... ... ... : ... .. . ... : ... .. . ... : ... .. . ... ...
ROW 39 : ... .. . ... ... ... : ... .. . ... ... ... : ... .. . ... : ... .. . ... : ... .. . ... ...
ROW 3A : ... .. . ... ... ... : ... .. . ... ... ... : ... .. . ... : ... .. . ... : ... .. . ... ...
ROW 3B : ... .. . P80 ... ... : ... .. . P81 ... ... : ... .. . ... : ... .. . ... : ... .. . ... ...
ROW 3C : ... .. . ... ... ... : ... .. . ... ... ... : ... .. . ... : ... .. . ... : ... .. . ... ...
ROW 3D : ... .. . ... ... ... : ... .. . ... ... ... : ... .. . ... : ... .. . ... : ... .. . ... ...
ROW 3E : ... .. . ... ... ... : ... .. . ... ... ... : --- .. . ... : ... .. . ... : ... .. . ... ...
ROW 3F : ... .. . P7E ... ... : ... .. . P7F ... ... : ... .. . ... : ... .. . ... : ... .. . ... ...
ROW 40 : D#4 00 7 P80 ... ... : F#3 00 7 ... ... ... : B-2 00 . ... : ... .. C ... : ... .. . ... ...
ROW 41 : ... .. . ... ... ... : ... .. . ... ... ... : ... .. . ... : ... .. 0 ... : ... .. . ... ...
ROW 42 : ... .. 8 ... ... ... : ... .. 8 ... ... ... : ... .. . ... : ... .. . ... : ... .. . ... ...
ROW 43 : ... .. . ... ... ... : ... .. . ... ... ... : ... .. . ... : ... .. . ... : ... .. . ... ...
ROW 44 : ... .. 9 ... ... ... : ... .. 9 ... ... ... : ... .. . ... : ... .. . ... : ... .. . ... ...
ROW 45 : ... .. . ... ... ... : ... .. . ... ... ... : ... .. . ... : ... .. . ... : ... .. . ... ...
ROW 46 : ... .. . ... ... ... : ... .. . ... ... ... : ... .. . ... : ... .. . ... : ... .. . ... ...
ROW 47 : ... .. 8 ... ... ... : ... .. 8 ... ... ... : ... .. . ... : ... .. . ... : ... .. . ... ...
ROW 48 : ... .. . ... ... ... : ... .. . ... ... ... : --- .. . ... : ... .. . ... : ... .. . ... ...
ROW 49 : ... .. . ... ... ... : ... .. . ... ... ... : ... .. . ... : ... .. . ... : ... .. . ... ...
ROW 4A : ... .. . ... ... ... : ... .. . ... ... ... : ... .. . ... : ... .. . ... : ... .. . ... ...
ROW 4B : ... .. 7 ... ... ... : ... .. 7 ... ... ... : ... .. . ... : ... .. . ... : ... .. . ... ...
ROW 4C : ... .. . ... ... ... : ... .. . ... ... ... : ... .. . ... : ... .. . ... : ... .. . ... ...
ROW 4D : ... .. . ... ... ... : ... .. . ... ... ... : ... .. . ... : ... .. . ... : ... .. . ... ...
ROW 4E : ... .. . ... ... ... : ... .. . ... ... ... : ... .. . ... : ... .. . ... : ... .. . ... ...
ROW 4F : ... .. 6 P7F ... ... : ... .. 6 P7E ... ... : ... .. . P7F : ... .. . ... : ... .. . ... ...
ROW 50 : ... .. . ... ... ... : ... .. . ... ... ... : ... .. . ... : ... .. . ... : ... .. . ... ...
ROW 51 : ... .. . ... ... ... : ... .. . ... ... ... : ... .. . ... : ... .. . ... : ... .. . ... ...
ROW 52 : ... .. . ... ... ... : ... .. . ... ... ... : ... .. . ... : ... .. . ... : ... .. . ... ...
ROW 53 : ... .. . P81 ... ... : ... .. . P80 ... ... : ... .. . P81 : ... .. . ... : ... .. . ... ...
ROW 54 : ... .. . ... ... ... : ... .. . ... ... ... : B-2 00 . P80 : ... .. C ... : ... .. . ... ...
ROW 55 : ... .. . ... ... ... : ... .. . ... ... ... : ... .. . ... : ... .. 0 ... : ... .. . ... ...
ROW 56 : ... .. . ... ... ... : ... .. . ... ... ... : ... .. . ... : ... .. . ... : ... .. . ... ...
ROW 57 : ... .. 5 P7F ... ... : ... .. 5 P7E ... ... : ... .. . ... : ... .. . ... : ... .. . ... ...
ROW 58 : ... .. . ... ... ... : ... .. . ... ... ... : ... .. . ... : ... .. . ... : ... .. . ... ...
ROW 59 : ... .. . ... ... ... : ... .. . ... ... ... : ... .. . ... : ... .. . ... : ... .. . ... ...
ROW 5A : ... .. . ... ... ... : ... .. . ... ... ... : ... .. . ... : ... .. . ... : ... .. . ... ...
ROW 5B : ... .. . P81 ... ... : ... .. . P80 ... ... : ... .. . ... : ... .. . ... : ... .. . ... ...
ROW 5C : ... .. 4 ... ... ... : ... .. 4 ... ... ... : --- .. . ... : ... .. . ... : ... .. . ... ...
ROW 5D : ... .. . ... ... ... : ... .. . ... ... ... : ... .. . ... : ... .. . ... : ... .. . ... ...
ROW 5E : ... .. . ... ... ... : ... .. . ... ... ... : B-2 00 . ... : ... .. C ... : ... .. . ... ...
ROW 5F : ... .. . P7F ... ... : ... .. . P7E ... ... : ... .. . ... : ... .. 0 ... : ... .. . ... ...
ROW 60 : ... .. . ... ... ... : ... .. . ... ... ... : ... .. . ... : ... .. . ... : ... .. . ... ...
ROW 61 : ... .. . ... ... ... : ... .. . ... ... ... : ... .. . ... : ... .. . ... : ... .. . ... ...
ROW 62 : ... .. . ... ... ... : ... .. . ... ... ... : ... .. . ... : ... .. . ... : ... .. . ... ...
ROW 63 : ... .. . P81 ... ... : ... .. . P80 ... ... : ... .. . ... : ... .. . ... : ... .. . ... ...
ROW 64 : ... .. . ... ... ... : ... .. . ... ... ... : ... .. . ... : ... .. . ... : ... .. . ... ...
ROW 65 : ... .. . ... ... ... : ... .. . ... ... ... : ... .. . ... : ... .. . ... : ... .. . ... ...
ROW 66 : ... .. . ... ... ... : ... .. . ... ... ... : --- .. . ... : ... .. . ... : ... .. . ... ...
ROW 67 : ... .. . P7F ... ... : ... .. . P7E ... ... : ... .. . ... : ... .. . ... : ... .. . ... ...
ROW 68 : ... .. . ... ... ... : ... .. . ... ... ... : B-2 00 . ... : ... .. C ... : ... .. . ... ...
ROW 69 : ... .. . ... ... ... : ... .. . ... ... ... : ... .. . ... : ... .. 0 ... : ... .. . ... ...
ROW 6A : ... .. . ... ... ... : ... .. . ... ... ... : ... .. . ... : ... .. . ... : ... .. . ... ...
ROW 6B : ... .. . P81 ... ... : ... .. . P80 ... ... : ... .. . ... : ... .. . ... : ... .. . ... ...
ROW 6C : ... .. . ... ... ... : ... .. . ... ... ... : ... .. . ... : ... .. . ... : ... .. . ... ...
ROW 6D : ... .. . ... ... ... : ... .. . ... ... ... : ... .. . ... : ... .. . ... : ... .. . ... ...
ROW 6E : ... .. . ... ... ... : ... .. . ... ... ... : ... .. . ... : ... .. . ... : ... .. . ... ...
ROW 6F : ... .. . P7F ... ... : ... .. . P7E ... ... : ... .. . ... : ... .. . ... : ... .. . ... ...
ROW 70 : ... .. . ... ... ... : ... .. . ... ... ... : --- .. . ... : ... .. . ... : ... .. . ... ...
ROW 71 : ... .. . ... ... ... : ... .. . ... ... ... : ... .. . ... : ... .. . ... : ... .. . ... ...
ROW 72 : ... .. . ... ... ... : ... .. . ... ... ... : ... .. . ... : ... .. . ... : ... .. . ... ...
ROW 73 : ... .. . P81 ... ... : ... .. . P80 ... ... : ... .. . ... : ... .. . ... : ... .. . ... ...
ROW 74 : ... .. . ... ... ... : ... .. . ... ... ... : ... .. . ... : ... .. . ... : ... .. . ... ...
ROW 75 : ... .. . ... ... ... : ... .. . ... ... ... : ... .. . ... : ... .. . ... : ... .. . ... ...
ROW 76 : ... .. . ... ... ... : ... .. . ... ... ... : ... .. . ... : ... .. . ... : ... .. . ... ...
ROW 77 : ... .. . P7F ... ... : ... .. . P7E ... ... : ... .. . P7F : ... .. . ... : ... .. . ... ...
ROW 78 : ... .. . ... ... ... : ... .. . ... ... ... : ... .. . ... : ... .. . ... : ... .. . ... ...
ROW 79 : ... .. . ... ... ... : ... .. . ... ... ... : ... .. . ... : ... .. . ... : ... .. . ... ...
ROW 7A : ... .. . ... ... ... : ... .. . ... ... ... : ... .. . ... : ... .. . ... : ... .. . ... ...
ROW 7B : ... .. . P81 ... ... : ... .. . P80 ... ... : ... .. . P81 : ... .. . ... : ... .. . ... ...
ROW 7C : ... .. . ... ... ... : ... .. . ... ... ... : B-2 00 . P80 : ... .. C ... : ... .. . ... ...
ROW 7D : ... .. . ... ... ... : ... .. . ... ... ... : ... .. . ... : ... .. 0 ... : ... .. . ... ...
ROW 7E : ... .. . ... ... ... : ... .. . ... ... ... : ... .. . ... : ... .. . ... : ... .. . ... ...
ROW 7F : ... .. . P7F ... ... : ... .. . P7E ... ... : ... .. . ... : ... .. . ... : ... .. . ... ...
ROW 80 : ... .. . ... ... ... : ... .. . ... ... ... : ... .. . ... : ... .. . ... : ... .. . ... ...
ROW 81 : ... .. . ... ... ... : ... .. . ... ... ... : ... .. . ... : ... .. . ... : ... .. . ... ...
ROW 82 : ... .. . ... ... ... : ... .. . ... ... ... : ... .. . ... : ... .. . ... : ... .. . ... ...
ROW 83 : ... .. . P81 ... ... : ... .. . P80 ... ... : ... .. . ... : ... .. . ... : ... .. . ... ...
ROW 84 : ... .. . ... ... ... : ... .. . ... ... ... : --- .. . ... : ... .. . ... : ... .. . ... ...
ROW 85 : ... .. . ... ... ... : ... .. . ... ... ... : ... .. . ... : ... .. . ... : ... .. . ... ...
ROW 86 : ... .. . ... ... ... : ... .. . ... ... ... : B-2 00 . ... : ... .. C ... : ... .. . ... ...
ROW 87 : ... .. . P7F ... ... : ... .. . P7E ... ... : ... .. . ... : ... .. 0 ... : ... .. . ... ...
ROW 88 : ... .. . ... ... ... : ... .. . ... ... ... : ... .. . ... : ... .. . ... : ... .. . ... ...
ROW 89 : ... .. . ... ... ... : ... .. . ... ... ... : ... .. . ... : ... .. . ... : ... .. . ... ...
ROW 8A : ... .. . ... ... ... : ... .. . ... ... ... : ... .. . ... : ... .. . ... : ... .. . ... ...
ROW 8B : ... .. . P81 ... ... : ... .. . P80 ... ... : ... .. . ... : ... .. . ... : ... .. . ... ...
ROW 8C : ... .. . ... ... ... : ... .. . ... ... ... : ... .. . ... : ... .. . ... : ... .. . ... ...
ROW 8D : ... .. . ... ... ... : ... .. . ... ... ... : ... .. . ... : ... .. . ... : ... .. . ... ...
ROW 8E : ... .. . ... ... ... : ... .. . ... ... ... : --- .. . ... : ... .. . ... : ... .. . ... ...
ROW 8F : ... .. . P7F ... ... : ... .. . P7E ... ... : ... .. . ... : ... .. . ... : ... .. . ... ...
ROW 90 : ... .. . P80 ... ... : ... .. . P7F ... ... : B-2 00 . ... : ... .. C ... : ... .. . ... ...
ROW 91 : ... .. . ... ... ... : ... .. . ... ... ... : ... .. . ... : ... .. 0 ... : ... .. . ... ...
ROW 92 : ... .. . ... ... ... : ... .. . ... ... ... : ... .. . ... : ... .. . ... : ... .. . ... ...
ROW 93 : ... .. . ... ... ... : ... .. . ... ... ... : ... .. . ... : ... .. . ... : ... .. . ... ...
ROW 94 : ... .. . ... ... ... : ... .. . ... ... ... : ... .. . ... : ... .. . ... : ... .. . ... ...
ROW 95 : ... .. . ... ... ... : ... .. . ... ... ... : ... .. . ... : ... .. . ... : ... .. . ... ...
ROW 96 : ... .. . ... ... ... : ... .. . ... ... ... : ... .. . ... : ... .. . ... : ... .. . ... ...
ROW 97 : ... .. . ... ... ... : ... .. . ... ... ... : ... .. . ... : ... .. . ... : ... .. . ... ...
ROW 98 : ... .. . ... ... ... : ... .. . ... ... ... : --- .. . ... : ... .. . ... : ... .. . ... ...
ROW 99 : ... .. . ... ... ... : ... .. . ... ... ... : ... .. . ... : ... .. . ... : ... .. . ... ...
ROW 9A : ... .. . ... ... ... : ... .. . ... ... ... : ... .. . ... : ... .. . ... : ... .. . ... ...
ROW 9B : ... .. . ... ... ... : ... .. . ... ... ... : ... .. . ... : ... .. . ... : ... .. . ... ...
ROW 9C : ... .. . ... ... ... : ... .. . ... ... ... : ... .. . ... : ... .. . ... : ... .. . ... ...
ROW 9D : ... .. . ... ... ... : ... .. . ... ... ... : ... .. . ... : ... .. . ... : ... .. . ... ...
ROW 9E : ... .. . ... ... ... : ... .. . ... ... ... : ... .. . ... : ... .. . ... : ... .. . ... ...
ROW 9F : ... .. . P7F ... ... : ... .. . P7E ... ... : ... .. . P7F : ... .. . ... : ... .. . ... ...
ROW A0 : ... .. . ... ... ... : ... .. . ... ... ... : ... .. . ... : ... .. . ... : ... .. . ... ...
ROW A1 : ... .. . ... ... ... : ... .. . ... ... ... : ... .. . ... : ... .. . ... : ... .. . ... ...
ROW A2 : ... .. . ... ... ... : ... .. . ... ... ... : ... .. . ... : ... .. . ... : ... .. . ... ...
ROW A3 : ... .. . P81 ... ... : ... .. . P80 ... ... : ... .. . P81 : ... .. . ... : ... .. . ... ...
ROW A4 : ... .. . ... ... ... : ... .. . ... ... ... : B-2 00 . P80 : ... .. C ... : ... .. . ... ...
ROW A5 : ... .. . ... ... ... : ... .. . ... ... ... : ... .. . ... : ... .. 0 ... : ... .. . ... ...
ROW A6 : ... .. . ... ... ... : ... .. . ... ... ... : ... .. . ... : ... .. . ... : ... .. . ... ...
ROW A7 : ... .. . P7F ... ... : ... .. . P7E ... ... : ... .. . ... : ... .. . ... : ... .. . ... ...
ROW A8 : ... .. . ... ... ... : ... .. . ... ... ... : ... .. . ... : ... .. . ... : ... .. . ... ...
ROW A9 : ... .. . ... ... ... : ... .. . ... ... ... : ... .. . ... : ... .. . ... : ... .. . ... ...
ROW AA : ... .. . ... ... ... : ... .. . ... ... ... : ... .. . ... : ... .. . ... : ... .. . ... ...
ROW AB : ... .. . P81 ... ... : ... .. . P80 ... ... : ... .. . ... : ... .. . ... : ... .. . ... ...
ROW AC : ... .. . ... ... ... : ... .. . ... ... ... : --- .. . ... : ... .. . ... : ... .. . ... ...
ROW AD : ... .. . ... ... ... : ... .. . ... ... ... : ... .. . ... : ... .. . ... : ... .. . ... ...
ROW AE : ... .. . ... ... ... : ... .. . ... ... ... : B-2 00 . ... : ... .. C ... : ... .. . ... ...
ROW AF : ... .. . P7F ... ... : ... .. . P7E ... ... : ... .. . ... : ... .. 0 ... : ... .. . ... ...
ROW B0 : ... .. . ... ... ... : ... .. . ... ... ... : ... .. . ... : ... .. . ... : ... .. . ... ...
ROW B1 : ... .. . ... ... ... : ... .. . ... ... ... : ... .. . ... : ... .. . ... : ... .. . ... ...
ROW B2 : ... .. . ... ... ... : ... .. . ... ... ... : ... .. . ... : ... .. . ... : ... .. . ... ...
ROW B3 : ... .. . P81 ... ... : ... .. . P80 ... ... : ... .. . ... : ... .. . ... : ... .. . ... ...
ROW B4 : ... .. . ... ... ... : ... .. . ... ... ... : ... .. . ... : ... .. . ... : ... .. . ... ...
ROW B5 : ... .. . ... ... ... : ... .. . ... ... ... : ... .. . ... : ... .. . ... : ... .. . ... ...
ROW B6 : ... .. . ... ... ... : ... .. . ... ... ... : --- .. . ... : ... .. . ... : ... .. . ... ...
ROW B7 : ... .. . P7F ... ... : ... .. . P7E ... ... : ... .. . ... : ... .. . ... : ... .. . ... ...
ROW B8 : F#4 00 7 ... ... ... : B-3 00 7 P7F ... ... : B-2 00 . ... : ... .. C ... : ... .. . ... ...
ROW B9 : ... .. . ... ... ... : ... .. . ... ... ... : ... .. . ... : ... .. 0 ... : ... .. . ... ...
ROW BA : ... .. 8 ... ... ... : ... .. 8 ... ... ... : ... .. . ... : ... .. . ... : ... .. . ... ...
ROW BB : ... .. . ... ... ... : ... .. . ... ... ... : ... .. . ... : ... .. . ... : ... .. . ... ...
ROW BC : ... .. 9 ... ... ... : ... .. 9 ... ... ... : ... .. . ... : ... .. . ... : ... .. . ... ...
ROW BD : ... .. . ... ... ... : ... .. . ... ... ... : ... .. . ... : ... .. . ... : ... .. . ... ...
ROW BE : ... .. . ... ... ... : ... .. . ... ... ... : ... .. . ... : ... .. . ... : ... .. . ... ...
ROW BF : ... .. 8 ... ... ... : ... .. 8 ... ... ... : ... .. . ... : ... .. . ... : ... .. . ... ...
ROW C0 : ... .. . ... ... ... : ... .. . ... ... ... : --- .. . ... : ... .. . ... : ... .. . ... ...
ROW C1 : ... .. . ... ... ... : ... .. . ... ... ... : ... .. . ... : ... .. . ... : ... .. . ... ...
ROW C2 : ... .. . ... ... ... : ... .. . ... ... ... : ... .. . ... : ... .. . ... : ... .. . ... ...
ROW C3 : ... .. 7 ... ... ... : ... .. 7 ... ... ... : ... .. . ... : ... .. . ... : ... .. . ... ...
ROW C4 : ... .. . ... ... ... : ... .. . ... ... ... : ... .. . ... : ... .. . ... : ... .. . ... ...
ROW C5 : ... .. . ... ... ... : ... .. . ... ... ... : ... .. . ... : ... .. . ... : ... .. . ... ...
ROW C6 : ... .. . ... ... ... : ... .. . ... ... ... : ... .. . ... : ... .. . ... : ... .. . ... ...
ROW C7 : ... .. 6 P7E ... ... : ... .. 6 P7E ... ... : ... .. . P7F : ... .. . ... : ... .. . ... ...
ROW C8 : ... .. . ... ... ... : ... .. . ... ... ... : ... .. . ... : ... .. . ... : ... .. . ... ...
ROW C9 : ... .. . ... ... ... : ... .. . ... ... ... : ... .. . ... : ... .. . ... : ... .. . ... ...
ROW CA : ... .. . ... ... ... : ... .. . ... ... ... : ... .. . ... : ... .. . ... : ... .. . ... ...
ROW CB : ... .. . P80 ... ... : ... .. . P80 ... ... : ... .. . P81 : ... .. . ... : ... .. . ... ...
ROW CC : ... .. . ... ... ... : ... .. . ... ... ... : B-2 00 . P80 : ... .. C ... : ... .. . ... ...
ROW CD : ... .. . ... ... ... : ... .. . ... ... ... : ... .. . ... : ... .. 0 ... : ... .. . ... ...
ROW CE : ... .. . ... ... ... : ... .. . ... ... ... : ... .. . ... : ... .. . ... : ... .. . ... ...
ROW CF : ... .. 5 P7E ... ... : ... .. 5 P7E ... ... : ... .. . ... : ... .. . ... : ... .. . ... ...
ROW D0 : ... .. . ... ... ... : ... .. . ... ... ... : ... .. . ... : ... .. . ... : ... .. . ... ...
ROW D1 : ... .. . ... ... ... : ... .. . ... ... ... : ... .. . ... : ... .. . ... : ... .. . ... ...
ROW D2 : ... .. . ... ... ... : ... .. . ... ... ... : ... .. . ... : ... .. . ... : ... .. . ... ...
ROW D3 : ... .. . P80 ... ... : ... .. . P80 ... ... : ... .. . ... : ... .. . ... : ... .. . ... ...
ROW D4 : ... .. 4 ... ... ... : ... .. 4 ... ... ... : --- .. . ... : ... .. . ... : ... .. . ... ...
ROW D5 : ... .. . ... ... ... : ... .. . ... ... ... : ... .. . ... : ... .. . ... : ... .. . ... ...
ROW D6 : ... .. . ... ... ... : ... .. . ... ... ... : B-2 00 . ... : ... .. C ... : ... .. . ... ...
ROW D7 : ... .. . P7E ... ... : ... .. . P7E ... ... : ... .. . ... : ... .. 0 ... : ... .. . ... ...
ROW D8 : ... .. . ... ... ... : ... .. . ... ... ... : ... .. . ... : ... .. . ... : ... .. . ... ...
ROW D9 : ... .. . ... ... ... : ... .. . ... ... ... : ... .. . ... : ... .. . ... : ... .. . ... ...
ROW DA : ... .. . ... ... ... : ... .. . ... ... ... : ... .. . ... : ... .. . ... : ... .. . ... ...
ROW DB : ... .. . P80 ... ... : ... .. . P80 ... ... : ... .. . ... : ... .. . ... : ... .. . ... ...
ROW DC : ... .. . ... ... ... : ... .. . ... ... ... : ... .. . ... : ... .. . ... : ... .. . ... ...
ROW DD : ... .. . ... ... ... : ... .. . ... ... ... : ... .. . ... : ... .. . ... : ... .. . ... ...
ROW DE : ... .. . ... ... ... : ... .. . ... ... ... : --- .. . ... : ... .. . ... : ... .. . ... ...
ROW DF : ... .. . P7E ... ... : ... .. . P7E ... ... : ... .. . ... : ... .. . ... : ... .. . ... ...
ROW E0 : F-4 00 7 P7F ... ... : A#3 00 7 P80 ... ... : A#2 00 . ... : ... .. C ... : ... .. . ... ...
ROW E1 : ... .. . ... ... ... : ... .. . ... ... ... : ... .. . ... : ... .. 0 ... : ... .. . ... ...
ROW E2 : ... .. 8 ... ... ... : ... .. 8 ... ... ... : ... .. . ... : ... .. . ... : ... .. . ... ...
ROW E3 : ... .. . ... ... ... : ... .. . ... ... ... : ... .. . ... : ... .. . ... : ... .. . ... ...
ROW E4 : ... .. 9 ... ... ... : ... .. 9 ... ... ... : ... .. . ... : ... .. . ... : ... .. . ... ...
ROW E5 : ... .. . ... ... ... : ... .. . ... ... ... : ... .. . ... : ... .. . ... : ... .. . ... ...
ROW E6 : ... .. . ... ... ... : ... .. . ... ... ... : ... .. . ... : ... .. . ... : ... .. . ... ...
ROW E7 : ... .. 8 ... ... ... : ... .. 8 ... ... ... : ... .. . ... : ... .. . ... : ... .. . ... ...
ROW E8 : ... .. . ... ... ... : ... .. . ... ... ... : --- .. . ... : ... .. . ... : ... .. . ... ...
ROW E9 : ... .. . ... ... ... : ... .. . ... ... ... : ... .. . ... : ... .. . ... : ... .. . ... ...
ROW EA : ... .. . ... ... ... : ... .. . ... ... ... : ... .. . ... : ... .. . ... : ... .. . ... ...
ROW EB : ... .. 7 ... ... ... : ... .. 7 ... ... ... : ... .. . ... : ... .. . ... : ... .. . ... ...
ROW EC : ... .. . ... ... ... : ... .. . ... ... ... : ... .. . ... : ... .. . ... : ... .. . ... ...
ROW ED : ... .. . ... ... ... : ... .. . ... ... ... : ... .. . ... : ... .. . ... : ... .. . ... ...
ROW EE : ... .. . ... ... ... : ... .. . ... ... ... : ... .. . ... : ... .. . ... : ... .. . ... ...
ROW EF : ... .. 6 P7E ... ... : ... .. 6 P7F ... ... : ... .. . P7F : ... .. . ... : ... .. . ... ...
ROW F0 : ... .. . ... ... ... : ... .. . ... ... ... : ... .. . ... : ... .. . ... : ... .. . ... ...
ROW F1 : ... .. . ... ... ... : ... .. . ... ... ... : ... .. . ... : ... .. . ... : ... .. . ... ...
ROW F2 : ... .. . ... ... ... : ... .. . ... ... ... : ... .. . ... : ... .. . ... : ... .. . ... ...
ROW F3 : ... .. . P80 ... ... : ... .. . P81 ... ... : ... .. . P81 : ... .. . ... : ... .. . ... ...
ROW F4 : ... .. 4 P7F ... ... : ... .. 4 P80 ... ... : A#2 00 . P80 : ... .. C ... : ... .. . ... ...
ROW F5 : ... .. . ... ... ... : ... .. . ... ... ... : ... .. . ... : ... .. 0 ... : ... .. . ... ...
ROW F6 : ... .. . ... ... ... : ... .. . ... ... ... : ... .. . ... : ... .. . ... : ... .. . ... ...
ROW F7 : ... .. . ... ... ... : ... .. . ... ... ... : ... .. . ... : ... .. . ... : ... .. . ... ...
ROW F8 : ... .. . ... ... ... : ... .. . ... ... ... : ... .. . ... : ... .. . ... : ... .. . ... ...
ROW F9 : ... .. . ... ... ... : ... .. . ... ... ... : ... .. . ... : ... .. . ... : ... .. . ... ...
ROW FA : ... .. . ... ... ... : ... .. . ... ... ... : ... .. . ... : ... .. . ... : ... .. . ... ...
ROW FB : ... .. . ... ... ... : ... .. . ... ... ... : ... .. . ... : ... .. . ... : ... .. . ... ...
ROW FC : ... .. . ... ... ... : ... .. . ... ... ... : --- .. . ... : ... .. . ... : ... .. . ... ...
ROW FD : ... .. . ... ... ... : ... .. . ... ... ... : ... .. . ... : ... .. . ... : ... .. . ... ...
ROW FE : ... .. . ... ... ... : ... .. . ... ... ... : A#2 00 . ... : ... .. C ... : ... .. . ... ...
ROW FF : ... .. . ... ... ... : ... .. . ... ... ... : ... .. . ... : ... .. 0 ... : ... .. . ... ...

PATTERN 11
ROW 00 : ... .. . ... ... ... : ... .. . ... ... ... : ... .. . ... : ... .. . ... : ... .. . ... ...
ROW 01 : ... .. . ... ... ... : ... .. . ... ... ... : ... .. . ... : ... .. . ... : ... .. . ... ...
ROW 02 : ... .. . ... ... ... : ... .. . ... ... ... : ... .. . ... : ... .. . ... : ... .. . ... ...
ROW 03 : ... .. . P7E ... ... : ... .. . P7F ... ... : ... .. . ... : ... .. . ... : ... .. . ... ...
ROW 04 : ... .. . ... ... ... : ... .. . ... ... ... : ... .. . ... : ... .. . ... : ... .. . ... ...
ROW 05 : ... .. . ... ... ... : ... .. . ... ... ... : ... .. . ... : ... .. . ... : ... .. . ... ...
ROW 06 : ... .. . ... ... ... : ... .. . ... ... ... : --- .. . ... : ... .. . ... : ... .. . ... ...
ROW 07 : ... .. . P80 ... ... : ... .. . P81 ... ... : ... .. . ... : ... .. . ... : ... .. . ... ...
ROW 08 : C#4 00 7 ... ... ... : F-3 00 7 P7F ... ... : A#2 00 . ... : ... .. C ... : ... .. . ... ...
ROW 09 : ... .. . ... ... ... : ... .. . ... ... ... : ... .. . ... : ... .. 0 ... : ... .. . ... ...
ROW 0A : ... .. 8 ... ... ... : ... .. 8 ... ... ... : ... .. . ... : ... .. . ... : ... .. . ... ...
ROW 0B : ... .. . ... ... ... : ... .. . ... ... ... : ... .. . ... : ... .. . ... : ... .. . ... ...
ROW 0C : ... .. 9 ... ... ... : ... .. 9 ... ... ... : ... .. . ... : ... .. . ... : ... .. . ... ...
ROW 0D : ... .. . ... ... ... : ... .. . ... ... ... : ... .. . ... : ... .. . ... : ... .. . ... ...
ROW 0E : ... .. . ... ... ... : ... .. . ... ... ... : ... .. . ... : ... .. . ... : ... .. . ... ...
ROW 0F : ... .. 8 ... ... ... : ... .. 8 ... ... ... : ... .. . ... : ... .. . ... : ... .. . ... ...
ROW 10 : ... .. . ... ... ... : ... .. . ... ... ... : --- .. . ... : ... .. . ... : ... .. . ... ...
ROW 11 : ... .. . ... ... ... : ... .. . ... ... ... : ... .. . ... : ... .. . ... : ... .. . ... ...
ROW 12 : ... .. . ... ... ... : ... .. . ... ... ... : ... .. . ... : ... .. . ... : ... .. . ... ...
ROW 13 : ... .. 7 ... ... ... : ... .. 7 ... ... ... : ... .. . ... : ... .. . ... : ... .. . ... ...
ROW 14 : ... .. . ... ... ... : ... .. . ... ... ... : ... .. . ... : ... .. . ... : ... .. . ... ...
ROW 15 : ... .. . ... ... ... : ... .. . ... ... ... : ... .. . ... : ... .. . ... : ... .. . ... ...
ROW 16 : ... .. . ... ... ... : ... .. . ... ... ... : ... .. . ... : ... .. . ... : ... .. . ... ...
ROW 17 : ... .. 6 P7F ... ... : ... .. 6 P7E ... ... : ... .. . P7F : ... .. . ... : ... .. . ... ...
ROW 18 : ... .. . ... ... ... : ... .. . ... ... ... : ... .. . ... : ... .. . ... : ... .. . ... ...
ROW 19 : ... .. . ... ... ... : ... .. . ... ... ... : ... .. . ... : ... .. . ... : ... .. . ... ...
ROW 1A : ... .. . ... ... ... : ... .. . ... ... ... : ... .. . ... : ... .. . ... : ... .. . ... ...
ROW 1B : ... .. . P81 ... ... : ... .. . P80 ... ... : ... .. . P81 : ... .. . ... : ... .. . ... ...
ROW 1C : ... .. . ... ... ... : ... .. . ... ... ... : A#2 00 . P80 : ... .. C ... : ... .. . ... ...
ROW 1D : ... .. . ... ... ... : ... .. . ... ... ... : ... .. . ... : ... .. 0 ... : ... .. . ... ...
ROW 1E : ... .. . ... ... ... : ... .. . ... ... ... : ... .. . ... : ... .. . ... : ... .. . ... ...
ROW 1F : ... .. 5 P7F ... ... : ... .. 5 P7E ... ... : ... .. . ... : ... .. . ... : ... .. . ... ...
ROW 20 : ... .. . ... ... ... : ... .. . ... ... ... : ... .. . ... : ... .. . ... : ... .. . ... ...
ROW 21 : ... .. . ... ... ... : ... .. . ... ... ... : ... .. . ... : ... .. . ... : ... .. . ... ...
ROW 22 : ... .. . ... ... ... : ... .. . ... ... ... : ... .. . ... : ... .. . ... : ... .. . ... ...
ROW 23 : ... .. . P81 ... ... : ... .. . P80 ... ... : ... .. . ... : ... .. . ... : ... .. . ... ...
ROW 24 : ... .. 4 ... ... ... : ... .. 4 ... ... ... : --- .. . ... : ... .. . ... : ... .. . ... ...
ROW 25 : ... .. . ... ... ... : ... .. . ... ... ... : ... .. . ... : ... .. . ... : ... .. . ... ...
ROW 26 : ... .. . ... ... ... : ... .. . ... ... ... : A#2 00 . ... : ... .. C ... : ... .. . ... ...
ROW 27 : ... .. . P7F ... ... : ... .. . P7E ... ... : ... .. . ... : ... .. 0 ... : ... .. . ... ...
ROW 28 : ... .. . ... ... ... : ... .. . ... ... ... : ... .. . ... : ... .. . ... : ... .. . ... ...
ROW 29 : ... .. . ... ... ... : ... .. . ... ... ... : ... .. . ... : ... .. . ... : ... .. . ... ...
ROW 2A : ... .. . ... ... ... : ... .. . ... ... ... : ... .. . ... : ... .. . ... : ... .. . ... ...
ROW 2B : ... .. . P81 ... ... : ... .. . P80 ... ... : ... .. . ... : ... .. . ... : ... .. . ... ...
ROW 2C : ... .. . ... ... ... : ... .. . ... ... ... : ... .. . ... : ... .. . ... : ... .. . ... ...
ROW 2D : ... .. . ... ... ... : ... .. . ... ... ... : ... .. . ... : ... .. . ... : ... .. . ... ...
ROW 2E : ... .. . ... ... ... : ... .. . ... ... ... : --- .. . ... : ... .. . ... : ... .. . ... ...
ROW 2F : ... .. . P7F ... ... : ... .. . P7E ... ... : ... .. . ... : ... .. . ... : ... .. . ... ...
ROW 30 : ... .. . ... ... ... : ... .. . ... ... ... : A#2 00 . ... : ... .. C ... : ... .. . ... ...
ROW 31 : ... .. . ... ... ... : ... .. . ... ... ... : ... .. . ... : ... .. 0 ... : ... .. . ... ...
ROW 32 : ... .. . ... ... ... : ... .. . ... ... ... : ... .. . ... : ... .. . ... : ... .. . ... ...
ROW 33 : ... .. . P81 ... ... : ... .. . P80 ... ... : ... .. . ... : ... .. . ... : ... .. . ... ...
ROW 34 : ... .. . ... ... ... : ... .. . ... ... ... : ... .. . ... : ... .. . ... : ... .. . ... ...
ROW 35 : ... .. . ... ... ... : ... .. . ... ... ... : ... .. . ... : ... .. . ... : ... .. . ... ...
ROW 36 : ... .. . ... ... ... : ... .. . ... ... ... : ... .. . ... : ... .. . ... : ... .. . ... ...
ROW 37 : ... .. . P7F ... ... : ... .. . P7E ... ... : ... .. . ... : ... .. . ... : ... .. . ... ...
ROW 38 : ... .. . ... ... ... : ... .. . ... ... ... : --- .. . ... : ... .. . ... : ... .. . ... ...
ROW 39 : ... .. . ... ... ... : ... .. . ... ... ... : ... .. . ... : ... .. . ... : ... .. . ... ...
ROW 3A : ... .. . ... ... ... : ... .. . ... ... ... : ... .. . ... : ... .. . ... : ... .. . ... ...
ROW 3B : ... .. . P81 ... ... : ... .. . P80 ... ... : ... .. . ... : ... .. . ... : ... .. . ... ...
ROW 3C : ... .. . ... ... ... : ... .. . ... ... ... : ... .. . ... : ... .. . ... : ... .. . ... ...
ROW 3D : ... .. . ... ... ... : ... .. . ... ... ... : ... .. . ... : ... .. . ... : ... .. . ... ...
ROW 3E : ... .. . ... ... ... : ... .. . ... ... ... : ... .. . ... : ... .. . ... : ... .. . ... ...
ROW 3F : ... .. . P7F ... ... : ... .. . P7E ... ... : ... .. . P7F : ... .. . ... : ... .. . ... ...
ROW 40 : ... .. . ... ... ... : ... .. . ... ... ... : ... .. . ... : ... .. . ... : ... .. . ... ...
ROW 41 : ... .. . ... ... ... : ... .. . ... ... ... : ... .. . ... : ... .. . ... : ... .. . ... ...
ROW 42 : ... .. . ... ... ... : ... .. . ... ... ... : ... .. . ... : ... .. . ... : ... .. . ... ...
ROW 43 : ... .. . P81 ... ... : ... .. . P80 ... ... : ... .. . P81 : ... .. . ... : ... .. . ... ...
ROW 44 : ... .. . ... ... ... : ... .. . ... ... ... : A#2 00 . P80 : ... .. C ... : ... .. . ... ...
ROW 45 : ... .. . ... ... ... : ... .. . ... ... ... : ... .. . ... : ... .. 0 ... : ... .. . ... ...
ROW 46 : ... .. . ... ... ... : ... .. . ... ... ... : ... .. . ... : ... .. . ... : ... .. . ... ...
ROW 47 : ... .. . P7F ... ... : ... .. . P7E ... ... : ... .. . ... : ... .. . ... : ... .. . ... ...
ROW 48 : ... .. . ... ... ... : ... .. . ... ... ... : ... .. . ... : ... .. . ... : ... .. . ... ...
ROW 49 : ... .. . ... ... ... : ... .. . ... ... ... : ... .. . ... : ... .. . ... : ... .. . ... ...
ROW 4A : ... .. . ... ... ... : ... .. . ... ... ... : ... .. . ... : ... .. . ... : ... .. . ... ...
ROW 4B : ... .. . P81 ... ... : ... .. . P80 ... ... : ... .. . ... : ... .. . ... : ... .. . ... ...
ROW 4C : ... .. . ... ... ... : ... .. . ... ... ... : --- .. . ... : ... .. . ... : ... .. . ... ...
ROW 4D : ... .. . ... ... ... : ... .. . ... ... ... : ... .. . ... : ... .. . ... : ... .. . ... ...
ROW 4E : ... .. . ... ... ... : ... .. . ... ... ... : A#2 00 . ... : ... .. C ... : ... .. . ... ...
ROW 4F : ... .. . P7F ... ... : ... .. . P7E ... ... : ... .. . ... : ... .. 0 ... : ... .. . ... ...
ROW 50 : ... .. . ... ... ... : ... .. . ... ... ... : ... .. . ... : ... .. . ... : ... .. . ... ...
ROW 51 : ... .. . ... ... ... : ... .. . ... ... ... : ... .. . ... : ... .. . ... : ... .. . ... ...
ROW 52 : ... .. . ... ... ... : ... .. . ... ... ... : ... .. . ... : ... .. . ... : ... .. . ... ...
ROW 53 : ... .. . P81 ... ... : ... .. . P80 ... ... : ... .. . ... : ... .. . ... : ... .. . ... ...
ROW 54 : ... .. . ... ... ... : ... .. . ... ... ... : ... .. . ... : ... .. . ... : ... .. . ... ...
ROW 55 : ... .. . ... ... ... : ... .. . ... ... ... : ... .. . ... : ... .. . ... : ... .. . ... ...
ROW 56 : ... .. . ... ... ... : ... .. . ... ... ... : --- .. . ... : ... .. . ... : ... .. . ... ...
ROW 57 : ... .. . P7F ... ... : ... .. . P7E ... ... : ... .. . ... : ... .. . ... : ... .. . ... ...
ROW 58 : A#3 00 7 P80 ... ... : C#3 00 7 P80 ... ... : A#2 00 . ... : ... .. C ... : ... .. . ... ...
ROW 59 : ... .. . ... ... ... : ... .. . ... ... ... : ... .. . ... : ... .. 0 ... : ... .. . ... ...
ROW 5A : ... .. 8 ... ... ... : ... .. 8 ... ... ... : ... .. . ... : ... .. . ... : ... .. . ... ...
ROW 5B : ... .. . ... ... ... : ... .. . ... ... ... : ... .. . ... : ... .. . ... : ... .. . ... ...
ROW 5C : ... .. 9 ... ... ... : ... .. 9 ... ... ... : ... .. . ... : ... .. . ... : ... .. . ... ...
ROW 5D : ... .. . ... ... ... : ... .. . ... ... ... : ... .. . ... : ... .. . ... : ... .. . ... ...
ROW 5E : ... .. . ... ... ... : ... .. . ... ... ... : ... .. . ... : ... .. . ... : ... .. . ... ...
ROW 5F : ... .. 8 ... ... ... : ... .. 8 ... ... ... : ... .. . ... : ... .. . ... : ... .. . ... ...
ROW 60 : ... .. . ... ... ... : ... .. . ... ... ... : --- .. . ... : ... .. . ... : ... .. . ... ...
ROW 61 : ... .. . ... ... ... : ... .. . ... ... ... : ... .. . ... : ... .. . ... : ... .. . ... ...
ROW 62 : ... .. . ... ... ... : ... .. . ... ... ... : ... .. . ... : ... .. . ... : ... .. . ... ...
ROW 63 : ... .. 7 ... ... ... : ... .. 7 ... ... ... : ... .. . ... : ... .. . ... : ... .. . ... ...
ROW 64 : ... .. . ... ... ... : ... .. . ... ... ... : ... .. . ... : ... .. . ... : ... .. . ... ...
ROW 65 : ... .. . ... ... ... : ... .. . ... ... ... : ... .. . ... : ... .. . ... : ... .. . ... ...
ROW 66 : ... .. . ... ... ... : ... .. . ... ... ... : ... .. . ... : ... .. . ... : ... .. . ... ...
ROW 67 : ... .. 6 P7F ... ... : ... .. 6 P7F ... ... : ... .. . P7F : ... .. . ... : ... .. . ... ...
ROW 68 : ... .. . ... ... ... : ... .. . ... ... ... : ... .. . ... : ... .. . ... : ... .. . ... ...
ROW 69 : ... .. . ... ... ... : ... .. . ... ... ... : ... .. . ... : ... .. . ... : ... .. . ... ...
ROW 6A : ... .. . ... ... ... : ... .. . ... ... ... : ... .. . ... : ... .. . ... : ... .. . ... ...
ROW 6B : ... .. . P81 ... ... : ... .. . P81 ... ... : ... .. . P81 : ... .. . ... : ... .. . ... ...
ROW 6C : ... .. . ... ... ... : ... .. . ... ... ... : A#2 00 . P80 : ... .. C ... : ... .. . ... ...
ROW 6D : ... .. . ... ... ... : ... .. . ... ... ... : ... .. . ... : ... .. 0 ... : ... .. . ... ...
ROW 6E : ... .. . ... ... ... : ... .. . ... ... ... : ... .. . ... : ... .. . ... : ... .. . ... ...
ROW 6F : ... .. 5 P7F ... ... : ... .. 5 P7F ... ... : ... .. . ... : ... .. . ... : ... .. . ... ...
ROW 70 : ... .. . ... ... ... : ... .. . ... ... ... : ... .. . ... : ... .. . ... : ... .. . ... ...
ROW 71 : ... .. . ... ... ... : ... .. . ... ... ... : ... .. . ... : ... .. . ... : ... .. . ... ...
ROW 72 : ... .. . ... ... ... : ... .. . ... ... ... : ... .. . ... : ... .. . ... : ... .. . ... ...
ROW 73 : ... .. . P81 ... ... : ... .. . P81 ... ... : ... .. . ... : ... .. . ... : ... .. . ... ...
ROW 74 : ... .. 4 ... ... ... : ... .. 4 ... ... ... : --- .. . ... : ... .. . ... : ... .. . ... ...
ROW 75 : ... .. . ... ... ... : ... .. . ... ... ... : ... .. . ... : ... .. . ... : ... .. . ... ...
ROW 76 : ... .. . ... ... ... : ... .. . ... ... ... : A#2 00 . ... : ... .. C ... : ... .. . ... ...
ROW 77 : ... .. . P7F ... ... : ... .. . P7F ... ... : ... .. . ... : ... .. 0 ... : ... .. . ... ...
ROW 78 : ... .. . ... ... ... : ... .. . ... ... ... : ... .. . ... : ... .. . ... : ... .. . ... ...
ROW 79 : ... .. . ... ... ... : ... .. . ... ... ... : ... .. . ... : ... .. . ... : ... .. . ... ...
ROW 7A : ... .. . ... ... ... : ... .. . ... ... ... : ... .. . ... : ... .. . ... : ... .. . ... ...
ROW 7B : ... .. . P81 ... ... : ... .. . P81 ... ... : ... .. . ... : ... .. . ... : ... .. . ... ...
ROW 7C : ... .. . ... ... ... : ... .. . ... ... ... : ... .. . ... : ... .. . ... : ... .. . ... ...
ROW 7D : ... .. . ... ... ... : ... .. . ... ... ... : ... .. . ... : ... .. . ... : ... .. . ... ...
ROW 7E : ... .. . ... ... ... : ... .. . ... ... ... : --- .. . ... : ... .. . ... : ... .. . ... ...
ROW 7F : ... .. . P7F ... ... : ... .. . P7F ... ... : ... .. . ... : ... .. . ... : ... .. . ... ...
ROW 80 : C-4 00 7 P80 ... ... : E-3 00 7 ... ... ... : C-3 00 . ... : ... .. C ... : ... .. . ... ...
ROW 81 : ... .. . ... ... ... : ... .. . ... ... ... : ... .. . ... : ... .. 0 ... : ... .. . ... ...
ROW 82 : ... .. 8 ... ... ... : ... .. 8 ... ... ... : ... .. . ... : ... .. . ... : ... .. . ... ...
ROW 83 : ... .. . ... ... ... : ... .. . ... ... ... : ... .. . ... : ... .. . ... : ... .. . ... ...
ROW 84 : ... .. 9 ... ... ... : ... .. 9 ... ... ... : ... .. . ... : ... .. . ... : ... .. . ... ...
ROW 85 : ... .. . ... ... ... : ... .. . ... ... ... : ... .. . ... : ... .. . ... : ... .. . ... ...
ROW 86 : ... .. . ... ... ... : ... .. . ... ... ... : ... .. . ... : ... .. . ... : ... .. . ... ...
ROW 87 : ... .. 8 ... ... ... : ... .. 8 ... ... ... : ... .. . ... : ... .. . ... : ... .. . ... ...
ROW 88 : ... .. . ... ... ... : ... .. . ... ... ... : --- .. . ... : ... .. . ... : ... .. . ... ...
ROW 89 : ... .. . ... ... ... : ... .. . ... ... ... : ... .. . ... : ... .. . ... : ... .. . ... ...
ROW 8A : ... .. . ... ... ... : ... .. . ... ... ... : ... .. . ... : ... .. . ... : ... .. . ... ...
ROW 8B : ... .. 7 ... ... ... : ... .. 7 ... ... ... : ... .. . ... : ... .. . ... : ... .. . ... ...
ROW 8C : ... .. . ... ... ... : ... .. . ... ... ... : ... .. . ... : ... .. . ... : ... .. . ... ...
ROW 8D : ... .. . ... ... ... : ... .. . ... ... ... : ... .. . ... : ... .. . ... : ... .. . ... ...
ROW 8E : ... .. . ... ... ... : ... .. . ... ... ... : ... .. . ... : ... .. . ... : ... .. . ... ...
ROW 8F : ... .. 6 P7F ... ... : ... .. 6 P7E ... ... : ... .. . P7F : ... .. . ... : ... .. . ... ...
ROW 90 : ... .. . ... ... ... : ... .. . ... ... ... : ... .. . ... : ... .. . ... : ... .. . ... ...
ROW 91 : ... .. . ... ... ... : ... .. . ... ... ... : ... .. . ... : ... .. . ... : ... .. . ... ...
ROW 92 : ... .. . ... ... ... : ... .. . ... ... ... : ... .. . ... : ... .. . ... : ... .. . ... ...
ROW 93 : ... .. . P81 ... ... : ... .. . P80 ... ... : ... .. . P81 : ... .. . ... : ... .. . ... ...
ROW 94 : ... .. 7 P80 ... ... : ... .. . ... ... ... : C-3 00 . P80 : ... .. C ... : ... .. . ... ...
ROW 95 : ... .. . ... ... ... : ... .. . ... ... ... : ... .. . ... : ... .. 0 ... : ... .. . ... ...
ROW 96 : ... .. 8 ... ... ... : ... .. . ... ... ... : ... .. . ... : ... .. . ... : ... .. . ... ...
ROW 97 : ... .. . ... ... ... : ... .. 5 P7E ... ... : ... .. . ... : ... .. . ... : ... .. . ... ...
ROW 98 : ... .. 9 ... ... ... : ... .. . ... ... ... : ... .. . ... : ... .. . ... : ... .. . ... ...
ROW 99 : ... .. . ... ... ... : ... .. . ... ... ... : ... .. . ... : ... .. . ... : ... .. . ... ...
ROW 9A : ... .. . ... ... ... : ... .. . ... ... ... : ... .. . ... : ... .. . ... : ... .. . ... ...
ROW 9B : ... .. 8 ... ... ... : ... .. . P80 ... ... : ... .. . ... : ... .. . ... : ... .. . ... ...
ROW 9C : ... .. . ... ... ... : ... .. 4 ... ... ... : --- .. . ... : ... .. . ... : ... .. . ... ...
ROW 9D : ... .. . ... ... ... : ... .. . ... ... ... : ... .. . ... : ... .. . ... : ... .. . ... ...
ROW 9E : D-4 00 7 P7F ... ... : ... .. . ... ... ... : C-3 00 . ... : ... .. C ... : ... .. . ... ...
ROW 9F : ... .. . ... ... ... : ... .. . P7E ... ... : ... .. . ... : ... .. 0 ... : ... .. . ... ...
ROW A0 : ... .. 8 ... ... ... : ... .. . ... ... ... : ... .. . ... : ... .. . ... : ... .. . ... ...
ROW A1 : ... .. . ... ... ... : ... .. . ... ... ... : ... .. . ... : ... .. . ... : ... .. . ... ...
ROW A2 : ... .. 9 ... ... ... : ... .. . ... ... ... : ... .. . ... : ... .. . ... : ... .. . ... ...
ROW A3 : ... .. . ... ... ... : ... .. . P80 ... ... : ... .. . ... : ... .. . ... : ... .. . ... ...
ROW A4 : ... .. . ... ... ... : ... .. . ... ... ... : ... .. . ... : ... .. . ... : ... .. . ... ...
ROW A5 : ... .. 8 ... ... ... : ... .. . ... ... ... : ... .. . ... : ... .. . ... : ... .. . ... ...
ROW A6 : ... .. . ... ... ... : ... .. . ... ... ... : --- .. . ... : ... .. . ... : ... .. . ... ...
ROW A7 : ... .. . ... ... ... : ... .. . P7E ... ... : ... .. . ... : ... .. . ... : ... .. . ... ...
ROW A8 : E-4 00 7 P80 ... ... : ... .. 7 P7F ... ... : C-3 00 . ... : ... .. C ... : ... .. . ... ...
ROW A9 : ... .. . ... ... ... : ... .. . ... ... ... : ... .. . ... : ... .. 0 ... : ... .. . ... ...
ROW AA : ... .. 8 ... ... ... : ... .. 8 ... ... ... : ... .. . ... : ... .. . ... : ... .. . ... ...
ROW AB : ... .. . ... ... ... : ... .. . ... ... ... : ... .. . ... : ... .. . ... : ... .. . ... ...
ROW AC : ... .. 9 ... ... ... : ... .. 9 ... ... ... : ... .. . ... : ... .. . ... : ... .. . ... ...
ROW AD : ... .. . ... ... ... : ... .. . ... ... ... : ... .. . ... : ... .. . ... : ... .. . ... ...
ROW AE : ... .. . ... ... ... : ... .. . ... ... ... : ... .. . ... : ... .. . ... : ... .. . ... ...
ROW AF : ... .. 8 ... ... ... : ... .. 8 ... ... ... : ... .. . ... : ... .. . ... : ... .. . ... ...
ROW B0 : ... .. . ... ... ... : ... .. . ... ... ... : --- .. . ... : ... .. . ... : ... .. . ... ...
ROW B1 : ... .. . ... ... ... : ... .. . ... ... ... : ... .. . ... : ... .. . ... : ... .. . ... ...
ROW B2 : ... .. . ... ... ... : ... .. . ... ... ... : ... .. . ... : ... .. . ... : ... .. . ... ...
ROW B3 : ... .. 7 ... ... ... : ... .. 7 ... ... ... : ... .. . ... : ... .. . ... : ... .. . ... ...
ROW B4 : ... .. . ... ... ... : ... .. . ... ... ... : ... .. . ... : ... .. . ... : ... .. . ... ...
ROW B5 : ... .. . ... ... ... : ... .. . ... ... ... : ... .. . ... : ... .. . ... : ... .. . ... ...
ROW B6 : ... .. . ... ... ... : ... .. . ... ... ... : ... .. . ... : ... .. . ... : ... .. . ... ...
ROW B7 : ... .. 6 P7F ... ... : ... .. 6 P7E ... ... : ... .. . P7F : ... .. . ... : ... .. . ... ...
ROW B8 : ... .. . ... ... ... : ... .. . ... ... ... : ... .. . ... : ... .. . ... : ... .. . ... ...
ROW B9 : ... .. . ... ... ... : ... .. . ... ... ... : ... .. . ... : ... .. . ... : ... .. . ... ...
ROW BA : ... .. . ... ... ... : ... .. . ... ... ... : ... .. . ... : ... .. . ... : ... .. . ... ...
ROW BB : ... .. . P81 ... ... : ... .. . P80 ... ... : ... .. . P81 : ... .. . ... : ... .. . ... ...
ROW BC : ... .. . ... ... ... : ... .. 7 P7F ... ... : C-3 00 . P80 : ... .. C ... : ... .. . ... ...
ROW BD : ... .. . ... ... ... : ... .. . ... ... ... : ... .. . ... : ... .. 0 ... : ... .. . ... ...
ROW BE : ... .. . ... ... ... : ... .. 8 ... ... ... : ... .. . ... : ... .. . ... : ... .. . ... ...
ROW BF : ... .. 5 P7F ... ... : ... .. . ... ... ... : ... .. . ... : ... .. . ... : ... .. . ... ...
ROW C0 : ... .. . ... ... ... : ... .. 9 ... ... ... : ... .. . ... : ... .. . ... : ... .. . ... ...
ROW C1 : ... .. . ... ... ... : ... .. . ... ... ... : ... .. . ... : ... .. . ... : ... .. . ... ...
ROW C2 : ... .. . ... ... ... : ... .. . ... ... ... : ... .. . ... : ... .. . ... : ... .. . ... ...
ROW C3 : ... .. . P81 ... ... : ... .. 8 ... ... ... : ... .. . ... : ... .. . ... : ... .. . ... ...
ROW C4 : ... .. 4 ... ... ... : ... .. . ... ... ... : --- .. . ... : ... .. . ... : ... .. . ... ...
ROW C5 : ... .. . ... ... ... : ... .. . ... ... ... : ... .. . ... : ... .. . ... : ... .. . ... ...
ROW C6 : ... .. . ... ... ... : F-3 00 7 ... ... ... : C-3 00 . ... : ... .. C ... : ... .. . ... ...
ROW C7 : ... .. . P7F ... ... : ... .. . ... ... ... : ... .. . ... : ... .. 0 ... : ... .. . ... ...
ROW C8 : ... .. . ... ... ... : ... .. 8 ... ... ... : ... .. . ... : ... .. . ... : ... .. . ... ...
ROW C9 : ... .. . ... ... ... : ... .. . ... ... ... : ... .. . ... : ... .. . ... : ... .. . ... ...
ROW CA : ... .. . ... ... ... : ... .. 9 ... ... ... : ... .. . ... : ... .. . ... : ... .. . ... ...
ROW CB : ... .. . P81 ... ... : ... .. . ... ... ... : ... .. . ... : ... .. . ... : ... .. . ... ...
ROW CC : ... .. . ... ... ... : ... .. . ... ... ... : ... .. . ... : ... .. . ... : ... .. . ... ...
ROW CD : ... .. . ... ... ... : ... .. 8 ... ... ... : ... .. . ... : ... .. . ... : ... .. . ... ...
ROW CE : ... .. . ... ... ... : ... .. . ... ... ... : --- .. . ... : ... .. . ... : ... .. . ... ...
ROW CF : ... .. . P7F ... ... : ... .. . ... ... ... : ... .. . ... : ... .. . ... : ... .. . ... ...
ROW D0 : ... .. . ... ... ... : G-3 00 7 ... ... ... : C-3 00 . ... : ... .. C ... : ... .. . ... ...
ROW D1 : ... .. . ... ... ... : ... .. . ... ... ... : ... .. . ... : ... .. 0 ... : ... .. . ... ...
ROW D2 : ... .. . ... ... ... : ... .. 8 ... ... ... : ... .. . ... : ... .. . ... : ... .. . ... ...
ROW D3 : ... .. . P81 ... ... : ... .. . ... ... ... : ... .. . ... : ... .. . ... : ... .. . ... ...
ROW D4 : ... .. . ... ... ... : ... .. 9 ... ... ... : ... .. . ... : ... .. . ... : ... .. . ... ...
ROW D5 : ... .. . ... ... ... : ... .. . ... ... ... : ... .. . ... : ... .. . ... : ... .. . ... ...
ROW D6 : ... .. . ... ... ... : ... .. . ... ... ... : ... .. . ... : ... .. . ... : ... .. . ... ...
ROW D7 : ... .. . P7F ... ... : ... .. 8 ... ... ... : ... .. . ... : ... .. . ... : ... .. . ... ...
ROW D8 : ... .. . ... ... ... : ... .. . ... ... ... : --- .. . ... : ... .. . ... : ... .. . ... ...
ROW D9 : ... .. . ... ... ... : ... .. . ... ... ... : ... .. . ... : ... .. . ... : ... .. . ... ...
ROW DA : ... .. . ... ... ... : ... .. . ... ... ... : ... .. . ... : ... .. . ... : ... .. . ... ...
ROW DB : ... .. . P81 ... ... : ... .. 7 ... ... ... : ... .. . ... : ... .. . ... : ... .. . ... ...
ROW DC : ... .. . ... ... ... : ... .. . ... ... ... : ... .. . ... : ... .. . ... : ... .. . ... ...
ROW DD : ... .. . ... ... ... : ... .. . ... ... ... : ... .. . ... : ... .. . ... : ... .. . ... ...
ROW DE : ... .. . ... ... ... : ... .. . ... ... ... : ... .. . ... : ... .. . ... : ... .. . ... ...
ROW DF : ... .. . P7F ... ... : ... .. 6 P7E ... ... : ... .. . P7F : ... .. . ... : ... .. . ... ...
ROW E0 : ... .. . ... ... ... : ... .. . ... ... ... : ... .. . ... : ... .. . ... : ... .. . ... ...
ROW E1 : ... .. . ... ... ... : ... .. . ... ... ... : ... .. . ... : ... .. . ... : ... .. . ... ...
ROW E2 : ... .. . ... ... ... : ... .. . ... ... ... : ... .. . ... : ... .. . ... : ... .. . ... ...
ROW E3 : ... .. . P81 ... ... : ... .. . P80 ... ... : ... .. . P81 : ... .. . ... : ... .. . ... ...
ROW E4 : ... .. . ... ... ... : ... .. 7 P7F ... ... : C-3 00 . P80 : ... .. C ... : ... .. . ... ...
ROW E5 : ... .. . ... ... ... : ... .. . ... ... ... : ... .. . ... : ... .. 0 ... : ... .. . ... ...
ROW E6 : ... .. . ... ... ... : ... .. 8 ... ... ... : ... .. . ... : ... .. . ... : ... .. . ... ...
ROW E7 : ... .. . P7F ... ... : ... .. . ... ... ... : ... .. . ... : ... .. . ... : ... .. . ... ...
ROW E8 : ... .. . ... ... ... : ... .. 9 ... ... ... : ... .. . ... : ... .. . ... : ... .. . ... ...
ROW E9 : ... .. . ... ... ... : ... .. . ... ... ... : ... .. . ... : ... .. . ... : ... .. . ... ...
ROW EA : ... .. . ... ... ... : ... .. . ... ... ... : ... .. . ... : ... .. . ... : ... .. . ... ...
ROW EB : ... .. . P81 ... ... : ... .. 8 ... ... ... : ... .. . ... : ... .. . ... : ... .. . ... ...
ROW EC : ... .. . ... ... ... : ... .. . ... ... ... : --- .. . ... : ... .. . ... : ... .. . ... ...
ROW ED : ... .. . ... ... ... : ... .. . ... ... ... : ... .. . ... : ... .. . ... : ... .. . ... ...
ROW EE : ... .. . ... ... ... : A-3 00 7 ... ... ... : C-3 00 . ... : ... .. C ... : ... .. . ... ...
ROW EF : ... .. . P7F ... ... : ... .. . ... ... ... : ... .. . ... : ... .. 0 ... : ... .. . ... ...
ROW F0 : ... .. . ... ... ... : ... .. 8 ... ... ... : ... .. . ... : ... .. . ... : ... .. . ... ...
ROW F1 : ... .. . ... ... ... : ... .. . ... ... ... : ... .. . ... : ... .. . ... : ... .. . ... ...
ROW F2 : ... .. . ... ... ... : ... .. 9 ... ... ... : ... .. . ... : ... .. . ... : ... .. . ... ...
ROW F3 : ... .. . P81 ... ... : ... .. . ... ... ... : ... .. . ... : ... .. . ... : ... .. . ... ...
ROW F4 : ... .. . ... ... ... : ... .. . ... ... ... : ... .. . ... : ... .. . ... : ... .. . ... ...
ROW F5 : ... .. . ... ... ... : ... .. 8 ... ... ... : ... .. . ... : ... .. . ... : ... .. . ... ...
ROW F6 : ... .. . ... ... ... : ... .. . ... ... ... : --- .. . ... : ... .. . ... : ... .. . ... ...
ROW F7 : ... .. . P7F ... ... : ... .. . ... ... ... : ... .. . ... : ... .. . ... : ... .. . ... ...
ROW F8 : G-4 00 7 P80 ... ... : A#3 00 7 P80 ... ... : C-3 00 . ... : ... .. C ... : ... .. . ... ...
ROW F9 : ... .. . ... ... ... : ... .. . ... ... ... : ... .. . ... : ... .. 0 ... : ... .. . ... ...
ROW FA : ... .. 8 ... ... ... : ... .. 8 ... ... ... : ... .. . ... : ... .. . ... : ... .. . ... ...
ROW FB : ... .. . ... ... ... : ... .. . ... ... ... : ... .. . ... : ... .. . ... : ... .. . ... ...
ROW FC : ... .. 9 ... ... ... : ... .. 9 ... ... ... : ... .. . ... : ... .. . ... : ... .. . ... ...
ROW FD : ... .. . ... ... ... : ... .. . ... ... ... : ... .. . ... : ... .. . ... : ... .. . ... ...
ROW FE : ... .. . ... ... ... : ... .. . ... ... ... : ... .. . ... : ... .. . ... : ... .. . ... ...
ROW FF : ... .. 8 ... ... ... : ... .. 8 ... ... ... : ... .. . ... : ... .. . ... : ... .. . ... ...

PATTERN 12
ROW 00 : ... .. . ... ... ... : ... .. . ... ... ... : --- .. . ... : ... .. . ... : ... .. . ... ...
ROW 01 : ... .. . ... ... ... : ... .. . ... ... ... : ... .. . ... : ... .. . ... : ... .. . ... ...
ROW 02 : ... .. . ... ... ... : ... .. . ... ... ... : ... .. . ... : ... .. . ... : ... .. . ... ...
ROW 03 : ... .. 7 ... ... ... : ... .. 7 ... ... ... : ... .. . ... : ... .. . ... : ... .. . ... ...
ROW 04 : ... .. . ... ... ... : ... .. . ... ... ... : ... .. . ... : ... .. . ... : ... .. . ... ...
ROW 05 : ... .. . ... ... ... : ... .. . ... ... ... : ... .. . ... : ... .. . ... : ... .. . ... ...
ROW 06 : ... .. . ... ... ... : ... .. . ... ... ... : ... .. . ... : ... .. . ... : ... .. . ... ...
ROW 07 : ... .. 6 P7F ... ... : ... .. 6 P7F ... ... : ... .. . P7F : ... .. . ... : ... .. . ... ...
ROW 08 : ... .. . ... ... ... : ... .. . ... ... ... : ... .. . ... : ... .. . ... : ... .. . ... ...
ROW 09 : ... .. . ... ... ... : ... .. . ... ... ... : ... .. . ... : ... .. . ... : ... .. . ... ...
ROW 0A : ... .. . ... ... ... : ... .. . ... ... ... : ... .. . ... : ... .. . ... : ... .. . ... ...
ROW 0B : ... .. . P81 ... ... : ... .. . P81 ... ... : ... .. . P81 : ... .. . ... : ... .. . ... ...
ROW 0C : ... .. . ... ... ... : C-4 00 7 P80 ... ... : C-3 00 . P80 : ... .. C ... : ... .. . ... ...
ROW 0D : ... .. . ... ... ... : ... .. . ... ... ... : ... .. . ... : ... .. 0 ... : ... .. . ... ...
ROW 0E : ... .. . ... ... ... : ... .. 8 ... ... ... : ... .. . ... : ... .. . ... : ... .. . ... ...
ROW 0F : ... .. 5 P7F ... ... : ... .. . ... ... ... : ... .. . ... : ... .. . ... : ... .. . ... ...
ROW 10 : ... .. . ... ... ... : ... .. 9 ... ... ... : ... .. . ... : ... .. . ... : ... .. . ... ...
ROW 11 : ... .. . ... ... ... : ... .. . ... ... ... : ... .. . ... : ... .. . ... : ... .. . ... ...
ROW 12 : ... .. . ... ... ... : ... .. . ... ... ... : ... .. . ... : ... .. . ... : ... .. . ... ...
ROW 13 : ... .. . P81 ... ... : ... .. 8 ... ... ... : ... .. . ... : ... .. . ... : ... .. . ... ...
ROW 14 : ... .. 4 ... ... ... : ... .. . ... ... ... : --- .. . ... : ... .. . ... : ... .. . ... ...
ROW 15 : ... .. . ... ... ... : ... .. . ... ... ... : ... .. . ... : ... .. . ... : ... .. . ... ...
ROW 16 : ... .. . ... ... ... : ... .. . ... ... ... : C-3 00 . ... : ... .. C ... : ... .. . ... ...
ROW 17 : ... .. . P7F ... ... : ... .. 7 ... ... ... : ... .. . ... : ... .. 0 ... : ... .. . ... ...
ROW 18 : ... .. . ... ... ... : ... .. . ... ... ... : ... .. . ... : ... .. . ... : ... .. . ... ...
ROW 19 : ... .. . ... ... ... : ... .. . ... ... ... : ... .. . ... : ... .. . ... : ... .. . ... ...
ROW 1A : ... .. . ... ... ... : ... .. . ... ... ... : ... .. . ... : ... .. . ... : ... .. . ... ...
ROW 1B : ... .. . P81 ... ... : ... .. 6 P7F ... ... : ... .. . ... : ... .. . ... : ... .. . ... ...
ROW 1C : ... .. . ... ... ... : ... .. . ... ... ... : ... .. . ... : ... .. . ... : ... .. . ... ...
ROW 1D : ... .. . ... ... ... : ... .. . ... ... ... : ... .. . ... : ... .. . ... : ... .. . ... ...
ROW 1E : ... .. . ... ... ... : ... .. . ... ... ... : --- .. . ... : ... .. . ... : ... .. . ... ...
ROW 1F : ... .. . P7F ... ... : ... .. . P81 ... ... : ... .. . ... : ... .. . ... : ... .. . ... ...
ROW 20 : F-4 00 7 ... ... ... : A-2 00 7 P7F ... ... : F-3 00 . P7F : ... .. C ... : ... .. . ... ...
ROW 21 : ... .. . ... ... ... : ... .. . ... ... ... : ... .. . ... : ... .. 0 ... : ... .. . ... ...
ROW 22 : ... .. 8 ... ... ... : ... .. 8 ... ... ... : ... .. . ... : ... .. . ... : ... .. . ... ...
ROW 23 : ... .. . ... ... ... : ... .. . ... ... ... : ... .. . ... : ... .. . ... : ... .. . ... ...
ROW 24 : ... .. 9 ... ... ... : ... .. 9 ... ... ... : ... .. . ... : ... .. . ... : ... .. . ... ...
ROW 25 : ... .. . ... ... ... : ... .. . ... ... ... : ... .. . ... : ... .. . ... : ... .. . ... ...
ROW 26 : ... .. . ... ... ... : ... .. . ... ... ... : ... .. . ... : ... .. . ... : ... .. . ... ...
ROW 27 : ... .. 8 ... ... ... : ... .. 8 ... ... ... : ... .. . ... : ... .. . ... : ... .. . ... ...
ROW 28 : ... .. . ... ... ... : ... .. . ... ... ... : --- .. . ... : ... .. . ... : ... .. . ... ...
ROW 29 : ... .. . ... ... ... : ... .. . ... ... ... : ... .. . ... : ... .. . ... : ... .. . ... ...
ROW 2A : ... .. 4 ... ... ... : ... .. . ... ... ... : ... .. . ... : ... .. . ... : ... .. . ... ...
ROW 2B : ... .. . ... ... ... : ... .. 7 ... ... ... : ... .. . ... : ... .. . ... : ... .. . ... ...
ROW 2C : ... .. . ... ... ... : ... .. . ... ... ... : ... .. . ... : ... .. . ... : ... .. . ... ...
ROW 2D : ... .. . ... ... ... : ... .. . ... ... ... : ... .. . ... : ... .. . ... : ... .. . ... ...
ROW 2E : ... .. . ... ... ... : ... .. . ... ... ... : ... .. . ... : ... .. . ... : ... .. . ... ...
ROW 2F : ... .. . ... ... ... : ... .. 6 P7E ... ... : ... .. . P7E : ... .. . ... : ... .. . ... ...
ROW 30 : ... .. . ... ... ... : ... .. . ... ... ... : ... .. . ... : ... .. . ... : ... .. . ... ...
ROW 31 : ... .. . ... ... ... : ... .. . ... ... ... : ... .. . ... : ... .. . ... : ... .. . ... ...
ROW 32 : ... .. . ... ... ... : ... .. . ... ... ... : ... .. . ... : ... .. . ... : ... .. . ... ...
ROW 33 : ... .. . ... ... ... : ... .. . P80 ... ... : ... .. . P80 : ... .. . ... : ... .. . ... ...
ROW 34 : F-3 00 7 ... ... ... : ... .. 7 P7F ... ... : F-2 00 . ... : ... .. C ... : ... .. . ... ...
ROW 35 : ... .. . ... ... ... : ... .. . ... ... ... : ... .. . ... : ... .. 0 ... : ... .. . ... ...
ROW 36 : ... .. 8 ... ... ... : ... .. 8 ... ... ... : ... .. . ... : ... .. . ... : ... .. . ... ...
ROW 37 : ... .. . ... ... ... : ... .. . ... ... ... : ... .. . ... : ... .. . ... : ... .. . ... ...
ROW 38 : ... .. 9 ... ... ... : ... .. 9 ... ... ... : ... .. . ... : ... .. . ... : ... .. . ... ...
ROW 39 : ... .. . ... ... ... : ... .. . ... ... ... : ... .. . ... : ... .. . ... : ... .. . ... ...
ROW 3A : ... .. . ... ... ... : ... .. . ... ... ... : ... .. . ... : ... .. . ... : ... .. . ... ...
ROW 3B : ... .. 8 ... ... ... : ... .. 8 ... ... ... : ... .. . ... : ... .. . ... : ... .. . ... ...
ROW 3C : ... .. . ... ... ... : ... .. . ... ... ... : --- .. . ... : ... .. . ... : ... .. . ... ...
ROW 3D : ... .. . ... ... ... : ... .. . ... ... ... : ... .. . ... : ... .. . ... : ... .. . ... ...
ROW 3E : ... .. 7 ... ... ... : ... .. 7 ... ... ... : F-2 00 . ... : ... .. C ... : ... .. . ... ...
ROW 3F : ... .. . ... ... ... : ... .. . ... ... ... : ... .. . ... : ... .. 0 ... : ... .. . ... ...
ROW 40 : ... .. 8 ... ... ... : ... .. 8 ... ... ... : ... .. . ... : ... .. . ... : ... .. . ... ...
ROW 41 : ... .. . ... ... ... : ... .. . ... ... ... : ... .. . ... : ... .. . ... : ... .. . ... ...
ROW 42 : ... .. 9 ... ... ... : ... .. 9 ... ... ... : ... .. . ... : ... .. . ... : ... .. . ... ...
ROW 43 : ... .. . ... ... ... : ... .. . ... ... ... : ... .. . ... : ... .. . ... : ... .. . ... ...
ROW 44 : ... .. . ... ... ... : ... .. . ... ... ... : ... .. . ... : ... .. . ... : ... .. . ... ...
ROW 45 : ... .. 8 ... ... ... : ... .. 8 ... ... ... : ... .. . ... : ... .. . ... : ... .. . ... ...
ROW 46 : ... .. . ... ... ... : ... .. . ... ... ... : --- .. . ... : ... .. . ... : ... .. . ... ...
ROW 47 : ... .. . ... ... ... : ... .. . ... ... ... : ... .. . ... : ... .. . ... : ... .. . ... ...
ROW 48 : ... .. 7 ... ... ... : G#2 00 7 P80 ... ... : F-2 00 . ... : ... .. C ... : ... .. . ... ...
ROW 49 : ... .. . ... ... ... : ... .. . ... ... ... : ... .. . ... : ... .. 0 ... : ... .. . ... ...
ROW 4A : ... .. 8 ... ... ... : ... .. 8 ... ... ... : ... .. . ... : ... .. . ... : ... .. . ... ...
ROW 4B : ... .. . ... ... ... : ... .. . ... ... ... : ... .. . ... : ... .. . ... : ... .. . ... ...
ROW 4C : ... .. 9 ... ... ... : ... .. 9 ... ... ... : ... .. . ... : ... .. . ... : ... .. . ... ...
ROW 4D : ... .. . ... ... ... : ... .. . ... ... ... : ... .. . ... : ... .. . ... : ... .. . ... ...
ROW 4E : ... .. . ... ... ... : ... .. . ... ... ... : ... .. . ... : ... .. . ... : ... .. . ... ...
ROW 4F : ... .. 8 ... ... ... : ... .. 8 ... ... ... : ... .. . ... : ... .. . ... : ... .. . ... ...
ROW 50 : ... .. . ... ... ... : ... .. . ... ... ... : --- .. . ... : ... .. . ... : ... .. . ... ...
ROW 51 : ... .. . ... ... ... : ... .. . ... ... ... : ... .. . ... : ... .. . ... : ... .. . ... ...
ROW 52 : ... .. 4 ... ... ... : ... .. . ... ... ... : ... .. . ... : ... .. . ... : ... .. . ... ...
ROW 53 : ... .. . ... ... ... : ... .. 7 ... ... ... : ... .. . ... : ... .. . ... : ... .. . ... ...
ROW 54 : ... .. . ... ... ... : ... .. . ... ... ... : ... .. . ... : ... .. . ... : ... .. . ... ...
ROW 55 : ... .. . ... ... ... : ... .. . ... ... ... : ... .. . ... : ... .. . ... : ... .. . ... ...
ROW 56 : ... .. . ... ... ... : ... .. . ... ... ... : ... .. . ... : ... .. . ... : ... .. . ... ...
ROW 57 : ... .. . ... ... ... : ... .. 6 P7F ... ... : ... .. . P7F : ... .. . ... : ... .. . ... ...
ROW 58 : ... .. . ... ... ... : ... .. . ... ... ... : ... .. . ... : ... .. . ... : ... .. . ... ...
ROW 59 : ... .. . ... ... ... : ... .. . ... ... ... : ... .. . ... : ... .. . ... : ... .. . ... ...
ROW 5A : ... .. . ... ... ... : ... .. . ... ... ... : ... .. . ... : ... .. . ... : ... .. . ... ...
ROW 5B : ... .. . ... ... ... : ... .. . P81 ... ... : ... .. . P81 : ... .. . ... : ... .. . ... ...
ROW 5C : ... .. 7 ... ... ... : ... .. 7 P80 ... ... : F-2 00 . P80 : ... .. C ... : ... .. . ... ...
ROW 5D : ... .. . ... ... ... : ... .. . ... ... ... : ... .. . ... : ... .. 0 ... : ... .. . ... ...
ROW 5E : ... .. 8 ... ... ... : ... .. 8 ... ... ... : ... .. . ... : ... .. . ... : ... .. . ... ...
ROW 5F : ... .. . ... ... ... : ... .. . ... ... ... : ... .. . ... : ... .. . ... : ... .. . ... ...
ROW 60 : ... .. 9 ... ... ... : ... .. 9 ... ... ... : ... .. . ... : ... .. . ... : ... .. . ... ...
ROW 61 : ... .. . ... ... ... : ... .. . ... ... ... : ... .. . ... : ... .. . ... : ... .. . ... ...
ROW 62 : ... .. . ... ... ... : ... .. . ... ... ... : ... .. . ... : ... .. . ... : ... .. . ... ...
ROW 63 : ... .. 8 ... ... ... : ... .. 8 ... ... ... : ... .. . ... : ... .. . ... : ... .. . ... ...
ROW 64 : ... .. . ... ... ... : ... .. . ... ... ... : --- .. . ... : ... .. . ... : ... .. . ... ...
ROW 65 : ... .. . ... ... ... : ... .. . ... ... ... : ... .. . ... : ... .. . ... : ... .. . ... ...
ROW 66 : ... .. 7 ... ... ... : ... .. 7 ... ... ... : F-2 00 . ... : ... .. C ... : ... .. . ... ...
ROW 67 : ... .. . ... ... ... : ... .. . ... ... ... : ... .. . ... : ... .. 0 ... : ... .. . ... ...
ROW 68 : ... .. 8 ... ... ... : ... .. 8 ... ... ... : ... .. . ... : ... .. . ... : ... .. . ... ...
ROW 69 : ... .. . ... ... ... : ... .. . ... ... ... : ... .. . ... : ... .. . ... : ... .. . ... ...
ROW 6A : ... .. 9 ... ... ... : ... .. 9 ... ... ... : ... .. . ... : ... .. . ... : ... .. . ... ...
ROW 6B : ... .. . ... ... ... : ... .. . ... ... ... : ... .. . ... : ... .. . ... : ... .. . ... ...
ROW 6C : ... .. . ... ... ... : ... .. . ... ... ... : ... .. . ... : ... .. . ... : ... .. . ... ...
ROW 6D : ... .. 8 ... ... ... : ... .. 8 ... ... ... : ... .. . ... : ... .. . ... : ... .. . ... ...
ROW 6E : ... .. . ... ... ... : ... .. . ... ... ... : --- .. . ... : ... .. . ... : ... .. . ... ...
ROW 6F : ... .. . ... ... ... : ... .. . ... ... ... : ... .. . ... : ... .. . ... : ... .. . ... ...
ROW 70 : ... .. 7 ... ... ... : G-2 00 7 ... ... ... : F-2 00 . ... : ... .. C ... : ... .. . ... ...
ROW 71 : ... .. . ... ... ... : ... .. . ... ... ... : ... .. . ... : ... .. 0 ... : ... .. . ... ...
ROW 72 : ... .. 8 ... ... ... : ... .. 8 ... ... ... : ... .. . ... : ... .. . ... : ... .. . ... ...
ROW 73 : ... .. . ... ... ... : ... .. . ... ... ... : ... .. . ... : ... .. . ... : ... .. . ... ...
ROW 74 : ... .. 9 ... ... ... : ... .. 9 ... ... ... : ... .. . ... : ... .. . ... : ... .. . ... ...
ROW 75 : ... .. . ... ... ... : ... .. . ... ... ... : ... .. . ... : ... .. . ... : ... .. . ... ...
ROW 76 : ... .. . ... ... ... : ... .. . ... ... ... : ... .. . ... : ... .. . ... : ... .. . ... ...
ROW 77 : ... .. 8 ... ... ... : ... .. 8 ... ... ... : ... .. . ... : ... .. . ... : ... .. . ... ...
ROW 78 : ... .. . ... ... ... : ... .. . ... ... ... : --- .. . ... : ... .. . ... : ... .. . ... ...
ROW 79 : ... .. . ... ... ... : ... .. . ... ... ... : ... .. . ... : ... .. . ... : ... .. . ... ...
ROW 7A : ... .. 4 ... ... ... : ... .. . ... ... ... : ... .. . ... : ... .. . ... : ... .. . ... ...
ROW 7B : ... .. . ... ... ... : ... .. 7 ... ... ... : ... .. . ... : ... .. . ... : ... .. . ... ...
ROW 7C : ... .. . ... ... ... : ... .. . ... ... ... : ... .. . ... : ... .. . ... : ... .. . ... ...
ROW 7D : ... .. . ... ... ... : ... .. . ... ... ... : ... .. . ... : ... .. . ... : ... .. . ... ...
ROW 7E : ... .. . ... ... ... : ... .. . ... ... ... : ... .. . ... : ... .. . ... : ... .. . ... ...
ROW 7F : ... .. . ... ... ... : ... .. 6 P7F ... ... : ... .. . P7F : ... .. . ... : ... .. . ... ...
ROW 80 : ... .. . ... ... ... : ... .. . ... ... ... : ... .. . ... : ... .. . ... : ... .. . ... ...
ROW 81 : ... .. . ... ... ... : ... .. . ... ... ... : ... .. . ... : ... .. . ... : ... .. . ... ...
ROW 82 : ... .. . ... ... ... : ... .. . ... ... ... : ... .. . ... : ... .. . ... : ... .. . ... ...
ROW 83 : ... .. . ... ... ... : ... .. . P81 ... ... : ... .. . P81 : ... .. . ... : ... .. . ... ...
ROW 84 : ... .. 7 ... ... ... : ... .. 7 P80 ... ... : F-2 00 . P80 : ... .. C ... : ... .. . ... ...
ROW 85 : ... .. . ... ... ... : ... .. . ... ... ... : ... .. . ... : ... .. 0 ... : ... .. . ... ...
ROW 86 : ... .. 8 ... ... ... : ... .. 8 ... ... ... : ... .. . ... : ... .. . ... : ... .. . ... ...
ROW 87 : ... .. . ... ... ... : ... .. . ... ... ... : ... .. . ... : ... .. . ... : ... .. . ... ...
ROW 88 : ... .. 9 ... ... ... : ... .. 9 ... ... ... : ... .. . ... : ... .. . ... : ... .. . ... ...
ROW 89 : ... .. . ... ... ... : ... .. . ... ... ... : ... .. . ... : ... .. . ... : ... .. . ... ...
ROW 8A : ... .. . ... ... ... : ... .. . ... ... ... : ... .. . ... : ... .. . ... : ... .. . ... ...
ROW 8B : ... .. 8 ... ... ... : ... .. 8 ... ... ... : ... .. . ... : ... .. . ... : ... .. . ... ...
ROW 8C : ... .. . ... ... ... : ... .. . ... ... ... : --- .. . ... : ... .. . ... : ... .. . ... ...
ROW 8D : ... .. . ... ... ... : ... .. . ... ... ... : ... .. . ... : ... .. . ... : ... .. . ... ...
ROW 8E : ... .. 7 ... ... ... : ... .. 7 ... ... ... : F-2 00 . ... : ... .. C ... : ... .. . ... ...
ROW 8F : ... .. . ... ... ... : ... .. . ... ... ... : ... .. . ... : ... .. 0 ... : ... .. . ... ...
ROW 90 : ... .. 8 ... ... ... : ... .. 8 ... ... ... : ... .. . ... : ... .. . ... : ... .. . ... ...
ROW 91 : ... .. . ... ... ... : ... .. . ... ... ... : ... .. . ... : ... .. . ... : ... .. . ... ...
ROW 92 : ... .. 9 ... ... ... : ... .. 9 ... ... ... : ... .. . ... : ... .. . ... : ... .. . ... ...
ROW 93 : ... .. . ... ... ... : ... .. . ... ... ... : ... .. . ... : ... .. . ... : ... .. . ... ...
ROW 94 : ... .. . ... ... ... : ... .. . ... ... ... : ... .. . ... : ... .. . ... : ... .. . ... ...
ROW 95 : ... .. 8 ... ... ... : ... .. 8 ... ... ... : ... .. . ... : ... .. . ... : ... .. . ... ...
ROW 96 : ... .. . ... ... ... : ... .. . ... ... ... : --- .. . ... : ... .. . ... : ... .. . ... ...
ROW 97 : ... .. . ... ... ... : ... .. . ... ... ... : ... .. . ... : ... .. . ... : ... .. . ... ...
ROW 98 : ... .. 7 ... ... ... : F#2 00 7 ... ... ... : F-2 00 . ... : ... .. C ... : ... .. . ... ...
ROW 99 : ... .. . ... ... ... : ... .. . ... ... ... : ... .. . ... : ... .. 0 ... : ... .. . ... ...
ROW 9A : ... .. 8 ... ... ... : ... .. 8 ... ... ... : ... .. . ... : ... .. . ... : ... .. . ... ...
ROW 9B : ... .. . ... ... ... : ... .. . ... ... ... : ... .. . ... : ... .. . ... : ... .. . ... ...
ROW 9C : ... .. 9 ... ... ... : ... .. 9 ... ... ... : ... .. . ... : ... .. . ... : ... .. . ... ...
ROW 9D : ... .. . ... ... ... : ... .. . ... ... ... : ... .. . ... : ... .. . ... : ... .. . ... ...
ROW 9E : ... .. . ... ... ... : ... .. . ... ... ... : ... .. . ... : ... .. . ... : ... .. . ... ...
ROW 9F : ... .. 8 ... ... ... : ... .. 8 ... ... ... : ... .. . ... : ... .. . ... : ... .. . ... ...
ROW A0 : ... .. . ... ... ... : ... .. . ... ... ... : --- .. . ... : ... .. . ... : ... .. . ... ...
ROW A1 : ... .. . ... ... ... : ... .. . ... ... ... : ... .. . ... : ... .. . ... : ... .. . ... ...
ROW A2 : ... .. . ... ... ... : ... .. . ... ... ... : ... .. . ... : ... .. . ... : ... .. . ... ...
ROW A3 : ... .. 7 ... ... ... : ... .. 7 ... ... ... : ... .. . ... : ... .. . ... : ... .. . ... ...
ROW A4 : ... .. . ... ... ... : ... .. . ... ... ... : ... .. . ... : ... .. . ... : ... .. . ... ...
ROW A5 : ... .. . ... ... ... : ... .. . ... ... ... : ... .. . ... : ... .. . ... : ... .. . ... ...
ROW A6 : ... .. . ... ... ... : ... .. . ... ... ... : ... .. . ... : ... .. . ... : ... .. . ... ...
ROW A7 : ... .. 6 P7E ... ... : ... .. 6 P7F ... ... : ... .. . P7F : ... .. . ... : ... .. . ... ...
ROW A8 : ... .. . ... ... ... : ... .. . ... ... ... : ... .. . ... : ... .. . ... : ... .. . ... ...
ROW A9 : ... .. . ... ... ... : ... .. . ... ... ... : ... .. . ... : ... .. . ... : ... .. . ... ...
ROW AA : ... .. . ... ... ... : ... .. . ... ... ... : ... .. . ... : ... .. . ... : ... .. . ... ...
ROW AB : ... .. . P80 ... ... : ... .. . P81 ... ... : ... .. . P81 : ... .. . ... : ... .. . ... ...
ROW AC : ... .. 7 P7F ... ... : ... .. 7 P80 ... ... : G-2 00 . P80 : ... .. C ... : ... .. . ... ...
ROW AD : ... .. . ... ... ... : ... .. . ... ... ... : ... .. . ... : ... .. 0 ... : ... .. . ... ...
ROW AE : ... .. 8 ... ... ... : ... .. 8 ... ... ... : ... .. . ... : ... .. . ... : ... .. . ... ...
ROW AF : ... .. . ... ... ... : ... .. . ... ... ... : ... .. . ... : ... .. . ... : ... .. . ... ...
ROW B0 : ... .. 9 ... ... ... : ... .. 9 ... ... ... : ... .. . ... : ... .. . ... : ... .. . ... ...
ROW B1 : ... .. . ... ... ... : ... .. . ... ... ... : ... .. . ... : ... .. . ... : ... .. . ... ...
ROW B2 : ... .. . ... ... ... : ... .. . ... ... ... : ... .. . ... : ... .. . ... : ... .. . ... ...
ROW B3 : ... .. 8 ... ... ... : ... .. 8 ... ... ... : ... .. . ... : ... .. . ... : ... .. . ... ...
ROW B4 : ... .. . ... ... ... : ... .. . ... ... ... : --- .. . ... : ... .. . ... : ... .. . ... ...
ROW B5 : ... .. . ... ... ... : ... .. . ... ... ... : ... .. . ... : ... .. . ... : ... .. . ... ...
ROW B6 : ... .. . ... ... ... : ... .. . ... ... ... : A-2 00 . P7F : ... .. C ... : ... .. . ... ...
ROW B7 : ... .. 7 ... ... ... : ... .. 7 ... ... ... : ... .. . ... : ... .. 0 ... : ... .. . ... ...
ROW B8 : ... .. . ... ... ... : ... .. . ... ... ... : ... .. . ... : ... .. . ... : ... .. . ... ...
ROW B9 : ... .. . ... ... ... : ... .. . ... ... ... : ... .. . ... : ... .. . ... : ... .. . ... ...
ROW BA : ... .. . ... ... ... : ... .. . ... ... ... : ... .. . ... : ... .. . ... : ... .. . ... ...
ROW BB : ... .. 6 P7E ... ... : ... .. 6 P7F ... ... : ... .. . ... : ... .. . ... : ... .. . ... ...
ROW BC : ... .. . ... ... ... : ... .. . ... ... ... : ... .. . ... : ... .. . ... : ... .. . ... ...
ROW BD : ... .. . ... ... ... : ... .. . ... ... ... : ... .. . ... : ... .. . ... : ... .. . ... ...
ROW BE : ... .. . ... ... ... : ... .. . ... ... ... : --- .. . ... : ... .. . ... : ... .. . ... ...
ROW BF : ... .. . P80 ... ... : ... .. . P81 ... ... : ... .. . ... : ... .. . ... : ... .. . ... ...
ROW C0 : ... .. 4 P7F ... ... : A#3 00 7 P80 ... ... : A#2 00 . P80 : F-# 00 0 ... : ... .. . ... ...
ROW C1 : ... .. . ... ... ... : ... .. . ... ... ... : ... .. . ... : ... .. . ... : ... .. . ... ...
ROW C2 : ... .. . ... ... ... : ... .. 8 ... ... ... : ... .. . ... : ... .. . ... : ... .. . ... ...
ROW C3 : ... .. . ... ... ... : ... .. . ... ... ... : ... .. . ... : ... .. . ... : ... .. . ... ...
ROW C4 : ... .. . ... ... ... : ... .. 9 ... ... ... : ... .. . ... : ... .. . ... : ... .. . ... ...
ROW C5 : A#3 00 7 P80 ... ... : ... .. . ... ... ... : ... .. . ... : ... .. . ... : ... .. . ... ...
ROW C6 : ... .. . ... ... ... : ... .. . ... ... ... : ... .. . ... : ... .. . ... : ... .. . ... ...
ROW C7 : ... .. 8 ... ... ... : ... .. 8 ... ... ... : ... .. . ... : ... .. . ... : ... .. . ... ...
ROW C8 : ... .. . ... ... ... : ... .. . ... ... ... : ... .. . ... : ... .. . ... : ... .. . ... ...
ROW C9 : ... .. 9 ... ... ... : ... .. . ... ... ... : ... .. . ... : ... .. . ... : ... .. . ... ...
ROW CA : ... .. . ... ... ... : ... .. . ... ... ... : ... .. . ... : ... .. . ... : ... .. . ... ...
ROW CB : ... .. . ... ... ... : ... .. 7 ... ... ... : ... .. . ... : ... .. . ... : ... .. . ... ...
ROW CC : ... .. 8 ... ... ... : ... .. . ... ... ... : ... .. . ... : ... .. . ... : ... .. . ... ...
ROW CD : ... .. . ... ... ... : ... .. . ... ... ... : ... .. . ... : ... .. . ... : ... .. . ... ...
ROW CE : ... .. . ... ... ... : ... .. . ... ... ... : ... .. . ... : ... .. . ... : ... .. . ... ...
ROW CF : ... .. . ... ... ... : ... .. 6 P7F ... ... : ... .. . P7F : ... .. . ... : ... .. . ... ...
ROW D0 : ... .. 7 ... ... ... : ... .. . ... ... ... : ... .. . ... : ... .. . ... : ... .. . ... ...
ROW D1 : ... .. . ... ... ... : ... .. . ... ... ... : ... .. . ... : ... .. . ... : ... .. . ... ...
ROW D2 : ... .. . ... ... ... : ... .. . ... ... ... : ... .. . ... : ... .. . ... : ... .. . ... ...
ROW D3 : ... .. . ... ... ... : ... .. . P81 ... ... : ... .. . P81 : ... .. . ... : ... .. . ... ...
ROW D4 : ... .. 6 P7F ... ... : ... .. . ... ... ... : ... .. . ... : ... .. . ... : ... .. . ... ...
ROW D5 : ... .. . ... ... ... : ... .. . ... ... ... : ... .. . ... : ... .. . ... : ... .. . ... ...
ROW D6 : ... .. . ... ... ... : ... .. . ... ... ... : ... .. . ... : ... .. . ... : ... .. . ... ...
ROW D7 : ... .. . ... ... ... : ... .. 5 P7F ... ... : ... .. . P7F : ... .. . ... : ... .. . ... ...
ROW D8 : ... .. . P81 ... ... : ... .. . ... ... ... : ... .. . ... : ... .. . ... : ... .. . ... ...
ROW D9 : ... .. . ... ... ... : ... .. . ... ... ... : ... .. . ... : ... .. . ... : ... .. . ... ...
ROW DA : ... .. . ... ... ... : ... .. . ... ... ... : ... .. . ... : ... .. . ... : ... .. . ... ...
ROW DB : ... .. . ... ... ... : ... .. . P81 ... ... : ... .. . P81 : ... .. . ... : ... .. . ... ...
ROW DC : ... .. 5 P7F ... ... : ... .. 4 ... ... ... : ... .. . ... : ... .. . ... : ... .. . ... ...
ROW DD : ... .. . ... ... ... : ... .. . ... ... ... : ... .. . ... : ... .. . ... : ... .. . ... ...
ROW DE : ... .. . ... ... ... : ... .. . ... ... ... : ... .. . ... : ... .. . ... : ... .. . ... ...
ROW DF : ... .. . ... ... ... : ... .. . P7F ... ... : ... .. . P7F : ... .. . ... : ... .. . ... ...
ROW E0 : ... .. . P81 ... ... : ... .. . ... ... ... : ... .. . ... : ... .. . ... : ... .. . ... ...
ROW E1 : ... .. 4 ... ... ... : ... .. . ... ... ... : ... .. . ... : ... .. . ... : ... .. . ... ...
ROW E2 : ... .. . ... ... ... : ... .. . ... ... ... : ... .. . ... : ... .. . ... : ... .. . ... ...
ROW E3 : ... .. . ... ... ... : ... .. . P81 ... ... : ... .. . P81 : ... .. . ... : ... .. . ... ...
ROW E4 : ... .. . P7F ... ... : ... .. . ... ... ... : ... .. . ... : ... .. . ... : ... .. . ... ...
ROW E5 : ... .. . ... ... ... : ... .. . ... ... ... : ... .. . ... : ... .. . ... : ... .. . ... ...
ROW E6 : ... .. . ... ... ... : ... .. . ... ... ... : ... .. . ... : ... .. . ... : ... .. . ... ...
ROW E7 : ... .. . ... ... ... : ... .. . P7F ... ... : ... .. . P7F : ... .. . ... : ... .. . ... ...
ROW E8 : ... .. . P81 ... ... : ... .. . ... ... ... : F-3 00 . ... : ... .. . ... : ... .. . ... ...
ROW E9 : ... .. . ... ... ... : ... .. . ... ... ... : ... .. . ... : ... .. . ... : ... .. . ... ...
ROW EA : ... .. . ... ... ... : ... .. . ... ... ... : ... .. . ... : ... .. . ... : ... .. . ... ...
ROW EB : ... .. . ... ... ... : ... .. . P81 ... ... : ... .. . ... : ... .. . ... : ... .. . ... ...
ROW EC : ... .. . P7F ... ... : ... .. . ... ... ... : ... .. . ... : ... .. . ... : ... .. . ... ...
ROW ED : ... .. . ... ... ... : ... .. . ... ... ... : ... .. . ... : ... .. . ... : ... .. . ... ...
ROW EE : ... .. . ... ... ... : ... .. . ... ... ... : ... .. . ... : ... .. . ... : ... .. . ... ...
ROW EF : ... .. . ... ... ... : ... .. . P7F ... ... : ... .. . ... : ... .. . ... : ... .. . ... ...
ROW F0 : ... .. . P81 ... ... : ... .. . ... ... ... : ... .. . ... : ... .. . ... : ... .. . ... ...
ROW F1 : ... .. . ... ... ... : ... .. . ... ... ... : ... .. . ... : ... .. . ... : ... .. . ... ...
ROW F2 : ... .. . ... ... ... : ... .. . ... ... ... : ... .. . ... : ... .. . ... : ... .. . ... ...
ROW F3 : ... .. . ... ... ... : ... .. . P81 ... ... : ... .. . ... : ... .. . ... : ... .. . ... ...
ROW F4 : ... .. . P7F ... ... : ... .. . ... ... ... : ... .. . ... : ... .. . ... : ... .. . ... ...
ROW F5 : ... .. . ... ... ... : ... .. . ... ... ... : ... .. . ... : ... .. . ... : ... .. . ... ...
ROW F6 : ... .. . ... ... ... : ... .. . ... ... ... : ... .. . ... : ... .. . ... : ... .. . ... ...
ROW F7 : ... .. . ... ... ... : ... .. . P7F ... ... : ... .. . P7E : ... .. . ... : ... .. . ... ...
ROW F8 : ... .. . P81 ... ... : ... .. . ... ... ... : ... .. . ... : ... .. . ... : ... .. . ... ...
ROW F9 : ... .. . ... ... ... : ... .. . ... ... ... : ... .. . ... : ... .. . ... : ... .. . ... ...
ROW FA : ... .. . ... ... ... : ... .. . ... ... ... : ... .. . ... : ... .. . ... : ... .. . ... ...
ROW FB : ... .. . ... ... ... : ... .. . P81 ... ... : ... .. . P80 : ... .. . ... : ... .. . ... ...
ROW FC : ... .. . P7F ... ... : ... .. . ... ... ... : ... .. . ... : ... .. . ... : ... .. . ... ...
ROW FD : ... .. . ... ... ... : ... .. . ... ... ... : ... .. . ... : ... .. . ... : ... .. . ... ...
ROW FE : ... .. . ... ... ... : ... .. . ... ... ... : ... .. . ... : ... .. . ... : ... .. . ... ...
ROW FF : ... .. . ... ... ... : ... .. . P7F ... ... : ... .. . P7E : ... .. . ... : ... .. . ... ...

PATTERN 13
ROW 00 : ... .. . P81 ... ... : ... .. . ... ... ... : ... .. . ... : ... .. . ... : ... .. . ... ...
ROW 01 : ... .. . ... ... ... : ... .. . ... ... ... : ... .. . ... : ... .. . ... : ... .. . ... ...
ROW 02 : ... .. . ... ... ... : ... .. . ... ... ... : ... .. . ... : ... .. . ... : ... .. . ... ...
ROW 03 : ... .. . ... ... ... : ... .. . P81 ... ... : ... .. . P80 : ... .. . ... : ... .. . ... ...
ROW 04 : ... .. . P7F ... ... : ... .. . ... ... ... : ... .. . ... : ... .. . ... : ... .. . ... ...
ROW 05 : ... .. . ... ... ... : ... .. . ... ... ... : ... .. . ... : ... .. . ... : ... .. . ... ...
ROW 06 : ... .. . ... ... ... : ... .. . ... ... ... : ... .. . ... : ... .. . ... : ... .. . ... ...
ROW 07 : ... .. . ... ... ... : ... .. . P7F ... ... : ... .. . P7E : ... .. . ... : ... .. . ... ...
ROW 08 : ... .. . P81 ... ... : ... .. . ... ... ... : ... .. . ... : ... .. . ... : ... .. . ... ...
ROW 09 : ... .. . ... ... ... : ... .. . ... ... ... : ... .. . ... : ... .. . ... : ... .. . ... ...
ROW 0A : ... .. . ... ... ... : ... .. . ... ... ... : ... .. . ... : ... .. . ... : ... .. . ... ...
ROW 0B : ... .. . ... ... ... : ... .. . P81 ... ... : ... .. . P80 : ... .. . ... : ... .. . ... ...
ROW 0C : ... .. . P7F ... ... : ... .. . ... ... ... : ... .. . ... : ... .. . ... : ... .. . ... ...
ROW 0D : ... .. . ... ... ... : ... .. . ... ... ... : ... .. . ... : ... .. . ... : ... .. . ... ...
ROW 0E : ... .. . ... ... ... : ... .. . ... ... ... : ... .. . ... : ... .. . ... : ... .. . ... ...
ROW 0F : ... .. . ... ... ... : ... .. . P7F ... ... : ... .. . P7E : ... .. . ... : ... .. . ... ...
ROW 10 : ... .. . P81 ... ... : ... .. . P80 ... ... : A#3 00 . P80 : ... .. . ... : ... .. . ... ...
ROW 11 : ... .. . ... ... ... : ... .. . ... ... ... : ... .. . ... : ... .. . ... : ... .. . ... ...
ROW 12 : ... .. . ... ... ... : ... .. . ... ... ... : ... .. . ... : ... .. . ... : ... .. . ... ...
ROW 13 : ... .. . ... ... ... : ... .. . ... ... ... : ... .. . ... : ... .. . ... : ... .. . ... ...
ROW 14 : ... .. . P7F ... ... : ... .. . ... ... ... : ... .. . ... : ... .. . ... : ... .. . ... ...
ROW 15 : ... .. . P80 ... ... : ... .. . ... ... ... : ... .. . ... : ... .. . ... : ... .. . ... ...
ROW 16 : ... .. . ... ... ... : ... .. . ... ... ... : ... .. . ... : ... .. . ... : ... .. . ... ...
ROW 17 : ... .. . ... ... ... : ... .. . ... ... ... : ... .. . ... : ... .. . ... : ... .. . ... ...
ROW 18 : ... .. . ... ... ... : ... .. . ... ... ... : ... .. . ... : ... .. . ... : ... .. . ... ...
ROW 19 : ... .. . ... ... ... : ... .. . ... ... ... : ... .. . ... : ... .. . ... : ... .. . ... ...
ROW 1A : ... .. . ... ... ... : ... .. . ... ... ... : ... .. . ... : ... .. . ... : ... .. . ... ...
ROW 1B : ... .. . ... ... ... : ... .. . ... ... ... : ... .. . ... : ... .. . ... : ... .. . ... ...
ROW 1C : ... .. . ... ... ... : ... .. . ... ... ... : ... .. . ... : ... .. . ... : ... .. . ... ...
ROW 1D : ... .. . ... ... ... : ... .. . ... ... ... : ... .. . ... : ... .. . ... : ... .. . ... ...
ROW 1E : ... .. . ... ... ... : ... .. . ... ... ... : ... .. . ... : ... .. . ... : ... .. . ... ...
ROW 1F : ... .. . ... ... ... : ... .. . P7F ... ... : ... .. . P7F : ... .. . ... : ... .. . ... ...
ROW 20 : ... .. . ... ... ... : ... .. . ... ... ... : ... .. . ... : ... .. . ... : ... .. . ... ...
ROW 21 : ... .. . ... ... ... : ... .. . ... ... ... : ... .. . ... : ... .. . ... : ... .. . ... ...
ROW 22 : ... .. . ... ... ... : ... .. . ... ... ... : ... .. . ... : ... .. . ... : ... .. . ... ...
ROW 23 : ... .. . ... ... ... : ... .. . P81 ... ... : ... .. . P81 : ... .. . ... : ... .. . ... ...
ROW 24 : ... .. . P7F ... ... : F-3 00 7 P7F ... ... : ... .. . ... : ... .. . ... : ... .. . ... ...
ROW 25 : ... .. . ... ... ... : ... .. . ... ... ... : ... .. . ... : ... .. . ... : ... .. . ... ...
ROW 26 : ... .. . ... ... ... : ... .. 8 ... ... ... : ... .. . ... : ... .. . ... : ... .. . ... ...
ROW 27 : ... .. . ... ... ... : ... .. . ... ... ... : ... .. . P7F : ... .. . ... : ... .. . ... ...
ROW 28 : ... .. . P81 ... ... : ... .. 9 ... ... ... : ... .. . ... : ... .. . ... : ... .. . ... ...
ROW 29 : F-3 00 7 P7F ... ... : ... .. . ... ... ... : ... .. . ... : ... .. . ... : ... .. . ... ...
ROW 2A : ... .. . ... ... ... : ... .. . ... ... ... : ... .. . ... : ... .. . ... : ... .. . ... ...
ROW 2B : ... .. 8 ... ... ... : ... .. 8 ... ... ... : ... .. . P81 : ... .. . ... : ... .. . ... ...
ROW 2C : ... .. . ... ... ... : ... .. . ... ... ... : ... .. . ... : ... .. . ... : ... .. . ... ...
ROW 2D : ... .. 9 ... ... ... : ... .. . ... ... ... : ... .. . ... : ... .. . ... : ... .. . ... ...
ROW 2E : ... .. . ... ... ... : ... .. . ... ... ... : ... .. . ... : ... .. . ... : ... .. . ... ...
ROW 2F : ... .. . ... ... ... : ... .. 7 ... ... ... : ... .. . P7F : ... .. . ... : ... .. . ... ...
ROW 30 : ... .. 8 ... ... ... : ... .. . ... ... ... : ... .. . ... : ... .. . ... : ... .. . ... ...
ROW 31 : ... .. . ... ... ... : ... .. . ... ... ... : ... .. . ... : ... .. . ... : ... .. . ... ...
ROW 32 : ... .. . ... ... ... : ... .. . ... ... ... : ... .. . ... : ... .. . ... : ... .. . ... ...
ROW 33 : ... .. . ... ... ... : ... .. 6 P7E ... ... : ... .. . P81 : ... .. . ... : ... .. . ... ...
ROW 34 : ... .. 7 ... ... ... : ... .. . ... ... ... : ... .. . ... : ... .. . ... : ... .. . ... ...
ROW 35 : ... .. . ... ... ... : ... .. . ... ... ... : ... .. . ... : ... .. . ... : ... .. . ... ...
ROW 36 : ... .. . ... ... ... : ... .. . ... ... ... : ... .. . ... : ... .. . ... : ... .. . ... ...
ROW 37 : ... .. . ... ... ... : ... .. . P80 ... ... : ... .. . P7F : ... .. . ... : ... .. . ... ...
ROW 38 : ... .. 6 P7E ... ... : ... .. 7 P7F ... ... : ... .. . ... : ... .. . ... : ... .. . ... ...
ROW 39 : ... .. . ... ... ... : ... .. . ... ... ... : ... .. . ... : ... .. . ... : ... .. . ... ...
ROW 3A : ... .. . ... ... ... : ... .. 8 ... ... ... : ... .. . ... : ... .. . ... : ... .. . ... ...
ROW 3B : ... .. . ... ... ... : ... .. . ... ... ... : ... .. . P81 : ... .. . ... : ... .. . ... ...
ROW 3C : ... .. . P80 ... ... : ... .. 9 ... ... ... : ... .. . ... : ... .. . ... : ... .. . ... ...
ROW 3D : ... .. 7 P7F ... ... : ... .. . ... ... ... : ... .. . ... : ... .. . ... : ... .. . ... ...
ROW 3E : ... .. . ... ... ... : ... .. . ... ... ... : ... .. . ... : ... .. . ... : ... .. . ... ...
ROW 3F : ... .. 8 ... ... ... : ... .. 8 ... ... ... : ... .. . P7F : ... .. . ... : ... .. . ... ...
ROW 40 : ... .. . ... ... ... : ... .. . ... ... ... : ... .. . ... : ... .. . ... : ... .. . ... ...
ROW 41 : ... .. 9 ... ... ... : ... .. . ... ... ... : ... .. . ... : ... .. . ... : ... .. . ... ...
ROW 42 : ... .. . ... ... ... : ... .. . ... ... ... : ... .. . ... : ... .. . ... : ... .. . ... ...
ROW 43 : ... .. . ... ... ... : ... .. 7 ... ... ... : ... .. . P81 : ... .. . ... : ... .. . ... ...
ROW 44 : ... .. 8 ... ... ... : ... .. . ... ... ... : ... .. . ... : ... .. . ... : ... .. . ... ...
ROW 45 : ... .. . ... ... ... : ... .. . ... ... ... : ... .. . ... : ... .. . ... : ... .. . ... ...
ROW 46 : ... .. . ... ... ... : ... .. . ... ... ... : ... .. . ... : ... .. . ... : ... .. . ... ...
ROW 47 : ... .. . ... ... ... : ... .. 6 P7E ... ... : ... .. . P7F : ... .. . ... : ... .. . ... ...
ROW 48 : ... .. 7 ... ... ... : ... .. . ... ... ... : ... .. . ... : ... .. . ... : ... .. . ... ...
ROW 49 : ... .. . ... ... ... : ... .. . ... ... ... : ... .. . ... : ... .. . ... : ... .. . ... ...
ROW 4A : ... .. . ... ... ... : ... .. . ... ... ... : ... .. . ... : ... .. . ... : ... .. . ... ...
ROW 4B : ... .. . ... ... ... : ... .. . P80 ... ... : ... .. . P81 : ... .. . ... : ... .. . ... ...
ROW 4C : ... .. 6 P7E ... ... : A#3 00 7 ... ... ... : ... .. . ... : ... .. . ... : ... .. . ... ...
ROW 4D : ... .. . ... ... ... : ... .. . ... ... ... : ... .. . ... : ... .. . ... : ... .. . ... ...
ROW 4E : ... .. . ... ... ... : ... .. 8 ... ... ... : ... .. . ... : ... .. . ... : ... .. . ... ...
ROW 4F : ... .. . ... ... ... : ... .. . ... ... ... : ... .. . P7F : ... .. . ... : ... .. . ... ...
ROW 50 : ... .. . P80 ... ... : ... .. 9 ... ... ... : ... .. . ... : ... .. . ... : ... .. . ... ...
ROW 51 : A#3 00 7 ... ... ... : ... .. . ... ... ... : ... .. . ... : ... .. . ... : ... .. . ... ...
ROW 52 : ... .. . ... ... ... : ... .. . ... ... ... : ... .. . ... : ... .. . ... : ... .. . ... ...
ROW 53 : ... .. 8 ... ... ... : ... .. 8 ... ... ... : ... .. . P81 : ... .. . ... : ... .. . ... ...
ROW 54 : ... .. . ... ... ... : ... .. . ... ... ... : ... .. . ... : ... .. . ... : ... .. . ... ...
ROW 55 : ... .. 9 ... ... ... : ... .. . ... ... ... : ... .. . ... : ... .. . ... : ... .. . ... ...
ROW 56 : ... .. . ... ... ... : ... .. . ... ... ... : ... .. . ... : ... .. . ... : ... .. . ... ...
ROW 57 : ... .. . ... ... ... : ... .. 7 ... ... ... : ... .. . P7F : ... .. . ... : ... .. . ... ...
ROW 58 : ... .. 8 ... ... ... : ... .. . ... ... ... : ... .. . ... : ... .. . ... : ... .. . ... ...
ROW 59 : ... .. . ... ... ... : ... .. . ... ... ... : ... .. . ... : ... .. . ... : ... .. . ... ...
ROW 5A : ... .. . ... ... ... : ... .. . ... ... ... : ... .. . ... : ... .. . ... : ... .. . ... ...
ROW 5B : ... .. . ... ... ... : ... .. 6 P7F ... ... : ... .. . P81 : ... .. . ... : ... .. . ... ...
ROW 5C : ... .. 7 ... ... ... : ... .. . ... ... ... : ... .. . ... : ... .. . ... : ... .. . ... ...
ROW 5D : ... .. . ... ... ... : ... .. . ... ... ... : ... .. . ... : ... .. . ... : ... .. . ... ...
ROW 5E : ... .. . ... ... ... : ... .. . ... ... ... : ... .. . ... : ... .. . ... : ... .. . ... ...
ROW 5F : ... .. . ... ... ... : ... .. . P81 ... ... : ... .. . P7F : ... .. . ... : ... .. . ... ...
ROW 60 : ... .. 6 P7F ... ... : G#3 00 7 P7F ... ... : G#2 00 . P80 : ... .. . ... : ... .. . ... ...
ROW 61 : ... .. . ... ... ... : ... .. . ... ... ... : ... .. . ... : ... .. . ... : ... .. . ... ...
ROW 62 : ... .. . ... ... ... : ... .. 8 ... ... ... : ... .. . ... : ... .. . ... : ... .. . ... ...
ROW 63 : ... .. . ... ... ... : ... .. . ... ... ... : ... .. . ... : ... .. . ... : ... .. . ... ...
ROW 64 : ... .. . P81 ... ... : ... .. 9 ... ... ... : ... .. . ... : ... .. . ... : ... .. . ... ...
ROW 65 : G#3 00 7 P7F ... ... : ... .. . ... ... ... : ... .. . ... : ... .. . ... : ... .. . ... ...
ROW 66 : ... .. . ... ... ... : ... .. . ... ... ... : ... .. . ... : ... .. . ... : ... .. . ... ...
ROW 67 : ... .. 8 ... ... ... : ... .. 8 ... ... ... : ... .. . ... : ... .. . ... : ... .. . ... ...
ROW 68 : ... .. . ... ... ... : ... .. . ... ... ... : ... .. . ... : ... .. . ... : ... .. . ... ...
ROW 69 : ... .. 9 ... ... ... : ... .. . ... ... ... : ... .. . ... : ... .. . ... : ... .. . ... ...
ROW 6A : ... .. . ... ... ... : F#3 00 7 ... ... ... : ... .. . ... : ... .. . ... : ... .. . ... ...
ROW 6B : ... .. . ... ... ... : ... .. . ... ... ... : ... .. . ... : ... .. . ... : ... .. . ... ...
ROW 6C : ... .. 8 ... ... ... : ... .. 8 ... ... ... : ... .. . ... : ... .. . ... : ... .. . ... ...
ROW 6D : ... .. . ... ... ... : ... .. . ... ... ... : ... .. . ... : ... .. . ... : ... .. . ... ...
ROW 6E : ... .. . ... ... ... : ... .. 9 ... ... ... : ... .. . ... : ... .. . ... : ... .. . ... ...
ROW 6F : F#3 00 7 ... ... ... : ... .. . ... ... ... : ... .. . P7F : ... .. . ... : ... .. . ... ...
ROW 70 : ... .. . ... ... ... : ... .. . ... ... ... : ... .. . ... : ... .. . ... : ... .. . ... ...
ROW 71 : ... .. 8 ... ... ... : ... .. 8 ... ... ... : ... .. . ... : ... .. . ... : ... .. . ... ...
ROW 72 : ... .. . ... ... ... : ... .. . ... ... ... : ... .. . ... : ... .. . ... : ... .. . ... ...
ROW 73 : ... .. 9 ... ... ... : ... .. . ... ... ... : ... .. . P81 : ... .. . ... : ... .. . ... ...
ROW 74 : ... .. . ... ... ... : G#3 00 7 ... ... ... : ... .. . ... : ... .. . ... : ... .. . ... ...
ROW 75 : ... .. . ... ... ... : ... .. . ... ... ... : ... .. . ... : ... .. . ... : ... .. . ... ...
ROW 76 : ... .. 8 ... ... ... : ... .. 8 ... ... ... : ... .. . ... : ... .. . ... : ... .. . ... ...
ROW 77 : ... .. . ... ... ... : ... .. . ... ... ... : ... .. . P7F : ... .. . ... : ... .. . ... ...
ROW 78 : ... .. . ... ... ... : ... .. 9 ... ... ... : ... .. . ... : ... .. . ... : ... .. . ... ...
ROW 79 : G#3 00 7 ... ... ... : ... .. . ... ... ... : ... .. . ... : ... .. . ... : ... .. . ... ...
ROW 7A : ... .. . ... ... ... : ... .. . ... ... ... : ... .. . ... : ... .. . ... : ... .. . ... ...
ROW 7B : ... .. 8 ... ... ... : ... .. 8 ... ... ... : ... .. . P81 : ... .. . ... : ... .. . ... ...
ROW 7C : ... .. . ... ... ... : ... .. . ... ... ... : ... .. . ... : ... .. . ... : ... .. . ... ...
ROW 7D : ... .. 9 ... ... ... : ... .. . ... ... ... : ... .. . ... : ... .. . ... : ... .. . ... ...
ROW 7E : ... .. . ... ... ... : ... .. . ... ... ... : ... .. . ... : ... .. . ... : ... .. . ... ...
ROW 7F : ... .. . ... ... ... : ... .. 7 ... ... ... : ... .. . P7F : ... .. . ... : ... .. . ... ...
ROW 80 : ... .. 8 ... ... ... : ... .. . ... ... ... : ... .. . ... : ... .. . ... : ... .. . ... ...
ROW 81 : ... .. . ... ... ... : ... .. . ... ... ... : ... .. . ... : ... .. . ... : ... .. . ... ...
ROW 82 : ... .. . ... ... ... : ... .. . ... ... ... : ... .. . ... : ... .. . ... : ... .. . ... ...
ROW 83 : ... .. . ... ... ... : ... .. 6 P7E ... ... : ... .. . P81 : ... .. . ... : ... .. . ... ...
ROW 84 : ... .. 7 ... ... ... : ... .. . ... ... ... : ... .. . ... : ... .. . ... : ... .. . ... ...
ROW 85 : ... .. . ... ... ... : ... .. . ... ... ... : ... .. . ... : ... .. . ... : ... .. . ... ...
ROW 86 : ... .. . ... ... ... : ... .. . ... ... ... : ... .. . ... : ... .. . ... : ... .. . ... ...
ROW 87 : ... .. . ... ... ... : ... .. . P80 ... ... : ... .. . P7F : ... .. . ... : ... .. . ... ...
ROW 88 : ... .. 6 P7E ... ... : ... .. . ... ... ... : D#3 00 . P80 : ... .. . ... : ... .. . ... ...
ROW 89 : ... .. . ... ... ... : ... .. . ... ... ... : ... .. . ... : ... .. . ... : ... .. . ... ...
ROW 8A : ... .. . ... ... ... : ... .. . ... ... ... : ... .. . ... : ... .. . ... : ... .. . ... ...
ROW 8B : ... .. . ... ... ... : ... .. 5 P7E ... ... : ... .. . ... : ... .. . ... : ... .. . ... ...
ROW 8C : ... .. . P80 ... ... : ... .. . ... ... ... : ... .. . ... : ... .. . ... : ... .. . ... ...
ROW 8D : ... .. . ... ... ... : ... .. . ... ... ... : ... .. . ... : ... .. . ... : ... .. . ... ...
ROW 8E : ... .. . ... ... ... : ... .. . ... ... ... : ... .. . ... : ... .. . ... : ... .. . ... ...
ROW 8F : ... .. . ... ... ... : ... .. . P80 ... ... : ... .. . ... : ... .. . ... : ... .. . ... ...
ROW 90 : ... .. 5 P7E ... ... : ... .. 4 ... ... ... : ... .. . ... : ... .. . ... : ... .. . ... ...
ROW 91 : ... .. . ... ... ... : ... .. . ... ... ... : ... .. . ... : ... .. . ... : ... .. . ... ...
ROW 92 : ... .. . ... ... ... : ... .. . ... ... ... : ... .. . ... : ... .. . ... : ... .. . ... ...
ROW 93 : ... .. . ... ... ... : ... .. . P7E ... ... : ... .. . ... : ... .. . ... : ... .. . ... ...
ROW 94 : ... .. . P80 ... ... : ... .. . ... ... ... : ... .. . ... : ... .. . ... : ... .. . ... ...
ROW 95 : ... .. 4 ... ... ... : ... .. . ... ... ... : ... .. . ... : ... .. . ... : ... .. . ... ...
ROW 96 : ... .. . ... ... ... : ... .. . ... ... ... : ... .. . ... : ... .. . ... : ... .. . ... ...
ROW 97 : ... .. . ... ... ... : ... .. . P80 ... ... : ... .. . P7F : ... .. . ... : ... .. . ... ...
ROW 98 : ... .. . P7E ... ... : ... .. . ... ... ... : ... .. . ... : ... .. . ... : ... .. . ... ...
ROW 99 : ... .. . ... ... ... : ... .. . ... ... ... : ... .. . ... : ... .. . ... : ... .. . ... ...
ROW 9A : ... .. . ... ... ... : ... .. . ... ... ... : ... .. . ... : ... .. . ... : ... .. . ... ...
ROW 9B : ... .. . ... ... ... : ... .. . P7E ... ... : ... .. . P81 : ... .. . ... : ... .. . ... ...
ROW 9C : ... .. . P80 ... ... : ... .. . ... ... ... : ... .. . ... : ... .. . ... : ... .. . ... ...
ROW 9D : ... .. . ... ... ... : ... .. . ... ... ... : ... .. . ... : ... .. . ... : ... .. . ... ...
ROW 9E : ... .. . ... ... ... : ... .. . ... ... ... : ... .. . ... : ... .. . ... : ... .. . ... ...
ROW 9F : ... .. . ... ... ... : ... .. . P80 ... ... : ... .. . P7F : ... .. . ... : ... .. . ... ...
ROW A0 : ... .. . P7E ... ... : ... .. . ... ... ... : ... .. . ... : ... .. . ... : ... .. . ... ...
ROW A1 : ... .. . ... ... ... : ... .. . ... ... ... : ... .. . ... : ... .. . ... : ... .. . ... ...
ROW A2 : ... .. . ... ... ... : ... .. . ... ... ... : ... .. . ... : ... .. . ... : ... .. . ... ...
ROW A3 : ... .. . ... ... ... : ... .. . P7E ... ... : ... .. . P81 : ... .. . ... : ... .. . ... ...
ROW A4 : ... .. . P80 ... ... : ... .. . ... ... ... : ... .. . ... : ... .. . ... : ... .. . ... ...
ROW A5 : ... .. . ... ... ... : ... .. . ... ... ... : ... .. . ... : ... .. . ... : ... .. . ... ...
ROW A6 : ... .. . ... ... ... : ... .. . ... ... ... : ... .. . ... : ... .. . ... : ... .. . ... ...
ROW A7 : ... .. . ... ... ... : ... .. . P80 ... ... : ... .. . P7F : ... .. . ... : ... .. . ... ...
ROW A8 : ... .. . P7E ... ... : ... .. . ... ... ... : ... .. . ... : ... .. . ... : ... .. . ... ...
ROW A9 : ... .. . ... ... ... : ... .. . ... ... ... : ... .. . ... : ... .. . ... : ... .. . ... ...
ROW AA : ... .. . ... ... ... : ... .. . ... ... ... : ... .. . ... : ... .. . ... : ... .. . ... ...
ROW AB : ... .. . ... ... ... : ... .. . P7E ... ... : ... .. . P81 : ... .. . ... : ... .. . ... ...
ROW AC : ... .. . P80 ... ... : ... .. . ... ... ... : ... .. . ... : ... .. . ... : ... .. . ... ...
ROW AD : ... .. . ... ... ... : ... .. . ... ... ... : ... .. . ... : ... .. . ... : ... .. . ... ...
ROW AE : ... .. . ... ... ... : ... .. . ... ... ... : ... .. . ... : ... .. . ... : ... .. . ... ...
ROW AF : ... .. . ... ... ... : ... .. . P80 ... ... : ... .. . P7F : ... .. . ... : ... .. . ... ...
ROW B0 : ... .. . P7E ... ... : ... .. . ... ... ... : G#3 00 . ... : ... .. . ... : ... .. . ... ...
ROW B1 : ... .. . ... ... ... : ... .. . ... ... ... : ... .. . ... : ... .. . ... : ... .. . ... ...
ROW B2 : ... .. . ... ... ... : ... .. . ... ... ... : ... .. . ... : ... .. . ... : ... .. . ... ...
ROW B3 : ... .. . ... ... ... : ... .. . P7E ... ... : ... .. . ... : ... .. . ... : ... .. . ... ...
ROW B4 : ... .. . P80 ... ... : ... .. . ... ... ... : ... .. . ... : ... .. . ... : ... .. . ... ...
ROW B5 : ... .. . ... ... ... : ... .. . ... ... ... : ... .. . ... : ... .. . ... : ... .. . ... ...
ROW B6 : ... .. . ... ... ... : ... .. . ... ... ... : ... .. . ... : ... .. . ... : ... .. . ... ...
ROW B7 : ... .. . ... ... ... : ... .. . P80 ... ... : ... .. . ... : ... .. . ... : ... .. . ... ...
ROW B8 : ... .. . P7E ... ... : ... .. . ... ... ... : ... .. . ... : ... .. . ... : ... .. . ... ...
ROW B9 : ... .. . ... ... ... : ... .. . ... ... ... : ... .. . ... : ... .. . ... : ... .. . ... ...
ROW BA : ... .. . ... ... ... : ... .. . ... ... ... : ... .. . ... : ... .. . ... : ... .. . ... ...
ROW BB : ... .. . ... ... ... : ... .. . P7E ... ... : ... .. . ... : ... .. . ... : ... .. . ... ...
ROW BC : ... .. . P80 ... ... : ... .. . ... ... ... : ... .. . ... : ... .. . ... : ... .. . ... ...
ROW BD : ... .. . ... ... ... : ... .. . ... ... ... : ... .. . ... : ... .. . ... : ... .. . ... ...
ROW BE : ... .. . ... ... ... : ... .. . ... ... ... : ... .. . ... : ... .. . ... : ... .. . ... ...
ROW BF : ... .. . ... ... ... : ... .. . P80 ... ... : ... .. . P7E : ... .. . ... : ... .. . ... ...
ROW C0 : ... .. . P7E ... ... : ... .. . ... ... ... : ... .. . ... : ... .. . ... : ... .. . ... ...
ROW C1 : ... .. . ... ... ... : ... .. . ... ... ... : ... .. . ... : ... .. . ... : ... .. . ... ...
ROW C2 : ... .. . ... ... ... : ... .. . ... ... ... : ... .. . ... : ... .. . ... : ... .. . ... ...
ROW C3 : ... .. . ... ... ... : ... .. . P7E ... ... : ... .. . P80 : ... .. . ... : ... .. . ... ...
ROW C4 : ... .. . P80 ... ... : ... .. . P7F ... ... : ... .. . ... : ... .. . ... : ... .. . ... ...
ROW C5 : ... .. . ... ... ... : ... .. . ... ... ... : ... .. . ... : ... .. . ... : ... .. . ... ...
ROW C6 : ... .. . ... ... ... : ... .. . ... ... ... : ... .. . ... : ... .. . ... : ... .. . ... ...
ROW C7 : ... .. . ... ... ... : ... .. . ... ... ... : ... .. . P7E : ... .. . ... : ... .. . ... ...
ROW C8 : ... .. . P7E ... ... : ... .. . ... ... ... : ... .. . ... : ... .. . ... : ... .. . ... ...
ROW C9 : ... .. . P7F ... ... : ... .. . ... ... ... : ... .. . ... : ... .. . ... : ... .. . ... ...
ROW CA : ... .. . ... ... ... : ... .. . ... ... ... : ... .. . ... : ... .. . ... : ... .. . ... ...
ROW CB : ... .. . ... ... ... : ... .. . ... ... ... : ... .. . P80 : ... .. . ... : ... .. . ... ...
ROW CC : ... .. . ... ... ... : ... .. . ... ... ... : ... .. . ... : ... .. . ... : ... .. . ... ...
ROW CD : ... .. . ... ... ... : ... .. . ... ... ... : ... .. . ... : ... .. . ... : ... .. . ... ...
ROW CE : ... .. . ... ... ... : ... .. . ... ... ... : ... .. . ... : ... .. . ... : ... .. . ... ...
ROW CF : ... .. . ... ... ... : ... .. . ... ... ... : ... .. . P7E : ... .. . ... : ... .. . ... ...
ROW D0 : ... .. . ... ... ... : ... .. . ... ... ... : ... .. . ... : ... .. . ... : ... .. . ... ...
ROW D1 : ... .. . ... ... ... : ... .. . ... ... ... : ... .. . ... : ... .. . ... : ... .. . ... ...
ROW D2 : ... .. . ... ... ... : ... .. . ... ... ... : ... .. . ... : ... .. . ... : ... .. . ... ...
ROW D3 : ... .. . ... ... ... : ... .. . P7E ... ... : ... .. . P80 : ... .. . ... : ... .. . ... ...
ROW D4 : ... .. . ... ... ... : ... .. . ... ... ... : ... .. . ... : ... .. . ... : ... .. . ... ...
ROW D5 : ... .. . ... ... ... : ... .. . ... ... ... : ... .. . ... : ... .. . ... : ... .. . ... ...
ROW D6 : ... .. . ... ... ... : ... .. . ... ... ... : ... .. . ... : ... .. . ... : ... .. . ... ...
ROW D7 : ... .. . ... ... ... : ... .. . P80 ... ... : ... .. . P7E : ... .. . ... : ... .. . ... ...
ROW D8 : ... .. . P7E ... ... : ... .. . ... ... ... : ... .. . ... : ... .. . ... : ... .. . ... ...
ROW D9 : ... .. . ... ... ... : ... .. . ... ... ... : ... .. . ... : ... .. . ... : ... .. . ... ...
ROW DA : ... .. . ... ... ... : ... .. . ... ... ... : ... .. . ... : ... .. . ... : ... .. . ... ...
ROW DB : ... .. . ... ... ... : ... .. . P7E ... ... : ... .. . P80 : ... .. . ... : ... .. . ... ...
ROW DC : ... .. . P80 ... ... : ... .. . ... ... ... : ... .. . ... : ... .. . ... : ... .. . ... ...
ROW DD : ... .. . ... ... ... : ... .. . ... ... ... : ... .. . ... : ... .. . ... : ... .. . ... ...
ROW DE : ... .. . ... ... ... : ... .. . ... ... ... : ... .. . ... : ... .. . ... : ... .. . ... ...
ROW DF : ... .. . ... ... ... : ... .. . P80 ... ... : ... .. . P7E : ... .. . ... : ... .. . ... ...
ROW E0 : ... .. . P7E ... ... : ... .. . ... ... ... : ... .. . ... : ... .. . ... : ... .. . ... ...
ROW E1 : ... .. . ... ... ... : ... .. . ... ... ... : ... .. . ... : ... .. . ... : ... .. . ... ...
ROW E2 : ... .. . ... ... ... : ... .. . ... ... ... : ... .. . ... : ... .. . ... : ... .. . ... ...
ROW E3 : ... .. . ... ... ... : ... .. . P7E ... ... : ... .. . P80 : ... .. . ... : ... .. . ... ...
ROW E4 : ... .. . P80 ... ... : ... .. . ... ... ... : ... .. . ... : ... .. . ... : ... .. . ... ...
ROW E5 : ... .. . ... ... ... : ... .. . ... ... ... : ... .. . ... : ... .. . ... : ... .. . ... ...
ROW E6 : ... .. . ... ... ... : ... .. . ... ... ... : ... .. . ... : ... .. . ... : ... .. . ... ...
ROW E7 : ... .. . ... ... ... : ... .. . P80 ... ... : ... .. . P7E : ... .. . ... : ... .. . ... ...
ROW E8 : ... .. . P7E ... ... : ... .. . ... ... ... : ... .. . ... : ... .. . ... : ... .. . ... ...
ROW E9 : ... .. . ... ... ... : ... .. . ... ... ... : ... .. . ... : ... .. . ... : ... .. . ... ...
ROW EA : ... .. . ... ... ... : ... .. . ... ... ... : ... .. . ... : ... .. . ... : ... .. . ... ...
ROW EB : ... .. . ... ... ... : ... .. . P7E ... ... : ... .. . P80 : ... .. . ... : ... .. . ... ...
ROW EC : ... .. . P80 ... ... : ... .. . ... ... ... : ... .. . ... : ... .. . ... : ... .. . ... ...
ROW ED : ... .. . ... ... ... : ... .. . ... ... ... : ... .. . ... : ... .. . ... : ... .. . ... ...
ROW EE : ... .. . ... ... ... : ... .. . ... ... ... : ... .. . ... : ... .. . ... : ... .. . ... ...
ROW EF : ... .. . ... ... ... : ... .. . P80 ... ... : ... .. . P7E : ... .. . ... : ... .. . ... ...
ROW F0 : ... .. . P7E ... ... : ... .. . ... ... ... : ... .. . ... : ... .. . ... : ... .. . ... ...
ROW F1 : ... .. . ... ... ... : ... .. . ... ... ... : ... .. . ... : ... .. . ... : ... .. . ... ...
ROW F2 : ... .. . ... ... ... : ... .. . ... ... ... : ... .. . ... : ... .. . ... : ... .. . ... ...
ROW F3 : ... .. . ... ... ... : ... .. 0 P7E ... ... : ... .. . P80 : ... .. . ... : ... .. . ... ...
ROW F4 : ... .. . P80 ... ... : ... .. . ... ... ... : ... .. . ... : ... .. . ... : ... .. . ... ...
ROW F5 : ... .. . ... ... ... : ... .. . ... ... ... : ... .. . ... : ... .. . ... : ... .. . ... ...
ROW F6 : ... .. . ... ... ... : ... .. . ... ... ... : ... .. . ... : ... .. . ... : ... .. . ... ...
ROW F7 : ... .. . ... ... ... : ... .. . P80 ... ... : ... .. . P7E : ... .. . ... : ... .. . ... ...
ROW F8 : ... .. 0 P7E ... ... : ... .. . ... ... ... : ... .. . ... : ... .. . ... : ... .. . ... ...
ROW F9 : ... .. . ... ... ... : ... .. . ... ... ... : ... .. . ... : ... .. . ... : ... .. . ... ...
ROW FA : ... .. . ... ... ... : ... .. . ... ... ... : ... .. . ... : ... .. . ... : ... .. . ... ...
ROW FB : ... .. . ... ... ... : ... .. . P7E ... ... : ... .. . P80 : ... .. . ... : ... .. . ... ...
ROW FC : ... .. . P80 ... ... : ... .. . ... ... ... : ... .. . ... : ... .. . ... : ... .. . ... ...
ROW FD : ... .. . ... ... ... : ... .. . ... ... ... : ... .. . ... : ... .. . ... : ... .. . ... ...
ROW FE : ... .. . ... ... ... : ... .. . ... ... ... : ... .. . ... : ... .. . ... : ... .. . ... ...
ROW FF : ... .. . ... ... ... : ... .. . P80 ... ... : ... .. . P7E : ... .. . ... : ... .. . ... ...

PATTERN 14
ROW 00 : ... .. . P7E ... ... : A#3 00 7 ... ... ... : F#2 00 . P80 : ... .. . ... : ... .. . ... ...
ROW 01 : ... .. . ... ... ... : ... .. . ... ... ... : ... .. . ... : ... .. . ... : ... .. . ... ...
ROW 02 : ... .. . ... ... ... : ... .. 8 ... ... ... : ... .. . ... : ... .. . ... : ... .. . ... ...
ROW 03 : ... .. . ... ... ... : ... .. . ... ... ... : ... .. . ... : ... .. . ... : ... .. . ... ...
ROW 04 : ... .. . P80 ... ... : ... .. 9 ... ... ... : ... .. . ... : ... .. . ... : ... .. . ... ...
ROW 05 : A#3 00 7 ... ... ... : ... .. . ... ... ... : ... .. . ... : ... .. . ... : ... .. . ... ...
ROW 06 : ... .. . ... ... ... : ... .. . ... ... ... : ... .. . ... : ... .. . ... : ... .. . ... ...
ROW 07 : ... .. 8 ... ... ... : ... .. 8 ... ... ... : ... .. . ... : ... .. . ... : ... .. . ... ...
ROW 08 : ... .. . ... ... ... : ... .. . ... ... ... : ... .. . ... : ... .. . ... : ... .. . ... ...
ROW 09 : ... .. 9 ... ... ... : ... .. . ... ... ... : ... .. . ... : ... .. . ... : ... .. . ... ...
ROW 0A : ... .. . ... ... ... : ... .. . ... ... ... : ... .. . ... : ... .. . ... : ... .. . ... ...
ROW 0B : ... .. . ... ... ... : ... .. 7 ... ... ... : ... .. . ... : ... .. . ... : ... .. . ... ...
ROW 0C : ... .. 8 ... ... ... : ... .. . ... ... ... : ... .. . ... : ... .. . ... : ... .. . ... ...
ROW 0D : ... .. . ... ... ... : ... .. . ... ... ... : ... .. . ... : ... .. . ... : ... .. . ... ...
ROW 0E : ... .. . ... ... ... : ... .. . ... ... ... : ... .. . ... : ... .. . ... : ... .. . ... ...
ROW 0F : ... .. . ... ... ... : ... .. 6 P7F ... ... : ... .. . P7F : ... .. . ... : ... .. . ... ...
ROW 10 : ... .. 7 ... ... ... : ... .. . ... ... ... : ... .. . ... : ... .. . ... : ... .. . ... ...
ROW 11 : ... .. . ... ... ... : ... .. . ... ... ... : ... .. . ... : ... .. . ... : ... .. . ... ...
ROW 12 : ... .. . ... ... ... : ... .. . ... ... ... : ... .. . ... : ... .. . ... : ... .. . ... ...
ROW 13 : ... .. . ... ... ... : ... .. . P81 ... ... : ... .. . P81 : ... .. . ... : ... .. . ... ...
ROW 14 : ... .. 6 P7F ... ... : ... .. . ... ... ... : ... .. . ... : ... .. . ... : ... .. . ... ...
ROW 15 : ... .. . ... ... ... : ... .. . ... ... ... : ... .. . ... : ... .. . ... : ... .. . ... ...
ROW 16 : ... .. . ... ... ... : ... .. . ... ... ... : ... .. . ... : ... .. . ... : ... .. . ... ...
ROW 17 : ... .. . ... ... ... : ... .. 5 P7F ... ... : ... .. . P7F : ... .. . ... : ... .. . ... ...
ROW 18 : ... .. . P81 ... ... : ... .. . ... ... ... : ... .. . ... : ... .. . ... : ... .. . ... ...
ROW 19 : ... .. . ... ... ... : ... .. . ... ... ... : ... .. . ... : ... .. . ... : ... .. . ... ...
ROW 1A : ... .. . ... ... ... : ... .. . ... ... ... : ... .. . ... : ... .. . ... : ... .. . ... ...
ROW 1B : ... .. . ... ... ... : ... .. . P81 ... ... : ... .. . P81 : ... .. . ... : ... .. . ... ...
ROW 1C : ... .. 5 P7F ... ... : ... .. 4 ... ... ... : ... .. . ... : ... .. . ... : ... .. . ... ...
ROW 1D : ... .. . ... ... ... : ... .. . ... ... ... : ... .. . ... : ... .. . ... : ... .. . ... ...
ROW 1E : ... .. . ... ... ... : ... .. . ... ... ... : ... .. . ... : ... .. . ... : ... .. . ... ...
ROW 1F : ... .. . ... ... ... : ... .. . P7F ... ... : ... .. . P7F : ... .. . ... : ... .. . ... ...
ROW 20 : ... .. . P81 ... ... : ... .. . ... ... ... : ... .. . ... : ... .. . ... : ... .. . ... ...
ROW 21 : ... .. 4 ... ... ... : ... .. . ... ... ... : ... .. . ... : ... .. . ... : ... .. . ... ...
ROW 22 : ... .. . ... ... ... : ... .. . ... ... ... : ... .. . ... : ... .. . ... : ... .. . ... ...
ROW 23 : ... .. . ... ... ... : ... .. . P81 ... ... : ... .. . P81 : ... .. . ... : ... .. . ... ...
ROW 24 : ... .. . P7F ... ... : ... .. . ... ... ... : ... .. . ... : ... .. . ... : ... .. . ... ...
ROW 25 : ... .. . ... ... ... : ... .. . ... ... ... : ... .. . ... : ... .. . ... : ... .. . ... ...
ROW 26 : ... .. . ... ... ... : ... .. . ... ... ... : ... .. . ... : ... .. . ... : ... .. . ... ...
ROW 27 : ... .. . ... ... ... : ... .. . P7F ... ... : ... .. . P7F : ... .. . ... : ... .. . ... ...
ROW 28 : ... .. . P81 ... ... : ... .. . ... ... ... : C#3 00 . P80 : ... .. . ... : ... .. . ... ...
ROW 29 : ... .. . ... ... ... : ... .. . ... ... ... : ... .. . ... : ... .. . ... : ... .. . ... ...
ROW 2A : ... .. . ... ... ... : ... .. . ... ... ... : ... .. . ... : ... .. . ... : ... .. . ... ...
ROW 2B : ... .. . ... ... ... : ... .. . P81 ... ... : ... .. . ... : ... .. . ... : ... .. . ... ...
ROW 2C : ... .. . P7F ... ... : ... .. . ... ... ... : ... .. . ... : ... .. . ... : ... .. . ... ...
ROW 2D : ... .. . ... ... ... : ... .. . ... ... ... : ... .. . ... : ... .. . ... : ... .. . ... ...
ROW 2E : ... .. . ... ... ... : ... .. . ... ... ... : ... .. . ... : ... .. . ... : ... .. . ... ...
ROW 2F : ... .. . ... ... ... : ... .. . P7F ... ... : ... .. . ... : ... .. . ... : ... .. . ... ...
ROW 30 : ... .. . P81 ... ... : ... .. . ... ... ... : ... .. . ... : ... .. . ... : ... .. . ... ...
ROW 31 : ... .. . ... ... ... : ... .. . ... ... ... : ... .. . ... : ... .. . ... : ... .. . ... ...
ROW 32 : ... .. . ... ... ... : ... .. . ... ... ... : ... .. . ... : ... .. . ... : ... .. . ... ...
ROW 33 : ... .. . ... ... ... : ... .. . P81 ... ... : ... .. . ... : ... .. . ... : ... .. . ... ...
ROW 34 : ... .. . P7F ... ... : ... .. . ... ... ... : ... .. . ... : ... .. . ... : ... .. . ... ...
ROW 35 : ... .. . ... ... ... : ... .. . ... ... ... : ... .. . ... : ... .. . ... : ... .. . ... ...
ROW 36 : ... .. . ... ... ... : ... .. . ... ... ... : ... .. . ... : ... .. . ... : ... .. . ... ...
ROW 37 : ... .. . ... ... ... : ... .. . P7F ... ... : ... .. . P7F : ... .. . ... : ... .. . ... ...
ROW 38 : ... .. . P81 ... ... : ... .. . ... ... ... : ... .. . ... : ... .. . ... : ... .. . ... ...
ROW 39 : ... .. . ... ... ... : ... .. . ... ... ... : ... .. . ... : ... .. . ... : ... .. . ... ...
ROW 3A : ... .. . ... ... ... : ... .. . ... ... ... : ... .. . ... : ... .. . ... : ... .. . ... ...
ROW 3B : ... .. . ... ... ... : ... .. . P81 ... ... : ... .. . P81 : ... .. . ... : ... .. . ... ...
ROW 3C : ... .. . P7F ... ... : ... .. . ... ... ... : ... .. . ... : ... .. . ... : ... .. . ... ...
ROW 3D : ... .. . ... ... ... : ... .. . ... ... ... : ... .. . ... : ... .. . ... : ... .. . ... ...
ROW 3E : ... .. . ... ... ... : ... .. . ... ... ... : ... .. . ... : ... .. . ... : ... .. . ... ...
ROW 3F : ... .. . ... ... ... : ... .. . P7F ... ... : ... .. . P7F : ... .. . ... : ... .. . ... ...
ROW 40 : ... .. . P81 ... ... : ... .. . ... ... ... : ... .. . ... : ... .. . ... : ... .. . ... ...
ROW 41 : ... .. . ... ... ... : ... .. . ... ... ... : ... .. . ... : ... .. . ... : ... .. . ... ...
ROW 42 : ... .. . ... ... ... : ... .. . ... ... ... : ... .. . ... : ... .. . ... : ... .. . ... ...
ROW 43 : ... .. . ... ... ... : ... .. . P81 ... ... : ... .. . P81 : ... .. . ... : ... .. . ... ...
ROW 44 : ... .. . P7F ... ... : ... .. . ... ... ... : ... .. . ... : ... .. . ... : ... .. . ... ...
ROW 45 : ... .. . ... ... ... : ... .. . ... ... ... : ... .. . ... : ... .. . ... : ... .. . ... ...
ROW 46 : ... .. . ... ... ... : ... .. . ... ... ... : ... .. . ... : ... .. . ... : ... .. . ... ...
ROW 47 : ... .. . ... ... ... : ... .. . P7F ... ... : ... .. . P7F : ... .. . ... : ... .. . ... ...
ROW 48 : ... .. . P81 ... ... : ... .. . ... ... ... : ... .. . ... : ... .. . ... : ... .. . ... ...
ROW 49 : ... .. . ... ... ... : ... .. . ... ... ... : ... .. . ... : ... .. . ... : ... .. . ... ...
ROW 4A : ... .. . ... ... ... : ... .. . ... ... ... : ... .. . ... : ... .. . ... : ... .. . ... ...
ROW 4B : ... .. . ... ... ... : ... .. . P81 ... ... : ... .. . P81 : ... .. . ... : ... .. . ... ...
ROW 4C : ... .. . P7F ... ... : ... .. . ... ... ... : ... .. . ... : ... .. . ... : ... .. . ... ...
ROW 4D : ... .. . ... ... ... : ... .. . ... ... ... : ... .. . ... : ... .. . ... : ... .. . ... ...
ROW 4E : ... .. . ... ... ... : ... .. . ... ... ... : ... .. . ... : ... .. . ... : ... .. . ... ...
ROW 4F : ... .. . ... ... ... : ... .. . P7F ... ... : ... .. . P7F : ... .. . ... : ... .. . ... ...
ROW 50 : ... .. . P81 ... ... : ... .. . P80 ... ... : F#3 00 . ... : ... .. . ... : ... .. . ... ...
ROW 51 : ... .. . ... ... ... : ... .. . ... ... ... : ... .. . ... : ... .. . ... : ... .. . ... ...
ROW 52 : ... .. . ... ... ... : ... .. . ... ... ... : ... .. . ... : ... .. . ... : ... .. . ... ...
ROW 53 : ... .. . ... ... ... : ... .. . ... ... ... : ... .. . ... : ... .. . ... : ... .. . ... ...
ROW 54 : ... .. . P7F ... ... : ... .. . ... ... ... : ... .. . ... : ... .. . ... : ... .. . ... ...
ROW 55 : ... .. . P80 ... ... : ... .. . ... ... ... : ... .. . ... : ... .. . ... : ... .. . ... ...
ROW 56 : ... .. . ... ... ... : ... .. . ... ... ... : ... .. . ... : ... .. . ... : ... .. . ... ...
ROW 57 : ... .. . ... ... ... : ... .. . ... ... ... : ... .. . ... : ... .. . ... : ... .. . ... ...
ROW 58 : ... .. . ... ... ... : ... .. . ... ... ... : ... .. . ... : ... .. . ... : ... .. . ... ...
ROW 59 : ... .. . ... ... ... : ... .. . ... ... ... : ... .. . ... : ... .. . ... : ... .. . ... ...
ROW 5A : ... .. . ... ... ... : ... .. . ... ... ... : ... .. . ... : ... .. . ... : ... .. . ... ...
ROW 5B : ... .. . ... ... ... : ... .. . ... ... ... : ... .. . ... : ... .. . ... : ... .. . ... ...
ROW 5C : ... .. . ... ... ... : ... .. . ... ... ... : ... .. . ... : ... .. . ... : ... .. . ... ...
ROW 5D : ... .. . ... ... ... : ... .. . ... ... ... : ... .. . ... : ... .. . ... : ... .. . ... ...
ROW 5E : ... .. . ... ... ... : ... .. . ... ... ... : ... .. . ... : ... .. . ... : ... .. . ... ...
ROW 5F : ... .. . ... ... ... : ... .. . P7F ... ... : ... .. . P7E : ... .. . ... : ... .. . ... ...
ROW 60 : ... .. . ... ... ... : ... .. . ... ... ... : ... .. . ... : ... .. . ... : ... .. . ... ...
ROW 61 : ... .. . ... ... ... : ... .. . ... ... ... : ... .. . ... : ... .. . ... : ... .. . ... ...
ROW 62 : ... .. . ... ... ... : ... .. . ... ... ... : ... .. . ... : ... .. . ... : ... .. . ... ...
ROW 63 : ... .. . ... ... ... : ... .. . P81 ... ... : ... .. . P80 : ... .. . ... : ... .. . ... ...
ROW 64 : ... .. . P7F ... ... : F#3 00 7 P7F ... ... : ... .. . ... : ... .. . ... : ... .. . ... ...
ROW 65 : ... .. . ... ... ... : ... .. . ... ... ... : ... .. . ... : ... .. . ... : ... .. . ... ...
ROW 66 : ... .. . ... ... ... : ... .. 8 ... ... ... : ... .. . ... : ... .. . ... : ... .. . ... ...
ROW 67 : ... .. . ... ... ... : ... .. . ... ... ... : ... .. . P7E : ... .. . ... : ... .. . ... ...
ROW 68 : ... .. . P81 ... ... : ... .. 9 ... ... ... : ... .. . ... : ... .. . ... : ... .. . ... ...
ROW 69 : F#3 00 7 P7F ... ... : ... .. . ... ... ... : ... .. . ... : ... .. . ... : ... .. . ... ...
ROW 6A : ... .. . ... ... ... : ... .. . ... ... ... : ... .. . ... : ... .. . ... : ... .. . ... ...
ROW 6B : ... .. 8 ... ... ... : ... .. 8 ... ... ... : ... .. . P80 : ... .. . ... : ... .. . ... ...
ROW 6C : ... .. . ... ... ... : ... .. . ... ... ... : ... .. . ... : ... .. . ... : ... .. . ... ...
ROW 6D : ... .. 9 ... ... ... : ... .. . ... ... ... : ... .. . ... : ... .. . ... : ... .. . ... ...
ROW 6E : ... .. . ... ... ... : ... .. . ... ... ... : ... .. . ... : ... .. . ... : ... .. . ... ...
ROW 6F : ... .. . ... ... ... : ... .. 7 ... ... ... : ... .. . P7E : ... .. . ... : ... .. . ... ...
ROW 70 : ... .. 8 ... ... ... : ... .. . ... ... ... : ... .. . ... : ... .. . ... : ... .. . ... ...
ROW 71 : ... .. . ... ... ... : ... .. . ... ... ... : ... .. . ... : ... .. . ... : ... .. . ... ...
ROW 72 : ... .. . ... ... ... : ... .. . ... ... ... : ... .. . ... : ... .. . ... : ... .. . ... ...
ROW 73 : ... .. . ... ... ... : ... .. 6 P7E ... ... : ... .. . P80 : ... .. . ... : ... .. . ... ...
ROW 74 : ... .. 7 ... ... ... : ... .. . ... ... ... : ... .. . ... : ... .. . ... : ... .. . ... ...
ROW 75 : ... .. . ... ... ... : ... .. . ... ... ... : ... .. . ... : ... .. . ... : ... .. . ... ...
ROW 76 : ... .. . ... ... ... : ... .. . ... ... ... : ... .. . ... : ... .. . ... : ... .. . ... ...
ROW 77 : ... .. . ... ... ... : ... .. . P80 ... ... : ... .. . P7E : ... .. . ... : ... .. . ... ...
ROW 78 : ... .. 6 P7E ... ... : ... .. 7 P7F ... ... : ... .. . ... : ... .. . ... : ... .. . ... ...
ROW 79 : ... .. . ... ... ... : ... .. . ... ... ... : ... .. . ... : ... .. . ... : ... .. . ... ...
ROW 7A : ... .. . ... ... ... : ... .. 8 ... ... ... : ... .. . ... : ... .. . ... : ... .. . ... ...
ROW 7B : ... .. . ... ... ... : ... .. . ... ... ... : ... .. . P80 : ... .. . ... : ... .. . ... ...
ROW 7C : ... .. . P80 ... ... : ... .. 9 ... ... ... : ... .. . ... : ... .. . ... : ... .. . ... ...
ROW 7D : ... .. 7 P7F ... ... : ... .. . ... ... ... : ... .. . ... : ... .. . ... : ... .. . ... ...
ROW 7E : ... .. . ... ... ... : ... .. . ... ... ... : ... .. . ... : ... .. . ... : ... .. . ... ...
ROW 7F : ... .. 8 ... ... ... : ... .. 8 ... ... ... : ... .. . P7E : ... .. . ... : ... .. . ... ...
ROW 80 : ... .. . ... ... ... : ... .. . ... ... ... : ... .. . ... : ... .. . ... : ... .. . ... ...
ROW 81 : ... .. 9 ... ... ... : ... .. . ... ... ... : ... .. . ... : ... .. . ... : ... .. . ... ...
ROW 82 : ... .. . ... ... ... : ... .. . ... ... ... : ... .. . ... : ... .. . ... : ... .. . ... ...
ROW 83 : ... .. . ... ... ... : ... .. 7 ... ... ... : ... .. . P80 : ... .. . ... : ... .. . ... ...
ROW 84 : ... .. 8 ... ... ... : ... .. . ... ... ... : ... .. . ... : ... .. . ... : ... .. . ... ...
ROW 85 : ... .. . ... ... ... : ... .. . ... ... ... : ... .. . ... : ... .. . ... : ... .. . ... ...
ROW 86 : ... .. . ... ... ... : ... .. . ... ... ... : ... .. . ... : ... .. . ... : ... .. . ... ...
ROW 87 : ... .. . ... ... ... : ... .. 6 P7E ... ... : ... .. . P7E : ... .. . ... : ... .. . ... ...
ROW 88 : ... .. 7 ... ... ... : ... .. . ... ... ... : ... .. . ... : ... .. . ... : ... .. . ... ...
ROW 89 : ... .. . ... ... ... : ... .. . ... ... ... : ... .. . ... : ... .. . ... : ... .. . ... ...
ROW 8A : ... .. . ... ... ... : ... .. . ... ... ... : ... .. . ... : ... .. . ... : ... .. . ... ...
ROW 8B : ... .. . ... ... ... : ... .. . P80 ... ... : ... .. . P80 : ... .. . ... : ... .. . ... ...
ROW 8C : ... .. 6 P7E ... ... : A#3 00 7 ... ... ... : ... .. . ... : ... .. . ... : ... .. . ... ...
ROW 8D : ... .. . ... ... ... : ... .. . ... ... ... : ... .. . ... : ... .. . ... : ... .. . ... ...
ROW 8E : ... .. . ... ... ... : ... .. 8 ... ... ... : ... .. . ... : ... .. . ... : ... .. . ... ...
ROW 8F : ... .. . ... ... ... : ... .. . ... ... ... : ... .. . P7E : ... .. . ... : ... .. . ... ...
ROW 90 : ... .. . P80 ... ... : ... .. 9 ... ... ... : ... .. . ... : ... .. . ... : ... .. . ... ...
ROW 91 : A#3 00 7 ... ... ... : ... .. . ... ... ... : ... .. . ... : ... .. . ... : ... .. . ... ...
ROW 92 : ... .. . ... ... ... : ... .. . ... ... ... : ... .. . ... : ... .. . ... : ... .. . ... ...
ROW 93 : ... .. 8 ... ... ... : ... .. 8 ... ... ... : ... .. . P80 : ... .. . ... : ... .. . ... ...
ROW 94 : ... .. . ... ... ... : ... .. . ... ... ... : ... .. . ... : ... .. . ... : ... .. . ... ...
ROW 95 : ... .. 9 ... ... ... : ... .. . ... ... ... : ... .. . ... : ... .. . ... : ... .. . ... ...
ROW 96 : ... .. . ... ... ... : ... .. . ... ... ... : ... .. . ... : ... .. . ... : ... .. . ... ...
ROW 97 : ... .. . ... ... ... : ... .. 7 ... ... ... : ... .. . P7E : ... .. . ... : ... .. . ... ...
ROW 98 : ... .. 8 ... ... ... : ... .. . ... ... ... : ... .. . ... : ... .. . ... : ... .. . ... ...
ROW 99 : ... .. . ... ... ... : ... .. . ... ... ... : ... .. . ... : ... .. . ... : ... .. . ... ...
ROW 9A : ... .. . ... ... ... : ... .. . ... ... ... : ... .. . ... : ... .. . ... : ... .. . ... ...
ROW 9B : ... .. . ... ... ... : ... .. 6 P7F ... ... : ... .. . P80 : ... .. . ... : ... .. . ... ...
ROW 9C : ... .. 7 ... ... ... : ... .. . ... ... ... : ... .. . ... : ... .. . ... : ... .. . ... ...
ROW 9D : ... .. . ... ... ... : ... .. . ... ... ... : ... .. . ... : ... .. . ... : ... .. . ... ...
ROW 9E : ... .. . ... ... ... : ... .. . ... ... ... : ... .. . ... : ... .. . ... : ... .. . ... ...
ROW 9F : ... .. . ... ... ... : ... .. . P81 ... ... : ... .. . P7E : ... .. . ... : ... .. . ... ...
ROW A0 : ... .. 6 P7F ... ... : A-3 00 7 P7F ... ... : F-2 00 . P80 : ... .. . ... : ... .. . ... ...
ROW A1 : ... .. . ... ... ... : ... .. . ... ... ... : ... .. . ... : ... .. . ... : ... .. . ... ...
ROW A2 : ... .. . ... ... ... : ... .. 8 ... ... ... : ... .. . ... : ... .. . ... : ... .. . ... ...
ROW A3 : ... .. . ... ... ... : ... .. . ... ... ... : ... .. . ... : ... .. . ... : ... .. . ... ...
ROW A4 : ... .. . P81 ... ... : ... .. 9 ... ... ... : ... .. . ... : ... .. . ... : ... .. . ... ...
ROW A5 : A-3 00 7 P7F ... ... : ... .. . ... ... ... : ... .. . ... : ... .. . ... : ... .. . ... ...
ROW A6 : ... .. . ... ... ... : ... .. . ... ... ... : ... .. . ... : ... .. . ... : ... .. . ... ...
ROW A7 : ... .. 8 ... ... ... : ... .. 8 ... ... ... : ... .. . ... : ... .. . ... : ... .. . ... ...
ROW A8 : ... .. . ... ... ... : ... .. . ... ... ... : ... .. . ... : ... .. . ... : ... .. . ... ...
ROW A9 : ... .. 9 ... ... ... : ... .. . ... ... ... : ... .. . ... : ... .. . ... : ... .. . ... ...
ROW AA : ... .. . ... ... ... : G-3 00 7 ... ... ... : ... .. . ... : ... .. . ... : ... .. . ... ...
ROW AB : ... .. . ... ... ... : ... .. . ... ... ... : ... .. . ... : ... .. . ... : ... .. . ... ...
ROW AC : ... .. 8 ... ... ... : ... .. 8 ... ... ... : ... .. . ... : ... .. . ... : ... .. . ... ...
ROW AD : ... .. . ... ... ... : ... .. . ... ... ... : ... .. . ... : ... .. . ... : ... .. . ... ...
ROW AE : ... .. . ... ... ... : ... .. 9 ... ... ... : ... .. . ... : ... .. . ... : ... .. . ... ...
ROW AF : G-3 00 7 ... ... ... : ... .. . ... ... ... : ... .. . P7F : ... .. . ... : ... .. . ... ...
ROW B0 : ... .. . ... ... ... : ... .. . ... ... ... : ... .. . ... : ... .. . ... : ... .. . ... ...
ROW B1 : ... .. 8 ... ... ... : ... .. 8 ... ... ... : ... .. . ... : ... .. . ... : ... .. . ... ...
ROW B2 : ... .. . ... ... ... : ... .. . ... ... ... : ... .. . ... : ... .. . ... : ... .. . ... ...
ROW B3 : ... .. 9 ... ... ... : ... .. . ... ... ... : ... .. . P81 : ... .. . ... : ... .. . ... ...
ROW B4 : ... .. . ... ... ... : A-3 00 7 ... ... ... : ... .. . ... : ... .. . ... : ... .. . ... ...
ROW B5 : ... .. . ... ... ... : ... .. . ... ... ... : ... .. . ... : ... .. . ... : ... .. . ... ...
ROW B6 : ... .. 8 ... ... ... : ... .. 8 ... ... ... : ... .. . ... : ... .. . ... : ... .. . ... ...
ROW B7 : ... .. . ... ... ... : ... .. . ... ... ... : ... .. . P7F : ... .. . ... : ... .. . ... ...
ROW B8 : ... .. . ... ... ... : ... .. 9 ... ... ... : ... .. . ... : ... .. . ... : ... .. . ... ...
ROW B9 : A-3 00 7 ... ... ... : ... .. . ... ... ... : ... .. . ... : ... .. . ... : ... .. . ... ...
ROW BA : ... .. . ... ... ... : ... .. . ... ... ... : ... .. . ... : ... .. . ... : ... .. . ... ...
ROW BB : ... .. 8 ... ... ... : ... .. 8 ... ... ... : ... .. . P81 : ... .. . ... : ... .. . ... ...
ROW BC : ... .. . ... ... ... : ... .. . ... ... ... : ... .. . ... : ... .. . ... : ... .. . ... ...
ROW BD : ... .. 9 ... ... ... : ... .. . ... ... ... : ... .. . ... : ... .. . ... : ... .. . ... ...
ROW BE : ... .. . ... ... ... : ... .. . ... ... ... : ... .. . ... : ... .. . ... : ... .. . ... ...
ROW BF : ... .. . ... ... ... : ... .. 7 ... ... ... : ... .. . P7F : ... .. . ... : ... .. . ... ...
ROW C0 : ... .. 8 ... ... ... : ... .. . ... ... ... : ... .. . ... : ... .. . ... : ... .. . ... ...
ROW C1 : ... .. . ... ... ... : ... .. . ... ... ... : ... .. . ... : ... .. . ... : ... .. . ... ...
ROW C2 : ... .. . ... ... ... : ... .. . ... ... ... : ... .. . ... : ... .. . ... : ... .. . ... ...
ROW C3 : ... .. . ... ... ... : ... .. 6 P7E ... ... : ... .. . P81 : ... .. . ... : ... .. . ... ...
ROW C4 : ... .. 7 ... ... ... : ... .. . ... ... ... : ... .. . ... : ... .. . ... : ... .. . ... ...
ROW C5 : ... .. . ... ... ... : ... .. . ... ... ... : ... .. . ... : ... .. . ... : ... .. . ... ...
ROW C6 : ... .. . ... ... ... : ... .. . ... ... ... : ... .. . ... : ... .. . ... : ... .. . ... ...
ROW C7 : ... .. . ... ... ... : ... .. . P80 ... ... : ... .. . P7F : ... .. . ... : ... .. . ... ...
ROW C8 : ... .. 6 P7E ... ... : ... .. . ... ... ... : C-3 00 . P80 : ... .. . ... : ... .. . ... ...
ROW C9 : ... .. . ... ... ... : ... .. . ... ... ... : ... .. . ... : ... .. . ... : ... .. . ... ...
ROW CA : ... .. . ... ... ... : ... .. . ... ... ... : ... .. . ... : ... .. . ... : ... .. . ... ...
ROW CB : ... .. . ... ... ... : ... .. 5 P7E ... ... : ... .. . ... : ... .. . ... : ... .. . ... ...
ROW CC : ... .. . P80 ... ... : ... .. . ... ... ... : ... .. . ... : ... .. . ... : ... .. . ... ...
ROW CD : ... .. . ... ... ... : ... .. . ... ... ... : ... .. . ... : ... .. . ... : ... .. . ... ...
ROW CE : ... .. . ... ... ... : ... .. . ... ... ... : ... .. . ... : ... .. . ... : ... .. . ... ...
ROW CF : ... .. . ... ... ... : ... .. . P80 ... ... : ... .. . ... : ... .. . ... : ... .. . ... ...
ROW D0 : ... .. 5 P7E ... ... : ... .. 4 ... ... ... : ... .. . ... : ... .. . ... : ... .. . ... ...
ROW D1 : ... .. . ... ... ... : ... .. . ... ... ... : ... .. . ... : ... .. . ... : ... .. . ... ...
ROW D2 : ... .. . ... ... ... : ... .. . ... ... ... : ... .. . ... : ... .. . ... : ... .. . ... ...
ROW D3 : ... .. . ... ... ... : ... .. . P7E ... ... : ... .. . ... : ... .. . ... : ... .. . ... ...
ROW D4 : ... .. . P80 ... ... : ... .. . ... ... ... : ... .. . ... : ... .. . ... : ... .. . ... ...
ROW D5 : ... .. 4 ... ... ... : ... .. . ... ... ... : ... .. . ... : ... .. . ... : ... .. . ... ...
ROW D6 : ... .. . ... ... ... : ... .. . ... ... ... : ... .. . ... : ... .. . ... : ... .. . ... ...
ROW D7 : ... .. . ... ... ... : ... .. . P80 ... ... : ... .. . P7F : ... .. . ... : ... .. . ... ...
ROW D8 : ... .. . P7E ... ... : ... .. . ... ... ... : ... .. . ... : ... .. . ... : ... .. . ... ...
ROW D9 : ... .. . ... ... ... : ... .. . ... ... ... : ... .. . ... : ... .. . ... : ... .. . ... ...
ROW DA : ... .. . ... ... ... : ... .. . ... ... ... : ... .. . ... : ... .. . ... : ... .. . ... ...
ROW DB : ... .. . ... ... ... : ... .. . P7E ... ... : ... .. . P81 : ... .. . ... : ... .. . ... ...
ROW DC : ... .. . P80 ... ... : ... .. . ... ... ... : ... .. . ... : ... .. . ... : ... .. . ... ...
ROW DD : ... .. . ... ... ... : ... .. . ... ... ... : ... .. . ... : ... .. . ... : ... .. . ... ...
ROW DE : ... .. . ... ... ... : ... .. . ... ... ... : ... .. . ... : ... .. . ... : ... .. . ... ...
ROW DF : ... .. . ... ... ... : ... .. . P80 ... ... : ... .. . P7F : ... .. . ... : ... .. . ... ...
ROW E0 : ... .. . P7E ... ... : ... .. . ... ... ... : ... .. . ... : ... .. . ... : ... .. . ... ...
ROW E1 : ... .. . ... ... ... : ... .. . ... ... ... : ... .. . ... : ... .. . ... : ... .. . ... ...
ROW E2 : ... .. . ... ... ... : ... .. . ... ... ... : ... .. . ... : ... .. . ... : ... .. . ... ...
ROW E3 : ... .. . ... ... ... : ... .. . P7E ... ... : ... .. . P81 : ... .. . ... : ... .. . ... ...
ROW E4 : ... .. . P80 ... ... : ... .. . ... ... ... : ... .. . ... : ... .. . ... : ... .. . ... ...
ROW E5 : ... .. . ... ... ... : ... .. . ... ... ... : ... .. . ... : ... .. . ... : ... .. . ... ...
ROW E6 : ... .. . ... ... ... : ... .. . ... ... ... : ... .. . ... : ... .. . ... : ... .. . ... ...
ROW E7 : ... .. . ... ... ... : ... .. . P80 ... ... : ... .. . P7F : ... .. . ... : ... .. . ... ...
ROW E8 : ... .. . P7E ... ... : ... .. . ... ... ... : ... .. . ... : ... .. . ... : ... .. . ... ...
ROW E9 : ... .. . ... ... ... : ... .. . ... ... ... : ... .. . ... : ... .. . ... : ... .. . ... ...
ROW EA : ... .. . ... ... ... : ... .. . ... ... ... : ... .. . ... : ... .. . ... : ... .. . ... ...
ROW EB : ... .. . ... ... ... : ... .. . P7E ... ... : ... .. . P81 : ... .. . ... : ... .. . ... ...
ROW EC : ... .. . P80 ... ... : ... .. . ... ... ... : ... .. . ... : ... .. . ... : ... .. . ... ...
ROW ED : ... .. . ... ... ... : ... .. . ... ... ... : ... .. . ... : ... .. . ... : ... .. . ... ...
ROW EE : ... .. . ... ... ... : ... .. . ... ... ... : ... .. . ... : ... .. . ... : ... .. . ... ...
ROW EF : ... .. . ... ... ... : ... .. . P80 ... ... : ... .. . P7F : ... .. . ... : ... .. . ... ...
ROW F0 : ... .. . P7E ... ... : ... .. . ... ... ... : F-3 00 . ... : ... .. . ... : ... .. . ... ...
ROW F1 : ... .. . ... ... ... : ... .. . ... ... ... : ... .. . ... : ... .. . ... : ... .. . ... ...
ROW F2 : ... .. . ... ... ... : ... .. . ... ... ... : ... .. . ... : ... .. . ... : ... .. . ... ...
ROW F3 : ... .. . ... ... ... : ... .. . P7E ... ... : ... .. . ... : ... .. . ... : ... .. . ... ...
ROW F4 : ... .. . P80 ... ... : ... .. . ... ... ... : ... .. . ... : ... .. . ... : ... .. . ... ...
ROW F5 : ... .. . ... ... ... : ... .. . ... ... ... : ... .. . ... : ... .. . ... : ... .. . ... ...
ROW F6 : ... .. . ... ... ... : ... .. . ... ... ... : ... .. . ... : ... .. . ... : ... .. . ... ...
ROW F7 : ... .. . ... ... ... : ... .. . P80 ... ... : ... .. . ... : ... .. . ... : ... .. . ... ...
ROW F8 : ... .. . P7E ... ... : ... .. . ... ... ... : ... .. . ... : ... .. . ... : ... .. . ... ...
ROW F9 : ... .. . ... ... ... : ... .. . ... ... ... : ... .. . ... : ... .. . ... : ... .. . ... ...
ROW FA : ... .. . ... ... ... : ... .. . ... ... ... : ... .. . ... : ... .. . ... : ... .. . ... ...
ROW FB : ... .. . ... ... ... : ... .. . P7E ... ... : ... .. . ... : ... .. . ... : ... .. . ... ...
ROW FC : ... .. . P80 ... ... : ... .. . ... ... ... : ... .. . ... : ... .. . ... : ... .. . ... ...
ROW FD : ... .. . ... ... ... : ... .. . ... ... ... : ... .. . ... : ... .. . ... : ... .. . ... ...
ROW FE : ... .. . ... ... ... : ... .. . ... ... ... : ... .. . ... : ... .. . ... : ... .. . ... ...
ROW FF : ... .. . ... ... ... : ... .. . P80 ... ... : ... .. . P7E : ... .. . ... : ... .. . ... ...

PATTERN 15
ROW 00 : ... .. . P7E ... ... : ... .. . ... ... ... : ... .. . ... : ... .. . ... : ... .. . ... ...
ROW 01 : ... .. . ... ... ... : ... .. . ... ... ... : ... .. . ... : ... .. . ... : ... .. . ... ...
ROW 02 : ... .. . ... ... ... : ... .. . ... ... ... : ... .. . ... : ... .. . ... : ... .. . ... ...
ROW 03 : ... .. . ... ... ... : ... .. . P7E ... ... : ... .. . P80 : ... .. . ... : ... .. . ... ...
ROW 04 : ... .. . P80 ... ... : ... .. . P7F ... ... : ... .. . ... : ... .. . ... : ... .. . ... ...
ROW 05 : ... .. . ... ... ... : ... .. . ... ... ... : ... .. . ... : ... .. . ... : ... .. . ... ...
ROW 06 : ... .. . ... ... ... : ... .. . ... ... ... : ... .. . ... : ... .. . ... : ... .. . ... ...
ROW 07 : ... .. . ... ... ... : ... .. . ... ... ... : ... .. . P7E : ... .. . ... : ... .. . ... ...
ROW 08 : ... .. . P7E ... ... : ... .. . ... ... ... : ... .. . ... : ... .. . ... : ... .. . ... ...
ROW 09 : ... .. . P7F ... ... : ... .. . ... ... ... : ... .. . ... : ... .. . ... : ... .. . ... ...
ROW 0A : ... .. . ... ... ... : ... .. . ... ... ... : ... .. . ... : ... .. . ... : ... .. . ... ...
ROW 0B : ... .. . ... ... ... : ... .. . ... ... ... : ... .. . P80 : ... .. . ... : ... .. . ... ...
ROW 0C : ... .. . ... ... ... : ... .. . ... ... ... : ... .. . ... : ... .. . ... : ... .. . ... ...
ROW 0D : ... .. . ... ... ... : ... .. . ... ... ... : ... .. . ... : ... .. . ... : ... .. . ... ...
ROW 0E : ... .. . ... ... ... : ... .. . ... ... ... : ... .. . ... : ... .. . ... : ... .. . ... ...
ROW 0F : ... .. . ... ... ... : ... .. . ... ... ... : ... .. . P7E : ... .. . ... : ... .. . ... ...
ROW 10 : ... .. . ... ... ... : ... .. . ... ... ... : ... .. . ... : ... .. . ... : ... .. . ... ...
ROW 11 : ... .. . ... ... ... : ... .. . ... ... ... : ... .. . ... : ... .. . ... : ... .. . ... ...
ROW 12 : ... .. . ... ... ... : ... .. . ... ... ... : ... .. . ... : ... .. . ... : ... .. . ... ...
ROW 13 : ... .. . ... ... ... : ... .. . P7E ... ... : ... .. . P80 : ... .. . ... : ... .. . ... ...
ROW 14 : ... .. . ... ... ... : ... .. . ... ... ... : ... .. . ... : ... .. . ... : ... .. . ... ...
ROW 15 : ... .. . ... ... ... : ... .. . ... ... ... : ... .. . ... : ... .. . ... : ... .. . ... ...
ROW 16 : ... .. . ... ... ... : ... .. . ... ... ... : ... .. . ... : ... .. . ... : ... .. . ... ...
ROW 17 : ... .. . ... ... ... : ... .. . P80 ... ... : ... .. . P7E : ... .. . ... : ... .. . ... ...
ROW 18 : ... .. . P7E ... ... : ... .. . ... ... ... : ... .. . ... : ... .. . ... : ... .. . ... ...
ROW 19 : ... .. . ... ... ... : ... .. . ... ... ... : ... .. . ... : ... .. . ... : ... .. . ... ...
ROW 1A : ... .. . ... ... ... : ... .. . ... ... ... : ... .. . ... : ... .. . ... : ... .. . ... ...
ROW 1B : ... .. . ... ... ... : ... .. . P7E ... ... : ... .. . P80 : ... .. . ... : ... .. . ... ...
ROW 1C : ... .. . P80 ... ... : ... .. . ... ... ... : ... .. . ... : ... .. . ... : ... .. . ... ...
ROW 1D : ... .. . ... ... ... : ... .. . ... ... ... : ... .. . ... : ... .. . ... : ... .. . ... ...
ROW 1E : ... .. . ... ... ... : ... .. . ... ... ... : ... .. . ... : ... .. . ... : ... .. . ... ...
ROW 1F : ... .. . ... ... ... : ... .. . P80 ... ... : ... .. . P7E : ... .. . ... : ... .. . ... ...
ROW 20 : ... .. . P7E ... ... : ... .. . ... ... ... : ... .. . ... : ... .. . ... : ... .. . ... ...
ROW 21 : ... .. . ... ... ... : ... .. . ... ... ... : ... .. . ... : ... .. . ... : ... .. . ... ...
ROW 22 : ... .. . ... ... ... : ... .. . ... ... ... : ... .. . ... : ... .. . ... : ... .. . ... ...
ROW 23 : ... .. . ... ... ... : ... .. . P7E ... ... : ... .. . P80 : ... .. . ... : ... .. . ... ...
ROW 24 : ... .. . P80 ... ... : ... .. . ... ... ... : ... .. . ... : ... .. . ... : ... .. . ... ...
ROW 25 : ... .. . ... ... ... : ... .. . ... ... ... : ... .. . ... : ... .. . ... : ... .. . ... ...
ROW 26 : ... .. . ... ... ... : ... .. . ... ... ... : ... .. . ... : ... .. . ... : ... .. . ... ...
ROW 27 : ... .. . ... ... ... : ... .. . P80 ... ... : ... .. . P7E : ... .. . ... : ... .. . ... ...
ROW 28 : ... .. . P7E ... ... : ... .. . ... ... ... : ... .. . ... : ... .. . ... : ... .. . ... ...
ROW 29 : ... .. . ... ... ... : ... .. . ... ... ... : ... .. . ... : ... .. . ... : ... .. . ... ...
ROW 2A : ... .. . ... ... ... : ... .. . ... ... ... : ... .. . ... : ... .. . ... : ... .. . ... ...
ROW 2B : ... .. . ... ... ... : ... .. . P7E ... ... : ... .. . P80 : ... .. . ... : ... .. . ... ...
ROW 2C : ... .. . P80 ... ... : ... .. . ... ... ... : ... .. . ... : ... .. . ... : ... .. . ... ...
ROW 2D : ... .. . ... ... ... : ... .. . ... ... ... : ... .. . ... : ... .. . ... : ... .. . ... ...
ROW 2E : ... .. . ... ... ... : ... .. . ... ... ... : ... .. . ... : ... .. . ... : ... .. . ... ...
ROW 2F : ... .. . ... ... ... : ... .. . P80 ... ... : ... .. . P7E : ... .. . ... : ... .. . ... ...
ROW 30 : ... .. . P7E ... ... : ... .. . ... ... ... : ... .. . ... : ... .. . ... : ... .. . ... ...
ROW 31 : ... .. . ... ... ... : ... .. . ... ... ... : ... .. . ... : ... .. . ... : ... .. . ... ...
ROW 32 : ... .. . ... ... ... : ... .. . ... ... ... : ... .. . ... : ... .. . ... : ... .. . ... ...
ROW 33 : ... .. . ... ... ... : ... .. 0 P7E ... ... : ... .. . P80 : ... .. . ... : ... .. . ... ...
ROW 34 : ... .. . P80 ... ... : ... .. . ... ... ... : ... .. . ... : ... .. . ... : ... .. . ... ...
ROW 35 : ... .. . ... ... ... : ... .. . ... ... ... : ... .. . ... : ... .. . ... : ... .. . ... ...
ROW 36 : ... .. . ... ... ... : ... .. . ... ... ... : ... .. . ... : ... .. . ... : ... .. . ... ...
ROW 37 : ... .. . ... ... ... : ... .. . P80 ... ... : ... .. . P7E : ... .. . ... : ... .. . ... ...
ROW 38 : ... .. 0 P7E ... ... : ... .. . ... ... ... : ... .. . ... : ... .. . ... : ... .. . ... ...
ROW 39 : ... .. . ... ... ... : ... .. . ... ... ... : ... .. . ... : ... .. . ... : ... .. . ... ...
ROW 3A : ... .. . ... ... ... : ... .. . ... ... ... : ... .. . ... : ... .. . ... : ... .. . ... ...
ROW 3B : ... .. . ... ... ... : ... .. . P7E ... ... : ... .. . P80 : ... .. . ... : ... .. . ... ...
ROW 3C : ... .. . P80 ... ... : ... .. . ... ... ... : ... .. . ... : ... .. . ... : ... .. . ... ...
ROW 3D : ... .. . ... ... ... : ... .. . ... ... ... : ... .. . ... : ... .. . ... : ... .. . ... ...
ROW 3E : ... .. . ... ... ... : ... .. . ... ... ... : ... .. . ... : ... .. . ... : ... .. . ... ...
ROW 3F : ... .. . ... ... ... : ... .. . P80 ... ... : ... .. . P7E : ... .. . ... : ... .. . ... ...
ROW 40 : F-2 00 4 ... ... ... : C#2 00 4 P7F ... ... : A#2 00 . P80 : C-# 00 C ... : ... .. . ... ...
ROW 41 : ... .. 5 ... ... ... : ... .. 5 ... ... ... : ... .. . ... : ... .. 0 ... : ... .. . ... ...
ROW 42 : ... .. 6 ... ... ... : ... .. 6 ... ... ... : ... .. . ... : ... .. . ... : ... .. . ... ...
ROW 43 : ... .. . ... ... ... : ... .. . ... ... ... : ... .. . ... : ... .. . ... : ... .. . ... ...
ROW 44 : ... .. 7 ... ... ... : ... .. 7 ... ... ... : ... .. . ... : ... .. . ... : ... .. . ... ...
ROW 45 : ... .. . ... ... ... : ... .. . ... ... ... : ... .. . ... : ... .. . ... : ... .. . ... ...
ROW 46 : ... .. . ... ... ... : ... .. . ... ... ... : ... .. . ... : ... .. . ... : ... .. . ... ...
ROW 47 : ... .. 6 ... ... ... : ... .. 6 ... ... ... : ... .. . ... : ... .. . ... : ... .. . ... ...
ROW 48 : ... .. . ... ... ... : ... .. . ... ... ... : --- .. . ... : ... .. . ... : ... .. . ... ...
ROW 49 : ... .. . ... ... ... : ... .. . ... ... ... : ... .. . ... : ... .. . ... : ... .. . ... ...
ROW 4A : ... .. . ... ... ... : ... .. . ... ... ... : ... .. . ... : ... .. . ... : ... .. . ... ...
ROW 4B : ... .. 5 ... ... ... : ... .. 5 ... ... ... : ... .. . ... : ... .. . ... : ... .. . ... ...
ROW 4C : ... .. . ... ... ... : ... .. . ... ... ... : ... .. . ... : ... .. . ... : ... .. . ... ...
ROW 4D : ... .. . ... ... ... : ... .. . ... ... ... : ... .. . ... : ... .. . ... : ... .. . ... ...
ROW 4E : ... .. . ... ... ... : ... .. . ... ... ... : ... .. . ... : ... .. . ... : ... .. . ... ...
ROW 4F : ... .. 4 P7F ... ... : ... .. 4 P7E ... ... : ... .. . P7F : ... .. . ... : ... .. . ... ...
ROW 50 : ... .. . ... ... ... : ... .. . ... ... ... : ... .. . ... : ... .. . ... : ... .. . ... ...
ROW 51 : ... .. . ... ... ... : ... .. . ... ... ... : ... .. . ... : ... .. . ... : ... .. . ... ...
ROW 52 : ... .. . ... ... ... : ... .. . ... ... ... : ... .. . ... : ... .. . ... : ... .. . ... ...
ROW 53 : ... .. . P81 ... ... : ... .. . P80 ... ... : ... .. . P81 : ... .. . ... : ... .. . ... ...
ROW 54 : ... .. . P80 ... ... : ... .. . ... ... ... : A#2 00 . P80 : ... .. C ... : ... .. . ... ...
ROW 55 : ... .. 5 ... ... ... : ... .. . ... ... ... : ... .. . ... : ... .. 0 ... : ... .. . ... ...
ROW 56 : ... .. 6 ... ... ... : ... .. . ... ... ... : ... .. . ... : ... .. . ... : ... .. . ... ...
ROW 57 : ... .. . ... ... ... : ... .. . P7E ... ... : ... .. . ... : ... .. . ... : ... .. . ... ...
ROW 58 : ... .. 7 ... ... ... : ... .. . ... ... ... : ... .. . ... : ... .. . ... : ... .. . ... ...
ROW 59 : ... .. . ... ... ... : ... .. 3 ... ... ... : ... .. . ... : ... .. . ... : ... .. . ... ...
ROW 5A : ... .. . ... ... ... : ... .. . ... ... ... : ... .. . ... : ... .. . ... : ... .. . ... ...
ROW 5B : ... .. 6 ... ... ... : ... .. . P80 ... ... : ... .. . ... : ... .. . ... : ... .. . ... ...
ROW 5C : ... .. . ... ... ... : ... .. . ... ... ... : --- .. . ... : ... .. . ... : ... .. . ... ...
ROW 5D : ... .. . ... ... ... : ... .. . ... ... ... : ... .. . ... : ... .. . ... : ... .. . ... ...
ROW 5E : A#1 00 4 ... ... ... : ... .. 2 ... ... ... : A#2 00 . ... : ... .. C ... : ... .. . ... ...
ROW 5F : ... .. 5 ... ... ... : ... .. . P7E ... ... : ... .. . ... : ... .. 0 ... : ... .. . ... ...
ROW 60 : ... .. 6 ... ... ... : ... .. 0 ... ... ... : ... .. . ... : ... .. . ... : ... .. . ... ...
ROW 61 : ... .. . ... ... ... : ... .. . ... ... ... : ... .. . ... : ... .. . ... : ... .. . ... ...
ROW 62 : ... .. 7 ... ... ... : ... .. . ... ... ... : ... .. . ... : ... .. . ... : ... .. . ... ...
ROW 63 : ... .. . ... ... ... : ... .. . P80 ... ... : ... .. . ... : ... .. . ... : ... .. . ... ...
ROW 64 : ... .. . ... ... ... : ... .. . ... ... ... : ... .. . ... : ... .. . ... : ... .. . ... ...
ROW 65 : ... .. 6 ... ... ... : ... .. . ... ... ... : ... .. . ... : ... .. . ... : ... .. . ... ...
ROW 66 : ... .. . ... ... ... : ... .. . ... ... ... : --- .. . ... : ... .. . ... : ... .. . ... ...
ROW 67 : ... .. . ... ... ... : ... .. . P7E ... ... : ... .. . ... : ... .. . ... : ... .. . ... ...
ROW 68 : F-2 00 4 ... ... ... : ... .. . ... ... ... : A#2 00 . ... : ... .. C ... : ... .. . ... ...
ROW 69 : ... .. 5 ... ... ... : ... .. . ... ... ... : ... .. . ... : ... .. 0 ... : ... .. . ... ...
ROW 6A : ... .. 6 ... ... ... : ... .. . ... ... ... : ... .. . ... : ... .. . ... : ... .. . ... ...
ROW 6B : ... .. . ... ... ... : ... .. . P80 ... ... : ... .. . ... : ... .. . ... : ... .. . ... ...
ROW 6C : ... .. 7 ... ... ... : ... .. . ... ... ... : ... .. . ... : ... .. . ... : ... .. . ... ...
ROW 6D : ... .. . ... ... ... : ... .. . ... ... ... : ... .. . ... : ... .. . ... : ... .. . ... ...
ROW 6E : ... .. . ... ... ... : ... .. . ... ... ... : ... .. . ... : ... .. . ... : ... .. . ... ...
ROW 6F : ... .. 6 ... ... ... : ... .. . P7E ... ... : ... .. . ... : ... .. . ... : ... .. . ... ...
ROW 70 : ... .. . ... ... ... : ... .. . ... ... ... : --- .. . ... : ... .. . ... : ... .. . ... ...
ROW 71 : ... .. . ... ... ... : ... .. . ... ... ... : ... .. . ... : ... .. . ... : ... .. . ... ...
ROW 72 : ... .. . ... ... ... : ... .. . ... ... ... : ... .. . ... : ... .. . ... : ... .. . ... ...
ROW 73 : ... .. 5 ... ... ... : ... .. . P80 ... ... : ... .. . ... : ... .. . ... : ... .. . ... ...
ROW 74 : ... .. . ... ... ... : ... .. . ... ... ... : ... .. . ... : ... .. . ... : ... .. . ... ...
ROW 75 : ... .. . ... ... ... : ... .. . ... ... ... : ... .. . ... : ... .. . ... : ... .. . ... ...
ROW 76 : ... .. . ... ... ... : ... .. . ... ... ... : ... .. . ... : ... .. . ... : ... .. . ... ...
ROW 77 : ... .. 4 P7F ... ... : ... .. . P7E ... ... : ... .. . P7F : ... .. . ... : ... .. . ... ...
ROW 78 : ... .. . ... ... ... : ... .. . ... ... ... : ... .. . ... : ... .. . ... : ... .. . ... ...
ROW 79 : ... .. . ... ... ... : ... .. . ... ... ... : ... .. . ... : ... .. . ... : ... .. . ... ...
ROW 7A : ... .. . ... ... ... : ... .. . ... ... ... : ... .. . ... : ... .. . ... : ... .. . ... ...
ROW 7B : ... .. . P81 ... ... : ... .. . P80 ... ... : ... .. . P81 : ... .. . ... : ... .. . ... ...
ROW 7C : ... .. . P80 ... ... : ... .. . ... ... ... : A#2 00 . P80 : ... .. C ... : ... .. . ... ...
ROW 7D : ... .. 5 ... ... ... : ... .. . ... ... ... : ... .. . ... : ... .. 0 ... : ... .. . ... ...
ROW 7E : ... .. 6 ... ... ... : ... .. . ... ... ... : ... .. . ... : ... .. . ... : ... .. . ... ...
ROW 7F : ... .. . ... ... ... : ... .. . P7E ... ... : ... .. . ... : ... .. . ... : ... .. . ... ...
ROW 80 : ... .. 7 ... ... ... : ... .. . ... ... ... : ... .. . ... : ... .. . ... : ... .. . ... ...
ROW 81 : ... .. . ... ... ... : ... .. . ... ... ... : ... .. . ... : ... .. . ... : ... .. . ... ...
ROW 82 : ... .. . ... ... ... : ... .. . ... ... ... : ... .. . ... : ... .. . ... : ... .. . ... ...
ROW 83 : ... .. 6 ... ... ... : ... .. . P80 ... ... : ... .. . ... : ... .. . ... : ... .. . ... ...
ROW 84 : ... .. . ... ... ... : ... .. . ... ... ... : --- .. . ... : ... .. . ... : ... .. . ... ...
ROW 85 : ... .. . ... ... ... : ... .. . ... ... ... : ... .. . ... : ... .. . ... : ... .. . ... ...
ROW 86 : A#1 00 4 ... ... ... : ... .. . ... ... ... : A#2 00 . ... : ... .. C ... : ... .. . ... ...
ROW 87 : ... .. 5 ... ... ... : ... .. . P7E ... ... : ... .. . ... : ... .. 0 ... : ... .. . ... ...
ROW 88 : ... .. 6 ... ... ... : ... .. . ... ... ... : ... .. . ... : ... .. . ... : ... .. . ... ...
ROW 89 : ... .. . ... ... ... : ... .. . ... ... ... : ... .. . ... : ... .. . ... : ... .. . ... ...
ROW 8A : ... .. 7 ... ... ... : ... .. . ... ... ... : ... .. . ... : ... .. . ... : ... .. . ... ...
ROW 8B : ... .. . ... ... ... : ... .. . P80 ... ... : ... .. . ... : ... .. . ... : ... .. . ... ...
ROW 8C : ... .. . ... ... ... : ... .. . ... ... ... : ... .. . ... : ... .. . ... : ... .. . ... ...
ROW 8D : ... .. 6 ... ... ... : ... .. . ... ... ... : ... .. . ... : ... .. . ... : ... .. . ... ...
ROW 8E : ... .. . ... ... ... : ... .. . ... ... ... : --- .. . ... : ... .. . ... : ... .. . ... ...
ROW 8F : ... .. . ... ... ... : ... .. . P7E ... ... : ... .. . ... : ... .. . ... : ... .. . ... ...
ROW 90 : F-2 00 4 ... ... ... : ... .. . P7F ... ... : A#2 00 . ... : ... .. C ... : ... .. . ... ...
ROW 91 : ... .. 5 ... ... ... : ... .. . ... ... ... : ... .. . ... : ... .. 0 ... : ... .. . ... ...
ROW 92 : ... .. 6 ... ... ... : ... .. . ... ... ... : ... .. . ... : ... .. . ... : ... .. . ... ...
ROW 93 : ... .. . ... ... ... : ... .. . ... ... ... : ... .. . ... : ... .. . ... : ... .. . ... ...
ROW 94 : ... .. 7 ... ... ... : ... .. . ... ... ... : ... .. . ... : ... .. . ... : ... .. . ... ...
ROW 95 : ... .. . ... ... ... : ... .. . ... ... ... : ... .. . ... : ... .. . ... : ... .. . ... ...
ROW 96 : ... .. . ... ... ... : ... .. . ... ... ... : ... .. . ... : ... .. . ... : ... .. . ... ...
ROW 97 : ... .. 6 ... ... ... : ... .. . ... ... ... : ... .. . ... : ... .. . ... : ... .. . ... ...
ROW 98 : ... .. . ... ... ... : ... .. . ... ... ... : --- .. . ... : ... .. . ... : ... .. . ... ...
ROW 99 : ... .. . ... ... ... : ... .. . ... ... ... : ... .. . ... : ... .. . ... : ... .. . ... ...
ROW 9A : ... .. . ... ... ... : ... .. . ... ... ... : ... .. . ... : ... .. . ... : ... .. . ... ...
ROW 9B : ... .. 5 ... ... ... : ... .. . ... ... ... : ... .. . ... : ... .. . ... : ... .. . ... ...
ROW 9C : ... .. . ... ... ... : ... .. . ... ... ... : ... .. . ... : ... .. . ... : ... .. . ... ...
ROW 9D : ... .. . ... ... ... : ... .. . ... ... ... : ... .. . ... : ... .. . ... : ... .. . ... ...
ROW 9E : ... .. . ... ... ... : ... .. . ... ... ... : ... .. . ... : ... .. . ... : ... .. . ... ...
ROW 9F : ... .. 4 P7F ... ... : ... .. . P7E ... ... : ... .. . P7F : ... .. . ... : ... .. . ... ...
ROW A0 : ... .. . ... ... ... : ... .. . ... ... ... : ... .. . ... : ... .. . ... : ... .. . ... ...
ROW A1 : ... .. . ... ... ... : ... .. . ... ... ... : ... .. . ... : ... .. . ... : ... .. . ... ...
ROW A2 : ... .. . ... ... ... : ... .. . ... ... ... : ... .. . ... : ... .. . ... : ... .. . ... ...
ROW A3 : ... .. . P81 ... ... : ... .. . P80 ... ... : ... .. . P81 : ... .. . ... : ... .. . ... ...
ROW A4 : ... .. . P80 ... ... : ... .. . ... ... ... : A#2 00 . P80 : ... .. C ... : ... .. . ... ...
ROW A5 : ... .. 5 ... ... ... : ... .. . ... ... ... : ... .. . ... : ... .. 0 ... : ... .. . ... ...
ROW A6 : ... .. 6 ... ... ... : ... .. . ... ... ... : ... .. . ... : ... .. . ... : ... .. . ... ...
ROW A7 : ... .. . ... ... ... : ... .. . P7E ... ... : ... .. . ... : ... .. . ... : ... .. . ... ...
ROW A8 : ... .. 7 ... ... ... : ... .. . ... ... ... : ... .. . ... : ... .. . ... : ... .. . ... ...
ROW A9 : ... .. . ... ... ... : ... .. . ... ... ... : ... .. . ... : ... .. . ... : ... .. . ... ...
ROW AA : ... .. . ... ... ... : ... .. . ... ... ... : ... .. . ... : ... .. . ... : ... .. . ... ...
ROW AB : ... .. 6 ... ... ... : ... .. . P80 ... ... : ... .. . ... : ... .. . ... : ... .. . ... ...
ROW AC : ... .. . ... ... ... : ... .. . ... ... ... : --- .. . ... : ... .. . ... : ... .. . ... ...
ROW AD : ... .. . ... ... ... : ... .. . ... ... ... : ... .. . ... : ... .. . ... : ... .. . ... ...
ROW AE : A#1 00 4 ... ... ... : ... .. . ... ... ... : A#2 00 . ... : ... .. C ... : ... .. . ... ...
ROW AF : ... .. 5 ... ... ... : ... .. . P7E ... ... : ... .. . ... : ... .. 0 ... : ... .. . ... ...
ROW B0 : ... .. 6 ... ... ... : ... .. . ... ... ... : ... .. . ... : ... .. . ... : ... .. . ... ...
ROW B1 : ... .. . ... ... ... : ... .. . ... ... ... : ... .. . ... : ... .. . ... : ... .. . ... ...
ROW B2 : ... .. 7 ... ... ... : ... .. . ... ... ... : ... .. . ... : ... .. . ... : ... .. . ... ...
ROW B3 : ... .. . ... ... ... : ... .. . P80 ... ... : ... .. . ... : ... .. . ... : ... .. . ... ...
ROW B4 : ... .. . ... ... ... : ... .. . ... ... ... : ... .. . ... : ... .. . ... : ... .. . ... ...
ROW B5 : ... .. 6 ... ... ... : ... .. . ... ... ... : ... .. . ... : ... .. . ... : ... .. . ... ...
ROW B6 : ... .. . ... ... ... : ... .. . ... ... ... : --- .. . ... : ... .. . ... : ... .. . ... ...
ROW B7 : ... .. . ... ... ... : ... .. . P7E ... ... : ... .. . ... : ... .. . ... : ... .. . ... ...
ROW B8 : F-2 00 4 ... ... ... : ... .. . ... ... ... : A#2 00 . ... : ... .. C ... : ... .. . ... ...
ROW B9 : ... .. 5 ... ... ... : ... .. . ... ... ... : ... .. . ... : ... .. 0 ... : ... .. . ... ...
ROW BA : ... .. 6 ... ... ... : ... .. . ... ... ... : ... .. . ... : ... .. . ... : ... .. . ... ...
ROW BB : ... .. . ... ... ... : ... .. . P80 ... ... : ... .. . ... : ... .. . ... : ... .. . ... ...
ROW BC : ... .. 7 ... ... ... : ... .. . ... ... ... : ... .. . ... : ... .. . ... : ... .. . ... ...
ROW BD : ... .. . ... ... ... : ... .. . ... ... ... : ... .. . ... : ... .. . ... : ... .. . ... ...
ROW BE : ... .. . ... ... ... : ... .. . ... ... ... : ... .. . ... : ... .. . ... : ... .. . ... ...
ROW BF : ... .. 6 ... ... ... : ... .. . P7E ... ... : ... .. . ... : ... .. . ... : ... .. . ... ...
ROW C0 : ... .. . ... ... ... : ... .. . ... ... ... : --- .. . ... : ... .. . ... : ... .. . ... ...
ROW C1 : ... .. . ... ... ... : ... .. . ... ... ... : ... .. . ... : ... .. . ... : ... .. . ... ...
ROW C2 : A#1 00 4 ... ... ... : ... .. . ... ... ... : ... .. . ... : ... .. . ... : ... .. . ... ...
ROW C3 : ... .. 5 ... ... ... : ... .. . P80 ... ... : ... .. . ... : ... .. . ... : ... .. . ... ...
ROW C4 : ... .. 6 ... ... ... : ... .. . ... ... ... : ... .. . ... : ... .. . ... : ... .. . ... ...
ROW C5 : ... .. . ... ... ... : ... .. . ... ... ... : ... .. . ... : ... .. . ... : ... .. . ... ...
ROW C6 : ... .. 7 ... ... ... : ... .. . ... ... ... : ... .. . ... : ... .. . ... : ... .. . ... ...
ROW C7 : ... .. . ... ... ... : ... .. . P7E ... ... : ... .. . P7F : ... .. . ... : ... .. . ... ...
ROW C8 : ... .. . ... ... ... : ... .. . ... ... ... : ... .. . ... : ... .. . ... : ... .. . ... ...
ROW C9 : ... .. 6 ... ... ... : ... .. . ... ... ... : ... .. . ... : ... .. . ... : ... .. . ... ...
ROW CA : ... .. . ... ... ... : ... .. . ... ... ... : ... .. . ... : ... .. . ... : ... .. . ... ...
ROW CB : ... .. . ... ... ... : ... .. . P80 ... ... : ... .. . P81 : ... .. . ... : ... .. . ... ...
ROW CC : F-2 00 4 ... ... ... : ... .. . ... ... ... : A#2 00 . P80 : ... .. C ... : ... .. . ... ...
ROW CD : ... .. 5 ... ... ... : ... .. . ... ... ... : ... .. . ... : ... .. 0 ... : ... .. . ... ...
ROW CE : ... .. 6 ... ... ... : ... .. . ... ... ... : ... .. . ... : ... .. . ... : ... .. . ... ...
ROW CF : ... .. . ... ... ... : ... .. . P7E ... ... : ... .. . ... : ... .. . ... : ... .. . ... ...
ROW D0 : ... .. 7 ... ... ... : ... .. . ... ... ... : ... .. . ... : ... .. . ... : ... .. . ... ...
ROW D1 : ... .. . ... ... ... : ... .. . ... ... ... : ... .. . ... : ... .. . ... : ... .. . ... ...
ROW D2 : ... .. . ... ... ... : ... .. . ... ... ... : ... .. . ... : ... .. . ... : ... .. . ... ...
ROW D3 : ... .. 6 ... ... ... : ... .. . P80 ... ... : ... .. . ... : ... .. . ... : ... .. . ... ...
ROW D4 : ... .. . ... ... ... : ... .. . ... ... ... : --- .. . ... : ... .. . ... : ... .. . ... ...
ROW D5 : ... .. . ... ... ... : ... .. . ... ... ... : ... .. . ... : ... .. . ... : ... .. . ... ...
ROW D6 : A#1 00 4 ... ... ... : ... .. . ... ... ... : A#2 00 . ... : ... .. C ... : ... .. . ... ...
ROW D7 : ... .. 5 ... ... ... : ... .. . P7E ... ... : ... .. . ... : ... .. 0 ... : ... .. . ... ...
ROW D8 : ... .. 6 ... ... ... : ... .. . ... ... ... : ... .. . ... : ... .. . ... : ... .. . ... ...
ROW D9 : ... .. . ... ... ... : ... .. . ... ... ... : ... .. . ... : ... .. . ... : ... .. . ... ...
ROW DA : ... .. 7 ... ... ... : ... .. . ... ... ... : ... .. . ... : ... .. . ... : ... .. . ... ...
ROW DB : ... .. . ... ... ... : ... .. . P80 ... ... : ... .. . ... : ... .. . ... : ... .. . ... ...
ROW DC : ... .. . ... ... ... : ... .. . ... ... ... : ... .. . ... : ... .. . ... : ... .. . ... ...
ROW DD : ... .. 6 ... ... ... : ... .. . ... ... ... : ... .. . ... : ... .. . ... : ... .. . ... ...
ROW DE : ... .. . ... ... ... : ... .. . ... ... ... : --- .. . ... : ... .. . ... : ... .. . ... ...
ROW DF : ... .. . ... ... ... : ... .. . P7E ... ... : ... .. . ... : ... .. . ... : ... .. . ... ...
ROW E0 : F-2 00 4 ... ... ... : ... .. 4 P7F ... ... : A#2 00 . ... : ... .. C ... : ... .. . ... ...
ROW E1 : ... .. 5 ... ... ... : ... .. 5 ... ... ... : ... .. . ... : ... .. 0 ... : ... .. . ... ...
ROW E2 : ... .. 6 ... ... ... : ... .. 6 ... ... ... : ... .. . ... : ... .. . ... : ... .. . ... ...
ROW E3 : ... .. . ... ... ... : ... .. . ... ... ... : ... .. . ... : ... .. . ... : ... .. . ... ...
ROW E4 : ... .. 7 ... ... ... : ... .. 7 ... ... ... : ... .. . ... : ... .. . ... : ... .. . ... ...
ROW E5 : ... .. . ... ... ... : ... .. . ... ... ... : ... .. . ... : ... .. . ... : ... .. . ... ...
ROW E6 : ... .. . ... ... ... : ... .. . ... ... ... : ... .. . ... : ... .. . ... : ... .. . ... ...
ROW E7 : ... .. 6 ... ... ... : ... .. 6 ... ... ... : ... .. . ... : ... .. . ... : ... .. . ... ...
ROW E8 : ... .. . ... ... ... : ... .. . ... ... ... : --- .. . ... : ... .. . ... : ... .. . ... ...
ROW E9 : ... .. . ... ... ... : ... .. . ... ... ... : ... .. . ... : ... .. . ... : ... .. . ... ...
ROW EA : ... .. . ... ... ... : ... .. . ... ... ... : ... .. . ... : ... .. . ... : ... .. . ... ...
ROW EB : ... .. 5 ... ... ... : ... .. 5 ... ... ... : ... .. . ... : ... .. . ... : ... .. . ... ...
ROW EC : ... .. . ... ... ... : ... .. . ... ... ... : ... .. . ... : ... .. . ... : ... .. . ... ...
ROW ED : ... .. . ... ... ... : ... .. . ... ... ... : ... .. . ... : ... .. . ... : ... .. . ... ...
ROW EE : ... .. . ... ... ... : ... .. . ... ... ... : ... .. . ... : ... .. . ... : ... .. . ... ...
ROW EF : ... .. 4 P7F ... ... : ... .. 4 P7E ... ... : ... .. . P7F : ... .. . ... : ... .. . ... ...
ROW F0 : ... .. . ... ... ... : ... .. . ... ... ... : ... .. . ... : ... .. . ... : ... .. . ... ...
ROW F1 : ... .. . ... ... ... : ... .. . ... ... ... : ... .. . ... : ... .. . ... : ... .. . ... ...
ROW F2 : ... .. . ... ... ... : ... .. . ... ... ... : ... .. . ... : ... .. . ... : ... .. . ... ...
ROW F3 : ... .. . P81 ... ... : ... .. . P80 ... ... : ... .. . P81 : ... .. . ... : ... .. . ... ...
ROW F4 : ... .. . P80 ... ... : ... .. . ... ... ... : A#2 00 . P80 : ... .. C ... : ... .. . ... ...
ROW F5 : ... .. 5 ... ... ... : ... .. . ... ... ... : ... .. . ... : ... .. 0 ... : ... .. . ... ...
ROW F6 : ... .. 6 ... ... ... : ... .. . ... ... ... : ... .. . ... : ... .. . ... : ... .. . ... ...
ROW F7 : ... .. . ... ... ... : ... .. . P7E ... ... : ... .. . ... : ... .. . ... : ... .. . ... ...
ROW F8 : ... .. 7 ... ... ... : ... .. . ... ... ... : ... .. . ... : ... .. . ... : ... .. . ... ...
ROW F9 : ... .. . ... ... ... : ... .. 3 ... ... ... : ... .. . ... : ... .. . ... : ... .. . ... ...
ROW FA : ... .. . ... ... ... : ... .. . ... ... ... : ... .. . ... : ... .. . ... : ... .. . ... ...
ROW FB : ... .. 6 ... ... ... : ... .. . P80 ... ... : ... .. . ... : ... .. . ... : ... .. . ... ...
ROW FC : ... .. . ... ... ... : ... .. . ... ... ... : --- .. . ... : ... .. . ... : ... .. . ... ...
ROW FD : ... .. . ... ... ... : ... .. . ... ... ... : ... .. . ... : ... .. . ... : ... .. . ... ...
ROW FE : A#1 00 4 ... ... ... : ... .. 2 ... ... ... : A#2 00 . ... : ... .. C ... : ... .. . ... ...
ROW FF : ... .. 5 ... ... ... : ... .. . P7E ... ... : ... .. . ... : ... .. 0 ... : ... .. . ... ...

PATTERN 16
ROW 00 : ... .. 6 ... ... ... : ... .. 0 ... ... ... : ... .. . ... : ... .. . ... : ... .. . ... ...
ROW 01 : ... .. . ... ... ... : ... .. . ... ... ... : ... .. . ... : ... .. . ... : ... .. . ... ...
ROW 02 : ... .. 7 ... ... ... : ... .. . ... ... ... : ... .. . ... : ... .. . ... : ... .. . ... ...
ROW 03 : ... .. . ... ... ... : ... .. . P80 ... ... : ... .. . ... : ... .. . ... : ... .. . ... ...
ROW 04 : ... .. . ... ... ... : ... .. . ... ... ... : ... .. . ... : ... .. . ... : ... .. . ... ...
ROW 05 : ... .. 6 ... ... ... : ... .. . ... ... ... : ... .. . ... : ... .. . ... : ... .. . ... ...
ROW 06 : ... .. . ... ... ... : ... .. . ... ... ... : --- .. . ... : ... .. . ... : ... .. . ... ...
ROW 07 : ... .. . ... ... ... : ... .. . P7E ... ... : ... .. . ... : ... .. . ... : ... .. . ... ...
ROW 08 : F-2 00 4 ... ... ... : ... .. . ... ... ... : A#2 00 . ... : ... .. C ... : ... .. . ... ...
ROW 09 : ... .. 5 ... ... ... : ... .. . ... ... ... : ... .. . ... : ... .. 0 ... : ... .. . ... ...
ROW 0A : ... .. 6 ... ... ... : ... .. . ... ... ... : ... .. . ... : ... .. . ... : ... .. . ... ...
ROW 0B : ... .. . ... ... ... : ... .. . P80 ... ... : ... .. . ... : ... .. . ... : ... .. . ... ...
ROW 0C : ... .. 7 ... ... ... : ... .. . ... ... ... : ... .. . ... : ... .. . ... : ... .. . ... ...
ROW 0D : ... .. . ... ... ... : ... .. . ... ... ... : ... .. . ... : ... .. . ... : ... .. . ... ...
ROW 0E : ... .. . ... ... ... : ... .. . ... ... ... : ... .. . ... : ... .. . ... : ... .. . ... ...
ROW 0F : ... .. 6 ... ... ... : ... .. . P7E ... ... : ... .. . ... : ... .. . ... : ... .. . ... ...
ROW 10 : ... .. . ... ... ... : ... .. . ... ... ... : --- .. . ... : ... .. . ... : ... .. . ... ...
ROW 11 : ... .. . ... ... ... : ... .. . ... ... ... : ... .. . ... : ... .. . ... : ... .. . ... ...
ROW 12 : ... .. . ... ... ... : ... .. . ... ... ... : ... .. . ... : ... .. . ... : ... .. . ... ...
ROW 13 : ... .. 5 ... ... ... : ... .. . P80 ... ... : ... .. . ... : ... .. . ... : ... .. . ... ...
ROW 14 : ... .. . ... ... ... : ... .. . ... ... ... : ... .. . ... : ... .. . ... : ... .. . ... ...
ROW 15 : ... .. . ... ... ... : ... .. . ... ... ... : ... .. . ... : ... .. . ... : ... .. . ... ...
ROW 16 : ... .. . ... ... ... : ... .. . ... ... ... : ... .. . ... : ... .. . ... : ... .. . ... ...
ROW 17 : ... .. 4 P7F ... ... : ... .. . P7E ... ... : ... .. . P7F : ... .. . ... : ... .. . ... ...
ROW 18 : ... .. . ... ... ... : ... .. . ... ... ... : ... .. . ... : ... .. . ... : ... .. . ... ...
ROW 19 : ... .. . ... ... ... : ... .. . ... ... ... : ... .. . ... : ... .. . ... : ... .. . ... ...
ROW 1A : ... .. . ... ... ... : ... .. . ... ... ... : ... .. . ... : ... .. . ... : ... .. . ... ...
ROW 1B : ... .. . P81 ... ... : ... .. . P80 ... ... : ... .. . P81 : ... .. . ... : ... .. . ... ...
ROW 1C : ... .. . P80 ... ... : ... .. . ... ... ... : A#2 00 . P80 : ... .. C ... : ... .. . ... ...
ROW 1D : ... .. 5 ... ... ... : ... .. . ... ... ... : ... .. . ... : ... .. 0 ... : ... .. . ... ...
ROW 1E : ... .. 6 ... ... ... : ... .. . ... ... ... : ... .. . ... : ... .. . ... : ... .. . ... ...
ROW 1F : ... .. . ... ... ... : ... .. . P7E ... ... : ... .. . ... : ... .. . ... : ... .. . ... ...
ROW 20 : ... .. 7 ... ... ... : ... .. . ... ... ... : ... .. . ... : ... .. . ... : ... .. . ... ...
ROW 21 : ... .. . ... ... ... : ... .. . ... ... ... : ... .. . ... : ... .. . ... : ... .. . ... ...
ROW 22 : ... .. . ... ... ... : ... .. . ... ... ... : ... .. . ... : ... .. . ... : ... .. . ... ...
ROW 23 : ... .. 6 ... ... ... : ... .. . P80 ... ... : ... .. . ... : ... .. . ... : ... .. . ... ...
ROW 24 : ... .. . ... ... ... : ... .. . ... ... ... : --- .. . ... : ... .. . ... : ... .. . ... ...
ROW 25 : ... .. . ... ... ... : ... .. . ... ... ... : ... .. . ... : ... .. . ... : ... .. . ... ...
ROW 26 : A#1 00 4 ... ... ... : ... .. . ... ... ... : A#2 00 . ... : ... .. C ... : ... .. . ... ...
ROW 27 : ... .. 5 ... ... ... : ... .. . P7E ... ... : ... .. . ... : ... .. 0 ... : ... .. . ... ...
ROW 28 : ... .. 6 ... ... ... : ... .. . ... ... ... : ... .. . ... : ... .. . ... : ... .. . ... ...
ROW 29 : ... .. . ... ... ... : ... .. . ... ... ... : ... .. . ... : ... .. . ... : ... .. . ... ...
ROW 2A : ... .. 7 ... ... ... : ... .. . ... ... ... : ... .. . ... : ... .. . ... : ... .. . ... ...
ROW 2B : ... .. . ... ... ... : ... .. . P80 ... ... : ... .. . ... : ... .. . ... : ... .. . ... ...
ROW 2C : ... .. . ... ... ... : ... .. . ... ... ... : ... .. . ... : ... .. . ... : ... .. . ... ...
ROW 2D : ... .. 6 ... ... ... : ... .. . ... ... ... : ... .. . ... : ... .. . ... : ... .. . ... ...
ROW 2E : ... .. . ... ... ... : ... .. . ... ... ... : --- .. . ... : ... .. . ... : ... .. . ... ...
ROW 2F : ... .. . ... ... ... : ... .. . P7E ... ... : ... .. . ... : ... .. . ... : ... .. . ... ...
ROW 30 : F-2 00 4 ... ... ... : ... .. . P7F ... ... : A#2 00 . ... : ... .. C ... : ... .. . ... ...
ROW 31 : ... .. 5 ... ... ... : ... .. . ... ... ... : ... .. . ... : ... .. 0 ... : ... .. . ... ...
ROW 32 : ... .. 6 ... ... ... : ... .. . ... ... ... : ... .. . ... : ... .. . ... : ... .. . ... ...
ROW 33 : ... .. . ... ... ... : ... .. . ... ... ... : ... .. . ... : ... .. . ... : ... .. . ... ...
ROW 34 : ... .. 7 ... ... ... : ... .. . ... ... ... : ... .. . ... : ... .. . ... : ... .. . ... ...
ROW 35 : ... .. . ... ... ... : ... .. . ... ... ... : ... .. . ... : ... .. . ... : ... .. . ... ...
ROW 36 : ... .. . ... ... ... : ... .. . ... ... ... : ... .. . ... : ... .. . ... : ... .. . ... ...
ROW 37 : ... .. 6 ... ... ... : ... .. . ... ... ... : ... .. . ... : ... .. . ... : ... .. . ... ...
ROW 38 : ... .. . ... ... ... : ... .. . ... ... ... : --- .. . ... : ... .. . ... : ... .. . ... ...
ROW 39 : ... .. . ... ... ... : ... .. . ... ... ... : ... .. . ... : ... .. . ... : ... .. . ... ...
ROW 3A : ... .. . ... ... ... : ... .. . ... ... ... : ... .. . ... : ... .. . ... : ... .. . ... ...
ROW 3B : ... .. 5 ... ... ... : ... .. . ... ... ... : ... .. . ... : ... .. . ... : ... .. . ... ...
ROW 3C : ... .. . ... ... ... : ... .. . ... ... ... : ... .. . ... : ... .. . ... : ... .. . ... ...
ROW 3D : ... .. . ... ... ... : ... .. . ... ... ... : ... .. . ... : ... .. . ... : ... .. . ... ...
ROW 3E : ... .. . ... ... ... : ... .. . ... ... ... : ... .. . ... : ... .. . ... : ... .. . ... ...
ROW 3F : ... .. 4 P7F ... ... : ... .. . P7E ... ... : ... .. . P7F : ... .. . ... : ... .. . ... ...
ROW 40 : ... .. . ... ... ... : ... .. . ... ... ... : ... .. . ... : ... .. . ... : ... .. . ... ...
ROW 41 : ... .. . ... ... ... : ... .. . ... ... ... : ... .. . ... : ... .. . ... : ... .. . ... ...
ROW 42 : ... .. . ... ... ... : ... .. . ... ... ... : ... .. . ... : ... .. . ... : ... .. . ... ...
ROW 43 : ... .. . P81 ... ... : ... .. . P80 ... ... : ... .. . P81 : ... .. . ... : ... .. . ... ...
ROW 44 : ... .. . P80 ... ... : ... .. . ... ... ... : A#2 00 . P80 : ... .. C ... : ... .. . ... ...
ROW 45 : ... .. 5 ... ... ... : ... .. . ... ... ... : ... .. . ... : ... .. 0 ... : ... .. . ... ...
ROW 46 : ... .. 6 ... ... ... : ... .. . ... ... ... : ... .. . ... : ... .. . ... : ... .. . ... ...
ROW 47 : ... .. . ... ... ... : ... .. . P7E ... ... : ... .. . ... : ... .. . ... : ... .. . ... ...
ROW 48 : ... .. 7 ... ... ... : ... .. . ... ... ... : ... .. . ... : ... .. . ... : ... .. . ... ...
ROW 49 : ... .. . ... ... ... : ... .. . ... ... ... : ... .. . ... : ... .. . ... : ... .. . ... ...
ROW 4A : ... .. . ... ... ... : ... .. . ... ... ... : ... .. . ... : ... .. . ... : ... .. . ... ...
ROW 4B : ... .. 6 ... ... ... : ... .. . P80 ... ... : ... .. . ... : ... .. . ... : ... .. . ... ...
ROW 4C : ... .. . ... ... ... : ... .. . ... ... ... : --- .. . ... : ... .. . ... : ... .. . ... ...
ROW 4D : ... .. . ... ... ... : ... .. . ... ... ... : ... .. . ... : ... .. . ... : ... .. . ... ...
ROW 4E : A#1 00 4 ... ... ... : ... .. . ... ... ... : A#2 00 . ... : ... .. C ... : ... .. . ... ...
ROW 4F : ... .. 5 ... ... ... : ... .. . P7E ... ... : ... .. . ... : ... .. 0 ... : ... .. . ... ...
ROW 50 : ... .. 6 ... ... ... : ... .. . ... ... ... : ... .. . ... : ... .. . ... : ... .. . ... ...
ROW 51 : ... .. . ... ... ... : ... .. . ... ... ... : ... .. . ... : ... .. . ... : ... .. . ... ...
ROW 52 : ... .. 7 ... ... ... : ... .. . ... ... ... : ... .. . ... : ... .. . ... : ... .. . ... ...
ROW 53 : ... .. . ... ... ... : ... .. . P80 ... ... : ... .. . ... : ... .. . ... : ... .. . ... ...
ROW 54 : ... .. . ... ... ... : ... .. . ... ... ... : ... .. . ... : ... .. . ... : ... .. . ... ...
ROW 55 : ... .. 6 ... ... ... : ... .. . ... ... ... : ... .. . ... : ... .. . ... : ... .. . ... ...
ROW 56 : ... .. . ... ... ... : ... .. . ... ... ... : --- .. . ... : ... .. . ... : ... .. . ... ...
ROW 57 : ... .. . ... ... ... : ... .. . P7E ... ... : ... .. . ... : ... .. . ... : ... .. . ... ...
ROW 58 : F-2 00 4 ... ... ... : ... .. . ... ... ... : A#2 00 . ... : ... .. C ... : ... .. . ... ...
ROW 59 : ... .. 5 ... ... ... : ... .. . ... ... ... : ... .. . ... : ... .. 0 ... : ... .. . ... ...
ROW 5A : ... .. 6 ... ... ... : ... .. . ... ... ... : ... .. . ... : ... .. . ... : ... .. . ... ...
ROW 5B : ... .. . ... ... ... : ... .. . P80 ... ... : ... .. . ... : ... .. . ... : ... .. . ... ...
ROW 5C : ... .. 7 ... ... ... : ... .. . ... ... ... : ... .. . ... : ... .. . ... : ... .. . ... ...
ROW 5D : ... .. . ... ... ... : ... .. . ... ... ... : ... .. . ... : ... .. . ... : ... .. . ... ...
ROW 5E : ... .. . ... ... ... : ... .. . ... ... ... : ... .. . ... : ... .. . ... : ... .. . ... ...
ROW 5F : ... .. 6 ... ... ... : ... .. . P7E ... ... : ... .. . ... : ... .. . ... : ... .. . ... ...
ROW 60 : ... .. . ... ... ... : ... .. . ... ... ... : --- .. . ... : ... .. . ... : ... .. . ... ...
ROW 61 : ... .. . ... ... ... : ... .. . ... ... ... : ... .. . ... : ... .. . ... : ... .. . ... ...
ROW 62 : A#1 00 4 ... ... ... : ... .. . ... ... ... : ... .. . ... : ... .. . ... : ... .. . ... ...
ROW 63 : ... .. 5 ... ... ... : ... .. . P80 ... ... : ... .. . ... : ... .. . ... : ... .. . ... ...
ROW 64 : ... .. 6 ... ... ... : ... .. . ... ... ... : ... .. . ... : ... .. . ... : ... .. . ... ...
ROW 65 : ... .. . ... ... ... : ... .. . ... ... ... : ... .. . ... : ... .. . ... : ... .. . ... ...
ROW 66 : ... .. 7 ... ... ... : ... .. . ... ... ... : ... .. . ... : ... .. . ... : ... .. . ... ...
ROW 67 : ... .. . ... ... ... : ... .. . P7E ... ... : ... .. . P7F : ... .. . ... : ... .. . ... ...
ROW 68 : ... .. . ... ... ... : ... .. . ... ... ... : ... .. . ... : ... .. . ... : ... .. . ... ...
ROW 69 : ... .. 6 ... ... ... : ... .. . ... ... ... : ... .. . ... : ... .. . ... : ... .. . ... ...
ROW 6A : ... .. . ... ... ... : ... .. . ... ... ... : ... .. . ... : ... .. . ... : ... .. . ... ...
ROW 6B : ... .. . ... ... ... : ... .. . P80 ... ... : ... .. . P81 : ... .. . ... : ... .. . ... ...
ROW 6C : F-2 00 4 ... ... ... : ... .. . ... ... ... : A#2 00 . P80 : ... .. C ... : ... .. . ... ...
ROW 6D : ... .. 5 ... ... ... : ... .. . ... ... ... : ... .. . ... : ... .. 0 ... : ... .. . ... ...
ROW 6E : ... .. 6 ... ... ... : ... .. . ... ... ... : ... .. . ... : ... .. . ... : ... .. . ... ...
ROW 6F : ... .. . ... ... ... : ... .. . P7E ... ... : ... .. . ... : ... .. . ... : ... .. . ... ...
ROW 70 : ... .. 7 ... ... ... : ... .. . ... ... ... : ... .. . ... : ... .. . ... : ... .. . ... ...
ROW 71 : ... .. . ... ... ... : ... .. . ... ... ... : ... .. . ... : ... .. . ... : ... .. . ... ...
ROW 72 : ... .. . ... ... ... : ... .. . ... ... ... : ... .. . ... : ... .. . ... : ... .. . ... ...
ROW 73 : ... .. 6 ... ... ... : ... .. . P80 ... ... : ... .. . ... : ... .. . ... : ... .. . ... ...
ROW 74 : ... .. . ... ... ... : ... .. . ... ... ... : --- .. . ... : ... .. . ... : ... .. . ... ...
ROW 75 : ... .. . ... ... ... : ... .. . ... ... ... : ... .. . ... : ... .. . ... : ... .. . ... ...
ROW 76 : A#1 00 4 ... ... ... : ... .. . ... ... ... : A#2 00 . ... : ... .. C ... : ... .. . ... ...
ROW 77 : ... .. 5 ... ... ... : ... .. . P7E ... ... : ... .. . ... : ... .. 0 ... : ... .. . ... ...
ROW 78 : ... .. 6 ... ... ... : ... .. . ... ... ... : ... .. . ... : ... .. . ... : ... .. . ... ...
ROW 79 : ... .. . ... ... ... : ... .. . ... ... ... : ... .. . ... : ... .. . ... : ... .. . ... ...
ROW 7A : ... .. 7 ... ... ... : ... .. . ... ... ... : ... .. . ... : ... .. . ... : ... .. . ... ...
ROW 7B : ... .. . ... ... ... : ... .. . P80 ... ... : ... .. . ... : ... .. . ... : ... .. . ... ...
ROW 7C : ... .. . ... ... ... : ... .. . ... ... ... : ... .. . ... : ... .. . ... : ... .. . ... ...
ROW 7D : ... .. 6 ... ... ... : ... .. . ... ... ... : ... .. . ... : ... .. . ... : ... .. . ... ...
ROW 7E : ... .. . ... ... ... : ... .. . ... ... ... : --- .. . ... : ... .. . ... : ... .. . ... ...
ROW 7F : ... .. . ... ... ... : ... .. . P7E ... ... : ... .. . ... : ... .. . ... : ... .. . ... ...
ROW 80 : F-2 00 4 ... ... ... : A#3 00 4 P80 ... ... : A#2 00 . ... : ... .. C ... : ... .. . ... ...
ROW 81 : ... .. 5 ... ... ... : ... .. 5 ... ... ... : ... .. . ... : ... .. 0 ... : ... .. . ... ...
ROW 82 : ... .. 6 ... ... ... : ... .. 6 ... ... ... : ... .. . ... : ... .. . ... : ... .. . ... ...
ROW 83 : ... .. . ... ... ... : ... .. . ... ... ... : ... .. . ... : ... .. . ... : ... .. . ... ...
ROW 84 : ... .. 7 ... ... ... : ... .. 7 ... ... ... : ... .. . ... : ... .. . ... : ... .. . ... ...
ROW 85 : ... .. . ... ... ... : ... .. . ... ... ... : ... .. . ... : ... .. . ... : ... .. . ... ...
ROW 86 : ... .. . ... ... ... : ... .. . ... ... ... : ... .. . ... : ... .. . ... : ... .. . ... ...
ROW 87 : ... .. 6 ... ... ... : ... .. 6 ... ... ... : ... .. . ... : ... .. . ... : ... .. . ... ...
ROW 88 : ... .. . ... ... ... : ... .. . ... ... ... : --- .. . ... : ... .. . ... : ... .. . ... ...
ROW 89 : ... .. . ... ... ... : ... .. . ... ... ... : ... .. . ... : ... .. . ... : ... .. . ... ...
ROW 8A : ... .. . ... ... ... : ... .. . ... ... ... : ... .. . ... : ... .. . ... : ... .. . ... ...
ROW 8B : ... .. 5 ... ... ... : ... .. 5 ... ... ... : ... .. . ... : ... .. . ... : ... .. . ... ...
ROW 8C : ... .. . ... ... ... : ... .. . ... ... ... : ... .. . ... : ... .. . ... : ... .. . ... ...
ROW 8D : ... .. . ... ... ... : ... .. . ... ... ... : ... .. . ... : ... .. . ... : ... .. . ... ...
ROW 8E : ... .. . ... ... ... : ... .. . ... ... ... : ... .. . ... : ... .. . ... : ... .. . ... ...
ROW 8F : ... .. 4 P7F ... ... : ... .. 4 P7F ... ... : ... .. . P7F : ... .. . ... : ... .. . ... ...
ROW 90 : ... .. . ... ... ... : ... .. . ... ... ... : ... .. . ... : ... .. . ... : ... .. . ... ...
ROW 91 : ... .. . ... ... ... : ... .. . ... ... ... : ... .. . ... : ... .. . ... : ... .. . ... ...
ROW 92 : ... .. . ... ... ... : ... .. . ... ... ... : ... .. . ... : ... .. . ... : ... .. . ... ...
ROW 93 : ... .. . P81 ... ... : ... .. . P81 ... ... : ... .. . P81 : ... .. . ... : ... .. . ... ...
ROW 94 : ... .. . P80 ... ... : ... .. . ... ... ... : A#2 00 . P80 : ... .. C ... : ... .. . ... ...
ROW 95 : ... .. 5 ... ... ... : ... .. . ... ... ... : ... .. . ... : ... .. 0 ... : ... .. . ... ...
ROW 96 : ... .. 6 ... ... ... : ... .. . ... ... ... : ... .. . ... : ... .. . ... : ... .. . ... ...
ROW 97 : ... .. . ... ... ... : ... .. . P7F ... ... : ... .. . ... : ... .. . ... : ... .. . ... ...
ROW 98 : ... .. 7 ... ... ... : ... .. . ... ... ... : ... .. . ... : ... .. . ... : ... .. . ... ...
ROW 99 : ... .. . ... ... ... : ... .. 3 ... ... ... : ... .. . ... : ... .. . ... : ... .. . ... ...
ROW 9A : ... .. . ... ... ... : ... .. . ... ... ... : ... .. . ... : ... .. . ... : ... .. . ... ...
ROW 9B : ... .. 6 ... ... ... : ... .. . P81 ... ... : ... .. . ... : ... .. . ... : ... .. . ... ...
ROW 9C : ... .. . ... ... ... : ... .. . ... ... ... : --- .. . ... : ... .. . ... : ... .. . ... ...
ROW 9D : ... .. . ... ... ... : ... .. . ... ... ... : ... .. . ... : ... .. . ... : ... .. . ... ...
ROW 9E : A#1 00 4 ... ... ... : ... .. 2 ... ... ... : A#2 00 . ... : ... .. C ... : ... .. . ... ...
ROW 9F : ... .. 5 ... ... ... : ... .. . P7F ... ... : ... .. . ... : ... .. 0 ... : ... .. . ... ...
ROW A0 : ... .. 6 ... ... ... : ... .. 0 ... ... ... : ... .. . ... : ... .. . ... : ... .. . ... ...
ROW A1 : ... .. . ... ... ... : ... .. . ... ... ... : ... .. . ... : ... .. . ... : ... .. . ... ...
ROW A2 : ... .. 7 ... ... ... : ... .. . ... ... ... : ... .. . ... : ... .. . ... : ... .. . ... ...
ROW A3 : ... .. . ... ... ... : ... .. . P81 ... ... : ... .. . ... : ... .. . ... : ... .. . ... ...
ROW A4 : ... .. . ... ... ... : ... .. . ... ... ... : ... .. . ... : ... .. . ... : ... .. . ... ...
ROW A5 : ... .. 6 ... ... ... : ... .. . ... ... ... : ... .. . ... : ... .. . ... : ... .. . ... ...
ROW A6 : ... .. . ... ... ... : ... .. . ... ... ... : --- .. . ... : ... .. . ... : ... .. . ... ...
ROW A7 : ... .. . ... ... ... : ... .. . P7F ... ... : ... .. . ... : ... .. . ... : ... .. . ... ...
ROW A8 : F-2 00 4 ... ... ... : F-3 00 4 ... ... ... : A#2 00 . ... : ... .. C ... : ... .. . ... ...
ROW A9 : ... .. 5 ... ... ... : ... .. 5 ... ... ... : ... .. . ... : ... .. 0 ... : ... .. . ... ...
ROW AA : ... .. 6 ... ... ... : ... .. 6 ... ... ... : ... .. . ... : ... .. . ... : ... .. . ... ...
ROW AB : ... .. . ... ... ... : ... .. . ... ... ... : ... .. . ... : ... .. . ... : ... .. . ... ...
ROW AC : ... .. 7 ... ... ... : ... .. 7 ... ... ... : ... .. . ... : ... .. . ... : ... .. . ... ...
ROW AD : ... .. . ... ... ... : ... .. . ... ... ... : ... .. . ... : ... .. . ... : ... .. . ... ...
ROW AE : ... .. . ... ... ... : ... .. . ... ... ... : ... .. . ... : ... .. . ... : ... .. . ... ...
ROW AF : ... .. 6 ... ... ... : ... .. 6 ... ... ... : ... .. . ... : ... .. . ... : ... .. . ... ...
ROW B0 : ... .. . ... ... ... : ... .. . ... ... ... : --- .. . ... : ... .. . ... : ... .. . ... ...
ROW B1 : ... .. . ... ... ... : ... .. . ... ... ... : ... .. . ... : ... .. . ... : ... .. . ... ...
ROW B2 : ... .. . ... ... ... : ... .. . ... ... ... : ... .. . ... : ... .. . ... : ... .. . ... ...
ROW B3 : ... .. 5 ... ... ... : ... .. 5 ... ... ... : ... .. . ... : ... .. . ... : ... .. . ... ...
ROW B4 : ... .. . ... ... ... : ... .. . ... ... ... : ... .. . ... : ... .. . ... : ... .. . ... ...
ROW B5 : ... .. . ... ... ... : ... .. . ... ... ... : ... .. . ... : ... .. . ... : ... .. . ... ...
ROW B6 : ... .. . ... ... ... : ... .. . ... ... ... : ... .. . ... : ... .. . ... : ... .. . ... ...
ROW B7 : ... .. 4 P7F ... ... : ... .. 4 P7E ... ... : ... .. . P7F : ... .. . ... : ... .. . ... ...
ROW B8 : ... .. . ... ... ... : ... .. . ... ... ... : ... .. . ... : ... .. . ... : ... .. . ... ...
ROW B9 : ... .. . ... ... ... : ... .. . ... ... ... : ... .. . ... : ... .. . ... : ... .. . ... ...
ROW BA : ... .. . ... ... ... : ... .. . ... ... ... : ... .. . ... : ... .. . ... : ... .. . ... ...
ROW BB : ... .. . P81 ... ... : ... .. . P80 ... ... : ... .. . P81 : ... .. . ... : ... .. . ... ...
ROW BC : ... .. . P80 ... ... : ... .. . ... ... ... : A#2 00 . P80 : ... .. C ... : ... .. . ... ...
ROW BD : ... .. 5 ... ... ... : ... .. . ... ... ... : ... .. . ... : ... .. 0 ... : ... .. . ... ...
ROW BE : ... .. 6 ... ... ... : ... .. . ... ... ... : ... .. . ... : ... .. . ... : ... .. . ... ...
ROW BF : ... .. . ... ... ... : ... .. . P7E ... ... : ... .. . ... : ... .. . ... : ... .. . ... ...
ROW C0 : ... .. 7 ... ... ... : ... .. . ... ... ... : ... .. . ... : ... .. . ... : ... .. . ... ...
ROW C1 : ... .. . ... ... ... : ... .. 3 ... ... ... : ... .. . ... : ... .. . ... : ... .. . ... ...
ROW C2 : ... .. . ... ... ... : ... .. . ... ... ... : ... .. . ... : ... .. . ... : ... .. . ... ...
ROW C3 : ... .. 6 ... ... ... : ... .. . P80 ... ... : ... .. . ... : ... .. . ... : ... .. . ... ...
ROW C4 : ... .. . ... ... ... : ... .. . ... ... ... : --- .. . ... : ... .. . ... : ... .. . ... ...
ROW C5 : ... .. . ... ... ... : ... .. . ... ... ... : ... .. . ... : ... .. . ... : ... .. . ... ...
ROW C6 : A#1 00 4 ... ... ... : ... .. 2 ... ... ... : A#2 00 . ... : ... .. C ... : ... .. . ... ...
ROW C7 : ... .. 5 ... ... ... : ... .. . P7E ... ... : ... .. . ... : ... .. 0 ... : ... .. . ... ...
ROW C8 : ... .. 6 ... ... ... : ... .. 0 ... ... ... : ... .. . ... : ... .. . ... : ... .. . ... ...
ROW C9 : ... .. . ... ... ... : ... .. . ... ... ... : ... .. . ... : ... .. . ... : ... .. . ... ...
ROW CA : ... .. 7 ... ... ... : ... .. . ... ... ... : ... .. . ... : ... .. . ... : ... .. . ... ...
ROW CB : ... .. . ... ... ... : ... .. . P80 ... ... : ... .. . ... : ... .. . ... : ... .. . ... ...
ROW CC : ... .. . ... ... ... : ... .. . ... ... ... : ... .. . ... : ... .. . ... : ... .. . ... ...
ROW CD : ... .. 6 ... ... ... : ... .. . ... ... ... : ... .. . ... : ... .. . ... : ... .. . ... ...
ROW CE : ... .. . ... ... ... : ... .. . ... ... ... : --- .. . ... : ... .. . ... : ... .. . ... ...
ROW CF : ... .. . ... ... ... : ... .. . P7E ... ... : ... .. . ... : ... .. . ... : ... .. . ... ...
ROW D0 : F-2 00 4 ... ... ... : ... .. . ... ... ... : A#2 00 . ... : ... .. C ... : ... .. . ... ...
ROW D1 : ... .. 5 ... ... ... : ... .. . ... ... ... : ... .. . ... : ... .. 0 ... : ... .. . ... ...
ROW D2 : ... .. 6 ... ... ... : ... .. . ... ... ... : ... .. . ... : ... .. . ... : ... .. . ... ...
ROW D3 : ... .. . ... ... ... : ... .. . P80 ... ... : ... .. . ... : ... .. . ... : ... .. . ... ...
ROW D4 : ... .. 7 ... ... ... : ... .. . ... ... ... : ... .. . ... : ... .. . ... : ... .. . ... ...
ROW D5 : ... .. . ... ... ... : ... .. . ... ... ... : ... .. . ... : ... .. . ... : ... .. . ... ...
ROW D6 : ... .. . ... ... ... : ... .. . ... ... ... : ... .. . ... : ... .. . ... : ... .. . ... ...
ROW D7 : ... .. 6 ... ... ... : ... .. . P7E ... ... : ... .. . ... : ... .. . ... : ... .. . ... ...
ROW D8 : ... .. . ... ... ... : ... .. . ... ... ... : --- .. . ... : ... .. . ... : ... .. . ... ...
ROW D9 : ... .. . ... ... ... : ... .. . ... ... ... : ... .. . ... : ... .. . ... : ... .. . ... ...
ROW DA : ... .. . ... ... ... : ... .. . ... ... ... : ... .. . ... : ... .. . ... : ... .. . ... ...
ROW DB : ... .. 5 ... ... ... : ... .. . P80 ... ... : ... .. . ... : ... .. . ... : ... .. . ... ...
ROW DC : ... .. . ... ... ... : ... .. . ... ... ... : ... .. . ... : ... .. . ... : ... .. . ... ...
ROW DD : ... .. . ... ... ... : ... .. . ... ... ... : ... .. . ... : ... .. . ... : ... .. . ... ...
ROW DE : ... .. . ... ... ... : ... .. . ... ... ... : ... .. . ... : ... .. . ... : ... .. . ... ...
ROW DF : ... .. 4 P7F ... ... : ... .. . P7E ... ... : ... .. . P7F : ... .. . ... : ... .. . ... ...
ROW E0 : ... .. . ... ... ... : ... .. . ... ... ... : ... .. . ... : ... .. . ... : ... .. . ... ...
ROW E1 : ... .. . ... ... ... : ... .. . ... ... ... : ... .. . ... : ... .. . ... : ... .. . ... ...
ROW E2 : ... .. . ... ... ... : ... .. . ... ... ... : ... .. . ... : ... .. . ... : ... .. . ... ...
ROW E3 : ... .. . P81 ... ... : ... .. . P80 ... ... : ... .. . P81 : ... .. . ... : ... .. . ... ...
ROW E4 : ... .. . P80 ... ... : A#3 00 4 ... ... ... : A#2 00 . P80 : ... .. C ... : ... .. . ... ...
ROW E5 : ... .. 5 ... ... ... : ... .. 5 ... ... ... : ... .. . ... : ... .. 0 ... : ... .. . ... ...
ROW E6 : ... .. 6 ... ... ... : ... .. 6 ... ... ... : ... .. . ... : ... .. . ... : ... .. . ... ...
ROW E7 : ... .. . ... ... ... : ... .. . ... ... ... : ... .. . ... : ... .. . ... : ... .. . ... ...
ROW E8 : ... .. 7 ... ... ... : ... .. 7 ... ... ... : ... .. . ... : ... .. . ... : ... .. . ... ...
ROW E9 : ... .. . ... ... ... : ... .. . ... ... ... : ... .. . ... : ... .. . ... : ... .. . ... ...
ROW EA : ... .. . ... ... ... : ... .. . ... ... ... : ... .. . ... : ... .. . ... : ... .. . ... ...
ROW EB : ... .. 6 ... ... ... : ... .. 6 ... ... ... : ... .. . ... : ... .. . ... : ... .. . ... ...
ROW EC : ... .. . ... ... ... : ... .. . ... ... ... : --- .. . ... : ... .. . ... : ... .. . ... ...
ROW ED : ... .. . ... ... ... : ... .. . ... ... ... : ... .. . ... : ... .. . ... : ... .. . ... ...
ROW EE : A#1 00 4 ... ... ... : ... .. . ... ... ... : A#2 00 . ... : ... .. C ... : ... .. . ... ...
ROW EF : ... .. 5 ... ... ... : ... .. 5 ... ... ... : ... .. . ... : ... .. 0 ... : ... .. . ... ...
ROW F0 : ... .. 6 ... ... ... : ... .. . ... ... ... : ... .. . ... : ... .. . ... : ... .. . ... ...
ROW F1 : ... .. . ... ... ... : ... .. . ... ... ... : ... .. . ... : ... .. . ... : ... .. . ... ...
ROW F2 : ... .. 7 ... ... ... : ... .. . ... ... ... : ... .. . ... : ... .. . ... : ... .. . ... ...
ROW F3 : ... .. . ... ... ... : ... .. 4 P7F ... ... : ... .. . ... : ... .. . ... : ... .. . ... ...
ROW F4 : ... .. . ... ... ... : ... .. . ... ... ... : ... .. . ... : ... .. . ... : ... .. . ... ...
ROW F5 : ... .. 6 ... ... ... : ... .. . ... ... ... : ... .. . ... : ... .. . ... : ... .. . ... ...
ROW F6 : ... .. . ... ... ... : ... .. . ... ... ... : --- .. . ... : ... .. . ... : ... .. . ... ...
ROW F7 : ... .. . ... ... ... : ... .. . P81 ... ... : ... .. . ... : ... .. . ... : ... .. . ... ...
ROW F8 : F-2 00 4 ... ... ... : ... .. . P80 ... ... : A#2 00 . ... : ... .. C ... : ... .. . ... ...
ROW F9 : ... .. 5 ... ... ... : ... .. 5 ... ... ... : ... .. . ... : ... .. 0 ... : ... .. . ... ...
ROW FA : ... .. 6 ... ... ... : ... .. 6 ... ... ... : ... .. . ... : ... .. . ... : ... .. . ... ...
ROW FB : ... .. . ... ... ... : ... .. . ... ... ... : ... .. . ... : ... .. . ... : ... .. . ... ...
ROW FC : ... .. 7 ... ... ... : ... .. 7 ... ... ... : ... .. . ... : ... .. . ... : ... .. . ... ...
ROW FD : ... .. . ... ... ... : ... .. . ... ... ... : ... .. . ... : ... .. . ... : ... .. . ... ...
ROW FE : ... .. . ... ... ... : ... .. . ... ... ... : ... .. . ... : ... .. . ... : ... .. . ... ...
ROW FF : ... .. 6 ... ... ... : ... .. 6 ... ... ... : ... .. . ... : ... .. . ... : ... .. . ... ...

PATTERN 17
ROW 00 : ... .. . ... ... ... : ... .. . ... ... ... : --- .. . ... : ... .. . ... : ... .. . ... ...
ROW 01 : ... .. . ... ... ... : ... .. . ... ... ... : ... .. . ... : ... .. . ... : ... .. . ... ...
ROW 02 : A#1 00 4 ... ... ... : C-4 00 4 ... ... ... : ... .. . ... : ... .. . ... : ... .. . ... ...
ROW 03 : ... .. 5 ... ... ... : ... .. 5 ... ... ... : ... .. . ... : ... .. . ... : ... .. . ... ...
ROW 04 : ... .. 6 ... ... ... : ... .. 6 ... ... ... : ... .. . ... : ... .. . ... : ... .. . ... ...
ROW 05 : ... .. . ... ... ... : ... .. . ... ... ... : ... .. . ... : ... .. . ... : ... .. . ... ...
ROW 06 : ... .. 7 ... ... ... : ... .. 7 ... ... ... : ... .. . ... : ... .. . ... : ... .. . ... ...
ROW 07 : ... .. . ... ... ... : ... .. . ... ... ... : ... .. . P7F : ... .. . ... : ... .. . ... ...
ROW 08 : ... .. . ... ... ... : ... .. . ... ... ... : ... .. . ... : ... .. . ... : ... .. . ... ...
ROW 09 : ... .. 6 ... ... ... : ... .. 6 ... ... ... : ... .. . ... : ... .. . ... : ... .. . ... ...
ROW 0A : ... .. . ... ... ... : ... .. . ... ... ... : ... .. . ... : ... .. . ... : ... .. . ... ...
ROW 0B : ... .. . ... ... ... : ... .. . ... ... ... : ... .. . P81 : ... .. . ... : ... .. . ... ...
ROW 0C : F-2 00 4 ... ... ... : D-4 00 4 P7F ... ... : A#2 00 . P80 : ... .. C ... : ... .. . ... ...
ROW 0D : ... .. 5 ... ... ... : ... .. 5 ... ... ... : ... .. . ... : ... .. 0 ... : ... .. . ... ...
ROW 0E : ... .. 6 ... ... ... : ... .. 6 ... ... ... : ... .. . ... : ... .. . ... : ... .. . ... ...
ROW 0F : ... .. . ... ... ... : ... .. . ... ... ... : ... .. . ... : ... .. . ... : ... .. . ... ...
ROW 10 : ... .. 7 ... ... ... : ... .. 7 ... ... ... : ... .. . ... : ... .. . ... : ... .. . ... ...
ROW 11 : ... .. . ... ... ... : ... .. . ... ... ... : ... .. . ... : ... .. . ... : ... .. . ... ...
ROW 12 : ... .. . ... ... ... : ... .. . ... ... ... : ... .. . ... : ... .. . ... : ... .. . ... ...
ROW 13 : ... .. 6 ... ... ... : ... .. 6 ... ... ... : ... .. . ... : ... .. . ... : ... .. . ... ...
ROW 14 : ... .. . ... ... ... : ... .. . ... ... ... : --- .. . ... : ... .. . ... : ... .. . ... ...
ROW 15 : ... .. . ... ... ... : ... .. . ... ... ... : ... .. . ... : ... .. . ... : ... .. . ... ...
ROW 16 : A#1 00 4 ... ... ... : D#4 00 4 P80 ... ... : A#2 00 . ... : ... .. C ... : ... .. . ... ...
ROW 17 : ... .. 5 ... ... ... : ... .. 5 ... ... ... : ... .. . ... : ... .. 0 ... : ... .. . ... ...
ROW 18 : ... .. 6 ... ... ... : ... .. 6 ... ... ... : ... .. . ... : ... .. . ... : ... .. . ... ...
ROW 19 : ... .. . ... ... ... : ... .. . ... ... ... : ... .. . ... : ... .. . ... : ... .. . ... ...
ROW 1A : ... .. 7 ... ... ... : ... .. 7 ... ... ... : ... .. . ... : ... .. . ... : ... .. . ... ...
ROW 1B : ... .. . ... ... ... : ... .. . ... ... ... : ... .. . ... : ... .. . ... : ... .. . ... ...
ROW 1C : ... .. . ... ... ... : ... .. . ... ... ... : ... .. . ... : ... .. . ... : ... .. . ... ...
ROW 1D : ... .. 6 ... ... ... : ... .. 6 ... ... ... : ... .. . ... : ... .. . ... : ... .. . ... ...
ROW 1E : ... .. . ... ... ... : ... .. . ... ... ... : --- .. . ... : ... .. . ... : ... .. . ... ...
ROW 1F : ... .. . ... ... ... : ... .. . ... ... ... : ... .. . ... : ... .. . ... : ... .. . ... ...
ROW 20 : D#2 00 4 P7F ... ... : F-4 00 4 P7F ... ... : G#2 00 . ... : ... .. C ... : ... .. . ... ...
ROW 21 : ... .. 5 ... ... ... : ... .. 5 ... ... ... : ... .. . ... : ... .. 0 ... : ... .. . ... ...
ROW 22 : ... .. 6 ... ... ... : ... .. 6 ... ... ... : ... .. . ... : ... .. . ... : ... .. . ... ...
ROW 23 : ... .. . ... ... ... : ... .. . ... ... ... : ... .. . ... : ... .. . ... : ... .. . ... ...
ROW 24 : ... .. 7 ... ... ... : ... .. 7 ... ... ... : ... .. . ... : ... .. . ... : ... .. . ... ...
ROW 25 : ... .. . ... ... ... : ... .. . ... ... ... : ... .. . ... : ... .. . ... : ... .. . ... ...
ROW 26 : ... .. . ... ... ... : ... .. . ... ... ... : ... .. . ... : ... .. . ... : ... .. . ... ...
ROW 27 : ... .. 6 ... ... ... : ... .. 6 ... ... ... : ... .. . ... : ... .. . ... : ... .. . ... ...
ROW 28 : ... .. . ... ... ... : ... .. . ... ... ... : --- .. . ... : ... .. . ... : ... .. . ... ...
ROW 29 : ... .. . ... ... ... : ... .. . ... ... ... : ... .. . ... : ... .. . ... : ... .. . ... ...
ROW 2A : ... .. . ... ... ... : ... .. . ... ... ... : ... .. . ... : ... .. . ... : ... .. . ... ...
ROW 2B : ... .. 5 ... ... ... : ... .. 5 ... ... ... : ... .. . ... : ... .. . ... : ... .. . ... ...
ROW 2C : ... .. . ... ... ... : ... .. . ... ... ... : ... .. . ... : ... .. . ... : ... .. . ... ...
ROW 2D : ... .. . ... ... ... : ... .. . ... ... ... : ... .. . ... : ... .. . ... : ... .. . ... ...
ROW 2E : ... .. . ... ... ... : ... .. . ... ... ... : ... .. . ... : ... .. . ... : ... .. . ... ...
ROW 2F : ... .. 4 P7E ... ... : ... .. 4 P7E ... ... : ... .. . P7F : ... .. . ... : ... .. . ... ...
ROW 30 : ... .. . ... ... ... : ... .. . ... ... ... : ... .. . ... : ... .. . ... : ... .. . ... ...
ROW 31 : ... .. . ... ... ... : ... .. . ... ... ... : ... .. . ... : ... .. . ... : ... .. . ... ...
ROW 32 : ... .. . ... ... ... : ... .. . ... ... ... : ... .. . ... : ... .. . ... : ... .. . ... ...
ROW 33 : ... .. . P80 ... ... : ... .. . P80 ... ... : ... .. . P81 : ... .. . ... : ... .. . ... ...
ROW 34 : A#2 00 4 ... ... ... : ... .. . ... ... ... : G#2 00 . P80 : ... .. C ... : ... .. . ... ...
ROW 35 : ... .. 5 ... ... ... : ... .. . ... ... ... : ... .. . ... : ... .. 0 ... : ... .. . ... ...
ROW 36 : ... .. 6 ... ... ... : ... .. . ... ... ... : ... .. . ... : ... .. . ... : ... .. . ... ...
ROW 37 : ... .. . ... ... ... : ... .. . P7E ... ... : ... .. . ... : ... .. . ... : ... .. . ... ...
ROW 38 : ... .. 7 ... ... ... : ... .. . ... ... ... : ... .. . ... : ... .. . ... : ... .. . ... ...
ROW 39 : ... .. . ... ... ... : ... .. 3 ... ... ... : ... .. . ... : ... .. . ... : ... .. . ... ...
ROW 3A : ... .. . ... ... ... : ... .. . ... ... ... : ... .. . ... : ... .. . ... : ... .. . ... ...
ROW 3B : ... .. 6 ... ... ... : ... .. . P80 ... ... : ... .. . ... : ... .. . ... : ... .. . ... ...
ROW 3C : ... .. . ... ... ... : ... .. . ... ... ... : --- .. . ... : ... .. . ... : ... .. . ... ...
ROW 3D : ... .. . ... ... ... : ... .. . ... ... ... : ... .. . ... : ... .. . ... : ... .. . ... ...
ROW 3E : ... .. . ... ... ... : ... .. 2 ... ... ... : G#2 00 . ... : ... .. C ... : ... .. . ... ...
ROW 3F : ... .. 5 ... ... ... : ... .. . P7E ... ... : ... .. . ... : ... .. 0 ... : ... .. . ... ...
ROW 40 : ... .. . ... ... ... : ... .. 0 ... ... ... : ... .. . ... : ... .. . ... : ... .. . ... ...
ROW 41 : ... .. . ... ... ... : ... .. . ... ... ... : ... .. . ... : ... .. . ... : ... .. . ... ...
ROW 42 : ... .. . ... ... ... : ... .. . ... ... ... : ... .. . ... : ... .. . ... : ... .. . ... ...
ROW 43 : ... .. 4 P7F ... ... : ... .. . P80 ... ... : ... .. . ... : ... .. . ... : ... .. . ... ...
ROW 44 : ... .. . ... ... ... : ... .. . ... ... ... : ... .. . ... : ... .. . ... : ... .. . ... ...
ROW 45 : ... .. . ... ... ... : ... .. . ... ... ... : ... .. . ... : ... .. . ... : ... .. . ... ...
ROW 46 : ... .. . ... ... ... : ... .. . ... ... ... : --- .. . ... : ... .. . ... : ... .. . ... ...
ROW 47 : ... .. . P81 ... ... : ... .. . P7E ... ... : ... .. . ... : ... .. . ... : ... .. . ... ...
ROW 48 : ... .. . P80 ... ... : ... .. . ... ... ... : G#2 00 . ... : ... .. C ... : ... .. . ... ...
ROW 49 : ... .. 5 ... ... ... : ... .. . ... ... ... : ... .. . ... : ... .. 0 ... : ... .. . ... ...
ROW 4A : ... .. 6 ... ... ... : ... .. . ... ... ... : ... .. . ... : ... .. . ... : ... .. . ... ...
ROW 4B : ... .. . ... ... ... : ... .. . P80 ... ... : ... .. . ... : ... .. . ... : ... .. . ... ...
ROW 4C : ... .. 7 ... ... ... : ... .. . ... ... ... : ... .. . ... : ... .. . ... : ... .. . ... ...
ROW 4D : ... .. . ... ... ... : ... .. . ... ... ... : ... .. . ... : ... .. . ... : ... .. . ... ...
ROW 4E : ... .. . ... ... ... : ... .. . ... ... ... : ... .. . ... : ... .. . ... : ... .. . ... ...
ROW 4F : ... .. 6 ... ... ... : ... .. . P7E ... ... : ... .. . ... : ... .. . ... : ... .. . ... ...
ROW 50 : ... .. . ... ... ... : ... .. . ... ... ... : --- .. . ... : ... .. . ... : ... .. . ... ...
ROW 51 : ... .. . ... ... ... : ... .. . ... ... ... : ... .. . ... : ... .. . ... : ... .. . ... ...
ROW 52 : C-3 00 4 ... ... ... : ... .. . ... ... ... : ... .. . ... : ... .. . ... : ... .. . ... ...
ROW 53 : ... .. 5 ... ... ... : ... .. . P80 ... ... : ... .. . ... : ... .. . ... : ... .. . ... ...
ROW 54 : ... .. 6 ... ... ... : ... .. . ... ... ... : ... .. . ... : ... .. . ... : ... .. . ... ...
ROW 55 : ... .. . ... ... ... : ... .. . ... ... ... : ... .. . ... : ... .. . ... : ... .. . ... ...
ROW 56 : ... .. 7 ... ... ... : ... .. . ... ... ... : ... .. . ... : ... .. . ... : ... .. . ... ...
ROW 57 : ... .. . ... ... ... : ... .. . P7E ... ... : ... .. . P7F : ... .. . ... : ... .. . ... ...
ROW 58 : ... .. . ... ... ... : ... .. . ... ... ... : ... .. . ... : ... .. . ... : ... .. . ... ...
ROW 59 : ... .. 6 ... ... ... : ... .. . ... ... ... : ... .. . ... : ... .. . ... : ... .. . ... ...
ROW 5A : ... .. . ... ... ... : ... .. . ... ... ... : ... .. . ... : ... .. . ... : ... .. . ... ...
ROW 5B : ... .. . ... ... ... : ... .. . P80 ... ... : ... .. . P81 : ... .. . ... : ... .. . ... ...
ROW 5C : D-3 00 4 ... ... ... : ... .. . ... ... ... : G#2 00 . P80 : ... .. C ... : ... .. . ... ...
ROW 5D : ... .. 5 ... ... ... : ... .. . ... ... ... : ... .. . ... : ... .. 0 ... : ... .. . ... ...
ROW 5E : ... .. 6 ... ... ... : ... .. . ... ... ... : ... .. . ... : ... .. . ... : ... .. . ... ...
ROW 5F : ... .. . ... ... ... : ... .. . P7E ... ... : ... .. . ... : ... .. . ... : ... .. . ... ...
ROW 60 : ... .. 7 ... ... ... : ... .. . ... ... ... : ... .. . ... : ... .. . ... : ... .. . ... ...
ROW 61 : ... .. . ... ... ... : ... .. . ... ... ... : ... .. . ... : ... .. . ... : ... .. . ... ...
ROW 62 : ... .. . ... ... ... : ... .. . ... ... ... : ... .. . ... : ... .. . ... : ... .. . ... ...
ROW 63 : ... .. 6 ... ... ... : ... .. . P80 ... ... : ... .. . ... : ... .. . ... : ... .. . ... ...
ROW 64 : ... .. . ... ... ... : ... .. . ... ... ... : --- .. . ... : ... .. . ... : ... .. . ... ...
ROW 65 : ... .. . ... ... ... : ... .. . ... ... ... : ... .. . ... : ... .. . ... : ... .. . ... ...
ROW 66 : D#3 00 4 ... ... ... : ... .. . ... ... ... : G#2 00 . ... : ... .. C ... : ... .. . ... ...
ROW 67 : ... .. 5 ... ... ... : ... .. . P7E ... ... : ... .. . ... : ... .. 0 ... : ... .. . ... ...
ROW 68 : ... .. 6 ... ... ... : ... .. . ... ... ... : ... .. . ... : ... .. . ... : ... .. . ... ...
ROW 69 : ... .. . ... ... ... : ... .. . ... ... ... : ... .. . ... : ... .. . ... : ... .. . ... ...
ROW 6A : ... .. 7 ... ... ... : ... .. . ... ... ... : ... .. . ... : ... .. . ... : ... .. . ... ...
ROW 6B : ... .. . ... ... ... : ... .. . P80 ... ... : ... .. . ... : ... .. . ... : ... .. . ... ...
ROW 6C : ... .. . ... ... ... : ... .. . ... ... ... : ... .. . ... : ... .. . ... : ... .. . ... ...
ROW 6D : ... .. 6 ... ... ... : ... .. . ... ... ... : ... .. . ... : ... .. . ... : ... .. . ... ...
ROW 6E : ... .. . ... ... ... : ... .. . ... ... ... : --- .. . ... : ... .. . ... : ... .. . ... ...
ROW 6F : ... .. . ... ... ... : ... .. . P7E ... ... : ... .. . ... : ... .. . ... : ... .. . ... ...
ROW 70 : F-3 00 4 P7F ... ... : ... .. . P7F ... ... : G#2 00 . ... : ... .. C ... : ... .. . ... ...
ROW 71 : ... .. 5 ... ... ... : ... .. . ... ... ... : ... .. . ... : ... .. 0 ... : ... .. . ... ...
ROW 72 : ... .. 6 ... ... ... : ... .. . ... ... ... : ... .. . ... : ... .. . ... : ... .. . ... ...
ROW 73 : ... .. . ... ... ... : ... .. . ... ... ... : ... .. . ... : ... .. . ... : ... .. . ... ...
ROW 74 : ... .. 7 ... ... ... : ... .. . ... ... ... : ... .. . ... : ... .. . ... : ... .. . ... ...
ROW 75 : ... .. . ... ... ... : ... .. . ... ... ... : ... .. . ... : ... .. . ... : ... .. . ... ...
ROW 76 : ... .. . ... ... ... : ... .. . ... ... ... : ... .. . ... : ... .. . ... : ... .. . ... ...
ROW 77 : ... .. 6 ... ... ... : ... .. . ... ... ... : ... .. . ... : ... .. . ... : ... .. . ... ...
ROW 78 : ... .. . ... ... ... : ... .. . ... ... ... : --- .. . ... : ... .. . ... : ... .. . ... ...
ROW 79 : ... .. . ... ... ... : ... .. . ... ... ... : ... .. . ... : ... .. . ... : ... .. . ... ...
ROW 7A : ... .. . ... ... ... : ... .. . ... ... ... : ... .. . ... : ... .. . ... : ... .. . ... ...
ROW 7B : ... .. 5 ... ... ... : ... .. . ... ... ... : ... .. . ... : ... .. . ... : ... .. . ... ...
ROW 7C : ... .. . ... ... ... : ... .. . ... ... ... : ... .. . ... : ... .. . ... : ... .. . ... ...
ROW 7D : ... .. . ... ... ... : ... .. . ... ... ... : ... .. . ... : ... .. . ... : ... .. . ... ...
ROW 7E : ... .. . ... ... ... : ... .. . ... ... ... : ... .. . ... : ... .. . ... : ... .. . ... ...
ROW 7F : ... .. 4 P7E ... ... : ... .. . P7E ... ... : ... .. . P7F : ... .. . ... : ... .. . ... ...
ROW 80 : ... .. . ... ... ... : ... .. . ... ... ... : ... .. . ... : ... .. . ... : ... .. . ... ...
ROW 81 : ... .. . ... ... ... : ... .. . ... ... ... : ... .. . ... : ... .. . ... : ... .. . ... ...
ROW 82 : ... .. . ... ... ... : ... .. . ... ... ... : ... .. . ... : ... .. . ... : ... .. . ... ...
ROW 83 : ... .. . P80 ... ... : ... .. . P80 ... ... : ... .. . P81 : ... .. . ... : ... .. . ... ...
ROW 84 : D#2 00 4 P7F ... ... : ... .. . ... ... ... : G#2 00 . P80 : ... .. C ... : ... .. . ... ...
ROW 85 : ... .. 5 ... ... ... : ... .. . ... ... ... : ... .. . ... : ... .. 0 ... : ... .. . ... ...
ROW 86 : ... .. 6 ... ... ... : ... .. . ... ... ... : ... .. . ... : ... .. . ... : ... .. . ... ...
ROW 87 : ... .. . ... ... ... : ... .. . P7E ... ... : ... .. . ... : ... .. . ... : ... .. . ... ...
ROW 88 : ... .. 7 ... ... ... : ... .. . ... ... ... : ... .. . ... : ... .. . ... : ... .. . ... ...
ROW 89 : ... .. . ... ... ... : ... .. . ... ... ... : ... .. . ... : ... .. . ... : ... .. . ... ...
ROW 8A : ... .. . ... ... ... : ... .. . ... ... ... : ... .. . ... : ... .. . ... : ... .. . ... ...
ROW 8B : ... .. 6 ... ... ... : ... .. . P80 ... ... : ... .. . ... : ... .. . ... : ... .. . ... ...
ROW 8C : ... .. . ... ... ... : ... .. . ... ... ... : --- .. . ... : ... .. . ... : ... .. . ... ...
ROW 8D : ... .. . ... ... ... : ... .. . ... ... ... : ... .. . ... : ... .. . ... : ... .. . ... ...
ROW 8E : G#1 00 4 ... ... ... : ... .. . ... ... ... : G#2 00 . ... : ... .. C ... : ... .. . ... ...
ROW 8F : ... .. 5 ... ... ... : ... .. . P7E ... ... : ... .. . ... : ... .. 0 ... : ... .. . ... ...
ROW 90 : ... .. 6 ... ... ... : ... .. . ... ... ... : ... .. . ... : ... .. . ... : ... .. . ... ...
ROW 91 : ... .. . ... ... ... : ... .. . ... ... ... : ... .. . ... : ... .. . ... : ... .. . ... ...
ROW 92 : ... .. 7 ... ... ... : ... .. . ... ... ... : ... .. . ... : ... .. . ... : ... .. . ... ...
ROW 93 : ... .. . ... ... ... : ... .. . P80 ... ... : ... .. . ... : ... .. . ... : ... .. . ... ...
ROW 94 : ... .. . ... ... ... : ... .. . ... ... ... : ... .. . ... : ... .. . ... : ... .. . ... ...
ROW 95 : ... .. 6 ... ... ... : ... .. . ... ... ... : ... .. . ... : ... .. . ... : ... .. . ... ...
ROW 96 : ... .. . ... ... ... : ... .. . ... ... ... : --- .. . ... : ... .. . ... : ... .. . ... ...
ROW 97 : ... .. . ... ... ... : ... .. . P7E ... ... : ... .. . ... : ... .. . ... : ... .. . ... ...
ROW 98 : D#2 00 4 ... ... ... : ... .. . ... ... ... : G#2 00 . ... : ... .. C ... : ... .. . ... ...
ROW 99 : ... .. 5 ... ... ... : ... .. . ... ... ... : ... .. . ... : ... .. 0 ... : ... .. . ... ...
ROW 9A : ... .. 6 ... ... ... : ... .. . ... ... ... : ... .. . ... : ... .. . ... : ... .. . ... ...
ROW 9B : ... .. . ... ... ... : ... .. . P80 ... ... : ... .. . ... : ... .. . ... : ... .. . ... ...
ROW 9C : ... .. 7 ... ... ... : ... .. . ... ... ... : ... .. . ... : ... .. . ... : ... .. . ... ...
ROW 9D : ... .. . ... ... ... : ... .. . ... ... ... : ... .. . ... : ... .. . ... : ... .. . ... ...
ROW 9E : ... .. . ... ... ... : ... .. . ... ... ... : ... .. . ... : ... .. . ... : ... .. . ... ...
ROW 9F : ... .. 6 ... ... ... : ... .. . P7E ... ... : ... .. . ... : ... .. . ... : ... .. . ... ...
ROW A0 : ... .. . ... ... ... : ... .. . ... ... ... : --- .. . ... : ... .. . ... : ... .. . ... ...
ROW A1 : ... .. . ... ... ... : ... .. . ... ... ... : ... .. . ... : ... .. . ... : ... .. . ... ...
ROW A2 : G#1 00 4 ... ... ... : ... .. . ... ... ... : ... .. . ... : ... .. . ... : ... .. . ... ...
ROW A3 : ... .. 5 ... ... ... : ... .. . P80 ... ... : ... .. . ... : ... .. . ... : ... .. . ... ...
ROW A4 : ... .. 6 ... ... ... : ... .. . ... ... ... : ... .. . ... : ... .. . ... : ... .. . ... ...
ROW A5 : ... .. . ... ... ... : ... .. . ... ... ... : ... .. . ... : ... .. . ... : ... .. . ... ...
ROW A6 : ... .. 7 ... ... ... : ... .. . ... ... ... : ... .. . ... : ... .. . ... : ... .. . ... ...
ROW A7 : ... .. . ... ... ... : ... .. . P7E ... ... : ... .. . P7F : ... .. . ... : ... .. . ... ...
ROW A8 : ... .. . ... ... ... : ... .. . ... ... ... : ... .. . ... : ... .. . ... : ... .. . ... ...
ROW A9 : ... .. 6 ... ... ... : ... .. . ... ... ... : ... .. . ... : ... .. . ... : ... .. . ... ...
ROW AA : ... .. . ... ... ... : ... .. . ... ... ... : ... .. . ... : ... .. . ... : ... .. . ... ...
ROW AB : ... .. . ... ... ... : ... .. . P80 ... ... : ... .. . P81 : ... .. . ... : ... .. . ... ...
ROW AC : D#2 00 4 ... ... ... : ... .. . ... ... ... : G#2 00 . P80 : ... .. C ... : ... .. . ... ...
ROW AD : ... .. 5 ... ... ... : ... .. . ... ... ... : ... .. . ... : ... .. 0 ... : ... .. . ... ...
ROW AE : ... .. 6 ... ... ... : ... .. . ... ... ... : ... .. . ... : ... .. . ... : ... .. . ... ...
ROW AF : ... .. . ... ... ... : ... .. . P7E ... ... : ... .. . ... : ... .. . ... : ... .. . ... ...
ROW B0 : ... .. 7 ... ... ... : ... .. . ... ... ... : ... .. . ... : ... .. . ... : ... .. . ... ...
ROW B1 : ... .. . ... ... ... : ... .. . ... ... ... : ... .. . ... : ... .. . ... : ... .. . ... ...
ROW B2 : ... .. . ... ... ... : ... .. . ... ... ... : ... .. . ... : ... .. . ... : ... .. . ... ...
ROW B3 : ... .. 6 ... ... ... : ... .. . P80 ... ... : ... .. . ... : ... .. . ... : ... .. . ... ...
ROW B4 : ... .. . ... ... ... : ... .. . ... ... ... : --- .. . ... : ... .. . ... : ... .. . ... ...
ROW B5 : ... .. . ... ... ... : ... .. . ... ... ... : ... .. . ... : ... .. . ... : ... .. . ... ...
ROW B6 : G#1 00 4 ... ... ... : ... .. . ... ... ... : G#2 00 . ... : ... .. C ... : ... .. . ... ...
ROW B7 : ... .. 5 ... ... ... : ... .. . P7E ... ... : ... .. . ... : ... .. 0 ... : ... .. . ... ...
ROW B8 : ... .. 6 ... ... ... : ... .. . ... ... ... : ... .. . ... : ... .. . ... : ... .. . ... ...
ROW B9 : ... .. . ... ... ... : ... .. . ... ... ... : ... .. . ... : ... .. . ... : ... .. . ... ...
ROW BA : ... .. 7 ... ... ... : ... .. . ... ... ... : ... .. . ... : ... .. . ... : ... .. . ... ...
ROW BB : ... .. . ... ... ... : ... .. . P80 ... ... : ... .. . ... : ... .. . ... : ... .. . ... ...
ROW BC : ... .. . ... ... ... : ... .. . ... ... ... : ... .. . ... : ... .. . ... : ... .. . ... ...
ROW BD : ... .. 6 ... ... ... : ... .. . ... ... ... : ... .. . ... : ... .. . ... : ... .. . ... ...
ROW BE : ... .. . ... ... ... : ... .. . ... ... ... : --- .. . ... : ... .. . ... : ... .. . ... ...
ROW BF : ... .. . ... ... ... : ... .. . P7E ... ... : ... .. . ... : ... .. . ... : ... .. . ... ...
ROW C0 : C#2 00 4 ... ... ... : A#3 00 4 P80 ... ... : F#2 00 . ... : ... .. C ... : ... .. . ... ...
ROW C1 : ... .. 5 ... ... ... : ... .. 5 ... ... ... : ... .. . ... : ... .. 0 ... : ... .. . ... ...
ROW C2 : ... .. 6 ... ... ... : ... .. 6 ... ... ... : ... .. . ... : ... .. . ... : ... .. . ... ...
ROW C3 : ... .. . ... ... ... : ... .. . ... ... ... : ... .. . ... : ... .. . ... : ... .. . ... ...
ROW C4 : ... .. 7 ... ... ... : ... .. 7 ... ... ... : ... .. . ... : ... .. . ... : ... .. . ... ...
ROW C5 : ... .. . ... ... ... : ... .. . ... ... ... : ... .. . ... : ... .. . ... : ... .. . ... ...
ROW C6 : ... .. . ... ... ... : ... .. . ... ... ... : ... .. . ... : ... .. . ... : ... .. . ... ...
ROW C7 : ... .. 6 ... ... ... : ... .. 6 ... ... ... : ... .. . ... : ... .. . ... : ... .. . ... ...
ROW C8 : ... .. . ... ... ... : ... .. . ... ... ... : --- .. . ... : ... .. . ... : ... .. . ... ...
ROW C9 : ... .. . ... ... ... : ... .. . ... ... ... : ... .. . ... : ... .. . ... : ... .. . ... ...
ROW CA : ... .. . ... ... ... : ... .. . ... ... ... : ... .. . ... : ... .. . ... : ... .. . ... ...
ROW CB : ... .. 5 ... ... ... : ... .. 5 ... ... ... : ... .. . ... : ... .. . ... : ... .. . ... ...
ROW CC : ... .. . ... ... ... : ... .. . ... ... ... : ... .. . ... : ... .. . ... : ... .. . ... ...
ROW CD : ... .. . ... ... ... : ... .. . ... ... ... : ... .. . ... : ... .. . ... : ... .. . ... ...
ROW CE : ... .. . ... ... ... : ... .. . ... ... ... : ... .. . ... : ... .. . ... : ... .. . ... ...
ROW CF : ... .. 4 P7E ... ... : ... .. 4 P7F ... ... : ... .. . P7F : ... .. . ... : ... .. . ... ...
ROW D0 : ... .. . ... ... ... : ... .. . ... ... ... : ... .. . ... : ... .. . ... : ... .. . ... ...
ROW D1 : ... .. . ... ... ... : ... .. . ... ... ... : ... .. . ... : ... .. . ... : ... .. . ... ...
ROW D2 : ... .. . ... ... ... : ... .. . ... ... ... : ... .. . ... : ... .. . ... : ... .. . ... ...
ROW D3 : ... .. . P80 ... ... : ... .. . P81 ... ... : ... .. . P81 : ... .. . ... : ... .. . ... ...
ROW D4 : ... .. . P7F ... ... : ... .. . ... ... ... : F#2 00 . P80 : ... .. C ... : ... .. . ... ...
ROW D5 : ... .. 5 ... ... ... : ... .. . ... ... ... : ... .. . ... : ... .. 0 ... : ... .. . ... ...
ROW D6 : ... .. 6 ... ... ... : ... .. . ... ... ... : ... .. . ... : ... .. . ... : ... .. . ... ...
ROW D7 : ... .. . ... ... ... : ... .. . P7F ... ... : ... .. . ... : ... .. . ... : ... .. . ... ...
ROW D8 : ... .. 7 ... ... ... : ... .. . ... ... ... : ... .. . ... : ... .. . ... : ... .. . ... ...
ROW D9 : ... .. . ... ... ... : ... .. 3 ... ... ... : ... .. . ... : ... .. . ... : ... .. . ... ...
ROW DA : ... .. . ... ... ... : ... .. . ... ... ... : ... .. . ... : ... .. . ... : ... .. . ... ...
ROW DB : ... .. 6 ... ... ... : ... .. . P81 ... ... : ... .. . ... : ... .. . ... : ... .. . ... ...
ROW DC : ... .. . ... ... ... : ... .. . ... ... ... : --- .. . ... : ... .. . ... : ... .. . ... ...
ROW DD : ... .. . ... ... ... : ... .. . ... ... ... : ... .. . ... : ... .. . ... : ... .. . ... ...
ROW DE : F#1 00 4 ... ... ... : ... .. 2 ... ... ... : F#2 00 . ... : ... .. C ... : ... .. . ... ...
ROW DF : ... .. 5 ... ... ... : ... .. . P7F ... ... : ... .. . ... : ... .. 0 ... : ... .. . ... ...
ROW E0 : ... .. 6 ... ... ... : ... .. 0 ... ... ... : ... .. . ... : ... .. . ... : ... .. . ... ...
ROW E1 : ... .. . ... ... ... : ... .. . ... ... ... : ... .. . ... : ... .. . ... : ... .. . ... ...
ROW E2 : ... .. 7 ... ... ... : ... .. . ... ... ... : ... .. . ... : ... .. . ... : ... .. . ... ...
ROW E3 : ... .. . ... ... ... : ... .. . P81 ... ... : ... .. . ... : ... .. . ... : ... .. . ... ...
ROW E4 : ... .. . ... ... ... : ... .. . ... ... ... : ... .. . ... : ... .. . ... : ... .. . ... ...
ROW E5 : ... .. 6 ... ... ... : ... .. . ... ... ... : ... .. . ... : ... .. . ... : ... .. . ... ...
ROW E6 : ... .. . ... ... ... : ... .. . ... ... ... : --- .. . ... : ... .. . ... : ... .. . ... ...
ROW E7 : ... .. . ... ... ... : ... .. . P7F ... ... : ... .. . ... : ... .. . ... : ... .. . ... ...
ROW E8 : C#2 00 4 ... ... ... : F-3 00 4 ... ... ... : F#2 00 . ... : ... .. C ... : ... .. . ... ...
ROW E9 : ... .. 5 ... ... ... : ... .. 5 ... ... ... : ... .. . ... : ... .. 0 ... : ... .. . ... ...
ROW EA : ... .. 6 ... ... ... : ... .. 6 ... ... ... : ... .. . ... : ... .. . ... : ... .. . ... ...
ROW EB : ... .. . ... ... ... : ... .. . ... ... ... : ... .. . ... : ... .. . ... : ... .. . ... ...
ROW EC : ... .. 7 ... ... ... : ... .. 7 ... ... ... : ... .. . ... : ... .. . ... : ... .. . ... ...
ROW ED : ... .. . ... ... ... : ... .. . ... ... ... : ... .. . ... : ... .. . ... : ... .. . ... ...
ROW EE : ... .. . ... ... ... : ... .. . ... ... ... : ... .. . ... : ... .. . ... : ... .. . ... ...
ROW EF : ... .. 6 ... ... ... : ... .. 6 ... ... ... : ... .. . ... : ... .. . ... : ... .. . ... ...
ROW F0 : ... .. . ... ... ... : ... .. . ... ... ... : --- .. . ... : ... .. . ... : ... .. . ... ...
ROW F1 : ... .. . ... ... ... : ... .. . ... ... ... : ... .. . ... : ... .. . ... : ... .. . ... ...
ROW F2 : ... .. . ... ... ... : ... .. . ... ... ... : ... .. . ... : ... .. . ... : ... .. . ... ...
ROW F3 : ... .. 5 ... ... ... : ... .. 5 ... ... ... : ... .. . ... : ... .. . ... : ... .. . ... ...
ROW F4 : ... .. . ... ... ... : ... .. . ... ... ... : ... .. . ... : ... .. . ... : ... .. . ... ...
ROW F5 : ... .. . ... ... ... : ... .. . ... ... ... : ... .. . ... : ... .. . ... : ... .. . ... ...
ROW F6 : ... .. . ... ... ... : ... .. . ... ... ... : ... .. . ... : ... .. . ... : ... .. . ... ...
ROW F7 : ... .. 4 P7E ... ... : ... .. 4 P7E ... ... : ... .. . P7F : ... .. . ... : ... .. . ... ...
ROW F8 : ... .. . ... ... ... : ... .. . ... ... ... : ... .. . ... : ... .. . ... : ... .. . ... ...
ROW F9 : ... .. . ... ... ... : ... .. . ... ... ... : ... .. . ... : ... .. . ... : ... .. . ... ...
ROW FA : ... .. . ... ... ... : ... .. . ... ... ... : ... .. . ... : ... .. . ... : ... .. . ... ...
ROW FB : ... .. . P80 ... ... : ... .. . P80 ... ... : ... .. . P81 : ... .. . ... : ... .. . ... ...
ROW FC : ... .. . P7F ... ... : ... .. . ... ... ... : F#2 00 . P80 : ... .. C ... : ... .. . ... ...
ROW FD : ... .. 5 ... ... ... : ... .. . ... ... ... : ... .. . ... : ... .. 0 ... : ... .. . ... ...
ROW FE : ... .. 6 ... ... ... : ... .. . ... ... ... : ... .. . ... : ... .. . ... : ... .. . ... ...
ROW FF : ... .. . ... ... ... : ... .. . P7E ... ... : ... .. . ... : ... .. . ... : ... .. . ... ...

PATTERN 18
ROW 00 : ... .. 7 ... ... ... : ... .. . ... ... ... : ... .. . ... : ... .. . ... : ... .. . ... ...
ROW 01 : ... .. . ... ... ... : ... .. 3 ... ... ... : ... .. . ... : ... .. . ... : ... .. . ... ...
ROW 02 : ... .. . ... ... ... : ... .. . ... ... ... : ... .. . ... : ... .. . ... : ... .. . ... ...
ROW 03 : ... .. 6 ... ... ... : ... .. . P80 ... ... : ... .. . ... : ... .. . ... : ... .. . ... ...
ROW 04 : ... .. . ... ... ... : ... .. . ... ... ... : --- .. . ... : ... .. . ... : ... .. . ... ...
ROW 05 : ... .. . ... ... ... : ... .. . ... ... ... : ... .. . ... : ... .. . ... : ... .. . ... ...
ROW 06 : F#1 00 4 ... ... ... : ... .. 2 ... ... ... : F#2 00 . ... : ... .. C ... : ... .. . ... ...
ROW 07 : ... .. 5 ... ... ... : ... .. . P7E ... ... : ... .. . ... : ... .. 0 ... : ... .. . ... ...
ROW 08 : ... .. 6 ... ... ... : ... .. 0 ... ... ... : ... .. . ... : ... .. . ... : ... .. . ... ...
ROW 09 : ... .. . ... ... ... : ... .. . ... ... ... : ... .. . ... : ... .. . ... : ... .. . ... ...
ROW 0A : ... .. 7 ... ... ... : ... .. . ... ... ... : ... .. . ... : ... .. . ... : ... .. . ... ...
ROW 0B : ... .. . ... ... ... : ... .. . P80 ... ... : ... .. . ... : ... .. . ... : ... .. . ... ...
ROW 0C : ... .. . ... ... ... : ... .. . ... ... ... : ... .. . ... : ... .. . ... : ... .. . ... ...
ROW 0D : ... .. 6 ... ... ... : ... .. . ... ... ... : ... .. . ... : ... .. . ... : ... .. . ... ...
ROW 0E : ... .. . ... ... ... : ... .. . ... ... ... : --- .. . ... : ... .. . ... : ... .. . ... ...
ROW 0F : ... .. . ... ... ... : ... .. . P7E ... ... : ... .. . ... : ... .. . ... : ... .. . ... ...
ROW 10 : C#2 00 4 ... ... ... : ... .. . ... ... ... : F#2 00 . ... : ... .. C ... : ... .. . ... ...
ROW 11 : ... .. 5 ... ... ... : ... .. . ... ... ... : ... .. . ... : ... .. 0 ... : ... .. . ... ...
ROW 12 : ... .. 6 ... ... ... : ... .. . ... ... ... : ... .. . ... : ... .. . ... : ... .. . ... ...
ROW 13 : ... .. . ... ... ... : ... .. . P80 ... ... : ... .. . ... : ... .. . ... : ... .. . ... ...
ROW 14 : ... .. 7 ... ... ... : ... .. . ... ... ... : ... .. . ... : ... .. . ... : ... .. . ... ...
ROW 15 : ... .. . ... ... ... : ... .. . ... ... ... : ... .. . ... : ... .. . ... : ... .. . ... ...
ROW 16 : ... .. . ... ... ... : ... .. . ... ... ... : ... .. . ... : ... .. . ... : ... .. . ... ...
ROW 17 : ... .. 6 ... ... ... : ... .. . P7E ... ... : ... .. . ... : ... .. . ... : ... .. . ... ...
ROW 18 : ... .. . ... ... ... : ... .. . ... ... ... : --- .. . ... : ... .. . ... : ... .. . ... ...
ROW 19 : ... .. . ... ... ... : ... .. . ... ... ... : ... .. . ... : ... .. . ... : ... .. . ... ...
ROW 1A : ... .. . ... ... ... : ... .. . ... ... ... : ... .. . ... : ... .. . ... : ... .. . ... ...
ROW 1B : ... .. 5 ... ... ... : ... .. . P80 ... ... : ... .. . ... : ... .. . ... : ... .. . ... ...
ROW 1C : ... .. . ... ... ... : ... .. . ... ... ... : ... .. . ... : ... .. . ... : ... .. . ... ...
ROW 1D : ... .. . ... ... ... : ... .. . ... ... ... : ... .. . ... : ... .. . ... : ... .. . ... ...
ROW 1E : ... .. . ... ... ... : ... .. . ... ... ... : ... .. . ... : ... .. . ... : ... .. . ... ...
ROW 1F : ... .. 4 P7E ... ... : ... .. . P7E ... ... : ... .. . P7F : ... .. . ... : ... .. . ... ...
ROW 20 : ... .. . ... ... ... : ... .. . ... ... ... : ... .. . ... : ... .. . ... : ... .. . ... ...
ROW 21 : ... .. . ... ... ... : ... .. . ... ... ... : ... .. . ... : ... .. . ... : ... .. . ... ...
ROW 22 : ... .. . ... ... ... : ... .. . ... ... ... : ... .. . ... : ... .. . ... : ... .. . ... ...
ROW 23 : ... .. . P80 ... ... : ... .. . P80 ... ... : ... .. . P81 : ... .. . ... : ... .. . ... ...
ROW 24 : ... .. . P7F ... ... : A#3 00 4 ... ... ... : F#2 00 . P80 : ... .. C ... : ... .. . ... ...
ROW 25 : ... .. 5 ... ... ... : ... .. 5 ... ... ... : ... .. . ... : ... .. 0 ... : ... .. . ... ...
ROW 26 : ... .. 6 ... ... ... : ... .. 6 ... ... ... : ... .. . ... : ... .. . ... : ... .. . ... ...
ROW 27 : ... .. . ... ... ... : ... .. . ... ... ... : ... .. . ... : ... .. . ... : ... .. . ... ...
ROW 28 : ... .. 7 ... ... ... : ... .. 7 ... ... ... : ... .. . ... : ... .. . ... : ... .. . ... ...
ROW 29 : ... .. . ... ... ... : ... .. . ... ... ... : ... .. . ... : ... .. . ... : ... .. . ... ...
ROW 2A : ... .. . ... ... ... : ... .. . ... ... ... : ... .. . ... : ... .. . ... : ... .. . ... ...
ROW 2B : ... .. 6 ... ... ... : ... .. 6 ... ... ... : ... .. . ... : ... .. . ... : ... .. . ... ...
ROW 2C : ... .. . ... ... ... : ... .. . ... ... ... : --- .. . ... : ... .. . ... : ... .. . ... ...
ROW 2D : ... .. . ... ... ... : ... .. . ... ... ... : ... .. . ... : ... .. . ... : ... .. . ... ...
ROW 2E : F#1 00 4 ... ... ... : ... .. . ... ... ... : F#2 00 . ... : ... .. C ... : ... .. . ... ...
ROW 2F : ... .. 5 ... ... ... : ... .. 5 ... ... ... : ... .. . ... : ... .. 0 ... : ... .. . ... ...
ROW 30 : ... .. 6 ... ... ... : ... .. . ... ... ... : ... .. . ... : ... .. . ... : ... .. . ... ...
ROW 31 : ... .. . ... ... ... : ... .. . ... ... ... : ... .. . ... : ... .. . ... : ... .. . ... ...
ROW 32 : ... .. 7 ... ... ... : ... .. . ... ... ... : ... .. . ... : ... .. . ... : ... .. . ... ...
ROW 33 : ... .. . ... ... ... : ... .. 4 P7F ... ... : ... .. . ... : ... .. . ... : ... .. . ... ...
ROW 34 : ... .. . ... ... ... : ... .. . ... ... ... : ... .. . ... : ... .. . ... : ... .. . ... ...
ROW 35 : ... .. 6 ... ... ... : ... .. . ... ... ... : ... .. . ... : ... .. . ... : ... .. . ... ...
ROW 36 : ... .. . ... ... ... : ... .. . ... ... ... : --- .. . ... : ... .. . ... : ... .. . ... ...
ROW 37 : ... .. . ... ... ... : ... .. . P81 ... ... : ... .. . ... : ... .. . ... : ... .. . ... ...
ROW 38 : C#2 00 4 ... ... ... : ... .. . P80 ... ... : F#2 00 . ... : ... .. C ... : ... .. . ... ...
ROW 39 : ... .. 5 ... ... ... : ... .. 5 ... ... ... : ... .. . ... : ... .. 0 ... : ... .. . ... ...
ROW 3A : ... .. 6 ... ... ... : ... .. 6 ... ... ... : ... .. . ... : ... .. . ... : ... .. . ... ...
ROW 3B : ... .. . ... ... ... : ... .. . ... ... ... : ... .. . ... : ... .. . ... : ... .. . ... ...
ROW 3C : ... .. 7 ... ... ... : ... .. 7 ... ... ... : ... .. . ... : ... .. . ... : ... .. . ... ...
ROW 3D : ... .. . ... ... ... : ... .. . ... ... ... : ... .. . ... : ... .. . ... : ... .. . ... ...
ROW 3E : ... .. . ... ... ... : ... .. . ... ... ... : ... .. . ... : ... .. . ... : ... .. . ... ...
ROW 3F : ... .. 6 ... ... ... : ... .. 6 ... ... ... : ... .. . ... : ... .. . ... : ... .. . ... ...
ROW 40 : ... .. . ... ... ... : ... .. . ... ... ... : --- .. . ... : ... .. . ... : ... .. . ... ...
ROW 41 : ... .. . ... ... ... : ... .. . ... ... ... : ... .. . ... : ... .. . ... : ... .. . ... ...
ROW 42 : F#1 00 4 ... ... ... : C-4 00 4 ... ... ... : ... .. . ... : ... .. . ... : ... .. . ... ...
ROW 43 : ... .. 5 ... ... ... : ... .. 5 ... ... ... : ... .. . ... : ... .. . ... : ... .. . ... ...
ROW 44 : ... .. 6 ... ... ... : ... .. 6 ... ... ... : ... .. . ... : ... .. . ... : ... .. . ... ...
ROW 45 : ... .. . ... ... ... : ... .. . ... ... ... : ... .. . ... : ... .. . ... : ... .. . ... ...
ROW 46 : ... .. 7 ... ... ... : ... .. 7 ... ... ... : ... .. . ... : ... .. . ... : ... .. . ... ...
ROW 47 : ... .. . ... ... ... : ... .. . ... ... ... : ... .. . P7F : ... .. . ... : ... .. . ... ...
ROW 48 : ... .. . ... ... ... : ... .. . ... ... ... : ... .. . ... : ... .. . ... : ... .. . ... ...
ROW 49 : ... .. 6 ... ... ... : ... .. 6 ... ... ... : ... .. . ... : ... .. . ... : ... .. . ... ...
ROW 4A : ... .. . ... ... ... : ... .. . ... ... ... : ... .. . ... : ... .. . ... : ... .. . ... ...
ROW 4B : ... .. . ... ... ... : ... .. . ... ... ... : ... .. . P81 : ... .. . ... : ... .. . ... ...
ROW 4C : C#2 00 4 ... ... ... : D-4 00 4 P7F ... ... : F#2 00 . P80 : ... .. C ... : ... .. . ... ...
ROW 4D : ... .. 5 ... ... ... : ... .. 5 ... ... ... : ... .. . ... : ... .. 0 ... : ... .. . ... ...
ROW 4E : ... .. 6 ... ... ... : ... .. 6 ... ... ... : ... .. . ... : ... .. . ... : ... .. . ... ...
ROW 4F : ... .. . ... ... ... : ... .. . ... ... ... : ... .. . ... : ... .. . ... : ... .. . ... ...
ROW 50 : ... .. 7 ... ... ... : ... .. 7 ... ... ... : ... .. . ... : ... .. . ... : ... .. . ... ...
ROW 51 : ... .. . ... ... ... : ... .. . ... ... ... : ... .. . ... : ... .. . ... : ... .. . ... ...
ROW 52 : ... .. . ... ... ... : ... .. . ... ... ... : ... .. . ... : ... .. . ... : ... .. . ... ...
ROW 53 : ... .. 6 ... ... ... : ... .. 6 ... ... ... : ... .. . ... : ... .. . ... : ... .. . ... ...
ROW 54 : ... .. . ... ... ... : ... .. . ... ... ... : --- .. . ... : ... .. . ... : ... .. . ... ...
ROW 55 : ... .. . ... ... ... : ... .. . ... ... ... : ... .. . ... : ... .. . ... : ... .. . ... ...
ROW 56 : F#1 00 4 ... ... ... : D#4 00 4 P80 ... ... : F#2 00 . ... : ... .. C ... : ... .. . ... ...
ROW 57 : ... .. 5 ... ... ... : ... .. 5 ... ... ... : ... .. . ... : ... .. 0 ... : ... .. . ... ...
ROW 58 : ... .. 6 ... ... ... : ... .. 6 ... ... ... : ... .. . ... : ... .. . ... : ... .. . ... ...
ROW 59 : ... .. . ... ... ... : ... .. . ... ... ... : ... .. . ... : ... .. . ... : ... .. . ... ...
ROW 5A : ... .. 7 ... ... ... : ... .. 7 ... ... ... : ... .. . ... : ... .. . ... : ... .. . ... ...
ROW 5B : ... .. . ... ... ... : ... .. . ... ... ... : ... .. . ... : ... .. . ... : ... .. . ... ...
ROW 5C : ... .. . ... ... ... : ... .. . ... ... ... : ... .. . ... : ... .. . ... : ... .. . ... ...
ROW 5D : ... .. 6 ... ... ... : ... .. 6 ... ... ... : ... .. . ... : ... .. . ... : ... .. . ... ...
ROW 5E : ... .. . ... ... ... : ... .. . ... ... ... : --- .. . ... : ... .. . ... : ... .. . ... ...
ROW 5F : ... .. . ... ... ... : ... .. . ... ... ... : ... .. . ... : ... .. . ... : ... .. . ... ...
ROW 60 : C-2 00 4 ... ... ... : F-4 00 4 P7F ... ... : F-2 00 . ... : ... .. C ... : ... .. . ... ...
ROW 61 : ... .. 5 ... ... ... : ... .. 5 ... ... ... : ... .. . ... : ... .. 0 ... : ... .. . ... ...
ROW 62 : ... .. 6 ... ... ... : ... .. 6 ... ... ... : ... .. . ... : ... .. . ... : ... .. . ... ...
ROW 63 : ... .. . ... ... ... : ... .. . ... ... ... : ... .. . ... : ... .. . ... : ... .. . ... ...
ROW 64 : ... .. 7 ... ... ... : ... .. 7 ... ... ... : ... .. . ... : ... .. . ... : ... .. . ... ...
ROW 65 : ... .. . ... ... ... : ... .. . ... ... ... : ... .. . ... : ... .. . ... : ... .. . ... ...
ROW 66 : ... .. . ... ... ... : ... .. . ... ... ... : ... .. . ... : ... .. . ... : ... .. . ... ...
ROW 67 : ... .. 6 ... ... ... : ... .. 6 ... ... ... : ... .. . ... : ... .. . ... : ... .. . ... ...
ROW 68 : ... .. . ... ... ... : ... .. . ... ... ... : --- .. . ... : ... .. . ... : ... .. . ... ...
ROW 69 : ... .. . ... ... ... : ... .. . ... ... ... : ... .. . ... : ... .. . ... : ... .. . ... ...
ROW 6A : ... .. . ... ... ... : ... .. . ... ... ... : ... .. . ... : ... .. . ... : ... .. . ... ...
ROW 6B : ... .. 5 ... ... ... : ... .. 5 ... ... ... : ... .. . ... : ... .. . ... : ... .. . ... ...
ROW 6C : ... .. . ... ... ... : ... .. . ... ... ... : ... .. . ... : ... .. . ... : ... .. . ... ...
ROW 6D : ... .. . ... ... ... : ... .. . ... ... ... : ... .. . ... : ... .. . ... : ... .. . ... ...
ROW 6E : ... .. . ... ... ... : ... .. . ... ... ... : ... .. . ... : ... .. . ... : ... .. . ... ...
ROW 6F : ... .. 4 P7E ... ... : ... .. 4 P7E ... ... : ... .. . P7F : ... .. . ... : ... .. . ... ...
ROW 70 : ... .. . ... ... ... : ... .. . ... ... ... : ... .. . ... : ... .. . ... : ... .. . ... ...
ROW 71 : ... .. . ... ... ... : ... .. . ... ... ... : ... .. . ... : ... .. . ... : ... .. . ... ...
ROW 72 : ... .. . ... ... ... : ... .. . ... ... ... : ... .. . ... : ... .. . ... : ... .. . ... ...
ROW 73 : ... .. . P80 ... ... : ... .. . P80 ... ... : ... .. . P81 : ... .. . ... : ... .. . ... ...
ROW 74 : A#2 00 4 ... ... ... : ... .. . ... ... ... : F-2 00 . P80 : ... .. C ... : ... .. . ... ...
ROW 75 : ... .. 5 ... ... ... : ... .. . ... ... ... : ... .. . ... : ... .. 0 ... : ... .. . ... ...
ROW 76 : ... .. 6 ... ... ... : ... .. . ... ... ... : ... .. . ... : ... .. . ... : ... .. . ... ...
ROW 77 : ... .. . ... ... ... : ... .. . P7E ... ... : ... .. . ... : ... .. . ... : ... .. . ... ...
ROW 78 : ... .. 7 ... ... ... : ... .. . ... ... ... : ... .. . ... : ... .. . ... : ... .. . ... ...
ROW 79 : ... .. . ... ... ... : ... .. 3 ... ... ... : ... .. . ... : ... .. . ... : ... .. . ... ...
ROW 7A : ... .. . ... ... ... : ... .. . ... ... ... : ... .. . ... : ... .. . ... : ... .. . ... ...
ROW 7B : ... .. 6 ... ... ... : ... .. . P80 ... ... : ... .. . ... : ... .. . ... : ... .. . ... ...
ROW 7C : ... .. . ... ... ... : ... .. . ... ... ... : --- .. . ... : ... .. . ... : ... .. . ... ...
ROW 7D : ... .. . ... ... ... : ... .. . ... ... ... : ... .. . ... : ... .. . ... : ... .. . ... ...
ROW 7E : ... .. . ... ... ... : ... .. 2 ... ... ... : F-2 00 . ... : ... .. C ... : ... .. . ... ...
ROW 7F : ... .. 5 ... ... ... : ... .. . P7E ... ... : ... .. . ... : ... .. 0 ... : ... .. . ... ...
ROW 80 : ... .. . ... ... ... : ... .. 0 ... ... ... : ... .. . ... : ... .. . ... : ... .. . ... ...
ROW 81 : ... .. . ... ... ... : ... .. . ... ... ... : ... .. . ... : ... .. . ... : ... .. . ... ...
ROW 82 : ... .. . ... ... ... : ... .. . ... ... ... : ... .. . ... : ... .. . ... : ... .. . ... ...
ROW 83 : ... .. 4 P7F ... ... : ... .. . P80 ... ... : ... .. . ... : ... .. . ... : ... .. . ... ...
ROW 84 : ... .. . ... ... ... : ... .. . ... ... ... : ... .. . ... : ... .. . ... : ... .. . ... ...
ROW 85 : ... .. . ... ... ... : ... .. . ... ... ... : ... .. . ... : ... .. . ... : ... .. . ... ...
ROW 86 : ... .. . ... ... ... : ... .. . ... ... ... : --- .. . ... : ... .. . ... : ... .. . ... ...
ROW 87 : ... .. . P81 ... ... : ... .. . P7E ... ... : ... .. . ... : ... .. . ... : ... .. . ... ...
ROW 88 : ... .. . P80 ... ... : ... .. . ... ... ... : F-2 00 . ... : ... .. C ... : ... .. . ... ...
ROW 89 : ... .. 5 ... ... ... : ... .. . ... ... ... : ... .. . ... : ... .. 0 ... : ... .. . ... ...
ROW 8A : ... .. 6 ... ... ... : ... .. . ... ... ... : ... .. . ... : ... .. . ... : ... .. . ... ...
ROW 8B : ... .. . ... ... ... : ... .. . P80 ... ... : ... .. . ... : ... .. . ... : ... .. . ... ...
ROW 8C : ... .. 7 ... ... ... : ... .. . ... ... ... : ... .. . ... : ... .. . ... : ... .. . ... ...
ROW 8D : ... .. . ... ... ... : ... .. . ... ... ... : ... .. . ... : ... .. . ... : ... .. . ... ...
ROW 8E : ... .. . ... ... ... : ... .. . ... ... ... : ... .. . ... : ... .. . ... : ... .. . ... ...
ROW 8F : ... .. 6 ... ... ... : ... .. . P7E ... ... : ... .. . ... : ... .. . ... : ... .. . ... ...
ROW 90 : ... .. . ... ... ... : ... .. . ... ... ... : --- .. . ... : ... .. . ... : ... .. . ... ...
ROW 91 : ... .. . ... ... ... : ... .. . ... ... ... : ... .. . ... : ... .. . ... : ... .. . ... ...
ROW 92 : C-3 00 4 ... ... ... : ... .. . ... ... ... : ... .. . ... : ... .. . ... : ... .. . ... ...
ROW 93 : ... .. 5 ... ... ... : ... .. . P80 ... ... : ... .. . ... : ... .. . ... : ... .. . ... ...
ROW 94 : ... .. 6 ... ... ... : ... .. . ... ... ... : ... .. . ... : ... .. . ... : ... .. . ... ...
ROW 95 : ... .. . ... ... ... : ... .. . ... ... ... : ... .. . ... : ... .. . ... : ... .. . ... ...
ROW 96 : ... .. 7 ... ... ... : ... .. . ... ... ... : ... .. . ... : ... .. . ... : ... .. . ... ...
ROW 97 : ... .. . ... ... ... : ... .. . P7E ... ... : ... .. . P7F : ... .. . ... : ... .. . ... ...
ROW 98 : ... .. . ... ... ... : ... .. . ... ... ... : ... .. . ... : ... .. . ... : ... .. . ... ...
ROW 99 : ... .. 6 ... ... ... : ... .. . ... ... ... : ... .. . ... : ... .. . ... : ... .. . ... ...
ROW 9A : ... .. . ... ... ... : ... .. . ... ... ... : ... .. . ... : ... .. . ... : ... .. . ... ...
ROW 9B : ... .. . ... ... ... : ... .. . P80 ... ... : ... .. . P81 : ... .. . ... : ... .. . ... ...
ROW 9C : D-3 00 4 ... ... ... : ... .. . ... ... ... : F-2 00 . P80 : ... .. C ... : ... .. . ... ...
ROW 9D : ... .. 5 ... ... ... : ... .. . ... ... ... : ... .. . ... : ... .. 0 ... : ... .. . ... ...
ROW 9E : ... .. 6 ... ... ... : ... .. . ... ... ... : ... .. . ... : ... .. . ... : ... .. . ... ...
ROW 9F : ... .. . ... ... ... : ... .. . P7E ... ... : ... .. . ... : ... .. . ... : ... .. . ... ...
ROW A0 : ... .. 7 ... ... ... : ... .. . ... ... ... : ... .. . ... : ... .. . ... : ... .. . ... ...
ROW A1 : ... .. . ... ... ... : ... .. . ... ... ... : ... .. . ... : ... .. . ... : ... .. . ... ...
ROW A2 : ... .. . ... ... ... : ... .. . ... ... ... : ... .. . ... : ... .. . ... : ... .. . ... ...
ROW A3 : ... .. 6 ... ... ... : ... .. . P80 ... ... : ... .. . ... : ... .. . ... : ... .. . ... ...
ROW A4 : ... .. . ... ... ... : ... .. . ... ... ... : --- .. . ... : ... .. . ... : ... .. . ... ...
ROW A5 : ... .. . ... ... ... : ... .. . ... ... ... : ... .. . ... : ... .. . ... : ... .. . ... ...
ROW A6 : D#3 00 4 ... ... ... : ... .. . ... ... ... : F-2 00 . ... : ... .. C ... : ... .. . ... ...
ROW A7 : ... .. 5 ... ... ... : ... .. . P7E ... ... : ... .. . ... : ... .. 0 ... : ... .. . ... ...
ROW A8 : ... .. 6 ... ... ... : ... .. . ... ... ... : ... .. . ... : ... .. . ... : ... .. . ... ...
ROW A9 : ... .. . ... ... ... : ... .. . ... ... ... : ... .. . ... : ... .. . ... : ... .. . ... ...
ROW AA : ... .. 7 ... ... ... : ... .. . ... ... ... : ... .. . ... : ... .. . ... : ... .. . ... ...
ROW AB : ... .. . ... ... ... : ... .. . P80 ... ... : ... .. . ... : ... .. . ... : ... .. . ... ...
ROW AC : ... .. . ... ... ... : ... .. . ... ... ... : ... .. . ... : ... .. . ... : ... .. . ... ...
ROW AD : ... .. 6 ... ... ... : ... .. . ... ... ... : ... .. . ... : ... .. . ... : ... .. . ... ...
ROW AE : ... .. . ... ... ... : ... .. . ... ... ... : --- .. . ... : ... .. . ... : ... .. . ... ...
ROW AF : ... .. . ... ... ... : ... .. . P7E ... ... : ... .. . ... : ... .. . ... : ... .. . ... ...
ROW B0 : F-3 00 4 P7F ... ... : ... .. . P7F ... ... : F-2 00 . ... : ... .. C ... : ... .. . ... ...
ROW B1 : ... .. 5 ... ... ... : ... .. . ... ... ... : ... .. . ... : ... .. 0 ... : ... .. . ... ...
ROW B2 : ... .. 6 ... ... ... : ... .. . ... ... ... : ... .. . ... : ... .. . ... : ... .. . ... ...
ROW B3 : ... .. . ... ... ... : ... .. . ... ... ... : ... .. . ... : ... .. . ... : ... .. . ... ...
ROW B4 : ... .. 7 ... ... ... : ... .. . ... ... ... : ... .. . ... : ... .. . ... : ... .. . ... ...
ROW B5 : ... .. . ... ... ... : ... .. . ... ... ... : ... .. . ... : ... .. . ... : ... .. . ... ...
ROW B6 : ... .. . ... ... ... : ... .. . ... ... ... : ... .. . ... : ... .. . ... : ... .. . ... ...
ROW B7 : ... .. 6 ... ... ... : ... .. . ... ... ... : ... .. . ... : ... .. . ... : ... .. . ... ...
ROW B8 : ... .. . ... ... ... : ... .. . ... ... ... : --- .. . ... : ... .. . ... : ... .. . ... ...
ROW B9 : ... .. . ... ... ... : ... .. . ... ... ... : ... .. . ... : ... .. . ... : ... .. . ... ...
ROW BA : ... .. . ... ... ... : ... .. . ... ... ... : ... .. . ... : ... .. . ... : ... .. . ... ...
ROW BB : ... .. 5 ... ... ... : ... .. . ... ... ... : ... .. . ... : ... .. . ... : ... .. . ... ...
ROW BC : ... .. . ... ... ... : ... .. . ... ... ... : ... .. . ... : ... .. . ... : ... .. . ... ...
ROW BD : ... .. . ... ... ... : ... .. . ... ... ... : ... .. . ... : ... .. . ... : ... .. . ... ...
ROW BE : ... .. . ... ... ... : ... .. . ... ... ... : ... .. . ... : ... .. . ... : ... .. . ... ...
ROW BF : ... .. 4 P7E ... ... : ... .. . P7E ... ... : ... .. . P7F : ... .. . ... : ... .. . ... ...
ROW C0 : ... .. . ... ... ... : ... .. . ... ... ... : ... .. . ... : ... .. . ... : ... .. . ... ...
ROW C1 : ... .. . ... ... ... : ... .. . ... ... ... : ... .. . ... : ... .. . ... : ... .. . ... ...
ROW C2 : ... .. . ... ... ... : ... .. . ... ... ... : ... .. . ... : ... .. . ... : ... .. . ... ...
ROW C3 : ... .. . P80 ... ... : ... .. . P80 ... ... : ... .. . P81 : ... .. . ... : ... .. . ... ...
ROW C4 : C-2 00 4 P7F ... ... : ... .. . ... ... ... : F-2 00 . P80 : ... .. C ... : ... .. . ... ...
ROW C5 : ... .. 5 ... ... ... : ... .. . ... ... ... : ... .. . ... : ... .. 0 ... : ... .. . ... ...
ROW C6 : ... .. 6 ... ... ... : ... .. . ... ... ... : ... .. . ... : ... .. . ... : ... .. . ... ...
ROW C7 : ... .. . ... ... ... : ... .. . P7E ... ... : ... .. . ... : ... .. . ... : ... .. . ... ...
ROW C8 : ... .. 7 ... ... ... : ... .. . ... ... ... : ... .. . ... : ... .. . ... : ... .. . ... ...
ROW C9 : ... .. . ... ... ... : ... .. . ... ... ... : ... .. . ... : ... .. . ... : ... .. . ... ...
ROW CA : ... .. . ... ... ... : ... .. . ... ... ... : ... .. . ... : ... .. . ... : ... .. . ... ...
ROW CB : ... .. 6 ... ... ... : ... .. . P80 ... ... : ... .. . ... : ... .. . ... : ... .. . ... ...
ROW CC : ... .. . ... ... ... : ... .. . ... ... ... : --- .. . ... : ... .. . ... : ... .. . ... ...
ROW CD : ... .. . ... ... ... : ... .. . ... ... ... : ... .. . ... : ... .. . ... : ... .. . ... ...
ROW CE : F-1 00 4 ... ... ... : ... .. . ... ... ... : F-2 00 . ... : ... .. C ... : ... .. . ... ...
ROW CF : ... .. 5 ... ... ... : ... .. . P7E ... ... : ... .. . ... : ... .. 0 ... : ... .. . ... ...
ROW D0 : ... .. 6 ... ... ... : ... .. . ... ... ... : ... .. . ... : ... .. . ... : ... .. . ... ...
ROW D1 : ... .. . ... ... ... : ... .. . ... ... ... : ... .. . ... : ... .. . ... : ... .. . ... ...
ROW D2 : ... .. 7 ... ... ... : ... .. . ... ... ... : ... .. . ... : ... .. . ... : ... .. . ... ...
ROW D3 : ... .. . ... ... ... : ... .. . P80 ... ... : ... .. . ... : ... .. . ... : ... .. . ... ...
ROW D4 : ... .. . ... ... ... : ... .. . ... ... ... : ... .. . ... : ... .. . ... : ... .. . ... ...
ROW D5 : ... .. 6 ... ... ... : ... .. . ... ... ... : ... .. . ... : ... .. . ... : ... .. . ... ...
ROW D6 : ... .. . ... ... ... : ... .. . ... ... ... : --- .. . ... : ... .. . ... : ... .. . ... ...
ROW D7 : ... .. . ... ... ... : ... .. . P7E ... ... : ... .. . ... : ... .. . ... : ... .. . ... ...
ROW D8 : C-2 00 4 ... ... ... : ... .. . ... ... ... : F-2 00 . ... : ... .. C ... : ... .. . ... ...
ROW D9 : ... .. 5 ... ... ... : ... .. . ... ... ... : ... .. . ... : ... .. 0 ... : ... .. . ... ...
ROW DA : ... .. 6 ... ... ... : ... .. . ... ... ... : ... .. . ... : ... .. . ... : ... .. . ... ...
ROW DB : ... .. . ... ... ... : ... .. . P80 ... ... : ... .. . ... : ... .. . ... : ... .. . ... ...
ROW DC : ... .. 7 ... ... ... : ... .. . ... ... ... : ... .. . ... : ... .. . ... : ... .. . ... ...
ROW DD : ... .. . ... ... ... : ... .. . ... ... ... : ... .. . ... : ... .. . ... : ... .. . ... ...
ROW DE : ... .. . ... ... ... : ... .. . ... ... ... : ... .. . ... : ... .. . ... : ... .. . ... ...
ROW DF : ... .. 6 ... ... ... : ... .. . P7E ... ... : ... .. . ... : ... .. . ... : ... .. . ... ...
ROW E0 : ... .. . ... ... ... : ... .. . ... ... ... : --- .. . ... : ... .. . ... : ... .. . ... ...
ROW E1 : ... .. . ... ... ... : ... .. . ... ... ... : ... .. . ... : ... .. . ... : ... .. . ... ...
ROW E2 : F-1 00 4 ... ... ... : ... .. . ... ... ... : ... .. . ... : ... .. . ... : ... .. . ... ...
ROW E3 : ... .. 5 ... ... ... : ... .. . P80 ... ... : ... .. . ... : ... .. . ... : ... .. . ... ...
ROW E4 : ... .. 6 ... ... ... : ... .. . ... ... ... : ... .. . ... : ... .. . ... : ... .. . ... ...
ROW E5 : ... .. . ... ... ... : ... .. . ... ... ... : ... .. . ... : ... .. . ... : ... .. . ... ...
ROW E6 : ... .. 7 ... ... ... : ... .. . ... ... ... : ... .. . ... : ... .. . ... : ... .. . ... ...
ROW E7 : ... .. . ... ... ... : ... .. . P7E ... ... : ... .. . P7F : ... .. . ... : ... .. . ... ...
ROW E8 : ... .. . ... ... ... : ... .. . ... ... ... : ... .. . ... : ... .. . ... : ... .. . ... ...
ROW E9 : ... .. 6 ... ... ... : ... .. . ... ... ... : ... .. . ... : ... .. . ... : ... .. . ... ...
ROW EA : ... .. . ... ... ... : ... .. . ... ... ... : ... .. . ... : ... .. . ... : ... .. . ... ...
ROW EB : ... .. . ... ... ... : ... .. . P80 ... ... : ... .. . P81 : ... .. . ... : ... .. . ... ...
ROW EC : C-2 00 4 ... ... ... : ... .. . ... ... ... : F-2 00 . P80 : ... .. C ... : ... .. . ... ...
ROW ED : ... .. 5 ... ... ... : ... .. . ... ... ... : ... .. . ... : ... .. 0 ... : ... .. . ... ...
ROW EE : ... .. 6 ... ... ... : ... .. . ... ... ... : ... .. . ... : ... .. . ... : ... .. . ... ...
ROW EF : ... .. . ... ... ... : ... .. . P7E ... ... : ... .. . ... : ... .. . ... : ... .. . ... ...
ROW F0 : ... .. 7 ... ... ... : ... .. . ... ... ... : ... .. . ... : ... .. . ... : ... .. . ... ...
ROW F1 : ... .. . ... ... ... : ... .. . ... ... ... : ... .. . ... : ... .. . ... : ... .. . ... ...
ROW F2 : ... .. . ... ... ... : ... .. . ... ... ... : ... .. . ... : ... .. . ... : ... .. . ... ...
ROW F3 : ... .. 6 ... ... ... : ... .. . P80 ... ... : ... .. . ... : ... .. . ... : ... .. . ... ...
ROW F4 : ... .. . ... ... ... : ... .. . ... ... ... : --- .. . ... : ... .. . ... : ... .. . ... ...
ROW F5 : ... .. . ... ... ... : ... .. . ... ... ... : ... .. . ... : ... .. . ... : ... .. . ... ...
ROW F6 : F-1 00 4 ... ... ... : ... .. . ... ... ... : F-2 00 . ... : ... .. C ... : ... .. . ... ...
ROW F7 : ... .. 5 ... ... ... : ... .. . P7E ... ... : ... .. . ... : ... .. 0 ... : ... .. . ... ...
ROW F8 : ... .. 6 ... ... ... : ... .. . ... ... ... : ... .. . ... : ... .. . ... : ... .. . ... ...
ROW F9 : ... .. . ... ... ... : ... .. . ... ... ... : ... .. . ... : ... .. . ... : ... .. . ... ...
ROW FA : ... .. 7 ... ... ... : ... .. . ... ... ... : ... .. . ... : ... .. . ... : ... .. . ... ...
ROW FB : ... .. . ... ... ... : ... .. . P80 ... ... : ... .. . ... : ... .. . ... : ... .. . ... ...
ROW FC : ... .. . ... ... ... : ... .. . ... ... ... : ... .. . ... : ... .. . ... : ... .. . ... ...
ROW FD : ... .. 6 ... ... ... : ... .. . ... ... ... : ... .. . ... : ... .. . ... : ... .. . ... ...
ROW FE : ... .. . ... ... ... : ... .. . ... ... ... : --- .. . ... : ... .. . ... : ... .. . ... ...
ROW FF : ... .. . ... ... ... : ... .. . P7E ... ... : ... .. . ... : ... .. . ... : ... .. . ... ...

PATTERN 19
ROW 00 : D-3 00 7 P80 ... ... : A#3 00 7 P80 ... ... : A#2 00 . ... : ... .. C ... : ... .. . ... ...
ROW 01 : ... .. . ... ... ... : ... .. . ... ... ... : ... .. . ... : ... .. 0 ... : ... .. . ... ...
ROW 02 : ... .. 8 ... ... ... : ... .. 8 ... ... ... : ... .. . ... : ... .. . ... : ... .. . ... ...
ROW 03 : ... .. . ... ... ... : ... .. . ... ... ... : ... .. . ... : ... .. . ... : ... .. . ... ...
ROW 04 : ... .. 9 ... ... ... : ... .. 9 ... ... ... : ... .. . ... : ... .. . ... : ... .. . ... ...
ROW 05 : ... .. . ... ... ... : ... .. . ... ... ... : ... .. . ... : ... .. . ... : ... .. . ... ...
ROW 06 : ... .. . ... ... ... : ... .. . ... ... ... : ... .. . ... : ... .. . ... : ... .. . ... ...
ROW 07 : ... .. 8 ... ... ... : ... .. 8 ... ... ... : ... .. . ... : ... .. . ... : ... .. . ... ...
ROW 08 : ... .. . ... ... ... : ... .. . ... ... ... : --- .. . ... : ... .. . ... : ... .. . ... ...
ROW 09 : ... .. . ... ... ... : ... .. . ... ... ... : ... .. . ... : ... .. . ... : ... .. . ... ...
ROW 0A : ... .. . ... ... ... : ... .. . ... ... ... : ... .. . ... : ... .. . ... : ... .. . ... ...
ROW 0B : ... .. 7 ... ... ... : ... .. 7 ... ... ... : ... .. . ... : ... .. . ... : ... .. . ... ...
ROW 0C : ... .. . ... ... ... : ... .. . ... ... ... : ... .. . ... : ... .. . ... : ... .. . ... ...
ROW 0D : ... .. . ... ... ... : ... .. . ... ... ... : ... .. . ... : ... .. . ... : ... .. . ... ...
ROW 0E : ... .. . ... ... ... : ... .. . ... ... ... : ... .. . ... : ... .. . ... : ... .. . ... ...
ROW 0F : ... .. 6 P7F ... ... : ... .. 6 P7F ... ... : ... .. . P7F : ... .. . ... : ... .. . ... ...
ROW 10 : ... .. . ... ... ... : ... .. . ... ... ... : ... .. . ... : ... .. . ... : ... .. . ... ...
ROW 11 : ... .. . ... ... ... : ... .. . ... ... ... : ... .. . ... : ... .. . ... : ... .. . ... ...
ROW 12 : ... .. . ... ... ... : ... .. . ... ... ... : ... .. . ... : ... .. . ... : ... .. . ... ...
ROW 13 : ... .. . P81 ... ... : ... .. . P81 ... ... : ... .. . P81 : ... .. . ... : ... .. . ... ...
ROW 14 : ... .. 4 P80 ... ... : ... .. 4 P80 ... ... : A#2 00 . P80 : ... .. C ... : ... .. . ... ...
ROW 15 : ... .. . ... ... ... : ... .. . ... ... ... : ... .. . ... : ... .. 0 ... : ... .. . ... ...
ROW 16 : ... .. . ... ... ... : ... .. . ... ... ... : ... .. . ... : ... .. . ... : ... .. . ... ...
ROW 17 : ... .. . ... ... ... : ... .. . ... ... ... : ... .. . ... : ... .. . ... : ... .. . ... ...
ROW 18 : ... .. . ... ... ... : ... .. . ... ... ... : ... .. . ... : ... .. . ... : ... .. . ... ...
ROW 19 : ... .. . ... ... ... : ... .. . ... ... ... : ... .. . ... : ... .. . ... : ... .. . ... ...
ROW 1A : ... .. . ... ... ... : ... .. . ... ... ... : ... .. . ... : ... .. . ... : ... .. . ... ...
ROW 1B : ... .. . ... ... ... : ... .. . ... ... ... : ... .. . ... : ... .. . ... : ... .. . ... ...
ROW 1C : ... .. . ... ... ... : ... .. . ... ... ... : --- .. . ... : ... .. . ... : ... .. . ... ...
ROW 1D : ... .. . ... ... ... : ... .. . ... ... ... : ... .. . ... : ... .. . ... : ... .. . ... ...
ROW 1E : ... .. . ... ... ... : ... .. . ... ... ... : A#2 00 . ... : ... .. C ... : ... .. . ... ...
ROW 1F : ... .. . ... ... ... : ... .. . ... ... ... : ... .. . ... : ... .. 0 ... : ... .. . ... ...
ROW 20 : ... .. . ... ... ... : ... .. . ... ... ... : ... .. . ... : ... .. . ... : ... .. . ... ...
ROW 21 : ... .. . ... ... ... : ... .. . ... ... ... : ... .. . ... : ... .. . ... : ... .. . ... ...
ROW 22 : ... .. . ... ... ... : ... .. . ... ... ... : ... .. . ... : ... .. . ... : ... .. . ... ...
ROW 23 : ... .. . P7F ... ... : ... .. . P7F ... ... : ... .. . ... : ... .. . ... : ... .. . ... ...
ROW 24 : ... .. . ... ... ... : ... .. . ... ... ... : ... .. . ... : ... .. . ... : ... .. . ... ...
ROW 25 : ... .. . ... ... ... : ... .. . ... ... ... : ... .. . ... : ... .. . ... : ... .. . ... ...
ROW 26 : ... .. . ... ... ... : ... .. . ... ... ... : --- .. . ... : ... .. . ... : ... .. . ... ...
ROW 27 : ... .. . P81 ... ... : ... .. . P81 ... ... : ... .. . ... : ... .. . ... : ... .. . ... ...
ROW 28 : ... .. 7 P80 ... ... : F-3 00 7 P7F ... ... : A#2 00 . ... : ... .. C ... : ... .. . ... ...
ROW 29 : ... .. . ... ... ... : ... .. . ... ... ... : ... .. . ... : ... .. 0 ... : ... .. . ... ...
ROW 2A : ... .. 8 ... ... ... : ... .. 8 ... ... ... : ... .. . ... : ... .. . ... : ... .. . ... ...
ROW 2B : ... .. . ... ... ... : ... .. . ... ... ... : ... .. . ... : ... .. . ... : ... .. . ... ...
ROW 2C : ... .. 9 ... ... ... : ... .. 9 ... ... ... : ... .. . ... : ... .. . ... : ... .. . ... ...
ROW 2D : ... .. . ... ... ... : ... .. . ... ... ... : ... .. . ... : ... .. . ... : ... .. . ... ...
ROW 2E : ... .. . ... ... ... : ... .. . ... ... ... : ... .. . ... : ... .. . ... : ... .. . ... ...
ROW 2F : ... .. 8 ... ... ... : ... .. 8 ... ... ... : ... .. . ... : ... .. . ... : ... .. . ... ...
ROW 30 : ... .. . ... ... ... : ... .. . ... ... ... : --- .. . ... : ... .. . ... : ... .. . ... ...
ROW 31 : ... .. . ... ... ... : ... .. . ... ... ... : ... .. . ... : ... .. . ... : ... .. . ... ...
ROW 32 : ... .. . ... ... ... : ... .. . ... ... ... : ... .. . ... : ... .. . ... : ... .. . ... ...
ROW 33 : ... .. 7 ... ... ... : ... .. 7 ... ... ... : ... .. . ... : ... .. . ... : ... .. . ... ...
ROW 34 : ... .. . ... ... ... : ... .. . ... ... ... : ... .. . ... : ... .. . ... : ... .. . ... ...
ROW 35 : ... .. . ... ... ... : ... .. . ... ... ... : ... .. . ... : ... .. . ... : ... .. . ... ...
ROW 36 : ... .. . ... ... ... : ... .. . ... ... ... : ... .. . ... : ... .. . ... : ... .. . ... ...
ROW 37 : ... .. 8 ... ... ... : ... .. 6 P7E ... ... : ... .. . P7F : ... .. . ... : ... .. . ... ...
ROW 38 : ... .. . ... ... ... : ... .. . ... ... ... : ... .. . ... : ... .. . ... : ... .. . ... ...
ROW 39 : ... .. 9 ... ... ... : ... .. . ... ... ... : ... .. . ... : ... .. . ... : ... .. . ... ...
ROW 3A : ... .. . ... ... ... : ... .. . ... ... ... : ... .. . ... : ... .. . ... : ... .. . ... ...
ROW 3B : ... .. . ... ... ... : ... .. . P80 ... ... : ... .. . P81 : ... .. . ... : ... .. . ... ...
ROW 3C : ... .. 8 ... ... ... : ... .. . ... ... ... : A#2 00 . P80 : ... .. C ... : ... .. . ... ...
ROW 3D : ... .. . ... ... ... : ... .. . ... ... ... : ... .. . ... : ... .. 0 ... : ... .. . ... ...
ROW 3E : ... .. . ... ... ... : ... .. . ... ... ... : ... .. . ... : ... .. . ... : ... .. . ... ...
ROW 3F : ... .. . ... ... ... : ... .. 5 P7E ... ... : ... .. . ... : ... .. . ... : ... .. . ... ...
ROW 40 : ... .. 7 ... ... ... : ... .. . ... ... ... : ... .. . ... : ... .. . ... : ... .. . ... ...
ROW 41 : ... .. . ... ... ... : ... .. . ... ... ... : ... .. . ... : ... .. . ... : ... .. . ... ...
ROW 42 : C-3 00 7 ... ... ... : ... .. . ... ... ... : ... .. . ... : ... .. . ... : ... .. . ... ...
ROW 43 : ... .. . ... ... ... : ... .. . P80 ... ... : ... .. . ... : ... .. . ... : ... .. . ... ...
ROW 44 : ... .. 8 ... ... ... : ... .. 4 ... ... ... : --- .. . ... : ... .. . ... : ... .. . ... ...
ROW 45 : ... .. . ... ... ... : ... .. . ... ... ... : ... .. . ... : ... .. . ... : ... .. . ... ...
ROW 46 : ... .. 9 ... ... ... : ... .. . ... ... ... : A#2 00 . ... : ... .. C ... : ... .. . ... ...
ROW 47 : ... .. . ... ... ... : ... .. . P7E ... ... : ... .. . ... : ... .. 0 ... : ... .. . ... ...
ROW 48 : ... .. . ... ... ... : ... .. . ... ... ... : ... .. . ... : ... .. . ... : ... .. . ... ...
ROW 49 : ... .. 8 ... ... ... : ... .. . ... ... ... : ... .. . ... : ... .. . ... : ... .. . ... ...
ROW 4A : ... .. . ... ... ... : ... .. . ... ... ... : ... .. . ... : ... .. . ... : ... .. . ... ...
ROW 4B : ... .. . ... ... ... : ... .. . P80 ... ... : ... .. . ... : ... .. . ... : ... .. . ... ...
ROW 4C : ... .. . ... ... ... : ... .. . ... ... ... : ... .. . ... : ... .. . ... : ... .. . ... ...
ROW 4D : ... .. 7 ... ... ... : ... .. . ... ... ... : ... .. . ... : ... .. . ... : ... .. . ... ...
ROW 4E : ... .. . ... ... ... : ... .. . ... ... ... : --- .. . ... : ... .. . ... : ... .. . ... ...
ROW 4F : ... .. . ... ... ... : ... .. . P7E ... ... : ... .. . ... : ... .. . ... : ... .. . ... ...
ROW 50 : D-3 00 7 ... ... ... : ... .. . ... ... ... : A#2 00 . ... : ... .. C ... : ... .. . ... ...
ROW 51 : ... .. . ... ... ... : ... .. . ... ... ... : ... .. . ... : ... .. 0 ... : ... .. . ... ...
ROW 52 : ... .. 8 ... ... ... : ... .. . ... ... ... : ... .. . ... : ... .. . ... : ... .. . ... ...
ROW 53 : ... .. . ... ... ... : ... .. . P80 ... ... : ... .. . ... : ... .. . ... : ... .. . ... ...
ROW 54 : ... .. 9 ... ... ... : ... .. . ... ... ... : ... .. . ... : ... .. . ... : ... .. . ... ...
ROW 55 : ... .. . ... ... ... : ... .. . ... ... ... : ... .. . ... : ... .. . ... : ... .. . ... ...
ROW 56 : ... .. . ... ... ... : ... .. . ... ... ... : ... .. . ... : ... .. . ... : ... .. . ... ...
ROW 57 : ... .. 8 ... ... ... : ... .. . P7E ... ... : ... .. . ... : ... .. . ... : ... .. . ... ...
ROW 58 : ... .. . ... ... ... : ... .. . ... ... ... : --- .. . ... : ... .. . ... : ... .. . ... ...
ROW 59 : ... .. . ... ... ... : ... .. . ... ... ... : ... .. . ... : ... .. . ... : ... .. . ... ...
ROW 5A : ... .. . ... ... ... : ... .. . ... ... ... : ... .. . ... : ... .. . ... : ... .. . ... ...
ROW 5B : ... .. 7 ... ... ... : ... .. . P80 ... ... : ... .. . ... : ... .. . ... : ... .. . ... ...
ROW 5C : ... .. . ... ... ... : ... .. . ... ... ... : ... .. . ... : ... .. . ... : ... .. . ... ...
ROW 5D : ... .. . ... ... ... : ... .. . ... ... ... : ... .. . ... : ... .. . ... : ... .. . ... ...
ROW 5E : ... .. . ... ... ... : ... .. . ... ... ... : ... .. . ... : ... .. . ... : ... .. . ... ...
ROW 5F : ... .. 6 P7F ... ... : ... .. . P7E ... ... : ... .. . P7F : ... .. . ... : ... .. . ... ...
ROW 60 : ... .. . ... ... ... : ... .. . ... ... ... : ... .. . ... : ... .. . ... : ... .. . ... ...
ROW 61 : ... .. . ... ... ... : ... .. . ... ... ... : ... .. . ... : ... .. . ... : ... .. . ... ...
ROW 62 : ... .. . ... ... ... : ... .. . ... ... ... : ... .. . ... : ... .. . ... : ... .. . ... ...
ROW 63 : ... .. . P81 ... ... : ... .. . P80 ... ... : ... .. . P81 : ... .. . ... : ... .. . ... ...
ROW 64 : ... .. 4 P80 ... ... : A#3 00 7 ... ... ... : A#2 00 . P80 : ... .. C ... : ... .. . ... ...
ROW 65 : ... .. . ... ... ... : ... .. . ... ... ... : ... .. . ... : ... .. 0 ... : ... .. . ... ...
ROW 66 : ... .. . ... ... ... : ... .. 8 ... ... ... : ... .. . ... : ... .. . ... : ... .. . ... ...
ROW 67 : ... .. . ... ... ... : ... .. . ... ... ... : ... .. . ... : ... .. . ... : ... .. . ... ...
ROW 68 : ... .. . ... ... ... : ... .. 9 ... ... ... : ... .. . ... : ... .. . ... : ... .. . ... ...
ROW 69 : ... .. . ... ... ... : ... .. . ... ... ... : ... .. . ... : ... .. . ... : ... .. . ... ...
ROW 6A : ... .. . ... ... ... : ... .. . ... ... ... : ... .. . ... : ... .. . ... : ... .. . ... ...
ROW 6B : ... .. . ... ... ... : ... .. 8 ... ... ... : ... .. . ... : ... .. . ... : ... .. . ... ...
ROW 6C : ... .. . ... ... ... : ... .. . ... ... ... : --- .. . ... : ... .. . ... : ... .. . ... ...
ROW 6D : ... .. . ... ... ... : ... .. . ... ... ... : ... .. . ... : ... .. . ... : ... .. . ... ...
ROW 6E : ... .. 7 ... ... ... : ... .. . ... ... ... : A#2 00 . ... : ... .. C ... : ... .. . ... ...
ROW 6F : ... .. . ... ... ... : ... .. 7 ... ... ... : ... .. . ... : ... .. 0 ... : ... .. . ... ...
ROW 70 : ... .. 8 ... ... ... : ... .. . ... ... ... : ... .. . ... : ... .. . ... : ... .. . ... ...
ROW 71 : ... .. . ... ... ... : ... .. . ... ... ... : ... .. . ... : ... .. . ... : ... .. . ... ...
ROW 72 : ... .. 9 ... ... ... : ... .. . ... ... ... : ... .. . ... : ... .. . ... : ... .. . ... ...
ROW 73 : ... .. . ... ... ... : ... .. 6 P7F ... ... : ... .. . ... : ... .. . ... : ... .. . ... ...
ROW 74 : ... .. . ... ... ... : ... .. . ... ... ... : ... .. . ... : ... .. . ... : ... .. . ... ...
ROW 75 : ... .. 8 ... ... ... : ... .. . ... ... ... : ... .. . ... : ... .. . ... : ... .. . ... ...
ROW 76 : ... .. . ... ... ... : ... .. . ... ... ... : --- .. . ... : ... .. . ... : ... .. . ... ...
ROW 77 : ... .. . ... ... ... : ... .. . P81 ... ... : ... .. . ... : ... .. . ... : ... .. . ... ...
ROW 78 : ... .. 7 ... ... ... : ... .. 7 P80 ... ... : A#2 00 . ... : ... .. C ... : ... .. . ... ...
ROW 79 : ... .. . ... ... ... : ... .. . ... ... ... : ... .. . ... : ... .. 0 ... : ... .. . ... ...
ROW 7A : ... .. 8 ... ... ... : ... .. 8 ... ... ... : ... .. . ... : ... .. . ... : ... .. . ... ...
ROW 7B : ... .. . ... ... ... : ... .. . ... ... ... : ... .. . ... : ... .. . ... : ... .. . ... ...
ROW 7C : ... .. 9 ... ... ... : ... .. 9 ... ... ... : ... .. . ... : ... .. . ... : ... .. . ... ...
ROW 7D : ... .. . ... ... ... : ... .. . ... ... ... : ... .. . ... : ... .. . ... : ... .. . ... ...
ROW 7E : ... .. . ... ... ... : ... .. . ... ... ... : ... .. . ... : ... .. . ... : ... .. . ... ...
ROW 7F : ... .. 8 ... ... ... : ... .. 8 ... ... ... : ... .. . ... : ... .. . ... : ... .. . ... ...
ROW 80 : ... .. . ... ... ... : ... .. . ... ... ... : --- .. . ... : ... .. . ... : ... .. . ... ...
ROW 81 : ... .. . ... ... ... : ... .. . ... ... ... : ... .. . ... : ... .. . ... : ... .. . ... ...
ROW 82 : D#3 00 7 ... ... ... : C-4 00 7 ... ... ... : ... .. . ... : ... .. . ... : ... .. . ... ...
ROW 83 : ... .. . ... ... ... : ... .. . ... ... ... : ... .. . ... : ... .. . ... : ... .. . ... ...
ROW 84 : ... .. 8 ... ... ... : ... .. 8 ... ... ... : ... .. . ... : ... .. . ... : ... .. . ... ...
ROW 85 : ... .. . ... ... ... : ... .. . ... ... ... : ... .. . ... : ... .. . ... : ... .. . ... ...
ROW 86 : ... .. 9 ... ... ... : ... .. 9 ... ... ... : ... .. . ... : ... .. . ... : ... .. . ... ...
ROW 87 : ... .. . ... ... ... : ... .. . ... ... ... : ... .. . P7F : ... .. . ... : ... .. . ... ...
ROW 88 : ... .. . ... ... ... : ... .. . ... ... ... : ... .. . ... : ... .. . ... : ... .. . ... ...
ROW 89 : ... .. 8 ... ... ... : ... .. 8 ... ... ... : ... .. . ... : ... .. . ... : ... .. . ... ...
ROW 8A : ... .. . ... ... ... : ... .. . ... ... ... : ... .. . ... : ... .. . ... : ... .. . ... ...
ROW 8B : ... .. . ... ... ... : ... .. . ... ... ... : ... .. . P81 : ... .. . ... : ... .. . ... ...
ROW 8C : F-3 00 7 P7F ... ... : D-4 00 7 P7F ... ... : A#2 00 . P80 : ... .. C ... : ... .. . ... ...
ROW 8D : ... .. . ... ... ... : ... .. . ... ... ... : ... .. . ... : ... .. 0 ... : ... .. . ... ...
ROW 8E : ... .. 8 ... ... ... : ... .. 8 ... ... ... : ... .. . ... : ... .. . ... : ... .. . ... ...
ROW 8F : ... .. . ... ... ... : ... .. . ... ... ... : ... .. . ... : ... .. . ... : ... .. . ... ...
ROW 90 : ... .. 9 ... ... ... : ... .. 9 ... ... ... : ... .. . ... : ... .. . ... : ... .. . ... ...
ROW 91 : ... .. . ... ... ... : ... .. . ... ... ... : ... .. . ... : ... .. . ... : ... .. . ... ...
ROW 92 : ... .. . ... ... ... : ... .. . ... ... ... : ... .. . ... : ... .. . ... : ... .. . ... ...
ROW 93 : ... .. 8 ... ... ... : ... .. 8 ... ... ... : ... .. . ... : ... .. . ... : ... .. . ... ...
ROW 94 : ... .. . ... ... ... : ... .. . ... ... ... : --- .. . ... : ... .. . ... : ... .. . ... ...
ROW 95 : ... .. . ... ... ... : ... .. . ... ... ... : ... .. . ... : ... .. . ... : ... .. . ... ...
ROW 96 : G-3 00 7 ... ... ... : D#4 00 7 P80 ... ... : A#2 00 . ... : ... .. C ... : ... .. . ... ...
ROW 97 : ... .. . ... ... ... : ... .. . ... ... ... : ... .. . ... : ... .. 0 ... : ... .. . ... ...
ROW 98 : ... .. 8 ... ... ... : ... .. 8 ... ... ... : ... .. . ... : ... .. . ... : ... .. . ... ...
ROW 99 : ... .. . ... ... ... : ... .. . ... ... ... : ... .. . ... : ... .. . ... : ... .. . ... ...
ROW 9A : ... .. 9 ... ... ... : ... .. 9 ... ... ... : ... .. . ... : ... .. . ... : ... .. . ... ...
ROW 9B : ... .. . ... ... ... : ... .. . ... ... ... : ... .. . ... : ... .. . ... : ... .. . ... ...
ROW 9C : ... .. . ... ... ... : ... .. . ... ... ... : ... .. . ... : ... .. . ... : ... .. . ... ...
ROW 9D : ... .. 8 ... ... ... : ... .. 8 ... ... ... : ... .. . ... : ... .. . ... : ... .. . ... ...
ROW 9E : ... .. . ... ... ... : ... .. . ... ... ... : --- .. . ... : ... .. . ... : ... .. . ... ...
ROW 9F : ... .. . ... ... ... : ... .. . ... ... ... : ... .. . ... : ... .. . ... : ... .. . ... ...
ROW A0 : G#3 00 7 ... ... ... : F-4 00 7 P7F ... ... : G#2 00 . ... : ... .. C ... : ... .. . ... ...
ROW A1 : ... .. . ... ... ... : ... .. . ... ... ... : ... .. . ... : ... .. 0 ... : ... .. . ... ...
ROW A2 : ... .. 8 ... ... ... : ... .. 8 ... ... ... : ... .. . ... : ... .. . ... : ... .. . ... ...
ROW A3 : ... .. . ... ... ... : ... .. . ... ... ... : ... .. . ... : ... .. . ... : ... .. . ... ...
ROW A4 : ... .. 9 ... ... ... : ... .. 9 ... ... ... : ... .. . ... : ... .. . ... : ... .. . ... ...
ROW A5 : ... .. . ... ... ... : ... .. . ... ... ... : ... .. . ... : ... .. . ... : ... .. . ... ...
ROW A6 : ... .. . ... ... ... : ... .. . ... ... ... : ... .. . ... : ... .. . ... : ... .. . ... ...
ROW A7 : ... .. 8 ... ... ... : ... .. 8 ... ... ... : ... .. . ... : ... .. . ... : ... .. . ... ...
ROW A8 : ... .. . ... ... ... : ... .. . ... ... ... : --- .. . ... : ... .. . ... : ... .. . ... ...
ROW A9 : ... .. . ... ... ... : ... .. . ... ... ... : ... .. . ... : ... .. . ... : ... .. . ... ...
ROW AA : ... .. . ... ... ... : ... .. . ... ... ... : ... .. . ... : ... .. . ... : ... .. . ... ...
ROW AB : ... .. 7 ... ... ... : ... .. 7 ... ... ... : ... .. . ... : ... .. . ... : ... .. . ... ...
ROW AC : ... .. . ... ... ... : ... .. . ... ... ... : ... .. . ... : ... .. . ... : ... .. . ... ...
ROW AD : ... .. . ... ... ... : ... .. . ... ... ... : ... .. . ... : ... .. . ... : ... .. . ... ...
ROW AE : ... .. . ... ... ... : ... .. . ... ... ... : ... .. . ... : ... .. . ... : ... .. . ... ...
ROW AF : ... .. 6 P7E ... ... : ... .. 6 P7E ... ... : ... .. . P7F : ... .. . ... : ... .. . ... ...
ROW B0 : ... .. . ... ... ... : ... .. . ... ... ... : ... .. . ... : ... .. . ... : ... .. . ... ...
ROW B1 : ... .. . ... ... ... : ... .. . ... ... ... : ... .. . ... : ... .. . ... : ... .. . ... ...
ROW B2 : ... .. . ... ... ... : ... .. . ... ... ... : ... .. . ... : ... .. . ... : ... .. . ... ...
ROW B3 : ... .. . P80 ... ... : ... .. . P80 ... ... : ... .. . P81 : ... .. . ... : ... .. . ... ...
ROW B4 : ... .. 4 P7F ... ... : ... .. . ... ... ... : G#2 00 . P80 : ... .. C ... : ... .. . ... ...
ROW B5 : ... .. . ... ... ... : ... .. . ... ... ... : ... .. . ... : ... .. 0 ... : ... .. . ... ...
ROW B6 : ... .. . ... ... ... : ... .. . ... ... ... : ... .. . ... : ... .. . ... : ... .. . ... ...
ROW B7 : ... .. . ... ... ... : ... .. 5 P7E ... ... : ... .. . ... : ... .. . ... : ... .. . ... ...
ROW B8 : ... .. . ... ... ... : ... .. . ... ... ... : ... .. . ... : ... .. . ... : ... .. . ... ...
ROW B9 : ... .. . ... ... ... : ... .. . ... ... ... : ... .. . ... : ... .. . ... : ... .. . ... ...
ROW BA : ... .. . ... ... ... : ... .. . ... ... ... : ... .. . ... : ... .. . ... : ... .. . ... ...
ROW BB : ... .. . ... ... ... : ... .. . P80 ... ... : ... .. . ... : ... .. . ... : ... .. . ... ...
ROW BC : ... .. . ... ... ... : ... .. 4 ... ... ... : --- .. . ... : ... .. . ... : ... .. . ... ...
ROW BD : ... .. . ... ... ... : ... .. . ... ... ... : ... .. . ... : ... .. . ... : ... .. . ... ...
ROW BE : A#3 00 7 P80 ... ... : ... .. . ... ... ... : G#2 00 . ... : ... .. C ... : ... .. . ... ...
ROW BF : ... .. . ... ... ... : ... .. . P7E ... ... : ... .. . ... : ... .. 0 ... : ... .. . ... ...
ROW C0 : ... .. 8 ... ... ... : ... .. . ... ... ... : ... .. . ... : ... .. . ... : ... .. . ... ...
ROW C1 : ... .. . ... ... ... : ... .. . ... ... ... : ... .. . ... : ... .. . ... : ... .. . ... ...
ROW C2 : ... .. 9 ... ... ... : ... .. . ... ... ... : ... .. . ... : ... .. . ... : ... .. . ... ...
ROW C3 : ... .. . ... ... ... : ... .. . P80 ... ... : ... .. . ... : ... .. . ... : ... .. . ... ...
ROW C4 : ... .. . ... ... ... : ... .. . ... ... ... : ... .. . ... : ... .. . ... : ... .. . ... ...
ROW C5 : ... .. 8 ... ... ... : ... .. . ... ... ... : ... .. . ... : ... .. . ... : ... .. . ... ...
ROW C6 : ... .. . ... ... ... : ... .. . ... ... ... : --- .. . ... : ... .. . ... : ... .. . ... ...
ROW C7 : ... .. . ... ... ... : ... .. . P7E ... ... : ... .. . ... : ... .. . ... : ... .. . ... ...
ROW C8 : ... .. 7 ... ... ... : ... .. . ... ... ... : G#2 00 . ... : ... .. C ... : ... .. . ... ...
ROW C9 : ... .. . ... ... ... : ... .. . ... ... ... : ... .. . ... : ... .. 0 ... : ... .. . ... ...
ROW CA : ... .. 8 ... ... ... : ... .. . ... ... ... : ... .. . ... : ... .. . ... : ... .. . ... ...
ROW CB : ... .. . ... ... ... : ... .. . P80 ... ... : ... .. . ... : ... .. . ... : ... .. . ... ...
ROW CC : ... .. 9 ... ... ... : ... .. . ... ... ... : ... .. . ... : ... .. . ... : ... .. . ... ...
ROW CD : ... .. . ... ... ... : ... .. . ... ... ... : ... .. . ... : ... .. . ... : ... .. . ... ...
ROW CE : ... .. . ... ... ... : ... .. . ... ... ... : ... .. . ... : ... .. . ... : ... .. . ... ...
ROW CF : ... .. 8 ... ... ... : ... .. . P7E ... ... : ... .. . ... : ... .. . ... : ... .. . ... ...
ROW D0 : ... .. . ... ... ... : ... .. . ... ... ... : --- .. . ... : ... .. . ... : ... .. . ... ...
ROW D1 : ... .. . ... ... ... : ... .. . ... ... ... : ... .. . ... : ... .. . ... : ... .. . ... ...
ROW D2 : C-4 00 7 ... ... ... : ... .. . ... ... ... : ... .. . ... : ... .. . ... : ... .. . ... ...
ROW D3 : ... .. . ... ... ... : ... .. . P80 ... ... : ... .. . ... : ... .. . ... : ... .. . ... ...
ROW D4 : ... .. 8 ... ... ... : ... .. . ... ... ... : ... .. . ... : ... .. . ... : ... .. . ... ...
ROW D5 : ... .. . ... ... ... : ... .. . ... ... ... : ... .. . ... : ... .. . ... : ... .. . ... ...
ROW D6 : ... .. 9 ... ... ... : ... .. . ... ... ... : ... .. . ... : ... .. . ... : ... .. . ... ...
ROW D7 : ... .. . ... ... ... : ... .. . P7E ... ... : ... .. . P7F : ... .. . ... : ... .. . ... ...
ROW D8 : ... .. . ... ... ... : ... .. . ... ... ... : ... .. . ... : ... .. . ... : ... .. . ... ...
ROW D9 : ... .. 8 ... ... ... : ... .. . ... ... ... : ... .. . ... : ... .. . ... : ... .. . ... ...
ROW DA : ... .. . ... ... ... : ... .. . ... ... ... : ... .. . ... : ... .. . ... : ... .. . ... ...
ROW DB : ... .. . ... ... ... : ... .. . P80 ... ... : ... .. . P81 : ... .. . ... : ... .. . ... ...
ROW DC : D-4 00 7 P7F ... ... : ... .. . ... ... ... : G#2 00 . P80 : ... .. C ... : ... .. . ... ...
ROW DD : ... .. . ... ... ... : ... .. . ... ... ... : ... .. . ... : ... .. 0 ... : ... .. . ... ...
ROW DE : ... .. 8 ... ... ... : ... .. . ... ... ... : ... .. . ... : ... .. . ... : ... .. . ... ...
ROW DF : ... .. . ... ... ... : ... .. . P7E ... ... : ... .. . ... : ... .. . ... : ... .. . ... ...
ROW E0 : ... .. 9 ... ... ... : ... .. . ... ... ... : ... .. . ... : ... .. . ... : ... .. . ... ...
ROW E1 : ... .. . ... ... ... : ... .. . ... ... ... : ... .. . ... : ... .. . ... : ... .. . ... ...
ROW E2 : ... .. . ... ... ... : ... .. . ... ... ... : ... .. . ... : ... .. . ... : ... .. . ... ...
ROW E3 : ... .. 8 ... ... ... : ... .. . P80 ... ... : ... .. . ... : ... .. . ... : ... .. . ... ...
ROW E4 : ... .. . ... ... ... : ... .. . ... ... ... : --- .. . ... : ... .. . ... : ... .. . ... ...
ROW E5 : ... .. . ... ... ... : ... .. . ... ... ... : ... .. . ... : ... .. . ... : ... .. . ... ...
ROW E6 : D#4 00 7 P80 ... ... : ... .. . ... ... ... : G#2 00 . ... : ... .. C ... : ... .. . ... ...
ROW E7 : ... .. . ... ... ... : ... .. . P7E ... ... : ... .. . ... : ... .. 0 ... : ... .. . ... ...
ROW E8 : ... .. 8 ... ... ... : ... .. . ... ... ... : ... .. . ... : ... .. . ... : ... .. . ... ...
ROW E9 : ... .. . ... ... ... : ... .. . ... ... ... : ... .. . ... : ... .. . ... : ... .. . ... ...
ROW EA : ... .. 9 ... ... ... : ... .. . ... ... ... : ... .. . ... : ... .. . ... : ... .. . ... ...
ROW EB : ... .. . ... ... ... : ... .. . P80 ... ... : ... .. . ... : ... .. . ... : ... .. . ... ...
ROW EC : ... .. . ... ... ... : ... .. . ... ... ... : ... .. . ... : ... .. . ... : ... .. . ... ...
ROW ED : ... .. 8 ... ... ... : ... .. . ... ... ... : ... .. . ... : ... .. . ... : ... .. . ... ...
ROW EE : ... .. . ... ... ... : ... .. . ... ... ... : --- .. . ... : ... .. . ... : ... .. . ... ...
ROW EF : ... .. . ... ... ... : ... .. . P7E ... ... : ... .. . ... : ... .. . ... : ... .. . ... ...
ROW F0 : F-4 00 7 P7F ... ... : ... .. . P7F ... ... : G#2 00 . ... : ... .. C ... : ... .. . ... ...
ROW F1 : ... .. . ... ... ... : ... .. . ... ... ... : ... .. . ... : ... .. 0 ... : ... .. . ... ...
ROW F2 : ... .. 8 ... ... ... : ... .. . ... ... ... : ... .. . ... : ... .. . ... : ... .. . ... ...
ROW F3 : ... .. . ... ... ... : ... .. . ... ... ... : ... .. . ... : ... .. . ... : ... .. . ... ...
ROW F4 : ... .. 9 ... ... ... : ... .. . ... ... ... : ... .. . ... : ... .. . ... : ... .. . ... ...
ROW F5 : ... .. . ... ... ... : ... .. . ... ... ... : ... .. . ... : ... .. . ... : ... .. . ... ...
ROW F6 : ... .. . ... ... ... : ... .. . ... ... ... : ... .. . ... : ... .. . ... : ... .. . ... ...
ROW F7 : ... .. 8 ... ... ... : ... .. . ... ... ... : ... .. . ... : ... .. . ... : ... .. . ... ...
ROW F8 : ... .. . ... ... ... : ... .. . ... ... ... : --- .. . ... : ... .. . ... : ... .. . ... ...
ROW F9 : ... .. . ... ... ... : ... .. . ... ... ... : ... .. . ... : ... .. . ... : ... .. . ... ...
ROW FA : ... .. . ... ... ... : ... .. . ... ... ... : ... .. . ... : ... .. . ... : ... .. . ... ...
ROW FB : ... .. 7 ... ... ... : ... .. . ... ... ... : ... .. . ... : ... .. . ... : ... .. . ... ...
ROW FC : ... .. . ... ... ... : ... .. . ... ... ... : ... .. . ... : ... .. . ... : ... .. . ... ...
ROW FD : ... .. . ... ... ... : ... .. . ... ... ... : ... .. . ... : ... .. . ... : ... .. . ... ...
ROW FE : ... .. . ... ... ... : ... .. . ... ... ... : ... .. . ... : ... .. . ... : ... .. . ... ...
ROW FF : ... .. 6 P7E ... ... : ... .. . P7E ... ... : ... .. . P7F : ... .. . ... : ... .. . ... ...

PATTERN 1A
ROW 00 : ... .. . ... ... ... : ... .. . ... ... ... : ... .. . ... : ... .. . ... : ... .. . ... ...
ROW 01 : ... .. . ... ... ... : ... .. . ... ... ... : ... .. . ... : ... .. . ... : ... .. . ... ...
ROW 02 : ... .. . ... ... ... : ... .. . ... ... ... : ... .. . ... : ... .. . ... : ... .. . ... ...
ROW 03 : ... .. . P80 ... ... : ... .. . P80 ... ... : ... .. . P81 : ... .. . ... : ... .. . ... ...
ROW 04 : ... .. . ... ... ... : ... .. 7 P7F ... ... : G#2 00 . P80 : ... .. C ... : ... .. . ... ...
ROW 05 : ... .. . ... ... ... : ... .. . ... ... ... : ... .. . ... : ... .. 0 ... : ... .. . ... ...
ROW 06 : ... .. . ... ... ... : ... .. 8 ... ... ... : ... .. . ... : ... .. . ... : ... .. . ... ...
ROW 07 : ... .. 5 P7E ... ... : ... .. . ... ... ... : ... .. . ... : ... .. . ... : ... .. . ... ...
ROW 08 : ... .. . ... ... ... : ... .. 9 ... ... ... : ... .. . ... : ... .. . ... : ... .. . ... ...
ROW 09 : ... .. . ... ... ... : ... .. . ... ... ... : ... .. . ... : ... .. . ... : ... .. . ... ...
ROW 0A : ... .. . ... ... ... : ... .. . ... ... ... : ... .. . ... : ... .. . ... : ... .. . ... ...
ROW 0B : ... .. . P80 ... ... : ... .. 8 ... ... ... : ... .. . ... : ... .. . ... : ... .. . ... ...
ROW 0C : ... .. 4 ... ... ... : ... .. . ... ... ... : --- .. . ... : ... .. . ... : ... .. . ... ...
ROW 0D : ... .. . ... ... ... : ... .. . ... ... ... : ... .. . ... : ... .. . ... : ... .. . ... ...
ROW 0E : ... .. . ... ... ... : ... .. . ... ... ... : G#2 00 . ... : ... .. C ... : ... .. . ... ...
ROW 0F : ... .. . P7E ... ... : ... .. 7 ... ... ... : ... .. . ... : ... .. 0 ... : ... .. . ... ...
ROW 10 : ... .. . ... ... ... : ... .. . ... ... ... : ... .. . ... : ... .. . ... : ... .. . ... ...
ROW 11 : ... .. . ... ... ... : ... .. . ... ... ... : ... .. . ... : ... .. . ... : ... .. . ... ...
ROW 12 : ... .. . ... ... ... : ... .. . ... ... ... : ... .. . ... : ... .. . ... : ... .. . ... ...
ROW 13 : ... .. . P80 ... ... : ... .. 6 P7E ... ... : ... .. . ... : ... .. . ... : ... .. . ... ...
ROW 14 : ... .. . ... ... ... : ... .. . ... ... ... : ... .. . ... : ... .. . ... : ... .. . ... ...
ROW 15 : ... .. . ... ... ... : ... .. . ... ... ... : ... .. . ... : ... .. . ... : ... .. . ... ...
ROW 16 : ... .. . ... ... ... : ... .. . ... ... ... : --- .. . ... : ... .. . ... : ... .. . ... ...
ROW 17 : ... .. . P7E ... ... : ... .. . P80 ... ... : ... .. . ... : ... .. . ... : ... .. . ... ...
ROW 18 : G#3 00 7 P7F ... ... : ... .. 7 P7F ... ... : G#2 00 . ... : ... .. C ... : ... .. . ... ...
ROW 19 : ... .. . ... ... ... : ... .. . ... ... ... : ... .. . ... : ... .. 0 ... : ... .. . ... ...
ROW 1A : ... .. 8 ... ... ... : ... .. 8 ... ... ... : ... .. . ... : ... .. . ... : ... .. . ... ...
ROW 1B : ... .. . ... ... ... : ... .. . ... ... ... : ... .. . ... : ... .. . ... : ... .. . ... ...
ROW 1C : ... .. 9 ... ... ... : ... .. 9 ... ... ... : ... .. . ... : ... .. . ... : ... .. . ... ...
ROW 1D : ... .. . ... ... ... : ... .. . ... ... ... : ... .. . ... : ... .. . ... : ... .. . ... ...
ROW 1E : ... .. . ... ... ... : ... .. . ... ... ... : ... .. . ... : ... .. . ... : ... .. . ... ...
ROW 1F : ... .. 8 ... ... ... : ... .. 8 ... ... ... : ... .. . ... : ... .. . ... : ... .. . ... ...
ROW 20 : ... .. . ... ... ... : ... .. . ... ... ... : --- .. . ... : ... .. . ... : ... .. . ... ...
ROW 21 : ... .. . ... ... ... : ... .. . ... ... ... : ... .. . ... : ... .. . ... : ... .. . ... ...
ROW 22 : ... .. . ... ... ... : ... .. . ... ... ... : ... .. . ... : ... .. . ... : ... .. . ... ...
ROW 23 : ... .. 7 ... ... ... : ... .. 7 ... ... ... : ... .. . ... : ... .. . ... : ... .. . ... ...
ROW 24 : ... .. . ... ... ... : ... .. . ... ... ... : ... .. . ... : ... .. . ... : ... .. . ... ...
ROW 25 : A#3 00 7 P80 ... ... : F#4 00 7 ... ... ... : ... .. . ... : ... .. . ... : ... .. . ... ...
ROW 26 : ... .. . ... ... ... : ... .. . ... ... ... : ... .. . ... : ... .. . ... : ... .. . ... ...
ROW 27 : ... .. 8 ... ... ... : ... .. 8 ... ... ... : ... .. . P7F : ... .. . ... : ... .. . ... ...
ROW 28 : ... .. . ... ... ... : ... .. . ... ... ... : ... .. . ... : ... .. . ... : ... .. . ... ...
ROW 29 : ... .. 9 ... ... ... : ... .. 9 ... ... ... : ... .. . ... : ... .. . ... : ... .. . ... ...
ROW 2A : ... .. . ... ... ... : ... .. . ... ... ... : ... .. . ... : ... .. . ... : ... .. . ... ...
ROW 2B : ... .. . ... ... ... : ... .. . ... ... ... : ... .. . P81 : ... .. . ... : ... .. . ... ...
ROW 2C : ... .. 8 ... ... ... : ... .. 8 ... ... ... : G#2 00 . P80 : ... .. C ... : ... .. . ... ...
ROW 2D : ... .. . ... ... ... : ... .. . ... ... ... : ... .. . ... : ... .. 0 ... : ... .. . ... ...
ROW 2E : ... .. . ... ... ... : ... .. . ... ... ... : ... .. . ... : ... .. . ... : ... .. . ... ...
ROW 2F : ... .. . ... ... ... : ... .. . ... ... ... : ... .. . ... : ... .. . ... : ... .. . ... ...
ROW 30 : ... .. 7 ... ... ... : ... .. 7 ... ... ... : ... .. . ... : ... .. . ... : ... .. . ... ...
ROW 31 : ... .. . ... ... ... : ... .. . ... ... ... : ... .. . ... : ... .. . ... : ... .. . ... ...
ROW 32 : C-4 00 7 ... ... ... : G#4 00 7 P80 ... ... : ... .. . ... : ... .. . ... : ... .. . ... ...
ROW 33 : ... .. . ... ... ... : ... .. . ... ... ... : ... .. . ... : ... .. . ... : ... .. . ... ...
ROW 34 : ... .. 8 ... ... ... : ... .. 8 ... ... ... : --- .. . ... : ... .. . ... : ... .. . ... ...
ROW 35 : ... .. . ... ... ... : ... .. . ... ... ... : ... .. . ... : ... .. . ... : ... .. . ... ...
ROW 36 : ... .. 9 ... ... ... : ... .. 9 ... ... ... : G#2 00 . ... : ... .. C ... : ... .. . ... ...
ROW 37 : ... .. . ... ... ... : ... .. . ... ... ... : ... .. . ... : ... .. 0 ... : ... .. . ... ...
ROW 38 : ... .. . ... ... ... : ... .. . ... ... ... : ... .. . ... : ... .. . ... : ... .. . ... ...
ROW 39 : ... .. 8 ... ... ... : ... .. 8 ... ... ... : ... .. . ... : ... .. . ... : ... .. . ... ...
ROW 3A : ... .. . ... ... ... : ... .. . ... ... ... : ... .. . ... : ... .. . ... : ... .. . ... ...
ROW 3B : ... .. . ... ... ... : ... .. . ... ... ... : ... .. . ... : ... .. . ... : ... .. . ... ...
ROW 3C : ... .. . ... ... ... : ... .. . ... ... ... : ... .. . ... : ... .. . ... : ... .. . ... ...
ROW 3D : ... .. 7 ... ... ... : ... .. 7 ... ... ... : ... .. . ... : ... .. . ... : ... .. . ... ...
ROW 3E : ... .. . ... ... ... : ... .. . ... ... ... : --- .. . ... : ... .. . ... : ... .. . ... ...
ROW 3F : ... .. . ... ... ... : ... .. . ... ... ... : ... .. . ... : ... .. . ... : ... .. . ... ...
ROW 40 : F#3 00 7 P7F ... ... : A#4 00 7 ... ... ... : F#2 00 . ... : ... .. C ... : ... .. . ... ...
ROW 41 : ... .. . ... ... ... : ... .. . ... ... ... : ... .. . ... : ... .. 0 ... : ... .. . ... ...
ROW 42 : ... .. 8 ... ... ... : ... .. 8 ... ... ... : ... .. . ... : ... .. . ... : ... .. . ... ...
ROW 43 : ... .. . ... ... ... : ... .. . ... ... ... : ... .. . ... : ... .. . ... : ... .. . ... ...
ROW 44 : ... .. 9 ... ... ... : ... .. 9 ... ... ... : ... .. . ... : ... .. . ... : ... .. . ... ...
ROW 45 : ... .. . ... ... ... : ... .. . ... ... ... : ... .. . ... : ... .. . ... : ... .. . ... ...
ROW 46 : ... .. . ... ... ... : ... .. . ... ... ... : ... .. . ... : ... .. . ... : ... .. . ... ...
ROW 47 : ... .. 8 ... ... ... : ... .. 8 ... ... ... : ... .. . ... : ... .. . ... : ... .. . ... ...
ROW 48 : ... .. . ... ... ... : ... .. . ... ... ... : --- .. . ... : ... .. . ... : ... .. . ... ...
ROW 49 : ... .. . ... ... ... : ... .. . ... ... ... : ... .. . ... : ... .. . ... : ... .. . ... ...
ROW 4A : ... .. . ... ... ... : ... .. . ... ... ... : ... .. . ... : ... .. . ... : ... .. . ... ...
ROW 4B : ... .. 7 ... ... ... : ... .. 7 ... ... ... : ... .. . ... : ... .. . ... : ... .. . ... ...
ROW 4C : ... .. . ... ... ... : ... .. . ... ... ... : ... .. . ... : ... .. . ... : ... .. . ... ...
ROW 4D : ... .. . ... ... ... : ... .. . ... ... ... : ... .. . ... : ... .. . ... : ... .. . ... ...
ROW 4E : ... .. . ... ... ... : ... .. . ... ... ... : ... .. . ... : ... .. . ... : ... .. . ... ...
ROW 4F : ... .. 6 P7E ... ... : ... .. 6 P7F ... ... : ... .. . P7F : ... .. . ... : ... .. . ... ...
ROW 50 : ... .. . ... ... ... : ... .. . ... ... ... : ... .. . ... : ... .. . ... : ... .. . ... ...
ROW 51 : ... .. . ... ... ... : ... .. . ... ... ... : ... .. . ... : ... .. . ... : ... .. . ... ...
ROW 52 : ... .. . ... ... ... : ... .. . ... ... ... : ... .. . ... : ... .. . ... : ... .. . ... ...
ROW 53 : ... .. . P80 ... ... : ... .. . P81 ... ... : ... .. . P81 : ... .. . ... : ... .. . ... ...
ROW 54 : ... .. 4 P7F ... ... : ... .. . ... ... ... : F#2 00 . P80 : ... .. C ... : ... .. . ... ...
ROW 55 : ... .. . ... ... ... : ... .. . ... ... ... : ... .. . ... : ... .. 0 ... : ... .. . ... ...
ROW 56 : ... .. . ... ... ... : ... .. . ... ... ... : ... .. . ... : ... .. . ... : ... .. . ... ...
ROW 57 : ... .. . ... ... ... : ... .. 5 P7F ... ... : ... .. . ... : ... .. . ... : ... .. . ... ...
ROW 58 : ... .. . ... ... ... : ... .. . ... ... ... : ... .. . ... : ... .. . ... : ... .. . ... ...
ROW 59 : ... .. . ... ... ... : ... .. . ... ... ... : ... .. . ... : ... .. . ... : ... .. . ... ...
ROW 5A : ... .. . ... ... ... : ... .. . ... ... ... : ... .. . ... : ... .. . ... : ... .. . ... ...
ROW 5B : ... .. . ... ... ... : ... .. . P81 ... ... : ... .. . ... : ... .. . ... : ... .. . ... ...
ROW 5C : ... .. . ... ... ... : ... .. 4 ... ... ... : --- .. . ... : ... .. . ... : ... .. . ... ...
ROW 5D : ... .. . ... ... ... : ... .. . ... ... ... : ... .. . ... : ... .. . ... : ... .. . ... ...
ROW 5E : ... .. 7 ... ... ... : ... .. . ... ... ... : F#2 00 . ... : ... .. C ... : ... .. . ... ...
ROW 5F : ... .. . ... ... ... : ... .. . P7F ... ... : ... .. . ... : ... .. 0 ... : ... .. . ... ...
ROW 60 : ... .. 8 ... ... ... : ... .. . ... ... ... : ... .. . ... : ... .. . ... : ... .. . ... ...
ROW 61 : ... .. . ... ... ... : ... .. . ... ... ... : ... .. . ... : ... .. . ... : ... .. . ... ...
ROW 62 : ... .. 9 ... ... ... : ... .. . ... ... ... : ... .. . ... : ... .. . ... : ... .. . ... ...
ROW 63 : ... .. . ... ... ... : ... .. . P81 ... ... : ... .. . ... : ... .. . ... : ... .. . ... ...
ROW 64 : ... .. . ... ... ... : ... .. . ... ... ... : ... .. . ... : ... .. . ... : ... .. . ... ...
ROW 65 : ... .. 8 ... ... ... : ... .. . ... ... ... : ... .. . ... : ... .. . ... : ... .. . ... ...
ROW 66 : ... .. . ... ... ... : ... .. . ... ... ... : --- .. . ... : ... .. . ... : ... .. . ... ...
ROW 67 : ... .. . ... ... ... : ... .. . P7F ... ... : ... .. . ... : ... .. . ... : ... .. . ... ...
ROW 68 : ... .. 7 ... ... ... : ... .. . ... ... ... : F#2 00 . ... : ... .. C ... : ... .. . ... ...
ROW 69 : ... .. . ... ... ... : ... .. . ... ... ... : ... .. . ... : ... .. 0 ... : ... .. . ... ...
ROW 6A : ... .. 8 ... ... ... : ... .. . ... ... ... : ... .. . ... : ... .. . ... : ... .. . ... ...
ROW 6B : ... .. . ... ... ... : ... .. . P81 ... ... : ... .. . ... : ... .. . ... : ... .. . ... ...
ROW 6C : ... .. 9 ... ... ... : ... .. . ... ... ... : ... .. . ... : ... .. . ... : ... .. . ... ...
ROW 6D : ... .. . ... ... ... : ... .. . ... ... ... : ... .. . ... : ... .. . ... : ... .. . ... ...
ROW 6E : ... .. . ... ... ... : ... .. . ... ... ... : ... .. . ... : ... .. . ... : ... .. . ... ...
ROW 6F : ... .. 8 ... ... ... : ... .. . P7F ... ... : ... .. . ... : ... .. . ... : ... .. . ... ...
ROW 70 : ... .. . ... ... ... : ... .. . ... ... ... : --- .. . ... : ... .. . ... : ... .. . ... ...
ROW 71 : ... .. . ... ... ... : ... .. . ... ... ... : ... .. . ... : ... .. . ... : ... .. . ... ...
ROW 72 : G#3 00 7 ... ... ... : ... .. . ... ... ... : ... .. . ... : ... .. . ... : ... .. . ... ...
ROW 73 : ... .. . ... ... ... : ... .. . P81 ... ... : ... .. . ... : ... .. . ... : ... .. . ... ...
ROW 74 : ... .. 8 ... ... ... : ... .. . ... ... ... : ... .. . ... : ... .. . ... : ... .. . ... ...
ROW 75 : ... .. . ... ... ... : ... .. . ... ... ... : ... .. . ... : ... .. . ... : ... .. . ... ...
ROW 76 : ... .. 9 ... ... ... : ... .. . ... ... ... : ... .. . ... : ... .. . ... : ... .. . ... ...
ROW 77 : ... .. . ... ... ... : ... .. . P7F ... ... : ... .. . P7F : ... .. . ... : ... .. . ... ...
ROW 78 : ... .. . ... ... ... : ... .. . ... ... ... : ... .. . ... : ... .. . ... : ... .. . ... ...
ROW 79 : ... .. 8 ... ... ... : ... .. . ... ... ... : ... .. . ... : ... .. . ... : ... .. . ... ...
ROW 7A : ... .. . ... ... ... : ... .. . ... ... ... : ... .. . ... : ... .. . ... : ... .. . ... ...
ROW 7B : ... .. . ... ... ... : ... .. . P81 ... ... : ... .. . P81 : ... .. . ... : ... .. . ... ...
ROW 7C : A#3 00 7 P80 ... ... : ... .. . ... ... ... : F#2 00 . P80 : ... .. C ... : ... .. . ... ...
ROW 7D : ... .. . ... ... ... : ... .. . ... ... ... : ... .. . ... : ... .. 0 ... : ... .. . ... ...
ROW 7E : ... .. 8 ... ... ... : ... .. . ... ... ... : ... .. . ... : ... .. . ... : ... .. . ... ...
ROW 7F : ... .. . ... ... ... : ... .. . P7F ... ... : ... .. . ... : ... .. . ... : ... .. . ... ...
ROW 80 : ... .. 9 ... ... ... : ... .. . ... ... ... : ... .. . ... : ... .. . ... : ... .. . ... ...
ROW 81 : ... .. . ... ... ... : ... .. . ... ... ... : ... .. . ... : ... .. . ... : ... .. . ... ...
ROW 82 : ... .. . ... ... ... : ... .. . ... ... ... : ... .. . ... : ... .. . ... : ... .. . ... ...
ROW 83 : ... .. 8 ... ... ... : ... .. . P81 ... ... : ... .. . ... : ... .. . ... : ... .. . ... ...
ROW 84 : ... .. . ... ... ... : ... .. . ... ... ... : --- .. . ... : ... .. . ... : ... .. . ... ...
ROW 85 : ... .. . ... ... ... : ... .. . ... ... ... : ... .. . ... : ... .. . ... : ... .. . ... ...
ROW 86 : C-4 00 7 ... ... ... : ... .. . ... ... ... : F#2 00 . ... : ... .. C ... : ... .. . ... ...
ROW 87 : ... .. . ... ... ... : ... .. . P7F ... ... : ... .. . ... : ... .. 0 ... : ... .. . ... ...
ROW 88 : ... .. 8 ... ... ... : ... .. . ... ... ... : ... .. . ... : ... .. . ... : ... .. . ... ...
ROW 89 : ... .. . ... ... ... : ... .. . ... ... ... : ... .. . ... : ... .. . ... : ... .. . ... ...
ROW 8A : ... .. 9 ... ... ... : ... .. . ... ... ... : ... .. . ... : ... .. . ... : ... .. . ... ...
ROW 8B : ... .. . ... ... ... : ... .. . P81 ... ... : ... .. . ... : ... .. . ... : ... .. . ... ...
ROW 8C : ... .. . ... ... ... : ... .. . ... ... ... : ... .. . ... : ... .. . ... : ... .. . ... ...
ROW 8D : ... .. 8 ... ... ... : ... .. . ... ... ... : ... .. . ... : ... .. . ... : ... .. . ... ...
ROW 8E : ... .. . ... ... ... : ... .. . ... ... ... : --- .. . ... : ... .. . ... : ... .. . ... ...
ROW 8F : ... .. . ... ... ... : ... .. . P7F ... ... : ... .. . ... : ... .. . ... : ... .. . ... ...
ROW 90 : C#4 00 7 ... ... ... : ... .. . P80 ... ... : F#2 00 . ... : ... .. C ... : ... .. . ... ...
ROW 91 : ... .. . ... ... ... : ... .. . ... ... ... : ... .. . ... : ... .. 0 ... : ... .. . ... ...
ROW 92 : ... .. 8 ... ... ... : ... .. . ... ... ... : ... .. . ... : ... .. . ... : ... .. . ... ...
ROW 93 : ... .. . ... ... ... : ... .. . ... ... ... : ... .. . ... : ... .. . ... : ... .. . ... ...
ROW 94 : ... .. 9 ... ... ... : ... .. . ... ... ... : ... .. . ... : ... .. . ... : ... .. . ... ...
ROW 95 : ... .. . ... ... ... : ... .. . ... ... ... : ... .. . ... : ... .. . ... : ... .. . ... ...
ROW 96 : ... .. . ... ... ... : ... .. . ... ... ... : ... .. . ... : ... .. . ... : ... .. . ... ...
ROW 97 : ... .. 8 ... ... ... : ... .. . ... ... ... : ... .. . ... : ... .. . ... : ... .. . ... ...
ROW 98 : ... .. . ... ... ... : ... .. . ... ... ... : --- .. . ... : ... .. . ... : ... .. . ... ...
ROW 99 : ... .. . ... ... ... : ... .. . ... ... ... : ... .. . ... : ... .. . ... : ... .. . ... ...
ROW 9A : ... .. . ... ... ... : ... .. . ... ... ... : ... .. . ... : ... .. . ... : ... .. . ... ...
ROW 9B : ... .. 7 ... ... ... : ... .. . ... ... ... : ... .. . ... : ... .. . ... : ... .. . ... ...
ROW 9C : ... .. . ... ... ... : ... .. . ... ... ... : ... .. . ... : ... .. . ... : ... .. . ... ...
ROW 9D : ... .. 4 ... ... ... : ... .. . ... ... ... : ... .. . ... : ... .. . ... : ... .. . ... ...
ROW 9E : ... .. . ... ... ... : ... .. . ... ... ... : ... .. . ... : ... .. . ... : ... .. . ... ...
ROW 9F : ... .. . ... ... ... : ... .. . ... ... ... : ... .. . P7F : ... .. . ... : ... .. . ... ...
ROW A0 : ... .. . ... ... ... : ... .. . ... ... ... : ... .. . ... : ... .. . ... : ... .. . ... ...
ROW A1 : ... .. . ... ... ... : ... .. . ... ... ... : ... .. . ... : ... .. . ... : ... .. . ... ...
ROW A2 : ... .. . ... ... ... : ... .. . ... ... ... : ... .. . ... : ... .. . ... : ... .. . ... ...
ROW A3 : ... .. . ... ... ... : ... .. . ... ... ... : ... .. . P81 : ... .. . ... : ... .. . ... ...
ROW A4 : ... .. . ... ... ... : ... .. . ... ... ... : F#2 00 . P80 : ... .. C ... : ... .. . ... ...
ROW A5 : ... .. . ... ... ... : ... .. . ... ... ... : ... .. . ... : ... .. 0 ... : ... .. . ... ...
ROW A6 : ... .. . ... ... ... : ... .. . ... ... ... : ... .. . ... : ... .. . ... : ... .. . ... ...
ROW A7 : ... .. . ... ... ... : ... .. . ... ... ... : ... .. . ... : ... .. . ... : ... .. . ... ...
ROW A8 : ... .. . ... ... ... : ... .. . ... ... ... : ... .. . ... : ... .. . ... : ... .. . ... ...
ROW A9 : ... .. . ... ... ... : ... .. . ... ... ... : ... .. . ... : ... .. . ... : ... .. . ... ...
ROW AA : ... .. 7 ... ... ... : ... .. 7 ... ... ... : ... .. . ... : ... .. . ... : ... .. . ... ...
ROW AB : ... .. . ... ... ... : ... .. . ... ... ... : ... .. . ... : ... .. . ... : ... .. . ... ...
ROW AC : ... .. 8 ... ... ... : ... .. 8 ... ... ... : --- .. . ... : ... .. . ... : ... .. . ... ...
ROW AD : ... .. . ... ... ... : ... .. . ... ... ... : ... .. . ... : ... .. . ... : ... .. . ... ...
ROW AE : ... .. 9 ... ... ... : ... .. 9 ... ... ... : F#2 00 . ... : ... .. C ... : ... .. . ... ...
ROW AF : ... .. . ... ... ... : ... .. . ... ... ... : ... .. . ... : ... .. 0 ... : ... .. . ... ...
ROW B0 : ... .. . ... ... ... : ... .. . ... ... ... : ... .. . ... : ... .. . ... : ... .. . ... ...
ROW B1 : ... .. 8 ... ... ... : ... .. 8 ... ... ... : ... .. . ... : ... .. . ... : ... .. . ... ...
ROW B2 : ... .. . ... ... ... : ... .. . ... ... ... : ... .. . ... : ... .. . ... : ... .. . ... ...
ROW B3 : ... .. . ... ... ... : ... .. . ... ... ... : ... .. . ... : ... .. . ... : ... .. . ... ...
ROW B4 : ... .. . ... ... ... : ... .. . ... ... ... : ... .. . ... : ... .. . ... : ... .. . ... ...
ROW B5 : ... .. 7 ... ... ... : ... .. 7 ... ... ... : ... .. . ... : ... .. . ... : ... .. . ... ...
ROW B6 : ... .. . ... ... ... : ... .. . ... ... ... : --- .. . ... : ... .. . ... : ... .. . ... ...
ROW B7 : ... .. . ... ... ... : ... .. . ... ... ... : ... .. . ... : ... .. . ... : ... .. . ... ...
ROW B8 : ... .. . ... ... ... : ... .. . ... ... ... : F#2 00 . ... : ... .. C ... : ... .. . ... ...
ROW B9 : ... .. . ... ... ... : ... .. 8 ... ... ... : ... .. . ... : ... .. 0 ... : ... .. . ... ...
ROW BA : ... .. 8 ... ... ... : ... .. . ... ... ... : ... .. . ... : ... .. . ... : ... .. . ... ...
ROW BB : ... .. . ... ... ... : ... .. 9 ... ... ... : ... .. . ... : ... .. . ... : ... .. . ... ...
ROW BC : ... .. 9 ... ... ... : ... .. . ... ... ... : ... .. . ... : ... .. . ... : ... .. . ... ...
ROW BD : ... .. . ... ... ... : ... .. . ... ... ... : ... .. . ... : ... .. . ... : ... .. . ... ...
ROW BE : ... .. . ... ... ... : ... .. 8 ... ... ... : ... .. . ... : ... .. . ... : ... .. . ... ...
ROW BF : ... .. 8 ... ... ... : ... .. . ... ... ... : ... .. . ... : ... .. . ... : ... .. . ... ...
ROW C0 : ... .. . ... ... ... : ... .. . ... ... ... : --- .. . ... : ... .. . ... : ... .. . ... ...
ROW C1 : ... .. . ... ... ... : ... .. . ... ... ... : ... .. . ... : ... .. . ... : ... .. . ... ...
ROW C2 : ... .. . ... ... ... : ... .. 7 ... ... ... : ... .. . ... : ... .. . ... : ... .. . ... ...
ROW C3 : ... .. 7 ... ... ... : ... .. . ... ... ... : ... .. . ... : ... .. . ... : ... .. . ... ...
ROW C4 : ... .. . ... ... ... : G#4 00 7 ... ... ... : ... .. . ... : ... .. . ... : ... .. . ... ...
ROW C5 : ... .. . ... ... ... : ... .. . ... ... ... : ... .. . ... : ... .. . ... : ... .. . ... ...
ROW C6 : C-4 00 7 ... ... ... : ... .. 8 ... ... ... : ... .. . ... : ... .. . ... : ... .. . ... ...
ROW C7 : ... .. . ... ... ... : ... .. . ... ... ... : ... .. . P7F : ... .. . ... : ... .. . ... ...
ROW C8 : ... .. 8 ... ... ... : ... .. 9 ... ... ... : ... .. . ... : ... .. . ... : ... .. . ... ...
ROW C9 : ... .. . ... ... ... : ... .. . ... ... ... : ... .. . ... : ... .. . ... : ... .. . ... ...
ROW CA : ... .. 9 ... ... ... : ... .. . ... ... ... : ... .. . ... : ... .. . ... : ... .. . ... ...
ROW CB : ... .. . ... ... ... : ... .. 8 ... ... ... : ... .. . P81 : ... .. . ... : ... .. . ... ...
ROW CC : ... .. . ... ... ... : ... .. . ... ... ... : F#2 00 . P80 : ... .. C ... : ... .. . ... ...
ROW CD : ... .. 8 ... ... ... : ... .. . ... ... ... : ... .. . ... : ... .. 0 ... : ... .. . ... ...
ROW CE : ... .. . ... ... ... : ... .. . ... ... ... : ... .. . ... : ... .. . ... : ... .. . ... ...
ROW CF : ... .. . ... ... ... : ... .. 7 ... ... ... : ... .. . ... : ... .. . ... : ... .. . ... ...
ROW D0 : ... .. . ... ... ... : ... .. . ... ... ... : ... .. . ... : ... .. . ... : ... .. . ... ...
ROW D1 : ... .. 7 ... ... ... : ... .. . ... ... ... : ... .. . ... : ... .. . ... : ... .. . ... ...
ROW D2 : ... .. . ... ... ... : F#4 00 7 P7F ... ... : ... .. . ... : ... .. . ... : ... .. . ... ...
ROW D3 : A#3 00 7 ... ... ... : ... .. . ... ... ... : ... .. . ... : ... .. . ... : ... .. . ... ...
ROW D4 : ... .. . ... ... ... : ... .. 8 ... ... ... : --- .. . ... : ... .. . ... : ... .. . ... ...
ROW D5 : ... .. 8 ... ... ... : ... .. . ... ... ... : ... .. . ... : ... .. . ... : ... .. . ... ...
ROW D6 : ... .. . ... ... ... : ... .. 9 ... ... ... : F#2 00 . ... : ... .. C ... : ... .. . ... ...
ROW D7 : ... .. 9 ... ... ... : ... .. . ... ... ... : ... .. . ... : ... .. 0 ... : ... .. . ... ...
ROW D8 : ... .. . ... ... ... : ... .. . ... ... ... : ... .. . ... : ... .. . ... : ... .. . ... ...
ROW D9 : ... .. . ... ... ... : ... .. 8 ... ... ... : ... .. . ... : ... .. . ... : ... .. . ... ...
ROW DA : ... .. 8 ... ... ... : ... .. . ... ... ... : ... .. . ... : ... .. . ... : ... .. . ... ...
ROW DB : ... .. . ... ... ... : ... .. . ... ... ... : ... .. . ... : ... .. . ... : ... .. . ... ...
ROW DC : ... .. . ... ... ... : ... .. . ... ... ... : ... .. . ... : ... .. . ... : ... .. . ... ...
ROW DD : ... .. . ... ... ... : ... .. 7 ... ... ... : ... .. . ... : ... .. . ... : ... .. . ... ...
ROW DE : ... .. 7 ... ... ... : ... .. . ... ... ... : --- .. . ... : ... .. . ... : ... .. . ... ...
ROW DF : ... .. . ... ... ... : ... .. . ... ... ... : ... .. . ... : ... .. . ... : ... .. . ... ...
ROW E0 : C#4 00 7 ... ... ... : G#4 00 7 P80 ... ... : C#3 00 . ... : ... .. C ... : ... .. . ... ...
ROW E1 : ... .. . ... ... ... : ... .. . ... ... ... : ... .. . ... : ... .. 0 ... : ... .. . ... ...
ROW E2 : ... .. 8 ... ... ... : ... .. 8 ... ... ... : ... .. . ... : ... .. . ... : ... .. . ... ...
ROW E3 : ... .. . ... ... ... : ... .. . ... ... ... : ... .. . ... : ... .. . ... : ... .. . ... ...
ROW E4 : ... .. 9 ... ... ... : ... .. 9 ... ... ... : ... .. . ... : ... .. . ... : ... .. . ... ...
ROW E5 : ... .. . ... ... ... : ... .. . ... ... ... : ... .. . ... : ... .. . ... : ... .. . ... ...
ROW E6 : ... .. . ... ... ... : ... .. . ... ... ... : ... .. . ... : ... .. . ... : ... .. . ... ...
ROW E7 : ... .. 8 ... ... ... : ... .. 8 ... ... ... : ... .. . ... : ... .. . ... : ... .. . ... ...
ROW E8 : ... .. . ... ... ... : ... .. . ... ... ... : --- .. . ... : ... .. . ... : ... .. . ... ...
ROW E9 : ... .. . ... ... ... : ... .. . ... ... ... : ... .. . ... : ... .. . ... : ... .. . ... ...
ROW EA : ... .. . ... ... ... : ... .. . ... ... ... : ... .. . ... : ... .. . ... : ... .. . ... ...
ROW EB : ... .. 7 ... ... ... : ... .. 7 ... ... ... : ... .. . ... : ... .. . ... : ... .. . ... ...
ROW EC : ... .. . ... ... ... : ... .. . ... ... ... : ... .. . ... : ... .. . ... : ... .. . ... ...
ROW ED : ... .. 4 ... ... ... : ... .. . ... ... ... : ... .. . ... : ... .. . ... : ... .. . ... ...
ROW EE : ... .. . ... ... ... : ... .. 4 ... ... ... : ... .. . ... : ... .. . ... : ... .. . ... ...
ROW EF : ... .. . ... ... ... : ... .. . ... ... ... : ... .. . P7F : ... .. . ... : ... .. . ... ...
ROW F0 : ... .. . ... ... ... : ... .. . ... ... ... : ... .. . ... : ... .. . ... : ... .. . ... ...
ROW F1 : ... .. . ... ... ... : ... .. . ... ... ... : ... .. . ... : ... .. . ... : ... .. . ... ...
ROW F2 : ... .. . ... ... ... : ... .. . ... ... ... : ... .. . ... : ... .. . ... : ... .. . ... ...
ROW F3 : ... .. . ... ... ... : ... .. . ... ... ... : ... .. . P81 : ... .. . ... : ... .. . ... ...
ROW F4 : ... .. . ... ... ... : ... .. . ... ... ... : C#3 00 . P80 : ... .. C ... : ... .. . ... ...
ROW F5 : ... .. . ... ... ... : ... .. . ... ... ... : ... .. . ... : ... .. 0 ... : ... .. . ... ...
ROW F6 : ... .. . ... ... ... : ... .. . ... ... ... : ... .. . ... : ... .. . ... : ... .. . ... ...
ROW F7 : ... .. . ... ... ... : ... .. . ... ... ... : ... .. . ... : ... .. . ... : ... .. . ... ...
ROW F8 : ... .. . ... ... ... : ... .. . ... ... ... : ... .. . ... : ... .. . ... : ... .. . ... ...
ROW F9 : ... .. . ... ... ... : ... .. . ... ... ... : ... .. . ... : ... .. . ... : ... .. . ... ...
ROW FA : A#3 00 7 ... ... ... : ... .. . ... ... ... : ... .. . ... : ... .. . ... : ... .. . ... ...
ROW FB : ... .. . ... ... ... : F#4 00 7 P7F ... ... : ... .. . ... : ... .. . ... : ... .. . ... ...
ROW FC : ... .. 8 ... ... ... : ... .. . ... ... ... : --- .. . ... : ... .. . ... : ... .. . ... ...
ROW FD : ... .. . ... ... ... : ... .. 8 ... ... ... : ... .. . ... : ... .. . ... : ... .. . ... ...
ROW FE : ... .. 9 ... ... ... : ... .. . ... ... ... : C#3 00 . ... : ... .. C ... : ... .. . ... ...
ROW FF : ... .. . ... ... ... : ... .. 9 ... ... ... : ... .. . ... : ... .. 0 ... : ... .. . ... ...

PATTERN 1B
ROW 00 : ... .. . ... ... ... : ... .. . ... ... ... : ... .. . ... : ... .. . ... : ... .. . ... ...
ROW 01 : ... .. 8 ... ... ... : ... .. . ... ... ... : ... .. . ... : ... .. . ... : ... .. . ... ...
ROW 02 : ... .. . ... ... ... : ... .. 8 ... ... ... : ... .. . ... : ... .. . ... : ... .. . ... ...
ROW 03 : ... .. . ... ... ... : ... .. . ... ... ... : ... .. . ... : ... .. . ... : ... .. . ... ...
ROW 04 : ... .. . ... ... ... : ... .. . ... ... ... : ... .. . ... : ... .. . ... : ... .. . ... ...
ROW 05 : ... .. 7 ... ... ... : ... .. . ... ... ... : ... .. . ... : ... .. . ... : ... .. . ... ...
ROW 06 : ... .. . ... ... ... : ... .. 7 ... ... ... : --- .. . ... : ... .. . ... : ... .. . ... ...
ROW 07 : ... .. . ... ... ... : ... .. . ... ... ... : ... .. . ... : ... .. . ... : ... .. . ... ...
ROW 08 : G#3 00 7 P7F ... ... : F-4 00 7 ... ... ... : C#3 00 . ... : ... .. C ... : ... .. . ... ...
ROW 09 : ... .. . ... ... ... : ... .. . ... ... ... : ... .. . ... : ... .. 0 ... : ... .. . ... ...
ROW 0A : ... .. 8 ... ... ... : ... .. 8 ... ... ... : ... .. . ... : ... .. . ... : ... .. . ... ...
ROW 0B : ... .. . ... ... ... : ... .. . ... ... ... : ... .. . ... : ... .. . ... : ... .. . ... ...
ROW 0C : ... .. 9 ... ... ... : ... .. 9 ... ... ... : ... .. . ... : ... .. . ... : ... .. . ... ...
ROW 0D : ... .. . ... ... ... : ... .. . ... ... ... : ... .. . ... : ... .. . ... : ... .. . ... ...
ROW 0E : ... .. . ... ... ... : ... .. . ... ... ... : ... .. . ... : ... .. . ... : ... .. . ... ...
ROW 0F : ... .. 8 ... ... ... : ... .. 8 ... ... ... : ... .. . ... : ... .. . ... : ... .. . ... ...
ROW 10 : ... .. . ... ... ... : ... .. . ... ... ... : --- .. . ... : ... .. . ... : ... .. . ... ...
ROW 11 : ... .. . ... ... ... : ... .. . ... ... ... : ... .. . ... : ... .. . ... : ... .. . ... ...
ROW 12 : ... .. . ... ... ... : ... .. . ... ... ... : ... .. . ... : ... .. . ... : ... .. . ... ...
ROW 13 : ... .. 7 ... ... ... : ... .. 7 ... ... ... : ... .. . ... : ... .. . ... : ... .. . ... ...
ROW 14 : ... .. . ... ... ... : ... .. . ... ... ... : ... .. . ... : ... .. . ... : ... .. . ... ...
ROW 15 : ... .. . ... ... ... : ... .. . ... ... ... : ... .. . ... : ... .. . ... : ... .. . ... ...
ROW 16 : ... .. . ... ... ... : ... .. . ... ... ... : ... .. . ... : ... .. . ... : ... .. . ... ...
ROW 17 : ... .. 8 ... ... ... : ... .. 6 P7E ... ... : ... .. . P7F : ... .. . ... : ... .. . ... ...
ROW 18 : ... .. . ... ... ... : ... .. . ... ... ... : ... .. . ... : ... .. . ... : ... .. . ... ...
ROW 19 : ... .. 9 ... ... ... : ... .. . ... ... ... : ... .. . ... : ... .. . ... : ... .. . ... ...
ROW 1A : ... .. . ... ... ... : ... .. . ... ... ... : ... .. . ... : ... .. . ... : ... .. . ... ...
ROW 1B : ... .. . ... ... ... : ... .. . P80 ... ... : ... .. . P81 : ... .. . ... : ... .. . ... ...
ROW 1C : ... .. 8 ... ... ... : ... .. . ... ... ... : C#3 00 . P80 : ... .. C ... : ... .. . ... ...
ROW 1D : ... .. . ... ... ... : ... .. . ... ... ... : ... .. . ... : ... .. 0 ... : ... .. . ... ...
ROW 1E : ... .. . ... ... ... : ... .. . ... ... ... : ... .. . ... : ... .. . ... : ... .. . ... ...
ROW 1F : ... .. . ... ... ... : ... .. 5 P7E ... ... : ... .. . ... : ... .. . ... : ... .. . ... ...
ROW 20 : ... .. 7 ... ... ... : ... .. . ... ... ... : ... .. . ... : ... .. . ... : ... .. . ... ...
ROW 21 : ... .. . ... ... ... : ... .. . ... ... ... : ... .. . ... : ... .. . ... : ... .. . ... ...
ROW 22 : F#3 00 7 ... ... ... : ... .. . ... ... ... : ... .. . ... : ... .. . ... : ... .. . ... ...
ROW 23 : ... .. . ... ... ... : ... .. . P80 ... ... : ... .. . ... : ... .. . ... : ... .. . ... ...
ROW 24 : ... .. 8 ... ... ... : ... .. 4 ... ... ... : --- .. . ... : ... .. . ... : ... .. . ... ...
ROW 25 : ... .. . ... ... ... : ... .. . ... ... ... : ... .. . ... : ... .. . ... : ... .. . ... ...
ROW 26 : ... .. 9 ... ... ... : ... .. . ... ... ... : C#3 00 . ... : ... .. C ... : ... .. . ... ...
ROW 27 : ... .. . ... ... ... : ... .. . P7E ... ... : ... .. . ... : ... .. 0 ... : ... .. . ... ...
ROW 28 : ... .. . ... ... ... : ... .. . ... ... ... : ... .. . ... : ... .. . ... : ... .. . ... ...
ROW 29 : ... .. 8 ... ... ... : ... .. . ... ... ... : ... .. . ... : ... .. . ... : ... .. . ... ...
ROW 2A : ... .. . ... ... ... : ... .. . ... ... ... : ... .. . ... : ... .. . ... : ... .. . ... ...
ROW 2B : ... .. . ... ... ... : ... .. . P80 ... ... : ... .. . ... : ... .. . ... : ... .. . ... ...
ROW 2C : ... .. . ... ... ... : ... .. . ... ... ... : ... .. . ... : ... .. . ... : ... .. . ... ...
ROW 2D : ... .. 7 ... ... ... : ... .. . ... ... ... : ... .. . ... : ... .. . ... : ... .. . ... ...
ROW 2E : ... .. . ... ... ... : ... .. . ... ... ... : --- .. . ... : ... .. . ... : ... .. . ... ...
ROW 2F : G#3 00 7 ... ... ... : ... .. . P7E ... ... : ... .. . ... : ... .. . ... : ... .. . ... ...
ROW 30 : ... .. . ... ... ... : ... .. . ... ... ... : C#3 00 . ... : ... .. C ... : ... .. . ... ...
ROW 31 : ... .. 8 ... ... ... : ... .. . ... ... ... : ... .. . ... : ... .. 0 ... : ... .. . ... ...
ROW 32 : ... .. . ... ... ... : ... .. . ... ... ... : ... .. . ... : ... .. . ... : ... .. . ... ...
ROW 33 : ... .. 9 ... ... ... : ... .. . P80 ... ... : ... .. . ... : ... .. . ... : ... .. . ... ...
ROW 34 : ... .. . ... ... ... : ... .. . ... ... ... : ... .. . ... : ... .. . ... : ... .. . ... ...
ROW 35 : ... .. . ... ... ... : ... .. . ... ... ... : ... .. . ... : ... .. . ... : ... .. . ... ...
ROW 36 : ... .. 8 ... ... ... : ... .. . ... ... ... : ... .. . ... : ... .. . ... : ... .. . ... ...
ROW 37 : ... .. . ... ... ... : ... .. . P7E ... ... : ... .. . ... : ... .. . ... : ... .. . ... ...
ROW 38 : ... .. . ... ... ... : ... .. . ... ... ... : --- .. . ... : ... .. . ... : ... .. . ... ...
ROW 39 : ... .. . ... ... ... : ... .. . ... ... ... : ... .. . ... : ... .. . ... : ... .. . ... ...
ROW 3A : ... .. 7 ... ... ... : ... .. . ... ... ... : ... .. . ... : ... .. . ... : ... .. . ... ...
ROW 3B : ... .. . ... ... ... : ... .. . P80 ... ... : ... .. . ... : ... .. . ... : ... .. . ... ...
ROW 3C : ... .. 4 ... ... ... : ... .. . ... ... ... : ... .. . ... : ... .. . ... : ... .. . ... ...
ROW 3D : ... .. . ... ... ... : ... .. . ... ... ... : ... .. . ... : ... .. . ... : ... .. . ... ...
ROW 3E : ... .. . ... ... ... : ... .. . ... ... ... : ... .. . ... : ... .. . ... : ... .. . ... ...
ROW 3F : ... .. . ... ... ... : ... .. . P7E ... ... : ... .. . P7F : ... .. . ... : ... .. . ... ...
ROW 40 : ... .. . ... ... ... : ... .. . ... ... ... : ... .. . ... : ... .. . ... : ... .. . ... ...
ROW 41 : ... .. . ... ... ... : ... .. . ... ... ... : ... .. . ... : ... .. . ... : ... .. . ... ...
ROW 42 : ... .. . ... ... ... : ... .. . ... ... ... : ... .. . ... : ... .. . ... : ... .. . ... ...
ROW 43 : ... .. . ... ... ... : ... .. . P80 ... ... : ... .. . P81 : ... .. . ... : ... .. . ... ...
ROW 44 : ... .. . ... ... ... : ... .. . ... ... ... : C#3 00 . P80 : ... .. C ... : ... .. . ... ...
ROW 45 : ... .. . ... ... ... : ... .. . ... ... ... : ... .. . ... : ... .. 0 ... : ... .. . ... ...
ROW 46 : ... .. . ... ... ... : ... .. . ... ... ... : ... .. . ... : ... .. . ... : ... .. . ... ...
ROW 47 : ... .. . ... ... ... : ... .. . P7E ... ... : ... .. . ... : ... .. . ... : ... .. . ... ...
ROW 48 : ... .. . ... ... ... : ... .. . ... ... ... : ... .. . ... : ... .. . ... : ... .. . ... ...
ROW 49 : ... .. 7 ... ... ... : ... .. . ... ... ... : ... .. . ... : ... .. . ... : ... .. . ... ...
ROW 4A : ... .. . ... ... ... : ... .. . ... ... ... : ... .. . ... : ... .. . ... : ... .. . ... ...
ROW 4B : ... .. 8 ... ... ... : ... .. . P80 ... ... : ... .. . ... : ... .. . ... : ... .. . ... ...
ROW 4C : ... .. . ... ... ... : ... .. . ... ... ... : --- .. . ... : ... .. . ... : ... .. . ... ...
ROW 4D : ... .. 9 ... ... ... : ... .. . ... ... ... : ... .. . ... : ... .. . ... : ... .. . ... ...
ROW 4E : ... .. . ... ... ... : ... .. . ... ... ... : C#3 00 . ... : ... .. C ... : ... .. . ... ...
ROW 4F : ... .. . ... ... ... : ... .. . P7E ... ... : ... .. . ... : ... .. 0 ... : ... .. . ... ...
ROW 50 : ... .. 8 ... ... ... : ... .. . ... ... ... : ... .. . ... : ... .. . ... : ... .. . ... ...
ROW 51 : ... .. . ... ... ... : ... .. . ... ... ... : ... .. . ... : ... .. . ... : ... .. . ... ...
ROW 52 : ... .. . ... ... ... : ... .. . ... ... ... : ... .. . ... : ... .. . ... : ... .. . ... ...
ROW 53 : ... .. . ... ... ... : ... .. . P80 ... ... : ... .. . ... : ... .. . ... : ... .. . ... ...
ROW 54 : ... .. 7 ... ... ... : ... .. . ... ... ... : ... .. . ... : ... .. . ... : ... .. . ... ...
ROW 55 : ... .. . ... ... ... : ... .. . ... ... ... : ... .. . ... : ... .. . ... : ... .. . ... ...
ROW 56 : ... .. . ... ... ... : ... .. . ... ... ... : --- .. . ... : ... .. . ... : ... .. . ... ...
ROW 57 : ... .. . ... ... ... : ... .. . P7E ... ... : ... .. . ... : ... .. . ... : ... .. . ... ...
ROW 58 : ... .. . ... ... ... : ... .. 7 P7F ... ... : C#3 00 . ... : ... .. C ... : ... .. . ... ...
ROW 59 : ... .. 8 ... ... ... : ... .. . ... ... ... : ... .. . ... : ... .. 0 ... : ... .. . ... ...
ROW 5A : ... .. . ... ... ... : ... .. 8 ... ... ... : ... .. . ... : ... .. . ... : ... .. . ... ...
ROW 5B : ... .. 9 ... ... ... : ... .. . ... ... ... : ... .. . ... : ... .. . ... : ... .. . ... ...
ROW 5C : ... .. . ... ... ... : ... .. 9 ... ... ... : ... .. . ... : ... .. . ... : ... .. . ... ...
ROW 5D : ... .. . ... ... ... : ... .. . ... ... ... : ... .. . ... : ... .. . ... : ... .. . ... ...
ROW 5E : ... .. 8 ... ... ... : ... .. . ... ... ... : ... .. . ... : ... .. . ... : ... .. . ... ...
ROW 5F : ... .. . ... ... ... : ... .. 8 ... ... ... : ... .. . ... : ... .. . ... : ... .. . ... ...
ROW 60 : ... .. . ... ... ... : ... .. . ... ... ... : --- .. . ... : ... .. . ... : ... .. . ... ...
ROW 61 : ... .. . ... ... ... : ... .. . ... ... ... : ... .. . ... : ... .. . ... : ... .. . ... ...
ROW 62 : ... .. 7 ... ... ... : ... .. . ... ... ... : ... .. . ... : ... .. . ... : ... .. . ... ...
ROW 63 : ... .. . ... ... ... : ... .. 7 ... ... ... : ... .. . ... : ... .. . ... : ... .. . ... ...
ROW 64 : ... .. . ... ... ... : ... .. . ... ... ... : ... .. . ... : ... .. . ... : ... .. . ... ...
ROW 65 : F#3 00 7 ... ... ... : ... .. . ... ... ... : ... .. . ... : ... .. . ... : ... .. . ... ...
ROW 66 : ... .. . ... ... ... : ... .. . ... ... ... : ... .. . ... : ... .. . ... : ... .. . ... ...
ROW 67 : ... .. 8 ... ... ... : ... .. 6 P7E ... ... : ... .. . P7F : ... .. . ... : ... .. . ... ...
ROW 68 : ... .. . ... ... ... : ... .. . ... ... ... : ... .. . ... : ... .. . ... : ... .. . ... ...
ROW 69 : ... .. 9 ... ... ... : ... .. . ... ... ... : ... .. . ... : ... .. . ... : ... .. . ... ...
ROW 6A : ... .. . ... ... ... : ... .. . ... ... ... : ... .. . ... : ... .. . ... : ... .. . ... ...
ROW 6B : ... .. . ... ... ... : ... .. . P80 ... ... : ... .. . P81 : ... .. . ... : ... .. . ... ...
ROW 6C : ... .. 8 ... ... ... : ... .. . ... ... ... : C#3 00 . P80 : ... .. C ... : ... .. . ... ...
ROW 6D : ... .. . ... ... ... : ... .. . ... ... ... : ... .. . ... : ... .. 0 ... : ... .. . ... ...
ROW 6E : ... .. . ... ... ... : ... .. . ... ... ... : ... .. . ... : ... .. . ... : ... .. . ... ...
ROW 6F : ... .. . ... ... ... : ... .. 5 P7E ... ... : ... .. . ... : ... .. . ... : ... .. . ... ...
ROW 70 : ... .. 7 ... ... ... : ... .. . ... ... ... : ... .. . ... : ... .. . ... : ... .. . ... ...
ROW 71 : ... .. . ... ... ... : ... .. . ... ... ... : ... .. . ... : ... .. . ... : ... .. . ... ...
ROW 72 : G#3 00 7 ... ... ... : ... .. . ... ... ... : ... .. . ... : ... .. . ... : ... .. . ... ...
ROW 73 : ... .. . ... ... ... : ... .. . P80 ... ... : ... .. . ... : ... .. . ... : ... .. . ... ...
ROW 74 : ... .. 8 ... ... ... : ... .. 4 ... ... ... : --- .. . ... : ... .. . ... : ... .. . ... ...
ROW 75 : ... .. . ... ... ... : ... .. . ... ... ... : ... .. . ... : ... .. . ... : ... .. . ... ...
ROW 76 : ... .. 9 ... ... ... : ... .. . ... ... ... : C#3 00 . ... : ... .. C ... : ... .. . ... ...
ROW 77 : ... .. . ... ... ... : ... .. . P7E ... ... : ... .. . ... : ... .. 0 ... : ... .. . ... ...
ROW 78 : ... .. . ... ... ... : ... .. . ... ... ... : ... .. . ... : ... .. . ... : ... .. . ... ...
ROW 79 : ... .. 8 ... ... ... : ... .. . ... ... ... : ... .. . ... : ... .. . ... : ... .. . ... ...
ROW 7A : ... .. . ... ... ... : ... .. . ... ... ... : ... .. . ... : ... .. . ... : ... .. . ... ...
ROW 7B : ... .. . ... ... ... : ... .. . P80 ... ... : ... .. . ... : ... .. . ... : ... .. . ... ...
ROW 7C : ... .. . ... ... ... : ... .. . ... ... ... : ... .. . ... : ... .. . ... : ... .. . ... ...
ROW 7D : ... .. 7 ... ... ... : ... .. . ... ... ... : ... .. . ... : ... .. . ... : ... .. . ... ...
ROW 7E : ... .. . ... ... ... : ... .. . ... ... ... : --- .. . ... : ... .. . ... : ... .. . ... ...
ROW 7F : F#3 00 7 ... ... ... : ... .. . P7E ... ... : ... .. . ... : ... .. . ... : ... .. . ... ...
ROW 80 : ... .. . ... ... ... : D#4 00 7 P80 ... ... : B-2 00 . ... : ... .. C ... : ... .. . ... ...
ROW 81 : ... .. 8 ... ... ... : ... .. . ... ... ... : ... .. . ... : ... .. 0 ... : ... .. . ... ...
ROW 82 : ... .. . ... ... ... : ... .. 8 ... ... ... : ... .. . ... : ... .. . ... : ... .. . ... ...
ROW 83 : ... .. 9 ... ... ... : ... .. . ... ... ... : ... .. . ... : ... .. . ... : ... .. . ... ...
ROW 84 : ... .. . ... ... ... : ... .. 9 ... ... ... : ... .. . ... : ... .. . ... : ... .. . ... ...
ROW 85 : ... .. . ... ... ... : ... .. . ... ... ... : ... .. . ... : ... .. . ... : ... .. . ... ...
ROW 86 : ... .. 8 ... ... ... : ... .. . ... ... ... : ... .. . ... : ... .. . ... : ... .. . ... ...
ROW 87 : ... .. . ... ... ... : ... .. 8 ... ... ... : ... .. . ... : ... .. . ... : ... .. . ... ...
ROW 88 : ... .. . ... ... ... : ... .. . ... ... ... : --- .. . ... : ... .. . ... : ... .. . ... ...
ROW 89 : ... .. . ... ... ... : ... .. . ... ... ... : ... .. . ... : ... .. . ... : ... .. . ... ...
ROW 8A : ... .. 7 ... ... ... : ... .. . ... ... ... : ... .. . ... : ... .. . ... : ... .. . ... ...
ROW 8B : ... .. . ... ... ... : ... .. 7 ... ... ... : ... .. . ... : ... .. . ... : ... .. . ... ...
ROW 8C : ... .. . ... ... ... : ... .. . ... ... ... : ... .. . ... : ... .. . ... : ... .. . ... ...
ROW 8D : ... .. . ... ... ... : ... .. . ... ... ... : ... .. . ... : ... .. . ... : ... .. . ... ...
ROW 8E : ... .. 6 P7E ... ... : ... .. . ... ... ... : ... .. . ... : ... .. . ... : ... .. . ... ...
ROW 8F : ... .. . ... ... ... : ... .. 6 P7F ... ... : ... .. . P7F : ... .. . ... : ... .. . ... ...
ROW 90 : ... .. . ... ... ... : ... .. . ... ... ... : ... .. . ... : ... .. . ... : ... .. . ... ...
ROW 91 : ... .. . ... ... ... : ... .. . ... ... ... : ... .. . ... : ... .. . ... : ... .. . ... ...
ROW 92 : ... .. . P80 ... ... : ... .. . ... ... ... : ... .. . ... : ... .. . ... : ... .. . ... ...
ROW 93 : ... .. 7 P7F ... ... : ... .. . P81 ... ... : ... .. . P81 : ... .. . ... : ... .. . ... ...
ROW 94 : ... .. . ... ... ... : ... .. 7 P80 ... ... : B-2 00 . P80 : ... .. C ... : ... .. . ... ...
ROW 95 : ... .. 8 ... ... ... : ... .. . ... ... ... : ... .. . ... : ... .. 0 ... : ... .. . ... ...
ROW 96 : ... .. . ... ... ... : ... .. 8 ... ... ... : ... .. . ... : ... .. . ... : ... .. . ... ...
ROW 97 : ... .. 9 ... ... ... : ... .. . ... ... ... : ... .. . ... : ... .. . ... : ... .. . ... ...
ROW 98 : ... .. . ... ... ... : ... .. 9 ... ... ... : ... .. . ... : ... .. . ... : ... .. . ... ...
ROW 99 : ... .. . ... ... ... : ... .. . ... ... ... : ... .. . ... : ... .. . ... : ... .. . ... ...
ROW 9A : ... .. 8 ... ... ... : ... .. . ... ... ... : ... .. . ... : ... .. . ... : ... .. . ... ...
ROW 9B : ... .. . ... ... ... : ... .. 8 ... ... ... : ... .. . ... : ... .. . ... : ... .. . ... ...
ROW 9C : ... .. . ... ... ... : ... .. . ... ... ... : --- .. . ... : ... .. . ... : ... .. . ... ...
ROW 9D : F-3 00 7 ... ... ... : ... .. . ... ... ... : ... .. . ... : ... .. . ... : ... .. . ... ...
ROW 9E : ... .. . ... ... ... : F-4 00 7 P7F ... ... : B-2 00 . ... : ... .. C ... : ... .. . ... ...
ROW 9F : ... .. 8 ... ... ... : ... .. . ... ... ... : ... .. . ... : ... .. 0 ... : ... .. . ... ...
ROW A0 : ... .. . ... ... ... : ... .. 8 ... ... ... : ... .. . ... : ... .. . ... : ... .. . ... ...
ROW A1 : ... .. 9 ... ... ... : ... .. . ... ... ... : ... .. . ... : ... .. . ... : ... .. . ... ...
ROW A2 : ... .. . ... ... ... : ... .. 9 ... ... ... : ... .. . ... : ... .. . ... : ... .. . ... ...
ROW A3 : ... .. . ... ... ... : ... .. . ... ... ... : ... .. . ... : ... .. . ... : ... .. . ... ...
ROW A4 : ... .. 8 ... ... ... : ... .. . ... ... ... : ... .. . ... : ... .. . ... : ... .. . ... ...
ROW A5 : ... .. . ... ... ... : ... .. 8 ... ... ... : ... .. . ... : ... .. . ... : ... .. . ... ...
ROW A6 : ... .. . ... ... ... : ... .. . ... ... ... : --- .. . ... : ... .. . ... : ... .. . ... ...
ROW A7 : F#3 00 7 ... ... ... : ... .. . ... ... ... : ... .. . ... : ... .. . ... : ... .. . ... ...
ROW A8 : ... .. . ... ... ... : F#4 00 7 ... ... ... : B-2 00 . ... : ... .. C ... : ... .. . ... ...
ROW A9 : ... .. 8 ... ... ... : ... .. . ... ... ... : ... .. . ... : ... .. 0 ... : ... .. . ... ...
ROW AA : ... .. . ... ... ... : ... .. 8 ... ... ... : ... .. . ... : ... .. . ... : ... .. . ... ...
ROW AB : ... .. 9 ... ... ... : ... .. . ... ... ... : ... .. . ... : ... .. . ... : ... .. . ... ...
ROW AC : ... .. . ... ... ... : ... .. 9 ... ... ... : ... .. . ... : ... .. . ... : ... .. . ... ...
ROW AD : ... .. . ... ... ... : ... .. . ... ... ... : ... .. . ... : ... .. . ... : ... .. . ... ...
ROW AE : ... .. 8 ... ... ... : ... .. . ... ... ... : ... .. . ... : ... .. . ... : ... .. . ... ...
ROW AF : ... .. . ... ... ... : ... .. 8 ... ... ... : ... .. . ... : ... .. . ... : ... .. . ... ...
ROW B0 : ... .. . ... ... ... : ... .. . ... ... ... : --- .. . ... : ... .. . ... : ... .. . ... ...
ROW B1 : ... .. . ... ... ... : ... .. . ... ... ... : ... .. . ... : ... .. . ... : ... .. . ... ...
ROW B2 : ... .. 7 ... ... ... : ... .. . ... ... ... : ... .. . ... : ... .. . ... : ... .. . ... ...
ROW B3 : ... .. . ... ... ... : ... .. 7 ... ... ... : ... .. . ... : ... .. . ... : ... .. . ... ...
ROW B4 : ... .. . ... ... ... : ... .. . ... ... ... : ... .. . ... : ... .. . ... : ... .. . ... ...
ROW B5 : ... .. . ... ... ... : ... .. . ... ... ... : ... .. . ... : ... .. . ... : ... .. . ... ...
ROW B6 : ... .. 6 P7E ... ... : ... .. . ... ... ... : ... .. . ... : ... .. . ... : ... .. . ... ...
ROW B7 : ... .. . ... ... ... : ... .. 6 P7E ... ... : ... .. . P7F : ... .. . ... : ... .. . ... ...
ROW B8 : ... .. . ... ... ... : ... .. . ... ... ... : ... .. . ... : ... .. . ... : ... .. . ... ...
ROW B9 : ... .. . ... ... ... : ... .. . ... ... ... : ... .. . ... : ... .. . ... : ... .. . ... ...
ROW BA : ... .. . P80 ... ... : ... .. . ... ... ... : ... .. . ... : ... .. . ... : ... .. . ... ...
ROW BB : ... .. 7 P7F ... ... : ... .. . P80 ... ... : ... .. . P81 : ... .. . ... : ... .. . ... ...
ROW BC : ... .. . ... ... ... : ... .. . ... ... ... : B-2 00 . P80 : ... .. C ... : ... .. . ... ...
ROW BD : ... .. 8 ... ... ... : ... .. . ... ... ... : ... .. . ... : ... .. 0 ... : ... .. . ... ...
ROW BE : ... .. . ... ... ... : ... .. . ... ... ... : ... .. . ... : ... .. . ... : ... .. . ... ...
ROW BF : ... .. 9 ... ... ... : ... .. 5 P7E ... ... : ... .. . ... : ... .. . ... : ... .. . ... ...
ROW C0 : ... .. . ... ... ... : ... .. . ... ... ... : ... .. . ... : ... .. . ... : ... .. . ... ...
ROW C1 : ... .. . ... ... ... : ... .. . ... ... ... : ... .. . ... : ... .. . ... : ... .. . ... ...
ROW C2 : ... .. 8 ... ... ... : ... .. . ... ... ... : ... .. . ... : ... .. . ... : ... .. . ... ...
ROW C3 : ... .. . ... ... ... : ... .. . P80 ... ... : ... .. . ... : ... .. . ... : ... .. . ... ...
ROW C4 : ... .. . ... ... ... : ... .. 4 ... ... ... : --- .. . ... : ... .. . ... : ... .. . ... ...
ROW C5 : G#3 00 7 ... ... ... : ... .. . ... ... ... : ... .. . ... : ... .. . ... : ... .. . ... ...
ROW C6 : ... .. . ... ... ... : ... .. . ... ... ... : B-2 00 . ... : ... .. C ... : ... .. . ... ...
ROW C7 : ... .. 8 ... ... ... : ... .. . P7E ... ... : ... .. . ... : ... .. 0 ... : ... .. . ... ...
ROW C8 : ... .. . ... ... ... : ... .. . ... ... ... : ... .. . ... : ... .. . ... : ... .. . ... ...
ROW C9 : ... .. 9 ... ... ... : ... .. . ... ... ... : ... .. . ... : ... .. . ... : ... .. . ... ...
ROW CA : ... .. . ... ... ... : ... .. . ... ... ... : ... .. . ... : ... .. . ... : ... .. . ... ...
ROW CB : ... .. . ... ... ... : ... .. . P80 ... ... : ... .. . ... : ... .. . ... : ... .. . ... ...
ROW CC : ... .. 8 ... ... ... : ... .. . ... ... ... : ... .. . ... : ... .. . ... : ... .. . ... ...
ROW CD : ... .. . ... ... ... : ... .. . ... ... ... : ... .. . ... : ... .. . ... : ... .. . ... ...
ROW CE : ... .. . ... ... ... : ... .. . ... ... ... : --- .. . ... : ... .. . ... : ... .. . ... ...
ROW CF : A#3 00 7 P80 ... ... : ... .. . P7E ... ... : ... .. . ... : ... .. . ... : ... .. . ... ...
ROW D0 : ... .. . ... ... ... : ... .. . ... ... ... : B-2 00 . ... : ... .. C ... : ... .. . ... ...
ROW D1 : ... .. 8 ... ... ... : ... .. . ... ... ... : ... .. . ... : ... .. 0 ... : ... .. . ... ...
ROW D2 : ... .. . ... ... ... : ... .. . ... ... ... : ... .. . ... : ... .. . ... : ... .. . ... ...
ROW D3 : ... .. 9 ... ... ... : ... .. . P80 ... ... : ... .. . ... : ... .. . ... : ... .. . ... ...
ROW D4 : ... .. . ... ... ... : ... .. . ... ... ... : ... .. . ... : ... .. . ... : ... .. . ... ...
ROW D5 : ... .. . ... ... ... : ... .. . ... ... ... : ... .. . ... : ... .. . ... : ... .. . ... ...
ROW D6 : ... .. 8 ... ... ... : ... .. . ... ... ... : ... .. . ... : ... .. . ... : ... .. . ... ...
ROW D7 : ... .. . ... ... ... : ... .. . P7E ... ... : ... .. . ... : ... .. . ... : ... .. . ... ...
ROW D8 : ... .. . ... ... ... : ... .. . ... ... ... : --- .. . ... : ... .. . ... : ... .. . ... ...
ROW D9 : ... .. . ... ... ... : ... .. . ... ... ... : ... .. . ... : ... .. . ... : ... .. . ... ...
ROW DA : ... .. 7 ... ... ... : ... .. . ... ... ... : ... .. . ... : ... .. . ... : ... .. . ... ...
ROW DB : ... .. . ... ... ... : ... .. . P80 ... ... : ... .. . ... : ... .. . ... : ... .. . ... ...
ROW DC : ... .. . ... ... ... : ... .. . ... ... ... : ... .. . ... : ... .. . ... : ... .. . ... ...
ROW DD : ... .. . ... ... ... : ... .. . ... ... ... : ... .. . ... : ... .. . ... : ... .. . ... ...
ROW DE : ... .. 6 P7F ... ... : ... .. . ... ... ... : ... .. . ... : ... .. . ... : ... .. . ... ...
ROW DF : ... .. . ... ... ... : ... .. . P7E ... ... : ... .. . P7F : ... .. . ... : ... .. . ... ...
ROW E0 : ... .. . ... ... ... : ... .. . ... ... ... : ... .. . ... : ... .. . ... : ... .. . ... ...
ROW E1 : ... .. . ... ... ... : ... .. . ... ... ... : ... .. . ... : ... .. . ... : ... .. . ... ...
ROW E2 : ... .. . P81 ... ... : ... .. . ... ... ... : ... .. . ... : ... .. . ... : ... .. . ... ...
ROW E3 : ... .. . ... ... ... : ... .. . P80 ... ... : ... .. . P81 : ... .. . ... : ... .. . ... ...
ROW E4 : ... .. . ... ... ... : ... .. . ... ... ... : B-2 00 . P80 : ... .. C ... : ... .. . ... ...
ROW E5 : ... .. . ... ... ... : ... .. . ... ... ... : ... .. . ... : ... .. 0 ... : ... .. . ... ...
ROW E6 : ... .. 5 P7F ... ... : ... .. . ... ... ... : ... .. . ... : ... .. . ... : ... .. . ... ...
ROW E7 : ... .. . ... ... ... : ... .. . P7E ... ... : ... .. . ... : ... .. . ... : ... .. . ... ...
ROW E8 : ... .. . ... ... ... : ... .. . ... ... ... : ... .. . ... : ... .. . ... : ... .. . ... ...
ROW E9 : ... .. . ... ... ... : ... .. . ... ... ... : ... .. . ... : ... .. . ... : ... .. . ... ...
ROW EA : ... .. . P81 ... ... : ... .. . ... ... ... : ... .. . ... : ... .. . ... : ... .. . ... ...
ROW EB : ... .. 4 ... ... ... : ... .. . P80 ... ... : ... .. . ... : ... .. . ... : ... .. . ... ...
ROW EC : ... .. . ... ... ... : ... .. . ... ... ... : --- .. . ... : ... .. . ... : ... .. . ... ...
ROW ED : ... .. . ... ... ... : ... .. . ... ... ... : ... .. . ... : ... .. . ... : ... .. . ... ...
ROW EE : ... .. . P7F ... ... : ... .. . ... ... ... : B-2 00 . ... : ... .. C ... : ... .. . ... ...
ROW EF : ... .. . ... ... ... : ... .. . P7E ... ... : ... .. . ... : ... .. 0 ... : ... .. . ... ...
ROW F0 : ... .. . ... ... ... : ... .. . ... ... ... : ... .. . ... : ... .. . ... : ... .. . ... ...
ROW F1 : ... .. . ... ... ... : ... .. . ... ... ... : ... .. . ... : ... .. . ... : ... .. . ... ...
ROW F2 : ... .. . P81 ... ... : ... .. . ... ... ... : ... .. . ... : ... .. . ... : ... .. . ... ...
ROW F3 : ... .. . ... ... ... : ... .. . P80 ... ... : ... .. . ... : ... .. . ... : ... .. . ... ...
ROW F4 : ... .. . ... ... ... : ... .. . ... ... ... : ... .. . ... : ... .. . ... : ... .. . ... ...
ROW F5 : ... .. . ... ... ... : ... .. . ... ... ... : ... .. . ... : ... .. . ... : ... .. . ... ...
ROW F6 : ... .. . P7F ... ... : ... .. . ... ... ... : --- .. . ... : ... .. . ... : ... .. . ... ...
ROW F7 : G#3 00 7 ... ... ... : ... .. . P7E ... ... : ... .. . ... : ... .. . ... : ... .. . ... ...
ROW F8 : ... .. . ... ... ... : F-4 00 7 P7F ... ... : B-2 00 . ... : ... .. C ... : ... .. . ... ...
ROW F9 : ... .. 8 ... ... ... : ... .. . ... ... ... : ... .. . ... : ... .. 0 ... : ... .. . ... ...
ROW FA : ... .. . ... ... ... : ... .. 8 ... ... ... : ... .. . ... : ... .. . ... : ... .. . ... ...
ROW FB : ... .. 9 ... ... ... : ... .. . ... ... ... : ... .. . ... : ... .. . ... : ... .. . ... ...
ROW FC : ... .. . ... ... ... : ... .. 9 ... ... ... : ... .. . ... : ... .. . ... : ... .. . ... ...
ROW FD : ... .. . ... ... ... : ... .. . ... ... ... : ... .. . ... : ... .. . ... : ... .. . ... ...
ROW FE : ... .. 8 ... ... ... : ... .. . ... ... ... : ... .. . ... : ... .. . ... : ... .. . ... ...
ROW FF : ... .. . ... ... ... : ... .. 8 ... ... ... : ... .. . ... : ... .. . ... : ... .. . ... ...

PATTERN 1C
ROW 00 : ... .. . ... ... ... : ... .. . ... ... ... : --- .. . ... : ... .. . ... : ... .. . ... ...
ROW 01 : ... .. . ... ... ... : ... .. . ... ... ... : ... .. . ... : ... .. . ... : ... .. . ... ...
ROW 02 : ... .. 7 ... ... ... : ... .. . ... ... ... : ... .. . ... : ... .. . ... : ... .. . ... ...
ROW 03 : ... .. . ... ... ... : ... .. 7 ... ... ... : ... .. . ... : ... .. . ... : ... .. . ... ...
ROW 04 : ... .. . ... ... ... : ... .. . ... ... ... : ... .. . ... : ... .. . ... : ... .. . ... ...
ROW 05 : ... .. . ... ... ... : ... .. . ... ... ... : ... .. . ... : ... .. . ... : ... .. . ... ...
ROW 06 : ... .. 6 P7E ... ... : ... .. . ... ... ... : ... .. . ... : ... .. . ... : ... .. . ... ...
ROW 07 : ... .. . ... ... ... : ... .. 6 P7E ... ... : ... .. . P7F : ... .. . ... : ... .. . ... ...
ROW 08 : ... .. . ... ... ... : ... .. . ... ... ... : ... .. . ... : ... .. . ... : ... .. . ... ...
ROW 09 : ... .. . ... ... ... : ... .. . ... ... ... : ... .. . ... : ... .. . ... : ... .. . ... ...
ROW 0A : ... .. . P80 ... ... : ... .. . ... ... ... : ... .. . ... : ... .. . ... : ... .. . ... ...
ROW 0B : F#3 00 7 P7F ... ... : ... .. . P80 ... ... : ... .. . P81 : ... .. . ... : ... .. . ... ...
ROW 0C : ... .. . ... ... ... : D#4 00 7 ... ... ... : B-2 00 . P80 : ... .. C ... : ... .. . ... ...
ROW 0D : ... .. 8 ... ... ... : ... .. . ... ... ... : ... .. . ... : ... .. 0 ... : ... .. . ... ...
ROW 0E : ... .. . ... ... ... : ... .. 8 ... ... ... : ... .. . ... : ... .. . ... : ... .. . ... ...
ROW 0F : ... .. 9 ... ... ... : ... .. . ... ... ... : ... .. . ... : ... .. . ... : ... .. . ... ...
ROW 10 : ... .. . ... ... ... : ... .. 9 ... ... ... : ... .. . ... : ... .. . ... : ... .. . ... ...
ROW 11 : ... .. . ... ... ... : ... .. . ... ... ... : ... .. . ... : ... .. . ... : ... .. . ... ...
ROW 12 : ... .. 8 ... ... ... : ... .. . ... ... ... : ... .. . ... : ... .. . ... : ... .. . ... ...
ROW 13 : ... .. . ... ... ... : ... .. 8 ... ... ... : ... .. . ... : ... .. . ... : ... .. . ... ...
ROW 14 : ... .. . ... ... ... : ... .. . ... ... ... : --- .. . ... : ... .. . ... : ... .. . ... ...
ROW 15 : ... .. . ... ... ... : ... .. . ... ... ... : ... .. . ... : ... .. . ... : ... .. . ... ...
ROW 16 : ... .. 7 ... ... ... : ... .. . ... ... ... : B-2 00 . ... : ... .. C ... : ... .. . ... ...
ROW 17 : ... .. . ... ... ... : ... .. 7 ... ... ... : ... .. . ... : ... .. 0 ... : ... .. . ... ...
ROW 18 : ... .. . ... ... ... : ... .. . ... ... ... : ... .. . ... : ... .. . ... : ... .. . ... ...
ROW 19 : ... .. . ... ... ... : ... .. . ... ... ... : ... .. . ... : ... .. . ... : ... .. . ... ...
ROW 1A : ... .. 6 P7E ... ... : ... .. . ... ... ... : ... .. . ... : ... .. . ... : ... .. . ... ...
ROW 1B : ... .. . ... ... ... : ... .. 6 P7F ... ... : ... .. . ... : ... .. . ... : ... .. . ... ...
ROW 1C : ... .. . ... ... ... : ... .. . ... ... ... : ... .. . ... : ... .. . ... : ... .. . ... ...
ROW 1D : ... .. . ... ... ... : ... .. . ... ... ... : ... .. . ... : ... .. . ... : ... .. . ... ...
ROW 1E : ... .. . P80 ... ... : ... .. . ... ... ... : --- .. . ... : ... .. . ... : ... .. . ... ...
ROW 1F : ... .. . ... ... ... : ... .. . ... ... ... : ... .. . ... : ... .. . ... : ... .. . ... ...
ROW 20 : ... .. . ... ... ... : ... .. . ... ... ... : ... .. . ... : ... .. . ... : ... .. . ... ...
ROW 21 : ... .. . ... ... ... : ... .. . ... ... ... : ... .. . ... : ... .. . ... : ... .. . ... ...
ROW 22 : ... .. . ... ... ... : ... .. . ... ... ... : ... .. . ... : ... .. . ... : ... .. . ... ...
ROW 23 : ... .. . ... ... ... : ... .. . ... ... ... : ... .. . ... : ... .. . ... : ... .. . ... ...
ROW 24 : ... .. . ... ... ... : ... .. . ... ... ... : ... .. . ... : ... .. . ... : ... .. . ... ...
ROW 25 : ... .. . ... ... ... : ... .. . ... ... ... : ... .. . ... : ... .. . ... : ... .. . ... ...
ROW 26 : ... .. . ... ... ... : ... .. . ... ... ... : ... .. . ... : ... .. . ... : ... .. . ... ...
ROW 27 : ... .. . ... ... ... : ... .. . ... ... ... : ... .. . ... : ... .. . ... : ... .. . ... ...
ROW 28 : ... .. . ... ... ... : ... .. . ... ... ... : ... .. . ... : ... .. . ... : ... .. . ... ...
ROW 29 : ... .. . ... ... ... : ... .. . ... ... ... : ... .. . ... : ... .. . ... : ... .. . ... ...
ROW 2A : ... .. . ... ... ... : ... .. . ... ... ... : ... .. . ... : ... .. . ... : ... .. . ... ...
ROW 2B : ... .. . ... ... ... : ... .. . ... ... ... : ... .. . ... : ... .. . ... : ... .. . ... ...
ROW 2C : ... .. . ... ... ... : ... .. . ... ... ... : ... .. . ... : ... .. . ... : ... .. . ... ...
ROW 2D : ... .. . ... ... ... : ... .. . ... ... ... : ... .. . ... : ... .. . ... : ... .. . ... ...
ROW 2E : ... .. . ... ... ... : ... .. . ... ... ... : ... .. . ... : ... .. . ... : ... .. . ... ...
ROW 2F : ... .. . ... ... ... : ... .. . ... ... ... : ... .. . ... : ... .. . ... : ... .. . ... ...
ROW 30 : ... .. . ... ... ... : ... .. . ... ... ... : ... .. . ... : ... .. . ... : ... .. . ... ...
ROW 31 : ... .. . ... ... ... : ... .. . ... ... ... : ... .. . ... : ... .. . ... : ... .. . ... ...
ROW 32 : ... .. . ... ... ... : ... .. . ... ... ... : ... .. . ... : ... .. . ... : ... .. . ... ...
ROW 33 : ... .. . ... ... ... : ... .. . ... ... ... : ... .. . ... : ... .. . ... : ... .. . ... ...
ROW 34 : ... .. . ... ... ... : ... .. . ... ... ... : ... .. . ... : ... .. . ... : ... .. . ... ...
ROW 35 : ... .. . ... ... ... : ... .. . ... ... ... : ... .. . ... : ... .. . ... : ... .. . ... ...
ROW 36 : ... .. . ... ... ... : ... .. . ... ... ... : ... .. . ... : ... .. . ... : ... .. . ... ...
ROW 37 : ... .. . ... ... ... : ... .. . ... ... ... : ... .. . ... : ... .. . ... : ... .. . ... ...
ROW 38 : ... .. . ... ... ... : ... .. . ... ... ... : ... .. . ... : ... .. . ... : ... .. . ... ...
ROW 39 : ... .. . ... ... ... : ... .. . ... ... ... : ... .. . ... : ... .. . ... : ... .. . ... ...
ROW 3A : ... .. . ... ... ... : ... .. . ... ... ... : ... .. . ... : ... .. . ... : ... .. . ... ...
ROW 3B : ... .. . ... ... ... : ... .. . ... ... ... : ... .. . ... : ... .. . ... : ... .. . ... ...
ROW 3C : ... .. . ... ... ... : ... .. . ... ... ... : ... .. . ... : ... .. . ... : ... .. . ... ...
ROW 3D : ... .. . ... ... ... : ... .. . ... ... ... : ... .. . ... : ... .. . ... : ... .. . ... ...
ROW 3E : ... .. . ... ... ... : ... .. . ... ... ... : ... .. . ... : ... .. . ... : ... .. . ... ...
ROW 3F : ... .. . ... ... ... : ... .. . ... ... ... : ... .. . ... : ... .. . ... : ... .. . ... ...
ROW 40 : ... .. . ... ... ... : ... .. . ... ... ... : ... .. . ... : ... .. . ... : ... .. . ... ...
ROW 41 : ... .. . ... ... ... : ... .. . ... ... ... : ... .. . ... : ... .. . ... : ... .. . ... ...
ROW 42 : ... .. . ... ... ... : ... .. . ... ... ... : ... .. . ... : ... .. . ... : ... .. . ... ...
ROW 43 : ... .. . ... ... ... : ... .. . ... ... ... : ... .. . ... : ... .. . ... : ... .. . ... ...
ROW 44 : ... .. . ... ... ... : ... .. . ... ... ... : ... .. . ... : ... .. . ... : ... .. . ... ...
ROW 45 : ... .. . ... ... ... : ... .. . ... ... ... : ... .. . ... : ... .. . ... : ... .. . ... ...
ROW 46 : ... .. . ... ... ... : ... .. . ... ... ... : ... .. . ... : ... .. . ... : ... .. . ... ...
ROW 47 : ... .. . ... ... ... : ... .. . ... ... ... : ... .. . ... : ... .. . ... : ... .. . ... ...
ROW 48 : ... .. . ... ... ... : ... .. . ... ... ... : ... .. . ... : ... .. . ... : ... .. . ... ...
ROW 49 : ... .. . ... ... ... : ... .. . ... ... ... : ... .. . ... : ... .. . ... : ... .. . ... ...
ROW 4A : ... .. . ... ... ... : ... .. . ... ... ... : ... .. . ... : ... .. . ... : ... .. . ... ...
ROW 4B : ... .. . ... ... ... : ... .. . ... ... ... : ... .. . ... : ... .. . ... : ... .. . ... ...
ROW 4C : ... .. . ... ... ... : ... .. . ... ... ... : ... .. . ... : ... .. . ... : ... .. . ... ...
ROW 4D : ... .. . ... ... ... : ... .. . ... ... ... : ... .. . ... : ... .. . ... : ... .. . ... ...
ROW 4E : ... .. . ... ... ... : ... .. . ... ... ... : ... .. . ... : ... .. . ... : ... .. . ... ...
ROW 4F : ... .. . ... ... ... : ... .. . ... ... ... : ... .. . ... : ... .. . ... : ... .. . ... ...
ROW 50 : ... .. . ... ... ... : ... .. . ... ... ... : ... .. . ... : ... .. . ... : ... .. . ... ...
ROW 51 : ... .. . ... ... ... : ... .. . ... ... ... : ... .. . ... : ... .. . ... : ... .. . ... ...
ROW 52 : ... .. . ... ... ... : ... .. . ... ... ... : ... .. . ... : ... .. . ... : ... .. . ... ...
ROW 53 : ... .. . ... ... ... : ... .. . ... ... ... : ... .. . ... : ... .. . ... : ... .. . ... ...
ROW 54 : ... .. . ... ... ... : ... .. . ... ... ... : ... .. . ... : ... .. . ... : ... .. . ... ...
ROW 55 : ... .. . ... ... ... : ... .. . ... ... ... : ... .. . ... : ... .. . ... : ... .. . ... ...
ROW 56 : ... .. . ... ... ... : ... .. . ... ... ... : ... .. . ... : ... .. . ... : ... .. . ... ...
ROW 57 : ... .. . ... ... ... : ... .. . ... ... ... : ... .. . ... : ... .. . ... : ... .. . ... ...
ROW 58 : ... .. . ... ... ... : ... .. . ... ... ... : ... .. . ... : ... .. . ... : ... .. . ... ...
ROW 59 : ... .. . ... ... ... : ... .. . ... ... ... : ... .. . ... : ... .. . ... : ... .. . ... ...
ROW 5A : ... .. . ... ... ... : ... .. . ... ... ... : ... .. . ... : ... .. . ... : ... .. . ... ...
ROW 5B : ... .. . ... ... ... : ... .. . ... ... ... : ... .. . ... : ... .. . ... : ... .. . ... ...
ROW 5C : ... .. . ... ... ... : ... .. . ... ... ... : ... .. . ... : ... .. . ... : ... .. . ... ...
ROW 5D : ... .. . ... ... ... : ... .. . ... ... ... : ... .. . ... : ... .. . ... : ... .. . ... ...
ROW 5E : ... .. . ... ... ... : ... .. . ... ... ... : ... .. . ... : ... .. . ... : ... .. . ... ...
ROW 5F : ... .. . ... ... ... : ... .. . ... ... ... : ... .. . ... : ... .. . ... : ... .. . ... ...
ROW 60 : ... .. . ... ... ... : ... .. . ... ... ... : ... .. . ... : ... .. . ... : ... .. . ... ...
ROW 61 : ... .. . ... ... ... : ... .. . ... ... ... : ... .. . ... : ... .. . ... : ... .. . ... ...
ROW 62 : ... .. . ... ... ... : ... .. . ... ... ... : ... .. . ... : ... .. . ... : ... .. . ... ...
ROW 63 : ... .. . ... ... ... : ... .. . ... ... ... : ... .. . ... : ... .. . ... : ... .. . ... ...
ROW 64 : ... .. . ... ... ... : ... .. . ... ... ... : ... .. . ... : ... .. . ... : ... .. . ... ...
ROW 65 : ... .. . ... ... ... : ... .. . ... ... ... : ... .. . ... : ... .. . ... : ... .. . ... ...
ROW 66 : ... .. . ... ... ... : ... .. . ... ... ... : ... .. . ... : ... .. . ... : ... .. . ... ...
ROW 67 : ... .. . ... ... ... : ... .. . ... ... ... : ... .. . ... : ... .. . ... : ... .. . ... ...
ROW 68 : ... .. . ... ... ... : ... .. . ... ... ... : ... .. . ... : ... .. . ... : ... .. . ... ...
ROW 69 : ... .. . ... ... ... : ... .. . ... ... ... : ... .. . ... : ... .. . ... : ... .. . ... ...
ROW 6A : ... .. . ... ... ... : ... .. . ... ... ... : ... .. . ... : ... .. . ... : ... .. . ... ...
ROW 6B : ... .. . ... ... ... : ... .. . ... ... ... : ... .. . ... : ... .. . ... : ... .. . ... ...
ROW 6C : ... .. . ... ... ... : ... .. . ... ... ... : ... .. . ... : ... .. . ... : ... .. . ... ...
ROW 6D : ... .. . ... ... ... : ... .. . ... ... ... : ... .. . ... : ... .. . ... : ... .. . ... ...
ROW 6E : ... .. . ... ... ... : ... .. . ... ... ... : ... .. . ... : ... .. . ... : ... .. . ... ...
ROW 6F : ... .. . ... ... ... : ... .. . ... ... ... : ... .. . ... : ... .. . ... : ... .. . ... ...
ROW 70 : ... .. . ... ... ... : ... .. . ... ... ... : ... .. . ... : ... .. . ... : ... .. . ... ...
ROW 71 : ... .. . ... ... ... : ... .. . ... ... ... : ... .. . ... : ... .. . ... : ... .. . ... ...
ROW 72 : ... .. . ... ... ... : ... .. . ... ... ... : ... .. . ... : ... .. . ... : ... .. . ... ...
ROW 73 : ... .. . ... ... ... : ... .. . ... ... ... : ... .. . ... : ... .. . ... : ... .. . ... ...
ROW 74 : ... .. . ... ... ... : ... .. . ... ... ... : ... .. . ... : ... .. . ... : ... .. . ... ...
ROW 75 : ... .. . ... ... ... : ... .. . ... ... ... : ... .. . ... : ... .. . ... : ... .. . ... ...
ROW 76 : ... .. . ... ... ... : ... .. . ... ... ... : ... .. . ... : ... .. . ... : ... .. . ... ...
ROW 77 : ... .. . ... ... ... : ... .. . ... ... ... : ... .. . ... : ... .. . ... : ... .. . ... ...
ROW 78 : ... .. . ... ... ... : ... .. . ... ... ... : ... .. . ... : ... .. . ... : ... .. . ... ...
ROW 79 : ... .. . ... ... ... : ... .. . ... ... ... : ... .. . ... : ... .. . ... : ... .. . ... ...
ROW 7A : ... .. . ... ... ... : ... .. . ... ... ... : ... .. . ... : ... .. . ... : ... .. . ... ...
ROW 7B : ... .. . ... ... ... : ... .. . ... ... ... : ... .. . ... : ... .. . ... : ... .. . ... ...
ROW 7C : ... .. . ... ... ... : ... .. . ... ... ... : ... .. . ... : ... .. . ... : ... .. . ... ...
ROW 7D : ... .. . ... ... ... : ... .. . ... ... ... : ... .. . ... : ... .. . ... : ... .. . ... ...
ROW 7E : ... .. . ... ... ... : ... .. . ... ... ... : ... .. . ... : ... .. . ... : ... .. . ... ...
ROW 7F : ... .. . ... ... ... : ... .. . ... ... ... : ... .. . ... : ... .. . ... : ... .. . ... ...
ROW 80 : ... .. . ... ... ... : ... .. . ... ... ... : ... .. . ... : ... .. . ... : ... .. . ... ...
ROW 81 : ... .. . ... ... ... : ... .. . ... ... ... : ... .. . ... : ... .. . ... : ... .. . ... ...
ROW 82 : ... .. . ... ... ... : ... .. . ... ... ... : ... .. . ... : ... .. . ... : ... .. . ... ...
ROW 83 : ... .. . ... ... ... : ... .. . ... ... ... : ... .. . ... : ... .. . ... : ... .. . ... ...
ROW 84 : ... .. . ... ... ... : ... .. . ... ... ... : ... .. . ... : ... .. . ... : ... .. . ... ...
ROW 85 : ... .. . ... ... ... : ... .. . ... ... ... : ... .. . ... : ... .. . ... : ... .. . ... ...
ROW 86 : ... .. . ... ... ... : ... .. . ... ... ... : ... .. . ... : ... .. . ... : ... .. . ... ...
ROW 87 : ... .. . ... ... ... : ... .. . ... ... ... : ... .. . ... : ... .. . ... : ... .. . ... ...
ROW 88 : ... .. . ... ... ... : ... .. . ... ... ... : ... .. . ... : ... .. . ... : ... .. . ... ...
ROW 89 : ... .. . ... ... ... : ... .. . ... ... ... : ... .. . ... : ... .. . ... : ... .. . ... ...
ROW 8A : ... .. . ... ... ... : ... .. . ... ... ... : ... .. . ... : ... .. . ... : ... .. . ... ...
ROW 8B : ... .. . ... ... ... : ... .. . ... ... ... : ... .. . ... : ... .. . ... : ... .. . ... ...
ROW 8C : ... .. . ... ... ... : ... .. . ... ... ... : ... .. . ... : ... .. . ... : ... .. . ... ...
ROW 8D : ... .. . ... ... ... : ... .. . ... ... ... : ... .. . ... : ... .. . ... : ... .. . ... ...
ROW 8E : ... .. . ... ... ... : ... .. . ... ... ... : ... .. . ... : ... .. . ... : ... .. . ... ...
ROW 8F : ... .. . ... ... ... : ... .. . ... ... ... : ... .. . ... : ... .. . ... : ... .. . ... ...
ROW 90 : ... .. . ... ... ... : ... .. . ... ... ... : ... .. . ... : ... .. . ... : ... .. . ... ...
ROW 91 : ... .. . ... ... ... : ... .. . ... ... ... : ... .. . ... : ... .. . ... : ... .. . ... ...
ROW 92 : ... .. . ... ... ... : ... .. . ... ... ... : ... .. . ... : ... .. . ... : ... .. . ... ...
ROW 93 : ... .. . ... ... ... : ... .. . ... ... ... : ... .. . ... : ... .. . ... : ... .. . ... ...
ROW 94 : ... .. . ... ... ... : ... .. . ... ... ... : ... .. . ... : ... .. . ... : ... .. . ... ...
ROW 95 : ... .. . ... ... ... : ... .. . ... ... ... : ... .. . ... : ... .. . ... : ... .. . ... ...
ROW 96 : ... .. . ... ... ... : ... .. . ... ... ... : ... .. . ... : ... .. . ... : ... .. . ... ...
ROW 97 : ... .. . ... ... ... : ... .. . ... ... ... : ... .. . ... : ... .. . ... : ... .. . ... ...
ROW 98 : ... .. . ... ... ... : ... .. . ... ... ... : ... .. . ... : ... .. . ... : ... .. . ... ...
ROW 99 : ... .. . ... ... ... : ... .. . ... ... ... : ... .. . ... : ... .. . ... : ... .. . ... ...
ROW 9A : ... .. . ... ... ... : ... .. . ... ... ... : ... .. . ... : ... .. . ... : ... .. . ... ...
ROW 9B : ... .. . ... ... ... : ... .. . ... ... ... : ... .. . ... : ... .. . ... : ... .. . ... ...
ROW 9C : ... .. . ... ... ... : ... .. . ... ... ... : ... .. . ... : ... .. . ... : ... .. . ... ...
ROW 9D : ... .. . ... ... ... : ... .. . ... ... ... : ... .. . ... : ... .. . ... : ... .. . ... ...
ROW 9E : ... .. . ... ... ... : ... .. . ... ... ... : ... .. . ... : ... .. . ... : ... .. . ... ...
ROW 9F : ... .. . ... ... ... : ... .. . ... ... ... : ... .. . ... : ... .. . ... : ... .. . ... ...
ROW A0 : ... .. . ... ... ... : ... .. . ... ... ... : ... .. . ... : ... .. . ... : ... .. . ... ...
ROW A1 : ... .. . ... ... ... : ... .. . ... ... ... : ... .. . ... : ... .. . ... : ... .. . ... ...
ROW A2 : ... .. . ... ... ... : ... .. . ... ... ... : ... .. . ... : ... .. . ... : ... .. . ... ...
ROW A3 : ... .. . ... ... ... : ... .. . ... ... ... : ... .. . ... : ... .. . ... : ... .. . ... ...
ROW A4 : ... .. . ... ... ... : ... .. . ... ... ... : ... .. . ... : ... .. . ... : ... .. . ... ...
ROW A5 : ... .. . ... ... ... : ... .. . ... ... ... : ... .. . ... : ... .. . ... : ... .. . ... ...
ROW A6 : ... .. . ... ... ... : ... .. . ... ... ... : ... .. . ... : ... .. . ... : ... .. . ... ...
ROW A7 : ... .. . ... ... ... : ... .. . ... ... ... : ... .. . ... : ... .. . ... : ... .. . ... ...
ROW A8 : ... .. . ... ... ... : ... .. . ... ... ... : ... .. . ... : ... .. . ... : ... .. . ... ...
ROW A9 : ... .. . ... ... ... : ... .. . ... ... ... : ... .. . ... : ... .. . ... : ... .. . ... ...
ROW AA : ... .. . ... ... ... : ... .. . ... ... ... : ... .. . ... : ... .. . ... : ... .. . ... ...
ROW AB : ... .. . ... ... ... : ... .. . ... ... ... : ... .. . ... : ... .. . ... : ... .. . ... ...
ROW AC : ... .. . ... ... ... : ... .. . ... ... ... : ... .. . ... : ... .. . ... : ... .. . ... ...
ROW AD : ... .. . ... ... ... : ... .. . ... ... ... : ... .. . ... : ... .. . ... : ... .. . ... ...
ROW AE : ... .. . ... ... ... : ... .. . ... ... ... : ... .. . ... : ... .. . ... : ... .. . ... ...
ROW AF : ... .. . ... ... ... : ... .. . ... ... ... : ... .. . ... : ... .. . ... : ... .. . ... ...
ROW B0 : ... .. . ... ... ... : ... .. . ... ... ... : ... .. . ... : ... .. . ... : ... .. . ... ...
ROW B1 : ... .. . ... ... ... : ... .. . ... ... ... : ... .. . ... : ... .. . ... : ... .. . ... ...
ROW B2 : ... .. . ... ... ... : ... .. . ... ... ... : ... .. . ... : ... .. . ... : ... .. . ... ...
ROW B3 : ... .. . ... ... ... : ... .. . ... ... ... : ... .. . ... : ... .. . ... : ... .. . ... ...
ROW B4 : ... .. . ... ... ... : ... .. . ... ... ... : ... .. . ... : ... .. . ... : ... .. . ... ...
ROW B5 : ... .. . ... ... ... : ... .. . ... ... ... : ... .. . ... : ... .. . ... : ... .. . ... ...
ROW B6 : ... .. . ... ... ... : ... .. . ... ... ... : ... .. . ... : ... .. . ... : ... .. . ... ...
ROW B7 : ... .. . ... ... ... : ... .. . ... ... ... : ... .. . ... : ... .. . ... : ... .. . ... ...
ROW B8 : ... .. . ... ... ... : ... .. . ... ... ... : ... .. . ... : ... .. . ... : ... .. . ... ...
ROW B9 : ... .. . ... ... ... : ... .. . ... ... ... : ... .. . ... : ... .. . ... : ... .. . ... ...
ROW BA : ... .. . ... ... ... : ... .. . ... ... ... : ... .. . ... : ... .. . ... : ... .. . ... ...
ROW BB : ... .. . ... ... ... : ... .. . ... ... ... : ... .. . ... : ... .. . ... : ... .. . ... ...
ROW BC : ... .. . ... ... ... : ... .. . ... ... ... : ... .. . ... : ... .. . ... : ... .. . ... ...
ROW BD : ... .. . ... ... ... : ... .. . ... ... ... : ... .. . ... : ... .. . ... : ... .. . ... ...
ROW BE : ... .. . ... ... ... : ... .. . ... ... ... : ... .. . ... : ... .. . ... : ... .. . ... ...
ROW BF : ... .. . ... ... ... : ... .. . ... ... ... : ... .. . ... : ... .. . ... : ... .. . ... ...
ROW C0 : ... .. . ... ... ... : ... .. . ... ... ... : ... .. . ... : ... .. . ... : ... .. . ... ...
ROW C1 : ... .. . ... ... ... : ... .. . ... ... ... : ... .. . ... : ... .. . ... : ... .. . ... ...
ROW C2 : ... .. . ... ... ... : ... .. . ... ... ... : ... .. . ... : ... .. . ... : ... .. . ... ...
ROW C3 : ... .. . ... ... ... : ... .. . ... ... ... : ... .. . ... : ... .. . ... : ... .. . ... ...
ROW C4 : ... .. . ... ... ... : ... .. . ... ... ... : ... .. . ... : ... .. . ... : ... .. . ... ...
ROW C5 : ... .. . ... ... ... : ... .. . ... ... ... : ... .. . ... : ... .. . ... : ... .. . ... ...
ROW C6 : ... .. . ... ... ... : ... .. . ... ... ... : ... .. . ... : ... .. . ... : ... .. . ... ...
ROW C7 : ... .. . ... ... ... : ... .. . ... ... ... : ... .. . ... : ... .. . ... : ... .. . ... ...
ROW C8 : ... .. . ... ... ... : ... .. . ... ... ... : ... .. . ... : ... .. . ... : ... .. . ... ...
ROW C9 : ... .. . ... ... ... : ... .. . ... ... ... : ... .. . ... : ... .. . ... : ... .. . ... ...
ROW CA : ... .. . ... ... ... : ... .. . ... ... ... : ... .. . ... : ... .. . ... : ... .. . ... ...
ROW CB : ... .. . ... ... ... : ... .. . ... ... ... : ... .. . ... : ... .. . ... : ... .. . ... ...
ROW CC : ... .. . ... ... ... : ... .. . ... ... ... : ... .. . ... : ... .. . ... : ... .. . ... ...
ROW CD : ... .. . ... ... ... : ... .. . ... ... ... : ... .. . ... : ... .. . ... : ... .. . ... ...
ROW CE : ... .. . ... ... ... : ... .. . ... ... ... : ... .. . ... : ... .. . ... : ... .. . ... ...
ROW CF : ... .. . ... ... ... : ... .. . ... ... ... : ... .. . ... : ... .. . ... : ... .. . ... ...
ROW D0 : ... .. . ... ... ... : ... .. . ... ... ... : ... .. . ... : ... .. . ... : ... .. . ... ...
ROW D1 : ... .. . ... ... ... : ... .. . ... ... ... : ... .. . ... : ... .. . ... : ... .. . ... ...
ROW D2 : ... .. . ... ... ... : ... .. . ... ... ... : ... .. . ... : ... .. . ... : ... .. . ... ...
ROW D3 : ... .. . ... ... ... : ... .. . ... ... ... : ... .. . ... : ... .. . ... : ... .. . ... ...
ROW D4 : ... .. . ... ... ... : ... .. . ... ... ... : ... .. . ... : ... .. . ... : ... .. . ... ...
ROW D5 : ... .. . ... ... ... : ... .. . ... ... ... : ... .. . ... : ... .. . ... : ... .. . ... ...
ROW D6 : ... .. . ... ... ... : ... .. . ... ... ... : ... .. . ... : ... .. . ... : ... .. . ... ...
ROW D7 : ... .. . ... ... ... : ... .. . ... ... ... : ... .. . ... : ... .. . ... : ... .. . ... ...
ROW D8 : ... .. . ... ... ... : ... .. . ... ... ... : ... .. . ... : ... .. . ... : ... .. . ... ...
ROW D9 : ... .. . ... ... ... : ... .. . ... ... ... : ... .. . ... : ... .. . ... : ... .. . ... ...
ROW DA : ... .. . ... ... ... : ... .. . ... ... ... : ... .. . ... : ... .. . ... : ... .. . ... ...
ROW DB : ... .. . ... ... ... : ... .. . ... ... ... : ... .. . ... : ... .. . ... : ... .. . ... ...
ROW DC : ... .. . ... ... ... : ... .. . ... ... ... : ... .. . ... : ... .. . ... : ... .. . ... ...
ROW DD : ... .. . ... ... ... : ... .. . ... ... ... : ... .. . ... : ... .. . ... : ... .. . ... ...
ROW DE : ... .. . ... ... ... : ... .. . ... ... ... : ... .. . ... : ... .. . ... : ... .. . ... ...
ROW DF : ... .. . ... ... ... : ... .. . ... ... ... : ... .. . ... : ... .. . ... : ... .. . ... ...
ROW E0 : ... .. . ... ... ... : ... .. . ... ... ... : ... .. . ... : ... .. . ... : ... .. . ... ...
ROW E1 : ... .. . ... ... ... : ... .. . ... ... ... : ... .. . ... : ... .. . ... : ... .. . ... ...
ROW E2 : ... .. . ... ... ... : ... .. . ... ... ... : ... .. . ... : ... .. . ... : ... .. . ... ...
ROW E3 : ... .. . ... ... ... : ... .. . ... ... ... : ... .. . ... : ... .. . ... : ... .. . ... ...
ROW E4 : ... .. . ... ... ... : ... .. . ... ... ... : ... .. . ... : ... .. . ... : ... .. . ... ...
ROW E5 : ... .. . ... ... ... : ... .. . ... ... ... : ... .. . ... : ... .. . ... : ... .. . ... ...
ROW E6 : ... .. . ... ... ... : ... .. . ... ... ... : ... .. . ... : ... .. . ... : ... .. . ... ...
ROW E7 : ... .. . ... ... ... : ... .. . ... ... ... : ... .. . ... : ... .. . ... : ... .. . ... ...
ROW E8 : ... .. . ... ... ... : ... .. . ... ... ... : ... .. . ... : ... .. . ... : ... .. . ... ...
ROW E9 : ... .. . ... ... ... : ... .. . ... ... ... : ... .. . ... : ... .. . ... : ... .. . ... ...
ROW EA : ... .. . ... ... ... : ... .. . ... ... ... : ... .. . ... : ... .. . ... : ... .. . ... ...
ROW EB : ... .. . ... ... ... : ... .. . ... ... ... : ... .. . ... : ... .. . ... : ... .. . ... ...
ROW EC : ... .. . ... ... ... : ... .. . ... ... ... : ... .. . ... : ... .. . ... : ... .. . ... ...
ROW ED : ... .. . ... ... ... : ... .. . ... ... ... : ... .. . ... : ... .. . ... : ... .. . ... ...
ROW EE : ... .. . ... ... ... : ... .. . ... ... ... : ... .. . ... : ... .. . ... : ... .. . ... ...
ROW EF : ... .. . ... ... ... : ... .. . ... ... ... : ... .. . ... : ... .. . ... : ... .. . ... ...
ROW F0 : ... .. . ... ... ... : ... .. . ... ... ... : ... .. . ... : ... .. . ... : ... .. . ... ...
ROW F1 : ... .. . ... ... ... : ... .. . ... ... ... : ... .. . ... : ... .. . ... : ... .. . ... ...
ROW F2 : ... .. . ... ... ... : ... .. . ... ... ... : ... .. . ... : ... .. . ... : ... .. . ... ...
ROW F3 : ... .. . ... ... ... : ... .. . ... ... ... : ... .. . ... : ... .. . ... : ... .. . ... ...
ROW F4 : ... .. . ... ... ... : ... .. . ... ... ... : ... .. . ... : ... .. . ... : ... .. . ... ...
ROW F5 : ... .. . ... ... ... : ... .. . ... ... ... : ... .. . ... : ... .. . ... : ... .. . ... ...
ROW F6 : ... .. . ... ... ... : ... .. . ... ... ... : ... .. . ... : ... .. . ... : ... .. . ... ...
ROW F7 : ... .. . ... ... ... : ... .. . ... ... ... : ... .. . ... : ... .. . ... : ... .. . ... ...
ROW F8 : ... .. . ... ... ... : ... .. . ... ... ... : ... .. . ... : ... .. . ... : ... .. . ... ...
ROW F9 : ... .. . ... ... ... : ... .. . ... ... ... : ... .. . ... : ... .. . ... : ... .. . ... ...
ROW FA : ... .. . ... ... ... : ... .. . ... ... ... : ... .. . ... : ... .. . ... : ... .. . ... ...
ROW FB : ... .. . ... ... ... : ... .. . ... ... ... : ... .. . ... : ... .. . ... : ... .. . ... ...
ROW FC : ... .. . ... ... ... : ... .. . ... ... ... : ... .. . ... : ... .. . ... : ... .. . ... ...
ROW FD : ... .. . ... ... ... : ... .. . ... ... ... : ... .. . ... : ... .. . ... : ... .. . ... ...
ROW FE : ... .. . ... ... ... : ... .. . ... ... ... : ... .. . ... : ... .. . ... : ... .. . ... ...
ROW FF : ... .. . ... ... ... : ... .. . ... ... ... : ... .. . ... : ... .. . ... : ... .. . ... ...

# End of export
