# FamiTracker text export 0.4.2

# Song information
TITLE           "Super Mario Bros. 2 Prototype"
AUTHOR          "<?>"
COPYRIGHT       "198? Nintendo"

# Song comment
COMMENT ""

# Global settings
MACHINE         0
FRAMERATE       0
EXPANSION       0
VIBRATO         1
SPLIT           21

# Macros

# DPCM samples

# Instruments
INST2A03   0    -1  -1  -1  -1  -1 "blank"

# Tracks

TRACK 256   1 150 "New song"
COLUMNS : 3 3 1 1 2

ORDER 00 : 00 00 00 00 00
ORDER 01 : 01 01 01 01 01
ORDER 02 : 02 02 02 02 02
ORDER 03 : 03 03 03 03 03
ORDER 04 : 04 04 04 04 04
ORDER 05 : 05 05 05 05 05
ORDER 06 : 06 06 06 06 06
ORDER 07 : 07 07 07 07 07
ORDER 08 : 08 08 08 08 08
ORDER 09 : 09 09 09 09 09
ORDER 0A : 0A 0A 0A 0A 0A
ORDER 0B : 0B 0B 0B 0B 0B
ORDER 0C : 0C 0C 0C 0C 0C
ORDER 0D : 0D 0D 0D 0D 0D
ORDER 0E : 0E 0E 0E 0E 0E
ORDER 0F : 0F 0F 0F 0F 0F
ORDER 10 : 10 10 10 10 10
ORDER 11 : 11 11 11 11 11
ORDER 12 : 12 12 12 12 12
ORDER 13 : 13 13 13 13 13
ORDER 14 : 14 14 14 14 14
ORDER 15 : 15 15 15 15 15
ORDER 16 : 16 16 16 16 16
ORDER 17 : 17 17 17 17 17
ORDER 18 : 18 18 18 18 18
ORDER 19 : 19 19 19 19 19
ORDER 1A : 1A 1A 1A 1A 1A
ORDER 1B : 1B 1B 1B 1B 1B
ORDER 1C : 1C 1C 1C 1C 1C
ORDER 1D : 1D 1D 1D 1D 1D
ORDER 1E : 1E 1E 1E 1E 1E
ORDER 1F : 1F 1F 1F 1F 1F
ORDER 20 : 20 20 20 20 20
ORDER 21 : 21 21 21 21 21
ORDER 22 : 22 22 22 22 22
ORDER 23 : 23 23 23 23 23
ORDER 24 : 24 24 24 24 24
ORDER 25 : 25 25 25 25 25
ORDER 26 : 26 26 26 26 26
ORDER 27 : 27 27 27 27 27
ORDER 28 : 28 28 28 28 28
ORDER 29 : 29 29 29 29 29
ORDER 2A : 2A 2A 2A 2A 2A

PATTERN 00
ROW 00 : --- .. 0 P80 V00 ... : --- .. 0 P80 V00 ... : --- .. . P80 : F-# 00 0 V00 : === 00 . ... ...
ROW 01 : ... .. . ... ... ... : ... .. . ... ... ... : ... .. . ... : ... .. . ... : ... .. . ... ...
ROW 02 : ... .. . ... ... ... : ... .. . ... ... ... : ... .. . ... : ... .. . ... : ... .. . ... ...
ROW 03 : ... .. . ... ... ... : ... .. . ... ... ... : ... .. . ... : ... .. . ... : ... .. . ... ...
ROW 04 : ... .. . ... ... ... : ... .. . ... ... ... : ... .. . ... : ... .. . ... : ... .. . ... ...
ROW 05 : ... .. . ... ... ... : ... .. . ... ... ... : ... .. . ... : ... .. . ... : ... .. . ... ...
ROW 06 : ... .. . ... ... ... : ... .. . ... ... ... : ... .. . ... : ... .. . ... : ... .. . ... ...
ROW 07 : ... .. . ... ... ... : ... .. . ... ... ... : ... .. . ... : ... .. . ... : ... .. . ... ...
ROW 08 : ... .. . ... ... ... : ... .. . ... ... ... : ... .. . ... : ... .. . ... : ... .. . ... ...
ROW 09 : ... .. . ... ... ... : ... .. . ... ... ... : ... .. . ... : ... .. . ... : ... .. . ... ...
ROW 0A : ... .. . ... ... ... : ... .. . ... ... ... : ... .. . ... : ... .. . ... : ... .. . ... ...
ROW 0B : ... .. . ... ... ... : ... .. . ... ... ... : ... .. . ... : ... .. . ... : ... .. . ... ...
ROW 0C : B-3 00 B P80 ... ... : G-4 00 B P81 ... ... : C#4 00 . ... : ... .. . ... : ... .. . ... ...
ROW 0D : ... .. . ... ... ... : ... .. . ... ... ... : ... .. . ... : ... .. . ... : ... .. . ... ...
ROW 0E : ... .. A ... ... ... : ... .. A ... ... ... : ... .. . ... : ... .. . ... : ... .. . ... ...
ROW 0F : ... .. . ... ... ... : ... .. . ... ... ... : ... .. . ... : ... .. . ... : ... .. . ... ...
ROW 10 : ... .. 9 ... ... ... : ... .. 9 ... ... ... : ... .. . ... : ... .. . ... : ... .. . ... ...
ROW 11 : ... .. . ... ... ... : ... .. . ... ... ... : ... .. . ... : ... .. . ... : ... .. . ... ...
ROW 12 : A#3 00 B P81 ... ... : F#4 00 B P80 ... ... : C#4 00 . P81 : ... .. . ... : ... .. . ... ...
ROW 13 : ... .. . ... ... ... : ... .. . ... ... ... : ... .. . ... : ... .. . ... : ... .. . ... ...
ROW 14 : ... .. A ... ... ... : ... .. A ... ... ... : ... .. . ... : ... .. . ... : ... .. . ... ...
ROW 15 : ... .. . ... ... ... : ... .. . ... ... ... : ... .. . ... : ... .. . ... : ... .. . ... ...
ROW 16 : ... .. 9 ... ... ... : ... .. 9 ... ... ... : ... .. . ... : ... .. . ... : ... .. . ... ...
ROW 17 : ... .. . ... ... ... : ... .. . ... ... ... : ... .. . ... : ... .. . ... : ... .. . ... ...
ROW 18 : F-3 00 B P80 ... ... : C#4 00 B P80 ... ... : B-3 00 . P80 : ... .. . ... : ... .. . ... ...
ROW 19 : ... .. . ... ... ... : ... .. . ... ... ... : ... .. . ... : ... .. . ... : ... .. . ... ...
ROW 1A : ... .. A ... ... ... : ... .. A ... ... ... : ... .. . ... : ... .. . ... : ... .. . ... ...
ROW 1B : ... .. . ... ... ... : ... .. . ... ... ... : ... .. . ... : ... .. . ... : ... .. . ... ...
ROW 1C : ... .. 9 ... ... ... : ... .. 9 ... ... ... : ... .. . ... : ... .. . ... : ... .. . ... ...
ROW 1D : ... .. . ... ... ... : ... .. . ... ... ... : ... .. . ... : ... .. . ... : ... .. . ... ...
ROW 1E : ... .. 0 ... ... ... : ... .. 0 ... ... ... : --- .. . ... : ... .. . ... : ... .. . ... ...
ROW 1F : ... .. . ... ... ... : ... .. . ... ... ... : ... .. . ... : ... .. . ... : ... .. . ... ...
ROW 20 : ... .. . ... ... ... : ... .. . ... ... ... : ... .. . ... : ... .. . ... : ... .. . ... ...
ROW 21 : ... .. . ... ... ... : ... .. . ... ... ... : ... .. . ... : ... .. . ... : ... .. . ... ...
ROW 22 : ... .. . ... ... ... : ... .. . ... ... ... : ... .. . ... : ... .. . ... : ... .. . ... ...
ROW 23 : ... .. . ... ... ... : ... .. . ... ... ... : ... .. . ... : ... .. . ... : ... .. . ... ...
ROW 24 : C#3 00 B P80 ... ... : B-3 00 B P80 ... ... : G-3 00 . ... : ... .. . ... : ... .. . ... ...
ROW 25 : ... .. . ... ... ... : ... .. . ... ... ... : ... .. . ... : ... .. . ... : ... .. . ... ...
ROW 26 : ... .. A ... ... ... : ... .. A ... ... ... : ... .. . ... : ... .. . ... : ... .. . ... ...
ROW 27 : ... .. . ... ... ... : ... .. . ... ... ... : ... .. . ... : ... .. . ... : ... .. . ... ...
ROW 28 : ... .. 9 ... ... ... : ... .. 9 ... ... ... : ... .. . ... : ... .. . ... : ... .. . ... ...
ROW 29 : ... .. . ... ... ... : ... .. . ... ... ... : ... .. . ... : ... .. . ... : ... .. . ... ...
ROW 2A : C-3 00 B P80 ... ... : G#3 00 B P80 ... ... : F-3 00 . ... : ... .. . ... : ... .. . ... ...
ROW 2B : ... .. . ... ... ... : ... .. . ... ... ... : ... .. . ... : ... .. . ... : ... .. . ... ...
ROW 2C : ... .. A ... ... ... : ... .. A ... ... ... : ... .. . ... : ... .. . ... : ... .. . ... ...
ROW 2D : ... .. . ... ... ... : ... .. . ... ... ... : ... .. . ... : ... .. . ... : ... .. . ... ...
ROW 2E : ... .. 9 ... ... ... : ... .. 9 ... ... ... : ... .. . ... : ... .. . ... : ... .. . ... ...
ROW 2F : ... .. . ... ... ... : ... .. . ... ... ... : ... .. . ... : ... .. . ... : ... .. . ... ...
ROW 30 : B-2 00 B P80 ... ... : G-3 00 B P80 ... ... : C#3 00 . ... : C-# 00 E ... : ... .. . ... ...
ROW 31 : ... .. . ... ... ... : ... .. . ... ... ... : ... .. . ... : ... .. 0 ... : ... .. . ... ...
ROW 32 : ... .. A ... ... ... : ... .. A ... ... ... : ... .. . ... : ... .. . ... : ... .. . ... ...
ROW 33 : ... .. . ... ... ... : ... .. . ... ... ... : ... .. . ... : ... .. . ... : ... .. . ... ...
ROW 34 : ... .. 9 ... ... ... : ... .. 9 ... ... ... : ... .. . ... : ... .. . ... : ... .. . ... ...
ROW 35 : ... .. . ... ... ... : ... .. . ... ... ... : ... .. . ... : ... .. . ... : ... .. . ... ...
ROW 36 : ... .. . ... ... ... : ... .. . ... ... ... : ... .. . ... : ... .. . ... : ... .. . ... ...
ROW 37 : ... .. 8 ... ... ... : ... .. 8 ... ... ... : ... .. . ... : ... .. . ... : ... .. . ... ...
ROW 38 : ... .. . ... ... ... : ... .. . ... ... ... : ... .. . ... : ... .. . ... : ... .. . ... ...
ROW 39 : ... .. 0 ... ... ... : ... .. 0 ... ... ... : --- .. . ... : ... .. . ... : ... .. . ... ...
ROW 3A : ... .. . ... ... ... : ... .. . ... ... ... : ... .. . ... : ... .. . ... : ... .. . ... ...
ROW 3B : ... .. . ... ... ... : ... .. . ... ... ... : ... .. . ... : ... .. . ... : ... .. . ... ...
ROW 3C : ... .. . ... ... ... : ... .. . ... ... ... : ... .. . ... : ... .. . ... : ... .. . ... ...
ROW 3D : ... .. . ... ... ... : ... .. . ... ... ... : ... .. . ... : ... .. . ... : ... .. . ... ...
ROW 3E : ... .. . ... ... ... : ... .. . ... ... ... : ... .. . ... : ... .. . ... : ... .. . ... ...
ROW 3F : ... .. . ... ... ... : ... .. . ... ... ... : ... .. . ... : ... .. . ... : ... .. . ... ...
ROW 40 : ... .. . ... ... ... : ... .. . ... ... ... : ... .. . ... : ... .. . ... : ... .. . ... ...
ROW 41 : ... .. . ... ... ... : ... .. . ... ... ... : ... .. . ... : ... .. . ... : ... .. . ... ...
ROW 42 : B-3 00 B P80 ... ... : G-4 00 B P81 ... ... : C#4 00 . ... : ... .. E ... : ... .. . ... ...
ROW 43 : ... .. . ... ... ... : ... .. . ... ... ... : ... .. . ... : ... .. 0 ... : ... .. . ... ...
ROW 44 : ... .. A ... ... ... : ... .. A ... ... ... : ... .. . ... : ... .. . ... : ... .. . ... ...
ROW 45 : ... .. . ... ... ... : ... .. . ... ... ... : ... .. . ... : ... .. . ... : ... .. . ... ...
ROW 46 : ... .. 9 ... ... ... : ... .. 9 ... ... ... : ... .. . ... : ... .. . ... : ... .. . ... ...
ROW 47 : ... .. . ... ... ... : ... .. . ... ... ... : ... .. . ... : ... .. . ... : ... .. . ... ...
ROW 48 : F-3 00 B P80 ... ... : G-3 00 B P80 ... ... : C#3 00 . ... : ... .. E ... : ... .. . ... ...
ROW 49 : ... .. . ... ... ... : ... .. . ... ... ... : ... .. . ... : ... .. 0 ... : ... .. . ... ...
ROW 4A : ... .. A ... ... ... : ... .. A ... ... ... : ... .. . ... : ... .. . ... : ... .. . ... ...
ROW 4B : ... .. . ... ... ... : ... .. . ... ... ... : ... .. . ... : ... .. . ... : ... .. . ... ...
ROW 4C : ... .. 9 ... ... ... : ... .. 9 ... ... ... : ... .. . ... : ... .. . ... : ... .. . ... ...
ROW 4D : ... .. . ... ... ... : ... .. . ... ... ... : ... .. . ... : ... .. . ... : ... .. . ... ...
ROW 4E : ... .. . ... ... ... : ... .. . ... ... ... : ... .. . ... : F-# 00 0 ... : ... .. . ... ...
ROW 4F : ... .. 8 ... ... ... : ... .. 8 ... ... ... : ... .. . ... : ... .. . ... : ... .. . ... ...
ROW 50 : ... .. . ... ... ... : ... .. . ... ... ... : ... .. . ... : ... .. . ... : ... .. . ... ...
ROW 51 : ... .. . ... ... ... : ... .. . ... ... ... : --- .. . ... : ... .. . ... : ... .. . ... ...
ROW 52 : ... .. . ... ... ... : ... .. . ... ... ... : ... .. . ... : ... .. . ... : ... .. . ... ...
ROW 53 : ... .. . ... ... ... : ... .. . ... ... ... : ... .. . ... : ... .. . ... : ... .. . ... ...
ROW 54 : ... .. . ... ... ... : ... .. . ... ... ... : ... .. . ... : C-# 00 E ... : ... .. . ... ...
ROW 55 : ... .. . ... ... ... : ... .. . ... ... ... : ... .. . ... : ... .. 0 ... : ... .. . ... ...
ROW 56 : ... .. 7 ... ... ... : ... .. 7 ... ... ... : ... .. . ... : ... .. . ... : ... .. . ... ...
ROW 57 : ... .. . ... ... ... : ... .. . ... ... ... : ... .. . ... : ... .. . ... : ... .. . ... ...
ROW 58 : ... .. 6 ... ... ... : ... .. 6 ... ... ... : ... .. . ... : ... .. . ... : ... .. . ... ...
ROW 59 : ... .. 5 ... ... ... : ... .. 5 ... ... ... : ... .. . ... : ... .. . ... : ... .. . ... ...
ROW 5A : ... .. 0 ... ... ... : ... .. 0 ... ... ... : G-3 00 . ... : ... .. E ... : ... .. . ... ...
ROW 5B : ... .. . ... ... ... : ... .. . ... ... ... : ... .. . ... : ... .. 0 ... : ... .. . ... ...
ROW 5C : ... .. . ... ... ... : ... .. . ... ... ... : ... .. . ... : ... .. . ... : ... .. . ... ...
ROW 5D : ... .. . ... ... ... : ... .. . ... ... ... : ... .. . ... : ... .. . ... : ... .. . ... ...
ROW 5E : ... .. . ... ... ... : ... .. . ... ... ... : ... .. . ... : ... .. . ... : ... .. . ... ...
ROW 5F : ... .. . ... ... ... : ... .. . ... ... ... : ... .. . ... : ... .. . ... : ... .. . ... ...
ROW 60 : C-4 00 8 P81 V02 ... : G-4 00 8 P81 V02 ... : C-3 00 . ... : F-# 00 0 ... : ... .. . ... ...
ROW 61 : ... .. . ... ... ... : ... .. . ... ... ... : ... .. . ... : ... .. . ... : ... .. . ... ...
ROW 62 : ... .. 7 ... ... ... : ... .. 7 ... ... ... : ... .. . ... : ... .. . ... : ... .. . ... ...
ROW 63 : ... .. . ... ... ... : ... .. . ... ... ... : ... .. . ... : ... .. . ... : ... .. . ... ...
ROW 64 : ... .. . ... ... ... : ... .. . ... ... ... : ... .. . ... : ... .. . ... : ... .. . ... ...
ROW 65 : ... .. . ... ... ... : ... .. . ... ... ... : ... .. . ... : ... .. . ... : ... .. . ... ...
ROW 66 : ... .. 0 ... ... ... : ... .. 0 ... ... ... : ... .. . ... : ... .. . ... : ... .. . ... ...
ROW 67 : ... .. . ... ... ... : ... .. . ... ... ... : ... .. . ... : ... .. . ... : ... .. . ... ...
ROW 68 : ... .. . ... ... ... : ... .. . ... ... ... : ... .. . ... : ... .. . ... : ... .. . ... ...
ROW 69 : ... .. . ... ... ... : ... .. . ... ... ... : --- .. . ... : ... .. . ... : ... .. . ... ...
ROW 6A : ... .. . ... ... ... : ... .. . ... ... ... : ... .. . ... : ... .. . ... : ... .. . ... ...
ROW 6B : ... .. . ... ... ... : ... .. . ... ... ... : ... .. . ... : ... .. . ... : ... .. . ... ...
ROW 6C : D#3 00 8 P80 ... ... : C-4 00 8 P81 ... ... : ... .. . ... : ... .. . ... : ... .. . ... ...
ROW 6D : ... .. . ... ... ... : ... .. . ... ... ... : ... .. . ... : ... .. . ... : ... .. . ... ...
ROW 6E : ... .. 7 ... ... ... : ... .. 7 ... ... ... : ... .. . ... : ... .. . ... : ... .. . ... ...
ROW 6F : ... .. . ... ... ... : ... .. . ... ... ... : ... .. . ... : ... .. . ... : ... .. . ... ...
ROW 70 : ... .. . ... ... ... : ... .. . ... ... ... : ... .. . ... : ... .. . ... : ... .. . ... ...
ROW 71 : ... .. . ... ... ... : ... .. . ... ... ... : ... .. . ... : ... .. . ... : ... .. . ... ...
ROW 72 : G-3 00 8 P80 ... ... : D#4 00 8 P81 ... ... : G-3 00 . ... : C-# 00 E ... : ... .. . ... ...
ROW 73 : ... .. . ... ... ... : ... .. . ... ... ... : ... .. . ... : ... .. 0 ... : ... .. . ... ...
ROW 74 : ... .. 7 ... ... ... : ... .. 7 ... ... ... : ... .. . ... : ... .. . ... : ... .. . ... ...
ROW 75 : ... .. . ... ... ... : ... .. . ... ... ... : ... .. . ... : ... .. . ... : ... .. . ... ...
ROW 76 : ... .. . ... ... ... : ... .. . ... ... ... : ... .. . ... : ... .. . ... : ... .. . ... ...
ROW 77 : ... .. . ... ... ... : ... .. . ... ... ... : ... .. . ... : ... .. . ... : ... .. . ... ...
ROW 78 : ... .. 6 ... ... ... : ... .. 6 ... ... ... : C-3 00 . ... : F-# 00 0 ... : ... .. . ... ...
ROW 79 : ... .. . ... ... ... : ... .. . ... ... ... : ... .. . ... : ... .. . ... : ... .. . ... ...
ROW 7A : ... .. . ... ... ... : ... .. . ... ... ... : ... .. . ... : ... .. . ... : ... .. . ... ...
ROW 7B : ... .. . ... ... ... : ... .. . ... ... ... : ... .. . ... : ... .. . ... : ... .. . ... ...
ROW 7C : ... .. . ... ... ... : ... .. . ... ... ... : ... .. . ... : ... .. . ... : ... .. . ... ...
ROW 7D : ... .. . ... ... ... : ... .. . ... ... ... : ... .. . ... : ... .. . ... : ... .. . ... ...
ROW 7E : ... .. . ... ... ... : ... .. . ... ... ... : ... .. . ... : ... .. . ... : ... .. . ... ...
ROW 7F : ... .. . ... ... ... : ... .. . ... ... ... : ... .. . ... : ... .. . ... : ... .. . ... ...
ROW 80 : ... .. . ... ... ... : ... .. . ... ... ... : ... .. . ... : ... .. . ... : ... .. . ... ...
ROW 81 : ... .. . ... ... ... : ... .. . ... ... ... : --- .. . ... : ... .. . ... : ... .. . ... ...
ROW 82 : ... .. . ... ... ... : ... .. . ... ... ... : ... .. . ... : ... .. . ... : ... .. . ... ...
ROW 83 : ... .. . ... ... ... : ... .. . ... ... ... : ... .. . ... : ... .. . ... : ... .. . ... ...
ROW 84 : D#3 00 8 P80 ... ... : C-4 00 8 P81 ... ... : ... .. . ... : ... .. . ... : ... .. . ... ...
ROW 85 : ... .. . ... ... ... : ... .. . ... ... ... : ... .. . ... : ... .. . ... : ... .. . ... ...
ROW 86 : ... .. 7 ... ... ... : ... .. 7 ... ... ... : ... .. . ... : ... .. . ... : ... .. . ... ...
ROW 87 : ... .. . ... ... ... : ... .. . ... ... ... : ... .. . ... : ... .. . ... : ... .. . ... ...
ROW 88 : ... .. . ... ... ... : ... .. . ... ... ... : ... .. . ... : ... .. . ... : ... .. . ... ...
ROW 89 : ... .. . ... ... ... : ... .. . ... ... ... : ... .. . ... : ... .. . ... : ... .. . ... ...
ROW 8A : G-3 00 8 P80 ... ... : D#4 00 8 P81 ... ... : G-3 00 . ... : C-# 00 E ... : ... .. . ... ...
ROW 8B : ... .. . ... ... ... : ... .. . ... ... ... : ... .. . ... : ... .. 0 ... : ... .. . ... ...
ROW 8C : ... .. 7 ... ... ... : ... .. 7 ... ... ... : ... .. . ... : ... .. . ... : ... .. . ... ...
ROW 8D : ... .. . ... ... ... : ... .. . ... ... ... : ... .. . ... : ... .. . ... : ... .. . ... ...
ROW 8E : ... .. . ... ... ... : ... .. . ... ... ... : ... .. . ... : ... .. . ... : ... .. . ... ...
ROW 8F : ... .. . ... ... ... : ... .. . ... ... ... : ... .. . ... : ... .. . ... : ... .. . ... ...
ROW 90 : D-3 00 8 P80 ... ... : B-3 00 8 P80 ... ... : B-2 00 . ... : F-# 00 0 ... : ... .. . ... ...
ROW 91 : ... .. . ... ... ... : ... .. . ... ... ... : ... .. . ... : ... .. . ... : ... .. . ... ...
ROW 92 : ... .. 7 ... ... ... : ... .. 7 ... ... ... : ... .. . ... : ... .. . ... : ... .. . ... ...
ROW 93 : ... .. . ... ... ... : ... .. . ... ... ... : ... .. . ... : ... .. . ... : ... .. . ... ...
ROW 94 : ... .. . ... ... ... : ... .. . ... ... ... : ... .. . ... : ... .. . ... : ... .. . ... ...
ROW 95 : ... .. . ... ... ... : ... .. . ... ... ... : ... .. . ... : ... .. . ... : ... .. . ... ...
ROW 96 : G-3 00 8 P80 ... ... : D-4 00 8 P81 ... ... : ... .. . ... : ... .. . ... : ... .. . ... ...
ROW 97 : ... .. . ... ... ... : ... .. . ... ... ... : ... .. . ... : ... .. . ... : ... .. . ... ...
ROW 98 : ... .. 7 ... ... ... : ... .. 7 ... ... ... : ... .. . ... : ... .. . ... : ... .. . ... ...
ROW 99 : ... .. . ... ... ... : ... .. . ... ... ... : --- .. . ... : ... .. . ... : ... .. . ... ...
ROW 9A : ... .. . ... ... ... : ... .. . ... ... ... : ... .. . ... : ... .. . ... : ... .. . ... ...
ROW 9B : ... .. . ... ... ... : ... .. . ... ... ... : ... .. . ... : ... .. . ... : ... .. . ... ...
ROW 9C : B-3 00 8 P80 ... ... : G-4 00 8 P81 ... ... : ... .. . ... : ... .. . ... : ... .. . ... ...
ROW 9D : ... .. . ... ... ... : ... .. . ... ... ... : ... .. . ... : ... .. . ... : ... .. . ... ...
ROW 9E : ... .. 7 ... ... ... : ... .. 7 ... ... ... : ... .. . ... : ... .. . ... : ... .. . ... ...
ROW 9F : ... .. . ... ... ... : ... .. . ... ... ... : ... .. . ... : ... .. . ... : ... .. . ... ...
ROW A0 : ... .. . ... ... ... : ... .. . ... ... ... : ... .. . ... : ... .. . ... : ... .. . ... ...
ROW A1 : ... .. . ... ... ... : ... .. . ... ... ... : ... .. . ... : ... .. . ... : ... .. . ... ...
ROW A2 : D-4 00 8 P81 ... ... : B-4 00 8 P80 ... ... : G-3 00 . ... : C-# 00 E ... : ... .. . ... ...
ROW A3 : ... .. . ... ... ... : ... .. . ... ... ... : ... .. . ... : ... .. 0 ... : ... .. . ... ...
ROW A4 : ... .. 7 ... ... ... : ... .. 7 ... ... ... : ... .. . ... : ... .. . ... : ... .. . ... ...
ROW A5 : ... .. . ... ... ... : ... .. . ... ... ... : ... .. . ... : ... .. . ... : ... .. . ... ...
ROW A6 : ... .. . ... ... ... : ... .. . ... ... ... : ... .. . ... : ... .. . ... : ... .. . ... ...
ROW A7 : ... .. . ... ... ... : ... .. . ... ... ... : ... .. . ... : ... .. . ... : ... .. . ... ...
ROW A8 : ... .. 6 ... ... ... : ... .. 6 ... ... ... : B-2 00 . ... : ... .. E ... : ... .. . ... ...
ROW A9 : ... .. . ... ... ... : ... .. . ... ... ... : ... .. . ... : ... .. 0 ... : ... .. . ... ...
ROW AA : ... .. . ... ... ... : ... .. . ... ... ... : ... .. . ... : ... .. . ... : ... .. . ... ...
ROW AB : ... .. . ... ... ... : ... .. . ... ... ... : ... .. . ... : ... .. . ... : ... .. . ... ...
ROW AC : ... .. . ... ... ... : ... .. . ... ... ... : ... .. . ... : ... .. . ... : ... .. . ... ...
ROW AD : ... .. . ... ... ... : ... .. . ... ... ... : ... .. . ... : ... .. . ... : ... .. . ... ...
ROW AE : ... .. . ... ... ... : ... .. . ... ... ... : ... .. . ... : ... .. E ... : ... .. . ... ...
ROW AF : ... .. . ... ... ... : ... .. . ... ... ... : ... .. . ... : ... .. 0 ... : ... .. . ... ...
ROW B0 : ... .. . ... ... ... : ... .. . ... ... ... : ... .. . ... : ... .. . ... : ... .. . ... ...
ROW B1 : ... .. . ... ... ... : ... .. . ... ... ... : --- .. . ... : ... .. . ... : ... .. . ... ...
ROW B2 : ... .. . ... ... ... : ... .. . ... ... ... : ... .. . ... : ... .. . ... : ... .. . ... ...
ROW B3 : ... .. . ... ... ... : ... .. . ... ... ... : ... .. . ... : ... .. . ... : ... .. . ... ...
ROW B4 : ... .. . ... ... ... : ... .. . ... ... ... : ... .. . ... : ... .. E ... : ... .. . ... ...
ROW B5 : ... .. . ... ... ... : ... .. . ... ... ... : ... .. . ... : ... .. 0 ... : ... .. . ... ...
ROW B6 : ... .. . ... ... ... : ... .. . ... ... ... : ... .. . ... : ... .. . ... : ... .. . ... ...
ROW B7 : ... .. . ... ... ... : ... .. . ... ... ... : ... .. . ... : ... .. . ... : ... .. . ... ...
ROW B8 : ... .. . ... ... ... : ... .. . ... ... ... : ... .. . ... : ... .. . ... : ... .. . ... ...
ROW B9 : ... .. . ... ... ... : ... .. . ... ... ... : ... .. . ... : ... .. . ... : ... .. . ... ...
ROW BA : ... .. . ... ... ... : ... .. . ... ... ... : G-3 00 . ... : ... .. E ... : ... .. . ... ...
ROW BB : ... .. . ... ... ... : ... .. . ... ... ... : ... .. . ... : ... .. 0 ... : ... .. . ... ...
ROW BC : ... .. . ... ... ... : ... .. . ... ... ... : ... .. . ... : ... .. . ... : ... .. . ... ...
ROW BD : ... .. . ... ... ... : ... .. . ... ... ... : ... .. . ... : ... .. . ... : ... .. . ... ...
ROW BE : ... .. . ... ... ... : ... .. . ... ... ... : ... .. . ... : ... .. . ... : ... .. . ... ...
ROW BF : ... .. . ... ... ... : ... .. . ... ... ... : ... .. . ... : ... .. . ... : ... .. . ... ...
ROW C0 : A#3 00 8 P81 ... ... : G-4 00 8 P81 ... ... : A#2 00 . ... : F-# 00 0 ... : ... .. . ... ...
ROW C1 : ... .. . ... ... ... : ... .. . ... ... ... : ... .. . ... : ... .. . ... : ... .. . ... ...
ROW C2 : ... .. 7 ... ... ... : ... .. 7 ... ... ... : ... .. . ... : ... .. . ... : ... .. . ... ...
ROW C3 : ... .. . ... ... ... : ... .. . ... ... ... : ... .. . ... : ... .. . ... : ... .. . ... ...
ROW C4 : ... .. . ... ... ... : ... .. . ... ... ... : ... .. . ... : ... .. . ... : ... .. . ... ...
ROW C5 : ... .. . ... ... ... : ... .. . ... ... ... : ... .. . ... : ... .. . ... : ... .. . ... ...
ROW C6 : ... .. 0 ... ... ... : ... .. 0 ... ... ... : ... .. . ... : ... .. . ... : ... .. . ... ...
ROW C7 : ... .. . ... ... ... : ... .. . ... ... ... : ... .. . ... : ... .. . ... : ... .. . ... ...
ROW C8 : ... .. . ... ... ... : ... .. . ... ... ... : ... .. . ... : ... .. . ... : ... .. . ... ...
ROW C9 : ... .. . ... ... ... : ... .. . ... ... ... : --- .. . ... : ... .. . ... : ... .. . ... ...
ROW CA : ... .. . ... ... ... : ... .. . ... ... ... : ... .. . ... : ... .. . ... : ... .. . ... ...
ROW CB : ... .. . ... ... ... : ... .. . ... ... ... : ... .. . ... : ... .. . ... : ... .. . ... ...
ROW CC : C#3 00 8 P80 ... ... : A#3 00 8 P81 ... ... : ... .. . ... : ... .. . ... : ... .. . ... ...
ROW CD : ... .. . ... ... ... : ... .. . ... ... ... : ... .. . ... : ... .. . ... : ... .. . ... ...
ROW CE : ... .. 7 ... ... ... : ... .. 7 ... ... ... : ... .. . ... : ... .. . ... : ... .. . ... ...
ROW CF : ... .. . ... ... ... : ... .. . ... ... ... : ... .. . ... : ... .. . ... : ... .. . ... ...
ROW D0 : ... .. . ... ... ... : ... .. . ... ... ... : ... .. . ... : ... .. . ... : ... .. . ... ...
ROW D1 : ... .. . ... ... ... : ... .. . ... ... ... : ... .. . ... : ... .. . ... : ... .. . ... ...
ROW D2 : G-3 00 8 P80 ... ... : C#4 00 8 P80 ... ... : G-3 00 . ... : C-# 00 E ... : ... .. . ... ...
ROW D3 : ... .. . ... ... ... : ... .. . ... ... ... : ... .. . ... : ... .. 0 ... : ... .. . ... ...
ROW D4 : ... .. 7 ... ... ... : ... .. 7 ... ... ... : ... .. . ... : ... .. . ... : ... .. . ... ...
ROW D5 : ... .. . ... ... ... : ... .. . ... ... ... : ... .. . ... : ... .. . ... : ... .. . ... ...
ROW D6 : ... .. . ... ... ... : ... .. . ... ... ... : ... .. . ... : ... .. . ... : ... .. . ... ...
ROW D7 : ... .. . ... ... ... : ... .. . ... ... ... : ... .. . ... : ... .. . ... : ... .. . ... ...
ROW D8 : ... .. 6 ... ... ... : ... .. 6 ... ... ... : A#2 00 . ... : F-# 00 0 ... : ... .. . ... ...
ROW D9 : ... .. . ... ... ... : ... .. . ... ... ... : ... .. . ... : ... .. . ... : ... .. . ... ...
ROW DA : ... .. . ... ... ... : ... .. . ... ... ... : ... .. . ... : ... .. . ... : ... .. . ... ...
ROW DB : ... .. . ... ... ... : ... .. . ... ... ... : ... .. . ... : ... .. . ... : ... .. . ... ...
ROW DC : ... .. . ... ... ... : ... .. . ... ... ... : ... .. . ... : ... .. . ... : ... .. . ... ...
ROW DD : ... .. . ... ... ... : ... .. . ... ... ... : ... .. . ... : ... .. . ... : ... .. . ... ...
ROW DE : ... .. . ... ... ... : ... .. . ... ... ... : ... .. . ... : ... .. . ... : ... .. . ... ...
ROW DF : ... .. . ... ... ... : ... .. . ... ... ... : ... .. . ... : ... .. . ... : ... .. . ... ...
ROW E0 : ... .. . ... ... ... : ... .. . ... ... ... : ... .. . ... : ... .. . ... : ... .. . ... ...
ROW E1 : ... .. . ... ... ... : ... .. . ... ... ... : --- .. . ... : ... .. . ... : ... .. . ... ...
ROW E2 : ... .. . ... ... ... : ... .. . ... ... ... : ... .. . ... : ... .. . ... : ... .. . ... ...
ROW E3 : ... .. . ... ... ... : ... .. . ... ... ... : ... .. . ... : ... .. . ... : ... .. . ... ...
ROW E4 : C#3 00 8 P80 ... ... : A#3 00 8 P81 ... ... : ... .. . ... : ... .. . ... : ... .. . ... ...
ROW E5 : ... .. . ... ... ... : ... .. . ... ... ... : ... .. . ... : ... .. . ... : ... .. . ... ...
ROW E6 : ... .. 7 ... ... ... : ... .. 7 ... ... ... : ... .. . ... : ... .. . ... : ... .. . ... ...
ROW E7 : ... .. . ... ... ... : ... .. . ... ... ... : ... .. . ... : ... .. . ... : ... .. . ... ...
ROW E8 : ... .. . ... ... ... : ... .. . ... ... ... : ... .. . ... : ... .. . ... : ... .. . ... ...
ROW E9 : ... .. . ... ... ... : ... .. . ... ... ... : ... .. . ... : ... .. . ... : ... .. . ... ...
ROW EA : G-3 00 8 P80 ... ... : C#4 00 8 P80 ... ... : G-3 00 . ... : C-# 00 E ... : ... .. . ... ...
ROW EB : ... .. . ... ... ... : ... .. . ... ... ... : ... .. . ... : ... .. 0 ... : ... .. . ... ...
ROW EC : ... .. 7 ... ... ... : ... .. 7 ... ... ... : ... .. . ... : ... .. . ... : ... .. . ... ...
ROW ED : ... .. . ... ... ... : ... .. . ... ... ... : ... .. . ... : ... .. . ... : ... .. . ... ...
ROW EE : ... .. . ... ... ... : ... .. . ... ... ... : ... .. . ... : ... .. . ... : ... .. . ... ...
ROW EF : ... .. . ... ... ... : ... .. . ... ... ... : ... .. . ... : ... .. . ... : ... .. . ... ...
ROW F0 : D#3 00 8 P80 ... ... : C#4 00 8 P81 ... ... : G#2 00 . P7F : F-# 00 0 ... : ... .. . ... ...
ROW F1 : ... .. . ... ... ... : ... .. . ... ... ... : ... .. . ... : ... .. . ... : ... .. . ... ...
ROW F2 : ... .. 7 ... ... ... : ... .. 7 ... ... ... : ... .. . ... : ... .. . ... : ... .. . ... ...
ROW F3 : ... .. . ... ... ... : ... .. . ... ... ... : ... .. . ... : ... .. . ... : ... .. . ... ...
ROW F4 : ... .. . ... ... ... : ... .. . ... ... ... : ... .. . ... : ... .. . ... : ... .. . ... ...
ROW F5 : ... .. . ... ... ... : ... .. . ... ... ... : ... .. . ... : ... .. . ... : ... .. . ... ...
ROW F6 : G#3 00 8 P80 ... ... : D#4 00 8 P81 ... ... : ... .. . ... : ... .. . ... : ... .. . ... ...
ROW F7 : ... .. . ... ... ... : ... .. . ... ... ... : ... .. . ... : ... .. . ... : ... .. . ... ...
ROW F8 : ... .. 7 ... ... ... : ... .. 7 ... ... ... : ... .. . ... : ... .. . ... : ... .. . ... ...
ROW F9 : ... .. . ... ... ... : ... .. . ... ... ... : --- .. . ... : ... .. . ... : ... .. . ... ...
ROW FA : ... .. . ... ... ... : ... .. . ... ... ... : ... .. . ... : ... .. . ... : ... .. . ... ...
ROW FB : ... .. . ... ... ... : ... .. . ... ... ... : ... .. . ... : ... .. . ... : ... .. . ... ...
ROW FC : C#4 00 8 P81 ... ... : G-4 00 8 P81 ... ... : ... .. . ... : ... .. . ... : ... .. . ... ...
ROW FD : ... .. . ... ... ... : ... .. . ... ... ... : ... .. . ... : ... .. . ... : ... .. . ... ...
ROW FE : ... .. 7 ... ... ... : ... .. 7 ... ... ... : ... .. . ... : ... .. . ... : ... .. . ... ...
ROW FF : ... .. . ... ... ... : ... .. . ... ... ... : ... .. . ... : ... .. . ... : ... .. . ... ...

PATTERN 01
ROW 00 : ... .. . ... ... ... : ... .. . ... ... ... : ... .. . ... : ... .. . ... : ... .. . ... ...
ROW 01 : ... .. . ... ... ... : ... .. . ... ... ... : ... .. . ... : ... .. . ... : ... .. . ... ...
ROW 02 : D#4 00 8 P81 ... ... : B-4 00 8 P80 ... ... : G-3 00 . P80 : C-# 00 E ... : ... .. . ... ...
ROW 03 : ... .. . ... ... ... : ... .. . ... ... ... : ... .. . ... : ... .. 0 ... : ... .. . ... ...
ROW 04 : ... .. 7 ... ... ... : ... .. 7 ... ... ... : ... .. . ... : ... .. . ... : ... .. . ... ...
ROW 05 : ... .. . ... ... ... : ... .. . ... ... ... : ... .. . ... : ... .. . ... : ... .. . ... ...
ROW 06 : ... .. . ... ... ... : ... .. . ... ... ... : ... .. . ... : ... .. . ... : ... .. . ... ...
ROW 07 : ... .. . ... ... ... : ... .. . ... ... ... : ... .. . ... : ... .. . ... : ... .. . ... ...
ROW 08 : ... .. 6 ... ... ... : ... .. 6 ... ... ... : G#2 00 . P7F : ... .. E ... : ... .. . ... ...
ROW 09 : ... .. . ... ... ... : ... .. . ... ... ... : ... .. . ... : ... .. 0 ... : ... .. . ... ...
ROW 0A : ... .. . ... ... ... : ... .. . ... ... ... : ... .. . ... : ... .. . ... : ... .. . ... ...
ROW 0B : ... .. . ... ... ... : ... .. . ... ... ... : ... .. . ... : ... .. . ... : ... .. . ... ...
ROW 0C : ... .. . ... ... ... : ... .. . ... ... ... : ... .. . ... : ... .. . ... : ... .. . ... ...
ROW 0D : ... .. . ... ... ... : ... .. . ... ... ... : ... .. . ... : ... .. . ... : ... .. . ... ...
ROW 0E : ... .. . ... ... ... : ... .. . ... ... ... : ... .. . ... : ... .. E ... : ... .. . ... ...
ROW 0F : ... .. . ... ... ... : ... .. . ... ... ... : ... .. . ... : ... .. 0 ... : ... .. . ... ...
ROW 10 : ... .. . ... ... ... : ... .. . ... ... ... : ... .. . ... : ... .. . ... : ... .. . ... ...
ROW 11 : ... .. . ... ... ... : ... .. . ... ... ... : --- .. . ... : ... .. . ... : ... .. . ... ...
ROW 12 : ... .. . ... ... ... : ... .. . ... ... ... : ... .. . ... : ... .. . ... : ... .. . ... ...
ROW 13 : ... .. . ... ... ... : ... .. . ... ... ... : ... .. . ... : ... .. . ... : ... .. . ... ...
ROW 14 : ... .. . ... ... ... : ... .. . ... ... ... : ... .. . ... : ... .. E ... : ... .. . ... ...
ROW 15 : ... .. . ... ... ... : ... .. . ... ... ... : ... .. . ... : ... .. 0 ... : ... .. . ... ...
ROW 16 : ... .. . ... ... ... : ... .. . ... ... ... : ... .. . ... : ... .. . ... : ... .. . ... ...
ROW 17 : ... .. . ... ... ... : ... .. . ... ... ... : ... .. . ... : ... .. . ... : ... .. . ... ...
ROW 18 : ... .. . ... ... ... : ... .. . ... ... ... : ... .. . ... : ... .. . ... : ... .. . ... ...
ROW 19 : ... .. . ... ... ... : ... .. . ... ... ... : ... .. . ... : ... .. . ... : ... .. . ... ...
ROW 1A : ... .. . ... ... ... : ... .. . ... ... ... : G-3 00 . P80 : ... .. E ... : ... .. . ... ...
ROW 1B : ... .. . ... ... ... : ... .. . ... ... ... : ... .. . ... : ... .. 0 ... : ... .. . ... ...
ROW 1C : ... .. . ... ... ... : ... .. . ... ... ... : ... .. . ... : ... .. . ... : ... .. . ... ...
ROW 1D : ... .. . ... ... ... : ... .. . ... ... ... : ... .. . ... : ... .. . ... : ... .. . ... ...
ROW 1E : ... .. . ... ... ... : ... .. . ... ... ... : ... .. . ... : ... .. . ... : ... .. . ... ...
ROW 1F : ... .. . ... ... ... : ... .. . ... ... ... : ... .. . ... : ... .. . ... : ... .. . ... ...
ROW 20 : G#4 00 8 P80 ... ... : C-5 00 8 P81 ... ... : F-2 00 . ... : F-# 00 0 ... : ... .. . ... ...
ROW 21 : ... .. . ... ... ... : ... .. . ... ... ... : ... .. . ... : ... .. . ... : ... .. . ... ...
ROW 22 : ... .. 7 ... ... ... : ... .. 7 ... ... ... : ... .. . ... : ... .. . ... : ... .. . ... ...
ROW 23 : ... .. . ... ... ... : ... .. . ... ... ... : ... .. . ... : ... .. . ... : ... .. . ... ...
ROW 24 : ... .. . ... ... ... : ... .. . ... ... ... : ... .. . ... : ... .. . ... : ... .. . ... ...
ROW 25 : ... .. . ... ... ... : ... .. . ... ... ... : ... .. . ... : ... .. . ... : ... .. . ... ...
ROW 26 : ... .. 0 ... ... ... : ... .. 0 ... ... ... : ... .. . ... : ... .. . ... : ... .. . ... ...
ROW 27 : ... .. . ... ... ... : ... .. . ... ... ... : ... .. . ... : ... .. . ... : ... .. . ... ...
ROW 28 : ... .. . ... ... ... : ... .. . ... ... ... : ... .. . ... : ... .. . ... : ... .. . ... ...
ROW 29 : ... .. . ... ... ... : ... .. . ... ... ... : --- .. . ... : ... .. . ... : ... .. . ... ...
ROW 2A : ... .. . ... ... ... : ... .. . ... ... ... : ... .. . ... : ... .. . ... : ... .. . ... ...
ROW 2B : ... .. . ... ... ... : ... .. . ... ... ... : ... .. . ... : ... .. . ... : ... .. . ... ...
ROW 2C : G-4 00 8 P81 ... ... : B-4 00 8 P80 ... ... : ... .. . ... : ... .. . ... : ... .. . ... ...
ROW 2D : ... .. . ... ... ... : ... .. . ... ... ... : ... .. . ... : ... .. . ... : ... .. . ... ...
ROW 2E : ... .. 7 ... ... ... : ... .. 7 ... ... ... : ... .. . ... : ... .. . ... : ... .. . ... ...
ROW 2F : ... .. . ... ... ... : ... .. . ... ... ... : ... .. . ... : ... .. . ... : ... .. . ... ...
ROW 30 : ... .. . ... ... ... : ... .. . ... ... ... : ... .. . ... : ... .. . ... : ... .. . ... ...
ROW 31 : ... .. . ... ... ... : ... .. . ... ... ... : ... .. . ... : ... .. . ... : ... .. . ... ...
ROW 32 : G#4 00 8 P80 ... ... : C-5 00 8 P81 ... ... : F-3 00 . ... : C-# 00 E ... : ... .. . ... ...
ROW 33 : ... .. . ... ... ... : ... .. . ... ... ... : ... .. . ... : ... .. 0 ... : ... .. . ... ...
ROW 34 : ... .. 7 ... ... ... : ... .. 7 ... ... ... : ... .. . ... : ... .. . ... : ... .. . ... ...
ROW 35 : ... .. . ... ... ... : ... .. . ... ... ... : ... .. . ... : ... .. . ... : ... .. . ... ...
ROW 36 : ... .. . ... ... ... : ... .. . ... ... ... : ... .. . ... : ... .. . ... : ... .. . ... ...
ROW 37 : ... .. . ... ... ... : ... .. . ... ... ... : ... .. . ... : ... .. . ... : ... .. . ... ...
ROW 38 : ... .. 6 ... ... ... : ... .. 6 ... ... ... : F#2 00 . ... : F-# 00 0 ... : ... .. . ... ...
ROW 39 : ... .. . ... ... ... : ... .. . ... ... ... : ... .. . ... : ... .. . ... : ... .. . ... ...
ROW 3A : ... .. . ... ... ... : ... .. . ... ... ... : ... .. . ... : ... .. . ... : ... .. . ... ...
ROW 3B : ... .. . ... ... ... : ... .. . ... ... ... : ... .. . ... : ... .. . ... : ... .. . ... ...
ROW 3C : ... .. . ... ... ... : ... .. . ... ... ... : ... .. . ... : ... .. . ... : ... .. . ... ...
ROW 3D : ... .. . ... ... ... : ... .. . ... ... ... : ... .. . ... : ... .. . ... : ... .. . ... ...
ROW 3E : ... .. . ... ... ... : ... .. . ... ... ... : ... .. . ... : ... .. . ... : ... .. . ... ...
ROW 3F : ... .. . ... ... ... : ... .. . ... ... ... : ... .. . ... : ... .. . ... : ... .. . ... ...
ROW 40 : ... .. . ... ... ... : ... .. . ... ... ... : ... .. . ... : ... .. . ... : ... .. . ... ...
ROW 41 : ... .. . ... ... ... : ... .. . ... ... ... : --- .. . ... : ... .. . ... : ... .. . ... ...
ROW 42 : ... .. . ... ... ... : ... .. . ... ... ... : ... .. . ... : ... .. . ... : ... .. . ... ...
ROW 43 : ... .. . ... ... ... : ... .. . ... ... ... : ... .. . ... : ... .. . ... : ... .. . ... ...
ROW 44 : G#4 00 8 P80 ... ... : C-5 00 8 P81 ... ... : ... .. . ... : ... .. . ... : ... .. . ... ...
ROW 45 : ... .. . ... ... ... : ... .. . ... ... ... : ... .. . ... : ... .. . ... : ... .. . ... ...
ROW 46 : ... .. 7 ... ... ... : ... .. 7 ... ... ... : ... .. . ... : ... .. . ... : ... .. . ... ...
ROW 47 : ... .. . ... ... ... : ... .. . ... ... ... : ... .. . ... : ... .. . ... : ... .. . ... ...
ROW 48 : ... .. . ... ... ... : ... .. . ... ... ... : ... .. . ... : ... .. . ... : ... .. . ... ...
ROW 49 : ... .. . ... ... ... : ... .. . ... ... ... : ... .. . ... : ... .. . ... : ... .. . ... ...
ROW 4A : G-4 00 8 P81 ... ... : B-4 00 8 P80 ... ... : F#3 00 . ... : C-# 00 E ... : ... .. . ... ...
ROW 4B : ... .. . ... ... ... : ... .. . ... ... ... : ... .. . ... : ... .. 0 ... : ... .. . ... ...
ROW 4C : ... .. 7 ... ... ... : ... .. 7 ... ... ... : ... .. . ... : ... .. . ... : ... .. . ... ...
ROW 4D : ... .. . ... ... ... : ... .. . ... ... ... : ... .. . ... : ... .. . ... : ... .. . ... ...
ROW 4E : ... .. . ... ... ... : ... .. . ... ... ... : ... .. . ... : ... .. . ... : ... .. . ... ...
ROW 4F : ... .. . ... ... ... : ... .. . ... ... ... : ... .. . ... : ... .. . ... : ... .. . ... ...
ROW 50 : D#4 00 8 P81 ... ... : G-4 00 8 P81 ... ... : G-2 00 . ... : F-# 00 0 ... : ... .. . ... ...
ROW 51 : ... .. . ... ... ... : ... .. . ... ... ... : ... .. . ... : ... .. . ... : ... .. . ... ...
ROW 52 : ... .. 7 ... ... ... : ... .. 7 ... ... ... : ... .. . ... : ... .. . ... : ... .. . ... ...
ROW 53 : ... .. . ... ... ... : ... .. . ... ... ... : ... .. . ... : ... .. . ... : ... .. . ... ...
ROW 54 : ... .. . ... ... ... : ... .. . ... ... ... : ... .. . ... : ... .. . ... : ... .. . ... ...
ROW 55 : ... .. . ... ... ... : ... .. . ... ... ... : ... .. . ... : ... .. . ... : ... .. . ... ...
ROW 56 : ... .. 0 ... ... ... : ... .. 0 ... ... ... : ... .. . ... : ... .. . ... : ... .. . ... ...
ROW 57 : ... .. . ... ... ... : ... .. . ... ... ... : ... .. . ... : ... .. . ... : ... .. . ... ...
ROW 58 : ... .. . ... ... ... : ... .. . ... ... ... : ... .. . ... : ... .. . ... : ... .. . ... ...
ROW 59 : ... .. . ... ... ... : ... .. . ... ... ... : --- .. . ... : ... .. . ... : ... .. . ... ...
ROW 5A : ... .. . ... ... ... : ... .. . ... ... ... : ... .. . ... : ... .. . ... : ... .. . ... ...
ROW 5B : ... .. . ... ... ... : ... .. . ... ... ... : ... .. . ... : ... .. . ... : ... .. . ... ...
ROW 5C : D-4 00 8 P81 ... ... : F#4 00 8 P80 ... ... : ... .. . ... : ... .. . ... : ... .. . ... ...
ROW 5D : ... .. . ... ... ... : ... .. . ... ... ... : ... .. . ... : ... .. . ... : ... .. . ... ...
ROW 5E : ... .. 7 ... ... ... : ... .. 7 ... ... ... : ... .. . ... : ... .. . ... : ... .. . ... ...
ROW 5F : ... .. . ... ... ... : ... .. . ... ... ... : ... .. . ... : ... .. . ... : ... .. . ... ...
ROW 60 : ... .. . ... ... ... : ... .. . ... ... ... : ... .. . ... : ... .. . ... : ... .. . ... ...
ROW 61 : ... .. . ... ... ... : ... .. . ... ... ... : ... .. . ... : ... .. . ... : ... .. . ... ...
ROW 62 : D#4 00 8 P81 ... ... : G-4 00 8 P81 ... ... : G-3 00 . ... : C-# 00 E ... : ... .. . ... ...
ROW 63 : ... .. . ... ... ... : ... .. . ... ... ... : ... .. . ... : ... .. 0 ... : ... .. . ... ...
ROW 64 : ... .. 7 ... ... ... : ... .. 7 ... ... ... : ... .. . ... : ... .. . ... : ... .. . ... ...
ROW 65 : ... .. . ... ... ... : ... .. . ... ... ... : ... .. . ... : ... .. . ... : ... .. . ... ...
ROW 66 : ... .. . ... ... ... : ... .. . ... ... ... : ... .. . ... : ... .. . ... : ... .. . ... ...
ROW 67 : ... .. . ... ... ... : ... .. . ... ... ... : ... .. . ... : ... .. . ... : ... .. . ... ...
ROW 68 : ... .. 6 ... ... ... : ... .. 6 ... ... ... : G#2 00 . P7F : ... .. E ... : ... .. . ... ...
ROW 69 : ... .. . ... ... ... : ... .. . ... ... ... : ... .. . ... : ... .. 0 ... : ... .. . ... ...
ROW 6A : ... .. . ... ... ... : ... .. . ... ... ... : ... .. . ... : ... .. . ... : ... .. . ... ...
ROW 6B : ... .. . ... ... ... : ... .. . ... ... ... : ... .. . ... : ... .. . ... : ... .. . ... ...
ROW 6C : ... .. . ... ... ... : ... .. . ... ... ... : ... .. . ... : ... .. . ... : ... .. . ... ...
ROW 6D : ... .. . ... ... ... : ... .. . ... ... ... : ... .. . ... : ... .. . ... : ... .. . ... ...
ROW 6E : ... .. . ... ... ... : ... .. . ... ... ... : ... .. . ... : ... .. E ... : ... .. . ... ...
ROW 6F : ... .. . ... ... ... : ... .. . ... ... ... : ... .. . ... : ... .. 0 ... : ... .. . ... ...
ROW 70 : ... .. . ... ... ... : ... .. . ... ... ... : ... .. . ... : ... .. . ... : ... .. . ... ...
ROW 71 : ... .. . ... ... ... : ... .. . ... ... ... : --- .. . ... : ... .. . ... : ... .. . ... ...
ROW 72 : ... .. . ... ... ... : ... .. . ... ... ... : ... .. . ... : ... .. . ... : ... .. . ... ...
ROW 73 : ... .. . ... ... ... : ... .. . ... ... ... : ... .. . ... : ... .. . ... : ... .. . ... ...
ROW 74 : G#3 00 8 P80 ... ... : C#4 00 8 P81 ... ... : ... .. . ... : ... .. E ... : ... .. . ... ...
ROW 75 : ... .. . ... ... ... : ... .. . ... ... ... : ... .. . ... : ... .. 0 ... : ... .. . ... ...
ROW 76 : ... .. 7 ... ... ... : ... .. 7 ... ... ... : ... .. . ... : ... .. . ... : ... .. . ... ...
ROW 77 : ... .. . ... ... ... : ... .. . ... ... ... : ... .. . ... : ... .. . ... : ... .. . ... ...
ROW 78 : ... .. . ... ... ... : ... .. . ... ... ... : ... .. . ... : ... .. . ... : ... .. . ... ...
ROW 79 : ... .. . ... ... ... : ... .. . ... ... ... : ... .. . ... : ... .. . ... : ... .. . ... ...
ROW 7A : B-3 00 8 P80 ... ... : C#4 00 8 P80 ... ... : G#3 00 . P80 : ... .. E ... : ... .. . ... ...
ROW 7B : ... .. . ... ... ... : ... .. . ... ... ... : ... .. . ... : ... .. 0 ... : ... .. . ... ...
ROW 7C : ... .. 7 ... ... ... : ... .. 7 ... ... ... : ... .. . ... : ... .. . ... : ... .. . ... ...
ROW 7D : ... .. . ... ... ... : ... .. . ... ... ... : ... .. . ... : ... .. . ... : ... .. . ... ...
ROW 7E : ... .. . ... ... ... : ... .. . ... ... ... : ... .. . ... : ... .. . ... : ... .. . ... ...
ROW 7F : ... .. . ... ... ... : ... .. . ... ... ... : ... .. . ... : ... .. . ... : ... .. . ... ...
ROW 80 : C#4 00 8 P80 ... ... : F-4 00 8 P80 ... ... : C#3 00 . ... : F-# 00 0 ... : ... .. . ... ...
ROW 81 : ... .. . ... ... ... : ... .. . ... ... ... : ... .. . ... : ... .. . ... : ... .. . ... ...
ROW 82 : ... .. 7 ... ... ... : ... .. 7 ... ... ... : ... .. . ... : ... .. . ... : ... .. . ... ...
ROW 83 : ... .. . ... ... ... : ... .. . ... ... ... : ... .. . ... : ... .. . ... : ... .. . ... ...
ROW 84 : ... .. . ... ... ... : ... .. . ... ... ... : ... .. . ... : ... .. . ... : ... .. . ... ...
ROW 85 : ... .. . ... ... ... : ... .. . ... ... ... : ... .. . ... : ... .. . ... : ... .. . ... ...
ROW 86 : ... .. 0 ... ... ... : ... .. 0 ... ... ... : ... .. . ... : ... .. . ... : ... .. . ... ...
ROW 87 : ... .. . ... ... ... : ... .. . ... ... ... : ... .. . ... : ... .. . ... : ... .. . ... ...
ROW 88 : ... .. . ... ... ... : ... .. . ... ... ... : ... .. . ... : ... .. . ... : ... .. . ... ...
ROW 89 : ... .. . ... ... ... : ... .. . ... ... ... : --- .. . ... : ... .. . ... : ... .. . ... ...
ROW 8A : ... .. . ... ... ... : ... .. . ... ... ... : ... .. . ... : ... .. . ... : ... .. . ... ...
ROW 8B : ... .. . ... ... ... : ... .. . ... ... ... : ... .. . ... : ... .. . ... : ... .. . ... ...
ROW 8C : C-4 00 8 P81 ... ... : D#4 00 8 P81 ... ... : ... .. . ... : ... .. . ... : ... .. . ... ...
ROW 8D : ... .. . ... ... ... : ... .. . ... ... ... : ... .. . ... : ... .. . ... : ... .. . ... ...
ROW 8E : ... .. 7 ... ... ... : ... .. 7 ... ... ... : ... .. . ... : ... .. . ... : ... .. . ... ...
ROW 8F : ... .. . ... ... ... : ... .. . ... ... ... : ... .. . ... : ... .. . ... : ... .. . ... ...
ROW 90 : ... .. . ... ... ... : ... .. . ... ... ... : ... .. . ... : ... .. . ... : ... .. . ... ...
ROW 91 : ... .. . ... ... ... : ... .. . ... ... ... : ... .. . ... : ... .. . ... : ... .. . ... ...
ROW 92 : C#4 00 8 P80 ... ... : F-4 00 8 P80 ... ... : F-3 00 . ... : C-# 00 E ... : ... .. . ... ...
ROW 93 : ... .. . ... ... ... : ... .. . ... ... ... : ... .. . ... : ... .. 0 ... : ... .. . ... ...
ROW 94 : ... .. 7 ... ... ... : ... .. 7 ... ... ... : ... .. . ... : ... .. . ... : ... .. . ... ...
ROW 95 : ... .. . ... ... ... : ... .. . ... ... ... : ... .. . ... : ... .. . ... : ... .. . ... ...
ROW 96 : ... .. . ... ... ... : ... .. . ... ... ... : ... .. . ... : ... .. . ... : ... .. . ... ...
ROW 97 : ... .. . ... ... ... : ... .. . ... ... ... : ... .. . ... : ... .. . ... : ... .. . ... ...
ROW 98 : ... .. 6 ... ... ... : ... .. 6 ... ... ... : G-2 00 . ... : F-# 00 0 ... : ... .. . ... ...
ROW 99 : ... .. . ... ... ... : ... .. . ... ... ... : ... .. . ... : ... .. . ... : ... .. . ... ...
ROW 9A : ... .. . ... ... ... : ... .. . ... ... ... : ... .. . ... : ... .. . ... : ... .. . ... ...
ROW 9B : ... .. . ... ... ... : ... .. . ... ... ... : ... .. . ... : ... .. . ... : ... .. . ... ...
ROW 9C : ... .. . ... ... ... : ... .. . ... ... ... : ... .. . ... : ... .. . ... : ... .. . ... ...
ROW 9D : ... .. . ... ... ... : ... .. . ... ... ... : ... .. . ... : ... .. . ... : ... .. . ... ...
ROW 9E : ... .. . ... ... ... : ... .. . ... ... ... : ... .. . ... : ... .. . ... : ... .. . ... ...
ROW 9F : ... .. . ... ... ... : ... .. . ... ... ... : ... .. . ... : ... .. . ... : ... .. . ... ...
ROW A0 : ... .. . ... ... ... : ... .. . ... ... ... : ... .. . ... : ... .. . ... : ... .. . ... ...
ROW A1 : ... .. . ... ... ... : ... .. . ... ... ... : --- .. . ... : ... .. . ... : ... .. . ... ...
ROW A2 : ... .. . ... ... ... : ... .. . ... ... ... : ... .. . ... : ... .. . ... : ... .. . ... ...
ROW A3 : ... .. . ... ... ... : ... .. . ... ... ... : ... .. . ... : ... .. . ... : ... .. . ... ...
ROW A4 : C-4 00 8 P81 ... ... : D#4 00 8 P81 ... ... : ... .. . ... : ... .. . ... : ... .. . ... ...
ROW A5 : ... .. . ... ... ... : ... .. . ... ... ... : ... .. . ... : ... .. . ... : ... .. . ... ...
ROW A6 : ... .. 7 ... ... ... : ... .. 7 ... ... ... : ... .. . ... : ... .. . ... : ... .. . ... ...
ROW A7 : ... .. . ... ... ... : ... .. . ... ... ... : ... .. . ... : ... .. . ... : ... .. . ... ...
ROW A8 : ... .. . ... ... ... : ... .. . ... ... ... : ... .. . ... : ... .. . ... : ... .. . ... ...
ROW A9 : ... .. . ... ... ... : ... .. . ... ... ... : ... .. . ... : ... .. . ... : ... .. . ... ...
ROW AA : B-3 00 8 P80 ... ... : C#4 00 8 P80 ... ... : C#3 00 . ... : C-# 00 E ... : ... .. . ... ...
ROW AB : ... .. . ... ... ... : ... .. . ... ... ... : ... .. . ... : ... .. 0 ... : ... .. . ... ...
ROW AC : ... .. 7 ... ... ... : ... .. 7 ... ... ... : ... .. . ... : ... .. . ... : ... .. . ... ...
ROW AD : ... .. . ... ... ... : ... .. . ... ... ... : ... .. . ... : ... .. . ... : ... .. . ... ...
ROW AE : ... .. . ... ... ... : ... .. . ... ... ... : ... .. . ... : ... .. . ... : ... .. . ... ...
ROW AF : ... .. . ... ... ... : ... .. . ... ... ... : ... .. . ... : ... .. . ... : ... .. . ... ...
ROW B0 : ... .. 6 ... ... ... : ... .. 6 ... ... ... : C-3 00 . ... : F-# 00 0 ... : ... .. . ... ...
ROW B1 : ... .. . ... ... ... : ... .. . ... ... ... : ... .. . ... : ... .. . ... : ... .. . ... ...
ROW B2 : ... .. . ... ... ... : ... .. . ... ... ... : ... .. . ... : ... .. . ... : ... .. . ... ...
ROW B3 : ... .. . ... ... ... : ... .. . ... ... ... : ... .. . ... : ... .. . ... : ... .. . ... ...
ROW B4 : ... .. . ... ... ... : ... .. . ... ... ... : ... .. . ... : ... .. . ... : ... .. . ... ...
ROW B5 : ... .. . ... ... ... : ... .. . ... ... ... : ... .. . ... : ... .. . ... : ... .. . ... ...
ROW B6 : ... .. . ... ... ... : ... .. . ... ... ... : ... .. . ... : ... .. . ... : ... .. . ... ...
ROW B7 : ... .. . ... ... ... : ... .. . ... ... ... : ... .. . ... : ... .. . ... : ... .. . ... ...
ROW B8 : ... .. . ... ... ... : ... .. . ... ... ... : ... .. . ... : ... .. . ... : ... .. . ... ...
ROW B9 : ... .. . ... ... ... : ... .. . ... ... ... : --- .. . ... : ... .. . ... : ... .. . ... ...
ROW BA : ... .. . ... ... ... : ... .. . ... ... ... : ... .. . ... : ... .. . ... : ... .. . ... ...
ROW BB : ... .. . ... ... ... : ... .. . ... ... ... : ... .. . ... : ... .. . ... : ... .. . ... ...
ROW BC : ... .. . ... ... ... : ... .. . ... ... ... : ... .. . ... : ... .. . ... : ... .. . ... ...
ROW BD : ... .. . ... ... ... : ... .. . ... ... ... : ... .. . ... : ... .. . ... : ... .. . ... ...
ROW BE : ... .. . ... ... ... : ... .. . ... ... ... : ... .. . ... : ... .. . ... : ... .. . ... ...
ROW BF : ... .. . ... ... ... : ... .. . ... ... ... : ... .. . ... : ... .. . ... : ... .. . ... ...
ROW C0 : ... .. . ... ... ... : ... .. . ... ... ... : ... .. . ... : ... .. . ... : ... .. . ... ...
ROW C1 : ... .. . ... ... ... : ... .. . ... ... ... : ... .. . ... : ... .. . ... : ... .. . ... ...
ROW C2 : ... .. . ... ... ... : ... .. . ... ... ... : G-2 00 . ... : C-# 00 E ... : ... .. . ... ...
ROW C3 : ... .. . ... ... ... : ... .. . ... ... ... : ... .. . ... : ... .. 0 ... : ... .. . ... ...
ROW C4 : ... .. . ... ... ... : ... .. . ... ... ... : ... .. . ... : ... .. . ... : ... .. . ... ...
ROW C5 : ... .. . ... ... ... : ... .. . ... ... ... : ... .. . ... : ... .. . ... : ... .. . ... ...
ROW C6 : ... .. . ... ... ... : ... .. . ... ... ... : ... .. . ... : ... .. . ... : ... .. . ... ...
ROW C7 : ... .. . ... ... ... : ... .. . ... ... ... : ... .. . ... : ... .. . ... : ... .. . ... ...
ROW C8 : ... .. . ... ... ... : ... .. . ... ... ... : C-3 00 . ... : ... .. E ... : ... .. . ... ...
ROW C9 : ... .. . ... ... ... : ... .. . ... ... ... : ... .. . ... : ... .. 0 ... : ... .. . ... ...
ROW CA : ... .. . ... ... ... : ... .. . ... ... ... : ... .. . ... : ... .. . ... : ... .. . ... ...
ROW CB : ... .. . ... ... ... : ... .. . ... ... ... : ... .. . ... : ... .. . ... : ... .. . ... ...
ROW CC : ... .. . ... ... ... : ... .. . ... ... ... : ... .. . ... : ... .. . ... : ... .. . ... ...
ROW CD : ... .. . ... ... ... : ... .. . ... ... ... : ... .. . ... : ... .. . ... : ... .. . ... ...
ROW CE : ... .. . ... ... ... : ... .. . ... ... ... : ... .. . ... : ... .. E ... : ... .. . ... ...
ROW CF : ... .. . ... ... ... : ... .. . ... ... ... : ... .. . ... : ... .. 0 ... : ... .. . ... ...
ROW D0 : ... .. . ... ... ... : ... .. . ... ... ... : ... .. . ... : ... .. . ... : ... .. . ... ...
ROW D1 : ... .. . ... ... ... : ... .. . ... ... ... : --- .. . ... : ... .. . ... : ... .. . ... ...
ROW D2 : ... .. . ... ... ... : ... .. . ... ... ... : ... .. . ... : ... .. . ... : ... .. . ... ...
ROW D3 : ... .. . ... ... ... : ... .. . ... ... ... : ... .. . ... : ... .. . ... : ... .. . ... ...
ROW D4 : ... .. . ... ... ... : ... .. . ... ... ... : ... .. . ... : ... .. E ... : ... .. . ... ...
ROW D5 : ... .. . ... ... ... : ... .. . ... ... ... : ... .. . ... : ... .. 0 ... : ... .. . ... ...
ROW D6 : ... .. . ... ... ... : ... .. . ... ... ... : ... .. . ... : ... .. . ... : ... .. . ... ...
ROW D7 : ... .. . ... ... ... : ... .. . ... ... ... : ... .. . ... : ... .. . ... : ... .. . ... ...
ROW D8 : ... .. . ... ... ... : ... .. . ... ... ... : ... .. . ... : ... .. . ... : ... .. . ... ...
ROW D9 : ... .. . ... ... ... : ... .. . ... ... ... : ... .. . ... : ... .. . ... : ... .. . ... ...
ROW DA : ... .. . ... ... ... : ... .. . ... ... ... : ... .. . ... : ... .. E ... : ... .. . ... ...
ROW DB : ... .. . ... ... ... : ... .. . ... ... ... : ... .. . ... : ... .. 0 ... : ... .. . ... ...
ROW DC : ... .. . ... ... ... : ... .. . ... ... ... : ... .. . ... : ... .. . ... : ... .. . ... ...
ROW DD : ... .. . ... ... ... : ... .. . ... ... ... : ... .. . ... : ... .. . ... : ... .. . ... ...
ROW DE : ... .. . ... ... ... : ... .. . ... ... ... : ... .. . ... : ... .. . ... : ... .. . ... ...
ROW DF : ... .. . ... ... ... : ... .. . ... ... ... : ... .. . ... : ... .. . ... : ... .. . ... ...
ROW E0 : ... .. 1 ... V01 ... : ... .. 1 ... V01 ... : C-3 00 . ... : D-# 00 6 ... : ... .. . ... ...
ROW E1 : ... .. . ... ... ... : ... .. . ... ... ... : ... .. . ... : ... .. . ... : ... .. . ... ...
ROW E2 : ... .. . ... ... ... : ... .. . ... ... ... : ... .. . ... : ... .. . ... : ... .. . ... ...
ROW E3 : ... .. . ... ... ... : ... .. . ... ... ... : ... .. . ... : ... .. . ... : ... .. . ... ...
ROW E4 : ... .. . ... ... ... : ... .. . ... ... ... : ... .. . ... : ... .. . ... : ... .. . ... ...
ROW E5 : ... .. . ... ... ... : ... .. . ... ... ... : ... .. . ... : ... .. 0 ... : ... .. . ... ...
ROW E6 : ... .. . ... ... ... : ... .. . ... ... ... : ... .. . ... : ... .. . ... : ... .. . ... ...
ROW E7 : ... .. . ... ... ... : ... .. . ... ... ... : ... .. . ... : ... .. . ... : ... .. . ... ...
ROW E8 : ... .. . ... ... ... : ... .. . ... ... ... : ... .. . ... : ... .. . ... : ... .. . ... ...
ROW E9 : ... .. . ... ... ... : ... .. . ... ... ... : --- .. . ... : ... .. . ... : ... .. . ... ...
ROW EA : ... .. . ... ... ... : ... .. . ... ... ... : ... .. . ... : ... .. . ... : ... .. . ... ...
ROW EB : ... .. . ... ... ... : ... .. . ... ... ... : ... .. . ... : ... .. . ... : ... .. . ... ...
ROW EC : G-3 00 B P80 ... ... : D#4 00 B P81 ... ... : ... .. . ... : ... .. . ... : ... .. . ... ...
ROW ED : ... .. A ... ... ... : ... .. A ... ... ... : ... .. . ... : ... .. . ... : ... .. . ... ...
ROW EE : ... .. 9 ... ... ... : ... .. 9 ... ... ... : ... .. . ... : ... .. . ... : ... .. . ... ...
ROW EF : ... .. 8 ... ... ... : ... .. 8 ... ... ... : ... .. . ... : ... .. . ... : ... .. . ... ...
ROW F0 : ... .. 7 ... ... ... : ... .. 7 ... ... ... : ... .. . ... : ... .. . ... : ... .. . ... ...
ROW F1 : ... .. 6 ... ... ... : ... .. 6 ... ... ... : ... .. . ... : ... .. . ... : ... .. . ... ...
ROW F2 : ... .. 5 ... ... ... : ... .. 5 ... ... ... : C#3 00 . ... : C-# 00 E ... : ... .. . ... ...
ROW F3 : ... .. 4 ... ... ... : ... .. 4 ... ... ... : ... .. . ... : ... .. 0 ... : ... .. . ... ...
ROW F4 : ... .. 3 ... ... ... : ... .. 3 ... ... ... : ... .. . ... : ... .. . ... : ... .. . ... ...
ROW F5 : ... .. 2 ... ... ... : ... .. 2 ... ... ... : ... .. . ... : ... .. . ... : ... .. . ... ...
ROW F6 : ... .. 1 ... ... ... : ... .. 1 ... ... ... : ... .. . ... : ... .. . ... : ... .. . ... ...
ROW F7 : ... .. . ... ... ... : ... .. . ... ... ... : ... .. . ... : ... .. . ... : ... .. . ... ...
ROW F8 : C-4 00 B P81 ... ... : G-4 00 B P81 ... ... : D#3 00 . ... : D-# 00 6 ... : ... .. . ... ...
ROW F9 : ... .. A ... ... ... : ... .. A ... ... ... : ... .. . ... : ... .. . ... : ... .. . ... ...
ROW FA : ... .. 9 ... ... ... : ... .. 9 ... ... ... : ... .. . ... : ... .. . ... : ... .. . ... ...
ROW FB : ... .. 8 ... ... ... : ... .. 8 ... ... ... : ... .. . ... : ... .. . ... : ... .. . ... ...
ROW FC : ... .. 7 ... ... ... : ... .. 7 ... ... ... : ... .. . ... : ... .. . ... : ... .. . ... ...
ROW FD : ... .. 6 ... ... ... : ... .. 6 ... ... ... : ... .. . ... : ... .. 0 ... : ... .. . ... ...
ROW FE : ... .. 1 ... ... ... : ... .. 1 ... ... ... : ... .. . ... : ... .. . ... : ... .. . ... ...
ROW FF : ... .. . ... ... ... : ... .. . ... ... ... : ... .. . ... : ... .. . ... : ... .. . ... ...

PATTERN 02
ROW 00 : ... .. . ... ... ... : ... .. . ... ... ... : ... .. . ... : ... .. . ... : ... .. . ... ...
ROW 01 : ... .. . ... ... ... : ... .. . ... ... ... : --- .. . ... : ... .. . ... : ... .. . ... ...
ROW 02 : ... .. . ... ... ... : ... .. . ... ... ... : ... .. . ... : ... .. . ... : ... .. . ... ...
ROW 03 : ... .. . ... ... ... : ... .. . ... ... ... : ... .. . ... : ... .. . ... : ... .. . ... ...
ROW 04 : ... .. . ... ... ... : ... .. . ... ... ... : ... .. . ... : ... .. . ... : ... .. . ... ...
ROW 05 : ... .. . ... ... ... : ... .. . ... ... ... : ... .. . ... : ... .. . ... : ... .. . ... ...
ROW 06 : ... .. . ... ... ... : ... .. . ... ... ... : ... .. . ... : ... .. . ... : ... .. . ... ...
ROW 07 : ... .. . ... ... ... : ... .. . ... ... ... : ... .. . ... : ... .. . ... : ... .. . ... ...
ROW 08 : ... .. . ... ... ... : ... .. . ... ... ... : ... .. . ... : ... .. . ... : ... .. . ... ...
ROW 09 : ... .. . ... ... ... : ... .. . ... ... ... : ... .. . ... : ... .. . ... : ... .. . ... ...
ROW 0A : D#4 00 B P81 ... ... : G#4 00 B P80 ... ... : G-3 00 . ... : C-# 00 E ... : ... .. . ... ...
ROW 0B : ... .. A ... ... ... : ... .. A ... ... ... : ... .. . ... : ... .. 0 ... : ... .. . ... ...
ROW 0C : ... .. 9 ... ... ... : ... .. 9 ... ... ... : ... .. . ... : ... .. . ... : ... .. . ... ...
ROW 0D : ... .. 8 ... ... ... : ... .. 8 ... ... ... : ... .. . ... : ... .. . ... : ... .. . ... ...
ROW 0E : ... .. 7 ... ... ... : ... .. 7 ... ... ... : ... .. . ... : ... .. . ... : ... .. . ... ...
ROW 0F : ... .. 6 ... ... ... : ... .. 6 ... ... ... : ... .. . ... : ... .. . ... : ... .. . ... ...
ROW 10 : ... .. 5 ... ... ... : ... .. 5 ... ... ... : G#3 00 . ... : D-# 00 6 ... : ... .. . ... ...
ROW 11 : ... .. 4 ... ... ... : ... .. 4 ... ... ... : ... .. . ... : ... .. . ... : ... .. . ... ...
ROW 12 : ... .. 3 ... ... ... : ... .. 3 ... ... ... : ... .. . ... : ... .. . ... : ... .. . ... ...
ROW 13 : ... .. 2 ... ... ... : ... .. 2 ... ... ... : ... .. . ... : ... .. . ... : ... .. . ... ...
ROW 14 : ... .. 1 ... ... ... : ... .. 1 ... ... ... : ... .. . ... : ... .. . ... : ... .. . ... ...
ROW 15 : ... .. . ... ... ... : ... .. . ... ... ... : ... .. . ... : ... .. 0 ... : ... .. . ... ...
ROW 16 : ... .. . ... ... ... : ... .. . ... ... ... : ... .. . ... : ... .. . ... : ... .. . ... ...
ROW 17 : ... .. . ... ... ... : ... .. . ... ... ... : ... .. . ... : ... .. . ... : ... .. . ... ...
ROW 18 : ... .. . ... ... ... : ... .. . ... ... ... : ... .. . ... : ... .. . ... : ... .. . ... ...
ROW 19 : ... .. . ... ... ... : ... .. . ... ... ... : --- .. . ... : ... .. . ... : ... .. . ... ...
ROW 1A : ... .. . ... ... ... : ... .. . ... ... ... : ... .. . ... : ... .. . ... : ... .. . ... ...
ROW 1B : ... .. . ... ... ... : ... .. . ... ... ... : ... .. . ... : ... .. . ... : ... .. . ... ...
ROW 1C : ... .. . ... ... ... : ... .. . ... ... ... : ... .. . ... : ... .. . ... : ... .. . ... ...
ROW 1D : ... .. . ... ... ... : ... .. . ... ... ... : ... .. . ... : ... .. . ... : ... .. . ... ...
ROW 1E : ... .. . ... ... ... : ... .. . ... ... ... : ... .. . ... : ... .. . ... : ... .. . ... ...
ROW 1F : ... .. . ... ... ... : ... .. . ... ... ... : ... .. . ... : ... .. . ... : ... .. . ... ...
ROW 20 : ... .. . ... ... ... : ... .. . ... ... ... : ... .. . ... : ... .. . ... : ... .. . ... ...
ROW 21 : ... .. . ... ... ... : ... .. . ... ... ... : ... .. . ... : ... .. . ... : ... .. . ... ...
ROW 22 : ... .. . ... ... ... : ... .. . ... ... ... : G-3 00 . ... : C-# 00 E ... : ... .. . ... ...
ROW 23 : ... .. . ... ... ... : ... .. . ... ... ... : ... .. . ... : ... .. 0 ... : ... .. . ... ...
ROW 24 : ... .. . ... ... ... : ... .. . ... ... ... : ... .. . ... : ... .. . ... : ... .. . ... ...
ROW 25 : ... .. . ... ... ... : ... .. . ... ... ... : ... .. . ... : ... .. . ... : ... .. . ... ...
ROW 26 : ... .. . ... ... ... : ... .. . ... ... ... : ... .. . ... : ... .. . ... : ... .. . ... ...
ROW 27 : ... .. . ... ... ... : ... .. . ... ... ... : ... .. . ... : ... .. . ... : ... .. . ... ...
ROW 28 : D#4 00 B P81 ... ... : G#4 00 B P80 ... ... : D#3 00 . ... : D-# 00 6 ... : ... .. . ... ...
ROW 29 : ... .. A ... ... ... : ... .. A ... ... ... : ... .. . ... : ... .. . ... : ... .. . ... ...
ROW 2A : ... .. 9 ... ... ... : ... .. 9 ... ... ... : ... .. . ... : ... .. . ... : ... .. . ... ...
ROW 2B : ... .. 8 ... ... ... : ... .. 8 ... ... ... : ... .. . ... : ... .. . ... : ... .. . ... ...
ROW 2C : ... .. 7 ... ... ... : ... .. 7 ... ... ... : ... .. . ... : ... .. . ... : ... .. . ... ...
ROW 2D : ... .. 6 ... ... ... : ... .. 6 ... ... ... : ... .. . ... : ... .. 0 ... : ... .. . ... ...
ROW 2E : ... .. 1 ... ... ... : ... .. 1 ... ... ... : ... .. . ... : ... .. . ... : ... .. . ... ...
ROW 2F : ... .. . ... ... ... : ... .. . ... ... ... : ... .. . ... : ... .. . ... : ... .. . ... ...
ROW 30 : ... .. . ... ... ... : ... .. . ... ... ... : ... .. . ... : ... .. . ... : ... .. . ... ...
ROW 31 : ... .. . ... ... ... : ... .. . ... ... ... : --- .. . ... : ... .. . ... : ... .. . ... ...
ROW 32 : ... .. . ... ... ... : ... .. . ... ... ... : ... .. . ... : ... .. . ... : ... .. . ... ...
ROW 33 : ... .. . ... ... ... : ... .. . ... ... ... : ... .. . ... : ... .. . ... : ... .. . ... ...
ROW 34 : C-4 00 B P81 ... ... : G-4 00 B P81 ... ... : ... .. . ... : ... .. . ... : ... .. . ... ...
ROW 35 : ... .. A ... ... ... : ... .. A ... ... ... : ... .. . ... : ... .. . ... : ... .. . ... ...
ROW 36 : ... .. 9 ... ... ... : ... .. 9 ... ... ... : ... .. . ... : ... .. . ... : ... .. . ... ...
ROW 37 : ... .. 8 ... ... ... : ... .. 8 ... ... ... : ... .. . ... : ... .. . ... : ... .. . ... ...
ROW 38 : ... .. 7 ... ... ... : ... .. 7 ... ... ... : ... .. . ... : ... .. . ... : ... .. . ... ...
ROW 39 : ... .. 6 ... ... ... : ... .. 6 ... ... ... : ... .. . ... : ... .. . ... : ... .. . ... ...
ROW 3A : G#3 00 B P80 ... ... : D#4 00 B P81 ... ... : C-3 00 . ... : C-# 00 E ... : ... .. . ... ...
ROW 3B : ... .. A ... ... ... : ... .. A ... ... ... : ... .. . ... : ... .. 0 ... : ... .. . ... ...
ROW 3C : ... .. 9 ... ... ... : ... .. 9 ... ... ... : ... .. . ... : ... .. . ... : ... .. . ... ...
ROW 3D : ... .. 8 ... ... ... : ... .. 8 ... ... ... : ... .. . ... : ... .. . ... : ... .. . ... ...
ROW 3E : ... .. 7 ... ... ... : ... .. 7 ... ... ... : ... .. . ... : ... .. . ... : ... .. . ... ...
ROW 3F : ... .. 6 ... ... ... : ... .. 6 ... ... ... : ... .. . ... : ... .. . ... : ... .. . ... ...
ROW 40 : F#3 00 B P80 ... ... : C#4 00 B P80 ... ... : C#3 00 . ... : D-# 00 6 ... : ... .. . ... ...
ROW 41 : ... .. A ... ... ... : ... .. A ... ... ... : ... .. . ... : ... .. . ... : ... .. . ... ...
ROW 42 : ... .. 9 ... ... ... : ... .. 9 ... ... ... : ... .. . ... : ... .. . ... : ... .. . ... ...
ROW 43 : ... .. 8 ... ... ... : ... .. 8 ... ... ... : ... .. . ... : ... .. . ... : ... .. . ... ...
ROW 44 : ... .. 7 ... ... ... : ... .. 7 ... ... ... : ... .. . ... : ... .. . ... : ... .. . ... ...
ROW 45 : ... .. 6 ... ... ... : ... .. 6 ... ... ... : ... .. . ... : ... .. 0 ... : ... .. . ... ...
ROW 46 : ... .. 1 ... ... ... : ... .. 1 ... ... ... : ... .. . ... : ... .. . ... : ... .. . ... ...
ROW 47 : ... .. . ... ... ... : ... .. . ... ... ... : ... .. . ... : ... .. . ... : ... .. . ... ...
ROW 48 : ... .. . ... ... ... : ... .. . ... ... ... : ... .. . ... : ... .. . ... : ... .. . ... ...
ROW 49 : ... .. . ... ... ... : ... .. . ... ... ... : --- .. . ... : ... .. . ... : ... .. . ... ...
ROW 4A : ... .. . ... ... ... : ... .. . ... ... ... : ... .. . ... : ... .. . ... : ... .. . ... ...
ROW 4B : ... .. . ... ... ... : ... .. . ... ... ... : ... .. . ... : ... .. . ... : ... .. . ... ...
ROW 4C : G-3 00 B P80 ... ... : D#4 00 B P81 ... ... : ... .. . ... : ... .. . ... : ... .. . ... ...
ROW 4D : ... .. A ... ... ... : ... .. A ... ... ... : ... .. . ... : ... .. . ... : ... .. . ... ...
ROW 4E : ... .. 9 ... ... ... : ... .. 9 ... ... ... : ... .. . ... : ... .. . ... : ... .. . ... ...
ROW 4F : ... .. 8 ... ... ... : ... .. 8 ... ... ... : ... .. . ... : ... .. . ... : ... .. . ... ...
ROW 50 : ... .. 7 ... ... ... : ... .. 7 ... ... ... : ... .. . ... : ... .. . ... : ... .. . ... ...
ROW 51 : ... .. 6 ... ... ... : ... .. 6 ... ... ... : ... .. . ... : ... .. . ... : ... .. . ... ...
ROW 52 : F#3 00 B P80 ... ... : C#4 00 B P80 ... ... : D#3 00 . ... : C-# 00 E ... : ... .. . ... ...
ROW 53 : ... .. A ... ... ... : ... .. A ... ... ... : ... .. . ... : ... .. 0 ... : ... .. . ... ...
ROW 54 : ... .. 9 ... ... ... : ... .. 9 ... ... ... : ... .. . ... : ... .. . ... : ... .. . ... ...
ROW 55 : ... .. 8 ... ... ... : ... .. 8 ... ... ... : ... .. . ... : ... .. . ... : ... .. . ... ...
ROW 56 : ... .. 7 ... ... ... : ... .. 7 ... ... ... : ... .. . ... : ... .. . ... : ... .. . ... ...
ROW 57 : ... .. 6 ... ... ... : ... .. 6 ... ... ... : ... .. . ... : ... .. . ... : ... .. . ... ...
ROW 58 : F#3 00 B P80 ... ... : C#4 00 B P80 ... ... : F#3 00 . ... : D-# 00 6 ... : ... .. . ... ...
ROW 59 : ... .. A ... ... ... : ... .. A ... ... ... : ... .. . ... : ... .. . ... : ... .. . ... ...
ROW 5A : ... .. 9 ... ... ... : ... .. 9 ... ... ... : ... .. . ... : ... .. . ... : ... .. . ... ...
ROW 5B : ... .. 8 ... ... ... : ... .. 8 ... ... ... : ... .. . ... : ... .. . ... : ... .. . ... ...
ROW 5C : ... .. 7 ... ... ... : ... .. 7 ... ... ... : ... .. . ... : ... .. . ... : ... .. . ... ...
ROW 5D : ... .. 6 ... ... ... : ... .. 6 ... ... ... : ... .. . ... : ... .. 0 ... : ... .. . ... ...
ROW 5E : ... .. 1 ... ... ... : ... .. 1 ... ... ... : ... .. . ... : ... .. . ... : ... .. . ... ...
ROW 5F : ... .. . ... ... ... : ... .. . ... ... ... : ... .. . ... : ... .. . ... : ... .. . ... ...
ROW 60 : ... .. . ... ... ... : ... .. . ... ... ... : ... .. . ... : ... .. . ... : ... .. . ... ...
ROW 61 : ... .. . ... ... ... : ... .. . ... ... ... : --- .. . ... : ... .. . ... : ... .. . ... ...
ROW 62 : ... .. . ... ... ... : ... .. . ... ... ... : ... .. . ... : ... .. . ... : ... .. . ... ...
ROW 63 : ... .. . ... ... ... : ... .. . ... ... ... : ... .. . ... : ... .. . ... : ... .. . ... ...
ROW 64 : C#3 00 B P80 ... ... : G#3 00 B P80 ... ... : ... .. . ... : ... .. . ... : ... .. . ... ...
ROW 65 : ... .. A ... ... ... : ... .. A ... ... ... : ... .. . ... : ... .. . ... : ... .. . ... ...
ROW 66 : ... .. 9 ... ... ... : ... .. 9 ... ... ... : ... .. . ... : ... .. . ... : ... .. . ... ...
ROW 67 : ... .. 8 ... ... ... : ... .. 8 ... ... ... : ... .. . ... : ... .. . ... : ... .. . ... ...
ROW 68 : ... .. 7 ... ... ... : ... .. 7 ... ... ... : ... .. . ... : ... .. . ... : ... .. . ... ...
ROW 69 : ... .. 6 ... ... ... : ... .. 6 ... ... ... : ... .. . ... : ... .. . ... : ... .. . ... ...
ROW 6A : ... .. 1 ... ... ... : ... .. 1 ... ... ... : G#2 00 . P7F : C-# 00 E ... : ... .. . ... ...
ROW 6B : ... .. . ... ... ... : ... .. . ... ... ... : ... .. . ... : ... .. 0 ... : ... .. . ... ...
ROW 6C : ... .. . ... ... ... : ... .. . ... ... ... : ... .. . ... : ... .. . ... : ... .. . ... ...
ROW 6D : ... .. . ... ... ... : ... .. . ... ... ... : ... .. . ... : ... .. . ... : ... .. . ... ...
ROW 6E : ... .. . ... ... ... : ... .. . ... ... ... : ... .. . ... : ... .. . ... : ... .. . ... ...
ROW 6F : ... .. . ... ... ... : ... .. . ... ... ... : ... .. . ... : ... .. . ... : ... .. . ... ...
ROW 70 : ... .. 5 ... ... ... : ... .. 5 ... ... ... : C#3 00 . P80 : D-# 00 6 ... : ... .. . ... ...
ROW 71 : ... .. 4 ... ... ... : ... .. 4 ... ... ... : ... .. . ... : ... .. . ... : ... .. . ... ...
ROW 72 : ... .. 3 ... ... ... : ... .. 3 ... ... ... : ... .. . ... : ... .. . ... : ... .. . ... ...
ROW 73 : ... .. 2 ... ... ... : ... .. 2 ... ... ... : ... .. . ... : ... .. . ... : ... .. . ... ...
ROW 74 : ... .. 1 ... ... ... : ... .. 1 ... ... ... : ... .. . ... : ... .. . ... : ... .. . ... ...
ROW 75 : ... .. . ... ... ... : ... .. . ... ... ... : ... .. . ... : ... .. 0 ... : ... .. . ... ...
ROW 76 : ... .. . ... ... ... : ... .. . ... ... ... : --- .. . ... : ... .. . ... : ... .. . ... ...
ROW 77 : ... .. . ... ... ... : ... .. . ... ... ... : ... .. . ... : ... .. . ... : ... .. . ... ...
ROW 78 : ... .. . ... ... ... : ... .. . ... ... ... : ... .. . ... : ... .. . ... : ... .. . ... ...
ROW 79 : ... .. . ... ... ... : ... .. . ... ... ... : ... .. . ... : ... .. . ... : ... .. . ... ...
ROW 7A : ... .. . ... ... ... : ... .. . ... ... ... : ... .. . ... : ... .. . ... : ... .. . ... ...
ROW 7B : ... .. . ... ... ... : ... .. . ... ... ... : ... .. . ... : ... .. . ... : ... .. . ... ...
ROW 7C : C#3 00 B P80 ... ... : G#3 00 B P80 ... ... : D#3 00 . ... : ... .. . ... : ... .. . ... ...
ROW 7D : ... .. A ... ... ... : ... .. A ... ... ... : ... .. . ... : ... .. . ... : ... .. . ... ...
ROW 7E : ... .. 9 ... ... ... : ... .. 9 ... ... ... : ... .. . ... : ... .. . ... : ... .. . ... ...
ROW 7F : ... .. 8 ... ... ... : ... .. 8 ... ... ... : ... .. . ... : ... .. . ... : ... .. . ... ...
ROW 80 : F#3 00 B P80 ... ... : C#4 00 B P80 ... ... : ... .. . ... : ... .. . ... : ... .. . ... ...
ROW 81 : ... .. A ... ... ... : ... .. A ... ... ... : ... .. . ... : ... .. . ... : ... .. . ... ...
ROW 82 : ... .. 9 ... ... ... : ... .. 9 ... ... ... : C-3 00 . ... : C-# 00 E ... : ... .. . ... ...
ROW 83 : ... .. 8 ... ... ... : ... .. 8 ... ... ... : ... .. . ... : ... .. 0 ... : ... .. . ... ...
ROW 84 : C#3 00 B P80 ... ... : G#3 00 B P80 ... ... : ... .. . ... : ... .. . ... : ... .. . ... ...
ROW 85 : ... .. A ... ... ... : ... .. A ... ... ... : ... .. . ... : ... .. . ... : ... .. . ... ...
ROW 86 : ... .. 9 ... ... ... : ... .. 9 ... ... ... : ... .. . ... : ... .. . ... : ... .. . ... ...
ROW 87 : ... .. 8 ... ... ... : ... .. 8 ... ... ... : ... .. . ... : ... .. . ... : ... .. . ... ...
ROW 88 : F#3 00 B P80 ... ... : G#3 00 B P80 ... ... : B-2 00 . ... : D-# 00 6 ... : ... .. . ... ...
ROW 89 : ... .. A ... ... ... : ... .. A ... ... ... : ... .. . ... : ... .. . ... : ... .. . ... ...
ROW 8A : ... .. 9 ... ... ... : ... .. 9 ... ... ... : ... .. . ... : ... .. . ... : ... .. . ... ...
ROW 8B : ... .. 8 ... ... ... : ... .. 8 ... ... ... : ... .. . ... : ... .. . ... : ... .. . ... ...
ROW 8C : C#3 00 B P80 ... ... : C#4 00 B P80 ... ... : ... .. . ... : ... .. . ... : ... .. . ... ...
ROW 8D : ... .. A ... ... ... : ... .. A ... ... ... : ... .. . ... : ... .. 0 ... : ... .. . ... ...
ROW 8E : ... .. 9 ... ... ... : ... .. 9 ... ... ... : ... .. . ... : ... .. . ... : ... .. . ... ...
ROW 8F : ... .. 8 ... ... ... : ... .. 8 ... ... ... : ... .. . ... : ... .. . ... : ... .. . ... ...
ROW 90 : F#3 00 B P80 ... ... : G#3 00 B P80 ... ... : ... .. . ... : ... .. . ... : ... .. . ... ...
ROW 91 : ... .. A ... ... ... : ... .. A ... ... ... : --- .. . ... : ... .. . ... : ... .. . ... ...
ROW 92 : ... .. 9 ... ... ... : ... .. 9 ... ... ... : ... .. . ... : ... .. . ... : ... .. . ... ...
ROW 93 : ... .. 8 ... ... ... : ... .. 8 ... ... ... : ... .. . ... : ... .. . ... : ... .. . ... ...
ROW 94 : C#3 00 B P80 ... ... : C#4 00 B P80 ... ... : ... .. . ... : ... .. . ... : ... .. . ... ...
ROW 95 : ... .. A ... ... ... : ... .. A ... ... ... : ... .. . ... : ... .. . ... : ... .. . ... ...
ROW 96 : ... .. 9 ... ... ... : ... .. 9 ... ... ... : ... .. . ... : ... .. . ... : ... .. . ... ...
ROW 97 : ... .. 8 ... ... ... : ... .. 8 ... ... ... : ... .. . ... : ... .. . ... : ... .. . ... ...
ROW 98 : F#3 00 B P80 ... ... : G#3 00 B P80 ... ... : ... .. . ... : ... .. . ... : ... .. . ... ...
ROW 99 : ... .. A ... ... ... : ... .. A ... ... ... : ... .. . ... : ... .. . ... : ... .. . ... ...
ROW 9A : ... .. 9 ... ... ... : ... .. 9 ... ... ... : G#2 00 . P7F : C-# 00 E ... : ... .. . ... ...
ROW 9B : ... .. 8 ... ... ... : ... .. 8 ... ... ... : ... .. . ... : ... .. 0 ... : ... .. . ... ...
ROW 9C : C#3 00 B P80 ... ... : C#4 00 B P80 ... ... : ... .. . ... : ... .. . ... : ... .. . ... ...
ROW 9D : ... .. A ... ... ... : ... .. A ... ... ... : ... .. . ... : ... .. . ... : ... .. . ... ...
ROW 9E : ... .. 9 ... ... ... : ... .. 9 ... ... ... : ... .. . ... : ... .. . ... : ... .. . ... ...
ROW 9F : ... .. 8 ... ... ... : ... .. 8 ... ... ... : ... .. . ... : ... .. . ... : ... .. . ... ...
ROW A0 : ... .. 5 ... ... ... : ... .. 5 ... ... ... : G-2 00 . P80 : D-# 00 6 ... : ... .. . ... ...
ROW A1 : ... .. 4 ... ... ... : ... .. 4 ... ... ... : ... .. . ... : ... .. . ... : ... .. . ... ...
ROW A2 : ... .. 3 ... ... ... : ... .. 3 ... ... ... : ... .. . ... : ... .. . ... : ... .. . ... ...
ROW A3 : ... .. 2 ... ... ... : ... .. 2 ... ... ... : ... .. . ... : ... .. . ... : ... .. . ... ...
ROW A4 : ... .. 1 ... ... ... : ... .. 1 ... ... ... : ... .. . ... : ... .. . ... : ... .. . ... ...
ROW A5 : ... .. . ... ... ... : ... .. . ... ... ... : ... .. . ... : ... .. 0 ... : ... .. . ... ...
ROW A6 : ... .. . ... ... ... : ... .. . ... ... ... : ... .. . ... : ... .. . ... : ... .. . ... ...
ROW A7 : ... .. . ... ... ... : ... .. . ... ... ... : ... .. . ... : ... .. . ... : ... .. . ... ...
ROW A8 : ... .. . ... ... ... : ... .. . ... ... ... : ... .. . ... : ... .. . ... : ... .. . ... ...
ROW A9 : ... .. . ... ... ... : ... .. . ... ... ... : --- .. . ... : ... .. . ... : ... .. . ... ...
ROW AA : ... .. . ... ... ... : ... .. . ... ... ... : ... .. . ... : ... .. . ... : ... .. . ... ...
ROW AB : ... .. . ... ... ... : ... .. . ... ... ... : ... .. . ... : ... .. . ... : ... .. . ... ...
ROW AC : G-3 00 B P80 ... ... : D#4 00 B P81 ... ... : ... .. . ... : ... .. . ... : ... .. . ... ...
ROW AD : ... .. A ... ... ... : ... .. A ... ... ... : ... .. . ... : ... .. . ... : ... .. . ... ...
ROW AE : ... .. 9 ... ... ... : ... .. 9 ... ... ... : ... .. . ... : ... .. . ... : ... .. . ... ...
ROW AF : ... .. 8 ... ... ... : ... .. 8 ... ... ... : ... .. . ... : ... .. . ... : ... .. . ... ...
ROW B0 : ... .. 7 ... ... ... : ... .. 7 ... ... ... : ... .. . ... : ... .. . ... : ... .. . ... ...
ROW B1 : ... .. 6 ... ... ... : ... .. 6 ... ... ... : ... .. . ... : ... .. . ... : ... .. . ... ...
ROW B2 : F-3 00 B P80 ... ... : C#4 00 B P80 ... ... : G-3 00 . ... : C-# 00 E ... : ... .. . ... ...
ROW B3 : ... .. A ... ... ... : ... .. A ... ... ... : ... .. . ... : ... .. 0 ... : ... .. . ... ...
ROW B4 : ... .. 9 ... ... ... : ... .. 9 ... ... ... : ... .. . ... : ... .. . ... : ... .. . ... ...
ROW B5 : ... .. 8 ... ... ... : ... .. 8 ... ... ... : ... .. . ... : ... .. . ... : ... .. . ... ...
ROW B6 : ... .. 7 ... ... ... : ... .. 7 ... ... ... : ... .. . ... : ... .. . ... : ... .. . ... ...
ROW B7 : ... .. 6 ... ... ... : ... .. 6 ... ... ... : ... .. . ... : ... .. . ... : ... .. . ... ...
ROW B8 : F-3 00 B P80 ... ... : C#4 00 B P80 ... ... : F-3 00 . ... : D-# 00 6 ... : ... .. . ... ...
ROW B9 : ... .. A ... ... ... : ... .. A ... ... ... : ... .. . ... : ... .. . ... : ... .. . ... ...
ROW BA : ... .. 9 ... ... ... : ... .. 9 ... ... ... : ... .. . ... : ... .. . ... : ... .. . ... ...
ROW BB : ... .. 8 ... ... ... : ... .. 8 ... ... ... : ... .. . ... : ... .. . ... : ... .. . ... ...
ROW BC : ... .. 7 ... ... ... : ... .. 7 ... ... ... : ... .. . ... : ... .. . ... : ... .. . ... ...
ROW BD : ... .. 6 ... ... ... : ... .. 6 ... ... ... : ... .. . ... : ... .. 0 ... : ... .. . ... ...
ROW BE : ... .. 1 ... ... ... : ... .. 1 ... ... ... : ... .. . ... : ... .. . ... : ... .. . ... ...
ROW BF : ... .. . ... ... ... : ... .. . ... ... ... : ... .. . ... : ... .. . ... : ... .. . ... ...
ROW C0 : ... .. . ... ... ... : ... .. . ... ... ... : ... .. . ... : ... .. . ... : ... .. . ... ...
ROW C1 : ... .. . ... ... ... : ... .. . ... ... ... : --- .. . ... : ... .. . ... : ... .. . ... ...
ROW C2 : ... .. . ... ... ... : ... .. . ... ... ... : ... .. . ... : ... .. . ... : ... .. . ... ...
ROW C3 : ... .. . ... ... ... : ... .. . ... ... ... : ... .. . ... : ... .. . ... : ... .. . ... ...
ROW C4 : G-3 00 B P80 ... ... : D#4 00 B P81 ... ... : ... .. . ... : ... .. . ... : ... .. . ... ...
ROW C5 : ... .. A ... ... ... : ... .. A ... ... ... : ... .. . ... : ... .. . ... : ... .. . ... ...
ROW C6 : ... .. 9 ... ... ... : ... .. 9 ... ... ... : ... .. . ... : ... .. . ... : ... .. . ... ...
ROW C7 : ... .. 8 ... ... ... : ... .. 8 ... ... ... : ... .. . ... : ... .. . ... : ... .. . ... ...
ROW C8 : ... .. 7 ... ... ... : ... .. 7 ... ... ... : ... .. . ... : ... .. . ... : ... .. . ... ...
ROW C9 : ... .. 6 ... ... ... : ... .. 6 ... ... ... : ... .. . ... : ... .. . ... : ... .. . ... ...
ROW CA : ... .. 1 ... ... ... : ... .. 1 ... ... ... : C#3 00 . ... : C-# 00 E ... : ... .. . ... ...
ROW CB : ... .. . ... ... ... : ... .. . ... ... ... : ... .. . ... : ... .. 0 ... : ... .. . ... ...
ROW CC : ... .. . ... ... ... : ... .. . ... ... ... : ... .. . ... : ... .. . ... : ... .. . ... ...
ROW CD : ... .. . ... ... ... : ... .. . ... ... ... : ... .. . ... : ... .. . ... : ... .. . ... ...
ROW CE : ... .. . ... ... ... : ... .. . ... ... ... : ... .. . ... : ... .. . ... : ... .. . ... ...
ROW CF : ... .. . ... ... ... : ... .. . ... ... ... : ... .. . ... : ... .. . ... : ... .. . ... ...
ROW D0 : ... .. 5 ... ... ... : ... .. 5 ... ... ... : B-2 00 . ... : D-# 00 6 ... : ... .. . ... ...
ROW D1 : ... .. 4 ... ... ... : ... .. 4 ... ... ... : ... .. . ... : ... .. . ... : ... .. . ... ...
ROW D2 : ... .. 3 ... ... ... : ... .. 3 ... ... ... : ... .. . ... : ... .. . ... : ... .. . ... ...
ROW D3 : ... .. 2 ... ... ... : ... .. 2 ... ... ... : ... .. . ... : ... .. . ... : ... .. . ... ...
ROW D4 : ... .. 1 ... ... ... : ... .. 1 ... ... ... : ... .. . ... : ... .. . ... : ... .. . ... ...
ROW D5 : ... .. . ... ... ... : ... .. . ... ... ... : ... .. . ... : ... .. 0 ... : ... .. . ... ...
ROW D6 : ... .. . ... ... ... : ... .. . ... ... ... : ... .. . ... : ... .. . ... : ... .. . ... ...
ROW D7 : ... .. . ... ... ... : ... .. . ... ... ... : ... .. . ... : ... .. . ... : ... .. . ... ...
ROW D8 : ... .. . ... ... ... : ... .. . ... ... ... : ... .. . ... : ... .. . ... : ... .. . ... ...
ROW D9 : ... .. . ... ... ... : ... .. . ... ... ... : --- .. . ... : ... .. . ... : ... .. . ... ...
ROW DA : ... .. . ... ... ... : ... .. . ... ... ... : ... .. . ... : ... .. . ... : ... .. . ... ...
ROW DB : ... .. . ... ... ... : ... .. . ... ... ... : ... .. . ... : ... .. . ... : ... .. . ... ...
ROW DC : B-3 00 B P80 ... ... : G-4 00 B P81 ... ... : ... .. . ... : ... .. . ... : ... .. . ... ...
ROW DD : ... .. A ... ... ... : ... .. A ... ... ... : ... .. . ... : ... .. . ... : ... .. . ... ...
ROW DE : ... .. 9 ... ... ... : ... .. 9 ... ... ... : ... .. . ... : ... .. . ... : ... .. . ... ...
ROW DF : ... .. 8 ... ... ... : ... .. 8 ... ... ... : ... .. . ... : ... .. . ... : ... .. . ... ...
ROW E0 : ... .. 7 ... ... ... : ... .. 7 ... ... ... : ... .. . ... : ... .. . ... : ... .. . ... ...
ROW E1 : ... .. 6 ... ... ... : ... .. 6 ... ... ... : ... .. . ... : ... .. . ... : ... .. . ... ...
ROW E2 : C-4 00 B P81 ... ... : G#4 00 B P80 ... ... : G-2 00 . ... : C-# 00 E ... : ... .. . ... ...
ROW E3 : ... .. A ... ... ... : ... .. A ... ... ... : ... .. . ... : ... .. 0 ... : ... .. . ... ...
ROW E4 : ... .. 9 ... ... ... : ... .. 9 ... ... ... : ... .. . ... : ... .. . ... : ... .. . ... ...
ROW E5 : ... .. 8 ... ... ... : ... .. 8 ... ... ... : ... .. . ... : ... .. . ... : ... .. . ... ...
ROW E6 : ... .. 7 ... ... ... : ... .. 7 ... ... ... : ... .. . ... : ... .. . ... : ... .. . ... ...
ROW E7 : ... .. 6 ... ... ... : ... .. 6 ... ... ... : ... .. . ... : ... .. . ... : ... .. . ... ...
ROW E8 : G-3 00 B P80 ... ... : D#4 00 B P81 ... ... : G#2 00 . P7F : D-# 00 6 ... : ... .. . ... ...
ROW E9 : ... .. A ... ... ... : ... .. A ... ... ... : ... .. . ... : ... .. . ... : ... .. . ... ...
ROW EA : ... .. 9 ... ... ... : ... .. 9 ... ... ... : ... .. . ... : ... .. . ... : ... .. . ... ...
ROW EB : ... .. 8 ... ... ... : ... .. 8 ... ... ... : ... .. . ... : ... .. . ... : ... .. . ... ...
ROW EC : ... .. 7 ... ... ... : ... .. 7 ... ... ... : ... .. . ... : ... .. . ... : ... .. . ... ...
ROW ED : ... .. 6 ... ... ... : ... .. 6 ... ... ... : ... .. . ... : ... .. 0 ... : ... .. . ... ...
ROW EE : ... .. 1 ... ... ... : ... .. 1 ... ... ... : ... .. . ... : ... .. . ... : ... .. . ... ...
ROW EF : ... .. . ... ... ... : ... .. . ... ... ... : ... .. . ... : ... .. . ... : ... .. . ... ...
ROW F0 : ... .. . ... ... ... : ... .. . ... ... ... : ... .. . ... : ... .. . ... : ... .. . ... ...
ROW F1 : ... .. . ... ... ... : ... .. . ... ... ... : --- .. . ... : ... .. . ... : ... .. . ... ...
ROW F2 : ... .. . ... ... ... : ... .. . ... ... ... : ... .. . ... : ... .. . ... : ... .. . ... ...
ROW F3 : ... .. . ... ... ... : ... .. . ... ... ... : ... .. . ... : ... .. . ... : ... .. . ... ...
ROW F4 : F-3 00 B P80 ... ... : C#4 00 B P80 ... ... : ... .. . ... : ... .. . ... : ... .. . ... ...
ROW F5 : ... .. A ... ... ... : ... .. A ... ... ... : ... .. . ... : ... .. . ... : ... .. . ... ...
ROW F6 : ... .. 9 ... ... ... : ... .. 9 ... ... ... : ... .. . ... : ... .. . ... : ... .. . ... ...
ROW F7 : ... .. 8 ... ... ... : ... .. 8 ... ... ... : ... .. . ... : ... .. . ... : ... .. . ... ...
ROW F8 : ... .. 7 ... ... ... : ... .. 7 ... ... ... : ... .. . ... : ... .. . ... : ... .. . ... ...
ROW F9 : ... .. 6 ... ... ... : ... .. 6 ... ... ... : ... .. . ... : ... .. . ... : ... .. . ... ...
ROW FA : D#3 00 B P80 ... ... : C-4 00 B P81 ... ... : B-2 00 . P80 : C-# 00 E ... : ... .. . ... ...
ROW FB : ... .. A ... ... ... : ... .. A ... ... ... : ... .. . ... : ... .. 0 ... : ... .. . ... ...
ROW FC : ... .. 9 ... ... ... : ... .. 9 ... ... ... : ... .. . ... : ... .. . ... : ... .. . ... ...
ROW FD : ... .. 8 ... ... ... : ... .. 8 ... ... ... : ... .. . ... : ... .. . ... : ... .. . ... ...
ROW FE : ... .. 7 ... ... ... : ... .. 7 ... ... ... : ... .. . ... : ... .. . ... : ... .. . ... ...
ROW FF : ... .. 6 ... ... ... : ... .. 6 ... ... ... : ... .. . ... : ... .. . ... : ... .. . ... ...

PATTERN 03
ROW 00 : ... .. 5 ... ... ... : ... .. 5 ... ... ... : C-3 00 . ... : D-# 00 6 ... : ... .. . ... ...
ROW 01 : ... .. 4 ... ... ... : ... .. 4 ... ... ... : ... .. . ... : ... .. . ... : ... .. . ... ...
ROW 02 : ... .. 3 ... ... ... : ... .. 3 ... ... ... : ... .. . ... : ... .. . ... : ... .. . ... ...
ROW 03 : ... .. 2 ... ... ... : ... .. 2 ... ... ... : ... .. . ... : ... .. . ... : ... .. . ... ...
ROW 04 : ... .. 1 ... ... ... : ... .. 1 ... ... ... : ... .. . ... : ... .. . ... : ... .. . ... ...
ROW 05 : ... .. . ... ... ... : ... .. . ... ... ... : ... .. . ... : ... .. 0 ... : ... .. . ... ...
ROW 06 : ... .. . ... ... ... : ... .. . ... ... ... : ... .. . ... : ... .. . ... : ... .. . ... ...
ROW 07 : ... .. . ... ... ... : ... .. . ... ... ... : ... .. . ... : ... .. . ... : ... .. . ... ...
ROW 08 : ... .. . ... ... ... : ... .. . ... ... ... : ... .. . ... : ... .. . ... : ... .. . ... ...
ROW 09 : ... .. . ... ... ... : ... .. . ... ... ... : --- .. . ... : ... .. . ... : ... .. . ... ...
ROW 0A : ... .. . ... ... ... : ... .. . ... ... ... : ... .. . ... : ... .. . ... : ... .. . ... ...
ROW 0B : ... .. . ... ... ... : ... .. . ... ... ... : ... .. . ... : ... .. . ... : ... .. . ... ...
ROW 0C : D#3 00 B P80 ... ... : G-3 00 B P80 ... ... : ... .. . ... : ... .. . ... : ... .. . ... ...
ROW 0D : ... .. A ... ... ... : ... .. A ... ... ... : ... .. . ... : ... .. . ... : ... .. . ... ...
ROW 0E : ... .. 9 ... ... ... : ... .. 9 ... ... ... : ... .. . ... : ... .. . ... : ... .. . ... ...
ROW 0F : ... .. 8 ... ... ... : ... .. 8 ... ... ... : ... .. . ... : ... .. . ... : ... .. . ... ...
ROW 10 : C-4 00 B P81 ... ... : D#4 00 B P81 ... ... : ... .. . ... : ... .. . ... : ... .. . ... ...
ROW 11 : ... .. A ... ... ... : ... .. A ... ... ... : ... .. . ... : ... .. . ... : ... .. . ... ...
ROW 12 : ... .. 9 ... ... ... : ... .. 9 ... ... ... : C#3 00 . ... : C-# 00 E ... : ... .. . ... ...
ROW 13 : ... .. 8 ... ... ... : ... .. 8 ... ... ... : ... .. . ... : ... .. 0 ... : ... .. . ... ...
ROW 14 : D#3 00 B P80 ... ... : G-3 00 B P80 ... ... : ... .. . ... : ... .. . ... : ... .. . ... ...
ROW 15 : ... .. A ... ... ... : ... .. A ... ... ... : ... .. . ... : ... .. . ... : ... .. . ... ...
ROW 16 : ... .. 9 ... ... ... : ... .. 9 ... ... ... : ... .. . ... : ... .. . ... : ... .. . ... ...
ROW 17 : ... .. 8 ... ... ... : ... .. 8 ... ... ... : ... .. . ... : ... .. . ... : ... .. . ... ...
ROW 18 : D#3 00 B P80 ... ... : G-3 00 B P80 ... ... : C#3 00 . ... : D-# 00 6 ... : ... .. . ... ...
ROW 19 : ... .. A ... ... ... : ... .. A ... ... ... : ... .. . ... : ... .. . ... : ... .. . ... ...
ROW 1A : ... .. 9 ... ... ... : ... .. 9 ... ... ... : ... .. . ... : ... .. . ... : ... .. . ... ...
ROW 1B : ... .. 8 ... ... ... : ... .. 8 ... ... ... : ... .. . ... : ... .. . ... : ... .. . ... ...
ROW 1C : C-4 00 B P81 ... ... : D#4 00 B P81 ... ... : ... .. . ... : ... .. . ... : ... .. . ... ...
ROW 1D : ... .. A ... ... ... : ... .. A ... ... ... : ... .. . ... : ... .. 0 ... : ... .. . ... ...
ROW 1E : ... .. 9 ... ... ... : ... .. 9 ... ... ... : ... .. . ... : ... .. . ... : ... .. . ... ...
ROW 1F : ... .. 8 ... ... ... : ... .. 8 ... ... ... : ... .. . ... : ... .. . ... : ... .. . ... ...
ROW 20 : D#3 00 B P80 ... ... : G-3 00 B P80 ... ... : ... .. . ... : ... .. . ... : ... .. . ... ...
ROW 21 : ... .. A ... ... ... : ... .. A ... ... ... : --- .. . ... : ... .. . ... : ... .. . ... ...
ROW 22 : ... .. 9 ... ... ... : ... .. 9 ... ... ... : ... .. . ... : ... .. . ... : ... .. . ... ...
ROW 23 : ... .. 8 ... ... ... : ... .. 8 ... ... ... : ... .. . ... : ... .. . ... : ... .. . ... ...
ROW 24 : C-4 00 B P81 ... ... : D#4 00 B P81 ... ... : ... .. . ... : ... .. . ... : ... .. . ... ...
ROW 25 : ... .. A ... ... ... : ... .. A ... ... ... : ... .. . ... : ... .. . ... : ... .. . ... ...
ROW 26 : ... .. 9 ... ... ... : ... .. 9 ... ... ... : ... .. . ... : ... .. . ... : ... .. . ... ...
ROW 27 : ... .. 8 ... ... ... : ... .. 8 ... ... ... : ... .. . ... : ... .. . ... : ... .. . ... ...
ROW 28 : D#3 00 B P80 ... ... : G-3 00 B P80 ... ... : ... .. . ... : ... .. . ... : ... .. . ... ...
ROW 29 : ... .. A ... ... ... : ... .. A ... ... ... : ... .. . ... : ... .. . ... : ... .. . ... ...
ROW 2A : ... .. 9 ... ... ... : ... .. 9 ... ... ... : D-3 00 . ... : C-# 00 E ... : ... .. . ... ...
ROW 2B : ... .. 8 ... ... ... : ... .. 8 ... ... ... : ... .. . ... : ... .. 0 ... : ... .. . ... ...
ROW 2C : C-4 00 B P81 ... ... : D#4 00 B P81 ... ... : ... .. . ... : ... .. . ... : ... .. . ... ...
ROW 2D : ... .. A ... ... ... : ... .. A ... ... ... : ... .. . ... : ... .. . ... : ... .. . ... ...
ROW 2E : ... .. 9 ... ... ... : ... .. 9 ... ... ... : ... .. . ... : ... .. . ... : ... .. . ... ...
ROW 2F : ... .. 8 ... ... ... : ... .. 8 ... ... ... : ... .. . ... : ... .. . ... : ... .. . ... ...
ROW 30 : ... .. . ... ... ... : ... .. . ... ... ... : D#3 00 . ... : D-# 00 6 ... : ... .. . ... ...
ROW 31 : ... .. . ... ... ... : ... .. . ... ... ... : ... .. . ... : ... .. . ... : ... .. . ... ...
ROW 32 : ... .. . ... ... ... : ... .. . ... ... ... : ... .. . ... : ... .. . ... : ... .. . ... ...
ROW 33 : ... .. . ... ... ... : ... .. . ... ... ... : ... .. . ... : ... .. . ... : ... .. . ... ...
ROW 34 : ... .. . ... ... ... : ... .. . ... ... ... : ... .. . ... : ... .. . ... : ... .. . ... ...
ROW 35 : ... .. . ... ... ... : ... .. . ... ... ... : ... .. . ... : ... .. 0 ... : ... .. . ... ...
ROW 36 : ... .. . ... ... ... : ... .. . ... ... ... : --- .. . ... : ... .. . ... : ... .. . ... ...
ROW 37 : ... .. . ... ... ... : ... .. . ... ... ... : ... .. . ... : ... .. . ... : ... .. . ... ...
ROW 38 : ... .. . ... ... ... : ... .. . ... ... ... : ... .. . ... : ... .. . ... : ... .. . ... ...
ROW 39 : ... .. . ... ... ... : ... .. . ... ... ... : ... .. . ... : ... .. . ... : ... .. . ... ...
ROW 3A : ... .. . ... ... ... : ... .. . ... ... ... : ... .. . ... : ... .. . ... : ... .. . ... ...
ROW 3B : ... .. . ... ... ... : ... .. . ... ... ... : ... .. . ... : ... .. . ... : ... .. . ... ...
ROW 3C : B-3 00 5 P80 ... ... : G-4 00 5 P81 ... ... : B-2 00 . ... : ... .. . ... : ... .. . ... ...
ROW 3D : ... .. . ... ... ... : ... .. . ... ... ... : ... .. . ... : ... .. . ... : ... .. . ... ...
ROW 3E : ... .. 6 ... ... ... : ... .. 6 ... ... ... : ... .. . ... : ... .. . ... : ... .. . ... ...
ROW 3F : ... .. 8 ... ... ... : ... .. 8 ... ... ... : ... .. . ... : ... .. . ... : ... .. . ... ...
ROW 40 : ... .. 9 ... ... ... : ... .. 9 ... ... ... : ... .. . ... : ... .. . ... : ... .. . ... ...
ROW 41 : ... .. A ... ... ... : ... .. A ... ... ... : ... .. . ... : ... .. . ... : ... .. . ... ...
ROW 42 : ... .. 1 ... ... ... : ... .. 1 ... ... ... : G#2 00 . P7F : C-# 00 E ... : ... .. . ... ...
ROW 43 : ... .. . ... ... ... : ... .. . ... ... ... : ... .. . ... : ... .. 0 ... : ... .. . ... ...
ROW 44 : ... .. . ... ... ... : ... .. . ... ... ... : ... .. . ... : ... .. . ... : ... .. . ... ...
ROW 45 : ... .. . ... ... ... : ... .. . ... ... ... : ... .. . ... : ... .. . ... : ... .. . ... ...
ROW 46 : ... .. . ... ... ... : ... .. . ... ... ... : ... .. . ... : ... .. . ... : ... .. . ... ...
ROW 47 : ... .. . ... ... ... : ... .. . ... ... ... : ... .. . ... : ... .. . ... : ... .. . ... ...
ROW 48 : G-3 00 5 P80 ... ... : B-3 00 5 P80 ... ... : G-2 00 . P80 : D-# 00 6 ... : ... .. . ... ...
ROW 49 : ... .. . ... ... ... : ... .. . ... ... ... : ... .. . ... : ... .. . ... : ... .. . ... ...
ROW 4A : ... .. 6 ... ... ... : ... .. 6 ... ... ... : ... .. . ... : ... .. . ... : ... .. . ... ...
ROW 4B : ... .. 8 ... ... ... : ... .. 8 ... ... ... : ... .. . ... : ... .. . ... : ... .. . ... ...
ROW 4C : ... .. 9 ... ... ... : ... .. 9 ... ... ... : ... .. . ... : ... .. . ... : ... .. . ... ...
ROW 4D : ... .. A ... ... ... : ... .. A ... ... ... : ... .. . ... : ... .. 0 ... : ... .. . ... ...
ROW 4E : ... .. 1 ... ... ... : ... .. 1 ... ... ... : ... .. . ... : ... .. . ... : ... .. . ... ...
ROW 4F : ... .. . ... ... ... : ... .. . ... ... ... : ... .. . ... : ... .. . ... : ... .. . ... ...
ROW 50 : ... .. . ... ... ... : ... .. . ... ... ... : ... .. . ... : ... .. . ... : ... .. . ... ...
ROW 51 : ... .. . ... ... ... : ... .. . ... ... ... : --- .. . ... : ... .. . ... : ... .. . ... ...
ROW 52 : ... .. . ... ... ... : ... .. . ... ... ... : ... .. . ... : ... .. . ... : ... .. . ... ...
ROW 53 : ... .. . ... ... ... : ... .. . ... ... ... : ... .. . ... : ... .. . ... : ... .. . ... ...
ROW 54 : F-3 00 5 P80 ... ... : G#3 00 5 P80 ... ... : ... .. . ... : ... .. . ... : ... .. . ... ...
ROW 55 : ... .. . ... ... ... : ... .. . ... ... ... : ... .. . ... : ... .. . ... : ... .. . ... ...
ROW 56 : ... .. 6 ... ... ... : ... .. 6 ... ... ... : ... .. . ... : ... .. . ... : ... .. . ... ...
ROW 57 : ... .. 8 ... ... ... : ... .. 8 ... ... ... : ... .. . ... : ... .. . ... : ... .. . ... ...
ROW 58 : ... .. 9 ... ... ... : ... .. 9 ... ... ... : ... .. . ... : ... .. . ... : ... .. . ... ...
ROW 59 : ... .. A ... ... ... : ... .. A ... ... ... : ... .. . ... : ... .. . ... : ... .. . ... ...
ROW 5A : ... .. 1 ... ... ... : ... .. 1 ... ... ... : B-2 00 . ... : C-# 00 E ... : ... .. . ... ...
ROW 5B : ... .. . ... ... ... : ... .. . ... ... ... : ... .. . ... : ... .. 0 ... : ... .. . ... ...
ROW 5C : ... .. . ... ... ... : ... .. . ... ... ... : ... .. . ... : ... .. . ... : ... .. . ... ...
ROW 5D : ... .. . ... ... ... : ... .. . ... ... ... : ... .. . ... : ... .. . ... : ... .. . ... ...
ROW 5E : ... .. . ... ... ... : ... .. . ... ... ... : ... .. . ... : ... .. . ... : ... .. . ... ...
ROW 5F : ... .. . ... ... ... : ... .. . ... ... ... : ... .. . ... : ... .. . ... : ... .. . ... ...
ROW 60 : ... .. . ... ... ... : ... .. . ... ... ... : C-3 00 . ... : D-# 00 6 ... : ... .. . ... ...
ROW 61 : ... .. . ... ... ... : ... .. . ... ... ... : ... .. . ... : ... .. . ... : ... .. . ... ...
ROW 62 : ... .. . ... ... ... : ... .. . ... ... ... : ... .. . ... : ... .. . ... : ... .. . ... ...
ROW 63 : ... .. . ... ... ... : ... .. . ... ... ... : ... .. . ... : ... .. . ... : ... .. . ... ...
ROW 64 : ... .. . ... ... ... : ... .. . ... ... ... : ... .. . ... : ... .. . ... : ... .. . ... ...
ROW 65 : ... .. . ... ... ... : ... .. . ... ... ... : ... .. . ... : ... .. 0 ... : ... .. . ... ...
ROW 66 : ... .. . ... ... ... : ... .. . ... ... ... : ... .. . ... : ... .. . ... : ... .. . ... ...
ROW 67 : ... .. . ... ... ... : ... .. . ... ... ... : ... .. . ... : ... .. . ... : ... .. . ... ...
ROW 68 : ... .. . ... ... ... : ... .. . ... ... ... : ... .. . ... : ... .. . ... : ... .. . ... ...
ROW 69 : ... .. . ... ... ... : ... .. . ... ... ... : --- .. . ... : ... .. . ... : ... .. . ... ...
ROW 6A : ... .. . ... ... ... : ... .. . ... ... ... : ... .. . ... : ... .. . ... : ... .. . ... ...
ROW 6B : ... .. . ... ... ... : ... .. . ... ... ... : ... .. . ... : ... .. . ... : ... .. . ... ...
ROW 6C : G-3 00 B P80 ... ... : D#4 00 B P81 ... ... : ... .. . ... : ... .. . ... : ... .. . ... ...
ROW 6D : ... .. A ... ... ... : ... .. A ... ... ... : ... .. . ... : ... .. . ... : ... .. . ... ...
ROW 6E : ... .. 9 ... ... ... : ... .. 9 ... ... ... : ... .. . ... : ... .. . ... : ... .. . ... ...
ROW 6F : ... .. 8 ... ... ... : ... .. 8 ... ... ... : ... .. . ... : ... .. . ... : ... .. . ... ...
ROW 70 : ... .. 7 ... ... ... : ... .. 7 ... ... ... : ... .. . ... : ... .. . ... : ... .. . ... ...
ROW 71 : ... .. 6 ... ... ... : ... .. 6 ... ... ... : ... .. . ... : ... .. . ... : ... .. . ... ...
ROW 72 : ... .. 5 ... ... ... : ... .. 5 ... ... ... : C#3 00 . ... : C-# 00 E ... : ... .. . ... ...
ROW 73 : ... .. 4 ... ... ... : ... .. 4 ... ... ... : ... .. . ... : ... .. 0 ... : ... .. . ... ...
ROW 74 : ... .. 3 ... ... ... : ... .. 3 ... ... ... : ... .. . ... : ... .. . ... : ... .. . ... ...
ROW 75 : ... .. 2 ... ... ... : ... .. 2 ... ... ... : ... .. . ... : ... .. . ... : ... .. . ... ...
ROW 76 : ... .. 1 ... ... ... : ... .. 1 ... ... ... : ... .. . ... : ... .. . ... : ... .. . ... ...
ROW 77 : ... .. . ... ... ... : ... .. . ... ... ... : ... .. . ... : ... .. . ... : ... .. . ... ...
ROW 78 : C-4 00 B P81 ... ... : G-4 00 B P81 ... ... : D#3 00 . ... : D-# 00 6 ... : ... .. . ... ...
ROW 79 : ... .. A ... ... ... : ... .. A ... ... ... : ... .. . ... : ... .. . ... : ... .. . ... ...
ROW 7A : ... .. 9 ... ... ... : ... .. 9 ... ... ... : ... .. . ... : ... .. . ... : ... .. . ... ...
ROW 7B : ... .. 8 ... ... ... : ... .. 8 ... ... ... : ... .. . ... : ... .. . ... : ... .. . ... ...
ROW 7C : ... .. 7 ... ... ... : ... .. 7 ... ... ... : ... .. . ... : ... .. . ... : ... .. . ... ...
ROW 7D : ... .. 6 ... ... ... : ... .. 6 ... ... ... : ... .. . ... : ... .. 0 ... : ... .. . ... ...
ROW 7E : ... .. 1 ... ... ... : ... .. 1 ... ... ... : ... .. . ... : ... .. . ... : ... .. . ... ...
ROW 7F : ... .. . ... ... ... : ... .. . ... ... ... : ... .. . ... : ... .. . ... : ... .. . ... ...
ROW 80 : ... .. . ... ... ... : ... .. . ... ... ... : ... .. . ... : ... .. . ... : ... .. . ... ...
ROW 81 : ... .. . ... ... ... : ... .. . ... ... ... : --- .. . ... : ... .. . ... : ... .. . ... ...
ROW 82 : ... .. . ... ... ... : ... .. . ... ... ... : ... .. . ... : ... .. . ... : ... .. . ... ...
ROW 83 : ... .. . ... ... ... : ... .. . ... ... ... : ... .. . ... : ... .. . ... : ... .. . ... ...
ROW 84 : ... .. . ... ... ... : ... .. . ... ... ... : ... .. . ... : ... .. . ... : ... .. . ... ...
ROW 85 : ... .. . ... ... ... : ... .. . ... ... ... : ... .. . ... : ... .. . ... : ... .. . ... ...
ROW 86 : ... .. . ... ... ... : ... .. . ... ... ... : ... .. . ... : ... .. . ... : ... .. . ... ...
ROW 87 : ... .. . ... ... ... : ... .. . ... ... ... : ... .. . ... : ... .. . ... : ... .. . ... ...
ROW 88 : ... .. . ... ... ... : ... .. . ... ... ... : ... .. . ... : ... .. . ... : ... .. . ... ...
ROW 89 : ... .. . ... ... ... : ... .. . ... ... ... : ... .. . ... : ... .. . ... : ... .. . ... ...
ROW 8A : D#4 00 B P81 ... ... : G#4 00 B P80 ... ... : G-3 00 . ... : C-# 00 E ... : ... .. . ... ...
ROW 8B : ... .. A ... ... ... : ... .. A ... ... ... : ... .. . ... : ... .. 0 ... : ... .. . ... ...
ROW 8C : ... .. 9 ... ... ... : ... .. 9 ... ... ... : ... .. . ... : ... .. . ... : ... .. . ... ...
ROW 8D : ... .. 8 ... ... ... : ... .. 8 ... ... ... : ... .. . ... : ... .. . ... : ... .. . ... ...
ROW 8E : ... .. 7 ... ... ... : ... .. 7 ... ... ... : ... .. . ... : ... .. . ... : ... .. . ... ...
ROW 8F : ... .. 6 ... ... ... : ... .. 6 ... ... ... : ... .. . ... : ... .. . ... : ... .. . ... ...
ROW 90 : ... .. 5 ... ... ... : ... .. 5 ... ... ... : G#3 00 . ... : D-# 00 6 ... : ... .. . ... ...
ROW 91 : ... .. 4 ... ... ... : ... .. 4 ... ... ... : ... .. . ... : ... .. . ... : ... .. . ... ...
ROW 92 : ... .. 3 ... ... ... : ... .. 3 ... ... ... : ... .. . ... : ... .. . ... : ... .. . ... ...
ROW 93 : ... .. 2 ... ... ... : ... .. 2 ... ... ... : ... .. . ... : ... .. . ... : ... .. . ... ...
ROW 94 : ... .. 1 ... ... ... : ... .. 1 ... ... ... : ... .. . ... : ... .. . ... : ... .. . ... ...
ROW 95 : ... .. . ... ... ... : ... .. . ... ... ... : ... .. . ... : ... .. 0 ... : ... .. . ... ...
ROW 96 : ... .. . ... ... ... : ... .. . ... ... ... : ... .. . ... : ... .. . ... : ... .. . ... ...
ROW 97 : ... .. . ... ... ... : ... .. . ... ... ... : ... .. . ... : ... .. . ... : ... .. . ... ...
ROW 98 : ... .. . ... ... ... : ... .. . ... ... ... : ... .. . ... : ... .. . ... : ... .. . ... ...
ROW 99 : ... .. . ... ... ... : ... .. . ... ... ... : --- .. . ... : ... .. . ... : ... .. . ... ...
ROW 9A : ... .. . ... ... ... : ... .. . ... ... ... : ... .. . ... : ... .. . ... : ... .. . ... ...
ROW 9B : ... .. . ... ... ... : ... .. . ... ... ... : ... .. . ... : ... .. . ... : ... .. . ... ...
ROW 9C : ... .. . ... ... ... : ... .. . ... ... ... : ... .. . ... : ... .. . ... : ... .. . ... ...
ROW 9D : ... .. . ... ... ... : ... .. . ... ... ... : ... .. . ... : ... .. . ... : ... .. . ... ...
ROW 9E : ... .. . ... ... ... : ... .. . ... ... ... : ... .. . ... : ... .. . ... : ... .. . ... ...
ROW 9F : ... .. . ... ... ... : ... .. . ... ... ... : ... .. . ... : ... .. . ... : ... .. . ... ...
ROW A0 : ... .. . ... ... ... : ... .. . ... ... ... : ... .. . ... : ... .. . ... : ... .. . ... ...
ROW A1 : ... .. . ... ... ... : ... .. . ... ... ... : ... .. . ... : ... .. . ... : ... .. . ... ...
ROW A2 : ... .. . ... ... ... : ... .. . ... ... ... : G-3 00 . ... : C-# 00 E ... : ... .. . ... ...
ROW A3 : ... .. . ... ... ... : ... .. . ... ... ... : ... .. . ... : ... .. 0 ... : ... .. . ... ...
ROW A4 : ... .. . ... ... ... : ... .. . ... ... ... : ... .. . ... : ... .. . ... : ... .. . ... ...
ROW A5 : ... .. . ... ... ... : ... .. . ... ... ... : ... .. . ... : ... .. . ... : ... .. . ... ...
ROW A6 : ... .. . ... ... ... : ... .. . ... ... ... : ... .. . ... : ... .. . ... : ... .. . ... ...
ROW A7 : ... .. . ... ... ... : ... .. . ... ... ... : ... .. . ... : ... .. . ... : ... .. . ... ...
ROW A8 : D#4 00 B P81 ... ... : G#4 00 B P80 ... ... : D#3 00 . ... : D-# 00 6 ... : ... .. . ... ...
ROW A9 : ... .. A ... ... ... : ... .. A ... ... ... : ... .. . ... : ... .. . ... : ... .. . ... ...
ROW AA : ... .. 9 ... ... ... : ... .. 9 ... ... ... : ... .. . ... : ... .. . ... : ... .. . ... ...
ROW AB : ... .. 8 ... ... ... : ... .. 8 ... ... ... : ... .. . ... : ... .. . ... : ... .. . ... ...
ROW AC : ... .. 7 ... ... ... : ... .. 7 ... ... ... : ... .. . ... : ... .. . ... : ... .. . ... ...
ROW AD : ... .. 6 ... ... ... : ... .. 6 ... ... ... : ... .. . ... : ... .. 0 ... : ... .. . ... ...
ROW AE : ... .. 1 ... ... ... : ... .. 1 ... ... ... : ... .. . ... : ... .. . ... : ... .. . ... ...
ROW AF : ... .. . ... ... ... : ... .. . ... ... ... : ... .. . ... : ... .. . ... : ... .. . ... ...
ROW B0 : ... .. . ... ... ... : ... .. . ... ... ... : ... .. . ... : ... .. . ... : ... .. . ... ...
ROW B1 : ... .. . ... ... ... : ... .. . ... ... ... : --- .. . ... : ... .. . ... : ... .. . ... ...
ROW B2 : ... .. . ... ... ... : ... .. . ... ... ... : ... .. . ... : ... .. . ... : ... .. . ... ...
ROW B3 : ... .. . ... ... ... : ... .. . ... ... ... : ... .. . ... : ... .. . ... : ... .. . ... ...
ROW B4 : C-4 00 B P81 ... ... : G-4 00 B P81 ... ... : ... .. . ... : ... .. . ... : ... .. . ... ...
ROW B5 : ... .. A ... ... ... : ... .. A ... ... ... : ... .. . ... : ... .. . ... : ... .. . ... ...
ROW B6 : ... .. 9 ... ... ... : ... .. 9 ... ... ... : ... .. . ... : ... .. . ... : ... .. . ... ...
ROW B7 : ... .. 8 ... ... ... : ... .. 8 ... ... ... : ... .. . ... : ... .. . ... : ... .. . ... ...
ROW B8 : ... .. 7 ... ... ... : ... .. 7 ... ... ... : ... .. . ... : ... .. . ... : ... .. . ... ...
ROW B9 : ... .. 6 ... ... ... : ... .. 6 ... ... ... : ... .. . ... : ... .. . ... : ... .. . ... ...
ROW BA : G#3 00 B P80 ... ... : D#4 00 B P81 ... ... : C-3 00 . ... : C-# 00 E ... : ... .. . ... ...
ROW BB : ... .. A ... ... ... : ... .. A ... ... ... : ... .. . ... : ... .. 0 ... : ... .. . ... ...
ROW BC : ... .. 9 ... ... ... : ... .. 9 ... ... ... : ... .. . ... : ... .. . ... : ... .. . ... ...
ROW BD : ... .. 8 ... ... ... : ... .. 8 ... ... ... : ... .. . ... : ... .. . ... : ... .. . ... ...
ROW BE : ... .. 7 ... ... ... : ... .. 7 ... ... ... : ... .. . ... : ... .. . ... : ... .. . ... ...
ROW BF : ... .. 6 ... ... ... : ... .. 6 ... ... ... : ... .. . ... : ... .. . ... : ... .. . ... ...
ROW C0 : F#3 00 B P80 ... ... : C#4 00 B P80 ... ... : C#3 00 . ... : D-# 00 6 ... : ... .. . ... ...
ROW C1 : ... .. A ... ... ... : ... .. A ... ... ... : ... .. . ... : ... .. . ... : ... .. . ... ...
ROW C2 : ... .. 9 ... ... ... : ... .. 9 ... ... ... : ... .. . ... : ... .. . ... : ... .. . ... ...
ROW C3 : ... .. 8 ... ... ... : ... .. 8 ... ... ... : ... .. . ... : ... .. . ... : ... .. . ... ...
ROW C4 : ... .. 7 ... ... ... : ... .. 7 ... ... ... : ... .. . ... : ... .. . ... : ... .. . ... ...
ROW C5 : ... .. 6 ... ... ... : ... .. 6 ... ... ... : ... .. . ... : ... .. 0 ... : ... .. . ... ...
ROW C6 : ... .. 1 ... ... ... : ... .. 1 ... ... ... : ... .. . ... : ... .. . ... : ... .. . ... ...
ROW C7 : ... .. . ... ... ... : ... .. . ... ... ... : ... .. . ... : ... .. . ... : ... .. . ... ...
ROW C8 : ... .. . ... ... ... : ... .. . ... ... ... : ... .. . ... : ... .. . ... : ... .. . ... ...
ROW C9 : ... .. . ... ... ... : ... .. . ... ... ... : --- .. . ... : ... .. . ... : ... .. . ... ...
ROW CA : ... .. . ... ... ... : ... .. . ... ... ... : ... .. . ... : ... .. . ... : ... .. . ... ...
ROW CB : ... .. . ... ... ... : ... .. . ... ... ... : ... .. . ... : ... .. . ... : ... .. . ... ...
ROW CC : G-3 00 B P80 ... ... : D#4 00 B P81 ... ... : ... .. . ... : ... .. . ... : ... .. . ... ...
ROW CD : ... .. A ... ... ... : ... .. A ... ... ... : ... .. . ... : ... .. . ... : ... .. . ... ...
ROW CE : ... .. 9 ... ... ... : ... .. 9 ... ... ... : ... .. . ... : ... .. . ... : ... .. . ... ...
ROW CF : ... .. 8 ... ... ... : ... .. 8 ... ... ... : ... .. . ... : ... .. . ... : ... .. . ... ...
ROW D0 : ... .. 7 ... ... ... : ... .. 7 ... ... ... : ... .. . ... : ... .. . ... : ... .. . ... ...
ROW D1 : ... .. 6 ... ... ... : ... .. 6 ... ... ... : ... .. . ... : ... .. . ... : ... .. . ... ...
ROW D2 : F#3 00 B P80 ... ... : C#4 00 B P80 ... ... : D#3 00 . ... : C-# 00 E ... : ... .. . ... ...
ROW D3 : ... .. A ... ... ... : ... .. A ... ... ... : ... .. . ... : ... .. 0 ... : ... .. . ... ...
ROW D4 : ... .. 9 ... ... ... : ... .. 9 ... ... ... : ... .. . ... : ... .. . ... : ... .. . ... ...
ROW D5 : ... .. 8 ... ... ... : ... .. 8 ... ... ... : ... .. . ... : ... .. . ... : ... .. . ... ...
ROW D6 : ... .. 7 ... ... ... : ... .. 7 ... ... ... : ... .. . ... : ... .. . ... : ... .. . ... ...
ROW D7 : ... .. 6 ... ... ... : ... .. 6 ... ... ... : ... .. . ... : ... .. . ... : ... .. . ... ...
ROW D8 : F#3 00 B P80 ... ... : C#4 00 B P80 ... ... : F#3 00 . ... : D-# 00 6 ... : ... .. . ... ...
ROW D9 : ... .. A ... ... ... : ... .. A ... ... ... : ... .. . ... : ... .. . ... : ... .. . ... ...
ROW DA : ... .. 9 ... ... ... : ... .. 9 ... ... ... : ... .. . ... : ... .. . ... : ... .. . ... ...
ROW DB : ... .. 8 ... ... ... : ... .. 8 ... ... ... : ... .. . ... : ... .. . ... : ... .. . ... ...
ROW DC : ... .. 7 ... ... ... : ... .. 7 ... ... ... : ... .. . ... : ... .. . ... : ... .. . ... ...
ROW DD : ... .. 6 ... ... ... : ... .. 6 ... ... ... : ... .. . ... : ... .. 0 ... : ... .. . ... ...
ROW DE : ... .. 1 ... ... ... : ... .. 1 ... ... ... : ... .. . ... : ... .. . ... : ... .. . ... ...
ROW DF : ... .. . ... ... ... : ... .. . ... ... ... : ... .. . ... : ... .. . ... : ... .. . ... ...
ROW E0 : ... .. . ... ... ... : ... .. . ... ... ... : ... .. . ... : ... .. . ... : ... .. . ... ...
ROW E1 : ... .. . ... ... ... : ... .. . ... ... ... : --- .. . ... : ... .. . ... : ... .. . ... ...
ROW E2 : ... .. . ... ... ... : ... .. . ... ... ... : ... .. . ... : ... .. . ... : ... .. . ... ...
ROW E3 : ... .. . ... ... ... : ... .. . ... ... ... : ... .. . ... : ... .. . ... : ... .. . ... ...
ROW E4 : C#3 00 B P80 ... ... : G#3 00 B P80 ... ... : ... .. . ... : ... .. . ... : ... .. . ... ...
ROW E5 : ... .. A ... ... ... : ... .. A ... ... ... : ... .. . ... : ... .. . ... : ... .. . ... ...
ROW E6 : ... .. 9 ... ... ... : ... .. 9 ... ... ... : ... .. . ... : ... .. . ... : ... .. . ... ...
ROW E7 : ... .. 8 ... ... ... : ... .. 8 ... ... ... : ... .. . ... : ... .. . ... : ... .. . ... ...
ROW E8 : ... .. 7 ... ... ... : ... .. 7 ... ... ... : ... .. . ... : ... .. . ... : ... .. . ... ...
ROW E9 : ... .. 6 ... ... ... : ... .. 6 ... ... ... : ... .. . ... : ... .. . ... : ... .. . ... ...
ROW EA : ... .. 1 ... ... ... : ... .. 1 ... ... ... : G#2 00 . P7F : C-# 00 E ... : ... .. . ... ...
ROW EB : ... .. . ... ... ... : ... .. . ... ... ... : ... .. . ... : ... .. 0 ... : ... .. . ... ...
ROW EC : ... .. . ... ... ... : ... .. . ... ... ... : ... .. . ... : ... .. . ... : ... .. . ... ...
ROW ED : ... .. . ... ... ... : ... .. . ... ... ... : ... .. . ... : ... .. . ... : ... .. . ... ...
ROW EE : ... .. . ... ... ... : ... .. . ... ... ... : ... .. . ... : ... .. . ... : ... .. . ... ...
ROW EF : ... .. . ... ... ... : ... .. . ... ... ... : ... .. . ... : ... .. . ... : ... .. . ... ...
ROW F0 : ... .. 5 ... ... ... : ... .. 5 ... ... ... : C#3 00 . P80 : D-# 00 6 ... : ... .. . ... ...
ROW F1 : ... .. 4 ... ... ... : ... .. 4 ... ... ... : ... .. . ... : ... .. . ... : ... .. . ... ...
ROW F2 : ... .. 3 ... ... ... : ... .. 3 ... ... ... : ... .. . ... : ... .. . ... : ... .. . ... ...
ROW F3 : ... .. 2 ... ... ... : ... .. 2 ... ... ... : ... .. . ... : ... .. . ... : ... .. . ... ...
ROW F4 : ... .. 1 ... ... ... : ... .. 1 ... ... ... : ... .. . ... : ... .. . ... : ... .. . ... ...
ROW F5 : ... .. . ... ... ... : ... .. . ... ... ... : ... .. . ... : ... .. 0 ... : ... .. . ... ...
ROW F6 : ... .. . ... ... ... : ... .. . ... ... ... : --- .. . ... : ... .. . ... : ... .. . ... ...
ROW F7 : ... .. . ... ... ... : ... .. . ... ... ... : ... .. . ... : ... .. . ... : ... .. . ... ...
ROW F8 : ... .. . ... ... ... : ... .. . ... ... ... : ... .. . ... : ... .. . ... : ... .. . ... ...
ROW F9 : ... .. . ... ... ... : ... .. . ... ... ... : ... .. . ... : ... .. . ... : ... .. . ... ...
ROW FA : ... .. . ... ... ... : ... .. . ... ... ... : ... .. . ... : ... .. . ... : ... .. . ... ...
ROW FB : ... .. . ... ... ... : ... .. . ... ... ... : ... .. . ... : ... .. . ... : ... .. . ... ...
ROW FC : C#3 00 B P80 ... ... : G#3 00 B P80 ... ... : D#3 00 . ... : ... .. . ... : ... .. . ... ...
ROW FD : ... .. A ... ... ... : ... .. A ... ... ... : ... .. . ... : ... .. . ... : ... .. . ... ...
ROW FE : ... .. 9 ... ... ... : ... .. 9 ... ... ... : ... .. . ... : ... .. . ... : ... .. . ... ...
ROW FF : ... .. 8 ... ... ... : ... .. 8 ... ... ... : ... .. . ... : ... .. . ... : ... .. . ... ...

PATTERN 04
ROW 00 : F#3 00 B P80 ... ... : C#4 00 B P80 ... ... : ... .. . ... : ... .. . ... : ... .. . ... ...
ROW 01 : ... .. A ... ... ... : ... .. A ... ... ... : ... .. . ... : ... .. . ... : ... .. . ... ...
ROW 02 : ... .. 9 ... ... ... : ... .. 9 ... ... ... : C-3 00 . ... : C-# 00 E ... : ... .. . ... ...
ROW 03 : ... .. 8 ... ... ... : ... .. 8 ... ... ... : ... .. . ... : ... .. 0 ... : ... .. . ... ...
ROW 04 : C#3 00 B P80 ... ... : G#3 00 B P80 ... ... : ... .. . ... : ... .. . ... : ... .. . ... ...
ROW 05 : ... .. A ... ... ... : ... .. A ... ... ... : ... .. . ... : ... .. . ... : ... .. . ... ...
ROW 06 : ... .. 9 ... ... ... : ... .. 9 ... ... ... : ... .. . ... : ... .. . ... : ... .. . ... ...
ROW 07 : ... .. 8 ... ... ... : ... .. 8 ... ... ... : ... .. . ... : ... .. . ... : ... .. . ... ...
ROW 08 : F#3 00 B P80 ... ... : G#3 00 B P80 ... ... : B-2 00 . ... : D-# 00 6 ... : ... .. . ... ...
ROW 09 : ... .. A ... ... ... : ... .. A ... ... ... : ... .. . ... : ... .. . ... : ... .. . ... ...
ROW 0A : ... .. 9 ... ... ... : ... .. 9 ... ... ... : ... .. . ... : ... .. . ... : ... .. . ... ...
ROW 0B : ... .. 8 ... ... ... : ... .. 8 ... ... ... : ... .. . ... : ... .. . ... : ... .. . ... ...
ROW 0C : C#3 00 B P80 ... ... : C#4 00 B P80 ... ... : ... .. . ... : ... .. . ... : ... .. . ... ...
ROW 0D : ... .. A ... ... ... : ... .. A ... ... ... : ... .. . ... : ... .. 0 ... : ... .. . ... ...
ROW 0E : ... .. 9 ... ... ... : ... .. 9 ... ... ... : ... .. . ... : ... .. . ... : ... .. . ... ...
ROW 0F : ... .. 8 ... ... ... : ... .. 8 ... ... ... : ... .. . ... : ... .. . ... : ... .. . ... ...
ROW 10 : F#3 00 B P80 ... ... : G#3 00 B P80 ... ... : ... .. . ... : ... .. . ... : ... .. . ... ...
ROW 11 : ... .. A ... ... ... : ... .. A ... ... ... : --- .. . ... : ... .. . ... : ... .. . ... ...
ROW 12 : ... .. 9 ... ... ... : ... .. 9 ... ... ... : ... .. . ... : ... .. . ... : ... .. . ... ...
ROW 13 : ... .. 8 ... ... ... : ... .. 8 ... ... ... : ... .. . ... : ... .. . ... : ... .. . ... ...
ROW 14 : C#3 00 B P80 ... ... : C#4 00 B P80 ... ... : ... .. . ... : ... .. . ... : ... .. . ... ...
ROW 15 : ... .. A ... ... ... : ... .. A ... ... ... : ... .. . ... : ... .. . ... : ... .. . ... ...
ROW 16 : ... .. 9 ... ... ... : ... .. 9 ... ... ... : ... .. . ... : ... .. . ... : ... .. . ... ...
ROW 17 : ... .. 8 ... ... ... : ... .. 8 ... ... ... : ... .. . ... : ... .. . ... : ... .. . ... ...
ROW 18 : F#3 00 B P80 ... ... : G#3 00 B P80 ... ... : ... .. . ... : ... .. . ... : ... .. . ... ...
ROW 19 : ... .. A ... ... ... : ... .. A ... ... ... : ... .. . ... : ... .. . ... : ... .. . ... ...
ROW 1A : ... .. 9 ... ... ... : ... .. 9 ... ... ... : G#2 00 . P7F : C-# 00 E ... : ... .. . ... ...
ROW 1B : ... .. 8 ... ... ... : ... .. 8 ... ... ... : ... .. . ... : ... .. 0 ... : ... .. . ... ...
ROW 1C : C#3 00 B P80 ... ... : C#4 00 B P80 ... ... : ... .. . ... : ... .. . ... : ... .. . ... ...
ROW 1D : ... .. A ... ... ... : ... .. A ... ... ... : ... .. . ... : ... .. . ... : ... .. . ... ...
ROW 1E : ... .. 9 ... ... ... : ... .. 9 ... ... ... : ... .. . ... : ... .. . ... : ... .. . ... ...
ROW 1F : ... .. 8 ... ... ... : ... .. 8 ... ... ... : ... .. . ... : ... .. . ... : ... .. . ... ...
ROW 20 : ... .. 5 ... ... ... : ... .. 5 ... ... ... : G-2 00 . P80 : D-# 00 6 ... : ... .. . ... ...
ROW 21 : ... .. 4 ... ... ... : ... .. 4 ... ... ... : ... .. . ... : ... .. . ... : ... .. . ... ...
ROW 22 : ... .. 3 ... ... ... : ... .. 3 ... ... ... : ... .. . ... : ... .. . ... : ... .. . ... ...
ROW 23 : ... .. 2 ... ... ... : ... .. 2 ... ... ... : ... .. . ... : ... .. . ... : ... .. . ... ...
ROW 24 : ... .. 1 ... ... ... : ... .. 1 ... ... ... : ... .. . ... : ... .. . ... : ... .. . ... ...
ROW 25 : ... .. . ... ... ... : ... .. . ... ... ... : ... .. . ... : ... .. 0 ... : ... .. . ... ...
ROW 26 : ... .. . ... ... ... : ... .. . ... ... ... : ... .. . ... : ... .. . ... : ... .. . ... ...
ROW 27 : ... .. . ... ... ... : ... .. . ... ... ... : ... .. . ... : ... .. . ... : ... .. . ... ...
ROW 28 : ... .. . ... ... ... : ... .. . ... ... ... : ... .. . ... : ... .. . ... : ... .. . ... ...
ROW 29 : ... .. . ... ... ... : ... .. . ... ... ... : --- .. . ... : ... .. . ... : ... .. . ... ...
ROW 2A : ... .. . ... ... ... : ... .. . ... ... ... : ... .. . ... : ... .. . ... : ... .. . ... ...
ROW 2B : ... .. . ... ... ... : ... .. . ... ... ... : ... .. . ... : ... .. . ... : ... .. . ... ...
ROW 2C : G-3 00 B P80 ... ... : D#4 00 B P81 ... ... : ... .. . ... : ... .. . ... : ... .. . ... ...
ROW 2D : ... .. A ... ... ... : ... .. A ... ... ... : ... .. . ... : ... .. . ... : ... .. . ... ...
ROW 2E : ... .. 9 ... ... ... : ... .. 9 ... ... ... : ... .. . ... : ... .. . ... : ... .. . ... ...
ROW 2F : ... .. 8 ... ... ... : ... .. 8 ... ... ... : ... .. . ... : ... .. . ... : ... .. . ... ...
ROW 30 : ... .. 7 ... ... ... : ... .. 7 ... ... ... : ... .. . ... : ... .. . ... : ... .. . ... ...
ROW 31 : ... .. 6 ... ... ... : ... .. 6 ... ... ... : ... .. . ... : ... .. . ... : ... .. . ... ...
ROW 32 : F-3 00 B P80 ... ... : C#4 00 B P80 ... ... : G-3 00 . ... : C-# 00 E ... : ... .. . ... ...
ROW 33 : ... .. A ... ... ... : ... .. A ... ... ... : ... .. . ... : ... .. 0 ... : ... .. . ... ...
ROW 34 : ... .. 9 ... ... ... : ... .. 9 ... ... ... : ... .. . ... : ... .. . ... : ... .. . ... ...
ROW 35 : ... .. 8 ... ... ... : ... .. 8 ... ... ... : ... .. . ... : ... .. . ... : ... .. . ... ...
ROW 36 : ... .. 7 ... ... ... : ... .. 7 ... ... ... : ... .. . ... : ... .. . ... : ... .. . ... ...
ROW 37 : ... .. 6 ... ... ... : ... .. 6 ... ... ... : ... .. . ... : ... .. . ... : ... .. . ... ...
ROW 38 : F-3 00 B P80 ... ... : C#4 00 B P80 ... ... : F-3 00 . ... : D-# 00 6 ... : ... .. . ... ...
ROW 39 : ... .. A ... ... ... : ... .. A ... ... ... : ... .. . ... : ... .. . ... : ... .. . ... ...
ROW 3A : ... .. 9 ... ... ... : ... .. 9 ... ... ... : ... .. . ... : ... .. . ... : ... .. . ... ...
ROW 3B : ... .. 8 ... ... ... : ... .. 8 ... ... ... : ... .. . ... : ... .. . ... : ... .. . ... ...
ROW 3C : ... .. 7 ... ... ... : ... .. 7 ... ... ... : ... .. . ... : ... .. . ... : ... .. . ... ...
ROW 3D : ... .. 6 ... ... ... : ... .. 6 ... ... ... : ... .. . ... : ... .. 0 ... : ... .. . ... ...
ROW 3E : ... .. 1 ... ... ... : ... .. 1 ... ... ... : ... .. . ... : ... .. . ... : ... .. . ... ...
ROW 3F : ... .. . ... ... ... : ... .. . ... ... ... : ... .. . ... : ... .. . ... : ... .. . ... ...
ROW 40 : ... .. . ... ... ... : ... .. . ... ... ... : ... .. . ... : ... .. . ... : ... .. . ... ...
ROW 41 : ... .. . ... ... ... : ... .. . ... ... ... : --- .. . ... : ... .. . ... : ... .. . ... ...
ROW 42 : ... .. . ... ... ... : ... .. . ... ... ... : ... .. . ... : ... .. . ... : ... .. . ... ...
ROW 43 : ... .. . ... ... ... : ... .. . ... ... ... : ... .. . ... : ... .. . ... : ... .. . ... ...
ROW 44 : G-3 00 B P80 ... ... : D#4 00 B P81 ... ... : ... .. . ... : ... .. . ... : ... .. . ... ...
ROW 45 : ... .. A ... ... ... : ... .. A ... ... ... : ... .. . ... : ... .. . ... : ... .. . ... ...
ROW 46 : ... .. 9 ... ... ... : ... .. 9 ... ... ... : ... .. . ... : ... .. . ... : ... .. . ... ...
ROW 47 : ... .. 8 ... ... ... : ... .. 8 ... ... ... : ... .. . ... : ... .. . ... : ... .. . ... ...
ROW 48 : ... .. 7 ... ... ... : ... .. 7 ... ... ... : ... .. . ... : ... .. . ... : ... .. . ... ...
ROW 49 : ... .. 6 ... ... ... : ... .. 6 ... ... ... : ... .. . ... : ... .. . ... : ... .. . ... ...
ROW 4A : ... .. 1 ... ... ... : ... .. 1 ... ... ... : C#3 00 . ... : C-# 00 E ... : ... .. . ... ...
ROW 4B : ... .. . ... ... ... : ... .. . ... ... ... : ... .. . ... : ... .. 0 ... : ... .. . ... ...
ROW 4C : ... .. . ... ... ... : ... .. . ... ... ... : ... .. . ... : ... .. . ... : ... .. . ... ...
ROW 4D : ... .. . ... ... ... : ... .. . ... ... ... : ... .. . ... : ... .. . ... : ... .. . ... ...
ROW 4E : ... .. . ... ... ... : ... .. . ... ... ... : ... .. . ... : ... .. . ... : ... .. . ... ...
ROW 4F : ... .. . ... ... ... : ... .. . ... ... ... : ... .. . ... : ... .. . ... : ... .. . ... ...
ROW 50 : ... .. 5 ... ... ... : ... .. 5 ... ... ... : B-2 00 . ... : D-# 00 6 ... : ... .. . ... ...
ROW 51 : ... .. 4 ... ... ... : ... .. 4 ... ... ... : ... .. . ... : ... .. . ... : ... .. . ... ...
ROW 52 : ... .. 3 ... ... ... : ... .. 3 ... ... ... : ... .. . ... : ... .. . ... : ... .. . ... ...
ROW 53 : ... .. 2 ... ... ... : ... .. 2 ... ... ... : ... .. . ... : ... .. . ... : ... .. . ... ...
ROW 54 : ... .. 1 ... ... ... : ... .. 1 ... ... ... : ... .. . ... : ... .. . ... : ... .. . ... ...
ROW 55 : ... .. . ... ... ... : ... .. . ... ... ... : ... .. . ... : ... .. 0 ... : ... .. . ... ...
ROW 56 : ... .. . ... ... ... : ... .. . ... ... ... : ... .. . ... : ... .. . ... : ... .. . ... ...
ROW 57 : ... .. . ... ... ... : ... .. . ... ... ... : ... .. . ... : ... .. . ... : ... .. . ... ...
ROW 58 : ... .. . ... ... ... : ... .. . ... ... ... : ... .. . ... : ... .. . ... : ... .. . ... ...
ROW 59 : ... .. . ... ... ... : ... .. . ... ... ... : --- .. . ... : ... .. . ... : ... .. . ... ...
ROW 5A : ... .. . ... ... ... : ... .. . ... ... ... : ... .. . ... : ... .. . ... : ... .. . ... ...
ROW 5B : ... .. . ... ... ... : ... .. . ... ... ... : ... .. . ... : ... .. . ... : ... .. . ... ...
ROW 5C : B-3 00 B P80 ... ... : G-4 00 B P81 ... ... : ... .. . ... : ... .. . ... : ... .. . ... ...
ROW 5D : ... .. A ... ... ... : ... .. A ... ... ... : ... .. . ... : ... .. . ... : ... .. . ... ...
ROW 5E : ... .. 9 ... ... ... : ... .. 9 ... ... ... : ... .. . ... : ... .. . ... : ... .. . ... ...
ROW 5F : ... .. 8 ... ... ... : ... .. 8 ... ... ... : ... .. . ... : ... .. . ... : ... .. . ... ...
ROW 60 : ... .. 7 ... ... ... : ... .. 7 ... ... ... : ... .. . ... : ... .. . ... : ... .. . ... ...
ROW 61 : ... .. 6 ... ... ... : ... .. 6 ... ... ... : ... .. . ... : ... .. . ... : ... .. . ... ...
ROW 62 : C-4 00 B P81 ... ... : G#4 00 B P80 ... ... : G-2 00 . ... : C-# 00 E ... : ... .. . ... ...
ROW 63 : ... .. A ... ... ... : ... .. A ... ... ... : ... .. . ... : ... .. 0 ... : ... .. . ... ...
ROW 64 : ... .. 9 ... ... ... : ... .. 9 ... ... ... : ... .. . ... : ... .. . ... : ... .. . ... ...
ROW 65 : ... .. 8 ... ... ... : ... .. 8 ... ... ... : ... .. . ... : ... .. . ... : ... .. . ... ...
ROW 66 : ... .. 7 ... ... ... : ... .. 7 ... ... ... : ... .. . ... : ... .. . ... : ... .. . ... ...
ROW 67 : ... .. 6 ... ... ... : ... .. 6 ... ... ... : ... .. . ... : ... .. . ... : ... .. . ... ...
ROW 68 : C-4 00 B P81 ... ... : G#4 00 B P80 ... ... : G#2 00 . P7F : D-# 00 6 ... : ... .. . ... ...
ROW 69 : ... .. A ... ... ... : ... .. A ... ... ... : ... .. . ... : ... .. . ... : ... .. . ... ...
ROW 6A : ... .. 9 ... ... ... : ... .. 9 ... ... ... : ... .. . ... : ... .. . ... : ... .. . ... ...
ROW 6B : ... .. 8 ... ... ... : ... .. 8 ... ... ... : ... .. . ... : ... .. . ... : ... .. . ... ...
ROW 6C : ... .. 7 ... ... ... : ... .. 7 ... ... ... : ... .. . ... : ... .. . ... : ... .. . ... ...
ROW 6D : ... .. 6 ... ... ... : ... .. 6 ... ... ... : ... .. . ... : ... .. 0 ... : ... .. . ... ...
ROW 6E : ... .. 1 ... ... ... : ... .. 1 ... ... ... : ... .. . ... : ... .. . ... : ... .. . ... ...
ROW 6F : ... .. . ... ... ... : ... .. . ... ... ... : ... .. . ... : ... .. . ... : ... .. . ... ...
ROW 70 : ... .. . ... ... ... : ... .. . ... ... ... : ... .. . ... : ... .. . ... : ... .. . ... ...
ROW 71 : ... .. . ... ... ... : ... .. . ... ... ... : --- .. . ... : ... .. . ... : ... .. . ... ...
ROW 72 : ... .. . ... ... ... : ... .. . ... ... ... : ... .. . ... : ... .. . ... : ... .. . ... ...
ROW 73 : ... .. . ... ... ... : ... .. . ... ... ... : ... .. . ... : ... .. . ... : ... .. . ... ...
ROW 74 : B-3 00 B P80 ... ... : G-4 00 B P81 ... ... : ... .. . ... : ... .. . ... : ... .. . ... ...
ROW 75 : ... .. A ... ... ... : ... .. A ... ... ... : ... .. . ... : ... .. . ... : ... .. . ... ...
ROW 76 : ... .. 9 ... ... ... : ... .. 9 ... ... ... : ... .. . ... : ... .. . ... : ... .. . ... ...
ROW 77 : ... .. 8 ... ... ... : ... .. 8 ... ... ... : ... .. . ... : ... .. . ... : ... .. . ... ...
ROW 78 : ... .. 7 ... ... ... : ... .. 7 ... ... ... : ... .. . ... : ... .. . ... : ... .. . ... ...
ROW 79 : ... .. 6 ... ... ... : ... .. 6 ... ... ... : ... .. . ... : ... .. . ... : ... .. . ... ...
ROW 7A : G-3 00 B P80 ... ... : D#4 00 B P81 ... ... : B-2 00 . P80 : C-# 00 E ... : ... .. . ... ...
ROW 7B : ... .. A ... ... ... : ... .. A ... ... ... : ... .. . ... : ... .. 0 ... : ... .. . ... ...
ROW 7C : ... .. 9 ... ... ... : ... .. 9 ... ... ... : ... .. . ... : ... .. . ... : ... .. . ... ...
ROW 7D : ... .. 8 ... ... ... : ... .. 8 ... ... ... : ... .. . ... : ... .. . ... : ... .. . ... ...
ROW 7E : ... .. 7 ... ... ... : ... .. 7 ... ... ... : ... .. . ... : ... .. . ... : ... .. . ... ...
ROW 7F : ... .. 6 ... ... ... : ... .. 6 ... ... ... : ... .. . ... : ... .. . ... : ... .. . ... ...
ROW 80 : ... .. 5 ... ... ... : ... .. 5 ... ... ... : C-3 00 . ... : D-# 00 6 ... : ... .. . ... ...
ROW 81 : ... .. 4 ... ... ... : ... .. 4 ... ... ... : ... .. . ... : ... .. . ... : ... .. . ... ...
ROW 82 : ... .. 3 ... ... ... : ... .. 3 ... ... ... : ... .. . ... : ... .. . ... : ... .. . ... ...
ROW 83 : ... .. 2 ... ... ... : ... .. 2 ... ... ... : ... .. . ... : ... .. . ... : ... .. . ... ...
ROW 84 : ... .. 1 ... ... ... : ... .. 1 ... ... ... : ... .. . ... : ... .. . ... : ... .. . ... ...
ROW 85 : ... .. . ... ... ... : ... .. . ... ... ... : ... .. . ... : ... .. 0 ... : ... .. . ... ...
ROW 86 : ... .. . ... ... ... : ... .. . ... ... ... : ... .. . ... : ... .. . ... : ... .. . ... ...
ROW 87 : ... .. . ... ... ... : ... .. . ... ... ... : ... .. . ... : ... .. . ... : ... .. . ... ...
ROW 88 : ... .. . ... ... ... : ... .. . ... ... ... : ... .. . ... : ... .. . ... : ... .. . ... ...
ROW 89 : ... .. . ... ... ... : ... .. . ... ... ... : --- .. . ... : ... .. . ... : ... .. . ... ...
ROW 8A : ... .. . ... ... ... : ... .. . ... ... ... : ... .. . ... : ... .. . ... : ... .. . ... ...
ROW 8B : ... .. . ... ... ... : ... .. . ... ... ... : ... .. . ... : ... .. . ... : ... .. . ... ...
ROW 8C : ... .. . ... ... ... : ... .. . ... ... ... : ... .. . ... : ... .. . ... : ... .. . ... ...
ROW 8D : ... .. . ... ... ... : ... .. . ... ... ... : ... .. . ... : ... .. . ... : ... .. . ... ...
ROW 8E : ... .. . ... ... ... : ... .. . ... ... ... : ... .. . ... : ... .. . ... : ... .. . ... ...
ROW 8F : ... .. . ... ... ... : ... .. . ... ... ... : ... .. . ... : ... .. . ... : ... .. . ... ...
ROW 90 : ... .. . ... ... ... : ... .. . ... ... ... : ... .. . ... : ... .. . ... : ... .. . ... ...
ROW 91 : ... .. . ... ... ... : ... .. . ... ... ... : ... .. . ... : ... .. . ... : ... .. . ... ...
ROW 92 : ... .. . ... ... ... : ... .. . ... ... ... : G-2 00 . ... : C-# 00 E ... : ... .. . ... ...
ROW 93 : ... .. . ... ... ... : ... .. . ... ... ... : ... .. . ... : ... .. 0 ... : ... .. . ... ...
ROW 94 : ... .. . ... ... ... : ... .. . ... ... ... : ... .. . ... : ... .. . ... : ... .. . ... ...
ROW 95 : ... .. . ... ... ... : ... .. . ... ... ... : ... .. . ... : ... .. . ... : ... .. . ... ...
ROW 96 : ... .. . ... ... ... : ... .. . ... ... ... : ... .. . ... : ... .. . ... : ... .. . ... ...
ROW 97 : ... .. . ... ... ... : ... .. . ... ... ... : ... .. . ... : ... .. . ... : ... .. . ... ...
ROW 98 : ... .. . ... ... ... : G-3 00 8 P80 ... ... : G#2 00 . P7F : D-# 00 6 ... : ... .. . ... ...
ROW 99 : ... .. . ... ... ... : ... .. . ... ... ... : ... .. . ... : ... .. . ... : ... .. . ... ...
ROW 9A : ... .. . ... ... ... : ... .. 7 ... ... ... : ... .. . ... : ... .. . ... : ... .. . ... ...
ROW 9B : ... .. . ... ... ... : ... .. . ... ... ... : ... .. . ... : ... .. . ... : ... .. . ... ...
ROW 9C : ... .. . ... ... ... : ... .. . ... ... ... : ... .. . ... : ... .. . ... : ... .. . ... ...
ROW 9D : ... .. . ... ... ... : ... .. . ... ... ... : ... .. . ... : ... .. 0 ... : ... .. . ... ...
ROW 9E : ... .. . ... ... ... : ... .. 0 ... ... ... : ... .. . ... : ... .. . ... : ... .. . ... ...
ROW 9F : ... .. . ... ... ... : ... .. . ... ... ... : ... .. . ... : ... .. . ... : ... .. . ... ...
ROW A0 : ... .. . ... ... ... : ... .. . ... ... ... : ... .. . ... : ... .. . ... : ... .. . ... ...
ROW A1 : ... .. . ... ... ... : ... .. . ... ... ... : --- .. . ... : ... .. . ... : ... .. . ... ...
ROW A2 : ... .. . ... ... ... : ... .. . ... ... ... : ... .. . ... : ... .. . ... : ... .. . ... ...
ROW A3 : ... .. . ... ... ... : ... .. . ... ... ... : ... .. . ... : ... .. . ... : ... .. . ... ...
ROW A4 : ... .. . ... ... ... : G#3 00 8 P80 ... ... : ... .. . ... : ... .. . ... : ... .. . ... ...
ROW A5 : ... .. . ... ... ... : ... .. . ... ... ... : ... .. . ... : ... .. . ... : ... .. . ... ...
ROW A6 : ... .. . ... ... ... : ... .. 7 ... ... ... : ... .. . ... : ... .. . ... : ... .. . ... ...
ROW A7 : ... .. . ... ... ... : ... .. . ... ... ... : ... .. . ... : ... .. . ... : ... .. . ... ...
ROW A8 : ... .. . ... ... ... : ... .. . ... ... ... : ... .. . ... : ... .. . ... : ... .. . ... ...
ROW A9 : ... .. . ... ... ... : ... .. . ... ... ... : ... .. . ... : ... .. . ... : ... .. . ... ...
ROW AA : F-3 00 8 P80 ... ... : G#3 00 8 P80 ... ... : B-2 00 . P80 : C-# 00 E ... : ... .. . ... ...
ROW AB : ... .. . ... ... ... : ... .. . ... ... ... : ... .. . ... : ... .. 0 ... : ... .. . ... ...
ROW AC : ... .. 7 ... ... ... : ... .. 7 ... ... ... : ... .. . ... : ... .. . ... : ... .. . ... ...
ROW AD : ... .. . ... ... ... : ... .. . ... ... ... : ... .. . ... : ... .. . ... : ... .. . ... ...
ROW AE : ... .. . ... ... ... : ... .. . ... ... ... : ... .. . ... : ... .. . ... : ... .. . ... ...
ROW AF : ... .. . ... ... ... : ... .. . ... ... ... : ... .. . ... : ... .. . ... : ... .. . ... ...
ROW B0 : ... .. 0 ... ... ... : ... .. 0 ... ... ... : C-3 00 . ... : D-# 00 6 ... : ... .. . ... ...
ROW B1 : ... .. . ... ... ... : ... .. . ... ... ... : ... .. . ... : ... .. . ... : ... .. . ... ...
ROW B2 : ... .. . ... ... ... : ... .. . ... ... ... : ... .. . ... : ... .. . ... : ... .. . ... ...
ROW B3 : ... .. . ... ... ... : ... .. . ... ... ... : ... .. . ... : ... .. . ... : ... .. . ... ...
ROW B4 : ... .. . ... ... ... : ... .. . ... ... ... : ... .. . ... : ... .. . ... : ... .. . ... ...
ROW B5 : ... .. . ... ... ... : ... .. . ... ... ... : ... .. . ... : ... .. 0 ... : ... .. . ... ...
ROW B6 : ... .. . ... ... ... : ... .. . ... ... ... : ... .. . ... : ... .. . ... : ... .. . ... ...
ROW B7 : ... .. . ... ... ... : ... .. . ... ... ... : ... .. . ... : ... .. . ... : ... .. . ... ...
ROW B8 : ... .. . ... ... ... : ... .. . ... ... ... : ... .. . ... : ... .. . ... : ... .. . ... ...
ROW B9 : ... .. . ... ... ... : ... .. . ... ... ... : --- .. . ... : ... .. . ... : ... .. . ... ...
ROW BA : ... .. . ... ... ... : ... .. . ... ... ... : ... .. . ... : ... .. . ... : ... .. . ... ...
ROW BB : ... .. . ... ... ... : ... .. . ... ... ... : ... .. . ... : ... .. . ... : ... .. . ... ...
ROW BC : ... .. . ... ... ... : ... .. . ... ... ... : ... .. . ... : ... .. . ... : ... .. . ... ...
ROW BD : ... .. . ... ... ... : ... .. . ... ... ... : ... .. . ... : ... .. . ... : ... .. . ... ...
ROW BE : ... .. . ... ... ... : ... .. . ... ... ... : ... .. . ... : ... .. . ... : ... .. . ... ...
ROW BF : ... .. . ... ... ... : ... .. . ... ... ... : ... .. . ... : ... .. . ... : ... .. . ... ...
ROW C0 : ... .. . ... ... ... : ... .. . ... ... ... : ... .. . ... : ... .. . ... : ... .. . ... ...
ROW C1 : ... .. . ... ... ... : ... .. . ... ... ... : ... .. . ... : ... .. . ... : ... .. . ... ...
ROW C2 : ... .. . ... ... ... : ... .. . ... ... ... : ... .. . ... : C-# 00 E ... : ... .. . ... ...
ROW C3 : ... .. . ... ... ... : ... .. . ... ... ... : ... .. . ... : ... .. 0 ... : ... .. . ... ...
ROW C4 : ... .. . ... ... ... : ... .. . ... ... ... : ... .. . ... : ... .. . ... : ... .. . ... ...
ROW C5 : ... .. . ... ... ... : ... .. . ... ... ... : ... .. . ... : ... .. . ... : ... .. . ... ...
ROW C6 : ... .. . ... ... ... : ... .. . ... ... ... : ... .. . ... : ... .. . ... : ... .. . ... ...
ROW C7 : ... .. . ... ... ... : ... .. . ... ... ... : ... .. . ... : ... .. . ... : ... .. . ... ...
ROW C8 : ... .. 0 ... ... ... : ... .. 0 ... ... ... : --- .. . ... : D-# 00 6 ... : ... .. . ... ...
ROW C9 : ... .. . ... ... ... : ... .. . ... ... ... : ... .. . ... : ... .. . ... : ... .. . ... ...
ROW CA : ... .. . ... ... ... : ... .. . ... ... ... : ... .. . ... : ... .. . ... : ... .. . ... ...
ROW CB : ... .. . ... ... ... : ... .. . ... ... ... : ... .. . ... : ... .. . ... : ... .. . ... ...
ROW CC : ... .. . ... ... ... : ... .. . ... ... ... : ... .. . ... : ... .. . ... : ... .. . ... ...
ROW CD : ... .. . ... ... ... : ... .. . ... ... ... : ... .. . ... : ... .. 0 ... : ... .. . ... ...
ROW CE : ... .. . ... ... ... : ... .. . ... ... ... : ... .. . ... : ... .. . ... : ... .. . ... ...
ROW CF : ... .. . ... ... ... : ... .. . ... ... ... : ... .. . ... : ... .. . ... : ... .. . ... ...
ROW D0 : ... .. . ... ... ... : ... .. . ... ... ... : ... .. . ... : ... .. . ... : ... .. . ... ...
ROW D1 : ... .. . ... ... ... : ... .. . ... ... ... : ... .. . ... : ... .. . ... : ... .. . ... ...
ROW D2 : ... .. . ... ... ... : ... .. . ... ... ... : ... .. . ... : ... .. . ... : ... .. . ... ...
ROW D3 : ... .. . ... ... ... : ... .. . ... ... ... : ... .. . ... : ... .. . ... : ... .. . ... ...
ROW D4 : ... .. . ... ... ... : ... .. . ... ... ... : ... .. . ... : ... .. . ... : ... .. . ... ...
ROW D5 : ... .. . ... ... ... : ... .. . ... ... ... : ... .. . ... : ... .. . ... : ... .. . ... ...
ROW D6 : ... .. . ... ... ... : ... .. . ... ... ... : ... .. . ... : ... .. . ... : ... .. . ... ...
ROW D7 : ... .. . ... ... ... : ... .. . ... ... ... : ... .. . ... : ... .. . ... : ... .. . ... ...
ROW D8 : ... .. . ... ... ... : ... .. . ... ... ... : ... .. . ... : ... .. . ... : ... .. . ... ...
ROW D9 : ... .. . ... ... ... : ... .. . ... ... ... : ... .. . ... : ... .. . ... : ... .. . ... ...
ROW DA : ... .. 1 ... V01 ... : ... .. 1 ... V01 ... : ... .. . ... : C-# 00 E ... : ... .. . ... ...
ROW DB : ... .. . ... ... ... : ... .. . ... ... ... : ... .. . ... : ... .. 0 ... : ... .. . ... ...
ROW DC : ... .. . ... ... ... : ... .. . ... ... ... : ... .. . ... : ... .. . ... : ... .. . ... ...
ROW DD : ... .. . ... ... ... : ... .. . ... ... ... : ... .. . ... : ... .. . ... : ... .. . ... ...
ROW DE : ... .. . ... ... ... : ... .. . ... ... ... : ... .. . ... : ... .. . ... : ... .. . ... ...
ROW DF : ... .. . ... ... ... : ... .. . ... ... ... : ... .. . ... : ... .. . ... : ... .. . ... ...
ROW E0 : ... .. 1 ... ... ... : ... .. 1 ... ... ... : D#3 00 . ... : D-# 00 6 ... : ... .. . ... ...
ROW E1 : ... .. . ... ... ... : ... .. . ... ... ... : ... .. . ... : ... .. . ... : ... .. . ... ...
ROW E2 : ... .. . ... ... ... : ... .. . ... ... ... : ... .. . ... : ... .. . ... : ... .. . ... ...
ROW E3 : ... .. . ... ... ... : ... .. . ... ... ... : ... .. . ... : ... .. . ... : ... .. . ... ...
ROW E4 : ... .. . ... ... ... : ... .. . ... ... ... : ... .. . ... : ... .. . ... : ... .. . ... ...
ROW E5 : ... .. . ... ... ... : ... .. . ... ... ... : ... .. . ... : ... .. 0 ... : ... .. . ... ...
ROW E6 : ... .. . ... ... ... : ... .. . ... ... ... : ... .. . ... : ... .. . ... : ... .. . ... ...
ROW E7 : ... .. . ... ... ... : ... .. . ... ... ... : ... .. . ... : ... .. . ... : ... .. . ... ...
ROW E8 : ... .. . ... ... ... : ... .. . ... ... ... : ... .. . ... : ... .. . ... : ... .. . ... ...
ROW E9 : ... .. . ... ... ... : ... .. . ... ... ... : --- .. . ... : ... .. . ... : ... .. . ... ...
ROW EA : ... .. . ... ... ... : ... .. . ... ... ... : ... .. . ... : ... .. . ... : ... .. . ... ...
ROW EB : ... .. . ... ... ... : ... .. . ... ... ... : ... .. . ... : ... .. . ... : ... .. . ... ...
ROW EC : F-3 00 B P80 ... ... : F-4 00 B P82 ... ... : ... .. . ... : ... .. . ... : ... .. . ... ...
ROW ED : ... .. A ... ... ... : ... .. A ... ... ... : ... .. . ... : ... .. . ... : ... .. . ... ...
ROW EE : ... .. 9 ... ... ... : ... .. 9 ... ... ... : ... .. . ... : ... .. . ... : ... .. . ... ...
ROW EF : ... .. 8 ... ... ... : ... .. 8 ... ... ... : ... .. . ... : ... .. . ... : ... .. . ... ...
ROW F0 : ... .. 7 ... ... ... : ... .. 7 ... ... ... : ... .. . ... : ... .. . ... : ... .. . ... ...
ROW F1 : ... .. 6 ... ... ... : ... .. 6 ... ... ... : ... .. . ... : ... .. . ... : ... .. . ... ...
ROW F2 : D-3 00 B P80 ... ... : D-4 00 B P83 ... ... : B-3 00 . ... : 6-# 00 F ... : ... .. . ... ...
ROW F3 : ... .. A ... ... ... : ... .. A ... ... ... : ... .. . ... : ... .. C ... : ... .. . ... ...
ROW F4 : ... .. 9 ... ... ... : ... .. 9 ... ... ... : ... .. . ... : ... .. 8 ... : ... .. . ... ...
ROW F5 : ... .. 8 ... ... ... : ... .. 8 ... ... ... : ... .. . ... : ... .. 4 ... : ... .. . ... ...
ROW F6 : ... .. 7 ... ... ... : ... .. 7 ... ... ... : ... .. . ... : ... .. 0 ... : ... .. . ... ...
ROW F7 : ... .. 6 ... ... ... : ... .. 6 ... ... ... : ... .. . ... : ... .. . ... : ... .. . ... ...
ROW F8 : F-3 00 B P80 ... ... : F-4 00 B P82 ... ... : G#3 00 . ... : D-# 00 6 ... : ... .. . ... ...
ROW F9 : ... .. A ... ... ... : ... .. A ... ... ... : ... .. . ... : ... .. . ... : ... .. . ... ...
ROW FA : ... .. 9 ... ... ... : ... .. 9 ... ... ... : ... .. . ... : ... .. . ... : ... .. . ... ...
ROW FB : ... .. 8 ... ... ... : ... .. 8 ... ... ... : ... .. . ... : ... .. . ... : ... .. . ... ...
ROW FC : ... .. 7 ... ... ... : ... .. 7 ... ... ... : ... .. . ... : ... .. . ... : ... .. . ... ...
ROW FD : ... .. 6 ... ... ... : ... .. 6 ... ... ... : ... .. . ... : ... .. 0 ... : ... .. . ... ...
ROW FE : ... .. 1 ... ... ... : ... .. 1 ... ... ... : ... .. . ... : ... .. . ... : ... .. . ... ...
ROW FF : ... .. . ... ... ... : ... .. . ... ... ... : ... .. . ... : ... .. . ... : ... .. . ... ...

PATTERN 05
ROW 00 : ... .. . ... ... ... : ... .. . ... ... ... : ... .. . ... : ... .. . ... : ... .. . ... ...
ROW 01 : ... .. . ... ... ... : ... .. . ... ... ... : --- .. . ... : ... .. . ... : ... .. . ... ...
ROW 02 : ... .. . ... ... ... : ... .. . ... ... ... : ... .. . ... : ... .. . ... : ... .. . ... ...
ROW 03 : ... .. . ... ... ... : ... .. . ... ... ... : ... .. . ... : ... .. . ... : ... .. . ... ...
ROW 04 : D-3 00 B P80 ... ... : D-4 00 B P83 ... ... : ... .. . ... : ... .. . ... : ... .. . ... ...
ROW 05 : ... .. A ... ... ... : ... .. A ... ... ... : ... .. . ... : ... .. . ... : ... .. . ... ...
ROW 06 : ... .. 9 ... ... ... : ... .. 9 ... ... ... : ... .. . ... : ... .. . ... : ... .. . ... ...
ROW 07 : ... .. 8 ... ... ... : ... .. 8 ... ... ... : ... .. . ... : ... .. . ... : ... .. . ... ...
ROW 08 : ... .. 7 ... ... ... : ... .. 7 ... ... ... : ... .. . ... : ... .. . ... : ... .. . ... ...
ROW 09 : ... .. 6 ... ... ... : ... .. 6 ... ... ... : ... .. . ... : ... .. . ... : ... .. . ... ...
ROW 0A : D#3 00 B P80 ... ... : D#4 00 B P83 ... ... : F-3 00 . ... : 6-# 00 F ... : ... .. . ... ...
ROW 0B : ... .. A ... ... ... : ... .. A ... ... ... : ... .. . ... : ... .. D ... : ... .. . ... ...
ROW 0C : ... .. 9 ... ... ... : ... .. 9 ... ... ... : ... .. . ... : ... .. 9 ... : ... .. . ... ...
ROW 0D : ... .. 8 ... ... ... : ... .. 8 ... ... ... : ... .. . ... : ... .. 5 ... : ... .. . ... ...
ROW 0E : ... .. 7 ... ... ... : ... .. 7 ... ... ... : ... .. . ... : ... .. 1 ... : ... .. . ... ...
ROW 0F : ... .. 6 ... ... ... : ... .. 6 ... ... ... : ... .. . ... : ... .. 0 ... : ... .. . ... ...
ROW 10 : ... .. 5 ... ... ... : ... .. 5 ... ... ... : D#3 00 . ... : D-# 00 6 ... : ... .. . ... ...
ROW 11 : ... .. 4 ... ... ... : ... .. 4 ... ... ... : ... .. . ... : ... .. . ... : ... .. . ... ...
ROW 12 : ... .. 3 ... ... ... : ... .. 3 ... ... ... : ... .. . ... : ... .. . ... : ... .. . ... ...
ROW 13 : ... .. 2 ... ... ... : ... .. 2 ... ... ... : ... .. . ... : ... .. . ... : ... .. . ... ...
ROW 14 : ... .. 1 ... ... ... : ... .. 1 ... ... ... : ... .. . ... : ... .. . ... : ... .. . ... ...
ROW 15 : ... .. . ... ... ... : ... .. . ... ... ... : ... .. . ... : ... .. 0 ... : ... .. . ... ...
ROW 16 : ... .. . ... ... ... : ... .. . ... ... ... : ... .. . ... : ... .. . ... : ... .. . ... ...
ROW 17 : ... .. . ... ... ... : ... .. . ... ... ... : ... .. . ... : ... .. . ... : ... .. . ... ...
ROW 18 : ... .. . ... ... ... : ... .. . ... ... ... : ... .. . ... : ... .. . ... : ... .. . ... ...
ROW 19 : ... .. . ... ... ... : ... .. . ... ... ... : --- .. . ... : ... .. . ... : ... .. . ... ...
ROW 1A : ... .. . ... ... ... : ... .. . ... ... ... : ... .. . ... : ... .. . ... : ... .. . ... ...
ROW 1B : ... .. . ... ... ... : ... .. . ... ... ... : ... .. . ... : ... .. . ... : ... .. . ... ...
ROW 1C : ... .. . ... ... ... : ... .. . ... ... ... : ... .. . ... : ... .. . ... : ... .. . ... ...
ROW 1D : ... .. . ... ... ... : ... .. . ... ... ... : ... .. . ... : ... .. . ... : ... .. . ... ...
ROW 1E : ... .. . ... ... ... : ... .. . ... ... ... : ... .. . ... : ... .. . ... : ... .. . ... ...
ROW 1F : ... .. . ... ... ... : ... .. . ... ... ... : ... .. . ... : ... .. . ... : ... .. . ... ...
ROW 20 : ... .. . ... ... ... : ... .. . ... ... ... : ... .. . ... : ... .. . ... : ... .. . ... ...
ROW 21 : ... .. . ... ... ... : ... .. . ... ... ... : ... .. . ... : ... .. . ... : ... .. . ... ...
ROW 22 : G#3 00 B P80 ... ... : G#4 00 B P83 ... ... : C#3 00 . ... : 6-# 00 F ... : ... .. . ... ...
ROW 23 : ... .. A ... ... ... : ... .. A ... ... ... : ... .. . ... : ... .. D ... : ... .. . ... ...
ROW 24 : ... .. 9 ... ... ... : ... .. 9 ... ... ... : ... .. . ... : ... .. 9 ... : ... .. . ... ...
ROW 25 : ... .. 8 ... ... ... : ... .. 8 ... ... ... : ... .. . ... : ... .. 5 ... : ... .. . ... ...
ROW 26 : ... .. 7 ... ... ... : ... .. 7 ... ... ... : ... .. . ... : ... .. 1 ... : ... .. . ... ...
ROW 27 : ... .. 6 ... ... ... : ... .. 6 ... ... ... : ... .. . ... : ... .. 0 ... : ... .. . ... ...
ROW 28 : F-3 00 B P80 ... ... : F-4 00 B P82 ... ... : B-2 00 . ... : D-# 00 6 ... : ... .. . ... ...
ROW 29 : ... .. A ... ... ... : ... .. A ... ... ... : ... .. . ... : ... .. . ... : ... .. . ... ...
ROW 2A : ... .. 9 ... ... ... : ... .. 9 ... ... ... : ... .. . ... : ... .. . ... : ... .. . ... ...
ROW 2B : ... .. 8 ... ... ... : ... .. 8 ... ... ... : ... .. . ... : ... .. . ... : ... .. . ... ...
ROW 2C : ... .. 7 ... ... ... : ... .. 7 ... ... ... : ... .. . ... : ... .. . ... : ... .. . ... ...
ROW 2D : ... .. 6 ... ... ... : ... .. 6 ... ... ... : ... .. . ... : ... .. 0 ... : ... .. . ... ...
ROW 2E : ... .. 5 ... ... ... : ... .. 5 ... ... ... : ... .. . ... : ... .. . ... : ... .. . ... ...
ROW 2F : ... .. 4 ... ... ... : ... .. 4 ... ... ... : ... .. . ... : ... .. . ... : ... .. . ... ...
ROW 30 : ... .. 3 ... ... ... : ... .. 3 ... ... ... : ... .. . ... : ... .. . ... : ... .. . ... ...
ROW 31 : ... .. 2 ... ... ... : ... .. 2 ... ... ... : --- .. . ... : ... .. . ... : ... .. . ... ...
ROW 32 : ... .. 1 ... ... ... : ... .. 1 ... ... ... : ... .. . ... : ... .. . ... : ... .. . ... ...
ROW 33 : ... .. . ... ... ... : ... .. . ... ... ... : ... .. . ... : ... .. . ... : ... .. . ... ...
ROW 34 : ... .. . ... ... ... : ... .. . ... ... ... : ... .. . ... : ... .. . ... : ... .. . ... ...
ROW 35 : ... .. . ... ... ... : ... .. . ... ... ... : ... .. . ... : ... .. . ... : ... .. . ... ...
ROW 36 : ... .. . ... ... ... : ... .. . ... ... ... : ... .. . ... : ... .. . ... : ... .. . ... ...
ROW 37 : ... .. . ... ... ... : ... .. . ... ... ... : ... .. . ... : ... .. . ... : ... .. . ... ...
ROW 38 : ... .. . ... ... ... : ... .. . ... ... ... : ... .. . ... : ... .. . ... : ... .. . ... ...
ROW 39 : ... .. . ... ... ... : ... .. . ... ... ... : ... .. . ... : ... .. . ... : ... .. . ... ...
ROW 3A : D#3 00 B P80 ... ... : D#4 00 B P83 ... ... : G#2 00 . ... : 6-# 00 F ... : ... .. . ... ...
ROW 3B : ... .. A ... ... ... : ... .. A ... ... ... : ... .. . ... : ... .. D ... : ... .. . ... ...
ROW 3C : ... .. 9 ... ... ... : ... .. 9 ... ... ... : ... .. . ... : ... .. 9 ... : ... .. . ... ...
ROW 3D : ... .. 8 ... ... ... : ... .. 8 ... ... ... : ... .. . ... : ... .. 5 ... : ... .. . ... ...
ROW 3E : ... .. 7 ... ... ... : ... .. 7 ... ... ... : ... .. . ... : ... .. 1 ... : ... .. . ... ...
ROW 3F : ... .. 6 ... ... ... : ... .. 6 ... ... ... : ... .. . ... : ... .. 0 ... : ... .. . ... ...
ROW 40 : C#3 00 B P80 ... ... : C#4 00 B P82 ... ... : G#2 00 . P7F : D-# 00 6 ... : ... .. . ... ...
ROW 41 : ... .. A ... ... ... : ... .. A ... ... ... : ... .. . ... : ... .. . ... : ... .. . ... ...
ROW 42 : ... .. 9 ... ... ... : ... .. 9 ... ... ... : ... .. . ... : ... .. . ... : ... .. . ... ...
ROW 43 : ... .. 8 ... ... ... : ... .. 8 ... ... ... : ... .. . ... : ... .. . ... : ... .. . ... ...
ROW 44 : ... .. 7 ... ... ... : ... .. 7 ... ... ... : ... .. . ... : ... .. . ... : ... .. . ... ...
ROW 45 : ... .. 6 ... ... ... : ... .. 6 ... ... ... : ... .. . ... : ... .. 0 ... : ... .. . ... ...
ROW 46 : D#3 00 B P80 ... ... : D#4 00 B P83 ... ... : ... .. . ... : ... .. . ... : ... .. . ... ...
ROW 47 : ... .. A ... ... ... : ... .. A ... ... ... : ... .. . ... : ... .. . ... : ... .. . ... ...
ROW 48 : ... .. 9 ... ... ... : ... .. 9 ... ... ... : ... .. . ... : ... .. . ... : ... .. . ... ...
ROW 49 : ... .. 8 ... ... ... : ... .. 8 ... ... ... : --- .. . ... : ... .. . ... : ... .. . ... ...
ROW 4A : C#3 00 B P80 ... ... : C#4 00 B P82 ... ... : ... .. . ... : ... .. . ... : ... .. . ... ...
ROW 4B : ... .. A ... ... ... : ... .. A ... ... ... : ... .. . ... : ... .. . ... : ... .. . ... ...
ROW 4C : ... .. 9 ... ... ... : ... .. 9 ... ... ... : ... .. . ... : ... .. . ... : ... .. . ... ...
ROW 4D : ... .. 8 ... ... ... : ... .. 8 ... ... ... : ... .. . ... : ... .. . ... : ... .. . ... ...
ROW 4E : C-3 00 B P80 ... ... : C-4 00 B P83 ... ... : ... .. . ... : ... .. . ... : ... .. . ... ...
ROW 4F : ... .. A ... ... ... : ... .. A ... ... ... : ... .. . ... : ... .. . ... : ... .. . ... ...
ROW 50 : ... .. 9 ... ... ... : ... .. 9 ... ... ... : ... .. . ... : ... .. . ... : ... .. . ... ...
ROW 51 : ... .. 8 ... ... ... : ... .. 8 ... ... ... : ... .. . ... : ... .. . ... : ... .. . ... ...
ROW 52 : B-2 00 B P80 ... ... : B-3 00 B P82 ... ... : B-2 00 . P80 : 6-# 00 F ... : ... .. . ... ...
ROW 53 : ... .. A ... ... ... : ... .. A ... ... ... : ... .. . ... : ... .. D ... : ... .. . ... ...
ROW 54 : ... .. 9 ... ... ... : ... .. 9 ... ... ... : ... .. . ... : ... .. 9 ... : ... .. . ... ...
ROW 55 : ... .. 8 ... ... ... : ... .. 8 ... ... ... : ... .. . ... : ... .. 5 ... : ... .. . ... ...
ROW 56 : ... .. 7 ... ... ... : ... .. 7 ... ... ... : ... .. . ... : ... .. 1 ... : ... .. . ... ...
ROW 57 : ... .. 6 ... ... ... : ... .. 6 ... ... ... : ... .. . ... : ... .. 0 ... : ... .. . ... ...
ROW 58 : C#3 00 B P80 ... ... : C#4 00 B P82 ... ... : C-3 00 . ... : D-# 00 6 ... : ... .. . ... ...
ROW 59 : ... .. A ... ... ... : ... .. A ... ... ... : ... .. . ... : ... .. . ... : ... .. . ... ...
ROW 5A : ... .. 9 ... ... ... : ... .. 9 ... ... ... : ... .. . ... : ... .. . ... : ... .. . ... ...
ROW 5B : ... .. 8 ... ... ... : ... .. 8 ... ... ... : ... .. . ... : ... .. . ... : ... .. . ... ...
ROW 5C : ... .. 7 ... ... ... : ... .. 7 ... ... ... : ... .. . ... : ... .. . ... : ... .. . ... ...
ROW 5D : ... .. 6 ... ... ... : ... .. 6 ... ... ... : ... .. . ... : ... .. 0 ... : ... .. . ... ...
ROW 5E : ... .. 1 ... ... ... : ... .. 1 ... ... ... : ... .. . ... : ... .. . ... : ... .. . ... ...
ROW 5F : ... .. . ... ... ... : ... .. . ... ... ... : ... .. . ... : ... .. . ... : ... .. . ... ...
ROW 60 : ... .. . ... ... ... : ... .. . ... ... ... : ... .. . ... : ... .. . ... : ... .. . ... ...
ROW 61 : ... .. . ... ... ... : ... .. . ... ... ... : --- .. . ... : ... .. . ... : ... .. . ... ...
ROW 62 : ... .. . ... ... ... : ... .. . ... ... ... : ... .. . ... : ... .. . ... : ... .. . ... ...
ROW 63 : ... .. . ... ... ... : ... .. . ... ... ... : ... .. . ... : ... .. . ... : ... .. . ... ...
ROW 64 : C-3 00 B P80 ... ... : C-4 00 B P83 ... ... : ... .. . ... : ... .. . ... : ... .. . ... ...
ROW 65 : ... .. A ... ... ... : ... .. A ... ... ... : ... .. . ... : ... .. . ... : ... .. . ... ...
ROW 66 : ... .. 9 ... ... ... : ... .. 9 ... ... ... : ... .. . ... : ... .. . ... : ... .. . ... ...
ROW 67 : ... .. 8 ... ... ... : ... .. 8 ... ... ... : ... .. . ... : ... .. . ... : ... .. . ... ...
ROW 68 : ... .. 7 ... ... ... : ... .. 7 ... ... ... : ... .. . ... : ... .. . ... : ... .. . ... ...
ROW 69 : ... .. 6 ... ... ... : ... .. 6 ... ... ... : ... .. . ... : ... .. . ... : ... .. . ... ...
ROW 6A : B-2 00 B P80 ... ... : B-3 00 B P82 ... ... : C#3 00 . ... : 6-# 00 F ... : ... .. . ... ...
ROW 6B : ... .. A ... ... ... : ... .. A ... ... ... : ... .. . ... : ... .. D ... : ... .. . ... ...
ROW 6C : ... .. 9 ... ... ... : ... .. 9 ... ... ... : ... .. . ... : ... .. 9 ... : ... .. . ... ...
ROW 6D : ... .. 8 ... ... ... : ... .. 8 ... ... ... : ... .. . ... : ... .. 5 ... : ... .. . ... ...
ROW 6E : ... .. 7 ... ... ... : ... .. 7 ... ... ... : ... .. . ... : ... .. 1 ... : ... .. . ... ...
ROW 6F : ... .. 6 ... ... ... : ... .. 6 ... ... ... : ... .. . ... : ... .. 0 ... : ... .. . ... ...
ROW 70 : ... .. 5 ... ... ... : ... .. 5 ... ... ... : D#3 00 . ... : D-# 00 6 ... : ... .. . ... ...
ROW 71 : ... .. 4 ... ... ... : ... .. 4 ... ... ... : ... .. . ... : ... .. . ... : ... .. . ... ...
ROW 72 : ... .. 3 ... ... ... : ... .. 3 ... ... ... : ... .. . ... : ... .. . ... : ... .. . ... ...
ROW 73 : ... .. 2 ... ... ... : ... .. 2 ... ... ... : ... .. . ... : ... .. . ... : ... .. . ... ...
ROW 74 : ... .. 1 ... ... ... : ... .. 1 ... ... ... : ... .. . ... : ... .. . ... : ... .. . ... ...
ROW 75 : ... .. . ... ... ... : ... .. . ... ... ... : ... .. . ... : ... .. 0 ... : ... .. . ... ...
ROW 76 : ... .. . ... ... ... : ... .. . ... ... ... : ... .. . ... : ... .. . ... : ... .. . ... ...
ROW 77 : ... .. . ... ... ... : ... .. . ... ... ... : ... .. . ... : ... .. . ... : ... .. . ... ...
ROW 78 : ... .. . ... ... ... : ... .. . ... ... ... : ... .. . ... : ... .. . ... : ... .. . ... ...
ROW 79 : ... .. . ... ... ... : ... .. . ... ... ... : --- .. . ... : ... .. . ... : ... .. . ... ...
ROW 7A : ... .. . ... ... ... : ... .. . ... ... ... : ... .. . ... : ... .. . ... : ... .. . ... ...
ROW 7B : ... .. . ... ... ... : ... .. . ... ... ... : ... .. . ... : ... .. . ... : ... .. . ... ...
ROW 7C : ... .. . ... ... ... : ... .. . ... ... ... : ... .. . ... : ... .. . ... : ... .. . ... ...
ROW 7D : ... .. . ... ... ... : ... .. . ... ... ... : ... .. . ... : ... .. . ... : ... .. . ... ...
ROW 7E : ... .. . ... ... ... : ... .. . ... ... ... : ... .. . ... : ... .. . ... : ... .. . ... ...
ROW 7F : ... .. . ... ... ... : ... .. . ... ... ... : ... .. . ... : ... .. . ... : ... .. . ... ...
ROW 80 : ... .. . ... ... ... : ... .. . ... ... ... : ... .. . ... : ... .. . ... : ... .. . ... ...
ROW 81 : ... .. . ... ... ... : ... .. . ... ... ... : ... .. . ... : ... .. . ... : ... .. . ... ...
ROW 82 : ... .. . ... ... ... : ... .. . ... ... ... : C-3 00 . ... : 6-# 00 F ... : ... .. . ... ...
ROW 83 : ... .. . ... ... ... : ... .. . ... ... ... : ... .. . ... : ... .. D ... : ... .. . ... ...
ROW 84 : ... .. . ... ... ... : ... .. . ... ... ... : ... .. . ... : ... .. 9 ... : ... .. . ... ...
ROW 85 : ... .. . ... ... ... : ... .. . ... ... ... : ... .. . ... : ... .. 5 ... : ... .. . ... ...
ROW 86 : ... .. . ... ... ... : ... .. . ... ... ... : ... .. . ... : ... .. 1 ... : ... .. . ... ...
ROW 87 : ... .. . ... ... ... : ... .. . ... ... ... : ... .. . ... : ... .. 0 ... : ... .. . ... ...
ROW 88 : B-2 00 B P80 ... ... : B-3 00 B P82 ... ... : B-2 00 . ... : D-# 00 6 ... : ... .. . ... ...
ROW 89 : ... .. A ... ... ... : ... .. A ... ... ... : ... .. . ... : ... .. . ... : ... .. . ... ...
ROW 8A : ... .. 9 ... ... ... : ... .. 9 ... ... ... : ... .. . ... : ... .. . ... : ... .. . ... ...
ROW 8B : ... .. 8 ... ... ... : ... .. 8 ... ... ... : ... .. . ... : ... .. . ... : ... .. . ... ...
ROW 8C : ... .. 7 ... ... ... : ... .. 7 ... ... ... : ... .. . ... : ... .. . ... : ... .. . ... ...
ROW 8D : ... .. 6 ... ... ... : ... .. 6 ... ... ... : ... .. . ... : ... .. 0 ... : ... .. . ... ...
ROW 8E : ... .. 5 ... ... ... : ... .. 5 ... ... ... : ... .. . ... : ... .. . ... : ... .. . ... ...
ROW 8F : ... .. 4 ... ... ... : ... .. 4 ... ... ... : ... .. . ... : ... .. . ... : ... .. . ... ...
ROW 90 : ... .. 3 ... ... ... : ... .. 3 ... ... ... : ... .. . ... : ... .. . ... : ... .. . ... ...
ROW 91 : ... .. 2 ... ... ... : ... .. 2 ... ... ... : --- .. . ... : ... .. . ... : ... .. . ... ...
ROW 92 : ... .. 1 ... ... ... : ... .. 1 ... ... ... : ... .. . ... : ... .. . ... : ... .. . ... ...
ROW 93 : ... .. . ... ... ... : ... .. . ... ... ... : ... .. . ... : ... .. . ... : ... .. . ... ...
ROW 94 : ... .. . ... ... ... : ... .. . ... ... ... : ... .. . ... : ... .. . ... : ... .. . ... ...
ROW 95 : ... .. . ... ... ... : ... .. . ... ... ... : ... .. . ... : ... .. . ... : ... .. . ... ...
ROW 96 : ... .. . ... ... ... : ... .. . ... ... ... : ... .. . ... : ... .. . ... : ... .. . ... ...
ROW 97 : ... .. . ... ... ... : ... .. . ... ... ... : ... .. . ... : ... .. . ... : ... .. . ... ...
ROW 98 : ... .. . ... ... ... : ... .. . ... ... ... : ... .. . ... : ... .. . ... : ... .. . ... ...
ROW 99 : ... .. . ... ... ... : ... .. . ... ... ... : ... .. . ... : ... .. . ... : ... .. . ... ...
ROW 9A : C-3 00 B P80 ... ... : C-4 00 B P83 ... ... : G#2 00 . P7F : 6-# 00 F ... : ... .. . ... ...
ROW 9B : ... .. A ... ... ... : ... .. A ... ... ... : ... .. . ... : ... .. D ... : ... .. . ... ...
ROW 9C : ... .. 9 ... ... ... : ... .. 9 ... ... ... : ... .. . ... : ... .. 9 ... : ... .. . ... ...
ROW 9D : ... .. 8 ... ... ... : ... .. 8 ... ... ... : ... .. . ... : ... .. 5 ... : ... .. . ... ...
ROW 9E : ... .. 7 ... ... ... : ... .. 7 ... ... ... : ... .. . ... : ... .. 1 ... : ... .. . ... ...
ROW 9F : ... .. 6 ... ... ... : ... .. 6 ... ... ... : ... .. . ... : ... .. 0 ... : ... .. . ... ...
ROW A0 : ... .. . ... ... ... : ... .. . ... ... ... : C#3 00 . P80 : D-# 00 6 ... : ... .. . ... ...
ROW A1 : ... .. . ... ... ... : ... .. . ... ... ... : ... .. . ... : ... .. . ... : ... .. . ... ...
ROW A2 : ... .. . ... ... ... : ... .. . ... ... ... : ... .. . ... : ... .. . ... : ... .. . ... ...
ROW A3 : ... .. . ... ... ... : ... .. . ... ... ... : ... .. . ... : ... .. . ... : ... .. . ... ...
ROW A4 : ... .. . ... ... ... : ... .. . ... ... ... : ... .. . ... : ... .. . ... : ... .. . ... ...
ROW A5 : ... .. . ... ... ... : ... .. . ... ... ... : ... .. . ... : ... .. 0 ... : ... .. . ... ...
ROW A6 : ... .. . ... ... ... : ... .. . ... ... ... : ... .. . ... : ... .. . ... : ... .. . ... ...
ROW A7 : ... .. . ... ... ... : ... .. . ... ... ... : ... .. . ... : ... .. . ... : ... .. . ... ...
ROW A8 : ... .. . ... ... ... : ... .. . ... ... ... : ... .. . ... : ... .. . ... : ... .. . ... ...
ROW A9 : ... .. . ... ... ... : ... .. . ... ... ... : --- .. . ... : ... .. . ... : ... .. . ... ...
ROW AA : ... .. . ... ... ... : ... .. . ... ... ... : ... .. . ... : ... .. . ... : ... .. . ... ...
ROW AB : ... .. . ... ... ... : ... .. . ... ... ... : ... .. . ... : ... .. . ... : ... .. . ... ...
ROW AC : C#3 00 B P80 ... ... : C#4 00 B P82 ... ... : ... .. . ... : ... .. . ... : ... .. . ... ...
ROW AD : ... .. A ... ... ... : ... .. A ... ... ... : ... .. . ... : ... .. . ... : ... .. . ... ...
ROW AE : ... .. 9 ... ... ... : ... .. 9 ... ... ... : ... .. . ... : ... .. . ... : ... .. . ... ...
ROW AF : ... .. 8 ... ... ... : ... .. 8 ... ... ... : ... .. . ... : ... .. . ... : ... .. . ... ...
ROW B0 : ... .. 7 ... ... ... : ... .. 7 ... ... ... : ... .. . ... : ... .. . ... : ... .. . ... ...
ROW B1 : ... .. 6 ... ... ... : ... .. 6 ... ... ... : ... .. . ... : ... .. . ... : ... .. . ... ...
ROW B2 : ... .. 5 ... ... ... : ... .. 5 ... ... ... : D#3 00 . ... : 6-# 00 F ... : ... .. . ... ...
ROW B3 : ... .. 4 ... ... ... : ... .. 4 ... ... ... : ... .. . ... : ... .. D ... : ... .. . ... ...
ROW B4 : ... .. 3 ... ... ... : ... .. 3 ... ... ... : ... .. . ... : ... .. 9 ... : ... .. . ... ...
ROW B5 : ... .. 2 ... ... ... : ... .. 2 ... ... ... : ... .. . ... : ... .. 5 ... : ... .. . ... ...
ROW B6 : ... .. 1 ... ... ... : ... .. 1 ... ... ... : ... .. . ... : ... .. 1 ... : ... .. . ... ...
ROW B7 : ... .. . ... ... ... : ... .. . ... ... ... : ... .. . ... : ... .. 0 ... : ... .. . ... ...
ROW B8 : C#3 00 B P80 ... ... : C#4 00 B P83 ... ... : F#3 00 . ... : D-# 00 6 ... : ... .. . ... ...
ROW B9 : ... .. A ... ... ... : ... .. A ... ... ... : ... .. . ... : ... .. . ... : ... .. . ... ...
ROW BA : ... .. 9 ... ... ... : ... .. 9 ... ... ... : ... .. . ... : ... .. . ... : ... .. . ... ...
ROW BB : ... .. 8 ... ... ... : ... .. 8 ... ... ... : ... .. . ... : ... .. . ... : ... .. . ... ...
ROW BC : ... .. 7 ... ... ... : ... .. 7 ... ... ... : ... .. . ... : ... .. . ... : ... .. . ... ...
ROW BD : ... .. 6 ... ... ... : ... .. 6 ... ... ... : ... .. . ... : ... .. 0 ... : ... .. . ... ...
ROW BE : ... .. 5 ... ... ... : ... .. 5 ... ... ... : ... .. . ... : ... .. . ... : ... .. . ... ...
ROW BF : ... .. 4 ... ... ... : ... .. 4 ... ... ... : ... .. . ... : ... .. . ... : ... .. . ... ...
ROW C0 : ... .. 3 ... ... ... : ... .. 3 ... ... ... : ... .. . ... : ... .. . ... : ... .. . ... ...
ROW C1 : ... .. 2 ... ... ... : ... .. 2 ... ... ... : --- .. . ... : ... .. . ... : ... .. . ... ...
ROW C2 : ... .. 1 ... ... ... : ... .. 1 ... ... ... : ... .. . ... : ... .. . ... : ... .. . ... ...
ROW C3 : ... .. . ... ... ... : ... .. . ... ... ... : ... .. . ... : ... .. . ... : ... .. . ... ...
ROW C4 : ... .. . ... ... ... : ... .. . ... ... ... : ... .. . ... : ... .. . ... : ... .. . ... ...
ROW C5 : ... .. . ... ... ... : ... .. . ... ... ... : ... .. . ... : ... .. . ... : ... .. . ... ...
ROW C6 : ... .. . ... ... ... : ... .. . ... ... ... : ... .. . ... : ... .. . ... : ... .. . ... ...
ROW C7 : ... .. . ... ... ... : ... .. . ... ... ... : ... .. . ... : ... .. . ... : ... .. . ... ...
ROW C8 : ... .. . ... ... ... : ... .. . ... ... ... : ... .. . ... : ... .. . ... : ... .. . ... ...
ROW C9 : ... .. . ... ... ... : ... .. . ... ... ... : ... .. . ... : ... .. . ... : ... .. . ... ...
ROW CA : C#3 00 B P80 ... ... : C#4 00 B P82 ... ... : G#3 00 . ... : 6-# 00 F ... : ... .. . ... ...
ROW CB : ... .. A ... ... ... : ... .. A ... ... ... : ... .. . ... : ... .. D ... : ... .. . ... ...
ROW CC : ... .. 9 ... ... ... : ... .. 9 ... ... ... : ... .. . ... : ... .. 9 ... : ... .. . ... ...
ROW CD : ... .. 8 ... ... ... : ... .. 8 ... ... ... : ... .. . ... : ... .. 5 ... : ... .. . ... ...
ROW CE : ... .. 7 ... ... ... : ... .. 7 ... ... ... : ... .. . ... : ... .. 1 ... : ... .. . ... ...
ROW CF : ... .. 6 ... ... ... : ... .. 6 ... ... ... : ... .. . ... : ... .. 0 ... : ... .. . ... ...
ROW D0 : ... .. 5 ... ... ... : ... .. 5 ... ... ... : C#3 00 . ... : D-# 00 6 ... : ... .. . ... ...
ROW D1 : ... .. 4 ... ... ... : ... .. 4 ... ... ... : ... .. . ... : ... .. . ... : ... .. . ... ...
ROW D2 : ... .. 3 ... ... ... : ... .. 3 ... ... ... : ... .. . ... : ... .. . ... : ... .. . ... ...
ROW D3 : ... .. 2 ... ... ... : ... .. 2 ... ... ... : ... .. . ... : ... .. . ... : ... .. . ... ...
ROW D4 : ... .. 1 ... ... ... : ... .. 1 ... ... ... : ... .. . ... : ... .. . ... : ... .. . ... ...
ROW D5 : ... .. . ... ... ... : ... .. . ... ... ... : ... .. . ... : ... .. 0 ... : ... .. . ... ...
ROW D6 : ... .. . ... ... ... : ... .. . ... ... ... : ... .. . ... : ... .. . ... : ... .. . ... ...
ROW D7 : ... .. . ... ... ... : ... .. . ... ... ... : ... .. . ... : ... .. . ... : ... .. . ... ...
ROW D8 : ... .. . ... ... ... : ... .. . ... ... ... : ... .. . ... : ... .. . ... : ... .. . ... ...
ROW D9 : ... .. . ... ... ... : ... .. . ... ... ... : --- .. . ... : ... .. . ... : ... .. . ... ...
ROW DA : ... .. . ... ... ... : ... .. . ... ... ... : ... .. . ... : ... .. . ... : ... .. . ... ...
ROW DB : ... .. . ... ... ... : ... .. . ... ... ... : ... .. . ... : ... .. . ... : ... .. . ... ...
ROW DC : ... .. . ... ... ... : ... .. . ... ... ... : ... .. . ... : ... .. . ... : ... .. . ... ...
ROW DD : ... .. . ... ... ... : ... .. . ... ... ... : ... .. . ... : ... .. . ... : ... .. . ... ...
ROW DE : ... .. . ... ... ... : ... .. . ... ... ... : ... .. . ... : ... .. . ... : ... .. . ... ...
ROW DF : ... .. . ... ... ... : ... .. . ... ... ... : ... .. . ... : ... .. . ... : ... .. . ... ...
ROW E0 : ... .. . ... ... ... : ... .. . ... ... ... : ... .. . ... : ... .. . ... : ... .. . ... ...
ROW E1 : ... .. . ... ... ... : ... .. . ... ... ... : ... .. . ... : ... .. . ... : ... .. . ... ...
ROW E2 : F#3 00 B P80 ... ... : F#4 00 B P82 ... ... : G#2 00 . P7F : 6-# 00 F ... : ... .. . ... ...
ROW E3 : ... .. A ... ... ... : ... .. A ... ... ... : ... .. . ... : ... .. D ... : ... .. . ... ...
ROW E4 : ... .. 9 ... ... ... : ... .. 9 ... ... ... : ... .. . ... : ... .. 9 ... : ... .. . ... ...
ROW E5 : ... .. 8 ... ... ... : ... .. 8 ... ... ... : ... .. . ... : ... .. 5 ... : ... .. . ... ...
ROW E6 : ... .. 7 ... ... ... : ... .. 7 ... ... ... : ... .. . ... : ... .. 1 ... : ... .. . ... ...
ROW E7 : ... .. 6 ... ... ... : ... .. 6 ... ... ... : ... .. . ... : ... .. 0 ... : ... .. . ... ...
ROW E8 : G-3 00 B P80 ... ... : G-4 00 B P83 ... ... : C#3 00 . P80 : D-# 00 6 ... : ... .. . ... ...
ROW E9 : ... .. A ... ... ... : ... .. A ... ... ... : ... .. . ... : ... .. . ... : ... .. . ... ...
ROW EA : ... .. 9 ... ... ... : ... .. 9 ... ... ... : ... .. . ... : ... .. . ... : ... .. . ... ...
ROW EB : ... .. 8 ... ... ... : ... .. 8 ... ... ... : ... .. . ... : ... .. . ... : ... .. . ... ...
ROW EC : ... .. 7 ... ... ... : ... .. 7 ... ... ... : ... .. . ... : ... .. . ... : ... .. . ... ...
ROW ED : ... .. 6 ... ... ... : ... .. 6 ... ... ... : ... .. . ... : ... .. 0 ... : ... .. . ... ...
ROW EE : ... .. 5 ... ... ... : ... .. 5 ... ... ... : ... .. . ... : ... .. . ... : ... .. . ... ...
ROW EF : ... .. 4 ... ... ... : ... .. 4 ... ... ... : ... .. . ... : ... .. . ... : ... .. . ... ...
ROW F0 : ... .. 3 ... ... ... : ... .. 3 ... ... ... : ... .. . ... : ... .. . ... : ... .. . ... ...
ROW F1 : ... .. 2 ... ... ... : ... .. 2 ... ... ... : --- .. . ... : ... .. . ... : ... .. . ... ...
ROW F2 : ... .. 1 ... ... ... : ... .. 1 ... ... ... : ... .. . ... : ... .. . ... : ... .. . ... ...
ROW F3 : ... .. . ... ... ... : ... .. . ... ... ... : ... .. . ... : ... .. . ... : ... .. . ... ...
ROW F4 : ... .. . ... ... ... : ... .. . ... ... ... : ... .. . ... : ... .. . ... : ... .. . ... ...
ROW F5 : ... .. . ... ... ... : ... .. . ... ... ... : ... .. . ... : ... .. . ... : ... .. . ... ...
ROW F6 : ... .. . ... ... ... : ... .. . ... ... ... : ... .. . ... : ... .. . ... : ... .. . ... ...
ROW F7 : ... .. . ... ... ... : ... .. . ... ... ... : ... .. . ... : ... .. . ... : ... .. . ... ...
ROW F8 : ... .. . ... ... ... : ... .. . ... ... ... : ... .. . ... : ... .. . ... : ... .. . ... ...
ROW F9 : ... .. . ... ... ... : ... .. . ... ... ... : ... .. . ... : ... .. . ... : ... .. . ... ...
ROW FA : G#3 00 B P80 ... ... : G#4 00 B P82 ... ... : F#3 00 . ... : 6-# 00 F ... : ... .. . ... ...
ROW FB : ... .. A ... ... ... : ... .. A ... ... ... : ... .. . ... : ... .. D ... : ... .. . ... ...
ROW FC : ... .. 9 ... ... ... : ... .. 9 ... ... ... : ... .. . ... : ... .. 9 ... : ... .. . ... ...
ROW FD : ... .. 8 ... ... ... : ... .. 8 ... ... ... : ... .. . ... : ... .. 5 ... : ... .. . ... ...
ROW FE : ... .. 7 ... ... ... : ... .. 7 ... ... ... : ... .. . ... : ... .. 1 ... : ... .. . ... ...
ROW FF : ... .. 6 ... ... ... : ... .. 6 ... ... ... : ... .. . ... : ... .. 0 ... : ... .. . ... ...

PATTERN 06
ROW 00 : B-3 00 B P80 ... ... : B-4 00 B P82 ... ... : G-3 00 . ... : D-# 00 6 ... : ... .. . ... ...
ROW 01 : ... .. A ... ... ... : ... .. A ... ... ... : ... .. . ... : ... .. . ... : ... .. . ... ...
ROW 02 : ... .. 9 ... ... ... : ... .. 9 ... ... ... : ... .. . ... : ... .. . ... : ... .. . ... ...
ROW 03 : ... .. 8 ... ... ... : ... .. 8 ... ... ... : ... .. . ... : ... .. . ... : ... .. . ... ...
ROW 04 : ... .. 7 ... ... ... : ... .. 7 ... ... ... : ... .. . ... : ... .. . ... : ... .. . ... ...
ROW 05 : ... .. 6 ... ... ... : ... .. 6 ... ... ... : ... .. . ... : ... .. 0 ... : ... .. . ... ...
ROW 06 : ... .. 1 ... ... ... : ... .. 5 ... ... ... : ... .. . ... : ... .. . ... : ... .. . ... ...
ROW 07 : ... .. . ... ... ... : ... .. 4 ... ... ... : ... .. . ... : ... .. . ... : ... .. . ... ...
ROW 08 : ... .. . ... ... ... : ... .. 3 ... ... ... : ... .. . ... : ... .. . ... : ... .. . ... ...
ROW 09 : ... .. . ... ... ... : ... .. 2 ... ... ... : --- .. . ... : ... .. . ... : ... .. . ... ...
ROW 0A : ... .. . ... ... ... : ... .. 1 ... ... ... : ... .. . ... : ... .. . ... : ... .. . ... ...
ROW 0B : ... .. . ... ... ... : ... .. . ... ... ... : ... .. . ... : ... .. . ... : ... .. . ... ...
ROW 0C : A#3 00 B P81 ... ... : ... .. . ... ... ... : ... .. . ... : ... .. . ... : ... .. . ... ...
ROW 0D : ... .. A ... ... ... : ... .. . ... ... ... : ... .. . ... : ... .. . ... : ... .. . ... ...
ROW 0E : ... .. 9 ... ... ... : ... .. . ... ... ... : ... .. . ... : ... .. . ... : ... .. . ... ...
ROW 0F : ... .. 8 ... ... ... : ... .. . ... ... ... : ... .. . ... : ... .. . ... : ... .. . ... ...
ROW 10 : ... .. 7 ... ... ... : ... .. . ... ... ... : ... .. . ... : ... .. . ... : ... .. . ... ...
ROW 11 : ... .. 6 ... ... ... : ... .. . ... ... ... : ... .. . ... : ... .. . ... : ... .. . ... ...
ROW 12 : B-3 00 B P80 ... ... : ... .. . ... ... ... : F-3 00 . ... : 6-# 00 F ... : ... .. . ... ...
ROW 13 : ... .. A ... ... ... : ... .. . ... ... ... : ... .. . ... : ... .. D ... : ... .. . ... ...
ROW 14 : ... .. 9 ... ... ... : ... .. . ... ... ... : ... .. . ... : ... .. 9 ... : ... .. . ... ...
ROW 15 : ... .. 8 ... ... ... : ... .. . ... ... ... : ... .. . ... : ... .. 5 ... : ... .. . ... ...
ROW 16 : ... .. 7 ... ... ... : ... .. . ... ... ... : ... .. . ... : ... .. 1 ... : ... .. . ... ...
ROW 17 : ... .. 6 ... ... ... : ... .. . ... ... ... : ... .. . ... : ... .. 0 ... : ... .. . ... ...
ROW 18 : G#3 00 B P80 ... ... : G#4 00 B P82 ... ... : C#3 00 . ... : D-# 00 6 ... : ... .. . ... ...
ROW 19 : ... .. A ... ... ... : ... .. A ... ... ... : ... .. . ... : ... .. . ... : ... .. . ... ...
ROW 1A : ... .. 9 ... ... ... : ... .. 9 ... ... ... : ... .. . ... : ... .. . ... : ... .. . ... ...
ROW 1B : ... .. 8 ... ... ... : ... .. 8 ... ... ... : ... .. . ... : ... .. . ... : ... .. . ... ...
ROW 1C : ... .. 7 ... ... ... : ... .. 7 ... ... ... : ... .. . ... : ... .. . ... : ... .. . ... ...
ROW 1D : ... .. 6 ... ... ... : ... .. 6 ... ... ... : ... .. . ... : ... .. 0 ... : ... .. . ... ...
ROW 1E : ... .. 1 ... ... ... : ... .. 5 ... ... ... : ... .. . ... : ... .. . ... : ... .. . ... ...
ROW 1F : ... .. . ... ... ... : ... .. 4 ... ... ... : ... .. . ... : ... .. . ... : ... .. . ... ...
ROW 20 : ... .. . ... ... ... : ... .. 3 ... ... ... : ... .. . ... : ... .. . ... : ... .. . ... ...
ROW 21 : ... .. . ... ... ... : ... .. 2 ... ... ... : --- .. . ... : ... .. . ... : ... .. . ... ...
ROW 22 : ... .. . ... ... ... : ... .. 1 ... ... ... : ... .. . ... : ... .. . ... : ... .. . ... ...
ROW 23 : ... .. . ... ... ... : ... .. . ... ... ... : ... .. . ... : ... .. . ... : ... .. . ... ...
ROW 24 : G#3 00 B P80 ... ... : ... .. . ... ... ... : ... .. . ... : ... .. . ... : ... .. . ... ...
ROW 25 : ... .. A ... ... ... : ... .. . ... ... ... : ... .. . ... : ... .. . ... : ... .. . ... ...
ROW 26 : ... .. 9 ... ... ... : ... .. . ... ... ... : ... .. . ... : ... .. . ... : ... .. . ... ...
ROW 27 : ... .. 8 ... ... ... : ... .. . ... ... ... : ... .. . ... : ... .. . ... : ... .. . ... ...
ROW 28 : ... .. 7 ... ... ... : ... .. . ... ... ... : ... .. . ... : ... .. . ... : ... .. . ... ...
ROW 29 : ... .. 6 ... ... ... : ... .. . ... ... ... : ... .. . ... : ... .. . ... : ... .. . ... ...
ROW 2A : G#3 00 B P80 ... ... : ... .. . ... ... ... : B-2 00 . ... : 6-# 00 F ... : ... .. . ... ...
ROW 2B : ... .. A ... ... ... : ... .. . ... ... ... : ... .. . ... : ... .. D ... : ... .. . ... ...
ROW 2C : ... .. 9 ... ... ... : ... .. . ... ... ... : ... .. . ... : ... .. 9 ... : ... .. . ... ...
ROW 2D : ... .. 8 ... ... ... : ... .. . ... ... ... : ... .. . ... : ... .. 5 ... : ... .. . ... ...
ROW 2E : ... .. 7 ... ... ... : ... .. . ... ... ... : ... .. . ... : ... .. 1 ... : ... .. . ... ...
ROW 2F : ... .. 6 ... ... ... : ... .. . ... ... ... : ... .. . ... : ... .. 0 ... : ... .. . ... ...
ROW 30 : G#3 00 B P80 ... ... : G#4 00 B P83 ... ... : C#3 00 . ... : D-# 00 6 ... : ... .. . ... ...
ROW 31 : ... .. A ... ... ... : ... .. A ... ... ... : ... .. . ... : ... .. . ... : ... .. . ... ...
ROW 32 : ... .. 9 ... ... ... : ... .. 9 ... ... ... : ... .. . ... : ... .. . ... : ... .. . ... ...
ROW 33 : ... .. 8 ... ... ... : ... .. 8 ... ... ... : ... .. . ... : ... .. . ... : ... .. . ... ...
ROW 34 : ... .. 7 ... ... ... : ... .. 7 ... ... ... : ... .. . ... : ... .. . ... : ... .. . ... ...
ROW 35 : ... .. 6 ... ... ... : ... .. 6 ... ... ... : ... .. . ... : ... .. 0 ... : ... .. . ... ...
ROW 36 : ... .. 1 ... ... ... : ... .. 5 ... ... ... : ... .. . ... : ... .. . ... : ... .. . ... ...
ROW 37 : ... .. . ... ... ... : ... .. 4 ... ... ... : ... .. . ... : ... .. . ... : ... .. . ... ...
ROW 38 : ... .. . ... ... ... : ... .. 3 ... ... ... : ... .. . ... : ... .. . ... : ... .. . ... ...
ROW 39 : ... .. . ... ... ... : ... .. 2 ... ... ... : --- .. . ... : ... .. . ... : ... .. . ... ...
ROW 3A : ... .. . ... ... ... : ... .. 1 ... ... ... : ... .. . ... : ... .. . ... : ... .. . ... ...
ROW 3B : ... .. . ... ... ... : ... .. . ... ... ... : ... .. . ... : ... .. . ... : ... .. . ... ...
ROW 3C : G-3 00 B P80 ... ... : ... .. . ... ... ... : ... .. . ... : ... .. . ... : ... .. . ... ...
ROW 3D : ... .. A ... ... ... : ... .. . ... ... ... : ... .. . ... : ... .. . ... : ... .. . ... ...
ROW 3E : ... .. 9 ... ... ... : ... .. . ... ... ... : ... .. . ... : ... .. . ... : ... .. . ... ...
ROW 3F : ... .. 8 ... ... ... : ... .. . ... ... ... : ... .. . ... : ... .. . ... : ... .. . ... ...
ROW 40 : ... .. 7 ... ... ... : ... .. . ... ... ... : ... .. . ... : ... .. . ... : ... .. . ... ...
ROW 41 : ... .. 6 ... ... ... : ... .. . ... ... ... : ... .. . ... : ... .. . ... : ... .. . ... ...
ROW 42 : G#3 00 B P80 ... ... : ... .. . ... ... ... : B-2 00 . ... : 6-# 00 F ... : ... .. . ... ...
ROW 43 : ... .. A ... ... ... : ... .. . ... ... ... : ... .. . ... : ... .. D ... : ... .. . ... ...
ROW 44 : ... .. 9 ... ... ... : ... .. . ... ... ... : ... .. . ... : ... .. 9 ... : ... .. . ... ...
ROW 45 : ... .. 8 ... ... ... : ... .. . ... ... ... : ... .. . ... : ... .. 5 ... : ... .. . ... ...
ROW 46 : ... .. 7 ... ... ... : ... .. . ... ... ... : ... .. . ... : ... .. 1 ... : ... .. . ... ...
ROW 47 : ... .. 6 ... ... ... : ... .. . ... ... ... : ... .. . ... : ... .. 0 ... : ... .. . ... ...
ROW 48 : G-3 00 B P80 ... ... : G-4 00 B P83 ... ... : G#2 00 . P7F : D-# 00 6 ... : ... .. . ... ...
ROW 49 : ... .. A ... ... ... : ... .. A ... ... ... : ... .. . ... : ... .. . ... : ... .. . ... ...
ROW 4A : ... .. 9 ... ... ... : ... .. 9 ... ... ... : ... .. . ... : ... .. . ... : ... .. . ... ...
ROW 4B : ... .. 8 ... ... ... : ... .. 8 ... ... ... : ... .. . ... : ... .. . ... : ... .. . ... ...
ROW 4C : ... .. 7 ... ... ... : ... .. 7 ... ... ... : ... .. . ... : ... .. . ... : ... .. . ... ...
ROW 4D : ... .. 6 ... ... ... : ... .. 6 ... ... ... : ... .. . ... : ... .. 0 ... : ... .. . ... ...
ROW 4E : ... .. 1 ... ... ... : ... .. 1 ... ... ... : ... .. . ... : ... .. . ... : ... .. . ... ...
ROW 4F : ... .. . ... ... ... : ... .. . ... ... ... : ... .. . ... : ... .. . ... : ... .. . ... ...
ROW 50 : ... .. . ... ... ... : ... .. . ... ... ... : ... .. . ... : ... .. . ... : ... .. . ... ...
ROW 51 : ... .. . ... ... ... : ... .. . ... ... ... : --- .. . ... : ... .. . ... : ... .. . ... ...
ROW 52 : ... .. . ... ... ... : ... .. . ... ... ... : ... .. . ... : ... .. . ... : ... .. . ... ...
ROW 53 : ... .. . ... ... ... : ... .. . ... ... ... : ... .. . ... : ... .. . ... : ... .. . ... ...
ROW 54 : C#3 00 B P80 ... ... : C#4 00 B P82 ... ... : ... .. . ... : ... .. . ... : ... .. . ... ...
ROW 55 : ... .. A ... ... ... : ... .. A ... ... ... : ... .. . ... : ... .. . ... : ... .. . ... ...
ROW 56 : ... .. 9 ... ... ... : ... .. 9 ... ... ... : ... .. . ... : ... .. . ... : ... .. . ... ...
ROW 57 : ... .. 8 ... ... ... : ... .. 8 ... ... ... : ... .. . ... : ... .. . ... : ... .. . ... ...
ROW 58 : ... .. 7 ... ... ... : ... .. 7 ... ... ... : ... .. . ... : ... .. . ... : ... .. . ... ...
ROW 59 : ... .. 6 ... ... ... : ... .. 6 ... ... ... : ... .. . ... : ... .. . ... : ... .. . ... ...
ROW 5A : B-2 00 B P80 ... ... : B-3 00 B P82 ... ... : G-2 00 . P80 : 6-# 00 F ... : ... .. . ... ...
ROW 5B : ... .. A ... ... ... : ... .. A ... ... ... : ... .. . ... : ... .. D ... : ... .. . ... ...
ROW 5C : ... .. 9 ... ... ... : ... .. 9 ... ... ... : ... .. . ... : ... .. 9 ... : ... .. . ... ...
ROW 5D : ... .. 8 ... ... ... : ... .. 8 ... ... ... : ... .. . ... : ... .. 5 ... : ... .. . ... ...
ROW 5E : ... .. 7 ... ... ... : ... .. 7 ... ... ... : ... .. . ... : ... .. 1 ... : ... .. . ... ...
ROW 5F : ... .. 6 ... ... ... : ... .. 6 ... ... ... : ... .. . ... : ... .. 0 ... : ... .. . ... ...
ROW 60 : C-4 00 8 P81 V02 ... : G-4 00 8 P83 V02 ... : C-3 00 . ... : F-# 00 0 ... : ... .. . ... ...
ROW 61 : ... .. . ... ... ... : ... .. . ... ... ... : ... .. . ... : ... .. . ... : ... .. . ... ...
ROW 62 : ... .. 7 ... ... ... : ... .. 7 ... ... ... : ... .. . ... : ... .. . ... : ... .. . ... ...
ROW 63 : ... .. . ... ... ... : ... .. . ... ... ... : ... .. . ... : ... .. . ... : ... .. . ... ...
ROW 64 : ... .. . ... ... ... : ... .. . ... ... ... : ... .. . ... : ... .. . ... : ... .. . ... ...
ROW 65 : ... .. . ... ... ... : ... .. . ... ... ... : ... .. . ... : ... .. . ... : ... .. . ... ...
ROW 66 : ... .. 0 ... ... ... : ... .. 0 ... ... ... : ... .. . ... : ... .. . ... : ... .. . ... ...
ROW 67 : ... .. . ... ... ... : ... .. . ... ... ... : ... .. . ... : ... .. . ... : ... .. . ... ...
ROW 68 : ... .. . ... ... ... : ... .. . ... ... ... : ... .. . ... : ... .. . ... : ... .. . ... ...
ROW 69 : ... .. . ... ... ... : ... .. . ... ... ... : --- .. . ... : ... .. . ... : ... .. . ... ...
ROW 6A : ... .. . ... ... ... : ... .. . ... ... ... : ... .. . ... : ... .. . ... : ... .. . ... ...
ROW 6B : ... .. . ... ... ... : ... .. . ... ... ... : ... .. . ... : ... .. . ... : ... .. . ... ...
ROW 6C : D#3 00 8 P80 ... ... : C-4 00 8 P81 ... ... : ... .. . ... : ... .. . ... : ... .. . ... ...
ROW 6D : ... .. . ... ... ... : ... .. . ... ... ... : ... .. . ... : ... .. . ... : ... .. . ... ...
ROW 6E : ... .. 7 ... ... ... : ... .. 7 ... ... ... : ... .. . ... : ... .. . ... : ... .. . ... ...
ROW 6F : ... .. . ... ... ... : ... .. . ... ... ... : ... .. . ... : ... .. . ... : ... .. . ... ...
ROW 70 : ... .. . ... ... ... : ... .. . ... ... ... : ... .. . ... : ... .. . ... : ... .. . ... ...
ROW 71 : ... .. . ... ... ... : ... .. . ... ... ... : ... .. . ... : ... .. . ... : ... .. . ... ...
ROW 72 : G-3 00 8 P80 ... ... : D#4 00 8 P81 ... ... : G-3 00 . ... : C-# 00 E ... : ... .. . ... ...
ROW 73 : ... .. . ... ... ... : ... .. . ... ... ... : ... .. . ... : ... .. 0 ... : ... .. . ... ...
ROW 74 : ... .. 7 ... ... ... : ... .. 7 ... ... ... : ... .. . ... : ... .. . ... : ... .. . ... ...
ROW 75 : ... .. . ... ... ... : ... .. . ... ... ... : ... .. . ... : ... .. . ... : ... .. . ... ...
ROW 76 : ... .. . ... ... ... : ... .. . ... ... ... : ... .. . ... : ... .. . ... : ... .. . ... ...
ROW 77 : ... .. . ... ... ... : ... .. . ... ... ... : ... .. . ... : ... .. . ... : ... .. . ... ...
ROW 78 : ... .. 6 ... ... ... : ... .. 6 ... ... ... : C-3 00 . ... : F-# 00 0 ... : ... .. . ... ...
ROW 79 : ... .. . ... ... ... : ... .. . ... ... ... : ... .. . ... : ... .. . ... : ... .. . ... ...
ROW 7A : ... .. . ... ... ... : ... .. . ... ... ... : ... .. . ... : ... .. . ... : ... .. . ... ...
ROW 7B : ... .. . ... ... ... : ... .. . ... ... ... : ... .. . ... : ... .. . ... : ... .. . ... ...
ROW 7C : ... .. . ... ... ... : ... .. . ... ... ... : ... .. . ... : ... .. . ... : ... .. . ... ...
ROW 7D : ... .. . ... ... ... : ... .. . ... ... ... : ... .. . ... : ... .. . ... : ... .. . ... ...
ROW 7E : ... .. . ... ... ... : ... .. . ... ... ... : ... .. . ... : ... .. . ... : ... .. . ... ...
ROW 7F : ... .. . ... ... ... : ... .. . ... ... ... : ... .. . ... : ... .. . ... : ... .. . ... ...
ROW 80 : ... .. . ... ... ... : ... .. . ... ... ... : ... .. . ... : ... .. . ... : ... .. . ... ...
ROW 81 : ... .. . ... ... ... : ... .. . ... ... ... : --- .. . ... : ... .. . ... : ... .. . ... ...
ROW 82 : ... .. . ... ... ... : ... .. . ... ... ... : ... .. . ... : ... .. . ... : ... .. . ... ...
ROW 83 : ... .. . ... ... ... : ... .. . ... ... ... : ... .. . ... : ... .. . ... : ... .. . ... ...
ROW 84 : D#3 00 8 P80 ... ... : C-4 00 8 P81 ... ... : ... .. . ... : ... .. . ... : ... .. . ... ...
ROW 85 : ... .. . ... ... ... : ... .. . ... ... ... : ... .. . ... : ... .. . ... : ... .. . ... ...
ROW 86 : ... .. 7 ... ... ... : ... .. 7 ... ... ... : ... .. . ... : ... .. . ... : ... .. . ... ...
ROW 87 : ... .. . ... ... ... : ... .. . ... ... ... : ... .. . ... : ... .. . ... : ... .. . ... ...
ROW 88 : ... .. . ... ... ... : ... .. . ... ... ... : ... .. . ... : ... .. . ... : ... .. . ... ...
ROW 89 : ... .. . ... ... ... : ... .. . ... ... ... : ... .. . ... : ... .. . ... : ... .. . ... ...
ROW 8A : G-3 00 8 P80 ... ... : D#4 00 8 P81 ... ... : G-3 00 . ... : C-# 00 E ... : ... .. . ... ...
ROW 8B : ... .. . ... ... ... : ... .. . ... ... ... : ... .. . ... : ... .. 0 ... : ... .. . ... ...
ROW 8C : ... .. 7 ... ... ... : ... .. 7 ... ... ... : ... .. . ... : ... .. . ... : ... .. . ... ...
ROW 8D : ... .. . ... ... ... : ... .. . ... ... ... : ... .. . ... : ... .. . ... : ... .. . ... ...
ROW 8E : ... .. . ... ... ... : ... .. . ... ... ... : ... .. . ... : ... .. . ... : ... .. . ... ...
ROW 8F : ... .. . ... ... ... : ... .. . ... ... ... : ... .. . ... : ... .. . ... : ... .. . ... ...
ROW 90 : D-3 00 8 P80 ... ... : B-3 00 8 P80 ... ... : B-2 00 . ... : F-# 00 0 ... : ... .. . ... ...
ROW 91 : ... .. . ... ... ... : ... .. . ... ... ... : ... .. . ... : ... .. . ... : ... .. . ... ...
ROW 92 : ... .. 7 ... ... ... : ... .. 7 ... ... ... : ... .. . ... : ... .. . ... : ... .. . ... ...
ROW 93 : ... .. . ... ... ... : ... .. . ... ... ... : ... .. . ... : ... .. . ... : ... .. . ... ...
ROW 94 : ... .. . ... ... ... : ... .. . ... ... ... : ... .. . ... : ... .. . ... : ... .. . ... ...
ROW 95 : ... .. . ... ... ... : ... .. . ... ... ... : ... .. . ... : ... .. . ... : ... .. . ... ...
ROW 96 : G-3 00 8 P80 ... ... : D-4 00 8 P81 ... ... : ... .. . ... : ... .. . ... : ... .. . ... ...
ROW 97 : ... .. . ... ... ... : ... .. . ... ... ... : ... .. . ... : ... .. . ... : ... .. . ... ...
ROW 98 : ... .. 7 ... ... ... : ... .. 7 ... ... ... : ... .. . ... : ... .. . ... : ... .. . ... ...
ROW 99 : ... .. . ... ... ... : ... .. . ... ... ... : --- .. . ... : ... .. . ... : ... .. . ... ...
ROW 9A : ... .. . ... ... ... : ... .. . ... ... ... : ... .. . ... : ... .. . ... : ... .. . ... ...
ROW 9B : ... .. . ... ... ... : ... .. . ... ... ... : ... .. . ... : ... .. . ... : ... .. . ... ...
ROW 9C : B-3 00 8 P80 ... ... : G-4 00 8 P81 ... ... : ... .. . ... : ... .. . ... : ... .. . ... ...
ROW 9D : ... .. . ... ... ... : ... .. . ... ... ... : ... .. . ... : ... .. . ... : ... .. . ... ...
ROW 9E : ... .. 7 ... ... ... : ... .. 7 ... ... ... : ... .. . ... : ... .. . ... : ... .. . ... ...
ROW 9F : ... .. . ... ... ... : ... .. . ... ... ... : ... .. . ... : ... .. . ... : ... .. . ... ...
ROW A0 : ... .. . ... ... ... : ... .. . ... ... ... : ... .. . ... : ... .. . ... : ... .. . ... ...
ROW A1 : ... .. . ... ... ... : ... .. . ... ... ... : ... .. . ... : ... .. . ... : ... .. . ... ...
ROW A2 : D-4 00 8 P81 ... ... : B-4 00 8 P80 ... ... : G-3 00 . ... : C-# 00 E ... : ... .. . ... ...
ROW A3 : ... .. . ... ... ... : ... .. . ... ... ... : ... .. . ... : ... .. 0 ... : ... .. . ... ...
ROW A4 : ... .. 7 ... ... ... : ... .. 7 ... ... ... : ... .. . ... : ... .. . ... : ... .. . ... ...
ROW A5 : ... .. . ... ... ... : ... .. . ... ... ... : ... .. . ... : ... .. . ... : ... .. . ... ...
ROW A6 : ... .. . ... ... ... : ... .. . ... ... ... : ... .. . ... : ... .. . ... : ... .. . ... ...
ROW A7 : ... .. . ... ... ... : ... .. . ... ... ... : ... .. . ... : ... .. . ... : ... .. . ... ...
ROW A8 : ... .. 6 ... ... ... : ... .. 6 ... ... ... : B-2 00 . ... : ... .. E ... : ... .. . ... ...
ROW A9 : ... .. . ... ... ... : ... .. . ... ... ... : ... .. . ... : ... .. 0 ... : ... .. . ... ...
ROW AA : ... .. . ... ... ... : ... .. . ... ... ... : ... .. . ... : ... .. . ... : ... .. . ... ...
ROW AB : ... .. . ... ... ... : ... .. . ... ... ... : ... .. . ... : ... .. . ... : ... .. . ... ...
ROW AC : ... .. . ... ... ... : ... .. . ... ... ... : ... .. . ... : ... .. . ... : ... .. . ... ...
ROW AD : ... .. . ... ... ... : ... .. . ... ... ... : ... .. . ... : ... .. . ... : ... .. . ... ...
ROW AE : ... .. . ... ... ... : ... .. . ... ... ... : ... .. . ... : ... .. E ... : ... .. . ... ...
ROW AF : ... .. . ... ... ... : ... .. . ... ... ... : ... .. . ... : ... .. 0 ... : ... .. . ... ...
ROW B0 : ... .. . ... ... ... : ... .. . ... ... ... : ... .. . ... : ... .. . ... : ... .. . ... ...
ROW B1 : ... .. . ... ... ... : ... .. . ... ... ... : --- .. . ... : ... .. . ... : ... .. . ... ...
ROW B2 : ... .. . ... ... ... : ... .. . ... ... ... : ... .. . ... : ... .. . ... : ... .. . ... ...
ROW B3 : ... .. . ... ... ... : ... .. . ... ... ... : ... .. . ... : ... .. . ... : ... .. . ... ...
ROW B4 : ... .. . ... ... ... : ... .. . ... ... ... : ... .. . ... : ... .. E ... : ... .. . ... ...
ROW B5 : ... .. . ... ... ... : ... .. . ... ... ... : ... .. . ... : ... .. 0 ... : ... .. . ... ...
ROW B6 : ... .. . ... ... ... : ... .. . ... ... ... : ... .. . ... : ... .. . ... : ... .. . ... ...
ROW B7 : ... .. . ... ... ... : ... .. . ... ... ... : ... .. . ... : ... .. . ... : ... .. . ... ...
ROW B8 : ... .. . ... ... ... : ... .. . ... ... ... : ... .. . ... : ... .. . ... : ... .. . ... ...
ROW B9 : ... .. . ... ... ... : ... .. . ... ... ... : ... .. . ... : ... .. . ... : ... .. . ... ...
ROW BA : ... .. . ... ... ... : ... .. . ... ... ... : G-3 00 . ... : ... .. E ... : ... .. . ... ...
ROW BB : ... .. . ... ... ... : ... .. . ... ... ... : ... .. . ... : ... .. 0 ... : ... .. . ... ...
ROW BC : ... .. . ... ... ... : ... .. . ... ... ... : ... .. . ... : ... .. . ... : ... .. . ... ...
ROW BD : ... .. . ... ... ... : ... .. . ... ... ... : ... .. . ... : ... .. . ... : ... .. . ... ...
ROW BE : ... .. . ... ... ... : ... .. . ... ... ... : ... .. . ... : ... .. . ... : ... .. . ... ...
ROW BF : ... .. . ... ... ... : ... .. . ... ... ... : ... .. . ... : ... .. . ... : ... .. . ... ...
ROW C0 : A#3 00 8 P81 ... ... : G-4 00 8 P81 ... ... : A#2 00 . ... : F-# 00 0 ... : ... .. . ... ...
ROW C1 : ... .. . ... ... ... : ... .. . ... ... ... : ... .. . ... : ... .. . ... : ... .. . ... ...
ROW C2 : ... .. 7 ... ... ... : ... .. 7 ... ... ... : ... .. . ... : ... .. . ... : ... .. . ... ...
ROW C3 : ... .. . ... ... ... : ... .. . ... ... ... : ... .. . ... : ... .. . ... : ... .. . ... ...
ROW C4 : ... .. . ... ... ... : ... .. . ... ... ... : ... .. . ... : ... .. . ... : ... .. . ... ...
ROW C5 : ... .. . ... ... ... : ... .. . ... ... ... : ... .. . ... : ... .. . ... : ... .. . ... ...
ROW C6 : ... .. 0 ... ... ... : ... .. 0 ... ... ... : ... .. . ... : ... .. . ... : ... .. . ... ...
ROW C7 : ... .. . ... ... ... : ... .. . ... ... ... : ... .. . ... : ... .. . ... : ... .. . ... ...
ROW C8 : ... .. . ... ... ... : ... .. . ... ... ... : ... .. . ... : ... .. . ... : ... .. . ... ...
ROW C9 : ... .. . ... ... ... : ... .. . ... ... ... : --- .. . ... : ... .. . ... : ... .. . ... ...
ROW CA : ... .. . ... ... ... : ... .. . ... ... ... : ... .. . ... : ... .. . ... : ... .. . ... ...
ROW CB : ... .. . ... ... ... : ... .. . ... ... ... : ... .. . ... : ... .. . ... : ... .. . ... ...
ROW CC : C#3 00 8 P80 ... ... : A#3 00 8 P81 ... ... : ... .. . ... : ... .. . ... : ... .. . ... ...
ROW CD : ... .. . ... ... ... : ... .. . ... ... ... : ... .. . ... : ... .. . ... : ... .. . ... ...
ROW CE : ... .. 7 ... ... ... : ... .. 7 ... ... ... : ... .. . ... : ... .. . ... : ... .. . ... ...
ROW CF : ... .. . ... ... ... : ... .. . ... ... ... : ... .. . ... : ... .. . ... : ... .. . ... ...
ROW D0 : ... .. . ... ... ... : ... .. . ... ... ... : ... .. . ... : ... .. . ... : ... .. . ... ...
ROW D1 : ... .. . ... ... ... : ... .. . ... ... ... : ... .. . ... : ... .. . ... : ... .. . ... ...
ROW D2 : G-3 00 8 P80 ... ... : C#4 00 8 P80 ... ... : G-3 00 . ... : C-# 00 E ... : ... .. . ... ...
ROW D3 : ... .. . ... ... ... : ... .. . ... ... ... : ... .. . ... : ... .. 0 ... : ... .. . ... ...
ROW D4 : ... .. 7 ... ... ... : ... .. 7 ... ... ... : ... .. . ... : ... .. . ... : ... .. . ... ...
ROW D5 : ... .. . ... ... ... : ... .. . ... ... ... : ... .. . ... : ... .. . ... : ... .. . ... ...
ROW D6 : ... .. . ... ... ... : ... .. . ... ... ... : ... .. . ... : ... .. . ... : ... .. . ... ...
ROW D7 : ... .. . ... ... ... : ... .. . ... ... ... : ... .. . ... : ... .. . ... : ... .. . ... ...
ROW D8 : ... .. 6 ... ... ... : ... .. 6 ... ... ... : A#2 00 . ... : F-# 00 0 ... : ... .. . ... ...
ROW D9 : ... .. . ... ... ... : ... .. . ... ... ... : ... .. . ... : ... .. . ... : ... .. . ... ...
ROW DA : ... .. . ... ... ... : ... .. . ... ... ... : ... .. . ... : ... .. . ... : ... .. . ... ...
ROW DB : ... .. . ... ... ... : ... .. . ... ... ... : ... .. . ... : ... .. . ... : ... .. . ... ...
ROW DC : ... .. . ... ... ... : ... .. . ... ... ... : ... .. . ... : ... .. . ... : ... .. . ... ...
ROW DD : ... .. . ... ... ... : ... .. . ... ... ... : ... .. . ... : ... .. . ... : ... .. . ... ...
ROW DE : ... .. . ... ... ... : ... .. . ... ... ... : ... .. . ... : ... .. . ... : ... .. . ... ...
ROW DF : ... .. . ... ... ... : ... .. . ... ... ... : ... .. . ... : ... .. . ... : ... .. . ... ...
ROW E0 : ... .. . ... ... ... : ... .. . ... ... ... : ... .. . ... : ... .. . ... : ... .. . ... ...
ROW E1 : ... .. . ... ... ... : ... .. . ... ... ... : --- .. . ... : ... .. . ... : ... .. . ... ...
ROW E2 : ... .. . ... ... ... : ... .. . ... ... ... : ... .. . ... : ... .. . ... : ... .. . ... ...
ROW E3 : ... .. . ... ... ... : ... .. . ... ... ... : ... .. . ... : ... .. . ... : ... .. . ... ...
ROW E4 : C#3 00 8 P80 ... ... : A#3 00 8 P81 ... ... : ... .. . ... : ... .. . ... : ... .. . ... ...
ROW E5 : ... .. . ... ... ... : ... .. . ... ... ... : ... .. . ... : ... .. . ... : ... .. . ... ...
ROW E6 : ... .. 7 ... ... ... : ... .. 7 ... ... ... : ... .. . ... : ... .. . ... : ... .. . ... ...
ROW E7 : ... .. . ... ... ... : ... .. . ... ... ... : ... .. . ... : ... .. . ... : ... .. . ... ...
ROW E8 : ... .. . ... ... ... : ... .. . ... ... ... : ... .. . ... : ... .. . ... : ... .. . ... ...
ROW E9 : ... .. . ... ... ... : ... .. . ... ... ... : ... .. . ... : ... .. . ... : ... .. . ... ...
ROW EA : G-3 00 8 P80 ... ... : C#4 00 8 P80 ... ... : G-3 00 . ... : C-# 00 E ... : ... .. . ... ...
ROW EB : ... .. . ... ... ... : ... .. . ... ... ... : ... .. . ... : ... .. 0 ... : ... .. . ... ...
ROW EC : ... .. 7 ... ... ... : ... .. 7 ... ... ... : ... .. . ... : ... .. . ... : ... .. . ... ...
ROW ED : ... .. . ... ... ... : ... .. . ... ... ... : ... .. . ... : ... .. . ... : ... .. . ... ...
ROW EE : ... .. . ... ... ... : ... .. . ... ... ... : ... .. . ... : ... .. . ... : ... .. . ... ...
ROW EF : ... .. . ... ... ... : ... .. . ... ... ... : ... .. . ... : ... .. . ... : ... .. . ... ...
ROW F0 : D#3 00 8 P80 ... ... : C#4 00 8 P81 ... ... : G#2 00 . P7F : F-# 00 0 ... : ... .. . ... ...
ROW F1 : ... .. . ... ... ... : ... .. . ... ... ... : ... .. . ... : ... .. . ... : ... .. . ... ...
ROW F2 : ... .. 7 ... ... ... : ... .. 7 ... ... ... : ... .. . ... : ... .. . ... : ... .. . ... ...
ROW F3 : ... .. . ... ... ... : ... .. . ... ... ... : ... .. . ... : ... .. . ... : ... .. . ... ...
ROW F4 : ... .. . ... ... ... : ... .. . ... ... ... : ... .. . ... : ... .. . ... : ... .. . ... ...
ROW F5 : ... .. . ... ... ... : ... .. . ... ... ... : ... .. . ... : ... .. . ... : ... .. . ... ...
ROW F6 : G#3 00 8 P80 ... ... : D#4 00 8 P81 ... ... : ... .. . ... : ... .. . ... : ... .. . ... ...
ROW F7 : ... .. . ... ... ... : ... .. . ... ... ... : ... .. . ... : ... .. . ... : ... .. . ... ...
ROW F8 : ... .. 7 ... ... ... : ... .. 7 ... ... ... : ... .. . ... : ... .. . ... : ... .. . ... ...
ROW F9 : ... .. . ... ... ... : ... .. . ... ... ... : --- .. . ... : ... .. . ... : ... .. . ... ...
ROW FA : ... .. . ... ... ... : ... .. . ... ... ... : ... .. . ... : ... .. . ... : ... .. . ... ...
ROW FB : ... .. . ... ... ... : ... .. . ... ... ... : ... .. . ... : ... .. . ... : ... .. . ... ...
ROW FC : C#4 00 8 P81 ... ... : G-4 00 8 P81 ... ... : ... .. . ... : ... .. . ... : ... .. . ... ...
ROW FD : ... .. . ... ... ... : ... .. . ... ... ... : ... .. . ... : ... .. . ... : ... .. . ... ...
ROW FE : ... .. 7 ... ... ... : ... .. 7 ... ... ... : ... .. . ... : ... .. . ... : ... .. . ... ...
ROW FF : ... .. . ... ... ... : ... .. . ... ... ... : ... .. . ... : ... .. . ... : ... .. . ... ...

PATTERN 07
ROW 00 : ... .. . ... ... ... : ... .. . ... ... ... : ... .. . ... : ... .. . ... : ... .. . ... ...
ROW 01 : ... .. . ... ... ... : ... .. . ... ... ... : ... .. . ... : ... .. . ... : ... .. . ... ...
ROW 02 : D#4 00 8 P81 ... ... : B-4 00 8 P80 ... ... : G-3 00 . P80 : C-# 00 E ... : ... .. . ... ...
ROW 03 : ... .. . ... ... ... : ... .. . ... ... ... : ... .. . ... : ... .. 0 ... : ... .. . ... ...
ROW 04 : ... .. 7 ... ... ... : ... .. 7 ... ... ... : ... .. . ... : ... .. . ... : ... .. . ... ...
ROW 05 : ... .. . ... ... ... : ... .. . ... ... ... : ... .. . ... : ... .. . ... : ... .. . ... ...
ROW 06 : ... .. . ... ... ... : ... .. . ... ... ... : ... .. . ... : ... .. . ... : ... .. . ... ...
ROW 07 : ... .. . ... ... ... : ... .. . ... ... ... : ... .. . ... : ... .. . ... : ... .. . ... ...
ROW 08 : ... .. 6 ... ... ... : ... .. 6 ... ... ... : G#2 00 . P7F : ... .. E ... : ... .. . ... ...
ROW 09 : ... .. . ... ... ... : ... .. . ... ... ... : ... .. . ... : ... .. 0 ... : ... .. . ... ...
ROW 0A : ... .. . ... ... ... : ... .. . ... ... ... : ... .. . ... : ... .. . ... : ... .. . ... ...
ROW 0B : ... .. . ... ... ... : ... .. . ... ... ... : ... .. . ... : ... .. . ... : ... .. . ... ...
ROW 0C : ... .. . ... ... ... : ... .. . ... ... ... : ... .. . ... : ... .. . ... : ... .. . ... ...
ROW 0D : ... .. . ... ... ... : ... .. . ... ... ... : ... .. . ... : ... .. . ... : ... .. . ... ...
ROW 0E : ... .. . ... ... ... : ... .. . ... ... ... : ... .. . ... : ... .. E ... : ... .. . ... ...
ROW 0F : ... .. . ... ... ... : ... .. . ... ... ... : ... .. . ... : ... .. 0 ... : ... .. . ... ...
ROW 10 : ... .. . ... ... ... : ... .. . ... ... ... : ... .. . ... : ... .. . ... : ... .. . ... ...
ROW 11 : ... .. . ... ... ... : ... .. . ... ... ... : --- .. . ... : ... .. . ... : ... .. . ... ...
ROW 12 : ... .. . ... ... ... : ... .. . ... ... ... : ... .. . ... : ... .. . ... : ... .. . ... ...
ROW 13 : ... .. . ... ... ... : ... .. . ... ... ... : ... .. . ... : ... .. . ... : ... .. . ... ...
ROW 14 : ... .. . ... ... ... : ... .. . ... ... ... : ... .. . ... : ... .. E ... : ... .. . ... ...
ROW 15 : ... .. . ... ... ... : ... .. . ... ... ... : ... .. . ... : ... .. 0 ... : ... .. . ... ...
ROW 16 : ... .. . ... ... ... : ... .. . ... ... ... : ... .. . ... : ... .. . ... : ... .. . ... ...
ROW 17 : ... .. . ... ... ... : ... .. . ... ... ... : ... .. . ... : ... .. . ... : ... .. . ... ...
ROW 18 : ... .. . ... ... ... : ... .. . ... ... ... : ... .. . ... : ... .. . ... : ... .. . ... ...
ROW 19 : ... .. . ... ... ... : ... .. . ... ... ... : ... .. . ... : ... .. . ... : ... .. . ... ...
ROW 1A : ... .. . ... ... ... : ... .. . ... ... ... : G-3 00 . P80 : ... .. E ... : ... .. . ... ...
ROW 1B : ... .. . ... ... ... : ... .. . ... ... ... : ... .. . ... : ... .. 0 ... : ... .. . ... ...
ROW 1C : ... .. . ... ... ... : ... .. . ... ... ... : ... .. . ... : ... .. . ... : ... .. . ... ...
ROW 1D : ... .. . ... ... ... : ... .. . ... ... ... : ... .. . ... : ... .. . ... : ... .. . ... ...
ROW 1E : ... .. . ... ... ... : ... .. . ... ... ... : ... .. . ... : ... .. . ... : ... .. . ... ...
ROW 1F : ... .. . ... ... ... : ... .. . ... ... ... : ... .. . ... : ... .. . ... : ... .. . ... ...
ROW 20 : G#4 00 8 P80 ... ... : C-5 00 8 P81 ... ... : F-2 00 . ... : F-# 00 0 ... : ... .. . ... ...
ROW 21 : ... .. . ... ... ... : ... .. . ... ... ... : ... .. . ... : ... .. . ... : ... .. . ... ...
ROW 22 : ... .. 7 ... ... ... : ... .. 7 ... ... ... : ... .. . ... : ... .. . ... : ... .. . ... ...
ROW 23 : ... .. . ... ... ... : ... .. . ... ... ... : ... .. . ... : ... .. . ... : ... .. . ... ...
ROW 24 : ... .. . ... ... ... : ... .. . ... ... ... : ... .. . ... : ... .. . ... : ... .. . ... ...
ROW 25 : ... .. . ... ... ... : ... .. . ... ... ... : ... .. . ... : ... .. . ... : ... .. . ... ...
ROW 26 : ... .. 0 ... ... ... : ... .. 0 ... ... ... : ... .. . ... : ... .. . ... : ... .. . ... ...
ROW 27 : ... .. . ... ... ... : ... .. . ... ... ... : ... .. . ... : ... .. . ... : ... .. . ... ...
ROW 28 : ... .. . ... ... ... : ... .. . ... ... ... : ... .. . ... : ... .. . ... : ... .. . ... ...
ROW 29 : ... .. . ... ... ... : ... .. . ... ... ... : --- .. . ... : ... .. . ... : ... .. . ... ...
ROW 2A : ... .. . ... ... ... : ... .. . ... ... ... : ... .. . ... : ... .. . ... : ... .. . ... ...
ROW 2B : ... .. . ... ... ... : ... .. . ... ... ... : ... .. . ... : ... .. . ... : ... .. . ... ...
ROW 2C : G-4 00 8 P81 ... ... : B-4 00 8 P80 ... ... : ... .. . ... : ... .. . ... : ... .. . ... ...
ROW 2D : ... .. . ... ... ... : ... .. . ... ... ... : ... .. . ... : ... .. . ... : ... .. . ... ...
ROW 2E : ... .. 7 ... ... ... : ... .. 7 ... ... ... : ... .. . ... : ... .. . ... : ... .. . ... ...
ROW 2F : ... .. . ... ... ... : ... .. . ... ... ... : ... .. . ... : ... .. . ... : ... .. . ... ...
ROW 30 : ... .. . ... ... ... : ... .. . ... ... ... : ... .. . ... : ... .. . ... : ... .. . ... ...
ROW 31 : ... .. . ... ... ... : ... .. . ... ... ... : ... .. . ... : ... .. . ... : ... .. . ... ...
ROW 32 : G#4 00 8 P80 ... ... : C-5 00 8 P81 ... ... : F-3 00 . ... : C-# 00 E ... : ... .. . ... ...
ROW 33 : ... .. . ... ... ... : ... .. . ... ... ... : ... .. . ... : ... .. 0 ... : ... .. . ... ...
ROW 34 : ... .. 7 ... ... ... : ... .. 7 ... ... ... : ... .. . ... : ... .. . ... : ... .. . ... ...
ROW 35 : ... .. . ... ... ... : ... .. . ... ... ... : ... .. . ... : ... .. . ... : ... .. . ... ...
ROW 36 : ... .. . ... ... ... : ... .. . ... ... ... : ... .. . ... : ... .. . ... : ... .. . ... ...
ROW 37 : ... .. . ... ... ... : ... .. . ... ... ... : ... .. . ... : ... .. . ... : ... .. . ... ...
ROW 38 : ... .. 6 ... ... ... : ... .. 6 ... ... ... : F#2 00 . ... : F-# 00 0 ... : ... .. . ... ...
ROW 39 : ... .. . ... ... ... : ... .. . ... ... ... : ... .. . ... : ... .. . ... : ... .. . ... ...
ROW 3A : ... .. . ... ... ... : ... .. . ... ... ... : ... .. . ... : ... .. . ... : ... .. . ... ...
ROW 3B : ... .. . ... ... ... : ... .. . ... ... ... : ... .. . ... : ... .. . ... : ... .. . ... ...
ROW 3C : ... .. . ... ... ... : ... .. . ... ... ... : ... .. . ... : ... .. . ... : ... .. . ... ...
ROW 3D : ... .. . ... ... ... : ... .. . ... ... ... : ... .. . ... : ... .. . ... : ... .. . ... ...
ROW 3E : ... .. . ... ... ... : ... .. . ... ... ... : ... .. . ... : ... .. . ... : ... .. . ... ...
ROW 3F : ... .. . ... ... ... : ... .. . ... ... ... : ... .. . ... : ... .. . ... : ... .. . ... ...
ROW 40 : ... .. . ... ... ... : ... .. . ... ... ... : ... .. . ... : ... .. . ... : ... .. . ... ...
ROW 41 : ... .. . ... ... ... : ... .. . ... ... ... : --- .. . ... : ... .. . ... : ... .. . ... ...
ROW 42 : ... .. . ... ... ... : ... .. . ... ... ... : ... .. . ... : ... .. . ... : ... .. . ... ...
ROW 43 : ... .. . ... ... ... : ... .. . ... ... ... : ... .. . ... : ... .. . ... : ... .. . ... ...
ROW 44 : G#4 00 8 P80 ... ... : C-5 00 8 P81 ... ... : ... .. . ... : ... .. . ... : ... .. . ... ...
ROW 45 : ... .. . ... ... ... : ... .. . ... ... ... : ... .. . ... : ... .. . ... : ... .. . ... ...
ROW 46 : ... .. 7 ... ... ... : ... .. 7 ... ... ... : ... .. . ... : ... .. . ... : ... .. . ... ...
ROW 47 : ... .. . ... ... ... : ... .. . ... ... ... : ... .. . ... : ... .. . ... : ... .. . ... ...
ROW 48 : ... .. . ... ... ... : ... .. . ... ... ... : ... .. . ... : ... .. . ... : ... .. . ... ...
ROW 49 : ... .. . ... ... ... : ... .. . ... ... ... : ... .. . ... : ... .. . ... : ... .. . ... ...
ROW 4A : G-4 00 8 P81 ... ... : B-4 00 8 P80 ... ... : F#3 00 . ... : C-# 00 E ... : ... .. . ... ...
ROW 4B : ... .. . ... ... ... : ... .. . ... ... ... : ... .. . ... : ... .. 0 ... : ... .. . ... ...
ROW 4C : ... .. 7 ... ... ... : ... .. 7 ... ... ... : ... .. . ... : ... .. . ... : ... .. . ... ...
ROW 4D : ... .. . ... ... ... : ... .. . ... ... ... : ... .. . ... : ... .. . ... : ... .. . ... ...
ROW 4E : ... .. . ... ... ... : ... .. . ... ... ... : ... .. . ... : ... .. . ... : ... .. . ... ...
ROW 4F : ... .. . ... ... ... : ... .. . ... ... ... : ... .. . ... : ... .. . ... : ... .. . ... ...
ROW 50 : D#4 00 8 P81 ... ... : G-4 00 8 P81 ... ... : G-2 00 . ... : F-# 00 0 ... : ... .. . ... ...
ROW 51 : ... .. . ... ... ... : ... .. . ... ... ... : ... .. . ... : ... .. . ... : ... .. . ... ...
ROW 52 : ... .. 7 ... ... ... : ... .. 7 ... ... ... : ... .. . ... : ... .. . ... : ... .. . ... ...
ROW 53 : ... .. . ... ... ... : ... .. . ... ... ... : ... .. . ... : ... .. . ... : ... .. . ... ...
ROW 54 : ... .. . ... ... ... : ... .. . ... ... ... : ... .. . ... : ... .. . ... : ... .. . ... ...
ROW 55 : ... .. . ... ... ... : ... .. . ... ... ... : ... .. . ... : ... .. . ... : ... .. . ... ...
ROW 56 : ... .. 0 ... ... ... : ... .. 0 ... ... ... : ... .. . ... : ... .. . ... : ... .. . ... ...
ROW 57 : ... .. . ... ... ... : ... .. . ... ... ... : ... .. . ... : ... .. . ... : ... .. . ... ...
ROW 58 : ... .. . ... ... ... : ... .. . ... ... ... : ... .. . ... : ... .. . ... : ... .. . ... ...
ROW 59 : ... .. . ... ... ... : ... .. . ... ... ... : --- .. . ... : ... .. . ... : ... .. . ... ...
ROW 5A : ... .. . ... ... ... : ... .. . ... ... ... : ... .. . ... : ... .. . ... : ... .. . ... ...
ROW 5B : ... .. . ... ... ... : ... .. . ... ... ... : ... .. . ... : ... .. . ... : ... .. . ... ...
ROW 5C : D-4 00 8 P81 ... ... : F#4 00 8 P80 ... ... : ... .. . ... : ... .. . ... : ... .. . ... ...
ROW 5D : ... .. . ... ... ... : ... .. . ... ... ... : ... .. . ... : ... .. . ... : ... .. . ... ...
ROW 5E : ... .. 7 ... ... ... : ... .. 7 ... ... ... : ... .. . ... : ... .. . ... : ... .. . ... ...
ROW 5F : ... .. . ... ... ... : ... .. . ... ... ... : ... .. . ... : ... .. . ... : ... .. . ... ...
ROW 60 : ... .. . ... ... ... : ... .. . ... ... ... : ... .. . ... : ... .. . ... : ... .. . ... ...
ROW 61 : ... .. . ... ... ... : ... .. . ... ... ... : ... .. . ... : ... .. . ... : ... .. . ... ...
ROW 62 : D#4 00 8 P81 ... ... : G-4 00 8 P81 ... ... : G-3 00 . ... : C-# 00 E ... : ... .. . ... ...
ROW 63 : ... .. . ... ... ... : ... .. . ... ... ... : ... .. . ... : ... .. 0 ... : ... .. . ... ...
ROW 64 : ... .. 7 ... ... ... : ... .. 7 ... ... ... : ... .. . ... : ... .. . ... : ... .. . ... ...
ROW 65 : ... .. . ... ... ... : ... .. . ... ... ... : ... .. . ... : ... .. . ... : ... .. . ... ...
ROW 66 : ... .. . ... ... ... : ... .. . ... ... ... : ... .. . ... : ... .. . ... : ... .. . ... ...
ROW 67 : ... .. . ... ... ... : ... .. . ... ... ... : ... .. . ... : ... .. . ... : ... .. . ... ...
ROW 68 : ... .. 6 ... ... ... : ... .. 6 ... ... ... : G#2 00 . P7F : ... .. E ... : ... .. . ... ...
ROW 69 : ... .. . ... ... ... : ... .. . ... ... ... : ... .. . ... : ... .. 0 ... : ... .. . ... ...
ROW 6A : ... .. . ... ... ... : ... .. . ... ... ... : ... .. . ... : ... .. . ... : ... .. . ... ...
ROW 6B : ... .. . ... ... ... : ... .. . ... ... ... : ... .. . ... : ... .. . ... : ... .. . ... ...
ROW 6C : ... .. . ... ... ... : ... .. . ... ... ... : ... .. . ... : ... .. . ... : ... .. . ... ...
ROW 6D : ... .. . ... ... ... : ... .. . ... ... ... : ... .. . ... : ... .. . ... : ... .. . ... ...
ROW 6E : ... .. . ... ... ... : ... .. . ... ... ... : ... .. . ... : ... .. E ... : ... .. . ... ...
ROW 6F : ... .. . ... ... ... : ... .. . ... ... ... : ... .. . ... : ... .. 0 ... : ... .. . ... ...
ROW 70 : ... .. . ... ... ... : ... .. . ... ... ... : ... .. . ... : ... .. . ... : ... .. . ... ...
ROW 71 : ... .. . ... ... ... : ... .. . ... ... ... : --- .. . ... : ... .. . ... : ... .. . ... ...
ROW 72 : ... .. . ... ... ... : ... .. . ... ... ... : ... .. . ... : ... .. . ... : ... .. . ... ...
ROW 73 : ... .. . ... ... ... : ... .. . ... ... ... : ... .. . ... : ... .. . ... : ... .. . ... ...
ROW 74 : G#3 00 8 P80 ... ... : C#4 00 8 P81 ... ... : ... .. . ... : ... .. E ... : ... .. . ... ...
ROW 75 : ... .. . ... ... ... : ... .. . ... ... ... : ... .. . ... : ... .. 0 ... : ... .. . ... ...
ROW 76 : ... .. 7 ... ... ... : ... .. 7 ... ... ... : ... .. . ... : ... .. . ... : ... .. . ... ...
ROW 77 : ... .. . ... ... ... : ... .. . ... ... ... : ... .. . ... : ... .. . ... : ... .. . ... ...
ROW 78 : ... .. . ... ... ... : ... .. . ... ... ... : ... .. . ... : ... .. . ... : ... .. . ... ...
ROW 79 : ... .. . ... ... ... : ... .. . ... ... ... : ... .. . ... : ... .. . ... : ... .. . ... ...
ROW 7A : B-3 00 8 P80 ... ... : C#4 00 8 P80 ... ... : G#3 00 . P80 : ... .. E ... : ... .. . ... ...
ROW 7B : ... .. . ... ... ... : ... .. . ... ... ... : ... .. . ... : ... .. 0 ... : ... .. . ... ...
ROW 7C : ... .. 7 ... ... ... : ... .. 7 ... ... ... : ... .. . ... : ... .. . ... : ... .. . ... ...
ROW 7D : ... .. . ... ... ... : ... .. . ... ... ... : ... .. . ... : ... .. . ... : ... .. . ... ...
ROW 7E : ... .. . ... ... ... : ... .. . ... ... ... : ... .. . ... : ... .. . ... : ... .. . ... ...
ROW 7F : ... .. . ... ... ... : ... .. . ... ... ... : ... .. . ... : ... .. . ... : ... .. . ... ...
ROW 80 : C#4 00 8 P80 ... ... : F-4 00 8 P80 ... ... : C#3 00 . ... : F-# 00 0 ... : ... .. . ... ...
ROW 81 : ... .. . ... ... ... : ... .. . ... ... ... : ... .. . ... : ... .. . ... : ... .. . ... ...
ROW 82 : ... .. 7 ... ... ... : ... .. 7 ... ... ... : ... .. . ... : ... .. . ... : ... .. . ... ...
ROW 83 : ... .. . ... ... ... : ... .. . ... ... ... : ... .. . ... : ... .. . ... : ... .. . ... ...
ROW 84 : ... .. . ... ... ... : ... .. . ... ... ... : ... .. . ... : ... .. . ... : ... .. . ... ...
ROW 85 : ... .. . ... ... ... : ... .. . ... ... ... : ... .. . ... : ... .. . ... : ... .. . ... ...
ROW 86 : ... .. 0 ... ... ... : ... .. 0 ... ... ... : ... .. . ... : ... .. . ... : ... .. . ... ...
ROW 87 : ... .. . ... ... ... : ... .. . ... ... ... : ... .. . ... : ... .. . ... : ... .. . ... ...
ROW 88 : ... .. . ... ... ... : ... .. . ... ... ... : ... .. . ... : ... .. . ... : ... .. . ... ...
ROW 89 : ... .. . ... ... ... : ... .. . ... ... ... : --- .. . ... : ... .. . ... : ... .. . ... ...
ROW 8A : ... .. . ... ... ... : ... .. . ... ... ... : ... .. . ... : ... .. . ... : ... .. . ... ...
ROW 8B : ... .. . ... ... ... : ... .. . ... ... ... : ... .. . ... : ... .. . ... : ... .. . ... ...
ROW 8C : C-4 00 8 P81 ... ... : D#4 00 8 P81 ... ... : ... .. . ... : ... .. . ... : ... .. . ... ...
ROW 8D : ... .. . ... ... ... : ... .. . ... ... ... : ... .. . ... : ... .. . ... : ... .. . ... ...
ROW 8E : ... .. 7 ... ... ... : ... .. 7 ... ... ... : ... .. . ... : ... .. . ... : ... .. . ... ...
ROW 8F : ... .. . ... ... ... : ... .. . ... ... ... : ... .. . ... : ... .. . ... : ... .. . ... ...
ROW 90 : ... .. . ... ... ... : ... .. . ... ... ... : ... .. . ... : ... .. . ... : ... .. . ... ...
ROW 91 : ... .. . ... ... ... : ... .. . ... ... ... : ... .. . ... : ... .. . ... : ... .. . ... ...
ROW 92 : C#4 00 8 P80 ... ... : F-4 00 8 P80 ... ... : F-3 00 . ... : C-# 00 E ... : ... .. . ... ...
ROW 93 : ... .. . ... ... ... : ... .. . ... ... ... : ... .. . ... : ... .. 0 ... : ... .. . ... ...
ROW 94 : ... .. 7 ... ... ... : ... .. 7 ... ... ... : ... .. . ... : ... .. . ... : ... .. . ... ...
ROW 95 : ... .. . ... ... ... : ... .. . ... ... ... : ... .. . ... : ... .. . ... : ... .. . ... ...
ROW 96 : ... .. . ... ... ... : ... .. . ... ... ... : ... .. . ... : ... .. . ... : ... .. . ... ...
ROW 97 : ... .. . ... ... ... : ... .. . ... ... ... : ... .. . ... : ... .. . ... : ... .. . ... ...
ROW 98 : ... .. 6 ... ... ... : ... .. 6 ... ... ... : G-2 00 . ... : F-# 00 0 ... : ... .. . ... ...
ROW 99 : ... .. . ... ... ... : ... .. . ... ... ... : ... .. . ... : ... .. . ... : ... .. . ... ...
ROW 9A : ... .. . ... ... ... : ... .. . ... ... ... : ... .. . ... : ... .. . ... : ... .. . ... ...
ROW 9B : ... .. . ... ... ... : ... .. . ... ... ... : ... .. . ... : ... .. . ... : ... .. . ... ...
ROW 9C : ... .. . ... ... ... : ... .. . ... ... ... : ... .. . ... : ... .. . ... : ... .. . ... ...
ROW 9D : ... .. . ... ... ... : ... .. . ... ... ... : ... .. . ... : ... .. . ... : ... .. . ... ...
ROW 9E : ... .. . ... ... ... : ... .. . ... ... ... : ... .. . ... : ... .. . ... : ... .. . ... ...
ROW 9F : ... .. . ... ... ... : ... .. . ... ... ... : ... .. . ... : ... .. . ... : ... .. . ... ...
ROW A0 : ... .. . ... ... ... : ... .. . ... ... ... : ... .. . ... : ... .. . ... : ... .. . ... ...
ROW A1 : ... .. . ... ... ... : ... .. . ... ... ... : --- .. . ... : ... .. . ... : ... .. . ... ...
ROW A2 : ... .. . ... ... ... : ... .. . ... ... ... : ... .. . ... : ... .. . ... : ... .. . ... ...
ROW A3 : ... .. . ... ... ... : ... .. . ... ... ... : ... .. . ... : ... .. . ... : ... .. . ... ...
ROW A4 : C-4 00 8 P81 ... ... : D#4 00 8 P81 ... ... : ... .. . ... : ... .. . ... : ... .. . ... ...
ROW A5 : ... .. . ... ... ... : ... .. . ... ... ... : ... .. . ... : ... .. . ... : ... .. . ... ...
ROW A6 : ... .. 7 ... ... ... : ... .. 7 ... ... ... : ... .. . ... : ... .. . ... : ... .. . ... ...
ROW A7 : ... .. . ... ... ... : ... .. . ... ... ... : ... .. . ... : ... .. . ... : ... .. . ... ...
ROW A8 : ... .. . ... ... ... : ... .. . ... ... ... : ... .. . ... : ... .. . ... : ... .. . ... ...
ROW A9 : ... .. . ... ... ... : ... .. . ... ... ... : ... .. . ... : ... .. . ... : ... .. . ... ...
ROW AA : B-3 00 8 P80 ... ... : C#4 00 8 P80 ... ... : C#3 00 . ... : C-# 00 E ... : ... .. . ... ...
ROW AB : ... .. . ... ... ... : ... .. . ... ... ... : ... .. . ... : ... .. 0 ... : ... .. . ... ...
ROW AC : ... .. 7 ... ... ... : ... .. 7 ... ... ... : ... .. . ... : ... .. . ... : ... .. . ... ...
ROW AD : ... .. . ... ... ... : ... .. . ... ... ... : ... .. . ... : ... .. . ... : ... .. . ... ...
ROW AE : ... .. . ... ... ... : ... .. . ... ... ... : ... .. . ... : ... .. . ... : ... .. . ... ...
ROW AF : ... .. . ... ... ... : ... .. . ... ... ... : ... .. . ... : ... .. . ... : ... .. . ... ...
ROW B0 : ... .. 6 ... ... ... : ... .. 6 ... ... ... : C-3 00 . ... : F-# 00 0 ... : ... .. . ... ...
ROW B1 : ... .. . ... ... ... : ... .. . ... ... ... : ... .. . ... : ... .. . ... : ... .. . ... ...
ROW B2 : ... .. . ... ... ... : ... .. . ... ... ... : ... .. . ... : ... .. . ... : ... .. . ... ...
ROW B3 : ... .. . ... ... ... : ... .. . ... ... ... : ... .. . ... : ... .. . ... : ... .. . ... ...
ROW B4 : ... .. . ... ... ... : ... .. . ... ... ... : ... .. . ... : ... .. . ... : ... .. . ... ...
ROW B5 : ... .. . ... ... ... : ... .. . ... ... ... : ... .. . ... : ... .. . ... : ... .. . ... ...
ROW B6 : ... .. . ... ... ... : ... .. . ... ... ... : ... .. . ... : ... .. . ... : ... .. . ... ...
ROW B7 : ... .. . ... ... ... : ... .. . ... ... ... : ... .. . ... : ... .. . ... : ... .. . ... ...
ROW B8 : ... .. . ... ... ... : ... .. . ... ... ... : ... .. . ... : ... .. . ... : ... .. . ... ...
ROW B9 : ... .. . ... ... ... : ... .. . ... ... ... : --- .. . ... : ... .. . ... : ... .. . ... ...
ROW BA : ... .. . ... ... ... : ... .. . ... ... ... : ... .. . ... : ... .. . ... : ... .. . ... ...
ROW BB : ... .. . ... ... ... : ... .. . ... ... ... : ... .. . ... : ... .. . ... : ... .. . ... ...
ROW BC : ... .. . ... ... ... : ... .. . ... ... ... : ... .. . ... : ... .. . ... : ... .. . ... ...
ROW BD : ... .. . ... ... ... : ... .. . ... ... ... : ... .. . ... : ... .. . ... : ... .. . ... ...
ROW BE : ... .. . ... ... ... : ... .. . ... ... ... : ... .. . ... : ... .. . ... : ... .. . ... ...
ROW BF : ... .. . ... ... ... : ... .. . ... ... ... : ... .. . ... : ... .. . ... : ... .. . ... ...
ROW C0 : ... .. . ... ... ... : ... .. . ... ... ... : ... .. . ... : ... .. . ... : ... .. . ... ...
ROW C1 : ... .. . ... ... ... : ... .. . ... ... ... : ... .. . ... : ... .. . ... : ... .. . ... ...
ROW C2 : ... .. . ... ... ... : ... .. . ... ... ... : G-2 00 . ... : C-# 00 E ... : ... .. . ... ...
ROW C3 : ... .. . ... ... ... : ... .. . ... ... ... : ... .. . ... : ... .. 0 ... : ... .. . ... ...
ROW C4 : ... .. . ... ... ... : ... .. . ... ... ... : ... .. . ... : ... .. . ... : ... .. . ... ...
ROW C5 : ... .. . ... ... ... : ... .. . ... ... ... : ... .. . ... : ... .. . ... : ... .. . ... ...
ROW C6 : ... .. . ... ... ... : ... .. . ... ... ... : ... .. . ... : ... .. . ... : ... .. . ... ...
ROW C7 : ... .. . ... ... ... : ... .. . ... ... ... : ... .. . ... : ... .. . ... : ... .. . ... ...
ROW C8 : ... .. . ... ... ... : ... .. . ... ... ... : C-3 00 . ... : ... .. E ... : ... .. . ... ...
ROW C9 : ... .. . ... ... ... : ... .. . ... ... ... : ... .. . ... : ... .. 0 ... : ... .. . ... ...
ROW CA : ... .. . ... ... ... : ... .. . ... ... ... : ... .. . ... : ... .. . ... : ... .. . ... ...
ROW CB : ... .. . ... ... ... : ... .. . ... ... ... : ... .. . ... : ... .. . ... : ... .. . ... ...
ROW CC : ... .. . ... ... ... : ... .. . ... ... ... : ... .. . ... : ... .. . ... : ... .. . ... ...
ROW CD : ... .. . ... ... ... : ... .. . ... ... ... : ... .. . ... : ... .. . ... : ... .. . ... ...
ROW CE : ... .. . ... ... ... : ... .. . ... ... ... : ... .. . ... : ... .. E ... : ... .. . ... ...
ROW CF : ... .. . ... ... ... : ... .. . ... ... ... : ... .. . ... : ... .. 0 ... : ... .. . ... ...
ROW D0 : ... .. . ... ... ... : ... .. . ... ... ... : ... .. . ... : ... .. . ... : ... .. . ... ...
ROW D1 : ... .. . ... ... ... : ... .. . ... ... ... : --- .. . ... : ... .. . ... : ... .. . ... ...
ROW D2 : ... .. . ... ... ... : ... .. . ... ... ... : ... .. . ... : ... .. . ... : ... .. . ... ...
ROW D3 : ... .. . ... ... ... : ... .. . ... ... ... : ... .. . ... : ... .. . ... : ... .. . ... ...
ROW D4 : ... .. . ... ... ... : ... .. . ... ... ... : ... .. . ... : ... .. E ... : ... .. . ... ...
ROW D5 : ... .. . ... ... ... : ... .. . ... ... ... : ... .. . ... : ... .. 0 ... : ... .. . ... ...
ROW D6 : ... .. . ... ... ... : ... .. . ... ... ... : ... .. . ... : ... .. . ... : ... .. . ... ...
ROW D7 : ... .. . ... ... ... : ... .. . ... ... ... : ... .. . ... : ... .. . ... : ... .. . ... ...
ROW D8 : ... .. . ... ... ... : ... .. . ... ... ... : ... .. . ... : ... .. . ... : ... .. . ... ...
ROW D9 : ... .. . ... ... ... : ... .. . ... ... ... : ... .. . ... : ... .. . ... : ... .. . ... ...
ROW DA : ... .. . ... ... ... : ... .. . ... ... ... : ... .. . ... : ... .. E ... : ... .. . ... ...
ROW DB : ... .. . ... ... ... : ... .. . ... ... ... : ... .. . ... : ... .. 0 ... : ... .. . ... ...
ROW DC : ... .. . ... ... ... : ... .. . ... ... ... : ... .. . ... : ... .. . ... : ... .. . ... ...
ROW DD : ... .. . ... ... ... : ... .. . ... ... ... : ... .. . ... : ... .. . ... : ... .. . ... ...
ROW DE : ... .. . ... ... ... : ... .. . ... ... ... : ... .. . ... : ... .. . ... : ... .. . ... ...
ROW DF : ... .. . ... ... ... : ... .. . ... ... ... : ... .. . ... : ... .. . ... : ... .. . ... ...
ROW E0 : ... .. 1 ... V01 ... : ... .. 1 ... V01 ... : C-3 00 . ... : D-# 00 6 ... : ... .. . ... ...
ROW E1 : ... .. . ... ... ... : ... .. . ... ... ... : ... .. . ... : ... .. . ... : ... .. . ... ...
ROW E2 : ... .. . ... ... ... : ... .. . ... ... ... : ... .. . ... : ... .. . ... : ... .. . ... ...
ROW E3 : ... .. . ... ... ... : ... .. . ... ... ... : ... .. . ... : ... .. . ... : ... .. . ... ...
ROW E4 : ... .. . ... ... ... : ... .. . ... ... ... : ... .. . ... : ... .. . ... : ... .. . ... ...
ROW E5 : ... .. . ... ... ... : ... .. . ... ... ... : ... .. . ... : ... .. 0 ... : ... .. . ... ...
ROW E6 : ... .. . ... ... ... : ... .. . ... ... ... : ... .. . ... : ... .. . ... : ... .. . ... ...
ROW E7 : ... .. . ... ... ... : ... .. . ... ... ... : ... .. . ... : ... .. . ... : ... .. . ... ...
ROW E8 : ... .. . ... ... ... : ... .. . ... ... ... : ... .. . ... : ... .. . ... : ... .. . ... ...
ROW E9 : ... .. . ... ... ... : ... .. . ... ... ... : --- .. . ... : ... .. . ... : ... .. . ... ...
ROW EA : ... .. . ... ... ... : ... .. . ... ... ... : ... .. . ... : ... .. . ... : ... .. . ... ...
ROW EB : ... .. . ... ... ... : ... .. . ... ... ... : ... .. . ... : ... .. . ... : ... .. . ... ...
ROW EC : G-3 00 B P80 ... ... : D#4 00 B P81 ... ... : ... .. . ... : ... .. . ... : ... .. . ... ...
ROW ED : ... .. A ... ... ... : ... .. A ... ... ... : ... .. . ... : ... .. . ... : ... .. . ... ...
ROW EE : ... .. 9 ... ... ... : ... .. 9 ... ... ... : ... .. . ... : ... .. . ... : ... .. . ... ...
ROW EF : ... .. 8 ... ... ... : ... .. 8 ... ... ... : ... .. . ... : ... .. . ... : ... .. . ... ...
ROW F0 : ... .. 7 ... ... ... : ... .. 7 ... ... ... : ... .. . ... : ... .. . ... : ... .. . ... ...
ROW F1 : ... .. 6 ... ... ... : ... .. 6 ... ... ... : ... .. . ... : ... .. . ... : ... .. . ... ...
ROW F2 : ... .. 5 ... ... ... : ... .. 5 ... ... ... : C#3 00 . ... : C-# 00 E ... : ... .. . ... ...
ROW F3 : ... .. 4 ... ... ... : ... .. 4 ... ... ... : ... .. . ... : ... .. 0 ... : ... .. . ... ...
ROW F4 : ... .. 3 ... ... ... : ... .. 3 ... ... ... : ... .. . ... : ... .. . ... : ... .. . ... ...
ROW F5 : ... .. 2 ... ... ... : ... .. 2 ... ... ... : ... .. . ... : ... .. . ... : ... .. . ... ...
ROW F6 : ... .. 1 ... ... ... : ... .. 1 ... ... ... : ... .. . ... : ... .. . ... : ... .. . ... ...
ROW F7 : ... .. . ... ... ... : ... .. . ... ... ... : ... .. . ... : ... .. . ... : ... .. . ... ...
ROW F8 : C-4 00 B P81 ... ... : G-4 00 B P81 ... ... : D#3 00 . ... : D-# 00 6 ... : ... .. . ... ...
ROW F9 : ... .. A ... ... ... : ... .. A ... ... ... : ... .. . ... : ... .. . ... : ... .. . ... ...
ROW FA : ... .. 9 ... ... ... : ... .. 9 ... ... ... : ... .. . ... : ... .. . ... : ... .. . ... ...
ROW FB : ... .. 8 ... ... ... : ... .. 8 ... ... ... : ... .. . ... : ... .. . ... : ... .. . ... ...
ROW FC : ... .. 7 ... ... ... : ... .. 7 ... ... ... : ... .. . ... : ... .. . ... : ... .. . ... ...
ROW FD : ... .. 6 ... ... ... : ... .. 6 ... ... ... : ... .. . ... : ... .. 0 ... : ... .. . ... ...
ROW FE : ... .. 1 ... ... ... : ... .. 1 ... ... ... : ... .. . ... : ... .. . ... : ... .. . ... ...
ROW FF : ... .. . ... ... ... : ... .. . ... ... ... : ... .. . ... : ... .. . ... : ... .. . ... ...

PATTERN 08
ROW 00 : ... .. . ... ... ... : ... .. . ... ... ... : ... .. . ... : ... .. . ... : ... .. . ... ...
ROW 01 : ... .. . ... ... ... : ... .. . ... ... ... : --- .. . ... : ... .. . ... : ... .. . ... ...
ROW 02 : ... .. . ... ... ... : ... .. . ... ... ... : ... .. . ... : ... .. . ... : ... .. . ... ...
ROW 03 : ... .. . ... ... ... : ... .. . ... ... ... : ... .. . ... : ... .. . ... : ... .. . ... ...
ROW 04 : ... .. . ... ... ... : ... .. . ... ... ... : ... .. . ... : ... .. . ... : ... .. . ... ...
ROW 05 : ... .. . ... ... ... : ... .. . ... ... ... : ... .. . ... : ... .. . ... : ... .. . ... ...
ROW 06 : ... .. . ... ... ... : ... .. . ... ... ... : ... .. . ... : ... .. . ... : ... .. . ... ...
ROW 07 : ... .. . ... ... ... : ... .. . ... ... ... : ... .. . ... : ... .. . ... : ... .. . ... ...
ROW 08 : ... .. . ... ... ... : ... .. . ... ... ... : ... .. . ... : ... .. . ... : ... .. . ... ...
ROW 09 : ... .. . ... ... ... : ... .. . ... ... ... : ... .. . ... : ... .. . ... : ... .. . ... ...
ROW 0A : D#4 00 B P81 ... ... : G#4 00 B P80 ... ... : G-3 00 . ... : C-# 00 E ... : ... .. . ... ...
ROW 0B : ... .. A ... ... ... : ... .. A ... ... ... : ... .. . ... : ... .. 0 ... : ... .. . ... ...
ROW 0C : ... .. 9 ... ... ... : ... .. 9 ... ... ... : ... .. . ... : ... .. . ... : ... .. . ... ...
ROW 0D : ... .. 8 ... ... ... : ... .. 8 ... ... ... : ... .. . ... : ... .. . ... : ... .. . ... ...
ROW 0E : ... .. 7 ... ... ... : ... .. 7 ... ... ... : ... .. . ... : ... .. . ... : ... .. . ... ...
ROW 0F : ... .. 6 ... ... ... : ... .. 6 ... ... ... : ... .. . ... : ... .. . ... : ... .. . ... ...
ROW 10 : ... .. 5 ... ... ... : ... .. 5 ... ... ... : G#3 00 . ... : D-# 00 6 ... : ... .. . ... ...
ROW 11 : ... .. 4 ... ... ... : ... .. 4 ... ... ... : ... .. . ... : ... .. . ... : ... .. . ... ...
ROW 12 : ... .. 3 ... ... ... : ... .. 3 ... ... ... : ... .. . ... : ... .. . ... : ... .. . ... ...
ROW 13 : ... .. 2 ... ... ... : ... .. 2 ... ... ... : ... .. . ... : ... .. . ... : ... .. . ... ...
ROW 14 : ... .. 1 ... ... ... : ... .. 1 ... ... ... : ... .. . ... : ... .. . ... : ... .. . ... ...
ROW 15 : ... .. . ... ... ... : ... .. . ... ... ... : ... .. . ... : ... .. 0 ... : ... .. . ... ...
ROW 16 : ... .. . ... ... ... : ... .. . ... ... ... : ... .. . ... : ... .. . ... : ... .. . ... ...
ROW 17 : ... .. . ... ... ... : ... .. . ... ... ... : ... .. . ... : ... .. . ... : ... .. . ... ...
ROW 18 : ... .. . ... ... ... : ... .. . ... ... ... : ... .. . ... : ... .. . ... : ... .. . ... ...
ROW 19 : ... .. . ... ... ... : ... .. . ... ... ... : --- .. . ... : ... .. . ... : ... .. . ... ...
ROW 1A : ... .. . ... ... ... : ... .. . ... ... ... : ... .. . ... : ... .. . ... : ... .. . ... ...
ROW 1B : ... .. . ... ... ... : ... .. . ... ... ... : ... .. . ... : ... .. . ... : ... .. . ... ...
ROW 1C : ... .. . ... ... ... : ... .. . ... ... ... : ... .. . ... : ... .. . ... : ... .. . ... ...
ROW 1D : ... .. . ... ... ... : ... .. . ... ... ... : ... .. . ... : ... .. . ... : ... .. . ... ...
ROW 1E : ... .. . ... ... ... : ... .. . ... ... ... : ... .. . ... : ... .. . ... : ... .. . ... ...
ROW 1F : ... .. . ... ... ... : ... .. . ... ... ... : ... .. . ... : ... .. . ... : ... .. . ... ...
ROW 20 : ... .. . ... ... ... : ... .. . ... ... ... : ... .. . ... : ... .. . ... : ... .. . ... ...
ROW 21 : ... .. . ... ... ... : ... .. . ... ... ... : ... .. . ... : ... .. . ... : ... .. . ... ...
ROW 22 : ... .. . ... ... ... : ... .. . ... ... ... : G-3 00 . ... : C-# 00 E ... : ... .. . ... ...
ROW 23 : ... .. . ... ... ... : ... .. . ... ... ... : ... .. . ... : ... .. 0 ... : ... .. . ... ...
ROW 24 : ... .. . ... ... ... : ... .. . ... ... ... : ... .. . ... : ... .. . ... : ... .. . ... ...
ROW 25 : ... .. . ... ... ... : ... .. . ... ... ... : ... .. . ... : ... .. . ... : ... .. . ... ...
ROW 26 : ... .. . ... ... ... : ... .. . ... ... ... : ... .. . ... : ... .. . ... : ... .. . ... ...
ROW 27 : ... .. . ... ... ... : ... .. . ... ... ... : ... .. . ... : ... .. . ... : ... .. . ... ...
ROW 28 : D#4 00 B P81 ... ... : G#4 00 B P80 ... ... : D#3 00 . ... : D-# 00 6 ... : ... .. . ... ...
ROW 29 : ... .. A ... ... ... : ... .. A ... ... ... : ... .. . ... : ... .. . ... : ... .. . ... ...
ROW 2A : ... .. 9 ... ... ... : ... .. 9 ... ... ... : ... .. . ... : ... .. . ... : ... .. . ... ...
ROW 2B : ... .. 8 ... ... ... : ... .. 8 ... ... ... : ... .. . ... : ... .. . ... : ... .. . ... ...
ROW 2C : ... .. 7 ... ... ... : ... .. 7 ... ... ... : ... .. . ... : ... .. . ... : ... .. . ... ...
ROW 2D : ... .. 6 ... ... ... : ... .. 6 ... ... ... : ... .. . ... : ... .. 0 ... : ... .. . ... ...
ROW 2E : ... .. 1 ... ... ... : ... .. 1 ... ... ... : ... .. . ... : ... .. . ... : ... .. . ... ...
ROW 2F : ... .. . ... ... ... : ... .. . ... ... ... : ... .. . ... : ... .. . ... : ... .. . ... ...
ROW 30 : ... .. . ... ... ... : ... .. . ... ... ... : ... .. . ... : ... .. . ... : ... .. . ... ...
ROW 31 : ... .. . ... ... ... : ... .. . ... ... ... : --- .. . ... : ... .. . ... : ... .. . ... ...
ROW 32 : ... .. . ... ... ... : ... .. . ... ... ... : ... .. . ... : ... .. . ... : ... .. . ... ...
ROW 33 : ... .. . ... ... ... : ... .. . ... ... ... : ... .. . ... : ... .. . ... : ... .. . ... ...
ROW 34 : C-4 00 B P81 ... ... : G-4 00 B P81 ... ... : ... .. . ... : ... .. . ... : ... .. . ... ...
ROW 35 : ... .. A ... ... ... : ... .. A ... ... ... : ... .. . ... : ... .. . ... : ... .. . ... ...
ROW 36 : ... .. 9 ... ... ... : ... .. 9 ... ... ... : ... .. . ... : ... .. . ... : ... .. . ... ...
ROW 37 : ... .. 8 ... ... ... : ... .. 8 ... ... ... : ... .. . ... : ... .. . ... : ... .. . ... ...
ROW 38 : ... .. 7 ... ... ... : ... .. 7 ... ... ... : ... .. . ... : ... .. . ... : ... .. . ... ...
ROW 39 : ... .. 6 ... ... ... : ... .. 6 ... ... ... : ... .. . ... : ... .. . ... : ... .. . ... ...
ROW 3A : G#3 00 B P80 ... ... : D#4 00 B P81 ... ... : C-3 00 . ... : C-# 00 E ... : ... .. . ... ...
ROW 3B : ... .. A ... ... ... : ... .. A ... ... ... : ... .. . ... : ... .. 0 ... : ... .. . ... ...
ROW 3C : ... .. 9 ... ... ... : ... .. 9 ... ... ... : ... .. . ... : ... .. . ... : ... .. . ... ...
ROW 3D : ... .. 8 ... ... ... : ... .. 8 ... ... ... : ... .. . ... : ... .. . ... : ... .. . ... ...
ROW 3E : ... .. 7 ... ... ... : ... .. 7 ... ... ... : ... .. . ... : ... .. . ... : ... .. . ... ...
ROW 3F : ... .. 6 ... ... ... : ... .. 6 ... ... ... : ... .. . ... : ... .. . ... : ... .. . ... ...
ROW 40 : F#3 00 B P80 ... ... : C#4 00 B P80 ... ... : C#3 00 . ... : D-# 00 6 ... : ... .. . ... ...
ROW 41 : ... .. A ... ... ... : ... .. A ... ... ... : ... .. . ... : ... .. . ... : ... .. . ... ...
ROW 42 : ... .. 9 ... ... ... : ... .. 9 ... ... ... : ... .. . ... : ... .. . ... : ... .. . ... ...
ROW 43 : ... .. 8 ... ... ... : ... .. 8 ... ... ... : ... .. . ... : ... .. . ... : ... .. . ... ...
ROW 44 : ... .. 7 ... ... ... : ... .. 7 ... ... ... : ... .. . ... : ... .. . ... : ... .. . ... ...
ROW 45 : ... .. 6 ... ... ... : ... .. 6 ... ... ... : ... .. . ... : ... .. 0 ... : ... .. . ... ...
ROW 46 : ... .. 1 ... ... ... : ... .. 1 ... ... ... : ... .. . ... : ... .. . ... : ... .. . ... ...
ROW 47 : ... .. . ... ... ... : ... .. . ... ... ... : ... .. . ... : ... .. . ... : ... .. . ... ...
ROW 48 : ... .. . ... ... ... : ... .. . ... ... ... : ... .. . ... : ... .. . ... : ... .. . ... ...
ROW 49 : ... .. . ... ... ... : ... .. . ... ... ... : --- .. . ... : ... .. . ... : ... .. . ... ...
ROW 4A : ... .. . ... ... ... : ... .. . ... ... ... : ... .. . ... : ... .. . ... : ... .. . ... ...
ROW 4B : ... .. . ... ... ... : ... .. . ... ... ... : ... .. . ... : ... .. . ... : ... .. . ... ...
ROW 4C : G-3 00 B P80 ... ... : D#4 00 B P81 ... ... : ... .. . ... : ... .. . ... : ... .. . ... ...
ROW 4D : ... .. A ... ... ... : ... .. A ... ... ... : ... .. . ... : ... .. . ... : ... .. . ... ...
ROW 4E : ... .. 9 ... ... ... : ... .. 9 ... ... ... : ... .. . ... : ... .. . ... : ... .. . ... ...
ROW 4F : ... .. 8 ... ... ... : ... .. 8 ... ... ... : ... .. . ... : ... .. . ... : ... .. . ... ...
ROW 50 : ... .. 7 ... ... ... : ... .. 7 ... ... ... : ... .. . ... : ... .. . ... : ... .. . ... ...
ROW 51 : ... .. 6 ... ... ... : ... .. 6 ... ... ... : ... .. . ... : ... .. . ... : ... .. . ... ...
ROW 52 : F#3 00 B P80 ... ... : C#4 00 B P80 ... ... : D#3 00 . ... : C-# 00 E ... : ... .. . ... ...
ROW 53 : ... .. A ... ... ... : ... .. A ... ... ... : ... .. . ... : ... .. 0 ... : ... .. . ... ...
ROW 54 : ... .. 9 ... ... ... : ... .. 9 ... ... ... : ... .. . ... : ... .. . ... : ... .. . ... ...
ROW 55 : ... .. 8 ... ... ... : ... .. 8 ... ... ... : ... .. . ... : ... .. . ... : ... .. . ... ...
ROW 56 : ... .. 7 ... ... ... : ... .. 7 ... ... ... : ... .. . ... : ... .. . ... : ... .. . ... ...
ROW 57 : ... .. 6 ... ... ... : ... .. 6 ... ... ... : ... .. . ... : ... .. . ... : ... .. . ... ...
ROW 58 : F#3 00 B P80 ... ... : C#4 00 B P80 ... ... : F#3 00 . ... : D-# 00 6 ... : ... .. . ... ...
ROW 59 : ... .. A ... ... ... : ... .. A ... ... ... : ... .. . ... : ... .. . ... : ... .. . ... ...
ROW 5A : ... .. 9 ... ... ... : ... .. 9 ... ... ... : ... .. . ... : ... .. . ... : ... .. . ... ...
ROW 5B : ... .. 8 ... ... ... : ... .. 8 ... ... ... : ... .. . ... : ... .. . ... : ... .. . ... ...
ROW 5C : ... .. 7 ... ... ... : ... .. 7 ... ... ... : ... .. . ... : ... .. . ... : ... .. . ... ...
ROW 5D : ... .. 6 ... ... ... : ... .. 6 ... ... ... : ... .. . ... : ... .. 0 ... : ... .. . ... ...
ROW 5E : ... .. 1 ... ... ... : ... .. 1 ... ... ... : ... .. . ... : ... .. . ... : ... .. . ... ...
ROW 5F : ... .. . ... ... ... : ... .. . ... ... ... : ... .. . ... : ... .. . ... : ... .. . ... ...
ROW 60 : ... .. . ... ... ... : ... .. . ... ... ... : ... .. . ... : ... .. . ... : ... .. . ... ...
ROW 61 : ... .. . ... ... ... : ... .. . ... ... ... : --- .. . ... : ... .. . ... : ... .. . ... ...
ROW 62 : ... .. . ... ... ... : ... .. . ... ... ... : ... .. . ... : ... .. . ... : ... .. . ... ...
ROW 63 : ... .. . ... ... ... : ... .. . ... ... ... : ... .. . ... : ... .. . ... : ... .. . ... ...
ROW 64 : C#3 00 B P80 ... ... : G#3 00 B P80 ... ... : ... .. . ... : ... .. . ... : ... .. . ... ...
ROW 65 : ... .. A ... ... ... : ... .. A ... ... ... : ... .. . ... : ... .. . ... : ... .. . ... ...
ROW 66 : ... .. 9 ... ... ... : ... .. 9 ... ... ... : ... .. . ... : ... .. . ... : ... .. . ... ...
ROW 67 : ... .. 8 ... ... ... : ... .. 8 ... ... ... : ... .. . ... : ... .. . ... : ... .. . ... ...
ROW 68 : ... .. 7 ... ... ... : ... .. 7 ... ... ... : ... .. . ... : ... .. . ... : ... .. . ... ...
ROW 69 : ... .. 6 ... ... ... : ... .. 6 ... ... ... : ... .. . ... : ... .. . ... : ... .. . ... ...
ROW 6A : ... .. 1 ... ... ... : ... .. 1 ... ... ... : G#2 00 . P7F : C-# 00 E ... : ... .. . ... ...
ROW 6B : ... .. . ... ... ... : ... .. . ... ... ... : ... .. . ... : ... .. 0 ... : ... .. . ... ...
ROW 6C : ... .. . ... ... ... : ... .. . ... ... ... : ... .. . ... : ... .. . ... : ... .. . ... ...
ROW 6D : ... .. . ... ... ... : ... .. . ... ... ... : ... .. . ... : ... .. . ... : ... .. . ... ...
ROW 6E : ... .. . ... ... ... : ... .. . ... ... ... : ... .. . ... : ... .. . ... : ... .. . ... ...
ROW 6F : ... .. . ... ... ... : ... .. . ... ... ... : ... .. . ... : ... .. . ... : ... .. . ... ...
ROW 70 : ... .. 5 ... ... ... : ... .. 5 ... ... ... : C#3 00 . P80 : D-# 00 6 ... : ... .. . ... ...
ROW 71 : ... .. 4 ... ... ... : ... .. 4 ... ... ... : ... .. . ... : ... .. . ... : ... .. . ... ...
ROW 72 : ... .. 3 ... ... ... : ... .. 3 ... ... ... : ... .. . ... : ... .. . ... : ... .. . ... ...
ROW 73 : ... .. 2 ... ... ... : ... .. 2 ... ... ... : ... .. . ... : ... .. . ... : ... .. . ... ...
ROW 74 : ... .. 1 ... ... ... : ... .. 1 ... ... ... : ... .. . ... : ... .. . ... : ... .. . ... ...
ROW 75 : ... .. . ... ... ... : ... .. . ... ... ... : ... .. . ... : ... .. 0 ... : ... .. . ... ...
ROW 76 : ... .. . ... ... ... : ... .. . ... ... ... : --- .. . ... : ... .. . ... : ... .. . ... ...
ROW 77 : ... .. . ... ... ... : ... .. . ... ... ... : ... .. . ... : ... .. . ... : ... .. . ... ...
ROW 78 : ... .. . ... ... ... : ... .. . ... ... ... : ... .. . ... : ... .. . ... : ... .. . ... ...
ROW 79 : ... .. . ... ... ... : ... .. . ... ... ... : ... .. . ... : ... .. . ... : ... .. . ... ...
ROW 7A : ... .. . ... ... ... : ... .. . ... ... ... : ... .. . ... : ... .. . ... : ... .. . ... ...
ROW 7B : ... .. . ... ... ... : ... .. . ... ... ... : ... .. . ... : ... .. . ... : ... .. . ... ...
ROW 7C : C#3 00 B P80 ... ... : G#3 00 B P80 ... ... : D#3 00 . ... : ... .. . ... : ... .. . ... ...
ROW 7D : ... .. A ... ... ... : ... .. A ... ... ... : ... .. . ... : ... .. . ... : ... .. . ... ...
ROW 7E : ... .. 9 ... ... ... : ... .. 9 ... ... ... : ... .. . ... : ... .. . ... : ... .. . ... ...
ROW 7F : ... .. 8 ... ... ... : ... .. 8 ... ... ... : ... .. . ... : ... .. . ... : ... .. . ... ...
ROW 80 : F#3 00 B P80 ... ... : C#4 00 B P80 ... ... : ... .. . ... : ... .. . ... : ... .. . ... ...
ROW 81 : ... .. A ... ... ... : ... .. A ... ... ... : ... .. . ... : ... .. . ... : ... .. . ... ...
ROW 82 : ... .. 9 ... ... ... : ... .. 9 ... ... ... : C-3 00 . ... : C-# 00 E ... : ... .. . ... ...
ROW 83 : ... .. 8 ... ... ... : ... .. 8 ... ... ... : ... .. . ... : ... .. 0 ... : ... .. . ... ...
ROW 84 : C#3 00 B P80 ... ... : G#3 00 B P80 ... ... : ... .. . ... : ... .. . ... : ... .. . ... ...
ROW 85 : ... .. A ... ... ... : ... .. A ... ... ... : ... .. . ... : ... .. . ... : ... .. . ... ...
ROW 86 : ... .. 9 ... ... ... : ... .. 9 ... ... ... : ... .. . ... : ... .. . ... : ... .. . ... ...
ROW 87 : ... .. 8 ... ... ... : ... .. 8 ... ... ... : ... .. . ... : ... .. . ... : ... .. . ... ...
ROW 88 : F#3 00 B P80 ... ... : G#3 00 B P80 ... ... : B-2 00 . ... : D-# 00 6 ... : ... .. . ... ...
ROW 89 : ... .. A ... ... ... : ... .. A ... ... ... : ... .. . ... : ... .. . ... : ... .. . ... ...
ROW 8A : ... .. 9 ... ... ... : ... .. 9 ... ... ... : ... .. . ... : ... .. . ... : ... .. . ... ...
ROW 8B : ... .. 8 ... ... ... : ... .. 8 ... ... ... : ... .. . ... : ... .. . ... : ... .. . ... ...
ROW 8C : C#3 00 B P80 ... ... : C#4 00 B P80 ... ... : ... .. . ... : ... .. . ... : ... .. . ... ...
ROW 8D : ... .. A ... ... ... : ... .. A ... ... ... : ... .. . ... : ... .. 0 ... : ... .. . ... ...
ROW 8E : ... .. 9 ... ... ... : ... .. 9 ... ... ... : ... .. . ... : ... .. . ... : ... .. . ... ...
ROW 8F : ... .. 8 ... ... ... : ... .. 8 ... ... ... : ... .. . ... : ... .. . ... : ... .. . ... ...
ROW 90 : F#3 00 B P80 ... ... : G#3 00 B P80 ... ... : ... .. . ... : ... .. . ... : ... .. . ... ...
ROW 91 : ... .. A ... ... ... : ... .. A ... ... ... : --- .. . ... : ... .. . ... : ... .. . ... ...
ROW 92 : ... .. 9 ... ... ... : ... .. 9 ... ... ... : ... .. . ... : ... .. . ... : ... .. . ... ...
ROW 93 : ... .. 8 ... ... ... : ... .. 8 ... ... ... : ... .. . ... : ... .. . ... : ... .. . ... ...
ROW 94 : C#3 00 B P80 ... ... : C#4 00 B P80 ... ... : ... .. . ... : ... .. . ... : ... .. . ... ...
ROW 95 : ... .. A ... ... ... : ... .. A ... ... ... : ... .. . ... : ... .. . ... : ... .. . ... ...
ROW 96 : ... .. 9 ... ... ... : ... .. 9 ... ... ... : ... .. . ... : ... .. . ... : ... .. . ... ...
ROW 97 : ... .. 8 ... ... ... : ... .. 8 ... ... ... : ... .. . ... : ... .. . ... : ... .. . ... ...
ROW 98 : F#3 00 B P80 ... ... : G#3 00 B P80 ... ... : ... .. . ... : ... .. . ... : ... .. . ... ...
ROW 99 : ... .. A ... ... ... : ... .. A ... ... ... : ... .. . ... : ... .. . ... : ... .. . ... ...
ROW 9A : ... .. 9 ... ... ... : ... .. 9 ... ... ... : G#2 00 . P7F : C-# 00 E ... : ... .. . ... ...
ROW 9B : ... .. 8 ... ... ... : ... .. 8 ... ... ... : ... .. . ... : ... .. 0 ... : ... .. . ... ...
ROW 9C : C#3 00 B P80 ... ... : C#4 00 B P80 ... ... : ... .. . ... : ... .. . ... : ... .. . ... ...
ROW 9D : ... .. A ... ... ... : ... .. A ... ... ... : ... .. . ... : ... .. . ... : ... .. . ... ...
ROW 9E : ... .. 9 ... ... ... : ... .. 9 ... ... ... : ... .. . ... : ... .. . ... : ... .. . ... ...
ROW 9F : ... .. 8 ... ... ... : ... .. 8 ... ... ... : ... .. . ... : ... .. . ... : ... .. . ... ...
ROW A0 : ... .. 5 ... ... ... : ... .. 5 ... ... ... : G-2 00 . P80 : D-# 00 6 ... : ... .. . ... ...
ROW A1 : ... .. 4 ... ... ... : ... .. 4 ... ... ... : ... .. . ... : ... .. . ... : ... .. . ... ...
ROW A2 : ... .. 3 ... ... ... : ... .. 3 ... ... ... : ... .. . ... : ... .. . ... : ... .. . ... ...
ROW A3 : ... .. 2 ... ... ... : ... .. 2 ... ... ... : ... .. . ... : ... .. . ... : ... .. . ... ...
ROW A4 : ... .. 1 ... ... ... : ... .. 1 ... ... ... : ... .. . ... : ... .. . ... : ... .. . ... ...
ROW A5 : ... .. . ... ... ... : ... .. . ... ... ... : ... .. . ... : ... .. 0 ... : ... .. . ... ...
ROW A6 : ... .. . ... ... ... : ... .. . ... ... ... : ... .. . ... : ... .. . ... : ... .. . ... ...
ROW A7 : ... .. . ... ... ... : ... .. . ... ... ... : ... .. . ... : ... .. . ... : ... .. . ... ...
ROW A8 : ... .. . ... ... ... : ... .. . ... ... ... : ... .. . ... : ... .. . ... : ... .. . ... ...
ROW A9 : ... .. . ... ... ... : ... .. . ... ... ... : --- .. . ... : ... .. . ... : ... .. . ... ...
ROW AA : ... .. . ... ... ... : ... .. . ... ... ... : ... .. . ... : ... .. . ... : ... .. . ... ...
ROW AB : ... .. . ... ... ... : ... .. . ... ... ... : ... .. . ... : ... .. . ... : ... .. . ... ...
ROW AC : G-3 00 B P80 ... ... : D#4 00 B P81 ... ... : ... .. . ... : ... .. . ... : ... .. . ... ...
ROW AD : ... .. A ... ... ... : ... .. A ... ... ... : ... .. . ... : ... .. . ... : ... .. . ... ...
ROW AE : ... .. 9 ... ... ... : ... .. 9 ... ... ... : ... .. . ... : ... .. . ... : ... .. . ... ...
ROW AF : ... .. 8 ... ... ... : ... .. 8 ... ... ... : ... .. . ... : ... .. . ... : ... .. . ... ...
ROW B0 : ... .. 7 ... ... ... : ... .. 7 ... ... ... : ... .. . ... : ... .. . ... : ... .. . ... ...
ROW B1 : ... .. 6 ... ... ... : ... .. 6 ... ... ... : ... .. . ... : ... .. . ... : ... .. . ... ...
ROW B2 : F-3 00 B P80 ... ... : C#4 00 B P80 ... ... : G-3 00 . ... : C-# 00 E ... : ... .. . ... ...
ROW B3 : ... .. A ... ... ... : ... .. A ... ... ... : ... .. . ... : ... .. 0 ... : ... .. . ... ...
ROW B4 : ... .. 9 ... ... ... : ... .. 9 ... ... ... : ... .. . ... : ... .. . ... : ... .. . ... ...
ROW B5 : ... .. 8 ... ... ... : ... .. 8 ... ... ... : ... .. . ... : ... .. . ... : ... .. . ... ...
ROW B6 : ... .. 7 ... ... ... : ... .. 7 ... ... ... : ... .. . ... : ... .. . ... : ... .. . ... ...
ROW B7 : ... .. 6 ... ... ... : ... .. 6 ... ... ... : ... .. . ... : ... .. . ... : ... .. . ... ...
ROW B8 : F-3 00 B P80 ... ... : C#4 00 B P80 ... ... : F-3 00 . ... : D-# 00 6 ... : ... .. . ... ...
ROW B9 : ... .. A ... ... ... : ... .. A ... ... ... : ... .. . ... : ... .. . ... : ... .. . ... ...
ROW BA : ... .. 9 ... ... ... : ... .. 9 ... ... ... : ... .. . ... : ... .. . ... : ... .. . ... ...
ROW BB : ... .. 8 ... ... ... : ... .. 8 ... ... ... : ... .. . ... : ... .. . ... : ... .. . ... ...
ROW BC : ... .. 7 ... ... ... : ... .. 7 ... ... ... : ... .. . ... : ... .. . ... : ... .. . ... ...
ROW BD : ... .. 6 ... ... ... : ... .. 6 ... ... ... : ... .. . ... : ... .. 0 ... : ... .. . ... ...
ROW BE : ... .. 1 ... ... ... : ... .. 1 ... ... ... : ... .. . ... : ... .. . ... : ... .. . ... ...
ROW BF : ... .. . ... ... ... : ... .. . ... ... ... : ... .. . ... : ... .. . ... : ... .. . ... ...
ROW C0 : ... .. . ... ... ... : ... .. . ... ... ... : ... .. . ... : ... .. . ... : ... .. . ... ...
ROW C1 : ... .. . ... ... ... : ... .. . ... ... ... : --- .. . ... : ... .. . ... : ... .. . ... ...
ROW C2 : ... .. . ... ... ... : ... .. . ... ... ... : ... .. . ... : ... .. . ... : ... .. . ... ...
ROW C3 : ... .. . ... ... ... : ... .. . ... ... ... : ... .. . ... : ... .. . ... : ... .. . ... ...
ROW C4 : G-3 00 B P80 ... ... : D#4 00 B P81 ... ... : ... .. . ... : ... .. . ... : ... .. . ... ...
ROW C5 : ... .. A ... ... ... : ... .. A ... ... ... : ... .. . ... : ... .. . ... : ... .. . ... ...
ROW C6 : ... .. 9 ... ... ... : ... .. 9 ... ... ... : ... .. . ... : ... .. . ... : ... .. . ... ...
ROW C7 : ... .. 8 ... ... ... : ... .. 8 ... ... ... : ... .. . ... : ... .. . ... : ... .. . ... ...
ROW C8 : ... .. 7 ... ... ... : ... .. 7 ... ... ... : ... .. . ... : ... .. . ... : ... .. . ... ...
ROW C9 : ... .. 6 ... ... ... : ... .. 6 ... ... ... : ... .. . ... : ... .. . ... : ... .. . ... ...
ROW CA : ... .. 1 ... ... ... : ... .. 1 ... ... ... : C#3 00 . ... : C-# 00 E ... : ... .. . ... ...
ROW CB : ... .. . ... ... ... : ... .. . ... ... ... : ... .. . ... : ... .. 0 ... : ... .. . ... ...
ROW CC : ... .. . ... ... ... : ... .. . ... ... ... : ... .. . ... : ... .. . ... : ... .. . ... ...
ROW CD : ... .. . ... ... ... : ... .. . ... ... ... : ... .. . ... : ... .. . ... : ... .. . ... ...
ROW CE : ... .. . ... ... ... : ... .. . ... ... ... : ... .. . ... : ... .. . ... : ... .. . ... ...
ROW CF : ... .. . ... ... ... : ... .. . ... ... ... : ... .. . ... : ... .. . ... : ... .. . ... ...
ROW D0 : ... .. 5 ... ... ... : ... .. 5 ... ... ... : B-2 00 . ... : D-# 00 6 ... : ... .. . ... ...
ROW D1 : ... .. 4 ... ... ... : ... .. 4 ... ... ... : ... .. . ... : ... .. . ... : ... .. . ... ...
ROW D2 : ... .. 3 ... ... ... : ... .. 3 ... ... ... : ... .. . ... : ... .. . ... : ... .. . ... ...
ROW D3 : ... .. 2 ... ... ... : ... .. 2 ... ... ... : ... .. . ... : ... .. . ... : ... .. . ... ...
ROW D4 : ... .. 1 ... ... ... : ... .. 1 ... ... ... : ... .. . ... : ... .. . ... : ... .. . ... ...
ROW D5 : ... .. . ... ... ... : ... .. . ... ... ... : ... .. . ... : ... .. 0 ... : ... .. . ... ...
ROW D6 : ... .. . ... ... ... : ... .. . ... ... ... : ... .. . ... : ... .. . ... : ... .. . ... ...
ROW D7 : ... .. . ... ... ... : ... .. . ... ... ... : ... .. . ... : ... .. . ... : ... .. . ... ...
ROW D8 : ... .. . ... ... ... : ... .. . ... ... ... : ... .. . ... : ... .. . ... : ... .. . ... ...
ROW D9 : ... .. . ... ... ... : ... .. . ... ... ... : --- .. . ... : ... .. . ... : ... .. . ... ...
ROW DA : ... .. . ... ... ... : ... .. . ... ... ... : ... .. . ... : ... .. . ... : ... .. . ... ...
ROW DB : ... .. . ... ... ... : ... .. . ... ... ... : ... .. . ... : ... .. . ... : ... .. . ... ...
ROW DC : B-3 00 B P80 ... ... : G-4 00 B P81 ... ... : ... .. . ... : ... .. . ... : ... .. . ... ...
ROW DD : ... .. A ... ... ... : ... .. A ... ... ... : ... .. . ... : ... .. . ... : ... .. . ... ...
ROW DE : ... .. 9 ... ... ... : ... .. 9 ... ... ... : ... .. . ... : ... .. . ... : ... .. . ... ...
ROW DF : ... .. 8 ... ... ... : ... .. 8 ... ... ... : ... .. . ... : ... .. . ... : ... .. . ... ...
ROW E0 : ... .. 7 ... ... ... : ... .. 7 ... ... ... : ... .. . ... : ... .. . ... : ... .. . ... ...
ROW E1 : ... .. 6 ... ... ... : ... .. 6 ... ... ... : ... .. . ... : ... .. . ... : ... .. . ... ...
ROW E2 : C-4 00 B P81 ... ... : G#4 00 B P80 ... ... : G-2 00 . ... : C-# 00 E ... : ... .. . ... ...
ROW E3 : ... .. A ... ... ... : ... .. A ... ... ... : ... .. . ... : ... .. 0 ... : ... .. . ... ...
ROW E4 : ... .. 9 ... ... ... : ... .. 9 ... ... ... : ... .. . ... : ... .. . ... : ... .. . ... ...
ROW E5 : ... .. 8 ... ... ... : ... .. 8 ... ... ... : ... .. . ... : ... .. . ... : ... .. . ... ...
ROW E6 : ... .. 7 ... ... ... : ... .. 7 ... ... ... : ... .. . ... : ... .. . ... : ... .. . ... ...
ROW E7 : ... .. 6 ... ... ... : ... .. 6 ... ... ... : ... .. . ... : ... .. . ... : ... .. . ... ...
ROW E8 : G-3 00 B P80 ... ... : D#4 00 B P81 ... ... : G#2 00 . P7F : D-# 00 6 ... : ... .. . ... ...
ROW E9 : ... .. A ... ... ... : ... .. A ... ... ... : ... .. . ... : ... .. . ... : ... .. . ... ...
ROW EA : ... .. 9 ... ... ... : ... .. 9 ... ... ... : ... .. . ... : ... .. . ... : ... .. . ... ...
ROW EB : ... .. 8 ... ... ... : ... .. 8 ... ... ... : ... .. . ... : ... .. . ... : ... .. . ... ...
ROW EC : ... .. 7 ... ... ... : ... .. 7 ... ... ... : ... .. . ... : ... .. . ... : ... .. . ... ...
ROW ED : ... .. 6 ... ... ... : ... .. 6 ... ... ... : ... .. . ... : ... .. 0 ... : ... .. . ... ...
ROW EE : ... .. 1 ... ... ... : ... .. 1 ... ... ... : ... .. . ... : ... .. . ... : ... .. . ... ...
ROW EF : ... .. . ... ... ... : ... .. . ... ... ... : ... .. . ... : ... .. . ... : ... .. . ... ...
ROW F0 : ... .. . ... ... ... : ... .. . ... ... ... : ... .. . ... : ... .. . ... : ... .. . ... ...
ROW F1 : ... .. . ... ... ... : ... .. . ... ... ... : --- .. . ... : ... .. . ... : ... .. . ... ...
ROW F2 : ... .. . ... ... ... : ... .. . ... ... ... : ... .. . ... : ... .. . ... : ... .. . ... ...
ROW F3 : ... .. . ... ... ... : ... .. . ... ... ... : ... .. . ... : ... .. . ... : ... .. . ... ...
ROW F4 : F-3 00 B P80 ... ... : C#4 00 B P80 ... ... : ... .. . ... : ... .. . ... : ... .. . ... ...
ROW F5 : ... .. A ... ... ... : ... .. A ... ... ... : ... .. . ... : ... .. . ... : ... .. . ... ...
ROW F6 : ... .. 9 ... ... ... : ... .. 9 ... ... ... : ... .. . ... : ... .. . ... : ... .. . ... ...
ROW F7 : ... .. 8 ... ... ... : ... .. 8 ... ... ... : ... .. . ... : ... .. . ... : ... .. . ... ...
ROW F8 : ... .. 7 ... ... ... : ... .. 7 ... ... ... : ... .. . ... : ... .. . ... : ... .. . ... ...
ROW F9 : ... .. 6 ... ... ... : ... .. 6 ... ... ... : ... .. . ... : ... .. . ... : ... .. . ... ...
ROW FA : D#3 00 B P80 ... ... : C-4 00 B P81 ... ... : B-2 00 . P80 : C-# 00 E ... : ... .. . ... ...
ROW FB : ... .. A ... ... ... : ... .. A ... ... ... : ... .. . ... : ... .. 0 ... : ... .. . ... ...
ROW FC : ... .. 9 ... ... ... : ... .. 9 ... ... ... : ... .. . ... : ... .. . ... : ... .. . ... ...
ROW FD : ... .. 8 ... ... ... : ... .. 8 ... ... ... : ... .. . ... : ... .. . ... : ... .. . ... ...
ROW FE : ... .. 7 ... ... ... : ... .. 7 ... ... ... : ... .. . ... : ... .. . ... : ... .. . ... ...
ROW FF : ... .. 6 ... ... ... : ... .. 6 ... ... ... : ... .. . ... : ... .. . ... : ... .. . ... ...

PATTERN 09
ROW 00 : ... .. 5 ... ... ... : ... .. 5 ... ... ... : C-3 00 . ... : D-# 00 6 ... : ... .. . ... ...
ROW 01 : ... .. 4 ... ... ... : ... .. 4 ... ... ... : ... .. . ... : ... .. . ... : ... .. . ... ...
ROW 02 : ... .. 3 ... ... ... : ... .. 3 ... ... ... : ... .. . ... : ... .. . ... : ... .. . ... ...
ROW 03 : ... .. 2 ... ... ... : ... .. 2 ... ... ... : ... .. . ... : ... .. . ... : ... .. . ... ...
ROW 04 : ... .. 1 ... ... ... : ... .. 1 ... ... ... : ... .. . ... : ... .. . ... : ... .. . ... ...
ROW 05 : ... .. . ... ... ... : ... .. . ... ... ... : ... .. . ... : ... .. 0 ... : ... .. . ... ...
ROW 06 : ... .. . ... ... ... : ... .. . ... ... ... : ... .. . ... : ... .. . ... : ... .. . ... ...
ROW 07 : ... .. . ... ... ... : ... .. . ... ... ... : ... .. . ... : ... .. . ... : ... .. . ... ...
ROW 08 : ... .. . ... ... ... : ... .. . ... ... ... : ... .. . ... : ... .. . ... : ... .. . ... ...
ROW 09 : ... .. . ... ... ... : ... .. . ... ... ... : --- .. . ... : ... .. . ... : ... .. . ... ...
ROW 0A : ... .. . ... ... ... : ... .. . ... ... ... : ... .. . ... : ... .. . ... : ... .. . ... ...
ROW 0B : ... .. . ... ... ... : ... .. . ... ... ... : ... .. . ... : ... .. . ... : ... .. . ... ...
ROW 0C : D#3 00 B P80 ... ... : G-3 00 B P80 ... ... : ... .. . ... : ... .. . ... : ... .. . ... ...
ROW 0D : ... .. A ... ... ... : ... .. A ... ... ... : ... .. . ... : ... .. . ... : ... .. . ... ...
ROW 0E : ... .. 9 ... ... ... : ... .. 9 ... ... ... : ... .. . ... : ... .. . ... : ... .. . ... ...
ROW 0F : ... .. 8 ... ... ... : ... .. 8 ... ... ... : ... .. . ... : ... .. . ... : ... .. . ... ...
ROW 10 : C-4 00 B P81 ... ... : D#4 00 B P81 ... ... : ... .. . ... : ... .. . ... : ... .. . ... ...
ROW 11 : ... .. A ... ... ... : ... .. A ... ... ... : ... .. . ... : ... .. . ... : ... .. . ... ...
ROW 12 : ... .. 9 ... ... ... : ... .. 9 ... ... ... : C#3 00 . ... : C-# 00 E ... : ... .. . ... ...
ROW 13 : ... .. 8 ... ... ... : ... .. 8 ... ... ... : ... .. . ... : ... .. 0 ... : ... .. . ... ...
ROW 14 : D#3 00 B P80 ... ... : G-3 00 B P80 ... ... : ... .. . ... : ... .. . ... : ... .. . ... ...
ROW 15 : ... .. A ... ... ... : ... .. A ... ... ... : ... .. . ... : ... .. . ... : ... .. . ... ...
ROW 16 : ... .. 9 ... ... ... : ... .. 9 ... ... ... : ... .. . ... : ... .. . ... : ... .. . ... ...
ROW 17 : ... .. 8 ... ... ... : ... .. 8 ... ... ... : ... .. . ... : ... .. . ... : ... .. . ... ...
ROW 18 : D#3 00 B P80 ... ... : G-3 00 B P80 ... ... : C#3 00 . ... : D-# 00 6 ... : ... .. . ... ...
ROW 19 : ... .. A ... ... ... : ... .. A ... ... ... : ... .. . ... : ... .. . ... : ... .. . ... ...
ROW 1A : ... .. 9 ... ... ... : ... .. 9 ... ... ... : ... .. . ... : ... .. . ... : ... .. . ... ...
ROW 1B : ... .. 8 ... ... ... : ... .. 8 ... ... ... : ... .. . ... : ... .. . ... : ... .. . ... ...
ROW 1C : C-4 00 B P81 ... ... : D#4 00 B P81 ... ... : ... .. . ... : ... .. . ... : ... .. . ... ...
ROW 1D : ... .. A ... ... ... : ... .. A ... ... ... : ... .. . ... : ... .. 0 ... : ... .. . ... ...
ROW 1E : ... .. 9 ... ... ... : ... .. 9 ... ... ... : ... .. . ... : ... .. . ... : ... .. . ... ...
ROW 1F : ... .. 8 ... ... ... : ... .. 8 ... ... ... : ... .. . ... : ... .. . ... : ... .. . ... ...
ROW 20 : D#3 00 B P80 ... ... : G-3 00 B P80 ... ... : ... .. . ... : ... .. . ... : ... .. . ... ...
ROW 21 : ... .. A ... ... ... : ... .. A ... ... ... : --- .. . ... : ... .. . ... : ... .. . ... ...
ROW 22 : ... .. 9 ... ... ... : ... .. 9 ... ... ... : ... .. . ... : ... .. . ... : ... .. . ... ...
ROW 23 : ... .. 8 ... ... ... : ... .. 8 ... ... ... : ... .. . ... : ... .. . ... : ... .. . ... ...
ROW 24 : C-4 00 B P81 ... ... : D#4 00 B P81 ... ... : ... .. . ... : ... .. . ... : ... .. . ... ...
ROW 25 : ... .. A ... ... ... : ... .. A ... ... ... : ... .. . ... : ... .. . ... : ... .. . ... ...
ROW 26 : ... .. 9 ... ... ... : ... .. 9 ... ... ... : ... .. . ... : ... .. . ... : ... .. . ... ...
ROW 27 : ... .. 8 ... ... ... : ... .. 8 ... ... ... : ... .. . ... : ... .. . ... : ... .. . ... ...
ROW 28 : D#3 00 B P80 ... ... : G-3 00 B P80 ... ... : ... .. . ... : ... .. . ... : ... .. . ... ...
ROW 29 : ... .. A ... ... ... : ... .. A ... ... ... : ... .. . ... : ... .. . ... : ... .. . ... ...
ROW 2A : ... .. 9 ... ... ... : ... .. 9 ... ... ... : D-3 00 . ... : C-# 00 E ... : ... .. . ... ...
ROW 2B : ... .. 8 ... ... ... : ... .. 8 ... ... ... : ... .. . ... : ... .. 0 ... : ... .. . ... ...
ROW 2C : C-4 00 B P81 ... ... : D#4 00 B P81 ... ... : ... .. . ... : ... .. . ... : ... .. . ... ...
ROW 2D : ... .. A ... ... ... : ... .. A ... ... ... : ... .. . ... : ... .. . ... : ... .. . ... ...
ROW 2E : ... .. 9 ... ... ... : ... .. 9 ... ... ... : ... .. . ... : ... .. . ... : ... .. . ... ...
ROW 2F : ... .. 8 ... ... ... : ... .. 8 ... ... ... : ... .. . ... : ... .. . ... : ... .. . ... ...
ROW 30 : ... .. . ... ... ... : ... .. . ... ... ... : D#3 00 . ... : D-# 00 6 ... : ... .. . ... ...
ROW 31 : ... .. . ... ... ... : ... .. . ... ... ... : ... .. . ... : ... .. . ... : ... .. . ... ...
ROW 32 : ... .. . ... ... ... : ... .. . ... ... ... : ... .. . ... : ... .. . ... : ... .. . ... ...
ROW 33 : ... .. . ... ... ... : ... .. . ... ... ... : ... .. . ... : ... .. . ... : ... .. . ... ...
ROW 34 : ... .. . ... ... ... : ... .. . ... ... ... : ... .. . ... : ... .. . ... : ... .. . ... ...
ROW 35 : ... .. . ... ... ... : ... .. . ... ... ... : ... .. . ... : ... .. 0 ... : ... .. . ... ...
ROW 36 : ... .. . ... ... ... : ... .. . ... ... ... : --- .. . ... : ... .. . ... : ... .. . ... ...
ROW 37 : ... .. . ... ... ... : ... .. . ... ... ... : ... .. . ... : ... .. . ... : ... .. . ... ...
ROW 38 : ... .. . ... ... ... : ... .. . ... ... ... : ... .. . ... : ... .. . ... : ... .. . ... ...
ROW 39 : ... .. . ... ... ... : ... .. . ... ... ... : ... .. . ... : ... .. . ... : ... .. . ... ...
ROW 3A : ... .. . ... ... ... : ... .. . ... ... ... : ... .. . ... : ... .. . ... : ... .. . ... ...
ROW 3B : ... .. . ... ... ... : ... .. . ... ... ... : ... .. . ... : ... .. . ... : ... .. . ... ...
ROW 3C : B-3 00 5 P80 ... ... : G-4 00 5 P81 ... ... : B-2 00 . ... : ... .. . ... : ... .. . ... ...
ROW 3D : ... .. . ... ... ... : ... .. . ... ... ... : ... .. . ... : ... .. . ... : ... .. . ... ...
ROW 3E : ... .. 6 ... ... ... : ... .. 6 ... ... ... : ... .. . ... : ... .. . ... : ... .. . ... ...
ROW 3F : ... .. 8 ... ... ... : ... .. 8 ... ... ... : ... .. . ... : ... .. . ... : ... .. . ... ...
ROW 40 : ... .. 9 ... ... ... : ... .. 9 ... ... ... : ... .. . ... : ... .. . ... : ... .. . ... ...
ROW 41 : ... .. A ... ... ... : ... .. A ... ... ... : ... .. . ... : ... .. . ... : ... .. . ... ...
ROW 42 : ... .. 1 ... ... ... : ... .. 1 ... ... ... : G#2 00 . P7F : C-# 00 E ... : ... .. . ... ...
ROW 43 : ... .. . ... ... ... : ... .. . ... ... ... : ... .. . ... : ... .. 0 ... : ... .. . ... ...
ROW 44 : ... .. . ... ... ... : ... .. . ... ... ... : ... .. . ... : ... .. . ... : ... .. . ... ...
ROW 45 : ... .. . ... ... ... : ... .. . ... ... ... : ... .. . ... : ... .. . ... : ... .. . ... ...
ROW 46 : ... .. . ... ... ... : ... .. . ... ... ... : ... .. . ... : ... .. . ... : ... .. . ... ...
ROW 47 : ... .. . ... ... ... : ... .. . ... ... ... : ... .. . ... : ... .. . ... : ... .. . ... ...
ROW 48 : G-3 00 5 P80 ... ... : B-3 00 5 P80 ... ... : G-2 00 . P80 : D-# 00 6 ... : ... .. . ... ...
ROW 49 : ... .. . ... ... ... : ... .. . ... ... ... : ... .. . ... : ... .. . ... : ... .. . ... ...
ROW 4A : ... .. 6 ... ... ... : ... .. 6 ... ... ... : ... .. . ... : ... .. . ... : ... .. . ... ...
ROW 4B : ... .. 8 ... ... ... : ... .. 8 ... ... ... : ... .. . ... : ... .. . ... : ... .. . ... ...
ROW 4C : ... .. 9 ... ... ... : ... .. 9 ... ... ... : ... .. . ... : ... .. . ... : ... .. . ... ...
ROW 4D : ... .. A ... ... ... : ... .. A ... ... ... : ... .. . ... : ... .. 0 ... : ... .. . ... ...
ROW 4E : ... .. 1 ... ... ... : ... .. 1 ... ... ... : ... .. . ... : ... .. . ... : ... .. . ... ...
ROW 4F : ... .. . ... ... ... : ... .. . ... ... ... : ... .. . ... : ... .. . ... : ... .. . ... ...
ROW 50 : ... .. . ... ... ... : ... .. . ... ... ... : ... .. . ... : ... .. . ... : ... .. . ... ...
ROW 51 : ... .. . ... ... ... : ... .. . ... ... ... : --- .. . ... : ... .. . ... : ... .. . ... ...
ROW 52 : ... .. . ... ... ... : ... .. . ... ... ... : ... .. . ... : ... .. . ... : ... .. . ... ...
ROW 53 : ... .. . ... ... ... : ... .. . ... ... ... : ... .. . ... : ... .. . ... : ... .. . ... ...
ROW 54 : F-3 00 5 P80 ... ... : G#3 00 5 P80 ... ... : ... .. . ... : ... .. . ... : ... .. . ... ...
ROW 55 : ... .. . ... ... ... : ... .. . ... ... ... : ... .. . ... : ... .. . ... : ... .. . ... ...
ROW 56 : ... .. 6 ... ... ... : ... .. 6 ... ... ... : ... .. . ... : ... .. . ... : ... .. . ... ...
ROW 57 : ... .. 8 ... ... ... : ... .. 8 ... ... ... : ... .. . ... : ... .. . ... : ... .. . ... ...
ROW 58 : ... .. 9 ... ... ... : ... .. 9 ... ... ... : ... .. . ... : ... .. . ... : ... .. . ... ...
ROW 59 : ... .. A ... ... ... : ... .. A ... ... ... : ... .. . ... : ... .. . ... : ... .. . ... ...
ROW 5A : ... .. 1 ... ... ... : ... .. 1 ... ... ... : B-2 00 . ... : C-# 00 E ... : ... .. . ... ...
ROW 5B : ... .. . ... ... ... : ... .. . ... ... ... : ... .. . ... : ... .. 0 ... : ... .. . ... ...
ROW 5C : ... .. . ... ... ... : ... .. . ... ... ... : ... .. . ... : ... .. . ... : ... .. . ... ...
ROW 5D : ... .. . ... ... ... : ... .. . ... ... ... : ... .. . ... : ... .. . ... : ... .. . ... ...
ROW 5E : ... .. . ... ... ... : ... .. . ... ... ... : ... .. . ... : ... .. . ... : ... .. . ... ...
ROW 5F : ... .. . ... ... ... : ... .. . ... ... ... : ... .. . ... : ... .. . ... : ... .. . ... ...
ROW 60 : ... .. . ... ... ... : ... .. . ... ... ... : C-3 00 . ... : D-# 00 6 ... : ... .. . ... ...
ROW 61 : ... .. . ... ... ... : ... .. . ... ... ... : ... .. . ... : ... .. . ... : ... .. . ... ...
ROW 62 : ... .. . ... ... ... : ... .. . ... ... ... : ... .. . ... : ... .. . ... : ... .. . ... ...
ROW 63 : ... .. . ... ... ... : ... .. . ... ... ... : ... .. . ... : ... .. . ... : ... .. . ... ...
ROW 64 : ... .. . ... ... ... : ... .. . ... ... ... : ... .. . ... : ... .. . ... : ... .. . ... ...
ROW 65 : ... .. . ... ... ... : ... .. . ... ... ... : ... .. . ... : ... .. 0 ... : ... .. . ... ...
ROW 66 : ... .. . ... ... ... : ... .. . ... ... ... : ... .. . ... : ... .. . ... : ... .. . ... ...
ROW 67 : ... .. . ... ... ... : ... .. . ... ... ... : ... .. . ... : ... .. . ... : ... .. . ... ...
ROW 68 : ... .. . ... ... ... : ... .. . ... ... ... : ... .. . ... : ... .. . ... : ... .. . ... ...
ROW 69 : ... .. . ... ... ... : ... .. . ... ... ... : --- .. . ... : ... .. . ... : ... .. . ... ...
ROW 6A : ... .. . ... ... ... : ... .. . ... ... ... : ... .. . ... : ... .. . ... : ... .. . ... ...
ROW 6B : ... .. . ... ... ... : ... .. . ... ... ... : ... .. . ... : ... .. . ... : ... .. . ... ...
ROW 6C : G-3 00 B P80 ... ... : D#4 00 B P81 ... ... : ... .. . ... : ... .. . ... : ... .. . ... ...
ROW 6D : ... .. A ... ... ... : ... .. A ... ... ... : ... .. . ... : ... .. . ... : ... .. . ... ...
ROW 6E : ... .. 9 ... ... ... : ... .. 9 ... ... ... : ... .. . ... : ... .. . ... : ... .. . ... ...
ROW 6F : ... .. 8 ... ... ... : ... .. 8 ... ... ... : ... .. . ... : ... .. . ... : ... .. . ... ...
ROW 70 : ... .. 7 ... ... ... : ... .. 7 ... ... ... : ... .. . ... : ... .. . ... : ... .. . ... ...
ROW 71 : ... .. 6 ... ... ... : ... .. 6 ... ... ... : ... .. . ... : ... .. . ... : ... .. . ... ...
ROW 72 : ... .. 5 ... ... ... : ... .. 5 ... ... ... : C#3 00 . ... : C-# 00 E ... : ... .. . ... ...
ROW 73 : ... .. 4 ... ... ... : ... .. 4 ... ... ... : ... .. . ... : ... .. 0 ... : ... .. . ... ...
ROW 74 : ... .. 3 ... ... ... : ... .. 3 ... ... ... : ... .. . ... : ... .. . ... : ... .. . ... ...
ROW 75 : ... .. 2 ... ... ... : ... .. 2 ... ... ... : ... .. . ... : ... .. . ... : ... .. . ... ...
ROW 76 : ... .. 1 ... ... ... : ... .. 1 ... ... ... : ... .. . ... : ... .. . ... : ... .. . ... ...
ROW 77 : ... .. . ... ... ... : ... .. . ... ... ... : ... .. . ... : ... .. . ... : ... .. . ... ...
ROW 78 : C-4 00 B P81 ... ... : G-4 00 B P81 ... ... : D#3 00 . ... : D-# 00 6 ... : ... .. . ... ...
ROW 79 : ... .. A ... ... ... : ... .. A ... ... ... : ... .. . ... : ... .. . ... : ... .. . ... ...
ROW 7A : ... .. 9 ... ... ... : ... .. 9 ... ... ... : ... .. . ... : ... .. . ... : ... .. . ... ...
ROW 7B : ... .. 8 ... ... ... : ... .. 8 ... ... ... : ... .. . ... : ... .. . ... : ... .. . ... ...
ROW 7C : ... .. 7 ... ... ... : ... .. 7 ... ... ... : ... .. . ... : ... .. . ... : ... .. . ... ...
ROW 7D : ... .. 6 ... ... ... : ... .. 6 ... ... ... : ... .. . ... : ... .. 0 ... : ... .. . ... ...
ROW 7E : ... .. 1 ... ... ... : ... .. 1 ... ... ... : ... .. . ... : ... .. . ... : ... .. . ... ...
ROW 7F : ... .. . ... ... ... : ... .. . ... ... ... : ... .. . ... : ... .. . ... : ... .. . ... ...
ROW 80 : ... .. . ... ... ... : ... .. . ... ... ... : ... .. . ... : ... .. . ... : ... .. . ... ...
ROW 81 : ... .. . ... ... ... : ... .. . ... ... ... : --- .. . ... : ... .. . ... : ... .. . ... ...
ROW 82 : ... .. . ... ... ... : ... .. . ... ... ... : ... .. . ... : ... .. . ... : ... .. . ... ...
ROW 83 : ... .. . ... ... ... : ... .. . ... ... ... : ... .. . ... : ... .. . ... : ... .. . ... ...
ROW 84 : ... .. . ... ... ... : ... .. . ... ... ... : ... .. . ... : ... .. . ... : ... .. . ... ...
ROW 85 : ... .. . ... ... ... : ... .. . ... ... ... : ... .. . ... : ... .. . ... : ... .. . ... ...
ROW 86 : ... .. . ... ... ... : ... .. . ... ... ... : ... .. . ... : ... .. . ... : ... .. . ... ...
ROW 87 : ... .. . ... ... ... : ... .. . ... ... ... : ... .. . ... : ... .. . ... : ... .. . ... ...
ROW 88 : ... .. . ... ... ... : ... .. . ... ... ... : ... .. . ... : ... .. . ... : ... .. . ... ...
ROW 89 : ... .. . ... ... ... : ... .. . ... ... ... : ... .. . ... : ... .. . ... : ... .. . ... ...
ROW 8A : D#4 00 B P81 ... ... : G#4 00 B P80 ... ... : G-3 00 . ... : C-# 00 E ... : ... .. . ... ...
ROW 8B : ... .. A ... ... ... : ... .. A ... ... ... : ... .. . ... : ... .. 0 ... : ... .. . ... ...
ROW 8C : ... .. 9 ... ... ... : ... .. 9 ... ... ... : ... .. . ... : ... .. . ... : ... .. . ... ...
ROW 8D : ... .. 8 ... ... ... : ... .. 8 ... ... ... : ... .. . ... : ... .. . ... : ... .. . ... ...
ROW 8E : ... .. 7 ... ... ... : ... .. 7 ... ... ... : ... .. . ... : ... .. . ... : ... .. . ... ...
ROW 8F : ... .. 6 ... ... ... : ... .. 6 ... ... ... : ... .. . ... : ... .. . ... : ... .. . ... ...
ROW 90 : ... .. 5 ... ... ... : ... .. 5 ... ... ... : G#3 00 . ... : D-# 00 6 ... : ... .. . ... ...
ROW 91 : ... .. 4 ... ... ... : ... .. 4 ... ... ... : ... .. . ... : ... .. . ... : ... .. . ... ...
ROW 92 : ... .. 3 ... ... ... : ... .. 3 ... ... ... : ... .. . ... : ... .. . ... : ... .. . ... ...
ROW 93 : ... .. 2 ... ... ... : ... .. 2 ... ... ... : ... .. . ... : ... .. . ... : ... .. . ... ...
ROW 94 : ... .. 1 ... ... ... : ... .. 1 ... ... ... : ... .. . ... : ... .. . ... : ... .. . ... ...
ROW 95 : ... .. . ... ... ... : ... .. . ... ... ... : ... .. . ... : ... .. 0 ... : ... .. . ... ...
ROW 96 : ... .. . ... ... ... : ... .. . ... ... ... : ... .. . ... : ... .. . ... : ... .. . ... ...
ROW 97 : ... .. . ... ... ... : ... .. . ... ... ... : ... .. . ... : ... .. . ... : ... .. . ... ...
ROW 98 : ... .. . ... ... ... : ... .. . ... ... ... : ... .. . ... : ... .. . ... : ... .. . ... ...
ROW 99 : ... .. . ... ... ... : ... .. . ... ... ... : --- .. . ... : ... .. . ... : ... .. . ... ...
ROW 9A : ... .. . ... ... ... : ... .. . ... ... ... : ... .. . ... : ... .. . ... : ... .. . ... ...
ROW 9B : ... .. . ... ... ... : ... .. . ... ... ... : ... .. . ... : ... .. . ... : ... .. . ... ...
ROW 9C : ... .. . ... ... ... : ... .. . ... ... ... : ... .. . ... : ... .. . ... : ... .. . ... ...
ROW 9D : ... .. . ... ... ... : ... .. . ... ... ... : ... .. . ... : ... .. . ... : ... .. . ... ...
ROW 9E : ... .. . ... ... ... : ... .. . ... ... ... : ... .. . ... : ... .. . ... : ... .. . ... ...
ROW 9F : ... .. . ... ... ... : ... .. . ... ... ... : ... .. . ... : ... .. . ... : ... .. . ... ...
ROW A0 : ... .. . ... ... ... : ... .. . ... ... ... : ... .. . ... : ... .. . ... : ... .. . ... ...
ROW A1 : ... .. . ... ... ... : ... .. . ... ... ... : ... .. . ... : ... .. . ... : ... .. . ... ...
ROW A2 : ... .. . ... ... ... : ... .. . ... ... ... : G-3 00 . ... : C-# 00 E ... : ... .. . ... ...
ROW A3 : ... .. . ... ... ... : ... .. . ... ... ... : ... .. . ... : ... .. 0 ... : ... .. . ... ...
ROW A4 : ... .. . ... ... ... : ... .. . ... ... ... : ... .. . ... : ... .. . ... : ... .. . ... ...
ROW A5 : ... .. . ... ... ... : ... .. . ... ... ... : ... .. . ... : ... .. . ... : ... .. . ... ...
ROW A6 : ... .. . ... ... ... : ... .. . ... ... ... : ... .. . ... : ... .. . ... : ... .. . ... ...
ROW A7 : ... .. . ... ... ... : ... .. . ... ... ... : ... .. . ... : ... .. . ... : ... .. . ... ...
ROW A8 : D#4 00 B P81 ... ... : G#4 00 B P80 ... ... : D#3 00 . ... : D-# 00 6 ... : ... .. . ... ...
ROW A9 : ... .. A ... ... ... : ... .. A ... ... ... : ... .. . ... : ... .. . ... : ... .. . ... ...
ROW AA : ... .. 9 ... ... ... : ... .. 9 ... ... ... : ... .. . ... : ... .. . ... : ... .. . ... ...
ROW AB : ... .. 8 ... ... ... : ... .. 8 ... ... ... : ... .. . ... : ... .. . ... : ... .. . ... ...
ROW AC : ... .. 7 ... ... ... : ... .. 7 ... ... ... : ... .. . ... : ... .. . ... : ... .. . ... ...
ROW AD : ... .. 6 ... ... ... : ... .. 6 ... ... ... : ... .. . ... : ... .. 0 ... : ... .. . ... ...
ROW AE : ... .. 1 ... ... ... : ... .. 1 ... ... ... : ... .. . ... : ... .. . ... : ... .. . ... ...
ROW AF : ... .. . ... ... ... : ... .. . ... ... ... : ... .. . ... : ... .. . ... : ... .. . ... ...
ROW B0 : ... .. . ... ... ... : ... .. . ... ... ... : ... .. . ... : ... .. . ... : ... .. . ... ...
ROW B1 : ... .. . ... ... ... : ... .. . ... ... ... : --- .. . ... : ... .. . ... : ... .. . ... ...
ROW B2 : ... .. . ... ... ... : ... .. . ... ... ... : ... .. . ... : ... .. . ... : ... .. . ... ...
ROW B3 : ... .. . ... ... ... : ... .. . ... ... ... : ... .. . ... : ... .. . ... : ... .. . ... ...
ROW B4 : C-4 00 B P81 ... ... : G-4 00 B P81 ... ... : ... .. . ... : ... .. . ... : ... .. . ... ...
ROW B5 : ... .. A ... ... ... : ... .. A ... ... ... : ... .. . ... : ... .. . ... : ... .. . ... ...
ROW B6 : ... .. 9 ... ... ... : ... .. 9 ... ... ... : ... .. . ... : ... .. . ... : ... .. . ... ...
ROW B7 : ... .. 8 ... ... ... : ... .. 8 ... ... ... : ... .. . ... : ... .. . ... : ... .. . ... ...
ROW B8 : ... .. 7 ... ... ... : ... .. 7 ... ... ... : ... .. . ... : ... .. . ... : ... .. . ... ...
ROW B9 : ... .. 6 ... ... ... : ... .. 6 ... ... ... : ... .. . ... : ... .. . ... : ... .. . ... ...
ROW BA : G#3 00 B P80 ... ... : D#4 00 B P81 ... ... : C-3 00 . ... : C-# 00 E ... : ... .. . ... ...
ROW BB : ... .. A ... ... ... : ... .. A ... ... ... : ... .. . ... : ... .. 0 ... : ... .. . ... ...
ROW BC : ... .. 9 ... ... ... : ... .. 9 ... ... ... : ... .. . ... : ... .. . ... : ... .. . ... ...
ROW BD : ... .. 8 ... ... ... : ... .. 8 ... ... ... : ... .. . ... : ... .. . ... : ... .. . ... ...
ROW BE : ... .. 7 ... ... ... : ... .. 7 ... ... ... : ... .. . ... : ... .. . ... : ... .. . ... ...
ROW BF : ... .. 6 ... ... ... : ... .. 6 ... ... ... : ... .. . ... : ... .. . ... : ... .. . ... ...
ROW C0 : F#3 00 B P80 ... ... : C#4 00 B P80 ... ... : C#3 00 . ... : D-# 00 6 ... : ... .. . ... ...
ROW C1 : ... .. A ... ... ... : ... .. A ... ... ... : ... .. . ... : ... .. . ... : ... .. . ... ...
ROW C2 : ... .. 9 ... ... ... : ... .. 9 ... ... ... : ... .. . ... : ... .. . ... : ... .. . ... ...
ROW C3 : ... .. 8 ... ... ... : ... .. 8 ... ... ... : ... .. . ... : ... .. . ... : ... .. . ... ...
ROW C4 : ... .. 7 ... ... ... : ... .. 7 ... ... ... : ... .. . ... : ... .. . ... : ... .. . ... ...
ROW C5 : ... .. 6 ... ... ... : ... .. 6 ... ... ... : ... .. . ... : ... .. 0 ... : ... .. . ... ...
ROW C6 : ... .. 1 ... ... ... : ... .. 1 ... ... ... : ... .. . ... : ... .. . ... : ... .. . ... ...
ROW C7 : ... .. . ... ... ... : ... .. . ... ... ... : ... .. . ... : ... .. . ... : ... .. . ... ...
ROW C8 : ... .. . ... ... ... : ... .. . ... ... ... : ... .. . ... : ... .. . ... : ... .. . ... ...
ROW C9 : ... .. . ... ... ... : ... .. . ... ... ... : --- .. . ... : ... .. . ... : ... .. . ... ...
ROW CA : ... .. . ... ... ... : ... .. . ... ... ... : ... .. . ... : ... .. . ... : ... .. . ... ...
ROW CB : ... .. . ... ... ... : ... .. . ... ... ... : ... .. . ... : ... .. . ... : ... .. . ... ...
ROW CC : G-3 00 B P80 ... ... : D#4 00 B P81 ... ... : ... .. . ... : ... .. . ... : ... .. . ... ...
ROW CD : ... .. A ... ... ... : ... .. A ... ... ... : ... .. . ... : ... .. . ... : ... .. . ... ...
ROW CE : ... .. 9 ... ... ... : ... .. 9 ... ... ... : ... .. . ... : ... .. . ... : ... .. . ... ...
ROW CF : ... .. 8 ... ... ... : ... .. 8 ... ... ... : ... .. . ... : ... .. . ... : ... .. . ... ...
ROW D0 : ... .. 7 ... ... ... : ... .. 7 ... ... ... : ... .. . ... : ... .. . ... : ... .. . ... ...
ROW D1 : ... .. 6 ... ... ... : ... .. 6 ... ... ... : ... .. . ... : ... .. . ... : ... .. . ... ...
ROW D2 : F#3 00 B P80 ... ... : C#4 00 B P80 ... ... : D#3 00 . ... : C-# 00 E ... : ... .. . ... ...
ROW D3 : ... .. A ... ... ... : ... .. A ... ... ... : ... .. . ... : ... .. 0 ... : ... .. . ... ...
ROW D4 : ... .. 9 ... ... ... : ... .. 9 ... ... ... : ... .. . ... : ... .. . ... : ... .. . ... ...
ROW D5 : ... .. 8 ... ... ... : ... .. 8 ... ... ... : ... .. . ... : ... .. . ... : ... .. . ... ...
ROW D6 : ... .. 7 ... ... ... : ... .. 7 ... ... ... : ... .. . ... : ... .. . ... : ... .. . ... ...
ROW D7 : ... .. 6 ... ... ... : ... .. 6 ... ... ... : ... .. . ... : ... .. . ... : ... .. . ... ...
ROW D8 : F#3 00 B P80 ... ... : C#4 00 B P80 ... ... : F#3 00 . ... : D-# 00 6 ... : ... .. . ... ...
ROW D9 : ... .. A ... ... ... : ... .. A ... ... ... : ... .. . ... : ... .. . ... : ... .. . ... ...
ROW DA : ... .. 9 ... ... ... : ... .. 9 ... ... ... : ... .. . ... : ... .. . ... : ... .. . ... ...
ROW DB : ... .. 8 ... ... ... : ... .. 8 ... ... ... : ... .. . ... : ... .. . ... : ... .. . ... ...
ROW DC : ... .. 7 ... ... ... : ... .. 7 ... ... ... : ... .. . ... : ... .. . ... : ... .. . ... ...
ROW DD : ... .. 6 ... ... ... : ... .. 6 ... ... ... : ... .. . ... : ... .. 0 ... : ... .. . ... ...
ROW DE : ... .. 1 ... ... ... : ... .. 1 ... ... ... : ... .. . ... : ... .. . ... : ... .. . ... ...
ROW DF : ... .. . ... ... ... : ... .. . ... ... ... : ... .. . ... : ... .. . ... : ... .. . ... ...
ROW E0 : ... .. . ... ... ... : ... .. . ... ... ... : ... .. . ... : ... .. . ... : ... .. . ... ...
ROW E1 : ... .. . ... ... ... : ... .. . ... ... ... : --- .. . ... : ... .. . ... : ... .. . ... ...
ROW E2 : ... .. . ... ... ... : ... .. . ... ... ... : ... .. . ... : ... .. . ... : ... .. . ... ...
ROW E3 : ... .. . ... ... ... : ... .. . ... ... ... : ... .. . ... : ... .. . ... : ... .. . ... ...
ROW E4 : C#3 00 B P80 ... ... : G#3 00 B P80 ... ... : ... .. . ... : ... .. . ... : ... .. . ... ...
ROW E5 : ... .. A ... ... ... : ... .. A ... ... ... : ... .. . ... : ... .. . ... : ... .. . ... ...
ROW E6 : ... .. 9 ... ... ... : ... .. 9 ... ... ... : ... .. . ... : ... .. . ... : ... .. . ... ...
ROW E7 : ... .. 8 ... ... ... : ... .. 8 ... ... ... : ... .. . ... : ... .. . ... : ... .. . ... ...
ROW E8 : ... .. 7 ... ... ... : ... .. 7 ... ... ... : ... .. . ... : ... .. . ... : ... .. . ... ...
ROW E9 : ... .. 6 ... ... ... : ... .. 6 ... ... ... : ... .. . ... : ... .. . ... : ... .. . ... ...
ROW EA : ... .. 1 ... ... ... : ... .. 1 ... ... ... : G#2 00 . P7F : C-# 00 E ... : ... .. . ... ...
ROW EB : ... .. . ... ... ... : ... .. . ... ... ... : ... .. . ... : ... .. 0 ... : ... .. . ... ...
ROW EC : ... .. . ... ... ... : ... .. . ... ... ... : ... .. . ... : ... .. . ... : ... .. . ... ...
ROW ED : ... .. . ... ... ... : ... .. . ... ... ... : ... .. . ... : ... .. . ... : ... .. . ... ...
ROW EE : ... .. . ... ... ... : ... .. . ... ... ... : ... .. . ... : ... .. . ... : ... .. . ... ...
ROW EF : ... .. . ... ... ... : ... .. . ... ... ... : ... .. . ... : ... .. . ... : ... .. . ... ...
ROW F0 : ... .. 5 ... ... ... : ... .. 5 ... ... ... : C#3 00 . P80 : D-# 00 6 ... : ... .. . ... ...
ROW F1 : ... .. 4 ... ... ... : ... .. 4 ... ... ... : ... .. . ... : ... .. . ... : ... .. . ... ...
ROW F2 : ... .. 3 ... ... ... : ... .. 3 ... ... ... : ... .. . ... : ... .. . ... : ... .. . ... ...
ROW F3 : ... .. 2 ... ... ... : ... .. 2 ... ... ... : ... .. . ... : ... .. . ... : ... .. . ... ...
ROW F4 : ... .. 1 ... ... ... : ... .. 1 ... ... ... : ... .. . ... : ... .. . ... : ... .. . ... ...
ROW F5 : ... .. . ... ... ... : ... .. . ... ... ... : ... .. . ... : ... .. 0 ... : ... .. . ... ...
ROW F6 : ... .. . ... ... ... : ... .. . ... ... ... : --- .. . ... : ... .. . ... : ... .. . ... ...
ROW F7 : ... .. . ... ... ... : ... .. . ... ... ... : ... .. . ... : ... .. . ... : ... .. . ... ...
ROW F8 : ... .. . ... ... ... : ... .. . ... ... ... : ... .. . ... : ... .. . ... : ... .. . ... ...
ROW F9 : ... .. . ... ... ... : ... .. . ... ... ... : ... .. . ... : ... .. . ... : ... .. . ... ...
ROW FA : ... .. . ... ... ... : ... .. . ... ... ... : ... .. . ... : ... .. . ... : ... .. . ... ...
ROW FB : ... .. . ... ... ... : ... .. . ... ... ... : ... .. . ... : ... .. . ... : ... .. . ... ...
ROW FC : C#3 00 B P80 ... ... : G#3 00 B P80 ... ... : D#3 00 . ... : ... .. . ... : ... .. . ... ...
ROW FD : ... .. A ... ... ... : ... .. A ... ... ... : ... .. . ... : ... .. . ... : ... .. . ... ...
ROW FE : ... .. 9 ... ... ... : ... .. 9 ... ... ... : ... .. . ... : ... .. . ... : ... .. . ... ...
ROW FF : ... .. 8 ... ... ... : ... .. 8 ... ... ... : ... .. . ... : ... .. . ... : ... .. . ... ...

PATTERN 0A
ROW 00 : F#3 00 B P80 ... ... : C#4 00 B P80 ... ... : ... .. . ... : ... .. . ... : ... .. . ... ...
ROW 01 : ... .. A ... ... ... : ... .. A ... ... ... : ... .. . ... : ... .. . ... : ... .. . ... ...
ROW 02 : ... .. 9 ... ... ... : ... .. 9 ... ... ... : C-3 00 . ... : C-# 00 E ... : ... .. . ... ...
ROW 03 : ... .. 8 ... ... ... : ... .. 8 ... ... ... : ... .. . ... : ... .. 0 ... : ... .. . ... ...
ROW 04 : C#3 00 B P80 ... ... : G#3 00 B P80 ... ... : ... .. . ... : ... .. . ... : ... .. . ... ...
ROW 05 : ... .. A ... ... ... : ... .. A ... ... ... : ... .. . ... : ... .. . ... : ... .. . ... ...
ROW 06 : ... .. 9 ... ... ... : ... .. 9 ... ... ... : ... .. . ... : ... .. . ... : ... .. . ... ...
ROW 07 : ... .. 8 ... ... ... : ... .. 8 ... ... ... : ... .. . ... : ... .. . ... : ... .. . ... ...
ROW 08 : F#3 00 B P80 ... ... : G#3 00 B P80 ... ... : B-2 00 . ... : D-# 00 6 ... : ... .. . ... ...
ROW 09 : ... .. A ... ... ... : ... .. A ... ... ... : ... .. . ... : ... .. . ... : ... .. . ... ...
ROW 0A : ... .. 9 ... ... ... : ... .. 9 ... ... ... : ... .. . ... : ... .. . ... : ... .. . ... ...
ROW 0B : ... .. 8 ... ... ... : ... .. 8 ... ... ... : ... .. . ... : ... .. . ... : ... .. . ... ...
ROW 0C : C#3 00 B P80 ... ... : C#4 00 B P80 ... ... : ... .. . ... : ... .. . ... : ... .. . ... ...
ROW 0D : ... .. A ... ... ... : ... .. A ... ... ... : ... .. . ... : ... .. 0 ... : ... .. . ... ...
ROW 0E : ... .. 9 ... ... ... : ... .. 9 ... ... ... : ... .. . ... : ... .. . ... : ... .. . ... ...
ROW 0F : ... .. 8 ... ... ... : ... .. 8 ... ... ... : ... .. . ... : ... .. . ... : ... .. . ... ...
ROW 10 : F#3 00 B P80 ... ... : G#3 00 B P80 ... ... : ... .. . ... : ... .. . ... : ... .. . ... ...
ROW 11 : ... .. A ... ... ... : ... .. A ... ... ... : --- .. . ... : ... .. . ... : ... .. . ... ...
ROW 12 : ... .. 9 ... ... ... : ... .. 9 ... ... ... : ... .. . ... : ... .. . ... : ... .. . ... ...
ROW 13 : ... .. 8 ... ... ... : ... .. 8 ... ... ... : ... .. . ... : ... .. . ... : ... .. . ... ...
ROW 14 : C#3 00 B P80 ... ... : C#4 00 B P80 ... ... : ... .. . ... : ... .. . ... : ... .. . ... ...
ROW 15 : ... .. A ... ... ... : ... .. A ... ... ... : ... .. . ... : ... .. . ... : ... .. . ... ...
ROW 16 : ... .. 9 ... ... ... : ... .. 9 ... ... ... : ... .. . ... : ... .. . ... : ... .. . ... ...
ROW 17 : ... .. 8 ... ... ... : ... .. 8 ... ... ... : ... .. . ... : ... .. . ... : ... .. . ... ...
ROW 18 : F#3 00 B P80 ... ... : G#3 00 B P80 ... ... : ... .. . ... : ... .. . ... : ... .. . ... ...
ROW 19 : ... .. A ... ... ... : ... .. A ... ... ... : ... .. . ... : ... .. . ... : ... .. . ... ...
ROW 1A : ... .. 9 ... ... ... : ... .. 9 ... ... ... : G#2 00 . P7F : C-# 00 E ... : ... .. . ... ...
ROW 1B : ... .. 8 ... ... ... : ... .. 8 ... ... ... : ... .. . ... : ... .. 0 ... : ... .. . ... ...
ROW 1C : C#3 00 B P80 ... ... : C#4 00 B P80 ... ... : ... .. . ... : ... .. . ... : ... .. . ... ...
ROW 1D : ... .. A ... ... ... : ... .. A ... ... ... : ... .. . ... : ... .. . ... : ... .. . ... ...
ROW 1E : ... .. 9 ... ... ... : ... .. 9 ... ... ... : ... .. . ... : ... .. . ... : ... .. . ... ...
ROW 1F : ... .. 8 ... ... ... : ... .. 8 ... ... ... : ... .. . ... : ... .. . ... : ... .. . ... ...
ROW 20 : ... .. 5 ... ... ... : ... .. 5 ... ... ... : G-2 00 . P80 : D-# 00 6 ... : ... .. . ... ...
ROW 21 : ... .. 4 ... ... ... : ... .. 4 ... ... ... : ... .. . ... : ... .. . ... : ... .. . ... ...
ROW 22 : ... .. 3 ... ... ... : ... .. 3 ... ... ... : ... .. . ... : ... .. . ... : ... .. . ... ...
ROW 23 : ... .. 2 ... ... ... : ... .. 2 ... ... ... : ... .. . ... : ... .. . ... : ... .. . ... ...
ROW 24 : ... .. 1 ... ... ... : ... .. 1 ... ... ... : ... .. . ... : ... .. . ... : ... .. . ... ...
ROW 25 : ... .. . ... ... ... : ... .. . ... ... ... : ... .. . ... : ... .. 0 ... : ... .. . ... ...
ROW 26 : ... .. . ... ... ... : ... .. . ... ... ... : ... .. . ... : ... .. . ... : ... .. . ... ...
ROW 27 : ... .. . ... ... ... : ... .. . ... ... ... : ... .. . ... : ... .. . ... : ... .. . ... ...
ROW 28 : ... .. . ... ... ... : ... .. . ... ... ... : ... .. . ... : ... .. . ... : ... .. . ... ...
ROW 29 : ... .. . ... ... ... : ... .. . ... ... ... : --- .. . ... : ... .. . ... : ... .. . ... ...
ROW 2A : ... .. . ... ... ... : ... .. . ... ... ... : ... .. . ... : ... .. . ... : ... .. . ... ...
ROW 2B : ... .. . ... ... ... : ... .. . ... ... ... : ... .. . ... : ... .. . ... : ... .. . ... ...
ROW 2C : G-3 00 B P80 ... ... : D#4 00 B P81 ... ... : ... .. . ... : ... .. . ... : ... .. . ... ...
ROW 2D : ... .. A ... ... ... : ... .. A ... ... ... : ... .. . ... : ... .. . ... : ... .. . ... ...
ROW 2E : ... .. 9 ... ... ... : ... .. 9 ... ... ... : ... .. . ... : ... .. . ... : ... .. . ... ...
ROW 2F : ... .. 8 ... ... ... : ... .. 8 ... ... ... : ... .. . ... : ... .. . ... : ... .. . ... ...
ROW 30 : ... .. 7 ... ... ... : ... .. 7 ... ... ... : ... .. . ... : ... .. . ... : ... .. . ... ...
ROW 31 : ... .. 6 ... ... ... : ... .. 6 ... ... ... : ... .. . ... : ... .. . ... : ... .. . ... ...
ROW 32 : F-3 00 B P80 ... ... : C#4 00 B P80 ... ... : G-3 00 . ... : C-# 00 E ... : ... .. . ... ...
ROW 33 : ... .. A ... ... ... : ... .. A ... ... ... : ... .. . ... : ... .. 0 ... : ... .. . ... ...
ROW 34 : ... .. 9 ... ... ... : ... .. 9 ... ... ... : ... .. . ... : ... .. . ... : ... .. . ... ...
ROW 35 : ... .. 8 ... ... ... : ... .. 8 ... ... ... : ... .. . ... : ... .. . ... : ... .. . ... ...
ROW 36 : ... .. 7 ... ... ... : ... .. 7 ... ... ... : ... .. . ... : ... .. . ... : ... .. . ... ...
ROW 37 : ... .. 6 ... ... ... : ... .. 6 ... ... ... : ... .. . ... : ... .. . ... : ... .. . ... ...
ROW 38 : F-3 00 B P80 ... ... : C#4 00 B P80 ... ... : F-3 00 . ... : D-# 00 6 ... : ... .. . ... ...
ROW 39 : ... .. A ... ... ... : ... .. A ... ... ... : ... .. . ... : ... .. . ... : ... .. . ... ...
ROW 3A : ... .. 9 ... ... ... : ... .. 9 ... ... ... : ... .. . ... : ... .. . ... : ... .. . ... ...
ROW 3B : ... .. 8 ... ... ... : ... .. 8 ... ... ... : ... .. . ... : ... .. . ... : ... .. . ... ...
ROW 3C : ... .. 7 ... ... ... : ... .. 7 ... ... ... : ... .. . ... : ... .. . ... : ... .. . ... ...
ROW 3D : ... .. 6 ... ... ... : ... .. 6 ... ... ... : ... .. . ... : ... .. 0 ... : ... .. . ... ...
ROW 3E : ... .. 1 ... ... ... : ... .. 1 ... ... ... : ... .. . ... : ... .. . ... : ... .. . ... ...
ROW 3F : ... .. . ... ... ... : ... .. . ... ... ... : ... .. . ... : ... .. . ... : ... .. . ... ...
ROW 40 : ... .. . ... ... ... : ... .. . ... ... ... : ... .. . ... : ... .. . ... : ... .. . ... ...
ROW 41 : ... .. . ... ... ... : ... .. . ... ... ... : --- .. . ... : ... .. . ... : ... .. . ... ...
ROW 42 : ... .. . ... ... ... : ... .. . ... ... ... : ... .. . ... : ... .. . ... : ... .. . ... ...
ROW 43 : ... .. . ... ... ... : ... .. . ... ... ... : ... .. . ... : ... .. . ... : ... .. . ... ...
ROW 44 : G-3 00 B P80 ... ... : D#4 00 B P81 ... ... : ... .. . ... : ... .. . ... : ... .. . ... ...
ROW 45 : ... .. A ... ... ... : ... .. A ... ... ... : ... .. . ... : ... .. . ... : ... .. . ... ...
ROW 46 : ... .. 9 ... ... ... : ... .. 9 ... ... ... : ... .. . ... : ... .. . ... : ... .. . ... ...
ROW 47 : ... .. 8 ... ... ... : ... .. 8 ... ... ... : ... .. . ... : ... .. . ... : ... .. . ... ...
ROW 48 : ... .. 7 ... ... ... : ... .. 7 ... ... ... : ... .. . ... : ... .. . ... : ... .. . ... ...
ROW 49 : ... .. 6 ... ... ... : ... .. 6 ... ... ... : ... .. . ... : ... .. . ... : ... .. . ... ...
ROW 4A : ... .. 1 ... ... ... : ... .. 1 ... ... ... : C#3 00 . ... : C-# 00 E ... : ... .. . ... ...
ROW 4B : ... .. . ... ... ... : ... .. . ... ... ... : ... .. . ... : ... .. 0 ... : ... .. . ... ...
ROW 4C : ... .. . ... ... ... : ... .. . ... ... ... : ... .. . ... : ... .. . ... : ... .. . ... ...
ROW 4D : ... .. . ... ... ... : ... .. . ... ... ... : ... .. . ... : ... .. . ... : ... .. . ... ...
ROW 4E : ... .. . ... ... ... : ... .. . ... ... ... : ... .. . ... : ... .. . ... : ... .. . ... ...
ROW 4F : ... .. . ... ... ... : ... .. . ... ... ... : ... .. . ... : ... .. . ... : ... .. . ... ...
ROW 50 : ... .. 5 ... ... ... : ... .. 5 ... ... ... : B-2 00 . ... : D-# 00 6 ... : ... .. . ... ...
ROW 51 : ... .. 4 ... ... ... : ... .. 4 ... ... ... : ... .. . ... : ... .. . ... : ... .. . ... ...
ROW 52 : ... .. 3 ... ... ... : ... .. 3 ... ... ... : ... .. . ... : ... .. . ... : ... .. . ... ...
ROW 53 : ... .. 2 ... ... ... : ... .. 2 ... ... ... : ... .. . ... : ... .. . ... : ... .. . ... ...
ROW 54 : ... .. 1 ... ... ... : ... .. 1 ... ... ... : ... .. . ... : ... .. . ... : ... .. . ... ...
ROW 55 : ... .. . ... ... ... : ... .. . ... ... ... : ... .. . ... : ... .. 0 ... : ... .. . ... ...
ROW 56 : ... .. . ... ... ... : ... .. . ... ... ... : ... .. . ... : ... .. . ... : ... .. . ... ...
ROW 57 : ... .. . ... ... ... : ... .. . ... ... ... : ... .. . ... : ... .. . ... : ... .. . ... ...
ROW 58 : ... .. . ... ... ... : ... .. . ... ... ... : ... .. . ... : ... .. . ... : ... .. . ... ...
ROW 59 : ... .. . ... ... ... : ... .. . ... ... ... : --- .. . ... : ... .. . ... : ... .. . ... ...
ROW 5A : ... .. . ... ... ... : ... .. . ... ... ... : ... .. . ... : ... .. . ... : ... .. . ... ...
ROW 5B : ... .. . ... ... ... : ... .. . ... ... ... : ... .. . ... : ... .. . ... : ... .. . ... ...
ROW 5C : B-3 00 B P80 ... ... : G-4 00 B P81 ... ... : ... .. . ... : ... .. . ... : ... .. . ... ...
ROW 5D : ... .. A ... ... ... : ... .. A ... ... ... : ... .. . ... : ... .. . ... : ... .. . ... ...
ROW 5E : ... .. 9 ... ... ... : ... .. 9 ... ... ... : ... .. . ... : ... .. . ... : ... .. . ... ...
ROW 5F : ... .. 8 ... ... ... : ... .. 8 ... ... ... : ... .. . ... : ... .. . ... : ... .. . ... ...
ROW 60 : ... .. 7 ... ... ... : ... .. 7 ... ... ... : ... .. . ... : ... .. . ... : ... .. . ... ...
ROW 61 : ... .. 6 ... ... ... : ... .. 6 ... ... ... : ... .. . ... : ... .. . ... : ... .. . ... ...
ROW 62 : C-4 00 B P81 ... ... : G#4 00 B P80 ... ... : G-2 00 . ... : C-# 00 E ... : ... .. . ... ...
ROW 63 : ... .. A ... ... ... : ... .. A ... ... ... : ... .. . ... : ... .. 0 ... : ... .. . ... ...
ROW 64 : ... .. 9 ... ... ... : ... .. 9 ... ... ... : ... .. . ... : ... .. . ... : ... .. . ... ...
ROW 65 : ... .. 8 ... ... ... : ... .. 8 ... ... ... : ... .. . ... : ... .. . ... : ... .. . ... ...
ROW 66 : ... .. 7 ... ... ... : ... .. 7 ... ... ... : ... .. . ... : ... .. . ... : ... .. . ... ...
ROW 67 : ... .. 6 ... ... ... : ... .. 6 ... ... ... : ... .. . ... : ... .. . ... : ... .. . ... ...
ROW 68 : C-4 00 B P81 ... ... : G#4 00 B P80 ... ... : G#2 00 . P7F : D-# 00 6 ... : ... .. . ... ...
ROW 69 : ... .. A ... ... ... : ... .. A ... ... ... : ... .. . ... : ... .. . ... : ... .. . ... ...
ROW 6A : ... .. 9 ... ... ... : ... .. 9 ... ... ... : ... .. . ... : ... .. . ... : ... .. . ... ...
ROW 6B : ... .. 8 ... ... ... : ... .. 8 ... ... ... : ... .. . ... : ... .. . ... : ... .. . ... ...
ROW 6C : ... .. 7 ... ... ... : ... .. 7 ... ... ... : ... .. . ... : ... .. . ... : ... .. . ... ...
ROW 6D : ... .. 6 ... ... ... : ... .. 6 ... ... ... : ... .. . ... : ... .. 0 ... : ... .. . ... ...
ROW 6E : ... .. 1 ... ... ... : ... .. 1 ... ... ... : ... .. . ... : ... .. . ... : ... .. . ... ...
ROW 6F : ... .. . ... ... ... : ... .. . ... ... ... : ... .. . ... : ... .. . ... : ... .. . ... ...
ROW 70 : ... .. . ... ... ... : ... .. . ... ... ... : ... .. . ... : ... .. . ... : ... .. . ... ...
ROW 71 : ... .. . ... ... ... : ... .. . ... ... ... : --- .. . ... : ... .. . ... : ... .. . ... ...
ROW 72 : ... .. . ... ... ... : ... .. . ... ... ... : ... .. . ... : ... .. . ... : ... .. . ... ...
ROW 73 : ... .. . ... ... ... : ... .. . ... ... ... : ... .. . ... : ... .. . ... : ... .. . ... ...
ROW 74 : B-3 00 B P80 ... ... : G-4 00 B P81 ... ... : ... .. . ... : ... .. . ... : ... .. . ... ...
ROW 75 : ... .. A ... ... ... : ... .. A ... ... ... : ... .. . ... : ... .. . ... : ... .. . ... ...
ROW 76 : ... .. 9 ... ... ... : ... .. 9 ... ... ... : ... .. . ... : ... .. . ... : ... .. . ... ...
ROW 77 : ... .. 8 ... ... ... : ... .. 8 ... ... ... : ... .. . ... : ... .. . ... : ... .. . ... ...
ROW 78 : ... .. 7 ... ... ... : ... .. 7 ... ... ... : ... .. . ... : ... .. . ... : ... .. . ... ...
ROW 79 : ... .. 6 ... ... ... : ... .. 6 ... ... ... : ... .. . ... : ... .. . ... : ... .. . ... ...
ROW 7A : G-3 00 B P80 ... ... : D#4 00 B P81 ... ... : B-2 00 . P80 : C-# 00 E ... : ... .. . ... ...
ROW 7B : ... .. A ... ... ... : ... .. A ... ... ... : ... .. . ... : ... .. 0 ... : ... .. . ... ...
ROW 7C : ... .. 9 ... ... ... : ... .. 9 ... ... ... : ... .. . ... : ... .. . ... : ... .. . ... ...
ROW 7D : ... .. 8 ... ... ... : ... .. 8 ... ... ... : ... .. . ... : ... .. . ... : ... .. . ... ...
ROW 7E : ... .. 7 ... ... ... : ... .. 7 ... ... ... : ... .. . ... : ... .. . ... : ... .. . ... ...
ROW 7F : ... .. 6 ... ... ... : ... .. 6 ... ... ... : ... .. . ... : ... .. . ... : ... .. . ... ...
ROW 80 : ... .. 5 ... ... ... : ... .. 5 ... ... ... : C-3 00 . ... : D-# 00 6 ... : ... .. . ... ...
ROW 81 : ... .. 4 ... ... ... : ... .. 4 ... ... ... : ... .. . ... : ... .. . ... : ... .. . ... ...
ROW 82 : ... .. 3 ... ... ... : ... .. 3 ... ... ... : ... .. . ... : ... .. . ... : ... .. . ... ...
ROW 83 : ... .. 2 ... ... ... : ... .. 2 ... ... ... : ... .. . ... : ... .. . ... : ... .. . ... ...
ROW 84 : ... .. 1 ... ... ... : ... .. 1 ... ... ... : ... .. . ... : ... .. . ... : ... .. . ... ...
ROW 85 : ... .. . ... ... ... : ... .. . ... ... ... : ... .. . ... : ... .. 0 ... : ... .. . ... ...
ROW 86 : ... .. . ... ... ... : ... .. . ... ... ... : ... .. . ... : ... .. . ... : ... .. . ... ...
ROW 87 : ... .. . ... ... ... : ... .. . ... ... ... : ... .. . ... : ... .. . ... : ... .. . ... ...
ROW 88 : ... .. . ... ... ... : ... .. . ... ... ... : ... .. . ... : ... .. . ... : ... .. . ... ...
ROW 89 : ... .. . ... ... ... : ... .. . ... ... ... : --- .. . ... : ... .. . ... : ... .. . ... ...
ROW 8A : ... .. . ... ... ... : ... .. . ... ... ... : ... .. . ... : ... .. . ... : ... .. . ... ...
ROW 8B : ... .. . ... ... ... : ... .. . ... ... ... : ... .. . ... : ... .. . ... : ... .. . ... ...
ROW 8C : ... .. . ... ... ... : ... .. . ... ... ... : ... .. . ... : ... .. . ... : ... .. . ... ...
ROW 8D : ... .. . ... ... ... : ... .. . ... ... ... : ... .. . ... : ... .. . ... : ... .. . ... ...
ROW 8E : ... .. . ... ... ... : ... .. . ... ... ... : ... .. . ... : ... .. . ... : ... .. . ... ...
ROW 8F : ... .. . ... ... ... : ... .. . ... ... ... : ... .. . ... : ... .. . ... : ... .. . ... ...
ROW 90 : ... .. . ... ... ... : ... .. . ... ... ... : ... .. . ... : ... .. . ... : ... .. . ... ...
ROW 91 : ... .. . ... ... ... : ... .. . ... ... ... : ... .. . ... : ... .. . ... : ... .. . ... ...
ROW 92 : ... .. . ... ... ... : ... .. . ... ... ... : G-2 00 . ... : C-# 00 E ... : ... .. . ... ...
ROW 93 : ... .. . ... ... ... : ... .. . ... ... ... : ... .. . ... : ... .. 0 ... : ... .. . ... ...
ROW 94 : ... .. . ... ... ... : ... .. . ... ... ... : ... .. . ... : ... .. . ... : ... .. . ... ...
ROW 95 : ... .. . ... ... ... : ... .. . ... ... ... : ... .. . ... : ... .. . ... : ... .. . ... ...
ROW 96 : ... .. . ... ... ... : ... .. . ... ... ... : ... .. . ... : ... .. . ... : ... .. . ... ...
ROW 97 : ... .. . ... ... ... : ... .. . ... ... ... : ... .. . ... : ... .. . ... : ... .. . ... ...
ROW 98 : ... .. . ... ... ... : G-3 00 8 P80 ... ... : G#2 00 . P7F : D-# 00 6 ... : ... .. . ... ...
ROW 99 : ... .. . ... ... ... : ... .. . ... ... ... : ... .. . ... : ... .. . ... : ... .. . ... ...
ROW 9A : ... .. . ... ... ... : ... .. 7 ... ... ... : ... .. . ... : ... .. . ... : ... .. . ... ...
ROW 9B : ... .. . ... ... ... : ... .. . ... ... ... : ... .. . ... : ... .. . ... : ... .. . ... ...
ROW 9C : ... .. . ... ... ... : ... .. . ... ... ... : ... .. . ... : ... .. . ... : ... .. . ... ...
ROW 9D : ... .. . ... ... ... : ... .. . ... ... ... : ... .. . ... : ... .. 0 ... : ... .. . ... ...
ROW 9E : ... .. . ... ... ... : ... .. 0 ... ... ... : ... .. . ... : ... .. . ... : ... .. . ... ...
ROW 9F : ... .. . ... ... ... : ... .. . ... ... ... : ... .. . ... : ... .. . ... : ... .. . ... ...
ROW A0 : ... .. . ... ... ... : ... .. . ... ... ... : ... .. . ... : ... .. . ... : ... .. . ... ...
ROW A1 : ... .. . ... ... ... : ... .. . ... ... ... : --- .. . ... : ... .. . ... : ... .. . ... ...
ROW A2 : ... .. . ... ... ... : ... .. . ... ... ... : ... .. . ... : ... .. . ... : ... .. . ... ...
ROW A3 : ... .. . ... ... ... : ... .. . ... ... ... : ... .. . ... : ... .. . ... : ... .. . ... ...
ROW A4 : ... .. . ... ... ... : G#3 00 8 P80 ... ... : ... .. . ... : ... .. . ... : ... .. . ... ...
ROW A5 : ... .. . ... ... ... : ... .. . ... ... ... : ... .. . ... : ... .. . ... : ... .. . ... ...
ROW A6 : ... .. . ... ... ... : ... .. 7 ... ... ... : ... .. . ... : ... .. . ... : ... .. . ... ...
ROW A7 : ... .. . ... ... ... : ... .. . ... ... ... : ... .. . ... : ... .. . ... : ... .. . ... ...
ROW A8 : ... .. . ... ... ... : ... .. . ... ... ... : ... .. . ... : ... .. . ... : ... .. . ... ...
ROW A9 : ... .. . ... ... ... : ... .. . ... ... ... : ... .. . ... : ... .. . ... : ... .. . ... ...
ROW AA : F-3 00 8 P80 ... ... : G#3 00 8 P80 ... ... : B-2 00 . P80 : C-# 00 E ... : ... .. . ... ...
ROW AB : ... .. . ... ... ... : ... .. . ... ... ... : ... .. . ... : ... .. 0 ... : ... .. . ... ...
ROW AC : ... .. 7 ... ... ... : ... .. 7 ... ... ... : ... .. . ... : ... .. . ... : ... .. . ... ...
ROW AD : ... .. . ... ... ... : ... .. . ... ... ... : ... .. . ... : ... .. . ... : ... .. . ... ...
ROW AE : ... .. . ... ... ... : ... .. . ... ... ... : ... .. . ... : ... .. . ... : ... .. . ... ...
ROW AF : ... .. . ... ... ... : ... .. . ... ... ... : ... .. . ... : ... .. . ... : ... .. . ... ...
ROW B0 : ... .. 0 ... ... ... : ... .. 0 ... ... ... : C-3 00 . ... : D-# 00 6 ... : ... .. . ... ...
ROW B1 : ... .. . ... ... ... : ... .. . ... ... ... : ... .. . ... : ... .. . ... : ... .. . ... ...
ROW B2 : ... .. . ... ... ... : ... .. . ... ... ... : ... .. . ... : ... .. . ... : ... .. . ... ...
ROW B3 : ... .. . ... ... ... : ... .. . ... ... ... : ... .. . ... : ... .. . ... : ... .. . ... ...
ROW B4 : ... .. . ... ... ... : ... .. . ... ... ... : ... .. . ... : ... .. . ... : ... .. . ... ...
ROW B5 : ... .. . ... ... ... : ... .. . ... ... ... : ... .. . ... : ... .. 0 ... : ... .. . ... ...
ROW B6 : ... .. . ... ... ... : ... .. . ... ... ... : ... .. . ... : ... .. . ... : ... .. . ... ...
ROW B7 : ... .. . ... ... ... : ... .. . ... ... ... : ... .. . ... : ... .. . ... : ... .. . ... ...
ROW B8 : ... .. . ... ... ... : ... .. . ... ... ... : ... .. . ... : ... .. . ... : ... .. . ... ...
ROW B9 : ... .. . ... ... ... : ... .. . ... ... ... : --- .. . ... : ... .. . ... : ... .. . ... ...
ROW BA : ... .. . ... ... ... : ... .. . ... ... ... : ... .. . ... : ... .. . ... : ... .. . ... ...
ROW BB : ... .. . ... ... ... : ... .. . ... ... ... : ... .. . ... : ... .. . ... : ... .. . ... ...
ROW BC : ... .. . ... ... ... : ... .. . ... ... ... : ... .. . ... : ... .. . ... : ... .. . ... ...
ROW BD : ... .. . ... ... ... : ... .. . ... ... ... : ... .. . ... : ... .. . ... : ... .. . ... ...
ROW BE : ... .. . ... ... ... : ... .. . ... ... ... : ... .. . ... : ... .. . ... : ... .. . ... ...
ROW BF : ... .. . ... ... ... : ... .. . ... ... ... : ... .. . ... : ... .. . ... : ... .. . ... ...
ROW C0 : ... .. . ... ... ... : ... .. . ... ... ... : ... .. . ... : ... .. . ... : ... .. . ... ...
ROW C1 : ... .. . ... ... ... : ... .. . ... ... ... : ... .. . ... : ... .. . ... : ... .. . ... ...
ROW C2 : ... .. . ... ... ... : ... .. . ... ... ... : ... .. . ... : C-# 00 E ... : ... .. . ... ...
ROW C3 : ... .. . ... ... ... : ... .. . ... ... ... : ... .. . ... : ... .. 0 ... : ... .. . ... ...
ROW C4 : ... .. . ... ... ... : ... .. . ... ... ... : ... .. . ... : ... .. . ... : ... .. . ... ...
ROW C5 : ... .. . ... ... ... : ... .. . ... ... ... : ... .. . ... : ... .. . ... : ... .. . ... ...
ROW C6 : ... .. . ... ... ... : ... .. . ... ... ... : ... .. . ... : ... .. . ... : ... .. . ... ...
ROW C7 : ... .. . ... ... ... : ... .. . ... ... ... : ... .. . ... : ... .. . ... : ... .. . ... ...
ROW C8 : ... .. 0 ... ... ... : ... .. 0 ... ... ... : --- .. . ... : D-# 00 6 ... : ... .. . ... ...
ROW C9 : ... .. . ... ... ... : ... .. . ... ... ... : ... .. . ... : ... .. . ... : ... .. . ... ...
ROW CA : ... .. . ... ... ... : ... .. . ... ... ... : ... .. . ... : ... .. . ... : ... .. . ... ...
ROW CB : ... .. . ... ... ... : ... .. . ... ... ... : ... .. . ... : ... .. . ... : ... .. . ... ...
ROW CC : ... .. . ... ... ... : ... .. . ... ... ... : ... .. . ... : ... .. . ... : ... .. . ... ...
ROW CD : ... .. . ... ... ... : ... .. . ... ... ... : ... .. . ... : ... .. 0 ... : ... .. . ... ...
ROW CE : ... .. . ... ... ... : ... .. . ... ... ... : ... .. . ... : ... .. . ... : ... .. . ... ...
ROW CF : ... .. . ... ... ... : ... .. . ... ... ... : ... .. . ... : ... .. . ... : ... .. . ... ...
ROW D0 : ... .. . ... ... ... : ... .. . ... ... ... : ... .. . ... : ... .. . ... : ... .. . ... ...
ROW D1 : ... .. . ... ... ... : ... .. . ... ... ... : ... .. . ... : ... .. . ... : ... .. . ... ...
ROW D2 : ... .. . ... ... ... : ... .. . ... ... ... : ... .. . ... : ... .. . ... : ... .. . ... ...
ROW D3 : ... .. . ... ... ... : ... .. . ... ... ... : ... .. . ... : ... .. . ... : ... .. . ... ...
ROW D4 : ... .. . ... ... ... : ... .. . ... ... ... : ... .. . ... : ... .. . ... : ... .. . ... ...
ROW D5 : ... .. . ... ... ... : ... .. . ... ... ... : ... .. . ... : ... .. . ... : ... .. . ... ...
ROW D6 : ... .. . ... ... ... : ... .. . ... ... ... : ... .. . ... : ... .. . ... : ... .. . ... ...
ROW D7 : ... .. . ... ... ... : ... .. . ... ... ... : ... .. . ... : ... .. . ... : ... .. . ... ...
ROW D8 : ... .. . ... ... ... : ... .. . ... ... ... : ... .. . ... : ... .. . ... : ... .. . ... ...
ROW D9 : ... .. . ... ... ... : ... .. . ... ... ... : ... .. . ... : ... .. . ... : ... .. . ... ...
ROW DA : ... .. 1 ... V01 ... : ... .. 1 ... V01 ... : ... .. . ... : C-# 00 E ... : ... .. . ... ...
ROW DB : ... .. . ... ... ... : ... .. . ... ... ... : ... .. . ... : ... .. 0 ... : ... .. . ... ...
ROW DC : ... .. . ... ... ... : ... .. . ... ... ... : ... .. . ... : ... .. . ... : ... .. . ... ...
ROW DD : ... .. . ... ... ... : ... .. . ... ... ... : ... .. . ... : ... .. . ... : ... .. . ... ...
ROW DE : ... .. . ... ... ... : ... .. . ... ... ... : ... .. . ... : ... .. . ... : ... .. . ... ...
ROW DF : ... .. . ... ... ... : ... .. . ... ... ... : ... .. . ... : ... .. . ... : ... .. . ... ...
ROW E0 : ... .. 1 ... ... ... : ... .. 1 ... ... ... : D#3 00 . ... : D-# 00 6 ... : ... .. . ... ...
ROW E1 : ... .. . ... ... ... : ... .. . ... ... ... : ... .. . ... : ... .. . ... : ... .. . ... ...
ROW E2 : ... .. . ... ... ... : ... .. . ... ... ... : ... .. . ... : ... .. . ... : ... .. . ... ...
ROW E3 : ... .. . ... ... ... : ... .. . ... ... ... : ... .. . ... : ... .. . ... : ... .. . ... ...
ROW E4 : ... .. . ... ... ... : ... .. . ... ... ... : ... .. . ... : ... .. . ... : ... .. . ... ...
ROW E5 : ... .. . ... ... ... : ... .. . ... ... ... : ... .. . ... : ... .. 0 ... : ... .. . ... ...
ROW E6 : ... .. . ... ... ... : ... .. . ... ... ... : ... .. . ... : ... .. . ... : ... .. . ... ...
ROW E7 : ... .. . ... ... ... : ... .. . ... ... ... : ... .. . ... : ... .. . ... : ... .. . ... ...
ROW E8 : ... .. . ... ... ... : ... .. . ... ... ... : ... .. . ... : ... .. . ... : ... .. . ... ...
ROW E9 : ... .. . ... ... ... : ... .. . ... ... ... : --- .. . ... : ... .. . ... : ... .. . ... ...
ROW EA : ... .. . ... ... ... : ... .. . ... ... ... : ... .. . ... : ... .. . ... : ... .. . ... ...
ROW EB : ... .. . ... ... ... : ... .. . ... ... ... : ... .. . ... : ... .. . ... : ... .. . ... ...
ROW EC : F-3 00 B P80 ... ... : F-4 00 B P82 ... ... : ... .. . ... : ... .. . ... : ... .. . ... ...
ROW ED : ... .. A ... ... ... : ... .. A ... ... ... : ... .. . ... : ... .. . ... : ... .. . ... ...
ROW EE : ... .. 9 ... ... ... : ... .. 9 ... ... ... : ... .. . ... : ... .. . ... : ... .. . ... ...
ROW EF : ... .. 8 ... ... ... : ... .. 8 ... ... ... : ... .. . ... : ... .. . ... : ... .. . ... ...
ROW F0 : ... .. 7 ... ... ... : ... .. 7 ... ... ... : ... .. . ... : ... .. . ... : ... .. . ... ...
ROW F1 : ... .. 6 ... ... ... : ... .. 6 ... ... ... : ... .. . ... : ... .. . ... : ... .. . ... ...
ROW F2 : D-3 00 B P80 ... ... : D-4 00 B P83 ... ... : B-3 00 . ... : 6-# 00 F ... : ... .. . ... ...
ROW F3 : ... .. A ... ... ... : ... .. A ... ... ... : ... .. . ... : ... .. C ... : ... .. . ... ...
ROW F4 : ... .. 9 ... ... ... : ... .. 9 ... ... ... : ... .. . ... : ... .. 8 ... : ... .. . ... ...
ROW F5 : ... .. 8 ... ... ... : ... .. 8 ... ... ... : ... .. . ... : ... .. 4 ... : ... .. . ... ...
ROW F6 : ... .. 7 ... ... ... : ... .. 7 ... ... ... : ... .. . ... : ... .. 0 ... : ... .. . ... ...
ROW F7 : ... .. 6 ... ... ... : ... .. 6 ... ... ... : ... .. . ... : ... .. . ... : ... .. . ... ...
ROW F8 : F-3 00 B P80 ... ... : F-4 00 B P82 ... ... : G#3 00 . ... : D-# 00 6 ... : ... .. . ... ...
ROW F9 : ... .. A ... ... ... : ... .. A ... ... ... : ... .. . ... : ... .. . ... : ... .. . ... ...
ROW FA : ... .. 9 ... ... ... : ... .. 9 ... ... ... : ... .. . ... : ... .. . ... : ... .. . ... ...
ROW FB : ... .. 8 ... ... ... : ... .. 8 ... ... ... : ... .. . ... : ... .. . ... : ... .. . ... ...
ROW FC : ... .. 7 ... ... ... : ... .. 7 ... ... ... : ... .. . ... : ... .. . ... : ... .. . ... ...
ROW FD : ... .. 6 ... ... ... : ... .. 6 ... ... ... : ... .. . ... : ... .. 0 ... : ... .. . ... ...
ROW FE : ... .. 1 ... ... ... : ... .. 1 ... ... ... : ... .. . ... : ... .. . ... : ... .. . ... ...
ROW FF : ... .. . ... ... ... : ... .. . ... ... ... : ... .. . ... : ... .. . ... : ... .. . ... ...

PATTERN 0B
ROW 00 : ... .. . ... ... ... : ... .. . ... ... ... : ... .. . ... : ... .. . ... : ... .. . ... ...
ROW 01 : ... .. . ... ... ... : ... .. . ... ... ... : --- .. . ... : ... .. . ... : ... .. . ... ...
ROW 02 : ... .. . ... ... ... : ... .. . ... ... ... : ... .. . ... : ... .. . ... : ... .. . ... ...
ROW 03 : ... .. . ... ... ... : ... .. . ... ... ... : ... .. . ... : ... .. . ... : ... .. . ... ...
ROW 04 : D-3 00 B P80 ... ... : D-4 00 B P83 ... ... : ... .. . ... : ... .. . ... : ... .. . ... ...
ROW 05 : ... .. A ... ... ... : ... .. A ... ... ... : ... .. . ... : ... .. . ... : ... .. . ... ...
ROW 06 : ... .. 9 ... ... ... : ... .. 9 ... ... ... : ... .. . ... : ... .. . ... : ... .. . ... ...
ROW 07 : ... .. 8 ... ... ... : ... .. 8 ... ... ... : ... .. . ... : ... .. . ... : ... .. . ... ...
ROW 08 : ... .. 7 ... ... ... : ... .. 7 ... ... ... : ... .. . ... : ... .. . ... : ... .. . ... ...
ROW 09 : ... .. 6 ... ... ... : ... .. 6 ... ... ... : ... .. . ... : ... .. . ... : ... .. . ... ...
ROW 0A : D#3 00 B P80 ... ... : D#4 00 B P83 ... ... : F-3 00 . ... : 6-# 00 F ... : ... .. . ... ...
ROW 0B : ... .. A ... ... ... : ... .. A ... ... ... : ... .. . ... : ... .. D ... : ... .. . ... ...
ROW 0C : ... .. 9 ... ... ... : ... .. 9 ... ... ... : ... .. . ... : ... .. 9 ... : ... .. . ... ...
ROW 0D : ... .. 8 ... ... ... : ... .. 8 ... ... ... : ... .. . ... : ... .. 5 ... : ... .. . ... ...
ROW 0E : ... .. 7 ... ... ... : ... .. 7 ... ... ... : ... .. . ... : ... .. 1 ... : ... .. . ... ...
ROW 0F : ... .. 6 ... ... ... : ... .. 6 ... ... ... : ... .. . ... : ... .. 0 ... : ... .. . ... ...
ROW 10 : ... .. 5 ... ... ... : ... .. 5 ... ... ... : D#3 00 . ... : D-# 00 6 ... : ... .. . ... ...
ROW 11 : ... .. 4 ... ... ... : ... .. 4 ... ... ... : ... .. . ... : ... .. . ... : ... .. . ... ...
ROW 12 : ... .. 3 ... ... ... : ... .. 3 ... ... ... : ... .. . ... : ... .. . ... : ... .. . ... ...
ROW 13 : ... .. 2 ... ... ... : ... .. 2 ... ... ... : ... .. . ... : ... .. . ... : ... .. . ... ...
ROW 14 : ... .. 1 ... ... ... : ... .. 1 ... ... ... : ... .. . ... : ... .. . ... : ... .. . ... ...
ROW 15 : ... .. . ... ... ... : ... .. . ... ... ... : ... .. . ... : ... .. 0 ... : ... .. . ... ...
ROW 16 : ... .. . ... ... ... : ... .. . ... ... ... : ... .. . ... : ... .. . ... : ... .. . ... ...
ROW 17 : ... .. . ... ... ... : ... .. . ... ... ... : ... .. . ... : ... .. . ... : ... .. . ... ...
ROW 18 : ... .. . ... ... ... : ... .. . ... ... ... : ... .. . ... : ... .. . ... : ... .. . ... ...
ROW 19 : ... .. . ... ... ... : ... .. . ... ... ... : --- .. . ... : ... .. . ... : ... .. . ... ...
ROW 1A : ... .. . ... ... ... : ... .. . ... ... ... : ... .. . ... : ... .. . ... : ... .. . ... ...
ROW 1B : ... .. . ... ... ... : ... .. . ... ... ... : ... .. . ... : ... .. . ... : ... .. . ... ...
ROW 1C : ... .. . ... ... ... : ... .. . ... ... ... : ... .. . ... : ... .. . ... : ... .. . ... ...
ROW 1D : ... .. . ... ... ... : ... .. . ... ... ... : ... .. . ... : ... .. . ... : ... .. . ... ...
ROW 1E : ... .. . ... ... ... : ... .. . ... ... ... : ... .. . ... : ... .. . ... : ... .. . ... ...
ROW 1F : ... .. . ... ... ... : ... .. . ... ... ... : ... .. . ... : ... .. . ... : ... .. . ... ...
ROW 20 : ... .. . ... ... ... : ... .. . ... ... ... : ... .. . ... : ... .. . ... : ... .. . ... ...
ROW 21 : ... .. . ... ... ... : ... .. . ... ... ... : ... .. . ... : ... .. . ... : ... .. . ... ...
ROW 22 : G#3 00 B P80 ... ... : G#4 00 B P83 ... ... : C#3 00 . ... : 6-# 00 F ... : ... .. . ... ...
ROW 23 : ... .. A ... ... ... : ... .. A ... ... ... : ... .. . ... : ... .. D ... : ... .. . ... ...
ROW 24 : ... .. 9 ... ... ... : ... .. 9 ... ... ... : ... .. . ... : ... .. 9 ... : ... .. . ... ...
ROW 25 : ... .. 8 ... ... ... : ... .. 8 ... ... ... : ... .. . ... : ... .. 5 ... : ... .. . ... ...
ROW 26 : ... .. 7 ... ... ... : ... .. 7 ... ... ... : ... .. . ... : ... .. 1 ... : ... .. . ... ...
ROW 27 : ... .. 6 ... ... ... : ... .. 6 ... ... ... : ... .. . ... : ... .. 0 ... : ... .. . ... ...
ROW 28 : F-3 00 B P80 ... ... : F-4 00 B P82 ... ... : B-2 00 . ... : D-# 00 6 ... : ... .. . ... ...
ROW 29 : ... .. A ... ... ... : ... .. A ... ... ... : ... .. . ... : ... .. . ... : ... .. . ... ...
ROW 2A : ... .. 9 ... ... ... : ... .. 9 ... ... ... : ... .. . ... : ... .. . ... : ... .. . ... ...
ROW 2B : ... .. 8 ... ... ... : ... .. 8 ... ... ... : ... .. . ... : ... .. . ... : ... .. . ... ...
ROW 2C : ... .. 7 ... ... ... : ... .. 7 ... ... ... : ... .. . ... : ... .. . ... : ... .. . ... ...
ROW 2D : ... .. 6 ... ... ... : ... .. 6 ... ... ... : ... .. . ... : ... .. 0 ... : ... .. . ... ...
ROW 2E : ... .. 5 ... ... ... : ... .. 5 ... ... ... : ... .. . ... : ... .. . ... : ... .. . ... ...
ROW 2F : ... .. 4 ... ... ... : ... .. 4 ... ... ... : ... .. . ... : ... .. . ... : ... .. . ... ...
ROW 30 : ... .. 3 ... ... ... : ... .. 3 ... ... ... : ... .. . ... : ... .. . ... : ... .. . ... ...
ROW 31 : ... .. 2 ... ... ... : ... .. 2 ... ... ... : --- .. . ... : ... .. . ... : ... .. . ... ...
ROW 32 : ... .. 1 ... ... ... : ... .. 1 ... ... ... : ... .. . ... : ... .. . ... : ... .. . ... ...
ROW 33 : ... .. . ... ... ... : ... .. . ... ... ... : ... .. . ... : ... .. . ... : ... .. . ... ...
ROW 34 : ... .. . ... ... ... : ... .. . ... ... ... : ... .. . ... : ... .. . ... : ... .. . ... ...
ROW 35 : ... .. . ... ... ... : ... .. . ... ... ... : ... .. . ... : ... .. . ... : ... .. . ... ...
ROW 36 : ... .. . ... ... ... : ... .. . ... ... ... : ... .. . ... : ... .. . ... : ... .. . ... ...
ROW 37 : ... .. . ... ... ... : ... .. . ... ... ... : ... .. . ... : ... .. . ... : ... .. . ... ...
ROW 38 : ... .. . ... ... ... : ... .. . ... ... ... : ... .. . ... : ... .. . ... : ... .. . ... ...
ROW 39 : ... .. . ... ... ... : ... .. . ... ... ... : ... .. . ... : ... .. . ... : ... .. . ... ...
ROW 3A : D#3 00 B P80 ... ... : D#4 00 B P83 ... ... : G#2 00 . ... : 6-# 00 F ... : ... .. . ... ...
ROW 3B : ... .. A ... ... ... : ... .. A ... ... ... : ... .. . ... : ... .. D ... : ... .. . ... ...
ROW 3C : ... .. 9 ... ... ... : ... .. 9 ... ... ... : ... .. . ... : ... .. 9 ... : ... .. . ... ...
ROW 3D : ... .. 8 ... ... ... : ... .. 8 ... ... ... : ... .. . ... : ... .. 5 ... : ... .. . ... ...
ROW 3E : ... .. 7 ... ... ... : ... .. 7 ... ... ... : ... .. . ... : ... .. 1 ... : ... .. . ... ...
ROW 3F : ... .. 6 ... ... ... : ... .. 6 ... ... ... : ... .. . ... : ... .. 0 ... : ... .. . ... ...
ROW 40 : C#3 00 B P80 ... ... : C#4 00 B P82 ... ... : G#2 00 . P7F : D-# 00 6 ... : ... .. . ... ...
ROW 41 : ... .. A ... ... ... : ... .. A ... ... ... : ... .. . ... : ... .. . ... : ... .. . ... ...
ROW 42 : ... .. 9 ... ... ... : ... .. 9 ... ... ... : ... .. . ... : ... .. . ... : ... .. . ... ...
ROW 43 : ... .. 8 ... ... ... : ... .. 8 ... ... ... : ... .. . ... : ... .. . ... : ... .. . ... ...
ROW 44 : ... .. 7 ... ... ... : ... .. 7 ... ... ... : ... .. . ... : ... .. . ... : ... .. . ... ...
ROW 45 : ... .. 6 ... ... ... : ... .. 6 ... ... ... : ... .. . ... : ... .. 0 ... : ... .. . ... ...
ROW 46 : D#3 00 B P80 ... ... : D#4 00 B P83 ... ... : ... .. . ... : ... .. . ... : ... .. . ... ...
ROW 47 : ... .. A ... ... ... : ... .. A ... ... ... : ... .. . ... : ... .. . ... : ... .. . ... ...
ROW 48 : ... .. 9 ... ... ... : ... .. 9 ... ... ... : ... .. . ... : ... .. . ... : ... .. . ... ...
ROW 49 : ... .. 8 ... ... ... : ... .. 8 ... ... ... : --- .. . ... : ... .. . ... : ... .. . ... ...
ROW 4A : C#3 00 B P80 ... ... : C#4 00 B P82 ... ... : ... .. . ... : ... .. . ... : ... .. . ... ...
ROW 4B : ... .. A ... ... ... : ... .. A ... ... ... : ... .. . ... : ... .. . ... : ... .. . ... ...
ROW 4C : ... .. 9 ... ... ... : ... .. 9 ... ... ... : ... .. . ... : ... .. . ... : ... .. . ... ...
ROW 4D : ... .. 8 ... ... ... : ... .. 8 ... ... ... : ... .. . ... : ... .. . ... : ... .. . ... ...
ROW 4E : C-3 00 B P80 ... ... : C-4 00 B P83 ... ... : ... .. . ... : ... .. . ... : ... .. . ... ...
ROW 4F : ... .. A ... ... ... : ... .. A ... ... ... : ... .. . ... : ... .. . ... : ... .. . ... ...
ROW 50 : ... .. 9 ... ... ... : ... .. 9 ... ... ... : ... .. . ... : ... .. . ... : ... .. . ... ...
ROW 51 : ... .. 8 ... ... ... : ... .. 8 ... ... ... : ... .. . ... : ... .. . ... : ... .. . ... ...
ROW 52 : B-2 00 B P80 ... ... : B-3 00 B P82 ... ... : B-2 00 . P80 : 6-# 00 F ... : ... .. . ... ...
ROW 53 : ... .. A ... ... ... : ... .. A ... ... ... : ... .. . ... : ... .. D ... : ... .. . ... ...
ROW 54 : ... .. 9 ... ... ... : ... .. 9 ... ... ... : ... .. . ... : ... .. 9 ... : ... .. . ... ...
ROW 55 : ... .. 8 ... ... ... : ... .. 8 ... ... ... : ... .. . ... : ... .. 5 ... : ... .. . ... ...
ROW 56 : ... .. 7 ... ... ... : ... .. 7 ... ... ... : ... .. . ... : ... .. 1 ... : ... .. . ... ...
ROW 57 : ... .. 6 ... ... ... : ... .. 6 ... ... ... : ... .. . ... : ... .. 0 ... : ... .. . ... ...
ROW 58 : C#3 00 B P80 ... ... : C#4 00 B P82 ... ... : C-3 00 . ... : D-# 00 6 ... : ... .. . ... ...
ROW 59 : ... .. A ... ... ... : ... .. A ... ... ... : ... .. . ... : ... .. . ... : ... .. . ... ...
ROW 5A : ... .. 9 ... ... ... : ... .. 9 ... ... ... : ... .. . ... : ... .. . ... : ... .. . ... ...
ROW 5B : ... .. 8 ... ... ... : ... .. 8 ... ... ... : ... .. . ... : ... .. . ... : ... .. . ... ...
ROW 5C : ... .. 7 ... ... ... : ... .. 7 ... ... ... : ... .. . ... : ... .. . ... : ... .. . ... ...
ROW 5D : ... .. 6 ... ... ... : ... .. 6 ... ... ... : ... .. . ... : ... .. 0 ... : ... .. . ... ...
ROW 5E : ... .. 1 ... ... ... : ... .. 1 ... ... ... : ... .. . ... : ... .. . ... : ... .. . ... ...
ROW 5F : ... .. . ... ... ... : ... .. . ... ... ... : ... .. . ... : ... .. . ... : ... .. . ... ...
ROW 60 : ... .. . ... ... ... : ... .. . ... ... ... : ... .. . ... : ... .. . ... : ... .. . ... ...
ROW 61 : ... .. . ... ... ... : ... .. . ... ... ... : --- .. . ... : ... .. . ... : ... .. . ... ...
ROW 62 : ... .. . ... ... ... : ... .. . ... ... ... : ... .. . ... : ... .. . ... : ... .. . ... ...
ROW 63 : ... .. . ... ... ... : ... .. . ... ... ... : ... .. . ... : ... .. . ... : ... .. . ... ...
ROW 64 : C-3 00 B P80 ... ... : C-4 00 B P83 ... ... : ... .. . ... : ... .. . ... : ... .. . ... ...
ROW 65 : ... .. A ... ... ... : ... .. A ... ... ... : ... .. . ... : ... .. . ... : ... .. . ... ...
ROW 66 : ... .. 9 ... ... ... : ... .. 9 ... ... ... : ... .. . ... : ... .. . ... : ... .. . ... ...
ROW 67 : ... .. 8 ... ... ... : ... .. 8 ... ... ... : ... .. . ... : ... .. . ... : ... .. . ... ...
ROW 68 : ... .. 7 ... ... ... : ... .. 7 ... ... ... : ... .. . ... : ... .. . ... : ... .. . ... ...
ROW 69 : ... .. 6 ... ... ... : ... .. 6 ... ... ... : ... .. . ... : ... .. . ... : ... .. . ... ...
ROW 6A : B-2 00 B P80 ... ... : B-3 00 B P82 ... ... : C#3 00 . ... : 6-# 00 F ... : ... .. . ... ...
ROW 6B : ... .. A ... ... ... : ... .. A ... ... ... : ... .. . ... : ... .. D ... : ... .. . ... ...
ROW 6C : ... .. 9 ... ... ... : ... .. 9 ... ... ... : ... .. . ... : ... .. 9 ... : ... .. . ... ...
ROW 6D : ... .. 8 ... ... ... : ... .. 8 ... ... ... : ... .. . ... : ... .. 5 ... : ... .. . ... ...
ROW 6E : ... .. 7 ... ... ... : ... .. 7 ... ... ... : ... .. . ... : ... .. 1 ... : ... .. . ... ...
ROW 6F : ... .. 6 ... ... ... : ... .. 6 ... ... ... : ... .. . ... : ... .. 0 ... : ... .. . ... ...
ROW 70 : ... .. 5 ... ... ... : ... .. 5 ... ... ... : D#3 00 . ... : D-# 00 6 ... : ... .. . ... ...
ROW 71 : ... .. 4 ... ... ... : ... .. 4 ... ... ... : ... .. . ... : ... .. . ... : ... .. . ... ...
ROW 72 : ... .. 3 ... ... ... : ... .. 3 ... ... ... : ... .. . ... : ... .. . ... : ... .. . ... ...
ROW 73 : ... .. 2 ... ... ... : ... .. 2 ... ... ... : ... .. . ... : ... .. . ... : ... .. . ... ...
ROW 74 : ... .. 1 ... ... ... : ... .. 1 ... ... ... : ... .. . ... : ... .. . ... : ... .. . ... ...
ROW 75 : ... .. . ... ... ... : ... .. . ... ... ... : ... .. . ... : ... .. 0 ... : ... .. . ... ...
ROW 76 : ... .. . ... ... ... : ... .. . ... ... ... : ... .. . ... : ... .. . ... : ... .. . ... ...
ROW 77 : ... .. . ... ... ... : ... .. . ... ... ... : ... .. . ... : ... .. . ... : ... .. . ... ...
ROW 78 : ... .. . ... ... ... : ... .. . ... ... ... : ... .. . ... : ... .. . ... : ... .. . ... ...
ROW 79 : ... .. . ... ... ... : ... .. . ... ... ... : --- .. . ... : ... .. . ... : ... .. . ... ...
ROW 7A : ... .. . ... ... ... : ... .. . ... ... ... : ... .. . ... : ... .. . ... : ... .. . ... ...
ROW 7B : ... .. . ... ... ... : ... .. . ... ... ... : ... .. . ... : ... .. . ... : ... .. . ... ...
ROW 7C : ... .. . ... ... ... : ... .. . ... ... ... : ... .. . ... : ... .. . ... : ... .. . ... ...
ROW 7D : ... .. . ... ... ... : ... .. . ... ... ... : ... .. . ... : ... .. . ... : ... .. . ... ...
ROW 7E : ... .. . ... ... ... : ... .. . ... ... ... : ... .. . ... : ... .. . ... : ... .. . ... ...
ROW 7F : ... .. . ... ... ... : ... .. . ... ... ... : ... .. . ... : ... .. . ... : ... .. . ... ...
ROW 80 : ... .. . ... ... ... : ... .. . ... ... ... : ... .. . ... : ... .. . ... : ... .. . ... ...
ROW 81 : ... .. . ... ... ... : ... .. . ... ... ... : ... .. . ... : ... .. . ... : ... .. . ... ...
ROW 82 : ... .. . ... ... ... : ... .. . ... ... ... : C-3 00 . ... : 6-# 00 F ... : ... .. . ... ...
ROW 83 : ... .. . ... ... ... : ... .. . ... ... ... : ... .. . ... : ... .. D ... : ... .. . ... ...
ROW 84 : ... .. . ... ... ... : ... .. . ... ... ... : ... .. . ... : ... .. 9 ... : ... .. . ... ...
ROW 85 : ... .. . ... ... ... : ... .. . ... ... ... : ... .. . ... : ... .. 5 ... : ... .. . ... ...
ROW 86 : ... .. . ... ... ... : ... .. . ... ... ... : ... .. . ... : ... .. 1 ... : ... .. . ... ...
ROW 87 : ... .. . ... ... ... : ... .. . ... ... ... : ... .. . ... : ... .. 0 ... : ... .. . ... ...
ROW 88 : B-2 00 B P80 ... ... : B-3 00 B P82 ... ... : B-2 00 . ... : D-# 00 6 ... : ... .. . ... ...
ROW 89 : ... .. A ... ... ... : ... .. A ... ... ... : ... .. . ... : ... .. . ... : ... .. . ... ...
ROW 8A : ... .. 9 ... ... ... : ... .. 9 ... ... ... : ... .. . ... : ... .. . ... : ... .. . ... ...
ROW 8B : ... .. 8 ... ... ... : ... .. 8 ... ... ... : ... .. . ... : ... .. . ... : ... .. . ... ...
ROW 8C : ... .. 7 ... ... ... : ... .. 7 ... ... ... : ... .. . ... : ... .. . ... : ... .. . ... ...
ROW 8D : ... .. 6 ... ... ... : ... .. 6 ... ... ... : ... .. . ... : ... .. 0 ... : ... .. . ... ...
ROW 8E : ... .. 5 ... ... ... : ... .. 5 ... ... ... : ... .. . ... : ... .. . ... : ... .. . ... ...
ROW 8F : ... .. 4 ... ... ... : ... .. 4 ... ... ... : ... .. . ... : ... .. . ... : ... .. . ... ...
ROW 90 : ... .. 3 ... ... ... : ... .. 3 ... ... ... : ... .. . ... : ... .. . ... : ... .. . ... ...
ROW 91 : ... .. 2 ... ... ... : ... .. 2 ... ... ... : --- .. . ... : ... .. . ... : ... .. . ... ...
ROW 92 : ... .. 1 ... ... ... : ... .. 1 ... ... ... : ... .. . ... : ... .. . ... : ... .. . ... ...
ROW 93 : ... .. . ... ... ... : ... .. . ... ... ... : ... .. . ... : ... .. . ... : ... .. . ... ...
ROW 94 : ... .. . ... ... ... : ... .. . ... ... ... : ... .. . ... : ... .. . ... : ... .. . ... ...
ROW 95 : ... .. . ... ... ... : ... .. . ... ... ... : ... .. . ... : ... .. . ... : ... .. . ... ...
ROW 96 : ... .. . ... ... ... : ... .. . ... ... ... : ... .. . ... : ... .. . ... : ... .. . ... ...
ROW 97 : ... .. . ... ... ... : ... .. . ... ... ... : ... .. . ... : ... .. . ... : ... .. . ... ...
ROW 98 : ... .. . ... ... ... : ... .. . ... ... ... : ... .. . ... : ... .. . ... : ... .. . ... ...
ROW 99 : ... .. . ... ... ... : ... .. . ... ... ... : ... .. . ... : ... .. . ... : ... .. . ... ...
ROW 9A : C-3 00 B P80 ... ... : C-4 00 B P83 ... ... : G#2 00 . P7F : 6-# 00 F ... : ... .. . ... ...
ROW 9B : ... .. A ... ... ... : ... .. A ... ... ... : ... .. . ... : ... .. D ... : ... .. . ... ...
ROW 9C : ... .. 9 ... ... ... : ... .. 9 ... ... ... : ... .. . ... : ... .. 9 ... : ... .. . ... ...
ROW 9D : ... .. 8 ... ... ... : ... .. 8 ... ... ... : ... .. . ... : ... .. 5 ... : ... .. . ... ...
ROW 9E : ... .. 7 ... ... ... : ... .. 7 ... ... ... : ... .. . ... : ... .. 1 ... : ... .. . ... ...
ROW 9F : ... .. 6 ... ... ... : ... .. 6 ... ... ... : ... .. . ... : ... .. 0 ... : ... .. . ... ...
ROW A0 : ... .. . ... ... ... : ... .. . ... ... ... : C#3 00 . P80 : D-# 00 6 ... : ... .. . ... ...
ROW A1 : ... .. . ... ... ... : ... .. . ... ... ... : ... .. . ... : ... .. . ... : ... .. . ... ...
ROW A2 : ... .. . ... ... ... : ... .. . ... ... ... : ... .. . ... : ... .. . ... : ... .. . ... ...
ROW A3 : ... .. . ... ... ... : ... .. . ... ... ... : ... .. . ... : ... .. . ... : ... .. . ... ...
ROW A4 : ... .. . ... ... ... : ... .. . ... ... ... : ... .. . ... : ... .. . ... : ... .. . ... ...
ROW A5 : ... .. . ... ... ... : ... .. . ... ... ... : ... .. . ... : ... .. 0 ... : ... .. . ... ...
ROW A6 : ... .. . ... ... ... : ... .. . ... ... ... : ... .. . ... : ... .. . ... : ... .. . ... ...
ROW A7 : ... .. . ... ... ... : ... .. . ... ... ... : ... .. . ... : ... .. . ... : ... .. . ... ...
ROW A8 : ... .. . ... ... ... : ... .. . ... ... ... : ... .. . ... : ... .. . ... : ... .. . ... ...
ROW A9 : ... .. . ... ... ... : ... .. . ... ... ... : --- .. . ... : ... .. . ... : ... .. . ... ...
ROW AA : ... .. . ... ... ... : ... .. . ... ... ... : ... .. . ... : ... .. . ... : ... .. . ... ...
ROW AB : ... .. . ... ... ... : ... .. . ... ... ... : ... .. . ... : ... .. . ... : ... .. . ... ...
ROW AC : C#3 00 B P80 ... ... : C#4 00 B P82 ... ... : ... .. . ... : ... .. . ... : ... .. . ... ...
ROW AD : ... .. A ... ... ... : ... .. A ... ... ... : ... .. . ... : ... .. . ... : ... .. . ... ...
ROW AE : ... .. 9 ... ... ... : ... .. 9 ... ... ... : ... .. . ... : ... .. . ... : ... .. . ... ...
ROW AF : ... .. 8 ... ... ... : ... .. 8 ... ... ... : ... .. . ... : ... .. . ... : ... .. . ... ...
ROW B0 : ... .. 7 ... ... ... : ... .. 7 ... ... ... : ... .. . ... : ... .. . ... : ... .. . ... ...
ROW B1 : ... .. 6 ... ... ... : ... .. 6 ... ... ... : ... .. . ... : ... .. . ... : ... .. . ... ...
ROW B2 : ... .. 5 ... ... ... : ... .. 5 ... ... ... : D#3 00 . ... : 6-# 00 F ... : ... .. . ... ...
ROW B3 : ... .. 4 ... ... ... : ... .. 4 ... ... ... : ... .. . ... : ... .. D ... : ... .. . ... ...
ROW B4 : ... .. 3 ... ... ... : ... .. 3 ... ... ... : ... .. . ... : ... .. 9 ... : ... .. . ... ...
ROW B5 : ... .. 2 ... ... ... : ... .. 2 ... ... ... : ... .. . ... : ... .. 5 ... : ... .. . ... ...
ROW B6 : ... .. 1 ... ... ... : ... .. 1 ... ... ... : ... .. . ... : ... .. 1 ... : ... .. . ... ...
ROW B7 : ... .. . ... ... ... : ... .. . ... ... ... : ... .. . ... : ... .. 0 ... : ... .. . ... ...
ROW B8 : C#3 00 B P80 ... ... : C#4 00 B P83 ... ... : F#3 00 . ... : D-# 00 6 ... : ... .. . ... ...
ROW B9 : ... .. A ... ... ... : ... .. A ... ... ... : ... .. . ... : ... .. . ... : ... .. . ... ...
ROW BA : ... .. 9 ... ... ... : ... .. 9 ... ... ... : ... .. . ... : ... .. . ... : ... .. . ... ...
ROW BB : ... .. 8 ... ... ... : ... .. 8 ... ... ... : ... .. . ... : ... .. . ... : ... .. . ... ...
ROW BC : ... .. 7 ... ... ... : ... .. 7 ... ... ... : ... .. . ... : ... .. . ... : ... .. . ... ...
ROW BD : ... .. 6 ... ... ... : ... .. 6 ... ... ... : ... .. . ... : ... .. 0 ... : ... .. . ... ...
ROW BE : ... .. 5 ... ... ... : ... .. 5 ... ... ... : ... .. . ... : ... .. . ... : ... .. . ... ...
ROW BF : ... .. 4 ... ... ... : ... .. 4 ... ... ... : ... .. . ... : ... .. . ... : ... .. . ... ...
ROW C0 : ... .. 3 ... ... ... : ... .. 3 ... ... ... : ... .. . ... : ... .. . ... : ... .. . ... ...
ROW C1 : ... .. 2 ... ... ... : ... .. 2 ... ... ... : --- .. . ... : ... .. . ... : ... .. . ... ...
ROW C2 : ... .. 1 ... ... ... : ... .. 1 ... ... ... : ... .. . ... : ... .. . ... : ... .. . ... ...
ROW C3 : ... .. . ... ... ... : ... .. . ... ... ... : ... .. . ... : ... .. . ... : ... .. . ... ...
ROW C4 : ... .. . ... ... ... : ... .. . ... ... ... : ... .. . ... : ... .. . ... : ... .. . ... ...
ROW C5 : ... .. . ... ... ... : ... .. . ... ... ... : ... .. . ... : ... .. . ... : ... .. . ... ...
ROW C6 : ... .. . ... ... ... : ... .. . ... ... ... : ... .. . ... : ... .. . ... : ... .. . ... ...
ROW C7 : ... .. . ... ... ... : ... .. . ... ... ... : ... .. . ... : ... .. . ... : ... .. . ... ...
ROW C8 : ... .. . ... ... ... : ... .. . ... ... ... : ... .. . ... : ... .. . ... : ... .. . ... ...
ROW C9 : ... .. . ... ... ... : ... .. . ... ... ... : ... .. . ... : ... .. . ... : ... .. . ... ...
ROW CA : C#3 00 B P80 ... ... : C#4 00 B P82 ... ... : G#3 00 . ... : 6-# 00 F ... : ... .. . ... ...
ROW CB : ... .. A ... ... ... : ... .. A ... ... ... : ... .. . ... : ... .. D ... : ... .. . ... ...
ROW CC : ... .. 9 ... ... ... : ... .. 9 ... ... ... : ... .. . ... : ... .. 9 ... : ... .. . ... ...
ROW CD : ... .. 8 ... ... ... : ... .. 8 ... ... ... : ... .. . ... : ... .. 5 ... : ... .. . ... ...
ROW CE : ... .. 7 ... ... ... : ... .. 7 ... ... ... : ... .. . ... : ... .. 1 ... : ... .. . ... ...
ROW CF : ... .. 6 ... ... ... : ... .. 6 ... ... ... : ... .. . ... : ... .. 0 ... : ... .. . ... ...
ROW D0 : ... .. 5 ... ... ... : ... .. 5 ... ... ... : C#3 00 . ... : D-# 00 6 ... : ... .. . ... ...
ROW D1 : ... .. 4 ... ... ... : ... .. 4 ... ... ... : ... .. . ... : ... .. . ... : ... .. . ... ...
ROW D2 : ... .. 3 ... ... ... : ... .. 3 ... ... ... : ... .. . ... : ... .. . ... : ... .. . ... ...
ROW D3 : ... .. 2 ... ... ... : ... .. 2 ... ... ... : ... .. . ... : ... .. . ... : ... .. . ... ...
ROW D4 : ... .. 1 ... ... ... : ... .. 1 ... ... ... : ... .. . ... : ... .. . ... : ... .. . ... ...
ROW D5 : ... .. . ... ... ... : ... .. . ... ... ... : ... .. . ... : ... .. 0 ... : ... .. . ... ...
ROW D6 : ... .. . ... ... ... : ... .. . ... ... ... : ... .. . ... : ... .. . ... : ... .. . ... ...
ROW D7 : ... .. . ... ... ... : ... .. . ... ... ... : ... .. . ... : ... .. . ... : ... .. . ... ...
ROW D8 : ... .. . ... ... ... : ... .. . ... ... ... : ... .. . ... : ... .. . ... : ... .. . ... ...
ROW D9 : ... .. . ... ... ... : ... .. . ... ... ... : --- .. . ... : ... .. . ... : ... .. . ... ...
ROW DA : ... .. . ... ... ... : ... .. . ... ... ... : ... .. . ... : ... .. . ... : ... .. . ... ...
ROW DB : ... .. . ... ... ... : ... .. . ... ... ... : ... .. . ... : ... .. . ... : ... .. . ... ...
ROW DC : ... .. . ... ... ... : ... .. . ... ... ... : ... .. . ... : ... .. . ... : ... .. . ... ...
ROW DD : ... .. . ... ... ... : ... .. . ... ... ... : ... .. . ... : ... .. . ... : ... .. . ... ...
ROW DE : ... .. . ... ... ... : ... .. . ... ... ... : ... .. . ... : ... .. . ... : ... .. . ... ...
ROW DF : ... .. . ... ... ... : ... .. . ... ... ... : ... .. . ... : ... .. . ... : ... .. . ... ...
ROW E0 : ... .. . ... ... ... : ... .. . ... ... ... : ... .. . ... : ... .. . ... : ... .. . ... ...
ROW E1 : ... .. . ... ... ... : ... .. . ... ... ... : ... .. . ... : ... .. . ... : ... .. . ... ...
ROW E2 : F#3 00 B P80 ... ... : F#4 00 B P82 ... ... : G#2 00 . P7F : 6-# 00 F ... : ... .. . ... ...
ROW E3 : ... .. A ... ... ... : ... .. A ... ... ... : ... .. . ... : ... .. D ... : ... .. . ... ...
ROW E4 : ... .. 9 ... ... ... : ... .. 9 ... ... ... : ... .. . ... : ... .. 9 ... : ... .. . ... ...
ROW E5 : ... .. 8 ... ... ... : ... .. 8 ... ... ... : ... .. . ... : ... .. 5 ... : ... .. . ... ...
ROW E6 : ... .. 7 ... ... ... : ... .. 7 ... ... ... : ... .. . ... : ... .. 1 ... : ... .. . ... ...
ROW E7 : ... .. 6 ... ... ... : ... .. 6 ... ... ... : ... .. . ... : ... .. 0 ... : ... .. . ... ...
ROW E8 : G-3 00 B P80 ... ... : G-4 00 B P83 ... ... : C#3 00 . P80 : D-# 00 6 ... : ... .. . ... ...
ROW E9 : ... .. A ... ... ... : ... .. A ... ... ... : ... .. . ... : ... .. . ... : ... .. . ... ...
ROW EA : ... .. 9 ... ... ... : ... .. 9 ... ... ... : ... .. . ... : ... .. . ... : ... .. . ... ...
ROW EB : ... .. 8 ... ... ... : ... .. 8 ... ... ... : ... .. . ... : ... .. . ... : ... .. . ... ...
ROW EC : ... .. 7 ... ... ... : ... .. 7 ... ... ... : ... .. . ... : ... .. . ... : ... .. . ... ...
ROW ED : ... .. 6 ... ... ... : ... .. 6 ... ... ... : ... .. . ... : ... .. 0 ... : ... .. . ... ...
ROW EE : ... .. 5 ... ... ... : ... .. 5 ... ... ... : ... .. . ... : ... .. . ... : ... .. . ... ...
ROW EF : ... .. 4 ... ... ... : ... .. 4 ... ... ... : ... .. . ... : ... .. . ... : ... .. . ... ...
ROW F0 : ... .. 3 ... ... ... : ... .. 3 ... ... ... : ... .. . ... : ... .. . ... : ... .. . ... ...
ROW F1 : ... .. 2 ... ... ... : ... .. 2 ... ... ... : --- .. . ... : ... .. . ... : ... .. . ... ...
ROW F2 : ... .. 1 ... ... ... : ... .. 1 ... ... ... : ... .. . ... : ... .. . ... : ... .. . ... ...
ROW F3 : ... .. . ... ... ... : ... .. . ... ... ... : ... .. . ... : ... .. . ... : ... .. . ... ...
ROW F4 : ... .. . ... ... ... : ... .. . ... ... ... : ... .. . ... : ... .. . ... : ... .. . ... ...
ROW F5 : ... .. . ... ... ... : ... .. . ... ... ... : ... .. . ... : ... .. . ... : ... .. . ... ...
ROW F6 : ... .. . ... ... ... : ... .. . ... ... ... : ... .. . ... : ... .. . ... : ... .. . ... ...
ROW F7 : ... .. . ... ... ... : ... .. . ... ... ... : ... .. . ... : ... .. . ... : ... .. . ... ...
ROW F8 : ... .. . ... ... ... : ... .. . ... ... ... : ... .. . ... : ... .. . ... : ... .. . ... ...
ROW F9 : ... .. . ... ... ... : ... .. . ... ... ... : ... .. . ... : ... .. . ... : ... .. . ... ...
ROW FA : G#3 00 B P80 ... ... : G#4 00 B P82 ... ... : F#3 00 . ... : 6-# 00 F ... : ... .. . ... ...
ROW FB : ... .. A ... ... ... : ... .. A ... ... ... : ... .. . ... : ... .. D ... : ... .. . ... ...
ROW FC : ... .. 9 ... ... ... : ... .. 9 ... ... ... : ... .. . ... : ... .. 9 ... : ... .. . ... ...
ROW FD : ... .. 8 ... ... ... : ... .. 8 ... ... ... : ... .. . ... : ... .. 5 ... : ... .. . ... ...
ROW FE : ... .. 7 ... ... ... : ... .. 7 ... ... ... : ... .. . ... : ... .. 1 ... : ... .. . ... ...
ROW FF : ... .. 6 ... ... ... : ... .. 6 ... ... ... : ... .. . ... : ... .. 0 ... : ... .. . ... ...

PATTERN 0C
ROW 00 : B-3 00 B P80 ... ... : B-4 00 B P82 ... ... : G-3 00 . ... : D-# 00 6 ... : ... .. . ... ...
ROW 01 : ... .. A ... ... ... : ... .. A ... ... ... : ... .. . ... : ... .. . ... : ... .. . ... ...
ROW 02 : ... .. 9 ... ... ... : ... .. 9 ... ... ... : ... .. . ... : ... .. . ... : ... .. . ... ...
ROW 03 : ... .. 8 ... ... ... : ... .. 8 ... ... ... : ... .. . ... : ... .. . ... : ... .. . ... ...
ROW 04 : ... .. 7 ... ... ... : ... .. 7 ... ... ... : ... .. . ... : ... .. . ... : ... .. . ... ...
ROW 05 : ... .. 6 ... ... ... : ... .. 6 ... ... ... : ... .. . ... : ... .. 0 ... : ... .. . ... ...
ROW 06 : ... .. 1 ... ... ... : ... .. 5 ... ... ... : ... .. . ... : ... .. . ... : ... .. . ... ...
ROW 07 : ... .. . ... ... ... : ... .. 4 ... ... ... : ... .. . ... : ... .. . ... : ... .. . ... ...
ROW 08 : ... .. . ... ... ... : ... .. 3 ... ... ... : ... .. . ... : ... .. . ... : ... .. . ... ...
ROW 09 : ... .. . ... ... ... : ... .. 2 ... ... ... : --- .. . ... : ... .. . ... : ... .. . ... ...
ROW 0A : ... .. . ... ... ... : ... .. 1 ... ... ... : ... .. . ... : ... .. . ... : ... .. . ... ...
ROW 0B : ... .. . ... ... ... : ... .. . ... ... ... : ... .. . ... : ... .. . ... : ... .. . ... ...
ROW 0C : A#3 00 B P81 ... ... : ... .. . ... ... ... : ... .. . ... : ... .. . ... : ... .. . ... ...
ROW 0D : ... .. A ... ... ... : ... .. . ... ... ... : ... .. . ... : ... .. . ... : ... .. . ... ...
ROW 0E : ... .. 9 ... ... ... : ... .. . ... ... ... : ... .. . ... : ... .. . ... : ... .. . ... ...
ROW 0F : ... .. 8 ... ... ... : ... .. . ... ... ... : ... .. . ... : ... .. . ... : ... .. . ... ...
ROW 10 : ... .. 7 ... ... ... : ... .. . ... ... ... : ... .. . ... : ... .. . ... : ... .. . ... ...
ROW 11 : ... .. 6 ... ... ... : ... .. . ... ... ... : ... .. . ... : ... .. . ... : ... .. . ... ...
ROW 12 : B-3 00 B P80 ... ... : ... .. . ... ... ... : F-3 00 . ... : 6-# 00 F ... : ... .. . ... ...
ROW 13 : ... .. A ... ... ... : ... .. . ... ... ... : ... .. . ... : ... .. D ... : ... .. . ... ...
ROW 14 : ... .. 9 ... ... ... : ... .. . ... ... ... : ... .. . ... : ... .. 9 ... : ... .. . ... ...
ROW 15 : ... .. 8 ... ... ... : ... .. . ... ... ... : ... .. . ... : ... .. 5 ... : ... .. . ... ...
ROW 16 : ... .. 7 ... ... ... : ... .. . ... ... ... : ... .. . ... : ... .. 1 ... : ... .. . ... ...
ROW 17 : ... .. 6 ... ... ... : ... .. . ... ... ... : ... .. . ... : ... .. 0 ... : ... .. . ... ...
ROW 18 : G#3 00 B P80 ... ... : G#4 00 B P82 ... ... : C#3 00 . ... : D-# 00 6 ... : ... .. . ... ...
ROW 19 : ... .. A ... ... ... : ... .. A ... ... ... : ... .. . ... : ... .. . ... : ... .. . ... ...
ROW 1A : ... .. 9 ... ... ... : ... .. 9 ... ... ... : ... .. . ... : ... .. . ... : ... .. . ... ...
ROW 1B : ... .. 8 ... ... ... : ... .. 8 ... ... ... : ... .. . ... : ... .. . ... : ... .. . ... ...
ROW 1C : ... .. 7 ... ... ... : ... .. 7 ... ... ... : ... .. . ... : ... .. . ... : ... .. . ... ...
ROW 1D : ... .. 6 ... ... ... : ... .. 6 ... ... ... : ... .. . ... : ... .. 0 ... : ... .. . ... ...
ROW 1E : ... .. 1 ... ... ... : ... .. 5 ... ... ... : ... .. . ... : ... .. . ... : ... .. . ... ...
ROW 1F : ... .. . ... ... ... : ... .. 4 ... ... ... : ... .. . ... : ... .. . ... : ... .. . ... ...
ROW 20 : ... .. . ... ... ... : ... .. 3 ... ... ... : ... .. . ... : ... .. . ... : ... .. . ... ...
ROW 21 : ... .. . ... ... ... : ... .. 2 ... ... ... : --- .. . ... : ... .. . ... : ... .. . ... ...
ROW 22 : ... .. . ... ... ... : ... .. 1 ... ... ... : ... .. . ... : ... .. . ... : ... .. . ... ...
ROW 23 : ... .. . ... ... ... : ... .. . ... ... ... : ... .. . ... : ... .. . ... : ... .. . ... ...
ROW 24 : G#3 00 B P80 ... ... : ... .. . ... ... ... : ... .. . ... : ... .. . ... : ... .. . ... ...
ROW 25 : ... .. A ... ... ... : ... .. . ... ... ... : ... .. . ... : ... .. . ... : ... .. . ... ...
ROW 26 : ... .. 9 ... ... ... : ... .. . ... ... ... : ... .. . ... : ... .. . ... : ... .. . ... ...
ROW 27 : ... .. 8 ... ... ... : ... .. . ... ... ... : ... .. . ... : ... .. . ... : ... .. . ... ...
ROW 28 : ... .. 7 ... ... ... : ... .. . ... ... ... : ... .. . ... : ... .. . ... : ... .. . ... ...
ROW 29 : ... .. 6 ... ... ... : ... .. . ... ... ... : ... .. . ... : ... .. . ... : ... .. . ... ...
ROW 2A : G#3 00 B P80 ... ... : ... .. . ... ... ... : B-2 00 . ... : 6-# 00 F ... : ... .. . ... ...
ROW 2B : ... .. A ... ... ... : ... .. . ... ... ... : ... .. . ... : ... .. D ... : ... .. . ... ...
ROW 2C : ... .. 9 ... ... ... : ... .. . ... ... ... : ... .. . ... : ... .. 9 ... : ... .. . ... ...
ROW 2D : ... .. 8 ... ... ... : ... .. . ... ... ... : ... .. . ... : ... .. 5 ... : ... .. . ... ...
ROW 2E : ... .. 7 ... ... ... : ... .. . ... ... ... : ... .. . ... : ... .. 1 ... : ... .. . ... ...
ROW 2F : ... .. 6 ... ... ... : ... .. . ... ... ... : ... .. . ... : ... .. 0 ... : ... .. . ... ...
ROW 30 : G#3 00 B P80 ... ... : G#4 00 B P83 ... ... : C#3 00 . ... : D-# 00 6 ... : ... .. . ... ...
ROW 31 : ... .. A ... ... ... : ... .. A ... ... ... : ... .. . ... : ... .. . ... : ... .. . ... ...
ROW 32 : ... .. 9 ... ... ... : ... .. 9 ... ... ... : ... .. . ... : ... .. . ... : ... .. . ... ...
ROW 33 : ... .. 8 ... ... ... : ... .. 8 ... ... ... : ... .. . ... : ... .. . ... : ... .. . ... ...
ROW 34 : ... .. 7 ... ... ... : ... .. 7 ... ... ... : ... .. . ... : ... .. . ... : ... .. . ... ...
ROW 35 : ... .. 6 ... ... ... : ... .. 6 ... ... ... : ... .. . ... : ... .. 0 ... : ... .. . ... ...
ROW 36 : ... .. 1 ... ... ... : ... .. 5 ... ... ... : ... .. . ... : ... .. . ... : ... .. . ... ...
ROW 37 : ... .. . ... ... ... : ... .. 4 ... ... ... : ... .. . ... : ... .. . ... : ... .. . ... ...
ROW 38 : ... .. . ... ... ... : ... .. 3 ... ... ... : ... .. . ... : ... .. . ... : ... .. . ... ...
ROW 39 : ... .. . ... ... ... : ... .. 2 ... ... ... : --- .. . ... : ... .. . ... : ... .. . ... ...
ROW 3A : ... .. . ... ... ... : ... .. 1 ... ... ... : ... .. . ... : ... .. . ... : ... .. . ... ...
ROW 3B : ... .. . ... ... ... : ... .. . ... ... ... : ... .. . ... : ... .. . ... : ... .. . ... ...
ROW 3C : G-3 00 B P80 ... ... : ... .. . ... ... ... : ... .. . ... : ... .. . ... : ... .. . ... ...
ROW 3D : ... .. A ... ... ... : ... .. . ... ... ... : ... .. . ... : ... .. . ... : ... .. . ... ...
ROW 3E : ... .. 9 ... ... ... : ... .. . ... ... ... : ... .. . ... : ... .. . ... : ... .. . ... ...
ROW 3F : ... .. 8 ... ... ... : ... .. . ... ... ... : ... .. . ... : ... .. . ... : ... .. . ... ...
ROW 40 : ... .. 7 ... ... ... : ... .. . ... ... ... : ... .. . ... : ... .. . ... : ... .. . ... ...
ROW 41 : ... .. 6 ... ... ... : ... .. . ... ... ... : ... .. . ... : ... .. . ... : ... .. . ... ...
ROW 42 : G#3 00 B P80 ... ... : ... .. . ... ... ... : B-2 00 . ... : 6-# 00 F ... : ... .. . ... ...
ROW 43 : ... .. A ... ... ... : ... .. . ... ... ... : ... .. . ... : ... .. D ... : ... .. . ... ...
ROW 44 : ... .. 9 ... ... ... : ... .. . ... ... ... : ... .. . ... : ... .. 9 ... : ... .. . ... ...
ROW 45 : ... .. 8 ... ... ... : ... .. . ... ... ... : ... .. . ... : ... .. 5 ... : ... .. . ... ...
ROW 46 : ... .. 7 ... ... ... : ... .. . ... ... ... : ... .. . ... : ... .. 1 ... : ... .. . ... ...
ROW 47 : ... .. 6 ... ... ... : ... .. . ... ... ... : ... .. . ... : ... .. 0 ... : ... .. . ... ...
ROW 48 : G-3 00 B P80 ... ... : G-4 00 B P83 ... ... : G#2 00 . P7F : D-# 00 6 ... : ... .. . ... ...
ROW 49 : ... .. A ... ... ... : ... .. A ... ... ... : ... .. . ... : ... .. . ... : ... .. . ... ...
ROW 4A : ... .. 9 ... ... ... : ... .. 9 ... ... ... : ... .. . ... : ... .. . ... : ... .. . ... ...
ROW 4B : ... .. 8 ... ... ... : ... .. 8 ... ... ... : ... .. . ... : ... .. . ... : ... .. . ... ...
ROW 4C : ... .. 7 ... ... ... : ... .. 7 ... ... ... : ... .. . ... : ... .. . ... : ... .. . ... ...
ROW 4D : ... .. 6 ... ... ... : ... .. 6 ... ... ... : ... .. . ... : ... .. 0 ... : ... .. . ... ...
ROW 4E : ... .. 1 ... ... ... : ... .. 1 ... ... ... : ... .. . ... : ... .. . ... : ... .. . ... ...
ROW 4F : ... .. . ... ... ... : ... .. . ... ... ... : ... .. . ... : ... .. . ... : ... .. . ... ...
ROW 50 : ... .. . ... ... ... : ... .. . ... ... ... : ... .. . ... : ... .. . ... : ... .. . ... ...
ROW 51 : ... .. . ... ... ... : ... .. . ... ... ... : --- .. . ... : ... .. . ... : ... .. . ... ...
ROW 52 : ... .. . ... ... ... : ... .. . ... ... ... : ... .. . ... : ... .. . ... : ... .. . ... ...
ROW 53 : ... .. . ... ... ... : ... .. . ... ... ... : ... .. . ... : ... .. . ... : ... .. . ... ...
ROW 54 : C#3 00 B P80 ... ... : C#4 00 B P82 ... ... : ... .. . ... : ... .. . ... : ... .. . ... ...
ROW 55 : ... .. A ... ... ... : ... .. A ... ... ... : ... .. . ... : ... .. . ... : ... .. . ... ...
ROW 56 : ... .. 9 ... ... ... : ... .. 9 ... ... ... : ... .. . ... : ... .. . ... : ... .. . ... ...
ROW 57 : ... .. 8 ... ... ... : ... .. 8 ... ... ... : ... .. . ... : ... .. . ... : ... .. . ... ...
ROW 58 : ... .. 7 ... ... ... : ... .. 7 ... ... ... : ... .. . ... : ... .. . ... : ... .. . ... ...
ROW 59 : ... .. 6 ... ... ... : ... .. 6 ... ... ... : ... .. . ... : ... .. . ... : ... .. . ... ...
ROW 5A : B-2 00 B P80 ... ... : B-3 00 B P82 ... ... : G-2 00 . P80 : 6-# 00 F ... : ... .. . ... ...
ROW 5B : ... .. A ... ... ... : ... .. A ... ... ... : ... .. . ... : ... .. D ... : ... .. . ... ...
ROW 5C : ... .. 9 ... ... ... : ... .. 9 ... ... ... : ... .. . ... : ... .. 9 ... : ... .. . ... ...
ROW 5D : ... .. 8 ... ... ... : ... .. 8 ... ... ... : ... .. . ... : ... .. 5 ... : ... .. . ... ...
ROW 5E : ... .. 7 ... ... ... : ... .. 7 ... ... ... : ... .. . ... : ... .. 1 ... : ... .. . ... ...
ROW 5F : ... .. 6 ... ... ... : ... .. 6 ... ... ... : ... .. . ... : ... .. 0 ... : ... .. . ... ...
ROW 60 : C-4 00 8 P81 V02 ... : G-4 00 8 P83 V02 ... : C-3 00 . ... : F-# 00 0 ... : ... .. . ... ...
ROW 61 : ... .. . ... ... ... : ... .. . ... ... ... : ... .. . ... : ... .. . ... : ... .. . ... ...
ROW 62 : ... .. 7 ... ... ... : ... .. 7 ... ... ... : ... .. . ... : ... .. . ... : ... .. . ... ...
ROW 63 : ... .. . ... ... ... : ... .. . ... ... ... : ... .. . ... : ... .. . ... : ... .. . ... ...
ROW 64 : ... .. . ... ... ... : ... .. . ... ... ... : ... .. . ... : ... .. . ... : ... .. . ... ...
ROW 65 : ... .. . ... ... ... : ... .. . ... ... ... : ... .. . ... : ... .. . ... : ... .. . ... ...
ROW 66 : ... .. 0 ... ... ... : ... .. 0 ... ... ... : ... .. . ... : ... .. . ... : ... .. . ... ...
ROW 67 : ... .. . ... ... ... : ... .. . ... ... ... : ... .. . ... : ... .. . ... : ... .. . ... ...
ROW 68 : ... .. . ... ... ... : ... .. . ... ... ... : ... .. . ... : ... .. . ... : ... .. . ... ...
ROW 69 : ... .. . ... ... ... : ... .. . ... ... ... : --- .. . ... : ... .. . ... : ... .. . ... ...
ROW 6A : ... .. . ... ... ... : ... .. . ... ... ... : ... .. . ... : ... .. . ... : ... .. . ... ...
ROW 6B : ... .. . ... ... ... : ... .. . ... ... ... : ... .. . ... : ... .. . ... : ... .. . ... ...
ROW 6C : D#3 00 8 P80 ... ... : C-4 00 8 P81 ... ... : ... .. . ... : ... .. . ... : ... .. . ... ...
ROW 6D : ... .. . ... ... ... : ... .. . ... ... ... : ... .. . ... : ... .. . ... : ... .. . ... ...
ROW 6E : ... .. 7 ... ... ... : ... .. 7 ... ... ... : ... .. . ... : ... .. . ... : ... .. . ... ...
ROW 6F : ... .. . ... ... ... : ... .. . ... ... ... : ... .. . ... : ... .. . ... : ... .. . ... ...
ROW 70 : ... .. . ... ... ... : ... .. . ... ... ... : ... .. . ... : ... .. . ... : ... .. . ... ...
ROW 71 : ... .. . ... ... ... : ... .. . ... ... ... : ... .. . ... : ... .. . ... : ... .. . ... ...
ROW 72 : G-3 00 8 P80 ... ... : D#4 00 8 P81 ... ... : G-3 00 . ... : C-# 00 E ... : ... .. . ... ...
ROW 73 : ... .. . ... ... ... : ... .. . ... ... ... : ... .. . ... : ... .. 0 ... : ... .. . ... ...
ROW 74 : ... .. 7 ... ... ... : ... .. 7 ... ... ... : ... .. . ... : ... .. . ... : ... .. . ... ...
ROW 75 : ... .. . ... ... ... : ... .. . ... ... ... : ... .. . ... : ... .. . ... : ... .. . ... ...
ROW 76 : ... .. . ... ... ... : ... .. . ... ... ... : ... .. . ... : ... .. . ... : ... .. . ... ...
ROW 77 : ... .. . ... ... ... : ... .. . ... ... ... : ... .. . ... : ... .. . ... : ... .. . ... ...
ROW 78 : ... .. 6 ... ... ... : ... .. 6 ... ... ... : C-3 00 . ... : F-# 00 0 ... : ... .. . ... ...
ROW 79 : ... .. . ... ... ... : ... .. . ... ... ... : ... .. . ... : ... .. . ... : ... .. . ... ...
ROW 7A : ... .. . ... ... ... : ... .. . ... ... ... : ... .. . ... : ... .. . ... : ... .. . ... ...
ROW 7B : ... .. . ... ... ... : ... .. . ... ... ... : ... .. . ... : ... .. . ... : ... .. . ... ...
ROW 7C : ... .. . ... ... ... : ... .. . ... ... ... : ... .. . ... : ... .. . ... : ... .. . ... ...
ROW 7D : ... .. . ... ... ... : ... .. . ... ... ... : ... .. . ... : ... .. . ... : ... .. . ... ...
ROW 7E : ... .. . ... ... ... : ... .. . ... ... ... : ... .. . ... : ... .. . ... : ... .. . ... ...
ROW 7F : ... .. . ... ... ... : ... .. . ... ... ... : ... .. . ... : ... .. . ... : ... .. . ... ...
ROW 80 : ... .. . ... ... ... : ... .. . ... ... ... : ... .. . ... : ... .. . ... : ... .. . ... ...
ROW 81 : ... .. . ... ... ... : ... .. . ... ... ... : --- .. . ... : ... .. . ... : ... .. . ... ...
ROW 82 : ... .. . ... ... ... : ... .. . ... ... ... : ... .. . ... : ... .. . ... : ... .. . ... ...
ROW 83 : ... .. . ... ... ... : ... .. . ... ... ... : ... .. . ... : ... .. . ... : ... .. . ... ...
ROW 84 : D#3 00 8 P80 ... ... : C-4 00 8 P81 ... ... : ... .. . ... : ... .. . ... : ... .. . ... ...
ROW 85 : ... .. . ... ... ... : ... .. . ... ... ... : ... .. . ... : ... .. . ... : ... .. . ... ...
ROW 86 : ... .. 7 ... ... ... : ... .. 7 ... ... ... : ... .. . ... : ... .. . ... : ... .. . ... ...
ROW 87 : ... .. . ... ... ... : ... .. . ... ... ... : ... .. . ... : ... .. . ... : ... .. . ... ...
ROW 88 : ... .. . ... ... ... : ... .. . ... ... ... : ... .. . ... : ... .. . ... : ... .. . ... ...
ROW 89 : ... .. . ... ... ... : ... .. . ... ... ... : ... .. . ... : ... .. . ... : ... .. . ... ...
ROW 8A : G-3 00 8 P80 ... ... : D#4 00 8 P81 ... ... : G-3 00 . ... : C-# 00 E ... : ... .. . ... ...
ROW 8B : ... .. . ... ... ... : ... .. . ... ... ... : ... .. . ... : ... .. 0 ... : ... .. . ... ...
ROW 8C : ... .. 7 ... ... ... : ... .. 7 ... ... ... : ... .. . ... : ... .. . ... : ... .. . ... ...
ROW 8D : ... .. . ... ... ... : ... .. . ... ... ... : ... .. . ... : ... .. . ... : ... .. . ... ...
ROW 8E : ... .. . ... ... ... : ... .. . ... ... ... : ... .. . ... : ... .. . ... : ... .. . ... ...
ROW 8F : ... .. . ... ... ... : ... .. . ... ... ... : ... .. . ... : ... .. . ... : ... .. . ... ...
ROW 90 : D-3 00 8 P80 ... ... : B-3 00 8 P80 ... ... : B-2 00 . ... : F-# 00 0 ... : ... .. . ... ...
ROW 91 : ... .. . ... ... ... : ... .. . ... ... ... : ... .. . ... : ... .. . ... : ... .. . ... ...
ROW 92 : ... .. 7 ... ... ... : ... .. 7 ... ... ... : ... .. . ... : ... .. . ... : ... .. . ... ...
ROW 93 : ... .. . ... ... ... : ... .. . ... ... ... : ... .. . ... : ... .. . ... : ... .. . ... ...
ROW 94 : ... .. . ... ... ... : ... .. . ... ... ... : ... .. . ... : ... .. . ... : ... .. . ... ...
ROW 95 : ... .. . ... ... ... : ... .. . ... ... ... : ... .. . ... : ... .. . ... : ... .. . ... ...
ROW 96 : G-3 00 8 P80 ... ... : D-4 00 8 P81 ... ... : ... .. . ... : ... .. . ... : ... .. . ... ...
ROW 97 : ... .. . ... ... ... : ... .. . ... ... ... : ... .. . ... : ... .. . ... : ... .. . ... ...
ROW 98 : ... .. 7 ... ... ... : ... .. 7 ... ... ... : ... .. . ... : ... .. . ... : ... .. . ... ...
ROW 99 : ... .. . ... ... ... : ... .. . ... ... ... : --- .. . ... : ... .. . ... : ... .. . ... ...
ROW 9A : ... .. . ... ... ... : ... .. . ... ... ... : ... .. . ... : ... .. . ... : ... .. . ... ...
ROW 9B : ... .. . ... ... ... : ... .. . ... ... ... : ... .. . ... : ... .. . ... : ... .. . ... ...
ROW 9C : B-3 00 8 P80 ... ... : G-4 00 8 P81 ... ... : ... .. . ... : ... .. . ... : ... .. . ... ...
ROW 9D : ... .. . ... ... ... : ... .. . ... ... ... : ... .. . ... : ... .. . ... : ... .. . ... ...
ROW 9E : ... .. 7 ... ... ... : ... .. 7 ... ... ... : ... .. . ... : ... .. . ... : ... .. . ... ...
ROW 9F : ... .. . ... ... ... : ... .. . ... ... ... : ... .. . ... : ... .. . ... : ... .. . ... ...
ROW A0 : ... .. . ... ... ... : ... .. . ... ... ... : ... .. . ... : ... .. . ... : ... .. . ... ...
ROW A1 : ... .. . ... ... ... : ... .. . ... ... ... : ... .. . ... : ... .. . ... : ... .. . ... ...
ROW A2 : D-4 00 8 P81 ... ... : B-4 00 8 P80 ... ... : G-3 00 . ... : C-# 00 E ... : ... .. . ... ...
ROW A3 : ... .. . ... ... ... : ... .. . ... ... ... : ... .. . ... : ... .. 0 ... : ... .. . ... ...
ROW A4 : ... .. 7 ... ... ... : ... .. 7 ... ... ... : ... .. . ... : ... .. . ... : ... .. . ... ...
ROW A5 : ... .. . ... ... ... : ... .. . ... ... ... : ... .. . ... : ... .. . ... : ... .. . ... ...
ROW A6 : ... .. . ... ... ... : ... .. . ... ... ... : ... .. . ... : ... .. . ... : ... .. . ... ...
ROW A7 : ... .. . ... ... ... : ... .. . ... ... ... : ... .. . ... : ... .. . ... : ... .. . ... ...
ROW A8 : ... .. 6 ... ... ... : ... .. 6 ... ... ... : B-2 00 . ... : ... .. E ... : ... .. . ... ...
ROW A9 : ... .. . ... ... ... : ... .. . ... ... ... : ... .. . ... : ... .. 0 ... : ... .. . ... ...
ROW AA : ... .. . ... ... ... : ... .. . ... ... ... : ... .. . ... : ... .. . ... : ... .. . ... ...
ROW AB : ... .. . ... ... ... : ... .. . ... ... ... : ... .. . ... : ... .. . ... : ... .. . ... ...
ROW AC : ... .. . ... ... ... : ... .. . ... ... ... : ... .. . ... : ... .. . ... : ... .. . ... ...
ROW AD : ... .. . ... ... ... : ... .. . ... ... ... : ... .. . ... : ... .. . ... : ... .. . ... ...
ROW AE : ... .. . ... ... ... : ... .. . ... ... ... : ... .. . ... : ... .. E ... : ... .. . ... ...
ROW AF : ... .. . ... ... ... : ... .. . ... ... ... : ... .. . ... : ... .. 0 ... : ... .. . ... ...
ROW B0 : ... .. . ... ... ... : ... .. . ... ... ... : ... .. . ... : ... .. . ... : ... .. . ... ...
ROW B1 : ... .. . ... ... ... : ... .. . ... ... ... : --- .. . ... : ... .. . ... : ... .. . ... ...
ROW B2 : ... .. . ... ... ... : ... .. . ... ... ... : ... .. . ... : ... .. . ... : ... .. . ... ...
ROW B3 : ... .. . ... ... ... : ... .. . ... ... ... : ... .. . ... : ... .. . ... : ... .. . ... ...
ROW B4 : ... .. . ... ... ... : ... .. . ... ... ... : ... .. . ... : ... .. E ... : ... .. . ... ...
ROW B5 : ... .. . ... ... ... : ... .. . ... ... ... : ... .. . ... : ... .. 0 ... : ... .. . ... ...
ROW B6 : ... .. . ... ... ... : ... .. . ... ... ... : ... .. . ... : ... .. . ... : ... .. . ... ...
ROW B7 : ... .. . ... ... ... : ... .. . ... ... ... : ... .. . ... : ... .. . ... : ... .. . ... ...
ROW B8 : ... .. . ... ... ... : ... .. . ... ... ... : ... .. . ... : ... .. . ... : ... .. . ... ...
ROW B9 : ... .. . ... ... ... : ... .. . ... ... ... : ... .. . ... : ... .. . ... : ... .. . ... ...
ROW BA : ... .. . ... ... ... : ... .. . ... ... ... : G-3 00 . ... : ... .. E ... : ... .. . ... ...
ROW BB : ... .. . ... ... ... : ... .. . ... ... ... : ... .. . ... : ... .. 0 ... : ... .. . ... ...
ROW BC : ... .. . ... ... ... : ... .. . ... ... ... : ... .. . ... : ... .. . ... : ... .. . ... ...
ROW BD : ... .. . ... ... ... : ... .. . ... ... ... : ... .. . ... : ... .. . ... : ... .. . ... ...
ROW BE : ... .. . ... ... ... : ... .. . ... ... ... : ... .. . ... : ... .. . ... : ... .. . ... ...
ROW BF : ... .. . ... ... ... : ... .. . ... ... ... : ... .. . ... : ... .. . ... : ... .. . ... ...
ROW C0 : A#3 00 8 P81 ... ... : G-4 00 8 P81 ... ... : A#2 00 . ... : F-# 00 0 ... : ... .. . ... ...
ROW C1 : ... .. . ... ... ... : ... .. . ... ... ... : ... .. . ... : ... .. . ... : ... .. . ... ...
ROW C2 : ... .. 7 ... ... ... : ... .. 7 ... ... ... : ... .. . ... : ... .. . ... : ... .. . ... ...
ROW C3 : ... .. . ... ... ... : ... .. . ... ... ... : ... .. . ... : ... .. . ... : ... .. . ... ...
ROW C4 : ... .. . ... ... ... : ... .. . ... ... ... : ... .. . ... : ... .. . ... : ... .. . ... ...
ROW C5 : ... .. . ... ... ... : ... .. . ... ... ... : ... .. . ... : ... .. . ... : ... .. . ... ...
ROW C6 : ... .. 0 ... ... ... : ... .. 0 ... ... ... : ... .. . ... : ... .. . ... : ... .. . ... ...
ROW C7 : ... .. . ... ... ... : ... .. . ... ... ... : ... .. . ... : ... .. . ... : ... .. . ... ...
ROW C8 : ... .. . ... ... ... : ... .. . ... ... ... : ... .. . ... : ... .. . ... : ... .. . ... ...
ROW C9 : ... .. . ... ... ... : ... .. . ... ... ... : --- .. . ... : ... .. . ... : ... .. . ... ...
ROW CA : ... .. . ... ... ... : ... .. . ... ... ... : ... .. . ... : ... .. . ... : ... .. . ... ...
ROW CB : ... .. . ... ... ... : ... .. . ... ... ... : ... .. . ... : ... .. . ... : ... .. . ... ...
ROW CC : C#3 00 8 P80 ... ... : A#3 00 8 P81 ... ... : ... .. . ... : ... .. . ... : ... .. . ... ...
ROW CD : ... .. . ... ... ... : ... .. . ... ... ... : ... .. . ... : ... .. . ... : ... .. . ... ...
ROW CE : ... .. 7 ... ... ... : ... .. 7 ... ... ... : ... .. . ... : ... .. . ... : ... .. . ... ...
ROW CF : ... .. . ... ... ... : ... .. . ... ... ... : ... .. . ... : ... .. . ... : ... .. . ... ...
ROW D0 : ... .. . ... ... ... : ... .. . ... ... ... : ... .. . ... : ... .. . ... : ... .. . ... ...
ROW D1 : ... .. . ... ... ... : ... .. . ... ... ... : ... .. . ... : ... .. . ... : ... .. . ... ...
ROW D2 : G-3 00 8 P80 ... ... : C#4 00 8 P80 ... ... : G-3 00 . ... : C-# 00 E ... : ... .. . ... ...
ROW D3 : ... .. . ... ... ... : ... .. . ... ... ... : ... .. . ... : ... .. 0 ... : ... .. . ... ...
ROW D4 : ... .. 7 ... ... ... : ... .. 7 ... ... ... : ... .. . ... : ... .. . ... : ... .. . ... ...
ROW D5 : ... .. . ... ... ... : ... .. . ... ... ... : ... .. . ... : ... .. . ... : ... .. . ... ...
ROW D6 : ... .. . ... ... ... : ... .. . ... ... ... : ... .. . ... : ... .. . ... : ... .. . ... ...
ROW D7 : ... .. . ... ... ... : ... .. . ... ... ... : ... .. . ... : ... .. . ... : ... .. . ... ...
ROW D8 : ... .. 6 ... ... ... : ... .. 6 ... ... ... : A#2 00 . ... : F-# 00 0 ... : ... .. . ... ...
ROW D9 : ... .. . ... ... ... : ... .. . ... ... ... : ... .. . ... : ... .. . ... : ... .. . ... ...
ROW DA : ... .. . ... ... ... : ... .. . ... ... ... : ... .. . ... : ... .. . ... : ... .. . ... ...
ROW DB : ... .. . ... ... ... : ... .. . ... ... ... : ... .. . ... : ... .. . ... : ... .. . ... ...
ROW DC : ... .. . ... ... ... : ... .. . ... ... ... : ... .. . ... : ... .. . ... : ... .. . ... ...
ROW DD : ... .. . ... ... ... : ... .. . ... ... ... : ... .. . ... : ... .. . ... : ... .. . ... ...
ROW DE : ... .. . ... ... ... : ... .. . ... ... ... : ... .. . ... : ... .. . ... : ... .. . ... ...
ROW DF : ... .. . ... ... ... : ... .. . ... ... ... : ... .. . ... : ... .. . ... : ... .. . ... ...
ROW E0 : ... .. . ... ... ... : ... .. . ... ... ... : ... .. . ... : ... .. . ... : ... .. . ... ...
ROW E1 : ... .. . ... ... ... : ... .. . ... ... ... : --- .. . ... : ... .. . ... : ... .. . ... ...
ROW E2 : ... .. . ... ... ... : ... .. . ... ... ... : ... .. . ... : ... .. . ... : ... .. . ... ...
ROW E3 : ... .. . ... ... ... : ... .. . ... ... ... : ... .. . ... : ... .. . ... : ... .. . ... ...
ROW E4 : C#3 00 8 P80 ... ... : A#3 00 8 P81 ... ... : ... .. . ... : ... .. . ... : ... .. . ... ...
ROW E5 : ... .. . ... ... ... : ... .. . ... ... ... : ... .. . ... : ... .. . ... : ... .. . ... ...
ROW E6 : ... .. 7 ... ... ... : ... .. 7 ... ... ... : ... .. . ... : ... .. . ... : ... .. . ... ...
ROW E7 : ... .. . ... ... ... : ... .. . ... ... ... : ... .. . ... : ... .. . ... : ... .. . ... ...
ROW E8 : ... .. . ... ... ... : ... .. . ... ... ... : ... .. . ... : ... .. . ... : ... .. . ... ...
ROW E9 : ... .. . ... ... ... : ... .. . ... ... ... : ... .. . ... : ... .. . ... : ... .. . ... ...
ROW EA : G-3 00 8 P80 ... ... : C#4 00 8 P80 ... ... : G-3 00 . ... : C-# 00 E ... : ... .. . ... ...
ROW EB : ... .. . ... ... ... : ... .. . ... ... ... : ... .. . ... : ... .. 0 ... : ... .. . ... ...
ROW EC : ... .. 7 ... ... ... : ... .. 7 ... ... ... : ... .. . ... : ... .. . ... : ... .. . ... ...
ROW ED : ... .. . ... ... ... : ... .. . ... ... ... : ... .. . ... : ... .. . ... : ... .. . ... ...
ROW EE : ... .. . ... ... ... : ... .. . ... ... ... : ... .. . ... : ... .. . ... : ... .. . ... ...
ROW EF : ... .. . ... ... ... : ... .. . ... ... ... : ... .. . ... : ... .. . ... : ... .. . ... ...
ROW F0 : D#3 00 8 P80 ... ... : C#4 00 8 P81 ... ... : G#2 00 . P7F : F-# 00 0 ... : ... .. . ... ...
ROW F1 : ... .. . ... ... ... : ... .. . ... ... ... : ... .. . ... : ... .. . ... : ... .. . ... ...
ROW F2 : ... .. 7 ... ... ... : ... .. 7 ... ... ... : ... .. . ... : ... .. . ... : ... .. . ... ...
ROW F3 : ... .. . ... ... ... : ... .. . ... ... ... : ... .. . ... : ... .. . ... : ... .. . ... ...
ROW F4 : ... .. . ... ... ... : ... .. . ... ... ... : ... .. . ... : ... .. . ... : ... .. . ... ...
ROW F5 : ... .. . ... ... ... : ... .. . ... ... ... : ... .. . ... : ... .. . ... : ... .. . ... ...
ROW F6 : G#3 00 8 P80 ... ... : D#4 00 8 P81 ... ... : ... .. . ... : ... .. . ... : ... .. . ... ...
ROW F7 : ... .. . ... ... ... : ... .. . ... ... ... : ... .. . ... : ... .. . ... : ... .. . ... ...
ROW F8 : ... .. 7 ... ... ... : ... .. 7 ... ... ... : ... .. . ... : ... .. . ... : ... .. . ... ...
ROW F9 : ... .. . ... ... ... : ... .. . ... ... ... : --- .. . ... : ... .. . ... : ... .. . ... ...
ROW FA : ... .. . ... ... ... : ... .. . ... ... ... : ... .. . ... : ... .. . ... : ... .. . ... ...
ROW FB : ... .. . ... ... ... : ... .. . ... ... ... : ... .. . ... : ... .. . ... : ... .. . ... ...
ROW FC : C#4 00 8 P81 ... ... : G-4 00 8 P81 ... ... : ... .. . ... : ... .. . ... : ... .. . ... ...
ROW FD : ... .. . ... ... ... : ... .. . ... ... ... : ... .. . ... : ... .. . ... : ... .. . ... ...
ROW FE : ... .. 7 ... ... ... : ... .. 7 ... ... ... : ... .. . ... : ... .. . ... : ... .. . ... ...
ROW FF : ... .. . ... ... ... : ... .. . ... ... ... : ... .. . ... : ... .. . ... : ... .. . ... ...

PATTERN 0D
ROW 00 : ... .. . ... ... ... : ... .. . ... ... ... : ... .. . ... : ... .. . ... : ... .. . ... ...
ROW 01 : ... .. . ... ... ... : ... .. . ... ... ... : ... .. . ... : ... .. . ... : ... .. . ... ...
ROW 02 : D#4 00 8 P81 ... ... : B-4 00 8 P80 ... ... : G-3 00 . P80 : C-# 00 E ... : ... .. . ... ...
ROW 03 : ... .. . ... ... ... : ... .. . ... ... ... : ... .. . ... : ... .. 0 ... : ... .. . ... ...
ROW 04 : ... .. 7 ... ... ... : ... .. 7 ... ... ... : ... .. . ... : ... .. . ... : ... .. . ... ...
ROW 05 : ... .. . ... ... ... : ... .. . ... ... ... : ... .. . ... : ... .. . ... : ... .. . ... ...
ROW 06 : ... .. . ... ... ... : ... .. . ... ... ... : ... .. . ... : ... .. . ... : ... .. . ... ...
ROW 07 : ... .. . ... ... ... : ... .. . ... ... ... : ... .. . ... : ... .. . ... : ... .. . ... ...
ROW 08 : ... .. 6 ... ... ... : ... .. 6 ... ... ... : G#2 00 . P7F : ... .. E ... : ... .. . ... ...
ROW 09 : ... .. . ... ... ... : ... .. . ... ... ... : ... .. . ... : ... .. 0 ... : ... .. . ... ...
ROW 0A : ... .. . ... ... ... : ... .. . ... ... ... : ... .. . ... : ... .. . ... : ... .. . ... ...
ROW 0B : ... .. . ... ... ... : ... .. . ... ... ... : ... .. . ... : ... .. . ... : ... .. . ... ...
ROW 0C : ... .. . ... ... ... : ... .. . ... ... ... : ... .. . ... : ... .. . ... : ... .. . ... ...
ROW 0D : ... .. . ... ... ... : ... .. . ... ... ... : ... .. . ... : ... .. . ... : ... .. . ... ...
ROW 0E : ... .. . ... ... ... : ... .. . ... ... ... : ... .. . ... : ... .. E ... : ... .. . ... ...
ROW 0F : ... .. . ... ... ... : ... .. . ... ... ... : ... .. . ... : ... .. 0 ... : ... .. . ... ...
ROW 10 : ... .. . ... ... ... : ... .. . ... ... ... : ... .. . ... : ... .. . ... : ... .. . ... ...
ROW 11 : ... .. . ... ... ... : ... .. . ... ... ... : --- .. . ... : ... .. . ... : ... .. . ... ...
ROW 12 : ... .. . ... ... ... : ... .. . ... ... ... : ... .. . ... : ... .. . ... : ... .. . ... ...
ROW 13 : ... .. . ... ... ... : ... .. . ... ... ... : ... .. . ... : ... .. . ... : ... .. . ... ...
ROW 14 : ... .. . ... ... ... : ... .. . ... ... ... : ... .. . ... : ... .. E ... : ... .. . ... ...
ROW 15 : ... .. . ... ... ... : ... .. . ... ... ... : ... .. . ... : ... .. 0 ... : ... .. . ... ...
ROW 16 : ... .. . ... ... ... : ... .. . ... ... ... : ... .. . ... : ... .. . ... : ... .. . ... ...
ROW 17 : ... .. . ... ... ... : ... .. . ... ... ... : ... .. . ... : ... .. . ... : ... .. . ... ...
ROW 18 : ... .. . ... ... ... : ... .. . ... ... ... : ... .. . ... : ... .. . ... : ... .. . ... ...
ROW 19 : ... .. . ... ... ... : ... .. . ... ... ... : ... .. . ... : ... .. . ... : ... .. . ... ...
ROW 1A : ... .. . ... ... ... : ... .. . ... ... ... : G-3 00 . P80 : ... .. E ... : ... .. . ... ...
ROW 1B : ... .. . ... ... ... : ... .. . ... ... ... : ... .. . ... : ... .. 0 ... : ... .. . ... ...
ROW 1C : ... .. . ... ... ... : ... .. . ... ... ... : ... .. . ... : ... .. . ... : ... .. . ... ...
ROW 1D : ... .. . ... ... ... : ... .. . ... ... ... : ... .. . ... : ... .. . ... : ... .. . ... ...
ROW 1E : ... .. . ... ... ... : ... .. . ... ... ... : ... .. . ... : ... .. . ... : ... .. . ... ...
ROW 1F : ... .. . ... ... ... : ... .. . ... ... ... : ... .. . ... : ... .. . ... : ... .. . ... ...
ROW 20 : G#4 00 8 P80 ... ... : C-5 00 8 P81 ... ... : F-2 00 . ... : F-# 00 0 ... : ... .. . ... ...
ROW 21 : ... .. . ... ... ... : ... .. . ... ... ... : ... .. . ... : ... .. . ... : ... .. . ... ...
ROW 22 : ... .. 7 ... ... ... : ... .. 7 ... ... ... : ... .. . ... : ... .. . ... : ... .. . ... ...
ROW 23 : ... .. . ... ... ... : ... .. . ... ... ... : ... .. . ... : ... .. . ... : ... .. . ... ...
ROW 24 : ... .. . ... ... ... : ... .. . ... ... ... : ... .. . ... : ... .. . ... : ... .. . ... ...
ROW 25 : ... .. . ... ... ... : ... .. . ... ... ... : ... .. . ... : ... .. . ... : ... .. . ... ...
ROW 26 : ... .. 0 ... ... ... : ... .. 0 ... ... ... : ... .. . ... : ... .. . ... : ... .. . ... ...
ROW 27 : ... .. . ... ... ... : ... .. . ... ... ... : ... .. . ... : ... .. . ... : ... .. . ... ...
ROW 28 : ... .. . ... ... ... : ... .. . ... ... ... : ... .. . ... : ... .. . ... : ... .. . ... ...
ROW 29 : ... .. . ... ... ... : ... .. . ... ... ... : --- .. . ... : ... .. . ... : ... .. . ... ...
ROW 2A : ... .. . ... ... ... : ... .. . ... ... ... : ... .. . ... : ... .. . ... : ... .. . ... ...
ROW 2B : ... .. . ... ... ... : ... .. . ... ... ... : ... .. . ... : ... .. . ... : ... .. . ... ...
ROW 2C : G-4 00 8 P81 ... ... : B-4 00 8 P80 ... ... : ... .. . ... : ... .. . ... : ... .. . ... ...
ROW 2D : ... .. . ... ... ... : ... .. . ... ... ... : ... .. . ... : ... .. . ... : ... .. . ... ...
ROW 2E : ... .. 7 ... ... ... : ... .. 7 ... ... ... : ... .. . ... : ... .. . ... : ... .. . ... ...
ROW 2F : ... .. . ... ... ... : ... .. . ... ... ... : ... .. . ... : ... .. . ... : ... .. . ... ...
ROW 30 : ... .. . ... ... ... : ... .. . ... ... ... : ... .. . ... : ... .. . ... : ... .. . ... ...
ROW 31 : ... .. . ... ... ... : ... .. . ... ... ... : ... .. . ... : ... .. . ... : ... .. . ... ...
ROW 32 : G#4 00 8 P80 ... ... : C-5 00 8 P81 ... ... : F-3 00 . ... : C-# 00 E ... : ... .. . ... ...
ROW 33 : ... .. . ... ... ... : ... .. . ... ... ... : ... .. . ... : ... .. 0 ... : ... .. . ... ...
ROW 34 : ... .. 7 ... ... ... : ... .. 7 ... ... ... : ... .. . ... : ... .. . ... : ... .. . ... ...
ROW 35 : ... .. . ... ... ... : ... .. . ... ... ... : ... .. . ... : ... .. . ... : ... .. . ... ...
ROW 36 : ... .. . ... ... ... : ... .. . ... ... ... : ... .. . ... : ... .. . ... : ... .. . ... ...
ROW 37 : ... .. . ... ... ... : ... .. . ... ... ... : ... .. . ... : ... .. . ... : ... .. . ... ...
ROW 38 : ... .. 6 ... ... ... : ... .. 6 ... ... ... : F#2 00 . ... : F-# 00 0 ... : ... .. . ... ...
ROW 39 : ... .. . ... ... ... : ... .. . ... ... ... : ... .. . ... : ... .. . ... : ... .. . ... ...
ROW 3A : ... .. . ... ... ... : ... .. . ... ... ... : ... .. . ... : ... .. . ... : ... .. . ... ...
ROW 3B : ... .. . ... ... ... : ... .. . ... ... ... : ... .. . ... : ... .. . ... : ... .. . ... ...
ROW 3C : ... .. . ... ... ... : ... .. . ... ... ... : ... .. . ... : ... .. . ... : ... .. . ... ...
ROW 3D : ... .. . ... ... ... : ... .. . ... ... ... : ... .. . ... : ... .. . ... : ... .. . ... ...
ROW 3E : ... .. . ... ... ... : ... .. . ... ... ... : ... .. . ... : ... .. . ... : ... .. . ... ...
ROW 3F : ... .. . ... ... ... : ... .. . ... ... ... : ... .. . ... : ... .. . ... : ... .. . ... ...
ROW 40 : ... .. . ... ... ... : ... .. . ... ... ... : ... .. . ... : ... .. . ... : ... .. . ... ...
ROW 41 : ... .. . ... ... ... : ... .. . ... ... ... : --- .. . ... : ... .. . ... : ... .. . ... ...
ROW 42 : ... .. . ... ... ... : ... .. . ... ... ... : ... .. . ... : ... .. . ... : ... .. . ... ...
ROW 43 : ... .. . ... ... ... : ... .. . ... ... ... : ... .. . ... : ... .. . ... : ... .. . ... ...
ROW 44 : G#4 00 8 P80 ... ... : C-5 00 8 P81 ... ... : ... .. . ... : ... .. . ... : ... .. . ... ...
ROW 45 : ... .. . ... ... ... : ... .. . ... ... ... : ... .. . ... : ... .. . ... : ... .. . ... ...
ROW 46 : ... .. 7 ... ... ... : ... .. 7 ... ... ... : ... .. . ... : ... .. . ... : ... .. . ... ...
ROW 47 : ... .. . ... ... ... : ... .. . ... ... ... : ... .. . ... : ... .. . ... : ... .. . ... ...
ROW 48 : ... .. . ... ... ... : ... .. . ... ... ... : ... .. . ... : ... .. . ... : ... .. . ... ...
ROW 49 : ... .. . ... ... ... : ... .. . ... ... ... : ... .. . ... : ... .. . ... : ... .. . ... ...
ROW 4A : G-4 00 8 P81 ... ... : B-4 00 8 P80 ... ... : F#3 00 . ... : C-# 00 E ... : ... .. . ... ...
ROW 4B : ... .. . ... ... ... : ... .. . ... ... ... : ... .. . ... : ... .. 0 ... : ... .. . ... ...
ROW 4C : ... .. 7 ... ... ... : ... .. 7 ... ... ... : ... .. . ... : ... .. . ... : ... .. . ... ...
ROW 4D : ... .. . ... ... ... : ... .. . ... ... ... : ... .. . ... : ... .. . ... : ... .. . ... ...
ROW 4E : ... .. . ... ... ... : ... .. . ... ... ... : ... .. . ... : ... .. . ... : ... .. . ... ...
ROW 4F : ... .. . ... ... ... : ... .. . ... ... ... : ... .. . ... : ... .. . ... : ... .. . ... ...
ROW 50 : D#4 00 8 P81 ... ... : G-4 00 8 P81 ... ... : G-2 00 . ... : F-# 00 0 ... : ... .. . ... ...
ROW 51 : ... .. . ... ... ... : ... .. . ... ... ... : ... .. . ... : ... .. . ... : ... .. . ... ...
ROW 52 : ... .. 7 ... ... ... : ... .. 7 ... ... ... : ... .. . ... : ... .. . ... : ... .. . ... ...
ROW 53 : ... .. . ... ... ... : ... .. . ... ... ... : ... .. . ... : ... .. . ... : ... .. . ... ...
ROW 54 : ... .. . ... ... ... : ... .. . ... ... ... : ... .. . ... : ... .. . ... : ... .. . ... ...
ROW 55 : ... .. . ... ... ... : ... .. . ... ... ... : ... .. . ... : ... .. . ... : ... .. . ... ...
ROW 56 : ... .. 0 ... ... ... : ... .. 0 ... ... ... : ... .. . ... : ... .. . ... : ... .. . ... ...
ROW 57 : ... .. . ... ... ... : ... .. . ... ... ... : ... .. . ... : ... .. . ... : ... .. . ... ...
ROW 58 : ... .. . ... ... ... : ... .. . ... ... ... : ... .. . ... : ... .. . ... : ... .. . ... ...
ROW 59 : ... .. . ... ... ... : ... .. . ... ... ... : --- .. . ... : ... .. . ... : ... .. . ... ...
ROW 5A : ... .. . ... ... ... : ... .. . ... ... ... : ... .. . ... : ... .. . ... : ... .. . ... ...
ROW 5B : ... .. . ... ... ... : ... .. . ... ... ... : ... .. . ... : ... .. . ... : ... .. . ... ...
ROW 5C : D-4 00 8 P81 ... ... : F#4 00 8 P80 ... ... : ... .. . ... : ... .. . ... : ... .. . ... ...
ROW 5D : ... .. . ... ... ... : ... .. . ... ... ... : ... .. . ... : ... .. . ... : ... .. . ... ...
ROW 5E : ... .. 7 ... ... ... : ... .. 7 ... ... ... : ... .. . ... : ... .. . ... : ... .. . ... ...
ROW 5F : ... .. . ... ... ... : ... .. . ... ... ... : ... .. . ... : ... .. . ... : ... .. . ... ...
ROW 60 : ... .. . ... ... ... : ... .. . ... ... ... : ... .. . ... : ... .. . ... : ... .. . ... ...
ROW 61 : ... .. . ... ... ... : ... .. . ... ... ... : ... .. . ... : ... .. . ... : ... .. . ... ...
ROW 62 : D#4 00 8 P81 ... ... : G-4 00 8 P81 ... ... : G-3 00 . ... : C-# 00 E ... : ... .. . ... ...
ROW 63 : ... .. . ... ... ... : ... .. . ... ... ... : ... .. . ... : ... .. 0 ... : ... .. . ... ...
ROW 64 : ... .. 7 ... ... ... : ... .. 7 ... ... ... : ... .. . ... : ... .. . ... : ... .. . ... ...
ROW 65 : ... .. . ... ... ... : ... .. . ... ... ... : ... .. . ... : ... .. . ... : ... .. . ... ...
ROW 66 : ... .. . ... ... ... : ... .. . ... ... ... : ... .. . ... : ... .. . ... : ... .. . ... ...
ROW 67 : ... .. . ... ... ... : ... .. . ... ... ... : ... .. . ... : ... .. . ... : ... .. . ... ...
ROW 68 : ... .. 6 ... ... ... : ... .. 6 ... ... ... : G#2 00 . P7F : ... .. E ... : ... .. . ... ...
ROW 69 : ... .. . ... ... ... : ... .. . ... ... ... : ... .. . ... : ... .. 0 ... : ... .. . ... ...
ROW 6A : ... .. . ... ... ... : ... .. . ... ... ... : ... .. . ... : ... .. . ... : ... .. . ... ...
ROW 6B : ... .. . ... ... ... : ... .. . ... ... ... : ... .. . ... : ... .. . ... : ... .. . ... ...
ROW 6C : ... .. . ... ... ... : ... .. . ... ... ... : ... .. . ... : ... .. . ... : ... .. . ... ...
ROW 6D : ... .. . ... ... ... : ... .. . ... ... ... : ... .. . ... : ... .. . ... : ... .. . ... ...
ROW 6E : ... .. . ... ... ... : ... .. . ... ... ... : ... .. . ... : ... .. E ... : ... .. . ... ...
ROW 6F : ... .. . ... ... ... : ... .. . ... ... ... : ... .. . ... : ... .. 0 ... : ... .. . ... ...
ROW 70 : ... .. . ... ... ... : ... .. . ... ... ... : ... .. . ... : ... .. . ... : ... .. . ... ...
ROW 71 : ... .. . ... ... ... : ... .. . ... ... ... : --- .. . ... : ... .. . ... : ... .. . ... ...
ROW 72 : ... .. . ... ... ... : ... .. . ... ... ... : ... .. . ... : ... .. . ... : ... .. . ... ...
ROW 73 : ... .. . ... ... ... : ... .. . ... ... ... : ... .. . ... : ... .. . ... : ... .. . ... ...
ROW 74 : G#3 00 8 P80 ... ... : C#4 00 8 P81 ... ... : ... .. . ... : ... .. E ... : ... .. . ... ...
ROW 75 : ... .. . ... ... ... : ... .. . ... ... ... : ... .. . ... : ... .. 0 ... : ... .. . ... ...
ROW 76 : ... .. 7 ... ... ... : ... .. 7 ... ... ... : ... .. . ... : ... .. . ... : ... .. . ... ...
ROW 77 : ... .. . ... ... ... : ... .. . ... ... ... : ... .. . ... : ... .. . ... : ... .. . ... ...
ROW 78 : ... .. . ... ... ... : ... .. . ... ... ... : ... .. . ... : ... .. . ... : ... .. . ... ...
ROW 79 : ... .. . ... ... ... : ... .. . ... ... ... : ... .. . ... : ... .. . ... : ... .. . ... ...
ROW 7A : B-3 00 8 P80 ... ... : C#4 00 8 P80 ... ... : G#3 00 . P80 : ... .. E ... : ... .. . ... ...
ROW 7B : ... .. . ... ... ... : ... .. . ... ... ... : ... .. . ... : ... .. 0 ... : ... .. . ... ...
ROW 7C : ... .. 7 ... ... ... : ... .. 7 ... ... ... : ... .. . ... : ... .. . ... : ... .. . ... ...
ROW 7D : ... .. . ... ... ... : ... .. . ... ... ... : ... .. . ... : ... .. . ... : ... .. . ... ...
ROW 7E : ... .. . ... ... ... : ... .. . ... ... ... : ... .. . ... : ... .. . ... : ... .. . ... ...
ROW 7F : ... .. . ... ... ... : ... .. . ... ... ... : ... .. . ... : ... .. . ... : ... .. . ... ...
ROW 80 : C#4 00 8 P80 ... ... : F-4 00 8 P80 ... ... : C#3 00 . ... : F-# 00 0 ... : ... .. . ... ...
ROW 81 : ... .. . ... ... ... : ... .. . ... ... ... : ... .. . ... : ... .. . ... : ... .. . ... ...
ROW 82 : ... .. 7 ... ... ... : ... .. 7 ... ... ... : ... .. . ... : ... .. . ... : ... .. . ... ...
ROW 83 : ... .. . ... ... ... : ... .. . ... ... ... : ... .. . ... : ... .. . ... : ... .. . ... ...
ROW 84 : ... .. . ... ... ... : ... .. . ... ... ... : ... .. . ... : ... .. . ... : ... .. . ... ...
ROW 85 : ... .. . ... ... ... : ... .. . ... ... ... : ... .. . ... : ... .. . ... : ... .. . ... ...
ROW 86 : ... .. 0 ... ... ... : ... .. 0 ... ... ... : ... .. . ... : ... .. . ... : ... .. . ... ...
ROW 87 : ... .. . ... ... ... : ... .. . ... ... ... : ... .. . ... : ... .. . ... : ... .. . ... ...
ROW 88 : ... .. . ... ... ... : ... .. . ... ... ... : ... .. . ... : ... .. . ... : ... .. . ... ...
ROW 89 : ... .. . ... ... ... : ... .. . ... ... ... : --- .. . ... : ... .. . ... : ... .. . ... ...
ROW 8A : ... .. . ... ... ... : ... .. . ... ... ... : ... .. . ... : ... .. . ... : ... .. . ... ...
ROW 8B : ... .. . ... ... ... : ... .. . ... ... ... : ... .. . ... : ... .. . ... : ... .. . ... ...
ROW 8C : C-4 00 8 P81 ... ... : D#4 00 8 P81 ... ... : ... .. . ... : ... .. . ... : ... .. . ... ...
ROW 8D : ... .. . ... ... ... : ... .. . ... ... ... : ... .. . ... : ... .. . ... : ... .. . ... ...
ROW 8E : ... .. 7 ... ... ... : ... .. 7 ... ... ... : ... .. . ... : ... .. . ... : ... .. . ... ...
ROW 8F : ... .. . ... ... ... : ... .. . ... ... ... : ... .. . ... : ... .. . ... : ... .. . ... ...
ROW 90 : ... .. . ... ... ... : ... .. . ... ... ... : ... .. . ... : ... .. . ... : ... .. . ... ...
ROW 91 : ... .. . ... ... ... : ... .. . ... ... ... : ... .. . ... : ... .. . ... : ... .. . ... ...
ROW 92 : C#4 00 8 P80 ... ... : F-4 00 8 P80 ... ... : F-3 00 . ... : C-# 00 E ... : ... .. . ... ...
ROW 93 : ... .. . ... ... ... : ... .. . ... ... ... : ... .. . ... : ... .. 0 ... : ... .. . ... ...
ROW 94 : ... .. 7 ... ... ... : ... .. 7 ... ... ... : ... .. . ... : ... .. . ... : ... .. . ... ...
ROW 95 : ... .. . ... ... ... : ... .. . ... ... ... : ... .. . ... : ... .. . ... : ... .. . ... ...
ROW 96 : ... .. . ... ... ... : ... .. . ... ... ... : ... .. . ... : ... .. . ... : ... .. . ... ...
ROW 97 : ... .. . ... ... ... : ... .. . ... ... ... : ... .. . ... : ... .. . ... : ... .. . ... ...
ROW 98 : ... .. 6 ... ... ... : ... .. 6 ... ... ... : G-2 00 . ... : F-# 00 0 ... : ... .. . ... ...
ROW 99 : ... .. . ... ... ... : ... .. . ... ... ... : ... .. . ... : ... .. . ... : ... .. . ... ...
ROW 9A : ... .. . ... ... ... : ... .. . ... ... ... : ... .. . ... : ... .. . ... : ... .. . ... ...
ROW 9B : ... .. . ... ... ... : ... .. . ... ... ... : ... .. . ... : ... .. . ... : ... .. . ... ...
ROW 9C : ... .. . ... ... ... : ... .. . ... ... ... : ... .. . ... : ... .. . ... : ... .. . ... ...
ROW 9D : ... .. . ... ... ... : ... .. . ... ... ... : ... .. . ... : ... .. . ... : ... .. . ... ...
ROW 9E : ... .. . ... ... ... : ... .. . ... ... ... : ... .. . ... : ... .. . ... : ... .. . ... ...
ROW 9F : ... .. . ... ... ... : ... .. . ... ... ... : ... .. . ... : ... .. . ... : ... .. . ... ...
ROW A0 : ... .. . ... ... ... : ... .. . ... ... ... : ... .. . ... : ... .. . ... : ... .. . ... ...
ROW A1 : ... .. . ... ... ... : ... .. . ... ... ... : --- .. . ... : ... .. . ... : ... .. . ... ...
ROW A2 : ... .. . ... ... ... : ... .. . ... ... ... : ... .. . ... : ... .. . ... : ... .. . ... ...
ROW A3 : ... .. . ... ... ... : ... .. . ... ... ... : ... .. . ... : ... .. . ... : ... .. . ... ...
ROW A4 : C-4 00 8 P81 ... ... : D#4 00 8 P81 ... ... : ... .. . ... : ... .. . ... : ... .. . ... ...
ROW A5 : ... .. . ... ... ... : ... .. . ... ... ... : ... .. . ... : ... .. . ... : ... .. . ... ...
ROW A6 : ... .. 7 ... ... ... : ... .. 7 ... ... ... : ... .. . ... : ... .. . ... : ... .. . ... ...
ROW A7 : ... .. . ... ... ... : ... .. . ... ... ... : ... .. . ... : ... .. . ... : ... .. . ... ...
ROW A8 : ... .. . ... ... ... : ... .. . ... ... ... : ... .. . ... : ... .. . ... : ... .. . ... ...
ROW A9 : ... .. . ... ... ... : ... .. . ... ... ... : ... .. . ... : ... .. . ... : ... .. . ... ...
ROW AA : B-3 00 8 P80 ... ... : C#4 00 8 P80 ... ... : C#3 00 . ... : C-# 00 E ... : ... .. . ... ...
ROW AB : ... .. . ... ... ... : ... .. . ... ... ... : ... .. . ... : ... .. 0 ... : ... .. . ... ...
ROW AC : ... .. 7 ... ... ... : ... .. 7 ... ... ... : ... .. . ... : ... .. . ... : ... .. . ... ...
ROW AD : ... .. . ... ... ... : ... .. . ... ... ... : ... .. . ... : ... .. . ... : ... .. . ... ...
ROW AE : ... .. . ... ... ... : ... .. . ... ... ... : ... .. . ... : ... .. . ... : ... .. . ... ...
ROW AF : ... .. . ... ... ... : ... .. . ... ... ... : ... .. . ... : ... .. . ... : ... .. . ... ...
ROW B0 : ... .. 6 ... ... ... : ... .. 6 ... ... ... : C-3 00 . ... : F-# 00 0 ... : ... .. . ... ...
ROW B1 : ... .. . ... ... ... : ... .. . ... ... ... : ... .. . ... : ... .. . ... : ... .. . ... ...
ROW B2 : ... .. . ... ... ... : ... .. . ... ... ... : ... .. . ... : ... .. . ... : ... .. . ... ...
ROW B3 : ... .. . ... ... ... : ... .. . ... ... ... : ... .. . ... : ... .. . ... : ... .. . ... ...
ROW B4 : ... .. . ... ... ... : ... .. . ... ... ... : ... .. . ... : ... .. . ... : ... .. . ... ...
ROW B5 : ... .. . ... ... ... : ... .. . ... ... ... : ... .. . ... : ... .. . ... : ... .. . ... ...
ROW B6 : ... .. . ... ... ... : ... .. . ... ... ... : ... .. . ... : ... .. . ... : ... .. . ... ...
ROW B7 : ... .. . ... ... ... : ... .. . ... ... ... : ... .. . ... : ... .. . ... : ... .. . ... ...
ROW B8 : ... .. . ... ... ... : ... .. . ... ... ... : ... .. . ... : ... .. . ... : ... .. . ... ...
ROW B9 : ... .. . ... ... ... : ... .. . ... ... ... : --- .. . ... : ... .. . ... : ... .. . ... ...
ROW BA : ... .. . ... ... ... : ... .. . ... ... ... : ... .. . ... : ... .. . ... : ... .. . ... ...
ROW BB : ... .. . ... ... ... : ... .. . ... ... ... : ... .. . ... : ... .. . ... : ... .. . ... ...
ROW BC : ... .. . ... ... ... : ... .. . ... ... ... : ... .. . ... : ... .. . ... : ... .. . ... ...
ROW BD : ... .. . ... ... ... : ... .. . ... ... ... : ... .. . ... : ... .. . ... : ... .. . ... ...
ROW BE : ... .. . ... ... ... : ... .. . ... ... ... : ... .. . ... : ... .. . ... : ... .. . ... ...
ROW BF : ... .. . ... ... ... : ... .. . ... ... ... : ... .. . ... : ... .. . ... : ... .. . ... ...
ROW C0 : ... .. . ... ... ... : ... .. . ... ... ... : ... .. . ... : ... .. . ... : ... .. . ... ...
ROW C1 : ... .. . ... ... ... : ... .. . ... ... ... : ... .. . ... : ... .. . ... : ... .. . ... ...
ROW C2 : ... .. . ... ... ... : ... .. . ... ... ... : G-2 00 . ... : C-# 00 E ... : ... .. . ... ...
ROW C3 : ... .. . ... ... ... : ... .. . ... ... ... : ... .. . ... : ... .. 0 ... : ... .. . ... ...
ROW C4 : ... .. . ... ... ... : ... .. . ... ... ... : ... .. . ... : ... .. . ... : ... .. . ... ...
ROW C5 : ... .. . ... ... ... : ... .. . ... ... ... : ... .. . ... : ... .. . ... : ... .. . ... ...
ROW C6 : ... .. . ... ... ... : ... .. . ... ... ... : ... .. . ... : ... .. . ... : ... .. . ... ...
ROW C7 : ... .. . ... ... ... : ... .. . ... ... ... : ... .. . ... : ... .. . ... : ... .. . ... ...
ROW C8 : ... .. . ... ... ... : ... .. . ... ... ... : C-3 00 . ... : ... .. E ... : ... .. . ... ...
ROW C9 : ... .. . ... ... ... : ... .. . ... ... ... : ... .. . ... : ... .. 0 ... : ... .. . ... ...
ROW CA : ... .. . ... ... ... : ... .. . ... ... ... : ... .. . ... : ... .. . ... : ... .. . ... ...
ROW CB : ... .. . ... ... ... : ... .. . ... ... ... : ... .. . ... : ... .. . ... : ... .. . ... ...
ROW CC : ... .. . ... ... ... : ... .. . ... ... ... : ... .. . ... : ... .. . ... : ... .. . ... ...
ROW CD : ... .. . ... ... ... : ... .. . ... ... ... : ... .. . ... : ... .. . ... : ... .. . ... ...
ROW CE : ... .. . ... ... ... : ... .. . ... ... ... : ... .. . ... : ... .. E ... : ... .. . ... ...
ROW CF : ... .. . ... ... ... : ... .. . ... ... ... : ... .. . ... : ... .. 0 ... : ... .. . ... ...
ROW D0 : ... .. . ... ... ... : ... .. . ... ... ... : ... .. . ... : ... .. . ... : ... .. . ... ...
ROW D1 : ... .. . ... ... ... : ... .. . ... ... ... : --- .. . ... : ... .. . ... : ... .. . ... ...
ROW D2 : ... .. . ... ... ... : ... .. . ... ... ... : ... .. . ... : ... .. . ... : ... .. . ... ...
ROW D3 : ... .. . ... ... ... : ... .. . ... ... ... : ... .. . ... : ... .. . ... : ... .. . ... ...
ROW D4 : ... .. . ... ... ... : ... .. . ... ... ... : ... .. . ... : ... .. E ... : ... .. . ... ...
ROW D5 : ... .. . ... ... ... : ... .. . ... ... ... : ... .. . ... : ... .. 0 ... : ... .. . ... ...
ROW D6 : ... .. . ... ... ... : ... .. . ... ... ... : ... .. . ... : ... .. . ... : ... .. . ... ...
ROW D7 : ... .. . ... ... ... : ... .. . ... ... ... : ... .. . ... : ... .. . ... : ... .. . ... ...
ROW D8 : ... .. . ... ... ... : ... .. . ... ... ... : ... .. . ... : ... .. . ... : ... .. . ... ...
ROW D9 : ... .. . ... ... ... : ... .. . ... ... ... : ... .. . ... : ... .. . ... : ... .. . ... ...
ROW DA : ... .. . ... ... ... : ... .. . ... ... ... : ... .. . ... : ... .. E ... : ... .. . ... ...
ROW DB : ... .. . ... ... ... : ... .. . ... ... ... : ... .. . ... : ... .. 0 ... : ... .. . ... ...
ROW DC : ... .. . ... ... ... : ... .. . ... ... ... : ... .. . ... : ... .. . ... : ... .. . ... ...
ROW DD : ... .. . ... ... ... : ... .. . ... ... ... : ... .. . ... : ... .. . ... : ... .. . ... ...
ROW DE : ... .. . ... ... ... : ... .. . ... ... ... : ... .. . ... : ... .. . ... : ... .. . ... ...
ROW DF : ... .. . ... ... ... : ... .. . ... ... ... : ... .. . ... : ... .. . ... : ... .. . ... ...
ROW E0 : ... .. 1 ... V01 ... : ... .. 1 ... V01 ... : C-3 00 . ... : D-# 00 6 ... : ... .. . ... ...
ROW E1 : ... .. . ... ... ... : ... .. . ... ... ... : ... .. . ... : ... .. . ... : ... .. . ... ...
ROW E2 : ... .. . ... ... ... : ... .. . ... ... ... : ... .. . ... : ... .. . ... : ... .. . ... ...
ROW E3 : ... .. . ... ... ... : ... .. . ... ... ... : ... .. . ... : ... .. . ... : ... .. . ... ...
ROW E4 : ... .. . ... ... ... : ... .. . ... ... ... : ... .. . ... : ... .. . ... : ... .. . ... ...
ROW E5 : ... .. . ... ... ... : ... .. . ... ... ... : ... .. . ... : ... .. 0 ... : ... .. . ... ...
ROW E6 : ... .. . ... ... ... : ... .. . ... ... ... : ... .. . ... : ... .. . ... : ... .. . ... ...
ROW E7 : ... .. . ... ... ... : ... .. . ... ... ... : ... .. . ... : ... .. . ... : ... .. . ... ...
ROW E8 : ... .. . ... ... ... : ... .. . ... ... ... : ... .. . ... : ... .. . ... : ... .. . ... ...
ROW E9 : ... .. . ... ... ... : ... .. . ... ... ... : --- .. . ... : ... .. . ... : ... .. . ... ...
ROW EA : ... .. . ... ... ... : ... .. . ... ... ... : ... .. . ... : ... .. . ... : ... .. . ... ...
ROW EB : ... .. . ... ... ... : ... .. . ... ... ... : ... .. . ... : ... .. . ... : ... .. . ... ...
ROW EC : G-3 00 B P80 ... ... : D#4 00 B P81 ... ... : ... .. . ... : ... .. . ... : ... .. . ... ...
ROW ED : ... .. A ... ... ... : ... .. A ... ... ... : ... .. . ... : ... .. . ... : ... .. . ... ...
ROW EE : ... .. 9 ... ... ... : ... .. 9 ... ... ... : ... .. . ... : ... .. . ... : ... .. . ... ...
ROW EF : ... .. 8 ... ... ... : ... .. 8 ... ... ... : ... .. . ... : ... .. . ... : ... .. . ... ...
ROW F0 : ... .. 7 ... ... ... : ... .. 7 ... ... ... : ... .. . ... : ... .. . ... : ... .. . ... ...
ROW F1 : ... .. 6 ... ... ... : ... .. 6 ... ... ... : ... .. . ... : ... .. . ... : ... .. . ... ...
ROW F2 : ... .. 5 ... ... ... : ... .. 5 ... ... ... : C#3 00 . ... : C-# 00 E ... : ... .. . ... ...
ROW F3 : ... .. 4 ... ... ... : ... .. 4 ... ... ... : ... .. . ... : ... .. 0 ... : ... .. . ... ...
ROW F4 : ... .. 3 ... ... ... : ... .. 3 ... ... ... : ... .. . ... : ... .. . ... : ... .. . ... ...
ROW F5 : ... .. 2 ... ... ... : ... .. 2 ... ... ... : ... .. . ... : ... .. . ... : ... .. . ... ...
ROW F6 : ... .. 1 ... ... ... : ... .. 1 ... ... ... : ... .. . ... : ... .. . ... : ... .. . ... ...
ROW F7 : ... .. . ... ... ... : ... .. . ... ... ... : ... .. . ... : ... .. . ... : ... .. . ... ...
ROW F8 : C-4 00 B P81 ... ... : G-4 00 B P81 ... ... : D#3 00 . ... : D-# 00 6 ... : ... .. . ... ...
ROW F9 : ... .. A ... ... ... : ... .. A ... ... ... : ... .. . ... : ... .. . ... : ... .. . ... ...
ROW FA : ... .. 9 ... ... ... : ... .. 9 ... ... ... : ... .. . ... : ... .. . ... : ... .. . ... ...
ROW FB : ... .. 8 ... ... ... : ... .. 8 ... ... ... : ... .. . ... : ... .. . ... : ... .. . ... ...
ROW FC : ... .. 7 ... ... ... : ... .. 7 ... ... ... : ... .. . ... : ... .. . ... : ... .. . ... ...
ROW FD : ... .. 6 ... ... ... : ... .. 6 ... ... ... : ... .. . ... : ... .. 0 ... : ... .. . ... ...
ROW FE : ... .. 1 ... ... ... : ... .. 1 ... ... ... : ... .. . ... : ... .. . ... : ... .. . ... ...
ROW FF : ... .. . ... ... ... : ... .. . ... ... ... : ... .. . ... : ... .. . ... : ... .. . ... ...

PATTERN 0E
ROW 00 : ... .. . ... ... ... : ... .. . ... ... ... : ... .. . ... : ... .. . ... : ... .. . ... ...
ROW 01 : ... .. . ... ... ... : ... .. . ... ... ... : --- .. . ... : ... .. . ... : ... .. . ... ...
ROW 02 : ... .. . ... ... ... : ... .. . ... ... ... : ... .. . ... : ... .. . ... : ... .. . ... ...
ROW 03 : ... .. . ... ... ... : ... .. . ... ... ... : ... .. . ... : ... .. . ... : ... .. . ... ...
ROW 04 : ... .. . ... ... ... : ... .. . ... ... ... : ... .. . ... : ... .. . ... : ... .. . ... ...
ROW 05 : ... .. . ... ... ... : ... .. . ... ... ... : ... .. . ... : ... .. . ... : ... .. . ... ...
ROW 06 : ... .. . ... ... ... : ... .. . ... ... ... : ... .. . ... : ... .. . ... : ... .. . ... ...
ROW 07 : ... .. . ... ... ... : ... .. . ... ... ... : ... .. . ... : ... .. . ... : ... .. . ... ...
ROW 08 : ... .. . ... ... ... : ... .. . ... ... ... : ... .. . ... : ... .. . ... : ... .. . ... ...
ROW 09 : ... .. . ... ... ... : ... .. . ... ... ... : ... .. . ... : ... .. . ... : ... .. . ... ...
ROW 0A : D#4 00 B P81 ... ... : G#4 00 B P80 ... ... : G-3 00 . ... : C-# 00 E ... : ... .. . ... ...
ROW 0B : ... .. A ... ... ... : ... .. A ... ... ... : ... .. . ... : ... .. 0 ... : ... .. . ... ...
ROW 0C : ... .. 9 ... ... ... : ... .. 9 ... ... ... : ... .. . ... : ... .. . ... : ... .. . ... ...
ROW 0D : ... .. 8 ... ... ... : ... .. 8 ... ... ... : ... .. . ... : ... .. . ... : ... .. . ... ...
ROW 0E : ... .. 7 ... ... ... : ... .. 7 ... ... ... : ... .. . ... : ... .. . ... : ... .. . ... ...
ROW 0F : ... .. 6 ... ... ... : ... .. 6 ... ... ... : ... .. . ... : ... .. . ... : ... .. . ... ...
ROW 10 : ... .. 5 ... ... ... : ... .. 5 ... ... ... : G#3 00 . ... : D-# 00 6 ... : ... .. . ... ...
ROW 11 : ... .. 4 ... ... ... : ... .. 4 ... ... ... : ... .. . ... : ... .. . ... : ... .. . ... ...
ROW 12 : ... .. 3 ... ... ... : ... .. 3 ... ... ... : ... .. . ... : ... .. . ... : ... .. . ... ...
ROW 13 : ... .. 2 ... ... ... : ... .. 2 ... ... ... : ... .. . ... : ... .. . ... : ... .. . ... ...
ROW 14 : ... .. 1 ... ... ... : ... .. 1 ... ... ... : ... .. . ... : ... .. . ... : ... .. . ... ...
ROW 15 : ... .. . ... ... ... : ... .. . ... ... ... : ... .. . ... : ... .. 0 ... : ... .. . ... ...
ROW 16 : ... .. . ... ... ... : ... .. . ... ... ... : ... .. . ... : ... .. . ... : ... .. . ... ...
ROW 17 : ... .. . ... ... ... : ... .. . ... ... ... : ... .. . ... : ... .. . ... : ... .. . ... ...
ROW 18 : ... .. . ... ... ... : ... .. . ... ... ... : ... .. . ... : ... .. . ... : ... .. . ... ...
ROW 19 : ... .. . ... ... ... : ... .. . ... ... ... : --- .. . ... : ... .. . ... : ... .. . ... ...
ROW 1A : ... .. . ... ... ... : ... .. . ... ... ... : ... .. . ... : ... .. . ... : ... .. . ... ...
ROW 1B : ... .. . ... ... ... : ... .. . ... ... ... : ... .. . ... : ... .. . ... : ... .. . ... ...
ROW 1C : ... .. . ... ... ... : ... .. . ... ... ... : ... .. . ... : ... .. . ... : ... .. . ... ...
ROW 1D : ... .. . ... ... ... : ... .. . ... ... ... : ... .. . ... : ... .. . ... : ... .. . ... ...
ROW 1E : ... .. . ... ... ... : ... .. . ... ... ... : ... .. . ... : ... .. . ... : ... .. . ... ...
ROW 1F : ... .. . ... ... ... : ... .. . ... ... ... : ... .. . ... : ... .. . ... : ... .. . ... ...
ROW 20 : ... .. . ... ... ... : ... .. . ... ... ... : ... .. . ... : ... .. . ... : ... .. . ... ...
ROW 21 : ... .. . ... ... ... : ... .. . ... ... ... : ... .. . ... : ... .. . ... : ... .. . ... ...
ROW 22 : ... .. . ... ... ... : ... .. . ... ... ... : G-3 00 . ... : C-# 00 E ... : ... .. . ... ...
ROW 23 : ... .. . ... ... ... : ... .. . ... ... ... : ... .. . ... : ... .. 0 ... : ... .. . ... ...
ROW 24 : ... .. . ... ... ... : ... .. . ... ... ... : ... .. . ... : ... .. . ... : ... .. . ... ...
ROW 25 : ... .. . ... ... ... : ... .. . ... ... ... : ... .. . ... : ... .. . ... : ... .. . ... ...
ROW 26 : ... .. . ... ... ... : ... .. . ... ... ... : ... .. . ... : ... .. . ... : ... .. . ... ...
ROW 27 : ... .. . ... ... ... : ... .. . ... ... ... : ... .. . ... : ... .. . ... : ... .. . ... ...
ROW 28 : D#4 00 B P81 ... ... : G#4 00 B P80 ... ... : D#3 00 . ... : D-# 00 6 ... : ... .. . ... ...
ROW 29 : ... .. A ... ... ... : ... .. A ... ... ... : ... .. . ... : ... .. . ... : ... .. . ... ...
ROW 2A : ... .. 9 ... ... ... : ... .. 9 ... ... ... : ... .. . ... : ... .. . ... : ... .. . ... ...
ROW 2B : ... .. 8 ... ... ... : ... .. 8 ... ... ... : ... .. . ... : ... .. . ... : ... .. . ... ...
ROW 2C : ... .. 7 ... ... ... : ... .. 7 ... ... ... : ... .. . ... : ... .. . ... : ... .. . ... ...
ROW 2D : ... .. 6 ... ... ... : ... .. 6 ... ... ... : ... .. . ... : ... .. 0 ... : ... .. . ... ...
ROW 2E : ... .. 1 ... ... ... : ... .. 1 ... ... ... : ... .. . ... : ... .. . ... : ... .. . ... ...
ROW 2F : ... .. . ... ... ... : ... .. . ... ... ... : ... .. . ... : ... .. . ... : ... .. . ... ...
ROW 30 : ... .. . ... ... ... : ... .. . ... ... ... : ... .. . ... : ... .. . ... : ... .. . ... ...
ROW 31 : ... .. . ... ... ... : ... .. . ... ... ... : --- .. . ... : ... .. . ... : ... .. . ... ...
ROW 32 : ... .. . ... ... ... : ... .. . ... ... ... : ... .. . ... : ... .. . ... : ... .. . ... ...
ROW 33 : ... .. . ... ... ... : ... .. . ... ... ... : ... .. . ... : ... .. . ... : ... .. . ... ...
ROW 34 : C-4 00 B P81 ... ... : G-4 00 B P81 ... ... : ... .. . ... : ... .. . ... : ... .. . ... ...
ROW 35 : ... .. A ... ... ... : ... .. A ... ... ... : ... .. . ... : ... .. . ... : ... .. . ... ...
ROW 36 : ... .. 9 ... ... ... : ... .. 9 ... ... ... : ... .. . ... : ... .. . ... : ... .. . ... ...
ROW 37 : ... .. 8 ... ... ... : ... .. 8 ... ... ... : ... .. . ... : ... .. . ... : ... .. . ... ...
ROW 38 : ... .. 7 ... ... ... : ... .. 7 ... ... ... : ... .. . ... : ... .. . ... : ... .. . ... ...
ROW 39 : ... .. 6 ... ... ... : ... .. 6 ... ... ... : ... .. . ... : ... .. . ... : ... .. . ... ...
ROW 3A : G#3 00 B P80 ... ... : D#4 00 B P81 ... ... : C-3 00 . ... : C-# 00 E ... : ... .. . ... ...
ROW 3B : ... .. A ... ... ... : ... .. A ... ... ... : ... .. . ... : ... .. 0 ... : ... .. . ... ...
ROW 3C : ... .. 9 ... ... ... : ... .. 9 ... ... ... : ... .. . ... : ... .. . ... : ... .. . ... ...
ROW 3D : ... .. 8 ... ... ... : ... .. 8 ... ... ... : ... .. . ... : ... .. . ... : ... .. . ... ...
ROW 3E : ... .. 7 ... ... ... : ... .. 7 ... ... ... : ... .. . ... : ... .. . ... : ... .. . ... ...
ROW 3F : ... .. 6 ... ... ... : ... .. 6 ... ... ... : ... .. . ... : ... .. . ... : ... .. . ... ...
ROW 40 : F#3 00 B P80 ... ... : C#4 00 B P80 ... ... : C#3 00 . ... : D-# 00 6 ... : ... .. . ... ...
ROW 41 : ... .. A ... ... ... : ... .. A ... ... ... : ... .. . ... : ... .. . ... : ... .. . ... ...
ROW 42 : ... .. 9 ... ... ... : ... .. 9 ... ... ... : ... .. . ... : ... .. . ... : ... .. . ... ...
ROW 43 : ... .. 8 ... ... ... : ... .. 8 ... ... ... : ... .. . ... : ... .. . ... : ... .. . ... ...
ROW 44 : ... .. 7 ... ... ... : ... .. 7 ... ... ... : ... .. . ... : ... .. . ... : ... .. . ... ...
ROW 45 : ... .. 6 ... ... ... : ... .. 6 ... ... ... : ... .. . ... : ... .. 0 ... : ... .. . ... ...
ROW 46 : ... .. 1 ... ... ... : ... .. 1 ... ... ... : ... .. . ... : ... .. . ... : ... .. . ... ...
ROW 47 : ... .. . ... ... ... : ... .. . ... ... ... : ... .. . ... : ... .. . ... : ... .. . ... ...
ROW 48 : ... .. . ... ... ... : ... .. . ... ... ... : ... .. . ... : ... .. . ... : ... .. . ... ...
ROW 49 : ... .. . ... ... ... : ... .. . ... ... ... : --- .. . ... : ... .. . ... : ... .. . ... ...
ROW 4A : ... .. . ... ... ... : ... .. . ... ... ... : ... .. . ... : ... .. . ... : ... .. . ... ...
ROW 4B : ... .. . ... ... ... : ... .. . ... ... ... : ... .. . ... : ... .. . ... : ... .. . ... ...
ROW 4C : G-3 00 B P80 ... ... : D#4 00 B P81 ... ... : ... .. . ... : ... .. . ... : ... .. . ... ...
ROW 4D : ... .. A ... ... ... : ... .. A ... ... ... : ... .. . ... : ... .. . ... : ... .. . ... ...
ROW 4E : ... .. 9 ... ... ... : ... .. 9 ... ... ... : ... .. . ... : ... .. . ... : ... .. . ... ...
ROW 4F : ... .. 8 ... ... ... : ... .. 8 ... ... ... : ... .. . ... : ... .. . ... : ... .. . ... ...
ROW 50 : ... .. 7 ... ... ... : ... .. 7 ... ... ... : ... .. . ... : ... .. . ... : ... .. . ... ...
ROW 51 : ... .. 6 ... ... ... : ... .. 6 ... ... ... : ... .. . ... : ... .. . ... : ... .. . ... ...
ROW 52 : F#3 00 B P80 ... ... : C#4 00 B P80 ... ... : D#3 00 . ... : C-# 00 E ... : ... .. . ... ...
ROW 53 : ... .. A ... ... ... : ... .. A ... ... ... : ... .. . ... : ... .. 0 ... : ... .. . ... ...
ROW 54 : ... .. 9 ... ... ... : ... .. 9 ... ... ... : ... .. . ... : ... .. . ... : ... .. . ... ...
ROW 55 : ... .. 8 ... ... ... : ... .. 8 ... ... ... : ... .. . ... : ... .. . ... : ... .. . ... ...
ROW 56 : ... .. 7 ... ... ... : ... .. 7 ... ... ... : ... .. . ... : ... .. . ... : ... .. . ... ...
ROW 57 : ... .. 6 ... ... ... : ... .. 6 ... ... ... : ... .. . ... : ... .. . ... : ... .. . ... ...
ROW 58 : F#3 00 B P80 ... ... : C#4 00 B P80 ... ... : F#3 00 . ... : D-# 00 6 ... : ... .. . ... ...
ROW 59 : ... .. A ... ... ... : ... .. A ... ... ... : ... .. . ... : ... .. . ... : ... .. . ... ...
ROW 5A : ... .. 9 ... ... ... : ... .. 9 ... ... ... : ... .. . ... : ... .. . ... : ... .. . ... ...
ROW 5B : ... .. 8 ... ... ... : ... .. 8 ... ... ... : ... .. . ... : ... .. . ... : ... .. . ... ...
ROW 5C : ... .. 7 ... ... ... : ... .. 7 ... ... ... : ... .. . ... : ... .. . ... : ... .. . ... ...
ROW 5D : ... .. 6 ... ... ... : ... .. 6 ... ... ... : ... .. . ... : ... .. 0 ... : ... .. . ... ...
ROW 5E : ... .. 1 ... ... ... : ... .. 1 ... ... ... : ... .. . ... : ... .. . ... : ... .. . ... ...
ROW 5F : ... .. . ... ... ... : ... .. . ... ... ... : ... .. . ... : ... .. . ... : ... .. . ... ...
ROW 60 : ... .. . ... ... ... : ... .. . ... ... ... : ... .. . ... : ... .. . ... : ... .. . ... ...
ROW 61 : ... .. . ... ... ... : ... .. . ... ... ... : --- .. . ... : ... .. . ... : ... .. . ... ...
ROW 62 : ... .. . ... ... ... : ... .. . ... ... ... : ... .. . ... : ... .. . ... : ... .. . ... ...
ROW 63 : ... .. . ... ... ... : ... .. . ... ... ... : ... .. . ... : ... .. . ... : ... .. . ... ...
ROW 64 : C#3 00 B P80 ... ... : G#3 00 B P80 ... ... : ... .. . ... : ... .. . ... : ... .. . ... ...
ROW 65 : ... .. A ... ... ... : ... .. A ... ... ... : ... .. . ... : ... .. . ... : ... .. . ... ...
ROW 66 : ... .. 9 ... ... ... : ... .. 9 ... ... ... : ... .. . ... : ... .. . ... : ... .. . ... ...
ROW 67 : ... .. 8 ... ... ... : ... .. 8 ... ... ... : ... .. . ... : ... .. . ... : ... .. . ... ...
ROW 68 : ... .. 7 ... ... ... : ... .. 7 ... ... ... : ... .. . ... : ... .. . ... : ... .. . ... ...
ROW 69 : ... .. 6 ... ... ... : ... .. 6 ... ... ... : ... .. . ... : ... .. . ... : ... .. . ... ...
ROW 6A : ... .. 1 ... ... ... : ... .. 1 ... ... ... : G#2 00 . P7F : C-# 00 E ... : ... .. . ... ...
ROW 6B : ... .. . ... ... ... : ... .. . ... ... ... : ... .. . ... : ... .. 0 ... : ... .. . ... ...
ROW 6C : ... .. . ... ... ... : ... .. . ... ... ... : ... .. . ... : ... .. . ... : ... .. . ... ...
ROW 6D : ... .. . ... ... ... : ... .. . ... ... ... : ... .. . ... : ... .. . ... : ... .. . ... ...
ROW 6E : ... .. . ... ... ... : ... .. . ... ... ... : ... .. . ... : ... .. . ... : ... .. . ... ...
ROW 6F : ... .. . ... ... ... : ... .. . ... ... ... : ... .. . ... : ... .. . ... : ... .. . ... ...
ROW 70 : ... .. 5 ... ... ... : ... .. 5 ... ... ... : C#3 00 . P80 : D-# 00 6 ... : ... .. . ... ...
ROW 71 : ... .. 4 ... ... ... : ... .. 4 ... ... ... : ... .. . ... : ... .. . ... : ... .. . ... ...
ROW 72 : ... .. 3 ... ... ... : ... .. 3 ... ... ... : ... .. . ... : ... .. . ... : ... .. . ... ...
ROW 73 : ... .. 2 ... ... ... : ... .. 2 ... ... ... : ... .. . ... : ... .. . ... : ... .. . ... ...
ROW 74 : ... .. 1 ... ... ... : ... .. 1 ... ... ... : ... .. . ... : ... .. . ... : ... .. . ... ...
ROW 75 : ... .. . ... ... ... : ... .. . ... ... ... : ... .. . ... : ... .. 0 ... : ... .. . ... ...
ROW 76 : ... .. . ... ... ... : ... .. . ... ... ... : --- .. . ... : ... .. . ... : ... .. . ... ...
ROW 77 : ... .. . ... ... ... : ... .. . ... ... ... : ... .. . ... : ... .. . ... : ... .. . ... ...
ROW 78 : ... .. . ... ... ... : ... .. . ... ... ... : ... .. . ... : ... .. . ... : ... .. . ... ...
ROW 79 : ... .. . ... ... ... : ... .. . ... ... ... : ... .. . ... : ... .. . ... : ... .. . ... ...
ROW 7A : ... .. . ... ... ... : ... .. . ... ... ... : ... .. . ... : ... .. . ... : ... .. . ... ...
ROW 7B : ... .. . ... ... ... : ... .. . ... ... ... : ... .. . ... : ... .. . ... : ... .. . ... ...
ROW 7C : C#3 00 B P80 ... ... : G#3 00 B P80 ... ... : D#3 00 . ... : ... .. . ... : ... .. . ... ...
ROW 7D : ... .. A ... ... ... : ... .. A ... ... ... : ... .. . ... : ... .. . ... : ... .. . ... ...
ROW 7E : ... .. 9 ... ... ... : ... .. 9 ... ... ... : ... .. . ... : ... .. . ... : ... .. . ... ...
ROW 7F : ... .. 8 ... ... ... : ... .. 8 ... ... ... : ... .. . ... : ... .. . ... : ... .. . ... ...
ROW 80 : F#3 00 B P80 ... ... : C#4 00 B P80 ... ... : ... .. . ... : ... .. . ... : ... .. . ... ...
ROW 81 : ... .. A ... ... ... : ... .. A ... ... ... : ... .. . ... : ... .. . ... : ... .. . ... ...
ROW 82 : ... .. 9 ... ... ... : ... .. 9 ... ... ... : C-3 00 . ... : C-# 00 E ... : ... .. . ... ...
ROW 83 : ... .. 8 ... ... ... : ... .. 8 ... ... ... : ... .. . ... : ... .. 0 ... : ... .. . ... ...
ROW 84 : C#3 00 B P80 ... ... : G#3 00 B P80 ... ... : ... .. . ... : ... .. . ... : ... .. . ... ...
ROW 85 : ... .. A ... ... ... : ... .. A ... ... ... : ... .. . ... : ... .. . ... : ... .. . ... ...
ROW 86 : ... .. 9 ... ... ... : ... .. 9 ... ... ... : ... .. . ... : ... .. . ... : ... .. . ... ...
ROW 87 : ... .. 8 ... ... ... : ... .. 8 ... ... ... : ... .. . ... : ... .. . ... : ... .. . ... ...
ROW 88 : F#3 00 B P80 ... ... : G#3 00 B P80 ... ... : B-2 00 . ... : D-# 00 6 ... : ... .. . ... ...
ROW 89 : ... .. A ... ... ... : ... .. A ... ... ... : ... .. . ... : ... .. . ... : ... .. . ... ...
ROW 8A : ... .. 9 ... ... ... : ... .. 9 ... ... ... : ... .. . ... : ... .. . ... : ... .. . ... ...
ROW 8B : ... .. 8 ... ... ... : ... .. 8 ... ... ... : ... .. . ... : ... .. . ... : ... .. . ... ...
ROW 8C : C#3 00 B P80 ... ... : C#4 00 B P80 ... ... : ... .. . ... : ... .. . ... : ... .. . ... ...
ROW 8D : ... .. A ... ... ... : ... .. A ... ... ... : ... .. . ... : ... .. 0 ... : ... .. . ... ...
ROW 8E : ... .. 9 ... ... ... : ... .. 9 ... ... ... : ... .. . ... : ... .. . ... : ... .. . ... ...
ROW 8F : ... .. 8 ... ... ... : ... .. 8 ... ... ... : ... .. . ... : ... .. . ... : ... .. . ... ...
ROW 90 : F#3 00 B P80 ... ... : G#3 00 B P80 ... ... : ... .. . ... : ... .. . ... : ... .. . ... ...
ROW 91 : ... .. A ... ... ... : ... .. A ... ... ... : --- .. . ... : ... .. . ... : ... .. . ... ...
ROW 92 : ... .. 9 ... ... ... : ... .. 9 ... ... ... : ... .. . ... : ... .. . ... : ... .. . ... ...
ROW 93 : ... .. 8 ... ... ... : ... .. 8 ... ... ... : ... .. . ... : ... .. . ... : ... .. . ... ...
ROW 94 : C#3 00 B P80 ... ... : C#4 00 B P80 ... ... : ... .. . ... : ... .. . ... : ... .. . ... ...
ROW 95 : ... .. A ... ... ... : ... .. A ... ... ... : ... .. . ... : ... .. . ... : ... .. . ... ...
ROW 96 : ... .. 9 ... ... ... : ... .. 9 ... ... ... : ... .. . ... : ... .. . ... : ... .. . ... ...
ROW 97 : ... .. 8 ... ... ... : ... .. 8 ... ... ... : ... .. . ... : ... .. . ... : ... .. . ... ...
ROW 98 : F#3 00 B P80 ... ... : G#3 00 B P80 ... ... : ... .. . ... : ... .. . ... : ... .. . ... ...
ROW 99 : ... .. A ... ... ... : ... .. A ... ... ... : ... .. . ... : ... .. . ... : ... .. . ... ...
ROW 9A : ... .. 9 ... ... ... : ... .. 9 ... ... ... : G#2 00 . P7F : C-# 00 E ... : ... .. . ... ...
ROW 9B : ... .. 8 ... ... ... : ... .. 8 ... ... ... : ... .. . ... : ... .. 0 ... : ... .. . ... ...
ROW 9C : C#3 00 B P80 ... ... : C#4 00 B P80 ... ... : ... .. . ... : ... .. . ... : ... .. . ... ...
ROW 9D : ... .. A ... ... ... : ... .. A ... ... ... : ... .. . ... : ... .. . ... : ... .. . ... ...
ROW 9E : ... .. 9 ... ... ... : ... .. 9 ... ... ... : ... .. . ... : ... .. . ... : ... .. . ... ...
ROW 9F : ... .. 8 ... ... ... : ... .. 8 ... ... ... : ... .. . ... : ... .. . ... : ... .. . ... ...
ROW A0 : ... .. 5 ... ... ... : ... .. 5 ... ... ... : G-2 00 . P80 : D-# 00 6 ... : ... .. . ... ...
ROW A1 : ... .. 4 ... ... ... : ... .. 4 ... ... ... : ... .. . ... : ... .. . ... : ... .. . ... ...
ROW A2 : ... .. 3 ... ... ... : ... .. 3 ... ... ... : ... .. . ... : ... .. . ... : ... .. . ... ...
ROW A3 : ... .. 2 ... ... ... : ... .. 2 ... ... ... : ... .. . ... : ... .. . ... : ... .. . ... ...
ROW A4 : ... .. 1 ... ... ... : ... .. 1 ... ... ... : ... .. . ... : ... .. . ... : ... .. . ... ...
ROW A5 : ... .. . ... ... ... : ... .. . ... ... ... : ... .. . ... : ... .. 0 ... : ... .. . ... ...
ROW A6 : ... .. . ... ... ... : ... .. . ... ... ... : ... .. . ... : ... .. . ... : ... .. . ... ...
ROW A7 : ... .. . ... ... ... : ... .. . ... ... ... : ... .. . ... : ... .. . ... : ... .. . ... ...
ROW A8 : ... .. . ... ... ... : ... .. . ... ... ... : ... .. . ... : ... .. . ... : ... .. . ... ...
ROW A9 : ... .. . ... ... ... : ... .. . ... ... ... : --- .. . ... : ... .. . ... : ... .. . ... ...
ROW AA : ... .. . ... ... ... : ... .. . ... ... ... : ... .. . ... : ... .. . ... : ... .. . ... ...
ROW AB : ... .. . ... ... ... : ... .. . ... ... ... : ... .. . ... : ... .. . ... : ... .. . ... ...
ROW AC : G-3 00 B P80 ... ... : D#4 00 B P81 ... ... : ... .. . ... : ... .. . ... : ... .. . ... ...
ROW AD : ... .. A ... ... ... : ... .. A ... ... ... : ... .. . ... : ... .. . ... : ... .. . ... ...
ROW AE : ... .. 9 ... ... ... : ... .. 9 ... ... ... : ... .. . ... : ... .. . ... : ... .. . ... ...
ROW AF : ... .. 8 ... ... ... : ... .. 8 ... ... ... : ... .. . ... : ... .. . ... : ... .. . ... ...
ROW B0 : ... .. 7 ... ... ... : ... .. 7 ... ... ... : ... .. . ... : ... .. . ... : ... .. . ... ...
ROW B1 : ... .. 6 ... ... ... : ... .. 6 ... ... ... : ... .. . ... : ... .. . ... : ... .. . ... ...
ROW B2 : F-3 00 B P80 ... ... : C#4 00 B P80 ... ... : G-3 00 . ... : C-# 00 E ... : ... .. . ... ...
ROW B3 : ... .. A ... ... ... : ... .. A ... ... ... : ... .. . ... : ... .. 0 ... : ... .. . ... ...
ROW B4 : ... .. 9 ... ... ... : ... .. 9 ... ... ... : ... .. . ... : ... .. . ... : ... .. . ... ...
ROW B5 : ... .. 8 ... ... ... : ... .. 8 ... ... ... : ... .. . ... : ... .. . ... : ... .. . ... ...
ROW B6 : ... .. 7 ... ... ... : ... .. 7 ... ... ... : ... .. . ... : ... .. . ... : ... .. . ... ...
ROW B7 : ... .. 6 ... ... ... : ... .. 6 ... ... ... : ... .. . ... : ... .. . ... : ... .. . ... ...
ROW B8 : F-3 00 B P80 ... ... : C#4 00 B P80 ... ... : F-3 00 . ... : D-# 00 6 ... : ... .. . ... ...
ROW B9 : ... .. A ... ... ... : ... .. A ... ... ... : ... .. . ... : ... .. . ... : ... .. . ... ...
ROW BA : ... .. 9 ... ... ... : ... .. 9 ... ... ... : ... .. . ... : ... .. . ... : ... .. . ... ...
ROW BB : ... .. 8 ... ... ... : ... .. 8 ... ... ... : ... .. . ... : ... .. . ... : ... .. . ... ...
ROW BC : ... .. 7 ... ... ... : ... .. 7 ... ... ... : ... .. . ... : ... .. . ... : ... .. . ... ...
ROW BD : ... .. 6 ... ... ... : ... .. 6 ... ... ... : ... .. . ... : ... .. 0 ... : ... .. . ... ...
ROW BE : ... .. 1 ... ... ... : ... .. 1 ... ... ... : ... .. . ... : ... .. . ... : ... .. . ... ...
ROW BF : ... .. . ... ... ... : ... .. . ... ... ... : ... .. . ... : ... .. . ... : ... .. . ... ...
ROW C0 : ... .. . ... ... ... : ... .. . ... ... ... : ... .. . ... : ... .. . ... : ... .. . ... ...
ROW C1 : ... .. . ... ... ... : ... .. . ... ... ... : --- .. . ... : ... .. . ... : ... .. . ... ...
ROW C2 : ... .. . ... ... ... : ... .. . ... ... ... : ... .. . ... : ... .. . ... : ... .. . ... ...
ROW C3 : ... .. . ... ... ... : ... .. . ... ... ... : ... .. . ... : ... .. . ... : ... .. . ... ...
ROW C4 : G-3 00 B P80 ... ... : D#4 00 B P81 ... ... : ... .. . ... : ... .. . ... : ... .. . ... ...
ROW C5 : ... .. A ... ... ... : ... .. A ... ... ... : ... .. . ... : ... .. . ... : ... .. . ... ...
ROW C6 : ... .. 9 ... ... ... : ... .. 9 ... ... ... : ... .. . ... : ... .. . ... : ... .. . ... ...
ROW C7 : ... .. 8 ... ... ... : ... .. 8 ... ... ... : ... .. . ... : ... .. . ... : ... .. . ... ...
ROW C8 : ... .. 7 ... ... ... : ... .. 7 ... ... ... : ... .. . ... : ... .. . ... : ... .. . ... ...
ROW C9 : ... .. 6 ... ... ... : ... .. 6 ... ... ... : ... .. . ... : ... .. . ... : ... .. . ... ...
ROW CA : ... .. 1 ... ... ... : ... .. 1 ... ... ... : C#3 00 . ... : C-# 00 E ... : ... .. . ... ...
ROW CB : ... .. . ... ... ... : ... .. . ... ... ... : ... .. . ... : ... .. 0 ... : ... .. . ... ...
ROW CC : ... .. . ... ... ... : ... .. . ... ... ... : ... .. . ... : ... .. . ... : ... .. . ... ...
ROW CD : ... .. . ... ... ... : ... .. . ... ... ... : ... .. . ... : ... .. . ... : ... .. . ... ...
ROW CE : ... .. . ... ... ... : ... .. . ... ... ... : ... .. . ... : ... .. . ... : ... .. . ... ...
ROW CF : ... .. . ... ... ... : ... .. . ... ... ... : ... .. . ... : ... .. . ... : ... .. . ... ...
ROW D0 : ... .. 5 ... ... ... : ... .. 5 ... ... ... : B-2 00 . ... : D-# 00 6 ... : ... .. . ... ...
ROW D1 : ... .. 4 ... ... ... : ... .. 4 ... ... ... : ... .. . ... : ... .. . ... : ... .. . ... ...
ROW D2 : ... .. 3 ... ... ... : ... .. 3 ... ... ... : ... .. . ... : ... .. . ... : ... .. . ... ...
ROW D3 : ... .. 2 ... ... ... : ... .. 2 ... ... ... : ... .. . ... : ... .. . ... : ... .. . ... ...
ROW D4 : ... .. 1 ... ... ... : ... .. 1 ... ... ... : ... .. . ... : ... .. . ... : ... .. . ... ...
ROW D5 : ... .. . ... ... ... : ... .. . ... ... ... : ... .. . ... : ... .. 0 ... : ... .. . ... ...
ROW D6 : ... .. . ... ... ... : ... .. . ... ... ... : ... .. . ... : ... .. . ... : ... .. . ... ...
ROW D7 : ... .. . ... ... ... : ... .. . ... ... ... : ... .. . ... : ... .. . ... : ... .. . ... ...
ROW D8 : ... .. . ... ... ... : ... .. . ... ... ... : ... .. . ... : ... .. . ... : ... .. . ... ...
ROW D9 : ... .. . ... ... ... : ... .. . ... ... ... : --- .. . ... : ... .. . ... : ... .. . ... ...
ROW DA : ... .. . ... ... ... : ... .. . ... ... ... : ... .. . ... : ... .. . ... : ... .. . ... ...
ROW DB : ... .. . ... ... ... : ... .. . ... ... ... : ... .. . ... : ... .. . ... : ... .. . ... ...
ROW DC : B-3 00 B P80 ... ... : G-4 00 B P81 ... ... : ... .. . ... : ... .. . ... : ... .. . ... ...
ROW DD : ... .. A ... ... ... : ... .. A ... ... ... : ... .. . ... : ... .. . ... : ... .. . ... ...
ROW DE : ... .. 9 ... ... ... : ... .. 9 ... ... ... : ... .. . ... : ... .. . ... : ... .. . ... ...
ROW DF : ... .. 8 ... ... ... : ... .. 8 ... ... ... : ... .. . ... : ... .. . ... : ... .. . ... ...
ROW E0 : ... .. 7 ... ... ... : ... .. 7 ... ... ... : ... .. . ... : ... .. . ... : ... .. . ... ...
ROW E1 : ... .. 6 ... ... ... : ... .. 6 ... ... ... : ... .. . ... : ... .. . ... : ... .. . ... ...
ROW E2 : C-4 00 B P81 ... ... : G#4 00 B P80 ... ... : G-2 00 . ... : C-# 00 E ... : ... .. . ... ...
ROW E3 : ... .. A ... ... ... : ... .. A ... ... ... : ... .. . ... : ... .. 0 ... : ... .. . ... ...
ROW E4 : ... .. 9 ... ... ... : ... .. 9 ... ... ... : ... .. . ... : ... .. . ... : ... .. . ... ...
ROW E5 : ... .. 8 ... ... ... : ... .. 8 ... ... ... : ... .. . ... : ... .. . ... : ... .. . ... ...
ROW E6 : ... .. 7 ... ... ... : ... .. 7 ... ... ... : ... .. . ... : ... .. . ... : ... .. . ... ...
ROW E7 : ... .. 6 ... ... ... : ... .. 6 ... ... ... : ... .. . ... : ... .. . ... : ... .. . ... ...
ROW E8 : G-3 00 B P80 ... ... : D#4 00 B P81 ... ... : G#2 00 . P7F : D-# 00 6 ... : ... .. . ... ...
ROW E9 : ... .. A ... ... ... : ... .. A ... ... ... : ... .. . ... : ... .. . ... : ... .. . ... ...
ROW EA : ... .. 9 ... ... ... : ... .. 9 ... ... ... : ... .. . ... : ... .. . ... : ... .. . ... ...
ROW EB : ... .. 8 ... ... ... : ... .. 8 ... ... ... : ... .. . ... : ... .. . ... : ... .. . ... ...
ROW EC : ... .. 7 ... ... ... : ... .. 7 ... ... ... : ... .. . ... : ... .. . ... : ... .. . ... ...
ROW ED : ... .. 6 ... ... ... : ... .. 6 ... ... ... : ... .. . ... : ... .. 0 ... : ... .. . ... ...
ROW EE : ... .. 1 ... ... ... : ... .. 1 ... ... ... : ... .. . ... : ... .. . ... : ... .. . ... ...
ROW EF : ... .. . ... ... ... : ... .. . ... ... ... : ... .. . ... : ... .. . ... : ... .. . ... ...
ROW F0 : ... .. . ... ... ... : ... .. . ... ... ... : ... .. . ... : ... .. . ... : ... .. . ... ...
ROW F1 : ... .. . ... ... ... : ... .. . ... ... ... : --- .. . ... : ... .. . ... : ... .. . ... ...
ROW F2 : ... .. . ... ... ... : ... .. . ... ... ... : ... .. . ... : ... .. . ... : ... .. . ... ...
ROW F3 : ... .. . ... ... ... : ... .. . ... ... ... : ... .. . ... : ... .. . ... : ... .. . ... ...
ROW F4 : F-3 00 B P80 ... ... : C#4 00 B P80 ... ... : ... .. . ... : ... .. . ... : ... .. . ... ...
ROW F5 : ... .. A ... ... ... : ... .. A ... ... ... : ... .. . ... : ... .. . ... : ... .. . ... ...
ROW F6 : ... .. 9 ... ... ... : ... .. 9 ... ... ... : ... .. . ... : ... .. . ... : ... .. . ... ...
ROW F7 : ... .. 8 ... ... ... : ... .. 8 ... ... ... : ... .. . ... : ... .. . ... : ... .. . ... ...
ROW F8 : ... .. 7 ... ... ... : ... .. 7 ... ... ... : ... .. . ... : ... .. . ... : ... .. . ... ...
ROW F9 : ... .. 6 ... ... ... : ... .. 6 ... ... ... : ... .. . ... : ... .. . ... : ... .. . ... ...
ROW FA : D#3 00 B P80 ... ... : C-4 00 B P81 ... ... : B-2 00 . P80 : C-# 00 E ... : ... .. . ... ...
ROW FB : ... .. A ... ... ... : ... .. A ... ... ... : ... .. . ... : ... .. 0 ... : ... .. . ... ...
ROW FC : ... .. 9 ... ... ... : ... .. 9 ... ... ... : ... .. . ... : ... .. . ... : ... .. . ... ...
ROW FD : ... .. 8 ... ... ... : ... .. 8 ... ... ... : ... .. . ... : ... .. . ... : ... .. . ... ...
ROW FE : ... .. 7 ... ... ... : ... .. 7 ... ... ... : ... .. . ... : ... .. . ... : ... .. . ... ...
ROW FF : ... .. 6 ... ... ... : ... .. 6 ... ... ... : ... .. . ... : ... .. . ... : ... .. . ... ...

PATTERN 0F
ROW 00 : ... .. 5 ... ... ... : ... .. 5 ... ... ... : C-3 00 . ... : D-# 00 6 ... : ... .. . ... ...
ROW 01 : ... .. 4 ... ... ... : ... .. 4 ... ... ... : ... .. . ... : ... .. . ... : ... .. . ... ...
ROW 02 : ... .. 3 ... ... ... : ... .. 3 ... ... ... : ... .. . ... : ... .. . ... : ... .. . ... ...
ROW 03 : ... .. 2 ... ... ... : ... .. 2 ... ... ... : ... .. . ... : ... .. . ... : ... .. . ... ...
ROW 04 : ... .. 1 ... ... ... : ... .. 1 ... ... ... : ... .. . ... : ... .. . ... : ... .. . ... ...
ROW 05 : ... .. . ... ... ... : ... .. . ... ... ... : ... .. . ... : ... .. 0 ... : ... .. . ... ...
ROW 06 : ... .. . ... ... ... : ... .. . ... ... ... : ... .. . ... : ... .. . ... : ... .. . ... ...
ROW 07 : ... .. . ... ... ... : ... .. . ... ... ... : ... .. . ... : ... .. . ... : ... .. . ... ...
ROW 08 : ... .. . ... ... ... : ... .. . ... ... ... : ... .. . ... : ... .. . ... : ... .. . ... ...
ROW 09 : ... .. . ... ... ... : ... .. . ... ... ... : --- .. . ... : ... .. . ... : ... .. . ... ...
ROW 0A : ... .. . ... ... ... : ... .. . ... ... ... : ... .. . ... : ... .. . ... : ... .. . ... ...
ROW 0B : ... .. . ... ... ... : ... .. . ... ... ... : ... .. . ... : ... .. . ... : ... .. . ... ...
ROW 0C : D#3 00 B P80 ... ... : G-3 00 B P80 ... ... : ... .. . ... : ... .. . ... : ... .. . ... ...
ROW 0D : ... .. A ... ... ... : ... .. A ... ... ... : ... .. . ... : ... .. . ... : ... .. . ... ...
ROW 0E : ... .. 9 ... ... ... : ... .. 9 ... ... ... : ... .. . ... : ... .. . ... : ... .. . ... ...
ROW 0F : ... .. 8 ... ... ... : ... .. 8 ... ... ... : ... .. . ... : ... .. . ... : ... .. . ... ...
ROW 10 : C-4 00 B P81 ... ... : D#4 00 B P81 ... ... : ... .. . ... : ... .. . ... : ... .. . ... ...
ROW 11 : ... .. A ... ... ... : ... .. A ... ... ... : ... .. . ... : ... .. . ... : ... .. . ... ...
ROW 12 : ... .. 9 ... ... ... : ... .. 9 ... ... ... : C#3 00 . ... : C-# 00 E ... : ... .. . ... ...
ROW 13 : ... .. 8 ... ... ... : ... .. 8 ... ... ... : ... .. . ... : ... .. 0 ... : ... .. . ... ...
ROW 14 : D#3 00 B P80 ... ... : G-3 00 B P80 ... ... : ... .. . ... : ... .. . ... : ... .. . ... ...
ROW 15 : ... .. A ... ... ... : ... .. A ... ... ... : ... .. . ... : ... .. . ... : ... .. . ... ...
ROW 16 : ... .. 9 ... ... ... : ... .. 9 ... ... ... : ... .. . ... : ... .. . ... : ... .. . ... ...
ROW 17 : ... .. 8 ... ... ... : ... .. 8 ... ... ... : ... .. . ... : ... .. . ... : ... .. . ... ...
ROW 18 : D#3 00 B P80 ... ... : G-3 00 B P80 ... ... : C#3 00 . ... : D-# 00 6 ... : ... .. . ... ...
ROW 19 : ... .. A ... ... ... : ... .. A ... ... ... : ... .. . ... : ... .. . ... : ... .. . ... ...
ROW 1A : ... .. 9 ... ... ... : ... .. 9 ... ... ... : ... .. . ... : ... .. . ... : ... .. . ... ...
ROW 1B : ... .. 8 ... ... ... : ... .. 8 ... ... ... : ... .. . ... : ... .. . ... : ... .. . ... ...
ROW 1C : C-4 00 B P81 ... ... : D#4 00 B P81 ... ... : ... .. . ... : ... .. . ... : ... .. . ... ...
ROW 1D : ... .. A ... ... ... : ... .. A ... ... ... : ... .. . ... : ... .. 0 ... : ... .. . ... ...
ROW 1E : ... .. 9 ... ... ... : ... .. 9 ... ... ... : ... .. . ... : ... .. . ... : ... .. . ... ...
ROW 1F : ... .. 8 ... ... ... : ... .. 8 ... ... ... : ... .. . ... : ... .. . ... : ... .. . ... ...
ROW 20 : D#3 00 B P80 ... ... : G-3 00 B P80 ... ... : ... .. . ... : ... .. . ... : ... .. . ... ...
ROW 21 : ... .. A ... ... ... : ... .. A ... ... ... : --- .. . ... : ... .. . ... : ... .. . ... ...
ROW 22 : ... .. 9 ... ... ... : ... .. 9 ... ... ... : ... .. . ... : ... .. . ... : ... .. . ... ...
ROW 23 : ... .. 8 ... ... ... : ... .. 8 ... ... ... : ... .. . ... : ... .. . ... : ... .. . ... ...
ROW 24 : C-4 00 B P81 ... ... : D#4 00 B P81 ... ... : ... .. . ... : ... .. . ... : ... .. . ... ...
ROW 25 : ... .. A ... ... ... : ... .. A ... ... ... : ... .. . ... : ... .. . ... : ... .. . ... ...
ROW 26 : ... .. 9 ... ... ... : ... .. 9 ... ... ... : ... .. . ... : ... .. . ... : ... .. . ... ...
ROW 27 : ... .. 8 ... ... ... : ... .. 8 ... ... ... : ... .. . ... : ... .. . ... : ... .. . ... ...
ROW 28 : D#3 00 B P80 ... ... : G-3 00 B P80 ... ... : ... .. . ... : ... .. . ... : ... .. . ... ...
ROW 29 : ... .. A ... ... ... : ... .. A ... ... ... : ... .. . ... : ... .. . ... : ... .. . ... ...
ROW 2A : ... .. 9 ... ... ... : ... .. 9 ... ... ... : D-3 00 . ... : C-# 00 E ... : ... .. . ... ...
ROW 2B : ... .. 8 ... ... ... : ... .. 8 ... ... ... : ... .. . ... : ... .. 0 ... : ... .. . ... ...
ROW 2C : C-4 00 B P81 ... ... : D#4 00 B P81 ... ... : ... .. . ... : ... .. . ... : ... .. . ... ...
ROW 2D : ... .. A ... ... ... : ... .. A ... ... ... : ... .. . ... : ... .. . ... : ... .. . ... ...
ROW 2E : ... .. 9 ... ... ... : ... .. 9 ... ... ... : ... .. . ... : ... .. . ... : ... .. . ... ...
ROW 2F : ... .. 8 ... ... ... : ... .. 8 ... ... ... : ... .. . ... : ... .. . ... : ... .. . ... ...
ROW 30 : ... .. . ... ... ... : ... .. . ... ... ... : D#3 00 . ... : D-# 00 6 ... : ... .. . ... ...
ROW 31 : ... .. . ... ... ... : ... .. . ... ... ... : ... .. . ... : ... .. . ... : ... .. . ... ...
ROW 32 : ... .. . ... ... ... : ... .. . ... ... ... : ... .. . ... : ... .. . ... : ... .. . ... ...
ROW 33 : ... .. . ... ... ... : ... .. . ... ... ... : ... .. . ... : ... .. . ... : ... .. . ... ...
ROW 34 : ... .. . ... ... ... : ... .. . ... ... ... : ... .. . ... : ... .. . ... : ... .. . ... ...
ROW 35 : ... .. . ... ... ... : ... .. . ... ... ... : ... .. . ... : ... .. 0 ... : ... .. . ... ...
ROW 36 : ... .. . ... ... ... : ... .. . ... ... ... : --- .. . ... : ... .. . ... : ... .. . ... ...
ROW 37 : ... .. . ... ... ... : ... .. . ... ... ... : ... .. . ... : ... .. . ... : ... .. . ... ...
ROW 38 : ... .. . ... ... ... : ... .. . ... ... ... : ... .. . ... : ... .. . ... : ... .. . ... ...
ROW 39 : ... .. . ... ... ... : ... .. . ... ... ... : ... .. . ... : ... .. . ... : ... .. . ... ...
ROW 3A : ... .. . ... ... ... : ... .. . ... ... ... : ... .. . ... : ... .. . ... : ... .. . ... ...
ROW 3B : ... .. . ... ... ... : ... .. . ... ... ... : ... .. . ... : ... .. . ... : ... .. . ... ...
ROW 3C : B-3 00 5 P80 ... ... : G-4 00 5 P81 ... ... : B-2 00 . ... : ... .. . ... : ... .. . ... ...
ROW 3D : ... .. . ... ... ... : ... .. . ... ... ... : ... .. . ... : ... .. . ... : ... .. . ... ...
ROW 3E : ... .. 6 ... ... ... : ... .. 6 ... ... ... : ... .. . ... : ... .. . ... : ... .. . ... ...
ROW 3F : ... .. 8 ... ... ... : ... .. 8 ... ... ... : ... .. . ... : ... .. . ... : ... .. . ... ...
ROW 40 : ... .. 9 ... ... ... : ... .. 9 ... ... ... : ... .. . ... : ... .. . ... : ... .. . ... ...
ROW 41 : ... .. A ... ... ... : ... .. A ... ... ... : ... .. . ... : ... .. . ... : ... .. . ... ...
ROW 42 : ... .. 1 ... ... ... : ... .. 1 ... ... ... : G#2 00 . P7F : C-# 00 E ... : ... .. . ... ...
ROW 43 : ... .. . ... ... ... : ... .. . ... ... ... : ... .. . ... : ... .. 0 ... : ... .. . ... ...
ROW 44 : ... .. . ... ... ... : ... .. . ... ... ... : ... .. . ... : ... .. . ... : ... .. . ... ...
ROW 45 : ... .. . ... ... ... : ... .. . ... ... ... : ... .. . ... : ... .. . ... : ... .. . ... ...
ROW 46 : ... .. . ... ... ... : ... .. . ... ... ... : ... .. . ... : ... .. . ... : ... .. . ... ...
ROW 47 : ... .. . ... ... ... : ... .. . ... ... ... : ... .. . ... : ... .. . ... : ... .. . ... ...
ROW 48 : G-3 00 5 P80 ... ... : B-3 00 5 P80 ... ... : G-2 00 . P80 : D-# 00 6 ... : ... .. . ... ...
ROW 49 : ... .. . ... ... ... : ... .. . ... ... ... : ... .. . ... : ... .. . ... : ... .. . ... ...
ROW 4A : ... .. 6 ... ... ... : ... .. 6 ... ... ... : ... .. . ... : ... .. . ... : ... .. . ... ...
ROW 4B : ... .. 8 ... ... ... : ... .. 8 ... ... ... : ... .. . ... : ... .. . ... : ... .. . ... ...
ROW 4C : ... .. 9 ... ... ... : ... .. 9 ... ... ... : ... .. . ... : ... .. . ... : ... .. . ... ...
ROW 4D : ... .. A ... ... ... : ... .. A ... ... ... : ... .. . ... : ... .. 0 ... : ... .. . ... ...
ROW 4E : ... .. 1 ... ... ... : ... .. 1 ... ... ... : ... .. . ... : ... .. . ... : ... .. . ... ...
ROW 4F : ... .. . ... ... ... : ... .. . ... ... ... : ... .. . ... : ... .. . ... : ... .. . ... ...
ROW 50 : ... .. . ... ... ... : ... .. . ... ... ... : ... .. . ... : ... .. . ... : ... .. . ... ...
ROW 51 : ... .. . ... ... ... : ... .. . ... ... ... : --- .. . ... : ... .. . ... : ... .. . ... ...
ROW 52 : ... .. . ... ... ... : ... .. . ... ... ... : ... .. . ... : ... .. . ... : ... .. . ... ...
ROW 53 : ... .. . ... ... ... : ... .. . ... ... ... : ... .. . ... : ... .. . ... : ... .. . ... ...
ROW 54 : F-3 00 5 P80 ... ... : G#3 00 5 P80 ... ... : ... .. . ... : ... .. . ... : ... .. . ... ...
ROW 55 : ... .. . ... ... ... : ... .. . ... ... ... : ... .. . ... : ... .. . ... : ... .. . ... ...
ROW 56 : ... .. 6 ... ... ... : ... .. 6 ... ... ... : ... .. . ... : ... .. . ... : ... .. . ... ...
ROW 57 : ... .. 8 ... ... ... : ... .. 8 ... ... ... : ... .. . ... : ... .. . ... : ... .. . ... ...
ROW 58 : ... .. 9 ... ... ... : ... .. 9 ... ... ... : ... .. . ... : ... .. . ... : ... .. . ... ...
ROW 59 : ... .. A ... ... ... : ... .. A ... ... ... : ... .. . ... : ... .. . ... : ... .. . ... ...
ROW 5A : ... .. 1 ... ... ... : ... .. 1 ... ... ... : B-2 00 . ... : C-# 00 E ... : ... .. . ... ...
ROW 5B : ... .. . ... ... ... : ... .. . ... ... ... : ... .. . ... : ... .. 0 ... : ... .. . ... ...
ROW 5C : ... .. . ... ... ... : ... .. . ... ... ... : ... .. . ... : ... .. . ... : ... .. . ... ...
ROW 5D : ... .. . ... ... ... : ... .. . ... ... ... : ... .. . ... : ... .. . ... : ... .. . ... ...
ROW 5E : ... .. . ... ... ... : ... .. . ... ... ... : ... .. . ... : ... .. . ... : ... .. . ... ...
ROW 5F : ... .. . ... ... ... : ... .. . ... ... ... : ... .. . ... : ... .. . ... : ... .. . ... ...
ROW 60 : ... .. . ... ... ... : ... .. . ... ... ... : C-3 00 . ... : D-# 00 6 ... : ... .. . ... ...
ROW 61 : ... .. . ... ... ... : ... .. . ... ... ... : ... .. . ... : ... .. . ... : ... .. . ... ...
ROW 62 : ... .. . ... ... ... : ... .. . ... ... ... : ... .. . ... : ... .. . ... : ... .. . ... ...
ROW 63 : ... .. . ... ... ... : ... .. . ... ... ... : ... .. . ... : ... .. . ... : ... .. . ... ...
ROW 64 : ... .. . ... ... ... : ... .. . ... ... ... : ... .. . ... : ... .. . ... : ... .. . ... ...
ROW 65 : ... .. . ... ... ... : ... .. . ... ... ... : ... .. . ... : ... .. 0 ... : ... .. . ... ...
ROW 66 : ... .. . ... ... ... : ... .. . ... ... ... : ... .. . ... : ... .. . ... : ... .. . ... ...
ROW 67 : ... .. . ... ... ... : ... .. . ... ... ... : ... .. . ... : ... .. . ... : ... .. . ... ...
ROW 68 : ... .. . ... ... ... : ... .. . ... ... ... : ... .. . ... : ... .. . ... : ... .. . ... ...
ROW 69 : ... .. . ... ... ... : ... .. . ... ... ... : --- .. . ... : ... .. . ... : ... .. . ... ...
ROW 6A : ... .. . ... ... ... : ... .. . ... ... ... : ... .. . ... : ... .. . ... : ... .. . ... ...
ROW 6B : ... .. . ... ... ... : ... .. . ... ... ... : ... .. . ... : ... .. . ... : ... .. . ... ...
ROW 6C : G-3 00 B P80 ... ... : D#4 00 B P81 ... ... : ... .. . ... : ... .. . ... : ... .. . ... ...
ROW 6D : ... .. A ... ... ... : ... .. A ... ... ... : ... .. . ... : ... .. . ... : ... .. . ... ...
ROW 6E : ... .. 9 ... ... ... : ... .. 9 ... ... ... : ... .. . ... : ... .. . ... : ... .. . ... ...
ROW 6F : ... .. 8 ... ... ... : ... .. 8 ... ... ... : ... .. . ... : ... .. . ... : ... .. . ... ...
ROW 70 : ... .. 7 ... ... ... : ... .. 7 ... ... ... : ... .. . ... : ... .. . ... : ... .. . ... ...
ROW 71 : ... .. 6 ... ... ... : ... .. 6 ... ... ... : ... .. . ... : ... .. . ... : ... .. . ... ...
ROW 72 : ... .. 5 ... ... ... : ... .. 5 ... ... ... : C#3 00 . ... : C-# 00 E ... : ... .. . ... ...
ROW 73 : ... .. 4 ... ... ... : ... .. 4 ... ... ... : ... .. . ... : ... .. 0 ... : ... .. . ... ...
ROW 74 : ... .. 3 ... ... ... : ... .. 3 ... ... ... : ... .. . ... : ... .. . ... : ... .. . ... ...
ROW 75 : ... .. 2 ... ... ... : ... .. 2 ... ... ... : ... .. . ... : ... .. . ... : ... .. . ... ...
ROW 76 : ... .. 1 ... ... ... : ... .. 1 ... ... ... : ... .. . ... : ... .. . ... : ... .. . ... ...
ROW 77 : ... .. . ... ... ... : ... .. . ... ... ... : ... .. . ... : ... .. . ... : ... .. . ... ...
ROW 78 : C-4 00 B P81 ... ... : G-4 00 B P81 ... ... : D#3 00 . ... : D-# 00 6 ... : ... .. . ... ...
ROW 79 : ... .. A ... ... ... : ... .. A ... ... ... : ... .. . ... : ... .. . ... : ... .. . ... ...
ROW 7A : ... .. 9 ... ... ... : ... .. 9 ... ... ... : ... .. . ... : ... .. . ... : ... .. . ... ...
ROW 7B : ... .. 8 ... ... ... : ... .. 8 ... ... ... : ... .. . ... : ... .. . ... : ... .. . ... ...
ROW 7C : ... .. 7 ... ... ... : ... .. 7 ... ... ... : ... .. . ... : ... .. . ... : ... .. . ... ...
ROW 7D : ... .. 6 ... ... ... : ... .. 6 ... ... ... : ... .. . ... : ... .. 0 ... : ... .. . ... ...
ROW 7E : ... .. 1 ... ... ... : ... .. 1 ... ... ... : ... .. . ... : ... .. . ... : ... .. . ... ...
ROW 7F : ... .. . ... ... ... : ... .. . ... ... ... : ... .. . ... : ... .. . ... : ... .. . ... ...
ROW 80 : ... .. . ... ... ... : ... .. . ... ... ... : ... .. . ... : ... .. . ... : ... .. . ... ...
ROW 81 : ... .. . ... ... ... : ... .. . ... ... ... : --- .. . ... : ... .. . ... : ... .. . ... ...
ROW 82 : ... .. . ... ... ... : ... .. . ... ... ... : ... .. . ... : ... .. . ... : ... .. . ... ...
ROW 83 : ... .. . ... ... ... : ... .. . ... ... ... : ... .. . ... : ... .. . ... : ... .. . ... ...
ROW 84 : ... .. . ... ... ... : ... .. . ... ... ... : ... .. . ... : ... .. . ... : ... .. . ... ...
ROW 85 : ... .. . ... ... ... : ... .. . ... ... ... : ... .. . ... : ... .. . ... : ... .. . ... ...
ROW 86 : ... .. . ... ... ... : ... .. . ... ... ... : ... .. . ... : ... .. . ... : ... .. . ... ...
ROW 87 : ... .. . ... ... ... : ... .. . ... ... ... : ... .. . ... : ... .. . ... : ... .. . ... ...
ROW 88 : ... .. . ... ... ... : ... .. . ... ... ... : ... .. . ... : ... .. . ... : ... .. . ... ...
ROW 89 : ... .. . ... ... ... : ... .. . ... ... ... : ... .. . ... : ... .. . ... : ... .. . ... ...
ROW 8A : D#4 00 B P81 ... ... : G#4 00 B P80 ... ... : G-3 00 . ... : C-# 00 E ... : ... .. . ... ...
ROW 8B : ... .. A ... ... ... : ... .. A ... ... ... : ... .. . ... : ... .. 0 ... : ... .. . ... ...
ROW 8C : ... .. 9 ... ... ... : ... .. 9 ... ... ... : ... .. . ... : ... .. . ... : ... .. . ... ...
ROW 8D : ... .. 8 ... ... ... : ... .. 8 ... ... ... : ... .. . ... : ... .. . ... : ... .. . ... ...
ROW 8E : ... .. 7 ... ... ... : ... .. 7 ... ... ... : ... .. . ... : ... .. . ... : ... .. . ... ...
ROW 8F : ... .. 6 ... ... ... : ... .. 6 ... ... ... : ... .. . ... : ... .. . ... : ... .. . ... ...
ROW 90 : ... .. 5 ... ... ... : ... .. 5 ... ... ... : G#3 00 . ... : D-# 00 6 ... : ... .. . ... ...
ROW 91 : ... .. 4 ... ... ... : ... .. 4 ... ... ... : ... .. . ... : ... .. . ... : ... .. . ... ...
ROW 92 : ... .. 3 ... ... ... : ... .. 3 ... ... ... : ... .. . ... : ... .. . ... : ... .. . ... ...
ROW 93 : ... .. 2 ... ... ... : ... .. 2 ... ... ... : ... .. . ... : ... .. . ... : ... .. . ... ...
ROW 94 : ... .. 1 ... ... ... : ... .. 1 ... ... ... : ... .. . ... : ... .. . ... : ... .. . ... ...
ROW 95 : ... .. . ... ... ... : ... .. . ... ... ... : ... .. . ... : ... .. 0 ... : ... .. . ... ...
ROW 96 : ... .. . ... ... ... : ... .. . ... ... ... : ... .. . ... : ... .. . ... : ... .. . ... ...
ROW 97 : ... .. . ... ... ... : ... .. . ... ... ... : ... .. . ... : ... .. . ... : ... .. . ... ...
ROW 98 : ... .. . ... ... ... : ... .. . ... ... ... : ... .. . ... : ... .. . ... : ... .. . ... ...
ROW 99 : ... .. . ... ... ... : ... .. . ... ... ... : --- .. . ... : ... .. . ... : ... .. . ... ...
ROW 9A : ... .. . ... ... ... : ... .. . ... ... ... : ... .. . ... : ... .. . ... : ... .. . ... ...
ROW 9B : ... .. . ... ... ... : ... .. . ... ... ... : ... .. . ... : ... .. . ... : ... .. . ... ...
ROW 9C : ... .. . ... ... ... : ... .. . ... ... ... : ... .. . ... : ... .. . ... : ... .. . ... ...
ROW 9D : ... .. . ... ... ... : ... .. . ... ... ... : ... .. . ... : ... .. . ... : ... .. . ... ...
ROW 9E : ... .. . ... ... ... : ... .. . ... ... ... : ... .. . ... : ... .. . ... : ... .. . ... ...
ROW 9F : ... .. . ... ... ... : ... .. . ... ... ... : ... .. . ... : ... .. . ... : ... .. . ... ...
ROW A0 : ... .. . ... ... ... : ... .. . ... ... ... : ... .. . ... : ... .. . ... : ... .. . ... ...
ROW A1 : ... .. . ... ... ... : ... .. . ... ... ... : ... .. . ... : ... .. . ... : ... .. . ... ...
ROW A2 : ... .. . ... ... ... : ... .. . ... ... ... : G-3 00 . ... : C-# 00 E ... : ... .. . ... ...
ROW A3 : ... .. . ... ... ... : ... .. . ... ... ... : ... .. . ... : ... .. 0 ... : ... .. . ... ...
ROW A4 : ... .. . ... ... ... : ... .. . ... ... ... : ... .. . ... : ... .. . ... : ... .. . ... ...
ROW A5 : ... .. . ... ... ... : ... .. . ... ... ... : ... .. . ... : ... .. . ... : ... .. . ... ...
ROW A6 : ... .. . ... ... ... : ... .. . ... ... ... : ... .. . ... : ... .. . ... : ... .. . ... ...
ROW A7 : ... .. . ... ... ... : ... .. . ... ... ... : ... .. . ... : ... .. . ... : ... .. . ... ...
ROW A8 : D#4 00 B P81 ... ... : G#4 00 B P80 ... ... : D#3 00 . ... : D-# 00 6 ... : ... .. . ... ...
ROW A9 : ... .. A ... ... ... : ... .. A ... ... ... : ... .. . ... : ... .. . ... : ... .. . ... ...
ROW AA : ... .. 9 ... ... ... : ... .. 9 ... ... ... : ... .. . ... : ... .. . ... : ... .. . ... ...
ROW AB : ... .. 8 ... ... ... : ... .. 8 ... ... ... : ... .. . ... : ... .. . ... : ... .. . ... ...
ROW AC : ... .. 7 ... ... ... : ... .. 7 ... ... ... : ... .. . ... : ... .. . ... : ... .. . ... ...
ROW AD : ... .. 6 ... ... ... : ... .. 6 ... ... ... : ... .. . ... : ... .. 0 ... : ... .. . ... ...
ROW AE : ... .. 1 ... ... ... : ... .. 1 ... ... ... : ... .. . ... : ... .. . ... : ... .. . ... ...
ROW AF : ... .. . ... ... ... : ... .. . ... ... ... : ... .. . ... : ... .. . ... : ... .. . ... ...
ROW B0 : ... .. . ... ... ... : ... .. . ... ... ... : ... .. . ... : ... .. . ... : ... .. . ... ...
ROW B1 : ... .. . ... ... ... : ... .. . ... ... ... : --- .. . ... : ... .. . ... : ... .. . ... ...
ROW B2 : ... .. . ... ... ... : ... .. . ... ... ... : ... .. . ... : ... .. . ... : ... .. . ... ...
ROW B3 : ... .. . ... ... ... : ... .. . ... ... ... : ... .. . ... : ... .. . ... : ... .. . ... ...
ROW B4 : C-4 00 B P81 ... ... : G-4 00 B P81 ... ... : ... .. . ... : ... .. . ... : ... .. . ... ...
ROW B5 : ... .. A ... ... ... : ... .. A ... ... ... : ... .. . ... : ... .. . ... : ... .. . ... ...
ROW B6 : ... .. 9 ... ... ... : ... .. 9 ... ... ... : ... .. . ... : ... .. . ... : ... .. . ... ...
ROW B7 : ... .. 8 ... ... ... : ... .. 8 ... ... ... : ... .. . ... : ... .. . ... : ... .. . ... ...
ROW B8 : ... .. 7 ... ... ... : ... .. 7 ... ... ... : ... .. . ... : ... .. . ... : ... .. . ... ...
ROW B9 : ... .. 6 ... ... ... : ... .. 6 ... ... ... : ... .. . ... : ... .. . ... : ... .. . ... ...
ROW BA : G#3 00 B P80 ... ... : D#4 00 B P81 ... ... : C-3 00 . ... : C-# 00 E ... : ... .. . ... ...
ROW BB : ... .. A ... ... ... : ... .. A ... ... ... : ... .. . ... : ... .. 0 ... : ... .. . ... ...
ROW BC : ... .. 9 ... ... ... : ... .. 9 ... ... ... : ... .. . ... : ... .. . ... : ... .. . ... ...
ROW BD : ... .. 8 ... ... ... : ... .. 8 ... ... ... : ... .. . ... : ... .. . ... : ... .. . ... ...
ROW BE : ... .. 7 ... ... ... : ... .. 7 ... ... ... : ... .. . ... : ... .. . ... : ... .. . ... ...
ROW BF : ... .. 6 ... ... ... : ... .. 6 ... ... ... : ... .. . ... : ... .. . ... : ... .. . ... ...
ROW C0 : F#3 00 B P80 ... ... : C#4 00 B P80 ... ... : C#3 00 . ... : D-# 00 6 ... : ... .. . ... ...
ROW C1 : ... .. A ... ... ... : ... .. A ... ... ... : ... .. . ... : ... .. . ... : ... .. . ... ...
ROW C2 : ... .. 9 ... ... ... : ... .. 9 ... ... ... : ... .. . ... : ... .. . ... : ... .. . ... ...
ROW C3 : ... .. 8 ... ... ... : ... .. 8 ... ... ... : ... .. . ... : ... .. . ... : ... .. . ... ...
ROW C4 : ... .. 7 ... ... ... : ... .. 7 ... ... ... : ... .. . ... : ... .. . ... : ... .. . ... ...
ROW C5 : ... .. 6 ... ... ... : ... .. 6 ... ... ... : ... .. . ... : ... .. 0 ... : ... .. . ... ...
ROW C6 : ... .. 1 ... ... ... : ... .. 1 ... ... ... : ... .. . ... : ... .. . ... : ... .. . ... ...
ROW C7 : ... .. . ... ... ... : ... .. . ... ... ... : ... .. . ... : ... .. . ... : ... .. . ... ...
ROW C8 : ... .. . ... ... ... : ... .. . ... ... ... : ... .. . ... : ... .. . ... : ... .. . ... ...
ROW C9 : ... .. . ... ... ... : ... .. . ... ... ... : --- .. . ... : ... .. . ... : ... .. . ... ...
ROW CA : ... .. . ... ... ... : ... .. . ... ... ... : ... .. . ... : ... .. . ... : ... .. . ... ...
ROW CB : ... .. . ... ... ... : ... .. . ... ... ... : ... .. . ... : ... .. . ... : ... .. . ... ...
ROW CC : G-3 00 B P80 ... ... : D#4 00 B P81 ... ... : ... .. . ... : ... .. . ... : ... .. . ... ...
ROW CD : ... .. A ... ... ... : ... .. A ... ... ... : ... .. . ... : ... .. . ... : ... .. . ... ...
ROW CE : ... .. 9 ... ... ... : ... .. 9 ... ... ... : ... .. . ... : ... .. . ... : ... .. . ... ...
ROW CF : ... .. 8 ... ... ... : ... .. 8 ... ... ... : ... .. . ... : ... .. . ... : ... .. . ... ...
ROW D0 : ... .. 7 ... ... ... : ... .. 7 ... ... ... : ... .. . ... : ... .. . ... : ... .. . ... ...
ROW D1 : ... .. 6 ... ... ... : ... .. 6 ... ... ... : ... .. . ... : ... .. . ... : ... .. . ... ...
ROW D2 : F#3 00 B P80 ... ... : C#4 00 B P80 ... ... : D#3 00 . ... : C-# 00 E ... : ... .. . ... ...
ROW D3 : ... .. A ... ... ... : ... .. A ... ... ... : ... .. . ... : ... .. 0 ... : ... .. . ... ...
ROW D4 : ... .. 9 ... ... ... : ... .. 9 ... ... ... : ... .. . ... : ... .. . ... : ... .. . ... ...
ROW D5 : ... .. 8 ... ... ... : ... .. 8 ... ... ... : ... .. . ... : ... .. . ... : ... .. . ... ...
ROW D6 : ... .. 7 ... ... ... : ... .. 7 ... ... ... : ... .. . ... : ... .. . ... : ... .. . ... ...
ROW D7 : ... .. 6 ... ... ... : ... .. 6 ... ... ... : ... .. . ... : ... .. . ... : ... .. . ... ...
ROW D8 : F#3 00 B P80 ... ... : C#4 00 B P80 ... ... : F#3 00 . ... : D-# 00 6 ... : ... .. . ... ...
ROW D9 : ... .. A ... ... ... : ... .. A ... ... ... : ... .. . ... : ... .. . ... : ... .. . ... ...
ROW DA : ... .. 9 ... ... ... : ... .. 9 ... ... ... : ... .. . ... : ... .. . ... : ... .. . ... ...
ROW DB : ... .. 8 ... ... ... : ... .. 8 ... ... ... : ... .. . ... : ... .. . ... : ... .. . ... ...
ROW DC : ... .. 7 ... ... ... : ... .. 7 ... ... ... : ... .. . ... : ... .. . ... : ... .. . ... ...
ROW DD : ... .. 6 ... ... ... : ... .. 6 ... ... ... : ... .. . ... : ... .. 0 ... : ... .. . ... ...
ROW DE : ... .. 1 ... ... ... : ... .. 1 ... ... ... : ... .. . ... : ... .. . ... : ... .. . ... ...
ROW DF : ... .. . ... ... ... : ... .. . ... ... ... : ... .. . ... : ... .. . ... : ... .. . ... ...
ROW E0 : ... .. . ... ... ... : ... .. . ... ... ... : ... .. . ... : ... .. . ... : ... .. . ... ...
ROW E1 : ... .. . ... ... ... : ... .. . ... ... ... : --- .. . ... : ... .. . ... : ... .. . ... ...
ROW E2 : ... .. . ... ... ... : ... .. . ... ... ... : ... .. . ... : ... .. . ... : ... .. . ... ...
ROW E3 : ... .. . ... ... ... : ... .. . ... ... ... : ... .. . ... : ... .. . ... : ... .. . ... ...
ROW E4 : C#3 00 B P80 ... ... : G#3 00 B P80 ... ... : ... .. . ... : ... .. . ... : ... .. . ... ...
ROW E5 : ... .. A ... ... ... : ... .. A ... ... ... : ... .. . ... : ... .. . ... : ... .. . ... ...
ROW E6 : ... .. 9 ... ... ... : ... .. 9 ... ... ... : ... .. . ... : ... .. . ... : ... .. . ... ...
ROW E7 : ... .. 8 ... ... ... : ... .. 8 ... ... ... : ... .. . ... : ... .. . ... : ... .. . ... ...
ROW E8 : ... .. 7 ... ... ... : ... .. 7 ... ... ... : ... .. . ... : ... .. . ... : ... .. . ... ...
ROW E9 : ... .. 6 ... ... ... : ... .. 6 ... ... ... : ... .. . ... : ... .. . ... : ... .. . ... ...
ROW EA : ... .. 1 ... ... ... : ... .. 1 ... ... ... : G#2 00 . P7F : C-# 00 E ... : ... .. . ... ...
ROW EB : ... .. . ... ... ... : ... .. . ... ... ... : ... .. . ... : ... .. 0 ... : ... .. . ... ...
ROW EC : ... .. . ... ... ... : ... .. . ... ... ... : ... .. . ... : ... .. . ... : ... .. . ... ...
ROW ED : ... .. . ... ... ... : ... .. . ... ... ... : ... .. . ... : ... .. . ... : ... .. . ... ...
ROW EE : ... .. . ... ... ... : ... .. . ... ... ... : ... .. . ... : ... .. . ... : ... .. . ... ...
ROW EF : ... .. . ... ... ... : ... .. . ... ... ... : ... .. . ... : ... .. . ... : ... .. . ... ...
ROW F0 : ... .. 5 ... ... ... : ... .. 5 ... ... ... : C#3 00 . P80 : D-# 00 6 ... : ... .. . ... ...
ROW F1 : ... .. 4 ... ... ... : ... .. 4 ... ... ... : ... .. . ... : ... .. . ... : ... .. . ... ...
ROW F2 : ... .. 3 ... ... ... : ... .. 3 ... ... ... : ... .. . ... : ... .. . ... : ... .. . ... ...
ROW F3 : ... .. 2 ... ... ... : ... .. 2 ... ... ... : ... .. . ... : ... .. . ... : ... .. . ... ...
ROW F4 : ... .. 1 ... ... ... : ... .. 1 ... ... ... : ... .. . ... : ... .. . ... : ... .. . ... ...
ROW F5 : ... .. . ... ... ... : ... .. . ... ... ... : ... .. . ... : ... .. 0 ... : ... .. . ... ...
ROW F6 : ... .. . ... ... ... : ... .. . ... ... ... : --- .. . ... : ... .. . ... : ... .. . ... ...
ROW F7 : ... .. . ... ... ... : ... .. . ... ... ... : ... .. . ... : ... .. . ... : ... .. . ... ...
ROW F8 : ... .. . ... ... ... : ... .. . ... ... ... : ... .. . ... : ... .. . ... : ... .. . ... ...
ROW F9 : ... .. . ... ... ... : ... .. . ... ... ... : ... .. . ... : ... .. . ... : ... .. . ... ...
ROW FA : ... .. . ... ... ... : ... .. . ... ... ... : ... .. . ... : ... .. . ... : ... .. . ... ...
ROW FB : ... .. . ... ... ... : ... .. . ... ... ... : ... .. . ... : ... .. . ... : ... .. . ... ...
ROW FC : C#3 00 B P80 ... ... : G#3 00 B P80 ... ... : D#3 00 . ... : ... .. . ... : ... .. . ... ...
ROW FD : ... .. A ... ... ... : ... .. A ... ... ... : ... .. . ... : ... .. . ... : ... .. . ... ...
ROW FE : ... .. 9 ... ... ... : ... .. 9 ... ... ... : ... .. . ... : ... .. . ... : ... .. . ... ...
ROW FF : ... .. 8 ... ... ... : ... .. 8 ... ... ... : ... .. . ... : ... .. . ... : ... .. . ... ...

PATTERN 10
ROW 00 : F#3 00 B P80 ... ... : C#4 00 B P80 ... ... : ... .. . ... : ... .. . ... : ... .. . ... ...
ROW 01 : ... .. A ... ... ... : ... .. A ... ... ... : ... .. . ... : ... .. . ... : ... .. . ... ...
ROW 02 : ... .. 9 ... ... ... : ... .. 9 ... ... ... : C-3 00 . ... : C-# 00 E ... : ... .. . ... ...
ROW 03 : ... .. 8 ... ... ... : ... .. 8 ... ... ... : ... .. . ... : ... .. 0 ... : ... .. . ... ...
ROW 04 : C#3 00 B P80 ... ... : G#3 00 B P80 ... ... : ... .. . ... : ... .. . ... : ... .. . ... ...
ROW 05 : ... .. A ... ... ... : ... .. A ... ... ... : ... .. . ... : ... .. . ... : ... .. . ... ...
ROW 06 : ... .. 9 ... ... ... : ... .. 9 ... ... ... : ... .. . ... : ... .. . ... : ... .. . ... ...
ROW 07 : ... .. 8 ... ... ... : ... .. 8 ... ... ... : ... .. . ... : ... .. . ... : ... .. . ... ...
ROW 08 : F#3 00 B P80 ... ... : G#3 00 B P80 ... ... : B-2 00 . ... : D-# 00 6 ... : ... .. . ... ...
ROW 09 : ... .. A ... ... ... : ... .. A ... ... ... : ... .. . ... : ... .. . ... : ... .. . ... ...
ROW 0A : ... .. 9 ... ... ... : ... .. 9 ... ... ... : ... .. . ... : ... .. . ... : ... .. . ... ...
ROW 0B : ... .. 8 ... ... ... : ... .. 8 ... ... ... : ... .. . ... : ... .. . ... : ... .. . ... ...
ROW 0C : C#3 00 B P80 ... ... : C#4 00 B P80 ... ... : ... .. . ... : ... .. . ... : ... .. . ... ...
ROW 0D : ... .. A ... ... ... : ... .. A ... ... ... : ... .. . ... : ... .. 0 ... : ... .. . ... ...
ROW 0E : ... .. 9 ... ... ... : ... .. 9 ... ... ... : ... .. . ... : ... .. . ... : ... .. . ... ...
ROW 0F : ... .. 8 ... ... ... : ... .. 8 ... ... ... : ... .. . ... : ... .. . ... : ... .. . ... ...
ROW 10 : F#3 00 B P80 ... ... : G#3 00 B P80 ... ... : ... .. . ... : ... .. . ... : ... .. . ... ...
ROW 11 : ... .. A ... ... ... : ... .. A ... ... ... : --- .. . ... : ... .. . ... : ... .. . ... ...
ROW 12 : ... .. 9 ... ... ... : ... .. 9 ... ... ... : ... .. . ... : ... .. . ... : ... .. . ... ...
ROW 13 : ... .. 8 ... ... ... : ... .. 8 ... ... ... : ... .. . ... : ... .. . ... : ... .. . ... ...
ROW 14 : C#3 00 B P80 ... ... : C#4 00 B P80 ... ... : ... .. . ... : ... .. . ... : ... .. . ... ...
ROW 15 : ... .. A ... ... ... : ... .. A ... ... ... : ... .. . ... : ... .. . ... : ... .. . ... ...
ROW 16 : ... .. 9 ... ... ... : ... .. 9 ... ... ... : ... .. . ... : ... .. . ... : ... .. . ... ...
ROW 17 : ... .. 8 ... ... ... : ... .. 8 ... ... ... : ... .. . ... : ... .. . ... : ... .. . ... ...
ROW 18 : F#3 00 B P80 ... ... : G#3 00 B P80 ... ... : ... .. . ... : ... .. . ... : ... .. . ... ...
ROW 19 : ... .. A ... ... ... : ... .. A ... ... ... : ... .. . ... : ... .. . ... : ... .. . ... ...
ROW 1A : ... .. 9 ... ... ... : ... .. 9 ... ... ... : G#2 00 . P7F : C-# 00 E ... : ... .. . ... ...
ROW 1B : ... .. 8 ... ... ... : ... .. 8 ... ... ... : ... .. . ... : ... .. 0 ... : ... .. . ... ...
ROW 1C : C#3 00 B P80 ... ... : C#4 00 B P80 ... ... : ... .. . ... : ... .. . ... : ... .. . ... ...
ROW 1D : ... .. A ... ... ... : ... .. A ... ... ... : ... .. . ... : ... .. . ... : ... .. . ... ...
ROW 1E : ... .. 9 ... ... ... : ... .. 9 ... ... ... : ... .. . ... : ... .. . ... : ... .. . ... ...
ROW 1F : ... .. 8 ... ... ... : ... .. 8 ... ... ... : ... .. . ... : ... .. . ... : ... .. . ... ...
ROW 20 : ... .. 5 ... ... ... : ... .. 5 ... ... ... : G-2 00 . P80 : D-# 00 6 ... : ... .. . ... ...
ROW 21 : ... .. 4 ... ... ... : ... .. 4 ... ... ... : ... .. . ... : ... .. . ... : ... .. . ... ...
ROW 22 : ... .. 3 ... ... ... : ... .. 3 ... ... ... : ... .. . ... : ... .. . ... : ... .. . ... ...
ROW 23 : ... .. 2 ... ... ... : ... .. 2 ... ... ... : ... .. . ... : ... .. . ... : ... .. . ... ...
ROW 24 : ... .. 1 ... ... ... : ... .. 1 ... ... ... : ... .. . ... : ... .. . ... : ... .. . ... ...
ROW 25 : ... .. . ... ... ... : ... .. . ... ... ... : ... .. . ... : ... .. 0 ... : ... .. . ... ...
ROW 26 : ... .. . ... ... ... : ... .. . ... ... ... : ... .. . ... : ... .. . ... : ... .. . ... ...
ROW 27 : ... .. . ... ... ... : ... .. . ... ... ... : ... .. . ... : ... .. . ... : ... .. . ... ...
ROW 28 : ... .. . ... ... ... : ... .. . ... ... ... : ... .. . ... : ... .. . ... : ... .. . ... ...
ROW 29 : ... .. . ... ... ... : ... .. . ... ... ... : --- .. . ... : ... .. . ... : ... .. . ... ...
ROW 2A : ... .. . ... ... ... : ... .. . ... ... ... : ... .. . ... : ... .. . ... : ... .. . ... ...
ROW 2B : ... .. . ... ... ... : ... .. . ... ... ... : ... .. . ... : ... .. . ... : ... .. . ... ...
ROW 2C : G-3 00 B P80 ... ... : D#4 00 B P81 ... ... : ... .. . ... : ... .. . ... : ... .. . ... ...
ROW 2D : ... .. A ... ... ... : ... .. A ... ... ... : ... .. . ... : ... .. . ... : ... .. . ... ...
ROW 2E : ... .. 9 ... ... ... : ... .. 9 ... ... ... : ... .. . ... : ... .. . ... : ... .. . ... ...
ROW 2F : ... .. 8 ... ... ... : ... .. 8 ... ... ... : ... .. . ... : ... .. . ... : ... .. . ... ...
ROW 30 : ... .. 7 ... ... ... : ... .. 7 ... ... ... : ... .. . ... : ... .. . ... : ... .. . ... ...
ROW 31 : ... .. 6 ... ... ... : ... .. 6 ... ... ... : ... .. . ... : ... .. . ... : ... .. . ... ...
ROW 32 : F-3 00 B P80 ... ... : C#4 00 B P80 ... ... : G-3 00 . ... : C-# 00 E ... : ... .. . ... ...
ROW 33 : ... .. A ... ... ... : ... .. A ... ... ... : ... .. . ... : ... .. 0 ... : ... .. . ... ...
ROW 34 : ... .. 9 ... ... ... : ... .. 9 ... ... ... : ... .. . ... : ... .. . ... : ... .. . ... ...
ROW 35 : ... .. 8 ... ... ... : ... .. 8 ... ... ... : ... .. . ... : ... .. . ... : ... .. . ... ...
ROW 36 : ... .. 7 ... ... ... : ... .. 7 ... ... ... : ... .. . ... : ... .. . ... : ... .. . ... ...
ROW 37 : ... .. 6 ... ... ... : ... .. 6 ... ... ... : ... .. . ... : ... .. . ... : ... .. . ... ...
ROW 38 : F-3 00 B P80 ... ... : C#4 00 B P80 ... ... : F-3 00 . ... : D-# 00 6 ... : ... .. . ... ...
ROW 39 : ... .. A ... ... ... : ... .. A ... ... ... : ... .. . ... : ... .. . ... : ... .. . ... ...
ROW 3A : ... .. 9 ... ... ... : ... .. 9 ... ... ... : ... .. . ... : ... .. . ... : ... .. . ... ...
ROW 3B : ... .. 8 ... ... ... : ... .. 8 ... ... ... : ... .. . ... : ... .. . ... : ... .. . ... ...
ROW 3C : ... .. 7 ... ... ... : ... .. 7 ... ... ... : ... .. . ... : ... .. . ... : ... .. . ... ...
ROW 3D : ... .. 6 ... ... ... : ... .. 6 ... ... ... : ... .. . ... : ... .. 0 ... : ... .. . ... ...
ROW 3E : ... .. 1 ... ... ... : ... .. 1 ... ... ... : ... .. . ... : ... .. . ... : ... .. . ... ...
ROW 3F : ... .. . ... ... ... : ... .. . ... ... ... : ... .. . ... : ... .. . ... : ... .. . ... ...
ROW 40 : ... .. . ... ... ... : ... .. . ... ... ... : ... .. . ... : ... .. . ... : ... .. . ... ...
ROW 41 : ... .. . ... ... ... : ... .. . ... ... ... : --- .. . ... : ... .. . ... : ... .. . ... ...
ROW 42 : ... .. . ... ... ... : ... .. . ... ... ... : ... .. . ... : ... .. . ... : ... .. . ... ...
ROW 43 : ... .. . ... ... ... : ... .. . ... ... ... : ... .. . ... : ... .. . ... : ... .. . ... ...
ROW 44 : G-3 00 B P80 ... ... : D#4 00 B P81 ... ... : ... .. . ... : ... .. . ... : ... .. . ... ...
ROW 45 : ... .. A ... ... ... : ... .. A ... ... ... : ... .. . ... : ... .. . ... : ... .. . ... ...
ROW 46 : ... .. 9 ... ... ... : ... .. 9 ... ... ... : ... .. . ... : ... .. . ... : ... .. . ... ...
ROW 47 : ... .. 8 ... ... ... : ... .. 8 ... ... ... : ... .. . ... : ... .. . ... : ... .. . ... ...
ROW 48 : ... .. 7 ... ... ... : ... .. 7 ... ... ... : ... .. . ... : ... .. . ... : ... .. . ... ...
ROW 49 : ... .. 6 ... ... ... : ... .. 6 ... ... ... : ... .. . ... : ... .. . ... : ... .. . ... ...
ROW 4A : ... .. 1 ... ... ... : ... .. 1 ... ... ... : C#3 00 . ... : C-# 00 E ... : ... .. . ... ...
ROW 4B : ... .. . ... ... ... : ... .. . ... ... ... : ... .. . ... : ... .. 0 ... : ... .. . ... ...
ROW 4C : ... .. . ... ... ... : ... .. . ... ... ... : ... .. . ... : ... .. . ... : ... .. . ... ...
ROW 4D : ... .. . ... ... ... : ... .. . ... ... ... : ... .. . ... : ... .. . ... : ... .. . ... ...
ROW 4E : ... .. . ... ... ... : ... .. . ... ... ... : ... .. . ... : ... .. . ... : ... .. . ... ...
ROW 4F : ... .. . ... ... ... : ... .. . ... ... ... : ... .. . ... : ... .. . ... : ... .. . ... ...
ROW 50 : ... .. 5 ... ... ... : ... .. 5 ... ... ... : B-2 00 . ... : D-# 00 6 ... : ... .. . ... ...
ROW 51 : ... .. 4 ... ... ... : ... .. 4 ... ... ... : ... .. . ... : ... .. . ... : ... .. . ... ...
ROW 52 : ... .. 3 ... ... ... : ... .. 3 ... ... ... : ... .. . ... : ... .. . ... : ... .. . ... ...
ROW 53 : ... .. 2 ... ... ... : ... .. 2 ... ... ... : ... .. . ... : ... .. . ... : ... .. . ... ...
ROW 54 : ... .. 1 ... ... ... : ... .. 1 ... ... ... : ... .. . ... : ... .. . ... : ... .. . ... ...
ROW 55 : ... .. . ... ... ... : ... .. . ... ... ... : ... .. . ... : ... .. 0 ... : ... .. . ... ...
ROW 56 : ... .. . ... ... ... : ... .. . ... ... ... : ... .. . ... : ... .. . ... : ... .. . ... ...
ROW 57 : ... .. . ... ... ... : ... .. . ... ... ... : ... .. . ... : ... .. . ... : ... .. . ... ...
ROW 58 : ... .. . ... ... ... : ... .. . ... ... ... : ... .. . ... : ... .. . ... : ... .. . ... ...
ROW 59 : ... .. . ... ... ... : ... .. . ... ... ... : --- .. . ... : ... .. . ... : ... .. . ... ...
ROW 5A : ... .. . ... ... ... : ... .. . ... ... ... : ... .. . ... : ... .. . ... : ... .. . ... ...
ROW 5B : ... .. . ... ... ... : ... .. . ... ... ... : ... .. . ... : ... .. . ... : ... .. . ... ...
ROW 5C : B-3 00 B P80 ... ... : G-4 00 B P81 ... ... : ... .. . ... : ... .. . ... : ... .. . ... ...
ROW 5D : ... .. A ... ... ... : ... .. A ... ... ... : ... .. . ... : ... .. . ... : ... .. . ... ...
ROW 5E : ... .. 9 ... ... ... : ... .. 9 ... ... ... : ... .. . ... : ... .. . ... : ... .. . ... ...
ROW 5F : ... .. 8 ... ... ... : ... .. 8 ... ... ... : ... .. . ... : ... .. . ... : ... .. . ... ...
ROW 60 : ... .. 7 ... ... ... : ... .. 7 ... ... ... : ... .. . ... : ... .. . ... : ... .. . ... ...
ROW 61 : ... .. 6 ... ... ... : ... .. 6 ... ... ... : ... .. . ... : ... .. . ... : ... .. . ... ...
ROW 62 : C-4 00 B P81 ... ... : G#4 00 B P80 ... ... : G-2 00 . ... : C-# 00 E ... : ... .. . ... ...
ROW 63 : ... .. A ... ... ... : ... .. A ... ... ... : ... .. . ... : ... .. 0 ... : ... .. . ... ...
ROW 64 : ... .. 9 ... ... ... : ... .. 9 ... ... ... : ... .. . ... : ... .. . ... : ... .. . ... ...
ROW 65 : ... .. 8 ... ... ... : ... .. 8 ... ... ... : ... .. . ... : ... .. . ... : ... .. . ... ...
ROW 66 : ... .. 7 ... ... ... : ... .. 7 ... ... ... : ... .. . ... : ... .. . ... : ... .. . ... ...
ROW 67 : ... .. 6 ... ... ... : ... .. 6 ... ... ... : ... .. . ... : ... .. . ... : ... .. . ... ...
ROW 68 : C-4 00 B P81 ... ... : G#4 00 B P80 ... ... : G#2 00 . P7F : D-# 00 6 ... : ... .. . ... ...
ROW 69 : ... .. A ... ... ... : ... .. A ... ... ... : ... .. . ... : ... .. . ... : ... .. . ... ...
ROW 6A : ... .. 9 ... ... ... : ... .. 9 ... ... ... : ... .. . ... : ... .. . ... : ... .. . ... ...
ROW 6B : ... .. 8 ... ... ... : ... .. 8 ... ... ... : ... .. . ... : ... .. . ... : ... .. . ... ...
ROW 6C : ... .. 7 ... ... ... : ... .. 7 ... ... ... : ... .. . ... : ... .. . ... : ... .. . ... ...
ROW 6D : ... .. 6 ... ... ... : ... .. 6 ... ... ... : ... .. . ... : ... .. 0 ... : ... .. . ... ...
ROW 6E : ... .. 1 ... ... ... : ... .. 1 ... ... ... : ... .. . ... : ... .. . ... : ... .. . ... ...
ROW 6F : ... .. . ... ... ... : ... .. . ... ... ... : ... .. . ... : ... .. . ... : ... .. . ... ...
ROW 70 : ... .. . ... ... ... : ... .. . ... ... ... : ... .. . ... : ... .. . ... : ... .. . ... ...
ROW 71 : ... .. . ... ... ... : ... .. . ... ... ... : --- .. . ... : ... .. . ... : ... .. . ... ...
ROW 72 : ... .. . ... ... ... : ... .. . ... ... ... : ... .. . ... : ... .. . ... : ... .. . ... ...
ROW 73 : ... .. . ... ... ... : ... .. . ... ... ... : ... .. . ... : ... .. . ... : ... .. . ... ...
ROW 74 : B-3 00 B P80 ... ... : G-4 00 B P81 ... ... : ... .. . ... : ... .. . ... : ... .. . ... ...
ROW 75 : ... .. A ... ... ... : ... .. A ... ... ... : ... .. . ... : ... .. . ... : ... .. . ... ...
ROW 76 : ... .. 9 ... ... ... : ... .. 9 ... ... ... : ... .. . ... : ... .. . ... : ... .. . ... ...
ROW 77 : ... .. 8 ... ... ... : ... .. 8 ... ... ... : ... .. . ... : ... .. . ... : ... .. . ... ...
ROW 78 : ... .. 7 ... ... ... : ... .. 7 ... ... ... : ... .. . ... : ... .. . ... : ... .. . ... ...
ROW 79 : ... .. 6 ... ... ... : ... .. 6 ... ... ... : ... .. . ... : ... .. . ... : ... .. . ... ...
ROW 7A : G-3 00 B P80 ... ... : D#4 00 B P81 ... ... : B-2 00 . P80 : C-# 00 E ... : ... .. . ... ...
ROW 7B : ... .. A ... ... ... : ... .. A ... ... ... : ... .. . ... : ... .. 0 ... : ... .. . ... ...
ROW 7C : ... .. 9 ... ... ... : ... .. 9 ... ... ... : ... .. . ... : ... .. . ... : ... .. . ... ...
ROW 7D : ... .. 8 ... ... ... : ... .. 8 ... ... ... : ... .. . ... : ... .. . ... : ... .. . ... ...
ROW 7E : ... .. 7 ... ... ... : ... .. 7 ... ... ... : ... .. . ... : ... .. . ... : ... .. . ... ...
ROW 7F : ... .. 6 ... ... ... : ... .. 6 ... ... ... : ... .. . ... : ... .. . ... : ... .. . ... ...
ROW 80 : ... .. 5 ... ... ... : ... .. 5 ... ... ... : C-3 00 . ... : D-# 00 6 ... : ... .. . ... ...
ROW 81 : ... .. 4 ... ... ... : ... .. 4 ... ... ... : ... .. . ... : ... .. . ... : ... .. . ... ...
ROW 82 : ... .. 3 ... ... ... : ... .. 3 ... ... ... : ... .. . ... : ... .. . ... : ... .. . ... ...
ROW 83 : ... .. 2 ... ... ... : ... .. 2 ... ... ... : ... .. . ... : ... .. . ... : ... .. . ... ...
ROW 84 : ... .. 1 ... ... ... : ... .. 1 ... ... ... : ... .. . ... : ... .. . ... : ... .. . ... ...
ROW 85 : ... .. . ... ... ... : ... .. . ... ... ... : ... .. . ... : ... .. 0 ... : ... .. . ... ...
ROW 86 : ... .. . ... ... ... : ... .. . ... ... ... : ... .. . ... : ... .. . ... : ... .. . ... ...
ROW 87 : ... .. . ... ... ... : ... .. . ... ... ... : ... .. . ... : ... .. . ... : ... .. . ... ...
ROW 88 : ... .. . ... ... ... : ... .. . ... ... ... : ... .. . ... : ... .. . ... : ... .. . ... ...
ROW 89 : ... .. . ... ... ... : ... .. . ... ... ... : --- .. . ... : ... .. . ... : ... .. . ... ...
ROW 8A : ... .. . ... ... ... : ... .. . ... ... ... : ... .. . ... : ... .. . ... : ... .. . ... ...
ROW 8B : ... .. . ... ... ... : ... .. . ... ... ... : ... .. . ... : ... .. . ... : ... .. . ... ...
ROW 8C : ... .. . ... ... ... : ... .. . ... ... ... : ... .. . ... : ... .. . ... : ... .. . ... ...
ROW 8D : ... .. . ... ... ... : ... .. . ... ... ... : ... .. . ... : ... .. . ... : ... .. . ... ...
ROW 8E : ... .. . ... ... ... : ... .. . ... ... ... : ... .. . ... : ... .. . ... : ... .. . ... ...
ROW 8F : ... .. . ... ... ... : ... .. . ... ... ... : ... .. . ... : ... .. . ... : ... .. . ... ...
ROW 90 : ... .. . ... ... ... : ... .. . ... ... ... : ... .. . ... : ... .. . ... : ... .. . ... ...
ROW 91 : ... .. . ... ... ... : ... .. . ... ... ... : ... .. . ... : ... .. . ... : ... .. . ... ...
ROW 92 : ... .. . ... ... ... : ... .. . ... ... ... : G-2 00 . ... : C-# 00 E ... : ... .. . ... ...
ROW 93 : ... .. . ... ... ... : ... .. . ... ... ... : ... .. . ... : ... .. 0 ... : ... .. . ... ...
ROW 94 : ... .. . ... ... ... : ... .. . ... ... ... : ... .. . ... : ... .. . ... : ... .. . ... ...
ROW 95 : ... .. . ... ... ... : ... .. . ... ... ... : ... .. . ... : ... .. . ... : ... .. . ... ...
ROW 96 : ... .. . ... ... ... : ... .. . ... ... ... : ... .. . ... : ... .. . ... : ... .. . ... ...
ROW 97 : ... .. . ... ... ... : ... .. . ... ... ... : ... .. . ... : ... .. . ... : ... .. . ... ...
ROW 98 : ... .. . ... ... ... : G-3 00 8 P80 ... ... : G#2 00 . P7F : D-# 00 6 ... : ... .. . ... ...
ROW 99 : ... .. . ... ... ... : ... .. . ... ... ... : ... .. . ... : ... .. . ... : ... .. . ... ...
ROW 9A : ... .. . ... ... ... : ... .. 7 ... ... ... : ... .. . ... : ... .. . ... : ... .. . ... ...
ROW 9B : ... .. . ... ... ... : ... .. . ... ... ... : ... .. . ... : ... .. . ... : ... .. . ... ...
ROW 9C : ... .. . ... ... ... : ... .. . ... ... ... : ... .. . ... : ... .. . ... : ... .. . ... ...
ROW 9D : ... .. . ... ... ... : ... .. . ... ... ... : ... .. . ... : ... .. 0 ... : ... .. . ... ...
ROW 9E : ... .. . ... ... ... : ... .. 0 ... ... ... : ... .. . ... : ... .. . ... : ... .. . ... ...
ROW 9F : ... .. . ... ... ... : ... .. . ... ... ... : ... .. . ... : ... .. . ... : ... .. . ... ...
ROW A0 : ... .. . ... ... ... : ... .. . ... ... ... : ... .. . ... : ... .. . ... : ... .. . ... ...
ROW A1 : ... .. . ... ... ... : ... .. . ... ... ... : --- .. . ... : ... .. . ... : ... .. . ... ...
ROW A2 : ... .. . ... ... ... : ... .. . ... ... ... : ... .. . ... : ... .. . ... : ... .. . ... ...
ROW A3 : ... .. . ... ... ... : ... .. . ... ... ... : ... .. . ... : ... .. . ... : ... .. . ... ...
ROW A4 : ... .. . ... ... ... : G#3 00 8 P80 ... ... : ... .. . ... : ... .. . ... : ... .. . ... ...
ROW A5 : ... .. . ... ... ... : ... .. . ... ... ... : ... .. . ... : ... .. . ... : ... .. . ... ...
ROW A6 : ... .. . ... ... ... : ... .. 7 ... ... ... : ... .. . ... : ... .. . ... : ... .. . ... ...
ROW A7 : ... .. . ... ... ... : ... .. . ... ... ... : ... .. . ... : ... .. . ... : ... .. . ... ...
ROW A8 : ... .. . ... ... ... : ... .. . ... ... ... : ... .. . ... : ... .. . ... : ... .. . ... ...
ROW A9 : ... .. . ... ... ... : ... .. . ... ... ... : ... .. . ... : ... .. . ... : ... .. . ... ...
ROW AA : F-3 00 8 P80 ... ... : G#3 00 8 P80 ... ... : B-2 00 . P80 : C-# 00 E ... : ... .. . ... ...
ROW AB : ... .. . ... ... ... : ... .. . ... ... ... : ... .. . ... : ... .. 0 ... : ... .. . ... ...
ROW AC : ... .. 7 ... ... ... : ... .. 7 ... ... ... : ... .. . ... : ... .. . ... : ... .. . ... ...
ROW AD : ... .. . ... ... ... : ... .. . ... ... ... : ... .. . ... : ... .. . ... : ... .. . ... ...
ROW AE : ... .. . ... ... ... : ... .. . ... ... ... : ... .. . ... : ... .. . ... : ... .. . ... ...
ROW AF : ... .. . ... ... ... : ... .. . ... ... ... : ... .. . ... : ... .. . ... : ... .. . ... ...
ROW B0 : ... .. 0 ... ... ... : ... .. 0 ... ... ... : C-3 00 . ... : D-# 00 6 ... : ... .. . ... ...
ROW B1 : ... .. . ... ... ... : ... .. . ... ... ... : ... .. . ... : ... .. . ... : ... .. . ... ...
ROW B2 : ... .. . ... ... ... : ... .. . ... ... ... : ... .. . ... : ... .. . ... : ... .. . ... ...
ROW B3 : ... .. . ... ... ... : ... .. . ... ... ... : ... .. . ... : ... .. . ... : ... .. . ... ...
ROW B4 : ... .. . ... ... ... : ... .. . ... ... ... : ... .. . ... : ... .. . ... : ... .. . ... ...
ROW B5 : ... .. . ... ... ... : ... .. . ... ... ... : ... .. . ... : ... .. 0 ... : ... .. . ... ...
ROW B6 : ... .. . ... ... ... : ... .. . ... ... ... : ... .. . ... : ... .. . ... : ... .. . ... ...
ROW B7 : ... .. . ... ... ... : ... .. . ... ... ... : ... .. . ... : ... .. . ... : ... .. . ... ...
ROW B8 : ... .. . ... ... ... : ... .. . ... ... ... : ... .. . ... : ... .. . ... : ... .. . ... ...
ROW B9 : ... .. . ... ... ... : ... .. . ... ... ... : --- .. . ... : ... .. . ... : ... .. . ... ...
ROW BA : ... .. . ... ... ... : ... .. . ... ... ... : ... .. . ... : ... .. . ... : ... .. . ... ...
ROW BB : ... .. . ... ... ... : ... .. . ... ... ... : ... .. . ... : ... .. . ... : ... .. . ... ...
ROW BC : ... .. . ... ... ... : ... .. . ... ... ... : ... .. . ... : ... .. . ... : ... .. . ... ...
ROW BD : ... .. . ... ... ... : ... .. . ... ... ... : ... .. . ... : ... .. . ... : ... .. . ... ...
ROW BE : ... .. . ... ... ... : ... .. . ... ... ... : ... .. . ... : ... .. . ... : ... .. . ... ...
ROW BF : ... .. . ... ... ... : ... .. . ... ... ... : ... .. . ... : ... .. . ... : ... .. . ... ...
ROW C0 : ... .. . ... ... ... : ... .. . ... ... ... : ... .. . ... : ... .. . ... : ... .. . ... ...
ROW C1 : ... .. . ... ... ... : ... .. . ... ... ... : ... .. . ... : ... .. . ... : ... .. . ... ...
ROW C2 : ... .. . ... ... ... : ... .. . ... ... ... : ... .. . ... : C-# 00 E ... : ... .. . ... ...
ROW C3 : ... .. . ... ... ... : ... .. . ... ... ... : ... .. . ... : ... .. 0 ... : ... .. . ... ...
ROW C4 : ... .. . ... ... ... : ... .. . ... ... ... : ... .. . ... : ... .. . ... : ... .. . ... ...
ROW C5 : ... .. . ... ... ... : ... .. . ... ... ... : ... .. . ... : ... .. . ... : ... .. . ... ...
ROW C6 : ... .. . ... ... ... : ... .. . ... ... ... : ... .. . ... : ... .. . ... : ... .. . ... ...
ROW C7 : ... .. . ... ... ... : ... .. . ... ... ... : ... .. . ... : ... .. . ... : ... .. . ... ...
ROW C8 : ... .. 0 ... ... ... : ... .. 0 ... ... ... : --- .. . ... : D-# 00 6 ... : ... .. . ... ...
ROW C9 : ... .. . ... ... ... : ... .. . ... ... ... : ... .. . ... : ... .. . ... : ... .. . ... ...
ROW CA : ... .. . ... ... ... : ... .. . ... ... ... : ... .. . ... : ... .. . ... : ... .. . ... ...
ROW CB : ... .. . ... ... ... : ... .. . ... ... ... : ... .. . ... : ... .. . ... : ... .. . ... ...
ROW CC : ... .. . ... ... ... : ... .. . ... ... ... : ... .. . ... : ... .. . ... : ... .. . ... ...
ROW CD : ... .. . ... ... ... : ... .. . ... ... ... : ... .. . ... : ... .. 0 ... : ... .. . ... ...
ROW CE : ... .. . ... ... ... : ... .. . ... ... ... : ... .. . ... : ... .. . ... : ... .. . ... ...
ROW CF : ... .. . ... ... ... : ... .. . ... ... ... : ... .. . ... : ... .. . ... : ... .. . ... ...
ROW D0 : ... .. . ... ... ... : ... .. . ... ... ... : ... .. . ... : ... .. . ... : ... .. . ... ...
ROW D1 : ... .. . ... ... ... : ... .. . ... ... ... : ... .. . ... : ... .. . ... : ... .. . ... ...
ROW D2 : ... .. . ... ... ... : ... .. . ... ... ... : ... .. . ... : ... .. . ... : ... .. . ... ...
ROW D3 : ... .. . ... ... ... : ... .. . ... ... ... : ... .. . ... : ... .. . ... : ... .. . ... ...
ROW D4 : ... .. . ... ... ... : ... .. . ... ... ... : ... .. . ... : ... .. . ... : ... .. . ... ...
ROW D5 : ... .. . ... ... ... : ... .. . ... ... ... : ... .. . ... : ... .. . ... : ... .. . ... ...
ROW D6 : ... .. . ... ... ... : ... .. . ... ... ... : ... .. . ... : ... .. . ... : ... .. . ... ...
ROW D7 : ... .. . ... ... ... : ... .. . ... ... ... : ... .. . ... : ... .. . ... : ... .. . ... ...
ROW D8 : ... .. . ... ... ... : ... .. . ... ... ... : ... .. . ... : ... .. . ... : ... .. . ... ...
ROW D9 : ... .. . ... ... ... : ... .. . ... ... ... : ... .. . ... : ... .. . ... : ... .. . ... ...
ROW DA : ... .. 1 ... V01 ... : ... .. 1 ... V01 ... : ... .. . ... : C-# 00 E ... : ... .. . ... ...
ROW DB : ... .. . ... ... ... : ... .. . ... ... ... : ... .. . ... : ... .. 0 ... : ... .. . ... ...
ROW DC : ... .. . ... ... ... : ... .. . ... ... ... : ... .. . ... : ... .. . ... : ... .. . ... ...
ROW DD : ... .. . ... ... ... : ... .. . ... ... ... : ... .. . ... : ... .. . ... : ... .. . ... ...
ROW DE : ... .. . ... ... ... : ... .. . ... ... ... : ... .. . ... : ... .. . ... : ... .. . ... ...
ROW DF : ... .. . ... ... ... : ... .. . ... ... ... : ... .. . ... : ... .. . ... : ... .. . ... ...
ROW E0 : ... .. 1 ... ... ... : ... .. 1 ... ... ... : D#3 00 . ... : D-# 00 6 ... : ... .. . ... ...
ROW E1 : ... .. . ... ... ... : ... .. . ... ... ... : ... .. . ... : ... .. . ... : ... .. . ... ...
ROW E2 : ... .. . ... ... ... : ... .. . ... ... ... : ... .. . ... : ... .. . ... : ... .. . ... ...
ROW E3 : ... .. . ... ... ... : ... .. . ... ... ... : ... .. . ... : ... .. . ... : ... .. . ... ...
ROW E4 : ... .. . ... ... ... : ... .. . ... ... ... : ... .. . ... : ... .. . ... : ... .. . ... ...
ROW E5 : ... .. . ... ... ... : ... .. . ... ... ... : ... .. . ... : ... .. 0 ... : ... .. . ... ...
ROW E6 : ... .. . ... ... ... : ... .. . ... ... ... : ... .. . ... : ... .. . ... : ... .. . ... ...
ROW E7 : ... .. . ... ... ... : ... .. . ... ... ... : ... .. . ... : ... .. . ... : ... .. . ... ...
ROW E8 : ... .. . ... ... ... : ... .. . ... ... ... : ... .. . ... : ... .. . ... : ... .. . ... ...
ROW E9 : ... .. . ... ... ... : ... .. . ... ... ... : --- .. . ... : ... .. . ... : ... .. . ... ...
ROW EA : ... .. . ... ... ... : ... .. . ... ... ... : ... .. . ... : ... .. . ... : ... .. . ... ...
ROW EB : ... .. . ... ... ... : ... .. . ... ... ... : ... .. . ... : ... .. . ... : ... .. . ... ...
ROW EC : F-3 00 B P80 ... ... : F-4 00 B P82 ... ... : ... .. . ... : ... .. . ... : ... .. . ... ...
ROW ED : ... .. A ... ... ... : ... .. A ... ... ... : ... .. . ... : ... .. . ... : ... .. . ... ...
ROW EE : ... .. 9 ... ... ... : ... .. 9 ... ... ... : ... .. . ... : ... .. . ... : ... .. . ... ...
ROW EF : ... .. 8 ... ... ... : ... .. 8 ... ... ... : ... .. . ... : ... .. . ... : ... .. . ... ...
ROW F0 : ... .. 7 ... ... ... : ... .. 7 ... ... ... : ... .. . ... : ... .. . ... : ... .. . ... ...
ROW F1 : ... .. 6 ... ... ... : ... .. 6 ... ... ... : ... .. . ... : ... .. . ... : ... .. . ... ...
ROW F2 : D-3 00 B P80 ... ... : D-4 00 B P83 ... ... : B-3 00 . ... : 6-# 00 F ... : ... .. . ... ...
ROW F3 : ... .. A ... ... ... : ... .. A ... ... ... : ... .. . ... : ... .. C ... : ... .. . ... ...
ROW F4 : ... .. 9 ... ... ... : ... .. 9 ... ... ... : ... .. . ... : ... .. 8 ... : ... .. . ... ...
ROW F5 : ... .. 8 ... ... ... : ... .. 8 ... ... ... : ... .. . ... : ... .. 4 ... : ... .. . ... ...
ROW F6 : ... .. 7 ... ... ... : ... .. 7 ... ... ... : ... .. . ... : ... .. 0 ... : ... .. . ... ...
ROW F7 : ... .. 6 ... ... ... : ... .. 6 ... ... ... : ... .. . ... : ... .. . ... : ... .. . ... ...
ROW F8 : F-3 00 B P80 ... ... : F-4 00 B P82 ... ... : G#3 00 . ... : D-# 00 6 ... : ... .. . ... ...
ROW F9 : ... .. A ... ... ... : ... .. A ... ... ... : ... .. . ... : ... .. . ... : ... .. . ... ...
ROW FA : ... .. 9 ... ... ... : ... .. 9 ... ... ... : ... .. . ... : ... .. . ... : ... .. . ... ...
ROW FB : ... .. 8 ... ... ... : ... .. 8 ... ... ... : ... .. . ... : ... .. . ... : ... .. . ... ...
ROW FC : ... .. 7 ... ... ... : ... .. 7 ... ... ... : ... .. . ... : ... .. . ... : ... .. . ... ...
ROW FD : ... .. 6 ... ... ... : ... .. 6 ... ... ... : ... .. . ... : ... .. 0 ... : ... .. . ... ...
ROW FE : ... .. 1 ... ... ... : ... .. 1 ... ... ... : ... .. . ... : ... .. . ... : ... .. . ... ...
ROW FF : ... .. . ... ... ... : ... .. . ... ... ... : ... .. . ... : ... .. . ... : ... .. . ... ...

PATTERN 11
ROW 00 : ... .. . ... ... ... : ... .. . ... ... ... : ... .. . ... : ... .. . ... : ... .. . ... ...
ROW 01 : ... .. . ... ... ... : ... .. . ... ... ... : --- .. . ... : ... .. . ... : ... .. . ... ...
ROW 02 : ... .. . ... ... ... : ... .. . ... ... ... : ... .. . ... : ... .. . ... : ... .. . ... ...
ROW 03 : ... .. . ... ... ... : ... .. . ... ... ... : ... .. . ... : ... .. . ... : ... .. . ... ...
ROW 04 : D-3 00 B P80 ... ... : D-4 00 B P83 ... ... : ... .. . ... : ... .. . ... : ... .. . ... ...
ROW 05 : ... .. A ... ... ... : ... .. A ... ... ... : ... .. . ... : ... .. . ... : ... .. . ... ...
ROW 06 : ... .. 9 ... ... ... : ... .. 9 ... ... ... : ... .. . ... : ... .. . ... : ... .. . ... ...
ROW 07 : ... .. 8 ... ... ... : ... .. 8 ... ... ... : ... .. . ... : ... .. . ... : ... .. . ... ...
ROW 08 : ... .. 7 ... ... ... : ... .. 7 ... ... ... : ... .. . ... : ... .. . ... : ... .. . ... ...
ROW 09 : ... .. 6 ... ... ... : ... .. 6 ... ... ... : ... .. . ... : ... .. . ... : ... .. . ... ...
ROW 0A : D#3 00 B P80 ... ... : D#4 00 B P83 ... ... : F-3 00 . ... : 6-# 00 F ... : ... .. . ... ...
ROW 0B : ... .. A ... ... ... : ... .. A ... ... ... : ... .. . ... : ... .. D ... : ... .. . ... ...
ROW 0C : ... .. 9 ... ... ... : ... .. 9 ... ... ... : ... .. . ... : ... .. 9 ... : ... .. . ... ...
ROW 0D : ... .. 8 ... ... ... : ... .. 8 ... ... ... : ... .. . ... : ... .. 5 ... : ... .. . ... ...
ROW 0E : ... .. 7 ... ... ... : ... .. 7 ... ... ... : ... .. . ... : ... .. 1 ... : ... .. . ... ...
ROW 0F : ... .. 6 ... ... ... : ... .. 6 ... ... ... : ... .. . ... : ... .. 0 ... : ... .. . ... ...
ROW 10 : ... .. 5 ... ... ... : ... .. 5 ... ... ... : D#3 00 . ... : D-# 00 6 ... : ... .. . ... ...
ROW 11 : ... .. 4 ... ... ... : ... .. 4 ... ... ... : ... .. . ... : ... .. . ... : ... .. . ... ...
ROW 12 : ... .. 3 ... ... ... : ... .. 3 ... ... ... : ... .. . ... : ... .. . ... : ... .. . ... ...
ROW 13 : ... .. 2 ... ... ... : ... .. 2 ... ... ... : ... .. . ... : ... .. . ... : ... .. . ... ...
ROW 14 : ... .. 1 ... ... ... : ... .. 1 ... ... ... : ... .. . ... : ... .. . ... : ... .. . ... ...
ROW 15 : ... .. . ... ... ... : ... .. . ... ... ... : ... .. . ... : ... .. 0 ... : ... .. . ... ...
ROW 16 : ... .. . ... ... ... : ... .. . ... ... ... : ... .. . ... : ... .. . ... : ... .. . ... ...
ROW 17 : ... .. . ... ... ... : ... .. . ... ... ... : ... .. . ... : ... .. . ... : ... .. . ... ...
ROW 18 : ... .. . ... ... ... : ... .. . ... ... ... : ... .. . ... : ... .. . ... : ... .. . ... ...
ROW 19 : ... .. . ... ... ... : ... .. . ... ... ... : --- .. . ... : ... .. . ... : ... .. . ... ...
ROW 1A : ... .. . ... ... ... : ... .. . ... ... ... : ... .. . ... : ... .. . ... : ... .. . ... ...
ROW 1B : ... .. . ... ... ... : ... .. . ... ... ... : ... .. . ... : ... .. . ... : ... .. . ... ...
ROW 1C : ... .. . ... ... ... : ... .. . ... ... ... : ... .. . ... : ... .. . ... : ... .. . ... ...
ROW 1D : ... .. . ... ... ... : ... .. . ... ... ... : ... .. . ... : ... .. . ... : ... .. . ... ...
ROW 1E : ... .. . ... ... ... : ... .. . ... ... ... : ... .. . ... : ... .. . ... : ... .. . ... ...
ROW 1F : ... .. . ... ... ... : ... .. . ... ... ... : ... .. . ... : ... .. . ... : ... .. . ... ...
ROW 20 : ... .. . ... ... ... : ... .. . ... ... ... : ... .. . ... : ... .. . ... : ... .. . ... ...
ROW 21 : ... .. . ... ... ... : ... .. . ... ... ... : ... .. . ... : ... .. . ... : ... .. . ... ...
ROW 22 : G#3 00 B P80 ... ... : G#4 00 B P83 ... ... : C#3 00 . ... : 6-# 00 F ... : ... .. . ... ...
ROW 23 : ... .. A ... ... ... : ... .. A ... ... ... : ... .. . ... : ... .. D ... : ... .. . ... ...
ROW 24 : ... .. 9 ... ... ... : ... .. 9 ... ... ... : ... .. . ... : ... .. 9 ... : ... .. . ... ...
ROW 25 : ... .. 8 ... ... ... : ... .. 8 ... ... ... : ... .. . ... : ... .. 5 ... : ... .. . ... ...
ROW 26 : ... .. 7 ... ... ... : ... .. 7 ... ... ... : ... .. . ... : ... .. 1 ... : ... .. . ... ...
ROW 27 : ... .. 6 ... ... ... : ... .. 6 ... ... ... : ... .. . ... : ... .. 0 ... : ... .. . ... ...
ROW 28 : F-3 00 B P80 ... ... : F-4 00 B P82 ... ... : B-2 00 . ... : D-# 00 6 ... : ... .. . ... ...
ROW 29 : ... .. A ... ... ... : ... .. A ... ... ... : ... .. . ... : ... .. . ... : ... .. . ... ...
ROW 2A : ... .. 9 ... ... ... : ... .. 9 ... ... ... : ... .. . ... : ... .. . ... : ... .. . ... ...
ROW 2B : ... .. 8 ... ... ... : ... .. 8 ... ... ... : ... .. . ... : ... .. . ... : ... .. . ... ...
ROW 2C : ... .. 7 ... ... ... : ... .. 7 ... ... ... : ... .. . ... : ... .. . ... : ... .. . ... ...
ROW 2D : ... .. 6 ... ... ... : ... .. 6 ... ... ... : ... .. . ... : ... .. 0 ... : ... .. . ... ...
ROW 2E : ... .. 5 ... ... ... : ... .. 5 ... ... ... : ... .. . ... : ... .. . ... : ... .. . ... ...
ROW 2F : ... .. 4 ... ... ... : ... .. 4 ... ... ... : ... .. . ... : ... .. . ... : ... .. . ... ...
ROW 30 : ... .. 3 ... ... ... : ... .. 3 ... ... ... : ... .. . ... : ... .. . ... : ... .. . ... ...
ROW 31 : ... .. 2 ... ... ... : ... .. 2 ... ... ... : --- .. . ... : ... .. . ... : ... .. . ... ...
ROW 32 : ... .. 1 ... ... ... : ... .. 1 ... ... ... : ... .. . ... : ... .. . ... : ... .. . ... ...
ROW 33 : ... .. . ... ... ... : ... .. . ... ... ... : ... .. . ... : ... .. . ... : ... .. . ... ...
ROW 34 : ... .. . ... ... ... : ... .. . ... ... ... : ... .. . ... : ... .. . ... : ... .. . ... ...
ROW 35 : ... .. . ... ... ... : ... .. . ... ... ... : ... .. . ... : ... .. . ... : ... .. . ... ...
ROW 36 : ... .. . ... ... ... : ... .. . ... ... ... : ... .. . ... : ... .. . ... : ... .. . ... ...
ROW 37 : ... .. . ... ... ... : ... .. . ... ... ... : ... .. . ... : ... .. . ... : ... .. . ... ...
ROW 38 : ... .. . ... ... ... : ... .. . ... ... ... : ... .. . ... : ... .. . ... : ... .. . ... ...
ROW 39 : ... .. . ... ... ... : ... .. . ... ... ... : ... .. . ... : ... .. . ... : ... .. . ... ...
ROW 3A : D#3 00 B P80 ... ... : D#4 00 B P83 ... ... : G#2 00 . ... : 6-# 00 F ... : ... .. . ... ...
ROW 3B : ... .. A ... ... ... : ... .. A ... ... ... : ... .. . ... : ... .. D ... : ... .. . ... ...
ROW 3C : ... .. 9 ... ... ... : ... .. 9 ... ... ... : ... .. . ... : ... .. 9 ... : ... .. . ... ...
ROW 3D : ... .. 8 ... ... ... : ... .. 8 ... ... ... : ... .. . ... : ... .. 5 ... : ... .. . ... ...
ROW 3E : ... .. 7 ... ... ... : ... .. 7 ... ... ... : ... .. . ... : ... .. 1 ... : ... .. . ... ...
ROW 3F : ... .. 6 ... ... ... : ... .. 6 ... ... ... : ... .. . ... : ... .. 0 ... : ... .. . ... ...
ROW 40 : C#3 00 B P80 ... ... : C#4 00 B P82 ... ... : G#2 00 . P7F : D-# 00 6 ... : ... .. . ... ...
ROW 41 : ... .. A ... ... ... : ... .. A ... ... ... : ... .. . ... : ... .. . ... : ... .. . ... ...
ROW 42 : ... .. 9 ... ... ... : ... .. 9 ... ... ... : ... .. . ... : ... .. . ... : ... .. . ... ...
ROW 43 : ... .. 8 ... ... ... : ... .. 8 ... ... ... : ... .. . ... : ... .. . ... : ... .. . ... ...
ROW 44 : ... .. 7 ... ... ... : ... .. 7 ... ... ... : ... .. . ... : ... .. . ... : ... .. . ... ...
ROW 45 : ... .. 6 ... ... ... : ... .. 6 ... ... ... : ... .. . ... : ... .. 0 ... : ... .. . ... ...
ROW 46 : D#3 00 B P80 ... ... : D#4 00 B P83 ... ... : ... .. . ... : ... .. . ... : ... .. . ... ...
ROW 47 : ... .. A ... ... ... : ... .. A ... ... ... : ... .. . ... : ... .. . ... : ... .. . ... ...
ROW 48 : ... .. 9 ... ... ... : ... .. 9 ... ... ... : ... .. . ... : ... .. . ... : ... .. . ... ...
ROW 49 : ... .. 8 ... ... ... : ... .. 8 ... ... ... : --- .. . ... : ... .. . ... : ... .. . ... ...
ROW 4A : C#3 00 B P80 ... ... : C#4 00 B P82 ... ... : ... .. . ... : ... .. . ... : ... .. . ... ...
ROW 4B : ... .. A ... ... ... : ... .. A ... ... ... : ... .. . ... : ... .. . ... : ... .. . ... ...
ROW 4C : ... .. 9 ... ... ... : ... .. 9 ... ... ... : ... .. . ... : ... .. . ... : ... .. . ... ...
ROW 4D : ... .. 8 ... ... ... : ... .. 8 ... ... ... : ... .. . ... : ... .. . ... : ... .. . ... ...
ROW 4E : C-3 00 B P80 ... ... : C-4 00 B P83 ... ... : ... .. . ... : ... .. . ... : ... .. . ... ...
ROW 4F : ... .. A ... ... ... : ... .. A ... ... ... : ... .. . ... : ... .. . ... : ... .. . ... ...
ROW 50 : ... .. 9 ... ... ... : ... .. 9 ... ... ... : ... .. . ... : ... .. . ... : ... .. . ... ...
ROW 51 : ... .. 8 ... ... ... : ... .. 8 ... ... ... : ... .. . ... : ... .. . ... : ... .. . ... ...
ROW 52 : B-2 00 B P80 ... ... : B-3 00 B P82 ... ... : B-2 00 . P80 : 6-# 00 F ... : ... .. . ... ...
ROW 53 : ... .. A ... ... ... : ... .. A ... ... ... : ... .. . ... : ... .. D ... : ... .. . ... ...
ROW 54 : ... .. 9 ... ... ... : ... .. 9 ... ... ... : ... .. . ... : ... .. 9 ... : ... .. . ... ...
ROW 55 : ... .. 8 ... ... ... : ... .. 8 ... ... ... : ... .. . ... : ... .. 5 ... : ... .. . ... ...
ROW 56 : ... .. 7 ... ... ... : ... .. 7 ... ... ... : ... .. . ... : ... .. 1 ... : ... .. . ... ...
ROW 57 : ... .. 6 ... ... ... : ... .. 6 ... ... ... : ... .. . ... : ... .. 0 ... : ... .. . ... ...
ROW 58 : C#3 00 B P80 ... ... : C#4 00 B P82 ... ... : C-3 00 . ... : D-# 00 6 ... : ... .. . ... ...
ROW 59 : ... .. A ... ... ... : ... .. A ... ... ... : ... .. . ... : ... .. . ... : ... .. . ... ...
ROW 5A : ... .. 9 ... ... ... : ... .. 9 ... ... ... : ... .. . ... : ... .. . ... : ... .. . ... ...
ROW 5B : ... .. 8 ... ... ... : ... .. 8 ... ... ... : ... .. . ... : ... .. . ... : ... .. . ... ...
ROW 5C : ... .. 7 ... ... ... : ... .. 7 ... ... ... : ... .. . ... : ... .. . ... : ... .. . ... ...
ROW 5D : ... .. 6 ... ... ... : ... .. 6 ... ... ... : ... .. . ... : ... .. 0 ... : ... .. . ... ...
ROW 5E : ... .. 1 ... ... ... : ... .. 1 ... ... ... : ... .. . ... : ... .. . ... : ... .. . ... ...
ROW 5F : ... .. . ... ... ... : ... .. . ... ... ... : ... .. . ... : ... .. . ... : ... .. . ... ...
ROW 60 : ... .. . ... ... ... : ... .. . ... ... ... : ... .. . ... : ... .. . ... : ... .. . ... ...
ROW 61 : ... .. . ... ... ... : ... .. . ... ... ... : --- .. . ... : ... .. . ... : ... .. . ... ...
ROW 62 : ... .. . ... ... ... : ... .. . ... ... ... : ... .. . ... : ... .. . ... : ... .. . ... ...
ROW 63 : ... .. . ... ... ... : ... .. . ... ... ... : ... .. . ... : ... .. . ... : ... .. . ... ...
ROW 64 : C-3 00 B P80 ... ... : C-4 00 B P83 ... ... : ... .. . ... : ... .. . ... : ... .. . ... ...
ROW 65 : ... .. A ... ... ... : ... .. A ... ... ... : ... .. . ... : ... .. . ... : ... .. . ... ...
ROW 66 : ... .. 9 ... ... ... : ... .. 9 ... ... ... : ... .. . ... : ... .. . ... : ... .. . ... ...
ROW 67 : ... .. 8 ... ... ... : ... .. 8 ... ... ... : ... .. . ... : ... .. . ... : ... .. . ... ...
ROW 68 : ... .. 7 ... ... ... : ... .. 7 ... ... ... : ... .. . ... : ... .. . ... : ... .. . ... ...
ROW 69 : ... .. 6 ... ... ... : ... .. 6 ... ... ... : ... .. . ... : ... .. . ... : ... .. . ... ...
ROW 6A : B-2 00 B P80 ... ... : B-3 00 B P82 ... ... : C#3 00 . ... : 6-# 00 F ... : ... .. . ... ...
ROW 6B : ... .. A ... ... ... : ... .. A ... ... ... : ... .. . ... : ... .. D ... : ... .. . ... ...
ROW 6C : ... .. 9 ... ... ... : ... .. 9 ... ... ... : ... .. . ... : ... .. 9 ... : ... .. . ... ...
ROW 6D : ... .. 8 ... ... ... : ... .. 8 ... ... ... : ... .. . ... : ... .. 5 ... : ... .. . ... ...
ROW 6E : ... .. 7 ... ... ... : ... .. 7 ... ... ... : ... .. . ... : ... .. 1 ... : ... .. . ... ...
ROW 6F : ... .. 6 ... ... ... : ... .. 6 ... ... ... : ... .. . ... : ... .. 0 ... : ... .. . ... ...
ROW 70 : ... .. 5 ... ... ... : ... .. 5 ... ... ... : D#3 00 . ... : D-# 00 6 ... : ... .. . ... ...
ROW 71 : ... .. 4 ... ... ... : ... .. 4 ... ... ... : ... .. . ... : ... .. . ... : ... .. . ... ...
ROW 72 : ... .. 3 ... ... ... : ... .. 3 ... ... ... : ... .. . ... : ... .. . ... : ... .. . ... ...
ROW 73 : ... .. 2 ... ... ... : ... .. 2 ... ... ... : ... .. . ... : ... .. . ... : ... .. . ... ...
ROW 74 : ... .. 1 ... ... ... : ... .. 1 ... ... ... : ... .. . ... : ... .. . ... : ... .. . ... ...
ROW 75 : ... .. . ... ... ... : ... .. . ... ... ... : ... .. . ... : ... .. 0 ... : ... .. . ... ...
ROW 76 : ... .. . ... ... ... : ... .. . ... ... ... : ... .. . ... : ... .. . ... : ... .. . ... ...
ROW 77 : ... .. . ... ... ... : ... .. . ... ... ... : ... .. . ... : ... .. . ... : ... .. . ... ...
ROW 78 : ... .. . ... ... ... : ... .. . ... ... ... : ... .. . ... : ... .. . ... : ... .. . ... ...
ROW 79 : ... .. . ... ... ... : ... .. . ... ... ... : --- .. . ... : ... .. . ... : ... .. . ... ...
ROW 7A : ... .. . ... ... ... : ... .. . ... ... ... : ... .. . ... : ... .. . ... : ... .. . ... ...
ROW 7B : ... .. . ... ... ... : ... .. . ... ... ... : ... .. . ... : ... .. . ... : ... .. . ... ...
ROW 7C : ... .. . ... ... ... : ... .. . ... ... ... : ... .. . ... : ... .. . ... : ... .. . ... ...
ROW 7D : ... .. . ... ... ... : ... .. . ... ... ... : ... .. . ... : ... .. . ... : ... .. . ... ...
ROW 7E : ... .. . ... ... ... : ... .. . ... ... ... : ... .. . ... : ... .. . ... : ... .. . ... ...
ROW 7F : ... .. . ... ... ... : ... .. . ... ... ... : ... .. . ... : ... .. . ... : ... .. . ... ...
ROW 80 : ... .. . ... ... ... : ... .. . ... ... ... : ... .. . ... : ... .. . ... : ... .. . ... ...
ROW 81 : ... .. . ... ... ... : ... .. . ... ... ... : ... .. . ... : ... .. . ... : ... .. . ... ...
ROW 82 : ... .. . ... ... ... : ... .. . ... ... ... : C-3 00 . ... : 6-# 00 F ... : ... .. . ... ...
ROW 83 : ... .. . ... ... ... : ... .. . ... ... ... : ... .. . ... : ... .. D ... : ... .. . ... ...
ROW 84 : ... .. . ... ... ... : ... .. . ... ... ... : ... .. . ... : ... .. 9 ... : ... .. . ... ...
ROW 85 : ... .. . ... ... ... : ... .. . ... ... ... : ... .. . ... : ... .. 5 ... : ... .. . ... ...
ROW 86 : ... .. . ... ... ... : ... .. . ... ... ... : ... .. . ... : ... .. 1 ... : ... .. . ... ...
ROW 87 : ... .. . ... ... ... : ... .. . ... ... ... : ... .. . ... : ... .. 0 ... : ... .. . ... ...
ROW 88 : B-2 00 B P80 ... ... : B-3 00 B P82 ... ... : B-2 00 . ... : D-# 00 6 ... : ... .. . ... ...
ROW 89 : ... .. A ... ... ... : ... .. A ... ... ... : ... .. . ... : ... .. . ... : ... .. . ... ...
ROW 8A : ... .. 9 ... ... ... : ... .. 9 ... ... ... : ... .. . ... : ... .. . ... : ... .. . ... ...
ROW 8B : ... .. 8 ... ... ... : ... .. 8 ... ... ... : ... .. . ... : ... .. . ... : ... .. . ... ...
ROW 8C : ... .. 7 ... ... ... : ... .. 7 ... ... ... : ... .. . ... : ... .. . ... : ... .. . ... ...
ROW 8D : ... .. 6 ... ... ... : ... .. 6 ... ... ... : ... .. . ... : ... .. 0 ... : ... .. . ... ...
ROW 8E : ... .. 5 ... ... ... : ... .. 5 ... ... ... : ... .. . ... : ... .. . ... : ... .. . ... ...
ROW 8F : ... .. 4 ... ... ... : ... .. 4 ... ... ... : ... .. . ... : ... .. . ... : ... .. . ... ...
ROW 90 : ... .. 3 ... ... ... : ... .. 3 ... ... ... : ... .. . ... : ... .. . ... : ... .. . ... ...
ROW 91 : ... .. 2 ... ... ... : ... .. 2 ... ... ... : --- .. . ... : ... .. . ... : ... .. . ... ...
ROW 92 : ... .. 1 ... ... ... : ... .. 1 ... ... ... : ... .. . ... : ... .. . ... : ... .. . ... ...
ROW 93 : ... .. . ... ... ... : ... .. . ... ... ... : ... .. . ... : ... .. . ... : ... .. . ... ...
ROW 94 : ... .. . ... ... ... : ... .. . ... ... ... : ... .. . ... : ... .. . ... : ... .. . ... ...
ROW 95 : ... .. . ... ... ... : ... .. . ... ... ... : ... .. . ... : ... .. . ... : ... .. . ... ...
ROW 96 : ... .. . ... ... ... : ... .. . ... ... ... : ... .. . ... : ... .. . ... : ... .. . ... ...
ROW 97 : ... .. . ... ... ... : ... .. . ... ... ... : ... .. . ... : ... .. . ... : ... .. . ... ...
ROW 98 : ... .. . ... ... ... : ... .. . ... ... ... : ... .. . ... : ... .. . ... : ... .. . ... ...
ROW 99 : ... .. . ... ... ... : ... .. . ... ... ... : ... .. . ... : ... .. . ... : ... .. . ... ...
ROW 9A : C-3 00 B P80 ... ... : C-4 00 B P83 ... ... : G#2 00 . P7F : 6-# 00 F ... : ... .. . ... ...
ROW 9B : ... .. A ... ... ... : ... .. A ... ... ... : ... .. . ... : ... .. D ... : ... .. . ... ...
ROW 9C : ... .. 9 ... ... ... : ... .. 9 ... ... ... : ... .. . ... : ... .. 9 ... : ... .. . ... ...
ROW 9D : ... .. 8 ... ... ... : ... .. 8 ... ... ... : ... .. . ... : ... .. 5 ... : ... .. . ... ...
ROW 9E : ... .. 7 ... ... ... : ... .. 7 ... ... ... : ... .. . ... : ... .. 1 ... : ... .. . ... ...
ROW 9F : ... .. 6 ... ... ... : ... .. 6 ... ... ... : ... .. . ... : ... .. 0 ... : ... .. . ... ...
ROW A0 : ... .. . ... ... ... : ... .. . ... ... ... : C#3 00 . P80 : D-# 00 6 ... : ... .. . ... ...
ROW A1 : ... .. . ... ... ... : ... .. . ... ... ... : ... .. . ... : ... .. . ... : ... .. . ... ...
ROW A2 : ... .. . ... ... ... : ... .. . ... ... ... : ... .. . ... : ... .. . ... : ... .. . ... ...
ROW A3 : ... .. . ... ... ... : ... .. . ... ... ... : ... .. . ... : ... .. . ... : ... .. . ... ...
ROW A4 : ... .. . ... ... ... : ... .. . ... ... ... : ... .. . ... : ... .. . ... : ... .. . ... ...
ROW A5 : ... .. . ... ... ... : ... .. . ... ... ... : ... .. . ... : ... .. 0 ... : ... .. . ... ...
ROW A6 : ... .. . ... ... ... : ... .. . ... ... ... : ... .. . ... : ... .. . ... : ... .. . ... ...
ROW A7 : ... .. . ... ... ... : ... .. . ... ... ... : ... .. . ... : ... .. . ... : ... .. . ... ...
ROW A8 : ... .. . ... ... ... : ... .. . ... ... ... : ... .. . ... : ... .. . ... : ... .. . ... ...
ROW A9 : ... .. . ... ... ... : ... .. . ... ... ... : --- .. . ... : ... .. . ... : ... .. . ... ...
ROW AA : ... .. . ... ... ... : ... .. . ... ... ... : ... .. . ... : ... .. . ... : ... .. . ... ...
ROW AB : ... .. . ... ... ... : ... .. . ... ... ... : ... .. . ... : ... .. . ... : ... .. . ... ...
ROW AC : C#3 00 B P80 ... ... : C#4 00 B P82 ... ... : ... .. . ... : ... .. . ... : ... .. . ... ...
ROW AD : ... .. A ... ... ... : ... .. A ... ... ... : ... .. . ... : ... .. . ... : ... .. . ... ...
ROW AE : ... .. 9 ... ... ... : ... .. 9 ... ... ... : ... .. . ... : ... .. . ... : ... .. . ... ...
ROW AF : ... .. 8 ... ... ... : ... .. 8 ... ... ... : ... .. . ... : ... .. . ... : ... .. . ... ...
ROW B0 : ... .. 7 ... ... ... : ... .. 7 ... ... ... : ... .. . ... : ... .. . ... : ... .. . ... ...
ROW B1 : ... .. 6 ... ... ... : ... .. 6 ... ... ... : ... .. . ... : ... .. . ... : ... .. . ... ...
ROW B2 : ... .. 5 ... ... ... : ... .. 5 ... ... ... : D#3 00 . ... : 6-# 00 F ... : ... .. . ... ...
ROW B3 : ... .. 4 ... ... ... : ... .. 4 ... ... ... : ... .. . ... : ... .. D ... : ... .. . ... ...
ROW B4 : ... .. 3 ... ... ... : ... .. 3 ... ... ... : ... .. . ... : ... .. 9 ... : ... .. . ... ...
ROW B5 : ... .. 2 ... ... ... : ... .. 2 ... ... ... : ... .. . ... : ... .. 5 ... : ... .. . ... ...
ROW B6 : ... .. 1 ... ... ... : ... .. 1 ... ... ... : ... .. . ... : ... .. 1 ... : ... .. . ... ...
ROW B7 : ... .. . ... ... ... : ... .. . ... ... ... : ... .. . ... : ... .. 0 ... : ... .. . ... ...
ROW B8 : C#3 00 B P80 ... ... : C#4 00 B P83 ... ... : F#3 00 . ... : D-# 00 6 ... : ... .. . ... ...
ROW B9 : ... .. A ... ... ... : ... .. A ... ... ... : ... .. . ... : ... .. . ... : ... .. . ... ...
ROW BA : ... .. 9 ... ... ... : ... .. 9 ... ... ... : ... .. . ... : ... .. . ... : ... .. . ... ...
ROW BB : ... .. 8 ... ... ... : ... .. 8 ... ... ... : ... .. . ... : ... .. . ... : ... .. . ... ...
ROW BC : ... .. 7 ... ... ... : ... .. 7 ... ... ... : ... .. . ... : ... .. . ... : ... .. . ... ...
ROW BD : ... .. 6 ... ... ... : ... .. 6 ... ... ... : ... .. . ... : ... .. 0 ... : ... .. . ... ...
ROW BE : ... .. 5 ... ... ... : ... .. 5 ... ... ... : ... .. . ... : ... .. . ... : ... .. . ... ...
ROW BF : ... .. 4 ... ... ... : ... .. 4 ... ... ... : ... .. . ... : ... .. . ... : ... .. . ... ...
ROW C0 : ... .. 3 ... ... ... : ... .. 3 ... ... ... : ... .. . ... : ... .. . ... : ... .. . ... ...
ROW C1 : ... .. 2 ... ... ... : ... .. 2 ... ... ... : --- .. . ... : ... .. . ... : ... .. . ... ...
ROW C2 : ... .. 1 ... ... ... : ... .. 1 ... ... ... : ... .. . ... : ... .. . ... : ... .. . ... ...
ROW C3 : ... .. . ... ... ... : ... .. . ... ... ... : ... .. . ... : ... .. . ... : ... .. . ... ...
ROW C4 : ... .. . ... ... ... : ... .. . ... ... ... : ... .. . ... : ... .. . ... : ... .. . ... ...
ROW C5 : ... .. . ... ... ... : ... .. . ... ... ... : ... .. . ... : ... .. . ... : ... .. . ... ...
ROW C6 : ... .. . ... ... ... : ... .. . ... ... ... : ... .. . ... : ... .. . ... : ... .. . ... ...
ROW C7 : ... .. . ... ... ... : ... .. . ... ... ... : ... .. . ... : ... .. . ... : ... .. . ... ...
ROW C8 : ... .. . ... ... ... : ... .. . ... ... ... : ... .. . ... : ... .. . ... : ... .. . ... ...
ROW C9 : ... .. . ... ... ... : ... .. . ... ... ... : ... .. . ... : ... .. . ... : ... .. . ... ...
ROW CA : C#3 00 B P80 ... ... : C#4 00 B P82 ... ... : G#3 00 . ... : 6-# 00 F ... : ... .. . ... ...
ROW CB : ... .. A ... ... ... : ... .. A ... ... ... : ... .. . ... : ... .. D ... : ... .. . ... ...
ROW CC : ... .. 9 ... ... ... : ... .. 9 ... ... ... : ... .. . ... : ... .. 9 ... : ... .. . ... ...
ROW CD : ... .. 8 ... ... ... : ... .. 8 ... ... ... : ... .. . ... : ... .. 5 ... : ... .. . ... ...
ROW CE : ... .. 7 ... ... ... : ... .. 7 ... ... ... : ... .. . ... : ... .. 1 ... : ... .. . ... ...
ROW CF : ... .. 6 ... ... ... : ... .. 6 ... ... ... : ... .. . ... : ... .. 0 ... : ... .. . ... ...
ROW D0 : ... .. 5 ... ... ... : ... .. 5 ... ... ... : C#3 00 . ... : D-# 00 6 ... : ... .. . ... ...
ROW D1 : ... .. 4 ... ... ... : ... .. 4 ... ... ... : ... .. . ... : ... .. . ... : ... .. . ... ...
ROW D2 : ... .. 3 ... ... ... : ... .. 3 ... ... ... : ... .. . ... : ... .. . ... : ... .. . ... ...
ROW D3 : ... .. 2 ... ... ... : ... .. 2 ... ... ... : ... .. . ... : ... .. . ... : ... .. . ... ...
ROW D4 : ... .. 1 ... ... ... : ... .. 1 ... ... ... : ... .. . ... : ... .. . ... : ... .. . ... ...
ROW D5 : ... .. . ... ... ... : ... .. . ... ... ... : ... .. . ... : ... .. 0 ... : ... .. . ... ...
ROW D6 : ... .. . ... ... ... : ... .. . ... ... ... : ... .. . ... : ... .. . ... : ... .. . ... ...
ROW D7 : ... .. . ... ... ... : ... .. . ... ... ... : ... .. . ... : ... .. . ... : ... .. . ... ...
ROW D8 : ... .. . ... ... ... : ... .. . ... ... ... : ... .. . ... : ... .. . ... : ... .. . ... ...
ROW D9 : ... .. . ... ... ... : ... .. . ... ... ... : --- .. . ... : ... .. . ... : ... .. . ... ...
ROW DA : ... .. . ... ... ... : ... .. . ... ... ... : ... .. . ... : ... .. . ... : ... .. . ... ...
ROW DB : ... .. . ... ... ... : ... .. . ... ... ... : ... .. . ... : ... .. . ... : ... .. . ... ...
ROW DC : ... .. . ... ... ... : ... .. . ... ... ... : ... .. . ... : ... .. . ... : ... .. . ... ...
ROW DD : ... .. . ... ... ... : ... .. . ... ... ... : ... .. . ... : ... .. . ... : ... .. . ... ...
ROW DE : ... .. . ... ... ... : ... .. . ... ... ... : ... .. . ... : ... .. . ... : ... .. . ... ...
ROW DF : ... .. . ... ... ... : ... .. . ... ... ... : ... .. . ... : ... .. . ... : ... .. . ... ...
ROW E0 : ... .. . ... ... ... : ... .. . ... ... ... : ... .. . ... : ... .. . ... : ... .. . ... ...
ROW E1 : ... .. . ... ... ... : ... .. . ... ... ... : ... .. . ... : ... .. . ... : ... .. . ... ...
ROW E2 : F#3 00 B P80 ... ... : F#4 00 B P82 ... ... : G#2 00 . P7F : 6-# 00 F ... : ... .. . ... ...
ROW E3 : ... .. A ... ... ... : ... .. A ... ... ... : ... .. . ... : ... .. D ... : ... .. . ... ...
ROW E4 : ... .. 9 ... ... ... : ... .. 9 ... ... ... : ... .. . ... : ... .. 9 ... : ... .. . ... ...
ROW E5 : ... .. 8 ... ... ... : ... .. 8 ... ... ... : ... .. . ... : ... .. 5 ... : ... .. . ... ...
ROW E6 : ... .. 7 ... ... ... : ... .. 7 ... ... ... : ... .. . ... : ... .. 1 ... : ... .. . ... ...
ROW E7 : ... .. 6 ... ... ... : ... .. 6 ... ... ... : ... .. . ... : ... .. 0 ... : ... .. . ... ...
ROW E8 : G-3 00 B P80 ... ... : G-4 00 B P83 ... ... : C#3 00 . P80 : D-# 00 6 ... : ... .. . ... ...
ROW E9 : ... .. A ... ... ... : ... .. A ... ... ... : ... .. . ... : ... .. . ... : ... .. . ... ...
ROW EA : ... .. 9 ... ... ... : ... .. 9 ... ... ... : ... .. . ... : ... .. . ... : ... .. . ... ...
ROW EB : ... .. 8 ... ... ... : ... .. 8 ... ... ... : ... .. . ... : ... .. . ... : ... .. . ... ...
ROW EC : ... .. 7 ... ... ... : ... .. 7 ... ... ... : ... .. . ... : ... .. . ... : ... .. . ... ...
ROW ED : ... .. 6 ... ... ... : ... .. 6 ... ... ... : ... .. . ... : ... .. 0 ... : ... .. . ... ...
ROW EE : ... .. 5 ... ... ... : ... .. 5 ... ... ... : ... .. . ... : ... .. . ... : ... .. . ... ...
ROW EF : ... .. 4 ... ... ... : ... .. 4 ... ... ... : ... .. . ... : ... .. . ... : ... .. . ... ...
ROW F0 : ... .. 3 ... ... ... : ... .. 3 ... ... ... : ... .. . ... : ... .. . ... : ... .. . ... ...
ROW F1 : ... .. 2 ... ... ... : ... .. 2 ... ... ... : --- .. . ... : ... .. . ... : ... .. . ... ...
ROW F2 : ... .. 1 ... ... ... : ... .. 1 ... ... ... : ... .. . ... : ... .. . ... : ... .. . ... ...
ROW F3 : ... .. . ... ... ... : ... .. . ... ... ... : ... .. . ... : ... .. . ... : ... .. . ... ...
ROW F4 : ... .. . ... ... ... : ... .. . ... ... ... : ... .. . ... : ... .. . ... : ... .. . ... ...
ROW F5 : ... .. . ... ... ... : ... .. . ... ... ... : ... .. . ... : ... .. . ... : ... .. . ... ...
ROW F6 : ... .. . ... ... ... : ... .. . ... ... ... : ... .. . ... : ... .. . ... : ... .. . ... ...
ROW F7 : ... .. . ... ... ... : ... .. . ... ... ... : ... .. . ... : ... .. . ... : ... .. . ... ...
ROW F8 : ... .. . ... ... ... : ... .. . ... ... ... : ... .. . ... : ... .. . ... : ... .. . ... ...
ROW F9 : ... .. . ... ... ... : ... .. . ... ... ... : ... .. . ... : ... .. . ... : ... .. . ... ...
ROW FA : G#3 00 B P80 ... ... : G#4 00 B P82 ... ... : F#3 00 . ... : 6-# 00 F ... : ... .. . ... ...
ROW FB : ... .. A ... ... ... : ... .. A ... ... ... : ... .. . ... : ... .. D ... : ... .. . ... ...
ROW FC : ... .. 9 ... ... ... : ... .. 9 ... ... ... : ... .. . ... : ... .. 9 ... : ... .. . ... ...
ROW FD : ... .. 8 ... ... ... : ... .. 8 ... ... ... : ... .. . ... : ... .. 5 ... : ... .. . ... ...
ROW FE : ... .. 7 ... ... ... : ... .. 7 ... ... ... : ... .. . ... : ... .. 1 ... : ... .. . ... ...
ROW FF : ... .. 6 ... ... ... : ... .. 6 ... ... ... : ... .. . ... : ... .. 0 ... : ... .. . ... ...

PATTERN 12
ROW 00 : B-3 00 B P80 ... ... : B-4 00 B P82 ... ... : G-3 00 . ... : D-# 00 6 ... : ... .. . ... ...
ROW 01 : ... .. A ... ... ... : ... .. A ... ... ... : ... .. . ... : ... .. . ... : ... .. . ... ...
ROW 02 : ... .. 9 ... ... ... : ... .. 9 ... ... ... : ... .. . ... : ... .. . ... : ... .. . ... ...
ROW 03 : ... .. 8 ... ... ... : ... .. 8 ... ... ... : ... .. . ... : ... .. . ... : ... .. . ... ...
ROW 04 : ... .. 7 ... ... ... : ... .. 7 ... ... ... : ... .. . ... : ... .. . ... : ... .. . ... ...
ROW 05 : ... .. 6 ... ... ... : ... .. 6 ... ... ... : ... .. . ... : ... .. 0 ... : ... .. . ... ...
ROW 06 : ... .. 1 ... ... ... : ... .. 5 ... ... ... : ... .. . ... : ... .. . ... : ... .. . ... ...
ROW 07 : ... .. . ... ... ... : ... .. 4 ... ... ... : ... .. . ... : ... .. . ... : ... .. . ... ...
ROW 08 : ... .. . ... ... ... : ... .. 3 ... ... ... : ... .. . ... : ... .. . ... : ... .. . ... ...
ROW 09 : ... .. . ... ... ... : ... .. 2 ... ... ... : --- .. . ... : ... .. . ... : ... .. . ... ...
ROW 0A : ... .. . ... ... ... : ... .. 1 ... ... ... : ... .. . ... : ... .. . ... : ... .. . ... ...
ROW 0B : ... .. . ... ... ... : ... .. . ... ... ... : ... .. . ... : ... .. . ... : ... .. . ... ...
ROW 0C : A#3 00 B P81 ... ... : ... .. . ... ... ... : ... .. . ... : ... .. . ... : ... .. . ... ...
ROW 0D : ... .. A ... ... ... : ... .. . ... ... ... : ... .. . ... : ... .. . ... : ... .. . ... ...
ROW 0E : ... .. 9 ... ... ... : ... .. . ... ... ... : ... .. . ... : ... .. . ... : ... .. . ... ...
ROW 0F : ... .. 8 ... ... ... : ... .. . ... ... ... : ... .. . ... : ... .. . ... : ... .. . ... ...
ROW 10 : ... .. 7 ... ... ... : ... .. . ... ... ... : ... .. . ... : ... .. . ... : ... .. . ... ...
ROW 11 : ... .. 6 ... ... ... : ... .. . ... ... ... : ... .. . ... : ... .. . ... : ... .. . ... ...
ROW 12 : B-3 00 B P80 ... ... : ... .. . ... ... ... : F-3 00 . ... : 6-# 00 F ... : ... .. . ... ...
ROW 13 : ... .. A ... ... ... : ... .. . ... ... ... : ... .. . ... : ... .. D ... : ... .. . ... ...
ROW 14 : ... .. 9 ... ... ... : ... .. . ... ... ... : ... .. . ... : ... .. 9 ... : ... .. . ... ...
ROW 15 : ... .. 8 ... ... ... : ... .. . ... ... ... : ... .. . ... : ... .. 5 ... : ... .. . ... ...
ROW 16 : ... .. 7 ... ... ... : ... .. . ... ... ... : ... .. . ... : ... .. 1 ... : ... .. . ... ...
ROW 17 : ... .. 6 ... ... ... : ... .. . ... ... ... : ... .. . ... : ... .. 0 ... : ... .. . ... ...
ROW 18 : G#3 00 B P80 ... ... : G#4 00 B P82 ... ... : C#3 00 . ... : D-# 00 6 ... : ... .. . ... ...
ROW 19 : ... .. A ... ... ... : ... .. A ... ... ... : ... .. . ... : ... .. . ... : ... .. . ... ...
ROW 1A : ... .. 9 ... ... ... : ... .. 9 ... ... ... : ... .. . ... : ... .. . ... : ... .. . ... ...
ROW 1B : ... .. 8 ... ... ... : ... .. 8 ... ... ... : ... .. . ... : ... .. . ... : ... .. . ... ...
ROW 1C : ... .. 7 ... ... ... : ... .. 7 ... ... ... : ... .. . ... : ... .. . ... : ... .. . ... ...
ROW 1D : ... .. 6 ... ... ... : ... .. 6 ... ... ... : ... .. . ... : ... .. 0 ... : ... .. . ... ...
ROW 1E : ... .. 1 ... ... ... : ... .. 5 ... ... ... : ... .. . ... : ... .. . ... : ... .. . ... ...
ROW 1F : ... .. . ... ... ... : ... .. 4 ... ... ... : ... .. . ... : ... .. . ... : ... .. . ... ...
ROW 20 : ... .. . ... ... ... : ... .. 3 ... ... ... : ... .. . ... : ... .. . ... : ... .. . ... ...
ROW 21 : ... .. . ... ... ... : ... .. 2 ... ... ... : --- .. . ... : ... .. . ... : ... .. . ... ...
ROW 22 : ... .. . ... ... ... : ... .. 1 ... ... ... : ... .. . ... : ... .. . ... : ... .. . ... ...
ROW 23 : ... .. . ... ... ... : ... .. . ... ... ... : ... .. . ... : ... .. . ... : ... .. . ... ...
ROW 24 : G#3 00 B P80 ... ... : ... .. . ... ... ... : ... .. . ... : ... .. . ... : ... .. . ... ...
ROW 25 : ... .. A ... ... ... : ... .. . ... ... ... : ... .. . ... : ... .. . ... : ... .. . ... ...
ROW 26 : ... .. 9 ... ... ... : ... .. . ... ... ... : ... .. . ... : ... .. . ... : ... .. . ... ...
ROW 27 : ... .. 8 ... ... ... : ... .. . ... ... ... : ... .. . ... : ... .. . ... : ... .. . ... ...
ROW 28 : ... .. 7 ... ... ... : ... .. . ... ... ... : ... .. . ... : ... .. . ... : ... .. . ... ...
ROW 29 : ... .. 6 ... ... ... : ... .. . ... ... ... : ... .. . ... : ... .. . ... : ... .. . ... ...
ROW 2A : G#3 00 B P80 ... ... : ... .. . ... ... ... : B-2 00 . ... : 6-# 00 F ... : ... .. . ... ...
ROW 2B : ... .. A ... ... ... : ... .. . ... ... ... : ... .. . ... : ... .. D ... : ... .. . ... ...
ROW 2C : ... .. 9 ... ... ... : ... .. . ... ... ... : ... .. . ... : ... .. 9 ... : ... .. . ... ...
ROW 2D : ... .. 8 ... ... ... : ... .. . ... ... ... : ... .. . ... : ... .. 5 ... : ... .. . ... ...
ROW 2E : ... .. 7 ... ... ... : ... .. . ... ... ... : ... .. . ... : ... .. 1 ... : ... .. . ... ...
ROW 2F : ... .. 6 ... ... ... : ... .. . ... ... ... : ... .. . ... : ... .. 0 ... : ... .. . ... ...
ROW 30 : G#3 00 B P80 ... ... : G#4 00 B P83 ... ... : C#3 00 . ... : D-# 00 6 ... : ... .. . ... ...
ROW 31 : ... .. A ... ... ... : ... .. A ... ... ... : ... .. . ... : ... .. . ... : ... .. . ... ...
ROW 32 : ... .. 9 ... ... ... : ... .. 9 ... ... ... : ... .. . ... : ... .. . ... : ... .. . ... ...
ROW 33 : ... .. 8 ... ... ... : ... .. 8 ... ... ... : ... .. . ... : ... .. . ... : ... .. . ... ...
ROW 34 : ... .. 7 ... ... ... : ... .. 7 ... ... ... : ... .. . ... : ... .. . ... : ... .. . ... ...
ROW 35 : ... .. 6 ... ... ... : ... .. 6 ... ... ... : ... .. . ... : ... .. 0 ... : ... .. . ... ...
ROW 36 : ... .. 1 ... ... ... : ... .. 5 ... ... ... : ... .. . ... : ... .. . ... : ... .. . ... ...
ROW 37 : ... .. . ... ... ... : ... .. 4 ... ... ... : ... .. . ... : ... .. . ... : ... .. . ... ...
ROW 38 : ... .. . ... ... ... : ... .. 3 ... ... ... : ... .. . ... : ... .. . ... : ... .. . ... ...
ROW 39 : ... .. . ... ... ... : ... .. 2 ... ... ... : --- .. . ... : ... .. . ... : ... .. . ... ...
ROW 3A : ... .. . ... ... ... : ... .. 1 ... ... ... : ... .. . ... : ... .. . ... : ... .. . ... ...
ROW 3B : ... .. . ... ... ... : ... .. . ... ... ... : ... .. . ... : ... .. . ... : ... .. . ... ...
ROW 3C : G-3 00 B P80 ... ... : ... .. . ... ... ... : ... .. . ... : ... .. . ... : ... .. . ... ...
ROW 3D : ... .. A ... ... ... : ... .. . ... ... ... : ... .. . ... : ... .. . ... : ... .. . ... ...
ROW 3E : ... .. 9 ... ... ... : ... .. . ... ... ... : ... .. . ... : ... .. . ... : ... .. . ... ...
ROW 3F : ... .. 8 ... ... ... : ... .. . ... ... ... : ... .. . ... : ... .. . ... : ... .. . ... ...
ROW 40 : ... .. 7 ... ... ... : ... .. . ... ... ... : ... .. . ... : ... .. . ... : ... .. . ... ...
ROW 41 : ... .. 6 ... ... ... : ... .. . ... ... ... : ... .. . ... : ... .. . ... : ... .. . ... ...
ROW 42 : G#3 00 B P80 ... ... : ... .. . ... ... ... : B-2 00 . ... : 6-# 00 F ... : ... .. . ... ...
ROW 43 : ... .. A ... ... ... : ... .. . ... ... ... : ... .. . ... : ... .. D ... : ... .. . ... ...
ROW 44 : ... .. 9 ... ... ... : ... .. . ... ... ... : ... .. . ... : ... .. 9 ... : ... .. . ... ...
ROW 45 : ... .. 8 ... ... ... : ... .. . ... ... ... : ... .. . ... : ... .. 5 ... : ... .. . ... ...
ROW 46 : ... .. 7 ... ... ... : ... .. . ... ... ... : ... .. . ... : ... .. 1 ... : ... .. . ... ...
ROW 47 : ... .. 6 ... ... ... : ... .. . ... ... ... : ... .. . ... : ... .. 0 ... : ... .. . ... ...
ROW 48 : G-3 00 B P80 ... ... : G-4 00 B P83 ... ... : G#2 00 . P7F : D-# 00 6 ... : ... .. . ... ...
ROW 49 : ... .. A ... ... ... : ... .. A ... ... ... : ... .. . ... : ... .. . ... : ... .. . ... ...
ROW 4A : ... .. 9 ... ... ... : ... .. 9 ... ... ... : ... .. . ... : ... .. . ... : ... .. . ... ...
ROW 4B : ... .. 8 ... ... ... : ... .. 8 ... ... ... : ... .. . ... : ... .. . ... : ... .. . ... ...
ROW 4C : ... .. 7 ... ... ... : ... .. 7 ... ... ... : ... .. . ... : ... .. . ... : ... .. . ... ...
ROW 4D : ... .. 6 ... ... ... : ... .. 6 ... ... ... : ... .. . ... : ... .. 0 ... : ... .. . ... ...
ROW 4E : ... .. 1 ... ... ... : ... .. 1 ... ... ... : ... .. . ... : ... .. . ... : ... .. . ... ...
ROW 4F : ... .. . ... ... ... : ... .. . ... ... ... : ... .. . ... : ... .. . ... : ... .. . ... ...
ROW 50 : ... .. . ... ... ... : ... .. . ... ... ... : ... .. . ... : ... .. . ... : ... .. . ... ...
ROW 51 : ... .. . ... ... ... : ... .. . ... ... ... : --- .. . ... : ... .. . ... : ... .. . ... ...
ROW 52 : ... .. . ... ... ... : ... .. . ... ... ... : ... .. . ... : ... .. . ... : ... .. . ... ...
ROW 53 : ... .. . ... ... ... : ... .. . ... ... ... : ... .. . ... : ... .. . ... : ... .. . ... ...
ROW 54 : C#3 00 B P80 ... ... : C#4 00 B P82 ... ... : ... .. . ... : ... .. . ... : ... .. . ... ...
ROW 55 : ... .. A ... ... ... : ... .. A ... ... ... : ... .. . ... : ... .. . ... : ... .. . ... ...
ROW 56 : ... .. 9 ... ... ... : ... .. 9 ... ... ... : ... .. . ... : ... .. . ... : ... .. . ... ...
ROW 57 : ... .. 8 ... ... ... : ... .. 8 ... ... ... : ... .. . ... : ... .. . ... : ... .. . ... ...
ROW 58 : ... .. 7 ... ... ... : ... .. 7 ... ... ... : ... .. . ... : ... .. . ... : ... .. . ... ...
ROW 59 : ... .. 6 ... ... ... : ... .. 6 ... ... ... : ... .. . ... : ... .. . ... : ... .. . ... ...
ROW 5A : B-2 00 B P80 ... ... : B-3 00 B P82 ... ... : G-2 00 . P80 : 6-# 00 F ... : ... .. . ... ...
ROW 5B : ... .. A ... ... ... : ... .. A ... ... ... : ... .. . ... : ... .. D ... : ... .. . ... ...
ROW 5C : ... .. 9 ... ... ... : ... .. 9 ... ... ... : ... .. . ... : ... .. 9 ... : ... .. . ... ...
ROW 5D : ... .. 8 ... ... ... : ... .. 8 ... ... ... : ... .. . ... : ... .. 5 ... : ... .. . ... ...
ROW 5E : ... .. 7 ... ... ... : ... .. 7 ... ... ... : ... .. . ... : ... .. 1 ... : ... .. . ... ...
ROW 5F : ... .. 6 ... ... ... : ... .. 6 ... ... ... : ... .. . ... : ... .. 0 ... : ... .. . ... ...
ROW 60 : C-4 00 8 P81 V02 ... : G-4 00 8 P83 V02 ... : C-3 00 . ... : F-# 00 0 ... : ... .. . ... ...
ROW 61 : ... .. . ... ... ... : ... .. . ... ... ... : ... .. . ... : ... .. . ... : ... .. . ... ...
ROW 62 : ... .. 7 ... ... ... : ... .. 7 ... ... ... : ... .. . ... : ... .. . ... : ... .. . ... ...
ROW 63 : ... .. . ... ... ... : ... .. . ... ... ... : ... .. . ... : ... .. . ... : ... .. . ... ...
ROW 64 : ... .. . ... ... ... : ... .. . ... ... ... : ... .. . ... : ... .. . ... : ... .. . ... ...
ROW 65 : ... .. . ... ... ... : ... .. . ... ... ... : ... .. . ... : ... .. . ... : ... .. . ... ...
ROW 66 : ... .. 0 ... ... ... : ... .. 0 ... ... ... : ... .. . ... : ... .. . ... : ... .. . ... ...
ROW 67 : ... .. . ... ... ... : ... .. . ... ... ... : ... .. . ... : ... .. . ... : ... .. . ... ...
ROW 68 : ... .. . ... ... ... : ... .. . ... ... ... : ... .. . ... : ... .. . ... : ... .. . ... ...
ROW 69 : ... .. . ... ... ... : ... .. . ... ... ... : --- .. . ... : ... .. . ... : ... .. . ... ...
ROW 6A : ... .. . ... ... ... : ... .. . ... ... ... : ... .. . ... : ... .. . ... : ... .. . ... ...
ROW 6B : ... .. . ... ... ... : ... .. . ... ... ... : ... .. . ... : ... .. . ... : ... .. . ... ...
ROW 6C : D#3 00 8 P80 ... ... : C-4 00 8 P81 ... ... : ... .. . ... : ... .. . ... : ... .. . ... ...
ROW 6D : ... .. . ... ... ... : ... .. . ... ... ... : ... .. . ... : ... .. . ... : ... .. . ... ...
ROW 6E : ... .. 7 ... ... ... : ... .. 7 ... ... ... : ... .. . ... : ... .. . ... : ... .. . ... ...
ROW 6F : ... .. . ... ... ... : ... .. . ... ... ... : ... .. . ... : ... .. . ... : ... .. . ... ...
ROW 70 : ... .. . ... ... ... : ... .. . ... ... ... : ... .. . ... : ... .. . ... : ... .. . ... ...
ROW 71 : ... .. . ... ... ... : ... .. . ... ... ... : ... .. . ... : ... .. . ... : ... .. . ... ...
ROW 72 : G-3 00 8 P80 ... ... : D#4 00 8 P81 ... ... : G-3 00 . ... : C-# 00 E ... : ... .. . ... ...
ROW 73 : ... .. . ... ... ... : ... .. . ... ... ... : ... .. . ... : ... .. 0 ... : ... .. . ... ...
ROW 74 : ... .. 7 ... ... ... : ... .. 7 ... ... ... : ... .. . ... : ... .. . ... : ... .. . ... ...
ROW 75 : ... .. . ... ... ... : ... .. . ... ... ... : ... .. . ... : ... .. . ... : ... .. . ... ...
ROW 76 : ... .. . ... ... ... : ... .. . ... ... ... : ... .. . ... : ... .. . ... : ... .. . ... ...
ROW 77 : ... .. . ... ... ... : ... .. . ... ... ... : ... .. . ... : ... .. . ... : ... .. . ... ...
ROW 78 : ... .. 6 ... ... ... : ... .. 6 ... ... ... : C-3 00 . ... : F-# 00 0 ... : ... .. . ... ...
ROW 79 : ... .. . ... ... ... : ... .. . ... ... ... : ... .. . ... : ... .. . ... : ... .. . ... ...
ROW 7A : ... .. . ... ... ... : ... .. . ... ... ... : ... .. . ... : ... .. . ... : ... .. . ... ...
ROW 7B : ... .. . ... ... ... : ... .. . ... ... ... : ... .. . ... : ... .. . ... : ... .. . ... ...
ROW 7C : ... .. . ... ... ... : ... .. . ... ... ... : ... .. . ... : ... .. . ... : ... .. . ... ...
ROW 7D : ... .. . ... ... ... : ... .. . ... ... ... : ... .. . ... : ... .. . ... : ... .. . ... ...
ROW 7E : ... .. . ... ... ... : ... .. . ... ... ... : ... .. . ... : ... .. . ... : ... .. . ... ...
ROW 7F : ... .. . ... ... ... : ... .. . ... ... ... : ... .. . ... : ... .. . ... : ... .. . ... ...
ROW 80 : ... .. . ... ... ... : ... .. . ... ... ... : ... .. . ... : ... .. . ... : ... .. . ... ...
ROW 81 : ... .. . ... ... ... : ... .. . ... ... ... : --- .. . ... : ... .. . ... : ... .. . ... ...
ROW 82 : ... .. . ... ... ... : ... .. . ... ... ... : ... .. . ... : ... .. . ... : ... .. . ... ...
ROW 83 : ... .. . ... ... ... : ... .. . ... ... ... : ... .. . ... : ... .. . ... : ... .. . ... ...
ROW 84 : D#3 00 8 P80 ... ... : C-4 00 8 P81 ... ... : ... .. . ... : ... .. . ... : ... .. . ... ...
ROW 85 : ... .. . ... ... ... : ... .. . ... ... ... : ... .. . ... : ... .. . ... : ... .. . ... ...
ROW 86 : ... .. 7 ... ... ... : ... .. 7 ... ... ... : ... .. . ... : ... .. . ... : ... .. . ... ...
ROW 87 : ... .. . ... ... ... : ... .. . ... ... ... : ... .. . ... : ... .. . ... : ... .. . ... ...
ROW 88 : ... .. . ... ... ... : ... .. . ... ... ... : ... .. . ... : ... .. . ... : ... .. . ... ...
ROW 89 : ... .. . ... ... ... : ... .. . ... ... ... : ... .. . ... : ... .. . ... : ... .. . ... ...
ROW 8A : G-3 00 8 P80 ... ... : D#4 00 8 P81 ... ... : G-3 00 . ... : C-# 00 E ... : ... .. . ... ...
ROW 8B : ... .. . ... ... ... : ... .. . ... ... ... : ... .. . ... : ... .. 0 ... : ... .. . ... ...
ROW 8C : ... .. 7 ... ... ... : ... .. 7 ... ... ... : ... .. . ... : ... .. . ... : ... .. . ... ...
ROW 8D : ... .. . ... ... ... : ... .. . ... ... ... : ... .. . ... : ... .. . ... : ... .. . ... ...
ROW 8E : ... .. . ... ... ... : ... .. . ... ... ... : ... .. . ... : ... .. . ... : ... .. . ... ...
ROW 8F : ... .. . ... ... ... : ... .. . ... ... ... : ... .. . ... : ... .. . ... : ... .. . ... ...
ROW 90 : D-3 00 8 P80 ... ... : B-3 00 8 P80 ... ... : B-2 00 . ... : F-# 00 0 ... : ... .. . ... ...
ROW 91 : ... .. . ... ... ... : ... .. . ... ... ... : ... .. . ... : ... .. . ... : ... .. . ... ...
ROW 92 : ... .. 7 ... ... ... : ... .. 7 ... ... ... : ... .. . ... : ... .. . ... : ... .. . ... ...
ROW 93 : ... .. . ... ... ... : ... .. . ... ... ... : ... .. . ... : ... .. . ... : ... .. . ... ...
ROW 94 : ... .. . ... ... ... : ... .. . ... ... ... : ... .. . ... : ... .. . ... : ... .. . ... ...
ROW 95 : ... .. . ... ... ... : ... .. . ... ... ... : ... .. . ... : ... .. . ... : ... .. . ... ...
ROW 96 : G-3 00 8 P80 ... ... : D-4 00 8 P81 ... ... : ... .. . ... : ... .. . ... : ... .. . ... ...
ROW 97 : ... .. . ... ... ... : ... .. . ... ... ... : ... .. . ... : ... .. . ... : ... .. . ... ...
ROW 98 : ... .. 7 ... ... ... : ... .. 7 ... ... ... : ... .. . ... : ... .. . ... : ... .. . ... ...
ROW 99 : ... .. . ... ... ... : ... .. . ... ... ... : --- .. . ... : ... .. . ... : ... .. . ... ...
ROW 9A : ... .. . ... ... ... : ... .. . ... ... ... : ... .. . ... : ... .. . ... : ... .. . ... ...
ROW 9B : ... .. . ... ... ... : ... .. . ... ... ... : ... .. . ... : ... .. . ... : ... .. . ... ...
ROW 9C : B-3 00 8 P80 ... ... : G-4 00 8 P81 ... ... : ... .. . ... : ... .. . ... : ... .. . ... ...
ROW 9D : ... .. . ... ... ... : ... .. . ... ... ... : ... .. . ... : ... .. . ... : ... .. . ... ...
ROW 9E : ... .. 7 ... ... ... : ... .. 7 ... ... ... : ... .. . ... : ... .. . ... : ... .. . ... ...
ROW 9F : ... .. . ... ... ... : ... .. . ... ... ... : ... .. . ... : ... .. . ... : ... .. . ... ...
ROW A0 : ... .. . ... ... ... : ... .. . ... ... ... : ... .. . ... : ... .. . ... : ... .. . ... ...
ROW A1 : ... .. . ... ... ... : ... .. . ... ... ... : ... .. . ... : ... .. . ... : ... .. . ... ...
ROW A2 : D-4 00 8 P81 ... ... : B-4 00 8 P80 ... ... : G-3 00 . ... : C-# 00 E ... : ... .. . ... ...
ROW A3 : ... .. . ... ... ... : ... .. . ... ... ... : ... .. . ... : ... .. 0 ... : ... .. . ... ...
ROW A4 : ... .. 7 ... ... ... : ... .. 7 ... ... ... : ... .. . ... : ... .. . ... : ... .. . ... ...
ROW A5 : ... .. . ... ... ... : ... .. . ... ... ... : ... .. . ... : ... .. . ... : ... .. . ... ...
ROW A6 : ... .. . ... ... ... : ... .. . ... ... ... : ... .. . ... : ... .. . ... : ... .. . ... ...
ROW A7 : ... .. . ... ... ... : ... .. . ... ... ... : ... .. . ... : ... .. . ... : ... .. . ... ...
ROW A8 : ... .. 6 ... ... ... : ... .. 6 ... ... ... : B-2 00 . ... : ... .. E ... : ... .. . ... ...
ROW A9 : ... .. . ... ... ... : ... .. . ... ... ... : ... .. . ... : ... .. 0 ... : ... .. . ... ...
ROW AA : ... .. . ... ... ... : ... .. . ... ... ... : ... .. . ... : ... .. . ... : ... .. . ... ...
ROW AB : ... .. . ... ... ... : ... .. . ... ... ... : ... .. . ... : ... .. . ... : ... .. . ... ...
ROW AC : ... .. . ... ... ... : ... .. . ... ... ... : ... .. . ... : ... .. . ... : ... .. . ... ...
ROW AD : ... .. . ... ... ... : ... .. . ... ... ... : ... .. . ... : ... .. . ... : ... .. . ... ...
ROW AE : ... .. . ... ... ... : ... .. . ... ... ... : ... .. . ... : ... .. E ... : ... .. . ... ...
ROW AF : ... .. . ... ... ... : ... .. . ... ... ... : ... .. . ... : ... .. 0 ... : ... .. . ... ...
ROW B0 : ... .. . ... ... ... : ... .. . ... ... ... : ... .. . ... : ... .. . ... : ... .. . ... ...
ROW B1 : ... .. . ... ... ... : ... .. . ... ... ... : --- .. . ... : ... .. . ... : ... .. . ... ...
ROW B2 : ... .. . ... ... ... : ... .. . ... ... ... : ... .. . ... : ... .. . ... : ... .. . ... ...
ROW B3 : ... .. . ... ... ... : ... .. . ... ... ... : ... .. . ... : ... .. . ... : ... .. . ... ...
ROW B4 : ... .. . ... ... ... : ... .. . ... ... ... : ... .. . ... : ... .. E ... : ... .. . ... ...
ROW B5 : ... .. . ... ... ... : ... .. . ... ... ... : ... .. . ... : ... .. 0 ... : ... .. . ... ...
ROW B6 : ... .. . ... ... ... : ... .. . ... ... ... : ... .. . ... : ... .. . ... : ... .. . ... ...
ROW B7 : ... .. . ... ... ... : ... .. . ... ... ... : ... .. . ... : ... .. . ... : ... .. . ... ...
ROW B8 : ... .. . ... ... ... : ... .. . ... ... ... : ... .. . ... : ... .. . ... : ... .. . ... ...
ROW B9 : ... .. . ... ... ... : ... .. . ... ... ... : ... .. . ... : ... .. . ... : ... .. . ... ...
ROW BA : ... .. . ... ... ... : ... .. . ... ... ... : G-3 00 . ... : ... .. E ... : ... .. . ... ...
ROW BB : ... .. . ... ... ... : ... .. . ... ... ... : ... .. . ... : ... .. 0 ... : ... .. . ... ...
ROW BC : ... .. . ... ... ... : ... .. . ... ... ... : ... .. . ... : ... .. . ... : ... .. . ... ...
ROW BD : ... .. . ... ... ... : ... .. . ... ... ... : ... .. . ... : ... .. . ... : ... .. . ... ...
ROW BE : ... .. . ... ... ... : ... .. . ... ... ... : ... .. . ... : ... .. . ... : ... .. . ... ...
ROW BF : ... .. . ... ... ... : ... .. . ... ... ... : ... .. . ... : ... .. . ... : ... .. . ... ...
ROW C0 : A#3 00 8 P81 ... ... : G-4 00 8 P81 ... ... : A#2 00 . ... : F-# 00 0 ... : ... .. . ... ...
ROW C1 : ... .. . ... ... ... : ... .. . ... ... ... : ... .. . ... : ... .. . ... : ... .. . ... ...
ROW C2 : ... .. 7 ... ... ... : ... .. 7 ... ... ... : ... .. . ... : ... .. . ... : ... .. . ... ...
ROW C3 : ... .. . ... ... ... : ... .. . ... ... ... : ... .. . ... : ... .. . ... : ... .. . ... ...
ROW C4 : ... .. . ... ... ... : ... .. . ... ... ... : ... .. . ... : ... .. . ... : ... .. . ... ...
ROW C5 : ... .. . ... ... ... : ... .. . ... ... ... : ... .. . ... : ... .. . ... : ... .. . ... ...
ROW C6 : ... .. 0 ... ... ... : ... .. 0 ... ... ... : ... .. . ... : ... .. . ... : ... .. . ... ...
ROW C7 : ... .. . ... ... ... : ... .. . ... ... ... : ... .. . ... : ... .. . ... : ... .. . ... ...
ROW C8 : ... .. . ... ... ... : ... .. . ... ... ... : ... .. . ... : ... .. . ... : ... .. . ... ...
ROW C9 : ... .. . ... ... ... : ... .. . ... ... ... : --- .. . ... : ... .. . ... : ... .. . ... ...
ROW CA : ... .. . ... ... ... : ... .. . ... ... ... : ... .. . ... : ... .. . ... : ... .. . ... ...
ROW CB : ... .. . ... ... ... : ... .. . ... ... ... : ... .. . ... : ... .. . ... : ... .. . ... ...
ROW CC : C#3 00 8 P80 ... ... : A#3 00 8 P81 ... ... : ... .. . ... : ... .. . ... : ... .. . ... ...
ROW CD : ... .. . ... ... ... : ... .. . ... ... ... : ... .. . ... : ... .. . ... : ... .. . ... ...
ROW CE : ... .. 7 ... ... ... : ... .. 7 ... ... ... : ... .. . ... : ... .. . ... : ... .. . ... ...
ROW CF : ... .. . ... ... ... : ... .. . ... ... ... : ... .. . ... : ... .. . ... : ... .. . ... ...
ROW D0 : ... .. . ... ... ... : ... .. . ... ... ... : ... .. . ... : ... .. . ... : ... .. . ... ...
ROW D1 : ... .. . ... ... ... : ... .. . ... ... ... : ... .. . ... : ... .. . ... : ... .. . ... ...
ROW D2 : G-3 00 8 P80 ... ... : C#4 00 8 P80 ... ... : G-3 00 . ... : C-# 00 E ... : ... .. . ... ...
ROW D3 : ... .. . ... ... ... : ... .. . ... ... ... : ... .. . ... : ... .. 0 ... : ... .. . ... ...
ROW D4 : ... .. 7 ... ... ... : ... .. 7 ... ... ... : ... .. . ... : ... .. . ... : ... .. . ... ...
ROW D5 : ... .. . ... ... ... : ... .. . ... ... ... : ... .. . ... : ... .. . ... : ... .. . ... ...
ROW D6 : ... .. . ... ... ... : ... .. . ... ... ... : ... .. . ... : ... .. . ... : ... .. . ... ...
ROW D7 : ... .. . ... ... ... : ... .. . ... ... ... : ... .. . ... : ... .. . ... : ... .. . ... ...
ROW D8 : ... .. 6 ... ... ... : ... .. 6 ... ... ... : A#2 00 . ... : F-# 00 0 ... : ... .. . ... ...
ROW D9 : ... .. . ... ... ... : ... .. . ... ... ... : ... .. . ... : ... .. . ... : ... .. . ... ...
ROW DA : ... .. . ... ... ... : ... .. . ... ... ... : ... .. . ... : ... .. . ... : ... .. . ... ...
ROW DB : ... .. . ... ... ... : ... .. . ... ... ... : ... .. . ... : ... .. . ... : ... .. . ... ...
ROW DC : ... .. . ... ... ... : ... .. . ... ... ... : ... .. . ... : ... .. . ... : ... .. . ... ...
ROW DD : ... .. . ... ... ... : ... .. . ... ... ... : ... .. . ... : ... .. . ... : ... .. . ... ...
ROW DE : ... .. . ... ... ... : ... .. . ... ... ... : ... .. . ... : ... .. . ... : ... .. . ... ...
ROW DF : ... .. . ... ... ... : ... .. . ... ... ... : ... .. . ... : ... .. . ... : ... .. . ... ...
ROW E0 : ... .. . ... ... ... : ... .. . ... ... ... : ... .. . ... : ... .. . ... : ... .. . ... ...
ROW E1 : ... .. . ... ... ... : ... .. . ... ... ... : --- .. . ... : ... .. . ... : ... .. . ... ...
ROW E2 : ... .. . ... ... ... : ... .. . ... ... ... : ... .. . ... : ... .. . ... : ... .. . ... ...
ROW E3 : ... .. . ... ... ... : ... .. . ... ... ... : ... .. . ... : ... .. . ... : ... .. . ... ...
ROW E4 : C#3 00 8 P80 ... ... : A#3 00 8 P81 ... ... : ... .. . ... : ... .. . ... : ... .. . ... ...
ROW E5 : ... .. . ... ... ... : ... .. . ... ... ... : ... .. . ... : ... .. . ... : ... .. . ... ...
ROW E6 : ... .. 7 ... ... ... : ... .. 7 ... ... ... : ... .. . ... : ... .. . ... : ... .. . ... ...
ROW E7 : ... .. . ... ... ... : ... .. . ... ... ... : ... .. . ... : ... .. . ... : ... .. . ... ...
ROW E8 : ... .. . ... ... ... : ... .. . ... ... ... : ... .. . ... : ... .. . ... : ... .. . ... ...
ROW E9 : ... .. . ... ... ... : ... .. . ... ... ... : ... .. . ... : ... .. . ... : ... .. . ... ...
ROW EA : G-3 00 8 P80 ... ... : C#4 00 8 P80 ... ... : G-3 00 . ... : C-# 00 E ... : ... .. . ... ...
ROW EB : ... .. . ... ... ... : ... .. . ... ... ... : ... .. . ... : ... .. 0 ... : ... .. . ... ...
ROW EC : ... .. 7 ... ... ... : ... .. 7 ... ... ... : ... .. . ... : ... .. . ... : ... .. . ... ...
ROW ED : ... .. . ... ... ... : ... .. . ... ... ... : ... .. . ... : ... .. . ... : ... .. . ... ...
ROW EE : ... .. . ... ... ... : ... .. . ... ... ... : ... .. . ... : ... .. . ... : ... .. . ... ...
ROW EF : ... .. . ... ... ... : ... .. . ... ... ... : ... .. . ... : ... .. . ... : ... .. . ... ...
ROW F0 : D#3 00 8 P80 ... ... : C#4 00 8 P81 ... ... : G#2 00 . P7F : F-# 00 0 ... : ... .. . ... ...
ROW F1 : ... .. . ... ... ... : ... .. . ... ... ... : ... .. . ... : ... .. . ... : ... .. . ... ...
ROW F2 : ... .. 7 ... ... ... : ... .. 7 ... ... ... : ... .. . ... : ... .. . ... : ... .. . ... ...
ROW F3 : ... .. . ... ... ... : ... .. . ... ... ... : ... .. . ... : ... .. . ... : ... .. . ... ...
ROW F4 : ... .. . ... ... ... : ... .. . ... ... ... : ... .. . ... : ... .. . ... : ... .. . ... ...
ROW F5 : ... .. . ... ... ... : ... .. . ... ... ... : ... .. . ... : ... .. . ... : ... .. . ... ...
ROW F6 : G#3 00 8 P80 ... ... : D#4 00 8 P81 ... ... : ... .. . ... : ... .. . ... : ... .. . ... ...
ROW F7 : ... .. . ... ... ... : ... .. . ... ... ... : ... .. . ... : ... .. . ... : ... .. . ... ...
ROW F8 : ... .. 7 ... ... ... : ... .. 7 ... ... ... : ... .. . ... : ... .. . ... : ... .. . ... ...
ROW F9 : ... .. . ... ... ... : ... .. . ... ... ... : --- .. . ... : ... .. . ... : ... .. . ... ...
ROW FA : ... .. . ... ... ... : ... .. . ... ... ... : ... .. . ... : ... .. . ... : ... .. . ... ...
ROW FB : ... .. . ... ... ... : ... .. . ... ... ... : ... .. . ... : ... .. . ... : ... .. . ... ...
ROW FC : C#4 00 8 P81 ... ... : G-4 00 8 P81 ... ... : ... .. . ... : ... .. . ... : ... .. . ... ...
ROW FD : ... .. . ... ... ... : ... .. . ... ... ... : ... .. . ... : ... .. . ... : ... .. . ... ...
ROW FE : ... .. 7 ... ... ... : ... .. 7 ... ... ... : ... .. . ... : ... .. . ... : ... .. . ... ...
ROW FF : ... .. . ... ... ... : ... .. . ... ... ... : ... .. . ... : ... .. . ... : ... .. . ... ...

PATTERN 13
ROW 00 : ... .. . ... ... ... : ... .. . ... ... ... : ... .. . ... : ... .. . ... : ... .. . ... ...
ROW 01 : ... .. . ... ... ... : ... .. . ... ... ... : ... .. . ... : ... .. . ... : ... .. . ... ...
ROW 02 : D#4 00 8 P81 ... ... : B-4 00 8 P80 ... ... : G-3 00 . P80 : C-# 00 E ... : ... .. . ... ...
ROW 03 : ... .. . ... ... ... : ... .. . ... ... ... : ... .. . ... : ... .. 0 ... : ... .. . ... ...
ROW 04 : ... .. 7 ... ... ... : ... .. 7 ... ... ... : ... .. . ... : ... .. . ... : ... .. . ... ...
ROW 05 : ... .. . ... ... ... : ... .. . ... ... ... : ... .. . ... : ... .. . ... : ... .. . ... ...
ROW 06 : ... .. . ... ... ... : ... .. . ... ... ... : ... .. . ... : ... .. . ... : ... .. . ... ...
ROW 07 : ... .. . ... ... ... : ... .. . ... ... ... : ... .. . ... : ... .. . ... : ... .. . ... ...
ROW 08 : ... .. 6 ... ... ... : ... .. 6 ... ... ... : G#2 00 . P7F : ... .. E ... : ... .. . ... ...
ROW 09 : ... .. . ... ... ... : ... .. . ... ... ... : ... .. . ... : ... .. 0 ... : ... .. . ... ...
ROW 0A : ... .. . ... ... ... : ... .. . ... ... ... : ... .. . ... : ... .. . ... : ... .. . ... ...
ROW 0B : ... .. . ... ... ... : ... .. . ... ... ... : ... .. . ... : ... .. . ... : ... .. . ... ...
ROW 0C : ... .. . ... ... ... : ... .. . ... ... ... : ... .. . ... : ... .. . ... : ... .. . ... ...
ROW 0D : ... .. . ... ... ... : ... .. . ... ... ... : ... .. . ... : ... .. . ... : ... .. . ... ...
ROW 0E : ... .. . ... ... ... : ... .. . ... ... ... : ... .. . ... : ... .. E ... : ... .. . ... ...
ROW 0F : ... .. . ... ... ... : ... .. . ... ... ... : ... .. . ... : ... .. 0 ... : ... .. . ... ...
ROW 10 : ... .. . ... ... ... : ... .. . ... ... ... : ... .. . ... : ... .. . ... : ... .. . ... ...
ROW 11 : ... .. . ... ... ... : ... .. . ... ... ... : --- .. . ... : ... .. . ... : ... .. . ... ...
ROW 12 : ... .. . ... ... ... : ... .. . ... ... ... : ... .. . ... : ... .. . ... : ... .. . ... ...
ROW 13 : ... .. . ... ... ... : ... .. . ... ... ... : ... .. . ... : ... .. . ... : ... .. . ... ...
ROW 14 : ... .. . ... ... ... : ... .. . ... ... ... : ... .. . ... : ... .. E ... : ... .. . ... ...
ROW 15 : ... .. . ... ... ... : ... .. . ... ... ... : ... .. . ... : ... .. 0 ... : ... .. . ... ...
ROW 16 : ... .. . ... ... ... : ... .. . ... ... ... : ... .. . ... : ... .. . ... : ... .. . ... ...
ROW 17 : ... .. . ... ... ... : ... .. . ... ... ... : ... .. . ... : ... .. . ... : ... .. . ... ...
ROW 18 : ... .. . ... ... ... : ... .. . ... ... ... : ... .. . ... : ... .. . ... : ... .. . ... ...
ROW 19 : ... .. . ... ... ... : ... .. . ... ... ... : ... .. . ... : ... .. . ... : ... .. . ... ...
ROW 1A : ... .. . ... ... ... : ... .. . ... ... ... : G-3 00 . P80 : ... .. E ... : ... .. . ... ...
ROW 1B : ... .. . ... ... ... : ... .. . ... ... ... : ... .. . ... : ... .. 0 ... : ... .. . ... ...
ROW 1C : ... .. . ... ... ... : ... .. . ... ... ... : ... .. . ... : ... .. . ... : ... .. . ... ...
ROW 1D : ... .. . ... ... ... : ... .. . ... ... ... : ... .. . ... : ... .. . ... : ... .. . ... ...
ROW 1E : ... .. . ... ... ... : ... .. . ... ... ... : ... .. . ... : ... .. . ... : ... .. . ... ...
ROW 1F : ... .. . ... ... ... : ... .. . ... ... ... : ... .. . ... : ... .. . ... : ... .. . ... ...
ROW 20 : G#4 00 8 P80 ... ... : C-5 00 8 P81 ... ... : F-2 00 . ... : F-# 00 0 ... : ... .. . ... ...
ROW 21 : ... .. . ... ... ... : ... .. . ... ... ... : ... .. . ... : ... .. . ... : ... .. . ... ...
ROW 22 : ... .. 7 ... ... ... : ... .. 7 ... ... ... : ... .. . ... : ... .. . ... : ... .. . ... ...
ROW 23 : ... .. . ... ... ... : ... .. . ... ... ... : ... .. . ... : ... .. . ... : ... .. . ... ...
ROW 24 : ... .. . ... ... ... : ... .. . ... ... ... : ... .. . ... : ... .. . ... : ... .. . ... ...
ROW 25 : ... .. . ... ... ... : ... .. . ... ... ... : ... .. . ... : ... .. . ... : ... .. . ... ...
ROW 26 : ... .. 0 ... ... ... : ... .. 0 ... ... ... : ... .. . ... : ... .. . ... : ... .. . ... ...
ROW 27 : ... .. . ... ... ... : ... .. . ... ... ... : ... .. . ... : ... .. . ... : ... .. . ... ...
ROW 28 : ... .. . ... ... ... : ... .. . ... ... ... : ... .. . ... : ... .. . ... : ... .. . ... ...
ROW 29 : ... .. . ... ... ... : ... .. . ... ... ... : --- .. . ... : ... .. . ... : ... .. . ... ...
ROW 2A : ... .. . ... ... ... : ... .. . ... ... ... : ... .. . ... : ... .. . ... : ... .. . ... ...
ROW 2B : ... .. . ... ... ... : ... .. . ... ... ... : ... .. . ... : ... .. . ... : ... .. . ... ...
ROW 2C : G-4 00 8 P81 ... ... : B-4 00 8 P80 ... ... : ... .. . ... : ... .. . ... : ... .. . ... ...
ROW 2D : ... .. . ... ... ... : ... .. . ... ... ... : ... .. . ... : ... .. . ... : ... .. . ... ...
ROW 2E : ... .. 7 ... ... ... : ... .. 7 ... ... ... : ... .. . ... : ... .. . ... : ... .. . ... ...
ROW 2F : ... .. . ... ... ... : ... .. . ... ... ... : ... .. . ... : ... .. . ... : ... .. . ... ...
ROW 30 : ... .. . ... ... ... : ... .. . ... ... ... : ... .. . ... : ... .. . ... : ... .. . ... ...
ROW 31 : ... .. . ... ... ... : ... .. . ... ... ... : ... .. . ... : ... .. . ... : ... .. . ... ...
ROW 32 : G#4 00 8 P80 ... ... : C-5 00 8 P81 ... ... : F-3 00 . ... : C-# 00 E ... : ... .. . ... ...
ROW 33 : ... .. . ... ... ... : ... .. . ... ... ... : ... .. . ... : ... .. 0 ... : ... .. . ... ...
ROW 34 : ... .. 7 ... ... ... : ... .. 7 ... ... ... : ... .. . ... : ... .. . ... : ... .. . ... ...
ROW 35 : ... .. . ... ... ... : ... .. . ... ... ... : ... .. . ... : ... .. . ... : ... .. . ... ...
ROW 36 : ... .. . ... ... ... : ... .. . ... ... ... : ... .. . ... : ... .. . ... : ... .. . ... ...
ROW 37 : ... .. . ... ... ... : ... .. . ... ... ... : ... .. . ... : ... .. . ... : ... .. . ... ...
ROW 38 : ... .. 6 ... ... ... : ... .. 6 ... ... ... : F#2 00 . ... : F-# 00 0 ... : ... .. . ... ...
ROW 39 : ... .. . ... ... ... : ... .. . ... ... ... : ... .. . ... : ... .. . ... : ... .. . ... ...
ROW 3A : ... .. . ... ... ... : ... .. . ... ... ... : ... .. . ... : ... .. . ... : ... .. . ... ...
ROW 3B : ... .. . ... ... ... : ... .. . ... ... ... : ... .. . ... : ... .. . ... : ... .. . ... ...
ROW 3C : ... .. . ... ... ... : ... .. . ... ... ... : ... .. . ... : ... .. . ... : ... .. . ... ...
ROW 3D : ... .. . ... ... ... : ... .. . ... ... ... : ... .. . ... : ... .. . ... : ... .. . ... ...
ROW 3E : ... .. . ... ... ... : ... .. . ... ... ... : ... .. . ... : ... .. . ... : ... .. . ... ...
ROW 3F : ... .. . ... ... ... : ... .. . ... ... ... : ... .. . ... : ... .. . ... : ... .. . ... ...
ROW 40 : ... .. . ... ... ... : ... .. . ... ... ... : ... .. . ... : ... .. . ... : ... .. . ... ...
ROW 41 : ... .. . ... ... ... : ... .. . ... ... ... : --- .. . ... : ... .. . ... : ... .. . ... ...
ROW 42 : ... .. . ... ... ... : ... .. . ... ... ... : ... .. . ... : ... .. . ... : ... .. . ... ...
ROW 43 : ... .. . ... ... ... : ... .. . ... ... ... : ... .. . ... : ... .. . ... : ... .. . ... ...
ROW 44 : G#4 00 8 P80 ... ... : C-5 00 8 P81 ... ... : ... .. . ... : ... .. . ... : ... .. . ... ...
ROW 45 : ... .. . ... ... ... : ... .. . ... ... ... : ... .. . ... : ... .. . ... : ... .. . ... ...
ROW 46 : ... .. 7 ... ... ... : ... .. 7 ... ... ... : ... .. . ... : ... .. . ... : ... .. . ... ...
ROW 47 : ... .. . ... ... ... : ... .. . ... ... ... : ... .. . ... : ... .. . ... : ... .. . ... ...
ROW 48 : ... .. . ... ... ... : ... .. . ... ... ... : ... .. . ... : ... .. . ... : ... .. . ... ...
ROW 49 : ... .. . ... ... ... : ... .. . ... ... ... : ... .. . ... : ... .. . ... : ... .. . ... ...
ROW 4A : G-4 00 8 P81 ... ... : B-4 00 8 P80 ... ... : F#3 00 . ... : C-# 00 E ... : ... .. . ... ...
ROW 4B : ... .. . ... ... ... : ... .. . ... ... ... : ... .. . ... : ... .. 0 ... : ... .. . ... ...
ROW 4C : ... .. 7 ... ... ... : ... .. 7 ... ... ... : ... .. . ... : ... .. . ... : ... .. . ... ...
ROW 4D : ... .. . ... ... ... : ... .. . ... ... ... : ... .. . ... : ... .. . ... : ... .. . ... ...
ROW 4E : ... .. . ... ... ... : ... .. . ... ... ... : ... .. . ... : ... .. . ... : ... .. . ... ...
ROW 4F : ... .. . ... ... ... : ... .. . ... ... ... : ... .. . ... : ... .. . ... : ... .. . ... ...
ROW 50 : D#4 00 8 P81 ... ... : G-4 00 8 P81 ... ... : G-2 00 . ... : F-# 00 0 ... : ... .. . ... ...
ROW 51 : ... .. . ... ... ... : ... .. . ... ... ... : ... .. . ... : ... .. . ... : ... .. . ... ...
ROW 52 : ... .. 7 ... ... ... : ... .. 7 ... ... ... : ... .. . ... : ... .. . ... : ... .. . ... ...
ROW 53 : ... .. . ... ... ... : ... .. . ... ... ... : ... .. . ... : ... .. . ... : ... .. . ... ...
ROW 54 : ... .. . ... ... ... : ... .. . ... ... ... : ... .. . ... : ... .. . ... : ... .. . ... ...
ROW 55 : ... .. . ... ... ... : ... .. . ... ... ... : ... .. . ... : ... .. . ... : ... .. . ... ...
ROW 56 : ... .. 0 ... ... ... : ... .. 0 ... ... ... : ... .. . ... : ... .. . ... : ... .. . ... ...
ROW 57 : ... .. . ... ... ... : ... .. . ... ... ... : ... .. . ... : ... .. . ... : ... .. . ... ...
ROW 58 : ... .. . ... ... ... : ... .. . ... ... ... : ... .. . ... : ... .. . ... : ... .. . ... ...
ROW 59 : ... .. . ... ... ... : ... .. . ... ... ... : --- .. . ... : ... .. . ... : ... .. . ... ...
ROW 5A : ... .. . ... ... ... : ... .. . ... ... ... : ... .. . ... : ... .. . ... : ... .. . ... ...
ROW 5B : ... .. . ... ... ... : ... .. . ... ... ... : ... .. . ... : ... .. . ... : ... .. . ... ...
ROW 5C : D-4 00 8 P81 ... ... : F#4 00 8 P80 ... ... : ... .. . ... : ... .. . ... : ... .. . ... ...
ROW 5D : ... .. . ... ... ... : ... .. . ... ... ... : ... .. . ... : ... .. . ... : ... .. . ... ...
ROW 5E : ... .. 7 ... ... ... : ... .. 7 ... ... ... : ... .. . ... : ... .. . ... : ... .. . ... ...
ROW 5F : ... .. . ... ... ... : ... .. . ... ... ... : ... .. . ... : ... .. . ... : ... .. . ... ...
ROW 60 : ... .. . ... ... ... : ... .. . ... ... ... : ... .. . ... : ... .. . ... : ... .. . ... ...
ROW 61 : ... .. . ... ... ... : ... .. . ... ... ... : ... .. . ... : ... .. . ... : ... .. . ... ...
ROW 62 : D#4 00 8 P81 ... ... : G-4 00 8 P81 ... ... : G-3 00 . ... : C-# 00 E ... : ... .. . ... ...
ROW 63 : ... .. . ... ... ... : ... .. . ... ... ... : ... .. . ... : ... .. 0 ... : ... .. . ... ...
ROW 64 : ... .. 7 ... ... ... : ... .. 7 ... ... ... : ... .. . ... : ... .. . ... : ... .. . ... ...
ROW 65 : ... .. . ... ... ... : ... .. . ... ... ... : ... .. . ... : ... .. . ... : ... .. . ... ...
ROW 66 : ... .. . ... ... ... : ... .. . ... ... ... : ... .. . ... : ... .. . ... : ... .. . ... ...
ROW 67 : ... .. . ... ... ... : ... .. . ... ... ... : ... .. . ... : ... .. . ... : ... .. . ... ...
ROW 68 : ... .. 6 ... ... ... : ... .. 6 ... ... ... : G#2 00 . P7F : ... .. E ... : ... .. . ... ...
ROW 69 : ... .. . ... ... ... : ... .. . ... ... ... : ... .. . ... : ... .. 0 ... : ... .. . ... ...
ROW 6A : ... .. . ... ... ... : ... .. . ... ... ... : ... .. . ... : ... .. . ... : ... .. . ... ...
ROW 6B : ... .. . ... ... ... : ... .. . ... ... ... : ... .. . ... : ... .. . ... : ... .. . ... ...
ROW 6C : ... .. . ... ... ... : ... .. . ... ... ... : ... .. . ... : ... .. . ... : ... .. . ... ...
ROW 6D : ... .. . ... ... ... : ... .. . ... ... ... : ... .. . ... : ... .. . ... : ... .. . ... ...
ROW 6E : ... .. . ... ... ... : ... .. . ... ... ... : ... .. . ... : ... .. E ... : ... .. . ... ...
ROW 6F : ... .. . ... ... ... : ... .. . ... ... ... : ... .. . ... : ... .. 0 ... : ... .. . ... ...
ROW 70 : ... .. . ... ... ... : ... .. . ... ... ... : ... .. . ... : ... .. . ... : ... .. . ... ...
ROW 71 : ... .. . ... ... ... : ... .. . ... ... ... : --- .. . ... : ... .. . ... : ... .. . ... ...
ROW 72 : ... .. . ... ... ... : ... .. . ... ... ... : ... .. . ... : ... .. . ... : ... .. . ... ...
ROW 73 : ... .. . ... ... ... : ... .. . ... ... ... : ... .. . ... : ... .. . ... : ... .. . ... ...
ROW 74 : G#3 00 8 P80 ... ... : C#4 00 8 P81 ... ... : ... .. . ... : ... .. E ... : ... .. . ... ...
ROW 75 : ... .. . ... ... ... : ... .. . ... ... ... : ... .. . ... : ... .. 0 ... : ... .. . ... ...
ROW 76 : ... .. 7 ... ... ... : ... .. 7 ... ... ... : ... .. . ... : ... .. . ... : ... .. . ... ...
ROW 77 : ... .. . ... ... ... : ... .. . ... ... ... : ... .. . ... : ... .. . ... : ... .. . ... ...
ROW 78 : ... .. . ... ... ... : ... .. . ... ... ... : ... .. . ... : ... .. . ... : ... .. . ... ...
ROW 79 : ... .. . ... ... ... : ... .. . ... ... ... : ... .. . ... : ... .. . ... : ... .. . ... ...
ROW 7A : B-3 00 8 P80 ... ... : C#4 00 8 P80 ... ... : G#3 00 . P80 : ... .. E ... : ... .. . ... ...
ROW 7B : ... .. . ... ... ... : ... .. . ... ... ... : ... .. . ... : ... .. 0 ... : ... .. . ... ...
ROW 7C : ... .. 7 ... ... ... : ... .. 7 ... ... ... : ... .. . ... : ... .. . ... : ... .. . ... ...
ROW 7D : ... .. . ... ... ... : ... .. . ... ... ... : ... .. . ... : ... .. . ... : ... .. . ... ...
ROW 7E : ... .. . ... ... ... : ... .. . ... ... ... : ... .. . ... : ... .. . ... : ... .. . ... ...
ROW 7F : ... .. . ... ... ... : ... .. . ... ... ... : ... .. . ... : ... .. . ... : ... .. . ... ...
ROW 80 : C#4 00 8 P80 ... ... : F-4 00 8 P80 ... ... : C#3 00 . ... : F-# 00 0 ... : ... .. . ... ...
ROW 81 : ... .. . ... ... ... : ... .. . ... ... ... : ... .. . ... : ... .. . ... : ... .. . ... ...
ROW 82 : ... .. 7 ... ... ... : ... .. 7 ... ... ... : ... .. . ... : ... .. . ... : ... .. . ... ...
ROW 83 : ... .. . ... ... ... : ... .. . ... ... ... : ... .. . ... : ... .. . ... : ... .. . ... ...
ROW 84 : ... .. . ... ... ... : ... .. . ... ... ... : ... .. . ... : ... .. . ... : ... .. . ... ...
ROW 85 : ... .. . ... ... ... : ... .. . ... ... ... : ... .. . ... : ... .. . ... : ... .. . ... ...
ROW 86 : ... .. 0 ... ... ... : ... .. 0 ... ... ... : ... .. . ... : ... .. . ... : ... .. . ... ...
ROW 87 : ... .. . ... ... ... : ... .. . ... ... ... : ... .. . ... : ... .. . ... : ... .. . ... ...
ROW 88 : ... .. . ... ... ... : ... .. . ... ... ... : ... .. . ... : ... .. . ... : ... .. . ... ...
ROW 89 : ... .. . ... ... ... : ... .. . ... ... ... : --- .. . ... : ... .. . ... : ... .. . ... ...
ROW 8A : ... .. . ... ... ... : ... .. . ... ... ... : ... .. . ... : ... .. . ... : ... .. . ... ...
ROW 8B : ... .. . ... ... ... : ... .. . ... ... ... : ... .. . ... : ... .. . ... : ... .. . ... ...
ROW 8C : C-4 00 8 P81 ... ... : D#4 00 8 P81 ... ... : ... .. . ... : ... .. . ... : ... .. . ... ...
ROW 8D : ... .. . ... ... ... : ... .. . ... ... ... : ... .. . ... : ... .. . ... : ... .. . ... ...
ROW 8E : ... .. 7 ... ... ... : ... .. 7 ... ... ... : ... .. . ... : ... .. . ... : ... .. . ... ...
ROW 8F : ... .. . ... ... ... : ... .. . ... ... ... : ... .. . ... : ... .. . ... : ... .. . ... ...
ROW 90 : ... .. . ... ... ... : ... .. . ... ... ... : ... .. . ... : ... .. . ... : ... .. . ... ...
ROW 91 : ... .. . ... ... ... : ... .. . ... ... ... : ... .. . ... : ... .. . ... : ... .. . ... ...
ROW 92 : C#4 00 8 P80 ... ... : F-4 00 8 P80 ... ... : F-3 00 . ... : C-# 00 E ... : ... .. . ... ...
ROW 93 : ... .. . ... ... ... : ... .. . ... ... ... : ... .. . ... : ... .. 0 ... : ... .. . ... ...
ROW 94 : ... .. 7 ... ... ... : ... .. 7 ... ... ... : ... .. . ... : ... .. . ... : ... .. . ... ...
ROW 95 : ... .. . ... ... ... : ... .. . ... ... ... : ... .. . ... : ... .. . ... : ... .. . ... ...
ROW 96 : ... .. . ... ... ... : ... .. . ... ... ... : ... .. . ... : ... .. . ... : ... .. . ... ...
ROW 97 : ... .. . ... ... ... : ... .. . ... ... ... : ... .. . ... : ... .. . ... : ... .. . ... ...
ROW 98 : ... .. 6 ... ... ... : ... .. 6 ... ... ... : G-2 00 . ... : F-# 00 0 ... : ... .. . ... ...
ROW 99 : ... .. . ... ... ... : ... .. . ... ... ... : ... .. . ... : ... .. . ... : ... .. . ... ...
ROW 9A : ... .. . ... ... ... : ... .. . ... ... ... : ... .. . ... : ... .. . ... : ... .. . ... ...
ROW 9B : ... .. . ... ... ... : ... .. . ... ... ... : ... .. . ... : ... .. . ... : ... .. . ... ...
ROW 9C : ... .. . ... ... ... : ... .. . ... ... ... : ... .. . ... : ... .. . ... : ... .. . ... ...
ROW 9D : ... .. . ... ... ... : ... .. . ... ... ... : ... .. . ... : ... .. . ... : ... .. . ... ...
ROW 9E : ... .. . ... ... ... : ... .. . ... ... ... : ... .. . ... : ... .. . ... : ... .. . ... ...
ROW 9F : ... .. . ... ... ... : ... .. . ... ... ... : ... .. . ... : ... .. . ... : ... .. . ... ...
ROW A0 : ... .. . ... ... ... : ... .. . ... ... ... : ... .. . ... : ... .. . ... : ... .. . ... ...
ROW A1 : ... .. . ... ... ... : ... .. . ... ... ... : --- .. . ... : ... .. . ... : ... .. . ... ...
ROW A2 : ... .. . ... ... ... : ... .. . ... ... ... : ... .. . ... : ... .. . ... : ... .. . ... ...
ROW A3 : ... .. . ... ... ... : ... .. . ... ... ... : ... .. . ... : ... .. . ... : ... .. . ... ...
ROW A4 : C-4 00 8 P81 ... ... : D#4 00 8 P81 ... ... : ... .. . ... : ... .. . ... : ... .. . ... ...
ROW A5 : ... .. . ... ... ... : ... .. . ... ... ... : ... .. . ... : ... .. . ... : ... .. . ... ...
ROW A6 : ... .. 7 ... ... ... : ... .. 7 ... ... ... : ... .. . ... : ... .. . ... : ... .. . ... ...
ROW A7 : ... .. . ... ... ... : ... .. . ... ... ... : ... .. . ... : ... .. . ... : ... .. . ... ...
ROW A8 : ... .. . ... ... ... : ... .. . ... ... ... : ... .. . ... : ... .. . ... : ... .. . ... ...
ROW A9 : ... .. . ... ... ... : ... .. . ... ... ... : ... .. . ... : ... .. . ... : ... .. . ... ...
ROW AA : B-3 00 8 P80 ... ... : C#4 00 8 P80 ... ... : C#3 00 . ... : C-# 00 E ... : ... .. . ... ...
ROW AB : ... .. . ... ... ... : ... .. . ... ... ... : ... .. . ... : ... .. 0 ... : ... .. . ... ...
ROW AC : ... .. 7 ... ... ... : ... .. 7 ... ... ... : ... .. . ... : ... .. . ... : ... .. . ... ...
ROW AD : ... .. . ... ... ... : ... .. . ... ... ... : ... .. . ... : ... .. . ... : ... .. . ... ...
ROW AE : ... .. . ... ... ... : ... .. . ... ... ... : ... .. . ... : ... .. . ... : ... .. . ... ...
ROW AF : ... .. . ... ... ... : ... .. . ... ... ... : ... .. . ... : ... .. . ... : ... .. . ... ...
ROW B0 : ... .. 6 ... ... ... : ... .. 6 ... ... ... : C-3 00 . ... : F-# 00 0 ... : ... .. . ... ...
ROW B1 : ... .. . ... ... ... : ... .. . ... ... ... : ... .. . ... : ... .. . ... : ... .. . ... ...
ROW B2 : ... .. . ... ... ... : ... .. . ... ... ... : ... .. . ... : ... .. . ... : ... .. . ... ...
ROW B3 : ... .. . ... ... ... : ... .. . ... ... ... : ... .. . ... : ... .. . ... : ... .. . ... ...
ROW B4 : ... .. . ... ... ... : ... .. . ... ... ... : ... .. . ... : ... .. . ... : ... .. . ... ...
ROW B5 : ... .. . ... ... ... : ... .. . ... ... ... : ... .. . ... : ... .. . ... : ... .. . ... ...
ROW B6 : ... .. . ... ... ... : ... .. . ... ... ... : ... .. . ... : ... .. . ... : ... .. . ... ...
ROW B7 : ... .. . ... ... ... : ... .. . ... ... ... : ... .. . ... : ... .. . ... : ... .. . ... ...
ROW B8 : ... .. . ... ... ... : ... .. . ... ... ... : ... .. . ... : ... .. . ... : ... .. . ... ...
ROW B9 : ... .. . ... ... ... : ... .. . ... ... ... : --- .. . ... : ... .. . ... : ... .. . ... ...
ROW BA : ... .. . ... ... ... : ... .. . ... ... ... : ... .. . ... : ... .. . ... : ... .. . ... ...
ROW BB : ... .. . ... ... ... : ... .. . ... ... ... : ... .. . ... : ... .. . ... : ... .. . ... ...
ROW BC : ... .. . ... ... ... : ... .. . ... ... ... : ... .. . ... : ... .. . ... : ... .. . ... ...
ROW BD : ... .. . ... ... ... : ... .. . ... ... ... : ... .. . ... : ... .. . ... : ... .. . ... ...
ROW BE : ... .. . ... ... ... : ... .. . ... ... ... : ... .. . ... : ... .. . ... : ... .. . ... ...
ROW BF : ... .. . ... ... ... : ... .. . ... ... ... : ... .. . ... : ... .. . ... : ... .. . ... ...
ROW C0 : ... .. . ... ... ... : ... .. . ... ... ... : ... .. . ... : ... .. . ... : ... .. . ... ...
ROW C1 : ... .. . ... ... ... : ... .. . ... ... ... : ... .. . ... : ... .. . ... : ... .. . ... ...
ROW C2 : ... .. . ... ... ... : ... .. . ... ... ... : G-2 00 . ... : C-# 00 E ... : ... .. . ... ...
ROW C3 : ... .. . ... ... ... : ... .. . ... ... ... : ... .. . ... : ... .. 0 ... : ... .. . ... ...
ROW C4 : ... .. . ... ... ... : ... .. . ... ... ... : ... .. . ... : ... .. . ... : ... .. . ... ...
ROW C5 : ... .. . ... ... ... : ... .. . ... ... ... : ... .. . ... : ... .. . ... : ... .. . ... ...
ROW C6 : ... .. . ... ... ... : ... .. . ... ... ... : ... .. . ... : ... .. . ... : ... .. . ... ...
ROW C7 : ... .. . ... ... ... : ... .. . ... ... ... : ... .. . ... : ... .. . ... : ... .. . ... ...
ROW C8 : ... .. . ... ... ... : ... .. . ... ... ... : C-3 00 . ... : ... .. E ... : ... .. . ... ...
ROW C9 : ... .. . ... ... ... : ... .. . ... ... ... : ... .. . ... : ... .. 0 ... : ... .. . ... ...
ROW CA : ... .. . ... ... ... : ... .. . ... ... ... : ... .. . ... : ... .. . ... : ... .. . ... ...
ROW CB : ... .. . ... ... ... : ... .. . ... ... ... : ... .. . ... : ... .. . ... : ... .. . ... ...
ROW CC : ... .. . ... ... ... : ... .. . ... ... ... : ... .. . ... : ... .. . ... : ... .. . ... ...
ROW CD : ... .. . ... ... ... : ... .. . ... ... ... : ... .. . ... : ... .. . ... : ... .. . ... ...
ROW CE : ... .. . ... ... ... : ... .. . ... ... ... : ... .. . ... : ... .. E ... : ... .. . ... ...
ROW CF : ... .. . ... ... ... : ... .. . ... ... ... : ... .. . ... : ... .. 0 ... : ... .. . ... ...
ROW D0 : ... .. . ... ... ... : ... .. . ... ... ... : ... .. . ... : ... .. . ... : ... .. . ... ...
ROW D1 : ... .. . ... ... ... : ... .. . ... ... ... : --- .. . ... : ... .. . ... : ... .. . ... ...
ROW D2 : ... .. . ... ... ... : ... .. . ... ... ... : ... .. . ... : ... .. . ... : ... .. . ... ...
ROW D3 : ... .. . ... ... ... : ... .. . ... ... ... : ... .. . ... : ... .. . ... : ... .. . ... ...
ROW D4 : ... .. . ... ... ... : ... .. . ... ... ... : ... .. . ... : ... .. E ... : ... .. . ... ...
ROW D5 : ... .. . ... ... ... : ... .. . ... ... ... : ... .. . ... : ... .. 0 ... : ... .. . ... ...
ROW D6 : ... .. . ... ... ... : ... .. . ... ... ... : ... .. . ... : ... .. . ... : ... .. . ... ...
ROW D7 : ... .. . ... ... ... : ... .. . ... ... ... : ... .. . ... : ... .. . ... : ... .. . ... ...
ROW D8 : ... .. . ... ... ... : ... .. . ... ... ... : ... .. . ... : ... .. . ... : ... .. . ... ...
ROW D9 : ... .. . ... ... ... : ... .. . ... ... ... : ... .. . ... : ... .. . ... : ... .. . ... ...
ROW DA : ... .. . ... ... ... : ... .. . ... ... ... : ... .. . ... : ... .. E ... : ... .. . ... ...
ROW DB : ... .. . ... ... ... : ... .. . ... ... ... : ... .. . ... : ... .. 0 ... : ... .. . ... ...
ROW DC : ... .. . ... ... ... : ... .. . ... ... ... : ... .. . ... : ... .. . ... : ... .. . ... ...
ROW DD : ... .. . ... ... ... : ... .. . ... ... ... : ... .. . ... : ... .. . ... : ... .. . ... ...
ROW DE : ... .. . ... ... ... : ... .. . ... ... ... : ... .. . ... : ... .. . ... : ... .. . ... ...
ROW DF : ... .. . ... ... ... : ... .. . ... ... ... : ... .. . ... : ... .. . ... : ... .. . ... ...
ROW E0 : ... .. 1 ... V01 ... : ... .. 1 ... V01 ... : C-3 00 . ... : D-# 00 6 ... : ... .. . ... ...
ROW E1 : ... .. . ... ... ... : ... .. . ... ... ... : ... .. . ... : ... .. . ... : ... .. . ... ...
ROW E2 : ... .. . ... ... ... : ... .. . ... ... ... : ... .. . ... : ... .. . ... : ... .. . ... ...
ROW E3 : ... .. . ... ... ... : ... .. . ... ... ... : ... .. . ... : ... .. . ... : ... .. . ... ...
ROW E4 : ... .. . ... ... ... : ... .. . ... ... ... : ... .. . ... : ... .. . ... : ... .. . ... ...
ROW E5 : ... .. . ... ... ... : ... .. . ... ... ... : ... .. . ... : ... .. 0 ... : ... .. . ... ...
ROW E6 : ... .. . ... ... ... : ... .. . ... ... ... : ... .. . ... : ... .. . ... : ... .. . ... ...
ROW E7 : ... .. . ... ... ... : ... .. . ... ... ... : ... .. . ... : ... .. . ... : ... .. . ... ...
ROW E8 : ... .. . ... ... ... : ... .. . ... ... ... : ... .. . ... : ... .. . ... : ... .. . ... ...
ROW E9 : ... .. . ... ... ... : ... .. . ... ... ... : --- .. . ... : ... .. . ... : ... .. . ... ...
ROW EA : ... .. . ... ... ... : ... .. . ... ... ... : ... .. . ... : ... .. . ... : ... .. . ... ...
ROW EB : ... .. . ... ... ... : ... .. . ... ... ... : ... .. . ... : ... .. . ... : ... .. . ... ...
ROW EC : G-3 00 B P80 ... ... : D#4 00 B P81 ... ... : ... .. . ... : ... .. . ... : ... .. . ... ...
ROW ED : ... .. A ... ... ... : ... .. A ... ... ... : ... .. . ... : ... .. . ... : ... .. . ... ...
ROW EE : ... .. 9 ... ... ... : ... .. 9 ... ... ... : ... .. . ... : ... .. . ... : ... .. . ... ...
ROW EF : ... .. 8 ... ... ... : ... .. 8 ... ... ... : ... .. . ... : ... .. . ... : ... .. . ... ...
ROW F0 : ... .. 7 ... ... ... : ... .. 7 ... ... ... : ... .. . ... : ... .. . ... : ... .. . ... ...
ROW F1 : ... .. 6 ... ... ... : ... .. 6 ... ... ... : ... .. . ... : ... .. . ... : ... .. . ... ...
ROW F2 : ... .. 5 ... ... ... : ... .. 5 ... ... ... : C#3 00 . ... : C-# 00 E ... : ... .. . ... ...
ROW F3 : ... .. 4 ... ... ... : ... .. 4 ... ... ... : ... .. . ... : ... .. 0 ... : ... .. . ... ...
ROW F4 : ... .. 3 ... ... ... : ... .. 3 ... ... ... : ... .. . ... : ... .. . ... : ... .. . ... ...
ROW F5 : ... .. 2 ... ... ... : ... .. 2 ... ... ... : ... .. . ... : ... .. . ... : ... .. . ... ...
ROW F6 : ... .. 1 ... ... ... : ... .. 1 ... ... ... : ... .. . ... : ... .. . ... : ... .. . ... ...
ROW F7 : ... .. . ... ... ... : ... .. . ... ... ... : ... .. . ... : ... .. . ... : ... .. . ... ...
ROW F8 : C-4 00 B P81 ... ... : G-4 00 B P81 ... ... : D#3 00 . ... : D-# 00 6 ... : ... .. . ... ...
ROW F9 : ... .. A ... ... ... : ... .. A ... ... ... : ... .. . ... : ... .. . ... : ... .. . ... ...
ROW FA : ... .. 9 ... ... ... : ... .. 9 ... ... ... : ... .. . ... : ... .. . ... : ... .. . ... ...
ROW FB : ... .. 8 ... ... ... : ... .. 8 ... ... ... : ... .. . ... : ... .. . ... : ... .. . ... ...
ROW FC : ... .. 7 ... ... ... : ... .. 7 ... ... ... : ... .. . ... : ... .. . ... : ... .. . ... ...
ROW FD : ... .. 6 ... ... ... : ... .. 6 ... ... ... : ... .. . ... : ... .. 0 ... : ... .. . ... ...
ROW FE : ... .. 1 ... ... ... : ... .. 1 ... ... ... : ... .. . ... : ... .. . ... : ... .. . ... ...
ROW FF : ... .. . ... ... ... : ... .. . ... ... ... : ... .. . ... : ... .. . ... : ... .. . ... ...

PATTERN 14
ROW 00 : ... .. . ... ... ... : ... .. . ... ... ... : ... .. . ... : ... .. . ... : ... .. . ... ...
ROW 01 : ... .. . ... ... ... : ... .. . ... ... ... : --- .. . ... : ... .. . ... : ... .. . ... ...
ROW 02 : ... .. . ... ... ... : ... .. . ... ... ... : ... .. . ... : ... .. . ... : ... .. . ... ...
ROW 03 : ... .. . ... ... ... : ... .. . ... ... ... : ... .. . ... : ... .. . ... : ... .. . ... ...
ROW 04 : ... .. . ... ... ... : ... .. . ... ... ... : ... .. . ... : ... .. . ... : ... .. . ... ...
ROW 05 : ... .. . ... ... ... : ... .. . ... ... ... : ... .. . ... : ... .. . ... : ... .. . ... ...
ROW 06 : ... .. . ... ... ... : ... .. . ... ... ... : ... .. . ... : ... .. . ... : ... .. . ... ...
ROW 07 : ... .. . ... ... ... : ... .. . ... ... ... : ... .. . ... : ... .. . ... : ... .. . ... ...
ROW 08 : ... .. . ... ... ... : ... .. . ... ... ... : ... .. . ... : ... .. . ... : ... .. . ... ...
ROW 09 : ... .. . ... ... ... : ... .. . ... ... ... : ... .. . ... : ... .. . ... : ... .. . ... ...
ROW 0A : D#4 00 B P81 ... ... : G#4 00 B P80 ... ... : G-3 00 . ... : C-# 00 E ... : ... .. . ... ...
ROW 0B : ... .. A ... ... ... : ... .. A ... ... ... : ... .. . ... : ... .. 0 ... : ... .. . ... ...
ROW 0C : ... .. 9 ... ... ... : ... .. 9 ... ... ... : ... .. . ... : ... .. . ... : ... .. . ... ...
ROW 0D : ... .. 8 ... ... ... : ... .. 8 ... ... ... : ... .. . ... : ... .. . ... : ... .. . ... ...
ROW 0E : ... .. 7 ... ... ... : ... .. 7 ... ... ... : ... .. . ... : ... .. . ... : ... .. . ... ...
ROW 0F : ... .. 6 ... ... ... : ... .. 6 ... ... ... : ... .. . ... : ... .. . ... : ... .. . ... ...
ROW 10 : ... .. 5 ... ... ... : ... .. 5 ... ... ... : G#3 00 . ... : D-# 00 6 ... : ... .. . ... ...
ROW 11 : ... .. 4 ... ... ... : ... .. 4 ... ... ... : ... .. . ... : ... .. . ... : ... .. . ... ...
ROW 12 : ... .. 3 ... ... ... : ... .. 3 ... ... ... : ... .. . ... : ... .. . ... : ... .. . ... ...
ROW 13 : ... .. 2 ... ... ... : ... .. 2 ... ... ... : ... .. . ... : ... .. . ... : ... .. . ... ...
ROW 14 : ... .. 1 ... ... ... : ... .. 1 ... ... ... : ... .. . ... : ... .. . ... : ... .. . ... ...
ROW 15 : ... .. . ... ... ... : ... .. . ... ... ... : ... .. . ... : ... .. 0 ... : ... .. . ... ...
ROW 16 : ... .. . ... ... ... : ... .. . ... ... ... : ... .. . ... : ... .. . ... : ... .. . ... ...
ROW 17 : ... .. . ... ... ... : ... .. . ... ... ... : ... .. . ... : ... .. . ... : ... .. . ... ...
ROW 18 : ... .. . ... ... ... : ... .. . ... ... ... : ... .. . ... : ... .. . ... : ... .. . ... ...
ROW 19 : ... .. . ... ... ... : ... .. . ... ... ... : --- .. . ... : ... .. . ... : ... .. . ... ...
ROW 1A : ... .. . ... ... ... : ... .. . ... ... ... : ... .. . ... : ... .. . ... : ... .. . ... ...
ROW 1B : ... .. . ... ... ... : ... .. . ... ... ... : ... .. . ... : ... .. . ... : ... .. . ... ...
ROW 1C : ... .. . ... ... ... : ... .. . ... ... ... : ... .. . ... : ... .. . ... : ... .. . ... ...
ROW 1D : ... .. . ... ... ... : ... .. . ... ... ... : ... .. . ... : ... .. . ... : ... .. . ... ...
ROW 1E : ... .. . ... ... ... : ... .. . ... ... ... : ... .. . ... : ... .. . ... : ... .. . ... ...
ROW 1F : ... .. . ... ... ... : ... .. . ... ... ... : ... .. . ... : ... .. . ... : ... .. . ... ...
ROW 20 : ... .. . ... ... ... : ... .. . ... ... ... : ... .. . ... : ... .. . ... : ... .. . ... ...
ROW 21 : ... .. . ... ... ... : ... .. . ... ... ... : ... .. . ... : ... .. . ... : ... .. . ... ...
ROW 22 : ... .. . ... ... ... : ... .. . ... ... ... : G-3 00 . ... : C-# 00 E ... : ... .. . ... ...
ROW 23 : ... .. . ... ... ... : ... .. . ... ... ... : ... .. . ... : ... .. 0 ... : ... .. . ... ...
ROW 24 : ... .. . ... ... ... : ... .. . ... ... ... : ... .. . ... : ... .. . ... : ... .. . ... ...
ROW 25 : ... .. . ... ... ... : ... .. . ... ... ... : ... .. . ... : ... .. . ... : ... .. . ... ...
ROW 26 : ... .. . ... ... ... : ... .. . ... ... ... : ... .. . ... : ... .. . ... : ... .. . ... ...
ROW 27 : ... .. . ... ... ... : ... .. . ... ... ... : ... .. . ... : ... .. . ... : ... .. . ... ...
ROW 28 : D#4 00 B P81 ... ... : G#4 00 B P80 ... ... : D#3 00 . ... : D-# 00 6 ... : ... .. . ... ...
ROW 29 : ... .. A ... ... ... : ... .. A ... ... ... : ... .. . ... : ... .. . ... : ... .. . ... ...
ROW 2A : ... .. 9 ... ... ... : ... .. 9 ... ... ... : ... .. . ... : ... .. . ... : ... .. . ... ...
ROW 2B : ... .. 8 ... ... ... : ... .. 8 ... ... ... : ... .. . ... : ... .. . ... : ... .. . ... ...
ROW 2C : ... .. 7 ... ... ... : ... .. 7 ... ... ... : ... .. . ... : ... .. . ... : ... .. . ... ...
ROW 2D : ... .. 6 ... ... ... : ... .. 6 ... ... ... : ... .. . ... : ... .. 0 ... : ... .. . ... ...
ROW 2E : ... .. 1 ... ... ... : ... .. 1 ... ... ... : ... .. . ... : ... .. . ... : ... .. . ... ...
ROW 2F : ... .. . ... ... ... : ... .. . ... ... ... : ... .. . ... : ... .. . ... : ... .. . ... ...
ROW 30 : ... .. . ... ... ... : ... .. . ... ... ... : ... .. . ... : ... .. . ... : ... .. . ... ...
ROW 31 : ... .. . ... ... ... : ... .. . ... ... ... : --- .. . ... : ... .. . ... : ... .. . ... ...
ROW 32 : ... .. . ... ... ... : ... .. . ... ... ... : ... .. . ... : ... .. . ... : ... .. . ... ...
ROW 33 : ... .. . ... ... ... : ... .. . ... ... ... : ... .. . ... : ... .. . ... : ... .. . ... ...
ROW 34 : C-4 00 B P81 ... ... : G-4 00 B P81 ... ... : ... .. . ... : ... .. . ... : ... .. . ... ...
ROW 35 : ... .. A ... ... ... : ... .. A ... ... ... : ... .. . ... : ... .. . ... : ... .. . ... ...
ROW 36 : ... .. 9 ... ... ... : ... .. 9 ... ... ... : ... .. . ... : ... .. . ... : ... .. . ... ...
ROW 37 : ... .. 8 ... ... ... : ... .. 8 ... ... ... : ... .. . ... : ... .. . ... : ... .. . ... ...
ROW 38 : ... .. 7 ... ... ... : ... .. 7 ... ... ... : ... .. . ... : ... .. . ... : ... .. . ... ...
ROW 39 : ... .. 6 ... ... ... : ... .. 6 ... ... ... : ... .. . ... : ... .. . ... : ... .. . ... ...
ROW 3A : G#3 00 B P80 ... ... : D#4 00 B P81 ... ... : C-3 00 . ... : C-# 00 E ... : ... .. . ... ...
ROW 3B : ... .. A ... ... ... : ... .. A ... ... ... : ... .. . ... : ... .. 0 ... : ... .. . ... ...
ROW 3C : ... .. 9 ... ... ... : ... .. 9 ... ... ... : ... .. . ... : ... .. . ... : ... .. . ... ...
ROW 3D : ... .. 8 ... ... ... : ... .. 8 ... ... ... : ... .. . ... : ... .. . ... : ... .. . ... ...
ROW 3E : ... .. 7 ... ... ... : ... .. 7 ... ... ... : ... .. . ... : ... .. . ... : ... .. . ... ...
ROW 3F : ... .. 6 ... ... ... : ... .. 6 ... ... ... : ... .. . ... : ... .. . ... : ... .. . ... ...
ROW 40 : F#3 00 B P80 ... ... : C#4 00 B P80 ... ... : C#3 00 . ... : D-# 00 6 ... : ... .. . ... ...
ROW 41 : ... .. A ... ... ... : ... .. A ... ... ... : ... .. . ... : ... .. . ... : ... .. . ... ...
ROW 42 : ... .. 9 ... ... ... : ... .. 9 ... ... ... : ... .. . ... : ... .. . ... : ... .. . ... ...
ROW 43 : ... .. 8 ... ... ... : ... .. 8 ... ... ... : ... .. . ... : ... .. . ... : ... .. . ... ...
ROW 44 : ... .. 7 ... ... ... : ... .. 7 ... ... ... : ... .. . ... : ... .. . ... : ... .. . ... ...
ROW 45 : ... .. 6 ... ... ... : ... .. 6 ... ... ... : ... .. . ... : ... .. 0 ... : ... .. . ... ...
ROW 46 : ... .. 1 ... ... ... : ... .. 1 ... ... ... : ... .. . ... : ... .. . ... : ... .. . ... ...
ROW 47 : ... .. . ... ... ... : ... .. . ... ... ... : ... .. . ... : ... .. . ... : ... .. . ... ...
ROW 48 : ... .. . ... ... ... : ... .. . ... ... ... : ... .. . ... : ... .. . ... : ... .. . ... ...
ROW 49 : ... .. . ... ... ... : ... .. . ... ... ... : --- .. . ... : ... .. . ... : ... .. . ... ...
ROW 4A : ... .. . ... ... ... : ... .. . ... ... ... : ... .. . ... : ... .. . ... : ... .. . ... ...
ROW 4B : ... .. . ... ... ... : ... .. . ... ... ... : ... .. . ... : ... .. . ... : ... .. . ... ...
ROW 4C : G-3 00 B P80 ... ... : D#4 00 B P81 ... ... : ... .. . ... : ... .. . ... : ... .. . ... ...
ROW 4D : ... .. A ... ... ... : ... .. A ... ... ... : ... .. . ... : ... .. . ... : ... .. . ... ...
ROW 4E : ... .. 9 ... ... ... : ... .. 9 ... ... ... : ... .. . ... : ... .. . ... : ... .. . ... ...
ROW 4F : ... .. 8 ... ... ... : ... .. 8 ... ... ... : ... .. . ... : ... .. . ... : ... .. . ... ...
ROW 50 : ... .. 7 ... ... ... : ... .. 7 ... ... ... : ... .. . ... : ... .. . ... : ... .. . ... ...
ROW 51 : ... .. 6 ... ... ... : ... .. 6 ... ... ... : ... .. . ... : ... .. . ... : ... .. . ... ...
ROW 52 : F#3 00 B P80 ... ... : C#4 00 B P80 ... ... : D#3 00 . ... : C-# 00 E ... : ... .. . ... ...
ROW 53 : ... .. A ... ... ... : ... .. A ... ... ... : ... .. . ... : ... .. 0 ... : ... .. . ... ...
ROW 54 : ... .. 9 ... ... ... : ... .. 9 ... ... ... : ... .. . ... : ... .. . ... : ... .. . ... ...
ROW 55 : ... .. 8 ... ... ... : ... .. 8 ... ... ... : ... .. . ... : ... .. . ... : ... .. . ... ...
ROW 56 : ... .. 7 ... ... ... : ... .. 7 ... ... ... : ... .. . ... : ... .. . ... : ... .. . ... ...
ROW 57 : ... .. 6 ... ... ... : ... .. 6 ... ... ... : ... .. . ... : ... .. . ... : ... .. . ... ...
ROW 58 : F#3 00 B P80 ... ... : C#4 00 B P80 ... ... : F#3 00 . ... : D-# 00 6 ... : ... .. . ... ...
ROW 59 : ... .. A ... ... ... : ... .. A ... ... ... : ... .. . ... : ... .. . ... : ... .. . ... ...
ROW 5A : ... .. 9 ... ... ... : ... .. 9 ... ... ... : ... .. . ... : ... .. . ... : ... .. . ... ...
ROW 5B : ... .. 8 ... ... ... : ... .. 8 ... ... ... : ... .. . ... : ... .. . ... : ... .. . ... ...
ROW 5C : ... .. 7 ... ... ... : ... .. 7 ... ... ... : ... .. . ... : ... .. . ... : ... .. . ... ...
ROW 5D : ... .. 6 ... ... ... : ... .. 6 ... ... ... : ... .. . ... : ... .. 0 ... : ... .. . ... ...
ROW 5E : ... .. 1 ... ... ... : ... .. 1 ... ... ... : ... .. . ... : ... .. . ... : ... .. . ... ...
ROW 5F : ... .. . ... ... ... : ... .. . ... ... ... : ... .. . ... : ... .. . ... : ... .. . ... ...
ROW 60 : ... .. . ... ... ... : ... .. . ... ... ... : ... .. . ... : ... .. . ... : ... .. . ... ...
ROW 61 : ... .. . ... ... ... : ... .. . ... ... ... : --- .. . ... : ... .. . ... : ... .. . ... ...
ROW 62 : ... .. . ... ... ... : ... .. . ... ... ... : ... .. . ... : ... .. . ... : ... .. . ... ...
ROW 63 : ... .. . ... ... ... : ... .. . ... ... ... : ... .. . ... : ... .. . ... : ... .. . ... ...
ROW 64 : C#3 00 B P80 ... ... : G#3 00 B P80 ... ... : ... .. . ... : ... .. . ... : ... .. . ... ...
ROW 65 : ... .. A ... ... ... : ... .. A ... ... ... : ... .. . ... : ... .. . ... : ... .. . ... ...
ROW 66 : ... .. 9 ... ... ... : ... .. 9 ... ... ... : ... .. . ... : ... .. . ... : ... .. . ... ...
ROW 67 : ... .. 8 ... ... ... : ... .. 8 ... ... ... : ... .. . ... : ... .. . ... : ... .. . ... ...
ROW 68 : ... .. 7 ... ... ... : ... .. 7 ... ... ... : ... .. . ... : ... .. . ... : ... .. . ... ...
ROW 69 : ... .. 6 ... ... ... : ... .. 6 ... ... ... : ... .. . ... : ... .. . ... : ... .. . ... ...
ROW 6A : ... .. 1 ... ... ... : ... .. 1 ... ... ... : G#2 00 . P7F : C-# 00 E ... : ... .. . ... ...
ROW 6B : ... .. . ... ... ... : ... .. . ... ... ... : ... .. . ... : ... .. 0 ... : ... .. . ... ...
ROW 6C : ... .. . ... ... ... : ... .. . ... ... ... : ... .. . ... : ... .. . ... : ... .. . ... ...
ROW 6D : ... .. . ... ... ... : ... .. . ... ... ... : ... .. . ... : ... .. . ... : ... .. . ... ...
ROW 6E : ... .. . ... ... ... : ... .. . ... ... ... : ... .. . ... : ... .. . ... : ... .. . ... ...
ROW 6F : ... .. . ... ... ... : ... .. . ... ... ... : ... .. . ... : ... .. . ... : ... .. . ... ...
ROW 70 : ... .. 5 ... ... ... : ... .. 5 ... ... ... : C#3 00 . P80 : D-# 00 6 ... : ... .. . ... ...
ROW 71 : ... .. 4 ... ... ... : ... .. 4 ... ... ... : ... .. . ... : ... .. . ... : ... .. . ... ...
ROW 72 : ... .. 3 ... ... ... : ... .. 3 ... ... ... : ... .. . ... : ... .. . ... : ... .. . ... ...
ROW 73 : ... .. 2 ... ... ... : ... .. 2 ... ... ... : ... .. . ... : ... .. . ... : ... .. . ... ...
ROW 74 : ... .. 1 ... ... ... : ... .. 1 ... ... ... : ... .. . ... : ... .. . ... : ... .. . ... ...
ROW 75 : ... .. . ... ... ... : ... .. . ... ... ... : ... .. . ... : ... .. 0 ... : ... .. . ... ...
ROW 76 : ... .. . ... ... ... : ... .. . ... ... ... : --- .. . ... : ... .. . ... : ... .. . ... ...
ROW 77 : ... .. . ... ... ... : ... .. . ... ... ... : ... .. . ... : ... .. . ... : ... .. . ... ...
ROW 78 : ... .. . ... ... ... : ... .. . ... ... ... : ... .. . ... : ... .. . ... : ... .. . ... ...
ROW 79 : ... .. . ... ... ... : ... .. . ... ... ... : ... .. . ... : ... .. . ... : ... .. . ... ...
ROW 7A : ... .. . ... ... ... : ... .. . ... ... ... : ... .. . ... : ... .. . ... : ... .. . ... ...
ROW 7B : ... .. . ... ... ... : ... .. . ... ... ... : ... .. . ... : ... .. . ... : ... .. . ... ...
ROW 7C : C#3 00 B P80 ... ... : G#3 00 B P80 ... ... : D#3 00 . ... : ... .. . ... : ... .. . ... ...
ROW 7D : ... .. A ... ... ... : ... .. A ... ... ... : ... .. . ... : ... .. . ... : ... .. . ... ...
ROW 7E : ... .. 9 ... ... ... : ... .. 9 ... ... ... : ... .. . ... : ... .. . ... : ... .. . ... ...
ROW 7F : ... .. 8 ... ... ... : ... .. 8 ... ... ... : ... .. . ... : ... .. . ... : ... .. . ... ...
ROW 80 : F#3 00 B P80 ... ... : C#4 00 B P80 ... ... : ... .. . ... : ... .. . ... : ... .. . ... ...
ROW 81 : ... .. A ... ... ... : ... .. A ... ... ... : ... .. . ... : ... .. . ... : ... .. . ... ...
ROW 82 : ... .. 9 ... ... ... : ... .. 9 ... ... ... : C-3 00 . ... : C-# 00 E ... : ... .. . ... ...
ROW 83 : ... .. 8 ... ... ... : ... .. 8 ... ... ... : ... .. . ... : ... .. 0 ... : ... .. . ... ...
ROW 84 : C#3 00 B P80 ... ... : G#3 00 B P80 ... ... : ... .. . ... : ... .. . ... : ... .. . ... ...
ROW 85 : ... .. A ... ... ... : ... .. A ... ... ... : ... .. . ... : ... .. . ... : ... .. . ... ...
ROW 86 : ... .. 9 ... ... ... : ... .. 9 ... ... ... : ... .. . ... : ... .. . ... : ... .. . ... ...
ROW 87 : ... .. 8 ... ... ... : ... .. 8 ... ... ... : ... .. . ... : ... .. . ... : ... .. . ... ...
ROW 88 : F#3 00 B P80 ... ... : G#3 00 B P80 ... ... : B-2 00 . ... : D-# 00 6 ... : ... .. . ... ...
ROW 89 : ... .. A ... ... ... : ... .. A ... ... ... : ... .. . ... : ... .. . ... : ... .. . ... ...
ROW 8A : ... .. 9 ... ... ... : ... .. 9 ... ... ... : ... .. . ... : ... .. . ... : ... .. . ... ...
ROW 8B : ... .. 8 ... ... ... : ... .. 8 ... ... ... : ... .. . ... : ... .. . ... : ... .. . ... ...
ROW 8C : C#3 00 B P80 ... ... : C#4 00 B P80 ... ... : ... .. . ... : ... .. . ... : ... .. . ... ...
ROW 8D : ... .. A ... ... ... : ... .. A ... ... ... : ... .. . ... : ... .. 0 ... : ... .. . ... ...
ROW 8E : ... .. 9 ... ... ... : ... .. 9 ... ... ... : ... .. . ... : ... .. . ... : ... .. . ... ...
ROW 8F : ... .. 8 ... ... ... : ... .. 8 ... ... ... : ... .. . ... : ... .. . ... : ... .. . ... ...
ROW 90 : F#3 00 B P80 ... ... : G#3 00 B P80 ... ... : ... .. . ... : ... .. . ... : ... .. . ... ...
ROW 91 : ... .. A ... ... ... : ... .. A ... ... ... : --- .. . ... : ... .. . ... : ... .. . ... ...
ROW 92 : ... .. 9 ... ... ... : ... .. 9 ... ... ... : ... .. . ... : ... .. . ... : ... .. . ... ...
ROW 93 : ... .. 8 ... ... ... : ... .. 8 ... ... ... : ... .. . ... : ... .. . ... : ... .. . ... ...
ROW 94 : C#3 00 B P80 ... ... : C#4 00 B P80 ... ... : ... .. . ... : ... .. . ... : ... .. . ... ...
ROW 95 : ... .. A ... ... ... : ... .. A ... ... ... : ... .. . ... : ... .. . ... : ... .. . ... ...
ROW 96 : ... .. 9 ... ... ... : ... .. 9 ... ... ... : ... .. . ... : ... .. . ... : ... .. . ... ...
ROW 97 : ... .. 8 ... ... ... : ... .. 8 ... ... ... : ... .. . ... : ... .. . ... : ... .. . ... ...
ROW 98 : F#3 00 B P80 ... ... : G#3 00 B P80 ... ... : ... .. . ... : ... .. . ... : ... .. . ... ...
ROW 99 : ... .. A ... ... ... : ... .. A ... ... ... : ... .. . ... : ... .. . ... : ... .. . ... ...
ROW 9A : ... .. 9 ... ... ... : ... .. 9 ... ... ... : G#2 00 . P7F : C-# 00 E ... : ... .. . ... ...
ROW 9B : ... .. 8 ... ... ... : ... .. 8 ... ... ... : ... .. . ... : ... .. 0 ... : ... .. . ... ...
ROW 9C : C#3 00 B P80 ... ... : C#4 00 B P80 ... ... : ... .. . ... : ... .. . ... : ... .. . ... ...
ROW 9D : ... .. A ... ... ... : ... .. A ... ... ... : ... .. . ... : ... .. . ... : ... .. . ... ...
ROW 9E : ... .. 9 ... ... ... : ... .. 9 ... ... ... : ... .. . ... : ... .. . ... : ... .. . ... ...
ROW 9F : ... .. 8 ... ... ... : ... .. 8 ... ... ... : ... .. . ... : ... .. . ... : ... .. . ... ...
ROW A0 : ... .. 5 ... ... ... : ... .. 5 ... ... ... : G-2 00 . P80 : D-# 00 6 ... : ... .. . ... ...
ROW A1 : ... .. 4 ... ... ... : ... .. 4 ... ... ... : ... .. . ... : ... .. . ... : ... .. . ... ...
ROW A2 : ... .. 3 ... ... ... : ... .. 3 ... ... ... : ... .. . ... : ... .. . ... : ... .. . ... ...
ROW A3 : ... .. 2 ... ... ... : ... .. 2 ... ... ... : ... .. . ... : ... .. . ... : ... .. . ... ...
ROW A4 : ... .. 1 ... ... ... : ... .. 1 ... ... ... : ... .. . ... : ... .. . ... : ... .. . ... ...
ROW A5 : ... .. . ... ... ... : ... .. . ... ... ... : ... .. . ... : ... .. 0 ... : ... .. . ... ...
ROW A6 : ... .. . ... ... ... : ... .. . ... ... ... : ... .. . ... : ... .. . ... : ... .. . ... ...
ROW A7 : ... .. . ... ... ... : ... .. . ... ... ... : ... .. . ... : ... .. . ... : ... .. . ... ...
ROW A8 : ... .. . ... ... ... : ... .. . ... ... ... : ... .. . ... : ... .. . ... : ... .. . ... ...
ROW A9 : ... .. . ... ... ... : ... .. . ... ... ... : --- .. . ... : ... .. . ... : ... .. . ... ...
ROW AA : ... .. . ... ... ... : ... .. . ... ... ... : ... .. . ... : ... .. . ... : ... .. . ... ...
ROW AB : ... .. . ... ... ... : ... .. . ... ... ... : ... .. . ... : ... .. . ... : ... .. . ... ...
ROW AC : G-3 00 B P80 ... ... : D#4 00 B P81 ... ... : ... .. . ... : ... .. . ... : ... .. . ... ...
ROW AD : ... .. A ... ... ... : ... .. A ... ... ... : ... .. . ... : ... .. . ... : ... .. . ... ...
ROW AE : ... .. 9 ... ... ... : ... .. 9 ... ... ... : ... .. . ... : ... .. . ... : ... .. . ... ...
ROW AF : ... .. 8 ... ... ... : ... .. 8 ... ... ... : ... .. . ... : ... .. . ... : ... .. . ... ...
ROW B0 : ... .. 7 ... ... ... : ... .. 7 ... ... ... : ... .. . ... : ... .. . ... : ... .. . ... ...
ROW B1 : ... .. 6 ... ... ... : ... .. 6 ... ... ... : ... .. . ... : ... .. . ... : ... .. . ... ...
ROW B2 : F-3 00 B P80 ... ... : C#4 00 B P80 ... ... : G-3 00 . ... : C-# 00 E ... : ... .. . ... ...
ROW B3 : ... .. A ... ... ... : ... .. A ... ... ... : ... .. . ... : ... .. 0 ... : ... .. . ... ...
ROW B4 : ... .. 9 ... ... ... : ... .. 9 ... ... ... : ... .. . ... : ... .. . ... : ... .. . ... ...
ROW B5 : ... .. 8 ... ... ... : ... .. 8 ... ... ... : ... .. . ... : ... .. . ... : ... .. . ... ...
ROW B6 : ... .. 7 ... ... ... : ... .. 7 ... ... ... : ... .. . ... : ... .. . ... : ... .. . ... ...
ROW B7 : ... .. 6 ... ... ... : ... .. 6 ... ... ... : ... .. . ... : ... .. . ... : ... .. . ... ...
ROW B8 : F-3 00 B P80 ... ... : C#4 00 B P80 ... ... : F-3 00 . ... : D-# 00 6 ... : ... .. . ... ...
ROW B9 : ... .. A ... ... ... : ... .. A ... ... ... : ... .. . ... : ... .. . ... : ... .. . ... ...
ROW BA : ... .. 9 ... ... ... : ... .. 9 ... ... ... : ... .. . ... : ... .. . ... : ... .. . ... ...
ROW BB : ... .. 8 ... ... ... : ... .. 8 ... ... ... : ... .. . ... : ... .. . ... : ... .. . ... ...
ROW BC : ... .. 7 ... ... ... : ... .. 7 ... ... ... : ... .. . ... : ... .. . ... : ... .. . ... ...
ROW BD : ... .. 6 ... ... ... : ... .. 6 ... ... ... : ... .. . ... : ... .. 0 ... : ... .. . ... ...
ROW BE : ... .. 1 ... ... ... : ... .. 1 ... ... ... : ... .. . ... : ... .. . ... : ... .. . ... ...
ROW BF : ... .. . ... ... ... : ... .. . ... ... ... : ... .. . ... : ... .. . ... : ... .. . ... ...
ROW C0 : ... .. . ... ... ... : ... .. . ... ... ... : ... .. . ... : ... .. . ... : ... .. . ... ...
ROW C1 : ... .. . ... ... ... : ... .. . ... ... ... : --- .. . ... : ... .. . ... : ... .. . ... ...
ROW C2 : ... .. . ... ... ... : ... .. . ... ... ... : ... .. . ... : ... .. . ... : ... .. . ... ...
ROW C3 : ... .. . ... ... ... : ... .. . ... ... ... : ... .. . ... : ... .. . ... : ... .. . ... ...
ROW C4 : G-3 00 B P80 ... ... : D#4 00 B P81 ... ... : ... .. . ... : ... .. . ... : ... .. . ... ...
ROW C5 : ... .. A ... ... ... : ... .. A ... ... ... : ... .. . ... : ... .. . ... : ... .. . ... ...
ROW C6 : ... .. 9 ... ... ... : ... .. 9 ... ... ... : ... .. . ... : ... .. . ... : ... .. . ... ...
ROW C7 : ... .. 8 ... ... ... : ... .. 8 ... ... ... : ... .. . ... : ... .. . ... : ... .. . ... ...
ROW C8 : ... .. 7 ... ... ... : ... .. 7 ... ... ... : ... .. . ... : ... .. . ... : ... .. . ... ...
ROW C9 : ... .. 6 ... ... ... : ... .. 6 ... ... ... : ... .. . ... : ... .. . ... : ... .. . ... ...
ROW CA : ... .. 1 ... ... ... : ... .. 1 ... ... ... : C#3 00 . ... : C-# 00 E ... : ... .. . ... ...
ROW CB : ... .. . ... ... ... : ... .. . ... ... ... : ... .. . ... : ... .. 0 ... : ... .. . ... ...
ROW CC : ... .. . ... ... ... : ... .. . ... ... ... : ... .. . ... : ... .. . ... : ... .. . ... ...
ROW CD : ... .. . ... ... ... : ... .. . ... ... ... : ... .. . ... : ... .. . ... : ... .. . ... ...
ROW CE : ... .. . ... ... ... : ... .. . ... ... ... : ... .. . ... : ... .. . ... : ... .. . ... ...
ROW CF : ... .. . ... ... ... : ... .. . ... ... ... : ... .. . ... : ... .. . ... : ... .. . ... ...
ROW D0 : ... .. 5 ... ... ... : ... .. 5 ... ... ... : B-2 00 . ... : D-# 00 6 ... : ... .. . ... ...
ROW D1 : ... .. 4 ... ... ... : ... .. 4 ... ... ... : ... .. . ... : ... .. . ... : ... .. . ... ...
ROW D2 : ... .. 3 ... ... ... : ... .. 3 ... ... ... : ... .. . ... : ... .. . ... : ... .. . ... ...
ROW D3 : ... .. 2 ... ... ... : ... .. 2 ... ... ... : ... .. . ... : ... .. . ... : ... .. . ... ...
ROW D4 : ... .. 1 ... ... ... : ... .. 1 ... ... ... : ... .. . ... : ... .. . ... : ... .. . ... ...
ROW D5 : ... .. . ... ... ... : ... .. . ... ... ... : ... .. . ... : ... .. 0 ... : ... .. . ... ...
ROW D6 : ... .. . ... ... ... : ... .. . ... ... ... : ... .. . ... : ... .. . ... : ... .. . ... ...
ROW D7 : ... .. . ... ... ... : ... .. . ... ... ... : ... .. . ... : ... .. . ... : ... .. . ... ...
ROW D8 : ... .. . ... ... ... : ... .. . ... ... ... : ... .. . ... : ... .. . ... : ... .. . ... ...
ROW D9 : ... .. . ... ... ... : ... .. . ... ... ... : --- .. . ... : ... .. . ... : ... .. . ... ...
ROW DA : ... .. . ... ... ... : ... .. . ... ... ... : ... .. . ... : ... .. . ... : ... .. . ... ...
ROW DB : ... .. . ... ... ... : ... .. . ... ... ... : ... .. . ... : ... .. . ... : ... .. . ... ...
ROW DC : B-3 00 B P80 ... ... : G-4 00 B P81 ... ... : ... .. . ... : ... .. . ... : ... .. . ... ...
ROW DD : ... .. A ... ... ... : ... .. A ... ... ... : ... .. . ... : ... .. . ... : ... .. . ... ...
ROW DE : ... .. 9 ... ... ... : ... .. 9 ... ... ... : ... .. . ... : ... .. . ... : ... .. . ... ...
ROW DF : ... .. 8 ... ... ... : ... .. 8 ... ... ... : ... .. . ... : ... .. . ... : ... .. . ... ...
ROW E0 : ... .. 7 ... ... ... : ... .. 7 ... ... ... : ... .. . ... : ... .. . ... : ... .. . ... ...
ROW E1 : ... .. 6 ... ... ... : ... .. 6 ... ... ... : ... .. . ... : ... .. . ... : ... .. . ... ...
ROW E2 : C-4 00 B P81 ... ... : G#4 00 B P80 ... ... : G-2 00 . ... : C-# 00 E ... : ... .. . ... ...
ROW E3 : ... .. A ... ... ... : ... .. A ... ... ... : ... .. . ... : ... .. 0 ... : ... .. . ... ...
ROW E4 : ... .. 9 ... ... ... : ... .. 9 ... ... ... : ... .. . ... : ... .. . ... : ... .. . ... ...
ROW E5 : ... .. 8 ... ... ... : ... .. 8 ... ... ... : ... .. . ... : ... .. . ... : ... .. . ... ...
ROW E6 : ... .. 7 ... ... ... : ... .. 7 ... ... ... : ... .. . ... : ... .. . ... : ... .. . ... ...
ROW E7 : ... .. 6 ... ... ... : ... .. 6 ... ... ... : ... .. . ... : ... .. . ... : ... .. . ... ...
ROW E8 : G-3 00 B P80 ... ... : D#4 00 B P81 ... ... : G#2 00 . P7F : D-# 00 6 ... : ... .. . ... ...
ROW E9 : ... .. A ... ... ... : ... .. A ... ... ... : ... .. . ... : ... .. . ... : ... .. . ... ...
ROW EA : ... .. 9 ... ... ... : ... .. 9 ... ... ... : ... .. . ... : ... .. . ... : ... .. . ... ...
ROW EB : ... .. 8 ... ... ... : ... .. 8 ... ... ... : ... .. . ... : ... .. . ... : ... .. . ... ...
ROW EC : ... .. 7 ... ... ... : ... .. 7 ... ... ... : ... .. . ... : ... .. . ... : ... .. . ... ...
ROW ED : ... .. 6 ... ... ... : ... .. 6 ... ... ... : ... .. . ... : ... .. 0 ... : ... .. . ... ...
ROW EE : ... .. 1 ... ... ... : ... .. 1 ... ... ... : ... .. . ... : ... .. . ... : ... .. . ... ...
ROW EF : ... .. . ... ... ... : ... .. . ... ... ... : ... .. . ... : ... .. . ... : ... .. . ... ...
ROW F0 : ... .. . ... ... ... : ... .. . ... ... ... : ... .. . ... : ... .. . ... : ... .. . ... ...
ROW F1 : ... .. . ... ... ... : ... .. . ... ... ... : --- .. . ... : ... .. . ... : ... .. . ... ...
ROW F2 : ... .. . ... ... ... : ... .. . ... ... ... : ... .. . ... : ... .. . ... : ... .. . ... ...
ROW F3 : ... .. . ... ... ... : ... .. . ... ... ... : ... .. . ... : ... .. . ... : ... .. . ... ...
ROW F4 : F-3 00 B P80 ... ... : C#4 00 B P80 ... ... : ... .. . ... : ... .. . ... : ... .. . ... ...
ROW F5 : ... .. A ... ... ... : ... .. A ... ... ... : ... .. . ... : ... .. . ... : ... .. . ... ...
ROW F6 : ... .. 9 ... ... ... : ... .. 9 ... ... ... : ... .. . ... : ... .. . ... : ... .. . ... ...
ROW F7 : ... .. 8 ... ... ... : ... .. 8 ... ... ... : ... .. . ... : ... .. . ... : ... .. . ... ...
ROW F8 : ... .. 7 ... ... ... : ... .. 7 ... ... ... : ... .. . ... : ... .. . ... : ... .. . ... ...
ROW F9 : ... .. 6 ... ... ... : ... .. 6 ... ... ... : ... .. . ... : ... .. . ... : ... .. . ... ...
ROW FA : D#3 00 B P80 ... ... : C-4 00 B P81 ... ... : B-2 00 . P80 : C-# 00 E ... : ... .. . ... ...
ROW FB : ... .. A ... ... ... : ... .. A ... ... ... : ... .. . ... : ... .. 0 ... : ... .. . ... ...
ROW FC : ... .. 9 ... ... ... : ... .. 9 ... ... ... : ... .. . ... : ... .. . ... : ... .. . ... ...
ROW FD : ... .. 8 ... ... ... : ... .. 8 ... ... ... : ... .. . ... : ... .. . ... : ... .. . ... ...
ROW FE : ... .. 7 ... ... ... : ... .. 7 ... ... ... : ... .. . ... : ... .. . ... : ... .. . ... ...
ROW FF : ... .. 6 ... ... ... : ... .. 6 ... ... ... : ... .. . ... : ... .. . ... : ... .. . ... ...

PATTERN 15
ROW 00 : ... .. 5 ... ... ... : ... .. 5 ... ... ... : C-3 00 . ... : D-# 00 6 ... : ... .. . ... ...
ROW 01 : ... .. 4 ... ... ... : ... .. 4 ... ... ... : ... .. . ... : ... .. . ... : ... .. . ... ...
ROW 02 : ... .. 3 ... ... ... : ... .. 3 ... ... ... : ... .. . ... : ... .. . ... : ... .. . ... ...
ROW 03 : ... .. 2 ... ... ... : ... .. 2 ... ... ... : ... .. . ... : ... .. . ... : ... .. . ... ...
ROW 04 : ... .. 1 ... ... ... : ... .. 1 ... ... ... : ... .. . ... : ... .. . ... : ... .. . ... ...
ROW 05 : ... .. . ... ... ... : ... .. . ... ... ... : ... .. . ... : ... .. 0 ... : ... .. . ... ...
ROW 06 : ... .. . ... ... ... : ... .. . ... ... ... : ... .. . ... : ... .. . ... : ... .. . ... ...
ROW 07 : ... .. . ... ... ... : ... .. . ... ... ... : ... .. . ... : ... .. . ... : ... .. . ... ...
ROW 08 : ... .. . ... ... ... : ... .. . ... ... ... : ... .. . ... : ... .. . ... : ... .. . ... ...
ROW 09 : ... .. . ... ... ... : ... .. . ... ... ... : --- .. . ... : ... .. . ... : ... .. . ... ...
ROW 0A : ... .. . ... ... ... : ... .. . ... ... ... : ... .. . ... : ... .. . ... : ... .. . ... ...
ROW 0B : ... .. . ... ... ... : ... .. . ... ... ... : ... .. . ... : ... .. . ... : ... .. . ... ...
ROW 0C : D#3 00 B P80 ... ... : G-3 00 B P80 ... ... : ... .. . ... : ... .. . ... : ... .. . ... ...
ROW 0D : ... .. A ... ... ... : ... .. A ... ... ... : ... .. . ... : ... .. . ... : ... .. . ... ...
ROW 0E : ... .. 9 ... ... ... : ... .. 9 ... ... ... : ... .. . ... : ... .. . ... : ... .. . ... ...
ROW 0F : ... .. 8 ... ... ... : ... .. 8 ... ... ... : ... .. . ... : ... .. . ... : ... .. . ... ...
ROW 10 : C-4 00 B P81 ... ... : D#4 00 B P81 ... ... : ... .. . ... : ... .. . ... : ... .. . ... ...
ROW 11 : ... .. A ... ... ... : ... .. A ... ... ... : ... .. . ... : ... .. . ... : ... .. . ... ...
ROW 12 : ... .. 9 ... ... ... : ... .. 9 ... ... ... : C#3 00 . ... : C-# 00 E ... : ... .. . ... ...
ROW 13 : ... .. 8 ... ... ... : ... .. 8 ... ... ... : ... .. . ... : ... .. 0 ... : ... .. . ... ...
ROW 14 : D#3 00 B P80 ... ... : G-3 00 B P80 ... ... : ... .. . ... : ... .. . ... : ... .. . ... ...
ROW 15 : ... .. A ... ... ... : ... .. A ... ... ... : ... .. . ... : ... .. . ... : ... .. . ... ...
ROW 16 : ... .. 9 ... ... ... : ... .. 9 ... ... ... : ... .. . ... : ... .. . ... : ... .. . ... ...
ROW 17 : ... .. 8 ... ... ... : ... .. 8 ... ... ... : ... .. . ... : ... .. . ... : ... .. . ... ...
ROW 18 : D#3 00 B P80 ... ... : G-3 00 B P80 ... ... : C#3 00 . ... : D-# 00 6 ... : ... .. . ... ...
ROW 19 : ... .. A ... ... ... : ... .. A ... ... ... : ... .. . ... : ... .. . ... : ... .. . ... ...
ROW 1A : ... .. 9 ... ... ... : ... .. 9 ... ... ... : ... .. . ... : ... .. . ... : ... .. . ... ...
ROW 1B : ... .. 8 ... ... ... : ... .. 8 ... ... ... : ... .. . ... : ... .. . ... : ... .. . ... ...
ROW 1C : C-4 00 B P81 ... ... : D#4 00 B P81 ... ... : ... .. . ... : ... .. . ... : ... .. . ... ...
ROW 1D : ... .. A ... ... ... : ... .. A ... ... ... : ... .. . ... : ... .. 0 ... : ... .. . ... ...
ROW 1E : ... .. 9 ... ... ... : ... .. 9 ... ... ... : ... .. . ... : ... .. . ... : ... .. . ... ...
ROW 1F : ... .. 8 ... ... ... : ... .. 8 ... ... ... : ... .. . ... : ... .. . ... : ... .. . ... ...
ROW 20 : D#3 00 B P80 ... ... : G-3 00 B P80 ... ... : ... .. . ... : ... .. . ... : ... .. . ... ...
ROW 21 : ... .. A ... ... ... : ... .. A ... ... ... : --- .. . ... : ... .. . ... : ... .. . ... ...
ROW 22 : ... .. 9 ... ... ... : ... .. 9 ... ... ... : ... .. . ... : ... .. . ... : ... .. . ... ...
ROW 23 : ... .. 8 ... ... ... : ... .. 8 ... ... ... : ... .. . ... : ... .. . ... : ... .. . ... ...
ROW 24 : C-4 00 B P81 ... ... : D#4 00 B P81 ... ... : ... .. . ... : ... .. . ... : ... .. . ... ...
ROW 25 : ... .. A ... ... ... : ... .. A ... ... ... : ... .. . ... : ... .. . ... : ... .. . ... ...
ROW 26 : ... .. 9 ... ... ... : ... .. 9 ... ... ... : ... .. . ... : ... .. . ... : ... .. . ... ...
ROW 27 : ... .. 8 ... ... ... : ... .. 8 ... ... ... : ... .. . ... : ... .. . ... : ... .. . ... ...
ROW 28 : D#3 00 B P80 ... ... : G-3 00 B P80 ... ... : ... .. . ... : ... .. . ... : ... .. . ... ...
ROW 29 : ... .. A ... ... ... : ... .. A ... ... ... : ... .. . ... : ... .. . ... : ... .. . ... ...
ROW 2A : ... .. 9 ... ... ... : ... .. 9 ... ... ... : D-3 00 . ... : C-# 00 E ... : ... .. . ... ...
ROW 2B : ... .. 8 ... ... ... : ... .. 8 ... ... ... : ... .. . ... : ... .. 0 ... : ... .. . ... ...
ROW 2C : C-4 00 B P81 ... ... : D#4 00 B P81 ... ... : ... .. . ... : ... .. . ... : ... .. . ... ...
ROW 2D : ... .. A ... ... ... : ... .. A ... ... ... : ... .. . ... : ... .. . ... : ... .. . ... ...
ROW 2E : ... .. 9 ... ... ... : ... .. 9 ... ... ... : ... .. . ... : ... .. . ... : ... .. . ... ...
ROW 2F : ... .. 8 ... ... ... : ... .. 8 ... ... ... : ... .. . ... : ... .. . ... : ... .. . ... ...
ROW 30 : ... .. . ... ... ... : ... .. . ... ... ... : D#3 00 . ... : D-# 00 6 ... : ... .. . ... ...
ROW 31 : ... .. . ... ... ... : ... .. . ... ... ... : ... .. . ... : ... .. . ... : ... .. . ... ...
ROW 32 : ... .. . ... ... ... : ... .. . ... ... ... : ... .. . ... : ... .. . ... : ... .. . ... ...
ROW 33 : ... .. . ... ... ... : ... .. . ... ... ... : ... .. . ... : ... .. . ... : ... .. . ... ...
ROW 34 : ... .. . ... ... ... : ... .. . ... ... ... : ... .. . ... : ... .. . ... : ... .. . ... ...
ROW 35 : ... .. . ... ... ... : ... .. . ... ... ... : ... .. . ... : ... .. 0 ... : ... .. . ... ...
ROW 36 : ... .. . ... ... ... : ... .. . ... ... ... : --- .. . ... : ... .. . ... : ... .. . ... ...
ROW 37 : ... .. . ... ... ... : ... .. . ... ... ... : ... .. . ... : ... .. . ... : ... .. . ... ...
ROW 38 : ... .. . ... ... ... : ... .. . ... ... ... : ... .. . ... : ... .. . ... : ... .. . ... ...
ROW 39 : ... .. . ... ... ... : ... .. . ... ... ... : ... .. . ... : ... .. . ... : ... .. . ... ...
ROW 3A : ... .. . ... ... ... : ... .. . ... ... ... : ... .. . ... : ... .. . ... : ... .. . ... ...
ROW 3B : ... .. . ... ... ... : ... .. . ... ... ... : ... .. . ... : ... .. . ... : ... .. . ... ...
ROW 3C : B-3 00 5 P80 ... ... : G-4 00 5 P81 ... ... : B-2 00 . ... : ... .. . ... : ... .. . ... ...
ROW 3D : ... .. . ... ... ... : ... .. . ... ... ... : ... .. . ... : ... .. . ... : ... .. . ... ...
ROW 3E : ... .. 6 ... ... ... : ... .. 6 ... ... ... : ... .. . ... : ... .. . ... : ... .. . ... ...
ROW 3F : ... .. 8 ... ... ... : ... .. 8 ... ... ... : ... .. . ... : ... .. . ... : ... .. . ... ...
ROW 40 : ... .. 9 ... ... ... : ... .. 9 ... ... ... : ... .. . ... : ... .. . ... : ... .. . ... ...
ROW 41 : ... .. A ... ... ... : ... .. A ... ... ... : ... .. . ... : ... .. . ... : ... .. . ... ...
ROW 42 : ... .. 1 ... ... ... : ... .. 1 ... ... ... : G#2 00 . P7F : C-# 00 E ... : ... .. . ... ...
ROW 43 : ... .. . ... ... ... : ... .. . ... ... ... : ... .. . ... : ... .. 0 ... : ... .. . ... ...
ROW 44 : ... .. . ... ... ... : ... .. . ... ... ... : ... .. . ... : ... .. . ... : ... .. . ... ...
ROW 45 : ... .. . ... ... ... : ... .. . ... ... ... : ... .. . ... : ... .. . ... : ... .. . ... ...
ROW 46 : ... .. . ... ... ... : ... .. . ... ... ... : ... .. . ... : ... .. . ... : ... .. . ... ...
ROW 47 : ... .. . ... ... ... : ... .. . ... ... ... : ... .. . ... : ... .. . ... : ... .. . ... ...
ROW 48 : G-3 00 5 P80 ... ... : B-3 00 5 P80 ... ... : G-2 00 . P80 : D-# 00 6 ... : ... .. . ... ...
ROW 49 : ... .. . ... ... ... : ... .. . ... ... ... : ... .. . ... : ... .. . ... : ... .. . ... ...
ROW 4A : ... .. 6 ... ... ... : ... .. 6 ... ... ... : ... .. . ... : ... .. . ... : ... .. . ... ...
ROW 4B : ... .. 8 ... ... ... : ... .. 8 ... ... ... : ... .. . ... : ... .. . ... : ... .. . ... ...
ROW 4C : ... .. 9 ... ... ... : ... .. 9 ... ... ... : ... .. . ... : ... .. . ... : ... .. . ... ...
ROW 4D : ... .. A ... ... ... : ... .. A ... ... ... : ... .. . ... : ... .. 0 ... : ... .. . ... ...
ROW 4E : ... .. 1 ... ... ... : ... .. 1 ... ... ... : ... .. . ... : ... .. . ... : ... .. . ... ...
ROW 4F : ... .. . ... ... ... : ... .. . ... ... ... : ... .. . ... : ... .. . ... : ... .. . ... ...
ROW 50 : ... .. . ... ... ... : ... .. . ... ... ... : ... .. . ... : ... .. . ... : ... .. . ... ...
ROW 51 : ... .. . ... ... ... : ... .. . ... ... ... : --- .. . ... : ... .. . ... : ... .. . ... ...
ROW 52 : ... .. . ... ... ... : ... .. . ... ... ... : ... .. . ... : ... .. . ... : ... .. . ... ...
ROW 53 : ... .. . ... ... ... : ... .. . ... ... ... : ... .. . ... : ... .. . ... : ... .. . ... ...
ROW 54 : F-3 00 5 P80 ... ... : G#3 00 5 P80 ... ... : ... .. . ... : ... .. . ... : ... .. . ... ...
ROW 55 : ... .. . ... ... ... : ... .. . ... ... ... : ... .. . ... : ... .. . ... : ... .. . ... ...
ROW 56 : ... .. 6 ... ... ... : ... .. 6 ... ... ... : ... .. . ... : ... .. . ... : ... .. . ... ...
ROW 57 : ... .. 8 ... ... ... : ... .. 8 ... ... ... : ... .. . ... : ... .. . ... : ... .. . ... ...
ROW 58 : ... .. 9 ... ... ... : ... .. 9 ... ... ... : ... .. . ... : ... .. . ... : ... .. . ... ...
ROW 59 : ... .. A ... ... ... : ... .. A ... ... ... : ... .. . ... : ... .. . ... : ... .. . ... ...
ROW 5A : ... .. 1 ... ... ... : ... .. 1 ... ... ... : B-2 00 . ... : C-# 00 E ... : ... .. . ... ...
ROW 5B : ... .. . ... ... ... : ... .. . ... ... ... : ... .. . ... : ... .. 0 ... : ... .. . ... ...
ROW 5C : ... .. . ... ... ... : ... .. . ... ... ... : ... .. . ... : ... .. . ... : ... .. . ... ...
ROW 5D : ... .. . ... ... ... : ... .. . ... ... ... : ... .. . ... : ... .. . ... : ... .. . ... ...
ROW 5E : ... .. . ... ... ... : ... .. . ... ... ... : ... .. . ... : ... .. . ... : ... .. . ... ...
ROW 5F : ... .. . ... ... ... : ... .. . ... ... ... : ... .. . ... : ... .. . ... : ... .. . ... ...
ROW 60 : ... .. . ... ... ... : ... .. . ... ... ... : C-3 00 . ... : D-# 00 6 ... : ... .. . ... ...
ROW 61 : ... .. . ... ... ... : ... .. . ... ... ... : ... .. . ... : ... .. . ... : ... .. . ... ...
ROW 62 : ... .. . ... ... ... : ... .. . ... ... ... : ... .. . ... : ... .. . ... : ... .. . ... ...
ROW 63 : ... .. . ... ... ... : ... .. . ... ... ... : ... .. . ... : ... .. . ... : ... .. . ... ...
ROW 64 : ... .. . ... ... ... : ... .. . ... ... ... : ... .. . ... : ... .. . ... : ... .. . ... ...
ROW 65 : ... .. . ... ... ... : ... .. . ... ... ... : ... .. . ... : ... .. 0 ... : ... .. . ... ...
ROW 66 : ... .. . ... ... ... : ... .. . ... ... ... : ... .. . ... : ... .. . ... : ... .. . ... ...
ROW 67 : ... .. . ... ... ... : ... .. . ... ... ... : ... .. . ... : ... .. . ... : ... .. . ... ...
ROW 68 : ... .. . ... ... ... : ... .. . ... ... ... : ... .. . ... : ... .. . ... : ... .. . ... ...
ROW 69 : ... .. . ... ... ... : ... .. . ... ... ... : --- .. . ... : ... .. . ... : ... .. . ... ...
ROW 6A : ... .. . ... ... ... : ... .. . ... ... ... : ... .. . ... : ... .. . ... : ... .. . ... ...
ROW 6B : ... .. . ... ... ... : ... .. . ... ... ... : ... .. . ... : ... .. . ... : ... .. . ... ...
ROW 6C : G-3 00 B P80 ... ... : D#4 00 B P81 ... ... : ... .. . ... : ... .. . ... : ... .. . ... ...
ROW 6D : ... .. A ... ... ... : ... .. A ... ... ... : ... .. . ... : ... .. . ... : ... .. . ... ...
ROW 6E : ... .. 9 ... ... ... : ... .. 9 ... ... ... : ... .. . ... : ... .. . ... : ... .. . ... ...
ROW 6F : ... .. 8 ... ... ... : ... .. 8 ... ... ... : ... .. . ... : ... .. . ... : ... .. . ... ...
ROW 70 : ... .. 7 ... ... ... : ... .. 7 ... ... ... : ... .. . ... : ... .. . ... : ... .. . ... ...
ROW 71 : ... .. 6 ... ... ... : ... .. 6 ... ... ... : ... .. . ... : ... .. . ... : ... .. . ... ...
ROW 72 : ... .. 5 ... ... ... : ... .. 5 ... ... ... : C#3 00 . ... : C-# 00 E ... : ... .. . ... ...
ROW 73 : ... .. 4 ... ... ... : ... .. 4 ... ... ... : ... .. . ... : ... .. 0 ... : ... .. . ... ...
ROW 74 : ... .. 3 ... ... ... : ... .. 3 ... ... ... : ... .. . ... : ... .. . ... : ... .. . ... ...
ROW 75 : ... .. 2 ... ... ... : ... .. 2 ... ... ... : ... .. . ... : ... .. . ... : ... .. . ... ...
ROW 76 : ... .. 1 ... ... ... : ... .. 1 ... ... ... : ... .. . ... : ... .. . ... : ... .. . ... ...
ROW 77 : ... .. . ... ... ... : ... .. . ... ... ... : ... .. . ... : ... .. . ... : ... .. . ... ...
ROW 78 : C-4 00 B P81 ... ... : G-4 00 B P81 ... ... : D#3 00 . ... : D-# 00 6 ... : ... .. . ... ...
ROW 79 : ... .. A ... ... ... : ... .. A ... ... ... : ... .. . ... : ... .. . ... : ... .. . ... ...
ROW 7A : ... .. 9 ... ... ... : ... .. 9 ... ... ... : ... .. . ... : ... .. . ... : ... .. . ... ...
ROW 7B : ... .. 8 ... ... ... : ... .. 8 ... ... ... : ... .. . ... : ... .. . ... : ... .. . ... ...
ROW 7C : ... .. 7 ... ... ... : ... .. 7 ... ... ... : ... .. . ... : ... .. . ... : ... .. . ... ...
ROW 7D : ... .. 6 ... ... ... : ... .. 6 ... ... ... : ... .. . ... : ... .. 0 ... : ... .. . ... ...
ROW 7E : ... .. 1 ... ... ... : ... .. 1 ... ... ... : ... .. . ... : ... .. . ... : ... .. . ... ...
ROW 7F : ... .. . ... ... ... : ... .. . ... ... ... : ... .. . ... : ... .. . ... : ... .. . ... ...
ROW 80 : ... .. . ... ... ... : ... .. . ... ... ... : ... .. . ... : ... .. . ... : ... .. . ... ...
ROW 81 : ... .. . ... ... ... : ... .. . ... ... ... : --- .. . ... : ... .. . ... : ... .. . ... ...
ROW 82 : ... .. . ... ... ... : ... .. . ... ... ... : ... .. . ... : ... .. . ... : ... .. . ... ...
ROW 83 : ... .. . ... ... ... : ... .. . ... ... ... : ... .. . ... : ... .. . ... : ... .. . ... ...
ROW 84 : ... .. . ... ... ... : ... .. . ... ... ... : ... .. . ... : ... .. . ... : ... .. . ... ...
ROW 85 : ... .. . ... ... ... : ... .. . ... ... ... : ... .. . ... : ... .. . ... : ... .. . ... ...
ROW 86 : ... .. . ... ... ... : ... .. . ... ... ... : ... .. . ... : ... .. . ... : ... .. . ... ...
ROW 87 : ... .. . ... ... ... : ... .. . ... ... ... : ... .. . ... : ... .. . ... : ... .. . ... ...
ROW 88 : ... .. . ... ... ... : ... .. . ... ... ... : ... .. . ... : ... .. . ... : ... .. . ... ...
ROW 89 : ... .. . ... ... ... : ... .. . ... ... ... : ... .. . ... : ... .. . ... : ... .. . ... ...
ROW 8A : D#4 00 B P81 ... ... : G#4 00 B P80 ... ... : G-3 00 . ... : C-# 00 E ... : ... .. . ... ...
ROW 8B : ... .. A ... ... ... : ... .. A ... ... ... : ... .. . ... : ... .. 0 ... : ... .. . ... ...
ROW 8C : ... .. 9 ... ... ... : ... .. 9 ... ... ... : ... .. . ... : ... .. . ... : ... .. . ... ...
ROW 8D : ... .. 8 ... ... ... : ... .. 8 ... ... ... : ... .. . ... : ... .. . ... : ... .. . ... ...
ROW 8E : ... .. 7 ... ... ... : ... .. 7 ... ... ... : ... .. . ... : ... .. . ... : ... .. . ... ...
ROW 8F : ... .. 6 ... ... ... : ... .. 6 ... ... ... : ... .. . ... : ... .. . ... : ... .. . ... ...
ROW 90 : ... .. 5 ... ... ... : ... .. 5 ... ... ... : G#3 00 . ... : D-# 00 6 ... : ... .. . ... ...
ROW 91 : ... .. 4 ... ... ... : ... .. 4 ... ... ... : ... .. . ... : ... .. . ... : ... .. . ... ...
ROW 92 : ... .. 3 ... ... ... : ... .. 3 ... ... ... : ... .. . ... : ... .. . ... : ... .. . ... ...
ROW 93 : ... .. 2 ... ... ... : ... .. 2 ... ... ... : ... .. . ... : ... .. . ... : ... .. . ... ...
ROW 94 : ... .. 1 ... ... ... : ... .. 1 ... ... ... : ... .. . ... : ... .. . ... : ... .. . ... ...
ROW 95 : ... .. . ... ... ... : ... .. . ... ... ... : ... .. . ... : ... .. 0 ... : ... .. . ... ...
ROW 96 : ... .. . ... ... ... : ... .. . ... ... ... : ... .. . ... : ... .. . ... : ... .. . ... ...
ROW 97 : ... .. . ... ... ... : ... .. . ... ... ... : ... .. . ... : ... .. . ... : ... .. . ... ...
ROW 98 : ... .. . ... ... ... : ... .. . ... ... ... : ... .. . ... : ... .. . ... : ... .. . ... ...
ROW 99 : ... .. . ... ... ... : ... .. . ... ... ... : --- .. . ... : ... .. . ... : ... .. . ... ...
ROW 9A : ... .. . ... ... ... : ... .. . ... ... ... : ... .. . ... : ... .. . ... : ... .. . ... ...
ROW 9B : ... .. . ... ... ... : ... .. . ... ... ... : ... .. . ... : ... .. . ... : ... .. . ... ...
ROW 9C : ... .. . ... ... ... : ... .. . ... ... ... : ... .. . ... : ... .. . ... : ... .. . ... ...
ROW 9D : ... .. . ... ... ... : ... .. . ... ... ... : ... .. . ... : ... .. . ... : ... .. . ... ...
ROW 9E : ... .. . ... ... ... : ... .. . ... ... ... : ... .. . ... : ... .. . ... : ... .. . ... ...
ROW 9F : ... .. . ... ... ... : ... .. . ... ... ... : ... .. . ... : ... .. . ... : ... .. . ... ...
ROW A0 : ... .. . ... ... ... : ... .. . ... ... ... : ... .. . ... : ... .. . ... : ... .. . ... ...
ROW A1 : ... .. . ... ... ... : ... .. . ... ... ... : ... .. . ... : ... .. . ... : ... .. . ... ...
ROW A2 : ... .. . ... ... ... : ... .. . ... ... ... : G-3 00 . ... : C-# 00 E ... : ... .. . ... ...
ROW A3 : ... .. . ... ... ... : ... .. . ... ... ... : ... .. . ... : ... .. 0 ... : ... .. . ... ...
ROW A4 : ... .. . ... ... ... : ... .. . ... ... ... : ... .. . ... : ... .. . ... : ... .. . ... ...
ROW A5 : ... .. . ... ... ... : ... .. . ... ... ... : ... .. . ... : ... .. . ... : ... .. . ... ...
ROW A6 : ... .. . ... ... ... : ... .. . ... ... ... : ... .. . ... : ... .. . ... : ... .. . ... ...
ROW A7 : ... .. . ... ... ... : ... .. . ... ... ... : ... .. . ... : ... .. . ... : ... .. . ... ...
ROW A8 : D#4 00 B P81 ... ... : G#4 00 B P80 ... ... : D#3 00 . ... : D-# 00 6 ... : ... .. . ... ...
ROW A9 : ... .. A ... ... ... : ... .. A ... ... ... : ... .. . ... : ... .. . ... : ... .. . ... ...
ROW AA : ... .. 9 ... ... ... : ... .. 9 ... ... ... : ... .. . ... : ... .. . ... : ... .. . ... ...
ROW AB : ... .. 8 ... ... ... : ... .. 8 ... ... ... : ... .. . ... : ... .. . ... : ... .. . ... ...
ROW AC : ... .. 7 ... ... ... : ... .. 7 ... ... ... : ... .. . ... : ... .. . ... : ... .. . ... ...
ROW AD : ... .. 6 ... ... ... : ... .. 6 ... ... ... : ... .. . ... : ... .. 0 ... : ... .. . ... ...
ROW AE : ... .. 1 ... ... ... : ... .. 1 ... ... ... : ... .. . ... : ... .. . ... : ... .. . ... ...
ROW AF : ... .. . ... ... ... : ... .. . ... ... ... : ... .. . ... : ... .. . ... : ... .. . ... ...
ROW B0 : ... .. . ... ... ... : ... .. . ... ... ... : ... .. . ... : ... .. . ... : ... .. . ... ...
ROW B1 : ... .. . ... ... ... : ... .. . ... ... ... : --- .. . ... : ... .. . ... : ... .. . ... ...
ROW B2 : ... .. . ... ... ... : ... .. . ... ... ... : ... .. . ... : ... .. . ... : ... .. . ... ...
ROW B3 : ... .. . ... ... ... : ... .. . ... ... ... : ... .. . ... : ... .. . ... : ... .. . ... ...
ROW B4 : C-4 00 B P81 ... ... : G-4 00 B P81 ... ... : ... .. . ... : ... .. . ... : ... .. . ... ...
ROW B5 : ... .. A ... ... ... : ... .. A ... ... ... : ... .. . ... : ... .. . ... : ... .. . ... ...
ROW B6 : ... .. 9 ... ... ... : ... .. 9 ... ... ... : ... .. . ... : ... .. . ... : ... .. . ... ...
ROW B7 : ... .. 8 ... ... ... : ... .. 8 ... ... ... : ... .. . ... : ... .. . ... : ... .. . ... ...
ROW B8 : ... .. 7 ... ... ... : ... .. 7 ... ... ... : ... .. . ... : ... .. . ... : ... .. . ... ...
ROW B9 : ... .. 6 ... ... ... : ... .. 6 ... ... ... : ... .. . ... : ... .. . ... : ... .. . ... ...
ROW BA : G#3 00 B P80 ... ... : D#4 00 B P81 ... ... : C-3 00 . ... : C-# 00 E ... : ... .. . ... ...
ROW BB : ... .. A ... ... ... : ... .. A ... ... ... : ... .. . ... : ... .. 0 ... : ... .. . ... ...
ROW BC : ... .. 9 ... ... ... : ... .. 9 ... ... ... : ... .. . ... : ... .. . ... : ... .. . ... ...
ROW BD : ... .. 8 ... ... ... : ... .. 8 ... ... ... : ... .. . ... : ... .. . ... : ... .. . ... ...
ROW BE : ... .. 7 ... ... ... : ... .. 7 ... ... ... : ... .. . ... : ... .. . ... : ... .. . ... ...
ROW BF : ... .. 6 ... ... ... : ... .. 6 ... ... ... : ... .. . ... : ... .. . ... : ... .. . ... ...
ROW C0 : F#3 00 B P80 ... ... : C#4 00 B P80 ... ... : C#3 00 . ... : D-# 00 6 ... : ... .. . ... ...
ROW C1 : ... .. A ... ... ... : ... .. A ... ... ... : ... .. . ... : ... .. . ... : ... .. . ... ...
ROW C2 : ... .. 9 ... ... ... : ... .. 9 ... ... ... : ... .. . ... : ... .. . ... : ... .. . ... ...
ROW C3 : ... .. 8 ... ... ... : ... .. 8 ... ... ... : ... .. . ... : ... .. . ... : ... .. . ... ...
ROW C4 : ... .. 7 ... ... ... : ... .. 7 ... ... ... : ... .. . ... : ... .. . ... : ... .. . ... ...
ROW C5 : ... .. 6 ... ... ... : ... .. 6 ... ... ... : ... .. . ... : ... .. 0 ... : ... .. . ... ...
ROW C6 : ... .. 1 ... ... ... : ... .. 1 ... ... ... : ... .. . ... : ... .. . ... : ... .. . ... ...
ROW C7 : ... .. . ... ... ... : ... .. . ... ... ... : ... .. . ... : ... .. . ... : ... .. . ... ...
ROW C8 : ... .. . ... ... ... : ... .. . ... ... ... : ... .. . ... : ... .. . ... : ... .. . ... ...
ROW C9 : ... .. . ... ... ... : ... .. . ... ... ... : --- .. . ... : ... .. . ... : ... .. . ... ...
ROW CA : ... .. . ... ... ... : ... .. . ... ... ... : ... .. . ... : ... .. . ... : ... .. . ... ...
ROW CB : ... .. . ... ... ... : ... .. . ... ... ... : ... .. . ... : ... .. . ... : ... .. . ... ...
ROW CC : G-3 00 B P80 ... ... : D#4 00 B P81 ... ... : ... .. . ... : ... .. . ... : ... .. . ... ...
ROW CD : ... .. A ... ... ... : ... .. A ... ... ... : ... .. . ... : ... .. . ... : ... .. . ... ...
ROW CE : ... .. 9 ... ... ... : ... .. 9 ... ... ... : ... .. . ... : ... .. . ... : ... .. . ... ...
ROW CF : ... .. 8 ... ... ... : ... .. 8 ... ... ... : ... .. . ... : ... .. . ... : ... .. . ... ...
ROW D0 : ... .. 7 ... ... ... : ... .. 7 ... ... ... : ... .. . ... : ... .. . ... : ... .. . ... ...
ROW D1 : ... .. 6 ... ... ... : ... .. 6 ... ... ... : ... .. . ... : ... .. . ... : ... .. . ... ...
ROW D2 : F#3 00 B P80 ... ... : C#4 00 B P80 ... ... : D#3 00 . ... : C-# 00 E ... : ... .. . ... ...
ROW D3 : ... .. A ... ... ... : ... .. A ... ... ... : ... .. . ... : ... .. 0 ... : ... .. . ... ...
ROW D4 : ... .. 9 ... ... ... : ... .. 9 ... ... ... : ... .. . ... : ... .. . ... : ... .. . ... ...
ROW D5 : ... .. 8 ... ... ... : ... .. 8 ... ... ... : ... .. . ... : ... .. . ... : ... .. . ... ...
ROW D6 : ... .. 7 ... ... ... : ... .. 7 ... ... ... : ... .. . ... : ... .. . ... : ... .. . ... ...
ROW D7 : ... .. 6 ... ... ... : ... .. 6 ... ... ... : ... .. . ... : ... .. . ... : ... .. . ... ...
ROW D8 : F#3 00 B P80 ... ... : C#4 00 B P80 ... ... : F#3 00 . ... : D-# 00 6 ... : ... .. . ... ...
ROW D9 : ... .. A ... ... ... : ... .. A ... ... ... : ... .. . ... : ... .. . ... : ... .. . ... ...
ROW DA : ... .. 9 ... ... ... : ... .. 9 ... ... ... : ... .. . ... : ... .. . ... : ... .. . ... ...
ROW DB : ... .. 8 ... ... ... : ... .. 8 ... ... ... : ... .. . ... : ... .. . ... : ... .. . ... ...
ROW DC : ... .. 7 ... ... ... : ... .. 7 ... ... ... : ... .. . ... : ... .. . ... : ... .. . ... ...
ROW DD : ... .. 6 ... ... ... : ... .. 6 ... ... ... : ... .. . ... : ... .. 0 ... : ... .. . ... ...
ROW DE : ... .. 1 ... ... ... : ... .. 1 ... ... ... : ... .. . ... : ... .. . ... : ... .. . ... ...
ROW DF : ... .. . ... ... ... : ... .. . ... ... ... : ... .. . ... : ... .. . ... : ... .. . ... ...
ROW E0 : ... .. . ... ... ... : ... .. . ... ... ... : ... .. . ... : ... .. . ... : ... .. . ... ...
ROW E1 : ... .. . ... ... ... : ... .. . ... ... ... : --- .. . ... : ... .. . ... : ... .. . ... ...
ROW E2 : ... .. . ... ... ... : ... .. . ... ... ... : ... .. . ... : ... .. . ... : ... .. . ... ...
ROW E3 : ... .. . ... ... ... : ... .. . ... ... ... : ... .. . ... : ... .. . ... : ... .. . ... ...
ROW E4 : C#3 00 B P80 ... ... : G#3 00 B P80 ... ... : ... .. . ... : ... .. . ... : ... .. . ... ...
ROW E5 : ... .. A ... ... ... : ... .. A ... ... ... : ... .. . ... : ... .. . ... : ... .. . ... ...
ROW E6 : ... .. 9 ... ... ... : ... .. 9 ... ... ... : ... .. . ... : ... .. . ... : ... .. . ... ...
ROW E7 : ... .. 8 ... ... ... : ... .. 8 ... ... ... : ... .. . ... : ... .. . ... : ... .. . ... ...
ROW E8 : ... .. 7 ... ... ... : ... .. 7 ... ... ... : ... .. . ... : ... .. . ... : ... .. . ... ...
ROW E9 : ... .. 6 ... ... ... : ... .. 6 ... ... ... : ... .. . ... : ... .. . ... : ... .. . ... ...
ROW EA : ... .. 1 ... ... ... : ... .. 1 ... ... ... : G#2 00 . P7F : C-# 00 E ... : ... .. . ... ...
ROW EB : ... .. . ... ... ... : ... .. . ... ... ... : ... .. . ... : ... .. 0 ... : ... .. . ... ...
ROW EC : ... .. . ... ... ... : ... .. . ... ... ... : ... .. . ... : ... .. . ... : ... .. . ... ...
ROW ED : ... .. . ... ... ... : ... .. . ... ... ... : ... .. . ... : ... .. . ... : ... .. . ... ...
ROW EE : ... .. . ... ... ... : ... .. . ... ... ... : ... .. . ... : ... .. . ... : ... .. . ... ...
ROW EF : ... .. . ... ... ... : ... .. . ... ... ... : ... .. . ... : ... .. . ... : ... .. . ... ...
ROW F0 : ... .. 5 ... ... ... : ... .. 5 ... ... ... : C#3 00 . P80 : D-# 00 6 ... : ... .. . ... ...
ROW F1 : ... .. 4 ... ... ... : ... .. 4 ... ... ... : ... .. . ... : ... .. . ... : ... .. . ... ...
ROW F2 : ... .. 3 ... ... ... : ... .. 3 ... ... ... : ... .. . ... : ... .. . ... : ... .. . ... ...
ROW F3 : ... .. 2 ... ... ... : ... .. 2 ... ... ... : ... .. . ... : ... .. . ... : ... .. . ... ...
ROW F4 : ... .. 1 ... ... ... : ... .. 1 ... ... ... : ... .. . ... : ... .. . ... : ... .. . ... ...
ROW F5 : ... .. . ... ... ... : ... .. . ... ... ... : ... .. . ... : ... .. 0 ... : ... .. . ... ...
ROW F6 : ... .. . ... ... ... : ... .. . ... ... ... : --- .. . ... : ... .. . ... : ... .. . ... ...
ROW F7 : ... .. . ... ... ... : ... .. . ... ... ... : ... .. . ... : ... .. . ... : ... .. . ... ...
ROW F8 : ... .. . ... ... ... : ... .. . ... ... ... : ... .. . ... : ... .. . ... : ... .. . ... ...
ROW F9 : ... .. . ... ... ... : ... .. . ... ... ... : ... .. . ... : ... .. . ... : ... .. . ... ...
ROW FA : ... .. . ... ... ... : ... .. . ... ... ... : ... .. . ... : ... .. . ... : ... .. . ... ...
ROW FB : ... .. . ... ... ... : ... .. . ... ... ... : ... .. . ... : ... .. . ... : ... .. . ... ...
ROW FC : C#3 00 B P80 ... ... : G#3 00 B P80 ... ... : D#3 00 . ... : ... .. . ... : ... .. . ... ...
ROW FD : ... .. A ... ... ... : ... .. A ... ... ... : ... .. . ... : ... .. . ... : ... .. . ... ...
ROW FE : ... .. 9 ... ... ... : ... .. 9 ... ... ... : ... .. . ... : ... .. . ... : ... .. . ... ...
ROW FF : ... .. 8 ... ... ... : ... .. 8 ... ... ... : ... .. . ... : ... .. . ... : ... .. . ... ...

PATTERN 16
ROW 00 : F#3 00 B P80 ... ... : C#4 00 B P80 ... ... : ... .. . ... : ... .. . ... : ... .. . ... ...
ROW 01 : ... .. A ... ... ... : ... .. A ... ... ... : ... .. . ... : ... .. . ... : ... .. . ... ...
ROW 02 : ... .. 9 ... ... ... : ... .. 9 ... ... ... : C-3 00 . ... : C-# 00 E ... : ... .. . ... ...
ROW 03 : ... .. 8 ... ... ... : ... .. 8 ... ... ... : ... .. . ... : ... .. 0 ... : ... .. . ... ...
ROW 04 : C#3 00 B P80 ... ... : G#3 00 B P80 ... ... : ... .. . ... : ... .. . ... : ... .. . ... ...
ROW 05 : ... .. A ... ... ... : ... .. A ... ... ... : ... .. . ... : ... .. . ... : ... .. . ... ...
ROW 06 : ... .. 9 ... ... ... : ... .. 9 ... ... ... : ... .. . ... : ... .. . ... : ... .. . ... ...
ROW 07 : ... .. 8 ... ... ... : ... .. 8 ... ... ... : ... .. . ... : ... .. . ... : ... .. . ... ...
ROW 08 : F#3 00 B P80 ... ... : G#3 00 B P80 ... ... : B-2 00 . ... : D-# 00 6 ... : ... .. . ... ...
ROW 09 : ... .. A ... ... ... : ... .. A ... ... ... : ... .. . ... : ... .. . ... : ... .. . ... ...
ROW 0A : ... .. 9 ... ... ... : ... .. 9 ... ... ... : ... .. . ... : ... .. . ... : ... .. . ... ...
ROW 0B : ... .. 8 ... ... ... : ... .. 8 ... ... ... : ... .. . ... : ... .. . ... : ... .. . ... ...
ROW 0C : C#3 00 B P80 ... ... : C#4 00 B P80 ... ... : ... .. . ... : ... .. . ... : ... .. . ... ...
ROW 0D : ... .. A ... ... ... : ... .. A ... ... ... : ... .. . ... : ... .. 0 ... : ... .. . ... ...
ROW 0E : ... .. 9 ... ... ... : ... .. 9 ... ... ... : ... .. . ... : ... .. . ... : ... .. . ... ...
ROW 0F : ... .. 8 ... ... ... : ... .. 8 ... ... ... : ... .. . ... : ... .. . ... : ... .. . ... ...
ROW 10 : F#3 00 B P80 ... ... : G#3 00 B P80 ... ... : ... .. . ... : ... .. . ... : ... .. . ... ...
ROW 11 : ... .. A ... ... ... : ... .. A ... ... ... : --- .. . ... : ... .. . ... : ... .. . ... ...
ROW 12 : ... .. 9 ... ... ... : ... .. 9 ... ... ... : ... .. . ... : ... .. . ... : ... .. . ... ...
ROW 13 : ... .. 8 ... ... ... : ... .. 8 ... ... ... : ... .. . ... : ... .. . ... : ... .. . ... ...
ROW 14 : C#3 00 B P80 ... ... : C#4 00 B P80 ... ... : ... .. . ... : ... .. . ... : ... .. . ... ...
ROW 15 : ... .. A ... ... ... : ... .. A ... ... ... : ... .. . ... : ... .. . ... : ... .. . ... ...
ROW 16 : ... .. 9 ... ... ... : ... .. 9 ... ... ... : ... .. . ... : ... .. . ... : ... .. . ... ...
ROW 17 : ... .. 8 ... ... ... : ... .. 8 ... ... ... : ... .. . ... : ... .. . ... : ... .. . ... ...
ROW 18 : F#3 00 B P80 ... ... : G#3 00 B P80 ... ... : ... .. . ... : ... .. . ... : ... .. . ... ...
ROW 19 : ... .. A ... ... ... : ... .. A ... ... ... : ... .. . ... : ... .. . ... : ... .. . ... ...
ROW 1A : ... .. 9 ... ... ... : ... .. 9 ... ... ... : G#2 00 . P7F : C-# 00 E ... : ... .. . ... ...
ROW 1B : ... .. 8 ... ... ... : ... .. 8 ... ... ... : ... .. . ... : ... .. 0 ... : ... .. . ... ...
ROW 1C : C#3 00 B P80 ... ... : C#4 00 B P80 ... ... : ... .. . ... : ... .. . ... : ... .. . ... ...
ROW 1D : ... .. A ... ... ... : ... .. A ... ... ... : ... .. . ... : ... .. . ... : ... .. . ... ...
ROW 1E : ... .. 9 ... ... ... : ... .. 9 ... ... ... : ... .. . ... : ... .. . ... : ... .. . ... ...
ROW 1F : ... .. 8 ... ... ... : ... .. 8 ... ... ... : ... .. . ... : ... .. . ... : ... .. . ... ...
ROW 20 : ... .. 5 ... ... ... : ... .. 5 ... ... ... : G-2 00 . P80 : D-# 00 6 ... : ... .. . ... ...
ROW 21 : ... .. 4 ... ... ... : ... .. 4 ... ... ... : ... .. . ... : ... .. . ... : ... .. . ... ...
ROW 22 : ... .. 3 ... ... ... : ... .. 3 ... ... ... : ... .. . ... : ... .. . ... : ... .. . ... ...
ROW 23 : ... .. 2 ... ... ... : ... .. 2 ... ... ... : ... .. . ... : ... .. . ... : ... .. . ... ...
ROW 24 : ... .. 1 ... ... ... : ... .. 1 ... ... ... : ... .. . ... : ... .. . ... : ... .. . ... ...
ROW 25 : ... .. . ... ... ... : ... .. . ... ... ... : ... .. . ... : ... .. 0 ... : ... .. . ... ...
ROW 26 : ... .. . ... ... ... : ... .. . ... ... ... : ... .. . ... : ... .. . ... : ... .. . ... ...
ROW 27 : ... .. . ... ... ... : ... .. . ... ... ... : ... .. . ... : ... .. . ... : ... .. . ... ...
ROW 28 : ... .. . ... ... ... : ... .. . ... ... ... : ... .. . ... : ... .. . ... : ... .. . ... ...
ROW 29 : ... .. . ... ... ... : ... .. . ... ... ... : --- .. . ... : ... .. . ... : ... .. . ... ...
ROW 2A : ... .. . ... ... ... : ... .. . ... ... ... : ... .. . ... : ... .. . ... : ... .. . ... ...
ROW 2B : ... .. . ... ... ... : ... .. . ... ... ... : ... .. . ... : ... .. . ... : ... .. . ... ...
ROW 2C : G-3 00 B P80 ... ... : D#4 00 B P81 ... ... : ... .. . ... : ... .. . ... : ... .. . ... ...
ROW 2D : ... .. A ... ... ... : ... .. A ... ... ... : ... .. . ... : ... .. . ... : ... .. . ... ...
ROW 2E : ... .. 9 ... ... ... : ... .. 9 ... ... ... : ... .. . ... : ... .. . ... : ... .. . ... ...
ROW 2F : ... .. 8 ... ... ... : ... .. 8 ... ... ... : ... .. . ... : ... .. . ... : ... .. . ... ...
ROW 30 : ... .. 7 ... ... ... : ... .. 7 ... ... ... : ... .. . ... : ... .. . ... : ... .. . ... ...
ROW 31 : ... .. 6 ... ... ... : ... .. 6 ... ... ... : ... .. . ... : ... .. . ... : ... .. . ... ...
ROW 32 : F-3 00 B P80 ... ... : C#4 00 B P80 ... ... : G-3 00 . ... : C-# 00 E ... : ... .. . ... ...
ROW 33 : ... .. A ... ... ... : ... .. A ... ... ... : ... .. . ... : ... .. 0 ... : ... .. . ... ...
ROW 34 : ... .. 9 ... ... ... : ... .. 9 ... ... ... : ... .. . ... : ... .. . ... : ... .. . ... ...
ROW 35 : ... .. 8 ... ... ... : ... .. 8 ... ... ... : ... .. . ... : ... .. . ... : ... .. . ... ...
ROW 36 : ... .. 7 ... ... ... : ... .. 7 ... ... ... : ... .. . ... : ... .. . ... : ... .. . ... ...
ROW 37 : ... .. 6 ... ... ... : ... .. 6 ... ... ... : ... .. . ... : ... .. . ... : ... .. . ... ...
ROW 38 : F-3 00 B P80 ... ... : C#4 00 B P80 ... ... : F-3 00 . ... : D-# 00 6 ... : ... .. . ... ...
ROW 39 : ... .. A ... ... ... : ... .. A ... ... ... : ... .. . ... : ... .. . ... : ... .. . ... ...
ROW 3A : ... .. 9 ... ... ... : ... .. 9 ... ... ... : ... .. . ... : ... .. . ... : ... .. . ... ...
ROW 3B : ... .. 8 ... ... ... : ... .. 8 ... ... ... : ... .. . ... : ... .. . ... : ... .. . ... ...
ROW 3C : ... .. 7 ... ... ... : ... .. 7 ... ... ... : ... .. . ... : ... .. . ... : ... .. . ... ...
ROW 3D : ... .. 6 ... ... ... : ... .. 6 ... ... ... : ... .. . ... : ... .. 0 ... : ... .. . ... ...
ROW 3E : ... .. 1 ... ... ... : ... .. 1 ... ... ... : ... .. . ... : ... .. . ... : ... .. . ... ...
ROW 3F : ... .. . ... ... ... : ... .. . ... ... ... : ... .. . ... : ... .. . ... : ... .. . ... ...
ROW 40 : ... .. . ... ... ... : ... .. . ... ... ... : ... .. . ... : ... .. . ... : ... .. . ... ...
ROW 41 : ... .. . ... ... ... : ... .. . ... ... ... : --- .. . ... : ... .. . ... : ... .. . ... ...
ROW 42 : ... .. . ... ... ... : ... .. . ... ... ... : ... .. . ... : ... .. . ... : ... .. . ... ...
ROW 43 : ... .. . ... ... ... : ... .. . ... ... ... : ... .. . ... : ... .. . ... : ... .. . ... ...
ROW 44 : G-3 00 B P80 ... ... : D#4 00 B P81 ... ... : ... .. . ... : ... .. . ... : ... .. . ... ...
ROW 45 : ... .. A ... ... ... : ... .. A ... ... ... : ... .. . ... : ... .. . ... : ... .. . ... ...
ROW 46 : ... .. 9 ... ... ... : ... .. 9 ... ... ... : ... .. . ... : ... .. . ... : ... .. . ... ...
ROW 47 : ... .. 8 ... ... ... : ... .. 8 ... ... ... : ... .. . ... : ... .. . ... : ... .. . ... ...
ROW 48 : ... .. 7 ... ... ... : ... .. 7 ... ... ... : ... .. . ... : ... .. . ... : ... .. . ... ...
ROW 49 : ... .. 6 ... ... ... : ... .. 6 ... ... ... : ... .. . ... : ... .. . ... : ... .. . ... ...
ROW 4A : ... .. 1 ... ... ... : ... .. 1 ... ... ... : C#3 00 . ... : C-# 00 E ... : ... .. . ... ...
ROW 4B : ... .. . ... ... ... : ... .. . ... ... ... : ... .. . ... : ... .. 0 ... : ... .. . ... ...
ROW 4C : ... .. . ... ... ... : ... .. . ... ... ... : ... .. . ... : ... .. . ... : ... .. . ... ...
ROW 4D : ... .. . ... ... ... : ... .. . ... ... ... : ... .. . ... : ... .. . ... : ... .. . ... ...
ROW 4E : ... .. . ... ... ... : ... .. . ... ... ... : ... .. . ... : ... .. . ... : ... .. . ... ...
ROW 4F : ... .. . ... ... ... : ... .. . ... ... ... : ... .. . ... : ... .. . ... : ... .. . ... ...
ROW 50 : ... .. 5 ... ... ... : ... .. 5 ... ... ... : B-2 00 . ... : D-# 00 6 ... : ... .. . ... ...
ROW 51 : ... .. 4 ... ... ... : ... .. 4 ... ... ... : ... .. . ... : ... .. . ... : ... .. . ... ...
ROW 52 : ... .. 3 ... ... ... : ... .. 3 ... ... ... : ... .. . ... : ... .. . ... : ... .. . ... ...
ROW 53 : ... .. 2 ... ... ... : ... .. 2 ... ... ... : ... .. . ... : ... .. . ... : ... .. . ... ...
ROW 54 : ... .. 1 ... ... ... : ... .. 1 ... ... ... : ... .. . ... : ... .. . ... : ... .. . ... ...
ROW 55 : ... .. . ... ... ... : ... .. . ... ... ... : ... .. . ... : ... .. 0 ... : ... .. . ... ...
ROW 56 : ... .. . ... ... ... : ... .. . ... ... ... : ... .. . ... : ... .. . ... : ... .. . ... ...
ROW 57 : ... .. . ... ... ... : ... .. . ... ... ... : ... .. . ... : ... .. . ... : ... .. . ... ...
ROW 58 : ... .. . ... ... ... : ... .. . ... ... ... : ... .. . ... : ... .. . ... : ... .. . ... ...
ROW 59 : ... .. . ... ... ... : ... .. . ... ... ... : --- .. . ... : ... .. . ... : ... .. . ... ...
ROW 5A : ... .. . ... ... ... : ... .. . ... ... ... : ... .. . ... : ... .. . ... : ... .. . ... ...
ROW 5B : ... .. . ... ... ... : ... .. . ... ... ... : ... .. . ... : ... .. . ... : ... .. . ... ...
ROW 5C : B-3 00 B P80 ... ... : G-4 00 B P81 ... ... : ... .. . ... : ... .. . ... : ... .. . ... ...
ROW 5D : ... .. A ... ... ... : ... .. A ... ... ... : ... .. . ... : ... .. . ... : ... .. . ... ...
ROW 5E : ... .. 9 ... ... ... : ... .. 9 ... ... ... : ... .. . ... : ... .. . ... : ... .. . ... ...
ROW 5F : ... .. 8 ... ... ... : ... .. 8 ... ... ... : ... .. . ... : ... .. . ... : ... .. . ... ...
ROW 60 : ... .. 7 ... ... ... : ... .. 7 ... ... ... : ... .. . ... : ... .. . ... : ... .. . ... ...
ROW 61 : ... .. 6 ... ... ... : ... .. 6 ... ... ... : ... .. . ... : ... .. . ... : ... .. . ... ...
ROW 62 : C-4 00 B P81 ... ... : G#4 00 B P80 ... ... : G-2 00 . ... : C-# 00 E ... : ... .. . ... ...
ROW 63 : ... .. A ... ... ... : ... .. A ... ... ... : ... .. . ... : ... .. 0 ... : ... .. . ... ...
ROW 64 : ... .. 9 ... ... ... : ... .. 9 ... ... ... : ... .. . ... : ... .. . ... : ... .. . ... ...
ROW 65 : ... .. 8 ... ... ... : ... .. 8 ... ... ... : ... .. . ... : ... .. . ... : ... .. . ... ...
ROW 66 : ... .. 7 ... ... ... : ... .. 7 ... ... ... : ... .. . ... : ... .. . ... : ... .. . ... ...
ROW 67 : ... .. 6 ... ... ... : ... .. 6 ... ... ... : ... .. . ... : ... .. . ... : ... .. . ... ...
ROW 68 : C-4 00 B P81 ... ... : G#4 00 B P80 ... ... : G#2 00 . P7F : D-# 00 6 ... : ... .. . ... ...
ROW 69 : ... .. A ... ... ... : ... .. A ... ... ... : ... .. . ... : ... .. . ... : ... .. . ... ...
ROW 6A : ... .. 9 ... ... ... : ... .. 9 ... ... ... : ... .. . ... : ... .. . ... : ... .. . ... ...
ROW 6B : ... .. 8 ... ... ... : ... .. 8 ... ... ... : ... .. . ... : ... .. . ... : ... .. . ... ...
ROW 6C : ... .. 7 ... ... ... : ... .. 7 ... ... ... : ... .. . ... : ... .. . ... : ... .. . ... ...
ROW 6D : ... .. 6 ... ... ... : ... .. 6 ... ... ... : ... .. . ... : ... .. 0 ... : ... .. . ... ...
ROW 6E : ... .. 1 ... ... ... : ... .. 1 ... ... ... : ... .. . ... : ... .. . ... : ... .. . ... ...
ROW 6F : ... .. . ... ... ... : ... .. . ... ... ... : ... .. . ... : ... .. . ... : ... .. . ... ...
ROW 70 : ... .. . ... ... ... : ... .. . ... ... ... : ... .. . ... : ... .. . ... : ... .. . ... ...
ROW 71 : ... .. . ... ... ... : ... .. . ... ... ... : --- .. . ... : ... .. . ... : ... .. . ... ...
ROW 72 : ... .. . ... ... ... : ... .. . ... ... ... : ... .. . ... : ... .. . ... : ... .. . ... ...
ROW 73 : ... .. . ... ... ... : ... .. . ... ... ... : ... .. . ... : ... .. . ... : ... .. . ... ...
ROW 74 : B-3 00 B P80 ... ... : G-4 00 B P81 ... ... : ... .. . ... : ... .. . ... : ... .. . ... ...
ROW 75 : ... .. A ... ... ... : ... .. A ... ... ... : ... .. . ... : ... .. . ... : ... .. . ... ...
ROW 76 : ... .. 9 ... ... ... : ... .. 9 ... ... ... : ... .. . ... : ... .. . ... : ... .. . ... ...
ROW 77 : ... .. 8 ... ... ... : ... .. 8 ... ... ... : ... .. . ... : ... .. . ... : ... .. . ... ...
ROW 78 : ... .. 7 ... ... ... : ... .. 7 ... ... ... : ... .. . ... : ... .. . ... : ... .. . ... ...
ROW 79 : ... .. 6 ... ... ... : ... .. 6 ... ... ... : ... .. . ... : ... .. . ... : ... .. . ... ...
ROW 7A : G-3 00 B P80 ... ... : D#4 00 B P81 ... ... : B-2 00 . P80 : C-# 00 E ... : ... .. . ... ...
ROW 7B : ... .. A ... ... ... : ... .. A ... ... ... : ... .. . ... : ... .. 0 ... : ... .. . ... ...
ROW 7C : ... .. 9 ... ... ... : ... .. 9 ... ... ... : ... .. . ... : ... .. . ... : ... .. . ... ...
ROW 7D : ... .. 8 ... ... ... : ... .. 8 ... ... ... : ... .. . ... : ... .. . ... : ... .. . ... ...
ROW 7E : ... .. 7 ... ... ... : ... .. 7 ... ... ... : ... .. . ... : ... .. . ... : ... .. . ... ...
ROW 7F : ... .. 6 ... ... ... : ... .. 6 ... ... ... : ... .. . ... : ... .. . ... : ... .. . ... ...
ROW 80 : ... .. 5 ... ... ... : ... .. 5 ... ... ... : C-3 00 . ... : D-# 00 6 ... : ... .. . ... ...
ROW 81 : ... .. 4 ... ... ... : ... .. 4 ... ... ... : ... .. . ... : ... .. . ... : ... .. . ... ...
ROW 82 : ... .. 3 ... ... ... : ... .. 3 ... ... ... : ... .. . ... : ... .. . ... : ... .. . ... ...
ROW 83 : ... .. 2 ... ... ... : ... .. 2 ... ... ... : ... .. . ... : ... .. . ... : ... .. . ... ...
ROW 84 : ... .. 1 ... ... ... : ... .. 1 ... ... ... : ... .. . ... : ... .. . ... : ... .. . ... ...
ROW 85 : ... .. . ... ... ... : ... .. . ... ... ... : ... .. . ... : ... .. 0 ... : ... .. . ... ...
ROW 86 : ... .. . ... ... ... : ... .. . ... ... ... : ... .. . ... : ... .. . ... : ... .. . ... ...
ROW 87 : ... .. . ... ... ... : ... .. . ... ... ... : ... .. . ... : ... .. . ... : ... .. . ... ...
ROW 88 : ... .. . ... ... ... : ... .. . ... ... ... : ... .. . ... : ... .. . ... : ... .. . ... ...
ROW 89 : ... .. . ... ... ... : ... .. . ... ... ... : --- .. . ... : ... .. . ... : ... .. . ... ...
ROW 8A : ... .. . ... ... ... : ... .. . ... ... ... : ... .. . ... : ... .. . ... : ... .. . ... ...
ROW 8B : ... .. . ... ... ... : ... .. . ... ... ... : ... .. . ... : ... .. . ... : ... .. . ... ...
ROW 8C : ... .. . ... ... ... : ... .. . ... ... ... : ... .. . ... : ... .. . ... : ... .. . ... ...
ROW 8D : ... .. . ... ... ... : ... .. . ... ... ... : ... .. . ... : ... .. . ... : ... .. . ... ...
ROW 8E : ... .. . ... ... ... : ... .. . ... ... ... : ... .. . ... : ... .. . ... : ... .. . ... ...
ROW 8F : ... .. . ... ... ... : ... .. . ... ... ... : ... .. . ... : ... .. . ... : ... .. . ... ...
ROW 90 : ... .. . ... ... ... : ... .. . ... ... ... : ... .. . ... : ... .. . ... : ... .. . ... ...
ROW 91 : ... .. . ... ... ... : ... .. . ... ... ... : ... .. . ... : ... .. . ... : ... .. . ... ...
ROW 92 : ... .. . ... ... ... : ... .. . ... ... ... : G-2 00 . ... : C-# 00 E ... : ... .. . ... ...
ROW 93 : ... .. . ... ... ... : ... .. . ... ... ... : ... .. . ... : ... .. 0 ... : ... .. . ... ...
ROW 94 : ... .. . ... ... ... : ... .. . ... ... ... : ... .. . ... : ... .. . ... : ... .. . ... ...
ROW 95 : ... .. . ... ... ... : ... .. . ... ... ... : ... .. . ... : ... .. . ... : ... .. . ... ...
ROW 96 : ... .. . ... ... ... : ... .. . ... ... ... : ... .. . ... : ... .. . ... : ... .. . ... ...
ROW 97 : ... .. . ... ... ... : ... .. . ... ... ... : ... .. . ... : ... .. . ... : ... .. . ... ...
ROW 98 : ... .. . ... ... ... : G-3 00 8 P80 ... ... : G#2 00 . P7F : D-# 00 6 ... : ... .. . ... ...
ROW 99 : ... .. . ... ... ... : ... .. . ... ... ... : ... .. . ... : ... .. . ... : ... .. . ... ...
ROW 9A : ... .. . ... ... ... : ... .. 7 ... ... ... : ... .. . ... : ... .. . ... : ... .. . ... ...
ROW 9B : ... .. . ... ... ... : ... .. . ... ... ... : ... .. . ... : ... .. . ... : ... .. . ... ...
ROW 9C : ... .. . ... ... ... : ... .. . ... ... ... : ... .. . ... : ... .. . ... : ... .. . ... ...
ROW 9D : ... .. . ... ... ... : ... .. . ... ... ... : ... .. . ... : ... .. 0 ... : ... .. . ... ...
ROW 9E : ... .. . ... ... ... : ... .. 0 ... ... ... : ... .. . ... : ... .. . ... : ... .. . ... ...
ROW 9F : ... .. . ... ... ... : ... .. . ... ... ... : ... .. . ... : ... .. . ... : ... .. . ... ...
ROW A0 : ... .. . ... ... ... : ... .. . ... ... ... : ... .. . ... : ... .. . ... : ... .. . ... ...
ROW A1 : ... .. . ... ... ... : ... .. . ... ... ... : --- .. . ... : ... .. . ... : ... .. . ... ...
ROW A2 : ... .. . ... ... ... : ... .. . ... ... ... : ... .. . ... : ... .. . ... : ... .. . ... ...
ROW A3 : ... .. . ... ... ... : ... .. . ... ... ... : ... .. . ... : ... .. . ... : ... .. . ... ...
ROW A4 : ... .. . ... ... ... : G#3 00 8 P80 ... ... : ... .. . ... : ... .. . ... : ... .. . ... ...
ROW A5 : ... .. . ... ... ... : ... .. . ... ... ... : ... .. . ... : ... .. . ... : ... .. . ... ...
ROW A6 : ... .. . ... ... ... : ... .. 7 ... ... ... : ... .. . ... : ... .. . ... : ... .. . ... ...
ROW A7 : ... .. . ... ... ... : ... .. . ... ... ... : ... .. . ... : ... .. . ... : ... .. . ... ...
ROW A8 : ... .. . ... ... ... : ... .. . ... ... ... : ... .. . ... : ... .. . ... : ... .. . ... ...
ROW A9 : ... .. . ... ... ... : ... .. . ... ... ... : ... .. . ... : ... .. . ... : ... .. . ... ...
ROW AA : F-3 00 8 P80 ... ... : G#3 00 8 P80 ... ... : B-2 00 . P80 : C-# 00 E ... : ... .. . ... ...
ROW AB : ... .. . ... ... ... : ... .. . ... ... ... : ... .. . ... : ... .. 0 ... : ... .. . ... ...
ROW AC : ... .. 7 ... ... ... : ... .. 7 ... ... ... : ... .. . ... : ... .. . ... : ... .. . ... ...
ROW AD : ... .. . ... ... ... : ... .. . ... ... ... : ... .. . ... : ... .. . ... : ... .. . ... ...
ROW AE : ... .. . ... ... ... : ... .. . ... ... ... : ... .. . ... : ... .. . ... : ... .. . ... ...
ROW AF : ... .. . ... ... ... : ... .. . ... ... ... : ... .. . ... : ... .. . ... : ... .. . ... ...
ROW B0 : ... .. 0 ... ... ... : ... .. 0 ... ... ... : C-3 00 . ... : D-# 00 6 ... : ... .. . ... ...
ROW B1 : ... .. . ... ... ... : ... .. . ... ... ... : ... .. . ... : ... .. . ... : ... .. . ... ...
ROW B2 : ... .. . ... ... ... : ... .. . ... ... ... : ... .. . ... : ... .. . ... : ... .. . ... ...
ROW B3 : ... .. . ... ... ... : ... .. . ... ... ... : ... .. . ... : ... .. . ... : ... .. . ... ...
ROW B4 : ... .. . ... ... ... : ... .. . ... ... ... : ... .. . ... : ... .. . ... : ... .. . ... ...
ROW B5 : ... .. . ... ... ... : ... .. . ... ... ... : ... .. . ... : ... .. 0 ... : ... .. . ... ...
ROW B6 : ... .. . ... ... ... : ... .. . ... ... ... : ... .. . ... : ... .. . ... : ... .. . ... ...
ROW B7 : ... .. . ... ... ... : ... .. . ... ... ... : ... .. . ... : ... .. . ... : ... .. . ... ...
ROW B8 : ... .. . ... ... ... : ... .. . ... ... ... : ... .. . ... : ... .. . ... : ... .. . ... ...
ROW B9 : ... .. . ... ... ... : ... .. . ... ... ... : --- .. . ... : ... .. . ... : ... .. . ... ...
ROW BA : ... .. . ... ... ... : ... .. . ... ... ... : ... .. . ... : ... .. . ... : ... .. . ... ...
ROW BB : ... .. . ... ... ... : ... .. . ... ... ... : ... .. . ... : ... .. . ... : ... .. . ... ...
ROW BC : ... .. . ... ... ... : ... .. . ... ... ... : ... .. . ... : ... .. . ... : ... .. . ... ...
ROW BD : ... .. . ... ... ... : ... .. . ... ... ... : ... .. . ... : ... .. . ... : ... .. . ... ...
ROW BE : ... .. . ... ... ... : ... .. . ... ... ... : ... .. . ... : ... .. . ... : ... .. . ... ...
ROW BF : ... .. . ... ... ... : ... .. . ... ... ... : ... .. . ... : ... .. . ... : ... .. . ... ...
ROW C0 : ... .. . ... ... ... : ... .. . ... ... ... : ... .. . ... : ... .. . ... : ... .. . ... ...
ROW C1 : ... .. . ... ... ... : ... .. . ... ... ... : ... .. . ... : ... .. . ... : ... .. . ... ...
ROW C2 : ... .. . ... ... ... : ... .. . ... ... ... : ... .. . ... : C-# 00 E ... : ... .. . ... ...
ROW C3 : ... .. . ... ... ... : ... .. . ... ... ... : ... .. . ... : ... .. 0 ... : ... .. . ... ...
ROW C4 : ... .. . ... ... ... : ... .. . ... ... ... : ... .. . ... : ... .. . ... : ... .. . ... ...
ROW C5 : ... .. . ... ... ... : ... .. . ... ... ... : ... .. . ... : ... .. . ... : ... .. . ... ...
ROW C6 : ... .. . ... ... ... : ... .. . ... ... ... : ... .. . ... : ... .. . ... : ... .. . ... ...
ROW C7 : ... .. . ... ... ... : ... .. . ... ... ... : ... .. . ... : ... .. . ... : ... .. . ... ...
ROW C8 : ... .. 0 ... ... ... : ... .. 0 ... ... ... : --- .. . ... : D-# 00 6 ... : ... .. . ... ...
ROW C9 : ... .. . ... ... ... : ... .. . ... ... ... : ... .. . ... : ... .. . ... : ... .. . ... ...
ROW CA : ... .. . ... ... ... : ... .. . ... ... ... : ... .. . ... : ... .. . ... : ... .. . ... ...
ROW CB : ... .. . ... ... ... : ... .. . ... ... ... : ... .. . ... : ... .. . ... : ... .. . ... ...
ROW CC : ... .. . ... ... ... : ... .. . ... ... ... : ... .. . ... : ... .. . ... : ... .. . ... ...
ROW CD : ... .. . ... ... ... : ... .. . ... ... ... : ... .. . ... : ... .. 0 ... : ... .. . ... ...
ROW CE : ... .. . ... ... ... : ... .. . ... ... ... : ... .. . ... : ... .. . ... : ... .. . ... ...
ROW CF : ... .. . ... ... ... : ... .. . ... ... ... : ... .. . ... : ... .. . ... : ... .. . ... ...
ROW D0 : ... .. . ... ... ... : ... .. . ... ... ... : ... .. . ... : ... .. . ... : ... .. . ... ...
ROW D1 : ... .. . ... ... ... : ... .. . ... ... ... : ... .. . ... : ... .. . ... : ... .. . ... ...
ROW D2 : ... .. . ... ... ... : ... .. . ... ... ... : ... .. . ... : ... .. . ... : ... .. . ... ...
ROW D3 : ... .. . ... ... ... : ... .. . ... ... ... : ... .. . ... : ... .. . ... : ... .. . ... ...
ROW D4 : ... .. . ... ... ... : ... .. . ... ... ... : ... .. . ... : ... .. . ... : ... .. . ... ...
ROW D5 : ... .. . ... ... ... : ... .. . ... ... ... : ... .. . ... : ... .. . ... : ... .. . ... ...
ROW D6 : ... .. . ... ... ... : ... .. . ... ... ... : ... .. . ... : ... .. . ... : ... .. . ... ...
ROW D7 : ... .. . ... ... ... : ... .. . ... ... ... : ... .. . ... : ... .. . ... : ... .. . ... ...
ROW D8 : ... .. . ... ... ... : ... .. . ... ... ... : ... .. . ... : ... .. . ... : ... .. . ... ...
ROW D9 : ... .. . ... ... ... : ... .. . ... ... ... : ... .. . ... : ... .. . ... : ... .. . ... ...
ROW DA : ... .. 1 ... V01 ... : ... .. 1 ... V01 ... : ... .. . ... : C-# 00 E ... : ... .. . ... ...
ROW DB : ... .. . ... ... ... : ... .. . ... ... ... : ... .. . ... : ... .. 0 ... : ... .. . ... ...
ROW DC : ... .. . ... ... ... : ... .. . ... ... ... : ... .. . ... : ... .. . ... : ... .. . ... ...
ROW DD : ... .. . ... ... ... : ... .. . ... ... ... : ... .. . ... : ... .. . ... : ... .. . ... ...
ROW DE : ... .. . ... ... ... : ... .. . ... ... ... : ... .. . ... : ... .. . ... : ... .. . ... ...
ROW DF : ... .. . ... ... ... : ... .. . ... ... ... : ... .. . ... : ... .. . ... : ... .. . ... ...
ROW E0 : ... .. 1 ... ... ... : ... .. 1 ... ... ... : D#3 00 . ... : D-# 00 6 ... : ... .. . ... ...
ROW E1 : ... .. . ... ... ... : ... .. . ... ... ... : ... .. . ... : ... .. . ... : ... .. . ... ...
ROW E2 : ... .. . ... ... ... : ... .. . ... ... ... : ... .. . ... : ... .. . ... : ... .. . ... ...
ROW E3 : ... .. . ... ... ... : ... .. . ... ... ... : ... .. . ... : ... .. . ... : ... .. . ... ...
ROW E4 : ... .. . ... ... ... : ... .. . ... ... ... : ... .. . ... : ... .. . ... : ... .. . ... ...
ROW E5 : ... .. . ... ... ... : ... .. . ... ... ... : ... .. . ... : ... .. 0 ... : ... .. . ... ...
ROW E6 : ... .. . ... ... ... : ... .. . ... ... ... : ... .. . ... : ... .. . ... : ... .. . ... ...
ROW E7 : ... .. . ... ... ... : ... .. . ... ... ... : ... .. . ... : ... .. . ... : ... .. . ... ...
ROW E8 : ... .. . ... ... ... : ... .. . ... ... ... : ... .. . ... : ... .. . ... : ... .. . ... ...
ROW E9 : ... .. . ... ... ... : ... .. . ... ... ... : --- .. . ... : ... .. . ... : ... .. . ... ...
ROW EA : ... .. . ... ... ... : ... .. . ... ... ... : ... .. . ... : ... .. . ... : ... .. . ... ...
ROW EB : ... .. . ... ... ... : ... .. . ... ... ... : ... .. . ... : ... .. . ... : ... .. . ... ...
ROW EC : F-3 00 B P80 ... ... : F-4 00 B P82 ... ... : ... .. . ... : ... .. . ... : ... .. . ... ...
ROW ED : ... .. A ... ... ... : ... .. A ... ... ... : ... .. . ... : ... .. . ... : ... .. . ... ...
ROW EE : ... .. 9 ... ... ... : ... .. 9 ... ... ... : ... .. . ... : ... .. . ... : ... .. . ... ...
ROW EF : ... .. 8 ... ... ... : ... .. 8 ... ... ... : ... .. . ... : ... .. . ... : ... .. . ... ...
ROW F0 : ... .. 7 ... ... ... : ... .. 7 ... ... ... : ... .. . ... : ... .. . ... : ... .. . ... ...
ROW F1 : ... .. 6 ... ... ... : ... .. 6 ... ... ... : ... .. . ... : ... .. . ... : ... .. . ... ...
ROW F2 : D-3 00 B P80 ... ... : D-4 00 B P83 ... ... : B-3 00 . ... : 6-# 00 F ... : ... .. . ... ...
ROW F3 : ... .. A ... ... ... : ... .. A ... ... ... : ... .. . ... : ... .. C ... : ... .. . ... ...
ROW F4 : ... .. 9 ... ... ... : ... .. 9 ... ... ... : ... .. . ... : ... .. 8 ... : ... .. . ... ...
ROW F5 : ... .. 8 ... ... ... : ... .. 8 ... ... ... : ... .. . ... : ... .. 4 ... : ... .. . ... ...
ROW F6 : ... .. 7 ... ... ... : ... .. 7 ... ... ... : ... .. . ... : ... .. 0 ... : ... .. . ... ...
ROW F7 : ... .. 6 ... ... ... : ... .. 6 ... ... ... : ... .. . ... : ... .. . ... : ... .. . ... ...
ROW F8 : F-3 00 B P80 ... ... : F-4 00 B P82 ... ... : G#3 00 . ... : D-# 00 6 ... : ... .. . ... ...
ROW F9 : ... .. A ... ... ... : ... .. A ... ... ... : ... .. . ... : ... .. . ... : ... .. . ... ...
ROW FA : ... .. 9 ... ... ... : ... .. 9 ... ... ... : ... .. . ... : ... .. . ... : ... .. . ... ...
ROW FB : ... .. 8 ... ... ... : ... .. 8 ... ... ... : ... .. . ... : ... .. . ... : ... .. . ... ...
ROW FC : ... .. 7 ... ... ... : ... .. 7 ... ... ... : ... .. . ... : ... .. . ... : ... .. . ... ...
ROW FD : ... .. 6 ... ... ... : ... .. 6 ... ... ... : ... .. . ... : ... .. 0 ... : ... .. . ... ...
ROW FE : ... .. 1 ... ... ... : ... .. 1 ... ... ... : ... .. . ... : ... .. . ... : ... .. . ... ...
ROW FF : ... .. . ... ... ... : ... .. . ... ... ... : ... .. . ... : ... .. . ... : ... .. . ... ...

PATTERN 17
ROW 00 : ... .. . ... ... ... : ... .. . ... ... ... : ... .. . ... : ... .. . ... : ... .. . ... ...
ROW 01 : ... .. . ... ... ... : ... .. . ... ... ... : --- .. . ... : ... .. . ... : ... .. . ... ...
ROW 02 : ... .. . ... ... ... : ... .. . ... ... ... : ... .. . ... : ... .. . ... : ... .. . ... ...
ROW 03 : ... .. . ... ... ... : ... .. . ... ... ... : ... .. . ... : ... .. . ... : ... .. . ... ...
ROW 04 : D-3 00 B P80 ... ... : D-4 00 B P83 ... ... : ... .. . ... : ... .. . ... : ... .. . ... ...
ROW 05 : ... .. A ... ... ... : ... .. A ... ... ... : ... .. . ... : ... .. . ... : ... .. . ... ...
ROW 06 : ... .. 9 ... ... ... : ... .. 9 ... ... ... : ... .. . ... : ... .. . ... : ... .. . ... ...
ROW 07 : ... .. 8 ... ... ... : ... .. 8 ... ... ... : ... .. . ... : ... .. . ... : ... .. . ... ...
ROW 08 : ... .. 7 ... ... ... : ... .. 7 ... ... ... : ... .. . ... : ... .. . ... : ... .. . ... ...
ROW 09 : ... .. 6 ... ... ... : ... .. 6 ... ... ... : ... .. . ... : ... .. . ... : ... .. . ... ...
ROW 0A : D#3 00 B P80 ... ... : D#4 00 B P83 ... ... : F-3 00 . ... : 6-# 00 F ... : ... .. . ... ...
ROW 0B : ... .. A ... ... ... : ... .. A ... ... ... : ... .. . ... : ... .. D ... : ... .. . ... ...
ROW 0C : ... .. 9 ... ... ... : ... .. 9 ... ... ... : ... .. . ... : ... .. 9 ... : ... .. . ... ...
ROW 0D : ... .. 8 ... ... ... : ... .. 8 ... ... ... : ... .. . ... : ... .. 5 ... : ... .. . ... ...
ROW 0E : ... .. 7 ... ... ... : ... .. 7 ... ... ... : ... .. . ... : ... .. 1 ... : ... .. . ... ...
ROW 0F : ... .. 6 ... ... ... : ... .. 6 ... ... ... : ... .. . ... : ... .. 0 ... : ... .. . ... ...
ROW 10 : ... .. 5 ... ... ... : ... .. 5 ... ... ... : D#3 00 . ... : D-# 00 6 ... : ... .. . ... ...
ROW 11 : ... .. 4 ... ... ... : ... .. 4 ... ... ... : ... .. . ... : ... .. . ... : ... .. . ... ...
ROW 12 : ... .. 3 ... ... ... : ... .. 3 ... ... ... : ... .. . ... : ... .. . ... : ... .. . ... ...
ROW 13 : ... .. 2 ... ... ... : ... .. 2 ... ... ... : ... .. . ... : ... .. . ... : ... .. . ... ...
ROW 14 : ... .. 1 ... ... ... : ... .. 1 ... ... ... : ... .. . ... : ... .. . ... : ... .. . ... ...
ROW 15 : ... .. . ... ... ... : ... .. . ... ... ... : ... .. . ... : ... .. 0 ... : ... .. . ... ...
ROW 16 : ... .. . ... ... ... : ... .. . ... ... ... : ... .. . ... : ... .. . ... : ... .. . ... ...
ROW 17 : ... .. . ... ... ... : ... .. . ... ... ... : ... .. . ... : ... .. . ... : ... .. . ... ...
ROW 18 : ... .. . ... ... ... : ... .. . ... ... ... : ... .. . ... : ... .. . ... : ... .. . ... ...
ROW 19 : ... .. . ... ... ... : ... .. . ... ... ... : --- .. . ... : ... .. . ... : ... .. . ... ...
ROW 1A : ... .. . ... ... ... : ... .. . ... ... ... : ... .. . ... : ... .. . ... : ... .. . ... ...
ROW 1B : ... .. . ... ... ... : ... .. . ... ... ... : ... .. . ... : ... .. . ... : ... .. . ... ...
ROW 1C : ... .. . ... ... ... : ... .. . ... ... ... : ... .. . ... : ... .. . ... : ... .. . ... ...
ROW 1D : ... .. . ... ... ... : ... .. . ... ... ... : ... .. . ... : ... .. . ... : ... .. . ... ...
ROW 1E : ... .. . ... ... ... : ... .. . ... ... ... : ... .. . ... : ... .. . ... : ... .. . ... ...
ROW 1F : ... .. . ... ... ... : ... .. . ... ... ... : ... .. . ... : ... .. . ... : ... .. . ... ...
ROW 20 : ... .. . ... ... ... : ... .. . ... ... ... : ... .. . ... : ... .. . ... : ... .. . ... ...
ROW 21 : ... .. . ... ... ... : ... .. . ... ... ... : ... .. . ... : ... .. . ... : ... .. . ... ...
ROW 22 : G#3 00 B P80 ... ... : G#4 00 B P83 ... ... : C#3 00 . ... : 6-# 00 F ... : ... .. . ... ...
ROW 23 : ... .. A ... ... ... : ... .. A ... ... ... : ... .. . ... : ... .. D ... : ... .. . ... ...
ROW 24 : ... .. 9 ... ... ... : ... .. 9 ... ... ... : ... .. . ... : ... .. 9 ... : ... .. . ... ...
ROW 25 : ... .. 8 ... ... ... : ... .. 8 ... ... ... : ... .. . ... : ... .. 5 ... : ... .. . ... ...
ROW 26 : ... .. 7 ... ... ... : ... .. 7 ... ... ... : ... .. . ... : ... .. 1 ... : ... .. . ... ...
ROW 27 : ... .. 6 ... ... ... : ... .. 6 ... ... ... : ... .. . ... : ... .. 0 ... : ... .. . ... ...
ROW 28 : F-3 00 B P80 ... ... : F-4 00 B P82 ... ... : B-2 00 . ... : D-# 00 6 ... : ... .. . ... ...
ROW 29 : ... .. A ... ... ... : ... .. A ... ... ... : ... .. . ... : ... .. . ... : ... .. . ... ...
ROW 2A : ... .. 9 ... ... ... : ... .. 9 ... ... ... : ... .. . ... : ... .. . ... : ... .. . ... ...
ROW 2B : ... .. 8 ... ... ... : ... .. 8 ... ... ... : ... .. . ... : ... .. . ... : ... .. . ... ...
ROW 2C : ... .. 7 ... ... ... : ... .. 7 ... ... ... : ... .. . ... : ... .. . ... : ... .. . ... ...
ROW 2D : ... .. 6 ... ... ... : ... .. 6 ... ... ... : ... .. . ... : ... .. 0 ... : ... .. . ... ...
ROW 2E : ... .. 5 ... ... ... : ... .. 5 ... ... ... : ... .. . ... : ... .. . ... : ... .. . ... ...
ROW 2F : ... .. 4 ... ... ... : ... .. 4 ... ... ... : ... .. . ... : ... .. . ... : ... .. . ... ...
ROW 30 : ... .. 3 ... ... ... : ... .. 3 ... ... ... : ... .. . ... : ... .. . ... : ... .. . ... ...
ROW 31 : ... .. 2 ... ... ... : ... .. 2 ... ... ... : --- .. . ... : ... .. . ... : ... .. . ... ...
ROW 32 : ... .. 1 ... ... ... : ... .. 1 ... ... ... : ... .. . ... : ... .. . ... : ... .. . ... ...
ROW 33 : ... .. . ... ... ... : ... .. . ... ... ... : ... .. . ... : ... .. . ... : ... .. . ... ...
ROW 34 : ... .. . ... ... ... : ... .. . ... ... ... : ... .. . ... : ... .. . ... : ... .. . ... ...
ROW 35 : ... .. . ... ... ... : ... .. . ... ... ... : ... .. . ... : ... .. . ... : ... .. . ... ...
ROW 36 : ... .. . ... ... ... : ... .. . ... ... ... : ... .. . ... : ... .. . ... : ... .. . ... ...
ROW 37 : ... .. . ... ... ... : ... .. . ... ... ... : ... .. . ... : ... .. . ... : ... .. . ... ...
ROW 38 : ... .. . ... ... ... : ... .. . ... ... ... : ... .. . ... : ... .. . ... : ... .. . ... ...
ROW 39 : ... .. . ... ... ... : ... .. . ... ... ... : ... .. . ... : ... .. . ... : ... .. . ... ...
ROW 3A : D#3 00 B P80 ... ... : D#4 00 B P83 ... ... : G#2 00 . ... : 6-# 00 F ... : ... .. . ... ...
ROW 3B : ... .. A ... ... ... : ... .. A ... ... ... : ... .. . ... : ... .. D ... : ... .. . ... ...
ROW 3C : ... .. 9 ... ... ... : ... .. 9 ... ... ... : ... .. . ... : ... .. 9 ... : ... .. . ... ...
ROW 3D : ... .. 8 ... ... ... : ... .. 8 ... ... ... : ... .. . ... : ... .. 5 ... : ... .. . ... ...
ROW 3E : ... .. 7 ... ... ... : ... .. 7 ... ... ... : ... .. . ... : ... .. 1 ... : ... .. . ... ...
ROW 3F : ... .. 6 ... ... ... : ... .. 6 ... ... ... : ... .. . ... : ... .. 0 ... : ... .. . ... ...
ROW 40 : C#3 00 B P80 ... ... : C#4 00 B P82 ... ... : G#2 00 . P7F : D-# 00 6 ... : ... .. . ... ...
ROW 41 : ... .. A ... ... ... : ... .. A ... ... ... : ... .. . ... : ... .. . ... : ... .. . ... ...
ROW 42 : ... .. 9 ... ... ... : ... .. 9 ... ... ... : ... .. . ... : ... .. . ... : ... .. . ... ...
ROW 43 : ... .. 8 ... ... ... : ... .. 8 ... ... ... : ... .. . ... : ... .. . ... : ... .. . ... ...
ROW 44 : ... .. 7 ... ... ... : ... .. 7 ... ... ... : ... .. . ... : ... .. . ... : ... .. . ... ...
ROW 45 : ... .. 6 ... ... ... : ... .. 6 ... ... ... : ... .. . ... : ... .. 0 ... : ... .. . ... ...
ROW 46 : D#3 00 B P80 ... ... : D#4 00 B P83 ... ... : ... .. . ... : ... .. . ... : ... .. . ... ...
ROW 47 : ... .. A ... ... ... : ... .. A ... ... ... : ... .. . ... : ... .. . ... : ... .. . ... ...
ROW 48 : ... .. 9 ... ... ... : ... .. 9 ... ... ... : ... .. . ... : ... .. . ... : ... .. . ... ...
ROW 49 : ... .. 8 ... ... ... : ... .. 8 ... ... ... : --- .. . ... : ... .. . ... : ... .. . ... ...
ROW 4A : C#3 00 B P80 ... ... : C#4 00 B P82 ... ... : ... .. . ... : ... .. . ... : ... .. . ... ...
ROW 4B : ... .. A ... ... ... : ... .. A ... ... ... : ... .. . ... : ... .. . ... : ... .. . ... ...
ROW 4C : ... .. 9 ... ... ... : ... .. 9 ... ... ... : ... .. . ... : ... .. . ... : ... .. . ... ...
ROW 4D : ... .. 8 ... ... ... : ... .. 8 ... ... ... : ... .. . ... : ... .. . ... : ... .. . ... ...
ROW 4E : C-3 00 B P80 ... ... : C-4 00 B P83 ... ... : ... .. . ... : ... .. . ... : ... .. . ... ...
ROW 4F : ... .. A ... ... ... : ... .. A ... ... ... : ... .. . ... : ... .. . ... : ... .. . ... ...
ROW 50 : ... .. 9 ... ... ... : ... .. 9 ... ... ... : ... .. . ... : ... .. . ... : ... .. . ... ...
ROW 51 : ... .. 8 ... ... ... : ... .. 8 ... ... ... : ... .. . ... : ... .. . ... : ... .. . ... ...
ROW 52 : B-2 00 B P80 ... ... : B-3 00 B P82 ... ... : B-2 00 . P80 : 6-# 00 F ... : ... .. . ... ...
ROW 53 : ... .. A ... ... ... : ... .. A ... ... ... : ... .. . ... : ... .. D ... : ... .. . ... ...
ROW 54 : ... .. 9 ... ... ... : ... .. 9 ... ... ... : ... .. . ... : ... .. 9 ... : ... .. . ... ...
ROW 55 : ... .. 8 ... ... ... : ... .. 8 ... ... ... : ... .. . ... : ... .. 5 ... : ... .. . ... ...
ROW 56 : ... .. 7 ... ... ... : ... .. 7 ... ... ... : ... .. . ... : ... .. 1 ... : ... .. . ... ...
ROW 57 : ... .. 6 ... ... ... : ... .. 6 ... ... ... : ... .. . ... : ... .. 0 ... : ... .. . ... ...
ROW 58 : C#3 00 B P80 ... ... : C#4 00 B P82 ... ... : C-3 00 . ... : D-# 00 6 ... : ... .. . ... ...
ROW 59 : ... .. A ... ... ... : ... .. A ... ... ... : ... .. . ... : ... .. . ... : ... .. . ... ...
ROW 5A : ... .. 9 ... ... ... : ... .. 9 ... ... ... : ... .. . ... : ... .. . ... : ... .. . ... ...
ROW 5B : ... .. 8 ... ... ... : ... .. 8 ... ... ... : ... .. . ... : ... .. . ... : ... .. . ... ...
ROW 5C : ... .. 7 ... ... ... : ... .. 7 ... ... ... : ... .. . ... : ... .. . ... : ... .. . ... ...
ROW 5D : ... .. 6 ... ... ... : ... .. 6 ... ... ... : ... .. . ... : ... .. 0 ... : ... .. . ... ...
ROW 5E : ... .. 1 ... ... ... : ... .. 1 ... ... ... : ... .. . ... : ... .. . ... : ... .. . ... ...
ROW 5F : ... .. . ... ... ... : ... .. . ... ... ... : ... .. . ... : ... .. . ... : ... .. . ... ...
ROW 60 : ... .. . ... ... ... : ... .. . ... ... ... : ... .. . ... : ... .. . ... : ... .. . ... ...
ROW 61 : ... .. . ... ... ... : ... .. . ... ... ... : --- .. . ... : ... .. . ... : ... .. . ... ...
ROW 62 : ... .. . ... ... ... : ... .. . ... ... ... : ... .. . ... : ... .. . ... : ... .. . ... ...
ROW 63 : ... .. . ... ... ... : ... .. . ... ... ... : ... .. . ... : ... .. . ... : ... .. . ... ...
ROW 64 : C-3 00 B P80 ... ... : C-4 00 B P83 ... ... : ... .. . ... : ... .. . ... : ... .. . ... ...
ROW 65 : ... .. A ... ... ... : ... .. A ... ... ... : ... .. . ... : ... .. . ... : ... .. . ... ...
ROW 66 : ... .. 9 ... ... ... : ... .. 9 ... ... ... : ... .. . ... : ... .. . ... : ... .. . ... ...
ROW 67 : ... .. 8 ... ... ... : ... .. 8 ... ... ... : ... .. . ... : ... .. . ... : ... .. . ... ...
ROW 68 : ... .. 7 ... ... ... : ... .. 7 ... ... ... : ... .. . ... : ... .. . ... : ... .. . ... ...
ROW 69 : ... .. 6 ... ... ... : ... .. 6 ... ... ... : ... .. . ... : ... .. . ... : ... .. . ... ...
ROW 6A : B-2 00 B P80 ... ... : B-3 00 B P82 ... ... : C#3 00 . ... : 6-# 00 F ... : ... .. . ... ...
ROW 6B : ... .. A ... ... ... : ... .. A ... ... ... : ... .. . ... : ... .. D ... : ... .. . ... ...
ROW 6C : ... .. 9 ... ... ... : ... .. 9 ... ... ... : ... .. . ... : ... .. 9 ... : ... .. . ... ...
ROW 6D : ... .. 8 ... ... ... : ... .. 8 ... ... ... : ... .. . ... : ... .. 5 ... : ... .. . ... ...
ROW 6E : ... .. 7 ... ... ... : ... .. 7 ... ... ... : ... .. . ... : ... .. 1 ... : ... .. . ... ...
ROW 6F : ... .. 6 ... ... ... : ... .. 6 ... ... ... : ... .. . ... : ... .. 0 ... : ... .. . ... ...
ROW 70 : ... .. 5 ... ... ... : ... .. 5 ... ... ... : D#3 00 . ... : D-# 00 6 ... : ... .. . ... ...
ROW 71 : ... .. 4 ... ... ... : ... .. 4 ... ... ... : ... .. . ... : ... .. . ... : ... .. . ... ...
ROW 72 : ... .. 3 ... ... ... : ... .. 3 ... ... ... : ... .. . ... : ... .. . ... : ... .. . ... ...
ROW 73 : ... .. 2 ... ... ... : ... .. 2 ... ... ... : ... .. . ... : ... .. . ... : ... .. . ... ...
ROW 74 : ... .. 1 ... ... ... : ... .. 1 ... ... ... : ... .. . ... : ... .. . ... : ... .. . ... ...
ROW 75 : ... .. . ... ... ... : ... .. . ... ... ... : ... .. . ... : ... .. 0 ... : ... .. . ... ...
ROW 76 : ... .. . ... ... ... : ... .. . ... ... ... : ... .. . ... : ... .. . ... : ... .. . ... ...
ROW 77 : ... .. . ... ... ... : ... .. . ... ... ... : ... .. . ... : ... .. . ... : ... .. . ... ...
ROW 78 : ... .. . ... ... ... : ... .. . ... ... ... : ... .. . ... : ... .. . ... : ... .. . ... ...
ROW 79 : ... .. . ... ... ... : ... .. . ... ... ... : --- .. . ... : ... .. . ... : ... .. . ... ...
ROW 7A : ... .. . ... ... ... : ... .. . ... ... ... : ... .. . ... : ... .. . ... : ... .. . ... ...
ROW 7B : ... .. . ... ... ... : ... .. . ... ... ... : ... .. . ... : ... .. . ... : ... .. . ... ...
ROW 7C : ... .. . ... ... ... : ... .. . ... ... ... : ... .. . ... : ... .. . ... : ... .. . ... ...
ROW 7D : ... .. . ... ... ... : ... .. . ... ... ... : ... .. . ... : ... .. . ... : ... .. . ... ...
ROW 7E : ... .. . ... ... ... : ... .. . ... ... ... : ... .. . ... : ... .. . ... : ... .. . ... ...
ROW 7F : ... .. . ... ... ... : ... .. . ... ... ... : ... .. . ... : ... .. . ... : ... .. . ... ...
ROW 80 : ... .. . ... ... ... : ... .. . ... ... ... : ... .. . ... : ... .. . ... : ... .. . ... ...
ROW 81 : ... .. . ... ... ... : ... .. . ... ... ... : ... .. . ... : ... .. . ... : ... .. . ... ...
ROW 82 : ... .. . ... ... ... : ... .. . ... ... ... : C-3 00 . ... : 6-# 00 F ... : ... .. . ... ...
ROW 83 : ... .. . ... ... ... : ... .. . ... ... ... : ... .. . ... : ... .. D ... : ... .. . ... ...
ROW 84 : ... .. . ... ... ... : ... .. . ... ... ... : ... .. . ... : ... .. 9 ... : ... .. . ... ...
ROW 85 : ... .. . ... ... ... : ... .. . ... ... ... : ... .. . ... : ... .. 5 ... : ... .. . ... ...
ROW 86 : ... .. . ... ... ... : ... .. . ... ... ... : ... .. . ... : ... .. 1 ... : ... .. . ... ...
ROW 87 : ... .. . ... ... ... : ... .. . ... ... ... : ... .. . ... : ... .. 0 ... : ... .. . ... ...
ROW 88 : B-2 00 B P80 ... ... : B-3 00 B P82 ... ... : B-2 00 . ... : D-# 00 6 ... : ... .. . ... ...
ROW 89 : ... .. A ... ... ... : ... .. A ... ... ... : ... .. . ... : ... .. . ... : ... .. . ... ...
ROW 8A : ... .. 9 ... ... ... : ... .. 9 ... ... ... : ... .. . ... : ... .. . ... : ... .. . ... ...
ROW 8B : ... .. 8 ... ... ... : ... .. 8 ... ... ... : ... .. . ... : ... .. . ... : ... .. . ... ...
ROW 8C : ... .. 7 ... ... ... : ... .. 7 ... ... ... : ... .. . ... : ... .. . ... : ... .. . ... ...
ROW 8D : ... .. 6 ... ... ... : ... .. 6 ... ... ... : ... .. . ... : ... .. 0 ... : ... .. . ... ...
ROW 8E : ... .. 5 ... ... ... : ... .. 5 ... ... ... : ... .. . ... : ... .. . ... : ... .. . ... ...
ROW 8F : ... .. 4 ... ... ... : ... .. 4 ... ... ... : ... .. . ... : ... .. . ... : ... .. . ... ...
ROW 90 : ... .. 3 ... ... ... : ... .. 3 ... ... ... : ... .. . ... : ... .. . ... : ... .. . ... ...
ROW 91 : ... .. 2 ... ... ... : ... .. 2 ... ... ... : --- .. . ... : ... .. . ... : ... .. . ... ...
ROW 92 : ... .. 1 ... ... ... : ... .. 1 ... ... ... : ... .. . ... : ... .. . ... : ... .. . ... ...
ROW 93 : ... .. . ... ... ... : ... .. . ... ... ... : ... .. . ... : ... .. . ... : ... .. . ... ...
ROW 94 : ... .. . ... ... ... : ... .. . ... ... ... : ... .. . ... : ... .. . ... : ... .. . ... ...
ROW 95 : ... .. . ... ... ... : ... .. . ... ... ... : ... .. . ... : ... .. . ... : ... .. . ... ...
ROW 96 : ... .. . ... ... ... : ... .. . ... ... ... : ... .. . ... : ... .. . ... : ... .. . ... ...
ROW 97 : ... .. . ... ... ... : ... .. . ... ... ... : ... .. . ... : ... .. . ... : ... .. . ... ...
ROW 98 : ... .. . ... ... ... : ... .. . ... ... ... : ... .. . ... : ... .. . ... : ... .. . ... ...
ROW 99 : ... .. . ... ... ... : ... .. . ... ... ... : ... .. . ... : ... .. . ... : ... .. . ... ...
ROW 9A : C-3 00 B P80 ... ... : C-4 00 B P83 ... ... : G#2 00 . P7F : 6-# 00 F ... : ... .. . ... ...
ROW 9B : ... .. A ... ... ... : ... .. A ... ... ... : ... .. . ... : ... .. D ... : ... .. . ... ...
ROW 9C : ... .. 9 ... ... ... : ... .. 9 ... ... ... : ... .. . ... : ... .. 9 ... : ... .. . ... ...
ROW 9D : ... .. 8 ... ... ... : ... .. 8 ... ... ... : ... .. . ... : ... .. 5 ... : ... .. . ... ...
ROW 9E : ... .. 7 ... ... ... : ... .. 7 ... ... ... : ... .. . ... : ... .. 1 ... : ... .. . ... ...
ROW 9F : ... .. 6 ... ... ... : ... .. 6 ... ... ... : ... .. . ... : ... .. 0 ... : ... .. . ... ...
ROW A0 : ... .. . ... ... ... : ... .. . ... ... ... : C#3 00 . P80 : D-# 00 6 ... : ... .. . ... ...
ROW A1 : ... .. . ... ... ... : ... .. . ... ... ... : ... .. . ... : ... .. . ... : ... .. . ... ...
ROW A2 : ... .. . ... ... ... : ... .. . ... ... ... : ... .. . ... : ... .. . ... : ... .. . ... ...
ROW A3 : ... .. . ... ... ... : ... .. . ... ... ... : ... .. . ... : ... .. . ... : ... .. . ... ...
ROW A4 : ... .. . ... ... ... : ... .. . ... ... ... : ... .. . ... : ... .. . ... : ... .. . ... ...
ROW A5 : ... .. . ... ... ... : ... .. . ... ... ... : ... .. . ... : ... .. 0 ... : ... .. . ... ...
ROW A6 : ... .. . ... ... ... : ... .. . ... ... ... : ... .. . ... : ... .. . ... : ... .. . ... ...
ROW A7 : ... .. . ... ... ... : ... .. . ... ... ... : ... .. . ... : ... .. . ... : ... .. . ... ...
ROW A8 : ... .. . ... ... ... : ... .. . ... ... ... : ... .. . ... : ... .. . ... : ... .. . ... ...
ROW A9 : ... .. . ... ... ... : ... .. . ... ... ... : --- .. . ... : ... .. . ... : ... .. . ... ...
ROW AA : ... .. . ... ... ... : ... .. . ... ... ... : ... .. . ... : ... .. . ... : ... .. . ... ...
ROW AB : ... .. . ... ... ... : ... .. . ... ... ... : ... .. . ... : ... .. . ... : ... .. . ... ...
ROW AC : C#3 00 B P80 ... ... : C#4 00 B P82 ... ... : ... .. . ... : ... .. . ... : ... .. . ... ...
ROW AD : ... .. A ... ... ... : ... .. A ... ... ... : ... .. . ... : ... .. . ... : ... .. . ... ...
ROW AE : ... .. 9 ... ... ... : ... .. 9 ... ... ... : ... .. . ... : ... .. . ... : ... .. . ... ...
ROW AF : ... .. 8 ... ... ... : ... .. 8 ... ... ... : ... .. . ... : ... .. . ... : ... .. . ... ...
ROW B0 : ... .. 7 ... ... ... : ... .. 7 ... ... ... : ... .. . ... : ... .. . ... : ... .. . ... ...
ROW B1 : ... .. 6 ... ... ... : ... .. 6 ... ... ... : ... .. . ... : ... .. . ... : ... .. . ... ...
ROW B2 : ... .. 5 ... ... ... : ... .. 5 ... ... ... : D#3 00 . ... : 6-# 00 F ... : ... .. . ... ...
ROW B3 : ... .. 4 ... ... ... : ... .. 4 ... ... ... : ... .. . ... : ... .. D ... : ... .. . ... ...
ROW B4 : ... .. 3 ... ... ... : ... .. 3 ... ... ... : ... .. . ... : ... .. 9 ... : ... .. . ... ...
ROW B5 : ... .. 2 ... ... ... : ... .. 2 ... ... ... : ... .. . ... : ... .. 5 ... : ... .. . ... ...
ROW B6 : ... .. 1 ... ... ... : ... .. 1 ... ... ... : ... .. . ... : ... .. 1 ... : ... .. . ... ...
ROW B7 : ... .. . ... ... ... : ... .. . ... ... ... : ... .. . ... : ... .. 0 ... : ... .. . ... ...
ROW B8 : C#3 00 B P80 ... ... : C#4 00 B P83 ... ... : F#3 00 . ... : D-# 00 6 ... : ... .. . ... ...
ROW B9 : ... .. A ... ... ... : ... .. A ... ... ... : ... .. . ... : ... .. . ... : ... .. . ... ...
ROW BA : ... .. 9 ... ... ... : ... .. 9 ... ... ... : ... .. . ... : ... .. . ... : ... .. . ... ...
ROW BB : ... .. 8 ... ... ... : ... .. 8 ... ... ... : ... .. . ... : ... .. . ... : ... .. . ... ...
ROW BC : ... .. 7 ... ... ... : ... .. 7 ... ... ... : ... .. . ... : ... .. . ... : ... .. . ... ...
ROW BD : ... .. 6 ... ... ... : ... .. 6 ... ... ... : ... .. . ... : ... .. 0 ... : ... .. . ... ...
ROW BE : ... .. 5 ... ... ... : ... .. 5 ... ... ... : ... .. . ... : ... .. . ... : ... .. . ... ...
ROW BF : ... .. 4 ... ... ... : ... .. 4 ... ... ... : ... .. . ... : ... .. . ... : ... .. . ... ...
ROW C0 : ... .. 3 ... ... ... : ... .. 3 ... ... ... : ... .. . ... : ... .. . ... : ... .. . ... ...
ROW C1 : ... .. 2 ... ... ... : ... .. 2 ... ... ... : --- .. . ... : ... .. . ... : ... .. . ... ...
ROW C2 : ... .. 1 ... ... ... : ... .. 1 ... ... ... : ... .. . ... : ... .. . ... : ... .. . ... ...
ROW C3 : ... .. . ... ... ... : ... .. . ... ... ... : ... .. . ... : ... .. . ... : ... .. . ... ...
ROW C4 : ... .. . ... ... ... : ... .. . ... ... ... : ... .. . ... : ... .. . ... : ... .. . ... ...
ROW C5 : ... .. . ... ... ... : ... .. . ... ... ... : ... .. . ... : ... .. . ... : ... .. . ... ...
ROW C6 : ... .. . ... ... ... : ... .. . ... ... ... : ... .. . ... : ... .. . ... : ... .. . ... ...
ROW C7 : ... .. . ... ... ... : ... .. . ... ... ... : ... .. . ... : ... .. . ... : ... .. . ... ...
ROW C8 : ... .. . ... ... ... : ... .. . ... ... ... : ... .. . ... : ... .. . ... : ... .. . ... ...
ROW C9 : ... .. . ... ... ... : ... .. . ... ... ... : ... .. . ... : ... .. . ... : ... .. . ... ...
ROW CA : C#3 00 B P80 ... ... : C#4 00 B P82 ... ... : G#3 00 . ... : 6-# 00 F ... : ... .. . ... ...
ROW CB : ... .. A ... ... ... : ... .. A ... ... ... : ... .. . ... : ... .. D ... : ... .. . ... ...
ROW CC : ... .. 9 ... ... ... : ... .. 9 ... ... ... : ... .. . ... : ... .. 9 ... : ... .. . ... ...
ROW CD : ... .. 8 ... ... ... : ... .. 8 ... ... ... : ... .. . ... : ... .. 5 ... : ... .. . ... ...
ROW CE : ... .. 7 ... ... ... : ... .. 7 ... ... ... : ... .. . ... : ... .. 1 ... : ... .. . ... ...
ROW CF : ... .. 6 ... ... ... : ... .. 6 ... ... ... : ... .. . ... : ... .. 0 ... : ... .. . ... ...
ROW D0 : ... .. 5 ... ... ... : ... .. 5 ... ... ... : C#3 00 . ... : D-# 00 6 ... : ... .. . ... ...
ROW D1 : ... .. 4 ... ... ... : ... .. 4 ... ... ... : ... .. . ... : ... .. . ... : ... .. . ... ...
ROW D2 : ... .. 3 ... ... ... : ... .. 3 ... ... ... : ... .. . ... : ... .. . ... : ... .. . ... ...
ROW D3 : ... .. 2 ... ... ... : ... .. 2 ... ... ... : ... .. . ... : ... .. . ... : ... .. . ... ...
ROW D4 : ... .. 1 ... ... ... : ... .. 1 ... ... ... : ... .. . ... : ... .. . ... : ... .. . ... ...
ROW D5 : ... .. . ... ... ... : ... .. . ... ... ... : ... .. . ... : ... .. 0 ... : ... .. . ... ...
ROW D6 : ... .. . ... ... ... : ... .. . ... ... ... : ... .. . ... : ... .. . ... : ... .. . ... ...
ROW D7 : ... .. . ... ... ... : ... .. . ... ... ... : ... .. . ... : ... .. . ... : ... .. . ... ...
ROW D8 : ... .. . ... ... ... : ... .. . ... ... ... : ... .. . ... : ... .. . ... : ... .. . ... ...
ROW D9 : ... .. . ... ... ... : ... .. . ... ... ... : --- .. . ... : ... .. . ... : ... .. . ... ...
ROW DA : ... .. . ... ... ... : ... .. . ... ... ... : ... .. . ... : ... .. . ... : ... .. . ... ...
ROW DB : ... .. . ... ... ... : ... .. . ... ... ... : ... .. . ... : ... .. . ... : ... .. . ... ...
ROW DC : ... .. . ... ... ... : ... .. . ... ... ... : ... .. . ... : ... .. . ... : ... .. . ... ...
ROW DD : ... .. . ... ... ... : ... .. . ... ... ... : ... .. . ... : ... .. . ... : ... .. . ... ...
ROW DE : ... .. . ... ... ... : ... .. . ... ... ... : ... .. . ... : ... .. . ... : ... .. . ... ...
ROW DF : ... .. . ... ... ... : ... .. . ... ... ... : ... .. . ... : ... .. . ... : ... .. . ... ...
ROW E0 : ... .. . ... ... ... : ... .. . ... ... ... : ... .. . ... : ... .. . ... : ... .. . ... ...
ROW E1 : ... .. . ... ... ... : ... .. . ... ... ... : ... .. . ... : ... .. . ... : ... .. . ... ...
ROW E2 : F#3 00 B P80 ... ... : F#4 00 B P82 ... ... : G#2 00 . P7F : 6-# 00 F ... : ... .. . ... ...
ROW E3 : ... .. A ... ... ... : ... .. A ... ... ... : ... .. . ... : ... .. D ... : ... .. . ... ...
ROW E4 : ... .. 9 ... ... ... : ... .. 9 ... ... ... : ... .. . ... : ... .. 9 ... : ... .. . ... ...
ROW E5 : ... .. 8 ... ... ... : ... .. 8 ... ... ... : ... .. . ... : ... .. 5 ... : ... .. . ... ...
ROW E6 : ... .. 7 ... ... ... : ... .. 7 ... ... ... : ... .. . ... : ... .. 1 ... : ... .. . ... ...
ROW E7 : ... .. 6 ... ... ... : ... .. 6 ... ... ... : ... .. . ... : ... .. 0 ... : ... .. . ... ...
ROW E8 : G-3 00 B P80 ... ... : G-4 00 B P83 ... ... : C#3 00 . P80 : D-# 00 6 ... : ... .. . ... ...
ROW E9 : ... .. A ... ... ... : ... .. A ... ... ... : ... .. . ... : ... .. . ... : ... .. . ... ...
ROW EA : ... .. 9 ... ... ... : ... .. 9 ... ... ... : ... .. . ... : ... .. . ... : ... .. . ... ...
ROW EB : ... .. 8 ... ... ... : ... .. 8 ... ... ... : ... .. . ... : ... .. . ... : ... .. . ... ...
ROW EC : ... .. 7 ... ... ... : ... .. 7 ... ... ... : ... .. . ... : ... .. . ... : ... .. . ... ...
ROW ED : ... .. 6 ... ... ... : ... .. 6 ... ... ... : ... .. . ... : ... .. 0 ... : ... .. . ... ...
ROW EE : ... .. 5 ... ... ... : ... .. 5 ... ... ... : ... .. . ... : ... .. . ... : ... .. . ... ...
ROW EF : ... .. 4 ... ... ... : ... .. 4 ... ... ... : ... .. . ... : ... .. . ... : ... .. . ... ...
ROW F0 : ... .. 3 ... ... ... : ... .. 3 ... ... ... : ... .. . ... : ... .. . ... : ... .. . ... ...
ROW F1 : ... .. 2 ... ... ... : ... .. 2 ... ... ... : --- .. . ... : ... .. . ... : ... .. . ... ...
ROW F2 : ... .. 1 ... ... ... : ... .. 1 ... ... ... : ... .. . ... : ... .. . ... : ... .. . ... ...
ROW F3 : ... .. . ... ... ... : ... .. . ... ... ... : ... .. . ... : ... .. . ... : ... .. . ... ...
ROW F4 : ... .. . ... ... ... : ... .. . ... ... ... : ... .. . ... : ... .. . ... : ... .. . ... ...
ROW F5 : ... .. . ... ... ... : ... .. . ... ... ... : ... .. . ... : ... .. . ... : ... .. . ... ...
ROW F6 : ... .. . ... ... ... : ... .. . ... ... ... : ... .. . ... : ... .. . ... : ... .. . ... ...
ROW F7 : ... .. . ... ... ... : ... .. . ... ... ... : ... .. . ... : ... .. . ... : ... .. . ... ...
ROW F8 : ... .. . ... ... ... : ... .. . ... ... ... : ... .. . ... : ... .. . ... : ... .. . ... ...
ROW F9 : ... .. . ... ... ... : ... .. . ... ... ... : ... .. . ... : ... .. . ... : ... .. . ... ...
ROW FA : G#3 00 B P80 ... ... : G#4 00 B P82 ... ... : F#3 00 . ... : 6-# 00 F ... : ... .. . ... ...
ROW FB : ... .. A ... ... ... : ... .. A ... ... ... : ... .. . ... : ... .. D ... : ... .. . ... ...
ROW FC : ... .. 9 ... ... ... : ... .. 9 ... ... ... : ... .. . ... : ... .. 9 ... : ... .. . ... ...
ROW FD : ... .. 8 ... ... ... : ... .. 8 ... ... ... : ... .. . ... : ... .. 5 ... : ... .. . ... ...
ROW FE : ... .. 7 ... ... ... : ... .. 7 ... ... ... : ... .. . ... : ... .. 1 ... : ... .. . ... ...
ROW FF : ... .. 6 ... ... ... : ... .. 6 ... ... ... : ... .. . ... : ... .. 0 ... : ... .. . ... ...

PATTERN 18
ROW 00 : B-3 00 B P80 ... ... : B-4 00 B P82 ... ... : G-3 00 . ... : D-# 00 6 ... : ... .. . ... ...
ROW 01 : ... .. A ... ... ... : ... .. A ... ... ... : ... .. . ... : ... .. . ... : ... .. . ... ...
ROW 02 : ... .. 9 ... ... ... : ... .. 9 ... ... ... : ... .. . ... : ... .. . ... : ... .. . ... ...
ROW 03 : ... .. 8 ... ... ... : ... .. 8 ... ... ... : ... .. . ... : ... .. . ... : ... .. . ... ...
ROW 04 : ... .. 7 ... ... ... : ... .. 7 ... ... ... : ... .. . ... : ... .. . ... : ... .. . ... ...
ROW 05 : ... .. 6 ... ... ... : ... .. 6 ... ... ... : ... .. . ... : ... .. 0 ... : ... .. . ... ...
ROW 06 : ... .. 1 ... ... ... : ... .. 5 ... ... ... : ... .. . ... : ... .. . ... : ... .. . ... ...
ROW 07 : ... .. . ... ... ... : ... .. 4 ... ... ... : ... .. . ... : ... .. . ... : ... .. . ... ...
ROW 08 : ... .. . ... ... ... : ... .. 3 ... ... ... : ... .. . ... : ... .. . ... : ... .. . ... ...
ROW 09 : ... .. . ... ... ... : ... .. 2 ... ... ... : --- .. . ... : ... .. . ... : ... .. . ... ...
ROW 0A : ... .. . ... ... ... : ... .. 1 ... ... ... : ... .. . ... : ... .. . ... : ... .. . ... ...
ROW 0B : ... .. . ... ... ... : ... .. . ... ... ... : ... .. . ... : ... .. . ... : ... .. . ... ...
ROW 0C : A#3 00 B P81 ... ... : ... .. . ... ... ... : ... .. . ... : ... .. . ... : ... .. . ... ...
ROW 0D : ... .. A ... ... ... : ... .. . ... ... ... : ... .. . ... : ... .. . ... : ... .. . ... ...
ROW 0E : ... .. 9 ... ... ... : ... .. . ... ... ... : ... .. . ... : ... .. . ... : ... .. . ... ...
ROW 0F : ... .. 8 ... ... ... : ... .. . ... ... ... : ... .. . ... : ... .. . ... : ... .. . ... ...
ROW 10 : ... .. 7 ... ... ... : ... .. . ... ... ... : ... .. . ... : ... .. . ... : ... .. . ... ...
ROW 11 : ... .. 6 ... ... ... : ... .. . ... ... ... : ... .. . ... : ... .. . ... : ... .. . ... ...
ROW 12 : B-3 00 B P80 ... ... : ... .. . ... ... ... : F-3 00 . ... : 6-# 00 F ... : ... .. . ... ...
ROW 13 : ... .. A ... ... ... : ... .. . ... ... ... : ... .. . ... : ... .. D ... : ... .. . ... ...
ROW 14 : ... .. 9 ... ... ... : ... .. . ... ... ... : ... .. . ... : ... .. 9 ... : ... .. . ... ...
ROW 15 : ... .. 8 ... ... ... : ... .. . ... ... ... : ... .. . ... : ... .. 5 ... : ... .. . ... ...
ROW 16 : ... .. 7 ... ... ... : ... .. . ... ... ... : ... .. . ... : ... .. 1 ... : ... .. . ... ...
ROW 17 : ... .. 6 ... ... ... : ... .. . ... ... ... : ... .. . ... : ... .. 0 ... : ... .. . ... ...
ROW 18 : G#3 00 B P80 ... ... : G#4 00 B P82 ... ... : C#3 00 . ... : D-# 00 6 ... : ... .. . ... ...
ROW 19 : ... .. A ... ... ... : ... .. A ... ... ... : ... .. . ... : ... .. . ... : ... .. . ... ...
ROW 1A : ... .. 9 ... ... ... : ... .. 9 ... ... ... : ... .. . ... : ... .. . ... : ... .. . ... ...
ROW 1B : ... .. 8 ... ... ... : ... .. 8 ... ... ... : ... .. . ... : ... .. . ... : ... .. . ... ...
ROW 1C : ... .. 7 ... ... ... : ... .. 7 ... ... ... : ... .. . ... : ... .. . ... : ... .. . ... ...
ROW 1D : ... .. 6 ... ... ... : ... .. 6 ... ... ... : ... .. . ... : ... .. 0 ... : ... .. . ... ...
ROW 1E : ... .. 1 ... ... ... : ... .. 5 ... ... ... : ... .. . ... : ... .. . ... : ... .. . ... ...
ROW 1F : ... .. . ... ... ... : ... .. 4 ... ... ... : ... .. . ... : ... .. . ... : ... .. . ... ...
ROW 20 : ... .. . ... ... ... : ... .. 3 ... ... ... : ... .. . ... : ... .. . ... : ... .. . ... ...
ROW 21 : ... .. . ... ... ... : ... .. 2 ... ... ... : --- .. . ... : ... .. . ... : ... .. . ... ...
ROW 22 : ... .. . ... ... ... : ... .. 1 ... ... ... : ... .. . ... : ... .. . ... : ... .. . ... ...
ROW 23 : ... .. . ... ... ... : ... .. . ... ... ... : ... .. . ... : ... .. . ... : ... .. . ... ...
ROW 24 : G#3 00 B P80 ... ... : ... .. . ... ... ... : ... .. . ... : ... .. . ... : ... .. . ... ...
ROW 25 : ... .. A ... ... ... : ... .. . ... ... ... : ... .. . ... : ... .. . ... : ... .. . ... ...
ROW 26 : ... .. 9 ... ... ... : ... .. . ... ... ... : ... .. . ... : ... .. . ... : ... .. . ... ...
ROW 27 : ... .. 8 ... ... ... : ... .. . ... ... ... : ... .. . ... : ... .. . ... : ... .. . ... ...
ROW 28 : ... .. 7 ... ... ... : ... .. . ... ... ... : ... .. . ... : ... .. . ... : ... .. . ... ...
ROW 29 : ... .. 6 ... ... ... : ... .. . ... ... ... : ... .. . ... : ... .. . ... : ... .. . ... ...
ROW 2A : G#3 00 B P80 ... ... : ... .. . ... ... ... : B-2 00 . ... : 6-# 00 F ... : ... .. . ... ...
ROW 2B : ... .. A ... ... ... : ... .. . ... ... ... : ... .. . ... : ... .. D ... : ... .. . ... ...
ROW 2C : ... .. 9 ... ... ... : ... .. . ... ... ... : ... .. . ... : ... .. 9 ... : ... .. . ... ...
ROW 2D : ... .. 8 ... ... ... : ... .. . ... ... ... : ... .. . ... : ... .. 5 ... : ... .. . ... ...
ROW 2E : ... .. 7 ... ... ... : ... .. . ... ... ... : ... .. . ... : ... .. 1 ... : ... .. . ... ...
ROW 2F : ... .. 6 ... ... ... : ... .. . ... ... ... : ... .. . ... : ... .. 0 ... : ... .. . ... ...
ROW 30 : G#3 00 B P80 ... ... : G#4 00 B P83 ... ... : C#3 00 . ... : D-# 00 6 ... : ... .. . ... ...
ROW 31 : ... .. A ... ... ... : ... .. A ... ... ... : ... .. . ... : ... .. . ... : ... .. . ... ...
ROW 32 : ... .. 9 ... ... ... : ... .. 9 ... ... ... : ... .. . ... : ... .. . ... : ... .. . ... ...
ROW 33 : ... .. 8 ... ... ... : ... .. 8 ... ... ... : ... .. . ... : ... .. . ... : ... .. . ... ...
ROW 34 : ... .. 7 ... ... ... : ... .. 7 ... ... ... : ... .. . ... : ... .. . ... : ... .. . ... ...
ROW 35 : ... .. 6 ... ... ... : ... .. 6 ... ... ... : ... .. . ... : ... .. 0 ... : ... .. . ... ...
ROW 36 : ... .. 1 ... ... ... : ... .. 5 ... ... ... : ... .. . ... : ... .. . ... : ... .. . ... ...
ROW 37 : ... .. . ... ... ... : ... .. 4 ... ... ... : ... .. . ... : ... .. . ... : ... .. . ... ...
ROW 38 : ... .. . ... ... ... : ... .. 3 ... ... ... : ... .. . ... : ... .. . ... : ... .. . ... ...
ROW 39 : ... .. . ... ... ... : ... .. 2 ... ... ... : --- .. . ... : ... .. . ... : ... .. . ... ...
ROW 3A : ... .. . ... ... ... : ... .. 1 ... ... ... : ... .. . ... : ... .. . ... : ... .. . ... ...
ROW 3B : ... .. . ... ... ... : ... .. . ... ... ... : ... .. . ... : ... .. . ... : ... .. . ... ...
ROW 3C : G-3 00 B P80 ... ... : ... .. . ... ... ... : ... .. . ... : ... .. . ... : ... .. . ... ...
ROW 3D : ... .. A ... ... ... : ... .. . ... ... ... : ... .. . ... : ... .. . ... : ... .. . ... ...
ROW 3E : ... .. 9 ... ... ... : ... .. . ... ... ... : ... .. . ... : ... .. . ... : ... .. . ... ...
ROW 3F : ... .. 8 ... ... ... : ... .. . ... ... ... : ... .. . ... : ... .. . ... : ... .. . ... ...
ROW 40 : ... .. 7 ... ... ... : ... .. . ... ... ... : ... .. . ... : ... .. . ... : ... .. . ... ...
ROW 41 : ... .. 6 ... ... ... : ... .. . ... ... ... : ... .. . ... : ... .. . ... : ... .. . ... ...
ROW 42 : G#3 00 B P80 ... ... : ... .. . ... ... ... : B-2 00 . ... : 6-# 00 F ... : ... .. . ... ...
ROW 43 : ... .. A ... ... ... : ... .. . ... ... ... : ... .. . ... : ... .. D ... : ... .. . ... ...
ROW 44 : ... .. 9 ... ... ... : ... .. . ... ... ... : ... .. . ... : ... .. 9 ... : ... .. . ... ...
ROW 45 : ... .. 8 ... ... ... : ... .. . ... ... ... : ... .. . ... : ... .. 5 ... : ... .. . ... ...
ROW 46 : ... .. 7 ... ... ... : ... .. . ... ... ... : ... .. . ... : ... .. 1 ... : ... .. . ... ...
ROW 47 : ... .. 6 ... ... ... : ... .. . ... ... ... : ... .. . ... : ... .. 0 ... : ... .. . ... ...
ROW 48 : G-3 00 B P80 ... ... : G-4 00 B P83 ... ... : G#2 00 . P7F : D-# 00 6 ... : ... .. . ... ...
ROW 49 : ... .. A ... ... ... : ... .. A ... ... ... : ... .. . ... : ... .. . ... : ... .. . ... ...
ROW 4A : ... .. 9 ... ... ... : ... .. 9 ... ... ... : ... .. . ... : ... .. . ... : ... .. . ... ...
ROW 4B : ... .. 8 ... ... ... : ... .. 8 ... ... ... : ... .. . ... : ... .. . ... : ... .. . ... ...
ROW 4C : ... .. 7 ... ... ... : ... .. 7 ... ... ... : ... .. . ... : ... .. . ... : ... .. . ... ...
ROW 4D : ... .. 6 ... ... ... : ... .. 6 ... ... ... : ... .. . ... : ... .. 0 ... : ... .. . ... ...
ROW 4E : ... .. 1 ... ... ... : ... .. 1 ... ... ... : ... .. . ... : ... .. . ... : ... .. . ... ...
ROW 4F : ... .. . ... ... ... : ... .. . ... ... ... : ... .. . ... : ... .. . ... : ... .. . ... ...
ROW 50 : ... .. . ... ... ... : ... .. . ... ... ... : ... .. . ... : ... .. . ... : ... .. . ... ...
ROW 51 : ... .. . ... ... ... : ... .. . ... ... ... : --- .. . ... : ... .. . ... : ... .. . ... ...
ROW 52 : ... .. . ... ... ... : ... .. . ... ... ... : ... .. . ... : ... .. . ... : ... .. . ... ...
ROW 53 : ... .. . ... ... ... : ... .. . ... ... ... : ... .. . ... : ... .. . ... : ... .. . ... ...
ROW 54 : C#3 00 B P80 ... ... : C#4 00 B P82 ... ... : ... .. . ... : ... .. . ... : ... .. . ... ...
ROW 55 : ... .. A ... ... ... : ... .. A ... ... ... : ... .. . ... : ... .. . ... : ... .. . ... ...
ROW 56 : ... .. 9 ... ... ... : ... .. 9 ... ... ... : ... .. . ... : ... .. . ... : ... .. . ... ...
ROW 57 : ... .. 8 ... ... ... : ... .. 8 ... ... ... : ... .. . ... : ... .. . ... : ... .. . ... ...
ROW 58 : ... .. 7 ... ... ... : ... .. 7 ... ... ... : ... .. . ... : ... .. . ... : ... .. . ... ...
ROW 59 : ... .. 6 ... ... ... : ... .. 6 ... ... ... : ... .. . ... : ... .. . ... : ... .. . ... ...
ROW 5A : B-2 00 B P80 ... ... : B-3 00 B P82 ... ... : G-2 00 . P80 : 6-# 00 F ... : ... .. . ... ...
ROW 5B : ... .. A ... ... ... : ... .. A ... ... ... : ... .. . ... : ... .. D ... : ... .. . ... ...
ROW 5C : ... .. 9 ... ... ... : ... .. 9 ... ... ... : ... .. . ... : ... .. 9 ... : ... .. . ... ...
ROW 5D : ... .. 8 ... ... ... : ... .. 8 ... ... ... : ... .. . ... : ... .. 5 ... : ... .. . ... ...
ROW 5E : ... .. 7 ... ... ... : ... .. 7 ... ... ... : ... .. . ... : ... .. 1 ... : ... .. . ... ...
ROW 5F : ... .. 6 ... ... ... : ... .. 6 ... ... ... : ... .. . ... : ... .. 0 ... : ... .. . ... ...
ROW 60 : C-4 00 8 P81 V02 ... : G-4 00 8 P83 V02 ... : C-3 00 . ... : F-# 00 0 ... : ... .. . ... ...
ROW 61 : ... .. . ... ... ... : ... .. . ... ... ... : ... .. . ... : ... .. . ... : ... .. . ... ...
ROW 62 : ... .. 7 ... ... ... : ... .. 7 ... ... ... : ... .. . ... : ... .. . ... : ... .. . ... ...
ROW 63 : ... .. . ... ... ... : ... .. . ... ... ... : ... .. . ... : ... .. . ... : ... .. . ... ...
ROW 64 : ... .. . ... ... ... : ... .. . ... ... ... : ... .. . ... : ... .. . ... : ... .. . ... ...
ROW 65 : ... .. . ... ... ... : ... .. . ... ... ... : ... .. . ... : ... .. . ... : ... .. . ... ...
ROW 66 : ... .. 0 ... ... ... : ... .. 0 ... ... ... : ... .. . ... : ... .. . ... : ... .. . ... ...
ROW 67 : ... .. . ... ... ... : ... .. . ... ... ... : ... .. . ... : ... .. . ... : ... .. . ... ...
ROW 68 : ... .. . ... ... ... : ... .. . ... ... ... : ... .. . ... : ... .. . ... : ... .. . ... ...
ROW 69 : ... .. . ... ... ... : ... .. . ... ... ... : --- .. . ... : ... .. . ... : ... .. . ... ...
ROW 6A : ... .. . ... ... ... : ... .. . ... ... ... : ... .. . ... : ... .. . ... : ... .. . ... ...
ROW 6B : ... .. . ... ... ... : ... .. . ... ... ... : ... .. . ... : ... .. . ... : ... .. . ... ...
ROW 6C : D#3 00 8 P80 ... ... : C-4 00 8 P81 ... ... : ... .. . ... : ... .. . ... : ... .. . ... ...
ROW 6D : ... .. . ... ... ... : ... .. . ... ... ... : ... .. . ... : ... .. . ... : ... .. . ... ...
ROW 6E : ... .. 7 ... ... ... : ... .. 7 ... ... ... : ... .. . ... : ... .. . ... : ... .. . ... ...
ROW 6F : ... .. . ... ... ... : ... .. . ... ... ... : ... .. . ... : ... .. . ... : ... .. . ... ...
ROW 70 : ... .. . ... ... ... : ... .. . ... ... ... : ... .. . ... : ... .. . ... : ... .. . ... ...
ROW 71 : ... .. . ... ... ... : ... .. . ... ... ... : ... .. . ... : ... .. . ... : ... .. . ... ...
ROW 72 : G-3 00 8 P80 ... ... : D#4 00 8 P81 ... ... : G-3 00 . ... : C-# 00 E ... : ... .. . ... ...
ROW 73 : ... .. . ... ... ... : ... .. . ... ... ... : ... .. . ... : ... .. 0 ... : ... .. . ... ...
ROW 74 : ... .. 7 ... ... ... : ... .. 7 ... ... ... : ... .. . ... : ... .. . ... : ... .. . ... ...
ROW 75 : ... .. . ... ... ... : ... .. . ... ... ... : ... .. . ... : ... .. . ... : ... .. . ... ...
ROW 76 : ... .. . ... ... ... : ... .. . ... ... ... : ... .. . ... : ... .. . ... : ... .. . ... ...
ROW 77 : ... .. . ... ... ... : ... .. . ... ... ... : ... .. . ... : ... .. . ... : ... .. . ... ...
ROW 78 : ... .. 6 ... ... ... : ... .. 6 ... ... ... : C-3 00 . ... : F-# 00 0 ... : ... .. . ... ...
ROW 79 : ... .. . ... ... ... : ... .. . ... ... ... : ... .. . ... : ... .. . ... : ... .. . ... ...
ROW 7A : ... .. . ... ... ... : ... .. . ... ... ... : ... .. . ... : ... .. . ... : ... .. . ... ...
ROW 7B : ... .. . ... ... ... : ... .. . ... ... ... : ... .. . ... : ... .. . ... : ... .. . ... ...
ROW 7C : ... .. . ... ... ... : ... .. . ... ... ... : ... .. . ... : ... .. . ... : ... .. . ... ...
ROW 7D : ... .. . ... ... ... : ... .. . ... ... ... : ... .. . ... : ... .. . ... : ... .. . ... ...
ROW 7E : ... .. . ... ... ... : ... .. . ... ... ... : ... .. . ... : ... .. . ... : ... .. . ... ...
ROW 7F : ... .. . ... ... ... : ... .. . ... ... ... : ... .. . ... : ... .. . ... : ... .. . ... ...
ROW 80 : ... .. . ... ... ... : ... .. . ... ... ... : ... .. . ... : ... .. . ... : ... .. . ... ...
ROW 81 : ... .. . ... ... ... : ... .. . ... ... ... : --- .. . ... : ... .. . ... : ... .. . ... ...
ROW 82 : ... .. . ... ... ... : ... .. . ... ... ... : ... .. . ... : ... .. . ... : ... .. . ... ...
ROW 83 : ... .. . ... ... ... : ... .. . ... ... ... : ... .. . ... : ... .. . ... : ... .. . ... ...
ROW 84 : D#3 00 8 P80 ... ... : C-4 00 8 P81 ... ... : ... .. . ... : ... .. . ... : ... .. . ... ...
ROW 85 : ... .. . ... ... ... : ... .. . ... ... ... : ... .. . ... : ... .. . ... : ... .. . ... ...
ROW 86 : ... .. 7 ... ... ... : ... .. 7 ... ... ... : ... .. . ... : ... .. . ... : ... .. . ... ...
ROW 87 : ... .. . ... ... ... : ... .. . ... ... ... : ... .. . ... : ... .. . ... : ... .. . ... ...
ROW 88 : ... .. . ... ... ... : ... .. . ... ... ... : ... .. . ... : ... .. . ... : ... .. . ... ...
ROW 89 : ... .. . ... ... ... : ... .. . ... ... ... : ... .. . ... : ... .. . ... : ... .. . ... ...
ROW 8A : G-3 00 8 P80 ... ... : D#4 00 8 P81 ... ... : G-3 00 . ... : C-# 00 E ... : ... .. . ... ...
ROW 8B : ... .. . ... ... ... : ... .. . ... ... ... : ... .. . ... : ... .. 0 ... : ... .. . ... ...
ROW 8C : ... .. 7 ... ... ... : ... .. 7 ... ... ... : ... .. . ... : ... .. . ... : ... .. . ... ...
ROW 8D : ... .. . ... ... ... : ... .. . ... ... ... : ... .. . ... : ... .. . ... : ... .. . ... ...
ROW 8E : ... .. . ... ... ... : ... .. . ... ... ... : ... .. . ... : ... .. . ... : ... .. . ... ...
ROW 8F : ... .. . ... ... ... : ... .. . ... ... ... : ... .. . ... : ... .. . ... : ... .. . ... ...
ROW 90 : D-3 00 8 P80 ... ... : B-3 00 8 P80 ... ... : B-2 00 . ... : F-# 00 0 ... : ... .. . ... ...
ROW 91 : ... .. . ... ... ... : ... .. . ... ... ... : ... .. . ... : ... .. . ... : ... .. . ... ...
ROW 92 : ... .. 7 ... ... ... : ... .. 7 ... ... ... : ... .. . ... : ... .. . ... : ... .. . ... ...
ROW 93 : ... .. . ... ... ... : ... .. . ... ... ... : ... .. . ... : ... .. . ... : ... .. . ... ...
ROW 94 : ... .. . ... ... ... : ... .. . ... ... ... : ... .. . ... : ... .. . ... : ... .. . ... ...
ROW 95 : ... .. . ... ... ... : ... .. . ... ... ... : ... .. . ... : ... .. . ... : ... .. . ... ...
ROW 96 : G-3 00 8 P80 ... ... : D-4 00 8 P81 ... ... : ... .. . ... : ... .. . ... : ... .. . ... ...
ROW 97 : ... .. . ... ... ... : ... .. . ... ... ... : ... .. . ... : ... .. . ... : ... .. . ... ...
ROW 98 : ... .. 7 ... ... ... : ... .. 7 ... ... ... : ... .. . ... : ... .. . ... : ... .. . ... ...
ROW 99 : ... .. . ... ... ... : ... .. . ... ... ... : --- .. . ... : ... .. . ... : ... .. . ... ...
ROW 9A : ... .. . ... ... ... : ... .. . ... ... ... : ... .. . ... : ... .. . ... : ... .. . ... ...
ROW 9B : ... .. . ... ... ... : ... .. . ... ... ... : ... .. . ... : ... .. . ... : ... .. . ... ...
ROW 9C : B-3 00 8 P80 ... ... : G-4 00 8 P81 ... ... : ... .. . ... : ... .. . ... : ... .. . ... ...
ROW 9D : ... .. . ... ... ... : ... .. . ... ... ... : ... .. . ... : ... .. . ... : ... .. . ... ...
ROW 9E : ... .. 7 ... ... ... : ... .. 7 ... ... ... : ... .. . ... : ... .. . ... : ... .. . ... ...
ROW 9F : ... .. . ... ... ... : ... .. . ... ... ... : ... .. . ... : ... .. . ... : ... .. . ... ...
ROW A0 : ... .. . ... ... ... : ... .. . ... ... ... : ... .. . ... : ... .. . ... : ... .. . ... ...
ROW A1 : ... .. . ... ... ... : ... .. . ... ... ... : ... .. . ... : ... .. . ... : ... .. . ... ...
ROW A2 : D-4 00 8 P81 ... ... : B-4 00 8 P80 ... ... : G-3 00 . ... : C-# 00 E ... : ... .. . ... ...
ROW A3 : ... .. . ... ... ... : ... .. . ... ... ... : ... .. . ... : ... .. 0 ... : ... .. . ... ...
ROW A4 : ... .. 7 ... ... ... : ... .. 7 ... ... ... : ... .. . ... : ... .. . ... : ... .. . ... ...
ROW A5 : ... .. . ... ... ... : ... .. . ... ... ... : ... .. . ... : ... .. . ... : ... .. . ... ...
ROW A6 : ... .. . ... ... ... : ... .. . ... ... ... : ... .. . ... : ... .. . ... : ... .. . ... ...
ROW A7 : ... .. . ... ... ... : ... .. . ... ... ... : ... .. . ... : ... .. . ... : ... .. . ... ...
ROW A8 : ... .. 6 ... ... ... : ... .. 6 ... ... ... : B-2 00 . ... : ... .. E ... : ... .. . ... ...
ROW A9 : ... .. . ... ... ... : ... .. . ... ... ... : ... .. . ... : ... .. 0 ... : ... .. . ... ...
ROW AA : ... .. . ... ... ... : ... .. . ... ... ... : ... .. . ... : ... .. . ... : ... .. . ... ...
ROW AB : ... .. . ... ... ... : ... .. . ... ... ... : ... .. . ... : ... .. . ... : ... .. . ... ...
ROW AC : ... .. . ... ... ... : ... .. . ... ... ... : ... .. . ... : ... .. . ... : ... .. . ... ...
ROW AD : ... .. . ... ... ... : ... .. . ... ... ... : ... .. . ... : ... .. . ... : ... .. . ... ...
ROW AE : ... .. . ... ... ... : ... .. . ... ... ... : ... .. . ... : ... .. E ... : ... .. . ... ...
ROW AF : ... .. . ... ... ... : ... .. . ... ... ... : ... .. . ... : ... .. 0 ... : ... .. . ... ...
ROW B0 : ... .. . ... ... ... : ... .. . ... ... ... : ... .. . ... : ... .. . ... : ... .. . ... ...
ROW B1 : ... .. . ... ... ... : ... .. . ... ... ... : --- .. . ... : ... .. . ... : ... .. . ... ...
ROW B2 : ... .. . ... ... ... : ... .. . ... ... ... : ... .. . ... : ... .. . ... : ... .. . ... ...
ROW B3 : ... .. . ... ... ... : ... .. . ... ... ... : ... .. . ... : ... .. . ... : ... .. . ... ...
ROW B4 : ... .. . ... ... ... : ... .. . ... ... ... : ... .. . ... : ... .. E ... : ... .. . ... ...
ROW B5 : ... .. . ... ... ... : ... .. . ... ... ... : ... .. . ... : ... .. 0 ... : ... .. . ... ...
ROW B6 : ... .. . ... ... ... : ... .. . ... ... ... : ... .. . ... : ... .. . ... : ... .. . ... ...
ROW B7 : ... .. . ... ... ... : ... .. . ... ... ... : ... .. . ... : ... .. . ... : ... .. . ... ...
ROW B8 : ... .. . ... ... ... : ... .. . ... ... ... : ... .. . ... : ... .. . ... : ... .. . ... ...
ROW B9 : ... .. . ... ... ... : ... .. . ... ... ... : ... .. . ... : ... .. . ... : ... .. . ... ...
ROW BA : ... .. . ... ... ... : ... .. . ... ... ... : G-3 00 . ... : ... .. E ... : ... .. . ... ...
ROW BB : ... .. . ... ... ... : ... .. . ... ... ... : ... .. . ... : ... .. 0 ... : ... .. . ... ...
ROW BC : ... .. . ... ... ... : ... .. . ... ... ... : ... .. . ... : ... .. . ... : ... .. . ... ...
ROW BD : ... .. . ... ... ... : ... .. . ... ... ... : ... .. . ... : ... .. . ... : ... .. . ... ...
ROW BE : ... .. . ... ... ... : ... .. . ... ... ... : ... .. . ... : ... .. . ... : ... .. . ... ...
ROW BF : ... .. . ... ... ... : ... .. . ... ... ... : ... .. . ... : ... .. . ... : ... .. . ... ...
ROW C0 : A#3 00 8 P81 ... ... : G-4 00 8 P81 ... ... : A#2 00 . ... : F-# 00 0 ... : ... .. . ... ...
ROW C1 : ... .. . ... ... ... : ... .. . ... ... ... : ... .. . ... : ... .. . ... : ... .. . ... ...
ROW C2 : ... .. 7 ... ... ... : ... .. 7 ... ... ... : ... .. . ... : ... .. . ... : ... .. . ... ...
ROW C3 : ... .. . ... ... ... : ... .. . ... ... ... : ... .. . ... : ... .. . ... : ... .. . ... ...
ROW C4 : ... .. . ... ... ... : ... .. . ... ... ... : ... .. . ... : ... .. . ... : ... .. . ... ...
ROW C5 : ... .. . ... ... ... : ... .. . ... ... ... : ... .. . ... : ... .. . ... : ... .. . ... ...
ROW C6 : ... .. 0 ... ... ... : ... .. 0 ... ... ... : ... .. . ... : ... .. . ... : ... .. . ... ...
ROW C7 : ... .. . ... ... ... : ... .. . ... ... ... : ... .. . ... : ... .. . ... : ... .. . ... ...
ROW C8 : ... .. . ... ... ... : ... .. . ... ... ... : ... .. . ... : ... .. . ... : ... .. . ... ...
ROW C9 : ... .. . ... ... ... : ... .. . ... ... ... : --- .. . ... : ... .. . ... : ... .. . ... ...
ROW CA : ... .. . ... ... ... : ... .. . ... ... ... : ... .. . ... : ... .. . ... : ... .. . ... ...
ROW CB : ... .. . ... ... ... : ... .. . ... ... ... : ... .. . ... : ... .. . ... : ... .. . ... ...
ROW CC : C#3 00 8 P80 ... ... : A#3 00 8 P81 ... ... : ... .. . ... : ... .. . ... : ... .. . ... ...
ROW CD : ... .. . ... ... ... : ... .. . ... ... ... : ... .. . ... : ... .. . ... : ... .. . ... ...
ROW CE : ... .. 7 ... ... ... : ... .. 7 ... ... ... : ... .. . ... : ... .. . ... : ... .. . ... ...
ROW CF : ... .. . ... ... ... : ... .. . ... ... ... : ... .. . ... : ... .. . ... : ... .. . ... ...
ROW D0 : ... .. . ... ... ... : ... .. . ... ... ... : ... .. . ... : ... .. . ... : ... .. . ... ...
ROW D1 : ... .. . ... ... ... : ... .. . ... ... ... : ... .. . ... : ... .. . ... : ... .. . ... ...
ROW D2 : G-3 00 8 P80 ... ... : C#4 00 8 P80 ... ... : G-3 00 . ... : C-# 00 E ... : ... .. . ... ...
ROW D3 : ... .. . ... ... ... : ... .. . ... ... ... : ... .. . ... : ... .. 0 ... : ... .. . ... ...
ROW D4 : ... .. 7 ... ... ... : ... .. 7 ... ... ... : ... .. . ... : ... .. . ... : ... .. . ... ...
ROW D5 : ... .. . ... ... ... : ... .. . ... ... ... : ... .. . ... : ... .. . ... : ... .. . ... ...
ROW D6 : ... .. . ... ... ... : ... .. . ... ... ... : ... .. . ... : ... .. . ... : ... .. . ... ...
ROW D7 : ... .. . ... ... ... : ... .. . ... ... ... : ... .. . ... : ... .. . ... : ... .. . ... ...
ROW D8 : ... .. 6 ... ... ... : ... .. 6 ... ... ... : A#2 00 . ... : F-# 00 0 ... : ... .. . ... ...
ROW D9 : ... .. . ... ... ... : ... .. . ... ... ... : ... .. . ... : ... .. . ... : ... .. . ... ...
ROW DA : ... .. . ... ... ... : ... .. . ... ... ... : ... .. . ... : ... .. . ... : ... .. . ... ...
ROW DB : ... .. . ... ... ... : ... .. . ... ... ... : ... .. . ... : ... .. . ... : ... .. . ... ...
ROW DC : ... .. . ... ... ... : ... .. . ... ... ... : ... .. . ... : ... .. . ... : ... .. . ... ...
ROW DD : ... .. . ... ... ... : ... .. . ... ... ... : ... .. . ... : ... .. . ... : ... .. . ... ...
ROW DE : ... .. . ... ... ... : ... .. . ... ... ... : ... .. . ... : ... .. . ... : ... .. . ... ...
ROW DF : ... .. . ... ... ... : ... .. . ... ... ... : ... .. . ... : ... .. . ... : ... .. . ... ...
ROW E0 : ... .. . ... ... ... : ... .. . ... ... ... : ... .. . ... : ... .. . ... : ... .. . ... ...
ROW E1 : ... .. . ... ... ... : ... .. . ... ... ... : --- .. . ... : ... .. . ... : ... .. . ... ...
ROW E2 : ... .. . ... ... ... : ... .. . ... ... ... : ... .. . ... : ... .. . ... : ... .. . ... ...
ROW E3 : ... .. . ... ... ... : ... .. . ... ... ... : ... .. . ... : ... .. . ... : ... .. . ... ...
ROW E4 : C#3 00 8 P80 ... ... : A#3 00 8 P81 ... ... : ... .. . ... : ... .. . ... : ... .. . ... ...
ROW E5 : ... .. . ... ... ... : ... .. . ... ... ... : ... .. . ... : ... .. . ... : ... .. . ... ...
ROW E6 : ... .. 7 ... ... ... : ... .. 7 ... ... ... : ... .. . ... : ... .. . ... : ... .. . ... ...
ROW E7 : ... .. . ... ... ... : ... .. . ... ... ... : ... .. . ... : ... .. . ... : ... .. . ... ...
ROW E8 : ... .. . ... ... ... : ... .. . ... ... ... : ... .. . ... : ... .. . ... : ... .. . ... ...
ROW E9 : ... .. . ... ... ... : ... .. . ... ... ... : ... .. . ... : ... .. . ... : ... .. . ... ...
ROW EA : G-3 00 8 P80 ... ... : C#4 00 8 P80 ... ... : G-3 00 . ... : C-# 00 E ... : ... .. . ... ...
ROW EB : ... .. . ... ... ... : ... .. . ... ... ... : ... .. . ... : ... .. 0 ... : ... .. . ... ...
ROW EC : ... .. 7 ... ... ... : ... .. 7 ... ... ... : ... .. . ... : ... .. . ... : ... .. . ... ...
ROW ED : ... .. . ... ... ... : ... .. . ... ... ... : ... .. . ... : ... .. . ... : ... .. . ... ...
ROW EE : ... .. . ... ... ... : ... .. . ... ... ... : ... .. . ... : ... .. . ... : ... .. . ... ...
ROW EF : ... .. . ... ... ... : ... .. . ... ... ... : ... .. . ... : ... .. . ... : ... .. . ... ...
ROW F0 : D#3 00 8 P80 ... ... : C#4 00 8 P81 ... ... : G#2 00 . P7F : F-# 00 0 ... : ... .. . ... ...
ROW F1 : ... .. . ... ... ... : ... .. . ... ... ... : ... .. . ... : ... .. . ... : ... .. . ... ...
ROW F2 : ... .. 7 ... ... ... : ... .. 7 ... ... ... : ... .. . ... : ... .. . ... : ... .. . ... ...
ROW F3 : ... .. . ... ... ... : ... .. . ... ... ... : ... .. . ... : ... .. . ... : ... .. . ... ...
ROW F4 : ... .. . ... ... ... : ... .. . ... ... ... : ... .. . ... : ... .. . ... : ... .. . ... ...
ROW F5 : ... .. . ... ... ... : ... .. . ... ... ... : ... .. . ... : ... .. . ... : ... .. . ... ...
ROW F6 : G#3 00 8 P80 ... ... : D#4 00 8 P81 ... ... : ... .. . ... : ... .. . ... : ... .. . ... ...
ROW F7 : ... .. . ... ... ... : ... .. . ... ... ... : ... .. . ... : ... .. . ... : ... .. . ... ...
ROW F8 : ... .. 7 ... ... ... : ... .. 7 ... ... ... : ... .. . ... : ... .. . ... : ... .. . ... ...
ROW F9 : ... .. . ... ... ... : ... .. . ... ... ... : --- .. . ... : ... .. . ... : ... .. . ... ...
ROW FA : ... .. . ... ... ... : ... .. . ... ... ... : ... .. . ... : ... .. . ... : ... .. . ... ...
ROW FB : ... .. . ... ... ... : ... .. . ... ... ... : ... .. . ... : ... .. . ... : ... .. . ... ...
ROW FC : C#4 00 8 P81 ... ... : G-4 00 8 P81 ... ... : ... .. . ... : ... .. . ... : ... .. . ... ...
ROW FD : ... .. . ... ... ... : ... .. . ... ... ... : ... .. . ... : ... .. . ... : ... .. . ... ...
ROW FE : ... .. 7 ... ... ... : ... .. 7 ... ... ... : ... .. . ... : ... .. . ... : ... .. . ... ...
ROW FF : ... .. . ... ... ... : ... .. . ... ... ... : ... .. . ... : ... .. . ... : ... .. . ... ...

PATTERN 19
ROW 00 : ... .. . ... ... ... : ... .. . ... ... ... : ... .. . ... : ... .. . ... : ... .. . ... ...
ROW 01 : ... .. . ... ... ... : ... .. . ... ... ... : ... .. . ... : ... .. . ... : ... .. . ... ...
ROW 02 : D#4 00 8 P81 ... ... : B-4 00 8 P80 ... ... : G-3 00 . P80 : C-# 00 E ... : ... .. . ... ...
ROW 03 : ... .. . ... ... ... : ... .. . ... ... ... : ... .. . ... : ... .. 0 ... : ... .. . ... ...
ROW 04 : ... .. 7 ... ... ... : ... .. 7 ... ... ... : ... .. . ... : ... .. . ... : ... .. . ... ...
ROW 05 : ... .. . ... ... ... : ... .. . ... ... ... : ... .. . ... : ... .. . ... : ... .. . ... ...
ROW 06 : ... .. . ... ... ... : ... .. . ... ... ... : ... .. . ... : ... .. . ... : ... .. . ... ...
ROW 07 : ... .. . ... ... ... : ... .. . ... ... ... : ... .. . ... : ... .. . ... : ... .. . ... ...
ROW 08 : ... .. 6 ... ... ... : ... .. 6 ... ... ... : G#2 00 . P7F : ... .. E ... : ... .. . ... ...
ROW 09 : ... .. . ... ... ... : ... .. . ... ... ... : ... .. . ... : ... .. 0 ... : ... .. . ... ...
ROW 0A : ... .. . ... ... ... : ... .. . ... ... ... : ... .. . ... : ... .. . ... : ... .. . ... ...
ROW 0B : ... .. . ... ... ... : ... .. . ... ... ... : ... .. . ... : ... .. . ... : ... .. . ... ...
ROW 0C : ... .. . ... ... ... : ... .. . ... ... ... : ... .. . ... : ... .. . ... : ... .. . ... ...
ROW 0D : ... .. . ... ... ... : ... .. . ... ... ... : ... .. . ... : ... .. . ... : ... .. . ... ...
ROW 0E : ... .. . ... ... ... : ... .. . ... ... ... : ... .. . ... : ... .. E ... : ... .. . ... ...
ROW 0F : ... .. . ... ... ... : ... .. . ... ... ... : ... .. . ... : ... .. 0 ... : ... .. . ... ...
ROW 10 : ... .. . ... ... ... : ... .. . ... ... ... : ... .. . ... : ... .. . ... : ... .. . ... ...
ROW 11 : ... .. . ... ... ... : ... .. . ... ... ... : --- .. . ... : ... .. . ... : ... .. . ... ...
ROW 12 : ... .. . ... ... ... : ... .. . ... ... ... : ... .. . ... : ... .. . ... : ... .. . ... ...
ROW 13 : ... .. . ... ... ... : ... .. . ... ... ... : ... .. . ... : ... .. . ... : ... .. . ... ...
ROW 14 : ... .. . ... ... ... : ... .. . ... ... ... : ... .. . ... : ... .. E ... : ... .. . ... ...
ROW 15 : ... .. . ... ... ... : ... .. . ... ... ... : ... .. . ... : ... .. 0 ... : ... .. . ... ...
ROW 16 : ... .. . ... ... ... : ... .. . ... ... ... : ... .. . ... : ... .. . ... : ... .. . ... ...
ROW 17 : ... .. . ... ... ... : ... .. . ... ... ... : ... .. . ... : ... .. . ... : ... .. . ... ...
ROW 18 : ... .. . ... ... ... : ... .. . ... ... ... : ... .. . ... : ... .. . ... : ... .. . ... ...
ROW 19 : ... .. . ... ... ... : ... .. . ... ... ... : ... .. . ... : ... .. . ... : ... .. . ... ...
ROW 1A : ... .. . ... ... ... : ... .. . ... ... ... : G-3 00 . P80 : ... .. E ... : ... .. . ... ...
ROW 1B : ... .. . ... ... ... : ... .. . ... ... ... : ... .. . ... : ... .. 0 ... : ... .. . ... ...
ROW 1C : ... .. . ... ... ... : ... .. . ... ... ... : ... .. . ... : ... .. . ... : ... .. . ... ...
ROW 1D : ... .. . ... ... ... : ... .. . ... ... ... : ... .. . ... : ... .. . ... : ... .. . ... ...
ROW 1E : ... .. . ... ... ... : ... .. . ... ... ... : ... .. . ... : ... .. . ... : ... .. . ... ...
ROW 1F : ... .. . ... ... ... : ... .. . ... ... ... : ... .. . ... : ... .. . ... : ... .. . ... ...
ROW 20 : G#4 00 8 P80 ... ... : C-5 00 8 P81 ... ... : F-2 00 . ... : F-# 00 0 ... : ... .. . ... ...
ROW 21 : ... .. . ... ... ... : ... .. . ... ... ... : ... .. . ... : ... .. . ... : ... .. . ... ...
ROW 22 : ... .. 7 ... ... ... : ... .. 7 ... ... ... : ... .. . ... : ... .. . ... : ... .. . ... ...
ROW 23 : ... .. . ... ... ... : ... .. . ... ... ... : ... .. . ... : ... .. . ... : ... .. . ... ...
ROW 24 : ... .. . ... ... ... : ... .. . ... ... ... : ... .. . ... : ... .. . ... : ... .. . ... ...
ROW 25 : ... .. . ... ... ... : ... .. . ... ... ... : ... .. . ... : ... .. . ... : ... .. . ... ...
ROW 26 : ... .. 0 ... ... ... : ... .. 0 ... ... ... : ... .. . ... : ... .. . ... : ... .. . ... ...
ROW 27 : ... .. . ... ... ... : ... .. . ... ... ... : ... .. . ... : ... .. . ... : ... .. . ... ...
ROW 28 : ... .. . ... ... ... : ... .. . ... ... ... : ... .. . ... : ... .. . ... : ... .. . ... ...
ROW 29 : ... .. . ... ... ... : ... .. . ... ... ... : --- .. . ... : ... .. . ... : ... .. . ... ...
ROW 2A : ... .. . ... ... ... : ... .. . ... ... ... : ... .. . ... : ... .. . ... : ... .. . ... ...
ROW 2B : ... .. . ... ... ... : ... .. . ... ... ... : ... .. . ... : ... .. . ... : ... .. . ... ...
ROW 2C : G-4 00 8 P81 ... ... : B-4 00 8 P80 ... ... : ... .. . ... : ... .. . ... : ... .. . ... ...
ROW 2D : ... .. . ... ... ... : ... .. . ... ... ... : ... .. . ... : ... .. . ... : ... .. . ... ...
ROW 2E : ... .. 7 ... ... ... : ... .. 7 ... ... ... : ... .. . ... : ... .. . ... : ... .. . ... ...
ROW 2F : ... .. . ... ... ... : ... .. . ... ... ... : ... .. . ... : ... .. . ... : ... .. . ... ...
ROW 30 : ... .. . ... ... ... : ... .. . ... ... ... : ... .. . ... : ... .. . ... : ... .. . ... ...
ROW 31 : ... .. . ... ... ... : ... .. . ... ... ... : ... .. . ... : ... .. . ... : ... .. . ... ...
ROW 32 : G#4 00 8 P80 ... ... : C-5 00 8 P81 ... ... : F-3 00 . ... : C-# 00 E ... : ... .. . ... ...
ROW 33 : ... .. . ... ... ... : ... .. . ... ... ... : ... .. . ... : ... .. 0 ... : ... .. . ... ...
ROW 34 : ... .. 7 ... ... ... : ... .. 7 ... ... ... : ... .. . ... : ... .. . ... : ... .. . ... ...
ROW 35 : ... .. . ... ... ... : ... .. . ... ... ... : ... .. . ... : ... .. . ... : ... .. . ... ...
ROW 36 : ... .. . ... ... ... : ... .. . ... ... ... : ... .. . ... : ... .. . ... : ... .. . ... ...
ROW 37 : ... .. . ... ... ... : ... .. . ... ... ... : ... .. . ... : ... .. . ... : ... .. . ... ...
ROW 38 : ... .. 6 ... ... ... : ... .. 6 ... ... ... : F#2 00 . ... : F-# 00 0 ... : ... .. . ... ...
ROW 39 : ... .. . ... ... ... : ... .. . ... ... ... : ... .. . ... : ... .. . ... : ... .. . ... ...
ROW 3A : ... .. . ... ... ... : ... .. . ... ... ... : ... .. . ... : ... .. . ... : ... .. . ... ...
ROW 3B : ... .. . ... ... ... : ... .. . ... ... ... : ... .. . ... : ... .. . ... : ... .. . ... ...
ROW 3C : ... .. . ... ... ... : ... .. . ... ... ... : ... .. . ... : ... .. . ... : ... .. . ... ...
ROW 3D : ... .. . ... ... ... : ... .. . ... ... ... : ... .. . ... : ... .. . ... : ... .. . ... ...
ROW 3E : ... .. . ... ... ... : ... .. . ... ... ... : ... .. . ... : ... .. . ... : ... .. . ... ...
ROW 3F : ... .. . ... ... ... : ... .. . ... ... ... : ... .. . ... : ... .. . ... : ... .. . ... ...
ROW 40 : ... .. . ... ... ... : ... .. . ... ... ... : ... .. . ... : ... .. . ... : ... .. . ... ...
ROW 41 : ... .. . ... ... ... : ... .. . ... ... ... : --- .. . ... : ... .. . ... : ... .. . ... ...
ROW 42 : ... .. . ... ... ... : ... .. . ... ... ... : ... .. . ... : ... .. . ... : ... .. . ... ...
ROW 43 : ... .. . ... ... ... : ... .. . ... ... ... : ... .. . ... : ... .. . ... : ... .. . ... ...
ROW 44 : G#4 00 8 P80 ... ... : C-5 00 8 P81 ... ... : ... .. . ... : ... .. . ... : ... .. . ... ...
ROW 45 : ... .. . ... ... ... : ... .. . ... ... ... : ... .. . ... : ... .. . ... : ... .. . ... ...
ROW 46 : ... .. 7 ... ... ... : ... .. 7 ... ... ... : ... .. . ... : ... .. . ... : ... .. . ... ...
ROW 47 : ... .. . ... ... ... : ... .. . ... ... ... : ... .. . ... : ... .. . ... : ... .. . ... ...
ROW 48 : ... .. . ... ... ... : ... .. . ... ... ... : ... .. . ... : ... .. . ... : ... .. . ... ...
ROW 49 : ... .. . ... ... ... : ... .. . ... ... ... : ... .. . ... : ... .. . ... : ... .. . ... ...
ROW 4A : G-4 00 8 P81 ... ... : B-4 00 8 P80 ... ... : F#3 00 . ... : C-# 00 E ... : ... .. . ... ...
ROW 4B : ... .. . ... ... ... : ... .. . ... ... ... : ... .. . ... : ... .. 0 ... : ... .. . ... ...
ROW 4C : ... .. 7 ... ... ... : ... .. 7 ... ... ... : ... .. . ... : ... .. . ... : ... .. . ... ...
ROW 4D : ... .. . ... ... ... : ... .. . ... ... ... : ... .. . ... : ... .. . ... : ... .. . ... ...
ROW 4E : ... .. . ... ... ... : ... .. . ... ... ... : ... .. . ... : ... .. . ... : ... .. . ... ...
ROW 4F : ... .. . ... ... ... : ... .. . ... ... ... : ... .. . ... : ... .. . ... : ... .. . ... ...
ROW 50 : D#4 00 8 P81 ... ... : G-4 00 8 P81 ... ... : G-2 00 . ... : F-# 00 0 ... : ... .. . ... ...
ROW 51 : ... .. . ... ... ... : ... .. . ... ... ... : ... .. . ... : ... .. . ... : ... .. . ... ...
ROW 52 : ... .. 7 ... ... ... : ... .. 7 ... ... ... : ... .. . ... : ... .. . ... : ... .. . ... ...
ROW 53 : ... .. . ... ... ... : ... .. . ... ... ... : ... .. . ... : ... .. . ... : ... .. . ... ...
ROW 54 : ... .. . ... ... ... : ... .. . ... ... ... : ... .. . ... : ... .. . ... : ... .. . ... ...
ROW 55 : ... .. . ... ... ... : ... .. . ... ... ... : ... .. . ... : ... .. . ... : ... .. . ... ...
ROW 56 : ... .. 0 ... ... ... : ... .. 0 ... ... ... : ... .. . ... : ... .. . ... : ... .. . ... ...
ROW 57 : ... .. . ... ... ... : ... .. . ... ... ... : ... .. . ... : ... .. . ... : ... .. . ... ...
ROW 58 : ... .. . ... ... ... : ... .. . ... ... ... : ... .. . ... : ... .. . ... : ... .. . ... ...
ROW 59 : ... .. . ... ... ... : ... .. . ... ... ... : --- .. . ... : ... .. . ... : ... .. . ... ...
ROW 5A : ... .. . ... ... ... : ... .. . ... ... ... : ... .. . ... : ... .. . ... : ... .. . ... ...
ROW 5B : ... .. . ... ... ... : ... .. . ... ... ... : ... .. . ... : ... .. . ... : ... .. . ... ...
ROW 5C : D-4 00 8 P81 ... ... : F#4 00 8 P80 ... ... : ... .. . ... : ... .. . ... : ... .. . ... ...
ROW 5D : ... .. . ... ... ... : ... .. . ... ... ... : ... .. . ... : ... .. . ... : ... .. . ... ...
ROW 5E : ... .. 7 ... ... ... : ... .. 7 ... ... ... : ... .. . ... : ... .. . ... : ... .. . ... ...
ROW 5F : ... .. . ... ... ... : ... .. . ... ... ... : ... .. . ... : ... .. . ... : ... .. . ... ...
ROW 60 : ... .. . ... ... ... : ... .. . ... ... ... : ... .. . ... : ... .. . ... : ... .. . ... ...
ROW 61 : ... .. . ... ... ... : ... .. . ... ... ... : ... .. . ... : ... .. . ... : ... .. . ... ...
ROW 62 : D#4 00 8 P81 ... ... : G-4 00 8 P81 ... ... : G-3 00 . ... : C-# 00 E ... : ... .. . ... ...
ROW 63 : ... .. . ... ... ... : ... .. . ... ... ... : ... .. . ... : ... .. 0 ... : ... .. . ... ...
ROW 64 : ... .. 7 ... ... ... : ... .. 7 ... ... ... : ... .. . ... : ... .. . ... : ... .. . ... ...
ROW 65 : ... .. . ... ... ... : ... .. . ... ... ... : ... .. . ... : ... .. . ... : ... .. . ... ...
ROW 66 : ... .. . ... ... ... : ... .. . ... ... ... : ... .. . ... : ... .. . ... : ... .. . ... ...
ROW 67 : ... .. . ... ... ... : ... .. . ... ... ... : ... .. . ... : ... .. . ... : ... .. . ... ...
ROW 68 : ... .. 6 ... ... ... : ... .. 6 ... ... ... : G#2 00 . P7F : ... .. E ... : ... .. . ... ...
ROW 69 : ... .. . ... ... ... : ... .. . ... ... ... : ... .. . ... : ... .. 0 ... : ... .. . ... ...
ROW 6A : ... .. . ... ... ... : ... .. . ... ... ... : ... .. . ... : ... .. . ... : ... .. . ... ...
ROW 6B : ... .. . ... ... ... : ... .. . ... ... ... : ... .. . ... : ... .. . ... : ... .. . ... ...
ROW 6C : ... .. . ... ... ... : ... .. . ... ... ... : ... .. . ... : ... .. . ... : ... .. . ... ...
ROW 6D : ... .. . ... ... ... : ... .. . ... ... ... : ... .. . ... : ... .. . ... : ... .. . ... ...
ROW 6E : ... .. . ... ... ... : ... .. . ... ... ... : ... .. . ... : ... .. E ... : ... .. . ... ...
ROW 6F : ... .. . ... ... ... : ... .. . ... ... ... : ... .. . ... : ... .. 0 ... : ... .. . ... ...
ROW 70 : ... .. . ... ... ... : ... .. . ... ... ... : ... .. . ... : ... .. . ... : ... .. . ... ...
ROW 71 : ... .. . ... ... ... : ... .. . ... ... ... : --- .. . ... : ... .. . ... : ... .. . ... ...
ROW 72 : ... .. . ... ... ... : ... .. . ... ... ... : ... .. . ... : ... .. . ... : ... .. . ... ...
ROW 73 : ... .. . ... ... ... : ... .. . ... ... ... : ... .. . ... : ... .. . ... : ... .. . ... ...
ROW 74 : G#3 00 8 P80 ... ... : C#4 00 8 P81 ... ... : ... .. . ... : ... .. E ... : ... .. . ... ...
ROW 75 : ... .. . ... ... ... : ... .. . ... ... ... : ... .. . ... : ... .. 0 ... : ... .. . ... ...
ROW 76 : ... .. 7 ... ... ... : ... .. 7 ... ... ... : ... .. . ... : ... .. . ... : ... .. . ... ...
ROW 77 : ... .. . ... ... ... : ... .. . ... ... ... : ... .. . ... : ... .. . ... : ... .. . ... ...
ROW 78 : ... .. . ... ... ... : ... .. . ... ... ... : ... .. . ... : ... .. . ... : ... .. . ... ...
ROW 79 : ... .. . ... ... ... : ... .. . ... ... ... : ... .. . ... : ... .. . ... : ... .. . ... ...
ROW 7A : B-3 00 8 P80 ... ... : C#4 00 8 P80 ... ... : G#3 00 . P80 : ... .. E ... : ... .. . ... ...
ROW 7B : ... .. . ... ... ... : ... .. . ... ... ... : ... .. . ... : ... .. 0 ... : ... .. . ... ...
ROW 7C : ... .. 7 ... ... ... : ... .. 7 ... ... ... : ... .. . ... : ... .. . ... : ... .. . ... ...
ROW 7D : ... .. . ... ... ... : ... .. . ... ... ... : ... .. . ... : ... .. . ... : ... .. . ... ...
ROW 7E : ... .. . ... ... ... : ... .. . ... ... ... : ... .. . ... : ... .. . ... : ... .. . ... ...
ROW 7F : ... .. . ... ... ... : ... .. . ... ... ... : ... .. . ... : ... .. . ... : ... .. . ... ...
ROW 80 : C#4 00 8 P80 ... ... : F-4 00 8 P80 ... ... : C#3 00 . ... : F-# 00 0 ... : ... .. . ... ...
ROW 81 : ... .. . ... ... ... : ... .. . ... ... ... : ... .. . ... : ... .. . ... : ... .. . ... ...
ROW 82 : ... .. 7 ... ... ... : ... .. 7 ... ... ... : ... .. . ... : ... .. . ... : ... .. . ... ...
ROW 83 : ... .. . ... ... ... : ... .. . ... ... ... : ... .. . ... : ... .. . ... : ... .. . ... ...
ROW 84 : ... .. . ... ... ... : ... .. . ... ... ... : ... .. . ... : ... .. . ... : ... .. . ... ...
ROW 85 : ... .. . ... ... ... : ... .. . ... ... ... : ... .. . ... : ... .. . ... : ... .. . ... ...
ROW 86 : ... .. 0 ... ... ... : ... .. 0 ... ... ... : ... .. . ... : ... .. . ... : ... .. . ... ...
ROW 87 : ... .. . ... ... ... : ... .. . ... ... ... : ... .. . ... : ... .. . ... : ... .. . ... ...
ROW 88 : ... .. . ... ... ... : ... .. . ... ... ... : ... .. . ... : ... .. . ... : ... .. . ... ...
ROW 89 : ... .. . ... ... ... : ... .. . ... ... ... : --- .. . ... : ... .. . ... : ... .. . ... ...
ROW 8A : ... .. . ... ... ... : ... .. . ... ... ... : ... .. . ... : ... .. . ... : ... .. . ... ...
ROW 8B : ... .. . ... ... ... : ... .. . ... ... ... : ... .. . ... : ... .. . ... : ... .. . ... ...
ROW 8C : C-4 00 8 P81 ... ... : D#4 00 8 P81 ... ... : ... .. . ... : ... .. . ... : ... .. . ... ...
ROW 8D : ... .. . ... ... ... : ... .. . ... ... ... : ... .. . ... : ... .. . ... : ... .. . ... ...
ROW 8E : ... .. 7 ... ... ... : ... .. 7 ... ... ... : ... .. . ... : ... .. . ... : ... .. . ... ...
ROW 8F : ... .. . ... ... ... : ... .. . ... ... ... : ... .. . ... : ... .. . ... : ... .. . ... ...
ROW 90 : ... .. . ... ... ... : ... .. . ... ... ... : ... .. . ... : ... .. . ... : ... .. . ... ...
ROW 91 : ... .. . ... ... ... : ... .. . ... ... ... : ... .. . ... : ... .. . ... : ... .. . ... ...
ROW 92 : C#4 00 8 P80 ... ... : F-4 00 8 P80 ... ... : F-3 00 . ... : C-# 00 E ... : ... .. . ... ...
ROW 93 : ... .. . ... ... ... : ... .. . ... ... ... : ... .. . ... : ... .. 0 ... : ... .. . ... ...
ROW 94 : ... .. 7 ... ... ... : ... .. 7 ... ... ... : ... .. . ... : ... .. . ... : ... .. . ... ...
ROW 95 : ... .. . ... ... ... : ... .. . ... ... ... : ... .. . ... : ... .. . ... : ... .. . ... ...
ROW 96 : ... .. . ... ... ... : ... .. . ... ... ... : ... .. . ... : ... .. . ... : ... .. . ... ...
ROW 97 : ... .. . ... ... ... : ... .. . ... ... ... : ... .. . ... : ... .. . ... : ... .. . ... ...
ROW 98 : ... .. 6 ... ... ... : ... .. 6 ... ... ... : G-2 00 . ... : F-# 00 0 ... : ... .. . ... ...
ROW 99 : ... .. . ... ... ... : ... .. . ... ... ... : ... .. . ... : ... .. . ... : ... .. . ... ...
ROW 9A : ... .. . ... ... ... : ... .. . ... ... ... : ... .. . ... : ... .. . ... : ... .. . ... ...
ROW 9B : ... .. . ... ... ... : ... .. . ... ... ... : ... .. . ... : ... .. . ... : ... .. . ... ...
ROW 9C : ... .. . ... ... ... : ... .. . ... ... ... : ... .. . ... : ... .. . ... : ... .. . ... ...
ROW 9D : ... .. . ... ... ... : ... .. . ... ... ... : ... .. . ... : ... .. . ... : ... .. . ... ...
ROW 9E : ... .. . ... ... ... : ... .. . ... ... ... : ... .. . ... : ... .. . ... : ... .. . ... ...
ROW 9F : ... .. . ... ... ... : ... .. . ... ... ... : ... .. . ... : ... .. . ... : ... .. . ... ...
ROW A0 : ... .. . ... ... ... : ... .. . ... ... ... : ... .. . ... : ... .. . ... : ... .. . ... ...
ROW A1 : ... .. . ... ... ... : ... .. . ... ... ... : --- .. . ... : ... .. . ... : ... .. . ... ...
ROW A2 : ... .. . ... ... ... : ... .. . ... ... ... : ... .. . ... : ... .. . ... : ... .. . ... ...
ROW A3 : ... .. . ... ... ... : ... .. . ... ... ... : ... .. . ... : ... .. . ... : ... .. . ... ...
ROW A4 : C-4 00 8 P81 ... ... : D#4 00 8 P81 ... ... : ... .. . ... : ... .. . ... : ... .. . ... ...
ROW A5 : ... .. . ... ... ... : ... .. . ... ... ... : ... .. . ... : ... .. . ... : ... .. . ... ...
ROW A6 : ... .. 7 ... ... ... : ... .. 7 ... ... ... : ... .. . ... : ... .. . ... : ... .. . ... ...
ROW A7 : ... .. . ... ... ... : ... .. . ... ... ... : ... .. . ... : ... .. . ... : ... .. . ... ...
ROW A8 : ... .. . ... ... ... : ... .. . ... ... ... : ... .. . ... : ... .. . ... : ... .. . ... ...
ROW A9 : ... .. . ... ... ... : ... .. . ... ... ... : ... .. . ... : ... .. . ... : ... .. . ... ...
ROW AA : B-3 00 8 P80 ... ... : C#4 00 8 P80 ... ... : C#3 00 . ... : C-# 00 E ... : ... .. . ... ...
ROW AB : ... .. . ... ... ... : ... .. . ... ... ... : ... .. . ... : ... .. 0 ... : ... .. . ... ...
ROW AC : ... .. 7 ... ... ... : ... .. 7 ... ... ... : ... .. . ... : ... .. . ... : ... .. . ... ...
ROW AD : ... .. . ... ... ... : ... .. . ... ... ... : ... .. . ... : ... .. . ... : ... .. . ... ...
ROW AE : ... .. . ... ... ... : ... .. . ... ... ... : ... .. . ... : ... .. . ... : ... .. . ... ...
ROW AF : ... .. . ... ... ... : ... .. . ... ... ... : ... .. . ... : ... .. . ... : ... .. . ... ...
ROW B0 : ... .. 6 ... ... ... : ... .. 6 ... ... ... : C-3 00 . ... : F-# 00 0 ... : ... .. . ... ...
ROW B1 : ... .. . ... ... ... : ... .. . ... ... ... : ... .. . ... : ... .. . ... : ... .. . ... ...
ROW B2 : ... .. . ... ... ... : ... .. . ... ... ... : ... .. . ... : ... .. . ... : ... .. . ... ...
ROW B3 : ... .. . ... ... ... : ... .. . ... ... ... : ... .. . ... : ... .. . ... : ... .. . ... ...
ROW B4 : ... .. . ... ... ... : ... .. . ... ... ... : ... .. . ... : ... .. . ... : ... .. . ... ...
ROW B5 : ... .. . ... ... ... : ... .. . ... ... ... : ... .. . ... : ... .. . ... : ... .. . ... ...
ROW B6 : ... .. . ... ... ... : ... .. . ... ... ... : ... .. . ... : ... .. . ... : ... .. . ... ...
ROW B7 : ... .. . ... ... ... : ... .. . ... ... ... : ... .. . ... : ... .. . ... : ... .. . ... ...
ROW B8 : ... .. . ... ... ... : ... .. . ... ... ... : ... .. . ... : ... .. . ... : ... .. . ... ...
ROW B9 : ... .. . ... ... ... : ... .. . ... ... ... : --- .. . ... : ... .. . ... : ... .. . ... ...
ROW BA : ... .. . ... ... ... : ... .. . ... ... ... : ... .. . ... : ... .. . ... : ... .. . ... ...
ROW BB : ... .. . ... ... ... : ... .. . ... ... ... : ... .. . ... : ... .. . ... : ... .. . ... ...
ROW BC : ... .. . ... ... ... : ... .. . ... ... ... : ... .. . ... : ... .. . ... : ... .. . ... ...
ROW BD : ... .. . ... ... ... : ... .. . ... ... ... : ... .. . ... : ... .. . ... : ... .. . ... ...
ROW BE : ... .. . ... ... ... : ... .. . ... ... ... : ... .. . ... : ... .. . ... : ... .. . ... ...
ROW BF : ... .. . ... ... ... : ... .. . ... ... ... : ... .. . ... : ... .. . ... : ... .. . ... ...
ROW C0 : ... .. . ... ... ... : ... .. . ... ... ... : ... .. . ... : ... .. . ... : ... .. . ... ...
ROW C1 : ... .. . ... ... ... : ... .. . ... ... ... : ... .. . ... : ... .. . ... : ... .. . ... ...
ROW C2 : ... .. . ... ... ... : ... .. . ... ... ... : G-2 00 . ... : C-# 00 E ... : ... .. . ... ...
ROW C3 : ... .. . ... ... ... : ... .. . ... ... ... : ... .. . ... : ... .. 0 ... : ... .. . ... ...
ROW C4 : ... .. . ... ... ... : ... .. . ... ... ... : ... .. . ... : ... .. . ... : ... .. . ... ...
ROW C5 : ... .. . ... ... ... : ... .. . ... ... ... : ... .. . ... : ... .. . ... : ... .. . ... ...
ROW C6 : ... .. . ... ... ... : ... .. . ... ... ... : ... .. . ... : ... .. . ... : ... .. . ... ...
ROW C7 : ... .. . ... ... ... : ... .. . ... ... ... : ... .. . ... : ... .. . ... : ... .. . ... ...
ROW C8 : ... .. . ... ... ... : ... .. . ... ... ... : C-3 00 . ... : ... .. E ... : ... .. . ... ...
ROW C9 : ... .. . ... ... ... : ... .. . ... ... ... : ... .. . ... : ... .. 0 ... : ... .. . ... ...
ROW CA : ... .. . ... ... ... : ... .. . ... ... ... : ... .. . ... : ... .. . ... : ... .. . ... ...
ROW CB : ... .. . ... ... ... : ... .. . ... ... ... : ... .. . ... : ... .. . ... : ... .. . ... ...
ROW CC : ... .. . ... ... ... : ... .. . ... ... ... : ... .. . ... : ... .. . ... : ... .. . ... ...
ROW CD : ... .. . ... ... ... : ... .. . ... ... ... : ... .. . ... : ... .. . ... : ... .. . ... ...
ROW CE : ... .. . ... ... ... : ... .. . ... ... ... : ... .. . ... : ... .. E ... : ... .. . ... ...
ROW CF : ... .. . ... ... ... : ... .. . ... ... ... : ... .. . ... : ... .. 0 ... : ... .. . ... ...
ROW D0 : ... .. . ... ... ... : ... .. . ... ... ... : ... .. . ... : ... .. . ... : ... .. . ... ...
ROW D1 : ... .. . ... ... ... : ... .. . ... ... ... : --- .. . ... : ... .. . ... : ... .. . ... ...
ROW D2 : ... .. . ... ... ... : ... .. . ... ... ... : ... .. . ... : ... .. . ... : ... .. . ... ...
ROW D3 : ... .. . ... ... ... : ... .. . ... ... ... : ... .. . ... : ... .. . ... : ... .. . ... ...
ROW D4 : ... .. . ... ... ... : ... .. . ... ... ... : ... .. . ... : ... .. E ... : ... .. . ... ...
ROW D5 : ... .. . ... ... ... : ... .. . ... ... ... : ... .. . ... : ... .. 0 ... : ... .. . ... ...
ROW D6 : ... .. . ... ... ... : ... .. . ... ... ... : ... .. . ... : ... .. . ... : ... .. . ... ...
ROW D7 : ... .. . ... ... ... : ... .. . ... ... ... : ... .. . ... : ... .. . ... : ... .. . ... ...
ROW D8 : ... .. . ... ... ... : ... .. . ... ... ... : ... .. . ... : ... .. . ... : ... .. . ... ...
ROW D9 : ... .. . ... ... ... : ... .. . ... ... ... : ... .. . ... : ... .. . ... : ... .. . ... ...
ROW DA : ... .. . ... ... ... : ... .. . ... ... ... : ... .. . ... : ... .. E ... : ... .. . ... ...
ROW DB : ... .. . ... ... ... : ... .. . ... ... ... : ... .. . ... : ... .. 0 ... : ... .. . ... ...
ROW DC : ... .. . ... ... ... : ... .. . ... ... ... : ... .. . ... : ... .. . ... : ... .. . ... ...
ROW DD : ... .. . ... ... ... : ... .. . ... ... ... : ... .. . ... : ... .. . ... : ... .. . ... ...
ROW DE : ... .. . ... ... ... : ... .. . ... ... ... : ... .. . ... : ... .. . ... : ... .. . ... ...
ROW DF : ... .. . ... ... ... : ... .. . ... ... ... : ... .. . ... : ... .. . ... : ... .. . ... ...
ROW E0 : ... .. 1 ... V01 ... : ... .. 1 ... V01 ... : C-3 00 . ... : D-# 00 6 ... : ... .. . ... ...
ROW E1 : ... .. . ... ... ... : ... .. . ... ... ... : ... .. . ... : ... .. . ... : ... .. . ... ...
ROW E2 : ... .. . ... ... ... : ... .. . ... ... ... : ... .. . ... : ... .. . ... : ... .. . ... ...
ROW E3 : ... .. . ... ... ... : ... .. . ... ... ... : ... .. . ... : ... .. . ... : ... .. . ... ...
ROW E4 : ... .. . ... ... ... : ... .. . ... ... ... : ... .. . ... : ... .. . ... : ... .. . ... ...
ROW E5 : ... .. . ... ... ... : ... .. . ... ... ... : ... .. . ... : ... .. 0 ... : ... .. . ... ...
ROW E6 : ... .. . ... ... ... : ... .. . ... ... ... : ... .. . ... : ... .. . ... : ... .. . ... ...
ROW E7 : ... .. . ... ... ... : ... .. . ... ... ... : ... .. . ... : ... .. . ... : ... .. . ... ...
ROW E8 : ... .. . ... ... ... : ... .. . ... ... ... : ... .. . ... : ... .. . ... : ... .. . ... ...
ROW E9 : ... .. . ... ... ... : ... .. . ... ... ... : --- .. . ... : ... .. . ... : ... .. . ... ...
ROW EA : ... .. . ... ... ... : ... .. . ... ... ... : ... .. . ... : ... .. . ... : ... .. . ... ...
ROW EB : ... .. . ... ... ... : ... .. . ... ... ... : ... .. . ... : ... .. . ... : ... .. . ... ...
ROW EC : G-3 00 B P80 ... ... : D#4 00 B P81 ... ... : ... .. . ... : ... .. . ... : ... .. . ... ...
ROW ED : ... .. A ... ... ... : ... .. A ... ... ... : ... .. . ... : ... .. . ... : ... .. . ... ...
ROW EE : ... .. 9 ... ... ... : ... .. 9 ... ... ... : ... .. . ... : ... .. . ... : ... .. . ... ...
ROW EF : ... .. 8 ... ... ... : ... .. 8 ... ... ... : ... .. . ... : ... .. . ... : ... .. . ... ...
ROW F0 : ... .. 7 ... ... ... : ... .. 7 ... ... ... : ... .. . ... : ... .. . ... : ... .. . ... ...
ROW F1 : ... .. 6 ... ... ... : ... .. 6 ... ... ... : ... .. . ... : ... .. . ... : ... .. . ... ...
ROW F2 : ... .. 5 ... ... ... : ... .. 5 ... ... ... : C#3 00 . ... : C-# 00 E ... : ... .. . ... ...
ROW F3 : ... .. 4 ... ... ... : ... .. 4 ... ... ... : ... .. . ... : ... .. 0 ... : ... .. . ... ...
ROW F4 : ... .. 3 ... ... ... : ... .. 3 ... ... ... : ... .. . ... : ... .. . ... : ... .. . ... ...
ROW F5 : ... .. 2 ... ... ... : ... .. 2 ... ... ... : ... .. . ... : ... .. . ... : ... .. . ... ...
ROW F6 : ... .. 1 ... ... ... : ... .. 1 ... ... ... : ... .. . ... : ... .. . ... : ... .. . ... ...
ROW F7 : ... .. . ... ... ... : ... .. . ... ... ... : ... .. . ... : ... .. . ... : ... .. . ... ...
ROW F8 : C-4 00 B P81 ... ... : G-4 00 B P81 ... ... : D#3 00 . ... : D-# 00 6 ... : ... .. . ... ...
ROW F9 : ... .. A ... ... ... : ... .. A ... ... ... : ... .. . ... : ... .. . ... : ... .. . ... ...
ROW FA : ... .. 9 ... ... ... : ... .. 9 ... ... ... : ... .. . ... : ... .. . ... : ... .. . ... ...
ROW FB : ... .. 8 ... ... ... : ... .. 8 ... ... ... : ... .. . ... : ... .. . ... : ... .. . ... ...
ROW FC : ... .. 7 ... ... ... : ... .. 7 ... ... ... : ... .. . ... : ... .. . ... : ... .. . ... ...
ROW FD : ... .. 6 ... ... ... : ... .. 6 ... ... ... : ... .. . ... : ... .. 0 ... : ... .. . ... ...
ROW FE : ... .. 1 ... ... ... : ... .. 1 ... ... ... : ... .. . ... : ... .. . ... : ... .. . ... ...
ROW FF : ... .. . ... ... ... : ... .. . ... ... ... : ... .. . ... : ... .. . ... : ... .. . ... ...

PATTERN 1A
ROW 00 : ... .. . ... ... ... : ... .. . ... ... ... : ... .. . ... : ... .. . ... : ... .. . ... ...
ROW 01 : ... .. . ... ... ... : ... .. . ... ... ... : --- .. . ... : ... .. . ... : ... .. . ... ...
ROW 02 : ... .. . ... ... ... : ... .. . ... ... ... : ... .. . ... : ... .. . ... : ... .. . ... ...
ROW 03 : ... .. . ... ... ... : ... .. . ... ... ... : ... .. . ... : ... .. . ... : ... .. . ... ...
ROW 04 : ... .. . ... ... ... : ... .. . ... ... ... : ... .. . ... : ... .. . ... : ... .. . ... ...
ROW 05 : ... .. . ... ... ... : ... .. . ... ... ... : ... .. . ... : ... .. . ... : ... .. . ... ...
ROW 06 : ... .. . ... ... ... : ... .. . ... ... ... : ... .. . ... : ... .. . ... : ... .. . ... ...
ROW 07 : ... .. . ... ... ... : ... .. . ... ... ... : ... .. . ... : ... .. . ... : ... .. . ... ...
ROW 08 : ... .. . ... ... ... : ... .. . ... ... ... : ... .. . ... : ... .. . ... : ... .. . ... ...
ROW 09 : ... .. . ... ... ... : ... .. . ... ... ... : ... .. . ... : ... .. . ... : ... .. . ... ...
ROW 0A : D#4 00 B P81 ... ... : G#4 00 B P80 ... ... : G-3 00 . ... : C-# 00 E ... : ... .. . ... ...
ROW 0B : ... .. A ... ... ... : ... .. A ... ... ... : ... .. . ... : ... .. 0 ... : ... .. . ... ...
ROW 0C : ... .. 9 ... ... ... : ... .. 9 ... ... ... : ... .. . ... : ... .. . ... : ... .. . ... ...
ROW 0D : ... .. 8 ... ... ... : ... .. 8 ... ... ... : ... .. . ... : ... .. . ... : ... .. . ... ...
ROW 0E : ... .. 7 ... ... ... : ... .. 7 ... ... ... : ... .. . ... : ... .. . ... : ... .. . ... ...
ROW 0F : ... .. 6 ... ... ... : ... .. 6 ... ... ... : ... .. . ... : ... .. . ... : ... .. . ... ...
ROW 10 : ... .. 5 ... ... ... : ... .. 5 ... ... ... : G#3 00 . ... : D-# 00 6 ... : ... .. . ... ...
ROW 11 : ... .. 4 ... ... ... : ... .. 4 ... ... ... : ... .. . ... : ... .. . ... : ... .. . ... ...
ROW 12 : ... .. 3 ... ... ... : ... .. 3 ... ... ... : ... .. . ... : ... .. . ... : ... .. . ... ...
ROW 13 : ... .. 2 ... ... ... : ... .. 2 ... ... ... : ... .. . ... : ... .. . ... : ... .. . ... ...
ROW 14 : ... .. 1 ... ... ... : ... .. 1 ... ... ... : ... .. . ... : ... .. . ... : ... .. . ... ...
ROW 15 : ... .. . ... ... ... : ... .. . ... ... ... : ... .. . ... : ... .. 0 ... : ... .. . ... ...
ROW 16 : ... .. . ... ... ... : ... .. . ... ... ... : ... .. . ... : ... .. . ... : ... .. . ... ...
ROW 17 : ... .. . ... ... ... : ... .. . ... ... ... : ... .. . ... : ... .. . ... : ... .. . ... ...
ROW 18 : ... .. . ... ... ... : ... .. . ... ... ... : ... .. . ... : ... .. . ... : ... .. . ... ...
ROW 19 : ... .. . ... ... ... : ... .. . ... ... ... : --- .. . ... : ... .. . ... : ... .. . ... ...
ROW 1A : ... .. . ... ... ... : ... .. . ... ... ... : ... .. . ... : ... .. . ... : ... .. . ... ...
ROW 1B : ... .. . ... ... ... : ... .. . ... ... ... : ... .. . ... : ... .. . ... : ... .. . ... ...
ROW 1C : ... .. . ... ... ... : ... .. . ... ... ... : ... .. . ... : ... .. . ... : ... .. . ... ...
ROW 1D : ... .. . ... ... ... : ... .. . ... ... ... : ... .. . ... : ... .. . ... : ... .. . ... ...
ROW 1E : ... .. . ... ... ... : ... .. . ... ... ... : ... .. . ... : ... .. . ... : ... .. . ... ...
ROW 1F : ... .. . ... ... ... : ... .. . ... ... ... : ... .. . ... : ... .. . ... : ... .. . ... ...
ROW 20 : ... .. . ... ... ... : ... .. . ... ... ... : ... .. . ... : ... .. . ... : ... .. . ... ...
ROW 21 : ... .. . ... ... ... : ... .. . ... ... ... : ... .. . ... : ... .. . ... : ... .. . ... ...
ROW 22 : ... .. . ... ... ... : ... .. . ... ... ... : G-3 00 . ... : C-# 00 E ... : ... .. . ... ...
ROW 23 : ... .. . ... ... ... : ... .. . ... ... ... : ... .. . ... : ... .. 0 ... : ... .. . ... ...
ROW 24 : ... .. . ... ... ... : ... .. . ... ... ... : ... .. . ... : ... .. . ... : ... .. . ... ...
ROW 25 : ... .. . ... ... ... : ... .. . ... ... ... : ... .. . ... : ... .. . ... : ... .. . ... ...
ROW 26 : ... .. . ... ... ... : ... .. . ... ... ... : ... .. . ... : ... .. . ... : ... .. . ... ...
ROW 27 : ... .. . ... ... ... : ... .. . ... ... ... : ... .. . ... : ... .. . ... : ... .. . ... ...
ROW 28 : D#4 00 B P81 ... ... : G#4 00 B P80 ... ... : D#3 00 . ... : D-# 00 6 ... : ... .. . ... ...
ROW 29 : ... .. A ... ... ... : ... .. A ... ... ... : ... .. . ... : ... .. . ... : ... .. . ... ...
ROW 2A : ... .. 9 ... ... ... : ... .. 9 ... ... ... : ... .. . ... : ... .. . ... : ... .. . ... ...
ROW 2B : ... .. 8 ... ... ... : ... .. 8 ... ... ... : ... .. . ... : ... .. . ... : ... .. . ... ...
ROW 2C : ... .. 7 ... ... ... : ... .. 7 ... ... ... : ... .. . ... : ... .. . ... : ... .. . ... ...
ROW 2D : ... .. 6 ... ... ... : ... .. 6 ... ... ... : ... .. . ... : ... .. 0 ... : ... .. . ... ...
ROW 2E : ... .. 1 ... ... ... : ... .. 1 ... ... ... : ... .. . ... : ... .. . ... : ... .. . ... ...
ROW 2F : ... .. . ... ... ... : ... .. . ... ... ... : ... .. . ... : ... .. . ... : ... .. . ... ...
ROW 30 : ... .. . ... ... ... : ... .. . ... ... ... : ... .. . ... : ... .. . ... : ... .. . ... ...
ROW 31 : ... .. . ... ... ... : ... .. . ... ... ... : --- .. . ... : ... .. . ... : ... .. . ... ...
ROW 32 : ... .. . ... ... ... : ... .. . ... ... ... : ... .. . ... : ... .. . ... : ... .. . ... ...
ROW 33 : ... .. . ... ... ... : ... .. . ... ... ... : ... .. . ... : ... .. . ... : ... .. . ... ...
ROW 34 : C-4 00 B P81 ... ... : G-4 00 B P81 ... ... : ... .. . ... : ... .. . ... : ... .. . ... ...
ROW 35 : ... .. A ... ... ... : ... .. A ... ... ... : ... .. . ... : ... .. . ... : ... .. . ... ...
ROW 36 : ... .. 9 ... ... ... : ... .. 9 ... ... ... : ... .. . ... : ... .. . ... : ... .. . ... ...
ROW 37 : ... .. 8 ... ... ... : ... .. 8 ... ... ... : ... .. . ... : ... .. . ... : ... .. . ... ...
ROW 38 : ... .. 7 ... ... ... : ... .. 7 ... ... ... : ... .. . ... : ... .. . ... : ... .. . ... ...
ROW 39 : ... .. 6 ... ... ... : ... .. 6 ... ... ... : ... .. . ... : ... .. . ... : ... .. . ... ...
ROW 3A : G#3 00 B P80 ... ... : D#4 00 B P81 ... ... : C-3 00 . ... : C-# 00 E ... : ... .. . ... ...
ROW 3B : ... .. A ... ... ... : ... .. A ... ... ... : ... .. . ... : ... .. 0 ... : ... .. . ... ...
ROW 3C : ... .. 9 ... ... ... : ... .. 9 ... ... ... : ... .. . ... : ... .. . ... : ... .. . ... ...
ROW 3D : ... .. 8 ... ... ... : ... .. 8 ... ... ... : ... .. . ... : ... .. . ... : ... .. . ... ...
ROW 3E : ... .. 7 ... ... ... : ... .. 7 ... ... ... : ... .. . ... : ... .. . ... : ... .. . ... ...
ROW 3F : ... .. 6 ... ... ... : ... .. 6 ... ... ... : ... .. . ... : ... .. . ... : ... .. . ... ...
ROW 40 : F#3 00 B P80 ... ... : C#4 00 B P80 ... ... : C#3 00 . ... : D-# 00 6 ... : ... .. . ... ...
ROW 41 : ... .. A ... ... ... : ... .. A ... ... ... : ... .. . ... : ... .. . ... : ... .. . ... ...
ROW 42 : ... .. 9 ... ... ... : ... .. 9 ... ... ... : ... .. . ... : ... .. . ... : ... .. . ... ...
ROW 43 : ... .. 8 ... ... ... : ... .. 8 ... ... ... : ... .. . ... : ... .. . ... : ... .. . ... ...
ROW 44 : ... .. 7 ... ... ... : ... .. 7 ... ... ... : ... .. . ... : ... .. . ... : ... .. . ... ...
ROW 45 : ... .. 6 ... ... ... : ... .. 6 ... ... ... : ... .. . ... : ... .. 0 ... : ... .. . ... ...
ROW 46 : ... .. 1 ... ... ... : ... .. 1 ... ... ... : ... .. . ... : ... .. . ... : ... .. . ... ...
ROW 47 : ... .. . ... ... ... : ... .. . ... ... ... : ... .. . ... : ... .. . ... : ... .. . ... ...
ROW 48 : ... .. . ... ... ... : ... .. . ... ... ... : ... .. . ... : ... .. . ... : ... .. . ... ...
ROW 49 : ... .. . ... ... ... : ... .. . ... ... ... : --- .. . ... : ... .. . ... : ... .. . ... ...
ROW 4A : ... .. . ... ... ... : ... .. . ... ... ... : ... .. . ... : ... .. . ... : ... .. . ... ...
ROW 4B : ... .. . ... ... ... : ... .. . ... ... ... : ... .. . ... : ... .. . ... : ... .. . ... ...
ROW 4C : G-3 00 B P80 ... ... : D#4 00 B P81 ... ... : ... .. . ... : ... .. . ... : ... .. . ... ...
ROW 4D : ... .. A ... ... ... : ... .. A ... ... ... : ... .. . ... : ... .. . ... : ... .. . ... ...
ROW 4E : ... .. 9 ... ... ... : ... .. 9 ... ... ... : ... .. . ... : ... .. . ... : ... .. . ... ...
ROW 4F : ... .. 8 ... ... ... : ... .. 8 ... ... ... : ... .. . ... : ... .. . ... : ... .. . ... ...
ROW 50 : ... .. 7 ... ... ... : ... .. 7 ... ... ... : ... .. . ... : ... .. . ... : ... .. . ... ...
ROW 51 : ... .. 6 ... ... ... : ... .. 6 ... ... ... : ... .. . ... : ... .. . ... : ... .. . ... ...
ROW 52 : F#3 00 B P80 ... ... : C#4 00 B P80 ... ... : D#3 00 . ... : C-# 00 E ... : ... .. . ... ...
ROW 53 : ... .. A ... ... ... : ... .. A ... ... ... : ... .. . ... : ... .. 0 ... : ... .. . ... ...
ROW 54 : ... .. 9 ... ... ... : ... .. 9 ... ... ... : ... .. . ... : ... .. . ... : ... .. . ... ...
ROW 55 : ... .. 8 ... ... ... : ... .. 8 ... ... ... : ... .. . ... : ... .. . ... : ... .. . ... ...
ROW 56 : ... .. 7 ... ... ... : ... .. 7 ... ... ... : ... .. . ... : ... .. . ... : ... .. . ... ...
ROW 57 : ... .. 6 ... ... ... : ... .. 6 ... ... ... : ... .. . ... : ... .. . ... : ... .. . ... ...
ROW 58 : F#3 00 B P80 ... ... : C#4 00 B P80 ... ... : F#3 00 . ... : D-# 00 6 ... : ... .. . ... ...
ROW 59 : ... .. A ... ... ... : ... .. A ... ... ... : ... .. . ... : ... .. . ... : ... .. . ... ...
ROW 5A : ... .. 9 ... ... ... : ... .. 9 ... ... ... : ... .. . ... : ... .. . ... : ... .. . ... ...
ROW 5B : ... .. 8 ... ... ... : ... .. 8 ... ... ... : ... .. . ... : ... .. . ... : ... .. . ... ...
ROW 5C : ... .. 7 ... ... ... : ... .. 7 ... ... ... : ... .. . ... : ... .. . ... : ... .. . ... ...
ROW 5D : ... .. 6 ... ... ... : ... .. 6 ... ... ... : ... .. . ... : ... .. 0 ... : ... .. . ... ...
ROW 5E : ... .. 1 ... ... ... : ... .. 1 ... ... ... : ... .. . ... : ... .. . ... : ... .. . ... ...
ROW 5F : ... .. . ... ... ... : ... .. . ... ... ... : ... .. . ... : ... .. . ... : ... .. . ... ...
ROW 60 : ... .. . ... ... ... : ... .. . ... ... ... : ... .. . ... : ... .. . ... : ... .. . ... ...
ROW 61 : ... .. . ... ... ... : ... .. . ... ... ... : --- .. . ... : ... .. . ... : ... .. . ... ...
ROW 62 : ... .. . ... ... ... : ... .. . ... ... ... : ... .. . ... : ... .. . ... : ... .. . ... ...
ROW 63 : ... .. . ... ... ... : ... .. . ... ... ... : ... .. . ... : ... .. . ... : ... .. . ... ...
ROW 64 : C#3 00 B P80 ... ... : G#3 00 B P80 ... ... : ... .. . ... : ... .. . ... : ... .. . ... ...
ROW 65 : ... .. A ... ... ... : ... .. A ... ... ... : ... .. . ... : ... .. . ... : ... .. . ... ...
ROW 66 : ... .. 9 ... ... ... : ... .. 9 ... ... ... : ... .. . ... : ... .. . ... : ... .. . ... ...
ROW 67 : ... .. 8 ... ... ... : ... .. 8 ... ... ... : ... .. . ... : ... .. . ... : ... .. . ... ...
ROW 68 : ... .. 7 ... ... ... : ... .. 7 ... ... ... : ... .. . ... : ... .. . ... : ... .. . ... ...
ROW 69 : ... .. 6 ... ... ... : ... .. 6 ... ... ... : ... .. . ... : ... .. . ... : ... .. . ... ...
ROW 6A : ... .. 1 ... ... ... : ... .. 1 ... ... ... : G#2 00 . P7F : C-# 00 E ... : ... .. . ... ...
ROW 6B : ... .. . ... ... ... : ... .. . ... ... ... : ... .. . ... : ... .. 0 ... : ... .. . ... ...
ROW 6C : ... .. . ... ... ... : ... .. . ... ... ... : ... .. . ... : ... .. . ... : ... .. . ... ...
ROW 6D : ... .. . ... ... ... : ... .. . ... ... ... : ... .. . ... : ... .. . ... : ... .. . ... ...
ROW 6E : ... .. . ... ... ... : ... .. . ... ... ... : ... .. . ... : ... .. . ... : ... .. . ... ...
ROW 6F : ... .. . ... ... ... : ... .. . ... ... ... : ... .. . ... : ... .. . ... : ... .. . ... ...
ROW 70 : ... .. 5 ... ... ... : ... .. 5 ... ... ... : C#3 00 . P80 : D-# 00 6 ... : ... .. . ... ...
ROW 71 : ... .. 4 ... ... ... : ... .. 4 ... ... ... : ... .. . ... : ... .. . ... : ... .. . ... ...
ROW 72 : ... .. 3 ... ... ... : ... .. 3 ... ... ... : ... .. . ... : ... .. . ... : ... .. . ... ...
ROW 73 : ... .. 2 ... ... ... : ... .. 2 ... ... ... : ... .. . ... : ... .. . ... : ... .. . ... ...
ROW 74 : ... .. 1 ... ... ... : ... .. 1 ... ... ... : ... .. . ... : ... .. . ... : ... .. . ... ...
ROW 75 : ... .. . ... ... ... : ... .. . ... ... ... : ... .. . ... : ... .. 0 ... : ... .. . ... ...
ROW 76 : ... .. . ... ... ... : ... .. . ... ... ... : --- .. . ... : ... .. . ... : ... .. . ... ...
ROW 77 : ... .. . ... ... ... : ... .. . ... ... ... : ... .. . ... : ... .. . ... : ... .. . ... ...
ROW 78 : ... .. . ... ... ... : ... .. . ... ... ... : ... .. . ... : ... .. . ... : ... .. . ... ...
ROW 79 : ... .. . ... ... ... : ... .. . ... ... ... : ... .. . ... : ... .. . ... : ... .. . ... ...
ROW 7A : ... .. . ... ... ... : ... .. . ... ... ... : ... .. . ... : ... .. . ... : ... .. . ... ...
ROW 7B : ... .. . ... ... ... : ... .. . ... ... ... : ... .. . ... : ... .. . ... : ... .. . ... ...
ROW 7C : C#3 00 B P80 ... ... : G#3 00 B P80 ... ... : D#3 00 . ... : ... .. . ... : ... .. . ... ...
ROW 7D : ... .. A ... ... ... : ... .. A ... ... ... : ... .. . ... : ... .. . ... : ... .. . ... ...
ROW 7E : ... .. 9 ... ... ... : ... .. 9 ... ... ... : ... .. . ... : ... .. . ... : ... .. . ... ...
ROW 7F : ... .. 8 ... ... ... : ... .. 8 ... ... ... : ... .. . ... : ... .. . ... : ... .. . ... ...
ROW 80 : F#3 00 B P80 ... ... : C#4 00 B P80 ... ... : ... .. . ... : ... .. . ... : ... .. . ... ...
ROW 81 : ... .. A ... ... ... : ... .. A ... ... ... : ... .. . ... : ... .. . ... : ... .. . ... ...
ROW 82 : ... .. 9 ... ... ... : ... .. 9 ... ... ... : C-3 00 . ... : C-# 00 E ... : ... .. . ... ...
ROW 83 : ... .. 8 ... ... ... : ... .. 8 ... ... ... : ... .. . ... : ... .. 0 ... : ... .. . ... ...
ROW 84 : C#3 00 B P80 ... ... : G#3 00 B P80 ... ... : ... .. . ... : ... .. . ... : ... .. . ... ...
ROW 85 : ... .. A ... ... ... : ... .. A ... ... ... : ... .. . ... : ... .. . ... : ... .. . ... ...
ROW 86 : ... .. 9 ... ... ... : ... .. 9 ... ... ... : ... .. . ... : ... .. . ... : ... .. . ... ...
ROW 87 : ... .. 8 ... ... ... : ... .. 8 ... ... ... : ... .. . ... : ... .. . ... : ... .. . ... ...
ROW 88 : F#3 00 B P80 ... ... : G#3 00 B P80 ... ... : B-2 00 . ... : D-# 00 6 ... : ... .. . ... ...
ROW 89 : ... .. A ... ... ... : ... .. A ... ... ... : ... .. . ... : ... .. . ... : ... .. . ... ...
ROW 8A : ... .. 9 ... ... ... : ... .. 9 ... ... ... : ... .. . ... : ... .. . ... : ... .. . ... ...
ROW 8B : ... .. 8 ... ... ... : ... .. 8 ... ... ... : ... .. . ... : ... .. . ... : ... .. . ... ...
ROW 8C : C#3 00 B P80 ... ... : C#4 00 B P80 ... ... : ... .. . ... : ... .. . ... : ... .. . ... ...
ROW 8D : ... .. A ... ... ... : ... .. A ... ... ... : ... .. . ... : ... .. 0 ... : ... .. . ... ...
ROW 8E : ... .. 9 ... ... ... : ... .. 9 ... ... ... : ... .. . ... : ... .. . ... : ... .. . ... ...
ROW 8F : ... .. 8 ... ... ... : ... .. 8 ... ... ... : ... .. . ... : ... .. . ... : ... .. . ... ...
ROW 90 : F#3 00 B P80 ... ... : G#3 00 B P80 ... ... : ... .. . ... : ... .. . ... : ... .. . ... ...
ROW 91 : ... .. A ... ... ... : ... .. A ... ... ... : --- .. . ... : ... .. . ... : ... .. . ... ...
ROW 92 : ... .. 9 ... ... ... : ... .. 9 ... ... ... : ... .. . ... : ... .. . ... : ... .. . ... ...
ROW 93 : ... .. 8 ... ... ... : ... .. 8 ... ... ... : ... .. . ... : ... .. . ... : ... .. . ... ...
ROW 94 : C#3 00 B P80 ... ... : C#4 00 B P80 ... ... : ... .. . ... : ... .. . ... : ... .. . ... ...
ROW 95 : ... .. A ... ... ... : ... .. A ... ... ... : ... .. . ... : ... .. . ... : ... .. . ... ...
ROW 96 : ... .. 9 ... ... ... : ... .. 9 ... ... ... : ... .. . ... : ... .. . ... : ... .. . ... ...
ROW 97 : ... .. 8 ... ... ... : ... .. 8 ... ... ... : ... .. . ... : ... .. . ... : ... .. . ... ...
ROW 98 : F#3 00 B P80 ... ... : G#3 00 B P80 ... ... : ... .. . ... : ... .. . ... : ... .. . ... ...
ROW 99 : ... .. A ... ... ... : ... .. A ... ... ... : ... .. . ... : ... .. . ... : ... .. . ... ...
ROW 9A : ... .. 9 ... ... ... : ... .. 9 ... ... ... : G#2 00 . P7F : C-# 00 E ... : ... .. . ... ...
ROW 9B : ... .. 8 ... ... ... : ... .. 8 ... ... ... : ... .. . ... : ... .. 0 ... : ... .. . ... ...
ROW 9C : C#3 00 B P80 ... ... : C#4 00 B P80 ... ... : ... .. . ... : ... .. . ... : ... .. . ... ...
ROW 9D : ... .. A ... ... ... : ... .. A ... ... ... : ... .. . ... : ... .. . ... : ... .. . ... ...
ROW 9E : ... .. 9 ... ... ... : ... .. 9 ... ... ... : ... .. . ... : ... .. . ... : ... .. . ... ...
ROW 9F : ... .. 8 ... ... ... : ... .. 8 ... ... ... : ... .. . ... : ... .. . ... : ... .. . ... ...
ROW A0 : ... .. 5 ... ... ... : ... .. 5 ... ... ... : G-2 00 . P80 : D-# 00 6 ... : ... .. . ... ...
ROW A1 : ... .. 4 ... ... ... : ... .. 4 ... ... ... : ... .. . ... : ... .. . ... : ... .. . ... ...
ROW A2 : ... .. 3 ... ... ... : ... .. 3 ... ... ... : ... .. . ... : ... .. . ... : ... .. . ... ...
ROW A3 : ... .. 2 ... ... ... : ... .. 2 ... ... ... : ... .. . ... : ... .. . ... : ... .. . ... ...
ROW A4 : ... .. 1 ... ... ... : ... .. 1 ... ... ... : ... .. . ... : ... .. . ... : ... .. . ... ...
ROW A5 : ... .. . ... ... ... : ... .. . ... ... ... : ... .. . ... : ... .. 0 ... : ... .. . ... ...
ROW A6 : ... .. . ... ... ... : ... .. . ... ... ... : ... .. . ... : ... .. . ... : ... .. . ... ...
ROW A7 : ... .. . ... ... ... : ... .. . ... ... ... : ... .. . ... : ... .. . ... : ... .. . ... ...
ROW A8 : ... .. . ... ... ... : ... .. . ... ... ... : ... .. . ... : ... .. . ... : ... .. . ... ...
ROW A9 : ... .. . ... ... ... : ... .. . ... ... ... : --- .. . ... : ... .. . ... : ... .. . ... ...
ROW AA : ... .. . ... ... ... : ... .. . ... ... ... : ... .. . ... : ... .. . ... : ... .. . ... ...
ROW AB : ... .. . ... ... ... : ... .. . ... ... ... : ... .. . ... : ... .. . ... : ... .. . ... ...
ROW AC : G-3 00 B P80 ... ... : D#4 00 B P81 ... ... : ... .. . ... : ... .. . ... : ... .. . ... ...
ROW AD : ... .. A ... ... ... : ... .. A ... ... ... : ... .. . ... : ... .. . ... : ... .. . ... ...
ROW AE : ... .. 9 ... ... ... : ... .. 9 ... ... ... : ... .. . ... : ... .. . ... : ... .. . ... ...
ROW AF : ... .. 8 ... ... ... : ... .. 8 ... ... ... : ... .. . ... : ... .. . ... : ... .. . ... ...
ROW B0 : ... .. 7 ... ... ... : ... .. 7 ... ... ... : ... .. . ... : ... .. . ... : ... .. . ... ...
ROW B1 : ... .. 6 ... ... ... : ... .. 6 ... ... ... : ... .. . ... : ... .. . ... : ... .. . ... ...
ROW B2 : F-3 00 B P80 ... ... : C#4 00 B P80 ... ... : G-3 00 . ... : C-# 00 E ... : ... .. . ... ...
ROW B3 : ... .. A ... ... ... : ... .. A ... ... ... : ... .. . ... : ... .. 0 ... : ... .. . ... ...
ROW B4 : ... .. 9 ... ... ... : ... .. 9 ... ... ... : ... .. . ... : ... .. . ... : ... .. . ... ...
ROW B5 : ... .. 8 ... ... ... : ... .. 8 ... ... ... : ... .. . ... : ... .. . ... : ... .. . ... ...
ROW B6 : ... .. 7 ... ... ... : ... .. 7 ... ... ... : ... .. . ... : ... .. . ... : ... .. . ... ...
ROW B7 : ... .. 6 ... ... ... : ... .. 6 ... ... ... : ... .. . ... : ... .. . ... : ... .. . ... ...
ROW B8 : F-3 00 B P80 ... ... : C#4 00 B P80 ... ... : F-3 00 . ... : D-# 00 6 ... : ... .. . ... ...
ROW B9 : ... .. A ... ... ... : ... .. A ... ... ... : ... .. . ... : ... .. . ... : ... .. . ... ...
ROW BA : ... .. 9 ... ... ... : ... .. 9 ... ... ... : ... .. . ... : ... .. . ... : ... .. . ... ...
ROW BB : ... .. 8 ... ... ... : ... .. 8 ... ... ... : ... .. . ... : ... .. . ... : ... .. . ... ...
ROW BC : ... .. 7 ... ... ... : ... .. 7 ... ... ... : ... .. . ... : ... .. . ... : ... .. . ... ...
ROW BD : ... .. 6 ... ... ... : ... .. 6 ... ... ... : ... .. . ... : ... .. 0 ... : ... .. . ... ...
ROW BE : ... .. 1 ... ... ... : ... .. 1 ... ... ... : ... .. . ... : ... .. . ... : ... .. . ... ...
ROW BF : ... .. . ... ... ... : ... .. . ... ... ... : ... .. . ... : ... .. . ... : ... .. . ... ...
ROW C0 : ... .. . ... ... ... : ... .. . ... ... ... : ... .. . ... : ... .. . ... : ... .. . ... ...
ROW C1 : ... .. . ... ... ... : ... .. . ... ... ... : --- .. . ... : ... .. . ... : ... .. . ... ...
ROW C2 : ... .. . ... ... ... : ... .. . ... ... ... : ... .. . ... : ... .. . ... : ... .. . ... ...
ROW C3 : ... .. . ... ... ... : ... .. . ... ... ... : ... .. . ... : ... .. . ... : ... .. . ... ...
ROW C4 : G-3 00 B P80 ... ... : D#4 00 B P81 ... ... : ... .. . ... : ... .. . ... : ... .. . ... ...
ROW C5 : ... .. A ... ... ... : ... .. A ... ... ... : ... .. . ... : ... .. . ... : ... .. . ... ...
ROW C6 : ... .. 9 ... ... ... : ... .. 9 ... ... ... : ... .. . ... : ... .. . ... : ... .. . ... ...
ROW C7 : ... .. 8 ... ... ... : ... .. 8 ... ... ... : ... .. . ... : ... .. . ... : ... .. . ... ...
ROW C8 : ... .. 7 ... ... ... : ... .. 7 ... ... ... : ... .. . ... : ... .. . ... : ... .. . ... ...
ROW C9 : ... .. 6 ... ... ... : ... .. 6 ... ... ... : ... .. . ... : ... .. . ... : ... .. . ... ...
ROW CA : ... .. 1 ... ... ... : ... .. 1 ... ... ... : C#3 00 . ... : C-# 00 E ... : ... .. . ... ...
ROW CB : ... .. . ... ... ... : ... .. . ... ... ... : ... .. . ... : ... .. 0 ... : ... .. . ... ...
ROW CC : ... .. . ... ... ... : ... .. . ... ... ... : ... .. . ... : ... .. . ... : ... .. . ... ...
ROW CD : ... .. . ... ... ... : ... .. . ... ... ... : ... .. . ... : ... .. . ... : ... .. . ... ...
ROW CE : ... .. . ... ... ... : ... .. . ... ... ... : ... .. . ... : ... .. . ... : ... .. . ... ...
ROW CF : ... .. . ... ... ... : ... .. . ... ... ... : ... .. . ... : ... .. . ... : ... .. . ... ...
ROW D0 : ... .. 5 ... ... ... : ... .. 5 ... ... ... : B-2 00 . ... : D-# 00 6 ... : ... .. . ... ...
ROW D1 : ... .. 4 ... ... ... : ... .. 4 ... ... ... : ... .. . ... : ... .. . ... : ... .. . ... ...
ROW D2 : ... .. 3 ... ... ... : ... .. 3 ... ... ... : ... .. . ... : ... .. . ... : ... .. . ... ...
ROW D3 : ... .. 2 ... ... ... : ... .. 2 ... ... ... : ... .. . ... : ... .. . ... : ... .. . ... ...
ROW D4 : ... .. 1 ... ... ... : ... .. 1 ... ... ... : ... .. . ... : ... .. . ... : ... .. . ... ...
ROW D5 : ... .. . ... ... ... : ... .. . ... ... ... : ... .. . ... : ... .. 0 ... : ... .. . ... ...
ROW D6 : ... .. . ... ... ... : ... .. . ... ... ... : ... .. . ... : ... .. . ... : ... .. . ... ...
ROW D7 : ... .. . ... ... ... : ... .. . ... ... ... : ... .. . ... : ... .. . ... : ... .. . ... ...
ROW D8 : ... .. . ... ... ... : ... .. . ... ... ... : ... .. . ... : ... .. . ... : ... .. . ... ...
ROW D9 : ... .. . ... ... ... : ... .. . ... ... ... : --- .. . ... : ... .. . ... : ... .. . ... ...
ROW DA : ... .. . ... ... ... : ... .. . ... ... ... : ... .. . ... : ... .. . ... : ... .. . ... ...
ROW DB : ... .. . ... ... ... : ... .. . ... ... ... : ... .. . ... : ... .. . ... : ... .. . ... ...
ROW DC : B-3 00 B P80 ... ... : G-4 00 B P81 ... ... : ... .. . ... : ... .. . ... : ... .. . ... ...
ROW DD : ... .. A ... ... ... : ... .. A ... ... ... : ... .. . ... : ... .. . ... : ... .. . ... ...
ROW DE : ... .. 9 ... ... ... : ... .. 9 ... ... ... : ... .. . ... : ... .. . ... : ... .. . ... ...
ROW DF : ... .. 8 ... ... ... : ... .. 8 ... ... ... : ... .. . ... : ... .. . ... : ... .. . ... ...
ROW E0 : ... .. 7 ... ... ... : ... .. 7 ... ... ... : ... .. . ... : ... .. . ... : ... .. . ... ...
ROW E1 : ... .. 6 ... ... ... : ... .. 6 ... ... ... : ... .. . ... : ... .. . ... : ... .. . ... ...
ROW E2 : C-4 00 B P81 ... ... : G#4 00 B P80 ... ... : G-2 00 . ... : C-# 00 E ... : ... .. . ... ...
ROW E3 : ... .. A ... ... ... : ... .. A ... ... ... : ... .. . ... : ... .. 0 ... : ... .. . ... ...
ROW E4 : ... .. 9 ... ... ... : ... .. 9 ... ... ... : ... .. . ... : ... .. . ... : ... .. . ... ...
ROW E5 : ... .. 8 ... ... ... : ... .. 8 ... ... ... : ... .. . ... : ... .. . ... : ... .. . ... ...
ROW E6 : ... .. 7 ... ... ... : ... .. 7 ... ... ... : ... .. . ... : ... .. . ... : ... .. . ... ...
ROW E7 : ... .. 6 ... ... ... : ... .. 6 ... ... ... : ... .. . ... : ... .. . ... : ... .. . ... ...
ROW E8 : G-3 00 B P80 ... ... : D#4 00 B P81 ... ... : G#2 00 . P7F : D-# 00 6 ... : ... .. . ... ...
ROW E9 : ... .. A ... ... ... : ... .. A ... ... ... : ... .. . ... : ... .. . ... : ... .. . ... ...
ROW EA : ... .. 9 ... ... ... : ... .. 9 ... ... ... : ... .. . ... : ... .. . ... : ... .. . ... ...
ROW EB : ... .. 8 ... ... ... : ... .. 8 ... ... ... : ... .. . ... : ... .. . ... : ... .. . ... ...
ROW EC : ... .. 7 ... ... ... : ... .. 7 ... ... ... : ... .. . ... : ... .. . ... : ... .. . ... ...
ROW ED : ... .. 6 ... ... ... : ... .. 6 ... ... ... : ... .. . ... : ... .. 0 ... : ... .. . ... ...
ROW EE : ... .. 1 ... ... ... : ... .. 1 ... ... ... : ... .. . ... : ... .. . ... : ... .. . ... ...
ROW EF : ... .. . ... ... ... : ... .. . ... ... ... : ... .. . ... : ... .. . ... : ... .. . ... ...
ROW F0 : ... .. . ... ... ... : ... .. . ... ... ... : ... .. . ... : ... .. . ... : ... .. . ... ...
ROW F1 : ... .. . ... ... ... : ... .. . ... ... ... : --- .. . ... : ... .. . ... : ... .. . ... ...
ROW F2 : ... .. . ... ... ... : ... .. . ... ... ... : ... .. . ... : ... .. . ... : ... .. . ... ...
ROW F3 : ... .. . ... ... ... : ... .. . ... ... ... : ... .. . ... : ... .. . ... : ... .. . ... ...
ROW F4 : F-3 00 B P80 ... ... : C#4 00 B P80 ... ... : ... .. . ... : ... .. . ... : ... .. . ... ...
ROW F5 : ... .. A ... ... ... : ... .. A ... ... ... : ... .. . ... : ... .. . ... : ... .. . ... ...
ROW F6 : ... .. 9 ... ... ... : ... .. 9 ... ... ... : ... .. . ... : ... .. . ... : ... .. . ... ...
ROW F7 : ... .. 8 ... ... ... : ... .. 8 ... ... ... : ... .. . ... : ... .. . ... : ... .. . ... ...
ROW F8 : ... .. 7 ... ... ... : ... .. 7 ... ... ... : ... .. . ... : ... .. . ... : ... .. . ... ...
ROW F9 : ... .. 6 ... ... ... : ... .. 6 ... ... ... : ... .. . ... : ... .. . ... : ... .. . ... ...
ROW FA : D#3 00 B P80 ... ... : C-4 00 B P81 ... ... : B-2 00 . P80 : C-# 00 E ... : ... .. . ... ...
ROW FB : ... .. A ... ... ... : ... .. A ... ... ... : ... .. . ... : ... .. 0 ... : ... .. . ... ...
ROW FC : ... .. 9 ... ... ... : ... .. 9 ... ... ... : ... .. . ... : ... .. . ... : ... .. . ... ...
ROW FD : ... .. 8 ... ... ... : ... .. 8 ... ... ... : ... .. . ... : ... .. . ... : ... .. . ... ...
ROW FE : ... .. 7 ... ... ... : ... .. 7 ... ... ... : ... .. . ... : ... .. . ... : ... .. . ... ...
ROW FF : ... .. 6 ... ... ... : ... .. 6 ... ... ... : ... .. . ... : ... .. . ... : ... .. . ... ...

PATTERN 1B
ROW 00 : ... .. 5 ... ... ... : ... .. 5 ... ... ... : C-3 00 . ... : D-# 00 6 ... : ... .. . ... ...
ROW 01 : ... .. 4 ... ... ... : ... .. 4 ... ... ... : ... .. . ... : ... .. . ... : ... .. . ... ...
ROW 02 : ... .. 3 ... ... ... : ... .. 3 ... ... ... : ... .. . ... : ... .. . ... : ... .. . ... ...
ROW 03 : ... .. 2 ... ... ... : ... .. 2 ... ... ... : ... .. . ... : ... .. . ... : ... .. . ... ...
ROW 04 : ... .. 1 ... ... ... : ... .. 1 ... ... ... : ... .. . ... : ... .. . ... : ... .. . ... ...
ROW 05 : ... .. . ... ... ... : ... .. . ... ... ... : ... .. . ... : ... .. 0 ... : ... .. . ... ...
ROW 06 : ... .. . ... ... ... : ... .. . ... ... ... : ... .. . ... : ... .. . ... : ... .. . ... ...
ROW 07 : ... .. . ... ... ... : ... .. . ... ... ... : ... .. . ... : ... .. . ... : ... .. . ... ...
ROW 08 : ... .. . ... ... ... : ... .. . ... ... ... : ... .. . ... : ... .. . ... : ... .. . ... ...
ROW 09 : ... .. . ... ... ... : ... .. . ... ... ... : --- .. . ... : ... .. . ... : ... .. . ... ...
ROW 0A : ... .. . ... ... ... : ... .. . ... ... ... : ... .. . ... : ... .. . ... : ... .. . ... ...
ROW 0B : ... .. . ... ... ... : ... .. . ... ... ... : ... .. . ... : ... .. . ... : ... .. . ... ...
ROW 0C : D#3 00 B P80 ... ... : G-3 00 B P80 ... ... : ... .. . ... : ... .. . ... : ... .. . ... ...
ROW 0D : ... .. A ... ... ... : ... .. A ... ... ... : ... .. . ... : ... .. . ... : ... .. . ... ...
ROW 0E : ... .. 9 ... ... ... : ... .. 9 ... ... ... : ... .. . ... : ... .. . ... : ... .. . ... ...
ROW 0F : ... .. 8 ... ... ... : ... .. 8 ... ... ... : ... .. . ... : ... .. . ... : ... .. . ... ...
ROW 10 : C-4 00 B P81 ... ... : D#4 00 B P81 ... ... : ... .. . ... : ... .. . ... : ... .. . ... ...
ROW 11 : ... .. A ... ... ... : ... .. A ... ... ... : ... .. . ... : ... .. . ... : ... .. . ... ...
ROW 12 : ... .. 9 ... ... ... : ... .. 9 ... ... ... : C#3 00 . ... : C-# 00 E ... : ... .. . ... ...
ROW 13 : ... .. 8 ... ... ... : ... .. 8 ... ... ... : ... .. . ... : ... .. 0 ... : ... .. . ... ...
ROW 14 : D#3 00 B P80 ... ... : G-3 00 B P80 ... ... : ... .. . ... : ... .. . ... : ... .. . ... ...
ROW 15 : ... .. A ... ... ... : ... .. A ... ... ... : ... .. . ... : ... .. . ... : ... .. . ... ...
ROW 16 : ... .. 9 ... ... ... : ... .. 9 ... ... ... : ... .. . ... : ... .. . ... : ... .. . ... ...
ROW 17 : ... .. 8 ... ... ... : ... .. 8 ... ... ... : ... .. . ... : ... .. . ... : ... .. . ... ...
ROW 18 : D#3 00 B P80 ... ... : G-3 00 B P80 ... ... : C#3 00 . ... : D-# 00 6 ... : ... .. . ... ...
ROW 19 : ... .. A ... ... ... : ... .. A ... ... ... : ... .. . ... : ... .. . ... : ... .. . ... ...
ROW 1A : ... .. 9 ... ... ... : ... .. 9 ... ... ... : ... .. . ... : ... .. . ... : ... .. . ... ...
ROW 1B : ... .. 8 ... ... ... : ... .. 8 ... ... ... : ... .. . ... : ... .. . ... : ... .. . ... ...
ROW 1C : C-4 00 B P81 ... ... : D#4 00 B P81 ... ... : ... .. . ... : ... .. . ... : ... .. . ... ...
ROW 1D : ... .. A ... ... ... : ... .. A ... ... ... : ... .. . ... : ... .. 0 ... : ... .. . ... ...
ROW 1E : ... .. 9 ... ... ... : ... .. 9 ... ... ... : ... .. . ... : ... .. . ... : ... .. . ... ...
ROW 1F : ... .. 8 ... ... ... : ... .. 8 ... ... ... : ... .. . ... : ... .. . ... : ... .. . ... ...
ROW 20 : D#3 00 B P80 ... ... : G-3 00 B P80 ... ... : ... .. . ... : ... .. . ... : ... .. . ... ...
ROW 21 : ... .. A ... ... ... : ... .. A ... ... ... : --- .. . ... : ... .. . ... : ... .. . ... ...
ROW 22 : ... .. 9 ... ... ... : ... .. 9 ... ... ... : ... .. . ... : ... .. . ... : ... .. . ... ...
ROW 23 : ... .. 8 ... ... ... : ... .. 8 ... ... ... : ... .. . ... : ... .. . ... : ... .. . ... ...
ROW 24 : C-4 00 B P81 ... ... : D#4 00 B P81 ... ... : ... .. . ... : ... .. . ... : ... .. . ... ...
ROW 25 : ... .. A ... ... ... : ... .. A ... ... ... : ... .. . ... : ... .. . ... : ... .. . ... ...
ROW 26 : ... .. 9 ... ... ... : ... .. 9 ... ... ... : ... .. . ... : ... .. . ... : ... .. . ... ...
ROW 27 : ... .. 8 ... ... ... : ... .. 8 ... ... ... : ... .. . ... : ... .. . ... : ... .. . ... ...
ROW 28 : D#3 00 B P80 ... ... : G-3 00 B P80 ... ... : ... .. . ... : ... .. . ... : ... .. . ... ...
ROW 29 : ... .. A ... ... ... : ... .. A ... ... ... : ... .. . ... : ... .. . ... : ... .. . ... ...
ROW 2A : ... .. 9 ... ... ... : ... .. 9 ... ... ... : D-3 00 . ... : C-# 00 E ... : ... .. . ... ...
ROW 2B : ... .. 8 ... ... ... : ... .. 8 ... ... ... : ... .. . ... : ... .. 0 ... : ... .. . ... ...
ROW 2C : C-4 00 B P81 ... ... : D#4 00 B P81 ... ... : ... .. . ... : ... .. . ... : ... .. . ... ...
ROW 2D : ... .. A ... ... ... : ... .. A ... ... ... : ... .. . ... : ... .. . ... : ... .. . ... ...
ROW 2E : ... .. 9 ... ... ... : ... .. 9 ... ... ... : ... .. . ... : ... .. . ... : ... .. . ... ...
ROW 2F : ... .. 8 ... ... ... : ... .. 8 ... ... ... : ... .. . ... : ... .. . ... : ... .. . ... ...
ROW 30 : ... .. . ... ... ... : ... .. . ... ... ... : D#3 00 . ... : D-# 00 6 ... : ... .. . ... ...
ROW 31 : ... .. . ... ... ... : ... .. . ... ... ... : ... .. . ... : ... .. . ... : ... .. . ... ...
ROW 32 : ... .. . ... ... ... : ... .. . ... ... ... : ... .. . ... : ... .. . ... : ... .. . ... ...
ROW 33 : ... .. . ... ... ... : ... .. . ... ... ... : ... .. . ... : ... .. . ... : ... .. . ... ...
ROW 34 : ... .. . ... ... ... : ... .. . ... ... ... : ... .. . ... : ... .. . ... : ... .. . ... ...
ROW 35 : ... .. . ... ... ... : ... .. . ... ... ... : ... .. . ... : ... .. 0 ... : ... .. . ... ...
ROW 36 : ... .. . ... ... ... : ... .. . ... ... ... : --- .. . ... : ... .. . ... : ... .. . ... ...
ROW 37 : ... .. . ... ... ... : ... .. . ... ... ... : ... .. . ... : ... .. . ... : ... .. . ... ...
ROW 38 : ... .. . ... ... ... : ... .. . ... ... ... : ... .. . ... : ... .. . ... : ... .. . ... ...
ROW 39 : ... .. . ... ... ... : ... .. . ... ... ... : ... .. . ... : ... .. . ... : ... .. . ... ...
ROW 3A : ... .. . ... ... ... : ... .. . ... ... ... : ... .. . ... : ... .. . ... : ... .. . ... ...
ROW 3B : ... .. . ... ... ... : ... .. . ... ... ... : ... .. . ... : ... .. . ... : ... .. . ... ...
ROW 3C : B-3 00 5 P80 ... ... : G-4 00 5 P81 ... ... : B-2 00 . ... : ... .. . ... : ... .. . ... ...
ROW 3D : ... .. . ... ... ... : ... .. . ... ... ... : ... .. . ... : ... .. . ... : ... .. . ... ...
ROW 3E : ... .. 6 ... ... ... : ... .. 6 ... ... ... : ... .. . ... : ... .. . ... : ... .. . ... ...
ROW 3F : ... .. 8 ... ... ... : ... .. 8 ... ... ... : ... .. . ... : ... .. . ... : ... .. . ... ...
ROW 40 : ... .. 9 ... ... ... : ... .. 9 ... ... ... : ... .. . ... : ... .. . ... : ... .. . ... ...
ROW 41 : ... .. A ... ... ... : ... .. A ... ... ... : ... .. . ... : ... .. . ... : ... .. . ... ...
ROW 42 : ... .. 1 ... ... ... : ... .. 1 ... ... ... : G#2 00 . P7F : C-# 00 E ... : ... .. . ... ...
ROW 43 : ... .. . ... ... ... : ... .. . ... ... ... : ... .. . ... : ... .. 0 ... : ... .. . ... ...
ROW 44 : ... .. . ... ... ... : ... .. . ... ... ... : ... .. . ... : ... .. . ... : ... .. . ... ...
ROW 45 : ... .. . ... ... ... : ... .. . ... ... ... : ... .. . ... : ... .. . ... : ... .. . ... ...
ROW 46 : ... .. . ... ... ... : ... .. . ... ... ... : ... .. . ... : ... .. . ... : ... .. . ... ...
ROW 47 : ... .. . ... ... ... : ... .. . ... ... ... : ... .. . ... : ... .. . ... : ... .. . ... ...
ROW 48 : G-3 00 5 P80 ... ... : B-3 00 5 P80 ... ... : G-2 00 . P80 : D-# 00 6 ... : ... .. . ... ...
ROW 49 : ... .. . ... ... ... : ... .. . ... ... ... : ... .. . ... : ... .. . ... : ... .. . ... ...
ROW 4A : ... .. 6 ... ... ... : ... .. 6 ... ... ... : ... .. . ... : ... .. . ... : ... .. . ... ...
ROW 4B : ... .. 8 ... ... ... : ... .. 8 ... ... ... : ... .. . ... : ... .. . ... : ... .. . ... ...
ROW 4C : ... .. 9 ... ... ... : ... .. 9 ... ... ... : ... .. . ... : ... .. . ... : ... .. . ... ...
ROW 4D : ... .. A ... ... ... : ... .. A ... ... ... : ... .. . ... : ... .. 0 ... : ... .. . ... ...
ROW 4E : ... .. 1 ... ... ... : ... .. 1 ... ... ... : ... .. . ... : ... .. . ... : ... .. . ... ...
ROW 4F : ... .. . ... ... ... : ... .. . ... ... ... : ... .. . ... : ... .. . ... : ... .. . ... ...
ROW 50 : ... .. . ... ... ... : ... .. . ... ... ... : ... .. . ... : ... .. . ... : ... .. . ... ...
ROW 51 : ... .. . ... ... ... : ... .. . ... ... ... : --- .. . ... : ... .. . ... : ... .. . ... ...
ROW 52 : ... .. . ... ... ... : ... .. . ... ... ... : ... .. . ... : ... .. . ... : ... .. . ... ...
ROW 53 : ... .. . ... ... ... : ... .. . ... ... ... : ... .. . ... : ... .. . ... : ... .. . ... ...
ROW 54 : F-3 00 5 P80 ... ... : G#3 00 5 P80 ... ... : ... .. . ... : ... .. . ... : ... .. . ... ...
ROW 55 : ... .. . ... ... ... : ... .. . ... ... ... : ... .. . ... : ... .. . ... : ... .. . ... ...
ROW 56 : ... .. 6 ... ... ... : ... .. 6 ... ... ... : ... .. . ... : ... .. . ... : ... .. . ... ...
ROW 57 : ... .. 8 ... ... ... : ... .. 8 ... ... ... : ... .. . ... : ... .. . ... : ... .. . ... ...
ROW 58 : ... .. 9 ... ... ... : ... .. 9 ... ... ... : ... .. . ... : ... .. . ... : ... .. . ... ...
ROW 59 : ... .. A ... ... ... : ... .. A ... ... ... : ... .. . ... : ... .. . ... : ... .. . ... ...
ROW 5A : ... .. 1 ... ... ... : ... .. 1 ... ... ... : B-2 00 . ... : C-# 00 E ... : ... .. . ... ...
ROW 5B : ... .. . ... ... ... : ... .. . ... ... ... : ... .. . ... : ... .. 0 ... : ... .. . ... ...
ROW 5C : ... .. . ... ... ... : ... .. . ... ... ... : ... .. . ... : ... .. . ... : ... .. . ... ...
ROW 5D : ... .. . ... ... ... : ... .. . ... ... ... : ... .. . ... : ... .. . ... : ... .. . ... ...
ROW 5E : ... .. . ... ... ... : ... .. . ... ... ... : ... .. . ... : ... .. . ... : ... .. . ... ...
ROW 5F : ... .. . ... ... ... : ... .. . ... ... ... : ... .. . ... : ... .. . ... : ... .. . ... ...
ROW 60 : ... .. . ... ... ... : ... .. . ... ... ... : C-3 00 . ... : D-# 00 6 ... : ... .. . ... ...
ROW 61 : ... .. . ... ... ... : ... .. . ... ... ... : ... .. . ... : ... .. . ... : ... .. . ... ...
ROW 62 : ... .. . ... ... ... : ... .. . ... ... ... : ... .. . ... : ... .. . ... : ... .. . ... ...
ROW 63 : ... .. . ... ... ... : ... .. . ... ... ... : ... .. . ... : ... .. . ... : ... .. . ... ...
ROW 64 : ... .. . ... ... ... : ... .. . ... ... ... : ... .. . ... : ... .. . ... : ... .. . ... ...
ROW 65 : ... .. . ... ... ... : ... .. . ... ... ... : ... .. . ... : ... .. 0 ... : ... .. . ... ...
ROW 66 : ... .. . ... ... ... : ... .. . ... ... ... : ... .. . ... : ... .. . ... : ... .. . ... ...
ROW 67 : ... .. . ... ... ... : ... .. . ... ... ... : ... .. . ... : ... .. . ... : ... .. . ... ...
ROW 68 : ... .. . ... ... ... : ... .. . ... ... ... : ... .. . ... : ... .. . ... : ... .. . ... ...
ROW 69 : ... .. . ... ... ... : ... .. . ... ... ... : --- .. . ... : ... .. . ... : ... .. . ... ...
ROW 6A : ... .. . ... ... ... : ... .. . ... ... ... : ... .. . ... : ... .. . ... : ... .. . ... ...
ROW 6B : ... .. . ... ... ... : ... .. . ... ... ... : ... .. . ... : ... .. . ... : ... .. . ... ...
ROW 6C : G-3 00 B P80 ... ... : D#4 00 B P81 ... ... : ... .. . ... : ... .. . ... : ... .. . ... ...
ROW 6D : ... .. A ... ... ... : ... .. A ... ... ... : ... .. . ... : ... .. . ... : ... .. . ... ...
ROW 6E : ... .. 9 ... ... ... : ... .. 9 ... ... ... : ... .. . ... : ... .. . ... : ... .. . ... ...
ROW 6F : ... .. 8 ... ... ... : ... .. 8 ... ... ... : ... .. . ... : ... .. . ... : ... .. . ... ...
ROW 70 : ... .. 7 ... ... ... : ... .. 7 ... ... ... : ... .. . ... : ... .. . ... : ... .. . ... ...
ROW 71 : ... .. 6 ... ... ... : ... .. 6 ... ... ... : ... .. . ... : ... .. . ... : ... .. . ... ...
ROW 72 : ... .. 5 ... ... ... : ... .. 5 ... ... ... : C#3 00 . ... : C-# 00 E ... : ... .. . ... ...
ROW 73 : ... .. 4 ... ... ... : ... .. 4 ... ... ... : ... .. . ... : ... .. 0 ... : ... .. . ... ...
ROW 74 : ... .. 3 ... ... ... : ... .. 3 ... ... ... : ... .. . ... : ... .. . ... : ... .. . ... ...
ROW 75 : ... .. 2 ... ... ... : ... .. 2 ... ... ... : ... .. . ... : ... .. . ... : ... .. . ... ...
ROW 76 : ... .. 1 ... ... ... : ... .. 1 ... ... ... : ... .. . ... : ... .. . ... : ... .. . ... ...
ROW 77 : ... .. . ... ... ... : ... .. . ... ... ... : ... .. . ... : ... .. . ... : ... .. . ... ...
ROW 78 : C-4 00 B P81 ... ... : G-4 00 B P81 ... ... : D#3 00 . ... : D-# 00 6 ... : ... .. . ... ...
ROW 79 : ... .. A ... ... ... : ... .. A ... ... ... : ... .. . ... : ... .. . ... : ... .. . ... ...
ROW 7A : ... .. 9 ... ... ... : ... .. 9 ... ... ... : ... .. . ... : ... .. . ... : ... .. . ... ...
ROW 7B : ... .. 8 ... ... ... : ... .. 8 ... ... ... : ... .. . ... : ... .. . ... : ... .. . ... ...
ROW 7C : ... .. 7 ... ... ... : ... .. 7 ... ... ... : ... .. . ... : ... .. . ... : ... .. . ... ...
ROW 7D : ... .. 6 ... ... ... : ... .. 6 ... ... ... : ... .. . ... : ... .. 0 ... : ... .. . ... ...
ROW 7E : ... .. 1 ... ... ... : ... .. 1 ... ... ... : ... .. . ... : ... .. . ... : ... .. . ... ...
ROW 7F : ... .. . ... ... ... : ... .. . ... ... ... : ... .. . ... : ... .. . ... : ... .. . ... ...
ROW 80 : ... .. . ... ... ... : ... .. . ... ... ... : ... .. . ... : ... .. . ... : ... .. . ... ...
ROW 81 : ... .. . ... ... ... : ... .. . ... ... ... : --- .. . ... : ... .. . ... : ... .. . ... ...
ROW 82 : ... .. . ... ... ... : ... .. . ... ... ... : ... .. . ... : ... .. . ... : ... .. . ... ...
ROW 83 : ... .. . ... ... ... : ... .. . ... ... ... : ... .. . ... : ... .. . ... : ... .. . ... ...
ROW 84 : ... .. . ... ... ... : ... .. . ... ... ... : ... .. . ... : ... .. . ... : ... .. . ... ...
ROW 85 : ... .. . ... ... ... : ... .. . ... ... ... : ... .. . ... : ... .. . ... : ... .. . ... ...
ROW 86 : ... .. . ... ... ... : ... .. . ... ... ... : ... .. . ... : ... .. . ... : ... .. . ... ...
ROW 87 : ... .. . ... ... ... : ... .. . ... ... ... : ... .. . ... : ... .. . ... : ... .. . ... ...
ROW 88 : ... .. . ... ... ... : ... .. . ... ... ... : ... .. . ... : ... .. . ... : ... .. . ... ...
ROW 89 : ... .. . ... ... ... : ... .. . ... ... ... : ... .. . ... : ... .. . ... : ... .. . ... ...
ROW 8A : D#4 00 B P81 ... ... : G#4 00 B P80 ... ... : G-3 00 . ... : C-# 00 E ... : ... .. . ... ...
ROW 8B : ... .. A ... ... ... : ... .. A ... ... ... : ... .. . ... : ... .. 0 ... : ... .. . ... ...
ROW 8C : ... .. 9 ... ... ... : ... .. 9 ... ... ... : ... .. . ... : ... .. . ... : ... .. . ... ...
ROW 8D : ... .. 8 ... ... ... : ... .. 8 ... ... ... : ... .. . ... : ... .. . ... : ... .. . ... ...
ROW 8E : ... .. 7 ... ... ... : ... .. 7 ... ... ... : ... .. . ... : ... .. . ... : ... .. . ... ...
ROW 8F : ... .. 6 ... ... ... : ... .. 6 ... ... ... : ... .. . ... : ... .. . ... : ... .. . ... ...
ROW 90 : ... .. 5 ... ... ... : ... .. 5 ... ... ... : G#3 00 . ... : D-# 00 6 ... : ... .. . ... ...
ROW 91 : ... .. 4 ... ... ... : ... .. 4 ... ... ... : ... .. . ... : ... .. . ... : ... .. . ... ...
ROW 92 : ... .. 3 ... ... ... : ... .. 3 ... ... ... : ... .. . ... : ... .. . ... : ... .. . ... ...
ROW 93 : ... .. 2 ... ... ... : ... .. 2 ... ... ... : ... .. . ... : ... .. . ... : ... .. . ... ...
ROW 94 : ... .. 1 ... ... ... : ... .. 1 ... ... ... : ... .. . ... : ... .. . ... : ... .. . ... ...
ROW 95 : ... .. . ... ... ... : ... .. . ... ... ... : ... .. . ... : ... .. 0 ... : ... .. . ... ...
ROW 96 : ... .. . ... ... ... : ... .. . ... ... ... : ... .. . ... : ... .. . ... : ... .. . ... ...
ROW 97 : ... .. . ... ... ... : ... .. . ... ... ... : ... .. . ... : ... .. . ... : ... .. . ... ...
ROW 98 : ... .. . ... ... ... : ... .. . ... ... ... : ... .. . ... : ... .. . ... : ... .. . ... ...
ROW 99 : ... .. . ... ... ... : ... .. . ... ... ... : --- .. . ... : ... .. . ... : ... .. . ... ...
ROW 9A : ... .. . ... ... ... : ... .. . ... ... ... : ... .. . ... : ... .. . ... : ... .. . ... ...
ROW 9B : ... .. . ... ... ... : ... .. . ... ... ... : ... .. . ... : ... .. . ... : ... .. . ... ...
ROW 9C : ... .. . ... ... ... : ... .. . ... ... ... : ... .. . ... : ... .. . ... : ... .. . ... ...
ROW 9D : ... .. . ... ... ... : ... .. . ... ... ... : ... .. . ... : ... .. . ... : ... .. . ... ...
ROW 9E : ... .. . ... ... ... : ... .. . ... ... ... : ... .. . ... : ... .. . ... : ... .. . ... ...
ROW 9F : ... .. . ... ... ... : ... .. . ... ... ... : ... .. . ... : ... .. . ... : ... .. . ... ...
ROW A0 : ... .. . ... ... ... : ... .. . ... ... ... : ... .. . ... : ... .. . ... : ... .. . ... ...
ROW A1 : ... .. . ... ... ... : ... .. . ... ... ... : ... .. . ... : ... .. . ... : ... .. . ... ...
ROW A2 : ... .. . ... ... ... : ... .. . ... ... ... : G-3 00 . ... : C-# 00 E ... : ... .. . ... ...
ROW A3 : ... .. . ... ... ... : ... .. . ... ... ... : ... .. . ... : ... .. 0 ... : ... .. . ... ...
ROW A4 : ... .. . ... ... ... : ... .. . ... ... ... : ... .. . ... : ... .. . ... : ... .. . ... ...
ROW A5 : ... .. . ... ... ... : ... .. . ... ... ... : ... .. . ... : ... .. . ... : ... .. . ... ...
ROW A6 : ... .. . ... ... ... : ... .. . ... ... ... : ... .. . ... : ... .. . ... : ... .. . ... ...
ROW A7 : ... .. . ... ... ... : ... .. . ... ... ... : ... .. . ... : ... .. . ... : ... .. . ... ...
ROW A8 : D#4 00 B P81 ... ... : G#4 00 B P80 ... ... : D#3 00 . ... : D-# 00 6 ... : ... .. . ... ...
ROW A9 : ... .. A ... ... ... : ... .. A ... ... ... : ... .. . ... : ... .. . ... : ... .. . ... ...
ROW AA : ... .. 9 ... ... ... : ... .. 9 ... ... ... : ... .. . ... : ... .. . ... : ... .. . ... ...
ROW AB : ... .. 8 ... ... ... : ... .. 8 ... ... ... : ... .. . ... : ... .. . ... : ... .. . ... ...
ROW AC : ... .. 7 ... ... ... : ... .. 7 ... ... ... : ... .. . ... : ... .. . ... : ... .. . ... ...
ROW AD : ... .. 6 ... ... ... : ... .. 6 ... ... ... : ... .. . ... : ... .. 0 ... : ... .. . ... ...
ROW AE : ... .. 1 ... ... ... : ... .. 1 ... ... ... : ... .. . ... : ... .. . ... : ... .. . ... ...
ROW AF : ... .. . ... ... ... : ... .. . ... ... ... : ... .. . ... : ... .. . ... : ... .. . ... ...
ROW B0 : ... .. . ... ... ... : ... .. . ... ... ... : ... .. . ... : ... .. . ... : ... .. . ... ...
ROW B1 : ... .. . ... ... ... : ... .. . ... ... ... : --- .. . ... : ... .. . ... : ... .. . ... ...
ROW B2 : ... .. . ... ... ... : ... .. . ... ... ... : ... .. . ... : ... .. . ... : ... .. . ... ...
ROW B3 : ... .. . ... ... ... : ... .. . ... ... ... : ... .. . ... : ... .. . ... : ... .. . ... ...
ROW B4 : C-4 00 B P81 ... ... : G-4 00 B P81 ... ... : ... .. . ... : ... .. . ... : ... .. . ... ...
ROW B5 : ... .. A ... ... ... : ... .. A ... ... ... : ... .. . ... : ... .. . ... : ... .. . ... ...
ROW B6 : ... .. 9 ... ... ... : ... .. 9 ... ... ... : ... .. . ... : ... .. . ... : ... .. . ... ...
ROW B7 : ... .. 8 ... ... ... : ... .. 8 ... ... ... : ... .. . ... : ... .. . ... : ... .. . ... ...
ROW B8 : ... .. 7 ... ... ... : ... .. 7 ... ... ... : ... .. . ... : ... .. . ... : ... .. . ... ...
ROW B9 : ... .. 6 ... ... ... : ... .. 6 ... ... ... : ... .. . ... : ... .. . ... : ... .. . ... ...
ROW BA : G#3 00 B P80 ... ... : D#4 00 B P81 ... ... : C-3 00 . ... : C-# 00 E ... : ... .. . ... ...
ROW BB : ... .. A ... ... ... : ... .. A ... ... ... : ... .. . ... : ... .. 0 ... : ... .. . ... ...
ROW BC : ... .. 9 ... ... ... : ... .. 9 ... ... ... : ... .. . ... : ... .. . ... : ... .. . ... ...
ROW BD : ... .. 8 ... ... ... : ... .. 8 ... ... ... : ... .. . ... : ... .. . ... : ... .. . ... ...
ROW BE : ... .. 7 ... ... ... : ... .. 7 ... ... ... : ... .. . ... : ... .. . ... : ... .. . ... ...
ROW BF : ... .. 6 ... ... ... : ... .. 6 ... ... ... : ... .. . ... : ... .. . ... : ... .. . ... ...
ROW C0 : F#3 00 B P80 ... ... : C#4 00 B P80 ... ... : C#3 00 . ... : D-# 00 6 ... : ... .. . ... ...
ROW C1 : ... .. A ... ... ... : ... .. A ... ... ... : ... .. . ... : ... .. . ... : ... .. . ... ...
ROW C2 : ... .. 9 ... ... ... : ... .. 9 ... ... ... : ... .. . ... : ... .. . ... : ... .. . ... ...
ROW C3 : ... .. 8 ... ... ... : ... .. 8 ... ... ... : ... .. . ... : ... .. . ... : ... .. . ... ...
ROW C4 : ... .. 7 ... ... ... : ... .. 7 ... ... ... : ... .. . ... : ... .. . ... : ... .. . ... ...
ROW C5 : ... .. 6 ... ... ... : ... .. 6 ... ... ... : ... .. . ... : ... .. 0 ... : ... .. . ... ...
ROW C6 : ... .. 1 ... ... ... : ... .. 1 ... ... ... : ... .. . ... : ... .. . ... : ... .. . ... ...
ROW C7 : ... .. . ... ... ... : ... .. . ... ... ... : ... .. . ... : ... .. . ... : ... .. . ... ...
ROW C8 : ... .. . ... ... ... : ... .. . ... ... ... : ... .. . ... : ... .. . ... : ... .. . ... ...
ROW C9 : ... .. . ... ... ... : ... .. . ... ... ... : --- .. . ... : ... .. . ... : ... .. . ... ...
ROW CA : ... .. . ... ... ... : ... .. . ... ... ... : ... .. . ... : ... .. . ... : ... .. . ... ...
ROW CB : ... .. . ... ... ... : ... .. . ... ... ... : ... .. . ... : ... .. . ... : ... .. . ... ...
ROW CC : G-3 00 B P80 ... ... : D#4 00 B P81 ... ... : ... .. . ... : ... .. . ... : ... .. . ... ...
ROW CD : ... .. A ... ... ... : ... .. A ... ... ... : ... .. . ... : ... .. . ... : ... .. . ... ...
ROW CE : ... .. 9 ... ... ... : ... .. 9 ... ... ... : ... .. . ... : ... .. . ... : ... .. . ... ...
ROW CF : ... .. 8 ... ... ... : ... .. 8 ... ... ... : ... .. . ... : ... .. . ... : ... .. . ... ...
ROW D0 : ... .. 7 ... ... ... : ... .. 7 ... ... ... : ... .. . ... : ... .. . ... : ... .. . ... ...
ROW D1 : ... .. 6 ... ... ... : ... .. 6 ... ... ... : ... .. . ... : ... .. . ... : ... .. . ... ...
ROW D2 : F#3 00 B P80 ... ... : C#4 00 B P80 ... ... : D#3 00 . ... : C-# 00 E ... : ... .. . ... ...
ROW D3 : ... .. A ... ... ... : ... .. A ... ... ... : ... .. . ... : ... .. 0 ... : ... .. . ... ...
ROW D4 : ... .. 9 ... ... ... : ... .. 9 ... ... ... : ... .. . ... : ... .. . ... : ... .. . ... ...
ROW D5 : ... .. 8 ... ... ... : ... .. 8 ... ... ... : ... .. . ... : ... .. . ... : ... .. . ... ...
ROW D6 : ... .. 7 ... ... ... : ... .. 7 ... ... ... : ... .. . ... : ... .. . ... : ... .. . ... ...
ROW D7 : ... .. 6 ... ... ... : ... .. 6 ... ... ... : ... .. . ... : ... .. . ... : ... .. . ... ...
ROW D8 : F#3 00 B P80 ... ... : C#4 00 B P80 ... ... : F#3 00 . ... : D-# 00 6 ... : ... .. . ... ...
ROW D9 : ... .. A ... ... ... : ... .. A ... ... ... : ... .. . ... : ... .. . ... : ... .. . ... ...
ROW DA : ... .. 9 ... ... ... : ... .. 9 ... ... ... : ... .. . ... : ... .. . ... : ... .. . ... ...
ROW DB : ... .. 8 ... ... ... : ... .. 8 ... ... ... : ... .. . ... : ... .. . ... : ... .. . ... ...
ROW DC : ... .. 7 ... ... ... : ... .. 7 ... ... ... : ... .. . ... : ... .. . ... : ... .. . ... ...
ROW DD : ... .. 6 ... ... ... : ... .. 6 ... ... ... : ... .. . ... : ... .. 0 ... : ... .. . ... ...
ROW DE : ... .. 1 ... ... ... : ... .. 1 ... ... ... : ... .. . ... : ... .. . ... : ... .. . ... ...
ROW DF : ... .. . ... ... ... : ... .. . ... ... ... : ... .. . ... : ... .. . ... : ... .. . ... ...
ROW E0 : ... .. . ... ... ... : ... .. . ... ... ... : ... .. . ... : ... .. . ... : ... .. . ... ...
ROW E1 : ... .. . ... ... ... : ... .. . ... ... ... : --- .. . ... : ... .. . ... : ... .. . ... ...
ROW E2 : ... .. . ... ... ... : ... .. . ... ... ... : ... .. . ... : ... .. . ... : ... .. . ... ...
ROW E3 : ... .. . ... ... ... : ... .. . ... ... ... : ... .. . ... : ... .. . ... : ... .. . ... ...
ROW E4 : C#3 00 B P80 ... ... : G#3 00 B P80 ... ... : ... .. . ... : ... .. . ... : ... .. . ... ...
ROW E5 : ... .. A ... ... ... : ... .. A ... ... ... : ... .. . ... : ... .. . ... : ... .. . ... ...
ROW E6 : ... .. 9 ... ... ... : ... .. 9 ... ... ... : ... .. . ... : ... .. . ... : ... .. . ... ...
ROW E7 : ... .. 8 ... ... ... : ... .. 8 ... ... ... : ... .. . ... : ... .. . ... : ... .. . ... ...
ROW E8 : ... .. 7 ... ... ... : ... .. 7 ... ... ... : ... .. . ... : ... .. . ... : ... .. . ... ...
ROW E9 : ... .. 6 ... ... ... : ... .. 6 ... ... ... : ... .. . ... : ... .. . ... : ... .. . ... ...
ROW EA : ... .. 1 ... ... ... : ... .. 1 ... ... ... : G#2 00 . P7F : C-# 00 E ... : ... .. . ... ...
ROW EB : ... .. . ... ... ... : ... .. . ... ... ... : ... .. . ... : ... .. 0 ... : ... .. . ... ...
ROW EC : ... .. . ... ... ... : ... .. . ... ... ... : ... .. . ... : ... .. . ... : ... .. . ... ...
ROW ED : ... .. . ... ... ... : ... .. . ... ... ... : ... .. . ... : ... .. . ... : ... .. . ... ...
ROW EE : ... .. . ... ... ... : ... .. . ... ... ... : ... .. . ... : ... .. . ... : ... .. . ... ...
ROW EF : ... .. . ... ... ... : ... .. . ... ... ... : ... .. . ... : ... .. . ... : ... .. . ... ...
ROW F0 : ... .. 5 ... ... ... : ... .. 5 ... ... ... : C#3 00 . P80 : D-# 00 6 ... : ... .. . ... ...
ROW F1 : ... .. 4 ... ... ... : ... .. 4 ... ... ... : ... .. . ... : ... .. . ... : ... .. . ... ...
ROW F2 : ... .. 3 ... ... ... : ... .. 3 ... ... ... : ... .. . ... : ... .. . ... : ... .. . ... ...
ROW F3 : ... .. 2 ... ... ... : ... .. 2 ... ... ... : ... .. . ... : ... .. . ... : ... .. . ... ...
ROW F4 : ... .. 1 ... ... ... : ... .. 1 ... ... ... : ... .. . ... : ... .. . ... : ... .. . ... ...
ROW F5 : ... .. . ... ... ... : ... .. . ... ... ... : ... .. . ... : ... .. 0 ... : ... .. . ... ...
ROW F6 : ... .. . ... ... ... : ... .. . ... ... ... : --- .. . ... : ... .. . ... : ... .. . ... ...
ROW F7 : ... .. . ... ... ... : ... .. . ... ... ... : ... .. . ... : ... .. . ... : ... .. . ... ...
ROW F8 : ... .. . ... ... ... : ... .. . ... ... ... : ... .. . ... : ... .. . ... : ... .. . ... ...
ROW F9 : ... .. . ... ... ... : ... .. . ... ... ... : ... .. . ... : ... .. . ... : ... .. . ... ...
ROW FA : ... .. . ... ... ... : ... .. . ... ... ... : ... .. . ... : ... .. . ... : ... .. . ... ...
ROW FB : ... .. . ... ... ... : ... .. . ... ... ... : ... .. . ... : ... .. . ... : ... .. . ... ...
ROW FC : C#3 00 B P80 ... ... : G#3 00 B P80 ... ... : D#3 00 . ... : ... .. . ... : ... .. . ... ...
ROW FD : ... .. A ... ... ... : ... .. A ... ... ... : ... .. . ... : ... .. . ... : ... .. . ... ...
ROW FE : ... .. 9 ... ... ... : ... .. 9 ... ... ... : ... .. . ... : ... .. . ... : ... .. . ... ...
ROW FF : ... .. 8 ... ... ... : ... .. 8 ... ... ... : ... .. . ... : ... .. . ... : ... .. . ... ...

PATTERN 1C
ROW 00 : F#3 00 B P80 ... ... : C#4 00 B P80 ... ... : ... .. . ... : ... .. . ... : ... .. . ... ...
ROW 01 : ... .. A ... ... ... : ... .. A ... ... ... : ... .. . ... : ... .. . ... : ... .. . ... ...
ROW 02 : ... .. 9 ... ... ... : ... .. 9 ... ... ... : C-3 00 . ... : C-# 00 E ... : ... .. . ... ...
ROW 03 : ... .. 8 ... ... ... : ... .. 8 ... ... ... : ... .. . ... : ... .. 0 ... : ... .. . ... ...
ROW 04 : C#3 00 B P80 ... ... : G#3 00 B P80 ... ... : ... .. . ... : ... .. . ... : ... .. . ... ...
ROW 05 : ... .. A ... ... ... : ... .. A ... ... ... : ... .. . ... : ... .. . ... : ... .. . ... ...
ROW 06 : ... .. 9 ... ... ... : ... .. 9 ... ... ... : ... .. . ... : ... .. . ... : ... .. . ... ...
ROW 07 : ... .. 8 ... ... ... : ... .. 8 ... ... ... : ... .. . ... : ... .. . ... : ... .. . ... ...
ROW 08 : F#3 00 B P80 ... ... : G#3 00 B P80 ... ... : B-2 00 . ... : D-# 00 6 ... : ... .. . ... ...
ROW 09 : ... .. A ... ... ... : ... .. A ... ... ... : ... .. . ... : ... .. . ... : ... .. . ... ...
ROW 0A : ... .. 9 ... ... ... : ... .. 9 ... ... ... : ... .. . ... : ... .. . ... : ... .. . ... ...
ROW 0B : ... .. 8 ... ... ... : ... .. 8 ... ... ... : ... .. . ... : ... .. . ... : ... .. . ... ...
ROW 0C : C#3 00 B P80 ... ... : C#4 00 B P80 ... ... : ... .. . ... : ... .. . ... : ... .. . ... ...
ROW 0D : ... .. A ... ... ... : ... .. A ... ... ... : ... .. . ... : ... .. 0 ... : ... .. . ... ...
ROW 0E : ... .. 9 ... ... ... : ... .. 9 ... ... ... : ... .. . ... : ... .. . ... : ... .. . ... ...
ROW 0F : ... .. 8 ... ... ... : ... .. 8 ... ... ... : ... .. . ... : ... .. . ... : ... .. . ... ...
ROW 10 : F#3 00 B P80 ... ... : G#3 00 B P80 ... ... : ... .. . ... : ... .. . ... : ... .. . ... ...
ROW 11 : ... .. A ... ... ... : ... .. A ... ... ... : --- .. . ... : ... .. . ... : ... .. . ... ...
ROW 12 : ... .. 9 ... ... ... : ... .. 9 ... ... ... : ... .. . ... : ... .. . ... : ... .. . ... ...
ROW 13 : ... .. 8 ... ... ... : ... .. 8 ... ... ... : ... .. . ... : ... .. . ... : ... .. . ... ...
ROW 14 : C#3 00 B P80 ... ... : C#4 00 B P80 ... ... : ... .. . ... : ... .. . ... : ... .. . ... ...
ROW 15 : ... .. A ... ... ... : ... .. A ... ... ... : ... .. . ... : ... .. . ... : ... .. . ... ...
ROW 16 : ... .. 9 ... ... ... : ... .. 9 ... ... ... : ... .. . ... : ... .. . ... : ... .. . ... ...
ROW 17 : ... .. 8 ... ... ... : ... .. 8 ... ... ... : ... .. . ... : ... .. . ... : ... .. . ... ...
ROW 18 : F#3 00 B P80 ... ... : G#3 00 B P80 ... ... : ... .. . ... : ... .. . ... : ... .. . ... ...
ROW 19 : ... .. A ... ... ... : ... .. A ... ... ... : ... .. . ... : ... .. . ... : ... .. . ... ...
ROW 1A : ... .. 9 ... ... ... : ... .. 9 ... ... ... : G#2 00 . P7F : C-# 00 E ... : ... .. . ... ...
ROW 1B : ... .. 8 ... ... ... : ... .. 8 ... ... ... : ... .. . ... : ... .. 0 ... : ... .. . ... ...
ROW 1C : C#3 00 B P80 ... ... : C#4 00 B P80 ... ... : ... .. . ... : ... .. . ... : ... .. . ... ...
ROW 1D : ... .. A ... ... ... : ... .. A ... ... ... : ... .. . ... : ... .. . ... : ... .. . ... ...
ROW 1E : ... .. 9 ... ... ... : ... .. 9 ... ... ... : ... .. . ... : ... .. . ... : ... .. . ... ...
ROW 1F : ... .. 8 ... ... ... : ... .. 8 ... ... ... : ... .. . ... : ... .. . ... : ... .. . ... ...
ROW 20 : ... .. . ... ... ... : ... .. . ... ... ... : ... .. . ... : ... .. . ... : ... .. . ... ...
ROW 21 : ... .. . ... ... ... : ... .. . ... ... ... : ... .. . ... : ... .. . ... : ... .. . ... ...
ROW 22 : ... .. . ... ... ... : ... .. . ... ... ... : ... .. . ... : ... .. . ... : ... .. . ... ...
ROW 23 : ... .. . ... ... ... : ... .. . ... ... ... : ... .. . ... : ... .. . ... : ... .. . ... ...
ROW 24 : ... .. . ... ... ... : ... .. . ... ... ... : ... .. . ... : ... .. . ... : ... .. . ... ...
ROW 25 : ... .. . ... ... ... : ... .. . ... ... ... : ... .. . ... : ... .. . ... : ... .. . ... ...
ROW 26 : ... .. . ... ... ... : ... .. . ... ... ... : ... .. . ... : ... .. . ... : ... .. . ... ...
ROW 27 : ... .. . ... ... ... : ... .. . ... ... ... : ... .. . ... : ... .. . ... : ... .. . ... ...
ROW 28 : ... .. . ... ... ... : ... .. . ... ... ... : ... .. . ... : ... .. . ... : ... .. . ... ...
ROW 29 : ... .. . ... ... ... : ... .. . ... ... ... : ... .. . ... : ... .. . ... : ... .. . ... ...
ROW 2A : ... .. . ... ... ... : ... .. . ... ... ... : ... .. . ... : ... .. . ... : ... .. . ... ...
ROW 2B : ... .. . ... ... ... : ... .. . ... ... ... : ... .. . ... : ... .. . ... : ... .. . ... ...
ROW 2C : ... .. . ... ... ... : ... .. . ... ... ... : ... .. . ... : ... .. . ... : ... .. . ... ...
ROW 2D : ... .. . ... ... ... : ... .. . ... ... ... : ... .. . ... : ... .. . ... : ... .. . ... ...
ROW 2E : ... .. . ... ... ... : ... .. . ... ... ... : ... .. . ... : ... .. . ... : ... .. . ... ...
ROW 2F : ... .. . ... ... ... : ... .. . ... ... ... : ... .. . ... : ... .. . ... : ... .. . ... ...
ROW 30 : ... .. . ... ... ... : ... .. . ... ... ... : ... .. . ... : ... .. . ... : ... .. . ... ...
ROW 31 : ... .. . ... ... ... : ... .. . ... ... ... : ... .. . ... : ... .. . ... : ... .. . ... ...
ROW 32 : ... .. . ... ... ... : ... .. . ... ... ... : ... .. . ... : ... .. . ... : ... .. . ... ...
ROW 33 : ... .. . ... ... ... : ... .. . ... ... ... : ... .. . ... : ... .. . ... : ... .. . ... ...
ROW 34 : ... .. . ... ... ... : ... .. . ... ... ... : ... .. . ... : ... .. . ... : ... .. . ... ...
ROW 35 : ... .. . ... ... ... : ... .. . ... ... ... : ... .. . ... : ... .. . ... : ... .. . ... ...
ROW 36 : ... .. . ... ... ... : ... .. . ... ... ... : ... .. . ... : ... .. . ... : ... .. . ... ...
ROW 37 : ... .. . ... ... ... : ... .. . ... ... ... : ... .. . ... : ... .. . ... : ... .. . ... ...
ROW 38 : ... .. . ... ... ... : ... .. . ... ... ... : ... .. . ... : ... .. . ... : ... .. . ... ...
ROW 39 : ... .. . ... ... ... : ... .. . ... ... ... : ... .. . ... : ... .. . ... : ... .. . ... ...
ROW 3A : ... .. . ... ... ... : ... .. . ... ... ... : ... .. . ... : ... .. . ... : ... .. . ... ...
ROW 3B : ... .. . ... ... ... : ... .. . ... ... ... : ... .. . ... : ... .. . ... : ... .. . ... ...
ROW 3C : ... .. . ... ... ... : ... .. . ... ... ... : ... .. . ... : ... .. . ... : ... .. . ... ...
ROW 3D : ... .. . ... ... ... : ... .. . ... ... ... : ... .. . ... : ... .. . ... : ... .. . ... ...
ROW 3E : ... .. . ... ... ... : ... .. . ... ... ... : ... .. . ... : ... .. . ... : ... .. . ... ...
ROW 3F : ... .. . ... ... ... : ... .. . ... ... ... : ... .. . ... : ... .. . ... : ... .. . ... ...
ROW 40 : ... .. . ... ... ... : ... .. . ... ... ... : ... .. . ... : ... .. . ... : ... .. . ... ...
ROW 41 : ... .. . ... ... ... : ... .. . ... ... ... : ... .. . ... : ... .. . ... : ... .. . ... ...
ROW 42 : ... .. . ... ... ... : ... .. . ... ... ... : ... .. . ... : ... .. . ... : ... .. . ... ...
ROW 43 : ... .. . ... ... ... : ... .. . ... ... ... : ... .. . ... : ... .. . ... : ... .. . ... ...
ROW 44 : ... .. . ... ... ... : ... .. . ... ... ... : ... .. . ... : ... .. . ... : ... .. . ... ...
ROW 45 : ... .. . ... ... ... : ... .. . ... ... ... : ... .. . ... : ... .. . ... : ... .. . ... ...
ROW 46 : ... .. . ... ... ... : ... .. . ... ... ... : ... .. . ... : ... .. . ... : ... .. . ... ...
ROW 47 : ... .. . ... ... ... : ... .. . ... ... ... : ... .. . ... : ... .. . ... : ... .. . ... ...
ROW 48 : ... .. . ... ... ... : ... .. . ... ... ... : ... .. . ... : ... .. . ... : ... .. . ... ...
ROW 49 : ... .. . ... ... ... : ... .. . ... ... ... : ... .. . ... : ... .. . ... : ... .. . ... ...
ROW 4A : ... .. . ... ... ... : ... .. . ... ... ... : ... .. . ... : ... .. . ... : ... .. . ... ...
ROW 4B : ... .. . ... ... ... : ... .. . ... ... ... : ... .. . ... : ... .. . ... : ... .. . ... ...
ROW 4C : ... .. . ... ... ... : ... .. . ... ... ... : ... .. . ... : ... .. . ... : ... .. . ... ...
ROW 4D : ... .. . ... ... ... : ... .. . ... ... ... : ... .. . ... : ... .. . ... : ... .. . ... ...
ROW 4E : ... .. . ... ... ... : ... .. . ... ... ... : ... .. . ... : ... .. . ... : ... .. . ... ...
ROW 4F : ... .. . ... ... ... : ... .. . ... ... ... : ... .. . ... : ... .. . ... : ... .. . ... ...
ROW 50 : ... .. . ... ... ... : ... .. . ... ... ... : ... .. . ... : ... .. . ... : ... .. . ... ...
ROW 51 : ... .. . ... ... ... : ... .. . ... ... ... : ... .. . ... : ... .. . ... : ... .. . ... ...
ROW 52 : ... .. . ... ... ... : ... .. . ... ... ... : ... .. . ... : ... .. . ... : ... .. . ... ...
ROW 53 : ... .. . ... ... ... : ... .. . ... ... ... : ... .. . ... : ... .. . ... : ... .. . ... ...
ROW 54 : ... .. . ... ... ... : ... .. . ... ... ... : ... .. . ... : ... .. . ... : ... .. . ... ...
ROW 55 : ... .. . ... ... ... : ... .. . ... ... ... : ... .. . ... : ... .. . ... : ... .. . ... ...
ROW 56 : ... .. . ... ... ... : ... .. . ... ... ... : ... .. . ... : ... .. . ... : ... .. . ... ...
ROW 57 : ... .. . ... ... ... : ... .. . ... ... ... : ... .. . ... : ... .. . ... : ... .. . ... ...
ROW 58 : ... .. . ... ... ... : ... .. . ... ... ... : ... .. . ... : ... .. . ... : ... .. . ... ...
ROW 59 : ... .. . ... ... ... : ... .. . ... ... ... : ... .. . ... : ... .. . ... : ... .. . ... ...
ROW 5A : ... .. . ... ... ... : ... .. . ... ... ... : ... .. . ... : ... .. . ... : ... .. . ... ...
ROW 5B : ... .. . ... ... ... : ... .. . ... ... ... : ... .. . ... : ... .. . ... : ... .. . ... ...
ROW 5C : ... .. . ... ... ... : ... .. . ... ... ... : ... .. . ... : ... .. . ... : ... .. . ... ...
ROW 5D : ... .. . ... ... ... : ... .. . ... ... ... : ... .. . ... : ... .. . ... : ... .. . ... ...
ROW 5E : ... .. . ... ... ... : ... .. . ... ... ... : ... .. . ... : ... .. . ... : ... .. . ... ...
ROW 5F : ... .. . ... ... ... : ... .. . ... ... ... : ... .. . ... : ... .. . ... : ... .. . ... ...
ROW 60 : ... .. . ... ... ... : ... .. . ... ... ... : ... .. . ... : ... .. . ... : ... .. . ... ...
ROW 61 : ... .. . ... ... ... : ... .. . ... ... ... : ... .. . ... : ... .. . ... : ... .. . ... ...
ROW 62 : ... .. . ... ... ... : ... .. . ... ... ... : ... .. . ... : ... .. . ... : ... .. . ... ...
ROW 63 : ... .. . ... ... ... : ... .. . ... ... ... : ... .. . ... : ... .. . ... : ... .. . ... ...
ROW 64 : ... .. . ... ... ... : ... .. . ... ... ... : ... .. . ... : ... .. . ... : ... .. . ... ...
ROW 65 : ... .. . ... ... ... : ... .. . ... ... ... : ... .. . ... : ... .. . ... : ... .. . ... ...
ROW 66 : ... .. . ... ... ... : ... .. . ... ... ... : ... .. . ... : ... .. . ... : ... .. . ... ...
ROW 67 : ... .. . ... ... ... : ... .. . ... ... ... : ... .. . ... : ... .. . ... : ... .. . ... ...
ROW 68 : ... .. . ... ... ... : ... .. . ... ... ... : ... .. . ... : ... .. . ... : ... .. . ... ...
ROW 69 : ... .. . ... ... ... : ... .. . ... ... ... : ... .. . ... : ... .. . ... : ... .. . ... ...
ROW 6A : ... .. . ... ... ... : ... .. . ... ... ... : ... .. . ... : ... .. . ... : ... .. . ... ...
ROW 6B : ... .. . ... ... ... : ... .. . ... ... ... : ... .. . ... : ... .. . ... : ... .. . ... ...
ROW 6C : ... .. . ... ... ... : ... .. . ... ... ... : ... .. . ... : ... .. . ... : ... .. . ... ...
ROW 6D : ... .. . ... ... ... : ... .. . ... ... ... : ... .. . ... : ... .. . ... : ... .. . ... ...
ROW 6E : ... .. . ... ... ... : ... .. . ... ... ... : ... .. . ... : ... .. . ... : ... .. . ... ...
ROW 6F : ... .. . ... ... ... : ... .. . ... ... ... : ... .. . ... : ... .. . ... : ... .. . ... ...
ROW 70 : ... .. . ... ... ... : ... .. . ... ... ... : ... .. . ... : ... .. . ... : ... .. . ... ...
ROW 71 : ... .. . ... ... ... : ... .. . ... ... ... : ... .. . ... : ... .. . ... : ... .. . ... ...
ROW 72 : ... .. . ... ... ... : ... .. . ... ... ... : ... .. . ... : ... .. . ... : ... .. . ... ...
ROW 73 : ... .. . ... ... ... : ... .. . ... ... ... : ... .. . ... : ... .. . ... : ... .. . ... ...
ROW 74 : ... .. . ... ... ... : ... .. . ... ... ... : ... .. . ... : ... .. . ... : ... .. . ... ...
ROW 75 : ... .. . ... ... ... : ... .. . ... ... ... : ... .. . ... : ... .. . ... : ... .. . ... ...
ROW 76 : ... .. . ... ... ... : ... .. . ... ... ... : ... .. . ... : ... .. . ... : ... .. . ... ...
ROW 77 : ... .. . ... ... ... : ... .. . ... ... ... : ... .. . ... : ... .. . ... : ... .. . ... ...
ROW 78 : ... .. . ... ... ... : ... .. . ... ... ... : ... .. . ... : ... .. . ... : ... .. . ... ...
ROW 79 : ... .. . ... ... ... : ... .. . ... ... ... : ... .. . ... : ... .. . ... : ... .. . ... ...
ROW 7A : ... .. . ... ... ... : ... .. . ... ... ... : ... .. . ... : ... .. . ... : ... .. . ... ...
ROW 7B : ... .. . ... ... ... : ... .. . ... ... ... : ... .. . ... : ... .. . ... : ... .. . ... ...
ROW 7C : ... .. . ... ... ... : ... .. . ... ... ... : ... .. . ... : ... .. . ... : ... .. . ... ...
ROW 7D : ... .. . ... ... ... : ... .. . ... ... ... : ... .. . ... : ... .. . ... : ... .. . ... ...
ROW 7E : ... .. . ... ... ... : ... .. . ... ... ... : ... .. . ... : ... .. . ... : ... .. . ... ...
ROW 7F : ... .. . ... ... ... : ... .. . ... ... ... : ... .. . ... : ... .. . ... : ... .. . ... ...
ROW 80 : ... .. . ... ... ... : ... .. . ... ... ... : ... .. . ... : ... .. . ... : ... .. . ... ...
ROW 81 : ... .. . ... ... ... : ... .. . ... ... ... : ... .. . ... : ... .. . ... : ... .. . ... ...
ROW 82 : ... .. . ... ... ... : ... .. . ... ... ... : ... .. . ... : ... .. . ... : ... .. . ... ...
ROW 83 : ... .. . ... ... ... : ... .. . ... ... ... : ... .. . ... : ... .. . ... : ... .. . ... ...
ROW 84 : ... .. . ... ... ... : ... .. . ... ... ... : ... .. . ... : ... .. . ... : ... .. . ... ...
ROW 85 : ... .. . ... ... ... : ... .. . ... ... ... : ... .. . ... : ... .. . ... : ... .. . ... ...
ROW 86 : ... .. . ... ... ... : ... .. . ... ... ... : ... .. . ... : ... .. . ... : ... .. . ... ...
ROW 87 : ... .. . ... ... ... : ... .. . ... ... ... : ... .. . ... : ... .. . ... : ... .. . ... ...
ROW 88 : ... .. . ... ... ... : ... .. . ... ... ... : ... .. . ... : ... .. . ... : ... .. . ... ...
ROW 89 : ... .. . ... ... ... : ... .. . ... ... ... : ... .. . ... : ... .. . ... : ... .. . ... ...
ROW 8A : ... .. . ... ... ... : ... .. . ... ... ... : ... .. . ... : ... .. . ... : ... .. . ... ...
ROW 8B : ... .. . ... ... ... : ... .. . ... ... ... : ... .. . ... : ... .. . ... : ... .. . ... ...
ROW 8C : ... .. . ... ... ... : ... .. . ... ... ... : ... .. . ... : ... .. . ... : ... .. . ... ...
ROW 8D : ... .. . ... ... ... : ... .. . ... ... ... : ... .. . ... : ... .. . ... : ... .. . ... ...
ROW 8E : ... .. . ... ... ... : ... .. . ... ... ... : ... .. . ... : ... .. . ... : ... .. . ... ...
ROW 8F : ... .. . ... ... ... : ... .. . ... ... ... : ... .. . ... : ... .. . ... : ... .. . ... ...
ROW 90 : ... .. . ... ... ... : ... .. . ... ... ... : ... .. . ... : ... .. . ... : ... .. . ... ...
ROW 91 : ... .. . ... ... ... : ... .. . ... ... ... : ... .. . ... : ... .. . ... : ... .. . ... ...
ROW 92 : ... .. . ... ... ... : ... .. . ... ... ... : ... .. . ... : ... .. . ... : ... .. . ... ...
ROW 93 : ... .. . ... ... ... : ... .. . ... ... ... : ... .. . ... : ... .. . ... : ... .. . ... ...
ROW 94 : ... .. . ... ... ... : ... .. . ... ... ... : ... .. . ... : ... .. . ... : ... .. . ... ...
ROW 95 : ... .. . ... ... ... : ... .. . ... ... ... : ... .. . ... : ... .. . ... : ... .. . ... ...
ROW 96 : ... .. . ... ... ... : ... .. . ... ... ... : ... .. . ... : ... .. . ... : ... .. . ... ...
ROW 97 : ... .. . ... ... ... : ... .. . ... ... ... : ... .. . ... : ... .. . ... : ... .. . ... ...
ROW 98 : ... .. . ... ... ... : ... .. . ... ... ... : ... .. . ... : ... .. . ... : ... .. . ... ...
ROW 99 : ... .. . ... ... ... : ... .. . ... ... ... : ... .. . ... : ... .. . ... : ... .. . ... ...
ROW 9A : ... .. . ... ... ... : ... .. . ... ... ... : ... .. . ... : ... .. . ... : ... .. . ... ...
ROW 9B : ... .. . ... ... ... : ... .. . ... ... ... : ... .. . ... : ... .. . ... : ... .. . ... ...
ROW 9C : ... .. . ... ... ... : ... .. . ... ... ... : ... .. . ... : ... .. . ... : ... .. . ... ...
ROW 9D : ... .. . ... ... ... : ... .. . ... ... ... : ... .. . ... : ... .. . ... : ... .. . ... ...
ROW 9E : ... .. . ... ... ... : ... .. . ... ... ... : ... .. . ... : ... .. . ... : ... .. . ... ...
ROW 9F : ... .. . ... ... ... : ... .. . ... ... ... : ... .. . ... : ... .. . ... : ... .. . ... ...
ROW A0 : ... .. . ... ... ... : ... .. . ... ... ... : ... .. . ... : ... .. . ... : ... .. . ... ...
ROW A1 : ... .. . ... ... ... : ... .. . ... ... ... : ... .. . ... : ... .. . ... : ... .. . ... ...
ROW A2 : ... .. . ... ... ... : ... .. . ... ... ... : ... .. . ... : ... .. . ... : ... .. . ... ...
ROW A3 : ... .. . ... ... ... : ... .. . ... ... ... : ... .. . ... : ... .. . ... : ... .. . ... ...
ROW A4 : ... .. . ... ... ... : ... .. . ... ... ... : ... .. . ... : ... .. . ... : ... .. . ... ...
ROW A5 : ... .. . ... ... ... : ... .. . ... ... ... : ... .. . ... : ... .. . ... : ... .. . ... ...
ROW A6 : ... .. . ... ... ... : ... .. . ... ... ... : ... .. . ... : ... .. . ... : ... .. . ... ...
ROW A7 : ... .. . ... ... ... : ... .. . ... ... ... : ... .. . ... : ... .. . ... : ... .. . ... ...
ROW A8 : ... .. . ... ... ... : ... .. . ... ... ... : ... .. . ... : ... .. . ... : ... .. . ... ...
ROW A9 : ... .. . ... ... ... : ... .. . ... ... ... : ... .. . ... : ... .. . ... : ... .. . ... ...
ROW AA : ... .. . ... ... ... : ... .. . ... ... ... : ... .. . ... : ... .. . ... : ... .. . ... ...
ROW AB : ... .. . ... ... ... : ... .. . ... ... ... : ... .. . ... : ... .. . ... : ... .. . ... ...
ROW AC : ... .. . ... ... ... : ... .. . ... ... ... : ... .. . ... : ... .. . ... : ... .. . ... ...
ROW AD : ... .. . ... ... ... : ... .. . ... ... ... : ... .. . ... : ... .. . ... : ... .. . ... ...
ROW AE : ... .. . ... ... ... : ... .. . ... ... ... : ... .. . ... : ... .. . ... : ... .. . ... ...
ROW AF : ... .. . ... ... ... : ... .. . ... ... ... : ... .. . ... : ... .. . ... : ... .. . ... ...
ROW B0 : ... .. . ... ... ... : ... .. . ... ... ... : ... .. . ... : ... .. . ... : ... .. . ... ...
ROW B1 : ... .. . ... ... ... : ... .. . ... ... ... : ... .. . ... : ... .. . ... : ... .. . ... ...
ROW B2 : ... .. . ... ... ... : ... .. . ... ... ... : ... .. . ... : ... .. . ... : ... .. . ... ...
ROW B3 : ... .. . ... ... ... : ... .. . ... ... ... : ... .. . ... : ... .. . ... : ... .. . ... ...
ROW B4 : B-3 00 B P80 ... ... : G-4 00 B P81 ... ... : C#4 00 . ... : ... .. . ... : ... .. . ... ...
ROW B5 : ... .. . ... ... ... : ... .. . ... ... ... : ... .. . ... : ... .. . ... : ... .. . ... ...
ROW B6 : ... .. A ... ... ... : ... .. A ... ... ... : ... .. . ... : ... .. . ... : ... .. . ... ...
ROW B7 : ... .. . ... ... ... : ... .. . ... ... ... : ... .. . ... : ... .. . ... : ... .. . ... ...
ROW B8 : ... .. 9 ... ... ... : ... .. 9 ... ... ... : ... .. . ... : ... .. . ... : ... .. . ... ...
ROW B9 : ... .. . ... ... ... : ... .. . ... ... ... : ... .. . ... : ... .. . ... : ... .. . ... ...
ROW BA : A#3 00 B P81 ... ... : F#4 00 B P80 ... ... : C#4 00 . P81 : ... .. . ... : ... .. . ... ...
ROW BB : ... .. . ... ... ... : ... .. . ... ... ... : ... .. . ... : ... .. . ... : ... .. . ... ...
ROW BC : ... .. A ... ... ... : ... .. A ... ... ... : ... .. . ... : ... .. . ... : ... .. . ... ...
ROW BD : ... .. . ... ... ... : ... .. . ... ... ... : ... .. . ... : ... .. . ... : ... .. . ... ...
ROW BE : ... .. 9 ... ... ... : ... .. 9 ... ... ... : ... .. . ... : ... .. . ... : ... .. . ... ...
ROW BF : ... .. . ... ... ... : ... .. . ... ... ... : ... .. . ... : ... .. . ... : ... .. . ... ...
ROW C0 : ... .. 0 ... ... ... : ... .. 0 ... ... ... : --- .. . ... : ... .. . ... : ... .. . ... ...
ROW C1 : ... .. . ... ... ... : ... .. . ... ... ... : ... .. . ... : ... .. . ... : ... .. . ... ...
ROW C2 : ... .. . ... ... ... : ... .. . ... ... ... : ... .. . ... : ... .. . ... : ... .. . ... ...
ROW C3 : ... .. . ... ... ... : ... .. . ... ... ... : ... .. . ... : ... .. . ... : ... .. . ... ...
ROW C4 : ... .. . ... ... ... : ... .. . ... ... ... : ... .. . ... : ... .. . ... : ... .. . ... ...
ROW C5 : ... .. . ... ... ... : ... .. . ... ... ... : ... .. . ... : ... .. . ... : ... .. . ... ...
ROW C6 : G#3 00 B P80 ... ... : F-4 00 B P80 ... ... : C-4 00 . ... : ... .. . ... : ... .. . ... ...
ROW C7 : ... .. . ... ... ... : ... .. . ... ... ... : ... .. . ... : ... .. . ... : ... .. . ... ...
ROW C8 : ... .. . ... ... ... : ... .. . ... ... ... : ... .. . ... : ... .. . ... : ... .. . ... ...
ROW C9 : ... .. . ... ... ... : ... .. . ... ... ... : ... .. . ... : ... .. . ... : ... .. . ... ...
ROW CA : ... .. . ... ... ... : ... .. . ... ... ... : ... .. . ... : ... .. . ... : ... .. . ... ...
ROW CB : ... .. . ... ... ... : ... .. . ... ... ... : ... .. . ... : ... .. . ... : ... .. . ... ...
ROW CC : C#3 00 B P80 ... ... : B-3 00 B P80 ... ... : G-3 00 . ... : ... .. . ... : ... .. . ... ...
ROW CD : ... .. . ... ... ... : ... .. . ... ... ... : ... .. . ... : ... .. . ... : ... .. . ... ...
ROW CE : ... .. A ... ... ... : ... .. A ... ... ... : ... .. . ... : ... .. . ... : ... .. . ... ...
ROW CF : ... .. . ... ... ... : ... .. . ... ... ... : ... .. . ... : ... .. . ... : ... .. . ... ...
ROW D0 : ... .. 9 ... ... ... : ... .. 9 ... ... ... : ... .. . ... : ... .. . ... : ... .. . ... ...
ROW D1 : ... .. . ... ... ... : ... .. . ... ... ... : ... .. . ... : ... .. . ... : ... .. . ... ...
ROW D2 : C-3 00 B P80 ... ... : G#3 00 B P80 ... ... : F-3 00 . ... : ... .. . ... : ... .. . ... ...
ROW D3 : ... .. . ... ... ... : ... .. . ... ... ... : ... .. . ... : ... .. . ... : ... .. . ... ...
ROW D4 : ... .. A ... ... ... : ... .. A ... ... ... : ... .. . ... : ... .. . ... : ... .. . ... ...
ROW D5 : ... .. . ... ... ... : ... .. . ... ... ... : ... .. . ... : ... .. . ... : ... .. . ... ...
ROW D6 : ... .. 9 ... ... ... : ... .. 9 ... ... ... : ... .. . ... : ... .. . ... : ... .. . ... ...
ROW D7 : ... .. . ... ... ... : ... .. . ... ... ... : ... .. . ... : ... .. . ... : ... .. . ... ...
ROW D8 : ... .. 0 ... ... ... : ... .. 0 ... ... ... : --- .. . ... : ... .. . ... : ... .. . ... ...
ROW D9 : ... .. . ... ... ... : ... .. . ... ... ... : ... .. . ... : ... .. . ... : ... .. . ... ...
ROW DA : ... .. . ... ... ... : ... .. . ... ... ... : ... .. . ... : ... .. . ... : ... .. . ... ...
ROW DB : ... .. . ... ... ... : ... .. . ... ... ... : ... .. . ... : ... .. . ... : ... .. . ... ...
ROW DC : ... .. . ... ... ... : ... .. . ... ... ... : ... .. . ... : ... .. . ... : ... .. . ... ...
ROW DD : ... .. . ... ... ... : ... .. . ... ... ... : ... .. . ... : ... .. . ... : ... .. . ... ...
ROW DE : B-2 00 B P80 ... ... : G#3 00 B P80 ... ... : D#3 00 . ... : ... .. . ... : ... .. . ... ...
ROW DF : ... .. . ... ... ... : ... .. . ... ... ... : ... .. . ... : ... .. . ... : ... .. . ... ...
ROW E0 : ... .. . ... ... ... : ... .. . ... ... ... : ... .. . ... : ... .. . ... : ... .. . ... ...
ROW E1 : ... .. 0 ... ... ... : ... .. 0 ... ... ... : --- .. . ... : ... .. . ... : ... .. . ... ...
ROW E2 : ... .. . ... ... ... : ... .. . ... ... ... : ... .. . ... : ... .. . ... : ... .. . ... ...
ROW E3 : ... .. . ... ... ... : ... .. . ... ... ... : ... .. . ... : ... .. . ... : ... .. . ... ...
ROW E4 : ... .. . ... ... ... : ... .. . ... ... ... : ... .. . ... : ... .. . ... : ... .. . ... ...
ROW E5 : ... .. . ... ... ... : ... .. . ... ... ... : ... .. . ... : ... .. . ... : ... .. . ... ...
ROW E6 : ... .. . ... ... ... : ... .. . ... ... ... : ... .. . ... : ... .. . ... : ... .. . ... ...
ROW E7 : ... .. . ... ... ... : ... .. . ... ... ... : ... .. . ... : ... .. . ... : ... .. . ... ...
ROW E8 : ... .. . ... ... ... : ... .. . ... ... ... : ... .. . ... : ... .. . ... : ... .. . ... ...
ROW E9 : ... .. . ... ... ... : ... .. . ... ... ... : ... .. . ... : ... .. . ... : ... .. . ... ...
ROW EA : B-3 00 B P80 ... ... : G-4 00 B P81 ... ... : C#4 00 . ... : ... .. E ... : ... .. . ... ...
ROW EB : ... .. . ... ... ... : ... .. . ... ... ... : ... .. . ... : ... .. 0 ... : ... .. . ... ...
ROW EC : ... .. A ... ... ... : ... .. A ... ... ... : ... .. . ... : ... .. . ... : ... .. . ... ...
ROW ED : ... .. . ... ... ... : ... .. . ... ... ... : ... .. . ... : ... .. . ... : ... .. . ... ...
ROW EE : ... .. 9 ... ... ... : ... .. 9 ... ... ... : ... .. . ... : ... .. . ... : ... .. . ... ...
ROW EF : ... .. . ... ... ... : ... .. . ... ... ... : ... .. . ... : ... .. . ... : ... .. . ... ...
ROW F0 : ... .. . ... ... ... : ... .. . ... ... ... : ... .. . ... : ... .. E ... : ... .. . ... ...
ROW F1 : ... .. 8 ... ... ... : ... .. 8 ... ... ... : ... .. . ... : ... .. 0 ... : ... .. . ... ...
ROW F2 : ... .. . ... ... ... : ... .. . ... ... ... : ... .. . ... : ... .. . ... : ... .. . ... ...
ROW F3 : ... .. 0 ... ... ... : ... .. 0 ... ... ... : --- .. . ... : ... .. . ... : ... .. . ... ...
ROW F4 : ... .. . ... ... ... : ... .. . ... ... ... : ... .. . ... : ... .. . ... : ... .. . ... ...
ROW F5 : ... .. . ... ... ... : ... .. . ... ... ... : ... .. . ... : ... .. . ... : ... .. . ... ...
ROW F6 : ... .. . ... ... ... : ... .. . ... ... ... : ... .. . ... : ... .. E ... : ... .. . ... ...
ROW F7 : ... .. . ... ... ... : ... .. . ... ... ... : ... .. . ... : ... .. 0 ... : ... .. . ... ...
ROW F8 : ... .. . ... ... ... : ... .. . ... ... ... : ... .. . ... : ... .. . ... : ... .. . ... ...
ROW F9 : ... .. . ... ... ... : ... .. . ... ... ... : --- .. . ... : ... .. . ... : ... .. . ... ...
ROW FA : ... .. . ... ... ... : ... .. . ... ... ... : ... .. . ... : ... .. . ... : ... .. . ... ...
ROW FB : ... .. . ... ... ... : ... .. . ... ... ... : ... .. . ... : ... .. . ... : ... .. . ... ...
ROW FC : ... .. . ... ... ... : ... .. . ... ... ... : ... .. . ... : C-# 00 E ... : ... .. . ... ...
ROW FD : ... .. . ... ... ... : ... .. . ... ... ... : ... .. . ... : ... .. 0 ... : ... .. . ... ...
ROW FE : ... .. 7 ... ... ... : ... .. 7 ... ... ... : ... .. . ... : ... .. . ... : ... .. . ... ...
ROW FF : ... .. . ... ... ... : ... .. . ... ... ... : ... .. . ... : ... .. . ... : ... .. . ... ...

PATTERN 1D
ROW 00 : ... .. 6 ... ... ... : ... .. 6 ... ... ... : ... .. . ... : ... .. . ... : ... .. . ... ...
ROW 01 : ... .. 5 ... ... ... : ... .. 5 ... ... ... : ... .. . ... : ... .. . ... : ... .. . ... ...
ROW 02 : ... .. 0 ... ... ... : ... .. 0 ... ... ... : G-3 00 . ... : ... .. E ... : ... .. . ... ...
ROW 03 : ... .. . ... ... ... : ... .. . ... ... ... : ... .. . ... : ... .. 0 ... : ... .. . ... ...
ROW 04 : ... .. . ... ... ... : ... .. . ... ... ... : ... .. . ... : ... .. . ... : ... .. . ... ...
ROW 05 : ... .. . ... ... ... : ... .. . ... ... ... : ... .. . ... : ... .. . ... : ... .. . ... ...
ROW 06 : ... .. . ... ... ... : ... .. . ... ... ... : ... .. . ... : ... .. . ... : ... .. . ... ...
ROW 07 : ... .. . ... ... ... : ... .. . ... ... ... : ... .. . ... : ... .. . ... : ... .. . ... ...
ROW 08 : ... .. . ... ... ... : ... .. . ... ... ... : ... .. . ... : ... .. E ... : ... .. . ... ...
ROW 09 : ... .. . ... ... ... : ... .. . ... ... ... : ... .. . ... : ... .. 0 ... : ... .. . ... ...
ROW 0A : ... .. . ... ... ... : ... .. . ... ... ... : ... .. . ... : ... .. . ... : ... .. . ... ...
ROW 0B : ... .. . ... ... ... : ... .. . ... ... ... : --- .. . ... : ... .. . ... : ... .. . ... ...
ROW 0C : ... .. . ... ... ... : ... .. . ... ... ... : ... .. . ... : ... .. . ... : ... .. . ... ...
ROW 0D : ... .. . ... ... ... : ... .. . ... ... ... : ... .. . ... : ... .. . ... : ... .. . ... ...
ROW 0E : ... .. . ... ... ... : ... .. . ... ... ... : ... .. . ... : ... .. E ... : ... .. . ... ...
ROW 0F : ... .. . ... ... ... : ... .. . ... ... ... : ... .. . ... : ... .. 0 ... : ... .. . ... ...
ROW 10 : ... .. . ... ... ... : ... .. . ... ... ... : ... .. . ... : ... .. . ... : ... .. . ... ...
ROW 11 : ... .. . ... ... ... : ... .. . ... ... ... : --- .. . ... : ... .. . ... : ... .. . ... ...
ROW 12 : ... .. . ... ... ... : ... .. . ... ... ... : ... .. . ... : ... .. . ... : ... .. . ... ...
ROW 13 : ... .. . ... ... ... : ... .. . ... ... ... : ... .. . ... : ... .. . ... : ... .. . ... ...
ROW 14 : D#3 00 8 P80 ... ... : C-4 00 8 P81 ... ... : ... .. . ... : ... .. . ... : ... .. . ... ...
ROW 15 : ... .. . ... ... ... : ... .. . ... ... ... : ... .. . ... : ... .. . ... : ... .. . ... ...
ROW 16 : ... .. 7 ... ... ... : ... .. 7 ... ... ... : ... .. . ... : ... .. . ... : ... .. . ... ...
ROW 17 : ... .. . ... ... ... : ... .. . ... ... ... : ... .. . ... : ... .. . ... : ... .. . ... ...
ROW 18 : ... .. . ... ... ... : ... .. . ... ... ... : ... .. . ... : ... .. . ... : ... .. . ... ...
ROW 19 : ... .. . ... ... ... : ... .. . ... ... ... : ... .. . ... : ... .. . ... : ... .. . ... ...
ROW 1A : G-3 00 8 P80 ... ... : D#4 00 8 P81 ... ... : G-3 00 . ... : C-# 00 E ... : ... .. . ... ...
ROW 1B : ... .. . ... ... ... : ... .. . ... ... ... : ... .. . ... : ... .. 0 ... : ... .. . ... ...
ROW 1C : ... .. 7 ... ... ... : ... .. 7 ... ... ... : ... .. . ... : ... .. . ... : ... .. . ... ...
ROW 1D : ... .. . ... ... ... : ... .. . ... ... ... : ... .. . ... : ... .. . ... : ... .. . ... ...
ROW 1E : ... .. . ... ... ... : ... .. . ... ... ... : ... .. . ... : ... .. . ... : ... .. . ... ...
ROW 1F : ... .. . ... ... ... : ... .. . ... ... ... : ... .. . ... : ... .. . ... : ... .. . ... ...
ROW 20 : ... .. 0 ... ... ... : ... .. 0 ... ... ... : ... .. . ... : ... .. . ... : ... .. . ... ...
ROW 21 : ... .. . ... ... ... : ... .. . ... ... ... : ... .. . ... : ... .. . ... : ... .. . ... ...
ROW 22 : ... .. . ... ... ... : ... .. . ... ... ... : ... .. . ... : ... .. . ... : ... .. . ... ...
ROW 23 : ... .. . ... ... ... : ... .. . ... ... ... : --- .. . ... : ... .. . ... : ... .. . ... ...
ROW 24 : ... .. . ... ... ... : ... .. . ... ... ... : ... .. . ... : ... .. . ... : ... .. . ... ...
ROW 25 : ... .. . ... ... ... : ... .. . ... ... ... : ... .. . ... : ... .. . ... : ... .. . ... ...
ROW 26 : C-4 00 8 P81 ... ... : G-4 00 8 P81 ... ... : ... .. . ... : ... .. . ... : ... .. . ... ...
ROW 27 : ... .. . ... ... ... : ... .. . ... ... ... : ... .. . ... : ... .. . ... : ... .. . ... ...
ROW 28 : ... .. . ... ... ... : ... .. . ... ... ... : ... .. . ... : ... .. . ... : ... .. . ... ...
ROW 29 : ... .. . ... ... ... : ... .. . ... ... ... : --- .. . ... : ... .. . ... : ... .. . ... ...
ROW 2A : ... .. . ... ... ... : ... .. . ... ... ... : ... .. . ... : ... .. . ... : ... .. . ... ...
ROW 2B : ... .. . ... ... ... : ... .. . ... ... ... : ... .. . ... : ... .. . ... : ... .. . ... ...
ROW 2C : D#3 00 8 P80 ... ... : C-4 00 8 P81 ... ... : ... .. . ... : ... .. . ... : ... .. . ... ...
ROW 2D : ... .. . ... ... ... : ... .. . ... ... ... : ... .. . ... : ... .. . ... : ... .. . ... ...
ROW 2E : ... .. 7 ... ... ... : ... .. 7 ... ... ... : ... .. . ... : ... .. . ... : ... .. . ... ...
ROW 2F : ... .. . ... ... ... : ... .. . ... ... ... : ... .. . ... : ... .. . ... : ... .. . ... ...
ROW 30 : ... .. . ... ... ... : ... .. . ... ... ... : ... .. . ... : ... .. . ... : ... .. . ... ...
ROW 31 : ... .. . ... ... ... : ... .. . ... ... ... : ... .. . ... : ... .. . ... : ... .. . ... ...
ROW 32 : G-3 00 8 P80 ... ... : D#4 00 8 P81 ... ... : G-3 00 . ... : C-# 00 E ... : ... .. . ... ...
ROW 33 : ... .. . ... ... ... : ... .. . ... ... ... : ... .. . ... : ... .. 0 ... : ... .. . ... ...
ROW 34 : ... .. 7 ... ... ... : ... .. 7 ... ... ... : ... .. . ... : ... .. . ... : ... .. . ... ...
ROW 35 : ... .. . ... ... ... : ... .. . ... ... ... : ... .. . ... : ... .. . ... : ... .. . ... ...
ROW 36 : ... .. . ... ... ... : ... .. . ... ... ... : ... .. . ... : ... .. . ... : ... .. . ... ...
ROW 37 : ... .. . ... ... ... : ... .. . ... ... ... : ... .. . ... : ... .. . ... : ... .. . ... ...
ROW 38 : ... .. 0 ... ... ... : ... .. 0 ... ... ... : ... .. . ... : ... .. . ... : ... .. . ... ...
ROW 39 : ... .. . ... ... ... : ... .. . ... ... ... : ... .. . ... : ... .. . ... : ... .. . ... ...
ROW 3A : ... .. . ... ... ... : ... .. . ... ... ... : ... .. . ... : ... .. . ... : ... .. . ... ...
ROW 3B : ... .. . ... ... ... : ... .. . ... ... ... : --- .. . ... : ... .. . ... : ... .. . ... ...
ROW 3C : ... .. . ... ... ... : ... .. . ... ... ... : ... .. . ... : ... .. . ... : ... .. . ... ...
ROW 3D : ... .. . ... ... ... : ... .. . ... ... ... : ... .. . ... : ... .. . ... : ... .. . ... ...
ROW 3E : C-4 00 8 P81 ... ... : G-4 00 8 P81 ... ... : ... .. . ... : ... .. . ... : ... .. . ... ...
ROW 3F : ... .. . ... ... ... : ... .. . ... ... ... : ... .. . ... : ... .. . ... : ... .. . ... ...
ROW 40 : ... .. 7 ... ... ... : ... .. 7 ... ... ... : ... .. . ... : ... .. . ... : ... .. . ... ...
ROW 41 : ... .. . ... ... ... : ... .. . ... ... ... : --- .. . ... : ... .. . ... : ... .. . ... ...
ROW 42 : ... .. . ... ... ... : ... .. . ... ... ... : ... .. . ... : ... .. . ... : ... .. . ... ...
ROW 43 : ... .. . ... ... ... : ... .. . ... ... ... : ... .. . ... : ... .. . ... : ... .. . ... ...
ROW 44 : B-3 00 8 P80 ... ... : G-4 00 8 P81 ... ... : ... .. . ... : ... .. . ... : ... .. . ... ...
ROW 45 : ... .. . ... ... ... : ... .. . ... ... ... : ... .. . ... : ... .. . ... : ... .. . ... ...
ROW 46 : ... .. 7 ... ... ... : ... .. 7 ... ... ... : ... .. . ... : ... .. . ... : ... .. . ... ...
ROW 47 : ... .. . ... ... ... : ... .. . ... ... ... : ... .. . ... : ... .. . ... : ... .. . ... ...
ROW 48 : ... .. . ... ... ... : ... .. . ... ... ... : ... .. . ... : ... .. . ... : ... .. . ... ...
ROW 49 : ... .. . ... ... ... : ... .. . ... ... ... : ... .. . ... : ... .. . ... : ... .. . ... ...
ROW 4A : D-4 00 8 P81 ... ... : B-4 00 8 P80 ... ... : G-3 00 . ... : C-# 00 E ... : ... .. . ... ...
ROW 4B : ... .. . ... ... ... : ... .. . ... ... ... : ... .. . ... : ... .. 0 ... : ... .. . ... ...
ROW 4C : ... .. 7 ... ... ... : ... .. 7 ... ... ... : ... .. . ... : ... .. . ... : ... .. . ... ...
ROW 4D : ... .. . ... ... ... : ... .. . ... ... ... : ... .. . ... : ... .. . ... : ... .. . ... ...
ROW 4E : ... .. . ... ... ... : ... .. . ... ... ... : ... .. . ... : ... .. . ... : ... .. . ... ...
ROW 4F : ... .. . ... ... ... : ... .. . ... ... ... : ... .. . ... : ... .. . ... : ... .. . ... ...
ROW 50 : ... .. 0 ... ... ... : ... .. 0 ... ... ... : ... .. . ... : ... .. . ... : ... .. . ... ...
ROW 51 : ... .. . ... ... ... : ... .. . ... ... ... : ... .. . ... : ... .. . ... : ... .. . ... ...
ROW 52 : ... .. . ... ... ... : ... .. . ... ... ... : ... .. . ... : ... .. . ... : ... .. . ... ...
ROW 53 : ... .. . ... ... ... : ... .. . ... ... ... : --- .. . ... : ... .. . ... : ... .. . ... ...
ROW 54 : ... .. . ... ... ... : ... .. . ... ... ... : ... .. . ... : ... .. . ... : ... .. . ... ...
ROW 55 : ... .. . ... ... ... : ... .. . ... ... ... : ... .. . ... : ... .. . ... : ... .. . ... ...
ROW 56 : B-3 00 8 P80 ... ... : G#4 00 8 P80 ... ... : ... .. . ... : ... .. . ... : ... .. . ... ...
ROW 57 : ... .. . ... ... ... : ... .. . ... ... ... : ... .. . ... : ... .. . ... : ... .. . ... ...
ROW 58 : ... .. . ... ... ... : ... .. . ... ... ... : ... .. . ... : ... .. . ... : ... .. . ... ...
ROW 59 : ... .. . ... ... ... : ... .. . ... ... ... : --- .. . ... : ... .. . ... : ... .. . ... ...
ROW 5A : ... .. . ... ... ... : ... .. . ... ... ... : ... .. . ... : ... .. . ... : ... .. . ... ...
ROW 5B : ... .. . ... ... ... : ... .. . ... ... ... : ... .. . ... : ... .. . ... : ... .. . ... ...
ROW 5C : ... .. . ... ... ... : ... .. . ... ... ... : ... .. . ... : ... .. E ... : ... .. . ... ...
ROW 5D : ... .. . ... ... ... : ... .. . ... ... ... : ... .. . ... : ... .. 0 ... : ... .. . ... ...
ROW 5E : ... .. . ... ... ... : ... .. . ... ... ... : ... .. . ... : ... .. . ... : ... .. . ... ...
ROW 5F : ... .. . ... ... ... : ... .. . ... ... ... : ... .. . ... : ... .. . ... : ... .. . ... ...
ROW 60 : ... .. . ... ... ... : ... .. . ... ... ... : ... .. . ... : ... .. . ... : ... .. . ... ...
ROW 61 : ... .. . ... ... ... : ... .. . ... ... ... : ... .. . ... : ... .. . ... : ... .. . ... ...
ROW 62 : ... .. . ... ... ... : ... .. . ... ... ... : G-3 00 . ... : ... .. E ... : ... .. . ... ...
ROW 63 : ... .. . ... ... ... : ... .. . ... ... ... : ... .. . ... : ... .. 0 ... : ... .. . ... ...
ROW 64 : ... .. . ... ... ... : ... .. . ... ... ... : ... .. . ... : ... .. . ... : ... .. . ... ...
ROW 65 : ... .. . ... ... ... : ... .. . ... ... ... : ... .. . ... : ... .. . ... : ... .. . ... ...
ROW 66 : ... .. . ... ... ... : ... .. . ... ... ... : ... .. . ... : ... .. . ... : ... .. . ... ...
ROW 67 : ... .. . ... ... ... : ... .. . ... ... ... : ... .. . ... : ... .. . ... : ... .. . ... ...
ROW 68 : ... .. . ... ... ... : ... .. . ... ... ... : ... .. . ... : F-# 00 0 ... : ... .. . ... ...
ROW 69 : ... .. . ... ... ... : ... .. . ... ... ... : ... .. . ... : ... .. . ... : ... .. . ... ...
ROW 6A : ... .. . ... ... ... : ... .. . ... ... ... : ... .. . ... : ... .. . ... : ... .. . ... ...
ROW 6B : ... .. . ... ... ... : ... .. . ... ... ... : --- .. . ... : ... .. . ... : ... .. . ... ...
ROW 6C : ... .. . ... ... ... : ... .. . ... ... ... : ... .. . ... : ... .. . ... : ... .. . ... ...
ROW 6D : ... .. . ... ... ... : ... .. . ... ... ... : ... .. . ... : ... .. . ... : ... .. . ... ...
ROW 6E : ... .. 0 ... ... ... : ... .. 0 ... ... ... : ... .. . ... : C-# 00 E ... : ... .. . ... ...
ROW 6F : ... .. . ... ... ... : ... .. . ... ... ... : ... .. . ... : ... .. 0 ... : ... .. . ... ...
ROW 70 : ... .. . ... ... ... : ... .. . ... ... ... : ... .. . ... : ... .. . ... : ... .. . ... ...
ROW 71 : ... .. . ... ... ... : ... .. . ... ... ... : --- .. . ... : ... .. . ... : ... .. . ... ...
ROW 72 : ... .. . ... ... ... : ... .. . ... ... ... : ... .. . ... : ... .. . ... : ... .. . ... ...
ROW 73 : ... .. . ... ... ... : ... .. . ... ... ... : ... .. . ... : ... .. . ... : ... .. . ... ...
ROW 74 : C#3 00 8 P80 ... ... : A#3 00 8 P81 ... ... : ... .. . ... : ... .. . ... : ... .. . ... ...
ROW 75 : ... .. . ... ... ... : ... .. . ... ... ... : ... .. . ... : ... .. . ... : ... .. . ... ...
ROW 76 : ... .. 7 ... ... ... : ... .. 7 ... ... ... : ... .. . ... : ... .. . ... : ... .. . ... ...
ROW 77 : ... .. . ... ... ... : ... .. . ... ... ... : ... .. . ... : ... .. . ... : ... .. . ... ...
ROW 78 : ... .. . ... ... ... : ... .. . ... ... ... : ... .. . ... : ... .. . ... : ... .. . ... ...
ROW 79 : ... .. . ... ... ... : ... .. . ... ... ... : ... .. . ... : ... .. . ... : ... .. . ... ...
ROW 7A : G-3 00 8 P80 ... ... : C#4 00 8 P80 ... ... : G-3 00 . ... : C-# 00 E ... : ... .. . ... ...
ROW 7B : ... .. . ... ... ... : ... .. . ... ... ... : ... .. . ... : ... .. 0 ... : ... .. . ... ...
ROW 7C : ... .. 7 ... ... ... : ... .. 7 ... ... ... : ... .. . ... : ... .. . ... : ... .. . ... ...
ROW 7D : ... .. . ... ... ... : ... .. . ... ... ... : ... .. . ... : ... .. . ... : ... .. . ... ...
ROW 7E : ... .. . ... ... ... : ... .. . ... ... ... : ... .. . ... : ... .. . ... : ... .. . ... ...
ROW 7F : ... .. . ... ... ... : ... .. . ... ... ... : ... .. . ... : ... .. . ... : ... .. . ... ...
ROW 80 : ... .. 0 ... ... ... : ... .. 0 ... ... ... : ... .. . ... : ... .. . ... : ... .. . ... ...
ROW 81 : ... .. . ... ... ... : ... .. . ... ... ... : ... .. . ... : ... .. . ... : ... .. . ... ...
ROW 82 : ... .. . ... ... ... : ... .. . ... ... ... : ... .. . ... : ... .. . ... : ... .. . ... ...
ROW 83 : ... .. . ... ... ... : ... .. . ... ... ... : --- .. . ... : ... .. . ... : ... .. . ... ...
ROW 84 : ... .. . ... ... ... : ... .. . ... ... ... : ... .. . ... : ... .. . ... : ... .. . ... ...
ROW 85 : ... .. . ... ... ... : ... .. . ... ... ... : ... .. . ... : ... .. . ... : ... .. . ... ...
ROW 86 : A#3 00 8 P81 ... ... : G-4 00 8 P81 ... ... : ... .. . ... : ... .. . ... : ... .. . ... ...
ROW 87 : ... .. . ... ... ... : ... .. . ... ... ... : ... .. . ... : ... .. . ... : ... .. . ... ...
ROW 88 : ... .. . ... ... ... : ... .. . ... ... ... : ... .. . ... : ... .. . ... : ... .. . ... ...
ROW 89 : ... .. . ... ... ... : ... .. . ... ... ... : --- .. . ... : ... .. . ... : ... .. . ... ...
ROW 8A : ... .. . ... ... ... : ... .. . ... ... ... : ... .. . ... : ... .. . ... : ... .. . ... ...
ROW 8B : ... .. . ... ... ... : ... .. . ... ... ... : ... .. . ... : ... .. . ... : ... .. . ... ...
ROW 8C : C#3 00 8 P80 ... ... : A#3 00 8 P81 ... ... : ... .. . ... : ... .. . ... : ... .. . ... ...
ROW 8D : ... .. . ... ... ... : ... .. . ... ... ... : ... .. . ... : ... .. . ... : ... .. . ... ...
ROW 8E : ... .. 7 ... ... ... : ... .. 7 ... ... ... : ... .. . ... : ... .. . ... : ... .. . ... ...
ROW 8F : ... .. . ... ... ... : ... .. . ... ... ... : ... .. . ... : ... .. . ... : ... .. . ... ...
ROW 90 : ... .. . ... ... ... : ... .. . ... ... ... : ... .. . ... : ... .. . ... : ... .. . ... ...
ROW 91 : ... .. . ... ... ... : ... .. . ... ... ... : ... .. . ... : ... .. . ... : ... .. . ... ...
ROW 92 : G-3 00 8 P80 ... ... : C#4 00 8 P80 ... ... : G-3 00 . ... : C-# 00 E ... : ... .. . ... ...
ROW 93 : ... .. . ... ... ... : ... .. . ... ... ... : ... .. . ... : ... .. 0 ... : ... .. . ... ...
ROW 94 : ... .. 7 ... ... ... : ... .. 7 ... ... ... : ... .. . ... : ... .. . ... : ... .. . ... ...
ROW 95 : ... .. . ... ... ... : ... .. . ... ... ... : ... .. . ... : ... .. . ... : ... .. . ... ...
ROW 96 : ... .. . ... ... ... : ... .. . ... ... ... : ... .. . ... : ... .. . ... : ... .. . ... ...
ROW 97 : ... .. . ... ... ... : ... .. . ... ... ... : ... .. . ... : ... .. . ... : ... .. . ... ...
ROW 98 : ... .. 0 ... ... ... : ... .. 0 ... ... ... : ... .. . ... : ... .. . ... : ... .. . ... ...
ROW 99 : ... .. . ... ... ... : ... .. . ... ... ... : ... .. . ... : ... .. . ... : ... .. . ... ...
ROW 9A : ... .. . ... ... ... : ... .. . ... ... ... : ... .. . ... : ... .. . ... : ... .. . ... ...
ROW 9B : ... .. . ... ... ... : ... .. . ... ... ... : --- .. . ... : ... .. . ... : ... .. . ... ...
ROW 9C : ... .. . ... ... ... : ... .. . ... ... ... : ... .. . ... : ... .. . ... : ... .. . ... ...
ROW 9D : ... .. . ... ... ... : ... .. . ... ... ... : ... .. . ... : ... .. . ... : ... .. . ... ...
ROW 9E : A#3 00 8 P81 ... ... : G-4 00 8 P81 ... ... : ... .. . ... : ... .. . ... : ... .. . ... ...
ROW 9F : ... .. . ... ... ... : ... .. . ... ... ... : ... .. . ... : ... .. . ... : ... .. . ... ...
ROW A0 : ... .. 7 ... ... ... : ... .. 7 ... ... ... : ... .. . ... : ... .. . ... : ... .. . ... ...
ROW A1 : ... .. . ... ... ... : ... .. . ... ... ... : --- .. . ... : ... .. . ... : ... .. . ... ...
ROW A2 : ... .. . ... ... ... : ... .. . ... ... ... : ... .. . ... : ... .. . ... : ... .. . ... ...
ROW A3 : ... .. . ... ... ... : ... .. . ... ... ... : ... .. . ... : ... .. . ... : ... .. . ... ...
ROW A4 : C#4 00 8 P81 ... ... : G-4 00 8 P81 ... ... : ... .. . ... : ... .. . ... : ... .. . ... ...
ROW A5 : ... .. . ... ... ... : ... .. . ... ... ... : ... .. . ... : ... .. . ... : ... .. . ... ...
ROW A6 : ... .. 7 ... ... ... : ... .. 7 ... ... ... : ... .. . ... : ... .. . ... : ... .. . ... ...
ROW A7 : ... .. . ... ... ... : ... .. . ... ... ... : ... .. . ... : ... .. . ... : ... .. . ... ...
ROW A8 : ... .. . ... ... ... : ... .. . ... ... ... : ... .. . ... : ... .. . ... : ... .. . ... ...
ROW A9 : ... .. . ... ... ... : ... .. . ... ... ... : ... .. . ... : ... .. . ... : ... .. . ... ...
ROW AA : D#4 00 8 P81 ... ... : B-4 00 8 P80 ... ... : G-3 00 . P80 : C-# 00 E ... : ... .. . ... ...
ROW AB : ... .. . ... ... ... : ... .. . ... ... ... : ... .. . ... : ... .. 0 ... : ... .. . ... ...
ROW AC : ... .. 7 ... ... ... : ... .. 7 ... ... ... : ... .. . ... : ... .. . ... : ... .. . ... ...
ROW AD : ... .. . ... ... ... : ... .. . ... ... ... : ... .. . ... : ... .. . ... : ... .. . ... ...
ROW AE : ... .. . ... ... ... : ... .. . ... ... ... : ... .. . ... : ... .. . ... : ... .. . ... ...
ROW AF : ... .. . ... ... ... : ... .. . ... ... ... : ... .. . ... : ... .. . ... : ... .. . ... ...
ROW B0 : ... .. 0 ... ... ... : ... .. 0 ... ... ... : ... .. . ... : ... .. . ... : ... .. . ... ...
ROW B1 : ... .. . ... ... ... : ... .. . ... ... ... : ... .. . ... : ... .. . ... : ... .. . ... ...
ROW B2 : ... .. . ... ... ... : ... .. . ... ... ... : ... .. . ... : ... .. . ... : ... .. . ... ...
ROW B3 : ... .. . ... ... ... : ... .. . ... ... ... : --- .. . ... : ... .. . ... : ... .. . ... ...
ROW B4 : ... .. . ... ... ... : ... .. . ... ... ... : ... .. . ... : ... .. . ... : ... .. . ... ...
ROW B5 : ... .. . ... ... ... : ... .. . ... ... ... : ... .. . ... : ... .. . ... : ... .. . ... ...
ROW B6 : C#4 00 8 P81 ... ... : G#4 00 8 P80 ... ... : ... .. . ... : ... .. . ... : ... .. . ... ...
ROW B7 : ... .. . ... ... ... : ... .. . ... ... ... : ... .. . ... : ... .. . ... : ... .. . ... ...
ROW B8 : ... .. . ... ... ... : ... .. . ... ... ... : ... .. . ... : ... .. . ... : ... .. . ... ...
ROW B9 : ... .. . ... ... ... : ... .. . ... ... ... : --- .. . ... : ... .. . ... : ... .. . ... ...
ROW BA : ... .. . ... ... ... : ... .. . ... ... ... : ... .. . ... : ... .. . ... : ... .. . ... ...
ROW BB : ... .. . ... ... ... : ... .. . ... ... ... : ... .. . ... : ... .. . ... : ... .. . ... ...
ROW BC : ... .. . ... ... ... : ... .. . ... ... ... : ... .. . ... : ... .. E ... : ... .. . ... ...
ROW BD : ... .. . ... ... ... : ... .. . ... ... ... : ... .. . ... : ... .. 0 ... : ... .. . ... ...
ROW BE : ... .. . ... ... ... : ... .. . ... ... ... : ... .. . ... : ... .. . ... : ... .. . ... ...
ROW BF : ... .. . ... ... ... : ... .. . ... ... ... : ... .. . ... : ... .. . ... : ... .. . ... ...
ROW C0 : ... .. . ... ... ... : ... .. . ... ... ... : ... .. . ... : ... .. . ... : ... .. . ... ...
ROW C1 : ... .. . ... ... ... : ... .. . ... ... ... : ... .. . ... : ... .. . ... : ... .. . ... ...
ROW C2 : ... .. . ... ... ... : ... .. . ... ... ... : G-3 00 . P80 : ... .. E ... : ... .. . ... ...
ROW C3 : ... .. . ... ... ... : ... .. . ... ... ... : ... .. . ... : ... .. 0 ... : ... .. . ... ...
ROW C4 : ... .. . ... ... ... : ... .. . ... ... ... : ... .. . ... : ... .. . ... : ... .. . ... ...
ROW C5 : ... .. . ... ... ... : ... .. . ... ... ... : ... .. . ... : ... .. . ... : ... .. . ... ...
ROW C6 : ... .. . ... ... ... : ... .. . ... ... ... : ... .. . ... : ... .. . ... : ... .. . ... ...
ROW C7 : ... .. . ... ... ... : ... .. . ... ... ... : ... .. . ... : ... .. . ... : ... .. . ... ...
ROW C8 : ... .. . ... ... ... : ... .. . ... ... ... : ... .. . ... : F-# 00 0 ... : ... .. . ... ...
ROW C9 : ... .. . ... ... ... : ... .. . ... ... ... : ... .. . ... : ... .. . ... : ... .. . ... ...
ROW CA : ... .. . ... ... ... : ... .. . ... ... ... : ... .. . ... : ... .. . ... : ... .. . ... ...
ROW CB : ... .. . ... ... ... : ... .. . ... ... ... : --- .. . ... : ... .. . ... : ... .. . ... ...
ROW CC : ... .. . ... ... ... : ... .. . ... ... ... : ... .. . ... : ... .. . ... : ... .. . ... ...
ROW CD : ... .. . ... ... ... : ... .. . ... ... ... : ... .. . ... : ... .. . ... : ... .. . ... ...
ROW CE : D#4 00 8 P81 ... ... : B-4 00 8 P80 ... ... : ... .. . ... : C-# 00 E ... : ... .. . ... ...
ROW CF : ... .. . ... ... ... : ... .. . ... ... ... : ... .. . ... : ... .. 0 ... : ... .. . ... ...
ROW D0 : ... .. . ... ... ... : ... .. . ... ... ... : ... .. . ... : ... .. . ... : ... .. . ... ...
ROW D1 : ... .. . ... ... ... : ... .. . ... ... ... : --- .. . ... : ... .. . ... : ... .. . ... ...
ROW D2 : ... .. . ... ... ... : ... .. . ... ... ... : ... .. . ... : ... .. . ... : ... .. . ... ...
ROW D3 : ... .. . ... ... ... : ... .. . ... ... ... : ... .. . ... : ... .. . ... : ... .. . ... ...
ROW D4 : G-4 00 8 P81 ... ... : B-4 00 8 P80 ... ... : ... .. . ... : ... .. . ... : ... .. . ... ...
ROW D5 : ... .. . ... ... ... : ... .. . ... ... ... : ... .. . ... : ... .. . ... : ... .. . ... ...
ROW D6 : ... .. 7 ... ... ... : ... .. 7 ... ... ... : ... .. . ... : ... .. . ... : ... .. . ... ...
ROW D7 : ... .. . ... ... ... : ... .. . ... ... ... : ... .. . ... : ... .. . ... : ... .. . ... ...
ROW D8 : ... .. . ... ... ... : ... .. . ... ... ... : ... .. . ... : ... .. . ... : ... .. . ... ...
ROW D9 : ... .. . ... ... ... : ... .. . ... ... ... : ... .. . ... : ... .. . ... : ... .. . ... ...
ROW DA : G#4 00 8 P80 ... ... : C-5 00 8 P81 ... ... : F-3 00 . ... : C-# 00 E ... : ... .. . ... ...
ROW DB : ... .. . ... ... ... : ... .. . ... ... ... : ... .. . ... : ... .. 0 ... : ... .. . ... ...
ROW DC : ... .. 7 ... ... ... : ... .. 7 ... ... ... : ... .. . ... : ... .. . ... : ... .. . ... ...
ROW DD : ... .. . ... ... ... : ... .. . ... ... ... : ... .. . ... : ... .. . ... : ... .. . ... ...
ROW DE : ... .. . ... ... ... : ... .. . ... ... ... : ... .. . ... : ... .. . ... : ... .. . ... ...
ROW DF : ... .. . ... ... ... : ... .. . ... ... ... : ... .. . ... : ... .. . ... : ... .. . ... ...
ROW E0 : ... .. 0 ... ... ... : ... .. 0 ... ... ... : ... .. . ... : ... .. . ... : ... .. . ... ...
ROW E1 : ... .. . ... ... ... : ... .. . ... ... ... : ... .. . ... : ... .. . ... : ... .. . ... ...
ROW E2 : ... .. . ... ... ... : ... .. . ... ... ... : ... .. . ... : ... .. . ... : ... .. . ... ...
ROW E3 : ... .. . ... ... ... : ... .. . ... ... ... : --- .. . ... : ... .. . ... : ... .. . ... ...
ROW E4 : ... .. . ... ... ... : ... .. . ... ... ... : ... .. . ... : ... .. . ... : ... .. . ... ...
ROW E5 : ... .. . ... ... ... : ... .. . ... ... ... : ... .. . ... : ... .. . ... : ... .. . ... ...
ROW E6 : F-4 00 8 P80 ... ... : G#4 00 8 P80 ... ... : ... .. . ... : ... .. . ... : ... .. . ... ...
ROW E7 : ... .. . ... ... ... : ... .. . ... ... ... : ... .. . ... : ... .. . ... : ... .. . ... ...
ROW E8 : ... .. . ... ... ... : ... .. . ... ... ... : ... .. . ... : ... .. . ... : ... .. . ... ...
ROW E9 : ... .. . ... ... ... : ... .. . ... ... ... : --- .. . ... : ... .. . ... : ... .. . ... ...
ROW EA : ... .. . ... ... ... : ... .. . ... ... ... : ... .. . ... : ... .. . ... : ... .. . ... ...
ROW EB : ... .. . ... ... ... : ... .. . ... ... ... : ... .. . ... : ... .. . ... : ... .. . ... ...
ROW EC : G#4 00 8 P80 ... ... : C-5 00 8 P81 ... ... : ... .. . ... : ... .. . ... : ... .. . ... ...
ROW ED : ... .. . ... ... ... : ... .. . ... ... ... : ... .. . ... : ... .. . ... : ... .. . ... ...
ROW EE : ... .. 7 ... ... ... : ... .. 7 ... ... ... : ... .. . ... : ... .. . ... : ... .. . ... ...
ROW EF : ... .. . ... ... ... : ... .. . ... ... ... : ... .. . ... : ... .. . ... : ... .. . ... ...
ROW F0 : ... .. . ... ... ... : ... .. . ... ... ... : ... .. . ... : ... .. . ... : ... .. . ... ...
ROW F1 : ... .. . ... ... ... : ... .. . ... ... ... : ... .. . ... : ... .. . ... : ... .. . ... ...
ROW F2 : G-4 00 8 P81 ... ... : B-4 00 8 P80 ... ... : F#3 00 . ... : C-# 00 E ... : ... .. . ... ...
ROW F3 : ... .. . ... ... ... : ... .. . ... ... ... : ... .. . ... : ... .. 0 ... : ... .. . ... ...
ROW F4 : ... .. 7 ... ... ... : ... .. 7 ... ... ... : ... .. . ... : ... .. . ... : ... .. . ... ...
ROW F5 : ... .. . ... ... ... : ... .. . ... ... ... : ... .. . ... : ... .. . ... : ... .. . ... ...
ROW F6 : ... .. . ... ... ... : ... .. . ... ... ... : ... .. . ... : ... .. . ... : ... .. . ... ...
ROW F7 : ... .. . ... ... ... : ... .. . ... ... ... : ... .. . ... : ... .. . ... : ... .. . ... ...
ROW F8 : ... .. 0 ... ... ... : ... .. 0 ... ... ... : ... .. . ... : ... .. . ... : ... .. . ... ...
ROW F9 : ... .. . ... ... ... : ... .. . ... ... ... : ... .. . ... : ... .. . ... : ... .. . ... ...
ROW FA : ... .. . ... ... ... : ... .. . ... ... ... : ... .. . ... : ... .. . ... : ... .. . ... ...
ROW FB : ... .. . ... ... ... : ... .. . ... ... ... : --- .. . ... : ... .. . ... : ... .. . ... ...
ROW FC : ... .. . ... ... ... : ... .. . ... ... ... : ... .. . ... : ... .. . ... : ... .. . ... ...
ROW FD : ... .. . ... ... ... : ... .. . ... ... ... : ... .. . ... : ... .. . ... : ... .. . ... ...
ROW FE : F#4 00 8 P80 ... ... : G#4 00 8 P80 ... ... : ... .. . ... : ... .. . ... : ... .. . ... ...
ROW FF : ... .. . ... ... ... : ... .. . ... ... ... : ... .. . ... : ... .. . ... : ... .. . ... ...

PATTERN 1E
ROW 00 : ... .. . ... ... ... : ... .. . ... ... ... : ... .. . ... : ... .. . ... : ... .. . ... ...
ROW 01 : ... .. . ... ... ... : ... .. . ... ... ... : --- .. . ... : ... .. . ... : ... .. . ... ...
ROW 02 : ... .. . ... ... ... : ... .. . ... ... ... : ... .. . ... : ... .. . ... : ... .. . ... ...
ROW 03 : ... .. . ... ... ... : ... .. . ... ... ... : ... .. . ... : ... .. . ... : ... .. . ... ...
ROW 04 : D-4 00 8 P81 ... ... : F#4 00 8 P80 ... ... : ... .. . ... : ... .. . ... : ... .. . ... ...
ROW 05 : ... .. . ... ... ... : ... .. . ... ... ... : ... .. . ... : ... .. . ... : ... .. . ... ...
ROW 06 : ... .. 7 ... ... ... : ... .. 7 ... ... ... : ... .. . ... : ... .. . ... : ... .. . ... ...
ROW 07 : ... .. . ... ... ... : ... .. . ... ... ... : ... .. . ... : ... .. . ... : ... .. . ... ...
ROW 08 : ... .. . ... ... ... : ... .. . ... ... ... : ... .. . ... : ... .. . ... : ... .. . ... ...
ROW 09 : ... .. . ... ... ... : ... .. . ... ... ... : ... .. . ... : ... .. . ... : ... .. . ... ...
ROW 0A : D#4 00 8 P81 ... ... : G-4 00 8 P81 ... ... : G-3 00 . ... : C-# 00 E ... : ... .. . ... ...
ROW 0B : ... .. . ... ... ... : ... .. . ... ... ... : ... .. . ... : ... .. 0 ... : ... .. . ... ...
ROW 0C : ... .. 7 ... ... ... : ... .. 7 ... ... ... : ... .. . ... : ... .. . ... : ... .. . ... ...
ROW 0D : ... .. . ... ... ... : ... .. . ... ... ... : ... .. . ... : ... .. . ... : ... .. . ... ...
ROW 0E : ... .. . ... ... ... : ... .. . ... ... ... : ... .. . ... : ... .. . ... : ... .. . ... ...
ROW 0F : ... .. . ... ... ... : ... .. . ... ... ... : ... .. . ... : ... .. . ... : ... .. . ... ...
ROW 10 : ... .. 0 ... ... ... : ... .. 0 ... ... ... : ... .. . ... : ... .. . ... : ... .. . ... ...
ROW 11 : ... .. . ... ... ... : ... .. . ... ... ... : ... .. . ... : ... .. . ... : ... .. . ... ...
ROW 12 : ... .. . ... ... ... : ... .. . ... ... ... : ... .. . ... : ... .. . ... : ... .. . ... ...
ROW 13 : ... .. . ... ... ... : ... .. . ... ... ... : --- .. . ... : ... .. . ... : ... .. . ... ...
ROW 14 : ... .. . ... ... ... : ... .. . ... ... ... : ... .. . ... : ... .. . ... : ... .. . ... ...
ROW 15 : ... .. . ... ... ... : ... .. . ... ... ... : ... .. . ... : ... .. . ... : ... .. . ... ...
ROW 16 : C-4 00 8 P81 ... ... : D#4 00 8 P81 ... ... : ... .. . ... : ... .. . ... : ... .. . ... ...
ROW 17 : ... .. . ... ... ... : ... .. . ... ... ... : ... .. . ... : ... .. . ... : ... .. . ... ...
ROW 18 : ... .. . ... ... ... : ... .. . ... ... ... : ... .. . ... : ... .. . ... : ... .. . ... ...
ROW 19 : ... .. . ... ... ... : ... .. . ... ... ... : --- .. . ... : ... .. . ... : ... .. . ... ...
ROW 1A : ... .. . ... ... ... : ... .. . ... ... ... : ... .. . ... : ... .. . ... : ... .. . ... ...
ROW 1B : ... .. . ... ... ... : ... .. . ... ... ... : ... .. . ... : ... .. . ... : ... .. . ... ...
ROW 1C : G#3 00 8 P80 ... ... : C#4 00 8 P81 ... ... : ... .. . ... : ... .. E ... : ... .. . ... ...
ROW 1D : ... .. . ... ... ... : ... .. . ... ... ... : ... .. . ... : ... .. 0 ... : ... .. . ... ...
ROW 1E : ... .. 7 ... ... ... : ... .. 7 ... ... ... : ... .. . ... : ... .. . ... : ... .. . ... ...
ROW 1F : ... .. . ... ... ... : ... .. . ... ... ... : ... .. . ... : ... .. . ... : ... .. . ... ...
ROW 20 : ... .. . ... ... ... : ... .. . ... ... ... : ... .. . ... : ... .. . ... : ... .. . ... ...
ROW 21 : ... .. . ... ... ... : ... .. . ... ... ... : ... .. . ... : ... .. . ... : ... .. . ... ...
ROW 22 : B-3 00 8 P80 ... ... : C#4 00 8 P80 ... ... : G#3 00 . P80 : ... .. E ... : ... .. . ... ...
ROW 23 : ... .. . ... ... ... : ... .. . ... ... ... : ... .. . ... : ... .. 0 ... : ... .. . ... ...
ROW 24 : ... .. 7 ... ... ... : ... .. 7 ... ... ... : ... .. . ... : ... .. . ... : ... .. . ... ...
ROW 25 : ... .. . ... ... ... : ... .. . ... ... ... : ... .. . ... : ... .. . ... : ... .. . ... ...
ROW 26 : ... .. . ... ... ... : ... .. . ... ... ... : ... .. . ... : ... .. . ... : ... .. . ... ...
ROW 27 : ... .. . ... ... ... : ... .. . ... ... ... : ... .. . ... : ... .. . ... : ... .. . ... ...
ROW 28 : ... .. 0 ... ... ... : ... .. 0 ... ... ... : ... .. . ... : F-# 00 0 ... : ... .. . ... ...
ROW 29 : ... .. . ... ... ... : ... .. . ... ... ... : ... .. . ... : ... .. . ... : ... .. . ... ...
ROW 2A : ... .. . ... ... ... : ... .. . ... ... ... : ... .. . ... : ... .. . ... : ... .. . ... ...
ROW 2B : ... .. . ... ... ... : ... .. . ... ... ... : --- .. . ... : ... .. . ... : ... .. . ... ...
ROW 2C : ... .. . ... ... ... : ... .. . ... ... ... : ... .. . ... : ... .. . ... : ... .. . ... ...
ROW 2D : ... .. . ... ... ... : ... .. . ... ... ... : ... .. . ... : ... .. . ... : ... .. . ... ...
ROW 2E : C#4 00 8 P81 ... ... : D#4 00 8 P81 ... ... : ... .. . ... : C-# 00 E ... : ... .. . ... ...
ROW 2F : ... .. . ... ... ... : ... .. . ... ... ... : ... .. . ... : ... .. 0 ... : ... .. . ... ...
ROW 30 : ... .. . ... ... ... : ... .. . ... ... ... : ... .. . ... : ... .. . ... : ... .. . ... ...
ROW 31 : ... .. . ... ... ... : ... .. . ... ... ... : --- .. . ... : ... .. . ... : ... .. . ... ...
ROW 32 : ... .. . ... ... ... : ... .. . ... ... ... : ... .. . ... : ... .. . ... : ... .. . ... ...
ROW 33 : ... .. . ... ... ... : ... .. . ... ... ... : ... .. . ... : ... .. . ... : ... .. . ... ...
ROW 34 : C-4 00 8 P81 ... ... : D#4 00 8 P81 ... ... : ... .. . ... : ... .. . ... : ... .. . ... ...
ROW 35 : ... .. . ... ... ... : ... .. . ... ... ... : ... .. . ... : ... .. . ... : ... .. . ... ...
ROW 36 : ... .. 7 ... ... ... : ... .. 7 ... ... ... : ... .. . ... : ... .. . ... : ... .. . ... ...
ROW 37 : ... .. . ... ... ... : ... .. . ... ... ... : ... .. . ... : ... .. . ... : ... .. . ... ...
ROW 38 : ... .. . ... ... ... : ... .. . ... ... ... : ... .. . ... : ... .. . ... : ... .. . ... ...
ROW 39 : ... .. . ... ... ... : ... .. . ... ... ... : ... .. . ... : ... .. . ... : ... .. . ... ...
ROW 3A : C#4 00 8 P80 ... ... : F-4 00 8 P80 ... ... : F-3 00 . ... : C-# 00 E ... : ... .. . ... ...
ROW 3B : ... .. . ... ... ... : ... .. . ... ... ... : ... .. . ... : ... .. 0 ... : ... .. . ... ...
ROW 3C : ... .. 7 ... ... ... : ... .. 7 ... ... ... : ... .. . ... : ... .. . ... : ... .. . ... ...
ROW 3D : ... .. . ... ... ... : ... .. . ... ... ... : ... .. . ... : ... .. . ... : ... .. . ... ...
ROW 3E : ... .. . ... ... ... : ... .. . ... ... ... : ... .. . ... : ... .. . ... : ... .. . ... ...
ROW 3F : ... .. . ... ... ... : ... .. . ... ... ... : ... .. . ... : ... .. . ... : ... .. . ... ...
ROW 40 : ... .. 0 ... ... ... : ... .. 0 ... ... ... : ... .. . ... : ... .. . ... : ... .. . ... ...
ROW 41 : ... .. . ... ... ... : ... .. . ... ... ... : ... .. . ... : ... .. . ... : ... .. . ... ...
ROW 42 : ... .. . ... ... ... : ... .. . ... ... ... : ... .. . ... : ... .. . ... : ... .. . ... ...
ROW 43 : ... .. . ... ... ... : ... .. . ... ... ... : --- .. . ... : ... .. . ... : ... .. . ... ...
ROW 44 : ... .. . ... ... ... : ... .. . ... ... ... : ... .. . ... : ... .. . ... : ... .. . ... ...
ROW 45 : ... .. . ... ... ... : ... .. . ... ... ... : ... .. . ... : ... .. . ... : ... .. . ... ...
ROW 46 : G-3 00 8 P80 ... ... : B-3 00 8 P80 ... ... : ... .. . ... : ... .. . ... : ... .. . ... ...
ROW 47 : ... .. . ... ... ... : ... .. . ... ... ... : ... .. . ... : ... .. . ... : ... .. . ... ...
ROW 48 : ... .. . ... ... ... : ... .. . ... ... ... : ... .. . ... : ... .. . ... : ... .. . ... ...
ROW 49 : ... .. . ... ... ... : ... .. . ... ... ... : --- .. . ... : ... .. . ... : ... .. . ... ...
ROW 4A : ... .. . ... ... ... : ... .. . ... ... ... : ... .. . ... : ... .. . ... : ... .. . ... ...
ROW 4B : ... .. . ... ... ... : ... .. . ... ... ... : ... .. . ... : ... .. . ... : ... .. . ... ...
ROW 4C : C-4 00 8 P81 ... ... : D#4 00 8 P81 ... ... : ... .. . ... : ... .. . ... : ... .. . ... ...
ROW 4D : ... .. . ... ... ... : ... .. . ... ... ... : ... .. . ... : ... .. . ... : ... .. . ... ...
ROW 4E : ... .. 7 ... ... ... : ... .. 7 ... ... ... : ... .. . ... : ... .. . ... : ... .. . ... ...
ROW 4F : ... .. . ... ... ... : ... .. . ... ... ... : ... .. . ... : ... .. . ... : ... .. . ... ...
ROW 50 : ... .. . ... ... ... : ... .. . ... ... ... : ... .. . ... : ... .. . ... : ... .. . ... ...
ROW 51 : ... .. . ... ... ... : ... .. . ... ... ... : ... .. . ... : ... .. . ... : ... .. . ... ...
ROW 52 : B-3 00 8 P80 ... ... : C#4 00 8 P80 ... ... : C#3 00 . ... : C-# 00 E ... : ... .. . ... ...
ROW 53 : ... .. . ... ... ... : ... .. . ... ... ... : ... .. . ... : ... .. 0 ... : ... .. . ... ...
ROW 54 : ... .. 7 ... ... ... : ... .. 7 ... ... ... : ... .. . ... : ... .. . ... : ... .. . ... ...
ROW 55 : ... .. . ... ... ... : ... .. . ... ... ... : ... .. . ... : ... .. . ... : ... .. . ... ...
ROW 56 : ... .. . ... ... ... : ... .. . ... ... ... : ... .. . ... : ... .. . ... : ... .. . ... ...
ROW 57 : ... .. . ... ... ... : ... .. . ... ... ... : ... .. . ... : ... .. . ... : ... .. . ... ...
ROW 58 : ... .. 0 ... ... ... : ... .. 0 ... ... ... : ... .. . ... : ... .. . ... : ... .. . ... ...
ROW 59 : ... .. . ... ... ... : ... .. . ... ... ... : ... .. . ... : ... .. . ... : ... .. . ... ...
ROW 5A : ... .. . ... ... ... : ... .. . ... ... ... : ... .. . ... : ... .. . ... : ... .. . ... ...
ROW 5B : ... .. . ... ... ... : ... .. . ... ... ... : --- .. . ... : ... .. . ... : ... .. . ... ...
ROW 5C : ... .. . ... ... ... : ... .. . ... ... ... : ... .. . ... : ... .. . ... : ... .. . ... ...
ROW 5D : ... .. . ... ... ... : ... .. . ... ... ... : ... .. . ... : ... .. . ... : ... .. . ... ...
ROW 5E : G-3 00 8 P80 ... ... : C-4 00 8 P81 ... ... : ... .. . ... : ... .. . ... : ... .. . ... ...
ROW 5F : ... .. . ... ... ... : ... .. . ... ... ... : ... .. . ... : ... .. . ... : ... .. . ... ...
ROW 60 : ... .. . ... ... ... : ... .. . ... ... ... : ... .. . ... : ... .. . ... : ... .. . ... ...
ROW 61 : ... .. . ... ... ... : ... .. . ... ... ... : --- .. . ... : ... .. . ... : ... .. . ... ...
ROW 62 : ... .. . ... ... ... : ... .. . ... ... ... : ... .. . ... : ... .. . ... : ... .. . ... ...
ROW 63 : ... .. . ... ... ... : ... .. . ... ... ... : ... .. . ... : ... .. . ... : ... .. . ... ...
ROW 64 : ... .. . ... ... ... : ... .. . ... ... ... : ... .. . ... : ... .. . ... : ... .. . ... ...
ROW 65 : ... .. . ... ... ... : ... .. . ... ... ... : ... .. . ... : ... .. . ... : ... .. . ... ...
ROW 66 : ... .. . ... ... ... : ... .. . ... ... ... : ... .. . ... : ... .. . ... : ... .. . ... ...
ROW 67 : ... .. . ... ... ... : ... .. . ... ... ... : ... .. . ... : ... .. . ... : ... .. . ... ...
ROW 68 : ... .. . ... ... ... : ... .. . ... ... ... : ... .. . ... : ... .. . ... : ... .. . ... ...
ROW 69 : ... .. . ... ... ... : ... .. . ... ... ... : ... .. . ... : ... .. . ... : ... .. . ... ...
ROW 6A : ... .. . ... ... ... : ... .. . ... ... ... : G-2 00 . ... : C-# 00 E ... : ... .. . ... ...
ROW 6B : ... .. . ... ... ... : ... .. . ... ... ... : ... .. . ... : ... .. 0 ... : ... .. . ... ...
ROW 6C : ... .. . ... ... ... : ... .. . ... ... ... : ... .. . ... : ... .. . ... : ... .. . ... ...
ROW 6D : ... .. . ... ... ... : ... .. . ... ... ... : ... .. . ... : ... .. . ... : ... .. . ... ...
ROW 6E : ... .. . ... ... ... : ... .. . ... ... ... : ... .. . ... : ... .. . ... : ... .. . ... ...
ROW 6F : ... .. . ... ... ... : ... .. . ... ... ... : ... .. . ... : ... .. . ... : ... .. . ... ...
ROW 70 : ... .. . ... ... ... : ... .. . ... ... ... : ... .. . ... : ... .. . ... : ... .. . ... ...
ROW 71 : ... .. . ... ... ... : ... .. . ... ... ... : ... .. . ... : ... .. . ... : ... .. . ... ...
ROW 72 : ... .. . ... ... ... : ... .. . ... ... ... : ... .. . ... : ... .. . ... : ... .. . ... ...
ROW 73 : ... .. . ... ... ... : ... .. . ... ... ... : --- .. . ... : ... .. . ... : ... .. . ... ...
ROW 74 : ... .. . ... ... ... : ... .. . ... ... ... : ... .. . ... : ... .. . ... : ... .. . ... ...
ROW 75 : ... .. . ... ... ... : ... .. . ... ... ... : ... .. . ... : ... .. . ... : ... .. . ... ...
ROW 76 : ... .. 0 ... ... ... : ... .. 0 ... ... ... : ... .. . ... : ... .. . ... : ... .. . ... ...
ROW 77 : ... .. . ... ... ... : ... .. . ... ... ... : ... .. . ... : ... .. . ... : ... .. . ... ...
ROW 78 : ... .. . ... ... ... : ... .. . ... ... ... : ... .. . ... : ... .. . ... : ... .. . ... ...
ROW 79 : ... .. . ... ... ... : ... .. . ... ... ... : --- .. . ... : ... .. . ... : ... .. . ... ...
ROW 7A : ... .. . ... ... ... : ... .. . ... ... ... : ... .. . ... : ... .. . ... : ... .. . ... ...
ROW 7B : ... .. . ... ... ... : ... .. . ... ... ... : ... .. . ... : ... .. . ... : ... .. . ... ...
ROW 7C : ... .. . ... ... ... : ... .. . ... ... ... : ... .. . ... : ... .. E ... : ... .. . ... ...
ROW 7D : ... .. . ... ... ... : ... .. . ... ... ... : ... .. . ... : ... .. 0 ... : ... .. . ... ...
ROW 7E : ... .. . ... ... ... : ... .. . ... ... ... : ... .. . ... : ... .. . ... : ... .. . ... ...
ROW 7F : ... .. . ... ... ... : ... .. . ... ... ... : ... .. . ... : ... .. . ... : ... .. . ... ...
ROW 80 : ... .. . ... ... ... : ... .. . ... ... ... : ... .. . ... : ... .. . ... : ... .. . ... ...
ROW 81 : ... .. . ... ... ... : ... .. . ... ... ... : ... .. . ... : ... .. . ... : ... .. . ... ...
ROW 82 : ... .. . ... ... ... : ... .. . ... ... ... : ... .. . ... : ... .. E ... : ... .. . ... ...
ROW 83 : ... .. . ... ... ... : ... .. . ... ... ... : ... .. . ... : ... .. 0 ... : ... .. . ... ...
ROW 84 : ... .. . ... ... ... : ... .. . ... ... ... : ... .. . ... : ... .. . ... : ... .. . ... ...
ROW 85 : ... .. . ... ... ... : ... .. . ... ... ... : ... .. . ... : ... .. . ... : ... .. . ... ...
ROW 86 : ... .. . ... ... ... : ... .. . ... ... ... : ... .. . ... : ... .. . ... : ... .. . ... ...
ROW 87 : ... .. . ... ... ... : ... .. . ... ... ... : ... .. . ... : ... .. . ... : ... .. . ... ...
ROW 88 : ... .. . ... ... ... : ... .. . ... ... ... : ... .. . ... : F-# 00 0 ... : ... .. . ... ...
ROW 89 : ... .. . ... ... ... : ... .. . ... ... ... : ... .. . ... : ... .. . ... : ... .. . ... ...
ROW 8A : ... .. . ... ... ... : ... .. . ... ... ... : ... .. . ... : ... .. . ... : ... .. . ... ...
ROW 8B : ... .. . ... ... ... : ... .. . ... ... ... : ... .. . ... : ... .. . ... : ... .. . ... ...
ROW 8C : ... .. . ... ... ... : ... .. . ... ... ... : ... .. . ... : ... .. . ... : ... .. . ... ...
ROW 8D : ... .. . ... ... ... : ... .. . ... ... ... : ... .. . ... : ... .. . ... : ... .. . ... ...
ROW 8E : ... .. . ... ... ... : ... .. . ... ... ... : ... .. . ... : C-# 00 E ... : ... .. . ... ...
ROW 8F : ... .. . ... ... ... : ... .. . ... ... ... : ... .. . ... : ... .. 0 ... : ... .. . ... ...
ROW 90 : ... .. . ... ... ... : ... .. . ... ... ... : ... .. . ... : ... .. . ... : ... .. . ... ...
ROW 91 : ... .. . ... ... ... : ... .. . ... ... ... : --- .. . ... : ... .. . ... : ... .. . ... ...
ROW 92 : ... .. . ... ... ... : ... .. . ... ... ... : ... .. . ... : ... .. . ... : ... .. . ... ...
ROW 93 : ... .. . ... ... ... : ... .. . ... ... ... : ... .. . ... : ... .. . ... : ... .. . ... ...
ROW 94 : G-3 00 B P80 ... ... : D#4 00 B P81 ... ... : ... .. . ... : ... .. . ... : ... .. . ... ...
ROW 95 : ... .. A ... ... ... : ... .. A ... ... ... : ... .. . ... : ... .. . ... : ... .. . ... ...
ROW 96 : ... .. 9 ... ... ... : ... .. 9 ... ... ... : ... .. . ... : ... .. . ... : ... .. . ... ...
ROW 97 : ... .. 8 ... ... ... : ... .. 8 ... ... ... : ... .. . ... : ... .. . ... : ... .. . ... ...
ROW 98 : ... .. 7 ... ... ... : ... .. 7 ... ... ... : ... .. . ... : ... .. . ... : ... .. . ... ...
ROW 99 : ... .. 6 ... ... ... : ... .. 6 ... ... ... : ... .. . ... : ... .. . ... : ... .. . ... ...
ROW 9A : ... .. 5 ... ... ... : ... .. 5 ... ... ... : C#3 00 . ... : C-# 00 E ... : ... .. . ... ...
ROW 9B : ... .. 4 ... ... ... : ... .. 4 ... ... ... : ... .. . ... : ... .. 0 ... : ... .. . ... ...
ROW 9C : ... .. 3 ... ... ... : ... .. 3 ... ... ... : ... .. . ... : ... .. . ... : ... .. . ... ...
ROW 9D : ... .. 2 ... ... ... : ... .. 2 ... ... ... : ... .. . ... : ... .. . ... : ... .. . ... ...
ROW 9E : ... .. 1 ... ... ... : ... .. 1 ... ... ... : ... .. . ... : ... .. . ... : ... .. . ... ...
ROW 9F : ... .. . ... ... ... : ... .. . ... ... ... : ... .. . ... : ... .. . ... : ... .. . ... ...
ROW A0 : ... .. . ... ... ... : ... .. . ... ... ... : ... .. . ... : F-# 00 0 ... : ... .. . ... ...
ROW A1 : ... .. . ... ... ... : ... .. . ... ... ... : ... .. . ... : ... .. . ... : ... .. . ... ...
ROW A2 : ... .. . ... ... ... : ... .. . ... ... ... : ... .. . ... : ... .. . ... : ... .. . ... ...
ROW A3 : ... .. . ... ... ... : ... .. . ... ... ... : --- .. . ... : ... .. . ... : ... .. . ... ...
ROW A4 : ... .. . ... ... ... : ... .. . ... ... ... : ... .. . ... : ... .. . ... : ... .. . ... ...
ROW A5 : ... .. . ... ... ... : ... .. . ... ... ... : ... .. . ... : ... .. . ... : ... .. . ... ...
ROW A6 : ... .. . ... ... ... : ... .. . ... ... ... : ... .. . ... : C-# 00 E ... : ... .. . ... ...
ROW A7 : ... .. . ... ... ... : ... .. . ... ... ... : ... .. . ... : ... .. 0 ... : ... .. . ... ...
ROW A8 : ... .. . ... ... ... : ... .. . ... ... ... : ... .. . ... : ... .. . ... : ... .. . ... ...
ROW A9 : ... .. . ... ... ... : ... .. . ... ... ... : --- .. . ... : ... .. . ... : ... .. . ... ...
ROW AA : ... .. . ... ... ... : ... .. . ... ... ... : ... .. . ... : ... .. . ... : ... .. . ... ...
ROW AB : ... .. . ... ... ... : ... .. . ... ... ... : ... .. . ... : ... .. . ... : ... .. . ... ...
ROW AC : ... .. . ... ... ... : ... .. . ... ... ... : ... .. . ... : ... .. . ... : ... .. . ... ...
ROW AD : ... .. . ... ... ... : ... .. . ... ... ... : ... .. . ... : ... .. . ... : ... .. . ... ...
ROW AE : ... .. . ... ... ... : ... .. . ... ... ... : ... .. . ... : ... .. . ... : ... .. . ... ...
ROW AF : ... .. . ... ... ... : ... .. . ... ... ... : ... .. . ... : ... .. . ... : ... .. . ... ...
ROW B0 : ... .. . ... ... ... : ... .. . ... ... ... : ... .. . ... : ... .. . ... : ... .. . ... ...
ROW B1 : ... .. . ... ... ... : ... .. . ... ... ... : ... .. . ... : ... .. . ... : ... .. . ... ...
ROW B2 : D#4 00 B P81 ... ... : G#4 00 B P80 ... ... : G-3 00 . ... : C-# 00 E ... : ... .. . ... ...
ROW B3 : ... .. A ... ... ... : ... .. A ... ... ... : ... .. . ... : ... .. 0 ... : ... .. . ... ...
ROW B4 : ... .. 9 ... ... ... : ... .. 9 ... ... ... : ... .. . ... : ... .. . ... : ... .. . ... ...
ROW B5 : ... .. 8 ... ... ... : ... .. 8 ... ... ... : ... .. . ... : ... .. . ... : ... .. . ... ...
ROW B6 : ... .. 7 ... ... ... : ... .. 7 ... ... ... : ... .. . ... : ... .. . ... : ... .. . ... ...
ROW B7 : ... .. 6 ... ... ... : ... .. 6 ... ... ... : ... .. . ... : ... .. . ... : ... .. . ... ...
ROW B8 : ... .. 1 ... ... ... : ... .. 1 ... ... ... : ... .. . ... : F-# 00 0 ... : ... .. . ... ...
ROW B9 : ... .. . ... ... ... : ... .. . ... ... ... : ... .. . ... : ... .. . ... : ... .. . ... ...
ROW BA : ... .. . ... ... ... : ... .. . ... ... ... : ... .. . ... : ... .. . ... : ... .. . ... ...
ROW BB : ... .. . ... ... ... : ... .. . ... ... ... : --- .. . ... : ... .. . ... : ... .. . ... ...
ROW BC : ... .. . ... ... ... : ... .. . ... ... ... : ... .. . ... : ... .. . ... : ... .. . ... ...
ROW BD : ... .. . ... ... ... : ... .. . ... ... ... : ... .. . ... : ... .. . ... : ... .. . ... ...
ROW BE : G-4 00 B P81 ... ... : C-5 00 B P81 ... ... : ... .. . ... : C-# 00 E ... : ... .. . ... ...
ROW BF : ... .. A ... ... ... : ... .. A ... ... ... : ... .. . ... : ... .. 0 ... : ... .. . ... ...
ROW C0 : ... .. . ... ... ... : ... .. . ... ... ... : ... .. . ... : ... .. . ... : ... .. . ... ...
ROW C1 : ... .. . ... ... ... : ... .. . ... ... ... : --- .. . ... : ... .. . ... : ... .. . ... ...
ROW C2 : ... .. . ... ... ... : ... .. . ... ... ... : ... .. . ... : ... .. . ... : ... .. . ... ...
ROW C3 : ... .. . ... ... ... : ... .. . ... ... ... : ... .. . ... : ... .. . ... : ... .. . ... ...
ROW C4 : ... .. . ... ... ... : ... .. . ... ... ... : ... .. . ... : ... .. . ... : ... .. . ... ...
ROW C5 : ... .. . ... ... ... : ... .. . ... ... ... : ... .. . ... : ... .. . ... : ... .. . ... ...
ROW C6 : ... .. . ... ... ... : ... .. . ... ... ... : ... .. . ... : ... .. . ... : ... .. . ... ...
ROW C7 : ... .. . ... ... ... : ... .. . ... ... ... : ... .. . ... : ... .. . ... : ... .. . ... ...
ROW C8 : ... .. . ... ... ... : ... .. . ... ... ... : ... .. . ... : ... .. . ... : ... .. . ... ...
ROW C9 : ... .. . ... ... ... : ... .. . ... ... ... : ... .. . ... : ... .. . ... : ... .. . ... ...
ROW CA : ... .. . ... ... ... : ... .. . ... ... ... : G-3 00 . ... : C-# 00 E ... : ... .. . ... ...
ROW CB : ... .. . ... ... ... : ... .. . ... ... ... : ... .. . ... : ... .. 0 ... : ... .. . ... ...
ROW CC : ... .. . ... ... ... : ... .. . ... ... ... : ... .. . ... : ... .. . ... : ... .. . ... ...
ROW CD : ... .. . ... ... ... : ... .. . ... ... ... : ... .. . ... : ... .. . ... : ... .. . ... ...
ROW CE : ... .. . ... ... ... : ... .. . ... ... ... : ... .. . ... : ... .. . ... : ... .. . ... ...
ROW CF : ... .. . ... ... ... : ... .. . ... ... ... : ... .. . ... : ... .. . ... : ... .. . ... ...
ROW D0 : ... .. . ... ... ... : ... .. . ... ... ... : ... .. . ... : F-# 00 0 ... : ... .. . ... ...
ROW D1 : ... .. . ... ... ... : ... .. . ... ... ... : ... .. . ... : ... .. . ... : ... .. . ... ...
ROW D2 : ... .. . ... ... ... : ... .. . ... ... ... : ... .. . ... : ... .. . ... : ... .. . ... ...
ROW D3 : ... .. . ... ... ... : ... .. . ... ... ... : --- .. . ... : ... .. . ... : ... .. . ... ...
ROW D4 : ... .. . ... ... ... : ... .. . ... ... ... : ... .. . ... : ... .. . ... : ... .. . ... ...
ROW D5 : ... .. . ... ... ... : ... .. . ... ... ... : ... .. . ... : ... .. . ... : ... .. . ... ...
ROW D6 : ... .. . ... ... ... : ... .. . ... ... ... : ... .. . ... : C-# 00 E ... : ... .. . ... ...
ROW D7 : ... .. . ... ... ... : ... .. . ... ... ... : ... .. . ... : ... .. 0 ... : ... .. . ... ...
ROW D8 : ... .. . ... ... ... : ... .. . ... ... ... : ... .. . ... : ... .. . ... : ... .. . ... ...
ROW D9 : ... .. . ... ... ... : ... .. . ... ... ... : --- .. . ... : ... .. . ... : ... .. . ... ...
ROW DA : ... .. . ... ... ... : ... .. . ... ... ... : ... .. . ... : ... .. . ... : ... .. . ... ...
ROW DB : ... .. . ... ... ... : ... .. . ... ... ... : ... .. . ... : ... .. . ... : ... .. . ... ...
ROW DC : C-4 00 B P81 ... ... : G-4 00 B P81 ... ... : ... .. . ... : ... .. . ... : ... .. . ... ...
ROW DD : ... .. A ... ... ... : ... .. A ... ... ... : ... .. . ... : ... .. . ... : ... .. . ... ...
ROW DE : ... .. 9 ... ... ... : ... .. 9 ... ... ... : ... .. . ... : ... .. . ... : ... .. . ... ...
ROW DF : ... .. 8 ... ... ... : ... .. 8 ... ... ... : ... .. . ... : ... .. . ... : ... .. . ... ...
ROW E0 : ... .. 7 ... ... ... : ... .. 7 ... ... ... : ... .. . ... : ... .. . ... : ... .. . ... ...
ROW E1 : ... .. 6 ... ... ... : ... .. 6 ... ... ... : ... .. . ... : ... .. . ... : ... .. . ... ...
ROW E2 : G#3 00 B P80 ... ... : D#4 00 B P81 ... ... : C-3 00 . ... : C-# 00 E ... : ... .. . ... ...
ROW E3 : ... .. A ... ... ... : ... .. A ... ... ... : ... .. . ... : ... .. 0 ... : ... .. . ... ...
ROW E4 : ... .. 9 ... ... ... : ... .. 9 ... ... ... : ... .. . ... : ... .. . ... : ... .. . ... ...
ROW E5 : ... .. 8 ... ... ... : ... .. 8 ... ... ... : ... .. . ... : ... .. . ... : ... .. . ... ...
ROW E6 : ... .. 7 ... ... ... : ... .. 7 ... ... ... : ... .. . ... : ... .. . ... : ... .. . ... ...
ROW E7 : ... .. 6 ... ... ... : ... .. 6 ... ... ... : ... .. . ... : ... .. . ... : ... .. . ... ...
ROW E8 : ... .. 1 ... ... ... : ... .. 1 ... ... ... : ... .. . ... : F-# 00 0 ... : ... .. . ... ...
ROW E9 : ... .. . ... ... ... : ... .. . ... ... ... : ... .. . ... : ... .. . ... : ... .. . ... ...
ROW EA : ... .. . ... ... ... : ... .. . ... ... ... : ... .. . ... : ... .. . ... : ... .. . ... ...
ROW EB : ... .. . ... ... ... : ... .. . ... ... ... : --- .. . ... : ... .. . ... : ... .. . ... ...
ROW EC : ... .. . ... ... ... : ... .. . ... ... ... : ... .. . ... : ... .. . ... : ... .. . ... ...
ROW ED : ... .. . ... ... ... : ... .. . ... ... ... : ... .. . ... : ... .. . ... : ... .. . ... ...
ROW EE : G-3 00 B P80 ... ... : C-4 00 B P81 ... ... : ... .. . ... : C-# 00 E ... : ... .. . ... ...
ROW EF : ... .. A ... ... ... : ... .. A ... ... ... : ... .. . ... : ... .. 0 ... : ... .. . ... ...
ROW F0 : ... .. . ... ... ... : ... .. . ... ... ... : ... .. . ... : ... .. . ... : ... .. . ... ...
ROW F1 : ... .. . ... ... ... : ... .. . ... ... ... : --- .. . ... : ... .. . ... : ... .. . ... ...
ROW F2 : ... .. . ... ... ... : ... .. . ... ... ... : ... .. . ... : ... .. . ... : ... .. . ... ...
ROW F3 : ... .. . ... ... ... : ... .. . ... ... ... : ... .. . ... : ... .. . ... : ... .. . ... ...
ROW F4 : G-3 00 B P80 ... ... : D#4 00 B P81 ... ... : ... .. . ... : ... .. . ... : ... .. . ... ...
ROW F5 : ... .. A ... ... ... : ... .. A ... ... ... : ... .. . ... : ... .. . ... : ... .. . ... ...
ROW F6 : ... .. 9 ... ... ... : ... .. 9 ... ... ... : ... .. . ... : ... .. . ... : ... .. . ... ...
ROW F7 : ... .. 8 ... ... ... : ... .. 8 ... ... ... : ... .. . ... : ... .. . ... : ... .. . ... ...
ROW F8 : ... .. 7 ... ... ... : ... .. 7 ... ... ... : ... .. . ... : ... .. . ... : ... .. . ... ...
ROW F9 : ... .. 6 ... ... ... : ... .. 6 ... ... ... : ... .. . ... : ... .. . ... : ... .. . ... ...
ROW FA : F#3 00 B P80 ... ... : C#4 00 B P80 ... ... : D#3 00 . ... : C-# 00 E ... : ... .. . ... ...
ROW FB : ... .. A ... ... ... : ... .. A ... ... ... : ... .. . ... : ... .. 0 ... : ... .. . ... ...
ROW FC : ... .. 9 ... ... ... : ... .. 9 ... ... ... : ... .. . ... : ... .. . ... : ... .. . ... ...
ROW FD : ... .. 8 ... ... ... : ... .. 8 ... ... ... : ... .. . ... : ... .. . ... : ... .. . ... ...
ROW FE : ... .. 7 ... ... ... : ... .. 7 ... ... ... : ... .. . ... : ... .. . ... : ... .. . ... ...
ROW FF : ... .. 6 ... ... ... : ... .. 6 ... ... ... : ... .. . ... : ... .. . ... : ... .. . ... ...

PATTERN 1F
ROW 00 : ... .. 1 ... ... ... : ... .. 1 ... ... ... : ... .. . ... : F-# 00 0 ... : ... .. . ... ...
ROW 01 : ... .. . ... ... ... : ... .. . ... ... ... : ... .. . ... : ... .. . ... : ... .. . ... ...
ROW 02 : ... .. . ... ... ... : ... .. . ... ... ... : ... .. . ... : ... .. . ... : ... .. . ... ...
ROW 03 : ... .. . ... ... ... : ... .. . ... ... ... : --- .. . ... : ... .. . ... : ... .. . ... ...
ROW 04 : ... .. . ... ... ... : ... .. . ... ... ... : ... .. . ... : ... .. . ... : ... .. . ... ...
ROW 05 : ... .. . ... ... ... : ... .. . ... ... ... : ... .. . ... : ... .. . ... : ... .. . ... ...
ROW 06 : G-3 00 B P80 ... ... : D#4 00 B P81 ... ... : ... .. . ... : C-# 00 E ... : ... .. . ... ...
ROW 07 : ... .. A ... ... ... : ... .. A ... ... ... : ... .. . ... : ... .. 0 ... : ... .. . ... ...
ROW 08 : ... .. . ... ... ... : ... .. . ... ... ... : ... .. . ... : ... .. . ... : ... .. . ... ...
ROW 09 : ... .. . ... ... ... : ... .. . ... ... ... : --- .. . ... : ... .. . ... : ... .. . ... ...
ROW 0A : ... .. . ... ... ... : ... .. . ... ... ... : ... .. . ... : ... .. . ... : ... .. . ... ...
ROW 0B : ... .. . ... ... ... : ... .. . ... ... ... : ... .. . ... : ... .. . ... : ... .. . ... ...
ROW 0C : C#3 00 B P80 ... ... : G#3 00 B P80 ... ... : ... .. . ... : ... .. . ... : ... .. . ... ...
ROW 0D : ... .. A ... ... ... : ... .. A ... ... ... : ... .. . ... : ... .. . ... : ... .. . ... ...
ROW 0E : ... .. 9 ... ... ... : ... .. 9 ... ... ... : ... .. . ... : ... .. . ... : ... .. . ... ...
ROW 0F : ... .. 8 ... ... ... : ... .. 8 ... ... ... : ... .. . ... : ... .. . ... : ... .. . ... ...
ROW 10 : ... .. 7 ... ... ... : ... .. 7 ... ... ... : ... .. . ... : ... .. . ... : ... .. . ... ...
ROW 11 : ... .. 6 ... ... ... : ... .. 6 ... ... ... : ... .. . ... : ... .. . ... : ... .. . ... ...
ROW 12 : ... .. 1 ... ... ... : ... .. 1 ... ... ... : G#2 00 . P7F : C-# 00 E ... : ... .. . ... ...
ROW 13 : ... .. . ... ... ... : ... .. . ... ... ... : ... .. . ... : ... .. 0 ... : ... .. . ... ...
ROW 14 : ... .. . ... ... ... : ... .. . ... ... ... : ... .. . ... : ... .. . ... : ... .. . ... ...
ROW 15 : ... .. . ... ... ... : ... .. . ... ... ... : ... .. . ... : ... .. . ... : ... .. . ... ...
ROW 16 : ... .. . ... ... ... : ... .. . ... ... ... : ... .. . ... : ... .. . ... : ... .. . ... ...
ROW 17 : ... .. . ... ... ... : ... .. . ... ... ... : ... .. . ... : ... .. . ... : ... .. . ... ...
ROW 18 : ... .. . ... ... ... : ... .. . ... ... ... : ... .. . ... : F-# 00 0 ... : ... .. . ... ...
ROW 19 : ... .. . ... ... ... : ... .. . ... ... ... : ... .. . ... : ... .. . ... : ... .. . ... ...
ROW 1A : ... .. . ... ... ... : ... .. . ... ... ... : ... .. . ... : ... .. . ... : ... .. . ... ...
ROW 1B : ... .. . ... ... ... : ... .. . ... ... ... : --- .. . ... : ... .. . ... : ... .. . ... ...
ROW 1C : ... .. . ... ... ... : ... .. . ... ... ... : ... .. . ... : ... .. . ... : ... .. . ... ...
ROW 1D : ... .. . ... ... ... : ... .. . ... ... ... : ... .. . ... : ... .. . ... : ... .. . ... ...
ROW 1E : F#3 00 B P80 ... ... : C#4 00 B P80 ... ... : ... .. . ... : C-# 00 E ... : ... .. . ... ...
ROW 1F : ... .. A ... ... ... : ... .. A ... ... ... : ... .. . ... : ... .. 0 ... : ... .. . ... ...
ROW 20 : ... .. . ... ... ... : ... .. . ... ... ... : ... .. . ... : ... .. . ... : ... .. . ... ...
ROW 21 : ... .. . ... ... ... : ... .. . ... ... ... : ... .. . ... : ... .. . ... : ... .. . ... ...
ROW 22 : ... .. . ... ... ... : ... .. . ... ... ... : ... .. . ... : ... .. . ... : ... .. . ... ...
ROW 23 : ... .. . ... ... ... : ... .. . ... ... ... : ... .. . ... : ... .. . ... : ... .. . ... ...
ROW 24 : C#3 00 B P80 ... ... : G#3 00 B P80 ... ... : D#3 00 . ... : ... .. . ... : ... .. . ... ...
ROW 25 : ... .. A ... ... ... : ... .. A ... ... ... : ... .. . ... : ... .. . ... : ... .. . ... ...
ROW 26 : ... .. 9 ... ... ... : ... .. 9 ... ... ... : ... .. . ... : ... .. . ... : ... .. . ... ...
ROW 27 : ... .. 8 ... ... ... : ... .. 8 ... ... ... : ... .. . ... : ... .. . ... : ... .. . ... ...
ROW 28 : F#3 00 B P80 ... ... : C#4 00 B P80 ... ... : ... .. . ... : ... .. . ... : ... .. . ... ...
ROW 29 : ... .. A ... ... ... : ... .. A ... ... ... : ... .. . ... : ... .. . ... : ... .. . ... ...
ROW 2A : ... .. 9 ... ... ... : ... .. 9 ... ... ... : C-3 00 . ... : C-# 00 E ... : ... .. . ... ...
ROW 2B : ... .. 8 ... ... ... : ... .. 8 ... ... ... : ... .. . ... : ... .. 0 ... : ... .. . ... ...
ROW 2C : C#3 00 B P80 ... ... : G#3 00 B P80 ... ... : ... .. . ... : ... .. . ... : ... .. . ... ...
ROW 2D : ... .. A ... ... ... : ... .. A ... ... ... : ... .. . ... : ... .. . ... : ... .. . ... ...
ROW 2E : ... .. 9 ... ... ... : ... .. 9 ... ... ... : ... .. . ... : ... .. . ... : ... .. . ... ...
ROW 2F : ... .. 8 ... ... ... : ... .. 8 ... ... ... : ... .. . ... : ... .. . ... : ... .. . ... ...
ROW 30 : C#3 00 B P80 ... ... : C#4 00 B P80 ... ... : ... .. . ... : F-# 00 0 ... : ... .. . ... ...
ROW 31 : ... .. A ... ... ... : ... .. A ... ... ... : ... .. . ... : ... .. . ... : ... .. . ... ...
ROW 32 : ... .. 9 ... ... ... : ... .. 9 ... ... ... : ... .. . ... : ... .. . ... : ... .. . ... ...
ROW 33 : ... .. 8 ... ... ... : ... .. 8 ... ... ... : --- .. . ... : ... .. . ... : ... .. . ... ...
ROW 34 : F#3 00 B P80 ... ... : G#3 00 B P80 ... ... : ... .. . ... : ... .. . ... : ... .. . ... ...
ROW 35 : ... .. A ... ... ... : ... .. A ... ... ... : ... .. . ... : ... .. . ... : ... .. . ... ...
ROW 36 : ... .. 9 ... ... ... : ... .. 9 ... ... ... : ... .. . ... : C-# 00 E ... : ... .. . ... ...
ROW 37 : ... .. 8 ... ... ... : ... .. 8 ... ... ... : ... .. . ... : ... .. 0 ... : ... .. . ... ...
ROW 38 : F#3 00 B P80 ... ... : G#3 00 B P80 ... ... : ... .. . ... : ... .. . ... : ... .. . ... ...
ROW 39 : ... .. A ... ... ... : ... .. A ... ... ... : --- .. . ... : ... .. . ... : ... .. . ... ...
ROW 3A : ... .. 9 ... ... ... : ... .. 9 ... ... ... : ... .. . ... : ... .. . ... : ... .. . ... ...
ROW 3B : ... .. 8 ... ... ... : ... .. 8 ... ... ... : ... .. . ... : ... .. . ... : ... .. . ... ...
ROW 3C : C#3 00 B P80 ... ... : C#4 00 B P80 ... ... : ... .. . ... : ... .. . ... : ... .. . ... ...
ROW 3D : ... .. A ... ... ... : ... .. A ... ... ... : ... .. . ... : ... .. . ... : ... .. . ... ...
ROW 3E : ... .. 9 ... ... ... : ... .. 9 ... ... ... : ... .. . ... : ... .. . ... : ... .. . ... ...
ROW 3F : ... .. 8 ... ... ... : ... .. 8 ... ... ... : ... .. . ... : ... .. . ... : ... .. . ... ...
ROW 40 : F#3 00 B P80 ... ... : G#3 00 B P80 ... ... : ... .. . ... : ... .. . ... : ... .. . ... ...
ROW 41 : ... .. A ... ... ... : ... .. A ... ... ... : ... .. . ... : ... .. . ... : ... .. . ... ...
ROW 42 : ... .. 9 ... ... ... : ... .. 9 ... ... ... : G#2 00 . P7F : C-# 00 E ... : ... .. . ... ...
ROW 43 : ... .. 8 ... ... ... : ... .. 8 ... ... ... : ... .. . ... : ... .. 0 ... : ... .. . ... ...
ROW 44 : C#3 00 B P80 ... ... : C#4 00 B P80 ... ... : ... .. . ... : ... .. . ... : ... .. . ... ...
ROW 45 : ... .. A ... ... ... : ... .. A ... ... ... : ... .. . ... : ... .. . ... : ... .. . ... ...
ROW 46 : ... .. 9 ... ... ... : ... .. 9 ... ... ... : ... .. . ... : ... .. . ... : ... .. . ... ...
ROW 47 : ... .. 8 ... ... ... : ... .. 8 ... ... ... : ... .. . ... : ... .. . ... : ... .. . ... ...
ROW 48 : ... .. 1 ... ... ... : ... .. 1 ... ... ... : ... .. . ... : F-# 00 0 ... : ... .. . ... ...
ROW 49 : ... .. . ... ... ... : ... .. . ... ... ... : ... .. . ... : ... .. . ... : ... .. . ... ...
ROW 4A : ... .. . ... ... ... : ... .. . ... ... ... : ... .. . ... : ... .. . ... : ... .. . ... ...
ROW 4B : ... .. . ... ... ... : ... .. . ... ... ... : --- .. . ... : ... .. . ... : ... .. . ... ...
ROW 4C : ... .. . ... ... ... : ... .. . ... ... ... : ... .. . ... : ... .. . ... : ... .. . ... ...
ROW 4D : ... .. . ... ... ... : ... .. . ... ... ... : ... .. . ... : ... .. . ... : ... .. . ... ...
ROW 4E : F-3 00 B P80 ... ... : C#4 00 B P80 ... ... : ... .. . ... : C-# 00 E ... : ... .. . ... ...
ROW 4F : ... .. A ... ... ... : ... .. A ... ... ... : ... .. . ... : ... .. 0 ... : ... .. . ... ...
ROW 50 : ... .. . ... ... ... : ... .. . ... ... ... : ... .. . ... : ... .. . ... : ... .. . ... ...
ROW 51 : ... .. . ... ... ... : ... .. . ... ... ... : --- .. . ... : ... .. . ... : ... .. . ... ...
ROW 52 : ... .. . ... ... ... : ... .. . ... ... ... : ... .. . ... : ... .. . ... : ... .. . ... ...
ROW 53 : ... .. . ... ... ... : ... .. . ... ... ... : ... .. . ... : ... .. . ... : ... .. . ... ...
ROW 54 : G-3 00 B P80 ... ... : D#4 00 B P81 ... ... : ... .. . ... : ... .. . ... : ... .. . ... ...
ROW 55 : ... .. A ... ... ... : ... .. A ... ... ... : ... .. . ... : ... .. . ... : ... .. . ... ...
ROW 56 : ... .. 9 ... ... ... : ... .. 9 ... ... ... : ... .. . ... : ... .. . ... : ... .. . ... ...
ROW 57 : ... .. 8 ... ... ... : ... .. 8 ... ... ... : ... .. . ... : ... .. . ... : ... .. . ... ...
ROW 58 : ... .. 7 ... ... ... : ... .. 7 ... ... ... : ... .. . ... : ... .. . ... : ... .. . ... ...
ROW 59 : ... .. 6 ... ... ... : ... .. 6 ... ... ... : ... .. . ... : ... .. . ... : ... .. . ... ...
ROW 5A : F-3 00 B P80 ... ... : C#4 00 B P80 ... ... : G-3 00 . ... : C-# 00 E ... : ... .. . ... ...
ROW 5B : ... .. A ... ... ... : ... .. A ... ... ... : ... .. . ... : ... .. 0 ... : ... .. . ... ...
ROW 5C : ... .. 9 ... ... ... : ... .. 9 ... ... ... : ... .. . ... : ... .. . ... : ... .. . ... ...
ROW 5D : ... .. 8 ... ... ... : ... .. 8 ... ... ... : ... .. . ... : ... .. . ... : ... .. . ... ...
ROW 5E : ... .. 7 ... ... ... : ... .. 7 ... ... ... : ... .. . ... : ... .. . ... : ... .. . ... ...
ROW 5F : ... .. 6 ... ... ... : ... .. 6 ... ... ... : ... .. . ... : ... .. . ... : ... .. . ... ...
ROW 60 : ... .. 1 ... ... ... : ... .. 1 ... ... ... : ... .. . ... : F-# 00 0 ... : ... .. . ... ...
ROW 61 : ... .. . ... ... ... : ... .. . ... ... ... : ... .. . ... : ... .. . ... : ... .. . ... ...
ROW 62 : ... .. . ... ... ... : ... .. . ... ... ... : ... .. . ... : ... .. . ... : ... .. . ... ...
ROW 63 : ... .. . ... ... ... : ... .. . ... ... ... : --- .. . ... : ... .. . ... : ... .. . ... ...
ROW 64 : ... .. . ... ... ... : ... .. . ... ... ... : ... .. . ... : ... .. . ... : ... .. . ... ...
ROW 65 : ... .. . ... ... ... : ... .. . ... ... ... : ... .. . ... : ... .. . ... : ... .. . ... ...
ROW 66 : G-3 00 B P80 ... ... : D#4 00 B P81 ... ... : ... .. . ... : C-# 00 E ... : ... .. . ... ...
ROW 67 : ... .. A ... ... ... : ... .. A ... ... ... : ... .. . ... : ... .. 0 ... : ... .. . ... ...
ROW 68 : ... .. . ... ... ... : ... .. . ... ... ... : ... .. . ... : ... .. . ... : ... .. . ... ...
ROW 69 : ... .. . ... ... ... : ... .. . ... ... ... : --- .. . ... : ... .. . ... : ... .. . ... ...
ROW 6A : ... .. . ... ... ... : ... .. . ... ... ... : ... .. . ... : ... .. . ... : ... .. . ... ...
ROW 6B : ... .. . ... ... ... : ... .. . ... ... ... : ... .. . ... : ... .. . ... : ... .. . ... ...
ROW 6C : G-3 00 B P80 ... ... : D#4 00 B P81 ... ... : ... .. . ... : ... .. . ... : ... .. . ... ...
ROW 6D : ... .. A ... ... ... : ... .. A ... ... ... : ... .. . ... : ... .. . ... : ... .. . ... ...
ROW 6E : ... .. 9 ... ... ... : ... .. 9 ... ... ... : ... .. . ... : ... .. . ... : ... .. . ... ...
ROW 6F : ... .. 8 ... ... ... : ... .. 8 ... ... ... : ... .. . ... : ... .. . ... : ... .. . ... ...
ROW 70 : ... .. 7 ... ... ... : ... .. 7 ... ... ... : ... .. . ... : ... .. . ... : ... .. . ... ...
ROW 71 : ... .. 6 ... ... ... : ... .. 6 ... ... ... : ... .. . ... : ... .. . ... : ... .. . ... ...
ROW 72 : ... .. 1 ... ... ... : ... .. 1 ... ... ... : C#3 00 . ... : C-# 00 E ... : ... .. . ... ...
ROW 73 : ... .. . ... ... ... : ... .. . ... ... ... : ... .. . ... : ... .. 0 ... : ... .. . ... ...
ROW 74 : ... .. . ... ... ... : ... .. . ... ... ... : ... .. . ... : ... .. . ... : ... .. . ... ...
ROW 75 : ... .. . ... ... ... : ... .. . ... ... ... : ... .. . ... : ... .. . ... : ... .. . ... ...
ROW 76 : ... .. . ... ... ... : ... .. . ... ... ... : ... .. . ... : ... .. . ... : ... .. . ... ...
ROW 77 : ... .. . ... ... ... : ... .. . ... ... ... : ... .. . ... : ... .. . ... : ... .. . ... ...
ROW 78 : ... .. . ... ... ... : ... .. . ... ... ... : ... .. . ... : F-# 00 0 ... : ... .. . ... ...
ROW 79 : ... .. . ... ... ... : ... .. . ... ... ... : ... .. . ... : ... .. . ... : ... .. . ... ...
ROW 7A : ... .. . ... ... ... : ... .. . ... ... ... : ... .. . ... : ... .. . ... : ... .. . ... ...
ROW 7B : ... .. . ... ... ... : ... .. . ... ... ... : --- .. . ... : ... .. . ... : ... .. . ... ...
ROW 7C : ... .. . ... ... ... : ... .. . ... ... ... : ... .. . ... : ... .. . ... : ... .. . ... ...
ROW 7D : ... .. . ... ... ... : ... .. . ... ... ... : ... .. . ... : ... .. . ... : ... .. . ... ...
ROW 7E : C-4 00 B P81 ... ... : G#4 00 B P80 ... ... : ... .. . ... : C-# 00 E ... : ... .. . ... ...
ROW 7F : ... .. A ... ... ... : ... .. A ... ... ... : ... .. . ... : ... .. 0 ... : ... .. . ... ...
ROW 80 : ... .. . ... ... ... : ... .. . ... ... ... : ... .. . ... : ... .. . ... : ... .. . ... ...
ROW 81 : ... .. . ... ... ... : ... .. . ... ... ... : --- .. . ... : ... .. . ... : ... .. . ... ...
ROW 82 : ... .. . ... ... ... : ... .. . ... ... ... : ... .. . ... : ... .. . ... : ... .. . ... ...
ROW 83 : ... .. . ... ... ... : ... .. . ... ... ... : ... .. . ... : ... .. . ... : ... .. . ... ...
ROW 84 : B-3 00 B P80 ... ... : G-4 00 B P81 ... ... : ... .. . ... : ... .. . ... : ... .. . ... ...
ROW 85 : ... .. A ... ... ... : ... .. A ... ... ... : ... .. . ... : ... .. . ... : ... .. . ... ...
ROW 86 : ... .. 9 ... ... ... : ... .. 9 ... ... ... : ... .. . ... : ... .. . ... : ... .. . ... ...
ROW 87 : ... .. 8 ... ... ... : ... .. 8 ... ... ... : ... .. . ... : ... .. . ... : ... .. . ... ...
ROW 88 : ... .. 7 ... ... ... : ... .. 7 ... ... ... : ... .. . ... : ... .. . ... : ... .. . ... ...
ROW 89 : ... .. 6 ... ... ... : ... .. 6 ... ... ... : ... .. . ... : ... .. . ... : ... .. . ... ...
ROW 8A : C-4 00 B P81 ... ... : G#4 00 B P80 ... ... : G-2 00 . ... : C-# 00 E ... : ... .. . ... ...
ROW 8B : ... .. A ... ... ... : ... .. A ... ... ... : ... .. . ... : ... .. 0 ... : ... .. . ... ...
ROW 8C : ... .. 9 ... ... ... : ... .. 9 ... ... ... : ... .. . ... : ... .. . ... : ... .. . ... ...
ROW 8D : ... .. 8 ... ... ... : ... .. 8 ... ... ... : ... .. . ... : ... .. . ... : ... .. . ... ...
ROW 8E : ... .. 7 ... ... ... : ... .. 7 ... ... ... : ... .. . ... : ... .. . ... : ... .. . ... ...
ROW 8F : ... .. 6 ... ... ... : ... .. 6 ... ... ... : ... .. . ... : ... .. . ... : ... .. . ... ...
ROW 90 : ... .. 1 ... ... ... : ... .. 1 ... ... ... : ... .. . ... : F-# 00 0 ... : ... .. . ... ...
ROW 91 : ... .. . ... ... ... : ... .. . ... ... ... : ... .. . ... : ... .. . ... : ... .. . ... ...
ROW 92 : ... .. . ... ... ... : ... .. . ... ... ... : ... .. . ... : ... .. . ... : ... .. . ... ...
ROW 93 : ... .. . ... ... ... : ... .. . ... ... ... : --- .. . ... : ... .. . ... : ... .. . ... ...
ROW 94 : ... .. . ... ... ... : ... .. . ... ... ... : ... .. . ... : ... .. . ... : ... .. . ... ...
ROW 95 : ... .. . ... ... ... : ... .. . ... ... ... : ... .. . ... : ... .. . ... : ... .. . ... ...
ROW 96 : B-3 00 B P80 ... ... : G-4 00 B P81 ... ... : ... .. . ... : C-# 00 E ... : ... .. . ... ...
ROW 97 : ... .. A ... ... ... : ... .. A ... ... ... : ... .. . ... : ... .. 0 ... : ... .. . ... ...
ROW 98 : ... .. . ... ... ... : ... .. . ... ... ... : ... .. . ... : ... .. . ... : ... .. . ... ...
ROW 99 : ... .. . ... ... ... : ... .. . ... ... ... : --- .. . ... : ... .. . ... : ... .. . ... ...
ROW 9A : ... .. . ... ... ... : ... .. . ... ... ... : ... .. . ... : ... .. . ... : ... .. . ... ...
ROW 9B : ... .. . ... ... ... : ... .. . ... ... ... : ... .. . ... : ... .. . ... : ... .. . ... ...
ROW 9C : F-3 00 B P80 ... ... : C#4 00 B P80 ... ... : ... .. . ... : ... .. . ... : ... .. . ... ...
ROW 9D : ... .. A ... ... ... : ... .. A ... ... ... : ... .. . ... : ... .. . ... : ... .. . ... ...
ROW 9E : ... .. 9 ... ... ... : ... .. 9 ... ... ... : ... .. . ... : ... .. . ... : ... .. . ... ...
ROW 9F : ... .. 8 ... ... ... : ... .. 8 ... ... ... : ... .. . ... : ... .. . ... : ... .. . ... ...
ROW A0 : ... .. 7 ... ... ... : ... .. 7 ... ... ... : ... .. . ... : ... .. . ... : ... .. . ... ...
ROW A1 : ... .. 6 ... ... ... : ... .. 6 ... ... ... : ... .. . ... : ... .. . ... : ... .. . ... ...
ROW A2 : D#3 00 B P80 ... ... : C-4 00 B P81 ... ... : B-2 00 . P80 : C-# 00 E ... : ... .. . ... ...
ROW A3 : ... .. A ... ... ... : ... .. A ... ... ... : ... .. . ... : ... .. 0 ... : ... .. . ... ...
ROW A4 : ... .. 9 ... ... ... : ... .. 9 ... ... ... : ... .. . ... : ... .. . ... : ... .. . ... ...
ROW A5 : ... .. 8 ... ... ... : ... .. 8 ... ... ... : ... .. . ... : ... .. . ... : ... .. . ... ...
ROW A6 : ... .. 7 ... ... ... : ... .. 7 ... ... ... : ... .. . ... : ... .. . ... : ... .. . ... ...
ROW A7 : ... .. 6 ... ... ... : ... .. 6 ... ... ... : ... .. . ... : ... .. . ... : ... .. . ... ...
ROW A8 : ... .. 1 ... ... ... : ... .. 1 ... ... ... : ... .. . ... : F-# 00 0 ... : ... .. . ... ...
ROW A9 : ... .. . ... ... ... : ... .. . ... ... ... : ... .. . ... : ... .. . ... : ... .. . ... ...
ROW AA : ... .. . ... ... ... : ... .. . ... ... ... : ... .. . ... : ... .. . ... : ... .. . ... ...
ROW AB : ... .. . ... ... ... : ... .. . ... ... ... : --- .. . ... : ... .. . ... : ... .. . ... ...
ROW AC : ... .. . ... ... ... : ... .. . ... ... ... : ... .. . ... : ... .. . ... : ... .. . ... ...
ROW AD : ... .. . ... ... ... : ... .. . ... ... ... : ... .. . ... : ... .. . ... : ... .. . ... ...
ROW AE : C-4 00 B P81 ... ... : D#4 00 B P81 ... ... : ... .. . ... : C-# 00 E ... : ... .. . ... ...
ROW AF : ... .. A ... ... ... : ... .. A ... ... ... : ... .. . ... : ... .. 0 ... : ... .. . ... ...
ROW B0 : ... .. . ... ... ... : ... .. . ... ... ... : ... .. . ... : ... .. . ... : ... .. . ... ...
ROW B1 : ... .. . ... ... ... : ... .. . ... ... ... : --- .. . ... : ... .. . ... : ... .. . ... ...
ROW B2 : ... .. . ... ... ... : ... .. . ... ... ... : ... .. . ... : ... .. . ... : ... .. . ... ...
ROW B3 : ... .. . ... ... ... : ... .. . ... ... ... : ... .. . ... : ... .. . ... : ... .. . ... ...
ROW B4 : D#3 00 B P80 ... ... : G-3 00 B P80 ... ... : ... .. . ... : ... .. . ... : ... .. . ... ...
ROW B5 : ... .. A ... ... ... : ... .. A ... ... ... : ... .. . ... : ... .. . ... : ... .. . ... ...
ROW B6 : ... .. 9 ... ... ... : ... .. 9 ... ... ... : ... .. . ... : ... .. . ... : ... .. . ... ...
ROW B7 : ... .. 8 ... ... ... : ... .. 8 ... ... ... : ... .. . ... : ... .. . ... : ... .. . ... ...
ROW B8 : C-4 00 B P81 ... ... : D#4 00 B P81 ... ... : ... .. . ... : ... .. . ... : ... .. . ... ...
ROW B9 : ... .. A ... ... ... : ... .. A ... ... ... : ... .. . ... : ... .. . ... : ... .. . ... ...
ROW BA : ... .. 9 ... ... ... : ... .. 9 ... ... ... : C#3 00 . ... : C-# 00 E ... : ... .. . ... ...
ROW BB : ... .. 8 ... ... ... : ... .. 8 ... ... ... : ... .. . ... : ... .. 0 ... : ... .. . ... ...
ROW BC : D#3 00 B P80 ... ... : G-3 00 B P80 ... ... : ... .. . ... : ... .. . ... : ... .. . ... ...
ROW BD : ... .. A ... ... ... : ... .. A ... ... ... : ... .. . ... : ... .. . ... : ... .. . ... ...
ROW BE : ... .. 9 ... ... ... : ... .. 9 ... ... ... : ... .. . ... : ... .. . ... : ... .. . ... ...
ROW BF : ... .. 8 ... ... ... : ... .. 8 ... ... ... : ... .. . ... : ... .. . ... : ... .. . ... ...
ROW C0 : C-4 00 B P81 ... ... : D#4 00 B P81 ... ... : ... .. . ... : F-# 00 0 ... : ... .. . ... ...
ROW C1 : ... .. A ... ... ... : ... .. A ... ... ... : ... .. . ... : ... .. . ... : ... .. . ... ...
ROW C2 : ... .. 9 ... ... ... : ... .. 9 ... ... ... : ... .. . ... : ... .. . ... : ... .. . ... ...
ROW C3 : ... .. 8 ... ... ... : ... .. 8 ... ... ... : --- .. . ... : ... .. . ... : ... .. . ... ...
ROW C4 : D#3 00 B P80 ... ... : G-3 00 B P80 ... ... : ... .. . ... : ... .. . ... : ... .. . ... ...
ROW C5 : ... .. A ... ... ... : ... .. A ... ... ... : ... .. . ... : ... .. . ... : ... .. . ... ...
ROW C6 : ... .. 9 ... ... ... : ... .. 9 ... ... ... : ... .. . ... : C-# 00 E ... : ... .. . ... ...
ROW C7 : ... .. 8 ... ... ... : ... .. 8 ... ... ... : ... .. . ... : ... .. 0 ... : ... .. . ... ...
ROW C8 : D#3 00 B P80 ... ... : G-3 00 B P80 ... ... : ... .. . ... : ... .. . ... : ... .. . ... ...
ROW C9 : ... .. A ... ... ... : ... .. A ... ... ... : --- .. . ... : ... .. . ... : ... .. . ... ...
ROW CA : ... .. 9 ... ... ... : ... .. 9 ... ... ... : ... .. . ... : ... .. . ... : ... .. . ... ...
ROW CB : ... .. 8 ... ... ... : ... .. 8 ... ... ... : ... .. . ... : ... .. . ... : ... .. . ... ...
ROW CC : C-4 00 B P81 ... ... : D#4 00 B P81 ... ... : ... .. . ... : ... .. . ... : ... .. . ... ...
ROW CD : ... .. A ... ... ... : ... .. A ... ... ... : ... .. . ... : ... .. . ... : ... .. . ... ...
ROW CE : ... .. 9 ... ... ... : ... .. 9 ... ... ... : ... .. . ... : ... .. . ... : ... .. . ... ...
ROW CF : ... .. 8 ... ... ... : ... .. 8 ... ... ... : ... .. . ... : ... .. . ... : ... .. . ... ...
ROW D0 : D#3 00 B P80 ... ... : G-3 00 B P80 ... ... : ... .. . ... : ... .. . ... : ... .. . ... ...
ROW D1 : ... .. A ... ... ... : ... .. A ... ... ... : ... .. . ... : ... .. . ... : ... .. . ... ...
ROW D2 : ... .. 9 ... ... ... : ... .. 9 ... ... ... : D-3 00 . ... : C-# 00 E ... : ... .. . ... ...
ROW D3 : ... .. 8 ... ... ... : ... .. 8 ... ... ... : ... .. . ... : ... .. 0 ... : ... .. . ... ...
ROW D4 : C-4 00 B P81 ... ... : D#4 00 B P81 ... ... : ... .. . ... : ... .. . ... : ... .. . ... ...
ROW D5 : ... .. A ... ... ... : ... .. A ... ... ... : ... .. . ... : ... .. . ... : ... .. . ... ...
ROW D6 : ... .. 9 ... ... ... : ... .. 9 ... ... ... : ... .. . ... : ... .. . ... : ... .. . ... ...
ROW D7 : ... .. 8 ... ... ... : ... .. 8 ... ... ... : ... .. . ... : ... .. . ... : ... .. . ... ...
ROW D8 : ... .. 1 ... ... ... : ... .. 1 ... ... ... : ... .. . ... : F-# 00 0 ... : ... .. . ... ...
ROW D9 : ... .. . ... ... ... : ... .. . ... ... ... : ... .. . ... : ... .. . ... : ... .. . ... ...
ROW DA : ... .. . ... ... ... : ... .. . ... ... ... : ... .. . ... : ... .. . ... : ... .. . ... ...
ROW DB : ... .. . ... ... ... : ... .. . ... ... ... : --- .. . ... : ... .. . ... : ... .. . ... ...
ROW DC : ... .. . ... ... ... : ... .. . ... ... ... : ... .. . ... : ... .. . ... : ... .. . ... ...
ROW DD : ... .. . ... ... ... : ... .. . ... ... ... : ... .. . ... : ... .. . ... : ... .. . ... ...
ROW DE : ... .. . ... ... ... : ... .. . ... ... ... : ... .. . ... : C-# 00 E ... : ... .. . ... ...
ROW DF : ... .. . ... ... ... : ... .. . ... ... ... : ... .. . ... : ... .. 0 ... : ... .. . ... ...
ROW E0 : ... .. . ... ... ... : ... .. . ... ... ... : ... .. . ... : ... .. . ... : ... .. . ... ...
ROW E1 : ... .. . ... ... ... : ... .. . ... ... ... : ... .. . ... : ... .. . ... : ... .. . ... ...
ROW E2 : ... .. . ... ... ... : ... .. . ... ... ... : ... .. . ... : ... .. . ... : ... .. . ... ...
ROW E3 : ... .. . ... ... ... : ... .. . ... ... ... : ... .. . ... : ... .. . ... : ... .. . ... ...
ROW E4 : B-3 00 5 P80 ... ... : G-4 00 5 P81 ... ... : B-2 00 . ... : ... .. . ... : ... .. . ... ...
ROW E5 : ... .. . ... ... ... : ... .. . ... ... ... : ... .. . ... : ... .. . ... : ... .. . ... ...
ROW E6 : ... .. 6 ... ... ... : ... .. 6 ... ... ... : ... .. . ... : ... .. . ... : ... .. . ... ...
ROW E7 : ... .. 8 ... ... ... : ... .. 8 ... ... ... : ... .. . ... : ... .. . ... : ... .. . ... ...
ROW E8 : ... .. 9 ... ... ... : ... .. 9 ... ... ... : ... .. . ... : ... .. . ... : ... .. . ... ...
ROW E9 : ... .. A ... ... ... : ... .. A ... ... ... : ... .. . ... : ... .. . ... : ... .. . ... ...
ROW EA : ... .. 1 ... ... ... : ... .. 1 ... ... ... : G#2 00 . P7F : C-# 00 E ... : ... .. . ... ...
ROW EB : ... .. . ... ... ... : ... .. . ... ... ... : ... .. . ... : ... .. 0 ... : ... .. . ... ...
ROW EC : ... .. . ... ... ... : ... .. . ... ... ... : ... .. . ... : ... .. . ... : ... .. . ... ...
ROW ED : ... .. . ... ... ... : ... .. . ... ... ... : ... .. . ... : ... .. . ... : ... .. . ... ...
ROW EE : ... .. . ... ... ... : ... .. . ... ... ... : ... .. . ... : ... .. . ... : ... .. . ... ...
ROW EF : ... .. . ... ... ... : ... .. . ... ... ... : ... .. . ... : ... .. . ... : ... .. . ... ...
ROW F0 : G#3 00 5 P80 ... ... : D-4 00 5 P81 ... ... : ... .. . ... : F-# 00 0 ... : ... .. . ... ...
ROW F1 : ... .. . ... ... ... : ... .. . ... ... ... : ... .. . ... : ... .. . ... : ... .. . ... ...
ROW F2 : ... .. 6 ... ... ... : ... .. 6 ... ... ... : ... .. . ... : ... .. . ... : ... .. . ... ...
ROW F3 : ... .. 8 ... ... ... : ... .. 8 ... ... ... : --- .. . ... : ... .. . ... : ... .. . ... ...
ROW F4 : ... .. 9 ... ... ... : ... .. 9 ... ... ... : ... .. . ... : ... .. . ... : ... .. . ... ...
ROW F5 : ... .. A ... ... ... : ... .. A ... ... ... : ... .. . ... : ... .. . ... : ... .. . ... ...
ROW F6 : ... .. 1 ... ... ... : ... .. 1 ... ... ... : ... .. . ... : C-# 00 E ... : ... .. . ... ...
ROW F7 : ... .. . ... ... ... : ... .. . ... ... ... : ... .. . ... : ... .. 0 ... : ... .. . ... ...
ROW F8 : ... .. . ... ... ... : ... .. . ... ... ... : ... .. . ... : ... .. . ... : ... .. . ... ...
ROW F9 : ... .. . ... ... ... : ... .. . ... ... ... : --- .. . ... : ... .. . ... : ... .. . ... ...
ROW FA : ... .. . ... ... ... : ... .. . ... ... ... : ... .. . ... : ... .. . ... : ... .. . ... ...
ROW FB : ... .. . ... ... ... : ... .. . ... ... ... : ... .. . ... : ... .. . ... : ... .. . ... ...
ROW FC : F-3 00 5 P80 ... ... : G#3 00 5 P80 ... ... : ... .. . ... : ... .. . ... : ... .. . ... ...
ROW FD : ... .. . ... ... ... : ... .. . ... ... ... : ... .. . ... : ... .. . ... : ... .. . ... ...
ROW FE : ... .. 6 ... ... ... : ... .. 6 ... ... ... : ... .. . ... : ... .. . ... : ... .. . ... ...
ROW FF : ... .. 8 ... ... ... : ... .. 8 ... ... ... : ... .. . ... : ... .. . ... : ... .. . ... ...

PATTERN 20
ROW 00 : ... .. 9 ... ... ... : ... .. 9 ... ... ... : ... .. . ... : ... .. . ... : ... .. . ... ...
ROW 01 : ... .. A ... ... ... : ... .. A ... ... ... : ... .. . ... : ... .. . ... : ... .. . ... ...
ROW 02 : ... .. 1 ... ... ... : ... .. 1 ... ... ... : B-2 00 . ... : C-# 00 E ... : ... .. . ... ...
ROW 03 : ... .. . ... ... ... : ... .. . ... ... ... : ... .. . ... : ... .. 0 ... : ... .. . ... ...
ROW 04 : ... .. . ... ... ... : ... .. . ... ... ... : ... .. . ... : ... .. . ... : ... .. . ... ...
ROW 05 : ... .. . ... ... ... : ... .. . ... ... ... : ... .. . ... : ... .. . ... : ... .. . ... ...
ROW 06 : ... .. . ... ... ... : ... .. . ... ... ... : ... .. . ... : ... .. . ... : ... .. . ... ...
ROW 07 : ... .. . ... ... ... : ... .. . ... ... ... : ... .. . ... : ... .. . ... : ... .. . ... ...
ROW 08 : D-3 00 5 P80 ... ... : G-3 00 5 P80 ... ... : ... .. . ... : F-# 00 0 ... : ... .. . ... ...
ROW 09 : ... .. . ... ... ... : ... .. . ... ... ... : ... .. . ... : ... .. . ... : ... .. . ... ...
ROW 0A : ... .. 6 ... ... ... : ... .. 6 ... ... ... : ... .. . ... : ... .. . ... : ... .. . ... ...
ROW 0B : ... .. 8 ... ... ... : ... .. 8 ... ... ... : --- .. . ... : ... .. . ... : ... .. . ... ...
ROW 0C : ... .. 9 ... ... ... : ... .. 9 ... ... ... : ... .. . ... : ... .. . ... : ... .. . ... ...
ROW 0D : ... .. A ... ... ... : ... .. A ... ... ... : ... .. . ... : ... .. . ... : ... .. . ... ...
ROW 0E : ... .. 1 ... ... ... : ... .. 1 ... ... ... : ... .. . ... : C-# 00 E ... : ... .. . ... ...
ROW 0F : ... .. . ... ... ... : ... .. . ... ... ... : ... .. . ... : ... .. 0 ... : ... .. . ... ...
ROW 10 : ... .. . ... ... ... : ... .. . ... ... ... : ... .. . ... : ... .. . ... : ... .. . ... ...
ROW 11 : ... .. . ... ... ... : ... .. . ... ... ... : --- .. . ... : ... .. . ... : ... .. . ... ...
ROW 12 : ... .. . ... ... ... : ... .. . ... ... ... : ... .. . ... : ... .. . ... : ... .. . ... ...
ROW 13 : ... .. . ... ... ... : ... .. . ... ... ... : ... .. . ... : ... .. . ... : ... .. . ... ...
ROW 14 : G-3 00 B P80 ... ... : D#4 00 B P81 ... ... : ... .. . ... : ... .. . ... : ... .. . ... ...
ROW 15 : ... .. A ... ... ... : ... .. A ... ... ... : ... .. . ... : ... .. . ... : ... .. . ... ...
ROW 16 : ... .. 9 ... ... ... : ... .. 9 ... ... ... : ... .. . ... : ... .. . ... : ... .. . ... ...
ROW 17 : ... .. 8 ... ... ... : ... .. 8 ... ... ... : ... .. . ... : ... .. . ... : ... .. . ... ...
ROW 18 : ... .. 7 ... ... ... : ... .. 7 ... ... ... : ... .. . ... : ... .. . ... : ... .. . ... ...
ROW 19 : ... .. 6 ... ... ... : ... .. 6 ... ... ... : ... .. . ... : ... .. . ... : ... .. . ... ...
ROW 1A : ... .. 5 ... ... ... : ... .. 5 ... ... ... : C#3 00 . ... : C-# 00 E ... : ... .. . ... ...
ROW 1B : ... .. 4 ... ... ... : ... .. 4 ... ... ... : ... .. . ... : ... .. 0 ... : ... .. . ... ...
ROW 1C : ... .. 3 ... ... ... : ... .. 3 ... ... ... : ... .. . ... : ... .. . ... : ... .. . ... ...
ROW 1D : ... .. 2 ... ... ... : ... .. 2 ... ... ... : ... .. . ... : ... .. . ... : ... .. . ... ...
ROW 1E : ... .. 1 ... ... ... : ... .. 1 ... ... ... : ... .. . ... : ... .. . ... : ... .. . ... ...
ROW 1F : ... .. . ... ... ... : ... .. . ... ... ... : ... .. . ... : ... .. . ... : ... .. . ... ...
ROW 20 : ... .. . ... ... ... : ... .. . ... ... ... : ... .. . ... : F-# 00 0 ... : ... .. . ... ...
ROW 21 : ... .. . ... ... ... : ... .. . ... ... ... : ... .. . ... : ... .. . ... : ... .. . ... ...
ROW 22 : ... .. . ... ... ... : ... .. . ... ... ... : ... .. . ... : ... .. . ... : ... .. . ... ...
ROW 23 : ... .. . ... ... ... : ... .. . ... ... ... : --- .. . ... : ... .. . ... : ... .. . ... ...
ROW 24 : ... .. . ... ... ... : ... .. . ... ... ... : ... .. . ... : ... .. . ... : ... .. . ... ...
ROW 25 : ... .. . ... ... ... : ... .. . ... ... ... : ... .. . ... : ... .. . ... : ... .. . ... ...
ROW 26 : ... .. . ... ... ... : ... .. . ... ... ... : ... .. . ... : C-# 00 E ... : ... .. . ... ...
ROW 27 : ... .. . ... ... ... : ... .. . ... ... ... : ... .. . ... : ... .. 0 ... : ... .. . ... ...
ROW 28 : ... .. . ... ... ... : ... .. . ... ... ... : ... .. . ... : ... .. . ... : ... .. . ... ...
ROW 29 : ... .. . ... ... ... : ... .. . ... ... ... : --- .. . ... : ... .. . ... : ... .. . ... ...
ROW 2A : ... .. . ... ... ... : ... .. . ... ... ... : ... .. . ... : ... .. . ... : ... .. . ... ...
ROW 2B : ... .. . ... ... ... : ... .. . ... ... ... : ... .. . ... : ... .. . ... : ... .. . ... ...
ROW 2C : ... .. . ... ... ... : ... .. . ... ... ... : ... .. . ... : ... .. . ... : ... .. . ... ...
ROW 2D : ... .. . ... ... ... : ... .. . ... ... ... : ... .. . ... : ... .. . ... : ... .. . ... ...
ROW 2E : ... .. . ... ... ... : ... .. . ... ... ... : ... .. . ... : ... .. . ... : ... .. . ... ...
ROW 2F : ... .. . ... ... ... : ... .. . ... ... ... : ... .. . ... : ... .. . ... : ... .. . ... ...
ROW 30 : ... .. . ... ... ... : ... .. . ... ... ... : ... .. . ... : ... .. . ... : ... .. . ... ...
ROW 31 : ... .. . ... ... ... : ... .. . ... ... ... : ... .. . ... : ... .. . ... : ... .. . ... ...
ROW 32 : D#4 00 B P81 ... ... : G#4 00 B P80 ... ... : G-3 00 . ... : C-# 00 E ... : ... .. . ... ...
ROW 33 : ... .. A ... ... ... : ... .. A ... ... ... : ... .. . ... : ... .. 0 ... : ... .. . ... ...
ROW 34 : ... .. 9 ... ... ... : ... .. 9 ... ... ... : ... .. . ... : ... .. . ... : ... .. . ... ...
ROW 35 : ... .. 8 ... ... ... : ... .. 8 ... ... ... : ... .. . ... : ... .. . ... : ... .. . ... ...
ROW 36 : ... .. 7 ... ... ... : ... .. 7 ... ... ... : ... .. . ... : ... .. . ... : ... .. . ... ...
ROW 37 : ... .. 6 ... ... ... : ... .. 6 ... ... ... : ... .. . ... : ... .. . ... : ... .. . ... ...
ROW 38 : ... .. 1 ... ... ... : ... .. 1 ... ... ... : ... .. . ... : F-# 00 0 ... : ... .. . ... ...
ROW 39 : ... .. . ... ... ... : ... .. . ... ... ... : ... .. . ... : ... .. . ... : ... .. . ... ...
ROW 3A : ... .. . ... ... ... : ... .. . ... ... ... : ... .. . ... : ... .. . ... : ... .. . ... ...
ROW 3B : ... .. . ... ... ... : ... .. . ... ... ... : --- .. . ... : ... .. . ... : ... .. . ... ...
ROW 3C : ... .. . ... ... ... : ... .. . ... ... ... : ... .. . ... : ... .. . ... : ... .. . ... ...
ROW 3D : ... .. . ... ... ... : ... .. . ... ... ... : ... .. . ... : ... .. . ... : ... .. . ... ...
ROW 3E : G-4 00 B P81 ... ... : C-5 00 B P81 ... ... : ... .. . ... : C-# 00 E ... : ... .. . ... ...
ROW 3F : ... .. A ... ... ... : ... .. A ... ... ... : ... .. . ... : ... .. 0 ... : ... .. . ... ...
ROW 40 : ... .. . ... ... ... : ... .. . ... ... ... : ... .. . ... : ... .. . ... : ... .. . ... ...
ROW 41 : ... .. . ... ... ... : ... .. . ... ... ... : --- .. . ... : ... .. . ... : ... .. . ... ...
ROW 42 : ... .. . ... ... ... : ... .. . ... ... ... : ... .. . ... : ... .. . ... : ... .. . ... ...
ROW 43 : ... .. . ... ... ... : ... .. . ... ... ... : ... .. . ... : ... .. . ... : ... .. . ... ...
ROW 44 : ... .. . ... ... ... : ... .. . ... ... ... : ... .. . ... : ... .. . ... : ... .. . ... ...
ROW 45 : ... .. . ... ... ... : ... .. . ... ... ... : ... .. . ... : ... .. . ... : ... .. . ... ...
ROW 46 : ... .. . ... ... ... : ... .. . ... ... ... : ... .. . ... : ... .. . ... : ... .. . ... ...
ROW 47 : ... .. . ... ... ... : ... .. . ... ... ... : ... .. . ... : ... .. . ... : ... .. . ... ...
ROW 48 : ... .. . ... ... ... : ... .. . ... ... ... : ... .. . ... : ... .. . ... : ... .. . ... ...
ROW 49 : ... .. . ... ... ... : ... .. . ... ... ... : ... .. . ... : ... .. . ... : ... .. . ... ...
ROW 4A : ... .. . ... ... ... : ... .. . ... ... ... : G-3 00 . ... : C-# 00 E ... : ... .. . ... ...
ROW 4B : ... .. . ... ... ... : ... .. . ... ... ... : ... .. . ... : ... .. 0 ... : ... .. . ... ...
ROW 4C : ... .. . ... ... ... : ... .. . ... ... ... : ... .. . ... : ... .. . ... : ... .. . ... ...
ROW 4D : ... .. . ... ... ... : ... .. . ... ... ... : ... .. . ... : ... .. . ... : ... .. . ... ...
ROW 4E : ... .. . ... ... ... : ... .. . ... ... ... : ... .. . ... : ... .. . ... : ... .. . ... ...
ROW 4F : ... .. . ... ... ... : ... .. . ... ... ... : ... .. . ... : ... .. . ... : ... .. . ... ...
ROW 50 : ... .. . ... ... ... : ... .. . ... ... ... : ... .. . ... : F-# 00 0 ... : ... .. . ... ...
ROW 51 : ... .. . ... ... ... : ... .. . ... ... ... : ... .. . ... : ... .. . ... : ... .. . ... ...
ROW 52 : ... .. . ... ... ... : ... .. . ... ... ... : ... .. . ... : ... .. . ... : ... .. . ... ...
ROW 53 : ... .. . ... ... ... : ... .. . ... ... ... : --- .. . ... : ... .. . ... : ... .. . ... ...
ROW 54 : ... .. . ... ... ... : ... .. . ... ... ... : ... .. . ... : ... .. . ... : ... .. . ... ...
ROW 55 : ... .. . ... ... ... : ... .. . ... ... ... : ... .. . ... : ... .. . ... : ... .. . ... ...
ROW 56 : ... .. . ... ... ... : ... .. . ... ... ... : ... .. . ... : C-# 00 E ... : ... .. . ... ...
ROW 57 : ... .. . ... ... ... : ... .. . ... ... ... : ... .. . ... : ... .. 0 ... : ... .. . ... ...
ROW 58 : ... .. . ... ... ... : ... .. . ... ... ... : ... .. . ... : ... .. . ... : ... .. . ... ...
ROW 59 : ... .. . ... ... ... : ... .. . ... ... ... : --- .. . ... : ... .. . ... : ... .. . ... ...
ROW 5A : ... .. . ... ... ... : ... .. . ... ... ... : ... .. . ... : ... .. . ... : ... .. . ... ...
ROW 5B : ... .. . ... ... ... : ... .. . ... ... ... : ... .. . ... : ... .. . ... : ... .. . ... ...
ROW 5C : C-4 00 B P81 ... ... : G-4 00 B P81 ... ... : ... .. . ... : ... .. . ... : ... .. . ... ...
ROW 5D : ... .. A ... ... ... : ... .. A ... ... ... : ... .. . ... : ... .. . ... : ... .. . ... ...
ROW 5E : ... .. 9 ... ... ... : ... .. 9 ... ... ... : ... .. . ... : ... .. . ... : ... .. . ... ...
ROW 5F : ... .. 8 ... ... ... : ... .. 8 ... ... ... : ... .. . ... : ... .. . ... : ... .. . ... ...
ROW 60 : ... .. 7 ... ... ... : ... .. 7 ... ... ... : ... .. . ... : ... .. . ... : ... .. . ... ...
ROW 61 : ... .. 6 ... ... ... : ... .. 6 ... ... ... : ... .. . ... : ... .. . ... : ... .. . ... ...
ROW 62 : G#3 00 B P80 ... ... : D#4 00 B P81 ... ... : C-3 00 . ... : C-# 00 E ... : ... .. . ... ...
ROW 63 : ... .. A ... ... ... : ... .. A ... ... ... : ... .. . ... : ... .. 0 ... : ... .. . ... ...
ROW 64 : ... .. 9 ... ... ... : ... .. 9 ... ... ... : ... .. . ... : ... .. . ... : ... .. . ... ...
ROW 65 : ... .. 8 ... ... ... : ... .. 8 ... ... ... : ... .. . ... : ... .. . ... : ... .. . ... ...
ROW 66 : ... .. 7 ... ... ... : ... .. 7 ... ... ... : ... .. . ... : ... .. . ... : ... .. . ... ...
ROW 67 : ... .. 6 ... ... ... : ... .. 6 ... ... ... : ... .. . ... : ... .. . ... : ... .. . ... ...
ROW 68 : ... .. 1 ... ... ... : ... .. 1 ... ... ... : ... .. . ... : F-# 00 0 ... : ... .. . ... ...
ROW 69 : ... .. . ... ... ... : ... .. . ... ... ... : ... .. . ... : ... .. . ... : ... .. . ... ...
ROW 6A : ... .. . ... ... ... : ... .. . ... ... ... : ... .. . ... : ... .. . ... : ... .. . ... ...
ROW 6B : ... .. . ... ... ... : ... .. . ... ... ... : --- .. . ... : ... .. . ... : ... .. . ... ...
ROW 6C : ... .. . ... ... ... : ... .. . ... ... ... : ... .. . ... : ... .. . ... : ... .. . ... ...
ROW 6D : ... .. . ... ... ... : ... .. . ... ... ... : ... .. . ... : ... .. . ... : ... .. . ... ...
ROW 6E : G-3 00 B P80 ... ... : C-4 00 B P81 ... ... : ... .. . ... : C-# 00 E ... : ... .. . ... ...
ROW 6F : ... .. A ... ... ... : ... .. A ... ... ... : ... .. . ... : ... .. 0 ... : ... .. . ... ...
ROW 70 : ... .. . ... ... ... : ... .. . ... ... ... : ... .. . ... : ... .. . ... : ... .. . ... ...
ROW 71 : ... .. . ... ... ... : ... .. . ... ... ... : --- .. . ... : ... .. . ... : ... .. . ... ...
ROW 72 : ... .. . ... ... ... : ... .. . ... ... ... : ... .. . ... : ... .. . ... : ... .. . ... ...
ROW 73 : ... .. . ... ... ... : ... .. . ... ... ... : ... .. . ... : ... .. . ... : ... .. . ... ...
ROW 74 : G-3 00 B P80 ... ... : D#4 00 B P81 ... ... : ... .. . ... : ... .. . ... : ... .. . ... ...
ROW 75 : ... .. A ... ... ... : ... .. A ... ... ... : ... .. . ... : ... .. . ... : ... .. . ... ...
ROW 76 : ... .. 9 ... ... ... : ... .. 9 ... ... ... : ... .. . ... : ... .. . ... : ... .. . ... ...
ROW 77 : ... .. 8 ... ... ... : ... .. 8 ... ... ... : ... .. . ... : ... .. . ... : ... .. . ... ...
ROW 78 : ... .. 7 ... ... ... : ... .. 7 ... ... ... : ... .. . ... : ... .. . ... : ... .. . ... ...
ROW 79 : ... .. 6 ... ... ... : ... .. 6 ... ... ... : ... .. . ... : ... .. . ... : ... .. . ... ...
ROW 7A : F#3 00 B P80 ... ... : C#4 00 B P80 ... ... : D#3 00 . ... : C-# 00 E ... : ... .. . ... ...
ROW 7B : ... .. A ... ... ... : ... .. A ... ... ... : ... .. . ... : ... .. 0 ... : ... .. . ... ...
ROW 7C : ... .. 9 ... ... ... : ... .. 9 ... ... ... : ... .. . ... : ... .. . ... : ... .. . ... ...
ROW 7D : ... .. 8 ... ... ... : ... .. 8 ... ... ... : ... .. . ... : ... .. . ... : ... .. . ... ...
ROW 7E : ... .. 7 ... ... ... : ... .. 7 ... ... ... : ... .. . ... : ... .. . ... : ... .. . ... ...
ROW 7F : ... .. 6 ... ... ... : ... .. 6 ... ... ... : ... .. . ... : ... .. . ... : ... .. . ... ...
ROW 80 : ... .. 1 ... ... ... : ... .. 1 ... ... ... : ... .. . ... : F-# 00 0 ... : ... .. . ... ...
ROW 81 : ... .. . ... ... ... : ... .. . ... ... ... : ... .. . ... : ... .. . ... : ... .. . ... ...
ROW 82 : ... .. . ... ... ... : ... .. . ... ... ... : ... .. . ... : ... .. . ... : ... .. . ... ...
ROW 83 : ... .. . ... ... ... : ... .. . ... ... ... : --- .. . ... : ... .. . ... : ... .. . ... ...
ROW 84 : ... .. . ... ... ... : ... .. . ... ... ... : ... .. . ... : ... .. . ... : ... .. . ... ...
ROW 85 : ... .. . ... ... ... : ... .. . ... ... ... : ... .. . ... : ... .. . ... : ... .. . ... ...
ROW 86 : G-3 00 B P80 ... ... : D#4 00 B P81 ... ... : ... .. . ... : C-# 00 E ... : ... .. . ... ...
ROW 87 : ... .. A ... ... ... : ... .. A ... ... ... : ... .. . ... : ... .. 0 ... : ... .. . ... ...
ROW 88 : ... .. . ... ... ... : ... .. . ... ... ... : ... .. . ... : ... .. . ... : ... .. . ... ...
ROW 89 : ... .. . ... ... ... : ... .. . ... ... ... : --- .. . ... : ... .. . ... : ... .. . ... ...
ROW 8A : ... .. . ... ... ... : ... .. . ... ... ... : ... .. . ... : ... .. . ... : ... .. . ... ...
ROW 8B : ... .. . ... ... ... : ... .. . ... ... ... : ... .. . ... : ... .. . ... : ... .. . ... ...
ROW 8C : C#3 00 B P80 ... ... : G#3 00 B P80 ... ... : ... .. . ... : ... .. . ... : ... .. . ... ...
ROW 8D : ... .. A ... ... ... : ... .. A ... ... ... : ... .. . ... : ... .. . ... : ... .. . ... ...
ROW 8E : ... .. 9 ... ... ... : ... .. 9 ... ... ... : ... .. . ... : ... .. . ... : ... .. . ... ...
ROW 8F : ... .. 8 ... ... ... : ... .. 8 ... ... ... : ... .. . ... : ... .. . ... : ... .. . ... ...
ROW 90 : ... .. 7 ... ... ... : ... .. 7 ... ... ... : ... .. . ... : ... .. . ... : ... .. . ... ...
ROW 91 : ... .. 6 ... ... ... : ... .. 6 ... ... ... : ... .. . ... : ... .. . ... : ... .. . ... ...
ROW 92 : ... .. 1 ... ... ... : ... .. 1 ... ... ... : G#2 00 . P7F : C-# 00 E ... : ... .. . ... ...
ROW 93 : ... .. . ... ... ... : ... .. . ... ... ... : ... .. . ... : ... .. 0 ... : ... .. . ... ...
ROW 94 : ... .. . ... ... ... : ... .. . ... ... ... : ... .. . ... : ... .. . ... : ... .. . ... ...
ROW 95 : ... .. . ... ... ... : ... .. . ... ... ... : ... .. . ... : ... .. . ... : ... .. . ... ...
ROW 96 : ... .. . ... ... ... : ... .. . ... ... ... : ... .. . ... : ... .. . ... : ... .. . ... ...
ROW 97 : ... .. . ... ... ... : ... .. . ... ... ... : ... .. . ... : ... .. . ... : ... .. . ... ...
ROW 98 : ... .. . ... ... ... : ... .. . ... ... ... : ... .. . ... : F-# 00 0 ... : ... .. . ... ...
ROW 99 : ... .. . ... ... ... : ... .. . ... ... ... : ... .. . ... : ... .. . ... : ... .. . ... ...
ROW 9A : ... .. . ... ... ... : ... .. . ... ... ... : ... .. . ... : ... .. . ... : ... .. . ... ...
ROW 9B : ... .. . ... ... ... : ... .. . ... ... ... : --- .. . ... : ... .. . ... : ... .. . ... ...
ROW 9C : ... .. . ... ... ... : ... .. . ... ... ... : ... .. . ... : ... .. . ... : ... .. . ... ...
ROW 9D : ... .. . ... ... ... : ... .. . ... ... ... : ... .. . ... : ... .. . ... : ... .. . ... ...
ROW 9E : F#3 00 B P80 ... ... : C#4 00 B P80 ... ... : ... .. . ... : C-# 00 E ... : ... .. . ... ...
ROW 9F : ... .. A ... ... ... : ... .. A ... ... ... : ... .. . ... : ... .. 0 ... : ... .. . ... ...
ROW A0 : ... .. . ... ... ... : ... .. . ... ... ... : ... .. . ... : ... .. . ... : ... .. . ... ...
ROW A1 : ... .. . ... ... ... : ... .. . ... ... ... : ... .. . ... : ... .. . ... : ... .. . ... ...
ROW A2 : ... .. . ... ... ... : ... .. . ... ... ... : ... .. . ... : ... .. . ... : ... .. . ... ...
ROW A3 : ... .. . ... ... ... : ... .. . ... ... ... : ... .. . ... : ... .. . ... : ... .. . ... ...
ROW A4 : C#3 00 B P80 ... ... : G#3 00 B P80 ... ... : D#3 00 . ... : ... .. . ... : ... .. . ... ...
ROW A5 : ... .. A ... ... ... : ... .. A ... ... ... : ... .. . ... : ... .. . ... : ... .. . ... ...
ROW A6 : ... .. 9 ... ... ... : ... .. 9 ... ... ... : ... .. . ... : ... .. . ... : ... .. . ... ...
ROW A7 : ... .. 8 ... ... ... : ... .. 8 ... ... ... : ... .. . ... : ... .. . ... : ... .. . ... ...
ROW A8 : F#3 00 B P80 ... ... : C#4 00 B P80 ... ... : ... .. . ... : ... .. . ... : ... .. . ... ...
ROW A9 : ... .. A ... ... ... : ... .. A ... ... ... : ... .. . ... : ... .. . ... : ... .. . ... ...
ROW AA : ... .. 9 ... ... ... : ... .. 9 ... ... ... : C-3 00 . ... : C-# 00 E ... : ... .. . ... ...
ROW AB : ... .. 8 ... ... ... : ... .. 8 ... ... ... : ... .. . ... : ... .. 0 ... : ... .. . ... ...
ROW AC : C#3 00 B P80 ... ... : G#3 00 B P80 ... ... : ... .. . ... : ... .. . ... : ... .. . ... ...
ROW AD : ... .. A ... ... ... : ... .. A ... ... ... : ... .. . ... : ... .. . ... : ... .. . ... ...
ROW AE : ... .. 9 ... ... ... : ... .. 9 ... ... ... : ... .. . ... : ... .. . ... : ... .. . ... ...
ROW AF : ... .. 8 ... ... ... : ... .. 8 ... ... ... : ... .. . ... : ... .. . ... : ... .. . ... ...
ROW B0 : C#3 00 B P80 ... ... : C#4 00 B P80 ... ... : ... .. . ... : F-# 00 0 ... : ... .. . ... ...
ROW B1 : ... .. A ... ... ... : ... .. A ... ... ... : ... .. . ... : ... .. . ... : ... .. . ... ...
ROW B2 : ... .. 9 ... ... ... : ... .. 9 ... ... ... : ... .. . ... : ... .. . ... : ... .. . ... ...
ROW B3 : ... .. 8 ... ... ... : ... .. 8 ... ... ... : --- .. . ... : ... .. . ... : ... .. . ... ...
ROW B4 : F#3 00 B P80 ... ... : G#3 00 B P80 ... ... : ... .. . ... : ... .. . ... : ... .. . ... ...
ROW B5 : ... .. A ... ... ... : ... .. A ... ... ... : ... .. . ... : ... .. . ... : ... .. . ... ...
ROW B6 : ... .. 9 ... ... ... : ... .. 9 ... ... ... : ... .. . ... : C-# 00 E ... : ... .. . ... ...
ROW B7 : ... .. 8 ... ... ... : ... .. 8 ... ... ... : ... .. . ... : ... .. 0 ... : ... .. . ... ...
ROW B8 : F#3 00 B P80 ... ... : G#3 00 B P80 ... ... : ... .. . ... : ... .. . ... : ... .. . ... ...
ROW B9 : ... .. A ... ... ... : ... .. A ... ... ... : --- .. . ... : ... .. . ... : ... .. . ... ...
ROW BA : ... .. 9 ... ... ... : ... .. 9 ... ... ... : ... .. . ... : ... .. . ... : ... .. . ... ...
ROW BB : ... .. 8 ... ... ... : ... .. 8 ... ... ... : ... .. . ... : ... .. . ... : ... .. . ... ...
ROW BC : C#3 00 B P80 ... ... : C#4 00 B P80 ... ... : ... .. . ... : ... .. . ... : ... .. . ... ...
ROW BD : ... .. A ... ... ... : ... .. A ... ... ... : ... .. . ... : ... .. . ... : ... .. . ... ...
ROW BE : ... .. 9 ... ... ... : ... .. 9 ... ... ... : ... .. . ... : ... .. . ... : ... .. . ... ...
ROW BF : ... .. 8 ... ... ... : ... .. 8 ... ... ... : ... .. . ... : ... .. . ... : ... .. . ... ...
ROW C0 : F#3 00 B P80 ... ... : G#3 00 B P80 ... ... : ... .. . ... : ... .. . ... : ... .. . ... ...
ROW C1 : ... .. A ... ... ... : ... .. A ... ... ... : ... .. . ... : ... .. . ... : ... .. . ... ...
ROW C2 : ... .. 9 ... ... ... : ... .. 9 ... ... ... : G#2 00 . P7F : C-# 00 E ... : ... .. . ... ...
ROW C3 : ... .. 8 ... ... ... : ... .. 8 ... ... ... : ... .. . ... : ... .. 0 ... : ... .. . ... ...
ROW C4 : C#3 00 B P80 ... ... : C#4 00 B P80 ... ... : ... .. . ... : ... .. . ... : ... .. . ... ...
ROW C5 : ... .. A ... ... ... : ... .. A ... ... ... : ... .. . ... : ... .. . ... : ... .. . ... ...
ROW C6 : ... .. 9 ... ... ... : ... .. 9 ... ... ... : ... .. . ... : ... .. . ... : ... .. . ... ...
ROW C7 : ... .. 8 ... ... ... : ... .. 8 ... ... ... : ... .. . ... : ... .. . ... : ... .. . ... ...
ROW C8 : ... .. 1 ... ... ... : ... .. 1 ... ... ... : ... .. . ... : F-# 00 0 ... : ... .. . ... ...
ROW C9 : ... .. . ... ... ... : ... .. . ... ... ... : ... .. . ... : ... .. . ... : ... .. . ... ...
ROW CA : ... .. . ... ... ... : ... .. . ... ... ... : ... .. . ... : ... .. . ... : ... .. . ... ...
ROW CB : ... .. . ... ... ... : ... .. . ... ... ... : --- .. . ... : ... .. . ... : ... .. . ... ...
ROW CC : ... .. . ... ... ... : ... .. . ... ... ... : ... .. . ... : ... .. . ... : ... .. . ... ...
ROW CD : ... .. . ... ... ... : ... .. . ... ... ... : ... .. . ... : ... .. . ... : ... .. . ... ...
ROW CE : F-3 00 B P80 ... ... : C#4 00 B P80 ... ... : ... .. . ... : C-# 00 E ... : ... .. . ... ...
ROW CF : ... .. A ... ... ... : ... .. A ... ... ... : ... .. . ... : ... .. 0 ... : ... .. . ... ...
ROW D0 : ... .. . ... ... ... : ... .. . ... ... ... : ... .. . ... : ... .. . ... : ... .. . ... ...
ROW D1 : ... .. . ... ... ... : ... .. . ... ... ... : --- .. . ... : ... .. . ... : ... .. . ... ...
ROW D2 : ... .. . ... ... ... : ... .. . ... ... ... : ... .. . ... : ... .. . ... : ... .. . ... ...
ROW D3 : ... .. . ... ... ... : ... .. . ... ... ... : ... .. . ... : ... .. . ... : ... .. . ... ...
ROW D4 : G-3 00 B P80 ... ... : D#4 00 B P81 ... ... : ... .. . ... : ... .. . ... : ... .. . ... ...
ROW D5 : ... .. A ... ... ... : ... .. A ... ... ... : ... .. . ... : ... .. . ... : ... .. . ... ...
ROW D6 : ... .. 9 ... ... ... : ... .. 9 ... ... ... : ... .. . ... : ... .. . ... : ... .. . ... ...
ROW D7 : ... .. 8 ... ... ... : ... .. 8 ... ... ... : ... .. . ... : ... .. . ... : ... .. . ... ...
ROW D8 : ... .. 7 ... ... ... : ... .. 7 ... ... ... : ... .. . ... : ... .. . ... : ... .. . ... ...
ROW D9 : ... .. 6 ... ... ... : ... .. 6 ... ... ... : ... .. . ... : ... .. . ... : ... .. . ... ...
ROW DA : F-3 00 B P80 ... ... : C#4 00 B P80 ... ... : G-3 00 . ... : C-# 00 E ... : ... .. . ... ...
ROW DB : ... .. A ... ... ... : ... .. A ... ... ... : ... .. . ... : ... .. 0 ... : ... .. . ... ...
ROW DC : ... .. 9 ... ... ... : ... .. 9 ... ... ... : ... .. . ... : ... .. . ... : ... .. . ... ...
ROW DD : ... .. 8 ... ... ... : ... .. 8 ... ... ... : ... .. . ... : ... .. . ... : ... .. . ... ...
ROW DE : ... .. 7 ... ... ... : ... .. 7 ... ... ... : ... .. . ... : ... .. . ... : ... .. . ... ...
ROW DF : ... .. 6 ... ... ... : ... .. 6 ... ... ... : ... .. . ... : ... .. . ... : ... .. . ... ...
ROW E0 : ... .. 1 ... ... ... : ... .. 1 ... ... ... : ... .. . ... : F-# 00 0 ... : ... .. . ... ...
ROW E1 : ... .. . ... ... ... : ... .. . ... ... ... : ... .. . ... : ... .. . ... : ... .. . ... ...
ROW E2 : ... .. . ... ... ... : ... .. . ... ... ... : ... .. . ... : ... .. . ... : ... .. . ... ...
ROW E3 : ... .. . ... ... ... : ... .. . ... ... ... : --- .. . ... : ... .. . ... : ... .. . ... ...
ROW E4 : ... .. . ... ... ... : ... .. . ... ... ... : ... .. . ... : ... .. . ... : ... .. . ... ...
ROW E5 : ... .. . ... ... ... : ... .. . ... ... ... : ... .. . ... : ... .. . ... : ... .. . ... ...
ROW E6 : G-3 00 B P80 ... ... : D#4 00 B P81 ... ... : ... .. . ... : C-# 00 E ... : ... .. . ... ...
ROW E7 : ... .. A ... ... ... : ... .. A ... ... ... : ... .. . ... : ... .. 0 ... : ... .. . ... ...
ROW E8 : ... .. . ... ... ... : ... .. . ... ... ... : ... .. . ... : ... .. . ... : ... .. . ... ...
ROW E9 : ... .. . ... ... ... : ... .. . ... ... ... : --- .. . ... : ... .. . ... : ... .. . ... ...
ROW EA : ... .. . ... ... ... : ... .. . ... ... ... : ... .. . ... : ... .. . ... : ... .. . ... ...
ROW EB : ... .. . ... ... ... : ... .. . ... ... ... : ... .. . ... : ... .. . ... : ... .. . ... ...
ROW EC : G-3 00 B P80 ... ... : D#4 00 B P81 ... ... : ... .. . ... : ... .. . ... : ... .. . ... ...
ROW ED : ... .. A ... ... ... : ... .. A ... ... ... : ... .. . ... : ... .. . ... : ... .. . ... ...
ROW EE : ... .. 9 ... ... ... : ... .. 9 ... ... ... : ... .. . ... : ... .. . ... : ... .. . ... ...
ROW EF : ... .. 8 ... ... ... : ... .. 8 ... ... ... : ... .. . ... : ... .. . ... : ... .. . ... ...
ROW F0 : ... .. 7 ... ... ... : ... .. 7 ... ... ... : ... .. . ... : ... .. . ... : ... .. . ... ...
ROW F1 : ... .. 6 ... ... ... : ... .. 6 ... ... ... : ... .. . ... : ... .. . ... : ... .. . ... ...
ROW F2 : ... .. 1 ... ... ... : ... .. 1 ... ... ... : C#3 00 . ... : C-# 00 E ... : ... .. . ... ...
ROW F3 : ... .. . ... ... ... : ... .. . ... ... ... : ... .. . ... : ... .. 0 ... : ... .. . ... ...
ROW F4 : ... .. . ... ... ... : ... .. . ... ... ... : ... .. . ... : ... .. . ... : ... .. . ... ...
ROW F5 : ... .. . ... ... ... : ... .. . ... ... ... : ... .. . ... : ... .. . ... : ... .. . ... ...
ROW F6 : ... .. . ... ... ... : ... .. . ... ... ... : ... .. . ... : ... .. . ... : ... .. . ... ...
ROW F7 : ... .. . ... ... ... : ... .. . ... ... ... : ... .. . ... : ... .. . ... : ... .. . ... ...
ROW F8 : ... .. . ... ... ... : ... .. . ... ... ... : ... .. . ... : F-# 00 0 ... : ... .. . ... ...
ROW F9 : ... .. . ... ... ... : ... .. . ... ... ... : ... .. . ... : ... .. . ... : ... .. . ... ...
ROW FA : ... .. . ... ... ... : ... .. . ... ... ... : ... .. . ... : ... .. . ... : ... .. . ... ...
ROW FB : ... .. . ... ... ... : ... .. . ... ... ... : --- .. . ... : ... .. . ... : ... .. . ... ...
ROW FC : ... .. . ... ... ... : ... .. . ... ... ... : ... .. . ... : ... .. . ... : ... .. . ... ...
ROW FD : ... .. . ... ... ... : ... .. . ... ... ... : ... .. . ... : ... .. . ... : ... .. . ... ...
ROW FE : C-4 00 B P81 ... ... : G#4 00 B P80 ... ... : ... .. . ... : C-# 00 E ... : ... .. . ... ...
ROW FF : ... .. A ... ... ... : ... .. A ... ... ... : ... .. . ... : ... .. 0 ... : ... .. . ... ...

PATTERN 21
ROW 00 : ... .. . ... ... ... : ... .. . ... ... ... : ... .. . ... : ... .. . ... : ... .. . ... ...
ROW 01 : ... .. . ... ... ... : ... .. . ... ... ... : --- .. . ... : ... .. . ... : ... .. . ... ...
ROW 02 : ... .. . ... ... ... : ... .. . ... ... ... : ... .. . ... : ... .. . ... : ... .. . ... ...
ROW 03 : ... .. . ... ... ... : ... .. . ... ... ... : ... .. . ... : ... .. . ... : ... .. . ... ...
ROW 04 : B-3 00 B P80 ... ... : G-4 00 B P81 ... ... : ... .. . ... : ... .. . ... : ... .. . ... ...
ROW 05 : ... .. A ... ... ... : ... .. A ... ... ... : ... .. . ... : ... .. . ... : ... .. . ... ...
ROW 06 : ... .. 9 ... ... ... : ... .. 9 ... ... ... : ... .. . ... : ... .. . ... : ... .. . ... ...
ROW 07 : ... .. 8 ... ... ... : ... .. 8 ... ... ... : ... .. . ... : ... .. . ... : ... .. . ... ...
ROW 08 : ... .. 7 ... ... ... : ... .. 7 ... ... ... : ... .. . ... : ... .. . ... : ... .. . ... ...
ROW 09 : ... .. 6 ... ... ... : ... .. 6 ... ... ... : ... .. . ... : ... .. . ... : ... .. . ... ...
ROW 0A : C-4 00 B P81 ... ... : G#4 00 B P80 ... ... : G-2 00 . ... : C-# 00 E ... : ... .. . ... ...
ROW 0B : ... .. A ... ... ... : ... .. A ... ... ... : ... .. . ... : ... .. 0 ... : ... .. . ... ...
ROW 0C : ... .. 9 ... ... ... : ... .. 9 ... ... ... : ... .. . ... : ... .. . ... : ... .. . ... ...
ROW 0D : ... .. 8 ... ... ... : ... .. 8 ... ... ... : ... .. . ... : ... .. . ... : ... .. . ... ...
ROW 0E : ... .. 7 ... ... ... : ... .. 7 ... ... ... : ... .. . ... : ... .. . ... : ... .. . ... ...
ROW 0F : ... .. 6 ... ... ... : ... .. 6 ... ... ... : ... .. . ... : ... .. . ... : ... .. . ... ...
ROW 10 : ... .. 1 ... ... ... : ... .. 1 ... ... ... : ... .. . ... : F-# 00 0 ... : ... .. . ... ...
ROW 11 : ... .. . ... ... ... : ... .. . ... ... ... : ... .. . ... : ... .. . ... : ... .. . ... ...
ROW 12 : ... .. . ... ... ... : ... .. . ... ... ... : ... .. . ... : ... .. . ... : ... .. . ... ...
ROW 13 : ... .. . ... ... ... : ... .. . ... ... ... : --- .. . ... : ... .. . ... : ... .. . ... ...
ROW 14 : ... .. . ... ... ... : ... .. . ... ... ... : ... .. . ... : ... .. . ... : ... .. . ... ...
ROW 15 : ... .. . ... ... ... : ... .. . ... ... ... : ... .. . ... : ... .. . ... : ... .. . ... ...
ROW 16 : B-3 00 B P80 ... ... : G-4 00 B P81 ... ... : ... .. . ... : C-# 00 E ... : ... .. . ... ...
ROW 17 : ... .. A ... ... ... : ... .. A ... ... ... : ... .. . ... : ... .. 0 ... : ... .. . ... ...
ROW 18 : ... .. . ... ... ... : ... .. . ... ... ... : ... .. . ... : ... .. . ... : ... .. . ... ...
ROW 19 : ... .. . ... ... ... : ... .. . ... ... ... : --- .. . ... : ... .. . ... : ... .. . ... ...
ROW 1A : ... .. . ... ... ... : ... .. . ... ... ... : ... .. . ... : ... .. . ... : ... .. . ... ...
ROW 1B : ... .. . ... ... ... : ... .. . ... ... ... : ... .. . ... : ... .. . ... : ... .. . ... ...
ROW 1C : B-3 00 B P80 ... ... : G-4 00 B P81 ... ... : ... .. . ... : ... .. . ... : ... .. . ... ...
ROW 1D : ... .. A ... ... ... : ... .. A ... ... ... : ... .. . ... : ... .. . ... : ... .. . ... ...
ROW 1E : ... .. 9 ... ... ... : ... .. 9 ... ... ... : ... .. . ... : ... .. . ... : ... .. . ... ...
ROW 1F : ... .. 8 ... ... ... : ... .. 8 ... ... ... : ... .. . ... : ... .. . ... : ... .. . ... ...
ROW 20 : ... .. 7 ... ... ... : ... .. 7 ... ... ... : ... .. . ... : ... .. . ... : ... .. . ... ...
ROW 21 : ... .. 6 ... ... ... : ... .. 6 ... ... ... : ... .. . ... : ... .. . ... : ... .. . ... ...
ROW 22 : G-3 00 B P80 ... ... : D#4 00 B P81 ... ... : B-2 00 . P80 : C-# 00 E ... : ... .. . ... ...
ROW 23 : ... .. A ... ... ... : ... .. A ... ... ... : ... .. . ... : ... .. 0 ... : ... .. . ... ...
ROW 24 : ... .. 9 ... ... ... : ... .. 9 ... ... ... : ... .. . ... : ... .. . ... : ... .. . ... ...
ROW 25 : ... .. 8 ... ... ... : ... .. 8 ... ... ... : ... .. . ... : ... .. . ... : ... .. . ... ...
ROW 26 : ... .. 7 ... ... ... : ... .. 7 ... ... ... : ... .. . ... : ... .. . ... : ... .. . ... ...
ROW 27 : ... .. 6 ... ... ... : ... .. 6 ... ... ... : ... .. . ... : ... .. . ... : ... .. . ... ...
ROW 28 : ... .. 1 ... ... ... : ... .. 1 ... ... ... : ... .. . ... : F-# 00 0 ... : ... .. . ... ...
ROW 29 : ... .. . ... ... ... : ... .. . ... ... ... : ... .. . ... : ... .. . ... : ... .. . ... ...
ROW 2A : ... .. . ... ... ... : ... .. . ... ... ... : ... .. . ... : ... .. . ... : ... .. . ... ...
ROW 2B : ... .. . ... ... ... : ... .. . ... ... ... : --- .. . ... : ... .. . ... : ... .. . ... ...
ROW 2C : ... .. . ... ... ... : ... .. . ... ... ... : ... .. . ... : ... .. . ... : ... .. . ... ...
ROW 2D : ... .. . ... ... ... : ... .. . ... ... ... : ... .. . ... : ... .. . ... : ... .. . ... ...
ROW 2E : D#3 00 B P80 ... ... : C-4 00 B P81 ... ... : ... .. . ... : C-# 00 E ... : ... .. . ... ...
ROW 2F : ... .. A ... ... ... : ... .. A ... ... ... : ... .. . ... : ... .. 0 ... : ... .. . ... ...
ROW 30 : ... .. . ... ... ... : ... .. . ... ... ... : ... .. . ... : ... .. . ... : ... .. . ... ...
ROW 31 : ... .. . ... ... ... : ... .. . ... ... ... : --- .. . ... : ... .. . ... : ... .. . ... ...
ROW 32 : ... .. . ... ... ... : ... .. . ... ... ... : ... .. . ... : ... .. . ... : ... .. . ... ...
ROW 33 : ... .. . ... ... ... : ... .. . ... ... ... : ... .. . ... : ... .. . ... : ... .. . ... ...
ROW 34 : ... .. . ... ... ... : ... .. . ... ... ... : ... .. . ... : ... .. . ... : ... .. . ... ...
ROW 35 : ... .. . ... ... ... : ... .. . ... ... ... : ... .. . ... : ... .. . ... : ... .. . ... ...
ROW 36 : ... .. . ... ... ... : ... .. . ... ... ... : ... .. . ... : ... .. . ... : ... .. . ... ...
ROW 37 : ... .. . ... ... ... : ... .. . ... ... ... : ... .. . ... : ... .. . ... : ... .. . ... ...
ROW 38 : ... .. . ... ... ... : ... .. . ... ... ... : ... .. . ... : ... .. . ... : ... .. . ... ...
ROW 39 : ... .. . ... ... ... : ... .. . ... ... ... : ... .. . ... : ... .. . ... : ... .. . ... ...
ROW 3A : ... .. . ... ... ... : ... .. . ... ... ... : G-2 00 . ... : C-# 00 E ... : ... .. . ... ...
ROW 3B : ... .. . ... ... ... : ... .. . ... ... ... : ... .. . ... : ... .. 0 ... : ... .. . ... ...
ROW 3C : ... .. . ... ... ... : ... .. . ... ... ... : ... .. . ... : ... .. . ... : ... .. . ... ...
ROW 3D : ... .. . ... ... ... : ... .. . ... ... ... : ... .. . ... : ... .. . ... : ... .. . ... ...
ROW 3E : ... .. . ... ... ... : ... .. . ... ... ... : ... .. . ... : ... .. . ... : ... .. . ... ...
ROW 3F : ... .. . ... ... ... : ... .. . ... ... ... : ... .. . ... : ... .. . ... : ... .. . ... ...
ROW 40 : ... .. . ... ... ... : ... .. . ... ... ... : ... .. . ... : F-# 00 0 ... : ... .. . ... ...
ROW 41 : ... .. . ... ... ... : ... .. . ... ... ... : ... .. . ... : ... .. . ... : ... .. . ... ...
ROW 42 : ... .. . ... ... ... : ... .. . ... ... ... : ... .. . ... : ... .. . ... : ... .. . ... ...
ROW 43 : ... .. . ... ... ... : ... .. . ... ... ... : --- .. . ... : ... .. . ... : ... .. . ... ...
ROW 44 : ... .. . ... ... ... : ... .. . ... ... ... : ... .. . ... : ... .. . ... : ... .. . ... ...
ROW 45 : ... .. . ... ... ... : ... .. . ... ... ... : ... .. . ... : ... .. . ... : ... .. . ... ...
ROW 46 : ... .. 0 ... V02 ... : F#3 00 8 P80 V02 ... : ... .. . ... : C-# 00 E ... : ... .. . ... ...
ROW 47 : ... .. . ... ... ... : ... .. . ... ... ... : ... .. . ... : ... .. 0 ... : ... .. . ... ...
ROW 48 : ... .. . ... ... ... : ... .. . ... ... ... : ... .. . ... : ... .. . ... : ... .. . ... ...
ROW 49 : ... .. . ... ... ... : ... .. . ... ... ... : --- .. . ... : ... .. . ... : ... .. . ... ...
ROW 4A : ... .. . ... ... ... : ... .. . ... ... ... : ... .. . ... : ... .. . ... : ... .. . ... ...
ROW 4B : ... .. . ... ... ... : ... .. . ... ... ... : ... .. . ... : ... .. . ... : ... .. . ... ...
ROW 4C : ... .. . ... ... ... : G#3 00 8 P80 ... ... : ... .. . ... : ... .. . ... : ... .. . ... ...
ROW 4D : ... .. . ... ... ... : ... .. . ... ... ... : ... .. . ... : ... .. . ... : ... .. . ... ...
ROW 4E : ... .. . ... ... ... : ... .. 7 ... ... ... : ... .. . ... : ... .. . ... : ... .. . ... ...
ROW 4F : ... .. . ... ... ... : ... .. . ... ... ... : ... .. . ... : ... .. . ... : ... .. . ... ...
ROW 50 : ... .. . ... ... ... : ... .. . ... ... ... : ... .. . ... : ... .. . ... : ... .. . ... ...
ROW 51 : ... .. . ... ... ... : ... .. . ... ... ... : ... .. . ... : ... .. . ... : ... .. . ... ...
ROW 52 : F-3 00 8 P80 ... ... : G#3 00 8 P80 ... ... : B-2 00 . P80 : C-# 00 E ... : ... .. . ... ...
ROW 53 : ... .. . ... ... ... : ... .. . ... ... ... : ... .. . ... : ... .. 0 ... : ... .. . ... ...
ROW 54 : ... .. 7 ... ... ... : ... .. 7 ... ... ... : ... .. . ... : ... .. . ... : ... .. . ... ...
ROW 55 : ... .. . ... ... ... : ... .. . ... ... ... : ... .. . ... : ... .. . ... : ... .. . ... ...
ROW 56 : ... .. . ... ... ... : ... .. . ... ... ... : ... .. . ... : ... .. . ... : ... .. . ... ...
ROW 57 : ... .. . ... ... ... : ... .. . ... ... ... : ... .. . ... : ... .. . ... : ... .. . ... ...
ROW 58 : ... .. 0 ... ... ... : ... .. 0 ... ... ... : ... .. . ... : F-# 00 0 ... : ... .. . ... ...
ROW 59 : ... .. . ... ... ... : ... .. . ... ... ... : ... .. . ... : ... .. . ... : ... .. . ... ...
ROW 5A : ... .. . ... ... ... : ... .. . ... ... ... : ... .. . ... : ... .. . ... : ... .. . ... ...
ROW 5B : ... .. . ... ... ... : ... .. . ... ... ... : --- .. . ... : ... .. . ... : ... .. . ... ...
ROW 5C : ... .. . ... ... ... : ... .. . ... ... ... : ... .. . ... : ... .. . ... : ... .. . ... ...
ROW 5D : ... .. . ... ... ... : ... .. . ... ... ... : ... .. . ... : ... .. . ... : ... .. . ... ...
ROW 5E : D#3 00 8 P80 ... ... : C-4 00 8 P81 ... ... : ... .. . ... : C-# 00 E ... : ... .. . ... ...
ROW 5F : ... .. . ... ... ... : ... .. . ... ... ... : ... .. . ... : ... .. 0 ... : ... .. . ... ...
ROW 60 : ... .. . ... ... ... : ... .. . ... ... ... : ... .. . ... : ... .. . ... : ... .. . ... ...
ROW 61 : ... .. . ... ... ... : ... .. . ... ... ... : --- .. . ... : ... .. . ... : ... .. . ... ...
ROW 62 : ... .. . ... ... ... : ... .. . ... ... ... : ... .. . ... : ... .. . ... : ... .. . ... ...
ROW 63 : ... .. . ... ... ... : ... .. . ... ... ... : ... .. . ... : ... .. . ... : ... .. . ... ...
ROW 64 : ... .. . ... ... ... : ... .. . ... ... ... : ... .. . ... : ... .. . ... : ... .. . ... ...
ROW 65 : ... .. . ... ... ... : ... .. . ... ... ... : ... .. . ... : ... .. . ... : ... .. . ... ...
ROW 66 : ... .. . ... ... ... : ... .. . ... ... ... : ... .. . ... : ... .. . ... : ... .. . ... ...
ROW 67 : ... .. . ... ... ... : ... .. . ... ... ... : ... .. . ... : ... .. . ... : ... .. . ... ...
ROW 68 : ... .. . ... ... ... : ... .. . ... ... ... : ... .. . ... : ... .. . ... : ... .. . ... ...
ROW 69 : ... .. . ... ... ... : ... .. . ... ... ... : ... .. . ... : ... .. . ... : ... .. . ... ...
ROW 6A : ... .. . ... ... ... : ... .. . ... ... ... : ... .. . ... : C-# 00 E ... : ... .. . ... ...
ROW 6B : ... .. . ... ... ... : ... .. . ... ... ... : ... .. . ... : ... .. 0 ... : ... .. . ... ...
ROW 6C : ... .. . ... ... ... : ... .. . ... ... ... : ... .. . ... : ... .. . ... : ... .. . ... ...
ROW 6D : ... .. . ... ... ... : ... .. . ... ... ... : ... .. . ... : ... .. . ... : ... .. . ... ...
ROW 6E : ... .. . ... ... ... : ... .. . ... ... ... : ... .. . ... : ... .. . ... : ... .. . ... ...
ROW 6F : ... .. . ... ... ... : ... .. . ... ... ... : ... .. . ... : ... .. . ... : ... .. . ... ...
ROW 70 : ... .. . ... ... ... : ... .. . ... ... ... : ... .. . ... : F-# 00 0 ... : ... .. . ... ...
ROW 71 : ... .. . ... ... ... : ... .. . ... ... ... : ... .. . ... : ... .. . ... : ... .. . ... ...
ROW 72 : ... .. . ... ... ... : ... .. . ... ... ... : ... .. . ... : ... .. . ... : ... .. . ... ...
ROW 73 : ... .. . ... ... ... : ... .. . ... ... ... : ... .. . ... : ... .. . ... : ... .. . ... ...
ROW 74 : ... .. . ... ... ... : ... .. . ... ... ... : ... .. . ... : ... .. . ... : ... .. . ... ...
ROW 75 : ... .. . ... ... ... : ... .. . ... ... ... : ... .. . ... : ... .. . ... : ... .. . ... ...
ROW 76 : D#3 00 8 P80 ... ... : C-4 00 8 P81 ... ... : C-3 00 . ... : C-# 00 E ... : ... .. . ... ...
ROW 77 : ... .. . ... ... ... : ... .. . ... ... ... : ... .. . ... : ... .. 0 ... : ... .. . ... ...
ROW 78 : ... .. . ... ... ... : ... .. . ... ... ... : ... .. . ... : ... .. . ... : ... .. . ... ...
ROW 79 : ... .. . ... ... ... : ... .. . ... ... ... : ... .. . ... : ... .. . ... : ... .. . ... ...
ROW 7A : ... .. . ... ... ... : ... .. . ... ... ... : ... .. . ... : ... .. . ... : ... .. . ... ...
ROW 7B : ... .. . ... ... ... : ... .. . ... ... ... : ... .. . ... : ... .. . ... : ... .. . ... ...
ROW 7C : ... .. . ... ... ... : ... .. . ... ... ... : ... .. . ... : ... .. . ... : ... .. . ... ...
ROW 7D : ... .. . ... ... ... : ... .. . ... ... ... : ... .. . ... : ... .. . ... : ... .. . ... ...
ROW 7E : ... .. . ... ... ... : ... .. . ... ... ... : ... .. . ... : ... .. . ... : ... .. . ... ...
ROW 7F : ... .. . ... ... ... : ... .. . ... ... ... : ... .. . ... : ... .. . ... : ... .. . ... ...
ROW 80 : ... .. . ... ... ... : ... .. . ... ... ... : ... .. . ... : ... .. . ... : ... .. . ... ...
ROW 81 : ... .. . ... ... ... : ... .. . ... ... ... : ... .. . ... : ... .. . ... : ... .. . ... ...
ROW 82 : ... .. 1 ... V01 ... : ... .. 1 ... V01 ... : ... .. . ... : C-# 00 E ... : ... .. . ... ...
ROW 83 : ... .. . ... ... ... : ... .. . ... ... ... : ... .. . ... : ... .. 0 ... : ... .. . ... ...
ROW 84 : ... .. . ... ... ... : ... .. . ... ... ... : ... .. . ... : ... .. . ... : ... .. . ... ...
ROW 85 : ... .. . ... ... ... : ... .. . ... ... ... : ... .. . ... : ... .. . ... : ... .. . ... ...
ROW 86 : ... .. . ... ... ... : ... .. . ... ... ... : ... .. . ... : ... .. . ... : ... .. . ... ...
ROW 87 : ... .. . ... ... ... : ... .. . ... ... ... : ... .. . ... : ... .. . ... : ... .. . ... ...
ROW 88 : ... .. . ... ... ... : ... .. . ... ... ... : ... .. . ... : F-# 00 0 ... : ... .. . ... ...
ROW 89 : ... .. . ... ... ... : ... .. . ... ... ... : ... .. . ... : ... .. . ... : ... .. . ... ...
ROW 8A : ... .. . ... ... ... : ... .. . ... ... ... : ... .. . ... : ... .. . ... : ... .. . ... ...
ROW 8B : ... .. . ... ... ... : ... .. . ... ... ... : ... .. . ... : ... .. . ... : ... .. . ... ...
ROW 8C : ... .. . ... ... ... : ... .. . ... ... ... : ... .. . ... : ... .. . ... : ... .. . ... ...
ROW 8D : ... .. . ... ... ... : ... .. . ... ... ... : ... .. . ... : ... .. . ... : ... .. . ... ...
ROW 8E : D#3 00 B P80 ... ... : D#4 00 B P83 ... ... : ... .. . ... : C-# 00 E ... : ... .. . ... ...
ROW 8F : ... .. A ... ... ... : ... .. A ... ... ... : ... .. . ... : ... .. 0 ... : ... .. . ... ...
ROW 90 : ... .. . ... ... ... : ... .. . ... ... ... : ... .. . ... : ... .. . ... : ... .. . ... ...
ROW 91 : ... .. . ... ... ... : ... .. . ... ... ... : --- .. . ... : ... .. . ... : ... .. . ... ...
ROW 92 : ... .. . ... ... ... : ... .. . ... ... ... : ... .. . ... : ... .. . ... : ... .. . ... ...
ROW 93 : ... .. . ... ... ... : ... .. . ... ... ... : ... .. . ... : ... .. . ... : ... .. . ... ...
ROW 94 : F-3 00 B P80 ... ... : F-4 00 B P82 ... ... : ... .. . ... : ... .. . ... : ... .. . ... ...
ROW 95 : ... .. A ... ... ... : ... .. A ... ... ... : ... .. . ... : ... .. . ... : ... .. . ... ...
ROW 96 : ... .. 9 ... ... ... : ... .. 9 ... ... ... : ... .. . ... : ... .. . ... : ... .. . ... ...
ROW 97 : ... .. 8 ... ... ... : ... .. 8 ... ... ... : ... .. . ... : ... .. . ... : ... .. . ... ...
ROW 98 : ... .. 7 ... ... ... : ... .. 7 ... ... ... : ... .. . ... : ... .. . ... : ... .. . ... ...
ROW 99 : ... .. 6 ... ... ... : ... .. 6 ... ... ... : ... .. . ... : ... .. . ... : ... .. . ... ...
ROW 9A : D-3 00 B P80 ... ... : D-4 00 B P83 ... ... : B-3 00 . ... : 6-# 00 F ... : ... .. . ... ...
ROW 9B : ... .. A ... ... ... : ... .. A ... ... ... : ... .. . ... : ... .. C ... : ... .. . ... ...
ROW 9C : ... .. 9 ... ... ... : ... .. 9 ... ... ... : ... .. . ... : ... .. 8 ... : ... .. . ... ...
ROW 9D : ... .. 8 ... ... ... : ... .. 8 ... ... ... : ... .. . ... : ... .. 4 ... : ... .. . ... ...
ROW 9E : ... .. 7 ... ... ... : ... .. 7 ... ... ... : ... .. . ... : ... .. 0 ... : ... .. . ... ...
ROW 9F : ... .. 6 ... ... ... : ... .. 6 ... ... ... : ... .. . ... : ... .. . ... : ... .. . ... ...
ROW A0 : ... .. 1 ... ... ... : ... .. 1 ... ... ... : ... .. . ... : F-# 00 0 ... : ... .. . ... ...
ROW A1 : ... .. . ... ... ... : ... .. . ... ... ... : ... .. . ... : ... .. . ... : ... .. . ... ...
ROW A2 : ... .. . ... ... ... : ... .. . ... ... ... : ... .. . ... : ... .. . ... : ... .. . ... ...
ROW A3 : ... .. . ... ... ... : ... .. . ... ... ... : --- .. . ... : ... .. . ... : ... .. . ... ...
ROW A4 : ... .. . ... ... ... : ... .. . ... ... ... : ... .. . ... : ... .. . ... : ... .. . ... ...
ROW A5 : ... .. . ... ... ... : ... .. . ... ... ... : ... .. . ... : ... .. . ... : ... .. . ... ...
ROW A6 : D#3 00 B P80 ... ... : D#4 00 B P83 ... ... : ... .. . ... : 6-# 00 C ... : ... .. . ... ...
ROW A7 : ... .. A ... ... ... : ... .. A ... ... ... : ... .. . ... : ... .. 8 ... : ... .. . ... ...
ROW A8 : ... .. . ... ... ... : ... .. . ... ... ... : ... .. . ... : ... .. . ... : ... .. . ... ...
ROW A9 : ... .. . ... ... ... : ... .. . ... ... ... : --- .. . ... : ... .. . ... : ... .. . ... ...
ROW AA : ... .. . ... ... ... : ... .. . ... ... ... : ... .. . ... : ... .. . ... : ... .. . ... ...
ROW AB : ... .. . ... ... ... : ... .. . ... ... ... : ... .. . ... : ... .. . ... : ... .. . ... ...
ROW AC : D-3 00 B P80 ... ... : D-4 00 B P83 ... ... : ... .. . ... : ... .. . ... : ... .. . ... ...
ROW AD : ... .. A ... ... ... : ... .. A ... ... ... : ... .. . ... : ... .. . ... : ... .. . ... ...
ROW AE : ... .. 9 ... ... ... : ... .. 9 ... ... ... : ... .. . ... : ... .. . ... : ... .. . ... ...
ROW AF : ... .. 8 ... ... ... : ... .. 8 ... ... ... : ... .. . ... : ... .. . ... : ... .. . ... ...
ROW B0 : ... .. 7 ... ... ... : ... .. 7 ... ... ... : ... .. . ... : ... .. . ... : ... .. . ... ...
ROW B1 : ... .. 6 ... ... ... : ... .. 6 ... ... ... : ... .. . ... : ... .. . ... : ... .. . ... ...
ROW B2 : D#3 00 B P80 ... ... : D#4 00 B P83 ... ... : F-3 00 . ... : 6-# 00 F ... : ... .. . ... ...
ROW B3 : ... .. A ... ... ... : ... .. A ... ... ... : ... .. . ... : ... .. D ... : ... .. . ... ...
ROW B4 : ... .. 9 ... ... ... : ... .. 9 ... ... ... : ... .. . ... : ... .. 9 ... : ... .. . ... ...
ROW B5 : ... .. 8 ... ... ... : ... .. 8 ... ... ... : ... .. . ... : ... .. 5 ... : ... .. . ... ...
ROW B6 : ... .. 7 ... ... ... : ... .. 7 ... ... ... : ... .. . ... : ... .. 1 ... : ... .. . ... ...
ROW B7 : ... .. 6 ... ... ... : ... .. 6 ... ... ... : ... .. . ... : ... .. 0 ... : ... .. . ... ...
ROW B8 : ... .. 1 ... ... ... : ... .. 1 ... ... ... : ... .. . ... : F-# 00 0 ... : ... .. . ... ...
ROW B9 : ... .. . ... ... ... : ... .. . ... ... ... : ... .. . ... : ... .. . ... : ... .. . ... ...
ROW BA : ... .. . ... ... ... : ... .. . ... ... ... : ... .. . ... : ... .. . ... : ... .. . ... ...
ROW BB : ... .. . ... ... ... : ... .. . ... ... ... : --- .. . ... : ... .. . ... : ... .. . ... ...
ROW BC : ... .. . ... ... ... : ... .. . ... ... ... : ... .. . ... : ... .. . ... : ... .. . ... ...
ROW BD : ... .. . ... ... ... : ... .. . ... ... ... : ... .. . ... : ... .. . ... : ... .. . ... ...
ROW BE : B-3 00 B P80 ... ... : B-4 00 B P82 ... ... : ... .. . ... : 6-# 00 C ... : ... .. . ... ...
ROW BF : ... .. A ... ... ... : ... .. A ... ... ... : ... .. . ... : ... .. 8 ... : ... .. . ... ...
ROW C0 : ... .. . ... ... ... : ... .. . ... ... ... : ... .. . ... : ... .. . ... : ... .. . ... ...
ROW C1 : ... .. . ... ... ... : ... .. . ... ... ... : --- .. . ... : ... .. . ... : ... .. . ... ...
ROW C2 : ... .. . ... ... ... : ... .. . ... ... ... : ... .. . ... : ... .. . ... : ... .. . ... ...
ROW C3 : ... .. . ... ... ... : ... .. . ... ... ... : ... .. . ... : ... .. . ... : ... .. . ... ...
ROW C4 : ... .. . ... ... ... : ... .. . ... ... ... : ... .. . ... : ... .. . ... : ... .. . ... ...
ROW C5 : ... .. . ... ... ... : ... .. . ... ... ... : ... .. . ... : ... .. . ... : ... .. . ... ...
ROW C6 : ... .. . ... ... ... : ... .. . ... ... ... : ... .. . ... : ... .. . ... : ... .. . ... ...
ROW C7 : ... .. . ... ... ... : ... .. . ... ... ... : ... .. . ... : ... .. . ... : ... .. . ... ...
ROW C8 : ... .. . ... ... ... : ... .. . ... ... ... : ... .. . ... : ... .. . ... : ... .. . ... ...
ROW C9 : ... .. . ... ... ... : ... .. . ... ... ... : ... .. . ... : ... .. . ... : ... .. . ... ...
ROW CA : G#3 00 B P80 ... ... : G#4 00 B P83 ... ... : C#3 00 . ... : 6-# 00 F ... : ... .. . ... ...
ROW CB : ... .. A ... ... ... : ... .. A ... ... ... : ... .. . ... : ... .. D ... : ... .. . ... ...
ROW CC : ... .. 9 ... ... ... : ... .. 9 ... ... ... : ... .. . ... : ... .. 9 ... : ... .. . ... ...
ROW CD : ... .. 8 ... ... ... : ... .. 8 ... ... ... : ... .. . ... : ... .. 5 ... : ... .. . ... ...
ROW CE : ... .. 7 ... ... ... : ... .. 7 ... ... ... : ... .. . ... : ... .. 1 ... : ... .. . ... ...
ROW CF : ... .. 6 ... ... ... : ... .. 6 ... ... ... : ... .. . ... : ... .. 0 ... : ... .. . ... ...
ROW D0 : ... .. 5 ... ... ... : ... .. 5 ... ... ... : ... .. . ... : F-# 00 0 ... : ... .. . ... ...
ROW D1 : ... .. 4 ... ... ... : ... .. 4 ... ... ... : ... .. . ... : ... .. . ... : ... .. . ... ...
ROW D2 : ... .. 3 ... ... ... : ... .. 3 ... ... ... : ... .. . ... : ... .. . ... : ... .. . ... ...
ROW D3 : ... .. 2 ... ... ... : ... .. 2 ... ... ... : --- .. . ... : ... .. . ... : ... .. . ... ...
ROW D4 : ... .. 1 ... ... ... : ... .. 1 ... ... ... : ... .. . ... : ... .. . ... : ... .. . ... ...
ROW D5 : ... .. . ... ... ... : ... .. . ... ... ... : ... .. . ... : ... .. . ... : ... .. . ... ...
ROW D6 : ... .. . ... ... ... : ... .. . ... ... ... : ... .. . ... : 6-# 00 C ... : ... .. . ... ...
ROW D7 : ... .. . ... ... ... : ... .. . ... ... ... : ... .. . ... : ... .. 8 ... : ... .. . ... ...
ROW D8 : ... .. 3 ... ... ... : ... .. 3 ... ... ... : ... .. . ... : ... .. . ... : ... .. . ... ...
ROW D9 : ... .. 2 ... ... ... : ... .. 2 ... ... ... : --- .. . ... : ... .. . ... : ... .. . ... ...
ROW DA : ... .. 1 ... ... ... : ... .. 1 ... ... ... : ... .. . ... : ... .. . ... : ... .. . ... ...
ROW DB : ... .. . ... ... ... : ... .. . ... ... ... : ... .. . ... : ... .. . ... : ... .. . ... ...
ROW DC : ... .. . ... ... ... : ... .. . ... ... ... : ... .. . ... : ... .. . ... : ... .. . ... ...
ROW DD : ... .. . ... ... ... : ... .. . ... ... ... : ... .. . ... : ... .. . ... : ... .. . ... ...
ROW DE : ... .. . ... ... ... : ... .. . ... ... ... : ... .. . ... : ... .. . ... : ... .. . ... ...
ROW DF : ... .. . ... ... ... : ... .. . ... ... ... : ... .. . ... : ... .. . ... : ... .. . ... ...
ROW E0 : ... .. . ... ... ... : ... .. . ... ... ... : ... .. . ... : ... .. . ... : ... .. . ... ...
ROW E1 : ... .. . ... ... ... : ... .. . ... ... ... : ... .. . ... : ... .. . ... : ... .. . ... ...
ROW E2 : D#3 00 B P80 ... ... : D#4 00 B P83 ... ... : G#2 00 . ... : 6-# 00 F ... : ... .. . ... ...
ROW E3 : ... .. A ... ... ... : ... .. A ... ... ... : ... .. . ... : ... .. D ... : ... .. . ... ...
ROW E4 : ... .. 9 ... ... ... : ... .. 9 ... ... ... : ... .. . ... : ... .. 9 ... : ... .. . ... ...
ROW E5 : ... .. 8 ... ... ... : ... .. 8 ... ... ... : ... .. . ... : ... .. 5 ... : ... .. . ... ...
ROW E6 : ... .. 7 ... ... ... : ... .. 7 ... ... ... : ... .. . ... : ... .. 1 ... : ... .. . ... ...
ROW E7 : ... .. 6 ... ... ... : ... .. 6 ... ... ... : ... .. . ... : ... .. 0 ... : ... .. . ... ...
ROW E8 : ... .. 5 ... ... ... : ... .. 5 ... ... ... : ... .. . ... : F-# 00 0 ... : ... .. . ... ...
ROW E9 : ... .. 4 ... ... ... : ... .. 4 ... ... ... : ... .. . ... : ... .. . ... : ... .. . ... ...
ROW EA : ... .. 3 ... ... ... : ... .. 3 ... ... ... : ... .. . ... : ... .. . ... : ... .. . ... ...
ROW EB : ... .. 2 ... ... ... : ... .. 2 ... ... ... : --- .. . ... : ... .. . ... : ... .. . ... ...
ROW EC : ... .. 1 ... ... ... : ... .. 1 ... ... ... : ... .. . ... : ... .. . ... : ... .. . ... ...
ROW ED : ... .. . ... ... ... : ... .. . ... ... ... : ... .. . ... : ... .. . ... : ... .. . ... ...
ROW EE : ... .. . ... ... ... : ... .. . ... ... ... : ... .. . ... : 6-# 00 C ... : ... .. . ... ...
ROW EF : ... .. . ... ... ... : ... .. . ... ... ... : ... .. . ... : ... .. 8 ... : ... .. . ... ...
ROW F0 : ... .. 9 ... ... ... : ... .. 9 ... ... ... : ... .. . ... : ... .. . ... : ... .. . ... ...
ROW F1 : ... .. 8 ... ... ... : ... .. 8 ... ... ... : --- .. . ... : ... .. . ... : ... .. . ... ...
ROW F2 : C#3 00 B P80 ... ... : C#4 00 B P82 ... ... : ... .. . ... : ... .. . ... : ... .. . ... ...
ROW F3 : ... .. A ... ... ... : ... .. A ... ... ... : ... .. . ... : ... .. . ... : ... .. . ... ...
ROW F4 : ... .. 9 ... ... ... : ... .. 9 ... ... ... : ... .. . ... : ... .. . ... : ... .. . ... ...
ROW F5 : ... .. 8 ... ... ... : ... .. 8 ... ... ... : ... .. . ... : ... .. . ... : ... .. . ... ...
ROW F6 : C-3 00 B P80 ... ... : C-4 00 B P83 ... ... : ... .. . ... : ... .. . ... : ... .. . ... ...
ROW F7 : ... .. A ... ... ... : ... .. A ... ... ... : ... .. . ... : ... .. . ... : ... .. . ... ...
ROW F8 : ... .. 9 ... ... ... : ... .. 9 ... ... ... : ... .. . ... : ... .. . ... : ... .. . ... ...
ROW F9 : ... .. 8 ... ... ... : ... .. 8 ... ... ... : ... .. . ... : ... .. . ... : ... .. . ... ...
ROW FA : B-2 00 B P80 ... ... : B-3 00 B P82 ... ... : B-2 00 . P80 : 6-# 00 F ... : ... .. . ... ...
ROW FB : ... .. A ... ... ... : ... .. A ... ... ... : ... .. . ... : ... .. D ... : ... .. . ... ...
ROW FC : ... .. 9 ... ... ... : ... .. 9 ... ... ... : ... .. . ... : ... .. 9 ... : ... .. . ... ...
ROW FD : ... .. 8 ... ... ... : ... .. 8 ... ... ... : ... .. . ... : ... .. 5 ... : ... .. . ... ...
ROW FE : ... .. 7 ... ... ... : ... .. 7 ... ... ... : ... .. . ... : ... .. 1 ... : ... .. . ... ...
ROW FF : ... .. 6 ... ... ... : ... .. 6 ... ... ... : ... .. . ... : ... .. 0 ... : ... .. . ... ...

PATTERN 22
ROW 00 : ... .. 1 ... ... ... : ... .. 1 ... ... ... : ... .. . ... : F-# 00 0 ... : ... .. . ... ...
ROW 01 : ... .. . ... ... ... : ... .. . ... ... ... : ... .. . ... : ... .. . ... : ... .. . ... ...
ROW 02 : ... .. . ... ... ... : ... .. . ... ... ... : ... .. . ... : ... .. . ... : ... .. . ... ...
ROW 03 : ... .. . ... ... ... : ... .. . ... ... ... : --- .. . ... : ... .. . ... : ... .. . ... ...
ROW 04 : ... .. . ... ... ... : ... .. . ... ... ... : ... .. . ... : ... .. . ... : ... .. . ... ...
ROW 05 : ... .. . ... ... ... : ... .. . ... ... ... : ... .. . ... : ... .. . ... : ... .. . ... ...
ROW 06 : C-3 00 B P80 ... ... : C-4 00 B P83 ... ... : ... .. . ... : 6-# 00 C ... : ... .. . ... ...
ROW 07 : ... .. A ... ... ... : ... .. A ... ... ... : ... .. . ... : ... .. 8 ... : ... .. . ... ...
ROW 08 : ... .. . ... ... ... : ... .. . ... ... ... : ... .. . ... : ... .. . ... : ... .. . ... ...
ROW 09 : ... .. . ... ... ... : ... .. . ... ... ... : --- .. . ... : ... .. . ... : ... .. . ... ...
ROW 0A : ... .. . ... ... ... : ... .. . ... ... ... : ... .. . ... : ... .. . ... : ... .. . ... ...
ROW 0B : ... .. . ... ... ... : ... .. . ... ... ... : ... .. . ... : ... .. . ... : ... .. . ... ...
ROW 0C : C-3 00 B P80 ... ... : C-4 00 B P83 ... ... : ... .. . ... : ... .. . ... : ... .. . ... ...
ROW 0D : ... .. A ... ... ... : ... .. A ... ... ... : ... .. . ... : ... .. . ... : ... .. . ... ...
ROW 0E : ... .. 9 ... ... ... : ... .. 9 ... ... ... : ... .. . ... : ... .. . ... : ... .. . ... ...
ROW 0F : ... .. 8 ... ... ... : ... .. 8 ... ... ... : ... .. . ... : ... .. . ... : ... .. . ... ...
ROW 10 : ... .. 7 ... ... ... : ... .. 7 ... ... ... : ... .. . ... : ... .. . ... : ... .. . ... ...
ROW 11 : ... .. 6 ... ... ... : ... .. 6 ... ... ... : ... .. . ... : ... .. . ... : ... .. . ... ...
ROW 12 : B-2 00 B P80 ... ... : B-3 00 B P82 ... ... : C#3 00 . ... : 6-# 00 F ... : ... .. . ... ...
ROW 13 : ... .. A ... ... ... : ... .. A ... ... ... : ... .. . ... : ... .. D ... : ... .. . ... ...
ROW 14 : ... .. 9 ... ... ... : ... .. 9 ... ... ... : ... .. . ... : ... .. 9 ... : ... .. . ... ...
ROW 15 : ... .. 8 ... ... ... : ... .. 8 ... ... ... : ... .. . ... : ... .. 5 ... : ... .. . ... ...
ROW 16 : ... .. 7 ... ... ... : ... .. 7 ... ... ... : ... .. . ... : ... .. 1 ... : ... .. . ... ...
ROW 17 : ... .. 6 ... ... ... : ... .. 6 ... ... ... : ... .. . ... : ... .. 0 ... : ... .. . ... ...
ROW 18 : ... .. 1 ... ... ... : ... .. 1 ... ... ... : ... .. . ... : F-# 00 0 ... : ... .. . ... ...
ROW 19 : ... .. . ... ... ... : ... .. . ... ... ... : ... .. . ... : ... .. . ... : ... .. . ... ...
ROW 1A : ... .. . ... ... ... : ... .. . ... ... ... : ... .. . ... : ... .. . ... : ... .. . ... ...
ROW 1B : ... .. . ... ... ... : ... .. . ... ... ... : --- .. . ... : ... .. . ... : ... .. . ... ...
ROW 1C : ... .. . ... ... ... : ... .. . ... ... ... : ... .. . ... : ... .. . ... : ... .. . ... ...
ROW 1D : ... .. . ... ... ... : ... .. . ... ... ... : ... .. . ... : ... .. . ... : ... .. . ... ...
ROW 1E : C-3 00 B P80 ... ... : C-4 00 B P83 ... ... : ... .. . ... : 6-# 00 C ... : ... .. . ... ...
ROW 1F : ... .. A ... ... ... : ... .. A ... ... ... : ... .. . ... : ... .. 8 ... : ... .. . ... ...
ROW 20 : ... .. . ... ... ... : ... .. . ... ... ... : ... .. . ... : ... .. . ... : ... .. . ... ...
ROW 21 : ... .. . ... ... ... : ... .. . ... ... ... : --- .. . ... : ... .. . ... : ... .. . ... ...
ROW 22 : ... .. . ... ... ... : ... .. . ... ... ... : ... .. . ... : ... .. . ... : ... .. . ... ...
ROW 23 : ... .. . ... ... ... : ... .. . ... ... ... : ... .. . ... : ... .. . ... : ... .. . ... ...
ROW 24 : ... .. . ... ... ... : ... .. . ... ... ... : ... .. . ... : ... .. . ... : ... .. . ... ...
ROW 25 : ... .. . ... ... ... : ... .. . ... ... ... : ... .. . ... : ... .. . ... : ... .. . ... ...
ROW 26 : ... .. . ... ... ... : ... .. . ... ... ... : ... .. . ... : ... .. . ... : ... .. . ... ...
ROW 27 : ... .. . ... ... ... : ... .. . ... ... ... : ... .. . ... : ... .. . ... : ... .. . ... ...
ROW 28 : ... .. . ... ... ... : ... .. . ... ... ... : ... .. . ... : ... .. . ... : ... .. . ... ...
ROW 29 : ... .. . ... ... ... : ... .. . ... ... ... : ... .. . ... : ... .. . ... : ... .. . ... ...
ROW 2A : ... .. . ... ... ... : ... .. . ... ... ... : C-3 00 . ... : 6-# 00 F ... : ... .. . ... ...
ROW 2B : ... .. . ... ... ... : ... .. . ... ... ... : ... .. . ... : ... .. D ... : ... .. . ... ...
ROW 2C : ... .. . ... ... ... : ... .. . ... ... ... : ... .. . ... : ... .. 9 ... : ... .. . ... ...
ROW 2D : ... .. . ... ... ... : ... .. . ... ... ... : ... .. . ... : ... .. 5 ... : ... .. . ... ...
ROW 2E : ... .. . ... ... ... : ... .. . ... ... ... : ... .. . ... : ... .. 1 ... : ... .. . ... ...
ROW 2F : ... .. . ... ... ... : ... .. . ... ... ... : ... .. . ... : ... .. 0 ... : ... .. . ... ...
ROW 30 : ... .. . ... ... ... : ... .. . ... ... ... : ... .. . ... : F-# 00 0 ... : ... .. . ... ...
ROW 31 : ... .. . ... ... ... : ... .. . ... ... ... : ... .. . ... : ... .. . ... : ... .. . ... ...
ROW 32 : ... .. . ... ... ... : ... .. . ... ... ... : ... .. . ... : ... .. . ... : ... .. . ... ...
ROW 33 : ... .. . ... ... ... : ... .. . ... ... ... : --- .. . ... : ... .. . ... : ... .. . ... ...
ROW 34 : ... .. . ... ... ... : ... .. . ... ... ... : ... .. . ... : ... .. . ... : ... .. . ... ...
ROW 35 : ... .. . ... ... ... : ... .. . ... ... ... : ... .. . ... : ... .. . ... : ... .. . ... ...
ROW 36 : C-3 00 B P80 ... ... : C-4 00 B P83 ... ... : ... .. . ... : 6-# 00 C ... : ... .. . ... ...
ROW 37 : ... .. A ... ... ... : ... .. A ... ... ... : ... .. . ... : ... .. 8 ... : ... .. . ... ...
ROW 38 : ... .. 3 ... ... ... : ... .. 3 ... ... ... : ... .. . ... : ... .. . ... : ... .. . ... ...
ROW 39 : ... .. 2 ... ... ... : ... .. 2 ... ... ... : --- .. . ... : ... .. . ... : ... .. . ... ...
ROW 3A : ... .. 1 ... ... ... : ... .. 1 ... ... ... : ... .. . ... : ... .. . ... : ... .. . ... ...
ROW 3B : ... .. . ... ... ... : ... .. . ... ... ... : ... .. . ... : ... .. . ... : ... .. . ... ...
ROW 3C : ... .. . ... ... ... : ... .. . ... ... ... : ... .. . ... : ... .. . ... : ... .. . ... ...
ROW 3D : ... .. . ... ... ... : ... .. . ... ... ... : ... .. . ... : ... .. . ... : ... .. . ... ...
ROW 3E : ... .. . ... ... ... : ... .. . ... ... ... : ... .. . ... : ... .. . ... : ... .. . ... ...
ROW 3F : ... .. . ... ... ... : ... .. . ... ... ... : ... .. . ... : ... .. . ... : ... .. . ... ...
ROW 40 : ... .. . ... ... ... : ... .. . ... ... ... : ... .. . ... : ... .. . ... : ... .. . ... ...
ROW 41 : ... .. . ... ... ... : ... .. . ... ... ... : ... .. . ... : ... .. . ... : ... .. . ... ...
ROW 42 : C-3 00 B P80 ... ... : C-4 00 B P83 ... ... : G#2 00 . P7F : 6-# 00 F ... : ... .. . ... ...
ROW 43 : ... .. A ... ... ... : ... .. A ... ... ... : ... .. . ... : ... .. D ... : ... .. . ... ...
ROW 44 : ... .. 9 ... ... ... : ... .. 9 ... ... ... : ... .. . ... : ... .. 9 ... : ... .. . ... ...
ROW 45 : ... .. 8 ... ... ... : ... .. 8 ... ... ... : ... .. . ... : ... .. 5 ... : ... .. . ... ...
ROW 46 : ... .. 7 ... ... ... : ... .. 7 ... ... ... : ... .. . ... : ... .. 1 ... : ... .. . ... ...
ROW 47 : ... .. 6 ... ... ... : ... .. 6 ... ... ... : ... .. . ... : ... .. 0 ... : ... .. . ... ...
ROW 48 : ... .. 5 ... ... ... : ... .. 5 ... ... ... : ... .. . ... : F-# 00 0 ... : ... .. . ... ...
ROW 49 : ... .. 4 ... ... ... : ... .. 4 ... ... ... : ... .. . ... : ... .. . ... : ... .. . ... ...
ROW 4A : ... .. 3 ... ... ... : ... .. 3 ... ... ... : ... .. . ... : ... .. . ... : ... .. . ... ...
ROW 4B : ... .. 2 ... ... ... : ... .. 2 ... ... ... : --- .. . ... : ... .. . ... : ... .. . ... ...
ROW 4C : ... .. 1 ... ... ... : ... .. 1 ... ... ... : ... .. . ... : ... .. . ... : ... .. . ... ...
ROW 4D : ... .. . ... ... ... : ... .. . ... ... ... : ... .. . ... : ... .. . ... : ... .. . ... ...
ROW 4E : ... .. . ... ... ... : ... .. . ... ... ... : ... .. . ... : 6-# 00 C ... : ... .. . ... ...
ROW 4F : ... .. . ... ... ... : ... .. . ... ... ... : ... .. . ... : ... .. 8 ... : ... .. . ... ...
ROW 50 : ... .. . ... ... ... : ... .. . ... ... ... : ... .. . ... : ... .. . ... : ... .. . ... ...
ROW 51 : ... .. . ... ... ... : ... .. . ... ... ... : --- .. . ... : ... .. . ... : ... .. . ... ...
ROW 52 : ... .. . ... ... ... : ... .. . ... ... ... : ... .. . ... : ... .. . ... : ... .. . ... ...
ROW 53 : ... .. . ... ... ... : ... .. . ... ... ... : ... .. . ... : ... .. . ... : ... .. . ... ...
ROW 54 : C#3 00 B P80 ... ... : C#4 00 B P82 ... ... : ... .. . ... : ... .. . ... : ... .. . ... ...
ROW 55 : ... .. A ... ... ... : ... .. A ... ... ... : ... .. . ... : ... .. . ... : ... .. . ... ...
ROW 56 : ... .. 9 ... ... ... : ... .. 9 ... ... ... : ... .. . ... : ... .. . ... : ... .. . ... ...
ROW 57 : ... .. 8 ... ... ... : ... .. 8 ... ... ... : ... .. . ... : ... .. . ... : ... .. . ... ...
ROW 58 : ... .. 7 ... ... ... : ... .. 7 ... ... ... : ... .. . ... : ... .. . ... : ... .. . ... ...
ROW 59 : ... .. 6 ... ... ... : ... .. 6 ... ... ... : ... .. . ... : ... .. . ... : ... .. . ... ...
ROW 5A : ... .. 5 ... ... ... : ... .. 5 ... ... ... : D#3 00 . ... : 6-# 00 F ... : ... .. . ... ...
ROW 5B : ... .. 4 ... ... ... : ... .. 4 ... ... ... : ... .. . ... : ... .. D ... : ... .. . ... ...
ROW 5C : ... .. 3 ... ... ... : ... .. 3 ... ... ... : ... .. . ... : ... .. 9 ... : ... .. . ... ...
ROW 5D : ... .. 2 ... ... ... : ... .. 2 ... ... ... : ... .. . ... : ... .. 5 ... : ... .. . ... ...
ROW 5E : ... .. 1 ... ... ... : ... .. 1 ... ... ... : ... .. . ... : ... .. 1 ... : ... .. . ... ...
ROW 5F : ... .. . ... ... ... : ... .. . ... ... ... : ... .. . ... : ... .. 0 ... : ... .. . ... ...
ROW 60 : ... .. . ... ... ... : ... .. . ... ... ... : ... .. . ... : F-# 00 0 ... : ... .. . ... ...
ROW 61 : ... .. . ... ... ... : ... .. . ... ... ... : ... .. . ... : ... .. . ... : ... .. . ... ...
ROW 62 : ... .. . ... ... ... : ... .. . ... ... ... : ... .. . ... : ... .. . ... : ... .. . ... ...
ROW 63 : ... .. . ... ... ... : ... .. . ... ... ... : --- .. . ... : ... .. . ... : ... .. . ... ...
ROW 64 : ... .. . ... ... ... : ... .. . ... ... ... : ... .. . ... : ... .. . ... : ... .. . ... ...
ROW 65 : ... .. . ... ... ... : ... .. . ... ... ... : ... .. . ... : ... .. . ... : ... .. . ... ...
ROW 66 : ... .. . ... ... ... : ... .. . ... ... ... : ... .. . ... : 6-# 00 C ... : ... .. . ... ...
ROW 67 : ... .. . ... ... ... : ... .. . ... ... ... : ... .. . ... : ... .. 8 ... : ... .. . ... ...
ROW 68 : ... .. 3 ... ... ... : ... .. 3 ... ... ... : ... .. . ... : ... .. . ... : ... .. . ... ...
ROW 69 : ... .. 2 ... ... ... : ... .. 2 ... ... ... : --- .. . ... : ... .. . ... : ... .. . ... ...
ROW 6A : ... .. 1 ... ... ... : ... .. 1 ... ... ... : ... .. . ... : ... .. . ... : ... .. . ... ...
ROW 6B : ... .. . ... ... ... : ... .. . ... ... ... : ... .. . ... : ... .. . ... : ... .. . ... ...
ROW 6C : ... .. . ... ... ... : ... .. . ... ... ... : ... .. . ... : ... .. . ... : ... .. . ... ...
ROW 6D : ... .. . ... ... ... : ... .. . ... ... ... : ... .. . ... : ... .. . ... : ... .. . ... ...
ROW 6E : ... .. . ... ... ... : ... .. . ... ... ... : ... .. . ... : ... .. . ... : ... .. . ... ...
ROW 6F : ... .. . ... ... ... : ... .. . ... ... ... : ... .. . ... : ... .. . ... : ... .. . ... ...
ROW 70 : ... .. . ... ... ... : ... .. . ... ... ... : ... .. . ... : ... .. . ... : ... .. . ... ...
ROW 71 : ... .. . ... ... ... : ... .. . ... ... ... : ... .. . ... : ... .. . ... : ... .. . ... ...
ROW 72 : C#3 00 B P80 ... ... : C#4 00 B P82 ... ... : G#3 00 . ... : 6-# 00 F ... : ... .. . ... ...
ROW 73 : ... .. A ... ... ... : ... .. A ... ... ... : ... .. . ... : ... .. D ... : ... .. . ... ...
ROW 74 : ... .. 9 ... ... ... : ... .. 9 ... ... ... : ... .. . ... : ... .. 9 ... : ... .. . ... ...
ROW 75 : ... .. 8 ... ... ... : ... .. 8 ... ... ... : ... .. . ... : ... .. 5 ... : ... .. . ... ...
ROW 76 : ... .. 7 ... ... ... : ... .. 7 ... ... ... : ... .. . ... : ... .. 1 ... : ... .. . ... ...
ROW 77 : ... .. 6 ... ... ... : ... .. 6 ... ... ... : ... .. . ... : ... .. 0 ... : ... .. . ... ...
ROW 78 : ... .. 1 ... ... ... : ... .. 1 ... ... ... : ... .. . ... : F-# 00 0 ... : ... .. . ... ...
ROW 79 : ... .. . ... ... ... : ... .. . ... ... ... : ... .. . ... : ... .. . ... : ... .. . ... ...
ROW 7A : ... .. . ... ... ... : ... .. . ... ... ... : ... .. . ... : ... .. . ... : ... .. . ... ...
ROW 7B : ... .. . ... ... ... : ... .. . ... ... ... : --- .. . ... : ... .. . ... : ... .. . ... ...
ROW 7C : ... .. . ... ... ... : ... .. . ... ... ... : ... .. . ... : ... .. . ... : ... .. . ... ...
ROW 7D : ... .. . ... ... ... : ... .. . ... ... ... : ... .. . ... : ... .. . ... : ... .. . ... ...
ROW 7E : G#3 00 B P80 ... ... : G#4 00 B P82 ... ... : ... .. . ... : 6-# 00 C ... : ... .. . ... ...
ROW 7F : ... .. A ... ... ... : ... .. A ... ... ... : ... .. . ... : ... .. 8 ... : ... .. . ... ...
ROW 80 : ... .. . ... ... ... : ... .. . ... ... ... : ... .. . ... : ... .. . ... : ... .. . ... ...
ROW 81 : ... .. . ... ... ... : ... .. . ... ... ... : --- .. . ... : ... .. . ... : ... .. . ... ...
ROW 82 : ... .. . ... ... ... : ... .. . ... ... ... : ... .. . ... : ... .. . ... : ... .. . ... ...
ROW 83 : ... .. . ... ... ... : ... .. . ... ... ... : ... .. . ... : ... .. . ... : ... .. . ... ...
ROW 84 : ... .. . ... ... ... : ... .. . ... ... ... : ... .. . ... : ... .. . ... : ... .. . ... ...
ROW 85 : ... .. . ... ... ... : ... .. . ... ... ... : ... .. . ... : ... .. . ... : ... .. . ... ...
ROW 86 : ... .. . ... ... ... : ... .. . ... ... ... : ... .. . ... : ... .. . ... : ... .. . ... ...
ROW 87 : ... .. . ... ... ... : ... .. . ... ... ... : ... .. . ... : ... .. . ... : ... .. . ... ...
ROW 88 : ... .. . ... ... ... : ... .. . ... ... ... : ... .. . ... : ... .. . ... : ... .. . ... ...
ROW 89 : ... .. . ... ... ... : ... .. . ... ... ... : ... .. . ... : ... .. . ... : ... .. . ... ...
ROW 8A : F#3 00 B P80 ... ... : F#4 00 B P82 ... ... : G#2 00 . P7F : 6-# 00 F ... : ... .. . ... ...
ROW 8B : ... .. A ... ... ... : ... .. A ... ... ... : ... .. . ... : ... .. D ... : ... .. . ... ...
ROW 8C : ... .. 9 ... ... ... : ... .. 9 ... ... ... : ... .. . ... : ... .. 9 ... : ... .. . ... ...
ROW 8D : ... .. 8 ... ... ... : ... .. 8 ... ... ... : ... .. . ... : ... .. 5 ... : ... .. . ... ...
ROW 8E : ... .. 7 ... ... ... : ... .. 7 ... ... ... : ... .. . ... : ... .. 1 ... : ... .. . ... ...
ROW 8F : ... .. 6 ... ... ... : ... .. 6 ... ... ... : ... .. . ... : ... .. 0 ... : ... .. . ... ...
ROW 90 : ... .. 5 ... ... ... : ... .. 5 ... ... ... : ... .. . ... : F-# 00 0 ... : ... .. . ... ...
ROW 91 : ... .. 4 ... ... ... : ... .. 4 ... ... ... : ... .. . ... : ... .. . ... : ... .. . ... ...
ROW 92 : ... .. 3 ... ... ... : ... .. 3 ... ... ... : ... .. . ... : ... .. . ... : ... .. . ... ...
ROW 93 : ... .. 2 ... ... ... : ... .. 2 ... ... ... : --- .. . ... : ... .. . ... : ... .. . ... ...
ROW 94 : ... .. 1 ... ... ... : ... .. 1 ... ... ... : ... .. . ... : ... .. . ... : ... .. . ... ...
ROW 95 : ... .. . ... ... ... : ... .. . ... ... ... : ... .. . ... : ... .. . ... : ... .. . ... ...
ROW 96 : ... .. . ... ... ... : ... .. . ... ... ... : ... .. . ... : 6-# 00 C ... : ... .. . ... ...
ROW 97 : ... .. . ... ... ... : ... .. . ... ... ... : ... .. . ... : ... .. 8 ... : ... .. . ... ...
ROW 98 : ... .. 3 ... ... ... : ... .. 3 ... ... ... : ... .. . ... : ... .. . ... : ... .. . ... ...
ROW 99 : ... .. 2 ... ... ... : ... .. 2 ... ... ... : --- .. . ... : ... .. . ... : ... .. . ... ...
ROW 9A : ... .. 1 ... ... ... : ... .. 1 ... ... ... : ... .. . ... : ... .. . ... : ... .. . ... ...
ROW 9B : ... .. . ... ... ... : ... .. . ... ... ... : ... .. . ... : ... .. . ... : ... .. . ... ...
ROW 9C : ... .. . ... ... ... : ... .. . ... ... ... : ... .. . ... : ... .. . ... : ... .. . ... ...
ROW 9D : ... .. . ... ... ... : ... .. . ... ... ... : ... .. . ... : ... .. . ... : ... .. . ... ...
ROW 9E : ... .. . ... ... ... : ... .. . ... ... ... : ... .. . ... : ... .. . ... : ... .. . ... ...
ROW 9F : ... .. . ... ... ... : ... .. . ... ... ... : ... .. . ... : ... .. . ... : ... .. . ... ...
ROW A0 : ... .. . ... ... ... : ... .. . ... ... ... : ... .. . ... : ... .. . ... : ... .. . ... ...
ROW A1 : ... .. . ... ... ... : ... .. . ... ... ... : ... .. . ... : ... .. . ... : ... .. . ... ...
ROW A2 : G#3 00 B P80 ... ... : G#4 00 B P82 ... ... : F#3 00 . ... : 6-# 00 F ... : ... .. . ... ...
ROW A3 : ... .. A ... ... ... : ... .. A ... ... ... : ... .. . ... : ... .. D ... : ... .. . ... ...
ROW A4 : ... .. 9 ... ... ... : ... .. 9 ... ... ... : ... .. . ... : ... .. 9 ... : ... .. . ... ...
ROW A5 : ... .. 8 ... ... ... : ... .. 8 ... ... ... : ... .. . ... : ... .. 5 ... : ... .. . ... ...
ROW A6 : ... .. 7 ... ... ... : ... .. 7 ... ... ... : ... .. . ... : ... .. 1 ... : ... .. . ... ...
ROW A7 : ... .. 6 ... ... ... : ... .. 6 ... ... ... : ... .. . ... : ... .. 0 ... : ... .. . ... ...
ROW A8 : ... .. 5 ... ... ... : ... .. 5 ... ... ... : ... .. . ... : F-# 00 0 ... : ... .. . ... ...
ROW A9 : ... .. 4 ... ... ... : ... .. 4 ... ... ... : ... .. . ... : ... .. . ... : ... .. . ... ...
ROW AA : ... .. 3 ... ... ... : ... .. 3 ... ... ... : ... .. . ... : ... .. . ... : ... .. . ... ...
ROW AB : ... .. 2 ... ... ... : ... .. 2 ... ... ... : --- .. . ... : ... .. . ... : ... .. . ... ...
ROW AC : ... .. 1 ... ... ... : ... .. 1 ... ... ... : ... .. . ... : ... .. . ... : ... .. . ... ...
ROW AD : ... .. . ... ... ... : ... .. . ... ... ... : ... .. . ... : ... .. . ... : ... .. . ... ...
ROW AE : ... .. . ... ... ... : ... .. . ... ... ... : ... .. . ... : 6-# 00 C ... : ... .. . ... ...
ROW AF : ... .. . ... ... ... : ... .. . ... ... ... : ... .. . ... : ... .. 8 ... : ... .. . ... ...
ROW B0 : ... .. . ... ... ... : ... .. 3 ... ... ... : ... .. . ... : ... .. . ... : ... .. . ... ...
ROW B1 : ... .. . ... ... ... : ... .. 2 ... ... ... : --- .. . ... : ... .. . ... : ... .. . ... ...
ROW B2 : ... .. . ... ... ... : ... .. 1 ... ... ... : ... .. . ... : ... .. . ... : ... .. . ... ...
ROW B3 : ... .. . ... ... ... : ... .. . ... ... ... : ... .. . ... : ... .. . ... : ... .. . ... ...
ROW B4 : A#3 00 B P81 ... ... : ... .. . ... ... ... : ... .. . ... : ... .. . ... : ... .. . ... ...
ROW B5 : ... .. A ... ... ... : ... .. . ... ... ... : ... .. . ... : ... .. . ... : ... .. . ... ...
ROW B6 : ... .. 9 ... ... ... : ... .. . ... ... ... : ... .. . ... : ... .. . ... : ... .. . ... ...
ROW B7 : ... .. 8 ... ... ... : ... .. . ... ... ... : ... .. . ... : ... .. . ... : ... .. . ... ...
ROW B8 : ... .. 7 ... ... ... : ... .. . ... ... ... : ... .. . ... : ... .. . ... : ... .. . ... ...
ROW B9 : ... .. 6 ... ... ... : ... .. . ... ... ... : ... .. . ... : ... .. . ... : ... .. . ... ...
ROW BA : B-3 00 B P80 ... ... : ... .. . ... ... ... : F-3 00 . ... : 6-# 00 F ... : ... .. . ... ...
ROW BB : ... .. A ... ... ... : ... .. . ... ... ... : ... .. . ... : ... .. D ... : ... .. . ... ...
ROW BC : ... .. 9 ... ... ... : ... .. . ... ... ... : ... .. . ... : ... .. 9 ... : ... .. . ... ...
ROW BD : ... .. 8 ... ... ... : ... .. . ... ... ... : ... .. . ... : ... .. 5 ... : ... .. . ... ...
ROW BE : ... .. 7 ... ... ... : ... .. . ... ... ... : ... .. . ... : ... .. 1 ... : ... .. . ... ...
ROW BF : ... .. 6 ... ... ... : ... .. . ... ... ... : ... .. . ... : ... .. 0 ... : ... .. . ... ...
ROW C0 : ... .. 1 ... ... ... : ... .. . ... ... ... : ... .. . ... : F-# 00 0 ... : ... .. . ... ...
ROW C1 : ... .. . ... ... ... : ... .. . ... ... ... : ... .. . ... : ... .. . ... : ... .. . ... ...
ROW C2 : ... .. . ... ... ... : ... .. . ... ... ... : ... .. . ... : ... .. . ... : ... .. . ... ...
ROW C3 : ... .. . ... ... ... : ... .. . ... ... ... : --- .. . ... : ... .. . ... : ... .. . ... ...
ROW C4 : ... .. . ... ... ... : ... .. . ... ... ... : ... .. . ... : ... .. . ... : ... .. . ... ...
ROW C5 : ... .. . ... ... ... : ... .. . ... ... ... : ... .. . ... : ... .. . ... : ... .. . ... ...
ROW C6 : B-4 00 B P80 ... ... : ... .. . ... ... ... : ... .. . ... : 6-# 00 C ... : ... .. . ... ...
ROW C7 : ... .. A ... ... ... : ... .. . ... ... ... : ... .. . ... : ... .. 8 ... : ... .. . ... ...
ROW C8 : ... .. . ... ... ... : ... .. 3 ... ... ... : ... .. . ... : ... .. . ... : ... .. . ... ...
ROW C9 : ... .. . ... ... ... : ... .. 2 ... ... ... : --- .. . ... : ... .. . ... : ... .. . ... ...
ROW CA : ... .. . ... ... ... : ... .. 1 ... ... ... : ... .. . ... : ... .. . ... : ... .. . ... ...
ROW CB : ... .. . ... ... ... : ... .. . ... ... ... : ... .. . ... : ... .. . ... : ... .. . ... ...
ROW CC : G#3 00 B P80 ... ... : ... .. . ... ... ... : ... .. . ... : ... .. . ... : ... .. . ... ...
ROW CD : ... .. A ... ... ... : ... .. . ... ... ... : ... .. . ... : ... .. . ... : ... .. . ... ...
ROW CE : ... .. 9 ... ... ... : ... .. . ... ... ... : ... .. . ... : ... .. . ... : ... .. . ... ...
ROW CF : ... .. 8 ... ... ... : ... .. . ... ... ... : ... .. . ... : ... .. . ... : ... .. . ... ...
ROW D0 : ... .. 7 ... ... ... : ... .. . ... ... ... : ... .. . ... : ... .. . ... : ... .. . ... ...
ROW D1 : ... .. 6 ... ... ... : ... .. . ... ... ... : ... .. . ... : ... .. . ... : ... .. . ... ...
ROW D2 : G#3 00 B P80 ... ... : ... .. . ... ... ... : B-2 00 . ... : 6-# 00 F ... : ... .. . ... ...
ROW D3 : ... .. A ... ... ... : ... .. . ... ... ... : ... .. . ... : ... .. D ... : ... .. . ... ...
ROW D4 : ... .. 9 ... ... ... : ... .. . ... ... ... : ... .. . ... : ... .. 9 ... : ... .. . ... ...
ROW D5 : ... .. 8 ... ... ... : ... .. . ... ... ... : ... .. . ... : ... .. 5 ... : ... .. . ... ...
ROW D6 : ... .. 7 ... ... ... : ... .. . ... ... ... : ... .. . ... : ... .. 1 ... : ... .. . ... ...
ROW D7 : ... .. 6 ... ... ... : ... .. . ... ... ... : ... .. . ... : ... .. 0 ... : ... .. . ... ...
ROW D8 : ... .. 1 ... ... ... : ... .. . ... ... ... : ... .. . ... : F-# 00 0 ... : ... .. . ... ...
ROW D9 : ... .. . ... ... ... : ... .. . ... ... ... : ... .. . ... : ... .. . ... : ... .. . ... ...
ROW DA : ... .. . ... ... ... : ... .. . ... ... ... : ... .. . ... : ... .. . ... : ... .. . ... ...
ROW DB : ... .. . ... ... ... : ... .. . ... ... ... : --- .. . ... : ... .. . ... : ... .. . ... ...
ROW DC : ... .. . ... ... ... : ... .. . ... ... ... : ... .. . ... : ... .. . ... : ... .. . ... ...
ROW DD : ... .. . ... ... ... : ... .. . ... ... ... : ... .. . ... : ... .. . ... : ... .. . ... ...
ROW DE : G#4 00 B P80 ... ... : ... .. . ... ... ... : ... .. . ... : 6-# 00 C ... : ... .. . ... ...
ROW DF : ... .. A ... ... ... : ... .. . ... ... ... : ... .. . ... : ... .. 8 ... : ... .. . ... ...
ROW E0 : ... .. . ... ... ... : ... .. 3 ... ... ... : ... .. . ... : ... .. . ... : ... .. . ... ...
ROW E1 : ... .. . ... ... ... : ... .. 2 ... ... ... : --- .. . ... : ... .. . ... : ... .. . ... ...
ROW E2 : ... .. . ... ... ... : ... .. 1 ... ... ... : ... .. . ... : ... .. . ... : ... .. . ... ...
ROW E3 : ... .. . ... ... ... : ... .. . ... ... ... : ... .. . ... : ... .. . ... : ... .. . ... ...
ROW E4 : G-3 00 B P80 ... ... : ... .. . ... ... ... : ... .. . ... : ... .. . ... : ... .. . ... ...
ROW E5 : ... .. A ... ... ... : ... .. . ... ... ... : ... .. . ... : ... .. . ... : ... .. . ... ...
ROW E6 : ... .. 9 ... ... ... : ... .. . ... ... ... : ... .. . ... : ... .. . ... : ... .. . ... ...
ROW E7 : ... .. 8 ... ... ... : ... .. . ... ... ... : ... .. . ... : ... .. . ... : ... .. . ... ...
ROW E8 : ... .. 7 ... ... ... : ... .. . ... ... ... : ... .. . ... : ... .. . ... : ... .. . ... ...
ROW E9 : ... .. 6 ... ... ... : ... .. . ... ... ... : ... .. . ... : ... .. . ... : ... .. . ... ...
ROW EA : G#3 00 B P80 ... ... : ... .. . ... ... ... : B-2 00 . ... : 6-# 00 F ... : ... .. . ... ...
ROW EB : ... .. A ... ... ... : ... .. . ... ... ... : ... .. . ... : ... .. D ... : ... .. . ... ...
ROW EC : ... .. 9 ... ... ... : ... .. . ... ... ... : ... .. . ... : ... .. 9 ... : ... .. . ... ...
ROW ED : ... .. 8 ... ... ... : ... .. . ... ... ... : ... .. . ... : ... .. 5 ... : ... .. . ... ...
ROW EE : ... .. 7 ... ... ... : ... .. . ... ... ... : ... .. . ... : ... .. 1 ... : ... .. . ... ...
ROW EF : ... .. 6 ... ... ... : ... .. . ... ... ... : ... .. . ... : ... .. 0 ... : ... .. . ... ...
ROW F0 : ... .. 1 ... ... ... : ... .. . ... ... ... : ... .. . ... : F-# 00 0 ... : ... .. . ... ...
ROW F1 : ... .. . ... ... ... : ... .. . ... ... ... : ... .. . ... : ... .. . ... : ... .. . ... ...
ROW F2 : ... .. . ... ... ... : ... .. . ... ... ... : ... .. . ... : ... .. . ... : ... .. . ... ...
ROW F3 : ... .. . ... ... ... : ... .. . ... ... ... : --- .. . ... : ... .. . ... : ... .. . ... ...
ROW F4 : ... .. . ... ... ... : ... .. . ... ... ... : ... .. . ... : ... .. . ... : ... .. . ... ...
ROW F5 : ... .. . ... ... ... : ... .. . ... ... ... : ... .. . ... : ... .. . ... : ... .. . ... ...
ROW F6 : G#4 00 B P81 ... ... : ... .. . ... ... ... : ... .. . ... : 6-# 00 C ... : ... .. . ... ...
ROW F7 : ... .. A ... ... ... : ... .. . ... ... ... : ... .. . ... : ... .. 8 ... : ... .. . ... ...
ROW F8 : ... .. . ... ... ... : ... .. . ... ... ... : ... .. . ... : ... .. . ... : ... .. . ... ...
ROW F9 : ... .. . ... ... ... : ... .. . ... ... ... : --- .. . ... : ... .. . ... : ... .. . ... ...
ROW FA : ... .. . ... ... ... : ... .. . ... ... ... : ... .. . ... : ... .. . ... : ... .. . ... ...
ROW FB : ... .. . ... ... ... : ... .. . ... ... ... : ... .. . ... : ... .. . ... : ... .. . ... ...
ROW FC : C#3 00 B P80 ... ... : C#4 00 B P82 ... ... : ... .. . ... : ... .. . ... : ... .. . ... ...
ROW FD : ... .. A ... ... ... : ... .. A ... ... ... : ... .. . ... : ... .. . ... : ... .. . ... ...
ROW FE : ... .. 9 ... ... ... : ... .. 9 ... ... ... : ... .. . ... : ... .. . ... : ... .. . ... ...
ROW FF : ... .. 8 ... ... ... : ... .. 8 ... ... ... : ... .. . ... : ... .. . ... : ... .. . ... ...

PATTERN 23
ROW 00 : ... .. 7 ... ... ... : ... .. 7 ... ... ... : ... .. . ... : ... .. . ... : ... .. . ... ...
ROW 01 : ... .. 6 ... ... ... : ... .. 6 ... ... ... : ... .. . ... : ... .. . ... : ... .. . ... ...
ROW 02 : B-2 00 B P80 ... ... : B-3 00 B P82 ... ... : G-2 00 . P80 : 6-# 00 F ... : ... .. . ... ...
ROW 03 : ... .. A ... ... ... : ... .. A ... ... ... : ... .. . ... : ... .. D ... : ... .. . ... ...
ROW 04 : ... .. 9 ... ... ... : ... .. 9 ... ... ... : ... .. . ... : ... .. 9 ... : ... .. . ... ...
ROW 05 : ... .. 8 ... ... ... : ... .. 8 ... ... ... : ... .. . ... : ... .. 5 ... : ... .. . ... ...
ROW 06 : ... .. 7 ... ... ... : ... .. 7 ... ... ... : ... .. . ... : ... .. 1 ... : ... .. . ... ...
ROW 07 : ... .. 6 ... ... ... : ... .. 6 ... ... ... : ... .. . ... : ... .. 0 ... : ... .. . ... ...
ROW 08 : ... .. 1 ... ... ... : ... .. 1 ... ... ... : ... .. . ... : F-# 00 0 ... : ... .. . ... ...
ROW 09 : ... .. . ... ... ... : ... .. . ... ... ... : ... .. . ... : ... .. . ... : ... .. . ... ...
ROW 0A : ... .. . ... ... ... : ... .. . ... ... ... : ... .. . ... : ... .. . ... : ... .. . ... ...
ROW 0B : ... .. . ... ... ... : ... .. . ... ... ... : --- .. . ... : ... .. . ... : ... .. . ... ...
ROW 0C : ... .. . ... ... ... : ... .. . ... ... ... : ... .. . ... : ... .. . ... : ... .. . ... ...
ROW 0D : ... .. . ... ... ... : ... .. . ... ... ... : ... .. . ... : ... .. . ... : ... .. . ... ...
ROW 0E : G-2 00 B P80 ... ... : G-3 00 B P82 ... ... : ... .. . ... : 6-# 00 C ... : ... .. . ... ...
ROW 0F : ... .. A ... ... ... : ... .. A ... ... ... : ... .. . ... : ... .. 8 ... : ... .. . ... ...
ROW 10 : ... .. . ... ... ... : ... .. . ... ... ... : ... .. . ... : ... .. . ... : ... .. . ... ...
ROW 11 : ... .. . ... ... ... : ... .. . ... ... ... : --- .. . ... : ... .. . ... : ... .. . ... ...
ROW 12 : ... .. . ... ... ... : ... .. . ... ... ... : ... .. . ... : ... .. . ... : ... .. . ... ...
ROW 13 : ... .. . ... ... ... : ... .. . ... ... ... : ... .. . ... : ... .. . ... : ... .. . ... ...
ROW 14 : D#3 00 8 P80 ... ... : C-4 00 8 P81 ... ... : ... .. . ... : ... .. . ... : ... .. . ... ...
ROW 15 : ... .. . ... ... ... : ... .. . ... ... ... : ... .. . ... : ... .. . ... : ... .. . ... ...
ROW 16 : ... .. 7 ... ... ... : ... .. 7 ... ... ... : ... .. . ... : ... .. . ... : ... .. . ... ...
ROW 17 : ... .. . ... ... ... : ... .. . ... ... ... : ... .. . ... : ... .. . ... : ... .. . ... ...
ROW 18 : ... .. . ... ... ... : ... .. . ... ... ... : ... .. . ... : ... .. . ... : ... .. . ... ...
ROW 19 : ... .. . ... ... ... : ... .. . ... ... ... : ... .. . ... : ... .. . ... : ... .. . ... ...
ROW 1A : G-3 00 8 P80 ... ... : D#4 00 8 P81 ... ... : G-3 00 . ... : C-# 00 E ... : ... .. . ... ...
ROW 1B : ... .. . ... ... ... : ... .. . ... ... ... : ... .. . ... : ... .. 0 ... : ... .. . ... ...
ROW 1C : ... .. 7 ... ... ... : ... .. 7 ... ... ... : ... .. . ... : ... .. . ... : ... .. . ... ...
ROW 1D : ... .. . ... ... ... : ... .. . ... ... ... : ... .. . ... : ... .. . ... : ... .. . ... ...
ROW 1E : ... .. . ... ... ... : ... .. . ... ... ... : ... .. . ... : ... .. . ... : ... .. . ... ...
ROW 1F : ... .. . ... ... ... : ... .. . ... ... ... : ... .. . ... : ... .. . ... : ... .. . ... ...
ROW 20 : ... .. 0 ... ... ... : ... .. 0 ... ... ... : ... .. . ... : ... .. . ... : ... .. . ... ...
ROW 21 : ... .. . ... ... ... : ... .. . ... ... ... : ... .. . ... : ... .. . ... : ... .. . ... ...
ROW 22 : ... .. . ... ... ... : ... .. . ... ... ... : ... .. . ... : ... .. . ... : ... .. . ... ...
ROW 23 : ... .. . ... ... ... : ... .. . ... ... ... : --- .. . ... : ... .. . ... : ... .. . ... ...
ROW 24 : ... .. . ... ... ... : ... .. . ... ... ... : ... .. . ... : ... .. . ... : ... .. . ... ...
ROW 25 : ... .. . ... ... ... : ... .. . ... ... ... : ... .. . ... : ... .. . ... : ... .. . ... ...
ROW 26 : C-4 00 8 P81 ... ... : G-4 00 8 P81 ... ... : ... .. . ... : ... .. . ... : ... .. . ... ...
ROW 27 : ... .. . ... ... ... : ... .. . ... ... ... : ... .. . ... : ... .. . ... : ... .. . ... ...
ROW 28 : ... .. . ... ... ... : ... .. . ... ... ... : ... .. . ... : ... .. . ... : ... .. . ... ...
ROW 29 : ... .. . ... ... ... : ... .. . ... ... ... : --- .. . ... : ... .. . ... : ... .. . ... ...
ROW 2A : ... .. . ... ... ... : ... .. . ... ... ... : ... .. . ... : ... .. . ... : ... .. . ... ...
ROW 2B : ... .. . ... ... ... : ... .. . ... ... ... : ... .. . ... : ... .. . ... : ... .. . ... ...
ROW 2C : D#3 00 8 P80 ... ... : C-4 00 8 P81 ... ... : ... .. . ... : ... .. . ... : ... .. . ... ...
ROW 2D : ... .. . ... ... ... : ... .. . ... ... ... : ... .. . ... : ... .. . ... : ... .. . ... ...
ROW 2E : ... .. 7 ... ... ... : ... .. 7 ... ... ... : ... .. . ... : ... .. . ... : ... .. . ... ...
ROW 2F : ... .. . ... ... ... : ... .. . ... ... ... : ... .. . ... : ... .. . ... : ... .. . ... ...
ROW 30 : ... .. . ... ... ... : ... .. . ... ... ... : ... .. . ... : ... .. . ... : ... .. . ... ...
ROW 31 : ... .. . ... ... ... : ... .. . ... ... ... : ... .. . ... : ... .. . ... : ... .. . ... ...
ROW 32 : G-3 00 8 P80 ... ... : D#4 00 8 P81 ... ... : G-3 00 . ... : C-# 00 E ... : ... .. . ... ...
ROW 33 : ... .. . ... ... ... : ... .. . ... ... ... : ... .. . ... : ... .. 0 ... : ... .. . ... ...
ROW 34 : ... .. 7 ... ... ... : ... .. 7 ... ... ... : ... .. . ... : ... .. . ... : ... .. . ... ...
ROW 35 : ... .. . ... ... ... : ... .. . ... ... ... : ... .. . ... : ... .. . ... : ... .. . ... ...
ROW 36 : ... .. . ... ... ... : ... .. . ... ... ... : ... .. . ... : ... .. . ... : ... .. . ... ...
ROW 37 : ... .. . ... ... ... : ... .. . ... ... ... : ... .. . ... : ... .. . ... : ... .. . ... ...
ROW 38 : ... .. 0 ... ... ... : ... .. 0 ... ... ... : ... .. . ... : ... .. . ... : ... .. . ... ...
ROW 39 : ... .. . ... ... ... : ... .. . ... ... ... : ... .. . ... : ... .. . ... : ... .. . ... ...
ROW 3A : ... .. . ... ... ... : ... .. . ... ... ... : ... .. . ... : ... .. . ... : ... .. . ... ...
ROW 3B : ... .. . ... ... ... : ... .. . ... ... ... : --- .. . ... : ... .. . ... : ... .. . ... ...
ROW 3C : ... .. . ... ... ... : ... .. . ... ... ... : ... .. . ... : ... .. . ... : ... .. . ... ...
ROW 3D : ... .. . ... ... ... : ... .. . ... ... ... : ... .. . ... : ... .. . ... : ... .. . ... ...
ROW 3E : C-4 00 8 P81 ... ... : G-4 00 8 P81 ... ... : ... .. . ... : ... .. . ... : ... .. . ... ...
ROW 3F : ... .. . ... ... ... : ... .. . ... ... ... : ... .. . ... : ... .. . ... : ... .. . ... ...
ROW 40 : ... .. 7 ... ... ... : ... .. 7 ... ... ... : ... .. . ... : ... .. . ... : ... .. . ... ...
ROW 41 : ... .. . ... ... ... : ... .. . ... ... ... : --- .. . ... : ... .. . ... : ... .. . ... ...
ROW 42 : ... .. . ... ... ... : ... .. . ... ... ... : ... .. . ... : ... .. . ... : ... .. . ... ...
ROW 43 : ... .. . ... ... ... : ... .. . ... ... ... : ... .. . ... : ... .. . ... : ... .. . ... ...
ROW 44 : B-3 00 8 P80 ... ... : G-4 00 8 P81 ... ... : ... .. . ... : ... .. . ... : ... .. . ... ...
ROW 45 : ... .. . ... ... ... : ... .. . ... ... ... : ... .. . ... : ... .. . ... : ... .. . ... ...
ROW 46 : ... .. 7 ... ... ... : ... .. 7 ... ... ... : ... .. . ... : ... .. . ... : ... .. . ... ...
ROW 47 : ... .. . ... ... ... : ... .. . ... ... ... : ... .. . ... : ... .. . ... : ... .. . ... ...
ROW 48 : ... .. . ... ... ... : ... .. . ... ... ... : ... .. . ... : ... .. . ... : ... .. . ... ...
ROW 49 : ... .. . ... ... ... : ... .. . ... ... ... : ... .. . ... : ... .. . ... : ... .. . ... ...
ROW 4A : D-4 00 8 P81 ... ... : B-4 00 8 P80 ... ... : G-3 00 . ... : C-# 00 E ... : ... .. . ... ...
ROW 4B : ... .. . ... ... ... : ... .. . ... ... ... : ... .. . ... : ... .. 0 ... : ... .. . ... ...
ROW 4C : ... .. 7 ... ... ... : ... .. 7 ... ... ... : ... .. . ... : ... .. . ... : ... .. . ... ...
ROW 4D : ... .. . ... ... ... : ... .. . ... ... ... : ... .. . ... : ... .. . ... : ... .. . ... ...
ROW 4E : ... .. . ... ... ... : ... .. . ... ... ... : ... .. . ... : ... .. . ... : ... .. . ... ...
ROW 4F : ... .. . ... ... ... : ... .. . ... ... ... : ... .. . ... : ... .. . ... : ... .. . ... ...
ROW 50 : ... .. 0 ... ... ... : ... .. 0 ... ... ... : ... .. . ... : ... .. . ... : ... .. . ... ...
ROW 51 : ... .. . ... ... ... : ... .. . ... ... ... : ... .. . ... : ... .. . ... : ... .. . ... ...
ROW 52 : ... .. . ... ... ... : ... .. . ... ... ... : ... .. . ... : ... .. . ... : ... .. . ... ...
ROW 53 : ... .. . ... ... ... : ... .. . ... ... ... : --- .. . ... : ... .. . ... : ... .. . ... ...
ROW 54 : ... .. . ... ... ... : ... .. . ... ... ... : ... .. . ... : ... .. . ... : ... .. . ... ...
ROW 55 : ... .. . ... ... ... : ... .. . ... ... ... : ... .. . ... : ... .. . ... : ... .. . ... ...
ROW 56 : B-3 00 8 P80 ... ... : G#4 00 8 P80 ... ... : ... .. . ... : ... .. . ... : ... .. . ... ...
ROW 57 : ... .. . ... ... ... : ... .. . ... ... ... : ... .. . ... : ... .. . ... : ... .. . ... ...
ROW 58 : ... .. . ... ... ... : ... .. . ... ... ... : ... .. . ... : ... .. . ... : ... .. . ... ...
ROW 59 : ... .. . ... ... ... : ... .. . ... ... ... : --- .. . ... : ... .. . ... : ... .. . ... ...
ROW 5A : ... .. . ... ... ... : ... .. . ... ... ... : ... .. . ... : ... .. . ... : ... .. . ... ...
ROW 5B : ... .. . ... ... ... : ... .. . ... ... ... : ... .. . ... : ... .. . ... : ... .. . ... ...
ROW 5C : ... .. . ... ... ... : ... .. . ... ... ... : ... .. . ... : ... .. E ... : ... .. . ... ...
ROW 5D : ... .. . ... ... ... : ... .. . ... ... ... : ... .. . ... : ... .. 0 ... : ... .. . ... ...
ROW 5E : ... .. . ... ... ... : ... .. . ... ... ... : ... .. . ... : ... .. . ... : ... .. . ... ...
ROW 5F : ... .. . ... ... ... : ... .. . ... ... ... : ... .. . ... : ... .. . ... : ... .. . ... ...
ROW 60 : ... .. . ... ... ... : ... .. . ... ... ... : ... .. . ... : ... .. . ... : ... .. . ... ...
ROW 61 : ... .. . ... ... ... : ... .. . ... ... ... : ... .. . ... : ... .. . ... : ... .. . ... ...
ROW 62 : ... .. . ... ... ... : ... .. . ... ... ... : G-3 00 . ... : ... .. E ... : ... .. . ... ...
ROW 63 : ... .. . ... ... ... : ... .. . ... ... ... : ... .. . ... : ... .. 0 ... : ... .. . ... ...
ROW 64 : ... .. . ... ... ... : ... .. . ... ... ... : ... .. . ... : ... .. . ... : ... .. . ... ...
ROW 65 : ... .. . ... ... ... : ... .. . ... ... ... : ... .. . ... : ... .. . ... : ... .. . ... ...
ROW 66 : ... .. . ... ... ... : ... .. . ... ... ... : ... .. . ... : ... .. . ... : ... .. . ... ...
ROW 67 : ... .. . ... ... ... : ... .. . ... ... ... : ... .. . ... : ... .. . ... : ... .. . ... ...
ROW 68 : ... .. . ... ... ... : ... .. . ... ... ... : ... .. . ... : F-# 00 0 ... : ... .. . ... ...
ROW 69 : ... .. . ... ... ... : ... .. . ... ... ... : ... .. . ... : ... .. . ... : ... .. . ... ...
ROW 6A : ... .. . ... ... ... : ... .. . ... ... ... : ... .. . ... : ... .. . ... : ... .. . ... ...
ROW 6B : ... .. . ... ... ... : ... .. . ... ... ... : --- .. . ... : ... .. . ... : ... .. . ... ...
ROW 6C : ... .. . ... ... ... : ... .. . ... ... ... : ... .. . ... : ... .. . ... : ... .. . ... ...
ROW 6D : ... .. . ... ... ... : ... .. . ... ... ... : ... .. . ... : ... .. . ... : ... .. . ... ...
ROW 6E : ... .. 0 ... ... ... : ... .. 0 ... ... ... : ... .. . ... : C-# 00 E ... : ... .. . ... ...
ROW 6F : ... .. . ... ... ... : ... .. . ... ... ... : ... .. . ... : ... .. 0 ... : ... .. . ... ...
ROW 70 : ... .. . ... ... ... : ... .. . ... ... ... : ... .. . ... : ... .. . ... : ... .. . ... ...
ROW 71 : ... .. . ... ... ... : ... .. . ... ... ... : --- .. . ... : ... .. . ... : ... .. . ... ...
ROW 72 : ... .. . ... ... ... : ... .. . ... ... ... : ... .. . ... : ... .. . ... : ... .. . ... ...
ROW 73 : ... .. . ... ... ... : ... .. . ... ... ... : ... .. . ... : ... .. . ... : ... .. . ... ...
ROW 74 : C#3 00 8 P80 ... ... : A#3 00 8 P81 ... ... : ... .. . ... : ... .. . ... : ... .. . ... ...
ROW 75 : ... .. . ... ... ... : ... .. . ... ... ... : ... .. . ... : ... .. . ... : ... .. . ... ...
ROW 76 : ... .. 7 ... ... ... : ... .. 7 ... ... ... : ... .. . ... : ... .. . ... : ... .. . ... ...
ROW 77 : ... .. . ... ... ... : ... .. . ... ... ... : ... .. . ... : ... .. . ... : ... .. . ... ...
ROW 78 : ... .. . ... ... ... : ... .. . ... ... ... : ... .. . ... : ... .. . ... : ... .. . ... ...
ROW 79 : ... .. . ... ... ... : ... .. . ... ... ... : ... .. . ... : ... .. . ... : ... .. . ... ...
ROW 7A : G-3 00 8 P80 ... ... : C#4 00 8 P80 ... ... : G-3 00 . ... : C-# 00 E ... : ... .. . ... ...
ROW 7B : ... .. . ... ... ... : ... .. . ... ... ... : ... .. . ... : ... .. 0 ... : ... .. . ... ...
ROW 7C : ... .. 7 ... ... ... : ... .. 7 ... ... ... : ... .. . ... : ... .. . ... : ... .. . ... ...
ROW 7D : ... .. . ... ... ... : ... .. . ... ... ... : ... .. . ... : ... .. . ... : ... .. . ... ...
ROW 7E : ... .. . ... ... ... : ... .. . ... ... ... : ... .. . ... : ... .. . ... : ... .. . ... ...
ROW 7F : ... .. . ... ... ... : ... .. . ... ... ... : ... .. . ... : ... .. . ... : ... .. . ... ...
ROW 80 : ... .. 0 ... ... ... : ... .. 0 ... ... ... : ... .. . ... : ... .. . ... : ... .. . ... ...
ROW 81 : ... .. . ... ... ... : ... .. . ... ... ... : ... .. . ... : ... .. . ... : ... .. . ... ...
ROW 82 : ... .. . ... ... ... : ... .. . ... ... ... : ... .. . ... : ... .. . ... : ... .. . ... ...
ROW 83 : ... .. . ... ... ... : ... .. . ... ... ... : --- .. . ... : ... .. . ... : ... .. . ... ...
ROW 84 : ... .. . ... ... ... : ... .. . ... ... ... : ... .. . ... : ... .. . ... : ... .. . ... ...
ROW 85 : ... .. . ... ... ... : ... .. . ... ... ... : ... .. . ... : ... .. . ... : ... .. . ... ...
ROW 86 : A#3 00 8 P81 ... ... : G-4 00 8 P81 ... ... : ... .. . ... : ... .. . ... : ... .. . ... ...
ROW 87 : ... .. . ... ... ... : ... .. . ... ... ... : ... .. . ... : ... .. . ... : ... .. . ... ...
ROW 88 : ... .. . ... ... ... : ... .. . ... ... ... : ... .. . ... : ... .. . ... : ... .. . ... ...
ROW 89 : ... .. . ... ... ... : ... .. . ... ... ... : --- .. . ... : ... .. . ... : ... .. . ... ...
ROW 8A : ... .. . ... ... ... : ... .. . ... ... ... : ... .. . ... : ... .. . ... : ... .. . ... ...
ROW 8B : ... .. . ... ... ... : ... .. . ... ... ... : ... .. . ... : ... .. . ... : ... .. . ... ...
ROW 8C : C#3 00 8 P80 ... ... : A#3 00 8 P81 ... ... : ... .. . ... : ... .. . ... : ... .. . ... ...
ROW 8D : ... .. . ... ... ... : ... .. . ... ... ... : ... .. . ... : ... .. . ... : ... .. . ... ...
ROW 8E : ... .. 7 ... ... ... : ... .. 7 ... ... ... : ... .. . ... : ... .. . ... : ... .. . ... ...
ROW 8F : ... .. . ... ... ... : ... .. . ... ... ... : ... .. . ... : ... .. . ... : ... .. . ... ...
ROW 90 : ... .. . ... ... ... : ... .. . ... ... ... : ... .. . ... : ... .. . ... : ... .. . ... ...
ROW 91 : ... .. . ... ... ... : ... .. . ... ... ... : ... .. . ... : ... .. . ... : ... .. . ... ...
ROW 92 : G-3 00 8 P80 ... ... : C#4 00 8 P80 ... ... : G-3 00 . ... : C-# 00 E ... : ... .. . ... ...
ROW 93 : ... .. . ... ... ... : ... .. . ... ... ... : ... .. . ... : ... .. 0 ... : ... .. . ... ...
ROW 94 : ... .. 7 ... ... ... : ... .. 7 ... ... ... : ... .. . ... : ... .. . ... : ... .. . ... ...
ROW 95 : ... .. . ... ... ... : ... .. . ... ... ... : ... .. . ... : ... .. . ... : ... .. . ... ...
ROW 96 : ... .. . ... ... ... : ... .. . ... ... ... : ... .. . ... : ... .. . ... : ... .. . ... ...
ROW 97 : ... .. . ... ... ... : ... .. . ... ... ... : ... .. . ... : ... .. . ... : ... .. . ... ...
ROW 98 : ... .. 0 ... ... ... : ... .. 0 ... ... ... : ... .. . ... : ... .. . ... : ... .. . ... ...
ROW 99 : ... .. . ... ... ... : ... .. . ... ... ... : ... .. . ... : ... .. . ... : ... .. . ... ...
ROW 9A : ... .. . ... ... ... : ... .. . ... ... ... : ... .. . ... : ... .. . ... : ... .. . ... ...
ROW 9B : ... .. . ... ... ... : ... .. . ... ... ... : --- .. . ... : ... .. . ... : ... .. . ... ...
ROW 9C : ... .. . ... ... ... : ... .. . ... ... ... : ... .. . ... : ... .. . ... : ... .. . ... ...
ROW 9D : ... .. . ... ... ... : ... .. . ... ... ... : ... .. . ... : ... .. . ... : ... .. . ... ...
ROW 9E : A#3 00 8 P81 ... ... : G-4 00 8 P81 ... ... : ... .. . ... : ... .. . ... : ... .. . ... ...
ROW 9F : ... .. . ... ... ... : ... .. . ... ... ... : ... .. . ... : ... .. . ... : ... .. . ... ...
ROW A0 : ... .. 7 ... ... ... : ... .. 7 ... ... ... : ... .. . ... : ... .. . ... : ... .. . ... ...
ROW A1 : ... .. . ... ... ... : ... .. . ... ... ... : --- .. . ... : ... .. . ... : ... .. . ... ...
ROW A2 : ... .. . ... ... ... : ... .. . ... ... ... : ... .. . ... : ... .. . ... : ... .. . ... ...
ROW A3 : ... .. . ... ... ... : ... .. . ... ... ... : ... .. . ... : ... .. . ... : ... .. . ... ...
ROW A4 : C#4 00 8 P81 ... ... : G-4 00 8 P81 ... ... : ... .. . ... : ... .. . ... : ... .. . ... ...
ROW A5 : ... .. . ... ... ... : ... .. . ... ... ... : ... .. . ... : ... .. . ... : ... .. . ... ...
ROW A6 : ... .. 7 ... ... ... : ... .. 7 ... ... ... : ... .. . ... : ... .. . ... : ... .. . ... ...
ROW A7 : ... .. . ... ... ... : ... .. . ... ... ... : ... .. . ... : ... .. . ... : ... .. . ... ...
ROW A8 : ... .. . ... ... ... : ... .. . ... ... ... : ... .. . ... : ... .. . ... : ... .. . ... ...
ROW A9 : ... .. . ... ... ... : ... .. . ... ... ... : ... .. . ... : ... .. . ... : ... .. . ... ...
ROW AA : D#4 00 8 P81 ... ... : B-4 00 8 P80 ... ... : G-3 00 . P80 : C-# 00 E ... : ... .. . ... ...
ROW AB : ... .. . ... ... ... : ... .. . ... ... ... : ... .. . ... : ... .. 0 ... : ... .. . ... ...
ROW AC : ... .. 7 ... ... ... : ... .. 7 ... ... ... : ... .. . ... : ... .. . ... : ... .. . ... ...
ROW AD : ... .. . ... ... ... : ... .. . ... ... ... : ... .. . ... : ... .. . ... : ... .. . ... ...
ROW AE : ... .. . ... ... ... : ... .. . ... ... ... : ... .. . ... : ... .. . ... : ... .. . ... ...
ROW AF : ... .. . ... ... ... : ... .. . ... ... ... : ... .. . ... : ... .. . ... : ... .. . ... ...
ROW B0 : ... .. 0 ... ... ... : ... .. 0 ... ... ... : ... .. . ... : ... .. . ... : ... .. . ... ...
ROW B1 : ... .. . ... ... ... : ... .. . ... ... ... : ... .. . ... : ... .. . ... : ... .. . ... ...
ROW B2 : ... .. . ... ... ... : ... .. . ... ... ... : ... .. . ... : ... .. . ... : ... .. . ... ...
ROW B3 : ... .. . ... ... ... : ... .. . ... ... ... : --- .. . ... : ... .. . ... : ... .. . ... ...
ROW B4 : ... .. . ... ... ... : ... .. . ... ... ... : ... .. . ... : ... .. . ... : ... .. . ... ...
ROW B5 : ... .. . ... ... ... : ... .. . ... ... ... : ... .. . ... : ... .. . ... : ... .. . ... ...
ROW B6 : C#4 00 8 P81 ... ... : G#4 00 8 P80 ... ... : ... .. . ... : ... .. . ... : ... .. . ... ...
ROW B7 : ... .. . ... ... ... : ... .. . ... ... ... : ... .. . ... : ... .. . ... : ... .. . ... ...
ROW B8 : ... .. . ... ... ... : ... .. . ... ... ... : ... .. . ... : ... .. . ... : ... .. . ... ...
ROW B9 : ... .. . ... ... ... : ... .. . ... ... ... : --- .. . ... : ... .. . ... : ... .. . ... ...
ROW BA : ... .. . ... ... ... : ... .. . ... ... ... : ... .. . ... : ... .. . ... : ... .. . ... ...
ROW BB : ... .. . ... ... ... : ... .. . ... ... ... : ... .. . ... : ... .. . ... : ... .. . ... ...
ROW BC : ... .. . ... ... ... : ... .. . ... ... ... : ... .. . ... : ... .. E ... : ... .. . ... ...
ROW BD : ... .. . ... ... ... : ... .. . ... ... ... : ... .. . ... : ... .. 0 ... : ... .. . ... ...
ROW BE : ... .. . ... ... ... : ... .. . ... ... ... : ... .. . ... : ... .. . ... : ... .. . ... ...
ROW BF : ... .. . ... ... ... : ... .. . ... ... ... : ... .. . ... : ... .. . ... : ... .. . ... ...
ROW C0 : ... .. . ... ... ... : ... .. . ... ... ... : ... .. . ... : ... .. . ... : ... .. . ... ...
ROW C1 : ... .. . ... ... ... : ... .. . ... ... ... : ... .. . ... : ... .. . ... : ... .. . ... ...
ROW C2 : ... .. . ... ... ... : ... .. . ... ... ... : G-3 00 . P80 : ... .. E ... : ... .. . ... ...
ROW C3 : ... .. . ... ... ... : ... .. . ... ... ... : ... .. . ... : ... .. 0 ... : ... .. . ... ...
ROW C4 : ... .. . ... ... ... : ... .. . ... ... ... : ... .. . ... : ... .. . ... : ... .. . ... ...
ROW C5 : ... .. . ... ... ... : ... .. . ... ... ... : ... .. . ... : ... .. . ... : ... .. . ... ...
ROW C6 : ... .. . ... ... ... : ... .. . ... ... ... : ... .. . ... : ... .. . ... : ... .. . ... ...
ROW C7 : ... .. . ... ... ... : ... .. . ... ... ... : ... .. . ... : ... .. . ... : ... .. . ... ...
ROW C8 : ... .. . ... ... ... : ... .. . ... ... ... : ... .. . ... : F-# 00 0 ... : ... .. . ... ...
ROW C9 : ... .. . ... ... ... : ... .. . ... ... ... : ... .. . ... : ... .. . ... : ... .. . ... ...
ROW CA : ... .. . ... ... ... : ... .. . ... ... ... : ... .. . ... : ... .. . ... : ... .. . ... ...
ROW CB : ... .. . ... ... ... : ... .. . ... ... ... : --- .. . ... : ... .. . ... : ... .. . ... ...
ROW CC : ... .. . ... ... ... : ... .. . ... ... ... : ... .. . ... : ... .. . ... : ... .. . ... ...
ROW CD : ... .. . ... ... ... : ... .. . ... ... ... : ... .. . ... : ... .. . ... : ... .. . ... ...
ROW CE : D#4 00 8 P81 ... ... : B-4 00 8 P80 ... ... : ... .. . ... : C-# 00 E ... : ... .. . ... ...
ROW CF : ... .. . ... ... ... : ... .. . ... ... ... : ... .. . ... : ... .. 0 ... : ... .. . ... ...
ROW D0 : ... .. . ... ... ... : ... .. . ... ... ... : ... .. . ... : ... .. . ... : ... .. . ... ...
ROW D1 : ... .. . ... ... ... : ... .. . ... ... ... : --- .. . ... : ... .. . ... : ... .. . ... ...
ROW D2 : ... .. . ... ... ... : ... .. . ... ... ... : ... .. . ... : ... .. . ... : ... .. . ... ...
ROW D3 : ... .. . ... ... ... : ... .. . ... ... ... : ... .. . ... : ... .. . ... : ... .. . ... ...
ROW D4 : G-4 00 8 P81 ... ... : B-4 00 8 P80 ... ... : ... .. . ... : ... .. . ... : ... .. . ... ...
ROW D5 : ... .. . ... ... ... : ... .. . ... ... ... : ... .. . ... : ... .. . ... : ... .. . ... ...
ROW D6 : ... .. 7 ... ... ... : ... .. 7 ... ... ... : ... .. . ... : ... .. . ... : ... .. . ... ...
ROW D7 : ... .. . ... ... ... : ... .. . ... ... ... : ... .. . ... : ... .. . ... : ... .. . ... ...
ROW D8 : ... .. . ... ... ... : ... .. . ... ... ... : ... .. . ... : ... .. . ... : ... .. . ... ...
ROW D9 : ... .. . ... ... ... : ... .. . ... ... ... : ... .. . ... : ... .. . ... : ... .. . ... ...
ROW DA : G#4 00 8 P80 ... ... : C-5 00 8 P81 ... ... : F-3 00 . ... : C-# 00 E ... : ... .. . ... ...
ROW DB : ... .. . ... ... ... : ... .. . ... ... ... : ... .. . ... : ... .. 0 ... : ... .. . ... ...
ROW DC : ... .. 7 ... ... ... : ... .. 7 ... ... ... : ... .. . ... : ... .. . ... : ... .. . ... ...
ROW DD : ... .. . ... ... ... : ... .. . ... ... ... : ... .. . ... : ... .. . ... : ... .. . ... ...
ROW DE : ... .. . ... ... ... : ... .. . ... ... ... : ... .. . ... : ... .. . ... : ... .. . ... ...
ROW DF : ... .. . ... ... ... : ... .. . ... ... ... : ... .. . ... : ... .. . ... : ... .. . ... ...
ROW E0 : ... .. 0 ... ... ... : ... .. 0 ... ... ... : ... .. . ... : ... .. . ... : ... .. . ... ...
ROW E1 : ... .. . ... ... ... : ... .. . ... ... ... : ... .. . ... : ... .. . ... : ... .. . ... ...
ROW E2 : ... .. . ... ... ... : ... .. . ... ... ... : ... .. . ... : ... .. . ... : ... .. . ... ...
ROW E3 : ... .. . ... ... ... : ... .. . ... ... ... : --- .. . ... : ... .. . ... : ... .. . ... ...
ROW E4 : ... .. . ... ... ... : ... .. . ... ... ... : ... .. . ... : ... .. . ... : ... .. . ... ...
ROW E5 : ... .. . ... ... ... : ... .. . ... ... ... : ... .. . ... : ... .. . ... : ... .. . ... ...
ROW E6 : F-4 00 8 P80 ... ... : G#4 00 8 P80 ... ... : ... .. . ... : ... .. . ... : ... .. . ... ...
ROW E7 : ... .. . ... ... ... : ... .. . ... ... ... : ... .. . ... : ... .. . ... : ... .. . ... ...
ROW E8 : ... .. . ... ... ... : ... .. . ... ... ... : ... .. . ... : ... .. . ... : ... .. . ... ...
ROW E9 : ... .. . ... ... ... : ... .. . ... ... ... : --- .. . ... : ... .. . ... : ... .. . ... ...
ROW EA : ... .. . ... ... ... : ... .. . ... ... ... : ... .. . ... : ... .. . ... : ... .. . ... ...
ROW EB : ... .. . ... ... ... : ... .. . ... ... ... : ... .. . ... : ... .. . ... : ... .. . ... ...
ROW EC : G#4 00 8 P80 ... ... : C-5 00 8 P81 ... ... : ... .. . ... : ... .. . ... : ... .. . ... ...
ROW ED : ... .. . ... ... ... : ... .. . ... ... ... : ... .. . ... : ... .. . ... : ... .. . ... ...
ROW EE : ... .. 7 ... ... ... : ... .. 7 ... ... ... : ... .. . ... : ... .. . ... : ... .. . ... ...
ROW EF : ... .. . ... ... ... : ... .. . ... ... ... : ... .. . ... : ... .. . ... : ... .. . ... ...
ROW F0 : ... .. . ... ... ... : ... .. . ... ... ... : ... .. . ... : ... .. . ... : ... .. . ... ...
ROW F1 : ... .. . ... ... ... : ... .. . ... ... ... : ... .. . ... : ... .. . ... : ... .. . ... ...
ROW F2 : G-4 00 8 P81 ... ... : B-4 00 8 P80 ... ... : F#3 00 . ... : C-# 00 E ... : ... .. . ... ...
ROW F3 : ... .. . ... ... ... : ... .. . ... ... ... : ... .. . ... : ... .. 0 ... : ... .. . ... ...
ROW F4 : ... .. 7 ... ... ... : ... .. 7 ... ... ... : ... .. . ... : ... .. . ... : ... .. . ... ...
ROW F5 : ... .. . ... ... ... : ... .. . ... ... ... : ... .. . ... : ... .. . ... : ... .. . ... ...
ROW F6 : ... .. . ... ... ... : ... .. . ... ... ... : ... .. . ... : ... .. . ... : ... .. . ... ...
ROW F7 : ... .. . ... ... ... : ... .. . ... ... ... : ... .. . ... : ... .. . ... : ... .. . ... ...
ROW F8 : ... .. 0 ... ... ... : ... .. 0 ... ... ... : ... .. . ... : ... .. . ... : ... .. . ... ...
ROW F9 : ... .. . ... ... ... : ... .. . ... ... ... : ... .. . ... : ... .. . ... : ... .. . ... ...
ROW FA : ... .. . ... ... ... : ... .. . ... ... ... : ... .. . ... : ... .. . ... : ... .. . ... ...
ROW FB : ... .. . ... ... ... : ... .. . ... ... ... : --- .. . ... : ... .. . ... : ... .. . ... ...
ROW FC : ... .. . ... ... ... : ... .. . ... ... ... : ... .. . ... : ... .. . ... : ... .. . ... ...
ROW FD : ... .. . ... ... ... : ... .. . ... ... ... : ... .. . ... : ... .. . ... : ... .. . ... ...
ROW FE : F#4 00 8 P80 ... ... : G#4 00 8 P80 ... ... : ... .. . ... : ... .. . ... : ... .. . ... ...
ROW FF : ... .. . ... ... ... : ... .. . ... ... ... : ... .. . ... : ... .. . ... : ... .. . ... ...

PATTERN 24
ROW 00 : ... .. . ... ... ... : ... .. . ... ... ... : ... .. . ... : ... .. . ... : ... .. . ... ...
ROW 01 : ... .. . ... ... ... : ... .. . ... ... ... : --- .. . ... : ... .. . ... : ... .. . ... ...
ROW 02 : ... .. . ... ... ... : ... .. . ... ... ... : ... .. . ... : ... .. . ... : ... .. . ... ...
ROW 03 : ... .. . ... ... ... : ... .. . ... ... ... : ... .. . ... : ... .. . ... : ... .. . ... ...
ROW 04 : D-4 00 8 P81 ... ... : F#4 00 8 P80 ... ... : ... .. . ... : ... .. . ... : ... .. . ... ...
ROW 05 : ... .. . ... ... ... : ... .. . ... ... ... : ... .. . ... : ... .. . ... : ... .. . ... ...
ROW 06 : ... .. 7 ... ... ... : ... .. 7 ... ... ... : ... .. . ... : ... .. . ... : ... .. . ... ...
ROW 07 : ... .. . ... ... ... : ... .. . ... ... ... : ... .. . ... : ... .. . ... : ... .. . ... ...
ROW 08 : ... .. . ... ... ... : ... .. . ... ... ... : ... .. . ... : ... .. . ... : ... .. . ... ...
ROW 09 : ... .. . ... ... ... : ... .. . ... ... ... : ... .. . ... : ... .. . ... : ... .. . ... ...
ROW 0A : D#4 00 8 P81 ... ... : G-4 00 8 P81 ... ... : G-3 00 . ... : C-# 00 E ... : ... .. . ... ...
ROW 0B : ... .. . ... ... ... : ... .. . ... ... ... : ... .. . ... : ... .. 0 ... : ... .. . ... ...
ROW 0C : ... .. 7 ... ... ... : ... .. 7 ... ... ... : ... .. . ... : ... .. . ... : ... .. . ... ...
ROW 0D : ... .. . ... ... ... : ... .. . ... ... ... : ... .. . ... : ... .. . ... : ... .. . ... ...
ROW 0E : ... .. . ... ... ... : ... .. . ... ... ... : ... .. . ... : ... .. . ... : ... .. . ... ...
ROW 0F : ... .. . ... ... ... : ... .. . ... ... ... : ... .. . ... : ... .. . ... : ... .. . ... ...
ROW 10 : ... .. 0 ... ... ... : ... .. 0 ... ... ... : ... .. . ... : ... .. . ... : ... .. . ... ...
ROW 11 : ... .. . ... ... ... : ... .. . ... ... ... : ... .. . ... : ... .. . ... : ... .. . ... ...
ROW 12 : ... .. . ... ... ... : ... .. . ... ... ... : ... .. . ... : ... .. . ... : ... .. . ... ...
ROW 13 : ... .. . ... ... ... : ... .. . ... ... ... : --- .. . ... : ... .. . ... : ... .. . ... ...
ROW 14 : ... .. . ... ... ... : ... .. . ... ... ... : ... .. . ... : ... .. . ... : ... .. . ... ...
ROW 15 : ... .. . ... ... ... : ... .. . ... ... ... : ... .. . ... : ... .. . ... : ... .. . ... ...
ROW 16 : C-4 00 8 P81 ... ... : D#4 00 8 P81 ... ... : ... .. . ... : ... .. . ... : ... .. . ... ...
ROW 17 : ... .. . ... ... ... : ... .. . ... ... ... : ... .. . ... : ... .. . ... : ... .. . ... ...
ROW 18 : ... .. . ... ... ... : ... .. . ... ... ... : ... .. . ... : ... .. . ... : ... .. . ... ...
ROW 19 : ... .. . ... ... ... : ... .. . ... ... ... : --- .. . ... : ... .. . ... : ... .. . ... ...
ROW 1A : ... .. . ... ... ... : ... .. . ... ... ... : ... .. . ... : ... .. . ... : ... .. . ... ...
ROW 1B : ... .. . ... ... ... : ... .. . ... ... ... : ... .. . ... : ... .. . ... : ... .. . ... ...
ROW 1C : G#3 00 8 P80 ... ... : C#4 00 8 P81 ... ... : ... .. . ... : ... .. E ... : ... .. . ... ...
ROW 1D : ... .. . ... ... ... : ... .. . ... ... ... : ... .. . ... : ... .. 0 ... : ... .. . ... ...
ROW 1E : ... .. 7 ... ... ... : ... .. 7 ... ... ... : ... .. . ... : ... .. . ... : ... .. . ... ...
ROW 1F : ... .. . ... ... ... : ... .. . ... ... ... : ... .. . ... : ... .. . ... : ... .. . ... ...
ROW 20 : ... .. . ... ... ... : ... .. . ... ... ... : ... .. . ... : ... .. . ... : ... .. . ... ...
ROW 21 : ... .. . ... ... ... : ... .. . ... ... ... : ... .. . ... : ... .. . ... : ... .. . ... ...
ROW 22 : B-3 00 8 P80 ... ... : C#4 00 8 P80 ... ... : G#3 00 . P80 : ... .. E ... : ... .. . ... ...
ROW 23 : ... .. . ... ... ... : ... .. . ... ... ... : ... .. . ... : ... .. 0 ... : ... .. . ... ...
ROW 24 : ... .. 7 ... ... ... : ... .. 7 ... ... ... : ... .. . ... : ... .. . ... : ... .. . ... ...
ROW 25 : ... .. . ... ... ... : ... .. . ... ... ... : ... .. . ... : ... .. . ... : ... .. . ... ...
ROW 26 : ... .. . ... ... ... : ... .. . ... ... ... : ... .. . ... : ... .. . ... : ... .. . ... ...
ROW 27 : ... .. . ... ... ... : ... .. . ... ... ... : ... .. . ... : ... .. . ... : ... .. . ... ...
ROW 28 : ... .. 0 ... ... ... : ... .. 0 ... ... ... : ... .. . ... : F-# 00 0 ... : ... .. . ... ...
ROW 29 : ... .. . ... ... ... : ... .. . ... ... ... : ... .. . ... : ... .. . ... : ... .. . ... ...
ROW 2A : ... .. . ... ... ... : ... .. . ... ... ... : ... .. . ... : ... .. . ... : ... .. . ... ...
ROW 2B : ... .. . ... ... ... : ... .. . ... ... ... : --- .. . ... : ... .. . ... : ... .. . ... ...
ROW 2C : ... .. . ... ... ... : ... .. . ... ... ... : ... .. . ... : ... .. . ... : ... .. . ... ...
ROW 2D : ... .. . ... ... ... : ... .. . ... ... ... : ... .. . ... : ... .. . ... : ... .. . ... ...
ROW 2E : C#4 00 8 P81 ... ... : D#4 00 8 P81 ... ... : ... .. . ... : C-# 00 E ... : ... .. . ... ...
ROW 2F : ... .. . ... ... ... : ... .. . ... ... ... : ... .. . ... : ... .. 0 ... : ... .. . ... ...
ROW 30 : ... .. . ... ... ... : ... .. . ... ... ... : ... .. . ... : ... .. . ... : ... .. . ... ...
ROW 31 : ... .. . ... ... ... : ... .. . ... ... ... : --- .. . ... : ... .. . ... : ... .. . ... ...
ROW 32 : ... .. . ... ... ... : ... .. . ... ... ... : ... .. . ... : ... .. . ... : ... .. . ... ...
ROW 33 : ... .. . ... ... ... : ... .. . ... ... ... : ... .. . ... : ... .. . ... : ... .. . ... ...
ROW 34 : C-4 00 8 P81 ... ... : D#4 00 8 P81 ... ... : ... .. . ... : ... .. . ... : ... .. . ... ...
ROW 35 : ... .. . ... ... ... : ... .. . ... ... ... : ... .. . ... : ... .. . ... : ... .. . ... ...
ROW 36 : ... .. 7 ... ... ... : ... .. 7 ... ... ... : ... .. . ... : ... .. . ... : ... .. . ... ...
ROW 37 : ... .. . ... ... ... : ... .. . ... ... ... : ... .. . ... : ... .. . ... : ... .. . ... ...
ROW 38 : ... .. . ... ... ... : ... .. . ... ... ... : ... .. . ... : ... .. . ... : ... .. . ... ...
ROW 39 : ... .. . ... ... ... : ... .. . ... ... ... : ... .. . ... : ... .. . ... : ... .. . ... ...
ROW 3A : C#4 00 8 P80 ... ... : F-4 00 8 P80 ... ... : F-3 00 . ... : C-# 00 E ... : ... .. . ... ...
ROW 3B : ... .. . ... ... ... : ... .. . ... ... ... : ... .. . ... : ... .. 0 ... : ... .. . ... ...
ROW 3C : ... .. 7 ... ... ... : ... .. 7 ... ... ... : ... .. . ... : ... .. . ... : ... .. . ... ...
ROW 3D : ... .. . ... ... ... : ... .. . ... ... ... : ... .. . ... : ... .. . ... : ... .. . ... ...
ROW 3E : ... .. . ... ... ... : ... .. . ... ... ... : ... .. . ... : ... .. . ... : ... .. . ... ...
ROW 3F : ... .. . ... ... ... : ... .. . ... ... ... : ... .. . ... : ... .. . ... : ... .. . ... ...
ROW 40 : ... .. 0 ... ... ... : ... .. 0 ... ... ... : ... .. . ... : ... .. . ... : ... .. . ... ...
ROW 41 : ... .. . ... ... ... : ... .. . ... ... ... : ... .. . ... : ... .. . ... : ... .. . ... ...
ROW 42 : ... .. . ... ... ... : ... .. . ... ... ... : ... .. . ... : ... .. . ... : ... .. . ... ...
ROW 43 : ... .. . ... ... ... : ... .. . ... ... ... : --- .. . ... : ... .. . ... : ... .. . ... ...
ROW 44 : ... .. . ... ... ... : ... .. . ... ... ... : ... .. . ... : ... .. . ... : ... .. . ... ...
ROW 45 : ... .. . ... ... ... : ... .. . ... ... ... : ... .. . ... : ... .. . ... : ... .. . ... ...
ROW 46 : G-3 00 8 P80 ... ... : B-3 00 8 P80 ... ... : ... .. . ... : ... .. . ... : ... .. . ... ...
ROW 47 : ... .. . ... ... ... : ... .. . ... ... ... : ... .. . ... : ... .. . ... : ... .. . ... ...
ROW 48 : ... .. . ... ... ... : ... .. . ... ... ... : ... .. . ... : ... .. . ... : ... .. . ... ...
ROW 49 : ... .. . ... ... ... : ... .. . ... ... ... : --- .. . ... : ... .. . ... : ... .. . ... ...
ROW 4A : ... .. . ... ... ... : ... .. . ... ... ... : ... .. . ... : ... .. . ... : ... .. . ... ...
ROW 4B : ... .. . ... ... ... : ... .. . ... ... ... : ... .. . ... : ... .. . ... : ... .. . ... ...
ROW 4C : C-4 00 8 P81 ... ... : D#4 00 8 P81 ... ... : ... .. . ... : ... .. . ... : ... .. . ... ...
ROW 4D : ... .. . ... ... ... : ... .. . ... ... ... : ... .. . ... : ... .. . ... : ... .. . ... ...
ROW 4E : ... .. 7 ... ... ... : ... .. 7 ... ... ... : ... .. . ... : ... .. . ... : ... .. . ... ...
ROW 4F : ... .. . ... ... ... : ... .. . ... ... ... : ... .. . ... : ... .. . ... : ... .. . ... ...
ROW 50 : ... .. . ... ... ... : ... .. . ... ... ... : ... .. . ... : ... .. . ... : ... .. . ... ...
ROW 51 : ... .. . ... ... ... : ... .. . ... ... ... : ... .. . ... : ... .. . ... : ... .. . ... ...
ROW 52 : B-3 00 8 P80 ... ... : C#4 00 8 P80 ... ... : C#3 00 . ... : C-# 00 E ... : ... .. . ... ...
ROW 53 : ... .. . ... ... ... : ... .. . ... ... ... : ... .. . ... : ... .. 0 ... : ... .. . ... ...
ROW 54 : ... .. 7 ... ... ... : ... .. 7 ... ... ... : ... .. . ... : ... .. . ... : ... .. . ... ...
ROW 55 : ... .. . ... ... ... : ... .. . ... ... ... : ... .. . ... : ... .. . ... : ... .. . ... ...
ROW 56 : ... .. . ... ... ... : ... .. . ... ... ... : ... .. . ... : ... .. . ... : ... .. . ... ...
ROW 57 : ... .. . ... ... ... : ... .. . ... ... ... : ... .. . ... : ... .. . ... : ... .. . ... ...
ROW 58 : ... .. 0 ... ... ... : ... .. 0 ... ... ... : ... .. . ... : ... .. . ... : ... .. . ... ...
ROW 59 : ... .. . ... ... ... : ... .. . ... ... ... : ... .. . ... : ... .. . ... : ... .. . ... ...
ROW 5A : ... .. . ... ... ... : ... .. . ... ... ... : ... .. . ... : ... .. . ... : ... .. . ... ...
ROW 5B : ... .. . ... ... ... : ... .. . ... ... ... : --- .. . ... : ... .. . ... : ... .. . ... ...
ROW 5C : ... .. . ... ... ... : ... .. . ... ... ... : ... .. . ... : ... .. . ... : ... .. . ... ...
ROW 5D : ... .. . ... ... ... : ... .. . ... ... ... : ... .. . ... : ... .. . ... : ... .. . ... ...
ROW 5E : G-3 00 8 P80 ... ... : C-4 00 8 P81 ... ... : ... .. . ... : ... .. . ... : ... .. . ... ...
ROW 5F : ... .. . ... ... ... : ... .. . ... ... ... : ... .. . ... : ... .. . ... : ... .. . ... ...
ROW 60 : ... .. . ... ... ... : ... .. . ... ... ... : ... .. . ... : ... .. . ... : ... .. . ... ...
ROW 61 : ... .. . ... ... ... : ... .. . ... ... ... : --- .. . ... : ... .. . ... : ... .. . ... ...
ROW 62 : ... .. . ... ... ... : ... .. . ... ... ... : ... .. . ... : ... .. . ... : ... .. . ... ...
ROW 63 : ... .. . ... ... ... : ... .. . ... ... ... : ... .. . ... : ... .. . ... : ... .. . ... ...
ROW 64 : ... .. . ... ... ... : ... .. . ... ... ... : ... .. . ... : ... .. . ... : ... .. . ... ...
ROW 65 : ... .. . ... ... ... : ... .. . ... ... ... : ... .. . ... : ... .. . ... : ... .. . ... ...
ROW 66 : ... .. . ... ... ... : ... .. . ... ... ... : ... .. . ... : ... .. . ... : ... .. . ... ...
ROW 67 : ... .. . ... ... ... : ... .. . ... ... ... : ... .. . ... : ... .. . ... : ... .. . ... ...
ROW 68 : ... .. . ... ... ... : ... .. . ... ... ... : ... .. . ... : ... .. . ... : ... .. . ... ...
ROW 69 : ... .. . ... ... ... : ... .. . ... ... ... : ... .. . ... : ... .. . ... : ... .. . ... ...
ROW 6A : ... .. . ... ... ... : ... .. . ... ... ... : G-2 00 . ... : C-# 00 E ... : ... .. . ... ...
ROW 6B : ... .. . ... ... ... : ... .. . ... ... ... : ... .. . ... : ... .. 0 ... : ... .. . ... ...
ROW 6C : ... .. . ... ... ... : ... .. . ... ... ... : ... .. . ... : ... .. . ... : ... .. . ... ...
ROW 6D : ... .. . ... ... ... : ... .. . ... ... ... : ... .. . ... : ... .. . ... : ... .. . ... ...
ROW 6E : ... .. . ... ... ... : ... .. . ... ... ... : ... .. . ... : ... .. . ... : ... .. . ... ...
ROW 6F : ... .. . ... ... ... : ... .. . ... ... ... : ... .. . ... : ... .. . ... : ... .. . ... ...
ROW 70 : ... .. . ... ... ... : ... .. . ... ... ... : ... .. . ... : ... .. . ... : ... .. . ... ...
ROW 71 : ... .. . ... ... ... : ... .. . ... ... ... : ... .. . ... : ... .. . ... : ... .. . ... ...
ROW 72 : ... .. . ... ... ... : ... .. . ... ... ... : ... .. . ... : ... .. . ... : ... .. . ... ...
ROW 73 : ... .. . ... ... ... : ... .. . ... ... ... : --- .. . ... : ... .. . ... : ... .. . ... ...
ROW 74 : ... .. . ... ... ... : ... .. . ... ... ... : ... .. . ... : ... .. . ... : ... .. . ... ...
ROW 75 : ... .. . ... ... ... : ... .. . ... ... ... : ... .. . ... : ... .. . ... : ... .. . ... ...
ROW 76 : ... .. 0 ... ... ... : ... .. 0 ... ... ... : ... .. . ... : ... .. . ... : ... .. . ... ...
ROW 77 : ... .. . ... ... ... : ... .. . ... ... ... : ... .. . ... : ... .. . ... : ... .. . ... ...
ROW 78 : ... .. . ... ... ... : ... .. . ... ... ... : ... .. . ... : ... .. . ... : ... .. . ... ...
ROW 79 : ... .. . ... ... ... : ... .. . ... ... ... : --- .. . ... : ... .. . ... : ... .. . ... ...
ROW 7A : ... .. . ... ... ... : ... .. . ... ... ... : ... .. . ... : ... .. . ... : ... .. . ... ...
ROW 7B : ... .. . ... ... ... : ... .. . ... ... ... : ... .. . ... : ... .. . ... : ... .. . ... ...
ROW 7C : ... .. . ... ... ... : ... .. . ... ... ... : ... .. . ... : ... .. E ... : ... .. . ... ...
ROW 7D : ... .. . ... ... ... : ... .. . ... ... ... : ... .. . ... : ... .. 0 ... : ... .. . ... ...
ROW 7E : ... .. . ... ... ... : ... .. . ... ... ... : ... .. . ... : ... .. . ... : ... .. . ... ...
ROW 7F : ... .. . ... ... ... : ... .. . ... ... ... : ... .. . ... : ... .. . ... : ... .. . ... ...
ROW 80 : ... .. . ... ... ... : ... .. . ... ... ... : ... .. . ... : ... .. . ... : ... .. . ... ...
ROW 81 : ... .. . ... ... ... : ... .. . ... ... ... : ... .. . ... : ... .. . ... : ... .. . ... ...
ROW 82 : ... .. . ... ... ... : ... .. . ... ... ... : ... .. . ... : ... .. E ... : ... .. . ... ...
ROW 83 : ... .. . ... ... ... : ... .. . ... ... ... : ... .. . ... : ... .. 0 ... : ... .. . ... ...
ROW 84 : ... .. . ... ... ... : ... .. . ... ... ... : ... .. . ... : ... .. . ... : ... .. . ... ...
ROW 85 : ... .. . ... ... ... : ... .. . ... ... ... : ... .. . ... : ... .. . ... : ... .. . ... ...
ROW 86 : ... .. . ... ... ... : ... .. . ... ... ... : ... .. . ... : ... .. . ... : ... .. . ... ...
ROW 87 : ... .. . ... ... ... : ... .. . ... ... ... : ... .. . ... : ... .. . ... : ... .. . ... ...
ROW 88 : ... .. . ... ... ... : ... .. . ... ... ... : ... .. . ... : F-# 00 0 ... : ... .. . ... ...
ROW 89 : ... .. . ... ... ... : ... .. . ... ... ... : ... .. . ... : ... .. . ... : ... .. . ... ...
ROW 8A : ... .. . ... ... ... : ... .. . ... ... ... : ... .. . ... : ... .. . ... : ... .. . ... ...
ROW 8B : ... .. . ... ... ... : ... .. . ... ... ... : ... .. . ... : ... .. . ... : ... .. . ... ...
ROW 8C : ... .. . ... ... ... : ... .. . ... ... ... : ... .. . ... : ... .. . ... : ... .. . ... ...
ROW 8D : ... .. . ... ... ... : ... .. . ... ... ... : ... .. . ... : ... .. . ... : ... .. . ... ...
ROW 8E : ... .. . ... ... ... : ... .. . ... ... ... : ... .. . ... : C-# 00 E ... : ... .. . ... ...
ROW 8F : ... .. . ... ... ... : ... .. . ... ... ... : ... .. . ... : ... .. 0 ... : ... .. . ... ...
ROW 90 : ... .. . ... ... ... : ... .. . ... ... ... : ... .. . ... : ... .. . ... : ... .. . ... ...
ROW 91 : ... .. . ... ... ... : ... .. . ... ... ... : --- .. . ... : ... .. . ... : ... .. . ... ...
ROW 92 : ... .. . ... ... ... : ... .. . ... ... ... : ... .. . ... : ... .. . ... : ... .. . ... ...
ROW 93 : ... .. . ... ... ... : ... .. . ... ... ... : ... .. . ... : ... .. . ... : ... .. . ... ...
ROW 94 : G-3 00 B P80 ... ... : D#4 00 B P81 ... ... : ... .. . ... : ... .. . ... : ... .. . ... ...
ROW 95 : ... .. A ... ... ... : ... .. A ... ... ... : ... .. . ... : ... .. . ... : ... .. . ... ...
ROW 96 : ... .. 9 ... ... ... : ... .. 9 ... ... ... : ... .. . ... : ... .. . ... : ... .. . ... ...
ROW 97 : ... .. 8 ... ... ... : ... .. 8 ... ... ... : ... .. . ... : ... .. . ... : ... .. . ... ...
ROW 98 : ... .. 7 ... ... ... : ... .. 7 ... ... ... : ... .. . ... : ... .. . ... : ... .. . ... ...
ROW 99 : ... .. 6 ... ... ... : ... .. 6 ... ... ... : ... .. . ... : ... .. . ... : ... .. . ... ...
ROW 9A : ... .. 5 ... ... ... : ... .. 5 ... ... ... : C#3 00 . ... : C-# 00 E ... : ... .. . ... ...
ROW 9B : ... .. 4 ... ... ... : ... .. 4 ... ... ... : ... .. . ... : ... .. 0 ... : ... .. . ... ...
ROW 9C : ... .. 3 ... ... ... : ... .. 3 ... ... ... : ... .. . ... : ... .. . ... : ... .. . ... ...
ROW 9D : ... .. 2 ... ... ... : ... .. 2 ... ... ... : ... .. . ... : ... .. . ... : ... .. . ... ...
ROW 9E : ... .. 1 ... ... ... : ... .. 1 ... ... ... : ... .. . ... : ... .. . ... : ... .. . ... ...
ROW 9F : ... .. . ... ... ... : ... .. . ... ... ... : ... .. . ... : ... .. . ... : ... .. . ... ...
ROW A0 : ... .. . ... ... ... : ... .. . ... ... ... : ... .. . ... : F-# 00 0 ... : ... .. . ... ...
ROW A1 : ... .. . ... ... ... : ... .. . ... ... ... : ... .. . ... : ... .. . ... : ... .. . ... ...
ROW A2 : ... .. . ... ... ... : ... .. . ... ... ... : ... .. . ... : ... .. . ... : ... .. . ... ...
ROW A3 : ... .. . ... ... ... : ... .. . ... ... ... : --- .. . ... : ... .. . ... : ... .. . ... ...
ROW A4 : ... .. . ... ... ... : ... .. . ... ... ... : ... .. . ... : ... .. . ... : ... .. . ... ...
ROW A5 : ... .. . ... ... ... : ... .. . ... ... ... : ... .. . ... : ... .. . ... : ... .. . ... ...
ROW A6 : ... .. . ... ... ... : ... .. . ... ... ... : ... .. . ... : C-# 00 E ... : ... .. . ... ...
ROW A7 : ... .. . ... ... ... : ... .. . ... ... ... : ... .. . ... : ... .. 0 ... : ... .. . ... ...
ROW A8 : ... .. . ... ... ... : ... .. . ... ... ... : ... .. . ... : ... .. . ... : ... .. . ... ...
ROW A9 : ... .. . ... ... ... : ... .. . ... ... ... : --- .. . ... : ... .. . ... : ... .. . ... ...
ROW AA : ... .. . ... ... ... : ... .. . ... ... ... : ... .. . ... : ... .. . ... : ... .. . ... ...
ROW AB : ... .. . ... ... ... : ... .. . ... ... ... : ... .. . ... : ... .. . ... : ... .. . ... ...
ROW AC : ... .. . ... ... ... : ... .. . ... ... ... : ... .. . ... : ... .. . ... : ... .. . ... ...
ROW AD : ... .. . ... ... ... : ... .. . ... ... ... : ... .. . ... : ... .. . ... : ... .. . ... ...
ROW AE : ... .. . ... ... ... : ... .. . ... ... ... : ... .. . ... : ... .. . ... : ... .. . ... ...
ROW AF : ... .. . ... ... ... : ... .. . ... ... ... : ... .. . ... : ... .. . ... : ... .. . ... ...
ROW B0 : ... .. . ... ... ... : ... .. . ... ... ... : ... .. . ... : ... .. . ... : ... .. . ... ...
ROW B1 : ... .. . ... ... ... : ... .. . ... ... ... : ... .. . ... : ... .. . ... : ... .. . ... ...
ROW B2 : D#4 00 B P81 ... ... : G#4 00 B P80 ... ... : G-3 00 . ... : C-# 00 E ... : ... .. . ... ...
ROW B3 : ... .. A ... ... ... : ... .. A ... ... ... : ... .. . ... : ... .. 0 ... : ... .. . ... ...
ROW B4 : ... .. 9 ... ... ... : ... .. 9 ... ... ... : ... .. . ... : ... .. . ... : ... .. . ... ...
ROW B5 : ... .. 8 ... ... ... : ... .. 8 ... ... ... : ... .. . ... : ... .. . ... : ... .. . ... ...
ROW B6 : ... .. 7 ... ... ... : ... .. 7 ... ... ... : ... .. . ... : ... .. . ... : ... .. . ... ...
ROW B7 : ... .. 6 ... ... ... : ... .. 6 ... ... ... : ... .. . ... : ... .. . ... : ... .. . ... ...
ROW B8 : ... .. 1 ... ... ... : ... .. 1 ... ... ... : ... .. . ... : F-# 00 0 ... : ... .. . ... ...
ROW B9 : ... .. . ... ... ... : ... .. . ... ... ... : ... .. . ... : ... .. . ... : ... .. . ... ...
ROW BA : ... .. . ... ... ... : ... .. . ... ... ... : ... .. . ... : ... .. . ... : ... .. . ... ...
ROW BB : ... .. . ... ... ... : ... .. . ... ... ... : --- .. . ... : ... .. . ... : ... .. . ... ...
ROW BC : ... .. . ... ... ... : ... .. . ... ... ... : ... .. . ... : ... .. . ... : ... .. . ... ...
ROW BD : ... .. . ... ... ... : ... .. . ... ... ... : ... .. . ... : ... .. . ... : ... .. . ... ...
ROW BE : G-4 00 B P81 ... ... : C-5 00 B P81 ... ... : ... .. . ... : C-# 00 E ... : ... .. . ... ...
ROW BF : ... .. A ... ... ... : ... .. A ... ... ... : ... .. . ... : ... .. 0 ... : ... .. . ... ...
ROW C0 : ... .. . ... ... ... : ... .. . ... ... ... : ... .. . ... : ... .. . ... : ... .. . ... ...
ROW C1 : ... .. . ... ... ... : ... .. . ... ... ... : --- .. . ... : ... .. . ... : ... .. . ... ...
ROW C2 : ... .. . ... ... ... : ... .. . ... ... ... : ... .. . ... : ... .. . ... : ... .. . ... ...
ROW C3 : ... .. . ... ... ... : ... .. . ... ... ... : ... .. . ... : ... .. . ... : ... .. . ... ...
ROW C4 : ... .. . ... ... ... : ... .. . ... ... ... : ... .. . ... : ... .. . ... : ... .. . ... ...
ROW C5 : ... .. . ... ... ... : ... .. . ... ... ... : ... .. . ... : ... .. . ... : ... .. . ... ...
ROW C6 : ... .. . ... ... ... : ... .. . ... ... ... : ... .. . ... : ... .. . ... : ... .. . ... ...
ROW C7 : ... .. . ... ... ... : ... .. . ... ... ... : ... .. . ... : ... .. . ... : ... .. . ... ...
ROW C8 : ... .. . ... ... ... : ... .. . ... ... ... : ... .. . ... : ... .. . ... : ... .. . ... ...
ROW C9 : ... .. . ... ... ... : ... .. . ... ... ... : ... .. . ... : ... .. . ... : ... .. . ... ...
ROW CA : ... .. . ... ... ... : ... .. . ... ... ... : G-3 00 . ... : C-# 00 E ... : ... .. . ... ...
ROW CB : ... .. . ... ... ... : ... .. . ... ... ... : ... .. . ... : ... .. 0 ... : ... .. . ... ...
ROW CC : ... .. . ... ... ... : ... .. . ... ... ... : ... .. . ... : ... .. . ... : ... .. . ... ...
ROW CD : ... .. . ... ... ... : ... .. . ... ... ... : ... .. . ... : ... .. . ... : ... .. . ... ...
ROW CE : ... .. . ... ... ... : ... .. . ... ... ... : ... .. . ... : ... .. . ... : ... .. . ... ...
ROW CF : ... .. . ... ... ... : ... .. . ... ... ... : ... .. . ... : ... .. . ... : ... .. . ... ...
ROW D0 : ... .. . ... ... ... : ... .. . ... ... ... : ... .. . ... : F-# 00 0 ... : ... .. . ... ...
ROW D1 : ... .. . ... ... ... : ... .. . ... ... ... : ... .. . ... : ... .. . ... : ... .. . ... ...
ROW D2 : ... .. . ... ... ... : ... .. . ... ... ... : ... .. . ... : ... .. . ... : ... .. . ... ...
ROW D3 : ... .. . ... ... ... : ... .. . ... ... ... : --- .. . ... : ... .. . ... : ... .. . ... ...
ROW D4 : ... .. . ... ... ... : ... .. . ... ... ... : ... .. . ... : ... .. . ... : ... .. . ... ...
ROW D5 : ... .. . ... ... ... : ... .. . ... ... ... : ... .. . ... : ... .. . ... : ... .. . ... ...
ROW D6 : ... .. . ... ... ... : ... .. . ... ... ... : ... .. . ... : C-# 00 E ... : ... .. . ... ...
ROW D7 : ... .. . ... ... ... : ... .. . ... ... ... : ... .. . ... : ... .. 0 ... : ... .. . ... ...
ROW D8 : ... .. . ... ... ... : ... .. . ... ... ... : ... .. . ... : ... .. . ... : ... .. . ... ...
ROW D9 : ... .. . ... ... ... : ... .. . ... ... ... : --- .. . ... : ... .. . ... : ... .. . ... ...
ROW DA : ... .. . ... ... ... : ... .. . ... ... ... : ... .. . ... : ... .. . ... : ... .. . ... ...
ROW DB : ... .. . ... ... ... : ... .. . ... ... ... : ... .. . ... : ... .. . ... : ... .. . ... ...
ROW DC : C-4 00 B P81 ... ... : G-4 00 B P81 ... ... : ... .. . ... : ... .. . ... : ... .. . ... ...
ROW DD : ... .. A ... ... ... : ... .. A ... ... ... : ... .. . ... : ... .. . ... : ... .. . ... ...
ROW DE : ... .. 9 ... ... ... : ... .. 9 ... ... ... : ... .. . ... : ... .. . ... : ... .. . ... ...
ROW DF : ... .. 8 ... ... ... : ... .. 8 ... ... ... : ... .. . ... : ... .. . ... : ... .. . ... ...
ROW E0 : ... .. 7 ... ... ... : ... .. 7 ... ... ... : ... .. . ... : ... .. . ... : ... .. . ... ...
ROW E1 : ... .. 6 ... ... ... : ... .. 6 ... ... ... : ... .. . ... : ... .. . ... : ... .. . ... ...
ROW E2 : G#3 00 B P80 ... ... : D#4 00 B P81 ... ... : C-3 00 . ... : C-# 00 E ... : ... .. . ... ...
ROW E3 : ... .. A ... ... ... : ... .. A ... ... ... : ... .. . ... : ... .. 0 ... : ... .. . ... ...
ROW E4 : ... .. 9 ... ... ... : ... .. 9 ... ... ... : ... .. . ... : ... .. . ... : ... .. . ... ...
ROW E5 : ... .. 8 ... ... ... : ... .. 8 ... ... ... : ... .. . ... : ... .. . ... : ... .. . ... ...
ROW E6 : ... .. 7 ... ... ... : ... .. 7 ... ... ... : ... .. . ... : ... .. . ... : ... .. . ... ...
ROW E7 : ... .. 6 ... ... ... : ... .. 6 ... ... ... : ... .. . ... : ... .. . ... : ... .. . ... ...
ROW E8 : ... .. 1 ... ... ... : ... .. 1 ... ... ... : ... .. . ... : F-# 00 0 ... : ... .. . ... ...
ROW E9 : ... .. . ... ... ... : ... .. . ... ... ... : ... .. . ... : ... .. . ... : ... .. . ... ...
ROW EA : ... .. . ... ... ... : ... .. . ... ... ... : ... .. . ... : ... .. . ... : ... .. . ... ...
ROW EB : ... .. . ... ... ... : ... .. . ... ... ... : --- .. . ... : ... .. . ... : ... .. . ... ...
ROW EC : ... .. . ... ... ... : ... .. . ... ... ... : ... .. . ... : ... .. . ... : ... .. . ... ...
ROW ED : ... .. . ... ... ... : ... .. . ... ... ... : ... .. . ... : ... .. . ... : ... .. . ... ...
ROW EE : G-3 00 B P80 ... ... : C-4 00 B P81 ... ... : ... .. . ... : C-# 00 E ... : ... .. . ... ...
ROW EF : ... .. A ... ... ... : ... .. A ... ... ... : ... .. . ... : ... .. 0 ... : ... .. . ... ...
ROW F0 : ... .. . ... ... ... : ... .. . ... ... ... : ... .. . ... : ... .. . ... : ... .. . ... ...
ROW F1 : ... .. . ... ... ... : ... .. . ... ... ... : --- .. . ... : ... .. . ... : ... .. . ... ...
ROW F2 : ... .. . ... ... ... : ... .. . ... ... ... : ... .. . ... : ... .. . ... : ... .. . ... ...
ROW F3 : ... .. . ... ... ... : ... .. . ... ... ... : ... .. . ... : ... .. . ... : ... .. . ... ...
ROW F4 : G-3 00 B P80 ... ... : D#4 00 B P81 ... ... : ... .. . ... : ... .. . ... : ... .. . ... ...
ROW F5 : ... .. A ... ... ... : ... .. A ... ... ... : ... .. . ... : ... .. . ... : ... .. . ... ...
ROW F6 : ... .. 9 ... ... ... : ... .. 9 ... ... ... : ... .. . ... : ... .. . ... : ... .. . ... ...
ROW F7 : ... .. 8 ... ... ... : ... .. 8 ... ... ... : ... .. . ... : ... .. . ... : ... .. . ... ...
ROW F8 : ... .. 7 ... ... ... : ... .. 7 ... ... ... : ... .. . ... : ... .. . ... : ... .. . ... ...
ROW F9 : ... .. 6 ... ... ... : ... .. 6 ... ... ... : ... .. . ... : ... .. . ... : ... .. . ... ...
ROW FA : F#3 00 B P80 ... ... : C#4 00 B P80 ... ... : D#3 00 . ... : C-# 00 E ... : ... .. . ... ...
ROW FB : ... .. A ... ... ... : ... .. A ... ... ... : ... .. . ... : ... .. 0 ... : ... .. . ... ...
ROW FC : ... .. 9 ... ... ... : ... .. 9 ... ... ... : ... .. . ... : ... .. . ... : ... .. . ... ...
ROW FD : ... .. 8 ... ... ... : ... .. 8 ... ... ... : ... .. . ... : ... .. . ... : ... .. . ... ...
ROW FE : ... .. 7 ... ... ... : ... .. 7 ... ... ... : ... .. . ... : ... .. . ... : ... .. . ... ...
ROW FF : ... .. 6 ... ... ... : ... .. 6 ... ... ... : ... .. . ... : ... .. . ... : ... .. . ... ...

PATTERN 25
ROW 00 : ... .. 1 ... ... ... : ... .. 1 ... ... ... : ... .. . ... : F-# 00 0 ... : ... .. . ... ...
ROW 01 : ... .. . ... ... ... : ... .. . ... ... ... : ... .. . ... : ... .. . ... : ... .. . ... ...
ROW 02 : ... .. . ... ... ... : ... .. . ... ... ... : ... .. . ... : ... .. . ... : ... .. . ... ...
ROW 03 : ... .. . ... ... ... : ... .. . ... ... ... : --- .. . ... : ... .. . ... : ... .. . ... ...
ROW 04 : ... .. . ... ... ... : ... .. . ... ... ... : ... .. . ... : ... .. . ... : ... .. . ... ...
ROW 05 : ... .. . ... ... ... : ... .. . ... ... ... : ... .. . ... : ... .. . ... : ... .. . ... ...
ROW 06 : G-3 00 B P80 ... ... : D#4 00 B P81 ... ... : ... .. . ... : C-# 00 E ... : ... .. . ... ...
ROW 07 : ... .. A ... ... ... : ... .. A ... ... ... : ... .. . ... : ... .. 0 ... : ... .. . ... ...
ROW 08 : ... .. . ... ... ... : ... .. . ... ... ... : ... .. . ... : ... .. . ... : ... .. . ... ...
ROW 09 : ... .. . ... ... ... : ... .. . ... ... ... : --- .. . ... : ... .. . ... : ... .. . ... ...
ROW 0A : ... .. . ... ... ... : ... .. . ... ... ... : ... .. . ... : ... .. . ... : ... .. . ... ...
ROW 0B : ... .. . ... ... ... : ... .. . ... ... ... : ... .. . ... : ... .. . ... : ... .. . ... ...
ROW 0C : C#3 00 B P80 ... ... : G#3 00 B P80 ... ... : ... .. . ... : ... .. . ... : ... .. . ... ...
ROW 0D : ... .. A ... ... ... : ... .. A ... ... ... : ... .. . ... : ... .. . ... : ... .. . ... ...
ROW 0E : ... .. 9 ... ... ... : ... .. 9 ... ... ... : ... .. . ... : ... .. . ... : ... .. . ... ...
ROW 0F : ... .. 8 ... ... ... : ... .. 8 ... ... ... : ... .. . ... : ... .. . ... : ... .. . ... ...
ROW 10 : ... .. 7 ... ... ... : ... .. 7 ... ... ... : ... .. . ... : ... .. . ... : ... .. . ... ...
ROW 11 : ... .. 6 ... ... ... : ... .. 6 ... ... ... : ... .. . ... : ... .. . ... : ... .. . ... ...
ROW 12 : ... .. 1 ... ... ... : ... .. 1 ... ... ... : G#2 00 . P7F : C-# 00 E ... : ... .. . ... ...
ROW 13 : ... .. . ... ... ... : ... .. . ... ... ... : ... .. . ... : ... .. 0 ... : ... .. . ... ...
ROW 14 : ... .. . ... ... ... : ... .. . ... ... ... : ... .. . ... : ... .. . ... : ... .. . ... ...
ROW 15 : ... .. . ... ... ... : ... .. . ... ... ... : ... .. . ... : ... .. . ... : ... .. . ... ...
ROW 16 : ... .. . ... ... ... : ... .. . ... ... ... : ... .. . ... : ... .. . ... : ... .. . ... ...
ROW 17 : ... .. . ... ... ... : ... .. . ... ... ... : ... .. . ... : ... .. . ... : ... .. . ... ...
ROW 18 : ... .. . ... ... ... : ... .. . ... ... ... : ... .. . ... : F-# 00 0 ... : ... .. . ... ...
ROW 19 : ... .. . ... ... ... : ... .. . ... ... ... : ... .. . ... : ... .. . ... : ... .. . ... ...
ROW 1A : ... .. . ... ... ... : ... .. . ... ... ... : ... .. . ... : ... .. . ... : ... .. . ... ...
ROW 1B : ... .. . ... ... ... : ... .. . ... ... ... : --- .. . ... : ... .. . ... : ... .. . ... ...
ROW 1C : ... .. . ... ... ... : ... .. . ... ... ... : ... .. . ... : ... .. . ... : ... .. . ... ...
ROW 1D : ... .. . ... ... ... : ... .. . ... ... ... : ... .. . ... : ... .. . ... : ... .. . ... ...
ROW 1E : F#3 00 B P80 ... ... : C#4 00 B P80 ... ... : ... .. . ... : C-# 00 E ... : ... .. . ... ...
ROW 1F : ... .. A ... ... ... : ... .. A ... ... ... : ... .. . ... : ... .. 0 ... : ... .. . ... ...
ROW 20 : ... .. . ... ... ... : ... .. . ... ... ... : ... .. . ... : ... .. . ... : ... .. . ... ...
ROW 21 : ... .. . ... ... ... : ... .. . ... ... ... : ... .. . ... : ... .. . ... : ... .. . ... ...
ROW 22 : ... .. . ... ... ... : ... .. . ... ... ... : ... .. . ... : ... .. . ... : ... .. . ... ...
ROW 23 : ... .. . ... ... ... : ... .. . ... ... ... : ... .. . ... : ... .. . ... : ... .. . ... ...
ROW 24 : C#3 00 B P80 ... ... : G#3 00 B P80 ... ... : D#3 00 . ... : ... .. . ... : ... .. . ... ...
ROW 25 : ... .. A ... ... ... : ... .. A ... ... ... : ... .. . ... : ... .. . ... : ... .. . ... ...
ROW 26 : ... .. 9 ... ... ... : ... .. 9 ... ... ... : ... .. . ... : ... .. . ... : ... .. . ... ...
ROW 27 : ... .. 8 ... ... ... : ... .. 8 ... ... ... : ... .. . ... : ... .. . ... : ... .. . ... ...
ROW 28 : F#3 00 B P80 ... ... : C#4 00 B P80 ... ... : ... .. . ... : ... .. . ... : ... .. . ... ...
ROW 29 : ... .. A ... ... ... : ... .. A ... ... ... : ... .. . ... : ... .. . ... : ... .. . ... ...
ROW 2A : ... .. 9 ... ... ... : ... .. 9 ... ... ... : C-3 00 . ... : C-# 00 E ... : ... .. . ... ...
ROW 2B : ... .. 8 ... ... ... : ... .. 8 ... ... ... : ... .. . ... : ... .. 0 ... : ... .. . ... ...
ROW 2C : C#3 00 B P80 ... ... : G#3 00 B P80 ... ... : ... .. . ... : ... .. . ... : ... .. . ... ...
ROW 2D : ... .. A ... ... ... : ... .. A ... ... ... : ... .. . ... : ... .. . ... : ... .. . ... ...
ROW 2E : ... .. 9 ... ... ... : ... .. 9 ... ... ... : ... .. . ... : ... .. . ... : ... .. . ... ...
ROW 2F : ... .. 8 ... ... ... : ... .. 8 ... ... ... : ... .. . ... : ... .. . ... : ... .. . ... ...
ROW 30 : C#3 00 B P80 ... ... : C#4 00 B P80 ... ... : ... .. . ... : F-# 00 0 ... : ... .. . ... ...
ROW 31 : ... .. A ... ... ... : ... .. A ... ... ... : ... .. . ... : ... .. . ... : ... .. . ... ...
ROW 32 : ... .. 9 ... ... ... : ... .. 9 ... ... ... : ... .. . ... : ... .. . ... : ... .. . ... ...
ROW 33 : ... .. 8 ... ... ... : ... .. 8 ... ... ... : --- .. . ... : ... .. . ... : ... .. . ... ...
ROW 34 : F#3 00 B P80 ... ... : G#3 00 B P80 ... ... : ... .. . ... : ... .. . ... : ... .. . ... ...
ROW 35 : ... .. A ... ... ... : ... .. A ... ... ... : ... .. . ... : ... .. . ... : ... .. . ... ...
ROW 36 : ... .. 9 ... ... ... : ... .. 9 ... ... ... : ... .. . ... : C-# 00 E ... : ... .. . ... ...
ROW 37 : ... .. 8 ... ... ... : ... .. 8 ... ... ... : ... .. . ... : ... .. 0 ... : ... .. . ... ...
ROW 38 : F#3 00 B P80 ... ... : G#3 00 B P80 ... ... : ... .. . ... : ... .. . ... : ... .. . ... ...
ROW 39 : ... .. A ... ... ... : ... .. A ... ... ... : --- .. . ... : ... .. . ... : ... .. . ... ...
ROW 3A : ... .. 9 ... ... ... : ... .. 9 ... ... ... : ... .. . ... : ... .. . ... : ... .. . ... ...
ROW 3B : ... .. 8 ... ... ... : ... .. 8 ... ... ... : ... .. . ... : ... .. . ... : ... .. . ... ...
ROW 3C : C#3 00 B P80 ... ... : C#4 00 B P80 ... ... : ... .. . ... : ... .. . ... : ... .. . ... ...
ROW 3D : ... .. A ... ... ... : ... .. A ... ... ... : ... .. . ... : ... .. . ... : ... .. . ... ...
ROW 3E : ... .. 9 ... ... ... : ... .. 9 ... ... ... : ... .. . ... : ... .. . ... : ... .. . ... ...
ROW 3F : ... .. 8 ... ... ... : ... .. 8 ... ... ... : ... .. . ... : ... .. . ... : ... .. . ... ...
ROW 40 : F#3 00 B P80 ... ... : G#3 00 B P80 ... ... : ... .. . ... : ... .. . ... : ... .. . ... ...
ROW 41 : ... .. A ... ... ... : ... .. A ... ... ... : ... .. . ... : ... .. . ... : ... .. . ... ...
ROW 42 : ... .. 9 ... ... ... : ... .. 9 ... ... ... : G#2 00 . P7F : C-# 00 E ... : ... .. . ... ...
ROW 43 : ... .. 8 ... ... ... : ... .. 8 ... ... ... : ... .. . ... : ... .. 0 ... : ... .. . ... ...
ROW 44 : C#3 00 B P80 ... ... : C#4 00 B P80 ... ... : ... .. . ... : ... .. . ... : ... .. . ... ...
ROW 45 : ... .. A ... ... ... : ... .. A ... ... ... : ... .. . ... : ... .. . ... : ... .. . ... ...
ROW 46 : ... .. 9 ... ... ... : ... .. 9 ... ... ... : ... .. . ... : ... .. . ... : ... .. . ... ...
ROW 47 : ... .. 8 ... ... ... : ... .. 8 ... ... ... : ... .. . ... : ... .. . ... : ... .. . ... ...
ROW 48 : ... .. 1 ... ... ... : ... .. 1 ... ... ... : ... .. . ... : F-# 00 0 ... : ... .. . ... ...
ROW 49 : ... .. . ... ... ... : ... .. . ... ... ... : ... .. . ... : ... .. . ... : ... .. . ... ...
ROW 4A : ... .. . ... ... ... : ... .. . ... ... ... : ... .. . ... : ... .. . ... : ... .. . ... ...
ROW 4B : ... .. . ... ... ... : ... .. . ... ... ... : --- .. . ... : ... .. . ... : ... .. . ... ...
ROW 4C : ... .. . ... ... ... : ... .. . ... ... ... : ... .. . ... : ... .. . ... : ... .. . ... ...
ROW 4D : ... .. . ... ... ... : ... .. . ... ... ... : ... .. . ... : ... .. . ... : ... .. . ... ...
ROW 4E : F-3 00 B P80 ... ... : C#4 00 B P80 ... ... : ... .. . ... : C-# 00 E ... : ... .. . ... ...
ROW 4F : ... .. A ... ... ... : ... .. A ... ... ... : ... .. . ... : ... .. 0 ... : ... .. . ... ...
ROW 50 : ... .. . ... ... ... : ... .. . ... ... ... : ... .. . ... : ... .. . ... : ... .. . ... ...
ROW 51 : ... .. . ... ... ... : ... .. . ... ... ... : --- .. . ... : ... .. . ... : ... .. . ... ...
ROW 52 : ... .. . ... ... ... : ... .. . ... ... ... : ... .. . ... : ... .. . ... : ... .. . ... ...
ROW 53 : ... .. . ... ... ... : ... .. . ... ... ... : ... .. . ... : ... .. . ... : ... .. . ... ...
ROW 54 : G-3 00 B P80 ... ... : D#4 00 B P81 ... ... : ... .. . ... : ... .. . ... : ... .. . ... ...
ROW 55 : ... .. A ... ... ... : ... .. A ... ... ... : ... .. . ... : ... .. . ... : ... .. . ... ...
ROW 56 : ... .. 9 ... ... ... : ... .. 9 ... ... ... : ... .. . ... : ... .. . ... : ... .. . ... ...
ROW 57 : ... .. 8 ... ... ... : ... .. 8 ... ... ... : ... .. . ... : ... .. . ... : ... .. . ... ...
ROW 58 : ... .. 7 ... ... ... : ... .. 7 ... ... ... : ... .. . ... : ... .. . ... : ... .. . ... ...
ROW 59 : ... .. 6 ... ... ... : ... .. 6 ... ... ... : ... .. . ... : ... .. . ... : ... .. . ... ...
ROW 5A : F-3 00 B P80 ... ... : C#4 00 B P80 ... ... : G-3 00 . ... : C-# 00 E ... : ... .. . ... ...
ROW 5B : ... .. A ... ... ... : ... .. A ... ... ... : ... .. . ... : ... .. 0 ... : ... .. . ... ...
ROW 5C : ... .. 9 ... ... ... : ... .. 9 ... ... ... : ... .. . ... : ... .. . ... : ... .. . ... ...
ROW 5D : ... .. 8 ... ... ... : ... .. 8 ... ... ... : ... .. . ... : ... .. . ... : ... .. . ... ...
ROW 5E : ... .. 7 ... ... ... : ... .. 7 ... ... ... : ... .. . ... : ... .. . ... : ... .. . ... ...
ROW 5F : ... .. 6 ... ... ... : ... .. 6 ... ... ... : ... .. . ... : ... .. . ... : ... .. . ... ...
ROW 60 : ... .. 1 ... ... ... : ... .. 1 ... ... ... : ... .. . ... : F-# 00 0 ... : ... .. . ... ...
ROW 61 : ... .. . ... ... ... : ... .. . ... ... ... : ... .. . ... : ... .. . ... : ... .. . ... ...
ROW 62 : ... .. . ... ... ... : ... .. . ... ... ... : ... .. . ... : ... .. . ... : ... .. . ... ...
ROW 63 : ... .. . ... ... ... : ... .. . ... ... ... : --- .. . ... : ... .. . ... : ... .. . ... ...
ROW 64 : ... .. . ... ... ... : ... .. . ... ... ... : ... .. . ... : ... .. . ... : ... .. . ... ...
ROW 65 : ... .. . ... ... ... : ... .. . ... ... ... : ... .. . ... : ... .. . ... : ... .. . ... ...
ROW 66 : G-3 00 B P80 ... ... : D#4 00 B P81 ... ... : ... .. . ... : C-# 00 E ... : ... .. . ... ...
ROW 67 : ... .. A ... ... ... : ... .. A ... ... ... : ... .. . ... : ... .. 0 ... : ... .. . ... ...
ROW 68 : ... .. . ... ... ... : ... .. . ... ... ... : ... .. . ... : ... .. . ... : ... .. . ... ...
ROW 69 : ... .. . ... ... ... : ... .. . ... ... ... : --- .. . ... : ... .. . ... : ... .. . ... ...
ROW 6A : ... .. . ... ... ... : ... .. . ... ... ... : ... .. . ... : ... .. . ... : ... .. . ... ...
ROW 6B : ... .. . ... ... ... : ... .. . ... ... ... : ... .. . ... : ... .. . ... : ... .. . ... ...
ROW 6C : G-3 00 B P80 ... ... : D#4 00 B P81 ... ... : ... .. . ... : ... .. . ... : ... .. . ... ...
ROW 6D : ... .. A ... ... ... : ... .. A ... ... ... : ... .. . ... : ... .. . ... : ... .. . ... ...
ROW 6E : ... .. 9 ... ... ... : ... .. 9 ... ... ... : ... .. . ... : ... .. . ... : ... .. . ... ...
ROW 6F : ... .. 8 ... ... ... : ... .. 8 ... ... ... : ... .. . ... : ... .. . ... : ... .. . ... ...
ROW 70 : ... .. 7 ... ... ... : ... .. 7 ... ... ... : ... .. . ... : ... .. . ... : ... .. . ... ...
ROW 71 : ... .. 6 ... ... ... : ... .. 6 ... ... ... : ... .. . ... : ... .. . ... : ... .. . ... ...
ROW 72 : ... .. 1 ... ... ... : ... .. 1 ... ... ... : C#3 00 . ... : C-# 00 E ... : ... .. . ... ...
ROW 73 : ... .. . ... ... ... : ... .. . ... ... ... : ... .. . ... : ... .. 0 ... : ... .. . ... ...
ROW 74 : ... .. . ... ... ... : ... .. . ... ... ... : ... .. . ... : ... .. . ... : ... .. . ... ...
ROW 75 : ... .. . ... ... ... : ... .. . ... ... ... : ... .. . ... : ... .. . ... : ... .. . ... ...
ROW 76 : ... .. . ... ... ... : ... .. . ... ... ... : ... .. . ... : ... .. . ... : ... .. . ... ...
ROW 77 : ... .. . ... ... ... : ... .. . ... ... ... : ... .. . ... : ... .. . ... : ... .. . ... ...
ROW 78 : ... .. . ... ... ... : ... .. . ... ... ... : ... .. . ... : F-# 00 0 ... : ... .. . ... ...
ROW 79 : ... .. . ... ... ... : ... .. . ... ... ... : ... .. . ... : ... .. . ... : ... .. . ... ...
ROW 7A : ... .. . ... ... ... : ... .. . ... ... ... : ... .. . ... : ... .. . ... : ... .. . ... ...
ROW 7B : ... .. . ... ... ... : ... .. . ... ... ... : --- .. . ... : ... .. . ... : ... .. . ... ...
ROW 7C : ... .. . ... ... ... : ... .. . ... ... ... : ... .. . ... : ... .. . ... : ... .. . ... ...
ROW 7D : ... .. . ... ... ... : ... .. . ... ... ... : ... .. . ... : ... .. . ... : ... .. . ... ...
ROW 7E : C-4 00 B P81 ... ... : G#4 00 B P80 ... ... : ... .. . ... : C-# 00 E ... : ... .. . ... ...
ROW 7F : ... .. A ... ... ... : ... .. A ... ... ... : ... .. . ... : ... .. 0 ... : ... .. . ... ...
ROW 80 : ... .. . ... ... ... : ... .. . ... ... ... : ... .. . ... : ... .. . ... : ... .. . ... ...
ROW 81 : ... .. . ... ... ... : ... .. . ... ... ... : --- .. . ... : ... .. . ... : ... .. . ... ...
ROW 82 : ... .. . ... ... ... : ... .. . ... ... ... : ... .. . ... : ... .. . ... : ... .. . ... ...
ROW 83 : ... .. . ... ... ... : ... .. . ... ... ... : ... .. . ... : ... .. . ... : ... .. . ... ...
ROW 84 : B-3 00 B P80 ... ... : G-4 00 B P81 ... ... : ... .. . ... : ... .. . ... : ... .. . ... ...
ROW 85 : ... .. A ... ... ... : ... .. A ... ... ... : ... .. . ... : ... .. . ... : ... .. . ... ...
ROW 86 : ... .. 9 ... ... ... : ... .. 9 ... ... ... : ... .. . ... : ... .. . ... : ... .. . ... ...
ROW 87 : ... .. 8 ... ... ... : ... .. 8 ... ... ... : ... .. . ... : ... .. . ... : ... .. . ... ...
ROW 88 : ... .. 7 ... ... ... : ... .. 7 ... ... ... : ... .. . ... : ... .. . ... : ... .. . ... ...
ROW 89 : ... .. 6 ... ... ... : ... .. 6 ... ... ... : ... .. . ... : ... .. . ... : ... .. . ... ...
ROW 8A : C-4 00 B P81 ... ... : G#4 00 B P80 ... ... : G-2 00 . ... : C-# 00 E ... : ... .. . ... ...
ROW 8B : ... .. A ... ... ... : ... .. A ... ... ... : ... .. . ... : ... .. 0 ... : ... .. . ... ...
ROW 8C : ... .. 9 ... ... ... : ... .. 9 ... ... ... : ... .. . ... : ... .. . ... : ... .. . ... ...
ROW 8D : ... .. 8 ... ... ... : ... .. 8 ... ... ... : ... .. . ... : ... .. . ... : ... .. . ... ...
ROW 8E : ... .. 7 ... ... ... : ... .. 7 ... ... ... : ... .. . ... : ... .. . ... : ... .. . ... ...
ROW 8F : ... .. 6 ... ... ... : ... .. 6 ... ... ... : ... .. . ... : ... .. . ... : ... .. . ... ...
ROW 90 : ... .. 1 ... ... ... : ... .. 1 ... ... ... : ... .. . ... : F-# 00 0 ... : ... .. . ... ...
ROW 91 : ... .. . ... ... ... : ... .. . ... ... ... : ... .. . ... : ... .. . ... : ... .. . ... ...
ROW 92 : ... .. . ... ... ... : ... .. . ... ... ... : ... .. . ... : ... .. . ... : ... .. . ... ...
ROW 93 : ... .. . ... ... ... : ... .. . ... ... ... : --- .. . ... : ... .. . ... : ... .. . ... ...
ROW 94 : ... .. . ... ... ... : ... .. . ... ... ... : ... .. . ... : ... .. . ... : ... .. . ... ...
ROW 95 : ... .. . ... ... ... : ... .. . ... ... ... : ... .. . ... : ... .. . ... : ... .. . ... ...
ROW 96 : B-3 00 B P80 ... ... : G-4 00 B P81 ... ... : ... .. . ... : C-# 00 E ... : ... .. . ... ...
ROW 97 : ... .. A ... ... ... : ... .. A ... ... ... : ... .. . ... : ... .. 0 ... : ... .. . ... ...
ROW 98 : ... .. . ... ... ... : ... .. . ... ... ... : ... .. . ... : ... .. . ... : ... .. . ... ...
ROW 99 : ... .. . ... ... ... : ... .. . ... ... ... : --- .. . ... : ... .. . ... : ... .. . ... ...
ROW 9A : ... .. . ... ... ... : ... .. . ... ... ... : ... .. . ... : ... .. . ... : ... .. . ... ...
ROW 9B : ... .. . ... ... ... : ... .. . ... ... ... : ... .. . ... : ... .. . ... : ... .. . ... ...
ROW 9C : F-3 00 B P80 ... ... : C#4 00 B P80 ... ... : ... .. . ... : ... .. . ... : ... .. . ... ...
ROW 9D : ... .. A ... ... ... : ... .. A ... ... ... : ... .. . ... : ... .. . ... : ... .. . ... ...
ROW 9E : ... .. 9 ... ... ... : ... .. 9 ... ... ... : ... .. . ... : ... .. . ... : ... .. . ... ...
ROW 9F : ... .. 8 ... ... ... : ... .. 8 ... ... ... : ... .. . ... : ... .. . ... : ... .. . ... ...
ROW A0 : ... .. 7 ... ... ... : ... .. 7 ... ... ... : ... .. . ... : ... .. . ... : ... .. . ... ...
ROW A1 : ... .. 6 ... ... ... : ... .. 6 ... ... ... : ... .. . ... : ... .. . ... : ... .. . ... ...
ROW A2 : D#3 00 B P80 ... ... : C-4 00 B P81 ... ... : B-2 00 . P80 : C-# 00 E ... : ... .. . ... ...
ROW A3 : ... .. A ... ... ... : ... .. A ... ... ... : ... .. . ... : ... .. 0 ... : ... .. . ... ...
ROW A4 : ... .. 9 ... ... ... : ... .. 9 ... ... ... : ... .. . ... : ... .. . ... : ... .. . ... ...
ROW A5 : ... .. 8 ... ... ... : ... .. 8 ... ... ... : ... .. . ... : ... .. . ... : ... .. . ... ...
ROW A6 : ... .. 7 ... ... ... : ... .. 7 ... ... ... : ... .. . ... : ... .. . ... : ... .. . ... ...
ROW A7 : ... .. 6 ... ... ... : ... .. 6 ... ... ... : ... .. . ... : ... .. . ... : ... .. . ... ...
ROW A8 : ... .. 1 ... ... ... : ... .. 1 ... ... ... : ... .. . ... : F-# 00 0 ... : ... .. . ... ...
ROW A9 : ... .. . ... ... ... : ... .. . ... ... ... : ... .. . ... : ... .. . ... : ... .. . ... ...
ROW AA : ... .. . ... ... ... : ... .. . ... ... ... : ... .. . ... : ... .. . ... : ... .. . ... ...
ROW AB : ... .. . ... ... ... : ... .. . ... ... ... : --- .. . ... : ... .. . ... : ... .. . ... ...
ROW AC : ... .. . ... ... ... : ... .. . ... ... ... : ... .. . ... : ... .. . ... : ... .. . ... ...
ROW AD : ... .. . ... ... ... : ... .. . ... ... ... : ... .. . ... : ... .. . ... : ... .. . ... ...
ROW AE : C-4 00 B P81 ... ... : D#4 00 B P81 ... ... : ... .. . ... : C-# 00 E ... : ... .. . ... ...
ROW AF : ... .. A ... ... ... : ... .. A ... ... ... : ... .. . ... : ... .. 0 ... : ... .. . ... ...
ROW B0 : ... .. . ... ... ... : ... .. . ... ... ... : ... .. . ... : ... .. . ... : ... .. . ... ...
ROW B1 : ... .. . ... ... ... : ... .. . ... ... ... : --- .. . ... : ... .. . ... : ... .. . ... ...
ROW B2 : ... .. . ... ... ... : ... .. . ... ... ... : ... .. . ... : ... .. . ... : ... .. . ... ...
ROW B3 : ... .. . ... ... ... : ... .. . ... ... ... : ... .. . ... : ... .. . ... : ... .. . ... ...
ROW B4 : D#3 00 B P80 ... ... : G-3 00 B P80 ... ... : ... .. . ... : ... .. . ... : ... .. . ... ...
ROW B5 : ... .. A ... ... ... : ... .. A ... ... ... : ... .. . ... : ... .. . ... : ... .. . ... ...
ROW B6 : ... .. 9 ... ... ... : ... .. 9 ... ... ... : ... .. . ... : ... .. . ... : ... .. . ... ...
ROW B7 : ... .. 8 ... ... ... : ... .. 8 ... ... ... : ... .. . ... : ... .. . ... : ... .. . ... ...
ROW B8 : C-4 00 B P81 ... ... : D#4 00 B P81 ... ... : ... .. . ... : ... .. . ... : ... .. . ... ...
ROW B9 : ... .. A ... ... ... : ... .. A ... ... ... : ... .. . ... : ... .. . ... : ... .. . ... ...
ROW BA : ... .. 9 ... ... ... : ... .. 9 ... ... ... : C#3 00 . ... : C-# 00 E ... : ... .. . ... ...
ROW BB : ... .. 8 ... ... ... : ... .. 8 ... ... ... : ... .. . ... : ... .. 0 ... : ... .. . ... ...
ROW BC : D#3 00 B P80 ... ... : G-3 00 B P80 ... ... : ... .. . ... : ... .. . ... : ... .. . ... ...
ROW BD : ... .. A ... ... ... : ... .. A ... ... ... : ... .. . ... : ... .. . ... : ... .. . ... ...
ROW BE : ... .. 9 ... ... ... : ... .. 9 ... ... ... : ... .. . ... : ... .. . ... : ... .. . ... ...
ROW BF : ... .. 8 ... ... ... : ... .. 8 ... ... ... : ... .. . ... : ... .. . ... : ... .. . ... ...
ROW C0 : C-4 00 B P81 ... ... : D#4 00 B P81 ... ... : ... .. . ... : F-# 00 0 ... : ... .. . ... ...
ROW C1 : ... .. A ... ... ... : ... .. A ... ... ... : ... .. . ... : ... .. . ... : ... .. . ... ...
ROW C2 : ... .. 9 ... ... ... : ... .. 9 ... ... ... : ... .. . ... : ... .. . ... : ... .. . ... ...
ROW C3 : ... .. 8 ... ... ... : ... .. 8 ... ... ... : --- .. . ... : ... .. . ... : ... .. . ... ...
ROW C4 : D#3 00 B P80 ... ... : G-3 00 B P80 ... ... : ... .. . ... : ... .. . ... : ... .. . ... ...
ROW C5 : ... .. A ... ... ... : ... .. A ... ... ... : ... .. . ... : ... .. . ... : ... .. . ... ...
ROW C6 : ... .. 9 ... ... ... : ... .. 9 ... ... ... : ... .. . ... : C-# 00 E ... : ... .. . ... ...
ROW C7 : ... .. 8 ... ... ... : ... .. 8 ... ... ... : ... .. . ... : ... .. 0 ... : ... .. . ... ...
ROW C8 : D#3 00 B P80 ... ... : G-3 00 B P80 ... ... : ... .. . ... : ... .. . ... : ... .. . ... ...
ROW C9 : ... .. A ... ... ... : ... .. A ... ... ... : --- .. . ... : ... .. . ... : ... .. . ... ...
ROW CA : ... .. 9 ... ... ... : ... .. 9 ... ... ... : ... .. . ... : ... .. . ... : ... .. . ... ...
ROW CB : ... .. 8 ... ... ... : ... .. 8 ... ... ... : ... .. . ... : ... .. . ... : ... .. . ... ...
ROW CC : C-4 00 B P81 ... ... : D#4 00 B P81 ... ... : ... .. . ... : ... .. . ... : ... .. . ... ...
ROW CD : ... .. A ... ... ... : ... .. A ... ... ... : ... .. . ... : ... .. . ... : ... .. . ... ...
ROW CE : ... .. 9 ... ... ... : ... .. 9 ... ... ... : ... .. . ... : ... .. . ... : ... .. . ... ...
ROW CF : ... .. 8 ... ... ... : ... .. 8 ... ... ... : ... .. . ... : ... .. . ... : ... .. . ... ...
ROW D0 : D#3 00 B P80 ... ... : G-3 00 B P80 ... ... : ... .. . ... : ... .. . ... : ... .. . ... ...
ROW D1 : ... .. A ... ... ... : ... .. A ... ... ... : ... .. . ... : ... .. . ... : ... .. . ... ...
ROW D2 : ... .. 9 ... ... ... : ... .. 9 ... ... ... : D-3 00 . ... : C-# 00 E ... : ... .. . ... ...
ROW D3 : ... .. 8 ... ... ... : ... .. 8 ... ... ... : ... .. . ... : ... .. 0 ... : ... .. . ... ...
ROW D4 : C-4 00 B P81 ... ... : D#4 00 B P81 ... ... : ... .. . ... : ... .. . ... : ... .. . ... ...
ROW D5 : ... .. A ... ... ... : ... .. A ... ... ... : ... .. . ... : ... .. . ... : ... .. . ... ...
ROW D6 : ... .. 9 ... ... ... : ... .. 9 ... ... ... : ... .. . ... : ... .. . ... : ... .. . ... ...
ROW D7 : ... .. 8 ... ... ... : ... .. 8 ... ... ... : ... .. . ... : ... .. . ... : ... .. . ... ...
ROW D8 : ... .. 1 ... ... ... : ... .. 1 ... ... ... : ... .. . ... : F-# 00 0 ... : ... .. . ... ...
ROW D9 : ... .. . ... ... ... : ... .. . ... ... ... : ... .. . ... : ... .. . ... : ... .. . ... ...
ROW DA : ... .. . ... ... ... : ... .. . ... ... ... : ... .. . ... : ... .. . ... : ... .. . ... ...
ROW DB : ... .. . ... ... ... : ... .. . ... ... ... : --- .. . ... : ... .. . ... : ... .. . ... ...
ROW DC : ... .. . ... ... ... : ... .. . ... ... ... : ... .. . ... : ... .. . ... : ... .. . ... ...
ROW DD : ... .. . ... ... ... : ... .. . ... ... ... : ... .. . ... : ... .. . ... : ... .. . ... ...
ROW DE : ... .. . ... ... ... : ... .. . ... ... ... : ... .. . ... : C-# 00 E ... : ... .. . ... ...
ROW DF : ... .. . ... ... ... : ... .. . ... ... ... : ... .. . ... : ... .. 0 ... : ... .. . ... ...
ROW E0 : ... .. . ... ... ... : ... .. . ... ... ... : ... .. . ... : ... .. . ... : ... .. . ... ...
ROW E1 : ... .. . ... ... ... : ... .. . ... ... ... : ... .. . ... : ... .. . ... : ... .. . ... ...
ROW E2 : ... .. . ... ... ... : ... .. . ... ... ... : ... .. . ... : ... .. . ... : ... .. . ... ...
ROW E3 : ... .. . ... ... ... : ... .. . ... ... ... : ... .. . ... : ... .. . ... : ... .. . ... ...
ROW E4 : B-3 00 5 P80 ... ... : G-4 00 5 P81 ... ... : B-2 00 . ... : ... .. . ... : ... .. . ... ...
ROW E5 : ... .. . ... ... ... : ... .. . ... ... ... : ... .. . ... : ... .. . ... : ... .. . ... ...
ROW E6 : ... .. 6 ... ... ... : ... .. 6 ... ... ... : ... .. . ... : ... .. . ... : ... .. . ... ...
ROW E7 : ... .. 8 ... ... ... : ... .. 8 ... ... ... : ... .. . ... : ... .. . ... : ... .. . ... ...
ROW E8 : ... .. 9 ... ... ... : ... .. 9 ... ... ... : ... .. . ... : ... .. . ... : ... .. . ... ...
ROW E9 : ... .. A ... ... ... : ... .. A ... ... ... : ... .. . ... : ... .. . ... : ... .. . ... ...
ROW EA : ... .. 1 ... ... ... : ... .. 1 ... ... ... : G#2 00 . P7F : C-# 00 E ... : ... .. . ... ...
ROW EB : ... .. . ... ... ... : ... .. . ... ... ... : ... .. . ... : ... .. 0 ... : ... .. . ... ...
ROW EC : ... .. . ... ... ... : ... .. . ... ... ... : ... .. . ... : ... .. . ... : ... .. . ... ...
ROW ED : ... .. . ... ... ... : ... .. . ... ... ... : ... .. . ... : ... .. . ... : ... .. . ... ...
ROW EE : ... .. . ... ... ... : ... .. . ... ... ... : ... .. . ... : ... .. . ... : ... .. . ... ...
ROW EF : ... .. . ... ... ... : ... .. . ... ... ... : ... .. . ... : ... .. . ... : ... .. . ... ...
ROW F0 : G#3 00 5 P80 ... ... : D-4 00 5 P81 ... ... : ... .. . ... : F-# 00 0 ... : ... .. . ... ...
ROW F1 : ... .. . ... ... ... : ... .. . ... ... ... : ... .. . ... : ... .. . ... : ... .. . ... ...
ROW F2 : ... .. 6 ... ... ... : ... .. 6 ... ... ... : ... .. . ... : ... .. . ... : ... .. . ... ...
ROW F3 : ... .. 8 ... ... ... : ... .. 8 ... ... ... : --- .. . ... : ... .. . ... : ... .. . ... ...
ROW F4 : ... .. 9 ... ... ... : ... .. 9 ... ... ... : ... .. . ... : ... .. . ... : ... .. . ... ...
ROW F5 : ... .. A ... ... ... : ... .. A ... ... ... : ... .. . ... : ... .. . ... : ... .. . ... ...
ROW F6 : ... .. 1 ... ... ... : ... .. 1 ... ... ... : ... .. . ... : C-# 00 E ... : ... .. . ... ...
ROW F7 : ... .. . ... ... ... : ... .. . ... ... ... : ... .. . ... : ... .. 0 ... : ... .. . ... ...
ROW F8 : ... .. . ... ... ... : ... .. . ... ... ... : ... .. . ... : ... .. . ... : ... .. . ... ...
ROW F9 : ... .. . ... ... ... : ... .. . ... ... ... : --- .. . ... : ... .. . ... : ... .. . ... ...
ROW FA : ... .. . ... ... ... : ... .. . ... ... ... : ... .. . ... : ... .. . ... : ... .. . ... ...
ROW FB : ... .. . ... ... ... : ... .. . ... ... ... : ... .. . ... : ... .. . ... : ... .. . ... ...
ROW FC : F-3 00 5 P80 ... ... : G#3 00 5 P80 ... ... : ... .. . ... : ... .. . ... : ... .. . ... ...
ROW FD : ... .. . ... ... ... : ... .. . ... ... ... : ... .. . ... : ... .. . ... : ... .. . ... ...
ROW FE : ... .. 6 ... ... ... : ... .. 6 ... ... ... : ... .. . ... : ... .. . ... : ... .. . ... ...
ROW FF : ... .. 8 ... ... ... : ... .. 8 ... ... ... : ... .. . ... : ... .. . ... : ... .. . ... ...

PATTERN 26
ROW 00 : ... .. 9 ... ... ... : ... .. 9 ... ... ... : ... .. . ... : ... .. . ... : ... .. . ... ...
ROW 01 : ... .. A ... ... ... : ... .. A ... ... ... : ... .. . ... : ... .. . ... : ... .. . ... ...
ROW 02 : ... .. 1 ... ... ... : ... .. 1 ... ... ... : B-2 00 . ... : C-# 00 E ... : ... .. . ... ...
ROW 03 : ... .. . ... ... ... : ... .. . ... ... ... : ... .. . ... : ... .. 0 ... : ... .. . ... ...
ROW 04 : ... .. . ... ... ... : ... .. . ... ... ... : ... .. . ... : ... .. . ... : ... .. . ... ...
ROW 05 : ... .. . ... ... ... : ... .. . ... ... ... : ... .. . ... : ... .. . ... : ... .. . ... ...
ROW 06 : ... .. . ... ... ... : ... .. . ... ... ... : ... .. . ... : ... .. . ... : ... .. . ... ...
ROW 07 : ... .. . ... ... ... : ... .. . ... ... ... : ... .. . ... : ... .. . ... : ... .. . ... ...
ROW 08 : D-3 00 5 P80 ... ... : G-3 00 5 P80 ... ... : ... .. . ... : F-# 00 0 ... : ... .. . ... ...
ROW 09 : ... .. . ... ... ... : ... .. . ... ... ... : ... .. . ... : ... .. . ... : ... .. . ... ...
ROW 0A : ... .. 6 ... ... ... : ... .. 6 ... ... ... : ... .. . ... : ... .. . ... : ... .. . ... ...
ROW 0B : ... .. 8 ... ... ... : ... .. 8 ... ... ... : --- .. . ... : ... .. . ... : ... .. . ... ...
ROW 0C : ... .. 9 ... ... ... : ... .. 9 ... ... ... : ... .. . ... : ... .. . ... : ... .. . ... ...
ROW 0D : ... .. A ... ... ... : ... .. A ... ... ... : ... .. . ... : ... .. . ... : ... .. . ... ...
ROW 0E : ... .. 1 ... ... ... : ... .. 1 ... ... ... : ... .. . ... : C-# 00 E ... : ... .. . ... ...
ROW 0F : ... .. . ... ... ... : ... .. . ... ... ... : ... .. . ... : ... .. 0 ... : ... .. . ... ...
ROW 10 : ... .. . ... ... ... : ... .. . ... ... ... : ... .. . ... : ... .. . ... : ... .. . ... ...
ROW 11 : ... .. . ... ... ... : ... .. . ... ... ... : --- .. . ... : ... .. . ... : ... .. . ... ...
ROW 12 : ... .. . ... ... ... : ... .. . ... ... ... : ... .. . ... : ... .. . ... : ... .. . ... ...
ROW 13 : ... .. . ... ... ... : ... .. . ... ... ... : ... .. . ... : ... .. . ... : ... .. . ... ...
ROW 14 : G-3 00 B P80 ... ... : D#4 00 B P81 ... ... : ... .. . ... : ... .. . ... : ... .. . ... ...
ROW 15 : ... .. A ... ... ... : ... .. A ... ... ... : ... .. . ... : ... .. . ... : ... .. . ... ...
ROW 16 : ... .. 9 ... ... ... : ... .. 9 ... ... ... : ... .. . ... : ... .. . ... : ... .. . ... ...
ROW 17 : ... .. 8 ... ... ... : ... .. 8 ... ... ... : ... .. . ... : ... .. . ... : ... .. . ... ...
ROW 18 : ... .. 7 ... ... ... : ... .. 7 ... ... ... : ... .. . ... : ... .. . ... : ... .. . ... ...
ROW 19 : ... .. 6 ... ... ... : ... .. 6 ... ... ... : ... .. . ... : ... .. . ... : ... .. . ... ...
ROW 1A : ... .. 5 ... ... ... : ... .. 5 ... ... ... : C#3 00 . ... : C-# 00 E ... : ... .. . ... ...
ROW 1B : ... .. 4 ... ... ... : ... .. 4 ... ... ... : ... .. . ... : ... .. 0 ... : ... .. . ... ...
ROW 1C : ... .. 3 ... ... ... : ... .. 3 ... ... ... : ... .. . ... : ... .. . ... : ... .. . ... ...
ROW 1D : ... .. 2 ... ... ... : ... .. 2 ... ... ... : ... .. . ... : ... .. . ... : ... .. . ... ...
ROW 1E : ... .. 1 ... ... ... : ... .. 1 ... ... ... : ... .. . ... : ... .. . ... : ... .. . ... ...
ROW 1F : ... .. . ... ... ... : ... .. . ... ... ... : ... .. . ... : ... .. . ... : ... .. . ... ...
ROW 20 : ... .. . ... ... ... : ... .. . ... ... ... : ... .. . ... : F-# 00 0 ... : ... .. . ... ...
ROW 21 : ... .. . ... ... ... : ... .. . ... ... ... : ... .. . ... : ... .. . ... : ... .. . ... ...
ROW 22 : ... .. . ... ... ... : ... .. . ... ... ... : ... .. . ... : ... .. . ... : ... .. . ... ...
ROW 23 : ... .. . ... ... ... : ... .. . ... ... ... : --- .. . ... : ... .. . ... : ... .. . ... ...
ROW 24 : ... .. . ... ... ... : ... .. . ... ... ... : ... .. . ... : ... .. . ... : ... .. . ... ...
ROW 25 : ... .. . ... ... ... : ... .. . ... ... ... : ... .. . ... : ... .. . ... : ... .. . ... ...
ROW 26 : ... .. . ... ... ... : ... .. . ... ... ... : ... .. . ... : C-# 00 E ... : ... .. . ... ...
ROW 27 : ... .. . ... ... ... : ... .. . ... ... ... : ... .. . ... : ... .. 0 ... : ... .. . ... ...
ROW 28 : ... .. . ... ... ... : ... .. . ... ... ... : ... .. . ... : ... .. . ... : ... .. . ... ...
ROW 29 : ... .. . ... ... ... : ... .. . ... ... ... : --- .. . ... : ... .. . ... : ... .. . ... ...
ROW 2A : ... .. . ... ... ... : ... .. . ... ... ... : ... .. . ... : ... .. . ... : ... .. . ... ...
ROW 2B : ... .. . ... ... ... : ... .. . ... ... ... : ... .. . ... : ... .. . ... : ... .. . ... ...
ROW 2C : ... .. . ... ... ... : ... .. . ... ... ... : ... .. . ... : ... .. . ... : ... .. . ... ...
ROW 2D : ... .. . ... ... ... : ... .. . ... ... ... : ... .. . ... : ... .. . ... : ... .. . ... ...
ROW 2E : ... .. . ... ... ... : ... .. . ... ... ... : ... .. . ... : ... .. . ... : ... .. . ... ...
ROW 2F : ... .. . ... ... ... : ... .. . ... ... ... : ... .. . ... : ... .. . ... : ... .. . ... ...
ROW 30 : ... .. . ... ... ... : ... .. . ... ... ... : ... .. . ... : ... .. . ... : ... .. . ... ...
ROW 31 : ... .. . ... ... ... : ... .. . ... ... ... : ... .. . ... : ... .. . ... : ... .. . ... ...
ROW 32 : D#4 00 B P81 ... ... : G#4 00 B P80 ... ... : G-3 00 . ... : C-# 00 E ... : ... .. . ... ...
ROW 33 : ... .. A ... ... ... : ... .. A ... ... ... : ... .. . ... : ... .. 0 ... : ... .. . ... ...
ROW 34 : ... .. 9 ... ... ... : ... .. 9 ... ... ... : ... .. . ... : ... .. . ... : ... .. . ... ...
ROW 35 : ... .. 8 ... ... ... : ... .. 8 ... ... ... : ... .. . ... : ... .. . ... : ... .. . ... ...
ROW 36 : ... .. 7 ... ... ... : ... .. 7 ... ... ... : ... .. . ... : ... .. . ... : ... .. . ... ...
ROW 37 : ... .. 6 ... ... ... : ... .. 6 ... ... ... : ... .. . ... : ... .. . ... : ... .. . ... ...
ROW 38 : ... .. 1 ... ... ... : ... .. 1 ... ... ... : ... .. . ... : F-# 00 0 ... : ... .. . ... ...
ROW 39 : ... .. . ... ... ... : ... .. . ... ... ... : ... .. . ... : ... .. . ... : ... .. . ... ...
ROW 3A : ... .. . ... ... ... : ... .. . ... ... ... : ... .. . ... : ... .. . ... : ... .. . ... ...
ROW 3B : ... .. . ... ... ... : ... .. . ... ... ... : --- .. . ... : ... .. . ... : ... .. . ... ...
ROW 3C : ... .. . ... ... ... : ... .. . ... ... ... : ... .. . ... : ... .. . ... : ... .. . ... ...
ROW 3D : ... .. . ... ... ... : ... .. . ... ... ... : ... .. . ... : ... .. . ... : ... .. . ... ...
ROW 3E : G-4 00 B P81 ... ... : C-5 00 B P81 ... ... : ... .. . ... : C-# 00 E ... : ... .. . ... ...
ROW 3F : ... .. A ... ... ... : ... .. A ... ... ... : ... .. . ... : ... .. 0 ... : ... .. . ... ...
ROW 40 : ... .. . ... ... ... : ... .. . ... ... ... : ... .. . ... : ... .. . ... : ... .. . ... ...
ROW 41 : ... .. . ... ... ... : ... .. . ... ... ... : --- .. . ... : ... .. . ... : ... .. . ... ...
ROW 42 : ... .. . ... ... ... : ... .. . ... ... ... : ... .. . ... : ... .. . ... : ... .. . ... ...
ROW 43 : ... .. . ... ... ... : ... .. . ... ... ... : ... .. . ... : ... .. . ... : ... .. . ... ...
ROW 44 : ... .. . ... ... ... : ... .. . ... ... ... : ... .. . ... : ... .. . ... : ... .. . ... ...
ROW 45 : ... .. . ... ... ... : ... .. . ... ... ... : ... .. . ... : ... .. . ... : ... .. . ... ...
ROW 46 : ... .. . ... ... ... : ... .. . ... ... ... : ... .. . ... : ... .. . ... : ... .. . ... ...
ROW 47 : ... .. . ... ... ... : ... .. . ... ... ... : ... .. . ... : ... .. . ... : ... .. . ... ...
ROW 48 : ... .. . ... ... ... : ... .. . ... ... ... : ... .. . ... : ... .. . ... : ... .. . ... ...
ROW 49 : ... .. . ... ... ... : ... .. . ... ... ... : ... .. . ... : ... .. . ... : ... .. . ... ...
ROW 4A : ... .. . ... ... ... : ... .. . ... ... ... : G-3 00 . ... : C-# 00 E ... : ... .. . ... ...
ROW 4B : ... .. . ... ... ... : ... .. . ... ... ... : ... .. . ... : ... .. 0 ... : ... .. . ... ...
ROW 4C : ... .. . ... ... ... : ... .. . ... ... ... : ... .. . ... : ... .. . ... : ... .. . ... ...
ROW 4D : ... .. . ... ... ... : ... .. . ... ... ... : ... .. . ... : ... .. . ... : ... .. . ... ...
ROW 4E : ... .. . ... ... ... : ... .. . ... ... ... : ... .. . ... : ... .. . ... : ... .. . ... ...
ROW 4F : ... .. . ... ... ... : ... .. . ... ... ... : ... .. . ... : ... .. . ... : ... .. . ... ...
ROW 50 : ... .. . ... ... ... : ... .. . ... ... ... : ... .. . ... : F-# 00 0 ... : ... .. . ... ...
ROW 51 : ... .. . ... ... ... : ... .. . ... ... ... : ... .. . ... : ... .. . ... : ... .. . ... ...
ROW 52 : ... .. . ... ... ... : ... .. . ... ... ... : ... .. . ... : ... .. . ... : ... .. . ... ...
ROW 53 : ... .. . ... ... ... : ... .. . ... ... ... : --- .. . ... : ... .. . ... : ... .. . ... ...
ROW 54 : ... .. . ... ... ... : ... .. . ... ... ... : ... .. . ... : ... .. . ... : ... .. . ... ...
ROW 55 : ... .. . ... ... ... : ... .. . ... ... ... : ... .. . ... : ... .. . ... : ... .. . ... ...
ROW 56 : ... .. . ... ... ... : ... .. . ... ... ... : ... .. . ... : C-# 00 E ... : ... .. . ... ...
ROW 57 : ... .. . ... ... ... : ... .. . ... ... ... : ... .. . ... : ... .. 0 ... : ... .. . ... ...
ROW 58 : ... .. . ... ... ... : ... .. . ... ... ... : ... .. . ... : ... .. . ... : ... .. . ... ...
ROW 59 : ... .. . ... ... ... : ... .. . ... ... ... : --- .. . ... : ... .. . ... : ... .. . ... ...
ROW 5A : ... .. . ... ... ... : ... .. . ... ... ... : ... .. . ... : ... .. . ... : ... .. . ... ...
ROW 5B : ... .. . ... ... ... : ... .. . ... ... ... : ... .. . ... : ... .. . ... : ... .. . ... ...
ROW 5C : C-4 00 B P81 ... ... : G-4 00 B P81 ... ... : ... .. . ... : ... .. . ... : ... .. . ... ...
ROW 5D : ... .. A ... ... ... : ... .. A ... ... ... : ... .. . ... : ... .. . ... : ... .. . ... ...
ROW 5E : ... .. 9 ... ... ... : ... .. 9 ... ... ... : ... .. . ... : ... .. . ... : ... .. . ... ...
ROW 5F : ... .. 8 ... ... ... : ... .. 8 ... ... ... : ... .. . ... : ... .. . ... : ... .. . ... ...
ROW 60 : ... .. 7 ... ... ... : ... .. 7 ... ... ... : ... .. . ... : ... .. . ... : ... .. . ... ...
ROW 61 : ... .. 6 ... ... ... : ... .. 6 ... ... ... : ... .. . ... : ... .. . ... : ... .. . ... ...
ROW 62 : G#3 00 B P80 ... ... : D#4 00 B P81 ... ... : C-3 00 . ... : C-# 00 E ... : ... .. . ... ...
ROW 63 : ... .. A ... ... ... : ... .. A ... ... ... : ... .. . ... : ... .. 0 ... : ... .. . ... ...
ROW 64 : ... .. 9 ... ... ... : ... .. 9 ... ... ... : ... .. . ... : ... .. . ... : ... .. . ... ...
ROW 65 : ... .. 8 ... ... ... : ... .. 8 ... ... ... : ... .. . ... : ... .. . ... : ... .. . ... ...
ROW 66 : ... .. 7 ... ... ... : ... .. 7 ... ... ... : ... .. . ... : ... .. . ... : ... .. . ... ...
ROW 67 : ... .. 6 ... ... ... : ... .. 6 ... ... ... : ... .. . ... : ... .. . ... : ... .. . ... ...
ROW 68 : ... .. 1 ... ... ... : ... .. 1 ... ... ... : ... .. . ... : F-# 00 0 ... : ... .. . ... ...
ROW 69 : ... .. . ... ... ... : ... .. . ... ... ... : ... .. . ... : ... .. . ... : ... .. . ... ...
ROW 6A : ... .. . ... ... ... : ... .. . ... ... ... : ... .. . ... : ... .. . ... : ... .. . ... ...
ROW 6B : ... .. . ... ... ... : ... .. . ... ... ... : --- .. . ... : ... .. . ... : ... .. . ... ...
ROW 6C : ... .. . ... ... ... : ... .. . ... ... ... : ... .. . ... : ... .. . ... : ... .. . ... ...
ROW 6D : ... .. . ... ... ... : ... .. . ... ... ... : ... .. . ... : ... .. . ... : ... .. . ... ...
ROW 6E : G-3 00 B P80 ... ... : C-4 00 B P81 ... ... : ... .. . ... : C-# 00 E ... : ... .. . ... ...
ROW 6F : ... .. A ... ... ... : ... .. A ... ... ... : ... .. . ... : ... .. 0 ... : ... .. . ... ...
ROW 70 : ... .. . ... ... ... : ... .. . ... ... ... : ... .. . ... : ... .. . ... : ... .. . ... ...
ROW 71 : ... .. . ... ... ... : ... .. . ... ... ... : --- .. . ... : ... .. . ... : ... .. . ... ...
ROW 72 : ... .. . ... ... ... : ... .. . ... ... ... : ... .. . ... : ... .. . ... : ... .. . ... ...
ROW 73 : ... .. . ... ... ... : ... .. . ... ... ... : ... .. . ... : ... .. . ... : ... .. . ... ...
ROW 74 : G-3 00 B P80 ... ... : D#4 00 B P81 ... ... : ... .. . ... : ... .. . ... : ... .. . ... ...
ROW 75 : ... .. A ... ... ... : ... .. A ... ... ... : ... .. . ... : ... .. . ... : ... .. . ... ...
ROW 76 : ... .. 9 ... ... ... : ... .. 9 ... ... ... : ... .. . ... : ... .. . ... : ... .. . ... ...
ROW 77 : ... .. 8 ... ... ... : ... .. 8 ... ... ... : ... .. . ... : ... .. . ... : ... .. . ... ...
ROW 78 : ... .. 7 ... ... ... : ... .. 7 ... ... ... : ... .. . ... : ... .. . ... : ... .. . ... ...
ROW 79 : ... .. 6 ... ... ... : ... .. 6 ... ... ... : ... .. . ... : ... .. . ... : ... .. . ... ...
ROW 7A : F#3 00 B P80 ... ... : C#4 00 B P80 ... ... : D#3 00 . ... : C-# 00 E ... : ... .. . ... ...
ROW 7B : ... .. A ... ... ... : ... .. A ... ... ... : ... .. . ... : ... .. 0 ... : ... .. . ... ...
ROW 7C : ... .. 9 ... ... ... : ... .. 9 ... ... ... : ... .. . ... : ... .. . ... : ... .. . ... ...
ROW 7D : ... .. 8 ... ... ... : ... .. 8 ... ... ... : ... .. . ... : ... .. . ... : ... .. . ... ...
ROW 7E : ... .. 7 ... ... ... : ... .. 7 ... ... ... : ... .. . ... : ... .. . ... : ... .. . ... ...
ROW 7F : ... .. 6 ... ... ... : ... .. 6 ... ... ... : ... .. . ... : ... .. . ... : ... .. . ... ...
ROW 80 : ... .. 1 ... ... ... : ... .. 1 ... ... ... : ... .. . ... : F-# 00 0 ... : ... .. . ... ...
ROW 81 : ... .. . ... ... ... : ... .. . ... ... ... : ... .. . ... : ... .. . ... : ... .. . ... ...
ROW 82 : ... .. . ... ... ... : ... .. . ... ... ... : ... .. . ... : ... .. . ... : ... .. . ... ...
ROW 83 : ... .. . ... ... ... : ... .. . ... ... ... : --- .. . ... : ... .. . ... : ... .. . ... ...
ROW 84 : ... .. . ... ... ... : ... .. . ... ... ... : ... .. . ... : ... .. . ... : ... .. . ... ...
ROW 85 : ... .. . ... ... ... : ... .. . ... ... ... : ... .. . ... : ... .. . ... : ... .. . ... ...
ROW 86 : G-3 00 B P80 ... ... : D#4 00 B P81 ... ... : ... .. . ... : C-# 00 E ... : ... .. . ... ...
ROW 87 : ... .. A ... ... ... : ... .. A ... ... ... : ... .. . ... : ... .. 0 ... : ... .. . ... ...
ROW 88 : ... .. . ... ... ... : ... .. . ... ... ... : ... .. . ... : ... .. . ... : ... .. . ... ...
ROW 89 : ... .. . ... ... ... : ... .. . ... ... ... : --- .. . ... : ... .. . ... : ... .. . ... ...
ROW 8A : ... .. . ... ... ... : ... .. . ... ... ... : ... .. . ... : ... .. . ... : ... .. . ... ...
ROW 8B : ... .. . ... ... ... : ... .. . ... ... ... : ... .. . ... : ... .. . ... : ... .. . ... ...
ROW 8C : C#3 00 B P80 ... ... : G#3 00 B P80 ... ... : ... .. . ... : ... .. . ... : ... .. . ... ...
ROW 8D : ... .. A ... ... ... : ... .. A ... ... ... : ... .. . ... : ... .. . ... : ... .. . ... ...
ROW 8E : ... .. 9 ... ... ... : ... .. 9 ... ... ... : ... .. . ... : ... .. . ... : ... .. . ... ...
ROW 8F : ... .. 8 ... ... ... : ... .. 8 ... ... ... : ... .. . ... : ... .. . ... : ... .. . ... ...
ROW 90 : ... .. 7 ... ... ... : ... .. 7 ... ... ... : ... .. . ... : ... .. . ... : ... .. . ... ...
ROW 91 : ... .. 6 ... ... ... : ... .. 6 ... ... ... : ... .. . ... : ... .. . ... : ... .. . ... ...
ROW 92 : ... .. 1 ... ... ... : ... .. 1 ... ... ... : G#2 00 . P7F : C-# 00 E ... : ... .. . ... ...
ROW 93 : ... .. . ... ... ... : ... .. . ... ... ... : ... .. . ... : ... .. 0 ... : ... .. . ... ...
ROW 94 : ... .. . ... ... ... : ... .. . ... ... ... : ... .. . ... : ... .. . ... : ... .. . ... ...
ROW 95 : ... .. . ... ... ... : ... .. . ... ... ... : ... .. . ... : ... .. . ... : ... .. . ... ...
ROW 96 : ... .. . ... ... ... : ... .. . ... ... ... : ... .. . ... : ... .. . ... : ... .. . ... ...
ROW 97 : ... .. . ... ... ... : ... .. . ... ... ... : ... .. . ... : ... .. . ... : ... .. . ... ...
ROW 98 : ... .. . ... ... ... : ... .. . ... ... ... : ... .. . ... : F-# 00 0 ... : ... .. . ... ...
ROW 99 : ... .. . ... ... ... : ... .. . ... ... ... : ... .. . ... : ... .. . ... : ... .. . ... ...
ROW 9A : ... .. . ... ... ... : ... .. . ... ... ... : ... .. . ... : ... .. . ... : ... .. . ... ...
ROW 9B : ... .. . ... ... ... : ... .. . ... ... ... : --- .. . ... : ... .. . ... : ... .. . ... ...
ROW 9C : ... .. . ... ... ... : ... .. . ... ... ... : ... .. . ... : ... .. . ... : ... .. . ... ...
ROW 9D : ... .. . ... ... ... : ... .. . ... ... ... : ... .. . ... : ... .. . ... : ... .. . ... ...
ROW 9E : F#3 00 B P80 ... ... : C#4 00 B P80 ... ... : ... .. . ... : C-# 00 E ... : ... .. . ... ...
ROW 9F : ... .. A ... ... ... : ... .. A ... ... ... : ... .. . ... : ... .. 0 ... : ... .. . ... ...
ROW A0 : ... .. . ... ... ... : ... .. . ... ... ... : ... .. . ... : ... .. . ... : ... .. . ... ...
ROW A1 : ... .. . ... ... ... : ... .. . ... ... ... : ... .. . ... : ... .. . ... : ... .. . ... ...
ROW A2 : ... .. . ... ... ... : ... .. . ... ... ... : ... .. . ... : ... .. . ... : ... .. . ... ...
ROW A3 : ... .. . ... ... ... : ... .. . ... ... ... : ... .. . ... : ... .. . ... : ... .. . ... ...
ROW A4 : C#3 00 B P80 ... ... : G#3 00 B P80 ... ... : D#3 00 . ... : ... .. . ... : ... .. . ... ...
ROW A5 : ... .. A ... ... ... : ... .. A ... ... ... : ... .. . ... : ... .. . ... : ... .. . ... ...
ROW A6 : ... .. 9 ... ... ... : ... .. 9 ... ... ... : ... .. . ... : ... .. . ... : ... .. . ... ...
ROW A7 : ... .. 8 ... ... ... : ... .. 8 ... ... ... : ... .. . ... : ... .. . ... : ... .. . ... ...
ROW A8 : F#3 00 B P80 ... ... : C#4 00 B P80 ... ... : ... .. . ... : ... .. . ... : ... .. . ... ...
ROW A9 : ... .. A ... ... ... : ... .. A ... ... ... : ... .. . ... : ... .. . ... : ... .. . ... ...
ROW AA : ... .. 9 ... ... ... : ... .. 9 ... ... ... : C-3 00 . ... : C-# 00 E ... : ... .. . ... ...
ROW AB : ... .. 8 ... ... ... : ... .. 8 ... ... ... : ... .. . ... : ... .. 0 ... : ... .. . ... ...
ROW AC : C#3 00 B P80 ... ... : G#3 00 B P80 ... ... : ... .. . ... : ... .. . ... : ... .. . ... ...
ROW AD : ... .. A ... ... ... : ... .. A ... ... ... : ... .. . ... : ... .. . ... : ... .. . ... ...
ROW AE : ... .. 9 ... ... ... : ... .. 9 ... ... ... : ... .. . ... : ... .. . ... : ... .. . ... ...
ROW AF : ... .. 8 ... ... ... : ... .. 8 ... ... ... : ... .. . ... : ... .. . ... : ... .. . ... ...
ROW B0 : C#3 00 B P80 ... ... : C#4 00 B P80 ... ... : ... .. . ... : F-# 00 0 ... : ... .. . ... ...
ROW B1 : ... .. A ... ... ... : ... .. A ... ... ... : ... .. . ... : ... .. . ... : ... .. . ... ...
ROW B2 : ... .. 9 ... ... ... : ... .. 9 ... ... ... : ... .. . ... : ... .. . ... : ... .. . ... ...
ROW B3 : ... .. 8 ... ... ... : ... .. 8 ... ... ... : --- .. . ... : ... .. . ... : ... .. . ... ...
ROW B4 : F#3 00 B P80 ... ... : G#3 00 B P80 ... ... : ... .. . ... : ... .. . ... : ... .. . ... ...
ROW B5 : ... .. A ... ... ... : ... .. A ... ... ... : ... .. . ... : ... .. . ... : ... .. . ... ...
ROW B6 : ... .. 9 ... ... ... : ... .. 9 ... ... ... : ... .. . ... : C-# 00 E ... : ... .. . ... ...
ROW B7 : ... .. 8 ... ... ... : ... .. 8 ... ... ... : ... .. . ... : ... .. 0 ... : ... .. . ... ...
ROW B8 : F#3 00 B P80 ... ... : G#3 00 B P80 ... ... : ... .. . ... : ... .. . ... : ... .. . ... ...
ROW B9 : ... .. A ... ... ... : ... .. A ... ... ... : --- .. . ... : ... .. . ... : ... .. . ... ...
ROW BA : ... .. 9 ... ... ... : ... .. 9 ... ... ... : ... .. . ... : ... .. . ... : ... .. . ... ...
ROW BB : ... .. 8 ... ... ... : ... .. 8 ... ... ... : ... .. . ... : ... .. . ... : ... .. . ... ...
ROW BC : C#3 00 B P80 ... ... : C#4 00 B P80 ... ... : ... .. . ... : ... .. . ... : ... .. . ... ...
ROW BD : ... .. A ... ... ... : ... .. A ... ... ... : ... .. . ... : ... .. . ... : ... .. . ... ...
ROW BE : ... .. 9 ... ... ... : ... .. 9 ... ... ... : ... .. . ... : ... .. . ... : ... .. . ... ...
ROW BF : ... .. 8 ... ... ... : ... .. 8 ... ... ... : ... .. . ... : ... .. . ... : ... .. . ... ...
ROW C0 : F#3 00 B P80 ... ... : G#3 00 B P80 ... ... : ... .. . ... : ... .. . ... : ... .. . ... ...
ROW C1 : ... .. A ... ... ... : ... .. A ... ... ... : ... .. . ... : ... .. . ... : ... .. . ... ...
ROW C2 : ... .. 9 ... ... ... : ... .. 9 ... ... ... : G#2 00 . P7F : C-# 00 E ... : ... .. . ... ...
ROW C3 : ... .. 8 ... ... ... : ... .. 8 ... ... ... : ... .. . ... : ... .. 0 ... : ... .. . ... ...
ROW C4 : C#3 00 B P80 ... ... : C#4 00 B P80 ... ... : ... .. . ... : ... .. . ... : ... .. . ... ...
ROW C5 : ... .. A ... ... ... : ... .. A ... ... ... : ... .. . ... : ... .. . ... : ... .. . ... ...
ROW C6 : ... .. 9 ... ... ... : ... .. 9 ... ... ... : ... .. . ... : ... .. . ... : ... .. . ... ...
ROW C7 : ... .. 8 ... ... ... : ... .. 8 ... ... ... : ... .. . ... : ... .. . ... : ... .. . ... ...
ROW C8 : ... .. 1 ... ... ... : ... .. 1 ... ... ... : ... .. . ... : F-# 00 0 ... : ... .. . ... ...
ROW C9 : ... .. . ... ... ... : ... .. . ... ... ... : ... .. . ... : ... .. . ... : ... .. . ... ...
ROW CA : ... .. . ... ... ... : ... .. . ... ... ... : ... .. . ... : ... .. . ... : ... .. . ... ...
ROW CB : ... .. . ... ... ... : ... .. . ... ... ... : --- .. . ... : ... .. . ... : ... .. . ... ...
ROW CC : ... .. . ... ... ... : ... .. . ... ... ... : ... .. . ... : ... .. . ... : ... .. . ... ...
ROW CD : ... .. . ... ... ... : ... .. . ... ... ... : ... .. . ... : ... .. . ... : ... .. . ... ...
ROW CE : F-3 00 B P80 ... ... : C#4 00 B P80 ... ... : ... .. . ... : C-# 00 E ... : ... .. . ... ...
ROW CF : ... .. A ... ... ... : ... .. A ... ... ... : ... .. . ... : ... .. 0 ... : ... .. . ... ...
ROW D0 : ... .. . ... ... ... : ... .. . ... ... ... : ... .. . ... : ... .. . ... : ... .. . ... ...
ROW D1 : ... .. . ... ... ... : ... .. . ... ... ... : --- .. . ... : ... .. . ... : ... .. . ... ...
ROW D2 : ... .. . ... ... ... : ... .. . ... ... ... : ... .. . ... : ... .. . ... : ... .. . ... ...
ROW D3 : ... .. . ... ... ... : ... .. . ... ... ... : ... .. . ... : ... .. . ... : ... .. . ... ...
ROW D4 : G-3 00 B P80 ... ... : D#4 00 B P81 ... ... : ... .. . ... : ... .. . ... : ... .. . ... ...
ROW D5 : ... .. A ... ... ... : ... .. A ... ... ... : ... .. . ... : ... .. . ... : ... .. . ... ...
ROW D6 : ... .. 9 ... ... ... : ... .. 9 ... ... ... : ... .. . ... : ... .. . ... : ... .. . ... ...
ROW D7 : ... .. 8 ... ... ... : ... .. 8 ... ... ... : ... .. . ... : ... .. . ... : ... .. . ... ...
ROW D8 : ... .. 7 ... ... ... : ... .. 7 ... ... ... : ... .. . ... : ... .. . ... : ... .. . ... ...
ROW D9 : ... .. 6 ... ... ... : ... .. 6 ... ... ... : ... .. . ... : ... .. . ... : ... .. . ... ...
ROW DA : F-3 00 B P80 ... ... : C#4 00 B P80 ... ... : G-3 00 . ... : C-# 00 E ... : ... .. . ... ...
ROW DB : ... .. A ... ... ... : ... .. A ... ... ... : ... .. . ... : ... .. 0 ... : ... .. . ... ...
ROW DC : ... .. 9 ... ... ... : ... .. 9 ... ... ... : ... .. . ... : ... .. . ... : ... .. . ... ...
ROW DD : ... .. 8 ... ... ... : ... .. 8 ... ... ... : ... .. . ... : ... .. . ... : ... .. . ... ...
ROW DE : ... .. 7 ... ... ... : ... .. 7 ... ... ... : ... .. . ... : ... .. . ... : ... .. . ... ...
ROW DF : ... .. 6 ... ... ... : ... .. 6 ... ... ... : ... .. . ... : ... .. . ... : ... .. . ... ...
ROW E0 : ... .. 1 ... ... ... : ... .. 1 ... ... ... : ... .. . ... : F-# 00 0 ... : ... .. . ... ...
ROW E1 : ... .. . ... ... ... : ... .. . ... ... ... : ... .. . ... : ... .. . ... : ... .. . ... ...
ROW E2 : ... .. . ... ... ... : ... .. . ... ... ... : ... .. . ... : ... .. . ... : ... .. . ... ...
ROW E3 : ... .. . ... ... ... : ... .. . ... ... ... : --- .. . ... : ... .. . ... : ... .. . ... ...
ROW E4 : ... .. . ... ... ... : ... .. . ... ... ... : ... .. . ... : ... .. . ... : ... .. . ... ...
ROW E5 : ... .. . ... ... ... : ... .. . ... ... ... : ... .. . ... : ... .. . ... : ... .. . ... ...
ROW E6 : G-3 00 B P80 ... ... : D#4 00 B P81 ... ... : ... .. . ... : C-# 00 E ... : ... .. . ... ...
ROW E7 : ... .. A ... ... ... : ... .. A ... ... ... : ... .. . ... : ... .. 0 ... : ... .. . ... ...
ROW E8 : ... .. . ... ... ... : ... .. . ... ... ... : ... .. . ... : ... .. . ... : ... .. . ... ...
ROW E9 : ... .. . ... ... ... : ... .. . ... ... ... : --- .. . ... : ... .. . ... : ... .. . ... ...
ROW EA : ... .. . ... ... ... : ... .. . ... ... ... : ... .. . ... : ... .. . ... : ... .. . ... ...
ROW EB : ... .. . ... ... ... : ... .. . ... ... ... : ... .. . ... : ... .. . ... : ... .. . ... ...
ROW EC : G-3 00 B P80 ... ... : D#4 00 B P81 ... ... : ... .. . ... : ... .. . ... : ... .. . ... ...
ROW ED : ... .. A ... ... ... : ... .. A ... ... ... : ... .. . ... : ... .. . ... : ... .. . ... ...
ROW EE : ... .. 9 ... ... ... : ... .. 9 ... ... ... : ... .. . ... : ... .. . ... : ... .. . ... ...
ROW EF : ... .. 8 ... ... ... : ... .. 8 ... ... ... : ... .. . ... : ... .. . ... : ... .. . ... ...
ROW F0 : ... .. 7 ... ... ... : ... .. 7 ... ... ... : ... .. . ... : ... .. . ... : ... .. . ... ...
ROW F1 : ... .. 6 ... ... ... : ... .. 6 ... ... ... : ... .. . ... : ... .. . ... : ... .. . ... ...
ROW F2 : ... .. 1 ... ... ... : ... .. 1 ... ... ... : C#3 00 . ... : C-# 00 E ... : ... .. . ... ...
ROW F3 : ... .. . ... ... ... : ... .. . ... ... ... : ... .. . ... : ... .. 0 ... : ... .. . ... ...
ROW F4 : ... .. . ... ... ... : ... .. . ... ... ... : ... .. . ... : ... .. . ... : ... .. . ... ...
ROW F5 : ... .. . ... ... ... : ... .. . ... ... ... : ... .. . ... : ... .. . ... : ... .. . ... ...
ROW F6 : ... .. . ... ... ... : ... .. . ... ... ... : ... .. . ... : ... .. . ... : ... .. . ... ...
ROW F7 : ... .. . ... ... ... : ... .. . ... ... ... : ... .. . ... : ... .. . ... : ... .. . ... ...
ROW F8 : ... .. . ... ... ... : ... .. . ... ... ... : ... .. . ... : F-# 00 0 ... : ... .. . ... ...
ROW F9 : ... .. . ... ... ... : ... .. . ... ... ... : ... .. . ... : ... .. . ... : ... .. . ... ...
ROW FA : ... .. . ... ... ... : ... .. . ... ... ... : ... .. . ... : ... .. . ... : ... .. . ... ...
ROW FB : ... .. . ... ... ... : ... .. . ... ... ... : --- .. . ... : ... .. . ... : ... .. . ... ...
ROW FC : ... .. . ... ... ... : ... .. . ... ... ... : ... .. . ... : ... .. . ... : ... .. . ... ...
ROW FD : ... .. . ... ... ... : ... .. . ... ... ... : ... .. . ... : ... .. . ... : ... .. . ... ...
ROW FE : C-4 00 B P81 ... ... : G#4 00 B P80 ... ... : ... .. . ... : C-# 00 E ... : ... .. . ... ...
ROW FF : ... .. A ... ... ... : ... .. A ... ... ... : ... .. . ... : ... .. 0 ... : ... .. . ... ...

PATTERN 27
ROW 00 : ... .. . ... ... ... : ... .. . ... ... ... : ... .. . ... : ... .. . ... : ... .. . ... ...
ROW 01 : ... .. . ... ... ... : ... .. . ... ... ... : --- .. . ... : ... .. . ... : ... .. . ... ...
ROW 02 : ... .. . ... ... ... : ... .. . ... ... ... : ... .. . ... : ... .. . ... : ... .. . ... ...
ROW 03 : ... .. . ... ... ... : ... .. . ... ... ... : ... .. . ... : ... .. . ... : ... .. . ... ...
ROW 04 : B-3 00 B P80 ... ... : G-4 00 B P81 ... ... : ... .. . ... : ... .. . ... : ... .. . ... ...
ROW 05 : ... .. A ... ... ... : ... .. A ... ... ... : ... .. . ... : ... .. . ... : ... .. . ... ...
ROW 06 : ... .. 9 ... ... ... : ... .. 9 ... ... ... : ... .. . ... : ... .. . ... : ... .. . ... ...
ROW 07 : ... .. 8 ... ... ... : ... .. 8 ... ... ... : ... .. . ... : ... .. . ... : ... .. . ... ...
ROW 08 : ... .. 7 ... ... ... : ... .. 7 ... ... ... : ... .. . ... : ... .. . ... : ... .. . ... ...
ROW 09 : ... .. 6 ... ... ... : ... .. 6 ... ... ... : ... .. . ... : ... .. . ... : ... .. . ... ...
ROW 0A : C-4 00 B P81 ... ... : G#4 00 B P80 ... ... : G-2 00 . ... : C-# 00 E ... : ... .. . ... ...
ROW 0B : ... .. A ... ... ... : ... .. A ... ... ... : ... .. . ... : ... .. 0 ... : ... .. . ... ...
ROW 0C : ... .. 9 ... ... ... : ... .. 9 ... ... ... : ... .. . ... : ... .. . ... : ... .. . ... ...
ROW 0D : ... .. 8 ... ... ... : ... .. 8 ... ... ... : ... .. . ... : ... .. . ... : ... .. . ... ...
ROW 0E : ... .. 7 ... ... ... : ... .. 7 ... ... ... : ... .. . ... : ... .. . ... : ... .. . ... ...
ROW 0F : ... .. 6 ... ... ... : ... .. 6 ... ... ... : ... .. . ... : ... .. . ... : ... .. . ... ...
ROW 10 : ... .. 1 ... ... ... : ... .. 1 ... ... ... : ... .. . ... : F-# 00 0 ... : ... .. . ... ...
ROW 11 : ... .. . ... ... ... : ... .. . ... ... ... : ... .. . ... : ... .. . ... : ... .. . ... ...
ROW 12 : ... .. . ... ... ... : ... .. . ... ... ... : ... .. . ... : ... .. . ... : ... .. . ... ...
ROW 13 : ... .. . ... ... ... : ... .. . ... ... ... : --- .. . ... : ... .. . ... : ... .. . ... ...
ROW 14 : ... .. . ... ... ... : ... .. . ... ... ... : ... .. . ... : ... .. . ... : ... .. . ... ...
ROW 15 : ... .. . ... ... ... : ... .. . ... ... ... : ... .. . ... : ... .. . ... : ... .. . ... ...
ROW 16 : B-3 00 B P80 ... ... : G-4 00 B P81 ... ... : ... .. . ... : C-# 00 E ... : ... .. . ... ...
ROW 17 : ... .. A ... ... ... : ... .. A ... ... ... : ... .. . ... : ... .. 0 ... : ... .. . ... ...
ROW 18 : ... .. . ... ... ... : ... .. . ... ... ... : ... .. . ... : ... .. . ... : ... .. . ... ...
ROW 19 : ... .. . ... ... ... : ... .. . ... ... ... : --- .. . ... : ... .. . ... : ... .. . ... ...
ROW 1A : ... .. . ... ... ... : ... .. . ... ... ... : ... .. . ... : ... .. . ... : ... .. . ... ...
ROW 1B : ... .. . ... ... ... : ... .. . ... ... ... : ... .. . ... : ... .. . ... : ... .. . ... ...
ROW 1C : B-3 00 B P80 ... ... : G-4 00 B P81 ... ... : ... .. . ... : ... .. . ... : ... .. . ... ...
ROW 1D : ... .. A ... ... ... : ... .. A ... ... ... : ... .. . ... : ... .. . ... : ... .. . ... ...
ROW 1E : ... .. 9 ... ... ... : ... .. 9 ... ... ... : ... .. . ... : ... .. . ... : ... .. . ... ...
ROW 1F : ... .. 8 ... ... ... : ... .. 8 ... ... ... : ... .. . ... : ... .. . ... : ... .. . ... ...
ROW 20 : ... .. 7 ... ... ... : ... .. 7 ... ... ... : ... .. . ... : ... .. . ... : ... .. . ... ...
ROW 21 : ... .. 6 ... ... ... : ... .. 6 ... ... ... : ... .. . ... : ... .. . ... : ... .. . ... ...
ROW 22 : G-3 00 B P80 ... ... : D#4 00 B P81 ... ... : B-2 00 . P80 : C-# 00 E ... : ... .. . ... ...
ROW 23 : ... .. A ... ... ... : ... .. A ... ... ... : ... .. . ... : ... .. 0 ... : ... .. . ... ...
ROW 24 : ... .. 9 ... ... ... : ... .. 9 ... ... ... : ... .. . ... : ... .. . ... : ... .. . ... ...
ROW 25 : ... .. 8 ... ... ... : ... .. 8 ... ... ... : ... .. . ... : ... .. . ... : ... .. . ... ...
ROW 26 : ... .. 7 ... ... ... : ... .. 7 ... ... ... : ... .. . ... : ... .. . ... : ... .. . ... ...
ROW 27 : ... .. 6 ... ... ... : ... .. 6 ... ... ... : ... .. . ... : ... .. . ... : ... .. . ... ...
ROW 28 : ... .. 1 ... ... ... : ... .. 1 ... ... ... : ... .. . ... : F-# 00 0 ... : ... .. . ... ...
ROW 29 : ... .. . ... ... ... : ... .. . ... ... ... : ... .. . ... : ... .. . ... : ... .. . ... ...
ROW 2A : ... .. . ... ... ... : ... .. . ... ... ... : ... .. . ... : ... .. . ... : ... .. . ... ...
ROW 2B : ... .. . ... ... ... : ... .. . ... ... ... : --- .. . ... : ... .. . ... : ... .. . ... ...
ROW 2C : ... .. . ... ... ... : ... .. . ... ... ... : ... .. . ... : ... .. . ... : ... .. . ... ...
ROW 2D : ... .. . ... ... ... : ... .. . ... ... ... : ... .. . ... : ... .. . ... : ... .. . ... ...
ROW 2E : D#3 00 B P80 ... ... : C-4 00 B P81 ... ... : ... .. . ... : C-# 00 E ... : ... .. . ... ...
ROW 2F : ... .. A ... ... ... : ... .. A ... ... ... : ... .. . ... : ... .. 0 ... : ... .. . ... ...
ROW 30 : ... .. . ... ... ... : ... .. . ... ... ... : ... .. . ... : ... .. . ... : ... .. . ... ...
ROW 31 : ... .. . ... ... ... : ... .. . ... ... ... : --- .. . ... : ... .. . ... : ... .. . ... ...
ROW 32 : ... .. . ... ... ... : ... .. . ... ... ... : ... .. . ... : ... .. . ... : ... .. . ... ...
ROW 33 : ... .. . ... ... ... : ... .. . ... ... ... : ... .. . ... : ... .. . ... : ... .. . ... ...
ROW 34 : ... .. . ... ... ... : ... .. . ... ... ... : ... .. . ... : ... .. . ... : ... .. . ... ...
ROW 35 : ... .. . ... ... ... : ... .. . ... ... ... : ... .. . ... : ... .. . ... : ... .. . ... ...
ROW 36 : ... .. . ... ... ... : ... .. . ... ... ... : ... .. . ... : ... .. . ... : ... .. . ... ...
ROW 37 : ... .. . ... ... ... : ... .. . ... ... ... : ... .. . ... : ... .. . ... : ... .. . ... ...
ROW 38 : ... .. . ... ... ... : ... .. . ... ... ... : ... .. . ... : ... .. . ... : ... .. . ... ...
ROW 39 : ... .. . ... ... ... : ... .. . ... ... ... : ... .. . ... : ... .. . ... : ... .. . ... ...
ROW 3A : ... .. . ... ... ... : ... .. . ... ... ... : G-2 00 . ... : C-# 00 E ... : ... .. . ... ...
ROW 3B : ... .. . ... ... ... : ... .. . ... ... ... : ... .. . ... : ... .. 0 ... : ... .. . ... ...
ROW 3C : ... .. . ... ... ... : ... .. . ... ... ... : ... .. . ... : ... .. . ... : ... .. . ... ...
ROW 3D : ... .. . ... ... ... : ... .. . ... ... ... : ... .. . ... : ... .. . ... : ... .. . ... ...
ROW 3E : ... .. . ... ... ... : ... .. . ... ... ... : ... .. . ... : ... .. . ... : ... .. . ... ...
ROW 3F : ... .. . ... ... ... : ... .. . ... ... ... : ... .. . ... : ... .. . ... : ... .. . ... ...
ROW 40 : ... .. . ... ... ... : ... .. . ... ... ... : ... .. . ... : F-# 00 0 ... : ... .. . ... ...
ROW 41 : ... .. . ... ... ... : ... .. . ... ... ... : ... .. . ... : ... .. . ... : ... .. . ... ...
ROW 42 : ... .. . ... ... ... : ... .. . ... ... ... : ... .. . ... : ... .. . ... : ... .. . ... ...
ROW 43 : ... .. . ... ... ... : ... .. . ... ... ... : --- .. . ... : ... .. . ... : ... .. . ... ...
ROW 44 : ... .. . ... ... ... : ... .. . ... ... ... : ... .. . ... : ... .. . ... : ... .. . ... ...
ROW 45 : ... .. . ... ... ... : ... .. . ... ... ... : ... .. . ... : ... .. . ... : ... .. . ... ...
ROW 46 : ... .. 0 ... V02 ... : F#3 00 8 P80 V02 ... : ... .. . ... : C-# 00 E ... : ... .. . ... ...
ROW 47 : ... .. . ... ... ... : ... .. . ... ... ... : ... .. . ... : ... .. 0 ... : ... .. . ... ...
ROW 48 : ... .. . ... ... ... : ... .. . ... ... ... : ... .. . ... : ... .. . ... : ... .. . ... ...
ROW 49 : ... .. . ... ... ... : ... .. . ... ... ... : --- .. . ... : ... .. . ... : ... .. . ... ...
ROW 4A : ... .. . ... ... ... : ... .. . ... ... ... : ... .. . ... : ... .. . ... : ... .. . ... ...
ROW 4B : ... .. . ... ... ... : ... .. . ... ... ... : ... .. . ... : ... .. . ... : ... .. . ... ...
ROW 4C : ... .. . ... ... ... : G#3 00 8 P80 ... ... : ... .. . ... : ... .. . ... : ... .. . ... ...
ROW 4D : ... .. . ... ... ... : ... .. . ... ... ... : ... .. . ... : ... .. . ... : ... .. . ... ...
ROW 4E : ... .. . ... ... ... : ... .. 7 ... ... ... : ... .. . ... : ... .. . ... : ... .. . ... ...
ROW 4F : ... .. . ... ... ... : ... .. . ... ... ... : ... .. . ... : ... .. . ... : ... .. . ... ...
ROW 50 : ... .. . ... ... ... : ... .. . ... ... ... : ... .. . ... : ... .. . ... : ... .. . ... ...
ROW 51 : ... .. . ... ... ... : ... .. . ... ... ... : ... .. . ... : ... .. . ... : ... .. . ... ...
ROW 52 : F-3 00 8 P80 ... ... : G#3 00 8 P80 ... ... : B-2 00 . P80 : C-# 00 E ... : ... .. . ... ...
ROW 53 : ... .. . ... ... ... : ... .. . ... ... ... : ... .. . ... : ... .. 0 ... : ... .. . ... ...
ROW 54 : ... .. 7 ... ... ... : ... .. 7 ... ... ... : ... .. . ... : ... .. . ... : ... .. . ... ...
ROW 55 : ... .. . ... ... ... : ... .. . ... ... ... : ... .. . ... : ... .. . ... : ... .. . ... ...
ROW 56 : ... .. . ... ... ... : ... .. . ... ... ... : ... .. . ... : ... .. . ... : ... .. . ... ...
ROW 57 : ... .. . ... ... ... : ... .. . ... ... ... : ... .. . ... : ... .. . ... : ... .. . ... ...
ROW 58 : ... .. 0 ... ... ... : ... .. 0 ... ... ... : ... .. . ... : F-# 00 0 ... : ... .. . ... ...
ROW 59 : ... .. . ... ... ... : ... .. . ... ... ... : ... .. . ... : ... .. . ... : ... .. . ... ...
ROW 5A : ... .. . ... ... ... : ... .. . ... ... ... : ... .. . ... : ... .. . ... : ... .. . ... ...
ROW 5B : ... .. . ... ... ... : ... .. . ... ... ... : --- .. . ... : ... .. . ... : ... .. . ... ...
ROW 5C : ... .. . ... ... ... : ... .. . ... ... ... : ... .. . ... : ... .. . ... : ... .. . ... ...
ROW 5D : ... .. . ... ... ... : ... .. . ... ... ... : ... .. . ... : ... .. . ... : ... .. . ... ...
ROW 5E : D#3 00 8 P80 ... ... : C-4 00 8 P81 ... ... : ... .. . ... : C-# 00 E ... : ... .. . ... ...
ROW 5F : ... .. . ... ... ... : ... .. . ... ... ... : ... .. . ... : ... .. 0 ... : ... .. . ... ...
ROW 60 : ... .. . ... ... ... : ... .. . ... ... ... : ... .. . ... : ... .. . ... : ... .. . ... ...
ROW 61 : ... .. . ... ... ... : ... .. . ... ... ... : --- .. . ... : ... .. . ... : ... .. . ... ...
ROW 62 : ... .. . ... ... ... : ... .. . ... ... ... : ... .. . ... : ... .. . ... : ... .. . ... ...
ROW 63 : ... .. . ... ... ... : ... .. . ... ... ... : ... .. . ... : ... .. . ... : ... .. . ... ...
ROW 64 : ... .. . ... ... ... : ... .. . ... ... ... : ... .. . ... : ... .. . ... : ... .. . ... ...
ROW 65 : ... .. . ... ... ... : ... .. . ... ... ... : ... .. . ... : ... .. . ... : ... .. . ... ...
ROW 66 : ... .. . ... ... ... : ... .. . ... ... ... : ... .. . ... : ... .. . ... : ... .. . ... ...
ROW 67 : ... .. . ... ... ... : ... .. . ... ... ... : ... .. . ... : ... .. . ... : ... .. . ... ...
ROW 68 : ... .. . ... ... ... : ... .. . ... ... ... : ... .. . ... : ... .. . ... : ... .. . ... ...
ROW 69 : ... .. . ... ... ... : ... .. . ... ... ... : ... .. . ... : ... .. . ... : ... .. . ... ...
ROW 6A : ... .. . ... ... ... : ... .. . ... ... ... : ... .. . ... : C-# 00 E ... : ... .. . ... ...
ROW 6B : ... .. . ... ... ... : ... .. . ... ... ... : ... .. . ... : ... .. 0 ... : ... .. . ... ...
ROW 6C : ... .. . ... ... ... : ... .. . ... ... ... : ... .. . ... : ... .. . ... : ... .. . ... ...
ROW 6D : ... .. . ... ... ... : ... .. . ... ... ... : ... .. . ... : ... .. . ... : ... .. . ... ...
ROW 6E : ... .. . ... ... ... : ... .. . ... ... ... : ... .. . ... : ... .. . ... : ... .. . ... ...
ROW 6F : ... .. . ... ... ... : ... .. . ... ... ... : ... .. . ... : ... .. . ... : ... .. . ... ...
ROW 70 : ... .. . ... ... ... : ... .. . ... ... ... : ... .. . ... : F-# 00 0 ... : ... .. . ... ...
ROW 71 : ... .. . ... ... ... : ... .. . ... ... ... : ... .. . ... : ... .. . ... : ... .. . ... ...
ROW 72 : ... .. . ... ... ... : ... .. . ... ... ... : ... .. . ... : ... .. . ... : ... .. . ... ...
ROW 73 : ... .. . ... ... ... : ... .. . ... ... ... : ... .. . ... : ... .. . ... : ... .. . ... ...
ROW 74 : ... .. . ... ... ... : ... .. . ... ... ... : ... .. . ... : ... .. . ... : ... .. . ... ...
ROW 75 : ... .. . ... ... ... : ... .. . ... ... ... : ... .. . ... : ... .. . ... : ... .. . ... ...
ROW 76 : D#3 00 8 P80 ... ... : C-4 00 8 P81 ... ... : C-3 00 . ... : C-# 00 E ... : ... .. . ... ...
ROW 77 : ... .. . ... ... ... : ... .. . ... ... ... : ... .. . ... : ... .. 0 ... : ... .. . ... ...
ROW 78 : ... .. . ... ... ... : ... .. . ... ... ... : ... .. . ... : ... .. . ... : ... .. . ... ...
ROW 79 : ... .. . ... ... ... : ... .. . ... ... ... : ... .. . ... : ... .. . ... : ... .. . ... ...
ROW 7A : ... .. . ... ... ... : ... .. . ... ... ... : ... .. . ... : ... .. . ... : ... .. . ... ...
ROW 7B : ... .. . ... ... ... : ... .. . ... ... ... : ... .. . ... : ... .. . ... : ... .. . ... ...
ROW 7C : ... .. . ... ... ... : ... .. . ... ... ... : ... .. . ... : ... .. . ... : ... .. . ... ...
ROW 7D : ... .. . ... ... ... : ... .. . ... ... ... : ... .. . ... : ... .. . ... : ... .. . ... ...
ROW 7E : ... .. . ... ... ... : ... .. . ... ... ... : ... .. . ... : ... .. . ... : ... .. . ... ...
ROW 7F : ... .. . ... ... ... : ... .. . ... ... ... : ... .. . ... : ... .. . ... : ... .. . ... ...
ROW 80 : ... .. . ... ... ... : ... .. . ... ... ... : ... .. . ... : ... .. . ... : ... .. . ... ...
ROW 81 : ... .. . ... ... ... : ... .. . ... ... ... : ... .. . ... : ... .. . ... : ... .. . ... ...
ROW 82 : ... .. 1 ... V01 ... : ... .. 1 ... V01 ... : ... .. . ... : C-# 00 E ... : ... .. . ... ...
ROW 83 : ... .. . ... ... ... : ... .. . ... ... ... : ... .. . ... : ... .. 0 ... : ... .. . ... ...
ROW 84 : ... .. . ... ... ... : ... .. . ... ... ... : ... .. . ... : ... .. . ... : ... .. . ... ...
ROW 85 : ... .. . ... ... ... : ... .. . ... ... ... : ... .. . ... : ... .. . ... : ... .. . ... ...
ROW 86 : ... .. . ... ... ... : ... .. . ... ... ... : ... .. . ... : ... .. . ... : ... .. . ... ...
ROW 87 : ... .. . ... ... ... : ... .. . ... ... ... : ... .. . ... : ... .. . ... : ... .. . ... ...
ROW 88 : ... .. . ... ... ... : ... .. . ... ... ... : ... .. . ... : F-# 00 0 ... : ... .. . ... ...
ROW 89 : ... .. . ... ... ... : ... .. . ... ... ... : ... .. . ... : ... .. . ... : ... .. . ... ...
ROW 8A : ... .. . ... ... ... : ... .. . ... ... ... : ... .. . ... : ... .. . ... : ... .. . ... ...
ROW 8B : ... .. . ... ... ... : ... .. . ... ... ... : ... .. . ... : ... .. . ... : ... .. . ... ...
ROW 8C : ... .. . ... ... ... : ... .. . ... ... ... : ... .. . ... : ... .. . ... : ... .. . ... ...
ROW 8D : ... .. . ... ... ... : ... .. . ... ... ... : ... .. . ... : ... .. . ... : ... .. . ... ...
ROW 8E : D#3 00 B P80 ... ... : D#4 00 B P83 ... ... : ... .. . ... : C-# 00 E ... : ... .. . ... ...
ROW 8F : ... .. A ... ... ... : ... .. A ... ... ... : ... .. . ... : ... .. 0 ... : ... .. . ... ...
ROW 90 : ... .. . ... ... ... : ... .. . ... ... ... : ... .. . ... : ... .. . ... : ... .. . ... ...
ROW 91 : ... .. . ... ... ... : ... .. . ... ... ... : --- .. . ... : ... .. . ... : ... .. . ... ...
ROW 92 : ... .. . ... ... ... : ... .. . ... ... ... : ... .. . ... : ... .. . ... : ... .. . ... ...
ROW 93 : ... .. . ... ... ... : ... .. . ... ... ... : ... .. . ... : ... .. . ... : ... .. . ... ...
ROW 94 : F-3 00 B P80 ... ... : F-4 00 B P82 ... ... : ... .. . ... : ... .. . ... : ... .. . ... ...
ROW 95 : ... .. A ... ... ... : ... .. A ... ... ... : ... .. . ... : ... .. . ... : ... .. . ... ...
ROW 96 : ... .. 9 ... ... ... : ... .. 9 ... ... ... : ... .. . ... : ... .. . ... : ... .. . ... ...
ROW 97 : ... .. 8 ... ... ... : ... .. 8 ... ... ... : ... .. . ... : ... .. . ... : ... .. . ... ...
ROW 98 : ... .. 7 ... ... ... : ... .. 7 ... ... ... : ... .. . ... : ... .. . ... : ... .. . ... ...
ROW 99 : ... .. 6 ... ... ... : ... .. 6 ... ... ... : ... .. . ... : ... .. . ... : ... .. . ... ...
ROW 9A : D-3 00 B P80 ... ... : D-4 00 B P83 ... ... : B-3 00 . ... : 6-# 00 F ... : ... .. . ... ...
ROW 9B : ... .. A ... ... ... : ... .. A ... ... ... : ... .. . ... : ... .. C ... : ... .. . ... ...
ROW 9C : ... .. 9 ... ... ... : ... .. 9 ... ... ... : ... .. . ... : ... .. 8 ... : ... .. . ... ...
ROW 9D : ... .. 8 ... ... ... : ... .. 8 ... ... ... : ... .. . ... : ... .. 4 ... : ... .. . ... ...
ROW 9E : ... .. 7 ... ... ... : ... .. 7 ... ... ... : ... .. . ... : ... .. 0 ... : ... .. . ... ...
ROW 9F : ... .. 6 ... ... ... : ... .. 6 ... ... ... : ... .. . ... : ... .. . ... : ... .. . ... ...
ROW A0 : ... .. 1 ... ... ... : ... .. 1 ... ... ... : ... .. . ... : F-# 00 0 ... : ... .. . ... ...
ROW A1 : ... .. . ... ... ... : ... .. . ... ... ... : ... .. . ... : ... .. . ... : ... .. . ... ...
ROW A2 : ... .. . ... ... ... : ... .. . ... ... ... : ... .. . ... : ... .. . ... : ... .. . ... ...
ROW A3 : ... .. . ... ... ... : ... .. . ... ... ... : --- .. . ... : ... .. . ... : ... .. . ... ...
ROW A4 : ... .. . ... ... ... : ... .. . ... ... ... : ... .. . ... : ... .. . ... : ... .. . ... ...
ROW A5 : ... .. . ... ... ... : ... .. . ... ... ... : ... .. . ... : ... .. . ... : ... .. . ... ...
ROW A6 : D#3 00 B P80 ... ... : D#4 00 B P83 ... ... : ... .. . ... : 6-# 00 C ... : ... .. . ... ...
ROW A7 : ... .. A ... ... ... : ... .. A ... ... ... : ... .. . ... : ... .. 8 ... : ... .. . ... ...
ROW A8 : ... .. . ... ... ... : ... .. . ... ... ... : ... .. . ... : ... .. . ... : ... .. . ... ...
ROW A9 : ... .. . ... ... ... : ... .. . ... ... ... : --- .. . ... : ... .. . ... : ... .. . ... ...
ROW AA : ... .. . ... ... ... : ... .. . ... ... ... : ... .. . ... : ... .. . ... : ... .. . ... ...
ROW AB : ... .. . ... ... ... : ... .. . ... ... ... : ... .. . ... : ... .. . ... : ... .. . ... ...
ROW AC : D-3 00 B P80 ... ... : D-4 00 B P83 ... ... : ... .. . ... : ... .. . ... : ... .. . ... ...
ROW AD : ... .. A ... ... ... : ... .. A ... ... ... : ... .. . ... : ... .. . ... : ... .. . ... ...
ROW AE : ... .. 9 ... ... ... : ... .. 9 ... ... ... : ... .. . ... : ... .. . ... : ... .. . ... ...
ROW AF : ... .. 8 ... ... ... : ... .. 8 ... ... ... : ... .. . ... : ... .. . ... : ... .. . ... ...
ROW B0 : ... .. 7 ... ... ... : ... .. 7 ... ... ... : ... .. . ... : ... .. . ... : ... .. . ... ...
ROW B1 : ... .. 6 ... ... ... : ... .. 6 ... ... ... : ... .. . ... : ... .. . ... : ... .. . ... ...
ROW B2 : D#3 00 B P80 ... ... : D#4 00 B P83 ... ... : F-3 00 . ... : 6-# 00 F ... : ... .. . ... ...
ROW B3 : ... .. A ... ... ... : ... .. A ... ... ... : ... .. . ... : ... .. D ... : ... .. . ... ...
ROW B4 : ... .. 9 ... ... ... : ... .. 9 ... ... ... : ... .. . ... : ... .. 9 ... : ... .. . ... ...
ROW B5 : ... .. 8 ... ... ... : ... .. 8 ... ... ... : ... .. . ... : ... .. 5 ... : ... .. . ... ...
ROW B6 : ... .. 7 ... ... ... : ... .. 7 ... ... ... : ... .. . ... : ... .. 1 ... : ... .. . ... ...
ROW B7 : ... .. 6 ... ... ... : ... .. 6 ... ... ... : ... .. . ... : ... .. 0 ... : ... .. . ... ...
ROW B8 : ... .. 1 ... ... ... : ... .. 1 ... ... ... : ... .. . ... : F-# 00 0 ... : ... .. . ... ...
ROW B9 : ... .. . ... ... ... : ... .. . ... ... ... : ... .. . ... : ... .. . ... : ... .. . ... ...
ROW BA : ... .. . ... ... ... : ... .. . ... ... ... : ... .. . ... : ... .. . ... : ... .. . ... ...
ROW BB : ... .. . ... ... ... : ... .. . ... ... ... : --- .. . ... : ... .. . ... : ... .. . ... ...
ROW BC : ... .. . ... ... ... : ... .. . ... ... ... : ... .. . ... : ... .. . ... : ... .. . ... ...
ROW BD : ... .. . ... ... ... : ... .. . ... ... ... : ... .. . ... : ... .. . ... : ... .. . ... ...
ROW BE : B-3 00 B P80 ... ... : B-4 00 B P82 ... ... : ... .. . ... : 6-# 00 C ... : ... .. . ... ...
ROW BF : ... .. A ... ... ... : ... .. A ... ... ... : ... .. . ... : ... .. 8 ... : ... .. . ... ...
ROW C0 : ... .. . ... ... ... : ... .. . ... ... ... : ... .. . ... : ... .. . ... : ... .. . ... ...
ROW C1 : ... .. . ... ... ... : ... .. . ... ... ... : --- .. . ... : ... .. . ... : ... .. . ... ...
ROW C2 : ... .. . ... ... ... : ... .. . ... ... ... : ... .. . ... : ... .. . ... : ... .. . ... ...
ROW C3 : ... .. . ... ... ... : ... .. . ... ... ... : ... .. . ... : ... .. . ... : ... .. . ... ...
ROW C4 : ... .. . ... ... ... : ... .. . ... ... ... : ... .. . ... : ... .. . ... : ... .. . ... ...
ROW C5 : ... .. . ... ... ... : ... .. . ... ... ... : ... .. . ... : ... .. . ... : ... .. . ... ...
ROW C6 : ... .. . ... ... ... : ... .. . ... ... ... : ... .. . ... : ... .. . ... : ... .. . ... ...
ROW C7 : ... .. . ... ... ... : ... .. . ... ... ... : ... .. . ... : ... .. . ... : ... .. . ... ...
ROW C8 : ... .. . ... ... ... : ... .. . ... ... ... : ... .. . ... : ... .. . ... : ... .. . ... ...
ROW C9 : ... .. . ... ... ... : ... .. . ... ... ... : ... .. . ... : ... .. . ... : ... .. . ... ...
ROW CA : G#3 00 B P80 ... ... : G#4 00 B P83 ... ... : C#3 00 . ... : 6-# 00 F ... : ... .. . ... ...
ROW CB : ... .. A ... ... ... : ... .. A ... ... ... : ... .. . ... : ... .. D ... : ... .. . ... ...
ROW CC : ... .. 9 ... ... ... : ... .. 9 ... ... ... : ... .. . ... : ... .. 9 ... : ... .. . ... ...
ROW CD : ... .. 8 ... ... ... : ... .. 8 ... ... ... : ... .. . ... : ... .. 5 ... : ... .. . ... ...
ROW CE : ... .. 7 ... ... ... : ... .. 7 ... ... ... : ... .. . ... : ... .. 1 ... : ... .. . ... ...
ROW CF : ... .. 6 ... ... ... : ... .. 6 ... ... ... : ... .. . ... : ... .. 0 ... : ... .. . ... ...
ROW D0 : ... .. 5 ... ... ... : ... .. 5 ... ... ... : ... .. . ... : F-# 00 0 ... : ... .. . ... ...
ROW D1 : ... .. 4 ... ... ... : ... .. 4 ... ... ... : ... .. . ... : ... .. . ... : ... .. . ... ...
ROW D2 : ... .. 3 ... ... ... : ... .. 3 ... ... ... : ... .. . ... : ... .. . ... : ... .. . ... ...
ROW D3 : ... .. 2 ... ... ... : ... .. 2 ... ... ... : --- .. . ... : ... .. . ... : ... .. . ... ...
ROW D4 : ... .. 1 ... ... ... : ... .. 1 ... ... ... : ... .. . ... : ... .. . ... : ... .. . ... ...
ROW D5 : ... .. . ... ... ... : ... .. . ... ... ... : ... .. . ... : ... .. . ... : ... .. . ... ...
ROW D6 : ... .. . ... ... ... : ... .. . ... ... ... : ... .. . ... : 6-# 00 C ... : ... .. . ... ...
ROW D7 : ... .. . ... ... ... : ... .. . ... ... ... : ... .. . ... : ... .. 8 ... : ... .. . ... ...
ROW D8 : ... .. 3 ... ... ... : ... .. 3 ... ... ... : ... .. . ... : ... .. . ... : ... .. . ... ...
ROW D9 : ... .. 2 ... ... ... : ... .. 2 ... ... ... : --- .. . ... : ... .. . ... : ... .. . ... ...
ROW DA : ... .. 1 ... ... ... : ... .. 1 ... ... ... : ... .. . ... : ... .. . ... : ... .. . ... ...
ROW DB : ... .. . ... ... ... : ... .. . ... ... ... : ... .. . ... : ... .. . ... : ... .. . ... ...
ROW DC : ... .. . ... ... ... : ... .. . ... ... ... : ... .. . ... : ... .. . ... : ... .. . ... ...
ROW DD : ... .. . ... ... ... : ... .. . ... ... ... : ... .. . ... : ... .. . ... : ... .. . ... ...
ROW DE : ... .. . ... ... ... : ... .. . ... ... ... : ... .. . ... : ... .. . ... : ... .. . ... ...
ROW DF : ... .. . ... ... ... : ... .. . ... ... ... : ... .. . ... : ... .. . ... : ... .. . ... ...
ROW E0 : ... .. . ... ... ... : ... .. . ... ... ... : ... .. . ... : ... .. . ... : ... .. . ... ...
ROW E1 : ... .. . ... ... ... : ... .. . ... ... ... : ... .. . ... : ... .. . ... : ... .. . ... ...
ROW E2 : D#3 00 B P80 ... ... : D#4 00 B P83 ... ... : G#2 00 . ... : 6-# 00 F ... : ... .. . ... ...
ROW E3 : ... .. A ... ... ... : ... .. A ... ... ... : ... .. . ... : ... .. D ... : ... .. . ... ...
ROW E4 : ... .. 9 ... ... ... : ... .. 9 ... ... ... : ... .. . ... : ... .. 9 ... : ... .. . ... ...
ROW E5 : ... .. 8 ... ... ... : ... .. 8 ... ... ... : ... .. . ... : ... .. 5 ... : ... .. . ... ...
ROW E6 : ... .. 7 ... ... ... : ... .. 7 ... ... ... : ... .. . ... : ... .. 1 ... : ... .. . ... ...
ROW E7 : ... .. 6 ... ... ... : ... .. 6 ... ... ... : ... .. . ... : ... .. 0 ... : ... .. . ... ...
ROW E8 : ... .. 5 ... ... ... : ... .. 5 ... ... ... : ... .. . ... : F-# 00 0 ... : ... .. . ... ...
ROW E9 : ... .. 4 ... ... ... : ... .. 4 ... ... ... : ... .. . ... : ... .. . ... : ... .. . ... ...
ROW EA : ... .. 3 ... ... ... : ... .. 3 ... ... ... : ... .. . ... : ... .. . ... : ... .. . ... ...
ROW EB : ... .. 2 ... ... ... : ... .. 2 ... ... ... : --- .. . ... : ... .. . ... : ... .. . ... ...
ROW EC : ... .. 1 ... ... ... : ... .. 1 ... ... ... : ... .. . ... : ... .. . ... : ... .. . ... ...
ROW ED : ... .. . ... ... ... : ... .. . ... ... ... : ... .. . ... : ... .. . ... : ... .. . ... ...
ROW EE : ... .. . ... ... ... : ... .. . ... ... ... : ... .. . ... : 6-# 00 C ... : ... .. . ... ...
ROW EF : ... .. . ... ... ... : ... .. . ... ... ... : ... .. . ... : ... .. 8 ... : ... .. . ... ...
ROW F0 : ... .. 9 ... ... ... : ... .. 9 ... ... ... : ... .. . ... : ... .. . ... : ... .. . ... ...
ROW F1 : ... .. 8 ... ... ... : ... .. 8 ... ... ... : --- .. . ... : ... .. . ... : ... .. . ... ...
ROW F2 : C#3 00 B P80 ... ... : C#4 00 B P82 ... ... : ... .. . ... : ... .. . ... : ... .. . ... ...
ROW F3 : ... .. A ... ... ... : ... .. A ... ... ... : ... .. . ... : ... .. . ... : ... .. . ... ...
ROW F4 : ... .. 9 ... ... ... : ... .. 9 ... ... ... : ... .. . ... : ... .. . ... : ... .. . ... ...
ROW F5 : ... .. 8 ... ... ... : ... .. 8 ... ... ... : ... .. . ... : ... .. . ... : ... .. . ... ...
ROW F6 : C-3 00 B P80 ... ... : C-4 00 B P83 ... ... : ... .. . ... : ... .. . ... : ... .. . ... ...
ROW F7 : ... .. A ... ... ... : ... .. A ... ... ... : ... .. . ... : ... .. . ... : ... .. . ... ...
ROW F8 : ... .. 9 ... ... ... : ... .. 9 ... ... ... : ... .. . ... : ... .. . ... : ... .. . ... ...
ROW F9 : ... .. 8 ... ... ... : ... .. 8 ... ... ... : ... .. . ... : ... .. . ... : ... .. . ... ...
ROW FA : B-2 00 B P80 ... ... : B-3 00 B P82 ... ... : B-2 00 . P80 : 6-# 00 F ... : ... .. . ... ...
ROW FB : ... .. A ... ... ... : ... .. A ... ... ... : ... .. . ... : ... .. D ... : ... .. . ... ...
ROW FC : ... .. 9 ... ... ... : ... .. 9 ... ... ... : ... .. . ... : ... .. 9 ... : ... .. . ... ...
ROW FD : ... .. 8 ... ... ... : ... .. 8 ... ... ... : ... .. . ... : ... .. 5 ... : ... .. . ... ...
ROW FE : ... .. 7 ... ... ... : ... .. 7 ... ... ... : ... .. . ... : ... .. 1 ... : ... .. . ... ...
ROW FF : ... .. 6 ... ... ... : ... .. 6 ... ... ... : ... .. . ... : ... .. 0 ... : ... .. . ... ...

PATTERN 28
ROW 00 : ... .. 1 ... ... ... : ... .. 1 ... ... ... : ... .. . ... : F-# 00 0 ... : ... .. . ... ...
ROW 01 : ... .. . ... ... ... : ... .. . ... ... ... : ... .. . ... : ... .. . ... : ... .. . ... ...
ROW 02 : ... .. . ... ... ... : ... .. . ... ... ... : ... .. . ... : ... .. . ... : ... .. . ... ...
ROW 03 : ... .. . ... ... ... : ... .. . ... ... ... : --- .. . ... : ... .. . ... : ... .. . ... ...
ROW 04 : ... .. . ... ... ... : ... .. . ... ... ... : ... .. . ... : ... .. . ... : ... .. . ... ...
ROW 05 : ... .. . ... ... ... : ... .. . ... ... ... : ... .. . ... : ... .. . ... : ... .. . ... ...
ROW 06 : C-3 00 B P80 ... ... : C-4 00 B P83 ... ... : ... .. . ... : 6-# 00 C ... : ... .. . ... ...
ROW 07 : ... .. A ... ... ... : ... .. A ... ... ... : ... .. . ... : ... .. 8 ... : ... .. . ... ...
ROW 08 : ... .. . ... ... ... : ... .. . ... ... ... : ... .. . ... : ... .. . ... : ... .. . ... ...
ROW 09 : ... .. . ... ... ... : ... .. . ... ... ... : --- .. . ... : ... .. . ... : ... .. . ... ...
ROW 0A : ... .. . ... ... ... : ... .. . ... ... ... : ... .. . ... : ... .. . ... : ... .. . ... ...
ROW 0B : ... .. . ... ... ... : ... .. . ... ... ... : ... .. . ... : ... .. . ... : ... .. . ... ...
ROW 0C : C-3 00 B P80 ... ... : C-4 00 B P83 ... ... : ... .. . ... : ... .. . ... : ... .. . ... ...
ROW 0D : ... .. A ... ... ... : ... .. A ... ... ... : ... .. . ... : ... .. . ... : ... .. . ... ...
ROW 0E : ... .. 9 ... ... ... : ... .. 9 ... ... ... : ... .. . ... : ... .. . ... : ... .. . ... ...
ROW 0F : ... .. 8 ... ... ... : ... .. 8 ... ... ... : ... .. . ... : ... .. . ... : ... .. . ... ...
ROW 10 : ... .. 7 ... ... ... : ... .. 7 ... ... ... : ... .. . ... : ... .. . ... : ... .. . ... ...
ROW 11 : ... .. 6 ... ... ... : ... .. 6 ... ... ... : ... .. . ... : ... .. . ... : ... .. . ... ...
ROW 12 : B-2 00 B P80 ... ... : B-3 00 B P82 ... ... : C#3 00 . ... : 6-# 00 F ... : ... .. . ... ...
ROW 13 : ... .. A ... ... ... : ... .. A ... ... ... : ... .. . ... : ... .. D ... : ... .. . ... ...
ROW 14 : ... .. 9 ... ... ... : ... .. 9 ... ... ... : ... .. . ... : ... .. 9 ... : ... .. . ... ...
ROW 15 : ... .. 8 ... ... ... : ... .. 8 ... ... ... : ... .. . ... : ... .. 5 ... : ... .. . ... ...
ROW 16 : ... .. 7 ... ... ... : ... .. 7 ... ... ... : ... .. . ... : ... .. 1 ... : ... .. . ... ...
ROW 17 : ... .. 6 ... ... ... : ... .. 6 ... ... ... : ... .. . ... : ... .. 0 ... : ... .. . ... ...
ROW 18 : ... .. 1 ... ... ... : ... .. 1 ... ... ... : ... .. . ... : F-# 00 0 ... : ... .. . ... ...
ROW 19 : ... .. . ... ... ... : ... .. . ... ... ... : ... .. . ... : ... .. . ... : ... .. . ... ...
ROW 1A : ... .. . ... ... ... : ... .. . ... ... ... : ... .. . ... : ... .. . ... : ... .. . ... ...
ROW 1B : ... .. . ... ... ... : ... .. . ... ... ... : --- .. . ... : ... .. . ... : ... .. . ... ...
ROW 1C : ... .. . ... ... ... : ... .. . ... ... ... : ... .. . ... : ... .. . ... : ... .. . ... ...
ROW 1D : ... .. . ... ... ... : ... .. . ... ... ... : ... .. . ... : ... .. . ... : ... .. . ... ...
ROW 1E : C-3 00 B P80 ... ... : C-4 00 B P83 ... ... : ... .. . ... : 6-# 00 C ... : ... .. . ... ...
ROW 1F : ... .. A ... ... ... : ... .. A ... ... ... : ... .. . ... : ... .. 8 ... : ... .. . ... ...
ROW 20 : ... .. . ... ... ... : ... .. . ... ... ... : ... .. . ... : ... .. . ... : ... .. . ... ...
ROW 21 : ... .. . ... ... ... : ... .. . ... ... ... : --- .. . ... : ... .. . ... : ... .. . ... ...
ROW 22 : ... .. . ... ... ... : ... .. . ... ... ... : ... .. . ... : ... .. . ... : ... .. . ... ...
ROW 23 : ... .. . ... ... ... : ... .. . ... ... ... : ... .. . ... : ... .. . ... : ... .. . ... ...
ROW 24 : ... .. . ... ... ... : ... .. . ... ... ... : ... .. . ... : ... .. . ... : ... .. . ... ...
ROW 25 : ... .. . ... ... ... : ... .. . ... ... ... : ... .. . ... : ... .. . ... : ... .. . ... ...
ROW 26 : ... .. . ... ... ... : ... .. . ... ... ... : ... .. . ... : ... .. . ... : ... .. . ... ...
ROW 27 : ... .. . ... ... ... : ... .. . ... ... ... : ... .. . ... : ... .. . ... : ... .. . ... ...
ROW 28 : ... .. . ... ... ... : ... .. . ... ... ... : ... .. . ... : ... .. . ... : ... .. . ... ...
ROW 29 : ... .. . ... ... ... : ... .. . ... ... ... : ... .. . ... : ... .. . ... : ... .. . ... ...
ROW 2A : ... .. . ... ... ... : ... .. . ... ... ... : C-3 00 . ... : 6-# 00 F ... : ... .. . ... ...
ROW 2B : ... .. . ... ... ... : ... .. . ... ... ... : ... .. . ... : ... .. D ... : ... .. . ... ...
ROW 2C : ... .. . ... ... ... : ... .. . ... ... ... : ... .. . ... : ... .. 9 ... : ... .. . ... ...
ROW 2D : ... .. . ... ... ... : ... .. . ... ... ... : ... .. . ... : ... .. 5 ... : ... .. . ... ...
ROW 2E : ... .. . ... ... ... : ... .. . ... ... ... : ... .. . ... : ... .. 1 ... : ... .. . ... ...
ROW 2F : ... .. . ... ... ... : ... .. . ... ... ... : ... .. . ... : ... .. 0 ... : ... .. . ... ...
ROW 30 : ... .. . ... ... ... : ... .. . ... ... ... : ... .. . ... : F-# 00 0 ... : ... .. . ... ...
ROW 31 : ... .. . ... ... ... : ... .. . ... ... ... : ... .. . ... : ... .. . ... : ... .. . ... ...
ROW 32 : ... .. . ... ... ... : ... .. . ... ... ... : ... .. . ... : ... .. . ... : ... .. . ... ...
ROW 33 : ... .. . ... ... ... : ... .. . ... ... ... : --- .. . ... : ... .. . ... : ... .. . ... ...
ROW 34 : ... .. . ... ... ... : ... .. . ... ... ... : ... .. . ... : ... .. . ... : ... .. . ... ...
ROW 35 : ... .. . ... ... ... : ... .. . ... ... ... : ... .. . ... : ... .. . ... : ... .. . ... ...
ROW 36 : C-3 00 B P80 ... ... : C-4 00 B P83 ... ... : ... .. . ... : 6-# 00 C ... : ... .. . ... ...
ROW 37 : ... .. A ... ... ... : ... .. A ... ... ... : ... .. . ... : ... .. 8 ... : ... .. . ... ...
ROW 38 : ... .. 3 ... ... ... : ... .. 3 ... ... ... : ... .. . ... : ... .. . ... : ... .. . ... ...
ROW 39 : ... .. 2 ... ... ... : ... .. 2 ... ... ... : --- .. . ... : ... .. . ... : ... .. . ... ...
ROW 3A : ... .. 1 ... ... ... : ... .. 1 ... ... ... : ... .. . ... : ... .. . ... : ... .. . ... ...
ROW 3B : ... .. . ... ... ... : ... .. . ... ... ... : ... .. . ... : ... .. . ... : ... .. . ... ...
ROW 3C : ... .. . ... ... ... : ... .. . ... ... ... : ... .. . ... : ... .. . ... : ... .. . ... ...
ROW 3D : ... .. . ... ... ... : ... .. . ... ... ... : ... .. . ... : ... .. . ... : ... .. . ... ...
ROW 3E : ... .. . ... ... ... : ... .. . ... ... ... : ... .. . ... : ... .. . ... : ... .. . ... ...
ROW 3F : ... .. . ... ... ... : ... .. . ... ... ... : ... .. . ... : ... .. . ... : ... .. . ... ...
ROW 40 : ... .. . ... ... ... : ... .. . ... ... ... : ... .. . ... : ... .. . ... : ... .. . ... ...
ROW 41 : ... .. . ... ... ... : ... .. . ... ... ... : ... .. . ... : ... .. . ... : ... .. . ... ...
ROW 42 : C-3 00 B P80 ... ... : C-4 00 B P83 ... ... : G#2 00 . P7F : 6-# 00 F ... : ... .. . ... ...
ROW 43 : ... .. A ... ... ... : ... .. A ... ... ... : ... .. . ... : ... .. D ... : ... .. . ... ...
ROW 44 : ... .. 9 ... ... ... : ... .. 9 ... ... ... : ... .. . ... : ... .. 9 ... : ... .. . ... ...
ROW 45 : ... .. 8 ... ... ... : ... .. 8 ... ... ... : ... .. . ... : ... .. 5 ... : ... .. . ... ...
ROW 46 : ... .. 7 ... ... ... : ... .. 7 ... ... ... : ... .. . ... : ... .. 1 ... : ... .. . ... ...
ROW 47 : ... .. 6 ... ... ... : ... .. 6 ... ... ... : ... .. . ... : ... .. 0 ... : ... .. . ... ...
ROW 48 : ... .. 5 ... ... ... : ... .. 5 ... ... ... : ... .. . ... : F-# 00 0 ... : ... .. . ... ...
ROW 49 : ... .. 4 ... ... ... : ... .. 4 ... ... ... : ... .. . ... : ... .. . ... : ... .. . ... ...
ROW 4A : ... .. 3 ... ... ... : ... .. 3 ... ... ... : ... .. . ... : ... .. . ... : ... .. . ... ...
ROW 4B : ... .. 2 ... ... ... : ... .. 2 ... ... ... : --- .. . ... : ... .. . ... : ... .. . ... ...
ROW 4C : ... .. 1 ... ... ... : ... .. 1 ... ... ... : ... .. . ... : ... .. . ... : ... .. . ... ...
ROW 4D : ... .. . ... ... ... : ... .. . ... ... ... : ... .. . ... : ... .. . ... : ... .. . ... ...
ROW 4E : ... .. . ... ... ... : ... .. . ... ... ... : ... .. . ... : 6-# 00 C ... : ... .. . ... ...
ROW 4F : ... .. . ... ... ... : ... .. . ... ... ... : ... .. . ... : ... .. 8 ... : ... .. . ... ...
ROW 50 : ... .. . ... ... ... : ... .. . ... ... ... : ... .. . ... : ... .. . ... : ... .. . ... ...
ROW 51 : ... .. . ... ... ... : ... .. . ... ... ... : --- .. . ... : ... .. . ... : ... .. . ... ...
ROW 52 : ... .. . ... ... ... : ... .. . ... ... ... : ... .. . ... : ... .. . ... : ... .. . ... ...
ROW 53 : ... .. . ... ... ... : ... .. . ... ... ... : ... .. . ... : ... .. . ... : ... .. . ... ...
ROW 54 : C#3 00 B P80 ... ... : C#4 00 B P82 ... ... : ... .. . ... : ... .. . ... : ... .. . ... ...
ROW 55 : ... .. A ... ... ... : ... .. A ... ... ... : ... .. . ... : ... .. . ... : ... .. . ... ...
ROW 56 : ... .. 9 ... ... ... : ... .. 9 ... ... ... : ... .. . ... : ... .. . ... : ... .. . ... ...
ROW 57 : ... .. 8 ... ... ... : ... .. 8 ... ... ... : ... .. . ... : ... .. . ... : ... .. . ... ...
ROW 58 : ... .. 7 ... ... ... : ... .. 7 ... ... ... : ... .. . ... : ... .. . ... : ... .. . ... ...
ROW 59 : ... .. 6 ... ... ... : ... .. 6 ... ... ... : ... .. . ... : ... .. . ... : ... .. . ... ...
ROW 5A : ... .. 5 ... ... ... : ... .. 5 ... ... ... : D#3 00 . ... : 6-# 00 F ... : ... .. . ... ...
ROW 5B : ... .. 4 ... ... ... : ... .. 4 ... ... ... : ... .. . ... : ... .. D ... : ... .. . ... ...
ROW 5C : ... .. 3 ... ... ... : ... .. 3 ... ... ... : ... .. . ... : ... .. 9 ... : ... .. . ... ...
ROW 5D : ... .. 2 ... ... ... : ... .. 2 ... ... ... : ... .. . ... : ... .. 5 ... : ... .. . ... ...
ROW 5E : ... .. 1 ... ... ... : ... .. 1 ... ... ... : ... .. . ... : ... .. 1 ... : ... .. . ... ...
ROW 5F : ... .. . ... ... ... : ... .. . ... ... ... : ... .. . ... : ... .. 0 ... : ... .. . ... ...
ROW 60 : ... .. . ... ... ... : ... .. . ... ... ... : ... .. . ... : F-# 00 0 ... : ... .. . ... ...
ROW 61 : ... .. . ... ... ... : ... .. . ... ... ... : ... .. . ... : ... .. . ... : ... .. . ... ...
ROW 62 : ... .. . ... ... ... : ... .. . ... ... ... : ... .. . ... : ... .. . ... : ... .. . ... ...
ROW 63 : ... .. . ... ... ... : ... .. . ... ... ... : --- .. . ... : ... .. . ... : ... .. . ... ...
ROW 64 : ... .. . ... ... ... : ... .. . ... ... ... : ... .. . ... : ... .. . ... : ... .. . ... ...
ROW 65 : ... .. . ... ... ... : ... .. . ... ... ... : ... .. . ... : ... .. . ... : ... .. . ... ...
ROW 66 : ... .. . ... ... ... : ... .. . ... ... ... : ... .. . ... : 6-# 00 C ... : ... .. . ... ...
ROW 67 : ... .. . ... ... ... : ... .. . ... ... ... : ... .. . ... : ... .. 8 ... : ... .. . ... ...
ROW 68 : ... .. 3 ... ... ... : ... .. 3 ... ... ... : ... .. . ... : ... .. . ... : ... .. . ... ...
ROW 69 : ... .. 2 ... ... ... : ... .. 2 ... ... ... : --- .. . ... : ... .. . ... : ... .. . ... ...
ROW 6A : ... .. 1 ... ... ... : ... .. 1 ... ... ... : ... .. . ... : ... .. . ... : ... .. . ... ...
ROW 6B : ... .. . ... ... ... : ... .. . ... ... ... : ... .. . ... : ... .. . ... : ... .. . ... ...
ROW 6C : ... .. . ... ... ... : ... .. . ... ... ... : ... .. . ... : ... .. . ... : ... .. . ... ...
ROW 6D : ... .. . ... ... ... : ... .. . ... ... ... : ... .. . ... : ... .. . ... : ... .. . ... ...
ROW 6E : ... .. . ... ... ... : ... .. . ... ... ... : ... .. . ... : ... .. . ... : ... .. . ... ...
ROW 6F : ... .. . ... ... ... : ... .. . ... ... ... : ... .. . ... : ... .. . ... : ... .. . ... ...
ROW 70 : ... .. . ... ... ... : ... .. . ... ... ... : ... .. . ... : ... .. . ... : ... .. . ... ...
ROW 71 : ... .. . ... ... ... : ... .. . ... ... ... : ... .. . ... : ... .. . ... : ... .. . ... ...
ROW 72 : C#3 00 B P80 ... ... : C#4 00 B P82 ... ... : G#3 00 . ... : 6-# 00 F ... : ... .. . ... ...
ROW 73 : ... .. A ... ... ... : ... .. A ... ... ... : ... .. . ... : ... .. D ... : ... .. . ... ...
ROW 74 : ... .. 9 ... ... ... : ... .. 9 ... ... ... : ... .. . ... : ... .. 9 ... : ... .. . ... ...
ROW 75 : ... .. 8 ... ... ... : ... .. 8 ... ... ... : ... .. . ... : ... .. 5 ... : ... .. . ... ...
ROW 76 : ... .. 7 ... ... ... : ... .. 7 ... ... ... : ... .. . ... : ... .. 1 ... : ... .. . ... ...
ROW 77 : ... .. 6 ... ... ... : ... .. 6 ... ... ... : ... .. . ... : ... .. 0 ... : ... .. . ... ...
ROW 78 : ... .. 1 ... ... ... : ... .. 1 ... ... ... : ... .. . ... : F-# 00 0 ... : ... .. . ... ...
ROW 79 : ... .. . ... ... ... : ... .. . ... ... ... : ... .. . ... : ... .. . ... : ... .. . ... ...
ROW 7A : ... .. . ... ... ... : ... .. . ... ... ... : ... .. . ... : ... .. . ... : ... .. . ... ...
ROW 7B : ... .. . ... ... ... : ... .. . ... ... ... : --- .. . ... : ... .. . ... : ... .. . ... ...
ROW 7C : ... .. . ... ... ... : ... .. . ... ... ... : ... .. . ... : ... .. . ... : ... .. . ... ...
ROW 7D : ... .. . ... ... ... : ... .. . ... ... ... : ... .. . ... : ... .. . ... : ... .. . ... ...
ROW 7E : G#3 00 B P80 ... ... : G#4 00 B P82 ... ... : ... .. . ... : 6-# 00 C ... : ... .. . ... ...
ROW 7F : ... .. A ... ... ... : ... .. A ... ... ... : ... .. . ... : ... .. 8 ... : ... .. . ... ...
ROW 80 : ... .. . ... ... ... : ... .. . ... ... ... : ... .. . ... : ... .. . ... : ... .. . ... ...
ROW 81 : ... .. . ... ... ... : ... .. . ... ... ... : --- .. . ... : ... .. . ... : ... .. . ... ...
ROW 82 : ... .. . ... ... ... : ... .. . ... ... ... : ... .. . ... : ... .. . ... : ... .. . ... ...
ROW 83 : ... .. . ... ... ... : ... .. . ... ... ... : ... .. . ... : ... .. . ... : ... .. . ... ...
ROW 84 : ... .. . ... ... ... : ... .. . ... ... ... : ... .. . ... : ... .. . ... : ... .. . ... ...
ROW 85 : ... .. . ... ... ... : ... .. . ... ... ... : ... .. . ... : ... .. . ... : ... .. . ... ...
ROW 86 : ... .. . ... ... ... : ... .. . ... ... ... : ... .. . ... : ... .. . ... : ... .. . ... ...
ROW 87 : ... .. . ... ... ... : ... .. . ... ... ... : ... .. . ... : ... .. . ... : ... .. . ... ...
ROW 88 : ... .. . ... ... ... : ... .. . ... ... ... : ... .. . ... : ... .. . ... : ... .. . ... ...
ROW 89 : ... .. . ... ... ... : ... .. . ... ... ... : ... .. . ... : ... .. . ... : ... .. . ... ...
ROW 8A : F#3 00 B P80 ... ... : F#4 00 B P82 ... ... : G#2 00 . P7F : 6-# 00 F ... : ... .. . ... ...
ROW 8B : ... .. A ... ... ... : ... .. A ... ... ... : ... .. . ... : ... .. D ... : ... .. . ... ...
ROW 8C : ... .. 9 ... ... ... : ... .. 9 ... ... ... : ... .. . ... : ... .. 9 ... : ... .. . ... ...
ROW 8D : ... .. 8 ... ... ... : ... .. 8 ... ... ... : ... .. . ... : ... .. 5 ... : ... .. . ... ...
ROW 8E : ... .. 7 ... ... ... : ... .. 7 ... ... ... : ... .. . ... : ... .. 1 ... : ... .. . ... ...
ROW 8F : ... .. 6 ... ... ... : ... .. 6 ... ... ... : ... .. . ... : ... .. 0 ... : ... .. . ... ...
ROW 90 : ... .. 5 ... ... ... : ... .. 5 ... ... ... : ... .. . ... : F-# 00 0 ... : ... .. . ... ...
ROW 91 : ... .. 4 ... ... ... : ... .. 4 ... ... ... : ... .. . ... : ... .. . ... : ... .. . ... ...
ROW 92 : ... .. 3 ... ... ... : ... .. 3 ... ... ... : ... .. . ... : ... .. . ... : ... .. . ... ...
ROW 93 : ... .. 2 ... ... ... : ... .. 2 ... ... ... : --- .. . ... : ... .. . ... : ... .. . ... ...
ROW 94 : ... .. 1 ... ... ... : ... .. 1 ... ... ... : ... .. . ... : ... .. . ... : ... .. . ... ...
ROW 95 : ... .. . ... ... ... : ... .. . ... ... ... : ... .. . ... : ... .. . ... : ... .. . ... ...
ROW 96 : ... .. . ... ... ... : ... .. . ... ... ... : ... .. . ... : 6-# 00 C ... : ... .. . ... ...
ROW 97 : ... .. . ... ... ... : ... .. . ... ... ... : ... .. . ... : ... .. 8 ... : ... .. . ... ...
ROW 98 : ... .. 3 ... ... ... : ... .. 3 ... ... ... : ... .. . ... : ... .. . ... : ... .. . ... ...
ROW 99 : ... .. 2 ... ... ... : ... .. 2 ... ... ... : --- .. . ... : ... .. . ... : ... .. . ... ...
ROW 9A : ... .. 1 ... ... ... : ... .. 1 ... ... ... : ... .. . ... : ... .. . ... : ... .. . ... ...
ROW 9B : ... .. . ... ... ... : ... .. . ... ... ... : ... .. . ... : ... .. . ... : ... .. . ... ...
ROW 9C : ... .. . ... ... ... : ... .. . ... ... ... : ... .. . ... : ... .. . ... : ... .. . ... ...
ROW 9D : ... .. . ... ... ... : ... .. . ... ... ... : ... .. . ... : ... .. . ... : ... .. . ... ...
ROW 9E : ... .. . ... ... ... : ... .. . ... ... ... : ... .. . ... : ... .. . ... : ... .. . ... ...
ROW 9F : ... .. . ... ... ... : ... .. . ... ... ... : ... .. . ... : ... .. . ... : ... .. . ... ...
ROW A0 : ... .. . ... ... ... : ... .. . ... ... ... : ... .. . ... : ... .. . ... : ... .. . ... ...
ROW A1 : ... .. . ... ... ... : ... .. . ... ... ... : ... .. . ... : ... .. . ... : ... .. . ... ...
ROW A2 : G#3 00 B P80 ... ... : G#4 00 B P82 ... ... : F#3 00 . ... : 6-# 00 F ... : ... .. . ... ...
ROW A3 : ... .. A ... ... ... : ... .. A ... ... ... : ... .. . ... : ... .. D ... : ... .. . ... ...
ROW A4 : ... .. 9 ... ... ... : ... .. 9 ... ... ... : ... .. . ... : ... .. 9 ... : ... .. . ... ...
ROW A5 : ... .. 8 ... ... ... : ... .. 8 ... ... ... : ... .. . ... : ... .. 5 ... : ... .. . ... ...
ROW A6 : ... .. 7 ... ... ... : ... .. 7 ... ... ... : ... .. . ... : ... .. 1 ... : ... .. . ... ...
ROW A7 : ... .. 6 ... ... ... : ... .. 6 ... ... ... : ... .. . ... : ... .. 0 ... : ... .. . ... ...
ROW A8 : ... .. 5 ... ... ... : ... .. 5 ... ... ... : ... .. . ... : F-# 00 0 ... : ... .. . ... ...
ROW A9 : ... .. 4 ... ... ... : ... .. 4 ... ... ... : ... .. . ... : ... .. . ... : ... .. . ... ...
ROW AA : ... .. 3 ... ... ... : ... .. 3 ... ... ... : ... .. . ... : ... .. . ... : ... .. . ... ...
ROW AB : ... .. 2 ... ... ... : ... .. 2 ... ... ... : --- .. . ... : ... .. . ... : ... .. . ... ...
ROW AC : ... .. 1 ... ... ... : ... .. 1 ... ... ... : ... .. . ... : ... .. . ... : ... .. . ... ...
ROW AD : ... .. . ... ... ... : ... .. . ... ... ... : ... .. . ... : ... .. . ... : ... .. . ... ...
ROW AE : ... .. . ... ... ... : ... .. . ... ... ... : ... .. . ... : 6-# 00 C ... : ... .. . ... ...
ROW AF : ... .. . ... ... ... : ... .. . ... ... ... : ... .. . ... : ... .. 8 ... : ... .. . ... ...
ROW B0 : ... .. . ... ... ... : ... .. 3 ... ... ... : ... .. . ... : ... .. . ... : ... .. . ... ...
ROW B1 : ... .. . ... ... ... : ... .. 2 ... ... ... : --- .. . ... : ... .. . ... : ... .. . ... ...
ROW B2 : ... .. . ... ... ... : ... .. 1 ... ... ... : ... .. . ... : ... .. . ... : ... .. . ... ...
ROW B3 : ... .. . ... ... ... : ... .. . ... ... ... : ... .. . ... : ... .. . ... : ... .. . ... ...
ROW B4 : A#3 00 B P81 ... ... : ... .. . ... ... ... : ... .. . ... : ... .. . ... : ... .. . ... ...
ROW B5 : ... .. A ... ... ... : ... .. . ... ... ... : ... .. . ... : ... .. . ... : ... .. . ... ...
ROW B6 : ... .. 9 ... ... ... : ... .. . ... ... ... : ... .. . ... : ... .. . ... : ... .. . ... ...
ROW B7 : ... .. 8 ... ... ... : ... .. . ... ... ... : ... .. . ... : ... .. . ... : ... .. . ... ...
ROW B8 : ... .. 7 ... ... ... : ... .. . ... ... ... : ... .. . ... : ... .. . ... : ... .. . ... ...
ROW B9 : ... .. 6 ... ... ... : ... .. . ... ... ... : ... .. . ... : ... .. . ... : ... .. . ... ...
ROW BA : B-3 00 B P80 ... ... : ... .. . ... ... ... : F-3 00 . ... : 6-# 00 F ... : ... .. . ... ...
ROW BB : ... .. A ... ... ... : ... .. . ... ... ... : ... .. . ... : ... .. D ... : ... .. . ... ...
ROW BC : ... .. 9 ... ... ... : ... .. . ... ... ... : ... .. . ... : ... .. 9 ... : ... .. . ... ...
ROW BD : ... .. 8 ... ... ... : ... .. . ... ... ... : ... .. . ... : ... .. 5 ... : ... .. . ... ...
ROW BE : ... .. 7 ... ... ... : ... .. . ... ... ... : ... .. . ... : ... .. 1 ... : ... .. . ... ...
ROW BF : ... .. 6 ... ... ... : ... .. . ... ... ... : ... .. . ... : ... .. 0 ... : ... .. . ... ...
ROW C0 : ... .. 1 ... ... ... : ... .. . ... ... ... : ... .. . ... : F-# 00 0 ... : ... .. . ... ...
ROW C1 : ... .. . ... ... ... : ... .. . ... ... ... : ... .. . ... : ... .. . ... : ... .. . ... ...
ROW C2 : ... .. . ... ... ... : ... .. . ... ... ... : ... .. . ... : ... .. . ... : ... .. . ... ...
ROW C3 : ... .. . ... ... ... : ... .. . ... ... ... : --- .. . ... : ... .. . ... : ... .. . ... ...
ROW C4 : ... .. . ... ... ... : ... .. . ... ... ... : ... .. . ... : ... .. . ... : ... .. . ... ...
ROW C5 : ... .. . ... ... ... : ... .. . ... ... ... : ... .. . ... : ... .. . ... : ... .. . ... ...
ROW C6 : B-4 00 B P80 ... ... : ... .. . ... ... ... : ... .. . ... : 6-# 00 C ... : ... .. . ... ...
ROW C7 : ... .. A ... ... ... : ... .. . ... ... ... : ... .. . ... : ... .. 8 ... : ... .. . ... ...
ROW C8 : ... .. . ... ... ... : ... .. 3 ... ... ... : ... .. . ... : ... .. . ... : ... .. . ... ...
ROW C9 : ... .. . ... ... ... : ... .. 2 ... ... ... : --- .. . ... : ... .. . ... : ... .. . ... ...
ROW CA : ... .. . ... ... ... : ... .. 1 ... ... ... : ... .. . ... : ... .. . ... : ... .. . ... ...
ROW CB : ... .. . ... ... ... : ... .. . ... ... ... : ... .. . ... : ... .. . ... : ... .. . ... ...
ROW CC : G#3 00 B P80 ... ... : ... .. . ... ... ... : ... .. . ... : ... .. . ... : ... .. . ... ...
ROW CD : ... .. A ... ... ... : ... .. . ... ... ... : ... .. . ... : ... .. . ... : ... .. . ... ...
ROW CE : ... .. 9 ... ... ... : ... .. . ... ... ... : ... .. . ... : ... .. . ... : ... .. . ... ...
ROW CF : ... .. 8 ... ... ... : ... .. . ... ... ... : ... .. . ... : ... .. . ... : ... .. . ... ...
ROW D0 : ... .. 7 ... ... ... : ... .. . ... ... ... : ... .. . ... : ... .. . ... : ... .. . ... ...
ROW D1 : ... .. 6 ... ... ... : ... .. . ... ... ... : ... .. . ... : ... .. . ... : ... .. . ... ...
ROW D2 : G#3 00 B P80 ... ... : ... .. . ... ... ... : B-2 00 . ... : 6-# 00 F ... : ... .. . ... ...
ROW D3 : ... .. A ... ... ... : ... .. . ... ... ... : ... .. . ... : ... .. D ... : ... .. . ... ...
ROW D4 : ... .. 9 ... ... ... : ... .. . ... ... ... : ... .. . ... : ... .. 9 ... : ... .. . ... ...
ROW D5 : ... .. 8 ... ... ... : ... .. . ... ... ... : ... .. . ... : ... .. 5 ... : ... .. . ... ...
ROW D6 : ... .. 7 ... ... ... : ... .. . ... ... ... : ... .. . ... : ... .. 1 ... : ... .. . ... ...
ROW D7 : ... .. 6 ... ... ... : ... .. . ... ... ... : ... .. . ... : ... .. 0 ... : ... .. . ... ...
ROW D8 : ... .. 1 ... ... ... : ... .. . ... ... ... : ... .. . ... : F-# 00 0 ... : ... .. . ... ...
ROW D9 : ... .. . ... ... ... : ... .. . ... ... ... : ... .. . ... : ... .. . ... : ... .. . ... ...
ROW DA : ... .. . ... ... ... : ... .. . ... ... ... : ... .. . ... : ... .. . ... : ... .. . ... ...
ROW DB : ... .. . ... ... ... : ... .. . ... ... ... : --- .. . ... : ... .. . ... : ... .. . ... ...
ROW DC : ... .. . ... ... ... : ... .. . ... ... ... : ... .. . ... : ... .. . ... : ... .. . ... ...
ROW DD : ... .. . ... ... ... : ... .. . ... ... ... : ... .. . ... : ... .. . ... : ... .. . ... ...
ROW DE : G#4 00 B P80 ... ... : ... .. . ... ... ... : ... .. . ... : 6-# 00 C ... : ... .. . ... ...
ROW DF : ... .. A ... ... ... : ... .. . ... ... ... : ... .. . ... : ... .. 8 ... : ... .. . ... ...
ROW E0 : ... .. . ... ... ... : ... .. 3 ... ... ... : ... .. . ... : ... .. . ... : ... .. . ... ...
ROW E1 : ... .. . ... ... ... : ... .. 2 ... ... ... : --- .. . ... : ... .. . ... : ... .. . ... ...
ROW E2 : ... .. . ... ... ... : ... .. 1 ... ... ... : ... .. . ... : ... .. . ... : ... .. . ... ...
ROW E3 : ... .. . ... ... ... : ... .. . ... ... ... : ... .. . ... : ... .. . ... : ... .. . ... ...
ROW E4 : G-3 00 B P80 ... ... : ... .. . ... ... ... : ... .. . ... : ... .. . ... : ... .. . ... ...
ROW E5 : ... .. A ... ... ... : ... .. . ... ... ... : ... .. . ... : ... .. . ... : ... .. . ... ...
ROW E6 : ... .. 9 ... ... ... : ... .. . ... ... ... : ... .. . ... : ... .. . ... : ... .. . ... ...
ROW E7 : ... .. 8 ... ... ... : ... .. . ... ... ... : ... .. . ... : ... .. . ... : ... .. . ... ...
ROW E8 : ... .. 7 ... ... ... : ... .. . ... ... ... : ... .. . ... : ... .. . ... : ... .. . ... ...
ROW E9 : ... .. 6 ... ... ... : ... .. . ... ... ... : ... .. . ... : ... .. . ... : ... .. . ... ...
ROW EA : G#3 00 B P80 ... ... : ... .. . ... ... ... : B-2 00 . ... : 6-# 00 F ... : ... .. . ... ...
ROW EB : ... .. A ... ... ... : ... .. . ... ... ... : ... .. . ... : ... .. D ... : ... .. . ... ...
ROW EC : ... .. 9 ... ... ... : ... .. . ... ... ... : ... .. . ... : ... .. 9 ... : ... .. . ... ...
ROW ED : ... .. 8 ... ... ... : ... .. . ... ... ... : ... .. . ... : ... .. 5 ... : ... .. . ... ...
ROW EE : ... .. 7 ... ... ... : ... .. . ... ... ... : ... .. . ... : ... .. 1 ... : ... .. . ... ...
ROW EF : ... .. 6 ... ... ... : ... .. . ... ... ... : ... .. . ... : ... .. 0 ... : ... .. . ... ...
ROW F0 : ... .. 1 ... ... ... : ... .. . ... ... ... : ... .. . ... : F-# 00 0 ... : ... .. . ... ...
ROW F1 : ... .. . ... ... ... : ... .. . ... ... ... : ... .. . ... : ... .. . ... : ... .. . ... ...
ROW F2 : ... .. . ... ... ... : ... .. . ... ... ... : ... .. . ... : ... .. . ... : ... .. . ... ...
ROW F3 : ... .. . ... ... ... : ... .. . ... ... ... : --- .. . ... : ... .. . ... : ... .. . ... ...
ROW F4 : ... .. . ... ... ... : ... .. . ... ... ... : ... .. . ... : ... .. . ... : ... .. . ... ...
ROW F5 : ... .. . ... ... ... : ... .. . ... ... ... : ... .. . ... : ... .. . ... : ... .. . ... ...
ROW F6 : G#4 00 B P81 ... ... : ... .. . ... ... ... : ... .. . ... : 6-# 00 C ... : ... .. . ... ...
ROW F7 : ... .. A ... ... ... : ... .. . ... ... ... : ... .. . ... : ... .. 8 ... : ... .. . ... ...
ROW F8 : ... .. . ... ... ... : ... .. . ... ... ... : ... .. . ... : ... .. . ... : ... .. . ... ...
ROW F9 : ... .. . ... ... ... : ... .. . ... ... ... : --- .. . ... : ... .. . ... : ... .. . ... ...
ROW FA : ... .. . ... ... ... : ... .. . ... ... ... : ... .. . ... : ... .. . ... : ... .. . ... ...
ROW FB : ... .. . ... ... ... : ... .. . ... ... ... : ... .. . ... : ... .. . ... : ... .. . ... ...
ROW FC : C#3 00 B P80 ... ... : C#4 00 B P82 ... ... : ... .. . ... : ... .. . ... : ... .. . ... ...
ROW FD : ... .. A ... ... ... : ... .. A ... ... ... : ... .. . ... : ... .. . ... : ... .. . ... ...
ROW FE : ... .. 9 ... ... ... : ... .. 9 ... ... ... : ... .. . ... : ... .. . ... : ... .. . ... ...
ROW FF : ... .. 8 ... ... ... : ... .. 8 ... ... ... : ... .. . ... : ... .. . ... : ... .. . ... ...

PATTERN 29
ROW 00 : ... .. 7 ... ... ... : ... .. 7 ... ... ... : ... .. . ... : ... .. . ... : ... .. . ... ...
ROW 01 : ... .. 6 ... ... ... : ... .. 6 ... ... ... : ... .. . ... : ... .. . ... : ... .. . ... ...
ROW 02 : B-2 00 B P80 ... ... : B-3 00 B P82 ... ... : G-2 00 . P80 : 6-# 00 F ... : ... .. . ... ...
ROW 03 : ... .. A ... ... ... : ... .. A ... ... ... : ... .. . ... : ... .. D ... : ... .. . ... ...
ROW 04 : ... .. 9 ... ... ... : ... .. 9 ... ... ... : ... .. . ... : ... .. 9 ... : ... .. . ... ...
ROW 05 : ... .. 8 ... ... ... : ... .. 8 ... ... ... : ... .. . ... : ... .. 5 ... : ... .. . ... ...
ROW 06 : ... .. 7 ... ... ... : ... .. 7 ... ... ... : ... .. . ... : ... .. 1 ... : ... .. . ... ...
ROW 07 : ... .. 6 ... ... ... : ... .. 6 ... ... ... : ... .. . ... : ... .. 0 ... : ... .. . ... ...
ROW 08 : ... .. 1 ... ... ... : ... .. 1 ... ... ... : ... .. . ... : F-# 00 0 ... : ... .. . ... ...
ROW 09 : ... .. . ... ... ... : ... .. . ... ... ... : ... .. . ... : ... .. . ... : ... .. . ... ...
ROW 0A : ... .. . ... ... ... : ... .. . ... ... ... : ... .. . ... : ... .. . ... : ... .. . ... ...
ROW 0B : ... .. . ... ... ... : ... .. . ... ... ... : --- .. . ... : ... .. . ... : ... .. . ... ...
ROW 0C : ... .. . ... ... ... : ... .. . ... ... ... : ... .. . ... : ... .. . ... : ... .. . ... ...
ROW 0D : ... .. . ... ... ... : ... .. . ... ... ... : ... .. . ... : ... .. . ... : ... .. . ... ...
ROW 0E : G-2 00 B P80 ... ... : G-3 00 B P82 ... ... : ... .. . ... : 6-# 00 C ... : ... .. . ... ...
ROW 0F : ... .. A ... ... ... : ... .. A ... ... ... : ... .. . ... : ... .. 8 ... : ... .. . ... ...
ROW 10 : ... .. . ... ... ... : ... .. . ... ... ... : ... .. . ... : ... .. . ... : ... .. . ... ...
ROW 11 : ... .. . ... ... ... : ... .. . ... ... ... : --- .. . ... : ... .. . ... : ... .. . ... ...
ROW 12 : ... .. . ... ... ... : ... .. . ... ... ... : ... .. . ... : ... .. . ... : ... .. . ... ...
ROW 13 : ... .. . ... ... ... : ... .. . ... ... ... : ... .. . ... : ... .. . ... : ... .. . ... ...
ROW 14 : D#3 00 8 P80 ... ... : C-4 00 8 P81 ... ... : ... .. . ... : ... .. . ... : ... .. . ... ...
ROW 15 : ... .. . ... ... ... : ... .. . ... ... ... : ... .. . ... : ... .. . ... : ... .. . ... ...
ROW 16 : ... .. 7 ... ... ... : ... .. 7 ... ... ... : ... .. . ... : ... .. . ... : ... .. . ... ...
ROW 17 : ... .. . ... ... ... : ... .. . ... ... ... : ... .. . ... : ... .. . ... : ... .. . ... ...
ROW 18 : ... .. . ... ... ... : ... .. . ... ... ... : ... .. . ... : ... .. . ... : ... .. . ... ...
ROW 19 : ... .. . ... ... ... : ... .. . ... ... ... : ... .. . ... : ... .. . ... : ... .. . ... ...
ROW 1A : G-3 00 8 P80 ... ... : D#4 00 8 P81 ... ... : G-3 00 . ... : C-# 00 E ... : ... .. . ... ...
ROW 1B : ... .. . ... ... ... : ... .. . ... ... ... : ... .. . ... : ... .. 0 ... : ... .. . ... ...
ROW 1C : ... .. 7 ... ... ... : ... .. 7 ... ... ... : ... .. . ... : ... .. . ... : ... .. . ... ...
ROW 1D : ... .. . ... ... ... : ... .. . ... ... ... : ... .. . ... : ... .. . ... : ... .. . ... ...
ROW 1E : ... .. . ... ... ... : ... .. . ... ... ... : ... .. . ... : ... .. . ... : ... .. . ... ...
ROW 1F : ... .. . ... ... ... : ... .. . ... ... ... : ... .. . ... : ... .. . ... : ... .. . ... ...
ROW 20 : ... .. 0 ... ... ... : ... .. 0 ... ... ... : ... .. . ... : ... .. . ... : ... .. . ... ...
ROW 21 : ... .. . ... ... ... : ... .. . ... ... ... : ... .. . ... : ... .. . ... : ... .. . ... ...
ROW 22 : ... .. . ... ... ... : ... .. . ... ... ... : ... .. . ... : ... .. . ... : ... .. . ... ...
ROW 23 : ... .. . ... ... ... : ... .. . ... ... ... : --- .. . ... : ... .. . ... : ... .. . ... ...
ROW 24 : ... .. . ... ... ... : ... .. . ... ... ... : ... .. . ... : ... .. . ... : ... .. . ... ...
ROW 25 : ... .. . ... ... ... : ... .. . ... ... ... : ... .. . ... : ... .. . ... : ... .. . ... ...
ROW 26 : C-4 00 8 P81 ... ... : G-4 00 8 P81 ... ... : ... .. . ... : ... .. . ... : ... .. . ... ...
ROW 27 : ... .. . ... ... ... : ... .. . ... ... ... : ... .. . ... : ... .. . ... : ... .. . ... ...
ROW 28 : ... .. . ... ... ... : ... .. . ... ... ... : ... .. . ... : ... .. . ... : ... .. . ... ...
ROW 29 : ... .. . ... ... ... : ... .. . ... ... ... : --- .. . ... : ... .. . ... : ... .. . ... ...
ROW 2A : ... .. . ... ... ... : ... .. . ... ... ... : ... .. . ... : ... .. . ... : ... .. . ... ...
ROW 2B : ... .. . ... ... ... : ... .. . ... ... ... : ... .. . ... : ... .. . ... : ... .. . ... ...
ROW 2C : D#3 00 8 P80 ... ... : C-4 00 8 P81 ... ... : ... .. . ... : ... .. . ... : ... .. . ... ...
ROW 2D : ... .. . ... ... ... : ... .. . ... ... ... : ... .. . ... : ... .. . ... : ... .. . ... ...
ROW 2E : ... .. 7 ... ... ... : ... .. 7 ... ... ... : ... .. . ... : ... .. . ... : ... .. . ... ...
ROW 2F : ... .. . ... ... ... : ... .. . ... ... ... : ... .. . ... : ... .. . ... : ... .. . ... ...
ROW 30 : ... .. . ... ... ... : ... .. . ... ... ... : ... .. . ... : ... .. . ... : ... .. . ... ...
ROW 31 : ... .. . ... ... ... : ... .. . ... ... ... : ... .. . ... : ... .. . ... : ... .. . ... ...
ROW 32 : G-3 00 8 P80 ... ... : D#4 00 8 P81 ... ... : G-3 00 . ... : C-# 00 E ... : ... .. . ... ...
ROW 33 : ... .. . ... ... ... : ... .. . ... ... ... : ... .. . ... : ... .. 0 ... : ... .. . ... ...
ROW 34 : ... .. 7 ... ... ... : ... .. 7 ... ... ... : ... .. . ... : ... .. . ... : ... .. . ... ...
ROW 35 : ... .. . ... ... ... : ... .. . ... ... ... : ... .. . ... : ... .. . ... : ... .. . ... ...
ROW 36 : ... .. . ... ... ... : ... .. . ... ... ... : ... .. . ... : ... .. . ... : ... .. . ... ...
ROW 37 : ... .. . ... ... ... : ... .. . ... ... ... : ... .. . ... : ... .. . ... : ... .. . ... ...
ROW 38 : ... .. 0 ... ... ... : ... .. 0 ... ... ... : ... .. . ... : ... .. . ... : ... .. . ... ...
ROW 39 : ... .. . ... ... ... : ... .. . ... ... ... : ... .. . ... : ... .. . ... : ... .. . ... ...
ROW 3A : ... .. . ... ... ... : ... .. . ... ... ... : ... .. . ... : ... .. . ... : ... .. . ... ...
ROW 3B : ... .. . ... ... ... : ... .. . ... ... ... : --- .. . ... : ... .. . ... : ... .. . ... ...
ROW 3C : ... .. . ... ... ... : ... .. . ... ... ... : ... .. . ... : ... .. . ... : ... .. . ... ...
ROW 3D : ... .. . ... ... ... : ... .. . ... ... ... : ... .. . ... : ... .. . ... : ... .. . ... ...
ROW 3E : C-4 00 8 P81 ... ... : G-4 00 8 P81 ... ... : ... .. . ... : ... .. . ... : ... .. . ... ...
ROW 3F : ... .. . ... ... ... : ... .. . ... ... ... : ... .. . ... : ... .. . ... : ... .. . ... ...
ROW 40 : ... .. 7 ... ... ... : ... .. 7 ... ... ... : ... .. . ... : ... .. . ... : ... .. . ... ...
ROW 41 : ... .. . ... ... ... : ... .. . ... ... ... : --- .. . ... : ... .. . ... : ... .. . ... ...
ROW 42 : ... .. . ... ... ... : ... .. . ... ... ... : ... .. . ... : ... .. . ... : ... .. . ... ...
ROW 43 : ... .. . ... ... ... : ... .. . ... ... ... : ... .. . ... : ... .. . ... : ... .. . ... ...
ROW 44 : B-3 00 8 P80 ... ... : G-4 00 8 P81 ... ... : ... .. . ... : ... .. . ... : ... .. . ... ...
ROW 45 : ... .. . ... ... ... : ... .. . ... ... ... : ... .. . ... : ... .. . ... : ... .. . ... ...
ROW 46 : ... .. 7 ... ... ... : ... .. 7 ... ... ... : ... .. . ... : ... .. . ... : ... .. . ... ...
ROW 47 : ... .. . ... ... ... : ... .. . ... ... ... : ... .. . ... : ... .. . ... : ... .. . ... ...
ROW 48 : ... .. . ... ... ... : ... .. . ... ... ... : ... .. . ... : ... .. . ... : ... .. . ... ...
ROW 49 : ... .. . ... ... ... : ... .. . ... ... ... : ... .. . ... : ... .. . ... : ... .. . ... ...
ROW 4A : D-4 00 8 P81 ... ... : B-4 00 8 P80 ... ... : G-3 00 . ... : C-# 00 E ... : ... .. . ... ...
ROW 4B : ... .. . ... ... ... : ... .. . ... ... ... : ... .. . ... : ... .. 0 ... : ... .. . ... ...
ROW 4C : ... .. 7 ... ... ... : ... .. 7 ... ... ... : ... .. . ... : ... .. . ... : ... .. . ... ...
ROW 4D : ... .. . ... ... ... : ... .. . ... ... ... : ... .. . ... : ... .. . ... : ... .. . ... ...
ROW 4E : ... .. . ... ... ... : ... .. . ... ... ... : ... .. . ... : ... .. . ... : ... .. . ... ...
ROW 4F : ... .. . ... ... ... : ... .. . ... ... ... : ... .. . ... : ... .. . ... : ... .. . ... ...
ROW 50 : ... .. 0 ... ... ... : ... .. 0 ... ... ... : ... .. . ... : ... .. . ... : ... .. . ... ...
ROW 51 : ... .. . ... ... ... : ... .. . ... ... ... : ... .. . ... : ... .. . ... : ... .. . ... ...
ROW 52 : ... .. . ... ... ... : ... .. . ... ... ... : ... .. . ... : ... .. . ... : ... .. . ... ...
ROW 53 : ... .. . ... ... ... : ... .. . ... ... ... : --- .. . ... : ... .. . ... : ... .. . ... ...
ROW 54 : ... .. . ... ... ... : ... .. . ... ... ... : ... .. . ... : ... .. . ... : ... .. . ... ...
ROW 55 : ... .. . ... ... ... : ... .. . ... ... ... : ... .. . ... : ... .. . ... : ... .. . ... ...
ROW 56 : B-3 00 8 P80 ... ... : G#4 00 8 P80 ... ... : ... .. . ... : ... .. . ... : ... .. . ... ...
ROW 57 : ... .. . ... ... ... : ... .. . ... ... ... : ... .. . ... : ... .. . ... : ... .. . ... ...
ROW 58 : ... .. . ... ... ... : ... .. . ... ... ... : ... .. . ... : ... .. . ... : ... .. . ... ...
ROW 59 : ... .. . ... ... ... : ... .. . ... ... ... : --- .. . ... : ... .. . ... : ... .. . ... ...
ROW 5A : ... .. . ... ... ... : ... .. . ... ... ... : ... .. . ... : ... .. . ... : ... .. . ... ...
ROW 5B : ... .. . ... ... ... : ... .. . ... ... ... : ... .. . ... : ... .. . ... : ... .. . ... ...
ROW 5C : ... .. . ... ... ... : ... .. . ... ... ... : ... .. . ... : ... .. E ... : ... .. . ... ...
ROW 5D : ... .. . ... ... ... : ... .. . ... ... ... : ... .. . ... : ... .. 0 ... : ... .. . ... ...
ROW 5E : ... .. . ... ... ... : ... .. . ... ... ... : ... .. . ... : ... .. . ... : ... .. . ... ...
ROW 5F : ... .. . ... ... ... : ... .. . ... ... ... : ... .. . ... : ... .. . ... : ... .. . ... ...
ROW 60 : ... .. . ... ... ... : ... .. . ... ... ... : ... .. . ... : ... .. . ... : ... .. . ... ...
ROW 61 : ... .. . ... ... ... : ... .. . ... ... ... : ... .. . ... : ... .. . ... : ... .. . ... ...
ROW 62 : ... .. . ... ... ... : ... .. . ... ... ... : G-3 00 . ... : ... .. E ... : ... .. . ... ...
ROW 63 : ... .. . ... ... ... : ... .. . ... ... ... : ... .. . ... : ... .. 0 ... : ... .. . ... ...
ROW 64 : ... .. . ... ... ... : ... .. . ... ... ... : ... .. . ... : ... .. . ... : ... .. . ... ...
ROW 65 : ... .. . ... ... ... : ... .. . ... ... ... : ... .. . ... : ... .. . ... : ... .. . ... ...
ROW 66 : ... .. . ... ... ... : ... .. . ... ... ... : ... .. . ... : ... .. . ... : ... .. . ... ...
ROW 67 : ... .. . ... ... ... : ... .. . ... ... ... : ... .. . ... : ... .. . ... : ... .. . ... ...
ROW 68 : ... .. . ... ... ... : ... .. . ... ... ... : ... .. . ... : F-# 00 0 ... : ... .. . ... ...
ROW 69 : ... .. . ... ... ... : ... .. . ... ... ... : ... .. . ... : ... .. . ... : ... .. . ... ...
ROW 6A : ... .. . ... ... ... : ... .. . ... ... ... : ... .. . ... : ... .. . ... : ... .. . ... ...
ROW 6B : ... .. . ... ... ... : ... .. . ... ... ... : --- .. . ... : ... .. . ... : ... .. . ... ...
ROW 6C : ... .. . ... ... ... : ... .. . ... ... ... : ... .. . ... : ... .. . ... : ... .. . ... ...
ROW 6D : ... .. . ... ... ... : ... .. . ... ... ... : ... .. . ... : ... .. . ... : ... .. . ... ...
ROW 6E : ... .. 0 ... ... ... : ... .. 0 ... ... ... : ... .. . ... : C-# 00 E ... : ... .. . ... ...
ROW 6F : ... .. . ... ... ... : ... .. . ... ... ... : ... .. . ... : ... .. 0 ... : ... .. . ... ...
ROW 70 : ... .. . ... ... ... : ... .. . ... ... ... : ... .. . ... : ... .. . ... : ... .. . ... ...
ROW 71 : ... .. . ... ... ... : ... .. . ... ... ... : --- .. . ... : ... .. . ... : ... .. . ... ...
ROW 72 : ... .. . ... ... ... : ... .. . ... ... ... : ... .. . ... : ... .. . ... : ... .. . ... ...
ROW 73 : ... .. . ... ... ... : ... .. . ... ... ... : ... .. . ... : ... .. . ... : ... .. . ... ...
ROW 74 : C#3 00 8 P80 ... ... : A#3 00 8 P81 ... ... : ... .. . ... : ... .. . ... : ... .. . ... ...
ROW 75 : ... .. . ... ... ... : ... .. . ... ... ... : ... .. . ... : ... .. . ... : ... .. . ... ...
ROW 76 : ... .. 7 ... ... ... : ... .. 7 ... ... ... : ... .. . ... : ... .. . ... : ... .. . ... ...
ROW 77 : ... .. . ... ... ... : ... .. . ... ... ... : ... .. . ... : ... .. . ... : ... .. . ... ...
ROW 78 : ... .. . ... ... ... : ... .. . ... ... ... : ... .. . ... : ... .. . ... : ... .. . ... ...
ROW 79 : ... .. . ... ... ... : ... .. . ... ... ... : ... .. . ... : ... .. . ... : ... .. . ... ...
ROW 7A : G-3 00 8 P80 ... ... : C#4 00 8 P80 ... ... : G-3 00 . ... : C-# 00 E ... : ... .. . ... ...
ROW 7B : ... .. . ... ... ... : ... .. . ... ... ... : ... .. . ... : ... .. 0 ... : ... .. . ... ...
ROW 7C : ... .. 7 ... ... ... : ... .. 7 ... ... ... : ... .. . ... : ... .. . ... : ... .. . ... ...
ROW 7D : ... .. . ... ... ... : ... .. . ... ... ... : ... .. . ... : ... .. . ... : ... .. . ... ...
ROW 7E : ... .. . ... ... ... : ... .. . ... ... ... : ... .. . ... : ... .. . ... : ... .. . ... ...
ROW 7F : ... .. . ... ... ... : ... .. . ... ... ... : ... .. . ... : ... .. . ... : ... .. . ... ...
ROW 80 : ... .. 0 ... ... ... : ... .. 0 ... ... ... : ... .. . ... : ... .. . ... : ... .. . ... ...
ROW 81 : ... .. . ... ... ... : ... .. . ... ... ... : ... .. . ... : ... .. . ... : ... .. . ... ...
ROW 82 : ... .. . ... ... ... : ... .. . ... ... ... : ... .. . ... : ... .. . ... : ... .. . ... ...
ROW 83 : ... .. . ... ... ... : ... .. . ... ... ... : --- .. . ... : ... .. . ... : ... .. . ... ...
ROW 84 : ... .. . ... ... ... : ... .. . ... ... ... : ... .. . ... : ... .. . ... : ... .. . ... ...
ROW 85 : ... .. . ... ... ... : ... .. . ... ... ... : ... .. . ... : ... .. . ... : ... .. . ... ...
ROW 86 : A#3 00 8 P81 ... ... : G-4 00 8 P81 ... ... : ... .. . ... : ... .. . ... : ... .. . ... ...
ROW 87 : ... .. . ... ... ... : ... .. . ... ... ... : ... .. . ... : ... .. . ... : ... .. . ... ...
ROW 88 : ... .. . ... ... ... : ... .. . ... ... ... : ... .. . ... : ... .. . ... : ... .. . ... ...
ROW 89 : ... .. . ... ... ... : ... .. . ... ... ... : --- .. . ... : ... .. . ... : ... .. . ... ...
ROW 8A : ... .. . ... ... ... : ... .. . ... ... ... : ... .. . ... : ... .. . ... : ... .. . ... ...
ROW 8B : ... .. . ... ... ... : ... .. . ... ... ... : ... .. . ... : ... .. . ... : ... .. . ... ...
ROW 8C : C#3 00 8 P80 ... ... : A#3 00 8 P81 ... ... : ... .. . ... : ... .. . ... : ... .. . ... ...
ROW 8D : ... .. . ... ... ... : ... .. . ... ... ... : ... .. . ... : ... .. . ... : ... .. . ... ...
ROW 8E : ... .. 7 ... ... ... : ... .. 7 ... ... ... : ... .. . ... : ... .. . ... : ... .. . ... ...
ROW 8F : ... .. . ... ... ... : ... .. . ... ... ... : ... .. . ... : ... .. . ... : ... .. . ... ...
ROW 90 : ... .. . ... ... ... : ... .. . ... ... ... : ... .. . ... : ... .. . ... : ... .. . ... ...
ROW 91 : ... .. . ... ... ... : ... .. . ... ... ... : ... .. . ... : ... .. . ... : ... .. . ... ...
ROW 92 : G-3 00 8 P80 ... ... : C#4 00 8 P80 ... ... : G-3 00 . ... : C-# 00 E ... : ... .. . ... ...
ROW 93 : ... .. . ... ... ... : ... .. . ... ... ... : ... .. . ... : ... .. 0 ... : ... .. . ... ...
ROW 94 : ... .. 7 ... ... ... : ... .. 7 ... ... ... : ... .. . ... : ... .. . ... : ... .. . ... ...
ROW 95 : ... .. . ... ... ... : ... .. . ... ... ... : ... .. . ... : ... .. . ... : ... .. . ... ...
ROW 96 : ... .. . ... ... ... : ... .. . ... ... ... : ... .. . ... : ... .. . ... : ... .. . ... ...
ROW 97 : ... .. . ... ... ... : ... .. . ... ... ... : ... .. . ... : ... .. . ... : ... .. . ... ...
ROW 98 : ... .. 0 ... ... ... : ... .. 0 ... ... ... : ... .. . ... : ... .. . ... : ... .. . ... ...
ROW 99 : ... .. . ... ... ... : ... .. . ... ... ... : ... .. . ... : ... .. . ... : ... .. . ... ...
ROW 9A : ... .. . ... ... ... : ... .. . ... ... ... : ... .. . ... : ... .. . ... : ... .. . ... ...
ROW 9B : ... .. . ... ... ... : ... .. . ... ... ... : --- .. . ... : ... .. . ... : ... .. . ... ...
ROW 9C : ... .. . ... ... ... : ... .. . ... ... ... : ... .. . ... : ... .. . ... : ... .. . ... ...
ROW 9D : ... .. . ... ... ... : ... .. . ... ... ... : ... .. . ... : ... .. . ... : ... .. . ... ...
ROW 9E : A#3 00 8 P81 ... ... : G-4 00 8 P81 ... ... : ... .. . ... : ... .. . ... : ... .. . ... ...
ROW 9F : ... .. . ... ... ... : ... .. . ... ... ... : ... .. . ... : ... .. . ... : ... .. . ... ...
ROW A0 : ... .. 7 ... ... ... : ... .. 7 ... ... ... : ... .. . ... : ... .. . ... : ... .. . ... ...
ROW A1 : ... .. . ... ... ... : ... .. . ... ... ... : --- .. . ... : ... .. . ... : ... .. . ... ...
ROW A2 : ... .. . ... ... ... : ... .. . ... ... ... : ... .. . ... : ... .. . ... : ... .. . ... ...
ROW A3 : ... .. . ... ... ... : ... .. . ... ... ... : ... .. . ... : ... .. . ... : ... .. . ... ...
ROW A4 : C#4 00 8 P81 ... ... : G-4 00 8 P81 ... ... : ... .. . ... : ... .. . ... : ... .. . ... ...
ROW A5 : ... .. . ... ... ... : ... .. . ... ... ... : ... .. . ... : ... .. . ... : ... .. . ... ...
ROW A6 : ... .. 7 ... ... ... : ... .. 7 ... ... ... : ... .. . ... : ... .. . ... : ... .. . ... ...
ROW A7 : ... .. . ... ... ... : ... .. . ... ... ... : ... .. . ... : ... .. . ... : ... .. . ... ...
ROW A8 : ... .. . ... ... ... : ... .. . ... ... ... : ... .. . ... : ... .. . ... : ... .. . ... ...
ROW A9 : ... .. . ... ... ... : ... .. . ... ... ... : ... .. . ... : ... .. . ... : ... .. . ... ...
ROW AA : D#4 00 8 P81 ... ... : B-4 00 8 P80 ... ... : G-3 00 . P80 : C-# 00 E ... : ... .. . ... ...
ROW AB : ... .. . ... ... ... : ... .. . ... ... ... : ... .. . ... : ... .. 0 ... : ... .. . ... ...
ROW AC : ... .. 7 ... ... ... : ... .. 7 ... ... ... : ... .. . ... : ... .. . ... : ... .. . ... ...
ROW AD : ... .. . ... ... ... : ... .. . ... ... ... : ... .. . ... : ... .. . ... : ... .. . ... ...
ROW AE : ... .. . ... ... ... : ... .. . ... ... ... : ... .. . ... : ... .. . ... : ... .. . ... ...
ROW AF : ... .. . ... ... ... : ... .. . ... ... ... : ... .. . ... : ... .. . ... : ... .. . ... ...
ROW B0 : ... .. 0 ... ... ... : ... .. 0 ... ... ... : ... .. . ... : ... .. . ... : ... .. . ... ...
ROW B1 : ... .. . ... ... ... : ... .. . ... ... ... : ... .. . ... : ... .. . ... : ... .. . ... ...
ROW B2 : ... .. . ... ... ... : ... .. . ... ... ... : ... .. . ... : ... .. . ... : ... .. . ... ...
ROW B3 : ... .. . ... ... ... : ... .. . ... ... ... : --- .. . ... : ... .. . ... : ... .. . ... ...
ROW B4 : ... .. . ... ... ... : ... .. . ... ... ... : ... .. . ... : ... .. . ... : ... .. . ... ...
ROW B5 : ... .. . ... ... ... : ... .. . ... ... ... : ... .. . ... : ... .. . ... : ... .. . ... ...
ROW B6 : C#4 00 8 P81 ... ... : G#4 00 8 P80 ... ... : ... .. . ... : ... .. . ... : ... .. . ... ...
ROW B7 : ... .. . ... ... ... : ... .. . ... ... ... : ... .. . ... : ... .. . ... : ... .. . ... ...
ROW B8 : ... .. . ... ... ... : ... .. . ... ... ... : ... .. . ... : ... .. . ... : ... .. . ... ...
ROW B9 : ... .. . ... ... ... : ... .. . ... ... ... : --- .. . ... : ... .. . ... : ... .. . ... ...
ROW BA : ... .. . ... ... ... : ... .. . ... ... ... : ... .. . ... : ... .. . ... : ... .. . ... ...
ROW BB : ... .. . ... ... ... : ... .. . ... ... ... : ... .. . ... : ... .. . ... : ... .. . ... ...
ROW BC : ... .. . ... ... ... : ... .. . ... ... ... : ... .. . ... : ... .. E ... : ... .. . ... ...
ROW BD : ... .. . ... ... ... : ... .. . ... ... ... : ... .. . ... : ... .. 0 ... : ... .. . ... ...
ROW BE : ... .. . ... ... ... : ... .. . ... ... ... : ... .. . ... : ... .. . ... : ... .. . ... ...
ROW BF : ... .. . ... ... ... : ... .. . ... ... ... : ... .. . ... : ... .. . ... : ... .. . ... ...
ROW C0 : ... .. . ... ... ... : ... .. . ... ... ... : ... .. . ... : ... .. . ... : ... .. . ... ...
ROW C1 : ... .. . ... ... ... : ... .. . ... ... ... : ... .. . ... : ... .. . ... : ... .. . ... ...
ROW C2 : ... .. . ... ... ... : ... .. . ... ... ... : G-3 00 . P80 : ... .. E ... : ... .. . ... ...
ROW C3 : ... .. . ... ... ... : ... .. . ... ... ... : ... .. . ... : ... .. 0 ... : ... .. . ... ...
ROW C4 : ... .. . ... ... ... : ... .. . ... ... ... : ... .. . ... : ... .. . ... : ... .. . ... ...
ROW C5 : ... .. . ... ... ... : ... .. . ... ... ... : ... .. . ... : ... .. . ... : ... .. . ... ...
ROW C6 : ... .. . ... ... ... : ... .. . ... ... ... : ... .. . ... : ... .. . ... : ... .. . ... ...
ROW C7 : ... .. . ... ... ... : ... .. . ... ... ... : ... .. . ... : ... .. . ... : ... .. . ... ...
ROW C8 : ... .. . ... ... ... : ... .. . ... ... ... : ... .. . ... : F-# 00 0 ... : ... .. . ... ...
ROW C9 : ... .. . ... ... ... : ... .. . ... ... ... : ... .. . ... : ... .. . ... : ... .. . ... ...
ROW CA : ... .. . ... ... ... : ... .. . ... ... ... : ... .. . ... : ... .. . ... : ... .. . ... ...
ROW CB : ... .. . ... ... ... : ... .. . ... ... ... : --- .. . ... : ... .. . ... : ... .. . ... ...
ROW CC : ... .. . ... ... ... : ... .. . ... ... ... : ... .. . ... : ... .. . ... : ... .. . ... ...
ROW CD : ... .. . ... ... ... : ... .. . ... ... ... : ... .. . ... : ... .. . ... : ... .. . ... ...
ROW CE : D#4 00 8 P81 ... ... : B-4 00 8 P80 ... ... : ... .. . ... : C-# 00 E ... : ... .. . ... ...
ROW CF : ... .. . ... ... ... : ... .. . ... ... ... : ... .. . ... : ... .. 0 ... : ... .. . ... ...
ROW D0 : ... .. . ... ... ... : ... .. . ... ... ... : ... .. . ... : ... .. . ... : ... .. . ... ...
ROW D1 : ... .. . ... ... ... : ... .. . ... ... ... : --- .. . ... : ... .. . ... : ... .. . ... ...
ROW D2 : ... .. . ... ... ... : ... .. . ... ... ... : ... .. . ... : ... .. . ... : ... .. . ... ...
ROW D3 : ... .. . ... ... ... : ... .. . ... ... ... : ... .. . ... : ... .. . ... : ... .. . ... ...
ROW D4 : G-4 00 8 P81 ... ... : B-4 00 8 P80 ... ... : ... .. . ... : ... .. . ... : ... .. . ... ...
ROW D5 : ... .. . ... ... ... : ... .. . ... ... ... : ... .. . ... : ... .. . ... : ... .. . ... ...
ROW D6 : ... .. 7 ... ... ... : ... .. 7 ... ... ... : ... .. . ... : ... .. . ... : ... .. . ... ...
ROW D7 : ... .. . ... ... ... : ... .. . ... ... ... : ... .. . ... : ... .. . ... : ... .. . ... ...
ROW D8 : ... .. . ... ... ... : ... .. . ... ... ... : ... .. . ... : ... .. . ... : ... .. . ... ...
ROW D9 : ... .. . ... ... ... : ... .. . ... ... ... : ... .. . ... : ... .. . ... : ... .. . ... ...
ROW DA : G#4 00 8 P80 ... ... : C-5 00 8 P81 ... ... : F-3 00 . ... : C-# 00 E ... : ... .. . ... ...
ROW DB : ... .. . ... ... ... : ... .. . ... ... ... : ... .. . ... : ... .. 0 ... : ... .. . ... ...
ROW DC : ... .. 7 ... ... ... : ... .. 7 ... ... ... : ... .. . ... : ... .. . ... : ... .. . ... ...
ROW DD : ... .. . ... ... ... : ... .. . ... ... ... : ... .. . ... : ... .. . ... : ... .. . ... ...
ROW DE : ... .. . ... ... ... : ... .. . ... ... ... : ... .. . ... : ... .. . ... : ... .. . ... ...
ROW DF : ... .. . ... ... ... : ... .. . ... ... ... : ... .. . ... : ... .. . ... : ... .. . ... ...
ROW E0 : ... .. 0 ... ... ... : ... .. 0 ... ... ... : ... .. . ... : ... .. . ... : ... .. . ... ...
ROW E1 : ... .. . ... ... ... : ... .. . ... ... ... : ... .. . ... : ... .. . ... : ... .. . ... ...
ROW E2 : ... .. . ... ... ... : ... .. . ... ... ... : ... .. . ... : ... .. . ... : ... .. . ... ...
ROW E3 : ... .. . ... ... ... : ... .. . ... ... ... : --- .. . ... : ... .. . ... : ... .. . ... ...
ROW E4 : ... .. . ... ... ... : ... .. . ... ... ... : ... .. . ... : ... .. . ... : ... .. . ... ...
ROW E5 : ... .. . ... ... ... : ... .. . ... ... ... : ... .. . ... : ... .. . ... : ... .. . ... ...
ROW E6 : F-4 00 8 P80 ... ... : G#4 00 8 P80 ... ... : ... .. . ... : ... .. . ... : ... .. . ... ...
ROW E7 : ... .. . ... ... ... : ... .. . ... ... ... : ... .. . ... : ... .. . ... : ... .. . ... ...
ROW E8 : ... .. . ... ... ... : ... .. . ... ... ... : ... .. . ... : ... .. . ... : ... .. . ... ...
ROW E9 : ... .. . ... ... ... : ... .. . ... ... ... : --- .. . ... : ... .. . ... : ... .. . ... ...
ROW EA : ... .. . ... ... ... : ... .. . ... ... ... : ... .. . ... : ... .. . ... : ... .. . ... ...
ROW EB : ... .. . ... ... ... : ... .. . ... ... ... : ... .. . ... : ... .. . ... : ... .. . ... ...
ROW EC : G#4 00 8 P80 ... ... : C-5 00 8 P81 ... ... : ... .. . ... : ... .. . ... : ... .. . ... ...
ROW ED : ... .. . ... ... ... : ... .. . ... ... ... : ... .. . ... : ... .. . ... : ... .. . ... ...
ROW EE : ... .. 7 ... ... ... : ... .. 7 ... ... ... : ... .. . ... : ... .. . ... : ... .. . ... ...
ROW EF : ... .. . ... ... ... : ... .. . ... ... ... : ... .. . ... : ... .. . ... : ... .. . ... ...
ROW F0 : ... .. . ... ... ... : ... .. . ... ... ... : ... .. . ... : ... .. . ... : ... .. . ... ...
ROW F1 : ... .. . ... ... ... : ... .. . ... ... ... : ... .. . ... : ... .. . ... : ... .. . ... ...
ROW F2 : G-4 00 8 P81 ... ... : B-4 00 8 P80 ... ... : F#3 00 . ... : C-# 00 E ... : ... .. . ... ...
ROW F3 : ... .. . ... ... ... : ... .. . ... ... ... : ... .. . ... : ... .. 0 ... : ... .. . ... ...
ROW F4 : ... .. 7 ... ... ... : ... .. 7 ... ... ... : ... .. . ... : ... .. . ... : ... .. . ... ...
ROW F5 : ... .. . ... ... ... : ... .. . ... ... ... : ... .. . ... : ... .. . ... : ... .. . ... ...
ROW F6 : ... .. . ... ... ... : ... .. . ... ... ... : ... .. . ... : ... .. . ... : ... .. . ... ...
ROW F7 : ... .. . ... ... ... : ... .. . ... ... ... : ... .. . ... : ... .. . ... : ... .. . ... ...
ROW F8 : ... .. 0 ... ... ... : ... .. 0 ... ... ... : ... .. . ... : ... .. . ... : ... .. . ... ...
ROW F9 : ... .. . ... ... ... : ... .. . ... ... ... : ... .. . ... : ... .. . ... : ... .. . ... ...
ROW FA : ... .. . ... ... ... : ... .. . ... ... ... : ... .. . ... : ... .. . ... : ... .. . ... ...
ROW FB : ... .. . ... ... ... : ... .. . ... ... ... : --- .. . ... : ... .. . ... : ... .. . ... ...
ROW FC : ... .. . ... ... ... : ... .. . ... ... ... : ... .. . ... : ... .. . ... : ... .. . ... ...
ROW FD : ... .. . ... ... ... : ... .. . ... ... ... : ... .. . ... : ... .. . ... : ... .. . ... ...
ROW FE : F#4 00 8 P80 ... ... : G#4 00 8 P80 ... ... : ... .. . ... : ... .. . ... : ... .. . ... ...
ROW FF : ... .. . ... ... ... : ... .. . ... ... ... : ... .. . ... : ... .. . ... : ... .. . ... ...

PATTERN 2A
ROW 00 : ... .. . ... ... ... : ... .. . ... ... ... : ... .. . ... : ... .. . ... : ... .. . ... ...
ROW 01 : ... .. . ... ... ... : ... .. . ... ... ... : --- .. . ... : ... .. . ... : ... .. . ... ...
ROW 02 : ... .. . ... ... ... : ... .. . ... ... ... : ... .. . ... : ... .. . ... : ... .. . ... ...
ROW 03 : ... .. . ... ... ... : ... .. . ... ... ... : ... .. . ... : ... .. . ... : ... .. . ... ...
ROW 04 : D-4 00 8 P81 ... ... : F#4 00 8 P80 ... ... : ... .. . ... : ... .. . ... : ... .. . ... ...
ROW 05 : ... .. . ... ... ... : ... .. . ... ... ... : ... .. . ... : ... .. . ... : ... .. . ... ...
ROW 06 : ... .. 7 ... ... ... : ... .. 7 ... ... ... : ... .. . ... : ... .. . ... : ... .. . ... ...
ROW 07 : ... .. . ... ... ... : ... .. . ... ... ... : ... .. . ... : ... .. . ... : ... .. . ... ...
ROW 08 : ... .. . ... ... ... : ... .. . ... ... ... : ... .. . ... : ... .. . ... : ... .. . ... ...
ROW 09 : ... .. . ... ... ... : ... .. . ... ... ... : ... .. . ... : ... .. . ... : ... .. . ... ...
ROW 0A : D#4 00 8 P81 ... ... : G-4 00 8 P81 ... ... : G-3 00 . ... : C-# 00 E ... : ... .. . ... ...
ROW 0B : ... .. . ... ... ... : ... .. . ... ... ... : ... .. . ... : ... .. 0 ... : ... .. . ... ...
ROW 0C : ... .. 7 ... ... ... : ... .. 7 ... ... ... : ... .. . ... : ... .. . ... : ... .. . ... ...
ROW 0D : ... .. . ... ... ... : ... .. . ... ... ... : ... .. . ... : ... .. . ... : ... .. . ... ...
ROW 0E : ... .. . ... ... ... : ... .. . ... ... ... : ... .. . ... : ... .. . ... : ... .. . ... ...
ROW 0F : ... .. . ... ... ... : ... .. . ... ... ... : ... .. . ... : ... .. . ... : ... .. . ... ...
ROW 10 : ... .. 0 ... ... ... : ... .. 0 ... ... ... : ... .. . ... : ... .. . ... : ... .. . ... ...
ROW 11 : ... .. . ... ... ... : ... .. . ... ... ... : ... .. . ... : ... .. . ... : ... .. . ... ...
ROW 12 : ... .. . ... ... ... : ... .. . ... ... ... : ... .. . ... : ... .. . ... : ... .. . ... ...
ROW 13 : ... .. . ... ... ... : ... .. . ... ... ... : --- .. . ... : ... .. . ... : ... .. . ... ...
ROW 14 : ... .. . ... ... ... : ... .. . ... ... ... : ... .. . ... : ... .. . ... : ... .. . ... ...
ROW 15 : ... .. . ... ... ... : ... .. . ... ... ... : ... .. . ... : ... .. . ... : ... .. . ... ...
ROW 16 : C-4 00 8 P81 ... ... : D#4 00 8 P81 ... ... : ... .. . ... : ... .. . ... : ... .. . ... ...
ROW 17 : ... .. . ... ... ... : ... .. . ... ... ... : ... .. . ... : ... .. . ... : ... .. . ... ...
ROW 18 : ... .. . ... ... ... : ... .. . ... ... ... : ... .. . ... : ... .. . ... : ... .. . ... ...
ROW 19 : ... .. . ... ... ... : ... .. . ... ... ... : --- .. . ... : ... .. . ... : ... .. . ... ...
ROW 1A : ... .. . ... ... ... : ... .. . ... ... ... : ... .. . ... : ... .. . ... : ... .. . ... ...
ROW 1B : ... .. . ... ... ... : ... .. . ... ... ... : ... .. . ... : ... .. . ... : ... .. . ... ...
ROW 1C : G#3 00 8 P80 ... ... : C#4 00 8 P81 ... ... : ... .. . ... : ... .. E ... : ... .. . ... ...
ROW 1D : ... .. . ... ... ... : ... .. . ... ... ... : ... .. . ... : ... .. 0 ... : ... .. . ... ...
ROW 1E : ... .. 7 ... ... ... : ... .. 7 ... ... ... : ... .. . ... : ... .. . ... : ... .. . ... ...
ROW 1F : ... .. . ... ... ... : ... .. . ... ... ... : ... .. . ... : ... .. . ... : ... .. . ... ...
ROW 20 : ... .. . ... ... ... : ... .. . ... ... ... : ... .. . ... : ... .. . ... : ... .. . ... ...
ROW 21 : ... .. . ... ... ... : ... .. . ... ... ... : ... .. . ... : ... .. . ... : ... .. . ... ...
ROW 22 : B-3 00 8 P80 ... ... : C#4 00 8 P80 ... ... : G#3 00 . P80 : ... .. E ... : ... .. . ... ...
ROW 23 : ... .. . ... ... ... : ... .. . ... ... ... : ... .. . ... : ... .. 0 ... : ... .. . ... ...
ROW 24 : ... .. 7 ... ... ... : ... .. 7 ... ... ... : ... .. . ... : ... .. . ... : ... .. . ... ...
ROW 25 : ... .. . ... ... ... : ... .. . ... ... ... : ... .. . ... : ... .. . ... : ... .. . ... ...
ROW 26 : ... .. . ... ... ... : ... .. . ... ... ... : ... .. . ... : ... .. . ... : ... .. . ... ...
ROW 27 : ... .. . ... ... ... : ... .. . ... ... ... : ... .. . ... : ... .. . ... : ... .. . ... ...
ROW 28 : ... .. 0 ... ... ... : ... .. 0 ... ... ... : ... .. . ... : F-# 00 0 ... : ... .. . ... ...
ROW 29 : ... .. . ... ... ... : ... .. . ... ... ... : ... .. . ... : ... .. . ... : ... .. . ... ...
ROW 2A : ... .. . ... ... ... : ... .. . ... ... ... : ... .. . ... : ... .. . ... : ... .. . ... ...
ROW 2B : ... .. . ... ... ... : ... .. . ... ... ... : --- .. . ... : ... .. . ... : ... .. . ... ...
ROW 2C : ... .. . ... ... ... : ... .. . ... ... ... : ... .. . ... : ... .. . ... : ... .. . ... ...
ROW 2D : ... .. . ... ... ... : ... .. . ... ... ... : ... .. . ... : ... .. . ... : ... .. . ... ...
ROW 2E : C#4 00 8 P81 ... ... : D#4 00 8 P81 ... ... : ... .. . ... : C-# 00 E ... : ... .. . ... ...
ROW 2F : ... .. . ... ... ... : ... .. . ... ... ... : ... .. . ... : ... .. 0 ... : ... .. . ... ...
ROW 30 : ... .. . ... ... ... : ... .. . ... ... ... : ... .. . ... : ... .. . ... : ... .. . ... ...
ROW 31 : ... .. . ... ... ... : ... .. . ... ... ... : --- .. . ... : ... .. . ... : ... .. . ... ...
ROW 32 : ... .. . ... ... ... : ... .. . ... ... ... : ... .. . ... : ... .. . ... : ... .. . ... ...
ROW 33 : ... .. . ... ... ... : ... .. . ... ... ... : ... .. . ... : ... .. . ... : ... .. . ... ...
ROW 34 : C-4 00 8 P81 ... ... : D#4 00 8 P81 ... ... : ... .. . ... : ... .. . ... : ... .. . ... ...
ROW 35 : ... .. . ... ... ... : ... .. . ... ... ... : ... .. . ... : ... .. . ... : ... .. . ... ...
ROW 36 : ... .. 7 ... ... ... : ... .. 7 ... ... ... : ... .. . ... : ... .. . ... : ... .. . ... ...
ROW 37 : ... .. . ... ... ... : ... .. . ... ... ... : ... .. . ... : ... .. . ... : ... .. . ... ...
ROW 38 : ... .. . ... ... ... : ... .. . ... ... ... : ... .. . ... : ... .. . ... : ... .. . ... ...
ROW 39 : ... .. . ... ... ... : ... .. . ... ... ... : ... .. . ... : ... .. . ... : ... .. . ... ...
ROW 3A : C#4 00 8 P80 ... ... : F-4 00 8 P80 ... ... : F-3 00 . ... : C-# 00 E ... : ... .. . ... ...
ROW 3B : ... .. . ... ... ... : ... .. . ... ... ... : ... .. . ... : ... .. 0 ... : ... .. . ... ...
ROW 3C : ... .. 7 ... ... ... : ... .. 7 ... ... ... : ... .. . ... : ... .. . ... : ... .. . ... ...
ROW 3D : ... .. . ... ... ... : ... .. . ... ... ... : ... .. . ... : ... .. . ... : ... .. . ... ...
ROW 3E : ... .. . ... ... ... : ... .. . ... ... ... : ... .. . ... : ... .. . ... : ... .. . ... ...
ROW 3F : ... .. . ... ... ... : ... .. . ... ... ... : ... .. . ... : ... .. . ... : ... .. . ... ...
ROW 40 : ... .. 0 ... ... ... : ... .. 0 ... ... ... : ... .. . ... : ... .. . ... : ... .. . ... ...
ROW 41 : ... .. . ... ... ... : ... .. . ... ... ... : ... .. . ... : ... .. . ... : ... .. . ... ...
ROW 42 : ... .. . ... ... ... : ... .. . ... ... ... : ... .. . ... : ... .. . ... : ... .. . ... ...
ROW 43 : ... .. . ... ... ... : ... .. . ... ... ... : --- .. . ... : ... .. . ... : ... .. . ... ...
ROW 44 : ... .. . ... ... ... : ... .. . ... ... ... : ... .. . ... : ... .. . ... : ... .. . ... ...
ROW 45 : ... .. . ... ... ... : ... .. . ... ... ... : ... .. . ... : ... .. . ... : ... .. . ... ...
ROW 46 : G-3 00 8 P80 ... ... : B-3 00 8 P80 ... ... : ... .. . ... : ... .. . ... : ... .. . ... ...
ROW 47 : ... .. . ... ... ... : ... .. . ... ... ... : ... .. . ... : ... .. . ... : ... .. . ... ...
ROW 48 : ... .. . ... ... ... : ... .. . ... ... ... : ... .. . ... : ... .. . ... : ... .. . ... ...
ROW 49 : ... .. . ... ... ... : ... .. . ... ... ... : --- .. . ... : ... .. . ... : ... .. . ... ...
ROW 4A : ... .. . ... ... ... : ... .. . ... ... ... : ... .. . ... : ... .. . ... : ... .. . ... ...
ROW 4B : ... .. . ... ... ... : ... .. . ... ... ... : ... .. . ... : ... .. . ... : ... .. . ... ...
ROW 4C : C-4 00 8 P81 ... ... : D#4 00 8 P81 ... ... : ... .. . ... : ... .. . ... : ... .. . ... ...
ROW 4D : ... .. . ... ... ... : ... .. . ... ... ... : ... .. . ... : ... .. . ... : ... .. . ... ...
ROW 4E : ... .. 7 ... ... ... : ... .. 7 ... ... ... : ... .. . ... : ... .. . ... : ... .. . ... ...
ROW 4F : ... .. . ... ... ... : ... .. . ... ... ... : ... .. . ... : ... .. . ... : ... .. . ... ...
ROW 50 : ... .. . ... ... ... : ... .. . ... ... ... : ... .. . ... : ... .. . ... : ... .. . ... ...
ROW 51 : ... .. . ... ... ... : ... .. . ... ... ... : ... .. . ... : ... .. . ... : ... .. . ... ...
ROW 52 : B-3 00 8 P80 ... ... : C#4 00 8 P80 ... ... : C#3 00 . ... : C-# 00 E ... : ... .. . ... ...
ROW 53 : ... .. . ... ... ... : ... .. . ... ... ... : ... .. . ... : ... .. 0 ... : ... .. . ... ...
ROW 54 : ... .. 7 ... ... ... : ... .. 7 ... ... ... : ... .. . ... : ... .. . ... : ... .. . ... ...
ROW 55 : ... .. . ... ... ... : ... .. . ... ... ... : ... .. . ... : ... .. . ... : ... .. . ... ...
ROW 56 : ... .. . ... ... ... : ... .. . ... ... ... : ... .. . ... : ... .. . ... : ... .. . ... ...
ROW 57 : ... .. . ... ... ... : ... .. . ... ... ... : ... .. . ... : ... .. . ... : ... .. . ... ...
ROW 58 : ... .. 0 ... ... ... : ... .. 0 ... ... ... : ... .. . ... : ... .. . ... : ... .. . ... ...
ROW 59 : ... .. . ... ... ... : ... .. . ... ... ... : ... .. . ... : ... .. . ... : ... .. . ... ...
ROW 5A : ... .. . ... ... ... : ... .. . ... ... ... : ... .. . ... : ... .. . ... : ... .. . ... ...
ROW 5B : ... .. . ... ... ... : ... .. . ... ... ... : --- .. . ... : ... .. . ... : ... .. . ... ...
ROW 5C : ... .. . ... ... ... : ... .. . ... ... ... : ... .. . ... : ... .. . ... : ... .. . ... ...
ROW 5D : ... .. . ... ... ... : ... .. . ... ... ... : ... .. . ... : ... .. . ... : ... .. . ... ...
ROW 5E : G-3 00 8 P80 ... ... : C-4 00 8 P81 ... ... : ... .. . ... : ... .. . ... : ... .. . ... ...
ROW 5F : ... .. . ... ... ... : ... .. . ... ... ... : ... .. . ... : ... .. . ... : ... .. . ... ...
ROW 60 : ... .. . ... ... ... : ... .. . ... ... ... : ... .. . ... : ... .. . ... : ... .. . ... ...
ROW 61 : ... .. . ... ... ... : ... .. . ... ... ... : --- .. . ... : ... .. . ... : ... .. . ... ...
ROW 62 : ... .. . ... ... ... : ... .. . ... ... ... : ... .. . ... : ... .. . ... : ... .. . ... ...
ROW 63 : ... .. . ... ... ... : ... .. . ... ... ... : ... .. . ... : ... .. . ... : ... .. . ... ...
ROW 64 : ... .. . ... ... ... : ... .. . ... ... ... : ... .. . ... : ... .. . ... : ... .. . ... ...
ROW 65 : ... .. . ... ... ... : ... .. . ... ... ... : ... .. . ... : ... .. . ... : ... .. . ... ...
ROW 66 : ... .. . ... ... ... : ... .. . ... ... ... : ... .. . ... : ... .. . ... : ... .. . ... ...
ROW 67 : ... .. . ... ... ... : ... .. . ... ... ... : ... .. . ... : ... .. . ... : ... .. . ... ...
ROW 68 : ... .. . ... ... ... : ... .. . ... ... ... : ... .. . ... : ... .. . ... : ... .. . ... ...
ROW 69 : ... .. . ... ... ... : ... .. . ... ... ... : ... .. . ... : ... .. . ... : ... .. . ... ...
ROW 6A : ... .. . ... ... ... : ... .. . ... ... ... : G-2 00 . ... : C-# 00 E ... : ... .. . ... ...
ROW 6B : ... .. . ... ... ... : ... .. . ... ... ... : ... .. . ... : ... .. 0 ... : ... .. . ... ...
ROW 6C : ... .. . ... ... ... : ... .. . ... ... ... : ... .. . ... : ... .. . ... : ... .. . ... ...
ROW 6D : ... .. . ... ... ... : ... .. . ... ... ... : ... .. . ... : ... .. . ... : ... .. . ... ...
ROW 6E : ... .. . ... ... ... : ... .. . ... ... ... : ... .. . ... : ... .. . ... : ... .. . ... ...
ROW 6F : ... .. . ... ... ... : ... .. . ... ... ... : ... .. . ... : ... .. . ... : ... .. . ... ...
ROW 70 : ... .. . ... ... ... : ... .. . ... ... ... : ... .. . ... : ... .. . ... : ... .. . ... ...
ROW 71 : ... .. . ... ... ... : ... .. . ... ... ... : ... .. . ... : ... .. . ... : ... .. . ... ...
ROW 72 : ... .. . ... ... ... : ... .. . ... ... ... : ... .. . ... : ... .. . ... : ... .. . ... ...
ROW 73 : ... .. . ... ... ... : ... .. . ... ... ... : --- .. . ... : ... .. . ... : ... .. . ... ...
ROW 74 : ... .. . ... ... ... : ... .. . ... ... ... : ... .. . ... : ... .. . ... : ... .. . ... ...
ROW 75 : ... .. . ... ... ... : ... .. . ... ... ... : ... .. . ... : ... .. . ... : ... .. . ... ...
ROW 76 : ... .. 0 ... ... ... : ... .. 0 ... ... ... : ... .. . ... : ... .. . ... : ... .. . ... ...
ROW 77 : ... .. . ... ... ... : ... .. . ... ... ... : ... .. . ... : ... .. . ... : ... .. . ... ...
ROW 78 : ... .. . ... ... ... : ... .. . ... ... ... : ... .. . ... : ... .. . ... : ... .. . ... ...
ROW 79 : ... .. . ... ... ... : ... .. . ... ... ... : --- .. . ... : ... .. . ... : ... .. . ... ...
ROW 7A : ... .. . ... ... ... : ... .. . ... ... ... : ... .. . ... : ... .. . ... : ... .. . ... ...
ROW 7B : ... .. . ... ... ... : ... .. . ... ... ... : ... .. . ... : ... .. . ... : ... .. . ... ...
ROW 7C : ... .. . ... ... ... : ... .. . ... ... ... : ... .. . ... : ... .. E ... : ... .. . ... ...
ROW 7D : ... .. . ... ... ... : ... .. . ... ... ... : ... .. . ... : ... .. 0 ... : ... .. . ... ...
ROW 7E : ... .. . ... ... ... : ... .. . ... ... ... : ... .. . ... : ... .. . ... : ... .. . ... ...
ROW 7F : ... .. . ... ... ... : ... .. . ... ... ... : ... .. . ... : ... .. . ... : ... .. . ... ...
ROW 80 : ... .. . ... ... ... : ... .. . ... ... ... : ... .. . ... : ... .. . ... : ... .. . ... ...
ROW 81 : ... .. . ... ... ... : ... .. . ... ... ... : ... .. . ... : ... .. . ... : ... .. . ... ...
ROW 82 : ... .. . ... ... ... : ... .. . ... ... ... : ... .. . ... : ... .. E ... : ... .. . ... ...
ROW 83 : ... .. . ... ... ... : ... .. . ... ... ... : ... .. . ... : ... .. 0 ... : ... .. . ... ...
ROW 84 : ... .. . ... ... ... : ... .. . ... ... ... : ... .. . ... : ... .. . ... : ... .. . ... ...
ROW 85 : ... .. . ... ... ... : ... .. . ... ... ... : ... .. . ... : ... .. . ... : ... .. . ... ...
ROW 86 : ... .. . ... ... ... : ... .. . ... ... ... : ... .. . ... : ... .. . ... : ... .. . ... ...
ROW 87 : ... .. . ... ... ... : ... .. . ... ... ... : ... .. . ... : ... .. . ... : ... .. . ... ...
ROW 88 : ... .. . ... ... ... : ... .. . ... ... ... : ... .. . ... : F-# 00 0 ... : ... .. . ... ...
ROW 89 : ... .. . ... ... ... : ... .. . ... ... ... : ... .. . ... : ... .. . ... : ... .. . ... ...
ROW 8A : ... .. . ... ... ... : ... .. . ... ... ... : ... .. . ... : ... .. . ... : ... .. . ... ...
ROW 8B : ... .. . ... ... ... : ... .. . ... ... ... : ... .. . ... : ... .. . ... : ... .. . ... ...
ROW 8C : ... .. . ... ... ... : ... .. . ... ... ... : ... .. . ... : ... .. . ... : ... .. . ... ...
ROW 8D : ... .. . ... ... ... : ... .. . ... ... ... : ... .. . ... : ... .. . ... : ... .. . ... ...
ROW 8E : ... .. . ... ... ... : ... .. . ... ... ... : ... .. . ... : C-# 00 E ... : ... .. . ... ...
ROW 8F : ... .. . ... ... ... : ... .. . ... ... ... : ... .. . ... : ... .. 0 ... : ... .. . ... ...
ROW 90 : ... .. . ... ... ... : ... .. . ... ... ... : ... .. . ... : ... .. . ... : ... .. . ... ...
ROW 91 : ... .. . ... ... ... : ... .. . ... ... ... : --- .. . ... : ... .. . ... : ... .. . ... ...
ROW 92 : ... .. . ... ... ... : ... .. . ... ... ... : ... .. . ... : ... .. . ... : ... .. . ... ...
ROW 93 : ... .. . ... ... ... : ... .. . ... ... ... : ... .. . ... : ... .. . ... : ... .. . ... ...
ROW 94 : G-3 00 B P80 ... ... : D#4 00 B P81 ... ... : ... .. . ... : ... .. . ... : ... .. . ... ...
ROW 95 : ... .. A ... ... ... : ... .. A ... ... ... : ... .. . ... : ... .. . ... : ... .. . ... ...
ROW 96 : ... .. 9 ... ... ... : ... .. 9 ... ... ... : ... .. . ... : ... .. . ... : ... .. . ... ...
ROW 97 : ... .. 8 ... ... ... : ... .. 8 ... ... ... : ... .. . ... : ... .. . ... : ... .. . ... ...
ROW 98 : ... .. 7 ... ... ... : ... .. 7 ... ... ... : ... .. . ... : ... .. . ... : ... .. . ... ...
ROW 99 : ... .. 6 ... ... ... : ... .. 6 ... ... ... : ... .. . ... : ... .. . ... : ... .. . ... ...
ROW 9A : ... .. 5 ... ... ... : ... .. 5 ... ... ... : C#3 00 . ... : C-# 00 E ... : ... .. . ... ...
ROW 9B : ... .. 4 ... ... ... : ... .. 4 ... ... ... : ... .. . ... : ... .. 0 ... : ... .. . ... ...
ROW 9C : ... .. 3 ... ... ... : ... .. 3 ... ... ... : ... .. . ... : ... .. . ... : ... .. . ... ...
ROW 9D : ... .. 2 ... ... ... : ... .. 2 ... ... ... : ... .. . ... : ... .. . ... : ... .. . ... ...
ROW 9E : ... .. 1 ... ... ... : ... .. 1 ... ... ... : ... .. . ... : ... .. . ... : ... .. . ... ...
ROW 9F : ... .. . ... ... ... : ... .. . ... ... ... : ... .. . ... : ... .. . ... : ... .. . ... ...
ROW A0 : ... .. . ... ... ... : ... .. . ... ... ... : ... .. . ... : F-# 00 0 ... : ... .. . ... ...
ROW A1 : ... .. . ... ... ... : ... .. . ... ... ... : ... .. . ... : ... .. . ... : ... .. . ... ...
ROW A2 : ... .. . ... ... ... : ... .. . ... ... ... : ... .. . ... : ... .. . ... : ... .. . ... ...
ROW A3 : ... .. . ... ... ... : ... .. . ... ... ... : --- .. . ... : ... .. . ... : ... .. . ... ...
ROW A4 : ... .. . ... ... ... : ... .. . ... ... ... : ... .. . ... : ... .. . ... : ... .. . ... ...
ROW A5 : ... .. . ... ... ... : ... .. . ... ... ... : ... .. . ... : ... .. . ... : ... .. . ... ...
ROW A6 : ... .. . ... ... ... : ... .. . ... ... ... : ... .. . ... : C-# 00 E ... : ... .. . ... ...
ROW A7 : ... .. . ... ... ... : ... .. . ... ... ... : ... .. . ... : ... .. 0 ... : ... .. . ... ...
ROW A8 : ... .. . ... ... ... : ... .. . ... ... ... : ... .. . ... : ... .. . ... : ... .. . ... ...
ROW A9 : ... .. . ... ... ... : ... .. . ... ... ... : --- .. . ... : ... .. . ... : ... .. . ... ...
ROW AA : ... .. . ... ... ... : ... .. . ... ... ... : ... .. . ... : ... .. . ... : ... .. . ... ...
ROW AB : ... .. . ... ... ... : ... .. . ... ... ... : ... .. . ... : ... .. . ... : ... .. . ... ...
ROW AC : ... .. . ... ... ... : ... .. . ... ... ... : ... .. . ... : ... .. . ... : ... .. . ... ...
ROW AD : ... .. . ... ... ... : ... .. . ... ... ... : ... .. . ... : ... .. . ... : ... .. . ... ...
ROW AE : ... .. . ... ... ... : ... .. . ... ... ... : ... .. . ... : ... .. . ... : ... .. . ... ...
ROW AF : ... .. . ... ... ... : ... .. . ... ... ... : ... .. . ... : ... .. . ... : ... .. . ... ...
ROW B0 : ... .. . ... ... ... : ... .. . ... ... ... : ... .. . ... : ... .. . ... : ... .. . ... ...
ROW B1 : ... .. . ... ... ... : ... .. . ... ... ... : ... .. . ... : ... .. . ... : ... .. . ... ...
ROW B2 : D#4 00 B P81 ... ... : G#4 00 B P80 ... ... : G-3 00 . ... : C-# 00 E ... : ... .. . ... ...
ROW B3 : ... .. A ... ... ... : ... .. A ... ... ... : ... .. . ... : ... .. 0 ... : ... .. . ... ...
ROW B4 : ... .. 9 ... ... ... : ... .. 9 ... ... ... : ... .. . ... : ... .. . ... : ... .. . ... ...
ROW B5 : ... .. 8 ... ... ... : ... .. 8 ... ... ... : ... .. . ... : ... .. . ... : ... .. . ... ...
ROW B6 : ... .. 7 ... ... ... : ... .. 7 ... ... ... : ... .. . ... : ... .. . ... : ... .. . ... ...
ROW B7 : ... .. 6 ... ... ... : ... .. 6 ... ... ... : ... .. . ... : ... .. . ... : ... .. . ... ...
ROW B8 : ... .. 1 ... ... ... : ... .. 1 ... ... ... : ... .. . ... : F-# 00 0 ... : ... .. . ... ...
ROW B9 : ... .. . ... ... ... : ... .. . ... ... ... : ... .. . ... : ... .. . ... : ... .. . ... ...
ROW BA : ... .. . ... ... ... : ... .. . ... ... ... : ... .. . ... : ... .. . ... : ... .. . ... ...
ROW BB : ... .. . ... ... ... : ... .. . ... ... ... : --- .. . ... : ... .. . ... : ... .. . ... ...
ROW BC : ... .. . ... ... ... : ... .. . ... ... ... : ... .. . ... : ... .. . ... : ... .. . ... ...
ROW BD : ... .. . ... ... ... : ... .. . ... ... ... : ... .. . ... : ... .. . ... : ... .. . ... ...
ROW BE : G-4 00 B P81 ... ... : C-5 00 B P81 ... ... : ... .. . ... : C-# 00 E ... : ... .. . ... ...
ROW BF : ... .. A ... ... ... : ... .. A ... ... ... : ... .. . ... : ... .. 0 ... : ... .. . ... ...
ROW C0 : ... .. . ... ... ... : ... .. . ... ... ... : ... .. . ... : ... .. . ... : ... .. . ... ...
ROW C1 : ... .. . ... ... ... : ... .. . ... ... ... : --- .. . ... : ... .. . ... : ... .. . ... ...
ROW C2 : ... .. . ... ... ... : ... .. . ... ... ... : ... .. . ... : ... .. . ... : ... .. . ... ...
ROW C3 : ... .. . ... ... ... : ... .. . ... ... ... : ... .. . ... : ... .. . ... : ... .. . ... ...
ROW C4 : ... .. . ... ... ... : ... .. . ... ... ... : ... .. . ... : ... .. . ... : ... .. . ... ...
ROW C5 : ... .. . ... ... ... : ... .. . ... ... ... : ... .. . ... : ... .. . ... : ... .. . ... ...
ROW C6 : ... .. . ... ... ... : ... .. . ... ... ... : ... .. . ... : ... .. . ... : ... .. . ... ...
ROW C7 : ... .. . ... ... ... : ... .. . ... ... ... : ... .. . ... : ... .. . ... : ... .. . ... ...
ROW C8 : ... .. . ... ... ... : ... .. . ... ... ... : ... .. . ... : ... .. . ... : ... .. . ... ...
ROW C9 : ... .. . ... ... ... : ... .. . ... ... ... : ... .. . ... : ... .. . ... : ... .. . ... ...
ROW CA : ... .. . ... ... ... : ... .. . ... ... ... : G-3 00 . ... : C-# 00 E ... : ... .. . ... ...
ROW CB : ... .. . ... ... ... : ... .. . ... ... ... : ... .. . ... : ... .. 0 ... : ... .. . ... ...
ROW CC : ... .. . ... ... ... : ... .. . ... ... ... : ... .. . ... : ... .. . ... : ... .. . ... ...
ROW CD : ... .. . ... ... ... : ... .. . ... ... ... : ... .. . ... : ... .. . ... : ... .. . ... ...
ROW CE : ... .. . ... ... ... : ... .. . ... ... ... : ... .. . ... : ... .. . ... : ... .. . ... ...
ROW CF : ... .. . ... ... ... : ... .. . ... ... ... : ... .. . ... : ... .. . ... : ... .. . ... ...
ROW D0 : ... .. . ... ... ... : ... .. . ... ... ... : ... .. . ... : F-# 00 0 ... : ... .. . ... ...
ROW D1 : ... .. . ... ... ... : ... .. . ... ... ... : ... .. . ... : ... .. . ... : ... .. . ... ...
ROW D2 : ... .. . ... ... ... : ... .. . ... ... ... : ... .. . ... : ... .. . ... : ... .. . ... ...
ROW D3 : ... .. . ... ... ... : ... .. . ... ... ... : --- .. . ... : ... .. . ... : ... .. . ... ...
ROW D4 : ... .. . ... ... ... : ... .. . ... ... ... : ... .. . ... : ... .. . ... : ... .. . ... ...
ROW D5 : ... .. . ... ... ... : ... .. . ... ... ... : ... .. . ... : ... .. . ... : ... .. . ... ...
ROW D6 : ... .. . ... ... ... : ... .. . ... ... ... : ... .. . ... : C-# 00 E ... : ... .. . ... ...
ROW D7 : ... .. . ... ... ... : ... .. . ... ... ... : ... .. . ... : ... .. 0 ... : ... .. . ... ...
ROW D8 : ... .. . ... ... ... : ... .. . ... ... ... : ... .. . ... : ... .. . ... : ... .. . ... ...
ROW D9 : ... .. . ... ... ... : ... .. . ... ... ... : --- .. . ... : ... .. . ... : ... .. . ... ...
ROW DA : ... .. . ... ... ... : ... .. . ... ... ... : ... .. . ... : ... .. . ... : ... .. . ... ...
ROW DB : ... .. . ... ... ... : ... .. . ... ... ... : ... .. . ... : ... .. . ... : ... .. . ... ...
ROW DC : C-4 00 B P81 ... ... : G-4 00 B P81 ... ... : ... .. . ... : ... .. . ... : ... .. . ... ...
ROW DD : ... .. A ... ... ... : ... .. A ... ... ... : ... .. . ... : ... .. . ... : ... .. . ... ...
ROW DE : ... .. 9 ... ... ... : ... .. 9 ... ... ... : ... .. . ... : ... .. . ... : ... .. . ... ...
ROW DF : ... .. 8 ... ... ... : ... .. 8 ... ... ... : ... .. . ... : ... .. . ... : ... .. . ... ...
ROW E0 : ... .. 7 ... ... ... : ... .. 7 ... ... ... : ... .. . ... : ... .. . ... : ... .. . ... ...
ROW E1 : ... .. 6 ... ... ... : ... .. 6 ... ... ... : ... .. . ... : ... .. . ... : ... .. . ... ...
ROW E2 : G#3 00 B P80 ... ... : D#4 00 B P81 ... ... : C-3 00 . ... : C-# 00 E ... : ... .. . ... ...
ROW E3 : ... .. A ... ... ... : ... .. A ... ... ... : ... .. . ... : ... .. 0 ... : ... .. . ... ...
ROW E4 : ... .. 9 ... ... ... : ... .. 9 ... ... ... : ... .. . ... : ... .. . ... : ... .. . ... ...
ROW E5 : ... .. 8 ... ... ... : ... .. 8 ... ... ... : ... .. . ... : ... .. . ... : ... .. . ... ...
ROW E6 : ... .. 7 ... ... ... : ... .. 7 ... ... ... : ... .. . ... : ... .. . ... : ... .. . ... ...
ROW E7 : ... .. 6 ... ... ... : ... .. 6 ... ... ... : ... .. . ... : ... .. . ... : ... .. . ... ...
ROW E8 : ... .. 1 ... ... ... : ... .. 1 ... ... ... : ... .. . ... : F-# 00 0 ... : ... .. . ... ...
ROW E9 : ... .. . ... ... ... : ... .. . ... ... ... : ... .. . ... : ... .. . ... : ... .. . ... ...
ROW EA : ... .. . ... ... ... : ... .. . ... ... ... : ... .. . ... : ... .. . ... : ... .. . ... ...
ROW EB : ... .. . ... ... ... : ... .. . ... ... ... : --- .. . ... : ... .. . ... : ... .. . ... ...
ROW EC : ... .. . ... ... ... : ... .. . ... ... ... : ... .. . ... : ... .. . ... : ... .. . ... ...
ROW ED : ... .. . ... ... ... : ... .. . ... ... ... : ... .. . ... : ... .. . ... : ... .. . ... ...
ROW EE : G-3 00 B P80 ... ... : C-4 00 B P81 ... ... : ... .. . ... : C-# 00 E ... : ... .. . ... ...
ROW EF : ... .. A ... ... ... : ... .. A ... ... ... : ... .. . ... : ... .. 0 ... : ... .. . ... ...
ROW F0 : ... .. . ... ... ... : ... .. . ... ... ... : ... .. . ... : ... .. . ... : ... .. . ... ...
ROW F1 : ... .. . ... ... ... : ... .. . ... ... ... : --- .. . ... : ... .. . ... : ... .. . ... ...
ROW F2 : ... .. . ... ... ... : ... .. . ... ... ... : ... .. . ... : ... .. . ... : ... .. . ... ...
ROW F3 : ... .. . ... ... ... : ... .. . ... ... ... : ... .. . ... : ... .. . ... : ... .. . ... ...
ROW F4 : G-3 00 B P80 ... ... : D#4 00 B P81 ... ... : ... .. . ... : ... .. . ... : ... .. . ... ...
ROW F5 : ... .. A ... ... ... : ... .. A ... ... ... : ... .. . ... : ... .. . ... : ... .. . ... ...
ROW F6 : ... .. 9 ... ... ... : ... .. 9 ... ... ... : ... .. . ... : ... .. . ... : ... .. . ... ...
ROW F7 : ... .. 8 ... ... ... : ... .. 8 ... ... ... : ... .. . ... : ... .. . ... : ... .. . ... ...
ROW F8 : ... .. 7 ... ... ... : ... .. 7 ... ... ... : ... .. . ... : ... .. . ... : ... .. . ... ...
ROW F9 : ... .. 6 ... ... ... : ... .. 6 ... ... ... : ... .. . ... : ... .. . ... : ... .. . ... ...
ROW FA : F#3 00 B P80 ... ... : C#4 00 B P80 ... ... : D#3 00 . ... : C-# 00 E ... : ... .. . ... ...
ROW FB : ... .. A ... ... ... : ... .. A ... ... ... : ... .. . ... : ... .. 0 ... : ... .. . ... ...
ROW FC : ... .. 9 ... ... ... : ... .. 9 ... ... ... : ... .. . ... : ... .. . ... : ... .. . ... ...
ROW FD : ... .. 8 ... ... ... : ... .. 8 ... ... ... : ... .. . ... : ... .. . ... : ... .. . ... ...
ROW FE : ... .. 7 ... ... ... : ... .. 7 ... ... ... : ... .. . ... : ... .. . ... : ... .. . ... ...
ROW FF : ... .. 6 ... ... ... : ... .. 6 ... ... ... : ... .. . ... : ... .. . ... : ... .. . ... ...

# End of export
