# FamiTracker text export 0.4.2

# Song information
TITLE           "Metroid"
AUTHOR          "Hirokazu ""Hip"" Tanaka"
COPYRIGHT       "1986 Nintendo"

# Song comment
COMMENT ""

# Global settings
MACHINE         0
FRAMERATE       0
EXPANSION       0
VIBRATO         1
SPLIT           21

# Macros

# DPCM samples

# Instruments
INST2A03   0    -1  -1  -1  -1  -1 "blank"

# Tracks

TRACK 128   1 150 "New song"
COLUMNS : 3 3 1 1 2

ORDER 00 : 00 00 00 00 00
ORDER 01 : 01 01 01 01 01
ORDER 02 : 02 02 02 02 02
ORDER 03 : 03 03 03 03 03
ORDER 04 : 04 04 04 04 04
ORDER 05 : 05 05 05 05 05
ORDER 06 : 06 06 06 06 06
ORDER 07 : 07 07 07 07 07
ORDER 08 : 08 08 08 08 08
ORDER 09 : 09 09 09 09 09
ORDER 0A : 0A 0A 0A 0A 0A
ORDER 0B : 0B 0B 0B 0B 0B
ORDER 0C : 0C 0C 0C 0C 0C
ORDER 0D : 0D 0D 0D 0D 0D
ORDER 0E : 0E 0E 0E 0E 0E
ORDER 0F : 0F 0F 0F 0F 0F
ORDER 10 : 10 10 10 10 10
ORDER 11 : 11 11 11 11 11
ORDER 12 : 12 12 12 12 12
ORDER 13 : 13 13 13 13 13
ORDER 14 : 14 14 14 14 14
ORDER 15 : 15 15 15 15 15
ORDER 16 : 16 16 16 16 16
ORDER 17 : 17 17 17 17 17
ORDER 18 : 18 18 18 18 18
ORDER 19 : 19 19 19 19 19
ORDER 1A : 1A 1A 1A 1A 1A
ORDER 1B : 1B 1B 1B 1B 1B
ORDER 1C : 1C 1C 1C 1C 1C
ORDER 1D : 1D 1D 1D 1D 1D
ORDER 1E : 1E 1E 1E 1E 1E
ORDER 1F : 1F 1F 1F 1F 1F
ORDER 20 : 20 20 20 20 20
ORDER 21 : 21 21 21 21 21
ORDER 22 : 22 22 22 22 22
ORDER 23 : 23 23 23 23 23
ORDER 24 : 24 24 24 24 24
ORDER 25 : 25 25 25 25 25
ORDER 26 : 26 26 26 26 26
ORDER 27 : 27 27 27 27 27
ORDER 28 : 28 28 28 28 28
ORDER 29 : 29 29 29 29 29
ORDER 2A : 2A 2A 2A 2A 2A
ORDER 2B : 2B 2B 2B 2B 2B
ORDER 2C : 2C 2C 2C 2C 2C
ORDER 2D : 2D 2D 2D 2D 2D
ORDER 2E : 2E 2E 2E 2E 2E
ORDER 2F : 2F 2F 2F 2F 2F
ORDER 30 : 30 30 30 30 30
ORDER 31 : 31 31 31 31 31
ORDER 32 : 32 32 32 32 32
ORDER 33 : 33 33 33 33 33
ORDER 34 : 34 34 34 34 34
ORDER 35 : 35 35 35 35 35
ORDER 36 : 36 36 36 36 36
ORDER 37 : 37 37 37 37 37
ORDER 38 : 38 38 38 38 38

PATTERN 00
ROW 00 : B-2 00 4 P80 V00 ... : G-1 00 D P7F V00 ... : --- .. . P80 : E-# 00 C V00 : ... .. . Z00 ...
ROW 01 : ... .. 5 ... ... ... : ... .. 9 ... ... ... : ... .. . ... : ... .. 8 ... : ... .. . ... ...
ROW 02 : ... .. 6 ... ... ... : ... .. 7 ... ... ... : ... .. . ... : ... .. 4 ... : ... .. . ... ...
ROW 03 : ... .. 7 ... ... ... : ... .. 6 ... ... ... : ... .. . ... : ... .. 0 ... : ... .. . ... ...
ROW 04 : ... .. 8 ... ... ... : ... .. 5 ... ... ... : ... .. . ... : ... .. . ... : ... .. . ... ...
ROW 05 : ... .. 7 ... ... ... : ... .. . ... ... ... : ... .. . ... : ... .. . ... : ... .. . ... ...
ROW 06 : ... .. 6 ... ... ... : ... .. . ... ... ... : ... .. . ... : ... .. . ... : ... .. . ... ...
ROW 07 : ... .. 5 ... ... ... : ... .. 4 ... ... ... : ... .. . ... : ... .. . ... : ... .. . ... ...
ROW 08 : ... .. 4 ... ... ... : ... .. . ... ... ... : ... .. . ... : ... .. . ... : ... .. . ... ...
ROW 09 : ... .. . ... ... ... : ... .. . ... ... ... : ... .. . ... : ... .. . ... : ... .. . ... ...
ROW 0A : ... .. . ... ... ... : ... .. . ... ... ... : ... .. . ... : ... .. . ... : ... .. . ... ...
ROW 0B : ... .. . ... ... ... : ... .. . ... ... ... : ... .. . ... : ... .. . ... : ... .. . ... ...
ROW 0C : ... .. . ... ... ... : ... .. . ... ... ... : ... .. . ... : ... .. . ... : ... .. . ... ...
ROW 0D : ... .. . ... ... ... : ... .. . ... ... ... : ... .. . ... : ... .. . ... : ... .. . ... ...
ROW 0E : ... .. . ... ... ... : ... .. . ... ... ... : ... .. . ... : ... .. . ... : ... .. . ... ...
ROW 0F : ... .. . ... ... ... : ... .. . ... ... ... : ... .. . ... : ... .. . ... : ... .. . ... ...
ROW 10 : ... .. . ... ... ... : ... .. . ... ... ... : ... .. . ... : ... .. . ... : ... .. . ... ...
ROW 11 : ... .. . ... ... ... : ... .. . ... ... ... : ... .. . ... : ... .. . ... : ... .. . ... ...
ROW 12 : ... .. . ... ... ... : ... .. . ... ... ... : ... .. . ... : ... .. . ... : ... .. . ... ...
ROW 13 : ... .. . ... ... ... : ... .. . ... ... ... : ... .. . ... : ... .. . ... : ... .. . ... ...
ROW 14 : ... .. . ... ... ... : ... .. . ... ... ... : ... .. . ... : ... .. . ... : ... .. . ... ...
ROW 15 : ... .. . ... ... ... : ... .. . ... ... ... : ... .. . ... : ... .. . ... : ... .. . ... ...
ROW 16 : ... .. . ... ... ... : ... .. . ... ... ... : ... .. . ... : ... .. . ... : ... .. . ... ...
ROW 17 : ... .. . ... ... ... : ... .. . ... ... ... : ... .. . ... : ... .. . ... : ... .. . ... ...
ROW 18 : ... .. . ... ... ... : G-1 00 D P7F ... ... : ... .. . ... : ... .. C ... : ... .. . ... ...
ROW 19 : ... .. . ... ... ... : ... .. 9 ... ... ... : ... .. . ... : ... .. 8 ... : ... .. . ... ...
ROW 1A : ... .. . ... ... ... : ... .. 7 ... ... ... : ... .. . ... : ... .. 4 ... : ... .. . ... ...
ROW 1B : ... .. . ... ... ... : ... .. 6 ... ... ... : ... .. . ... : ... .. 0 ... : ... .. . ... ...
ROW 1C : ... .. . ... ... ... : ... .. 5 ... ... ... : ... .. . ... : ... .. . ... : ... .. . ... ...
ROW 1D : ... .. . ... ... ... : ... .. . ... ... ... : ... .. . ... : ... .. . ... : ... .. . ... ...
ROW 1E : ... .. . ... ... ... : ... .. . ... ... ... : ... .. . ... : ... .. . ... : ... .. . ... ...
ROW 1F : ... .. . ... ... ... : ... .. 4 ... ... ... : ... .. . ... : ... .. . ... : ... .. . ... ...
ROW 20 : ... .. . ... ... ... : D-1 00 D P80 ... ... : ... .. . ... : ... .. . ... : ... .. . ... ...
ROW 21 : ... .. . ... ... ... : ... .. 9 ... ... ... : ... .. . ... : ... .. . ... : ... .. . ... ...
ROW 22 : ... .. . ... ... ... : ... .. 7 ... ... ... : ... .. . ... : ... .. . ... : ... .. . ... ...
ROW 23 : ... .. . ... ... ... : ... .. 6 ... ... ... : ... .. . ... : ... .. . ... : ... .. . ... ...
ROW 24 : ... .. . ... ... ... : ... .. 5 ... ... ... : ... .. . ... : ... .. . ... : ... .. . ... ...
ROW 25 : ... .. . ... ... ... : ... .. . ... ... ... : ... .. . ... : ... .. . ... : ... .. . ... ...
ROW 26 : ... .. . ... ... ... : ... .. . ... ... ... : ... .. . ... : ... .. . ... : ... .. . ... ...
ROW 27 : ... .. . ... ... ... : ... .. 4 ... ... ... : ... .. . ... : ... .. . ... : ... .. . ... ...
ROW 28 : ... .. . ... ... ... : G-1 00 D P7F ... ... : ... .. . ... : ... .. . ... : ... .. . ... ...
ROW 29 : ... .. . ... ... ... : ... .. 9 ... ... ... : ... .. . ... : ... .. . ... : ... .. . ... ...
ROW 2A : ... .. . ... ... ... : ... .. 7 ... ... ... : ... .. . ... : ... .. . ... : ... .. . ... ...
ROW 2B : ... .. . ... ... ... : ... .. 6 ... ... ... : ... .. . ... : ... .. . ... : ... .. . ... ...
ROW 2C : ... .. . ... ... ... : ... .. 5 ... ... ... : ... .. . ... : ... .. . ... : ... .. . ... ...
ROW 2D : ... .. . ... ... ... : ... .. . ... ... ... : ... .. . ... : ... .. . ... : ... .. . ... ...
ROW 2E : ... .. . ... ... ... : ... .. . ... ... ... : ... .. . ... : ... .. . ... : ... .. . ... ...
ROW 2F : ... .. . ... ... ... : ... .. 4 ... ... ... : ... .. . ... : ... .. . ... : ... .. . ... ...
ROW 30 : ... .. . ... ... ... : G-1 00 D P7F ... ... : ... .. . ... : ... .. C ... : ... .. . ... ...
ROW 31 : ... .. . ... ... ... : ... .. 9 ... ... ... : ... .. . ... : ... .. 8 ... : ... .. . ... ...
ROW 32 : ... .. . ... ... ... : ... .. 7 ... ... ... : ... .. . ... : ... .. 4 ... : ... .. . ... ...
ROW 33 : ... .. . ... ... ... : ... .. 6 ... ... ... : ... .. . ... : ... .. 0 ... : ... .. . ... ...
ROW 34 : ... .. . ... ... ... : ... .. 5 ... ... ... : ... .. . ... : ... .. . ... : ... .. . ... ...
ROW 35 : ... .. . ... ... ... : ... .. . ... ... ... : ... .. . ... : ... .. . ... : ... .. . ... ...
ROW 36 : ... .. . ... ... ... : ... .. . ... ... ... : ... .. . ... : ... .. . ... : ... .. . ... ...
ROW 37 : ... .. . ... ... ... : ... .. 4 ... ... ... : ... .. . ... : ... .. . ... : ... .. . ... ...
ROW 38 : ... .. . ... ... ... : ... .. . ... ... ... : ... .. . ... : ... .. . ... : ... .. . ... ...
ROW 39 : ... .. . ... ... ... : ... .. . ... ... ... : ... .. . ... : ... .. . ... : ... .. . ... ...
ROW 3A : ... .. . ... ... ... : ... .. . ... ... ... : ... .. . ... : ... .. . ... : ... .. . ... ...
ROW 3B : ... .. . ... ... ... : ... .. . ... ... ... : ... .. . ... : ... .. . ... : ... .. . ... ...
ROW 3C : ... .. . ... ... ... : ... .. . ... ... ... : ... .. . ... : ... .. . ... : ... .. . ... ...
ROW 3D : ... .. . ... ... ... : ... .. . ... ... ... : ... .. . ... : ... .. . ... : ... .. . ... ...
ROW 3E : ... .. . ... ... ... : ... .. . ... ... ... : ... .. . ... : ... .. . ... : ... .. . ... ...
ROW 3F : ... .. . ... ... ... : ... .. . ... ... ... : ... .. . ... : ... .. . ... : ... .. . ... ...
ROW 40 : ... .. . ... ... ... : ... .. . ... ... ... : ... .. . ... : ... .. . ... : ... .. . ... ...
ROW 41 : ... .. . ... ... ... : ... .. . ... ... ... : ... .. . ... : ... .. . ... : ... .. . ... ...
ROW 42 : ... .. . ... ... ... : ... .. . ... ... ... : ... .. . ... : ... .. . ... : ... .. . ... ...
ROW 43 : ... .. . ... ... ... : ... .. . ... ... ... : ... .. . ... : ... .. . ... : ... .. . ... ...
ROW 44 : ... .. . ... ... ... : ... .. . ... ... ... : ... .. . ... : ... .. . ... : ... .. . ... ...
ROW 45 : ... .. . ... ... ... : ... .. . ... ... ... : ... .. . ... : ... .. . ... : ... .. . ... ...
ROW 46 : ... .. . ... ... ... : ... .. . ... ... ... : ... .. . ... : ... .. . ... : ... .. . ... ...
ROW 47 : ... .. . ... ... ... : ... .. . ... ... ... : ... .. . ... : ... .. . ... : ... .. . ... ...
ROW 48 : ... .. . ... ... ... : G-1 00 D P7F ... ... : ... .. . ... : ... .. C ... : ... .. . ... ...
ROW 49 : ... .. . ... ... ... : ... .. 9 ... ... ... : ... .. . ... : ... .. 8 ... : ... .. . ... ...
ROW 4A : ... .. . ... ... ... : ... .. 7 ... ... ... : ... .. . ... : ... .. 4 ... : ... .. . ... ...
ROW 4B : ... .. . ... ... ... : ... .. 6 ... ... ... : ... .. . ... : ... .. 0 ... : ... .. . ... ...
ROW 4C : ... .. . ... ... ... : ... .. 5 ... ... ... : ... .. . ... : ... .. . ... : ... .. . ... ...
ROW 4D : ... .. . ... ... ... : ... .. . ... ... ... : ... .. . ... : ... .. . ... : ... .. . ... ...
ROW 4E : ... .. . ... ... ... : ... .. . ... ... ... : ... .. . ... : ... .. . ... : ... .. . ... ...
ROW 4F : ... .. . ... ... ... : ... .. 4 ... ... ... : ... .. . ... : ... .. . ... : ... .. . ... ...
ROW 50 : ... .. . ... ... ... : D-1 00 D P80 ... ... : ... .. . ... : ... .. C ... : ... .. . ... ...
ROW 51 : ... .. . ... ... ... : ... .. 9 ... ... ... : ... .. . ... : ... .. 8 ... : ... .. . ... ...
ROW 52 : ... .. . ... ... ... : ... .. 7 ... ... ... : ... .. . ... : ... .. 4 ... : ... .. . ... ...
ROW 53 : ... .. . ... ... ... : ... .. 6 ... ... ... : ... .. . ... : ... .. 0 ... : ... .. . ... ...
ROW 54 : ... .. . ... ... ... : ... .. 5 ... ... ... : ... .. . ... : ... .. . ... : ... .. . ... ...
ROW 55 : ... .. . ... ... ... : ... .. . ... ... ... : ... .. . ... : ... .. . ... : ... .. . ... ...
ROW 56 : ... .. . ... ... ... : ... .. . ... ... ... : ... .. . ... : ... .. . ... : ... .. . ... ...
ROW 57 : ... .. . ... ... ... : ... .. 4 ... ... ... : ... .. . ... : ... .. . ... : ... .. . ... ...
ROW 58 : ... .. . ... ... ... : G-1 00 D P7F ... ... : ... .. . ... : ... .. C ... : ... .. . ... ...
ROW 59 : ... .. . ... ... ... : ... .. 9 ... ... ... : ... .. . ... : ... .. 8 ... : ... .. . ... ...
ROW 5A : ... .. . ... ... ... : ... .. 7 ... ... ... : ... .. . ... : ... .. 4 ... : ... .. . ... ...
ROW 5B : ... .. . ... ... ... : ... .. 6 ... ... ... : ... .. . ... : ... .. 0 ... : ... .. . ... ...
ROW 5C : ... .. . ... ... ... : ... .. 5 ... ... ... : ... .. . ... : ... .. . ... : ... .. . ... ...
ROW 5D : ... .. . ... ... ... : ... .. . ... ... ... : ... .. . ... : ... .. . ... : ... .. . ... ...
ROW 5E : ... .. . ... ... ... : ... .. . ... ... ... : ... .. . ... : ... .. . ... : ... .. . ... ...
ROW 5F : ... .. . ... ... ... : ... .. 4 ... ... ... : ... .. . ... : ... .. . ... : ... .. . ... ...
ROW 60 : C-3 00 4 P80 ... ... : A#1 00 D P80 ... ... : ... .. . ... : ... .. C ... : ... .. . ... ...
ROW 61 : ... .. 5 ... ... ... : ... .. 9 ... ... ... : ... .. . ... : ... .. 8 ... : ... .. . ... ...
ROW 62 : ... .. 6 ... ... ... : ... .. 7 ... ... ... : ... .. . ... : ... .. 4 ... : ... .. . ... ...
ROW 63 : ... .. 7 ... ... ... : ... .. 6 ... ... ... : ... .. . ... : ... .. 0 ... : ... .. . ... ...
ROW 64 : ... .. 8 ... ... ... : ... .. 5 ... ... ... : ... .. . ... : ... .. . ... : ... .. . ... ...
ROW 65 : ... .. 7 ... ... ... : ... .. . ... ... ... : ... .. . ... : ... .. . ... : ... .. . ... ...
ROW 66 : ... .. 6 ... ... ... : ... .. . ... ... ... : ... .. . ... : ... .. . ... : ... .. . ... ...
ROW 67 : ... .. 5 ... ... ... : ... .. 4 ... ... ... : ... .. . ... : ... .. . ... : ... .. . ... ...
ROW 68 : ... .. 4 ... ... ... : ... .. . ... ... ... : ... .. . ... : ... .. . ... : ... .. . ... ...
ROW 69 : ... .. . ... ... ... : ... .. . ... ... ... : ... .. . ... : ... .. . ... : ... .. . ... ...
ROW 6A : ... .. . ... ... ... : ... .. . ... ... ... : ... .. . ... : ... .. . ... : ... .. . ... ...
ROW 6B : ... .. . ... ... ... : ... .. . ... ... ... : ... .. . ... : ... .. . ... : ... .. . ... ...
ROW 6C : ... .. . ... ... ... : ... .. . ... ... ... : ... .. . ... : ... .. . ... : ... .. . ... ...
ROW 6D : ... .. . ... ... ... : ... .. . ... ... ... : ... .. . ... : ... .. . ... : ... .. . ... ...
ROW 6E : ... .. . ... ... ... : ... .. . ... ... ... : ... .. . ... : ... .. . ... : ... .. . ... ...
ROW 6F : ... .. . ... ... ... : ... .. . ... ... ... : ... .. . ... : ... .. . ... : ... .. . ... ...
ROW 70 : ... .. . ... ... ... : ... .. . ... ... ... : ... .. . ... : ... .. . ... : ... .. . ... ...
ROW 71 : ... .. . ... ... ... : ... .. . ... ... ... : ... .. . ... : ... .. . ... : ... .. . ... ...
ROW 72 : ... .. . ... ... ... : ... .. . ... ... ... : ... .. . ... : ... .. . ... : ... .. . ... ...
ROW 73 : ... .. . ... ... ... : ... .. . ... ... ... : ... .. . ... : ... .. . ... : ... .. . ... ...
ROW 74 : ... .. . ... ... ... : ... .. . ... ... ... : ... .. . ... : ... .. . ... : ... .. . ... ...
ROW 75 : ... .. . ... ... ... : ... .. . ... ... ... : ... .. . ... : ... .. . ... : ... .. . ... ...
ROW 76 : ... .. . ... ... ... : ... .. . ... ... ... : ... .. . ... : ... .. . ... : ... .. . ... ...
ROW 77 : ... .. . ... ... ... : ... .. . ... ... ... : ... .. . ... : ... .. . ... : ... .. . ... ...
ROW 78 : ... .. . ... ... ... : A#1 00 D P80 ... ... : ... .. . ... : ... .. C ... : ... .. . ... ...
ROW 79 : ... .. . ... ... ... : ... .. 9 ... ... ... : ... .. . ... : ... .. 8 ... : ... .. . ... ...
ROW 7A : ... .. . ... ... ... : ... .. 7 ... ... ... : ... .. . ... : ... .. 4 ... : ... .. . ... ...
ROW 7B : ... .. . ... ... ... : ... .. 6 ... ... ... : ... .. . ... : ... .. 0 ... : ... .. . ... ...
ROW 7C : ... .. . ... ... ... : ... .. 5 ... ... ... : ... .. . ... : ... .. . ... : ... .. . ... ...
ROW 7D : ... .. . ... ... ... : ... .. . ... ... ... : ... .. . ... : ... .. . ... : ... .. . ... ...
ROW 7E : ... .. . ... ... ... : ... .. . ... ... ... : ... .. . ... : ... .. . ... : ... .. . ... ...
ROW 7F : ... .. . ... ... ... : ... .. 4 ... ... ... : ... .. . ... : ... .. . ... : ... .. . ... ...

PATTERN 01
ROW 00 : ... .. . ... ... ... : F-1 00 D P7F ... ... : ... .. . ... : ... .. . ... : ... .. . ... ...
ROW 01 : ... .. . ... ... ... : ... .. 9 ... ... ... : ... .. . ... : ... .. . ... : ... .. . ... ...
ROW 02 : ... .. . ... ... ... : ... .. 7 ... ... ... : ... .. . ... : ... .. . ... : ... .. . ... ...
ROW 03 : ... .. . ... ... ... : ... .. 6 ... ... ... : ... .. . ... : ... .. . ... : ... .. . ... ...
ROW 04 : ... .. . ... ... ... : ... .. 5 ... ... ... : ... .. . ... : ... .. . ... : ... .. . ... ...
ROW 05 : ... .. . ... ... ... : ... .. . ... ... ... : ... .. . ... : ... .. . ... : ... .. . ... ...
ROW 06 : ... .. . ... ... ... : ... .. . ... ... ... : ... .. . ... : ... .. . ... : ... .. . ... ...
ROW 07 : ... .. . ... ... ... : ... .. 4 ... ... ... : ... .. . ... : ... .. . ... : ... .. . ... ...
ROW 08 : ... .. . ... ... ... : A#1 00 D P80 ... ... : ... .. . ... : ... .. . ... : ... .. . ... ...
ROW 09 : ... .. . ... ... ... : ... .. 9 ... ... ... : ... .. . ... : ... .. . ... : ... .. . ... ...
ROW 0A : ... .. . ... ... ... : ... .. 7 ... ... ... : ... .. . ... : ... .. . ... : ... .. . ... ...
ROW 0B : ... .. . ... ... ... : ... .. 6 ... ... ... : ... .. . ... : ... .. . ... : ... .. . ... ...
ROW 0C : ... .. . ... ... ... : ... .. 5 ... ... ... : ... .. . ... : ... .. . ... : ... .. . ... ...
ROW 0D : ... .. . ... ... ... : ... .. . ... ... ... : ... .. . ... : ... .. . ... : ... .. . ... ...
ROW 0E : ... .. . ... ... ... : ... .. . ... ... ... : ... .. . ... : ... .. . ... : ... .. . ... ...
ROW 0F : ... .. . ... ... ... : ... .. 4 ... ... ... : ... .. . ... : ... .. . ... : ... .. . ... ...
ROW 10 : ... .. . ... ... ... : A#1 00 D P80 ... ... : ... .. . ... : ... .. C ... : ... .. . ... ...
ROW 11 : ... .. . ... ... ... : ... .. 9 ... ... ... : ... .. . ... : ... .. 8 ... : ... .. . ... ...
ROW 12 : ... .. . ... ... ... : ... .. 7 ... ... ... : ... .. . ... : ... .. 4 ... : ... .. . ... ...
ROW 13 : ... .. . ... ... ... : ... .. 6 ... ... ... : ... .. . ... : ... .. 0 ... : ... .. . ... ...
ROW 14 : ... .. . ... ... ... : ... .. 5 ... ... ... : ... .. . ... : ... .. . ... : ... .. . ... ...
ROW 15 : ... .. . ... ... ... : ... .. . ... ... ... : ... .. . ... : ... .. . ... : ... .. . ... ...
ROW 16 : ... .. . ... ... ... : ... .. . ... ... ... : ... .. . ... : ... .. . ... : ... .. . ... ...
ROW 17 : ... .. . ... ... ... : ... .. 4 ... ... ... : ... .. . ... : ... .. . ... : ... .. . ... ...
ROW 18 : ... .. . ... ... ... : ... .. . ... ... ... : ... .. . ... : ... .. . ... : ... .. . ... ...
ROW 19 : ... .. . ... ... ... : ... .. . ... ... ... : ... .. . ... : ... .. . ... : ... .. . ... ...
ROW 1A : ... .. . ... ... ... : ... .. . ... ... ... : ... .. . ... : ... .. . ... : ... .. . ... ...
ROW 1B : ... .. . ... ... ... : ... .. . ... ... ... : ... .. . ... : ... .. . ... : ... .. . ... ...
ROW 1C : ... .. . ... ... ... : ... .. . ... ... ... : ... .. . ... : ... .. . ... : ... .. . ... ...
ROW 1D : ... .. . ... ... ... : ... .. . ... ... ... : ... .. . ... : ... .. . ... : ... .. . ... ...
ROW 1E : ... .. . ... ... ... : ... .. . ... ... ... : ... .. . ... : ... .. . ... : ... .. . ... ...
ROW 1F : ... .. . ... ... ... : ... .. . ... ... ... : ... .. . ... : ... .. . ... : ... .. . ... ...
ROW 20 : ... .. . ... ... ... : ... .. . ... ... ... : ... .. . ... : ... .. . ... : ... .. . ... ...
ROW 21 : ... .. . ... ... ... : ... .. . ... ... ... : ... .. . ... : ... .. . ... : ... .. . ... ...
ROW 22 : ... .. . ... ... ... : ... .. . ... ... ... : ... .. . ... : ... .. . ... : ... .. . ... ...
ROW 23 : ... .. . ... ... ... : ... .. . ... ... ... : ... .. . ... : ... .. . ... : ... .. . ... ...
ROW 24 : ... .. . ... ... ... : ... .. . ... ... ... : ... .. . ... : ... .. . ... : ... .. . ... ...
ROW 25 : ... .. . ... ... ... : ... .. . ... ... ... : ... .. . ... : ... .. . ... : ... .. . ... ...
ROW 26 : ... .. . ... ... ... : ... .. . ... ... ... : ... .. . ... : ... .. . ... : ... .. . ... ...
ROW 27 : ... .. . ... ... ... : ... .. . ... ... ... : ... .. . ... : ... .. . ... : ... .. . ... ...
ROW 28 : ... .. . ... ... ... : A#1 00 D P80 ... ... : ... .. . ... : ... .. C ... : ... .. . ... ...
ROW 29 : ... .. . ... ... ... : ... .. 9 ... ... ... : ... .. . ... : ... .. 8 ... : ... .. . ... ...
ROW 2A : ... .. . ... ... ... : ... .. 7 ... ... ... : ... .. . ... : ... .. 4 ... : ... .. . ... ...
ROW 2B : ... .. . ... ... ... : ... .. 6 ... ... ... : ... .. . ... : ... .. 0 ... : ... .. . ... ...
ROW 2C : ... .. . ... ... ... : ... .. 5 ... ... ... : ... .. . ... : ... .. . ... : ... .. . ... ...
ROW 2D : ... .. . ... ... ... : ... .. . ... ... ... : ... .. . ... : ... .. . ... : ... .. . ... ...
ROW 2E : ... .. . ... ... ... : ... .. . ... ... ... : ... .. . ... : ... .. . ... : ... .. . ... ...
ROW 2F : ... .. . ... ... ... : ... .. 4 ... ... ... : ... .. . ... : ... .. . ... : ... .. . ... ...
ROW 30 : ... .. . ... ... ... : F-1 00 D P7F ... ... : ... .. . ... : ... .. C ... : ... .. . ... ...
ROW 31 : ... .. . ... ... ... : ... .. 9 ... ... ... : ... .. . ... : ... .. 8 ... : ... .. . ... ...
ROW 32 : ... .. . ... ... ... : ... .. 7 ... ... ... : ... .. . ... : ... .. 4 ... : ... .. . ... ...
ROW 33 : ... .. . ... ... ... : ... .. 6 ... ... ... : ... .. . ... : ... .. 0 ... : ... .. . ... ...
ROW 34 : ... .. . ... ... ... : ... .. 5 ... ... ... : ... .. . ... : ... .. . ... : ... .. . ... ...
ROW 35 : ... .. . ... ... ... : ... .. . ... ... ... : ... .. . ... : ... .. . ... : ... .. . ... ...
ROW 36 : ... .. . ... ... ... : ... .. . ... ... ... : ... .. . ... : ... .. . ... : ... .. . ... ...
ROW 37 : ... .. . ... ... ... : ... .. 4 ... ... ... : ... .. . ... : ... .. . ... : ... .. . ... ...
ROW 38 : ... .. . ... ... ... : A#1 00 D P80 ... ... : ... .. . ... : ... .. C ... : ... .. . ... ...
ROW 39 : ... .. . ... ... ... : ... .. 9 ... ... ... : ... .. . ... : ... .. 8 ... : ... .. . ... ...
ROW 3A : ... .. . ... ... ... : ... .. 7 ... ... ... : ... .. . ... : ... .. 4 ... : ... .. . ... ...
ROW 3B : ... .. . ... ... ... : ... .. 6 ... ... ... : ... .. . ... : ... .. 0 ... : ... .. . ... ...
ROW 3C : ... .. . ... ... ... : ... .. 5 ... ... ... : ... .. . ... : ... .. . ... : ... .. . ... ...
ROW 3D : ... .. . ... ... ... : ... .. . ... ... ... : ... .. . ... : ... .. . ... : ... .. . ... ...
ROW 3E : ... .. . ... ... ... : ... .. . ... ... ... : ... .. . ... : ... .. . ... : ... .. . ... ...
ROW 3F : ... .. . ... ... ... : ... .. 4 ... ... ... : ... .. . ... : ... .. . ... : ... .. . ... ...
ROW 40 : B-2 00 4 P80 ... ... : G-1 00 D P7F ... ... : ... .. . ... : ... .. C ... : ... .. . ... ...
ROW 41 : ... .. 5 ... ... ... : ... .. 9 ... ... ... : ... .. . ... : ... .. 8 ... : ... .. . ... ...
ROW 42 : ... .. 6 ... ... ... : ... .. 7 ... ... ... : ... .. . ... : ... .. 4 ... : ... .. . ... ...
ROW 43 : ... .. 7 ... ... ... : ... .. 6 ... ... ... : ... .. . ... : ... .. 0 ... : ... .. . ... ...
ROW 44 : ... .. 8 ... ... ... : ... .. 5 ... ... ... : ... .. . ... : ... .. . ... : ... .. . ... ...
ROW 45 : ... .. 7 ... ... ... : ... .. . ... ... ... : ... .. . ... : ... .. . ... : ... .. . ... ...
ROW 46 : ... .. 6 ... ... ... : ... .. . ... ... ... : ... .. . ... : ... .. . ... : ... .. . ... ...
ROW 47 : ... .. 5 ... ... ... : ... .. 4 ... ... ... : ... .. . ... : ... .. . ... : ... .. . ... ...
ROW 48 : ... .. 4 ... ... ... : ... .. . ... ... ... : ... .. . ... : ... .. . ... : ... .. . ... ...
ROW 49 : ... .. . ... ... ... : ... .. . ... ... ... : ... .. . ... : ... .. . ... : ... .. . ... ...
ROW 4A : ... .. . ... ... ... : ... .. . ... ... ... : ... .. . ... : ... .. . ... : ... .. . ... ...
ROW 4B : ... .. . ... ... ... : ... .. . ... ... ... : ... .. . ... : ... .. . ... : ... .. . ... ...
ROW 4C : ... .. . ... ... ... : ... .. . ... ... ... : ... .. . ... : ... .. . ... : ... .. . ... ...
ROW 4D : ... .. . ... ... ... : ... .. . ... ... ... : ... .. . ... : ... .. . ... : ... .. . ... ...
ROW 4E : ... .. . ... ... ... : ... .. . ... ... ... : ... .. . ... : ... .. . ... : ... .. . ... ...
ROW 4F : ... .. . ... ... ... : ... .. . ... ... ... : ... .. . ... : ... .. . ... : ... .. . ... ...
ROW 50 : ... .. . ... ... ... : ... .. . ... ... ... : ... .. . ... : ... .. . ... : ... .. . ... ...
ROW 51 : ... .. . ... ... ... : ... .. . ... ... ... : ... .. . ... : ... .. . ... : ... .. . ... ...
ROW 52 : ... .. . ... ... ... : ... .. . ... ... ... : ... .. . ... : ... .. . ... : ... .. . ... ...
ROW 53 : ... .. . ... ... ... : ... .. . ... ... ... : ... .. . ... : ... .. . ... : ... .. . ... ...
ROW 54 : ... .. . ... ... ... : ... .. . ... ... ... : ... .. . ... : ... .. . ... : ... .. . ... ...
ROW 55 : ... .. . ... ... ... : ... .. . ... ... ... : ... .. . ... : ... .. . ... : ... .. . ... ...
ROW 56 : ... .. . ... ... ... : ... .. . ... ... ... : ... .. . ... : ... .. . ... : ... .. . ... ...
ROW 57 : ... .. . ... ... ... : ... .. . ... ... ... : ... .. . ... : ... .. . ... : ... .. . ... ...
ROW 58 : ... .. . ... ... ... : G-1 00 D P7F ... ... : ... .. . ... : ... .. C ... : ... .. . ... ...
ROW 59 : ... .. . ... ... ... : ... .. 9 ... ... ... : ... .. . ... : ... .. 8 ... : ... .. . ... ...
ROW 5A : ... .. . ... ... ... : ... .. 7 ... ... ... : ... .. . ... : ... .. 4 ... : ... .. . ... ...
ROW 5B : ... .. . ... ... ... : ... .. 6 ... ... ... : ... .. . ... : ... .. 0 ... : ... .. . ... ...
ROW 5C : ... .. . ... ... ... : ... .. 5 ... ... ... : ... .. . ... : ... .. . ... : ... .. . ... ...
ROW 5D : ... .. . ... ... ... : ... .. . ... ... ... : ... .. . ... : ... .. . ... : ... .. . ... ...
ROW 5E : ... .. . ... ... ... : ... .. . ... ... ... : ... .. . ... : ... .. . ... : ... .. . ... ...
ROW 5F : ... .. . ... ... ... : ... .. 4 ... ... ... : ... .. . ... : ... .. . ... : ... .. . ... ...
ROW 60 : ... .. . ... ... ... : D-1 00 D P80 ... ... : ... .. . ... : ... .. . ... : ... .. . ... ...
ROW 61 : ... .. . ... ... ... : ... .. 9 ... ... ... : ... .. . ... : ... .. . ... : ... .. . ... ...
ROW 62 : ... .. . ... ... ... : ... .. 7 ... ... ... : ... .. . ... : ... .. . ... : ... .. . ... ...
ROW 63 : ... .. . ... ... ... : ... .. 6 ... ... ... : ... .. . ... : ... .. . ... : ... .. . ... ...
ROW 64 : ... .. . ... ... ... : ... .. 5 ... ... ... : ... .. . ... : ... .. . ... : ... .. . ... ...
ROW 65 : ... .. . ... ... ... : ... .. . ... ... ... : ... .. . ... : ... .. . ... : ... .. . ... ...
ROW 66 : ... .. . ... ... ... : ... .. . ... ... ... : ... .. . ... : ... .. . ... : ... .. . ... ...
ROW 67 : ... .. . ... ... ... : ... .. 4 ... ... ... : ... .. . ... : ... .. . ... : ... .. . ... ...
ROW 68 : ... .. . ... ... ... : G-1 00 D P7F ... ... : ... .. . ... : ... .. . ... : ... .. . ... ...
ROW 69 : ... .. . ... ... ... : ... .. 9 ... ... ... : ... .. . ... : ... .. . ... : ... .. . ... ...
ROW 6A : ... .. . ... ... ... : ... .. 7 ... ... ... : ... .. . ... : ... .. . ... : ... .. . ... ...
ROW 6B : ... .. . ... ... ... : ... .. 6 ... ... ... : ... .. . ... : ... .. . ... : ... .. . ... ...
ROW 6C : ... .. . ... ... ... : ... .. 5 ... ... ... : ... .. . ... : ... .. . ... : ... .. . ... ...
ROW 6D : ... .. . ... ... ... : ... .. . ... ... ... : ... .. . ... : ... .. . ... : ... .. . ... ...
ROW 6E : ... .. . ... ... ... : ... .. . ... ... ... : ... .. . ... : ... .. . ... : ... .. . ... ...
ROW 6F : ... .. . ... ... ... : ... .. 4 ... ... ... : ... .. . ... : ... .. . ... : ... .. . ... ...
ROW 70 : ... .. . ... ... ... : G-1 00 D P7F ... ... : ... .. . ... : ... .. C ... : ... .. . ... ...
ROW 71 : ... .. . ... ... ... : ... .. 9 ... ... ... : ... .. . ... : ... .. 8 ... : ... .. . ... ...
ROW 72 : ... .. . ... ... ... : ... .. 7 ... ... ... : ... .. . ... : ... .. 4 ... : ... .. . ... ...
ROW 73 : ... .. . ... ... ... : ... .. 6 ... ... ... : ... .. . ... : ... .. 0 ... : ... .. . ... ...
ROW 74 : ... .. . ... ... ... : ... .. 5 ... ... ... : ... .. . ... : ... .. . ... : ... .. . ... ...
ROW 75 : ... .. . ... ... ... : ... .. . ... ... ... : ... .. . ... : ... .. . ... : ... .. . ... ...
ROW 76 : ... .. . ... ... ... : ... .. . ... ... ... : ... .. . ... : ... .. . ... : ... .. . ... ...
ROW 77 : ... .. . ... ... ... : ... .. 4 ... ... ... : ... .. . ... : ... .. . ... : ... .. . ... ...
ROW 78 : ... .. . ... ... ... : ... .. . ... ... ... : ... .. . ... : ... .. . ... : ... .. . ... ...
ROW 79 : ... .. . ... ... ... : ... .. . ... ... ... : ... .. . ... : ... .. . ... : ... .. . ... ...
ROW 7A : ... .. . ... ... ... : ... .. . ... ... ... : ... .. . ... : ... .. . ... : ... .. . ... ...
ROW 7B : ... .. . ... ... ... : ... .. . ... ... ... : ... .. . ... : ... .. . ... : ... .. . ... ...
ROW 7C : ... .. . ... ... ... : ... .. . ... ... ... : ... .. . ... : ... .. . ... : ... .. . ... ...
ROW 7D : ... .. . ... ... ... : ... .. . ... ... ... : ... .. . ... : ... .. . ... : ... .. . ... ...
ROW 7E : ... .. . ... ... ... : ... .. . ... ... ... : ... .. . ... : ... .. . ... : ... .. . ... ...
ROW 7F : ... .. . ... ... ... : ... .. . ... ... ... : ... .. . ... : ... .. . ... : ... .. . ... ...

PATTERN 02
ROW 00 : ... .. . ... ... ... : ... .. . ... ... ... : ... .. . ... : ... .. . ... : ... .. . ... ...
ROW 01 : ... .. . ... ... ... : ... .. . ... ... ... : ... .. . ... : ... .. . ... : ... .. . ... ...
ROW 02 : ... .. . ... ... ... : ... .. . ... ... ... : ... .. . ... : ... .. . ... : ... .. . ... ...
ROW 03 : ... .. . ... ... ... : ... .. . ... ... ... : ... .. . ... : ... .. . ... : ... .. . ... ...
ROW 04 : ... .. . ... ... ... : ... .. . ... ... ... : ... .. . ... : ... .. . ... : ... .. . ... ...
ROW 05 : ... .. . ... ... ... : ... .. . ... ... ... : ... .. . ... : ... .. . ... : ... .. . ... ...
ROW 06 : ... .. . ... ... ... : ... .. . ... ... ... : ... .. . ... : ... .. . ... : ... .. . ... ...
ROW 07 : ... .. . ... ... ... : ... .. . ... ... ... : ... .. . ... : ... .. . ... : ... .. . ... ...
ROW 08 : ... .. . ... ... ... : G-1 00 D P7F ... ... : ... .. . ... : ... .. C ... : ... .. . ... ...
ROW 09 : ... .. . ... ... ... : ... .. 9 ... ... ... : ... .. . ... : ... .. 8 ... : ... .. . ... ...
ROW 0A : ... .. . ... ... ... : ... .. 7 ... ... ... : ... .. . ... : ... .. 4 ... : ... .. . ... ...
ROW 0B : ... .. . ... ... ... : ... .. 6 ... ... ... : ... .. . ... : ... .. 0 ... : ... .. . ... ...
ROW 0C : ... .. . ... ... ... : ... .. 5 ... ... ... : ... .. . ... : ... .. . ... : ... .. . ... ...
ROW 0D : ... .. . ... ... ... : ... .. . ... ... ... : ... .. . ... : ... .. . ... : ... .. . ... ...
ROW 0E : ... .. . ... ... ... : ... .. . ... ... ... : ... .. . ... : ... .. . ... : ... .. . ... ...
ROW 0F : ... .. . ... ... ... : ... .. 4 ... ... ... : ... .. . ... : ... .. . ... : ... .. . ... ...
ROW 10 : ... .. . ... ... ... : D-1 00 D P80 ... ... : ... .. . ... : ... .. C ... : ... .. . ... ...
ROW 11 : ... .. . ... ... ... : ... .. 9 ... ... ... : ... .. . ... : ... .. 8 ... : ... .. . ... ...
ROW 12 : ... .. . ... ... ... : ... .. 7 ... ... ... : ... .. . ... : ... .. 4 ... : ... .. . ... ...
ROW 13 : ... .. . ... ... ... : ... .. 6 ... ... ... : ... .. . ... : ... .. 0 ... : ... .. . ... ...
ROW 14 : ... .. . ... ... ... : ... .. 5 ... ... ... : ... .. . ... : ... .. . ... : ... .. . ... ...
ROW 15 : ... .. . ... ... ... : ... .. . ... ... ... : ... .. . ... : ... .. . ... : ... .. . ... ...
ROW 16 : ... .. . ... ... ... : ... .. . ... ... ... : ... .. . ... : ... .. . ... : ... .. . ... ...
ROW 17 : ... .. . ... ... ... : ... .. 4 ... ... ... : ... .. . ... : ... .. . ... : ... .. . ... ...
ROW 18 : ... .. . ... ... ... : G-1 00 D P7F ... ... : ... .. . ... : ... .. C ... : ... .. . ... ...
ROW 19 : ... .. . ... ... ... : ... .. 9 ... ... ... : ... .. . ... : ... .. 8 ... : ... .. . ... ...
ROW 1A : ... .. . ... ... ... : ... .. 7 ... ... ... : ... .. . ... : ... .. 4 ... : ... .. . ... ...
ROW 1B : ... .. . ... ... ... : ... .. 6 ... ... ... : ... .. . ... : ... .. 0 ... : ... .. . ... ...
ROW 1C : ... .. . ... ... ... : ... .. 5 ... ... ... : ... .. . ... : ... .. . ... : ... .. . ... ...
ROW 1D : ... .. . ... ... ... : ... .. . ... ... ... : ... .. . ... : ... .. . ... : ... .. . ... ...
ROW 1E : ... .. . ... ... ... : ... .. . ... ... ... : ... .. . ... : ... .. . ... : ... .. . ... ...
ROW 1F : ... .. . ... ... ... : ... .. 4 ... ... ... : ... .. . ... : ... .. . ... : ... .. . ... ...
ROW 20 : C-3 00 4 P80 ... ... : A#1 00 D P80 ... ... : ... .. . ... : ... .. C ... : ... .. . ... ...
ROW 21 : ... .. 5 ... ... ... : ... .. 9 ... ... ... : ... .. . ... : ... .. 8 ... : ... .. . ... ...
ROW 22 : ... .. 6 ... ... ... : ... .. 7 ... ... ... : ... .. . ... : ... .. 4 ... : ... .. . ... ...
ROW 23 : ... .. 7 ... ... ... : ... .. 6 ... ... ... : ... .. . ... : ... .. 0 ... : ... .. . ... ...
ROW 24 : ... .. 8 ... ... ... : ... .. 5 ... ... ... : ... .. . ... : ... .. . ... : ... .. . ... ...
ROW 25 : ... .. 7 ... ... ... : ... .. . ... ... ... : ... .. . ... : ... .. . ... : ... .. . ... ...
ROW 26 : ... .. 6 ... ... ... : ... .. . ... ... ... : ... .. . ... : ... .. . ... : ... .. . ... ...
ROW 27 : ... .. 5 ... ... ... : ... .. 4 ... ... ... : ... .. . ... : ... .. . ... : ... .. . ... ...
ROW 28 : ... .. 4 ... ... ... : ... .. . ... ... ... : ... .. . ... : ... .. . ... : ... .. . ... ...
ROW 29 : ... .. . ... ... ... : ... .. . ... ... ... : ... .. . ... : ... .. . ... : ... .. . ... ...
ROW 2A : ... .. . ... ... ... : ... .. . ... ... ... : ... .. . ... : ... .. . ... : ... .. . ... ...
ROW 2B : ... .. . ... ... ... : ... .. . ... ... ... : ... .. . ... : ... .. . ... : ... .. . ... ...
ROW 2C : ... .. . ... ... ... : ... .. . ... ... ... : ... .. . ... : ... .. . ... : ... .. . ... ...
ROW 2D : ... .. . ... ... ... : ... .. . ... ... ... : ... .. . ... : ... .. . ... : ... .. . ... ...
ROW 2E : ... .. . ... ... ... : ... .. . ... ... ... : ... .. . ... : ... .. . ... : ... .. . ... ...
ROW 2F : ... .. . ... ... ... : ... .. . ... ... ... : ... .. . ... : ... .. . ... : ... .. . ... ...
ROW 30 : ... .. . ... ... ... : ... .. . ... ... ... : ... .. . ... : ... .. . ... : ... .. . ... ...
ROW 31 : ... .. . ... ... ... : ... .. . ... ... ... : ... .. . ... : ... .. . ... : ... .. . ... ...
ROW 32 : ... .. . ... ... ... : ... .. . ... ... ... : ... .. . ... : ... .. . ... : ... .. . ... ...
ROW 33 : ... .. . ... ... ... : ... .. . ... ... ... : ... .. . ... : ... .. . ... : ... .. . ... ...
ROW 34 : ... .. . ... ... ... : ... .. . ... ... ... : ... .. . ... : ... .. . ... : ... .. . ... ...
ROW 35 : ... .. . ... ... ... : ... .. . ... ... ... : ... .. . ... : ... .. . ... : ... .. . ... ...
ROW 36 : ... .. . ... ... ... : ... .. . ... ... ... : ... .. . ... : ... .. . ... : ... .. . ... ...
ROW 37 : ... .. . ... ... ... : ... .. . ... ... ... : ... .. . ... : ... .. . ... : ... .. . ... ...
ROW 38 : ... .. . ... ... ... : A#1 00 D P80 ... ... : ... .. . ... : ... .. C ... : ... .. . ... ...
ROW 39 : ... .. . ... ... ... : ... .. 9 ... ... ... : ... .. . ... : ... .. 8 ... : ... .. . ... ...
ROW 3A : ... .. . ... ... ... : ... .. 7 ... ... ... : ... .. . ... : ... .. 4 ... : ... .. . ... ...
ROW 3B : ... .. . ... ... ... : ... .. 6 ... ... ... : ... .. . ... : ... .. 0 ... : ... .. . ... ...
ROW 3C : ... .. . ... ... ... : ... .. 5 ... ... ... : ... .. . ... : ... .. . ... : ... .. . ... ...
ROW 3D : ... .. . ... ... ... : ... .. . ... ... ... : ... .. . ... : ... .. . ... : ... .. . ... ...
ROW 3E : ... .. . ... ... ... : ... .. . ... ... ... : ... .. . ... : ... .. . ... : ... .. . ... ...
ROW 3F : ... .. . ... ... ... : ... .. 4 ... ... ... : ... .. . ... : ... .. . ... : ... .. . ... ...
ROW 40 : ... .. . ... ... ... : F-1 00 D P7F ... ... : ... .. . ... : ... .. . ... : ... .. . ... ...
ROW 41 : ... .. . ... ... ... : ... .. 9 ... ... ... : ... .. . ... : ... .. . ... : ... .. . ... ...
ROW 42 : ... .. . ... ... ... : ... .. 7 ... ... ... : ... .. . ... : ... .. . ... : ... .. . ... ...
ROW 43 : ... .. . ... ... ... : ... .. 6 ... ... ... : ... .. . ... : ... .. . ... : ... .. . ... ...
ROW 44 : ... .. . ... ... ... : ... .. 5 ... ... ... : ... .. . ... : ... .. . ... : ... .. . ... ...
ROW 45 : ... .. . ... ... ... : ... .. . ... ... ... : ... .. . ... : ... .. . ... : ... .. . ... ...
ROW 46 : ... .. . ... ... ... : ... .. . ... ... ... : ... .. . ... : ... .. . ... : ... .. . ... ...
ROW 47 : ... .. . ... ... ... : ... .. 4 ... ... ... : ... .. . ... : ... .. . ... : ... .. . ... ...
ROW 48 : ... .. . ... ... ... : A#1 00 D P80 ... ... : ... .. . ... : ... .. . ... : ... .. . ... ...
ROW 49 : ... .. . ... ... ... : ... .. 9 ... ... ... : ... .. . ... : ... .. . ... : ... .. . ... ...
ROW 4A : ... .. . ... ... ... : ... .. 7 ... ... ... : ... .. . ... : ... .. . ... : ... .. . ... ...
ROW 4B : ... .. . ... ... ... : ... .. 6 ... ... ... : ... .. . ... : ... .. . ... : ... .. . ... ...
ROW 4C : ... .. . ... ... ... : ... .. 5 ... ... ... : ... .. . ... : ... .. . ... : ... .. . ... ...
ROW 4D : ... .. . ... ... ... : ... .. . ... ... ... : ... .. . ... : ... .. . ... : ... .. . ... ...
ROW 4E : ... .. . ... ... ... : ... .. . ... ... ... : ... .. . ... : ... .. . ... : ... .. . ... ...
ROW 4F : ... .. . ... ... ... : ... .. 4 ... ... ... : ... .. . ... : ... .. . ... : ... .. . ... ...
ROW 50 : ... .. . ... ... ... : A#1 00 D P80 ... ... : ... .. . ... : ... .. C ... : ... .. . ... ...
ROW 51 : ... .. . ... ... ... : ... .. 9 ... ... ... : ... .. . ... : ... .. 8 ... : ... .. . ... ...
ROW 52 : ... .. . ... ... ... : ... .. 7 ... ... ... : ... .. . ... : ... .. 4 ... : ... .. . ... ...
ROW 53 : ... .. . ... ... ... : ... .. 6 ... ... ... : ... .. . ... : ... .. 0 ... : ... .. . ... ...
ROW 54 : ... .. . ... ... ... : ... .. 5 ... ... ... : ... .. . ... : ... .. . ... : ... .. . ... ...
ROW 55 : ... .. . ... ... ... : ... .. . ... ... ... : ... .. . ... : ... .. . ... : ... .. . ... ...
ROW 56 : ... .. . ... ... ... : ... .. . ... ... ... : ... .. . ... : ... .. . ... : ... .. . ... ...
ROW 57 : ... .. . ... ... ... : ... .. 4 ... ... ... : ... .. . ... : ... .. . ... : ... .. . ... ...
ROW 58 : ... .. . ... ... ... : ... .. . ... ... ... : ... .. . ... : ... .. . ... : ... .. . ... ...
ROW 59 : ... .. . ... ... ... : ... .. . ... ... ... : ... .. . ... : ... .. . ... : ... .. . ... ...
ROW 5A : ... .. . ... ... ... : ... .. . ... ... ... : ... .. . ... : ... .. . ... : ... .. . ... ...
ROW 5B : ... .. . ... ... ... : ... .. . ... ... ... : ... .. . ... : ... .. . ... : ... .. . ... ...
ROW 5C : ... .. . ... ... ... : ... .. . ... ... ... : ... .. . ... : ... .. . ... : ... .. . ... ...
ROW 5D : ... .. . ... ... ... : ... .. . ... ... ... : ... .. . ... : ... .. . ... : ... .. . ... ...
ROW 5E : ... .. . ... ... ... : ... .. . ... ... ... : ... .. . ... : ... .. . ... : ... .. . ... ...
ROW 5F : ... .. . ... ... ... : ... .. . ... ... ... : ... .. . ... : ... .. . ... : ... .. . ... ...
ROW 60 : ... .. . ... ... ... : ... .. . ... ... ... : ... .. . ... : ... .. . ... : ... .. . ... ...
ROW 61 : ... .. . ... ... ... : ... .. . ... ... ... : ... .. . ... : ... .. . ... : ... .. . ... ...
ROW 62 : ... .. . ... ... ... : ... .. . ... ... ... : ... .. . ... : ... .. . ... : ... .. . ... ...
ROW 63 : ... .. . ... ... ... : ... .. . ... ... ... : ... .. . ... : ... .. . ... : ... .. . ... ...
ROW 64 : ... .. . ... ... ... : ... .. . ... ... ... : ... .. . ... : ... .. . ... : ... .. . ... ...
ROW 65 : ... .. . ... ... ... : ... .. . ... ... ... : ... .. . ... : ... .. . ... : ... .. . ... ...
ROW 66 : ... .. . ... ... ... : ... .. . ... ... ... : ... .. . ... : ... .. . ... : ... .. . ... ...
ROW 67 : ... .. . ... ... ... : ... .. . ... ... ... : ... .. . ... : ... .. . ... : ... .. . ... ...
ROW 68 : ... .. . ... ... ... : A#1 00 D P80 ... ... : ... .. . ... : ... .. C ... : ... .. . ... ...
ROW 69 : ... .. . ... ... ... : ... .. 9 ... ... ... : ... .. . ... : ... .. 8 ... : ... .. . ... ...
ROW 6A : ... .. . ... ... ... : ... .. 7 ... ... ... : ... .. . ... : ... .. 4 ... : ... .. . ... ...
ROW 6B : ... .. . ... ... ... : ... .. 6 ... ... ... : ... .. . ... : ... .. 0 ... : ... .. . ... ...
ROW 6C : ... .. . ... ... ... : ... .. 5 ... ... ... : ... .. . ... : ... .. . ... : ... .. . ... ...
ROW 6D : ... .. . ... ... ... : ... .. . ... ... ... : ... .. . ... : ... .. . ... : ... .. . ... ...
ROW 6E : ... .. . ... ... ... : ... .. . ... ... ... : ... .. . ... : ... .. . ... : ... .. . ... ...
ROW 6F : ... .. . ... ... ... : ... .. 4 ... ... ... : ... .. . ... : ... .. . ... : ... .. . ... ...
ROW 70 : ... .. . ... ... ... : F-1 00 D P7F ... ... : ... .. . ... : ... .. C ... : ... .. . ... ...
ROW 71 : ... .. . ... ... ... : ... .. 9 ... ... ... : ... .. . ... : ... .. 8 ... : ... .. . ... ...
ROW 72 : ... .. . ... ... ... : ... .. 7 ... ... ... : ... .. . ... : ... .. 4 ... : ... .. . ... ...
ROW 73 : ... .. . ... ... ... : ... .. 6 ... ... ... : ... .. . ... : ... .. 0 ... : ... .. . ... ...
ROW 74 : ... .. . ... ... ... : ... .. 5 ... ... ... : ... .. . ... : ... .. . ... : ... .. . ... ...
ROW 75 : ... .. . ... ... ... : ... .. . ... ... ... : ... .. . ... : ... .. . ... : ... .. . ... ...
ROW 76 : ... .. . ... ... ... : ... .. . ... ... ... : ... .. . ... : ... .. . ... : ... .. . ... ...
ROW 77 : ... .. . ... ... ... : ... .. 4 ... ... ... : ... .. . ... : ... .. . ... : ... .. . ... ...
ROW 78 : ... .. . ... ... ... : A#1 00 D P80 ... ... : ... .. . ... : ... .. C ... : ... .. . ... ...
ROW 79 : ... .. . ... ... ... : ... .. 9 ... ... ... : ... .. . ... : ... .. 8 ... : ... .. . ... ...
ROW 7A : ... .. . ... ... ... : ... .. 7 ... ... ... : ... .. . ... : ... .. 4 ... : ... .. . ... ...
ROW 7B : ... .. . ... ... ... : ... .. 6 ... ... ... : ... .. . ... : ... .. 0 ... : ... .. . ... ...
ROW 7C : ... .. . ... ... ... : ... .. 5 ... ... ... : ... .. . ... : ... .. . ... : ... .. . ... ...
ROW 7D : ... .. . ... ... ... : ... .. . ... ... ... : ... .. . ... : ... .. . ... : ... .. . ... ...
ROW 7E : ... .. . ... ... ... : ... .. . ... ... ... : ... .. . ... : ... .. . ... : ... .. . ... ...
ROW 7F : ... .. . ... ... ... : ... .. 4 ... ... ... : ... .. . ... : ... .. . ... : ... .. . ... ...

PATTERN 03
ROW 00 : B-2 00 4 P80 ... ... : G-3 00 D P80 ... ... : G-2 00 . ... : ... .. C ... : ... .. . ... ...
ROW 01 : ... .. 5 ... ... ... : ... .. 9 ... ... ... : ... .. . ... : ... .. 8 ... : ... .. . ... ...
ROW 02 : ... .. 6 ... ... ... : ... .. 7 ... ... ... : ... .. . ... : ... .. 4 ... : ... .. . ... ...
ROW 03 : ... .. 7 ... ... ... : ... .. 6 ... ... ... : ... .. . ... : ... .. 0 ... : ... .. . ... ...
ROW 04 : ... .. 8 ... ... ... : ... .. 5 ... ... ... : ... .. . ... : ... .. . ... : ... .. . ... ...
ROW 05 : ... .. 7 ... ... ... : ... .. . ... ... ... : ... .. . ... : ... .. . ... : ... .. . ... ...
ROW 06 : ... .. 6 ... ... ... : ... .. . ... ... ... : ... .. . ... : ... .. . ... : ... .. . ... ...
ROW 07 : ... .. 5 ... ... ... : ... .. 4 ... ... ... : ... .. . ... : ... .. . ... : ... .. . ... ...
ROW 08 : ... .. 4 ... ... ... : ... .. . ... ... ... : ... .. . ... : ... .. . ... : ... .. . ... ...
ROW 09 : ... .. . ... ... ... : ... .. . ... ... ... : ... .. . ... : ... .. . ... : ... .. . ... ...
ROW 0A : ... .. . ... ... ... : ... .. . ... ... ... : ... .. . ... : ... .. . ... : ... .. . ... ...
ROW 0B : ... .. . ... ... ... : ... .. . ... ... ... : ... .. . ... : ... .. . ... : ... .. . ... ...
ROW 0C : ... .. . ... ... ... : ... .. . ... ... ... : ... .. . ... : ... .. . ... : ... .. . ... ...
ROW 0D : ... .. . ... ... ... : ... .. . ... ... ... : ... .. . ... : ... .. . ... : ... .. . ... ...
ROW 0E : ... .. . ... ... ... : ... .. . ... ... ... : ... .. . ... : ... .. . ... : ... .. . ... ...
ROW 0F : ... .. . ... ... ... : ... .. . ... ... ... : --- .. . ... : ... .. . ... : ... .. . ... ...
ROW 10 : ... .. . ... ... ... : ... .. . ... ... ... : ... .. . ... : ... .. . ... : ... .. . ... ...
ROW 11 : ... .. . ... ... ... : ... .. . ... ... ... : ... .. . ... : ... .. . ... : ... .. . ... ...
ROW 12 : ... .. . ... ... ... : ... .. . ... ... ... : ... .. . ... : ... .. . ... : ... .. . ... ...
ROW 13 : ... .. . ... ... ... : ... .. . ... ... ... : ... .. . ... : ... .. . ... : ... .. . ... ...
ROW 14 : ... .. . ... ... ... : ... .. . ... ... ... : ... .. . ... : ... .. . ... : ... .. . ... ...
ROW 15 : ... .. . ... ... ... : ... .. . ... ... ... : ... .. . ... : ... .. . ... : ... .. . ... ...
ROW 16 : ... .. . ... ... ... : ... .. . ... ... ... : ... .. . ... : ... .. . ... : ... .. . ... ...
ROW 17 : ... .. . ... ... ... : ... .. . ... ... ... : ... .. . ... : ... .. . ... : ... .. . ... ...
ROW 18 : ... .. . ... ... ... : ... .. . ... ... ... : G-2 00 . ... : ... .. C ... : ... .. . ... ...
ROW 19 : ... .. . ... ... ... : ... .. . ... ... ... : ... .. . ... : ... .. 8 ... : ... .. . ... ...
ROW 1A : ... .. . ... ... ... : ... .. . ... ... ... : ... .. . ... : ... .. 4 ... : ... .. . ... ...
ROW 1B : ... .. . ... ... ... : ... .. . ... ... ... : ... .. . ... : ... .. 0 ... : ... .. . ... ...
ROW 1C : ... .. . ... ... ... : ... .. . ... ... ... : ... .. . ... : ... .. . ... : ... .. . ... ...
ROW 1D : ... .. . ... ... ... : ... .. . ... ... ... : ... .. . ... : ... .. . ... : ... .. . ... ...
ROW 1E : ... .. . ... ... ... : ... .. . ... ... ... : ... .. . ... : ... .. . ... : ... .. . ... ...
ROW 1F : ... .. . ... ... ... : ... .. . ... ... ... : --- .. . ... : ... .. . ... : ... .. . ... ...
ROW 20 : ... .. . ... ... ... : ... .. . ... ... ... : G-3 00 . ... : ... .. . ... : ... .. . ... ...
ROW 21 : ... .. . ... ... ... : ... .. . ... ... ... : ... .. . ... : ... .. . ... : ... .. . ... ...
ROW 22 : ... .. . ... ... ... : ... .. . ... ... ... : ... .. . ... : ... .. . ... : ... .. . ... ...
ROW 23 : ... .. . ... ... ... : ... .. . ... ... ... : ... .. . ... : ... .. . ... : ... .. . ... ...
ROW 24 : ... .. . ... ... ... : ... .. . ... ... ... : ... .. . ... : ... .. . ... : ... .. . ... ...
ROW 25 : ... .. . ... ... ... : ... .. . ... ... ... : ... .. . ... : ... .. . ... : ... .. . ... ...
ROW 26 : ... .. . ... ... ... : ... .. . ... ... ... : ... .. . ... : ... .. . ... : ... .. . ... ...
ROW 27 : ... .. . ... ... ... : ... .. . ... ... ... : --- .. . ... : ... .. . ... : ... .. . ... ...
ROW 28 : ... .. . ... ... ... : ... .. . ... ... ... : D-3 00 . ... : ... .. . ... : ... .. . ... ...
ROW 29 : ... .. . ... ... ... : ... .. . ... ... ... : ... .. . ... : ... .. . ... : ... .. . ... ...
ROW 2A : ... .. . ... ... ... : ... .. . ... ... ... : ... .. . ... : ... .. . ... : ... .. . ... ...
ROW 2B : ... .. . ... ... ... : ... .. . ... ... ... : ... .. . ... : ... .. . ... : ... .. . ... ...
ROW 2C : ... .. . ... ... ... : ... .. . ... ... ... : ... .. . ... : ... .. . ... : ... .. . ... ...
ROW 2D : ... .. . ... ... ... : ... .. . ... ... ... : ... .. . ... : ... .. . ... : ... .. . ... ...
ROW 2E : ... .. . ... ... ... : ... .. . ... ... ... : ... .. . ... : ... .. . ... : ... .. . ... ...
ROW 2F : ... .. . ... ... ... : ... .. . ... ... ... : --- .. . ... : ... .. . ... : ... .. . ... ...
ROW 30 : D-3 00 4 P80 ... ... : ... .. . ... ... ... : G-2 00 . ... : ... .. C ... : ... .. . ... ...
ROW 31 : ... .. 5 ... ... ... : ... .. . ... ... ... : ... .. . ... : ... .. 8 ... : ... .. . ... ...
ROW 32 : ... .. 6 ... ... ... : ... .. . ... ... ... : ... .. . ... : ... .. 4 ... : ... .. . ... ...
ROW 33 : ... .. 7 ... ... ... : ... .. . ... ... ... : ... .. . ... : ... .. 0 ... : ... .. . ... ...
ROW 34 : ... .. 8 ... ... ... : ... .. . ... ... ... : ... .. . ... : ... .. . ... : ... .. . ... ...
ROW 35 : ... .. 7 ... ... ... : ... .. . ... ... ... : ... .. . ... : ... .. . ... : ... .. . ... ...
ROW 36 : ... .. 6 ... ... ... : ... .. . ... ... ... : ... .. . ... : ... .. . ... : ... .. . ... ...
ROW 37 : ... .. 5 ... ... ... : ... .. . ... ... ... : ... .. . ... : ... .. . ... : ... .. . ... ...
ROW 38 : ... .. 4 ... ... ... : ... .. . ... ... ... : ... .. . ... : ... .. . ... : ... .. . ... ...
ROW 39 : ... .. . ... ... ... : ... .. . ... ... ... : ... .. . ... : ... .. . ... : ... .. . ... ...
ROW 3A : ... .. . ... ... ... : ... .. . ... ... ... : ... .. . ... : ... .. . ... : ... .. . ... ...
ROW 3B : ... .. . ... ... ... : ... .. . ... ... ... : ... .. . ... : ... .. . ... : ... .. . ... ...
ROW 3C : ... .. . ... ... ... : ... .. . ... ... ... : ... .. . ... : ... .. . ... : ... .. . ... ...
ROW 3D : ... .. . ... ... ... : ... .. . ... ... ... : ... .. . ... : ... .. . ... : ... .. . ... ...
ROW 3E : ... .. . ... ... ... : ... .. . ... ... ... : ... .. . ... : ... .. . ... : ... .. . ... ...
ROW 3F : ... .. . ... ... ... : ... .. . ... ... ... : --- .. . ... : ... .. . ... : ... .. . ... ...
ROW 40 : ... .. . ... ... ... : ... .. . ... ... ... : ... .. . ... : ... .. . ... : ... .. . ... ...
ROW 41 : ... .. . ... ... ... : ... .. . ... ... ... : ... .. . ... : ... .. . ... : ... .. . ... ...
ROW 42 : ... .. . ... ... ... : ... .. . ... ... ... : ... .. . ... : ... .. . ... : ... .. . ... ...
ROW 43 : ... .. . ... ... ... : ... .. . ... ... ... : ... .. . ... : ... .. . ... : ... .. . ... ...
ROW 44 : ... .. . ... ... ... : ... .. . ... ... ... : ... .. . ... : ... .. . ... : ... .. . ... ...
ROW 45 : ... .. . ... ... ... : ... .. . ... ... ... : ... .. . ... : ... .. . ... : ... .. . ... ...
ROW 46 : ... .. . ... ... ... : ... .. . ... ... ... : ... .. . ... : ... .. . ... : ... .. . ... ...
ROW 47 : ... .. . ... ... ... : ... .. . ... ... ... : ... .. . ... : ... .. . ... : ... .. . ... ...
ROW 48 : ... .. . ... ... ... : ... .. . ... ... ... : G-2 00 . ... : ... .. C ... : ... .. . ... ...
ROW 49 : ... .. . ... ... ... : ... .. . ... ... ... : ... .. . ... : ... .. 8 ... : ... .. . ... ...
ROW 4A : ... .. . ... ... ... : ... .. . ... ... ... : ... .. . ... : ... .. 4 ... : ... .. . ... ...
ROW 4B : ... .. . ... ... ... : ... .. . ... ... ... : ... .. . ... : ... .. 0 ... : ... .. . ... ...
ROW 4C : ... .. . ... ... ... : ... .. . ... ... ... : ... .. . ... : ... .. . ... : ... .. . ... ...
ROW 4D : ... .. . ... ... ... : ... .. . ... ... ... : ... .. . ... : ... .. . ... : ... .. . ... ...
ROW 4E : ... .. . ... ... ... : ... .. . ... ... ... : ... .. . ... : ... .. . ... : ... .. . ... ...
ROW 4F : ... .. . ... ... ... : ... .. . ... ... ... : --- .. . ... : ... .. . ... : ... .. . ... ...
ROW 50 : ... .. . ... ... ... : ... .. . ... ... ... : D-3 00 . ... : ... .. C ... : ... .. . ... ...
ROW 51 : ... .. . ... ... ... : ... .. . ... ... ... : ... .. . ... : ... .. 8 ... : ... .. . ... ...
ROW 52 : ... .. . ... ... ... : ... .. . ... ... ... : ... .. . ... : ... .. 4 ... : ... .. . ... ...
ROW 53 : ... .. . ... ... ... : ... .. . ... ... ... : ... .. . ... : ... .. 0 ... : ... .. . ... ...
ROW 54 : ... .. . ... ... ... : ... .. . ... ... ... : ... .. . ... : ... .. . ... : ... .. . ... ...
ROW 55 : ... .. . ... ... ... : ... .. . ... ... ... : ... .. . ... : ... .. . ... : ... .. . ... ...
ROW 56 : ... .. . ... ... ... : ... .. . ... ... ... : ... .. . ... : ... .. . ... : ... .. . ... ...
ROW 57 : ... .. . ... ... ... : ... .. . ... ... ... : --- .. . ... : ... .. . ... : ... .. . ... ...
ROW 58 : ... .. . ... ... ... : ... .. . ... ... ... : G-2 00 . ... : ... .. C ... : ... .. . ... ...
ROW 59 : ... .. . ... ... ... : ... .. . ... ... ... : ... .. . ... : ... .. 8 ... : ... .. . ... ...
ROW 5A : ... .. . ... ... ... : ... .. . ... ... ... : ... .. . ... : ... .. 4 ... : ... .. . ... ...
ROW 5B : ... .. . ... ... ... : ... .. . ... ... ... : ... .. . ... : ... .. 0 ... : ... .. . ... ...
ROW 5C : ... .. . ... ... ... : ... .. . ... ... ... : ... .. . ... : ... .. . ... : ... .. . ... ...
ROW 5D : ... .. . ... ... ... : ... .. . ... ... ... : ... .. . ... : ... .. . ... : ... .. . ... ...
ROW 5E : ... .. . ... ... ... : ... .. . ... ... ... : ... .. . ... : ... .. . ... : ... .. . ... ...
ROW 5F : ... .. . ... ... ... : ... .. . ... ... ... : --- .. . ... : ... .. . ... : ... .. . ... ...
ROW 60 : C-3 00 4 P80 ... ... : A#3 00 D P81 ... ... : A#2 00 . ... : ... .. C ... : ... .. . ... ...
ROW 61 : ... .. 5 ... ... ... : ... .. 9 ... ... ... : ... .. . ... : ... .. 8 ... : ... .. . ... ...
ROW 62 : ... .. 6 ... ... ... : ... .. 7 ... ... ... : ... .. . ... : ... .. 4 ... : ... .. . ... ...
ROW 63 : ... .. 7 ... ... ... : ... .. 6 ... ... ... : ... .. . ... : ... .. 0 ... : ... .. . ... ...
ROW 64 : ... .. 8 ... ... ... : ... .. 5 ... ... ... : ... .. . ... : ... .. . ... : ... .. . ... ...
ROW 65 : ... .. 7 ... ... ... : ... .. . ... ... ... : ... .. . ... : ... .. . ... : ... .. . ... ...
ROW 66 : ... .. 6 ... ... ... : ... .. . ... ... ... : ... .. . ... : ... .. . ... : ... .. . ... ...
ROW 67 : ... .. 5 ... ... ... : ... .. 4 ... ... ... : ... .. . ... : ... .. . ... : ... .. . ... ...
ROW 68 : ... .. 4 ... ... ... : ... .. . ... ... ... : ... .. . ... : ... .. . ... : ... .. . ... ...
ROW 69 : ... .. . ... ... ... : ... .. . ... ... ... : ... .. . ... : ... .. . ... : ... .. . ... ...
ROW 6A : ... .. . ... ... ... : ... .. . ... ... ... : ... .. . ... : ... .. . ... : ... .. . ... ...
ROW 6B : ... .. . ... ... ... : ... .. . ... ... ... : ... .. . ... : ... .. . ... : ... .. . ... ...
ROW 6C : ... .. . ... ... ... : ... .. . ... ... ... : ... .. . ... : ... .. . ... : ... .. . ... ...
ROW 6D : ... .. . ... ... ... : ... .. . ... ... ... : ... .. . ... : ... .. . ... : ... .. . ... ...
ROW 6E : ... .. . ... ... ... : ... .. . ... ... ... : ... .. . ... : ... .. . ... : ... .. . ... ...
ROW 6F : ... .. . ... ... ... : ... .. . ... ... ... : --- .. . ... : ... .. . ... : ... .. . ... ...
ROW 70 : ... .. . ... ... ... : ... .. . ... ... ... : ... .. . ... : ... .. . ... : ... .. . ... ...
ROW 71 : ... .. . ... ... ... : ... .. . ... ... ... : ... .. . ... : ... .. . ... : ... .. . ... ...
ROW 72 : ... .. . ... ... ... : ... .. . ... ... ... : ... .. . ... : ... .. . ... : ... .. . ... ...
ROW 73 : ... .. . ... ... ... : ... .. . ... ... ... : ... .. . ... : ... .. . ... : ... .. . ... ...
ROW 74 : ... .. . ... ... ... : ... .. . ... ... ... : ... .. . ... : ... .. . ... : ... .. . ... ...
ROW 75 : ... .. . ... ... ... : ... .. . ... ... ... : ... .. . ... : ... .. . ... : ... .. . ... ...
ROW 76 : ... .. . ... ... ... : ... .. . ... ... ... : ... .. . ... : ... .. . ... : ... .. . ... ...
ROW 77 : ... .. . ... ... ... : ... .. . ... ... ... : ... .. . ... : ... .. . ... : ... .. . ... ...
ROW 78 : ... .. . ... ... ... : ... .. . ... ... ... : A#2 00 . ... : ... .. C ... : ... .. . ... ...
ROW 79 : ... .. . ... ... ... : ... .. . ... ... ... : ... .. . ... : ... .. 8 ... : ... .. . ... ...
ROW 7A : ... .. . ... ... ... : ... .. . ... ... ... : ... .. . ... : ... .. 4 ... : ... .. . ... ...
ROW 7B : ... .. . ... ... ... : ... .. . ... ... ... : ... .. . ... : ... .. 0 ... : ... .. . ... ...
ROW 7C : ... .. . ... ... ... : ... .. . ... ... ... : ... .. . ... : ... .. . ... : ... .. . ... ...
ROW 7D : ... .. . ... ... ... : ... .. . ... ... ... : ... .. . ... : ... .. . ... : ... .. . ... ...
ROW 7E : ... .. . ... ... ... : ... .. . ... ... ... : ... .. . ... : ... .. . ... : ... .. . ... ...
ROW 7F : ... .. . ... ... ... : ... .. . ... ... ... : --- .. . ... : ... .. . ... : ... .. . ... ...

PATTERN 04
ROW 00 : ... .. . ... ... ... : ... .. . ... ... ... : F-3 00 . ... : ... .. . ... : ... .. . ... ...
ROW 01 : ... .. . ... ... ... : ... .. . ... ... ... : ... .. . ... : ... .. . ... : ... .. . ... ...
ROW 02 : ... .. . ... ... ... : ... .. . ... ... ... : ... .. . ... : ... .. . ... : ... .. . ... ...
ROW 03 : ... .. . ... ... ... : ... .. . ... ... ... : ... .. . ... : ... .. . ... : ... .. . ... ...
ROW 04 : ... .. . ... ... ... : ... .. . ... ... ... : ... .. . ... : ... .. . ... : ... .. . ... ...
ROW 05 : ... .. . ... ... ... : ... .. . ... ... ... : ... .. . ... : ... .. . ... : ... .. . ... ...
ROW 06 : ... .. . ... ... ... : ... .. . ... ... ... : ... .. . ... : ... .. . ... : ... .. . ... ...
ROW 07 : ... .. . ... ... ... : ... .. . ... ... ... : --- .. . ... : ... .. . ... : ... .. . ... ...
ROW 08 : ... .. . ... ... ... : ... .. . ... ... ... : A#2 00 . ... : ... .. . ... : ... .. . ... ...
ROW 09 : ... .. . ... ... ... : ... .. . ... ... ... : ... .. . ... : ... .. . ... : ... .. . ... ...
ROW 0A : ... .. . ... ... ... : ... .. . ... ... ... : ... .. . ... : ... .. . ... : ... .. . ... ...
ROW 0B : ... .. . ... ... ... : ... .. . ... ... ... : ... .. . ... : ... .. . ... : ... .. . ... ...
ROW 0C : ... .. . ... ... ... : ... .. . ... ... ... : ... .. . ... : ... .. . ... : ... .. . ... ...
ROW 0D : ... .. . ... ... ... : ... .. . ... ... ... : ... .. . ... : ... .. . ... : ... .. . ... ...
ROW 0E : ... .. . ... ... ... : ... .. . ... ... ... : ... .. . ... : ... .. . ... : ... .. . ... ...
ROW 0F : ... .. . ... ... ... : ... .. . ... ... ... : --- .. . ... : ... .. . ... : ... .. . ... ...
ROW 10 : F-3 00 4 P80 ... ... : ... .. . ... ... ... : A#2 00 . ... : ... .. C ... : ... .. . ... ...
ROW 11 : ... .. 5 ... ... ... : ... .. . ... ... ... : ... .. . ... : ... .. 8 ... : ... .. . ... ...
ROW 12 : ... .. 6 ... ... ... : ... .. . ... ... ... : ... .. . ... : ... .. 4 ... : ... .. . ... ...
ROW 13 : ... .. 7 ... ... ... : ... .. . ... ... ... : ... .. . ... : ... .. 0 ... : ... .. . ... ...
ROW 14 : ... .. 8 ... ... ... : ... .. . ... ... ... : ... .. . ... : ... .. . ... : ... .. . ... ...
ROW 15 : ... .. 7 ... ... ... : ... .. . ... ... ... : ... .. . ... : ... .. . ... : ... .. . ... ...
ROW 16 : ... .. 6 ... ... ... : ... .. . ... ... ... : ... .. . ... : ... .. . ... : ... .. . ... ...
ROW 17 : ... .. 5 ... ... ... : ... .. . ... ... ... : ... .. . ... : ... .. . ... : ... .. . ... ...
ROW 18 : ... .. 4 ... ... ... : ... .. . ... ... ... : ... .. . ... : ... .. . ... : ... .. . ... ...
ROW 19 : ... .. . ... ... ... : ... .. . ... ... ... : ... .. . ... : ... .. . ... : ... .. . ... ...
ROW 1A : ... .. . ... ... ... : ... .. . ... ... ... : ... .. . ... : ... .. . ... : ... .. . ... ...
ROW 1B : ... .. . ... ... ... : ... .. . ... ... ... : ... .. . ... : ... .. . ... : ... .. . ... ...
ROW 1C : ... .. . ... ... ... : ... .. . ... ... ... : ... .. . ... : ... .. . ... : ... .. . ... ...
ROW 1D : ... .. . ... ... ... : ... .. . ... ... ... : ... .. . ... : ... .. . ... : ... .. . ... ...
ROW 1E : ... .. . ... ... ... : ... .. . ... ... ... : ... .. . ... : ... .. . ... : ... .. . ... ...
ROW 1F : ... .. . ... ... ... : ... .. . ... ... ... : --- .. . ... : ... .. . ... : ... .. . ... ...
ROW 20 : ... .. . ... ... ... : ... .. . ... ... ... : ... .. . ... : ... .. . ... : ... .. . ... ...
ROW 21 : ... .. . ... ... ... : ... .. . ... ... ... : ... .. . ... : ... .. . ... : ... .. . ... ...
ROW 22 : ... .. . ... ... ... : ... .. . ... ... ... : ... .. . ... : ... .. . ... : ... .. . ... ...
ROW 23 : ... .. . ... ... ... : ... .. . ... ... ... : ... .. . ... : ... .. . ... : ... .. . ... ...
ROW 24 : ... .. . ... ... ... : ... .. . ... ... ... : ... .. . ... : ... .. . ... : ... .. . ... ...
ROW 25 : ... .. . ... ... ... : ... .. . ... ... ... : ... .. . ... : ... .. . ... : ... .. . ... ...
ROW 26 : ... .. . ... ... ... : ... .. . ... ... ... : ... .. . ... : ... .. . ... : ... .. . ... ...
ROW 27 : ... .. . ... ... ... : ... .. . ... ... ... : ... .. . ... : ... .. . ... : ... .. . ... ...
ROW 28 : ... .. . ... ... ... : A-3 00 D P80 ... ... : A#2 00 . ... : ... .. C ... : ... .. . ... ...
ROW 29 : ... .. . ... ... ... : ... .. 9 ... ... ... : ... .. . ... : ... .. 8 ... : ... .. . ... ...
ROW 2A : ... .. . ... ... ... : ... .. 7 ... ... ... : ... .. . ... : ... .. 4 ... : ... .. . ... ...
ROW 2B : ... .. . ... ... ... : ... .. 6 ... ... ... : ... .. . ... : ... .. 0 ... : ... .. . ... ...
ROW 2C : ... .. . ... ... ... : ... .. 5 ... ... ... : ... .. . ... : ... .. . ... : ... .. . ... ...
ROW 2D : ... .. . ... ... ... : ... .. . ... ... ... : ... .. . ... : ... .. . ... : ... .. . ... ...
ROW 2E : ... .. . ... ... ... : A#3 00 D P81 ... ... : ... .. . ... : ... .. . ... : ... .. . ... ...
ROW 2F : ... .. . ... ... ... : ... .. 9 ... ... ... : --- .. . ... : ... .. . ... : ... .. . ... ...
ROW 30 : ... .. . ... ... ... : ... .. 7 ... ... ... : F-3 00 . ... : ... .. C ... : ... .. . ... ...
ROW 31 : ... .. . ... ... ... : ... .. 6 ... ... ... : ... .. . ... : ... .. 8 ... : ... .. . ... ...
ROW 32 : ... .. . ... ... ... : ... .. 5 ... ... ... : ... .. . ... : ... .. 4 ... : ... .. . ... ...
ROW 33 : ... .. . ... ... ... : ... .. . ... ... ... : ... .. . ... : ... .. 0 ... : ... .. . ... ...
ROW 34 : ... .. . ... ... ... : A-3 00 D P80 ... ... : ... .. . ... : ... .. . ... : ... .. . ... ...
ROW 35 : ... .. . ... ... ... : ... .. 9 ... ... ... : ... .. . ... : ... .. . ... : ... .. . ... ...
ROW 36 : ... .. . ... ... ... : ... .. 7 ... ... ... : ... .. . ... : ... .. . ... : ... .. . ... ...
ROW 37 : ... .. . ... ... ... : ... .. 6 ... ... ... : --- .. . ... : ... .. . ... : ... .. . ... ...
ROW 38 : ... .. . ... ... ... : ... .. 5 ... ... ... : A#2 00 . ... : ... .. C ... : ... .. . ... ...
ROW 39 : ... .. . ... ... ... : ... .. . ... ... ... : ... .. . ... : ... .. 8 ... : ... .. . ... ...
ROW 3A : ... .. . ... ... ... : F-3 00 D P80 ... ... : ... .. . ... : ... .. 4 ... : ... .. . ... ...
ROW 3B : ... .. . ... ... ... : ... .. 9 ... ... ... : ... .. . ... : ... .. 0 ... : ... .. . ... ...
ROW 3C : ... .. . ... ... ... : ... .. 7 ... ... ... : ... .. . ... : ... .. . ... : ... .. . ... ...
ROW 3D : ... .. . ... ... ... : ... .. 6 ... ... ... : ... .. . ... : ... .. . ... : ... .. . ... ...
ROW 3E : ... .. . ... ... ... : ... .. 5 ... ... ... : ... .. . ... : ... .. . ... : ... .. . ... ...
ROW 3F : ... .. . ... ... ... : ... .. . ... ... ... : --- .. . ... : ... .. . ... : ... .. . ... ...
ROW 40 : B-2 00 4 P80 ... ... : G-3 00 D P80 ... ... : G-2 00 . ... : ... .. C ... : ... .. . ... ...
ROW 41 : ... .. 5 ... ... ... : ... .. 9 ... ... ... : ... .. . ... : ... .. 8 ... : ... .. . ... ...
ROW 42 : ... .. 6 ... ... ... : ... .. 7 ... ... ... : ... .. . ... : ... .. 4 ... : ... .. . ... ...
ROW 43 : ... .. 7 ... ... ... : ... .. 6 ... ... ... : ... .. . ... : ... .. 0 ... : ... .. . ... ...
ROW 44 : ... .. 8 ... ... ... : ... .. 5 ... ... ... : ... .. . ... : ... .. . ... : ... .. . ... ...
ROW 45 : ... .. 7 ... ... ... : ... .. . ... ... ... : ... .. . ... : ... .. . ... : ... .. . ... ...
ROW 46 : ... .. 6 ... ... ... : ... .. . ... ... ... : ... .. . ... : ... .. . ... : ... .. . ... ...
ROW 47 : ... .. 5 ... ... ... : ... .. 4 ... ... ... : ... .. . ... : ... .. . ... : ... .. . ... ...
ROW 48 : ... .. 4 ... ... ... : ... .. . ... ... ... : ... .. . ... : ... .. . ... : ... .. . ... ...
ROW 49 : ... .. . ... ... ... : ... .. . ... ... ... : ... .. . ... : ... .. . ... : ... .. . ... ...
ROW 4A : ... .. . ... ... ... : ... .. . ... ... ... : ... .. . ... : ... .. . ... : ... .. . ... ...
ROW 4B : ... .. . ... ... ... : ... .. . ... ... ... : ... .. . ... : ... .. . ... : ... .. . ... ...
ROW 4C : ... .. . ... ... ... : ... .. . ... ... ... : ... .. . ... : ... .. . ... : ... .. . ... ...
ROW 4D : ... .. . ... ... ... : ... .. . ... ... ... : ... .. . ... : ... .. . ... : ... .. . ... ...
ROW 4E : ... .. . ... ... ... : ... .. . ... ... ... : ... .. . ... : ... .. . ... : ... .. . ... ...
ROW 4F : ... .. . ... ... ... : ... .. . ... ... ... : --- .. . ... : ... .. . ... : ... .. . ... ...
ROW 50 : ... .. . ... ... ... : ... .. . ... ... ... : ... .. . ... : ... .. . ... : ... .. . ... ...
ROW 51 : ... .. . ... ... ... : ... .. . ... ... ... : ... .. . ... : ... .. . ... : ... .. . ... ...
ROW 52 : ... .. . ... ... ... : ... .. . ... ... ... : ... .. . ... : ... .. . ... : ... .. . ... ...
ROW 53 : ... .. . ... ... ... : ... .. . ... ... ... : ... .. . ... : ... .. . ... : ... .. . ... ...
ROW 54 : ... .. . ... ... ... : ... .. . ... ... ... : ... .. . ... : ... .. . ... : ... .. . ... ...
ROW 55 : ... .. . ... ... ... : ... .. . ... ... ... : ... .. . ... : ... .. . ... : ... .. . ... ...
ROW 56 : ... .. . ... ... ... : ... .. . ... ... ... : ... .. . ... : ... .. . ... : ... .. . ... ...
ROW 57 : ... .. . ... ... ... : ... .. . ... ... ... : ... .. . ... : ... .. . ... : ... .. . ... ...
ROW 58 : ... .. . ... ... ... : ... .. . ... ... ... : G-2 00 . ... : ... .. C ... : ... .. . ... ...
ROW 59 : ... .. . ... ... ... : ... .. . ... ... ... : ... .. . ... : ... .. 8 ... : ... .. . ... ...
ROW 5A : ... .. . ... ... ... : ... .. . ... ... ... : ... .. . ... : ... .. 4 ... : ... .. . ... ...
ROW 5B : ... .. . ... ... ... : ... .. . ... ... ... : ... .. . ... : ... .. 0 ... : ... .. . ... ...
ROW 5C : ... .. . ... ... ... : ... .. . ... ... ... : ... .. . ... : ... .. . ... : ... .. . ... ...
ROW 5D : ... .. . ... ... ... : ... .. . ... ... ... : ... .. . ... : ... .. . ... : ... .. . ... ...
ROW 5E : ... .. . ... ... ... : ... .. . ... ... ... : ... .. . ... : ... .. . ... : ... .. . ... ...
ROW 5F : ... .. . ... ... ... : ... .. . ... ... ... : --- .. . ... : ... .. . ... : ... .. . ... ...
ROW 60 : ... .. . ... ... ... : ... .. . ... ... ... : G-3 00 . ... : ... .. . ... : ... .. . ... ...
ROW 61 : ... .. . ... ... ... : ... .. . ... ... ... : ... .. . ... : ... .. . ... : ... .. . ... ...
ROW 62 : ... .. . ... ... ... : ... .. . ... ... ... : ... .. . ... : ... .. . ... : ... .. . ... ...
ROW 63 : ... .. . ... ... ... : ... .. . ... ... ... : ... .. . ... : ... .. . ... : ... .. . ... ...
ROW 64 : ... .. . ... ... ... : ... .. . ... ... ... : ... .. . ... : ... .. . ... : ... .. . ... ...
ROW 65 : ... .. . ... ... ... : ... .. . ... ... ... : ... .. . ... : ... .. . ... : ... .. . ... ...
ROW 66 : ... .. . ... ... ... : ... .. . ... ... ... : ... .. . ... : ... .. . ... : ... .. . ... ...
ROW 67 : ... .. . ... ... ... : ... .. . ... ... ... : --- .. . ... : ... .. . ... : ... .. . ... ...
ROW 68 : ... .. . ... ... ... : ... .. . ... ... ... : D-3 00 . ... : ... .. . ... : ... .. . ... ...
ROW 69 : ... .. . ... ... ... : ... .. . ... ... ... : ... .. . ... : ... .. . ... : ... .. . ... ...
ROW 6A : ... .. . ... ... ... : ... .. . ... ... ... : ... .. . ... : ... .. . ... : ... .. . ... ...
ROW 6B : ... .. . ... ... ... : ... .. . ... ... ... : ... .. . ... : ... .. . ... : ... .. . ... ...
ROW 6C : ... .. . ... ... ... : ... .. . ... ... ... : ... .. . ... : ... .. . ... : ... .. . ... ...
ROW 6D : ... .. . ... ... ... : ... .. . ... ... ... : ... .. . ... : ... .. . ... : ... .. . ... ...
ROW 6E : ... .. . ... ... ... : ... .. . ... ... ... : ... .. . ... : ... .. . ... : ... .. . ... ...
ROW 6F : ... .. . ... ... ... : ... .. . ... ... ... : --- .. . ... : ... .. . ... : ... .. . ... ...
ROW 70 : D-3 00 4 P80 ... ... : ... .. . ... ... ... : G-2 00 . ... : ... .. C ... : ... .. . ... ...
ROW 71 : ... .. 5 ... ... ... : ... .. . ... ... ... : ... .. . ... : ... .. 8 ... : ... .. . ... ...
ROW 72 : ... .. 6 ... ... ... : ... .. . ... ... ... : ... .. . ... : ... .. 4 ... : ... .. . ... ...
ROW 73 : ... .. 7 ... ... ... : ... .. . ... ... ... : ... .. . ... : ... .. 0 ... : ... .. . ... ...
ROW 74 : ... .. 8 ... ... ... : ... .. . ... ... ... : ... .. . ... : ... .. . ... : ... .. . ... ...
ROW 75 : ... .. 7 ... ... ... : ... .. . ... ... ... : ... .. . ... : ... .. . ... : ... .. . ... ...
ROW 76 : ... .. 6 ... ... ... : ... .. . ... ... ... : ... .. . ... : ... .. . ... : ... .. . ... ...
ROW 77 : ... .. 5 ... ... ... : ... .. . ... ... ... : ... .. . ... : ... .. . ... : ... .. . ... ...
ROW 78 : ... .. 4 ... ... ... : ... .. . ... ... ... : ... .. . ... : ... .. . ... : ... .. . ... ...
ROW 79 : ... .. . ... ... ... : ... .. . ... ... ... : ... .. . ... : ... .. . ... : ... .. . ... ...
ROW 7A : ... .. . ... ... ... : ... .. . ... ... ... : ... .. . ... : ... .. . ... : ... .. . ... ...
ROW 7B : ... .. . ... ... ... : ... .. . ... ... ... : ... .. . ... : ... .. . ... : ... .. . ... ...
ROW 7C : ... .. . ... ... ... : ... .. . ... ... ... : ... .. . ... : ... .. . ... : ... .. . ... ...
ROW 7D : ... .. . ... ... ... : ... .. . ... ... ... : ... .. . ... : ... .. . ... : ... .. . ... ...
ROW 7E : ... .. . ... ... ... : ... .. . ... ... ... : ... .. . ... : ... .. . ... : ... .. . ... ...
ROW 7F : ... .. . ... ... ... : ... .. . ... ... ... : --- .. . ... : ... .. . ... : ... .. . ... ...

PATTERN 05
ROW 00 : ... .. . ... ... ... : ... .. . ... ... ... : ... .. . ... : ... .. . ... : ... .. . ... ...
ROW 01 : ... .. . ... ... ... : ... .. . ... ... ... : ... .. . ... : ... .. . ... : ... .. . ... ...
ROW 02 : ... .. . ... ... ... : ... .. . ... ... ... : ... .. . ... : ... .. . ... : ... .. . ... ...
ROW 03 : ... .. . ... ... ... : ... .. . ... ... ... : ... .. . ... : ... .. . ... : ... .. . ... ...
ROW 04 : ... .. . ... ... ... : ... .. . ... ... ... : ... .. . ... : ... .. . ... : ... .. . ... ...
ROW 05 : ... .. . ... ... ... : ... .. . ... ... ... : ... .. . ... : ... .. . ... : ... .. . ... ...
ROW 06 : ... .. . ... ... ... : ... .. . ... ... ... : ... .. . ... : ... .. . ... : ... .. . ... ...
ROW 07 : ... .. . ... ... ... : ... .. . ... ... ... : ... .. . ... : ... .. . ... : ... .. . ... ...
ROW 08 : ... .. . ... ... ... : ... .. . ... ... ... : G-2 00 . ... : ... .. C ... : ... .. . ... ...
ROW 09 : ... .. . ... ... ... : ... .. . ... ... ... : ... .. . ... : ... .. 8 ... : ... .. . ... ...
ROW 0A : ... .. . ... ... ... : ... .. . ... ... ... : ... .. . ... : ... .. 4 ... : ... .. . ... ...
ROW 0B : ... .. . ... ... ... : ... .. . ... ... ... : ... .. . ... : ... .. 0 ... : ... .. . ... ...
ROW 0C : ... .. . ... ... ... : ... .. . ... ... ... : ... .. . ... : ... .. . ... : ... .. . ... ...
ROW 0D : ... .. . ... ... ... : ... .. . ... ... ... : ... .. . ... : ... .. . ... : ... .. . ... ...
ROW 0E : ... .. . ... ... ... : ... .. . ... ... ... : ... .. . ... : ... .. . ... : ... .. . ... ...
ROW 0F : ... .. . ... ... ... : ... .. . ... ... ... : --- .. . ... : ... .. . ... : ... .. . ... ...
ROW 10 : ... .. . ... ... ... : ... .. . ... ... ... : D-3 00 . ... : ... .. C ... : ... .. . ... ...
ROW 11 : ... .. . ... ... ... : ... .. . ... ... ... : ... .. . ... : ... .. 8 ... : ... .. . ... ...
ROW 12 : ... .. . ... ... ... : ... .. . ... ... ... : ... .. . ... : ... .. 4 ... : ... .. . ... ...
ROW 13 : ... .. . ... ... ... : ... .. . ... ... ... : ... .. . ... : ... .. 0 ... : ... .. . ... ...
ROW 14 : ... .. . ... ... ... : ... .. . ... ... ... : ... .. . ... : ... .. . ... : ... .. . ... ...
ROW 15 : ... .. . ... ... ... : ... .. . ... ... ... : ... .. . ... : ... .. . ... : ... .. . ... ...
ROW 16 : ... .. . ... ... ... : ... .. . ... ... ... : ... .. . ... : ... .. . ... : ... .. . ... ...
ROW 17 : ... .. . ... ... ... : ... .. . ... ... ... : --- .. . ... : ... .. . ... : ... .. . ... ...
ROW 18 : ... .. . ... ... ... : ... .. . ... ... ... : G-2 00 . ... : ... .. C ... : ... .. . ... ...
ROW 19 : ... .. . ... ... ... : ... .. . ... ... ... : ... .. . ... : ... .. 8 ... : ... .. . ... ...
ROW 1A : ... .. . ... ... ... : ... .. . ... ... ... : ... .. . ... : ... .. 4 ... : ... .. . ... ...
ROW 1B : ... .. . ... ... ... : ... .. . ... ... ... : ... .. . ... : ... .. 0 ... : ... .. . ... ...
ROW 1C : ... .. . ... ... ... : ... .. . ... ... ... : ... .. . ... : ... .. . ... : ... .. . ... ...
ROW 1D : ... .. . ... ... ... : ... .. . ... ... ... : ... .. . ... : ... .. . ... : ... .. . ... ...
ROW 1E : ... .. . ... ... ... : ... .. . ... ... ... : ... .. . ... : ... .. . ... : ... .. . ... ...
ROW 1F : ... .. . ... ... ... : ... .. . ... ... ... : --- .. . ... : ... .. . ... : ... .. . ... ...
ROW 20 : C-3 00 4 P80 ... ... : A#3 00 D P81 ... ... : A#2 00 . ... : ... .. C ... : ... .. . ... ...
ROW 21 : ... .. 5 ... ... ... : ... .. 9 ... ... ... : ... .. . ... : ... .. 8 ... : ... .. . ... ...
ROW 22 : ... .. 6 ... ... ... : ... .. 7 ... ... ... : ... .. . ... : ... .. 4 ... : ... .. . ... ...
ROW 23 : ... .. 7 ... ... ... : ... .. 6 ... ... ... : ... .. . ... : ... .. 0 ... : ... .. . ... ...
ROW 24 : ... .. 8 ... ... ... : ... .. 5 ... ... ... : ... .. . ... : ... .. . ... : ... .. . ... ...
ROW 25 : ... .. 7 ... ... ... : ... .. . ... ... ... : ... .. . ... : ... .. . ... : ... .. . ... ...
ROW 26 : ... .. 6 ... ... ... : ... .. . ... ... ... : ... .. . ... : ... .. . ... : ... .. . ... ...
ROW 27 : ... .. 5 ... ... ... : ... .. 4 ... ... ... : ... .. . ... : ... .. . ... : ... .. . ... ...
ROW 28 : ... .. 4 ... ... ... : ... .. . ... ... ... : ... .. . ... : ... .. . ... : ... .. . ... ...
ROW 29 : ... .. . ... ... ... : ... .. . ... ... ... : ... .. . ... : ... .. . ... : ... .. . ... ...
ROW 2A : ... .. . ... ... ... : ... .. . ... ... ... : ... .. . ... : ... .. . ... : ... .. . ... ...
ROW 2B : ... .. . ... ... ... : ... .. . ... ... ... : ... .. . ... : ... .. . ... : ... .. . ... ...
ROW 2C : ... .. . ... ... ... : ... .. . ... ... ... : ... .. . ... : ... .. . ... : ... .. . ... ...
ROW 2D : ... .. . ... ... ... : ... .. . ... ... ... : ... .. . ... : ... .. . ... : ... .. . ... ...
ROW 2E : ... .. . ... ... ... : ... .. . ... ... ... : ... .. . ... : ... .. . ... : ... .. . ... ...
ROW 2F : ... .. . ... ... ... : ... .. . ... ... ... : --- .. . ... : ... .. . ... : ... .. . ... ...
ROW 30 : ... .. . ... ... ... : ... .. . ... ... ... : ... .. . ... : ... .. . ... : ... .. . ... ...
ROW 31 : ... .. . ... ... ... : ... .. . ... ... ... : ... .. . ... : ... .. . ... : ... .. . ... ...
ROW 32 : ... .. . ... ... ... : ... .. . ... ... ... : ... .. . ... : ... .. . ... : ... .. . ... ...
ROW 33 : ... .. . ... ... ... : ... .. . ... ... ... : ... .. . ... : ... .. . ... : ... .. . ... ...
ROW 34 : ... .. . ... ... ... : ... .. . ... ... ... : ... .. . ... : ... .. . ... : ... .. . ... ...
ROW 35 : ... .. . ... ... ... : ... .. . ... ... ... : ... .. . ... : ... .. . ... : ... .. . ... ...
ROW 36 : ... .. . ... ... ... : ... .. . ... ... ... : ... .. . ... : ... .. . ... : ... .. . ... ...
ROW 37 : ... .. . ... ... ... : ... .. . ... ... ... : ... .. . ... : ... .. . ... : ... .. . ... ...
ROW 38 : ... .. . ... ... ... : ... .. . ... ... ... : A#2 00 . ... : ... .. C ... : ... .. . ... ...
ROW 39 : ... .. . ... ... ... : ... .. . ... ... ... : ... .. . ... : ... .. 8 ... : ... .. . ... ...
ROW 3A : ... .. . ... ... ... : ... .. . ... ... ... : ... .. . ... : ... .. 4 ... : ... .. . ... ...
ROW 3B : ... .. . ... ... ... : ... .. . ... ... ... : ... .. . ... : ... .. 0 ... : ... .. . ... ...
ROW 3C : ... .. . ... ... ... : ... .. . ... ... ... : ... .. . ... : ... .. . ... : ... .. . ... ...
ROW 3D : ... .. . ... ... ... : ... .. . ... ... ... : ... .. . ... : ... .. . ... : ... .. . ... ...
ROW 3E : ... .. . ... ... ... : ... .. . ... ... ... : ... .. . ... : ... .. . ... : ... .. . ... ...
ROW 3F : ... .. . ... ... ... : ... .. . ... ... ... : --- .. . ... : ... .. . ... : ... .. . ... ...
ROW 40 : ... .. . ... ... ... : ... .. . ... ... ... : F-3 00 . ... : ... .. . ... : ... .. . ... ...
ROW 41 : ... .. . ... ... ... : ... .. . ... ... ... : ... .. . ... : ... .. . ... : ... .. . ... ...
ROW 42 : ... .. . ... ... ... : ... .. . ... ... ... : ... .. . ... : ... .. . ... : ... .. . ... ...
ROW 43 : ... .. . ... ... ... : ... .. . ... ... ... : ... .. . ... : ... .. . ... : ... .. . ... ...
ROW 44 : ... .. . ... ... ... : ... .. . ... ... ... : ... .. . ... : ... .. . ... : ... .. . ... ...
ROW 45 : ... .. . ... ... ... : ... .. . ... ... ... : ... .. . ... : ... .. . ... : ... .. . ... ...
ROW 46 : ... .. . ... ... ... : ... .. . ... ... ... : ... .. . ... : ... .. . ... : ... .. . ... ...
ROW 47 : ... .. . ... ... ... : ... .. . ... ... ... : --- .. . ... : ... .. . ... : ... .. . ... ...
ROW 48 : ... .. . ... ... ... : ... .. . ... ... ... : A#2 00 . ... : ... .. . ... : ... .. . ... ...
ROW 49 : ... .. . ... ... ... : ... .. . ... ... ... : ... .. . ... : ... .. . ... : ... .. . ... ...
ROW 4A : ... .. . ... ... ... : ... .. . ... ... ... : ... .. . ... : ... .. . ... : ... .. . ... ...
ROW 4B : ... .. . ... ... ... : ... .. . ... ... ... : ... .. . ... : ... .. . ... : ... .. . ... ...
ROW 4C : ... .. . ... ... ... : ... .. . ... ... ... : ... .. . ... : ... .. . ... : ... .. . ... ...
ROW 4D : ... .. . ... ... ... : ... .. . ... ... ... : ... .. . ... : ... .. . ... : ... .. . ... ...
ROW 4E : ... .. . ... ... ... : ... .. . ... ... ... : ... .. . ... : ... .. . ... : ... .. . ... ...
ROW 4F : ... .. . ... ... ... : ... .. . ... ... ... : --- .. . ... : ... .. . ... : ... .. . ... ...
ROW 50 : F-3 00 4 P80 ... ... : ... .. . ... ... ... : A#2 00 . ... : ... .. C ... : ... .. . ... ...
ROW 51 : ... .. 5 ... ... ... : ... .. . ... ... ... : ... .. . ... : ... .. 8 ... : ... .. . ... ...
ROW 52 : ... .. 6 ... ... ... : ... .. . ... ... ... : ... .. . ... : ... .. 4 ... : ... .. . ... ...
ROW 53 : ... .. 7 ... ... ... : ... .. . ... ... ... : ... .. . ... : ... .. 0 ... : ... .. . ... ...
ROW 54 : ... .. 8 ... ... ... : ... .. . ... ... ... : ... .. . ... : ... .. . ... : ... .. . ... ...
ROW 55 : ... .. 7 ... ... ... : ... .. . ... ... ... : ... .. . ... : ... .. . ... : ... .. . ... ...
ROW 56 : ... .. 6 ... ... ... : ... .. . ... ... ... : ... .. . ... : ... .. . ... : ... .. . ... ...
ROW 57 : ... .. 5 ... ... ... : ... .. . ... ... ... : ... .. . ... : ... .. . ... : ... .. . ... ...
ROW 58 : ... .. 4 ... ... ... : ... .. . ... ... ... : ... .. . ... : ... .. . ... : ... .. . ... ...
ROW 59 : ... .. . ... ... ... : ... .. . ... ... ... : ... .. . ... : ... .. . ... : ... .. . ... ...
ROW 5A : ... .. . ... ... ... : ... .. . ... ... ... : ... .. . ... : ... .. . ... : ... .. . ... ...
ROW 5B : ... .. . ... ... ... : ... .. . ... ... ... : ... .. . ... : ... .. . ... : ... .. . ... ...
ROW 5C : ... .. . ... ... ... : ... .. . ... ... ... : ... .. . ... : ... .. . ... : ... .. . ... ...
ROW 5D : ... .. . ... ... ... : ... .. . ... ... ... : ... .. . ... : ... .. . ... : ... .. . ... ...
ROW 5E : ... .. . ... ... ... : ... .. . ... ... ... : ... .. . ... : ... .. . ... : ... .. . ... ...
ROW 5F : ... .. . ... ... ... : ... .. . ... ... ... : --- .. . ... : ... .. . ... : ... .. . ... ...
ROW 60 : ... .. . ... ... ... : ... .. . ... ... ... : ... .. . ... : ... .. . ... : ... .. . ... ...
ROW 61 : ... .. . ... ... ... : ... .. . ... ... ... : ... .. . ... : ... .. . ... : ... .. . ... ...
ROW 62 : ... .. . ... ... ... : ... .. . ... ... ... : ... .. . ... : ... .. . ... : ... .. . ... ...
ROW 63 : ... .. . ... ... ... : ... .. . ... ... ... : ... .. . ... : ... .. . ... : ... .. . ... ...
ROW 64 : ... .. . ... ... ... : ... .. . ... ... ... : ... .. . ... : ... .. . ... : ... .. . ... ...
ROW 65 : ... .. . ... ... ... : ... .. . ... ... ... : ... .. . ... : ... .. . ... : ... .. . ... ...
ROW 66 : ... .. . ... ... ... : ... .. . ... ... ... : ... .. . ... : ... .. . ... : ... .. . ... ...
ROW 67 : ... .. . ... ... ... : ... .. . ... ... ... : ... .. . ... : ... .. . ... : ... .. . ... ...
ROW 68 : ... .. . ... ... ... : A-3 00 D P80 ... ... : A#2 00 . ... : ... .. C ... : ... .. . ... ...
ROW 69 : ... .. . ... ... ... : ... .. 9 ... ... ... : ... .. . ... : ... .. 8 ... : ... .. . ... ...
ROW 6A : ... .. . ... ... ... : ... .. 7 ... ... ... : ... .. . ... : ... .. 4 ... : ... .. . ... ...
ROW 6B : ... .. . ... ... ... : ... .. 6 ... ... ... : ... .. . ... : ... .. 0 ... : ... .. . ... ...
ROW 6C : ... .. . ... ... ... : ... .. 5 ... ... ... : ... .. . ... : ... .. . ... : ... .. . ... ...
ROW 6D : ... .. . ... ... ... : ... .. . ... ... ... : ... .. . ... : ... .. . ... : ... .. . ... ...
ROW 6E : ... .. . ... ... ... : A#3 00 D P81 ... ... : ... .. . ... : ... .. . ... : ... .. . ... ...
ROW 6F : ... .. . ... ... ... : ... .. 9 ... ... ... : --- .. . ... : ... .. . ... : ... .. . ... ...
ROW 70 : ... .. . ... ... ... : ... .. 7 ... ... ... : F-3 00 . ... : ... .. C ... : ... .. . ... ...
ROW 71 : ... .. . ... ... ... : ... .. 6 ... ... ... : ... .. . ... : ... .. 8 ... : ... .. . ... ...
ROW 72 : ... .. . ... ... ... : ... .. 5 ... ... ... : ... .. . ... : ... .. 4 ... : ... .. . ... ...
ROW 73 : ... .. . ... ... ... : ... .. . ... ... ... : ... .. . ... : ... .. 0 ... : ... .. . ... ...
ROW 74 : ... .. . ... ... ... : A-3 00 D P80 ... ... : ... .. . ... : ... .. . ... : ... .. . ... ...
ROW 75 : ... .. . ... ... ... : ... .. 9 ... ... ... : ... .. . ... : ... .. . ... : ... .. . ... ...
ROW 76 : ... .. . ... ... ... : ... .. 7 ... ... ... : ... .. . ... : ... .. . ... : ... .. . ... ...
ROW 77 : ... .. . ... ... ... : ... .. 6 ... ... ... : --- .. . ... : ... .. . ... : ... .. . ... ...
ROW 78 : ... .. . ... ... ... : ... .. 5 ... ... ... : A#2 00 . ... : ... .. C ... : ... .. . ... ...
ROW 79 : ... .. . ... ... ... : ... .. . ... ... ... : ... .. . ... : ... .. 8 ... : ... .. . ... ...
ROW 7A : ... .. . ... ... ... : F-3 00 D P80 ... ... : ... .. . ... : ... .. 4 ... : ... .. . ... ...
ROW 7B : ... .. . ... ... ... : ... .. 9 ... ... ... : ... .. . ... : ... .. 0 ... : ... .. . ... ...
ROW 7C : ... .. . ... ... ... : ... .. 7 ... ... ... : ... .. . ... : ... .. . ... : ... .. . ... ...
ROW 7D : ... .. . ... ... ... : ... .. 6 ... ... ... : ... .. . ... : ... .. . ... : ... .. . ... ...
ROW 7E : ... .. . ... ... ... : ... .. 5 ... ... ... : ... .. . ... : ... .. . ... : ... .. . ... ...
ROW 7F : ... .. . ... ... ... : ... .. . ... ... ... : --- .. . ... : ... .. . ... : ... .. . ... ...

PATTERN 06
ROW 00 : B-2 00 4 P80 ... ... : G-3 00 D P80 ... ... : G-2 00 . ... : ... .. C ... : ... .. . ... ...
ROW 01 : ... .. 5 ... ... ... : ... .. 9 ... ... ... : ... .. . ... : ... .. 8 ... : ... .. . ... ...
ROW 02 : ... .. 6 ... ... ... : ... .. 7 ... ... ... : ... .. . ... : ... .. 4 ... : ... .. . ... ...
ROW 03 : ... .. 7 ... ... ... : ... .. 6 ... ... ... : ... .. . ... : ... .. 0 ... : ... .. . ... ...
ROW 04 : ... .. 8 ... ... ... : ... .. 5 ... ... ... : ... .. . ... : ... .. . ... : ... .. . ... ...
ROW 05 : ... .. 7 ... ... ... : ... .. . ... ... ... : ... .. . ... : ... .. . ... : ... .. . ... ...
ROW 06 : ... .. 6 ... ... ... : ... .. . ... ... ... : ... .. . ... : ... .. . ... : ... .. . ... ...
ROW 07 : ... .. 5 ... ... ... : ... .. 4 ... ... ... : ... .. . ... : ... .. . ... : ... .. . ... ...
ROW 08 : ... .. 4 ... ... ... : ... .. . ... ... ... : ... .. . ... : ... .. . ... : ... .. . ... ...
ROW 09 : ... .. . ... ... ... : ... .. . ... ... ... : ... .. . ... : ... .. . ... : ... .. . ... ...
ROW 0A : ... .. . ... ... ... : ... .. . ... ... ... : ... .. . ... : ... .. . ... : ... .. . ... ...
ROW 0B : ... .. . ... ... ... : ... .. . ... ... ... : ... .. . ... : ... .. . ... : ... .. . ... ...
ROW 0C : ... .. . ... ... ... : ... .. . ... ... ... : ... .. . ... : ... .. . ... : ... .. . ... ...
ROW 0D : ... .. . ... ... ... : ... .. . ... ... ... : ... .. . ... : ... .. . ... : ... .. . ... ...
ROW 0E : ... .. . ... ... ... : ... .. . ... ... ... : ... .. . ... : ... .. . ... : ... .. . ... ...
ROW 0F : ... .. . ... ... ... : ... .. . ... ... ... : --- .. . ... : ... .. . ... : ... .. . ... ...
ROW 10 : ... .. . ... ... ... : ... .. . ... ... ... : ... .. . ... : ... .. . ... : ... .. . ... ...
ROW 11 : ... .. . ... ... ... : ... .. . ... ... ... : ... .. . ... : ... .. . ... : ... .. . ... ...
ROW 12 : ... .. . ... ... ... : ... .. . ... ... ... : ... .. . ... : ... .. . ... : ... .. . ... ...
ROW 13 : ... .. . ... ... ... : ... .. . ... ... ... : ... .. . ... : ... .. . ... : ... .. . ... ...
ROW 14 : ... .. . ... ... ... : ... .. . ... ... ... : ... .. . ... : ... .. . ... : ... .. . ... ...
ROW 15 : ... .. . ... ... ... : ... .. . ... ... ... : ... .. . ... : ... .. . ... : ... .. . ... ...
ROW 16 : ... .. . ... ... ... : ... .. . ... ... ... : ... .. . ... : ... .. . ... : ... .. . ... ...
ROW 17 : ... .. . ... ... ... : ... .. . ... ... ... : ... .. . ... : ... .. . ... : ... .. . ... ...
ROW 18 : ... .. . ... ... ... : ... .. . ... ... ... : G-2 00 . ... : ... .. C ... : ... .. . ... ...
ROW 19 : ... .. . ... ... ... : ... .. . ... ... ... : ... .. . ... : ... .. 8 ... : ... .. . ... ...
ROW 1A : ... .. . ... ... ... : ... .. . ... ... ... : ... .. . ... : ... .. 4 ... : ... .. . ... ...
ROW 1B : ... .. . ... ... ... : ... .. . ... ... ... : ... .. . ... : ... .. 0 ... : ... .. . ... ...
ROW 1C : ... .. . ... ... ... : ... .. . ... ... ... : ... .. . ... : ... .. . ... : ... .. . ... ...
ROW 1D : ... .. . ... ... ... : ... .. . ... ... ... : ... .. . ... : ... .. . ... : ... .. . ... ...
ROW 1E : ... .. . ... ... ... : ... .. . ... ... ... : ... .. . ... : ... .. . ... : ... .. . ... ...
ROW 1F : ... .. . ... ... ... : ... .. . ... ... ... : --- .. . ... : ... .. . ... : ... .. . ... ...
ROW 20 : ... .. . ... ... ... : ... .. . ... ... ... : G-3 00 . ... : ... .. . ... : ... .. . ... ...
ROW 21 : ... .. . ... ... ... : ... .. . ... ... ... : ... .. . ... : ... .. . ... : ... .. . ... ...
ROW 22 : ... .. . ... ... ... : ... .. . ... ... ... : ... .. . ... : ... .. . ... : ... .. . ... ...
ROW 23 : ... .. . ... ... ... : ... .. . ... ... ... : ... .. . ... : ... .. . ... : ... .. . ... ...
ROW 24 : ... .. . ... ... ... : ... .. . ... ... ... : ... .. . ... : ... .. . ... : ... .. . ... ...
ROW 25 : ... .. . ... ... ... : ... .. . ... ... ... : ... .. . ... : ... .. . ... : ... .. . ... ...
ROW 26 : ... .. . ... ... ... : ... .. . ... ... ... : ... .. . ... : ... .. . ... : ... .. . ... ...
ROW 27 : ... .. . ... ... ... : ... .. . ... ... ... : --- .. . ... : ... .. . ... : ... .. . ... ...
ROW 28 : ... .. . ... ... ... : ... .. . ... ... ... : D-3 00 . ... : ... .. . ... : ... .. . ... ...
ROW 29 : ... .. . ... ... ... : ... .. . ... ... ... : ... .. . ... : ... .. . ... : ... .. . ... ...
ROW 2A : ... .. . ... ... ... : ... .. . ... ... ... : ... .. . ... : ... .. . ... : ... .. . ... ...
ROW 2B : ... .. . ... ... ... : ... .. . ... ... ... : ... .. . ... : ... .. . ... : ... .. . ... ...
ROW 2C : ... .. . ... ... ... : ... .. . ... ... ... : ... .. . ... : ... .. . ... : ... .. . ... ...
ROW 2D : ... .. . ... ... ... : ... .. . ... ... ... : ... .. . ... : ... .. . ... : ... .. . ... ...
ROW 2E : ... .. . ... ... ... : ... .. . ... ... ... : ... .. . ... : ... .. . ... : ... .. . ... ...
ROW 2F : ... .. . ... ... ... : ... .. . ... ... ... : --- .. . ... : ... .. . ... : ... .. . ... ...
ROW 30 : D-3 00 4 P80 ... ... : ... .. . ... ... ... : G-2 00 . ... : ... .. C ... : ... .. . ... ...
ROW 31 : ... .. 5 ... ... ... : ... .. . ... ... ... : ... .. . ... : ... .. 8 ... : ... .. . ... ...
ROW 32 : ... .. 6 ... ... ... : ... .. . ... ... ... : ... .. . ... : ... .. 4 ... : ... .. . ... ...
ROW 33 : ... .. 7 ... ... ... : ... .. . ... ... ... : ... .. . ... : ... .. 0 ... : ... .. . ... ...
ROW 34 : ... .. 8 ... ... ... : ... .. . ... ... ... : ... .. . ... : ... .. . ... : ... .. . ... ...
ROW 35 : ... .. 7 ... ... ... : ... .. . ... ... ... : ... .. . ... : ... .. . ... : ... .. . ... ...
ROW 36 : ... .. 6 ... ... ... : ... .. . ... ... ... : ... .. . ... : ... .. . ... : ... .. . ... ...
ROW 37 : ... .. 5 ... ... ... : ... .. . ... ... ... : ... .. . ... : ... .. . ... : ... .. . ... ...
ROW 38 : ... .. 4 ... ... ... : ... .. . ... ... ... : ... .. . ... : ... .. . ... : ... .. . ... ...
ROW 39 : ... .. . ... ... ... : ... .. . ... ... ... : ... .. . ... : ... .. . ... : ... .. . ... ...
ROW 3A : ... .. . ... ... ... : ... .. . ... ... ... : ... .. . ... : ... .. . ... : ... .. . ... ...
ROW 3B : ... .. . ... ... ... : ... .. . ... ... ... : ... .. . ... : ... .. . ... : ... .. . ... ...
ROW 3C : ... .. . ... ... ... : ... .. . ... ... ... : ... .. . ... : ... .. . ... : ... .. . ... ...
ROW 3D : ... .. . ... ... ... : ... .. . ... ... ... : ... .. . ... : ... .. . ... : ... .. . ... ...
ROW 3E : ... .. . ... ... ... : ... .. . ... ... ... : ... .. . ... : ... .. . ... : ... .. . ... ...
ROW 3F : ... .. . ... ... ... : ... .. . ... ... ... : --- .. . ... : ... .. . ... : ... .. . ... ...
ROW 40 : ... .. . ... ... ... : ... .. . ... ... ... : ... .. . ... : ... .. . ... : ... .. . ... ...
ROW 41 : ... .. . ... ... ... : ... .. . ... ... ... : ... .. . ... : ... .. . ... : ... .. . ... ...
ROW 42 : ... .. . ... ... ... : ... .. . ... ... ... : ... .. . ... : ... .. . ... : ... .. . ... ...
ROW 43 : ... .. . ... ... ... : ... .. . ... ... ... : ... .. . ... : ... .. . ... : ... .. . ... ...
ROW 44 : ... .. . ... ... ... : ... .. . ... ... ... : ... .. . ... : ... .. . ... : ... .. . ... ...
ROW 45 : ... .. . ... ... ... : ... .. . ... ... ... : ... .. . ... : ... .. . ... : ... .. . ... ...
ROW 46 : ... .. . ... ... ... : ... .. . ... ... ... : ... .. . ... : ... .. . ... : ... .. . ... ...
ROW 47 : ... .. . ... ... ... : ... .. . ... ... ... : ... .. . ... : ... .. . ... : ... .. . ... ...
ROW 48 : ... .. . ... ... ... : ... .. . ... ... ... : G-2 00 . ... : ... .. C ... : ... .. . ... ...
ROW 49 : ... .. . ... ... ... : ... .. . ... ... ... : ... .. . ... : ... .. 8 ... : ... .. . ... ...
ROW 4A : ... .. . ... ... ... : ... .. . ... ... ... : ... .. . ... : ... .. 4 ... : ... .. . ... ...
ROW 4B : ... .. . ... ... ... : ... .. . ... ... ... : ... .. . ... : ... .. 0 ... : ... .. . ... ...
ROW 4C : ... .. . ... ... ... : ... .. . ... ... ... : ... .. . ... : ... .. . ... : ... .. . ... ...
ROW 4D : ... .. . ... ... ... : ... .. . ... ... ... : ... .. . ... : ... .. . ... : ... .. . ... ...
ROW 4E : ... .. . ... ... ... : ... .. . ... ... ... : ... .. . ... : ... .. . ... : ... .. . ... ...
ROW 4F : ... .. . ... ... ... : ... .. . ... ... ... : --- .. . ... : ... .. . ... : ... .. . ... ...
ROW 50 : ... .. . ... ... ... : ... .. . ... ... ... : D-3 00 . ... : ... .. C ... : ... .. . ... ...
ROW 51 : ... .. . ... ... ... : ... .. . ... ... ... : ... .. . ... : ... .. 8 ... : ... .. . ... ...
ROW 52 : ... .. . ... ... ... : ... .. . ... ... ... : ... .. . ... : ... .. 4 ... : ... .. . ... ...
ROW 53 : ... .. . ... ... ... : ... .. . ... ... ... : ... .. . ... : ... .. 0 ... : ... .. . ... ...
ROW 54 : ... .. . ... ... ... : ... .. . ... ... ... : ... .. . ... : ... .. . ... : ... .. . ... ...
ROW 55 : ... .. . ... ... ... : ... .. . ... ... ... : ... .. . ... : ... .. . ... : ... .. . ... ...
ROW 56 : ... .. . ... ... ... : ... .. . ... ... ... : ... .. . ... : ... .. . ... : ... .. . ... ...
ROW 57 : ... .. . ... ... ... : ... .. . ... ... ... : --- .. . ... : ... .. . ... : ... .. . ... ...
ROW 58 : ... .. . ... ... ... : ... .. . ... ... ... : G-2 00 . ... : ... .. C ... : ... .. . ... ...
ROW 59 : ... .. . ... ... ... : ... .. . ... ... ... : ... .. . ... : ... .. 8 ... : ... .. . ... ...
ROW 5A : ... .. . ... ... ... : ... .. . ... ... ... : ... .. . ... : ... .. 4 ... : ... .. . ... ...
ROW 5B : ... .. . ... ... ... : ... .. . ... ... ... : ... .. . ... : ... .. 0 ... : ... .. . ... ...
ROW 5C : ... .. . ... ... ... : ... .. . ... ... ... : ... .. . ... : ... .. . ... : ... .. . ... ...
ROW 5D : ... .. . ... ... ... : ... .. . ... ... ... : ... .. . ... : ... .. . ... : ... .. . ... ...
ROW 5E : ... .. . ... ... ... : ... .. . ... ... ... : ... .. . ... : ... .. . ... : ... .. . ... ...
ROW 5F : ... .. . ... ... ... : ... .. . ... ... ... : --- .. . ... : ... .. . ... : ... .. . ... ...
ROW 60 : C-3 00 4 P80 ... ... : A#3 00 D P81 ... ... : A#2 00 . ... : ... .. C ... : ... .. . ... ...
ROW 61 : ... .. 5 ... ... ... : ... .. 9 ... ... ... : ... .. . ... : ... .. 8 ... : ... .. . ... ...
ROW 62 : ... .. 6 ... ... ... : ... .. 7 ... ... ... : ... .. . ... : ... .. 4 ... : ... .. . ... ...
ROW 63 : ... .. 7 ... ... ... : ... .. 6 ... ... ... : ... .. . ... : ... .. 0 ... : ... .. . ... ...
ROW 64 : ... .. 8 ... ... ... : ... .. 5 ... ... ... : ... .. . ... : ... .. . ... : ... .. . ... ...
ROW 65 : ... .. 7 ... ... ... : ... .. . ... ... ... : ... .. . ... : ... .. . ... : ... .. . ... ...
ROW 66 : ... .. 6 ... ... ... : ... .. . ... ... ... : ... .. . ... : ... .. . ... : ... .. . ... ...
ROW 67 : ... .. 5 ... ... ... : ... .. 4 ... ... ... : ... .. . ... : ... .. . ... : ... .. . ... ...
ROW 68 : ... .. 4 ... ... ... : ... .. . ... ... ... : ... .. . ... : ... .. . ... : ... .. . ... ...
ROW 69 : ... .. . ... ... ... : ... .. . ... ... ... : ... .. . ... : ... .. . ... : ... .. . ... ...
ROW 6A : ... .. . ... ... ... : ... .. . ... ... ... : ... .. . ... : ... .. . ... : ... .. . ... ...
ROW 6B : ... .. . ... ... ... : ... .. . ... ... ... : ... .. . ... : ... .. . ... : ... .. . ... ...
ROW 6C : ... .. . ... ... ... : ... .. . ... ... ... : ... .. . ... : ... .. . ... : ... .. . ... ...
ROW 6D : ... .. . ... ... ... : ... .. . ... ... ... : ... .. . ... : ... .. . ... : ... .. . ... ...
ROW 6E : ... .. . ... ... ... : ... .. . ... ... ... : ... .. . ... : ... .. . ... : ... .. . ... ...
ROW 6F : ... .. . ... ... ... : ... .. . ... ... ... : --- .. . ... : ... .. . ... : ... .. . ... ...
ROW 70 : ... .. . ... ... ... : ... .. . ... ... ... : ... .. . ... : ... .. . ... : ... .. . ... ...
ROW 71 : ... .. . ... ... ... : ... .. . ... ... ... : ... .. . ... : ... .. . ... : ... .. . ... ...
ROW 72 : ... .. . ... ... ... : ... .. . ... ... ... : ... .. . ... : ... .. . ... : ... .. . ... ...
ROW 73 : ... .. . ... ... ... : ... .. . ... ... ... : ... .. . ... : ... .. . ... : ... .. . ... ...
ROW 74 : ... .. . ... ... ... : ... .. . ... ... ... : ... .. . ... : ... .. . ... : ... .. . ... ...
ROW 75 : ... .. . ... ... ... : ... .. . ... ... ... : ... .. . ... : ... .. . ... : ... .. . ... ...
ROW 76 : ... .. . ... ... ... : ... .. . ... ... ... : ... .. . ... : ... .. . ... : ... .. . ... ...
ROW 77 : ... .. . ... ... ... : ... .. . ... ... ... : ... .. . ... : ... .. . ... : ... .. . ... ...
ROW 78 : ... .. . ... ... ... : ... .. . ... ... ... : A#2 00 . ... : ... .. C ... : ... .. . ... ...
ROW 79 : ... .. . ... ... ... : ... .. . ... ... ... : ... .. . ... : ... .. 8 ... : ... .. . ... ...
ROW 7A : ... .. . ... ... ... : ... .. . ... ... ... : ... .. . ... : ... .. 4 ... : ... .. . ... ...
ROW 7B : ... .. . ... ... ... : ... .. . ... ... ... : ... .. . ... : ... .. 0 ... : ... .. . ... ...
ROW 7C : ... .. . ... ... ... : ... .. . ... ... ... : ... .. . ... : ... .. . ... : ... .. . ... ...
ROW 7D : ... .. . ... ... ... : ... .. . ... ... ... : ... .. . ... : ... .. . ... : ... .. . ... ...
ROW 7E : ... .. . ... ... ... : ... .. . ... ... ... : ... .. . ... : ... .. . ... : ... .. . ... ...
ROW 7F : ... .. . ... ... ... : ... .. . ... ... ... : --- .. . ... : ... .. . ... : ... .. . ... ...

PATTERN 07
ROW 00 : ... .. . ... ... ... : ... .. . ... ... ... : F-3 00 . ... : ... .. . ... : ... .. . ... ...
ROW 01 : ... .. . ... ... ... : ... .. . ... ... ... : ... .. . ... : ... .. . ... : ... .. . ... ...
ROW 02 : ... .. . ... ... ... : ... .. . ... ... ... : ... .. . ... : ... .. . ... : ... .. . ... ...
ROW 03 : ... .. . ... ... ... : ... .. . ... ... ... : ... .. . ... : ... .. . ... : ... .. . ... ...
ROW 04 : ... .. . ... ... ... : ... .. . ... ... ... : ... .. . ... : ... .. . ... : ... .. . ... ...
ROW 05 : ... .. . ... ... ... : ... .. . ... ... ... : ... .. . ... : ... .. . ... : ... .. . ... ...
ROW 06 : ... .. . ... ... ... : ... .. . ... ... ... : ... .. . ... : ... .. . ... : ... .. . ... ...
ROW 07 : ... .. . ... ... ... : ... .. . ... ... ... : --- .. . ... : ... .. . ... : ... .. . ... ...
ROW 08 : ... .. . ... ... ... : ... .. . ... ... ... : A#2 00 . ... : ... .. . ... : ... .. . ... ...
ROW 09 : ... .. . ... ... ... : ... .. . ... ... ... : ... .. . ... : ... .. . ... : ... .. . ... ...
ROW 0A : ... .. . ... ... ... : ... .. . ... ... ... : ... .. . ... : ... .. . ... : ... .. . ... ...
ROW 0B : ... .. . ... ... ... : ... .. . ... ... ... : ... .. . ... : ... .. . ... : ... .. . ... ...
ROW 0C : ... .. . ... ... ... : ... .. . ... ... ... : ... .. . ... : ... .. . ... : ... .. . ... ...
ROW 0D : ... .. . ... ... ... : ... .. . ... ... ... : ... .. . ... : ... .. . ... : ... .. . ... ...
ROW 0E : ... .. . ... ... ... : ... .. . ... ... ... : ... .. . ... : ... .. . ... : ... .. . ... ...
ROW 0F : ... .. . ... ... ... : ... .. . ... ... ... : --- .. . ... : ... .. . ... : ... .. . ... ...
ROW 10 : F-3 00 4 P80 ... ... : ... .. . ... ... ... : A#2 00 . ... : ... .. C ... : ... .. . ... ...
ROW 11 : ... .. 5 ... ... ... : ... .. . ... ... ... : ... .. . ... : ... .. 8 ... : ... .. . ... ...
ROW 12 : ... .. 6 ... ... ... : ... .. . ... ... ... : ... .. . ... : ... .. 4 ... : ... .. . ... ...
ROW 13 : ... .. 7 ... ... ... : ... .. . ... ... ... : ... .. . ... : ... .. 0 ... : ... .. . ... ...
ROW 14 : ... .. 8 ... ... ... : ... .. . ... ... ... : ... .. . ... : ... .. . ... : ... .. . ... ...
ROW 15 : ... .. 7 ... ... ... : ... .. . ... ... ... : ... .. . ... : ... .. . ... : ... .. . ... ...
ROW 16 : ... .. 6 ... ... ... : ... .. . ... ... ... : ... .. . ... : ... .. . ... : ... .. . ... ...
ROW 17 : ... .. 5 ... ... ... : ... .. . ... ... ... : ... .. . ... : ... .. . ... : ... .. . ... ...
ROW 18 : ... .. 4 ... ... ... : ... .. . ... ... ... : ... .. . ... : ... .. . ... : ... .. . ... ...
ROW 19 : ... .. . ... ... ... : ... .. . ... ... ... : ... .. . ... : ... .. . ... : ... .. . ... ...
ROW 1A : ... .. . ... ... ... : ... .. . ... ... ... : ... .. . ... : ... .. . ... : ... .. . ... ...
ROW 1B : ... .. . ... ... ... : ... .. . ... ... ... : ... .. . ... : ... .. . ... : ... .. . ... ...
ROW 1C : ... .. . ... ... ... : ... .. . ... ... ... : ... .. . ... : ... .. . ... : ... .. . ... ...
ROW 1D : ... .. . ... ... ... : ... .. . ... ... ... : ... .. . ... : ... .. . ... : ... .. . ... ...
ROW 1E : ... .. . ... ... ... : ... .. . ... ... ... : ... .. . ... : ... .. . ... : ... .. . ... ...
ROW 1F : ... .. . ... ... ... : ... .. . ... ... ... : --- .. . ... : ... .. . ... : ... .. . ... ...
ROW 20 : ... .. . ... ... ... : ... .. . ... ... ... : ... .. . ... : ... .. . ... : ... .. . ... ...
ROW 21 : ... .. . ... ... ... : ... .. . ... ... ... : ... .. . ... : ... .. . ... : ... .. . ... ...
ROW 22 : ... .. . ... ... ... : ... .. . ... ... ... : ... .. . ... : ... .. . ... : ... .. . ... ...
ROW 23 : ... .. . ... ... ... : ... .. . ... ... ... : ... .. . ... : ... .. . ... : ... .. . ... ...
ROW 24 : ... .. . ... ... ... : ... .. . ... ... ... : ... .. . ... : ... .. . ... : ... .. . ... ...
ROW 25 : ... .. . ... ... ... : ... .. . ... ... ... : ... .. . ... : ... .. . ... : ... .. . ... ...
ROW 26 : ... .. . ... ... ... : ... .. . ... ... ... : ... .. . ... : ... .. . ... : ... .. . ... ...
ROW 27 : ... .. . ... ... ... : ... .. . ... ... ... : ... .. . ... : ... .. . ... : ... .. . ... ...
ROW 28 : ... .. . ... ... ... : A-3 00 D P80 ... ... : A#2 00 . ... : ... .. C ... : ... .. . ... ...
ROW 29 : ... .. . ... ... ... : ... .. 9 ... ... ... : ... .. . ... : ... .. 8 ... : ... .. . ... ...
ROW 2A : ... .. . ... ... ... : ... .. 7 ... ... ... : ... .. . ... : ... .. 4 ... : ... .. . ... ...
ROW 2B : ... .. . ... ... ... : ... .. 6 ... ... ... : ... .. . ... : ... .. 0 ... : ... .. . ... ...
ROW 2C : ... .. . ... ... ... : ... .. 5 ... ... ... : ... .. . ... : ... .. . ... : ... .. . ... ...
ROW 2D : ... .. . ... ... ... : ... .. . ... ... ... : ... .. . ... : ... .. . ... : ... .. . ... ...
ROW 2E : ... .. . ... ... ... : A#3 00 D P81 ... ... : ... .. . ... : ... .. . ... : ... .. . ... ...
ROW 2F : ... .. . ... ... ... : ... .. 9 ... ... ... : --- .. . ... : ... .. . ... : ... .. . ... ...
ROW 30 : ... .. . ... ... ... : ... .. 7 ... ... ... : F-3 00 . ... : ... .. C ... : ... .. . ... ...
ROW 31 : ... .. . ... ... ... : ... .. 6 ... ... ... : ... .. . ... : ... .. 8 ... : ... .. . ... ...
ROW 32 : ... .. . ... ... ... : ... .. 5 ... ... ... : ... .. . ... : ... .. 4 ... : ... .. . ... ...
ROW 33 : ... .. . ... ... ... : ... .. . ... ... ... : ... .. . ... : ... .. 0 ... : ... .. . ... ...
ROW 34 : ... .. . ... ... ... : A-3 00 D P80 ... ... : ... .. . ... : ... .. . ... : ... .. . ... ...
ROW 35 : ... .. . ... ... ... : ... .. 9 ... ... ... : ... .. . ... : ... .. . ... : ... .. . ... ...
ROW 36 : ... .. . ... ... ... : ... .. 7 ... ... ... : ... .. . ... : ... .. . ... : ... .. . ... ...
ROW 37 : ... .. . ... ... ... : ... .. 6 ... ... ... : --- .. . ... : ... .. . ... : ... .. . ... ...
ROW 38 : ... .. . ... ... ... : ... .. 5 ... ... ... : A#2 00 . ... : ... .. C ... : ... .. . ... ...
ROW 39 : ... .. . ... ... ... : ... .. . ... ... ... : ... .. . ... : ... .. 8 ... : ... .. . ... ...
ROW 3A : ... .. . ... ... ... : F-3 00 D P80 ... ... : ... .. . ... : ... .. 4 ... : ... .. . ... ...
ROW 3B : ... .. . ... ... ... : ... .. 9 ... ... ... : ... .. . ... : ... .. 0 ... : ... .. . ... ...
ROW 3C : ... .. . ... ... ... : ... .. 7 ... ... ... : ... .. . ... : ... .. . ... : ... .. . ... ...
ROW 3D : ... .. . ... ... ... : ... .. 6 ... ... ... : ... .. . ... : ... .. . ... : ... .. . ... ...
ROW 3E : ... .. . ... ... ... : ... .. 5 ... ... ... : ... .. . ... : ... .. . ... : ... .. . ... ...
ROW 3F : ... .. . ... ... ... : ... .. . ... ... ... : --- .. . ... : ... .. . ... : ... .. . ... ...
ROW 40 : B-2 00 4 P80 ... ... : G-3 00 D P80 ... ... : G-2 00 . ... : ... .. C ... : ... .. . ... ...
ROW 41 : ... .. 5 ... ... ... : ... .. 9 ... ... ... : ... .. . ... : ... .. 8 ... : ... .. . ... ...
ROW 42 : ... .. 6 ... ... ... : ... .. 7 ... ... ... : ... .. . ... : ... .. 4 ... : ... .. . ... ...
ROW 43 : ... .. 7 ... ... ... : ... .. 6 ... ... ... : ... .. . ... : ... .. 0 ... : ... .. . ... ...
ROW 44 : ... .. 8 ... ... ... : ... .. 5 ... ... ... : ... .. . ... : ... .. . ... : ... .. . ... ...
ROW 45 : ... .. 7 ... ... ... : ... .. . ... ... ... : ... .. . ... : ... .. . ... : ... .. . ... ...
ROW 46 : ... .. 6 ... ... ... : ... .. . ... ... ... : ... .. . ... : ... .. . ... : ... .. . ... ...
ROW 47 : ... .. 5 ... ... ... : ... .. 4 ... ... ... : ... .. . ... : ... .. . ... : ... .. . ... ...
ROW 48 : ... .. 4 ... ... ... : ... .. . ... ... ... : ... .. . ... : ... .. . ... : ... .. . ... ...
ROW 49 : ... .. . ... ... ... : ... .. . ... ... ... : ... .. . ... : ... .. . ... : ... .. . ... ...
ROW 4A : ... .. . ... ... ... : ... .. . ... ... ... : ... .. . ... : ... .. . ... : ... .. . ... ...
ROW 4B : ... .. . ... ... ... : ... .. . ... ... ... : ... .. . ... : ... .. . ... : ... .. . ... ...
ROW 4C : ... .. . ... ... ... : ... .. . ... ... ... : ... .. . ... : ... .. . ... : ... .. . ... ...
ROW 4D : ... .. . ... ... ... : ... .. . ... ... ... : ... .. . ... : ... .. . ... : ... .. . ... ...
ROW 4E : ... .. . ... ... ... : ... .. . ... ... ... : ... .. . ... : ... .. . ... : ... .. . ... ...
ROW 4F : ... .. . ... ... ... : ... .. . ... ... ... : --- .. . ... : ... .. . ... : ... .. . ... ...
ROW 50 : ... .. . ... ... ... : ... .. . ... ... ... : ... .. . ... : ... .. . ... : ... .. . ... ...
ROW 51 : ... .. . ... ... ... : ... .. . ... ... ... : ... .. . ... : ... .. . ... : ... .. . ... ...
ROW 52 : ... .. . ... ... ... : ... .. . ... ... ... : ... .. . ... : ... .. . ... : ... .. . ... ...
ROW 53 : ... .. . ... ... ... : ... .. . ... ... ... : ... .. . ... : ... .. . ... : ... .. . ... ...
ROW 54 : ... .. . ... ... ... : ... .. . ... ... ... : ... .. . ... : ... .. . ... : ... .. . ... ...
ROW 55 : ... .. . ... ... ... : ... .. . ... ... ... : ... .. . ... : ... .. . ... : ... .. . ... ...
ROW 56 : ... .. . ... ... ... : ... .. . ... ... ... : ... .. . ... : ... .. . ... : ... .. . ... ...
ROW 57 : ... .. . ... ... ... : ... .. . ... ... ... : ... .. . ... : ... .. . ... : ... .. . ... ...
ROW 58 : ... .. . ... ... ... : ... .. . ... ... ... : D-3 00 . ... : ... .. C ... : ... .. . ... ...
ROW 59 : ... .. . ... ... ... : ... .. . ... ... ... : ... .. . ... : ... .. 8 ... : ... .. . ... ...
ROW 5A : ... .. . ... ... ... : ... .. . ... ... ... : ... .. . ... : ... .. 4 ... : ... .. . ... ...
ROW 5B : ... .. . ... ... ... : ... .. . ... ... ... : ... .. . ... : ... .. 0 ... : ... .. . ... ...
ROW 5C : ... .. . ... ... ... : ... .. . ... ... ... : ... .. . ... : ... .. . ... : ... .. . ... ...
ROW 5D : ... .. . ... ... ... : ... .. . ... ... ... : ... .. . ... : ... .. . ... : ... .. . ... ...
ROW 5E : ... .. . ... ... ... : ... .. . ... ... ... : ... .. . ... : ... .. . ... : ... .. . ... ...
ROW 5F : ... .. . ... ... ... : ... .. . ... ... ... : --- .. . ... : ... .. . ... : ... .. . ... ...
ROW 60 : ... .. . ... ... ... : ... .. . ... ... ... : G-2 00 . ... : ... .. . ... : ... .. . ... ...
ROW 61 : ... .. . ... ... ... : ... .. . ... ... ... : ... .. . ... : ... .. . ... : ... .. . ... ...
ROW 62 : ... .. . ... ... ... : ... .. . ... ... ... : ... .. . ... : ... .. . ... : ... .. . ... ...
ROW 63 : ... .. . ... ... ... : ... .. . ... ... ... : ... .. . ... : ... .. . ... : ... .. . ... ...
ROW 64 : ... .. . ... ... ... : ... .. . ... ... ... : ... .. . ... : ... .. . ... : ... .. . ... ...
ROW 65 : ... .. . ... ... ... : ... .. . ... ... ... : ... .. . ... : ... .. . ... : ... .. . ... ...
ROW 66 : ... .. . ... ... ... : ... .. . ... ... ... : ... .. . ... : ... .. . ... : ... .. . ... ...
ROW 67 : ... .. . ... ... ... : ... .. . ... ... ... : --- .. . ... : ... .. . ... : ... .. . ... ...
ROW 68 : ... .. . ... ... ... : ... .. . ... ... ... : G-2 00 . ... : ... .. . ... : ... .. . ... ...
ROW 69 : ... .. . ... ... ... : ... .. . ... ... ... : ... .. . ... : ... .. . ... : ... .. . ... ...
ROW 6A : ... .. . ... ... ... : ... .. . ... ... ... : ... .. . ... : ... .. . ... : ... .. . ... ...
ROW 6B : ... .. . ... ... ... : ... .. . ... ... ... : ... .. . ... : ... .. . ... : ... .. . ... ...
ROW 6C : ... .. . ... ... ... : ... .. . ... ... ... : ... .. . ... : ... .. . ... : ... .. . ... ...
ROW 6D : ... .. . ... ... ... : ... .. . ... ... ... : ... .. . ... : ... .. . ... : ... .. . ... ...
ROW 6E : ... .. . ... ... ... : ... .. . ... ... ... : ... .. . ... : ... .. . ... : ... .. . ... ...
ROW 6F : ... .. . ... ... ... : ... .. . ... ... ... : --- .. . ... : ... .. . ... : ... .. . ... ...
ROW 70 : ... .. . ... ... ... : ... .. . ... ... ... : G-2 00 . ... : ... .. C ... : ... .. . ... ...
ROW 71 : ... .. . ... ... ... : ... .. . ... ... ... : ... .. . ... : ... .. 8 ... : ... .. . ... ...
ROW 72 : ... .. . ... ... ... : ... .. . ... ... ... : ... .. . ... : ... .. 4 ... : ... .. . ... ...
ROW 73 : ... .. . ... ... ... : ... .. . ... ... ... : ... .. . ... : ... .. 0 ... : ... .. . ... ...
ROW 74 : ... .. . ... ... ... : ... .. . ... ... ... : ... .. . ... : ... .. . ... : ... .. . ... ...
ROW 75 : ... .. . ... ... ... : ... .. . ... ... ... : ... .. . ... : ... .. . ... : ... .. . ... ...
ROW 76 : ... .. . ... ... ... : ... .. . ... ... ... : ... .. . ... : ... .. . ... : ... .. . ... ...
ROW 77 : ... .. . ... ... ... : ... .. . ... ... ... : ... .. . ... : ... .. . ... : ... .. . ... ...
ROW 78 : ... .. . ... ... ... : ... .. . ... ... ... : ... .. . ... : ... .. . ... : ... .. . ... ...
ROW 79 : ... .. . ... ... ... : ... .. . ... ... ... : ... .. . ... : ... .. . ... : ... .. . ... ...
ROW 7A : ... .. . ... ... ... : ... .. . ... ... ... : ... .. . ... : ... .. . ... : ... .. . ... ...
ROW 7B : ... .. . ... ... ... : ... .. . ... ... ... : ... .. . ... : ... .. . ... : ... .. . ... ...
ROW 7C : ... .. . ... ... ... : ... .. . ... ... ... : ... .. . ... : ... .. . ... : ... .. . ... ...
ROW 7D : ... .. . ... ... ... : ... .. . ... ... ... : ... .. . ... : ... .. . ... : ... .. . ... ...
ROW 7E : ... .. . ... ... ... : ... .. . ... ... ... : ... .. . ... : ... .. . ... : ... .. . ... ...
ROW 7F : ... .. . ... ... ... : ... .. . ... ... ... : --- .. . ... : ... .. . ... : ... .. . ... ...

PATTERN 08
ROW 00 : ... .. . ... ... ... : ... .. . ... ... ... : ... .. . ... : ... .. . ... : ... .. . ... ...
ROW 01 : ... .. . ... ... ... : ... .. . ... ... ... : ... .. . ... : ... .. . ... : ... .. . ... ...
ROW 02 : ... .. . ... ... ... : ... .. . ... ... ... : ... .. . ... : ... .. . ... : ... .. . ... ...
ROW 03 : ... .. . ... ... ... : ... .. . ... ... ... : ... .. . ... : ... .. . ... : ... .. . ... ...
ROW 04 : ... .. . ... ... ... : ... .. . ... ... ... : ... .. . ... : ... .. . ... : ... .. . ... ...
ROW 05 : ... .. . ... ... ... : ... .. . ... ... ... : ... .. . ... : ... .. . ... : ... .. . ... ...
ROW 06 : ... .. . ... ... ... : ... .. . ... ... ... : ... .. . ... : ... .. . ... : ... .. . ... ...
ROW 07 : ... .. . ... ... ... : ... .. . ... ... ... : ... .. . ... : ... .. . ... : ... .. . ... ...
ROW 08 : ... .. . ... ... ... : ... .. . ... ... ... : D-3 00 . ... : ... .. C ... : ... .. . ... ...
ROW 09 : ... .. . ... ... ... : ... .. . ... ... ... : ... .. . ... : ... .. 8 ... : ... .. . ... ...
ROW 0A : ... .. . ... ... ... : ... .. . ... ... ... : ... .. . ... : ... .. 4 ... : ... .. . ... ...
ROW 0B : ... .. . ... ... ... : ... .. . ... ... ... : ... .. . ... : ... .. 0 ... : ... .. . ... ...
ROW 0C : ... .. . ... ... ... : ... .. . ... ... ... : ... .. . ... : ... .. . ... : ... .. . ... ...
ROW 0D : ... .. . ... ... ... : ... .. . ... ... ... : ... .. . ... : ... .. . ... : ... .. . ... ...
ROW 0E : ... .. . ... ... ... : ... .. . ... ... ... : ... .. . ... : ... .. . ... : ... .. . ... ...
ROW 0F : ... .. . ... ... ... : ... .. . ... ... ... : --- .. . ... : ... .. . ... : ... .. . ... ...
ROW 10 : ... .. . ... ... ... : ... .. . ... ... ... : G-2 00 . ... : ... .. C ... : ... .. . ... ...
ROW 11 : ... .. . ... ... ... : ... .. . ... ... ... : ... .. . ... : ... .. 8 ... : ... .. . ... ...
ROW 12 : ... .. . ... ... ... : ... .. . ... ... ... : ... .. . ... : ... .. 4 ... : ... .. . ... ...
ROW 13 : ... .. . ... ... ... : ... .. . ... ... ... : ... .. . ... : ... .. 0 ... : ... .. . ... ...
ROW 14 : ... .. . ... ... ... : ... .. . ... ... ... : ... .. . ... : ... .. . ... : ... .. . ... ...
ROW 15 : ... .. . ... ... ... : ... .. . ... ... ... : ... .. . ... : ... .. . ... : ... .. . ... ...
ROW 16 : ... .. . ... ... ... : ... .. . ... ... ... : ... .. . ... : ... .. . ... : ... .. . ... ...
ROW 17 : ... .. . ... ... ... : ... .. . ... ... ... : --- .. . ... : ... .. . ... : ... .. . ... ...
ROW 18 : ... .. . ... ... ... : ... .. . ... ... ... : G-2 00 . ... : ... .. C ... : ... .. . ... ...
ROW 19 : ... .. . ... ... ... : ... .. . ... ... ... : ... .. . ... : ... .. 8 ... : ... .. . ... ...
ROW 1A : ... .. . ... ... ... : ... .. . ... ... ... : ... .. . ... : ... .. 4 ... : ... .. . ... ...
ROW 1B : ... .. . ... ... ... : ... .. . ... ... ... : ... .. . ... : ... .. 0 ... : ... .. . ... ...
ROW 1C : ... .. . ... ... ... : ... .. . ... ... ... : ... .. . ... : ... .. . ... : ... .. . ... ...
ROW 1D : ... .. . ... ... ... : ... .. . ... ... ... : ... .. . ... : ... .. . ... : ... .. . ... ...
ROW 1E : ... .. . ... ... ... : ... .. . ... ... ... : ... .. . ... : ... .. . ... : ... .. . ... ...
ROW 1F : ... .. . ... ... ... : ... .. . ... ... ... : --- .. . ... : ... .. . ... : ... .. . ... ...
ROW 20 : C-3 00 4 P80 ... ... : G-3 00 D P80 ... ... : G-2 00 . ... : ... .. C ... : ... .. . ... ...
ROW 21 : ... .. 5 ... ... ... : ... .. 9 ... ... ... : ... .. . ... : ... .. 8 ... : ... .. . ... ...
ROW 22 : ... .. 6 ... ... ... : ... .. 7 ... ... ... : ... .. . ... : ... .. 4 ... : ... .. . ... ...
ROW 23 : ... .. 7 ... ... ... : ... .. 6 ... ... ... : ... .. . ... : ... .. 0 ... : ... .. . ... ...
ROW 24 : ... .. 8 ... ... ... : ... .. 5 ... ... ... : ... .. . ... : ... .. . ... : ... .. . ... ...
ROW 25 : ... .. 7 ... ... ... : ... .. . ... ... ... : ... .. . ... : ... .. . ... : ... .. . ... ...
ROW 26 : ... .. 6 ... ... ... : ... .. . ... ... ... : ... .. . ... : ... .. . ... : ... .. . ... ...
ROW 27 : ... .. 5 ... ... ... : ... .. 4 ... ... ... : ... .. . ... : ... .. . ... : ... .. . ... ...
ROW 28 : ... .. 4 ... ... ... : ... .. . ... ... ... : ... .. . ... : ... .. . ... : ... .. . ... ...
ROW 29 : ... .. . ... ... ... : ... .. . ... ... ... : ... .. . ... : ... .. . ... : ... .. . ... ...
ROW 2A : ... .. . ... ... ... : ... .. . ... ... ... : ... .. . ... : ... .. . ... : ... .. . ... ...
ROW 2B : ... .. . ... ... ... : ... .. . ... ... ... : ... .. . ... : ... .. . ... : ... .. . ... ...
ROW 2C : ... .. . ... ... ... : ... .. . ... ... ... : ... .. . ... : ... .. . ... : ... .. . ... ...
ROW 2D : ... .. . ... ... ... : ... .. . ... ... ... : ... .. . ... : ... .. . ... : ... .. . ... ...
ROW 2E : ... .. . ... ... ... : ... .. . ... ... ... : ... .. . ... : ... .. . ... : ... .. . ... ...
ROW 2F : ... .. . ... ... ... : ... .. . ... ... ... : --- .. . ... : ... .. . ... : ... .. . ... ...
ROW 30 : ... .. . ... ... ... : ... .. . ... ... ... : ... .. . ... : ... .. . ... : ... .. . ... ...
ROW 31 : ... .. . ... ... ... : ... .. . ... ... ... : ... .. . ... : ... .. . ... : ... .. . ... ...
ROW 32 : ... .. . ... ... ... : ... .. . ... ... ... : ... .. . ... : ... .. . ... : ... .. . ... ...
ROW 33 : ... .. . ... ... ... : ... .. . ... ... ... : ... .. . ... : ... .. . ... : ... .. . ... ...
ROW 34 : ... .. . ... ... ... : ... .. . ... ... ... : ... .. . ... : ... .. . ... : ... .. . ... ...
ROW 35 : ... .. . ... ... ... : ... .. . ... ... ... : ... .. . ... : ... .. . ... : ... .. . ... ...
ROW 36 : ... .. . ... ... ... : ... .. . ... ... ... : ... .. . ... : ... .. . ... : ... .. . ... ...
ROW 37 : ... .. . ... ... ... : ... .. . ... ... ... : ... .. . ... : ... .. . ... : ... .. . ... ...
ROW 38 : ... .. . ... ... ... : ... .. . ... ... ... : D-3 00 . ... : ... .. C ... : ... .. . ... ...
ROW 39 : ... .. . ... ... ... : ... .. . ... ... ... : ... .. . ... : ... .. 8 ... : ... .. . ... ...
ROW 3A : ... .. . ... ... ... : ... .. . ... ... ... : ... .. . ... : ... .. 4 ... : ... .. . ... ...
ROW 3B : ... .. . ... ... ... : ... .. . ... ... ... : ... .. . ... : ... .. 0 ... : ... .. . ... ...
ROW 3C : ... .. . ... ... ... : ... .. . ... ... ... : ... .. . ... : ... .. . ... : ... .. . ... ...
ROW 3D : ... .. . ... ... ... : ... .. . ... ... ... : ... .. . ... : ... .. . ... : ... .. . ... ...
ROW 3E : ... .. . ... ... ... : ... .. . ... ... ... : ... .. . ... : ... .. . ... : ... .. . ... ...
ROW 3F : ... .. . ... ... ... : ... .. . ... ... ... : --- .. . ... : ... .. . ... : ... .. . ... ...
ROW 40 : ... .. . ... ... ... : ... .. . ... ... ... : G-2 00 . ... : ... .. . ... : ... .. . ... ...
ROW 41 : ... .. . ... ... ... : ... .. . ... ... ... : ... .. . ... : ... .. . ... : ... .. . ... ...
ROW 42 : ... .. . ... ... ... : ... .. . ... ... ... : ... .. . ... : ... .. . ... : ... .. . ... ...
ROW 43 : ... .. . ... ... ... : ... .. . ... ... ... : ... .. . ... : ... .. . ... : ... .. . ... ...
ROW 44 : ... .. . ... ... ... : ... .. . ... ... ... : ... .. . ... : ... .. . ... : ... .. . ... ...
ROW 45 : ... .. . ... ... ... : ... .. . ... ... ... : ... .. . ... : ... .. . ... : ... .. . ... ...
ROW 46 : ... .. . ... ... ... : ... .. . ... ... ... : ... .. . ... : ... .. . ... : ... .. . ... ...
ROW 47 : ... .. . ... ... ... : ... .. . ... ... ... : --- .. . ... : ... .. . ... : ... .. . ... ...
ROW 48 : ... .. . ... ... ... : ... .. . ... ... ... : G-2 00 . ... : ... .. . ... : ... .. . ... ...
ROW 49 : ... .. . ... ... ... : ... .. . ... ... ... : ... .. . ... : ... .. . ... : ... .. . ... ...
ROW 4A : ... .. . ... ... ... : ... .. . ... ... ... : ... .. . ... : ... .. . ... : ... .. . ... ...
ROW 4B : ... .. . ... ... ... : ... .. . ... ... ... : ... .. . ... : ... .. . ... : ... .. . ... ...
ROW 4C : ... .. . ... ... ... : ... .. . ... ... ... : ... .. . ... : ... .. . ... : ... .. . ... ...
ROW 4D : ... .. . ... ... ... : ... .. . ... ... ... : ... .. . ... : ... .. . ... : ... .. . ... ...
ROW 4E : ... .. . ... ... ... : ... .. . ... ... ... : ... .. . ... : ... .. . ... : ... .. . ... ...
ROW 4F : ... .. . ... ... ... : ... .. . ... ... ... : --- .. . ... : ... .. . ... : ... .. . ... ...
ROW 50 : D-3 00 4 P80 ... ... : ... .. . ... ... ... : G-2 00 . ... : ... .. C ... : ... .. . ... ...
ROW 51 : ... .. 5 ... ... ... : ... .. . ... ... ... : ... .. . ... : ... .. 8 ... : ... .. . ... ...
ROW 52 : ... .. 6 ... ... ... : ... .. . ... ... ... : ... .. . ... : ... .. 4 ... : ... .. . ... ...
ROW 53 : ... .. 7 ... ... ... : ... .. . ... ... ... : ... .. . ... : ... .. 0 ... : ... .. . ... ...
ROW 54 : ... .. 8 ... ... ... : ... .. . ... ... ... : ... .. . ... : ... .. . ... : ... .. . ... ...
ROW 55 : ... .. 7 ... ... ... : ... .. . ... ... ... : ... .. . ... : ... .. . ... : ... .. . ... ...
ROW 56 : ... .. 6 ... ... ... : ... .. . ... ... ... : ... .. . ... : ... .. . ... : ... .. . ... ...
ROW 57 : ... .. 5 ... ... ... : ... .. . ... ... ... : ... .. . ... : ... .. . ... : ... .. . ... ...
ROW 58 : ... .. 4 ... ... ... : ... .. . ... ... ... : ... .. . ... : ... .. . ... : ... .. . ... ...
ROW 59 : ... .. . ... ... ... : ... .. . ... ... ... : ... .. . ... : ... .. . ... : ... .. . ... ...
ROW 5A : ... .. . ... ... ... : ... .. . ... ... ... : ... .. . ... : ... .. . ... : ... .. . ... ...
ROW 5B : ... .. . ... ... ... : ... .. . ... ... ... : ... .. . ... : ... .. . ... : ... .. . ... ...
ROW 5C : ... .. . ... ... ... : ... .. . ... ... ... : ... .. . ... : ... .. . ... : ... .. . ... ...
ROW 5D : ... .. . ... ... ... : ... .. . ... ... ... : ... .. . ... : ... .. . ... : ... .. . ... ...
ROW 5E : ... .. . ... ... ... : ... .. . ... ... ... : ... .. . ... : ... .. . ... : ... .. . ... ...
ROW 5F : ... .. . ... ... ... : ... .. . ... ... ... : --- .. . ... : ... .. . ... : ... .. . ... ...
ROW 60 : ... .. . ... ... ... : ... .. . ... ... ... : ... .. . ... : ... .. . ... : ... .. . ... ...
ROW 61 : ... .. . ... ... ... : ... .. . ... ... ... : ... .. . ... : ... .. . ... : ... .. . ... ...
ROW 62 : ... .. . ... ... ... : ... .. . ... ... ... : ... .. . ... : ... .. . ... : ... .. . ... ...
ROW 63 : ... .. . ... ... ... : ... .. . ... ... ... : ... .. . ... : ... .. . ... : ... .. . ... ...
ROW 64 : ... .. . ... ... ... : ... .. . ... ... ... : ... .. . ... : ... .. . ... : ... .. . ... ...
ROW 65 : ... .. . ... ... ... : ... .. . ... ... ... : ... .. . ... : ... .. . ... : ... .. . ... ...
ROW 66 : ... .. . ... ... ... : ... .. . ... ... ... : ... .. . ... : ... .. . ... : ... .. . ... ...
ROW 67 : ... .. . ... ... ... : ... .. . ... ... ... : ... .. . ... : ... .. . ... : ... .. . ... ...
ROW 68 : ... .. . ... ... ... : ... .. . ... ... ... : D-3 00 . ... : ... .. C ... : ... .. . ... ...
ROW 69 : ... .. . ... ... ... : ... .. . ... ... ... : ... .. . ... : ... .. 8 ... : ... .. . ... ...
ROW 6A : ... .. . ... ... ... : ... .. . ... ... ... : ... .. . ... : ... .. 4 ... : ... .. . ... ...
ROW 6B : ... .. . ... ... ... : ... .. . ... ... ... : ... .. . ... : ... .. 0 ... : ... .. . ... ...
ROW 6C : ... .. . ... ... ... : ... .. . ... ... ... : ... .. . ... : ... .. . ... : ... .. . ... ...
ROW 6D : ... .. . ... ... ... : ... .. . ... ... ... : ... .. . ... : ... .. . ... : ... .. . ... ...
ROW 6E : ... .. . ... ... ... : ... .. . ... ... ... : ... .. . ... : ... .. . ... : ... .. . ... ...
ROW 6F : ... .. . ... ... ... : ... .. . ... ... ... : --- .. . ... : ... .. . ... : ... .. . ... ...
ROW 70 : ... .. . ... ... ... : ... .. . ... ... ... : G-2 00 . ... : ... .. C ... : ... .. . ... ...
ROW 71 : ... .. . ... ... ... : ... .. . ... ... ... : ... .. . ... : ... .. 8 ... : ... .. . ... ...
ROW 72 : ... .. . ... ... ... : ... .. . ... ... ... : ... .. . ... : ... .. 4 ... : ... .. . ... ...
ROW 73 : ... .. . ... ... ... : ... .. . ... ... ... : ... .. . ... : ... .. 0 ... : ... .. . ... ...
ROW 74 : ... .. . ... ... ... : ... .. . ... ... ... : ... .. . ... : ... .. . ... : ... .. . ... ...
ROW 75 : ... .. . ... ... ... : ... .. . ... ... ... : ... .. . ... : ... .. . ... : ... .. . ... ...
ROW 76 : ... .. . ... ... ... : ... .. . ... ... ... : ... .. . ... : ... .. . ... : ... .. . ... ...
ROW 77 : ... .. . ... ... ... : ... .. . ... ... ... : --- .. . ... : ... .. . ... : ... .. . ... ...
ROW 78 : ... .. . ... ... ... : ... .. . ... ... ... : G-2 00 . ... : ... .. C ... : ... .. . ... ...
ROW 79 : ... .. . ... ... ... : ... .. . ... ... ... : ... .. . ... : ... .. 8 ... : ... .. . ... ...
ROW 7A : ... .. . ... ... ... : ... .. . ... ... ... : ... .. . ... : ... .. 4 ... : ... .. . ... ...
ROW 7B : ... .. . ... ... ... : ... .. . ... ... ... : ... .. . ... : ... .. 0 ... : ... .. . ... ...
ROW 7C : ... .. . ... ... ... : ... .. . ... ... ... : ... .. . ... : ... .. . ... : ... .. . ... ...
ROW 7D : ... .. . ... ... ... : ... .. . ... ... ... : ... .. . ... : ... .. . ... : ... .. . ... ...
ROW 7E : ... .. . ... ... ... : ... .. . ... ... ... : ... .. . ... : ... .. . ... : ... .. . ... ...
ROW 7F : ... .. . ... ... ... : ... .. . ... ... ... : --- .. . ... : ... .. . ... : ... .. . ... ...

PATTERN 09
ROW 00 : E-3 00 4 P80 ... ... : C-4 00 D P81 ... ... : C-2 00 . P7F : ... .. C ... : ... .. . ... ...
ROW 01 : ... .. 5 ... ... ... : ... .. 9 ... ... ... : ... .. . ... : ... .. 8 ... : ... .. . ... ...
ROW 02 : ... .. 6 ... ... ... : ... .. 7 ... ... ... : ... .. . ... : ... .. 4 ... : ... .. . ... ...
ROW 03 : ... .. 7 ... ... ... : ... .. 6 ... ... ... : ... .. . ... : ... .. 0 ... : ... .. . ... ...
ROW 04 : ... .. 8 ... ... ... : ... .. 5 ... ... ... : ... .. . ... : ... .. . ... : ... .. . ... ...
ROW 05 : ... .. 7 ... ... ... : ... .. . ... ... ... : ... .. . ... : ... .. . ... : ... .. . ... ...
ROW 06 : ... .. 6 ... ... ... : ... .. . ... ... ... : ... .. . ... : ... .. . ... : ... .. . ... ...
ROW 07 : ... .. 5 ... ... ... : ... .. 4 ... ... ... : --- .. . ... : ... .. . ... : ... .. . ... ...
ROW 08 : ... .. 4 ... ... ... : ... .. . ... ... ... : G-2 00 . P80 : ... .. . ... : ... .. . ... ...
ROW 09 : ... .. . ... ... ... : ... .. . ... ... ... : ... .. . ... : ... .. . ... : ... .. . ... ...
ROW 0A : ... .. . ... ... ... : ... .. . ... ... ... : ... .. . ... : ... .. . ... : ... .. . ... ...
ROW 0B : ... .. . ... ... ... : ... .. . ... ... ... : ... .. . ... : ... .. . ... : ... .. . ... ...
ROW 0C : ... .. . ... ... ... : ... .. . ... ... ... : ... .. . ... : ... .. . ... : ... .. . ... ...
ROW 0D : ... .. . ... ... ... : ... .. . ... ... ... : ... .. . ... : ... .. . ... : ... .. . ... ...
ROW 0E : ... .. . ... ... ... : ... .. . ... ... ... : ... .. . ... : ... .. . ... : ... .. . ... ...
ROW 0F : ... .. . ... ... ... : ... .. . ... ... ... : --- .. . ... : ... .. . ... : ... .. . ... ...
ROW 10 : ... .. . ... ... ... : ... .. . ... ... ... : C-2 00 . P7F : ... .. . ... : ... .. . ... ...
ROW 11 : ... .. . ... ... ... : ... .. . ... ... ... : ... .. . ... : ... .. . ... : ... .. . ... ...
ROW 12 : ... .. . ... ... ... : ... .. . ... ... ... : ... .. . ... : ... .. . ... : ... .. . ... ...
ROW 13 : ... .. . ... ... ... : ... .. . ... ... ... : ... .. . ... : ... .. . ... : ... .. . ... ...
ROW 14 : ... .. . ... ... ... : ... .. . ... ... ... : ... .. . ... : ... .. . ... : ... .. . ... ...
ROW 15 : ... .. . ... ... ... : ... .. . ... ... ... : ... .. . ... : ... .. . ... : ... .. . ... ...
ROW 16 : ... .. . ... ... ... : ... .. . ... ... ... : ... .. . ... : ... .. . ... : ... .. . ... ...
ROW 17 : ... .. . ... ... ... : ... .. . ... ... ... : --- .. . ... : ... .. . ... : ... .. . ... ...
ROW 18 : ... .. . ... ... ... : ... .. . ... ... ... : C-2 00 . ... : ... .. C ... : ... .. . ... ...
ROW 19 : ... .. . ... ... ... : ... .. . ... ... ... : ... .. . ... : ... .. 8 ... : ... .. . ... ...
ROW 1A : ... .. . ... ... ... : ... .. . ... ... ... : ... .. . ... : ... .. 4 ... : ... .. . ... ...
ROW 1B : ... .. . ... ... ... : ... .. . ... ... ... : ... .. . ... : ... .. 0 ... : ... .. . ... ...
ROW 1C : ... .. . ... ... ... : ... .. . ... ... ... : ... .. . ... : ... .. . ... : ... .. . ... ...
ROW 1D : ... .. . ... ... ... : ... .. . ... ... ... : ... .. . ... : ... .. . ... : ... .. . ... ...
ROW 1E : ... .. . ... ... ... : ... .. . ... ... ... : ... .. . ... : ... .. . ... : ... .. . ... ...
ROW 1F : ... .. . ... ... ... : ... .. . ... ... ... : ... .. . ... : ... .. . ... : ... .. . ... ...
ROW 20 : ... .. . ... ... ... : ... .. . ... ... ... : ... .. . ... : ... .. . ... : ... .. . ... ...
ROW 21 : ... .. . ... ... ... : ... .. . ... ... ... : ... .. . ... : ... .. . ... : ... .. . ... ...
ROW 22 : ... .. . ... ... ... : ... .. . ... ... ... : ... .. . ... : ... .. . ... : ... .. . ... ...
ROW 23 : ... .. . ... ... ... : ... .. . ... ... ... : ... .. . ... : ... .. . ... : ... .. . ... ...
ROW 24 : ... .. . ... ... ... : ... .. . ... ... ... : ... .. . ... : ... .. . ... : ... .. . ... ...
ROW 25 : ... .. . ... ... ... : ... .. . ... ... ... : ... .. . ... : ... .. . ... : ... .. . ... ...
ROW 26 : ... .. . ... ... ... : ... .. . ... ... ... : ... .. . ... : ... .. . ... : ... .. . ... ...
ROW 27 : ... .. . ... ... ... : ... .. . ... ... ... : --- .. . ... : ... .. . ... : ... .. . ... ...
ROW 28 : ... .. . ... ... ... : ... .. . ... ... ... : ... .. . ... : ... .. . ... : ... .. . ... ...
ROW 29 : ... .. . ... ... ... : ... .. . ... ... ... : ... .. . ... : ... .. . ... : ... .. . ... ...
ROW 2A : ... .. . ... ... ... : ... .. . ... ... ... : ... .. . ... : ... .. . ... : ... .. . ... ...
ROW 2B : ... .. . ... ... ... : ... .. . ... ... ... : ... .. . ... : ... .. . ... : ... .. . ... ...
ROW 2C : ... .. . ... ... ... : ... .. . ... ... ... : ... .. . ... : ... .. . ... : ... .. . ... ...
ROW 2D : ... .. . ... ... ... : ... .. . ... ... ... : ... .. . ... : ... .. . ... : ... .. . ... ...
ROW 2E : ... .. . ... ... ... : ... .. . ... ... ... : ... .. . ... : ... .. . ... : ... .. . ... ...
ROW 2F : ... .. . ... ... ... : ... .. . ... ... ... : ... .. . ... : ... .. . ... : ... .. . ... ...
ROW 30 : ... .. . ... ... ... : ... .. . ... ... ... : C-2 00 . ... : ... .. C ... : ... .. . ... ...
ROW 31 : ... .. . ... ... ... : ... .. . ... ... ... : ... .. . ... : ... .. 8 ... : ... .. . ... ...
ROW 32 : ... .. . ... ... ... : ... .. . ... ... ... : ... .. . ... : ... .. 4 ... : ... .. . ... ...
ROW 33 : ... .. . ... ... ... : ... .. . ... ... ... : ... .. . ... : ... .. 0 ... : ... .. . ... ...
ROW 34 : ... .. . ... ... ... : ... .. . ... ... ... : ... .. . ... : ... .. . ... : ... .. . ... ...
ROW 35 : ... .. . ... ... ... : ... .. . ... ... ... : ... .. . ... : ... .. . ... : ... .. . ... ...
ROW 36 : ... .. . ... ... ... : ... .. . ... ... ... : ... .. . ... : ... .. . ... : ... .. . ... ...
ROW 37 : ... .. . ... ... ... : ... .. . ... ... ... : --- .. . ... : ... .. . ... : ... .. . ... ...
ROW 38 : ... .. . ... ... ... : ... .. . ... ... ... : G-2 00 . P80 : ... .. . ... : ... .. . ... ...
ROW 39 : ... .. . ... ... ... : ... .. . ... ... ... : ... .. . ... : ... .. . ... : ... .. . ... ...
ROW 3A : ... .. . ... ... ... : ... .. . ... ... ... : ... .. . ... : ... .. . ... : ... .. . ... ...
ROW 3B : ... .. . ... ... ... : ... .. . ... ... ... : ... .. . ... : ... .. . ... : ... .. . ... ...
ROW 3C : ... .. . ... ... ... : ... .. . ... ... ... : ... .. . ... : ... .. . ... : ... .. . ... ...
ROW 3D : ... .. . ... ... ... : ... .. . ... ... ... : ... .. . ... : ... .. . ... : ... .. . ... ...
ROW 3E : ... .. . ... ... ... : ... .. . ... ... ... : ... .. . ... : ... .. . ... : ... .. . ... ...
ROW 3F : ... .. . ... ... ... : ... .. . ... ... ... : --- .. . ... : ... .. . ... : ... .. . ... ...
ROW 40 : ... .. . ... ... ... : ... .. . ... ... ... : C-2 00 . P7F : ... .. . ... : ... .. . ... ...
ROW 41 : ... .. . ... ... ... : ... .. . ... ... ... : ... .. . ... : ... .. . ... : ... .. . ... ...
ROW 42 : ... .. . ... ... ... : ... .. . ... ... ... : ... .. . ... : ... .. . ... : ... .. . ... ...
ROW 43 : ... .. . ... ... ... : ... .. . ... ... ... : ... .. . ... : ... .. . ... : ... .. . ... ...
ROW 44 : ... .. . ... ... ... : ... .. . ... ... ... : ... .. . ... : ... .. . ... : ... .. . ... ...
ROW 45 : ... .. . ... ... ... : ... .. . ... ... ... : ... .. . ... : ... .. . ... : ... .. . ... ...
ROW 46 : ... .. . ... ... ... : ... .. . ... ... ... : ... .. . ... : ... .. . ... : ... .. . ... ...
ROW 47 : ... .. . ... ... ... : ... .. . ... ... ... : --- .. . ... : ... .. . ... : ... .. . ... ...
ROW 48 : C-3 00 4 P80 ... ... : G-3 00 D P80 ... ... : C-2 00 . ... : ... .. C ... : ... .. . ... ...
ROW 49 : ... .. 5 ... ... ... : ... .. 9 ... ... ... : ... .. . ... : ... .. 8 ... : ... .. . ... ...
ROW 4A : ... .. 6 ... ... ... : ... .. 7 ... ... ... : ... .. . ... : ... .. 4 ... : ... .. . ... ...
ROW 4B : ... .. 7 ... ... ... : ... .. 6 ... ... ... : ... .. . ... : ... .. 0 ... : ... .. . ... ...
ROW 4C : ... .. 8 ... ... ... : ... .. 5 ... ... ... : ... .. . ... : ... .. . ... : ... .. . ... ...
ROW 4D : ... .. 7 ... ... ... : ... .. . ... ... ... : ... .. . ... : ... .. . ... : ... .. . ... ...
ROW 4E : ... .. 6 ... ... ... : ... .. . ... ... ... : ... .. . ... : ... .. . ... : ... .. . ... ...
ROW 4F : ... .. 5 ... ... ... : ... .. 4 ... ... ... : ... .. . ... : ... .. . ... : ... .. . ... ...
ROW 50 : G-2 00 4 P80 ... ... : ... .. . ... ... ... : ... .. . ... : ... .. C ... : ... .. . ... ...
ROW 51 : ... .. 5 ... ... ... : ... .. . ... ... ... : ... .. . ... : ... .. 8 ... : ... .. . ... ...
ROW 52 : ... .. 6 ... ... ... : ... .. . ... ... ... : ... .. . ... : ... .. 4 ... : ... .. . ... ...
ROW 53 : ... .. 7 ... ... ... : ... .. . ... ... ... : ... .. . ... : ... .. 0 ... : ... .. . ... ...
ROW 54 : ... .. 8 ... ... ... : ... .. . ... ... ... : ... .. . ... : ... .. . ... : ... .. . ... ...
ROW 55 : ... .. 7 ... ... ... : ... .. . ... ... ... : ... .. . ... : ... .. . ... : ... .. . ... ...
ROW 56 : ... .. 6 ... ... ... : ... .. . ... ... ... : ... .. . ... : ... .. . ... : ... .. . ... ...
ROW 57 : ... .. 5 ... ... ... : ... .. . ... ... ... : --- .. . ... : ... .. . ... : ... .. . ... ...
ROW 58 : C-3 00 4 P80 ... ... : ... .. . ... ... ... : ... .. . ... : ... .. C ... : ... .. . ... ...
ROW 59 : ... .. 5 ... ... ... : ... .. . ... ... ... : ... .. . ... : ... .. 8 ... : ... .. . ... ...
ROW 5A : ... .. 6 ... ... ... : ... .. . ... ... ... : ... .. . ... : ... .. 4 ... : ... .. . ... ...
ROW 5B : ... .. 7 ... ... ... : ... .. . ... ... ... : ... .. . ... : ... .. 0 ... : ... .. . ... ...
ROW 5C : ... .. 8 ... ... ... : ... .. . ... ... ... : ... .. . ... : ... .. . ... : ... .. . ... ...
ROW 5D : ... .. 7 ... ... ... : ... .. . ... ... ... : ... .. . ... : ... .. . ... : ... .. . ... ...
ROW 5E : ... .. 6 ... ... ... : ... .. . ... ... ... : ... .. . ... : ... .. . ... : ... .. . ... ...
ROW 5F : ... .. 5 ... ... ... : ... .. . ... ... ... : ... .. . ... : ... .. . ... : ... .. . ... ...
ROW 60 : F-3 00 4 P80 ... ... : A#3 00 D P81 ... ... : C-2 00 . ... : ... .. C ... : ... .. . ... ...
ROW 61 : ... .. 5 ... ... ... : ... .. 9 ... ... ... : ... .. . ... : ... .. 8 ... : ... .. . ... ...
ROW 62 : ... .. 6 ... ... ... : ... .. 7 ... ... ... : ... .. . ... : ... .. 4 ... : ... .. . ... ...
ROW 63 : ... .. 7 ... ... ... : ... .. 6 ... ... ... : ... .. . ... : ... .. 0 ... : ... .. . ... ...
ROW 64 : ... .. 8 ... ... ... : ... .. 5 ... ... ... : ... .. . ... : ... .. . ... : ... .. . ... ...
ROW 65 : ... .. 7 ... ... ... : ... .. . ... ... ... : ... .. . ... : ... .. . ... : ... .. . ... ...
ROW 66 : ... .. 6 ... ... ... : ... .. . ... ... ... : ... .. . ... : ... .. . ... : ... .. . ... ...
ROW 67 : ... .. 5 ... ... ... : ... .. 4 ... ... ... : --- .. . ... : ... .. . ... : ... .. . ... ...
ROW 68 : ... .. 4 ... ... ... : ... .. . ... ... ... : G-2 00 . P80 : ... .. . ... : ... .. . ... ...
ROW 69 : ... .. . ... ... ... : ... .. . ... ... ... : ... .. . ... : ... .. . ... : ... .. . ... ...
ROW 6A : ... .. . ... ... ... : ... .. . ... ... ... : ... .. . ... : ... .. . ... : ... .. . ... ...
ROW 6B : ... .. . ... ... ... : ... .. . ... ... ... : ... .. . ... : ... .. . ... : ... .. . ... ...
ROW 6C : ... .. . ... ... ... : ... .. . ... ... ... : ... .. . ... : ... .. . ... : ... .. . ... ...
ROW 6D : ... .. . ... ... ... : ... .. . ... ... ... : ... .. . ... : ... .. . ... : ... .. . ... ...
ROW 6E : ... .. . ... ... ... : ... .. . ... ... ... : ... .. . ... : ... .. . ... : ... .. . ... ...
ROW 6F : ... .. . ... ... ... : ... .. . ... ... ... : --- .. . ... : ... .. . ... : ... .. . ... ...
ROW 70 : ... .. . ... ... ... : ... .. . ... ... ... : C-2 00 . P7F : ... .. . ... : ... .. . ... ...
ROW 71 : ... .. . ... ... ... : ... .. . ... ... ... : ... .. . ... : ... .. . ... : ... .. . ... ...
ROW 72 : ... .. . ... ... ... : ... .. . ... ... ... : ... .. . ... : ... .. . ... : ... .. . ... ...
ROW 73 : ... .. . ... ... ... : ... .. . ... ... ... : ... .. . ... : ... .. . ... : ... .. . ... ...
ROW 74 : ... .. . ... ... ... : ... .. . ... ... ... : ... .. . ... : ... .. . ... : ... .. . ... ...
ROW 75 : ... .. . ... ... ... : ... .. . ... ... ... : ... .. . ... : ... .. . ... : ... .. . ... ...
ROW 76 : ... .. . ... ... ... : ... .. . ... ... ... : ... .. . ... : ... .. . ... : ... .. . ... ...
ROW 77 : ... .. . ... ... ... : ... .. . ... ... ... : --- .. . ... : ... .. . ... : ... .. . ... ...
ROW 78 : ... .. . ... ... ... : ... .. . ... ... ... : C-2 00 . ... : ... .. C ... : ... .. . ... ...
ROW 79 : ... .. . ... ... ... : ... .. . ... ... ... : ... .. . ... : ... .. 8 ... : ... .. . ... ...
ROW 7A : ... .. . ... ... ... : ... .. . ... ... ... : ... .. . ... : ... .. 4 ... : ... .. . ... ...
ROW 7B : ... .. . ... ... ... : ... .. . ... ... ... : ... .. . ... : ... .. 0 ... : ... .. . ... ...
ROW 7C : ... .. . ... ... ... : ... .. . ... ... ... : ... .. . ... : ... .. . ... : ... .. . ... ...
ROW 7D : ... .. . ... ... ... : ... .. . ... ... ... : ... .. . ... : ... .. . ... : ... .. . ... ...
ROW 7E : ... .. . ... ... ... : ... .. . ... ... ... : ... .. . ... : ... .. . ... : ... .. . ... ...
ROW 7F : ... .. . ... ... ... : ... .. . ... ... ... : ... .. . ... : ... .. . ... : ... .. . ... ...

PATTERN 0A
ROW 00 : ... .. . ... ... ... : ... .. . ... ... ... : ... .. . ... : ... .. . ... : ... .. . ... ...
ROW 01 : ... .. . ... ... ... : ... .. . ... ... ... : ... .. . ... : ... .. . ... : ... .. . ... ...
ROW 02 : ... .. . ... ... ... : ... .. . ... ... ... : ... .. . ... : ... .. . ... : ... .. . ... ...
ROW 03 : ... .. . ... ... ... : ... .. . ... ... ... : ... .. . ... : ... .. . ... : ... .. . ... ...
ROW 04 : ... .. . ... ... ... : ... .. . ... ... ... : ... .. . ... : ... .. . ... : ... .. . ... ...
ROW 05 : ... .. . ... ... ... : ... .. . ... ... ... : ... .. . ... : ... .. . ... : ... .. . ... ...
ROW 06 : ... .. . ... ... ... : ... .. . ... ... ... : ... .. . ... : ... .. . ... : ... .. . ... ...
ROW 07 : ... .. . ... ... ... : ... .. . ... ... ... : --- .. . ... : ... .. . ... : ... .. . ... ...
ROW 08 : ... .. . ... ... ... : ... .. . ... ... ... : ... .. . ... : ... .. . ... : ... .. . ... ...
ROW 09 : ... .. . ... ... ... : ... .. . ... ... ... : ... .. . ... : ... .. . ... : ... .. . ... ...
ROW 0A : ... .. . ... ... ... : ... .. . ... ... ... : ... .. . ... : ... .. . ... : ... .. . ... ...
ROW 0B : ... .. . ... ... ... : ... .. . ... ... ... : ... .. . ... : ... .. . ... : ... .. . ... ...
ROW 0C : ... .. . ... ... ... : ... .. . ... ... ... : ... .. . ... : ... .. . ... : ... .. . ... ...
ROW 0D : ... .. . ... ... ... : ... .. . ... ... ... : ... .. . ... : ... .. . ... : ... .. . ... ...
ROW 0E : ... .. . ... ... ... : ... .. . ... ... ... : ... .. . ... : ... .. . ... : ... .. . ... ...
ROW 0F : ... .. . ... ... ... : ... .. . ... ... ... : ... .. . ... : ... .. . ... : ... .. . ... ...
ROW 10 : D-3 00 4 P80 ... ... : ... .. . ... ... ... : C-2 00 . ... : ... .. C ... : ... .. . ... ...
ROW 11 : ... .. 5 ... ... ... : ... .. . ... ... ... : ... .. . ... : ... .. 8 ... : ... .. . ... ...
ROW 12 : ... .. 6 ... ... ... : ... .. . ... ... ... : ... .. . ... : ... .. 4 ... : ... .. . ... ...
ROW 13 : ... .. 7 ... ... ... : ... .. . ... ... ... : ... .. . ... : ... .. 0 ... : ... .. . ... ...
ROW 14 : ... .. 8 ... ... ... : ... .. . ... ... ... : ... .. . ... : ... .. . ... : ... .. . ... ...
ROW 15 : ... .. 7 ... ... ... : ... .. . ... ... ... : ... .. . ... : ... .. . ... : ... .. . ... ...
ROW 16 : ... .. 6 ... ... ... : ... .. . ... ... ... : ... .. . ... : ... .. . ... : ... .. . ... ...
ROW 17 : ... .. 5 ... ... ... : ... .. . ... ... ... : --- .. . ... : ... .. . ... : ... .. . ... ...
ROW 18 : ... .. 4 ... ... ... : ... .. . ... ... ... : G-2 00 . P80 : ... .. . ... : ... .. . ... ...
ROW 19 : ... .. . ... ... ... : ... .. . ... ... ... : ... .. . ... : ... .. . ... : ... .. . ... ...
ROW 1A : ... .. . ... ... ... : ... .. . ... ... ... : ... .. . ... : ... .. . ... : ... .. . ... ...
ROW 1B : ... .. . ... ... ... : ... .. . ... ... ... : ... .. . ... : ... .. . ... : ... .. . ... ...
ROW 1C : ... .. . ... ... ... : ... .. . ... ... ... : ... .. . ... : ... .. . ... : ... .. . ... ...
ROW 1D : ... .. . ... ... ... : ... .. . ... ... ... : ... .. . ... : ... .. . ... : ... .. . ... ...
ROW 1E : ... .. . ... ... ... : ... .. . ... ... ... : ... .. . ... : ... .. . ... : ... .. . ... ...
ROW 1F : ... .. . ... ... ... : ... .. . ... ... ... : --- .. . ... : ... .. . ... : ... .. . ... ...
ROW 20 : ... .. . ... ... ... : ... .. . ... ... ... : C-2 00 . P7F : ... .. . ... : ... .. . ... ...
ROW 21 : ... .. . ... ... ... : ... .. . ... ... ... : ... .. . ... : ... .. . ... : ... .. . ... ...
ROW 22 : ... .. . ... ... ... : ... .. . ... ... ... : ... .. . ... : ... .. . ... : ... .. . ... ...
ROW 23 : ... .. . ... ... ... : ... .. . ... ... ... : ... .. . ... : ... .. . ... : ... .. . ... ...
ROW 24 : ... .. . ... ... ... : ... .. . ... ... ... : ... .. . ... : ... .. . ... : ... .. . ... ...
ROW 25 : ... .. . ... ... ... : ... .. . ... ... ... : ... .. . ... : ... .. . ... : ... .. . ... ...
ROW 26 : ... .. . ... ... ... : ... .. . ... ... ... : ... .. . ... : ... .. . ... : ... .. . ... ...
ROW 27 : ... .. . ... ... ... : ... .. . ... ... ... : --- .. . ... : ... .. . ... : ... .. . ... ...
ROW 28 : ... .. . ... ... ... : A-3 00 D P80 ... ... : C-2 00 . ... : ... .. C ... : ... .. . ... ...
ROW 29 : ... .. . ... ... ... : ... .. 9 ... ... ... : ... .. . ... : ... .. 8 ... : ... .. . ... ...
ROW 2A : ... .. . ... ... ... : ... .. 7 ... ... ... : ... .. . ... : ... .. 4 ... : ... .. . ... ...
ROW 2B : ... .. . ... ... ... : ... .. 6 ... ... ... : ... .. . ... : ... .. 0 ... : ... .. . ... ...
ROW 2C : ... .. . ... ... ... : ... .. 5 ... ... ... : ... .. . ... : ... .. . ... : ... .. . ... ...
ROW 2D : ... .. . ... ... ... : ... .. . ... ... ... : ... .. . ... : ... .. . ... : ... .. . ... ...
ROW 2E : ... .. . ... ... ... : A#3 00 D P81 ... ... : ... .. . ... : ... .. . ... : ... .. . ... ...
ROW 2F : ... .. . ... ... ... : ... .. 9 ... ... ... : ... .. . ... : ... .. . ... : ... .. . ... ...
ROW 30 : ... .. . ... ... ... : ... .. 7 ... ... ... : ... .. . ... : ... .. C ... : ... .. . ... ...
ROW 31 : ... .. . ... ... ... : ... .. 6 ... ... ... : ... .. . ... : ... .. 8 ... : ... .. . ... ...
ROW 32 : ... .. . ... ... ... : ... .. 5 ... ... ... : ... .. . ... : ... .. 4 ... : ... .. . ... ...
ROW 33 : ... .. . ... ... ... : ... .. . ... ... ... : ... .. . ... : ... .. 0 ... : ... .. . ... ...
ROW 34 : ... .. . ... ... ... : A-3 00 D P80 ... ... : ... .. . ... : ... .. . ... : ... .. . ... ...
ROW 35 : ... .. . ... ... ... : ... .. 9 ... ... ... : ... .. . ... : ... .. . ... : ... .. . ... ...
ROW 36 : ... .. . ... ... ... : ... .. 7 ... ... ... : ... .. . ... : ... .. . ... : ... .. . ... ...
ROW 37 : ... .. . ... ... ... : ... .. 6 ... ... ... : --- .. . ... : ... .. . ... : ... .. . ... ...
ROW 38 : ... .. . ... ... ... : ... .. 5 ... ... ... : ... .. . ... : ... .. C ... : ... .. . ... ...
ROW 39 : ... .. . ... ... ... : ... .. . ... ... ... : ... .. . ... : ... .. 8 ... : ... .. . ... ...
ROW 3A : ... .. . ... ... ... : F-3 00 D P80 ... ... : ... .. . ... : ... .. 4 ... : ... .. . ... ...
ROW 3B : ... .. . ... ... ... : ... .. 9 ... ... ... : ... .. . ... : ... .. 0 ... : ... .. . ... ...
ROW 3C : ... .. . ... ... ... : ... .. 7 ... ... ... : ... .. . ... : ... .. . ... : ... .. . ... ...
ROW 3D : ... .. . ... ... ... : ... .. 6 ... ... ... : ... .. . ... : ... .. . ... : ... .. . ... ...
ROW 3E : ... .. . ... ... ... : ... .. 5 ... ... ... : ... .. . ... : ... .. . ... : ... .. . ... ...
ROW 3F : ... .. . ... ... ... : ... .. . ... ... ... : ... .. . ... : ... .. . ... : ... .. . ... ...
ROW 40 : E-3 00 4 P80 ... ... : C-4 00 D P81 ... ... : C-2 00 . ... : ... .. C ... : ... .. . ... ...
ROW 41 : ... .. 5 ... ... ... : ... .. 9 ... ... ... : ... .. . ... : ... .. 8 ... : ... .. . ... ...
ROW 42 : ... .. 6 ... ... ... : ... .. 7 ... ... ... : ... .. . ... : ... .. 4 ... : ... .. . ... ...
ROW 43 : ... .. 7 ... ... ... : ... .. 6 ... ... ... : ... .. . ... : ... .. 0 ... : ... .. . ... ...
ROW 44 : ... .. 8 ... ... ... : ... .. 5 ... ... ... : ... .. . ... : ... .. . ... : ... .. . ... ...
ROW 45 : ... .. 7 ... ... ... : ... .. . ... ... ... : ... .. . ... : ... .. . ... : ... .. . ... ...
ROW 46 : ... .. 6 ... ... ... : ... .. . ... ... ... : ... .. . ... : ... .. . ... : ... .. . ... ...
ROW 47 : ... .. 5 ... ... ... : ... .. 4 ... ... ... : --- .. . ... : ... .. . ... : ... .. . ... ...
ROW 48 : ... .. 4 ... ... ... : ... .. . ... ... ... : G-2 00 . P80 : ... .. . ... : ... .. . ... ...
ROW 49 : ... .. . ... ... ... : ... .. . ... ... ... : ... .. . ... : ... .. . ... : ... .. . ... ...
ROW 4A : ... .. . ... ... ... : ... .. . ... ... ... : ... .. . ... : ... .. . ... : ... .. . ... ...
ROW 4B : ... .. . ... ... ... : ... .. . ... ... ... : ... .. . ... : ... .. . ... : ... .. . ... ...
ROW 4C : ... .. . ... ... ... : ... .. . ... ... ... : ... .. . ... : ... .. . ... : ... .. . ... ...
ROW 4D : ... .. . ... ... ... : ... .. . ... ... ... : ... .. . ... : ... .. . ... : ... .. . ... ...
ROW 4E : ... .. . ... ... ... : ... .. . ... ... ... : ... .. . ... : ... .. . ... : ... .. . ... ...
ROW 4F : ... .. . ... ... ... : ... .. . ... ... ... : --- .. . ... : ... .. . ... : ... .. . ... ...
ROW 50 : ... .. . ... ... ... : ... .. . ... ... ... : C-2 00 . P7F : ... .. . ... : ... .. . ... ...
ROW 51 : ... .. . ... ... ... : ... .. . ... ... ... : ... .. . ... : ... .. . ... : ... .. . ... ...
ROW 52 : ... .. . ... ... ... : ... .. . ... ... ... : ... .. . ... : ... .. . ... : ... .. . ... ...
ROW 53 : ... .. . ... ... ... : ... .. . ... ... ... : ... .. . ... : ... .. . ... : ... .. . ... ...
ROW 54 : ... .. . ... ... ... : ... .. . ... ... ... : ... .. . ... : ... .. . ... : ... .. . ... ...
ROW 55 : ... .. . ... ... ... : ... .. . ... ... ... : ... .. . ... : ... .. . ... : ... .. . ... ...
ROW 56 : ... .. . ... ... ... : ... .. . ... ... ... : ... .. . ... : ... .. . ... : ... .. . ... ...
ROW 57 : ... .. . ... ... ... : ... .. . ... ... ... : --- .. . ... : ... .. . ... : ... .. . ... ...
ROW 58 : ... .. . ... ... ... : ... .. . ... ... ... : C-2 00 . ... : ... .. C ... : ... .. . ... ...
ROW 59 : ... .. . ... ... ... : ... .. . ... ... ... : ... .. . ... : ... .. 8 ... : ... .. . ... ...
ROW 5A : ... .. . ... ... ... : ... .. . ... ... ... : ... .. . ... : ... .. 4 ... : ... .. . ... ...
ROW 5B : ... .. . ... ... ... : ... .. . ... ... ... : ... .. . ... : ... .. 0 ... : ... .. . ... ...
ROW 5C : ... .. . ... ... ... : ... .. . ... ... ... : ... .. . ... : ... .. . ... : ... .. . ... ...
ROW 5D : ... .. . ... ... ... : ... .. . ... ... ... : ... .. . ... : ... .. . ... : ... .. . ... ...
ROW 5E : ... .. . ... ... ... : ... .. . ... ... ... : ... .. . ... : ... .. . ... : ... .. . ... ...
ROW 5F : ... .. . ... ... ... : ... .. . ... ... ... : ... .. . ... : ... .. . ... : ... .. . ... ...
ROW 60 : ... .. . ... ... ... : ... .. . ... ... ... : ... .. . ... : ... .. . ... : ... .. . ... ...
ROW 61 : ... .. . ... ... ... : ... .. . ... ... ... : ... .. . ... : ... .. . ... : ... .. . ... ...
ROW 62 : ... .. . ... ... ... : ... .. . ... ... ... : ... .. . ... : ... .. . ... : ... .. . ... ...
ROW 63 : ... .. . ... ... ... : ... .. . ... ... ... : ... .. . ... : ... .. . ... : ... .. . ... ...
ROW 64 : ... .. . ... ... ... : ... .. . ... ... ... : ... .. . ... : ... .. . ... : ... .. . ... ...
ROW 65 : ... .. . ... ... ... : ... .. . ... ... ... : ... .. . ... : ... .. . ... : ... .. . ... ...
ROW 66 : ... .. . ... ... ... : ... .. . ... ... ... : ... .. . ... : ... .. . ... : ... .. . ... ...
ROW 67 : ... .. . ... ... ... : ... .. . ... ... ... : --- .. . ... : ... .. . ... : ... .. . ... ...
ROW 68 : ... .. . ... ... ... : ... .. . ... ... ... : ... .. . ... : ... .. . ... : ... .. . ... ...
ROW 69 : ... .. . ... ... ... : ... .. . ... ... ... : ... .. . ... : ... .. . ... : ... .. . ... ...
ROW 6A : ... .. . ... ... ... : ... .. . ... ... ... : ... .. . ... : ... .. . ... : ... .. . ... ...
ROW 6B : ... .. . ... ... ... : ... .. . ... ... ... : ... .. . ... : ... .. . ... : ... .. . ... ...
ROW 6C : ... .. . ... ... ... : ... .. . ... ... ... : ... .. . ... : ... .. . ... : ... .. . ... ...
ROW 6D : ... .. . ... ... ... : ... .. . ... ... ... : ... .. . ... : ... .. . ... : ... .. . ... ...
ROW 6E : ... .. . ... ... ... : ... .. . ... ... ... : ... .. . ... : ... .. . ... : ... .. . ... ...
ROW 6F : ... .. . ... ... ... : ... .. . ... ... ... : ... .. . ... : ... .. . ... : ... .. . ... ...
ROW 70 : ... .. . ... ... ... : ... .. . ... ... ... : C-2 00 . ... : ... .. C ... : ... .. . ... ...
ROW 71 : ... .. . ... ... ... : ... .. . ... ... ... : ... .. . ... : ... .. 8 ... : ... .. . ... ...
ROW 72 : ... .. . ... ... ... : ... .. . ... ... ... : ... .. . ... : ... .. 4 ... : ... .. . ... ...
ROW 73 : ... .. . ... ... ... : ... .. . ... ... ... : ... .. . ... : ... .. 0 ... : ... .. . ... ...
ROW 74 : ... .. . ... ... ... : ... .. . ... ... ... : ... .. . ... : ... .. . ... : ... .. . ... ...
ROW 75 : ... .. . ... ... ... : ... .. . ... ... ... : ... .. . ... : ... .. . ... : ... .. . ... ...
ROW 76 : ... .. . ... ... ... : ... .. . ... ... ... : ... .. . ... : ... .. . ... : ... .. . ... ...
ROW 77 : ... .. . ... ... ... : ... .. . ... ... ... : --- .. . ... : ... .. . ... : ... .. . ... ...
ROW 78 : ... .. . ... ... ... : ... .. . ... ... ... : G-2 00 . P80 : ... .. . ... : ... .. . ... ...
ROW 79 : ... .. . ... ... ... : ... .. . ... ... ... : ... .. . ... : ... .. . ... : ... .. . ... ...
ROW 7A : ... .. . ... ... ... : ... .. . ... ... ... : ... .. . ... : ... .. . ... : ... .. . ... ...
ROW 7B : ... .. . ... ... ... : ... .. . ... ... ... : ... .. . ... : ... .. . ... : ... .. . ... ...
ROW 7C : ... .. . ... ... ... : ... .. . ... ... ... : ... .. . ... : ... .. . ... : ... .. . ... ...
ROW 7D : ... .. . ... ... ... : ... .. . ... ... ... : ... .. . ... : ... .. . ... : ... .. . ... ...
ROW 7E : ... .. . ... ... ... : ... .. . ... ... ... : ... .. . ... : ... .. . ... : ... .. . ... ...
ROW 7F : ... .. . ... ... ... : ... .. . ... ... ... : --- .. . ... : ... .. . ... : ... .. . ... ...

PATTERN 0B
ROW 00 : ... .. . ... ... ... : ... .. . ... ... ... : C-2 00 . P7F : ... .. . ... : ... .. . ... ...
ROW 01 : ... .. . ... ... ... : ... .. . ... ... ... : ... .. . ... : ... .. . ... : ... .. . ... ...
ROW 02 : ... .. . ... ... ... : ... .. . ... ... ... : ... .. . ... : ... .. . ... : ... .. . ... ...
ROW 03 : ... .. . ... ... ... : ... .. . ... ... ... : ... .. . ... : ... .. . ... : ... .. . ... ...
ROW 04 : ... .. . ... ... ... : ... .. . ... ... ... : ... .. . ... : ... .. . ... : ... .. . ... ...
ROW 05 : ... .. . ... ... ... : ... .. . ... ... ... : ... .. . ... : ... .. . ... : ... .. . ... ...
ROW 06 : ... .. . ... ... ... : ... .. . ... ... ... : ... .. . ... : ... .. . ... : ... .. . ... ...
ROW 07 : ... .. . ... ... ... : ... .. . ... ... ... : --- .. . ... : ... .. . ... : ... .. . ... ...
ROW 08 : C-3 00 4 P80 ... ... : G-3 00 D P80 ... ... : C-2 00 . ... : ... .. C ... : ... .. . ... ...
ROW 09 : ... .. 5 ... ... ... : ... .. 9 ... ... ... : ... .. . ... : ... .. 8 ... : ... .. . ... ...
ROW 0A : ... .. 6 ... ... ... : ... .. 7 ... ... ... : ... .. . ... : ... .. 4 ... : ... .. . ... ...
ROW 0B : ... .. 7 ... ... ... : ... .. 6 ... ... ... : ... .. . ... : ... .. 0 ... : ... .. . ... ...
ROW 0C : ... .. 8 ... ... ... : ... .. 5 ... ... ... : ... .. . ... : ... .. . ... : ... .. . ... ...
ROW 0D : ... .. 7 ... ... ... : ... .. . ... ... ... : ... .. . ... : ... .. . ... : ... .. . ... ...
ROW 0E : ... .. 6 ... ... ... : ... .. . ... ... ... : ... .. . ... : ... .. . ... : ... .. . ... ...
ROW 0F : ... .. 5 ... ... ... : ... .. 4 ... ... ... : ... .. . ... : ... .. . ... : ... .. . ... ...
ROW 10 : G-2 00 4 P80 ... ... : ... .. . ... ... ... : ... .. . ... : ... .. C ... : ... .. . ... ...
ROW 11 : ... .. 5 ... ... ... : ... .. . ... ... ... : ... .. . ... : ... .. 8 ... : ... .. . ... ...
ROW 12 : ... .. 6 ... ... ... : ... .. . ... ... ... : ... .. . ... : ... .. 4 ... : ... .. . ... ...
ROW 13 : ... .. 7 ... ... ... : ... .. . ... ... ... : ... .. . ... : ... .. 0 ... : ... .. . ... ...
ROW 14 : ... .. 8 ... ... ... : ... .. . ... ... ... : ... .. . ... : ... .. . ... : ... .. . ... ...
ROW 15 : ... .. 7 ... ... ... : ... .. . ... ... ... : ... .. . ... : ... .. . ... : ... .. . ... ...
ROW 16 : ... .. 6 ... ... ... : ... .. . ... ... ... : ... .. . ... : ... .. . ... : ... .. . ... ...
ROW 17 : ... .. 5 ... ... ... : ... .. . ... ... ... : --- .. . ... : ... .. . ... : ... .. . ... ...
ROW 18 : C-3 00 4 P80 ... ... : ... .. . ... ... ... : ... .. . ... : ... .. C ... : ... .. . ... ...
ROW 19 : ... .. 5 ... ... ... : ... .. . ... ... ... : ... .. . ... : ... .. 8 ... : ... .. . ... ...
ROW 1A : ... .. 6 ... ... ... : ... .. . ... ... ... : ... .. . ... : ... .. 4 ... : ... .. . ... ...
ROW 1B : ... .. 7 ... ... ... : ... .. . ... ... ... : ... .. . ... : ... .. 0 ... : ... .. . ... ...
ROW 1C : ... .. 8 ... ... ... : ... .. . ... ... ... : ... .. . ... : ... .. . ... : ... .. . ... ...
ROW 1D : ... .. 7 ... ... ... : ... .. . ... ... ... : ... .. . ... : ... .. . ... : ... .. . ... ...
ROW 1E : ... .. 6 ... ... ... : ... .. . ... ... ... : ... .. . ... : ... .. . ... : ... .. . ... ...
ROW 1F : ... .. 5 ... ... ... : ... .. . ... ... ... : ... .. . ... : ... .. . ... : ... .. . ... ...
ROW 20 : F-3 00 4 P80 ... ... : A#3 00 D P81 ... ... : C-2 00 . ... : ... .. C ... : ... .. . ... ...
ROW 21 : ... .. 5 ... ... ... : ... .. 9 ... ... ... : ... .. . ... : ... .. 8 ... : ... .. . ... ...
ROW 22 : ... .. 6 ... ... ... : ... .. 7 ... ... ... : ... .. . ... : ... .. 4 ... : ... .. . ... ...
ROW 23 : ... .. 7 ... ... ... : ... .. 6 ... ... ... : ... .. . ... : ... .. 0 ... : ... .. . ... ...
ROW 24 : ... .. 8 ... ... ... : ... .. 5 ... ... ... : ... .. . ... : ... .. . ... : ... .. . ... ...
ROW 25 : ... .. 7 ... ... ... : ... .. . ... ... ... : ... .. . ... : ... .. . ... : ... .. . ... ...
ROW 26 : ... .. 6 ... ... ... : ... .. . ... ... ... : ... .. . ... : ... .. . ... : ... .. . ... ...
ROW 27 : ... .. 5 ... ... ... : ... .. 4 ... ... ... : --- .. . ... : ... .. . ... : ... .. . ... ...
ROW 28 : ... .. 4 ... ... ... : ... .. . ... ... ... : G-2 00 . P80 : ... .. . ... : ... .. . ... ...
ROW 29 : ... .. . ... ... ... : ... .. . ... ... ... : ... .. . ... : ... .. . ... : ... .. . ... ...
ROW 2A : ... .. . ... ... ... : ... .. . ... ... ... : ... .. . ... : ... .. . ... : ... .. . ... ...
ROW 2B : ... .. . ... ... ... : ... .. . ... ... ... : ... .. . ... : ... .. . ... : ... .. . ... ...
ROW 2C : ... .. . ... ... ... : ... .. . ... ... ... : ... .. . ... : ... .. . ... : ... .. . ... ...
ROW 2D : ... .. . ... ... ... : ... .. . ... ... ... : ... .. . ... : ... .. . ... : ... .. . ... ...
ROW 2E : ... .. . ... ... ... : ... .. . ... ... ... : ... .. . ... : ... .. . ... : ... .. . ... ...
ROW 2F : ... .. . ... ... ... : ... .. . ... ... ... : --- .. . ... : ... .. . ... : ... .. . ... ...
ROW 30 : ... .. . ... ... ... : ... .. . ... ... ... : C-2 00 . P7F : ... .. . ... : ... .. . ... ...
ROW 31 : ... .. . ... ... ... : ... .. . ... ... ... : ... .. . ... : ... .. . ... : ... .. . ... ...
ROW 32 : ... .. . ... ... ... : ... .. . ... ... ... : ... .. . ... : ... .. . ... : ... .. . ... ...
ROW 33 : ... .. . ... ... ... : ... .. . ... ... ... : ... .. . ... : ... .. . ... : ... .. . ... ...
ROW 34 : ... .. . ... ... ... : ... .. . ... ... ... : ... .. . ... : ... .. . ... : ... .. . ... ...
ROW 35 : ... .. . ... ... ... : ... .. . ... ... ... : ... .. . ... : ... .. . ... : ... .. . ... ...
ROW 36 : ... .. . ... ... ... : ... .. . ... ... ... : ... .. . ... : ... .. . ... : ... .. . ... ...
ROW 37 : ... .. . ... ... ... : ... .. . ... ... ... : --- .. . ... : ... .. . ... : ... .. . ... ...
ROW 38 : ... .. . ... ... ... : ... .. . ... ... ... : C-2 00 . ... : ... .. C ... : ... .. . ... ...
ROW 39 : ... .. . ... ... ... : ... .. . ... ... ... : ... .. . ... : ... .. 8 ... : ... .. . ... ...
ROW 3A : ... .. . ... ... ... : ... .. . ... ... ... : ... .. . ... : ... .. 4 ... : ... .. . ... ...
ROW 3B : ... .. . ... ... ... : ... .. . ... ... ... : ... .. . ... : ... .. 0 ... : ... .. . ... ...
ROW 3C : ... .. . ... ... ... : ... .. . ... ... ... : ... .. . ... : ... .. . ... : ... .. . ... ...
ROW 3D : ... .. . ... ... ... : ... .. . ... ... ... : ... .. . ... : ... .. . ... : ... .. . ... ...
ROW 3E : ... .. . ... ... ... : ... .. . ... ... ... : ... .. . ... : ... .. . ... : ... .. . ... ...
ROW 3F : ... .. . ... ... ... : ... .. . ... ... ... : ... .. . ... : ... .. . ... : ... .. . ... ...
ROW 40 : ... .. . ... ... ... : ... .. . ... ... ... : ... .. . ... : ... .. . ... : ... .. . ... ...
ROW 41 : ... .. . ... ... ... : ... .. . ... ... ... : ... .. . ... : ... .. . ... : ... .. . ... ...
ROW 42 : ... .. . ... ... ... : ... .. . ... ... ... : ... .. . ... : ... .. . ... : ... .. . ... ...
ROW 43 : ... .. . ... ... ... : ... .. . ... ... ... : ... .. . ... : ... .. . ... : ... .. . ... ...
ROW 44 : ... .. . ... ... ... : ... .. . ... ... ... : ... .. . ... : ... .. . ... : ... .. . ... ...
ROW 45 : ... .. . ... ... ... : ... .. . ... ... ... : ... .. . ... : ... .. . ... : ... .. . ... ...
ROW 46 : ... .. . ... ... ... : ... .. . ... ... ... : ... .. . ... : ... .. . ... : ... .. . ... ...
ROW 47 : ... .. . ... ... ... : ... .. . ... ... ... : --- .. . ... : ... .. . ... : ... .. . ... ...
ROW 48 : ... .. . ... ... ... : ... .. . ... ... ... : ... .. . ... : ... .. . ... : ... .. . ... ...
ROW 49 : ... .. . ... ... ... : ... .. . ... ... ... : ... .. . ... : ... .. . ... : ... .. . ... ...
ROW 4A : ... .. . ... ... ... : ... .. . ... ... ... : ... .. . ... : ... .. . ... : ... .. . ... ...
ROW 4B : ... .. . ... ... ... : ... .. . ... ... ... : ... .. . ... : ... .. . ... : ... .. . ... ...
ROW 4C : ... .. . ... ... ... : ... .. . ... ... ... : ... .. . ... : ... .. . ... : ... .. . ... ...
ROW 4D : ... .. . ... ... ... : ... .. . ... ... ... : ... .. . ... : ... .. . ... : ... .. . ... ...
ROW 4E : ... .. . ... ... ... : ... .. . ... ... ... : ... .. . ... : ... .. . ... : ... .. . ... ...
ROW 4F : ... .. . ... ... ... : ... .. . ... ... ... : ... .. . ... : ... .. . ... : ... .. . ... ...
ROW 50 : D-3 00 4 P80 ... ... : ... .. . ... ... ... : C-2 00 . ... : ... .. C ... : ... .. . ... ...
ROW 51 : ... .. 5 ... ... ... : ... .. . ... ... ... : ... .. . ... : ... .. 8 ... : ... .. . ... ...
ROW 52 : ... .. 6 ... ... ... : ... .. . ... ... ... : ... .. . ... : ... .. 4 ... : ... .. . ... ...
ROW 53 : ... .. 7 ... ... ... : ... .. . ... ... ... : ... .. . ... : ... .. 0 ... : ... .. . ... ...
ROW 54 : ... .. 8 ... ... ... : ... .. . ... ... ... : ... .. . ... : ... .. . ... : ... .. . ... ...
ROW 55 : ... .. 7 ... ... ... : ... .. . ... ... ... : ... .. . ... : ... .. . ... : ... .. . ... ...
ROW 56 : ... .. 6 ... ... ... : ... .. . ... ... ... : ... .. . ... : ... .. . ... : ... .. . ... ...
ROW 57 : ... .. 5 ... ... ... : ... .. . ... ... ... : --- .. . ... : ... .. . ... : ... .. . ... ...
ROW 58 : ... .. 4 ... ... ... : ... .. . ... ... ... : G-2 00 . P80 : ... .. . ... : ... .. . ... ...
ROW 59 : ... .. . ... ... ... : ... .. . ... ... ... : ... .. . ... : ... .. . ... : ... .. . ... ...
ROW 5A : ... .. . ... ... ... : ... .. . ... ... ... : ... .. . ... : ... .. . ... : ... .. . ... ...
ROW 5B : ... .. . ... ... ... : ... .. . ... ... ... : ... .. . ... : ... .. . ... : ... .. . ... ...
ROW 5C : ... .. . ... ... ... : ... .. . ... ... ... : ... .. . ... : ... .. . ... : ... .. . ... ...
ROW 5D : ... .. . ... ... ... : ... .. . ... ... ... : ... .. . ... : ... .. . ... : ... .. . ... ...
ROW 5E : ... .. . ... ... ... : ... .. . ... ... ... : ... .. . ... : ... .. . ... : ... .. . ... ...
ROW 5F : ... .. . ... ... ... : ... .. . ... ... ... : --- .. . ... : ... .. . ... : ... .. . ... ...
ROW 60 : ... .. . ... ... ... : ... .. . ... ... ... : C-2 00 . P7F : ... .. . ... : ... .. . ... ...
ROW 61 : ... .. . ... ... ... : ... .. . ... ... ... : ... .. . ... : ... .. . ... : ... .. . ... ...
ROW 62 : ... .. . ... ... ... : ... .. . ... ... ... : ... .. . ... : ... .. . ... : ... .. . ... ...
ROW 63 : ... .. . ... ... ... : ... .. . ... ... ... : ... .. . ... : ... .. . ... : ... .. . ... ...
ROW 64 : ... .. . ... ... ... : ... .. . ... ... ... : ... .. . ... : ... .. . ... : ... .. . ... ...
ROW 65 : ... .. . ... ... ... : ... .. . ... ... ... : ... .. . ... : ... .. . ... : ... .. . ... ...
ROW 66 : ... .. . ... ... ... : ... .. . ... ... ... : ... .. . ... : ... .. . ... : ... .. . ... ...
ROW 67 : ... .. . ... ... ... : ... .. . ... ... ... : --- .. . ... : ... .. . ... : ... .. . ... ...
ROW 68 : ... .. . ... ... ... : A-3 00 D P80 ... ... : C-2 00 . ... : ... .. C ... : ... .. . ... ...
ROW 69 : ... .. . ... ... ... : ... .. 9 ... ... ... : ... .. . ... : ... .. 8 ... : ... .. . ... ...
ROW 6A : ... .. . ... ... ... : ... .. 7 ... ... ... : ... .. . ... : ... .. 4 ... : ... .. . ... ...
ROW 6B : ... .. . ... ... ... : ... .. 6 ... ... ... : ... .. . ... : ... .. 0 ... : ... .. . ... ...
ROW 6C : ... .. . ... ... ... : ... .. 5 ... ... ... : ... .. . ... : ... .. . ... : ... .. . ... ...
ROW 6D : ... .. . ... ... ... : ... .. . ... ... ... : ... .. . ... : ... .. . ... : ... .. . ... ...
ROW 6E : ... .. . ... ... ... : A#3 00 D P81 ... ... : ... .. . ... : ... .. . ... : ... .. . ... ...
ROW 6F : ... .. . ... ... ... : ... .. 9 ... ... ... : ... .. . ... : ... .. . ... : ... .. . ... ...
ROW 70 : ... .. . ... ... ... : ... .. 7 ... ... ... : ... .. . ... : ... .. C ... : ... .. . ... ...
ROW 71 : ... .. . ... ... ... : ... .. 6 ... ... ... : ... .. . ... : ... .. 8 ... : ... .. . ... ...
ROW 72 : ... .. . ... ... ... : ... .. 5 ... ... ... : ... .. . ... : ... .. 4 ... : ... .. . ... ...
ROW 73 : ... .. . ... ... ... : ... .. . ... ... ... : ... .. . ... : ... .. 0 ... : ... .. . ... ...
ROW 74 : ... .. . ... ... ... : A-3 00 D P80 ... ... : ... .. . ... : ... .. . ... : ... .. . ... ...
ROW 75 : ... .. . ... ... ... : ... .. 9 ... ... ... : ... .. . ... : ... .. . ... : ... .. . ... ...
ROW 76 : ... .. . ... ... ... : ... .. 7 ... ... ... : ... .. . ... : ... .. . ... : ... .. . ... ...
ROW 77 : ... .. . ... ... ... : ... .. 6 ... ... ... : --- .. . ... : ... .. . ... : ... .. . ... ...
ROW 78 : ... .. . ... ... ... : ... .. 5 ... ... ... : ... .. . ... : ... .. C ... : ... .. . ... ...
ROW 79 : ... .. . ... ... ... : ... .. . ... ... ... : ... .. . ... : ... .. 8 ... : ... .. . ... ...
ROW 7A : ... .. . ... ... ... : F-3 00 D P80 ... ... : ... .. . ... : ... .. 4 ... : ... .. . ... ...
ROW 7B : ... .. . ... ... ... : ... .. 9 ... ... ... : ... .. . ... : ... .. 0 ... : ... .. . ... ...
ROW 7C : ... .. . ... ... ... : ... .. 7 ... ... ... : ... .. . ... : ... .. . ... : ... .. . ... ...
ROW 7D : ... .. . ... ... ... : ... .. 6 ... ... ... : ... .. . ... : ... .. . ... : ... .. . ... ...
ROW 7E : ... .. . ... ... ... : ... .. 5 ... ... ... : ... .. . ... : ... .. . ... : ... .. . ... ...
ROW 7F : ... .. . ... ... ... : ... .. . ... ... ... : ... .. . ... : ... .. . ... : ... .. . ... ...

PATTERN 0C
ROW 00 : E-3 00 4 P80 ... ... : C-4 00 D P81 ... ... : C-2 00 . ... : ... .. C ... : ... .. . ... ...
ROW 01 : ... .. 5 ... ... ... : ... .. 9 ... ... ... : ... .. . ... : ... .. 8 ... : ... .. . ... ...
ROW 02 : ... .. 6 ... ... ... : ... .. 7 ... ... ... : ... .. . ... : ... .. 4 ... : ... .. . ... ...
ROW 03 : ... .. 7 ... ... ... : ... .. 6 ... ... ... : ... .. . ... : ... .. 0 ... : ... .. . ... ...
ROW 04 : ... .. 8 ... ... ... : ... .. 5 ... ... ... : ... .. . ... : ... .. . ... : ... .. . ... ...
ROW 05 : ... .. 7 ... ... ... : ... .. . ... ... ... : ... .. . ... : ... .. . ... : ... .. . ... ...
ROW 06 : ... .. 6 ... ... ... : ... .. . ... ... ... : ... .. . ... : ... .. . ... : ... .. . ... ...
ROW 07 : ... .. 5 ... ... ... : ... .. 4 ... ... ... : --- .. . ... : ... .. . ... : ... .. . ... ...
ROW 08 : ... .. 4 ... ... ... : ... .. . ... ... ... : G-2 00 . P80 : ... .. . ... : ... .. . ... ...
ROW 09 : ... .. . ... ... ... : ... .. . ... ... ... : ... .. . ... : ... .. . ... : ... .. . ... ...
ROW 0A : ... .. . ... ... ... : ... .. . ... ... ... : ... .. . ... : ... .. . ... : ... .. . ... ...
ROW 0B : ... .. . ... ... ... : ... .. . ... ... ... : ... .. . ... : ... .. . ... : ... .. . ... ...
ROW 0C : ... .. . ... ... ... : ... .. . ... ... ... : ... .. . ... : ... .. . ... : ... .. . ... ...
ROW 0D : ... .. . ... ... ... : ... .. . ... ... ... : ... .. . ... : ... .. . ... : ... .. . ... ...
ROW 0E : ... .. . ... ... ... : ... .. . ... ... ... : ... .. . ... : ... .. . ... : ... .. . ... ...
ROW 0F : ... .. . ... ... ... : ... .. . ... ... ... : --- .. . ... : ... .. . ... : ... .. . ... ...
ROW 10 : ... .. . ... ... ... : ... .. . ... ... ... : C-2 00 . P7F : ... .. . ... : ... .. . ... ...
ROW 11 : ... .. . ... ... ... : ... .. . ... ... ... : ... .. . ... : ... .. . ... : ... .. . ... ...
ROW 12 : ... .. . ... ... ... : ... .. . ... ... ... : ... .. . ... : ... .. . ... : ... .. . ... ...
ROW 13 : ... .. . ... ... ... : ... .. . ... ... ... : ... .. . ... : ... .. . ... : ... .. . ... ...
ROW 14 : ... .. . ... ... ... : ... .. . ... ... ... : ... .. . ... : ... .. . ... : ... .. . ... ...
ROW 15 : ... .. . ... ... ... : ... .. . ... ... ... : ... .. . ... : ... .. . ... : ... .. . ... ...
ROW 16 : ... .. . ... ... ... : ... .. . ... ... ... : ... .. . ... : ... .. . ... : ... .. . ... ...
ROW 17 : ... .. . ... ... ... : ... .. . ... ... ... : --- .. . ... : ... .. . ... : ... .. . ... ...
ROW 18 : ... .. . ... ... ... : ... .. . ... ... ... : C-2 00 . ... : ... .. C ... : ... .. . ... ...
ROW 19 : ... .. . ... ... ... : ... .. . ... ... ... : ... .. . ... : ... .. 8 ... : ... .. . ... ...
ROW 1A : ... .. . ... ... ... : ... .. . ... ... ... : ... .. . ... : ... .. 4 ... : ... .. . ... ...
ROW 1B : ... .. . ... ... ... : ... .. . ... ... ... : ... .. . ... : ... .. 0 ... : ... .. . ... ...
ROW 1C : ... .. . ... ... ... : ... .. . ... ... ... : ... .. . ... : ... .. . ... : ... .. . ... ...
ROW 1D : ... .. . ... ... ... : ... .. . ... ... ... : ... .. . ... : ... .. . ... : ... .. . ... ...
ROW 1E : ... .. . ... ... ... : ... .. . ... ... ... : ... .. . ... : ... .. . ... : ... .. . ... ...
ROW 1F : ... .. . ... ... ... : ... .. . ... ... ... : ... .. . ... : ... .. . ... : ... .. . ... ...
ROW 20 : ... .. . ... ... ... : ... .. . ... ... ... : ... .. . ... : ... .. . ... : ... .. . ... ...
ROW 21 : ... .. . ... ... ... : ... .. . ... ... ... : ... .. . ... : ... .. . ... : ... .. . ... ...
ROW 22 : ... .. . ... ... ... : ... .. . ... ... ... : ... .. . ... : ... .. . ... : ... .. . ... ...
ROW 23 : ... .. . ... ... ... : ... .. . ... ... ... : ... .. . ... : ... .. . ... : ... .. . ... ...
ROW 24 : ... .. . ... ... ... : ... .. . ... ... ... : ... .. . ... : ... .. . ... : ... .. . ... ...
ROW 25 : ... .. . ... ... ... : ... .. . ... ... ... : ... .. . ... : ... .. . ... : ... .. . ... ...
ROW 26 : ... .. . ... ... ... : ... .. . ... ... ... : ... .. . ... : ... .. . ... : ... .. . ... ...
ROW 27 : ... .. . ... ... ... : ... .. . ... ... ... : --- .. . ... : ... .. . ... : ... .. . ... ...
ROW 28 : ... .. . ... ... ... : ... .. . ... ... ... : ... .. . ... : ... .. . ... : ... .. . ... ...
ROW 29 : ... .. . ... ... ... : ... .. . ... ... ... : ... .. . ... : ... .. . ... : ... .. . ... ...
ROW 2A : ... .. . ... ... ... : ... .. . ... ... ... : ... .. . ... : ... .. . ... : ... .. . ... ...
ROW 2B : ... .. . ... ... ... : ... .. . ... ... ... : ... .. . ... : ... .. . ... : ... .. . ... ...
ROW 2C : ... .. . ... ... ... : ... .. . ... ... ... : ... .. . ... : ... .. . ... : ... .. . ... ...
ROW 2D : ... .. . ... ... ... : ... .. . ... ... ... : ... .. . ... : ... .. . ... : ... .. . ... ...
ROW 2E : ... .. . ... ... ... : ... .. . ... ... ... : ... .. . ... : ... .. . ... : ... .. . ... ...
ROW 2F : ... .. . ... ... ... : ... .. . ... ... ... : ... .. . ... : ... .. . ... : ... .. . ... ...
ROW 30 : ... .. . ... ... ... : ... .. . ... ... ... : C-2 00 . ... : ... .. C ... : ... .. . ... ...
ROW 31 : ... .. . ... ... ... : ... .. . ... ... ... : ... .. . ... : ... .. 8 ... : ... .. . ... ...
ROW 32 : ... .. . ... ... ... : ... .. . ... ... ... : ... .. . ... : ... .. 4 ... : ... .. . ... ...
ROW 33 : ... .. . ... ... ... : ... .. . ... ... ... : ... .. . ... : ... .. 0 ... : ... .. . ... ...
ROW 34 : ... .. . ... ... ... : ... .. . ... ... ... : ... .. . ... : ... .. . ... : ... .. . ... ...
ROW 35 : ... .. . ... ... ... : ... .. . ... ... ... : ... .. . ... : ... .. . ... : ... .. . ... ...
ROW 36 : ... .. . ... ... ... : ... .. . ... ... ... : ... .. . ... : ... .. . ... : ... .. . ... ...
ROW 37 : ... .. . ... ... ... : ... .. . ... ... ... : --- .. . ... : ... .. . ... : ... .. . ... ...
ROW 38 : ... .. . ... ... ... : ... .. . ... ... ... : G-2 00 . P80 : ... .. . ... : ... .. . ... ...
ROW 39 : ... .. . ... ... ... : ... .. . ... ... ... : ... .. . ... : ... .. . ... : ... .. . ... ...
ROW 3A : ... .. . ... ... ... : ... .. . ... ... ... : ... .. . ... : ... .. . ... : ... .. . ... ...
ROW 3B : ... .. . ... ... ... : ... .. . ... ... ... : ... .. . ... : ... .. . ... : ... .. . ... ...
ROW 3C : ... .. . ... ... ... : ... .. . ... ... ... : ... .. . ... : ... .. . ... : ... .. . ... ...
ROW 3D : ... .. . ... ... ... : ... .. . ... ... ... : ... .. . ... : ... .. . ... : ... .. . ... ...
ROW 3E : ... .. . ... ... ... : ... .. . ... ... ... : ... .. . ... : ... .. . ... : ... .. . ... ...
ROW 3F : ... .. . ... ... ... : ... .. . ... ... ... : --- .. . ... : ... .. . ... : ... .. . ... ...
ROW 40 : ... .. . ... ... ... : ... .. . ... ... ... : C-2 00 . P7F : ... .. . ... : ... .. . ... ...
ROW 41 : ... .. . ... ... ... : ... .. . ... ... ... : ... .. . ... : ... .. . ... : ... .. . ... ...
ROW 42 : ... .. . ... ... ... : ... .. . ... ... ... : ... .. . ... : ... .. . ... : ... .. . ... ...
ROW 43 : ... .. . ... ... ... : ... .. . ... ... ... : ... .. . ... : ... .. . ... : ... .. . ... ...
ROW 44 : ... .. . ... ... ... : ... .. . ... ... ... : ... .. . ... : ... .. . ... : ... .. . ... ...
ROW 45 : ... .. . ... ... ... : ... .. . ... ... ... : ... .. . ... : ... .. . ... : ... .. . ... ...
ROW 46 : ... .. . ... ... ... : ... .. . ... ... ... : ... .. . ... : ... .. . ... : ... .. . ... ...
ROW 47 : ... .. . ... ... ... : ... .. . ... ... ... : --- .. . ... : ... .. . ... : ... .. . ... ...
ROW 48 : C-3 00 4 P80 ... ... : G-3 00 D P80 ... ... : C-2 00 . ... : ... .. C ... : ... .. . ... ...
ROW 49 : ... .. 5 ... ... ... : ... .. 9 ... ... ... : ... .. . ... : ... .. 8 ... : ... .. . ... ...
ROW 4A : ... .. 6 ... ... ... : ... .. 7 ... ... ... : ... .. . ... : ... .. 4 ... : ... .. . ... ...
ROW 4B : ... .. 7 ... ... ... : ... .. 6 ... ... ... : ... .. . ... : ... .. 0 ... : ... .. . ... ...
ROW 4C : ... .. 8 ... ... ... : ... .. 5 ... ... ... : ... .. . ... : ... .. . ... : ... .. . ... ...
ROW 4D : ... .. 7 ... ... ... : ... .. . ... ... ... : ... .. . ... : ... .. . ... : ... .. . ... ...
ROW 4E : ... .. 6 ... ... ... : ... .. . ... ... ... : ... .. . ... : ... .. . ... : ... .. . ... ...
ROW 4F : ... .. 5 ... ... ... : ... .. 4 ... ... ... : ... .. . ... : ... .. . ... : ... .. . ... ...
ROW 50 : G-2 00 4 P80 ... ... : ... .. . ... ... ... : ... .. . ... : ... .. C ... : ... .. . ... ...
ROW 51 : ... .. 5 ... ... ... : ... .. . ... ... ... : ... .. . ... : ... .. 8 ... : ... .. . ... ...
ROW 52 : ... .. 6 ... ... ... : ... .. . ... ... ... : ... .. . ... : ... .. 4 ... : ... .. . ... ...
ROW 53 : ... .. 7 ... ... ... : ... .. . ... ... ... : ... .. . ... : ... .. 0 ... : ... .. . ... ...
ROW 54 : ... .. 8 ... ... ... : ... .. . ... ... ... : ... .. . ... : ... .. . ... : ... .. . ... ...
ROW 55 : ... .. 7 ... ... ... : ... .. . ... ... ... : ... .. . ... : ... .. . ... : ... .. . ... ...
ROW 56 : ... .. 6 ... ... ... : ... .. . ... ... ... : ... .. . ... : ... .. . ... : ... .. . ... ...
ROW 57 : ... .. 5 ... ... ... : ... .. . ... ... ... : --- .. . ... : ... .. . ... : ... .. . ... ...
ROW 58 : C-3 00 4 P80 ... ... : ... .. . ... ... ... : ... .. . ... : ... .. C ... : ... .. . ... ...
ROW 59 : ... .. 5 ... ... ... : ... .. . ... ... ... : ... .. . ... : ... .. 8 ... : ... .. . ... ...
ROW 5A : ... .. 6 ... ... ... : ... .. . ... ... ... : ... .. . ... : ... .. 4 ... : ... .. . ... ...
ROW 5B : ... .. 7 ... ... ... : ... .. . ... ... ... : ... .. . ... : ... .. 0 ... : ... .. . ... ...
ROW 5C : ... .. 8 ... ... ... : ... .. . ... ... ... : ... .. . ... : ... .. . ... : ... .. . ... ...
ROW 5D : ... .. 7 ... ... ... : ... .. . ... ... ... : ... .. . ... : ... .. . ... : ... .. . ... ...
ROW 5E : ... .. 6 ... ... ... : ... .. . ... ... ... : ... .. . ... : ... .. . ... : ... .. . ... ...
ROW 5F : ... .. 5 ... ... ... : ... .. . ... ... ... : ... .. . ... : ... .. . ... : ... .. . ... ...
ROW 60 : F-3 00 4 P80 ... ... : A#3 00 D P81 ... ... : C-2 00 . ... : ... .. C ... : ... .. . ... ...
ROW 61 : ... .. 5 ... ... ... : ... .. 9 ... ... ... : ... .. . ... : ... .. 8 ... : ... .. . ... ...
ROW 62 : ... .. 6 ... ... ... : ... .. 7 ... ... ... : ... .. . ... : ... .. 4 ... : ... .. . ... ...
ROW 63 : ... .. 7 ... ... ... : ... .. 6 ... ... ... : ... .. . ... : ... .. 0 ... : ... .. . ... ...
ROW 64 : ... .. 8 ... ... ... : ... .. 5 ... ... ... : ... .. . ... : ... .. . ... : ... .. . ... ...
ROW 65 : ... .. 7 ... ... ... : ... .. . ... ... ... : ... .. . ... : ... .. . ... : ... .. . ... ...
ROW 66 : ... .. 6 ... ... ... : ... .. . ... ... ... : ... .. . ... : ... .. . ... : ... .. . ... ...
ROW 67 : ... .. 5 ... ... ... : ... .. 4 ... ... ... : --- .. . ... : ... .. . ... : ... .. . ... ...
ROW 68 : ... .. 4 ... ... ... : ... .. . ... ... ... : G-2 00 . P80 : ... .. . ... : ... .. . ... ...
ROW 69 : ... .. . ... ... ... : ... .. . ... ... ... : ... .. . ... : ... .. . ... : ... .. . ... ...
ROW 6A : ... .. . ... ... ... : ... .. . ... ... ... : ... .. . ... : ... .. . ... : ... .. . ... ...
ROW 6B : ... .. . ... ... ... : ... .. . ... ... ... : ... .. . ... : ... .. . ... : ... .. . ... ...
ROW 6C : ... .. . ... ... ... : ... .. . ... ... ... : ... .. . ... : ... .. . ... : ... .. . ... ...
ROW 6D : ... .. . ... ... ... : ... .. . ... ... ... : ... .. . ... : ... .. . ... : ... .. . ... ...
ROW 6E : ... .. . ... ... ... : ... .. . ... ... ... : ... .. . ... : ... .. . ... : ... .. . ... ...
ROW 6F : ... .. . ... ... ... : ... .. . ... ... ... : --- .. . ... : ... .. . ... : ... .. . ... ...
ROW 70 : ... .. . ... ... ... : ... .. . ... ... ... : C-2 00 . P7F : ... .. . ... : ... .. . ... ...
ROW 71 : ... .. . ... ... ... : ... .. . ... ... ... : ... .. . ... : ... .. . ... : ... .. . ... ...
ROW 72 : ... .. . ... ... ... : ... .. . ... ... ... : ... .. . ... : ... .. . ... : ... .. . ... ...
ROW 73 : ... .. . ... ... ... : ... .. . ... ... ... : ... .. . ... : ... .. . ... : ... .. . ... ...
ROW 74 : ... .. . ... ... ... : ... .. . ... ... ... : ... .. . ... : ... .. . ... : ... .. . ... ...
ROW 75 : ... .. . ... ... ... : ... .. . ... ... ... : ... .. . ... : ... .. . ... : ... .. . ... ...
ROW 76 : ... .. . ... ... ... : ... .. . ... ... ... : ... .. . ... : ... .. . ... : ... .. . ... ...
ROW 77 : ... .. . ... ... ... : ... .. . ... ... ... : --- .. . ... : ... .. . ... : ... .. . ... ...
ROW 78 : ... .. . ... ... ... : ... .. . ... ... ... : C-2 00 . ... : ... .. C ... : ... .. . ... ...
ROW 79 : ... .. . ... ... ... : ... .. . ... ... ... : ... .. . ... : ... .. 8 ... : ... .. . ... ...
ROW 7A : ... .. . ... ... ... : ... .. . ... ... ... : ... .. . ... : ... .. 4 ... : ... .. . ... ...
ROW 7B : ... .. . ... ... ... : ... .. . ... ... ... : ... .. . ... : ... .. 0 ... : ... .. . ... ...
ROW 7C : ... .. . ... ... ... : ... .. . ... ... ... : ... .. . ... : ... .. . ... : ... .. . ... ...
ROW 7D : ... .. . ... ... ... : ... .. . ... ... ... : ... .. . ... : ... .. . ... : ... .. . ... ...
ROW 7E : ... .. . ... ... ... : ... .. . ... ... ... : ... .. . ... : ... .. . ... : ... .. . ... ...
ROW 7F : ... .. . ... ... ... : ... .. . ... ... ... : ... .. . ... : ... .. . ... : ... .. . ... ...

PATTERN 0D
ROW 00 : ... .. . ... ... ... : ... .. . ... ... ... : ... .. . ... : ... .. . ... : ... .. . ... ...
ROW 01 : ... .. . ... ... ... : ... .. . ... ... ... : ... .. . ... : ... .. . ... : ... .. . ... ...
ROW 02 : ... .. . ... ... ... : ... .. . ... ... ... : ... .. . ... : ... .. . ... : ... .. . ... ...
ROW 03 : ... .. . ... ... ... : ... .. . ... ... ... : ... .. . ... : ... .. . ... : ... .. . ... ...
ROW 04 : ... .. . ... ... ... : ... .. . ... ... ... : ... .. . ... : ... .. . ... : ... .. . ... ...
ROW 05 : ... .. . ... ... ... : ... .. . ... ... ... : ... .. . ... : ... .. . ... : ... .. . ... ...
ROW 06 : ... .. . ... ... ... : ... .. . ... ... ... : ... .. . ... : ... .. . ... : ... .. . ... ...
ROW 07 : ... .. . ... ... ... : ... .. . ... ... ... : --- .. . ... : ... .. . ... : ... .. . ... ...
ROW 08 : ... .. . ... ... ... : ... .. . ... ... ... : ... .. . ... : ... .. . ... : ... .. . ... ...
ROW 09 : ... .. . ... ... ... : ... .. . ... ... ... : ... .. . ... : ... .. . ... : ... .. . ... ...
ROW 0A : ... .. . ... ... ... : ... .. . ... ... ... : ... .. . ... : ... .. . ... : ... .. . ... ...
ROW 0B : ... .. . ... ... ... : ... .. . ... ... ... : ... .. . ... : ... .. . ... : ... .. . ... ...
ROW 0C : ... .. . ... ... ... : ... .. . ... ... ... : ... .. . ... : ... .. . ... : ... .. . ... ...
ROW 0D : ... .. . ... ... ... : ... .. . ... ... ... : ... .. . ... : ... .. . ... : ... .. . ... ...
ROW 0E : ... .. . ... ... ... : ... .. . ... ... ... : ... .. . ... : ... .. . ... : ... .. . ... ...
ROW 0F : ... .. . ... ... ... : ... .. . ... ... ... : ... .. . ... : ... .. . ... : ... .. . ... ...
ROW 10 : D-3 00 4 P80 ... ... : ... .. . ... ... ... : C-2 00 . ... : ... .. C ... : ... .. . ... ...
ROW 11 : ... .. 5 ... ... ... : ... .. . ... ... ... : ... .. . ... : ... .. 8 ... : ... .. . ... ...
ROW 12 : ... .. 6 ... ... ... : ... .. . ... ... ... : ... .. . ... : ... .. 4 ... : ... .. . ... ...
ROW 13 : ... .. 7 ... ... ... : ... .. . ... ... ... : ... .. . ... : ... .. 0 ... : ... .. . ... ...
ROW 14 : ... .. 8 ... ... ... : ... .. . ... ... ... : ... .. . ... : ... .. . ... : ... .. . ... ...
ROW 15 : ... .. 7 ... ... ... : ... .. . ... ... ... : ... .. . ... : ... .. . ... : ... .. . ... ...
ROW 16 : ... .. 6 ... ... ... : ... .. . ... ... ... : ... .. . ... : ... .. . ... : ... .. . ... ...
ROW 17 : ... .. 5 ... ... ... : ... .. . ... ... ... : --- .. . ... : ... .. . ... : ... .. . ... ...
ROW 18 : ... .. 4 ... ... ... : ... .. . ... ... ... : G-2 00 . P80 : ... .. . ... : ... .. . ... ...
ROW 19 : ... .. . ... ... ... : ... .. . ... ... ... : ... .. . ... : ... .. . ... : ... .. . ... ...
ROW 1A : ... .. . ... ... ... : ... .. . ... ... ... : ... .. . ... : ... .. . ... : ... .. . ... ...
ROW 1B : ... .. . ... ... ... : ... .. . ... ... ... : ... .. . ... : ... .. . ... : ... .. . ... ...
ROW 1C : ... .. . ... ... ... : ... .. . ... ... ... : ... .. . ... : ... .. . ... : ... .. . ... ...
ROW 1D : ... .. . ... ... ... : ... .. . ... ... ... : ... .. . ... : ... .. . ... : ... .. . ... ...
ROW 1E : ... .. . ... ... ... : ... .. . ... ... ... : ... .. . ... : ... .. . ... : ... .. . ... ...
ROW 1F : ... .. . ... ... ... : ... .. . ... ... ... : --- .. . ... : ... .. . ... : ... .. . ... ...
ROW 20 : ... .. . ... ... ... : ... .. . ... ... ... : C-2 00 . P7F : ... .. . ... : ... .. . ... ...
ROW 21 : ... .. . ... ... ... : ... .. . ... ... ... : ... .. . ... : ... .. . ... : ... .. . ... ...
ROW 22 : ... .. . ... ... ... : ... .. . ... ... ... : ... .. . ... : ... .. . ... : ... .. . ... ...
ROW 23 : ... .. . ... ... ... : ... .. . ... ... ... : ... .. . ... : ... .. . ... : ... .. . ... ...
ROW 24 : ... .. . ... ... ... : ... .. . ... ... ... : ... .. . ... : ... .. . ... : ... .. . ... ...
ROW 25 : ... .. . ... ... ... : ... .. . ... ... ... : ... .. . ... : ... .. . ... : ... .. . ... ...
ROW 26 : ... .. . ... ... ... : ... .. . ... ... ... : ... .. . ... : ... .. . ... : ... .. . ... ...
ROW 27 : ... .. . ... ... ... : ... .. . ... ... ... : --- .. . ... : ... .. . ... : ... .. . ... ...
ROW 28 : ... .. . ... ... ... : A-3 00 D P80 ... ... : C-2 00 . ... : ... .. C ... : ... .. . ... ...
ROW 29 : ... .. . ... ... ... : ... .. 9 ... ... ... : ... .. . ... : ... .. 8 ... : ... .. . ... ...
ROW 2A : ... .. . ... ... ... : ... .. 7 ... ... ... : ... .. . ... : ... .. 4 ... : ... .. . ... ...
ROW 2B : ... .. . ... ... ... : ... .. 6 ... ... ... : ... .. . ... : ... .. 0 ... : ... .. . ... ...
ROW 2C : ... .. . ... ... ... : ... .. 5 ... ... ... : ... .. . ... : ... .. . ... : ... .. . ... ...
ROW 2D : ... .. . ... ... ... : ... .. . ... ... ... : ... .. . ... : ... .. . ... : ... .. . ... ...
ROW 2E : ... .. . ... ... ... : A#3 00 D P81 ... ... : ... .. . ... : ... .. . ... : ... .. . ... ...
ROW 2F : ... .. . ... ... ... : ... .. 9 ... ... ... : ... .. . ... : ... .. . ... : ... .. . ... ...
ROW 30 : ... .. . ... ... ... : ... .. 7 ... ... ... : ... .. . ... : ... .. C ... : ... .. . ... ...
ROW 31 : ... .. . ... ... ... : ... .. 6 ... ... ... : ... .. . ... : ... .. 8 ... : ... .. . ... ...
ROW 32 : ... .. . ... ... ... : ... .. 5 ... ... ... : ... .. . ... : ... .. 4 ... : ... .. . ... ...
ROW 33 : ... .. . ... ... ... : ... .. . ... ... ... : ... .. . ... : ... .. 0 ... : ... .. . ... ...
ROW 34 : ... .. . ... ... ... : A-3 00 D P80 ... ... : ... .. . ... : ... .. . ... : ... .. . ... ...
ROW 35 : ... .. . ... ... ... : ... .. 9 ... ... ... : ... .. . ... : ... .. . ... : ... .. . ... ...
ROW 36 : ... .. . ... ... ... : ... .. 7 ... ... ... : ... .. . ... : ... .. . ... : ... .. . ... ...
ROW 37 : ... .. . ... ... ... : ... .. 6 ... ... ... : --- .. . ... : ... .. . ... : ... .. . ... ...
ROW 38 : ... .. . ... ... ... : ... .. 5 ... ... ... : ... .. . ... : ... .. C ... : ... .. . ... ...
ROW 39 : ... .. . ... ... ... : ... .. . ... ... ... : ... .. . ... : ... .. 8 ... : ... .. . ... ...
ROW 3A : ... .. . ... ... ... : F-3 00 D P80 ... ... : ... .. . ... : ... .. 4 ... : ... .. . ... ...
ROW 3B : ... .. . ... ... ... : ... .. 9 ... ... ... : ... .. . ... : ... .. 0 ... : ... .. . ... ...
ROW 3C : ... .. . ... ... ... : ... .. 7 ... ... ... : ... .. . ... : ... .. . ... : ... .. . ... ...
ROW 3D : ... .. . ... ... ... : ... .. 6 ... ... ... : ... .. . ... : ... .. . ... : ... .. . ... ...
ROW 3E : ... .. . ... ... ... : ... .. 5 ... ... ... : ... .. . ... : ... .. . ... : ... .. . ... ...
ROW 3F : ... .. . ... ... ... : ... .. . ... ... ... : ... .. . ... : ... .. . ... : ... .. . ... ...
ROW 40 : E-3 00 4 P80 ... ... : G-3 00 D P80 ... ... : C-2 00 . ... : ... .. C ... : ... .. . ... ...
ROW 41 : ... .. 5 ... ... ... : ... .. 9 ... ... ... : ... .. . ... : ... .. 8 ... : ... .. . ... ...
ROW 42 : ... .. 6 ... ... ... : ... .. 7 ... ... ... : ... .. . ... : ... .. 4 ... : ... .. . ... ...
ROW 43 : ... .. 7 ... ... ... : ... .. 6 ... ... ... : ... .. . ... : ... .. 0 ... : ... .. . ... ...
ROW 44 : ... .. 8 ... ... ... : ... .. 5 ... ... ... : ... .. . ... : ... .. . ... : ... .. . ... ...
ROW 45 : ... .. 7 ... ... ... : ... .. . ... ... ... : ... .. . ... : ... .. . ... : ... .. . ... ...
ROW 46 : ... .. 6 ... ... ... : ... .. . ... ... ... : ... .. . ... : ... .. . ... : ... .. . ... ...
ROW 47 : ... .. 5 ... ... ... : ... .. 4 ... ... ... : --- .. . ... : ... .. . ... : ... .. . ... ...
ROW 48 : ... .. 4 ... ... ... : ... .. . ... ... ... : G-2 00 . P80 : ... .. . ... : ... .. . ... ...
ROW 49 : ... .. . ... ... ... : ... .. . ... ... ... : ... .. . ... : ... .. . ... : ... .. . ... ...
ROW 4A : ... .. . ... ... ... : ... .. . ... ... ... : ... .. . ... : ... .. . ... : ... .. . ... ...
ROW 4B : ... .. . ... ... ... : ... .. . ... ... ... : ... .. . ... : ... .. . ... : ... .. . ... ...
ROW 4C : ... .. . ... ... ... : ... .. . ... ... ... : ... .. . ... : ... .. . ... : ... .. . ... ...
ROW 4D : ... .. . ... ... ... : ... .. . ... ... ... : ... .. . ... : ... .. . ... : ... .. . ... ...
ROW 4E : ... .. . ... ... ... : ... .. . ... ... ... : ... .. . ... : ... .. . ... : ... .. . ... ...
ROW 4F : ... .. . ... ... ... : ... .. . ... ... ... : --- .. . ... : ... .. . ... : ... .. . ... ...
ROW 50 : ... .. . ... ... ... : ... .. . ... ... ... : C-2 00 . P7F : ... .. . ... : ... .. . ... ...
ROW 51 : ... .. . ... ... ... : ... .. . ... ... ... : ... .. . ... : ... .. . ... : ... .. . ... ...
ROW 52 : ... .. . ... ... ... : ... .. . ... ... ... : ... .. . ... : ... .. . ... : ... .. . ... ...
ROW 53 : ... .. . ... ... ... : ... .. . ... ... ... : ... .. . ... : ... .. . ... : ... .. . ... ...
ROW 54 : ... .. . ... ... ... : ... .. . ... ... ... : ... .. . ... : ... .. . ... : ... .. . ... ...
ROW 55 : ... .. . ... ... ... : ... .. . ... ... ... : ... .. . ... : ... .. . ... : ... .. . ... ...
ROW 56 : ... .. . ... ... ... : ... .. . ... ... ... : ... .. . ... : ... .. . ... : ... .. . ... ...
ROW 57 : ... .. . ... ... ... : ... .. . ... ... ... : --- .. . ... : ... .. . ... : ... .. . ... ...
ROW 58 : ... .. . ... ... ... : ... .. . ... ... ... : C-2 00 . ... : ... .. C ... : ... .. . ... ...
ROW 59 : ... .. . ... ... ... : ... .. . ... ... ... : ... .. . ... : ... .. 8 ... : ... .. . ... ...
ROW 5A : ... .. . ... ... ... : ... .. . ... ... ... : ... .. . ... : ... .. 4 ... : ... .. . ... ...
ROW 5B : ... .. . ... ... ... : ... .. . ... ... ... : ... .. . ... : ... .. 0 ... : ... .. . ... ...
ROW 5C : ... .. . ... ... ... : ... .. . ... ... ... : ... .. . ... : ... .. . ... : ... .. . ... ...
ROW 5D : ... .. . ... ... ... : ... .. . ... ... ... : ... .. . ... : ... .. . ... : ... .. . ... ...
ROW 5E : ... .. . ... ... ... : ... .. . ... ... ... : ... .. . ... : ... .. . ... : ... .. . ... ...
ROW 5F : ... .. . ... ... ... : ... .. . ... ... ... : ... .. . ... : ... .. . ... : ... .. . ... ...
ROW 60 : ... .. . ... ... ... : ... .. . ... ... ... : ... .. . ... : ... .. . ... : ... .. . ... ...
ROW 61 : ... .. . ... ... ... : ... .. . ... ... ... : ... .. . ... : ... .. . ... : ... .. . ... ...
ROW 62 : ... .. . ... ... ... : ... .. . ... ... ... : ... .. . ... : ... .. . ... : ... .. . ... ...
ROW 63 : ... .. . ... ... ... : ... .. . ... ... ... : ... .. . ... : ... .. . ... : ... .. . ... ...
ROW 64 : ... .. . ... ... ... : ... .. . ... ... ... : ... .. . ... : ... .. . ... : ... .. . ... ...
ROW 65 : ... .. . ... ... ... : ... .. . ... ... ... : ... .. . ... : ... .. . ... : ... .. . ... ...
ROW 66 : ... .. . ... ... ... : ... .. . ... ... ... : ... .. . ... : ... .. . ... : ... .. . ... ...
ROW 67 : ... .. . ... ... ... : ... .. . ... ... ... : --- .. . ... : ... .. . ... : ... .. . ... ...
ROW 68 : ... .. . ... ... ... : ... .. . ... ... ... : ... .. . ... : ... .. . ... : ... .. . ... ...
ROW 69 : ... .. . ... ... ... : ... .. . ... ... ... : ... .. . ... : ... .. . ... : ... .. . ... ...
ROW 6A : ... .. . ... ... ... : ... .. . ... ... ... : ... .. . ... : ... .. . ... : ... .. . ... ...
ROW 6B : ... .. . ... ... ... : ... .. . ... ... ... : ... .. . ... : ... .. . ... : ... .. . ... ...
ROW 6C : ... .. . ... ... ... : ... .. . ... ... ... : ... .. . ... : ... .. . ... : ... .. . ... ...
ROW 6D : ... .. . ... ... ... : ... .. . ... ... ... : ... .. . ... : ... .. . ... : ... .. . ... ...
ROW 6E : ... .. . ... ... ... : ... .. . ... ... ... : ... .. . ... : ... .. . ... : ... .. . ... ...
ROW 6F : ... .. . ... ... ... : ... .. . ... ... ... : ... .. . ... : ... .. . ... : ... .. . ... ...
ROW 70 : ... .. . ... ... ... : ... .. . ... ... ... : C-2 00 . ... : ... .. C ... : ... .. . ... ...
ROW 71 : ... .. . ... ... ... : ... .. . ... ... ... : ... .. . ... : ... .. 8 ... : ... .. . ... ...
ROW 72 : ... .. . ... ... ... : ... .. . ... ... ... : ... .. . ... : ... .. 4 ... : ... .. . ... ...
ROW 73 : ... .. . ... ... ... : ... .. . ... ... ... : ... .. . ... : ... .. 0 ... : ... .. . ... ...
ROW 74 : ... .. . ... ... ... : ... .. . ... ... ... : ... .. . ... : ... .. . ... : ... .. . ... ...
ROW 75 : ... .. . ... ... ... : ... .. . ... ... ... : ... .. . ... : ... .. . ... : ... .. . ... ...
ROW 76 : ... .. . ... ... ... : ... .. . ... ... ... : ... .. . ... : ... .. . ... : ... .. . ... ...
ROW 77 : ... .. . ... ... ... : ... .. . ... ... ... : --- .. . ... : ... .. . ... : ... .. . ... ...
ROW 78 : ... .. . ... ... ... : ... .. . ... ... ... : G-2 00 . P80 : ... .. . ... : ... .. . ... ...
ROW 79 : ... .. . ... ... ... : ... .. . ... ... ... : ... .. . ... : ... .. . ... : ... .. . ... ...
ROW 7A : ... .. . ... ... ... : ... .. . ... ... ... : ... .. . ... : ... .. . ... : ... .. . ... ...
ROW 7B : ... .. . ... ... ... : ... .. . ... ... ... : ... .. . ... : ... .. . ... : ... .. . ... ...
ROW 7C : ... .. . ... ... ... : ... .. . ... ... ... : ... .. . ... : ... .. . ... : ... .. . ... ...
ROW 7D : ... .. . ... ... ... : ... .. . ... ... ... : ... .. . ... : ... .. . ... : ... .. . ... ...
ROW 7E : ... .. . ... ... ... : ... .. . ... ... ... : ... .. . ... : ... .. . ... : ... .. . ... ...
ROW 7F : ... .. . ... ... ... : ... .. . ... ... ... : --- .. . ... : ... .. . ... : ... .. . ... ...

PATTERN 0E
ROW 00 : ... .. . ... ... ... : ... .. . ... ... ... : C-2 00 . P7F : ... .. . ... : ... .. . ... ...
ROW 01 : ... .. . ... ... ... : ... .. . ... ... ... : ... .. . ... : ... .. . ... : ... .. . ... ...
ROW 02 : ... .. . ... ... ... : ... .. . ... ... ... : ... .. . ... : ... .. . ... : ... .. . ... ...
ROW 03 : ... .. . ... ... ... : ... .. . ... ... ... : ... .. . ... : ... .. . ... : ... .. . ... ...
ROW 04 : ... .. . ... ... ... : ... .. . ... ... ... : ... .. . ... : ... .. . ... : ... .. . ... ...
ROW 05 : ... .. . ... ... ... : ... .. . ... ... ... : ... .. . ... : ... .. . ... : ... .. . ... ...
ROW 06 : ... .. . ... ... ... : ... .. . ... ... ... : ... .. . ... : ... .. . ... : ... .. . ... ...
ROW 07 : ... .. . ... ... ... : ... .. . ... ... ... : --- .. . ... : ... .. . ... : ... .. . ... ...
ROW 08 : ... .. . ... ... ... : ... .. . ... ... ... : C-2 00 . ... : ... .. C ... : ... .. . ... ...
ROW 09 : ... .. . ... ... ... : ... .. . ... ... ... : ... .. . ... : ... .. 8 ... : ... .. . ... ...
ROW 0A : ... .. . ... ... ... : ... .. . ... ... ... : ... .. . ... : ... .. 4 ... : ... .. . ... ...
ROW 0B : ... .. . ... ... ... : ... .. . ... ... ... : ... .. . ... : ... .. 0 ... : ... .. . ... ...
ROW 0C : ... .. . ... ... ... : ... .. . ... ... ... : ... .. . ... : ... .. . ... : ... .. . ... ...
ROW 0D : ... .. . ... ... ... : ... .. . ... ... ... : ... .. . ... : ... .. . ... : ... .. . ... ...
ROW 0E : ... .. . ... ... ... : ... .. . ... ... ... : ... .. . ... : ... .. . ... : ... .. . ... ...
ROW 0F : ... .. . ... ... ... : ... .. . ... ... ... : ... .. . ... : ... .. . ... : ... .. . ... ...
ROW 10 : ... .. . ... ... ... : ... .. . ... ... ... : ... .. . ... : ... .. C ... : ... .. . ... ...
ROW 11 : ... .. . ... ... ... : ... .. . ... ... ... : ... .. . ... : ... .. 8 ... : ... .. . ... ...
ROW 12 : ... .. . ... ... ... : ... .. . ... ... ... : ... .. . ... : ... .. 4 ... : ... .. . ... ...
ROW 13 : ... .. . ... ... ... : ... .. . ... ... ... : ... .. . ... : ... .. 0 ... : ... .. . ... ...
ROW 14 : ... .. . ... ... ... : ... .. . ... ... ... : ... .. . ... : ... .. . ... : ... .. . ... ...
ROW 15 : ... .. . ... ... ... : ... .. . ... ... ... : ... .. . ... : ... .. . ... : ... .. . ... ...
ROW 16 : ... .. . ... ... ... : ... .. . ... ... ... : ... .. . ... : ... .. . ... : ... .. . ... ...
ROW 17 : ... .. . ... ... ... : ... .. . ... ... ... : --- .. . ... : ... .. . ... : ... .. . ... ...
ROW 18 : ... .. . ... ... ... : ... .. . ... ... ... : ... .. . ... : ... .. C ... : ... .. . ... ...
ROW 19 : ... .. . ... ... ... : ... .. . ... ... ... : ... .. . ... : ... .. 8 ... : ... .. . ... ...
ROW 1A : ... .. . ... ... ... : ... .. . ... ... ... : ... .. . ... : ... .. 4 ... : ... .. . ... ...
ROW 1B : ... .. . ... ... ... : ... .. . ... ... ... : ... .. . ... : ... .. 0 ... : ... .. . ... ...
ROW 1C : ... .. . ... ... ... : ... .. . ... ... ... : ... .. . ... : ... .. . ... : ... .. . ... ...
ROW 1D : ... .. . ... ... ... : ... .. . ... ... ... : ... .. . ... : ... .. . ... : ... .. . ... ...
ROW 1E : ... .. . ... ... ... : ... .. . ... ... ... : ... .. . ... : ... .. . ... : ... .. . ... ...
ROW 1F : ... .. . ... ... ... : ... .. . ... ... ... : ... .. . ... : ... .. . ... : ... .. . ... ...
ROW 20 : E-3 00 4 P80 ... ... : G-2 00 D P80 ... ... : C-2 00 . ... : ... .. C ... : ... .. . ... ...
ROW 21 : ... .. 5 ... ... ... : ... .. 9 ... ... ... : ... .. . ... : ... .. 8 ... : ... .. . ... ...
ROW 22 : ... .. 6 ... ... ... : ... .. 7 ... ... ... : ... .. . ... : ... .. 4 ... : ... .. . ... ...
ROW 23 : ... .. 7 ... ... ... : ... .. 6 ... ... ... : ... .. . ... : ... .. 0 ... : ... .. . ... ...
ROW 24 : ... .. 8 ... ... ... : ... .. 5 ... ... ... : ... .. . ... : ... .. . ... : ... .. . ... ...
ROW 25 : ... .. 7 ... ... ... : ... .. . ... ... ... : ... .. . ... : ... .. . ... : ... .. . ... ...
ROW 26 : ... .. 6 ... ... ... : ... .. . ... ... ... : ... .. . ... : ... .. . ... : ... .. . ... ...
ROW 27 : ... .. 5 ... ... ... : ... .. 4 ... ... ... : --- .. . ... : ... .. . ... : ... .. . ... ...
ROW 28 : ... .. 4 ... ... ... : ... .. . ... ... ... : G-2 00 . P80 : ... .. . ... : ... .. . ... ...
ROW 29 : ... .. . ... ... ... : ... .. . ... ... ... : ... .. . ... : ... .. . ... : ... .. . ... ...
ROW 2A : ... .. . ... ... ... : ... .. . ... ... ... : ... .. . ... : ... .. . ... : ... .. . ... ...
ROW 2B : ... .. . ... ... ... : ... .. . ... ... ... : ... .. . ... : ... .. . ... : ... .. . ... ...
ROW 2C : ... .. . ... ... ... : ... .. . ... ... ... : ... .. . ... : ... .. . ... : ... .. . ... ...
ROW 2D : ... .. . ... ... ... : ... .. . ... ... ... : ... .. . ... : ... .. . ... : ... .. . ... ...
ROW 2E : ... .. . ... ... ... : ... .. . ... ... ... : ... .. . ... : ... .. . ... : ... .. . ... ...
ROW 2F : ... .. . ... ... ... : ... .. . ... ... ... : --- .. . ... : ... .. . ... : ... .. . ... ...
ROW 30 : ... .. . ... ... ... : ... .. . ... ... ... : C-2 00 . P7F : ... .. . ... : ... .. . ... ...
ROW 31 : ... .. . ... ... ... : ... .. . ... ... ... : ... .. . ... : ... .. . ... : ... .. . ... ...
ROW 32 : ... .. . ... ... ... : ... .. . ... ... ... : ... .. . ... : ... .. . ... : ... .. . ... ...
ROW 33 : ... .. . ... ... ... : ... .. . ... ... ... : ... .. . ... : ... .. . ... : ... .. . ... ...
ROW 34 : ... .. . ... ... ... : ... .. . ... ... ... : ... .. . ... : ... .. . ... : ... .. . ... ...
ROW 35 : ... .. . ... ... ... : ... .. . ... ... ... : ... .. . ... : ... .. . ... : ... .. . ... ...
ROW 36 : ... .. . ... ... ... : ... .. . ... ... ... : ... .. . ... : ... .. . ... : ... .. . ... ...
ROW 37 : ... .. . ... ... ... : ... .. . ... ... ... : --- .. . ... : ... .. . ... : ... .. . ... ...
ROW 38 : ... .. . ... ... ... : ... .. . ... ... ... : C-2 00 . ... : ... .. C ... : ... .. . ... ...
ROW 39 : ... .. . ... ... ... : ... .. . ... ... ... : ... .. . ... : ... .. 8 ... : ... .. . ... ...
ROW 3A : ... .. . ... ... ... : ... .. . ... ... ... : ... .. . ... : ... .. 4 ... : ... .. . ... ...
ROW 3B : ... .. . ... ... ... : ... .. . ... ... ... : ... .. . ... : ... .. 0 ... : ... .. . ... ...
ROW 3C : ... .. . ... ... ... : ... .. . ... ... ... : ... .. . ... : ... .. . ... : ... .. . ... ...
ROW 3D : ... .. . ... ... ... : ... .. . ... ... ... : ... .. . ... : ... .. . ... : ... .. . ... ...
ROW 3E : ... .. . ... ... ... : ... .. . ... ... ... : ... .. . ... : ... .. . ... : ... .. . ... ...
ROW 3F : ... .. . ... ... ... : ... .. . ... ... ... : ... .. . ... : ... .. . ... : ... .. . ... ...
ROW 40 : ... .. . ... ... ... : ... .. . ... ... ... : ... .. . ... : ... .. . ... : ... .. . ... ...
ROW 41 : ... .. . ... ... ... : ... .. . ... ... ... : ... .. . ... : ... .. . ... : ... .. . ... ...
ROW 42 : ... .. . ... ... ... : ... .. . ... ... ... : ... .. . ... : ... .. . ... : ... .. . ... ...
ROW 43 : ... .. . ... ... ... : ... .. . ... ... ... : ... .. . ... : ... .. . ... : ... .. . ... ...
ROW 44 : ... .. . ... ... ... : ... .. . ... ... ... : ... .. . ... : ... .. . ... : ... .. . ... ...
ROW 45 : ... .. . ... ... ... : ... .. . ... ... ... : ... .. . ... : ... .. . ... : ... .. . ... ...
ROW 46 : ... .. . ... ... ... : ... .. . ... ... ... : ... .. . ... : ... .. . ... : ... .. . ... ...
ROW 47 : ... .. . ... ... ... : ... .. . ... ... ... : --- .. . ... : ... .. . ... : ... .. . ... ...
ROW 48 : ... .. . ... ... ... : ... .. . ... ... ... : ... .. . ... : ... .. . ... : ... .. . ... ...
ROW 49 : ... .. . ... ... ... : ... .. . ... ... ... : ... .. . ... : ... .. . ... : ... .. . ... ...
ROW 4A : ... .. . ... ... ... : ... .. . ... ... ... : ... .. . ... : ... .. . ... : ... .. . ... ...
ROW 4B : ... .. . ... ... ... : ... .. . ... ... ... : ... .. . ... : ... .. . ... : ... .. . ... ...
ROW 4C : ... .. . ... ... ... : ... .. . ... ... ... : ... .. . ... : ... .. . ... : ... .. . ... ...
ROW 4D : ... .. . ... ... ... : ... .. . ... ... ... : ... .. . ... : ... .. . ... : ... .. . ... ...
ROW 4E : ... .. . ... ... ... : ... .. . ... ... ... : ... .. . ... : ... .. . ... : ... .. . ... ...
ROW 4F : ... .. . ... ... ... : ... .. . ... ... ... : ... .. . ... : ... .. . ... : ... .. . ... ...
ROW 50 : ... .. . ... ... ... : ... .. . ... ... ... : C-2 00 . ... : ... .. C ... : ... .. . ... ...
ROW 51 : ... .. . ... ... ... : ... .. . ... ... ... : ... .. . ... : ... .. 8 ... : ... .. . ... ...
ROW 52 : ... .. . ... ... ... : ... .. . ... ... ... : ... .. . ... : ... .. 4 ... : ... .. . ... ...
ROW 53 : ... .. . ... ... ... : ... .. . ... ... ... : ... .. . ... : ... .. 0 ... : ... .. . ... ...
ROW 54 : ... .. . ... ... ... : ... .. . ... ... ... : ... .. . ... : ... .. . ... : ... .. . ... ...
ROW 55 : ... .. . ... ... ... : ... .. . ... ... ... : ... .. . ... : ... .. . ... : ... .. . ... ...
ROW 56 : ... .. . ... ... ... : ... .. . ... ... ... : ... .. . ... : ... .. . ... : ... .. . ... ...
ROW 57 : ... .. . ... ... ... : ... .. . ... ... ... : --- .. . ... : ... .. . ... : ... .. . ... ...
ROW 58 : ... .. . ... ... ... : ... .. . ... ... ... : G-2 00 . P80 : ... .. . ... : ... .. . ... ...
ROW 59 : ... .. . ... ... ... : ... .. . ... ... ... : ... .. . ... : ... .. . ... : ... .. . ... ...
ROW 5A : ... .. . ... ... ... : ... .. . ... ... ... : ... .. . ... : ... .. . ... : ... .. . ... ...
ROW 5B : ... .. . ... ... ... : ... .. . ... ... ... : ... .. . ... : ... .. . ... : ... .. . ... ...
ROW 5C : ... .. . ... ... ... : ... .. . ... ... ... : ... .. . ... : ... .. . ... : ... .. . ... ...
ROW 5D : ... .. . ... ... ... : ... .. . ... ... ... : ... .. . ... : ... .. . ... : ... .. . ... ...
ROW 5E : ... .. . ... ... ... : ... .. . ... ... ... : ... .. . ... : ... .. . ... : ... .. . ... ...
ROW 5F : ... .. . ... ... ... : ... .. . ... ... ... : --- .. . ... : ... .. . ... : ... .. . ... ...
ROW 60 : ... .. . ... ... ... : ... .. . ... ... ... : C-2 00 . P7F : ... .. . ... : ... .. . ... ...
ROW 61 : ... .. . ... ... ... : ... .. . ... ... ... : ... .. . ... : ... .. . ... : ... .. . ... ...
ROW 62 : ... .. . ... ... ... : ... .. . ... ... ... : ... .. . ... : ... .. . ... : ... .. . ... ...
ROW 63 : ... .. . ... ... ... : ... .. . ... ... ... : ... .. . ... : ... .. . ... : ... .. . ... ...
ROW 64 : ... .. . ... ... ... : ... .. . ... ... ... : ... .. . ... : ... .. . ... : ... .. . ... ...
ROW 65 : ... .. . ... ... ... : ... .. . ... ... ... : ... .. . ... : ... .. . ... : ... .. . ... ...
ROW 66 : ... .. . ... ... ... : ... .. . ... ... ... : ... .. . ... : ... .. . ... : ... .. . ... ...
ROW 67 : ... .. . ... ... ... : ... .. . ... ... ... : --- .. . ... : ... .. . ... : ... .. . ... ...
ROW 68 : ... .. . ... ... ... : ... .. . ... ... ... : C-2 00 . ... : ... .. C ... : ... .. . ... ...
ROW 69 : ... .. . ... ... ... : ... .. . ... ... ... : ... .. . ... : ... .. 8 ... : ... .. . ... ...
ROW 6A : ... .. . ... ... ... : ... .. . ... ... ... : ... .. . ... : ... .. 4 ... : ... .. . ... ...
ROW 6B : ... .. . ... ... ... : ... .. . ... ... ... : ... .. . ... : ... .. 0 ... : ... .. . ... ...
ROW 6C : ... .. . ... ... ... : ... .. . ... ... ... : ... .. . ... : ... .. . ... : ... .. . ... ...
ROW 6D : ... .. . ... ... ... : ... .. . ... ... ... : ... .. . ... : ... .. . ... : ... .. . ... ...
ROW 6E : ... .. . ... ... ... : ... .. . ... ... ... : ... .. . ... : ... .. . ... : ... .. . ... ...
ROW 6F : ... .. . ... ... ... : ... .. . ... ... ... : ... .. . ... : ... .. . ... : ... .. . ... ...
ROW 70 : ... .. . ... ... ... : ... .. . ... ... ... : ... .. . ... : ... .. C ... : ... .. . ... ...
ROW 71 : ... .. . ... ... ... : ... .. . ... ... ... : ... .. . ... : ... .. 8 ... : ... .. . ... ...
ROW 72 : ... .. . ... ... ... : ... .. . ... ... ... : ... .. . ... : ... .. 4 ... : ... .. . ... ...
ROW 73 : ... .. . ... ... ... : ... .. . ... ... ... : ... .. . ... : ... .. 0 ... : ... .. . ... ...
ROW 74 : ... .. . ... ... ... : ... .. . ... ... ... : ... .. . ... : ... .. . ... : ... .. . ... ...
ROW 75 : ... .. . ... ... ... : ... .. . ... ... ... : ... .. . ... : ... .. . ... : ... .. . ... ...
ROW 76 : ... .. . ... ... ... : ... .. . ... ... ... : ... .. . ... : ... .. . ... : ... .. . ... ...
ROW 77 : ... .. . ... ... ... : ... .. . ... ... ... : --- .. . ... : ... .. . ... : ... .. . ... ...
ROW 78 : ... .. . ... ... ... : ... .. . ... ... ... : ... .. . ... : ... .. C ... : ... .. . ... ...
ROW 79 : ... .. . ... ... ... : ... .. . ... ... ... : ... .. . ... : ... .. 8 ... : ... .. . ... ...
ROW 7A : ... .. . ... ... ... : ... .. . ... ... ... : ... .. . ... : ... .. 4 ... : ... .. . ... ...
ROW 7B : ... .. . ... ... ... : ... .. . ... ... ... : ... .. . ... : ... .. 0 ... : ... .. . ... ...
ROW 7C : ... .. . ... ... ... : ... .. . ... ... ... : ... .. . ... : ... .. . ... : ... .. . ... ...
ROW 7D : ... .. . ... ... ... : ... .. . ... ... ... : ... .. . ... : ... .. . ... : ... .. . ... ...
ROW 7E : ... .. . ... ... ... : ... .. . ... ... ... : ... .. . ... : ... .. . ... : ... .. . ... ...
ROW 7F : ... .. . ... ... ... : ... .. . ... ... ... : ... .. . ... : ... .. . ... : ... .. . ... ...

PATTERN 0F
ROW 00 : F-3 00 4 P80 ... ... : A-3 00 D P80 ... ... : D#2 00 . ... : ... .. C ... : ... .. . ... ...
ROW 01 : ... .. 5 ... ... ... : ... .. 9 ... ... ... : ... .. . ... : ... .. 8 ... : ... .. . ... ...
ROW 02 : ... .. 6 ... ... ... : ... .. 7 ... ... ... : ... .. . ... : ... .. 4 ... : ... .. . ... ...
ROW 03 : ... .. 7 ... ... ... : ... .. 6 ... ... ... : ... .. . ... : ... .. 0 ... : ... .. . ... ...
ROW 04 : ... .. 8 ... ... ... : ... .. 5 ... ... ... : ... .. . ... : ... .. . ... : ... .. . ... ...
ROW 05 : ... .. 7 ... ... ... : ... .. . ... ... ... : ... .. . ... : ... .. . ... : ... .. . ... ...
ROW 06 : ... .. 6 ... ... ... : ... .. . ... ... ... : ... .. . ... : ... .. . ... : ... .. . ... ...
ROW 07 : ... .. 5 ... ... ... : ... .. 4 ... ... ... : ... .. . ... : ... .. . ... : ... .. . ... ...
ROW 08 : ... .. 4 ... ... ... : ... .. . ... ... ... : ... .. . ... : ... .. . ... : ... .. . ... ...
ROW 09 : ... .. . ... ... ... : ... .. . ... ... ... : ... .. . ... : ... .. . ... : ... .. . ... ...
ROW 0A : ... .. . ... ... ... : ... .. . ... ... ... : ... .. . ... : ... .. . ... : ... .. . ... ...
ROW 0B : ... .. . ... ... ... : ... .. . ... ... ... : ... .. . ... : ... .. . ... : ... .. . ... ...
ROW 0C : ... .. . ... ... ... : ... .. . ... ... ... : ... .. . ... : ... .. . ... : ... .. . ... ...
ROW 0D : ... .. . ... ... ... : ... .. . ... ... ... : ... .. . ... : ... .. . ... : ... .. . ... ...
ROW 0E : ... .. . ... ... ... : ... .. . ... ... ... : ... .. . ... : ... .. . ... : ... .. . ... ...
ROW 0F : ... .. . ... ... ... : ... .. . ... ... ... : --- .. . ... : ... .. . ... : ... .. . ... ...
ROW 10 : ... .. . ... ... ... : ... .. . ... ... ... : ... .. . ... : ... .. . ... : ... .. . ... ...
ROW 11 : ... .. . ... ... ... : ... .. . ... ... ... : ... .. . ... : ... .. . ... : ... .. . ... ...
ROW 12 : ... .. . ... ... ... : ... .. . ... ... ... : ... .. . ... : ... .. . ... : ... .. . ... ...
ROW 13 : ... .. . ... ... ... : ... .. . ... ... ... : ... .. . ... : ... .. . ... : ... .. . ... ...
ROW 14 : ... .. . ... ... ... : ... .. . ... ... ... : ... .. . ... : ... .. . ... : ... .. . ... ...
ROW 15 : ... .. . ... ... ... : ... .. . ... ... ... : ... .. . ... : ... .. . ... : ... .. . ... ...
ROW 16 : ... .. . ... ... ... : ... .. . ... ... ... : ... .. . ... : ... .. . ... : ... .. . ... ...
ROW 17 : ... .. . ... ... ... : ... .. . ... ... ... : ... .. . ... : ... .. . ... : ... .. . ... ...
ROW 18 : C-3 00 4 P80 ... ... : ... .. . ... ... ... : D#2 00 . ... : ... .. C ... : ... .. . ... ...
ROW 19 : ... .. 5 ... ... ... : ... .. . ... ... ... : ... .. . ... : ... .. 8 ... : ... .. . ... ...
ROW 1A : ... .. 6 ... ... ... : ... .. . ... ... ... : ... .. . ... : ... .. 4 ... : ... .. . ... ...
ROW 1B : ... .. 7 ... ... ... : ... .. . ... ... ... : ... .. . ... : ... .. 0 ... : ... .. . ... ...
ROW 1C : ... .. 8 ... ... ... : ... .. . ... ... ... : ... .. . ... : ... .. . ... : ... .. . ... ...
ROW 1D : ... .. 7 ... ... ... : ... .. . ... ... ... : ... .. . ... : ... .. . ... : ... .. . ... ...
ROW 1E : ... .. 6 ... ... ... : ... .. . ... ... ... : ... .. . ... : ... .. . ... : ... .. . ... ...
ROW 1F : ... .. 5 ... ... ... : ... .. . ... ... ... : --- .. . ... : ... .. . ... : ... .. . ... ...
ROW 20 : ... .. 4 ... ... ... : ... .. . ... ... ... : C-2 00 . ... : ... .. . ... : ... .. . ... ...
ROW 21 : ... .. . ... ... ... : ... .. . ... ... ... : ... .. . ... : ... .. . ... : ... .. . ... ...
ROW 22 : ... .. . ... ... ... : ... .. . ... ... ... : ... .. . ... : ... .. . ... : ... .. . ... ...
ROW 23 : ... .. . ... ... ... : ... .. . ... ... ... : ... .. . ... : ... .. . ... : ... .. . ... ...
ROW 24 : ... .. . ... ... ... : ... .. . ... ... ... : ... .. . ... : ... .. . ... : ... .. . ... ...
ROW 25 : ... .. . ... ... ... : ... .. . ... ... ... : ... .. . ... : ... .. . ... : ... .. . ... ...
ROW 26 : ... .. . ... ... ... : ... .. . ... ... ... : ... .. . ... : ... .. . ... : ... .. . ... ...
ROW 27 : ... .. . ... ... ... : ... .. . ... ... ... : --- .. . ... : ... .. . ... : ... .. . ... ...
ROW 28 : ... .. . ... ... ... : ... .. . ... ... ... : D#2 00 . ... : ... .. . ... : ... .. . ... ...
ROW 29 : ... .. . ... ... ... : ... .. . ... ... ... : ... .. . ... : ... .. . ... : ... .. . ... ...
ROW 2A : ... .. . ... ... ... : ... .. . ... ... ... : ... .. . ... : ... .. . ... : ... .. . ... ...
ROW 2B : ... .. . ... ... ... : ... .. . ... ... ... : ... .. . ... : ... .. . ... : ... .. . ... ...
ROW 2C : ... .. . ... ... ... : ... .. . ... ... ... : ... .. . ... : ... .. . ... : ... .. . ... ...
ROW 2D : ... .. . ... ... ... : ... .. . ... ... ... : ... .. . ... : ... .. . ... : ... .. . ... ...
ROW 2E : ... .. . ... ... ... : ... .. . ... ... ... : ... .. . ... : ... .. . ... : ... .. . ... ...
ROW 2F : ... .. . ... ... ... : ... .. . ... ... ... : --- .. . ... : ... .. . ... : ... .. . ... ...
ROW 30 : A-2 00 4 P7F ... ... : ... .. . ... ... ... : D#2 00 . ... : ... .. C ... : ... .. . ... ...
ROW 31 : ... .. 5 ... ... ... : ... .. . ... ... ... : ... .. . ... : ... .. 8 ... : ... .. . ... ...
ROW 32 : ... .. 6 ... ... ... : ... .. . ... ... ... : ... .. . ... : ... .. 4 ... : ... .. . ... ...
ROW 33 : ... .. 7 ... ... ... : ... .. . ... ... ... : ... .. . ... : ... .. 0 ... : ... .. . ... ...
ROW 34 : ... .. 8 ... ... ... : ... .. . ... ... ... : ... .. . ... : ... .. . ... : ... .. . ... ...
ROW 35 : ... .. 7 ... ... ... : ... .. . ... ... ... : ... .. . ... : ... .. . ... : ... .. . ... ...
ROW 36 : ... .. 6 ... ... ... : ... .. . ... ... ... : ... .. . ... : ... .. . ... : ... .. . ... ...
ROW 37 : ... .. 5 ... ... ... : ... .. . ... ... ... : ... .. . ... : ... .. . ... : ... .. . ... ...
ROW 38 : ... .. 4 ... ... ... : ... .. . ... ... ... : ... .. . ... : ... .. . ... : ... .. . ... ...
ROW 39 : ... .. . ... ... ... : ... .. . ... ... ... : ... .. . ... : ... .. . ... : ... .. . ... ...
ROW 3A : ... .. . ... ... ... : ... .. . ... ... ... : ... .. . ... : ... .. . ... : ... .. . ... ...
ROW 3B : ... .. . ... ... ... : ... .. . ... ... ... : ... .. . ... : ... .. . ... : ... .. . ... ...
ROW 3C : ... .. . ... ... ... : ... .. . ... ... ... : ... .. . ... : ... .. . ... : ... .. . ... ...
ROW 3D : ... .. . ... ... ... : ... .. . ... ... ... : ... .. . ... : ... .. . ... : ... .. . ... ...
ROW 3E : ... .. . ... ... ... : ... .. . ... ... ... : ... .. . ... : ... .. . ... : ... .. . ... ...
ROW 3F : ... .. . ... ... ... : ... .. . ... ... ... : --- .. . ... : ... .. . ... : ... .. . ... ...
ROW 40 : ... .. . ... ... ... : ... .. . ... ... ... : ... .. . ... : ... .. . ... : ... .. . ... ...
ROW 41 : ... .. . ... ... ... : ... .. . ... ... ... : ... .. . ... : ... .. . ... : ... .. . ... ...
ROW 42 : ... .. . ... ... ... : ... .. . ... ... ... : ... .. . ... : ... .. . ... : ... .. . ... ...
ROW 43 : ... .. . ... ... ... : ... .. . ... ... ... : ... .. . ... : ... .. . ... : ... .. . ... ...
ROW 44 : ... .. . ... ... ... : ... .. . ... ... ... : ... .. . ... : ... .. . ... : ... .. . ... ...
ROW 45 : ... .. . ... ... ... : ... .. . ... ... ... : ... .. . ... : ... .. . ... : ... .. . ... ...
ROW 46 : ... .. . ... ... ... : ... .. . ... ... ... : ... .. . ... : ... .. . ... : ... .. . ... ...
ROW 47 : ... .. . ... ... ... : ... .. . ... ... ... : ... .. . ... : ... .. . ... : ... .. . ... ...
ROW 48 : C-3 00 4 P80 ... ... : A-3 00 D P80 ... ... : D#2 00 . ... : ... .. C ... : ... .. . ... ...
ROW 49 : ... .. 5 ... ... ... : ... .. 9 ... ... ... : ... .. . ... : ... .. 8 ... : ... .. . ... ...
ROW 4A : ... .. 6 ... ... ... : ... .. 7 ... ... ... : ... .. . ... : ... .. 4 ... : ... .. . ... ...
ROW 4B : ... .. 7 ... ... ... : ... .. 6 ... ... ... : ... .. . ... : ... .. 0 ... : ... .. . ... ...
ROW 4C : ... .. 8 ... ... ... : ... .. 5 ... ... ... : ... .. . ... : ... .. . ... : ... .. . ... ...
ROW 4D : ... .. 7 ... ... ... : ... .. . ... ... ... : ... .. . ... : ... .. . ... : ... .. . ... ...
ROW 4E : ... .. 6 ... ... ... : ... .. . ... ... ... : ... .. . ... : ... .. . ... : ... .. . ... ...
ROW 4F : ... .. 5 ... ... ... : ... .. 4 ... ... ... : --- .. . ... : ... .. . ... : ... .. . ... ...
ROW 50 : A#2 00 4 P80 ... ... : G-3 00 D P80 ... ... : C-2 00 . ... : ... .. C ... : ... .. . ... ...
ROW 51 : ... .. 5 ... ... ... : ... .. 9 ... ... ... : ... .. . ... : ... .. 8 ... : ... .. . ... ...
ROW 52 : ... .. 6 ... ... ... : ... .. 7 ... ... ... : ... .. . ... : ... .. 4 ... : ... .. . ... ...
ROW 53 : ... .. 7 ... ... ... : ... .. 6 ... ... ... : ... .. . ... : ... .. 0 ... : ... .. . ... ...
ROW 54 : ... .. 8 ... ... ... : ... .. 5 ... ... ... : ... .. . ... : ... .. . ... : ... .. . ... ...
ROW 55 : ... .. 7 ... ... ... : ... .. . ... ... ... : ... .. . ... : ... .. . ... : ... .. . ... ...
ROW 56 : ... .. 6 ... ... ... : ... .. . ... ... ... : ... .. . ... : ... .. . ... : ... .. . ... ...
ROW 57 : ... .. 5 ... ... ... : ... .. 4 ... ... ... : --- .. . ... : ... .. . ... : ... .. . ... ...
ROW 58 : C-3 00 4 P80 ... ... : A-3 00 D P80 ... ... : D#2 00 . ... : ... .. C ... : ... .. . ... ...
ROW 59 : ... .. 5 ... ... ... : ... .. 9 ... ... ... : ... .. . ... : ... .. 8 ... : ... .. . ... ...
ROW 5A : ... .. 6 ... ... ... : ... .. 7 ... ... ... : ... .. . ... : ... .. 4 ... : ... .. . ... ...
ROW 5B : ... .. 7 ... ... ... : ... .. 6 ... ... ... : ... .. . ... : ... .. 0 ... : ... .. . ... ...
ROW 5C : ... .. 8 ... ... ... : ... .. 5 ... ... ... : ... .. . ... : ... .. . ... : ... .. . ... ...
ROW 5D : ... .. 7 ... ... ... : ... .. . ... ... ... : ... .. . ... : ... .. . ... : ... .. . ... ...
ROW 5E : ... .. 6 ... ... ... : ... .. . ... ... ... : ... .. . ... : ... .. . ... : ... .. . ... ...
ROW 5F : ... .. 5 ... ... ... : ... .. 4 ... ... ... : --- .. . ... : ... .. . ... : ... .. . ... ...
ROW 60 : D-3 00 4 P80 ... ... : A#3 00 D P81 ... ... : D-2 00 . P80 : ... .. C ... : ... .. . ... ...
ROW 61 : ... .. 5 ... ... ... : ... .. 9 ... ... ... : ... .. . ... : ... .. 8 ... : ... .. . ... ...
ROW 62 : ... .. 6 ... ... ... : ... .. 7 ... ... ... : ... .. . ... : ... .. 4 ... : ... .. . ... ...
ROW 63 : ... .. 7 ... ... ... : ... .. 6 ... ... ... : ... .. . ... : ... .. 0 ... : ... .. . ... ...
ROW 64 : ... .. 8 ... ... ... : ... .. 5 ... ... ... : ... .. . ... : ... .. . ... : ... .. . ... ...
ROW 65 : ... .. 7 ... ... ... : ... .. . ... ... ... : ... .. . ... : ... .. . ... : ... .. . ... ...
ROW 66 : ... .. 6 ... ... ... : ... .. . ... ... ... : ... .. . ... : ... .. . ... : ... .. . ... ...
ROW 67 : ... .. 5 ... ... ... : ... .. 4 ... ... ... : ... .. . ... : ... .. . ... : ... .. . ... ...
ROW 68 : ... .. 4 ... ... ... : ... .. . ... ... ... : ... .. . ... : ... .. . ... : ... .. . ... ...
ROW 69 : ... .. . ... ... ... : ... .. . ... ... ... : ... .. . ... : ... .. . ... : ... .. . ... ...
ROW 6A : ... .. . ... ... ... : ... .. . ... ... ... : ... .. . ... : ... .. . ... : ... .. . ... ...
ROW 6B : ... .. . ... ... ... : ... .. . ... ... ... : ... .. . ... : ... .. . ... : ... .. . ... ...
ROW 6C : ... .. . ... ... ... : ... .. . ... ... ... : ... .. . ... : ... .. . ... : ... .. . ... ...
ROW 6D : ... .. . ... ... ... : ... .. . ... ... ... : ... .. . ... : ... .. . ... : ... .. . ... ...
ROW 6E : ... .. . ... ... ... : ... .. . ... ... ... : ... .. . ... : ... .. . ... : ... .. . ... ...
ROW 6F : ... .. . ... ... ... : ... .. . ... ... ... : --- .. . ... : ... .. . ... : ... .. . ... ...
ROW 70 : ... .. . ... ... ... : ... .. . ... ... ... : ... .. . ... : ... .. . ... : ... .. . ... ...
ROW 71 : ... .. . ... ... ... : ... .. . ... ... ... : ... .. . ... : ... .. . ... : ... .. . ... ...
ROW 72 : ... .. . ... ... ... : ... .. . ... ... ... : ... .. . ... : ... .. . ... : ... .. . ... ...
ROW 73 : ... .. . ... ... ... : ... .. . ... ... ... : ... .. . ... : ... .. . ... : ... .. . ... ...
ROW 74 : ... .. . ... ... ... : ... .. . ... ... ... : ... .. . ... : ... .. . ... : ... .. . ... ...
ROW 75 : ... .. . ... ... ... : ... .. . ... ... ... : ... .. . ... : ... .. . ... : ... .. . ... ...
ROW 76 : ... .. . ... ... ... : ... .. . ... ... ... : ... .. . ... : ... .. . ... : ... .. . ... ...
ROW 77 : ... .. . ... ... ... : ... .. . ... ... ... : ... .. . ... : ... .. . ... : ... .. . ... ...
ROW 78 : F-3 00 4 P80 ... ... : ... .. . ... ... ... : D-2 00 . ... : ... .. C ... : ... .. . ... ...
ROW 79 : ... .. 5 ... ... ... : ... .. . ... ... ... : ... .. . ... : ... .. 8 ... : ... .. . ... ...
ROW 7A : ... .. 6 ... ... ... : ... .. . ... ... ... : ... .. . ... : ... .. 4 ... : ... .. . ... ...
ROW 7B : ... .. 7 ... ... ... : ... .. . ... ... ... : ... .. . ... : ... .. 0 ... : ... .. . ... ...
ROW 7C : ... .. 8 ... ... ... : ... .. . ... ... ... : ... .. . ... : ... .. . ... : ... .. . ... ...
ROW 7D : ... .. 7 ... ... ... : ... .. . ... ... ... : ... .. . ... : ... .. . ... : ... .. . ... ...
ROW 7E : ... .. 6 ... ... ... : ... .. . ... ... ... : ... .. . ... : ... .. . ... : ... .. . ... ...
ROW 7F : ... .. 5 ... ... ... : ... .. . ... ... ... : --- .. . ... : ... .. . ... : ... .. . ... ...

PATTERN 10
ROW 00 : ... .. 4 ... ... ... : ... .. . ... ... ... : A#1 00 . ... : ... .. . ... : ... .. . ... ...
ROW 01 : ... .. . ... ... ... : ... .. . ... ... ... : ... .. . ... : ... .. . ... : ... .. . ... ...
ROW 02 : ... .. . ... ... ... : ... .. . ... ... ... : ... .. . ... : ... .. . ... : ... .. . ... ...
ROW 03 : ... .. . ... ... ... : ... .. . ... ... ... : ... .. . ... : ... .. . ... : ... .. . ... ...
ROW 04 : ... .. . ... ... ... : ... .. . ... ... ... : ... .. . ... : ... .. . ... : ... .. . ... ...
ROW 05 : ... .. . ... ... ... : ... .. . ... ... ... : ... .. . ... : ... .. . ... : ... .. . ... ...
ROW 06 : ... .. . ... ... ... : ... .. . ... ... ... : ... .. . ... : ... .. . ... : ... .. . ... ...
ROW 07 : ... .. . ... ... ... : ... .. . ... ... ... : --- .. . ... : ... .. . ... : ... .. . ... ...
ROW 08 : ... .. . ... ... ... : ... .. . ... ... ... : D-2 00 . ... : ... .. . ... : ... .. . ... ...
ROW 09 : ... .. . ... ... ... : ... .. . ... ... ... : ... .. . ... : ... .. . ... : ... .. . ... ...
ROW 0A : ... .. . ... ... ... : ... .. . ... ... ... : ... .. . ... : ... .. . ... : ... .. . ... ...
ROW 0B : ... .. . ... ... ... : ... .. . ... ... ... : ... .. . ... : ... .. . ... : ... .. . ... ...
ROW 0C : ... .. . ... ... ... : ... .. . ... ... ... : ... .. . ... : ... .. . ... : ... .. . ... ...
ROW 0D : ... .. . ... ... ... : ... .. . ... ... ... : ... .. . ... : ... .. . ... : ... .. . ... ...
ROW 0E : ... .. . ... ... ... : ... .. . ... ... ... : ... .. . ... : ... .. . ... : ... .. . ... ...
ROW 0F : ... .. . ... ... ... : ... .. . ... ... ... : --- .. . ... : ... .. . ... : ... .. . ... ...
ROW 10 : C-3 00 4 P80 ... ... : F-3 00 D P80 ... ... : D-2 00 . ... : ... .. C ... : ... .. . ... ...
ROW 11 : ... .. 5 ... ... ... : ... .. 9 ... ... ... : ... .. . ... : ... .. 8 ... : ... .. . ... ...
ROW 12 : ... .. 6 ... ... ... : ... .. 7 ... ... ... : ... .. . ... : ... .. 4 ... : ... .. . ... ...
ROW 13 : ... .. 7 ... ... ... : ... .. 6 ... ... ... : ... .. . ... : ... .. 0 ... : ... .. . ... ...
ROW 14 : ... .. 8 ... ... ... : ... .. 5 ... ... ... : ... .. . ... : ... .. . ... : ... .. . ... ...
ROW 15 : ... .. 7 ... ... ... : ... .. . ... ... ... : ... .. . ... : ... .. . ... : ... .. . ... ...
ROW 16 : ... .. 6 ... ... ... : ... .. . ... ... ... : ... .. . ... : ... .. . ... : ... .. . ... ...
ROW 17 : ... .. 5 ... ... ... : ... .. 4 ... ... ... : ... .. . ... : ... .. . ... : ... .. . ... ...
ROW 18 : ... .. 4 ... ... ... : ... .. . ... ... ... : ... .. . ... : ... .. . ... : ... .. . ... ...
ROW 19 : ... .. . ... ... ... : ... .. . ... ... ... : ... .. . ... : ... .. . ... : ... .. . ... ...
ROW 1A : ... .. . ... ... ... : ... .. . ... ... ... : ... .. . ... : ... .. . ... : ... .. . ... ...
ROW 1B : ... .. . ... ... ... : ... .. . ... ... ... : ... .. . ... : ... .. . ... : ... .. . ... ...
ROW 1C : ... .. . ... ... ... : ... .. . ... ... ... : ... .. . ... : ... .. . ... : ... .. . ... ...
ROW 1D : ... .. . ... ... ... : ... .. . ... ... ... : ... .. . ... : ... .. . ... : ... .. . ... ...
ROW 1E : ... .. . ... ... ... : ... .. . ... ... ... : ... .. . ... : ... .. . ... : ... .. . ... ...
ROW 1F : ... .. . ... ... ... : ... .. . ... ... ... : --- .. . ... : ... .. . ... : ... .. . ... ...
ROW 20 : ... .. . ... ... ... : ... .. . ... ... ... : ... .. . ... : ... .. . ... : ... .. . ... ...
ROW 21 : ... .. . ... ... ... : ... .. . ... ... ... : ... .. . ... : ... .. . ... : ... .. . ... ...
ROW 22 : ... .. . ... ... ... : ... .. . ... ... ... : ... .. . ... : ... .. . ... : ... .. . ... ...
ROW 23 : ... .. . ... ... ... : ... .. . ... ... ... : ... .. . ... : ... .. . ... : ... .. . ... ...
ROW 24 : ... .. . ... ... ... : ... .. . ... ... ... : ... .. . ... : ... .. . ... : ... .. . ... ...
ROW 25 : ... .. . ... ... ... : ... .. . ... ... ... : ... .. . ... : ... .. . ... : ... .. . ... ...
ROW 26 : ... .. . ... ... ... : ... .. . ... ... ... : ... .. . ... : ... .. . ... : ... .. . ... ...
ROW 27 : ... .. . ... ... ... : ... .. . ... ... ... : ... .. . ... : ... .. . ... : ... .. . ... ...
ROW 28 : ... .. . ... ... ... : C-3 00 D P80 ... ... : D-2 00 . ... : ... .. C ... : ... .. . ... ...
ROW 29 : ... .. . ... ... ... : ... .. 9 ... ... ... : ... .. . ... : ... .. 8 ... : ... .. . ... ...
ROW 2A : ... .. . ... ... ... : ... .. 7 ... ... ... : ... .. . ... : ... .. 4 ... : ... .. . ... ...
ROW 2B : ... .. . ... ... ... : ... .. 6 ... ... ... : ... .. . ... : ... .. 0 ... : ... .. . ... ...
ROW 2C : ... .. . ... ... ... : ... .. 5 ... ... ... : ... .. . ... : ... .. . ... : ... .. . ... ...
ROW 2D : ... .. . ... ... ... : ... .. . ... ... ... : ... .. . ... : ... .. . ... : ... .. . ... ...
ROW 2E : ... .. . ... ... ... : ... .. . ... ... ... : ... .. . ... : ... .. . ... : ... .. . ... ...
ROW 2F : ... .. . ... ... ... : ... .. 4 ... ... ... : --- .. . ... : ... .. . ... : ... .. . ... ...
ROW 30 : ... .. . ... ... ... : F-3 00 D P80 ... ... : A#1 00 . ... : ... .. C ... : ... .. . ... ...
ROW 31 : ... .. . ... ... ... : ... .. 9 ... ... ... : ... .. . ... : ... .. 8 ... : ... .. . ... ...
ROW 32 : ... .. . ... ... ... : ... .. 7 ... ... ... : ... .. . ... : ... .. 4 ... : ... .. . ... ...
ROW 33 : ... .. . ... ... ... : ... .. 6 ... ... ... : ... .. . ... : ... .. 0 ... : ... .. . ... ...
ROW 34 : ... .. . ... ... ... : ... .. 5 ... ... ... : ... .. . ... : ... .. . ... : ... .. . ... ...
ROW 35 : ... .. . ... ... ... : ... .. . ... ... ... : ... .. . ... : ... .. . ... : ... .. . ... ...
ROW 36 : ... .. . ... ... ... : ... .. . ... ... ... : ... .. . ... : ... .. . ... : ... .. . ... ...
ROW 37 : ... .. . ... ... ... : ... .. 4 ... ... ... : --- .. . ... : ... .. . ... : ... .. . ... ...
ROW 38 : ... .. . ... ... ... : G-3 00 D P80 ... ... : D-2 00 . ... : ... .. C ... : ... .. . ... ...
ROW 39 : ... .. . ... ... ... : ... .. 9 ... ... ... : ... .. . ... : ... .. 8 ... : ... .. . ... ...
ROW 3A : ... .. . ... ... ... : ... .. 7 ... ... ... : ... .. . ... : ... .. 4 ... : ... .. . ... ...
ROW 3B : ... .. . ... ... ... : ... .. 6 ... ... ... : ... .. . ... : ... .. 0 ... : ... .. . ... ...
ROW 3C : ... .. . ... ... ... : ... .. 5 ... ... ... : ... .. . ... : ... .. . ... : ... .. . ... ...
ROW 3D : ... .. . ... ... ... : ... .. . ... ... ... : ... .. . ... : ... .. . ... : ... .. . ... ...
ROW 3E : ... .. . ... ... ... : ... .. . ... ... ... : ... .. . ... : ... .. . ... : ... .. . ... ...
ROW 3F : ... .. . ... ... ... : ... .. 4 ... ... ... : --- .. . ... : ... .. . ... : ... .. . ... ...
ROW 40 : D#3 00 4 P80 ... ... : A-3 00 D P80 ... ... : D#2 00 . P7F : ... .. C ... : ... .. . ... ...
ROW 41 : ... .. 5 ... ... ... : ... .. 9 ... ... ... : ... .. . ... : ... .. 8 ... : ... .. . ... ...
ROW 42 : ... .. 6 ... ... ... : ... .. 7 ... ... ... : ... .. . ... : ... .. 4 ... : ... .. . ... ...
ROW 43 : ... .. 7 ... ... ... : ... .. 6 ... ... ... : ... .. . ... : ... .. 0 ... : ... .. . ... ...
ROW 44 : ... .. 8 ... ... ... : ... .. 5 ... ... ... : ... .. . ... : ... .. . ... : ... .. . ... ...
ROW 45 : ... .. 7 ... ... ... : ... .. . ... ... ... : ... .. . ... : ... .. . ... : ... .. . ... ...
ROW 46 : ... .. 6 ... ... ... : ... .. . ... ... ... : ... .. . ... : ... .. . ... : ... .. . ... ...
ROW 47 : ... .. 5 ... ... ... : ... .. 4 ... ... ... : ... .. . ... : ... .. . ... : ... .. . ... ...
ROW 48 : ... .. 4 ... ... ... : ... .. . ... ... ... : ... .. . ... : ... .. . ... : ... .. . ... ...
ROW 49 : ... .. . ... ... ... : ... .. . ... ... ... : ... .. . ... : ... .. . ... : ... .. . ... ...
ROW 4A : ... .. . ... ... ... : ... .. . ... ... ... : ... .. . ... : ... .. . ... : ... .. . ... ...
ROW 4B : ... .. . ... ... ... : ... .. . ... ... ... : ... .. . ... : ... .. . ... : ... .. . ... ...
ROW 4C : ... .. . ... ... ... : ... .. . ... ... ... : ... .. . ... : ... .. . ... : ... .. . ... ...
ROW 4D : ... .. . ... ... ... : ... .. . ... ... ... : ... .. . ... : ... .. . ... : ... .. . ... ...
ROW 4E : ... .. . ... ... ... : ... .. . ... ... ... : ... .. . ... : ... .. . ... : ... .. . ... ...
ROW 4F : ... .. . ... ... ... : ... .. . ... ... ... : --- .. . ... : ... .. . ... : ... .. . ... ...
ROW 50 : ... .. . ... ... ... : ... .. . ... ... ... : ... .. . ... : ... .. . ... : ... .. . ... ...
ROW 51 : ... .. . ... ... ... : ... .. . ... ... ... : ... .. . ... : ... .. . ... : ... .. . ... ...
ROW 52 : ... .. . ... ... ... : ... .. . ... ... ... : ... .. . ... : ... .. . ... : ... .. . ... ...
ROW 53 : ... .. . ... ... ... : ... .. . ... ... ... : ... .. . ... : ... .. . ... : ... .. . ... ...
ROW 54 : ... .. . ... ... ... : ... .. . ... ... ... : ... .. . ... : ... .. . ... : ... .. . ... ...
ROW 55 : ... .. . ... ... ... : ... .. . ... ... ... : ... .. . ... : ... .. . ... : ... .. . ... ...
ROW 56 : ... .. . ... ... ... : ... .. . ... ... ... : ... .. . ... : ... .. . ... : ... .. . ... ...
ROW 57 : ... .. . ... ... ... : ... .. . ... ... ... : ... .. . ... : ... .. . ... : ... .. . ... ...
ROW 58 : A-2 00 4 P7F ... ... : ... .. . ... ... ... : D#2 00 . ... : ... .. C ... : ... .. . ... ...
ROW 59 : ... .. 5 ... ... ... : ... .. . ... ... ... : ... .. . ... : ... .. 8 ... : ... .. . ... ...
ROW 5A : ... .. 6 ... ... ... : ... .. . ... ... ... : ... .. . ... : ... .. 4 ... : ... .. . ... ...
ROW 5B : ... .. 7 ... ... ... : ... .. . ... ... ... : ... .. . ... : ... .. 0 ... : ... .. . ... ...
ROW 5C : ... .. 8 ... ... ... : ... .. . ... ... ... : ... .. . ... : ... .. . ... : ... .. . ... ...
ROW 5D : ... .. 7 ... ... ... : ... .. . ... ... ... : ... .. . ... : ... .. . ... : ... .. . ... ...
ROW 5E : ... .. 6 ... ... ... : ... .. . ... ... ... : ... .. . ... : ... .. . ... : ... .. . ... ...
ROW 5F : ... .. 5 ... ... ... : ... .. . ... ... ... : --- .. . ... : ... .. . ... : ... .. . ... ...
ROW 60 : ... .. 4 ... ... ... : ... .. . ... ... ... : C-2 00 . ... : ... .. . ... : ... .. . ... ...
ROW 61 : ... .. . ... ... ... : ... .. . ... ... ... : ... .. . ... : ... .. . ... : ... .. . ... ...
ROW 62 : ... .. . ... ... ... : ... .. . ... ... ... : ... .. . ... : ... .. . ... : ... .. . ... ...
ROW 63 : ... .. . ... ... ... : ... .. . ... ... ... : ... .. . ... : ... .. . ... : ... .. . ... ...
ROW 64 : ... .. . ... ... ... : ... .. . ... ... ... : ... .. . ... : ... .. . ... : ... .. . ... ...
ROW 65 : ... .. . ... ... ... : ... .. . ... ... ... : ... .. . ... : ... .. . ... : ... .. . ... ...
ROW 66 : ... .. . ... ... ... : ... .. . ... ... ... : ... .. . ... : ... .. . ... : ... .. . ... ...
ROW 67 : ... .. . ... ... ... : ... .. . ... ... ... : --- .. . ... : ... .. . ... : ... .. . ... ...
ROW 68 : ... .. . ... ... ... : ... .. . ... ... ... : D#2 00 . ... : ... .. . ... : ... .. . ... ...
ROW 69 : ... .. . ... ... ... : ... .. . ... ... ... : ... .. . ... : ... .. . ... : ... .. . ... ...
ROW 6A : ... .. . ... ... ... : ... .. . ... ... ... : ... .. . ... : ... .. . ... : ... .. . ... ...
ROW 6B : ... .. . ... ... ... : ... .. . ... ... ... : ... .. . ... : ... .. . ... : ... .. . ... ...
ROW 6C : ... .. . ... ... ... : ... .. . ... ... ... : ... .. . ... : ... .. . ... : ... .. . ... ...
ROW 6D : ... .. . ... ... ... : ... .. . ... ... ... : ... .. . ... : ... .. . ... : ... .. . ... ...
ROW 6E : ... .. . ... ... ... : ... .. . ... ... ... : ... .. . ... : ... .. . ... : ... .. . ... ...
ROW 6F : ... .. . ... ... ... : ... .. . ... ... ... : --- .. . ... : ... .. . ... : ... .. . ... ...
ROW 70 : F-2 00 4 P80 ... ... : ... .. . ... ... ... : D#2 00 . ... : ... .. C ... : ... .. . ... ...
ROW 71 : ... .. 5 ... ... ... : ... .. . ... ... ... : ... .. . ... : ... .. 8 ... : ... .. . ... ...
ROW 72 : ... .. 6 ... ... ... : ... .. . ... ... ... : ... .. . ... : ... .. 4 ... : ... .. . ... ...
ROW 73 : ... .. 7 ... ... ... : ... .. . ... ... ... : ... .. . ... : ... .. 0 ... : ... .. . ... ...
ROW 74 : ... .. 8 ... ... ... : ... .. . ... ... ... : ... .. . ... : ... .. . ... : ... .. . ... ...
ROW 75 : ... .. 7 ... ... ... : ... .. . ... ... ... : ... .. . ... : ... .. . ... : ... .. . ... ...
ROW 76 : ... .. 6 ... ... ... : ... .. . ... ... ... : ... .. . ... : ... .. . ... : ... .. . ... ...
ROW 77 : ... .. 5 ... ... ... : ... .. . ... ... ... : ... .. . ... : ... .. . ... : ... .. . ... ...
ROW 78 : ... .. 4 ... ... ... : ... .. . ... ... ... : ... .. . ... : ... .. . ... : ... .. . ... ...
ROW 79 : ... .. . ... ... ... : ... .. . ... ... ... : ... .. . ... : ... .. . ... : ... .. . ... ...
ROW 7A : ... .. . ... ... ... : ... .. . ... ... ... : ... .. . ... : ... .. . ... : ... .. . ... ...
ROW 7B : ... .. . ... ... ... : ... .. . ... ... ... : ... .. . ... : ... .. . ... : ... .. . ... ...
ROW 7C : ... .. . ... ... ... : ... .. . ... ... ... : ... .. . ... : ... .. . ... : ... .. . ... ...
ROW 7D : ... .. . ... ... ... : ... .. . ... ... ... : ... .. . ... : ... .. . ... : ... .. . ... ...
ROW 7E : ... .. . ... ... ... : ... .. . ... ... ... : ... .. . ... : ... .. . ... : ... .. . ... ...
ROW 7F : ... .. . ... ... ... : ... .. . ... ... ... : --- .. . ... : ... .. . ... : ... .. . ... ...

PATTERN 11
ROW 00 : ... .. . ... ... ... : ... .. . ... ... ... : ... .. . ... : ... .. . ... : ... .. . ... ...
ROW 01 : ... .. . ... ... ... : ... .. . ... ... ... : ... .. . ... : ... .. . ... : ... .. . ... ...
ROW 02 : ... .. . ... ... ... : ... .. . ... ... ... : ... .. . ... : ... .. . ... : ... .. . ... ...
ROW 03 : ... .. . ... ... ... : ... .. . ... ... ... : ... .. . ... : ... .. . ... : ... .. . ... ...
ROW 04 : ... .. . ... ... ... : ... .. . ... ... ... : ... .. . ... : ... .. . ... : ... .. . ... ...
ROW 05 : ... .. . ... ... ... : ... .. . ... ... ... : ... .. . ... : ... .. . ... : ... .. . ... ...
ROW 06 : ... .. . ... ... ... : ... .. . ... ... ... : ... .. . ... : ... .. . ... : ... .. . ... ...
ROW 07 : ... .. . ... ... ... : ... .. . ... ... ... : ... .. . ... : ... .. . ... : ... .. . ... ...
ROW 08 : C-2 00 4 P7F ... ... : A-3 00 D P80 ... ... : D#2 00 . ... : ... .. C ... : ... .. . ... ...
ROW 09 : ... .. 5 ... ... ... : ... .. 9 ... ... ... : ... .. . ... : ... .. 8 ... : ... .. . ... ...
ROW 0A : ... .. 6 ... ... ... : ... .. 7 ... ... ... : ... .. . ... : ... .. 4 ... : ... .. . ... ...
ROW 0B : ... .. 7 ... ... ... : ... .. 6 ... ... ... : ... .. . ... : ... .. 0 ... : ... .. . ... ...
ROW 0C : ... .. 8 ... ... ... : ... .. 5 ... ... ... : ... .. . ... : ... .. . ... : ... .. . ... ...
ROW 0D : ... .. 7 ... ... ... : ... .. . ... ... ... : ... .. . ... : ... .. . ... : ... .. . ... ...
ROW 0E : ... .. 6 ... ... ... : ... .. . ... ... ... : ... .. . ... : ... .. . ... : ... .. . ... ...
ROW 0F : ... .. 5 ... ... ... : ... .. 4 ... ... ... : --- .. . ... : ... .. . ... : ... .. . ... ...
ROW 10 : A#2 00 4 P80 ... ... : G-3 00 D P80 ... ... : C-2 00 . ... : ... .. C ... : ... .. . ... ...
ROW 11 : ... .. 5 ... ... ... : ... .. 9 ... ... ... : ... .. . ... : ... .. 8 ... : ... .. . ... ...
ROW 12 : ... .. 6 ... ... ... : ... .. 7 ... ... ... : ... .. . ... : ... .. 4 ... : ... .. . ... ...
ROW 13 : ... .. 7 ... ... ... : ... .. 6 ... ... ... : ... .. . ... : ... .. 0 ... : ... .. . ... ...
ROW 14 : ... .. 8 ... ... ... : ... .. 5 ... ... ... : ... .. . ... : ... .. . ... : ... .. . ... ...
ROW 15 : ... .. 7 ... ... ... : ... .. . ... ... ... : ... .. . ... : ... .. . ... : ... .. . ... ...
ROW 16 : ... .. 6 ... ... ... : ... .. . ... ... ... : ... .. . ... : ... .. . ... : ... .. . ... ...
ROW 17 : ... .. 5 ... ... ... : ... .. 4 ... ... ... : --- .. . ... : ... .. . ... : ... .. . ... ...
ROW 18 : C-2 00 4 P7F ... ... : A-3 00 D P80 ... ... : D#2 00 . ... : ... .. C ... : ... .. . ... ...
ROW 19 : ... .. 5 ... ... ... : ... .. 9 ... ... ... : ... .. . ... : ... .. 8 ... : ... .. . ... ...
ROW 1A : ... .. 6 ... ... ... : ... .. 7 ... ... ... : ... .. . ... : ... .. 4 ... : ... .. . ... ...
ROW 1B : ... .. 7 ... ... ... : ... .. 6 ... ... ... : ... .. . ... : ... .. 0 ... : ... .. . ... ...
ROW 1C : ... .. 8 ... ... ... : ... .. 5 ... ... ... : ... .. . ... : ... .. . ... : ... .. . ... ...
ROW 1D : ... .. 7 ... ... ... : ... .. . ... ... ... : ... .. . ... : ... .. . ... : ... .. . ... ...
ROW 1E : ... .. 6 ... ... ... : ... .. . ... ... ... : ... .. . ... : ... .. . ... : ... .. . ... ...
ROW 1F : ... .. 5 ... ... ... : ... .. 4 ... ... ... : --- .. . ... : ... .. . ... : ... .. . ... ...
ROW 20 : D-2 00 4 P80 ... ... : A#3 00 D P81 ... ... : D-2 00 . P80 : ... .. C ... : ... .. . ... ...
ROW 21 : ... .. 5 ... ... ... : ... .. 9 ... ... ... : ... .. . ... : ... .. 8 ... : ... .. . ... ...
ROW 22 : ... .. 6 ... ... ... : ... .. 7 ... ... ... : ... .. . ... : ... .. 4 ... : ... .. . ... ...
ROW 23 : ... .. 7 ... ... ... : ... .. 6 ... ... ... : ... .. . ... : ... .. 0 ... : ... .. . ... ...
ROW 24 : ... .. 8 ... ... ... : ... .. 5 ... ... ... : ... .. . ... : ... .. . ... : ... .. . ... ...
ROW 25 : ... .. 7 ... ... ... : ... .. . ... ... ... : ... .. . ... : ... .. . ... : ... .. . ... ...
ROW 26 : ... .. 6 ... ... ... : ... .. . ... ... ... : ... .. . ... : ... .. . ... : ... .. . ... ...
ROW 27 : ... .. 5 ... ... ... : ... .. 4 ... ... ... : ... .. . ... : ... .. . ... : ... .. . ... ...
ROW 28 : ... .. 4 ... ... ... : ... .. . ... ... ... : ... .. . ... : ... .. . ... : ... .. . ... ...
ROW 29 : ... .. . ... ... ... : ... .. . ... ... ... : ... .. . ... : ... .. . ... : ... .. . ... ...
ROW 2A : ... .. . ... ... ... : ... .. . ... ... ... : ... .. . ... : ... .. . ... : ... .. . ... ...
ROW 2B : ... .. . ... ... ... : ... .. . ... ... ... : ... .. . ... : ... .. . ... : ... .. . ... ...
ROW 2C : ... .. . ... ... ... : ... .. . ... ... ... : ... .. . ... : ... .. . ... : ... .. . ... ...
ROW 2D : ... .. . ... ... ... : ... .. . ... ... ... : ... .. . ... : ... .. . ... : ... .. . ... ...
ROW 2E : ... .. . ... ... ... : ... .. . ... ... ... : ... .. . ... : ... .. . ... : ... .. . ... ...
ROW 2F : ... .. . ... ... ... : ... .. . ... ... ... : --- .. . ... : ... .. . ... : ... .. . ... ...
ROW 30 : ... .. . ... ... ... : ... .. . ... ... ... : ... .. . ... : ... .. . ... : ... .. . ... ...
ROW 31 : ... .. . ... ... ... : ... .. . ... ... ... : ... .. . ... : ... .. . ... : ... .. . ... ...
ROW 32 : ... .. . ... ... ... : ... .. . ... ... ... : ... .. . ... : ... .. . ... : ... .. . ... ...
ROW 33 : ... .. . ... ... ... : ... .. . ... ... ... : ... .. . ... : ... .. . ... : ... .. . ... ...
ROW 34 : ... .. . ... ... ... : ... .. . ... ... ... : ... .. . ... : ... .. . ... : ... .. . ... ...
ROW 35 : ... .. . ... ... ... : ... .. . ... ... ... : ... .. . ... : ... .. . ... : ... .. . ... ...
ROW 36 : ... .. . ... ... ... : ... .. . ... ... ... : ... .. . ... : ... .. . ... : ... .. . ... ...
ROW 37 : ... .. . ... ... ... : ... .. . ... ... ... : ... .. . ... : ... .. . ... : ... .. . ... ...
ROW 38 : F-2 00 4 P80 ... ... : ... .. . ... ... ... : D-2 00 . ... : ... .. C ... : ... .. . ... ...
ROW 39 : ... .. 5 ... ... ... : ... .. . ... ... ... : ... .. . ... : ... .. 8 ... : ... .. . ... ...
ROW 3A : ... .. 6 ... ... ... : ... .. . ... ... ... : ... .. . ... : ... .. 4 ... : ... .. . ... ...
ROW 3B : ... .. 7 ... ... ... : ... .. . ... ... ... : ... .. . ... : ... .. 0 ... : ... .. . ... ...
ROW 3C : ... .. 8 ... ... ... : ... .. . ... ... ... : ... .. . ... : ... .. . ... : ... .. . ... ...
ROW 3D : ... .. 7 ... ... ... : ... .. . ... ... ... : ... .. . ... : ... .. . ... : ... .. . ... ...
ROW 3E : ... .. 6 ... ... ... : ... .. . ... ... ... : ... .. . ... : ... .. . ... : ... .. . ... ...
ROW 3F : ... .. 5 ... ... ... : ... .. . ... ... ... : --- .. . ... : ... .. . ... : ... .. . ... ...
ROW 40 : ... .. 4 ... ... ... : ... .. . ... ... ... : A#1 00 . ... : ... .. . ... : ... .. . ... ...
ROW 41 : ... .. . ... ... ... : ... .. . ... ... ... : ... .. . ... : ... .. . ... : ... .. . ... ...
ROW 42 : ... .. . ... ... ... : ... .. . ... ... ... : ... .. . ... : ... .. . ... : ... .. . ... ...
ROW 43 : ... .. . ... ... ... : ... .. . ... ... ... : ... .. . ... : ... .. . ... : ... .. . ... ...
ROW 44 : ... .. . ... ... ... : ... .. . ... ... ... : ... .. . ... : ... .. . ... : ... .. . ... ...
ROW 45 : ... .. . ... ... ... : ... .. . ... ... ... : ... .. . ... : ... .. . ... : ... .. . ... ...
ROW 46 : ... .. . ... ... ... : ... .. . ... ... ... : ... .. . ... : ... .. . ... : ... .. . ... ...
ROW 47 : ... .. . ... ... ... : ... .. . ... ... ... : --- .. . ... : ... .. . ... : ... .. . ... ...
ROW 48 : ... .. . ... ... ... : ... .. . ... ... ... : D-2 00 . ... : ... .. . ... : ... .. . ... ...
ROW 49 : ... .. . ... ... ... : ... .. . ... ... ... : ... .. . ... : ... .. . ... : ... .. . ... ...
ROW 4A : ... .. . ... ... ... : ... .. . ... ... ... : ... .. . ... : ... .. . ... : ... .. . ... ...
ROW 4B : ... .. . ... ... ... : ... .. . ... ... ... : ... .. . ... : ... .. . ... : ... .. . ... ...
ROW 4C : ... .. . ... ... ... : ... .. . ... ... ... : ... .. . ... : ... .. . ... : ... .. . ... ...
ROW 4D : ... .. . ... ... ... : ... .. . ... ... ... : ... .. . ... : ... .. . ... : ... .. . ... ...
ROW 4E : ... .. . ... ... ... : ... .. . ... ... ... : ... .. . ... : ... .. . ... : ... .. . ... ...
ROW 4F : ... .. . ... ... ... : ... .. . ... ... ... : --- .. . ... : ... .. . ... : ... .. . ... ...
ROW 50 : A#2 00 4 P80 ... ... : F-3 00 D P80 ... ... : D-2 00 . ... : ... .. C ... : ... .. . ... ...
ROW 51 : ... .. 5 ... ... ... : ... .. 9 ... ... ... : ... .. . ... : ... .. 8 ... : ... .. . ... ...
ROW 52 : ... .. 6 ... ... ... : ... .. 7 ... ... ... : ... .. . ... : ... .. 4 ... : ... .. . ... ...
ROW 53 : ... .. 7 ... ... ... : ... .. 6 ... ... ... : ... .. . ... : ... .. 0 ... : ... .. . ... ...
ROW 54 : ... .. 8 ... ... ... : ... .. 5 ... ... ... : ... .. . ... : ... .. . ... : ... .. . ... ...
ROW 55 : ... .. 7 ... ... ... : ... .. . ... ... ... : ... .. . ... : ... .. . ... : ... .. . ... ...
ROW 56 : ... .. 6 ... ... ... : ... .. . ... ... ... : ... .. . ... : ... .. . ... : ... .. . ... ...
ROW 57 : ... .. 5 ... ... ... : ... .. 4 ... ... ... : ... .. . ... : ... .. . ... : ... .. . ... ...
ROW 58 : ... .. 4 ... ... ... : ... .. . ... ... ... : ... .. . ... : ... .. . ... : ... .. . ... ...
ROW 59 : ... .. . ... ... ... : ... .. . ... ... ... : ... .. . ... : ... .. . ... : ... .. . ... ...
ROW 5A : ... .. . ... ... ... : ... .. . ... ... ... : ... .. . ... : ... .. . ... : ... .. . ... ...
ROW 5B : ... .. . ... ... ... : ... .. . ... ... ... : ... .. . ... : ... .. . ... : ... .. . ... ...
ROW 5C : ... .. . ... ... ... : ... .. . ... ... ... : ... .. . ... : ... .. . ... : ... .. . ... ...
ROW 5D : ... .. . ... ... ... : ... .. . ... ... ... : ... .. . ... : ... .. . ... : ... .. . ... ...
ROW 5E : ... .. . ... ... ... : ... .. . ... ... ... : ... .. . ... : ... .. . ... : ... .. . ... ...
ROW 5F : ... .. . ... ... ... : ... .. . ... ... ... : --- .. . ... : ... .. . ... : ... .. . ... ...
ROW 60 : ... .. . ... ... ... : ... .. . ... ... ... : ... .. . ... : ... .. . ... : ... .. . ... ...
ROW 61 : ... .. . ... ... ... : ... .. . ... ... ... : ... .. . ... : ... .. . ... : ... .. . ... ...
ROW 62 : ... .. . ... ... ... : ... .. . ... ... ... : ... .. . ... : ... .. . ... : ... .. . ... ...
ROW 63 : ... .. . ... ... ... : ... .. . ... ... ... : ... .. . ... : ... .. . ... : ... .. . ... ...
ROW 64 : ... .. . ... ... ... : ... .. . ... ... ... : ... .. . ... : ... .. . ... : ... .. . ... ...
ROW 65 : ... .. . ... ... ... : ... .. . ... ... ... : ... .. . ... : ... .. . ... : ... .. . ... ...
ROW 66 : ... .. . ... ... ... : ... .. . ... ... ... : ... .. . ... : ... .. . ... : ... .. . ... ...
ROW 67 : ... .. . ... ... ... : ... .. . ... ... ... : ... .. . ... : ... .. . ... : ... .. . ... ...
ROW 68 : C-2 00 4 P7F ... ... : F-3 00 D P80 ... ... : D-2 00 . ... : ... .. C ... : ... .. . ... ...
ROW 69 : ... .. 5 ... ... ... : ... .. 9 ... ... ... : ... .. . ... : ... .. 8 ... : ... .. . ... ...
ROW 6A : ... .. 6 ... ... ... : ... .. 7 ... ... ... : ... .. . ... : ... .. 4 ... : ... .. . ... ...
ROW 6B : ... .. 7 ... ... ... : ... .. 6 ... ... ... : ... .. . ... : ... .. 0 ... : ... .. . ... ...
ROW 6C : ... .. 8 ... ... ... : ... .. 5 ... ... ... : ... .. . ... : ... .. . ... : ... .. . ... ...
ROW 6D : ... .. 7 ... ... ... : ... .. . ... ... ... : ... .. . ... : ... .. . ... : ... .. . ... ...
ROW 6E : ... .. 6 ... ... ... : ... .. . ... ... ... : ... .. . ... : ... .. . ... : ... .. . ... ...
ROW 6F : ... .. 5 ... ... ... : ... .. 4 ... ... ... : --- .. . ... : ... .. . ... : ... .. . ... ...
ROW 70 : F-2 00 4 P80 ... ... : A#3 00 D P81 ... ... : A#1 00 . ... : ... .. C ... : ... .. . ... ...
ROW 71 : ... .. 5 ... ... ... : ... .. 9 ... ... ... : ... .. . ... : ... .. 8 ... : ... .. . ... ...
ROW 72 : ... .. 6 ... ... ... : ... .. 7 ... ... ... : ... .. . ... : ... .. 4 ... : ... .. . ... ...
ROW 73 : ... .. 7 ... ... ... : ... .. 6 ... ... ... : ... .. . ... : ... .. 0 ... : ... .. . ... ...
ROW 74 : ... .. 8 ... ... ... : ... .. 5 ... ... ... : ... .. . ... : ... .. . ... : ... .. . ... ...
ROW 75 : ... .. 7 ... ... ... : ... .. . ... ... ... : ... .. . ... : ... .. . ... : ... .. . ... ...
ROW 76 : ... .. 6 ... ... ... : ... .. . ... ... ... : ... .. . ... : ... .. . ... : ... .. . ... ...
ROW 77 : ... .. 5 ... ... ... : ... .. 4 ... ... ... : --- .. . ... : ... .. . ... : ... .. . ... ...
ROW 78 : A-2 00 4 P7F ... ... : C-4 00 D P81 ... ... : D-2 00 . ... : ... .. C ... : ... .. . ... ...
ROW 79 : ... .. 5 ... ... ... : ... .. 9 ... ... ... : ... .. . ... : ... .. 8 ... : ... .. . ... ...
ROW 7A : ... .. 6 ... ... ... : ... .. 7 ... ... ... : ... .. . ... : ... .. 4 ... : ... .. . ... ...
ROW 7B : ... .. 7 ... ... ... : ... .. 6 ... ... ... : ... .. . ... : ... .. 0 ... : ... .. . ... ...
ROW 7C : ... .. 8 ... ... ... : ... .. 5 ... ... ... : ... .. . ... : ... .. . ... : ... .. . ... ...
ROW 7D : ... .. 7 ... ... ... : ... .. . ... ... ... : ... .. . ... : ... .. . ... : ... .. . ... ...
ROW 7E : ... .. 6 ... ... ... : ... .. . ... ... ... : ... .. . ... : ... .. . ... : ... .. . ... ...
ROW 7F : ... .. 5 ... ... ... : ... .. 4 ... ... ... : --- .. . ... : ... .. . ... : ... .. . ... ...

PATTERN 12
ROW 00 : B-2 00 4 P80 ... ... : D-4 00 D P80 ... ... : G-2 00 . ... : ... .. C ... : ... .. . ... ...
ROW 01 : ... .. 5 ... ... ... : ... .. 9 ... ... ... : ... .. . ... : ... .. 8 ... : ... .. . ... ...
ROW 02 : ... .. 6 ... ... ... : ... .. 7 ... ... ... : ... .. . ... : ... .. 4 ... : ... .. . ... ...
ROW 03 : ... .. 7 ... ... ... : ... .. 6 ... ... ... : ... .. . ... : ... .. 0 ... : ... .. . ... ...
ROW 04 : ... .. 8 ... ... ... : ... .. 5 ... ... ... : ... .. . ... : ... .. . ... : ... .. . ... ...
ROW 05 : ... .. 7 ... ... ... : ... .. . ... ... ... : ... .. . ... : ... .. . ... : ... .. . ... ...
ROW 06 : ... .. 6 ... ... ... : ... .. . ... ... ... : ... .. . ... : ... .. . ... : ... .. . ... ...
ROW 07 : ... .. 5 ... ... ... : ... .. 4 ... ... ... : ... .. . ... : ... .. . ... : ... .. . ... ...
ROW 08 : ... .. 4 ... ... ... : ... .. . ... ... ... : ... .. . ... : ... .. . ... : ... .. . ... ...
ROW 09 : ... .. . ... ... ... : ... .. . ... ... ... : ... .. . ... : ... .. . ... : ... .. . ... ...
ROW 0A : ... .. . ... ... ... : ... .. . ... ... ... : ... .. . ... : ... .. . ... : ... .. . ... ...
ROW 0B : ... .. . ... ... ... : ... .. . ... ... ... : ... .. . ... : ... .. . ... : ... .. . ... ...
ROW 0C : ... .. . ... ... ... : ... .. . ... ... ... : ... .. . ... : ... .. . ... : ... .. . ... ...
ROW 0D : ... .. . ... ... ... : ... .. . ... ... ... : ... .. . ... : ... .. . ... : ... .. . ... ...
ROW 0E : ... .. . ... ... ... : ... .. . ... ... ... : ... .. . ... : ... .. . ... : ... .. . ... ...
ROW 0F : ... .. . ... ... ... : ... .. . ... ... ... : --- .. . ... : ... .. . ... : ... .. . ... ...
ROW 10 : ... .. . ... ... ... : ... .. . ... ... ... : ... .. . ... : ... .. . ... : ... .. . ... ...
ROW 11 : ... .. . ... ... ... : ... .. . ... ... ... : ... .. . ... : ... .. . ... : ... .. . ... ...
ROW 12 : ... .. . ... ... ... : ... .. . ... ... ... : ... .. . ... : ... .. . ... : ... .. . ... ...
ROW 13 : ... .. . ... ... ... : ... .. . ... ... ... : ... .. . ... : ... .. . ... : ... .. . ... ...
ROW 14 : ... .. . ... ... ... : ... .. . ... ... ... : ... .. . ... : ... .. . ... : ... .. . ... ...
ROW 15 : ... .. . ... ... ... : ... .. . ... ... ... : ... .. . ... : ... .. . ... : ... .. . ... ...
ROW 16 : ... .. . ... ... ... : ... .. . ... ... ... : ... .. . ... : ... .. . ... : ... .. . ... ...
ROW 17 : ... .. . ... ... ... : ... .. . ... ... ... : ... .. . ... : ... .. . ... : ... .. . ... ...
ROW 18 : ... .. . ... ... ... : ... .. . ... ... ... : A-1 00 . ... : ... .. C ... : ... .. . ... ...
ROW 19 : ... .. . ... ... ... : ... .. . ... ... ... : ... .. . ... : ... .. 8 ... : ... .. . ... ...
ROW 1A : ... .. . ... ... ... : ... .. . ... ... ... : ... .. . ... : ... .. 4 ... : ... .. . ... ...
ROW 1B : ... .. . ... ... ... : ... .. . ... ... ... : ... .. . ... : ... .. 0 ... : ... .. . ... ...
ROW 1C : ... .. . ... ... ... : ... .. . ... ... ... : ... .. . ... : ... .. . ... : ... .. . ... ...
ROW 1D : ... .. . ... ... ... : ... .. . ... ... ... : ... .. . ... : ... .. . ... : ... .. . ... ...
ROW 1E : ... .. . ... ... ... : ... .. . ... ... ... : ... .. . ... : ... .. . ... : ... .. . ... ...
ROW 1F : ... .. . ... ... ... : ... .. . ... ... ... : ... .. . ... : ... .. . ... : ... .. . ... ...
ROW 20 : ... .. . ... ... ... : ... .. . ... ... ... : ... .. . ... : ... .. . ... : ... .. . ... ...
ROW 21 : ... .. . ... ... ... : ... .. . ... ... ... : ... .. . ... : ... .. . ... : ... .. . ... ...
ROW 22 : ... .. . ... ... ... : ... .. . ... ... ... : ... .. . ... : ... .. . ... : ... .. . ... ...
ROW 23 : ... .. . ... ... ... : ... .. . ... ... ... : ... .. . ... : ... .. . ... : ... .. . ... ...
ROW 24 : ... .. . ... ... ... : ... .. . ... ... ... : ... .. . ... : ... .. . ... : ... .. . ... ...
ROW 25 : ... .. . ... ... ... : ... .. . ... ... ... : ... .. . ... : ... .. . ... : ... .. . ... ...
ROW 26 : ... .. . ... ... ... : ... .. . ... ... ... : ... .. . ... : ... .. . ... : ... .. . ... ...
ROW 27 : ... .. . ... ... ... : ... .. . ... ... ... : --- .. . ... : ... .. . ... : ... .. . ... ...
ROW 28 : ... .. . ... ... ... : ... .. . ... ... ... : ... .. . ... : ... .. . ... : ... .. . ... ...
ROW 29 : ... .. . ... ... ... : ... .. . ... ... ... : ... .. . ... : ... .. . ... : ... .. . ... ...
ROW 2A : ... .. . ... ... ... : ... .. . ... ... ... : ... .. . ... : ... .. . ... : ... .. . ... ...
ROW 2B : ... .. . ... ... ... : ... .. . ... ... ... : ... .. . ... : ... .. . ... : ... .. . ... ...
ROW 2C : ... .. . ... ... ... : ... .. . ... ... ... : ... .. . ... : ... .. . ... : ... .. . ... ...
ROW 2D : ... .. . ... ... ... : ... .. . ... ... ... : ... .. . ... : ... .. . ... : ... .. . ... ...
ROW 2E : ... .. . ... ... ... : ... .. . ... ... ... : ... .. . ... : ... .. . ... : ... .. . ... ...
ROW 2F : ... .. . ... ... ... : ... .. . ... ... ... : ... .. . ... : ... .. . ... : ... .. . ... ...
ROW 30 : A-2 00 4 P7F ... ... : ... .. . ... ... ... : B-1 00 . ... : ... .. C ... : ... .. . ... ...
ROW 31 : ... .. 5 ... ... ... : ... .. . ... ... ... : ... .. . ... : ... .. 8 ... : ... .. . ... ...
ROW 32 : ... .. 6 ... ... ... : ... .. . ... ... ... : ... .. . ... : ... .. 4 ... : ... .. . ... ...
ROW 33 : ... .. 7 ... ... ... : ... .. . ... ... ... : ... .. . ... : ... .. 0 ... : ... .. . ... ...
ROW 34 : ... .. 8 ... ... ... : ... .. . ... ... ... : ... .. . ... : ... .. . ... : ... .. . ... ...
ROW 35 : ... .. 7 ... ... ... : ... .. . ... ... ... : ... .. . ... : ... .. . ... : ... .. . ... ...
ROW 36 : ... .. 6 ... ... ... : ... .. . ... ... ... : ... .. . ... : ... .. . ... : ... .. . ... ...
ROW 37 : ... .. 5 ... ... ... : ... .. . ... ... ... : ... .. . ... : ... .. . ... : ... .. . ... ...
ROW 38 : ... .. 4 ... ... ... : ... .. . ... ... ... : ... .. . ... : ... .. . ... : ... .. . ... ...
ROW 39 : ... .. . ... ... ... : ... .. . ... ... ... : ... .. . ... : ... .. . ... : ... .. . ... ...
ROW 3A : ... .. . ... ... ... : ... .. . ... ... ... : ... .. . ... : ... .. . ... : ... .. . ... ...
ROW 3B : ... .. . ... ... ... : ... .. . ... ... ... : ... .. . ... : ... .. . ... : ... .. . ... ...
ROW 3C : ... .. . ... ... ... : ... .. . ... ... ... : ... .. . ... : ... .. . ... : ... .. . ... ...
ROW 3D : ... .. . ... ... ... : ... .. . ... ... ... : ... .. . ... : ... .. . ... : ... .. . ... ...
ROW 3E : ... .. . ... ... ... : ... .. . ... ... ... : ... .. . ... : ... .. . ... : ... .. . ... ...
ROW 3F : ... .. . ... ... ... : ... .. . ... ... ... : --- .. . ... : ... .. . ... : ... .. . ... ...
ROW 40 : ... .. . ... ... ... : ... .. . ... ... ... : ... .. . ... : ... .. . ... : ... .. . ... ...
ROW 41 : ... .. . ... ... ... : ... .. . ... ... ... : ... .. . ... : ... .. . ... : ... .. . ... ...
ROW 42 : ... .. . ... ... ... : ... .. . ... ... ... : ... .. . ... : ... .. . ... : ... .. . ... ...
ROW 43 : ... .. . ... ... ... : ... .. . ... ... ... : ... .. . ... : ... .. . ... : ... .. . ... ...
ROW 44 : ... .. . ... ... ... : ... .. . ... ... ... : ... .. . ... : ... .. . ... : ... .. . ... ...
ROW 45 : ... .. . ... ... ... : ... .. . ... ... ... : ... .. . ... : ... .. . ... : ... .. . ... ...
ROW 46 : ... .. . ... ... ... : ... .. . ... ... ... : ... .. . ... : ... .. . ... : ... .. . ... ...
ROW 47 : ... .. . ... ... ... : ... .. . ... ... ... : ... .. . ... : ... .. . ... : ... .. . ... ...
ROW 48 : ... .. . ... ... ... : ... .. . ... ... ... : C-2 00 . P7F : ... .. C ... : ... .. . ... ...
ROW 49 : ... .. . ... ... ... : ... .. . ... ... ... : ... .. . ... : ... .. 8 ... : ... .. . ... ...
ROW 4A : ... .. . ... ... ... : ... .. . ... ... ... : ... .. . ... : ... .. 4 ... : ... .. . ... ...
ROW 4B : ... .. . ... ... ... : ... .. . ... ... ... : ... .. . ... : ... .. 0 ... : ... .. . ... ...
ROW 4C : ... .. . ... ... ... : ... .. . ... ... ... : ... .. . ... : ... .. . ... : ... .. . ... ...
ROW 4D : ... .. . ... ... ... : ... .. . ... ... ... : ... .. . ... : ... .. . ... : ... .. . ... ...
ROW 4E : ... .. . ... ... ... : ... .. . ... ... ... : ... .. . ... : ... .. . ... : ... .. . ... ...
ROW 4F : ... .. . ... ... ... : ... .. . ... ... ... : ... .. . ... : ... .. . ... : ... .. . ... ...
ROW 50 : ... .. . ... ... ... : ... .. . ... ... ... : ... .. . ... : ... .. C ... : ... .. . ... ...
ROW 51 : ... .. . ... ... ... : ... .. . ... ... ... : ... .. . ... : ... .. 8 ... : ... .. . ... ...
ROW 52 : ... .. . ... ... ... : ... .. . ... ... ... : ... .. . ... : ... .. 4 ... : ... .. . ... ...
ROW 53 : ... .. . ... ... ... : ... .. . ... ... ... : ... .. . ... : ... .. 0 ... : ... .. . ... ...
ROW 54 : ... .. . ... ... ... : ... .. . ... ... ... : ... .. . ... : ... .. . ... : ... .. . ... ...
ROW 55 : ... .. . ... ... ... : ... .. . ... ... ... : ... .. . ... : ... .. . ... : ... .. . ... ...
ROW 56 : ... .. . ... ... ... : ... .. . ... ... ... : ... .. . ... : ... .. . ... : ... .. . ... ...
ROW 57 : ... .. . ... ... ... : ... .. . ... ... ... : --- .. . ... : ... .. . ... : ... .. . ... ...
ROW 58 : ... .. . ... ... ... : ... .. . ... ... ... : ... .. . ... : ... .. C ... : ... .. . ... ...
ROW 59 : ... .. . ... ... ... : ... .. . ... ... ... : ... .. . ... : ... .. 8 ... : ... .. . ... ...
ROW 5A : ... .. . ... ... ... : ... .. . ... ... ... : ... .. . ... : ... .. 4 ... : ... .. . ... ...
ROW 5B : ... .. . ... ... ... : ... .. . ... ... ... : ... .. . ... : ... .. 0 ... : ... .. . ... ...
ROW 5C : ... .. . ... ... ... : ... .. . ... ... ... : ... .. . ... : ... .. . ... : ... .. . ... ...
ROW 5D : ... .. . ... ... ... : ... .. . ... ... ... : ... .. . ... : ... .. . ... : ... .. . ... ...
ROW 5E : ... .. . ... ... ... : ... .. . ... ... ... : ... .. . ... : ... .. . ... : ... .. . ... ...
ROW 5F : ... .. . ... ... ... : ... .. . ... ... ... : ... .. . ... : ... .. . ... : ... .. . ... ...
ROW 60 : G-2 00 4 P80 ... ... : C-4 00 D P81 ... ... : D-2 00 . P80 : ... .. C ... : ... .. . ... ...
ROW 61 : ... .. 5 ... ... ... : ... .. 9 ... ... ... : ... .. . ... : ... .. 8 ... : ... .. . ... ...
ROW 62 : ... .. 6 ... ... ... : ... .. 7 ... ... ... : ... .. . ... : ... .. 4 ... : ... .. . ... ...
ROW 63 : ... .. 7 ... ... ... : ... .. 6 ... ... ... : ... .. . ... : ... .. 0 ... : ... .. . ... ...
ROW 64 : ... .. 8 ... ... ... : ... .. 5 ... ... ... : ... .. . ... : ... .. . ... : ... .. . ... ...
ROW 65 : ... .. 7 ... ... ... : ... .. . ... ... ... : ... .. . ... : ... .. . ... : ... .. . ... ...
ROW 66 : ... .. 6 ... ... ... : ... .. . ... ... ... : ... .. . ... : ... .. . ... : ... .. . ... ...
ROW 67 : ... .. 5 ... ... ... : ... .. 4 ... ... ... : ... .. . ... : ... .. . ... : ... .. . ... ...
ROW 68 : ... .. 4 ... ... ... : ... .. . ... ... ... : ... .. . ... : ... .. . ... : ... .. . ... ...
ROW 69 : ... .. . ... ... ... : ... .. . ... ... ... : ... .. . ... : ... .. . ... : ... .. . ... ...
ROW 6A : ... .. . ... ... ... : ... .. . ... ... ... : ... .. . ... : ... .. . ... : ... .. . ... ...
ROW 6B : ... .. . ... ... ... : ... .. . ... ... ... : ... .. . ... : ... .. . ... : ... .. . ... ...
ROW 6C : ... .. . ... ... ... : ... .. . ... ... ... : ... .. . ... : ... .. . ... : ... .. . ... ...
ROW 6D : ... .. . ... ... ... : ... .. . ... ... ... : ... .. . ... : ... .. . ... : ... .. . ... ...
ROW 6E : ... .. . ... ... ... : ... .. . ... ... ... : ... .. . ... : ... .. . ... : ... .. . ... ...
ROW 6F : ... .. . ... ... ... : ... .. . ... ... ... : --- .. . ... : ... .. . ... : ... .. . ... ...
ROW 70 : ... .. . ... ... ... : ... .. . ... ... ... : ... .. . ... : ... .. . ... : ... .. . ... ...
ROW 71 : ... .. . ... ... ... : ... .. . ... ... ... : ... .. . ... : ... .. . ... : ... .. . ... ...
ROW 72 : ... .. . ... ... ... : ... .. . ... ... ... : ... .. . ... : ... .. . ... : ... .. . ... ...
ROW 73 : ... .. . ... ... ... : ... .. . ... ... ... : ... .. . ... : ... .. . ... : ... .. . ... ...
ROW 74 : ... .. . ... ... ... : ... .. . ... ... ... : ... .. . ... : ... .. . ... : ... .. . ... ...
ROW 75 : ... .. . ... ... ... : ... .. . ... ... ... : ... .. . ... : ... .. . ... : ... .. . ... ...
ROW 76 : ... .. . ... ... ... : ... .. . ... ... ... : ... .. . ... : ... .. . ... : ... .. . ... ...
ROW 77 : ... .. . ... ... ... : ... .. . ... ... ... : ... .. . ... : ... .. . ... : ... .. . ... ...
ROW 78 : ... .. . ... ... ... : ... .. . ... ... ... : E-2 00 . ... : ... .. C ... : ... .. . ... ...
ROW 79 : ... .. . ... ... ... : ... .. . ... ... ... : ... .. . ... : ... .. 8 ... : ... .. . ... ...
ROW 7A : ... .. . ... ... ... : ... .. . ... ... ... : ... .. . ... : ... .. 4 ... : ... .. . ... ...
ROW 7B : ... .. . ... ... ... : ... .. . ... ... ... : ... .. . ... : ... .. 0 ... : ... .. . ... ...
ROW 7C : ... .. . ... ... ... : ... .. . ... ... ... : ... .. . ... : ... .. . ... : ... .. . ... ...
ROW 7D : ... .. . ... ... ... : ... .. . ... ... ... : ... .. . ... : ... .. . ... : ... .. . ... ...
ROW 7E : ... .. . ... ... ... : ... .. . ... ... ... : ... .. . ... : ... .. . ... : ... .. . ... ...
ROW 7F : ... .. . ... ... ... : ... .. . ... ... ... : ... .. . ... : ... .. . ... : ... .. . ... ...

PATTERN 13
ROW 00 : ... .. . ... ... ... : ... .. . ... ... ... : ... .. . ... : ... .. . ... : ... .. . ... ...
ROW 01 : ... .. . ... ... ... : ... .. . ... ... ... : ... .. . ... : ... .. . ... : ... .. . ... ...
ROW 02 : ... .. . ... ... ... : ... .. . ... ... ... : ... .. . ... : ... .. . ... : ... .. . ... ...
ROW 03 : ... .. . ... ... ... : ... .. . ... ... ... : ... .. . ... : ... .. . ... : ... .. . ... ...
ROW 04 : ... .. . ... ... ... : ... .. . ... ... ... : ... .. . ... : ... .. . ... : ... .. . ... ...
ROW 05 : ... .. . ... ... ... : ... .. . ... ... ... : ... .. . ... : ... .. . ... : ... .. . ... ...
ROW 06 : ... .. . ... ... ... : ... .. . ... ... ... : ... .. . ... : ... .. . ... : ... .. . ... ...
ROW 07 : ... .. . ... ... ... : ... .. . ... ... ... : --- .. . ... : ... .. . ... : ... .. . ... ...
ROW 08 : ... .. . ... ... ... : ... .. . ... ... ... : ... .. . ... : ... .. . ... : ... .. . ... ...
ROW 09 : ... .. . ... ... ... : ... .. . ... ... ... : ... .. . ... : ... .. . ... : ... .. . ... ...
ROW 0A : ... .. . ... ... ... : ... .. . ... ... ... : ... .. . ... : ... .. . ... : ... .. . ... ...
ROW 0B : ... .. . ... ... ... : ... .. . ... ... ... : ... .. . ... : ... .. . ... : ... .. . ... ...
ROW 0C : ... .. . ... ... ... : ... .. . ... ... ... : ... .. . ... : ... .. . ... : ... .. . ... ...
ROW 0D : ... .. . ... ... ... : ... .. . ... ... ... : ... .. . ... : ... .. . ... : ... .. . ... ...
ROW 0E : ... .. . ... ... ... : ... .. . ... ... ... : ... .. . ... : ... .. . ... : ... .. . ... ...
ROW 0F : ... .. . ... ... ... : ... .. . ... ... ... : ... .. . ... : ... .. . ... : ... .. . ... ...
ROW 10 : D-3 00 4 P80 ... ... : B-3 00 D P80 ... ... : F#2 00 . ... : ... .. C ... : ... .. . ... ...
ROW 11 : ... .. 5 ... ... ... : ... .. 9 ... ... ... : ... .. . ... : ... .. 8 ... : ... .. . ... ...
ROW 12 : ... .. 6 ... ... ... : ... .. 7 ... ... ... : ... .. . ... : ... .. 4 ... : ... .. . ... ...
ROW 13 : ... .. 7 ... ... ... : ... .. 6 ... ... ... : ... .. . ... : ... .. 0 ... : ... .. . ... ...
ROW 14 : ... .. 8 ... ... ... : ... .. 5 ... ... ... : ... .. . ... : ... .. . ... : ... .. . ... ...
ROW 15 : ... .. 7 ... ... ... : ... .. . ... ... ... : ... .. . ... : ... .. . ... : ... .. . ... ...
ROW 16 : ... .. 6 ... ... ... : ... .. . ... ... ... : ... .. . ... : ... .. . ... : ... .. . ... ...
ROW 17 : ... .. 5 ... ... ... : ... .. 4 ... ... ... : ... .. . ... : ... .. . ... : ... .. . ... ...
ROW 18 : ... .. 4 ... ... ... : ... .. . ... ... ... : ... .. . ... : ... .. . ... : ... .. . ... ...
ROW 19 : ... .. . ... ... ... : ... .. . ... ... ... : ... .. . ... : ... .. . ... : ... .. . ... ...
ROW 1A : ... .. . ... ... ... : ... .. . ... ... ... : ... .. . ... : ... .. . ... : ... .. . ... ...
ROW 1B : ... .. . ... ... ... : ... .. . ... ... ... : ... .. . ... : ... .. . ... : ... .. . ... ...
ROW 1C : ... .. . ... ... ... : ... .. . ... ... ... : ... .. . ... : ... .. . ... : ... .. . ... ...
ROW 1D : ... .. . ... ... ... : ... .. . ... ... ... : ... .. . ... : ... .. . ... : ... .. . ... ...
ROW 1E : ... .. . ... ... ... : ... .. . ... ... ... : ... .. . ... : ... .. . ... : ... .. . ... ...
ROW 1F : ... .. . ... ... ... : ... .. . ... ... ... : --- .. . ... : ... .. . ... : ... .. . ... ...
ROW 20 : ... .. . ... ... ... : ... .. . ... ... ... : ... .. . ... : ... .. . ... : ... .. . ... ...
ROW 21 : ... .. . ... ... ... : ... .. . ... ... ... : ... .. . ... : ... .. . ... : ... .. . ... ...
ROW 22 : ... .. . ... ... ... : ... .. . ... ... ... : ... .. . ... : ... .. . ... : ... .. . ... ...
ROW 23 : ... .. . ... ... ... : ... .. . ... ... ... : ... .. . ... : ... .. . ... : ... .. . ... ...
ROW 24 : ... .. . ... ... ... : ... .. . ... ... ... : ... .. . ... : ... .. . ... : ... .. . ... ...
ROW 25 : ... .. . ... ... ... : ... .. . ... ... ... : ... .. . ... : ... .. . ... : ... .. . ... ...
ROW 26 : ... .. . ... ... ... : ... .. . ... ... ... : ... .. . ... : ... .. . ... : ... .. . ... ...
ROW 27 : ... .. . ... ... ... : ... .. . ... ... ... : ... .. . ... : ... .. . ... : ... .. . ... ...
ROW 28 : ... .. . ... ... ... : ... .. . ... ... ... : G-2 00 . ... : ... .. C ... : ... .. . ... ...
ROW 29 : ... .. . ... ... ... : ... .. . ... ... ... : ... .. . ... : ... .. 8 ... : ... .. . ... ...
ROW 2A : ... .. . ... ... ... : ... .. . ... ... ... : ... .. . ... : ... .. 4 ... : ... .. . ... ...
ROW 2B : ... .. . ... ... ... : ... .. . ... ... ... : ... .. . ... : ... .. 0 ... : ... .. . ... ...
ROW 2C : ... .. . ... ... ... : ... .. . ... ... ... : ... .. . ... : ... .. . ... : ... .. . ... ...
ROW 2D : ... .. . ... ... ... : ... .. . ... ... ... : ... .. . ... : ... .. . ... : ... .. . ... ...
ROW 2E : ... .. . ... ... ... : ... .. . ... ... ... : ... .. . ... : ... .. . ... : ... .. . ... ...
ROW 2F : ... .. . ... ... ... : ... .. . ... ... ... : ... .. . ... : ... .. . ... : ... .. . ... ...
ROW 30 : ... .. . ... ... ... : ... .. . ... ... ... : ... .. . ... : ... .. C ... : ... .. . ... ...
ROW 31 : ... .. . ... ... ... : ... .. . ... ... ... : ... .. . ... : ... .. 8 ... : ... .. . ... ...
ROW 32 : ... .. . ... ... ... : ... .. . ... ... ... : ... .. . ... : ... .. 4 ... : ... .. . ... ...
ROW 33 : ... .. . ... ... ... : ... .. . ... ... ... : ... .. . ... : ... .. 0 ... : ... .. . ... ...
ROW 34 : ... .. . ... ... ... : ... .. . ... ... ... : ... .. . ... : ... .. . ... : ... .. . ... ...
ROW 35 : ... .. . ... ... ... : ... .. . ... ... ... : ... .. . ... : ... .. . ... : ... .. . ... ...
ROW 36 : ... .. . ... ... ... : ... .. . ... ... ... : ... .. . ... : ... .. . ... : ... .. . ... ...
ROW 37 : ... .. . ... ... ... : ... .. . ... ... ... : --- .. . ... : ... .. . ... : ... .. . ... ...
ROW 38 : ... .. . ... ... ... : ... .. . ... ... ... : ... .. . ... : ... .. C ... : ... .. . ... ...
ROW 39 : ... .. . ... ... ... : ... .. . ... ... ... : ... .. . ... : ... .. 8 ... : ... .. . ... ...
ROW 3A : ... .. . ... ... ... : ... .. . ... ... ... : ... .. . ... : ... .. 4 ... : ... .. . ... ...
ROW 3B : ... .. . ... ... ... : ... .. . ... ... ... : ... .. . ... : ... .. 0 ... : ... .. . ... ...
ROW 3C : ... .. . ... ... ... : ... .. . ... ... ... : ... .. . ... : ... .. . ... : ... .. . ... ...
ROW 3D : ... .. . ... ... ... : ... .. . ... ... ... : ... .. . ... : ... .. . ... : ... .. . ... ...
ROW 3E : ... .. . ... ... ... : ... .. . ... ... ... : ... .. . ... : ... .. . ... : ... .. . ... ...
ROW 3F : ... .. . ... ... ... : ... .. . ... ... ... : ... .. . ... : ... .. . ... : ... .. . ... ...
ROW 40 : D#3 00 4 P80 ... ... : C-4 00 D P81 ... ... : G#2 00 . ... : ... .. C ... : ... .. . ... ...
ROW 41 : ... .. 5 ... ... ... : ... .. 9 ... ... ... : ... .. . ... : ... .. 8 ... : ... .. . ... ...
ROW 42 : ... .. 6 ... ... ... : ... .. 7 ... ... ... : ... .. . ... : ... .. 4 ... : ... .. . ... ...
ROW 43 : ... .. 7 ... ... ... : ... .. 6 ... ... ... : ... .. . ... : ... .. 0 ... : ... .. . ... ...
ROW 44 : ... .. 8 ... ... ... : ... .. 5 ... ... ... : ... .. . ... : ... .. . ... : ... .. . ... ...
ROW 45 : ... .. 7 ... ... ... : ... .. . ... ... ... : ... .. . ... : ... .. . ... : ... .. . ... ...
ROW 46 : ... .. 6 ... ... ... : ... .. . ... ... ... : ... .. . ... : ... .. . ... : ... .. . ... ...
ROW 47 : ... .. 5 ... ... ... : ... .. 4 ... ... ... : ... .. . ... : ... .. . ... : ... .. . ... ...
ROW 48 : ... .. 4 ... ... ... : ... .. . ... ... ... : ... .. . ... : ... .. . ... : ... .. . ... ...
ROW 49 : ... .. . ... ... ... : ... .. . ... ... ... : ... .. . ... : ... .. . ... : ... .. . ... ...
ROW 4A : ... .. . ... ... ... : ... .. . ... ... ... : ... .. . ... : ... .. . ... : ... .. . ... ...
ROW 4B : ... .. . ... ... ... : ... .. . ... ... ... : ... .. . ... : ... .. . ... : ... .. . ... ...
ROW 4C : ... .. . ... ... ... : ... .. . ... ... ... : ... .. . ... : ... .. . ... : ... .. . ... ...
ROW 4D : ... .. . ... ... ... : ... .. . ... ... ... : ... .. . ... : ... .. . ... : ... .. . ... ...
ROW 4E : ... .. . ... ... ... : ... .. . ... ... ... : ... .. . ... : ... .. . ... : ... .. . ... ...
ROW 4F : ... .. . ... ... ... : ... .. . ... ... ... : --- .. . ... : ... .. . ... : ... .. . ... ...
ROW 50 : ... .. . ... ... ... : ... .. . ... ... ... : ... .. . ... : ... .. . ... : ... .. . ... ...
ROW 51 : ... .. . ... ... ... : ... .. . ... ... ... : ... .. . ... : ... .. . ... : ... .. . ... ...
ROW 52 : ... .. . ... ... ... : ... .. . ... ... ... : ... .. . ... : ... .. . ... : ... .. . ... ...
ROW 53 : ... .. . ... ... ... : ... .. . ... ... ... : ... .. . ... : ... .. . ... : ... .. . ... ...
ROW 54 : ... .. . ... ... ... : ... .. . ... ... ... : ... .. . ... : ... .. . ... : ... .. . ... ...
ROW 55 : ... .. . ... ... ... : ... .. . ... ... ... : ... .. . ... : ... .. . ... : ... .. . ... ...
ROW 56 : ... .. . ... ... ... : ... .. . ... ... ... : ... .. . ... : ... .. . ... : ... .. . ... ...
ROW 57 : ... .. . ... ... ... : ... .. . ... ... ... : ... .. . ... : ... .. . ... : ... .. . ... ...
ROW 58 : F-3 00 4 P80 ... ... : ... .. . ... ... ... : G#2 00 . ... : ... .. C ... : ... .. . ... ...
ROW 59 : ... .. 5 ... ... ... : ... .. . ... ... ... : ... .. . ... : ... .. 8 ... : ... .. . ... ...
ROW 5A : ... .. 6 ... ... ... : ... .. . ... ... ... : ... .. . ... : ... .. 4 ... : ... .. . ... ...
ROW 5B : ... .. 7 ... ... ... : ... .. . ... ... ... : ... .. . ... : ... .. 0 ... : ... .. . ... ...
ROW 5C : ... .. 8 ... ... ... : ... .. . ... ... ... : ... .. . ... : ... .. . ... : ... .. . ... ...
ROW 5D : ... .. 7 ... ... ... : ... .. . ... ... ... : ... .. . ... : ... .. . ... : ... .. . ... ...
ROW 5E : ... .. 6 ... ... ... : ... .. . ... ... ... : ... .. . ... : ... .. . ... : ... .. . ... ...
ROW 5F : ... .. 5 ... ... ... : ... .. . ... ... ... : --- .. . ... : ... .. . ... : ... .. . ... ...
ROW 60 : ... .. 4 ... ... ... : ... .. . ... ... ... : D#2 00 . P7F : ... .. . ... : ... .. . ... ...
ROW 61 : ... .. . ... ... ... : ... .. . ... ... ... : ... .. . ... : ... .. . ... : ... .. . ... ...
ROW 62 : ... .. . ... ... ... : ... .. . ... ... ... : ... .. . ... : ... .. . ... : ... .. . ... ...
ROW 63 : ... .. . ... ... ... : ... .. . ... ... ... : ... .. . ... : ... .. . ... : ... .. . ... ...
ROW 64 : ... .. . ... ... ... : ... .. . ... ... ... : ... .. . ... : ... .. . ... : ... .. . ... ...
ROW 65 : ... .. . ... ... ... : ... .. . ... ... ... : ... .. . ... : ... .. . ... : ... .. . ... ...
ROW 66 : ... .. . ... ... ... : ... .. . ... ... ... : ... .. . ... : ... .. . ... : ... .. . ... ...
ROW 67 : ... .. . ... ... ... : ... .. . ... ... ... : --- .. . ... : ... .. . ... : ... .. . ... ...
ROW 68 : ... .. . ... ... ... : ... .. . ... ... ... : C-2 00 . ... : ... .. . ... : ... .. . ... ...
ROW 69 : ... .. . ... ... ... : ... .. . ... ... ... : ... .. . ... : ... .. . ... : ... .. . ... ...
ROW 6A : ... .. . ... ... ... : ... .. . ... ... ... : ... .. . ... : ... .. . ... : ... .. . ... ...
ROW 6B : ... .. . ... ... ... : ... .. . ... ... ... : ... .. . ... : ... .. . ... : ... .. . ... ...
ROW 6C : ... .. . ... ... ... : ... .. . ... ... ... : ... .. . ... : ... .. . ... : ... .. . ... ...
ROW 6D : ... .. . ... ... ... : ... .. . ... ... ... : ... .. . ... : ... .. . ... : ... .. . ... ...
ROW 6E : ... .. . ... ... ... : ... .. . ... ... ... : ... .. . ... : ... .. . ... : ... .. . ... ...
ROW 6F : ... .. . ... ... ... : ... .. . ... ... ... : --- .. . ... : ... .. . ... : ... .. . ... ...
ROW 70 : G#2 00 4 P80 ... ... : ... .. . ... ... ... : G#1 00 . ... : ... .. C ... : ... .. . ... ...
ROW 71 : ... .. 5 ... ... ... : ... .. . ... ... ... : ... .. . ... : ... .. 8 ... : ... .. . ... ...
ROW 72 : ... .. 6 ... ... ... : ... .. . ... ... ... : ... .. . ... : ... .. 4 ... : ... .. . ... ...
ROW 73 : ... .. 7 ... ... ... : ... .. . ... ... ... : ... .. . ... : ... .. 0 ... : ... .. . ... ...
ROW 74 : ... .. 8 ... ... ... : ... .. . ... ... ... : ... .. . ... : ... .. . ... : ... .. . ... ...
ROW 75 : ... .. 7 ... ... ... : ... .. . ... ... ... : ... .. . ... : ... .. . ... : ... .. . ... ...
ROW 76 : ... .. 6 ... ... ... : ... .. . ... ... ... : ... .. . ... : ... .. . ... : ... .. . ... ...
ROW 77 : ... .. 5 ... ... ... : ... .. . ... ... ... : ... .. . ... : ... .. . ... : ... .. . ... ...
ROW 78 : ... .. 4 ... ... ... : ... .. . ... ... ... : ... .. . ... : ... .. . ... : ... .. . ... ...
ROW 79 : ... .. . ... ... ... : ... .. . ... ... ... : ... .. . ... : ... .. . ... : ... .. . ... ...
ROW 7A : ... .. . ... ... ... : ... .. . ... ... ... : ... .. . ... : ... .. . ... : ... .. . ... ...
ROW 7B : ... .. . ... ... ... : ... .. . ... ... ... : ... .. . ... : ... .. . ... : ... .. . ... ...
ROW 7C : ... .. . ... ... ... : ... .. . ... ... ... : ... .. . ... : ... .. . ... : ... .. . ... ...
ROW 7D : ... .. . ... ... ... : ... .. . ... ... ... : ... .. . ... : ... .. . ... : ... .. . ... ...
ROW 7E : ... .. . ... ... ... : ... .. . ... ... ... : ... .. . ... : ... .. . ... : ... .. . ... ...
ROW 7F : ... .. . ... ... ... : ... .. . ... ... ... : --- .. . ... : ... .. . ... : ... .. . ... ...

PATTERN 14
ROW 00 : ... .. . ... ... ... : ... .. . ... ... ... : ... .. . ... : ... .. . ... : ... .. . ... ...
ROW 01 : ... .. . ... ... ... : ... .. . ... ... ... : ... .. . ... : ... .. . ... : ... .. . ... ...
ROW 02 : ... .. . ... ... ... : ... .. . ... ... ... : ... .. . ... : ... .. . ... : ... .. . ... ...
ROW 03 : ... .. . ... ... ... : ... .. . ... ... ... : ... .. . ... : ... .. . ... : ... .. . ... ...
ROW 04 : ... .. . ... ... ... : ... .. . ... ... ... : ... .. . ... : ... .. . ... : ... .. . ... ...
ROW 05 : ... .. . ... ... ... : ... .. . ... ... ... : ... .. . ... : ... .. . ... : ... .. . ... ...
ROW 06 : ... .. . ... ... ... : ... .. . ... ... ... : ... .. . ... : ... .. . ... : ... .. . ... ...
ROW 07 : ... .. . ... ... ... : ... .. . ... ... ... : ... .. . ... : ... .. . ... : ... .. . ... ...
ROW 08 : G-2 00 4 P80 ... ... : D#4 00 D P81 ... ... : C-3 00 . P80 : ... .. C ... : ... .. . ... ...
ROW 09 : ... .. 5 ... ... ... : ... .. 9 ... ... ... : ... .. . ... : ... .. 8 ... : ... .. . ... ...
ROW 0A : ... .. 6 ... ... ... : ... .. 7 ... ... ... : ... .. . ... : ... .. 4 ... : ... .. . ... ...
ROW 0B : ... .. 7 ... ... ... : ... .. 6 ... ... ... : ... .. . ... : ... .. 0 ... : ... .. . ... ...
ROW 0C : ... .. 8 ... ... ... : ... .. 5 ... ... ... : ... .. . ... : ... .. . ... : ... .. . ... ...
ROW 0D : ... .. 7 ... ... ... : ... .. . ... ... ... : ... .. . ... : ... .. . ... : ... .. . ... ...
ROW 0E : ... .. 6 ... ... ... : ... .. . ... ... ... : ... .. . ... : ... .. . ... : ... .. . ... ...
ROW 0F : ... .. 5 ... ... ... : ... .. 4 ... ... ... : --- .. . ... : ... .. . ... : ... .. . ... ...
ROW 10 : F-2 00 4 P80 ... ... : D-4 00 D P80 ... ... : A#2 00 . ... : ... .. C ... : ... .. . ... ...
ROW 11 : ... .. 5 ... ... ... : ... .. 9 ... ... ... : ... .. . ... : ... .. 8 ... : ... .. . ... ...
ROW 12 : ... .. 6 ... ... ... : ... .. 7 ... ... ... : ... .. . ... : ... .. 4 ... : ... .. . ... ...
ROW 13 : ... .. 7 ... ... ... : ... .. 6 ... ... ... : ... .. . ... : ... .. 0 ... : ... .. . ... ...
ROW 14 : ... .. 8 ... ... ... : ... .. 5 ... ... ... : ... .. . ... : ... .. . ... : ... .. . ... ...
ROW 15 : ... .. 7 ... ... ... : ... .. . ... ... ... : ... .. . ... : ... .. . ... : ... .. . ... ...
ROW 16 : ... .. 6 ... ... ... : ... .. . ... ... ... : ... .. . ... : ... .. . ... : ... .. . ... ...
ROW 17 : ... .. 5 ... ... ... : ... .. 4 ... ... ... : --- .. . ... : ... .. . ... : ... .. . ... ...
ROW 18 : D#2 00 4 P7F ... ... : C-4 00 D P81 ... ... : G#2 00 . ... : ... .. C ... : ... .. . ... ...
ROW 19 : ... .. 5 ... ... ... : ... .. 9 ... ... ... : ... .. . ... : ... .. 8 ... : ... .. . ... ...
ROW 1A : ... .. 6 ... ... ... : ... .. 7 ... ... ... : ... .. . ... : ... .. 4 ... : ... .. . ... ...
ROW 1B : ... .. 7 ... ... ... : ... .. 6 ... ... ... : ... .. . ... : ... .. 0 ... : ... .. . ... ...
ROW 1C : ... .. 8 ... ... ... : ... .. 5 ... ... ... : ... .. . ... : ... .. . ... : ... .. . ... ...
ROW 1D : ... .. 7 ... ... ... : ... .. . ... ... ... : ... .. . ... : ... .. . ... : ... .. . ... ...
ROW 1E : ... .. 6 ... ... ... : ... .. . ... ... ... : ... .. . ... : ... .. . ... : ... .. . ... ...
ROW 1F : ... .. 5 ... ... ... : ... .. 4 ... ... ... : --- .. . ... : ... .. . ... : ... .. . ... ...
ROW 20 : F-2 00 4 P80 ... ... : D-4 00 D P80 ... ... : D#2 00 . P7F : ... .. C ... : ... .. . ... ...
ROW 21 : ... .. 5 ... ... ... : ... .. 9 ... ... ... : ... .. . ... : ... .. 8 ... : ... .. . ... ...
ROW 22 : ... .. 6 ... ... ... : ... .. 7 ... ... ... : ... .. . ... : ... .. 4 ... : ... .. . ... ...
ROW 23 : ... .. 7 ... ... ... : ... .. 6 ... ... ... : ... .. . ... : ... .. 0 ... : ... .. . ... ...
ROW 24 : ... .. 8 ... ... ... : ... .. 5 ... ... ... : ... .. . ... : ... .. . ... : ... .. . ... ...
ROW 25 : ... .. 7 ... ... ... : ... .. . ... ... ... : ... .. . ... : ... .. . ... : ... .. . ... ...
ROW 26 : ... .. 6 ... ... ... : ... .. . ... ... ... : ... .. . ... : ... .. . ... : ... .. . ... ...
ROW 27 : ... .. 5 ... ... ... : ... .. 4 ... ... ... : ... .. . ... : ... .. . ... : ... .. . ... ...
ROW 28 : ... .. 4 ... ... ... : ... .. . ... ... ... : ... .. . ... : ... .. . ... : ... .. . ... ...
ROW 29 : ... .. . ... ... ... : ... .. . ... ... ... : ... .. . ... : ... .. . ... : ... .. . ... ...
ROW 2A : ... .. . ... ... ... : ... .. . ... ... ... : ... .. . ... : ... .. . ... : ... .. . ... ...
ROW 2B : ... .. . ... ... ... : ... .. . ... ... ... : ... .. . ... : ... .. . ... : ... .. . ... ...
ROW 2C : ... .. . ... ... ... : ... .. . ... ... ... : ... .. . ... : ... .. . ... : ... .. . ... ...
ROW 2D : ... .. . ... ... ... : ... .. . ... ... ... : ... .. . ... : ... .. . ... : ... .. . ... ...
ROW 2E : ... .. . ... ... ... : ... .. . ... ... ... : ... .. . ... : ... .. . ... : ... .. . ... ...
ROW 2F : ... .. . ... ... ... : ... .. . ... ... ... : --- .. . ... : ... .. . ... : ... .. . ... ...
ROW 30 : ... .. . ... ... ... : ... .. . ... ... ... : ... .. . ... : ... .. . ... : ... .. . ... ...
ROW 31 : ... .. . ... ... ... : ... .. . ... ... ... : ... .. . ... : ... .. . ... : ... .. . ... ...
ROW 32 : ... .. . ... ... ... : ... .. . ... ... ... : ... .. . ... : ... .. . ... : ... .. . ... ...
ROW 33 : ... .. . ... ... ... : ... .. . ... ... ... : ... .. . ... : ... .. . ... : ... .. . ... ...
ROW 34 : ... .. . ... ... ... : ... .. . ... ... ... : ... .. . ... : ... .. . ... : ... .. . ... ...
ROW 35 : ... .. . ... ... ... : ... .. . ... ... ... : ... .. . ... : ... .. . ... : ... .. . ... ...
ROW 36 : ... .. . ... ... ... : ... .. . ... ... ... : ... .. . ... : ... .. . ... : ... .. . ... ...
ROW 37 : ... .. . ... ... ... : ... .. . ... ... ... : ... .. . ... : ... .. . ... : ... .. . ... ...
ROW 38 : A#2 00 4 P80 ... ... : ... .. . ... ... ... : D-2 00 . P80 : ... .. C ... : ... .. . ... ...
ROW 39 : ... .. 5 ... ... ... : ... .. . ... ... ... : ... .. . ... : ... .. 8 ... : ... .. . ... ...
ROW 3A : ... .. 6 ... ... ... : ... .. . ... ... ... : ... .. . ... : ... .. 4 ... : ... .. . ... ...
ROW 3B : ... .. 7 ... ... ... : ... .. . ... ... ... : ... .. . ... : ... .. 0 ... : ... .. . ... ...
ROW 3C : ... .. 8 ... ... ... : ... .. . ... ... ... : ... .. . ... : ... .. . ... : ... .. . ... ...
ROW 3D : ... .. 7 ... ... ... : ... .. . ... ... ... : ... .. . ... : ... .. . ... : ... .. . ... ...
ROW 3E : ... .. 6 ... ... ... : ... .. . ... ... ... : ... .. . ... : ... .. . ... : ... .. . ... ...
ROW 3F : ... .. 5 ... ... ... : ... .. . ... ... ... : ... .. . ... : ... .. . ... : ... .. . ... ...
ROW 40 : ... .. 4 ... ... ... : ... .. . ... ... ... : ... .. . ... : ... .. . ... : ... .. . ... ...
ROW 41 : ... .. . ... ... ... : ... .. . ... ... ... : ... .. . ... : ... .. . ... : ... .. . ... ...
ROW 42 : ... .. . ... ... ... : ... .. . ... ... ... : ... .. . ... : ... .. . ... : ... .. . ... ...
ROW 43 : ... .. . ... ... ... : ... .. . ... ... ... : ... .. . ... : ... .. . ... : ... .. . ... ...
ROW 44 : ... .. . ... ... ... : ... .. . ... ... ... : ... .. . ... : ... .. . ... : ... .. . ... ...
ROW 45 : ... .. . ... ... ... : ... .. . ... ... ... : ... .. . ... : ... .. . ... : ... .. . ... ...
ROW 46 : ... .. . ... ... ... : ... .. . ... ... ... : ... .. . ... : ... .. . ... : ... .. . ... ...
ROW 47 : ... .. . ... ... ... : ... .. . ... ... ... : --- .. . ... : ... .. . ... : ... .. . ... ...
ROW 48 : ... .. . ... ... ... : ... .. . ... ... ... : ... .. . ... : ... .. . ... : ... .. . ... ...
ROW 49 : ... .. . ... ... ... : ... .. . ... ... ... : ... .. . ... : ... .. . ... : ... .. . ... ...
ROW 4A : ... .. . ... ... ... : ... .. . ... ... ... : ... .. . ... : ... .. . ... : ... .. . ... ...
ROW 4B : ... .. . ... ... ... : ... .. . ... ... ... : ... .. . ... : ... .. . ... : ... .. . ... ...
ROW 4C : ... .. . ... ... ... : ... .. . ... ... ... : ... .. . ... : ... .. . ... : ... .. . ... ...
ROW 4D : ... .. . ... ... ... : ... .. . ... ... ... : ... .. . ... : ... .. . ... : ... .. . ... ...
ROW 4E : ... .. . ... ... ... : ... .. . ... ... ... : ... .. . ... : ... .. . ... : ... .. . ... ...
ROW 4F : ... .. . ... ... ... : ... .. . ... ... ... : ... .. . ... : ... .. . ... : ... .. . ... ...
ROW 50 : G-2 00 4 P80 ... ... : A#3 00 D P81 ... ... : C-2 00 . P7F : ... .. C ... : ... .. . ... ...
ROW 51 : ... .. 5 ... ... ... : ... .. 9 ... ... ... : ... .. . ... : ... .. 8 ... : ... .. . ... ...
ROW 52 : ... .. 6 ... ... ... : ... .. 7 ... ... ... : ... .. . ... : ... .. 4 ... : ... .. . ... ...
ROW 53 : ... .. 7 ... ... ... : ... .. 6 ... ... ... : ... .. . ... : ... .. 0 ... : ... .. . ... ...
ROW 54 : ... .. 8 ... ... ... : ... .. 5 ... ... ... : ... .. . ... : ... .. . ... : ... .. . ... ...
ROW 55 : ... .. 7 ... ... ... : ... .. . ... ... ... : ... .. . ... : ... .. . ... : ... .. . ... ...
ROW 56 : ... .. 6 ... ... ... : ... .. . ... ... ... : ... .. . ... : ... .. . ... : ... .. . ... ...
ROW 57 : ... .. 5 ... ... ... : ... .. 4 ... ... ... : ... .. . ... : ... .. . ... : ... .. . ... ...
ROW 58 : ... .. 4 ... ... ... : ... .. . ... ... ... : ... .. . ... : ... .. . ... : ... .. . ... ...
ROW 59 : ... .. . ... ... ... : ... .. . ... ... ... : ... .. . ... : ... .. . ... : ... .. . ... ...
ROW 5A : ... .. . ... ... ... : ... .. . ... ... ... : ... .. . ... : ... .. . ... : ... .. . ... ...
ROW 5B : ... .. . ... ... ... : ... .. . ... ... ... : ... .. . ... : ... .. . ... : ... .. . ... ...
ROW 5C : ... .. . ... ... ... : ... .. . ... ... ... : ... .. . ... : ... .. . ... : ... .. . ... ...
ROW 5D : ... .. . ... ... ... : ... .. . ... ... ... : ... .. . ... : ... .. . ... : ... .. . ... ...
ROW 5E : ... .. . ... ... ... : ... .. . ... ... ... : ... .. . ... : ... .. . ... : ... .. . ... ...
ROW 5F : ... .. . ... ... ... : ... .. . ... ... ... : --- .. . ... : ... .. . ... : ... .. . ... ...
ROW 60 : ... .. . ... ... ... : ... .. . ... ... ... : ... .. . ... : ... .. . ... : ... .. . ... ...
ROW 61 : ... .. . ... ... ... : ... .. . ... ... ... : ... .. . ... : ... .. . ... : ... .. . ... ...
ROW 62 : ... .. . ... ... ... : ... .. . ... ... ... : ... .. . ... : ... .. . ... : ... .. . ... ...
ROW 63 : ... .. . ... ... ... : ... .. . ... ... ... : ... .. . ... : ... .. . ... : ... .. . ... ...
ROW 64 : ... .. . ... ... ... : ... .. . ... ... ... : ... .. . ... : ... .. . ... : ... .. . ... ...
ROW 65 : ... .. . ... ... ... : ... .. . ... ... ... : ... .. . ... : ... .. . ... : ... .. . ... ...
ROW 66 : ... .. . ... ... ... : ... .. . ... ... ... : ... .. . ... : ... .. . ... : ... .. . ... ...
ROW 67 : ... .. . ... ... ... : ... .. . ... ... ... : ... .. . ... : ... .. . ... : ... .. . ... ...
ROW 68 : F-2 00 4 P80 ... ... : A#3 00 D P81 ... ... : A#1 00 . P80 : ... .. C ... : ... .. . ... ...
ROW 69 : ... .. 5 ... ... ... : ... .. 9 ... ... ... : ... .. . ... : ... .. 8 ... : ... .. . ... ...
ROW 6A : ... .. 6 ... ... ... : ... .. 7 ... ... ... : ... .. . ... : ... .. 4 ... : ... .. . ... ...
ROW 6B : ... .. 7 ... ... ... : ... .. 6 ... ... ... : ... .. . ... : ... .. 0 ... : ... .. . ... ...
ROW 6C : ... .. 8 ... ... ... : ... .. 5 ... ... ... : ... .. . ... : ... .. . ... : ... .. . ... ...
ROW 6D : ... .. 7 ... ... ... : ... .. . ... ... ... : ... .. . ... : ... .. . ... : ... .. . ... ...
ROW 6E : ... .. 6 ... ... ... : ... .. . ... ... ... : ... .. . ... : ... .. . ... : ... .. . ... ...
ROW 6F : ... .. 5 ... ... ... : ... .. 4 ... ... ... : ... .. . ... : ... .. . ... : ... .. . ... ...
ROW 70 : A#3 00 4 P81 ... ... : D-4 00 D P80 ... ... : ... .. . ... : ... .. C ... : ... .. . ... ...
ROW 71 : ... .. 5 ... ... ... : ... .. 9 ... ... ... : ... .. . ... : ... .. 8 ... : ... .. . ... ...
ROW 72 : ... .. 6 ... ... ... : ... .. 7 ... ... ... : ... .. . ... : ... .. 4 ... : ... .. . ... ...
ROW 73 : ... .. 7 ... ... ... : ... .. 6 ... ... ... : ... .. . ... : ... .. 0 ... : ... .. . ... ...
ROW 74 : ... .. 8 ... ... ... : ... .. 5 ... ... ... : ... .. . ... : ... .. . ... : ... .. . ... ...
ROW 75 : ... .. 7 ... ... ... : ... .. . ... ... ... : ... .. . ... : ... .. . ... : ... .. . ... ...
ROW 76 : ... .. 6 ... ... ... : ... .. . ... ... ... : ... .. . ... : ... .. . ... : ... .. . ... ...
ROW 77 : ... .. 5 ... ... ... : ... .. 4 ... ... ... : --- .. . ... : ... .. . ... : ... .. . ... ...
ROW 78 : D-3 00 4 P80 ... ... : F-4 00 D P80 ... ... : ... .. . ... : ... .. C ... : ... .. . ... ...
ROW 79 : ... .. 5 ... ... ... : ... .. 9 ... ... ... : ... .. . ... : ... .. 8 ... : ... .. . ... ...
ROW 7A : ... .. 6 ... ... ... : ... .. 7 ... ... ... : ... .. . ... : ... .. 4 ... : ... .. . ... ...
ROW 7B : ... .. 7 ... ... ... : ... .. 6 ... ... ... : ... .. . ... : ... .. 0 ... : ... .. . ... ...
ROW 7C : ... .. 8 ... ... ... : ... .. 5 ... ... ... : ... .. . ... : ... .. . ... : ... .. . ... ...
ROW 7D : ... .. 7 ... ... ... : ... .. . ... ... ... : ... .. . ... : ... .. . ... : ... .. . ... ...
ROW 7E : ... .. 6 ... ... ... : ... .. . ... ... ... : ... .. . ... : ... .. . ... : ... .. . ... ...
ROW 7F : ... .. 5 ... ... ... : ... .. 4 ... ... ... : ... .. . ... : ... .. . ... : ... .. . ... ...

PATTERN 15
ROW 00 : D-3 00 4 P80 ... ... : F#4 00 D P80 ... ... : A-2 00 . P7F : ... .. C ... : ... .. . ... ...
ROW 01 : ... .. 5 ... ... ... : ... .. 9 ... ... ... : ... .. . ... : ... .. 8 ... : ... .. . ... ...
ROW 02 : ... .. 6 ... ... ... : ... .. 7 ... ... ... : ... .. . ... : ... .. 4 ... : ... .. . ... ...
ROW 03 : ... .. 7 ... ... ... : ... .. 6 ... ... ... : ... .. . ... : ... .. 0 ... : ... .. . ... ...
ROW 04 : ... .. 8 ... ... ... : ... .. 5 ... ... ... : ... .. . ... : ... .. . ... : ... .. . ... ...
ROW 05 : ... .. 7 ... ... ... : ... .. . ... ... ... : ... .. . ... : ... .. . ... : ... .. . ... ...
ROW 06 : ... .. 6 ... ... ... : ... .. . ... ... ... : ... .. . ... : ... .. . ... : ... .. . ... ...
ROW 07 : ... .. 5 ... ... ... : ... .. 4 ... ... ... : ... .. . ... : ... .. . ... : ... .. . ... ...
ROW 08 : ... .. 4 ... ... ... : ... .. . ... ... ... : ... .. . ... : ... .. . ... : ... .. . ... ...
ROW 09 : ... .. . ... ... ... : ... .. . ... ... ... : ... .. . ... : ... .. . ... : ... .. . ... ...
ROW 0A : ... .. . ... ... ... : ... .. . ... ... ... : ... .. . ... : ... .. . ... : ... .. . ... ...
ROW 0B : ... .. . ... ... ... : ... .. . ... ... ... : ... .. . ... : ... .. . ... : ... .. . ... ...
ROW 0C : ... .. . ... ... ... : ... .. . ... ... ... : ... .. . ... : ... .. . ... : ... .. . ... ...
ROW 0D : ... .. . ... ... ... : ... .. . ... ... ... : ... .. . ... : ... .. . ... : ... .. . ... ...
ROW 0E : ... .. . ... ... ... : ... .. . ... ... ... : ... .. . ... : ... .. . ... : ... .. . ... ...
ROW 0F : ... .. . ... ... ... : ... .. . ... ... ... : --- .. . ... : ... .. . ... : ... .. . ... ...
ROW 10 : ... .. . ... ... ... : ... .. . ... ... ... : ... .. . ... : ... .. . ... : ... .. . ... ...
ROW 11 : ... .. . ... ... ... : ... .. . ... ... ... : ... .. . ... : ... .. . ... : ... .. . ... ...
ROW 12 : ... .. . ... ... ... : ... .. . ... ... ... : ... .. . ... : ... .. . ... : ... .. . ... ...
ROW 13 : ... .. . ... ... ... : ... .. . ... ... ... : ... .. . ... : ... .. . ... : ... .. . ... ...
ROW 14 : ... .. . ... ... ... : ... .. . ... ... ... : ... .. . ... : ... .. . ... : ... .. . ... ...
ROW 15 : ... .. . ... ... ... : ... .. . ... ... ... : ... .. . ... : ... .. . ... : ... .. . ... ...
ROW 16 : ... .. . ... ... ... : ... .. . ... ... ... : ... .. . ... : ... .. . ... : ... .. . ... ...
ROW 17 : ... .. . ... ... ... : ... .. . ... ... ... : ... .. . ... : ... .. . ... : ... .. . ... ...
ROW 18 : ... .. . ... ... ... : ... .. . ... ... ... : A-2 00 . ... : ... .. C ... : ... .. . ... ...
ROW 19 : ... .. . ... ... ... : ... .. . ... ... ... : ... .. . ... : ... .. 8 ... : ... .. . ... ...
ROW 1A : ... .. . ... ... ... : ... .. . ... ... ... : ... .. . ... : ... .. 4 ... : ... .. . ... ...
ROW 1B : ... .. . ... ... ... : ... .. . ... ... ... : ... .. . ... : ... .. 0 ... : ... .. . ... ...
ROW 1C : ... .. . ... ... ... : ... .. . ... ... ... : ... .. . ... : ... .. . ... : ... .. . ... ...
ROW 1D : ... .. . ... ... ... : ... .. . ... ... ... : ... .. . ... : ... .. . ... : ... .. . ... ...
ROW 1E : ... .. . ... ... ... : ... .. . ... ... ... : ... .. . ... : ... .. . ... : ... .. . ... ...
ROW 1F : ... .. . ... ... ... : ... .. . ... ... ... : ... .. . ... : ... .. . ... : ... .. . ... ...
ROW 20 : ... .. . ... ... ... : ... .. . ... ... ... : ... .. . ... : ... .. . ... : ... .. . ... ...
ROW 21 : ... .. . ... ... ... : ... .. . ... ... ... : ... .. . ... : ... .. . ... : ... .. . ... ...
ROW 22 : ... .. . ... ... ... : ... .. . ... ... ... : ... .. . ... : ... .. . ... : ... .. . ... ...
ROW 23 : ... .. . ... ... ... : ... .. . ... ... ... : ... .. . ... : ... .. . ... : ... .. . ... ...
ROW 24 : ... .. . ... ... ... : ... .. . ... ... ... : ... .. . ... : ... .. . ... : ... .. . ... ...
ROW 25 : ... .. . ... ... ... : ... .. . ... ... ... : ... .. . ... : ... .. . ... : ... .. . ... ...
ROW 26 : ... .. . ... ... ... : ... .. . ... ... ... : ... .. . ... : ... .. . ... : ... .. . ... ...
ROW 27 : ... .. . ... ... ... : ... .. . ... ... ... : --- .. . ... : ... .. . ... : ... .. . ... ...
ROW 28 : ... .. . ... ... ... : ... .. . ... ... ... : ... .. . ... : ... .. . ... : ... .. . ... ...
ROW 29 : ... .. . ... ... ... : ... .. . ... ... ... : ... .. . ... : ... .. . ... : ... .. . ... ...
ROW 2A : ... .. . ... ... ... : ... .. . ... ... ... : ... .. . ... : ... .. . ... : ... .. . ... ...
ROW 2B : ... .. . ... ... ... : ... .. . ... ... ... : ... .. . ... : ... .. . ... : ... .. . ... ...
ROW 2C : ... .. . ... ... ... : ... .. . ... ... ... : ... .. . ... : ... .. . ... : ... .. . ... ...
ROW 2D : ... .. . ... ... ... : ... .. . ... ... ... : ... .. . ... : ... .. . ... : ... .. . ... ...
ROW 2E : ... .. . ... ... ... : ... .. . ... ... ... : ... .. . ... : ... .. . ... : ... .. . ... ...
ROW 2F : ... .. . ... ... ... : ... .. . ... ... ... : ... .. . ... : ... .. . ... : ... .. . ... ...
ROW 30 : ... .. . ... ... ... : ... .. . ... ... ... : A-2 00 . ... : ... .. C ... : ... .. . ... ...
ROW 31 : ... .. . ... ... ... : ... .. . ... ... ... : ... .. . ... : ... .. 8 ... : ... .. . ... ...
ROW 32 : ... .. . ... ... ... : ... .. . ... ... ... : ... .. . ... : ... .. 4 ... : ... .. . ... ...
ROW 33 : ... .. . ... ... ... : ... .. . ... ... ... : ... .. . ... : ... .. 0 ... : ... .. . ... ...
ROW 34 : ... .. . ... ... ... : ... .. . ... ... ... : ... .. . ... : ... .. . ... : ... .. . ... ...
ROW 35 : ... .. . ... ... ... : ... .. . ... ... ... : ... .. . ... : ... .. . ... : ... .. . ... ...
ROW 36 : ... .. . ... ... ... : ... .. . ... ... ... : ... .. . ... : ... .. . ... : ... .. . ... ...
ROW 37 : ... .. . ... ... ... : ... .. . ... ... ... : ... .. . ... : ... .. . ... : ... .. . ... ...
ROW 38 : ... .. . ... ... ... : ... .. . ... ... ... : ... .. . ... : ... .. . ... : ... .. . ... ...
ROW 39 : ... .. . ... ... ... : ... .. . ... ... ... : ... .. . ... : ... .. . ... : ... .. . ... ...
ROW 3A : ... .. . ... ... ... : ... .. . ... ... ... : ... .. . ... : ... .. . ... : ... .. . ... ...
ROW 3B : ... .. . ... ... ... : ... .. . ... ... ... : ... .. . ... : ... .. . ... : ... .. . ... ...
ROW 3C : ... .. . ... ... ... : ... .. . ... ... ... : ... .. . ... : ... .. . ... : ... .. . ... ...
ROW 3D : ... .. . ... ... ... : ... .. . ... ... ... : ... .. . ... : ... .. . ... : ... .. . ... ...
ROW 3E : ... .. . ... ... ... : ... .. . ... ... ... : ... .. . ... : ... .. . ... : ... .. . ... ...
ROW 3F : ... .. . ... ... ... : ... .. . ... ... ... : --- .. . ... : ... .. . ... : ... .. . ... ...
ROW 40 : ... .. . ... ... ... : ... .. . ... ... ... : ... .. . ... : ... .. . ... : ... .. . ... ...
ROW 41 : ... .. . ... ... ... : ... .. . ... ... ... : ... .. . ... : ... .. . ... : ... .. . ... ...
ROW 42 : ... .. . ... ... ... : ... .. . ... ... ... : ... .. . ... : ... .. . ... : ... .. . ... ...
ROW 43 : ... .. . ... ... ... : ... .. . ... ... ... : ... .. . ... : ... .. . ... : ... .. . ... ...
ROW 44 : ... .. . ... ... ... : ... .. . ... ... ... : ... .. . ... : ... .. . ... : ... .. . ... ...
ROW 45 : ... .. . ... ... ... : ... .. . ... ... ... : ... .. . ... : ... .. . ... : ... .. . ... ...
ROW 46 : ... .. . ... ... ... : ... .. . ... ... ... : ... .. . ... : ... .. . ... : ... .. . ... ...
ROW 47 : ... .. . ... ... ... : ... .. . ... ... ... : ... .. . ... : ... .. . ... : ... .. . ... ...
ROW 48 : ... .. . ... ... ... : ... .. . ... ... ... : A-2 00 . ... : ... .. C ... : ... .. . ... ...
ROW 49 : ... .. . ... ... ... : ... .. . ... ... ... : ... .. . ... : ... .. 8 ... : ... .. . ... ...
ROW 4A : ... .. . ... ... ... : ... .. . ... ... ... : ... .. . ... : ... .. 4 ... : ... .. . ... ...
ROW 4B : ... .. . ... ... ... : ... .. . ... ... ... : ... .. . ... : ... .. 0 ... : ... .. . ... ...
ROW 4C : ... .. . ... ... ... : ... .. . ... ... ... : ... .. . ... : ... .. . ... : ... .. . ... ...
ROW 4D : ... .. . ... ... ... : ... .. . ... ... ... : ... .. . ... : ... .. . ... : ... .. . ... ...
ROW 4E : ... .. . ... ... ... : ... .. . ... ... ... : ... .. . ... : ... .. . ... : ... .. . ... ...
ROW 4F : ... .. . ... ... ... : ... .. . ... ... ... : ... .. . ... : ... .. . ... : ... .. . ... ...
ROW 50 : ... .. . ... ... ... : ... .. . ... ... ... : ... .. . ... : ... .. C ... : ... .. . ... ...
ROW 51 : ... .. . ... ... ... : ... .. . ... ... ... : ... .. . ... : ... .. 8 ... : ... .. . ... ...
ROW 52 : ... .. . ... ... ... : ... .. . ... ... ... : ... .. . ... : ... .. 4 ... : ... .. . ... ...
ROW 53 : ... .. . ... ... ... : ... .. . ... ... ... : ... .. . ... : ... .. 0 ... : ... .. . ... ...
ROW 54 : ... .. . ... ... ... : ... .. . ... ... ... : ... .. . ... : ... .. . ... : ... .. . ... ...
ROW 55 : ... .. . ... ... ... : ... .. . ... ... ... : ... .. . ... : ... .. . ... : ... .. . ... ...
ROW 56 : ... .. . ... ... ... : ... .. . ... ... ... : ... .. . ... : ... .. . ... : ... .. . ... ...
ROW 57 : ... .. . ... ... ... : ... .. . ... ... ... : --- .. . ... : ... .. . ... : ... .. . ... ...
ROW 58 : ... .. . ... ... ... : ... .. . ... ... ... : ... .. . ... : ... .. C ... : ... .. . ... ...
ROW 59 : ... .. . ... ... ... : ... .. . ... ... ... : ... .. . ... : ... .. 8 ... : ... .. . ... ...
ROW 5A : ... .. . ... ... ... : ... .. . ... ... ... : ... .. . ... : ... .. 4 ... : ... .. . ... ...
ROW 5B : ... .. . ... ... ... : ... .. . ... ... ... : ... .. . ... : ... .. 0 ... : ... .. . ... ...
ROW 5C : ... .. . ... ... ... : ... .. . ... ... ... : ... .. . ... : ... .. . ... : ... .. . ... ...
ROW 5D : ... .. . ... ... ... : ... .. . ... ... ... : ... .. . ... : ... .. . ... : ... .. . ... ...
ROW 5E : ... .. . ... ... ... : ... .. . ... ... ... : ... .. . ... : ... .. . ... : ... .. . ... ...
ROW 5F : ... .. . ... ... ... : ... .. . ... ... ... : ... .. . ... : ... .. . ... : ... .. . ... ...
ROW 60 : B-2 00 4 P80 ... ... : F#4 00 D P80 ... ... : A-2 00 . ... : ... .. C ... : ... .. . ... ...
ROW 61 : ... .. 5 ... ... ... : ... .. 9 ... ... ... : ... .. . ... : ... .. 8 ... : ... .. . ... ...
ROW 62 : ... .. 6 ... ... ... : ... .. 7 ... ... ... : ... .. . ... : ... .. 4 ... : ... .. . ... ...
ROW 63 : ... .. 7 ... ... ... : ... .. 6 ... ... ... : ... .. . ... : ... .. 0 ... : ... .. . ... ...
ROW 64 : ... .. 8 ... ... ... : ... .. 5 ... ... ... : ... .. . ... : ... .. . ... : ... .. . ... ...
ROW 65 : ... .. 7 ... ... ... : ... .. . ... ... ... : ... .. . ... : ... .. . ... : ... .. . ... ...
ROW 66 : ... .. 6 ... ... ... : ... .. . ... ... ... : ... .. . ... : ... .. . ... : ... .. . ... ...
ROW 67 : ... .. 5 ... ... ... : ... .. 4 ... ... ... : --- .. . ... : ... .. . ... : ... .. . ... ...
ROW 68 : ... .. 4 ... ... ... : ... .. . ... ... ... : A-2 00 . ... : ... .. . ... : ... .. . ... ...
ROW 69 : ... .. . ... ... ... : ... .. . ... ... ... : ... .. . ... : ... .. . ... : ... .. . ... ...
ROW 6A : ... .. . ... ... ... : ... .. . ... ... ... : ... .. . ... : ... .. . ... : ... .. . ... ...
ROW 6B : ... .. . ... ... ... : ... .. . ... ... ... : ... .. . ... : ... .. . ... : ... .. . ... ...
ROW 6C : ... .. . ... ... ... : ... .. . ... ... ... : ... .. . ... : ... .. . ... : ... .. . ... ...
ROW 6D : ... .. . ... ... ... : ... .. . ... ... ... : ... .. . ... : ... .. . ... : ... .. . ... ...
ROW 6E : ... .. . ... ... ... : ... .. . ... ... ... : ... .. . ... : ... .. . ... : ... .. . ... ...
ROW 6F : ... .. . ... ... ... : ... .. . ... ... ... : --- .. . ... : ... .. . ... : ... .. . ... ...
ROW 70 : ... .. . ... ... ... : ... .. . ... ... ... : A-2 00 . ... : ... .. . ... : ... .. . ... ...
ROW 71 : ... .. . ... ... ... : ... .. . ... ... ... : ... .. . ... : ... .. . ... : ... .. . ... ...
ROW 72 : ... .. . ... ... ... : ... .. . ... ... ... : ... .. . ... : ... .. . ... : ... .. . ... ...
ROW 73 : ... .. . ... ... ... : ... .. . ... ... ... : ... .. . ... : ... .. . ... : ... .. . ... ...
ROW 74 : ... .. . ... ... ... : ... .. . ... ... ... : ... .. . ... : ... .. . ... : ... .. . ... ...
ROW 75 : ... .. . ... ... ... : ... .. . ... ... ... : ... .. . ... : ... .. . ... : ... .. . ... ...
ROW 76 : ... .. . ... ... ... : ... .. . ... ... ... : ... .. . ... : ... .. . ... : ... .. . ... ...
ROW 77 : ... .. . ... ... ... : ... .. . ... ... ... : --- .. . ... : ... .. . ... : ... .. . ... ...
ROW 78 : ... .. . ... ... ... : ... .. . ... ... ... : A-2 00 . ... : ... .. C ... : ... .. . ... ...
ROW 79 : ... .. . ... ... ... : ... .. . ... ... ... : ... .. . ... : ... .. 8 ... : ... .. . ... ...
ROW 7A : ... .. . ... ... ... : ... .. . ... ... ... : ... .. . ... : ... .. 4 ... : ... .. . ... ...
ROW 7B : ... .. . ... ... ... : ... .. . ... ... ... : ... .. . ... : ... .. 0 ... : ... .. . ... ...
ROW 7C : ... .. . ... ... ... : ... .. . ... ... ... : ... .. . ... : ... .. . ... : ... .. . ... ...
ROW 7D : ... .. . ... ... ... : ... .. . ... ... ... : ... .. . ... : ... .. . ... : ... .. . ... ...
ROW 7E : ... .. . ... ... ... : ... .. . ... ... ... : ... .. . ... : ... .. . ... : ... .. . ... ...
ROW 7F : ... .. . ... ... ... : ... .. . ... ... ... : --- .. . ... : ... .. . ... : ... .. . ... ...

PATTERN 16
ROW 00 : ... .. . ... ... ... : ... .. . ... ... ... : A-2 00 . ... : ... .. . ... : ... .. . ... ...
ROW 01 : ... .. . ... ... ... : ... .. . ... ... ... : ... .. . ... : ... .. . ... : ... .. . ... ...
ROW 02 : ... .. . ... ... ... : ... .. . ... ... ... : ... .. . ... : ... .. . ... : ... .. . ... ...
ROW 03 : ... .. . ... ... ... : ... .. . ... ... ... : ... .. . ... : ... .. . ... : ... .. . ... ...
ROW 04 : ... .. . ... ... ... : ... .. . ... ... ... : ... .. . ... : ... .. . ... : ... .. . ... ...
ROW 05 : ... .. . ... ... ... : ... .. . ... ... ... : ... .. . ... : ... .. . ... : ... .. . ... ...
ROW 06 : ... .. . ... ... ... : ... .. . ... ... ... : ... .. . ... : ... .. . ... : ... .. . ... ...
ROW 07 : ... .. . ... ... ... : ... .. . ... ... ... : --- .. . ... : ... .. . ... : ... .. . ... ...
ROW 08 : ... .. . ... ... ... : ... .. . ... ... ... : A-2 00 . ... : ... .. . ... : ... .. . ... ...
ROW 09 : ... .. . ... ... ... : ... .. . ... ... ... : ... .. . ... : ... .. . ... : ... .. . ... ...
ROW 0A : ... .. . ... ... ... : ... .. . ... ... ... : ... .. . ... : ... .. . ... : ... .. . ... ...
ROW 0B : ... .. . ... ... ... : ... .. . ... ... ... : ... .. . ... : ... .. . ... : ... .. . ... ...
ROW 0C : ... .. . ... ... ... : ... .. . ... ... ... : ... .. . ... : ... .. . ... : ... .. . ... ...
ROW 0D : ... .. . ... ... ... : ... .. . ... ... ... : ... .. . ... : ... .. . ... : ... .. . ... ...
ROW 0E : ... .. . ... ... ... : ... .. . ... ... ... : ... .. . ... : ... .. . ... : ... .. . ... ...
ROW 0F : ... .. . ... ... ... : ... .. . ... ... ... : --- .. . ... : ... .. . ... : ... .. . ... ...
ROW 10 : G-2 00 4 P80 ... ... : ... .. . ... ... ... : A-2 00 . ... : ... .. C ... : ... .. . ... ...
ROW 11 : ... .. 5 ... ... ... : ... .. . ... ... ... : ... .. . ... : ... .. 8 ... : ... .. . ... ...
ROW 12 : ... .. 6 ... ... ... : ... .. . ... ... ... : ... .. . ... : ... .. 4 ... : ... .. . ... ...
ROW 13 : ... .. 7 ... ... ... : ... .. . ... ... ... : ... .. . ... : ... .. 0 ... : ... .. . ... ...
ROW 14 : ... .. 8 ... ... ... : ... .. . ... ... ... : ... .. . ... : ... .. . ... : ... .. . ... ...
ROW 15 : ... .. 7 ... ... ... : ... .. . ... ... ... : ... .. . ... : ... .. . ... : ... .. . ... ...
ROW 16 : ... .. 6 ... ... ... : ... .. . ... ... ... : ... .. . ... : ... .. . ... : ... .. . ... ...
ROW 17 : ... .. 5 ... ... ... : ... .. . ... ... ... : --- .. . ... : ... .. . ... : ... .. . ... ...
ROW 18 : ... .. 4 ... ... ... : ... .. . ... ... ... : A-2 00 . ... : ... .. . ... : ... .. . ... ...
ROW 19 : ... .. . ... ... ... : ... .. . ... ... ... : ... .. . ... : ... .. . ... : ... .. . ... ...
ROW 1A : ... .. . ... ... ... : ... .. . ... ... ... : ... .. . ... : ... .. . ... : ... .. . ... ...
ROW 1B : ... .. . ... ... ... : ... .. . ... ... ... : ... .. . ... : ... .. . ... : ... .. . ... ...
ROW 1C : ... .. . ... ... ... : ... .. . ... ... ... : ... .. . ... : ... .. . ... : ... .. . ... ...
ROW 1D : ... .. . ... ... ... : ... .. . ... ... ... : ... .. . ... : ... .. . ... : ... .. . ... ...
ROW 1E : ... .. . ... ... ... : ... .. . ... ... ... : ... .. . ... : ... .. . ... : ... .. . ... ...
ROW 1F : ... .. . ... ... ... : ... .. . ... ... ... : --- .. . ... : ... .. . ... : ... .. . ... ...
ROW 20 : ... .. . ... ... ... : ... .. . ... ... ... : A-2 00 . ... : ... .. . ... : ... .. . ... ...
ROW 21 : ... .. . ... ... ... : ... .. . ... ... ... : ... .. . ... : ... .. . ... : ... .. . ... ...
ROW 22 : ... .. . ... ... ... : ... .. . ... ... ... : ... .. . ... : ... .. . ... : ... .. . ... ...
ROW 23 : ... .. . ... ... ... : ... .. . ... ... ... : ... .. . ... : ... .. . ... : ... .. . ... ...
ROW 24 : ... .. . ... ... ... : ... .. . ... ... ... : ... .. . ... : ... .. . ... : ... .. . ... ...
ROW 25 : ... .. . ... ... ... : ... .. . ... ... ... : ... .. . ... : ... .. . ... : ... .. . ... ...
ROW 26 : ... .. . ... ... ... : ... .. . ... ... ... : ... .. . ... : ... .. . ... : ... .. . ... ...
ROW 27 : ... .. . ... ... ... : ... .. . ... ... ... : --- .. . ... : ... .. . ... : ... .. . ... ...
ROW 28 : ... .. . ... ... ... : ... .. . ... ... ... : A-2 00 . ... : ... .. C ... : ... .. . ... ...
ROW 29 : ... .. . ... ... ... : ... .. . ... ... ... : ... .. . ... : ... .. 8 ... : ... .. . ... ...
ROW 2A : ... .. . ... ... ... : ... .. . ... ... ... : ... .. . ... : ... .. 4 ... : ... .. . ... ...
ROW 2B : ... .. . ... ... ... : ... .. . ... ... ... : ... .. . ... : ... .. 0 ... : ... .. . ... ...
ROW 2C : ... .. . ... ... ... : ... .. . ... ... ... : ... .. . ... : ... .. . ... : ... .. . ... ...
ROW 2D : ... .. . ... ... ... : ... .. . ... ... ... : ... .. . ... : ... .. . ... : ... .. . ... ...
ROW 2E : ... .. . ... ... ... : ... .. . ... ... ... : ... .. . ... : ... .. . ... : ... .. . ... ...
ROW 2F : ... .. . ... ... ... : ... .. . ... ... ... : --- .. . ... : ... .. . ... : ... .. . ... ...
ROW 30 : ... .. . ... ... ... : ... .. . ... ... ... : A-2 00 . ... : ... .. C ... : ... .. . ... ...
ROW 31 : ... .. . ... ... ... : ... .. . ... ... ... : ... .. . ... : ... .. 8 ... : ... .. . ... ...
ROW 32 : ... .. . ... ... ... : ... .. . ... ... ... : ... .. . ... : ... .. 4 ... : ... .. . ... ...
ROW 33 : ... .. . ... ... ... : ... .. . ... ... ... : ... .. . ... : ... .. 0 ... : ... .. . ... ...
ROW 34 : ... .. . ... ... ... : ... .. . ... ... ... : ... .. . ... : ... .. . ... : ... .. . ... ...
ROW 35 : ... .. . ... ... ... : ... .. . ... ... ... : ... .. . ... : ... .. . ... : ... .. . ... ...
ROW 36 : ... .. . ... ... ... : ... .. . ... ... ... : ... .. . ... : ... .. . ... : ... .. . ... ...
ROW 37 : ... .. . ... ... ... : ... .. . ... ... ... : --- .. . ... : ... .. . ... : ... .. . ... ...
ROW 38 : ... .. . ... ... ... : ... .. . ... ... ... : A-2 00 . ... : ... .. C ... : ... .. . ... ...
ROW 39 : ... .. . ... ... ... : ... .. . ... ... ... : ... .. . ... : ... .. 8 ... : ... .. . ... ...
ROW 3A : ... .. . ... ... ... : ... .. . ... ... ... : ... .. . ... : ... .. 4 ... : ... .. . ... ...
ROW 3B : ... .. . ... ... ... : ... .. . ... ... ... : ... .. . ... : ... .. 0 ... : ... .. . ... ...
ROW 3C : ... .. . ... ... ... : ... .. . ... ... ... : ... .. . ... : ... .. . ... : ... .. . ... ...
ROW 3D : ... .. . ... ... ... : ... .. . ... ... ... : ... .. . ... : ... .. . ... : ... .. . ... ...
ROW 3E : ... .. . ... ... ... : ... .. . ... ... ... : ... .. . ... : ... .. . ... : ... .. . ... ...
ROW 3F : ... .. . ... ... ... : ... .. . ... ... ... : --- .. . ... : ... .. . ... : ... .. . ... ...
ROW 40 : ... .. . ... ... ... : ... .. . ... ... ... : ... .. . ... : ... .. . ... : ... .. . ... ...
ROW 41 : B-2 00 4 P80 ... ... : G-1 00 D P7F ... ... : ... .. . ... : ... .. C ... : ... .. . ... ...
ROW 42 : ... .. 5 ... ... ... : ... .. 9 ... ... ... : ... .. . ... : ... .. 8 ... : ... .. . ... ...
ROW 43 : ... .. 6 ... ... ... : ... .. 7 ... ... ... : ... .. . ... : ... .. 4 ... : ... .. . ... ...
ROW 44 : ... .. 7 ... ... ... : ... .. 6 ... ... ... : ... .. . ... : ... .. 0 ... : ... .. . ... ...
ROW 45 : ... .. 8 ... ... ... : ... .. 5 ... ... ... : ... .. . ... : ... .. . ... : ... .. . ... ...
ROW 46 : ... .. 7 ... ... ... : ... .. . ... ... ... : ... .. . ... : ... .. . ... : ... .. . ... ...
ROW 47 : ... .. 6 ... ... ... : ... .. . ... ... ... : ... .. . ... : ... .. . ... : ... .. . ... ...
ROW 48 : ... .. 5 ... ... ... : ... .. 4 ... ... ... : ... .. . ... : ... .. . ... : ... .. . ... ...
ROW 49 : ... .. 4 ... ... ... : ... .. . ... ... ... : ... .. . ... : ... .. . ... : ... .. . ... ...
ROW 4A : ... .. . ... ... ... : ... .. . ... ... ... : ... .. . ... : ... .. . ... : ... .. . ... ...
ROW 4B : ... .. . ... ... ... : ... .. . ... ... ... : ... .. . ... : ... .. . ... : ... .. . ... ...
ROW 4C : ... .. . ... ... ... : ... .. . ... ... ... : ... .. . ... : ... .. . ... : ... .. . ... ...
ROW 4D : ... .. . ... ... ... : ... .. . ... ... ... : ... .. . ... : ... .. . ... : ... .. . ... ...
ROW 4E : ... .. . ... ... ... : ... .. . ... ... ... : ... .. . ... : ... .. . ... : ... .. . ... ...
ROW 4F : ... .. . ... ... ... : ... .. . ... ... ... : ... .. . ... : ... .. . ... : ... .. . ... ...
ROW 50 : ... .. . ... ... ... : ... .. . ... ... ... : ... .. . ... : ... .. . ... : ... .. . ... ...
ROW 51 : ... .. . ... ... ... : ... .. . ... ... ... : ... .. . ... : ... .. . ... : ... .. . ... ...
ROW 52 : ... .. . ... ... ... : ... .. . ... ... ... : ... .. . ... : ... .. . ... : ... .. . ... ...
ROW 53 : ... .. . ... ... ... : ... .. . ... ... ... : ... .. . ... : ... .. . ... : ... .. . ... ...
ROW 54 : ... .. . ... ... ... : ... .. . ... ... ... : ... .. . ... : ... .. . ... : ... .. . ... ...
ROW 55 : ... .. . ... ... ... : ... .. . ... ... ... : ... .. . ... : ... .. . ... : ... .. . ... ...
ROW 56 : ... .. . ... ... ... : ... .. . ... ... ... : ... .. . ... : ... .. . ... : ... .. . ... ...
ROW 57 : ... .. . ... ... ... : ... .. . ... ... ... : ... .. . ... : ... .. . ... : ... .. . ... ...
ROW 58 : ... .. . ... ... ... : ... .. . ... ... ... : ... .. . ... : ... .. . ... : ... .. . ... ...
ROW 59 : ... .. . ... ... ... : G-1 00 D P7F ... ... : ... .. . ... : ... .. C ... : ... .. . ... ...
ROW 5A : ... .. . ... ... ... : ... .. 9 ... ... ... : ... .. . ... : ... .. 8 ... : ... .. . ... ...
ROW 5B : ... .. . ... ... ... : ... .. 7 ... ... ... : ... .. . ... : ... .. 4 ... : ... .. . ... ...
ROW 5C : ... .. . ... ... ... : ... .. 6 ... ... ... : ... .. . ... : ... .. 0 ... : ... .. . ... ...
ROW 5D : ... .. . ... ... ... : ... .. 5 ... ... ... : ... .. . ... : ... .. . ... : ... .. . ... ...
ROW 5E : ... .. . ... ... ... : ... .. . ... ... ... : ... .. . ... : ... .. . ... : ... .. . ... ...
ROW 5F : ... .. . ... ... ... : ... .. . ... ... ... : ... .. . ... : ... .. . ... : ... .. . ... ...
ROW 60 : ... .. . ... ... ... : ... .. 4 ... ... ... : ... .. . ... : ... .. . ... : ... .. . ... ...
ROW 61 : ... .. . ... ... ... : D-1 00 D P80 ... ... : ... .. . ... : ... .. . ... : ... .. . ... ...
ROW 62 : ... .. . ... ... ... : ... .. 9 ... ... ... : ... .. . ... : ... .. . ... : ... .. . ... ...
ROW 63 : ... .. . ... ... ... : ... .. 7 ... ... ... : ... .. . ... : ... .. . ... : ... .. . ... ...
ROW 64 : ... .. . ... ... ... : ... .. 6 ... ... ... : ... .. . ... : ... .. . ... : ... .. . ... ...
ROW 65 : ... .. . ... ... ... : ... .. 5 ... ... ... : ... .. . ... : ... .. . ... : ... .. . ... ...
ROW 66 : ... .. . ... ... ... : ... .. . ... ... ... : ... .. . ... : ... .. . ... : ... .. . ... ...
ROW 67 : ... .. . ... ... ... : ... .. . ... ... ... : ... .. . ... : ... .. . ... : ... .. . ... ...
ROW 68 : ... .. . ... ... ... : ... .. 4 ... ... ... : ... .. . ... : ... .. . ... : ... .. . ... ...
ROW 69 : ... .. . ... ... ... : G-1 00 D P7F ... ... : ... .. . ... : ... .. . ... : ... .. . ... ...
ROW 6A : ... .. . ... ... ... : ... .. 9 ... ... ... : ... .. . ... : ... .. . ... : ... .. . ... ...
ROW 6B : ... .. . ... ... ... : ... .. 7 ... ... ... : ... .. . ... : ... .. . ... : ... .. . ... ...
ROW 6C : ... .. . ... ... ... : ... .. 6 ... ... ... : ... .. . ... : ... .. . ... : ... .. . ... ...
ROW 6D : ... .. . ... ... ... : ... .. 5 ... ... ... : ... .. . ... : ... .. . ... : ... .. . ... ...
ROW 6E : ... .. . ... ... ... : ... .. . ... ... ... : ... .. . ... : ... .. . ... : ... .. . ... ...
ROW 6F : ... .. . ... ... ... : ... .. . ... ... ... : ... .. . ... : ... .. . ... : ... .. . ... ...
ROW 70 : ... .. . ... ... ... : ... .. 4 ... ... ... : ... .. . ... : ... .. . ... : ... .. . ... ...
ROW 71 : ... .. . ... ... ... : G-1 00 D P7F ... ... : ... .. . ... : ... .. C ... : ... .. . ... ...
ROW 72 : ... .. . ... ... ... : ... .. 9 ... ... ... : ... .. . ... : ... .. 8 ... : ... .. . ... ...
ROW 73 : ... .. . ... ... ... : ... .. 7 ... ... ... : ... .. . ... : ... .. 4 ... : ... .. . ... ...
ROW 74 : ... .. . ... ... ... : ... .. 6 ... ... ... : ... .. . ... : ... .. 0 ... : ... .. . ... ...
ROW 75 : ... .. . ... ... ... : ... .. 5 ... ... ... : ... .. . ... : ... .. . ... : ... .. . ... ...
ROW 76 : ... .. . ... ... ... : ... .. . ... ... ... : ... .. . ... : ... .. . ... : ... .. . ... ...
ROW 77 : ... .. . ... ... ... : ... .. . ... ... ... : ... .. . ... : ... .. . ... : ... .. . ... ...
ROW 78 : ... .. . ... ... ... : ... .. 4 ... ... ... : ... .. . ... : ... .. . ... : ... .. . ... ...
ROW 79 : ... .. . ... ... ... : ... .. . ... ... ... : ... .. . ... : ... .. . ... : ... .. . ... ...
ROW 7A : ... .. . ... ... ... : ... .. . ... ... ... : ... .. . ... : ... .. . ... : ... .. . ... ...
ROW 7B : ... .. . ... ... ... : ... .. . ... ... ... : ... .. . ... : ... .. . ... : ... .. . ... ...
ROW 7C : ... .. . ... ... ... : ... .. . ... ... ... : ... .. . ... : ... .. . ... : ... .. . ... ...
ROW 7D : ... .. . ... ... ... : ... .. . ... ... ... : ... .. . ... : ... .. . ... : ... .. . ... ...
ROW 7E : ... .. . ... ... ... : ... .. . ... ... ... : ... .. . ... : ... .. . ... : ... .. . ... ...
ROW 7F : ... .. . ... ... ... : ... .. . ... ... ... : ... .. . ... : ... .. . ... : ... .. . ... ...

PATTERN 17
ROW 00 : ... .. . ... ... ... : ... .. . ... ... ... : ... .. . ... : ... .. . ... : ... .. . ... ...
ROW 01 : ... .. . ... ... ... : ... .. . ... ... ... : ... .. . ... : ... .. . ... : ... .. . ... ...
ROW 02 : ... .. . ... ... ... : ... .. . ... ... ... : ... .. . ... : ... .. . ... : ... .. . ... ...
ROW 03 : ... .. . ... ... ... : ... .. . ... ... ... : ... .. . ... : ... .. . ... : ... .. . ... ...
ROW 04 : ... .. . ... ... ... : ... .. . ... ... ... : ... .. . ... : ... .. . ... : ... .. . ... ...
ROW 05 : ... .. . ... ... ... : ... .. . ... ... ... : ... .. . ... : ... .. . ... : ... .. . ... ...
ROW 06 : ... .. . ... ... ... : ... .. . ... ... ... : ... .. . ... : ... .. . ... : ... .. . ... ...
ROW 07 : ... .. . ... ... ... : ... .. . ... ... ... : ... .. . ... : ... .. . ... : ... .. . ... ...
ROW 08 : ... .. . ... ... ... : ... .. . ... ... ... : ... .. . ... : ... .. . ... : ... .. . ... ...
ROW 09 : ... .. . ... ... ... : G-1 00 D P7F ... ... : ... .. . ... : ... .. C ... : ... .. . ... ...
ROW 0A : ... .. . ... ... ... : ... .. 9 ... ... ... : ... .. . ... : ... .. 8 ... : ... .. . ... ...
ROW 0B : ... .. . ... ... ... : ... .. 7 ... ... ... : ... .. . ... : ... .. 4 ... : ... .. . ... ...
ROW 0C : ... .. . ... ... ... : ... .. 6 ... ... ... : ... .. . ... : ... .. 0 ... : ... .. . ... ...
ROW 0D : ... .. . ... ... ... : ... .. 5 ... ... ... : ... .. . ... : ... .. . ... : ... .. . ... ...
ROW 0E : ... .. . ... ... ... : ... .. . ... ... ... : ... .. . ... : ... .. . ... : ... .. . ... ...
ROW 0F : ... .. . ... ... ... : ... .. . ... ... ... : ... .. . ... : ... .. . ... : ... .. . ... ...
ROW 10 : ... .. . ... ... ... : ... .. 4 ... ... ... : ... .. . ... : ... .. . ... : ... .. . ... ...
ROW 11 : ... .. . ... ... ... : D-1 00 D P80 ... ... : ... .. . ... : ... .. C ... : ... .. . ... ...
ROW 12 : ... .. . ... ... ... : ... .. 9 ... ... ... : ... .. . ... : ... .. 8 ... : ... .. . ... ...
ROW 13 : ... .. . ... ... ... : ... .. 7 ... ... ... : ... .. . ... : ... .. 4 ... : ... .. . ... ...
ROW 14 : ... .. . ... ... ... : ... .. 6 ... ... ... : ... .. . ... : ... .. 0 ... : ... .. . ... ...
ROW 15 : ... .. . ... ... ... : ... .. 5 ... ... ... : ... .. . ... : ... .. . ... : ... .. . ... ...
ROW 16 : ... .. . ... ... ... : ... .. . ... ... ... : ... .. . ... : ... .. . ... : ... .. . ... ...
ROW 17 : ... .. . ... ... ... : ... .. . ... ... ... : ... .. . ... : ... .. . ... : ... .. . ... ...
ROW 18 : ... .. . ... ... ... : ... .. 4 ... ... ... : ... .. . ... : ... .. . ... : ... .. . ... ...
ROW 19 : ... .. . ... ... ... : G-1 00 D P7F ... ... : ... .. . ... : ... .. C ... : ... .. . ... ...
ROW 1A : ... .. . ... ... ... : ... .. 9 ... ... ... : ... .. . ... : ... .. 8 ... : ... .. . ... ...
ROW 1B : ... .. . ... ... ... : ... .. 7 ... ... ... : ... .. . ... : ... .. 4 ... : ... .. . ... ...
ROW 1C : ... .. . ... ... ... : ... .. 6 ... ... ... : ... .. . ... : ... .. 0 ... : ... .. . ... ...
ROW 1D : ... .. . ... ... ... : ... .. 5 ... ... ... : ... .. . ... : ... .. . ... : ... .. . ... ...
ROW 1E : ... .. . ... ... ... : ... .. . ... ... ... : ... .. . ... : ... .. . ... : ... .. . ... ...
ROW 1F : ... .. . ... ... ... : ... .. . ... ... ... : ... .. . ... : ... .. . ... : ... .. . ... ...
ROW 20 : ... .. . ... ... ... : ... .. 4 ... ... ... : ... .. . ... : ... .. . ... : ... .. . ... ...
ROW 21 : C-3 00 4 P80 ... ... : A#1 00 D P80 ... ... : ... .. . ... : ... .. C ... : ... .. . ... ...
ROW 22 : ... .. 5 ... ... ... : ... .. 9 ... ... ... : ... .. . ... : ... .. 8 ... : ... .. . ... ...
ROW 23 : ... .. 6 ... ... ... : ... .. 7 ... ... ... : ... .. . ... : ... .. 4 ... : ... .. . ... ...
ROW 24 : ... .. 7 ... ... ... : ... .. 6 ... ... ... : ... .. . ... : ... .. 0 ... : ... .. . ... ...
ROW 25 : ... .. 8 ... ... ... : ... .. 5 ... ... ... : ... .. . ... : ... .. . ... : ... .. . ... ...
ROW 26 : ... .. 7 ... ... ... : ... .. . ... ... ... : ... .. . ... : ... .. . ... : ... .. . ... ...
ROW 27 : ... .. 6 ... ... ... : ... .. . ... ... ... : ... .. . ... : ... .. . ... : ... .. . ... ...
ROW 28 : ... .. 5 ... ... ... : ... .. 4 ... ... ... : ... .. . ... : ... .. . ... : ... .. . ... ...
ROW 29 : ... .. 4 ... ... ... : ... .. . ... ... ... : ... .. . ... : ... .. . ... : ... .. . ... ...
ROW 2A : ... .. . ... ... ... : ... .. . ... ... ... : ... .. . ... : ... .. . ... : ... .. . ... ...
ROW 2B : ... .. . ... ... ... : ... .. . ... ... ... : ... .. . ... : ... .. . ... : ... .. . ... ...
ROW 2C : ... .. . ... ... ... : ... .. . ... ... ... : ... .. . ... : ... .. . ... : ... .. . ... ...
ROW 2D : ... .. . ... ... ... : ... .. . ... ... ... : ... .. . ... : ... .. . ... : ... .. . ... ...
ROW 2E : ... .. . ... ... ... : ... .. . ... ... ... : ... .. . ... : ... .. . ... : ... .. . ... ...
ROW 2F : ... .. . ... ... ... : ... .. . ... ... ... : ... .. . ... : ... .. . ... : ... .. . ... ...
ROW 30 : ... .. . ... ... ... : ... .. . ... ... ... : ... .. . ... : ... .. . ... : ... .. . ... ...
ROW 31 : ... .. . ... ... ... : ... .. . ... ... ... : ... .. . ... : ... .. . ... : ... .. . ... ...
ROW 32 : ... .. . ... ... ... : ... .. . ... ... ... : ... .. . ... : ... .. . ... : ... .. . ... ...
ROW 33 : ... .. . ... ... ... : ... .. . ... ... ... : ... .. . ... : ... .. . ... : ... .. . ... ...
ROW 34 : ... .. . ... ... ... : ... .. . ... ... ... : ... .. . ... : ... .. . ... : ... .. . ... ...
ROW 35 : ... .. . ... ... ... : ... .. . ... ... ... : ... .. . ... : ... .. . ... : ... .. . ... ...
ROW 36 : ... .. . ... ... ... : ... .. . ... ... ... : ... .. . ... : ... .. . ... : ... .. . ... ...
ROW 37 : ... .. . ... ... ... : ... .. . ... ... ... : ... .. . ... : ... .. . ... : ... .. . ... ...
ROW 38 : ... .. . ... ... ... : ... .. . ... ... ... : ... .. . ... : ... .. . ... : ... .. . ... ...
ROW 39 : ... .. . ... ... ... : A#1 00 D P80 ... ... : ... .. . ... : ... .. C ... : ... .. . ... ...
ROW 3A : ... .. . ... ... ... : ... .. 9 ... ... ... : ... .. . ... : ... .. 8 ... : ... .. . ... ...
ROW 3B : ... .. . ... ... ... : ... .. 7 ... ... ... : ... .. . ... : ... .. 4 ... : ... .. . ... ...
ROW 3C : ... .. . ... ... ... : ... .. 6 ... ... ... : ... .. . ... : ... .. 0 ... : ... .. . ... ...
ROW 3D : ... .. . ... ... ... : ... .. 5 ... ... ... : ... .. . ... : ... .. . ... : ... .. . ... ...
ROW 3E : ... .. . ... ... ... : ... .. . ... ... ... : ... .. . ... : ... .. . ... : ... .. . ... ...
ROW 3F : ... .. . ... ... ... : ... .. . ... ... ... : ... .. . ... : ... .. . ... : ... .. . ... ...
ROW 40 : ... .. . ... ... ... : ... .. 4 ... ... ... : ... .. . ... : ... .. . ... : ... .. . ... ...
ROW 41 : ... .. . ... ... ... : F-1 00 D P7F ... ... : ... .. . ... : ... .. . ... : ... .. . ... ...
ROW 42 : ... .. . ... ... ... : ... .. 9 ... ... ... : ... .. . ... : ... .. . ... : ... .. . ... ...
ROW 43 : ... .. . ... ... ... : ... .. 7 ... ... ... : ... .. . ... : ... .. . ... : ... .. . ... ...
ROW 44 : ... .. . ... ... ... : ... .. 6 ... ... ... : ... .. . ... : ... .. . ... : ... .. . ... ...
ROW 45 : ... .. . ... ... ... : ... .. 5 ... ... ... : ... .. . ... : ... .. . ... : ... .. . ... ...
ROW 46 : ... .. . ... ... ... : ... .. . ... ... ... : ... .. . ... : ... .. . ... : ... .. . ... ...
ROW 47 : ... .. . ... ... ... : ... .. . ... ... ... : ... .. . ... : ... .. . ... : ... .. . ... ...
ROW 48 : ... .. . ... ... ... : ... .. 4 ... ... ... : ... .. . ... : ... .. . ... : ... .. . ... ...
ROW 49 : ... .. . ... ... ... : A#1 00 D P80 ... ... : ... .. . ... : ... .. . ... : ... .. . ... ...
ROW 4A : ... .. . ... ... ... : ... .. 9 ... ... ... : ... .. . ... : ... .. . ... : ... .. . ... ...
ROW 4B : ... .. . ... ... ... : ... .. 7 ... ... ... : ... .. . ... : ... .. . ... : ... .. . ... ...
ROW 4C : ... .. . ... ... ... : ... .. 6 ... ... ... : ... .. . ... : ... .. . ... : ... .. . ... ...
ROW 4D : ... .. . ... ... ... : ... .. 5 ... ... ... : ... .. . ... : ... .. . ... : ... .. . ... ...
ROW 4E : ... .. . ... ... ... : ... .. . ... ... ... : ... .. . ... : ... .. . ... : ... .. . ... ...
ROW 4F : ... .. . ... ... ... : ... .. . ... ... ... : ... .. . ... : ... .. . ... : ... .. . ... ...
ROW 50 : ... .. . ... ... ... : ... .. 4 ... ... ... : ... .. . ... : ... .. . ... : ... .. . ... ...
ROW 51 : ... .. . ... ... ... : A#1 00 D P80 ... ... : ... .. . ... : ... .. C ... : ... .. . ... ...
ROW 52 : ... .. . ... ... ... : ... .. 9 ... ... ... : ... .. . ... : ... .. 8 ... : ... .. . ... ...
ROW 53 : ... .. . ... ... ... : ... .. 7 ... ... ... : ... .. . ... : ... .. 4 ... : ... .. . ... ...
ROW 54 : ... .. . ... ... ... : ... .. 6 ... ... ... : ... .. . ... : ... .. 0 ... : ... .. . ... ...
ROW 55 : ... .. . ... ... ... : ... .. 5 ... ... ... : ... .. . ... : ... .. . ... : ... .. . ... ...
ROW 56 : ... .. . ... ... ... : ... .. . ... ... ... : ... .. . ... : ... .. . ... : ... .. . ... ...
ROW 57 : ... .. . ... ... ... : ... .. . ... ... ... : ... .. . ... : ... .. . ... : ... .. . ... ...
ROW 58 : ... .. . ... ... ... : ... .. 4 ... ... ... : ... .. . ... : ... .. . ... : ... .. . ... ...
ROW 59 : ... .. . ... ... ... : ... .. . ... ... ... : ... .. . ... : ... .. . ... : ... .. . ... ...
ROW 5A : ... .. . ... ... ... : ... .. . ... ... ... : ... .. . ... : ... .. . ... : ... .. . ... ...
ROW 5B : ... .. . ... ... ... : ... .. . ... ... ... : ... .. . ... : ... .. . ... : ... .. . ... ...
ROW 5C : ... .. . ... ... ... : ... .. . ... ... ... : ... .. . ... : ... .. . ... : ... .. . ... ...
ROW 5D : ... .. . ... ... ... : ... .. . ... ... ... : ... .. . ... : ... .. . ... : ... .. . ... ...
ROW 5E : ... .. . ... ... ... : ... .. . ... ... ... : ... .. . ... : ... .. . ... : ... .. . ... ...
ROW 5F : ... .. . ... ... ... : ... .. . ... ... ... : ... .. . ... : ... .. . ... : ... .. . ... ...
ROW 60 : ... .. . ... ... ... : ... .. . ... ... ... : ... .. . ... : ... .. . ... : ... .. . ... ...
ROW 61 : ... .. . ... ... ... : ... .. . ... ... ... : ... .. . ... : ... .. . ... : ... .. . ... ...
ROW 62 : ... .. . ... ... ... : ... .. . ... ... ... : ... .. . ... : ... .. . ... : ... .. . ... ...
ROW 63 : ... .. . ... ... ... : ... .. . ... ... ... : ... .. . ... : ... .. . ... : ... .. . ... ...
ROW 64 : ... .. . ... ... ... : ... .. . ... ... ... : ... .. . ... : ... .. . ... : ... .. . ... ...
ROW 65 : ... .. . ... ... ... : ... .. . ... ... ... : ... .. . ... : ... .. . ... : ... .. . ... ...
ROW 66 : ... .. . ... ... ... : ... .. . ... ... ... : ... .. . ... : ... .. . ... : ... .. . ... ...
ROW 67 : ... .. . ... ... ... : ... .. . ... ... ... : ... .. . ... : ... .. . ... : ... .. . ... ...
ROW 68 : ... .. . ... ... ... : ... .. . ... ... ... : ... .. . ... : ... .. . ... : ... .. . ... ...
ROW 69 : ... .. . ... ... ... : A#1 00 D P80 ... ... : ... .. . ... : ... .. C ... : ... .. . ... ...
ROW 6A : ... .. . ... ... ... : ... .. 9 ... ... ... : ... .. . ... : ... .. 8 ... : ... .. . ... ...
ROW 6B : ... .. . ... ... ... : ... .. 7 ... ... ... : ... .. . ... : ... .. 4 ... : ... .. . ... ...
ROW 6C : ... .. . ... ... ... : ... .. 6 ... ... ... : ... .. . ... : ... .. 0 ... : ... .. . ... ...
ROW 6D : ... .. . ... ... ... : ... .. 5 ... ... ... : ... .. . ... : ... .. . ... : ... .. . ... ...
ROW 6E : ... .. . ... ... ... : ... .. . ... ... ... : ... .. . ... : ... .. . ... : ... .. . ... ...
ROW 6F : ... .. . ... ... ... : ... .. . ... ... ... : ... .. . ... : ... .. . ... : ... .. . ... ...
ROW 70 : ... .. . ... ... ... : ... .. 4 ... ... ... : ... .. . ... : ... .. . ... : ... .. . ... ...
ROW 71 : ... .. . ... ... ... : F-1 00 D P7F ... ... : ... .. . ... : ... .. C ... : ... .. . ... ...
ROW 72 : ... .. . ... ... ... : ... .. 9 ... ... ... : ... .. . ... : ... .. 8 ... : ... .. . ... ...
ROW 73 : ... .. . ... ... ... : ... .. 7 ... ... ... : ... .. . ... : ... .. 4 ... : ... .. . ... ...
ROW 74 : ... .. . ... ... ... : ... .. 6 ... ... ... : ... .. . ... : ... .. 0 ... : ... .. . ... ...
ROW 75 : ... .. . ... ... ... : ... .. 5 ... ... ... : ... .. . ... : ... .. . ... : ... .. . ... ...
ROW 76 : ... .. . ... ... ... : ... .. . ... ... ... : ... .. . ... : ... .. . ... : ... .. . ... ...
ROW 77 : ... .. . ... ... ... : ... .. . ... ... ... : ... .. . ... : ... .. . ... : ... .. . ... ...
ROW 78 : ... .. . ... ... ... : ... .. 4 ... ... ... : ... .. . ... : ... .. . ... : ... .. . ... ...
ROW 79 : ... .. . ... ... ... : A#1 00 D P80 ... ... : ... .. . ... : ... .. C ... : ... .. . ... ...
ROW 7A : ... .. . ... ... ... : ... .. 9 ... ... ... : ... .. . ... : ... .. 8 ... : ... .. . ... ...
ROW 7B : ... .. . ... ... ... : ... .. 7 ... ... ... : ... .. . ... : ... .. 4 ... : ... .. . ... ...
ROW 7C : ... .. . ... ... ... : ... .. 6 ... ... ... : ... .. . ... : ... .. 0 ... : ... .. . ... ...
ROW 7D : ... .. . ... ... ... : ... .. 5 ... ... ... : ... .. . ... : ... .. . ... : ... .. . ... ...
ROW 7E : ... .. . ... ... ... : ... .. . ... ... ... : ... .. . ... : ... .. . ... : ... .. . ... ...
ROW 7F : ... .. . ... ... ... : ... .. . ... ... ... : ... .. . ... : ... .. . ... : ... .. . ... ...

PATTERN 18
ROW 00 : ... .. . ... ... ... : ... .. 4 ... ... ... : ... .. . ... : ... .. . ... : ... .. . ... ...
ROW 01 : B-2 00 4 P80 ... ... : G-1 00 D P7F ... ... : ... .. . ... : ... .. C ... : ... .. . ... ...
ROW 02 : ... .. 5 ... ... ... : ... .. 9 ... ... ... : ... .. . ... : ... .. 8 ... : ... .. . ... ...
ROW 03 : ... .. 6 ... ... ... : ... .. 7 ... ... ... : ... .. . ... : ... .. 4 ... : ... .. . ... ...
ROW 04 : ... .. 7 ... ... ... : ... .. 6 ... ... ... : ... .. . ... : ... .. 0 ... : ... .. . ... ...
ROW 05 : ... .. 8 ... ... ... : ... .. 5 ... ... ... : ... .. . ... : ... .. . ... : ... .. . ... ...
ROW 06 : ... .. 7 ... ... ... : ... .. . ... ... ... : ... .. . ... : ... .. . ... : ... .. . ... ...
ROW 07 : ... .. 6 ... ... ... : ... .. . ... ... ... : ... .. . ... : ... .. . ... : ... .. . ... ...
ROW 08 : ... .. 5 ... ... ... : ... .. 4 ... ... ... : ... .. . ... : ... .. . ... : ... .. . ... ...
ROW 09 : ... .. 4 ... ... ... : ... .. . ... ... ... : ... .. . ... : ... .. . ... : ... .. . ... ...
ROW 0A : ... .. . ... ... ... : ... .. . ... ... ... : ... .. . ... : ... .. . ... : ... .. . ... ...
ROW 0B : ... .. . ... ... ... : ... .. . ... ... ... : ... .. . ... : ... .. . ... : ... .. . ... ...
ROW 0C : ... .. . ... ... ... : ... .. . ... ... ... : ... .. . ... : ... .. . ... : ... .. . ... ...
ROW 0D : ... .. . ... ... ... : ... .. . ... ... ... : ... .. . ... : ... .. . ... : ... .. . ... ...
ROW 0E : ... .. . ... ... ... : ... .. . ... ... ... : ... .. . ... : ... .. . ... : ... .. . ... ...
ROW 0F : ... .. . ... ... ... : ... .. . ... ... ... : ... .. . ... : ... .. . ... : ... .. . ... ...
ROW 10 : ... .. . ... ... ... : ... .. . ... ... ... : ... .. . ... : ... .. . ... : ... .. . ... ...
ROW 11 : ... .. . ... ... ... : ... .. . ... ... ... : ... .. . ... : ... .. . ... : ... .. . ... ...
ROW 12 : ... .. . ... ... ... : ... .. . ... ... ... : ... .. . ... : ... .. . ... : ... .. . ... ...
ROW 13 : ... .. . ... ... ... : ... .. . ... ... ... : ... .. . ... : ... .. . ... : ... .. . ... ...
ROW 14 : ... .. . ... ... ... : ... .. . ... ... ... : ... .. . ... : ... .. . ... : ... .. . ... ...
ROW 15 : ... .. . ... ... ... : ... .. . ... ... ... : ... .. . ... : ... .. . ... : ... .. . ... ...
ROW 16 : ... .. . ... ... ... : ... .. . ... ... ... : ... .. . ... : ... .. . ... : ... .. . ... ...
ROW 17 : ... .. . ... ... ... : ... .. . ... ... ... : ... .. . ... : ... .. . ... : ... .. . ... ...
ROW 18 : ... .. . ... ... ... : ... .. . ... ... ... : ... .. . ... : ... .. . ... : ... .. . ... ...
ROW 19 : ... .. . ... ... ... : G-1 00 D P7F ... ... : ... .. . ... : ... .. C ... : ... .. . ... ...
ROW 1A : ... .. . ... ... ... : ... .. 9 ... ... ... : ... .. . ... : ... .. 8 ... : ... .. . ... ...
ROW 1B : ... .. . ... ... ... : ... .. 7 ... ... ... : ... .. . ... : ... .. 4 ... : ... .. . ... ...
ROW 1C : ... .. . ... ... ... : ... .. 6 ... ... ... : ... .. . ... : ... .. 0 ... : ... .. . ... ...
ROW 1D : ... .. . ... ... ... : ... .. 5 ... ... ... : ... .. . ... : ... .. . ... : ... .. . ... ...
ROW 1E : ... .. . ... ... ... : ... .. . ... ... ... : ... .. . ... : ... .. . ... : ... .. . ... ...
ROW 1F : ... .. . ... ... ... : ... .. . ... ... ... : ... .. . ... : ... .. . ... : ... .. . ... ...
ROW 20 : ... .. . ... ... ... : ... .. 4 ... ... ... : ... .. . ... : ... .. . ... : ... .. . ... ...
ROW 21 : ... .. . ... ... ... : D-1 00 D P80 ... ... : ... .. . ... : ... .. . ... : ... .. . ... ...
ROW 22 : ... .. . ... ... ... : ... .. 9 ... ... ... : ... .. . ... : ... .. . ... : ... .. . ... ...
ROW 23 : ... .. . ... ... ... : ... .. 7 ... ... ... : ... .. . ... : ... .. . ... : ... .. . ... ...
ROW 24 : ... .. . ... ... ... : ... .. 6 ... ... ... : ... .. . ... : ... .. . ... : ... .. . ... ...
ROW 25 : ... .. . ... ... ... : ... .. 5 ... ... ... : ... .. . ... : ... .. . ... : ... .. . ... ...
ROW 26 : ... .. . ... ... ... : ... .. . ... ... ... : ... .. . ... : ... .. . ... : ... .. . ... ...
ROW 27 : ... .. . ... ... ... : ... .. . ... ... ... : ... .. . ... : ... .. . ... : ... .. . ... ...
ROW 28 : ... .. . ... ... ... : ... .. 4 ... ... ... : ... .. . ... : ... .. . ... : ... .. . ... ...
ROW 29 : ... .. . ... ... ... : G-1 00 D P7F ... ... : ... .. . ... : ... .. . ... : ... .. . ... ...
ROW 2A : ... .. . ... ... ... : ... .. 9 ... ... ... : ... .. . ... : ... .. . ... : ... .. . ... ...
ROW 2B : ... .. . ... ... ... : ... .. 7 ... ... ... : ... .. . ... : ... .. . ... : ... .. . ... ...
ROW 2C : ... .. . ... ... ... : ... .. 6 ... ... ... : ... .. . ... : ... .. . ... : ... .. . ... ...
ROW 2D : ... .. . ... ... ... : ... .. 5 ... ... ... : ... .. . ... : ... .. . ... : ... .. . ... ...
ROW 2E : ... .. . ... ... ... : ... .. . ... ... ... : ... .. . ... : ... .. . ... : ... .. . ... ...
ROW 2F : ... .. . ... ... ... : ... .. . ... ... ... : ... .. . ... : ... .. . ... : ... .. . ... ...
ROW 30 : ... .. . ... ... ... : ... .. 4 ... ... ... : ... .. . ... : ... .. . ... : ... .. . ... ...
ROW 31 : ... .. . ... ... ... : G-1 00 D P7F ... ... : ... .. . ... : ... .. C ... : ... .. . ... ...
ROW 32 : ... .. . ... ... ... : ... .. 9 ... ... ... : ... .. . ... : ... .. 8 ... : ... .. . ... ...
ROW 33 : ... .. . ... ... ... : ... .. 7 ... ... ... : ... .. . ... : ... .. 4 ... : ... .. . ... ...
ROW 34 : ... .. . ... ... ... : ... .. 6 ... ... ... : ... .. . ... : ... .. 0 ... : ... .. . ... ...
ROW 35 : ... .. . ... ... ... : ... .. 5 ... ... ... : ... .. . ... : ... .. . ... : ... .. . ... ...
ROW 36 : ... .. . ... ... ... : ... .. . ... ... ... : ... .. . ... : ... .. . ... : ... .. . ... ...
ROW 37 : ... .. . ... ... ... : ... .. . ... ... ... : ... .. . ... : ... .. . ... : ... .. . ... ...
ROW 38 : ... .. . ... ... ... : ... .. 4 ... ... ... : ... .. . ... : ... .. . ... : ... .. . ... ...
ROW 39 : ... .. . ... ... ... : ... .. . ... ... ... : ... .. . ... : ... .. . ... : ... .. . ... ...
ROW 3A : ... .. . ... ... ... : ... .. . ... ... ... : ... .. . ... : ... .. . ... : ... .. . ... ...
ROW 3B : ... .. . ... ... ... : ... .. . ... ... ... : ... .. . ... : ... .. . ... : ... .. . ... ...
ROW 3C : ... .. . ... ... ... : ... .. . ... ... ... : ... .. . ... : ... .. . ... : ... .. . ... ...
ROW 3D : ... .. . ... ... ... : ... .. . ... ... ... : ... .. . ... : ... .. . ... : ... .. . ... ...
ROW 3E : ... .. . ... ... ... : ... .. . ... ... ... : ... .. . ... : ... .. . ... : ... .. . ... ...
ROW 3F : ... .. . ... ... ... : ... .. . ... ... ... : ... .. . ... : ... .. . ... : ... .. . ... ...
ROW 40 : ... .. . ... ... ... : ... .. . ... ... ... : ... .. . ... : ... .. . ... : ... .. . ... ...
ROW 41 : ... .. . ... ... ... : ... .. . ... ... ... : ... .. . ... : ... .. . ... : ... .. . ... ...
ROW 42 : ... .. . ... ... ... : ... .. . ... ... ... : ... .. . ... : ... .. . ... : ... .. . ... ...
ROW 43 : ... .. . ... ... ... : ... .. . ... ... ... : ... .. . ... : ... .. . ... : ... .. . ... ...
ROW 44 : ... .. . ... ... ... : ... .. . ... ... ... : ... .. . ... : ... .. . ... : ... .. . ... ...
ROW 45 : ... .. . ... ... ... : ... .. . ... ... ... : ... .. . ... : ... .. . ... : ... .. . ... ...
ROW 46 : ... .. . ... ... ... : ... .. . ... ... ... : ... .. . ... : ... .. . ... : ... .. . ... ...
ROW 47 : ... .. . ... ... ... : ... .. . ... ... ... : ... .. . ... : ... .. . ... : ... .. . ... ...
ROW 48 : ... .. . ... ... ... : ... .. . ... ... ... : ... .. . ... : ... .. . ... : ... .. . ... ...
ROW 49 : ... .. . ... ... ... : G-1 00 D P7F ... ... : ... .. . ... : ... .. C ... : ... .. . ... ...
ROW 4A : ... .. . ... ... ... : ... .. 9 ... ... ... : ... .. . ... : ... .. 8 ... : ... .. . ... ...
ROW 4B : ... .. . ... ... ... : ... .. 7 ... ... ... : ... .. . ... : ... .. 4 ... : ... .. . ... ...
ROW 4C : ... .. . ... ... ... : ... .. 6 ... ... ... : ... .. . ... : ... .. 0 ... : ... .. . ... ...
ROW 4D : ... .. . ... ... ... : ... .. 5 ... ... ... : ... .. . ... : ... .. . ... : ... .. . ... ...
ROW 4E : ... .. . ... ... ... : ... .. . ... ... ... : ... .. . ... : ... .. . ... : ... .. . ... ...
ROW 4F : ... .. . ... ... ... : ... .. . ... ... ... : ... .. . ... : ... .. . ... : ... .. . ... ...
ROW 50 : ... .. . ... ... ... : ... .. 4 ... ... ... : ... .. . ... : ... .. . ... : ... .. . ... ...
ROW 51 : ... .. . ... ... ... : D-1 00 D P80 ... ... : ... .. . ... : ... .. C ... : ... .. . ... ...
ROW 52 : ... .. . ... ... ... : ... .. 9 ... ... ... : ... .. . ... : ... .. 8 ... : ... .. . ... ...
ROW 53 : ... .. . ... ... ... : ... .. 7 ... ... ... : ... .. . ... : ... .. 4 ... : ... .. . ... ...
ROW 54 : ... .. . ... ... ... : ... .. 6 ... ... ... : ... .. . ... : ... .. 0 ... : ... .. . ... ...
ROW 55 : ... .. . ... ... ... : ... .. 5 ... ... ... : ... .. . ... : ... .. . ... : ... .. . ... ...
ROW 56 : ... .. . ... ... ... : ... .. . ... ... ... : ... .. . ... : ... .. . ... : ... .. . ... ...
ROW 57 : ... .. . ... ... ... : ... .. . ... ... ... : ... .. . ... : ... .. . ... : ... .. . ... ...
ROW 58 : ... .. . ... ... ... : ... .. 4 ... ... ... : ... .. . ... : ... .. . ... : ... .. . ... ...
ROW 59 : ... .. . ... ... ... : G-1 00 D P7F ... ... : ... .. . ... : ... .. C ... : ... .. . ... ...
ROW 5A : ... .. . ... ... ... : ... .. 9 ... ... ... : ... .. . ... : ... .. 8 ... : ... .. . ... ...
ROW 5B : ... .. . ... ... ... : ... .. 7 ... ... ... : ... .. . ... : ... .. 4 ... : ... .. . ... ...
ROW 5C : ... .. . ... ... ... : ... .. 6 ... ... ... : ... .. . ... : ... .. 0 ... : ... .. . ... ...
ROW 5D : ... .. . ... ... ... : ... .. 5 ... ... ... : ... .. . ... : ... .. . ... : ... .. . ... ...
ROW 5E : ... .. . ... ... ... : ... .. . ... ... ... : ... .. . ... : ... .. . ... : ... .. . ... ...
ROW 5F : ... .. . ... ... ... : ... .. . ... ... ... : ... .. . ... : ... .. . ... : ... .. . ... ...
ROW 60 : ... .. . ... ... ... : ... .. 4 ... ... ... : ... .. . ... : ... .. . ... : ... .. . ... ...
ROW 61 : C-3 00 4 P80 ... ... : A#1 00 D P80 ... ... : ... .. . ... : ... .. C ... : ... .. . ... ...
ROW 62 : ... .. 5 ... ... ... : ... .. 9 ... ... ... : ... .. . ... : ... .. 8 ... : ... .. . ... ...
ROW 63 : ... .. 6 ... ... ... : ... .. 7 ... ... ... : ... .. . ... : ... .. 4 ... : ... .. . ... ...
ROW 64 : ... .. 7 ... ... ... : ... .. 6 ... ... ... : ... .. . ... : ... .. 0 ... : ... .. . ... ...
ROW 65 : ... .. 8 ... ... ... : ... .. 5 ... ... ... : ... .. . ... : ... .. . ... : ... .. . ... ...
ROW 66 : ... .. 7 ... ... ... : ... .. . ... ... ... : ... .. . ... : ... .. . ... : ... .. . ... ...
ROW 67 : ... .. 6 ... ... ... : ... .. . ... ... ... : ... .. . ... : ... .. . ... : ... .. . ... ...
ROW 68 : ... .. 5 ... ... ... : ... .. 4 ... ... ... : ... .. . ... : ... .. . ... : ... .. . ... ...
ROW 69 : ... .. 4 ... ... ... : ... .. . ... ... ... : ... .. . ... : ... .. . ... : ... .. . ... ...
ROW 6A : ... .. . ... ... ... : ... .. . ... ... ... : ... .. . ... : ... .. . ... : ... .. . ... ...
ROW 6B : ... .. . ... ... ... : ... .. . ... ... ... : ... .. . ... : ... .. . ... : ... .. . ... ...
ROW 6C : ... .. . ... ... ... : ... .. . ... ... ... : ... .. . ... : ... .. . ... : ... .. . ... ...
ROW 6D : ... .. . ... ... ... : ... .. . ... ... ... : ... .. . ... : ... .. . ... : ... .. . ... ...
ROW 6E : ... .. . ... ... ... : ... .. . ... ... ... : ... .. . ... : ... .. . ... : ... .. . ... ...
ROW 6F : ... .. . ... ... ... : ... .. . ... ... ... : ... .. . ... : ... .. . ... : ... .. . ... ...
ROW 70 : ... .. . ... ... ... : ... .. . ... ... ... : ... .. . ... : ... .. . ... : ... .. . ... ...
ROW 71 : ... .. . ... ... ... : ... .. . ... ... ... : ... .. . ... : ... .. . ... : ... .. . ... ...
ROW 72 : ... .. . ... ... ... : ... .. . ... ... ... : ... .. . ... : ... .. . ... : ... .. . ... ...
ROW 73 : ... .. . ... ... ... : ... .. . ... ... ... : ... .. . ... : ... .. . ... : ... .. . ... ...
ROW 74 : ... .. . ... ... ... : ... .. . ... ... ... : ... .. . ... : ... .. . ... : ... .. . ... ...
ROW 75 : ... .. . ... ... ... : ... .. . ... ... ... : ... .. . ... : ... .. . ... : ... .. . ... ...
ROW 76 : ... .. . ... ... ... : ... .. . ... ... ... : ... .. . ... : ... .. . ... : ... .. . ... ...
ROW 77 : ... .. . ... ... ... : ... .. . ... ... ... : ... .. . ... : ... .. . ... : ... .. . ... ...
ROW 78 : ... .. . ... ... ... : ... .. . ... ... ... : ... .. . ... : ... .. . ... : ... .. . ... ...
ROW 79 : ... .. . ... ... ... : A#1 00 D P80 ... ... : ... .. . ... : ... .. C ... : ... .. . ... ...
ROW 7A : ... .. . ... ... ... : ... .. 9 ... ... ... : ... .. . ... : ... .. 8 ... : ... .. . ... ...
ROW 7B : ... .. . ... ... ... : ... .. 7 ... ... ... : ... .. . ... : ... .. 4 ... : ... .. . ... ...
ROW 7C : ... .. . ... ... ... : ... .. 6 ... ... ... : ... .. . ... : ... .. 0 ... : ... .. . ... ...
ROW 7D : ... .. . ... ... ... : ... .. 5 ... ... ... : ... .. . ... : ... .. . ... : ... .. . ... ...
ROW 7E : ... .. . ... ... ... : ... .. . ... ... ... : ... .. . ... : ... .. . ... : ... .. . ... ...
ROW 7F : ... .. . ... ... ... : ... .. . ... ... ... : ... .. . ... : ... .. . ... : ... .. . ... ...

PATTERN 19
ROW 00 : ... .. . ... ... ... : ... .. 4 ... ... ... : ... .. . ... : ... .. . ... : ... .. . ... ...
ROW 01 : ... .. . ... ... ... : F-1 00 D P7F ... ... : ... .. . ... : ... .. . ... : ... .. . ... ...
ROW 02 : ... .. . ... ... ... : ... .. 9 ... ... ... : ... .. . ... : ... .. . ... : ... .. . ... ...
ROW 03 : ... .. . ... ... ... : ... .. 7 ... ... ... : ... .. . ... : ... .. . ... : ... .. . ... ...
ROW 04 : ... .. . ... ... ... : ... .. 6 ... ... ... : ... .. . ... : ... .. . ... : ... .. . ... ...
ROW 05 : ... .. . ... ... ... : ... .. 5 ... ... ... : ... .. . ... : ... .. . ... : ... .. . ... ...
ROW 06 : ... .. . ... ... ... : ... .. . ... ... ... : ... .. . ... : ... .. . ... : ... .. . ... ...
ROW 07 : ... .. . ... ... ... : ... .. . ... ... ... : ... .. . ... : ... .. . ... : ... .. . ... ...
ROW 08 : ... .. . ... ... ... : ... .. 4 ... ... ... : ... .. . ... : ... .. . ... : ... .. . ... ...
ROW 09 : ... .. . ... ... ... : A#1 00 D P80 ... ... : ... .. . ... : ... .. . ... : ... .. . ... ...
ROW 0A : ... .. . ... ... ... : ... .. 9 ... ... ... : ... .. . ... : ... .. . ... : ... .. . ... ...
ROW 0B : ... .. . ... ... ... : ... .. 7 ... ... ... : ... .. . ... : ... .. . ... : ... .. . ... ...
ROW 0C : ... .. . ... ... ... : ... .. 6 ... ... ... : ... .. . ... : ... .. . ... : ... .. . ... ...
ROW 0D : ... .. . ... ... ... : ... .. 5 ... ... ... : ... .. . ... : ... .. . ... : ... .. . ... ...
ROW 0E : ... .. . ... ... ... : ... .. . ... ... ... : ... .. . ... : ... .. . ... : ... .. . ... ...
ROW 0F : ... .. . ... ... ... : ... .. . ... ... ... : ... .. . ... : ... .. . ... : ... .. . ... ...
ROW 10 : ... .. . ... ... ... : ... .. 4 ... ... ... : ... .. . ... : ... .. . ... : ... .. . ... ...
ROW 11 : ... .. . ... ... ... : A#1 00 D P80 ... ... : ... .. . ... : ... .. C ... : ... .. . ... ...
ROW 12 : ... .. . ... ... ... : ... .. 9 ... ... ... : ... .. . ... : ... .. 8 ... : ... .. . ... ...
ROW 13 : ... .. . ... ... ... : ... .. 7 ... ... ... : ... .. . ... : ... .. 4 ... : ... .. . ... ...
ROW 14 : ... .. . ... ... ... : ... .. 6 ... ... ... : ... .. . ... : ... .. 0 ... : ... .. . ... ...
ROW 15 : ... .. . ... ... ... : ... .. 5 ... ... ... : ... .. . ... : ... .. . ... : ... .. . ... ...
ROW 16 : ... .. . ... ... ... : ... .. . ... ... ... : ... .. . ... : ... .. . ... : ... .. . ... ...
ROW 17 : ... .. . ... ... ... : ... .. . ... ... ... : ... .. . ... : ... .. . ... : ... .. . ... ...
ROW 18 : ... .. . ... ... ... : ... .. 4 ... ... ... : ... .. . ... : ... .. . ... : ... .. . ... ...
ROW 19 : ... .. . ... ... ... : ... .. . ... ... ... : ... .. . ... : ... .. . ... : ... .. . ... ...
ROW 1A : ... .. . ... ... ... : ... .. . ... ... ... : ... .. . ... : ... .. . ... : ... .. . ... ...
ROW 1B : ... .. . ... ... ... : ... .. . ... ... ... : ... .. . ... : ... .. . ... : ... .. . ... ...
ROW 1C : ... .. . ... ... ... : ... .. . ... ... ... : ... .. . ... : ... .. . ... : ... .. . ... ...
ROW 1D : ... .. . ... ... ... : ... .. . ... ... ... : ... .. . ... : ... .. . ... : ... .. . ... ...
ROW 1E : ... .. . ... ... ... : ... .. . ... ... ... : ... .. . ... : ... .. . ... : ... .. . ... ...
ROW 1F : ... .. . ... ... ... : ... .. . ... ... ... : ... .. . ... : ... .. . ... : ... .. . ... ...
ROW 20 : ... .. . ... ... ... : ... .. . ... ... ... : ... .. . ... : ... .. . ... : ... .. . ... ...
ROW 21 : ... .. . ... ... ... : ... .. . ... ... ... : ... .. . ... : ... .. . ... : ... .. . ... ...
ROW 22 : ... .. . ... ... ... : ... .. . ... ... ... : ... .. . ... : ... .. . ... : ... .. . ... ...
ROW 23 : ... .. . ... ... ... : ... .. . ... ... ... : ... .. . ... : ... .. . ... : ... .. . ... ...
ROW 24 : ... .. . ... ... ... : ... .. . ... ... ... : ... .. . ... : ... .. . ... : ... .. . ... ...
ROW 25 : ... .. . ... ... ... : ... .. . ... ... ... : ... .. . ... : ... .. . ... : ... .. . ... ...
ROW 26 : ... .. . ... ... ... : ... .. . ... ... ... : ... .. . ... : ... .. . ... : ... .. . ... ...
ROW 27 : ... .. . ... ... ... : ... .. . ... ... ... : ... .. . ... : ... .. . ... : ... .. . ... ...
ROW 28 : ... .. . ... ... ... : ... .. . ... ... ... : ... .. . ... : ... .. . ... : ... .. . ... ...
ROW 29 : ... .. . ... ... ... : A#1 00 D P80 ... ... : ... .. . ... : ... .. C ... : ... .. . ... ...
ROW 2A : ... .. . ... ... ... : ... .. 9 ... ... ... : ... .. . ... : ... .. 8 ... : ... .. . ... ...
ROW 2B : ... .. . ... ... ... : ... .. 7 ... ... ... : ... .. . ... : ... .. 4 ... : ... .. . ... ...
ROW 2C : ... .. . ... ... ... : ... .. 6 ... ... ... : ... .. . ... : ... .. 0 ... : ... .. . ... ...
ROW 2D : ... .. . ... ... ... : ... .. 5 ... ... ... : ... .. . ... : ... .. . ... : ... .. . ... ...
ROW 2E : ... .. . ... ... ... : ... .. . ... ... ... : ... .. . ... : ... .. . ... : ... .. . ... ...
ROW 2F : ... .. . ... ... ... : ... .. . ... ... ... : ... .. . ... : ... .. . ... : ... .. . ... ...
ROW 30 : ... .. . ... ... ... : ... .. 4 ... ... ... : ... .. . ... : ... .. . ... : ... .. . ... ...
ROW 31 : ... .. . ... ... ... : F-1 00 D P7F ... ... : ... .. . ... : ... .. C ... : ... .. . ... ...
ROW 32 : ... .. . ... ... ... : ... .. 9 ... ... ... : ... .. . ... : ... .. 8 ... : ... .. . ... ...
ROW 33 : ... .. . ... ... ... : ... .. 7 ... ... ... : ... .. . ... : ... .. 4 ... : ... .. . ... ...
ROW 34 : ... .. . ... ... ... : ... .. 6 ... ... ... : ... .. . ... : ... .. 0 ... : ... .. . ... ...
ROW 35 : ... .. . ... ... ... : ... .. 5 ... ... ... : ... .. . ... : ... .. . ... : ... .. . ... ...
ROW 36 : ... .. . ... ... ... : ... .. . ... ... ... : ... .. . ... : ... .. . ... : ... .. . ... ...
ROW 37 : ... .. . ... ... ... : ... .. . ... ... ... : ... .. . ... : ... .. . ... : ... .. . ... ...
ROW 38 : ... .. . ... ... ... : ... .. 4 ... ... ... : ... .. . ... : ... .. . ... : ... .. . ... ...
ROW 39 : ... .. . ... ... ... : A#1 00 D P80 ... ... : ... .. . ... : ... .. C ... : ... .. . ... ...
ROW 3A : ... .. . ... ... ... : ... .. 9 ... ... ... : ... .. . ... : ... .. 8 ... : ... .. . ... ...
ROW 3B : ... .. . ... ... ... : ... .. 7 ... ... ... : ... .. . ... : ... .. 4 ... : ... .. . ... ...
ROW 3C : ... .. . ... ... ... : ... .. 6 ... ... ... : ... .. . ... : ... .. 0 ... : ... .. . ... ...
ROW 3D : ... .. . ... ... ... : ... .. 5 ... ... ... : ... .. . ... : ... .. . ... : ... .. . ... ...
ROW 3E : ... .. . ... ... ... : ... .. . ... ... ... : ... .. . ... : ... .. . ... : ... .. . ... ...
ROW 3F : ... .. . ... ... ... : ... .. . ... ... ... : ... .. . ... : ... .. . ... : ... .. . ... ...
ROW 40 : ... .. . ... ... ... : ... .. 4 ... ... ... : ... .. . ... : ... .. . ... : ... .. . ... ...
ROW 41 : B-2 00 4 P80 ... ... : G-3 00 D P80 ... ... : G-2 00 . P80 : ... .. C ... : ... .. . ... ...
ROW 42 : ... .. 5 ... ... ... : ... .. 9 ... ... ... : ... .. . ... : ... .. 8 ... : ... .. . ... ...
ROW 43 : ... .. 6 ... ... ... : ... .. 7 ... ... ... : ... .. . ... : ... .. 4 ... : ... .. . ... ...
ROW 44 : ... .. 7 ... ... ... : ... .. 6 ... ... ... : ... .. . ... : ... .. 0 ... : ... .. . ... ...
ROW 45 : ... .. 8 ... ... ... : ... .. 5 ... ... ... : ... .. . ... : ... .. . ... : ... .. . ... ...
ROW 46 : ... .. 7 ... ... ... : ... .. . ... ... ... : ... .. . ... : ... .. . ... : ... .. . ... ...
ROW 47 : ... .. 6 ... ... ... : ... .. . ... ... ... : ... .. . ... : ... .. . ... : ... .. . ... ...
ROW 48 : ... .. 5 ... ... ... : ... .. 4 ... ... ... : ... .. . ... : ... .. . ... : ... .. . ... ...
ROW 49 : ... .. 4 ... ... ... : ... .. . ... ... ... : ... .. . ... : ... .. . ... : ... .. . ... ...
ROW 4A : ... .. . ... ... ... : ... .. . ... ... ... : ... .. . ... : ... .. . ... : ... .. . ... ...
ROW 4B : ... .. . ... ... ... : ... .. . ... ... ... : ... .. . ... : ... .. . ... : ... .. . ... ...
ROW 4C : ... .. . ... ... ... : ... .. . ... ... ... : ... .. . ... : ... .. . ... : ... .. . ... ...
ROW 4D : ... .. . ... ... ... : ... .. . ... ... ... : ... .. . ... : ... .. . ... : ... .. . ... ...
ROW 4E : ... .. . ... ... ... : ... .. . ... ... ... : ... .. . ... : ... .. . ... : ... .. . ... ...
ROW 4F : ... .. . ... ... ... : ... .. . ... ... ... : ... .. . ... : ... .. . ... : ... .. . ... ...
ROW 50 : ... .. . ... ... ... : ... .. . ... ... ... : --- .. . ... : ... .. . ... : ... .. . ... ...
ROW 51 : ... .. . ... ... ... : ... .. . ... ... ... : ... .. . ... : ... .. . ... : ... .. . ... ...
ROW 52 : ... .. . ... ... ... : ... .. . ... ... ... : ... .. . ... : ... .. . ... : ... .. . ... ...
ROW 53 : ... .. . ... ... ... : ... .. . ... ... ... : ... .. . ... : ... .. . ... : ... .. . ... ...
ROW 54 : ... .. . ... ... ... : ... .. . ... ... ... : ... .. . ... : ... .. . ... : ... .. . ... ...
ROW 55 : ... .. . ... ... ... : ... .. . ... ... ... : ... .. . ... : ... .. . ... : ... .. . ... ...
ROW 56 : ... .. . ... ... ... : ... .. . ... ... ... : ... .. . ... : ... .. . ... : ... .. . ... ...
ROW 57 : ... .. . ... ... ... : ... .. . ... ... ... : ... .. . ... : ... .. . ... : ... .. . ... ...
ROW 58 : ... .. . ... ... ... : ... .. . ... ... ... : ... .. . ... : ... .. . ... : ... .. . ... ...
ROW 59 : ... .. . ... ... ... : ... .. . ... ... ... : G-2 00 . ... : ... .. C ... : ... .. . ... ...
ROW 5A : ... .. . ... ... ... : ... .. . ... ... ... : ... .. . ... : ... .. 8 ... : ... .. . ... ...
ROW 5B : ... .. . ... ... ... : ... .. . ... ... ... : ... .. . ... : ... .. 4 ... : ... .. . ... ...
ROW 5C : ... .. . ... ... ... : ... .. . ... ... ... : ... .. . ... : ... .. 0 ... : ... .. . ... ...
ROW 5D : ... .. . ... ... ... : ... .. . ... ... ... : ... .. . ... : ... .. . ... : ... .. . ... ...
ROW 5E : ... .. . ... ... ... : ... .. . ... ... ... : ... .. . ... : ... .. . ... : ... .. . ... ...
ROW 5F : ... .. . ... ... ... : ... .. . ... ... ... : ... .. . ... : ... .. . ... : ... .. . ... ...
ROW 60 : ... .. . ... ... ... : ... .. . ... ... ... : --- .. . ... : ... .. . ... : ... .. . ... ...
ROW 61 : ... .. . ... ... ... : ... .. . ... ... ... : G-3 00 . ... : ... .. . ... : ... .. . ... ...
ROW 62 : ... .. . ... ... ... : ... .. . ... ... ... : ... .. . ... : ... .. . ... : ... .. . ... ...
ROW 63 : ... .. . ... ... ... : ... .. . ... ... ... : ... .. . ... : ... .. . ... : ... .. . ... ...
ROW 64 : ... .. . ... ... ... : ... .. . ... ... ... : ... .. . ... : ... .. . ... : ... .. . ... ...
ROW 65 : ... .. . ... ... ... : ... .. . ... ... ... : ... .. . ... : ... .. . ... : ... .. . ... ...
ROW 66 : ... .. . ... ... ... : ... .. . ... ... ... : ... .. . ... : ... .. . ... : ... .. . ... ...
ROW 67 : ... .. . ... ... ... : ... .. . ... ... ... : ... .. . ... : ... .. . ... : ... .. . ... ...
ROW 68 : ... .. . ... ... ... : ... .. . ... ... ... : --- .. . ... : ... .. . ... : ... .. . ... ...
ROW 69 : ... .. . ... ... ... : ... .. . ... ... ... : D-3 00 . ... : ... .. . ... : ... .. . ... ...
ROW 6A : ... .. . ... ... ... : ... .. . ... ... ... : ... .. . ... : ... .. . ... : ... .. . ... ...
ROW 6B : ... .. . ... ... ... : ... .. . ... ... ... : ... .. . ... : ... .. . ... : ... .. . ... ...
ROW 6C : ... .. . ... ... ... : ... .. . ... ... ... : ... .. . ... : ... .. . ... : ... .. . ... ...
ROW 6D : ... .. . ... ... ... : ... .. . ... ... ... : ... .. . ... : ... .. . ... : ... .. . ... ...
ROW 6E : ... .. . ... ... ... : ... .. . ... ... ... : ... .. . ... : ... .. . ... : ... .. . ... ...
ROW 6F : ... .. . ... ... ... : ... .. . ... ... ... : ... .. . ... : ... .. . ... : ... .. . ... ...
ROW 70 : ... .. . ... ... ... : ... .. . ... ... ... : --- .. . ... : ... .. . ... : ... .. . ... ...
ROW 71 : D-3 00 4 P80 ... ... : ... .. . ... ... ... : G-2 00 . ... : ... .. C ... : ... .. . ... ...
ROW 72 : ... .. 5 ... ... ... : ... .. . ... ... ... : ... .. . ... : ... .. 8 ... : ... .. . ... ...
ROW 73 : ... .. 6 ... ... ... : ... .. . ... ... ... : ... .. . ... : ... .. 4 ... : ... .. . ... ...
ROW 74 : ... .. 7 ... ... ... : ... .. . ... ... ... : ... .. . ... : ... .. 0 ... : ... .. . ... ...
ROW 75 : ... .. 8 ... ... ... : ... .. . ... ... ... : ... .. . ... : ... .. . ... : ... .. . ... ...
ROW 76 : ... .. 7 ... ... ... : ... .. . ... ... ... : ... .. . ... : ... .. . ... : ... .. . ... ...
ROW 77 : ... .. 6 ... ... ... : ... .. . ... ... ... : ... .. . ... : ... .. . ... : ... .. . ... ...
ROW 78 : ... .. 5 ... ... ... : ... .. . ... ... ... : ... .. . ... : ... .. . ... : ... .. . ... ...
ROW 79 : ... .. 4 ... ... ... : ... .. . ... ... ... : ... .. . ... : ... .. . ... : ... .. . ... ...
ROW 7A : ... .. . ... ... ... : ... .. . ... ... ... : ... .. . ... : ... .. . ... : ... .. . ... ...
ROW 7B : ... .. . ... ... ... : ... .. . ... ... ... : ... .. . ... : ... .. . ... : ... .. . ... ...
ROW 7C : ... .. . ... ... ... : ... .. . ... ... ... : ... .. . ... : ... .. . ... : ... .. . ... ...
ROW 7D : ... .. . ... ... ... : ... .. . ... ... ... : ... .. . ... : ... .. . ... : ... .. . ... ...
ROW 7E : ... .. . ... ... ... : ... .. . ... ... ... : ... .. . ... : ... .. . ... : ... .. . ... ...
ROW 7F : ... .. . ... ... ... : ... .. . ... ... ... : ... .. . ... : ... .. . ... : ... .. . ... ...

PATTERN 1A
ROW 00 : ... .. . ... ... ... : ... .. . ... ... ... : --- .. . ... : ... .. . ... : ... .. . ... ...
ROW 01 : ... .. . ... ... ... : ... .. . ... ... ... : ... .. . ... : ... .. . ... : ... .. . ... ...
ROW 02 : ... .. . ... ... ... : ... .. . ... ... ... : ... .. . ... : ... .. . ... : ... .. . ... ...
ROW 03 : ... .. . ... ... ... : ... .. . ... ... ... : ... .. . ... : ... .. . ... : ... .. . ... ...
ROW 04 : ... .. . ... ... ... : ... .. . ... ... ... : ... .. . ... : ... .. . ... : ... .. . ... ...
ROW 05 : ... .. . ... ... ... : ... .. . ... ... ... : ... .. . ... : ... .. . ... : ... .. . ... ...
ROW 06 : ... .. . ... ... ... : ... .. . ... ... ... : ... .. . ... : ... .. . ... : ... .. . ... ...
ROW 07 : ... .. . ... ... ... : ... .. . ... ... ... : ... .. . ... : ... .. . ... : ... .. . ... ...
ROW 08 : ... .. . ... ... ... : ... .. . ... ... ... : ... .. . ... : ... .. . ... : ... .. . ... ...
ROW 09 : ... .. . ... ... ... : ... .. . ... ... ... : G-2 00 . ... : ... .. C ... : ... .. . ... ...
ROW 0A : ... .. . ... ... ... : ... .. . ... ... ... : ... .. . ... : ... .. 8 ... : ... .. . ... ...
ROW 0B : ... .. . ... ... ... : ... .. . ... ... ... : ... .. . ... : ... .. 4 ... : ... .. . ... ...
ROW 0C : ... .. . ... ... ... : ... .. . ... ... ... : ... .. . ... : ... .. 0 ... : ... .. . ... ...
ROW 0D : ... .. . ... ... ... : ... .. . ... ... ... : ... .. . ... : ... .. . ... : ... .. . ... ...
ROW 0E : ... .. . ... ... ... : ... .. . ... ... ... : ... .. . ... : ... .. . ... : ... .. . ... ...
ROW 0F : ... .. . ... ... ... : ... .. . ... ... ... : ... .. . ... : ... .. . ... : ... .. . ... ...
ROW 10 : ... .. . ... ... ... : ... .. . ... ... ... : --- .. . ... : ... .. . ... : ... .. . ... ...
ROW 11 : ... .. . ... ... ... : ... .. . ... ... ... : D-3 00 . ... : ... .. C ... : ... .. . ... ...
ROW 12 : ... .. . ... ... ... : ... .. . ... ... ... : ... .. . ... : ... .. 8 ... : ... .. . ... ...
ROW 13 : ... .. . ... ... ... : ... .. . ... ... ... : ... .. . ... : ... .. 4 ... : ... .. . ... ...
ROW 14 : ... .. . ... ... ... : ... .. . ... ... ... : ... .. . ... : ... .. 0 ... : ... .. . ... ...
ROW 15 : ... .. . ... ... ... : ... .. . ... ... ... : ... .. . ... : ... .. . ... : ... .. . ... ...
ROW 16 : ... .. . ... ... ... : ... .. . ... ... ... : ... .. . ... : ... .. . ... : ... .. . ... ...
ROW 17 : ... .. . ... ... ... : ... .. . ... ... ... : ... .. . ... : ... .. . ... : ... .. . ... ...
ROW 18 : ... .. . ... ... ... : ... .. . ... ... ... : --- .. . ... : ... .. . ... : ... .. . ... ...
ROW 19 : ... .. . ... ... ... : ... .. . ... ... ... : G-2 00 . ... : ... .. C ... : ... .. . ... ...
ROW 1A : ... .. . ... ... ... : ... .. . ... ... ... : ... .. . ... : ... .. 8 ... : ... .. . ... ...
ROW 1B : ... .. . ... ... ... : ... .. . ... ... ... : ... .. . ... : ... .. 4 ... : ... .. . ... ...
ROW 1C : ... .. . ... ... ... : ... .. . ... ... ... : ... .. . ... : ... .. 0 ... : ... .. . ... ...
ROW 1D : ... .. . ... ... ... : ... .. . ... ... ... : ... .. . ... : ... .. . ... : ... .. . ... ...
ROW 1E : ... .. . ... ... ... : ... .. . ... ... ... : ... .. . ... : ... .. . ... : ... .. . ... ...
ROW 1F : ... .. . ... ... ... : ... .. . ... ... ... : ... .. . ... : ... .. . ... : ... .. . ... ...
ROW 20 : ... .. . ... ... ... : ... .. . ... ... ... : --- .. . ... : ... .. . ... : ... .. . ... ...
ROW 21 : C-3 00 4 P80 ... ... : A#3 00 D P81 ... ... : A#2 00 . ... : ... .. C ... : ... .. . ... ...
ROW 22 : ... .. 5 ... ... ... : ... .. 9 ... ... ... : ... .. . ... : ... .. 8 ... : ... .. . ... ...
ROW 23 : ... .. 6 ... ... ... : ... .. 7 ... ... ... : ... .. . ... : ... .. 4 ... : ... .. . ... ...
ROW 24 : ... .. 7 ... ... ... : ... .. 6 ... ... ... : ... .. . ... : ... .. 0 ... : ... .. . ... ...
ROW 25 : ... .. 8 ... ... ... : ... .. 5 ... ... ... : ... .. . ... : ... .. . ... : ... .. . ... ...
ROW 26 : ... .. 7 ... ... ... : ... .. . ... ... ... : ... .. . ... : ... .. . ... : ... .. . ... ...
ROW 27 : ... .. 6 ... ... ... : ... .. . ... ... ... : ... .. . ... : ... .. . ... : ... .. . ... ...
ROW 28 : ... .. 5 ... ... ... : ... .. 4 ... ... ... : ... .. . ... : ... .. . ... : ... .. . ... ...
ROW 29 : ... .. 4 ... ... ... : ... .. . ... ... ... : ... .. . ... : ... .. . ... : ... .. . ... ...
ROW 2A : ... .. . ... ... ... : ... .. . ... ... ... : ... .. . ... : ... .. . ... : ... .. . ... ...
ROW 2B : ... .. . ... ... ... : ... .. . ... ... ... : ... .. . ... : ... .. . ... : ... .. . ... ...
ROW 2C : ... .. . ... ... ... : ... .. . ... ... ... : ... .. . ... : ... .. . ... : ... .. . ... ...
ROW 2D : ... .. . ... ... ... : ... .. . ... ... ... : ... .. . ... : ... .. . ... : ... .. . ... ...
ROW 2E : ... .. . ... ... ... : ... .. . ... ... ... : ... .. . ... : ... .. . ... : ... .. . ... ...
ROW 2F : ... .. . ... ... ... : ... .. . ... ... ... : ... .. . ... : ... .. . ... : ... .. . ... ...
ROW 30 : ... .. . ... ... ... : ... .. . ... ... ... : --- .. . ... : ... .. . ... : ... .. . ... ...
ROW 31 : ... .. . ... ... ... : ... .. . ... ... ... : ... .. . ... : ... .. . ... : ... .. . ... ...
ROW 32 : ... .. . ... ... ... : ... .. . ... ... ... : ... .. . ... : ... .. . ... : ... .. . ... ...
ROW 33 : ... .. . ... ... ... : ... .. . ... ... ... : ... .. . ... : ... .. . ... : ... .. . ... ...
ROW 34 : ... .. . ... ... ... : ... .. . ... ... ... : ... .. . ... : ... .. . ... : ... .. . ... ...
ROW 35 : ... .. . ... ... ... : ... .. . ... ... ... : ... .. . ... : ... .. . ... : ... .. . ... ...
ROW 36 : ... .. . ... ... ... : ... .. . ... ... ... : ... .. . ... : ... .. . ... : ... .. . ... ...
ROW 37 : ... .. . ... ... ... : ... .. . ... ... ... : ... .. . ... : ... .. . ... : ... .. . ... ...
ROW 38 : ... .. . ... ... ... : ... .. . ... ... ... : ... .. . ... : ... .. . ... : ... .. . ... ...
ROW 39 : ... .. . ... ... ... : ... .. . ... ... ... : A#2 00 . ... : ... .. C ... : ... .. . ... ...
ROW 3A : ... .. . ... ... ... : ... .. . ... ... ... : ... .. . ... : ... .. 8 ... : ... .. . ... ...
ROW 3B : ... .. . ... ... ... : ... .. . ... ... ... : ... .. . ... : ... .. 4 ... : ... .. . ... ...
ROW 3C : ... .. . ... ... ... : ... .. . ... ... ... : ... .. . ... : ... .. 0 ... : ... .. . ... ...
ROW 3D : ... .. . ... ... ... : ... .. . ... ... ... : ... .. . ... : ... .. . ... : ... .. . ... ...
ROW 3E : ... .. . ... ... ... : ... .. . ... ... ... : ... .. . ... : ... .. . ... : ... .. . ... ...
ROW 3F : ... .. . ... ... ... : ... .. . ... ... ... : ... .. . ... : ... .. . ... : ... .. . ... ...
ROW 40 : ... .. . ... ... ... : ... .. . ... ... ... : --- .. . ... : ... .. . ... : ... .. . ... ...
ROW 41 : ... .. . ... ... ... : ... .. . ... ... ... : F-3 00 . ... : ... .. . ... : ... .. . ... ...
ROW 42 : ... .. . ... ... ... : ... .. . ... ... ... : ... .. . ... : ... .. . ... : ... .. . ... ...
ROW 43 : ... .. . ... ... ... : ... .. . ... ... ... : ... .. . ... : ... .. . ... : ... .. . ... ...
ROW 44 : ... .. . ... ... ... : ... .. . ... ... ... : ... .. . ... : ... .. . ... : ... .. . ... ...
ROW 45 : ... .. . ... ... ... : ... .. . ... ... ... : ... .. . ... : ... .. . ... : ... .. . ... ...
ROW 46 : ... .. . ... ... ... : ... .. . ... ... ... : ... .. . ... : ... .. . ... : ... .. . ... ...
ROW 47 : ... .. . ... ... ... : ... .. . ... ... ... : ... .. . ... : ... .. . ... : ... .. . ... ...
ROW 48 : ... .. . ... ... ... : ... .. . ... ... ... : --- .. . ... : ... .. . ... : ... .. . ... ...
ROW 49 : ... .. . ... ... ... : ... .. . ... ... ... : A#2 00 . ... : ... .. . ... : ... .. . ... ...
ROW 4A : ... .. . ... ... ... : ... .. . ... ... ... : ... .. . ... : ... .. . ... : ... .. . ... ...
ROW 4B : ... .. . ... ... ... : ... .. . ... ... ... : ... .. . ... : ... .. . ... : ... .. . ... ...
ROW 4C : ... .. . ... ... ... : ... .. . ... ... ... : ... .. . ... : ... .. . ... : ... .. . ... ...
ROW 4D : ... .. . ... ... ... : ... .. . ... ... ... : ... .. . ... : ... .. . ... : ... .. . ... ...
ROW 4E : ... .. . ... ... ... : ... .. . ... ... ... : ... .. . ... : ... .. . ... : ... .. . ... ...
ROW 4F : ... .. . ... ... ... : ... .. . ... ... ... : ... .. . ... : ... .. . ... : ... .. . ... ...
ROW 50 : ... .. . ... ... ... : ... .. . ... ... ... : --- .. . ... : ... .. . ... : ... .. . ... ...
ROW 51 : F-3 00 4 P80 ... ... : ... .. . ... ... ... : A#2 00 . ... : ... .. C ... : ... .. . ... ...
ROW 52 : ... .. 5 ... ... ... : ... .. . ... ... ... : ... .. . ... : ... .. 8 ... : ... .. . ... ...
ROW 53 : ... .. 6 ... ... ... : ... .. . ... ... ... : ... .. . ... : ... .. 4 ... : ... .. . ... ...
ROW 54 : ... .. 7 ... ... ... : ... .. . ... ... ... : ... .. . ... : ... .. 0 ... : ... .. . ... ...
ROW 55 : ... .. 8 ... ... ... : ... .. . ... ... ... : ... .. . ... : ... .. . ... : ... .. . ... ...
ROW 56 : ... .. 7 ... ... ... : ... .. . ... ... ... : ... .. . ... : ... .. . ... : ... .. . ... ...
ROW 57 : ... .. 6 ... ... ... : ... .. . ... ... ... : ... .. . ... : ... .. . ... : ... .. . ... ...
ROW 58 : ... .. 5 ... ... ... : ... .. . ... ... ... : ... .. . ... : ... .. . ... : ... .. . ... ...
ROW 59 : ... .. 4 ... ... ... : ... .. . ... ... ... : ... .. . ... : ... .. . ... : ... .. . ... ...
ROW 5A : ... .. . ... ... ... : ... .. . ... ... ... : ... .. . ... : ... .. . ... : ... .. . ... ...
ROW 5B : ... .. . ... ... ... : ... .. . ... ... ... : ... .. . ... : ... .. . ... : ... .. . ... ...
ROW 5C : ... .. . ... ... ... : ... .. . ... ... ... : ... .. . ... : ... .. . ... : ... .. . ... ...
ROW 5D : ... .. . ... ... ... : ... .. . ... ... ... : ... .. . ... : ... .. . ... : ... .. . ... ...
ROW 5E : ... .. . ... ... ... : ... .. . ... ... ... : ... .. . ... : ... .. . ... : ... .. . ... ...
ROW 5F : ... .. . ... ... ... : ... .. . ... ... ... : ... .. . ... : ... .. . ... : ... .. . ... ...
ROW 60 : ... .. . ... ... ... : ... .. . ... ... ... : --- .. . ... : ... .. . ... : ... .. . ... ...
ROW 61 : ... .. . ... ... ... : ... .. . ... ... ... : ... .. . ... : ... .. . ... : ... .. . ... ...
ROW 62 : ... .. . ... ... ... : ... .. . ... ... ... : ... .. . ... : ... .. . ... : ... .. . ... ...
ROW 63 : ... .. . ... ... ... : ... .. . ... ... ... : ... .. . ... : ... .. . ... : ... .. . ... ...
ROW 64 : ... .. . ... ... ... : ... .. . ... ... ... : ... .. . ... : ... .. . ... : ... .. . ... ...
ROW 65 : ... .. . ... ... ... : ... .. . ... ... ... : ... .. . ... : ... .. . ... : ... .. . ... ...
ROW 66 : ... .. . ... ... ... : ... .. . ... ... ... : ... .. . ... : ... .. . ... : ... .. . ... ...
ROW 67 : ... .. . ... ... ... : ... .. . ... ... ... : ... .. . ... : ... .. . ... : ... .. . ... ...
ROW 68 : ... .. . ... ... ... : ... .. . ... ... ... : ... .. . ... : ... .. . ... : ... .. . ... ...
ROW 69 : ... .. . ... ... ... : A-3 00 D P80 ... ... : A#2 00 . ... : ... .. C ... : ... .. . ... ...
ROW 6A : ... .. . ... ... ... : ... .. 9 ... ... ... : ... .. . ... : ... .. 8 ... : ... .. . ... ...
ROW 6B : ... .. . ... ... ... : ... .. 7 ... ... ... : ... .. . ... : ... .. 4 ... : ... .. . ... ...
ROW 6C : ... .. . ... ... ... : ... .. 6 ... ... ... : ... .. . ... : ... .. 0 ... : ... .. . ... ...
ROW 6D : ... .. . ... ... ... : ... .. 5 ... ... ... : ... .. . ... : ... .. . ... : ... .. . ... ...
ROW 6E : ... .. . ... ... ... : ... .. . ... ... ... : ... .. . ... : ... .. . ... : ... .. . ... ...
ROW 6F : ... .. . ... ... ... : A#3 00 D P81 ... ... : ... .. . ... : ... .. . ... : ... .. . ... ...
ROW 70 : ... .. . ... ... ... : ... .. 9 ... ... ... : --- .. . ... : ... .. . ... : ... .. . ... ...
ROW 71 : ... .. . ... ... ... : ... .. 7 ... ... ... : F-3 00 . ... : ... .. C ... : ... .. . ... ...
ROW 72 : ... .. . ... ... ... : ... .. 6 ... ... ... : ... .. . ... : ... .. 8 ... : ... .. . ... ...
ROW 73 : ... .. . ... ... ... : ... .. 5 ... ... ... : ... .. . ... : ... .. 4 ... : ... .. . ... ...
ROW 74 : ... .. . ... ... ... : ... .. . ... ... ... : ... .. . ... : ... .. 0 ... : ... .. . ... ...
ROW 75 : ... .. . ... ... ... : A-3 00 D P80 ... ... : ... .. . ... : ... .. . ... : ... .. . ... ...
ROW 76 : ... .. . ... ... ... : ... .. 9 ... ... ... : ... .. . ... : ... .. . ... : ... .. . ... ...
ROW 77 : ... .. . ... ... ... : ... .. 7 ... ... ... : ... .. . ... : ... .. . ... : ... .. . ... ...
ROW 78 : ... .. . ... ... ... : ... .. 6 ... ... ... : --- .. . ... : ... .. . ... : ... .. . ... ...
ROW 79 : ... .. . ... ... ... : ... .. 5 ... ... ... : A#2 00 . ... : ... .. C ... : ... .. . ... ...
ROW 7A : ... .. . ... ... ... : ... .. . ... ... ... : ... .. . ... : ... .. 8 ... : ... .. . ... ...
ROW 7B : ... .. . ... ... ... : F-3 00 D P80 ... ... : ... .. . ... : ... .. 4 ... : ... .. . ... ...
ROW 7C : ... .. . ... ... ... : ... .. 9 ... ... ... : ... .. . ... : ... .. 0 ... : ... .. . ... ...
ROW 7D : ... .. . ... ... ... : ... .. 7 ... ... ... : ... .. . ... : ... .. . ... : ... .. . ... ...
ROW 7E : ... .. . ... ... ... : ... .. 6 ... ... ... : ... .. . ... : ... .. . ... : ... .. . ... ...
ROW 7F : ... .. . ... ... ... : ... .. 5 ... ... ... : ... .. . ... : ... .. . ... : ... .. . ... ...

PATTERN 1B
ROW 00 : ... .. . ... ... ... : ... .. . ... ... ... : --- .. . ... : ... .. . ... : ... .. . ... ...
ROW 01 : B-2 00 4 P80 ... ... : G-3 00 D P80 ... ... : G-2 00 . ... : ... .. C ... : ... .. . ... ...
ROW 02 : ... .. 5 ... ... ... : ... .. 9 ... ... ... : ... .. . ... : ... .. 8 ... : ... .. . ... ...
ROW 03 : ... .. 6 ... ... ... : ... .. 7 ... ... ... : ... .. . ... : ... .. 4 ... : ... .. . ... ...
ROW 04 : ... .. 7 ... ... ... : ... .. 6 ... ... ... : ... .. . ... : ... .. 0 ... : ... .. . ... ...
ROW 05 : ... .. 8 ... ... ... : ... .. 5 ... ... ... : ... .. . ... : ... .. . ... : ... .. . ... ...
ROW 06 : ... .. 7 ... ... ... : ... .. . ... ... ... : ... .. . ... : ... .. . ... : ... .. . ... ...
ROW 07 : ... .. 6 ... ... ... : ... .. . ... ... ... : ... .. . ... : ... .. . ... : ... .. . ... ...
ROW 08 : ... .. 5 ... ... ... : ... .. 4 ... ... ... : ... .. . ... : ... .. . ... : ... .. . ... ...
ROW 09 : ... .. 4 ... ... ... : ... .. . ... ... ... : ... .. . ... : ... .. . ... : ... .. . ... ...
ROW 0A : ... .. . ... ... ... : ... .. . ... ... ... : ... .. . ... : ... .. . ... : ... .. . ... ...
ROW 0B : ... .. . ... ... ... : ... .. . ... ... ... : ... .. . ... : ... .. . ... : ... .. . ... ...
ROW 0C : ... .. . ... ... ... : ... .. . ... ... ... : ... .. . ... : ... .. . ... : ... .. . ... ...
ROW 0D : ... .. . ... ... ... : ... .. . ... ... ... : ... .. . ... : ... .. . ... : ... .. . ... ...
ROW 0E : ... .. . ... ... ... : ... .. . ... ... ... : ... .. . ... : ... .. . ... : ... .. . ... ...
ROW 0F : ... .. . ... ... ... : ... .. . ... ... ... : ... .. . ... : ... .. . ... : ... .. . ... ...
ROW 10 : ... .. . ... ... ... : ... .. . ... ... ... : --- .. . ... : ... .. . ... : ... .. . ... ...
ROW 11 : ... .. . ... ... ... : ... .. . ... ... ... : ... .. . ... : ... .. . ... : ... .. . ... ...
ROW 12 : ... .. . ... ... ... : ... .. . ... ... ... : ... .. . ... : ... .. . ... : ... .. . ... ...
ROW 13 : ... .. . ... ... ... : ... .. . ... ... ... : ... .. . ... : ... .. . ... : ... .. . ... ...
ROW 14 : ... .. . ... ... ... : ... .. . ... ... ... : ... .. . ... : ... .. . ... : ... .. . ... ...
ROW 15 : ... .. . ... ... ... : ... .. . ... ... ... : ... .. . ... : ... .. . ... : ... .. . ... ...
ROW 16 : ... .. . ... ... ... : ... .. . ... ... ... : ... .. . ... : ... .. . ... : ... .. . ... ...
ROW 17 : ... .. . ... ... ... : ... .. . ... ... ... : ... .. . ... : ... .. . ... : ... .. . ... ...
ROW 18 : ... .. . ... ... ... : ... .. . ... ... ... : ... .. . ... : ... .. . ... : ... .. . ... ...
ROW 19 : ... .. . ... ... ... : ... .. . ... ... ... : G-2 00 . ... : ... .. C ... : ... .. . ... ...
ROW 1A : ... .. . ... ... ... : ... .. . ... ... ... : ... .. . ... : ... .. 8 ... : ... .. . ... ...
ROW 1B : ... .. . ... ... ... : ... .. . ... ... ... : ... .. . ... : ... .. 4 ... : ... .. . ... ...
ROW 1C : ... .. . ... ... ... : ... .. . ... ... ... : ... .. . ... : ... .. 0 ... : ... .. . ... ...
ROW 1D : ... .. . ... ... ... : ... .. . ... ... ... : ... .. . ... : ... .. . ... : ... .. . ... ...
ROW 1E : ... .. . ... ... ... : ... .. . ... ... ... : ... .. . ... : ... .. . ... : ... .. . ... ...
ROW 1F : ... .. . ... ... ... : ... .. . ... ... ... : ... .. . ... : ... .. . ... : ... .. . ... ...
ROW 20 : ... .. . ... ... ... : ... .. . ... ... ... : --- .. . ... : ... .. . ... : ... .. . ... ...
ROW 21 : ... .. . ... ... ... : ... .. . ... ... ... : G-3 00 . ... : ... .. . ... : ... .. . ... ...
ROW 22 : ... .. . ... ... ... : ... .. . ... ... ... : ... .. . ... : ... .. . ... : ... .. . ... ...
ROW 23 : ... .. . ... ... ... : ... .. . ... ... ... : ... .. . ... : ... .. . ... : ... .. . ... ...
ROW 24 : ... .. . ... ... ... : ... .. . ... ... ... : ... .. . ... : ... .. . ... : ... .. . ... ...
ROW 25 : ... .. . ... ... ... : ... .. . ... ... ... : ... .. . ... : ... .. . ... : ... .. . ... ...
ROW 26 : ... .. . ... ... ... : ... .. . ... ... ... : ... .. . ... : ... .. . ... : ... .. . ... ...
ROW 27 : ... .. . ... ... ... : ... .. . ... ... ... : ... .. . ... : ... .. . ... : ... .. . ... ...
ROW 28 : ... .. . ... ... ... : ... .. . ... ... ... : --- .. . ... : ... .. . ... : ... .. . ... ...
ROW 29 : ... .. . ... ... ... : ... .. . ... ... ... : D-3 00 . ... : ... .. . ... : ... .. . ... ...
ROW 2A : ... .. . ... ... ... : ... .. . ... ... ... : ... .. . ... : ... .. . ... : ... .. . ... ...
ROW 2B : ... .. . ... ... ... : ... .. . ... ... ... : ... .. . ... : ... .. . ... : ... .. . ... ...
ROW 2C : ... .. . ... ... ... : ... .. . ... ... ... : ... .. . ... : ... .. . ... : ... .. . ... ...
ROW 2D : ... .. . ... ... ... : ... .. . ... ... ... : ... .. . ... : ... .. . ... : ... .. . ... ...
ROW 2E : ... .. . ... ... ... : ... .. . ... ... ... : ... .. . ... : ... .. . ... : ... .. . ... ...
ROW 2F : ... .. . ... ... ... : ... .. . ... ... ... : ... .. . ... : ... .. . ... : ... .. . ... ...
ROW 30 : ... .. . ... ... ... : ... .. . ... ... ... : --- .. . ... : ... .. . ... : ... .. . ... ...
ROW 31 : D-3 00 4 P80 ... ... : ... .. . ... ... ... : G-2 00 . ... : ... .. C ... : ... .. . ... ...
ROW 32 : ... .. 5 ... ... ... : ... .. . ... ... ... : ... .. . ... : ... .. 8 ... : ... .. . ... ...
ROW 33 : ... .. 6 ... ... ... : ... .. . ... ... ... : ... .. . ... : ... .. 4 ... : ... .. . ... ...
ROW 34 : ... .. 7 ... ... ... : ... .. . ... ... ... : ... .. . ... : ... .. 0 ... : ... .. . ... ...
ROW 35 : ... .. 8 ... ... ... : ... .. . ... ... ... : ... .. . ... : ... .. . ... : ... .. . ... ...
ROW 36 : ... .. 7 ... ... ... : ... .. . ... ... ... : ... .. . ... : ... .. . ... : ... .. . ... ...
ROW 37 : ... .. 6 ... ... ... : ... .. . ... ... ... : ... .. . ... : ... .. . ... : ... .. . ... ...
ROW 38 : ... .. 5 ... ... ... : ... .. . ... ... ... : ... .. . ... : ... .. . ... : ... .. . ... ...
ROW 39 : ... .. 4 ... ... ... : ... .. . ... ... ... : ... .. . ... : ... .. . ... : ... .. . ... ...
ROW 3A : ... .. . ... ... ... : ... .. . ... ... ... : ... .. . ... : ... .. . ... : ... .. . ... ...
ROW 3B : ... .. . ... ... ... : ... .. . ... ... ... : ... .. . ... : ... .. . ... : ... .. . ... ...
ROW 3C : ... .. . ... ... ... : ... .. . ... ... ... : ... .. . ... : ... .. . ... : ... .. . ... ...
ROW 3D : ... .. . ... ... ... : ... .. . ... ... ... : ... .. . ... : ... .. . ... : ... .. . ... ...
ROW 3E : ... .. . ... ... ... : ... .. . ... ... ... : ... .. . ... : ... .. . ... : ... .. . ... ...
ROW 3F : ... .. . ... ... ... : ... .. . ... ... ... : ... .. . ... : ... .. . ... : ... .. . ... ...
ROW 40 : ... .. . ... ... ... : ... .. . ... ... ... : --- .. . ... : ... .. . ... : ... .. . ... ...
ROW 41 : ... .. . ... ... ... : ... .. . ... ... ... : ... .. . ... : ... .. . ... : ... .. . ... ...
ROW 42 : ... .. . ... ... ... : ... .. . ... ... ... : ... .. . ... : ... .. . ... : ... .. . ... ...
ROW 43 : ... .. . ... ... ... : ... .. . ... ... ... : ... .. . ... : ... .. . ... : ... .. . ... ...
ROW 44 : ... .. . ... ... ... : ... .. . ... ... ... : ... .. . ... : ... .. . ... : ... .. . ... ...
ROW 45 : ... .. . ... ... ... : ... .. . ... ... ... : ... .. . ... : ... .. . ... : ... .. . ... ...
ROW 46 : ... .. . ... ... ... : ... .. . ... ... ... : ... .. . ... : ... .. . ... : ... .. . ... ...
ROW 47 : ... .. . ... ... ... : ... .. . ... ... ... : ... .. . ... : ... .. . ... : ... .. . ... ...
ROW 48 : ... .. . ... ... ... : ... .. . ... ... ... : ... .. . ... : ... .. . ... : ... .. . ... ...
ROW 49 : ... .. . ... ... ... : ... .. . ... ... ... : G-2 00 . ... : ... .. C ... : ... .. . ... ...
ROW 4A : ... .. . ... ... ... : ... .. . ... ... ... : ... .. . ... : ... .. 8 ... : ... .. . ... ...
ROW 4B : ... .. . ... ... ... : ... .. . ... ... ... : ... .. . ... : ... .. 4 ... : ... .. . ... ...
ROW 4C : ... .. . ... ... ... : ... .. . ... ... ... : ... .. . ... : ... .. 0 ... : ... .. . ... ...
ROW 4D : ... .. . ... ... ... : ... .. . ... ... ... : ... .. . ... : ... .. . ... : ... .. . ... ...
ROW 4E : ... .. . ... ... ... : ... .. . ... ... ... : ... .. . ... : ... .. . ... : ... .. . ... ...
ROW 4F : ... .. . ... ... ... : ... .. . ... ... ... : ... .. . ... : ... .. . ... : ... .. . ... ...
ROW 50 : ... .. . ... ... ... : ... .. . ... ... ... : --- .. . ... : ... .. . ... : ... .. . ... ...
ROW 51 : ... .. . ... ... ... : ... .. . ... ... ... : D-3 00 . ... : ... .. C ... : ... .. . ... ...
ROW 52 : ... .. . ... ... ... : ... .. . ... ... ... : ... .. . ... : ... .. 8 ... : ... .. . ... ...
ROW 53 : ... .. . ... ... ... : ... .. . ... ... ... : ... .. . ... : ... .. 4 ... : ... .. . ... ...
ROW 54 : ... .. . ... ... ... : ... .. . ... ... ... : ... .. . ... : ... .. 0 ... : ... .. . ... ...
ROW 55 : ... .. . ... ... ... : ... .. . ... ... ... : ... .. . ... : ... .. . ... : ... .. . ... ...
ROW 56 : ... .. . ... ... ... : ... .. . ... ... ... : ... .. . ... : ... .. . ... : ... .. . ... ...
ROW 57 : ... .. . ... ... ... : ... .. . ... ... ... : ... .. . ... : ... .. . ... : ... .. . ... ...
ROW 58 : ... .. . ... ... ... : ... .. . ... ... ... : --- .. . ... : ... .. . ... : ... .. . ... ...
ROW 59 : ... .. . ... ... ... : ... .. . ... ... ... : G-2 00 . ... : ... .. C ... : ... .. . ... ...
ROW 5A : ... .. . ... ... ... : ... .. . ... ... ... : ... .. . ... : ... .. 8 ... : ... .. . ... ...
ROW 5B : ... .. . ... ... ... : ... .. . ... ... ... : ... .. . ... : ... .. 4 ... : ... .. . ... ...
ROW 5C : ... .. . ... ... ... : ... .. . ... ... ... : ... .. . ... : ... .. 0 ... : ... .. . ... ...
ROW 5D : ... .. . ... ... ... : ... .. . ... ... ... : ... .. . ... : ... .. . ... : ... .. . ... ...
ROW 5E : ... .. . ... ... ... : ... .. . ... ... ... : ... .. . ... : ... .. . ... : ... .. . ... ...
ROW 5F : ... .. . ... ... ... : ... .. . ... ... ... : ... .. . ... : ... .. . ... : ... .. . ... ...
ROW 60 : ... .. . ... ... ... : ... .. . ... ... ... : --- .. . ... : ... .. . ... : ... .. . ... ...
ROW 61 : C-3 00 4 P80 ... ... : A#3 00 D P81 ... ... : A#2 00 . ... : ... .. C ... : ... .. . ... ...
ROW 62 : ... .. 5 ... ... ... : ... .. 9 ... ... ... : ... .. . ... : ... .. 8 ... : ... .. . ... ...
ROW 63 : ... .. 6 ... ... ... : ... .. 7 ... ... ... : ... .. . ... : ... .. 4 ... : ... .. . ... ...
ROW 64 : ... .. 7 ... ... ... : ... .. 6 ... ... ... : ... .. . ... : ... .. 0 ... : ... .. . ... ...
ROW 65 : ... .. 8 ... ... ... : ... .. 5 ... ... ... : ... .. . ... : ... .. . ... : ... .. . ... ...
ROW 66 : ... .. 7 ... ... ... : ... .. . ... ... ... : ... .. . ... : ... .. . ... : ... .. . ... ...
ROW 67 : ... .. 6 ... ... ... : ... .. . ... ... ... : ... .. . ... : ... .. . ... : ... .. . ... ...
ROW 68 : ... .. 5 ... ... ... : ... .. 4 ... ... ... : ... .. . ... : ... .. . ... : ... .. . ... ...
ROW 69 : ... .. 4 ... ... ... : ... .. . ... ... ... : ... .. . ... : ... .. . ... : ... .. . ... ...
ROW 6A : ... .. . ... ... ... : ... .. . ... ... ... : ... .. . ... : ... .. . ... : ... .. . ... ...
ROW 6B : ... .. . ... ... ... : ... .. . ... ... ... : ... .. . ... : ... .. . ... : ... .. . ... ...
ROW 6C : ... .. . ... ... ... : ... .. . ... ... ... : ... .. . ... : ... .. . ... : ... .. . ... ...
ROW 6D : ... .. . ... ... ... : ... .. . ... ... ... : ... .. . ... : ... .. . ... : ... .. . ... ...
ROW 6E : ... .. . ... ... ... : ... .. . ... ... ... : ... .. . ... : ... .. . ... : ... .. . ... ...
ROW 6F : ... .. . ... ... ... : ... .. . ... ... ... : ... .. . ... : ... .. . ... : ... .. . ... ...
ROW 70 : ... .. . ... ... ... : ... .. . ... ... ... : --- .. . ... : ... .. . ... : ... .. . ... ...
ROW 71 : ... .. . ... ... ... : ... .. . ... ... ... : ... .. . ... : ... .. . ... : ... .. . ... ...
ROW 72 : ... .. . ... ... ... : ... .. . ... ... ... : ... .. . ... : ... .. . ... : ... .. . ... ...
ROW 73 : ... .. . ... ... ... : ... .. . ... ... ... : ... .. . ... : ... .. . ... : ... .. . ... ...
ROW 74 : ... .. . ... ... ... : ... .. . ... ... ... : ... .. . ... : ... .. . ... : ... .. . ... ...
ROW 75 : ... .. . ... ... ... : ... .. . ... ... ... : ... .. . ... : ... .. . ... : ... .. . ... ...
ROW 76 : ... .. . ... ... ... : ... .. . ... ... ... : ... .. . ... : ... .. . ... : ... .. . ... ...
ROW 77 : ... .. . ... ... ... : ... .. . ... ... ... : ... .. . ... : ... .. . ... : ... .. . ... ...
ROW 78 : ... .. . ... ... ... : ... .. . ... ... ... : ... .. . ... : ... .. . ... : ... .. . ... ...
ROW 79 : ... .. . ... ... ... : ... .. . ... ... ... : A#2 00 . ... : ... .. C ... : ... .. . ... ...
ROW 7A : ... .. . ... ... ... : ... .. . ... ... ... : ... .. . ... : ... .. 8 ... : ... .. . ... ...
ROW 7B : ... .. . ... ... ... : ... .. . ... ... ... : ... .. . ... : ... .. 4 ... : ... .. . ... ...
ROW 7C : ... .. . ... ... ... : ... .. . ... ... ... : ... .. . ... : ... .. 0 ... : ... .. . ... ...
ROW 7D : ... .. . ... ... ... : ... .. . ... ... ... : ... .. . ... : ... .. . ... : ... .. . ... ...
ROW 7E : ... .. . ... ... ... : ... .. . ... ... ... : ... .. . ... : ... .. . ... : ... .. . ... ...
ROW 7F : ... .. . ... ... ... : ... .. . ... ... ... : ... .. . ... : ... .. . ... : ... .. . ... ...

PATTERN 1C
ROW 00 : ... .. . ... ... ... : ... .. . ... ... ... : --- .. . ... : ... .. . ... : ... .. . ... ...
ROW 01 : ... .. . ... ... ... : ... .. . ... ... ... : F-3 00 . ... : ... .. . ... : ... .. . ... ...
ROW 02 : ... .. . ... ... ... : ... .. . ... ... ... : ... .. . ... : ... .. . ... : ... .. . ... ...
ROW 03 : ... .. . ... ... ... : ... .. . ... ... ... : ... .. . ... : ... .. . ... : ... .. . ... ...
ROW 04 : ... .. . ... ... ... : ... .. . ... ... ... : ... .. . ... : ... .. . ... : ... .. . ... ...
ROW 05 : ... .. . ... ... ... : ... .. . ... ... ... : ... .. . ... : ... .. . ... : ... .. . ... ...
ROW 06 : ... .. . ... ... ... : ... .. . ... ... ... : ... .. . ... : ... .. . ... : ... .. . ... ...
ROW 07 : ... .. . ... ... ... : ... .. . ... ... ... : ... .. . ... : ... .. . ... : ... .. . ... ...
ROW 08 : ... .. . ... ... ... : ... .. . ... ... ... : --- .. . ... : ... .. . ... : ... .. . ... ...
ROW 09 : ... .. . ... ... ... : ... .. . ... ... ... : A#2 00 . ... : ... .. . ... : ... .. . ... ...
ROW 0A : ... .. . ... ... ... : ... .. . ... ... ... : ... .. . ... : ... .. . ... : ... .. . ... ...
ROW 0B : ... .. . ... ... ... : ... .. . ... ... ... : ... .. . ... : ... .. . ... : ... .. . ... ...
ROW 0C : ... .. . ... ... ... : ... .. . ... ... ... : ... .. . ... : ... .. . ... : ... .. . ... ...
ROW 0D : ... .. . ... ... ... : ... .. . ... ... ... : ... .. . ... : ... .. . ... : ... .. . ... ...
ROW 0E : ... .. . ... ... ... : ... .. . ... ... ... : ... .. . ... : ... .. . ... : ... .. . ... ...
ROW 0F : ... .. . ... ... ... : ... .. . ... ... ... : ... .. . ... : ... .. . ... : ... .. . ... ...
ROW 10 : ... .. . ... ... ... : ... .. . ... ... ... : --- .. . ... : ... .. . ... : ... .. . ... ...
ROW 11 : F-3 00 4 P80 ... ... : ... .. . ... ... ... : A#2 00 . ... : ... .. C ... : ... .. . ... ...
ROW 12 : ... .. 5 ... ... ... : ... .. . ... ... ... : ... .. . ... : ... .. 8 ... : ... .. . ... ...
ROW 13 : ... .. 6 ... ... ... : ... .. . ... ... ... : ... .. . ... : ... .. 4 ... : ... .. . ... ...
ROW 14 : ... .. 7 ... ... ... : ... .. . ... ... ... : ... .. . ... : ... .. 0 ... : ... .. . ... ...
ROW 15 : ... .. 8 ... ... ... : ... .. . ... ... ... : ... .. . ... : ... .. . ... : ... .. . ... ...
ROW 16 : ... .. 7 ... ... ... : ... .. . ... ... ... : ... .. . ... : ... .. . ... : ... .. . ... ...
ROW 17 : ... .. 6 ... ... ... : ... .. . ... ... ... : ... .. . ... : ... .. . ... : ... .. . ... ...
ROW 18 : ... .. 5 ... ... ... : ... .. . ... ... ... : ... .. . ... : ... .. . ... : ... .. . ... ...
ROW 19 : ... .. 4 ... ... ... : ... .. . ... ... ... : ... .. . ... : ... .. . ... : ... .. . ... ...
ROW 1A : ... .. . ... ... ... : ... .. . ... ... ... : ... .. . ... : ... .. . ... : ... .. . ... ...
ROW 1B : ... .. . ... ... ... : ... .. . ... ... ... : ... .. . ... : ... .. . ... : ... .. . ... ...
ROW 1C : ... .. . ... ... ... : ... .. . ... ... ... : ... .. . ... : ... .. . ... : ... .. . ... ...
ROW 1D : ... .. . ... ... ... : ... .. . ... ... ... : ... .. . ... : ... .. . ... : ... .. . ... ...
ROW 1E : ... .. . ... ... ... : ... .. . ... ... ... : ... .. . ... : ... .. . ... : ... .. . ... ...
ROW 1F : ... .. . ... ... ... : ... .. . ... ... ... : ... .. . ... : ... .. . ... : ... .. . ... ...
ROW 20 : ... .. . ... ... ... : ... .. . ... ... ... : --- .. . ... : ... .. . ... : ... .. . ... ...
ROW 21 : ... .. . ... ... ... : ... .. . ... ... ... : ... .. . ... : ... .. . ... : ... .. . ... ...
ROW 22 : ... .. . ... ... ... : ... .. . ... ... ... : ... .. . ... : ... .. . ... : ... .. . ... ...
ROW 23 : ... .. . ... ... ... : ... .. . ... ... ... : ... .. . ... : ... .. . ... : ... .. . ... ...
ROW 24 : ... .. . ... ... ... : ... .. . ... ... ... : ... .. . ... : ... .. . ... : ... .. . ... ...
ROW 25 : ... .. . ... ... ... : ... .. . ... ... ... : ... .. . ... : ... .. . ... : ... .. . ... ...
ROW 26 : ... .. . ... ... ... : ... .. . ... ... ... : ... .. . ... : ... .. . ... : ... .. . ... ...
ROW 27 : ... .. . ... ... ... : ... .. . ... ... ... : ... .. . ... : ... .. . ... : ... .. . ... ...
ROW 28 : ... .. . ... ... ... : ... .. . ... ... ... : ... .. . ... : ... .. . ... : ... .. . ... ...
ROW 29 : ... .. . ... ... ... : A-3 00 D P80 ... ... : A#2 00 . ... : ... .. C ... : ... .. . ... ...
ROW 2A : ... .. . ... ... ... : ... .. 9 ... ... ... : ... .. . ... : ... .. 8 ... : ... .. . ... ...
ROW 2B : ... .. . ... ... ... : ... .. 7 ... ... ... : ... .. . ... : ... .. 4 ... : ... .. . ... ...
ROW 2C : ... .. . ... ... ... : ... .. 6 ... ... ... : ... .. . ... : ... .. 0 ... : ... .. . ... ...
ROW 2D : ... .. . ... ... ... : ... .. 5 ... ... ... : ... .. . ... : ... .. . ... : ... .. . ... ...
ROW 2E : ... .. . ... ... ... : ... .. . ... ... ... : ... .. . ... : ... .. . ... : ... .. . ... ...
ROW 2F : ... .. . ... ... ... : A#3 00 D P81 ... ... : ... .. . ... : ... .. . ... : ... .. . ... ...
ROW 30 : ... .. . ... ... ... : ... .. 9 ... ... ... : --- .. . ... : ... .. . ... : ... .. . ... ...
ROW 31 : ... .. . ... ... ... : ... .. 7 ... ... ... : F-3 00 . ... : ... .. C ... : ... .. . ... ...
ROW 32 : ... .. . ... ... ... : ... .. 6 ... ... ... : ... .. . ... : ... .. 8 ... : ... .. . ... ...
ROW 33 : ... .. . ... ... ... : ... .. 5 ... ... ... : ... .. . ... : ... .. 4 ... : ... .. . ... ...
ROW 34 : ... .. . ... ... ... : ... .. . ... ... ... : ... .. . ... : ... .. 0 ... : ... .. . ... ...
ROW 35 : ... .. . ... ... ... : A-3 00 D P80 ... ... : ... .. . ... : ... .. . ... : ... .. . ... ...
ROW 36 : ... .. . ... ... ... : ... .. 9 ... ... ... : ... .. . ... : ... .. . ... : ... .. . ... ...
ROW 37 : ... .. . ... ... ... : ... .. 7 ... ... ... : ... .. . ... : ... .. . ... : ... .. . ... ...
ROW 38 : ... .. . ... ... ... : ... .. 6 ... ... ... : --- .. . ... : ... .. . ... : ... .. . ... ...
ROW 39 : ... .. . ... ... ... : ... .. 5 ... ... ... : A#2 00 . ... : ... .. C ... : ... .. . ... ...
ROW 3A : ... .. . ... ... ... : ... .. . ... ... ... : ... .. . ... : ... .. 8 ... : ... .. . ... ...
ROW 3B : ... .. . ... ... ... : F-3 00 D P80 ... ... : ... .. . ... : ... .. 4 ... : ... .. . ... ...
ROW 3C : ... .. . ... ... ... : ... .. 9 ... ... ... : ... .. . ... : ... .. 0 ... : ... .. . ... ...
ROW 3D : ... .. . ... ... ... : ... .. 7 ... ... ... : ... .. . ... : ... .. . ... : ... .. . ... ...
ROW 3E : ... .. . ... ... ... : ... .. 6 ... ... ... : ... .. . ... : ... .. . ... : ... .. . ... ...
ROW 3F : ... .. . ... ... ... : ... .. 5 ... ... ... : ... .. . ... : ... .. . ... : ... .. . ... ...
ROW 40 : ... .. . ... ... ... : ... .. . ... ... ... : --- .. . ... : ... .. . ... : ... .. . ... ...
ROW 41 : B-2 00 4 P80 ... ... : G-3 00 D P80 ... ... : G-2 00 . ... : ... .. C ... : ... .. . ... ...
ROW 42 : ... .. 5 ... ... ... : ... .. 9 ... ... ... : ... .. . ... : ... .. 8 ... : ... .. . ... ...
ROW 43 : ... .. 6 ... ... ... : ... .. 7 ... ... ... : ... .. . ... : ... .. 4 ... : ... .. . ... ...
ROW 44 : ... .. 7 ... ... ... : ... .. 6 ... ... ... : ... .. . ... : ... .. 0 ... : ... .. . ... ...
ROW 45 : ... .. 8 ... ... ... : ... .. 5 ... ... ... : ... .. . ... : ... .. . ... : ... .. . ... ...
ROW 46 : ... .. 7 ... ... ... : ... .. . ... ... ... : ... .. . ... : ... .. . ... : ... .. . ... ...
ROW 47 : ... .. 6 ... ... ... : ... .. . ... ... ... : ... .. . ... : ... .. . ... : ... .. . ... ...
ROW 48 : ... .. 5 ... ... ... : ... .. 4 ... ... ... : ... .. . ... : ... .. . ... : ... .. . ... ...
ROW 49 : ... .. 4 ... ... ... : ... .. . ... ... ... : ... .. . ... : ... .. . ... : ... .. . ... ...
ROW 4A : ... .. . ... ... ... : ... .. . ... ... ... : ... .. . ... : ... .. . ... : ... .. . ... ...
ROW 4B : ... .. . ... ... ... : ... .. . ... ... ... : ... .. . ... : ... .. . ... : ... .. . ... ...
ROW 4C : ... .. . ... ... ... : ... .. . ... ... ... : ... .. . ... : ... .. . ... : ... .. . ... ...
ROW 4D : ... .. . ... ... ... : ... .. . ... ... ... : ... .. . ... : ... .. . ... : ... .. . ... ...
ROW 4E : ... .. . ... ... ... : ... .. . ... ... ... : ... .. . ... : ... .. . ... : ... .. . ... ...
ROW 4F : ... .. . ... ... ... : ... .. . ... ... ... : ... .. . ... : ... .. . ... : ... .. . ... ...
ROW 50 : ... .. . ... ... ... : ... .. . ... ... ... : --- .. . ... : ... .. . ... : ... .. . ... ...
ROW 51 : ... .. . ... ... ... : ... .. . ... ... ... : ... .. . ... : ... .. . ... : ... .. . ... ...
ROW 52 : ... .. . ... ... ... : ... .. . ... ... ... : ... .. . ... : ... .. . ... : ... .. . ... ...
ROW 53 : ... .. . ... ... ... : ... .. . ... ... ... : ... .. . ... : ... .. . ... : ... .. . ... ...
ROW 54 : ... .. . ... ... ... : ... .. . ... ... ... : ... .. . ... : ... .. . ... : ... .. . ... ...
ROW 55 : ... .. . ... ... ... : ... .. . ... ... ... : ... .. . ... : ... .. . ... : ... .. . ... ...
ROW 56 : ... .. . ... ... ... : ... .. . ... ... ... : ... .. . ... : ... .. . ... : ... .. . ... ...
ROW 57 : ... .. . ... ... ... : ... .. . ... ... ... : ... .. . ... : ... .. . ... : ... .. . ... ...
ROW 58 : ... .. . ... ... ... : ... .. . ... ... ... : ... .. . ... : ... .. . ... : ... .. . ... ...
ROW 59 : ... .. . ... ... ... : ... .. . ... ... ... : G-2 00 . ... : ... .. C ... : ... .. . ... ...
ROW 5A : ... .. . ... ... ... : ... .. . ... ... ... : ... .. . ... : ... .. 8 ... : ... .. . ... ...
ROW 5B : ... .. . ... ... ... : ... .. . ... ... ... : ... .. . ... : ... .. 4 ... : ... .. . ... ...
ROW 5C : ... .. . ... ... ... : ... .. . ... ... ... : ... .. . ... : ... .. 0 ... : ... .. . ... ...
ROW 5D : ... .. . ... ... ... : ... .. . ... ... ... : ... .. . ... : ... .. . ... : ... .. . ... ...
ROW 5E : ... .. . ... ... ... : ... .. . ... ... ... : ... .. . ... : ... .. . ... : ... .. . ... ...
ROW 5F : ... .. . ... ... ... : ... .. . ... ... ... : ... .. . ... : ... .. . ... : ... .. . ... ...
ROW 60 : ... .. . ... ... ... : ... .. . ... ... ... : --- .. . ... : ... .. . ... : ... .. . ... ...
ROW 61 : ... .. . ... ... ... : ... .. . ... ... ... : G-3 00 . ... : ... .. . ... : ... .. . ... ...
ROW 62 : ... .. . ... ... ... : ... .. . ... ... ... : ... .. . ... : ... .. . ... : ... .. . ... ...
ROW 63 : ... .. . ... ... ... : ... .. . ... ... ... : ... .. . ... : ... .. . ... : ... .. . ... ...
ROW 64 : ... .. . ... ... ... : ... .. . ... ... ... : ... .. . ... : ... .. . ... : ... .. . ... ...
ROW 65 : ... .. . ... ... ... : ... .. . ... ... ... : ... .. . ... : ... .. . ... : ... .. . ... ...
ROW 66 : ... .. . ... ... ... : ... .. . ... ... ... : ... .. . ... : ... .. . ... : ... .. . ... ...
ROW 67 : ... .. . ... ... ... : ... .. . ... ... ... : ... .. . ... : ... .. . ... : ... .. . ... ...
ROW 68 : ... .. . ... ... ... : ... .. . ... ... ... : --- .. . ... : ... .. . ... : ... .. . ... ...
ROW 69 : ... .. . ... ... ... : ... .. . ... ... ... : D-3 00 . ... : ... .. . ... : ... .. . ... ...
ROW 6A : ... .. . ... ... ... : ... .. . ... ... ... : ... .. . ... : ... .. . ... : ... .. . ... ...
ROW 6B : ... .. . ... ... ... : ... .. . ... ... ... : ... .. . ... : ... .. . ... : ... .. . ... ...
ROW 6C : ... .. . ... ... ... : ... .. . ... ... ... : ... .. . ... : ... .. . ... : ... .. . ... ...
ROW 6D : ... .. . ... ... ... : ... .. . ... ... ... : ... .. . ... : ... .. . ... : ... .. . ... ...
ROW 6E : ... .. . ... ... ... : ... .. . ... ... ... : ... .. . ... : ... .. . ... : ... .. . ... ...
ROW 6F : ... .. . ... ... ... : ... .. . ... ... ... : ... .. . ... : ... .. . ... : ... .. . ... ...
ROW 70 : ... .. . ... ... ... : ... .. . ... ... ... : --- .. . ... : ... .. . ... : ... .. . ... ...
ROW 71 : D-3 00 4 P80 ... ... : ... .. . ... ... ... : G-2 00 . ... : ... .. C ... : ... .. . ... ...
ROW 72 : ... .. 5 ... ... ... : ... .. . ... ... ... : ... .. . ... : ... .. 8 ... : ... .. . ... ...
ROW 73 : ... .. 6 ... ... ... : ... .. . ... ... ... : ... .. . ... : ... .. 4 ... : ... .. . ... ...
ROW 74 : ... .. 7 ... ... ... : ... .. . ... ... ... : ... .. . ... : ... .. 0 ... : ... .. . ... ...
ROW 75 : ... .. 8 ... ... ... : ... .. . ... ... ... : ... .. . ... : ... .. . ... : ... .. . ... ...
ROW 76 : ... .. 7 ... ... ... : ... .. . ... ... ... : ... .. . ... : ... .. . ... : ... .. . ... ...
ROW 77 : ... .. 6 ... ... ... : ... .. . ... ... ... : ... .. . ... : ... .. . ... : ... .. . ... ...
ROW 78 : ... .. 5 ... ... ... : ... .. . ... ... ... : ... .. . ... : ... .. . ... : ... .. . ... ...
ROW 79 : ... .. 4 ... ... ... : ... .. . ... ... ... : ... .. . ... : ... .. . ... : ... .. . ... ...
ROW 7A : ... .. . ... ... ... : ... .. . ... ... ... : ... .. . ... : ... .. . ... : ... .. . ... ...
ROW 7B : ... .. . ... ... ... : ... .. . ... ... ... : ... .. . ... : ... .. . ... : ... .. . ... ...
ROW 7C : ... .. . ... ... ... : ... .. . ... ... ... : ... .. . ... : ... .. . ... : ... .. . ... ...
ROW 7D : ... .. . ... ... ... : ... .. . ... ... ... : ... .. . ... : ... .. . ... : ... .. . ... ...
ROW 7E : ... .. . ... ... ... : ... .. . ... ... ... : ... .. . ... : ... .. . ... : ... .. . ... ...
ROW 7F : ... .. . ... ... ... : ... .. . ... ... ... : ... .. . ... : ... .. . ... : ... .. . ... ...

PATTERN 1D
ROW 00 : ... .. . ... ... ... : ... .. . ... ... ... : --- .. . ... : ... .. . ... : ... .. . ... ...
ROW 01 : ... .. . ... ... ... : ... .. . ... ... ... : ... .. . ... : ... .. . ... : ... .. . ... ...
ROW 02 : ... .. . ... ... ... : ... .. . ... ... ... : ... .. . ... : ... .. . ... : ... .. . ... ...
ROW 03 : ... .. . ... ... ... : ... .. . ... ... ... : ... .. . ... : ... .. . ... : ... .. . ... ...
ROW 04 : ... .. . ... ... ... : ... .. . ... ... ... : ... .. . ... : ... .. . ... : ... .. . ... ...
ROW 05 : ... .. . ... ... ... : ... .. . ... ... ... : ... .. . ... : ... .. . ... : ... .. . ... ...
ROW 06 : ... .. . ... ... ... : ... .. . ... ... ... : ... .. . ... : ... .. . ... : ... .. . ... ...
ROW 07 : ... .. . ... ... ... : ... .. . ... ... ... : ... .. . ... : ... .. . ... : ... .. . ... ...
ROW 08 : ... .. . ... ... ... : ... .. . ... ... ... : ... .. . ... : ... .. . ... : ... .. . ... ...
ROW 09 : ... .. . ... ... ... : ... .. . ... ... ... : G-2 00 . ... : ... .. C ... : ... .. . ... ...
ROW 0A : ... .. . ... ... ... : ... .. . ... ... ... : ... .. . ... : ... .. 8 ... : ... .. . ... ...
ROW 0B : ... .. . ... ... ... : ... .. . ... ... ... : ... .. . ... : ... .. 4 ... : ... .. . ... ...
ROW 0C : ... .. . ... ... ... : ... .. . ... ... ... : ... .. . ... : ... .. 0 ... : ... .. . ... ...
ROW 0D : ... .. . ... ... ... : ... .. . ... ... ... : ... .. . ... : ... .. . ... : ... .. . ... ...
ROW 0E : ... .. . ... ... ... : ... .. . ... ... ... : ... .. . ... : ... .. . ... : ... .. . ... ...
ROW 0F : ... .. . ... ... ... : ... .. . ... ... ... : ... .. . ... : ... .. . ... : ... .. . ... ...
ROW 10 : ... .. . ... ... ... : ... .. . ... ... ... : --- .. . ... : ... .. . ... : ... .. . ... ...
ROW 11 : ... .. . ... ... ... : ... .. . ... ... ... : D-3 00 . ... : ... .. C ... : ... .. . ... ...
ROW 12 : ... .. . ... ... ... : ... .. . ... ... ... : ... .. . ... : ... .. 8 ... : ... .. . ... ...
ROW 13 : ... .. . ... ... ... : ... .. . ... ... ... : ... .. . ... : ... .. 4 ... : ... .. . ... ...
ROW 14 : ... .. . ... ... ... : ... .. . ... ... ... : ... .. . ... : ... .. 0 ... : ... .. . ... ...
ROW 15 : ... .. . ... ... ... : ... .. . ... ... ... : ... .. . ... : ... .. . ... : ... .. . ... ...
ROW 16 : ... .. . ... ... ... : ... .. . ... ... ... : ... .. . ... : ... .. . ... : ... .. . ... ...
ROW 17 : ... .. . ... ... ... : ... .. . ... ... ... : ... .. . ... : ... .. . ... : ... .. . ... ...
ROW 18 : ... .. . ... ... ... : ... .. . ... ... ... : --- .. . ... : ... .. . ... : ... .. . ... ...
ROW 19 : ... .. . ... ... ... : ... .. . ... ... ... : G-2 00 . ... : ... .. C ... : ... .. . ... ...
ROW 1A : ... .. . ... ... ... : ... .. . ... ... ... : ... .. . ... : ... .. 8 ... : ... .. . ... ...
ROW 1B : ... .. . ... ... ... : ... .. . ... ... ... : ... .. . ... : ... .. 4 ... : ... .. . ... ...
ROW 1C : ... .. . ... ... ... : ... .. . ... ... ... : ... .. . ... : ... .. 0 ... : ... .. . ... ...
ROW 1D : ... .. . ... ... ... : ... .. . ... ... ... : ... .. . ... : ... .. . ... : ... .. . ... ...
ROW 1E : ... .. . ... ... ... : ... .. . ... ... ... : ... .. . ... : ... .. . ... : ... .. . ... ...
ROW 1F : ... .. . ... ... ... : ... .. . ... ... ... : ... .. . ... : ... .. . ... : ... .. . ... ...
ROW 20 : ... .. . ... ... ... : ... .. . ... ... ... : --- .. . ... : ... .. . ... : ... .. . ... ...
ROW 21 : C-3 00 4 P80 ... ... : A#3 00 D P81 ... ... : A#2 00 . ... : ... .. C ... : ... .. . ... ...
ROW 22 : ... .. 5 ... ... ... : ... .. 9 ... ... ... : ... .. . ... : ... .. 8 ... : ... .. . ... ...
ROW 23 : ... .. 6 ... ... ... : ... .. 7 ... ... ... : ... .. . ... : ... .. 4 ... : ... .. . ... ...
ROW 24 : ... .. 7 ... ... ... : ... .. 6 ... ... ... : ... .. . ... : ... .. 0 ... : ... .. . ... ...
ROW 25 : ... .. 8 ... ... ... : ... .. 5 ... ... ... : ... .. . ... : ... .. . ... : ... .. . ... ...
ROW 26 : ... .. 7 ... ... ... : ... .. . ... ... ... : ... .. . ... : ... .. . ... : ... .. . ... ...
ROW 27 : ... .. 6 ... ... ... : ... .. . ... ... ... : ... .. . ... : ... .. . ... : ... .. . ... ...
ROW 28 : ... .. 5 ... ... ... : ... .. 4 ... ... ... : ... .. . ... : ... .. . ... : ... .. . ... ...
ROW 29 : ... .. 4 ... ... ... : ... .. . ... ... ... : ... .. . ... : ... .. . ... : ... .. . ... ...
ROW 2A : ... .. . ... ... ... : ... .. . ... ... ... : ... .. . ... : ... .. . ... : ... .. . ... ...
ROW 2B : ... .. . ... ... ... : ... .. . ... ... ... : ... .. . ... : ... .. . ... : ... .. . ... ...
ROW 2C : ... .. . ... ... ... : ... .. . ... ... ... : ... .. . ... : ... .. . ... : ... .. . ... ...
ROW 2D : ... .. . ... ... ... : ... .. . ... ... ... : ... .. . ... : ... .. . ... : ... .. . ... ...
ROW 2E : ... .. . ... ... ... : ... .. . ... ... ... : ... .. . ... : ... .. . ... : ... .. . ... ...
ROW 2F : ... .. . ... ... ... : ... .. . ... ... ... : ... .. . ... : ... .. . ... : ... .. . ... ...
ROW 30 : ... .. . ... ... ... : ... .. . ... ... ... : --- .. . ... : ... .. . ... : ... .. . ... ...
ROW 31 : ... .. . ... ... ... : ... .. . ... ... ... : ... .. . ... : ... .. . ... : ... .. . ... ...
ROW 32 : ... .. . ... ... ... : ... .. . ... ... ... : ... .. . ... : ... .. . ... : ... .. . ... ...
ROW 33 : ... .. . ... ... ... : ... .. . ... ... ... : ... .. . ... : ... .. . ... : ... .. . ... ...
ROW 34 : ... .. . ... ... ... : ... .. . ... ... ... : ... .. . ... : ... .. . ... : ... .. . ... ...
ROW 35 : ... .. . ... ... ... : ... .. . ... ... ... : ... .. . ... : ... .. . ... : ... .. . ... ...
ROW 36 : ... .. . ... ... ... : ... .. . ... ... ... : ... .. . ... : ... .. . ... : ... .. . ... ...
ROW 37 : ... .. . ... ... ... : ... .. . ... ... ... : ... .. . ... : ... .. . ... : ... .. . ... ...
ROW 38 : ... .. . ... ... ... : ... .. . ... ... ... : ... .. . ... : ... .. . ... : ... .. . ... ...
ROW 39 : ... .. . ... ... ... : ... .. . ... ... ... : A#2 00 . ... : ... .. C ... : ... .. . ... ...
ROW 3A : ... .. . ... ... ... : ... .. . ... ... ... : ... .. . ... : ... .. 8 ... : ... .. . ... ...
ROW 3B : ... .. . ... ... ... : ... .. . ... ... ... : ... .. . ... : ... .. 4 ... : ... .. . ... ...
ROW 3C : ... .. . ... ... ... : ... .. . ... ... ... : ... .. . ... : ... .. 0 ... : ... .. . ... ...
ROW 3D : ... .. . ... ... ... : ... .. . ... ... ... : ... .. . ... : ... .. . ... : ... .. . ... ...
ROW 3E : ... .. . ... ... ... : ... .. . ... ... ... : ... .. . ... : ... .. . ... : ... .. . ... ...
ROW 3F : ... .. . ... ... ... : ... .. . ... ... ... : ... .. . ... : ... .. . ... : ... .. . ... ...
ROW 40 : ... .. . ... ... ... : ... .. . ... ... ... : --- .. . ... : ... .. . ... : ... .. . ... ...
ROW 41 : ... .. . ... ... ... : ... .. . ... ... ... : F-3 00 . ... : ... .. . ... : ... .. . ... ...
ROW 42 : ... .. . ... ... ... : ... .. . ... ... ... : ... .. . ... : ... .. . ... : ... .. . ... ...
ROW 43 : ... .. . ... ... ... : ... .. . ... ... ... : ... .. . ... : ... .. . ... : ... .. . ... ...
ROW 44 : ... .. . ... ... ... : ... .. . ... ... ... : ... .. . ... : ... .. . ... : ... .. . ... ...
ROW 45 : ... .. . ... ... ... : ... .. . ... ... ... : ... .. . ... : ... .. . ... : ... .. . ... ...
ROW 46 : ... .. . ... ... ... : ... .. . ... ... ... : ... .. . ... : ... .. . ... : ... .. . ... ...
ROW 47 : ... .. . ... ... ... : ... .. . ... ... ... : ... .. . ... : ... .. . ... : ... .. . ... ...
ROW 48 : ... .. . ... ... ... : ... .. . ... ... ... : --- .. . ... : ... .. . ... : ... .. . ... ...
ROW 49 : ... .. . ... ... ... : ... .. . ... ... ... : A#2 00 . ... : ... .. . ... : ... .. . ... ...
ROW 4A : ... .. . ... ... ... : ... .. . ... ... ... : ... .. . ... : ... .. . ... : ... .. . ... ...
ROW 4B : ... .. . ... ... ... : ... .. . ... ... ... : ... .. . ... : ... .. . ... : ... .. . ... ...
ROW 4C : ... .. . ... ... ... : ... .. . ... ... ... : ... .. . ... : ... .. . ... : ... .. . ... ...
ROW 4D : ... .. . ... ... ... : ... .. . ... ... ... : ... .. . ... : ... .. . ... : ... .. . ... ...
ROW 4E : ... .. . ... ... ... : ... .. . ... ... ... : ... .. . ... : ... .. . ... : ... .. . ... ...
ROW 4F : ... .. . ... ... ... : ... .. . ... ... ... : ... .. . ... : ... .. . ... : ... .. . ... ...
ROW 50 : ... .. . ... ... ... : ... .. . ... ... ... : --- .. . ... : ... .. . ... : ... .. . ... ...
ROW 51 : F-3 00 4 P80 ... ... : ... .. . ... ... ... : A#2 00 . ... : ... .. C ... : ... .. . ... ...
ROW 52 : ... .. 5 ... ... ... : ... .. . ... ... ... : ... .. . ... : ... .. 8 ... : ... .. . ... ...
ROW 53 : ... .. 6 ... ... ... : ... .. . ... ... ... : ... .. . ... : ... .. 4 ... : ... .. . ... ...
ROW 54 : ... .. 7 ... ... ... : ... .. . ... ... ... : ... .. . ... : ... .. 0 ... : ... .. . ... ...
ROW 55 : ... .. 8 ... ... ... : ... .. . ... ... ... : ... .. . ... : ... .. . ... : ... .. . ... ...
ROW 56 : ... .. 7 ... ... ... : ... .. . ... ... ... : ... .. . ... : ... .. . ... : ... .. . ... ...
ROW 57 : ... .. 6 ... ... ... : ... .. . ... ... ... : ... .. . ... : ... .. . ... : ... .. . ... ...
ROW 58 : ... .. 5 ... ... ... : ... .. . ... ... ... : ... .. . ... : ... .. . ... : ... .. . ... ...
ROW 59 : ... .. 4 ... ... ... : ... .. . ... ... ... : ... .. . ... : ... .. . ... : ... .. . ... ...
ROW 5A : ... .. . ... ... ... : ... .. . ... ... ... : ... .. . ... : ... .. . ... : ... .. . ... ...
ROW 5B : ... .. . ... ... ... : ... .. . ... ... ... : ... .. . ... : ... .. . ... : ... .. . ... ...
ROW 5C : ... .. . ... ... ... : ... .. . ... ... ... : ... .. . ... : ... .. . ... : ... .. . ... ...
ROW 5D : ... .. . ... ... ... : ... .. . ... ... ... : ... .. . ... : ... .. . ... : ... .. . ... ...
ROW 5E : ... .. . ... ... ... : ... .. . ... ... ... : ... .. . ... : ... .. . ... : ... .. . ... ...
ROW 5F : ... .. . ... ... ... : ... .. . ... ... ... : ... .. . ... : ... .. . ... : ... .. . ... ...
ROW 60 : ... .. . ... ... ... : ... .. . ... ... ... : --- .. . ... : ... .. . ... : ... .. . ... ...
ROW 61 : ... .. . ... ... ... : ... .. . ... ... ... : ... .. . ... : ... .. . ... : ... .. . ... ...
ROW 62 : ... .. . ... ... ... : ... .. . ... ... ... : ... .. . ... : ... .. . ... : ... .. . ... ...
ROW 63 : ... .. . ... ... ... : ... .. . ... ... ... : ... .. . ... : ... .. . ... : ... .. . ... ...
ROW 64 : ... .. . ... ... ... : ... .. . ... ... ... : ... .. . ... : ... .. . ... : ... .. . ... ...
ROW 65 : ... .. . ... ... ... : ... .. . ... ... ... : ... .. . ... : ... .. . ... : ... .. . ... ...
ROW 66 : ... .. . ... ... ... : ... .. . ... ... ... : ... .. . ... : ... .. . ... : ... .. . ... ...
ROW 67 : ... .. . ... ... ... : ... .. . ... ... ... : ... .. . ... : ... .. . ... : ... .. . ... ...
ROW 68 : ... .. . ... ... ... : ... .. . ... ... ... : ... .. . ... : ... .. . ... : ... .. . ... ...
ROW 69 : ... .. . ... ... ... : A-3 00 D P80 ... ... : A#2 00 . ... : ... .. C ... : ... .. . ... ...
ROW 6A : ... .. . ... ... ... : ... .. 9 ... ... ... : ... .. . ... : ... .. 8 ... : ... .. . ... ...
ROW 6B : ... .. . ... ... ... : ... .. 7 ... ... ... : ... .. . ... : ... .. 4 ... : ... .. . ... ...
ROW 6C : ... .. . ... ... ... : ... .. 6 ... ... ... : ... .. . ... : ... .. 0 ... : ... .. . ... ...
ROW 6D : ... .. . ... ... ... : ... .. 5 ... ... ... : ... .. . ... : ... .. . ... : ... .. . ... ...
ROW 6E : ... .. . ... ... ... : ... .. . ... ... ... : ... .. . ... : ... .. . ... : ... .. . ... ...
ROW 6F : ... .. . ... ... ... : A#3 00 D P81 ... ... : ... .. . ... : ... .. . ... : ... .. . ... ...
ROW 70 : ... .. . ... ... ... : ... .. 9 ... ... ... : --- .. . ... : ... .. . ... : ... .. . ... ...
ROW 71 : ... .. . ... ... ... : ... .. 7 ... ... ... : F-3 00 . ... : ... .. C ... : ... .. . ... ...
ROW 72 : ... .. . ... ... ... : ... .. 6 ... ... ... : ... .. . ... : ... .. 8 ... : ... .. . ... ...
ROW 73 : ... .. . ... ... ... : ... .. 5 ... ... ... : ... .. . ... : ... .. 4 ... : ... .. . ... ...
ROW 74 : ... .. . ... ... ... : ... .. . ... ... ... : ... .. . ... : ... .. 0 ... : ... .. . ... ...
ROW 75 : ... .. . ... ... ... : A-3 00 D P80 ... ... : ... .. . ... : ... .. . ... : ... .. . ... ...
ROW 76 : ... .. . ... ... ... : ... .. 9 ... ... ... : ... .. . ... : ... .. . ... : ... .. . ... ...
ROW 77 : ... .. . ... ... ... : ... .. 7 ... ... ... : ... .. . ... : ... .. . ... : ... .. . ... ...
ROW 78 : ... .. . ... ... ... : ... .. 6 ... ... ... : --- .. . ... : ... .. . ... : ... .. . ... ...
ROW 79 : ... .. . ... ... ... : ... .. 5 ... ... ... : A#2 00 . ... : ... .. C ... : ... .. . ... ...
ROW 7A : ... .. . ... ... ... : ... .. . ... ... ... : ... .. . ... : ... .. 8 ... : ... .. . ... ...
ROW 7B : ... .. . ... ... ... : F-3 00 D P80 ... ... : ... .. . ... : ... .. 4 ... : ... .. . ... ...
ROW 7C : ... .. . ... ... ... : ... .. 9 ... ... ... : ... .. . ... : ... .. 0 ... : ... .. . ... ...
ROW 7D : ... .. . ... ... ... : ... .. 7 ... ... ... : ... .. . ... : ... .. . ... : ... .. . ... ...
ROW 7E : ... .. . ... ... ... : ... .. 6 ... ... ... : ... .. . ... : ... .. . ... : ... .. . ... ...
ROW 7F : ... .. . ... ... ... : ... .. 5 ... ... ... : ... .. . ... : ... .. . ... : ... .. . ... ...

PATTERN 1E
ROW 00 : ... .. . ... ... ... : ... .. . ... ... ... : --- .. . ... : ... .. . ... : ... .. . ... ...
ROW 01 : B-2 00 4 P80 ... ... : G-3 00 D P80 ... ... : G-2 00 . ... : ... .. C ... : ... .. . ... ...
ROW 02 : ... .. 5 ... ... ... : ... .. 9 ... ... ... : ... .. . ... : ... .. 8 ... : ... .. . ... ...
ROW 03 : ... .. 6 ... ... ... : ... .. 7 ... ... ... : ... .. . ... : ... .. 4 ... : ... .. . ... ...
ROW 04 : ... .. 7 ... ... ... : ... .. 6 ... ... ... : ... .. . ... : ... .. 0 ... : ... .. . ... ...
ROW 05 : ... .. 8 ... ... ... : ... .. 5 ... ... ... : ... .. . ... : ... .. . ... : ... .. . ... ...
ROW 06 : ... .. 7 ... ... ... : ... .. . ... ... ... : ... .. . ... : ... .. . ... : ... .. . ... ...
ROW 07 : ... .. 6 ... ... ... : ... .. . ... ... ... : ... .. . ... : ... .. . ... : ... .. . ... ...
ROW 08 : ... .. 5 ... ... ... : ... .. 4 ... ... ... : ... .. . ... : ... .. . ... : ... .. . ... ...
ROW 09 : ... .. 4 ... ... ... : ... .. . ... ... ... : ... .. . ... : ... .. . ... : ... .. . ... ...
ROW 0A : ... .. . ... ... ... : ... .. . ... ... ... : ... .. . ... : ... .. . ... : ... .. . ... ...
ROW 0B : ... .. . ... ... ... : ... .. . ... ... ... : ... .. . ... : ... .. . ... : ... .. . ... ...
ROW 0C : ... .. . ... ... ... : ... .. . ... ... ... : ... .. . ... : ... .. . ... : ... .. . ... ...
ROW 0D : ... .. . ... ... ... : ... .. . ... ... ... : ... .. . ... : ... .. . ... : ... .. . ... ...
ROW 0E : ... .. . ... ... ... : ... .. . ... ... ... : ... .. . ... : ... .. . ... : ... .. . ... ...
ROW 0F : ... .. . ... ... ... : ... .. . ... ... ... : ... .. . ... : ... .. . ... : ... .. . ... ...
ROW 10 : ... .. . ... ... ... : ... .. . ... ... ... : --- .. . ... : ... .. . ... : ... .. . ... ...
ROW 11 : ... .. . ... ... ... : ... .. . ... ... ... : ... .. . ... : ... .. . ... : ... .. . ... ...
ROW 12 : ... .. . ... ... ... : ... .. . ... ... ... : ... .. . ... : ... .. . ... : ... .. . ... ...
ROW 13 : ... .. . ... ... ... : ... .. . ... ... ... : ... .. . ... : ... .. . ... : ... .. . ... ...
ROW 14 : ... .. . ... ... ... : ... .. . ... ... ... : ... .. . ... : ... .. . ... : ... .. . ... ...
ROW 15 : ... .. . ... ... ... : ... .. . ... ... ... : ... .. . ... : ... .. . ... : ... .. . ... ...
ROW 16 : ... .. . ... ... ... : ... .. . ... ... ... : ... .. . ... : ... .. . ... : ... .. . ... ...
ROW 17 : ... .. . ... ... ... : ... .. . ... ... ... : ... .. . ... : ... .. . ... : ... .. . ... ...
ROW 18 : ... .. . ... ... ... : ... .. . ... ... ... : ... .. . ... : ... .. . ... : ... .. . ... ...
ROW 19 : ... .. . ... ... ... : ... .. . ... ... ... : D-3 00 . ... : ... .. C ... : ... .. . ... ...
ROW 1A : ... .. . ... ... ... : ... .. . ... ... ... : ... .. . ... : ... .. 8 ... : ... .. . ... ...
ROW 1B : ... .. . ... ... ... : ... .. . ... ... ... : ... .. . ... : ... .. 4 ... : ... .. . ... ...
ROW 1C : ... .. . ... ... ... : ... .. . ... ... ... : ... .. . ... : ... .. 0 ... : ... .. . ... ...
ROW 1D : ... .. . ... ... ... : ... .. . ... ... ... : ... .. . ... : ... .. . ... : ... .. . ... ...
ROW 1E : ... .. . ... ... ... : ... .. . ... ... ... : ... .. . ... : ... .. . ... : ... .. . ... ...
ROW 1F : ... .. . ... ... ... : ... .. . ... ... ... : ... .. . ... : ... .. . ... : ... .. . ... ...
ROW 20 : ... .. . ... ... ... : ... .. . ... ... ... : --- .. . ... : ... .. . ... : ... .. . ... ...
ROW 21 : ... .. . ... ... ... : ... .. . ... ... ... : G-2 00 . ... : ... .. . ... : ... .. . ... ...
ROW 22 : ... .. . ... ... ... : ... .. . ... ... ... : ... .. . ... : ... .. . ... : ... .. . ... ...
ROW 23 : ... .. . ... ... ... : ... .. . ... ... ... : ... .. . ... : ... .. . ... : ... .. . ... ...
ROW 24 : ... .. . ... ... ... : ... .. . ... ... ... : ... .. . ... : ... .. . ... : ... .. . ... ...
ROW 25 : ... .. . ... ... ... : ... .. . ... ... ... : ... .. . ... : ... .. . ... : ... .. . ... ...
ROW 26 : ... .. . ... ... ... : ... .. . ... ... ... : ... .. . ... : ... .. . ... : ... .. . ... ...
ROW 27 : ... .. . ... ... ... : ... .. . ... ... ... : ... .. . ... : ... .. . ... : ... .. . ... ...
ROW 28 : ... .. . ... ... ... : ... .. . ... ... ... : --- .. . ... : ... .. . ... : ... .. . ... ...
ROW 29 : ... .. . ... ... ... : ... .. . ... ... ... : G-2 00 . ... : ... .. . ... : ... .. . ... ...
ROW 2A : ... .. . ... ... ... : ... .. . ... ... ... : ... .. . ... : ... .. . ... : ... .. . ... ...
ROW 2B : ... .. . ... ... ... : ... .. . ... ... ... : ... .. . ... : ... .. . ... : ... .. . ... ...
ROW 2C : ... .. . ... ... ... : ... .. . ... ... ... : ... .. . ... : ... .. . ... : ... .. . ... ...
ROW 2D : ... .. . ... ... ... : ... .. . ... ... ... : ... .. . ... : ... .. . ... : ... .. . ... ...
ROW 2E : ... .. . ... ... ... : ... .. . ... ... ... : ... .. . ... : ... .. . ... : ... .. . ... ...
ROW 2F : ... .. . ... ... ... : ... .. . ... ... ... : ... .. . ... : ... .. . ... : ... .. . ... ...
ROW 30 : ... .. . ... ... ... : ... .. . ... ... ... : --- .. . ... : ... .. . ... : ... .. . ... ...
ROW 31 : ... .. . ... ... ... : ... .. . ... ... ... : G-2 00 . ... : ... .. C ... : ... .. . ... ...
ROW 32 : ... .. . ... ... ... : ... .. . ... ... ... : ... .. . ... : ... .. 8 ... : ... .. . ... ...
ROW 33 : ... .. . ... ... ... : ... .. . ... ... ... : ... .. . ... : ... .. 4 ... : ... .. . ... ...
ROW 34 : ... .. . ... ... ... : ... .. . ... ... ... : ... .. . ... : ... .. 0 ... : ... .. . ... ...
ROW 35 : ... .. . ... ... ... : ... .. . ... ... ... : ... .. . ... : ... .. . ... : ... .. . ... ...
ROW 36 : ... .. . ... ... ... : ... .. . ... ... ... : ... .. . ... : ... .. . ... : ... .. . ... ...
ROW 37 : ... .. . ... ... ... : ... .. . ... ... ... : ... .. . ... : ... .. . ... : ... .. . ... ...
ROW 38 : ... .. . ... ... ... : ... .. . ... ... ... : ... .. . ... : ... .. . ... : ... .. . ... ...
ROW 39 : ... .. . ... ... ... : ... .. . ... ... ... : ... .. . ... : ... .. . ... : ... .. . ... ...
ROW 3A : ... .. . ... ... ... : ... .. . ... ... ... : ... .. . ... : ... .. . ... : ... .. . ... ...
ROW 3B : ... .. . ... ... ... : ... .. . ... ... ... : ... .. . ... : ... .. . ... : ... .. . ... ...
ROW 3C : ... .. . ... ... ... : ... .. . ... ... ... : ... .. . ... : ... .. . ... : ... .. . ... ...
ROW 3D : ... .. . ... ... ... : ... .. . ... ... ... : ... .. . ... : ... .. . ... : ... .. . ... ...
ROW 3E : ... .. . ... ... ... : ... .. . ... ... ... : ... .. . ... : ... .. . ... : ... .. . ... ...
ROW 3F : ... .. . ... ... ... : ... .. . ... ... ... : ... .. . ... : ... .. . ... : ... .. . ... ...
ROW 40 : ... .. . ... ... ... : ... .. . ... ... ... : --- .. . ... : ... .. . ... : ... .. . ... ...
ROW 41 : ... .. . ... ... ... : ... .. . ... ... ... : ... .. . ... : ... .. . ... : ... .. . ... ...
ROW 42 : ... .. . ... ... ... : ... .. . ... ... ... : ... .. . ... : ... .. . ... : ... .. . ... ...
ROW 43 : ... .. . ... ... ... : ... .. . ... ... ... : ... .. . ... : ... .. . ... : ... .. . ... ...
ROW 44 : ... .. . ... ... ... : ... .. . ... ... ... : ... .. . ... : ... .. . ... : ... .. . ... ...
ROW 45 : ... .. . ... ... ... : ... .. . ... ... ... : ... .. . ... : ... .. . ... : ... .. . ... ...
ROW 46 : ... .. . ... ... ... : ... .. . ... ... ... : ... .. . ... : ... .. . ... : ... .. . ... ...
ROW 47 : ... .. . ... ... ... : ... .. . ... ... ... : ... .. . ... : ... .. . ... : ... .. . ... ...
ROW 48 : ... .. . ... ... ... : ... .. . ... ... ... : ... .. . ... : ... .. . ... : ... .. . ... ...
ROW 49 : ... .. . ... ... ... : ... .. . ... ... ... : D-3 00 . ... : ... .. C ... : ... .. . ... ...
ROW 4A : ... .. . ... ... ... : ... .. . ... ... ... : ... .. . ... : ... .. 8 ... : ... .. . ... ...
ROW 4B : ... .. . ... ... ... : ... .. . ... ... ... : ... .. . ... : ... .. 4 ... : ... .. . ... ...
ROW 4C : ... .. . ... ... ... : ... .. . ... ... ... : ... .. . ... : ... .. 0 ... : ... .. . ... ...
ROW 4D : ... .. . ... ... ... : ... .. . ... ... ... : ... .. . ... : ... .. . ... : ... .. . ... ...
ROW 4E : ... .. . ... ... ... : ... .. . ... ... ... : ... .. . ... : ... .. . ... : ... .. . ... ...
ROW 4F : ... .. . ... ... ... : ... .. . ... ... ... : ... .. . ... : ... .. . ... : ... .. . ... ...
ROW 50 : ... .. . ... ... ... : ... .. . ... ... ... : --- .. . ... : ... .. . ... : ... .. . ... ...
ROW 51 : ... .. . ... ... ... : ... .. . ... ... ... : G-2 00 . ... : ... .. C ... : ... .. . ... ...
ROW 52 : ... .. . ... ... ... : ... .. . ... ... ... : ... .. . ... : ... .. 8 ... : ... .. . ... ...
ROW 53 : ... .. . ... ... ... : ... .. . ... ... ... : ... .. . ... : ... .. 4 ... : ... .. . ... ...
ROW 54 : ... .. . ... ... ... : ... .. . ... ... ... : ... .. . ... : ... .. 0 ... : ... .. . ... ...
ROW 55 : ... .. . ... ... ... : ... .. . ... ... ... : ... .. . ... : ... .. . ... : ... .. . ... ...
ROW 56 : ... .. . ... ... ... : ... .. . ... ... ... : ... .. . ... : ... .. . ... : ... .. . ... ...
ROW 57 : ... .. . ... ... ... : ... .. . ... ... ... : ... .. . ... : ... .. . ... : ... .. . ... ...
ROW 58 : ... .. . ... ... ... : ... .. . ... ... ... : --- .. . ... : ... .. . ... : ... .. . ... ...
ROW 59 : ... .. . ... ... ... : ... .. . ... ... ... : G-2 00 . ... : ... .. C ... : ... .. . ... ...
ROW 5A : ... .. . ... ... ... : ... .. . ... ... ... : ... .. . ... : ... .. 8 ... : ... .. . ... ...
ROW 5B : ... .. . ... ... ... : ... .. . ... ... ... : ... .. . ... : ... .. 4 ... : ... .. . ... ...
ROW 5C : ... .. . ... ... ... : ... .. . ... ... ... : ... .. . ... : ... .. 0 ... : ... .. . ... ...
ROW 5D : ... .. . ... ... ... : ... .. . ... ... ... : ... .. . ... : ... .. . ... : ... .. . ... ...
ROW 5E : ... .. . ... ... ... : ... .. . ... ... ... : ... .. . ... : ... .. . ... : ... .. . ... ...
ROW 5F : ... .. . ... ... ... : ... .. . ... ... ... : ... .. . ... : ... .. . ... : ... .. . ... ...
ROW 60 : ... .. . ... ... ... : ... .. . ... ... ... : --- .. . ... : ... .. . ... : ... .. . ... ...
ROW 61 : C-3 00 4 P80 ... ... : G-3 00 D P80 ... ... : G-2 00 . ... : ... .. C ... : ... .. . ... ...
ROW 62 : ... .. 5 ... ... ... : ... .. 9 ... ... ... : ... .. . ... : ... .. 8 ... : ... .. . ... ...
ROW 63 : ... .. 6 ... ... ... : ... .. 7 ... ... ... : ... .. . ... : ... .. 4 ... : ... .. . ... ...
ROW 64 : ... .. 7 ... ... ... : ... .. 6 ... ... ... : ... .. . ... : ... .. 0 ... : ... .. . ... ...
ROW 65 : ... .. 8 ... ... ... : ... .. 5 ... ... ... : ... .. . ... : ... .. . ... : ... .. . ... ...
ROW 66 : ... .. 7 ... ... ... : ... .. . ... ... ... : ... .. . ... : ... .. . ... : ... .. . ... ...
ROW 67 : ... .. 6 ... ... ... : ... .. . ... ... ... : ... .. . ... : ... .. . ... : ... .. . ... ...
ROW 68 : ... .. 5 ... ... ... : ... .. 4 ... ... ... : ... .. . ... : ... .. . ... : ... .. . ... ...
ROW 69 : ... .. 4 ... ... ... : ... .. . ... ... ... : ... .. . ... : ... .. . ... : ... .. . ... ...
ROW 6A : ... .. . ... ... ... : ... .. . ... ... ... : ... .. . ... : ... .. . ... : ... .. . ... ...
ROW 6B : ... .. . ... ... ... : ... .. . ... ... ... : ... .. . ... : ... .. . ... : ... .. . ... ...
ROW 6C : ... .. . ... ... ... : ... .. . ... ... ... : ... .. . ... : ... .. . ... : ... .. . ... ...
ROW 6D : ... .. . ... ... ... : ... .. . ... ... ... : ... .. . ... : ... .. . ... : ... .. . ... ...
ROW 6E : ... .. . ... ... ... : ... .. . ... ... ... : ... .. . ... : ... .. . ... : ... .. . ... ...
ROW 6F : ... .. . ... ... ... : ... .. . ... ... ... : ... .. . ... : ... .. . ... : ... .. . ... ...
ROW 70 : ... .. . ... ... ... : ... .. . ... ... ... : --- .. . ... : ... .. . ... : ... .. . ... ...
ROW 71 : ... .. . ... ... ... : ... .. . ... ... ... : ... .. . ... : ... .. . ... : ... .. . ... ...
ROW 72 : ... .. . ... ... ... : ... .. . ... ... ... : ... .. . ... : ... .. . ... : ... .. . ... ...
ROW 73 : ... .. . ... ... ... : ... .. . ... ... ... : ... .. . ... : ... .. . ... : ... .. . ... ...
ROW 74 : ... .. . ... ... ... : ... .. . ... ... ... : ... .. . ... : ... .. . ... : ... .. . ... ...
ROW 75 : ... .. . ... ... ... : ... .. . ... ... ... : ... .. . ... : ... .. . ... : ... .. . ... ...
ROW 76 : ... .. . ... ... ... : ... .. . ... ... ... : ... .. . ... : ... .. . ... : ... .. . ... ...
ROW 77 : ... .. . ... ... ... : ... .. . ... ... ... : ... .. . ... : ... .. . ... : ... .. . ... ...
ROW 78 : ... .. . ... ... ... : ... .. . ... ... ... : ... .. . ... : ... .. . ... : ... .. . ... ...
ROW 79 : ... .. . ... ... ... : ... .. . ... ... ... : D-3 00 . ... : ... .. C ... : ... .. . ... ...
ROW 7A : ... .. . ... ... ... : ... .. . ... ... ... : ... .. . ... : ... .. 8 ... : ... .. . ... ...
ROW 7B : ... .. . ... ... ... : ... .. . ... ... ... : ... .. . ... : ... .. 4 ... : ... .. . ... ...
ROW 7C : ... .. . ... ... ... : ... .. . ... ... ... : ... .. . ... : ... .. 0 ... : ... .. . ... ...
ROW 7D : ... .. . ... ... ... : ... .. . ... ... ... : ... .. . ... : ... .. . ... : ... .. . ... ...
ROW 7E : ... .. . ... ... ... : ... .. . ... ... ... : ... .. . ... : ... .. . ... : ... .. . ... ...
ROW 7F : ... .. . ... ... ... : ... .. . ... ... ... : ... .. . ... : ... .. . ... : ... .. . ... ...

PATTERN 1F
ROW 00 : ... .. . ... ... ... : ... .. . ... ... ... : --- .. . ... : ... .. . ... : ... .. . ... ...
ROW 01 : ... .. . ... ... ... : ... .. . ... ... ... : G-2 00 . ... : ... .. . ... : ... .. . ... ...
ROW 02 : ... .. . ... ... ... : ... .. . ... ... ... : ... .. . ... : ... .. . ... : ... .. . ... ...
ROW 03 : ... .. . ... ... ... : ... .. . ... ... ... : ... .. . ... : ... .. . ... : ... .. . ... ...
ROW 04 : ... .. . ... ... ... : ... .. . ... ... ... : ... .. . ... : ... .. . ... : ... .. . ... ...
ROW 05 : ... .. . ... ... ... : ... .. . ... ... ... : ... .. . ... : ... .. . ... : ... .. . ... ...
ROW 06 : ... .. . ... ... ... : ... .. . ... ... ... : ... .. . ... : ... .. . ... : ... .. . ... ...
ROW 07 : ... .. . ... ... ... : ... .. . ... ... ... : ... .. . ... : ... .. . ... : ... .. . ... ...
ROW 08 : ... .. . ... ... ... : ... .. . ... ... ... : --- .. . ... : ... .. . ... : ... .. . ... ...
ROW 09 : ... .. . ... ... ... : ... .. . ... ... ... : G-2 00 . ... : ... .. . ... : ... .. . ... ...
ROW 0A : ... .. . ... ... ... : ... .. . ... ... ... : ... .. . ... : ... .. . ... : ... .. . ... ...
ROW 0B : ... .. . ... ... ... : ... .. . ... ... ... : ... .. . ... : ... .. . ... : ... .. . ... ...
ROW 0C : ... .. . ... ... ... : ... .. . ... ... ... : ... .. . ... : ... .. . ... : ... .. . ... ...
ROW 0D : ... .. . ... ... ... : ... .. . ... ... ... : ... .. . ... : ... .. . ... : ... .. . ... ...
ROW 0E : ... .. . ... ... ... : ... .. . ... ... ... : ... .. . ... : ... .. . ... : ... .. . ... ...
ROW 0F : ... .. . ... ... ... : ... .. . ... ... ... : ... .. . ... : ... .. . ... : ... .. . ... ...
ROW 10 : ... .. . ... ... ... : ... .. . ... ... ... : --- .. . ... : ... .. . ... : ... .. . ... ...
ROW 11 : D-3 00 4 P80 ... ... : ... .. . ... ... ... : G-2 00 . ... : ... .. C ... : ... .. . ... ...
ROW 12 : ... .. 5 ... ... ... : ... .. . ... ... ... : ... .. . ... : ... .. 8 ... : ... .. . ... ...
ROW 13 : ... .. 6 ... ... ... : ... .. . ... ... ... : ... .. . ... : ... .. 4 ... : ... .. . ... ...
ROW 14 : ... .. 7 ... ... ... : ... .. . ... ... ... : ... .. . ... : ... .. 0 ... : ... .. . ... ...
ROW 15 : ... .. 8 ... ... ... : ... .. . ... ... ... : ... .. . ... : ... .. . ... : ... .. . ... ...
ROW 16 : ... .. 7 ... ... ... : ... .. . ... ... ... : ... .. . ... : ... .. . ... : ... .. . ... ...
ROW 17 : ... .. 6 ... ... ... : ... .. . ... ... ... : ... .. . ... : ... .. . ... : ... .. . ... ...
ROW 18 : ... .. 5 ... ... ... : ... .. . ... ... ... : ... .. . ... : ... .. . ... : ... .. . ... ...
ROW 19 : ... .. 4 ... ... ... : ... .. . ... ... ... : ... .. . ... : ... .. . ... : ... .. . ... ...
ROW 1A : ... .. . ... ... ... : ... .. . ... ... ... : ... .. . ... : ... .. . ... : ... .. . ... ...
ROW 1B : ... .. . ... ... ... : ... .. . ... ... ... : ... .. . ... : ... .. . ... : ... .. . ... ...
ROW 1C : ... .. . ... ... ... : ... .. . ... ... ... : ... .. . ... : ... .. . ... : ... .. . ... ...
ROW 1D : ... .. . ... ... ... : ... .. . ... ... ... : ... .. . ... : ... .. . ... : ... .. . ... ...
ROW 1E : ... .. . ... ... ... : ... .. . ... ... ... : ... .. . ... : ... .. . ... : ... .. . ... ...
ROW 1F : ... .. . ... ... ... : ... .. . ... ... ... : ... .. . ... : ... .. . ... : ... .. . ... ...
ROW 20 : ... .. . ... ... ... : ... .. . ... ... ... : --- .. . ... : ... .. . ... : ... .. . ... ...
ROW 21 : ... .. . ... ... ... : ... .. . ... ... ... : ... .. . ... : ... .. . ... : ... .. . ... ...
ROW 22 : ... .. . ... ... ... : ... .. . ... ... ... : ... .. . ... : ... .. . ... : ... .. . ... ...
ROW 23 : ... .. . ... ... ... : ... .. . ... ... ... : ... .. . ... : ... .. . ... : ... .. . ... ...
ROW 24 : ... .. . ... ... ... : ... .. . ... ... ... : ... .. . ... : ... .. . ... : ... .. . ... ...
ROW 25 : ... .. . ... ... ... : ... .. . ... ... ... : ... .. . ... : ... .. . ... : ... .. . ... ...
ROW 26 : ... .. . ... ... ... : ... .. . ... ... ... : ... .. . ... : ... .. . ... : ... .. . ... ...
ROW 27 : ... .. . ... ... ... : ... .. . ... ... ... : ... .. . ... : ... .. . ... : ... .. . ... ...
ROW 28 : ... .. . ... ... ... : ... .. . ... ... ... : ... .. . ... : ... .. . ... : ... .. . ... ...
ROW 29 : ... .. . ... ... ... : ... .. . ... ... ... : D-3 00 . ... : ... .. C ... : ... .. . ... ...
ROW 2A : ... .. . ... ... ... : ... .. . ... ... ... : ... .. . ... : ... .. 8 ... : ... .. . ... ...
ROW 2B : ... .. . ... ... ... : ... .. . ... ... ... : ... .. . ... : ... .. 4 ... : ... .. . ... ...
ROW 2C : ... .. . ... ... ... : ... .. . ... ... ... : ... .. . ... : ... .. 0 ... : ... .. . ... ...
ROW 2D : ... .. . ... ... ... : ... .. . ... ... ... : ... .. . ... : ... .. . ... : ... .. . ... ...
ROW 2E : ... .. . ... ... ... : ... .. . ... ... ... : ... .. . ... : ... .. . ... : ... .. . ... ...
ROW 2F : ... .. . ... ... ... : ... .. . ... ... ... : ... .. . ... : ... .. . ... : ... .. . ... ...
ROW 30 : ... .. . ... ... ... : ... .. . ... ... ... : --- .. . ... : ... .. . ... : ... .. . ... ...
ROW 31 : ... .. . ... ... ... : ... .. . ... ... ... : G-2 00 . ... : ... .. C ... : ... .. . ... ...
ROW 32 : ... .. . ... ... ... : ... .. . ... ... ... : ... .. . ... : ... .. 8 ... : ... .. . ... ...
ROW 33 : ... .. . ... ... ... : ... .. . ... ... ... : ... .. . ... : ... .. 4 ... : ... .. . ... ...
ROW 34 : ... .. . ... ... ... : ... .. . ... ... ... : ... .. . ... : ... .. 0 ... : ... .. . ... ...
ROW 35 : ... .. . ... ... ... : ... .. . ... ... ... : ... .. . ... : ... .. . ... : ... .. . ... ...
ROW 36 : ... .. . ... ... ... : ... .. . ... ... ... : ... .. . ... : ... .. . ... : ... .. . ... ...
ROW 37 : ... .. . ... ... ... : ... .. . ... ... ... : ... .. . ... : ... .. . ... : ... .. . ... ...
ROW 38 : ... .. . ... ... ... : ... .. . ... ... ... : --- .. . ... : ... .. . ... : ... .. . ... ...
ROW 39 : ... .. . ... ... ... : ... .. . ... ... ... : G-2 00 . ... : ... .. C ... : ... .. . ... ...
ROW 3A : ... .. . ... ... ... : ... .. . ... ... ... : ... .. . ... : ... .. 8 ... : ... .. . ... ...
ROW 3B : ... .. . ... ... ... : ... .. . ... ... ... : ... .. . ... : ... .. 4 ... : ... .. . ... ...
ROW 3C : ... .. . ... ... ... : ... .. . ... ... ... : ... .. . ... : ... .. 0 ... : ... .. . ... ...
ROW 3D : ... .. . ... ... ... : ... .. . ... ... ... : ... .. . ... : ... .. . ... : ... .. . ... ...
ROW 3E : ... .. . ... ... ... : ... .. . ... ... ... : ... .. . ... : ... .. . ... : ... .. . ... ...
ROW 3F : ... .. . ... ... ... : ... .. . ... ... ... : ... .. . ... : ... .. . ... : ... .. . ... ...
ROW 40 : ... .. . ... ... ... : ... .. . ... ... ... : --- .. . ... : ... .. . ... : ... .. . ... ...
ROW 41 : E-3 00 4 P80 ... ... : C-4 00 D P81 ... ... : C-2 00 . P7F : ... .. C ... : ... .. . ... ...
ROW 42 : ... .. 5 ... ... ... : ... .. 9 ... ... ... : ... .. . ... : ... .. 8 ... : ... .. . ... ...
ROW 43 : ... .. 6 ... ... ... : ... .. 7 ... ... ... : ... .. . ... : ... .. 4 ... : ... .. . ... ...
ROW 44 : ... .. 7 ... ... ... : ... .. 6 ... ... ... : ... .. . ... : ... .. 0 ... : ... .. . ... ...
ROW 45 : ... .. 8 ... ... ... : ... .. 5 ... ... ... : ... .. . ... : ... .. . ... : ... .. . ... ...
ROW 46 : ... .. 7 ... ... ... : ... .. . ... ... ... : ... .. . ... : ... .. . ... : ... .. . ... ...
ROW 47 : ... .. 6 ... ... ... : ... .. . ... ... ... : ... .. . ... : ... .. . ... : ... .. . ... ...
ROW 48 : ... .. 5 ... ... ... : ... .. 4 ... ... ... : --- .. . ... : ... .. . ... : ... .. . ... ...
ROW 49 : ... .. 4 ... ... ... : ... .. . ... ... ... : G-2 00 . P80 : ... .. . ... : ... .. . ... ...
ROW 4A : ... .. . ... ... ... : ... .. . ... ... ... : ... .. . ... : ... .. . ... : ... .. . ... ...
ROW 4B : ... .. . ... ... ... : ... .. . ... ... ... : ... .. . ... : ... .. . ... : ... .. . ... ...
ROW 4C : ... .. . ... ... ... : ... .. . ... ... ... : ... .. . ... : ... .. . ... : ... .. . ... ...
ROW 4D : ... .. . ... ... ... : ... .. . ... ... ... : ... .. . ... : ... .. . ... : ... .. . ... ...
ROW 4E : ... .. . ... ... ... : ... .. . ... ... ... : ... .. . ... : ... .. . ... : ... .. . ... ...
ROW 4F : ... .. . ... ... ... : ... .. . ... ... ... : ... .. . ... : ... .. . ... : ... .. . ... ...
ROW 50 : ... .. . ... ... ... : ... .. . ... ... ... : --- .. . ... : ... .. . ... : ... .. . ... ...
ROW 51 : ... .. . ... ... ... : ... .. . ... ... ... : C-2 00 . P7F : ... .. . ... : ... .. . ... ...
ROW 52 : ... .. . ... ... ... : ... .. . ... ... ... : ... .. . ... : ... .. . ... : ... .. . ... ...
ROW 53 : ... .. . ... ... ... : ... .. . ... ... ... : ... .. . ... : ... .. . ... : ... .. . ... ...
ROW 54 : ... .. . ... ... ... : ... .. . ... ... ... : ... .. . ... : ... .. . ... : ... .. . ... ...
ROW 55 : ... .. . ... ... ... : ... .. . ... ... ... : ... .. . ... : ... .. . ... : ... .. . ... ...
ROW 56 : ... .. . ... ... ... : ... .. . ... ... ... : ... .. . ... : ... .. . ... : ... .. . ... ...
ROW 57 : ... .. . ... ... ... : ... .. . ... ... ... : ... .. . ... : ... .. . ... : ... .. . ... ...
ROW 58 : ... .. . ... ... ... : ... .. . ... ... ... : --- .. . ... : ... .. . ... : ... .. . ... ...
ROW 59 : ... .. . ... ... ... : ... .. . ... ... ... : C-2 00 . ... : ... .. C ... : ... .. . ... ...
ROW 5A : ... .. . ... ... ... : ... .. . ... ... ... : ... .. . ... : ... .. 8 ... : ... .. . ... ...
ROW 5B : ... .. . ... ... ... : ... .. . ... ... ... : ... .. . ... : ... .. 4 ... : ... .. . ... ...
ROW 5C : ... .. . ... ... ... : ... .. . ... ... ... : ... .. . ... : ... .. 0 ... : ... .. . ... ...
ROW 5D : ... .. . ... ... ... : ... .. . ... ... ... : ... .. . ... : ... .. . ... : ... .. . ... ...
ROW 5E : ... .. . ... ... ... : ... .. . ... ... ... : ... .. . ... : ... .. . ... : ... .. . ... ...
ROW 5F : ... .. . ... ... ... : ... .. . ... ... ... : ... .. . ... : ... .. . ... : ... .. . ... ...
ROW 60 : ... .. . ... ... ... : ... .. . ... ... ... : ... .. . ... : ... .. . ... : ... .. . ... ...
ROW 61 : ... .. . ... ... ... : ... .. . ... ... ... : ... .. . ... : ... .. . ... : ... .. . ... ...
ROW 62 : ... .. . ... ... ... : ... .. . ... ... ... : ... .. . ... : ... .. . ... : ... .. . ... ...
ROW 63 : ... .. . ... ... ... : ... .. . ... ... ... : ... .. . ... : ... .. . ... : ... .. . ... ...
ROW 64 : ... .. . ... ... ... : ... .. . ... ... ... : ... .. . ... : ... .. . ... : ... .. . ... ...
ROW 65 : ... .. . ... ... ... : ... .. . ... ... ... : ... .. . ... : ... .. . ... : ... .. . ... ...
ROW 66 : ... .. . ... ... ... : ... .. . ... ... ... : ... .. . ... : ... .. . ... : ... .. . ... ...
ROW 67 : ... .. . ... ... ... : ... .. . ... ... ... : ... .. . ... : ... .. . ... : ... .. . ... ...
ROW 68 : ... .. . ... ... ... : ... .. . ... ... ... : --- .. . ... : ... .. . ... : ... .. . ... ...
ROW 69 : ... .. . ... ... ... : ... .. . ... ... ... : ... .. . ... : ... .. . ... : ... .. . ... ...
ROW 6A : ... .. . ... ... ... : ... .. . ... ... ... : ... .. . ... : ... .. . ... : ... .. . ... ...
ROW 6B : ... .. . ... ... ... : ... .. . ... ... ... : ... .. . ... : ... .. . ... : ... .. . ... ...
ROW 6C : ... .. . ... ... ... : ... .. . ... ... ... : ... .. . ... : ... .. . ... : ... .. . ... ...
ROW 6D : ... .. . ... ... ... : ... .. . ... ... ... : ... .. . ... : ... .. . ... : ... .. . ... ...
ROW 6E : ... .. . ... ... ... : ... .. . ... ... ... : ... .. . ... : ... .. . ... : ... .. . ... ...
ROW 6F : ... .. . ... ... ... : ... .. . ... ... ... : ... .. . ... : ... .. . ... : ... .. . ... ...
ROW 70 : ... .. . ... ... ... : ... .. . ... ... ... : ... .. . ... : ... .. . ... : ... .. . ... ...
ROW 71 : ... .. . ... ... ... : ... .. . ... ... ... : C-2 00 . ... : ... .. C ... : ... .. . ... ...
ROW 72 : ... .. . ... ... ... : ... .. . ... ... ... : ... .. . ... : ... .. 8 ... : ... .. . ... ...
ROW 73 : ... .. . ... ... ... : ... .. . ... ... ... : ... .. . ... : ... .. 4 ... : ... .. . ... ...
ROW 74 : ... .. . ... ... ... : ... .. . ... ... ... : ... .. . ... : ... .. 0 ... : ... .. . ... ...
ROW 75 : ... .. . ... ... ... : ... .. . ... ... ... : ... .. . ... : ... .. . ... : ... .. . ... ...
ROW 76 : ... .. . ... ... ... : ... .. . ... ... ... : ... .. . ... : ... .. . ... : ... .. . ... ...
ROW 77 : ... .. . ... ... ... : ... .. . ... ... ... : ... .. . ... : ... .. . ... : ... .. . ... ...
ROW 78 : ... .. . ... ... ... : ... .. . ... ... ... : --- .. . ... : ... .. . ... : ... .. . ... ...
ROW 79 : ... .. . ... ... ... : ... .. . ... ... ... : G-2 00 . P80 : ... .. . ... : ... .. . ... ...
ROW 7A : ... .. . ... ... ... : ... .. . ... ... ... : ... .. . ... : ... .. . ... : ... .. . ... ...
ROW 7B : ... .. . ... ... ... : ... .. . ... ... ... : ... .. . ... : ... .. . ... : ... .. . ... ...
ROW 7C : ... .. . ... ... ... : ... .. . ... ... ... : ... .. . ... : ... .. . ... : ... .. . ... ...
ROW 7D : ... .. . ... ... ... : ... .. . ... ... ... : ... .. . ... : ... .. . ... : ... .. . ... ...
ROW 7E : ... .. . ... ... ... : ... .. . ... ... ... : ... .. . ... : ... .. . ... : ... .. . ... ...
ROW 7F : ... .. . ... ... ... : ... .. . ... ... ... : ... .. . ... : ... .. . ... : ... .. . ... ...

PATTERN 20
ROW 00 : ... .. . ... ... ... : ... .. . ... ... ... : --- .. . ... : ... .. . ... : ... .. . ... ...
ROW 01 : ... .. . ... ... ... : ... .. . ... ... ... : C-2 00 . P7F : ... .. . ... : ... .. . ... ...
ROW 02 : ... .. . ... ... ... : ... .. . ... ... ... : ... .. . ... : ... .. . ... : ... .. . ... ...
ROW 03 : ... .. . ... ... ... : ... .. . ... ... ... : ... .. . ... : ... .. . ... : ... .. . ... ...
ROW 04 : ... .. . ... ... ... : ... .. . ... ... ... : ... .. . ... : ... .. . ... : ... .. . ... ...
ROW 05 : ... .. . ... ... ... : ... .. . ... ... ... : ... .. . ... : ... .. . ... : ... .. . ... ...
ROW 06 : ... .. . ... ... ... : ... .. . ... ... ... : ... .. . ... : ... .. . ... : ... .. . ... ...
ROW 07 : ... .. . ... ... ... : ... .. . ... ... ... : ... .. . ... : ... .. . ... : ... .. . ... ...
ROW 08 : ... .. . ... ... ... : ... .. . ... ... ... : --- .. . ... : ... .. . ... : ... .. . ... ...
ROW 09 : C-3 00 4 P80 ... ... : G-3 00 D P80 ... ... : C-2 00 . ... : ... .. C ... : ... .. . ... ...
ROW 0A : ... .. 5 ... ... ... : ... .. 9 ... ... ... : ... .. . ... : ... .. 8 ... : ... .. . ... ...
ROW 0B : ... .. 6 ... ... ... : ... .. 7 ... ... ... : ... .. . ... : ... .. 4 ... : ... .. . ... ...
ROW 0C : ... .. 7 ... ... ... : ... .. 6 ... ... ... : ... .. . ... : ... .. 0 ... : ... .. . ... ...
ROW 0D : ... .. 8 ... ... ... : ... .. 5 ... ... ... : ... .. . ... : ... .. . ... : ... .. . ... ...
ROW 0E : ... .. 7 ... ... ... : ... .. . ... ... ... : ... .. . ... : ... .. . ... : ... .. . ... ...
ROW 0F : ... .. 6 ... ... ... : ... .. . ... ... ... : ... .. . ... : ... .. . ... : ... .. . ... ...
ROW 10 : ... .. 5 ... ... ... : ... .. 4 ... ... ... : ... .. . ... : ... .. . ... : ... .. . ... ...
ROW 11 : G-2 00 4 P80 ... ... : ... .. . ... ... ... : ... .. . ... : ... .. C ... : ... .. . ... ...
ROW 12 : ... .. 5 ... ... ... : ... .. . ... ... ... : ... .. . ... : ... .. 8 ... : ... .. . ... ...
ROW 13 : ... .. 6 ... ... ... : ... .. . ... ... ... : ... .. . ... : ... .. 4 ... : ... .. . ... ...
ROW 14 : ... .. 7 ... ... ... : ... .. . ... ... ... : ... .. . ... : ... .. 0 ... : ... .. . ... ...
ROW 15 : ... .. 8 ... ... ... : ... .. . ... ... ... : ... .. . ... : ... .. . ... : ... .. . ... ...
ROW 16 : ... .. 7 ... ... ... : ... .. . ... ... ... : ... .. . ... : ... .. . ... : ... .. . ... ...
ROW 17 : ... .. 6 ... ... ... : ... .. . ... ... ... : ... .. . ... : ... .. . ... : ... .. . ... ...
ROW 18 : ... .. 5 ... ... ... : ... .. . ... ... ... : --- .. . ... : ... .. . ... : ... .. . ... ...
ROW 19 : C-3 00 4 P80 ... ... : ... .. . ... ... ... : ... .. . ... : ... .. C ... : ... .. . ... ...
ROW 1A : ... .. 5 ... ... ... : ... .. . ... ... ... : ... .. . ... : ... .. 8 ... : ... .. . ... ...
ROW 1B : ... .. 6 ... ... ... : ... .. . ... ... ... : ... .. . ... : ... .. 4 ... : ... .. . ... ...
ROW 1C : ... .. 7 ... ... ... : ... .. . ... ... ... : ... .. . ... : ... .. 0 ... : ... .. . ... ...
ROW 1D : ... .. 8 ... ... ... : ... .. . ... ... ... : ... .. . ... : ... .. . ... : ... .. . ... ...
ROW 1E : ... .. 7 ... ... ... : ... .. . ... ... ... : ... .. . ... : ... .. . ... : ... .. . ... ...
ROW 1F : ... .. 6 ... ... ... : ... .. . ... ... ... : ... .. . ... : ... .. . ... : ... .. . ... ...
ROW 20 : ... .. 5 ... ... ... : ... .. . ... ... ... : ... .. . ... : ... .. . ... : ... .. . ... ...
ROW 21 : F-3 00 4 P80 ... ... : A#3 00 D P81 ... ... : C-2 00 . ... : ... .. C ... : ... .. . ... ...
ROW 22 : ... .. 5 ... ... ... : ... .. 9 ... ... ... : ... .. . ... : ... .. 8 ... : ... .. . ... ...
ROW 23 : ... .. 6 ... ... ... : ... .. 7 ... ... ... : ... .. . ... : ... .. 4 ... : ... .. . ... ...
ROW 24 : ... .. 7 ... ... ... : ... .. 6 ... ... ... : ... .. . ... : ... .. 0 ... : ... .. . ... ...
ROW 25 : ... .. 8 ... ... ... : ... .. 5 ... ... ... : ... .. . ... : ... .. . ... : ... .. . ... ...
ROW 26 : ... .. 7 ... ... ... : ... .. . ... ... ... : ... .. . ... : ... .. . ... : ... .. . ... ...
ROW 27 : ... .. 6 ... ... ... : ... .. . ... ... ... : ... .. . ... : ... .. . ... : ... .. . ... ...
ROW 28 : ... .. 5 ... ... ... : ... .. 4 ... ... ... : --- .. . ... : ... .. . ... : ... .. . ... ...
ROW 29 : ... .. 4 ... ... ... : ... .. . ... ... ... : G-2 00 . P80 : ... .. . ... : ... .. . ... ...
ROW 2A : ... .. . ... ... ... : ... .. . ... ... ... : ... .. . ... : ... .. . ... : ... .. . ... ...
ROW 2B : ... .. . ... ... ... : ... .. . ... ... ... : ... .. . ... : ... .. . ... : ... .. . ... ...
ROW 2C : ... .. . ... ... ... : ... .. . ... ... ... : ... .. . ... : ... .. . ... : ... .. . ... ...
ROW 2D : ... .. . ... ... ... : ... .. . ... ... ... : ... .. . ... : ... .. . ... : ... .. . ... ...
ROW 2E : ... .. . ... ... ... : ... .. . ... ... ... : ... .. . ... : ... .. . ... : ... .. . ... ...
ROW 2F : ... .. . ... ... ... : ... .. . ... ... ... : ... .. . ... : ... .. . ... : ... .. . ... ...
ROW 30 : ... .. . ... ... ... : ... .. . ... ... ... : --- .. . ... : ... .. . ... : ... .. . ... ...
ROW 31 : ... .. . ... ... ... : ... .. . ... ... ... : C-2 00 . P7F : ... .. . ... : ... .. . ... ...
ROW 32 : ... .. . ... ... ... : ... .. . ... ... ... : ... .. . ... : ... .. . ... : ... .. . ... ...
ROW 33 : ... .. . ... ... ... : ... .. . ... ... ... : ... .. . ... : ... .. . ... : ... .. . ... ...
ROW 34 : ... .. . ... ... ... : ... .. . ... ... ... : ... .. . ... : ... .. . ... : ... .. . ... ...
ROW 35 : ... .. . ... ... ... : ... .. . ... ... ... : ... .. . ... : ... .. . ... : ... .. . ... ...
ROW 36 : ... .. . ... ... ... : ... .. . ... ... ... : ... .. . ... : ... .. . ... : ... .. . ... ...
ROW 37 : ... .. . ... ... ... : ... .. . ... ... ... : ... .. . ... : ... .. . ... : ... .. . ... ...
ROW 38 : ... .. . ... ... ... : ... .. . ... ... ... : --- .. . ... : ... .. . ... : ... .. . ... ...
ROW 39 : ... .. . ... ... ... : ... .. . ... ... ... : C-2 00 . ... : ... .. C ... : ... .. . ... ...
ROW 3A : ... .. . ... ... ... : ... .. . ... ... ... : ... .. . ... : ... .. 8 ... : ... .. . ... ...
ROW 3B : ... .. . ... ... ... : ... .. . ... ... ... : ... .. . ... : ... .. 4 ... : ... .. . ... ...
ROW 3C : ... .. . ... ... ... : ... .. . ... ... ... : ... .. . ... : ... .. 0 ... : ... .. . ... ...
ROW 3D : ... .. . ... ... ... : ... .. . ... ... ... : ... .. . ... : ... .. . ... : ... .. . ... ...
ROW 3E : ... .. . ... ... ... : ... .. . ... ... ... : ... .. . ... : ... .. . ... : ... .. . ... ...
ROW 3F : ... .. . ... ... ... : ... .. . ... ... ... : ... .. . ... : ... .. . ... : ... .. . ... ...
ROW 40 : ... .. . ... ... ... : ... .. . ... ... ... : ... .. . ... : ... .. . ... : ... .. . ... ...
ROW 41 : ... .. . ... ... ... : ... .. . ... ... ... : ... .. . ... : ... .. . ... : ... .. . ... ...
ROW 42 : ... .. . ... ... ... : ... .. . ... ... ... : ... .. . ... : ... .. . ... : ... .. . ... ...
ROW 43 : ... .. . ... ... ... : ... .. . ... ... ... : ... .. . ... : ... .. . ... : ... .. . ... ...
ROW 44 : ... .. . ... ... ... : ... .. . ... ... ... : ... .. . ... : ... .. . ... : ... .. . ... ...
ROW 45 : ... .. . ... ... ... : ... .. . ... ... ... : ... .. . ... : ... .. . ... : ... .. . ... ...
ROW 46 : ... .. . ... ... ... : ... .. . ... ... ... : ... .. . ... : ... .. . ... : ... .. . ... ...
ROW 47 : ... .. . ... ... ... : ... .. . ... ... ... : ... .. . ... : ... .. . ... : ... .. . ... ...
ROW 48 : ... .. . ... ... ... : ... .. . ... ... ... : --- .. . ... : ... .. . ... : ... .. . ... ...
ROW 49 : ... .. . ... ... ... : ... .. . ... ... ... : ... .. . ... : ... .. . ... : ... .. . ... ...
ROW 4A : ... .. . ... ... ... : ... .. . ... ... ... : ... .. . ... : ... .. . ... : ... .. . ... ...
ROW 4B : ... .. . ... ... ... : ... .. . ... ... ... : ... .. . ... : ... .. . ... : ... .. . ... ...
ROW 4C : ... .. . ... ... ... : ... .. . ... ... ... : ... .. . ... : ... .. . ... : ... .. . ... ...
ROW 4D : ... .. . ... ... ... : ... .. . ... ... ... : ... .. . ... : ... .. . ... : ... .. . ... ...
ROW 4E : ... .. . ... ... ... : ... .. . ... ... ... : ... .. . ... : ... .. . ... : ... .. . ... ...
ROW 4F : ... .. . ... ... ... : ... .. . ... ... ... : ... .. . ... : ... .. . ... : ... .. . ... ...
ROW 50 : ... .. . ... ... ... : ... .. . ... ... ... : ... .. . ... : ... .. . ... : ... .. . ... ...
ROW 51 : D-3 00 4 P80 ... ... : ... .. . ... ... ... : C-2 00 . ... : ... .. C ... : ... .. . ... ...
ROW 52 : ... .. 5 ... ... ... : ... .. . ... ... ... : ... .. . ... : ... .. 8 ... : ... .. . ... ...
ROW 53 : ... .. 6 ... ... ... : ... .. . ... ... ... : ... .. . ... : ... .. 4 ... : ... .. . ... ...
ROW 54 : ... .. 7 ... ... ... : ... .. . ... ... ... : ... .. . ... : ... .. 0 ... : ... .. . ... ...
ROW 55 : ... .. 8 ... ... ... : ... .. . ... ... ... : ... .. . ... : ... .. . ... : ... .. . ... ...
ROW 56 : ... .. 7 ... ... ... : ... .. . ... ... ... : ... .. . ... : ... .. . ... : ... .. . ... ...
ROW 57 : ... .. 6 ... ... ... : ... .. . ... ... ... : ... .. . ... : ... .. . ... : ... .. . ... ...
ROW 58 : ... .. 5 ... ... ... : ... .. . ... ... ... : --- .. . ... : ... .. . ... : ... .. . ... ...
ROW 59 : ... .. 4 ... ... ... : ... .. . ... ... ... : G-2 00 . P80 : ... .. . ... : ... .. . ... ...
ROW 5A : ... .. . ... ... ... : ... .. . ... ... ... : ... .. . ... : ... .. . ... : ... .. . ... ...
ROW 5B : ... .. . ... ... ... : ... .. . ... ... ... : ... .. . ... : ... .. . ... : ... .. . ... ...
ROW 5C : ... .. . ... ... ... : ... .. . ... ... ... : ... .. . ... : ... .. . ... : ... .. . ... ...
ROW 5D : ... .. . ... ... ... : ... .. . ... ... ... : ... .. . ... : ... .. . ... : ... .. . ... ...
ROW 5E : ... .. . ... ... ... : ... .. . ... ... ... : ... .. . ... : ... .. . ... : ... .. . ... ...
ROW 5F : ... .. . ... ... ... : ... .. . ... ... ... : ... .. . ... : ... .. . ... : ... .. . ... ...
ROW 60 : ... .. . ... ... ... : ... .. . ... ... ... : --- .. . ... : ... .. . ... : ... .. . ... ...
ROW 61 : ... .. . ... ... ... : ... .. . ... ... ... : C-2 00 . P7F : ... .. . ... : ... .. . ... ...
ROW 62 : ... .. . ... ... ... : ... .. . ... ... ... : ... .. . ... : ... .. . ... : ... .. . ... ...
ROW 63 : ... .. . ... ... ... : ... .. . ... ... ... : ... .. . ... : ... .. . ... : ... .. . ... ...
ROW 64 : ... .. . ... ... ... : ... .. . ... ... ... : ... .. . ... : ... .. . ... : ... .. . ... ...
ROW 65 : ... .. . ... ... ... : ... .. . ... ... ... : ... .. . ... : ... .. . ... : ... .. . ... ...
ROW 66 : ... .. . ... ... ... : ... .. . ... ... ... : ... .. . ... : ... .. . ... : ... .. . ... ...
ROW 67 : ... .. . ... ... ... : ... .. . ... ... ... : ... .. . ... : ... .. . ... : ... .. . ... ...
ROW 68 : ... .. . ... ... ... : ... .. . ... ... ... : --- .. . ... : ... .. . ... : ... .. . ... ...
ROW 69 : ... .. . ... ... ... : A-3 00 D P80 ... ... : C-2 00 . ... : ... .. C ... : ... .. . ... ...
ROW 6A : ... .. . ... ... ... : ... .. 9 ... ... ... : ... .. . ... : ... .. 8 ... : ... .. . ... ...
ROW 6B : ... .. . ... ... ... : ... .. 7 ... ... ... : ... .. . ... : ... .. 4 ... : ... .. . ... ...
ROW 6C : ... .. . ... ... ... : ... .. 6 ... ... ... : ... .. . ... : ... .. 0 ... : ... .. . ... ...
ROW 6D : ... .. . ... ... ... : ... .. 5 ... ... ... : ... .. . ... : ... .. . ... : ... .. . ... ...
ROW 6E : ... .. . ... ... ... : ... .. . ... ... ... : ... .. . ... : ... .. . ... : ... .. . ... ...
ROW 6F : ... .. . ... ... ... : A#3 00 D P81 ... ... : ... .. . ... : ... .. . ... : ... .. . ... ...
ROW 70 : ... .. . ... ... ... : ... .. 9 ... ... ... : ... .. . ... : ... .. . ... : ... .. . ... ...
ROW 71 : ... .. . ... ... ... : ... .. 7 ... ... ... : ... .. . ... : ... .. C ... : ... .. . ... ...
ROW 72 : ... .. . ... ... ... : ... .. 6 ... ... ... : ... .. . ... : ... .. 8 ... : ... .. . ... ...
ROW 73 : ... .. . ... ... ... : ... .. 5 ... ... ... : ... .. . ... : ... .. 4 ... : ... .. . ... ...
ROW 74 : ... .. . ... ... ... : ... .. . ... ... ... : ... .. . ... : ... .. 0 ... : ... .. . ... ...
ROW 75 : ... .. . ... ... ... : A-3 00 D P80 ... ... : ... .. . ... : ... .. . ... : ... .. . ... ...
ROW 76 : ... .. . ... ... ... : ... .. 9 ... ... ... : ... .. . ... : ... .. . ... : ... .. . ... ...
ROW 77 : ... .. . ... ... ... : ... .. 7 ... ... ... : ... .. . ... : ... .. . ... : ... .. . ... ...
ROW 78 : ... .. . ... ... ... : ... .. 6 ... ... ... : --- .. . ... : ... .. . ... : ... .. . ... ...
ROW 79 : ... .. . ... ... ... : ... .. 5 ... ... ... : ... .. . ... : ... .. C ... : ... .. . ... ...
ROW 7A : ... .. . ... ... ... : ... .. . ... ... ... : ... .. . ... : ... .. 8 ... : ... .. . ... ...
ROW 7B : ... .. . ... ... ... : F-3 00 D P80 ... ... : ... .. . ... : ... .. 4 ... : ... .. . ... ...
ROW 7C : ... .. . ... ... ... : ... .. 9 ... ... ... : ... .. . ... : ... .. 0 ... : ... .. . ... ...
ROW 7D : ... .. . ... ... ... : ... .. 7 ... ... ... : ... .. . ... : ... .. . ... : ... .. . ... ...
ROW 7E : ... .. . ... ... ... : ... .. 6 ... ... ... : ... .. . ... : ... .. . ... : ... .. . ... ...
ROW 7F : ... .. . ... ... ... : ... .. 5 ... ... ... : ... .. . ... : ... .. . ... : ... .. . ... ...

PATTERN 21
ROW 00 : ... .. . ... ... ... : ... .. . ... ... ... : ... .. . ... : ... .. . ... : ... .. . ... ...
ROW 01 : E-3 00 4 P80 ... ... : C-4 00 D P81 ... ... : C-2 00 . ... : ... .. C ... : ... .. . ... ...
ROW 02 : ... .. 5 ... ... ... : ... .. 9 ... ... ... : ... .. . ... : ... .. 8 ... : ... .. . ... ...
ROW 03 : ... .. 6 ... ... ... : ... .. 7 ... ... ... : ... .. . ... : ... .. 4 ... : ... .. . ... ...
ROW 04 : ... .. 7 ... ... ... : ... .. 6 ... ... ... : ... .. . ... : ... .. 0 ... : ... .. . ... ...
ROW 05 : ... .. 8 ... ... ... : ... .. 5 ... ... ... : ... .. . ... : ... .. . ... : ... .. . ... ...
ROW 06 : ... .. 7 ... ... ... : ... .. . ... ... ... : ... .. . ... : ... .. . ... : ... .. . ... ...
ROW 07 : ... .. 6 ... ... ... : ... .. . ... ... ... : ... .. . ... : ... .. . ... : ... .. . ... ...
ROW 08 : ... .. 5 ... ... ... : ... .. 4 ... ... ... : --- .. . ... : ... .. . ... : ... .. . ... ...
ROW 09 : ... .. 4 ... ... ... : ... .. . ... ... ... : G-2 00 . P80 : ... .. . ... : ... .. . ... ...
ROW 0A : ... .. . ... ... ... : ... .. . ... ... ... : ... .. . ... : ... .. . ... : ... .. . ... ...
ROW 0B : ... .. . ... ... ... : ... .. . ... ... ... : ... .. . ... : ... .. . ... : ... .. . ... ...
ROW 0C : ... .. . ... ... ... : ... .. . ... ... ... : ... .. . ... : ... .. . ... : ... .. . ... ...
ROW 0D : ... .. . ... ... ... : ... .. . ... ... ... : ... .. . ... : ... .. . ... : ... .. . ... ...
ROW 0E : ... .. . ... ... ... : ... .. . ... ... ... : ... .. . ... : ... .. . ... : ... .. . ... ...
ROW 0F : ... .. . ... ... ... : ... .. . ... ... ... : ... .. . ... : ... .. . ... : ... .. . ... ...
ROW 10 : ... .. . ... ... ... : ... .. . ... ... ... : --- .. . ... : ... .. . ... : ... .. . ... ...
ROW 11 : ... .. . ... ... ... : ... .. . ... ... ... : C-2 00 . P7F : ... .. . ... : ... .. . ... ...
ROW 12 : ... .. . ... ... ... : ... .. . ... ... ... : ... .. . ... : ... .. . ... : ... .. . ... ...
ROW 13 : ... .. . ... ... ... : ... .. . ... ... ... : ... .. . ... : ... .. . ... : ... .. . ... ...
ROW 14 : ... .. . ... ... ... : ... .. . ... ... ... : ... .. . ... : ... .. . ... : ... .. . ... ...
ROW 15 : ... .. . ... ... ... : ... .. . ... ... ... : ... .. . ... : ... .. . ... : ... .. . ... ...
ROW 16 : ... .. . ... ... ... : ... .. . ... ... ... : ... .. . ... : ... .. . ... : ... .. . ... ...
ROW 17 : ... .. . ... ... ... : ... .. . ... ... ... : ... .. . ... : ... .. . ... : ... .. . ... ...
ROW 18 : ... .. . ... ... ... : ... .. . ... ... ... : --- .. . ... : ... .. . ... : ... .. . ... ...
ROW 19 : ... .. . ... ... ... : ... .. . ... ... ... : C-2 00 . ... : ... .. C ... : ... .. . ... ...
ROW 1A : ... .. . ... ... ... : ... .. . ... ... ... : ... .. . ... : ... .. 8 ... : ... .. . ... ...
ROW 1B : ... .. . ... ... ... : ... .. . ... ... ... : ... .. . ... : ... .. 4 ... : ... .. . ... ...
ROW 1C : ... .. . ... ... ... : ... .. . ... ... ... : ... .. . ... : ... .. 0 ... : ... .. . ... ...
ROW 1D : ... .. . ... ... ... : ... .. . ... ... ... : ... .. . ... : ... .. . ... : ... .. . ... ...
ROW 1E : ... .. . ... ... ... : ... .. . ... ... ... : ... .. . ... : ... .. . ... : ... .. . ... ...
ROW 1F : ... .. . ... ... ... : ... .. . ... ... ... : ... .. . ... : ... .. . ... : ... .. . ... ...
ROW 20 : ... .. . ... ... ... : ... .. . ... ... ... : ... .. . ... : ... .. . ... : ... .. . ... ...
ROW 21 : ... .. . ... ... ... : ... .. . ... ... ... : ... .. . ... : ... .. . ... : ... .. . ... ...
ROW 22 : ... .. . ... ... ... : ... .. . ... ... ... : ... .. . ... : ... .. . ... : ... .. . ... ...
ROW 23 : ... .. . ... ... ... : ... .. . ... ... ... : ... .. . ... : ... .. . ... : ... .. . ... ...
ROW 24 : ... .. . ... ... ... : ... .. . ... ... ... : ... .. . ... : ... .. . ... : ... .. . ... ...
ROW 25 : ... .. . ... ... ... : ... .. . ... ... ... : ... .. . ... : ... .. . ... : ... .. . ... ...
ROW 26 : ... .. . ... ... ... : ... .. . ... ... ... : ... .. . ... : ... .. . ... : ... .. . ... ...
ROW 27 : ... .. . ... ... ... : ... .. . ... ... ... : ... .. . ... : ... .. . ... : ... .. . ... ...
ROW 28 : ... .. . ... ... ... : ... .. . ... ... ... : --- .. . ... : ... .. . ... : ... .. . ... ...
ROW 29 : ... .. . ... ... ... : ... .. . ... ... ... : ... .. . ... : ... .. . ... : ... .. . ... ...
ROW 2A : ... .. . ... ... ... : ... .. . ... ... ... : ... .. . ... : ... .. . ... : ... .. . ... ...
ROW 2B : ... .. . ... ... ... : ... .. . ... ... ... : ... .. . ... : ... .. . ... : ... .. . ... ...
ROW 2C : ... .. . ... ... ... : ... .. . ... ... ... : ... .. . ... : ... .. . ... : ... .. . ... ...
ROW 2D : ... .. . ... ... ... : ... .. . ... ... ... : ... .. . ... : ... .. . ... : ... .. . ... ...
ROW 2E : ... .. . ... ... ... : ... .. . ... ... ... : ... .. . ... : ... .. . ... : ... .. . ... ...
ROW 2F : ... .. . ... ... ... : ... .. . ... ... ... : ... .. . ... : ... .. . ... : ... .. . ... ...
ROW 30 : ... .. . ... ... ... : ... .. . ... ... ... : ... .. . ... : ... .. . ... : ... .. . ... ...
ROW 31 : ... .. . ... ... ... : ... .. . ... ... ... : C-2 00 . ... : ... .. C ... : ... .. . ... ...
ROW 32 : ... .. . ... ... ... : ... .. . ... ... ... : ... .. . ... : ... .. 8 ... : ... .. . ... ...
ROW 33 : ... .. . ... ... ... : ... .. . ... ... ... : ... .. . ... : ... .. 4 ... : ... .. . ... ...
ROW 34 : ... .. . ... ... ... : ... .. . ... ... ... : ... .. . ... : ... .. 0 ... : ... .. . ... ...
ROW 35 : ... .. . ... ... ... : ... .. . ... ... ... : ... .. . ... : ... .. . ... : ... .. . ... ...
ROW 36 : ... .. . ... ... ... : ... .. . ... ... ... : ... .. . ... : ... .. . ... : ... .. . ... ...
ROW 37 : ... .. . ... ... ... : ... .. . ... ... ... : ... .. . ... : ... .. . ... : ... .. . ... ...
ROW 38 : ... .. . ... ... ... : ... .. . ... ... ... : --- .. . ... : ... .. . ... : ... .. . ... ...
ROW 39 : ... .. . ... ... ... : ... .. . ... ... ... : G-2 00 . P80 : ... .. . ... : ... .. . ... ...
ROW 3A : ... .. . ... ... ... : ... .. . ... ... ... : ... .. . ... : ... .. . ... : ... .. . ... ...
ROW 3B : ... .. . ... ... ... : ... .. . ... ... ... : ... .. . ... : ... .. . ... : ... .. . ... ...
ROW 3C : ... .. . ... ... ... : ... .. . ... ... ... : ... .. . ... : ... .. . ... : ... .. . ... ...
ROW 3D : ... .. . ... ... ... : ... .. . ... ... ... : ... .. . ... : ... .. . ... : ... .. . ... ...
ROW 3E : ... .. . ... ... ... : ... .. . ... ... ... : ... .. . ... : ... .. . ... : ... .. . ... ...
ROW 3F : ... .. . ... ... ... : ... .. . ... ... ... : ... .. . ... : ... .. . ... : ... .. . ... ...
ROW 40 : ... .. . ... ... ... : ... .. . ... ... ... : --- .. . ... : ... .. . ... : ... .. . ... ...
ROW 41 : ... .. . ... ... ... : ... .. . ... ... ... : C-2 00 . P7F : ... .. . ... : ... .. . ... ...
ROW 42 : ... .. . ... ... ... : ... .. . ... ... ... : ... .. . ... : ... .. . ... : ... .. . ... ...
ROW 43 : ... .. . ... ... ... : ... .. . ... ... ... : ... .. . ... : ... .. . ... : ... .. . ... ...
ROW 44 : ... .. . ... ... ... : ... .. . ... ... ... : ... .. . ... : ... .. . ... : ... .. . ... ...
ROW 45 : ... .. . ... ... ... : ... .. . ... ... ... : ... .. . ... : ... .. . ... : ... .. . ... ...
ROW 46 : ... .. . ... ... ... : ... .. . ... ... ... : ... .. . ... : ... .. . ... : ... .. . ... ...
ROW 47 : ... .. . ... ... ... : ... .. . ... ... ... : ... .. . ... : ... .. . ... : ... .. . ... ...
ROW 48 : ... .. . ... ... ... : ... .. . ... ... ... : --- .. . ... : ... .. . ... : ... .. . ... ...
ROW 49 : C-3 00 4 P80 ... ... : G-3 00 D P80 ... ... : C-2 00 . ... : ... .. C ... : ... .. . ... ...
ROW 4A : ... .. 5 ... ... ... : ... .. 9 ... ... ... : ... .. . ... : ... .. 8 ... : ... .. . ... ...
ROW 4B : ... .. 6 ... ... ... : ... .. 7 ... ... ... : ... .. . ... : ... .. 4 ... : ... .. . ... ...
ROW 4C : ... .. 7 ... ... ... : ... .. 6 ... ... ... : ... .. . ... : ... .. 0 ... : ... .. . ... ...
ROW 4D : ... .. 8 ... ... ... : ... .. 5 ... ... ... : ... .. . ... : ... .. . ... : ... .. . ... ...
ROW 4E : ... .. 7 ... ... ... : ... .. . ... ... ... : ... .. . ... : ... .. . ... : ... .. . ... ...
ROW 4F : ... .. 6 ... ... ... : ... .. . ... ... ... : ... .. . ... : ... .. . ... : ... .. . ... ...
ROW 50 : ... .. 5 ... ... ... : ... .. 4 ... ... ... : ... .. . ... : ... .. . ... : ... .. . ... ...
ROW 51 : G-2 00 4 P80 ... ... : ... .. . ... ... ... : ... .. . ... : ... .. C ... : ... .. . ... ...
ROW 52 : ... .. 5 ... ... ... : ... .. . ... ... ... : ... .. . ... : ... .. 8 ... : ... .. . ... ...
ROW 53 : ... .. 6 ... ... ... : ... .. . ... ... ... : ... .. . ... : ... .. 4 ... : ... .. . ... ...
ROW 54 : ... .. 7 ... ... ... : ... .. . ... ... ... : ... .. . ... : ... .. 0 ... : ... .. . ... ...
ROW 55 : ... .. 8 ... ... ... : ... .. . ... ... ... : ... .. . ... : ... .. . ... : ... .. . ... ...
ROW 56 : ... .. 7 ... ... ... : ... .. . ... ... ... : ... .. . ... : ... .. . ... : ... .. . ... ...
ROW 57 : ... .. 6 ... ... ... : ... .. . ... ... ... : ... .. . ... : ... .. . ... : ... .. . ... ...
ROW 58 : ... .. 5 ... ... ... : ... .. . ... ... ... : --- .. . ... : ... .. . ... : ... .. . ... ...
ROW 59 : C-3 00 4 P80 ... ... : ... .. . ... ... ... : ... .. . ... : ... .. C ... : ... .. . ... ...
ROW 5A : ... .. 5 ... ... ... : ... .. . ... ... ... : ... .. . ... : ... .. 8 ... : ... .. . ... ...
ROW 5B : ... .. 6 ... ... ... : ... .. . ... ... ... : ... .. . ... : ... .. 4 ... : ... .. . ... ...
ROW 5C : ... .. 7 ... ... ... : ... .. . ... ... ... : ... .. . ... : ... .. 0 ... : ... .. . ... ...
ROW 5D : ... .. 8 ... ... ... : ... .. . ... ... ... : ... .. . ... : ... .. . ... : ... .. . ... ...
ROW 5E : ... .. 7 ... ... ... : ... .. . ... ... ... : ... .. . ... : ... .. . ... : ... .. . ... ...
ROW 5F : ... .. 6 ... ... ... : ... .. . ... ... ... : ... .. . ... : ... .. . ... : ... .. . ... ...
ROW 60 : ... .. 5 ... ... ... : ... .. . ... ... ... : ... .. . ... : ... .. . ... : ... .. . ... ...
ROW 61 : F-3 00 4 P80 ... ... : A#3 00 D P81 ... ... : C-2 00 . ... : ... .. C ... : ... .. . ... ...
ROW 62 : ... .. 5 ... ... ... : ... .. 9 ... ... ... : ... .. . ... : ... .. 8 ... : ... .. . ... ...
ROW 63 : ... .. 6 ... ... ... : ... .. 7 ... ... ... : ... .. . ... : ... .. 4 ... : ... .. . ... ...
ROW 64 : ... .. 7 ... ... ... : ... .. 6 ... ... ... : ... .. . ... : ... .. 0 ... : ... .. . ... ...
ROW 65 : ... .. 8 ... ... ... : ... .. 5 ... ... ... : ... .. . ... : ... .. . ... : ... .. . ... ...
ROW 66 : ... .. 7 ... ... ... : ... .. . ... ... ... : ... .. . ... : ... .. . ... : ... .. . ... ...
ROW 67 : ... .. 6 ... ... ... : ... .. . ... ... ... : ... .. . ... : ... .. . ... : ... .. . ... ...
ROW 68 : ... .. 5 ... ... ... : ... .. 4 ... ... ... : --- .. . ... : ... .. . ... : ... .. . ... ...
ROW 69 : ... .. 4 ... ... ... : ... .. . ... ... ... : G-2 00 . P80 : ... .. . ... : ... .. . ... ...
ROW 6A : ... .. . ... ... ... : ... .. . ... ... ... : ... .. . ... : ... .. . ... : ... .. . ... ...
ROW 6B : ... .. . ... ... ... : ... .. . ... ... ... : ... .. . ... : ... .. . ... : ... .. . ... ...
ROW 6C : ... .. . ... ... ... : ... .. . ... ... ... : ... .. . ... : ... .. . ... : ... .. . ... ...
ROW 6D : ... .. . ... ... ... : ... .. . ... ... ... : ... .. . ... : ... .. . ... : ... .. . ... ...
ROW 6E : ... .. . ... ... ... : ... .. . ... ... ... : ... .. . ... : ... .. . ... : ... .. . ... ...
ROW 6F : ... .. . ... ... ... : ... .. . ... ... ... : ... .. . ... : ... .. . ... : ... .. . ... ...
ROW 70 : ... .. . ... ... ... : ... .. . ... ... ... : --- .. . ... : ... .. . ... : ... .. . ... ...
ROW 71 : ... .. . ... ... ... : ... .. . ... ... ... : C-2 00 . P7F : ... .. . ... : ... .. . ... ...
ROW 72 : ... .. . ... ... ... : ... .. . ... ... ... : ... .. . ... : ... .. . ... : ... .. . ... ...
ROW 73 : ... .. . ... ... ... : ... .. . ... ... ... : ... .. . ... : ... .. . ... : ... .. . ... ...
ROW 74 : ... .. . ... ... ... : ... .. . ... ... ... : ... .. . ... : ... .. . ... : ... .. . ... ...
ROW 75 : ... .. . ... ... ... : ... .. . ... ... ... : ... .. . ... : ... .. . ... : ... .. . ... ...
ROW 76 : ... .. . ... ... ... : ... .. . ... ... ... : ... .. . ... : ... .. . ... : ... .. . ... ...
ROW 77 : ... .. . ... ... ... : ... .. . ... ... ... : ... .. . ... : ... .. . ... : ... .. . ... ...
ROW 78 : ... .. . ... ... ... : ... .. . ... ... ... : --- .. . ... : ... .. . ... : ... .. . ... ...
ROW 79 : ... .. . ... ... ... : ... .. . ... ... ... : C-2 00 . ... : ... .. C ... : ... .. . ... ...
ROW 7A : ... .. . ... ... ... : ... .. . ... ... ... : ... .. . ... : ... .. 8 ... : ... .. . ... ...
ROW 7B : ... .. . ... ... ... : ... .. . ... ... ... : ... .. . ... : ... .. 4 ... : ... .. . ... ...
ROW 7C : ... .. . ... ... ... : ... .. . ... ... ... : ... .. . ... : ... .. 0 ... : ... .. . ... ...
ROW 7D : ... .. . ... ... ... : ... .. . ... ... ... : ... .. . ... : ... .. . ... : ... .. . ... ...
ROW 7E : ... .. . ... ... ... : ... .. . ... ... ... : ... .. . ... : ... .. . ... : ... .. . ... ...
ROW 7F : ... .. . ... ... ... : ... .. . ... ... ... : ... .. . ... : ... .. . ... : ... .. . ... ...

PATTERN 22
ROW 00 : ... .. . ... ... ... : ... .. . ... ... ... : ... .. . ... : ... .. . ... : ... .. . ... ...
ROW 01 : ... .. . ... ... ... : ... .. . ... ... ... : ... .. . ... : ... .. . ... : ... .. . ... ...
ROW 02 : ... .. . ... ... ... : ... .. . ... ... ... : ... .. . ... : ... .. . ... : ... .. . ... ...
ROW 03 : ... .. . ... ... ... : ... .. . ... ... ... : ... .. . ... : ... .. . ... : ... .. . ... ...
ROW 04 : ... .. . ... ... ... : ... .. . ... ... ... : ... .. . ... : ... .. . ... : ... .. . ... ...
ROW 05 : ... .. . ... ... ... : ... .. . ... ... ... : ... .. . ... : ... .. . ... : ... .. . ... ...
ROW 06 : ... .. . ... ... ... : ... .. . ... ... ... : ... .. . ... : ... .. . ... : ... .. . ... ...
ROW 07 : ... .. . ... ... ... : ... .. . ... ... ... : ... .. . ... : ... .. . ... : ... .. . ... ...
ROW 08 : ... .. . ... ... ... : ... .. . ... ... ... : --- .. . ... : ... .. . ... : ... .. . ... ...
ROW 09 : ... .. . ... ... ... : ... .. . ... ... ... : ... .. . ... : ... .. . ... : ... .. . ... ...
ROW 0A : ... .. . ... ... ... : ... .. . ... ... ... : ... .. . ... : ... .. . ... : ... .. . ... ...
ROW 0B : ... .. . ... ... ... : ... .. . ... ... ... : ... .. . ... : ... .. . ... : ... .. . ... ...
ROW 0C : ... .. . ... ... ... : ... .. . ... ... ... : ... .. . ... : ... .. . ... : ... .. . ... ...
ROW 0D : ... .. . ... ... ... : ... .. . ... ... ... : ... .. . ... : ... .. . ... : ... .. . ... ...
ROW 0E : ... .. . ... ... ... : ... .. . ... ... ... : ... .. . ... : ... .. . ... : ... .. . ... ...
ROW 0F : ... .. . ... ... ... : ... .. . ... ... ... : ... .. . ... : ... .. . ... : ... .. . ... ...
ROW 10 : ... .. . ... ... ... : ... .. . ... ... ... : ... .. . ... : ... .. . ... : ... .. . ... ...
ROW 11 : D-3 00 4 P80 ... ... : ... .. . ... ... ... : C-2 00 . ... : ... .. C ... : ... .. . ... ...
ROW 12 : ... .. 5 ... ... ... : ... .. . ... ... ... : ... .. . ... : ... .. 8 ... : ... .. . ... ...
ROW 13 : ... .. 6 ... ... ... : ... .. . ... ... ... : ... .. . ... : ... .. 4 ... : ... .. . ... ...
ROW 14 : ... .. 7 ... ... ... : ... .. . ... ... ... : ... .. . ... : ... .. 0 ... : ... .. . ... ...
ROW 15 : ... .. 8 ... ... ... : ... .. . ... ... ... : ... .. . ... : ... .. . ... : ... .. . ... ...
ROW 16 : ... .. 7 ... ... ... : ... .. . ... ... ... : ... .. . ... : ... .. . ... : ... .. . ... ...
ROW 17 : ... .. 6 ... ... ... : ... .. . ... ... ... : ... .. . ... : ... .. . ... : ... .. . ... ...
ROW 18 : ... .. 5 ... ... ... : ... .. . ... ... ... : --- .. . ... : ... .. . ... : ... .. . ... ...
ROW 19 : ... .. 4 ... ... ... : ... .. . ... ... ... : G-2 00 . P80 : ... .. . ... : ... .. . ... ...
ROW 1A : ... .. . ... ... ... : ... .. . ... ... ... : ... .. . ... : ... .. . ... : ... .. . ... ...
ROW 1B : ... .. . ... ... ... : ... .. . ... ... ... : ... .. . ... : ... .. . ... : ... .. . ... ...
ROW 1C : ... .. . ... ... ... : ... .. . ... ... ... : ... .. . ... : ... .. . ... : ... .. . ... ...
ROW 1D : ... .. . ... ... ... : ... .. . ... ... ... : ... .. . ... : ... .. . ... : ... .. . ... ...
ROW 1E : ... .. . ... ... ... : ... .. . ... ... ... : ... .. . ... : ... .. . ... : ... .. . ... ...
ROW 1F : ... .. . ... ... ... : ... .. . ... ... ... : ... .. . ... : ... .. . ... : ... .. . ... ...
ROW 20 : ... .. . ... ... ... : ... .. . ... ... ... : --- .. . ... : ... .. . ... : ... .. . ... ...
ROW 21 : ... .. . ... ... ... : ... .. . ... ... ... : C-2 00 . P7F : ... .. . ... : ... .. . ... ...
ROW 22 : ... .. . ... ... ... : ... .. . ... ... ... : ... .. . ... : ... .. . ... : ... .. . ... ...
ROW 23 : ... .. . ... ... ... : ... .. . ... ... ... : ... .. . ... : ... .. . ... : ... .. . ... ...
ROW 24 : ... .. . ... ... ... : ... .. . ... ... ... : ... .. . ... : ... .. . ... : ... .. . ... ...
ROW 25 : ... .. . ... ... ... : ... .. . ... ... ... : ... .. . ... : ... .. . ... : ... .. . ... ...
ROW 26 : ... .. . ... ... ... : ... .. . ... ... ... : ... .. . ... : ... .. . ... : ... .. . ... ...
ROW 27 : ... .. . ... ... ... : ... .. . ... ... ... : ... .. . ... : ... .. . ... : ... .. . ... ...
ROW 28 : ... .. . ... ... ... : ... .. . ... ... ... : --- .. . ... : ... .. . ... : ... .. . ... ...
ROW 29 : ... .. . ... ... ... : A-3 00 D P80 ... ... : C-2 00 . ... : ... .. C ... : ... .. . ... ...
ROW 2A : ... .. . ... ... ... : ... .. 9 ... ... ... : ... .. . ... : ... .. 8 ... : ... .. . ... ...
ROW 2B : ... .. . ... ... ... : ... .. 7 ... ... ... : ... .. . ... : ... .. 4 ... : ... .. . ... ...
ROW 2C : ... .. . ... ... ... : ... .. 6 ... ... ... : ... .. . ... : ... .. 0 ... : ... .. . ... ...
ROW 2D : ... .. . ... ... ... : ... .. 5 ... ... ... : ... .. . ... : ... .. . ... : ... .. . ... ...
ROW 2E : ... .. . ... ... ... : ... .. . ... ... ... : ... .. . ... : ... .. . ... : ... .. . ... ...
ROW 2F : ... .. . ... ... ... : A#3 00 D P81 ... ... : ... .. . ... : ... .. . ... : ... .. . ... ...
ROW 30 : ... .. . ... ... ... : ... .. 9 ... ... ... : ... .. . ... : ... .. . ... : ... .. . ... ...
ROW 31 : ... .. . ... ... ... : ... .. 7 ... ... ... : ... .. . ... : ... .. C ... : ... .. . ... ...
ROW 32 : ... .. . ... ... ... : ... .. 6 ... ... ... : ... .. . ... : ... .. 8 ... : ... .. . ... ...
ROW 33 : ... .. . ... ... ... : ... .. 5 ... ... ... : ... .. . ... : ... .. 4 ... : ... .. . ... ...
ROW 34 : ... .. . ... ... ... : ... .. . ... ... ... : ... .. . ... : ... .. 0 ... : ... .. . ... ...
ROW 35 : ... .. . ... ... ... : A-3 00 D P80 ... ... : ... .. . ... : ... .. . ... : ... .. . ... ...
ROW 36 : ... .. . ... ... ... : ... .. 9 ... ... ... : ... .. . ... : ... .. . ... : ... .. . ... ...
ROW 37 : ... .. . ... ... ... : ... .. 7 ... ... ... : ... .. . ... : ... .. . ... : ... .. . ... ...
ROW 38 : ... .. . ... ... ... : ... .. 6 ... ... ... : --- .. . ... : ... .. . ... : ... .. . ... ...
ROW 39 : ... .. . ... ... ... : ... .. 5 ... ... ... : ... .. . ... : ... .. C ... : ... .. . ... ...
ROW 3A : ... .. . ... ... ... : ... .. . ... ... ... : ... .. . ... : ... .. 8 ... : ... .. . ... ...
ROW 3B : ... .. . ... ... ... : F-3 00 D P80 ... ... : ... .. . ... : ... .. 4 ... : ... .. . ... ...
ROW 3C : ... .. . ... ... ... : ... .. 9 ... ... ... : ... .. . ... : ... .. 0 ... : ... .. . ... ...
ROW 3D : ... .. . ... ... ... : ... .. 7 ... ... ... : ... .. . ... : ... .. . ... : ... .. . ... ...
ROW 3E : ... .. . ... ... ... : ... .. 6 ... ... ... : ... .. . ... : ... .. . ... : ... .. . ... ...
ROW 3F : ... .. . ... ... ... : ... .. 5 ... ... ... : ... .. . ... : ... .. . ... : ... .. . ... ...
ROW 40 : ... .. . ... ... ... : ... .. . ... ... ... : ... .. . ... : ... .. . ... : ... .. . ... ...
ROW 41 : E-3 00 4 P80 ... ... : C-4 00 D P81 ... ... : C-2 00 . ... : ... .. C ... : ... .. . ... ...
ROW 42 : ... .. 5 ... ... ... : ... .. 9 ... ... ... : ... .. . ... : ... .. 8 ... : ... .. . ... ...
ROW 43 : ... .. 6 ... ... ... : ... .. 7 ... ... ... : ... .. . ... : ... .. 4 ... : ... .. . ... ...
ROW 44 : ... .. 7 ... ... ... : ... .. 6 ... ... ... : ... .. . ... : ... .. 0 ... : ... .. . ... ...
ROW 45 : ... .. 8 ... ... ... : ... .. 5 ... ... ... : ... .. . ... : ... .. . ... : ... .. . ... ...
ROW 46 : ... .. 7 ... ... ... : ... .. . ... ... ... : ... .. . ... : ... .. . ... : ... .. . ... ...
ROW 47 : ... .. 6 ... ... ... : ... .. . ... ... ... : ... .. . ... : ... .. . ... : ... .. . ... ...
ROW 48 : ... .. 5 ... ... ... : ... .. 4 ... ... ... : --- .. . ... : ... .. . ... : ... .. . ... ...
ROW 49 : ... .. 4 ... ... ... : ... .. . ... ... ... : G-2 00 . P80 : ... .. . ... : ... .. . ... ...
ROW 4A : ... .. . ... ... ... : ... .. . ... ... ... : ... .. . ... : ... .. . ... : ... .. . ... ...
ROW 4B : ... .. . ... ... ... : ... .. . ... ... ... : ... .. . ... : ... .. . ... : ... .. . ... ...
ROW 4C : ... .. . ... ... ... : ... .. . ... ... ... : ... .. . ... : ... .. . ... : ... .. . ... ...
ROW 4D : ... .. . ... ... ... : ... .. . ... ... ... : ... .. . ... : ... .. . ... : ... .. . ... ...
ROW 4E : ... .. . ... ... ... : ... .. . ... ... ... : ... .. . ... : ... .. . ... : ... .. . ... ...
ROW 4F : ... .. . ... ... ... : ... .. . ... ... ... : ... .. . ... : ... .. . ... : ... .. . ... ...
ROW 50 : ... .. . ... ... ... : ... .. . ... ... ... : --- .. . ... : ... .. . ... : ... .. . ... ...
ROW 51 : ... .. . ... ... ... : ... .. . ... ... ... : C-2 00 . P7F : ... .. . ... : ... .. . ... ...
ROW 52 : ... .. . ... ... ... : ... .. . ... ... ... : ... .. . ... : ... .. . ... : ... .. . ... ...
ROW 53 : ... .. . ... ... ... : ... .. . ... ... ... : ... .. . ... : ... .. . ... : ... .. . ... ...
ROW 54 : ... .. . ... ... ... : ... .. . ... ... ... : ... .. . ... : ... .. . ... : ... .. . ... ...
ROW 55 : ... .. . ... ... ... : ... .. . ... ... ... : ... .. . ... : ... .. . ... : ... .. . ... ...
ROW 56 : ... .. . ... ... ... : ... .. . ... ... ... : ... .. . ... : ... .. . ... : ... .. . ... ...
ROW 57 : ... .. . ... ... ... : ... .. . ... ... ... : ... .. . ... : ... .. . ... : ... .. . ... ...
ROW 58 : ... .. . ... ... ... : ... .. . ... ... ... : --- .. . ... : ... .. . ... : ... .. . ... ...
ROW 59 : ... .. . ... ... ... : ... .. . ... ... ... : C-2 00 . ... : ... .. C ... : ... .. . ... ...
ROW 5A : ... .. . ... ... ... : ... .. . ... ... ... : ... .. . ... : ... .. 8 ... : ... .. . ... ...
ROW 5B : ... .. . ... ... ... : ... .. . ... ... ... : ... .. . ... : ... .. 4 ... : ... .. . ... ...
ROW 5C : ... .. . ... ... ... : ... .. . ... ... ... : ... .. . ... : ... .. 0 ... : ... .. . ... ...
ROW 5D : ... .. . ... ... ... : ... .. . ... ... ... : ... .. . ... : ... .. . ... : ... .. . ... ...
ROW 5E : ... .. . ... ... ... : ... .. . ... ... ... : ... .. . ... : ... .. . ... : ... .. . ... ...
ROW 5F : ... .. . ... ... ... : ... .. . ... ... ... : ... .. . ... : ... .. . ... : ... .. . ... ...
ROW 60 : ... .. . ... ... ... : ... .. . ... ... ... : ... .. . ... : ... .. . ... : ... .. . ... ...
ROW 61 : ... .. . ... ... ... : ... .. . ... ... ... : ... .. . ... : ... .. . ... : ... .. . ... ...
ROW 62 : ... .. . ... ... ... : ... .. . ... ... ... : ... .. . ... : ... .. . ... : ... .. . ... ...
ROW 63 : ... .. . ... ... ... : ... .. . ... ... ... : ... .. . ... : ... .. . ... : ... .. . ... ...
ROW 64 : ... .. . ... ... ... : ... .. . ... ... ... : ... .. . ... : ... .. . ... : ... .. . ... ...
ROW 65 : ... .. . ... ... ... : ... .. . ... ... ... : ... .. . ... : ... .. . ... : ... .. . ... ...
ROW 66 : ... .. . ... ... ... : ... .. . ... ... ... : ... .. . ... : ... .. . ... : ... .. . ... ...
ROW 67 : ... .. . ... ... ... : ... .. . ... ... ... : ... .. . ... : ... .. . ... : ... .. . ... ...
ROW 68 : ... .. . ... ... ... : ... .. . ... ... ... : --- .. . ... : ... .. . ... : ... .. . ... ...
ROW 69 : ... .. . ... ... ... : ... .. . ... ... ... : ... .. . ... : ... .. . ... : ... .. . ... ...
ROW 6A : ... .. . ... ... ... : ... .. . ... ... ... : ... .. . ... : ... .. . ... : ... .. . ... ...
ROW 6B : ... .. . ... ... ... : ... .. . ... ... ... : ... .. . ... : ... .. . ... : ... .. . ... ...
ROW 6C : ... .. . ... ... ... : ... .. . ... ... ... : ... .. . ... : ... .. . ... : ... .. . ... ...
ROW 6D : ... .. . ... ... ... : ... .. . ... ... ... : ... .. . ... : ... .. . ... : ... .. . ... ...
ROW 6E : ... .. . ... ... ... : ... .. . ... ... ... : ... .. . ... : ... .. . ... : ... .. . ... ...
ROW 6F : ... .. . ... ... ... : ... .. . ... ... ... : ... .. . ... : ... .. . ... : ... .. . ... ...
ROW 70 : ... .. . ... ... ... : ... .. . ... ... ... : ... .. . ... : ... .. . ... : ... .. . ... ...
ROW 71 : ... .. . ... ... ... : ... .. . ... ... ... : C-2 00 . ... : ... .. C ... : ... .. . ... ...
ROW 72 : ... .. . ... ... ... : ... .. . ... ... ... : ... .. . ... : ... .. 8 ... : ... .. . ... ...
ROW 73 : ... .. . ... ... ... : ... .. . ... ... ... : ... .. . ... : ... .. 4 ... : ... .. . ... ...
ROW 74 : ... .. . ... ... ... : ... .. . ... ... ... : ... .. . ... : ... .. 0 ... : ... .. . ... ...
ROW 75 : ... .. . ... ... ... : ... .. . ... ... ... : ... .. . ... : ... .. . ... : ... .. . ... ...
ROW 76 : ... .. . ... ... ... : ... .. . ... ... ... : ... .. . ... : ... .. . ... : ... .. . ... ...
ROW 77 : ... .. . ... ... ... : ... .. . ... ... ... : ... .. . ... : ... .. . ... : ... .. . ... ...
ROW 78 : ... .. . ... ... ... : ... .. . ... ... ... : --- .. . ... : ... .. . ... : ... .. . ... ...
ROW 79 : ... .. . ... ... ... : ... .. . ... ... ... : G-2 00 . P80 : ... .. . ... : ... .. . ... ...
ROW 7A : ... .. . ... ... ... : ... .. . ... ... ... : ... .. . ... : ... .. . ... : ... .. . ... ...
ROW 7B : ... .. . ... ... ... : ... .. . ... ... ... : ... .. . ... : ... .. . ... : ... .. . ... ...
ROW 7C : ... .. . ... ... ... : ... .. . ... ... ... : ... .. . ... : ... .. . ... : ... .. . ... ...
ROW 7D : ... .. . ... ... ... : ... .. . ... ... ... : ... .. . ... : ... .. . ... : ... .. . ... ...
ROW 7E : ... .. . ... ... ... : ... .. . ... ... ... : ... .. . ... : ... .. . ... : ... .. . ... ...
ROW 7F : ... .. . ... ... ... : ... .. . ... ... ... : ... .. . ... : ... .. . ... : ... .. . ... ...

PATTERN 23
ROW 00 : ... .. . ... ... ... : ... .. . ... ... ... : --- .. . ... : ... .. . ... : ... .. . ... ...
ROW 01 : ... .. . ... ... ... : ... .. . ... ... ... : C-2 00 . P7F : ... .. . ... : ... .. . ... ...
ROW 02 : ... .. . ... ... ... : ... .. . ... ... ... : ... .. . ... : ... .. . ... : ... .. . ... ...
ROW 03 : ... .. . ... ... ... : ... .. . ... ... ... : ... .. . ... : ... .. . ... : ... .. . ... ...
ROW 04 : ... .. . ... ... ... : ... .. . ... ... ... : ... .. . ... : ... .. . ... : ... .. . ... ...
ROW 05 : ... .. . ... ... ... : ... .. . ... ... ... : ... .. . ... : ... .. . ... : ... .. . ... ...
ROW 06 : ... .. . ... ... ... : ... .. . ... ... ... : ... .. . ... : ... .. . ... : ... .. . ... ...
ROW 07 : ... .. . ... ... ... : ... .. . ... ... ... : ... .. . ... : ... .. . ... : ... .. . ... ...
ROW 08 : ... .. . ... ... ... : ... .. . ... ... ... : --- .. . ... : ... .. . ... : ... .. . ... ...
ROW 09 : C-3 00 4 P80 ... ... : G-3 00 D P80 ... ... : C-2 00 . ... : ... .. C ... : ... .. . ... ...
ROW 0A : ... .. 5 ... ... ... : ... .. 9 ... ... ... : ... .. . ... : ... .. 8 ... : ... .. . ... ...
ROW 0B : ... .. 6 ... ... ... : ... .. 7 ... ... ... : ... .. . ... : ... .. 4 ... : ... .. . ... ...
ROW 0C : ... .. 7 ... ... ... : ... .. 6 ... ... ... : ... .. . ... : ... .. 0 ... : ... .. . ... ...
ROW 0D : ... .. 8 ... ... ... : ... .. 5 ... ... ... : ... .. . ... : ... .. . ... : ... .. . ... ...
ROW 0E : ... .. 7 ... ... ... : ... .. . ... ... ... : ... .. . ... : ... .. . ... : ... .. . ... ...
ROW 0F : ... .. 6 ... ... ... : ... .. . ... ... ... : ... .. . ... : ... .. . ... : ... .. . ... ...
ROW 10 : ... .. 5 ... ... ... : ... .. 4 ... ... ... : ... .. . ... : ... .. . ... : ... .. . ... ...
ROW 11 : G-2 00 4 P80 ... ... : ... .. . ... ... ... : ... .. . ... : ... .. C ... : ... .. . ... ...
ROW 12 : ... .. 5 ... ... ... : ... .. . ... ... ... : ... .. . ... : ... .. 8 ... : ... .. . ... ...
ROW 13 : ... .. 6 ... ... ... : ... .. . ... ... ... : ... .. . ... : ... .. 4 ... : ... .. . ... ...
ROW 14 : ... .. 7 ... ... ... : ... .. . ... ... ... : ... .. . ... : ... .. 0 ... : ... .. . ... ...
ROW 15 : ... .. 8 ... ... ... : ... .. . ... ... ... : ... .. . ... : ... .. . ... : ... .. . ... ...
ROW 16 : ... .. 7 ... ... ... : ... .. . ... ... ... : ... .. . ... : ... .. . ... : ... .. . ... ...
ROW 17 : ... .. 6 ... ... ... : ... .. . ... ... ... : ... .. . ... : ... .. . ... : ... .. . ... ...
ROW 18 : ... .. 5 ... ... ... : ... .. . ... ... ... : --- .. . ... : ... .. . ... : ... .. . ... ...
ROW 19 : C-3 00 4 P80 ... ... : ... .. . ... ... ... : ... .. . ... : ... .. C ... : ... .. . ... ...
ROW 1A : ... .. 5 ... ... ... : ... .. . ... ... ... : ... .. . ... : ... .. 8 ... : ... .. . ... ...
ROW 1B : ... .. 6 ... ... ... : ... .. . ... ... ... : ... .. . ... : ... .. 4 ... : ... .. . ... ...
ROW 1C : ... .. 7 ... ... ... : ... .. . ... ... ... : ... .. . ... : ... .. 0 ... : ... .. . ... ...
ROW 1D : ... .. 8 ... ... ... : ... .. . ... ... ... : ... .. . ... : ... .. . ... : ... .. . ... ...
ROW 1E : ... .. 7 ... ... ... : ... .. . ... ... ... : ... .. . ... : ... .. . ... : ... .. . ... ...
ROW 1F : ... .. 6 ... ... ... : ... .. . ... ... ... : ... .. . ... : ... .. . ... : ... .. . ... ...
ROW 20 : ... .. 5 ... ... ... : ... .. . ... ... ... : ... .. . ... : ... .. . ... : ... .. . ... ...
ROW 21 : F-3 00 4 P80 ... ... : A#3 00 D P81 ... ... : C-2 00 . ... : ... .. C ... : ... .. . ... ...
ROW 22 : ... .. 5 ... ... ... : ... .. 9 ... ... ... : ... .. . ... : ... .. 8 ... : ... .. . ... ...
ROW 23 : ... .. 6 ... ... ... : ... .. 7 ... ... ... : ... .. . ... : ... .. 4 ... : ... .. . ... ...
ROW 24 : ... .. 7 ... ... ... : ... .. 6 ... ... ... : ... .. . ... : ... .. 0 ... : ... .. . ... ...
ROW 25 : ... .. 8 ... ... ... : ... .. 5 ... ... ... : ... .. . ... : ... .. . ... : ... .. . ... ...
ROW 26 : ... .. 7 ... ... ... : ... .. . ... ... ... : ... .. . ... : ... .. . ... : ... .. . ... ...
ROW 27 : ... .. 6 ... ... ... : ... .. . ... ... ... : ... .. . ... : ... .. . ... : ... .. . ... ...
ROW 28 : ... .. 5 ... ... ... : ... .. 4 ... ... ... : --- .. . ... : ... .. . ... : ... .. . ... ...
ROW 29 : ... .. 4 ... ... ... : ... .. . ... ... ... : G-2 00 . P80 : ... .. . ... : ... .. . ... ...
ROW 2A : ... .. . ... ... ... : ... .. . ... ... ... : ... .. . ... : ... .. . ... : ... .. . ... ...
ROW 2B : ... .. . ... ... ... : ... .. . ... ... ... : ... .. . ... : ... .. . ... : ... .. . ... ...
ROW 2C : ... .. . ... ... ... : ... .. . ... ... ... : ... .. . ... : ... .. . ... : ... .. . ... ...
ROW 2D : ... .. . ... ... ... : ... .. . ... ... ... : ... .. . ... : ... .. . ... : ... .. . ... ...
ROW 2E : ... .. . ... ... ... : ... .. . ... ... ... : ... .. . ... : ... .. . ... : ... .. . ... ...
ROW 2F : ... .. . ... ... ... : ... .. . ... ... ... : ... .. . ... : ... .. . ... : ... .. . ... ...
ROW 30 : ... .. . ... ... ... : ... .. . ... ... ... : --- .. . ... : ... .. . ... : ... .. . ... ...
ROW 31 : ... .. . ... ... ... : ... .. . ... ... ... : C-2 00 . P7F : ... .. . ... : ... .. . ... ...
ROW 32 : ... .. . ... ... ... : ... .. . ... ... ... : ... .. . ... : ... .. . ... : ... .. . ... ...
ROW 33 : ... .. . ... ... ... : ... .. . ... ... ... : ... .. . ... : ... .. . ... : ... .. . ... ...
ROW 34 : ... .. . ... ... ... : ... .. . ... ... ... : ... .. . ... : ... .. . ... : ... .. . ... ...
ROW 35 : ... .. . ... ... ... : ... .. . ... ... ... : ... .. . ... : ... .. . ... : ... .. . ... ...
ROW 36 : ... .. . ... ... ... : ... .. . ... ... ... : ... .. . ... : ... .. . ... : ... .. . ... ...
ROW 37 : ... .. . ... ... ... : ... .. . ... ... ... : ... .. . ... : ... .. . ... : ... .. . ... ...
ROW 38 : ... .. . ... ... ... : ... .. . ... ... ... : --- .. . ... : ... .. . ... : ... .. . ... ...
ROW 39 : ... .. . ... ... ... : ... .. . ... ... ... : C-2 00 . ... : ... .. C ... : ... .. . ... ...
ROW 3A : ... .. . ... ... ... : ... .. . ... ... ... : ... .. . ... : ... .. 8 ... : ... .. . ... ...
ROW 3B : ... .. . ... ... ... : ... .. . ... ... ... : ... .. . ... : ... .. 4 ... : ... .. . ... ...
ROW 3C : ... .. . ... ... ... : ... .. . ... ... ... : ... .. . ... : ... .. 0 ... : ... .. . ... ...
ROW 3D : ... .. . ... ... ... : ... .. . ... ... ... : ... .. . ... : ... .. . ... : ... .. . ... ...
ROW 3E : ... .. . ... ... ... : ... .. . ... ... ... : ... .. . ... : ... .. . ... : ... .. . ... ...
ROW 3F : ... .. . ... ... ... : ... .. . ... ... ... : ... .. . ... : ... .. . ... : ... .. . ... ...
ROW 40 : ... .. . ... ... ... : ... .. . ... ... ... : ... .. . ... : ... .. . ... : ... .. . ... ...
ROW 41 : ... .. . ... ... ... : ... .. . ... ... ... : ... .. . ... : ... .. . ... : ... .. . ... ...
ROW 42 : ... .. . ... ... ... : ... .. . ... ... ... : ... .. . ... : ... .. . ... : ... .. . ... ...
ROW 43 : ... .. . ... ... ... : ... .. . ... ... ... : ... .. . ... : ... .. . ... : ... .. . ... ...
ROW 44 : ... .. . ... ... ... : ... .. . ... ... ... : ... .. . ... : ... .. . ... : ... .. . ... ...
ROW 45 : ... .. . ... ... ... : ... .. . ... ... ... : ... .. . ... : ... .. . ... : ... .. . ... ...
ROW 46 : ... .. . ... ... ... : ... .. . ... ... ... : ... .. . ... : ... .. . ... : ... .. . ... ...
ROW 47 : ... .. . ... ... ... : ... .. . ... ... ... : ... .. . ... : ... .. . ... : ... .. . ... ...
ROW 48 : ... .. . ... ... ... : ... .. . ... ... ... : --- .. . ... : ... .. . ... : ... .. . ... ...
ROW 49 : ... .. . ... ... ... : ... .. . ... ... ... : ... .. . ... : ... .. . ... : ... .. . ... ...
ROW 4A : ... .. . ... ... ... : ... .. . ... ... ... : ... .. . ... : ... .. . ... : ... .. . ... ...
ROW 4B : ... .. . ... ... ... : ... .. . ... ... ... : ... .. . ... : ... .. . ... : ... .. . ... ...
ROW 4C : ... .. . ... ... ... : ... .. . ... ... ... : ... .. . ... : ... .. . ... : ... .. . ... ...
ROW 4D : ... .. . ... ... ... : ... .. . ... ... ... : ... .. . ... : ... .. . ... : ... .. . ... ...
ROW 4E : ... .. . ... ... ... : ... .. . ... ... ... : ... .. . ... : ... .. . ... : ... .. . ... ...
ROW 4F : ... .. . ... ... ... : ... .. . ... ... ... : ... .. . ... : ... .. . ... : ... .. . ... ...
ROW 50 : ... .. . ... ... ... : ... .. . ... ... ... : ... .. . ... : ... .. . ... : ... .. . ... ...
ROW 51 : D-3 00 4 P80 ... ... : ... .. . ... ... ... : C-2 00 . ... : ... .. C ... : ... .. . ... ...
ROW 52 : ... .. 5 ... ... ... : ... .. . ... ... ... : ... .. . ... : ... .. 8 ... : ... .. . ... ...
ROW 53 : ... .. 6 ... ... ... : ... .. . ... ... ... : ... .. . ... : ... .. 4 ... : ... .. . ... ...
ROW 54 : ... .. 7 ... ... ... : ... .. . ... ... ... : ... .. . ... : ... .. 0 ... : ... .. . ... ...
ROW 55 : ... .. 8 ... ... ... : ... .. . ... ... ... : ... .. . ... : ... .. . ... : ... .. . ... ...
ROW 56 : ... .. 7 ... ... ... : ... .. . ... ... ... : ... .. . ... : ... .. . ... : ... .. . ... ...
ROW 57 : ... .. 6 ... ... ... : ... .. . ... ... ... : ... .. . ... : ... .. . ... : ... .. . ... ...
ROW 58 : ... .. 5 ... ... ... : ... .. . ... ... ... : --- .. . ... : ... .. . ... : ... .. . ... ...
ROW 59 : ... .. 4 ... ... ... : ... .. . ... ... ... : G-2 00 . P80 : ... .. . ... : ... .. . ... ...
ROW 5A : ... .. . ... ... ... : ... .. . ... ... ... : ... .. . ... : ... .. . ... : ... .. . ... ...
ROW 5B : ... .. . ... ... ... : ... .. . ... ... ... : ... .. . ... : ... .. . ... : ... .. . ... ...
ROW 5C : ... .. . ... ... ... : ... .. . ... ... ... : ... .. . ... : ... .. . ... : ... .. . ... ...
ROW 5D : ... .. . ... ... ... : ... .. . ... ... ... : ... .. . ... : ... .. . ... : ... .. . ... ...
ROW 5E : ... .. . ... ... ... : ... .. . ... ... ... : ... .. . ... : ... .. . ... : ... .. . ... ...
ROW 5F : ... .. . ... ... ... : ... .. . ... ... ... : ... .. . ... : ... .. . ... : ... .. . ... ...
ROW 60 : ... .. . ... ... ... : ... .. . ... ... ... : --- .. . ... : ... .. . ... : ... .. . ... ...
ROW 61 : ... .. . ... ... ... : ... .. . ... ... ... : C-2 00 . P7F : ... .. . ... : ... .. . ... ...
ROW 62 : ... .. . ... ... ... : ... .. . ... ... ... : ... .. . ... : ... .. . ... : ... .. . ... ...
ROW 63 : ... .. . ... ... ... : ... .. . ... ... ... : ... .. . ... : ... .. . ... : ... .. . ... ...
ROW 64 : ... .. . ... ... ... : ... .. . ... ... ... : ... .. . ... : ... .. . ... : ... .. . ... ...
ROW 65 : ... .. . ... ... ... : ... .. . ... ... ... : ... .. . ... : ... .. . ... : ... .. . ... ...
ROW 66 : ... .. . ... ... ... : ... .. . ... ... ... : ... .. . ... : ... .. . ... : ... .. . ... ...
ROW 67 : ... .. . ... ... ... : ... .. . ... ... ... : ... .. . ... : ... .. . ... : ... .. . ... ...
ROW 68 : ... .. . ... ... ... : ... .. . ... ... ... : --- .. . ... : ... .. . ... : ... .. . ... ...
ROW 69 : ... .. . ... ... ... : A-3 00 D P80 ... ... : C-2 00 . ... : ... .. C ... : ... .. . ... ...
ROW 6A : ... .. . ... ... ... : ... .. 9 ... ... ... : ... .. . ... : ... .. 8 ... : ... .. . ... ...
ROW 6B : ... .. . ... ... ... : ... .. 7 ... ... ... : ... .. . ... : ... .. 4 ... : ... .. . ... ...
ROW 6C : ... .. . ... ... ... : ... .. 6 ... ... ... : ... .. . ... : ... .. 0 ... : ... .. . ... ...
ROW 6D : ... .. . ... ... ... : ... .. 5 ... ... ... : ... .. . ... : ... .. . ... : ... .. . ... ...
ROW 6E : ... .. . ... ... ... : ... .. . ... ... ... : ... .. . ... : ... .. . ... : ... .. . ... ...
ROW 6F : ... .. . ... ... ... : A#3 00 D P81 ... ... : ... .. . ... : ... .. . ... : ... .. . ... ...
ROW 70 : ... .. . ... ... ... : ... .. 9 ... ... ... : ... .. . ... : ... .. . ... : ... .. . ... ...
ROW 71 : ... .. . ... ... ... : ... .. 7 ... ... ... : ... .. . ... : ... .. C ... : ... .. . ... ...
ROW 72 : ... .. . ... ... ... : ... .. 6 ... ... ... : ... .. . ... : ... .. 8 ... : ... .. . ... ...
ROW 73 : ... .. . ... ... ... : ... .. 5 ... ... ... : ... .. . ... : ... .. 4 ... : ... .. . ... ...
ROW 74 : ... .. . ... ... ... : ... .. . ... ... ... : ... .. . ... : ... .. 0 ... : ... .. . ... ...
ROW 75 : ... .. . ... ... ... : A-3 00 D P80 ... ... : ... .. . ... : ... .. . ... : ... .. . ... ...
ROW 76 : ... .. . ... ... ... : ... .. 9 ... ... ... : ... .. . ... : ... .. . ... : ... .. . ... ...
ROW 77 : ... .. . ... ... ... : ... .. 7 ... ... ... : ... .. . ... : ... .. . ... : ... .. . ... ...
ROW 78 : ... .. . ... ... ... : ... .. 6 ... ... ... : --- .. . ... : ... .. . ... : ... .. . ... ...
ROW 79 : ... .. . ... ... ... : ... .. 5 ... ... ... : ... .. . ... : ... .. C ... : ... .. . ... ...
ROW 7A : ... .. . ... ... ... : ... .. . ... ... ... : ... .. . ... : ... .. 8 ... : ... .. . ... ...
ROW 7B : ... .. . ... ... ... : F-3 00 D P80 ... ... : ... .. . ... : ... .. 4 ... : ... .. . ... ...
ROW 7C : ... .. . ... ... ... : ... .. 9 ... ... ... : ... .. . ... : ... .. 0 ... : ... .. . ... ...
ROW 7D : ... .. . ... ... ... : ... .. 7 ... ... ... : ... .. . ... : ... .. . ... : ... .. . ... ...
ROW 7E : ... .. . ... ... ... : ... .. 6 ... ... ... : ... .. . ... : ... .. . ... : ... .. . ... ...
ROW 7F : ... .. . ... ... ... : ... .. 5 ... ... ... : ... .. . ... : ... .. . ... : ... .. . ... ...

PATTERN 24
ROW 00 : ... .. . ... ... ... : ... .. . ... ... ... : ... .. . ... : ... .. . ... : ... .. . ... ...
ROW 01 : E-3 00 4 P80 ... ... : G-3 00 D P80 ... ... : C-2 00 . ... : ... .. C ... : ... .. . ... ...
ROW 02 : ... .. 5 ... ... ... : ... .. 9 ... ... ... : ... .. . ... : ... .. 8 ... : ... .. . ... ...
ROW 03 : ... .. 6 ... ... ... : ... .. 7 ... ... ... : ... .. . ... : ... .. 4 ... : ... .. . ... ...
ROW 04 : ... .. 7 ... ... ... : ... .. 6 ... ... ... : ... .. . ... : ... .. 0 ... : ... .. . ... ...
ROW 05 : ... .. 8 ... ... ... : ... .. 5 ... ... ... : ... .. . ... : ... .. . ... : ... .. . ... ...
ROW 06 : ... .. 7 ... ... ... : ... .. . ... ... ... : ... .. . ... : ... .. . ... : ... .. . ... ...
ROW 07 : ... .. 6 ... ... ... : ... .. . ... ... ... : ... .. . ... : ... .. . ... : ... .. . ... ...
ROW 08 : ... .. 5 ... ... ... : ... .. 4 ... ... ... : --- .. . ... : ... .. . ... : ... .. . ... ...
ROW 09 : ... .. 4 ... ... ... : ... .. . ... ... ... : G-2 00 . P80 : ... .. . ... : ... .. . ... ...
ROW 0A : ... .. . ... ... ... : ... .. . ... ... ... : ... .. . ... : ... .. . ... : ... .. . ... ...
ROW 0B : ... .. . ... ... ... : ... .. . ... ... ... : ... .. . ... : ... .. . ... : ... .. . ... ...
ROW 0C : ... .. . ... ... ... : ... .. . ... ... ... : ... .. . ... : ... .. . ... : ... .. . ... ...
ROW 0D : ... .. . ... ... ... : ... .. . ... ... ... : ... .. . ... : ... .. . ... : ... .. . ... ...
ROW 0E : ... .. . ... ... ... : ... .. . ... ... ... : ... .. . ... : ... .. . ... : ... .. . ... ...
ROW 0F : ... .. . ... ... ... : ... .. . ... ... ... : ... .. . ... : ... .. . ... : ... .. . ... ...
ROW 10 : ... .. . ... ... ... : ... .. . ... ... ... : --- .. . ... : ... .. . ... : ... .. . ... ...
ROW 11 : ... .. . ... ... ... : ... .. . ... ... ... : C-2 00 . P7F : ... .. . ... : ... .. . ... ...
ROW 12 : ... .. . ... ... ... : ... .. . ... ... ... : ... .. . ... : ... .. . ... : ... .. . ... ...
ROW 13 : ... .. . ... ... ... : ... .. . ... ... ... : ... .. . ... : ... .. . ... : ... .. . ... ...
ROW 14 : ... .. . ... ... ... : ... .. . ... ... ... : ... .. . ... : ... .. . ... : ... .. . ... ...
ROW 15 : ... .. . ... ... ... : ... .. . ... ... ... : ... .. . ... : ... .. . ... : ... .. . ... ...
ROW 16 : ... .. . ... ... ... : ... .. . ... ... ... : ... .. . ... : ... .. . ... : ... .. . ... ...
ROW 17 : ... .. . ... ... ... : ... .. . ... ... ... : ... .. . ... : ... .. . ... : ... .. . ... ...
ROW 18 : ... .. . ... ... ... : ... .. . ... ... ... : --- .. . ... : ... .. . ... : ... .. . ... ...
ROW 19 : ... .. . ... ... ... : ... .. . ... ... ... : C-2 00 . ... : ... .. C ... : ... .. . ... ...
ROW 1A : ... .. . ... ... ... : ... .. . ... ... ... : ... .. . ... : ... .. 8 ... : ... .. . ... ...
ROW 1B : ... .. . ... ... ... : ... .. . ... ... ... : ... .. . ... : ... .. 4 ... : ... .. . ... ...
ROW 1C : ... .. . ... ... ... : ... .. . ... ... ... : ... .. . ... : ... .. 0 ... : ... .. . ... ...
ROW 1D : ... .. . ... ... ... : ... .. . ... ... ... : ... .. . ... : ... .. . ... : ... .. . ... ...
ROW 1E : ... .. . ... ... ... : ... .. . ... ... ... : ... .. . ... : ... .. . ... : ... .. . ... ...
ROW 1F : ... .. . ... ... ... : ... .. . ... ... ... : ... .. . ... : ... .. . ... : ... .. . ... ...
ROW 20 : ... .. . ... ... ... : ... .. . ... ... ... : ... .. . ... : ... .. . ... : ... .. . ... ...
ROW 21 : ... .. . ... ... ... : ... .. . ... ... ... : ... .. . ... : ... .. . ... : ... .. . ... ...
ROW 22 : ... .. . ... ... ... : ... .. . ... ... ... : ... .. . ... : ... .. . ... : ... .. . ... ...
ROW 23 : ... .. . ... ... ... : ... .. . ... ... ... : ... .. . ... : ... .. . ... : ... .. . ... ...
ROW 24 : ... .. . ... ... ... : ... .. . ... ... ... : ... .. . ... : ... .. . ... : ... .. . ... ...
ROW 25 : ... .. . ... ... ... : ... .. . ... ... ... : ... .. . ... : ... .. . ... : ... .. . ... ...
ROW 26 : ... .. . ... ... ... : ... .. . ... ... ... : ... .. . ... : ... .. . ... : ... .. . ... ...
ROW 27 : ... .. . ... ... ... : ... .. . ... ... ... : ... .. . ... : ... .. . ... : ... .. . ... ...
ROW 28 : ... .. . ... ... ... : ... .. . ... ... ... : --- .. . ... : ... .. . ... : ... .. . ... ...
ROW 29 : ... .. . ... ... ... : ... .. . ... ... ... : ... .. . ... : ... .. . ... : ... .. . ... ...
ROW 2A : ... .. . ... ... ... : ... .. . ... ... ... : ... .. . ... : ... .. . ... : ... .. . ... ...
ROW 2B : ... .. . ... ... ... : ... .. . ... ... ... : ... .. . ... : ... .. . ... : ... .. . ... ...
ROW 2C : ... .. . ... ... ... : ... .. . ... ... ... : ... .. . ... : ... .. . ... : ... .. . ... ...
ROW 2D : ... .. . ... ... ... : ... .. . ... ... ... : ... .. . ... : ... .. . ... : ... .. . ... ...
ROW 2E : ... .. . ... ... ... : ... .. . ... ... ... : ... .. . ... : ... .. . ... : ... .. . ... ...
ROW 2F : ... .. . ... ... ... : ... .. . ... ... ... : ... .. . ... : ... .. . ... : ... .. . ... ...
ROW 30 : ... .. . ... ... ... : ... .. . ... ... ... : ... .. . ... : ... .. . ... : ... .. . ... ...
ROW 31 : ... .. . ... ... ... : ... .. . ... ... ... : C-2 00 . ... : ... .. C ... : ... .. . ... ...
ROW 32 : ... .. . ... ... ... : ... .. . ... ... ... : ... .. . ... : ... .. 8 ... : ... .. . ... ...
ROW 33 : ... .. . ... ... ... : ... .. . ... ... ... : ... .. . ... : ... .. 4 ... : ... .. . ... ...
ROW 34 : ... .. . ... ... ... : ... .. . ... ... ... : ... .. . ... : ... .. 0 ... : ... .. . ... ...
ROW 35 : ... .. . ... ... ... : ... .. . ... ... ... : ... .. . ... : ... .. . ... : ... .. . ... ...
ROW 36 : ... .. . ... ... ... : ... .. . ... ... ... : ... .. . ... : ... .. . ... : ... .. . ... ...
ROW 37 : ... .. . ... ... ... : ... .. . ... ... ... : ... .. . ... : ... .. . ... : ... .. . ... ...
ROW 38 : ... .. . ... ... ... : ... .. . ... ... ... : --- .. . ... : ... .. . ... : ... .. . ... ...
ROW 39 : ... .. . ... ... ... : ... .. . ... ... ... : G-2 00 . P80 : ... .. . ... : ... .. . ... ...
ROW 3A : ... .. . ... ... ... : ... .. . ... ... ... : ... .. . ... : ... .. . ... : ... .. . ... ...
ROW 3B : ... .. . ... ... ... : ... .. . ... ... ... : ... .. . ... : ... .. . ... : ... .. . ... ...
ROW 3C : ... .. . ... ... ... : ... .. . ... ... ... : ... .. . ... : ... .. . ... : ... .. . ... ...
ROW 3D : ... .. . ... ... ... : ... .. . ... ... ... : ... .. . ... : ... .. . ... : ... .. . ... ...
ROW 3E : ... .. . ... ... ... : ... .. . ... ... ... : ... .. . ... : ... .. . ... : ... .. . ... ...
ROW 3F : ... .. . ... ... ... : ... .. . ... ... ... : ... .. . ... : ... .. . ... : ... .. . ... ...
ROW 40 : ... .. . ... ... ... : ... .. . ... ... ... : --- .. . ... : ... .. . ... : ... .. . ... ...
ROW 41 : ... .. . ... ... ... : ... .. . ... ... ... : C-2 00 . P7F : ... .. . ... : ... .. . ... ...
ROW 42 : ... .. . ... ... ... : ... .. . ... ... ... : ... .. . ... : ... .. . ... : ... .. . ... ...
ROW 43 : ... .. . ... ... ... : ... .. . ... ... ... : ... .. . ... : ... .. . ... : ... .. . ... ...
ROW 44 : ... .. . ... ... ... : ... .. . ... ... ... : ... .. . ... : ... .. . ... : ... .. . ... ...
ROW 45 : ... .. . ... ... ... : ... .. . ... ... ... : ... .. . ... : ... .. . ... : ... .. . ... ...
ROW 46 : ... .. . ... ... ... : ... .. . ... ... ... : ... .. . ... : ... .. . ... : ... .. . ... ...
ROW 47 : ... .. . ... ... ... : ... .. . ... ... ... : ... .. . ... : ... .. . ... : ... .. . ... ...
ROW 48 : ... .. . ... ... ... : ... .. . ... ... ... : --- .. . ... : ... .. . ... : ... .. . ... ...
ROW 49 : ... .. . ... ... ... : ... .. . ... ... ... : C-2 00 . ... : ... .. C ... : ... .. . ... ...
ROW 4A : ... .. . ... ... ... : ... .. . ... ... ... : ... .. . ... : ... .. 8 ... : ... .. . ... ...
ROW 4B : ... .. . ... ... ... : ... .. . ... ... ... : ... .. . ... : ... .. 4 ... : ... .. . ... ...
ROW 4C : ... .. . ... ... ... : ... .. . ... ... ... : ... .. . ... : ... .. 0 ... : ... .. . ... ...
ROW 4D : ... .. . ... ... ... : ... .. . ... ... ... : ... .. . ... : ... .. . ... : ... .. . ... ...
ROW 4E : ... .. . ... ... ... : ... .. . ... ... ... : ... .. . ... : ... .. . ... : ... .. . ... ...
ROW 4F : ... .. . ... ... ... : ... .. . ... ... ... : ... .. . ... : ... .. . ... : ... .. . ... ...
ROW 50 : ... .. . ... ... ... : ... .. . ... ... ... : ... .. . ... : ... .. . ... : ... .. . ... ...
ROW 51 : ... .. . ... ... ... : ... .. . ... ... ... : ... .. . ... : ... .. C ... : ... .. . ... ...
ROW 52 : ... .. . ... ... ... : ... .. . ... ... ... : ... .. . ... : ... .. 8 ... : ... .. . ... ...
ROW 53 : ... .. . ... ... ... : ... .. . ... ... ... : ... .. . ... : ... .. 4 ... : ... .. . ... ...
ROW 54 : ... .. . ... ... ... : ... .. . ... ... ... : ... .. . ... : ... .. 0 ... : ... .. . ... ...
ROW 55 : ... .. . ... ... ... : ... .. . ... ... ... : ... .. . ... : ... .. . ... : ... .. . ... ...
ROW 56 : ... .. . ... ... ... : ... .. . ... ... ... : ... .. . ... : ... .. . ... : ... .. . ... ...
ROW 57 : ... .. . ... ... ... : ... .. . ... ... ... : ... .. . ... : ... .. . ... : ... .. . ... ...
ROW 58 : ... .. . ... ... ... : ... .. . ... ... ... : --- .. . ... : ... .. . ... : ... .. . ... ...
ROW 59 : ... .. . ... ... ... : ... .. . ... ... ... : ... .. . ... : ... .. C ... : ... .. . ... ...
ROW 5A : ... .. . ... ... ... : ... .. . ... ... ... : ... .. . ... : ... .. 8 ... : ... .. . ... ...
ROW 5B : ... .. . ... ... ... : ... .. . ... ... ... : ... .. . ... : ... .. 4 ... : ... .. . ... ...
ROW 5C : ... .. . ... ... ... : ... .. . ... ... ... : ... .. . ... : ... .. 0 ... : ... .. . ... ...
ROW 5D : ... .. . ... ... ... : ... .. . ... ... ... : ... .. . ... : ... .. . ... : ... .. . ... ...
ROW 5E : ... .. . ... ... ... : ... .. . ... ... ... : ... .. . ... : ... .. . ... : ... .. . ... ...
ROW 5F : ... .. . ... ... ... : ... .. . ... ... ... : ... .. . ... : ... .. . ... : ... .. . ... ...
ROW 60 : ... .. . ... ... ... : ... .. . ... ... ... : ... .. . ... : ... .. . ... : ... .. . ... ...
ROW 61 : E-3 00 4 P80 ... ... : G-2 00 D P80 ... ... : C-2 00 . ... : ... .. C ... : ... .. . ... ...
ROW 62 : ... .. 5 ... ... ... : ... .. 9 ... ... ... : ... .. . ... : ... .. 8 ... : ... .. . ... ...
ROW 63 : ... .. 6 ... ... ... : ... .. 7 ... ... ... : ... .. . ... : ... .. 4 ... : ... .. . ... ...
ROW 64 : ... .. 7 ... ... ... : ... .. 6 ... ... ... : ... .. . ... : ... .. 0 ... : ... .. . ... ...
ROW 65 : ... .. 8 ... ... ... : ... .. 5 ... ... ... : ... .. . ... : ... .. . ... : ... .. . ... ...
ROW 66 : ... .. 7 ... ... ... : ... .. . ... ... ... : ... .. . ... : ... .. . ... : ... .. . ... ...
ROW 67 : ... .. 6 ... ... ... : ... .. . ... ... ... : ... .. . ... : ... .. . ... : ... .. . ... ...
ROW 68 : ... .. 5 ... ... ... : ... .. 4 ... ... ... : --- .. . ... : ... .. . ... : ... .. . ... ...
ROW 69 : ... .. 4 ... ... ... : ... .. . ... ... ... : G-2 00 . P80 : ... .. . ... : ... .. . ... ...
ROW 6A : ... .. . ... ... ... : ... .. . ... ... ... : ... .. . ... : ... .. . ... : ... .. . ... ...
ROW 6B : ... .. . ... ... ... : ... .. . ... ... ... : ... .. . ... : ... .. . ... : ... .. . ... ...
ROW 6C : ... .. . ... ... ... : ... .. . ... ... ... : ... .. . ... : ... .. . ... : ... .. . ... ...
ROW 6D : ... .. . ... ... ... : ... .. . ... ... ... : ... .. . ... : ... .. . ... : ... .. . ... ...
ROW 6E : ... .. . ... ... ... : ... .. . ... ... ... : ... .. . ... : ... .. . ... : ... .. . ... ...
ROW 6F : ... .. . ... ... ... : ... .. . ... ... ... : ... .. . ... : ... .. . ... : ... .. . ... ...
ROW 70 : ... .. . ... ... ... : ... .. . ... ... ... : --- .. . ... : ... .. . ... : ... .. . ... ...
ROW 71 : ... .. . ... ... ... : ... .. . ... ... ... : C-2 00 . P7F : ... .. . ... : ... .. . ... ...
ROW 72 : ... .. . ... ... ... : ... .. . ... ... ... : ... .. . ... : ... .. . ... : ... .. . ... ...
ROW 73 : ... .. . ... ... ... : ... .. . ... ... ... : ... .. . ... : ... .. . ... : ... .. . ... ...
ROW 74 : ... .. . ... ... ... : ... .. . ... ... ... : ... .. . ... : ... .. . ... : ... .. . ... ...
ROW 75 : ... .. . ... ... ... : ... .. . ... ... ... : ... .. . ... : ... .. . ... : ... .. . ... ...
ROW 76 : ... .. . ... ... ... : ... .. . ... ... ... : ... .. . ... : ... .. . ... : ... .. . ... ...
ROW 77 : ... .. . ... ... ... : ... .. . ... ... ... : ... .. . ... : ... .. . ... : ... .. . ... ...
ROW 78 : ... .. . ... ... ... : ... .. . ... ... ... : --- .. . ... : ... .. . ... : ... .. . ... ...
ROW 79 : ... .. . ... ... ... : ... .. . ... ... ... : C-2 00 . ... : ... .. C ... : ... .. . ... ...
ROW 7A : ... .. . ... ... ... : ... .. . ... ... ... : ... .. . ... : ... .. 8 ... : ... .. . ... ...
ROW 7B : ... .. . ... ... ... : ... .. . ... ... ... : ... .. . ... : ... .. 4 ... : ... .. . ... ...
ROW 7C : ... .. . ... ... ... : ... .. . ... ... ... : ... .. . ... : ... .. 0 ... : ... .. . ... ...
ROW 7D : ... .. . ... ... ... : ... .. . ... ... ... : ... .. . ... : ... .. . ... : ... .. . ... ...
ROW 7E : ... .. . ... ... ... : ... .. . ... ... ... : ... .. . ... : ... .. . ... : ... .. . ... ...
ROW 7F : ... .. . ... ... ... : ... .. . ... ... ... : ... .. . ... : ... .. . ... : ... .. . ... ...

PATTERN 25
ROW 00 : ... .. . ... ... ... : ... .. . ... ... ... : ... .. . ... : ... .. . ... : ... .. . ... ...
ROW 01 : ... .. . ... ... ... : ... .. . ... ... ... : ... .. . ... : ... .. . ... : ... .. . ... ...
ROW 02 : ... .. . ... ... ... : ... .. . ... ... ... : ... .. . ... : ... .. . ... : ... .. . ... ...
ROW 03 : ... .. . ... ... ... : ... .. . ... ... ... : ... .. . ... : ... .. . ... : ... .. . ... ...
ROW 04 : ... .. . ... ... ... : ... .. . ... ... ... : ... .. . ... : ... .. . ... : ... .. . ... ...
ROW 05 : ... .. . ... ... ... : ... .. . ... ... ... : ... .. . ... : ... .. . ... : ... .. . ... ...
ROW 06 : ... .. . ... ... ... : ... .. . ... ... ... : ... .. . ... : ... .. . ... : ... .. . ... ...
ROW 07 : ... .. . ... ... ... : ... .. . ... ... ... : ... .. . ... : ... .. . ... : ... .. . ... ...
ROW 08 : ... .. . ... ... ... : ... .. . ... ... ... : --- .. . ... : ... .. . ... : ... .. . ... ...
ROW 09 : ... .. . ... ... ... : ... .. . ... ... ... : ... .. . ... : ... .. . ... : ... .. . ... ...
ROW 0A : ... .. . ... ... ... : ... .. . ... ... ... : ... .. . ... : ... .. . ... : ... .. . ... ...
ROW 0B : ... .. . ... ... ... : ... .. . ... ... ... : ... .. . ... : ... .. . ... : ... .. . ... ...
ROW 0C : ... .. . ... ... ... : ... .. . ... ... ... : ... .. . ... : ... .. . ... : ... .. . ... ...
ROW 0D : ... .. . ... ... ... : ... .. . ... ... ... : ... .. . ... : ... .. . ... : ... .. . ... ...
ROW 0E : ... .. . ... ... ... : ... .. . ... ... ... : ... .. . ... : ... .. . ... : ... .. . ... ...
ROW 0F : ... .. . ... ... ... : ... .. . ... ... ... : ... .. . ... : ... .. . ... : ... .. . ... ...
ROW 10 : ... .. . ... ... ... : ... .. . ... ... ... : ... .. . ... : ... .. . ... : ... .. . ... ...
ROW 11 : ... .. . ... ... ... : ... .. . ... ... ... : C-2 00 . ... : ... .. C ... : ... .. . ... ...
ROW 12 : ... .. . ... ... ... : ... .. . ... ... ... : ... .. . ... : ... .. 8 ... : ... .. . ... ...
ROW 13 : ... .. . ... ... ... : ... .. . ... ... ... : ... .. . ... : ... .. 4 ... : ... .. . ... ...
ROW 14 : ... .. . ... ... ... : ... .. . ... ... ... : ... .. . ... : ... .. 0 ... : ... .. . ... ...
ROW 15 : ... .. . ... ... ... : ... .. . ... ... ... : ... .. . ... : ... .. . ... : ... .. . ... ...
ROW 16 : ... .. . ... ... ... : ... .. . ... ... ... : ... .. . ... : ... .. . ... : ... .. . ... ...
ROW 17 : ... .. . ... ... ... : ... .. . ... ... ... : ... .. . ... : ... .. . ... : ... .. . ... ...
ROW 18 : ... .. . ... ... ... : ... .. . ... ... ... : --- .. . ... : ... .. . ... : ... .. . ... ...
ROW 19 : ... .. . ... ... ... : ... .. . ... ... ... : G-2 00 . P80 : ... .. . ... : ... .. . ... ...
ROW 1A : ... .. . ... ... ... : ... .. . ... ... ... : ... .. . ... : ... .. . ... : ... .. . ... ...
ROW 1B : ... .. . ... ... ... : ... .. . ... ... ... : ... .. . ... : ... .. . ... : ... .. . ... ...
ROW 1C : ... .. . ... ... ... : ... .. . ... ... ... : ... .. . ... : ... .. . ... : ... .. . ... ...
ROW 1D : ... .. . ... ... ... : ... .. . ... ... ... : ... .. . ... : ... .. . ... : ... .. . ... ...
ROW 1E : ... .. . ... ... ... : ... .. . ... ... ... : ... .. . ... : ... .. . ... : ... .. . ... ...
ROW 1F : ... .. . ... ... ... : ... .. . ... ... ... : ... .. . ... : ... .. . ... : ... .. . ... ...
ROW 20 : ... .. . ... ... ... : ... .. . ... ... ... : --- .. . ... : ... .. . ... : ... .. . ... ...
ROW 21 : ... .. . ... ... ... : ... .. . ... ... ... : C-2 00 . P7F : ... .. . ... : ... .. . ... ...
ROW 22 : ... .. . ... ... ... : ... .. . ... ... ... : ... .. . ... : ... .. . ... : ... .. . ... ...
ROW 23 : ... .. . ... ... ... : ... .. . ... ... ... : ... .. . ... : ... .. . ... : ... .. . ... ...
ROW 24 : ... .. . ... ... ... : ... .. . ... ... ... : ... .. . ... : ... .. . ... : ... .. . ... ...
ROW 25 : ... .. . ... ... ... : ... .. . ... ... ... : ... .. . ... : ... .. . ... : ... .. . ... ...
ROW 26 : ... .. . ... ... ... : ... .. . ... ... ... : ... .. . ... : ... .. . ... : ... .. . ... ...
ROW 27 : ... .. . ... ... ... : ... .. . ... ... ... : ... .. . ... : ... .. . ... : ... .. . ... ...
ROW 28 : ... .. . ... ... ... : ... .. . ... ... ... : --- .. . ... : ... .. . ... : ... .. . ... ...
ROW 29 : ... .. . ... ... ... : ... .. . ... ... ... : C-2 00 . ... : ... .. C ... : ... .. . ... ...
ROW 2A : ... .. . ... ... ... : ... .. . ... ... ... : ... .. . ... : ... .. 8 ... : ... .. . ... ...
ROW 2B : ... .. . ... ... ... : ... .. . ... ... ... : ... .. . ... : ... .. 4 ... : ... .. . ... ...
ROW 2C : ... .. . ... ... ... : ... .. . ... ... ... : ... .. . ... : ... .. 0 ... : ... .. . ... ...
ROW 2D : ... .. . ... ... ... : ... .. . ... ... ... : ... .. . ... : ... .. . ... : ... .. . ... ...
ROW 2E : ... .. . ... ... ... : ... .. . ... ... ... : ... .. . ... : ... .. . ... : ... .. . ... ...
ROW 2F : ... .. . ... ... ... : ... .. . ... ... ... : ... .. . ... : ... .. . ... : ... .. . ... ...
ROW 30 : ... .. . ... ... ... : ... .. . ... ... ... : ... .. . ... : ... .. . ... : ... .. . ... ...
ROW 31 : ... .. . ... ... ... : ... .. . ... ... ... : ... .. . ... : ... .. C ... : ... .. . ... ...
ROW 32 : ... .. . ... ... ... : ... .. . ... ... ... : ... .. . ... : ... .. 8 ... : ... .. . ... ...
ROW 33 : ... .. . ... ... ... : ... .. . ... ... ... : ... .. . ... : ... .. 4 ... : ... .. . ... ...
ROW 34 : ... .. . ... ... ... : ... .. . ... ... ... : ... .. . ... : ... .. 0 ... : ... .. . ... ...
ROW 35 : ... .. . ... ... ... : ... .. . ... ... ... : ... .. . ... : ... .. . ... : ... .. . ... ...
ROW 36 : ... .. . ... ... ... : ... .. . ... ... ... : ... .. . ... : ... .. . ... : ... .. . ... ...
ROW 37 : ... .. . ... ... ... : ... .. . ... ... ... : ... .. . ... : ... .. . ... : ... .. . ... ...
ROW 38 : ... .. . ... ... ... : ... .. . ... ... ... : --- .. . ... : ... .. . ... : ... .. . ... ...
ROW 39 : ... .. . ... ... ... : ... .. . ... ... ... : ... .. . ... : ... .. C ... : ... .. . ... ...
ROW 3A : ... .. . ... ... ... : ... .. . ... ... ... : ... .. . ... : ... .. 8 ... : ... .. . ... ...
ROW 3B : ... .. . ... ... ... : ... .. . ... ... ... : ... .. . ... : ... .. 4 ... : ... .. . ... ...
ROW 3C : ... .. . ... ... ... : ... .. . ... ... ... : ... .. . ... : ... .. 0 ... : ... .. . ... ...
ROW 3D : ... .. . ... ... ... : ... .. . ... ... ... : ... .. . ... : ... .. . ... : ... .. . ... ...
ROW 3E : ... .. . ... ... ... : ... .. . ... ... ... : ... .. . ... : ... .. . ... : ... .. . ... ...
ROW 3F : ... .. . ... ... ... : ... .. . ... ... ... : ... .. . ... : ... .. . ... : ... .. . ... ...
ROW 40 : ... .. . ... ... ... : ... .. . ... ... ... : ... .. . ... : ... .. . ... : ... .. . ... ...
ROW 41 : F-3 00 4 P80 ... ... : A-3 00 D P80 ... ... : D#2 00 . ... : ... .. C ... : ... .. . ... ...
ROW 42 : ... .. 5 ... ... ... : ... .. 9 ... ... ... : ... .. . ... : ... .. 8 ... : ... .. . ... ...
ROW 43 : ... .. 6 ... ... ... : ... .. 7 ... ... ... : ... .. . ... : ... .. 4 ... : ... .. . ... ...
ROW 44 : ... .. 7 ... ... ... : ... .. 6 ... ... ... : ... .. . ... : ... .. 0 ... : ... .. . ... ...
ROW 45 : ... .. 8 ... ... ... : ... .. 5 ... ... ... : ... .. . ... : ... .. . ... : ... .. . ... ...
ROW 46 : ... .. 7 ... ... ... : ... .. . ... ... ... : ... .. . ... : ... .. . ... : ... .. . ... ...
ROW 47 : ... .. 6 ... ... ... : ... .. . ... ... ... : ... .. . ... : ... .. . ... : ... .. . ... ...
ROW 48 : ... .. 5 ... ... ... : ... .. 4 ... ... ... : ... .. . ... : ... .. . ... : ... .. . ... ...
ROW 49 : ... .. 4 ... ... ... : ... .. . ... ... ... : ... .. . ... : ... .. . ... : ... .. . ... ...
ROW 4A : ... .. . ... ... ... : ... .. . ... ... ... : ... .. . ... : ... .. . ... : ... .. . ... ...
ROW 4B : ... .. . ... ... ... : ... .. . ... ... ... : ... .. . ... : ... .. . ... : ... .. . ... ...
ROW 4C : ... .. . ... ... ... : ... .. . ... ... ... : ... .. . ... : ... .. . ... : ... .. . ... ...
ROW 4D : ... .. . ... ... ... : ... .. . ... ... ... : ... .. . ... : ... .. . ... : ... .. . ... ...
ROW 4E : ... .. . ... ... ... : ... .. . ... ... ... : ... .. . ... : ... .. . ... : ... .. . ... ...
ROW 4F : ... .. . ... ... ... : ... .. . ... ... ... : ... .. . ... : ... .. . ... : ... .. . ... ...
ROW 50 : ... .. . ... ... ... : ... .. . ... ... ... : --- .. . ... : ... .. . ... : ... .. . ... ...
ROW 51 : ... .. . ... ... ... : ... .. . ... ... ... : ... .. . ... : ... .. . ... : ... .. . ... ...
ROW 52 : ... .. . ... ... ... : ... .. . ... ... ... : ... .. . ... : ... .. . ... : ... .. . ... ...
ROW 53 : ... .. . ... ... ... : ... .. . ... ... ... : ... .. . ... : ... .. . ... : ... .. . ... ...
ROW 54 : ... .. . ... ... ... : ... .. . ... ... ... : ... .. . ... : ... .. . ... : ... .. . ... ...
ROW 55 : ... .. . ... ... ... : ... .. . ... ... ... : ... .. . ... : ... .. . ... : ... .. . ... ...
ROW 56 : ... .. . ... ... ... : ... .. . ... ... ... : ... .. . ... : ... .. . ... : ... .. . ... ...
ROW 57 : ... .. . ... ... ... : ... .. . ... ... ... : ... .. . ... : ... .. . ... : ... .. . ... ...
ROW 58 : ... .. . ... ... ... : ... .. . ... ... ... : ... .. . ... : ... .. . ... : ... .. . ... ...
ROW 59 : C-3 00 4 P80 ... ... : ... .. . ... ... ... : D#2 00 . ... : ... .. C ... : ... .. . ... ...
ROW 5A : ... .. 5 ... ... ... : ... .. . ... ... ... : ... .. . ... : ... .. 8 ... : ... .. . ... ...
ROW 5B : ... .. 6 ... ... ... : ... .. . ... ... ... : ... .. . ... : ... .. 4 ... : ... .. . ... ...
ROW 5C : ... .. 7 ... ... ... : ... .. . ... ... ... : ... .. . ... : ... .. 0 ... : ... .. . ... ...
ROW 5D : ... .. 8 ... ... ... : ... .. . ... ... ... : ... .. . ... : ... .. . ... : ... .. . ... ...
ROW 5E : ... .. 7 ... ... ... : ... .. . ... ... ... : ... .. . ... : ... .. . ... : ... .. . ... ...
ROW 5F : ... .. 6 ... ... ... : ... .. . ... ... ... : ... .. . ... : ... .. . ... : ... .. . ... ...
ROW 60 : ... .. 5 ... ... ... : ... .. . ... ... ... : --- .. . ... : ... .. . ... : ... .. . ... ...
ROW 61 : ... .. 4 ... ... ... : ... .. . ... ... ... : C-2 00 . ... : ... .. . ... : ... .. . ... ...
ROW 62 : ... .. . ... ... ... : ... .. . ... ... ... : ... .. . ... : ... .. . ... : ... .. . ... ...
ROW 63 : ... .. . ... ... ... : ... .. . ... ... ... : ... .. . ... : ... .. . ... : ... .. . ... ...
ROW 64 : ... .. . ... ... ... : ... .. . ... ... ... : ... .. . ... : ... .. . ... : ... .. . ... ...
ROW 65 : ... .. . ... ... ... : ... .. . ... ... ... : ... .. . ... : ... .. . ... : ... .. . ... ...
ROW 66 : ... .. . ... ... ... : ... .. . ... ... ... : ... .. . ... : ... .. . ... : ... .. . ... ...
ROW 67 : ... .. . ... ... ... : ... .. . ... ... ... : ... .. . ... : ... .. . ... : ... .. . ... ...
ROW 68 : ... .. . ... ... ... : ... .. . ... ... ... : --- .. . ... : ... .. . ... : ... .. . ... ...
ROW 69 : ... .. . ... ... ... : ... .. . ... ... ... : D#2 00 . ... : ... .. . ... : ... .. . ... ...
ROW 6A : ... .. . ... ... ... : ... .. . ... ... ... : ... .. . ... : ... .. . ... : ... .. . ... ...
ROW 6B : ... .. . ... ... ... : ... .. . ... ... ... : ... .. . ... : ... .. . ... : ... .. . ... ...
ROW 6C : ... .. . ... ... ... : ... .. . ... ... ... : ... .. . ... : ... .. . ... : ... .. . ... ...
ROW 6D : ... .. . ... ... ... : ... .. . ... ... ... : ... .. . ... : ... .. . ... : ... .. . ... ...
ROW 6E : ... .. . ... ... ... : ... .. . ... ... ... : ... .. . ... : ... .. . ... : ... .. . ... ...
ROW 6F : ... .. . ... ... ... : ... .. . ... ... ... : ... .. . ... : ... .. . ... : ... .. . ... ...
ROW 70 : ... .. . ... ... ... : ... .. . ... ... ... : --- .. . ... : ... .. . ... : ... .. . ... ...
ROW 71 : A-2 00 4 P7F ... ... : ... .. . ... ... ... : D#2 00 . ... : ... .. C ... : ... .. . ... ...
ROW 72 : ... .. 5 ... ... ... : ... .. . ... ... ... : ... .. . ... : ... .. 8 ... : ... .. . ... ...
ROW 73 : ... .. 6 ... ... ... : ... .. . ... ... ... : ... .. . ... : ... .. 4 ... : ... .. . ... ...
ROW 74 : ... .. 7 ... ... ... : ... .. . ... ... ... : ... .. . ... : ... .. 0 ... : ... .. . ... ...
ROW 75 : ... .. 8 ... ... ... : ... .. . ... ... ... : ... .. . ... : ... .. . ... : ... .. . ... ...
ROW 76 : ... .. 7 ... ... ... : ... .. . ... ... ... : ... .. . ... : ... .. . ... : ... .. . ... ...
ROW 77 : ... .. 6 ... ... ... : ... .. . ... ... ... : ... .. . ... : ... .. . ... : ... .. . ... ...
ROW 78 : ... .. 5 ... ... ... : ... .. . ... ... ... : ... .. . ... : ... .. . ... : ... .. . ... ...
ROW 79 : ... .. 4 ... ... ... : ... .. . ... ... ... : ... .. . ... : ... .. . ... : ... .. . ... ...
ROW 7A : ... .. . ... ... ... : ... .. . ... ... ... : ... .. . ... : ... .. . ... : ... .. . ... ...
ROW 7B : ... .. . ... ... ... : ... .. . ... ... ... : ... .. . ... : ... .. . ... : ... .. . ... ...
ROW 7C : ... .. . ... ... ... : ... .. . ... ... ... : ... .. . ... : ... .. . ... : ... .. . ... ...
ROW 7D : ... .. . ... ... ... : ... .. . ... ... ... : ... .. . ... : ... .. . ... : ... .. . ... ...
ROW 7E : ... .. . ... ... ... : ... .. . ... ... ... : ... .. . ... : ... .. . ... : ... .. . ... ...
ROW 7F : ... .. . ... ... ... : ... .. . ... ... ... : ... .. . ... : ... .. . ... : ... .. . ... ...

PATTERN 26
ROW 00 : ... .. . ... ... ... : ... .. . ... ... ... : --- .. . ... : ... .. . ... : ... .. . ... ...
ROW 01 : ... .. . ... ... ... : ... .. . ... ... ... : ... .. . ... : ... .. . ... : ... .. . ... ...
ROW 02 : ... .. . ... ... ... : ... .. . ... ... ... : ... .. . ... : ... .. . ... : ... .. . ... ...
ROW 03 : ... .. . ... ... ... : ... .. . ... ... ... : ... .. . ... : ... .. . ... : ... .. . ... ...
ROW 04 : ... .. . ... ... ... : ... .. . ... ... ... : ... .. . ... : ... .. . ... : ... .. . ... ...
ROW 05 : ... .. . ... ... ... : ... .. . ... ... ... : ... .. . ... : ... .. . ... : ... .. . ... ...
ROW 06 : ... .. . ... ... ... : ... .. . ... ... ... : ... .. . ... : ... .. . ... : ... .. . ... ...
ROW 07 : ... .. . ... ... ... : ... .. . ... ... ... : ... .. . ... : ... .. . ... : ... .. . ... ...
ROW 08 : ... .. . ... ... ... : ... .. . ... ... ... : ... .. . ... : ... .. . ... : ... .. . ... ...
ROW 09 : C-3 00 4 P80 ... ... : A-3 00 D P80 ... ... : D#2 00 . ... : ... .. C ... : ... .. . ... ...
ROW 0A : ... .. 5 ... ... ... : ... .. 9 ... ... ... : ... .. . ... : ... .. 8 ... : ... .. . ... ...
ROW 0B : ... .. 6 ... ... ... : ... .. 7 ... ... ... : ... .. . ... : ... .. 4 ... : ... .. . ... ...
ROW 0C : ... .. 7 ... ... ... : ... .. 6 ... ... ... : ... .. . ... : ... .. 0 ... : ... .. . ... ...
ROW 0D : ... .. 8 ... ... ... : ... .. 5 ... ... ... : ... .. . ... : ... .. . ... : ... .. . ... ...
ROW 0E : ... .. 7 ... ... ... : ... .. . ... ... ... : ... .. . ... : ... .. . ... : ... .. . ... ...
ROW 0F : ... .. 6 ... ... ... : ... .. . ... ... ... : ... .. . ... : ... .. . ... : ... .. . ... ...
ROW 10 : ... .. 5 ... ... ... : ... .. 4 ... ... ... : --- .. . ... : ... .. . ... : ... .. . ... ...
ROW 11 : A#2 00 4 P80 ... ... : G-3 00 D P80 ... ... : C-2 00 . ... : ... .. C ... : ... .. . ... ...
ROW 12 : ... .. 5 ... ... ... : ... .. 9 ... ... ... : ... .. . ... : ... .. 8 ... : ... .. . ... ...
ROW 13 : ... .. 6 ... ... ... : ... .. 7 ... ... ... : ... .. . ... : ... .. 4 ... : ... .. . ... ...
ROW 14 : ... .. 7 ... ... ... : ... .. 6 ... ... ... : ... .. . ... : ... .. 0 ... : ... .. . ... ...
ROW 15 : ... .. 8 ... ... ... : ... .. 5 ... ... ... : ... .. . ... : ... .. . ... : ... .. . ... ...
ROW 16 : ... .. 7 ... ... ... : ... .. . ... ... ... : ... .. . ... : ... .. . ... : ... .. . ... ...
ROW 17 : ... .. 6 ... ... ... : ... .. . ... ... ... : ... .. . ... : ... .. . ... : ... .. . ... ...
ROW 18 : ... .. 5 ... ... ... : ... .. 4 ... ... ... : --- .. . ... : ... .. . ... : ... .. . ... ...
ROW 19 : C-3 00 4 P80 ... ... : A-3 00 D P80 ... ... : D#2 00 . ... : ... .. C ... : ... .. . ... ...
ROW 1A : ... .. 5 ... ... ... : ... .. 9 ... ... ... : ... .. . ... : ... .. 8 ... : ... .. . ... ...
ROW 1B : ... .. 6 ... ... ... : ... .. 7 ... ... ... : ... .. . ... : ... .. 4 ... : ... .. . ... ...
ROW 1C : ... .. 7 ... ... ... : ... .. 6 ... ... ... : ... .. . ... : ... .. 0 ... : ... .. . ... ...
ROW 1D : ... .. 8 ... ... ... : ... .. 5 ... ... ... : ... .. . ... : ... .. . ... : ... .. . ... ...
ROW 1E : ... .. 7 ... ... ... : ... .. . ... ... ... : ... .. . ... : ... .. . ... : ... .. . ... ...
ROW 1F : ... .. 6 ... ... ... : ... .. . ... ... ... : ... .. . ... : ... .. . ... : ... .. . ... ...
ROW 20 : ... .. 5 ... ... ... : ... .. 4 ... ... ... : --- .. . ... : ... .. . ... : ... .. . ... ...
ROW 21 : D-3 00 4 P80 ... ... : A#3 00 D P81 ... ... : D-2 00 . P80 : ... .. C ... : ... .. . ... ...
ROW 22 : ... .. 5 ... ... ... : ... .. 9 ... ... ... : ... .. . ... : ... .. 8 ... : ... .. . ... ...
ROW 23 : ... .. 6 ... ... ... : ... .. 7 ... ... ... : ... .. . ... : ... .. 4 ... : ... .. . ... ...
ROW 24 : ... .. 7 ... ... ... : ... .. 6 ... ... ... : ... .. . ... : ... .. 0 ... : ... .. . ... ...
ROW 25 : ... .. 8 ... ... ... : ... .. 5 ... ... ... : ... .. . ... : ... .. . ... : ... .. . ... ...
ROW 26 : ... .. 7 ... ... ... : ... .. . ... ... ... : ... .. . ... : ... .. . ... : ... .. . ... ...
ROW 27 : ... .. 6 ... ... ... : ... .. . ... ... ... : ... .. . ... : ... .. . ... : ... .. . ... ...
ROW 28 : ... .. 5 ... ... ... : ... .. 4 ... ... ... : ... .. . ... : ... .. . ... : ... .. . ... ...
ROW 29 : ... .. 4 ... ... ... : ... .. . ... ... ... : ... .. . ... : ... .. . ... : ... .. . ... ...
ROW 2A : ... .. . ... ... ... : ... .. . ... ... ... : ... .. . ... : ... .. . ... : ... .. . ... ...
ROW 2B : ... .. . ... ... ... : ... .. . ... ... ... : ... .. . ... : ... .. . ... : ... .. . ... ...
ROW 2C : ... .. . ... ... ... : ... .. . ... ... ... : ... .. . ... : ... .. . ... : ... .. . ... ...
ROW 2D : ... .. . ... ... ... : ... .. . ... ... ... : ... .. . ... : ... .. . ... : ... .. . ... ...
ROW 2E : ... .. . ... ... ... : ... .. . ... ... ... : ... .. . ... : ... .. . ... : ... .. . ... ...
ROW 2F : ... .. . ... ... ... : ... .. . ... ... ... : ... .. . ... : ... .. . ... : ... .. . ... ...
ROW 30 : ... .. . ... ... ... : ... .. . ... ... ... : --- .. . ... : ... .. . ... : ... .. . ... ...
ROW 31 : ... .. . ... ... ... : ... .. . ... ... ... : ... .. . ... : ... .. . ... : ... .. . ... ...
ROW 32 : ... .. . ... ... ... : ... .. . ... ... ... : ... .. . ... : ... .. . ... : ... .. . ... ...
ROW 33 : ... .. . ... ... ... : ... .. . ... ... ... : ... .. . ... : ... .. . ... : ... .. . ... ...
ROW 34 : ... .. . ... ... ... : ... .. . ... ... ... : ... .. . ... : ... .. . ... : ... .. . ... ...
ROW 35 : ... .. . ... ... ... : ... .. . ... ... ... : ... .. . ... : ... .. . ... : ... .. . ... ...
ROW 36 : ... .. . ... ... ... : ... .. . ... ... ... : ... .. . ... : ... .. . ... : ... .. . ... ...
ROW 37 : ... .. . ... ... ... : ... .. . ... ... ... : ... .. . ... : ... .. . ... : ... .. . ... ...
ROW 38 : ... .. . ... ... ... : ... .. . ... ... ... : ... .. . ... : ... .. . ... : ... .. . ... ...
ROW 39 : F-3 00 4 P80 ... ... : ... .. . ... ... ... : D-2 00 . ... : ... .. C ... : ... .. . ... ...
ROW 3A : ... .. 5 ... ... ... : ... .. . ... ... ... : ... .. . ... : ... .. 8 ... : ... .. . ... ...
ROW 3B : ... .. 6 ... ... ... : ... .. . ... ... ... : ... .. . ... : ... .. 4 ... : ... .. . ... ...
ROW 3C : ... .. 7 ... ... ... : ... .. . ... ... ... : ... .. . ... : ... .. 0 ... : ... .. . ... ...
ROW 3D : ... .. 8 ... ... ... : ... .. . ... ... ... : ... .. . ... : ... .. . ... : ... .. . ... ...
ROW 3E : ... .. 7 ... ... ... : ... .. . ... ... ... : ... .. . ... : ... .. . ... : ... .. . ... ...
ROW 3F : ... .. 6 ... ... ... : ... .. . ... ... ... : ... .. . ... : ... .. . ... : ... .. . ... ...
ROW 40 : ... .. 5 ... ... ... : ... .. . ... ... ... : --- .. . ... : ... .. . ... : ... .. . ... ...
ROW 41 : ... .. 4 ... ... ... : ... .. . ... ... ... : A#1 00 . ... : ... .. . ... : ... .. . ... ...
ROW 42 : ... .. . ... ... ... : ... .. . ... ... ... : ... .. . ... : ... .. . ... : ... .. . ... ...
ROW 43 : ... .. . ... ... ... : ... .. . ... ... ... : ... .. . ... : ... .. . ... : ... .. . ... ...
ROW 44 : ... .. . ... ... ... : ... .. . ... ... ... : ... .. . ... : ... .. . ... : ... .. . ... ...
ROW 45 : ... .. . ... ... ... : ... .. . ... ... ... : ... .. . ... : ... .. . ... : ... .. . ... ...
ROW 46 : ... .. . ... ... ... : ... .. . ... ... ... : ... .. . ... : ... .. . ... : ... .. . ... ...
ROW 47 : ... .. . ... ... ... : ... .. . ... ... ... : ... .. . ... : ... .. . ... : ... .. . ... ...
ROW 48 : ... .. . ... ... ... : ... .. . ... ... ... : --- .. . ... : ... .. . ... : ... .. . ... ...
ROW 49 : ... .. . ... ... ... : ... .. . ... ... ... : D-2 00 . ... : ... .. . ... : ... .. . ... ...
ROW 4A : ... .. . ... ... ... : ... .. . ... ... ... : ... .. . ... : ... .. . ... : ... .. . ... ...
ROW 4B : ... .. . ... ... ... : ... .. . ... ... ... : ... .. . ... : ... .. . ... : ... .. . ... ...
ROW 4C : ... .. . ... ... ... : ... .. . ... ... ... : ... .. . ... : ... .. . ... : ... .. . ... ...
ROW 4D : ... .. . ... ... ... : ... .. . ... ... ... : ... .. . ... : ... .. . ... : ... .. . ... ...
ROW 4E : ... .. . ... ... ... : ... .. . ... ... ... : ... .. . ... : ... .. . ... : ... .. . ... ...
ROW 4F : ... .. . ... ... ... : ... .. . ... ... ... : ... .. . ... : ... .. . ... : ... .. . ... ...
ROW 50 : ... .. . ... ... ... : ... .. . ... ... ... : --- .. . ... : ... .. . ... : ... .. . ... ...
ROW 51 : C-3 00 4 P80 ... ... : F-3 00 D P80 ... ... : D-2 00 . ... : ... .. C ... : ... .. . ... ...
ROW 52 : ... .. 5 ... ... ... : ... .. 9 ... ... ... : ... .. . ... : ... .. 8 ... : ... .. . ... ...
ROW 53 : ... .. 6 ... ... ... : ... .. 7 ... ... ... : ... .. . ... : ... .. 4 ... : ... .. . ... ...
ROW 54 : ... .. 7 ... ... ... : ... .. 6 ... ... ... : ... .. . ... : ... .. 0 ... : ... .. . ... ...
ROW 55 : ... .. 8 ... ... ... : ... .. 5 ... ... ... : ... .. . ... : ... .. . ... : ... .. . ... ...
ROW 56 : ... .. 7 ... ... ... : ... .. . ... ... ... : ... .. . ... : ... .. . ... : ... .. . ... ...
ROW 57 : ... .. 6 ... ... ... : ... .. . ... ... ... : ... .. . ... : ... .. . ... : ... .. . ... ...
ROW 58 : ... .. 5 ... ... ... : ... .. 4 ... ... ... : ... .. . ... : ... .. . ... : ... .. . ... ...
ROW 59 : ... .. 4 ... ... ... : ... .. . ... ... ... : ... .. . ... : ... .. . ... : ... .. . ... ...
ROW 5A : ... .. . ... ... ... : ... .. . ... ... ... : ... .. . ... : ... .. . ... : ... .. . ... ...
ROW 5B : ... .. . ... ... ... : ... .. . ... ... ... : ... .. . ... : ... .. . ... : ... .. . ... ...
ROW 5C : ... .. . ... ... ... : ... .. . ... ... ... : ... .. . ... : ... .. . ... : ... .. . ... ...
ROW 5D : ... .. . ... ... ... : ... .. . ... ... ... : ... .. . ... : ... .. . ... : ... .. . ... ...
ROW 5E : ... .. . ... ... ... : ... .. . ... ... ... : ... .. . ... : ... .. . ... : ... .. . ... ...
ROW 5F : ... .. . ... ... ... : ... .. . ... ... ... : ... .. . ... : ... .. . ... : ... .. . ... ...
ROW 60 : ... .. . ... ... ... : ... .. . ... ... ... : --- .. . ... : ... .. . ... : ... .. . ... ...
ROW 61 : ... .. . ... ... ... : ... .. . ... ... ... : ... .. . ... : ... .. . ... : ... .. . ... ...
ROW 62 : ... .. . ... ... ... : ... .. . ... ... ... : ... .. . ... : ... .. . ... : ... .. . ... ...
ROW 63 : ... .. . ... ... ... : ... .. . ... ... ... : ... .. . ... : ... .. . ... : ... .. . ... ...
ROW 64 : ... .. . ... ... ... : ... .. . ... ... ... : ... .. . ... : ... .. . ... : ... .. . ... ...
ROW 65 : ... .. . ... ... ... : ... .. . ... ... ... : ... .. . ... : ... .. . ... : ... .. . ... ...
ROW 66 : ... .. . ... ... ... : ... .. . ... ... ... : ... .. . ... : ... .. . ... : ... .. . ... ...
ROW 67 : ... .. . ... ... ... : ... .. . ... ... ... : ... .. . ... : ... .. . ... : ... .. . ... ...
ROW 68 : ... .. . ... ... ... : ... .. . ... ... ... : ... .. . ... : ... .. . ... : ... .. . ... ...
ROW 69 : ... .. . ... ... ... : C-3 00 D P80 ... ... : D-2 00 . ... : ... .. C ... : ... .. . ... ...
ROW 6A : ... .. . ... ... ... : ... .. 9 ... ... ... : ... .. . ... : ... .. 8 ... : ... .. . ... ...
ROW 6B : ... .. . ... ... ... : ... .. 7 ... ... ... : ... .. . ... : ... .. 4 ... : ... .. . ... ...
ROW 6C : ... .. . ... ... ... : ... .. 6 ... ... ... : ... .. . ... : ... .. 0 ... : ... .. . ... ...
ROW 6D : ... .. . ... ... ... : ... .. 5 ... ... ... : ... .. . ... : ... .. . ... : ... .. . ... ...
ROW 6E : ... .. . ... ... ... : ... .. . ... ... ... : ... .. . ... : ... .. . ... : ... .. . ... ...
ROW 6F : ... .. . ... ... ... : ... .. . ... ... ... : ... .. . ... : ... .. . ... : ... .. . ... ...
ROW 70 : ... .. . ... ... ... : ... .. 4 ... ... ... : --- .. . ... : ... .. . ... : ... .. . ... ...
ROW 71 : ... .. . ... ... ... : F-3 00 D P80 ... ... : A#1 00 . ... : ... .. C ... : ... .. . ... ...
ROW 72 : ... .. . ... ... ... : ... .. 9 ... ... ... : ... .. . ... : ... .. 8 ... : ... .. . ... ...
ROW 73 : ... .. . ... ... ... : ... .. 7 ... ... ... : ... .. . ... : ... .. 4 ... : ... .. . ... ...
ROW 74 : ... .. . ... ... ... : ... .. 6 ... ... ... : ... .. . ... : ... .. 0 ... : ... .. . ... ...
ROW 75 : ... .. . ... ... ... : ... .. 5 ... ... ... : ... .. . ... : ... .. . ... : ... .. . ... ...
ROW 76 : ... .. . ... ... ... : ... .. . ... ... ... : ... .. . ... : ... .. . ... : ... .. . ... ...
ROW 77 : ... .. . ... ... ... : ... .. . ... ... ... : ... .. . ... : ... .. . ... : ... .. . ... ...
ROW 78 : ... .. . ... ... ... : ... .. 4 ... ... ... : --- .. . ... : ... .. . ... : ... .. . ... ...
ROW 79 : ... .. . ... ... ... : G-3 00 D P80 ... ... : D-2 00 . ... : ... .. C ... : ... .. . ... ...
ROW 7A : ... .. . ... ... ... : ... .. 9 ... ... ... : ... .. . ... : ... .. 8 ... : ... .. . ... ...
ROW 7B : ... .. . ... ... ... : ... .. 7 ... ... ... : ... .. . ... : ... .. 4 ... : ... .. . ... ...
ROW 7C : ... .. . ... ... ... : ... .. 6 ... ... ... : ... .. . ... : ... .. 0 ... : ... .. . ... ...
ROW 7D : ... .. . ... ... ... : ... .. 5 ... ... ... : ... .. . ... : ... .. . ... : ... .. . ... ...
ROW 7E : ... .. . ... ... ... : ... .. . ... ... ... : ... .. . ... : ... .. . ... : ... .. . ... ...
ROW 7F : ... .. . ... ... ... : ... .. . ... ... ... : ... .. . ... : ... .. . ... : ... .. . ... ...

PATTERN 27
ROW 00 : ... .. . ... ... ... : ... .. 4 ... ... ... : --- .. . ... : ... .. . ... : ... .. . ... ...
ROW 01 : D#3 00 4 P80 ... ... : A-3 00 D P80 ... ... : D#2 00 . P7F : ... .. C ... : ... .. . ... ...
ROW 02 : ... .. 5 ... ... ... : ... .. 9 ... ... ... : ... .. . ... : ... .. 8 ... : ... .. . ... ...
ROW 03 : ... .. 6 ... ... ... : ... .. 7 ... ... ... : ... .. . ... : ... .. 4 ... : ... .. . ... ...
ROW 04 : ... .. 7 ... ... ... : ... .. 6 ... ... ... : ... .. . ... : ... .. 0 ... : ... .. . ... ...
ROW 05 : ... .. 8 ... ... ... : ... .. 5 ... ... ... : ... .. . ... : ... .. . ... : ... .. . ... ...
ROW 06 : ... .. 7 ... ... ... : ... .. . ... ... ... : ... .. . ... : ... .. . ... : ... .. . ... ...
ROW 07 : ... .. 6 ... ... ... : ... .. . ... ... ... : ... .. . ... : ... .. . ... : ... .. . ... ...
ROW 08 : ... .. 5 ... ... ... : ... .. 4 ... ... ... : ... .. . ... : ... .. . ... : ... .. . ... ...
ROW 09 : ... .. 4 ... ... ... : ... .. . ... ... ... : ... .. . ... : ... .. . ... : ... .. . ... ...
ROW 0A : ... .. . ... ... ... : ... .. . ... ... ... : ... .. . ... : ... .. . ... : ... .. . ... ...
ROW 0B : ... .. . ... ... ... : ... .. . ... ... ... : ... .. . ... : ... .. . ... : ... .. . ... ...
ROW 0C : ... .. . ... ... ... : ... .. . ... ... ... : ... .. . ... : ... .. . ... : ... .. . ... ...
ROW 0D : ... .. . ... ... ... : ... .. . ... ... ... : ... .. . ... : ... .. . ... : ... .. . ... ...
ROW 0E : ... .. . ... ... ... : ... .. . ... ... ... : ... .. . ... : ... .. . ... : ... .. . ... ...
ROW 0F : ... .. . ... ... ... : ... .. . ... ... ... : ... .. . ... : ... .. . ... : ... .. . ... ...
ROW 10 : ... .. . ... ... ... : ... .. . ... ... ... : --- .. . ... : ... .. . ... : ... .. . ... ...
ROW 11 : ... .. . ... ... ... : ... .. . ... ... ... : ... .. . ... : ... .. . ... : ... .. . ... ...
ROW 12 : ... .. . ... ... ... : ... .. . ... ... ... : ... .. . ... : ... .. . ... : ... .. . ... ...
ROW 13 : ... .. . ... ... ... : ... .. . ... ... ... : ... .. . ... : ... .. . ... : ... .. . ... ...
ROW 14 : ... .. . ... ... ... : ... .. . ... ... ... : ... .. . ... : ... .. . ... : ... .. . ... ...
ROW 15 : ... .. . ... ... ... : ... .. . ... ... ... : ... .. . ... : ... .. . ... : ... .. . ... ...
ROW 16 : ... .. . ... ... ... : ... .. . ... ... ... : ... .. . ... : ... .. . ... : ... .. . ... ...
ROW 17 : ... .. . ... ... ... : ... .. . ... ... ... : ... .. . ... : ... .. . ... : ... .. . ... ...
ROW 18 : ... .. . ... ... ... : ... .. . ... ... ... : ... .. . ... : ... .. . ... : ... .. . ... ...
ROW 19 : A-2 00 4 P7F ... ... : ... .. . ... ... ... : D#2 00 . ... : ... .. C ... : ... .. . ... ...
ROW 1A : ... .. 5 ... ... ... : ... .. . ... ... ... : ... .. . ... : ... .. 8 ... : ... .. . ... ...
ROW 1B : ... .. 6 ... ... ... : ... .. . ... ... ... : ... .. . ... : ... .. 4 ... : ... .. . ... ...
ROW 1C : ... .. 7 ... ... ... : ... .. . ... ... ... : ... .. . ... : ... .. 0 ... : ... .. . ... ...
ROW 1D : ... .. 8 ... ... ... : ... .. . ... ... ... : ... .. . ... : ... .. . ... : ... .. . ... ...
ROW 1E : ... .. 7 ... ... ... : ... .. . ... ... ... : ... .. . ... : ... .. . ... : ... .. . ... ...
ROW 1F : ... .. 6 ... ... ... : ... .. . ... ... ... : ... .. . ... : ... .. . ... : ... .. . ... ...
ROW 20 : ... .. 5 ... ... ... : ... .. . ... ... ... : --- .. . ... : ... .. . ... : ... .. . ... ...
ROW 21 : ... .. 4 ... ... ... : ... .. . ... ... ... : C-2 00 . ... : ... .. . ... : ... .. . ... ...
ROW 22 : ... .. . ... ... ... : ... .. . ... ... ... : ... .. . ... : ... .. . ... : ... .. . ... ...
ROW 23 : ... .. . ... ... ... : ... .. . ... ... ... : ... .. . ... : ... .. . ... : ... .. . ... ...
ROW 24 : ... .. . ... ... ... : ... .. . ... ... ... : ... .. . ... : ... .. . ... : ... .. . ... ...
ROW 25 : ... .. . ... ... ... : ... .. . ... ... ... : ... .. . ... : ... .. . ... : ... .. . ... ...
ROW 26 : ... .. . ... ... ... : ... .. . ... ... ... : ... .. . ... : ... .. . ... : ... .. . ... ...
ROW 27 : ... .. . ... ... ... : ... .. . ... ... ... : ... .. . ... : ... .. . ... : ... .. . ... ...
ROW 28 : ... .. . ... ... ... : ... .. . ... ... ... : --- .. . ... : ... .. . ... : ... .. . ... ...
ROW 29 : ... .. . ... ... ... : ... .. . ... ... ... : D#2 00 . ... : ... .. . ... : ... .. . ... ...
ROW 2A : ... .. . ... ... ... : ... .. . ... ... ... : ... .. . ... : ... .. . ... : ... .. . ... ...
ROW 2B : ... .. . ... ... ... : ... .. . ... ... ... : ... .. . ... : ... .. . ... : ... .. . ... ...
ROW 2C : ... .. . ... ... ... : ... .. . ... ... ... : ... .. . ... : ... .. . ... : ... .. . ... ...
ROW 2D : ... .. . ... ... ... : ... .. . ... ... ... : ... .. . ... : ... .. . ... : ... .. . ... ...
ROW 2E : ... .. . ... ... ... : ... .. . ... ... ... : ... .. . ... : ... .. . ... : ... .. . ... ...
ROW 2F : ... .. . ... ... ... : ... .. . ... ... ... : ... .. . ... : ... .. . ... : ... .. . ... ...
ROW 30 : ... .. . ... ... ... : ... .. . ... ... ... : --- .. . ... : ... .. . ... : ... .. . ... ...
ROW 31 : F-2 00 4 P80 ... ... : ... .. . ... ... ... : D#2 00 . ... : ... .. C ... : ... .. . ... ...
ROW 32 : ... .. 5 ... ... ... : ... .. . ... ... ... : ... .. . ... : ... .. 8 ... : ... .. . ... ...
ROW 33 : ... .. 6 ... ... ... : ... .. . ... ... ... : ... .. . ... : ... .. 4 ... : ... .. . ... ...
ROW 34 : ... .. 7 ... ... ... : ... .. . ... ... ... : ... .. . ... : ... .. 0 ... : ... .. . ... ...
ROW 35 : ... .. 8 ... ... ... : ... .. . ... ... ... : ... .. . ... : ... .. . ... : ... .. . ... ...
ROW 36 : ... .. 7 ... ... ... : ... .. . ... ... ... : ... .. . ... : ... .. . ... : ... .. . ... ...
ROW 37 : ... .. 6 ... ... ... : ... .. . ... ... ... : ... .. . ... : ... .. . ... : ... .. . ... ...
ROW 38 : ... .. 5 ... ... ... : ... .. . ... ... ... : ... .. . ... : ... .. . ... : ... .. . ... ...
ROW 39 : ... .. 4 ... ... ... : ... .. . ... ... ... : ... .. . ... : ... .. . ... : ... .. . ... ...
ROW 3A : ... .. . ... ... ... : ... .. . ... ... ... : ... .. . ... : ... .. . ... : ... .. . ... ...
ROW 3B : ... .. . ... ... ... : ... .. . ... ... ... : ... .. . ... : ... .. . ... : ... .. . ... ...
ROW 3C : ... .. . ... ... ... : ... .. . ... ... ... : ... .. . ... : ... .. . ... : ... .. . ... ...
ROW 3D : ... .. . ... ... ... : ... .. . ... ... ... : ... .. . ... : ... .. . ... : ... .. . ... ...
ROW 3E : ... .. . ... ... ... : ... .. . ... ... ... : ... .. . ... : ... .. . ... : ... .. . ... ...
ROW 3F : ... .. . ... ... ... : ... .. . ... ... ... : ... .. . ... : ... .. . ... : ... .. . ... ...
ROW 40 : ... .. . ... ... ... : ... .. . ... ... ... : --- .. . ... : ... .. . ... : ... .. . ... ...
ROW 41 : ... .. . ... ... ... : ... .. . ... ... ... : ... .. . ... : ... .. . ... : ... .. . ... ...
ROW 42 : ... .. . ... ... ... : ... .. . ... ... ... : ... .. . ... : ... .. . ... : ... .. . ... ...
ROW 43 : ... .. . ... ... ... : ... .. . ... ... ... : ... .. . ... : ... .. . ... : ... .. . ... ...
ROW 44 : ... .. . ... ... ... : ... .. . ... ... ... : ... .. . ... : ... .. . ... : ... .. . ... ...
ROW 45 : ... .. . ... ... ... : ... .. . ... ... ... : ... .. . ... : ... .. . ... : ... .. . ... ...
ROW 46 : ... .. . ... ... ... : ... .. . ... ... ... : ... .. . ... : ... .. . ... : ... .. . ... ...
ROW 47 : ... .. . ... ... ... : ... .. . ... ... ... : ... .. . ... : ... .. . ... : ... .. . ... ...
ROW 48 : ... .. . ... ... ... : ... .. . ... ... ... : ... .. . ... : ... .. . ... : ... .. . ... ...
ROW 49 : C-2 00 4 P7F ... ... : A-3 00 D P80 ... ... : D#2 00 . ... : ... .. C ... : ... .. . ... ...
ROW 4A : ... .. 5 ... ... ... : ... .. 9 ... ... ... : ... .. . ... : ... .. 8 ... : ... .. . ... ...
ROW 4B : ... .. 6 ... ... ... : ... .. 7 ... ... ... : ... .. . ... : ... .. 4 ... : ... .. . ... ...
ROW 4C : ... .. 7 ... ... ... : ... .. 6 ... ... ... : ... .. . ... : ... .. 0 ... : ... .. . ... ...
ROW 4D : ... .. 8 ... ... ... : ... .. 5 ... ... ... : ... .. . ... : ... .. . ... : ... .. . ... ...
ROW 4E : ... .. 7 ... ... ... : ... .. . ... ... ... : ... .. . ... : ... .. . ... : ... .. . ... ...
ROW 4F : ... .. 6 ... ... ... : ... .. . ... ... ... : ... .. . ... : ... .. . ... : ... .. . ... ...
ROW 50 : ... .. 5 ... ... ... : ... .. 4 ... ... ... : --- .. . ... : ... .. . ... : ... .. . ... ...
ROW 51 : A#2 00 4 P80 ... ... : G-3 00 D P80 ... ... : C-2 00 . ... : ... .. C ... : ... .. . ... ...
ROW 52 : ... .. 5 ... ... ... : ... .. 9 ... ... ... : ... .. . ... : ... .. 8 ... : ... .. . ... ...
ROW 53 : ... .. 6 ... ... ... : ... .. 7 ... ... ... : ... .. . ... : ... .. 4 ... : ... .. . ... ...
ROW 54 : ... .. 7 ... ... ... : ... .. 6 ... ... ... : ... .. . ... : ... .. 0 ... : ... .. . ... ...
ROW 55 : ... .. 8 ... ... ... : ... .. 5 ... ... ... : ... .. . ... : ... .. . ... : ... .. . ... ...
ROW 56 : ... .. 7 ... ... ... : ... .. . ... ... ... : ... .. . ... : ... .. . ... : ... .. . ... ...
ROW 57 : ... .. 6 ... ... ... : ... .. . ... ... ... : ... .. . ... : ... .. . ... : ... .. . ... ...
ROW 58 : ... .. 5 ... ... ... : ... .. 4 ... ... ... : --- .. . ... : ... .. . ... : ... .. . ... ...
ROW 59 : C-2 00 4 P7F ... ... : A-3 00 D P80 ... ... : D#2 00 . ... : ... .. C ... : ... .. . ... ...
ROW 5A : ... .. 5 ... ... ... : ... .. 9 ... ... ... : ... .. . ... : ... .. 8 ... : ... .. . ... ...
ROW 5B : ... .. 6 ... ... ... : ... .. 7 ... ... ... : ... .. . ... : ... .. 4 ... : ... .. . ... ...
ROW 5C : ... .. 7 ... ... ... : ... .. 6 ... ... ... : ... .. . ... : ... .. 0 ... : ... .. . ... ...
ROW 5D : ... .. 8 ... ... ... : ... .. 5 ... ... ... : ... .. . ... : ... .. . ... : ... .. . ... ...
ROW 5E : ... .. 7 ... ... ... : ... .. . ... ... ... : ... .. . ... : ... .. . ... : ... .. . ... ...
ROW 5F : ... .. 6 ... ... ... : ... .. . ... ... ... : ... .. . ... : ... .. . ... : ... .. . ... ...
ROW 60 : ... .. 5 ... ... ... : ... .. 4 ... ... ... : --- .. . ... : ... .. . ... : ... .. . ... ...
ROW 61 : D-2 00 4 P80 ... ... : A#3 00 D P81 ... ... : D-2 00 . P80 : ... .. C ... : ... .. . ... ...
ROW 62 : ... .. 5 ... ... ... : ... .. 9 ... ... ... : ... .. . ... : ... .. 8 ... : ... .. . ... ...
ROW 63 : ... .. 6 ... ... ... : ... .. 7 ... ... ... : ... .. . ... : ... .. 4 ... : ... .. . ... ...
ROW 64 : ... .. 7 ... ... ... : ... .. 6 ... ... ... : ... .. . ... : ... .. 0 ... : ... .. . ... ...
ROW 65 : ... .. 8 ... ... ... : ... .. 5 ... ... ... : ... .. . ... : ... .. . ... : ... .. . ... ...
ROW 66 : ... .. 7 ... ... ... : ... .. . ... ... ... : ... .. . ... : ... .. . ... : ... .. . ... ...
ROW 67 : ... .. 6 ... ... ... : ... .. . ... ... ... : ... .. . ... : ... .. . ... : ... .. . ... ...
ROW 68 : ... .. 5 ... ... ... : ... .. 4 ... ... ... : ... .. . ... : ... .. . ... : ... .. . ... ...
ROW 69 : ... .. 4 ... ... ... : ... .. . ... ... ... : ... .. . ... : ... .. . ... : ... .. . ... ...
ROW 6A : ... .. . ... ... ... : ... .. . ... ... ... : ... .. . ... : ... .. . ... : ... .. . ... ...
ROW 6B : ... .. . ... ... ... : ... .. . ... ... ... : ... .. . ... : ... .. . ... : ... .. . ... ...
ROW 6C : ... .. . ... ... ... : ... .. . ... ... ... : ... .. . ... : ... .. . ... : ... .. . ... ...
ROW 6D : ... .. . ... ... ... : ... .. . ... ... ... : ... .. . ... : ... .. . ... : ... .. . ... ...
ROW 6E : ... .. . ... ... ... : ... .. . ... ... ... : ... .. . ... : ... .. . ... : ... .. . ... ...
ROW 6F : ... .. . ... ... ... : ... .. . ... ... ... : ... .. . ... : ... .. . ... : ... .. . ... ...
ROW 70 : ... .. . ... ... ... : ... .. . ... ... ... : --- .. . ... : ... .. . ... : ... .. . ... ...
ROW 71 : ... .. . ... ... ... : ... .. . ... ... ... : ... .. . ... : ... .. . ... : ... .. . ... ...
ROW 72 : ... .. . ... ... ... : ... .. . ... ... ... : ... .. . ... : ... .. . ... : ... .. . ... ...
ROW 73 : ... .. . ... ... ... : ... .. . ... ... ... : ... .. . ... : ... .. . ... : ... .. . ... ...
ROW 74 : ... .. . ... ... ... : ... .. . ... ... ... : ... .. . ... : ... .. . ... : ... .. . ... ...
ROW 75 : ... .. . ... ... ... : ... .. . ... ... ... : ... .. . ... : ... .. . ... : ... .. . ... ...
ROW 76 : ... .. . ... ... ... : ... .. . ... ... ... : ... .. . ... : ... .. . ... : ... .. . ... ...
ROW 77 : ... .. . ... ... ... : ... .. . ... ... ... : ... .. . ... : ... .. . ... : ... .. . ... ...
ROW 78 : ... .. . ... ... ... : ... .. . ... ... ... : ... .. . ... : ... .. . ... : ... .. . ... ...
ROW 79 : F-2 00 4 P80 ... ... : ... .. . ... ... ... : D-2 00 . ... : ... .. C ... : ... .. . ... ...
ROW 7A : ... .. 5 ... ... ... : ... .. . ... ... ... : ... .. . ... : ... .. 8 ... : ... .. . ... ...
ROW 7B : ... .. 6 ... ... ... : ... .. . ... ... ... : ... .. . ... : ... .. 4 ... : ... .. . ... ...
ROW 7C : ... .. 7 ... ... ... : ... .. . ... ... ... : ... .. . ... : ... .. 0 ... : ... .. . ... ...
ROW 7D : ... .. 8 ... ... ... : ... .. . ... ... ... : ... .. . ... : ... .. . ... : ... .. . ... ...
ROW 7E : ... .. 7 ... ... ... : ... .. . ... ... ... : ... .. . ... : ... .. . ... : ... .. . ... ...
ROW 7F : ... .. 6 ... ... ... : ... .. . ... ... ... : ... .. . ... : ... .. . ... : ... .. . ... ...

PATTERN 28
ROW 00 : ... .. 5 ... ... ... : ... .. . ... ... ... : --- .. . ... : ... .. . ... : ... .. . ... ...
ROW 01 : ... .. 4 ... ... ... : ... .. . ... ... ... : A#1 00 . ... : ... .. . ... : ... .. . ... ...
ROW 02 : ... .. . ... ... ... : ... .. . ... ... ... : ... .. . ... : ... .. . ... : ... .. . ... ...
ROW 03 : ... .. . ... ... ... : ... .. . ... ... ... : ... .. . ... : ... .. . ... : ... .. . ... ...
ROW 04 : ... .. . ... ... ... : ... .. . ... ... ... : ... .. . ... : ... .. . ... : ... .. . ... ...
ROW 05 : ... .. . ... ... ... : ... .. . ... ... ... : ... .. . ... : ... .. . ... : ... .. . ... ...
ROW 06 : ... .. . ... ... ... : ... .. . ... ... ... : ... .. . ... : ... .. . ... : ... .. . ... ...
ROW 07 : ... .. . ... ... ... : ... .. . ... ... ... : ... .. . ... : ... .. . ... : ... .. . ... ...
ROW 08 : ... .. . ... ... ... : ... .. . ... ... ... : --- .. . ... : ... .. . ... : ... .. . ... ...
ROW 09 : ... .. . ... ... ... : ... .. . ... ... ... : D-2 00 . ... : ... .. . ... : ... .. . ... ...
ROW 0A : ... .. . ... ... ... : ... .. . ... ... ... : ... .. . ... : ... .. . ... : ... .. . ... ...
ROW 0B : ... .. . ... ... ... : ... .. . ... ... ... : ... .. . ... : ... .. . ... : ... .. . ... ...
ROW 0C : ... .. . ... ... ... : ... .. . ... ... ... : ... .. . ... : ... .. . ... : ... .. . ... ...
ROW 0D : ... .. . ... ... ... : ... .. . ... ... ... : ... .. . ... : ... .. . ... : ... .. . ... ...
ROW 0E : ... .. . ... ... ... : ... .. . ... ... ... : ... .. . ... : ... .. . ... : ... .. . ... ...
ROW 0F : ... .. . ... ... ... : ... .. . ... ... ... : ... .. . ... : ... .. . ... : ... .. . ... ...
ROW 10 : ... .. . ... ... ... : ... .. . ... ... ... : --- .. . ... : ... .. . ... : ... .. . ... ...
ROW 11 : A#2 00 4 P80 ... ... : F-3 00 D P80 ... ... : D-2 00 . ... : ... .. C ... : ... .. . ... ...
ROW 12 : ... .. 5 ... ... ... : ... .. 9 ... ... ... : ... .. . ... : ... .. 8 ... : ... .. . ... ...
ROW 13 : ... .. 6 ... ... ... : ... .. 7 ... ... ... : ... .. . ... : ... .. 4 ... : ... .. . ... ...
ROW 14 : ... .. 7 ... ... ... : ... .. 6 ... ... ... : ... .. . ... : ... .. 0 ... : ... .. . ... ...
ROW 15 : ... .. 8 ... ... ... : ... .. 5 ... ... ... : ... .. . ... : ... .. . ... : ... .. . ... ...
ROW 16 : ... .. 7 ... ... ... : ... .. . ... ... ... : ... .. . ... : ... .. . ... : ... .. . ... ...
ROW 17 : ... .. 6 ... ... ... : ... .. . ... ... ... : ... .. . ... : ... .. . ... : ... .. . ... ...
ROW 18 : ... .. 5 ... ... ... : ... .. 4 ... ... ... : ... .. . ... : ... .. . ... : ... .. . ... ...
ROW 19 : ... .. 4 ... ... ... : ... .. . ... ... ... : ... .. . ... : ... .. . ... : ... .. . ... ...
ROW 1A : ... .. . ... ... ... : ... .. . ... ... ... : ... .. . ... : ... .. . ... : ... .. . ... ...
ROW 1B : ... .. . ... ... ... : ... .. . ... ... ... : ... .. . ... : ... .. . ... : ... .. . ... ...
ROW 1C : ... .. . ... ... ... : ... .. . ... ... ... : ... .. . ... : ... .. . ... : ... .. . ... ...
ROW 1D : ... .. . ... ... ... : ... .. . ... ... ... : ... .. . ... : ... .. . ... : ... .. . ... ...
ROW 1E : ... .. . ... ... ... : ... .. . ... ... ... : ... .. . ... : ... .. . ... : ... .. . ... ...
ROW 1F : ... .. . ... ... ... : ... .. . ... ... ... : ... .. . ... : ... .. . ... : ... .. . ... ...
ROW 20 : ... .. . ... ... ... : ... .. . ... ... ... : --- .. . ... : ... .. . ... : ... .. . ... ...
ROW 21 : ... .. . ... ... ... : ... .. . ... ... ... : ... .. . ... : ... .. . ... : ... .. . ... ...
ROW 22 : ... .. . ... ... ... : ... .. . ... ... ... : ... .. . ... : ... .. . ... : ... .. . ... ...
ROW 23 : ... .. . ... ... ... : ... .. . ... ... ... : ... .. . ... : ... .. . ... : ... .. . ... ...
ROW 24 : ... .. . ... ... ... : ... .. . ... ... ... : ... .. . ... : ... .. . ... : ... .. . ... ...
ROW 25 : ... .. . ... ... ... : ... .. . ... ... ... : ... .. . ... : ... .. . ... : ... .. . ... ...
ROW 26 : ... .. . ... ... ... : ... .. . ... ... ... : ... .. . ... : ... .. . ... : ... .. . ... ...
ROW 27 : ... .. . ... ... ... : ... .. . ... ... ... : ... .. . ... : ... .. . ... : ... .. . ... ...
ROW 28 : ... .. . ... ... ... : ... .. . ... ... ... : ... .. . ... : ... .. . ... : ... .. . ... ...
ROW 29 : C-2 00 4 P7F ... ... : F-3 00 D P80 ... ... : D-2 00 . ... : ... .. C ... : ... .. . ... ...
ROW 2A : ... .. 5 ... ... ... : ... .. 9 ... ... ... : ... .. . ... : ... .. 8 ... : ... .. . ... ...
ROW 2B : ... .. 6 ... ... ... : ... .. 7 ... ... ... : ... .. . ... : ... .. 4 ... : ... .. . ... ...
ROW 2C : ... .. 7 ... ... ... : ... .. 6 ... ... ... : ... .. . ... : ... .. 0 ... : ... .. . ... ...
ROW 2D : ... .. 8 ... ... ... : ... .. 5 ... ... ... : ... .. . ... : ... .. . ... : ... .. . ... ...
ROW 2E : ... .. 7 ... ... ... : ... .. . ... ... ... : ... .. . ... : ... .. . ... : ... .. . ... ...
ROW 2F : ... .. 6 ... ... ... : ... .. . ... ... ... : ... .. . ... : ... .. . ... : ... .. . ... ...
ROW 30 : ... .. 5 ... ... ... : ... .. 4 ... ... ... : --- .. . ... : ... .. . ... : ... .. . ... ...
ROW 31 : F-2 00 4 P80 ... ... : A#3 00 D P81 ... ... : A#1 00 . ... : ... .. C ... : ... .. . ... ...
ROW 32 : ... .. 5 ... ... ... : ... .. 9 ... ... ... : ... .. . ... : ... .. 8 ... : ... .. . ... ...
ROW 33 : ... .. 6 ... ... ... : ... .. 7 ... ... ... : ... .. . ... : ... .. 4 ... : ... .. . ... ...
ROW 34 : ... .. 7 ... ... ... : ... .. 6 ... ... ... : ... .. . ... : ... .. 0 ... : ... .. . ... ...
ROW 35 : ... .. 8 ... ... ... : ... .. 5 ... ... ... : ... .. . ... : ... .. . ... : ... .. . ... ...
ROW 36 : ... .. 7 ... ... ... : ... .. . ... ... ... : ... .. . ... : ... .. . ... : ... .. . ... ...
ROW 37 : ... .. 6 ... ... ... : ... .. . ... ... ... : ... .. . ... : ... .. . ... : ... .. . ... ...
ROW 38 : ... .. 5 ... ... ... : ... .. 4 ... ... ... : --- .. . ... : ... .. . ... : ... .. . ... ...
ROW 39 : A-2 00 4 P7F ... ... : C-4 00 D P81 ... ... : D-2 00 . ... : ... .. C ... : ... .. . ... ...
ROW 3A : ... .. 5 ... ... ... : ... .. 9 ... ... ... : ... .. . ... : ... .. 8 ... : ... .. . ... ...
ROW 3B : ... .. 6 ... ... ... : ... .. 7 ... ... ... : ... .. . ... : ... .. 4 ... : ... .. . ... ...
ROW 3C : ... .. 7 ... ... ... : ... .. 6 ... ... ... : ... .. . ... : ... .. 0 ... : ... .. . ... ...
ROW 3D : ... .. 8 ... ... ... : ... .. 5 ... ... ... : ... .. . ... : ... .. . ... : ... .. . ... ...
ROW 3E : ... .. 7 ... ... ... : ... .. . ... ... ... : ... .. . ... : ... .. . ... : ... .. . ... ...
ROW 3F : ... .. 6 ... ... ... : ... .. . ... ... ... : ... .. . ... : ... .. . ... : ... .. . ... ...
ROW 40 : ... .. 5 ... ... ... : ... .. 4 ... ... ... : --- .. . ... : ... .. . ... : ... .. . ... ...
ROW 41 : B-2 00 4 P80 ... ... : D-4 00 D P80 ... ... : G-2 00 . ... : ... .. C ... : ... .. . ... ...
ROW 42 : ... .. 5 ... ... ... : ... .. 9 ... ... ... : ... .. . ... : ... .. 8 ... : ... .. . ... ...
ROW 43 : ... .. 6 ... ... ... : ... .. 7 ... ... ... : ... .. . ... : ... .. 4 ... : ... .. . ... ...
ROW 44 : ... .. 7 ... ... ... : ... .. 6 ... ... ... : ... .. . ... : ... .. 0 ... : ... .. . ... ...
ROW 45 : ... .. 8 ... ... ... : ... .. 5 ... ... ... : ... .. . ... : ... .. . ... : ... .. . ... ...
ROW 46 : ... .. 7 ... ... ... : ... .. . ... ... ... : ... .. . ... : ... .. . ... : ... .. . ... ...
ROW 47 : ... .. 6 ... ... ... : ... .. . ... ... ... : ... .. . ... : ... .. . ... : ... .. . ... ...
ROW 48 : ... .. 5 ... ... ... : ... .. 4 ... ... ... : ... .. . ... : ... .. . ... : ... .. . ... ...
ROW 49 : ... .. 4 ... ... ... : ... .. . ... ... ... : ... .. . ... : ... .. . ... : ... .. . ... ...
ROW 4A : ... .. . ... ... ... : ... .. . ... ... ... : ... .. . ... : ... .. . ... : ... .. . ... ...
ROW 4B : ... .. . ... ... ... : ... .. . ... ... ... : ... .. . ... : ... .. . ... : ... .. . ... ...
ROW 4C : ... .. . ... ... ... : ... .. . ... ... ... : ... .. . ... : ... .. . ... : ... .. . ... ...
ROW 4D : ... .. . ... ... ... : ... .. . ... ... ... : ... .. . ... : ... .. . ... : ... .. . ... ...
ROW 4E : ... .. . ... ... ... : ... .. . ... ... ... : ... .. . ... : ... .. . ... : ... .. . ... ...
ROW 4F : ... .. . ... ... ... : ... .. . ... ... ... : ... .. . ... : ... .. . ... : ... .. . ... ...
ROW 50 : ... .. . ... ... ... : ... .. . ... ... ... : --- .. . ... : ... .. . ... : ... .. . ... ...
ROW 51 : ... .. . ... ... ... : ... .. . ... ... ... : ... .. . ... : ... .. . ... : ... .. . ... ...
ROW 52 : ... .. . ... ... ... : ... .. . ... ... ... : ... .. . ... : ... .. . ... : ... .. . ... ...
ROW 53 : ... .. . ... ... ... : ... .. . ... ... ... : ... .. . ... : ... .. . ... : ... .. . ... ...
ROW 54 : ... .. . ... ... ... : ... .. . ... ... ... : ... .. . ... : ... .. . ... : ... .. . ... ...
ROW 55 : ... .. . ... ... ... : ... .. . ... ... ... : ... .. . ... : ... .. . ... : ... .. . ... ...
ROW 56 : ... .. . ... ... ... : ... .. . ... ... ... : ... .. . ... : ... .. . ... : ... .. . ... ...
ROW 57 : ... .. . ... ... ... : ... .. . ... ... ... : ... .. . ... : ... .. . ... : ... .. . ... ...
ROW 58 : ... .. . ... ... ... : ... .. . ... ... ... : ... .. . ... : ... .. . ... : ... .. . ... ...
ROW 59 : ... .. . ... ... ... : ... .. . ... ... ... : A-1 00 . ... : ... .. C ... : ... .. . ... ...
ROW 5A : ... .. . ... ... ... : ... .. . ... ... ... : ... .. . ... : ... .. 8 ... : ... .. . ... ...
ROW 5B : ... .. . ... ... ... : ... .. . ... ... ... : ... .. . ... : ... .. 4 ... : ... .. . ... ...
ROW 5C : ... .. . ... ... ... : ... .. . ... ... ... : ... .. . ... : ... .. 0 ... : ... .. . ... ...
ROW 5D : ... .. . ... ... ... : ... .. . ... ... ... : ... .. . ... : ... .. . ... : ... .. . ... ...
ROW 5E : ... .. . ... ... ... : ... .. . ... ... ... : ... .. . ... : ... .. . ... : ... .. . ... ...
ROW 5F : ... .. . ... ... ... : ... .. . ... ... ... : ... .. . ... : ... .. . ... : ... .. . ... ...
ROW 60 : ... .. . ... ... ... : ... .. . ... ... ... : ... .. . ... : ... .. . ... : ... .. . ... ...
ROW 61 : ... .. . ... ... ... : ... .. . ... ... ... : ... .. . ... : ... .. . ... : ... .. . ... ...
ROW 62 : ... .. . ... ... ... : ... .. . ... ... ... : ... .. . ... : ... .. . ... : ... .. . ... ...
ROW 63 : ... .. . ... ... ... : ... .. . ... ... ... : ... .. . ... : ... .. . ... : ... .. . ... ...
ROW 64 : ... .. . ... ... ... : ... .. . ... ... ... : ... .. . ... : ... .. . ... : ... .. . ... ...
ROW 65 : ... .. . ... ... ... : ... .. . ... ... ... : ... .. . ... : ... .. . ... : ... .. . ... ...
ROW 66 : ... .. . ... ... ... : ... .. . ... ... ... : ... .. . ... : ... .. . ... : ... .. . ... ...
ROW 67 : ... .. . ... ... ... : ... .. . ... ... ... : ... .. . ... : ... .. . ... : ... .. . ... ...
ROW 68 : ... .. . ... ... ... : ... .. . ... ... ... : --- .. . ... : ... .. . ... : ... .. . ... ...
ROW 69 : ... .. . ... ... ... : ... .. . ... ... ... : ... .. . ... : ... .. . ... : ... .. . ... ...
ROW 6A : ... .. . ... ... ... : ... .. . ... ... ... : ... .. . ... : ... .. . ... : ... .. . ... ...
ROW 6B : ... .. . ... ... ... : ... .. . ... ... ... : ... .. . ... : ... .. . ... : ... .. . ... ...
ROW 6C : ... .. . ... ... ... : ... .. . ... ... ... : ... .. . ... : ... .. . ... : ... .. . ... ...
ROW 6D : ... .. . ... ... ... : ... .. . ... ... ... : ... .. . ... : ... .. . ... : ... .. . ... ...
ROW 6E : ... .. . ... ... ... : ... .. . ... ... ... : ... .. . ... : ... .. . ... : ... .. . ... ...
ROW 6F : ... .. . ... ... ... : ... .. . ... ... ... : ... .. . ... : ... .. . ... : ... .. . ... ...
ROW 70 : ... .. . ... ... ... : ... .. . ... ... ... : ... .. . ... : ... .. . ... : ... .. . ... ...
ROW 71 : A-2 00 4 P7F ... ... : ... .. . ... ... ... : B-1 00 . ... : ... .. C ... : ... .. . ... ...
ROW 72 : ... .. 5 ... ... ... : ... .. . ... ... ... : ... .. . ... : ... .. 8 ... : ... .. . ... ...
ROW 73 : ... .. 6 ... ... ... : ... .. . ... ... ... : ... .. . ... : ... .. 4 ... : ... .. . ... ...
ROW 74 : ... .. 7 ... ... ... : ... .. . ... ... ... : ... .. . ... : ... .. 0 ... : ... .. . ... ...
ROW 75 : ... .. 8 ... ... ... : ... .. . ... ... ... : ... .. . ... : ... .. . ... : ... .. . ... ...
ROW 76 : ... .. 7 ... ... ... : ... .. . ... ... ... : ... .. . ... : ... .. . ... : ... .. . ... ...
ROW 77 : ... .. 6 ... ... ... : ... .. . ... ... ... : ... .. . ... : ... .. . ... : ... .. . ... ...
ROW 78 : ... .. 5 ... ... ... : ... .. . ... ... ... : ... .. . ... : ... .. . ... : ... .. . ... ...
ROW 79 : ... .. 4 ... ... ... : ... .. . ... ... ... : ... .. . ... : ... .. . ... : ... .. . ... ...
ROW 7A : ... .. . ... ... ... : ... .. . ... ... ... : ... .. . ... : ... .. . ... : ... .. . ... ...
ROW 7B : ... .. . ... ... ... : ... .. . ... ... ... : ... .. . ... : ... .. . ... : ... .. . ... ...
ROW 7C : ... .. . ... ... ... : ... .. . ... ... ... : ... .. . ... : ... .. . ... : ... .. . ... ...
ROW 7D : ... .. . ... ... ... : ... .. . ... ... ... : ... .. . ... : ... .. . ... : ... .. . ... ...
ROW 7E : ... .. . ... ... ... : ... .. . ... ... ... : ... .. . ... : ... .. . ... : ... .. . ... ...
ROW 7F : ... .. . ... ... ... : ... .. . ... ... ... : ... .. . ... : ... .. . ... : ... .. . ... ...

PATTERN 29
ROW 00 : ... .. . ... ... ... : ... .. . ... ... ... : --- .. . ... : ... .. . ... : ... .. . ... ...
ROW 01 : ... .. . ... ... ... : ... .. . ... ... ... : ... .. . ... : ... .. . ... : ... .. . ... ...
ROW 02 : ... .. . ... ... ... : ... .. . ... ... ... : ... .. . ... : ... .. . ... : ... .. . ... ...
ROW 03 : ... .. . ... ... ... : ... .. . ... ... ... : ... .. . ... : ... .. . ... : ... .. . ... ...
ROW 04 : ... .. . ... ... ... : ... .. . ... ... ... : ... .. . ... : ... .. . ... : ... .. . ... ...
ROW 05 : ... .. . ... ... ... : ... .. . ... ... ... : ... .. . ... : ... .. . ... : ... .. . ... ...
ROW 06 : ... .. . ... ... ... : ... .. . ... ... ... : ... .. . ... : ... .. . ... : ... .. . ... ...
ROW 07 : ... .. . ... ... ... : ... .. . ... ... ... : ... .. . ... : ... .. . ... : ... .. . ... ...
ROW 08 : ... .. . ... ... ... : ... .. . ... ... ... : ... .. . ... : ... .. . ... : ... .. . ... ...
ROW 09 : ... .. . ... ... ... : ... .. . ... ... ... : C-2 00 . P7F : ... .. C ... : ... .. . ... ...
ROW 0A : ... .. . ... ... ... : ... .. . ... ... ... : ... .. . ... : ... .. 8 ... : ... .. . ... ...
ROW 0B : ... .. . ... ... ... : ... .. . ... ... ... : ... .. . ... : ... .. 4 ... : ... .. . ... ...
ROW 0C : ... .. . ... ... ... : ... .. . ... ... ... : ... .. . ... : ... .. 0 ... : ... .. . ... ...
ROW 0D : ... .. . ... ... ... : ... .. . ... ... ... : ... .. . ... : ... .. . ... : ... .. . ... ...
ROW 0E : ... .. . ... ... ... : ... .. . ... ... ... : ... .. . ... : ... .. . ... : ... .. . ... ...
ROW 0F : ... .. . ... ... ... : ... .. . ... ... ... : ... .. . ... : ... .. . ... : ... .. . ... ...
ROW 10 : ... .. . ... ... ... : ... .. . ... ... ... : ... .. . ... : ... .. . ... : ... .. . ... ...
ROW 11 : ... .. . ... ... ... : ... .. . ... ... ... : ... .. . ... : ... .. C ... : ... .. . ... ...
ROW 12 : ... .. . ... ... ... : ... .. . ... ... ... : ... .. . ... : ... .. 8 ... : ... .. . ... ...
ROW 13 : ... .. . ... ... ... : ... .. . ... ... ... : ... .. . ... : ... .. 4 ... : ... .. . ... ...
ROW 14 : ... .. . ... ... ... : ... .. . ... ... ... : ... .. . ... : ... .. 0 ... : ... .. . ... ...
ROW 15 : ... .. . ... ... ... : ... .. . ... ... ... : ... .. . ... : ... .. . ... : ... .. . ... ...
ROW 16 : ... .. . ... ... ... : ... .. . ... ... ... : ... .. . ... : ... .. . ... : ... .. . ... ...
ROW 17 : ... .. . ... ... ... : ... .. . ... ... ... : ... .. . ... : ... .. . ... : ... .. . ... ...
ROW 18 : ... .. . ... ... ... : ... .. . ... ... ... : --- .. . ... : ... .. . ... : ... .. . ... ...
ROW 19 : ... .. . ... ... ... : ... .. . ... ... ... : ... .. . ... : ... .. C ... : ... .. . ... ...
ROW 1A : ... .. . ... ... ... : ... .. . ... ... ... : ... .. . ... : ... .. 8 ... : ... .. . ... ...
ROW 1B : ... .. . ... ... ... : ... .. . ... ... ... : ... .. . ... : ... .. 4 ... : ... .. . ... ...
ROW 1C : ... .. . ... ... ... : ... .. . ... ... ... : ... .. . ... : ... .. 0 ... : ... .. . ... ...
ROW 1D : ... .. . ... ... ... : ... .. . ... ... ... : ... .. . ... : ... .. . ... : ... .. . ... ...
ROW 1E : ... .. . ... ... ... : ... .. . ... ... ... : ... .. . ... : ... .. . ... : ... .. . ... ...
ROW 1F : ... .. . ... ... ... : ... .. . ... ... ... : ... .. . ... : ... .. . ... : ... .. . ... ...
ROW 20 : ... .. . ... ... ... : ... .. . ... ... ... : ... .. . ... : ... .. . ... : ... .. . ... ...
ROW 21 : G-2 00 4 P80 ... ... : C-4 00 D P81 ... ... : D-2 00 . P80 : ... .. C ... : ... .. . ... ...
ROW 22 : ... .. 5 ... ... ... : ... .. 9 ... ... ... : ... .. . ... : ... .. 8 ... : ... .. . ... ...
ROW 23 : ... .. 6 ... ... ... : ... .. 7 ... ... ... : ... .. . ... : ... .. 4 ... : ... .. . ... ...
ROW 24 : ... .. 7 ... ... ... : ... .. 6 ... ... ... : ... .. . ... : ... .. 0 ... : ... .. . ... ...
ROW 25 : ... .. 8 ... ... ... : ... .. 5 ... ... ... : ... .. . ... : ... .. . ... : ... .. . ... ...
ROW 26 : ... .. 7 ... ... ... : ... .. . ... ... ... : ... .. . ... : ... .. . ... : ... .. . ... ...
ROW 27 : ... .. 6 ... ... ... : ... .. . ... ... ... : ... .. . ... : ... .. . ... : ... .. . ... ...
ROW 28 : ... .. 5 ... ... ... : ... .. 4 ... ... ... : ... .. . ... : ... .. . ... : ... .. . ... ...
ROW 29 : ... .. 4 ... ... ... : ... .. . ... ... ... : ... .. . ... : ... .. . ... : ... .. . ... ...
ROW 2A : ... .. . ... ... ... : ... .. . ... ... ... : ... .. . ... : ... .. . ... : ... .. . ... ...
ROW 2B : ... .. . ... ... ... : ... .. . ... ... ... : ... .. . ... : ... .. . ... : ... .. . ... ...
ROW 2C : ... .. . ... ... ... : ... .. . ... ... ... : ... .. . ... : ... .. . ... : ... .. . ... ...
ROW 2D : ... .. . ... ... ... : ... .. . ... ... ... : ... .. . ... : ... .. . ... : ... .. . ... ...
ROW 2E : ... .. . ... ... ... : ... .. . ... ... ... : ... .. . ... : ... .. . ... : ... .. . ... ...
ROW 2F : ... .. . ... ... ... : ... .. . ... ... ... : ... .. . ... : ... .. . ... : ... .. . ... ...
ROW 30 : ... .. . ... ... ... : ... .. . ... ... ... : --- .. . ... : ... .. . ... : ... .. . ... ...
ROW 31 : ... .. . ... ... ... : ... .. . ... ... ... : ... .. . ... : ... .. . ... : ... .. . ... ...
ROW 32 : ... .. . ... ... ... : ... .. . ... ... ... : ... .. . ... : ... .. . ... : ... .. . ... ...
ROW 33 : ... .. . ... ... ... : ... .. . ... ... ... : ... .. . ... : ... .. . ... : ... .. . ... ...
ROW 34 : ... .. . ... ... ... : ... .. . ... ... ... : ... .. . ... : ... .. . ... : ... .. . ... ...
ROW 35 : ... .. . ... ... ... : ... .. . ... ... ... : ... .. . ... : ... .. . ... : ... .. . ... ...
ROW 36 : ... .. . ... ... ... : ... .. . ... ... ... : ... .. . ... : ... .. . ... : ... .. . ... ...
ROW 37 : ... .. . ... ... ... : ... .. . ... ... ... : ... .. . ... : ... .. . ... : ... .. . ... ...
ROW 38 : ... .. . ... ... ... : ... .. . ... ... ... : ... .. . ... : ... .. . ... : ... .. . ... ...
ROW 39 : ... .. . ... ... ... : ... .. . ... ... ... : E-2 00 . ... : ... .. C ... : ... .. . ... ...
ROW 3A : ... .. . ... ... ... : ... .. . ... ... ... : ... .. . ... : ... .. 8 ... : ... .. . ... ...
ROW 3B : ... .. . ... ... ... : ... .. . ... ... ... : ... .. . ... : ... .. 4 ... : ... .. . ... ...
ROW 3C : ... .. . ... ... ... : ... .. . ... ... ... : ... .. . ... : ... .. 0 ... : ... .. . ... ...
ROW 3D : ... .. . ... ... ... : ... .. . ... ... ... : ... .. . ... : ... .. . ... : ... .. . ... ...
ROW 3E : ... .. . ... ... ... : ... .. . ... ... ... : ... .. . ... : ... .. . ... : ... .. . ... ...
ROW 3F : ... .. . ... ... ... : ... .. . ... ... ... : ... .. . ... : ... .. . ... : ... .. . ... ...
ROW 40 : ... .. . ... ... ... : ... .. . ... ... ... : ... .. . ... : ... .. . ... : ... .. . ... ...
ROW 41 : ... .. . ... ... ... : ... .. . ... ... ... : ... .. . ... : ... .. . ... : ... .. . ... ...
ROW 42 : ... .. . ... ... ... : ... .. . ... ... ... : ... .. . ... : ... .. . ... : ... .. . ... ...
ROW 43 : ... .. . ... ... ... : ... .. . ... ... ... : ... .. . ... : ... .. . ... : ... .. . ... ...
ROW 44 : ... .. . ... ... ... : ... .. . ... ... ... : ... .. . ... : ... .. . ... : ... .. . ... ...
ROW 45 : ... .. . ... ... ... : ... .. . ... ... ... : ... .. . ... : ... .. . ... : ... .. . ... ...
ROW 46 : ... .. . ... ... ... : ... .. . ... ... ... : ... .. . ... : ... .. . ... : ... .. . ... ...
ROW 47 : ... .. . ... ... ... : ... .. . ... ... ... : ... .. . ... : ... .. . ... : ... .. . ... ...
ROW 48 : ... .. . ... ... ... : ... .. . ... ... ... : --- .. . ... : ... .. . ... : ... .. . ... ...
ROW 49 : ... .. . ... ... ... : ... .. . ... ... ... : ... .. . ... : ... .. . ... : ... .. . ... ...
ROW 4A : ... .. . ... ... ... : ... .. . ... ... ... : ... .. . ... : ... .. . ... : ... .. . ... ...
ROW 4B : ... .. . ... ... ... : ... .. . ... ... ... : ... .. . ... : ... .. . ... : ... .. . ... ...
ROW 4C : ... .. . ... ... ... : ... .. . ... ... ... : ... .. . ... : ... .. . ... : ... .. . ... ...
ROW 4D : ... .. . ... ... ... : ... .. . ... ... ... : ... .. . ... : ... .. . ... : ... .. . ... ...
ROW 4E : ... .. . ... ... ... : ... .. . ... ... ... : ... .. . ... : ... .. . ... : ... .. . ... ...
ROW 4F : ... .. . ... ... ... : ... .. . ... ... ... : ... .. . ... : ... .. . ... : ... .. . ... ...
ROW 50 : ... .. . ... ... ... : ... .. . ... ... ... : ... .. . ... : ... .. . ... : ... .. . ... ...
ROW 51 : D-3 00 4 P80 ... ... : B-3 00 D P80 ... ... : F#2 00 . ... : ... .. C ... : ... .. . ... ...
ROW 52 : ... .. 5 ... ... ... : ... .. 9 ... ... ... : ... .. . ... : ... .. 8 ... : ... .. . ... ...
ROW 53 : ... .. 6 ... ... ... : ... .. 7 ... ... ... : ... .. . ... : ... .. 4 ... : ... .. . ... ...
ROW 54 : ... .. 7 ... ... ... : ... .. 6 ... ... ... : ... .. . ... : ... .. 0 ... : ... .. . ... ...
ROW 55 : ... .. 8 ... ... ... : ... .. 5 ... ... ... : ... .. . ... : ... .. . ... : ... .. . ... ...
ROW 56 : ... .. 7 ... ... ... : ... .. . ... ... ... : ... .. . ... : ... .. . ... : ... .. . ... ...
ROW 57 : ... .. 6 ... ... ... : ... .. . ... ... ... : ... .. . ... : ... .. . ... : ... .. . ... ...
ROW 58 : ... .. 5 ... ... ... : ... .. 4 ... ... ... : ... .. . ... : ... .. . ... : ... .. . ... ...
ROW 59 : ... .. 4 ... ... ... : ... .. . ... ... ... : ... .. . ... : ... .. . ... : ... .. . ... ...
ROW 5A : ... .. . ... ... ... : ... .. . ... ... ... : ... .. . ... : ... .. . ... : ... .. . ... ...
ROW 5B : ... .. . ... ... ... : ... .. . ... ... ... : ... .. . ... : ... .. . ... : ... .. . ... ...
ROW 5C : ... .. . ... ... ... : ... .. . ... ... ... : ... .. . ... : ... .. . ... : ... .. . ... ...
ROW 5D : ... .. . ... ... ... : ... .. . ... ... ... : ... .. . ... : ... .. . ... : ... .. . ... ...
ROW 5E : ... .. . ... ... ... : ... .. . ... ... ... : ... .. . ... : ... .. . ... : ... .. . ... ...
ROW 5F : ... .. . ... ... ... : ... .. . ... ... ... : ... .. . ... : ... .. . ... : ... .. . ... ...
ROW 60 : ... .. . ... ... ... : ... .. . ... ... ... : --- .. . ... : ... .. . ... : ... .. . ... ...
ROW 61 : ... .. . ... ... ... : ... .. . ... ... ... : ... .. . ... : ... .. . ... : ... .. . ... ...
ROW 62 : ... .. . ... ... ... : ... .. . ... ... ... : ... .. . ... : ... .. . ... : ... .. . ... ...
ROW 63 : ... .. . ... ... ... : ... .. . ... ... ... : ... .. . ... : ... .. . ... : ... .. . ... ...
ROW 64 : ... .. . ... ... ... : ... .. . ... ... ... : ... .. . ... : ... .. . ... : ... .. . ... ...
ROW 65 : ... .. . ... ... ... : ... .. . ... ... ... : ... .. . ... : ... .. . ... : ... .. . ... ...
ROW 66 : ... .. . ... ... ... : ... .. . ... ... ... : ... .. . ... : ... .. . ... : ... .. . ... ...
ROW 67 : ... .. . ... ... ... : ... .. . ... ... ... : ... .. . ... : ... .. . ... : ... .. . ... ...
ROW 68 : ... .. . ... ... ... : ... .. . ... ... ... : ... .. . ... : ... .. . ... : ... .. . ... ...
ROW 69 : ... .. . ... ... ... : ... .. . ... ... ... : G-2 00 . ... : ... .. C ... : ... .. . ... ...
ROW 6A : ... .. . ... ... ... : ... .. . ... ... ... : ... .. . ... : ... .. 8 ... : ... .. . ... ...
ROW 6B : ... .. . ... ... ... : ... .. . ... ... ... : ... .. . ... : ... .. 4 ... : ... .. . ... ...
ROW 6C : ... .. . ... ... ... : ... .. . ... ... ... : ... .. . ... : ... .. 0 ... : ... .. . ... ...
ROW 6D : ... .. . ... ... ... : ... .. . ... ... ... : ... .. . ... : ... .. . ... : ... .. . ... ...
ROW 6E : ... .. . ... ... ... : ... .. . ... ... ... : ... .. . ... : ... .. . ... : ... .. . ... ...
ROW 6F : ... .. . ... ... ... : ... .. . ... ... ... : ... .. . ... : ... .. . ... : ... .. . ... ...
ROW 70 : ... .. . ... ... ... : ... .. . ... ... ... : ... .. . ... : ... .. . ... : ... .. . ... ...
ROW 71 : ... .. . ... ... ... : ... .. . ... ... ... : ... .. . ... : ... .. C ... : ... .. . ... ...
ROW 72 : ... .. . ... ... ... : ... .. . ... ... ... : ... .. . ... : ... .. 8 ... : ... .. . ... ...
ROW 73 : ... .. . ... ... ... : ... .. . ... ... ... : ... .. . ... : ... .. 4 ... : ... .. . ... ...
ROW 74 : ... .. . ... ... ... : ... .. . ... ... ... : ... .. . ... : ... .. 0 ... : ... .. . ... ...
ROW 75 : ... .. . ... ... ... : ... .. . ... ... ... : ... .. . ... : ... .. . ... : ... .. . ... ...
ROW 76 : ... .. . ... ... ... : ... .. . ... ... ... : ... .. . ... : ... .. . ... : ... .. . ... ...
ROW 77 : ... .. . ... ... ... : ... .. . ... ... ... : ... .. . ... : ... .. . ... : ... .. . ... ...
ROW 78 : ... .. . ... ... ... : ... .. . ... ... ... : --- .. . ... : ... .. . ... : ... .. . ... ...
ROW 79 : ... .. . ... ... ... : ... .. . ... ... ... : ... .. . ... : ... .. C ... : ... .. . ... ...
ROW 7A : ... .. . ... ... ... : ... .. . ... ... ... : ... .. . ... : ... .. 8 ... : ... .. . ... ...
ROW 7B : ... .. . ... ... ... : ... .. . ... ... ... : ... .. . ... : ... .. 4 ... : ... .. . ... ...
ROW 7C : ... .. . ... ... ... : ... .. . ... ... ... : ... .. . ... : ... .. 0 ... : ... .. . ... ...
ROW 7D : ... .. . ... ... ... : ... .. . ... ... ... : ... .. . ... : ... .. . ... : ... .. . ... ...
ROW 7E : ... .. . ... ... ... : ... .. . ... ... ... : ... .. . ... : ... .. . ... : ... .. . ... ...
ROW 7F : ... .. . ... ... ... : ... .. . ... ... ... : ... .. . ... : ... .. . ... : ... .. . ... ...

PATTERN 2A
ROW 00 : ... .. . ... ... ... : ... .. . ... ... ... : ... .. . ... : ... .. . ... : ... .. . ... ...
ROW 01 : D#3 00 4 P80 ... ... : C-4 00 D P81 ... ... : G#2 00 . ... : ... .. C ... : ... .. . ... ...
ROW 02 : ... .. 5 ... ... ... : ... .. 9 ... ... ... : ... .. . ... : ... .. 8 ... : ... .. . ... ...
ROW 03 : ... .. 6 ... ... ... : ... .. 7 ... ... ... : ... .. . ... : ... .. 4 ... : ... .. . ... ...
ROW 04 : ... .. 7 ... ... ... : ... .. 6 ... ... ... : ... .. . ... : ... .. 0 ... : ... .. . ... ...
ROW 05 : ... .. 8 ... ... ... : ... .. 5 ... ... ... : ... .. . ... : ... .. . ... : ... .. . ... ...
ROW 06 : ... .. 7 ... ... ... : ... .. . ... ... ... : ... .. . ... : ... .. . ... : ... .. . ... ...
ROW 07 : ... .. 6 ... ... ... : ... .. . ... ... ... : ... .. . ... : ... .. . ... : ... .. . ... ...
ROW 08 : ... .. 5 ... ... ... : ... .. 4 ... ... ... : ... .. . ... : ... .. . ... : ... .. . ... ...
ROW 09 : ... .. 4 ... ... ... : ... .. . ... ... ... : ... .. . ... : ... .. . ... : ... .. . ... ...
ROW 0A : ... .. . ... ... ... : ... .. . ... ... ... : ... .. . ... : ... .. . ... : ... .. . ... ...
ROW 0B : ... .. . ... ... ... : ... .. . ... ... ... : ... .. . ... : ... .. . ... : ... .. . ... ...
ROW 0C : ... .. . ... ... ... : ... .. . ... ... ... : ... .. . ... : ... .. . ... : ... .. . ... ...
ROW 0D : ... .. . ... ... ... : ... .. . ... ... ... : ... .. . ... : ... .. . ... : ... .. . ... ...
ROW 0E : ... .. . ... ... ... : ... .. . ... ... ... : ... .. . ... : ... .. . ... : ... .. . ... ...
ROW 0F : ... .. . ... ... ... : ... .. . ... ... ... : ... .. . ... : ... .. . ... : ... .. . ... ...
ROW 10 : ... .. . ... ... ... : ... .. . ... ... ... : --- .. . ... : ... .. . ... : ... .. . ... ...
ROW 11 : ... .. . ... ... ... : ... .. . ... ... ... : ... .. . ... : ... .. . ... : ... .. . ... ...
ROW 12 : ... .. . ... ... ... : ... .. . ... ... ... : ... .. . ... : ... .. . ... : ... .. . ... ...
ROW 13 : ... .. . ... ... ... : ... .. . ... ... ... : ... .. . ... : ... .. . ... : ... .. . ... ...
ROW 14 : ... .. . ... ... ... : ... .. . ... ... ... : ... .. . ... : ... .. . ... : ... .. . ... ...
ROW 15 : ... .. . ... ... ... : ... .. . ... ... ... : ... .. . ... : ... .. . ... : ... .. . ... ...
ROW 16 : ... .. . ... ... ... : ... .. . ... ... ... : ... .. . ... : ... .. . ... : ... .. . ... ...
ROW 17 : ... .. . ... ... ... : ... .. . ... ... ... : ... .. . ... : ... .. . ... : ... .. . ... ...
ROW 18 : ... .. . ... ... ... : ... .. . ... ... ... : ... .. . ... : ... .. . ... : ... .. . ... ...
ROW 19 : F-3 00 4 P80 ... ... : ... .. . ... ... ... : G#2 00 . ... : ... .. C ... : ... .. . ... ...
ROW 1A : ... .. 5 ... ... ... : ... .. . ... ... ... : ... .. . ... : ... .. 8 ... : ... .. . ... ...
ROW 1B : ... .. 6 ... ... ... : ... .. . ... ... ... : ... .. . ... : ... .. 4 ... : ... .. . ... ...
ROW 1C : ... .. 7 ... ... ... : ... .. . ... ... ... : ... .. . ... : ... .. 0 ... : ... .. . ... ...
ROW 1D : ... .. 8 ... ... ... : ... .. . ... ... ... : ... .. . ... : ... .. . ... : ... .. . ... ...
ROW 1E : ... .. 7 ... ... ... : ... .. . ... ... ... : ... .. . ... : ... .. . ... : ... .. . ... ...
ROW 1F : ... .. 6 ... ... ... : ... .. . ... ... ... : ... .. . ... : ... .. . ... : ... .. . ... ...
ROW 20 : ... .. 5 ... ... ... : ... .. . ... ... ... : --- .. . ... : ... .. . ... : ... .. . ... ...
ROW 21 : ... .. 4 ... ... ... : ... .. . ... ... ... : D#2 00 . P7F : ... .. . ... : ... .. . ... ...
ROW 22 : ... .. . ... ... ... : ... .. . ... ... ... : ... .. . ... : ... .. . ... : ... .. . ... ...
ROW 23 : ... .. . ... ... ... : ... .. . ... ... ... : ... .. . ... : ... .. . ... : ... .. . ... ...
ROW 24 : ... .. . ... ... ... : ... .. . ... ... ... : ... .. . ... : ... .. . ... : ... .. . ... ...
ROW 25 : ... .. . ... ... ... : ... .. . ... ... ... : ... .. . ... : ... .. . ... : ... .. . ... ...
ROW 26 : ... .. . ... ... ... : ... .. . ... ... ... : ... .. . ... : ... .. . ... : ... .. . ... ...
ROW 27 : ... .. . ... ... ... : ... .. . ... ... ... : ... .. . ... : ... .. . ... : ... .. . ... ...
ROW 28 : ... .. . ... ... ... : ... .. . ... ... ... : --- .. . ... : ... .. . ... : ... .. . ... ...
ROW 29 : ... .. . ... ... ... : ... .. . ... ... ... : C-2 00 . ... : ... .. . ... : ... .. . ... ...
ROW 2A : ... .. . ... ... ... : ... .. . ... ... ... : ... .. . ... : ... .. . ... : ... .. . ... ...
ROW 2B : ... .. . ... ... ... : ... .. . ... ... ... : ... .. . ... : ... .. . ... : ... .. . ... ...
ROW 2C : ... .. . ... ... ... : ... .. . ... ... ... : ... .. . ... : ... .. . ... : ... .. . ... ...
ROW 2D : ... .. . ... ... ... : ... .. . ... ... ... : ... .. . ... : ... .. . ... : ... .. . ... ...
ROW 2E : ... .. . ... ... ... : ... .. . ... ... ... : ... .. . ... : ... .. . ... : ... .. . ... ...
ROW 2F : ... .. . ... ... ... : ... .. . ... ... ... : ... .. . ... : ... .. . ... : ... .. . ... ...
ROW 30 : ... .. . ... ... ... : ... .. . ... ... ... : --- .. . ... : ... .. . ... : ... .. . ... ...
ROW 31 : G#2 00 4 P80 ... ... : ... .. . ... ... ... : G#1 00 . ... : ... .. C ... : ... .. . ... ...
ROW 32 : ... .. 5 ... ... ... : ... .. . ... ... ... : ... .. . ... : ... .. 8 ... : ... .. . ... ...
ROW 33 : ... .. 6 ... ... ... : ... .. . ... ... ... : ... .. . ... : ... .. 4 ... : ... .. . ... ...
ROW 34 : ... .. 7 ... ... ... : ... .. . ... ... ... : ... .. . ... : ... .. 0 ... : ... .. . ... ...
ROW 35 : ... .. 8 ... ... ... : ... .. . ... ... ... : ... .. . ... : ... .. . ... : ... .. . ... ...
ROW 36 : ... .. 7 ... ... ... : ... .. . ... ... ... : ... .. . ... : ... .. . ... : ... .. . ... ...
ROW 37 : ... .. 6 ... ... ... : ... .. . ... ... ... : ... .. . ... : ... .. . ... : ... .. . ... ...
ROW 38 : ... .. 5 ... ... ... : ... .. . ... ... ... : ... .. . ... : ... .. . ... : ... .. . ... ...
ROW 39 : ... .. 4 ... ... ... : ... .. . ... ... ... : ... .. . ... : ... .. . ... : ... .. . ... ...
ROW 3A : ... .. . ... ... ... : ... .. . ... ... ... : ... .. . ... : ... .. . ... : ... .. . ... ...
ROW 3B : ... .. . ... ... ... : ... .. . ... ... ... : ... .. . ... : ... .. . ... : ... .. . ... ...
ROW 3C : ... .. . ... ... ... : ... .. . ... ... ... : ... .. . ... : ... .. . ... : ... .. . ... ...
ROW 3D : ... .. . ... ... ... : ... .. . ... ... ... : ... .. . ... : ... .. . ... : ... .. . ... ...
ROW 3E : ... .. . ... ... ... : ... .. . ... ... ... : ... .. . ... : ... .. . ... : ... .. . ... ...
ROW 3F : ... .. . ... ... ... : ... .. . ... ... ... : ... .. . ... : ... .. . ... : ... .. . ... ...
ROW 40 : ... .. . ... ... ... : ... .. . ... ... ... : --- .. . ... : ... .. . ... : ... .. . ... ...
ROW 41 : ... .. . ... ... ... : ... .. . ... ... ... : ... .. . ... : ... .. . ... : ... .. . ... ...
ROW 42 : ... .. . ... ... ... : ... .. . ... ... ... : ... .. . ... : ... .. . ... : ... .. . ... ...
ROW 43 : ... .. . ... ... ... : ... .. . ... ... ... : ... .. . ... : ... .. . ... : ... .. . ... ...
ROW 44 : ... .. . ... ... ... : ... .. . ... ... ... : ... .. . ... : ... .. . ... : ... .. . ... ...
ROW 45 : ... .. . ... ... ... : ... .. . ... ... ... : ... .. . ... : ... .. . ... : ... .. . ... ...
ROW 46 : ... .. . ... ... ... : ... .. . ... ... ... : ... .. . ... : ... .. . ... : ... .. . ... ...
ROW 47 : ... .. . ... ... ... : ... .. . ... ... ... : ... .. . ... : ... .. . ... : ... .. . ... ...
ROW 48 : ... .. . ... ... ... : ... .. . ... ... ... : ... .. . ... : ... .. . ... : ... .. . ... ...
ROW 49 : G-2 00 4 P80 ... ... : D#4 00 D P81 ... ... : C-3 00 . P80 : ... .. C ... : ... .. . ... ...
ROW 4A : ... .. 5 ... ... ... : ... .. 9 ... ... ... : ... .. . ... : ... .. 8 ... : ... .. . ... ...
ROW 4B : ... .. 6 ... ... ... : ... .. 7 ... ... ... : ... .. . ... : ... .. 4 ... : ... .. . ... ...
ROW 4C : ... .. 7 ... ... ... : ... .. 6 ... ... ... : ... .. . ... : ... .. 0 ... : ... .. . ... ...
ROW 4D : ... .. 8 ... ... ... : ... .. 5 ... ... ... : ... .. . ... : ... .. . ... : ... .. . ... ...
ROW 4E : ... .. 7 ... ... ... : ... .. . ... ... ... : ... .. . ... : ... .. . ... : ... .. . ... ...
ROW 4F : ... .. 6 ... ... ... : ... .. . ... ... ... : ... .. . ... : ... .. . ... : ... .. . ... ...
ROW 50 : ... .. 5 ... ... ... : ... .. 4 ... ... ... : --- .. . ... : ... .. . ... : ... .. . ... ...
ROW 51 : F-2 00 4 P80 ... ... : D-4 00 D P80 ... ... : A#2 00 . ... : ... .. C ... : ... .. . ... ...
ROW 52 : ... .. 5 ... ... ... : ... .. 9 ... ... ... : ... .. . ... : ... .. 8 ... : ... .. . ... ...
ROW 53 : ... .. 6 ... ... ... : ... .. 7 ... ... ... : ... .. . ... : ... .. 4 ... : ... .. . ... ...
ROW 54 : ... .. 7 ... ... ... : ... .. 6 ... ... ... : ... .. . ... : ... .. 0 ... : ... .. . ... ...
ROW 55 : ... .. 8 ... ... ... : ... .. 5 ... ... ... : ... .. . ... : ... .. . ... : ... .. . ... ...
ROW 56 : ... .. 7 ... ... ... : ... .. . ... ... ... : ... .. . ... : ... .. . ... : ... .. . ... ...
ROW 57 : ... .. 6 ... ... ... : ... .. . ... ... ... : ... .. . ... : ... .. . ... : ... .. . ... ...
ROW 58 : ... .. 5 ... ... ... : ... .. 4 ... ... ... : --- .. . ... : ... .. . ... : ... .. . ... ...
ROW 59 : D#2 00 4 P7F ... ... : C-4 00 D P81 ... ... : G#2 00 . ... : ... .. C ... : ... .. . ... ...
ROW 5A : ... .. 5 ... ... ... : ... .. 9 ... ... ... : ... .. . ... : ... .. 8 ... : ... .. . ... ...
ROW 5B : ... .. 6 ... ... ... : ... .. 7 ... ... ... : ... .. . ... : ... .. 4 ... : ... .. . ... ...
ROW 5C : ... .. 7 ... ... ... : ... .. 6 ... ... ... : ... .. . ... : ... .. 0 ... : ... .. . ... ...
ROW 5D : ... .. 8 ... ... ... : ... .. 5 ... ... ... : ... .. . ... : ... .. . ... : ... .. . ... ...
ROW 5E : ... .. 7 ... ... ... : ... .. . ... ... ... : ... .. . ... : ... .. . ... : ... .. . ... ...
ROW 5F : ... .. 6 ... ... ... : ... .. . ... ... ... : ... .. . ... : ... .. . ... : ... .. . ... ...
ROW 60 : ... .. 5 ... ... ... : ... .. 4 ... ... ... : --- .. . ... : ... .. . ... : ... .. . ... ...
ROW 61 : F-2 00 4 P80 ... ... : D-4 00 D P80 ... ... : D#2 00 . P7F : ... .. C ... : ... .. . ... ...
ROW 62 : ... .. 5 ... ... ... : ... .. 9 ... ... ... : ... .. . ... : ... .. 8 ... : ... .. . ... ...
ROW 63 : ... .. 6 ... ... ... : ... .. 7 ... ... ... : ... .. . ... : ... .. 4 ... : ... .. . ... ...
ROW 64 : ... .. 7 ... ... ... : ... .. 6 ... ... ... : ... .. . ... : ... .. 0 ... : ... .. . ... ...
ROW 65 : ... .. 8 ... ... ... : ... .. 5 ... ... ... : ... .. . ... : ... .. . ... : ... .. . ... ...
ROW 66 : ... .. 7 ... ... ... : ... .. . ... ... ... : ... .. . ... : ... .. . ... : ... .. . ... ...
ROW 67 : ... .. 6 ... ... ... : ... .. . ... ... ... : ... .. . ... : ... .. . ... : ... .. . ... ...
ROW 68 : ... .. 5 ... ... ... : ... .. 4 ... ... ... : ... .. . ... : ... .. . ... : ... .. . ... ...
ROW 69 : ... .. 4 ... ... ... : ... .. . ... ... ... : ... .. . ... : ... .. . ... : ... .. . ... ...
ROW 6A : ... .. . ... ... ... : ... .. . ... ... ... : ... .. . ... : ... .. . ... : ... .. . ... ...
ROW 6B : ... .. . ... ... ... : ... .. . ... ... ... : ... .. . ... : ... .. . ... : ... .. . ... ...
ROW 6C : ... .. . ... ... ... : ... .. . ... ... ... : ... .. . ... : ... .. . ... : ... .. . ... ...
ROW 6D : ... .. . ... ... ... : ... .. . ... ... ... : ... .. . ... : ... .. . ... : ... .. . ... ...
ROW 6E : ... .. . ... ... ... : ... .. . ... ... ... : ... .. . ... : ... .. . ... : ... .. . ... ...
ROW 6F : ... .. . ... ... ... : ... .. . ... ... ... : ... .. . ... : ... .. . ... : ... .. . ... ...
ROW 70 : ... .. . ... ... ... : ... .. . ... ... ... : --- .. . ... : ... .. . ... : ... .. . ... ...
ROW 71 : ... .. . ... ... ... : ... .. . ... ... ... : ... .. . ... : ... .. . ... : ... .. . ... ...
ROW 72 : ... .. . ... ... ... : ... .. . ... ... ... : ... .. . ... : ... .. . ... : ... .. . ... ...
ROW 73 : ... .. . ... ... ... : ... .. . ... ... ... : ... .. . ... : ... .. . ... : ... .. . ... ...
ROW 74 : ... .. . ... ... ... : ... .. . ... ... ... : ... .. . ... : ... .. . ... : ... .. . ... ...
ROW 75 : ... .. . ... ... ... : ... .. . ... ... ... : ... .. . ... : ... .. . ... : ... .. . ... ...
ROW 76 : ... .. . ... ... ... : ... .. . ... ... ... : ... .. . ... : ... .. . ... : ... .. . ... ...
ROW 77 : ... .. . ... ... ... : ... .. . ... ... ... : ... .. . ... : ... .. . ... : ... .. . ... ...
ROW 78 : ... .. . ... ... ... : ... .. . ... ... ... : ... .. . ... : ... .. . ... : ... .. . ... ...
ROW 79 : A#2 00 4 P80 ... ... : ... .. . ... ... ... : D-2 00 . P80 : ... .. C ... : ... .. . ... ...
ROW 7A : ... .. 5 ... ... ... : ... .. . ... ... ... : ... .. . ... : ... .. 8 ... : ... .. . ... ...
ROW 7B : ... .. 6 ... ... ... : ... .. . ... ... ... : ... .. . ... : ... .. 4 ... : ... .. . ... ...
ROW 7C : ... .. 7 ... ... ... : ... .. . ... ... ... : ... .. . ... : ... .. 0 ... : ... .. . ... ...
ROW 7D : ... .. 8 ... ... ... : ... .. . ... ... ... : ... .. . ... : ... .. . ... : ... .. . ... ...
ROW 7E : ... .. 7 ... ... ... : ... .. . ... ... ... : ... .. . ... : ... .. . ... : ... .. . ... ...
ROW 7F : ... .. 6 ... ... ... : ... .. . ... ... ... : ... .. . ... : ... .. . ... : ... .. . ... ...

PATTERN 2B
ROW 00 : ... .. 5 ... ... ... : ... .. . ... ... ... : ... .. . ... : ... .. . ... : ... .. . ... ...
ROW 01 : ... .. 4 ... ... ... : ... .. . ... ... ... : ... .. . ... : ... .. . ... : ... .. . ... ...
ROW 02 : ... .. . ... ... ... : ... .. . ... ... ... : ... .. . ... : ... .. . ... : ... .. . ... ...
ROW 03 : ... .. . ... ... ... : ... .. . ... ... ... : ... .. . ... : ... .. . ... : ... .. . ... ...
ROW 04 : ... .. . ... ... ... : ... .. . ... ... ... : ... .. . ... : ... .. . ... : ... .. . ... ...
ROW 05 : ... .. . ... ... ... : ... .. . ... ... ... : ... .. . ... : ... .. . ... : ... .. . ... ...
ROW 06 : ... .. . ... ... ... : ... .. . ... ... ... : ... .. . ... : ... .. . ... : ... .. . ... ...
ROW 07 : ... .. . ... ... ... : ... .. . ... ... ... : ... .. . ... : ... .. . ... : ... .. . ... ...
ROW 08 : ... .. . ... ... ... : ... .. . ... ... ... : --- .. . ... : ... .. . ... : ... .. . ... ...
ROW 09 : ... .. . ... ... ... : ... .. . ... ... ... : ... .. . ... : ... .. . ... : ... .. . ... ...
ROW 0A : ... .. . ... ... ... : ... .. . ... ... ... : ... .. . ... : ... .. . ... : ... .. . ... ...
ROW 0B : ... .. . ... ... ... : ... .. . ... ... ... : ... .. . ... : ... .. . ... : ... .. . ... ...
ROW 0C : ... .. . ... ... ... : ... .. . ... ... ... : ... .. . ... : ... .. . ... : ... .. . ... ...
ROW 0D : ... .. . ... ... ... : ... .. . ... ... ... : ... .. . ... : ... .. . ... : ... .. . ... ...
ROW 0E : ... .. . ... ... ... : ... .. . ... ... ... : ... .. . ... : ... .. . ... : ... .. . ... ...
ROW 0F : ... .. . ... ... ... : ... .. . ... ... ... : ... .. . ... : ... .. . ... : ... .. . ... ...
ROW 10 : ... .. . ... ... ... : ... .. . ... ... ... : ... .. . ... : ... .. . ... : ... .. . ... ...
ROW 11 : G-2 00 4 P80 ... ... : A#3 00 D P81 ... ... : C-2 00 . P7F : ... .. C ... : ... .. . ... ...
ROW 12 : ... .. 5 ... ... ... : ... .. 9 ... ... ... : ... .. . ... : ... .. 8 ... : ... .. . ... ...
ROW 13 : ... .. 6 ... ... ... : ... .. 7 ... ... ... : ... .. . ... : ... .. 4 ... : ... .. . ... ...
ROW 14 : ... .. 7 ... ... ... : ... .. 6 ... ... ... : ... .. . ... : ... .. 0 ... : ... .. . ... ...
ROW 15 : ... .. 8 ... ... ... : ... .. 5 ... ... ... : ... .. . ... : ... .. . ... : ... .. . ... ...
ROW 16 : ... .. 7 ... ... ... : ... .. . ... ... ... : ... .. . ... : ... .. . ... : ... .. . ... ...
ROW 17 : ... .. 6 ... ... ... : ... .. . ... ... ... : ... .. . ... : ... .. . ... : ... .. . ... ...
ROW 18 : ... .. 5 ... ... ... : ... .. 4 ... ... ... : ... .. . ... : ... .. . ... : ... .. . ... ...
ROW 19 : ... .. 4 ... ... ... : ... .. . ... ... ... : ... .. . ... : ... .. . ... : ... .. . ... ...
ROW 1A : ... .. . ... ... ... : ... .. . ... ... ... : ... .. . ... : ... .. . ... : ... .. . ... ...
ROW 1B : ... .. . ... ... ... : ... .. . ... ... ... : ... .. . ... : ... .. . ... : ... .. . ... ...
ROW 1C : ... .. . ... ... ... : ... .. . ... ... ... : ... .. . ... : ... .. . ... : ... .. . ... ...
ROW 1D : ... .. . ... ... ... : ... .. . ... ... ... : ... .. . ... : ... .. . ... : ... .. . ... ...
ROW 1E : ... .. . ... ... ... : ... .. . ... ... ... : ... .. . ... : ... .. . ... : ... .. . ... ...
ROW 1F : ... .. . ... ... ... : ... .. . ... ... ... : ... .. . ... : ... .. . ... : ... .. . ... ...
ROW 20 : ... .. . ... ... ... : ... .. . ... ... ... : --- .. . ... : ... .. . ... : ... .. . ... ...
ROW 21 : ... .. . ... ... ... : ... .. . ... ... ... : ... .. . ... : ... .. . ... : ... .. . ... ...
ROW 22 : ... .. . ... ... ... : ... .. . ... ... ... : ... .. . ... : ... .. . ... : ... .. . ... ...
ROW 23 : ... .. . ... ... ... : ... .. . ... ... ... : ... .. . ... : ... .. . ... : ... .. . ... ...
ROW 24 : ... .. . ... ... ... : ... .. . ... ... ... : ... .. . ... : ... .. . ... : ... .. . ... ...
ROW 25 : ... .. . ... ... ... : ... .. . ... ... ... : ... .. . ... : ... .. . ... : ... .. . ... ...
ROW 26 : ... .. . ... ... ... : ... .. . ... ... ... : ... .. . ... : ... .. . ... : ... .. . ... ...
ROW 27 : ... .. . ... ... ... : ... .. . ... ... ... : ... .. . ... : ... .. . ... : ... .. . ... ...
ROW 28 : ... .. . ... ... ... : ... .. . ... ... ... : ... .. . ... : ... .. . ... : ... .. . ... ...
ROW 29 : F-2 00 4 P80 ... ... : A#3 00 D P81 ... ... : A#1 00 . P80 : ... .. C ... : ... .. . ... ...
ROW 2A : ... .. 5 ... ... ... : ... .. 9 ... ... ... : ... .. . ... : ... .. 8 ... : ... .. . ... ...
ROW 2B : ... .. 6 ... ... ... : ... .. 7 ... ... ... : ... .. . ... : ... .. 4 ... : ... .. . ... ...
ROW 2C : ... .. 7 ... ... ... : ... .. 6 ... ... ... : ... .. . ... : ... .. 0 ... : ... .. . ... ...
ROW 2D : ... .. 8 ... ... ... : ... .. 5 ... ... ... : ... .. . ... : ... .. . ... : ... .. . ... ...
ROW 2E : ... .. 7 ... ... ... : ... .. . ... ... ... : ... .. . ... : ... .. . ... : ... .. . ... ...
ROW 2F : ... .. 6 ... ... ... : ... .. . ... ... ... : ... .. . ... : ... .. . ... : ... .. . ... ...
ROW 30 : ... .. 5 ... ... ... : ... .. 4 ... ... ... : ... .. . ... : ... .. . ... : ... .. . ... ...
ROW 31 : A#3 00 4 P81 ... ... : D-4 00 D P80 ... ... : ... .. . ... : ... .. C ... : ... .. . ... ...
ROW 32 : ... .. 5 ... ... ... : ... .. 9 ... ... ... : ... .. . ... : ... .. 8 ... : ... .. . ... ...
ROW 33 : ... .. 6 ... ... ... : ... .. 7 ... ... ... : ... .. . ... : ... .. 4 ... : ... .. . ... ...
ROW 34 : ... .. 7 ... ... ... : ... .. 6 ... ... ... : ... .. . ... : ... .. 0 ... : ... .. . ... ...
ROW 35 : ... .. 8 ... ... ... : ... .. 5 ... ... ... : ... .. . ... : ... .. . ... : ... .. . ... ...
ROW 36 : ... .. 7 ... ... ... : ... .. . ... ... ... : ... .. . ... : ... .. . ... : ... .. . ... ...
ROW 37 : ... .. 6 ... ... ... : ... .. . ... ... ... : ... .. . ... : ... .. . ... : ... .. . ... ...
ROW 38 : ... .. 5 ... ... ... : ... .. 4 ... ... ... : --- .. . ... : ... .. . ... : ... .. . ... ...
ROW 39 : D-3 00 4 P80 ... ... : F-4 00 D P80 ... ... : ... .. . ... : ... .. C ... : ... .. . ... ...
ROW 3A : ... .. 5 ... ... ... : ... .. 9 ... ... ... : ... .. . ... : ... .. 8 ... : ... .. . ... ...
ROW 3B : ... .. 6 ... ... ... : ... .. 7 ... ... ... : ... .. . ... : ... .. 4 ... : ... .. . ... ...
ROW 3C : ... .. 7 ... ... ... : ... .. 6 ... ... ... : ... .. . ... : ... .. 0 ... : ... .. . ... ...
ROW 3D : ... .. 8 ... ... ... : ... .. 5 ... ... ... : ... .. . ... : ... .. . ... : ... .. . ... ...
ROW 3E : ... .. 7 ... ... ... : ... .. . ... ... ... : ... .. . ... : ... .. . ... : ... .. . ... ...
ROW 3F : ... .. 6 ... ... ... : ... .. . ... ... ... : ... .. . ... : ... .. . ... : ... .. . ... ...
ROW 40 : ... .. 5 ... ... ... : ... .. 4 ... ... ... : ... .. . ... : ... .. . ... : ... .. . ... ...
ROW 41 : D-3 00 4 P80 ... ... : F#4 00 D P80 ... ... : A-2 00 . P7F : ... .. C ... : ... .. . ... ...
ROW 42 : ... .. 5 ... ... ... : ... .. 9 ... ... ... : ... .. . ... : ... .. 8 ... : ... .. . ... ...
ROW 43 : ... .. 6 ... ... ... : ... .. 7 ... ... ... : ... .. . ... : ... .. 4 ... : ... .. . ... ...
ROW 44 : ... .. 7 ... ... ... : ... .. 6 ... ... ... : ... .. . ... : ... .. 0 ... : ... .. . ... ...
ROW 45 : ... .. 8 ... ... ... : ... .. 5 ... ... ... : ... .. . ... : ... .. . ... : ... .. . ... ...
ROW 46 : ... .. 7 ... ... ... : ... .. . ... ... ... : ... .. . ... : ... .. . ... : ... .. . ... ...
ROW 47 : ... .. 6 ... ... ... : ... .. . ... ... ... : ... .. . ... : ... .. . ... : ... .. . ... ...
ROW 48 : ... .. 5 ... ... ... : ... .. 4 ... ... ... : ... .. . ... : ... .. . ... : ... .. . ... ...
ROW 49 : ... .. 4 ... ... ... : ... .. . ... ... ... : ... .. . ... : ... .. . ... : ... .. . ... ...
ROW 4A : ... .. . ... ... ... : ... .. . ... ... ... : ... .. . ... : ... .. . ... : ... .. . ... ...
ROW 4B : ... .. . ... ... ... : ... .. . ... ... ... : ... .. . ... : ... .. . ... : ... .. . ... ...
ROW 4C : ... .. . ... ... ... : ... .. . ... ... ... : ... .. . ... : ... .. . ... : ... .. . ... ...
ROW 4D : ... .. . ... ... ... : ... .. . ... ... ... : ... .. . ... : ... .. . ... : ... .. . ... ...
ROW 4E : ... .. . ... ... ... : ... .. . ... ... ... : ... .. . ... : ... .. . ... : ... .. . ... ...
ROW 4F : ... .. . ... ... ... : ... .. . ... ... ... : ... .. . ... : ... .. . ... : ... .. . ... ...
ROW 50 : ... .. . ... ... ... : ... .. . ... ... ... : --- .. . ... : ... .. . ... : ... .. . ... ...
ROW 51 : ... .. . ... ... ... : ... .. . ... ... ... : ... .. . ... : ... .. . ... : ... .. . ... ...
ROW 52 : ... .. . ... ... ... : ... .. . ... ... ... : ... .. . ... : ... .. . ... : ... .. . ... ...
ROW 53 : ... .. . ... ... ... : ... .. . ... ... ... : ... .. . ... : ... .. . ... : ... .. . ... ...
ROW 54 : ... .. . ... ... ... : ... .. . ... ... ... : ... .. . ... : ... .. . ... : ... .. . ... ...
ROW 55 : ... .. . ... ... ... : ... .. . ... ... ... : ... .. . ... : ... .. . ... : ... .. . ... ...
ROW 56 : ... .. . ... ... ... : ... .. . ... ... ... : ... .. . ... : ... .. . ... : ... .. . ... ...
ROW 57 : ... .. . ... ... ... : ... .. . ... ... ... : ... .. . ... : ... .. . ... : ... .. . ... ...
ROW 58 : ... .. . ... ... ... : ... .. . ... ... ... : ... .. . ... : ... .. . ... : ... .. . ... ...
ROW 59 : ... .. . ... ... ... : ... .. . ... ... ... : A-2 00 . ... : ... .. C ... : ... .. . ... ...
ROW 5A : ... .. . ... ... ... : ... .. . ... ... ... : ... .. . ... : ... .. 8 ... : ... .. . ... ...
ROW 5B : ... .. . ... ... ... : ... .. . ... ... ... : ... .. . ... : ... .. 4 ... : ... .. . ... ...
ROW 5C : ... .. . ... ... ... : ... .. . ... ... ... : ... .. . ... : ... .. 0 ... : ... .. . ... ...
ROW 5D : ... .. . ... ... ... : ... .. . ... ... ... : ... .. . ... : ... .. . ... : ... .. . ... ...
ROW 5E : ... .. . ... ... ... : ... .. . ... ... ... : ... .. . ... : ... .. . ... : ... .. . ... ...
ROW 5F : ... .. . ... ... ... : ... .. . ... ... ... : ... .. . ... : ... .. . ... : ... .. . ... ...
ROW 60 : ... .. . ... ... ... : ... .. . ... ... ... : ... .. . ... : ... .. . ... : ... .. . ... ...
ROW 61 : ... .. . ... ... ... : ... .. . ... ... ... : ... .. . ... : ... .. . ... : ... .. . ... ...
ROW 62 : ... .. . ... ... ... : ... .. . ... ... ... : ... .. . ... : ... .. . ... : ... .. . ... ...
ROW 63 : ... .. . ... ... ... : ... .. . ... ... ... : ... .. . ... : ... .. . ... : ... .. . ... ...
ROW 64 : ... .. . ... ... ... : ... .. . ... ... ... : ... .. . ... : ... .. . ... : ... .. . ... ...
ROW 65 : ... .. . ... ... ... : ... .. . ... ... ... : ... .. . ... : ... .. . ... : ... .. . ... ...
ROW 66 : ... .. . ... ... ... : ... .. . ... ... ... : ... .. . ... : ... .. . ... : ... .. . ... ...
ROW 67 : ... .. . ... ... ... : ... .. . ... ... ... : ... .. . ... : ... .. . ... : ... .. . ... ...
ROW 68 : ... .. . ... ... ... : ... .. . ... ... ... : --- .. . ... : ... .. . ... : ... .. . ... ...
ROW 69 : ... .. . ... ... ... : ... .. . ... ... ... : ... .. . ... : ... .. . ... : ... .. . ... ...
ROW 6A : ... .. . ... ... ... : ... .. . ... ... ... : ... .. . ... : ... .. . ... : ... .. . ... ...
ROW 6B : ... .. . ... ... ... : ... .. . ... ... ... : ... .. . ... : ... .. . ... : ... .. . ... ...
ROW 6C : ... .. . ... ... ... : ... .. . ... ... ... : ... .. . ... : ... .. . ... : ... .. . ... ...
ROW 6D : ... .. . ... ... ... : ... .. . ... ... ... : ... .. . ... : ... .. . ... : ... .. . ... ...
ROW 6E : ... .. . ... ... ... : ... .. . ... ... ... : ... .. . ... : ... .. . ... : ... .. . ... ...
ROW 6F : ... .. . ... ... ... : ... .. . ... ... ... : ... .. . ... : ... .. . ... : ... .. . ... ...
ROW 70 : ... .. . ... ... ... : ... .. . ... ... ... : ... .. . ... : ... .. . ... : ... .. . ... ...
ROW 71 : ... .. . ... ... ... : ... .. . ... ... ... : A-2 00 . ... : ... .. C ... : ... .. . ... ...
ROW 72 : ... .. . ... ... ... : ... .. . ... ... ... : ... .. . ... : ... .. 8 ... : ... .. . ... ...
ROW 73 : ... .. . ... ... ... : ... .. . ... ... ... : ... .. . ... : ... .. 4 ... : ... .. . ... ...
ROW 74 : ... .. . ... ... ... : ... .. . ... ... ... : ... .. . ... : ... .. 0 ... : ... .. . ... ...
ROW 75 : ... .. . ... ... ... : ... .. . ... ... ... : ... .. . ... : ... .. . ... : ... .. . ... ...
ROW 76 : ... .. . ... ... ... : ... .. . ... ... ... : ... .. . ... : ... .. . ... : ... .. . ... ...
ROW 77 : ... .. . ... ... ... : ... .. . ... ... ... : ... .. . ... : ... .. . ... : ... .. . ... ...
ROW 78 : ... .. . ... ... ... : ... .. . ... ... ... : ... .. . ... : ... .. . ... : ... .. . ... ...
ROW 79 : ... .. . ... ... ... : ... .. . ... ... ... : ... .. . ... : ... .. . ... : ... .. . ... ...
ROW 7A : ... .. . ... ... ... : ... .. . ... ... ... : ... .. . ... : ... .. . ... : ... .. . ... ...
ROW 7B : ... .. . ... ... ... : ... .. . ... ... ... : ... .. . ... : ... .. . ... : ... .. . ... ...
ROW 7C : ... .. . ... ... ... : ... .. . ... ... ... : ... .. . ... : ... .. . ... : ... .. . ... ...
ROW 7D : ... .. . ... ... ... : ... .. . ... ... ... : ... .. . ... : ... .. . ... : ... .. . ... ...
ROW 7E : ... .. . ... ... ... : ... .. . ... ... ... : ... .. . ... : ... .. . ... : ... .. . ... ...
ROW 7F : ... .. . ... ... ... : ... .. . ... ... ... : ... .. . ... : ... .. . ... : ... .. . ... ...

PATTERN 2C
ROW 00 : ... .. . ... ... ... : ... .. . ... ... ... : --- .. . ... : ... .. . ... : ... .. . ... ...
ROW 01 : ... .. . ... ... ... : ... .. . ... ... ... : ... .. . ... : ... .. . ... : ... .. . ... ...
ROW 02 : ... .. . ... ... ... : ... .. . ... ... ... : ... .. . ... : ... .. . ... : ... .. . ... ...
ROW 03 : ... .. . ... ... ... : ... .. . ... ... ... : ... .. . ... : ... .. . ... : ... .. . ... ...
ROW 04 : ... .. . ... ... ... : ... .. . ... ... ... : ... .. . ... : ... .. . ... : ... .. . ... ...
ROW 05 : ... .. . ... ... ... : ... .. . ... ... ... : ... .. . ... : ... .. . ... : ... .. . ... ...
ROW 06 : ... .. . ... ... ... : ... .. . ... ... ... : ... .. . ... : ... .. . ... : ... .. . ... ...
ROW 07 : ... .. . ... ... ... : ... .. . ... ... ... : ... .. . ... : ... .. . ... : ... .. . ... ...
ROW 08 : ... .. . ... ... ... : ... .. . ... ... ... : ... .. . ... : ... .. . ... : ... .. . ... ...
ROW 09 : ... .. . ... ... ... : ... .. . ... ... ... : A-2 00 . ... : ... .. C ... : ... .. . ... ...
ROW 0A : ... .. . ... ... ... : ... .. . ... ... ... : ... .. . ... : ... .. 8 ... : ... .. . ... ...
ROW 0B : ... .. . ... ... ... : ... .. . ... ... ... : ... .. . ... : ... .. 4 ... : ... .. . ... ...
ROW 0C : ... .. . ... ... ... : ... .. . ... ... ... : ... .. . ... : ... .. 0 ... : ... .. . ... ...
ROW 0D : ... .. . ... ... ... : ... .. . ... ... ... : ... .. . ... : ... .. . ... : ... .. . ... ...
ROW 0E : ... .. . ... ... ... : ... .. . ... ... ... : ... .. . ... : ... .. . ... : ... .. . ... ...
ROW 0F : ... .. . ... ... ... : ... .. . ... ... ... : ... .. . ... : ... .. . ... : ... .. . ... ...
ROW 10 : ... .. . ... ... ... : ... .. . ... ... ... : ... .. . ... : ... .. . ... : ... .. . ... ...
ROW 11 : ... .. . ... ... ... : ... .. . ... ... ... : ... .. . ... : ... .. C ... : ... .. . ... ...
ROW 12 : ... .. . ... ... ... : ... .. . ... ... ... : ... .. . ... : ... .. 8 ... : ... .. . ... ...
ROW 13 : ... .. . ... ... ... : ... .. . ... ... ... : ... .. . ... : ... .. 4 ... : ... .. . ... ...
ROW 14 : ... .. . ... ... ... : ... .. . ... ... ... : ... .. . ... : ... .. 0 ... : ... .. . ... ...
ROW 15 : ... .. . ... ... ... : ... .. . ... ... ... : ... .. . ... : ... .. . ... : ... .. . ... ...
ROW 16 : ... .. . ... ... ... : ... .. . ... ... ... : ... .. . ... : ... .. . ... : ... .. . ... ...
ROW 17 : ... .. . ... ... ... : ... .. . ... ... ... : ... .. . ... : ... .. . ... : ... .. . ... ...
ROW 18 : ... .. . ... ... ... : ... .. . ... ... ... : --- .. . ... : ... .. . ... : ... .. . ... ...
ROW 19 : ... .. . ... ... ... : ... .. . ... ... ... : ... .. . ... : ... .. C ... : ... .. . ... ...
ROW 1A : ... .. . ... ... ... : ... .. . ... ... ... : ... .. . ... : ... .. 8 ... : ... .. . ... ...
ROW 1B : ... .. . ... ... ... : ... .. . ... ... ... : ... .. . ... : ... .. 4 ... : ... .. . ... ...
ROW 1C : ... .. . ... ... ... : ... .. . ... ... ... : ... .. . ... : ... .. 0 ... : ... .. . ... ...
ROW 1D : ... .. . ... ... ... : ... .. . ... ... ... : ... .. . ... : ... .. . ... : ... .. . ... ...
ROW 1E : ... .. . ... ... ... : ... .. . ... ... ... : ... .. . ... : ... .. . ... : ... .. . ... ...
ROW 1F : ... .. . ... ... ... : ... .. . ... ... ... : ... .. . ... : ... .. . ... : ... .. . ... ...
ROW 20 : ... .. . ... ... ... : ... .. . ... ... ... : ... .. . ... : ... .. . ... : ... .. . ... ...
ROW 21 : B-2 00 4 P80 ... ... : F#4 00 D P80 ... ... : A-2 00 . ... : ... .. C ... : ... .. . ... ...
ROW 22 : ... .. 5 ... ... ... : ... .. 9 ... ... ... : ... .. . ... : ... .. 8 ... : ... .. . ... ...
ROW 23 : ... .. 6 ... ... ... : ... .. 7 ... ... ... : ... .. . ... : ... .. 4 ... : ... .. . ... ...
ROW 24 : ... .. 7 ... ... ... : ... .. 6 ... ... ... : ... .. . ... : ... .. 0 ... : ... .. . ... ...
ROW 25 : ... .. 8 ... ... ... : ... .. 5 ... ... ... : ... .. . ... : ... .. . ... : ... .. . ... ...
ROW 26 : ... .. 7 ... ... ... : ... .. . ... ... ... : ... .. . ... : ... .. . ... : ... .. . ... ...
ROW 27 : ... .. 6 ... ... ... : ... .. . ... ... ... : ... .. . ... : ... .. . ... : ... .. . ... ...
ROW 28 : ... .. 5 ... ... ... : ... .. 4 ... ... ... : --- .. . ... : ... .. . ... : ... .. . ... ...
ROW 29 : ... .. 4 ... ... ... : ... .. . ... ... ... : A-2 00 . ... : ... .. . ... : ... .. . ... ...
ROW 2A : ... .. . ... ... ... : ... .. . ... ... ... : ... .. . ... : ... .. . ... : ... .. . ... ...
ROW 2B : ... .. . ... ... ... : ... .. . ... ... ... : ... .. . ... : ... .. . ... : ... .. . ... ...
ROW 2C : ... .. . ... ... ... : ... .. . ... ... ... : ... .. . ... : ... .. . ... : ... .. . ... ...
ROW 2D : ... .. . ... ... ... : ... .. . ... ... ... : ... .. . ... : ... .. . ... : ... .. . ... ...
ROW 2E : ... .. . ... ... ... : ... .. . ... ... ... : ... .. . ... : ... .. . ... : ... .. . ... ...
ROW 2F : ... .. . ... ... ... : ... .. . ... ... ... : ... .. . ... : ... .. . ... : ... .. . ... ...
ROW 30 : ... .. . ... ... ... : ... .. . ... ... ... : --- .. . ... : ... .. . ... : ... .. . ... ...
ROW 31 : ... .. . ... ... ... : ... .. . ... ... ... : A-2 00 . ... : ... .. . ... : ... .. . ... ...
ROW 32 : ... .. . ... ... ... : ... .. . ... ... ... : ... .. . ... : ... .. . ... : ... .. . ... ...
ROW 33 : ... .. . ... ... ... : ... .. . ... ... ... : ... .. . ... : ... .. . ... : ... .. . ... ...
ROW 34 : ... .. . ... ... ... : ... .. . ... ... ... : ... .. . ... : ... .. . ... : ... .. . ... ...
ROW 35 : ... .. . ... ... ... : ... .. . ... ... ... : ... .. . ... : ... .. . ... : ... .. . ... ...
ROW 36 : ... .. . ... ... ... : ... .. . ... ... ... : ... .. . ... : ... .. . ... : ... .. . ... ...
ROW 37 : ... .. . ... ... ... : ... .. . ... ... ... : ... .. . ... : ... .. . ... : ... .. . ... ...
ROW 38 : ... .. . ... ... ... : ... .. . ... ... ... : --- .. . ... : ... .. . ... : ... .. . ... ...
ROW 39 : ... .. . ... ... ... : ... .. . ... ... ... : A-2 00 . ... : ... .. C ... : ... .. . ... ...
ROW 3A : ... .. . ... ... ... : ... .. . ... ... ... : ... .. . ... : ... .. 8 ... : ... .. . ... ...
ROW 3B : ... .. . ... ... ... : ... .. . ... ... ... : ... .. . ... : ... .. 4 ... : ... .. . ... ...
ROW 3C : ... .. . ... ... ... : ... .. . ... ... ... : ... .. . ... : ... .. 0 ... : ... .. . ... ...
ROW 3D : ... .. . ... ... ... : ... .. . ... ... ... : ... .. . ... : ... .. . ... : ... .. . ... ...
ROW 3E : ... .. . ... ... ... : ... .. . ... ... ... : ... .. . ... : ... .. . ... : ... .. . ... ...
ROW 3F : ... .. . ... ... ... : ... .. . ... ... ... : ... .. . ... : ... .. . ... : ... .. . ... ...
ROW 40 : ... .. . ... ... ... : ... .. . ... ... ... : --- .. . ... : ... .. . ... : ... .. . ... ...
ROW 41 : ... .. . ... ... ... : ... .. . ... ... ... : A-2 00 . ... : ... .. . ... : ... .. . ... ...
ROW 42 : ... .. . ... ... ... : ... .. . ... ... ... : ... .. . ... : ... .. . ... : ... .. . ... ...
ROW 43 : ... .. . ... ... ... : ... .. . ... ... ... : ... .. . ... : ... .. . ... : ... .. . ... ...
ROW 44 : ... .. . ... ... ... : ... .. . ... ... ... : ... .. . ... : ... .. . ... : ... .. . ... ...
ROW 45 : ... .. . ... ... ... : ... .. . ... ... ... : ... .. . ... : ... .. . ... : ... .. . ... ...
ROW 46 : ... .. . ... ... ... : ... .. . ... ... ... : ... .. . ... : ... .. . ... : ... .. . ... ...
ROW 47 : ... .. . ... ... ... : ... .. . ... ... ... : ... .. . ... : ... .. . ... : ... .. . ... ...
ROW 48 : ... .. . ... ... ... : ... .. . ... ... ... : --- .. . ... : ... .. . ... : ... .. . ... ...
ROW 49 : ... .. . ... ... ... : ... .. . ... ... ... : A-2 00 . ... : ... .. . ... : ... .. . ... ...
ROW 4A : ... .. . ... ... ... : ... .. . ... ... ... : ... .. . ... : ... .. . ... : ... .. . ... ...
ROW 4B : ... .. . ... ... ... : ... .. . ... ... ... : ... .. . ... : ... .. . ... : ... .. . ... ...
ROW 4C : ... .. . ... ... ... : ... .. . ... ... ... : ... .. . ... : ... .. . ... : ... .. . ... ...
ROW 4D : ... .. . ... ... ... : ... .. . ... ... ... : ... .. . ... : ... .. . ... : ... .. . ... ...
ROW 4E : ... .. . ... ... ... : ... .. . ... ... ... : ... .. . ... : ... .. . ... : ... .. . ... ...
ROW 4F : ... .. . ... ... ... : ... .. . ... ... ... : ... .. . ... : ... .. . ... : ... .. . ... ...
ROW 50 : ... .. . ... ... ... : ... .. . ... ... ... : --- .. . ... : ... .. . ... : ... .. . ... ...
ROW 51 : G-2 00 4 P80 ... ... : ... .. . ... ... ... : A-2 00 . ... : ... .. C ... : ... .. . ... ...
ROW 52 : ... .. 5 ... ... ... : ... .. . ... ... ... : ... .. . ... : ... .. 8 ... : ... .. . ... ...
ROW 53 : ... .. 6 ... ... ... : ... .. . ... ... ... : ... .. . ... : ... .. 4 ... : ... .. . ... ...
ROW 54 : ... .. 7 ... ... ... : ... .. . ... ... ... : ... .. . ... : ... .. 0 ... : ... .. . ... ...
ROW 55 : ... .. 8 ... ... ... : ... .. . ... ... ... : ... .. . ... : ... .. . ... : ... .. . ... ...
ROW 56 : ... .. 7 ... ... ... : ... .. . ... ... ... : ... .. . ... : ... .. . ... : ... .. . ... ...
ROW 57 : ... .. 6 ... ... ... : ... .. . ... ... ... : ... .. . ... : ... .. . ... : ... .. . ... ...
ROW 58 : ... .. 5 ... ... ... : ... .. . ... ... ... : --- .. . ... : ... .. . ... : ... .. . ... ...
ROW 59 : ... .. 4 ... ... ... : ... .. . ... ... ... : A-2 00 . ... : ... .. . ... : ... .. . ... ...
ROW 5A : ... .. . ... ... ... : ... .. . ... ... ... : ... .. . ... : ... .. . ... : ... .. . ... ...
ROW 5B : ... .. . ... ... ... : ... .. . ... ... ... : ... .. . ... : ... .. . ... : ... .. . ... ...
ROW 5C : ... .. . ... ... ... : ... .. . ... ... ... : ... .. . ... : ... .. . ... : ... .. . ... ...
ROW 5D : ... .. . ... ... ... : ... .. . ... ... ... : ... .. . ... : ... .. . ... : ... .. . ... ...
ROW 5E : ... .. . ... ... ... : ... .. . ... ... ... : ... .. . ... : ... .. . ... : ... .. . ... ...
ROW 5F : ... .. . ... ... ... : ... .. . ... ... ... : ... .. . ... : ... .. . ... : ... .. . ... ...
ROW 60 : ... .. . ... ... ... : ... .. . ... ... ... : --- .. . ... : ... .. . ... : ... .. . ... ...
ROW 61 : ... .. . ... ... ... : ... .. . ... ... ... : A-2 00 . ... : ... .. . ... : ... .. . ... ...
ROW 62 : ... .. . ... ... ... : ... .. . ... ... ... : ... .. . ... : ... .. . ... : ... .. . ... ...
ROW 63 : ... .. . ... ... ... : ... .. . ... ... ... : ... .. . ... : ... .. . ... : ... .. . ... ...
ROW 64 : ... .. . ... ... ... : ... .. . ... ... ... : ... .. . ... : ... .. . ... : ... .. . ... ...
ROW 65 : ... .. . ... ... ... : ... .. . ... ... ... : ... .. . ... : ... .. . ... : ... .. . ... ...
ROW 66 : ... .. . ... ... ... : ... .. . ... ... ... : ... .. . ... : ... .. . ... : ... .. . ... ...
ROW 67 : ... .. . ... ... ... : ... .. . ... ... ... : ... .. . ... : ... .. . ... : ... .. . ... ...
ROW 68 : ... .. . ... ... ... : ... .. . ... ... ... : --- .. . ... : ... .. . ... : ... .. . ... ...
ROW 69 : ... .. . ... ... ... : ... .. . ... ... ... : A-2 00 . ... : ... .. C ... : ... .. . ... ...
ROW 6A : ... .. . ... ... ... : ... .. . ... ... ... : ... .. . ... : ... .. 8 ... : ... .. . ... ...
ROW 6B : ... .. . ... ... ... : ... .. . ... ... ... : ... .. . ... : ... .. 4 ... : ... .. . ... ...
ROW 6C : ... .. . ... ... ... : ... .. . ... ... ... : ... .. . ... : ... .. 0 ... : ... .. . ... ...
ROW 6D : ... .. . ... ... ... : ... .. . ... ... ... : ... .. . ... : ... .. . ... : ... .. . ... ...
ROW 6E : ... .. . ... ... ... : ... .. . ... ... ... : ... .. . ... : ... .. . ... : ... .. . ... ...
ROW 6F : ... .. . ... ... ... : ... .. . ... ... ... : ... .. . ... : ... .. . ... : ... .. . ... ...
ROW 70 : ... .. . ... ... ... : ... .. . ... ... ... : --- .. . ... : ... .. . ... : ... .. . ... ...
ROW 71 : ... .. . ... ... ... : ... .. . ... ... ... : A-2 00 . ... : ... .. C ... : ... .. . ... ...
ROW 72 : ... .. . ... ... ... : ... .. . ... ... ... : ... .. . ... : ... .. 8 ... : ... .. . ... ...
ROW 73 : ... .. . ... ... ... : ... .. . ... ... ... : ... .. . ... : ... .. 4 ... : ... .. . ... ...
ROW 74 : ... .. . ... ... ... : ... .. . ... ... ... : ... .. . ... : ... .. 0 ... : ... .. . ... ...
ROW 75 : ... .. . ... ... ... : ... .. . ... ... ... : ... .. . ... : ... .. . ... : ... .. . ... ...
ROW 76 : ... .. . ... ... ... : ... .. . ... ... ... : ... .. . ... : ... .. . ... : ... .. . ... ...
ROW 77 : ... .. . ... ... ... : ... .. . ... ... ... : ... .. . ... : ... .. . ... : ... .. . ... ...
ROW 78 : ... .. . ... ... ... : ... .. . ... ... ... : --- .. . ... : ... .. . ... : ... .. . ... ...
ROW 79 : ... .. . ... ... ... : ... .. . ... ... ... : A-2 00 . ... : ... .. C ... : ... .. . ... ...
ROW 7A : ... .. . ... ... ... : ... .. . ... ... ... : ... .. . ... : ... .. 8 ... : ... .. . ... ...
ROW 7B : ... .. . ... ... ... : ... .. . ... ... ... : ... .. . ... : ... .. 4 ... : ... .. . ... ...
ROW 7C : ... .. . ... ... ... : ... .. . ... ... ... : ... .. . ... : ... .. 0 ... : ... .. . ... ...
ROW 7D : ... .. . ... ... ... : ... .. . ... ... ... : ... .. . ... : ... .. . ... : ... .. . ... ...
ROW 7E : ... .. . ... ... ... : ... .. . ... ... ... : ... .. . ... : ... .. . ... : ... .. . ... ...
ROW 7F : ... .. . ... ... ... : ... .. . ... ... ... : ... .. . ... : ... .. . ... : ... .. . ... ...

PATTERN 2D
ROW 00 : ... .. . ... ... ... : ... .. . ... ... ... : --- .. . ... : ... .. . ... : ... .. . ... ...
ROW 01 : ... .. . ... ... ... : ... .. . ... ... ... : ... .. . ... : ... .. . ... : ... .. . ... ...
ROW 02 : B-2 00 4 P80 ... ... : G-1 00 D P7F ... ... : ... .. . ... : ... .. C ... : ... .. . ... ...
ROW 03 : ... .. 5 ... ... ... : ... .. 9 ... ... ... : ... .. . ... : ... .. 8 ... : ... .. . ... ...
ROW 04 : ... .. 6 ... ... ... : ... .. 7 ... ... ... : ... .. . ... : ... .. 4 ... : ... .. . ... ...
ROW 05 : ... .. 7 ... ... ... : ... .. 6 ... ... ... : ... .. . ... : ... .. 0 ... : ... .. . ... ...
ROW 06 : ... .. 8 ... ... ... : ... .. 5 ... ... ... : ... .. . ... : ... .. . ... : ... .. . ... ...
ROW 07 : ... .. 7 ... ... ... : ... .. . ... ... ... : ... .. . ... : ... .. . ... : ... .. . ... ...
ROW 08 : ... .. 6 ... ... ... : ... .. . ... ... ... : ... .. . ... : ... .. . ... : ... .. . ... ...
ROW 09 : ... .. 5 ... ... ... : ... .. 4 ... ... ... : ... .. . ... : ... .. . ... : ... .. . ... ...
ROW 0A : ... .. 4 ... ... ... : ... .. . ... ... ... : ... .. . ... : ... .. . ... : ... .. . ... ...
ROW 0B : ... .. . ... ... ... : ... .. . ... ... ... : ... .. . ... : ... .. . ... : ... .. . ... ...
ROW 0C : ... .. . ... ... ... : ... .. . ... ... ... : ... .. . ... : ... .. . ... : ... .. . ... ...
ROW 0D : ... .. . ... ... ... : ... .. . ... ... ... : ... .. . ... : ... .. . ... : ... .. . ... ...
ROW 0E : ... .. . ... ... ... : ... .. . ... ... ... : ... .. . ... : ... .. . ... : ... .. . ... ...
ROW 0F : ... .. . ... ... ... : ... .. . ... ... ... : ... .. . ... : ... .. . ... : ... .. . ... ...
ROW 10 : ... .. . ... ... ... : ... .. . ... ... ... : ... .. . ... : ... .. . ... : ... .. . ... ...
ROW 11 : ... .. . ... ... ... : ... .. . ... ... ... : ... .. . ... : ... .. . ... : ... .. . ... ...
ROW 12 : ... .. . ... ... ... : ... .. . ... ... ... : ... .. . ... : ... .. . ... : ... .. . ... ...
ROW 13 : ... .. . ... ... ... : ... .. . ... ... ... : ... .. . ... : ... .. . ... : ... .. . ... ...
ROW 14 : ... .. . ... ... ... : ... .. . ... ... ... : ... .. . ... : ... .. . ... : ... .. . ... ...
ROW 15 : ... .. . ... ... ... : ... .. . ... ... ... : ... .. . ... : ... .. . ... : ... .. . ... ...
ROW 16 : ... .. . ... ... ... : ... .. . ... ... ... : ... .. . ... : ... .. . ... : ... .. . ... ...
ROW 17 : ... .. . ... ... ... : ... .. . ... ... ... : ... .. . ... : ... .. . ... : ... .. . ... ...
ROW 18 : ... .. . ... ... ... : ... .. . ... ... ... : ... .. . ... : ... .. . ... : ... .. . ... ...
ROW 19 : ... .. . ... ... ... : ... .. . ... ... ... : ... .. . ... : ... .. . ... : ... .. . ... ...
ROW 1A : ... .. . ... ... ... : G-1 00 D P7F ... ... : ... .. . ... : ... .. C ... : ... .. . ... ...
ROW 1B : ... .. . ... ... ... : ... .. 9 ... ... ... : ... .. . ... : ... .. 8 ... : ... .. . ... ...
ROW 1C : ... .. . ... ... ... : ... .. 7 ... ... ... : ... .. . ... : ... .. 4 ... : ... .. . ... ...
ROW 1D : ... .. . ... ... ... : ... .. 6 ... ... ... : ... .. . ... : ... .. 0 ... : ... .. . ... ...
ROW 1E : ... .. . ... ... ... : ... .. 5 ... ... ... : ... .. . ... : ... .. . ... : ... .. . ... ...
ROW 1F : ... .. . ... ... ... : ... .. . ... ... ... : ... .. . ... : ... .. . ... : ... .. . ... ...
ROW 20 : ... .. . ... ... ... : ... .. . ... ... ... : ... .. . ... : ... .. . ... : ... .. . ... ...
ROW 21 : ... .. . ... ... ... : ... .. 4 ... ... ... : ... .. . ... : ... .. . ... : ... .. . ... ...
ROW 22 : ... .. . ... ... ... : D-1 00 D P80 ... ... : ... .. . ... : ... .. . ... : ... .. . ... ...
ROW 23 : ... .. . ... ... ... : ... .. 9 ... ... ... : ... .. . ... : ... .. . ... : ... .. . ... ...
ROW 24 : ... .. . ... ... ... : ... .. 7 ... ... ... : ... .. . ... : ... .. . ... : ... .. . ... ...
ROW 25 : ... .. . ... ... ... : ... .. 6 ... ... ... : ... .. . ... : ... .. . ... : ... .. . ... ...
ROW 26 : ... .. . ... ... ... : ... .. 5 ... ... ... : ... .. . ... : ... .. . ... : ... .. . ... ...
ROW 27 : ... .. . ... ... ... : ... .. . ... ... ... : ... .. . ... : ... .. . ... : ... .. . ... ...
ROW 28 : ... .. . ... ... ... : ... .. . ... ... ... : ... .. . ... : ... .. . ... : ... .. . ... ...
ROW 29 : ... .. . ... ... ... : ... .. 4 ... ... ... : ... .. . ... : ... .. . ... : ... .. . ... ...
ROW 2A : ... .. . ... ... ... : G-1 00 D P7F ... ... : ... .. . ... : ... .. . ... : ... .. . ... ...
ROW 2B : ... .. . ... ... ... : ... .. 9 ... ... ... : ... .. . ... : ... .. . ... : ... .. . ... ...
ROW 2C : ... .. . ... ... ... : ... .. 7 ... ... ... : ... .. . ... : ... .. . ... : ... .. . ... ...
ROW 2D : ... .. . ... ... ... : ... .. 6 ... ... ... : ... .. . ... : ... .. . ... : ... .. . ... ...
ROW 2E : ... .. . ... ... ... : ... .. 5 ... ... ... : ... .. . ... : ... .. . ... : ... .. . ... ...
ROW 2F : ... .. . ... ... ... : ... .. . ... ... ... : ... .. . ... : ... .. . ... : ... .. . ... ...
ROW 30 : ... .. . ... ... ... : ... .. . ... ... ... : ... .. . ... : ... .. . ... : ... .. . ... ...
ROW 31 : ... .. . ... ... ... : ... .. 4 ... ... ... : ... .. . ... : ... .. . ... : ... .. . ... ...
ROW 32 : ... .. . ... ... ... : G-1 00 D P7F ... ... : ... .. . ... : ... .. C ... : ... .. . ... ...
ROW 33 : ... .. . ... ... ... : ... .. 9 ... ... ... : ... .. . ... : ... .. 8 ... : ... .. . ... ...
ROW 34 : ... .. . ... ... ... : ... .. 7 ... ... ... : ... .. . ... : ... .. 4 ... : ... .. . ... ...
ROW 35 : ... .. . ... ... ... : ... .. 6 ... ... ... : ... .. . ... : ... .. 0 ... : ... .. . ... ...
ROW 36 : ... .. . ... ... ... : ... .. 5 ... ... ... : ... .. . ... : ... .. . ... : ... .. . ... ...
ROW 37 : ... .. . ... ... ... : ... .. . ... ... ... : ... .. . ... : ... .. . ... : ... .. . ... ...
ROW 38 : ... .. . ... ... ... : ... .. . ... ... ... : ... .. . ... : ... .. . ... : ... .. . ... ...
ROW 39 : ... .. . ... ... ... : ... .. 4 ... ... ... : ... .. . ... : ... .. . ... : ... .. . ... ...
ROW 3A : ... .. . ... ... ... : ... .. . ... ... ... : ... .. . ... : ... .. . ... : ... .. . ... ...
ROW 3B : ... .. . ... ... ... : ... .. . ... ... ... : ... .. . ... : ... .. . ... : ... .. . ... ...
ROW 3C : ... .. . ... ... ... : ... .. . ... ... ... : ... .. . ... : ... .. . ... : ... .. . ... ...
ROW 3D : ... .. . ... ... ... : ... .. . ... ... ... : ... .. . ... : ... .. . ... : ... .. . ... ...
ROW 3E : ... .. . ... ... ... : ... .. . ... ... ... : ... .. . ... : ... .. . ... : ... .. . ... ...
ROW 3F : ... .. . ... ... ... : ... .. . ... ... ... : ... .. . ... : ... .. . ... : ... .. . ... ...
ROW 40 : ... .. . ... ... ... : ... .. . ... ... ... : ... .. . ... : ... .. . ... : ... .. . ... ...
ROW 41 : ... .. . ... ... ... : ... .. . ... ... ... : ... .. . ... : ... .. . ... : ... .. . ... ...
ROW 42 : ... .. . ... ... ... : ... .. . ... ... ... : ... .. . ... : ... .. . ... : ... .. . ... ...
ROW 43 : ... .. . ... ... ... : ... .. . ... ... ... : ... .. . ... : ... .. . ... : ... .. . ... ...
ROW 44 : ... .. . ... ... ... : ... .. . ... ... ... : ... .. . ... : ... .. . ... : ... .. . ... ...
ROW 45 : ... .. . ... ... ... : ... .. . ... ... ... : ... .. . ... : ... .. . ... : ... .. . ... ...
ROW 46 : ... .. . ... ... ... : ... .. . ... ... ... : ... .. . ... : ... .. . ... : ... .. . ... ...
ROW 47 : ... .. . ... ... ... : ... .. . ... ... ... : ... .. . ... : ... .. . ... : ... .. . ... ...
ROW 48 : ... .. . ... ... ... : ... .. . ... ... ... : ... .. . ... : ... .. . ... : ... .. . ... ...
ROW 49 : ... .. . ... ... ... : ... .. . ... ... ... : ... .. . ... : ... .. . ... : ... .. . ... ...
ROW 4A : ... .. . ... ... ... : G-1 00 D P7F ... ... : ... .. . ... : ... .. C ... : ... .. . ... ...
ROW 4B : ... .. . ... ... ... : ... .. 9 ... ... ... : ... .. . ... : ... .. 8 ... : ... .. . ... ...
ROW 4C : ... .. . ... ... ... : ... .. 7 ... ... ... : ... .. . ... : ... .. 4 ... : ... .. . ... ...
ROW 4D : ... .. . ... ... ... : ... .. 6 ... ... ... : ... .. . ... : ... .. 0 ... : ... .. . ... ...
ROW 4E : ... .. . ... ... ... : ... .. 5 ... ... ... : ... .. . ... : ... .. . ... : ... .. . ... ...
ROW 4F : ... .. . ... ... ... : ... .. . ... ... ... : ... .. . ... : ... .. . ... : ... .. . ... ...
ROW 50 : ... .. . ... ... ... : ... .. . ... ... ... : ... .. . ... : ... .. . ... : ... .. . ... ...
ROW 51 : ... .. . ... ... ... : ... .. 4 ... ... ... : ... .. . ... : ... .. . ... : ... .. . ... ...
ROW 52 : ... .. . ... ... ... : D-1 00 D P80 ... ... : ... .. . ... : ... .. C ... : ... .. . ... ...
ROW 53 : ... .. . ... ... ... : ... .. 9 ... ... ... : ... .. . ... : ... .. 8 ... : ... .. . ... ...
ROW 54 : ... .. . ... ... ... : ... .. 7 ... ... ... : ... .. . ... : ... .. 4 ... : ... .. . ... ...
ROW 55 : ... .. . ... ... ... : ... .. 6 ... ... ... : ... .. . ... : ... .. 0 ... : ... .. . ... ...
ROW 56 : ... .. . ... ... ... : ... .. 5 ... ... ... : ... .. . ... : ... .. . ... : ... .. . ... ...
ROW 57 : ... .. . ... ... ... : ... .. . ... ... ... : ... .. . ... : ... .. . ... : ... .. . ... ...
ROW 58 : ... .. . ... ... ... : ... .. . ... ... ... : ... .. . ... : ... .. . ... : ... .. . ... ...
ROW 59 : ... .. . ... ... ... : ... .. 4 ... ... ... : ... .. . ... : ... .. . ... : ... .. . ... ...
ROW 5A : ... .. . ... ... ... : G-1 00 D P7F ... ... : ... .. . ... : ... .. C ... : ... .. . ... ...
ROW 5B : ... .. . ... ... ... : ... .. 9 ... ... ... : ... .. . ... : ... .. 8 ... : ... .. . ... ...
ROW 5C : ... .. . ... ... ... : ... .. 7 ... ... ... : ... .. . ... : ... .. 4 ... : ... .. . ... ...
ROW 5D : ... .. . ... ... ... : ... .. 6 ... ... ... : ... .. . ... : ... .. 0 ... : ... .. . ... ...
ROW 5E : ... .. . ... ... ... : ... .. 5 ... ... ... : ... .. . ... : ... .. . ... : ... .. . ... ...
ROW 5F : ... .. . ... ... ... : ... .. . ... ... ... : ... .. . ... : ... .. . ... : ... .. . ... ...
ROW 60 : ... .. . ... ... ... : ... .. . ... ... ... : ... .. . ... : ... .. . ... : ... .. . ... ...
ROW 61 : ... .. . ... ... ... : ... .. 4 ... ... ... : ... .. . ... : ... .. . ... : ... .. . ... ...
ROW 62 : C-3 00 4 P80 ... ... : A#1 00 D P80 ... ... : ... .. . ... : ... .. C ... : ... .. . ... ...
ROW 63 : ... .. 5 ... ... ... : ... .. 9 ... ... ... : ... .. . ... : ... .. 8 ... : ... .. . ... ...
ROW 64 : ... .. 6 ... ... ... : ... .. 7 ... ... ... : ... .. . ... : ... .. 4 ... : ... .. . ... ...
ROW 65 : ... .. 7 ... ... ... : ... .. 6 ... ... ... : ... .. . ... : ... .. 0 ... : ... .. . ... ...
ROW 66 : ... .. 8 ... ... ... : ... .. 5 ... ... ... : ... .. . ... : ... .. . ... : ... .. . ... ...
ROW 67 : ... .. 7 ... ... ... : ... .. . ... ... ... : ... .. . ... : ... .. . ... : ... .. . ... ...
ROW 68 : ... .. 6 ... ... ... : ... .. . ... ... ... : ... .. . ... : ... .. . ... : ... .. . ... ...
ROW 69 : ... .. 5 ... ... ... : ... .. 4 ... ... ... : ... .. . ... : ... .. . ... : ... .. . ... ...
ROW 6A : ... .. 4 ... ... ... : ... .. . ... ... ... : ... .. . ... : ... .. . ... : ... .. . ... ...
ROW 6B : ... .. . ... ... ... : ... .. . ... ... ... : ... .. . ... : ... .. . ... : ... .. . ... ...
ROW 6C : ... .. . ... ... ... : ... .. . ... ... ... : ... .. . ... : ... .. . ... : ... .. . ... ...
ROW 6D : ... .. . ... ... ... : ... .. . ... ... ... : ... .. . ... : ... .. . ... : ... .. . ... ...
ROW 6E : ... .. . ... ... ... : ... .. . ... ... ... : ... .. . ... : ... .. . ... : ... .. . ... ...
ROW 6F : ... .. . ... ... ... : ... .. . ... ... ... : ... .. . ... : ... .. . ... : ... .. . ... ...
ROW 70 : ... .. . ... ... ... : ... .. . ... ... ... : ... .. . ... : ... .. . ... : ... .. . ... ...
ROW 71 : ... .. . ... ... ... : ... .. . ... ... ... : ... .. . ... : ... .. . ... : ... .. . ... ...
ROW 72 : ... .. . ... ... ... : ... .. . ... ... ... : ... .. . ... : ... .. . ... : ... .. . ... ...
ROW 73 : ... .. . ... ... ... : ... .. . ... ... ... : ... .. . ... : ... .. . ... : ... .. . ... ...
ROW 74 : ... .. . ... ... ... : ... .. . ... ... ... : ... .. . ... : ... .. . ... : ... .. . ... ...
ROW 75 : ... .. . ... ... ... : ... .. . ... ... ... : ... .. . ... : ... .. . ... : ... .. . ... ...
ROW 76 : ... .. . ... ... ... : ... .. . ... ... ... : ... .. . ... : ... .. . ... : ... .. . ... ...
ROW 77 : ... .. . ... ... ... : ... .. . ... ... ... : ... .. . ... : ... .. . ... : ... .. . ... ...
ROW 78 : ... .. . ... ... ... : ... .. . ... ... ... : ... .. . ... : ... .. . ... : ... .. . ... ...
ROW 79 : ... .. . ... ... ... : ... .. . ... ... ... : ... .. . ... : ... .. . ... : ... .. . ... ...
ROW 7A : ... .. . ... ... ... : A#1 00 D P80 ... ... : ... .. . ... : ... .. C ... : ... .. . ... ...
ROW 7B : ... .. . ... ... ... : ... .. 9 ... ... ... : ... .. . ... : ... .. 8 ... : ... .. . ... ...
ROW 7C : ... .. . ... ... ... : ... .. 7 ... ... ... : ... .. . ... : ... .. 4 ... : ... .. . ... ...
ROW 7D : ... .. . ... ... ... : ... .. 6 ... ... ... : ... .. . ... : ... .. 0 ... : ... .. . ... ...
ROW 7E : ... .. . ... ... ... : ... .. 5 ... ... ... : ... .. . ... : ... .. . ... : ... .. . ... ...
ROW 7F : ... .. . ... ... ... : ... .. . ... ... ... : ... .. . ... : ... .. . ... : ... .. . ... ...

PATTERN 2E
ROW 00 : ... .. . ... ... ... : ... .. . ... ... ... : ... .. . ... : ... .. . ... : ... .. . ... ...
ROW 01 : ... .. . ... ... ... : ... .. 4 ... ... ... : ... .. . ... : ... .. . ... : ... .. . ... ...
ROW 02 : ... .. . ... ... ... : F-1 00 D P7F ... ... : ... .. . ... : ... .. . ... : ... .. . ... ...
ROW 03 : ... .. . ... ... ... : ... .. 9 ... ... ... : ... .. . ... : ... .. . ... : ... .. . ... ...
ROW 04 : ... .. . ... ... ... : ... .. 7 ... ... ... : ... .. . ... : ... .. . ... : ... .. . ... ...
ROW 05 : ... .. . ... ... ... : ... .. 6 ... ... ... : ... .. . ... : ... .. . ... : ... .. . ... ...
ROW 06 : ... .. . ... ... ... : ... .. 5 ... ... ... : ... .. . ... : ... .. . ... : ... .. . ... ...
ROW 07 : ... .. . ... ... ... : ... .. . ... ... ... : ... .. . ... : ... .. . ... : ... .. . ... ...
ROW 08 : ... .. . ... ... ... : ... .. . ... ... ... : ... .. . ... : ... .. . ... : ... .. . ... ...
ROW 09 : ... .. . ... ... ... : ... .. 4 ... ... ... : ... .. . ... : ... .. . ... : ... .. . ... ...
ROW 0A : ... .. . ... ... ... : A#1 00 D P80 ... ... : ... .. . ... : ... .. . ... : ... .. . ... ...
ROW 0B : ... .. . ... ... ... : ... .. 9 ... ... ... : ... .. . ... : ... .. . ... : ... .. . ... ...
ROW 0C : ... .. . ... ... ... : ... .. 7 ... ... ... : ... .. . ... : ... .. . ... : ... .. . ... ...
ROW 0D : ... .. . ... ... ... : ... .. 6 ... ... ... : ... .. . ... : ... .. . ... : ... .. . ... ...
ROW 0E : ... .. . ... ... ... : ... .. 5 ... ... ... : ... .. . ... : ... .. . ... : ... .. . ... ...
ROW 0F : ... .. . ... ... ... : ... .. . ... ... ... : ... .. . ... : ... .. . ... : ... .. . ... ...
ROW 10 : ... .. . ... ... ... : ... .. . ... ... ... : ... .. . ... : ... .. . ... : ... .. . ... ...
ROW 11 : ... .. . ... ... ... : ... .. 4 ... ... ... : ... .. . ... : ... .. . ... : ... .. . ... ...
ROW 12 : ... .. . ... ... ... : A#1 00 D P80 ... ... : ... .. . ... : ... .. C ... : ... .. . ... ...
ROW 13 : ... .. . ... ... ... : ... .. 9 ... ... ... : ... .. . ... : ... .. 8 ... : ... .. . ... ...
ROW 14 : ... .. . ... ... ... : ... .. 7 ... ... ... : ... .. . ... : ... .. 4 ... : ... .. . ... ...
ROW 15 : ... .. . ... ... ... : ... .. 6 ... ... ... : ... .. . ... : ... .. 0 ... : ... .. . ... ...
ROW 16 : ... .. . ... ... ... : ... .. 5 ... ... ... : ... .. . ... : ... .. . ... : ... .. . ... ...
ROW 17 : ... .. . ... ... ... : ... .. . ... ... ... : ... .. . ... : ... .. . ... : ... .. . ... ...
ROW 18 : ... .. . ... ... ... : ... .. . ... ... ... : ... .. . ... : ... .. . ... : ... .. . ... ...
ROW 19 : ... .. . ... ... ... : ... .. 4 ... ... ... : ... .. . ... : ... .. . ... : ... .. . ... ...
ROW 1A : ... .. . ... ... ... : ... .. . ... ... ... : ... .. . ... : ... .. . ... : ... .. . ... ...
ROW 1B : ... .. . ... ... ... : ... .. . ... ... ... : ... .. . ... : ... .. . ... : ... .. . ... ...
ROW 1C : ... .. . ... ... ... : ... .. . ... ... ... : ... .. . ... : ... .. . ... : ... .. . ... ...
ROW 1D : ... .. . ... ... ... : ... .. . ... ... ... : ... .. . ... : ... .. . ... : ... .. . ... ...
ROW 1E : ... .. . ... ... ... : ... .. . ... ... ... : ... .. . ... : ... .. . ... : ... .. . ... ...
ROW 1F : ... .. . ... ... ... : ... .. . ... ... ... : ... .. . ... : ... .. . ... : ... .. . ... ...
ROW 20 : ... .. . ... ... ... : ... .. . ... ... ... : ... .. . ... : ... .. . ... : ... .. . ... ...
ROW 21 : ... .. . ... ... ... : ... .. . ... ... ... : ... .. . ... : ... .. . ... : ... .. . ... ...
ROW 22 : ... .. . ... ... ... : ... .. . ... ... ... : ... .. . ... : ... .. . ... : ... .. . ... ...
ROW 23 : ... .. . ... ... ... : ... .. . ... ... ... : ... .. . ... : ... .. . ... : ... .. . ... ...
ROW 24 : ... .. . ... ... ... : ... .. . ... ... ... : ... .. . ... : ... .. . ... : ... .. . ... ...
ROW 25 : ... .. . ... ... ... : ... .. . ... ... ... : ... .. . ... : ... .. . ... : ... .. . ... ...
ROW 26 : ... .. . ... ... ... : ... .. . ... ... ... : ... .. . ... : ... .. . ... : ... .. . ... ...
ROW 27 : ... .. . ... ... ... : ... .. . ... ... ... : ... .. . ... : ... .. . ... : ... .. . ... ...
ROW 28 : ... .. . ... ... ... : ... .. . ... ... ... : ... .. . ... : ... .. . ... : ... .. . ... ...
ROW 29 : ... .. . ... ... ... : ... .. . ... ... ... : ... .. . ... : ... .. . ... : ... .. . ... ...
ROW 2A : ... .. . ... ... ... : A#1 00 D P80 ... ... : ... .. . ... : ... .. C ... : ... .. . ... ...
ROW 2B : ... .. . ... ... ... : ... .. 9 ... ... ... : ... .. . ... : ... .. 8 ... : ... .. . ... ...
ROW 2C : ... .. . ... ... ... : ... .. 7 ... ... ... : ... .. . ... : ... .. 4 ... : ... .. . ... ...
ROW 2D : ... .. . ... ... ... : ... .. 6 ... ... ... : ... .. . ... : ... .. 0 ... : ... .. . ... ...
ROW 2E : ... .. . ... ... ... : ... .. 5 ... ... ... : ... .. . ... : ... .. . ... : ... .. . ... ...
ROW 2F : ... .. . ... ... ... : ... .. . ... ... ... : ... .. . ... : ... .. . ... : ... .. . ... ...
ROW 30 : ... .. . ... ... ... : ... .. . ... ... ... : ... .. . ... : ... .. . ... : ... .. . ... ...
ROW 31 : ... .. . ... ... ... : ... .. 4 ... ... ... : ... .. . ... : ... .. . ... : ... .. . ... ...
ROW 32 : ... .. . ... ... ... : F-1 00 D P7F ... ... : ... .. . ... : ... .. C ... : ... .. . ... ...
ROW 33 : ... .. . ... ... ... : ... .. 9 ... ... ... : ... .. . ... : ... .. 8 ... : ... .. . ... ...
ROW 34 : ... .. . ... ... ... : ... .. 7 ... ... ... : ... .. . ... : ... .. 4 ... : ... .. . ... ...
ROW 35 : ... .. . ... ... ... : ... .. 6 ... ... ... : ... .. . ... : ... .. 0 ... : ... .. . ... ...
ROW 36 : ... .. . ... ... ... : ... .. 5 ... ... ... : ... .. . ... : ... .. . ... : ... .. . ... ...
ROW 37 : ... .. . ... ... ... : ... .. . ... ... ... : ... .. . ... : ... .. . ... : ... .. . ... ...
ROW 38 : ... .. . ... ... ... : ... .. . ... ... ... : ... .. . ... : ... .. . ... : ... .. . ... ...
ROW 39 : ... .. . ... ... ... : ... .. 4 ... ... ... : ... .. . ... : ... .. . ... : ... .. . ... ...
ROW 3A : ... .. . ... ... ... : A#1 00 D P80 ... ... : ... .. . ... : ... .. C ... : ... .. . ... ...
ROW 3B : ... .. . ... ... ... : ... .. 9 ... ... ... : ... .. . ... : ... .. 8 ... : ... .. . ... ...
ROW 3C : ... .. . ... ... ... : ... .. 7 ... ... ... : ... .. . ... : ... .. 4 ... : ... .. . ... ...
ROW 3D : ... .. . ... ... ... : ... .. 6 ... ... ... : ... .. . ... : ... .. 0 ... : ... .. . ... ...
ROW 3E : ... .. . ... ... ... : ... .. 5 ... ... ... : ... .. . ... : ... .. . ... : ... .. . ... ...
ROW 3F : ... .. . ... ... ... : ... .. . ... ... ... : ... .. . ... : ... .. . ... : ... .. . ... ...
ROW 40 : ... .. . ... ... ... : ... .. . ... ... ... : ... .. . ... : ... .. . ... : ... .. . ... ...
ROW 41 : ... .. . ... ... ... : ... .. 4 ... ... ... : ... .. . ... : ... .. . ... : ... .. . ... ...
ROW 42 : B-2 00 4 P80 ... ... : G-1 00 D P7F ... ... : ... .. . ... : ... .. C ... : ... .. . ... ...
ROW 43 : ... .. 5 ... ... ... : ... .. 9 ... ... ... : ... .. . ... : ... .. 8 ... : ... .. . ... ...
ROW 44 : ... .. 6 ... ... ... : ... .. 7 ... ... ... : ... .. . ... : ... .. 4 ... : ... .. . ... ...
ROW 45 : ... .. 7 ... ... ... : ... .. 6 ... ... ... : ... .. . ... : ... .. 0 ... : ... .. . ... ...
ROW 46 : ... .. 8 ... ... ... : ... .. 5 ... ... ... : ... .. . ... : ... .. . ... : ... .. . ... ...
ROW 47 : ... .. 7 ... ... ... : ... .. . ... ... ... : ... .. . ... : ... .. . ... : ... .. . ... ...
ROW 48 : ... .. 6 ... ... ... : ... .. . ... ... ... : ... .. . ... : ... .. . ... : ... .. . ... ...
ROW 49 : ... .. 5 ... ... ... : ... .. 4 ... ... ... : ... .. . ... : ... .. . ... : ... .. . ... ...
ROW 4A : ... .. 4 ... ... ... : ... .. . ... ... ... : ... .. . ... : ... .. . ... : ... .. . ... ...
ROW 4B : ... .. . ... ... ... : ... .. . ... ... ... : ... .. . ... : ... .. . ... : ... .. . ... ...
ROW 4C : ... .. . ... ... ... : ... .. . ... ... ... : ... .. . ... : ... .. . ... : ... .. . ... ...
ROW 4D : ... .. . ... ... ... : ... .. . ... ... ... : ... .. . ... : ... .. . ... : ... .. . ... ...
ROW 4E : ... .. . ... ... ... : ... .. . ... ... ... : ... .. . ... : ... .. . ... : ... .. . ... ...
ROW 4F : ... .. . ... ... ... : ... .. . ... ... ... : ... .. . ... : ... .. . ... : ... .. . ... ...
ROW 50 : ... .. . ... ... ... : ... .. . ... ... ... : ... .. . ... : ... .. . ... : ... .. . ... ...
ROW 51 : ... .. . ... ... ... : ... .. . ... ... ... : ... .. . ... : ... .. . ... : ... .. . ... ...
ROW 52 : ... .. . ... ... ... : ... .. . ... ... ... : ... .. . ... : ... .. . ... : ... .. . ... ...
ROW 53 : ... .. . ... ... ... : ... .. . ... ... ... : ... .. . ... : ... .. . ... : ... .. . ... ...
ROW 54 : ... .. . ... ... ... : ... .. . ... ... ... : ... .. . ... : ... .. . ... : ... .. . ... ...
ROW 55 : ... .. . ... ... ... : ... .. . ... ... ... : ... .. . ... : ... .. . ... : ... .. . ... ...
ROW 56 : ... .. . ... ... ... : ... .. . ... ... ... : ... .. . ... : ... .. . ... : ... .. . ... ...
ROW 57 : ... .. . ... ... ... : ... .. . ... ... ... : ... .. . ... : ... .. . ... : ... .. . ... ...
ROW 58 : ... .. . ... ... ... : ... .. . ... ... ... : ... .. . ... : ... .. . ... : ... .. . ... ...
ROW 59 : ... .. . ... ... ... : ... .. . ... ... ... : ... .. . ... : ... .. . ... : ... .. . ... ...
ROW 5A : ... .. . ... ... ... : G-1 00 D P7F ... ... : ... .. . ... : ... .. C ... : ... .. . ... ...
ROW 5B : ... .. . ... ... ... : ... .. 9 ... ... ... : ... .. . ... : ... .. 8 ... : ... .. . ... ...
ROW 5C : ... .. . ... ... ... : ... .. 7 ... ... ... : ... .. . ... : ... .. 4 ... : ... .. . ... ...
ROW 5D : ... .. . ... ... ... : ... .. 6 ... ... ... : ... .. . ... : ... .. 0 ... : ... .. . ... ...
ROW 5E : ... .. . ... ... ... : ... .. 5 ... ... ... : ... .. . ... : ... .. . ... : ... .. . ... ...
ROW 5F : ... .. . ... ... ... : ... .. . ... ... ... : ... .. . ... : ... .. . ... : ... .. . ... ...
ROW 60 : ... .. . ... ... ... : ... .. . ... ... ... : ... .. . ... : ... .. . ... : ... .. . ... ...
ROW 61 : ... .. . ... ... ... : ... .. 4 ... ... ... : ... .. . ... : ... .. . ... : ... .. . ... ...
ROW 62 : ... .. . ... ... ... : D-1 00 D P80 ... ... : ... .. . ... : ... .. . ... : ... .. . ... ...
ROW 63 : ... .. . ... ... ... : ... .. 9 ... ... ... : ... .. . ... : ... .. . ... : ... .. . ... ...
ROW 64 : ... .. . ... ... ... : ... .. 7 ... ... ... : ... .. . ... : ... .. . ... : ... .. . ... ...
ROW 65 : ... .. . ... ... ... : ... .. 6 ... ... ... : ... .. . ... : ... .. . ... : ... .. . ... ...
ROW 66 : ... .. . ... ... ... : ... .. 5 ... ... ... : ... .. . ... : ... .. . ... : ... .. . ... ...
ROW 67 : ... .. . ... ... ... : ... .. . ... ... ... : ... .. . ... : ... .. . ... : ... .. . ... ...
ROW 68 : ... .. . ... ... ... : ... .. . ... ... ... : ... .. . ... : ... .. . ... : ... .. . ... ...
ROW 69 : ... .. . ... ... ... : ... .. 4 ... ... ... : ... .. . ... : ... .. . ... : ... .. . ... ...
ROW 6A : ... .. . ... ... ... : G-1 00 D P7F ... ... : ... .. . ... : ... .. . ... : ... .. . ... ...
ROW 6B : ... .. . ... ... ... : ... .. 9 ... ... ... : ... .. . ... : ... .. . ... : ... .. . ... ...
ROW 6C : ... .. . ... ... ... : ... .. 7 ... ... ... : ... .. . ... : ... .. . ... : ... .. . ... ...
ROW 6D : ... .. . ... ... ... : ... .. 6 ... ... ... : ... .. . ... : ... .. . ... : ... .. . ... ...
ROW 6E : ... .. . ... ... ... : ... .. 5 ... ... ... : ... .. . ... : ... .. . ... : ... .. . ... ...
ROW 6F : ... .. . ... ... ... : ... .. . ... ... ... : ... .. . ... : ... .. . ... : ... .. . ... ...
ROW 70 : ... .. . ... ... ... : ... .. . ... ... ... : ... .. . ... : ... .. . ... : ... .. . ... ...
ROW 71 : ... .. . ... ... ... : ... .. 4 ... ... ... : ... .. . ... : ... .. . ... : ... .. . ... ...
ROW 72 : ... .. . ... ... ... : G-1 00 D P7F ... ... : ... .. . ... : ... .. C ... : ... .. . ... ...
ROW 73 : ... .. . ... ... ... : ... .. 9 ... ... ... : ... .. . ... : ... .. 8 ... : ... .. . ... ...
ROW 74 : ... .. . ... ... ... : ... .. 7 ... ... ... : ... .. . ... : ... .. 4 ... : ... .. . ... ...
ROW 75 : ... .. . ... ... ... : ... .. 6 ... ... ... : ... .. . ... : ... .. 0 ... : ... .. . ... ...
ROW 76 : ... .. . ... ... ... : ... .. 5 ... ... ... : ... .. . ... : ... .. . ... : ... .. . ... ...
ROW 77 : ... .. . ... ... ... : ... .. . ... ... ... : ... .. . ... : ... .. . ... : ... .. . ... ...
ROW 78 : ... .. . ... ... ... : ... .. . ... ... ... : ... .. . ... : ... .. . ... : ... .. . ... ...
ROW 79 : ... .. . ... ... ... : ... .. 4 ... ... ... : ... .. . ... : ... .. . ... : ... .. . ... ...
ROW 7A : ... .. . ... ... ... : ... .. . ... ... ... : ... .. . ... : ... .. . ... : ... .. . ... ...
ROW 7B : ... .. . ... ... ... : ... .. . ... ... ... : ... .. . ... : ... .. . ... : ... .. . ... ...
ROW 7C : ... .. . ... ... ... : ... .. . ... ... ... : ... .. . ... : ... .. . ... : ... .. . ... ...
ROW 7D : ... .. . ... ... ... : ... .. . ... ... ... : ... .. . ... : ... .. . ... : ... .. . ... ...
ROW 7E : ... .. . ... ... ... : ... .. . ... ... ... : ... .. . ... : ... .. . ... : ... .. . ... ...
ROW 7F : ... .. . ... ... ... : ... .. . ... ... ... : ... .. . ... : ... .. . ... : ... .. . ... ...

PATTERN 2F
ROW 00 : ... .. . ... ... ... : ... .. . ... ... ... : ... .. . ... : ... .. . ... : ... .. . ... ...
ROW 01 : ... .. . ... ... ... : ... .. . ... ... ... : ... .. . ... : ... .. . ... : ... .. . ... ...
ROW 02 : ... .. . ... ... ... : ... .. . ... ... ... : ... .. . ... : ... .. . ... : ... .. . ... ...
ROW 03 : ... .. . ... ... ... : ... .. . ... ... ... : ... .. . ... : ... .. . ... : ... .. . ... ...
ROW 04 : ... .. . ... ... ... : ... .. . ... ... ... : ... .. . ... : ... .. . ... : ... .. . ... ...
ROW 05 : ... .. . ... ... ... : ... .. . ... ... ... : ... .. . ... : ... .. . ... : ... .. . ... ...
ROW 06 : ... .. . ... ... ... : ... .. . ... ... ... : ... .. . ... : ... .. . ... : ... .. . ... ...
ROW 07 : ... .. . ... ... ... : ... .. . ... ... ... : ... .. . ... : ... .. . ... : ... .. . ... ...
ROW 08 : ... .. . ... ... ... : ... .. . ... ... ... : ... .. . ... : ... .. . ... : ... .. . ... ...
ROW 09 : ... .. . ... ... ... : ... .. . ... ... ... : ... .. . ... : ... .. . ... : ... .. . ... ...
ROW 0A : ... .. . ... ... ... : G-1 00 D P7F ... ... : ... .. . ... : ... .. C ... : ... .. . ... ...
ROW 0B : ... .. . ... ... ... : ... .. 9 ... ... ... : ... .. . ... : ... .. 8 ... : ... .. . ... ...
ROW 0C : ... .. . ... ... ... : ... .. 7 ... ... ... : ... .. . ... : ... .. 4 ... : ... .. . ... ...
ROW 0D : ... .. . ... ... ... : ... .. 6 ... ... ... : ... .. . ... : ... .. 0 ... : ... .. . ... ...
ROW 0E : ... .. . ... ... ... : ... .. 5 ... ... ... : ... .. . ... : ... .. . ... : ... .. . ... ...
ROW 0F : ... .. . ... ... ... : ... .. . ... ... ... : ... .. . ... : ... .. . ... : ... .. . ... ...
ROW 10 : ... .. . ... ... ... : ... .. . ... ... ... : ... .. . ... : ... .. . ... : ... .. . ... ...
ROW 11 : ... .. . ... ... ... : ... .. 4 ... ... ... : ... .. . ... : ... .. . ... : ... .. . ... ...
ROW 12 : ... .. . ... ... ... : D-1 00 D P80 ... ... : ... .. . ... : ... .. C ... : ... .. . ... ...
ROW 13 : ... .. . ... ... ... : ... .. 9 ... ... ... : ... .. . ... : ... .. 8 ... : ... .. . ... ...
ROW 14 : ... .. . ... ... ... : ... .. 7 ... ... ... : ... .. . ... : ... .. 4 ... : ... .. . ... ...
ROW 15 : ... .. . ... ... ... : ... .. 6 ... ... ... : ... .. . ... : ... .. 0 ... : ... .. . ... ...
ROW 16 : ... .. . ... ... ... : ... .. 5 ... ... ... : ... .. . ... : ... .. . ... : ... .. . ... ...
ROW 17 : ... .. . ... ... ... : ... .. . ... ... ... : ... .. . ... : ... .. . ... : ... .. . ... ...
ROW 18 : ... .. . ... ... ... : ... .. . ... ... ... : ... .. . ... : ... .. . ... : ... .. . ... ...
ROW 19 : ... .. . ... ... ... : ... .. 4 ... ... ... : ... .. . ... : ... .. . ... : ... .. . ... ...
ROW 1A : ... .. . ... ... ... : G-1 00 D P7F ... ... : ... .. . ... : ... .. C ... : ... .. . ... ...
ROW 1B : ... .. . ... ... ... : ... .. 9 ... ... ... : ... .. . ... : ... .. 8 ... : ... .. . ... ...
ROW 1C : ... .. . ... ... ... : ... .. 7 ... ... ... : ... .. . ... : ... .. 4 ... : ... .. . ... ...
ROW 1D : ... .. . ... ... ... : ... .. 6 ... ... ... : ... .. . ... : ... .. 0 ... : ... .. . ... ...
ROW 1E : ... .. . ... ... ... : ... .. 5 ... ... ... : ... .. . ... : ... .. . ... : ... .. . ... ...
ROW 1F : ... .. . ... ... ... : ... .. . ... ... ... : ... .. . ... : ... .. . ... : ... .. . ... ...
ROW 20 : ... .. . ... ... ... : ... .. . ... ... ... : ... .. . ... : ... .. . ... : ... .. . ... ...
ROW 21 : ... .. . ... ... ... : ... .. 4 ... ... ... : ... .. . ... : ... .. . ... : ... .. . ... ...
ROW 22 : C-3 00 4 P80 ... ... : A#1 00 D P80 ... ... : ... .. . ... : ... .. C ... : ... .. . ... ...
ROW 23 : ... .. 5 ... ... ... : ... .. 9 ... ... ... : ... .. . ... : ... .. 8 ... : ... .. . ... ...
ROW 24 : ... .. 6 ... ... ... : ... .. 7 ... ... ... : ... .. . ... : ... .. 4 ... : ... .. . ... ...
ROW 25 : ... .. 7 ... ... ... : ... .. 6 ... ... ... : ... .. . ... : ... .. 0 ... : ... .. . ... ...
ROW 26 : ... .. 8 ... ... ... : ... .. 5 ... ... ... : ... .. . ... : ... .. . ... : ... .. . ... ...
ROW 27 : ... .. 7 ... ... ... : ... .. . ... ... ... : ... .. . ... : ... .. . ... : ... .. . ... ...
ROW 28 : ... .. 6 ... ... ... : ... .. . ... ... ... : ... .. . ... : ... .. . ... : ... .. . ... ...
ROW 29 : ... .. 5 ... ... ... : ... .. 4 ... ... ... : ... .. . ... : ... .. . ... : ... .. . ... ...
ROW 2A : ... .. 4 ... ... ... : ... .. . ... ... ... : ... .. . ... : ... .. . ... : ... .. . ... ...
ROW 2B : ... .. . ... ... ... : ... .. . ... ... ... : ... .. . ... : ... .. . ... : ... .. . ... ...
ROW 2C : ... .. . ... ... ... : ... .. . ... ... ... : ... .. . ... : ... .. . ... : ... .. . ... ...
ROW 2D : ... .. . ... ... ... : ... .. . ... ... ... : ... .. . ... : ... .. . ... : ... .. . ... ...
ROW 2E : ... .. . ... ... ... : ... .. . ... ... ... : ... .. . ... : ... .. . ... : ... .. . ... ...
ROW 2F : ... .. . ... ... ... : ... .. . ... ... ... : ... .. . ... : ... .. . ... : ... .. . ... ...
ROW 30 : ... .. . ... ... ... : ... .. . ... ... ... : ... .. . ... : ... .. . ... : ... .. . ... ...
ROW 31 : ... .. . ... ... ... : ... .. . ... ... ... : ... .. . ... : ... .. . ... : ... .. . ... ...
ROW 32 : ... .. . ... ... ... : ... .. . ... ... ... : ... .. . ... : ... .. . ... : ... .. . ... ...
ROW 33 : ... .. . ... ... ... : ... .. . ... ... ... : ... .. . ... : ... .. . ... : ... .. . ... ...
ROW 34 : ... .. . ... ... ... : ... .. . ... ... ... : ... .. . ... : ... .. . ... : ... .. . ... ...
ROW 35 : ... .. . ... ... ... : ... .. . ... ... ... : ... .. . ... : ... .. . ... : ... .. . ... ...
ROW 36 : ... .. . ... ... ... : ... .. . ... ... ... : ... .. . ... : ... .. . ... : ... .. . ... ...
ROW 37 : ... .. . ... ... ... : ... .. . ... ... ... : ... .. . ... : ... .. . ... : ... .. . ... ...
ROW 38 : ... .. . ... ... ... : ... .. . ... ... ... : ... .. . ... : ... .. . ... : ... .. . ... ...
ROW 39 : ... .. . ... ... ... : ... .. . ... ... ... : ... .. . ... : ... .. . ... : ... .. . ... ...
ROW 3A : ... .. . ... ... ... : A#1 00 D P80 ... ... : ... .. . ... : ... .. C ... : ... .. . ... ...
ROW 3B : ... .. . ... ... ... : ... .. 9 ... ... ... : ... .. . ... : ... .. 8 ... : ... .. . ... ...
ROW 3C : ... .. . ... ... ... : ... .. 7 ... ... ... : ... .. . ... : ... .. 4 ... : ... .. . ... ...
ROW 3D : ... .. . ... ... ... : ... .. 6 ... ... ... : ... .. . ... : ... .. 0 ... : ... .. . ... ...
ROW 3E : ... .. . ... ... ... : ... .. 5 ... ... ... : ... .. . ... : ... .. . ... : ... .. . ... ...
ROW 3F : ... .. . ... ... ... : ... .. . ... ... ... : ... .. . ... : ... .. . ... : ... .. . ... ...
ROW 40 : ... .. . ... ... ... : ... .. . ... ... ... : ... .. . ... : ... .. . ... : ... .. . ... ...
ROW 41 : ... .. . ... ... ... : ... .. 4 ... ... ... : ... .. . ... : ... .. . ... : ... .. . ... ...
ROW 42 : ... .. . ... ... ... : F-1 00 D P7F ... ... : ... .. . ... : ... .. . ... : ... .. . ... ...
ROW 43 : ... .. . ... ... ... : ... .. 9 ... ... ... : ... .. . ... : ... .. . ... : ... .. . ... ...
ROW 44 : ... .. . ... ... ... : ... .. 7 ... ... ... : ... .. . ... : ... .. . ... : ... .. . ... ...
ROW 45 : ... .. . ... ... ... : ... .. 6 ... ... ... : ... .. . ... : ... .. . ... : ... .. . ... ...
ROW 46 : ... .. . ... ... ... : ... .. 5 ... ... ... : ... .. . ... : ... .. . ... : ... .. . ... ...
ROW 47 : ... .. . ... ... ... : ... .. . ... ... ... : ... .. . ... : ... .. . ... : ... .. . ... ...
ROW 48 : ... .. . ... ... ... : ... .. . ... ... ... : ... .. . ... : ... .. . ... : ... .. . ... ...
ROW 49 : ... .. . ... ... ... : ... .. 4 ... ... ... : ... .. . ... : ... .. . ... : ... .. . ... ...
ROW 4A : ... .. . ... ... ... : A#1 00 D P80 ... ... : ... .. . ... : ... .. . ... : ... .. . ... ...
ROW 4B : ... .. . ... ... ... : ... .. 9 ... ... ... : ... .. . ... : ... .. . ... : ... .. . ... ...
ROW 4C : ... .. . ... ... ... : ... .. 7 ... ... ... : ... .. . ... : ... .. . ... : ... .. . ... ...
ROW 4D : ... .. . ... ... ... : ... .. 6 ... ... ... : ... .. . ... : ... .. . ... : ... .. . ... ...
ROW 4E : ... .. . ... ... ... : ... .. 5 ... ... ... : ... .. . ... : ... .. . ... : ... .. . ... ...
ROW 4F : ... .. . ... ... ... : ... .. . ... ... ... : ... .. . ... : ... .. . ... : ... .. . ... ...
ROW 50 : ... .. . ... ... ... : ... .. . ... ... ... : ... .. . ... : ... .. . ... : ... .. . ... ...
ROW 51 : ... .. . ... ... ... : ... .. 4 ... ... ... : ... .. . ... : ... .. . ... : ... .. . ... ...
ROW 52 : ... .. . ... ... ... : A#1 00 D P80 ... ... : ... .. . ... : ... .. C ... : ... .. . ... ...
ROW 53 : ... .. . ... ... ... : ... .. 9 ... ... ... : ... .. . ... : ... .. 8 ... : ... .. . ... ...
ROW 54 : ... .. . ... ... ... : ... .. 7 ... ... ... : ... .. . ... : ... .. 4 ... : ... .. . ... ...
ROW 55 : ... .. . ... ... ... : ... .. 6 ... ... ... : ... .. . ... : ... .. 0 ... : ... .. . ... ...
ROW 56 : ... .. . ... ... ... : ... .. 5 ... ... ... : ... .. . ... : ... .. . ... : ... .. . ... ...
ROW 57 : ... .. . ... ... ... : ... .. . ... ... ... : ... .. . ... : ... .. . ... : ... .. . ... ...
ROW 58 : ... .. . ... ... ... : ... .. . ... ... ... : ... .. . ... : ... .. . ... : ... .. . ... ...
ROW 59 : ... .. . ... ... ... : ... .. 4 ... ... ... : ... .. . ... : ... .. . ... : ... .. . ... ...
ROW 5A : ... .. . ... ... ... : ... .. . ... ... ... : ... .. . ... : ... .. . ... : ... .. . ... ...
ROW 5B : ... .. . ... ... ... : ... .. . ... ... ... : ... .. . ... : ... .. . ... : ... .. . ... ...
ROW 5C : ... .. . ... ... ... : ... .. . ... ... ... : ... .. . ... : ... .. . ... : ... .. . ... ...
ROW 5D : ... .. . ... ... ... : ... .. . ... ... ... : ... .. . ... : ... .. . ... : ... .. . ... ...
ROW 5E : ... .. . ... ... ... : ... .. . ... ... ... : ... .. . ... : ... .. . ... : ... .. . ... ...
ROW 5F : ... .. . ... ... ... : ... .. . ... ... ... : ... .. . ... : ... .. . ... : ... .. . ... ...
ROW 60 : ... .. . ... ... ... : ... .. . ... ... ... : ... .. . ... : ... .. . ... : ... .. . ... ...
ROW 61 : ... .. . ... ... ... : ... .. . ... ... ... : ... .. . ... : ... .. . ... : ... .. . ... ...
ROW 62 : ... .. . ... ... ... : ... .. . ... ... ... : ... .. . ... : ... .. . ... : ... .. . ... ...
ROW 63 : ... .. . ... ... ... : ... .. . ... ... ... : ... .. . ... : ... .. . ... : ... .. . ... ...
ROW 64 : ... .. . ... ... ... : ... .. . ... ... ... : ... .. . ... : ... .. . ... : ... .. . ... ...
ROW 65 : ... .. . ... ... ... : ... .. . ... ... ... : ... .. . ... : ... .. . ... : ... .. . ... ...
ROW 66 : ... .. . ... ... ... : ... .. . ... ... ... : ... .. . ... : ... .. . ... : ... .. . ... ...
ROW 67 : ... .. . ... ... ... : ... .. . ... ... ... : ... .. . ... : ... .. . ... : ... .. . ... ...
ROW 68 : ... .. . ... ... ... : ... .. . ... ... ... : ... .. . ... : ... .. . ... : ... .. . ... ...
ROW 69 : ... .. . ... ... ... : ... .. . ... ... ... : ... .. . ... : ... .. . ... : ... .. . ... ...
ROW 6A : ... .. . ... ... ... : A#1 00 D P80 ... ... : ... .. . ... : ... .. C ... : ... .. . ... ...
ROW 6B : ... .. . ... ... ... : ... .. 9 ... ... ... : ... .. . ... : ... .. 8 ... : ... .. . ... ...
ROW 6C : ... .. . ... ... ... : ... .. 7 ... ... ... : ... .. . ... : ... .. 4 ... : ... .. . ... ...
ROW 6D : ... .. . ... ... ... : ... .. 6 ... ... ... : ... .. . ... : ... .. 0 ... : ... .. . ... ...
ROW 6E : ... .. . ... ... ... : ... .. 5 ... ... ... : ... .. . ... : ... .. . ... : ... .. . ... ...
ROW 6F : ... .. . ... ... ... : ... .. . ... ... ... : ... .. . ... : ... .. . ... : ... .. . ... ...
ROW 70 : ... .. . ... ... ... : ... .. . ... ... ... : ... .. . ... : ... .. . ... : ... .. . ... ...
ROW 71 : ... .. . ... ... ... : ... .. 4 ... ... ... : ... .. . ... : ... .. . ... : ... .. . ... ...
ROW 72 : ... .. . ... ... ... : F-1 00 D P7F ... ... : ... .. . ... : ... .. C ... : ... .. . ... ...
ROW 73 : ... .. . ... ... ... : ... .. 9 ... ... ... : ... .. . ... : ... .. 8 ... : ... .. . ... ...
ROW 74 : ... .. . ... ... ... : ... .. 7 ... ... ... : ... .. . ... : ... .. 4 ... : ... .. . ... ...
ROW 75 : ... .. . ... ... ... : ... .. 6 ... ... ... : ... .. . ... : ... .. 0 ... : ... .. . ... ...
ROW 76 : ... .. . ... ... ... : ... .. 5 ... ... ... : ... .. . ... : ... .. . ... : ... .. . ... ...
ROW 77 : ... .. . ... ... ... : ... .. . ... ... ... : ... .. . ... : ... .. . ... : ... .. . ... ...
ROW 78 : ... .. . ... ... ... : ... .. . ... ... ... : ... .. . ... : ... .. . ... : ... .. . ... ...
ROW 79 : ... .. . ... ... ... : ... .. 4 ... ... ... : ... .. . ... : ... .. . ... : ... .. . ... ...
ROW 7A : ... .. . ... ... ... : A#1 00 D P80 ... ... : ... .. . ... : ... .. C ... : ... .. . ... ...
ROW 7B : ... .. . ... ... ... : ... .. 9 ... ... ... : ... .. . ... : ... .. 8 ... : ... .. . ... ...
ROW 7C : ... .. . ... ... ... : ... .. 7 ... ... ... : ... .. . ... : ... .. 4 ... : ... .. . ... ...
ROW 7D : ... .. . ... ... ... : ... .. 6 ... ... ... : ... .. . ... : ... .. 0 ... : ... .. . ... ...
ROW 7E : ... .. . ... ... ... : ... .. 5 ... ... ... : ... .. . ... : ... .. . ... : ... .. . ... ...
ROW 7F : ... .. . ... ... ... : ... .. . ... ... ... : ... .. . ... : ... .. . ... : ... .. . ... ...

PATTERN 30
ROW 00 : ... .. . ... ... ... : ... .. . ... ... ... : ... .. . ... : ... .. . ... : ... .. . ... ...
ROW 01 : ... .. . ... ... ... : ... .. 4 ... ... ... : ... .. . ... : ... .. . ... : ... .. . ... ...
ROW 02 : B-2 00 4 P80 ... ... : G-3 00 D P80 ... ... : G-2 00 . P80 : ... .. C ... : ... .. . ... ...
ROW 03 : ... .. 5 ... ... ... : ... .. 9 ... ... ... : ... .. . ... : ... .. 8 ... : ... .. . ... ...
ROW 04 : ... .. 6 ... ... ... : ... .. 7 ... ... ... : ... .. . ... : ... .. 4 ... : ... .. . ... ...
ROW 05 : ... .. 7 ... ... ... : ... .. 6 ... ... ... : ... .. . ... : ... .. 0 ... : ... .. . ... ...
ROW 06 : ... .. 8 ... ... ... : ... .. 5 ... ... ... : ... .. . ... : ... .. . ... : ... .. . ... ...
ROW 07 : ... .. 7 ... ... ... : ... .. . ... ... ... : ... .. . ... : ... .. . ... : ... .. . ... ...
ROW 08 : ... .. 6 ... ... ... : ... .. . ... ... ... : ... .. . ... : ... .. . ... : ... .. . ... ...
ROW 09 : ... .. 5 ... ... ... : ... .. 4 ... ... ... : ... .. . ... : ... .. . ... : ... .. . ... ...
ROW 0A : ... .. 4 ... ... ... : ... .. . ... ... ... : ... .. . ... : ... .. . ... : ... .. . ... ...
ROW 0B : ... .. . ... ... ... : ... .. . ... ... ... : ... .. . ... : ... .. . ... : ... .. . ... ...
ROW 0C : ... .. . ... ... ... : ... .. . ... ... ... : ... .. . ... : ... .. . ... : ... .. . ... ...
ROW 0D : ... .. . ... ... ... : ... .. . ... ... ... : ... .. . ... : ... .. . ... : ... .. . ... ...
ROW 0E : ... .. . ... ... ... : ... .. . ... ... ... : ... .. . ... : ... .. . ... : ... .. . ... ...
ROW 0F : ... .. . ... ... ... : ... .. . ... ... ... : ... .. . ... : ... .. . ... : ... .. . ... ...
ROW 10 : ... .. . ... ... ... : ... .. . ... ... ... : ... .. . ... : ... .. . ... : ... .. . ... ...
ROW 11 : ... .. . ... ... ... : ... .. . ... ... ... : --- .. . ... : ... .. . ... : ... .. . ... ...
ROW 12 : ... .. . ... ... ... : ... .. . ... ... ... : ... .. . ... : ... .. . ... : ... .. . ... ...
ROW 13 : ... .. . ... ... ... : ... .. . ... ... ... : ... .. . ... : ... .. . ... : ... .. . ... ...
ROW 14 : ... .. . ... ... ... : ... .. . ... ... ... : ... .. . ... : ... .. . ... : ... .. . ... ...
ROW 15 : ... .. . ... ... ... : ... .. . ... ... ... : ... .. . ... : ... .. . ... : ... .. . ... ...
ROW 16 : ... .. . ... ... ... : ... .. . ... ... ... : ... .. . ... : ... .. . ... : ... .. . ... ...
ROW 17 : ... .. . ... ... ... : ... .. . ... ... ... : ... .. . ... : ... .. . ... : ... .. . ... ...
ROW 18 : ... .. . ... ... ... : ... .. . ... ... ... : ... .. . ... : ... .. . ... : ... .. . ... ...
ROW 19 : ... .. . ... ... ... : ... .. . ... ... ... : ... .. . ... : ... .. . ... : ... .. . ... ...
ROW 1A : ... .. . ... ... ... : ... .. . ... ... ... : G-2 00 . ... : ... .. C ... : ... .. . ... ...
ROW 1B : ... .. . ... ... ... : ... .. . ... ... ... : ... .. . ... : ... .. 8 ... : ... .. . ... ...
ROW 1C : ... .. . ... ... ... : ... .. . ... ... ... : ... .. . ... : ... .. 4 ... : ... .. . ... ...
ROW 1D : ... .. . ... ... ... : ... .. . ... ... ... : ... .. . ... : ... .. 0 ... : ... .. . ... ...
ROW 1E : ... .. . ... ... ... : ... .. . ... ... ... : ... .. . ... : ... .. . ... : ... .. . ... ...
ROW 1F : ... .. . ... ... ... : ... .. . ... ... ... : ... .. . ... : ... .. . ... : ... .. . ... ...
ROW 20 : ... .. . ... ... ... : ... .. . ... ... ... : ... .. . ... : ... .. . ... : ... .. . ... ...
ROW 21 : ... .. . ... ... ... : ... .. . ... ... ... : --- .. . ... : ... .. . ... : ... .. . ... ...
ROW 22 : ... .. . ... ... ... : ... .. . ... ... ... : G-3 00 . ... : ... .. . ... : ... .. . ... ...
ROW 23 : ... .. . ... ... ... : ... .. . ... ... ... : ... .. . ... : ... .. . ... : ... .. . ... ...
ROW 24 : ... .. . ... ... ... : ... .. . ... ... ... : ... .. . ... : ... .. . ... : ... .. . ... ...
ROW 25 : ... .. . ... ... ... : ... .. . ... ... ... : ... .. . ... : ... .. . ... : ... .. . ... ...
ROW 26 : ... .. . ... ... ... : ... .. . ... ... ... : ... .. . ... : ... .. . ... : ... .. . ... ...
ROW 27 : ... .. . ... ... ... : ... .. . ... ... ... : ... .. . ... : ... .. . ... : ... .. . ... ...
ROW 28 : ... .. . ... ... ... : ... .. . ... ... ... : ... .. . ... : ... .. . ... : ... .. . ... ...
ROW 29 : ... .. . ... ... ... : ... .. . ... ... ... : --- .. . ... : ... .. . ... : ... .. . ... ...
ROW 2A : ... .. . ... ... ... : ... .. . ... ... ... : D-3 00 . ... : ... .. . ... : ... .. . ... ...
ROW 2B : ... .. . ... ... ... : ... .. . ... ... ... : ... .. . ... : ... .. . ... : ... .. . ... ...
ROW 2C : ... .. . ... ... ... : ... .. . ... ... ... : ... .. . ... : ... .. . ... : ... .. . ... ...
ROW 2D : ... .. . ... ... ... : ... .. . ... ... ... : ... .. . ... : ... .. . ... : ... .. . ... ...
ROW 2E : ... .. . ... ... ... : ... .. . ... ... ... : ... .. . ... : ... .. . ... : ... .. . ... ...
ROW 2F : ... .. . ... ... ... : ... .. . ... ... ... : ... .. . ... : ... .. . ... : ... .. . ... ...
ROW 30 : ... .. . ... ... ... : ... .. . ... ... ... : ... .. . ... : ... .. . ... : ... .. . ... ...
ROW 31 : ... .. . ... ... ... : ... .. . ... ... ... : --- .. . ... : ... .. . ... : ... .. . ... ...
ROW 32 : D-3 00 4 P80 ... ... : ... .. . ... ... ... : G-2 00 . ... : ... .. C ... : ... .. . ... ...
ROW 33 : ... .. 5 ... ... ... : ... .. . ... ... ... : ... .. . ... : ... .. 8 ... : ... .. . ... ...
ROW 34 : ... .. 6 ... ... ... : ... .. . ... ... ... : ... .. . ... : ... .. 4 ... : ... .. . ... ...
ROW 35 : ... .. 7 ... ... ... : ... .. . ... ... ... : ... .. . ... : ... .. 0 ... : ... .. . ... ...
ROW 36 : ... .. 8 ... ... ... : ... .. . ... ... ... : ... .. . ... : ... .. . ... : ... .. . ... ...
ROW 37 : ... .. 7 ... ... ... : ... .. . ... ... ... : ... .. . ... : ... .. . ... : ... .. . ... ...
ROW 38 : ... .. 6 ... ... ... : ... .. . ... ... ... : ... .. . ... : ... .. . ... : ... .. . ... ...
ROW 39 : ... .. 5 ... ... ... : ... .. . ... ... ... : ... .. . ... : ... .. . ... : ... .. . ... ...
ROW 3A : ... .. 4 ... ... ... : ... .. . ... ... ... : ... .. . ... : ... .. . ... : ... .. . ... ...
ROW 3B : ... .. . ... ... ... : ... .. . ... ... ... : ... .. . ... : ... .. . ... : ... .. . ... ...
ROW 3C : ... .. . ... ... ... : ... .. . ... ... ... : ... .. . ... : ... .. . ... : ... .. . ... ...
ROW 3D : ... .. . ... ... ... : ... .. . ... ... ... : ... .. . ... : ... .. . ... : ... .. . ... ...
ROW 3E : ... .. . ... ... ... : ... .. . ... ... ... : ... .. . ... : ... .. . ... : ... .. . ... ...
ROW 3F : ... .. . ... ... ... : ... .. . ... ... ... : ... .. . ... : ... .. . ... : ... .. . ... ...
ROW 40 : ... .. . ... ... ... : ... .. . ... ... ... : ... .. . ... : ... .. . ... : ... .. . ... ...
ROW 41 : ... .. . ... ... ... : ... .. . ... ... ... : --- .. . ... : ... .. . ... : ... .. . ... ...
ROW 42 : ... .. . ... ... ... : ... .. . ... ... ... : ... .. . ... : ... .. . ... : ... .. . ... ...
ROW 43 : ... .. . ... ... ... : ... .. . ... ... ... : ... .. . ... : ... .. . ... : ... .. . ... ...
ROW 44 : ... .. . ... ... ... : ... .. . ... ... ... : ... .. . ... : ... .. . ... : ... .. . ... ...
ROW 45 : ... .. . ... ... ... : ... .. . ... ... ... : ... .. . ... : ... .. . ... : ... .. . ... ...
ROW 46 : ... .. . ... ... ... : ... .. . ... ... ... : ... .. . ... : ... .. . ... : ... .. . ... ...
ROW 47 : ... .. . ... ... ... : ... .. . ... ... ... : ... .. . ... : ... .. . ... : ... .. . ... ...
ROW 48 : ... .. . ... ... ... : ... .. . ... ... ... : ... .. . ... : ... .. . ... : ... .. . ... ...
ROW 49 : ... .. . ... ... ... : ... .. . ... ... ... : ... .. . ... : ... .. . ... : ... .. . ... ...
ROW 4A : ... .. . ... ... ... : ... .. . ... ... ... : G-2 00 . ... : ... .. C ... : ... .. . ... ...
ROW 4B : ... .. . ... ... ... : ... .. . ... ... ... : ... .. . ... : ... .. 8 ... : ... .. . ... ...
ROW 4C : ... .. . ... ... ... : ... .. . ... ... ... : ... .. . ... : ... .. 4 ... : ... .. . ... ...
ROW 4D : ... .. . ... ... ... : ... .. . ... ... ... : ... .. . ... : ... .. 0 ... : ... .. . ... ...
ROW 4E : ... .. . ... ... ... : ... .. . ... ... ... : ... .. . ... : ... .. . ... : ... .. . ... ...
ROW 4F : ... .. . ... ... ... : ... .. . ... ... ... : ... .. . ... : ... .. . ... : ... .. . ... ...
ROW 50 : ... .. . ... ... ... : ... .. . ... ... ... : ... .. . ... : ... .. . ... : ... .. . ... ...
ROW 51 : ... .. . ... ... ... : ... .. . ... ... ... : --- .. . ... : ... .. . ... : ... .. . ... ...
ROW 52 : ... .. . ... ... ... : ... .. . ... ... ... : D-3 00 . ... : ... .. C ... : ... .. . ... ...
ROW 53 : ... .. . ... ... ... : ... .. . ... ... ... : ... .. . ... : ... .. 8 ... : ... .. . ... ...
ROW 54 : ... .. . ... ... ... : ... .. . ... ... ... : ... .. . ... : ... .. 4 ... : ... .. . ... ...
ROW 55 : ... .. . ... ... ... : ... .. . ... ... ... : ... .. . ... : ... .. 0 ... : ... .. . ... ...
ROW 56 : ... .. . ... ... ... : ... .. . ... ... ... : ... .. . ... : ... .. . ... : ... .. . ... ...
ROW 57 : ... .. . ... ... ... : ... .. . ... ... ... : ... .. . ... : ... .. . ... : ... .. . ... ...
ROW 58 : ... .. . ... ... ... : ... .. . ... ... ... : ... .. . ... : ... .. . ... : ... .. . ... ...
ROW 59 : ... .. . ... ... ... : ... .. . ... ... ... : --- .. . ... : ... .. . ... : ... .. . ... ...
ROW 5A : ... .. . ... ... ... : ... .. . ... ... ... : G-2 00 . ... : ... .. C ... : ... .. . ... ...
ROW 5B : ... .. . ... ... ... : ... .. . ... ... ... : ... .. . ... : ... .. 8 ... : ... .. . ... ...
ROW 5C : ... .. . ... ... ... : ... .. . ... ... ... : ... .. . ... : ... .. 4 ... : ... .. . ... ...
ROW 5D : ... .. . ... ... ... : ... .. . ... ... ... : ... .. . ... : ... .. 0 ... : ... .. . ... ...
ROW 5E : ... .. . ... ... ... : ... .. . ... ... ... : ... .. . ... : ... .. . ... : ... .. . ... ...
ROW 5F : ... .. . ... ... ... : ... .. . ... ... ... : ... .. . ... : ... .. . ... : ... .. . ... ...
ROW 60 : ... .. . ... ... ... : ... .. . ... ... ... : ... .. . ... : ... .. . ... : ... .. . ... ...
ROW 61 : ... .. . ... ... ... : ... .. . ... ... ... : --- .. . ... : ... .. . ... : ... .. . ... ...
ROW 62 : C-3 00 4 P80 ... ... : A#3 00 D P81 ... ... : A#2 00 . ... : ... .. C ... : ... .. . ... ...
ROW 63 : ... .. 5 ... ... ... : ... .. 9 ... ... ... : ... .. . ... : ... .. 8 ... : ... .. . ... ...
ROW 64 : ... .. 6 ... ... ... : ... .. 7 ... ... ... : ... .. . ... : ... .. 4 ... : ... .. . ... ...
ROW 65 : ... .. 7 ... ... ... : ... .. 6 ... ... ... : ... .. . ... : ... .. 0 ... : ... .. . ... ...
ROW 66 : ... .. 8 ... ... ... : ... .. 5 ... ... ... : ... .. . ... : ... .. . ... : ... .. . ... ...
ROW 67 : ... .. 7 ... ... ... : ... .. . ... ... ... : ... .. . ... : ... .. . ... : ... .. . ... ...
ROW 68 : ... .. 6 ... ... ... : ... .. . ... ... ... : ... .. . ... : ... .. . ... : ... .. . ... ...
ROW 69 : ... .. 5 ... ... ... : ... .. 4 ... ... ... : ... .. . ... : ... .. . ... : ... .. . ... ...
ROW 6A : ... .. 4 ... ... ... : ... .. . ... ... ... : ... .. . ... : ... .. . ... : ... .. . ... ...
ROW 6B : ... .. . ... ... ... : ... .. . ... ... ... : ... .. . ... : ... .. . ... : ... .. . ... ...
ROW 6C : ... .. . ... ... ... : ... .. . ... ... ... : ... .. . ... : ... .. . ... : ... .. . ... ...
ROW 6D : ... .. . ... ... ... : ... .. . ... ... ... : ... .. . ... : ... .. . ... : ... .. . ... ...
ROW 6E : ... .. . ... ... ... : ... .. . ... ... ... : ... .. . ... : ... .. . ... : ... .. . ... ...
ROW 6F : ... .. . ... ... ... : ... .. . ... ... ... : ... .. . ... : ... .. . ... : ... .. . ... ...
ROW 70 : ... .. . ... ... ... : ... .. . ... ... ... : ... .. . ... : ... .. . ... : ... .. . ... ...
ROW 71 : ... .. . ... ... ... : ... .. . ... ... ... : --- .. . ... : ... .. . ... : ... .. . ... ...
ROW 72 : ... .. . ... ... ... : ... .. . ... ... ... : ... .. . ... : ... .. . ... : ... .. . ... ...
ROW 73 : ... .. . ... ... ... : ... .. . ... ... ... : ... .. . ... : ... .. . ... : ... .. . ... ...
ROW 74 : ... .. . ... ... ... : ... .. . ... ... ... : ... .. . ... : ... .. . ... : ... .. . ... ...
ROW 75 : ... .. . ... ... ... : ... .. . ... ... ... : ... .. . ... : ... .. . ... : ... .. . ... ...
ROW 76 : ... .. . ... ... ... : ... .. . ... ... ... : ... .. . ... : ... .. . ... : ... .. . ... ...
ROW 77 : ... .. . ... ... ... : ... .. . ... ... ... : ... .. . ... : ... .. . ... : ... .. . ... ...
ROW 78 : ... .. . ... ... ... : ... .. . ... ... ... : ... .. . ... : ... .. . ... : ... .. . ... ...
ROW 79 : ... .. . ... ... ... : ... .. . ... ... ... : ... .. . ... : ... .. . ... : ... .. . ... ...
ROW 7A : ... .. . ... ... ... : ... .. . ... ... ... : A#2 00 . ... : ... .. C ... : ... .. . ... ...
ROW 7B : ... .. . ... ... ... : ... .. . ... ... ... : ... .. . ... : ... .. 8 ... : ... .. . ... ...
ROW 7C : ... .. . ... ... ... : ... .. . ... ... ... : ... .. . ... : ... .. 4 ... : ... .. . ... ...
ROW 7D : ... .. . ... ... ... : ... .. . ... ... ... : ... .. . ... : ... .. 0 ... : ... .. . ... ...
ROW 7E : ... .. . ... ... ... : ... .. . ... ... ... : ... .. . ... : ... .. . ... : ... .. . ... ...
ROW 7F : ... .. . ... ... ... : ... .. . ... ... ... : ... .. . ... : ... .. . ... : ... .. . ... ...

PATTERN 31
ROW 00 : ... .. . ... ... ... : ... .. . ... ... ... : ... .. . ... : ... .. . ... : ... .. . ... ...
ROW 01 : ... .. . ... ... ... : ... .. . ... ... ... : --- .. . ... : ... .. . ... : ... .. . ... ...
ROW 02 : ... .. . ... ... ... : ... .. . ... ... ... : F-3 00 . ... : ... .. . ... : ... .. . ... ...
ROW 03 : ... .. . ... ... ... : ... .. . ... ... ... : ... .. . ... : ... .. . ... : ... .. . ... ...
ROW 04 : ... .. . ... ... ... : ... .. . ... ... ... : ... .. . ... : ... .. . ... : ... .. . ... ...
ROW 05 : ... .. . ... ... ... : ... .. . ... ... ... : ... .. . ... : ... .. . ... : ... .. . ... ...
ROW 06 : ... .. . ... ... ... : ... .. . ... ... ... : ... .. . ... : ... .. . ... : ... .. . ... ...
ROW 07 : ... .. . ... ... ... : ... .. . ... ... ... : ... .. . ... : ... .. . ... : ... .. . ... ...
ROW 08 : ... .. . ... ... ... : ... .. . ... ... ... : ... .. . ... : ... .. . ... : ... .. . ... ...
ROW 09 : ... .. . ... ... ... : ... .. . ... ... ... : --- .. . ... : ... .. . ... : ... .. . ... ...
ROW 0A : ... .. . ... ... ... : ... .. . ... ... ... : A#2 00 . ... : ... .. . ... : ... .. . ... ...
ROW 0B : ... .. . ... ... ... : ... .. . ... ... ... : ... .. . ... : ... .. . ... : ... .. . ... ...
ROW 0C : ... .. . ... ... ... : ... .. . ... ... ... : ... .. . ... : ... .. . ... : ... .. . ... ...
ROW 0D : ... .. . ... ... ... : ... .. . ... ... ... : ... .. . ... : ... .. . ... : ... .. . ... ...
ROW 0E : ... .. . ... ... ... : ... .. . ... ... ... : ... .. . ... : ... .. . ... : ... .. . ... ...
ROW 0F : ... .. . ... ... ... : ... .. . ... ... ... : ... .. . ... : ... .. . ... : ... .. . ... ...
ROW 10 : ... .. . ... ... ... : ... .. . ... ... ... : ... .. . ... : ... .. . ... : ... .. . ... ...
ROW 11 : ... .. . ... ... ... : ... .. . ... ... ... : --- .. . ... : ... .. . ... : ... .. . ... ...
ROW 12 : F-3 00 4 P80 ... ... : ... .. . ... ... ... : A#2 00 . ... : ... .. C ... : ... .. . ... ...
ROW 13 : ... .. 5 ... ... ... : ... .. . ... ... ... : ... .. . ... : ... .. 8 ... : ... .. . ... ...
ROW 14 : ... .. 6 ... ... ... : ... .. . ... ... ... : ... .. . ... : ... .. 4 ... : ... .. . ... ...
ROW 15 : ... .. 7 ... ... ... : ... .. . ... ... ... : ... .. . ... : ... .. 0 ... : ... .. . ... ...
ROW 16 : ... .. 8 ... ... ... : ... .. . ... ... ... : ... .. . ... : ... .. . ... : ... .. . ... ...
ROW 17 : ... .. 7 ... ... ... : ... .. . ... ... ... : ... .. . ... : ... .. . ... : ... .. . ... ...
ROW 18 : ... .. 6 ... ... ... : ... .. . ... ... ... : ... .. . ... : ... .. . ... : ... .. . ... ...
ROW 19 : ... .. 5 ... ... ... : ... .. . ... ... ... : ... .. . ... : ... .. . ... : ... .. . ... ...
ROW 1A : ... .. 4 ... ... ... : ... .. . ... ... ... : ... .. . ... : ... .. . ... : ... .. . ... ...
ROW 1B : ... .. . ... ... ... : ... .. . ... ... ... : ... .. . ... : ... .. . ... : ... .. . ... ...
ROW 1C : ... .. . ... ... ... : ... .. . ... ... ... : ... .. . ... : ... .. . ... : ... .. . ... ...
ROW 1D : ... .. . ... ... ... : ... .. . ... ... ... : ... .. . ... : ... .. . ... : ... .. . ... ...
ROW 1E : ... .. . ... ... ... : ... .. . ... ... ... : ... .. . ... : ... .. . ... : ... .. . ... ...
ROW 1F : ... .. . ... ... ... : ... .. . ... ... ... : ... .. . ... : ... .. . ... : ... .. . ... ...
ROW 20 : ... .. . ... ... ... : ... .. . ... ... ... : ... .. . ... : ... .. . ... : ... .. . ... ...
ROW 21 : ... .. . ... ... ... : ... .. . ... ... ... : --- .. . ... : ... .. . ... : ... .. . ... ...
ROW 22 : ... .. . ... ... ... : ... .. . ... ... ... : ... .. . ... : ... .. . ... : ... .. . ... ...
ROW 23 : ... .. . ... ... ... : ... .. . ... ... ... : ... .. . ... : ... .. . ... : ... .. . ... ...
ROW 24 : ... .. . ... ... ... : ... .. . ... ... ... : ... .. . ... : ... .. . ... : ... .. . ... ...
ROW 25 : ... .. . ... ... ... : ... .. . ... ... ... : ... .. . ... : ... .. . ... : ... .. . ... ...
ROW 26 : ... .. . ... ... ... : ... .. . ... ... ... : ... .. . ... : ... .. . ... : ... .. . ... ...
ROW 27 : ... .. . ... ... ... : ... .. . ... ... ... : ... .. . ... : ... .. . ... : ... .. . ... ...
ROW 28 : ... .. . ... ... ... : ... .. . ... ... ... : ... .. . ... : ... .. . ... : ... .. . ... ...
ROW 29 : ... .. . ... ... ... : ... .. . ... ... ... : ... .. . ... : ... .. . ... : ... .. . ... ...
ROW 2A : ... .. . ... ... ... : A-3 00 D P80 ... ... : A#2 00 . ... : ... .. C ... : ... .. . ... ...
ROW 2B : ... .. . ... ... ... : ... .. 9 ... ... ... : ... .. . ... : ... .. 8 ... : ... .. . ... ...
ROW 2C : ... .. . ... ... ... : ... .. 7 ... ... ... : ... .. . ... : ... .. 4 ... : ... .. . ... ...
ROW 2D : ... .. . ... ... ... : ... .. 6 ... ... ... : ... .. . ... : ... .. 0 ... : ... .. . ... ...
ROW 2E : ... .. . ... ... ... : ... .. 5 ... ... ... : ... .. . ... : ... .. . ... : ... .. . ... ...
ROW 2F : ... .. . ... ... ... : ... .. . ... ... ... : ... .. . ... : ... .. . ... : ... .. . ... ...
ROW 30 : ... .. . ... ... ... : A#3 00 D P81 ... ... : ... .. . ... : ... .. . ... : ... .. . ... ...
ROW 31 : ... .. . ... ... ... : ... .. 9 ... ... ... : --- .. . ... : ... .. . ... : ... .. . ... ...
ROW 32 : ... .. . ... ... ... : ... .. 7 ... ... ... : F-3 00 . ... : ... .. C ... : ... .. . ... ...
ROW 33 : ... .. . ... ... ... : ... .. 6 ... ... ... : ... .. . ... : ... .. 8 ... : ... .. . ... ...
ROW 34 : ... .. . ... ... ... : ... .. 5 ... ... ... : ... .. . ... : ... .. 4 ... : ... .. . ... ...
ROW 35 : ... .. . ... ... ... : ... .. . ... ... ... : ... .. . ... : ... .. 0 ... : ... .. . ... ...
ROW 36 : ... .. . ... ... ... : A-3 00 D P80 ... ... : ... .. . ... : ... .. . ... : ... .. . ... ...
ROW 37 : ... .. . ... ... ... : ... .. 9 ... ... ... : ... .. . ... : ... .. . ... : ... .. . ... ...
ROW 38 : ... .. . ... ... ... : ... .. 7 ... ... ... : ... .. . ... : ... .. . ... : ... .. . ... ...
ROW 39 : ... .. . ... ... ... : ... .. 6 ... ... ... : --- .. . ... : ... .. . ... : ... .. . ... ...
ROW 3A : ... .. . ... ... ... : ... .. 5 ... ... ... : A#2 00 . ... : ... .. C ... : ... .. . ... ...
ROW 3B : ... .. . ... ... ... : ... .. . ... ... ... : ... .. . ... : ... .. 8 ... : ... .. . ... ...
ROW 3C : ... .. . ... ... ... : F-3 00 D P80 ... ... : ... .. . ... : ... .. 4 ... : ... .. . ... ...
ROW 3D : ... .. . ... ... ... : ... .. 9 ... ... ... : ... .. . ... : ... .. 0 ... : ... .. . ... ...
ROW 3E : ... .. . ... ... ... : ... .. 7 ... ... ... : ... .. . ... : ... .. . ... : ... .. . ... ...
ROW 3F : ... .. . ... ... ... : ... .. 6 ... ... ... : ... .. . ... : ... .. . ... : ... .. . ... ...
ROW 40 : ... .. . ... ... ... : ... .. 5 ... ... ... : ... .. . ... : ... .. . ... : ... .. . ... ...
ROW 41 : ... .. . ... ... ... : ... .. . ... ... ... : --- .. . ... : ... .. . ... : ... .. . ... ...
ROW 42 : B-2 00 4 P80 ... ... : G-3 00 D P80 ... ... : G-2 00 . ... : ... .. C ... : ... .. . ... ...
ROW 43 : ... .. 5 ... ... ... : ... .. 9 ... ... ... : ... .. . ... : ... .. 8 ... : ... .. . ... ...
ROW 44 : ... .. 6 ... ... ... : ... .. 7 ... ... ... : ... .. . ... : ... .. 4 ... : ... .. . ... ...
ROW 45 : ... .. 7 ... ... ... : ... .. 6 ... ... ... : ... .. . ... : ... .. 0 ... : ... .. . ... ...
ROW 46 : ... .. 8 ... ... ... : ... .. 5 ... ... ... : ... .. . ... : ... .. . ... : ... .. . ... ...
ROW 47 : ... .. 7 ... ... ... : ... .. . ... ... ... : ... .. . ... : ... .. . ... : ... .. . ... ...
ROW 48 : ... .. 6 ... ... ... : ... .. . ... ... ... : ... .. . ... : ... .. . ... : ... .. . ... ...
ROW 49 : ... .. 5 ... ... ... : ... .. 4 ... ... ... : ... .. . ... : ... .. . ... : ... .. . ... ...
ROW 4A : ... .. 4 ... ... ... : ... .. . ... ... ... : ... .. . ... : ... .. . ... : ... .. . ... ...
ROW 4B : ... .. . ... ... ... : ... .. . ... ... ... : ... .. . ... : ... .. . ... : ... .. . ... ...
ROW 4C : ... .. . ... ... ... : ... .. . ... ... ... : ... .. . ... : ... .. . ... : ... .. . ... ...
ROW 4D : ... .. . ... ... ... : ... .. . ... ... ... : ... .. . ... : ... .. . ... : ... .. . ... ...
ROW 4E : ... .. . ... ... ... : ... .. . ... ... ... : ... .. . ... : ... .. . ... : ... .. . ... ...
ROW 4F : ... .. . ... ... ... : ... .. . ... ... ... : ... .. . ... : ... .. . ... : ... .. . ... ...
ROW 50 : ... .. . ... ... ... : ... .. . ... ... ... : ... .. . ... : ... .. . ... : ... .. . ... ...
ROW 51 : ... .. . ... ... ... : ... .. . ... ... ... : --- .. . ... : ... .. . ... : ... .. . ... ...
ROW 52 : ... .. . ... ... ... : ... .. . ... ... ... : ... .. . ... : ... .. . ... : ... .. . ... ...
ROW 53 : ... .. . ... ... ... : ... .. . ... ... ... : ... .. . ... : ... .. . ... : ... .. . ... ...
ROW 54 : ... .. . ... ... ... : ... .. . ... ... ... : ... .. . ... : ... .. . ... : ... .. . ... ...
ROW 55 : ... .. . ... ... ... : ... .. . ... ... ... : ... .. . ... : ... .. . ... : ... .. . ... ...
ROW 56 : ... .. . ... ... ... : ... .. . ... ... ... : ... .. . ... : ... .. . ... : ... .. . ... ...
ROW 57 : ... .. . ... ... ... : ... .. . ... ... ... : ... .. . ... : ... .. . ... : ... .. . ... ...
ROW 58 : ... .. . ... ... ... : ... .. . ... ... ... : ... .. . ... : ... .. . ... : ... .. . ... ...
ROW 59 : ... .. . ... ... ... : ... .. . ... ... ... : ... .. . ... : ... .. . ... : ... .. . ... ...
ROW 5A : ... .. . ... ... ... : ... .. . ... ... ... : G-2 00 . ... : ... .. C ... : ... .. . ... ...
ROW 5B : ... .. . ... ... ... : ... .. . ... ... ... : ... .. . ... : ... .. 8 ... : ... .. . ... ...
ROW 5C : ... .. . ... ... ... : ... .. . ... ... ... : ... .. . ... : ... .. 4 ... : ... .. . ... ...
ROW 5D : ... .. . ... ... ... : ... .. . ... ... ... : ... .. . ... : ... .. 0 ... : ... .. . ... ...
ROW 5E : ... .. . ... ... ... : ... .. . ... ... ... : ... .. . ... : ... .. . ... : ... .. . ... ...
ROW 5F : ... .. . ... ... ... : ... .. . ... ... ... : ... .. . ... : ... .. . ... : ... .. . ... ...
ROW 60 : ... .. . ... ... ... : ... .. . ... ... ... : ... .. . ... : ... .. . ... : ... .. . ... ...
ROW 61 : ... .. . ... ... ... : ... .. . ... ... ... : --- .. . ... : ... .. . ... : ... .. . ... ...
ROW 62 : ... .. . ... ... ... : ... .. . ... ... ... : G-3 00 . ... : ... .. . ... : ... .. . ... ...
ROW 63 : ... .. . ... ... ... : ... .. . ... ... ... : ... .. . ... : ... .. . ... : ... .. . ... ...
ROW 64 : ... .. . ... ... ... : ... .. . ... ... ... : ... .. . ... : ... .. . ... : ... .. . ... ...
ROW 65 : ... .. . ... ... ... : ... .. . ... ... ... : ... .. . ... : ... .. . ... : ... .. . ... ...
ROW 66 : ... .. . ... ... ... : ... .. . ... ... ... : ... .. . ... : ... .. . ... : ... .. . ... ...
ROW 67 : ... .. . ... ... ... : ... .. . ... ... ... : ... .. . ... : ... .. . ... : ... .. . ... ...
ROW 68 : ... .. . ... ... ... : ... .. . ... ... ... : ... .. . ... : ... .. . ... : ... .. . ... ...
ROW 69 : ... .. . ... ... ... : ... .. . ... ... ... : --- .. . ... : ... .. . ... : ... .. . ... ...
ROW 6A : ... .. . ... ... ... : ... .. . ... ... ... : D-3 00 . ... : ... .. . ... : ... .. . ... ...
ROW 6B : ... .. . ... ... ... : ... .. . ... ... ... : ... .. . ... : ... .. . ... : ... .. . ... ...
ROW 6C : ... .. . ... ... ... : ... .. . ... ... ... : ... .. . ... : ... .. . ... : ... .. . ... ...
ROW 6D : ... .. . ... ... ... : ... .. . ... ... ... : ... .. . ... : ... .. . ... : ... .. . ... ...
ROW 6E : ... .. . ... ... ... : ... .. . ... ... ... : ... .. . ... : ... .. . ... : ... .. . ... ...
ROW 6F : ... .. . ... ... ... : ... .. . ... ... ... : ... .. . ... : ... .. . ... : ... .. . ... ...
ROW 70 : ... .. . ... ... ... : ... .. . ... ... ... : ... .. . ... : ... .. . ... : ... .. . ... ...
ROW 71 : ... .. . ... ... ... : ... .. . ... ... ... : --- .. . ... : ... .. . ... : ... .. . ... ...
ROW 72 : D-3 00 4 P80 ... ... : ... .. . ... ... ... : G-2 00 . ... : ... .. C ... : ... .. . ... ...
ROW 73 : ... .. 5 ... ... ... : ... .. . ... ... ... : ... .. . ... : ... .. 8 ... : ... .. . ... ...
ROW 74 : ... .. 6 ... ... ... : ... .. . ... ... ... : ... .. . ... : ... .. 4 ... : ... .. . ... ...
ROW 75 : ... .. 7 ... ... ... : ... .. . ... ... ... : ... .. . ... : ... .. 0 ... : ... .. . ... ...
ROW 76 : ... .. 8 ... ... ... : ... .. . ... ... ... : ... .. . ... : ... .. . ... : ... .. . ... ...
ROW 77 : ... .. 7 ... ... ... : ... .. . ... ... ... : ... .. . ... : ... .. . ... : ... .. . ... ...
ROW 78 : ... .. 6 ... ... ... : ... .. . ... ... ... : ... .. . ... : ... .. . ... : ... .. . ... ...
ROW 79 : ... .. 5 ... ... ... : ... .. . ... ... ... : ... .. . ... : ... .. . ... : ... .. . ... ...
ROW 7A : ... .. 4 ... ... ... : ... .. . ... ... ... : ... .. . ... : ... .. . ... : ... .. . ... ...
ROW 7B : ... .. . ... ... ... : ... .. . ... ... ... : ... .. . ... : ... .. . ... : ... .. . ... ...
ROW 7C : ... .. . ... ... ... : ... .. . ... ... ... : ... .. . ... : ... .. . ... : ... .. . ... ...
ROW 7D : ... .. . ... ... ... : ... .. . ... ... ... : ... .. . ... : ... .. . ... : ... .. . ... ...
ROW 7E : ... .. . ... ... ... : ... .. . ... ... ... : ... .. . ... : ... .. . ... : ... .. . ... ...
ROW 7F : ... .. . ... ... ... : ... .. . ... ... ... : ... .. . ... : ... .. . ... : ... .. . ... ...

PATTERN 32
ROW 00 : ... .. . ... ... ... : ... .. . ... ... ... : ... .. . ... : ... .. . ... : ... .. . ... ...
ROW 01 : ... .. . ... ... ... : ... .. . ... ... ... : --- .. . ... : ... .. . ... : ... .. . ... ...
ROW 02 : ... .. . ... ... ... : ... .. . ... ... ... : ... .. . ... : ... .. . ... : ... .. . ... ...
ROW 03 : ... .. . ... ... ... : ... .. . ... ... ... : ... .. . ... : ... .. . ... : ... .. . ... ...
ROW 04 : ... .. . ... ... ... : ... .. . ... ... ... : ... .. . ... : ... .. . ... : ... .. . ... ...
ROW 05 : ... .. . ... ... ... : ... .. . ... ... ... : ... .. . ... : ... .. . ... : ... .. . ... ...
ROW 06 : ... .. . ... ... ... : ... .. . ... ... ... : ... .. . ... : ... .. . ... : ... .. . ... ...
ROW 07 : ... .. . ... ... ... : ... .. . ... ... ... : ... .. . ... : ... .. . ... : ... .. . ... ...
ROW 08 : ... .. . ... ... ... : ... .. . ... ... ... : ... .. . ... : ... .. . ... : ... .. . ... ...
ROW 09 : ... .. . ... ... ... : ... .. . ... ... ... : ... .. . ... : ... .. . ... : ... .. . ... ...
ROW 0A : ... .. . ... ... ... : ... .. . ... ... ... : G-2 00 . ... : ... .. C ... : ... .. . ... ...
ROW 0B : ... .. . ... ... ... : ... .. . ... ... ... : ... .. . ... : ... .. 8 ... : ... .. . ... ...
ROW 0C : ... .. . ... ... ... : ... .. . ... ... ... : ... .. . ... : ... .. 4 ... : ... .. . ... ...
ROW 0D : ... .. . ... ... ... : ... .. . ... ... ... : ... .. . ... : ... .. 0 ... : ... .. . ... ...
ROW 0E : ... .. . ... ... ... : ... .. . ... ... ... : ... .. . ... : ... .. . ... : ... .. . ... ...
ROW 0F : ... .. . ... ... ... : ... .. . ... ... ... : ... .. . ... : ... .. . ... : ... .. . ... ...
ROW 10 : ... .. . ... ... ... : ... .. . ... ... ... : ... .. . ... : ... .. . ... : ... .. . ... ...
ROW 11 : ... .. . ... ... ... : ... .. . ... ... ... : --- .. . ... : ... .. . ... : ... .. . ... ...
ROW 12 : ... .. . ... ... ... : ... .. . ... ... ... : D-3 00 . ... : ... .. C ... : ... .. . ... ...
ROW 13 : ... .. . ... ... ... : ... .. . ... ... ... : ... .. . ... : ... .. 8 ... : ... .. . ... ...
ROW 14 : ... .. . ... ... ... : ... .. . ... ... ... : ... .. . ... : ... .. 4 ... : ... .. . ... ...
ROW 15 : ... .. . ... ... ... : ... .. . ... ... ... : ... .. . ... : ... .. 0 ... : ... .. . ... ...
ROW 16 : ... .. . ... ... ... : ... .. . ... ... ... : ... .. . ... : ... .. . ... : ... .. . ... ...
ROW 17 : ... .. . ... ... ... : ... .. . ... ... ... : ... .. . ... : ... .. . ... : ... .. . ... ...
ROW 18 : ... .. . ... ... ... : ... .. . ... ... ... : ... .. . ... : ... .. . ... : ... .. . ... ...
ROW 19 : ... .. . ... ... ... : ... .. . ... ... ... : --- .. . ... : ... .. . ... : ... .. . ... ...
ROW 1A : ... .. . ... ... ... : ... .. . ... ... ... : G-2 00 . ... : ... .. C ... : ... .. . ... ...
ROW 1B : ... .. . ... ... ... : ... .. . ... ... ... : ... .. . ... : ... .. 8 ... : ... .. . ... ...
ROW 1C : ... .. . ... ... ... : ... .. . ... ... ... : ... .. . ... : ... .. 4 ... : ... .. . ... ...
ROW 1D : ... .. . ... ... ... : ... .. . ... ... ... : ... .. . ... : ... .. 0 ... : ... .. . ... ...
ROW 1E : ... .. . ... ... ... : ... .. . ... ... ... : ... .. . ... : ... .. . ... : ... .. . ... ...
ROW 1F : ... .. . ... ... ... : ... .. . ... ... ... : ... .. . ... : ... .. . ... : ... .. . ... ...
ROW 20 : ... .. . ... ... ... : ... .. . ... ... ... : ... .. . ... : ... .. . ... : ... .. . ... ...
ROW 21 : ... .. . ... ... ... : ... .. . ... ... ... : --- .. . ... : ... .. . ... : ... .. . ... ...
ROW 22 : C-3 00 4 P80 ... ... : A#3 00 D P81 ... ... : A#2 00 . ... : ... .. C ... : ... .. . ... ...
ROW 23 : ... .. 5 ... ... ... : ... .. 9 ... ... ... : ... .. . ... : ... .. 8 ... : ... .. . ... ...
ROW 24 : ... .. 6 ... ... ... : ... .. 7 ... ... ... : ... .. . ... : ... .. 4 ... : ... .. . ... ...
ROW 25 : ... .. 7 ... ... ... : ... .. 6 ... ... ... : ... .. . ... : ... .. 0 ... : ... .. . ... ...
ROW 26 : ... .. 8 ... ... ... : ... .. 5 ... ... ... : ... .. . ... : ... .. . ... : ... .. . ... ...
ROW 27 : ... .. 7 ... ... ... : ... .. . ... ... ... : ... .. . ... : ... .. . ... : ... .. . ... ...
ROW 28 : ... .. 6 ... ... ... : ... .. . ... ... ... : ... .. . ... : ... .. . ... : ... .. . ... ...
ROW 29 : ... .. 5 ... ... ... : ... .. 4 ... ... ... : ... .. . ... : ... .. . ... : ... .. . ... ...
ROW 2A : ... .. 4 ... ... ... : ... .. . ... ... ... : ... .. . ... : ... .. . ... : ... .. . ... ...
ROW 2B : ... .. . ... ... ... : ... .. . ... ... ... : ... .. . ... : ... .. . ... : ... .. . ... ...
ROW 2C : ... .. . ... ... ... : ... .. . ... ... ... : ... .. . ... : ... .. . ... : ... .. . ... ...
ROW 2D : ... .. . ... ... ... : ... .. . ... ... ... : ... .. . ... : ... .. . ... : ... .. . ... ...
ROW 2E : ... .. . ... ... ... : ... .. . ... ... ... : ... .. . ... : ... .. . ... : ... .. . ... ...
ROW 2F : ... .. . ... ... ... : ... .. . ... ... ... : ... .. . ... : ... .. . ... : ... .. . ... ...
ROW 30 : ... .. . ... ... ... : ... .. . ... ... ... : ... .. . ... : ... .. . ... : ... .. . ... ...
ROW 31 : ... .. . ... ... ... : ... .. . ... ... ... : --- .. . ... : ... .. . ... : ... .. . ... ...
ROW 32 : ... .. . ... ... ... : ... .. . ... ... ... : ... .. . ... : ... .. . ... : ... .. . ... ...
ROW 33 : ... .. . ... ... ... : ... .. . ... ... ... : ... .. . ... : ... .. . ... : ... .. . ... ...
ROW 34 : ... .. . ... ... ... : ... .. . ... ... ... : ... .. . ... : ... .. . ... : ... .. . ... ...
ROW 35 : ... .. . ... ... ... : ... .. . ... ... ... : ... .. . ... : ... .. . ... : ... .. . ... ...
ROW 36 : ... .. . ... ... ... : ... .. . ... ... ... : ... .. . ... : ... .. . ... : ... .. . ... ...
ROW 37 : ... .. . ... ... ... : ... .. . ... ... ... : ... .. . ... : ... .. . ... : ... .. . ... ...
ROW 38 : ... .. . ... ... ... : ... .. . ... ... ... : ... .. . ... : ... .. . ... : ... .. . ... ...
ROW 39 : ... .. . ... ... ... : ... .. . ... ... ... : ... .. . ... : ... .. . ... : ... .. . ... ...
ROW 3A : ... .. . ... ... ... : ... .. . ... ... ... : A#2 00 . ... : ... .. C ... : ... .. . ... ...
ROW 3B : ... .. . ... ... ... : ... .. . ... ... ... : ... .. . ... : ... .. 8 ... : ... .. . ... ...
ROW 3C : ... .. . ... ... ... : ... .. . ... ... ... : ... .. . ... : ... .. 4 ... : ... .. . ... ...
ROW 3D : ... .. . ... ... ... : ... .. . ... ... ... : ... .. . ... : ... .. 0 ... : ... .. . ... ...
ROW 3E : ... .. . ... ... ... : ... .. . ... ... ... : ... .. . ... : ... .. . ... : ... .. . ... ...
ROW 3F : ... .. . ... ... ... : ... .. . ... ... ... : ... .. . ... : ... .. . ... : ... .. . ... ...
ROW 40 : ... .. . ... ... ... : ... .. . ... ... ... : ... .. . ... : ... .. . ... : ... .. . ... ...
ROW 41 : ... .. . ... ... ... : ... .. . ... ... ... : --- .. . ... : ... .. . ... : ... .. . ... ...
ROW 42 : ... .. . ... ... ... : ... .. . ... ... ... : F-3 00 . ... : ... .. . ... : ... .. . ... ...
ROW 43 : ... .. . ... ... ... : ... .. . ... ... ... : ... .. . ... : ... .. . ... : ... .. . ... ...
ROW 44 : ... .. . ... ... ... : ... .. . ... ... ... : ... .. . ... : ... .. . ... : ... .. . ... ...
ROW 45 : ... .. . ... ... ... : ... .. . ... ... ... : ... .. . ... : ... .. . ... : ... .. . ... ...
ROW 46 : ... .. . ... ... ... : ... .. . ... ... ... : ... .. . ... : ... .. . ... : ... .. . ... ...
ROW 47 : ... .. . ... ... ... : ... .. . ... ... ... : ... .. . ... : ... .. . ... : ... .. . ... ...
ROW 48 : ... .. . ... ... ... : ... .. . ... ... ... : ... .. . ... : ... .. . ... : ... .. . ... ...
ROW 49 : ... .. . ... ... ... : ... .. . ... ... ... : --- .. . ... : ... .. . ... : ... .. . ... ...
ROW 4A : ... .. . ... ... ... : ... .. . ... ... ... : A#2 00 . ... : ... .. . ... : ... .. . ... ...
ROW 4B : ... .. . ... ... ... : ... .. . ... ... ... : ... .. . ... : ... .. . ... : ... .. . ... ...
ROW 4C : ... .. . ... ... ... : ... .. . ... ... ... : ... .. . ... : ... .. . ... : ... .. . ... ...
ROW 4D : ... .. . ... ... ... : ... .. . ... ... ... : ... .. . ... : ... .. . ... : ... .. . ... ...
ROW 4E : ... .. . ... ... ... : ... .. . ... ... ... : ... .. . ... : ... .. . ... : ... .. . ... ...
ROW 4F : ... .. . ... ... ... : ... .. . ... ... ... : ... .. . ... : ... .. . ... : ... .. . ... ...
ROW 50 : ... .. . ... ... ... : ... .. . ... ... ... : ... .. . ... : ... .. . ... : ... .. . ... ...
ROW 51 : ... .. . ... ... ... : ... .. . ... ... ... : --- .. . ... : ... .. . ... : ... .. . ... ...
ROW 52 : F-3 00 4 P80 ... ... : ... .. . ... ... ... : A#2 00 . ... : ... .. C ... : ... .. . ... ...
ROW 53 : ... .. 5 ... ... ... : ... .. . ... ... ... : ... .. . ... : ... .. 8 ... : ... .. . ... ...
ROW 54 : ... .. 6 ... ... ... : ... .. . ... ... ... : ... .. . ... : ... .. 4 ... : ... .. . ... ...
ROW 55 : ... .. 7 ... ... ... : ... .. . ... ... ... : ... .. . ... : ... .. 0 ... : ... .. . ... ...
ROW 56 : ... .. 8 ... ... ... : ... .. . ... ... ... : ... .. . ... : ... .. . ... : ... .. . ... ...
ROW 57 : ... .. 7 ... ... ... : ... .. . ... ... ... : ... .. . ... : ... .. . ... : ... .. . ... ...
ROW 58 : ... .. 6 ... ... ... : ... .. . ... ... ... : ... .. . ... : ... .. . ... : ... .. . ... ...
ROW 59 : ... .. 5 ... ... ... : ... .. . ... ... ... : ... .. . ... : ... .. . ... : ... .. . ... ...
ROW 5A : ... .. 4 ... ... ... : ... .. . ... ... ... : ... .. . ... : ... .. . ... : ... .. . ... ...
ROW 5B : ... .. . ... ... ... : ... .. . ... ... ... : ... .. . ... : ... .. . ... : ... .. . ... ...
ROW 5C : ... .. . ... ... ... : ... .. . ... ... ... : ... .. . ... : ... .. . ... : ... .. . ... ...
ROW 5D : ... .. . ... ... ... : ... .. . ... ... ... : ... .. . ... : ... .. . ... : ... .. . ... ...
ROW 5E : ... .. . ... ... ... : ... .. . ... ... ... : ... .. . ... : ... .. . ... : ... .. . ... ...
ROW 5F : ... .. . ... ... ... : ... .. . ... ... ... : ... .. . ... : ... .. . ... : ... .. . ... ...
ROW 60 : ... .. . ... ... ... : ... .. . ... ... ... : ... .. . ... : ... .. . ... : ... .. . ... ...
ROW 61 : ... .. . ... ... ... : ... .. . ... ... ... : --- .. . ... : ... .. . ... : ... .. . ... ...
ROW 62 : ... .. . ... ... ... : ... .. . ... ... ... : ... .. . ... : ... .. . ... : ... .. . ... ...
ROW 63 : ... .. . ... ... ... : ... .. . ... ... ... : ... .. . ... : ... .. . ... : ... .. . ... ...
ROW 64 : ... .. . ... ... ... : ... .. . ... ... ... : ... .. . ... : ... .. . ... : ... .. . ... ...
ROW 65 : ... .. . ... ... ... : ... .. . ... ... ... : ... .. . ... : ... .. . ... : ... .. . ... ...
ROW 66 : ... .. . ... ... ... : ... .. . ... ... ... : ... .. . ... : ... .. . ... : ... .. . ... ...
ROW 67 : ... .. . ... ... ... : ... .. . ... ... ... : ... .. . ... : ... .. . ... : ... .. . ... ...
ROW 68 : ... .. . ... ... ... : ... .. . ... ... ... : ... .. . ... : ... .. . ... : ... .. . ... ...
ROW 69 : ... .. . ... ... ... : ... .. . ... ... ... : ... .. . ... : ... .. . ... : ... .. . ... ...
ROW 6A : ... .. . ... ... ... : A-3 00 D P80 ... ... : A#2 00 . ... : ... .. C ... : ... .. . ... ...
ROW 6B : ... .. . ... ... ... : ... .. 9 ... ... ... : ... .. . ... : ... .. 8 ... : ... .. . ... ...
ROW 6C : ... .. . ... ... ... : ... .. 7 ... ... ... : ... .. . ... : ... .. 4 ... : ... .. . ... ...
ROW 6D : ... .. . ... ... ... : ... .. 6 ... ... ... : ... .. . ... : ... .. 0 ... : ... .. . ... ...
ROW 6E : ... .. . ... ... ... : ... .. 5 ... ... ... : ... .. . ... : ... .. . ... : ... .. . ... ...
ROW 6F : ... .. . ... ... ... : ... .. . ... ... ... : ... .. . ... : ... .. . ... : ... .. . ... ...
ROW 70 : ... .. . ... ... ... : A#3 00 D P81 ... ... : ... .. . ... : ... .. . ... : ... .. . ... ...
ROW 71 : ... .. . ... ... ... : ... .. 9 ... ... ... : --- .. . ... : ... .. . ... : ... .. . ... ...
ROW 72 : ... .. . ... ... ... : ... .. 7 ... ... ... : F-3 00 . ... : ... .. C ... : ... .. . ... ...
ROW 73 : ... .. . ... ... ... : ... .. 6 ... ... ... : ... .. . ... : ... .. 8 ... : ... .. . ... ...
ROW 74 : ... .. . ... ... ... : ... .. 5 ... ... ... : ... .. . ... : ... .. 4 ... : ... .. . ... ...
ROW 75 : ... .. . ... ... ... : ... .. . ... ... ... : ... .. . ... : ... .. 0 ... : ... .. . ... ...
ROW 76 : ... .. . ... ... ... : A-3 00 D P80 ... ... : ... .. . ... : ... .. . ... : ... .. . ... ...
ROW 77 : ... .. . ... ... ... : ... .. 9 ... ... ... : ... .. . ... : ... .. . ... : ... .. . ... ...
ROW 78 : ... .. . ... ... ... : ... .. 7 ... ... ... : ... .. . ... : ... .. . ... : ... .. . ... ...
ROW 79 : ... .. . ... ... ... : ... .. 6 ... ... ... : --- .. . ... : ... .. . ... : ... .. . ... ...
ROW 7A : ... .. . ... ... ... : ... .. 5 ... ... ... : A#2 00 . ... : ... .. C ... : ... .. . ... ...
ROW 7B : ... .. . ... ... ... : ... .. . ... ... ... : ... .. . ... : ... .. 8 ... : ... .. . ... ...
ROW 7C : ... .. . ... ... ... : F-3 00 D P80 ... ... : ... .. . ... : ... .. 4 ... : ... .. . ... ...
ROW 7D : ... .. . ... ... ... : ... .. 9 ... ... ... : ... .. . ... : ... .. 0 ... : ... .. . ... ...
ROW 7E : ... .. . ... ... ... : ... .. 7 ... ... ... : ... .. . ... : ... .. . ... : ... .. . ... ...
ROW 7F : ... .. . ... ... ... : ... .. 6 ... ... ... : ... .. . ... : ... .. . ... : ... .. . ... ...

PATTERN 33
ROW 00 : ... .. . ... ... ... : ... .. 5 ... ... ... : ... .. . ... : ... .. . ... : ... .. . ... ...
ROW 01 : ... .. . ... ... ... : ... .. . ... ... ... : --- .. . ... : ... .. . ... : ... .. . ... ...
ROW 02 : B-2 00 4 P80 ... ... : G-3 00 D P80 ... ... : G-2 00 . ... : ... .. C ... : ... .. . ... ...
ROW 03 : ... .. 5 ... ... ... : ... .. 9 ... ... ... : ... .. . ... : ... .. 8 ... : ... .. . ... ...
ROW 04 : ... .. 6 ... ... ... : ... .. 7 ... ... ... : ... .. . ... : ... .. 4 ... : ... .. . ... ...
ROW 05 : ... .. 7 ... ... ... : ... .. 6 ... ... ... : ... .. . ... : ... .. 0 ... : ... .. . ... ...
ROW 06 : ... .. 8 ... ... ... : ... .. 5 ... ... ... : ... .. . ... : ... .. . ... : ... .. . ... ...
ROW 07 : ... .. 7 ... ... ... : ... .. . ... ... ... : ... .. . ... : ... .. . ... : ... .. . ... ...
ROW 08 : ... .. 6 ... ... ... : ... .. . ... ... ... : ... .. . ... : ... .. . ... : ... .. . ... ...
ROW 09 : ... .. 5 ... ... ... : ... .. 4 ... ... ... : ... .. . ... : ... .. . ... : ... .. . ... ...
ROW 0A : ... .. 4 ... ... ... : ... .. . ... ... ... : ... .. . ... : ... .. . ... : ... .. . ... ...
ROW 0B : ... .. . ... ... ... : ... .. . ... ... ... : ... .. . ... : ... .. . ... : ... .. . ... ...
ROW 0C : ... .. . ... ... ... : ... .. . ... ... ... : ... .. . ... : ... .. . ... : ... .. . ... ...
ROW 0D : ... .. . ... ... ... : ... .. . ... ... ... : ... .. . ... : ... .. . ... : ... .. . ... ...
ROW 0E : ... .. . ... ... ... : ... .. . ... ... ... : ... .. . ... : ... .. . ... : ... .. . ... ...
ROW 0F : ... .. . ... ... ... : ... .. . ... ... ... : ... .. . ... : ... .. . ... : ... .. . ... ...
ROW 10 : ... .. . ... ... ... : ... .. . ... ... ... : ... .. . ... : ... .. . ... : ... .. . ... ...
ROW 11 : ... .. . ... ... ... : ... .. . ... ... ... : --- .. . ... : ... .. . ... : ... .. . ... ...
ROW 12 : ... .. . ... ... ... : ... .. . ... ... ... : ... .. . ... : ... .. . ... : ... .. . ... ...
ROW 13 : ... .. . ... ... ... : ... .. . ... ... ... : ... .. . ... : ... .. . ... : ... .. . ... ...
ROW 14 : ... .. . ... ... ... : ... .. . ... ... ... : ... .. . ... : ... .. . ... : ... .. . ... ...
ROW 15 : ... .. . ... ... ... : ... .. . ... ... ... : ... .. . ... : ... .. . ... : ... .. . ... ...
ROW 16 : ... .. . ... ... ... : ... .. . ... ... ... : ... .. . ... : ... .. . ... : ... .. . ... ...
ROW 17 : ... .. . ... ... ... : ... .. . ... ... ... : ... .. . ... : ... .. . ... : ... .. . ... ...
ROW 18 : ... .. . ... ... ... : ... .. . ... ... ... : ... .. . ... : ... .. . ... : ... .. . ... ...
ROW 19 : ... .. . ... ... ... : ... .. . ... ... ... : ... .. . ... : ... .. . ... : ... .. . ... ...
ROW 1A : ... .. . ... ... ... : ... .. . ... ... ... : G-2 00 . ... : ... .. C ... : ... .. . ... ...
ROW 1B : ... .. . ... ... ... : ... .. . ... ... ... : ... .. . ... : ... .. 8 ... : ... .. . ... ...
ROW 1C : ... .. . ... ... ... : ... .. . ... ... ... : ... .. . ... : ... .. 4 ... : ... .. . ... ...
ROW 1D : ... .. . ... ... ... : ... .. . ... ... ... : ... .. . ... : ... .. 0 ... : ... .. . ... ...
ROW 1E : ... .. . ... ... ... : ... .. . ... ... ... : ... .. . ... : ... .. . ... : ... .. . ... ...
ROW 1F : ... .. . ... ... ... : ... .. . ... ... ... : ... .. . ... : ... .. . ... : ... .. . ... ...
ROW 20 : ... .. . ... ... ... : ... .. . ... ... ... : ... .. . ... : ... .. . ... : ... .. . ... ...
ROW 21 : ... .. . ... ... ... : ... .. . ... ... ... : --- .. . ... : ... .. . ... : ... .. . ... ...
ROW 22 : ... .. . ... ... ... : ... .. . ... ... ... : G-3 00 . ... : ... .. . ... : ... .. . ... ...
ROW 23 : ... .. . ... ... ... : ... .. . ... ... ... : ... .. . ... : ... .. . ... : ... .. . ... ...
ROW 24 : ... .. . ... ... ... : ... .. . ... ... ... : ... .. . ... : ... .. . ... : ... .. . ... ...
ROW 25 : ... .. . ... ... ... : ... .. . ... ... ... : ... .. . ... : ... .. . ... : ... .. . ... ...
ROW 26 : ... .. . ... ... ... : ... .. . ... ... ... : ... .. . ... : ... .. . ... : ... .. . ... ...
ROW 27 : ... .. . ... ... ... : ... .. . ... ... ... : ... .. . ... : ... .. . ... : ... .. . ... ...
ROW 28 : ... .. . ... ... ... : ... .. . ... ... ... : ... .. . ... : ... .. . ... : ... .. . ... ...
ROW 29 : ... .. . ... ... ... : ... .. . ... ... ... : --- .. . ... : ... .. . ... : ... .. . ... ...
ROW 2A : ... .. . ... ... ... : ... .. . ... ... ... : D-3 00 . ... : ... .. . ... : ... .. . ... ...
ROW 2B : ... .. . ... ... ... : ... .. . ... ... ... : ... .. . ... : ... .. . ... : ... .. . ... ...
ROW 2C : ... .. . ... ... ... : ... .. . ... ... ... : ... .. . ... : ... .. . ... : ... .. . ... ...
ROW 2D : ... .. . ... ... ... : ... .. . ... ... ... : ... .. . ... : ... .. . ... : ... .. . ... ...
ROW 2E : ... .. . ... ... ... : ... .. . ... ... ... : ... .. . ... : ... .. . ... : ... .. . ... ...
ROW 2F : ... .. . ... ... ... : ... .. . ... ... ... : ... .. . ... : ... .. . ... : ... .. . ... ...
ROW 30 : ... .. . ... ... ... : ... .. . ... ... ... : ... .. . ... : ... .. . ... : ... .. . ... ...
ROW 31 : ... .. . ... ... ... : ... .. . ... ... ... : --- .. . ... : ... .. . ... : ... .. . ... ...
ROW 32 : D-3 00 4 P80 ... ... : ... .. . ... ... ... : G-2 00 . ... : ... .. C ... : ... .. . ... ...
ROW 33 : ... .. 5 ... ... ... : ... .. . ... ... ... : ... .. . ... : ... .. 8 ... : ... .. . ... ...
ROW 34 : ... .. 6 ... ... ... : ... .. . ... ... ... : ... .. . ... : ... .. 4 ... : ... .. . ... ...
ROW 35 : ... .. 7 ... ... ... : ... .. . ... ... ... : ... .. . ... : ... .. 0 ... : ... .. . ... ...
ROW 36 : ... .. 8 ... ... ... : ... .. . ... ... ... : ... .. . ... : ... .. . ... : ... .. . ... ...
ROW 37 : ... .. 7 ... ... ... : ... .. . ... ... ... : ... .. . ... : ... .. . ... : ... .. . ... ...
ROW 38 : ... .. 6 ... ... ... : ... .. . ... ... ... : ... .. . ... : ... .. . ... : ... .. . ... ...
ROW 39 : ... .. 5 ... ... ... : ... .. . ... ... ... : ... .. . ... : ... .. . ... : ... .. . ... ...
ROW 3A : ... .. 4 ... ... ... : ... .. . ... ... ... : ... .. . ... : ... .. . ... : ... .. . ... ...
ROW 3B : ... .. . ... ... ... : ... .. . ... ... ... : ... .. . ... : ... .. . ... : ... .. . ... ...
ROW 3C : ... .. . ... ... ... : ... .. . ... ... ... : ... .. . ... : ... .. . ... : ... .. . ... ...
ROW 3D : ... .. . ... ... ... : ... .. . ... ... ... : ... .. . ... : ... .. . ... : ... .. . ... ...
ROW 3E : ... .. . ... ... ... : ... .. . ... ... ... : ... .. . ... : ... .. . ... : ... .. . ... ...
ROW 3F : ... .. . ... ... ... : ... .. . ... ... ... : ... .. . ... : ... .. . ... : ... .. . ... ...
ROW 40 : ... .. . ... ... ... : ... .. . ... ... ... : ... .. . ... : ... .. . ... : ... .. . ... ...
ROW 41 : ... .. . ... ... ... : ... .. . ... ... ... : --- .. . ... : ... .. . ... : ... .. . ... ...
ROW 42 : ... .. . ... ... ... : ... .. . ... ... ... : ... .. . ... : ... .. . ... : ... .. . ... ...
ROW 43 : ... .. . ... ... ... : ... .. . ... ... ... : ... .. . ... : ... .. . ... : ... .. . ... ...
ROW 44 : ... .. . ... ... ... : ... .. . ... ... ... : ... .. . ... : ... .. . ... : ... .. . ... ...
ROW 45 : ... .. . ... ... ... : ... .. . ... ... ... : ... .. . ... : ... .. . ... : ... .. . ... ...
ROW 46 : ... .. . ... ... ... : ... .. . ... ... ... : ... .. . ... : ... .. . ... : ... .. . ... ...
ROW 47 : ... .. . ... ... ... : ... .. . ... ... ... : ... .. . ... : ... .. . ... : ... .. . ... ...
ROW 48 : ... .. . ... ... ... : ... .. . ... ... ... : ... .. . ... : ... .. . ... : ... .. . ... ...
ROW 49 : ... .. . ... ... ... : ... .. . ... ... ... : ... .. . ... : ... .. . ... : ... .. . ... ...
ROW 4A : ... .. . ... ... ... : ... .. . ... ... ... : G-2 00 . ... : ... .. C ... : ... .. . ... ...
ROW 4B : ... .. . ... ... ... : ... .. . ... ... ... : ... .. . ... : ... .. 8 ... : ... .. . ... ...
ROW 4C : ... .. . ... ... ... : ... .. . ... ... ... : ... .. . ... : ... .. 4 ... : ... .. . ... ...
ROW 4D : ... .. . ... ... ... : ... .. . ... ... ... : ... .. . ... : ... .. 0 ... : ... .. . ... ...
ROW 4E : ... .. . ... ... ... : ... .. . ... ... ... : ... .. . ... : ... .. . ... : ... .. . ... ...
ROW 4F : ... .. . ... ... ... : ... .. . ... ... ... : ... .. . ... : ... .. . ... : ... .. . ... ...
ROW 50 : ... .. . ... ... ... : ... .. . ... ... ... : ... .. . ... : ... .. . ... : ... .. . ... ...
ROW 51 : ... .. . ... ... ... : ... .. . ... ... ... : --- .. . ... : ... .. . ... : ... .. . ... ...
ROW 52 : ... .. . ... ... ... : ... .. . ... ... ... : D-3 00 . ... : ... .. C ... : ... .. . ... ...
ROW 53 : ... .. . ... ... ... : ... .. . ... ... ... : ... .. . ... : ... .. 8 ... : ... .. . ... ...
ROW 54 : ... .. . ... ... ... : ... .. . ... ... ... : ... .. . ... : ... .. 4 ... : ... .. . ... ...
ROW 55 : ... .. . ... ... ... : ... .. . ... ... ... : ... .. . ... : ... .. 0 ... : ... .. . ... ...
ROW 56 : ... .. . ... ... ... : ... .. . ... ... ... : ... .. . ... : ... .. . ... : ... .. . ... ...
ROW 57 : ... .. . ... ... ... : ... .. . ... ... ... : ... .. . ... : ... .. . ... : ... .. . ... ...
ROW 58 : ... .. . ... ... ... : ... .. . ... ... ... : ... .. . ... : ... .. . ... : ... .. . ... ...
ROW 59 : ... .. . ... ... ... : ... .. . ... ... ... : --- .. . ... : ... .. . ... : ... .. . ... ...
ROW 5A : ... .. . ... ... ... : ... .. . ... ... ... : G-2 00 . ... : ... .. C ... : ... .. . ... ...
ROW 5B : ... .. . ... ... ... : ... .. . ... ... ... : ... .. . ... : ... .. 8 ... : ... .. . ... ...
ROW 5C : ... .. . ... ... ... : ... .. . ... ... ... : ... .. . ... : ... .. 4 ... : ... .. . ... ...
ROW 5D : ... .. . ... ... ... : ... .. . ... ... ... : ... .. . ... : ... .. 0 ... : ... .. . ... ...
ROW 5E : ... .. . ... ... ... : ... .. . ... ... ... : ... .. . ... : ... .. . ... : ... .. . ... ...
ROW 5F : ... .. . ... ... ... : ... .. . ... ... ... : ... .. . ... : ... .. . ... : ... .. . ... ...
ROW 60 : ... .. . ... ... ... : ... .. . ... ... ... : ... .. . ... : ... .. . ... : ... .. . ... ...
ROW 61 : ... .. . ... ... ... : ... .. . ... ... ... : --- .. . ... : ... .. . ... : ... .. . ... ...
ROW 62 : C-3 00 4 P80 ... ... : A#3 00 D P81 ... ... : A#2 00 . ... : ... .. C ... : ... .. . ... ...
ROW 63 : ... .. 5 ... ... ... : ... .. 9 ... ... ... : ... .. . ... : ... .. 8 ... : ... .. . ... ...
ROW 64 : ... .. 6 ... ... ... : ... .. 7 ... ... ... : ... .. . ... : ... .. 4 ... : ... .. . ... ...
ROW 65 : ... .. 7 ... ... ... : ... .. 6 ... ... ... : ... .. . ... : ... .. 0 ... : ... .. . ... ...
ROW 66 : ... .. 8 ... ... ... : ... .. 5 ... ... ... : ... .. . ... : ... .. . ... : ... .. . ... ...
ROW 67 : ... .. 7 ... ... ... : ... .. . ... ... ... : ... .. . ... : ... .. . ... : ... .. . ... ...
ROW 68 : ... .. 6 ... ... ... : ... .. . ... ... ... : ... .. . ... : ... .. . ... : ... .. . ... ...
ROW 69 : ... .. 5 ... ... ... : ... .. 4 ... ... ... : ... .. . ... : ... .. . ... : ... .. . ... ...
ROW 6A : ... .. 4 ... ... ... : ... .. . ... ... ... : ... .. . ... : ... .. . ... : ... .. . ... ...
ROW 6B : ... .. . ... ... ... : ... .. . ... ... ... : ... .. . ... : ... .. . ... : ... .. . ... ...
ROW 6C : ... .. . ... ... ... : ... .. . ... ... ... : ... .. . ... : ... .. . ... : ... .. . ... ...
ROW 6D : ... .. . ... ... ... : ... .. . ... ... ... : ... .. . ... : ... .. . ... : ... .. . ... ...
ROW 6E : ... .. . ... ... ... : ... .. . ... ... ... : ... .. . ... : ... .. . ... : ... .. . ... ...
ROW 6F : ... .. . ... ... ... : ... .. . ... ... ... : ... .. . ... : ... .. . ... : ... .. . ... ...
ROW 70 : ... .. . ... ... ... : ... .. . ... ... ... : ... .. . ... : ... .. . ... : ... .. . ... ...
ROW 71 : ... .. . ... ... ... : ... .. . ... ... ... : --- .. . ... : ... .. . ... : ... .. . ... ...
ROW 72 : ... .. . ... ... ... : ... .. . ... ... ... : ... .. . ... : ... .. . ... : ... .. . ... ...
ROW 73 : ... .. . ... ... ... : ... .. . ... ... ... : ... .. . ... : ... .. . ... : ... .. . ... ...
ROW 74 : ... .. . ... ... ... : ... .. . ... ... ... : ... .. . ... : ... .. . ... : ... .. . ... ...
ROW 75 : ... .. . ... ... ... : ... .. . ... ... ... : ... .. . ... : ... .. . ... : ... .. . ... ...
ROW 76 : ... .. . ... ... ... : ... .. . ... ... ... : ... .. . ... : ... .. . ... : ... .. . ... ...
ROW 77 : ... .. . ... ... ... : ... .. . ... ... ... : ... .. . ... : ... .. . ... : ... .. . ... ...
ROW 78 : ... .. . ... ... ... : ... .. . ... ... ... : ... .. . ... : ... .. . ... : ... .. . ... ...
ROW 79 : ... .. . ... ... ... : ... .. . ... ... ... : ... .. . ... : ... .. . ... : ... .. . ... ...
ROW 7A : ... .. . ... ... ... : ... .. . ... ... ... : A#2 00 . ... : ... .. C ... : ... .. . ... ...
ROW 7B : ... .. . ... ... ... : ... .. . ... ... ... : ... .. . ... : ... .. 8 ... : ... .. . ... ...
ROW 7C : ... .. . ... ... ... : ... .. . ... ... ... : ... .. . ... : ... .. 4 ... : ... .. . ... ...
ROW 7D : ... .. . ... ... ... : ... .. . ... ... ... : ... .. . ... : ... .. 0 ... : ... .. . ... ...
ROW 7E : ... .. . ... ... ... : ... .. . ... ... ... : ... .. . ... : ... .. . ... : ... .. . ... ...
ROW 7F : ... .. . ... ... ... : ... .. . ... ... ... : ... .. . ... : ... .. . ... : ... .. . ... ...

PATTERN 34
ROW 00 : ... .. . ... ... ... : ... .. . ... ... ... : ... .. . ... : ... .. . ... : ... .. . ... ...
ROW 01 : ... .. . ... ... ... : ... .. . ... ... ... : --- .. . ... : ... .. . ... : ... .. . ... ...
ROW 02 : ... .. . ... ... ... : ... .. . ... ... ... : F-3 00 . ... : ... .. . ... : ... .. . ... ...
ROW 03 : ... .. . ... ... ... : ... .. . ... ... ... : ... .. . ... : ... .. . ... : ... .. . ... ...
ROW 04 : ... .. . ... ... ... : ... .. . ... ... ... : ... .. . ... : ... .. . ... : ... .. . ... ...
ROW 05 : ... .. . ... ... ... : ... .. . ... ... ... : ... .. . ... : ... .. . ... : ... .. . ... ...
ROW 06 : ... .. . ... ... ... : ... .. . ... ... ... : ... .. . ... : ... .. . ... : ... .. . ... ...
ROW 07 : ... .. . ... ... ... : ... .. . ... ... ... : ... .. . ... : ... .. . ... : ... .. . ... ...
ROW 08 : ... .. . ... ... ... : ... .. . ... ... ... : ... .. . ... : ... .. . ... : ... .. . ... ...
ROW 09 : ... .. . ... ... ... : ... .. . ... ... ... : --- .. . ... : ... .. . ... : ... .. . ... ...
ROW 0A : ... .. . ... ... ... : ... .. . ... ... ... : A#2 00 . ... : ... .. . ... : ... .. . ... ...
ROW 0B : ... .. . ... ... ... : ... .. . ... ... ... : ... .. . ... : ... .. . ... : ... .. . ... ...
ROW 0C : ... .. . ... ... ... : ... .. . ... ... ... : ... .. . ... : ... .. . ... : ... .. . ... ...
ROW 0D : ... .. . ... ... ... : ... .. . ... ... ... : ... .. . ... : ... .. . ... : ... .. . ... ...
ROW 0E : ... .. . ... ... ... : ... .. . ... ... ... : ... .. . ... : ... .. . ... : ... .. . ... ...
ROW 0F : ... .. . ... ... ... : ... .. . ... ... ... : ... .. . ... : ... .. . ... : ... .. . ... ...
ROW 10 : ... .. . ... ... ... : ... .. . ... ... ... : ... .. . ... : ... .. . ... : ... .. . ... ...
ROW 11 : ... .. . ... ... ... : ... .. . ... ... ... : --- .. . ... : ... .. . ... : ... .. . ... ...
ROW 12 : F-3 00 4 P80 ... ... : ... .. . ... ... ... : A#2 00 . ... : ... .. C ... : ... .. . ... ...
ROW 13 : ... .. 5 ... ... ... : ... .. . ... ... ... : ... .. . ... : ... .. 8 ... : ... .. . ... ...
ROW 14 : ... .. 6 ... ... ... : ... .. . ... ... ... : ... .. . ... : ... .. 4 ... : ... .. . ... ...
ROW 15 : ... .. 7 ... ... ... : ... .. . ... ... ... : ... .. . ... : ... .. 0 ... : ... .. . ... ...
ROW 16 : ... .. 8 ... ... ... : ... .. . ... ... ... : ... .. . ... : ... .. . ... : ... .. . ... ...
ROW 17 : ... .. 7 ... ... ... : ... .. . ... ... ... : ... .. . ... : ... .. . ... : ... .. . ... ...
ROW 18 : ... .. 6 ... ... ... : ... .. . ... ... ... : ... .. . ... : ... .. . ... : ... .. . ... ...
ROW 19 : ... .. 5 ... ... ... : ... .. . ... ... ... : ... .. . ... : ... .. . ... : ... .. . ... ...
ROW 1A : ... .. 4 ... ... ... : ... .. . ... ... ... : ... .. . ... : ... .. . ... : ... .. . ... ...
ROW 1B : ... .. . ... ... ... : ... .. . ... ... ... : ... .. . ... : ... .. . ... : ... .. . ... ...
ROW 1C : ... .. . ... ... ... : ... .. . ... ... ... : ... .. . ... : ... .. . ... : ... .. . ... ...
ROW 1D : ... .. . ... ... ... : ... .. . ... ... ... : ... .. . ... : ... .. . ... : ... .. . ... ...
ROW 1E : ... .. . ... ... ... : ... .. . ... ... ... : ... .. . ... : ... .. . ... : ... .. . ... ...
ROW 1F : ... .. . ... ... ... : ... .. . ... ... ... : ... .. . ... : ... .. . ... : ... .. . ... ...
ROW 20 : ... .. . ... ... ... : ... .. . ... ... ... : ... .. . ... : ... .. . ... : ... .. . ... ...
ROW 21 : ... .. . ... ... ... : ... .. . ... ... ... : --- .. . ... : ... .. . ... : ... .. . ... ...
ROW 22 : ... .. . ... ... ... : ... .. . ... ... ... : ... .. . ... : ... .. . ... : ... .. . ... ...
ROW 23 : ... .. . ... ... ... : ... .. . ... ... ... : ... .. . ... : ... .. . ... : ... .. . ... ...
ROW 24 : ... .. . ... ... ... : ... .. . ... ... ... : ... .. . ... : ... .. . ... : ... .. . ... ...
ROW 25 : ... .. . ... ... ... : ... .. . ... ... ... : ... .. . ... : ... .. . ... : ... .. . ... ...
ROW 26 : ... .. . ... ... ... : ... .. . ... ... ... : ... .. . ... : ... .. . ... : ... .. . ... ...
ROW 27 : ... .. . ... ... ... : ... .. . ... ... ... : ... .. . ... : ... .. . ... : ... .. . ... ...
ROW 28 : ... .. . ... ... ... : ... .. . ... ... ... : ... .. . ... : ... .. . ... : ... .. . ... ...
ROW 29 : ... .. . ... ... ... : ... .. . ... ... ... : ... .. . ... : ... .. . ... : ... .. . ... ...
ROW 2A : ... .. . ... ... ... : A-3 00 D P80 ... ... : A#2 00 . ... : ... .. C ... : ... .. . ... ...
ROW 2B : ... .. . ... ... ... : ... .. 9 ... ... ... : ... .. . ... : ... .. 8 ... : ... .. . ... ...
ROW 2C : ... .. . ... ... ... : ... .. 7 ... ... ... : ... .. . ... : ... .. 4 ... : ... .. . ... ...
ROW 2D : ... .. . ... ... ... : ... .. 6 ... ... ... : ... .. . ... : ... .. 0 ... : ... .. . ... ...
ROW 2E : ... .. . ... ... ... : ... .. 5 ... ... ... : ... .. . ... : ... .. . ... : ... .. . ... ...
ROW 2F : ... .. . ... ... ... : ... .. . ... ... ... : ... .. . ... : ... .. . ... : ... .. . ... ...
ROW 30 : ... .. . ... ... ... : A#3 00 D P81 ... ... : ... .. . ... : ... .. . ... : ... .. . ... ...
ROW 31 : ... .. . ... ... ... : ... .. 9 ... ... ... : --- .. . ... : ... .. . ... : ... .. . ... ...
ROW 32 : ... .. . ... ... ... : ... .. 7 ... ... ... : F-3 00 . ... : ... .. C ... : ... .. . ... ...
ROW 33 : ... .. . ... ... ... : ... .. 6 ... ... ... : ... .. . ... : ... .. 8 ... : ... .. . ... ...
ROW 34 : ... .. . ... ... ... : ... .. 5 ... ... ... : ... .. . ... : ... .. 4 ... : ... .. . ... ...
ROW 35 : ... .. . ... ... ... : ... .. . ... ... ... : ... .. . ... : ... .. 0 ... : ... .. . ... ...
ROW 36 : ... .. . ... ... ... : A-3 00 D P80 ... ... : ... .. . ... : ... .. . ... : ... .. . ... ...
ROW 37 : ... .. . ... ... ... : ... .. 9 ... ... ... : ... .. . ... : ... .. . ... : ... .. . ... ...
ROW 38 : ... .. . ... ... ... : ... .. 7 ... ... ... : ... .. . ... : ... .. . ... : ... .. . ... ...
ROW 39 : ... .. . ... ... ... : ... .. 6 ... ... ... : --- .. . ... : ... .. . ... : ... .. . ... ...
ROW 3A : ... .. . ... ... ... : ... .. 5 ... ... ... : A#2 00 . ... : ... .. C ... : ... .. . ... ...
ROW 3B : ... .. . ... ... ... : ... .. . ... ... ... : ... .. . ... : ... .. 8 ... : ... .. . ... ...
ROW 3C : ... .. . ... ... ... : F-3 00 D P80 ... ... : ... .. . ... : ... .. 4 ... : ... .. . ... ...
ROW 3D : ... .. . ... ... ... : ... .. 9 ... ... ... : ... .. . ... : ... .. 0 ... : ... .. . ... ...
ROW 3E : ... .. . ... ... ... : ... .. 7 ... ... ... : ... .. . ... : ... .. . ... : ... .. . ... ...
ROW 3F : ... .. . ... ... ... : ... .. 6 ... ... ... : ... .. . ... : ... .. . ... : ... .. . ... ...
ROW 40 : ... .. . ... ... ... : ... .. 5 ... ... ... : ... .. . ... : ... .. . ... : ... .. . ... ...
ROW 41 : ... .. . ... ... ... : ... .. . ... ... ... : --- .. . ... : ... .. . ... : ... .. . ... ...
ROW 42 : B-2 00 4 P80 ... ... : G-3 00 D P80 ... ... : G-2 00 . ... : ... .. C ... : ... .. . ... ...
ROW 43 : ... .. 5 ... ... ... : ... .. 9 ... ... ... : ... .. . ... : ... .. 8 ... : ... .. . ... ...
ROW 44 : ... .. 6 ... ... ... : ... .. 7 ... ... ... : ... .. . ... : ... .. 4 ... : ... .. . ... ...
ROW 45 : ... .. 7 ... ... ... : ... .. 6 ... ... ... : ... .. . ... : ... .. 0 ... : ... .. . ... ...
ROW 46 : ... .. 8 ... ... ... : ... .. 5 ... ... ... : ... .. . ... : ... .. . ... : ... .. . ... ...
ROW 47 : ... .. 7 ... ... ... : ... .. . ... ... ... : ... .. . ... : ... .. . ... : ... .. . ... ...
ROW 48 : ... .. 6 ... ... ... : ... .. . ... ... ... : ... .. . ... : ... .. . ... : ... .. . ... ...
ROW 49 : ... .. 5 ... ... ... : ... .. 4 ... ... ... : ... .. . ... : ... .. . ... : ... .. . ... ...
ROW 4A : ... .. 4 ... ... ... : ... .. . ... ... ... : ... .. . ... : ... .. . ... : ... .. . ... ...
ROW 4B : ... .. . ... ... ... : ... .. . ... ... ... : ... .. . ... : ... .. . ... : ... .. . ... ...
ROW 4C : ... .. . ... ... ... : ... .. . ... ... ... : ... .. . ... : ... .. . ... : ... .. . ... ...
ROW 4D : ... .. . ... ... ... : ... .. . ... ... ... : ... .. . ... : ... .. . ... : ... .. . ... ...
ROW 4E : ... .. . ... ... ... : ... .. . ... ... ... : ... .. . ... : ... .. . ... : ... .. . ... ...
ROW 4F : ... .. . ... ... ... : ... .. . ... ... ... : ... .. . ... : ... .. . ... : ... .. . ... ...
ROW 50 : ... .. . ... ... ... : ... .. . ... ... ... : ... .. . ... : ... .. . ... : ... .. . ... ...
ROW 51 : ... .. . ... ... ... : ... .. . ... ... ... : --- .. . ... : ... .. . ... : ... .. . ... ...
ROW 52 : ... .. . ... ... ... : ... .. . ... ... ... : ... .. . ... : ... .. . ... : ... .. . ... ...
ROW 53 : ... .. . ... ... ... : ... .. . ... ... ... : ... .. . ... : ... .. . ... : ... .. . ... ...
ROW 54 : ... .. . ... ... ... : ... .. . ... ... ... : ... .. . ... : ... .. . ... : ... .. . ... ...
ROW 55 : ... .. . ... ... ... : ... .. . ... ... ... : ... .. . ... : ... .. . ... : ... .. . ... ...
ROW 56 : ... .. . ... ... ... : ... .. . ... ... ... : ... .. . ... : ... .. . ... : ... .. . ... ...
ROW 57 : ... .. . ... ... ... : ... .. . ... ... ... : ... .. . ... : ... .. . ... : ... .. . ... ...
ROW 58 : ... .. . ... ... ... : ... .. . ... ... ... : ... .. . ... : ... .. . ... : ... .. . ... ...
ROW 59 : ... .. . ... ... ... : ... .. . ... ... ... : ... .. . ... : ... .. . ... : ... .. . ... ...
ROW 5A : ... .. . ... ... ... : ... .. . ... ... ... : D-3 00 . ... : ... .. C ... : ... .. . ... ...
ROW 5B : ... .. . ... ... ... : ... .. . ... ... ... : ... .. . ... : ... .. 8 ... : ... .. . ... ...
ROW 5C : ... .. . ... ... ... : ... .. . ... ... ... : ... .. . ... : ... .. 4 ... : ... .. . ... ...
ROW 5D : ... .. . ... ... ... : ... .. . ... ... ... : ... .. . ... : ... .. 0 ... : ... .. . ... ...
ROW 5E : ... .. . ... ... ... : ... .. . ... ... ... : ... .. . ... : ... .. . ... : ... .. . ... ...
ROW 5F : ... .. . ... ... ... : ... .. . ... ... ... : ... .. . ... : ... .. . ... : ... .. . ... ...
ROW 60 : ... .. . ... ... ... : ... .. . ... ... ... : ... .. . ... : ... .. . ... : ... .. . ... ...
ROW 61 : ... .. . ... ... ... : ... .. . ... ... ... : --- .. . ... : ... .. . ... : ... .. . ... ...
ROW 62 : ... .. . ... ... ... : ... .. . ... ... ... : G-2 00 . ... : ... .. . ... : ... .. . ... ...
ROW 63 : ... .. . ... ... ... : ... .. . ... ... ... : ... .. . ... : ... .. . ... : ... .. . ... ...
ROW 64 : ... .. . ... ... ... : ... .. . ... ... ... : ... .. . ... : ... .. . ... : ... .. . ... ...
ROW 65 : ... .. . ... ... ... : ... .. . ... ... ... : ... .. . ... : ... .. . ... : ... .. . ... ...
ROW 66 : ... .. . ... ... ... : ... .. . ... ... ... : ... .. . ... : ... .. . ... : ... .. . ... ...
ROW 67 : ... .. . ... ... ... : ... .. . ... ... ... : ... .. . ... : ... .. . ... : ... .. . ... ...
ROW 68 : ... .. . ... ... ... : ... .. . ... ... ... : ... .. . ... : ... .. . ... : ... .. . ... ...
ROW 69 : ... .. . ... ... ... : ... .. . ... ... ... : --- .. . ... : ... .. . ... : ... .. . ... ...
ROW 6A : ... .. . ... ... ... : ... .. . ... ... ... : G-2 00 . ... : ... .. . ... : ... .. . ... ...
ROW 6B : ... .. . ... ... ... : ... .. . ... ... ... : ... .. . ... : ... .. . ... : ... .. . ... ...
ROW 6C : ... .. . ... ... ... : ... .. . ... ... ... : ... .. . ... : ... .. . ... : ... .. . ... ...
ROW 6D : ... .. . ... ... ... : ... .. . ... ... ... : ... .. . ... : ... .. . ... : ... .. . ... ...
ROW 6E : ... .. . ... ... ... : ... .. . ... ... ... : ... .. . ... : ... .. . ... : ... .. . ... ...
ROW 6F : ... .. . ... ... ... : ... .. . ... ... ... : ... .. . ... : ... .. . ... : ... .. . ... ...
ROW 70 : ... .. . ... ... ... : ... .. . ... ... ... : ... .. . ... : ... .. . ... : ... .. . ... ...
ROW 71 : ... .. . ... ... ... : ... .. . ... ... ... : --- .. . ... : ... .. . ... : ... .. . ... ...
ROW 72 : ... .. . ... ... ... : ... .. . ... ... ... : G-2 00 . ... : ... .. C ... : ... .. . ... ...
ROW 73 : ... .. . ... ... ... : ... .. . ... ... ... : ... .. . ... : ... .. 8 ... : ... .. . ... ...
ROW 74 : ... .. . ... ... ... : ... .. . ... ... ... : ... .. . ... : ... .. 4 ... : ... .. . ... ...
ROW 75 : ... .. . ... ... ... : ... .. . ... ... ... : ... .. . ... : ... .. 0 ... : ... .. . ... ...
ROW 76 : ... .. . ... ... ... : ... .. . ... ... ... : ... .. . ... : ... .. . ... : ... .. . ... ...
ROW 77 : ... .. . ... ... ... : ... .. . ... ... ... : ... .. . ... : ... .. . ... : ... .. . ... ...
ROW 78 : ... .. . ... ... ... : ... .. . ... ... ... : ... .. . ... : ... .. . ... : ... .. . ... ...
ROW 79 : ... .. . ... ... ... : ... .. . ... ... ... : ... .. . ... : ... .. . ... : ... .. . ... ...
ROW 7A : ... .. . ... ... ... : ... .. . ... ... ... : ... .. . ... : ... .. . ... : ... .. . ... ...
ROW 7B : ... .. . ... ... ... : ... .. . ... ... ... : ... .. . ... : ... .. . ... : ... .. . ... ...
ROW 7C : ... .. . ... ... ... : ... .. . ... ... ... : ... .. . ... : ... .. . ... : ... .. . ... ...
ROW 7D : ... .. . ... ... ... : ... .. . ... ... ... : ... .. . ... : ... .. . ... : ... .. . ... ...
ROW 7E : ... .. . ... ... ... : ... .. . ... ... ... : ... .. . ... : ... .. . ... : ... .. . ... ...
ROW 7F : ... .. . ... ... ... : ... .. . ... ... ... : ... .. . ... : ... .. . ... : ... .. . ... ...

PATTERN 35
ROW 00 : ... .. . ... ... ... : ... .. . ... ... ... : ... .. . ... : ... .. . ... : ... .. . ... ...
ROW 01 : ... .. . ... ... ... : ... .. . ... ... ... : --- .. . ... : ... .. . ... : ... .. . ... ...
ROW 02 : ... .. . ... ... ... : ... .. . ... ... ... : ... .. . ... : ... .. . ... : ... .. . ... ...
ROW 03 : ... .. . ... ... ... : ... .. . ... ... ... : ... .. . ... : ... .. . ... : ... .. . ... ...
ROW 04 : ... .. . ... ... ... : ... .. . ... ... ... : ... .. . ... : ... .. . ... : ... .. . ... ...
ROW 05 : ... .. . ... ... ... : ... .. . ... ... ... : ... .. . ... : ... .. . ... : ... .. . ... ...
ROW 06 : ... .. . ... ... ... : ... .. . ... ... ... : ... .. . ... : ... .. . ... : ... .. . ... ...
ROW 07 : ... .. . ... ... ... : ... .. . ... ... ... : ... .. . ... : ... .. . ... : ... .. . ... ...
ROW 08 : ... .. . ... ... ... : ... .. . ... ... ... : ... .. . ... : ... .. . ... : ... .. . ... ...
ROW 09 : ... .. . ... ... ... : ... .. . ... ... ... : ... .. . ... : ... .. . ... : ... .. . ... ...
ROW 0A : ... .. . ... ... ... : ... .. . ... ... ... : D-3 00 . ... : ... .. C ... : ... .. . ... ...
ROW 0B : ... .. . ... ... ... : ... .. . ... ... ... : ... .. . ... : ... .. 8 ... : ... .. . ... ...
ROW 0C : ... .. . ... ... ... : ... .. . ... ... ... : ... .. . ... : ... .. 4 ... : ... .. . ... ...
ROW 0D : ... .. . ... ... ... : ... .. . ... ... ... : ... .. . ... : ... .. 0 ... : ... .. . ... ...
ROW 0E : ... .. . ... ... ... : ... .. . ... ... ... : ... .. . ... : ... .. . ... : ... .. . ... ...
ROW 0F : ... .. . ... ... ... : ... .. . ... ... ... : ... .. . ... : ... .. . ... : ... .. . ... ...
ROW 10 : ... .. . ... ... ... : ... .. . ... ... ... : ... .. . ... : ... .. . ... : ... .. . ... ...
ROW 11 : ... .. . ... ... ... : ... .. . ... ... ... : --- .. . ... : ... .. . ... : ... .. . ... ...
ROW 12 : ... .. . ... ... ... : ... .. . ... ... ... : G-2 00 . ... : ... .. C ... : ... .. . ... ...
ROW 13 : ... .. . ... ... ... : ... .. . ... ... ... : ... .. . ... : ... .. 8 ... : ... .. . ... ...
ROW 14 : ... .. . ... ... ... : ... .. . ... ... ... : ... .. . ... : ... .. 4 ... : ... .. . ... ...
ROW 15 : ... .. . ... ... ... : ... .. . ... ... ... : ... .. . ... : ... .. 0 ... : ... .. . ... ...
ROW 16 : ... .. . ... ... ... : ... .. . ... ... ... : ... .. . ... : ... .. . ... : ... .. . ... ...
ROW 17 : ... .. . ... ... ... : ... .. . ... ... ... : ... .. . ... : ... .. . ... : ... .. . ... ...
ROW 18 : ... .. . ... ... ... : ... .. . ... ... ... : ... .. . ... : ... .. . ... : ... .. . ... ...
ROW 19 : ... .. . ... ... ... : ... .. . ... ... ... : --- .. . ... : ... .. . ... : ... .. . ... ...
ROW 1A : ... .. . ... ... ... : ... .. . ... ... ... : G-2 00 . ... : ... .. C ... : ... .. . ... ...
ROW 1B : ... .. . ... ... ... : ... .. . ... ... ... : ... .. . ... : ... .. 8 ... : ... .. . ... ...
ROW 1C : ... .. . ... ... ... : ... .. . ... ... ... : ... .. . ... : ... .. 4 ... : ... .. . ... ...
ROW 1D : ... .. . ... ... ... : ... .. . ... ... ... : ... .. . ... : ... .. 0 ... : ... .. . ... ...
ROW 1E : ... .. . ... ... ... : ... .. . ... ... ... : ... .. . ... : ... .. . ... : ... .. . ... ...
ROW 1F : ... .. . ... ... ... : ... .. . ... ... ... : ... .. . ... : ... .. . ... : ... .. . ... ...
ROW 20 : ... .. . ... ... ... : ... .. . ... ... ... : ... .. . ... : ... .. . ... : ... .. . ... ...
ROW 21 : ... .. . ... ... ... : ... .. . ... ... ... : --- .. . ... : ... .. . ... : ... .. . ... ...
ROW 22 : C-3 00 4 P80 ... ... : G-3 00 D P80 ... ... : G-2 00 . ... : ... .. C ... : ... .. . ... ...
ROW 23 : ... .. 5 ... ... ... : ... .. 9 ... ... ... : ... .. . ... : ... .. 8 ... : ... .. . ... ...
ROW 24 : ... .. 6 ... ... ... : ... .. 7 ... ... ... : ... .. . ... : ... .. 4 ... : ... .. . ... ...
ROW 25 : ... .. 7 ... ... ... : ... .. 6 ... ... ... : ... .. . ... : ... .. 0 ... : ... .. . ... ...
ROW 26 : ... .. 8 ... ... ... : ... .. 5 ... ... ... : ... .. . ... : ... .. . ... : ... .. . ... ...
ROW 27 : ... .. 7 ... ... ... : ... .. . ... ... ... : ... .. . ... : ... .. . ... : ... .. . ... ...
ROW 28 : ... .. 6 ... ... ... : ... .. . ... ... ... : ... .. . ... : ... .. . ... : ... .. . ... ...
ROW 29 : ... .. 5 ... ... ... : ... .. 4 ... ... ... : ... .. . ... : ... .. . ... : ... .. . ... ...
ROW 2A : ... .. 4 ... ... ... : ... .. . ... ... ... : ... .. . ... : ... .. . ... : ... .. . ... ...
ROW 2B : ... .. . ... ... ... : ... .. . ... ... ... : ... .. . ... : ... .. . ... : ... .. . ... ...
ROW 2C : ... .. . ... ... ... : ... .. . ... ... ... : ... .. . ... : ... .. . ... : ... .. . ... ...
ROW 2D : ... .. . ... ... ... : ... .. . ... ... ... : ... .. . ... : ... .. . ... : ... .. . ... ...
ROW 2E : ... .. . ... ... ... : ... .. . ... ... ... : ... .. . ... : ... .. . ... : ... .. . ... ...
ROW 2F : ... .. . ... ... ... : ... .. . ... ... ... : ... .. . ... : ... .. . ... : ... .. . ... ...
ROW 30 : ... .. . ... ... ... : ... .. . ... ... ... : ... .. . ... : ... .. . ... : ... .. . ... ...
ROW 31 : ... .. . ... ... ... : ... .. . ... ... ... : --- .. . ... : ... .. . ... : ... .. . ... ...
ROW 32 : ... .. . ... ... ... : ... .. . ... ... ... : ... .. . ... : ... .. . ... : ... .. . ... ...
ROW 33 : ... .. . ... ... ... : ... .. . ... ... ... : ... .. . ... : ... .. . ... : ... .. . ... ...
ROW 34 : ... .. . ... ... ... : ... .. . ... ... ... : ... .. . ... : ... .. . ... : ... .. . ... ...
ROW 35 : ... .. . ... ... ... : ... .. . ... ... ... : ... .. . ... : ... .. . ... : ... .. . ... ...
ROW 36 : ... .. . ... ... ... : ... .. . ... ... ... : ... .. . ... : ... .. . ... : ... .. . ... ...
ROW 37 : ... .. . ... ... ... : ... .. . ... ... ... : ... .. . ... : ... .. . ... : ... .. . ... ...
ROW 38 : ... .. . ... ... ... : ... .. . ... ... ... : ... .. . ... : ... .. . ... : ... .. . ... ...
ROW 39 : ... .. . ... ... ... : ... .. . ... ... ... : ... .. . ... : ... .. . ... : ... .. . ... ...
ROW 3A : ... .. . ... ... ... : ... .. . ... ... ... : D-3 00 . ... : ... .. C ... : ... .. . ... ...
ROW 3B : ... .. . ... ... ... : ... .. . ... ... ... : ... .. . ... : ... .. 8 ... : ... .. . ... ...
ROW 3C : ... .. . ... ... ... : ... .. . ... ... ... : ... .. . ... : ... .. 4 ... : ... .. . ... ...
ROW 3D : ... .. . ... ... ... : ... .. . ... ... ... : ... .. . ... : ... .. 0 ... : ... .. . ... ...
ROW 3E : ... .. . ... ... ... : ... .. . ... ... ... : ... .. . ... : ... .. . ... : ... .. . ... ...
ROW 3F : ... .. . ... ... ... : ... .. . ... ... ... : ... .. . ... : ... .. . ... : ... .. . ... ...
ROW 40 : ... .. . ... ... ... : ... .. . ... ... ... : ... .. . ... : ... .. . ... : ... .. . ... ...
ROW 41 : ... .. . ... ... ... : ... .. . ... ... ... : --- .. . ... : ... .. . ... : ... .. . ... ...
ROW 42 : ... .. . ... ... ... : ... .. . ... ... ... : G-2 00 . ... : ... .. . ... : ... .. . ... ...
ROW 43 : ... .. . ... ... ... : ... .. . ... ... ... : ... .. . ... : ... .. . ... : ... .. . ... ...
ROW 44 : ... .. . ... ... ... : ... .. . ... ... ... : ... .. . ... : ... .. . ... : ... .. . ... ...
ROW 45 : ... .. . ... ... ... : ... .. . ... ... ... : ... .. . ... : ... .. . ... : ... .. . ... ...
ROW 46 : ... .. . ... ... ... : ... .. . ... ... ... : ... .. . ... : ... .. . ... : ... .. . ... ...
ROW 47 : ... .. . ... ... ... : ... .. . ... ... ... : ... .. . ... : ... .. . ... : ... .. . ... ...
ROW 48 : ... .. . ... ... ... : ... .. . ... ... ... : ... .. . ... : ... .. . ... : ... .. . ... ...
ROW 49 : ... .. . ... ... ... : ... .. . ... ... ... : --- .. . ... : ... .. . ... : ... .. . ... ...
ROW 4A : ... .. . ... ... ... : ... .. . ... ... ... : G-2 00 . ... : ... .. . ... : ... .. . ... ...
ROW 4B : ... .. . ... ... ... : ... .. . ... ... ... : ... .. . ... : ... .. . ... : ... .. . ... ...
ROW 4C : ... .. . ... ... ... : ... .. . ... ... ... : ... .. . ... : ... .. . ... : ... .. . ... ...
ROW 4D : ... .. . ... ... ... : ... .. . ... ... ... : ... .. . ... : ... .. . ... : ... .. . ... ...
ROW 4E : ... .. . ... ... ... : ... .. . ... ... ... : ... .. . ... : ... .. . ... : ... .. . ... ...
ROW 4F : ... .. . ... ... ... : ... .. . ... ... ... : ... .. . ... : ... .. . ... : ... .. . ... ...
ROW 50 : ... .. . ... ... ... : ... .. . ... ... ... : ... .. . ... : ... .. . ... : ... .. . ... ...
ROW 51 : ... .. . ... ... ... : ... .. . ... ... ... : --- .. . ... : ... .. . ... : ... .. . ... ...
ROW 52 : D-3 00 4 P80 ... ... : ... .. . ... ... ... : G-2 00 . ... : ... .. C ... : ... .. . ... ...
ROW 53 : ... .. 5 ... ... ... : ... .. . ... ... ... : ... .. . ... : ... .. 8 ... : ... .. . ... ...
ROW 54 : ... .. 6 ... ... ... : ... .. . ... ... ... : ... .. . ... : ... .. 4 ... : ... .. . ... ...
ROW 55 : ... .. 7 ... ... ... : ... .. . ... ... ... : ... .. . ... : ... .. 0 ... : ... .. . ... ...
ROW 56 : ... .. 8 ... ... ... : ... .. . ... ... ... : ... .. . ... : ... .. . ... : ... .. . ... ...
ROW 57 : ... .. 7 ... ... ... : ... .. . ... ... ... : ... .. . ... : ... .. . ... : ... .. . ... ...
ROW 58 : ... .. 6 ... ... ... : ... .. . ... ... ... : ... .. . ... : ... .. . ... : ... .. . ... ...
ROW 59 : ... .. 5 ... ... ... : ... .. . ... ... ... : ... .. . ... : ... .. . ... : ... .. . ... ...
ROW 5A : ... .. 4 ... ... ... : ... .. . ... ... ... : ... .. . ... : ... .. . ... : ... .. . ... ...
ROW 5B : ... .. . ... ... ... : ... .. . ... ... ... : ... .. . ... : ... .. . ... : ... .. . ... ...
ROW 5C : ... .. . ... ... ... : ... .. . ... ... ... : ... .. . ... : ... .. . ... : ... .. . ... ...
ROW 5D : ... .. . ... ... ... : ... .. . ... ... ... : ... .. . ... : ... .. . ... : ... .. . ... ...
ROW 5E : ... .. . ... ... ... : ... .. . ... ... ... : ... .. . ... : ... .. . ... : ... .. . ... ...
ROW 5F : ... .. . ... ... ... : ... .. . ... ... ... : ... .. . ... : ... .. . ... : ... .. . ... ...
ROW 60 : ... .. . ... ... ... : ... .. . ... ... ... : ... .. . ... : ... .. . ... : ... .. . ... ...
ROW 61 : ... .. . ... ... ... : ... .. . ... ... ... : --- .. . ... : ... .. . ... : ... .. . ... ...
ROW 62 : ... .. . ... ... ... : ... .. . ... ... ... : ... .. . ... : ... .. . ... : ... .. . ... ...
ROW 63 : ... .. . ... ... ... : ... .. . ... ... ... : ... .. . ... : ... .. . ... : ... .. . ... ...
ROW 64 : ... .. . ... ... ... : ... .. . ... ... ... : ... .. . ... : ... .. . ... : ... .. . ... ...
ROW 65 : ... .. . ... ... ... : ... .. . ... ... ... : ... .. . ... : ... .. . ... : ... .. . ... ...
ROW 66 : ... .. . ... ... ... : ... .. . ... ... ... : ... .. . ... : ... .. . ... : ... .. . ... ...
ROW 67 : ... .. . ... ... ... : ... .. . ... ... ... : ... .. . ... : ... .. . ... : ... .. . ... ...
ROW 68 : ... .. . ... ... ... : ... .. . ... ... ... : ... .. . ... : ... .. . ... : ... .. . ... ...
ROW 69 : ... .. . ... ... ... : ... .. . ... ... ... : ... .. . ... : ... .. . ... : ... .. . ... ...
ROW 6A : ... .. . ... ... ... : ... .. . ... ... ... : D-3 00 . ... : ... .. C ... : ... .. . ... ...
ROW 6B : ... .. . ... ... ... : ... .. . ... ... ... : ... .. . ... : ... .. 8 ... : ... .. . ... ...
ROW 6C : ... .. . ... ... ... : ... .. . ... ... ... : ... .. . ... : ... .. 4 ... : ... .. . ... ...
ROW 6D : ... .. . ... ... ... : ... .. . ... ... ... : ... .. . ... : ... .. 0 ... : ... .. . ... ...
ROW 6E : ... .. . ... ... ... : ... .. . ... ... ... : ... .. . ... : ... .. . ... : ... .. . ... ...
ROW 6F : ... .. . ... ... ... : ... .. . ... ... ... : ... .. . ... : ... .. . ... : ... .. . ... ...
ROW 70 : ... .. . ... ... ... : ... .. . ... ... ... : ... .. . ... : ... .. . ... : ... .. . ... ...
ROW 71 : ... .. . ... ... ... : ... .. . ... ... ... : --- .. . ... : ... .. . ... : ... .. . ... ...
ROW 72 : ... .. . ... ... ... : ... .. . ... ... ... : G-2 00 . ... : ... .. C ... : ... .. . ... ...
ROW 73 : ... .. . ... ... ... : ... .. . ... ... ... : ... .. . ... : ... .. 8 ... : ... .. . ... ...
ROW 74 : ... .. . ... ... ... : ... .. . ... ... ... : ... .. . ... : ... .. 4 ... : ... .. . ... ...
ROW 75 : ... .. . ... ... ... : ... .. . ... ... ... : ... .. . ... : ... .. 0 ... : ... .. . ... ...
ROW 76 : ... .. . ... ... ... : ... .. . ... ... ... : ... .. . ... : ... .. . ... : ... .. . ... ...
ROW 77 : ... .. . ... ... ... : ... .. . ... ... ... : ... .. . ... : ... .. . ... : ... .. . ... ...
ROW 78 : ... .. . ... ... ... : ... .. . ... ... ... : ... .. . ... : ... .. . ... : ... .. . ... ...
ROW 79 : ... .. . ... ... ... : ... .. . ... ... ... : --- .. . ... : ... .. . ... : ... .. . ... ...
ROW 7A : ... .. . ... ... ... : ... .. . ... ... ... : G-2 00 . ... : ... .. C ... : ... .. . ... ...
ROW 7B : ... .. . ... ... ... : ... .. . ... ... ... : ... .. . ... : ... .. 8 ... : ... .. . ... ...
ROW 7C : ... .. . ... ... ... : ... .. . ... ... ... : ... .. . ... : ... .. 4 ... : ... .. . ... ...
ROW 7D : ... .. . ... ... ... : ... .. . ... ... ... : ... .. . ... : ... .. 0 ... : ... .. . ... ...
ROW 7E : ... .. . ... ... ... : ... .. . ... ... ... : ... .. . ... : ... .. . ... : ... .. . ... ...
ROW 7F : ... .. . ... ... ... : ... .. . ... ... ... : ... .. . ... : ... .. . ... : ... .. . ... ...

PATTERN 36
ROW 00 : ... .. . ... ... ... : ... .. . ... ... ... : ... .. . ... : ... .. . ... : ... .. . ... ...
ROW 01 : ... .. . ... ... ... : ... .. . ... ... ... : --- .. . ... : ... .. . ... : ... .. . ... ...
ROW 02 : E-3 00 4 P80 ... ... : C-4 00 D P81 ... ... : C-2 00 . P7F : ... .. C ... : ... .. . ... ...
ROW 03 : ... .. 5 ... ... ... : ... .. 9 ... ... ... : ... .. . ... : ... .. 8 ... : ... .. . ... ...
ROW 04 : ... .. 6 ... ... ... : ... .. 7 ... ... ... : ... .. . ... : ... .. 4 ... : ... .. . ... ...
ROW 05 : ... .. 7 ... ... ... : ... .. 6 ... ... ... : ... .. . ... : ... .. 0 ... : ... .. . ... ...
ROW 06 : ... .. 8 ... ... ... : ... .. 5 ... ... ... : ... .. . ... : ... .. . ... : ... .. . ... ...
ROW 07 : ... .. 7 ... ... ... : ... .. . ... ... ... : ... .. . ... : ... .. . ... : ... .. . ... ...
ROW 08 : ... .. 6 ... ... ... : ... .. . ... ... ... : ... .. . ... : ... .. . ... : ... .. . ... ...
ROW 09 : ... .. 5 ... ... ... : ... .. 4 ... ... ... : --- .. . ... : ... .. . ... : ... .. . ... ...
ROW 0A : ... .. 4 ... ... ... : ... .. . ... ... ... : G-2 00 . P80 : ... .. . ... : ... .. . ... ...
ROW 0B : ... .. . ... ... ... : ... .. . ... ... ... : ... .. . ... : ... .. . ... : ... .. . ... ...
ROW 0C : ... .. . ... ... ... : ... .. . ... ... ... : ... .. . ... : ... .. . ... : ... .. . ... ...
ROW 0D : ... .. . ... ... ... : ... .. . ... ... ... : ... .. . ... : ... .. . ... : ... .. . ... ...
ROW 0E : ... .. . ... ... ... : ... .. . ... ... ... : ... .. . ... : ... .. . ... : ... .. . ... ...
ROW 0F : ... .. . ... ... ... : ... .. . ... ... ... : ... .. . ... : ... .. . ... : ... .. . ... ...
ROW 10 : ... .. . ... ... ... : ... .. . ... ... ... : ... .. . ... : ... .. . ... : ... .. . ... ...
ROW 11 : ... .. . ... ... ... : ... .. . ... ... ... : --- .. . ... : ... .. . ... : ... .. . ... ...
ROW 12 : ... .. . ... ... ... : ... .. . ... ... ... : C-2 00 . P7F : ... .. . ... : ... .. . ... ...
ROW 13 : ... .. . ... ... ... : ... .. . ... ... ... : ... .. . ... : ... .. . ... : ... .. . ... ...
ROW 14 : ... .. . ... ... ... : ... .. . ... ... ... : ... .. . ... : ... .. . ... : ... .. . ... ...
ROW 15 : ... .. . ... ... ... : ... .. . ... ... ... : ... .. . ... : ... .. . ... : ... .. . ... ...
ROW 16 : ... .. . ... ... ... : ... .. . ... ... ... : ... .. . ... : ... .. . ... : ... .. . ... ...
ROW 17 : ... .. . ... ... ... : ... .. . ... ... ... : ... .. . ... : ... .. . ... : ... .. . ... ...
ROW 18 : ... .. . ... ... ... : ... .. . ... ... ... : ... .. . ... : ... .. . ... : ... .. . ... ...
ROW 19 : ... .. . ... ... ... : ... .. . ... ... ... : --- .. . ... : ... .. . ... : ... .. . ... ...
ROW 1A : ... .. . ... ... ... : ... .. . ... ... ... : C-2 00 . ... : ... .. C ... : ... .. . ... ...
ROW 1B : ... .. . ... ... ... : ... .. . ... ... ... : ... .. . ... : ... .. 8 ... : ... .. . ... ...
ROW 1C : ... .. . ... ... ... : ... .. . ... ... ... : ... .. . ... : ... .. 4 ... : ... .. . ... ...
ROW 1D : ... .. . ... ... ... : ... .. . ... ... ... : ... .. . ... : ... .. 0 ... : ... .. . ... ...
ROW 1E : ... .. . ... ... ... : ... .. . ... ... ... : ... .. . ... : ... .. . ... : ... .. . ... ...
ROW 1F : ... .. . ... ... ... : ... .. . ... ... ... : ... .. . ... : ... .. . ... : ... .. . ... ...
ROW 20 : ... .. . ... ... ... : ... .. . ... ... ... : ... .. . ... : ... .. . ... : ... .. . ... ...
ROW 21 : ... .. . ... ... ... : ... .. . ... ... ... : ... .. . ... : ... .. . ... : ... .. . ... ...
ROW 22 : ... .. . ... ... ... : ... .. . ... ... ... : ... .. . ... : ... .. . ... : ... .. . ... ...
ROW 23 : ... .. . ... ... ... : ... .. . ... ... ... : ... .. . ... : ... .. . ... : ... .. . ... ...
ROW 24 : ... .. . ... ... ... : ... .. . ... ... ... : ... .. . ... : ... .. . ... : ... .. . ... ...
ROW 25 : ... .. . ... ... ... : ... .. . ... ... ... : ... .. . ... : ... .. . ... : ... .. . ... ...
ROW 26 : ... .. . ... ... ... : ... .. . ... ... ... : ... .. . ... : ... .. . ... : ... .. . ... ...
ROW 27 : ... .. . ... ... ... : ... .. . ... ... ... : ... .. . ... : ... .. . ... : ... .. . ... ...
ROW 28 : ... .. . ... ... ... : ... .. . ... ... ... : ... .. . ... : ... .. . ... : ... .. . ... ...
ROW 29 : ... .. . ... ... ... : ... .. . ... ... ... : --- .. . ... : ... .. . ... : ... .. . ... ...
ROW 2A : ... .. . ... ... ... : ... .. . ... ... ... : ... .. . ... : ... .. . ... : ... .. . ... ...
ROW 2B : ... .. . ... ... ... : ... .. . ... ... ... : ... .. . ... : ... .. . ... : ... .. . ... ...
ROW 2C : ... .. . ... ... ... : ... .. . ... ... ... : ... .. . ... : ... .. . ... : ... .. . ... ...
ROW 2D : ... .. . ... ... ... : ... .. . ... ... ... : ... .. . ... : ... .. . ... : ... .. . ... ...
ROW 2E : ... .. . ... ... ... : ... .. . ... ... ... : ... .. . ... : ... .. . ... : ... .. . ... ...
ROW 2F : ... .. . ... ... ... : ... .. . ... ... ... : ... .. . ... : ... .. . ... : ... .. . ... ...
ROW 30 : ... .. . ... ... ... : ... .. . ... ... ... : ... .. . ... : ... .. . ... : ... .. . ... ...
ROW 31 : ... .. . ... ... ... : ... .. . ... ... ... : ... .. . ... : ... .. . ... : ... .. . ... ...
ROW 32 : ... .. . ... ... ... : ... .. . ... ... ... : C-2 00 . ... : ... .. C ... : ... .. . ... ...
ROW 33 : ... .. . ... ... ... : ... .. . ... ... ... : ... .. . ... : ... .. 8 ... : ... .. . ... ...
ROW 34 : ... .. . ... ... ... : ... .. . ... ... ... : ... .. . ... : ... .. 4 ... : ... .. . ... ...
ROW 35 : ... .. . ... ... ... : ... .. . ... ... ... : ... .. . ... : ... .. 0 ... : ... .. . ... ...
ROW 36 : ... .. . ... ... ... : ... .. . ... ... ... : ... .. . ... : ... .. . ... : ... .. . ... ...
ROW 37 : ... .. . ... ... ... : ... .. . ... ... ... : ... .. . ... : ... .. . ... : ... .. . ... ...
ROW 38 : ... .. . ... ... ... : ... .. . ... ... ... : ... .. . ... : ... .. . ... : ... .. . ... ...
ROW 39 : ... .. . ... ... ... : ... .. . ... ... ... : --- .. . ... : ... .. . ... : ... .. . ... ...
ROW 3A : ... .. . ... ... ... : ... .. . ... ... ... : G-2 00 . P80 : ... .. . ... : ... .. . ... ...
ROW 3B : ... .. . ... ... ... : ... .. . ... ... ... : ... .. . ... : ... .. . ... : ... .. . ... ...
ROW 3C : ... .. . ... ... ... : ... .. . ... ... ... : ... .. . ... : ... .. . ... : ... .. . ... ...
ROW 3D : ... .. . ... ... ... : ... .. . ... ... ... : ... .. . ... : ... .. . ... : ... .. . ... ...
ROW 3E : ... .. . ... ... ... : ... .. . ... ... ... : ... .. . ... : ... .. . ... : ... .. . ... ...
ROW 3F : ... .. . ... ... ... : ... .. . ... ... ... : ... .. . ... : ... .. . ... : ... .. . ... ...
ROW 40 : ... .. . ... ... ... : ... .. . ... ... ... : ... .. . ... : ... .. . ... : ... .. . ... ...
ROW 41 : ... .. . ... ... ... : ... .. . ... ... ... : --- .. . ... : ... .. . ... : ... .. . ... ...
ROW 42 : ... .. . ... ... ... : ... .. . ... ... ... : C-2 00 . P7F : ... .. . ... : ... .. . ... ...
ROW 43 : ... .. . ... ... ... : ... .. . ... ... ... : ... .. . ... : ... .. . ... : ... .. . ... ...
ROW 44 : ... .. . ... ... ... : ... .. . ... ... ... : ... .. . ... : ... .. . ... : ... .. . ... ...
ROW 45 : ... .. . ... ... ... : ... .. . ... ... ... : ... .. . ... : ... .. . ... : ... .. . ... ...
ROW 46 : ... .. . ... ... ... : ... .. . ... ... ... : ... .. . ... : ... .. . ... : ... .. . ... ...
ROW 47 : ... .. . ... ... ... : ... .. . ... ... ... : ... .. . ... : ... .. . ... : ... .. . ... ...
ROW 48 : ... .. . ... ... ... : ... .. . ... ... ... : ... .. . ... : ... .. . ... : ... .. . ... ...
ROW 49 : ... .. . ... ... ... : ... .. . ... ... ... : --- .. . ... : ... .. . ... : ... .. . ... ...
ROW 4A : C-3 00 4 P80 ... ... : G-3 00 D P80 ... ... : C-2 00 . ... : ... .. C ... : ... .. . ... ...
ROW 4B : ... .. 5 ... ... ... : ... .. 9 ... ... ... : ... .. . ... : ... .. 8 ... : ... .. . ... ...
ROW 4C : ... .. 6 ... ... ... : ... .. 7 ... ... ... : ... .. . ... : ... .. 4 ... : ... .. . ... ...
ROW 4D : ... .. 7 ... ... ... : ... .. 6 ... ... ... : ... .. . ... : ... .. 0 ... : ... .. . ... ...
ROW 4E : ... .. 8 ... ... ... : ... .. 5 ... ... ... : ... .. . ... : ... .. . ... : ... .. . ... ...
ROW 4F : ... .. 7 ... ... ... : ... .. . ... ... ... : ... .. . ... : ... .. . ... : ... .. . ... ...
ROW 50 : ... .. 6 ... ... ... : ... .. . ... ... ... : ... .. . ... : ... .. . ... : ... .. . ... ...
ROW 51 : ... .. 5 ... ... ... : ... .. 4 ... ... ... : ... .. . ... : ... .. . ... : ... .. . ... ...
ROW 52 : G-2 00 4 P80 ... ... : ... .. . ... ... ... : ... .. . ... : ... .. C ... : ... .. . ... ...
ROW 53 : ... .. 5 ... ... ... : ... .. . ... ... ... : ... .. . ... : ... .. 8 ... : ... .. . ... ...
ROW 54 : ... .. 6 ... ... ... : ... .. . ... ... ... : ... .. . ... : ... .. 4 ... : ... .. . ... ...
ROW 55 : ... .. 7 ... ... ... : ... .. . ... ... ... : ... .. . ... : ... .. 0 ... : ... .. . ... ...
ROW 56 : ... .. 8 ... ... ... : ... .. . ... ... ... : ... .. . ... : ... .. . ... : ... .. . ... ...
ROW 57 : ... .. 7 ... ... ... : ... .. . ... ... ... : ... .. . ... : ... .. . ... : ... .. . ... ...
ROW 58 : ... .. 6 ... ... ... : ... .. . ... ... ... : ... .. . ... : ... .. . ... : ... .. . ... ...
ROW 59 : ... .. 5 ... ... ... : ... .. . ... ... ... : --- .. . ... : ... .. . ... : ... .. . ... ...
ROW 5A : C-3 00 4 P80 ... ... : ... .. . ... ... ... : ... .. . ... : ... .. C ... : ... .. . ... ...
ROW 5B : ... .. 5 ... ... ... : ... .. . ... ... ... : ... .. . ... : ... .. 8 ... : ... .. . ... ...
ROW 5C : ... .. 6 ... ... ... : ... .. . ... ... ... : ... .. . ... : ... .. 4 ... : ... .. . ... ...
ROW 5D : ... .. 7 ... ... ... : ... .. . ... ... ... : ... .. . ... : ... .. 0 ... : ... .. . ... ...
ROW 5E : ... .. 8 ... ... ... : ... .. . ... ... ... : ... .. . ... : ... .. . ... : ... .. . ... ...
ROW 5F : ... .. 7 ... ... ... : ... .. . ... ... ... : ... .. . ... : ... .. . ... : ... .. . ... ...
ROW 60 : ... .. 6 ... ... ... : ... .. . ... ... ... : ... .. . ... : ... .. . ... : ... .. . ... ...
ROW 61 : ... .. 5 ... ... ... : ... .. . ... ... ... : ... .. . ... : ... .. . ... : ... .. . ... ...
ROW 62 : F-3 00 4 P80 ... ... : A#3 00 D P81 ... ... : C-2 00 . ... : ... .. C ... : ... .. . ... ...
ROW 63 : ... .. 5 ... ... ... : ... .. 9 ... ... ... : ... .. . ... : ... .. 8 ... : ... .. . ... ...
ROW 64 : ... .. 6 ... ... ... : ... .. 7 ... ... ... : ... .. . ... : ... .. 4 ... : ... .. . ... ...
ROW 65 : ... .. 7 ... ... ... : ... .. 6 ... ... ... : ... .. . ... : ... .. 0 ... : ... .. . ... ...
ROW 66 : ... .. 8 ... ... ... : ... .. 5 ... ... ... : ... .. . ... : ... .. . ... : ... .. . ... ...
ROW 67 : ... .. 7 ... ... ... : ... .. . ... ... ... : ... .. . ... : ... .. . ... : ... .. . ... ...
ROW 68 : ... .. 6 ... ... ... : ... .. . ... ... ... : ... .. . ... : ... .. . ... : ... .. . ... ...
ROW 69 : ... .. 5 ... ... ... : ... .. 4 ... ... ... : --- .. . ... : ... .. . ... : ... .. . ... ...
ROW 6A : ... .. 4 ... ... ... : ... .. . ... ... ... : G-2 00 . P80 : ... .. . ... : ... .. . ... ...
ROW 6B : ... .. . ... ... ... : ... .. . ... ... ... : ... .. . ... : ... .. . ... : ... .. . ... ...
ROW 6C : ... .. . ... ... ... : ... .. . ... ... ... : ... .. . ... : ... .. . ... : ... .. . ... ...
ROW 6D : ... .. . ... ... ... : ... .. . ... ... ... : ... .. . ... : ... .. . ... : ... .. . ... ...
ROW 6E : ... .. . ... ... ... : ... .. . ... ... ... : ... .. . ... : ... .. . ... : ... .. . ... ...
ROW 6F : ... .. . ... ... ... : ... .. . ... ... ... : ... .. . ... : ... .. . ... : ... .. . ... ...
ROW 70 : ... .. . ... ... ... : ... .. . ... ... ... : ... .. . ... : ... .. . ... : ... .. . ... ...
ROW 71 : ... .. . ... ... ... : ... .. . ... ... ... : --- .. . ... : ... .. . ... : ... .. . ... ...
ROW 72 : ... .. . ... ... ... : ... .. . ... ... ... : C-2 00 . P7F : ... .. . ... : ... .. . ... ...
ROW 73 : ... .. . ... ... ... : ... .. . ... ... ... : ... .. . ... : ... .. . ... : ... .. . ... ...
ROW 74 : ... .. . ... ... ... : ... .. . ... ... ... : ... .. . ... : ... .. . ... : ... .. . ... ...
ROW 75 : ... .. . ... ... ... : ... .. . ... ... ... : ... .. . ... : ... .. . ... : ... .. . ... ...
ROW 76 : ... .. . ... ... ... : ... .. . ... ... ... : ... .. . ... : ... .. . ... : ... .. . ... ...
ROW 77 : ... .. . ... ... ... : ... .. . ... ... ... : ... .. . ... : ... .. . ... : ... .. . ... ...
ROW 78 : ... .. . ... ... ... : ... .. . ... ... ... : ... .. . ... : ... .. . ... : ... .. . ... ...
ROW 79 : ... .. . ... ... ... : ... .. . ... ... ... : --- .. . ... : ... .. . ... : ... .. . ... ...
ROW 7A : ... .. . ... ... ... : ... .. . ... ... ... : C-2 00 . ... : ... .. C ... : ... .. . ... ...
ROW 7B : ... .. . ... ... ... : ... .. . ... ... ... : ... .. . ... : ... .. 8 ... : ... .. . ... ...
ROW 7C : ... .. . ... ... ... : ... .. . ... ... ... : ... .. . ... : ... .. 4 ... : ... .. . ... ...
ROW 7D : ... .. . ... ... ... : ... .. . ... ... ... : ... .. . ... : ... .. 0 ... : ... .. . ... ...
ROW 7E : ... .. . ... ... ... : ... .. . ... ... ... : ... .. . ... : ... .. . ... : ... .. . ... ...
ROW 7F : ... .. . ... ... ... : ... .. . ... ... ... : ... .. . ... : ... .. . ... : ... .. . ... ...

PATTERN 37
ROW 00 : ... .. . ... ... ... : ... .. . ... ... ... : ... .. . ... : ... .. . ... : ... .. . ... ...
ROW 01 : ... .. . ... ... ... : ... .. . ... ... ... : ... .. . ... : ... .. . ... : ... .. . ... ...
ROW 02 : ... .. . ... ... ... : ... .. . ... ... ... : ... .. . ... : ... .. . ... : ... .. . ... ...
ROW 03 : ... .. . ... ... ... : ... .. . ... ... ... : ... .. . ... : ... .. . ... : ... .. . ... ...
ROW 04 : ... .. . ... ... ... : ... .. . ... ... ... : ... .. . ... : ... .. . ... : ... .. . ... ...
ROW 05 : ... .. . ... ... ... : ... .. . ... ... ... : ... .. . ... : ... .. . ... : ... .. . ... ...
ROW 06 : ... .. . ... ... ... : ... .. . ... ... ... : ... .. . ... : ... .. . ... : ... .. . ... ...
ROW 07 : ... .. . ... ... ... : ... .. . ... ... ... : ... .. . ... : ... .. . ... : ... .. . ... ...
ROW 08 : ... .. . ... ... ... : ... .. . ... ... ... : ... .. . ... : ... .. . ... : ... .. . ... ...
ROW 09 : ... .. . ... ... ... : ... .. . ... ... ... : --- .. . ... : ... .. . ... : ... .. . ... ...
ROW 0A : ... .. . ... ... ... : ... .. . ... ... ... : ... .. . ... : ... .. . ... : ... .. . ... ...
ROW 0B : ... .. . ... ... ... : ... .. . ... ... ... : ... .. . ... : ... .. . ... : ... .. . ... ...
ROW 0C : ... .. . ... ... ... : ... .. . ... ... ... : ... .. . ... : ... .. . ... : ... .. . ... ...
ROW 0D : ... .. . ... ... ... : ... .. . ... ... ... : ... .. . ... : ... .. . ... : ... .. . ... ...
ROW 0E : ... .. . ... ... ... : ... .. . ... ... ... : ... .. . ... : ... .. . ... : ... .. . ... ...
ROW 0F : ... .. . ... ... ... : ... .. . ... ... ... : ... .. . ... : ... .. . ... : ... .. . ... ...
ROW 10 : ... .. . ... ... ... : ... .. . ... ... ... : ... .. . ... : ... .. . ... : ... .. . ... ...
ROW 11 : ... .. . ... ... ... : ... .. . ... ... ... : ... .. . ... : ... .. . ... : ... .. . ... ...
ROW 12 : D-3 00 4 P80 ... ... : ... .. . ... ... ... : C-2 00 . ... : ... .. C ... : ... .. . ... ...
ROW 13 : ... .. 5 ... ... ... : ... .. . ... ... ... : ... .. . ... : ... .. 8 ... : ... .. . ... ...
ROW 14 : ... .. 6 ... ... ... : ... .. . ... ... ... : ... .. . ... : ... .. 4 ... : ... .. . ... ...
ROW 15 : ... .. 7 ... ... ... : ... .. . ... ... ... : ... .. . ... : ... .. 0 ... : ... .. . ... ...
ROW 16 : ... .. 8 ... ... ... : ... .. . ... ... ... : ... .. . ... : ... .. . ... : ... .. . ... ...
ROW 17 : ... .. 7 ... ... ... : ... .. . ... ... ... : ... .. . ... : ... .. . ... : ... .. . ... ...
ROW 18 : ... .. 6 ... ... ... : ... .. . ... ... ... : ... .. . ... : ... .. . ... : ... .. . ... ...
ROW 19 : ... .. 5 ... ... ... : ... .. . ... ... ... : --- .. . ... : ... .. . ... : ... .. . ... ...
ROW 1A : ... .. 4 ... ... ... : ... .. . ... ... ... : G-2 00 . P80 : ... .. . ... : ... .. . ... ...
ROW 1B : ... .. . ... ... ... : ... .. . ... ... ... : ... .. . ... : ... .. . ... : ... .. . ... ...
ROW 1C : ... .. . ... ... ... : ... .. . ... ... ... : ... .. . ... : ... .. . ... : ... .. . ... ...
ROW 1D : ... .. . ... ... ... : ... .. . ... ... ... : ... .. . ... : ... .. . ... : ... .. . ... ...
ROW 1E : ... .. . ... ... ... : ... .. . ... ... ... : ... .. . ... : ... .. . ... : ... .. . ... ...
ROW 1F : ... .. . ... ... ... : ... .. . ... ... ... : ... .. . ... : ... .. . ... : ... .. . ... ...
ROW 20 : ... .. . ... ... ... : ... .. . ... ... ... : ... .. . ... : ... .. . ... : ... .. . ... ...
ROW 21 : ... .. . ... ... ... : ... .. . ... ... ... : --- .. . ... : ... .. . ... : ... .. . ... ...
ROW 22 : ... .. . ... ... ... : ... .. . ... ... ... : C-2 00 . P7F : ... .. . ... : ... .. . ... ...
ROW 23 : ... .. . ... ... ... : ... .. . ... ... ... : ... .. . ... : ... .. . ... : ... .. . ... ...
ROW 24 : ... .. . ... ... ... : ... .. . ... ... ... : ... .. . ... : ... .. . ... : ... .. . ... ...
ROW 25 : ... .. . ... ... ... : ... .. . ... ... ... : ... .. . ... : ... .. . ... : ... .. . ... ...
ROW 26 : ... .. . ... ... ... : ... .. . ... ... ... : ... .. . ... : ... .. . ... : ... .. . ... ...
ROW 27 : ... .. . ... ... ... : ... .. . ... ... ... : ... .. . ... : ... .. . ... : ... .. . ... ...
ROW 28 : ... .. . ... ... ... : ... .. . ... ... ... : ... .. . ... : ... .. . ... : ... .. . ... ...
ROW 29 : ... .. . ... ... ... : ... .. . ... ... ... : --- .. . ... : ... .. . ... : ... .. . ... ...
ROW 2A : ... .. . ... ... ... : A-3 00 D P80 ... ... : C-2 00 . ... : ... .. C ... : ... .. . ... ...
ROW 2B : ... .. . ... ... ... : ... .. 9 ... ... ... : ... .. . ... : ... .. 8 ... : ... .. . ... ...
ROW 2C : ... .. . ... ... ... : ... .. 7 ... ... ... : ... .. . ... : ... .. 4 ... : ... .. . ... ...
ROW 2D : ... .. . ... ... ... : ... .. 6 ... ... ... : ... .. . ... : ... .. 0 ... : ... .. . ... ...
ROW 2E : ... .. . ... ... ... : ... .. 5 ... ... ... : ... .. . ... : ... .. . ... : ... .. . ... ...
ROW 2F : ... .. . ... ... ... : ... .. . ... ... ... : ... .. . ... : ... .. . ... : ... .. . ... ...
ROW 30 : ... .. . ... ... ... : A#3 00 D P81 ... ... : ... .. . ... : ... .. . ... : ... .. . ... ...
ROW 31 : ... .. . ... ... ... : ... .. 9 ... ... ... : ... .. . ... : ... .. . ... : ... .. . ... ...
ROW 32 : ... .. . ... ... ... : ... .. 7 ... ... ... : ... .. . ... : ... .. C ... : ... .. . ... ...
ROW 33 : ... .. . ... ... ... : ... .. 6 ... ... ... : ... .. . ... : ... .. 8 ... : ... .. . ... ...
ROW 34 : ... .. . ... ... ... : ... .. 5 ... ... ... : ... .. . ... : ... .. 4 ... : ... .. . ... ...
ROW 35 : ... .. . ... ... ... : ... .. . ... ... ... : ... .. . ... : ... .. 0 ... : ... .. . ... ...
ROW 36 : ... .. . ... ... ... : A-3 00 D P80 ... ... : ... .. . ... : ... .. . ... : ... .. . ... ...
ROW 37 : ... .. . ... ... ... : ... .. 9 ... ... ... : ... .. . ... : ... .. . ... : ... .. . ... ...
ROW 38 : ... .. . ... ... ... : ... .. 7 ... ... ... : ... .. . ... : ... .. . ... : ... .. . ... ...
ROW 39 : ... .. . ... ... ... : ... .. 6 ... ... ... : --- .. . ... : ... .. . ... : ... .. . ... ...
ROW 3A : ... .. . ... ... ... : ... .. 5 ... ... ... : ... .. . ... : ... .. C ... : ... .. . ... ...
ROW 3B : ... .. . ... ... ... : ... .. . ... ... ... : ... .. . ... : ... .. 8 ... : ... .. . ... ...
ROW 3C : ... .. . ... ... ... : F-3 00 D P80 ... ... : ... .. . ... : ... .. 4 ... : ... .. . ... ...
ROW 3D : ... .. . ... ... ... : ... .. 9 ... ... ... : ... .. . ... : ... .. 0 ... : ... .. . ... ...
ROW 3E : ... .. . ... ... ... : ... .. 7 ... ... ... : ... .. . ... : ... .. . ... : ... .. . ... ...
ROW 3F : ... .. . ... ... ... : ... .. 6 ... ... ... : ... .. . ... : ... .. . ... : ... .. . ... ...
ROW 40 : ... .. . ... ... ... : ... .. 5 ... ... ... : ... .. . ... : ... .. . ... : ... .. . ... ...
ROW 41 : ... .. . ... ... ... : ... .. . ... ... ... : ... .. . ... : ... .. . ... : ... .. . ... ...
ROW 42 : E-3 00 4 P80 ... ... : C-4 00 D P81 ... ... : C-2 00 . ... : ... .. C ... : ... .. . ... ...
ROW 43 : ... .. 5 ... ... ... : ... .. 9 ... ... ... : ... .. . ... : ... .. 8 ... : ... .. . ... ...
ROW 44 : ... .. 6 ... ... ... : ... .. 7 ... ... ... : ... .. . ... : ... .. 4 ... : ... .. . ... ...
ROW 45 : ... .. 7 ... ... ... : ... .. 6 ... ... ... : ... .. . ... : ... .. 0 ... : ... .. . ... ...
ROW 46 : ... .. 8 ... ... ... : ... .. 5 ... ... ... : ... .. . ... : ... .. . ... : ... .. . ... ...
ROW 47 : ... .. 7 ... ... ... : ... .. . ... ... ... : ... .. . ... : ... .. . ... : ... .. . ... ...
ROW 48 : ... .. 6 ... ... ... : ... .. . ... ... ... : ... .. . ... : ... .. . ... : ... .. . ... ...
ROW 49 : ... .. 5 ... ... ... : ... .. 4 ... ... ... : --- .. . ... : ... .. . ... : ... .. . ... ...
ROW 4A : ... .. 4 ... ... ... : ... .. . ... ... ... : G-2 00 . P80 : ... .. . ... : ... .. . ... ...
ROW 4B : ... .. . ... ... ... : ... .. . ... ... ... : ... .. . ... : ... .. . ... : ... .. . ... ...
ROW 4C : ... .. . ... ... ... : ... .. . ... ... ... : ... .. . ... : ... .. . ... : ... .. . ... ...
ROW 4D : ... .. . ... ... ... : ... .. . ... ... ... : ... .. . ... : ... .. . ... : ... .. . ... ...
ROW 4E : ... .. . ... ... ... : ... .. . ... ... ... : ... .. . ... : ... .. . ... : ... .. . ... ...
ROW 4F : ... .. . ... ... ... : ... .. . ... ... ... : ... .. . ... : ... .. . ... : ... .. . ... ...
ROW 50 : ... .. . ... ... ... : ... .. . ... ... ... : ... .. . ... : ... .. . ... : ... .. . ... ...
ROW 51 : ... .. . ... ... ... : ... .. . ... ... ... : --- .. . ... : ... .. . ... : ... .. . ... ...
ROW 52 : ... .. . ... ... ... : ... .. . ... ... ... : C-2 00 . P7F : ... .. . ... : ... .. . ... ...
ROW 53 : ... .. . ... ... ... : ... .. . ... ... ... : ... .. . ... : ... .. . ... : ... .. . ... ...
ROW 54 : ... .. . ... ... ... : ... .. . ... ... ... : ... .. . ... : ... .. . ... : ... .. . ... ...
ROW 55 : ... .. . ... ... ... : ... .. . ... ... ... : ... .. . ... : ... .. . ... : ... .. . ... ...
ROW 56 : ... .. . ... ... ... : ... .. . ... ... ... : ... .. . ... : ... .. . ... : ... .. . ... ...
ROW 57 : ... .. . ... ... ... : ... .. . ... ... ... : ... .. . ... : ... .. . ... : ... .. . ... ...
ROW 58 : ... .. . ... ... ... : ... .. . ... ... ... : ... .. . ... : ... .. . ... : ... .. . ... ...
ROW 59 : ... .. . ... ... ... : ... .. . ... ... ... : --- .. . ... : ... .. . ... : ... .. . ... ...
ROW 5A : ... .. . ... ... ... : ... .. . ... ... ... : C-2 00 . ... : ... .. C ... : ... .. . ... ...
ROW 5B : ... .. . ... ... ... : ... .. . ... ... ... : ... .. . ... : ... .. 8 ... : ... .. . ... ...
ROW 5C : ... .. . ... ... ... : ... .. . ... ... ... : ... .. . ... : ... .. 4 ... : ... .. . ... ...
ROW 5D : ... .. . ... ... ... : ... .. . ... ... ... : ... .. . ... : ... .. 0 ... : ... .. . ... ...
ROW 5E : ... .. . ... ... ... : ... .. . ... ... ... : ... .. . ... : ... .. . ... : ... .. . ... ...
ROW 5F : ... .. . ... ... ... : ... .. . ... ... ... : ... .. . ... : ... .. . ... : ... .. . ... ...
ROW 60 : ... .. . ... ... ... : ... .. . ... ... ... : ... .. . ... : ... .. . ... : ... .. . ... ...
ROW 61 : ... .. . ... ... ... : ... .. . ... ... ... : ... .. . ... : ... .. . ... : ... .. . ... ...
ROW 62 : ... .. . ... ... ... : ... .. . ... ... ... : ... .. . ... : ... .. . ... : ... .. . ... ...
ROW 63 : ... .. . ... ... ... : ... .. . ... ... ... : ... .. . ... : ... .. . ... : ... .. . ... ...
ROW 64 : ... .. . ... ... ... : ... .. . ... ... ... : ... .. . ... : ... .. . ... : ... .. . ... ...
ROW 65 : ... .. . ... ... ... : ... .. . ... ... ... : ... .. . ... : ... .. . ... : ... .. . ... ...
ROW 66 : ... .. . ... ... ... : ... .. . ... ... ... : ... .. . ... : ... .. . ... : ... .. . ... ...
ROW 67 : ... .. . ... ... ... : ... .. . ... ... ... : ... .. . ... : ... .. . ... : ... .. . ... ...
ROW 68 : ... .. . ... ... ... : ... .. . ... ... ... : ... .. . ... : ... .. . ... : ... .. . ... ...
ROW 69 : ... .. . ... ... ... : ... .. . ... ... ... : --- .. . ... : ... .. . ... : ... .. . ... ...
ROW 6A : ... .. . ... ... ... : ... .. . ... ... ... : ... .. . ... : ... .. . ... : ... .. . ... ...
ROW 6B : ... .. . ... ... ... : ... .. . ... ... ... : ... .. . ... : ... .. . ... : ... .. . ... ...
ROW 6C : ... .. . ... ... ... : ... .. . ... ... ... : ... .. . ... : ... .. . ... : ... .. . ... ...
ROW 6D : ... .. . ... ... ... : ... .. . ... ... ... : ... .. . ... : ... .. . ... : ... .. . ... ...
ROW 6E : ... .. . ... ... ... : ... .. . ... ... ... : ... .. . ... : ... .. . ... : ... .. . ... ...
ROW 6F : ... .. . ... ... ... : ... .. . ... ... ... : ... .. . ... : ... .. . ... : ... .. . ... ...
ROW 70 : ... .. . ... ... ... : ... .. . ... ... ... : ... .. . ... : ... .. . ... : ... .. . ... ...
ROW 71 : ... .. . ... ... ... : ... .. . ... ... ... : ... .. . ... : ... .. . ... : ... .. . ... ...
ROW 72 : ... .. . ... ... ... : ... .. . ... ... ... : C-2 00 . ... : ... .. C ... : ... .. . ... ...
ROW 73 : ... .. . ... ... ... : ... .. . ... ... ... : ... .. . ... : ... .. 8 ... : ... .. . ... ...
ROW 74 : ... .. . ... ... ... : ... .. . ... ... ... : ... .. . ... : ... .. 4 ... : ... .. . ... ...
ROW 75 : ... .. . ... ... ... : ... .. . ... ... ... : ... .. . ... : ... .. 0 ... : ... .. . ... ...
ROW 76 : ... .. . ... ... ... : ... .. . ... ... ... : ... .. . ... : ... .. . ... : ... .. . ... ...
ROW 77 : ... .. . ... ... ... : ... .. . ... ... ... : ... .. . ... : ... .. . ... : ... .. . ... ...
ROW 78 : ... .. . ... ... ... : ... .. . ... ... ... : ... .. . ... : ... .. . ... : ... .. . ... ...
ROW 79 : ... .. . ... ... ... : ... .. . ... ... ... : --- .. . ... : ... .. . ... : ... .. . ... ...
ROW 7A : ... .. . ... ... ... : ... .. . ... ... ... : G-2 00 . P80 : ... .. . ... : ... .. . ... ...
ROW 7B : ... .. . ... ... ... : ... .. . ... ... ... : ... .. . ... : ... .. . ... : ... .. . ... ...
ROW 7C : ... .. . ... ... ... : ... .. . ... ... ... : ... .. . ... : ... .. . ... : ... .. . ... ...
ROW 7D : ... .. . ... ... ... : ... .. . ... ... ... : ... .. . ... : ... .. . ... : ... .. . ... ...
ROW 7E : ... .. . ... ... ... : ... .. . ... ... ... : ... .. . ... : ... .. . ... : ... .. . ... ...
ROW 7F : ... .. . ... ... ... : ... .. . ... ... ... : ... .. . ... : ... .. . ... : ... .. . ... ...

PATTERN 38
ROW 00 : ... .. . ... ... ... : ... .. . ... ... ... : ... .. . ... : ... .. . ... : ... .. . ... ...
ROW 01 : ... .. . ... ... ... : ... .. . ... ... ... : --- .. . ... : ... .. . ... : ... .. . ... ...
ROW 02 : ... .. . ... ... ... : ... .. . ... ... ... : C-2 00 . P7F : ... .. . ... : ... .. . ... ...
ROW 03 : ... .. . ... ... ... : ... .. . ... ... ... : ... .. . ... : ... .. . ... : ... .. . ... ...
ROW 04 : ... .. . ... ... ... : ... .. . ... ... ... : ... .. . ... : ... .. . ... : ... .. . ... ...
ROW 05 : ... .. . ... ... ... : ... .. . ... ... ... : ... .. . ... : ... .. . ... : ... .. . ... ...
ROW 06 : ... .. . ... ... ... : ... .. . ... ... ... : ... .. . ... : ... .. . ... : ... .. . ... ...
ROW 07 : ... .. . ... ... ... : ... .. . ... ... ... : ... .. . ... : ... .. . ... : ... .. . ... ...
ROW 08 : ... .. . ... ... ... : ... .. . ... ... ... : ... .. . ... : ... .. . ... : ... .. . ... ...
ROW 09 : ... .. . ... ... ... : ... .. . ... ... ... : --- .. . ... : ... .. . ... : ... .. . ... ...
ROW 0A : C-3 00 4 P80 ... ... : G-3 00 D P80 ... ... : C-2 00 . ... : ... .. C ... : ... .. . ... ...
ROW 0B : ... .. 5 ... ... ... : ... .. 9 ... ... ... : ... .. . ... : ... .. 8 ... : ... .. . ... ...
ROW 0C : ... .. 6 ... ... ... : ... .. 7 ... ... ... : ... .. . ... : ... .. 4 ... : ... .. . ... ...
ROW 0D : ... .. 7 ... ... ... : ... .. 6 ... ... ... : ... .. . ... : ... .. 0 ... : ... .. . ... ...
ROW 0E : ... .. 8 ... ... ... : ... .. 5 ... ... ... : ... .. . ... : ... .. . ... : ... .. . ... ...
ROW 0F : ... .. 7 ... ... ... : ... .. . ... ... ... : ... .. . ... : ... .. . ... : ... .. . ... ...
ROW 10 : ... .. 6 ... ... ... : ... .. . ... ... ... : ... .. . ... : ... .. . ... : ... .. . ... ...
ROW 11 : ... .. 5 ... ... ... : ... .. 4 ... ... ... : ... .. . ... : ... .. . ... : ... .. . ... ...
ROW 12 : G-2 00 4 P80 ... ... : ... .. . ... ... ... : ... .. . ... : ... .. C ... : ... .. . ... ...
ROW 13 : ... .. 5 ... ... ... : ... .. . ... ... ... : ... .. . ... : ... .. 8 ... : ... .. . ... ...
ROW 14 : ... .. 6 ... ... ... : ... .. . ... ... ... : ... .. . ... : ... .. 4 ... : ... .. . ... ...
ROW 15 : ... .. 7 ... ... ... : ... .. . ... ... ... : ... .. . ... : ... .. 0 ... : ... .. . ... ...
ROW 16 : ... .. 8 ... ... ... : ... .. . ... ... ... : ... .. . ... : ... .. . ... : ... .. . ... ...
ROW 17 : ... .. 7 ... ... ... : ... .. . ... ... ... : ... .. . ... : ... .. . ... : ... .. . ... ...
ROW 18 : ... .. 6 ... ... ... : ... .. . ... ... ... : ... .. . ... : ... .. . ... : ... .. . ... ...
ROW 19 : ... .. 5 ... ... ... : ... .. . ... ... ... : --- .. . ... : ... .. . ... : ... .. . ... ...
ROW 1A : C-3 00 4 P80 ... ... : ... .. . ... ... ... : ... .. . ... : ... .. C ... : ... .. . ... ...
ROW 1B : ... .. 5 ... ... ... : ... .. . ... ... ... : ... .. . ... : ... .. 8 ... : ... .. . ... ...
ROW 1C : ... .. 6 ... ... ... : ... .. . ... ... ... : ... .. . ... : ... .. 4 ... : ... .. . ... ...
ROW 1D : ... .. 7 ... ... ... : ... .. . ... ... ... : ... .. . ... : ... .. 0 ... : ... .. . ... ...
ROW 1E : ... .. 8 ... ... ... : ... .. . ... ... ... : ... .. . ... : ... .. . ... : ... .. . ... ...
ROW 1F : ... .. . ... ... ... : ... .. . ... ... ... : ... .. . ... : ... .. . ... : ... .. . ... ...
ROW 20 : ... .. . ... ... ... : ... .. . ... ... ... : ... .. . ... : ... .. . ... : ... .. . ... ...
ROW 21 : ... .. . ... ... ... : ... .. . ... ... ... : ... .. . ... : ... .. . ... : ... .. . ... ...
ROW 22 : ... .. . ... ... ... : ... .. . ... ... ... : ... .. . ... : ... .. . ... : ... .. . ... ...
ROW 23 : ... .. . ... ... ... : ... .. . ... ... ... : ... .. . ... : ... .. . ... : ... .. . ... ...
ROW 24 : ... .. . ... ... ... : ... .. . ... ... ... : ... .. . ... : ... .. . ... : ... .. . ... ...
ROW 25 : ... .. . ... ... ... : ... .. . ... ... ... : ... .. . ... : ... .. . ... : ... .. . ... ...
ROW 26 : ... .. . ... ... ... : ... .. . ... ... ... : ... .. . ... : ... .. . ... : ... .. . ... ...
ROW 27 : ... .. . ... ... ... : ... .. . ... ... ... : ... .. . ... : ... .. . ... : ... .. . ... ...
ROW 28 : ... .. . ... ... ... : ... .. . ... ... ... : ... .. . ... : ... .. . ... : ... .. . ... ...
ROW 29 : ... .. . ... ... ... : ... .. . ... ... ... : ... .. . ... : ... .. . ... : ... .. . ... ...
ROW 2A : ... .. . ... ... ... : ... .. . ... ... ... : ... .. . ... : ... .. . ... : ... .. . ... ...
ROW 2B : ... .. . ... ... ... : ... .. . ... ... ... : ... .. . ... : ... .. . ... : ... .. . ... ...
ROW 2C : ... .. . ... ... ... : ... .. . ... ... ... : ... .. . ... : ... .. . ... : ... .. . ... ...
ROW 2D : ... .. . ... ... ... : ... .. . ... ... ... : ... .. . ... : ... .. . ... : ... .. . ... ...
ROW 2E : ... .. . ... ... ... : ... .. . ... ... ... : ... .. . ... : ... .. . ... : ... .. . ... ...
ROW 2F : ... .. . ... ... ... : ... .. . ... ... ... : ... .. . ... : ... .. . ... : ... .. . ... ...
ROW 30 : ... .. . ... ... ... : ... .. . ... ... ... : ... .. . ... : ... .. . ... : ... .. . ... ...
ROW 31 : ... .. . ... ... ... : ... .. . ... ... ... : ... .. . ... : ... .. . ... : ... .. . ... ...
ROW 32 : ... .. . ... ... ... : ... .. . ... ... ... : ... .. . ... : ... .. . ... : ... .. . ... ...
ROW 33 : ... .. . ... ... ... : ... .. . ... ... ... : ... .. . ... : ... .. . ... : ... .. . ... ...
ROW 34 : ... .. . ... ... ... : ... .. . ... ... ... : ... .. . ... : ... .. . ... : ... .. . ... ...
ROW 35 : ... .. . ... ... ... : ... .. . ... ... ... : ... .. . ... : ... .. . ... : ... .. . ... ...
ROW 36 : ... .. . ... ... ... : ... .. . ... ... ... : ... .. . ... : ... .. . ... : ... .. . ... ...
ROW 37 : ... .. . ... ... ... : ... .. . ... ... ... : ... .. . ... : ... .. . ... : ... .. . ... ...
ROW 38 : ... .. . ... ... ... : ... .. . ... ... ... : ... .. . ... : ... .. . ... : ... .. . ... ...
ROW 39 : ... .. . ... ... ... : ... .. . ... ... ... : ... .. . ... : ... .. . ... : ... .. . ... ...
ROW 3A : ... .. . ... ... ... : ... .. . ... ... ... : ... .. . ... : ... .. . ... : ... .. . ... ...
ROW 3B : ... .. . ... ... ... : ... .. . ... ... ... : ... .. . ... : ... .. . ... : ... .. . ... ...
ROW 3C : ... .. . ... ... ... : ... .. . ... ... ... : ... .. . ... : ... .. . ... : ... .. . ... ...
ROW 3D : ... .. . ... ... ... : ... .. . ... ... ... : ... .. . ... : ... .. . ... : ... .. . ... ...
ROW 3E : ... .. . ... ... ... : ... .. . ... ... ... : ... .. . ... : ... .. . ... : ... .. . ... ...
ROW 3F : ... .. . ... ... ... : ... .. . ... ... ... : ... .. . ... : ... .. . ... : ... .. . ... ...
ROW 40 : ... .. . ... ... ... : ... .. . ... ... ... : ... .. . ... : ... .. . ... : ... .. . ... ...
ROW 41 : ... .. . ... ... ... : ... .. . ... ... ... : ... .. . ... : ... .. . ... : ... .. . ... ...
ROW 42 : ... .. . ... ... ... : ... .. . ... ... ... : ... .. . ... : ... .. . ... : ... .. . ... ...
ROW 43 : ... .. . ... ... ... : ... .. . ... ... ... : ... .. . ... : ... .. . ... : ... .. . ... ...
ROW 44 : ... .. . ... ... ... : ... .. . ... ... ... : ... .. . ... : ... .. . ... : ... .. . ... ...
ROW 45 : ... .. . ... ... ... : ... .. . ... ... ... : ... .. . ... : ... .. . ... : ... .. . ... ...
ROW 46 : ... .. . ... ... ... : ... .. . ... ... ... : ... .. . ... : ... .. . ... : ... .. . ... ...
ROW 47 : ... .. . ... ... ... : ... .. . ... ... ... : ... .. . ... : ... .. . ... : ... .. . ... ...
ROW 48 : ... .. . ... ... ... : ... .. . ... ... ... : ... .. . ... : ... .. . ... : ... .. . ... ...
ROW 49 : ... .. . ... ... ... : ... .. . ... ... ... : ... .. . ... : ... .. . ... : ... .. . ... ...
ROW 4A : ... .. . ... ... ... : ... .. . ... ... ... : ... .. . ... : ... .. . ... : ... .. . ... ...
ROW 4B : ... .. . ... ... ... : ... .. . ... ... ... : ... .. . ... : ... .. . ... : ... .. . ... ...
ROW 4C : ... .. . ... ... ... : ... .. . ... ... ... : ... .. . ... : ... .. . ... : ... .. . ... ...
ROW 4D : ... .. . ... ... ... : ... .. . ... ... ... : ... .. . ... : ... .. . ... : ... .. . ... ...
ROW 4E : ... .. . ... ... ... : ... .. . ... ... ... : ... .. . ... : ... .. . ... : ... .. . ... ...
ROW 4F : ... .. . ... ... ... : ... .. . ... ... ... : ... .. . ... : ... .. . ... : ... .. . ... ...
ROW 50 : ... .. . ... ... ... : ... .. . ... ... ... : ... .. . ... : ... .. . ... : ... .. . ... ...
ROW 51 : ... .. . ... ... ... : ... .. . ... ... ... : ... .. . ... : ... .. . ... : ... .. . ... ...
ROW 52 : ... .. . ... ... ... : ... .. . ... ... ... : ... .. . ... : ... .. . ... : ... .. . ... ...
ROW 53 : ... .. . ... ... ... : ... .. . ... ... ... : ... .. . ... : ... .. . ... : ... .. . ... ...
ROW 54 : ... .. . ... ... ... : ... .. . ... ... ... : ... .. . ... : ... .. . ... : ... .. . ... ...
ROW 55 : ... .. . ... ... ... : ... .. . ... ... ... : ... .. . ... : ... .. . ... : ... .. . ... ...
ROW 56 : ... .. . ... ... ... : ... .. . ... ... ... : ... .. . ... : ... .. . ... : ... .. . ... ...
ROW 57 : ... .. . ... ... ... : ... .. . ... ... ... : ... .. . ... : ... .. . ... : ... .. . ... ...
ROW 58 : ... .. . ... ... ... : ... .. . ... ... ... : ... .. . ... : ... .. . ... : ... .. . ... ...
ROW 59 : ... .. . ... ... ... : ... .. . ... ... ... : ... .. . ... : ... .. . ... : ... .. . ... ...
ROW 5A : ... .. . ... ... ... : ... .. . ... ... ... : ... .. . ... : ... .. . ... : ... .. . ... ...
ROW 5B : ... .. . ... ... ... : ... .. . ... ... ... : ... .. . ... : ... .. . ... : ... .. . ... ...
ROW 5C : ... .. . ... ... ... : ... .. . ... ... ... : ... .. . ... : ... .. . ... : ... .. . ... ...
ROW 5D : ... .. . ... ... ... : ... .. . ... ... ... : ... .. . ... : ... .. . ... : ... .. . ... ...
ROW 5E : ... .. . ... ... ... : ... .. . ... ... ... : ... .. . ... : ... .. . ... : ... .. . ... ...
ROW 5F : ... .. . ... ... ... : ... .. . ... ... ... : ... .. . ... : ... .. . ... : ... .. . ... ...
ROW 60 : ... .. . ... ... ... : ... .. . ... ... ... : ... .. . ... : ... .. . ... : ... .. . ... ...
ROW 61 : ... .. . ... ... ... : ... .. . ... ... ... : ... .. . ... : ... .. . ... : ... .. . ... ...
ROW 62 : ... .. . ... ... ... : ... .. . ... ... ... : ... .. . ... : ... .. . ... : ... .. . ... ...
ROW 63 : ... .. . ... ... ... : ... .. . ... ... ... : ... .. . ... : ... .. . ... : ... .. . ... ...
ROW 64 : ... .. . ... ... ... : ... .. . ... ... ... : ... .. . ... : ... .. . ... : ... .. . ... ...
ROW 65 : ... .. . ... ... ... : ... .. . ... ... ... : ... .. . ... : ... .. . ... : ... .. . ... ...
ROW 66 : ... .. . ... ... ... : ... .. . ... ... ... : ... .. . ... : ... .. . ... : ... .. . ... ...
ROW 67 : ... .. . ... ... ... : ... .. . ... ... ... : ... .. . ... : ... .. . ... : ... .. . ... ...
ROW 68 : ... .. . ... ... ... : ... .. . ... ... ... : ... .. . ... : ... .. . ... : ... .. . ... ...
ROW 69 : ... .. . ... ... ... : ... .. . ... ... ... : ... .. . ... : ... .. . ... : ... .. . ... ...
ROW 6A : ... .. . ... ... ... : ... .. . ... ... ... : ... .. . ... : ... .. . ... : ... .. . ... ...
ROW 6B : ... .. . ... ... ... : ... .. . ... ... ... : ... .. . ... : ... .. . ... : ... .. . ... ...
ROW 6C : ... .. . ... ... ... : ... .. . ... ... ... : ... .. . ... : ... .. . ... : ... .. . ... ...
ROW 6D : ... .. . ... ... ... : ... .. . ... ... ... : ... .. . ... : ... .. . ... : ... .. . ... ...
ROW 6E : ... .. . ... ... ... : ... .. . ... ... ... : ... .. . ... : ... .. . ... : ... .. . ... ...
ROW 6F : ... .. . ... ... ... : ... .. . ... ... ... : ... .. . ... : ... .. . ... : ... .. . ... ...
ROW 70 : ... .. . ... ... ... : ... .. . ... ... ... : ... .. . ... : ... .. . ... : ... .. . ... ...
ROW 71 : ... .. . ... ... ... : ... .. . ... ... ... : ... .. . ... : ... .. . ... : ... .. . ... ...
ROW 72 : ... .. . ... ... ... : ... .. . ... ... ... : ... .. . ... : ... .. . ... : ... .. . ... ...
ROW 73 : ... .. . ... ... ... : ... .. . ... ... ... : ... .. . ... : ... .. . ... : ... .. . ... ...
ROW 74 : ... .. . ... ... ... : ... .. . ... ... ... : ... .. . ... : ... .. . ... : ... .. . ... ...
ROW 75 : ... .. . ... ... ... : ... .. . ... ... ... : ... .. . ... : ... .. . ... : ... .. . ... ...
ROW 76 : ... .. . ... ... ... : ... .. . ... ... ... : ... .. . ... : ... .. . ... : ... .. . ... ...
ROW 77 : ... .. . ... ... ... : ... .. . ... ... ... : ... .. . ... : ... .. . ... : ... .. . ... ...
ROW 78 : ... .. . ... ... ... : ... .. . ... ... ... : ... .. . ... : ... .. . ... : ... .. . ... ...
ROW 79 : ... .. . ... ... ... : ... .. . ... ... ... : ... .. . ... : ... .. . ... : ... .. . ... ...
ROW 7A : ... .. . ... ... ... : ... .. . ... ... ... : ... .. . ... : ... .. . ... : ... .. . ... ...
ROW 7B : ... .. . ... ... ... : ... .. . ... ... ... : ... .. . ... : ... .. . ... : ... .. . ... ...
ROW 7C : ... .. . ... ... ... : ... .. . ... ... ... : ... .. . ... : ... .. . ... : ... .. . ... ...
ROW 7D : ... .. . ... ... ... : ... .. . ... ... ... : ... .. . ... : ... .. . ... : ... .. . ... ...
ROW 7E : ... .. . ... ... ... : ... .. . ... ... ... : ... .. . ... : ... .. . ... : ... .. . ... ...
ROW 7F : ... .. . ... ... ... : ... .. . ... ... ... : ... .. . ... : ... .. . ... : ... .. . ... ...

# End of export
