# FamiTracker text export 0.4.2

# Song information
TITLE           "Super Mario Bros."
AUTHOR          "Koji Kondo"
COPYRIGHT       "1985 Nintendo"

# Song comment
COMMENT ""

# Global settings
MACHINE         0
FRAMERATE       0
EXPANSION       0
VIBRATO         1
SPLIT           21

# Macros
MACRO       4   0  -1  -1   0 : 2

# DPCM samples

# Instruments
INST2A03   0    -1  -1  -1  -1  -1 "blank"

# Tracks

TRACK 144   1 150 "Overworld"
COLUMNS : 2 2 1 1 2

ORDER 00 : 00 00 00 00 00
ORDER 01 : 01 01 01 01 01
ORDER 02 : 02 02 02 02 02
ORDER 03 : 03 03 03 03 03
ORDER 04 : 04 04 04 04 04
ORDER 05 : 05 05 05 05 05
ORDER 06 : 06 06 06 06 06
ORDER 07 : 07 07 07 07 07
ORDER 08 : 08 08 08 08 08
ORDER 09 : 09 09 09 09 09
ORDER 0A : 0A 0A 0A 0A 0A
ORDER 0B : 0B 0B 0B 0B 0B
ORDER 0C : 0C 0C 0C 0C 0C
ORDER 0D : 0D 0D 0D 0D 0D
ORDER 0E : 0E 0E 0E 0E 0E
ORDER 0F : 0F 0F 0F 0F 0F
ORDER 10 : 10 10 10 10 10
ORDER 11 : 11 11 11 11 11
ORDER 12 : 12 12 12 12 12
ORDER 13 : 13 13 13 13 13
ORDER 14 : 14 14 14 14 14
ORDER 15 : 15 15 15 15 15
ORDER 16 : 16 16 16 16 16
ORDER 17 : 17 17 17 17 17
ORDER 18 : 18 18 18 18 18
ORDER 19 : 19 19 19 19 19
ORDER 1A : 1A 1A 1A 1A 1A
ORDER 1B : 1B 1B 1B 1B 1B
ORDER 1C : 1C 1C 1C 1C 1C
ORDER 1D : 1D 1D 1D 1D 1D
ORDER 1E : 1E 1E 1E 1E 1E
ORDER 1F : 1F 1F 1F 1F 1F
ORDER 20 : 20 20 20 20 20
ORDER 21 : 21 21 21 21 21
ORDER 22 : 22 22 22 22 22
ORDER 23 : 23 23 23 23 23
ORDER 24 : 24 24 24 24 24

PATTERN 00
ROW 00 : F#3 00 0 P7D V02 : E-4 00 0 P7F V02 : D-3 00 . P81 : C-# 00 C V00 : --- .. . Z30 ...
ROW 01 : ... .. 8 ... ... : ... .. 8 ... ... : ... .. . ... : ... .. . ... : ... .. . Z30 ...
ROW 02 : ... .. 7 ... ... : ... .. 7 ... ... : ... .. . ... : ... .. . ... : ... .. . Z30 ...
ROW 03 : ... .. 6 ... ... : ... .. 6 ... ... : ... .. . ... : ... .. . ... : ... .. . Z30 ...
ROW 04 : ... .. 5 ... ... : ... .. 5 ... ... : ... .. . ... : ... .. . ... : ... .. . Z30 ...
ROW 05 : ... .. . ... ... : ... .. . ... ... : ... .. . ... : ... .. 0 ... : ... .. . Z30 ...
ROW 06 : ... .. 4 ... ... : ... .. 4 ... ... : ... .. . ... : ... .. . ... : ... .. . Z30 ...
ROW 07 : ... .. . ... ... : ... .. . ... ... : ... .. . ... : ... .. . ... : ... .. . Z30 ...
ROW 08 : ... .. 0 ... ... : ... .. 0 ... ... : --- .. . ... : ... .. . ... : ... .. . Z30 ...
ROW 09 : ... .. . ... ... : ... .. . ... ... : D-3 00 . P81 : ... .. . ... : ... .. . Z30 ...
ROW 0A : ... .. 8 ... ... : ... .. 8 ... ... : ... .. . ... : ... .. . ... : ... .. . Z30 ...
ROW 0B : ... .. 7 ... ... : ... .. 7 ... ... : ... .. . ... : ... .. . ... : ... .. . Z30 ...
ROW 0C : ... .. 6 ... ... : ... .. 6 ... ... : ... .. . ... : ... .. . ... : ... .. . Z30 ...
ROW 0D : ... .. 5 ... ... : ... .. 5 ... ... : ... .. . ... : ... .. . ... : ... .. . Z30 ...
ROW 0E : ... .. . ... ... : ... .. . ... ... : ... .. . ... : ... .. . ... : ... .. . Z30 ...
ROW 0F : ... .. 4 ... ... : ... .. 4 ... ... : ... .. . ... : ... .. . ... : ... .. . Z30 ...
ROW 10 : ... .. . ... ... : ... .. . ... ... : ... .. . ... : ... .. . ... : ... .. . Z30 ...
ROW 11 : ... .. 0 ... ... : ... .. 0 ... ... : --- .. . ... : ... .. . ... : ... .. . Z30 ...
ROW 12 : ... .. . ... ... : ... .. . ... ... : ... .. . ... : ... .. C ... : ... .. . Z30 ...
ROW 13 : ... .. . ... ... : ... .. . ... ... : ... .. . ... : ... .. 0 ... : ... .. . Z30 ...
ROW 14 : ... .. . ... ... : ... .. . ... ... : ... .. . ... : ... .. . ... : ... .. . Z30 ...
ROW 15 : ... .. . ... ... : ... .. . ... ... : ... .. . ... : ... .. . ... : ... .. . Z30 ...
ROW 16 : ... .. . ... ... : ... .. . ... ... : ... .. . ... : ... .. . ... : ... .. . Z30 ...
ROW 17 : ... .. . ... ... : ... .. . ... ... : ... .. . ... : ... .. . ... : ... .. . Z30 ...
ROW 18 : ... .. . ... ... : ... .. . ... ... : ... .. . ... : ... .. . ... : ... .. . Z30 ...
ROW 19 : ... .. . ... ... : ... .. . ... ... : ... .. . ... : ... .. . ... : ... .. . Z30 ...
ROW 1A : ... .. . ... ... : ... .. . ... ... : ... .. . ... : ... .. . ... : ... .. . Z30 ...
ROW 1B : ... .. . ... ... : ... .. . ... ... : D-3 00 . P81 : ... .. C ... : ... .. . Z30 ...
ROW 1C : ... .. 8 ... ... : ... .. 8 ... ... : ... .. . ... : ... .. . ... : ... .. . Z30 ...
ROW 1D : ... .. 7 ... ... : ... .. 7 ... ... : ... .. . ... : ... .. . ... : ... .. . Z30 ...
ROW 1E : ... .. 6 ... ... : ... .. 6 ... ... : ... .. . ... : ... .. . ... : ... .. . Z30 ...
ROW 1F : ... .. 5 ... ... : ... .. 5 ... ... : ... .. . ... : ... .. . ... : ... .. . Z30 ...
ROW 20 : ... .. . ... ... : ... .. . ... ... : ... .. . ... : ... .. 0 ... : ... .. . Z30 ...
ROW 21 : ... .. 4 ... ... : ... .. 4 ... ... : ... .. . ... : ... .. . ... : ... .. . Z30 ...
ROW 22 : ... .. . ... ... : ... .. . ... ... : ... .. . ... : ... .. . ... : ... .. . Z30 ...
ROW 23 : ... .. 0 ... ... : ... .. 0 ... ... : --- .. . ... : ... .. . ... : ... .. . Z30 ...
ROW 24 : ... .. . ... ... : ... .. . ... ... : ... .. . ... : ... .. . ... : ... .. . Z30 ...
ROW 25 : ... .. . ... ... : ... .. . ... ... : ... .. . ... : ... .. . ... : ... .. . Z30 ...
ROW 26 : ... .. . ... ... : ... .. . ... ... : ... .. . ... : ... .. . ... : ... .. . Z30 ...
ROW 27 : ... .. . ... ... : ... .. . ... ... : ... .. . ... : ... .. . ... : ... .. . Z30 ...
ROW 28 : ... .. . ... ... : ... .. . ... ... : ... .. . ... : ... .. . ... : ... .. . Z30 ...
ROW 29 : ... .. . ... ... : ... .. . ... ... : ... .. . ... : ... .. . ... : ... .. . Z30 ...
ROW 2A : ... .. . ... ... : ... .. . ... ... : ... .. . ... : ... .. . ... : ... .. . Z30 ...
ROW 2B : ... .. . ... ... : ... .. . ... ... : ... .. . ... : ... .. . ... : ... .. . Z30 ...
ROW 2C : ... .. . ... ... : ... .. . ... ... : ... .. . ... : ... .. . ... : ... .. . Z30 ...
ROW 2D : ... .. . ... ... : C-4 00 0 P80 ... : D-3 00 . P81 : ... .. C ... : ... .. . Z30 ...
ROW 2E : ... .. 8 ... ... : ... .. 8 ... ... : ... .. . ... : ... .. 0 ... : ... .. . Z30 ...
ROW 2F : ... .. 7 ... ... : ... .. 7 ... ... : ... .. . ... : ... .. . ... : ... .. . Z30 ...
ROW 30 : ... .. 6 ... ... : ... .. 6 ... ... : ... .. . ... : ... .. . ... : ... .. . Z30 ...
ROW 31 : ... .. 5 ... ... : ... .. 5 ... ... : ... .. . ... : ... .. . ... : ... .. . Z30 ...
ROW 32 : ... .. . ... ... : ... .. . ... ... : ... .. . ... : ... .. . ... : ... .. . Z30 ...
ROW 33 : ... .. 4 ... ... : ... .. 4 ... ... : ... .. . ... : ... .. . ... : ... .. . Z30 ...
ROW 34 : ... .. . ... ... : ... .. . ... ... : ... .. . ... : ... .. . ... : ... .. . Z30 ...
ROW 35 : ... .. 0 ... ... : ... .. 0 ... ... : --- .. . ... : ... .. . ... : ... .. . Z30 ...
ROW 36 : ... .. . ... ... : E-4 00 0 P7F ... : D-3 00 . P81 : ... .. C ... : ... .. . Z30 ...
ROW 37 : ... .. 8 ... ... : ... .. 8 ... ... : ... .. . ... : ... .. . ... : ... .. . Z30 ...
ROW 38 : ... .. 7 ... ... : ... .. 7 ... ... : ... .. . ... : ... .. . ... : ... .. . Z30 ...
ROW 39 : ... .. 6 ... ... : ... .. 6 ... ... : ... .. . ... : ... .. . ... : ... .. . Z30 ...
ROW 3A : ... .. 5 ... ... : ... .. 5 ... ... : ... .. . ... : ... .. . ... : ... .. . Z30 ...
ROW 3B : ... .. . ... ... : ... .. . ... ... : ... .. . ... : ... .. 0 ... : ... .. . Z30 ...
ROW 3C : ... .. 4 ... ... : ... .. 4 ... ... : ... .. . ... : ... .. . ... : ... .. . Z30 ...
ROW 3D : ... .. . ... ... : ... .. . ... ... : ... .. . ... : ... .. . ... : ... .. . Z30 ...
ROW 3E : ... .. 0 ... ... : ... .. 0 ... ... : --- .. . ... : ... .. . ... : ... .. . Z30 ...
ROW 3F : ... .. . ... ... : ... .. . ... ... : ... .. . ... : ... .. . ... : ... .. . Z30 ...
ROW 40 : ... .. . ... ... : ... .. . ... ... : ... .. . ... : ... .. . ... : ... .. . Z30 ...
ROW 41 : ... .. . ... ... : ... .. . ... ... : ... .. . ... : ... .. . ... : ... .. . Z30 ...
ROW 42 : ... .. . ... ... : ... .. . ... ... : ... .. . ... : ... .. . ... : ... .. . Z30 ...
ROW 43 : ... .. . ... ... : ... .. . ... ... : ... .. . ... : ... .. . ... : ... .. . Z30 ...
ROW 44 : ... .. . ... ... : ... .. . ... ... : ... .. . ... : ... .. . ... : ... .. . Z30 ...
ROW 45 : ... .. . ... ... : ... .. . ... ... : ... .. . ... : ... .. . ... : ... .. . Z30 ...
ROW 46 : ... .. . ... ... : ... .. . ... ... : ... .. . ... : ... .. . ... : ... .. . Z30 ...
ROW 47 : ... .. . ... ... : ... .. . ... ... : ... .. . ... : ... .. . ... : ... .. . Z30 ...
ROW 48 : B-3 00 0 P7E ... : G-4 00 0 P80 ... : G-4 00 . P80 : ... .. C ... : ... .. . Z30 ...
ROW 49 : ... .. 8 ... ... : ... .. 8 ... ... : ... .. . ... : ... .. . ... : ... .. . Z30 ...
ROW 4A : ... .. 7 ... ... : ... .. 7 ... ... : ... .. . ... : ... .. . ... : ... .. . Z30 ...
ROW 4B : ... .. 6 ... ... : ... .. 6 ... ... : ... .. . ... : ... .. . ... : ... .. . Z30 ...
ROW 4C : ... .. 5 ... ... : ... .. 5 ... ... : ... .. . ... : ... .. . ... : ... .. . Z30 ...
ROW 4D : ... .. . ... ... : ... .. . ... ... : ... .. . ... : ... .. 0 ... : ... .. . Z30 ...
ROW 4E : ... .. 4 ... ... : ... .. 4 ... ... : ... .. . ... : ... .. . ... : ... .. . Z30 ...
ROW 4F : ... .. . ... ... : ... .. . ... ... : ... .. . ... : ... .. . ... : ... .. . Z30 ...
ROW 50 : ... .. 0 ... ... : ... .. 0 ... ... : --- .. . ... : ... .. . ... : ... .. . Z30 ...
ROW 51 : ... .. . ... ... : ... .. . ... ... : ... .. . ... : ... .. . ... : ... .. . Z30 ...
ROW 52 : ... .. . ... ... : ... .. . ... ... : ... .. . ... : ... .. . ... : ... .. . Z30 ...
ROW 53 : ... .. . ... ... : ... .. . ... ... : ... .. . ... : ... .. . ... : ... .. . Z30 ...
ROW 54 : ... .. . ... ... : ... .. . ... ... : ... .. . ... : ... .. . ... : ... .. . Z30 ...
ROW 55 : ... .. . ... ... : ... .. . ... ... : ... .. . ... : ... .. . ... : ... .. . Z30 ...
ROW 56 : ... .. . ... ... : ... .. . ... ... : ... .. . ... : ... .. . ... : ... .. . Z30 ...
ROW 57 : ... .. . ... ... : ... .. . ... ... : ... .. . ... : ... .. . ... : ... .. . Z30 ...
ROW 58 : ... .. . ... ... : ... .. . ... ... : ... .. . ... : ... .. . ... : ... .. . Z30 ...
ROW 59 : ... .. . ... ... : ... .. . ... ... : ... .. . ... : ... .. . ... : ... .. . Z30 ...
ROW 5A : ... .. . ... ... : ... .. . ... ... : ... .. . ... : ... .. . ... : ... .. . Z30 ...
ROW 5B : ... .. . ... ... : ... .. . ... ... : ... .. . ... : ... .. . ... : ... .. . Z30 ...
ROW 5C : ... .. . ... ... : ... .. . ... ... : ... .. . ... : ... .. . ... : ... .. . Z30 ...
ROW 5D : ... .. . ... ... : ... .. . ... ... : ... .. . ... : ... .. . ... : ... .. . Z30 ...
ROW 5E : ... .. . ... ... : ... .. . ... ... : ... .. . ... : ... .. . ... : ... .. . Z30 ...
ROW 5F : ... .. . ... ... : ... .. . ... ... : ... .. . ... : ... .. . ... : ... .. . Z30 ...
ROW 60 : ... .. . ... ... : ... .. . ... ... : ... .. . ... : ... .. . ... : ... .. . Z30 ...
ROW 61 : ... .. . ... ... : ... .. . ... ... : ... .. . ... : ... .. . ... : ... .. . Z30 ...
ROW 62 : ... .. . ... ... : ... .. . ... ... : ... .. . ... : ... .. . ... : ... .. . Z30 ...
ROW 63 : ... .. . ... ... : ... .. . ... ... : ... .. . ... : ... .. C ... : ... .. . Z30 ...
ROW 64 : ... .. . ... ... : ... .. . ... ... : ... .. . ... : ... .. . ... : ... .. . Z30 ...
ROW 65 : ... .. . ... ... : ... .. . ... ... : ... .. . ... : ... .. . ... : ... .. . Z30 ...
ROW 66 : ... .. . ... ... : ... .. . ... ... : ... .. . ... : ... .. . ... : ... .. . Z30 ...
ROW 67 : ... .. . ... ... : ... .. . ... ... : ... .. . ... : ... .. . ... : ... .. . Z30 ...
ROW 68 : ... .. . ... ... : ... .. . ... ... : ... .. . ... : ... .. 0 ... : ... .. . Z30 ...
ROW 69 : ... .. . ... ... : ... .. . ... ... : ... .. . ... : ... .. . ... : ... .. . Z30 ...
ROW 6A : ... .. . ... ... : ... .. . ... ... : ... .. . ... : ... .. . ... : ... .. . Z30 ...
ROW 6B : ... .. . ... ... : ... .. . ... ... : ... .. . ... : ... .. . ... : ... .. . Z30 ...
ROW 6C : G-3 00 0 P80 ... : ... .. . ... ... : G-3 00 . P80 : ... .. . ... : ... .. . Z30 ...
ROW 6D : ... .. 8 ... ... : ... .. . ... ... : ... .. . ... : ... .. . ... : ... .. . Z30 ...
ROW 6E : ... .. 7 ... ... : ... .. . ... ... : ... .. . ... : ... .. . ... : ... .. . Z30 ...
ROW 6F : ... .. 6 ... ... : ... .. . ... ... : ... .. . ... : ... .. . ... : ... .. . Z30 ...
ROW 70 : ... .. 5 ... ... : ... .. . ... ... : ... .. . ... : ... .. . ... : ... .. . Z30 ...
ROW 71 : ... .. . ... ... : ... .. . ... ... : ... .. . ... : ... .. . ... : ... .. . Z30 ...
ROW 72 : ... .. 4 ... ... : ... .. . ... ... : ... .. . ... : ... .. . ... : ... .. . Z30 ...
ROW 73 : ... .. . ... ... : ... .. . ... ... : ... .. . ... : ... .. . ... : ... .. . Z30 ...
ROW 74 : ... .. 0 ... ... : ... .. . ... ... : --- .. . ... : ... .. . ... : ... .. . Z30 ...
ROW 75 : ... .. . ... ... : ... .. . ... ... : ... .. . ... : ... .. C ... : ... .. . Z30 ...
ROW 76 : ... .. . ... ... : ... .. . ... ... : ... .. . ... : ... .. 0 ... : ... .. . Z30 ...
ROW 77 : ... .. . ... ... : ... .. . ... ... : ... .. . ... : ... .. . ... : ... .. . Z30 ...
ROW 78 : ... .. . ... ... : ... .. . ... ... : ... .. . ... : ... .. . ... : ... .. . Z30 ...
ROW 79 : ... .. . ... ... : ... .. . ... ... : ... .. . ... : ... .. . ... : ... .. . Z30 ...
ROW 7A : ... .. . ... ... : ... .. . ... ... : ... .. . ... : ... .. . ... : ... .. . Z30 ...
ROW 7B : ... .. . ... ... : ... .. . ... ... : ... .. . ... : ... .. . ... : ... .. . Z30 ...
ROW 7C : ... .. . ... ... : ... .. . ... ... : ... .. . ... : ... .. . ... : ... .. . Z30 ...
ROW 7D : ... .. . ... ... : ... .. . ... ... : ... .. . ... : ... .. . ... : ... .. . Z30 ...
ROW 7E : ... .. . ... ... : ... .. . ... ... : ... .. . ... : ... .. C ... : ... .. . Z30 ...
ROW 7F : ... .. . ... ... : ... .. . ... ... : ... .. . ... : ... .. 0 ... : ... .. . Z30 ...
ROW 80 : ... .. . ... ... : ... .. . ... ... : ... .. . ... : ... .. . ... : ... .. . Z30 ...
ROW 81 : ... .. . ... ... : ... .. . ... ... : ... .. . ... : ... .. . ... : ... .. . Z30 ...
ROW 82 : ... .. . ... ... : ... .. . ... ... : ... .. . ... : ... .. . ... : ... .. . Z30 ...
ROW 83 : ... .. . ... ... : ... .. . ... ... : ... .. . ... : ... .. . ... : ... .. . Z30 ...
ROW 84 : ... .. . ... ... : ... .. . ... ... : ... .. . ... : ... .. . ... : ... .. . Z30 ...
ROW 85 : ... .. . ... ... : ... .. . ... ... : ... .. . ... : ... .. . ... : ... .. . Z30 ...
ROW 86 : ... .. . ... ... : ... .. . ... ... : ... .. . ... : ... .. . ... : ... .. . Z30 ...
ROW 87 : ... .. . ... ... : ... .. . ... ... : ... .. . ... : ... .. C ... : ... .. . Z30 ...
ROW 88 : ... .. . ... ... : ... .. . ... ... : ... .. . ... : ... .. 0 ... : ... .. . Z30 ...
ROW 89 : ... .. . ... ... : ... .. . ... ... : ... .. . ... : ... .. . ... : ... .. . Z30 ...
ROW 8A : ... .. . ... ... : ... .. . ... ... : ... .. . ... : ... .. . ... : ... .. . Z30 ...
ROW 8B : ... .. . ... ... : ... .. . ... ... : ... .. . ... : ... .. . ... : ... .. . Z30 ...
ROW 8C : ... .. . ... ... : ... .. . ... ... : ... .. . ... : ... .. . ... : ... .. . Z30 ...
ROW 8D : ... .. . ... ... : ... .. . ... ... : ... .. . ... : ... .. . ... : ... .. . Z30 ...
ROW 8E : ... .. . ... ... : ... .. . ... ... : ... .. . ... : ... .. . ... : ... .. . Z30 ...
ROW 8F : ... .. . ... ... : ... .. . ... ... : ... .. . ... : ... .. . ... : ... .. . Z30 ...

PATTERN 01
ROW 00 : E-3 00 0 P7D ... : C-4 00 0 P80 ... : G-3 00 . P80 : 3-# 00 C ... : ... .. . Z30 ...
ROW 01 : ... .. 8 ... ... : ... .. 8 ... ... : ... .. . ... : ... .. 0 ... : ... .. . Z30 ...
ROW 02 : ... .. 7 ... ... : ... .. 7 ... ... : ... .. . ... : ... .. . ... : ... .. . Z30 ...
ROW 03 : ... .. 6 ... ... : ... .. 6 ... ... : ... .. . ... : ... .. . ... : ... .. . Z30 ...
ROW 04 : ... .. 5 ... ... : ... .. 5 ... ... : ... .. . ... : ... .. . ... : ... .. . Z30 ...
ROW 05 : ... .. . ... ... : ... .. . ... ... : ... .. . ... : ... .. . ... : ... .. . Z30 ...
ROW 06 : ... .. 4 ... ... : ... .. 4 ... ... : ... .. . ... : ... .. . ... : ... .. . Z30 ...
ROW 07 : ... .. . ... ... : ... .. . ... ... : ... .. . ... : ... .. . ... : ... .. . Z30 ...
ROW 08 : ... .. 0 ... ... : ... .. 0 ... ... : --- .. . ... : ... .. . ... : ... .. . Z30 ...
ROW 09 : ... .. . ... ... : ... .. . ... ... : ... .. . ... : ... .. . ... : ... .. . Z30 ...
ROW 0A : ... .. . ... ... : ... .. . ... ... : ... .. . ... : ... .. . ... : ... .. . Z30 ...
ROW 0B : ... .. . ... ... : ... .. . ... ... : ... .. . ... : ... .. . ... : ... .. . Z30 ...
ROW 0C : ... .. . ... ... : ... .. . ... ... : ... .. . ... : ... .. . ... : ... .. . Z30 ...
ROW 0D : ... .. . ... ... : ... .. . ... ... : ... .. . ... : ... .. . ... : ... .. . Z30 ...
ROW 0E : ... .. . ... ... : ... .. . ... ... : ... .. . ... : ... .. . ... : ... .. . Z30 ...
ROW 0F : ... .. . ... ... : ... .. . ... ... : ... .. . ... : ... .. . ... : ... .. . Z30 ...
ROW 10 : ... .. . ... ... : ... .. . ... ... : ... .. . ... : ... .. . ... : ... .. . Z30 ...
ROW 11 : ... .. . ... ... : ... .. . ... ... : ... .. . ... : ... .. . ... : ... .. . Z30 ...
ROW 12 : ... .. . ... ... : ... .. . ... ... : ... .. . ... : C-# 00 C ... : ... .. . Z30 ...
ROW 13 : ... .. . ... ... : ... .. . ... ... : ... .. . ... : ... .. 0 ... : ... .. . Z30 ...
ROW 14 : ... .. . ... ... : ... .. . ... ... : ... .. . ... : ... .. . ... : ... .. . Z30 ...
ROW 15 : ... .. . ... ... : ... .. . ... ... : ... .. . ... : ... .. . ... : ... .. . Z30 ...
ROW 16 : ... .. . ... ... : ... .. . ... ... : ... .. . ... : ... .. . ... : ... .. . Z30 ...
ROW 17 : ... .. . ... ... : ... .. . ... ... : ... .. . ... : ... .. . ... : ... .. . Z30 ...
ROW 18 : ... .. . ... ... : ... .. . ... ... : ... .. . ... : B-# 00 0 V01 : ... .. . Z30 ...
ROW 19 : ... .. . ... ... : ... .. . ... ... : ... .. . ... : ... .. . ... : ... .. . Z30 ...
ROW 1A : ... .. . ... ... : ... .. . ... ... : ... .. . ... : ... .. . ... : ... .. . Z30 ...
ROW 1B : C-3 00 0 P80 ... : G-3 00 0 P80 ... : E-3 00 . P7D : ... .. . ... : ... .. . Z30 ...
ROW 1C : ... .. 8 ... ... : ... .. 8 ... ... : ... .. . ... : ... .. . ... : ... .. . Z30 ...
ROW 1D : ... .. 7 ... ... : ... .. 7 ... ... : ... .. . ... : ... .. . ... : ... .. . Z30 ...
ROW 1E : ... .. 6 ... ... : ... .. 6 ... ... : ... .. . ... : C-# 00 C V00 : ... .. . Z30 ...
ROW 1F : ... .. 5 ... ... : ... .. 5 ... ... : ... .. . ... : ... .. 0 ... : ... .. . Z30 ...
ROW 20 : ... .. . ... ... : ... .. . ... ... : ... .. . ... : ... .. . ... : ... .. . Z30 ...
ROW 21 : ... .. 4 ... ... : ... .. 4 ... ... : ... .. . ... : ... .. . ... : ... .. . Z30 ...
ROW 22 : ... .. . ... ... : ... .. . ... ... : ... .. . ... : ... .. . ... : ... .. . Z30 ...
ROW 23 : ... .. 0 ... ... : ... .. 0 ... ... : --- .. . ... : ... .. . ... : ... .. . Z30 ...
ROW 24 : ... .. . ... ... : ... .. . ... ... : ... .. . ... : ... .. C ... : ... .. . Z30 ...
ROW 25 : ... .. . ... ... : ... .. . ... ... : ... .. . ... : ... .. . ... : ... .. . Z30 ...
ROW 26 : ... .. . ... ... : ... .. . ... ... : ... .. . ... : ... .. . ... : ... .. . Z30 ...
ROW 27 : ... .. . ... ... : ... .. . ... ... : ... .. . ... : ... .. . ... : ... .. . Z30 ...
ROW 28 : ... .. . ... ... : ... .. . ... ... : ... .. . ... : ... .. . ... : ... .. . Z30 ...
ROW 29 : ... .. . ... ... : ... .. . ... ... : ... .. . ... : ... .. 0 ... : ... .. . Z30 ...
ROW 2A : ... .. . ... ... : ... .. . ... ... : ... .. . ... : ... .. . ... : ... .. . Z30 ...
ROW 2B : ... .. . ... ... : ... .. . ... ... : ... .. . ... : ... .. . ... : ... .. . Z30 ...
ROW 2C : ... .. . ... ... : ... .. . ... ... : ... .. . ... : ... .. . ... : ... .. . Z30 ...
ROW 2D : ... .. . ... ... : ... .. . ... ... : ... .. . ... : ... .. . ... : ... .. . Z30 ...
ROW 2E : ... .. . ... ... : ... .. . ... ... : ... .. . ... : ... .. . ... : ... .. . Z30 ...
ROW 2F : ... .. . ... ... : ... .. . ... ... : ... .. . ... : ... .. . ... : ... .. . Z30 ...
ROW 30 : ... .. . ... ... : ... .. . ... ... : ... .. . ... : ... .. . ... : ... .. . Z30 ...
ROW 31 : ... .. . ... ... : ... .. . ... ... : ... .. . ... : ... .. . ... : ... .. . Z30 ...
ROW 32 : ... .. . ... ... : ... .. . ... ... : ... .. . ... : ... .. . ... : ... .. . Z30 ...
ROW 33 : ... .. . ... ... : ... .. . ... ... : ... .. . ... : ... .. . ... : ... .. . Z30 ...
ROW 34 : ... .. . ... ... : ... .. . ... ... : ... .. . ... : ... .. . ... : ... .. . Z30 ...
ROW 35 : ... .. . ... ... : ... .. . ... ... : ... .. . ... : ... .. . ... : ... .. . Z30 ...
ROW 36 : G-2 00 0 P81 ... : E-3 00 0 P7D ... : C-3 00 . P80 : ... .. C ... : ... .. . Z30 ...
ROW 37 : ... .. 8 ... ... : ... .. 8 ... ... : ... .. . ... : ... .. 0 ... : ... .. . Z30 ...
ROW 38 : ... .. 7 ... ... : ... .. 7 ... ... : ... .. . ... : ... .. . ... : ... .. . Z30 ...
ROW 39 : ... .. 6 ... ... : ... .. 6 ... ... : ... .. . ... : ... .. . ... : ... .. . Z30 ...
ROW 3A : ... .. 5 ... ... : ... .. 5 ... ... : ... .. . ... : ... .. . ... : ... .. . Z30 ...
ROW 3B : ... .. . ... ... : ... .. . ... ... : ... .. . ... : ... .. . ... : ... .. . Z30 ...
ROW 3C : ... .. 4 ... ... : ... .. 4 ... ... : ... .. . ... : B-# 00 0 V01 : ... .. . Z30 ...
ROW 3D : ... .. . ... ... : ... .. . ... ... : ... .. . ... : ... .. . ... : ... .. . Z30 ...
ROW 3E : ... .. 0 ... ... : ... .. 0 ... ... : --- .. . ... : ... .. . ... : ... .. . Z30 ...
ROW 3F : ... .. . ... ... : ... .. . ... ... : ... .. . ... : ... .. . ... : ... .. . Z30 ...
ROW 40 : ... .. . ... ... : ... .. . ... ... : ... .. . ... : ... .. . ... : ... .. . Z30 ...
ROW 41 : ... .. . ... ... : ... .. . ... ... : ... .. . ... : ... .. . ... : ... .. . Z30 ...
ROW 42 : ... .. . ... ... : ... .. . ... ... : ... .. . ... : C-# 00 C V00 : ... .. . Z30 ...
ROW 43 : ... .. . ... ... : ... .. . ... ... : ... .. . ... : ... .. 0 ... : ... .. . Z30 ...
ROW 44 : ... .. . ... ... : ... .. . ... ... : ... .. . ... : ... .. . ... : ... .. . Z30 ...
ROW 45 : ... .. . ... ... : ... .. . ... ... : ... .. . ... : ... .. . ... : ... .. . Z30 ...
ROW 46 : ... .. . ... ... : ... .. . ... ... : ... .. . ... : ... .. . ... : ... .. . Z30 ...
ROW 47 : ... .. . ... ... : ... .. . ... ... : ... .. . ... : ... .. . ... : ... .. . Z30 ...
ROW 48 : ... .. . ... ... : ... .. . ... ... : ... .. . ... : 3-# 00 C ... : ... .. . Z30 ...
ROW 49 : ... .. . ... ... : ... .. . ... ... : ... .. . ... : ... .. 0 ... : ... .. . Z30 ...
ROW 4A : ... .. . ... ... : ... .. . ... ... : ... .. . ... : ... .. . ... : ... .. . Z30 ...
ROW 4B : ... .. . ... ... : ... .. . ... ... : ... .. . ... : ... .. . ... : ... .. . Z30 ...
ROW 4C : ... .. . ... ... : ... .. . ... ... : ... .. . ... : ... .. . ... : ... .. . Z30 ...
ROW 4D : ... .. . ... ... : ... .. . ... ... : ... .. . ... : ... .. . ... : ... .. . Z30 ...
ROW 4E : ... .. . ... ... : ... .. . ... ... : ... .. . ... : ... .. . ... : ... .. . Z30 ...
ROW 4F : ... .. . ... ... : ... .. . ... ... : ... .. . ... : ... .. . ... : ... .. . Z30 ...
ROW 50 : ... .. . ... ... : ... .. . ... ... : ... .. . ... : ... .. . ... : ... .. . Z30 ...
ROW 51 : C-3 00 0 P80 ... : A-3 00 0 P7E ... : F-3 00 . P80 : ... .. . ... : ... .. . Z30 ...
ROW 52 : ... .. 8 ... ... : ... .. 8 ... ... : ... .. . ... : ... .. . ... : ... .. . Z30 ...
ROW 53 : ... .. 7 ... ... : ... .. 7 ... ... : ... .. . ... : ... .. . ... : ... .. . Z30 ...
ROW 54 : ... .. 6 ... ... : ... .. 6 ... ... : ... .. . ... : ... .. . ... : ... .. . Z30 ...
ROW 55 : ... .. 5 ... ... : ... .. 5 ... ... : ... .. . ... : ... .. . ... : ... .. . Z30 ...
ROW 56 : ... .. . ... ... : ... .. . ... ... : ... .. . ... : ... .. . ... : ... .. . Z30 ...
ROW 57 : ... .. 4 ... ... : ... .. 4 ... ... : ... .. . ... : ... .. . ... : ... .. . Z30 ...
ROW 58 : ... .. . ... ... : ... .. . ... ... : ... .. . ... : ... .. . ... : ... .. . Z30 ...
ROW 59 : ... .. 0 ... ... : ... .. 0 ... ... : --- .. . ... : ... .. . ... : ... .. . Z30 ...
ROW 5A : ... .. . ... ... : ... .. . ... ... : ... .. . ... : C-# 00 C ... : ... .. . Z30 ...
ROW 5B : ... .. . ... ... : ... .. . ... ... : ... .. . ... : ... .. 0 ... : ... .. . Z30 ...
ROW 5C : ... .. . ... ... : ... .. . ... ... : ... .. . ... : ... .. . ... : ... .. . Z30 ...
ROW 5D : ... .. . ... ... : ... .. . ... ... : ... .. . ... : ... .. . ... : ... .. . Z30 ...
ROW 5E : ... .. . ... ... : ... .. . ... ... : ... .. . ... : ... .. . ... : ... .. . Z30 ...
ROW 5F : ... .. . ... ... : ... .. . ... ... : ... .. . ... : ... .. . ... : ... .. . Z30 ...
ROW 60 : ... .. . ... ... : ... .. . ... ... : ... .. . ... : B-# 00 0 V01 : ... .. . Z30 ...
ROW 61 : ... .. . ... ... : ... .. . ... ... : ... .. . ... : ... .. . ... : ... .. . Z30 ...
ROW 62 : ... .. . ... ... : ... .. . ... ... : ... .. . ... : ... .. . ... : ... .. . Z30 ...
ROW 63 : D-3 00 0 P81 ... : B-3 00 0 P7E ... : G-3 00 . P80 : ... .. . ... : ... .. . Z30 ...
ROW 64 : ... .. 8 ... ... : ... .. 8 ... ... : ... .. . ... : ... .. . ... : ... .. . Z30 ...
ROW 65 : ... .. 7 ... ... : ... .. 7 ... ... : ... .. . ... : ... .. . ... : ... .. . Z30 ...
ROW 66 : ... .. 6 ... ... : ... .. 6 ... ... : ... .. . ... : C-# 00 C V00 : ... .. . Z30 ...
ROW 67 : ... .. 5 ... ... : ... .. 5 ... ... : ... .. . ... : ... .. 0 ... : ... .. . Z30 ...
ROW 68 : ... .. . ... ... : ... .. . ... ... : ... .. . ... : ... .. . ... : ... .. . Z30 ...
ROW 69 : ... .. 4 ... ... : ... .. 4 ... ... : ... .. . ... : ... .. . ... : ... .. . Z30 ...
ROW 6A : ... .. . ... ... : ... .. . ... ... : ... .. . ... : ... .. . ... : ... .. . Z30 ...
ROW 6B : ... .. 0 ... ... : ... .. 0 ... ... : --- .. . ... : ... .. . ... : ... .. . Z30 ...
ROW 6C : ... .. . ... ... : ... .. . ... ... : ... .. . ... : ... .. C ... : ... .. . Z30 ...
ROW 6D : ... .. . ... ... : ... .. . ... ... : ... .. . ... : ... .. . ... : ... .. . Z30 ...
ROW 6E : ... .. . ... ... : ... .. . ... ... : ... .. . ... : ... .. . ... : ... .. . Z30 ...
ROW 6F : ... .. . ... ... : ... .. . ... ... : ... .. . ... : ... .. . ... : ... .. . Z30 ...
ROW 70 : ... .. . ... ... : ... .. . ... ... : ... .. . ... : ... .. . ... : ... .. . Z30 ...
ROW 71 : ... .. . ... ... : ... .. . ... ... : ... .. . ... : ... .. 0 ... : ... .. . Z30 ...
ROW 72 : ... .. . ... ... : ... .. . ... ... : ... .. . ... : ... .. . ... : ... .. . Z30 ...
ROW 73 : ... .. . ... ... : ... .. . ... ... : ... .. . ... : ... .. . ... : ... .. . Z30 ...
ROW 74 : ... .. . ... ... : ... .. . ... ... : ... .. . ... : ... .. . ... : ... .. . Z30 ...
ROW 75 : C#3 00 0 P83 ... : A#3 00 0 P7C ... : F#3 00 . P7D : ... .. . ... : ... .. . Z30 ...
ROW 76 : ... .. 8 ... ... : ... .. 8 ... ... : ... .. . ... : ... .. . ... : ... .. . Z30 ...
ROW 77 : ... .. 7 ... ... : ... .. 7 ... ... : ... .. . ... : ... .. . ... : ... .. . Z30 ...
ROW 78 : ... .. 6 ... ... : ... .. 6 ... ... : ... .. . ... : ... .. . ... : ... .. . Z30 ...
ROW 79 : ... .. 5 ... ... : ... .. 5 ... ... : ... .. . ... : ... .. . ... : ... .. . Z30 ...
ROW 7A : ... .. . ... ... : ... .. . ... ... : ... .. . ... : ... .. . ... : ... .. . Z30 ...
ROW 7B : ... .. 4 ... ... : ... .. 4 ... ... : ... .. . ... : ... .. . ... : ... .. . Z30 ...
ROW 7C : ... .. . ... ... : ... .. . ... ... : ... .. . ... : ... .. . ... : ... .. . Z30 ...
ROW 7D : ... .. 0 ... ... : ... .. 0 ... ... : --- .. . ... : ... .. . ... : ... .. . Z30 ...
ROW 7E : C-3 00 0 P80 ... : A-3 00 0 P7E ... : F-3 00 . P80 : ... .. C ... : ... .. . Z30 ...
ROW 7F : ... .. 8 ... ... : ... .. 8 ... ... : ... .. . ... : ... .. 0 ... : ... .. . Z30 ...
ROW 80 : ... .. 7 ... ... : ... .. 7 ... ... : ... .. . ... : ... .. . ... : ... .. . Z30 ...
ROW 81 : ... .. 6 ... ... : ... .. 6 ... ... : ... .. . ... : ... .. . ... : ... .. . Z30 ...
ROW 82 : ... .. 5 ... ... : ... .. 5 ... ... : ... .. . ... : ... .. . ... : ... .. . Z30 ...
ROW 83 : ... .. . ... ... : ... .. . ... ... : ... .. . ... : ... .. . ... : ... .. . Z30 ...
ROW 84 : ... .. 4 ... ... : ... .. 4 ... ... : ... .. . ... : B-# 00 0 V01 : ... .. . Z30 ...
ROW 85 : ... .. . ... ... : ... .. . ... ... : ... .. . ... : ... .. . ... : ... .. . Z30 ...
ROW 86 : ... .. 0 ... ... : ... .. 0 ... ... : --- .. . ... : ... .. . ... : ... .. . Z30 ...
ROW 87 : ... .. . ... ... : ... .. . ... ... : ... .. . ... : ... .. . ... : ... .. . Z30 ...
ROW 88 : ... .. . ... ... : ... .. . ... ... : ... .. . ... : ... .. . ... : ... .. . Z30 ...
ROW 89 : ... .. . ... ... : ... .. . ... ... : ... .. . ... : ... .. . ... : ... .. . Z30 ...
ROW 8A : ... .. . ... ... : ... .. . ... ... : ... .. . ... : C-# 00 C V00 : ... .. . Z30 ...
ROW 8B : ... .. . ... ... : ... .. . ... ... : ... .. . ... : ... .. 0 ... : ... .. . Z30 ...
ROW 8C : ... .. . ... ... : ... .. . ... ... : ... .. . ... : ... .. . ... : ... .. . Z30 ...
ROW 8D : ... .. . ... ... : ... .. . ... ... : ... .. . ... : ... .. . ... : ... .. . Z30 ...
ROW 8E : ... .. . ... ... : ... .. . ... ... : ... .. . ... : ... .. . ... : ... .. . Z30 ...
ROW 8F : ... .. . ... ... : ... .. . ... ... : ... .. . ... : ... .. . ... : ... .. . Z30 ...

PATTERN 02
ROW 00 : ... .. . ... ... : G-3 00 0 P80 ... : E-3 00 . P7D : 3-# 00 C ... : ... .. . Z30 ...
ROW 01 : ... .. 8 ... ... : ... .. 8 ... ... : ... .. . ... : ... .. 0 ... : ... .. . Z30 ...
ROW 02 : ... .. 7 ... ... : ... .. 7 ... ... : ... .. . ... : ... .. . ... : ... .. . Z30 ...
ROW 03 : ... .. 6 ... ... : ... .. 6 ... ... : ... .. . ... : ... .. . ... : ... .. . Z30 ...
ROW 04 : ... .. 5 ... ... : ... .. 5 ... ... : ... .. . ... : ... .. . ... : ... .. . Z30 ...
ROW 05 : ... .. . ... ... : ... .. . ... ... : ... .. . ... : ... .. . ... : ... .. . Z30 ...
ROW 06 : ... .. 4 ... ... : ... .. 4 ... ... : ... .. . ... : ... .. . ... : ... .. . Z30 ...
ROW 07 : ... .. . ... ... : ... .. . ... ... : ... .. . ... : ... .. . ... : ... .. . Z30 ...
ROW 08 : ... .. 0 ... ... : ... .. 0 ... ... : --- .. . ... : ... .. . ... : ... .. . Z30 ...
ROW 09 : ... .. . ... ... : ... .. . ... ... : ... .. . ... : ... .. . ... : ... .. . Z30 ...
ROW 0A : ... .. . ... ... : ... .. . ... ... : ... .. . ... : ... .. . ... : ... .. . Z30 ...
ROW 0B : ... .. . ... ... : ... .. . ... ... : ... .. . ... : ... .. . ... : ... .. . Z30 ...
ROW 0C : G-3 00 0 P80 ... : E-4 00 0 P7F ... : C-4 00 . P80 : ... .. . ... : ... .. . Z30 ...
ROW 0D : ... .. 8 ... ... : ... .. 8 ... ... : ... .. . ... : ... .. . ... : ... .. . Z30 ...
ROW 0E : ... .. 7 ... ... : ... .. 7 ... ... : ... .. . ... : ... .. . ... : ... .. . Z30 ...
ROW 0F : ... .. 6 ... ... : ... .. 6 ... ... : ... .. . ... : ... .. . ... : ... .. . Z30 ...
ROW 10 : ... .. 5 ... ... : ... .. 5 ... ... : ... .. . ... : ... .. . ... : ... .. . Z30 ...
ROW 11 : ... .. . ... ... : ... .. . ... ... : ... .. . ... : ... .. . ... : ... .. . Z30 ...
ROW 12 : ... .. 4 ... ... : ... .. 4 ... ... : ... .. . ... : C-# 00 C ... : ... .. . Z30 ...
ROW 13 : ... .. . ... ... : ... .. . ... ... : ... .. . ... : ... .. 0 ... : ... .. . Z30 ...
ROW 14 : ... .. 0 ... ... : ... .. 0 ... ... : --- .. . ... : ... .. . ... : ... .. . Z30 ...
ROW 15 : ... .. . ... ... : ... .. . ... ... : ... .. . ... : ... .. . ... : ... .. . Z30 ...
ROW 16 : ... .. . ... ... : ... .. . ... ... : ... .. . ... : ... .. . ... : ... .. . Z30 ...
ROW 17 : ... .. . ... ... : ... .. . ... ... : ... .. . ... : ... .. . ... : ... .. . Z30 ...
ROW 18 : B-3 00 0 P7E ... : G-4 00 0 P80 ... : E-4 00 . P7F : B-# 00 0 V01 : ... .. . Z30 ...
ROW 19 : ... .. 8 ... ... : ... .. 8 ... ... : ... .. . ... : ... .. . ... : ... .. . Z30 ...
ROW 1A : ... .. 7 ... ... : ... .. 7 ... ... : ... .. . ... : ... .. . ... : ... .. . Z30 ...
ROW 1B : ... .. 6 ... ... : ... .. 6 ... ... : ... .. . ... : ... .. . ... : ... .. . Z30 ...
ROW 1C : ... .. 5 ... ... : ... .. 5 ... ... : ... .. . ... : ... .. . ... : ... .. . Z30 ...
ROW 1D : ... .. . ... ... : ... .. . ... ... : ... .. . ... : ... .. . ... : ... .. . Z30 ...
ROW 1E : ... .. 4 ... ... : ... .. 4 ... ... : ... .. . ... : C-# 00 C V00 : ... .. . Z30 ...
ROW 1F : ... .. . ... ... : ... .. . ... ... : ... .. . ... : ... .. 0 ... : ... .. . Z30 ...
ROW 20 : ... .. 0 ... ... : ... .. 0 ... ... : --- .. . ... : ... .. . ... : ... .. . Z30 ...
ROW 21 : ... .. . ... ... : ... .. . ... ... : ... .. . ... : ... .. . ... : ... .. . Z30 ...
ROW 22 : ... .. . ... ... : ... .. . ... ... : ... .. . ... : ... .. . ... : ... .. . Z30 ...
ROW 23 : ... .. . ... ... : ... .. . ... ... : ... .. . ... : ... .. . ... : ... .. . Z30 ...
ROW 24 : C-4 00 0 P80 ... : A-4 00 0 P7F ... : F-4 00 . P80 : ... .. C ... : ... .. . Z30 ...
ROW 25 : ... .. 8 ... ... : ... .. 8 ... ... : ... .. . ... : ... .. . ... : ... .. . Z30 ...
ROW 26 : ... .. 7 ... ... : ... .. 7 ... ... : ... .. . ... : ... .. . ... : ... .. . Z30 ...
ROW 27 : ... .. 6 ... ... : ... .. 6 ... ... : ... .. . ... : ... .. . ... : ... .. . Z30 ...
ROW 28 : ... .. 5 ... ... : ... .. 5 ... ... : ... .. . ... : ... .. . ... : ... .. . Z30 ...
ROW 29 : ... .. . ... ... : ... .. . ... ... : ... .. . ... : ... .. 0 ... : ... .. . Z30 ...
ROW 2A : ... .. 4 ... ... : ... .. 4 ... ... : ... .. . ... : ... .. . ... : ... .. . Z30 ...
ROW 2B : ... .. . ... ... : ... .. . ... ... : ... .. . ... : ... .. . ... : ... .. . Z30 ...
ROW 2C : ... .. 0 ... ... : ... .. 0 ... ... : --- .. . ... : ... .. . ... : ... .. . Z30 ...
ROW 2D : ... .. . ... ... : ... .. . ... ... : ... .. . ... : ... .. . ... : ... .. . Z30 ...
ROW 2E : ... .. . ... ... : ... .. . ... ... : ... .. . ... : ... .. . ... : ... .. . Z30 ...
ROW 2F : ... .. . ... ... : ... .. . ... ... : ... .. . ... : ... .. . ... : ... .. . Z30 ...
ROW 30 : ... .. . ... ... : ... .. . ... ... : ... .. . ... : ... .. . ... : ... .. . Z30 ...
ROW 31 : ... .. . ... ... : ... .. . ... ... : ... .. . ... : ... .. . ... : ... .. . Z30 ...
ROW 32 : ... .. . ... ... : ... .. . ... ... : ... .. . ... : ... .. . ... : ... .. . Z30 ...
ROW 33 : ... .. . ... ... : ... .. . ... ... : ... .. . ... : ... .. . ... : ... .. . Z30 ...
ROW 34 : ... .. . ... ... : ... .. . ... ... : ... .. . ... : ... .. . ... : ... .. . Z30 ...
ROW 35 : ... .. . ... ... : ... .. . ... ... : ... .. . ... : ... .. . ... : ... .. . Z30 ...
ROW 36 : A-3 00 0 P7E ... : F-4 00 0 P80 ... : D-4 00 . P80 : ... .. C ... : ... .. . Z30 ...
ROW 37 : ... .. 8 ... ... : ... .. 8 ... ... : ... .. . ... : ... .. 0 ... : ... .. . Z30 ...
ROW 38 : ... .. 7 ... ... : ... .. 7 ... ... : ... .. . ... : ... .. . ... : ... .. . Z30 ...
ROW 39 : ... .. 6 ... ... : ... .. 6 ... ... : ... .. . ... : ... .. . ... : ... .. . Z30 ...
ROW 3A : ... .. 5 ... ... : ... .. 5 ... ... : ... .. . ... : ... .. . ... : ... .. . Z30 ...
ROW 3B : ... .. . ... ... : ... .. . ... ... : ... .. . ... : ... .. . ... : ... .. . Z30 ...
ROW 3C : ... .. 4 ... ... : ... .. 4 ... ... : ... .. . ... : B-# 00 0 V01 : ... .. . Z30 ...
ROW 3D : ... .. . ... ... : ... .. . ... ... : ... .. . ... : ... .. . ... : ... .. . Z30 ...
ROW 3E : ... .. 0 ... ... : ... .. 0 ... ... : --- .. . ... : ... .. . ... : ... .. . Z30 ...
ROW 3F : B-3 00 0 P7E ... : G-4 00 0 P80 ... : E-4 00 . P7F : ... .. . ... : ... .. . Z30 ...
ROW 40 : ... .. 8 ... ... : ... .. 8 ... ... : ... .. . ... : ... .. . ... : ... .. . Z30 ...
ROW 41 : ... .. 7 ... ... : ... .. 7 ... ... : ... .. . ... : ... .. . ... : ... .. . Z30 ...
ROW 42 : ... .. 6 ... ... : ... .. 6 ... ... : ... .. . ... : C-# 00 C V00 : ... .. . Z30 ...
ROW 43 : ... .. 5 ... ... : ... .. 5 ... ... : ... .. . ... : ... .. 0 ... : ... .. . Z30 ...
ROW 44 : ... .. . ... ... : ... .. . ... ... : ... .. . ... : ... .. . ... : ... .. . Z30 ...
ROW 45 : ... .. 4 ... ... : ... .. 4 ... ... : ... .. . ... : ... .. . ... : ... .. . Z30 ...
ROW 46 : ... .. . ... ... : ... .. . ... ... : ... .. . ... : ... .. . ... : ... .. . Z30 ...
ROW 47 : ... .. 0 ... ... : ... .. 0 ... ... : --- .. . ... : ... .. . ... : ... .. . Z30 ...
ROW 48 : ... .. . ... ... : ... .. . ... ... : ... .. . ... : 3-# 00 C ... : ... .. . Z30 ...
ROW 49 : ... .. . ... ... : ... .. . ... ... : ... .. . ... : ... .. 0 ... : ... .. . Z30 ...
ROW 4A : ... .. . ... ... : ... .. . ... ... : ... .. . ... : ... .. . ... : ... .. . Z30 ...
ROW 4B : ... .. . ... ... : ... .. . ... ... : ... .. . ... : ... .. . ... : ... .. . Z30 ...
ROW 4C : ... .. . ... ... : ... .. . ... ... : ... .. . ... : ... .. . ... : ... .. . Z30 ...
ROW 4D : ... .. . ... ... : ... .. . ... ... : ... .. . ... : ... .. . ... : ... .. . Z30 ...
ROW 4E : ... .. . ... ... : ... .. . ... ... : ... .. . ... : ... .. . ... : ... .. . Z30 ...
ROW 4F : ... .. . ... ... : ... .. . ... ... : ... .. . ... : ... .. . ... : ... .. . Z30 ...
ROW 50 : ... .. . ... ... : ... .. . ... ... : ... .. . ... : ... .. . ... : ... .. . Z30 ...
ROW 51 : A-3 00 0 P7E ... : E-4 00 0 P7F ... : C-4 00 . P80 : ... .. . ... : ... .. . Z30 ...
ROW 52 : ... .. 8 ... ... : ... .. 8 ... ... : ... .. . ... : ... .. . ... : ... .. . Z30 ...
ROW 53 : ... .. 7 ... ... : ... .. 7 ... ... : ... .. . ... : ... .. . ... : ... .. . Z30 ...
ROW 54 : ... .. 6 ... ... : ... .. 6 ... ... : ... .. . ... : ... .. . ... : ... .. . Z30 ...
ROW 55 : ... .. 5 ... ... : ... .. 5 ... ... : ... .. . ... : ... .. . ... : ... .. . Z30 ...
ROW 56 : ... .. . ... ... : ... .. . ... ... : ... .. . ... : ... .. . ... : ... .. . Z30 ...
ROW 57 : ... .. 4 ... ... : ... .. 4 ... ... : ... .. . ... : ... .. . ... : ... .. . Z30 ...
ROW 58 : ... .. . ... ... : ... .. . ... ... : ... .. . ... : ... .. . ... : ... .. . Z30 ...
ROW 59 : ... .. 0 ... ... : ... .. 0 ... ... : --- .. . ... : ... .. . ... : ... .. . Z30 ...
ROW 5A : ... .. . ... ... : ... .. . ... ... : ... .. . ... : C-# 00 C ... : ... .. . Z30 ...
ROW 5B : ... .. . ... ... : ... .. . ... ... : ... .. . ... : ... .. 0 ... : ... .. . Z30 ...
ROW 5C : ... .. . ... ... : ... .. . ... ... : ... .. . ... : ... .. . ... : ... .. . Z30 ...
ROW 5D : ... .. . ... ... : ... .. . ... ... : ... .. . ... : ... .. . ... : ... .. . Z30 ...
ROW 5E : ... .. . ... ... : ... .. . ... ... : ... .. . ... : ... .. . ... : ... .. . Z30 ...
ROW 5F : ... .. . ... ... : ... .. . ... ... : ... .. . ... : ... .. . ... : ... .. . Z30 ...
ROW 60 : ... .. . ... ... : ... .. . ... ... : ... .. . ... : B-# 00 0 V01 : ... .. . Z30 ...
ROW 61 : ... .. . ... ... : ... .. . ... ... : ... .. . ... : ... .. . ... : ... .. . Z30 ...
ROW 62 : ... .. . ... ... : ... .. . ... ... : ... .. . ... : ... .. . ... : ... .. . Z30 ...
ROW 63 : E-3 00 0 P7D ... : C-4 00 0 P80 ... : A-3 00 . P7E : ... .. . ... : ... .. . Z30 ...
ROW 64 : ... .. 8 ... ... : ... .. 8 ... ... : ... .. . ... : ... .. . ... : ... .. . Z30 ...
ROW 65 : ... .. 7 ... ... : ... .. 7 ... ... : ... .. . ... : ... .. . ... : ... .. . Z30 ...
ROW 66 : ... .. 6 ... ... : ... .. 6 ... ... : ... .. . ... : C-# 00 C V00 : ... .. . Z30 ...
ROW 67 : ... .. 5 ... ... : ... .. 5 ... ... : ... .. . ... : ... .. 0 ... : ... .. . Z30 ...
ROW 68 : ... .. . ... ... : ... .. . ... ... : ... .. . ... : ... .. . ... : ... .. . Z30 ...
ROW 69 : ... .. 4 ... ... : ... .. 4 ... ... : ... .. . ... : ... .. . ... : ... .. . Z30 ...
ROW 6A : ... .. . ... ... : ... .. . ... ... : ... .. . ... : ... .. . ... : ... .. . Z30 ...
ROW 6B : ... .. 0 ... ... : ... .. 0 ... ... : --- .. . ... : ... .. . ... : ... .. . Z30 ...
ROW 6C : F-3 00 0 P80 ... : D-4 00 0 P80 ... : B-3 00 . P7E : ... .. C ... : ... .. . Z30 ...
ROW 6D : ... .. 8 ... ... : ... .. 8 ... ... : ... .. . ... : ... .. . ... : ... .. . Z30 ...
ROW 6E : ... .. 7 ... ... : ... .. 7 ... ... : ... .. . ... : ... .. . ... : ... .. . Z30 ...
ROW 6F : ... .. 6 ... ... : ... .. 6 ... ... : ... .. . ... : ... .. . ... : ... .. . Z30 ...
ROW 70 : ... .. 5 ... ... : ... .. 5 ... ... : ... .. . ... : ... .. . ... : ... .. . Z30 ...
ROW 71 : ... .. . ... ... : ... .. . ... ... : ... .. . ... : ... .. 0 ... : ... .. . Z30 ...
ROW 72 : ... .. 4 ... ... : ... .. 4 ... ... : ... .. . ... : ... .. . ... : ... .. . Z30 ...
ROW 73 : ... .. . ... ... : ... .. . ... ... : ... .. . ... : ... .. . ... : ... .. . Z30 ...
ROW 74 : ... .. 0 ... ... : ... .. 0 ... ... : --- .. . ... : ... .. . ... : ... .. . Z30 ...
ROW 75 : D-3 00 0 P81 ... : B-3 00 0 P7E ... : G-3 00 . P80 : ... .. . ... : ... .. . Z30 ...
ROW 76 : ... .. 8 ... ... : ... .. 8 ... ... : ... .. . ... : ... .. . ... : ... .. . Z30 ...
ROW 77 : ... .. 7 ... ... : ... .. 7 ... ... : ... .. . ... : ... .. . ... : ... .. . Z30 ...
ROW 78 : ... .. 6 ... ... : ... .. 6 ... ... : ... .. . ... : ... .. . ... : ... .. . Z30 ...
ROW 79 : ... .. 5 ... ... : ... .. 5 ... ... : ... .. . ... : ... .. . ... : ... .. . Z30 ...
ROW 7A : ... .. . ... ... : ... .. . ... ... : ... .. . ... : ... .. . ... : ... .. . Z30 ...
ROW 7B : ... .. 4 ... ... : ... .. 4 ... ... : ... .. . ... : ... .. . ... : ... .. . Z30 ...
ROW 7C : ... .. . ... ... : ... .. . ... ... : ... .. . ... : ... .. . ... : ... .. . Z30 ...
ROW 7D : ... .. 0 ... ... : ... .. 0 ... ... : --- .. . ... : ... .. . ... : ... .. . Z30 ...
ROW 7E : ... .. . ... ... : ... .. . ... ... : ... .. . ... : ... .. C ... : ... .. . Z30 ...
ROW 7F : ... .. . ... ... : ... .. . ... ... : ... .. . ... : ... .. 0 ... : ... .. . Z30 ...
ROW 80 : ... .. . ... ... : ... .. . ... ... : ... .. . ... : ... .. . ... : ... .. . Z30 ...
ROW 81 : ... .. . ... ... : ... .. . ... ... : ... .. . ... : ... .. . ... : ... .. . Z30 ...
ROW 82 : ... .. . ... ... : ... .. . ... ... : ... .. . ... : ... .. . ... : ... .. . Z30 ...
ROW 83 : ... .. . ... ... : ... .. . ... ... : ... .. . ... : ... .. . ... : ... .. . Z30 ...
ROW 84 : ... .. . ... ... : ... .. . ... ... : ... .. . ... : B-# 00 0 V01 : ... .. . Z30 ...
ROW 85 : ... .. . ... ... : ... .. . ... ... : ... .. . ... : ... .. . ... : ... .. . Z30 ...
ROW 86 : ... .. . ... ... : ... .. . ... ... : ... .. . ... : ... .. . ... : ... .. . Z30 ...
ROW 87 : ... .. . ... ... : ... .. . ... ... : ... .. . ... : ... .. . ... : ... .. . Z30 ...
ROW 88 : ... .. . ... ... : ... .. . ... ... : ... .. . ... : ... .. . ... : ... .. . Z30 ...
ROW 89 : ... .. . ... ... : ... .. . ... ... : ... .. . ... : ... .. . ... : ... .. . Z30 ...
ROW 8A : ... .. . ... ... : ... .. . ... ... : ... .. . ... : C-# 00 C V00 : ... .. . Z30 ...
ROW 8B : ... .. . ... ... : ... .. . ... ... : ... .. . ... : ... .. 0 ... : ... .. . Z30 ...
ROW 8C : ... .. . ... ... : ... .. . ... ... : ... .. . ... : ... .. . ... : ... .. . Z30 ...
ROW 8D : ... .. . ... ... : ... .. . ... ... : ... .. . ... : ... .. . ... : ... .. . Z30 ...
ROW 8E : ... .. . ... ... : ... .. . ... ... : ... .. . ... : ... .. . ... : ... .. . Z30 ...
ROW 8F : ... .. . ... ... : ... .. . ... ... : ... .. . ... : ... .. . ... : ... .. . Z30 ...

PATTERN 03
ROW 00 : E-3 00 0 P7D ... : C-4 00 0 P80 ... : G-3 00 . P80 : 3-# 00 C ... : ... .. . Z30 ...
ROW 01 : ... .. 8 ... ... : ... .. 8 ... ... : ... .. . ... : ... .. 0 ... : ... .. . Z30 ...
ROW 02 : ... .. 7 ... ... : ... .. 7 ... ... : ... .. . ... : ... .. . ... : ... .. . Z30 ...
ROW 03 : ... .. 6 ... ... : ... .. 6 ... ... : ... .. . ... : ... .. . ... : ... .. . Z30 ...
ROW 04 : ... .. 5 ... ... : ... .. 5 ... ... : ... .. . ... : ... .. . ... : ... .. . Z30 ...
ROW 05 : ... .. . ... ... : ... .. . ... ... : ... .. . ... : ... .. . ... : ... .. . Z30 ...
ROW 06 : ... .. 4 ... ... : ... .. 4 ... ... : ... .. . ... : ... .. . ... : ... .. . Z30 ...
ROW 07 : ... .. . ... ... : ... .. . ... ... : ... .. . ... : ... .. . ... : ... .. . Z30 ...
ROW 08 : ... .. 0 ... ... : ... .. 0 ... ... : --- .. . ... : ... .. . ... : ... .. . Z30 ...
ROW 09 : ... .. . ... ... : ... .. . ... ... : ... .. . ... : ... .. . ... : ... .. . Z30 ...
ROW 0A : ... .. . ... ... : ... .. . ... ... : ... .. . ... : ... .. . ... : ... .. . Z30 ...
ROW 0B : ... .. . ... ... : ... .. . ... ... : ... .. . ... : ... .. . ... : ... .. . Z30 ...
ROW 0C : ... .. . ... ... : ... .. . ... ... : ... .. . ... : ... .. . ... : ... .. . Z30 ...
ROW 0D : ... .. . ... ... : ... .. . ... ... : ... .. . ... : ... .. . ... : ... .. . Z30 ...
ROW 0E : ... .. . ... ... : ... .. . ... ... : ... .. . ... : ... .. . ... : ... .. . Z30 ...
ROW 0F : ... .. . ... ... : ... .. . ... ... : ... .. . ... : ... .. . ... : ... .. . Z30 ...
ROW 10 : ... .. . ... ... : ... .. . ... ... : ... .. . ... : ... .. . ... : ... .. . Z30 ...
ROW 11 : ... .. . ... ... : ... .. . ... ... : ... .. . ... : ... .. . ... : ... .. . Z30 ...
ROW 12 : ... .. . ... ... : ... .. . ... ... : ... .. . ... : C-# 00 C ... : ... .. . Z30 ...
ROW 13 : ... .. . ... ... : ... .. . ... ... : ... .. . ... : ... .. 0 ... : ... .. . Z30 ...
ROW 14 : ... .. . ... ... : ... .. . ... ... : ... .. . ... : ... .. . ... : ... .. . Z30 ...
ROW 15 : ... .. . ... ... : ... .. . ... ... : ... .. . ... : ... .. . ... : ... .. . Z30 ...
ROW 16 : ... .. . ... ... : ... .. . ... ... : ... .. . ... : ... .. . ... : ... .. . Z30 ...
ROW 17 : ... .. . ... ... : ... .. . ... ... : ... .. . ... : ... .. . ... : ... .. . Z30 ...
ROW 18 : ... .. . ... ... : ... .. . ... ... : ... .. . ... : B-# 00 0 V01 : ... .. . Z30 ...
ROW 19 : ... .. . ... ... : ... .. . ... ... : ... .. . ... : ... .. . ... : ... .. . Z30 ...
ROW 1A : ... .. . ... ... : ... .. . ... ... : ... .. . ... : ... .. . ... : ... .. . Z30 ...
ROW 1B : C-3 00 0 P80 ... : G-3 00 0 P80 ... : E-3 00 . P7D : ... .. . ... : ... .. . Z30 ...
ROW 1C : ... .. 8 ... ... : ... .. 8 ... ... : ... .. . ... : ... .. . ... : ... .. . Z30 ...
ROW 1D : ... .. 7 ... ... : ... .. 7 ... ... : ... .. . ... : ... .. . ... : ... .. . Z30 ...
ROW 1E : ... .. 6 ... ... : ... .. 6 ... ... : ... .. . ... : C-# 00 C V00 : ... .. . Z30 ...
ROW 1F : ... .. 5 ... ... : ... .. 5 ... ... : ... .. . ... : ... .. 0 ... : ... .. . Z30 ...
ROW 20 : ... .. . ... ... : ... .. . ... ... : ... .. . ... : ... .. . ... : ... .. . Z30 ...
ROW 21 : ... .. 4 ... ... : ... .. 4 ... ... : ... .. . ... : ... .. . ... : ... .. . Z30 ...
ROW 22 : ... .. . ... ... : ... .. . ... ... : ... .. . ... : ... .. . ... : ... .. . Z30 ...
ROW 23 : ... .. 0 ... ... : ... .. 0 ... ... : --- .. . ... : ... .. . ... : ... .. . Z30 ...
ROW 24 : ... .. . ... ... : ... .. . ... ... : ... .. . ... : ... .. C ... : ... .. . Z30 ...
ROW 25 : ... .. . ... ... : ... .. . ... ... : ... .. . ... : ... .. . ... : ... .. . Z30 ...
ROW 26 : ... .. . ... ... : ... .. . ... ... : ... .. . ... : ... .. . ... : ... .. . Z30 ...
ROW 27 : ... .. . ... ... : ... .. . ... ... : ... .. . ... : ... .. . ... : ... .. . Z30 ...
ROW 28 : ... .. . ... ... : ... .. . ... ... : ... .. . ... : ... .. . ... : ... .. . Z30 ...
ROW 29 : ... .. . ... ... : ... .. . ... ... : ... .. . ... : ... .. 0 ... : ... .. . Z30 ...
ROW 2A : ... .. . ... ... : ... .. . ... ... : ... .. . ... : ... .. . ... : ... .. . Z30 ...
ROW 2B : ... .. . ... ... : ... .. . ... ... : ... .. . ... : ... .. . ... : ... .. . Z30 ...
ROW 2C : ... .. . ... ... : ... .. . ... ... : ... .. . ... : ... .. . ... : ... .. . Z30 ...
ROW 2D : ... .. . ... ... : ... .. . ... ... : ... .. . ... : ... .. . ... : ... .. . Z30 ...
ROW 2E : ... .. . ... ... : ... .. . ... ... : ... .. . ... : ... .. . ... : ... .. . Z30 ...
ROW 2F : ... .. . ... ... : ... .. . ... ... : ... .. . ... : ... .. . ... : ... .. . Z30 ...
ROW 30 : ... .. . ... ... : ... .. . ... ... : ... .. . ... : ... .. . ... : ... .. . Z30 ...
ROW 31 : ... .. . ... ... : ... .. . ... ... : ... .. . ... : ... .. . ... : ... .. . Z30 ...
ROW 32 : ... .. . ... ... : ... .. . ... ... : ... .. . ... : ... .. . ... : ... .. . Z30 ...
ROW 33 : ... .. . ... ... : ... .. . ... ... : ... .. . ... : ... .. . ... : ... .. . Z30 ...
ROW 34 : ... .. . ... ... : ... .. . ... ... : ... .. . ... : ... .. . ... : ... .. . Z30 ...
ROW 35 : ... .. . ... ... : ... .. . ... ... : ... .. . ... : ... .. . ... : ... .. . Z30 ...
ROW 36 : G-2 00 0 P81 ... : E-3 00 0 P7D ... : C-3 00 . P80 : ... .. C ... : ... .. . Z30 ...
ROW 37 : ... .. 8 ... ... : ... .. 8 ... ... : ... .. . ... : ... .. 0 ... : ... .. . Z30 ...
ROW 38 : ... .. 7 ... ... : ... .. 7 ... ... : ... .. . ... : ... .. . ... : ... .. . Z30 ...
ROW 39 : ... .. 6 ... ... : ... .. 6 ... ... : ... .. . ... : ... .. . ... : ... .. . Z30 ...
ROW 3A : ... .. 5 ... ... : ... .. 5 ... ... : ... .. . ... : ... .. . ... : ... .. . Z30 ...
ROW 3B : ... .. . ... ... : ... .. . ... ... : ... .. . ... : ... .. . ... : ... .. . Z30 ...
ROW 3C : ... .. 4 ... ... : ... .. 4 ... ... : ... .. . ... : B-# 00 0 V01 : ... .. . Z30 ...
ROW 3D : ... .. . ... ... : ... .. . ... ... : ... .. . ... : ... .. . ... : ... .. . Z30 ...
ROW 3E : ... .. 0 ... ... : ... .. 0 ... ... : --- .. . ... : ... .. . ... : ... .. . Z30 ...
ROW 3F : ... .. . ... ... : ... .. . ... ... : ... .. . ... : ... .. . ... : ... .. . Z30 ...
ROW 40 : ... .. . ... ... : ... .. . ... ... : ... .. . ... : ... .. . ... : ... .. . Z30 ...
ROW 41 : ... .. . ... ... : ... .. . ... ... : ... .. . ... : ... .. . ... : ... .. . Z30 ...
ROW 42 : ... .. . ... ... : ... .. . ... ... : ... .. . ... : C-# 00 C V00 : ... .. . Z30 ...
ROW 43 : ... .. . ... ... : ... .. . ... ... : ... .. . ... : ... .. 0 ... : ... .. . Z30 ...
ROW 44 : ... .. . ... ... : ... .. . ... ... : ... .. . ... : ... .. . ... : ... .. . Z30 ...
ROW 45 : ... .. . ... ... : ... .. . ... ... : ... .. . ... : ... .. . ... : ... .. . Z30 ...
ROW 46 : ... .. . ... ... : ... .. . ... ... : ... .. . ... : ... .. . ... : ... .. . Z30 ...
ROW 47 : ... .. . ... ... : ... .. . ... ... : ... .. . ... : ... .. . ... : ... .. . Z30 ...
ROW 48 : ... .. . ... ... : ... .. . ... ... : ... .. . ... : 3-# 00 C ... : ... .. . Z30 ...
ROW 49 : ... .. . ... ... : ... .. . ... ... : ... .. . ... : ... .. 0 ... : ... .. . Z30 ...
ROW 4A : ... .. . ... ... : ... .. . ... ... : ... .. . ... : ... .. . ... : ... .. . Z30 ...
ROW 4B : ... .. . ... ... : ... .. . ... ... : ... .. . ... : ... .. . ... : ... .. . Z30 ...
ROW 4C : ... .. . ... ... : ... .. . ... ... : ... .. . ... : ... .. . ... : ... .. . Z30 ...
ROW 4D : ... .. . ... ... : ... .. . ... ... : ... .. . ... : ... .. . ... : ... .. . Z30 ...
ROW 4E : ... .. . ... ... : ... .. . ... ... : ... .. . ... : ... .. . ... : ... .. . Z30 ...
ROW 4F : ... .. . ... ... : ... .. . ... ... : ... .. . ... : ... .. . ... : ... .. . Z30 ...
ROW 50 : ... .. . ... ... : ... .. . ... ... : ... .. . ... : ... .. . ... : ... .. . Z30 ...
ROW 51 : C-3 00 0 P80 ... : A-3 00 0 P7E ... : F-3 00 . P80 : ... .. . ... : ... .. . Z30 ...
ROW 52 : ... .. 8 ... ... : ... .. 8 ... ... : ... .. . ... : ... .. . ... : ... .. . Z30 ...
ROW 53 : ... .. 7 ... ... : ... .. 7 ... ... : ... .. . ... : ... .. . ... : ... .. . Z30 ...
ROW 54 : ... .. 6 ... ... : ... .. 6 ... ... : ... .. . ... : ... .. . ... : ... .. . Z30 ...
ROW 55 : ... .. 5 ... ... : ... .. 5 ... ... : ... .. . ... : ... .. . ... : ... .. . Z30 ...
ROW 56 : ... .. . ... ... : ... .. . ... ... : ... .. . ... : ... .. . ... : ... .. . Z30 ...
ROW 57 : ... .. 4 ... ... : ... .. 4 ... ... : ... .. . ... : ... .. . ... : ... .. . Z30 ...
ROW 58 : ... .. . ... ... : ... .. . ... ... : ... .. . ... : ... .. . ... : ... .. . Z30 ...
ROW 59 : ... .. 0 ... ... : ... .. 0 ... ... : --- .. . ... : ... .. . ... : ... .. . Z30 ...
ROW 5A : ... .. . ... ... : ... .. . ... ... : ... .. . ... : C-# 00 C ... : ... .. . Z30 ...
ROW 5B : ... .. . ... ... : ... .. . ... ... : ... .. . ... : ... .. 0 ... : ... .. . Z30 ...
ROW 5C : ... .. . ... ... : ... .. . ... ... : ... .. . ... : ... .. . ... : ... .. . Z30 ...
ROW 5D : ... .. . ... ... : ... .. . ... ... : ... .. . ... : ... .. . ... : ... .. . Z30 ...
ROW 5E : ... .. . ... ... : ... .. . ... ... : ... .. . ... : ... .. . ... : ... .. . Z30 ...
ROW 5F : ... .. . ... ... : ... .. . ... ... : ... .. . ... : ... .. . ... : ... .. . Z30 ...
ROW 60 : ... .. . ... ... : ... .. . ... ... : ... .. . ... : B-# 00 0 V01 : ... .. . Z30 ...
ROW 61 : ... .. . ... ... : ... .. . ... ... : ... .. . ... : ... .. . ... : ... .. . Z30 ...
ROW 62 : ... .. . ... ... : ... .. . ... ... : ... .. . ... : ... .. . ... : ... .. . Z30 ...
ROW 63 : D-3 00 0 P81 ... : B-3 00 0 P7E ... : G-3 00 . P80 : ... .. . ... : ... .. . Z30 ...
ROW 64 : ... .. 8 ... ... : ... .. 8 ... ... : ... .. . ... : ... .. . ... : ... .. . Z30 ...
ROW 65 : ... .. 7 ... ... : ... .. 7 ... ... : ... .. . ... : ... .. . ... : ... .. . Z30 ...
ROW 66 : ... .. 6 ... ... : ... .. 6 ... ... : ... .. . ... : C-# 00 C V00 : ... .. . Z30 ...
ROW 67 : ... .. 5 ... ... : ... .. 5 ... ... : ... .. . ... : ... .. 0 ... : ... .. . Z30 ...
ROW 68 : ... .. . ... ... : ... .. . ... ... : ... .. . ... : ... .. . ... : ... .. . Z30 ...
ROW 69 : ... .. 4 ... ... : ... .. 4 ... ... : ... .. . ... : ... .. . ... : ... .. . Z30 ...
ROW 6A : ... .. . ... ... : ... .. . ... ... : ... .. . ... : ... .. . ... : ... .. . Z30 ...
ROW 6B : ... .. 0 ... ... : ... .. 0 ... ... : --- .. . ... : ... .. . ... : ... .. . Z30 ...
ROW 6C : ... .. . ... ... : ... .. . ... ... : ... .. . ... : ... .. C ... : ... .. . Z30 ...
ROW 6D : ... .. . ... ... : ... .. . ... ... : ... .. . ... : ... .. . ... : ... .. . Z30 ...
ROW 6E : ... .. . ... ... : ... .. . ... ... : ... .. . ... : ... .. . ... : ... .. . Z30 ...
ROW 6F : ... .. . ... ... : ... .. . ... ... : ... .. . ... : ... .. . ... : ... .. . Z30 ...
ROW 70 : ... .. . ... ... : ... .. . ... ... : ... .. . ... : ... .. . ... : ... .. . Z30 ...
ROW 71 : ... .. . ... ... : ... .. . ... ... : ... .. . ... : ... .. 0 ... : ... .. . Z30 ...
ROW 72 : ... .. . ... ... : ... .. . ... ... : ... .. . ... : ... .. . ... : ... .. . Z30 ...
ROW 73 : ... .. . ... ... : ... .. . ... ... : ... .. . ... : ... .. . ... : ... .. . Z30 ...
ROW 74 : ... .. . ... ... : ... .. . ... ... : ... .. . ... : ... .. . ... : ... .. . Z30 ...
ROW 75 : C#3 00 0 P83 ... : A#3 00 0 P7C ... : F#3 00 . P7D : ... .. . ... : ... .. . Z30 ...
ROW 76 : ... .. 8 ... ... : ... .. 8 ... ... : ... .. . ... : ... .. . ... : ... .. . Z30 ...
ROW 77 : ... .. 7 ... ... : ... .. 7 ... ... : ... .. . ... : ... .. . ... : ... .. . Z30 ...
ROW 78 : ... .. 6 ... ... : ... .. 6 ... ... : ... .. . ... : ... .. . ... : ... .. . Z30 ...
ROW 79 : ... .. 5 ... ... : ... .. 5 ... ... : ... .. . ... : ... .. . ... : ... .. . Z30 ...
ROW 7A : ... .. . ... ... : ... .. . ... ... : ... .. . ... : ... .. . ... : ... .. . Z30 ...
ROW 7B : ... .. 4 ... ... : ... .. 4 ... ... : ... .. . ... : ... .. . ... : ... .. . Z30 ...
ROW 7C : ... .. . ... ... : ... .. . ... ... : ... .. . ... : ... .. . ... : ... .. . Z30 ...
ROW 7D : ... .. 0 ... ... : ... .. 0 ... ... : --- .. . ... : ... .. . ... : ... .. . Z30 ...
ROW 7E : C-3 00 0 P80 ... : A-3 00 0 P7E ... : F-3 00 . P80 : ... .. C ... : ... .. . Z30 ...
ROW 7F : ... .. 8 ... ... : ... .. 8 ... ... : ... .. . ... : ... .. 0 ... : ... .. . Z30 ...
ROW 80 : ... .. 7 ... ... : ... .. 7 ... ... : ... .. . ... : ... .. . ... : ... .. . Z30 ...
ROW 81 : ... .. 6 ... ... : ... .. 6 ... ... : ... .. . ... : ... .. . ... : ... .. . Z30 ...
ROW 82 : ... .. 5 ... ... : ... .. 5 ... ... : ... .. . ... : ... .. . ... : ... .. . Z30 ...
ROW 83 : ... .. . ... ... : ... .. . ... ... : ... .. . ... : ... .. . ... : ... .. . Z30 ...
ROW 84 : ... .. 4 ... ... : ... .. 4 ... ... : ... .. . ... : B-# 00 0 V01 : ... .. . Z30 ...
ROW 85 : ... .. . ... ... : ... .. . ... ... : ... .. . ... : ... .. . ... : ... .. . Z30 ...
ROW 86 : ... .. 0 ... ... : ... .. 0 ... ... : --- .. . ... : ... .. . ... : ... .. . Z30 ...
ROW 87 : ... .. . ... ... : ... .. . ... ... : ... .. . ... : ... .. . ... : ... .. . Z30 ...
ROW 88 : ... .. . ... ... : ... .. . ... ... : ... .. . ... : ... .. . ... : ... .. . Z30 ...
ROW 89 : ... .. . ... ... : ... .. . ... ... : ... .. . ... : ... .. . ... : ... .. . Z30 ...
ROW 8A : ... .. . ... ... : ... .. . ... ... : ... .. . ... : C-# 00 C V00 : ... .. . Z30 ...
ROW 8B : ... .. . ... ... : ... .. . ... ... : ... .. . ... : ... .. 0 ... : ... .. . Z30 ...
ROW 8C : ... .. . ... ... : ... .. . ... ... : ... .. . ... : ... .. . ... : ... .. . Z30 ...
ROW 8D : ... .. . ... ... : ... .. . ... ... : ... .. . ... : ... .. . ... : ... .. . Z30 ...
ROW 8E : ... .. . ... ... : ... .. . ... ... : ... .. . ... : ... .. . ... : ... .. . Z30 ...
ROW 8F : ... .. . ... ... : ... .. . ... ... : ... .. . ... : ... .. . ... : ... .. . Z30 ...

PATTERN 04
ROW 00 : ... .. . ... ... : G-3 00 0 P80 ... : E-3 00 . P7D : 3-# 00 C ... : ... .. . Z30 ...
ROW 01 : ... .. 8 ... ... : ... .. 8 ... ... : ... .. . ... : ... .. 0 ... : ... .. . Z30 ...
ROW 02 : ... .. 7 ... ... : ... .. 7 ... ... : ... .. . ... : ... .. . ... : ... .. . Z30 ...
ROW 03 : ... .. 6 ... ... : ... .. 6 ... ... : ... .. . ... : ... .. . ... : ... .. . Z30 ...
ROW 04 : ... .. 5 ... ... : ... .. 5 ... ... : ... .. . ... : ... .. . ... : ... .. . Z30 ...
ROW 05 : ... .. . ... ... : ... .. . ... ... : ... .. . ... : ... .. . ... : ... .. . Z30 ...
ROW 06 : ... .. 4 ... ... : ... .. 4 ... ... : ... .. . ... : ... .. . ... : ... .. . Z30 ...
ROW 07 : ... .. . ... ... : ... .. . ... ... : ... .. . ... : ... .. . ... : ... .. . Z30 ...
ROW 08 : ... .. 0 ... ... : ... .. 0 ... ... : --- .. . ... : ... .. . ... : ... .. . Z30 ...
ROW 09 : ... .. . ... ... : ... .. . ... ... : ... .. . ... : ... .. . ... : ... .. . Z30 ...
ROW 0A : ... .. . ... ... : ... .. . ... ... : ... .. . ... : ... .. . ... : ... .. . Z30 ...
ROW 0B : ... .. . ... ... : ... .. . ... ... : ... .. . ... : ... .. . ... : ... .. . Z30 ...
ROW 0C : G-3 00 0 P80 ... : E-4 00 0 P7F ... : C-4 00 . P80 : ... .. . ... : ... .. . Z30 ...
ROW 0D : ... .. 8 ... ... : ... .. 8 ... ... : ... .. . ... : ... .. . ... : ... .. . Z30 ...
ROW 0E : ... .. 7 ... ... : ... .. 7 ... ... : ... .. . ... : ... .. . ... : ... .. . Z30 ...
ROW 0F : ... .. 6 ... ... : ... .. 6 ... ... : ... .. . ... : ... .. . ... : ... .. . Z30 ...
ROW 10 : ... .. 5 ... ... : ... .. 5 ... ... : ... .. . ... : ... .. . ... : ... .. . Z30 ...
ROW 11 : ... .. . ... ... : ... .. . ... ... : ... .. . ... : ... .. . ... : ... .. . Z30 ...
ROW 12 : ... .. 4 ... ... : ... .. 4 ... ... : ... .. . ... : C-# 00 C ... : ... .. . Z30 ...
ROW 13 : ... .. . ... ... : ... .. . ... ... : ... .. . ... : ... .. 0 ... : ... .. . Z30 ...
ROW 14 : ... .. 0 ... ... : ... .. 0 ... ... : --- .. . ... : ... .. . ... : ... .. . Z30 ...
ROW 15 : ... .. . ... ... : ... .. . ... ... : ... .. . ... : ... .. . ... : ... .. . Z30 ...
ROW 16 : ... .. . ... ... : ... .. . ... ... : ... .. . ... : ... .. . ... : ... .. . Z30 ...
ROW 17 : ... .. . ... ... : ... .. . ... ... : ... .. . ... : ... .. . ... : ... .. . Z30 ...
ROW 18 : B-3 00 0 P7E ... : G-4 00 0 P80 ... : E-4 00 . P7F : B-# 00 0 V01 : ... .. . Z30 ...
ROW 19 : ... .. 8 ... ... : ... .. 8 ... ... : ... .. . ... : ... .. . ... : ... .. . Z30 ...
ROW 1A : ... .. 7 ... ... : ... .. 7 ... ... : ... .. . ... : ... .. . ... : ... .. . Z30 ...
ROW 1B : ... .. 6 ... ... : ... .. 6 ... ... : ... .. . ... : ... .. . ... : ... .. . Z30 ...
ROW 1C : ... .. 5 ... ... : ... .. 5 ... ... : ... .. . ... : ... .. . ... : ... .. . Z30 ...
ROW 1D : ... .. . ... ... : ... .. . ... ... : ... .. . ... : ... .. . ... : ... .. . Z30 ...
ROW 1E : ... .. 4 ... ... : ... .. 4 ... ... : ... .. . ... : C-# 00 C V00 : ... .. . Z30 ...
ROW 1F : ... .. . ... ... : ... .. . ... ... : ... .. . ... : ... .. 0 ... : ... .. . Z30 ...
ROW 20 : ... .. 0 ... ... : ... .. 0 ... ... : --- .. . ... : ... .. . ... : ... .. . Z30 ...
ROW 21 : ... .. . ... ... : ... .. . ... ... : ... .. . ... : ... .. . ... : ... .. . Z30 ...
ROW 22 : ... .. . ... ... : ... .. . ... ... : ... .. . ... : ... .. . ... : ... .. . Z30 ...
ROW 23 : ... .. . ... ... : ... .. . ... ... : ... .. . ... : ... .. . ... : ... .. . Z30 ...
ROW 24 : C-4 00 0 P80 ... : A-4 00 0 P7F ... : F-4 00 . P80 : ... .. C ... : ... .. . Z30 ...
ROW 25 : ... .. 8 ... ... : ... .. 8 ... ... : ... .. . ... : ... .. . ... : ... .. . Z30 ...
ROW 26 : ... .. 7 ... ... : ... .. 7 ... ... : ... .. . ... : ... .. . ... : ... .. . Z30 ...
ROW 27 : ... .. 6 ... ... : ... .. 6 ... ... : ... .. . ... : ... .. . ... : ... .. . Z30 ...
ROW 28 : ... .. 5 ... ... : ... .. 5 ... ... : ... .. . ... : ... .. . ... : ... .. . Z30 ...
ROW 29 : ... .. . ... ... : ... .. . ... ... : ... .. . ... : ... .. 0 ... : ... .. . Z30 ...
ROW 2A : ... .. 4 ... ... : ... .. 4 ... ... : ... .. . ... : ... .. . ... : ... .. . Z30 ...
ROW 2B : ... .. . ... ... : ... .. . ... ... : ... .. . ... : ... .. . ... : ... .. . Z30 ...
ROW 2C : ... .. 0 ... ... : ... .. 0 ... ... : --- .. . ... : ... .. . ... : ... .. . Z30 ...
ROW 2D : ... .. . ... ... : ... .. . ... ... : ... .. . ... : ... .. . ... : ... .. . Z30 ...
ROW 2E : ... .. . ... ... : ... .. . ... ... : ... .. . ... : ... .. . ... : ... .. . Z30 ...
ROW 2F : ... .. . ... ... : ... .. . ... ... : ... .. . ... : ... .. . ... : ... .. . Z30 ...
ROW 30 : ... .. . ... ... : ... .. . ... ... : ... .. . ... : ... .. . ... : ... .. . Z30 ...
ROW 31 : ... .. . ... ... : ... .. . ... ... : ... .. . ... : ... .. . ... : ... .. . Z30 ...
ROW 32 : ... .. . ... ... : ... .. . ... ... : ... .. . ... : ... .. . ... : ... .. . Z30 ...
ROW 33 : ... .. . ... ... : ... .. . ... ... : ... .. . ... : ... .. . ... : ... .. . Z30 ...
ROW 34 : ... .. . ... ... : ... .. . ... ... : ... .. . ... : ... .. . ... : ... .. . Z30 ...
ROW 35 : ... .. . ... ... : ... .. . ... ... : ... .. . ... : ... .. . ... : ... .. . Z30 ...
ROW 36 : A-3 00 0 P7E ... : F-4 00 0 P80 ... : D-4 00 . P80 : ... .. C ... : ... .. . Z30 ...
ROW 37 : ... .. 8 ... ... : ... .. 8 ... ... : ... .. . ... : ... .. 0 ... : ... .. . Z30 ...
ROW 38 : ... .. 7 ... ... : ... .. 7 ... ... : ... .. . ... : ... .. . ... : ... .. . Z30 ...
ROW 39 : ... .. 6 ... ... : ... .. 6 ... ... : ... .. . ... : ... .. . ... : ... .. . Z30 ...
ROW 3A : ... .. 5 ... ... : ... .. 5 ... ... : ... .. . ... : ... .. . ... : ... .. . Z30 ...
ROW 3B : ... .. . ... ... : ... .. . ... ... : ... .. . ... : ... .. . ... : ... .. . Z30 ...
ROW 3C : ... .. 4 ... ... : ... .. 4 ... ... : ... .. . ... : B-# 00 0 V01 : ... .. . Z30 ...
ROW 3D : ... .. . ... ... : ... .. . ... ... : ... .. . ... : ... .. . ... : ... .. . Z30 ...
ROW 3E : ... .. 0 ... ... : ... .. 0 ... ... : --- .. . ... : ... .. . ... : ... .. . Z30 ...
ROW 3F : B-3 00 0 P7E ... : G-4 00 0 P80 ... : E-4 00 . P7F : ... .. . ... : ... .. . Z30 ...
ROW 40 : ... .. 8 ... ... : ... .. 8 ... ... : ... .. . ... : ... .. . ... : ... .. . Z30 ...
ROW 41 : ... .. 7 ... ... : ... .. 7 ... ... : ... .. . ... : ... .. . ... : ... .. . Z30 ...
ROW 42 : ... .. 6 ... ... : ... .. 6 ... ... : ... .. . ... : C-# 00 C V00 : ... .. . Z30 ...
ROW 43 : ... .. 5 ... ... : ... .. 5 ... ... : ... .. . ... : ... .. 0 ... : ... .. . Z30 ...
ROW 44 : ... .. . ... ... : ... .. . ... ... : ... .. . ... : ... .. . ... : ... .. . Z30 ...
ROW 45 : ... .. 4 ... ... : ... .. 4 ... ... : ... .. . ... : ... .. . ... : ... .. . Z30 ...
ROW 46 : ... .. . ... ... : ... .. . ... ... : ... .. . ... : ... .. . ... : ... .. . Z30 ...
ROW 47 : ... .. 0 ... ... : ... .. 0 ... ... : --- .. . ... : ... .. . ... : ... .. . Z30 ...
ROW 48 : ... .. . ... ... : ... .. . ... ... : ... .. . ... : 3-# 00 C ... : ... .. . Z30 ...
ROW 49 : ... .. . ... ... : ... .. . ... ... : ... .. . ... : ... .. 0 ... : ... .. . Z30 ...
ROW 4A : ... .. . ... ... : ... .. . ... ... : ... .. . ... : ... .. . ... : ... .. . Z30 ...
ROW 4B : ... .. . ... ... : ... .. . ... ... : ... .. . ... : ... .. . ... : ... .. . Z30 ...
ROW 4C : ... .. . ... ... : ... .. . ... ... : ... .. . ... : ... .. . ... : ... .. . Z30 ...
ROW 4D : ... .. . ... ... : ... .. . ... ... : ... .. . ... : ... .. . ... : ... .. . Z30 ...
ROW 4E : ... .. . ... ... : ... .. . ... ... : ... .. . ... : ... .. . ... : ... .. . Z30 ...
ROW 4F : ... .. . ... ... : ... .. . ... ... : ... .. . ... : ... .. . ... : ... .. . Z30 ...
ROW 50 : ... .. . ... ... : ... .. . ... ... : ... .. . ... : ... .. . ... : ... .. . Z30 ...
ROW 51 : A-3 00 0 P7E ... : E-4 00 0 P7F ... : C-4 00 . P80 : ... .. . ... : ... .. . Z30 ...
ROW 52 : ... .. 8 ... ... : ... .. 8 ... ... : ... .. . ... : ... .. . ... : ... .. . Z30 ...
ROW 53 : ... .. 7 ... ... : ... .. 7 ... ... : ... .. . ... : ... .. . ... : ... .. . Z30 ...
ROW 54 : ... .. 6 ... ... : ... .. 6 ... ... : ... .. . ... : ... .. . ... : ... .. . Z30 ...
ROW 55 : ... .. 5 ... ... : ... .. 5 ... ... : ... .. . ... : ... .. . ... : ... .. . Z30 ...
ROW 56 : ... .. . ... ... : ... .. . ... ... : ... .. . ... : ... .. . ... : ... .. . Z30 ...
ROW 57 : ... .. 4 ... ... : ... .. 4 ... ... : ... .. . ... : ... .. . ... : ... .. . Z30 ...
ROW 58 : ... .. . ... ... : ... .. . ... ... : ... .. . ... : ... .. . ... : ... .. . Z30 ...
ROW 59 : ... .. 0 ... ... : ... .. 0 ... ... : --- .. . ... : ... .. . ... : ... .. . Z30 ...
ROW 5A : ... .. . ... ... : ... .. . ... ... : ... .. . ... : C-# 00 C ... : ... .. . Z30 ...
ROW 5B : ... .. . ... ... : ... .. . ... ... : ... .. . ... : ... .. 0 ... : ... .. . Z30 ...
ROW 5C : ... .. . ... ... : ... .. . ... ... : ... .. . ... : ... .. . ... : ... .. . Z30 ...
ROW 5D : ... .. . ... ... : ... .. . ... ... : ... .. . ... : ... .. . ... : ... .. . Z30 ...
ROW 5E : ... .. . ... ... : ... .. . ... ... : ... .. . ... : ... .. . ... : ... .. . Z30 ...
ROW 5F : ... .. . ... ... : ... .. . ... ... : ... .. . ... : ... .. . ... : ... .. . Z30 ...
ROW 60 : ... .. . ... ... : ... .. . ... ... : ... .. . ... : B-# 00 0 V01 : ... .. . Z30 ...
ROW 61 : ... .. . ... ... : ... .. . ... ... : ... .. . ... : ... .. . ... : ... .. . Z30 ...
ROW 62 : ... .. . ... ... : ... .. . ... ... : ... .. . ... : ... .. . ... : ... .. . Z30 ...
ROW 63 : E-3 00 0 P7D ... : C-4 00 0 P80 ... : A-3 00 . P7E : ... .. . ... : ... .. . Z30 ...
ROW 64 : ... .. 8 ... ... : ... .. 8 ... ... : ... .. . ... : ... .. . ... : ... .. . Z30 ...
ROW 65 : ... .. 7 ... ... : ... .. 7 ... ... : ... .. . ... : ... .. . ... : ... .. . Z30 ...
ROW 66 : ... .. 6 ... ... : ... .. 6 ... ... : ... .. . ... : C-# 00 C V00 : ... .. . Z30 ...
ROW 67 : ... .. 5 ... ... : ... .. 5 ... ... : ... .. . ... : ... .. 0 ... : ... .. . Z30 ...
ROW 68 : ... .. . ... ... : ... .. . ... ... : ... .. . ... : ... .. . ... : ... .. . Z30 ...
ROW 69 : ... .. 4 ... ... : ... .. 4 ... ... : ... .. . ... : ... .. . ... : ... .. . Z30 ...
ROW 6A : ... .. . ... ... : ... .. . ... ... : ... .. . ... : ... .. . ... : ... .. . Z30 ...
ROW 6B : ... .. 0 ... ... : ... .. 0 ... ... : --- .. . ... : ... .. . ... : ... .. . Z30 ...
ROW 6C : F-3 00 0 P80 ... : D-4 00 0 P80 ... : B-3 00 . P7E : ... .. C ... : ... .. . Z30 ...
ROW 6D : ... .. 8 ... ... : ... .. 8 ... ... : ... .. . ... : ... .. . ... : ... .. . Z30 ...
ROW 6E : ... .. 7 ... ... : ... .. 7 ... ... : ... .. . ... : ... .. . ... : ... .. . Z30 ...
ROW 6F : ... .. 6 ... ... : ... .. 6 ... ... : ... .. . ... : ... .. . ... : ... .. . Z30 ...
ROW 70 : ... .. 5 ... ... : ... .. 5 ... ... : ... .. . ... : ... .. . ... : ... .. . Z30 ...
ROW 71 : ... .. . ... ... : ... .. . ... ... : ... .. . ... : ... .. 0 ... : ... .. . Z30 ...
ROW 72 : ... .. 4 ... ... : ... .. 4 ... ... : ... .. . ... : ... .. . ... : ... .. . Z30 ...
ROW 73 : ... .. . ... ... : ... .. . ... ... : ... .. . ... : ... .. . ... : ... .. . Z30 ...
ROW 74 : ... .. 0 ... ... : ... .. 0 ... ... : --- .. . ... : ... .. . ... : ... .. . Z30 ...
ROW 75 : D-3 00 0 P81 ... : B-3 00 0 P7E ... : G-3 00 . P80 : ... .. . ... : ... .. . Z30 ...
ROW 76 : ... .. 8 ... ... : ... .. 8 ... ... : ... .. . ... : ... .. . ... : ... .. . Z30 ...
ROW 77 : ... .. 7 ... ... : ... .. 7 ... ... : ... .. . ... : ... .. . ... : ... .. . Z30 ...
ROW 78 : ... .. 6 ... ... : ... .. 6 ... ... : ... .. . ... : ... .. . ... : ... .. . Z30 ...
ROW 79 : ... .. 5 ... ... : ... .. 5 ... ... : ... .. . ... : ... .. . ... : ... .. . Z30 ...
ROW 7A : ... .. . ... ... : ... .. . ... ... : ... .. . ... : ... .. . ... : ... .. . Z30 ...
ROW 7B : ... .. 4 ... ... : ... .. 4 ... ... : ... .. . ... : ... .. . ... : ... .. . Z30 ...
ROW 7C : ... .. . ... ... : ... .. . ... ... : ... .. . ... : ... .. . ... : ... .. . Z30 ...
ROW 7D : ... .. 0 ... ... : ... .. 0 ... ... : --- .. . ... : ... .. . ... : ... .. . Z30 ...
ROW 7E : ... .. . ... ... : ... .. . ... ... : ... .. . ... : ... .. C ... : ... .. . Z30 ...
ROW 7F : ... .. . ... ... : ... .. . ... ... : ... .. . ... : ... .. 0 ... : ... .. . Z30 ...
ROW 80 : ... .. . ... ... : ... .. . ... ... : ... .. . ... : ... .. . ... : ... .. . Z30 ...
ROW 81 : ... .. . ... ... : ... .. . ... ... : ... .. . ... : ... .. . ... : ... .. . Z30 ...
ROW 82 : ... .. . ... ... : ... .. . ... ... : ... .. . ... : ... .. . ... : ... .. . Z30 ...
ROW 83 : ... .. . ... ... : ... .. . ... ... : ... .. . ... : ... .. . ... : ... .. . Z30 ...
ROW 84 : ... .. . ... ... : ... .. . ... ... : ... .. . ... : B-# 00 0 V01 : ... .. . Z30 ...
ROW 85 : ... .. . ... ... : ... .. . ... ... : ... .. . ... : ... .. . ... : ... .. . Z30 ...
ROW 86 : ... .. . ... ... : ... .. . ... ... : ... .. . ... : ... .. . ... : ... .. . Z30 ...
ROW 87 : ... .. . ... ... : ... .. . ... ... : ... .. . ... : ... .. . ... : ... .. . Z30 ...
ROW 88 : ... .. . ... ... : ... .. . ... ... : ... .. . ... : ... .. . ... : ... .. . Z30 ...
ROW 89 : ... .. . ... ... : ... .. . ... ... : ... .. . ... : ... .. . ... : ... .. . Z30 ...
ROW 8A : ... .. . ... ... : ... .. . ... ... : ... .. . ... : C-# 00 C V00 : ... .. . Z30 ...
ROW 8B : ... .. . ... ... : ... .. . ... ... : ... .. . ... : ... .. 0 ... : ... .. . Z30 ...
ROW 8C : ... .. . ... ... : ... .. . ... ... : ... .. . ... : ... .. . ... : ... .. . Z30 ...
ROW 8D : ... .. . ... ... : ... .. . ... ... : ... .. . ... : ... .. . ... : ... .. . Z30 ...
ROW 8E : ... .. . ... ... : ... .. . ... ... : ... .. . ... : ... .. . ... : ... .. . Z30 ...
ROW 8F : ... .. . ... ... : ... .. . ... ... : ... .. . ... : ... .. . ... : ... .. . Z30 ...

PATTERN 05
ROW 00 : ... .. . ... ... : ... .. . ... ... : C-3 00 . P80 : 3-# 00 C ... : ... .. . Z30 ...
ROW 01 : ... .. . ... ... : ... .. . ... ... : ... .. . ... : ... .. 0 ... : ... .. . Z30 ...
ROW 02 : ... .. . ... ... : ... .. . ... ... : ... .. . ... : ... .. . ... : ... .. . Z30 ...
ROW 03 : ... .. . ... ... : ... .. . ... ... : ... .. . ... : ... .. . ... : ... .. . Z30 ...
ROW 04 : ... .. . ... ... : ... .. . ... ... : ... .. . ... : ... .. . ... : ... .. . Z30 ...
ROW 05 : ... .. . ... ... : ... .. . ... ... : ... .. . ... : ... .. . ... : ... .. . Z30 ...
ROW 06 : ... .. . ... ... : ... .. . ... ... : ... .. . ... : ... .. . ... : ... .. . Z30 ...
ROW 07 : ... .. . ... ... : ... .. . ... ... : ... .. . ... : ... .. . ... : ... .. . Z30 ...
ROW 08 : ... .. . ... ... : ... .. . ... ... : --- .. . ... : ... .. . ... : ... .. . Z30 ...
ROW 09 : ... .. . ... ... : ... .. . ... ... : ... .. . ... : ... .. . ... : ... .. . Z30 ...
ROW 0A : ... .. . ... ... : ... .. . ... ... : ... .. . ... : ... .. . ... : ... .. . Z30 ...
ROW 0B : ... .. . ... ... : ... .. . ... ... : ... .. . ... : ... .. . ... : ... .. . Z30 ...
ROW 0C : ... .. . ... ... : ... .. . ... ... : ... .. . ... : ... .. . ... : ... .. . Z30 ...
ROW 0D : ... .. . ... ... : ... .. . ... ... : ... .. . ... : ... .. . ... : ... .. . Z30 ...
ROW 0E : ... .. . ... ... : ... .. . ... ... : ... .. . ... : ... .. . ... : ... .. . Z30 ...
ROW 0F : ... .. . ... ... : ... .. . ... ... : ... .. . ... : ... .. . ... : ... .. . Z30 ...
ROW 10 : ... .. . ... ... : ... .. . ... ... : ... .. . ... : ... .. . ... : ... .. . Z30 ...
ROW 11 : ... .. . ... ... : ... .. . ... ... : ... .. . ... : ... .. . ... : ... .. . Z30 ...
ROW 12 : E-4 00 0 P7F ... : G-4 00 0 P80 ... : ... .. . ... : C-# 00 C ... : ... .. . Z30 ...
ROW 13 : ... .. 8 ... ... : ... .. 8 ... ... : ... .. . ... : ... .. 0 ... : ... .. . Z30 ...
ROW 14 : ... .. 7 ... ... : ... .. 7 ... ... : ... .. . ... : ... .. . ... : ... .. . Z30 ...
ROW 15 : ... .. 6 ... ... : ... .. 6 ... ... : ... .. . ... : ... .. . ... : ... .. . Z30 ...
ROW 16 : ... .. 5 ... ... : ... .. 5 ... ... : ... .. . ... : ... .. . ... : ... .. . Z30 ...
ROW 17 : ... .. . ... ... : ... .. . ... ... : ... .. . ... : ... .. . ... : ... .. . Z30 ...
ROW 18 : ... .. 4 ... ... : ... .. 4 ... ... : ... .. . ... : B-# 00 0 V01 : ... .. . Z30 ...
ROW 19 : ... .. . ... ... : ... .. . ... ... : ... .. . ... : ... .. . ... : ... .. . Z30 ...
ROW 1A : ... .. 0 ... ... : ... .. 0 ... ... : ... .. . ... : ... .. . ... : ... .. . Z30 ...
ROW 1B : D#4 00 0 P82 ... : F#4 00 0 P7E ... : G-3 00 . P80 : ... .. . ... : ... .. . Z30 ...
ROW 1C : ... .. 8 ... ... : ... .. 8 ... ... : ... .. . ... : ... .. . ... : ... .. . Z30 ...
ROW 1D : ... .. 7 ... ... : ... .. 7 ... ... : ... .. . ... : ... .. . ... : ... .. . Z30 ...
ROW 1E : ... .. 6 ... ... : ... .. 6 ... ... : ... .. . ... : C-# 00 C V00 : ... .. . Z30 ...
ROW 1F : ... .. 5 ... ... : ... .. 5 ... ... : ... .. . ... : ... .. 0 ... : ... .. . Z30 ...
ROW 20 : ... .. . ... ... : ... .. . ... ... : ... .. . ... : ... .. . ... : ... .. . Z30 ...
ROW 21 : ... .. 4 ... ... : ... .. 4 ... ... : ... .. . ... : ... .. . ... : ... .. . Z30 ...
ROW 22 : ... .. . ... ... : ... .. . ... ... : ... .. . ... : ... .. . ... : ... .. . Z30 ...
ROW 23 : ... .. 0 ... ... : ... .. 0 ... ... : --- .. . ... : ... .. . ... : ... .. . Z30 ...
ROW 24 : D-4 00 0 P80 ... : F-4 00 0 P80 ... : ... .. . ... : ... .. C ... : ... .. . Z30 ...
ROW 25 : ... .. 8 ... ... : ... .. 8 ... ... : ... .. . ... : ... .. . ... : ... .. . Z30 ...
ROW 26 : ... .. 7 ... ... : ... .. 7 ... ... : ... .. . ... : ... .. . ... : ... .. . Z30 ...
ROW 27 : ... .. 6 ... ... : ... .. 6 ... ... : ... .. . ... : ... .. . ... : ... .. . Z30 ...
ROW 28 : ... .. 5 ... ... : ... .. 5 ... ... : ... .. . ... : ... .. . ... : ... .. . Z30 ...
ROW 29 : ... .. . ... ... : ... .. . ... ... : ... .. . ... : ... .. 0 ... : ... .. . Z30 ...
ROW 2A : ... .. 4 ... ... : ... .. 4 ... ... : ... .. . ... : ... .. . ... : ... .. . Z30 ...
ROW 2B : ... .. . ... ... : ... .. . ... ... : ... .. . ... : ... .. . ... : ... .. . Z30 ...
ROW 2C : ... .. 0 ... ... : ... .. 0 ... ... : ... .. . ... : ... .. . ... : ... .. . Z30 ...
ROW 2D : B-3 00 0 P7E ... : D#4 00 0 P82 ... : ... .. . ... : ... .. . ... : ... .. . Z30 ...
ROW 2E : ... .. 8 ... ... : ... .. 8 ... ... : ... .. . ... : ... .. . ... : ... .. . Z30 ...
ROW 2F : ... .. 7 ... ... : ... .. 7 ... ... : ... .. . ... : ... .. . ... : ... .. . Z30 ...
ROW 30 : ... .. 6 ... ... : ... .. 6 ... ... : ... .. . ... : ... .. . ... : ... .. . Z30 ...
ROW 31 : ... .. 5 ... ... : ... .. 5 ... ... : ... .. . ... : ... .. . ... : ... .. . Z30 ...
ROW 32 : ... .. . ... ... : ... .. . ... ... : ... .. . ... : ... .. . ... : ... .. . Z30 ...
ROW 33 : ... .. 4 ... ... : ... .. 4 ... ... : ... .. . ... : ... .. . ... : ... .. . Z30 ...
ROW 34 : ... .. . ... ... : ... .. . ... ... : ... .. . ... : ... .. . ... : ... .. . Z30 ...
ROW 35 : ... .. 0 ... ... : ... .. 0 ... ... : ... .. . ... : ... .. . ... : ... .. . Z30 ...
ROW 36 : ... .. . ... ... : ... .. . ... ... : C-4 00 . P80 : ... .. C ... : ... .. . Z30 ...
ROW 37 : ... .. . ... ... : ... .. . ... ... : ... .. . ... : ... .. 0 ... : ... .. . Z30 ...
ROW 38 : ... .. . ... ... : ... .. . ... ... : ... .. . ... : ... .. . ... : ... .. . Z30 ...
ROW 39 : ... .. . ... ... : ... .. . ... ... : ... .. . ... : ... .. . ... : ... .. . Z30 ...
ROW 3A : ... .. . ... ... : ... .. . ... ... : ... .. . ... : ... .. . ... : ... .. . Z30 ...
ROW 3B : ... .. . ... ... : ... .. . ... ... : ... .. . ... : ... .. . ... : ... .. . Z30 ...
ROW 3C : ... .. . ... ... : ... .. . ... ... : ... .. . ... : B-# 00 0 V01 : ... .. . Z30 ...
ROW 3D : ... .. . ... ... : ... .. . ... ... : ... .. . ... : ... .. . ... : ... .. . Z30 ...
ROW 3E : ... .. . ... ... : ... .. . ... ... : --- .. . ... : ... .. . ... : ... .. . Z30 ...
ROW 3F : C-4 00 0 P80 ... : E-4 00 0 P7F ... : ... .. . ... : ... .. . ... : ... .. . Z30 ...
ROW 40 : ... .. 8 ... ... : ... .. 8 ... ... : ... .. . ... : ... .. . ... : ... .. . Z30 ...
ROW 41 : ... .. 7 ... ... : ... .. 7 ... ... : ... .. . ... : ... .. . ... : ... .. . Z30 ...
ROW 42 : ... .. 6 ... ... : ... .. 6 ... ... : ... .. . ... : C-# 00 C V00 : ... .. . Z30 ...
ROW 43 : ... .. 5 ... ... : ... .. 5 ... ... : ... .. . ... : ... .. 0 ... : ... .. . Z30 ...
ROW 44 : ... .. . ... ... : ... .. . ... ... : ... .. . ... : ... .. . ... : ... .. . Z30 ...
ROW 45 : ... .. 4 ... ... : ... .. 4 ... ... : ... .. . ... : ... .. . ... : ... .. . Z30 ...
ROW 46 : ... .. . ... ... : ... .. . ... ... : ... .. . ... : ... .. . ... : ... .. . Z30 ...
ROW 47 : ... .. 0 ... ... : ... .. 0 ... ... : ... .. . ... : ... .. . ... : ... .. . Z30 ...
ROW 48 : ... .. . ... ... : ... .. . ... ... : F-3 00 . P80 : 3-# 00 C ... : ... .. . Z30 ...
ROW 49 : ... .. . ... ... : ... .. . ... ... : ... .. . ... : ... .. 0 ... : ... .. . Z30 ...
ROW 4A : ... .. . ... ... : ... .. . ... ... : ... .. . ... : ... .. . ... : ... .. . Z30 ...
ROW 4B : ... .. . ... ... : ... .. . ... ... : ... .. . ... : ... .. . ... : ... .. . Z30 ...
ROW 4C : ... .. . ... ... : ... .. . ... ... : ... .. . ... : ... .. . ... : ... .. . Z30 ...
ROW 4D : ... .. . ... ... : ... .. . ... ... : ... .. . ... : ... .. . ... : ... .. . Z30 ...
ROW 4E : ... .. . ... ... : ... .. . ... ... : ... .. . ... : ... .. . ... : ... .. . Z30 ...
ROW 4F : ... .. . ... ... : ... .. . ... ... : ... .. . ... : ... .. . ... : ... .. . Z30 ...
ROW 50 : ... .. . ... ... : ... .. . ... ... : --- .. . ... : ... .. . ... : ... .. . Z30 ...
ROW 51 : E-3 00 0 P7D ... : G#3 00 0 P82 ... : ... .. . ... : ... .. . ... : ... .. . Z30 ...
ROW 52 : ... .. 8 ... ... : ... .. 8 ... ... : ... .. . ... : ... .. . ... : ... .. . Z30 ...
ROW 53 : ... .. 7 ... ... : ... .. 7 ... ... : ... .. . ... : ... .. . ... : ... .. . Z30 ...
ROW 54 : ... .. 6 ... ... : ... .. 6 ... ... : ... .. . ... : ... .. . ... : ... .. . Z30 ...
ROW 55 : ... .. 5 ... ... : ... .. 5 ... ... : ... .. . ... : ... .. . ... : ... .. . Z30 ...
ROW 56 : ... .. . ... ... : ... .. . ... ... : ... .. . ... : ... .. . ... : ... .. . Z30 ...
ROW 57 : ... .. 4 ... ... : ... .. 4 ... ... : ... .. . ... : ... .. . ... : ... .. . Z30 ...
ROW 58 : ... .. . ... ... : ... .. . ... ... : ... .. . ... : ... .. . ... : ... .. . Z30 ...
ROW 59 : ... .. 0 ... ... : ... .. 0 ... ... : ... .. . ... : ... .. . ... : ... .. . Z30 ...
ROW 5A : F-3 00 0 P80 ... : A-3 00 0 P7E ... : ... .. . ... : C-# 00 C ... : ... .. . Z30 ...
ROW 5B : ... .. 8 ... ... : ... .. 8 ... ... : ... .. . ... : ... .. 0 ... : ... .. . Z30 ...
ROW 5C : ... .. 7 ... ... : ... .. 7 ... ... : ... .. . ... : ... .. . ... : ... .. . Z30 ...
ROW 5D : ... .. 6 ... ... : ... .. 6 ... ... : ... .. . ... : ... .. . ... : ... .. . Z30 ...
ROW 5E : ... .. 5 ... ... : ... .. 5 ... ... : ... .. . ... : ... .. . ... : ... .. . Z30 ...
ROW 5F : ... .. . ... ... : ... .. . ... ... : ... .. . ... : ... .. . ... : ... .. . Z30 ...
ROW 60 : ... .. 4 ... ... : ... .. 4 ... ... : ... .. . ... : B-# 00 0 V01 : ... .. . Z30 ...
ROW 61 : ... .. . ... ... : ... .. . ... ... : ... .. . ... : ... .. . ... : ... .. . Z30 ...
ROW 62 : ... .. 0 ... ... : ... .. 0 ... ... : ... .. . ... : ... .. . ... : ... .. . Z30 ...
ROW 63 : G-3 00 0 P80 ... : C-4 00 0 P80 ... : C-4 00 . P80 : ... .. . ... : ... .. . Z30 ...
ROW 64 : ... .. 8 ... ... : ... .. 8 ... ... : ... .. . ... : ... .. . ... : ... .. . Z30 ...
ROW 65 : ... .. 7 ... ... : ... .. 7 ... ... : ... .. . ... : ... .. . ... : ... .. . Z30 ...
ROW 66 : ... .. 6 ... ... : ... .. 6 ... ... : ... .. . ... : C-# 00 C V00 : ... .. . Z30 ...
ROW 67 : ... .. 5 ... ... : ... .. 5 ... ... : ... .. . ... : ... .. 0 ... : ... .. . Z30 ...
ROW 68 : ... .. . ... ... : ... .. . ... ... : ... .. . ... : ... .. . ... : ... .. . Z30 ...
ROW 69 : ... .. 4 ... ... : ... .. 4 ... ... : ... .. . ... : ... .. . ... : ... .. . Z30 ...
ROW 6A : ... .. . ... ... : ... .. . ... ... : ... .. . ... : ... .. . ... : ... .. . Z30 ...
ROW 6B : ... .. 0 ... ... : ... .. 0 ... ... : --- .. . ... : ... .. . ... : ... .. . Z30 ...
ROW 6C : ... .. . ... ... : ... .. . ... ... : C-4 00 . P80 : ... .. C ... : ... .. . Z30 ...
ROW 6D : ... .. . ... ... : ... .. . ... ... : ... .. . ... : ... .. . ... : ... .. . Z30 ...
ROW 6E : ... .. . ... ... : ... .. . ... ... : ... .. . ... : ... .. . ... : ... .. . Z30 ...
ROW 6F : ... .. . ... ... : ... .. . ... ... : ... .. . ... : ... .. . ... : ... .. . Z30 ...
ROW 70 : ... .. . ... ... : ... .. . ... ... : ... .. . ... : ... .. . ... : ... .. . Z30 ...
ROW 71 : ... .. . ... ... : ... .. . ... ... : ... .. . ... : ... .. 0 ... : ... .. . Z30 ...
ROW 72 : ... .. . ... ... : ... .. . ... ... : ... .. . ... : ... .. . ... : ... .. . Z30 ...
ROW 73 : ... .. . ... ... : ... .. . ... ... : ... .. . ... : ... .. . ... : ... .. . Z30 ...
ROW 74 : ... .. . ... ... : ... .. . ... ... : --- .. . ... : ... .. . ... : ... .. . Z30 ...
ROW 75 : C-3 00 0 P80 ... : A-3 00 0 P7E ... : ... .. . ... : ... .. . ... : ... .. . Z30 ...
ROW 76 : ... .. 8 ... ... : ... .. 8 ... ... : ... .. . ... : ... .. . ... : ... .. . Z30 ...
ROW 77 : ... .. 7 ... ... : ... .. 7 ... ... : ... .. . ... : ... .. . ... : ... .. . Z30 ...
ROW 78 : ... .. 6 ... ... : ... .. 6 ... ... : ... .. . ... : ... .. . ... : ... .. . Z30 ...
ROW 79 : ... .. 5 ... ... : ... .. 5 ... ... : ... .. . ... : ... .. . ... : ... .. . Z30 ...
ROW 7A : ... .. . ... ... : ... .. . ... ... : ... .. . ... : ... .. . ... : ... .. . Z30 ...
ROW 7B : ... .. 4 ... ... : ... .. 4 ... ... : ... .. . ... : ... .. . ... : ... .. . Z30 ...
ROW 7C : ... .. . ... ... : ... .. . ... ... : ... .. . ... : ... .. . ... : ... .. . Z30 ...
ROW 7D : ... .. 0 ... ... : ... .. 0 ... ... : ... .. . ... : ... .. . ... : ... .. . Z30 ...
ROW 7E : E-3 00 0 P7D ... : C-4 00 0 P80 ... : F-3 00 . P80 : ... .. C ... : ... .. . Z30 ...
ROW 7F : ... .. 8 ... ... : ... .. 8 ... ... : ... .. . ... : ... .. 0 ... : ... .. . Z30 ...
ROW 80 : ... .. 7 ... ... : ... .. 7 ... ... : ... .. . ... : ... .. . ... : ... .. . Z30 ...
ROW 81 : ... .. 6 ... ... : ... .. 6 ... ... : ... .. . ... : ... .. . ... : ... .. . Z30 ...
ROW 82 : ... .. 5 ... ... : ... .. 5 ... ... : ... .. . ... : ... .. . ... : ... .. . Z30 ...
ROW 83 : ... .. . ... ... : ... .. . ... ... : ... .. . ... : ... .. . ... : ... .. . Z30 ...
ROW 84 : ... .. 4 ... ... : ... .. 4 ... ... : ... .. . ... : B-# 00 0 V01 : ... .. . Z30 ...
ROW 85 : ... .. . ... ... : ... .. . ... ... : ... .. . ... : ... .. . ... : ... .. . Z30 ...
ROW 86 : ... .. 0 ... ... : ... .. 0 ... ... : --- .. . ... : ... .. . ... : ... .. . Z30 ...
ROW 87 : F-3 00 0 P80 ... : D-4 00 0 P80 ... : ... .. . ... : ... .. . ... : ... .. . Z30 ...
ROW 88 : ... .. 8 ... ... : ... .. 8 ... ... : ... .. . ... : ... .. . ... : ... .. . Z30 ...
ROW 89 : ... .. 7 ... ... : ... .. 7 ... ... : ... .. . ... : ... .. . ... : ... .. . Z30 ...
ROW 8A : ... .. 6 ... ... : ... .. 6 ... ... : ... .. . ... : C-# 00 C V00 : ... .. . Z30 ...
ROW 8B : ... .. 5 ... ... : ... .. 5 ... ... : ... .. . ... : ... .. 0 ... : ... .. . Z30 ...
ROW 8C : ... .. . ... ... : ... .. . ... ... : ... .. . ... : ... .. . ... : ... .. . Z30 ...
ROW 8D : ... .. 4 ... ... : ... .. 4 ... ... : ... .. . ... : ... .. . ... : ... .. . Z30 ...
ROW 8E : ... .. . ... ... : ... .. . ... ... : ... .. . ... : ... .. . ... : ... .. . Z30 ...
ROW 8F : ... .. 0 ... ... : ... .. 0 ... ... : ... .. . ... : ... .. . ... : ... .. . Z30 ...

PATTERN 06
ROW 00 : ... .. . ... ... : ... .. . ... ... : C-3 00 . P80 : 3-# 00 C ... : ... .. . Z30 ...
ROW 01 : ... .. . ... ... : ... .. . ... ... : ... .. . ... : ... .. 0 ... : ... .. . Z30 ...
ROW 02 : ... .. . ... ... : ... .. . ... ... : ... .. . ... : ... .. . ... : ... .. . Z30 ...
ROW 03 : ... .. . ... ... : ... .. . ... ... : ... .. . ... : ... .. . ... : ... .. . Z30 ...
ROW 04 : ... .. . ... ... : ... .. . ... ... : ... .. . ... : ... .. . ... : ... .. . Z30 ...
ROW 05 : ... .. . ... ... : ... .. . ... ... : ... .. . ... : ... .. . ... : ... .. . Z30 ...
ROW 06 : ... .. . ... ... : ... .. . ... ... : ... .. . ... : ... .. . ... : ... .. . Z30 ...
ROW 07 : ... .. . ... ... : ... .. . ... ... : ... .. . ... : ... .. . ... : ... .. . Z30 ...
ROW 08 : ... .. . ... ... : ... .. . ... ... : --- .. . ... : ... .. . ... : ... .. . Z30 ...
ROW 09 : ... .. . ... ... : ... .. . ... ... : ... .. . ... : ... .. . ... : ... .. . Z30 ...
ROW 0A : ... .. . ... ... : ... .. . ... ... : ... .. . ... : ... .. . ... : ... .. . Z30 ...
ROW 0B : ... .. . ... ... : ... .. . ... ... : ... .. . ... : ... .. . ... : ... .. . Z30 ...
ROW 0C : ... .. . ... ... : ... .. . ... ... : ... .. . ... : ... .. . ... : ... .. . Z30 ...
ROW 0D : ... .. . ... ... : ... .. . ... ... : ... .. . ... : ... .. . ... : ... .. . Z30 ...
ROW 0E : ... .. . ... ... : ... .. . ... ... : ... .. . ... : ... .. . ... : ... .. . Z30 ...
ROW 0F : ... .. . ... ... : ... .. . ... ... : ... .. . ... : ... .. . ... : ... .. . Z30 ...
ROW 10 : ... .. . ... ... : ... .. . ... ... : ... .. . ... : ... .. . ... : ... .. . Z30 ...
ROW 11 : ... .. . ... ... : ... .. . ... ... : ... .. . ... : ... .. . ... : ... .. . Z30 ...
ROW 12 : E-4 00 0 P7F ... : G-4 00 0 P80 ... : ... .. . ... : C-# 00 C ... : ... .. . Z30 ...
ROW 13 : ... .. 8 ... ... : ... .. 8 ... ... : ... .. . ... : ... .. 0 ... : ... .. . Z30 ...
ROW 14 : ... .. 7 ... ... : ... .. 7 ... ... : ... .. . ... : ... .. . ... : ... .. . Z30 ...
ROW 15 : ... .. 6 ... ... : ... .. 6 ... ... : ... .. . ... : ... .. . ... : ... .. . Z30 ...
ROW 16 : ... .. 5 ... ... : ... .. 5 ... ... : ... .. . ... : ... .. . ... : ... .. . Z30 ...
ROW 17 : ... .. . ... ... : ... .. . ... ... : ... .. . ... : ... .. . ... : ... .. . Z30 ...
ROW 18 : ... .. 4 ... ... : ... .. 4 ... ... : ... .. . ... : B-# 00 0 V01 : ... .. . Z30 ...
ROW 19 : ... .. . ... ... : ... .. . ... ... : ... .. . ... : ... .. . ... : ... .. . Z30 ...
ROW 1A : ... .. 0 ... ... : ... .. 0 ... ... : ... .. . ... : ... .. . ... : ... .. . Z30 ...
ROW 1B : D#4 00 0 P82 ... : F#4 00 0 P7E ... : E-3 00 . P7D : ... .. . ... : ... .. . Z30 ...
ROW 1C : ... .. 8 ... ... : ... .. 8 ... ... : ... .. . ... : ... .. . ... : ... .. . Z30 ...
ROW 1D : ... .. 7 ... ... : ... .. 7 ... ... : ... .. . ... : ... .. . ... : ... .. . Z30 ...
ROW 1E : ... .. 6 ... ... : ... .. 6 ... ... : ... .. . ... : C-# 00 C V00 : ... .. . Z30 ...
ROW 1F : ... .. 5 ... ... : ... .. 5 ... ... : ... .. . ... : ... .. 0 ... : ... .. . Z30 ...
ROW 20 : ... .. . ... ... : ... .. . ... ... : ... .. . ... : ... .. . ... : ... .. . Z30 ...
ROW 21 : ... .. 4 ... ... : ... .. 4 ... ... : ... .. . ... : ... .. . ... : ... .. . Z30 ...
ROW 22 : ... .. . ... ... : ... .. . ... ... : ... .. . ... : ... .. . ... : ... .. . Z30 ...
ROW 23 : ... .. 0 ... ... : ... .. 0 ... ... : --- .. . ... : ... .. . ... : ... .. . Z30 ...
ROW 24 : D-4 00 0 P80 ... : F-4 00 0 P80 ... : ... .. . ... : ... .. C ... : ... .. . Z30 ...
ROW 25 : ... .. 8 ... ... : ... .. 8 ... ... : ... .. . ... : ... .. . ... : ... .. . Z30 ...
ROW 26 : ... .. 7 ... ... : ... .. 7 ... ... : ... .. . ... : ... .. . ... : ... .. . Z30 ...
ROW 27 : ... .. 6 ... ... : ... .. 6 ... ... : ... .. . ... : ... .. . ... : ... .. . Z30 ...
ROW 28 : ... .. 5 ... ... : ... .. 5 ... ... : ... .. . ... : ... .. . ... : ... .. . Z30 ...
ROW 29 : ... .. . ... ... : ... .. . ... ... : ... .. . ... : ... .. 0 ... : ... .. . Z30 ...
ROW 2A : ... .. 4 ... ... : ... .. 4 ... ... : ... .. . ... : ... .. . ... : ... .. . Z30 ...
ROW 2B : ... .. . ... ... : ... .. . ... ... : ... .. . ... : ... .. . ... : ... .. . Z30 ...
ROW 2C : ... .. 0 ... ... : ... .. 0 ... ... : ... .. . ... : ... .. . ... : ... .. . Z30 ...
ROW 2D : B-3 00 0 P7E ... : D#4 00 0 P82 ... : ... .. . ... : ... .. . ... : ... .. . Z30 ...
ROW 2E : ... .. 8 ... ... : ... .. 8 ... ... : ... .. . ... : ... .. . ... : ... .. . Z30 ...
ROW 2F : ... .. 7 ... ... : ... .. 7 ... ... : ... .. . ... : ... .. . ... : ... .. . Z30 ...
ROW 30 : ... .. 6 ... ... : ... .. 6 ... ... : ... .. . ... : ... .. . ... : ... .. . Z30 ...
ROW 31 : ... .. 5 ... ... : ... .. 5 ... ... : ... .. . ... : ... .. . ... : ... .. . Z30 ...
ROW 32 : ... .. . ... ... : ... .. . ... ... : ... .. . ... : ... .. . ... : ... .. . Z30 ...
ROW 33 : ... .. 4 ... ... : ... .. 4 ... ... : ... .. . ... : ... .. . ... : ... .. . Z30 ...
ROW 34 : ... .. . ... ... : ... .. . ... ... : ... .. . ... : ... .. . ... : ... .. . Z30 ...
ROW 35 : ... .. 0 ... ... : ... .. 0 ... ... : ... .. . ... : ... .. . ... : ... .. . Z30 ...
ROW 36 : ... .. . ... ... : ... .. . ... ... : G-3 00 . P80 : ... .. C ... : ... .. . Z30 ...
ROW 37 : ... .. . ... ... : ... .. . ... ... : ... .. . ... : ... .. 0 ... : ... .. . Z30 ...
ROW 38 : ... .. . ... ... : ... .. . ... ... : ... .. . ... : ... .. . ... : ... .. . Z30 ...
ROW 39 : ... .. . ... ... : ... .. . ... ... : ... .. . ... : ... .. . ... : ... .. . Z30 ...
ROW 3A : ... .. . ... ... : ... .. . ... ... : ... .. . ... : ... .. . ... : ... .. . Z30 ...
ROW 3B : ... .. . ... ... : ... .. . ... ... : ... .. . ... : ... .. . ... : ... .. . Z30 ...
ROW 3C : ... .. . ... ... : ... .. . ... ... : ... .. . ... : B-# 00 0 V01 : ... .. . Z30 ...
ROW 3D : ... .. . ... ... : ... .. . ... ... : ... .. . ... : ... .. . ... : ... .. . Z30 ...
ROW 3E : ... .. . ... ... : ... .. . ... ... : --- .. . ... : ... .. . ... : ... .. . Z30 ...
ROW 3F : C-4 00 0 P80 ... : E-4 00 0 P7F ... : C-4 00 . P80 : ... .. . ... : ... .. . Z30 ...
ROW 40 : ... .. 8 ... ... : ... .. 8 ... ... : ... .. . ... : ... .. . ... : ... .. . Z30 ...
ROW 41 : ... .. 7 ... ... : ... .. 7 ... ... : ... .. . ... : ... .. . ... : ... .. . Z30 ...
ROW 42 : ... .. 6 ... ... : ... .. 6 ... ... : ... .. . ... : C-# 00 C V00 : ... .. . Z30 ...
ROW 43 : ... .. 5 ... ... : ... .. 5 ... ... : ... .. . ... : ... .. 0 ... : ... .. . Z30 ...
ROW 44 : ... .. . ... ... : ... .. . ... ... : ... .. . ... : ... .. . ... : ... .. . Z30 ...
ROW 45 : ... .. 4 ... ... : ... .. 4 ... ... : ... .. . ... : ... .. . ... : ... .. . Z30 ...
ROW 46 : ... .. . ... ... : ... .. . ... ... : ... .. . ... : ... .. . ... : ... .. . Z30 ...
ROW 47 : ... .. 0 ... ... : ... .. 0 ... ... : --- .. . ... : ... .. . ... : ... .. . Z30 ...
ROW 48 : ... .. . ... ... : ... .. . ... ... : ... .. . ... : 3-# 00 C ... : ... .. . Z30 ...
ROW 49 : ... .. . ... ... : ... .. . ... ... : ... .. . ... : ... .. 0 ... : ... .. . Z30 ...
ROW 4A : ... .. . ... ... : ... .. . ... ... : ... .. . ... : ... .. . ... : ... .. . Z30 ...
ROW 4B : ... .. . ... ... : ... .. . ... ... : ... .. . ... : ... .. . ... : ... .. . Z30 ...
ROW 4C : ... .. . ... ... : ... .. . ... ... : ... .. . ... : ... .. . ... : ... .. . Z30 ...
ROW 4D : ... .. . ... ... : ... .. . ... ... : ... .. . ... : ... .. . ... : ... .. . Z30 ...
ROW 4E : ... .. . ... ... : ... .. . ... ... : ... .. . ... : ... .. . ... : ... .. . Z30 ...
ROW 4F : ... .. . ... ... : ... .. . ... ... : ... .. . ... : ... .. . ... : ... .. . Z30 ...
ROW 50 : ... .. . ... ... : ... .. . ... ... : ... .. . ... : ... .. . ... : ... .. . Z30 ...
ROW 51 : F-4 00 0 P80 ... : C-5 00 0 P80 ... : G-5 00 . P80 : ... .. . ... : ... .. . Z30 ...
ROW 52 : ... .. 8 ... ... : ... .. 8 ... ... : ... .. . ... : ... .. . ... : ... .. . Z30 ...
ROW 53 : ... .. 7 ... ... : ... .. 7 ... ... : ... .. . ... : ... .. . ... : ... .. . Z30 ...
ROW 54 : ... .. 6 ... ... : ... .. 6 ... ... : ... .. . ... : ... .. . ... : ... .. . Z30 ...
ROW 55 : ... .. 5 ... ... : ... .. 5 ... ... : ... .. . ... : ... .. . ... : ... .. . Z30 ...
ROW 56 : ... .. . ... ... : ... .. . ... ... : ... .. . ... : ... .. . ... : ... .. . Z30 ...
ROW 57 : ... .. 4 ... ... : ... .. 4 ... ... : ... .. . ... : ... .. . ... : ... .. . Z30 ...
ROW 58 : ... .. . ... ... : ... .. . ... ... : ... .. . ... : ... .. . ... : ... .. . Z30 ...
ROW 59 : ... .. 0 ... ... : ... .. 0 ... ... : --- .. . ... : ... .. . ... : ... .. . Z30 ...
ROW 5A : ... .. . ... ... : ... .. . ... ... : ... .. . ... : C-# 00 C ... : ... .. . Z30 ...
ROW 5B : ... .. . ... ... : ... .. . ... ... : ... .. . ... : ... .. 0 ... : ... .. . Z30 ...
ROW 5C : ... .. . ... ... : ... .. . ... ... : ... .. . ... : ... .. . ... : ... .. . Z30 ...
ROW 5D : ... .. . ... ... : ... .. . ... ... : ... .. . ... : ... .. . ... : ... .. . Z30 ...
ROW 5E : ... .. . ... ... : ... .. . ... ... : ... .. . ... : ... .. . ... : ... .. . Z30 ...
ROW 5F : ... .. . ... ... : ... .. . ... ... : ... .. . ... : ... .. . ... : ... .. . Z30 ...
ROW 60 : ... .. . ... ... : ... .. . ... ... : ... .. . ... : B-# 00 0 V01 : ... .. . Z30 ...
ROW 61 : ... .. . ... ... : ... .. . ... ... : ... .. . ... : ... .. . ... : ... .. . Z30 ...
ROW 62 : ... .. . ... ... : ... .. . ... ... : ... .. . ... : ... .. . ... : ... .. . Z30 ...
ROW 63 : ... .. . ... ... : ... .. . ... ... : G-5 00 . P80 : ... .. . ... : ... .. . Z30 ...
ROW 64 : ... .. 8 ... ... : ... .. 8 ... ... : ... .. . ... : ... .. . ... : ... .. . Z30 ...
ROW 65 : ... .. 7 ... ... : ... .. 7 ... ... : ... .. . ... : ... .. . ... : ... .. . Z30 ...
ROW 66 : ... .. 6 ... ... : ... .. 6 ... ... : ... .. . ... : C-# 00 C V00 : ... .. . Z30 ...
ROW 67 : ... .. 5 ... ... : ... .. 5 ... ... : ... .. . ... : ... .. 0 ... : ... .. . Z30 ...
ROW 68 : ... .. . ... ... : ... .. . ... ... : ... .. . ... : ... .. . ... : ... .. . Z30 ...
ROW 69 : ... .. 4 ... ... : ... .. 4 ... ... : ... .. . ... : ... .. . ... : ... .. . Z30 ...
ROW 6A : ... .. . ... ... : ... .. . ... ... : ... .. . ... : ... .. . ... : ... .. . Z30 ...
ROW 6B : ... .. 0 ... ... : ... .. 0 ... ... : --- .. . ... : ... .. . ... : ... .. . Z30 ...
ROW 6C : ... .. . ... ... : ... .. . ... ... : G-5 00 . P80 : ... .. C ... : ... .. . Z30 ...
ROW 6D : ... .. 8 ... ... : ... .. 8 ... ... : ... .. . ... : ... .. . ... : ... .. . Z30 ...
ROW 6E : ... .. 7 ... ... : ... .. 7 ... ... : ... .. . ... : ... .. . ... : ... .. . Z30 ...
ROW 6F : ... .. 6 ... ... : ... .. 6 ... ... : ... .. . ... : ... .. . ... : ... .. . Z30 ...
ROW 70 : ... .. 5 ... ... : ... .. 5 ... ... : ... .. . ... : ... .. . ... : ... .. . Z30 ...
ROW 71 : ... .. . ... ... : ... .. . ... ... : ... .. . ... : ... .. 0 ... : ... .. . Z30 ...
ROW 72 : ... .. 4 ... ... : ... .. 4 ... ... : ... .. . ... : ... .. . ... : ... .. . Z30 ...
ROW 73 : ... .. . ... ... : ... .. . ... ... : ... .. . ... : ... .. . ... : ... .. . Z30 ...
ROW 74 : ... .. 0 ... ... : ... .. 0 ... ... : --- .. . ... : ... .. . ... : ... .. . Z30 ...
ROW 75 : ... .. . ... ... : ... .. . ... ... : ... .. . ... : ... .. . ... : ... .. . Z30 ...
ROW 76 : ... .. . ... ... : ... .. . ... ... : ... .. . ... : ... .. . ... : ... .. . Z30 ...
ROW 77 : ... .. . ... ... : ... .. . ... ... : ... .. . ... : ... .. . ... : ... .. . Z30 ...
ROW 78 : ... .. . ... ... : ... .. . ... ... : ... .. . ... : ... .. . ... : ... .. . Z30 ...
ROW 79 : ... .. . ... ... : ... .. . ... ... : ... .. . ... : ... .. . ... : ... .. . Z30 ...
ROW 7A : ... .. . ... ... : ... .. . ... ... : ... .. . ... : ... .. . ... : ... .. . Z30 ...
ROW 7B : ... .. . ... ... : ... .. . ... ... : ... .. . ... : ... .. . ... : ... .. . Z30 ...
ROW 7C : ... .. . ... ... : ... .. . ... ... : ... .. . ... : ... .. . ... : ... .. . Z30 ...
ROW 7D : ... .. . ... ... : ... .. . ... ... : ... .. . ... : ... .. . ... : ... .. . Z30 ...
ROW 7E : ... .. . ... ... : ... .. . ... ... : G-3 00 . P80 : ... .. C ... : ... .. . Z30 ...
ROW 7F : ... .. . ... ... : ... .. . ... ... : ... .. . ... : ... .. 0 ... : ... .. . Z30 ...
ROW 80 : ... .. . ... ... : ... .. . ... ... : ... .. . ... : ... .. . ... : ... .. . Z30 ...
ROW 81 : ... .. . ... ... : ... .. . ... ... : ... .. . ... : ... .. . ... : ... .. . Z30 ...
ROW 82 : ... .. . ... ... : ... .. . ... ... : ... .. . ... : ... .. . ... : ... .. . Z30 ...
ROW 83 : ... .. . ... ... : ... .. . ... ... : ... .. . ... : ... .. . ... : ... .. . Z30 ...
ROW 84 : ... .. . ... ... : ... .. . ... ... : ... .. . ... : B-# 00 0 V01 : ... .. . Z30 ...
ROW 85 : ... .. . ... ... : ... .. . ... ... : ... .. . ... : ... .. . ... : ... .. . Z30 ...
ROW 86 : ... .. . ... ... : ... .. . ... ... : --- .. . ... : ... .. . ... : ... .. . Z30 ...
ROW 87 : ... .. . ... ... : ... .. . ... ... : ... .. . ... : ... .. . ... : ... .. . Z30 ...
ROW 88 : ... .. . ... ... : ... .. . ... ... : ... .. . ... : ... .. . ... : ... .. . Z30 ...
ROW 89 : ... .. . ... ... : ... .. . ... ... : ... .. . ... : ... .. . ... : ... .. . Z30 ...
ROW 8A : ... .. . ... ... : ... .. . ... ... : ... .. . ... : C-# 00 C V00 : ... .. . Z30 ...
ROW 8B : ... .. . ... ... : ... .. . ... ... : ... .. . ... : ... .. 0 ... : ... .. . Z30 ...
ROW 8C : ... .. . ... ... : ... .. . ... ... : ... .. . ... : ... .. . ... : ... .. . Z30 ...
ROW 8D : ... .. . ... ... : ... .. . ... ... : ... .. . ... : ... .. . ... : ... .. . Z30 ...
ROW 8E : ... .. . ... ... : ... .. . ... ... : ... .. . ... : ... .. . ... : ... .. . Z30 ...
ROW 8F : ... .. . ... ... : ... .. . ... ... : ... .. . ... : ... .. . ... : ... .. . Z30 ...

PATTERN 07
ROW 00 : ... .. . ... ... : ... .. . ... ... : C-3 00 . P80 : 3-# 00 C ... : ... .. . Z30 ...
ROW 01 : ... .. . ... ... : ... .. . ... ... : ... .. . ... : ... .. 0 ... : ... .. . Z30 ...
ROW 02 : ... .. . ... ... : ... .. . ... ... : ... .. . ... : ... .. . ... : ... .. . Z30 ...
ROW 03 : ... .. . ... ... : ... .. . ... ... : ... .. . ... : ... .. . ... : ... .. . Z30 ...
ROW 04 : ... .. . ... ... : ... .. . ... ... : ... .. . ... : ... .. . ... : ... .. . Z30 ...
ROW 05 : ... .. . ... ... : ... .. . ... ... : ... .. . ... : ... .. . ... : ... .. . Z30 ...
ROW 06 : ... .. . ... ... : ... .. . ... ... : ... .. . ... : ... .. . ... : ... .. . Z30 ...
ROW 07 : ... .. . ... ... : ... .. . ... ... : ... .. . ... : ... .. . ... : ... .. . Z30 ...
ROW 08 : ... .. . ... ... : ... .. . ... ... : --- .. . ... : ... .. . ... : ... .. . Z30 ...
ROW 09 : ... .. . ... ... : ... .. . ... ... : ... .. . ... : ... .. . ... : ... .. . Z30 ...
ROW 0A : ... .. . ... ... : ... .. . ... ... : ... .. . ... : ... .. . ... : ... .. . Z30 ...
ROW 0B : ... .. . ... ... : ... .. . ... ... : ... .. . ... : ... .. . ... : ... .. . Z30 ...
ROW 0C : ... .. . ... ... : ... .. . ... ... : ... .. . ... : ... .. . ... : ... .. . Z30 ...
ROW 0D : ... .. . ... ... : ... .. . ... ... : ... .. . ... : ... .. . ... : ... .. . Z30 ...
ROW 0E : ... .. . ... ... : ... .. . ... ... : ... .. . ... : ... .. . ... : ... .. . Z30 ...
ROW 0F : ... .. . ... ... : ... .. . ... ... : ... .. . ... : ... .. . ... : ... .. . Z30 ...
ROW 10 : ... .. . ... ... : ... .. . ... ... : ... .. . ... : ... .. . ... : ... .. . Z30 ...
ROW 11 : ... .. . ... ... : ... .. . ... ... : ... .. . ... : ... .. . ... : ... .. . Z30 ...
ROW 12 : E-4 00 0 P7F ... : G-4 00 0 P80 ... : ... .. . ... : C-# 00 C ... : ... .. . Z30 ...
ROW 13 : ... .. 8 ... ... : ... .. 8 ... ... : ... .. . ... : ... .. 0 ... : ... .. . Z30 ...
ROW 14 : ... .. 7 ... ... : ... .. 7 ... ... : ... .. . ... : ... .. . ... : ... .. . Z30 ...
ROW 15 : ... .. 6 ... ... : ... .. 6 ... ... : ... .. . ... : ... .. . ... : ... .. . Z30 ...
ROW 16 : ... .. 5 ... ... : ... .. 5 ... ... : ... .. . ... : ... .. . ... : ... .. . Z30 ...
ROW 17 : ... .. . ... ... : ... .. . ... ... : ... .. . ... : ... .. . ... : ... .. . Z30 ...
ROW 18 : ... .. 4 ... ... : ... .. 4 ... ... : ... .. . ... : B-# 00 0 V01 : ... .. . Z30 ...
ROW 19 : ... .. . ... ... : ... .. . ... ... : ... .. . ... : ... .. . ... : ... .. . Z30 ...
ROW 1A : ... .. 0 ... ... : ... .. 0 ... ... : ... .. . ... : ... .. . ... : ... .. . Z30 ...
ROW 1B : D#4 00 0 P82 ... : F#4 00 0 P7E ... : G-3 00 . P80 : ... .. . ... : ... .. . Z30 ...
ROW 1C : ... .. 8 ... ... : ... .. 8 ... ... : ... .. . ... : ... .. . ... : ... .. . Z30 ...
ROW 1D : ... .. 7 ... ... : ... .. 7 ... ... : ... .. . ... : ... .. . ... : ... .. . Z30 ...
ROW 1E : ... .. 6 ... ... : ... .. 6 ... ... : ... .. . ... : C-# 00 C V00 : ... .. . Z30 ...
ROW 1F : ... .. 5 ... ... : ... .. 5 ... ... : ... .. . ... : ... .. 0 ... : ... .. . Z30 ...
ROW 20 : ... .. . ... ... : ... .. . ... ... : ... .. . ... : ... .. . ... : ... .. . Z30 ...
ROW 21 : ... .. 4 ... ... : ... .. 4 ... ... : ... .. . ... : ... .. . ... : ... .. . Z30 ...
ROW 22 : ... .. . ... ... : ... .. . ... ... : ... .. . ... : ... .. . ... : ... .. . Z30 ...
ROW 23 : ... .. 0 ... ... : ... .. 0 ... ... : --- .. . ... : ... .. . ... : ... .. . Z30 ...
ROW 24 : D-4 00 0 P80 ... : F-4 00 0 P80 ... : ... .. . ... : ... .. C ... : ... .. . Z30 ...
ROW 25 : ... .. 8 ... ... : ... .. 8 ... ... : ... .. . ... : ... .. . ... : ... .. . Z30 ...
ROW 26 : ... .. 7 ... ... : ... .. 7 ... ... : ... .. . ... : ... .. . ... : ... .. . Z30 ...
ROW 27 : ... .. 6 ... ... : ... .. 6 ... ... : ... .. . ... : ... .. . ... : ... .. . Z30 ...
ROW 28 : ... .. 5 ... ... : ... .. 5 ... ... : ... .. . ... : ... .. . ... : ... .. . Z30 ...
ROW 29 : ... .. . ... ... : ... .. . ... ... : ... .. . ... : ... .. 0 ... : ... .. . Z30 ...
ROW 2A : ... .. 4 ... ... : ... .. 4 ... ... : ... .. . ... : ... .. . ... : ... .. . Z30 ...
ROW 2B : ... .. . ... ... : ... .. . ... ... : ... .. . ... : ... .. . ... : ... .. . Z30 ...
ROW 2C : ... .. 0 ... ... : ... .. 0 ... ... : ... .. . ... : ... .. . ... : ... .. . Z30 ...
ROW 2D : B-3 00 0 P7E ... : D#4 00 0 P82 ... : ... .. . ... : ... .. . ... : ... .. . Z30 ...
ROW 2E : ... .. 8 ... ... : ... .. 8 ... ... : ... .. . ... : ... .. . ... : ... .. . Z30 ...
ROW 2F : ... .. 7 ... ... : ... .. 7 ... ... : ... .. . ... : ... .. . ... : ... .. . Z30 ...
ROW 30 : ... .. 6 ... ... : ... .. 6 ... ... : ... .. . ... : ... .. . ... : ... .. . Z30 ...
ROW 31 : ... .. 5 ... ... : ... .. 5 ... ... : ... .. . ... : ... .. . ... : ... .. . Z30 ...
ROW 32 : ... .. . ... ... : ... .. . ... ... : ... .. . ... : ... .. . ... : ... .. . Z30 ...
ROW 33 : ... .. 4 ... ... : ... .. 4 ... ... : ... .. . ... : ... .. . ... : ... .. . Z30 ...
ROW 34 : ... .. . ... ... : ... .. . ... ... : ... .. . ... : ... .. . ... : ... .. . Z30 ...
ROW 35 : ... .. 0 ... ... : ... .. 0 ... ... : ... .. . ... : ... .. . ... : ... .. . Z30 ...
ROW 36 : ... .. . ... ... : ... .. . ... ... : C-4 00 . P80 : ... .. C ... : ... .. . Z30 ...
ROW 37 : ... .. . ... ... : ... .. . ... ... : ... .. . ... : ... .. 0 ... : ... .. . Z30 ...
ROW 38 : ... .. . ... ... : ... .. . ... ... : ... .. . ... : ... .. . ... : ... .. . Z30 ...
ROW 39 : ... .. . ... ... : ... .. . ... ... : ... .. . ... : ... .. . ... : ... .. . Z30 ...
ROW 3A : ... .. . ... ... : ... .. . ... ... : ... .. . ... : ... .. . ... : ... .. . Z30 ...
ROW 3B : ... .. . ... ... : ... .. . ... ... : ... .. . ... : ... .. . ... : ... .. . Z30 ...
ROW 3C : ... .. . ... ... : ... .. . ... ... : ... .. . ... : B-# 00 0 V01 : ... .. . Z30 ...
ROW 3D : ... .. . ... ... : ... .. . ... ... : ... .. . ... : ... .. . ... : ... .. . Z30 ...
ROW 3E : ... .. . ... ... : ... .. . ... ... : --- .. . ... : ... .. . ... : ... .. . Z30 ...
ROW 3F : C-4 00 0 P80 ... : E-4 00 0 P7F ... : ... .. . ... : ... .. . ... : ... .. . Z30 ...
ROW 40 : ... .. 8 ... ... : ... .. 8 ... ... : ... .. . ... : ... .. . ... : ... .. . Z30 ...
ROW 41 : ... .. 7 ... ... : ... .. 7 ... ... : ... .. . ... : ... .. . ... : ... .. . Z30 ...
ROW 42 : ... .. 6 ... ... : ... .. 6 ... ... : ... .. . ... : C-# 00 C V00 : ... .. . Z30 ...
ROW 43 : ... .. 5 ... ... : ... .. 5 ... ... : ... .. . ... : ... .. 0 ... : ... .. . Z30 ...
ROW 44 : ... .. . ... ... : ... .. . ... ... : ... .. . ... : ... .. . ... : ... .. . Z30 ...
ROW 45 : ... .. 4 ... ... : ... .. 4 ... ... : ... .. . ... : ... .. . ... : ... .. . Z30 ...
ROW 46 : ... .. . ... ... : ... .. . ... ... : ... .. . ... : ... .. . ... : ... .. . Z30 ...
ROW 47 : ... .. 0 ... ... : ... .. 0 ... ... : ... .. . ... : ... .. . ... : ... .. . Z30 ...
ROW 48 : ... .. . ... ... : ... .. . ... ... : F-3 00 . P80 : 3-# 00 C ... : ... .. . Z30 ...
ROW 49 : ... .. . ... ... : ... .. . ... ... : ... .. . ... : ... .. 0 ... : ... .. . Z30 ...
ROW 4A : ... .. . ... ... : ... .. . ... ... : ... .. . ... : ... .. . ... : ... .. . Z30 ...
ROW 4B : ... .. . ... ... : ... .. . ... ... : ... .. . ... : ... .. . ... : ... .. . Z30 ...
ROW 4C : ... .. . ... ... : ... .. . ... ... : ... .. . ... : ... .. . ... : ... .. . Z30 ...
ROW 4D : ... .. . ... ... : ... .. . ... ... : ... .. . ... : ... .. . ... : ... .. . Z30 ...
ROW 4E : ... .. . ... ... : ... .. . ... ... : ... .. . ... : ... .. . ... : ... .. . Z30 ...
ROW 4F : ... .. . ... ... : ... .. . ... ... : ... .. . ... : ... .. . ... : ... .. . Z30 ...
ROW 50 : ... .. . ... ... : ... .. . ... ... : --- .. . ... : ... .. . ... : ... .. . Z30 ...
ROW 51 : E-3 00 0 P7D ... : G#3 00 0 P82 ... : ... .. . ... : ... .. . ... : ... .. . Z30 ...
ROW 52 : ... .. 8 ... ... : ... .. 8 ... ... : ... .. . ... : ... .. . ... : ... .. . Z30 ...
ROW 53 : ... .. 7 ... ... : ... .. 7 ... ... : ... .. . ... : ... .. . ... : ... .. . Z30 ...
ROW 54 : ... .. 6 ... ... : ... .. 6 ... ... : ... .. . ... : ... .. . ... : ... .. . Z30 ...
ROW 55 : ... .. 5 ... ... : ... .. 5 ... ... : ... .. . ... : ... .. . ... : ... .. . Z30 ...
ROW 56 : ... .. . ... ... : ... .. . ... ... : ... .. . ... : ... .. . ... : ... .. . Z30 ...
ROW 57 : ... .. 4 ... ... : ... .. 4 ... ... : ... .. . ... : ... .. . ... : ... .. . Z30 ...
ROW 58 : ... .. . ... ... : ... .. . ... ... : ... .. . ... : ... .. . ... : ... .. . Z30 ...
ROW 59 : ... .. 0 ... ... : ... .. 0 ... ... : ... .. . ... : ... .. . ... : ... .. . Z30 ...
ROW 5A : F-3 00 0 P80 ... : A-3 00 0 P7E ... : ... .. . ... : C-# 00 C ... : ... .. . Z30 ...
ROW 5B : ... .. 8 ... ... : ... .. 8 ... ... : ... .. . ... : ... .. 0 ... : ... .. . Z30 ...
ROW 5C : ... .. 7 ... ... : ... .. 7 ... ... : ... .. . ... : ... .. . ... : ... .. . Z30 ...
ROW 5D : ... .. 6 ... ... : ... .. 6 ... ... : ... .. . ... : ... .. . ... : ... .. . Z30 ...
ROW 5E : ... .. 5 ... ... : ... .. 5 ... ... : ... .. . ... : ... .. . ... : ... .. . Z30 ...
ROW 5F : ... .. . ... ... : ... .. . ... ... : ... .. . ... : ... .. . ... : ... .. . Z30 ...
ROW 60 : ... .. 4 ... ... : ... .. 4 ... ... : ... .. . ... : B-# 00 0 V01 : ... .. . Z30 ...
ROW 61 : ... .. . ... ... : ... .. . ... ... : ... .. . ... : ... .. . ... : ... .. . Z30 ...
ROW 62 : ... .. 0 ... ... : ... .. 0 ... ... : ... .. . ... : ... .. . ... : ... .. . Z30 ...
ROW 63 : G-3 00 0 P80 ... : C-4 00 0 P80 ... : C-4 00 . P80 : ... .. . ... : ... .. . Z30 ...
ROW 64 : ... .. 8 ... ... : ... .. 8 ... ... : ... .. . ... : ... .. . ... : ... .. . Z30 ...
ROW 65 : ... .. 7 ... ... : ... .. 7 ... ... : ... .. . ... : ... .. . ... : ... .. . Z30 ...
ROW 66 : ... .. 6 ... ... : ... .. 6 ... ... : ... .. . ... : C-# 00 C V00 : ... .. . Z30 ...
ROW 67 : ... .. 5 ... ... : ... .. 5 ... ... : ... .. . ... : ... .. 0 ... : ... .. . Z30 ...
ROW 68 : ... .. . ... ... : ... .. . ... ... : ... .. . ... : ... .. . ... : ... .. . Z30 ...
ROW 69 : ... .. 4 ... ... : ... .. 4 ... ... : ... .. . ... : ... .. . ... : ... .. . Z30 ...
ROW 6A : ... .. . ... ... : ... .. . ... ... : ... .. . ... : ... .. . ... : ... .. . Z30 ...
ROW 6B : ... .. 0 ... ... : ... .. 0 ... ... : --- .. . ... : ... .. . ... : ... .. . Z30 ...
ROW 6C : ... .. . ... ... : ... .. . ... ... : C-4 00 . P80 : ... .. C ... : ... .. . Z30 ...
ROW 6D : ... .. . ... ... : ... .. . ... ... : ... .. . ... : ... .. . ... : ... .. . Z30 ...
ROW 6E : ... .. . ... ... : ... .. . ... ... : ... .. . ... : ... .. . ... : ... .. . Z30 ...
ROW 6F : ... .. . ... ... : ... .. . ... ... : ... .. . ... : ... .. . ... : ... .. . Z30 ...
ROW 70 : ... .. . ... ... : ... .. . ... ... : ... .. . ... : ... .. . ... : ... .. . Z30 ...
ROW 71 : ... .. . ... ... : ... .. . ... ... : ... .. . ... : ... .. 0 ... : ... .. . Z30 ...
ROW 72 : ... .. . ... ... : ... .. . ... ... : ... .. . ... : ... .. . ... : ... .. . Z30 ...
ROW 73 : ... .. . ... ... : ... .. . ... ... : ... .. . ... : ... .. . ... : ... .. . Z30 ...
ROW 74 : ... .. . ... ... : ... .. . ... ... : --- .. . ... : ... .. . ... : ... .. . Z30 ...
ROW 75 : C-3 00 0 P80 ... : A-3 00 0 P7E ... : ... .. . ... : ... .. . ... : ... .. . Z30 ...
ROW 76 : ... .. 8 ... ... : ... .. 8 ... ... : ... .. . ... : ... .. . ... : ... .. . Z30 ...
ROW 77 : ... .. 7 ... ... : ... .. 7 ... ... : ... .. . ... : ... .. . ... : ... .. . Z30 ...
ROW 78 : ... .. 6 ... ... : ... .. 6 ... ... : ... .. . ... : ... .. . ... : ... .. . Z30 ...
ROW 79 : ... .. 5 ... ... : ... .. 5 ... ... : ... .. . ... : ... .. . ... : ... .. . Z30 ...
ROW 7A : ... .. . ... ... : ... .. . ... ... : ... .. . ... : ... .. . ... : ... .. . Z30 ...
ROW 7B : ... .. 4 ... ... : ... .. 4 ... ... : ... .. . ... : ... .. . ... : ... .. . Z30 ...
ROW 7C : ... .. . ... ... : ... .. . ... ... : ... .. . ... : ... .. . ... : ... .. . Z30 ...
ROW 7D : ... .. 0 ... ... : ... .. 0 ... ... : ... .. . ... : ... .. . ... : ... .. . Z30 ...
ROW 7E : E-3 00 0 P7D ... : C-4 00 0 P80 ... : F-3 00 . P80 : ... .. C ... : ... .. . Z30 ...
ROW 7F : ... .. 8 ... ... : ... .. 8 ... ... : ... .. . ... : ... .. 0 ... : ... .. . Z30 ...
ROW 80 : ... .. 7 ... ... : ... .. 7 ... ... : ... .. . ... : ... .. . ... : ... .. . Z30 ...
ROW 81 : ... .. 6 ... ... : ... .. 6 ... ... : ... .. . ... : ... .. . ... : ... .. . Z30 ...
ROW 82 : ... .. 5 ... ... : ... .. 5 ... ... : ... .. . ... : ... .. . ... : ... .. . Z30 ...
ROW 83 : ... .. . ... ... : ... .. . ... ... : ... .. . ... : ... .. . ... : ... .. . Z30 ...
ROW 84 : ... .. 4 ... ... : ... .. 4 ... ... : ... .. . ... : B-# 00 0 V01 : ... .. . Z30 ...
ROW 85 : ... .. . ... ... : ... .. . ... ... : ... .. . ... : ... .. . ... : ... .. . Z30 ...
ROW 86 : ... .. 0 ... ... : ... .. 0 ... ... : --- .. . ... : ... .. . ... : ... .. . Z30 ...
ROW 87 : F-3 00 0 P80 ... : D-4 00 0 P80 ... : ... .. . ... : ... .. . ... : ... .. . Z30 ...
ROW 88 : ... .. 8 ... ... : ... .. 8 ... ... : ... .. . ... : ... .. . ... : ... .. . Z30 ...
ROW 89 : ... .. 7 ... ... : ... .. 7 ... ... : ... .. . ... : ... .. . ... : ... .. . Z30 ...
ROW 8A : ... .. 6 ... ... : ... .. 6 ... ... : ... .. . ... : C-# 00 C V00 : ... .. . Z30 ...
ROW 8B : ... .. 5 ... ... : ... .. 5 ... ... : ... .. . ... : ... .. 0 ... : ... .. . Z30 ...
ROW 8C : ... .. . ... ... : ... .. . ... ... : ... .. . ... : ... .. . ... : ... .. . Z30 ...
ROW 8D : ... .. 4 ... ... : ... .. 4 ... ... : ... .. . ... : ... .. . ... : ... .. . Z30 ...
ROW 8E : ... .. . ... ... : ... .. . ... ... : ... .. . ... : ... .. . ... : ... .. . Z30 ...
ROW 8F : ... .. 0 ... ... : ... .. 0 ... ... : ... .. . ... : ... .. . ... : ... .. . Z30 ...

PATTERN 08
ROW 00 : ... .. . ... ... : ... .. . ... ... : C-3 00 . P80 : 3-# 00 C ... : ... .. . Z30 ...
ROW 01 : ... .. . ... ... : ... .. . ... ... : ... .. . ... : ... .. 0 ... : ... .. . Z30 ...
ROW 02 : ... .. . ... ... : ... .. . ... ... : ... .. . ... : ... .. . ... : ... .. . Z30 ...
ROW 03 : ... .. . ... ... : ... .. . ... ... : ... .. . ... : ... .. . ... : ... .. . Z30 ...
ROW 04 : ... .. . ... ... : ... .. . ... ... : ... .. . ... : ... .. . ... : ... .. . Z30 ...
ROW 05 : ... .. . ... ... : ... .. . ... ... : ... .. . ... : ... .. . ... : ... .. . Z30 ...
ROW 06 : ... .. . ... ... : ... .. . ... ... : ... .. . ... : ... .. . ... : ... .. . Z30 ...
ROW 07 : ... .. . ... ... : ... .. . ... ... : ... .. . ... : ... .. . ... : ... .. . Z30 ...
ROW 08 : ... .. . ... ... : ... .. . ... ... : --- .. . ... : ... .. . ... : ... .. . Z30 ...
ROW 09 : ... .. . ... ... : ... .. . ... ... : ... .. . ... : ... .. . ... : ... .. . Z30 ...
ROW 0A : ... .. . ... ... : ... .. . ... ... : ... .. . ... : ... .. . ... : ... .. . Z30 ...
ROW 0B : ... .. . ... ... : ... .. . ... ... : ... .. . ... : ... .. . ... : ... .. . Z30 ...
ROW 0C : ... .. . ... ... : ... .. . ... ... : ... .. . ... : ... .. . ... : ... .. . Z30 ...
ROW 0D : ... .. . ... ... : ... .. . ... ... : ... .. . ... : ... .. . ... : ... .. . Z30 ...
ROW 0E : ... .. . ... ... : ... .. . ... ... : ... .. . ... : ... .. . ... : ... .. . Z30 ...
ROW 0F : ... .. . ... ... : ... .. . ... ... : ... .. . ... : ... .. . ... : ... .. . Z30 ...
ROW 10 : ... .. . ... ... : ... .. . ... ... : ... .. . ... : ... .. . ... : ... .. . Z30 ...
ROW 11 : ... .. . ... ... : ... .. . ... ... : ... .. . ... : ... .. . ... : ... .. . Z30 ...
ROW 12 : G#3 00 0 P82 ... : D#4 00 0 P82 ... : G#3 00 . P82 : C-# 00 C ... : ... .. . Z30 ...
ROW 13 : ... .. 8 ... ... : ... .. 8 ... ... : ... .. . ... : ... .. 0 ... : ... .. . Z30 ...
ROW 14 : ... .. 7 ... ... : ... .. 7 ... ... : ... .. . ... : ... .. . ... : ... .. . Z30 ...
ROW 15 : ... .. 6 ... ... : ... .. 6 ... ... : ... .. . ... : ... .. . ... : ... .. . Z30 ...
ROW 16 : ... .. 5 ... ... : ... .. 5 ... ... : ... .. . ... : ... .. . ... : ... .. . Z30 ...
ROW 17 : ... .. . ... ... : ... .. . ... ... : ... .. . ... : ... .. . ... : ... .. . Z30 ...
ROW 18 : ... .. 4 ... ... : ... .. 4 ... ... : ... .. . ... : B-# 00 0 V01 : ... .. . Z30 ...
ROW 19 : ... .. . ... ... : ... .. . ... ... : ... .. . ... : ... .. . ... : ... .. . Z30 ...
ROW 1A : ... .. 0 ... ... : ... .. 0 ... ... : --- .. . ... : ... .. . ... : ... .. . Z30 ...
ROW 1B : ... .. . ... ... : ... .. . ... ... : ... .. . ... : ... .. . ... : ... .. . Z30 ...
ROW 1C : ... .. . ... ... : ... .. . ... ... : ... .. . ... : ... .. . ... : ... .. . Z30 ...
ROW 1D : ... .. . ... ... : ... .. . ... ... : ... .. . ... : ... .. . ... : ... .. . Z30 ...
ROW 1E : ... .. . ... ... : ... .. . ... ... : ... .. . ... : C-# 00 C V00 : ... .. . Z30 ...
ROW 1F : ... .. . ... ... : ... .. . ... ... : ... .. . ... : ... .. 0 ... : ... .. . Z30 ...
ROW 20 : ... .. . ... ... : ... .. . ... ... : ... .. . ... : ... .. . ... : ... .. . Z30 ...
ROW 21 : ... .. . ... ... : ... .. . ... ... : ... .. . ... : ... .. . ... : ... .. . Z30 ...
ROW 22 : ... .. . ... ... : ... .. . ... ... : ... .. . ... : ... .. . ... : ... .. . Z30 ...
ROW 23 : ... .. . ... ... : ... .. . ... ... : ... .. . ... : ... .. . ... : ... .. . Z30 ...
ROW 24 : ... .. . ... ... : ... .. . ... ... : ... .. . ... : ... .. C ... : ... .. . Z30 ...
ROW 25 : ... .. . ... ... : ... .. . ... ... : ... .. . ... : ... .. . ... : ... .. . Z30 ...
ROW 26 : ... .. . ... ... : ... .. . ... ... : ... .. . ... : ... .. . ... : ... .. . Z30 ...
ROW 27 : ... .. . ... ... : ... .. . ... ... : ... .. . ... : ... .. . ... : ... .. . Z30 ...
ROW 28 : ... .. . ... ... : ... .. . ... ... : ... .. . ... : ... .. . ... : ... .. . Z30 ...
ROW 29 : ... .. . ... ... : ... .. . ... ... : ... .. . ... : ... .. 0 ... : ... .. . Z30 ...
ROW 2A : ... .. . ... ... : ... .. . ... ... : ... .. . ... : ... .. . ... : ... .. . Z30 ...
ROW 2B : ... .. . ... ... : ... .. . ... ... : ... .. . ... : ... .. . ... : ... .. . Z30 ...
ROW 2C : ... .. . ... ... : ... .. . ... ... : ... .. . ... : ... .. . ... : ... .. . Z30 ...
ROW 2D : F-3 00 0 P80 ... : D-4 00 0 P80 ... : A#3 00 . P7C : ... .. . ... : ... .. . Z30 ...
ROW 2E : ... .. 8 ... ... : ... .. 8 ... ... : ... .. . ... : ... .. . ... : ... .. . Z30 ...
ROW 2F : ... .. 7 ... ... : ... .. 7 ... ... : ... .. . ... : ... .. . ... : ... .. . Z30 ...
ROW 30 : ... .. 6 ... ... : ... .. 6 ... ... : ... .. . ... : ... .. . ... : ... .. . Z30 ...
ROW 31 : ... .. 5 ... ... : ... .. 5 ... ... : ... .. . ... : ... .. . ... : ... .. . Z30 ...
ROW 32 : ... .. . ... ... : ... .. . ... ... : ... .. . ... : ... .. . ... : ... .. . Z30 ...
ROW 33 : ... .. 4 ... ... : ... .. 4 ... ... : ... .. . ... : ... .. . ... : ... .. . Z30 ...
ROW 34 : ... .. . ... ... : ... .. . ... ... : ... .. . ... : ... .. . ... : ... .. . Z30 ...
ROW 35 : ... .. 0 ... ... : ... .. 0 ... ... : --- .. . ... : ... .. . ... : ... .. . Z30 ...
ROW 36 : ... .. . ... ... : ... .. . ... ... : ... .. . ... : ... .. C ... : ... .. . Z30 ...
ROW 37 : ... .. . ... ... : ... .. . ... ... : ... .. . ... : ... .. 0 ... : ... .. . Z30 ...
ROW 38 : ... .. . ... ... : ... .. . ... ... : ... .. . ... : ... .. . ... : ... .. . Z30 ...
ROW 39 : ... .. . ... ... : ... .. . ... ... : ... .. . ... : ... .. . ... : ... .. . Z30 ...
ROW 3A : ... .. . ... ... : ... .. . ... ... : ... .. . ... : ... .. . ... : ... .. . Z30 ...
ROW 3B : ... .. . ... ... : ... .. . ... ... : ... .. . ... : ... .. . ... : ... .. . Z30 ...
ROW 3C : ... .. . ... ... : ... .. . ... ... : ... .. . ... : B-# 00 0 V01 : ... .. . Z30 ...
ROW 3D : ... .. . ... ... : ... .. . ... ... : ... .. . ... : ... .. . ... : ... .. . Z30 ...
ROW 3E : ... .. . ... ... : ... .. . ... ... : ... .. . ... : ... .. . ... : ... .. . Z30 ...
ROW 3F : ... .. . ... ... : ... .. . ... ... : ... .. . ... : ... .. . ... : ... .. . Z30 ...
ROW 40 : ... .. . ... ... : ... .. . ... ... : ... .. . ... : ... .. . ... : ... .. . Z30 ...
ROW 41 : ... .. . ... ... : ... .. . ... ... : ... .. . ... : ... .. . ... : ... .. . Z30 ...
ROW 42 : ... .. . ... ... : ... .. . ... ... : ... .. . ... : C-# 00 C V00 : ... .. . Z30 ...
ROW 43 : ... .. . ... ... : ... .. . ... ... : ... .. . ... : ... .. 0 ... : ... .. . Z30 ...
ROW 44 : ... .. . ... ... : ... .. . ... ... : ... .. . ... : ... .. . ... : ... .. . Z30 ...
ROW 45 : ... .. . ... ... : ... .. . ... ... : ... .. . ... : ... .. . ... : ... .. . Z30 ...
ROW 46 : ... .. . ... ... : ... .. . ... ... : ... .. . ... : ... .. . ... : ... .. . Z30 ...
ROW 47 : ... .. . ... ... : ... .. . ... ... : ... .. . ... : ... .. . ... : ... .. . Z30 ...
ROW 48 : E-3 00 0 P7D ... : C-4 00 0 P80 ... : C-4 00 . P80 : 3-# 00 C ... : ... .. . Z30 ...
ROW 49 : ... .. 8 ... ... : ... .. 8 ... ... : ... .. . ... : ... .. 0 ... : ... .. . Z30 ...
ROW 4A : ... .. 7 ... ... : ... .. 7 ... ... : ... .. . ... : ... .. . ... : ... .. . Z30 ...
ROW 4B : ... .. 6 ... ... : ... .. 6 ... ... : ... .. . ... : ... .. . ... : ... .. . Z30 ...
ROW 4C : ... .. 5 ... ... : ... .. 5 ... ... : ... .. . ... : ... .. . ... : ... .. . Z30 ...
ROW 4D : ... .. . ... ... : ... .. . ... ... : ... .. . ... : ... .. . ... : ... .. . Z30 ...
ROW 4E : ... .. 4 ... ... : ... .. 4 ... ... : ... .. . ... : ... .. . ... : ... .. . Z30 ...
ROW 4F : ... .. . ... ... : ... .. . ... ... : ... .. . ... : ... .. . ... : ... .. . Z30 ...
ROW 50 : ... .. 0 ... ... : ... .. 0 ... ... : --- .. . ... : ... .. . ... : ... .. . Z30 ...
ROW 51 : ... .. . ... ... : ... .. . ... ... : ... .. . ... : ... .. . ... : ... .. . Z30 ...
ROW 52 : ... .. . ... ... : ... .. . ... ... : ... .. . ... : ... .. . ... : ... .. . Z30 ...
ROW 53 : ... .. . ... ... : ... .. . ... ... : ... .. . ... : ... .. . ... : ... .. . Z30 ...
ROW 54 : ... .. . ... ... : ... .. . ... ... : ... .. . ... : ... .. . ... : ... .. . Z30 ...
ROW 55 : ... .. . ... ... : ... .. . ... ... : ... .. . ... : ... .. . ... : ... .. . Z30 ...
ROW 56 : ... .. . ... ... : ... .. . ... ... : ... .. . ... : ... .. . ... : ... .. . Z30 ...
ROW 57 : ... .. . ... ... : ... .. . ... ... : ... .. . ... : ... .. . ... : ... .. . Z30 ...
ROW 58 : ... .. . ... ... : ... .. . ... ... : ... .. . ... : ... .. . ... : ... .. . Z30 ...
ROW 59 : ... .. . ... ... : ... .. . ... ... : ... .. . ... : ... .. . ... : ... .. . Z30 ...
ROW 5A : ... .. . ... ... : ... .. . ... ... : ... .. . ... : C-# 00 C ... : ... .. . Z30 ...
ROW 5B : ... .. . ... ... : ... .. . ... ... : ... .. . ... : ... .. 0 ... : ... .. . Z30 ...
ROW 5C : ... .. . ... ... : ... .. . ... ... : ... .. . ... : ... .. . ... : ... .. . Z30 ...
ROW 5D : ... .. . ... ... : ... .. . ... ... : ... .. . ... : ... .. . ... : ... .. . Z30 ...
ROW 5E : ... .. . ... ... : ... .. . ... ... : ... .. . ... : ... .. . ... : ... .. . Z30 ...
ROW 5F : ... .. . ... ... : ... .. . ... ... : ... .. . ... : ... .. . ... : ... .. . Z30 ...
ROW 60 : ... .. . ... ... : ... .. . ... ... : ... .. . ... : B-# 00 0 V01 : ... .. . Z30 ...
ROW 61 : ... .. . ... ... : ... .. . ... ... : ... .. . ... : ... .. . ... : ... .. . Z30 ...
ROW 62 : ... .. . ... ... : ... .. . ... ... : ... .. . ... : ... .. . ... : ... .. . Z30 ...
ROW 63 : ... .. . ... ... : ... .. . ... ... : G-3 00 . P80 : ... .. . ... : ... .. . Z30 ...
ROW 64 : ... .. . ... ... : ... .. . ... ... : ... .. . ... : ... .. . ... : ... .. . Z30 ...
ROW 65 : ... .. . ... ... : ... .. . ... ... : ... .. . ... : ... .. . ... : ... .. . Z30 ...
ROW 66 : ... .. . ... ... : ... .. . ... ... : ... .. . ... : C-# 00 C V00 : ... .. . Z30 ...
ROW 67 : ... .. . ... ... : ... .. . ... ... : ... .. . ... : ... .. 0 ... : ... .. . Z30 ...
ROW 68 : ... .. . ... ... : ... .. . ... ... : ... .. . ... : ... .. . ... : ... .. . Z30 ...
ROW 69 : ... .. . ... ... : ... .. . ... ... : ... .. . ... : ... .. . ... : ... .. . Z30 ...
ROW 6A : ... .. . ... ... : ... .. . ... ... : ... .. . ... : ... .. . ... : ... .. . Z30 ...
ROW 6B : ... .. . ... ... : ... .. . ... ... : --- .. . ... : ... .. . ... : ... .. . Z30 ...
ROW 6C : ... .. . ... ... : ... .. . ... ... : G-3 00 . P80 : ... .. C ... : ... .. . Z30 ...
ROW 6D : ... .. . ... ... : ... .. . ... ... : ... .. . ... : ... .. . ... : ... .. . Z30 ...
ROW 6E : ... .. . ... ... : ... .. . ... ... : ... .. . ... : ... .. . ... : ... .. . Z30 ...
ROW 6F : ... .. . ... ... : ... .. . ... ... : ... .. . ... : ... .. . ... : ... .. . Z30 ...
ROW 70 : ... .. . ... ... : ... .. . ... ... : ... .. . ... : ... .. . ... : ... .. . Z30 ...
ROW 71 : ... .. . ... ... : ... .. . ... ... : ... .. . ... : ... .. 0 ... : ... .. . Z30 ...
ROW 72 : ... .. . ... ... : ... .. . ... ... : ... .. . ... : ... .. . ... : ... .. . Z30 ...
ROW 73 : ... .. . ... ... : ... .. . ... ... : ... .. . ... : ... .. . ... : ... .. . Z30 ...
ROW 74 : ... .. . ... ... : ... .. . ... ... : --- .. . ... : ... .. . ... : ... .. . Z30 ...
ROW 75 : ... .. . ... ... : ... .. . ... ... : ... .. . ... : ... .. . ... : ... .. . Z30 ...
ROW 76 : ... .. . ... ... : ... .. . ... ... : ... .. . ... : ... .. . ... : ... .. . Z30 ...
ROW 77 : ... .. . ... ... : ... .. . ... ... : ... .. . ... : ... .. . ... : ... .. . Z30 ...
ROW 78 : ... .. . ... ... : ... .. . ... ... : ... .. . ... : ... .. . ... : ... .. . Z30 ...
ROW 79 : ... .. . ... ... : ... .. . ... ... : ... .. . ... : ... .. . ... : ... .. . Z30 ...
ROW 7A : ... .. . ... ... : ... .. . ... ... : ... .. . ... : ... .. . ... : ... .. . Z30 ...
ROW 7B : ... .. . ... ... : ... .. . ... ... : ... .. . ... : ... .. . ... : ... .. . Z30 ...
ROW 7C : ... .. . ... ... : ... .. . ... ... : ... .. . ... : ... .. . ... : ... .. . Z30 ...
ROW 7D : ... .. . ... ... : ... .. . ... ... : ... .. . ... : ... .. . ... : ... .. . Z30 ...
ROW 7E : ... .. . ... ... : ... .. . ... ... : C-3 00 . P80 : ... .. C ... : ... .. . Z30 ...
ROW 7F : ... .. . ... ... : ... .. . ... ... : ... .. . ... : ... .. 0 ... : ... .. . Z30 ...
ROW 80 : ... .. . ... ... : ... .. . ... ... : ... .. . ... : ... .. . ... : ... .. . Z30 ...
ROW 81 : ... .. . ... ... : ... .. . ... ... : ... .. . ... : ... .. . ... : ... .. . Z30 ...
ROW 82 : ... .. . ... ... : ... .. . ... ... : ... .. . ... : ... .. . ... : ... .. . Z30 ...
ROW 83 : ... .. . ... ... : ... .. . ... ... : ... .. . ... : ... .. . ... : ... .. . Z30 ...
ROW 84 : ... .. . ... ... : ... .. . ... ... : ... .. . ... : B-# 00 0 V01 : ... .. . Z30 ...
ROW 85 : ... .. . ... ... : ... .. . ... ... : ... .. . ... : ... .. . ... : ... .. . Z30 ...
ROW 86 : ... .. . ... ... : ... .. . ... ... : --- .. . ... : ... .. . ... : ... .. . Z30 ...
ROW 87 : ... .. . ... ... : ... .. . ... ... : ... .. . ... : ... .. . ... : ... .. . Z30 ...
ROW 88 : ... .. . ... ... : ... .. . ... ... : ... .. . ... : ... .. . ... : ... .. . Z30 ...
ROW 89 : ... .. . ... ... : ... .. . ... ... : ... .. . ... : ... .. . ... : ... .. . Z30 ...
ROW 8A : ... .. . ... ... : ... .. . ... ... : ... .. . ... : C-# 00 C V00 : ... .. . Z30 ...
ROW 8B : ... .. . ... ... : ... .. . ... ... : ... .. . ... : ... .. 0 ... : ... .. . Z30 ...
ROW 8C : ... .. . ... ... : ... .. . ... ... : ... .. . ... : ... .. . ... : ... .. . Z30 ...
ROW 8D : ... .. . ... ... : ... .. . ... ... : ... .. . ... : ... .. . ... : ... .. . Z30 ...
ROW 8E : ... .. . ... ... : ... .. . ... ... : ... .. . ... : ... .. . ... : ... .. . Z30 ...
ROW 8F : ... .. . ... ... : ... .. . ... ... : ... .. . ... : ... .. . ... : ... .. . Z30 ...

PATTERN 09
ROW 00 : ... .. . ... ... : ... .. . ... ... : C-3 00 . P80 : 3-# 00 C ... : ... .. . Z30 ...
ROW 01 : ... .. . ... ... : ... .. . ... ... : ... .. . ... : ... .. 0 ... : ... .. . Z30 ...
ROW 02 : ... .. . ... ... : ... .. . ... ... : ... .. . ... : ... .. . ... : ... .. . Z30 ...
ROW 03 : ... .. . ... ... : ... .. . ... ... : ... .. . ... : ... .. . ... : ... .. . Z30 ...
ROW 04 : ... .. . ... ... : ... .. . ... ... : ... .. . ... : ... .. . ... : ... .. . Z30 ...
ROW 05 : ... .. . ... ... : ... .. . ... ... : ... .. . ... : ... .. . ... : ... .. . Z30 ...
ROW 06 : ... .. . ... ... : ... .. . ... ... : ... .. . ... : ... .. . ... : ... .. . Z30 ...
ROW 07 : ... .. . ... ... : ... .. . ... ... : ... .. . ... : ... .. . ... : ... .. . Z30 ...
ROW 08 : ... .. . ... ... : ... .. . ... ... : --- .. . ... : ... .. . ... : ... .. . Z30 ...
ROW 09 : ... .. . ... ... : ... .. . ... ... : ... .. . ... : ... .. . ... : ... .. . Z30 ...
ROW 0A : ... .. . ... ... : ... .. . ... ... : ... .. . ... : ... .. . ... : ... .. . Z30 ...
ROW 0B : ... .. . ... ... : ... .. . ... ... : ... .. . ... : ... .. . ... : ... .. . Z30 ...
ROW 0C : ... .. . ... ... : ... .. . ... ... : ... .. . ... : ... .. . ... : ... .. . Z30 ...
ROW 0D : ... .. . ... ... : ... .. . ... ... : ... .. . ... : ... .. . ... : ... .. . Z30 ...
ROW 0E : ... .. . ... ... : ... .. . ... ... : ... .. . ... : ... .. . ... : ... .. . Z30 ...
ROW 0F : ... .. . ... ... : ... .. . ... ... : ... .. . ... : ... .. . ... : ... .. . Z30 ...
ROW 10 : ... .. . ... ... : ... .. . ... ... : ... .. . ... : ... .. . ... : ... .. . Z30 ...
ROW 11 : ... .. . ... ... : ... .. . ... ... : ... .. . ... : ... .. . ... : ... .. . Z30 ...
ROW 12 : E-4 00 0 P7F ... : G-4 00 0 P80 ... : ... .. . ... : C-# 00 C ... : ... .. . Z30 ...
ROW 13 : ... .. 8 ... ... : ... .. 8 ... ... : ... .. . ... : ... .. 0 ... : ... .. . Z30 ...
ROW 14 : ... .. 7 ... ... : ... .. 7 ... ... : ... .. . ... : ... .. . ... : ... .. . Z30 ...
ROW 15 : ... .. 6 ... ... : ... .. 6 ... ... : ... .. . ... : ... .. . ... : ... .. . Z30 ...
ROW 16 : ... .. 5 ... ... : ... .. 5 ... ... : ... .. . ... : ... .. . ... : ... .. . Z30 ...
ROW 17 : ... .. . ... ... : ... .. . ... ... : ... .. . ... : ... .. . ... : ... .. . Z30 ...
ROW 18 : ... .. 4 ... ... : ... .. 4 ... ... : ... .. . ... : B-# 00 0 V01 : ... .. . Z30 ...
ROW 19 : ... .. . ... ... : ... .. . ... ... : ... .. . ... : ... .. . ... : ... .. . Z30 ...
ROW 1A : ... .. 0 ... ... : ... .. 0 ... ... : ... .. . ... : ... .. . ... : ... .. . Z30 ...
ROW 1B : D#4 00 0 P82 ... : F#4 00 0 P7E ... : G-3 00 . P80 : ... .. . ... : ... .. . Z30 ...
ROW 1C : ... .. 8 ... ... : ... .. 8 ... ... : ... .. . ... : ... .. . ... : ... .. . Z30 ...
ROW 1D : ... .. 7 ... ... : ... .. 7 ... ... : ... .. . ... : ... .. . ... : ... .. . Z30 ...
ROW 1E : ... .. 6 ... ... : ... .. 6 ... ... : ... .. . ... : C-# 00 C V00 : ... .. . Z30 ...
ROW 1F : ... .. 5 ... ... : ... .. 5 ... ... : ... .. . ... : ... .. 0 ... : ... .. . Z30 ...
ROW 20 : ... .. . ... ... : ... .. . ... ... : ... .. . ... : ... .. . ... : ... .. . Z30 ...
ROW 21 : ... .. 4 ... ... : ... .. 4 ... ... : ... .. . ... : ... .. . ... : ... .. . Z30 ...
ROW 22 : ... .. . ... ... : ... .. . ... ... : ... .. . ... : ... .. . ... : ... .. . Z30 ...
ROW 23 : ... .. 0 ... ... : ... .. 0 ... ... : --- .. . ... : ... .. . ... : ... .. . Z30 ...
ROW 24 : D-4 00 0 P80 ... : F-4 00 0 P80 ... : ... .. . ... : ... .. C ... : ... .. . Z30 ...
ROW 25 : ... .. 8 ... ... : ... .. 8 ... ... : ... .. . ... : ... .. . ... : ... .. . Z30 ...
ROW 26 : ... .. 7 ... ... : ... .. 7 ... ... : ... .. . ... : ... .. . ... : ... .. . Z30 ...
ROW 27 : ... .. 6 ... ... : ... .. 6 ... ... : ... .. . ... : ... .. . ... : ... .. . Z30 ...
ROW 28 : ... .. 5 ... ... : ... .. 5 ... ... : ... .. . ... : ... .. . ... : ... .. . Z30 ...
ROW 29 : ... .. . ... ... : ... .. . ... ... : ... .. . ... : ... .. 0 ... : ... .. . Z30 ...
ROW 2A : ... .. 4 ... ... : ... .. 4 ... ... : ... .. . ... : ... .. . ... : ... .. . Z30 ...
ROW 2B : ... .. . ... ... : ... .. . ... ... : ... .. . ... : ... .. . ... : ... .. . Z30 ...
ROW 2C : ... .. 0 ... ... : ... .. 0 ... ... : ... .. . ... : ... .. . ... : ... .. . Z30 ...
ROW 2D : B-3 00 0 P7E ... : D#4 00 0 P82 ... : ... .. . ... : ... .. . ... : ... .. . Z30 ...
ROW 2E : ... .. 8 ... ... : ... .. 8 ... ... : ... .. . ... : ... .. . ... : ... .. . Z30 ...
ROW 2F : ... .. 7 ... ... : ... .. 7 ... ... : ... .. . ... : ... .. . ... : ... .. . Z30 ...
ROW 30 : ... .. 6 ... ... : ... .. 6 ... ... : ... .. . ... : ... .. . ... : ... .. . Z30 ...
ROW 31 : ... .. 5 ... ... : ... .. 5 ... ... : ... .. . ... : ... .. . ... : ... .. . Z30 ...
ROW 32 : ... .. . ... ... : ... .. . ... ... : ... .. . ... : ... .. . ... : ... .. . Z30 ...
ROW 33 : ... .. 4 ... ... : ... .. 4 ... ... : ... .. . ... : ... .. . ... : ... .. . Z30 ...
ROW 34 : ... .. . ... ... : ... .. . ... ... : ... .. . ... : ... .. . ... : ... .. . Z30 ...
ROW 35 : ... .. 0 ... ... : ... .. 0 ... ... : ... .. . ... : ... .. . ... : ... .. . Z30 ...
ROW 36 : ... .. . ... ... : ... .. . ... ... : C-4 00 . P80 : ... .. C ... : ... .. . Z30 ...
ROW 37 : ... .. . ... ... : ... .. . ... ... : ... .. . ... : ... .. 0 ... : ... .. . Z30 ...
ROW 38 : ... .. . ... ... : ... .. . ... ... : ... .. . ... : ... .. . ... : ... .. . Z30 ...
ROW 39 : ... .. . ... ... : ... .. . ... ... : ... .. . ... : ... .. . ... : ... .. . Z30 ...
ROW 3A : ... .. . ... ... : ... .. . ... ... : ... .. . ... : ... .. . ... : ... .. . Z30 ...
ROW 3B : ... .. . ... ... : ... .. . ... ... : ... .. . ... : ... .. . ... : ... .. . Z30 ...
ROW 3C : ... .. . ... ... : ... .. . ... ... : ... .. . ... : B-# 00 0 V01 : ... .. . Z30 ...
ROW 3D : ... .. . ... ... : ... .. . ... ... : ... .. . ... : ... .. . ... : ... .. . Z30 ...
ROW 3E : ... .. . ... ... : ... .. . ... ... : --- .. . ... : ... .. . ... : ... .. . Z30 ...
ROW 3F : C-4 00 0 P80 ... : E-4 00 0 P7F ... : ... .. . ... : ... .. . ... : ... .. . Z30 ...
ROW 40 : ... .. 8 ... ... : ... .. 8 ... ... : ... .. . ... : ... .. . ... : ... .. . Z30 ...
ROW 41 : ... .. 7 ... ... : ... .. 7 ... ... : ... .. . ... : ... .. . ... : ... .. . Z30 ...
ROW 42 : ... .. 6 ... ... : ... .. 6 ... ... : ... .. . ... : C-# 00 C V00 : ... .. . Z30 ...
ROW 43 : ... .. 5 ... ... : ... .. 5 ... ... : ... .. . ... : ... .. 0 ... : ... .. . Z30 ...
ROW 44 : ... .. . ... ... : ... .. . ... ... : ... .. . ... : ... .. . ... : ... .. . Z30 ...
ROW 45 : ... .. 4 ... ... : ... .. 4 ... ... : ... .. . ... : ... .. . ... : ... .. . Z30 ...
ROW 46 : ... .. . ... ... : ... .. . ... ... : ... .. . ... : ... .. . ... : ... .. . Z30 ...
ROW 47 : ... .. 0 ... ... : ... .. 0 ... ... : ... .. . ... : ... .. . ... : ... .. . Z30 ...
ROW 48 : ... .. . ... ... : ... .. . ... ... : F-3 00 . P80 : 3-# 00 C ... : ... .. . Z30 ...
ROW 49 : ... .. . ... ... : ... .. . ... ... : ... .. . ... : ... .. 0 ... : ... .. . Z30 ...
ROW 4A : ... .. . ... ... : ... .. . ... ... : ... .. . ... : ... .. . ... : ... .. . Z30 ...
ROW 4B : ... .. . ... ... : ... .. . ... ... : ... .. . ... : ... .. . ... : ... .. . Z30 ...
ROW 4C : ... .. . ... ... : ... .. . ... ... : ... .. . ... : ... .. . ... : ... .. . Z30 ...
ROW 4D : ... .. . ... ... : ... .. . ... ... : ... .. . ... : ... .. . ... : ... .. . Z30 ...
ROW 4E : ... .. . ... ... : ... .. . ... ... : ... .. . ... : ... .. . ... : ... .. . Z30 ...
ROW 4F : ... .. . ... ... : ... .. . ... ... : ... .. . ... : ... .. . ... : ... .. . Z30 ...
ROW 50 : ... .. . ... ... : ... .. . ... ... : --- .. . ... : ... .. . ... : ... .. . Z30 ...
ROW 51 : E-3 00 0 P7D ... : G#3 00 0 P82 ... : ... .. . ... : ... .. . ... : ... .. . Z30 ...
ROW 52 : ... .. 8 ... ... : ... .. 8 ... ... : ... .. . ... : ... .. . ... : ... .. . Z30 ...
ROW 53 : ... .. 7 ... ... : ... .. 7 ... ... : ... .. . ... : ... .. . ... : ... .. . Z30 ...
ROW 54 : ... .. 6 ... ... : ... .. 6 ... ... : ... .. . ... : ... .. . ... : ... .. . Z30 ...
ROW 55 : ... .. 5 ... ... : ... .. 5 ... ... : ... .. . ... : ... .. . ... : ... .. . Z30 ...
ROW 56 : ... .. . ... ... : ... .. . ... ... : ... .. . ... : ... .. . ... : ... .. . Z30 ...
ROW 57 : ... .. 4 ... ... : ... .. 4 ... ... : ... .. . ... : ... .. . ... : ... .. . Z30 ...
ROW 58 : ... .. . ... ... : ... .. . ... ... : ... .. . ... : ... .. . ... : ... .. . Z30 ...
ROW 59 : ... .. 0 ... ... : ... .. 0 ... ... : ... .. . ... : ... .. . ... : ... .. . Z30 ...
ROW 5A : F-3 00 0 P80 ... : A-3 00 0 P7E ... : ... .. . ... : C-# 00 C ... : ... .. . Z30 ...
ROW 5B : ... .. 8 ... ... : ... .. 8 ... ... : ... .. . ... : ... .. 0 ... : ... .. . Z30 ...
ROW 5C : ... .. 7 ... ... : ... .. 7 ... ... : ... .. . ... : ... .. . ... : ... .. . Z30 ...
ROW 5D : ... .. 6 ... ... : ... .. 6 ... ... : ... .. . ... : ... .. . ... : ... .. . Z30 ...
ROW 5E : ... .. 5 ... ... : ... .. 5 ... ... : ... .. . ... : ... .. . ... : ... .. . Z30 ...
ROW 5F : ... .. . ... ... : ... .. . ... ... : ... .. . ... : ... .. . ... : ... .. . Z30 ...
ROW 60 : ... .. 4 ... ... : ... .. 4 ... ... : ... .. . ... : B-# 00 0 V01 : ... .. . Z30 ...
ROW 61 : ... .. . ... ... : ... .. . ... ... : ... .. . ... : ... .. . ... : ... .. . Z30 ...
ROW 62 : ... .. 0 ... ... : ... .. 0 ... ... : ... .. . ... : ... .. . ... : ... .. . Z30 ...
ROW 63 : G-3 00 0 P80 ... : C-4 00 0 P80 ... : C-4 00 . P80 : ... .. . ... : ... .. . Z30 ...
ROW 64 : ... .. 8 ... ... : ... .. 8 ... ... : ... .. . ... : ... .. . ... : ... .. . Z30 ...
ROW 65 : ... .. 7 ... ... : ... .. 7 ... ... : ... .. . ... : ... .. . ... : ... .. . Z30 ...
ROW 66 : ... .. 6 ... ... : ... .. 6 ... ... : ... .. . ... : C-# 00 C V00 : ... .. . Z30 ...
ROW 67 : ... .. 5 ... ... : ... .. 5 ... ... : ... .. . ... : ... .. 0 ... : ... .. . Z30 ...
ROW 68 : ... .. . ... ... : ... .. . ... ... : ... .. . ... : ... .. . ... : ... .. . Z30 ...
ROW 69 : ... .. 4 ... ... : ... .. 4 ... ... : ... .. . ... : ... .. . ... : ... .. . Z30 ...
ROW 6A : ... .. . ... ... : ... .. . ... ... : ... .. . ... : ... .. . ... : ... .. . Z30 ...
ROW 6B : ... .. 0 ... ... : ... .. 0 ... ... : --- .. . ... : ... .. . ... : ... .. . Z30 ...
ROW 6C : ... .. . ... ... : ... .. . ... ... : C-4 00 . P80 : ... .. C ... : ... .. . Z30 ...
ROW 6D : ... .. . ... ... : ... .. . ... ... : ... .. . ... : ... .. . ... : ... .. . Z30 ...
ROW 6E : ... .. . ... ... : ... .. . ... ... : ... .. . ... : ... .. . ... : ... .. . Z30 ...
ROW 6F : ... .. . ... ... : ... .. . ... ... : ... .. . ... : ... .. . ... : ... .. . Z30 ...
ROW 70 : ... .. . ... ... : ... .. . ... ... : ... .. . ... : ... .. . ... : ... .. . Z30 ...
ROW 71 : ... .. . ... ... : ... .. . ... ... : ... .. . ... : ... .. 0 ... : ... .. . Z30 ...
ROW 72 : ... .. . ... ... : ... .. . ... ... : ... .. . ... : ... .. . ... : ... .. . Z30 ...
ROW 73 : ... .. . ... ... : ... .. . ... ... : ... .. . ... : ... .. . ... : ... .. . Z30 ...
ROW 74 : ... .. . ... ... : ... .. . ... ... : --- .. . ... : ... .. . ... : ... .. . Z30 ...
ROW 75 : C-3 00 0 P80 ... : A-3 00 0 P7E ... : ... .. . ... : ... .. . ... : ... .. . Z30 ...
ROW 76 : ... .. 8 ... ... : ... .. 8 ... ... : ... .. . ... : ... .. . ... : ... .. . Z30 ...
ROW 77 : ... .. 7 ... ... : ... .. 7 ... ... : ... .. . ... : ... .. . ... : ... .. . Z30 ...
ROW 78 : ... .. 6 ... ... : ... .. 6 ... ... : ... .. . ... : ... .. . ... : ... .. . Z30 ...
ROW 79 : ... .. 5 ... ... : ... .. 5 ... ... : ... .. . ... : ... .. . ... : ... .. . Z30 ...
ROW 7A : ... .. . ... ... : ... .. . ... ... : ... .. . ... : ... .. . ... : ... .. . Z30 ...
ROW 7B : ... .. 4 ... ... : ... .. 4 ... ... : ... .. . ... : ... .. . ... : ... .. . Z30 ...
ROW 7C : ... .. . ... ... : ... .. . ... ... : ... .. . ... : ... .. . ... : ... .. . Z30 ...
ROW 7D : ... .. 0 ... ... : ... .. 0 ... ... : ... .. . ... : ... .. . ... : ... .. . Z30 ...
ROW 7E : E-3 00 0 P7D ... : C-4 00 0 P80 ... : F-3 00 . P80 : ... .. C ... : ... .. . Z30 ...
ROW 7F : ... .. 8 ... ... : ... .. 8 ... ... : ... .. . ... : ... .. 0 ... : ... .. . Z30 ...
ROW 80 : ... .. 7 ... ... : ... .. 7 ... ... : ... .. . ... : ... .. . ... : ... .. . Z30 ...
ROW 81 : ... .. 6 ... ... : ... .. 6 ... ... : ... .. . ... : ... .. . ... : ... .. . Z30 ...
ROW 82 : ... .. 5 ... ... : ... .. 5 ... ... : ... .. . ... : ... .. . ... : ... .. . Z30 ...
ROW 83 : ... .. . ... ... : ... .. . ... ... : ... .. . ... : ... .. . ... : ... .. . Z30 ...
ROW 84 : ... .. 4 ... ... : ... .. 4 ... ... : ... .. . ... : B-# 00 0 V01 : ... .. . Z30 ...
ROW 85 : ... .. . ... ... : ... .. . ... ... : ... .. . ... : ... .. . ... : ... .. . Z30 ...
ROW 86 : ... .. 0 ... ... : ... .. 0 ... ... : --- .. . ... : ... .. . ... : ... .. . Z30 ...
ROW 87 : F-3 00 0 P80 ... : D-4 00 0 P80 ... : ... .. . ... : ... .. . ... : ... .. . Z30 ...
ROW 88 : ... .. 8 ... ... : ... .. 8 ... ... : ... .. . ... : ... .. . ... : ... .. . Z30 ...
ROW 89 : ... .. 7 ... ... : ... .. 7 ... ... : ... .. . ... : ... .. . ... : ... .. . Z30 ...
ROW 8A : ... .. 6 ... ... : ... .. 6 ... ... : ... .. . ... : C-# 00 C V00 : ... .. . Z30 ...
ROW 8B : ... .. 5 ... ... : ... .. 5 ... ... : ... .. . ... : ... .. 0 ... : ... .. . Z30 ...
ROW 8C : ... .. . ... ... : ... .. . ... ... : ... .. . ... : ... .. . ... : ... .. . Z30 ...
ROW 8D : ... .. 4 ... ... : ... .. 4 ... ... : ... .. . ... : ... .. . ... : ... .. . Z30 ...
ROW 8E : ... .. . ... ... : ... .. . ... ... : ... .. . ... : ... .. . ... : ... .. . Z30 ...
ROW 8F : ... .. 0 ... ... : ... .. 0 ... ... : ... .. . ... : ... .. . ... : ... .. . Z30 ...

PATTERN 0A
ROW 00 : ... .. . ... ... : ... .. . ... ... : C-3 00 . P80 : 3-# 00 C ... : ... .. . Z30 ...
ROW 01 : ... .. . ... ... : ... .. . ... ... : ... .. . ... : ... .. 0 ... : ... .. . Z30 ...
ROW 02 : ... .. . ... ... : ... .. . ... ... : ... .. . ... : ... .. . ... : ... .. . Z30 ...
ROW 03 : ... .. . ... ... : ... .. . ... ... : ... .. . ... : ... .. . ... : ... .. . Z30 ...
ROW 04 : ... .. . ... ... : ... .. . ... ... : ... .. . ... : ... .. . ... : ... .. . Z30 ...
ROW 05 : ... .. . ... ... : ... .. . ... ... : ... .. . ... : ... .. . ... : ... .. . Z30 ...
ROW 06 : ... .. . ... ... : ... .. . ... ... : ... .. . ... : ... .. . ... : ... .. . Z30 ...
ROW 07 : ... .. . ... ... : ... .. . ... ... : ... .. . ... : ... .. . ... : ... .. . Z30 ...
ROW 08 : ... .. . ... ... : ... .. . ... ... : --- .. . ... : ... .. . ... : ... .. . Z30 ...
ROW 09 : ... .. . ... ... : ... .. . ... ... : ... .. . ... : ... .. . ... : ... .. . Z30 ...
ROW 0A : ... .. . ... ... : ... .. . ... ... : ... .. . ... : ... .. . ... : ... .. . Z30 ...
ROW 0B : ... .. . ... ... : ... .. . ... ... : ... .. . ... : ... .. . ... : ... .. . Z30 ...
ROW 0C : ... .. . ... ... : ... .. . ... ... : ... .. . ... : ... .. . ... : ... .. . Z30 ...
ROW 0D : ... .. . ... ... : ... .. . ... ... : ... .. . ... : ... .. . ... : ... .. . Z30 ...
ROW 0E : ... .. . ... ... : ... .. . ... ... : ... .. . ... : ... .. . ... : ... .. . Z30 ...
ROW 0F : ... .. . ... ... : ... .. . ... ... : ... .. . ... : ... .. . ... : ... .. . Z30 ...
ROW 10 : ... .. . ... ... : ... .. . ... ... : ... .. . ... : ... .. . ... : ... .. . Z30 ...
ROW 11 : ... .. . ... ... : ... .. . ... ... : ... .. . ... : ... .. . ... : ... .. . Z30 ...
ROW 12 : E-4 00 0 P7F ... : G-4 00 0 P80 ... : ... .. . ... : C-# 00 C ... : ... .. . Z30 ...
ROW 13 : ... .. 8 ... ... : ... .. 8 ... ... : ... .. . ... : ... .. 0 ... : ... .. . Z30 ...
ROW 14 : ... .. 7 ... ... : ... .. 7 ... ... : ... .. . ... : ... .. . ... : ... .. . Z30 ...
ROW 15 : ... .. 6 ... ... : ... .. 6 ... ... : ... .. . ... : ... .. . ... : ... .. . Z30 ...
ROW 16 : ... .. 5 ... ... : ... .. 5 ... ... : ... .. . ... : ... .. . ... : ... .. . Z30 ...
ROW 17 : ... .. . ... ... : ... .. . ... ... : ... .. . ... : ... .. . ... : ... .. . Z30 ...
ROW 18 : ... .. 4 ... ... : ... .. 4 ... ... : ... .. . ... : B-# 00 0 V01 : ... .. . Z30 ...
ROW 19 : ... .. . ... ... : ... .. . ... ... : ... .. . ... : ... .. . ... : ... .. . Z30 ...
ROW 1A : ... .. 0 ... ... : ... .. 0 ... ... : ... .. . ... : ... .. . ... : ... .. . Z30 ...
ROW 1B : D#4 00 0 P82 ... : F#4 00 0 P7E ... : E-3 00 . P7D : ... .. . ... : ... .. . Z30 ...
ROW 1C : ... .. 8 ... ... : ... .. 8 ... ... : ... .. . ... : ... .. . ... : ... .. . Z30 ...
ROW 1D : ... .. 7 ... ... : ... .. 7 ... ... : ... .. . ... : ... .. . ... : ... .. . Z30 ...
ROW 1E : ... .. 6 ... ... : ... .. 6 ... ... : ... .. . ... : C-# 00 C V00 : ... .. . Z30 ...
ROW 1F : ... .. 5 ... ... : ... .. 5 ... ... : ... .. . ... : ... .. 0 ... : ... .. . Z30 ...
ROW 20 : ... .. . ... ... : ... .. . ... ... : ... .. . ... : ... .. . ... : ... .. . Z30 ...
ROW 21 : ... .. 4 ... ... : ... .. 4 ... ... : ... .. . ... : ... .. . ... : ... .. . Z30 ...
ROW 22 : ... .. . ... ... : ... .. . ... ... : ... .. . ... : ... .. . ... : ... .. . Z30 ...
ROW 23 : ... .. 0 ... ... : ... .. 0 ... ... : --- .. . ... : ... .. . ... : ... .. . Z30 ...
ROW 24 : D-4 00 0 P80 ... : F-4 00 0 P80 ... : ... .. . ... : ... .. C ... : ... .. . Z30 ...
ROW 25 : ... .. 8 ... ... : ... .. 8 ... ... : ... .. . ... : ... .. . ... : ... .. . Z30 ...
ROW 26 : ... .. 7 ... ... : ... .. 7 ... ... : ... .. . ... : ... .. . ... : ... .. . Z30 ...
ROW 27 : ... .. 6 ... ... : ... .. 6 ... ... : ... .. . ... : ... .. . ... : ... .. . Z30 ...
ROW 28 : ... .. 5 ... ... : ... .. 5 ... ... : ... .. . ... : ... .. . ... : ... .. . Z30 ...
ROW 29 : ... .. . ... ... : ... .. . ... ... : ... .. . ... : ... .. 0 ... : ... .. . Z30 ...
ROW 2A : ... .. 4 ... ... : ... .. 4 ... ... : ... .. . ... : ... .. . ... : ... .. . Z30 ...
ROW 2B : ... .. . ... ... : ... .. . ... ... : ... .. . ... : ... .. . ... : ... .. . Z30 ...
ROW 2C : ... .. 0 ... ... : ... .. 0 ... ... : ... .. . ... : ... .. . ... : ... .. . Z30 ...
ROW 2D : B-3 00 0 P7E ... : D#4 00 0 P82 ... : ... .. . ... : ... .. . ... : ... .. . Z30 ...
ROW 2E : ... .. 8 ... ... : ... .. 8 ... ... : ... .. . ... : ... .. . ... : ... .. . Z30 ...
ROW 2F : ... .. 7 ... ... : ... .. 7 ... ... : ... .. . ... : ... .. . ... : ... .. . Z30 ...
ROW 30 : ... .. 6 ... ... : ... .. 6 ... ... : ... .. . ... : ... .. . ... : ... .. . Z30 ...
ROW 31 : ... .. 5 ... ... : ... .. 5 ... ... : ... .. . ... : ... .. . ... : ... .. . Z30 ...
ROW 32 : ... .. . ... ... : ... .. . ... ... : ... .. . ... : ... .. . ... : ... .. . Z30 ...
ROW 33 : ... .. 4 ... ... : ... .. 4 ... ... : ... .. . ... : ... .. . ... : ... .. . Z30 ...
ROW 34 : ... .. . ... ... : ... .. . ... ... : ... .. . ... : ... .. . ... : ... .. . Z30 ...
ROW 35 : ... .. 0 ... ... : ... .. 0 ... ... : ... .. . ... : ... .. . ... : ... .. . Z30 ...
ROW 36 : ... .. . ... ... : ... .. . ... ... : G-3 00 . P80 : ... .. C ... : ... .. . Z30 ...
ROW 37 : ... .. . ... ... : ... .. . ... ... : ... .. . ... : ... .. 0 ... : ... .. . Z30 ...
ROW 38 : ... .. . ... ... : ... .. . ... ... : ... .. . ... : ... .. . ... : ... .. . Z30 ...
ROW 39 : ... .. . ... ... : ... .. . ... ... : ... .. . ... : ... .. . ... : ... .. . Z30 ...
ROW 3A : ... .. . ... ... : ... .. . ... ... : ... .. . ... : ... .. . ... : ... .. . Z30 ...
ROW 3B : ... .. . ... ... : ... .. . ... ... : ... .. . ... : ... .. . ... : ... .. . Z30 ...
ROW 3C : ... .. . ... ... : ... .. . ... ... : ... .. . ... : B-# 00 0 V01 : ... .. . Z30 ...
ROW 3D : ... .. . ... ... : ... .. . ... ... : ... .. . ... : ... .. . ... : ... .. . Z30 ...
ROW 3E : ... .. . ... ... : ... .. . ... ... : --- .. . ... : ... .. . ... : ... .. . Z30 ...
ROW 3F : C-4 00 0 P80 ... : E-4 00 0 P7F ... : C-4 00 . P80 : ... .. . ... : ... .. . Z30 ...
ROW 40 : ... .. 8 ... ... : ... .. 8 ... ... : ... .. . ... : ... .. . ... : ... .. . Z30 ...
ROW 41 : ... .. 7 ... ... : ... .. 7 ... ... : ... .. . ... : ... .. . ... : ... .. . Z30 ...
ROW 42 : ... .. 6 ... ... : ... .. 6 ... ... : ... .. . ... : C-# 00 C V00 : ... .. . Z30 ...
ROW 43 : ... .. 5 ... ... : ... .. 5 ... ... : ... .. . ... : ... .. 0 ... : ... .. . Z30 ...
ROW 44 : ... .. . ... ... : ... .. . ... ... : ... .. . ... : ... .. . ... : ... .. . Z30 ...
ROW 45 : ... .. 4 ... ... : ... .. 4 ... ... : ... .. . ... : ... .. . ... : ... .. . Z30 ...
ROW 46 : ... .. . ... ... : ... .. . ... ... : ... .. . ... : ... .. . ... : ... .. . Z30 ...
ROW 47 : ... .. 0 ... ... : ... .. 0 ... ... : --- .. . ... : ... .. . ... : ... .. . Z30 ...
ROW 48 : ... .. . ... ... : ... .. . ... ... : ... .. . ... : 3-# 00 C ... : ... .. . Z30 ...
ROW 49 : ... .. . ... ... : ... .. . ... ... : ... .. . ... : ... .. 0 ... : ... .. . Z30 ...
ROW 4A : ... .. . ... ... : ... .. . ... ... : ... .. . ... : ... .. . ... : ... .. . Z30 ...
ROW 4B : ... .. . ... ... : ... .. . ... ... : ... .. . ... : ... .. . ... : ... .. . Z30 ...
ROW 4C : ... .. . ... ... : ... .. . ... ... : ... .. . ... : ... .. . ... : ... .. . Z30 ...
ROW 4D : ... .. . ... ... : ... .. . ... ... : ... .. . ... : ... .. . ... : ... .. . Z30 ...
ROW 4E : ... .. . ... ... : ... .. . ... ... : ... .. . ... : ... .. . ... : ... .. . Z30 ...
ROW 4F : ... .. . ... ... : ... .. . ... ... : ... .. . ... : ... .. . ... : ... .. . Z30 ...
ROW 50 : ... .. . ... ... : ... .. . ... ... : ... .. . ... : ... .. . ... : ... .. . Z30 ...
ROW 51 : F-4 00 0 P80 ... : C-5 00 0 P80 ... : G-5 00 . P80 : ... .. . ... : ... .. . Z30 ...
ROW 52 : ... .. 8 ... ... : ... .. 8 ... ... : ... .. . ... : ... .. . ... : ... .. . Z30 ...
ROW 53 : ... .. 7 ... ... : ... .. 7 ... ... : ... .. . ... : ... .. . ... : ... .. . Z30 ...
ROW 54 : ... .. 6 ... ... : ... .. 6 ... ... : ... .. . ... : ... .. . ... : ... .. . Z30 ...
ROW 55 : ... .. 5 ... ... : ... .. 5 ... ... : ... .. . ... : ... .. . ... : ... .. . Z30 ...
ROW 56 : ... .. . ... ... : ... .. . ... ... : ... .. . ... : ... .. . ... : ... .. . Z30 ...
ROW 57 : ... .. 4 ... ... : ... .. 4 ... ... : ... .. . ... : ... .. . ... : ... .. . Z30 ...
ROW 58 : ... .. . ... ... : ... .. . ... ... : ... .. . ... : ... .. . ... : ... .. . Z30 ...
ROW 59 : ... .. 0 ... ... : ... .. 0 ... ... : --- .. . ... : ... .. . ... : ... .. . Z30 ...
ROW 5A : ... .. . ... ... : ... .. . ... ... : ... .. . ... : C-# 00 C ... : ... .. . Z30 ...
ROW 5B : ... .. . ... ... : ... .. . ... ... : ... .. . ... : ... .. 0 ... : ... .. . Z30 ...
ROW 5C : ... .. . ... ... : ... .. . ... ... : ... .. . ... : ... .. . ... : ... .. . Z30 ...
ROW 5D : ... .. . ... ... : ... .. . ... ... : ... .. . ... : ... .. . ... : ... .. . Z30 ...
ROW 5E : ... .. . ... ... : ... .. . ... ... : ... .. . ... : ... .. . ... : ... .. . Z30 ...
ROW 5F : ... .. . ... ... : ... .. . ... ... : ... .. . ... : ... .. . ... : ... .. . Z30 ...
ROW 60 : ... .. . ... ... : ... .. . ... ... : ... .. . ... : B-# 00 0 V01 : ... .. . Z30 ...
ROW 61 : ... .. . ... ... : ... .. . ... ... : ... .. . ... : ... .. . ... : ... .. . Z30 ...
ROW 62 : ... .. . ... ... : ... .. . ... ... : ... .. . ... : ... .. . ... : ... .. . Z30 ...
ROW 63 : ... .. . ... ... : ... .. . ... ... : G-5 00 . P80 : ... .. . ... : ... .. . Z30 ...
ROW 64 : ... .. 8 ... ... : ... .. 8 ... ... : ... .. . ... : ... .. . ... : ... .. . Z30 ...
ROW 65 : ... .. 7 ... ... : ... .. 7 ... ... : ... .. . ... : ... .. . ... : ... .. . Z30 ...
ROW 66 : ... .. 6 ... ... : ... .. 6 ... ... : ... .. . ... : C-# 00 C V00 : ... .. . Z30 ...
ROW 67 : ... .. 5 ... ... : ... .. 5 ... ... : ... .. . ... : ... .. 0 ... : ... .. . Z30 ...
ROW 68 : ... .. . ... ... : ... .. . ... ... : ... .. . ... : ... .. . ... : ... .. . Z30 ...
ROW 69 : ... .. 4 ... ... : ... .. 4 ... ... : ... .. . ... : ... .. . ... : ... .. . Z30 ...
ROW 6A : ... .. . ... ... : ... .. . ... ... : ... .. . ... : ... .. . ... : ... .. . Z30 ...
ROW 6B : ... .. 0 ... ... : ... .. 0 ... ... : --- .. . ... : ... .. . ... : ... .. . Z30 ...
ROW 6C : ... .. . ... ... : ... .. . ... ... : G-5 00 . P80 : ... .. C ... : ... .. . Z30 ...
ROW 6D : ... .. 8 ... ... : ... .. 8 ... ... : ... .. . ... : ... .. . ... : ... .. . Z30 ...
ROW 6E : ... .. 7 ... ... : ... .. 7 ... ... : ... .. . ... : ... .. . ... : ... .. . Z30 ...
ROW 6F : ... .. 6 ... ... : ... .. 6 ... ... : ... .. . ... : ... .. . ... : ... .. . Z30 ...
ROW 70 : ... .. 5 ... ... : ... .. 5 ... ... : ... .. . ... : ... .. . ... : ... .. . Z30 ...
ROW 71 : ... .. . ... ... : ... .. . ... ... : ... .. . ... : ... .. 0 ... : ... .. . Z30 ...
ROW 72 : ... .. 4 ... ... : ... .. 4 ... ... : ... .. . ... : ... .. . ... : ... .. . Z30 ...
ROW 73 : ... .. . ... ... : ... .. . ... ... : ... .. . ... : ... .. . ... : ... .. . Z30 ...
ROW 74 : ... .. 0 ... ... : ... .. 0 ... ... : --- .. . ... : ... .. . ... : ... .. . Z30 ...
ROW 75 : ... .. . ... ... : ... .. . ... ... : ... .. . ... : ... .. . ... : ... .. . Z30 ...
ROW 76 : ... .. . ... ... : ... .. . ... ... : ... .. . ... : ... .. . ... : ... .. . Z30 ...
ROW 77 : ... .. . ... ... : ... .. . ... ... : ... .. . ... : ... .. . ... : ... .. . Z30 ...
ROW 78 : ... .. . ... ... : ... .. . ... ... : ... .. . ... : ... .. . ... : ... .. . Z30 ...
ROW 79 : ... .. . ... ... : ... .. . ... ... : ... .. . ... : ... .. . ... : ... .. . Z30 ...
ROW 7A : ... .. . ... ... : ... .. . ... ... : ... .. . ... : ... .. . ... : ... .. . Z30 ...
ROW 7B : ... .. . ... ... : ... .. . ... ... : ... .. . ... : ... .. . ... : ... .. . Z30 ...
ROW 7C : ... .. . ... ... : ... .. . ... ... : ... .. . ... : ... .. . ... : ... .. . Z30 ...
ROW 7D : ... .. . ... ... : ... .. . ... ... : ... .. . ... : ... .. . ... : ... .. . Z30 ...
ROW 7E : ... .. . ... ... : ... .. . ... ... : G-3 00 . P80 : ... .. C ... : ... .. . Z30 ...
ROW 7F : ... .. . ... ... : ... .. . ... ... : ... .. . ... : ... .. 0 ... : ... .. . Z30 ...
ROW 80 : ... .. . ... ... : ... .. . ... ... : ... .. . ... : ... .. . ... : ... .. . Z30 ...
ROW 81 : ... .. . ... ... : ... .. . ... ... : ... .. . ... : ... .. . ... : ... .. . Z30 ...
ROW 82 : ... .. . ... ... : ... .. . ... ... : ... .. . ... : ... .. . ... : ... .. . Z30 ...
ROW 83 : ... .. . ... ... : ... .. . ... ... : ... .. . ... : ... .. . ... : ... .. . Z30 ...
ROW 84 : ... .. . ... ... : ... .. . ... ... : ... .. . ... : B-# 00 0 V01 : ... .. . Z30 ...
ROW 85 : ... .. . ... ... : ... .. . ... ... : ... .. . ... : ... .. . ... : ... .. . Z30 ...
ROW 86 : ... .. . ... ... : ... .. . ... ... : --- .. . ... : ... .. . ... : ... .. . Z30 ...
ROW 87 : ... .. . ... ... : ... .. . ... ... : ... .. . ... : ... .. . ... : ... .. . Z30 ...
ROW 88 : ... .. . ... ... : ... .. . ... ... : ... .. . ... : ... .. . ... : ... .. . Z30 ...
ROW 89 : ... .. . ... ... : ... .. . ... ... : ... .. . ... : ... .. . ... : ... .. . Z30 ...
ROW 8A : ... .. . ... ... : ... .. . ... ... : ... .. . ... : C-# 00 C V00 : ... .. . Z30 ...
ROW 8B : ... .. . ... ... : ... .. . ... ... : ... .. . ... : ... .. 0 ... : ... .. . Z30 ...
ROW 8C : ... .. . ... ... : ... .. . ... ... : ... .. . ... : ... .. . ... : ... .. . Z30 ...
ROW 8D : ... .. . ... ... : ... .. . ... ... : ... .. . ... : ... .. . ... : ... .. . Z30 ...
ROW 8E : ... .. . ... ... : ... .. . ... ... : ... .. . ... : ... .. . ... : ... .. . Z30 ...
ROW 8F : ... .. . ... ... : ... .. . ... ... : ... .. . ... : ... .. . ... : ... .. . Z30 ...

PATTERN 0B
ROW 00 : ... .. . ... ... : ... .. . ... ... : C-3 00 . P80 : 3-# 00 C ... : ... .. . Z30 ...
ROW 01 : ... .. . ... ... : ... .. . ... ... : ... .. . ... : ... .. 0 ... : ... .. . Z30 ...
ROW 02 : ... .. . ... ... : ... .. . ... ... : ... .. . ... : ... .. . ... : ... .. . Z30 ...
ROW 03 : ... .. . ... ... : ... .. . ... ... : ... .. . ... : ... .. . ... : ... .. . Z30 ...
ROW 04 : ... .. . ... ... : ... .. . ... ... : ... .. . ... : ... .. . ... : ... .. . Z30 ...
ROW 05 : ... .. . ... ... : ... .. . ... ... : ... .. . ... : ... .. . ... : ... .. . Z30 ...
ROW 06 : ... .. . ... ... : ... .. . ... ... : ... .. . ... : ... .. . ... : ... .. . Z30 ...
ROW 07 : ... .. . ... ... : ... .. . ... ... : ... .. . ... : ... .. . ... : ... .. . Z30 ...
ROW 08 : ... .. . ... ... : ... .. . ... ... : --- .. . ... : ... .. . ... : ... .. . Z30 ...
ROW 09 : ... .. . ... ... : ... .. . ... ... : ... .. . ... : ... .. . ... : ... .. . Z30 ...
ROW 0A : ... .. . ... ... : ... .. . ... ... : ... .. . ... : ... .. . ... : ... .. . Z30 ...
ROW 0B : ... .. . ... ... : ... .. . ... ... : ... .. . ... : ... .. . ... : ... .. . Z30 ...
ROW 0C : ... .. . ... ... : ... .. . ... ... : ... .. . ... : ... .. . ... : ... .. . Z30 ...
ROW 0D : ... .. . ... ... : ... .. . ... ... : ... .. . ... : ... .. . ... : ... .. . Z30 ...
ROW 0E : ... .. . ... ... : ... .. . ... ... : ... .. . ... : ... .. . ... : ... .. . Z30 ...
ROW 0F : ... .. . ... ... : ... .. . ... ... : ... .. . ... : ... .. . ... : ... .. . Z30 ...
ROW 10 : ... .. . ... ... : ... .. . ... ... : ... .. . ... : ... .. . ... : ... .. . Z30 ...
ROW 11 : ... .. . ... ... : ... .. . ... ... : ... .. . ... : ... .. . ... : ... .. . Z30 ...
ROW 12 : E-4 00 0 P7F ... : G-4 00 0 P80 ... : ... .. . ... : C-# 00 C ... : ... .. . Z30 ...
ROW 13 : ... .. 8 ... ... : ... .. 8 ... ... : ... .. . ... : ... .. 0 ... : ... .. . Z30 ...
ROW 14 : ... .. 7 ... ... : ... .. 7 ... ... : ... .. . ... : ... .. . ... : ... .. . Z30 ...
ROW 15 : ... .. 6 ... ... : ... .. 6 ... ... : ... .. . ... : ... .. . ... : ... .. . Z30 ...
ROW 16 : ... .. 5 ... ... : ... .. 5 ... ... : ... .. . ... : ... .. . ... : ... .. . Z30 ...
ROW 17 : ... .. . ... ... : ... .. . ... ... : ... .. . ... : ... .. . ... : ... .. . Z30 ...
ROW 18 : ... .. 4 ... ... : ... .. 4 ... ... : ... .. . ... : B-# 00 0 V01 : ... .. . Z30 ...
ROW 19 : ... .. . ... ... : ... .. . ... ... : ... .. . ... : ... .. . ... : ... .. . Z30 ...
ROW 1A : ... .. 0 ... ... : ... .. 0 ... ... : ... .. . ... : ... .. . ... : ... .. . Z30 ...
ROW 1B : D#4 00 0 P82 ... : F#4 00 0 P7E ... : G-3 00 . P80 : ... .. . ... : ... .. . Z30 ...
ROW 1C : ... .. 8 ... ... : ... .. 8 ... ... : ... .. . ... : ... .. . ... : ... .. . Z30 ...
ROW 1D : ... .. 7 ... ... : ... .. 7 ... ... : ... .. . ... : ... .. . ... : ... .. . Z30 ...
ROW 1E : ... .. 6 ... ... : ... .. 6 ... ... : ... .. . ... : C-# 00 C V00 : ... .. . Z30 ...
ROW 1F : ... .. 5 ... ... : ... .. 5 ... ... : ... .. . ... : ... .. 0 ... : ... .. . Z30 ...
ROW 20 : ... .. . ... ... : ... .. . ... ... : ... .. . ... : ... .. . ... : ... .. . Z30 ...
ROW 21 : ... .. 4 ... ... : ... .. 4 ... ... : ... .. . ... : ... .. . ... : ... .. . Z30 ...
ROW 22 : ... .. . ... ... : ... .. . ... ... : ... .. . ... : ... .. . ... : ... .. . Z30 ...
ROW 23 : ... .. 0 ... ... : ... .. 0 ... ... : --- .. . ... : ... .. . ... : ... .. . Z30 ...
ROW 24 : D-4 00 0 P80 ... : F-4 00 0 P80 ... : ... .. . ... : ... .. C ... : ... .. . Z30 ...
ROW 25 : ... .. 8 ... ... : ... .. 8 ... ... : ... .. . ... : ... .. . ... : ... .. . Z30 ...
ROW 26 : ... .. 7 ... ... : ... .. 7 ... ... : ... .. . ... : ... .. . ... : ... .. . Z30 ...
ROW 27 : ... .. 6 ... ... : ... .. 6 ... ... : ... .. . ... : ... .. . ... : ... .. . Z30 ...
ROW 28 : ... .. 5 ... ... : ... .. 5 ... ... : ... .. . ... : ... .. . ... : ... .. . Z30 ...
ROW 29 : ... .. . ... ... : ... .. . ... ... : ... .. . ... : ... .. 0 ... : ... .. . Z30 ...
ROW 2A : ... .. 4 ... ... : ... .. 4 ... ... : ... .. . ... : ... .. . ... : ... .. . Z30 ...
ROW 2B : ... .. . ... ... : ... .. . ... ... : ... .. . ... : ... .. . ... : ... .. . Z30 ...
ROW 2C : ... .. 0 ... ... : ... .. 0 ... ... : ... .. . ... : ... .. . ... : ... .. . Z30 ...
ROW 2D : B-3 00 0 P7E ... : D#4 00 0 P82 ... : ... .. . ... : ... .. . ... : ... .. . Z30 ...
ROW 2E : ... .. 8 ... ... : ... .. 8 ... ... : ... .. . ... : ... .. . ... : ... .. . Z30 ...
ROW 2F : ... .. 7 ... ... : ... .. 7 ... ... : ... .. . ... : ... .. . ... : ... .. . Z30 ...
ROW 30 : ... .. 6 ... ... : ... .. 6 ... ... : ... .. . ... : ... .. . ... : ... .. . Z30 ...
ROW 31 : ... .. 5 ... ... : ... .. 5 ... ... : ... .. . ... : ... .. . ... : ... .. . Z30 ...
ROW 32 : ... .. . ... ... : ... .. . ... ... : ... .. . ... : ... .. . ... : ... .. . Z30 ...
ROW 33 : ... .. 4 ... ... : ... .. 4 ... ... : ... .. . ... : ... .. . ... : ... .. . Z30 ...
ROW 34 : ... .. . ... ... : ... .. . ... ... : ... .. . ... : ... .. . ... : ... .. . Z30 ...
ROW 35 : ... .. 0 ... ... : ... .. 0 ... ... : ... .. . ... : ... .. . ... : ... .. . Z30 ...
ROW 36 : ... .. . ... ... : ... .. . ... ... : C-4 00 . P80 : ... .. C ... : ... .. . Z30 ...
ROW 37 : ... .. . ... ... : ... .. . ... ... : ... .. . ... : ... .. 0 ... : ... .. . Z30 ...
ROW 38 : ... .. . ... ... : ... .. . ... ... : ... .. . ... : ... .. . ... : ... .. . Z30 ...
ROW 39 : ... .. . ... ... : ... .. . ... ... : ... .. . ... : ... .. . ... : ... .. . Z30 ...
ROW 3A : ... .. . ... ... : ... .. . ... ... : ... .. . ... : ... .. . ... : ... .. . Z30 ...
ROW 3B : ... .. . ... ... : ... .. . ... ... : ... .. . ... : ... .. . ... : ... .. . Z30 ...
ROW 3C : ... .. . ... ... : ... .. . ... ... : ... .. . ... : B-# 00 0 V01 : ... .. . Z30 ...
ROW 3D : ... .. . ... ... : ... .. . ... ... : ... .. . ... : ... .. . ... : ... .. . Z30 ...
ROW 3E : ... .. . ... ... : ... .. . ... ... : --- .. . ... : ... .. . ... : ... .. . Z30 ...
ROW 3F : C-4 00 0 P80 ... : E-4 00 0 P7F ... : ... .. . ... : ... .. . ... : ... .. . Z30 ...
ROW 40 : ... .. 8 ... ... : ... .. 8 ... ... : ... .. . ... : ... .. . ... : ... .. . Z30 ...
ROW 41 : ... .. 7 ... ... : ... .. 7 ... ... : ... .. . ... : ... .. . ... : ... .. . Z30 ...
ROW 42 : ... .. 6 ... ... : ... .. 6 ... ... : ... .. . ... : C-# 00 C V00 : ... .. . Z30 ...
ROW 43 : ... .. 5 ... ... : ... .. 5 ... ... : ... .. . ... : ... .. 0 ... : ... .. . Z30 ...
ROW 44 : ... .. . ... ... : ... .. . ... ... : ... .. . ... : ... .. . ... : ... .. . Z30 ...
ROW 45 : ... .. 4 ... ... : ... .. 4 ... ... : ... .. . ... : ... .. . ... : ... .. . Z30 ...
ROW 46 : ... .. . ... ... : ... .. . ... ... : ... .. . ... : ... .. . ... : ... .. . Z30 ...
ROW 47 : ... .. 0 ... ... : ... .. 0 ... ... : ... .. . ... : ... .. . ... : ... .. . Z30 ...
ROW 48 : ... .. . ... ... : ... .. . ... ... : F-3 00 . P80 : 3-# 00 C ... : ... .. . Z30 ...
ROW 49 : ... .. . ... ... : ... .. . ... ... : ... .. . ... : ... .. 0 ... : ... .. . Z30 ...
ROW 4A : ... .. . ... ... : ... .. . ... ... : ... .. . ... : ... .. . ... : ... .. . Z30 ...
ROW 4B : ... .. . ... ... : ... .. . ... ... : ... .. . ... : ... .. . ... : ... .. . Z30 ...
ROW 4C : ... .. . ... ... : ... .. . ... ... : ... .. . ... : ... .. . ... : ... .. . Z30 ...
ROW 4D : ... .. . ... ... : ... .. . ... ... : ... .. . ... : ... .. . ... : ... .. . Z30 ...
ROW 4E : ... .. . ... ... : ... .. . ... ... : ... .. . ... : ... .. . ... : ... .. . Z30 ...
ROW 4F : ... .. . ... ... : ... .. . ... ... : ... .. . ... : ... .. . ... : ... .. . Z30 ...
ROW 50 : ... .. . ... ... : ... .. . ... ... : --- .. . ... : ... .. . ... : ... .. . Z30 ...
ROW 51 : E-3 00 0 P7D ... : G#3 00 0 P82 ... : ... .. . ... : ... .. . ... : ... .. . Z30 ...
ROW 52 : ... .. 8 ... ... : ... .. 8 ... ... : ... .. . ... : ... .. . ... : ... .. . Z30 ...
ROW 53 : ... .. 7 ... ... : ... .. 7 ... ... : ... .. . ... : ... .. . ... : ... .. . Z30 ...
ROW 54 : ... .. 6 ... ... : ... .. 6 ... ... : ... .. . ... : ... .. . ... : ... .. . Z30 ...
ROW 55 : ... .. 5 ... ... : ... .. 5 ... ... : ... .. . ... : ... .. . ... : ... .. . Z30 ...
ROW 56 : ... .. . ... ... : ... .. . ... ... : ... .. . ... : ... .. . ... : ... .. . Z30 ...
ROW 57 : ... .. 4 ... ... : ... .. 4 ... ... : ... .. . ... : ... .. . ... : ... .. . Z30 ...
ROW 58 : ... .. . ... ... : ... .. . ... ... : ... .. . ... : ... .. . ... : ... .. . Z30 ...
ROW 59 : ... .. 0 ... ... : ... .. 0 ... ... : ... .. . ... : ... .. . ... : ... .. . Z30 ...
ROW 5A : F-3 00 0 P80 ... : A-3 00 0 P7E ... : ... .. . ... : C-# 00 C ... : ... .. . Z30 ...
ROW 5B : ... .. 8 ... ... : ... .. 8 ... ... : ... .. . ... : ... .. 0 ... : ... .. . Z30 ...
ROW 5C : ... .. 7 ... ... : ... .. 7 ... ... : ... .. . ... : ... .. . ... : ... .. . Z30 ...
ROW 5D : ... .. 6 ... ... : ... .. 6 ... ... : ... .. . ... : ... .. . ... : ... .. . Z30 ...
ROW 5E : ... .. 5 ... ... : ... .. 5 ... ... : ... .. . ... : ... .. . ... : ... .. . Z30 ...
ROW 5F : ... .. . ... ... : ... .. . ... ... : ... .. . ... : ... .. . ... : ... .. . Z30 ...
ROW 60 : ... .. 4 ... ... : ... .. 4 ... ... : ... .. . ... : B-# 00 0 V01 : ... .. . Z30 ...
ROW 61 : ... .. . ... ... : ... .. . ... ... : ... .. . ... : ... .. . ... : ... .. . Z30 ...
ROW 62 : ... .. 0 ... ... : ... .. 0 ... ... : ... .. . ... : ... .. . ... : ... .. . Z30 ...
ROW 63 : G-3 00 0 P80 ... : C-4 00 0 P80 ... : C-4 00 . P80 : ... .. . ... : ... .. . Z30 ...
ROW 64 : ... .. 8 ... ... : ... .. 8 ... ... : ... .. . ... : ... .. . ... : ... .. . Z30 ...
ROW 65 : ... .. 7 ... ... : ... .. 7 ... ... : ... .. . ... : ... .. . ... : ... .. . Z30 ...
ROW 66 : ... .. 6 ... ... : ... .. 6 ... ... : ... .. . ... : C-# 00 C V00 : ... .. . Z30 ...
ROW 67 : ... .. 5 ... ... : ... .. 5 ... ... : ... .. . ... : ... .. 0 ... : ... .. . Z30 ...
ROW 68 : ... .. . ... ... : ... .. . ... ... : ... .. . ... : ... .. . ... : ... .. . Z30 ...
ROW 69 : ... .. 4 ... ... : ... .. 4 ... ... : ... .. . ... : ... .. . ... : ... .. . Z30 ...
ROW 6A : ... .. . ... ... : ... .. . ... ... : ... .. . ... : ... .. . ... : ... .. . Z30 ...
ROW 6B : ... .. 0 ... ... : ... .. 0 ... ... : --- .. . ... : ... .. . ... : ... .. . Z30 ...
ROW 6C : ... .. . ... ... : ... .. . ... ... : C-4 00 . P80 : ... .. C ... : ... .. . Z30 ...
ROW 6D : ... .. . ... ... : ... .. . ... ... : ... .. . ... : ... .. . ... : ... .. . Z30 ...
ROW 6E : ... .. . ... ... : ... .. . ... ... : ... .. . ... : ... .. . ... : ... .. . Z30 ...
ROW 6F : ... .. . ... ... : ... .. . ... ... : ... .. . ... : ... .. . ... : ... .. . Z30 ...
ROW 70 : ... .. . ... ... : ... .. . ... ... : ... .. . ... : ... .. . ... : ... .. . Z30 ...
ROW 71 : ... .. . ... ... : ... .. . ... ... : ... .. . ... : ... .. 0 ... : ... .. . Z30 ...
ROW 72 : ... .. . ... ... : ... .. . ... ... : ... .. . ... : ... .. . ... : ... .. . Z30 ...
ROW 73 : ... .. . ... ... : ... .. . ... ... : ... .. . ... : ... .. . ... : ... .. . Z30 ...
ROW 74 : ... .. . ... ... : ... .. . ... ... : --- .. . ... : ... .. . ... : ... .. . Z30 ...
ROW 75 : C-3 00 0 P80 ... : A-3 00 0 P7E ... : ... .. . ... : ... .. . ... : ... .. . Z30 ...
ROW 76 : ... .. 8 ... ... : ... .. 8 ... ... : ... .. . ... : ... .. . ... : ... .. . Z30 ...
ROW 77 : ... .. 7 ... ... : ... .. 7 ... ... : ... .. . ... : ... .. . ... : ... .. . Z30 ...
ROW 78 : ... .. 6 ... ... : ... .. 6 ... ... : ... .. . ... : ... .. . ... : ... .. . Z30 ...
ROW 79 : ... .. 5 ... ... : ... .. 5 ... ... : ... .. . ... : ... .. . ... : ... .. . Z30 ...
ROW 7A : ... .. . ... ... : ... .. . ... ... : ... .. . ... : ... .. . ... : ... .. . Z30 ...
ROW 7B : ... .. 4 ... ... : ... .. 4 ... ... : ... .. . ... : ... .. . ... : ... .. . Z30 ...
ROW 7C : ... .. . ... ... : ... .. . ... ... : ... .. . ... : ... .. . ... : ... .. . Z30 ...
ROW 7D : ... .. 0 ... ... : ... .. 0 ... ... : ... .. . ... : ... .. . ... : ... .. . Z30 ...
ROW 7E : E-3 00 0 P7D ... : C-4 00 0 P80 ... : F-3 00 . P80 : ... .. C ... : ... .. . Z30 ...
ROW 7F : ... .. 8 ... ... : ... .. 8 ... ... : ... .. . ... : ... .. 0 ... : ... .. . Z30 ...
ROW 80 : ... .. 7 ... ... : ... .. 7 ... ... : ... .. . ... : ... .. . ... : ... .. . Z30 ...
ROW 81 : ... .. 6 ... ... : ... .. 6 ... ... : ... .. . ... : ... .. . ... : ... .. . Z30 ...
ROW 82 : ... .. 5 ... ... : ... .. 5 ... ... : ... .. . ... : ... .. . ... : ... .. . Z30 ...
ROW 83 : ... .. . ... ... : ... .. . ... ... : ... .. . ... : ... .. . ... : ... .. . Z30 ...
ROW 84 : ... .. 4 ... ... : ... .. 4 ... ... : ... .. . ... : B-# 00 0 V01 : ... .. . Z30 ...
ROW 85 : ... .. . ... ... : ... .. . ... ... : ... .. . ... : ... .. . ... : ... .. . Z30 ...
ROW 86 : ... .. 0 ... ... : ... .. 0 ... ... : --- .. . ... : ... .. . ... : ... .. . Z30 ...
ROW 87 : F-3 00 0 P80 ... : D-4 00 0 P80 ... : ... .. . ... : ... .. . ... : ... .. . Z30 ...
ROW 88 : ... .. 8 ... ... : ... .. 8 ... ... : ... .. . ... : ... .. . ... : ... .. . Z30 ...
ROW 89 : ... .. 7 ... ... : ... .. 7 ... ... : ... .. . ... : ... .. . ... : ... .. . Z30 ...
ROW 8A : ... .. 6 ... ... : ... .. 6 ... ... : ... .. . ... : C-# 00 C V00 : ... .. . Z30 ...
ROW 8B : ... .. 5 ... ... : ... .. 5 ... ... : ... .. . ... : ... .. 0 ... : ... .. . Z30 ...
ROW 8C : ... .. . ... ... : ... .. . ... ... : ... .. . ... : ... .. . ... : ... .. . Z30 ...
ROW 8D : ... .. 4 ... ... : ... .. 4 ... ... : ... .. . ... : ... .. . ... : ... .. . Z30 ...
ROW 8E : ... .. . ... ... : ... .. . ... ... : ... .. . ... : ... .. . ... : ... .. . Z30 ...
ROW 8F : ... .. 0 ... ... : ... .. 0 ... ... : ... .. . ... : ... .. . ... : ... .. . Z30 ...

PATTERN 0C
ROW 00 : ... .. . ... ... : ... .. . ... ... : C-3 00 . P80 : 3-# 00 C ... : ... .. . Z30 ...
ROW 01 : ... .. . ... ... : ... .. . ... ... : ... .. . ... : ... .. 0 ... : ... .. . Z30 ...
ROW 02 : ... .. . ... ... : ... .. . ... ... : ... .. . ... : ... .. . ... : ... .. . Z30 ...
ROW 03 : ... .. . ... ... : ... .. . ... ... : ... .. . ... : ... .. . ... : ... .. . Z30 ...
ROW 04 : ... .. . ... ... : ... .. . ... ... : ... .. . ... : ... .. . ... : ... .. . Z30 ...
ROW 05 : ... .. . ... ... : ... .. . ... ... : ... .. . ... : ... .. . ... : ... .. . Z30 ...
ROW 06 : ... .. . ... ... : ... .. . ... ... : ... .. . ... : ... .. . ... : ... .. . Z30 ...
ROW 07 : ... .. . ... ... : ... .. . ... ... : ... .. . ... : ... .. . ... : ... .. . Z30 ...
ROW 08 : ... .. . ... ... : ... .. . ... ... : --- .. . ... : ... .. . ... : ... .. . Z30 ...
ROW 09 : ... .. . ... ... : ... .. . ... ... : ... .. . ... : ... .. . ... : ... .. . Z30 ...
ROW 0A : ... .. . ... ... : ... .. . ... ... : ... .. . ... : ... .. . ... : ... .. . Z30 ...
ROW 0B : ... .. . ... ... : ... .. . ... ... : ... .. . ... : ... .. . ... : ... .. . Z30 ...
ROW 0C : ... .. . ... ... : ... .. . ... ... : ... .. . ... : ... .. . ... : ... .. . Z30 ...
ROW 0D : ... .. . ... ... : ... .. . ... ... : ... .. . ... : ... .. . ... : ... .. . Z30 ...
ROW 0E : ... .. . ... ... : ... .. . ... ... : ... .. . ... : ... .. . ... : ... .. . Z30 ...
ROW 0F : ... .. . ... ... : ... .. . ... ... : ... .. . ... : ... .. . ... : ... .. . Z30 ...
ROW 10 : ... .. . ... ... : ... .. . ... ... : ... .. . ... : ... .. . ... : ... .. . Z30 ...
ROW 11 : ... .. . ... ... : ... .. . ... ... : ... .. . ... : ... .. . ... : ... .. . Z30 ...
ROW 12 : G#3 00 0 P82 ... : D#4 00 0 P82 ... : G#3 00 . P82 : C-# 00 C ... : ... .. . Z30 ...
ROW 13 : ... .. 8 ... ... : ... .. 8 ... ... : ... .. . ... : ... .. 0 ... : ... .. . Z30 ...
ROW 14 : ... .. 7 ... ... : ... .. 7 ... ... : ... .. . ... : ... .. . ... : ... .. . Z30 ...
ROW 15 : ... .. 6 ... ... : ... .. 6 ... ... : ... .. . ... : ... .. . ... : ... .. . Z30 ...
ROW 16 : ... .. 5 ... ... : ... .. 5 ... ... : ... .. . ... : ... .. . ... : ... .. . Z30 ...
ROW 17 : ... .. . ... ... : ... .. . ... ... : ... .. . ... : ... .. . ... : ... .. . Z30 ...
ROW 18 : ... .. 4 ... ... : ... .. 4 ... ... : ... .. . ... : B-# 00 0 V01 : ... .. . Z30 ...
ROW 19 : ... .. . ... ... : ... .. . ... ... : ... .. . ... : ... .. . ... : ... .. . Z30 ...
ROW 1A : ... .. 0 ... ... : ... .. 0 ... ... : --- .. . ... : ... .. . ... : ... .. . Z30 ...
ROW 1B : ... .. . ... ... : ... .. . ... ... : ... .. . ... : ... .. . ... : ... .. . Z30 ...
ROW 1C : ... .. . ... ... : ... .. . ... ... : ... .. . ... : ... .. . ... : ... .. . Z30 ...
ROW 1D : ... .. . ... ... : ... .. . ... ... : ... .. . ... : ... .. . ... : ... .. . Z30 ...
ROW 1E : ... .. . ... ... : ... .. . ... ... : ... .. . ... : C-# 00 C V00 : ... .. . Z30 ...
ROW 1F : ... .. . ... ... : ... .. . ... ... : ... .. . ... : ... .. 0 ... : ... .. . Z30 ...
ROW 20 : ... .. . ... ... : ... .. . ... ... : ... .. . ... : ... .. . ... : ... .. . Z30 ...
ROW 21 : ... .. . ... ... : ... .. . ... ... : ... .. . ... : ... .. . ... : ... .. . Z30 ...
ROW 22 : ... .. . ... ... : ... .. . ... ... : ... .. . ... : ... .. . ... : ... .. . Z30 ...
ROW 23 : ... .. . ... ... : ... .. . ... ... : ... .. . ... : ... .. . ... : ... .. . Z30 ...
ROW 24 : ... .. . ... ... : ... .. . ... ... : ... .. . ... : ... .. C ... : ... .. . Z30 ...
ROW 25 : ... .. . ... ... : ... .. . ... ... : ... .. . ... : ... .. . ... : ... .. . Z30 ...
ROW 26 : ... .. . ... ... : ... .. . ... ... : ... .. . ... : ... .. . ... : ... .. . Z30 ...
ROW 27 : ... .. . ... ... : ... .. . ... ... : ... .. . ... : ... .. . ... : ... .. . Z30 ...
ROW 28 : ... .. . ... ... : ... .. . ... ... : ... .. . ... : ... .. . ... : ... .. . Z30 ...
ROW 29 : ... .. . ... ... : ... .. . ... ... : ... .. . ... : ... .. 0 ... : ... .. . Z30 ...
ROW 2A : ... .. . ... ... : ... .. . ... ... : ... .. . ... : ... .. . ... : ... .. . Z30 ...
ROW 2B : ... .. . ... ... : ... .. . ... ... : ... .. . ... : ... .. . ... : ... .. . Z30 ...
ROW 2C : ... .. . ... ... : ... .. . ... ... : ... .. . ... : ... .. . ... : ... .. . Z30 ...
ROW 2D : F-3 00 0 P80 ... : D-4 00 0 P80 ... : A#3 00 . P7C : ... .. . ... : ... .. . Z30 ...
ROW 2E : ... .. 8 ... ... : ... .. 8 ... ... : ... .. . ... : ... .. . ... : ... .. . Z30 ...
ROW 2F : ... .. 7 ... ... : ... .. 7 ... ... : ... .. . ... : ... .. . ... : ... .. . Z30 ...
ROW 30 : ... .. 6 ... ... : ... .. 6 ... ... : ... .. . ... : ... .. . ... : ... .. . Z30 ...
ROW 31 : ... .. 5 ... ... : ... .. 5 ... ... : ... .. . ... : ... .. . ... : ... .. . Z30 ...
ROW 32 : ... .. . ... ... : ... .. . ... ... : ... .. . ... : ... .. . ... : ... .. . Z30 ...
ROW 33 : ... .. 4 ... ... : ... .. 4 ... ... : ... .. . ... : ... .. . ... : ... .. . Z30 ...
ROW 34 : ... .. . ... ... : ... .. . ... ... : ... .. . ... : ... .. . ... : ... .. . Z30 ...
ROW 35 : ... .. 0 ... ... : ... .. 0 ... ... : --- .. . ... : ... .. . ... : ... .. . Z30 ...
ROW 36 : ... .. . ... ... : ... .. . ... ... : ... .. . ... : ... .. C ... : ... .. . Z30 ...
ROW 37 : ... .. . ... ... : ... .. . ... ... : ... .. . ... : ... .. 0 ... : ... .. . Z30 ...
ROW 38 : ... .. . ... ... : ... .. . ... ... : ... .. . ... : ... .. . ... : ... .. . Z30 ...
ROW 39 : ... .. . ... ... : ... .. . ... ... : ... .. . ... : ... .. . ... : ... .. . Z30 ...
ROW 3A : ... .. . ... ... : ... .. . ... ... : ... .. . ... : ... .. . ... : ... .. . Z30 ...
ROW 3B : ... .. . ... ... : ... .. . ... ... : ... .. . ... : ... .. . ... : ... .. . Z30 ...
ROW 3C : ... .. . ... ... : ... .. . ... ... : ... .. . ... : B-# 00 0 V01 : ... .. . Z30 ...
ROW 3D : ... .. . ... ... : ... .. . ... ... : ... .. . ... : ... .. . ... : ... .. . Z30 ...
ROW 3E : ... .. . ... ... : ... .. . ... ... : ... .. . ... : ... .. . ... : ... .. . Z30 ...
ROW 3F : ... .. . ... ... : ... .. . ... ... : ... .. . ... : ... .. . ... : ... .. . Z30 ...
ROW 40 : ... .. . ... ... : ... .. . ... ... : ... .. . ... : ... .. . ... : ... .. . Z30 ...
ROW 41 : ... .. . ... ... : ... .. . ... ... : ... .. . ... : ... .. . ... : ... .. . Z30 ...
ROW 42 : ... .. . ... ... : ... .. . ... ... : ... .. . ... : C-# 00 C V00 : ... .. . Z30 ...
ROW 43 : ... .. . ... ... : ... .. . ... ... : ... .. . ... : ... .. 0 ... : ... .. . Z30 ...
ROW 44 : ... .. . ... ... : ... .. . ... ... : ... .. . ... : ... .. . ... : ... .. . Z30 ...
ROW 45 : ... .. . ... ... : ... .. . ... ... : ... .. . ... : ... .. . ... : ... .. . Z30 ...
ROW 46 : ... .. . ... ... : ... .. . ... ... : ... .. . ... : ... .. . ... : ... .. . Z30 ...
ROW 47 : ... .. . ... ... : ... .. . ... ... : ... .. . ... : ... .. . ... : ... .. . Z30 ...
ROW 48 : E-3 00 0 P7D ... : C-4 00 0 P80 ... : C-4 00 . P80 : 3-# 00 C ... : ... .. . Z30 ...
ROW 49 : ... .. 8 ... ... : ... .. 8 ... ... : ... .. . ... : ... .. 0 ... : ... .. . Z30 ...
ROW 4A : ... .. 7 ... ... : ... .. 7 ... ... : ... .. . ... : ... .. . ... : ... .. . Z30 ...
ROW 4B : ... .. 6 ... ... : ... .. 6 ... ... : ... .. . ... : ... .. . ... : ... .. . Z30 ...
ROW 4C : ... .. 5 ... ... : ... .. 5 ... ... : ... .. . ... : ... .. . ... : ... .. . Z30 ...
ROW 4D : ... .. . ... ... : ... .. . ... ... : ... .. . ... : ... .. . ... : ... .. . Z30 ...
ROW 4E : ... .. 4 ... ... : ... .. 4 ... ... : ... .. . ... : ... .. . ... : ... .. . Z30 ...
ROW 4F : ... .. . ... ... : ... .. . ... ... : ... .. . ... : ... .. . ... : ... .. . Z30 ...
ROW 50 : ... .. 0 ... ... : ... .. 0 ... ... : --- .. . ... : ... .. . ... : ... .. . Z30 ...
ROW 51 : ... .. . ... ... : ... .. . ... ... : ... .. . ... : ... .. . ... : ... .. . Z30 ...
ROW 52 : ... .. . ... ... : ... .. . ... ... : ... .. . ... : ... .. . ... : ... .. . Z30 ...
ROW 53 : ... .. . ... ... : ... .. . ... ... : ... .. . ... : ... .. . ... : ... .. . Z30 ...
ROW 54 : ... .. . ... ... : ... .. . ... ... : ... .. . ... : ... .. . ... : ... .. . Z30 ...
ROW 55 : ... .. . ... ... : ... .. . ... ... : ... .. . ... : ... .. . ... : ... .. . Z30 ...
ROW 56 : ... .. . ... ... : ... .. . ... ... : ... .. . ... : ... .. . ... : ... .. . Z30 ...
ROW 57 : ... .. . ... ... : ... .. . ... ... : ... .. . ... : ... .. . ... : ... .. . Z30 ...
ROW 58 : ... .. . ... ... : ... .. . ... ... : ... .. . ... : ... .. . ... : ... .. . Z30 ...
ROW 59 : ... .. . ... ... : ... .. . ... ... : ... .. . ... : ... .. . ... : ... .. . Z30 ...
ROW 5A : ... .. . ... ... : ... .. . ... ... : ... .. . ... : C-# 00 C ... : ... .. . Z30 ...
ROW 5B : ... .. . ... ... : ... .. . ... ... : ... .. . ... : ... .. 0 ... : ... .. . Z30 ...
ROW 5C : ... .. . ... ... : ... .. . ... ... : ... .. . ... : ... .. . ... : ... .. . Z30 ...
ROW 5D : ... .. . ... ... : ... .. . ... ... : ... .. . ... : ... .. . ... : ... .. . Z30 ...
ROW 5E : ... .. . ... ... : ... .. . ... ... : ... .. . ... : ... .. . ... : ... .. . Z30 ...
ROW 5F : ... .. . ... ... : ... .. . ... ... : ... .. . ... : ... .. . ... : ... .. . Z30 ...
ROW 60 : ... .. . ... ... : ... .. . ... ... : ... .. . ... : B-# 00 0 V01 : ... .. . Z30 ...
ROW 61 : ... .. . ... ... : ... .. . ... ... : ... .. . ... : ... .. . ... : ... .. . Z30 ...
ROW 62 : ... .. . ... ... : ... .. . ... ... : ... .. . ... : ... .. . ... : ... .. . Z30 ...
ROW 63 : ... .. . ... ... : ... .. . ... ... : G-3 00 . P80 : ... .. . ... : ... .. . Z30 ...
ROW 64 : ... .. . ... ... : ... .. . ... ... : ... .. . ... : ... .. . ... : ... .. . Z30 ...
ROW 65 : ... .. . ... ... : ... .. . ... ... : ... .. . ... : ... .. . ... : ... .. . Z30 ...
ROW 66 : ... .. . ... ... : ... .. . ... ... : ... .. . ... : C-# 00 C V00 : ... .. . Z30 ...
ROW 67 : ... .. . ... ... : ... .. . ... ... : ... .. . ... : ... .. 0 ... : ... .. . Z30 ...
ROW 68 : ... .. . ... ... : ... .. . ... ... : ... .. . ... : ... .. . ... : ... .. . Z30 ...
ROW 69 : ... .. . ... ... : ... .. . ... ... : ... .. . ... : ... .. . ... : ... .. . Z30 ...
ROW 6A : ... .. . ... ... : ... .. . ... ... : ... .. . ... : ... .. . ... : ... .. . Z30 ...
ROW 6B : ... .. . ... ... : ... .. . ... ... : --- .. . ... : ... .. . ... : ... .. . Z30 ...
ROW 6C : ... .. . ... ... : ... .. . ... ... : G-3 00 . P80 : ... .. C ... : ... .. . Z30 ...
ROW 6D : ... .. . ... ... : ... .. . ... ... : ... .. . ... : ... .. . ... : ... .. . Z30 ...
ROW 6E : ... .. . ... ... : ... .. . ... ... : ... .. . ... : ... .. . ... : ... .. . Z30 ...
ROW 6F : ... .. . ... ... : ... .. . ... ... : ... .. . ... : ... .. . ... : ... .. . Z30 ...
ROW 70 : ... .. . ... ... : ... .. . ... ... : ... .. . ... : ... .. . ... : ... .. . Z30 ...
ROW 71 : ... .. . ... ... : ... .. . ... ... : ... .. . ... : ... .. 0 ... : ... .. . Z30 ...
ROW 72 : ... .. . ... ... : ... .. . ... ... : ... .. . ... : ... .. . ... : ... .. . Z30 ...
ROW 73 : ... .. . ... ... : ... .. . ... ... : ... .. . ... : ... .. . ... : ... .. . Z30 ...
ROW 74 : ... .. . ... ... : ... .. . ... ... : --- .. . ... : ... .. . ... : ... .. . Z30 ...
ROW 75 : ... .. . ... ... : ... .. . ... ... : ... .. . ... : ... .. . ... : ... .. . Z30 ...
ROW 76 : ... .. . ... ... : ... .. . ... ... : ... .. . ... : ... .. . ... : ... .. . Z30 ...
ROW 77 : ... .. . ... ... : ... .. . ... ... : ... .. . ... : ... .. . ... : ... .. . Z30 ...
ROW 78 : ... .. . ... ... : ... .. . ... ... : ... .. . ... : ... .. . ... : ... .. . Z30 ...
ROW 79 : ... .. . ... ... : ... .. . ... ... : ... .. . ... : ... .. . ... : ... .. . Z30 ...
ROW 7A : ... .. . ... ... : ... .. . ... ... : ... .. . ... : ... .. . ... : ... .. . Z30 ...
ROW 7B : ... .. . ... ... : ... .. . ... ... : ... .. . ... : ... .. . ... : ... .. . Z30 ...
ROW 7C : ... .. . ... ... : ... .. . ... ... : ... .. . ... : ... .. . ... : ... .. . Z30 ...
ROW 7D : ... .. . ... ... : ... .. . ... ... : ... .. . ... : ... .. . ... : ... .. . Z30 ...
ROW 7E : ... .. . ... ... : ... .. . ... ... : C-3 00 . P80 : ... .. C ... : ... .. . Z30 ...
ROW 7F : ... .. . ... ... : ... .. . ... ... : ... .. . ... : ... .. 0 ... : ... .. . Z30 ...
ROW 80 : ... .. . ... ... : ... .. . ... ... : ... .. . ... : ... .. . ... : ... .. . Z30 ...
ROW 81 : ... .. . ... ... : ... .. . ... ... : ... .. . ... : ... .. . ... : ... .. . Z30 ...
ROW 82 : ... .. . ... ... : ... .. . ... ... : ... .. . ... : ... .. . ... : ... .. . Z30 ...
ROW 83 : ... .. . ... ... : ... .. . ... ... : ... .. . ... : ... .. . ... : ... .. . Z30 ...
ROW 84 : ... .. . ... ... : ... .. . ... ... : ... .. . ... : B-# 00 0 V01 : ... .. . Z30 ...
ROW 85 : ... .. . ... ... : ... .. . ... ... : ... .. . ... : ... .. . ... : ... .. . Z30 ...
ROW 86 : ... .. . ... ... : ... .. . ... ... : --- .. . ... : ... .. . ... : ... .. . Z30 ...
ROW 87 : ... .. . ... ... : ... .. . ... ... : ... .. . ... : ... .. . ... : ... .. . Z30 ...
ROW 88 : ... .. . ... ... : ... .. . ... ... : ... .. . ... : ... .. . ... : ... .. . Z30 ...
ROW 89 : ... .. . ... ... : ... .. . ... ... : ... .. . ... : ... .. . ... : ... .. . Z30 ...
ROW 8A : ... .. . ... ... : ... .. . ... ... : ... .. . ... : C-# 00 C V00 : ... .. . Z30 ...
ROW 8B : ... .. . ... ... : ... .. . ... ... : ... .. . ... : ... .. 0 ... : ... .. . Z30 ...
ROW 8C : ... .. . ... ... : ... .. . ... ... : ... .. . ... : ... .. . ... : ... .. . Z30 ...
ROW 8D : ... .. . ... ... : ... .. . ... ... : ... .. . ... : ... .. . ... : ... .. . Z30 ...
ROW 8E : ... .. . ... ... : ... .. . ... ... : ... .. . ... : ... .. . ... : ... .. . Z30 ...
ROW 8F : ... .. . ... ... : ... .. . ... ... : ... .. . ... : ... .. . ... : ... .. . Z30 ...

PATTERN 0D
ROW 00 : G#3 00 0 P82 ... : ... .. . ... ... : G#2 00 . P84 : ... .. C ... : ... .. . Z30 ...
ROW 01 : ... .. 8 ... ... : ... .. 8 ... ... : ... .. . ... : ... .. . ... : ... .. . Z30 ...
ROW 02 : ... .. 7 ... ... : ... .. 7 ... ... : ... .. . ... : ... .. . ... : ... .. . Z30 ...
ROW 03 : ... .. 6 ... ... : ... .. 6 ... ... : ... .. . ... : ... .. . ... : ... .. . Z30 ...
ROW 04 : ... .. 5 ... ... : ... .. 5 ... ... : ... .. . ... : ... .. . ... : ... .. . Z30 ...
ROW 05 : ... .. . ... ... : ... .. . ... ... : ... .. . ... : ... .. 0 ... : ... .. . Z30 ...
ROW 06 : ... .. 4 ... ... : ... .. 4 ... ... : ... .. . ... : ... .. . ... : ... .. . Z30 ...
ROW 07 : ... .. . ... ... : ... .. . ... ... : ... .. . ... : ... .. . ... : ... .. . Z30 ...
ROW 08 : ... .. 0 ... ... : ... .. 0 ... ... : --- .. . ... : ... .. . ... : ... .. . Z30 ...
ROW 09 : ... .. . ... ... : ... .. . ... ... : ... .. . ... : ... .. . ... : ... .. . Z30 ...
ROW 0A : ... .. 8 ... ... : ... .. 8 ... ... : ... .. . ... : ... .. . ... : ... .. . Z30 ...
ROW 0B : ... .. 7 ... ... : ... .. 7 ... ... : ... .. . ... : ... .. . ... : ... .. . Z30 ...
ROW 0C : ... .. 6 ... ... : ... .. 6 ... ... : ... .. . ... : ... .. . ... : ... .. . Z30 ...
ROW 0D : ... .. 5 ... ... : ... .. 5 ... ... : ... .. . ... : ... .. . ... : ... .. . Z30 ...
ROW 0E : ... .. . ... ... : ... .. . ... ... : ... .. . ... : ... .. . ... : ... .. . Z30 ...
ROW 0F : ... .. 4 ... ... : ... .. 4 ... ... : ... .. . ... : ... .. . ... : ... .. . Z30 ...
ROW 10 : ... .. . ... ... : ... .. . ... ... : ... .. . ... : ... .. . ... : ... .. . Z30 ...
ROW 11 : ... .. 0 ... ... : ... .. 0 ... ... : ... .. . ... : ... .. . ... : ... .. . Z30 ...
ROW 12 : ... .. . ... ... : ... .. . ... ... : ... .. . ... : ... .. C ... : ... .. . Z30 ...
ROW 13 : ... .. . ... ... : ... .. . ... ... : ... .. . ... : ... .. 0 ... : ... .. . Z30 ...
ROW 14 : ... .. . ... ... : ... .. . ... ... : ... .. . ... : ... .. . ... : ... .. . Z30 ...
ROW 15 : ... .. . ... ... : ... .. . ... ... : ... .. . ... : ... .. . ... : ... .. . Z30 ...
ROW 16 : ... .. . ... ... : ... .. . ... ... : ... .. . ... : ... .. . ... : ... .. . Z30 ...
ROW 17 : ... .. . ... ... : ... .. . ... ... : ... .. . ... : ... .. . ... : ... .. . Z30 ...
ROW 18 : ... .. . ... ... : ... .. . ... ... : ... .. . ... : ... .. . ... : ... .. . Z30 ...
ROW 19 : ... .. . ... ... : ... .. . ... ... : ... .. . ... : ... .. . ... : ... .. . Z30 ...
ROW 1A : ... .. . ... ... : ... .. . ... ... : ... .. . ... : ... .. . ... : ... .. . Z30 ...
ROW 1B : ... .. . ... ... : ... .. . ... ... : D#3 00 . P83 : ... .. C ... : ... .. . Z30 ...
ROW 1C : ... .. 8 ... ... : ... .. 8 ... ... : ... .. . ... : ... .. . ... : ... .. . Z30 ...
ROW 1D : ... .. 7 ... ... : ... .. 7 ... ... : ... .. . ... : ... .. . ... : ... .. . Z30 ...
ROW 1E : ... .. 6 ... ... : ... .. 6 ... ... : ... .. . ... : ... .. . ... : ... .. . Z30 ...
ROW 1F : ... .. 5 ... ... : ... .. 5 ... ... : ... .. . ... : ... .. . ... : ... .. . Z30 ...
ROW 20 : ... .. . ... ... : ... .. . ... ... : ... .. . ... : ... .. 0 ... : ... .. . Z30 ...
ROW 21 : ... .. 4 ... ... : ... .. 4 ... ... : ... .. . ... : ... .. . ... : ... .. . Z30 ...
ROW 22 : ... .. . ... ... : ... .. . ... ... : ... .. . ... : ... .. . ... : ... .. . Z30 ...
ROW 23 : ... .. 0 ... ... : ... .. 0 ... ... : --- .. . ... : ... .. . ... : ... .. . Z30 ...
ROW 24 : ... .. . ... ... : ... .. . ... ... : ... .. . ... : ... .. . ... : ... .. . Z30 ...
ROW 25 : ... .. . ... ... : ... .. . ... ... : ... .. . ... : ... .. . ... : ... .. . Z30 ...
ROW 26 : ... .. . ... ... : ... .. . ... ... : ... .. . ... : ... .. . ... : ... .. . Z30 ...
ROW 27 : ... .. . ... ... : ... .. . ... ... : ... .. . ... : ... .. . ... : ... .. . Z30 ...
ROW 28 : ... .. . ... ... : ... .. . ... ... : ... .. . ... : ... .. . ... : ... .. . Z30 ...
ROW 29 : ... .. . ... ... : ... .. . ... ... : ... .. . ... : ... .. . ... : ... .. . Z30 ...
ROW 2A : ... .. . ... ... : ... .. . ... ... : ... .. . ... : ... .. . ... : ... .. . Z30 ...
ROW 2B : ... .. . ... ... : ... .. . ... ... : ... .. . ... : ... .. . ... : ... .. . Z30 ...
ROW 2C : ... .. . ... ... : ... .. . ... ... : ... .. . ... : ... .. . ... : ... .. . Z30 ...
ROW 2D : ... .. . ... ... : ... .. . ... ... : ... .. . ... : ... .. C ... : ... .. . Z30 ...
ROW 2E : ... .. 8 ... ... : ... .. 8 ... ... : ... .. . ... : ... .. 0 ... : ... .. . Z30 ...
ROW 2F : ... .. 7 ... ... : ... .. 7 ... ... : ... .. . ... : ... .. . ... : ... .. . Z30 ...
ROW 30 : ... .. 6 ... ... : ... .. 6 ... ... : ... .. . ... : ... .. . ... : ... .. . Z30 ...
ROW 31 : ... .. 5 ... ... : ... .. 5 ... ... : ... .. . ... : ... .. . ... : ... .. . Z30 ...
ROW 32 : ... .. . ... ... : ... .. . ... ... : ... .. . ... : ... .. . ... : ... .. . Z30 ...
ROW 33 : ... .. 4 ... ... : ... .. 4 ... ... : ... .. . ... : ... .. . ... : ... .. . Z30 ...
ROW 34 : ... .. . ... ... : ... .. . ... ... : ... .. . ... : ... .. . ... : ... .. . Z30 ...
ROW 35 : ... .. 0 ... ... : ... .. 0 ... ... : ... .. . ... : ... .. . ... : ... .. . Z30 ...
ROW 36 : A#3 00 0 P7C ... : D-4 00 0 P80 ... : G#3 00 . P82 : ... .. C ... : ... .. . Z30 ...
ROW 37 : ... .. 8 ... ... : ... .. 8 ... ... : ... .. . ... : ... .. . ... : ... .. . Z30 ...
ROW 38 : ... .. 7 ... ... : ... .. 7 ... ... : ... .. . ... : ... .. . ... : ... .. . Z30 ...
ROW 39 : ... .. 6 ... ... : ... .. 6 ... ... : ... .. . ... : ... .. . ... : ... .. . Z30 ...
ROW 3A : ... .. 5 ... ... : ... .. 5 ... ... : ... .. . ... : ... .. . ... : ... .. . Z30 ...
ROW 3B : ... .. . ... ... : ... .. . ... ... : ... .. . ... : ... .. 0 ... : ... .. . Z30 ...
ROW 3C : ... .. 4 ... ... : ... .. 4 ... ... : ... .. . ... : ... .. . ... : ... .. . Z30 ...
ROW 3D : ... .. . ... ... : ... .. . ... ... : ... .. . ... : ... .. . ... : ... .. . Z30 ...
ROW 3E : ... .. 0 ... ... : ... .. 0 ... ... : --- .. . ... : ... .. . ... : ... .. . Z30 ...
ROW 3F : ... .. . ... ... : ... .. . ... ... : ... .. . ... : ... .. . ... : ... .. . Z30 ...
ROW 40 : ... .. . ... ... : ... .. . ... ... : ... .. . ... : ... .. . ... : ... .. . Z30 ...
ROW 41 : ... .. . ... ... : ... .. . ... ... : ... .. . ... : ... .. . ... : ... .. . Z30 ...
ROW 42 : ... .. . ... ... : ... .. . ... ... : ... .. . ... : ... .. . ... : ... .. . Z30 ...
ROW 43 : ... .. . ... ... : ... .. . ... ... : ... .. . ... : ... .. . ... : ... .. . Z30 ...
ROW 44 : ... .. . ... ... : ... .. . ... ... : ... .. . ... : ... .. . ... : ... .. . Z30 ...
ROW 45 : ... .. . ... ... : ... .. . ... ... : ... .. . ... : ... .. . ... : ... .. . Z30 ...
ROW 46 : ... .. . ... ... : ... .. . ... ... : ... .. . ... : ... .. . ... : ... .. . Z30 ...
ROW 47 : ... .. . ... ... : ... .. . ... ... : ... .. . ... : ... .. . ... : ... .. . Z30 ...
ROW 48 : G-3 00 0 P80 ... : E-4 00 0 P7F ... : G-3 00 . P80 : ... .. C ... : ... .. . Z30 ...
ROW 49 : ... .. 8 ... ... : ... .. 8 ... ... : ... .. . ... : ... .. . ... : ... .. . Z30 ...
ROW 4A : ... .. 7 ... ... : ... .. 7 ... ... : ... .. . ... : ... .. . ... : ... .. . Z30 ...
ROW 4B : ... .. 6 ... ... : ... .. 6 ... ... : ... .. . ... : ... .. . ... : ... .. . Z30 ...
ROW 4C : ... .. 5 ... ... : ... .. 5 ... ... : ... .. . ... : ... .. . ... : ... .. . Z30 ...
ROW 4D : ... .. . ... ... : ... .. . ... ... : ... .. . ... : ... .. 0 ... : ... .. . Z30 ...
ROW 4E : ... .. 4 ... ... : ... .. 4 ... ... : ... .. . ... : ... .. . ... : ... .. . Z30 ...
ROW 4F : ... .. . ... ... : ... .. . ... ... : ... .. . ... : ... .. . ... : ... .. . Z30 ...
ROW 50 : ... .. 0 ... ... : ... .. 0 ... ... : --- .. . ... : ... .. . ... : ... .. . Z30 ...
ROW 51 : E-3 00 0 P7D ... : C-4 00 0 P80 ... : ... .. . ... : ... .. . ... : ... .. . Z30 ...
ROW 52 : ... .. 8 ... ... : ... .. 8 ... ... : ... .. . ... : ... .. . ... : ... .. . Z30 ...
ROW 53 : ... .. 7 ... ... : ... .. 7 ... ... : ... .. . ... : ... .. . ... : ... .. . Z30 ...
ROW 54 : ... .. 6 ... ... : ... .. 6 ... ... : ... .. . ... : ... .. . ... : ... .. . Z30 ...
ROW 55 : ... .. 5 ... ... : ... .. 5 ... ... : ... .. . ... : ... .. . ... : ... .. . Z30 ...
ROW 56 : ... .. . ... ... : ... .. . ... ... : ... .. . ... : ... .. . ... : ... .. . Z30 ...
ROW 57 : ... .. 4 ... ... : ... .. 4 ... ... : ... .. . ... : ... .. . ... : ... .. . Z30 ...
ROW 58 : ... .. . ... ... : ... .. . ... ... : ... .. . ... : ... .. . ... : ... .. . Z30 ...
ROW 59 : ... .. 0 ... ... : ... .. 0 ... ... : ... .. . ... : ... .. . ... : ... .. . Z30 ...
ROW 5A : ... .. . ... ... : ... .. . ... ... : ... .. . ... : ... .. . ... : ... .. . Z30 ...
ROW 5B : ... .. . ... ... : ... .. . ... ... : ... .. . ... : ... .. . ... : ... .. . Z30 ...
ROW 5C : ... .. . ... ... : ... .. . ... ... : ... .. . ... : ... .. . ... : ... .. . Z30 ...
ROW 5D : ... .. . ... ... : ... .. . ... ... : ... .. . ... : ... .. . ... : ... .. . Z30 ...
ROW 5E : ... .. . ... ... : ... .. . ... ... : ... .. . ... : ... .. . ... : ... .. . Z30 ...
ROW 5F : ... .. . ... ... : ... .. . ... ... : ... .. . ... : ... .. . ... : ... .. . Z30 ...
ROW 60 : ... .. . ... ... : ... .. . ... ... : ... .. . ... : ... .. . ... : ... .. . Z30 ...
ROW 61 : ... .. . ... ... : ... .. . ... ... : ... .. . ... : ... .. . ... : ... .. . Z30 ...
ROW 62 : ... .. . ... ... : ... .. . ... ... : ... .. . ... : ... .. . ... : ... .. . Z30 ...
ROW 63 : ... .. . ... ... : A-3 00 0 P7E ... : C-3 00 . P80 : ... .. C ... : ... .. . Z30 ...
ROW 64 : ... .. 8 ... ... : ... .. 8 ... ... : ... .. . ... : ... .. . ... : ... .. . Z30 ...
ROW 65 : ... .. 7 ... ... : ... .. 7 ... ... : ... .. . ... : ... .. . ... : ... .. . Z30 ...
ROW 66 : ... .. 6 ... ... : ... .. 6 ... ... : ... .. . ... : ... .. . ... : ... .. . Z30 ...
ROW 67 : ... .. 5 ... ... : ... .. 5 ... ... : ... .. . ... : ... .. . ... : ... .. . Z30 ...
ROW 68 : ... .. . ... ... : ... .. . ... ... : ... .. . ... : ... .. 0 ... : ... .. . Z30 ...
ROW 69 : ... .. 4 ... ... : ... .. 4 ... ... : ... .. . ... : ... .. . ... : ... .. . Z30 ...
ROW 6A : ... .. . ... ... : ... .. . ... ... : ... .. . ... : ... .. . ... : ... .. . Z30 ...
ROW 6B : ... .. 0 ... ... : ... .. 0 ... ... : --- .. . ... : ... .. . ... : ... .. . Z30 ...
ROW 6C : C-3 00 0 P80 ... : G-3 00 0 P80 ... : ... .. . ... : ... .. . ... : ... .. . Z30 ...
ROW 6D : ... .. 8 ... ... : ... .. 8 ... ... : ... .. . ... : ... .. . ... : ... .. . Z30 ...
ROW 6E : ... .. 7 ... ... : ... .. 7 ... ... : ... .. . ... : ... .. . ... : ... .. . Z30 ...
ROW 6F : ... .. 6 ... ... : ... .. 6 ... ... : ... .. . ... : ... .. . ... : ... .. . Z30 ...
ROW 70 : ... .. 5 ... ... : ... .. 5 ... ... : ... .. . ... : ... .. . ... : ... .. . Z30 ...
ROW 71 : ... .. . ... ... : ... .. . ... ... : ... .. . ... : ... .. . ... : ... .. . Z30 ...
ROW 72 : ... .. 4 ... ... : ... .. 4 ... ... : ... .. . ... : ... .. . ... : ... .. . Z30 ...
ROW 73 : ... .. . ... ... : ... .. . ... ... : ... .. . ... : ... .. . ... : ... .. . Z30 ...
ROW 74 : ... .. 0 ... ... : ... .. 0 ... ... : ... .. . ... : ... .. . ... : ... .. . Z30 ...
ROW 75 : ... .. . ... ... : ... .. . ... ... : ... .. . ... : ... .. C ... : ... .. . Z30 ...
ROW 76 : ... .. . ... ... : ... .. . ... ... : ... .. . ... : ... .. 0 ... : ... .. . Z30 ...
ROW 77 : ... .. . ... ... : ... .. . ... ... : ... .. . ... : ... .. . ... : ... .. . Z30 ...
ROW 78 : ... .. . ... ... : ... .. . ... ... : ... .. . ... : ... .. . ... : ... .. . Z30 ...
ROW 79 : ... .. . ... ... : ... .. . ... ... : ... .. . ... : ... .. . ... : ... .. . Z30 ...
ROW 7A : ... .. . ... ... : ... .. . ... ... : ... .. . ... : ... .. . ... : ... .. . Z30 ...
ROW 7B : ... .. . ... ... : ... .. . ... ... : ... .. . ... : ... .. . ... : ... .. . Z30 ...
ROW 7C : ... .. . ... ... : ... .. . ... ... : ... .. . ... : ... .. . ... : ... .. . Z30 ...
ROW 7D : ... .. . ... ... : ... .. . ... ... : ... .. . ... : ... .. . ... : ... .. . Z30 ...
ROW 7E : ... .. . ... ... : ... .. . ... ... : G-2 00 . P81 : ... .. C ... : ... .. . Z30 ...
ROW 7F : ... .. . ... ... : ... .. . ... ... : ... .. . ... : ... .. 0 ... : ... .. . Z30 ...
ROW 80 : ... .. . ... ... : ... .. . ... ... : ... .. . ... : ... .. . ... : ... .. . Z30 ...
ROW 81 : ... .. . ... ... : ... .. . ... ... : ... .. . ... : ... .. . ... : ... .. . Z30 ...
ROW 82 : ... .. . ... ... : ... .. . ... ... : ... .. . ... : ... .. . ... : ... .. . Z30 ...
ROW 83 : ... .. . ... ... : ... .. . ... ... : ... .. . ... : ... .. . ... : ... .. . Z30 ...
ROW 84 : ... .. . ... ... : ... .. . ... ... : ... .. . ... : ... .. . ... : ... .. . Z30 ...
ROW 85 : ... .. . ... ... : ... .. . ... ... : ... .. . ... : ... .. . ... : ... .. . Z30 ...
ROW 86 : ... .. . ... ... : ... .. . ... ... : --- .. . ... : ... .. . ... : ... .. . Z30 ...
ROW 87 : ... .. . ... ... : ... .. . ... ... : ... .. . ... : ... .. C ... : ... .. . Z30 ...
ROW 88 : ... .. . ... ... : ... .. . ... ... : ... .. . ... : ... .. 0 ... : ... .. . Z30 ...
ROW 89 : ... .. . ... ... : ... .. . ... ... : ... .. . ... : ... .. . ... : ... .. . Z30 ...
ROW 8A : ... .. . ... ... : ... .. . ... ... : ... .. . ... : ... .. . ... : ... .. . Z30 ...
ROW 8B : ... .. . ... ... : ... .. . ... ... : ... .. . ... : ... .. . ... : ... .. . Z30 ...
ROW 8C : ... .. . ... ... : ... .. . ... ... : ... .. . ... : ... .. . ... : ... .. . Z30 ...
ROW 8D : ... .. . ... ... : ... .. . ... ... : ... .. . ... : ... .. . ... : ... .. . Z30 ...
ROW 8E : ... .. . ... ... : ... .. . ... ... : ... .. . ... : ... .. . ... : ... .. . Z30 ...
ROW 8F : ... .. . ... ... : ... .. . ... ... : ... .. . ... : ... .. . ... : ... .. . Z30 ...

PATTERN 0E
ROW 00 : G#3 00 0 P82 ... : C-4 00 0 P80 ... : G#2 00 . P84 : ... .. C ... : ... .. . Z30 ...
ROW 01 : ... .. 8 ... ... : ... .. 8 ... ... : ... .. . ... : ... .. . ... : ... .. . Z30 ...
ROW 02 : ... .. 7 ... ... : ... .. 7 ... ... : ... .. . ... : ... .. . ... : ... .. . Z30 ...
ROW 03 : ... .. 6 ... ... : ... .. 6 ... ... : ... .. . ... : ... .. . ... : ... .. . Z30 ...
ROW 04 : ... .. 5 ... ... : ... .. 5 ... ... : ... .. . ... : ... .. . ... : ... .. . Z30 ...
ROW 05 : ... .. . ... ... : ... .. . ... ... : ... .. . ... : ... .. 0 ... : ... .. . Z30 ...
ROW 06 : ... .. 4 ... ... : ... .. 4 ... ... : ... .. . ... : ... .. . ... : ... .. . Z30 ...
ROW 07 : ... .. . ... ... : ... .. . ... ... : ... .. . ... : ... .. . ... : ... .. . Z30 ...
ROW 08 : ... .. 0 ... ... : ... .. 0 ... ... : --- .. . ... : ... .. . ... : ... .. . Z30 ...
ROW 09 : ... .. . ... ... : ... .. . ... ... : ... .. . ... : ... .. . ... : ... .. . Z30 ...
ROW 0A : ... .. 8 ... ... : ... .. 8 ... ... : ... .. . ... : ... .. . ... : ... .. . Z30 ...
ROW 0B : ... .. 7 ... ... : ... .. 7 ... ... : ... .. . ... : ... .. . ... : ... .. . Z30 ...
ROW 0C : ... .. 6 ... ... : ... .. 6 ... ... : ... .. . ... : ... .. . ... : ... .. . Z30 ...
ROW 0D : ... .. 5 ... ... : ... .. 5 ... ... : ... .. . ... : ... .. . ... : ... .. . Z30 ...
ROW 0E : ... .. . ... ... : ... .. . ... ... : ... .. . ... : ... .. . ... : ... .. . Z30 ...
ROW 0F : ... .. 4 ... ... : ... .. 4 ... ... : ... .. . ... : ... .. . ... : ... .. . Z30 ...
ROW 10 : ... .. . ... ... : ... .. . ... ... : ... .. . ... : ... .. . ... : ... .. . Z30 ...
ROW 11 : ... .. 0 ... ... : ... .. 0 ... ... : ... .. . ... : ... .. . ... : ... .. . Z30 ...
ROW 12 : ... .. . ... ... : ... .. . ... ... : ... .. . ... : ... .. C ... : ... .. . Z30 ...
ROW 13 : ... .. . ... ... : ... .. . ... ... : ... .. . ... : ... .. 0 ... : ... .. . Z30 ...
ROW 14 : ... .. . ... ... : ... .. . ... ... : ... .. . ... : ... .. . ... : ... .. . Z30 ...
ROW 15 : ... .. . ... ... : ... .. . ... ... : ... .. . ... : ... .. . ... : ... .. . Z30 ...
ROW 16 : ... .. . ... ... : ... .. . ... ... : ... .. . ... : ... .. . ... : ... .. . Z30 ...
ROW 17 : ... .. . ... ... : ... .. . ... ... : ... .. . ... : ... .. . ... : ... .. . Z30 ...
ROW 18 : ... .. . ... ... : ... .. . ... ... : ... .. . ... : ... .. . ... : ... .. . Z30 ...
ROW 19 : ... .. . ... ... : ... .. . ... ... : ... .. . ... : ... .. . ... : ... .. . Z30 ...
ROW 1A : ... .. . ... ... : ... .. . ... ... : ... .. . ... : ... .. . ... : ... .. . Z30 ...
ROW 1B : ... .. . ... ... : ... .. . ... ... : D#3 00 . P83 : ... .. C ... : ... .. . Z30 ...
ROW 1C : ... .. 8 ... ... : ... .. 8 ... ... : ... .. . ... : ... .. . ... : ... .. . Z30 ...
ROW 1D : ... .. 7 ... ... : ... .. 7 ... ... : ... .. . ... : ... .. . ... : ... .. . Z30 ...
ROW 1E : ... .. 6 ... ... : ... .. 6 ... ... : ... .. . ... : ... .. . ... : ... .. . Z30 ...
ROW 1F : ... .. 5 ... ... : ... .. 5 ... ... : ... .. . ... : ... .. . ... : ... .. . Z30 ...
ROW 20 : ... .. . ... ... : ... .. . ... ... : ... .. . ... : ... .. 0 ... : ... .. . Z30 ...
ROW 21 : ... .. 4 ... ... : ... .. 4 ... ... : ... .. . ... : ... .. . ... : ... .. . Z30 ...
ROW 22 : ... .. . ... ... : ... .. . ... ... : ... .. . ... : ... .. . ... : ... .. . Z30 ...
ROW 23 : ... .. 0 ... ... : ... .. 0 ... ... : --- .. . ... : ... .. . ... : ... .. . Z30 ...
ROW 24 : ... .. . ... ... : ... .. . ... ... : ... .. . ... : ... .. . ... : ... .. . Z30 ...
ROW 25 : ... .. . ... ... : ... .. . ... ... : ... .. . ... : ... .. . ... : ... .. . Z30 ...
ROW 26 : ... .. . ... ... : ... .. . ... ... : ... .. . ... : ... .. . ... : ... .. . Z30 ...
ROW 27 : ... .. . ... ... : ... .. . ... ... : ... .. . ... : ... .. . ... : ... .. . Z30 ...
ROW 28 : ... .. . ... ... : ... .. . ... ... : ... .. . ... : ... .. . ... : ... .. . Z30 ...
ROW 29 : ... .. . ... ... : ... .. . ... ... : ... .. . ... : ... .. . ... : ... .. . Z30 ...
ROW 2A : ... .. . ... ... : ... .. . ... ... : ... .. . ... : ... .. . ... : ... .. . Z30 ...
ROW 2B : ... .. . ... ... : ... .. . ... ... : ... .. . ... : ... .. . ... : ... .. . Z30 ...
ROW 2C : ... .. . ... ... : ... .. . ... ... : ... .. . ... : ... .. . ... : ... .. . Z30 ...
ROW 2D : ... .. . ... ... : ... .. . ... ... : ... .. . ... : ... .. C ... : ... .. . Z30 ...
ROW 2E : ... .. 8 ... ... : ... .. 8 ... ... : ... .. . ... : ... .. 0 ... : ... .. . Z30 ...
ROW 2F : ... .. 7 ... ... : ... .. 7 ... ... : ... .. . ... : ... .. . ... : ... .. . Z30 ...
ROW 30 : ... .. 6 ... ... : ... .. 6 ... ... : ... .. . ... : ... .. . ... : ... .. . Z30 ...
ROW 31 : ... .. 5 ... ... : ... .. 5 ... ... : ... .. . ... : ... .. . ... : ... .. . Z30 ...
ROW 32 : ... .. . ... ... : ... .. . ... ... : ... .. . ... : ... .. . ... : ... .. . Z30 ...
ROW 33 : ... .. 4 ... ... : ... .. 4 ... ... : ... .. . ... : ... .. . ... : ... .. . Z30 ...
ROW 34 : ... .. . ... ... : ... .. . ... ... : ... .. . ... : ... .. . ... : ... .. . Z30 ...
ROW 35 : ... .. 0 ... ... : ... .. 0 ... ... : ... .. . ... : ... .. . ... : ... .. . Z30 ...
ROW 36 : A#3 00 0 P7C ... : D-4 00 0 P80 ... : G#3 00 . P82 : ... .. C ... : ... .. . Z30 ...
ROW 37 : ... .. 8 ... ... : ... .. 8 ... ... : ... .. . ... : ... .. . ... : ... .. . Z30 ...
ROW 38 : ... .. 7 ... ... : ... .. 7 ... ... : ... .. . ... : ... .. . ... : ... .. . Z30 ...
ROW 39 : ... .. 6 ... ... : ... .. 6 ... ... : ... .. . ... : ... .. . ... : ... .. . Z30 ...
ROW 3A : ... .. 5 ... ... : ... .. 5 ... ... : ... .. . ... : ... .. . ... : ... .. . Z30 ...
ROW 3B : ... .. . ... ... : ... .. . ... ... : ... .. . ... : ... .. 0 ... : ... .. . Z30 ...
ROW 3C : ... .. 4 ... ... : ... .. 4 ... ... : ... .. . ... : ... .. . ... : ... .. . Z30 ...
ROW 3D : ... .. . ... ... : ... .. . ... ... : ... .. . ... : ... .. . ... : ... .. . Z30 ...
ROW 3E : ... .. 0 ... ... : ... .. 0 ... ... : --- .. . ... : ... .. . ... : ... .. . Z30 ...
ROW 3F : G-3 00 0 P80 ... : E-4 00 0 P7F ... : ... .. . ... : ... .. . ... : ... .. . Z30 ...
ROW 40 : ... .. 8 ... ... : ... .. 8 ... ... : ... .. . ... : ... .. . ... : ... .. . Z30 ...
ROW 41 : ... .. 7 ... ... : ... .. 7 ... ... : ... .. . ... : ... .. . ... : ... .. . Z30 ...
ROW 42 : ... .. 6 ... ... : ... .. 6 ... ... : ... .. . ... : ... .. . ... : ... .. . Z30 ...
ROW 43 : ... .. 5 ... ... : ... .. 5 ... ... : ... .. . ... : ... .. . ... : ... .. . Z30 ...
ROW 44 : ... .. . ... ... : ... .. . ... ... : ... .. . ... : ... .. . ... : ... .. . Z30 ...
ROW 45 : ... .. 4 ... ... : ... .. 4 ... ... : ... .. . ... : ... .. . ... : ... .. . Z30 ...
ROW 46 : ... .. . ... ... : ... .. . ... ... : ... .. . ... : ... .. . ... : ... .. . Z30 ...
ROW 47 : ... .. 0 ... ... : ... .. 0 ... ... : ... .. . ... : ... .. . ... : ... .. . Z30 ...
ROW 48 : ... .. . ... ... : ... .. . ... ... : G-3 00 . P80 : ... .. C ... : ... .. . Z30 ...
ROW 49 : ... .. . ... ... : ... .. . ... ... : ... .. . ... : ... .. . ... : ... .. . Z30 ...
ROW 4A : ... .. . ... ... : ... .. . ... ... : ... .. . ... : ... .. . ... : ... .. . Z30 ...
ROW 4B : ... .. . ... ... : ... .. . ... ... : ... .. . ... : ... .. . ... : ... .. . Z30 ...
ROW 4C : ... .. . ... ... : ... .. . ... ... : ... .. . ... : ... .. . ... : ... .. . Z30 ...
ROW 4D : ... .. . ... ... : ... .. . ... ... : ... .. . ... : ... .. 0 ... : ... .. . Z30 ...
ROW 4E : ... .. . ... ... : ... .. . ... ... : ... .. . ... : ... .. . ... : ... .. . Z30 ...
ROW 4F : ... .. . ... ... : ... .. . ... ... : ... .. . ... : ... .. . ... : ... .. . Z30 ...
ROW 50 : ... .. . ... ... : ... .. . ... ... : --- .. . ... : ... .. . ... : ... .. . Z30 ...
ROW 51 : ... .. . ... ... : ... .. . ... ... : ... .. . ... : ... .. . ... : ... .. . Z30 ...
ROW 52 : ... .. . ... ... : ... .. . ... ... : ... .. . ... : ... .. . ... : ... .. . Z30 ...
ROW 53 : ... .. . ... ... : ... .. . ... ... : ... .. . ... : ... .. . ... : ... .. . Z30 ...
ROW 54 : ... .. . ... ... : ... .. . ... ... : ... .. . ... : ... .. . ... : ... .. . Z30 ...
ROW 55 : ... .. . ... ... : ... .. . ... ... : ... .. . ... : ... .. . ... : ... .. . Z30 ...
ROW 56 : ... .. . ... ... : ... .. . ... ... : ... .. . ... : ... .. . ... : ... .. . Z30 ...
ROW 57 : ... .. . ... ... : ... .. . ... ... : ... .. . ... : ... .. . ... : ... .. . Z30 ...
ROW 58 : ... .. . ... ... : ... .. . ... ... : ... .. . ... : ... .. . ... : ... .. . Z30 ...
ROW 59 : ... .. . ... ... : ... .. . ... ... : ... .. . ... : ... .. . ... : ... .. . Z30 ...
ROW 5A : ... .. . ... ... : ... .. . ... ... : ... .. . ... : ... .. . ... : ... .. . Z30 ...
ROW 5B : ... .. . ... ... : ... .. . ... ... : ... .. . ... : ... .. . ... : ... .. . Z30 ...
ROW 5C : ... .. . ... ... : ... .. . ... ... : ... .. . ... : ... .. . ... : ... .. . Z30 ...
ROW 5D : ... .. . ... ... : ... .. . ... ... : ... .. . ... : ... .. . ... : ... .. . Z30 ...
ROW 5E : ... .. . ... ... : ... .. . ... ... : ... .. . ... : ... .. . ... : ... .. . Z30 ...
ROW 5F : ... .. . ... ... : ... .. . ... ... : ... .. . ... : ... .. . ... : ... .. . Z30 ...
ROW 60 : ... .. . ... ... : ... .. . ... ... : ... .. . ... : ... .. . ... : ... .. . Z30 ...
ROW 61 : ... .. . ... ... : ... .. . ... ... : ... .. . ... : ... .. . ... : ... .. . Z30 ...
ROW 62 : ... .. . ... ... : ... .. . ... ... : ... .. . ... : ... .. . ... : ... .. . Z30 ...
ROW 63 : ... .. . ... ... : ... .. . ... ... : C-3 00 . P80 : ... .. C ... : ... .. . Z30 ...
ROW 64 : ... .. . ... ... : ... .. . ... ... : ... .. . ... : ... .. . ... : ... .. . Z30 ...
ROW 65 : ... .. . ... ... : ... .. . ... ... : ... .. . ... : ... .. . ... : ... .. . Z30 ...
ROW 66 : ... .. . ... ... : ... .. . ... ... : ... .. . ... : ... .. . ... : ... .. . Z30 ...
ROW 67 : ... .. . ... ... : ... .. . ... ... : ... .. . ... : ... .. . ... : ... .. . Z30 ...
ROW 68 : ... .. . ... ... : ... .. . ... ... : ... .. . ... : ... .. 0 ... : ... .. . Z30 ...
ROW 69 : ... .. . ... ... : ... .. . ... ... : ... .. . ... : ... .. . ... : ... .. . Z30 ...
ROW 6A : ... .. . ... ... : ... .. . ... ... : ... .. . ... : ... .. . ... : ... .. . Z30 ...
ROW 6B : ... .. . ... ... : ... .. . ... ... : --- .. . ... : ... .. . ... : ... .. . Z30 ...
ROW 6C : ... .. . ... ... : ... .. . ... ... : ... .. . ... : ... .. . ... : ... .. . Z30 ...
ROW 6D : ... .. . ... ... : ... .. . ... ... : ... .. . ... : ... .. . ... : ... .. . Z30 ...
ROW 6E : ... .. . ... ... : ... .. . ... ... : ... .. . ... : ... .. . ... : ... .. . Z30 ...
ROW 6F : ... .. . ... ... : ... .. . ... ... : ... .. . ... : ... .. . ... : ... .. . Z30 ...
ROW 70 : ... .. . ... ... : ... .. . ... ... : ... .. . ... : ... .. . ... : ... .. . Z30 ...
ROW 71 : ... .. . ... ... : ... .. . ... ... : ... .. . ... : ... .. . ... : ... .. . Z30 ...
ROW 72 : ... .. . ... ... : ... .. . ... ... : ... .. . ... : ... .. . ... : ... .. . Z30 ...
ROW 73 : ... .. . ... ... : ... .. . ... ... : ... .. . ... : ... .. . ... : ... .. . Z30 ...
ROW 74 : ... .. . ... ... : ... .. . ... ... : ... .. . ... : ... .. . ... : ... .. . Z30 ...
ROW 75 : ... .. . ... ... : ... .. . ... ... : ... .. . ... : ... .. C ... : ... .. . Z30 ...
ROW 76 : ... .. . ... ... : ... .. . ... ... : ... .. . ... : ... .. 0 ... : ... .. . Z30 ...
ROW 77 : ... .. . ... ... : ... .. . ... ... : ... .. . ... : ... .. . ... : ... .. . Z30 ...
ROW 78 : ... .. . ... ... : ... .. . ... ... : ... .. . ... : ... .. . ... : ... .. . Z30 ...
ROW 79 : ... .. . ... ... : ... .. . ... ... : ... .. . ... : ... .. . ... : ... .. . Z30 ...
ROW 7A : ... .. . ... ... : ... .. . ... ... : ... .. . ... : ... .. . ... : ... .. . Z30 ...
ROW 7B : ... .. . ... ... : ... .. . ... ... : ... .. . ... : ... .. . ... : ... .. . Z30 ...
ROW 7C : ... .. . ... ... : ... .. . ... ... : ... .. . ... : ... .. . ... : ... .. . Z30 ...
ROW 7D : ... .. . ... ... : ... .. . ... ... : ... .. . ... : ... .. . ... : ... .. . Z30 ...
ROW 7E : ... .. . ... ... : ... .. . ... ... : G-2 00 . P81 : ... .. C ... : ... .. . Z30 ...
ROW 7F : ... .. . ... ... : ... .. . ... ... : ... .. . ... : ... .. 0 ... : ... .. . Z30 ...
ROW 80 : ... .. . ... ... : ... .. . ... ... : ... .. . ... : ... .. . ... : ... .. . Z30 ...
ROW 81 : ... .. . ... ... : ... .. . ... ... : ... .. . ... : ... .. . ... : ... .. . Z30 ...
ROW 82 : ... .. . ... ... : ... .. . ... ... : ... .. . ... : ... .. . ... : ... .. . Z30 ...
ROW 83 : ... .. . ... ... : ... .. . ... ... : ... .. . ... : ... .. . ... : ... .. . Z30 ...
ROW 84 : ... .. . ... ... : ... .. . ... ... : ... .. . ... : ... .. . ... : ... .. . Z30 ...
ROW 85 : ... .. . ... ... : ... .. . ... ... : ... .. . ... : ... .. . ... : ... .. . Z30 ...
ROW 86 : ... .. . ... ... : ... .. . ... ... : --- .. . ... : ... .. . ... : ... .. . Z30 ...
ROW 87 : ... .. . ... ... : ... .. . ... ... : ... .. . ... : ... .. C ... : ... .. . Z30 ...
ROW 88 : ... .. . ... ... : ... .. . ... ... : ... .. . ... : ... .. 0 ... : ... .. . Z30 ...
ROW 89 : ... .. . ... ... : ... .. . ... ... : ... .. . ... : ... .. . ... : ... .. . Z30 ...
ROW 8A : ... .. . ... ... : ... .. . ... ... : ... .. . ... : ... .. . ... : ... .. . Z30 ...
ROW 8B : ... .. . ... ... : ... .. . ... ... : ... .. . ... : ... .. . ... : ... .. . Z30 ...
ROW 8C : ... .. . ... ... : ... .. . ... ... : ... .. . ... : ... .. . ... : ... .. . Z30 ...
ROW 8D : ... .. . ... ... : ... .. . ... ... : ... .. . ... : ... .. . ... : ... .. . Z30 ...
ROW 8E : ... .. . ... ... : ... .. . ... ... : ... .. . ... : ... .. . ... : ... .. . Z30 ...
ROW 8F : ... .. . ... ... : ... .. . ... ... : ... .. . ... : ... .. . ... : ... .. . Z30 ...

PATTERN 0F
ROW 00 : G#3 00 0 P82 ... : C-4 00 0 P80 ... : G#2 00 . P84 : ... .. C ... : ... .. . Z30 ...
ROW 01 : ... .. 8 ... ... : ... .. 8 ... ... : ... .. . ... : ... .. . ... : ... .. . Z30 ...
ROW 02 : ... .. 7 ... ... : ... .. 7 ... ... : ... .. . ... : ... .. . ... : ... .. . Z30 ...
ROW 03 : ... .. 6 ... ... : ... .. 6 ... ... : ... .. . ... : ... .. . ... : ... .. . Z30 ...
ROW 04 : ... .. 5 ... ... : ... .. 5 ... ... : ... .. . ... : ... .. . ... : ... .. . Z30 ...
ROW 05 : ... .. . ... ... : ... .. . ... ... : ... .. . ... : ... .. 0 ... : ... .. . Z30 ...
ROW 06 : ... .. 4 ... ... : ... .. 4 ... ... : ... .. . ... : ... .. . ... : ... .. . Z30 ...
ROW 07 : ... .. . ... ... : ... .. . ... ... : ... .. . ... : ... .. . ... : ... .. . Z30 ...
ROW 08 : ... .. 0 ... ... : ... .. 0 ... ... : --- .. . ... : ... .. . ... : ... .. . Z30 ...
ROW 09 : ... .. . ... ... : ... .. . ... ... : ... .. . ... : ... .. . ... : ... .. . Z30 ...
ROW 0A : ... .. 8 ... ... : ... .. 8 ... ... : ... .. . ... : ... .. . ... : ... .. . Z30 ...
ROW 0B : ... .. 7 ... ... : ... .. 7 ... ... : ... .. . ... : ... .. . ... : ... .. . Z30 ...
ROW 0C : ... .. 6 ... ... : ... .. 6 ... ... : ... .. . ... : ... .. . ... : ... .. . Z30 ...
ROW 0D : ... .. 5 ... ... : ... .. 5 ... ... : ... .. . ... : ... .. . ... : ... .. . Z30 ...
ROW 0E : ... .. . ... ... : ... .. . ... ... : ... .. . ... : ... .. . ... : ... .. . Z30 ...
ROW 0F : ... .. 4 ... ... : ... .. 4 ... ... : ... .. . ... : ... .. . ... : ... .. . Z30 ...
ROW 10 : ... .. . ... ... : ... .. . ... ... : ... .. . ... : ... .. . ... : ... .. . Z30 ...
ROW 11 : ... .. 0 ... ... : ... .. 0 ... ... : ... .. . ... : ... .. . ... : ... .. . Z30 ...
ROW 12 : ... .. . ... ... : ... .. . ... ... : ... .. . ... : ... .. C ... : ... .. . Z30 ...
ROW 13 : ... .. . ... ... : ... .. . ... ... : ... .. . ... : ... .. 0 ... : ... .. . Z30 ...
ROW 14 : ... .. . ... ... : ... .. . ... ... : ... .. . ... : ... .. . ... : ... .. . Z30 ...
ROW 15 : ... .. . ... ... : ... .. . ... ... : ... .. . ... : ... .. . ... : ... .. . Z30 ...
ROW 16 : ... .. . ... ... : ... .. . ... ... : ... .. . ... : ... .. . ... : ... .. . Z30 ...
ROW 17 : ... .. . ... ... : ... .. . ... ... : ... .. . ... : ... .. . ... : ... .. . Z30 ...
ROW 18 : ... .. . ... ... : ... .. . ... ... : ... .. . ... : ... .. . ... : ... .. . Z30 ...
ROW 19 : ... .. . ... ... : ... .. . ... ... : ... .. . ... : ... .. . ... : ... .. . Z30 ...
ROW 1A : ... .. . ... ... : ... .. . ... ... : ... .. . ... : ... .. . ... : ... .. . Z30 ...
ROW 1B : ... .. . ... ... : ... .. . ... ... : D#3 00 . P83 : ... .. C ... : ... .. . Z30 ...
ROW 1C : ... .. 8 ... ... : ... .. 8 ... ... : ... .. . ... : ... .. . ... : ... .. . Z30 ...
ROW 1D : ... .. 7 ... ... : ... .. 7 ... ... : ... .. . ... : ... .. . ... : ... .. . Z30 ...
ROW 1E : ... .. 6 ... ... : ... .. 6 ... ... : ... .. . ... : ... .. . ... : ... .. . Z30 ...
ROW 1F : ... .. 5 ... ... : ... .. 5 ... ... : ... .. . ... : ... .. . ... : ... .. . Z30 ...
ROW 20 : ... .. . ... ... : ... .. . ... ... : ... .. . ... : ... .. 0 ... : ... .. . Z30 ...
ROW 21 : ... .. 4 ... ... : ... .. 4 ... ... : ... .. . ... : ... .. . ... : ... .. . Z30 ...
ROW 22 : ... .. . ... ... : ... .. . ... ... : ... .. . ... : ... .. . ... : ... .. . Z30 ...
ROW 23 : ... .. 0 ... ... : ... .. 0 ... ... : --- .. . ... : ... .. . ... : ... .. . Z30 ...
ROW 24 : ... .. . ... ... : ... .. . ... ... : ... .. . ... : ... .. . ... : ... .. . Z30 ...
ROW 25 : ... .. . ... ... : ... .. . ... ... : ... .. . ... : ... .. . ... : ... .. . Z30 ...
ROW 26 : ... .. . ... ... : ... .. . ... ... : ... .. . ... : ... .. . ... : ... .. . Z30 ...
ROW 27 : ... .. . ... ... : ... .. . ... ... : ... .. . ... : ... .. . ... : ... .. . Z30 ...
ROW 28 : ... .. . ... ... : ... .. . ... ... : ... .. . ... : ... .. . ... : ... .. . Z30 ...
ROW 29 : ... .. . ... ... : ... .. . ... ... : ... .. . ... : ... .. . ... : ... .. . Z30 ...
ROW 2A : ... .. . ... ... : ... .. . ... ... : ... .. . ... : ... .. . ... : ... .. . Z30 ...
ROW 2B : ... .. . ... ... : ... .. . ... ... : ... .. . ... : ... .. . ... : ... .. . Z30 ...
ROW 2C : ... .. . ... ... : ... .. . ... ... : ... .. . ... : ... .. . ... : ... .. . Z30 ...
ROW 2D : ... .. . ... ... : ... .. . ... ... : ... .. . ... : ... .. C ... : ... .. . Z30 ...
ROW 2E : ... .. 8 ... ... : ... .. 8 ... ... : ... .. . ... : ... .. 0 ... : ... .. . Z30 ...
ROW 2F : ... .. 7 ... ... : ... .. 7 ... ... : ... .. . ... : ... .. . ... : ... .. . Z30 ...
ROW 30 : ... .. 6 ... ... : ... .. 6 ... ... : ... .. . ... : ... .. . ... : ... .. . Z30 ...
ROW 31 : ... .. 5 ... ... : ... .. 5 ... ... : ... .. . ... : ... .. . ... : ... .. . Z30 ...
ROW 32 : ... .. . ... ... : ... .. . ... ... : ... .. . ... : ... .. . ... : ... .. . Z30 ...
ROW 33 : ... .. 4 ... ... : ... .. 4 ... ... : ... .. . ... : ... .. . ... : ... .. . Z30 ...
ROW 34 : ... .. . ... ... : ... .. . ... ... : ... .. . ... : ... .. . ... : ... .. . Z30 ...
ROW 35 : ... .. 0 ... ... : ... .. 0 ... ... : ... .. . ... : ... .. . ... : ... .. . Z30 ...
ROW 36 : A#3 00 0 P7C ... : D-4 00 0 P80 ... : G#3 00 . P82 : ... .. C ... : ... .. . Z30 ...
ROW 37 : ... .. 8 ... ... : ... .. 8 ... ... : ... .. . ... : ... .. . ... : ... .. . Z30 ...
ROW 38 : ... .. 7 ... ... : ... .. 7 ... ... : ... .. . ... : ... .. . ... : ... .. . Z30 ...
ROW 39 : ... .. 6 ... ... : ... .. 6 ... ... : ... .. . ... : ... .. . ... : ... .. . Z30 ...
ROW 3A : ... .. 5 ... ... : ... .. 5 ... ... : ... .. . ... : ... .. . ... : ... .. . Z30 ...
ROW 3B : ... .. . ... ... : ... .. . ... ... : ... .. . ... : ... .. 0 ... : ... .. . Z30 ...
ROW 3C : ... .. 4 ... ... : ... .. 4 ... ... : ... .. . ... : ... .. . ... : ... .. . Z30 ...
ROW 3D : ... .. . ... ... : ... .. . ... ... : ... .. . ... : ... .. . ... : ... .. . Z30 ...
ROW 3E : ... .. 0 ... ... : ... .. 0 ... ... : --- .. . ... : ... .. . ... : ... .. . Z30 ...
ROW 3F : ... .. . ... ... : ... .. . ... ... : ... .. . ... : ... .. . ... : ... .. . Z30 ...
ROW 40 : ... .. . ... ... : ... .. . ... ... : ... .. . ... : ... .. . ... : ... .. . Z30 ...
ROW 41 : ... .. . ... ... : ... .. . ... ... : ... .. . ... : ... .. . ... : ... .. . Z30 ...
ROW 42 : ... .. . ... ... : ... .. . ... ... : ... .. . ... : ... .. . ... : ... .. . Z30 ...
ROW 43 : ... .. . ... ... : ... .. . ... ... : ... .. . ... : ... .. . ... : ... .. . Z30 ...
ROW 44 : ... .. . ... ... : ... .. . ... ... : ... .. . ... : ... .. . ... : ... .. . Z30 ...
ROW 45 : ... .. . ... ... : ... .. . ... ... : ... .. . ... : ... .. . ... : ... .. . Z30 ...
ROW 46 : ... .. . ... ... : ... .. . ... ... : ... .. . ... : ... .. . ... : ... .. . Z30 ...
ROW 47 : ... .. . ... ... : ... .. . ... ... : ... .. . ... : ... .. . ... : ... .. . Z30 ...
ROW 48 : G-3 00 0 P80 ... : E-4 00 0 P7F ... : G-3 00 . P80 : ... .. C ... : ... .. . Z30 ...
ROW 49 : ... .. 8 ... ... : ... .. 8 ... ... : ... .. . ... : ... .. . ... : ... .. . Z30 ...
ROW 4A : ... .. 7 ... ... : ... .. 7 ... ... : ... .. . ... : ... .. . ... : ... .. . Z30 ...
ROW 4B : ... .. 6 ... ... : ... .. 6 ... ... : ... .. . ... : ... .. . ... : ... .. . Z30 ...
ROW 4C : ... .. 5 ... ... : ... .. 5 ... ... : ... .. . ... : ... .. . ... : ... .. . Z30 ...
ROW 4D : ... .. . ... ... : ... .. . ... ... : ... .. . ... : ... .. 0 ... : ... .. . Z30 ...
ROW 4E : ... .. 4 ... ... : ... .. 4 ... ... : ... .. . ... : ... .. . ... : ... .. . Z30 ...
ROW 4F : ... .. . ... ... : ... .. . ... ... : ... .. . ... : ... .. . ... : ... .. . Z30 ...
ROW 50 : ... .. 0 ... ... : ... .. 0 ... ... : --- .. . ... : ... .. . ... : ... .. . Z30 ...
ROW 51 : E-3 00 0 P7D ... : C-4 00 0 P80 ... : ... .. . ... : ... .. . ... : ... .. . Z30 ...
ROW 52 : ... .. 8 ... ... : ... .. 8 ... ... : ... .. . ... : ... .. . ... : ... .. . Z30 ...
ROW 53 : ... .. 7 ... ... : ... .. 7 ... ... : ... .. . ... : ... .. . ... : ... .. . Z30 ...
ROW 54 : ... .. 6 ... ... : ... .. 6 ... ... : ... .. . ... : ... .. . ... : ... .. . Z30 ...
ROW 55 : ... .. 5 ... ... : ... .. 5 ... ... : ... .. . ... : ... .. . ... : ... .. . Z30 ...
ROW 56 : ... .. . ... ... : ... .. . ... ... : ... .. . ... : ... .. . ... : ... .. . Z30 ...
ROW 57 : ... .. 4 ... ... : ... .. 4 ... ... : ... .. . ... : ... .. . ... : ... .. . Z30 ...
ROW 58 : ... .. . ... ... : ... .. . ... ... : ... .. . ... : ... .. . ... : ... .. . Z30 ...
ROW 59 : ... .. 0 ... ... : ... .. 0 ... ... : ... .. . ... : ... .. . ... : ... .. . Z30 ...
ROW 5A : ... .. . ... ... : ... .. . ... ... : ... .. . ... : ... .. . ... : ... .. . Z30 ...
ROW 5B : ... .. . ... ... : ... .. . ... ... : ... .. . ... : ... .. . ... : ... .. . Z30 ...
ROW 5C : ... .. . ... ... : ... .. . ... ... : ... .. . ... : ... .. . ... : ... .. . Z30 ...
ROW 5D : ... .. . ... ... : ... .. . ... ... : ... .. . ... : ... .. . ... : ... .. . Z30 ...
ROW 5E : ... .. . ... ... : ... .. . ... ... : ... .. . ... : ... .. . ... : ... .. . Z30 ...
ROW 5F : ... .. . ... ... : ... .. . ... ... : ... .. . ... : ... .. . ... : ... .. . Z30 ...
ROW 60 : ... .. . ... ... : ... .. . ... ... : ... .. . ... : ... .. . ... : ... .. . Z30 ...
ROW 61 : ... .. . ... ... : ... .. . ... ... : ... .. . ... : ... .. . ... : ... .. . Z30 ...
ROW 62 : ... .. . ... ... : ... .. . ... ... : ... .. . ... : ... .. . ... : ... .. . Z30 ...
ROW 63 : ... .. . ... ... : A-3 00 0 P7E ... : C-3 00 . P80 : ... .. C ... : ... .. . Z30 ...
ROW 64 : ... .. 8 ... ... : ... .. 8 ... ... : ... .. . ... : ... .. . ... : ... .. . Z30 ...
ROW 65 : ... .. 7 ... ... : ... .. 7 ... ... : ... .. . ... : ... .. . ... : ... .. . Z30 ...
ROW 66 : ... .. 6 ... ... : ... .. 6 ... ... : ... .. . ... : ... .. . ... : ... .. . Z30 ...
ROW 67 : ... .. 5 ... ... : ... .. 5 ... ... : ... .. . ... : ... .. . ... : ... .. . Z30 ...
ROW 68 : ... .. . ... ... : ... .. . ... ... : ... .. . ... : ... .. 0 ... : ... .. . Z30 ...
ROW 69 : ... .. 4 ... ... : ... .. 4 ... ... : ... .. . ... : ... .. . ... : ... .. . Z30 ...
ROW 6A : ... .. . ... ... : ... .. . ... ... : ... .. . ... : ... .. . ... : ... .. . Z30 ...
ROW 6B : ... .. 0 ... ... : ... .. 0 ... ... : --- .. . ... : ... .. . ... : ... .. . Z30 ...
ROW 6C : C-3 00 0 P80 ... : G-3 00 0 P80 ... : ... .. . ... : ... .. . ... : ... .. . Z30 ...
ROW 6D : ... .. 8 ... ... : ... .. 8 ... ... : ... .. . ... : ... .. . ... : ... .. . Z30 ...
ROW 6E : ... .. 7 ... ... : ... .. 7 ... ... : ... .. . ... : ... .. . ... : ... .. . Z30 ...
ROW 6F : ... .. 6 ... ... : ... .. 6 ... ... : ... .. . ... : ... .. . ... : ... .. . Z30 ...
ROW 70 : ... .. 5 ... ... : ... .. 5 ... ... : ... .. . ... : ... .. . ... : ... .. . Z30 ...
ROW 71 : ... .. . ... ... : ... .. . ... ... : ... .. . ... : ... .. . ... : ... .. . Z30 ...
ROW 72 : ... .. 4 ... ... : ... .. 4 ... ... : ... .. . ... : ... .. . ... : ... .. . Z30 ...
ROW 73 : ... .. . ... ... : ... .. . ... ... : ... .. . ... : ... .. . ... : ... .. . Z30 ...
ROW 74 : ... .. 0 ... ... : ... .. 0 ... ... : ... .. . ... : ... .. . ... : ... .. . Z30 ...
ROW 75 : ... .. . ... ... : ... .. . ... ... : ... .. . ... : ... .. C ... : ... .. . Z30 ...
ROW 76 : ... .. . ... ... : ... .. . ... ... : ... .. . ... : ... .. 0 ... : ... .. . Z30 ...
ROW 77 : ... .. . ... ... : ... .. . ... ... : ... .. . ... : ... .. . ... : ... .. . Z30 ...
ROW 78 : ... .. . ... ... : ... .. . ... ... : ... .. . ... : ... .. . ... : ... .. . Z30 ...
ROW 79 : ... .. . ... ... : ... .. . ... ... : ... .. . ... : ... .. . ... : ... .. . Z30 ...
ROW 7A : ... .. . ... ... : ... .. . ... ... : ... .. . ... : ... .. . ... : ... .. . Z30 ...
ROW 7B : ... .. . ... ... : ... .. . ... ... : ... .. . ... : ... .. . ... : ... .. . Z30 ...
ROW 7C : ... .. . ... ... : ... .. . ... ... : ... .. . ... : ... .. . ... : ... .. . Z30 ...
ROW 7D : ... .. . ... ... : ... .. . ... ... : ... .. . ... : ... .. . ... : ... .. . Z30 ...
ROW 7E : ... .. . ... ... : ... .. . ... ... : G-2 00 . P81 : ... .. C ... : ... .. . Z30 ...
ROW 7F : ... .. . ... ... : ... .. . ... ... : ... .. . ... : ... .. 0 ... : ... .. . Z30 ...
ROW 80 : ... .. . ... ... : ... .. . ... ... : ... .. . ... : ... .. . ... : ... .. . Z30 ...
ROW 81 : ... .. . ... ... : ... .. . ... ... : ... .. . ... : ... .. . ... : ... .. . Z30 ...
ROW 82 : ... .. . ... ... : ... .. . ... ... : ... .. . ... : ... .. . ... : ... .. . Z30 ...
ROW 83 : ... .. . ... ... : ... .. . ... ... : ... .. . ... : ... .. . ... : ... .. . Z30 ...
ROW 84 : ... .. . ... ... : ... .. . ... ... : ... .. . ... : ... .. . ... : ... .. . Z30 ...
ROW 85 : ... .. . ... ... : ... .. . ... ... : ... .. . ... : ... .. . ... : ... .. . Z30 ...
ROW 86 : ... .. . ... ... : ... .. . ... ... : --- .. . ... : ... .. . ... : ... .. . Z30 ...
ROW 87 : ... .. . ... ... : ... .. . ... ... : ... .. . ... : ... .. C ... : ... .. . Z30 ...
ROW 88 : ... .. . ... ... : ... .. . ... ... : ... .. . ... : ... .. 0 ... : ... .. . Z30 ...
ROW 89 : ... .. . ... ... : ... .. . ... ... : ... .. . ... : ... .. . ... : ... .. . Z30 ...
ROW 8A : ... .. . ... ... : ... .. . ... ... : ... .. . ... : ... .. . ... : ... .. . Z30 ...
ROW 8B : ... .. . ... ... : ... .. . ... ... : ... .. . ... : ... .. . ... : ... .. . Z30 ...
ROW 8C : ... .. . ... ... : ... .. . ... ... : ... .. . ... : ... .. . ... : ... .. . Z30 ...
ROW 8D : ... .. . ... ... : ... .. . ... ... : ... .. . ... : ... .. . ... : ... .. . Z30 ...
ROW 8E : ... .. . ... ... : ... .. . ... ... : ... .. . ... : ... .. . ... : ... .. . Z30 ...
ROW 8F : ... .. . ... ... : ... .. . ... ... : ... .. . ... : ... .. . ... : ... .. . Z30 ...

PATTERN 10
ROW 00 : F#3 00 0 P7D ... : E-4 00 0 P7F ... : D-3 00 . P81 : ... .. C ... : ... .. . Z30 ...
ROW 01 : ... .. 8 ... ... : ... .. 8 ... ... : ... .. . ... : ... .. . ... : ... .. . Z30 ...
ROW 02 : ... .. 7 ... ... : ... .. 7 ... ... : ... .. . ... : ... .. . ... : ... .. . Z30 ...
ROW 03 : ... .. 6 ... ... : ... .. 6 ... ... : ... .. . ... : ... .. . ... : ... .. . Z30 ...
ROW 04 : ... .. 5 ... ... : ... .. 5 ... ... : ... .. . ... : ... .. . ... : ... .. . Z30 ...
ROW 05 : ... .. . ... ... : ... .. . ... ... : ... .. . ... : ... .. 0 ... : ... .. . Z30 ...
ROW 06 : ... .. 4 ... ... : ... .. 4 ... ... : ... .. . ... : ... .. . ... : ... .. . Z30 ...
ROW 07 : ... .. . ... ... : ... .. . ... ... : ... .. . ... : ... .. . ... : ... .. . Z30 ...
ROW 08 : ... .. 0 ... ... : ... .. 0 ... ... : --- .. . ... : ... .. . ... : ... .. . Z30 ...
ROW 09 : ... .. . ... ... : ... .. . ... ... : D-3 00 . P81 : ... .. . ... : ... .. . Z30 ...
ROW 0A : ... .. 8 ... ... : ... .. 8 ... ... : ... .. . ... : ... .. . ... : ... .. . Z30 ...
ROW 0B : ... .. 7 ... ... : ... .. 7 ... ... : ... .. . ... : ... .. . ... : ... .. . Z30 ...
ROW 0C : ... .. 6 ... ... : ... .. 6 ... ... : ... .. . ... : ... .. . ... : ... .. . Z30 ...
ROW 0D : ... .. 5 ... ... : ... .. 5 ... ... : ... .. . ... : ... .. . ... : ... .. . Z30 ...
ROW 0E : ... .. . ... ... : ... .. . ... ... : ... .. . ... : ... .. . ... : ... .. . Z30 ...
ROW 0F : ... .. 4 ... ... : ... .. 4 ... ... : ... .. . ... : ... .. . ... : ... .. . Z30 ...
ROW 10 : ... .. . ... ... : ... .. . ... ... : ... .. . ... : ... .. . ... : ... .. . Z30 ...
ROW 11 : ... .. 0 ... ... : ... .. 0 ... ... : --- .. . ... : ... .. . ... : ... .. . Z30 ...
ROW 12 : ... .. . ... ... : ... .. . ... ... : ... .. . ... : ... .. C ... : ... .. . Z30 ...
ROW 13 : ... .. . ... ... : ... .. . ... ... : ... .. . ... : ... .. 0 ... : ... .. . Z30 ...
ROW 14 : ... .. . ... ... : ... .. . ... ... : ... .. . ... : ... .. . ... : ... .. . Z30 ...
ROW 15 : ... .. . ... ... : ... .. . ... ... : ... .. . ... : ... .. . ... : ... .. . Z30 ...
ROW 16 : ... .. . ... ... : ... .. . ... ... : ... .. . ... : ... .. . ... : ... .. . Z30 ...
ROW 17 : ... .. . ... ... : ... .. . ... ... : ... .. . ... : ... .. . ... : ... .. . Z30 ...
ROW 18 : ... .. . ... ... : ... .. . ... ... : ... .. . ... : ... .. . ... : ... .. . Z30 ...
ROW 19 : ... .. . ... ... : ... .. . ... ... : ... .. . ... : ... .. . ... : ... .. . Z30 ...
ROW 1A : ... .. . ... ... : ... .. . ... ... : ... .. . ... : ... .. . ... : ... .. . Z30 ...
ROW 1B : ... .. . ... ... : ... .. . ... ... : D-3 00 . P81 : ... .. C ... : ... .. . Z30 ...
ROW 1C : ... .. 8 ... ... : ... .. 8 ... ... : ... .. . ... : ... .. . ... : ... .. . Z30 ...
ROW 1D : ... .. 7 ... ... : ... .. 7 ... ... : ... .. . ... : ... .. . ... : ... .. . Z30 ...
ROW 1E : ... .. 6 ... ... : ... .. 6 ... ... : ... .. . ... : ... .. . ... : ... .. . Z30 ...
ROW 1F : ... .. 5 ... ... : ... .. 5 ... ... : ... .. . ... : ... .. . ... : ... .. . Z30 ...
ROW 20 : ... .. . ... ... : ... .. . ... ... : ... .. . ... : ... .. 0 ... : ... .. . Z30 ...
ROW 21 : ... .. 4 ... ... : ... .. 4 ... ... : ... .. . ... : ... .. . ... : ... .. . Z30 ...
ROW 22 : ... .. . ... ... : ... .. . ... ... : ... .. . ... : ... .. . ... : ... .. . Z30 ...
ROW 23 : ... .. 0 ... ... : ... .. 0 ... ... : --- .. . ... : ... .. . ... : ... .. . Z30 ...
ROW 24 : ... .. . ... ... : ... .. . ... ... : ... .. . ... : ... .. . ... : ... .. . Z30 ...
ROW 25 : ... .. . ... ... : ... .. . ... ... : ... .. . ... : ... .. . ... : ... .. . Z30 ...
ROW 26 : ... .. . ... ... : ... .. . ... ... : ... .. . ... : ... .. . ... : ... .. . Z30 ...
ROW 27 : ... .. . ... ... : ... .. . ... ... : ... .. . ... : ... .. . ... : ... .. . Z30 ...
ROW 28 : ... .. . ... ... : ... .. . ... ... : ... .. . ... : ... .. . ... : ... .. . Z30 ...
ROW 29 : ... .. . ... ... : ... .. . ... ... : ... .. . ... : ... .. . ... : ... .. . Z30 ...
ROW 2A : ... .. . ... ... : ... .. . ... ... : ... .. . ... : ... .. . ... : ... .. . Z30 ...
ROW 2B : ... .. . ... ... : ... .. . ... ... : ... .. . ... : ... .. . ... : ... .. . Z30 ...
ROW 2C : ... .. . ... ... : ... .. . ... ... : ... .. . ... : ... .. . ... : ... .. . Z30 ...
ROW 2D : ... .. . ... ... : C-4 00 0 P80 ... : D-3 00 . P81 : ... .. C ... : ... .. . Z30 ...
ROW 2E : ... .. 8 ... ... : ... .. 8 ... ... : ... .. . ... : ... .. 0 ... : ... .. . Z30 ...
ROW 2F : ... .. 7 ... ... : ... .. 7 ... ... : ... .. . ... : ... .. . ... : ... .. . Z30 ...
ROW 30 : ... .. 6 ... ... : ... .. 6 ... ... : ... .. . ... : ... .. . ... : ... .. . Z30 ...
ROW 31 : ... .. 5 ... ... : ... .. 5 ... ... : ... .. . ... : ... .. . ... : ... .. . Z30 ...
ROW 32 : ... .. . ... ... : ... .. . ... ... : ... .. . ... : ... .. . ... : ... .. . Z30 ...
ROW 33 : ... .. 4 ... ... : ... .. 4 ... ... : ... .. . ... : ... .. . ... : ... .. . Z30 ...
ROW 34 : ... .. . ... ... : ... .. . ... ... : ... .. . ... : ... .. . ... : ... .. . Z30 ...
ROW 35 : ... .. 0 ... ... : ... .. 0 ... ... : --- .. . ... : ... .. . ... : ... .. . Z30 ...
ROW 36 : ... .. . ... ... : E-4 00 0 P7F ... : D-3 00 . P81 : ... .. C ... : ... .. . Z30 ...
ROW 37 : ... .. 8 ... ... : ... .. 8 ... ... : ... .. . ... : ... .. . ... : ... .. . Z30 ...
ROW 38 : ... .. 7 ... ... : ... .. 7 ... ... : ... .. . ... : ... .. . ... : ... .. . Z30 ...
ROW 39 : ... .. 6 ... ... : ... .. 6 ... ... : ... .. . ... : ... .. . ... : ... .. . Z30 ...
ROW 3A : ... .. 5 ... ... : ... .. 5 ... ... : ... .. . ... : ... .. . ... : ... .. . Z30 ...
ROW 3B : ... .. . ... ... : ... .. . ... ... : ... .. . ... : ... .. 0 ... : ... .. . Z30 ...
ROW 3C : ... .. 4 ... ... : ... .. 4 ... ... : ... .. . ... : ... .. . ... : ... .. . Z30 ...
ROW 3D : ... .. . ... ... : ... .. . ... ... : ... .. . ... : ... .. . ... : ... .. . Z30 ...
ROW 3E : ... .. 0 ... ... : ... .. 0 ... ... : --- .. . ... : ... .. . ... : ... .. . Z30 ...
ROW 3F : ... .. . ... ... : ... .. . ... ... : ... .. . ... : ... .. . ... : ... .. . Z30 ...
ROW 40 : ... .. . ... ... : ... .. . ... ... : ... .. . ... : ... .. . ... : ... .. . Z30 ...
ROW 41 : ... .. . ... ... : ... .. . ... ... : ... .. . ... : ... .. . ... : ... .. . Z30 ...
ROW 42 : ... .. . ... ... : ... .. . ... ... : ... .. . ... : ... .. . ... : ... .. . Z30 ...
ROW 43 : ... .. . ... ... : ... .. . ... ... : ... .. . ... : ... .. . ... : ... .. . Z30 ...
ROW 44 : ... .. . ... ... : ... .. . ... ... : ... .. . ... : ... .. . ... : ... .. . Z30 ...
ROW 45 : ... .. . ... ... : ... .. . ... ... : ... .. . ... : ... .. . ... : ... .. . Z30 ...
ROW 46 : ... .. . ... ... : ... .. . ... ... : ... .. . ... : ... .. . ... : ... .. . Z30 ...
ROW 47 : ... .. . ... ... : ... .. . ... ... : ... .. . ... : ... .. . ... : ... .. . Z30 ...
ROW 48 : B-3 00 0 P7E ... : G-4 00 0 P80 ... : G-4 00 . P80 : ... .. C ... : ... .. . Z30 ...
ROW 49 : ... .. 8 ... ... : ... .. 8 ... ... : ... .. . ... : ... .. . ... : ... .. . Z30 ...
ROW 4A : ... .. 7 ... ... : ... .. 7 ... ... : ... .. . ... : ... .. . ... : ... .. . Z30 ...
ROW 4B : ... .. 6 ... ... : ... .. 6 ... ... : ... .. . ... : ... .. . ... : ... .. . Z30 ...
ROW 4C : ... .. 5 ... ... : ... .. 5 ... ... : ... .. . ... : ... .. . ... : ... .. . Z30 ...
ROW 4D : ... .. . ... ... : ... .. . ... ... : ... .. . ... : ... .. 0 ... : ... .. . Z30 ...
ROW 4E : ... .. 4 ... ... : ... .. 4 ... ... : ... .. . ... : ... .. . ... : ... .. . Z30 ...
ROW 4F : ... .. . ... ... : ... .. . ... ... : ... .. . ... : ... .. . ... : ... .. . Z30 ...
ROW 50 : ... .. 0 ... ... : ... .. 0 ... ... : --- .. . ... : ... .. . ... : ... .. . Z30 ...
ROW 51 : ... .. . ... ... : ... .. . ... ... : ... .. . ... : ... .. . ... : ... .. . Z30 ...
ROW 52 : ... .. . ... ... : ... .. . ... ... : ... .. . ... : ... .. . ... : ... .. . Z30 ...
ROW 53 : ... .. . ... ... : ... .. . ... ... : ... .. . ... : ... .. . ... : ... .. . Z30 ...
ROW 54 : ... .. . ... ... : ... .. . ... ... : ... .. . ... : ... .. . ... : ... .. . Z30 ...
ROW 55 : ... .. . ... ... : ... .. . ... ... : ... .. . ... : ... .. . ... : ... .. . Z30 ...
ROW 56 : ... .. . ... ... : ... .. . ... ... : ... .. . ... : ... .. . ... : ... .. . Z30 ...
ROW 57 : ... .. . ... ... : ... .. . ... ... : ... .. . ... : ... .. . ... : ... .. . Z30 ...
ROW 58 : ... .. . ... ... : ... .. . ... ... : ... .. . ... : ... .. . ... : ... .. . Z30 ...
ROW 59 : ... .. . ... ... : ... .. . ... ... : ... .. . ... : ... .. . ... : ... .. . Z30 ...
ROW 5A : ... .. . ... ... : ... .. . ... ... : ... .. . ... : ... .. . ... : ... .. . Z30 ...
ROW 5B : ... .. . ... ... : ... .. . ... ... : ... .. . ... : ... .. . ... : ... .. . Z30 ...
ROW 5C : ... .. . ... ... : ... .. . ... ... : ... .. . ... : ... .. . ... : ... .. . Z30 ...
ROW 5D : ... .. . ... ... : ... .. . ... ... : ... .. . ... : ... .. . ... : ... .. . Z30 ...
ROW 5E : ... .. . ... ... : ... .. . ... ... : ... .. . ... : ... .. . ... : ... .. . Z30 ...
ROW 5F : ... .. . ... ... : ... .. . ... ... : ... .. . ... : ... .. . ... : ... .. . Z30 ...
ROW 60 : ... .. . ... ... : ... .. . ... ... : ... .. . ... : ... .. . ... : ... .. . Z30 ...
ROW 61 : ... .. . ... ... : ... .. . ... ... : ... .. . ... : ... .. . ... : ... .. . Z30 ...
ROW 62 : ... .. . ... ... : ... .. . ... ... : ... .. . ... : ... .. . ... : ... .. . Z30 ...
ROW 63 : ... .. . ... ... : ... .. . ... ... : ... .. . ... : ... .. C ... : ... .. . Z30 ...
ROW 64 : ... .. . ... ... : ... .. . ... ... : ... .. . ... : ... .. . ... : ... .. . Z30 ...
ROW 65 : ... .. . ... ... : ... .. . ... ... : ... .. . ... : ... .. . ... : ... .. . Z30 ...
ROW 66 : ... .. . ... ... : ... .. . ... ... : ... .. . ... : ... .. . ... : ... .. . Z30 ...
ROW 67 : ... .. . ... ... : ... .. . ... ... : ... .. . ... : ... .. . ... : ... .. . Z30 ...
ROW 68 : ... .. . ... ... : ... .. . ... ... : ... .. . ... : ... .. 0 ... : ... .. . Z30 ...
ROW 69 : ... .. . ... ... : ... .. . ... ... : ... .. . ... : ... .. . ... : ... .. . Z30 ...
ROW 6A : ... .. . ... ... : ... .. . ... ... : ... .. . ... : ... .. . ... : ... .. . Z30 ...
ROW 6B : ... .. . ... ... : ... .. . ... ... : ... .. . ... : ... .. . ... : ... .. . Z30 ...
ROW 6C : G-3 00 0 P80 ... : ... .. . ... ... : G-3 00 . P80 : ... .. . ... : ... .. . Z30 ...
ROW 6D : ... .. 8 ... ... : ... .. . ... ... : ... .. . ... : ... .. . ... : ... .. . Z30 ...
ROW 6E : ... .. 7 ... ... : ... .. . ... ... : ... .. . ... : ... .. . ... : ... .. . Z30 ...
ROW 6F : ... .. 6 ... ... : ... .. . ... ... : ... .. . ... : ... .. . ... : ... .. . Z30 ...
ROW 70 : ... .. 5 ... ... : ... .. . ... ... : ... .. . ... : ... .. . ... : ... .. . Z30 ...
ROW 71 : ... .. . ... ... : ... .. . ... ... : ... .. . ... : ... .. . ... : ... .. . Z30 ...
ROW 72 : ... .. 4 ... ... : ... .. . ... ... : ... .. . ... : ... .. . ... : ... .. . Z30 ...
ROW 73 : ... .. . ... ... : ... .. . ... ... : ... .. . ... : ... .. . ... : ... .. . Z30 ...
ROW 74 : ... .. 0 ... ... : ... .. . ... ... : --- .. . ... : ... .. . ... : ... .. . Z30 ...
ROW 75 : ... .. . ... ... : ... .. . ... ... : ... .. . ... : ... .. C ... : ... .. . Z30 ...
ROW 76 : ... .. . ... ... : ... .. . ... ... : ... .. . ... : ... .. 0 ... : ... .. . Z30 ...
ROW 77 : ... .. . ... ... : ... .. . ... ... : ... .. . ... : ... .. . ... : ... .. . Z30 ...
ROW 78 : ... .. . ... ... : ... .. . ... ... : ... .. . ... : ... .. . ... : ... .. . Z30 ...
ROW 79 : ... .. . ... ... : ... .. . ... ... : ... .. . ... : ... .. . ... : ... .. . Z30 ...
ROW 7A : ... .. . ... ... : ... .. . ... ... : ... .. . ... : ... .. . ... : ... .. . Z30 ...
ROW 7B : ... .. . ... ... : ... .. . ... ... : ... .. . ... : ... .. . ... : ... .. . Z30 ...
ROW 7C : ... .. . ... ... : ... .. . ... ... : ... .. . ... : ... .. . ... : ... .. . Z30 ...
ROW 7D : ... .. . ... ... : ... .. . ... ... : ... .. . ... : ... .. . ... : ... .. . Z30 ...
ROW 7E : ... .. . ... ... : ... .. . ... ... : ... .. . ... : ... .. C ... : ... .. . Z30 ...
ROW 7F : ... .. . ... ... : ... .. . ... ... : ... .. . ... : ... .. 0 ... : ... .. . Z30 ...
ROW 80 : ... .. . ... ... : ... .. . ... ... : ... .. . ... : ... .. . ... : ... .. . Z30 ...
ROW 81 : ... .. . ... ... : ... .. . ... ... : ... .. . ... : ... .. . ... : ... .. . Z30 ...
ROW 82 : ... .. . ... ... : ... .. . ... ... : ... .. . ... : ... .. . ... : ... .. . Z30 ...
ROW 83 : ... .. . ... ... : ... .. . ... ... : ... .. . ... : ... .. . ... : ... .. . Z30 ...
ROW 84 : ... .. . ... ... : ... .. . ... ... : ... .. . ... : ... .. . ... : ... .. . Z30 ...
ROW 85 : ... .. . ... ... : ... .. . ... ... : ... .. . ... : ... .. . ... : ... .. . Z30 ...
ROW 86 : ... .. . ... ... : ... .. . ... ... : ... .. . ... : ... .. . ... : ... .. . Z30 ...
ROW 87 : ... .. . ... ... : ... .. . ... ... : ... .. . ... : ... .. C ... : ... .. . Z30 ...
ROW 88 : ... .. . ... ... : ... .. . ... ... : ... .. . ... : ... .. 0 ... : ... .. . Z30 ...
ROW 89 : ... .. . ... ... : ... .. . ... ... : ... .. . ... : ... .. . ... : ... .. . Z30 ...
ROW 8A : ... .. . ... ... : ... .. . ... ... : ... .. . ... : ... .. . ... : ... .. . Z30 ...
ROW 8B : ... .. . ... ... : ... .. . ... ... : ... .. . ... : ... .. . ... : ... .. . Z30 ...
ROW 8C : ... .. . ... ... : ... .. . ... ... : ... .. . ... : ... .. . ... : ... .. . Z30 ...
ROW 8D : ... .. . ... ... : ... .. . ... ... : ... .. . ... : ... .. . ... : ... .. . Z30 ...
ROW 8E : ... .. . ... ... : ... .. . ... ... : ... .. . ... : ... .. . ... : ... .. . Z30 ...
ROW 8F : ... .. . ... ... : ... .. . ... ... : ... .. . ... : ... .. . ... : ... .. . Z30 ...

PATTERN 11
ROW 00 : E-3 00 0 P7D ... : C-4 00 0 P80 ... : G-3 00 . P80 : 3-# 00 C ... : ... .. . Z30 ...
ROW 01 : ... .. 8 ... ... : ... .. 8 ... ... : ... .. . ... : ... .. 0 ... : ... .. . Z30 ...
ROW 02 : ... .. 7 ... ... : ... .. 7 ... ... : ... .. . ... : ... .. . ... : ... .. . Z30 ...
ROW 03 : ... .. 6 ... ... : ... .. 6 ... ... : ... .. . ... : ... .. . ... : ... .. . Z30 ...
ROW 04 : ... .. 5 ... ... : ... .. 5 ... ... : ... .. . ... : ... .. . ... : ... .. . Z30 ...
ROW 05 : ... .. . ... ... : ... .. . ... ... : ... .. . ... : ... .. . ... : ... .. . Z30 ...
ROW 06 : ... .. 4 ... ... : ... .. 4 ... ... : ... .. . ... : ... .. . ... : ... .. . Z30 ...
ROW 07 : ... .. . ... ... : ... .. . ... ... : ... .. . ... : ... .. . ... : ... .. . Z30 ...
ROW 08 : ... .. 0 ... ... : ... .. 0 ... ... : --- .. . ... : ... .. . ... : ... .. . Z30 ...
ROW 09 : ... .. . ... ... : ... .. . ... ... : ... .. . ... : ... .. . ... : ... .. . Z30 ...
ROW 0A : ... .. . ... ... : ... .. . ... ... : ... .. . ... : ... .. . ... : ... .. . Z30 ...
ROW 0B : ... .. . ... ... : ... .. . ... ... : ... .. . ... : ... .. . ... : ... .. . Z30 ...
ROW 0C : ... .. . ... ... : ... .. . ... ... : ... .. . ... : ... .. . ... : ... .. . Z30 ...
ROW 0D : ... .. . ... ... : ... .. . ... ... : ... .. . ... : ... .. . ... : ... .. . Z30 ...
ROW 0E : ... .. . ... ... : ... .. . ... ... : ... .. . ... : ... .. . ... : ... .. . Z30 ...
ROW 0F : ... .. . ... ... : ... .. . ... ... : ... .. . ... : ... .. . ... : ... .. . Z30 ...
ROW 10 : ... .. . ... ... : ... .. . ... ... : ... .. . ... : ... .. . ... : ... .. . Z30 ...
ROW 11 : ... .. . ... ... : ... .. . ... ... : ... .. . ... : ... .. . ... : ... .. . Z30 ...
ROW 12 : ... .. . ... ... : ... .. . ... ... : ... .. . ... : C-# 00 C ... : ... .. . Z30 ...
ROW 13 : ... .. . ... ... : ... .. . ... ... : ... .. . ... : ... .. 0 ... : ... .. . Z30 ...
ROW 14 : ... .. . ... ... : ... .. . ... ... : ... .. . ... : ... .. . ... : ... .. . Z30 ...
ROW 15 : ... .. . ... ... : ... .. . ... ... : ... .. . ... : ... .. . ... : ... .. . Z30 ...
ROW 16 : ... .. . ... ... : ... .. . ... ... : ... .. . ... : ... .. . ... : ... .. . Z30 ...
ROW 17 : ... .. . ... ... : ... .. . ... ... : ... .. . ... : ... .. . ... : ... .. . Z30 ...
ROW 18 : ... .. . ... ... : ... .. . ... ... : ... .. . ... : B-# 00 0 V01 : ... .. . Z30 ...
ROW 19 : ... .. . ... ... : ... .. . ... ... : ... .. . ... : ... .. . ... : ... .. . Z30 ...
ROW 1A : ... .. . ... ... : ... .. . ... ... : ... .. . ... : ... .. . ... : ... .. . Z30 ...
ROW 1B : C-3 00 0 P80 ... : G-3 00 0 P80 ... : E-3 00 . P7D : ... .. . ... : ... .. . Z30 ...
ROW 1C : ... .. 8 ... ... : ... .. 8 ... ... : ... .. . ... : ... .. . ... : ... .. . Z30 ...
ROW 1D : ... .. 7 ... ... : ... .. 7 ... ... : ... .. . ... : ... .. . ... : ... .. . Z30 ...
ROW 1E : ... .. 6 ... ... : ... .. 6 ... ... : ... .. . ... : C-# 00 C V00 : ... .. . Z30 ...
ROW 1F : ... .. 5 ... ... : ... .. 5 ... ... : ... .. . ... : ... .. 0 ... : ... .. . Z30 ...
ROW 20 : ... .. . ... ... : ... .. . ... ... : ... .. . ... : ... .. . ... : ... .. . Z30 ...
ROW 21 : ... .. 4 ... ... : ... .. 4 ... ... : ... .. . ... : ... .. . ... : ... .. . Z30 ...
ROW 22 : ... .. . ... ... : ... .. . ... ... : ... .. . ... : ... .. . ... : ... .. . Z30 ...
ROW 23 : ... .. 0 ... ... : ... .. 0 ... ... : --- .. . ... : ... .. . ... : ... .. . Z30 ...
ROW 24 : ... .. . ... ... : ... .. . ... ... : ... .. . ... : ... .. C ... : ... .. . Z30 ...
ROW 25 : ... .. . ... ... : ... .. . ... ... : ... .. . ... : ... .. . ... : ... .. . Z30 ...
ROW 26 : ... .. . ... ... : ... .. . ... ... : ... .. . ... : ... .. . ... : ... .. . Z30 ...
ROW 27 : ... .. . ... ... : ... .. . ... ... : ... .. . ... : ... .. . ... : ... .. . Z30 ...
ROW 28 : ... .. . ... ... : ... .. . ... ... : ... .. . ... : ... .. . ... : ... .. . Z30 ...
ROW 29 : ... .. . ... ... : ... .. . ... ... : ... .. . ... : ... .. 0 ... : ... .. . Z30 ...
ROW 2A : ... .. . ... ... : ... .. . ... ... : ... .. . ... : ... .. . ... : ... .. . Z30 ...
ROW 2B : ... .. . ... ... : ... .. . ... ... : ... .. . ... : ... .. . ... : ... .. . Z30 ...
ROW 2C : ... .. . ... ... : ... .. . ... ... : ... .. . ... : ... .. . ... : ... .. . Z30 ...
ROW 2D : ... .. . ... ... : ... .. . ... ... : ... .. . ... : ... .. . ... : ... .. . Z30 ...
ROW 2E : ... .. . ... ... : ... .. . ... ... : ... .. . ... : ... .. . ... : ... .. . Z30 ...
ROW 2F : ... .. . ... ... : ... .. . ... ... : ... .. . ... : ... .. . ... : ... .. . Z30 ...
ROW 30 : ... .. . ... ... : ... .. . ... ... : ... .. . ... : ... .. . ... : ... .. . Z30 ...
ROW 31 : ... .. . ... ... : ... .. . ... ... : ... .. . ... : ... .. . ... : ... .. . Z30 ...
ROW 32 : ... .. . ... ... : ... .. . ... ... : ... .. . ... : ... .. . ... : ... .. . Z30 ...
ROW 33 : ... .. . ... ... : ... .. . ... ... : ... .. . ... : ... .. . ... : ... .. . Z30 ...
ROW 34 : ... .. . ... ... : ... .. . ... ... : ... .. . ... : ... .. . ... : ... .. . Z30 ...
ROW 35 : ... .. . ... ... : ... .. . ... ... : ... .. . ... : ... .. . ... : ... .. . Z30 ...
ROW 36 : G-2 00 0 P81 ... : E-3 00 0 P7D ... : C-3 00 . P80 : ... .. C ... : ... .. . Z30 ...
ROW 37 : ... .. 8 ... ... : ... .. 8 ... ... : ... .. . ... : ... .. 0 ... : ... .. . Z30 ...
ROW 38 : ... .. 7 ... ... : ... .. 7 ... ... : ... .. . ... : ... .. . ... : ... .. . Z30 ...
ROW 39 : ... .. 6 ... ... : ... .. 6 ... ... : ... .. . ... : ... .. . ... : ... .. . Z30 ...
ROW 3A : ... .. 5 ... ... : ... .. 5 ... ... : ... .. . ... : ... .. . ... : ... .. . Z30 ...
ROW 3B : ... .. . ... ... : ... .. . ... ... : ... .. . ... : ... .. . ... : ... .. . Z30 ...
ROW 3C : ... .. 4 ... ... : ... .. 4 ... ... : ... .. . ... : B-# 00 0 V01 : ... .. . Z30 ...
ROW 3D : ... .. . ... ... : ... .. . ... ... : ... .. . ... : ... .. . ... : ... .. . Z30 ...
ROW 3E : ... .. 0 ... ... : ... .. 0 ... ... : --- .. . ... : ... .. . ... : ... .. . Z30 ...
ROW 3F : ... .. . ... ... : ... .. . ... ... : ... .. . ... : ... .. . ... : ... .. . Z30 ...
ROW 40 : ... .. . ... ... : ... .. . ... ... : ... .. . ... : ... .. . ... : ... .. . Z30 ...
ROW 41 : ... .. . ... ... : ... .. . ... ... : ... .. . ... : ... .. . ... : ... .. . Z30 ...
ROW 42 : ... .. . ... ... : ... .. . ... ... : ... .. . ... : C-# 00 C V00 : ... .. . Z30 ...
ROW 43 : ... .. . ... ... : ... .. . ... ... : ... .. . ... : ... .. 0 ... : ... .. . Z30 ...
ROW 44 : ... .. . ... ... : ... .. . ... ... : ... .. . ... : ... .. . ... : ... .. . Z30 ...
ROW 45 : ... .. . ... ... : ... .. . ... ... : ... .. . ... : ... .. . ... : ... .. . Z30 ...
ROW 46 : ... .. . ... ... : ... .. . ... ... : ... .. . ... : ... .. . ... : ... .. . Z30 ...
ROW 47 : ... .. . ... ... : ... .. . ... ... : ... .. . ... : ... .. . ... : ... .. . Z30 ...
ROW 48 : ... .. . ... ... : ... .. . ... ... : ... .. . ... : 3-# 00 C ... : ... .. . Z30 ...
ROW 49 : ... .. . ... ... : ... .. . ... ... : ... .. . ... : ... .. 0 ... : ... .. . Z30 ...
ROW 4A : ... .. . ... ... : ... .. . ... ... : ... .. . ... : ... .. . ... : ... .. . Z30 ...
ROW 4B : ... .. . ... ... : ... .. . ... ... : ... .. . ... : ... .. . ... : ... .. . Z30 ...
ROW 4C : ... .. . ... ... : ... .. . ... ... : ... .. . ... : ... .. . ... : ... .. . Z30 ...
ROW 4D : ... .. . ... ... : ... .. . ... ... : ... .. . ... : ... .. . ... : ... .. . Z30 ...
ROW 4E : ... .. . ... ... : ... .. . ... ... : ... .. . ... : ... .. . ... : ... .. . Z30 ...
ROW 4F : ... .. . ... ... : ... .. . ... ... : ... .. . ... : ... .. . ... : ... .. . Z30 ...
ROW 50 : ... .. . ... ... : ... .. . ... ... : ... .. . ... : ... .. . ... : ... .. . Z30 ...
ROW 51 : C-3 00 0 P80 ... : A-3 00 0 P7E ... : F-3 00 . P80 : ... .. . ... : ... .. . Z30 ...
ROW 52 : ... .. 8 ... ... : ... .. 8 ... ... : ... .. . ... : ... .. . ... : ... .. . Z30 ...
ROW 53 : ... .. 7 ... ... : ... .. 7 ... ... : ... .. . ... : ... .. . ... : ... .. . Z30 ...
ROW 54 : ... .. 6 ... ... : ... .. 6 ... ... : ... .. . ... : ... .. . ... : ... .. . Z30 ...
ROW 55 : ... .. 5 ... ... : ... .. 5 ... ... : ... .. . ... : ... .. . ... : ... .. . Z30 ...
ROW 56 : ... .. . ... ... : ... .. . ... ... : ... .. . ... : ... .. . ... : ... .. . Z30 ...
ROW 57 : ... .. 4 ... ... : ... .. 4 ... ... : ... .. . ... : ... .. . ... : ... .. . Z30 ...
ROW 58 : ... .. . ... ... : ... .. . ... ... : ... .. . ... : ... .. . ... : ... .. . Z30 ...
ROW 59 : ... .. 0 ... ... : ... .. 0 ... ... : --- .. . ... : ... .. . ... : ... .. . Z30 ...
ROW 5A : ... .. . ... ... : ... .. . ... ... : ... .. . ... : C-# 00 C ... : ... .. . Z30 ...
ROW 5B : ... .. . ... ... : ... .. . ... ... : ... .. . ... : ... .. 0 ... : ... .. . Z30 ...
ROW 5C : ... .. . ... ... : ... .. . ... ... : ... .. . ... : ... .. . ... : ... .. . Z30 ...
ROW 5D : ... .. . ... ... : ... .. . ... ... : ... .. . ... : ... .. . ... : ... .. . Z30 ...
ROW 5E : ... .. . ... ... : ... .. . ... ... : ... .. . ... : ... .. . ... : ... .. . Z30 ...
ROW 5F : ... .. . ... ... : ... .. . ... ... : ... .. . ... : ... .. . ... : ... .. . Z30 ...
ROW 60 : ... .. . ... ... : ... .. . ... ... : ... .. . ... : B-# 00 0 V01 : ... .. . Z30 ...
ROW 61 : ... .. . ... ... : ... .. . ... ... : ... .. . ... : ... .. . ... : ... .. . Z30 ...
ROW 62 : ... .. . ... ... : ... .. . ... ... : ... .. . ... : ... .. . ... : ... .. . Z30 ...
ROW 63 : D-3 00 0 P81 ... : B-3 00 0 P7E ... : G-3 00 . P80 : ... .. . ... : ... .. . Z30 ...
ROW 64 : ... .. 8 ... ... : ... .. 8 ... ... : ... .. . ... : ... .. . ... : ... .. . Z30 ...
ROW 65 : ... .. 7 ... ... : ... .. 7 ... ... : ... .. . ... : ... .. . ... : ... .. . Z30 ...
ROW 66 : ... .. 6 ... ... : ... .. 6 ... ... : ... .. . ... : C-# 00 C V00 : ... .. . Z30 ...
ROW 67 : ... .. 5 ... ... : ... .. 5 ... ... : ... .. . ... : ... .. 0 ... : ... .. . Z30 ...
ROW 68 : ... .. . ... ... : ... .. . ... ... : ... .. . ... : ... .. . ... : ... .. . Z30 ...
ROW 69 : ... .. 4 ... ... : ... .. 4 ... ... : ... .. . ... : ... .. . ... : ... .. . Z30 ...
ROW 6A : ... .. . ... ... : ... .. . ... ... : ... .. . ... : ... .. . ... : ... .. . Z30 ...
ROW 6B : ... .. 0 ... ... : ... .. 0 ... ... : --- .. . ... : ... .. . ... : ... .. . Z30 ...
ROW 6C : ... .. . ... ... : ... .. . ... ... : ... .. . ... : ... .. C ... : ... .. . Z30 ...
ROW 6D : ... .. . ... ... : ... .. . ... ... : ... .. . ... : ... .. . ... : ... .. . Z30 ...
ROW 6E : ... .. . ... ... : ... .. . ... ... : ... .. . ... : ... .. . ... : ... .. . Z30 ...
ROW 6F : ... .. . ... ... : ... .. . ... ... : ... .. . ... : ... .. . ... : ... .. . Z30 ...
ROW 70 : ... .. . ... ... : ... .. . ... ... : ... .. . ... : ... .. . ... : ... .. . Z30 ...
ROW 71 : ... .. . ... ... : ... .. . ... ... : ... .. . ... : ... .. 0 ... : ... .. . Z30 ...
ROW 72 : ... .. . ... ... : ... .. . ... ... : ... .. . ... : ... .. . ... : ... .. . Z30 ...
ROW 73 : ... .. . ... ... : ... .. . ... ... : ... .. . ... : ... .. . ... : ... .. . Z30 ...
ROW 74 : ... .. . ... ... : ... .. . ... ... : ... .. . ... : ... .. . ... : ... .. . Z30 ...
ROW 75 : C#3 00 0 P83 ... : A#3 00 0 P7C ... : F#3 00 . P7D : ... .. . ... : ... .. . Z30 ...
ROW 76 : ... .. 8 ... ... : ... .. 8 ... ... : ... .. . ... : ... .. . ... : ... .. . Z30 ...
ROW 77 : ... .. 7 ... ... : ... .. 7 ... ... : ... .. . ... : ... .. . ... : ... .. . Z30 ...
ROW 78 : ... .. 6 ... ... : ... .. 6 ... ... : ... .. . ... : ... .. . ... : ... .. . Z30 ...
ROW 79 : ... .. 5 ... ... : ... .. 5 ... ... : ... .. . ... : ... .. . ... : ... .. . Z30 ...
ROW 7A : ... .. . ... ... : ... .. . ... ... : ... .. . ... : ... .. . ... : ... .. . Z30 ...
ROW 7B : ... .. 4 ... ... : ... .. 4 ... ... : ... .. . ... : ... .. . ... : ... .. . Z30 ...
ROW 7C : ... .. . ... ... : ... .. . ... ... : ... .. . ... : ... .. . ... : ... .. . Z30 ...
ROW 7D : ... .. 0 ... ... : ... .. 0 ... ... : --- .. . ... : ... .. . ... : ... .. . Z30 ...
ROW 7E : C-3 00 0 P80 ... : A-3 00 0 P7E ... : F-3 00 . P80 : ... .. C ... : ... .. . Z30 ...
ROW 7F : ... .. 8 ... ... : ... .. 8 ... ... : ... .. . ... : ... .. 0 ... : ... .. . Z30 ...
ROW 80 : ... .. 7 ... ... : ... .. 7 ... ... : ... .. . ... : ... .. . ... : ... .. . Z30 ...
ROW 81 : ... .. 6 ... ... : ... .. 6 ... ... : ... .. . ... : ... .. . ... : ... .. . Z30 ...
ROW 82 : ... .. 5 ... ... : ... .. 5 ... ... : ... .. . ... : ... .. . ... : ... .. . Z30 ...
ROW 83 : ... .. . ... ... : ... .. . ... ... : ... .. . ... : ... .. . ... : ... .. . Z30 ...
ROW 84 : ... .. 4 ... ... : ... .. 4 ... ... : ... .. . ... : B-# 00 0 V01 : ... .. . Z30 ...
ROW 85 : ... .. . ... ... : ... .. . ... ... : ... .. . ... : ... .. . ... : ... .. . Z30 ...
ROW 86 : ... .. 0 ... ... : ... .. 0 ... ... : --- .. . ... : ... .. . ... : ... .. . Z30 ...
ROW 87 : ... .. . ... ... : ... .. . ... ... : ... .. . ... : ... .. . ... : ... .. . Z30 ...
ROW 88 : ... .. . ... ... : ... .. . ... ... : ... .. . ... : ... .. . ... : ... .. . Z30 ...
ROW 89 : ... .. . ... ... : ... .. . ... ... : ... .. . ... : ... .. . ... : ... .. . Z30 ...
ROW 8A : ... .. . ... ... : ... .. . ... ... : ... .. . ... : C-# 00 C V00 : ... .. . Z30 ...
ROW 8B : ... .. . ... ... : ... .. . ... ... : ... .. . ... : ... .. 0 ... : ... .. . Z30 ...
ROW 8C : ... .. . ... ... : ... .. . ... ... : ... .. . ... : ... .. . ... : ... .. . Z30 ...
ROW 8D : ... .. . ... ... : ... .. . ... ... : ... .. . ... : ... .. . ... : ... .. . Z30 ...
ROW 8E : ... .. . ... ... : ... .. . ... ... : ... .. . ... : ... .. . ... : ... .. . Z30 ...
ROW 8F : ... .. . ... ... : ... .. . ... ... : ... .. . ... : ... .. . ... : ... .. . Z30 ...

PATTERN 12
ROW 00 : ... .. . ... ... : G-3 00 0 P80 ... : E-3 00 . P7D : 3-# 00 C ... : ... .. . Z30 ...
ROW 01 : ... .. 8 ... ... : ... .. 8 ... ... : ... .. . ... : ... .. 0 ... : ... .. . Z30 ...
ROW 02 : ... .. 7 ... ... : ... .. 7 ... ... : ... .. . ... : ... .. . ... : ... .. . Z30 ...
ROW 03 : ... .. 6 ... ... : ... .. 6 ... ... : ... .. . ... : ... .. . ... : ... .. . Z30 ...
ROW 04 : ... .. 5 ... ... : ... .. 5 ... ... : ... .. . ... : ... .. . ... : ... .. . Z30 ...
ROW 05 : ... .. . ... ... : ... .. . ... ... : ... .. . ... : ... .. . ... : ... .. . Z30 ...
ROW 06 : ... .. 4 ... ... : ... .. 4 ... ... : ... .. . ... : ... .. . ... : ... .. . Z30 ...
ROW 07 : ... .. . ... ... : ... .. . ... ... : ... .. . ... : ... .. . ... : ... .. . Z30 ...
ROW 08 : ... .. 0 ... ... : ... .. 0 ... ... : --- .. . ... : ... .. . ... : ... .. . Z30 ...
ROW 09 : ... .. . ... ... : ... .. . ... ... : ... .. . ... : ... .. . ... : ... .. . Z30 ...
ROW 0A : ... .. . ... ... : ... .. . ... ... : ... .. . ... : ... .. . ... : ... .. . Z30 ...
ROW 0B : ... .. . ... ... : ... .. . ... ... : ... .. . ... : ... .. . ... : ... .. . Z30 ...
ROW 0C : G-3 00 0 P80 ... : E-4 00 0 P7F ... : C-4 00 . P80 : ... .. . ... : ... .. . Z30 ...
ROW 0D : ... .. 8 ... ... : ... .. 8 ... ... : ... .. . ... : ... .. . ... : ... .. . Z30 ...
ROW 0E : ... .. 7 ... ... : ... .. 7 ... ... : ... .. . ... : ... .. . ... : ... .. . Z30 ...
ROW 0F : ... .. 6 ... ... : ... .. 6 ... ... : ... .. . ... : ... .. . ... : ... .. . Z30 ...
ROW 10 : ... .. 5 ... ... : ... .. 5 ... ... : ... .. . ... : ... .. . ... : ... .. . Z30 ...
ROW 11 : ... .. . ... ... : ... .. . ... ... : ... .. . ... : ... .. . ... : ... .. . Z30 ...
ROW 12 : ... .. 4 ... ... : ... .. 4 ... ... : ... .. . ... : C-# 00 C ... : ... .. . Z30 ...
ROW 13 : ... .. . ... ... : ... .. . ... ... : ... .. . ... : ... .. 0 ... : ... .. . Z30 ...
ROW 14 : ... .. 0 ... ... : ... .. 0 ... ... : --- .. . ... : ... .. . ... : ... .. . Z30 ...
ROW 15 : ... .. . ... ... : ... .. . ... ... : ... .. . ... : ... .. . ... : ... .. . Z30 ...
ROW 16 : ... .. . ... ... : ... .. . ... ... : ... .. . ... : ... .. . ... : ... .. . Z30 ...
ROW 17 : ... .. . ... ... : ... .. . ... ... : ... .. . ... : ... .. . ... : ... .. . Z30 ...
ROW 18 : B-3 00 0 P7E ... : G-4 00 0 P80 ... : E-4 00 . P7F : B-# 00 0 V01 : ... .. . Z30 ...
ROW 19 : ... .. 8 ... ... : ... .. 8 ... ... : ... .. . ... : ... .. . ... : ... .. . Z30 ...
ROW 1A : ... .. 7 ... ... : ... .. 7 ... ... : ... .. . ... : ... .. . ... : ... .. . Z30 ...
ROW 1B : ... .. 6 ... ... : ... .. 6 ... ... : ... .. . ... : ... .. . ... : ... .. . Z30 ...
ROW 1C : ... .. 5 ... ... : ... .. 5 ... ... : ... .. . ... : ... .. . ... : ... .. . Z30 ...
ROW 1D : ... .. . ... ... : ... .. . ... ... : ... .. . ... : ... .. . ... : ... .. . Z30 ...
ROW 1E : ... .. 4 ... ... : ... .. 4 ... ... : ... .. . ... : C-# 00 C V00 : ... .. . Z30 ...
ROW 1F : ... .. . ... ... : ... .. . ... ... : ... .. . ... : ... .. 0 ... : ... .. . Z30 ...
ROW 20 : ... .. 0 ... ... : ... .. 0 ... ... : --- .. . ... : ... .. . ... : ... .. . Z30 ...
ROW 21 : ... .. . ... ... : ... .. . ... ... : ... .. . ... : ... .. . ... : ... .. . Z30 ...
ROW 22 : ... .. . ... ... : ... .. . ... ... : ... .. . ... : ... .. . ... : ... .. . Z30 ...
ROW 23 : ... .. . ... ... : ... .. . ... ... : ... .. . ... : ... .. . ... : ... .. . Z30 ...
ROW 24 : C-4 00 0 P80 ... : A-4 00 0 P7F ... : F-4 00 . P80 : ... .. C ... : ... .. . Z30 ...
ROW 25 : ... .. 8 ... ... : ... .. 8 ... ... : ... .. . ... : ... .. . ... : ... .. . Z30 ...
ROW 26 : ... .. 7 ... ... : ... .. 7 ... ... : ... .. . ... : ... .. . ... : ... .. . Z30 ...
ROW 27 : ... .. 6 ... ... : ... .. 6 ... ... : ... .. . ... : ... .. . ... : ... .. . Z30 ...
ROW 28 : ... .. 5 ... ... : ... .. 5 ... ... : ... .. . ... : ... .. . ... : ... .. . Z30 ...
ROW 29 : ... .. . ... ... : ... .. . ... ... : ... .. . ... : ... .. 0 ... : ... .. . Z30 ...
ROW 2A : ... .. 4 ... ... : ... .. 4 ... ... : ... .. . ... : ... .. . ... : ... .. . Z30 ...
ROW 2B : ... .. . ... ... : ... .. . ... ... : ... .. . ... : ... .. . ... : ... .. . Z30 ...
ROW 2C : ... .. 0 ... ... : ... .. 0 ... ... : --- .. . ... : ... .. . ... : ... .. . Z30 ...
ROW 2D : ... .. . ... ... : ... .. . ... ... : ... .. . ... : ... .. . ... : ... .. . Z30 ...
ROW 2E : ... .. . ... ... : ... .. . ... ... : ... .. . ... : ... .. . ... : ... .. . Z30 ...
ROW 2F : ... .. . ... ... : ... .. . ... ... : ... .. . ... : ... .. . ... : ... .. . Z30 ...
ROW 30 : ... .. . ... ... : ... .. . ... ... : ... .. . ... : ... .. . ... : ... .. . Z30 ...
ROW 31 : ... .. . ... ... : ... .. . ... ... : ... .. . ... : ... .. . ... : ... .. . Z30 ...
ROW 32 : ... .. . ... ... : ... .. . ... ... : ... .. . ... : ... .. . ... : ... .. . Z30 ...
ROW 33 : ... .. . ... ... : ... .. . ... ... : ... .. . ... : ... .. . ... : ... .. . Z30 ...
ROW 34 : ... .. . ... ... : ... .. . ... ... : ... .. . ... : ... .. . ... : ... .. . Z30 ...
ROW 35 : ... .. . ... ... : ... .. . ... ... : ... .. . ... : ... .. . ... : ... .. . Z30 ...
ROW 36 : A-3 00 0 P7E ... : F-4 00 0 P80 ... : D-4 00 . P80 : ... .. C ... : ... .. . Z30 ...
ROW 37 : ... .. 8 ... ... : ... .. 8 ... ... : ... .. . ... : ... .. 0 ... : ... .. . Z30 ...
ROW 38 : ... .. 7 ... ... : ... .. 7 ... ... : ... .. . ... : ... .. . ... : ... .. . Z30 ...
ROW 39 : ... .. 6 ... ... : ... .. 6 ... ... : ... .. . ... : ... .. . ... : ... .. . Z30 ...
ROW 3A : ... .. 5 ... ... : ... .. 5 ... ... : ... .. . ... : ... .. . ... : ... .. . Z30 ...
ROW 3B : ... .. . ... ... : ... .. . ... ... : ... .. . ... : ... .. . ... : ... .. . Z30 ...
ROW 3C : ... .. 4 ... ... : ... .. 4 ... ... : ... .. . ... : B-# 00 0 V01 : ... .. . Z30 ...
ROW 3D : ... .. . ... ... : ... .. . ... ... : ... .. . ... : ... .. . ... : ... .. . Z30 ...
ROW 3E : ... .. 0 ... ... : ... .. 0 ... ... : --- .. . ... : ... .. . ... : ... .. . Z30 ...
ROW 3F : B-3 00 0 P7E ... : G-4 00 0 P80 ... : E-4 00 . P7F : ... .. . ... : ... .. . Z30 ...
ROW 40 : ... .. 8 ... ... : ... .. 8 ... ... : ... .. . ... : ... .. . ... : ... .. . Z30 ...
ROW 41 : ... .. 7 ... ... : ... .. 7 ... ... : ... .. . ... : ... .. . ... : ... .. . Z30 ...
ROW 42 : ... .. 6 ... ... : ... .. 6 ... ... : ... .. . ... : C-# 00 C V00 : ... .. . Z30 ...
ROW 43 : ... .. 5 ... ... : ... .. 5 ... ... : ... .. . ... : ... .. 0 ... : ... .. . Z30 ...
ROW 44 : ... .. . ... ... : ... .. . ... ... : ... .. . ... : ... .. . ... : ... .. . Z30 ...
ROW 45 : ... .. 4 ... ... : ... .. 4 ... ... : ... .. . ... : ... .. . ... : ... .. . Z30 ...
ROW 46 : ... .. . ... ... : ... .. . ... ... : ... .. . ... : ... .. . ... : ... .. . Z30 ...
ROW 47 : ... .. 0 ... ... : ... .. 0 ... ... : --- .. . ... : ... .. . ... : ... .. . Z30 ...
ROW 48 : ... .. . ... ... : ... .. . ... ... : ... .. . ... : 3-# 00 C ... : ... .. . Z30 ...
ROW 49 : ... .. . ... ... : ... .. . ... ... : ... .. . ... : ... .. 0 ... : ... .. . Z30 ...
ROW 4A : ... .. . ... ... : ... .. . ... ... : ... .. . ... : ... .. . ... : ... .. . Z30 ...
ROW 4B : ... .. . ... ... : ... .. . ... ... : ... .. . ... : ... .. . ... : ... .. . Z30 ...
ROW 4C : ... .. . ... ... : ... .. . ... ... : ... .. . ... : ... .. . ... : ... .. . Z30 ...
ROW 4D : ... .. . ... ... : ... .. . ... ... : ... .. . ... : ... .. . ... : ... .. . Z30 ...
ROW 4E : ... .. . ... ... : ... .. . ... ... : ... .. . ... : ... .. . ... : ... .. . Z30 ...
ROW 4F : ... .. . ... ... : ... .. . ... ... : ... .. . ... : ... .. . ... : ... .. . Z30 ...
ROW 50 : ... .. . ... ... : ... .. . ... ... : ... .. . ... : ... .. . ... : ... .. . Z30 ...
ROW 51 : A-3 00 0 P7E ... : E-4 00 0 P7F ... : C-4 00 . P80 : ... .. . ... : ... .. . Z30 ...
ROW 52 : ... .. 8 ... ... : ... .. 8 ... ... : ... .. . ... : ... .. . ... : ... .. . Z30 ...
ROW 53 : ... .. 7 ... ... : ... .. 7 ... ... : ... .. . ... : ... .. . ... : ... .. . Z30 ...
ROW 54 : ... .. 6 ... ... : ... .. 6 ... ... : ... .. . ... : ... .. . ... : ... .. . Z30 ...
ROW 55 : ... .. 5 ... ... : ... .. 5 ... ... : ... .. . ... : ... .. . ... : ... .. . Z30 ...
ROW 56 : ... .. . ... ... : ... .. . ... ... : ... .. . ... : ... .. . ... : ... .. . Z30 ...
ROW 57 : ... .. 4 ... ... : ... .. 4 ... ... : ... .. . ... : ... .. . ... : ... .. . Z30 ...
ROW 58 : ... .. . ... ... : ... .. . ... ... : ... .. . ... : ... .. . ... : ... .. . Z30 ...
ROW 59 : ... .. 0 ... ... : ... .. 0 ... ... : --- .. . ... : ... .. . ... : ... .. . Z30 ...
ROW 5A : ... .. . ... ... : ... .. . ... ... : ... .. . ... : C-# 00 C ... : ... .. . Z30 ...
ROW 5B : ... .. . ... ... : ... .. . ... ... : ... .. . ... : ... .. 0 ... : ... .. . Z30 ...
ROW 5C : ... .. . ... ... : ... .. . ... ... : ... .. . ... : ... .. . ... : ... .. . Z30 ...
ROW 5D : ... .. . ... ... : ... .. . ... ... : ... .. . ... : ... .. . ... : ... .. . Z30 ...
ROW 5E : ... .. . ... ... : ... .. . ... ... : ... .. . ... : ... .. . ... : ... .. . Z30 ...
ROW 5F : ... .. . ... ... : ... .. . ... ... : ... .. . ... : ... .. . ... : ... .. . Z30 ...
ROW 60 : ... .. . ... ... : ... .. . ... ... : ... .. . ... : B-# 00 0 V01 : ... .. . Z30 ...
ROW 61 : ... .. . ... ... : ... .. . ... ... : ... .. . ... : ... .. . ... : ... .. . Z30 ...
ROW 62 : ... .. . ... ... : ... .. . ... ... : ... .. . ... : ... .. . ... : ... .. . Z30 ...
ROW 63 : E-3 00 0 P7D ... : C-4 00 0 P80 ... : A-3 00 . P7E : ... .. . ... : ... .. . Z30 ...
ROW 64 : ... .. 8 ... ... : ... .. 8 ... ... : ... .. . ... : ... .. . ... : ... .. . Z30 ...
ROW 65 : ... .. 7 ... ... : ... .. 7 ... ... : ... .. . ... : ... .. . ... : ... .. . Z30 ...
ROW 66 : ... .. 6 ... ... : ... .. 6 ... ... : ... .. . ... : C-# 00 C V00 : ... .. . Z30 ...
ROW 67 : ... .. 5 ... ... : ... .. 5 ... ... : ... .. . ... : ... .. 0 ... : ... .. . Z30 ...
ROW 68 : ... .. . ... ... : ... .. . ... ... : ... .. . ... : ... .. . ... : ... .. . Z30 ...
ROW 69 : ... .. 4 ... ... : ... .. 4 ... ... : ... .. . ... : ... .. . ... : ... .. . Z30 ...
ROW 6A : ... .. . ... ... : ... .. . ... ... : ... .. . ... : ... .. . ... : ... .. . Z30 ...
ROW 6B : ... .. 0 ... ... : ... .. 0 ... ... : --- .. . ... : ... .. . ... : ... .. . Z30 ...
ROW 6C : F-3 00 0 P80 ... : D-4 00 0 P80 ... : B-3 00 . P7E : ... .. C ... : ... .. . Z30 ...
ROW 6D : ... .. 8 ... ... : ... .. 8 ... ... : ... .. . ... : ... .. . ... : ... .. . Z30 ...
ROW 6E : ... .. 7 ... ... : ... .. 7 ... ... : ... .. . ... : ... .. . ... : ... .. . Z30 ...
ROW 6F : ... .. 6 ... ... : ... .. 6 ... ... : ... .. . ... : ... .. . ... : ... .. . Z30 ...
ROW 70 : ... .. 5 ... ... : ... .. 5 ... ... : ... .. . ... : ... .. . ... : ... .. . Z30 ...
ROW 71 : ... .. . ... ... : ... .. . ... ... : ... .. . ... : ... .. 0 ... : ... .. . Z30 ...
ROW 72 : ... .. 4 ... ... : ... .. 4 ... ... : ... .. . ... : ... .. . ... : ... .. . Z30 ...
ROW 73 : ... .. . ... ... : ... .. . ... ... : ... .. . ... : ... .. . ... : ... .. . Z30 ...
ROW 74 : ... .. 0 ... ... : ... .. 0 ... ... : --- .. . ... : ... .. . ... : ... .. . Z30 ...
ROW 75 : D-3 00 0 P81 ... : B-3 00 0 P7E ... : G-3 00 . P80 : ... .. . ... : ... .. . Z30 ...
ROW 76 : ... .. 8 ... ... : ... .. 8 ... ... : ... .. . ... : ... .. . ... : ... .. . Z30 ...
ROW 77 : ... .. 7 ... ... : ... .. 7 ... ... : ... .. . ... : ... .. . ... : ... .. . Z30 ...
ROW 78 : ... .. 6 ... ... : ... .. 6 ... ... : ... .. . ... : ... .. . ... : ... .. . Z30 ...
ROW 79 : ... .. 5 ... ... : ... .. 5 ... ... : ... .. . ... : ... .. . ... : ... .. . Z30 ...
ROW 7A : ... .. . ... ... : ... .. . ... ... : ... .. . ... : ... .. . ... : ... .. . Z30 ...
ROW 7B : ... .. 4 ... ... : ... .. 4 ... ... : ... .. . ... : ... .. . ... : ... .. . Z30 ...
ROW 7C : ... .. . ... ... : ... .. . ... ... : ... .. . ... : ... .. . ... : ... .. . Z30 ...
ROW 7D : ... .. 0 ... ... : ... .. 0 ... ... : --- .. . ... : ... .. . ... : ... .. . Z30 ...
ROW 7E : ... .. . ... ... : ... .. . ... ... : ... .. . ... : ... .. C ... : ... .. . Z30 ...
ROW 7F : ... .. . ... ... : ... .. . ... ... : ... .. . ... : ... .. 0 ... : ... .. . Z30 ...
ROW 80 : ... .. . ... ... : ... .. . ... ... : ... .. . ... : ... .. . ... : ... .. . Z30 ...
ROW 81 : ... .. . ... ... : ... .. . ... ... : ... .. . ... : ... .. . ... : ... .. . Z30 ...
ROW 82 : ... .. . ... ... : ... .. . ... ... : ... .. . ... : ... .. . ... : ... .. . Z30 ...
ROW 83 : ... .. . ... ... : ... .. . ... ... : ... .. . ... : ... .. . ... : ... .. . Z30 ...
ROW 84 : ... .. . ... ... : ... .. . ... ... : ... .. . ... : B-# 00 0 V01 : ... .. . Z30 ...
ROW 85 : ... .. . ... ... : ... .. . ... ... : ... .. . ... : ... .. . ... : ... .. . Z30 ...
ROW 86 : ... .. . ... ... : ... .. . ... ... : ... .. . ... : ... .. . ... : ... .. . Z30 ...
ROW 87 : ... .. . ... ... : ... .. . ... ... : ... .. . ... : ... .. . ... : ... .. . Z30 ...
ROW 88 : ... .. . ... ... : ... .. . ... ... : ... .. . ... : ... .. . ... : ... .. . Z30 ...
ROW 89 : ... .. . ... ... : ... .. . ... ... : ... .. . ... : ... .. . ... : ... .. . Z30 ...
ROW 8A : ... .. . ... ... : ... .. . ... ... : ... .. . ... : C-# 00 C V00 : ... .. . Z30 ...
ROW 8B : ... .. . ... ... : ... .. . ... ... : ... .. . ... : ... .. 0 ... : ... .. . Z30 ...
ROW 8C : ... .. . ... ... : ... .. . ... ... : ... .. . ... : ... .. . ... : ... .. . Z30 ...
ROW 8D : ... .. . ... ... : ... .. . ... ... : ... .. . ... : ... .. . ... : ... .. . Z30 ...
ROW 8E : ... .. . ... ... : ... .. . ... ... : ... .. . ... : ... .. . ... : ... .. . Z30 ...
ROW 8F : ... .. . ... ... : ... .. . ... ... : ... .. . ... : ... .. . ... : ... .. . Z30 ...

PATTERN 13
ROW 00 : E-3 00 0 P7D ... : C-4 00 0 P80 ... : G-3 00 . P80 : 3-# 00 C ... : ... .. . Z30 ...
ROW 01 : ... .. 8 ... ... : ... .. 8 ... ... : ... .. . ... : ... .. 0 ... : ... .. . Z30 ...
ROW 02 : ... .. 7 ... ... : ... .. 7 ... ... : ... .. . ... : ... .. . ... : ... .. . Z30 ...
ROW 03 : ... .. 6 ... ... : ... .. 6 ... ... : ... .. . ... : ... .. . ... : ... .. . Z30 ...
ROW 04 : ... .. 5 ... ... : ... .. 5 ... ... : ... .. . ... : ... .. . ... : ... .. . Z30 ...
ROW 05 : ... .. . ... ... : ... .. . ... ... : ... .. . ... : ... .. . ... : ... .. . Z30 ...
ROW 06 : ... .. 4 ... ... : ... .. 4 ... ... : ... .. . ... : ... .. . ... : ... .. . Z30 ...
ROW 07 : ... .. . ... ... : ... .. . ... ... : ... .. . ... : ... .. . ... : ... .. . Z30 ...
ROW 08 : ... .. 0 ... ... : ... .. 0 ... ... : --- .. . ... : ... .. . ... : ... .. . Z30 ...
ROW 09 : ... .. . ... ... : ... .. . ... ... : ... .. . ... : ... .. . ... : ... .. . Z30 ...
ROW 0A : ... .. . ... ... : ... .. . ... ... : ... .. . ... : ... .. . ... : ... .. . Z30 ...
ROW 0B : ... .. . ... ... : ... .. . ... ... : ... .. . ... : ... .. . ... : ... .. . Z30 ...
ROW 0C : ... .. . ... ... : ... .. . ... ... : ... .. . ... : ... .. . ... : ... .. . Z30 ...
ROW 0D : ... .. . ... ... : ... .. . ... ... : ... .. . ... : ... .. . ... : ... .. . Z30 ...
ROW 0E : ... .. . ... ... : ... .. . ... ... : ... .. . ... : ... .. . ... : ... .. . Z30 ...
ROW 0F : ... .. . ... ... : ... .. . ... ... : ... .. . ... : ... .. . ... : ... .. . Z30 ...
ROW 10 : ... .. . ... ... : ... .. . ... ... : ... .. . ... : ... .. . ... : ... .. . Z30 ...
ROW 11 : ... .. . ... ... : ... .. . ... ... : ... .. . ... : ... .. . ... : ... .. . Z30 ...
ROW 12 : ... .. . ... ... : ... .. . ... ... : ... .. . ... : C-# 00 C ... : ... .. . Z30 ...
ROW 13 : ... .. . ... ... : ... .. . ... ... : ... .. . ... : ... .. 0 ... : ... .. . Z30 ...
ROW 14 : ... .. . ... ... : ... .. . ... ... : ... .. . ... : ... .. . ... : ... .. . Z30 ...
ROW 15 : ... .. . ... ... : ... .. . ... ... : ... .. . ... : ... .. . ... : ... .. . Z30 ...
ROW 16 : ... .. . ... ... : ... .. . ... ... : ... .. . ... : ... .. . ... : ... .. . Z30 ...
ROW 17 : ... .. . ... ... : ... .. . ... ... : ... .. . ... : ... .. . ... : ... .. . Z30 ...
ROW 18 : ... .. . ... ... : ... .. . ... ... : ... .. . ... : B-# 00 0 V01 : ... .. . Z30 ...
ROW 19 : ... .. . ... ... : ... .. . ... ... : ... .. . ... : ... .. . ... : ... .. . Z30 ...
ROW 1A : ... .. . ... ... : ... .. . ... ... : ... .. . ... : ... .. . ... : ... .. . Z30 ...
ROW 1B : C-3 00 0 P80 ... : G-3 00 0 P80 ... : E-3 00 . P7D : ... .. . ... : ... .. . Z30 ...
ROW 1C : ... .. 8 ... ... : ... .. 8 ... ... : ... .. . ... : ... .. . ... : ... .. . Z30 ...
ROW 1D : ... .. 7 ... ... : ... .. 7 ... ... : ... .. . ... : ... .. . ... : ... .. . Z30 ...
ROW 1E : ... .. 6 ... ... : ... .. 6 ... ... : ... .. . ... : C-# 00 C V00 : ... .. . Z30 ...
ROW 1F : ... .. 5 ... ... : ... .. 5 ... ... : ... .. . ... : ... .. 0 ... : ... .. . Z30 ...
ROW 20 : ... .. . ... ... : ... .. . ... ... : ... .. . ... : ... .. . ... : ... .. . Z30 ...
ROW 21 : ... .. 4 ... ... : ... .. 4 ... ... : ... .. . ... : ... .. . ... : ... .. . Z30 ...
ROW 22 : ... .. . ... ... : ... .. . ... ... : ... .. . ... : ... .. . ... : ... .. . Z30 ...
ROW 23 : ... .. 0 ... ... : ... .. 0 ... ... : --- .. . ... : ... .. . ... : ... .. . Z30 ...
ROW 24 : ... .. . ... ... : ... .. . ... ... : ... .. . ... : ... .. C ... : ... .. . Z30 ...
ROW 25 : ... .. . ... ... : ... .. . ... ... : ... .. . ... : ... .. . ... : ... .. . Z30 ...
ROW 26 : ... .. . ... ... : ... .. . ... ... : ... .. . ... : ... .. . ... : ... .. . Z30 ...
ROW 27 : ... .. . ... ... : ... .. . ... ... : ... .. . ... : ... .. . ... : ... .. . Z30 ...
ROW 28 : ... .. . ... ... : ... .. . ... ... : ... .. . ... : ... .. . ... : ... .. . Z30 ...
ROW 29 : ... .. . ... ... : ... .. . ... ... : ... .. . ... : ... .. 0 ... : ... .. . Z30 ...
ROW 2A : ... .. . ... ... : ... .. . ... ... : ... .. . ... : ... .. . ... : ... .. . Z30 ...
ROW 2B : ... .. . ... ... : ... .. . ... ... : ... .. . ... : ... .. . ... : ... .. . Z30 ...
ROW 2C : ... .. . ... ... : ... .. . ... ... : ... .. . ... : ... .. . ... : ... .. . Z30 ...
ROW 2D : ... .. . ... ... : ... .. . ... ... : ... .. . ... : ... .. . ... : ... .. . Z30 ...
ROW 2E : ... .. . ... ... : ... .. . ... ... : ... .. . ... : ... .. . ... : ... .. . Z30 ...
ROW 2F : ... .. . ... ... : ... .. . ... ... : ... .. . ... : ... .. . ... : ... .. . Z30 ...
ROW 30 : ... .. . ... ... : ... .. . ... ... : ... .. . ... : ... .. . ... : ... .. . Z30 ...
ROW 31 : ... .. . ... ... : ... .. . ... ... : ... .. . ... : ... .. . ... : ... .. . Z30 ...
ROW 32 : ... .. . ... ... : ... .. . ... ... : ... .. . ... : ... .. . ... : ... .. . Z30 ...
ROW 33 : ... .. . ... ... : ... .. . ... ... : ... .. . ... : ... .. . ... : ... .. . Z30 ...
ROW 34 : ... .. . ... ... : ... .. . ... ... : ... .. . ... : ... .. . ... : ... .. . Z30 ...
ROW 35 : ... .. . ... ... : ... .. . ... ... : ... .. . ... : ... .. . ... : ... .. . Z30 ...
ROW 36 : G-2 00 0 P81 ... : E-3 00 0 P7D ... : C-3 00 . P80 : ... .. C ... : ... .. . Z30 ...
ROW 37 : ... .. 8 ... ... : ... .. 8 ... ... : ... .. . ... : ... .. 0 ... : ... .. . Z30 ...
ROW 38 : ... .. 7 ... ... : ... .. 7 ... ... : ... .. . ... : ... .. . ... : ... .. . Z30 ...
ROW 39 : ... .. 6 ... ... : ... .. 6 ... ... : ... .. . ... : ... .. . ... : ... .. . Z30 ...
ROW 3A : ... .. 5 ... ... : ... .. 5 ... ... : ... .. . ... : ... .. . ... : ... .. . Z30 ...
ROW 3B : ... .. . ... ... : ... .. . ... ... : ... .. . ... : ... .. . ... : ... .. . Z30 ...
ROW 3C : ... .. 4 ... ... : ... .. 4 ... ... : ... .. . ... : B-# 00 0 V01 : ... .. . Z30 ...
ROW 3D : ... .. . ... ... : ... .. . ... ... : ... .. . ... : ... .. . ... : ... .. . Z30 ...
ROW 3E : ... .. 0 ... ... : ... .. 0 ... ... : --- .. . ... : ... .. . ... : ... .. . Z30 ...
ROW 3F : ... .. . ... ... : ... .. . ... ... : ... .. . ... : ... .. . ... : ... .. . Z30 ...
ROW 40 : ... .. . ... ... : ... .. . ... ... : ... .. . ... : ... .. . ... : ... .. . Z30 ...
ROW 41 : ... .. . ... ... : ... .. . ... ... : ... .. . ... : ... .. . ... : ... .. . Z30 ...
ROW 42 : ... .. . ... ... : ... .. . ... ... : ... .. . ... : C-# 00 C V00 : ... .. . Z30 ...
ROW 43 : ... .. . ... ... : ... .. . ... ... : ... .. . ... : ... .. 0 ... : ... .. . Z30 ...
ROW 44 : ... .. . ... ... : ... .. . ... ... : ... .. . ... : ... .. . ... : ... .. . Z30 ...
ROW 45 : ... .. . ... ... : ... .. . ... ... : ... .. . ... : ... .. . ... : ... .. . Z30 ...
ROW 46 : ... .. . ... ... : ... .. . ... ... : ... .. . ... : ... .. . ... : ... .. . Z30 ...
ROW 47 : ... .. . ... ... : ... .. . ... ... : ... .. . ... : ... .. . ... : ... .. . Z30 ...
ROW 48 : ... .. . ... ... : ... .. . ... ... : ... .. . ... : 3-# 00 C ... : ... .. . Z30 ...
ROW 49 : ... .. . ... ... : ... .. . ... ... : ... .. . ... : ... .. 0 ... : ... .. . Z30 ...
ROW 4A : ... .. . ... ... : ... .. . ... ... : ... .. . ... : ... .. . ... : ... .. . Z30 ...
ROW 4B : ... .. . ... ... : ... .. . ... ... : ... .. . ... : ... .. . ... : ... .. . Z30 ...
ROW 4C : ... .. . ... ... : ... .. . ... ... : ... .. . ... : ... .. . ... : ... .. . Z30 ...
ROW 4D : ... .. . ... ... : ... .. . ... ... : ... .. . ... : ... .. . ... : ... .. . Z30 ...
ROW 4E : ... .. . ... ... : ... .. . ... ... : ... .. . ... : ... .. . ... : ... .. . Z30 ...
ROW 4F : ... .. . ... ... : ... .. . ... ... : ... .. . ... : ... .. . ... : ... .. . Z30 ...
ROW 50 : ... .. . ... ... : ... .. . ... ... : ... .. . ... : ... .. . ... : ... .. . Z30 ...
ROW 51 : C-3 00 0 P80 ... : A-3 00 0 P7E ... : F-3 00 . P80 : ... .. . ... : ... .. . Z30 ...
ROW 52 : ... .. 8 ... ... : ... .. 8 ... ... : ... .. . ... : ... .. . ... : ... .. . Z30 ...
ROW 53 : ... .. 7 ... ... : ... .. 7 ... ... : ... .. . ... : ... .. . ... : ... .. . Z30 ...
ROW 54 : ... .. 6 ... ... : ... .. 6 ... ... : ... .. . ... : ... .. . ... : ... .. . Z30 ...
ROW 55 : ... .. 5 ... ... : ... .. 5 ... ... : ... .. . ... : ... .. . ... : ... .. . Z30 ...
ROW 56 : ... .. . ... ... : ... .. . ... ... : ... .. . ... : ... .. . ... : ... .. . Z30 ...
ROW 57 : ... .. 4 ... ... : ... .. 4 ... ... : ... .. . ... : ... .. . ... : ... .. . Z30 ...
ROW 58 : ... .. . ... ... : ... .. . ... ... : ... .. . ... : ... .. . ... : ... .. . Z30 ...
ROW 59 : ... .. 0 ... ... : ... .. 0 ... ... : --- .. . ... : ... .. . ... : ... .. . Z30 ...
ROW 5A : ... .. . ... ... : ... .. . ... ... : ... .. . ... : C-# 00 C ... : ... .. . Z30 ...
ROW 5B : ... .. . ... ... : ... .. . ... ... : ... .. . ... : ... .. 0 ... : ... .. . Z30 ...
ROW 5C : ... .. . ... ... : ... .. . ... ... : ... .. . ... : ... .. . ... : ... .. . Z30 ...
ROW 5D : ... .. . ... ... : ... .. . ... ... : ... .. . ... : ... .. . ... : ... .. . Z30 ...
ROW 5E : ... .. . ... ... : ... .. . ... ... : ... .. . ... : ... .. . ... : ... .. . Z30 ...
ROW 5F : ... .. . ... ... : ... .. . ... ... : ... .. . ... : ... .. . ... : ... .. . Z30 ...
ROW 60 : ... .. . ... ... : ... .. . ... ... : ... .. . ... : B-# 00 0 V01 : ... .. . Z30 ...
ROW 61 : ... .. . ... ... : ... .. . ... ... : ... .. . ... : ... .. . ... : ... .. . Z30 ...
ROW 62 : ... .. . ... ... : ... .. . ... ... : ... .. . ... : ... .. . ... : ... .. . Z30 ...
ROW 63 : D-3 00 0 P81 ... : B-3 00 0 P7E ... : G-3 00 . P80 : ... .. . ... : ... .. . Z30 ...
ROW 64 : ... .. 8 ... ... : ... .. 8 ... ... : ... .. . ... : ... .. . ... : ... .. . Z30 ...
ROW 65 : ... .. 7 ... ... : ... .. 7 ... ... : ... .. . ... : ... .. . ... : ... .. . Z30 ...
ROW 66 : ... .. 6 ... ... : ... .. 6 ... ... : ... .. . ... : C-# 00 C V00 : ... .. . Z30 ...
ROW 67 : ... .. 5 ... ... : ... .. 5 ... ... : ... .. . ... : ... .. 0 ... : ... .. . Z30 ...
ROW 68 : ... .. . ... ... : ... .. . ... ... : ... .. . ... : ... .. . ... : ... .. . Z30 ...
ROW 69 : ... .. 4 ... ... : ... .. 4 ... ... : ... .. . ... : ... .. . ... : ... .. . Z30 ...
ROW 6A : ... .. . ... ... : ... .. . ... ... : ... .. . ... : ... .. . ... : ... .. . Z30 ...
ROW 6B : ... .. 0 ... ... : ... .. 0 ... ... : --- .. . ... : ... .. . ... : ... .. . Z30 ...
ROW 6C : ... .. . ... ... : ... .. . ... ... : ... .. . ... : ... .. C ... : ... .. . Z30 ...
ROW 6D : ... .. . ... ... : ... .. . ... ... : ... .. . ... : ... .. . ... : ... .. . Z30 ...
ROW 6E : ... .. . ... ... : ... .. . ... ... : ... .. . ... : ... .. . ... : ... .. . Z30 ...
ROW 6F : ... .. . ... ... : ... .. . ... ... : ... .. . ... : ... .. . ... : ... .. . Z30 ...
ROW 70 : ... .. . ... ... : ... .. . ... ... : ... .. . ... : ... .. . ... : ... .. . Z30 ...
ROW 71 : ... .. . ... ... : ... .. . ... ... : ... .. . ... : ... .. 0 ... : ... .. . Z30 ...
ROW 72 : ... .. . ... ... : ... .. . ... ... : ... .. . ... : ... .. . ... : ... .. . Z30 ...
ROW 73 : ... .. . ... ... : ... .. . ... ... : ... .. . ... : ... .. . ... : ... .. . Z30 ...
ROW 74 : ... .. . ... ... : ... .. . ... ... : ... .. . ... : ... .. . ... : ... .. . Z30 ...
ROW 75 : C#3 00 0 P83 ... : A#3 00 0 P7C ... : F#3 00 . P7D : ... .. . ... : ... .. . Z30 ...
ROW 76 : ... .. 8 ... ... : ... .. 8 ... ... : ... .. . ... : ... .. . ... : ... .. . Z30 ...
ROW 77 : ... .. 7 ... ... : ... .. 7 ... ... : ... .. . ... : ... .. . ... : ... .. . Z30 ...
ROW 78 : ... .. 6 ... ... : ... .. 6 ... ... : ... .. . ... : ... .. . ... : ... .. . Z30 ...
ROW 79 : ... .. 5 ... ... : ... .. 5 ... ... : ... .. . ... : ... .. . ... : ... .. . Z30 ...
ROW 7A : ... .. . ... ... : ... .. . ... ... : ... .. . ... : ... .. . ... : ... .. . Z30 ...
ROW 7B : ... .. 4 ... ... : ... .. 4 ... ... : ... .. . ... : ... .. . ... : ... .. . Z30 ...
ROW 7C : ... .. . ... ... : ... .. . ... ... : ... .. . ... : ... .. . ... : ... .. . Z30 ...
ROW 7D : ... .. 0 ... ... : ... .. 0 ... ... : --- .. . ... : ... .. . ... : ... .. . Z30 ...
ROW 7E : C-3 00 0 P80 ... : A-3 00 0 P7E ... : F-3 00 . P80 : ... .. C ... : ... .. . Z30 ...
ROW 7F : ... .. 8 ... ... : ... .. 8 ... ... : ... .. . ... : ... .. 0 ... : ... .. . Z30 ...
ROW 80 : ... .. 7 ... ... : ... .. 7 ... ... : ... .. . ... : ... .. . ... : ... .. . Z30 ...
ROW 81 : ... .. 6 ... ... : ... .. 6 ... ... : ... .. . ... : ... .. . ... : ... .. . Z30 ...
ROW 82 : ... .. 5 ... ... : ... .. 5 ... ... : ... .. . ... : ... .. . ... : ... .. . Z30 ...
ROW 83 : ... .. . ... ... : ... .. . ... ... : ... .. . ... : ... .. . ... : ... .. . Z30 ...
ROW 84 : ... .. 4 ... ... : ... .. 4 ... ... : ... .. . ... : B-# 00 0 V01 : ... .. . Z30 ...
ROW 85 : ... .. . ... ... : ... .. . ... ... : ... .. . ... : ... .. . ... : ... .. . Z30 ...
ROW 86 : ... .. 0 ... ... : ... .. 0 ... ... : --- .. . ... : ... .. . ... : ... .. . Z30 ...
ROW 87 : ... .. . ... ... : ... .. . ... ... : ... .. . ... : ... .. . ... : ... .. . Z30 ...
ROW 88 : ... .. . ... ... : ... .. . ... ... : ... .. . ... : ... .. . ... : ... .. . Z30 ...
ROW 89 : ... .. . ... ... : ... .. . ... ... : ... .. . ... : ... .. . ... : ... .. . Z30 ...
ROW 8A : ... .. . ... ... : ... .. . ... ... : ... .. . ... : C-# 00 C V00 : ... .. . Z30 ...
ROW 8B : ... .. . ... ... : ... .. . ... ... : ... .. . ... : ... .. 0 ... : ... .. . Z30 ...
ROW 8C : ... .. . ... ... : ... .. . ... ... : ... .. . ... : ... .. . ... : ... .. . Z30 ...
ROW 8D : ... .. . ... ... : ... .. . ... ... : ... .. . ... : ... .. . ... : ... .. . Z30 ...
ROW 8E : ... .. . ... ... : ... .. . ... ... : ... .. . ... : ... .. . ... : ... .. . Z30 ...
ROW 8F : ... .. . ... ... : ... .. . ... ... : ... .. . ... : ... .. . ... : ... .. . Z30 ...

PATTERN 14
ROW 00 : ... .. . ... ... : G-3 00 0 P80 ... : E-3 00 . P7D : 3-# 00 C ... : ... .. . Z30 ...
ROW 01 : ... .. 8 ... ... : ... .. 8 ... ... : ... .. . ... : ... .. 0 ... : ... .. . Z30 ...
ROW 02 : ... .. 7 ... ... : ... .. 7 ... ... : ... .. . ... : ... .. . ... : ... .. . Z30 ...
ROW 03 : ... .. 6 ... ... : ... .. 6 ... ... : ... .. . ... : ... .. . ... : ... .. . Z30 ...
ROW 04 : ... .. 5 ... ... : ... .. 5 ... ... : ... .. . ... : ... .. . ... : ... .. . Z30 ...
ROW 05 : ... .. . ... ... : ... .. . ... ... : ... .. . ... : ... .. . ... : ... .. . Z30 ...
ROW 06 : ... .. 4 ... ... : ... .. 4 ... ... : ... .. . ... : ... .. . ... : ... .. . Z30 ...
ROW 07 : ... .. . ... ... : ... .. . ... ... : ... .. . ... : ... .. . ... : ... .. . Z30 ...
ROW 08 : ... .. 0 ... ... : ... .. 0 ... ... : --- .. . ... : ... .. . ... : ... .. . Z30 ...
ROW 09 : ... .. . ... ... : ... .. . ... ... : ... .. . ... : ... .. . ... : ... .. . Z30 ...
ROW 0A : ... .. . ... ... : ... .. . ... ... : ... .. . ... : ... .. . ... : ... .. . Z30 ...
ROW 0B : ... .. . ... ... : ... .. . ... ... : ... .. . ... : ... .. . ... : ... .. . Z30 ...
ROW 0C : G-3 00 0 P80 ... : E-4 00 0 P7F ... : C-4 00 . P80 : ... .. . ... : ... .. . Z30 ...
ROW 0D : ... .. 8 ... ... : ... .. 8 ... ... : ... .. . ... : ... .. . ... : ... .. . Z30 ...
ROW 0E : ... .. 7 ... ... : ... .. 7 ... ... : ... .. . ... : ... .. . ... : ... .. . Z30 ...
ROW 0F : ... .. 6 ... ... : ... .. 6 ... ... : ... .. . ... : ... .. . ... : ... .. . Z30 ...
ROW 10 : ... .. 5 ... ... : ... .. 5 ... ... : ... .. . ... : ... .. . ... : ... .. . Z30 ...
ROW 11 : ... .. . ... ... : ... .. . ... ... : ... .. . ... : ... .. . ... : ... .. . Z30 ...
ROW 12 : ... .. 4 ... ... : ... .. 4 ... ... : ... .. . ... : C-# 00 C ... : ... .. . Z30 ...
ROW 13 : ... .. . ... ... : ... .. . ... ... : ... .. . ... : ... .. 0 ... : ... .. . Z30 ...
ROW 14 : ... .. 0 ... ... : ... .. 0 ... ... : --- .. . ... : ... .. . ... : ... .. . Z30 ...
ROW 15 : ... .. . ... ... : ... .. . ... ... : ... .. . ... : ... .. . ... : ... .. . Z30 ...
ROW 16 : ... .. . ... ... : ... .. . ... ... : ... .. . ... : ... .. . ... : ... .. . Z30 ...
ROW 17 : ... .. . ... ... : ... .. . ... ... : ... .. . ... : ... .. . ... : ... .. . Z30 ...
ROW 18 : B-3 00 0 P7E ... : G-4 00 0 P80 ... : E-4 00 . P7F : B-# 00 0 V01 : ... .. . Z30 ...
ROW 19 : ... .. 8 ... ... : ... .. 8 ... ... : ... .. . ... : ... .. . ... : ... .. . Z30 ...
ROW 1A : ... .. 7 ... ... : ... .. 7 ... ... : ... .. . ... : ... .. . ... : ... .. . Z30 ...
ROW 1B : ... .. 6 ... ... : ... .. 6 ... ... : ... .. . ... : ... .. . ... : ... .. . Z30 ...
ROW 1C : ... .. 5 ... ... : ... .. 5 ... ... : ... .. . ... : ... .. . ... : ... .. . Z30 ...
ROW 1D : ... .. . ... ... : ... .. . ... ... : ... .. . ... : ... .. . ... : ... .. . Z30 ...
ROW 1E : ... .. 4 ... ... : ... .. 4 ... ... : ... .. . ... : C-# 00 C V00 : ... .. . Z30 ...
ROW 1F : ... .. . ... ... : ... .. . ... ... : ... .. . ... : ... .. 0 ... : ... .. . Z30 ...
ROW 20 : ... .. 0 ... ... : ... .. 0 ... ... : --- .. . ... : ... .. . ... : ... .. . Z30 ...
ROW 21 : ... .. . ... ... : ... .. . ... ... : ... .. . ... : ... .. . ... : ... .. . Z30 ...
ROW 22 : ... .. . ... ... : ... .. . ... ... : ... .. . ... : ... .. . ... : ... .. . Z30 ...
ROW 23 : ... .. . ... ... : ... .. . ... ... : ... .. . ... : ... .. . ... : ... .. . Z30 ...
ROW 24 : C-4 00 0 P80 ... : A-4 00 0 P7F ... : F-4 00 . P80 : ... .. C ... : ... .. . Z30 ...
ROW 25 : ... .. 8 ... ... : ... .. 8 ... ... : ... .. . ... : ... .. . ... : ... .. . Z30 ...
ROW 26 : ... .. 7 ... ... : ... .. 7 ... ... : ... .. . ... : ... .. . ... : ... .. . Z30 ...
ROW 27 : ... .. 6 ... ... : ... .. 6 ... ... : ... .. . ... : ... .. . ... : ... .. . Z30 ...
ROW 28 : ... .. 5 ... ... : ... .. 5 ... ... : ... .. . ... : ... .. . ... : ... .. . Z30 ...
ROW 29 : ... .. . ... ... : ... .. . ... ... : ... .. . ... : ... .. 0 ... : ... .. . Z30 ...
ROW 2A : ... .. 4 ... ... : ... .. 4 ... ... : ... .. . ... : ... .. . ... : ... .. . Z30 ...
ROW 2B : ... .. . ... ... : ... .. . ... ... : ... .. . ... : ... .. . ... : ... .. . Z30 ...
ROW 2C : ... .. 0 ... ... : ... .. 0 ... ... : --- .. . ... : ... .. . ... : ... .. . Z30 ...
ROW 2D : ... .. . ... ... : ... .. . ... ... : ... .. . ... : ... .. . ... : ... .. . Z30 ...
ROW 2E : ... .. . ... ... : ... .. . ... ... : ... .. . ... : ... .. . ... : ... .. . Z30 ...
ROW 2F : ... .. . ... ... : ... .. . ... ... : ... .. . ... : ... .. . ... : ... .. . Z30 ...
ROW 30 : ... .. . ... ... : ... .. . ... ... : ... .. . ... : ... .. . ... : ... .. . Z30 ...
ROW 31 : ... .. . ... ... : ... .. . ... ... : ... .. . ... : ... .. . ... : ... .. . Z30 ...
ROW 32 : ... .. . ... ... : ... .. . ... ... : ... .. . ... : ... .. . ... : ... .. . Z30 ...
ROW 33 : ... .. . ... ... : ... .. . ... ... : ... .. . ... : ... .. . ... : ... .. . Z30 ...
ROW 34 : ... .. . ... ... : ... .. . ... ... : ... .. . ... : ... .. . ... : ... .. . Z30 ...
ROW 35 : ... .. . ... ... : ... .. . ... ... : ... .. . ... : ... .. . ... : ... .. . Z30 ...
ROW 36 : A-3 00 0 P7E ... : F-4 00 0 P80 ... : D-4 00 . P80 : ... .. C ... : ... .. . Z30 ...
ROW 37 : ... .. 8 ... ... : ... .. 8 ... ... : ... .. . ... : ... .. 0 ... : ... .. . Z30 ...
ROW 38 : ... .. 7 ... ... : ... .. 7 ... ... : ... .. . ... : ... .. . ... : ... .. . Z30 ...
ROW 39 : ... .. 6 ... ... : ... .. 6 ... ... : ... .. . ... : ... .. . ... : ... .. . Z30 ...
ROW 3A : ... .. 5 ... ... : ... .. 5 ... ... : ... .. . ... : ... .. . ... : ... .. . Z30 ...
ROW 3B : ... .. . ... ... : ... .. . ... ... : ... .. . ... : ... .. . ... : ... .. . Z30 ...
ROW 3C : ... .. 4 ... ... : ... .. 4 ... ... : ... .. . ... : B-# 00 0 V01 : ... .. . Z30 ...
ROW 3D : ... .. . ... ... : ... .. . ... ... : ... .. . ... : ... .. . ... : ... .. . Z30 ...
ROW 3E : ... .. 0 ... ... : ... .. 0 ... ... : --- .. . ... : ... .. . ... : ... .. . Z30 ...
ROW 3F : B-3 00 0 P7E ... : G-4 00 0 P80 ... : E-4 00 . P7F : ... .. . ... : ... .. . Z30 ...
ROW 40 : ... .. 8 ... ... : ... .. 8 ... ... : ... .. . ... : ... .. . ... : ... .. . Z30 ...
ROW 41 : ... .. 7 ... ... : ... .. 7 ... ... : ... .. . ... : ... .. . ... : ... .. . Z30 ...
ROW 42 : ... .. 6 ... ... : ... .. 6 ... ... : ... .. . ... : C-# 00 C V00 : ... .. . Z30 ...
ROW 43 : ... .. 5 ... ... : ... .. 5 ... ... : ... .. . ... : ... .. 0 ... : ... .. . Z30 ...
ROW 44 : ... .. . ... ... : ... .. . ... ... : ... .. . ... : ... .. . ... : ... .. . Z30 ...
ROW 45 : ... .. 4 ... ... : ... .. 4 ... ... : ... .. . ... : ... .. . ... : ... .. . Z30 ...
ROW 46 : ... .. . ... ... : ... .. . ... ... : ... .. . ... : ... .. . ... : ... .. . Z30 ...
ROW 47 : ... .. 0 ... ... : ... .. 0 ... ... : --- .. . ... : ... .. . ... : ... .. . Z30 ...
ROW 48 : ... .. . ... ... : ... .. . ... ... : ... .. . ... : 3-# 00 C ... : ... .. . Z30 ...
ROW 49 : ... .. . ... ... : ... .. . ... ... : ... .. . ... : ... .. 0 ... : ... .. . Z30 ...
ROW 4A : ... .. . ... ... : ... .. . ... ... : ... .. . ... : ... .. . ... : ... .. . Z30 ...
ROW 4B : ... .. . ... ... : ... .. . ... ... : ... .. . ... : ... .. . ... : ... .. . Z30 ...
ROW 4C : ... .. . ... ... : ... .. . ... ... : ... .. . ... : ... .. . ... : ... .. . Z30 ...
ROW 4D : ... .. . ... ... : ... .. . ... ... : ... .. . ... : ... .. . ... : ... .. . Z30 ...
ROW 4E : ... .. . ... ... : ... .. . ... ... : ... .. . ... : ... .. . ... : ... .. . Z30 ...
ROW 4F : ... .. . ... ... : ... .. . ... ... : ... .. . ... : ... .. . ... : ... .. . Z30 ...
ROW 50 : ... .. . ... ... : ... .. . ... ... : ... .. . ... : ... .. . ... : ... .. . Z30 ...
ROW 51 : A-3 00 0 P7E ... : E-4 00 0 P7F ... : C-4 00 . P80 : ... .. . ... : ... .. . Z30 ...
ROW 52 : ... .. 8 ... ... : ... .. 8 ... ... : ... .. . ... : ... .. . ... : ... .. . Z30 ...
ROW 53 : ... .. 7 ... ... : ... .. 7 ... ... : ... .. . ... : ... .. . ... : ... .. . Z30 ...
ROW 54 : ... .. 6 ... ... : ... .. 6 ... ... : ... .. . ... : ... .. . ... : ... .. . Z30 ...
ROW 55 : ... .. 5 ... ... : ... .. 5 ... ... : ... .. . ... : ... .. . ... : ... .. . Z30 ...
ROW 56 : ... .. . ... ... : ... .. . ... ... : ... .. . ... : ... .. . ... : ... .. . Z30 ...
ROW 57 : ... .. 4 ... ... : ... .. 4 ... ... : ... .. . ... : ... .. . ... : ... .. . Z30 ...
ROW 58 : ... .. . ... ... : ... .. . ... ... : ... .. . ... : ... .. . ... : ... .. . Z30 ...
ROW 59 : ... .. 0 ... ... : ... .. 0 ... ... : --- .. . ... : ... .. . ... : ... .. . Z30 ...
ROW 5A : ... .. . ... ... : ... .. . ... ... : ... .. . ... : C-# 00 C ... : ... .. . Z30 ...
ROW 5B : ... .. . ... ... : ... .. . ... ... : ... .. . ... : ... .. 0 ... : ... .. . Z30 ...
ROW 5C : ... .. . ... ... : ... .. . ... ... : ... .. . ... : ... .. . ... : ... .. . Z30 ...
ROW 5D : ... .. . ... ... : ... .. . ... ... : ... .. . ... : ... .. . ... : ... .. . Z30 ...
ROW 5E : ... .. . ... ... : ... .. . ... ... : ... .. . ... : ... .. . ... : ... .. . Z30 ...
ROW 5F : ... .. . ... ... : ... .. . ... ... : ... .. . ... : ... .. . ... : ... .. . Z30 ...
ROW 60 : ... .. . ... ... : ... .. . ... ... : ... .. . ... : B-# 00 0 V01 : ... .. . Z30 ...
ROW 61 : ... .. . ... ... : ... .. . ... ... : ... .. . ... : ... .. . ... : ... .. . Z30 ...
ROW 62 : ... .. . ... ... : ... .. . ... ... : ... .. . ... : ... .. . ... : ... .. . Z30 ...
ROW 63 : E-3 00 0 P7D ... : C-4 00 0 P80 ... : A-3 00 . P7E : ... .. . ... : ... .. . Z30 ...
ROW 64 : ... .. 8 ... ... : ... .. 8 ... ... : ... .. . ... : ... .. . ... : ... .. . Z30 ...
ROW 65 : ... .. 7 ... ... : ... .. 7 ... ... : ... .. . ... : ... .. . ... : ... .. . Z30 ...
ROW 66 : ... .. 6 ... ... : ... .. 6 ... ... : ... .. . ... : C-# 00 C V00 : ... .. . Z30 ...
ROW 67 : ... .. 5 ... ... : ... .. 5 ... ... : ... .. . ... : ... .. 0 ... : ... .. . Z30 ...
ROW 68 : ... .. . ... ... : ... .. . ... ... : ... .. . ... : ... .. . ... : ... .. . Z30 ...
ROW 69 : ... .. 4 ... ... : ... .. 4 ... ... : ... .. . ... : ... .. . ... : ... .. . Z30 ...
ROW 6A : ... .. . ... ... : ... .. . ... ... : ... .. . ... : ... .. . ... : ... .. . Z30 ...
ROW 6B : ... .. 0 ... ... : ... .. 0 ... ... : --- .. . ... : ... .. . ... : ... .. . Z30 ...
ROW 6C : F-3 00 0 P80 ... : D-4 00 0 P80 ... : B-3 00 . P7E : ... .. C ... : ... .. . Z30 ...
ROW 6D : ... .. 8 ... ... : ... .. 8 ... ... : ... .. . ... : ... .. . ... : ... .. . Z30 ...
ROW 6E : ... .. 7 ... ... : ... .. 7 ... ... : ... .. . ... : ... .. . ... : ... .. . Z30 ...
ROW 6F : ... .. 6 ... ... : ... .. 6 ... ... : ... .. . ... : ... .. . ... : ... .. . Z30 ...
ROW 70 : ... .. 5 ... ... : ... .. 5 ... ... : ... .. . ... : ... .. . ... : ... .. . Z30 ...
ROW 71 : ... .. . ... ... : ... .. . ... ... : ... .. . ... : ... .. 0 ... : ... .. . Z30 ...
ROW 72 : ... .. 4 ... ... : ... .. 4 ... ... : ... .. . ... : ... .. . ... : ... .. . Z30 ...
ROW 73 : ... .. . ... ... : ... .. . ... ... : ... .. . ... : ... .. . ... : ... .. . Z30 ...
ROW 74 : ... .. 0 ... ... : ... .. 0 ... ... : --- .. . ... : ... .. . ... : ... .. . Z30 ...
ROW 75 : D-3 00 0 P81 ... : B-3 00 0 P7E ... : G-3 00 . P80 : ... .. . ... : ... .. . Z30 ...
ROW 76 : ... .. 8 ... ... : ... .. 8 ... ... : ... .. . ... : ... .. . ... : ... .. . Z30 ...
ROW 77 : ... .. 7 ... ... : ... .. 7 ... ... : ... .. . ... : ... .. . ... : ... .. . Z30 ...
ROW 78 : ... .. 6 ... ... : ... .. 6 ... ... : ... .. . ... : ... .. . ... : ... .. . Z30 ...
ROW 79 : ... .. 5 ... ... : ... .. 5 ... ... : ... .. . ... : ... .. . ... : ... .. . Z30 ...
ROW 7A : ... .. . ... ... : ... .. . ... ... : ... .. . ... : ... .. . ... : ... .. . Z30 ...
ROW 7B : ... .. 4 ... ... : ... .. 4 ... ... : ... .. . ... : ... .. . ... : ... .. . Z30 ...
ROW 7C : ... .. . ... ... : ... .. . ... ... : ... .. . ... : ... .. . ... : ... .. . Z30 ...
ROW 7D : ... .. 0 ... ... : ... .. 0 ... ... : --- .. . ... : ... .. . ... : ... .. . Z30 ...
ROW 7E : ... .. . ... ... : ... .. . ... ... : ... .. . ... : ... .. C ... : ... .. . Z30 ...
ROW 7F : ... .. . ... ... : ... .. . ... ... : ... .. . ... : ... .. 0 ... : ... .. . Z30 ...
ROW 80 : ... .. . ... ... : ... .. . ... ... : ... .. . ... : ... .. . ... : ... .. . Z30 ...
ROW 81 : ... .. . ... ... : ... .. . ... ... : ... .. . ... : ... .. . ... : ... .. . Z30 ...
ROW 82 : ... .. . ... ... : ... .. . ... ... : ... .. . ... : ... .. . ... : ... .. . Z30 ...
ROW 83 : ... .. . ... ... : ... .. . ... ... : ... .. . ... : ... .. . ... : ... .. . Z30 ...
ROW 84 : ... .. . ... ... : ... .. . ... ... : ... .. . ... : B-# 00 0 V01 : ... .. . Z30 ...
ROW 85 : ... .. . ... ... : ... .. . ... ... : ... .. . ... : ... .. . ... : ... .. . Z30 ...
ROW 86 : ... .. . ... ... : ... .. . ... ... : ... .. . ... : ... .. . ... : ... .. . Z30 ...
ROW 87 : ... .. . ... ... : ... .. . ... ... : ... .. . ... : ... .. . ... : ... .. . Z30 ...
ROW 88 : ... .. . ... ... : ... .. . ... ... : ... .. . ... : ... .. . ... : ... .. . Z30 ...
ROW 89 : ... .. . ... ... : ... .. . ... ... : ... .. . ... : ... .. . ... : ... .. . Z30 ...
ROW 8A : ... .. . ... ... : ... .. . ... ... : ... .. . ... : C-# 00 C V00 : ... .. . Z30 ...
ROW 8B : ... .. . ... ... : ... .. . ... ... : ... .. . ... : ... .. 0 ... : ... .. . Z30 ...
ROW 8C : ... .. . ... ... : ... .. . ... ... : ... .. . ... : ... .. . ... : ... .. . Z30 ...
ROW 8D : ... .. . ... ... : ... .. . ... ... : ... .. . ... : ... .. . ... : ... .. . Z30 ...
ROW 8E : ... .. . ... ... : ... .. . ... ... : ... .. . ... : ... .. . ... : ... .. . Z30 ...
ROW 8F : ... .. . ... ... : ... .. . ... ... : ... .. . ... : ... .. . ... : ... .. . Z30 ...

PATTERN 15
ROW 00 : C-4 00 0 P80 ... : E-4 00 0 P7F ... : C-3 00 . P80 : ... .. C ... : ... .. . Z30 ...
ROW 01 : ... .. 8 ... ... : ... .. 8 ... ... : ... .. . ... : ... .. 0 ... : ... .. . Z30 ...
ROW 02 : ... .. 7 ... ... : ... .. 7 ... ... : ... .. . ... : ... .. . ... : ... .. . Z30 ...
ROW 03 : ... .. 6 ... ... : ... .. 6 ... ... : ... .. . ... : ... .. . ... : ... .. . Z30 ...
ROW 04 : ... .. 5 ... ... : ... .. 5 ... ... : ... .. . ... : ... .. . ... : ... .. . Z30 ...
ROW 05 : ... .. . ... ... : ... .. . ... ... : ... .. . ... : ... .. . ... : ... .. . Z30 ...
ROW 06 : ... .. 4 ... ... : ... .. 4 ... ... : ... .. . ... : ... .. . ... : ... .. . Z30 ...
ROW 07 : ... .. . ... ... : ... .. . ... ... : ... .. . ... : ... .. . ... : ... .. . Z30 ...
ROW 08 : ... .. 0 ... ... : ... .. 0 ... ... : --- .. . ... : ... .. . ... : ... .. . Z30 ...
ROW 09 : A-3 00 0 P7E ... : C-4 00 0 P80 ... : ... .. . ... : ... .. . ... : ... .. . Z30 ...
ROW 0A : ... .. 8 ... ... : ... .. 8 ... ... : ... .. . ... : ... .. . ... : ... .. . Z30 ...
ROW 0B : ... .. 7 ... ... : ... .. 7 ... ... : ... .. . ... : ... .. . ... : ... .. . Z30 ...
ROW 0C : ... .. 6 ... ... : ... .. 6 ... ... : ... .. . ... : ... .. . ... : ... .. . Z30 ...
ROW 0D : ... .. 5 ... ... : ... .. 5 ... ... : ... .. . ... : ... .. . ... : ... .. . Z30 ...
ROW 0E : ... .. . ... ... : ... .. . ... ... : ... .. . ... : ... .. . ... : ... .. . Z30 ...
ROW 0F : ... .. 4 ... ... : ... .. 4 ... ... : ... .. . ... : ... .. . ... : ... .. . Z30 ...
ROW 10 : ... .. . ... ... : ... .. . ... ... : ... .. . ... : ... .. . ... : ... .. . Z30 ...
ROW 11 : ... .. 0 ... ... : ... .. 0 ... ... : ... .. . ... : ... .. . ... : ... .. . Z30 ...
ROW 12 : ... .. . ... ... : ... .. . ... ... : ... .. . ... : ... .. . ... : ... .. . Z30 ...
ROW 13 : ... .. . ... ... : ... .. . ... ... : ... .. . ... : ... .. . ... : ... .. . Z30 ...
ROW 14 : ... .. . ... ... : ... .. . ... ... : ... .. . ... : ... .. . ... : ... .. . Z30 ...
ROW 15 : ... .. . ... ... : ... .. . ... ... : ... .. . ... : ... .. . ... : ... .. . Z30 ...
ROW 16 : ... .. . ... ... : ... .. . ... ... : ... .. . ... : ... .. . ... : ... .. . Z30 ...
ROW 17 : ... .. . ... ... : ... .. . ... ... : ... .. . ... : ... .. . ... : ... .. . Z30 ...
ROW 18 : ... .. . ... ... : ... .. . ... ... : ... .. . ... : ... .. . ... : ... .. . Z30 ...
ROW 19 : ... .. . ... ... : ... .. . ... ... : ... .. . ... : ... .. . ... : ... .. . Z30 ...
ROW 1A : ... .. . ... ... : ... .. . ... ... : ... .. . ... : ... .. . ... : ... .. . Z30 ...
ROW 1B : E-3 00 0 P7D ... : G-3 00 0 P80 ... : F#3 00 . P7D : ... .. C ... : ... .. . Z30 ...
ROW 1C : ... .. 8 ... ... : ... .. 8 ... ... : ... .. . ... : ... .. 0 ... : ... .. . Z30 ...
ROW 1D : ... .. 7 ... ... : ... .. 7 ... ... : ... .. . ... : ... .. . ... : ... .. . Z30 ...
ROW 1E : ... .. 6 ... ... : ... .. 6 ... ... : ... .. . ... : ... .. . ... : ... .. . Z30 ...
ROW 1F : ... .. 5 ... ... : ... .. 5 ... ... : ... .. . ... : ... .. . ... : ... .. . Z30 ...
ROW 20 : ... .. . ... ... : ... .. . ... ... : ... .. . ... : ... .. . ... : ... .. . Z30 ...
ROW 21 : ... .. 4 ... ... : ... .. 4 ... ... : ... .. . ... : ... .. . ... : ... .. . Z30 ...
ROW 22 : ... .. . ... ... : ... .. . ... ... : ... .. . ... : ... .. . ... : ... .. . Z30 ...
ROW 23 : ... .. 0 ... ... : ... .. 0 ... ... : --- .. . ... : ... .. . ... : ... .. . Z30 ...
ROW 24 : ... .. . ... ... : ... .. . ... ... : G-3 00 . P80 : ... .. C ... : ... .. . Z30 ...
ROW 25 : ... .. . ... ... : ... .. . ... ... : ... .. . ... : ... .. . ... : ... .. . Z30 ...
ROW 26 : ... .. . ... ... : ... .. . ... ... : ... .. . ... : ... .. . ... : ... .. . Z30 ...
ROW 27 : ... .. . ... ... : ... .. . ... ... : ... .. . ... : ... .. . ... : ... .. . Z30 ...
ROW 28 : ... .. . ... ... : ... .. . ... ... : ... .. . ... : ... .. . ... : ... .. . Z30 ...
ROW 29 : ... .. . ... ... : ... .. . ... ... : ... .. . ... : ... .. 0 ... : ... .. . Z30 ...
ROW 2A : ... .. . ... ... : ... .. . ... ... : ... .. . ... : ... .. . ... : ... .. . Z30 ...
ROW 2B : ... .. . ... ... : ... .. . ... ... : ... .. . ... : ... .. . ... : ... .. . Z30 ...
ROW 2C : ... .. . ... ... : ... .. . ... ... : --- .. . ... : ... .. . ... : ... .. . Z30 ...
ROW 2D : ... .. . ... ... : ... .. . ... ... : ... .. . ... : ... .. . ... : ... .. . Z30 ...
ROW 2E : ... .. . ... ... : ... .. . ... ... : ... .. . ... : ... .. . ... : ... .. . Z30 ...
ROW 2F : ... .. . ... ... : ... .. . ... ... : ... .. . ... : ... .. . ... : ... .. . Z30 ...
ROW 30 : ... .. . ... ... : ... .. . ... ... : ... .. . ... : ... .. . ... : ... .. . Z30 ...
ROW 31 : ... .. . ... ... : ... .. . ... ... : ... .. . ... : ... .. . ... : ... .. . Z30 ...
ROW 32 : ... .. . ... ... : ... .. . ... ... : ... .. . ... : ... .. . ... : ... .. . Z30 ...
ROW 33 : ... .. . ... ... : ... .. . ... ... : ... .. . ... : ... .. . ... : ... .. . Z30 ...
ROW 34 : ... .. . ... ... : ... .. . ... ... : ... .. . ... : ... .. . ... : ... .. . Z30 ...
ROW 35 : ... .. . ... ... : ... .. . ... ... : ... .. . ... : ... .. . ... : ... .. . Z30 ...
ROW 36 : ... .. . ... ... : G#3 00 0 P82 ... : C-4 00 . P80 : ... .. C ... : ... .. . Z30 ...
ROW 37 : ... .. 8 ... ... : ... .. 8 ... ... : ... .. . ... : ... .. 0 ... : ... .. . Z30 ...
ROW 38 : ... .. 7 ... ... : ... .. 7 ... ... : ... .. . ... : ... .. . ... : ... .. . Z30 ...
ROW 39 : ... .. 6 ... ... : ... .. 6 ... ... : ... .. . ... : ... .. . ... : ... .. . Z30 ...
ROW 3A : ... .. 5 ... ... : ... .. 5 ... ... : ... .. . ... : ... .. . ... : ... .. . Z30 ...
ROW 3B : ... .. . ... ... : ... .. . ... ... : ... .. . ... : ... .. . ... : ... .. . Z30 ...
ROW 3C : ... .. 4 ... ... : ... .. 4 ... ... : ... .. . ... : ... .. . ... : ... .. . Z30 ...
ROW 3D : ... .. . ... ... : ... .. . ... ... : ... .. . ... : ... .. . ... : ... .. . Z30 ...
ROW 3E : ... .. 0 ... ... : ... .. 0 ... ... : --- .. . ... : ... .. . ... : ... .. . Z30 ...
ROW 3F : ... .. . ... ... : ... .. . ... ... : ... .. . ... : ... .. . ... : ... .. . Z30 ...
ROW 40 : ... .. . ... ... : ... .. . ... ... : ... .. . ... : ... .. . ... : ... .. . Z30 ...
ROW 41 : ... .. . ... ... : ... .. . ... ... : ... .. . ... : ... .. . ... : ... .. . Z30 ...
ROW 42 : ... .. . ... ... : ... .. . ... ... : ... .. . ... : ... .. . ... : ... .. . Z30 ...
ROW 43 : ... .. . ... ... : ... .. . ... ... : ... .. . ... : ... .. . ... : ... .. . Z30 ...
ROW 44 : ... .. . ... ... : ... .. . ... ... : ... .. . ... : ... .. . ... : ... .. . Z30 ...
ROW 45 : ... .. . ... ... : ... .. . ... ... : ... .. . ... : ... .. . ... : ... .. . Z30 ...
ROW 46 : ... .. . ... ... : ... .. . ... ... : ... .. . ... : ... .. . ... : ... .. . Z30 ...
ROW 47 : ... .. . ... ... : ... .. . ... ... : ... .. . ... : ... .. . ... : ... .. . Z30 ...
ROW 48 : F-3 00 0 P80 ... : A-3 00 0 P7E ... : F-3 00 . P80 : ... .. C ... : ... .. . Z30 ...
ROW 49 : ... .. 8 ... ... : ... .. 8 ... ... : ... .. . ... : ... .. 0 ... : ... .. . Z30 ...
ROW 4A : ... .. 7 ... ... : ... .. 7 ... ... : ... .. . ... : ... .. . ... : ... .. . Z30 ...
ROW 4B : ... .. 6 ... ... : ... .. 6 ... ... : ... .. . ... : ... .. . ... : ... .. . Z30 ...
ROW 4C : ... .. 5 ... ... : ... .. 5 ... ... : ... .. . ... : ... .. . ... : ... .. . Z30 ...
ROW 4D : ... .. . ... ... : ... .. . ... ... : ... .. . ... : ... .. . ... : ... .. . Z30 ...
ROW 4E : ... .. 4 ... ... : ... .. 4 ... ... : ... .. . ... : ... .. . ... : ... .. . Z30 ...
ROW 4F : ... .. . ... ... : ... .. . ... ... : ... .. . ... : ... .. . ... : ... .. . Z30 ...
ROW 50 : ... .. 0 ... ... : ... .. 0 ... ... : --- .. . ... : ... .. . ... : ... .. . Z30 ...
ROW 51 : C-4 00 0 P80 ... : F-4 00 0 P80 ... : ... .. . ... : ... .. . ... : ... .. . Z30 ...
ROW 52 : ... .. 8 ... ... : ... .. 8 ... ... : ... .. . ... : ... .. . ... : ... .. . Z30 ...
ROW 53 : ... .. 7 ... ... : ... .. 7 ... ... : ... .. . ... : ... .. . ... : ... .. . Z30 ...
ROW 54 : ... .. 6 ... ... : ... .. 6 ... ... : ... .. . ... : ... .. . ... : ... .. . Z30 ...
ROW 55 : ... .. 5 ... ... : ... .. 5 ... ... : ... .. . ... : ... .. . ... : ... .. . Z30 ...
ROW 56 : ... .. . ... ... : ... .. . ... ... : ... .. . ... : ... .. . ... : ... .. . Z30 ...
ROW 57 : ... .. 4 ... ... : ... .. 4 ... ... : ... .. . ... : ... .. . ... : ... .. . Z30 ...
ROW 58 : ... .. . ... ... : ... .. . ... ... : ... .. . ... : ... .. . ... : ... .. . Z30 ...
ROW 59 : ... .. 0 ... ... : ... .. 0 ... ... : ... .. . ... : ... .. . ... : ... .. . Z30 ...
ROW 5A : ... .. . ... ... : ... .. . ... ... : F-3 00 . P80 : ... .. . ... : ... .. . Z30 ...
ROW 5B : ... .. . ... ... : ... .. . ... ... : ... .. . ... : ... .. . ... : ... .. . Z30 ...
ROW 5C : ... .. . ... ... : ... .. . ... ... : ... .. . ... : ... .. . ... : ... .. . Z30 ...
ROW 5D : ... .. . ... ... : ... .. . ... ... : ... .. . ... : ... .. . ... : ... .. . Z30 ...
ROW 5E : ... .. . ... ... : ... .. . ... ... : ... .. . ... : ... .. . ... : ... .. . Z30 ...
ROW 5F : ... .. . ... ... : ... .. . ... ... : ... .. . ... : ... .. . ... : ... .. . Z30 ...
ROW 60 : ... .. . ... ... : ... .. . ... ... : ... .. . ... : ... .. . ... : ... .. . Z30 ...
ROW 61 : ... .. . ... ... : ... .. . ... ... : ... .. . ... : ... .. . ... : ... .. . Z30 ...
ROW 62 : ... .. . ... ... : ... .. . ... ... : --- .. . ... : ... .. . ... : ... .. . Z30 ...
ROW 63 : ... .. . ... ... : ... .. . ... ... : ... .. . ... : ... .. C ... : ... .. . Z30 ...
ROW 64 : ... .. 8 ... ... : ... .. 8 ... ... : ... .. . ... : ... .. 0 ... : ... .. . Z30 ...
ROW 65 : ... .. 7 ... ... : ... .. 7 ... ... : ... .. . ... : ... .. . ... : ... .. . Z30 ...
ROW 66 : ... .. 6 ... ... : ... .. 6 ... ... : ... .. . ... : ... .. . ... : ... .. . Z30 ...
ROW 67 : ... .. 5 ... ... : ... .. 5 ... ... : ... .. . ... : ... .. . ... : ... .. . Z30 ...
ROW 68 : ... .. . ... ... : ... .. . ... ... : ... .. . ... : ... .. . ... : ... .. . Z30 ...
ROW 69 : ... .. 4 ... ... : ... .. 4 ... ... : ... .. . ... : ... .. . ... : ... .. . Z30 ...
ROW 6A : ... .. . ... ... : ... .. . ... ... : ... .. . ... : ... .. . ... : ... .. . Z30 ...
ROW 6B : ... .. 0 ... ... : ... .. 0 ... ... : ... .. . ... : ... .. . ... : ... .. . Z30 ...
ROW 6C : F-3 00 0 P80 ... : A-3 00 0 P7E ... : C-4 00 . P80 : ... .. C ... : ... .. . Z30 ...
ROW 6D : ... .. 8 ... ... : ... .. 8 ... ... : ... .. . ... : ... .. . ... : ... .. . Z30 ...
ROW 6E : ... .. 7 ... ... : ... .. 7 ... ... : ... .. . ... : ... .. . ... : ... .. . Z30 ...
ROW 6F : ... .. 6 ... ... : ... .. 6 ... ... : ... .. . ... : ... .. . ... : ... .. . Z30 ...
ROW 70 : ... .. 5 ... ... : ... .. 5 ... ... : ... .. . ... : ... .. . ... : ... .. . Z30 ...
ROW 71 : ... .. . ... ... : ... .. . ... ... : ... .. . ... : ... .. 0 ... : ... .. . Z30 ...
ROW 72 : ... .. 4 ... ... : ... .. 4 ... ... : ... .. . ... : ... .. . ... : ... .. . Z30 ...
ROW 73 : ... .. . ... ... : ... .. . ... ... : ... .. . ... : ... .. . ... : ... .. . Z30 ...
ROW 74 : ... .. 0 ... ... : ... .. 0 ... ... : --- .. . ... : ... .. . ... : ... .. . Z30 ...
ROW 75 : ... .. . ... ... : ... .. . ... ... : C-4 00 . P80 : ... .. . ... : ... .. . Z30 ...
ROW 76 : ... .. . ... ... : ... .. . ... ... : ... .. . ... : ... .. . ... : ... .. . Z30 ...
ROW 77 : ... .. . ... ... : ... .. . ... ... : ... .. . ... : ... .. . ... : ... .. . Z30 ...
ROW 78 : ... .. . ... ... : ... .. . ... ... : ... .. . ... : ... .. . ... : ... .. . Z30 ...
ROW 79 : ... .. . ... ... : ... .. . ... ... : ... .. . ... : ... .. . ... : ... .. . Z30 ...
ROW 7A : ... .. . ... ... : ... .. . ... ... : ... .. . ... : ... .. . ... : ... .. . Z30 ...
ROW 7B : ... .. . ... ... : ... .. . ... ... : ... .. . ... : ... .. . ... : ... .. . Z30 ...
ROW 7C : ... .. . ... ... : ... .. . ... ... : ... .. . ... : ... .. . ... : ... .. . Z30 ...
ROW 7D : ... .. . ... ... : ... .. . ... ... : --- .. . ... : ... .. . ... : ... .. . Z30 ...
ROW 7E : ... .. . ... ... : ... .. . ... ... : F-3 00 . P80 : ... .. C ... : ... .. . Z30 ...
ROW 7F : ... .. . ... ... : ... .. . ... ... : ... .. . ... : ... .. 0 ... : ... .. . Z30 ...
ROW 80 : ... .. . ... ... : ... .. . ... ... : ... .. . ... : ... .. . ... : ... .. . Z30 ...
ROW 81 : ... .. . ... ... : ... .. . ... ... : ... .. . ... : ... .. . ... : ... .. . Z30 ...
ROW 82 : ... .. . ... ... : ... .. . ... ... : ... .. . ... : ... .. . ... : ... .. . Z30 ...
ROW 83 : ... .. . ... ... : ... .. . ... ... : ... .. . ... : ... .. . ... : ... .. . Z30 ...
ROW 84 : ... .. . ... ... : ... .. . ... ... : ... .. . ... : ... .. . ... : ... .. . Z30 ...
ROW 85 : ... .. . ... ... : ... .. . ... ... : ... .. . ... : ... .. . ... : ... .. . Z30 ...
ROW 86 : ... .. . ... ... : ... .. . ... ... : --- .. . ... : ... .. . ... : ... .. . Z30 ...
ROW 87 : ... .. . ... ... : ... .. . ... ... : ... .. . ... : ... .. . ... : ... .. . Z30 ...
ROW 88 : ... .. . ... ... : ... .. . ... ... : ... .. . ... : ... .. . ... : ... .. . Z30 ...
ROW 89 : ... .. . ... ... : ... .. . ... ... : ... .. . ... : ... .. . ... : ... .. . Z30 ...
ROW 8A : ... .. . ... ... : ... .. . ... ... : ... .. . ... : ... .. . ... : ... .. . Z30 ...
ROW 8B : ... .. . ... ... : ... .. . ... ... : ... .. . ... : ... .. . ... : ... .. . Z30 ...
ROW 8C : ... .. . ... ... : ... .. . ... ... : ... .. . ... : ... .. . ... : ... .. . Z30 ...
ROW 8D : ... .. . ... ... : ... .. . ... ... : ... .. . ... : ... .. . ... : ... .. . Z30 ...
ROW 8E : ... .. . ... ... : ... .. . ... ... : ... .. . ... : ... .. . ... : ... .. . Z30 ...
ROW 8F : ... .. . ... ... : ... .. . ... ... : ... .. . ... : ... .. . ... : ... .. . Z30 ...

PATTERN 16
ROW 00 : G-3 00 0 P80 ... : B-3 00 0 P7E ... : D-3 00 . P81 : ... .. C ... : ... .. . Z30 ...
ROW 01 : ... .. 8 ... ... : ... .. 8 ... ... : ... .. . ... : ... .. 0 ... : ... .. . Z30 ...
ROW 02 : ... .. 7 ... ... : ... .. 7 ... ... : ... .. . ... : ... .. . ... : ... .. . Z30 ...
ROW 03 : ... .. 6 ... ... : ... .. 6 ... ... : ... .. . ... : ... .. . ... : ... .. . Z30 ...
ROW 04 : ... .. 5 ... ... : ... .. 5 ... ... : ... .. . ... : ... .. . ... : ... .. . Z30 ...
ROW 05 : ... .. . ... ... : ... .. . ... ... : ... .. . ... : ... .. . ... : ... .. . Z30 ...
ROW 06 : ... .. 4 ... ... : ... .. 4 ... ... : ... .. . ... : ... .. . ... : ... .. . Z30 ...
ROW 07 : ... .. . ... ... : ... .. . ... ... : ... .. . ... : ... .. . ... : ... .. . Z30 ...
ROW 08 : ... .. 0 ... ... : ... .. 0 ... ... : --- .. . ... : ... .. . ... : ... .. . Z30 ...
ROW 09 : ... .. . ... ... : ... .. . ... ... : ... .. . ... : ... .. . ... : ... .. . Z30 ...
ROW 0A : ... .. . ... ... : ... .. . ... ... : ... .. . ... : ... .. . ... : ... .. . Z30 ...
ROW 0B : ... .. . ... ... : ... .. . ... ... : ... .. . ... : ... .. . ... : ... .. . Z30 ...
ROW 0C : F-4 00 0 P80 ... : A-4 00 0 P7F ... : ... .. . ... : ... .. . ... : ... .. . Z30 ...
ROW 0D : ... .. 8 ... ... : ... .. 8 ... ... : ... .. . ... : ... .. . ... : ... .. . Z30 ...
ROW 0E : ... .. 7 ... ... : ... .. 7 ... ... : ... .. . ... : ... .. . ... : ... .. . Z30 ...
ROW 0F : ... .. 6 ... ... : ... .. 6 ... ... : ... .. . ... : ... .. . ... : ... .. . Z30 ...
ROW 10 : ... .. 5 ... ... : ... .. 5 ... ... : ... .. . ... : ... .. . ... : ... .. . Z30 ...
ROW 11 : ... .. . ... ... : ... .. . ... ... : ... .. . ... : ... .. . ... : ... .. . Z30 ...
ROW 12 : ... .. 4 ... ... : ... .. 4 ... ... : ... .. . ... : ... .. . ... : ... .. . Z30 ...
ROW 13 : ... .. . ... ... : ... .. . ... ... : ... .. . ... : ... .. . ... : ... .. . Z30 ...
ROW 14 : ... .. 0 ... ... : ... .. 0 ... ... : ... .. . ... : ... .. . ... : ... .. . Z30 ...
ROW 15 : ... .. . ... ... : ... .. . ... ... : ... .. . ... : ... .. . ... : ... .. . Z30 ...
ROW 16 : ... .. . ... ... : ... .. . ... ... : ... .. . ... : ... .. . ... : ... .. . Z30 ...
ROW 17 : ... .. . ... ... : ... .. . ... ... : ... .. . ... : ... .. . ... : ... .. . Z30 ...
ROW 18 : ... .. . ... ... : ... .. . ... ... : ... .. . ... : ... .. . ... : ... .. . Z30 ...
ROW 19 : ... .. 8 ... ... : ... .. 8 ... ... : ... .. . ... : ... .. . ... : ... .. . Z30 ...
ROW 1A : ... .. 7 ... ... : ... .. 7 ... ... : ... .. . ... : ... .. . ... : ... .. . Z30 ...
ROW 1B : ... .. 6 ... ... : ... .. 6 ... ... : F-3 00 . P80 : ... .. C ... : ... .. . Z30 ...
ROW 1C : ... .. 5 ... ... : ... .. 5 ... ... : ... .. . ... : ... .. 0 ... : ... .. . Z30 ...
ROW 1D : ... .. . ... ... : ... .. . ... ... : ... .. . ... : ... .. . ... : ... .. . Z30 ...
ROW 1E : ... .. 4 ... ... : ... .. 4 ... ... : ... .. . ... : ... .. . ... : ... .. . Z30 ...
ROW 1F : ... .. . ... ... : ... .. . ... ... : ... .. . ... : ... .. . ... : ... .. . Z30 ...
ROW 20 : ... .. 0 ... ... : ... .. 0 ... ... : ... .. . ... : ... .. . ... : ... .. . Z30 ...
ROW 21 : ... .. . ... ... : ... .. . ... ... : ... .. . ... : ... .. . ... : ... .. . Z30 ...
ROW 22 : ... .. . ... ... : ... .. . ... ... : ... .. . ... : ... .. . ... : ... .. . Z30 ...
ROW 23 : ... .. . ... ... : ... .. . ... ... : --- .. . ... : ... .. . ... : ... .. . Z30 ...
ROW 24 : ... .. . ... ... : ... .. . ... ... : G-3 00 . P80 : ... .. C ... : ... .. . Z30 ...
ROW 25 : ... .. 8 ... ... : ... .. 8 ... ... : ... .. . ... : ... .. . ... : ... .. . Z30 ...
ROW 26 : ... .. 7 ... ... : ... .. 7 ... ... : ... .. . ... : ... .. . ... : ... .. . Z30 ...
ROW 27 : ... .. 6 ... ... : ... .. 6 ... ... : ... .. . ... : ... .. . ... : ... .. . Z30 ...
ROW 28 : ... .. 5 ... ... : ... .. 5 ... ... : ... .. . ... : ... .. . ... : ... .. . Z30 ...
ROW 29 : ... .. . ... ... : ... .. . ... ... : ... .. . ... : ... .. 0 ... : ... .. . Z30 ...
ROW 2A : ... .. 4 ... ... : ... .. 4 ... ... : ... .. . ... : ... .. . ... : ... .. . Z30 ...
ROW 2B : ... .. . ... ... : ... .. . ... ... : ... .. . ... : ... .. . ... : ... .. . Z30 ...
ROW 2C : ... .. 0 ... ... : ... .. 0 ... ... : --- .. . ... : ... .. . ... : ... .. . Z30 ...
ROW 2D : ... .. . ... ... : ... .. . ... ... : ... .. . ... : ... .. . ... : ... .. . Z30 ...
ROW 2E : ... .. . ... ... : ... .. . ... ... : ... .. . ... : ... .. . ... : ... .. . Z30 ...
ROW 2F : ... .. . ... ... : ... .. . ... ... : ... .. . ... : ... .. . ... : ... .. . Z30 ...
ROW 30 : E-4 00 0 P7F ... : G-4 00 0 P80 ... : ... .. . ... : ... .. . ... : ... .. . Z30 ...
ROW 31 : ... .. 8 ... ... : ... .. 8 ... ... : ... .. . ... : ... .. . ... : ... .. . Z30 ...
ROW 32 : ... .. 7 ... ... : ... .. 7 ... ... : ... .. . ... : ... .. . ... : ... .. . Z30 ...
ROW 33 : ... .. 6 ... ... : ... .. 6 ... ... : ... .. . ... : ... .. . ... : ... .. . Z30 ...
ROW 34 : ... .. 5 ... ... : ... .. 5 ... ... : ... .. . ... : ... .. . ... : ... .. . Z30 ...
ROW 35 : ... .. . ... ... : ... .. . ... ... : ... .. . ... : ... .. . ... : ... .. . Z30 ...
ROW 36 : ... .. 4 ... ... : ... .. 4 ... ... : B-3 00 . P7E : ... .. C ... : ... .. . Z30 ...
ROW 37 : ... .. . ... ... : ... .. . ... ... : ... .. . ... : ... .. 0 ... : ... .. . Z30 ...
ROW 38 : ... .. 0 ... ... : ... .. 0 ... ... : ... .. . ... : ... .. . ... : ... .. . Z30 ...
ROW 39 : ... .. . ... ... : ... .. . ... ... : ... .. . ... : ... .. . ... : ... .. . Z30 ...
ROW 3A : ... .. . ... ... : ... .. . ... ... : ... .. . ... : ... .. . ... : ... .. . Z30 ...
ROW 3B : ... .. . ... ... : ... .. . ... ... : ... .. . ... : ... .. . ... : ... .. . Z30 ...
ROW 3C : D-4 00 0 P80 ... : F-4 00 0 P80 ... : ... .. . ... : ... .. . ... : ... .. . Z30 ...
ROW 3D : ... .. 8 ... ... : ... .. 8 ... ... : ... .. . ... : ... .. . ... : ... .. . Z30 ...
ROW 3E : ... .. 7 ... ... : ... .. 7 ... ... : --- .. . ... : ... .. . ... : ... .. . Z30 ...
ROW 3F : ... .. 6 ... ... : ... .. 6 ... ... : ... .. . ... : ... .. . ... : ... .. . Z30 ...
ROW 40 : ... .. 5 ... ... : ... .. 5 ... ... : ... .. . ... : ... .. . ... : ... .. . Z30 ...
ROW 41 : ... .. . ... ... : ... .. . ... ... : ... .. . ... : ... .. . ... : ... .. . Z30 ...
ROW 42 : ... .. 4 ... ... : ... .. 4 ... ... : ... .. . ... : ... .. . ... : ... .. . Z30 ...
ROW 43 : ... .. . ... ... : ... .. . ... ... : ... .. . ... : ... .. . ... : ... .. . Z30 ...
ROW 44 : ... .. 0 ... ... : ... .. 0 ... ... : ... .. . ... : ... .. . ... : ... .. . Z30 ...
ROW 45 : ... .. . ... ... : ... .. . ... ... : ... .. . ... : ... .. . ... : ... .. . Z30 ...
ROW 46 : ... .. . ... ... : ... .. . ... ... : ... .. . ... : ... .. . ... : ... .. . Z30 ...
ROW 47 : ... .. . ... ... : ... .. . ... ... : ... .. . ... : ... .. . ... : ... .. . Z30 ...
ROW 48 : C-4 00 0 P80 ... : E-4 00 0 P7F ... : G-3 00 . P80 : ... .. C ... : ... .. . Z30 ...
ROW 49 : ... .. 8 ... ... : ... .. 8 ... ... : ... .. . ... : ... .. 0 ... : ... .. . Z30 ...
ROW 4A : ... .. 7 ... ... : ... .. 7 ... ... : ... .. . ... : ... .. . ... : ... .. . Z30 ...
ROW 4B : ... .. 6 ... ... : ... .. 6 ... ... : ... .. . ... : ... .. . ... : ... .. . Z30 ...
ROW 4C : ... .. 5 ... ... : ... .. 5 ... ... : ... .. . ... : ... .. . ... : ... .. . Z30 ...
ROW 4D : ... .. . ... ... : ... .. . ... ... : ... .. . ... : ... .. . ... : ... .. . Z30 ...
ROW 4E : ... .. 4 ... ... : ... .. 4 ... ... : ... .. . ... : ... .. . ... : ... .. . Z30 ...
ROW 4F : ... .. . ... ... : ... .. . ... ... : ... .. . ... : ... .. . ... : ... .. . Z30 ...
ROW 50 : ... .. 0 ... ... : ... .. 0 ... ... : --- .. . ... : ... .. . ... : ... .. . Z30 ...
ROW 51 : A-3 00 0 P7E ... : C-4 00 0 P80 ... : ... .. . ... : ... .. . ... : ... .. . Z30 ...
ROW 52 : ... .. 8 ... ... : ... .. 8 ... ... : ... .. . ... : ... .. . ... : ... .. . Z30 ...
ROW 53 : ... .. 7 ... ... : ... .. 7 ... ... : ... .. . ... : ... .. . ... : ... .. . Z30 ...
ROW 54 : ... .. 6 ... ... : ... .. 6 ... ... : ... .. . ... : ... .. . ... : ... .. . Z30 ...
ROW 55 : ... .. 5 ... ... : ... .. 5 ... ... : ... .. . ... : ... .. . ... : ... .. . Z30 ...
ROW 56 : ... .. . ... ... : ... .. . ... ... : ... .. . ... : ... .. . ... : ... .. . Z30 ...
ROW 57 : ... .. 4 ... ... : ... .. 4 ... ... : ... .. . ... : ... .. . ... : ... .. . Z30 ...
ROW 58 : ... .. . ... ... : ... .. . ... ... : ... .. . ... : ... .. . ... : ... .. . Z30 ...
ROW 59 : ... .. 0 ... ... : ... .. 0 ... ... : ... .. . ... : ... .. . ... : ... .. . Z30 ...
ROW 5A : ... .. . ... ... : ... .. . ... ... : G-3 00 . P80 : ... .. . ... : ... .. . Z30 ...
ROW 5B : ... .. . ... ... : ... .. . ... ... : ... .. . ... : ... .. . ... : ... .. . Z30 ...
ROW 5C : ... .. . ... ... : ... .. . ... ... : ... .. . ... : ... .. . ... : ... .. . Z30 ...
ROW 5D : ... .. . ... ... : ... .. . ... ... : ... .. . ... : ... .. . ... : ... .. . Z30 ...
ROW 5E : ... .. . ... ... : ... .. . ... ... : ... .. . ... : ... .. . ... : ... .. . Z30 ...
ROW 5F : ... .. . ... ... : ... .. . ... ... : ... .. . ... : ... .. . ... : ... .. . Z30 ...
ROW 60 : ... .. . ... ... : ... .. . ... ... : ... .. . ... : ... .. . ... : ... .. . Z30 ...
ROW 61 : ... .. . ... ... : ... .. . ... ... : ... .. . ... : ... .. . ... : ... .. . Z30 ...
ROW 62 : ... .. . ... ... : ... .. . ... ... : --- .. . ... : ... .. . ... : ... .. . Z30 ...
ROW 63 : F-3 00 0 P80 ... : A-3 00 0 P7E ... : ... .. . ... : ... .. C ... : ... .. . Z30 ...
ROW 64 : ... .. 8 ... ... : ... .. 8 ... ... : ... .. . ... : ... .. 0 ... : ... .. . Z30 ...
ROW 65 : ... .. 7 ... ... : ... .. 7 ... ... : ... .. . ... : ... .. . ... : ... .. . Z30 ...
ROW 66 : ... .. 6 ... ... : ... .. 6 ... ... : ... .. . ... : ... .. . ... : ... .. . Z30 ...
ROW 67 : ... .. 5 ... ... : ... .. 5 ... ... : ... .. . ... : ... .. . ... : ... .. . Z30 ...
ROW 68 : ... .. . ... ... : ... .. . ... ... : ... .. . ... : ... .. . ... : ... .. . Z30 ...
ROW 69 : ... .. 4 ... ... : ... .. 4 ... ... : ... .. . ... : ... .. . ... : ... .. . Z30 ...
ROW 6A : ... .. . ... ... : ... .. . ... ... : ... .. . ... : ... .. . ... : ... .. . Z30 ...
ROW 6B : ... .. 0 ... ... : ... .. 0 ... ... : ... .. . ... : ... .. . ... : ... .. . Z30 ...
ROW 6C : E-3 00 0 P7D ... : G-3 00 0 P80 ... : C-4 00 . P80 : ... .. C ... : ... .. . Z30 ...
ROW 6D : ... .. 8 ... ... : ... .. 8 ... ... : ... .. . ... : ... .. . ... : ... .. . Z30 ...
ROW 6E : ... .. 7 ... ... : ... .. 7 ... ... : ... .. . ... : ... .. . ... : ... .. . Z30 ...
ROW 6F : ... .. 6 ... ... : ... .. 6 ... ... : ... .. . ... : ... .. . ... : ... .. . Z30 ...
ROW 70 : ... .. 5 ... ... : ... .. 5 ... ... : ... .. . ... : ... .. . ... : ... .. . Z30 ...
ROW 71 : ... .. . ... ... : ... .. . ... ... : ... .. . ... : ... .. 0 ... : ... .. . Z30 ...
ROW 72 : ... .. 4 ... ... : ... .. 4 ... ... : ... .. . ... : ... .. . ... : ... .. . Z30 ...
ROW 73 : ... .. . ... ... : ... .. . ... ... : ... .. . ... : ... .. . ... : ... .. . Z30 ...
ROW 74 : ... .. 0 ... ... : ... .. 0 ... ... : --- .. . ... : ... .. . ... : ... .. . Z30 ...
ROW 75 : ... .. . ... ... : ... .. . ... ... : C-4 00 . P80 : ... .. . ... : ... .. . Z30 ...
ROW 76 : ... .. . ... ... : ... .. . ... ... : ... .. . ... : ... .. . ... : ... .. . Z30 ...
ROW 77 : ... .. . ... ... : ... .. . ... ... : ... .. . ... : ... .. . ... : ... .. . Z30 ...
ROW 78 : ... .. . ... ... : ... .. . ... ... : ... .. . ... : ... .. . ... : ... .. . Z30 ...
ROW 79 : ... .. . ... ... : ... .. . ... ... : ... .. . ... : ... .. . ... : ... .. . Z30 ...
ROW 7A : ... .. . ... ... : ... .. . ... ... : ... .. . ... : ... .. . ... : ... .. . Z30 ...
ROW 7B : ... .. . ... ... : ... .. . ... ... : ... .. . ... : ... .. . ... : ... .. . Z30 ...
ROW 7C : ... .. . ... ... : ... .. . ... ... : ... .. . ... : ... .. . ... : ... .. . Z30 ...
ROW 7D : ... .. . ... ... : ... .. . ... ... : --- .. . ... : ... .. . ... : ... .. . Z30 ...
ROW 7E : ... .. . ... ... : ... .. . ... ... : G-3 00 . P80 : ... .. C ... : ... .. . Z30 ...
ROW 7F : ... .. . ... ... : ... .. . ... ... : ... .. . ... : ... .. 0 ... : ... .. . Z30 ...
ROW 80 : ... .. . ... ... : ... .. . ... ... : ... .. . ... : ... .. . ... : ... .. . Z30 ...
ROW 81 : ... .. . ... ... : ... .. . ... ... : ... .. . ... : ... .. . ... : ... .. . Z30 ...
ROW 82 : ... .. . ... ... : ... .. . ... ... : ... .. . ... : ... .. . ... : ... .. . Z30 ...
ROW 83 : ... .. . ... ... : ... .. . ... ... : ... .. . ... : ... .. . ... : ... .. . Z30 ...
ROW 84 : ... .. . ... ... : ... .. . ... ... : ... .. . ... : ... .. . ... : ... .. . Z30 ...
ROW 85 : ... .. . ... ... : ... .. . ... ... : ... .. . ... : ... .. . ... : ... .. . Z30 ...
ROW 86 : ... .. . ... ... : ... .. . ... ... : --- .. . ... : ... .. . ... : ... .. . Z30 ...
ROW 87 : ... .. . ... ... : ... .. . ... ... : ... .. . ... : ... .. . ... : ... .. . Z30 ...
ROW 88 : ... .. . ... ... : ... .. . ... ... : ... .. . ... : ... .. . ... : ... .. . Z30 ...
ROW 89 : ... .. . ... ... : ... .. . ... ... : ... .. . ... : ... .. . ... : ... .. . Z30 ...
ROW 8A : ... .. . ... ... : ... .. . ... ... : ... .. . ... : ... .. . ... : ... .. . Z30 ...
ROW 8B : ... .. . ... ... : ... .. . ... ... : ... .. . ... : ... .. . ... : ... .. . Z30 ...
ROW 8C : ... .. . ... ... : ... .. . ... ... : ... .. . ... : ... .. . ... : ... .. . Z30 ...
ROW 8D : ... .. . ... ... : ... .. . ... ... : ... .. . ... : ... .. . ... : ... .. . Z30 ...
ROW 8E : ... .. . ... ... : ... .. . ... ... : ... .. . ... : ... .. . ... : ... .. . Z30 ...
ROW 8F : ... .. . ... ... : ... .. . ... ... : ... .. . ... : ... .. . ... : ... .. . Z30 ...

PATTERN 17
ROW 00 : C-4 00 0 P80 ... : E-4 00 0 P7F ... : C-3 00 . P80 : ... .. C ... : ... .. . Z30 ...
ROW 01 : ... .. 8 ... ... : ... .. 8 ... ... : ... .. . ... : ... .. 0 ... : ... .. . Z30 ...
ROW 02 : ... .. 7 ... ... : ... .. 7 ... ... : ... .. . ... : ... .. . ... : ... .. . Z30 ...
ROW 03 : ... .. 6 ... ... : ... .. 6 ... ... : ... .. . ... : ... .. . ... : ... .. . Z30 ...
ROW 04 : ... .. 5 ... ... : ... .. 5 ... ... : ... .. . ... : ... .. . ... : ... .. . Z30 ...
ROW 05 : ... .. . ... ... : ... .. . ... ... : ... .. . ... : ... .. . ... : ... .. . Z30 ...
ROW 06 : ... .. 4 ... ... : ... .. 4 ... ... : ... .. . ... : ... .. . ... : ... .. . Z30 ...
ROW 07 : ... .. . ... ... : ... .. . ... ... : ... .. . ... : ... .. . ... : ... .. . Z30 ...
ROW 08 : ... .. 0 ... ... : ... .. 0 ... ... : --- .. . ... : ... .. . ... : ... .. . Z30 ...
ROW 09 : A-3 00 0 P7E ... : C-4 00 0 P80 ... : ... .. . ... : ... .. . ... : ... .. . Z30 ...
ROW 0A : ... .. 8 ... ... : ... .. 8 ... ... : ... .. . ... : ... .. . ... : ... .. . Z30 ...
ROW 0B : ... .. 7 ... ... : ... .. 7 ... ... : ... .. . ... : ... .. . ... : ... .. . Z30 ...
ROW 0C : ... .. 6 ... ... : ... .. 6 ... ... : ... .. . ... : ... .. . ... : ... .. . Z30 ...
ROW 0D : ... .. 5 ... ... : ... .. 5 ... ... : ... .. . ... : ... .. . ... : ... .. . Z30 ...
ROW 0E : ... .. . ... ... : ... .. . ... ... : ... .. . ... : ... .. . ... : ... .. . Z30 ...
ROW 0F : ... .. 4 ... ... : ... .. 4 ... ... : ... .. . ... : ... .. . ... : ... .. . Z30 ...
ROW 10 : ... .. . ... ... : ... .. . ... ... : ... .. . ... : ... .. . ... : ... .. . Z30 ...
ROW 11 : ... .. 0 ... ... : ... .. 0 ... ... : ... .. . ... : ... .. . ... : ... .. . Z30 ...
ROW 12 : ... .. . ... ... : ... .. . ... ... : ... .. . ... : ... .. . ... : ... .. . Z30 ...
ROW 13 : ... .. . ... ... : ... .. . ... ... : ... .. . ... : ... .. . ... : ... .. . Z30 ...
ROW 14 : ... .. . ... ... : ... .. . ... ... : ... .. . ... : ... .. . ... : ... .. . Z30 ...
ROW 15 : ... .. . ... ... : ... .. . ... ... : ... .. . ... : ... .. . ... : ... .. . Z30 ...
ROW 16 : ... .. . ... ... : ... .. . ... ... : ... .. . ... : ... .. . ... : ... .. . Z30 ...
ROW 17 : ... .. . ... ... : ... .. . ... ... : ... .. . ... : ... .. . ... : ... .. . Z30 ...
ROW 18 : ... .. . ... ... : ... .. . ... ... : ... .. . ... : ... .. . ... : ... .. . Z30 ...
ROW 19 : ... .. . ... ... : ... .. . ... ... : ... .. . ... : ... .. . ... : ... .. . Z30 ...
ROW 1A : ... .. . ... ... : ... .. . ... ... : ... .. . ... : ... .. . ... : ... .. . Z30 ...
ROW 1B : E-3 00 0 P7D ... : G-3 00 0 P80 ... : F#3 00 . P7D : ... .. C ... : ... .. . Z30 ...
ROW 1C : ... .. 8 ... ... : ... .. 8 ... ... : ... .. . ... : ... .. 0 ... : ... .. . Z30 ...
ROW 1D : ... .. 7 ... ... : ... .. 7 ... ... : ... .. . ... : ... .. . ... : ... .. . Z30 ...
ROW 1E : ... .. 6 ... ... : ... .. 6 ... ... : ... .. . ... : ... .. . ... : ... .. . Z30 ...
ROW 1F : ... .. 5 ... ... : ... .. 5 ... ... : ... .. . ... : ... .. . ... : ... .. . Z30 ...
ROW 20 : ... .. . ... ... : ... .. . ... ... : ... .. . ... : ... .. . ... : ... .. . Z30 ...
ROW 21 : ... .. 4 ... ... : ... .. 4 ... ... : ... .. . ... : ... .. . ... : ... .. . Z30 ...
ROW 22 : ... .. . ... ... : ... .. . ... ... : ... .. . ... : ... .. . ... : ... .. . Z30 ...
ROW 23 : ... .. 0 ... ... : ... .. 0 ... ... : --- .. . ... : ... .. . ... : ... .. . Z30 ...
ROW 24 : ... .. . ... ... : ... .. . ... ... : G-3 00 . P80 : ... .. C ... : ... .. . Z30 ...
ROW 25 : ... .. . ... ... : ... .. . ... ... : ... .. . ... : ... .. . ... : ... .. . Z30 ...
ROW 26 : ... .. . ... ... : ... .. . ... ... : ... .. . ... : ... .. . ... : ... .. . Z30 ...
ROW 27 : ... .. . ... ... : ... .. . ... ... : ... .. . ... : ... .. . ... : ... .. . Z30 ...
ROW 28 : ... .. . ... ... : ... .. . ... ... : ... .. . ... : ... .. . ... : ... .. . Z30 ...
ROW 29 : ... .. . ... ... : ... .. . ... ... : ... .. . ... : ... .. 0 ... : ... .. . Z30 ...
ROW 2A : ... .. . ... ... : ... .. . ... ... : ... .. . ... : ... .. . ... : ... .. . Z30 ...
ROW 2B : ... .. . ... ... : ... .. . ... ... : ... .. . ... : ... .. . ... : ... .. . Z30 ...
ROW 2C : ... .. . ... ... : ... .. . ... ... : --- .. . ... : ... .. . ... : ... .. . Z30 ...
ROW 2D : ... .. . ... ... : ... .. . ... ... : ... .. . ... : ... .. . ... : ... .. . Z30 ...
ROW 2E : ... .. . ... ... : ... .. . ... ... : ... .. . ... : ... .. . ... : ... .. . Z30 ...
ROW 2F : ... .. . ... ... : ... .. . ... ... : ... .. . ... : ... .. . ... : ... .. . Z30 ...
ROW 30 : ... .. . ... ... : ... .. . ... ... : ... .. . ... : ... .. . ... : ... .. . Z30 ...
ROW 31 : ... .. . ... ... : ... .. . ... ... : ... .. . ... : ... .. . ... : ... .. . Z30 ...
ROW 32 : ... .. . ... ... : ... .. . ... ... : ... .. . ... : ... .. . ... : ... .. . Z30 ...
ROW 33 : ... .. . ... ... : ... .. . ... ... : ... .. . ... : ... .. . ... : ... .. . Z30 ...
ROW 34 : ... .. . ... ... : ... .. . ... ... : ... .. . ... : ... .. . ... : ... .. . Z30 ...
ROW 35 : ... .. . ... ... : ... .. . ... ... : ... .. . ... : ... .. . ... : ... .. . Z30 ...
ROW 36 : ... .. . ... ... : G#3 00 0 P82 ... : C-4 00 . P80 : ... .. C ... : ... .. . Z30 ...
ROW 37 : ... .. 8 ... ... : ... .. 8 ... ... : ... .. . ... : ... .. 0 ... : ... .. . Z30 ...
ROW 38 : ... .. 7 ... ... : ... .. 7 ... ... : ... .. . ... : ... .. . ... : ... .. . Z30 ...
ROW 39 : ... .. 6 ... ... : ... .. 6 ... ... : ... .. . ... : ... .. . ... : ... .. . Z30 ...
ROW 3A : ... .. 5 ... ... : ... .. 5 ... ... : ... .. . ... : ... .. . ... : ... .. . Z30 ...
ROW 3B : ... .. . ... ... : ... .. . ... ... : ... .. . ... : ... .. . ... : ... .. . Z30 ...
ROW 3C : ... .. 4 ... ... : ... .. 4 ... ... : ... .. . ... : ... .. . ... : ... .. . Z30 ...
ROW 3D : ... .. . ... ... : ... .. . ... ... : ... .. . ... : ... .. . ... : ... .. . Z30 ...
ROW 3E : ... .. 0 ... ... : ... .. 0 ... ... : --- .. . ... : ... .. . ... : ... .. . Z30 ...
ROW 3F : ... .. . ... ... : ... .. . ... ... : ... .. . ... : ... .. . ... : ... .. . Z30 ...
ROW 40 : ... .. . ... ... : ... .. . ... ... : ... .. . ... : ... .. . ... : ... .. . Z30 ...
ROW 41 : ... .. . ... ... : ... .. . ... ... : ... .. . ... : ... .. . ... : ... .. . Z30 ...
ROW 42 : ... .. . ... ... : ... .. . ... ... : ... .. . ... : ... .. . ... : ... .. . Z30 ...
ROW 43 : ... .. . ... ... : ... .. . ... ... : ... .. . ... : ... .. . ... : ... .. . Z30 ...
ROW 44 : ... .. . ... ... : ... .. . ... ... : ... .. . ... : ... .. . ... : ... .. . Z30 ...
ROW 45 : ... .. . ... ... : ... .. . ... ... : ... .. . ... : ... .. . ... : ... .. . Z30 ...
ROW 46 : ... .. . ... ... : ... .. . ... ... : ... .. . ... : ... .. . ... : ... .. . Z30 ...
ROW 47 : ... .. . ... ... : ... .. . ... ... : ... .. . ... : ... .. . ... : ... .. . Z30 ...
ROW 48 : F-3 00 0 P80 ... : A-3 00 0 P7E ... : F-3 00 . P80 : ... .. C ... : ... .. . Z30 ...
ROW 49 : ... .. 8 ... ... : ... .. 8 ... ... : ... .. . ... : ... .. 0 ... : ... .. . Z30 ...
ROW 4A : ... .. 7 ... ... : ... .. 7 ... ... : ... .. . ... : ... .. . ... : ... .. . Z30 ...
ROW 4B : ... .. 6 ... ... : ... .. 6 ... ... : ... .. . ... : ... .. . ... : ... .. . Z30 ...
ROW 4C : ... .. 5 ... ... : ... .. 5 ... ... : ... .. . ... : ... .. . ... : ... .. . Z30 ...
ROW 4D : ... .. . ... ... : ... .. . ... ... : ... .. . ... : ... .. . ... : ... .. . Z30 ...
ROW 4E : ... .. 4 ... ... : ... .. 4 ... ... : ... .. . ... : ... .. . ... : ... .. . Z30 ...
ROW 4F : ... .. . ... ... : ... .. . ... ... : ... .. . ... : ... .. . ... : ... .. . Z30 ...
ROW 50 : ... .. 0 ... ... : ... .. 0 ... ... : --- .. . ... : ... .. . ... : ... .. . Z30 ...
ROW 51 : C-4 00 0 P80 ... : F-4 00 0 P80 ... : ... .. . ... : ... .. . ... : ... .. . Z30 ...
ROW 52 : ... .. 8 ... ... : ... .. 8 ... ... : ... .. . ... : ... .. . ... : ... .. . Z30 ...
ROW 53 : ... .. 7 ... ... : ... .. 7 ... ... : ... .. . ... : ... .. . ... : ... .. . Z30 ...
ROW 54 : ... .. 6 ... ... : ... .. 6 ... ... : ... .. . ... : ... .. . ... : ... .. . Z30 ...
ROW 55 : ... .. 5 ... ... : ... .. 5 ... ... : ... .. . ... : ... .. . ... : ... .. . Z30 ...
ROW 56 : ... .. . ... ... : ... .. . ... ... : ... .. . ... : ... .. . ... : ... .. . Z30 ...
ROW 57 : ... .. 4 ... ... : ... .. 4 ... ... : ... .. . ... : ... .. . ... : ... .. . Z30 ...
ROW 58 : ... .. . ... ... : ... .. . ... ... : ... .. . ... : ... .. . ... : ... .. . Z30 ...
ROW 59 : ... .. 0 ... ... : ... .. 0 ... ... : ... .. . ... : ... .. . ... : ... .. . Z30 ...
ROW 5A : ... .. . ... ... : ... .. . ... ... : F-3 00 . P80 : ... .. . ... : ... .. . Z30 ...
ROW 5B : ... .. . ... ... : ... .. . ... ... : ... .. . ... : ... .. . ... : ... .. . Z30 ...
ROW 5C : ... .. . ... ... : ... .. . ... ... : ... .. . ... : ... .. . ... : ... .. . Z30 ...
ROW 5D : ... .. . ... ... : ... .. . ... ... : ... .. . ... : ... .. . ... : ... .. . Z30 ...
ROW 5E : ... .. . ... ... : ... .. . ... ... : ... .. . ... : ... .. . ... : ... .. . Z30 ...
ROW 5F : ... .. . ... ... : ... .. . ... ... : ... .. . ... : ... .. . ... : ... .. . Z30 ...
ROW 60 : ... .. . ... ... : ... .. . ... ... : ... .. . ... : ... .. . ... : ... .. . Z30 ...
ROW 61 : ... .. . ... ... : ... .. . ... ... : ... .. . ... : ... .. . ... : ... .. . Z30 ...
ROW 62 : ... .. . ... ... : ... .. . ... ... : --- .. . ... : ... .. . ... : ... .. . Z30 ...
ROW 63 : ... .. . ... ... : ... .. . ... ... : ... .. . ... : ... .. C ... : ... .. . Z30 ...
ROW 64 : ... .. 8 ... ... : ... .. 8 ... ... : ... .. . ... : ... .. 0 ... : ... .. . Z30 ...
ROW 65 : ... .. 7 ... ... : ... .. 7 ... ... : ... .. . ... : ... .. . ... : ... .. . Z30 ...
ROW 66 : ... .. 6 ... ... : ... .. 6 ... ... : ... .. . ... : ... .. . ... : ... .. . Z30 ...
ROW 67 : ... .. 5 ... ... : ... .. 5 ... ... : ... .. . ... : ... .. . ... : ... .. . Z30 ...
ROW 68 : ... .. . ... ... : ... .. . ... ... : ... .. . ... : ... .. . ... : ... .. . Z30 ...
ROW 69 : ... .. 4 ... ... : ... .. 4 ... ... : ... .. . ... : ... .. . ... : ... .. . Z30 ...
ROW 6A : ... .. . ... ... : ... .. . ... ... : ... .. . ... : ... .. . ... : ... .. . Z30 ...
ROW 6B : ... .. 0 ... ... : ... .. 0 ... ... : ... .. . ... : ... .. . ... : ... .. . Z30 ...
ROW 6C : F-3 00 0 P80 ... : A-3 00 0 P7E ... : C-4 00 . P80 : ... .. C ... : ... .. . Z30 ...
ROW 6D : ... .. 8 ... ... : ... .. 8 ... ... : ... .. . ... : ... .. . ... : ... .. . Z30 ...
ROW 6E : ... .. 7 ... ... : ... .. 7 ... ... : ... .. . ... : ... .. . ... : ... .. . Z30 ...
ROW 6F : ... .. 6 ... ... : ... .. 6 ... ... : ... .. . ... : ... .. . ... : ... .. . Z30 ...
ROW 70 : ... .. 5 ... ... : ... .. 5 ... ... : ... .. . ... : ... .. . ... : ... .. . Z30 ...
ROW 71 : ... .. . ... ... : ... .. . ... ... : ... .. . ... : ... .. 0 ... : ... .. . Z30 ...
ROW 72 : ... .. 4 ... ... : ... .. 4 ... ... : ... .. . ... : ... .. . ... : ... .. . Z30 ...
ROW 73 : ... .. . ... ... : ... .. . ... ... : ... .. . ... : ... .. . ... : ... .. . Z30 ...
ROW 74 : ... .. 0 ... ... : ... .. 0 ... ... : --- .. . ... : ... .. . ... : ... .. . Z30 ...
ROW 75 : ... .. . ... ... : ... .. . ... ... : C-4 00 . P80 : ... .. . ... : ... .. . Z30 ...
ROW 76 : ... .. . ... ... : ... .. . ... ... : ... .. . ... : ... .. . ... : ... .. . Z30 ...
ROW 77 : ... .. . ... ... : ... .. . ... ... : ... .. . ... : ... .. . ... : ... .. . Z30 ...
ROW 78 : ... .. . ... ... : ... .. . ... ... : ... .. . ... : ... .. . ... : ... .. . Z30 ...
ROW 79 : ... .. . ... ... : ... .. . ... ... : ... .. . ... : ... .. . ... : ... .. . Z30 ...
ROW 7A : ... .. . ... ... : ... .. . ... ... : ... .. . ... : ... .. . ... : ... .. . Z30 ...
ROW 7B : ... .. . ... ... : ... .. . ... ... : ... .. . ... : ... .. . ... : ... .. . Z30 ...
ROW 7C : ... .. . ... ... : ... .. . ... ... : ... .. . ... : ... .. . ... : ... .. . Z30 ...
ROW 7D : ... .. . ... ... : ... .. . ... ... : --- .. . ... : ... .. . ... : ... .. . Z30 ...
ROW 7E : ... .. . ... ... : ... .. . ... ... : F-3 00 . P80 : ... .. C ... : ... .. . Z30 ...
ROW 7F : ... .. . ... ... : ... .. . ... ... : ... .. . ... : ... .. 0 ... : ... .. . Z30 ...
ROW 80 : ... .. . ... ... : ... .. . ... ... : ... .. . ... : ... .. . ... : ... .. . Z30 ...
ROW 81 : ... .. . ... ... : ... .. . ... ... : ... .. . ... : ... .. . ... : ... .. . Z30 ...
ROW 82 : ... .. . ... ... : ... .. . ... ... : ... .. . ... : ... .. . ... : ... .. . Z30 ...
ROW 83 : ... .. . ... ... : ... .. . ... ... : ... .. . ... : ... .. . ... : ... .. . Z30 ...
ROW 84 : ... .. . ... ... : ... .. . ... ... : ... .. . ... : ... .. . ... : ... .. . Z30 ...
ROW 85 : ... .. . ... ... : ... .. . ... ... : ... .. . ... : ... .. . ... : ... .. . Z30 ...
ROW 86 : ... .. . ... ... : ... .. . ... ... : --- .. . ... : ... .. . ... : ... .. . Z30 ...
ROW 87 : ... .. . ... ... : ... .. . ... ... : ... .. . ... : ... .. . ... : ... .. . Z30 ...
ROW 88 : ... .. . ... ... : ... .. . ... ... : ... .. . ... : ... .. . ... : ... .. . Z30 ...
ROW 89 : ... .. . ... ... : ... .. . ... ... : ... .. . ... : ... .. . ... : ... .. . Z30 ...
ROW 8A : ... .. . ... ... : ... .. . ... ... : ... .. . ... : ... .. . ... : ... .. . Z30 ...
ROW 8B : ... .. . ... ... : ... .. . ... ... : ... .. . ... : ... .. . ... : ... .. . Z30 ...
ROW 8C : ... .. . ... ... : ... .. . ... ... : ... .. . ... : ... .. . ... : ... .. . Z30 ...
ROW 8D : ... .. . ... ... : ... .. . ... ... : ... .. . ... : ... .. . ... : ... .. . Z30 ...
ROW 8E : ... .. . ... ... : ... .. . ... ... : ... .. . ... : ... .. . ... : ... .. . Z30 ...
ROW 8F : ... .. . ... ... : ... .. . ... ... : ... .. . ... : ... .. . ... : ... .. . Z30 ...

PATTERN 18
ROW 00 : G-3 00 0 P80 ... : B-3 00 0 P7E ... : G-3 00 . P80 : ... .. C ... : ... .. . Z30 ...
ROW 01 : ... .. 8 ... ... : ... .. 8 ... ... : ... .. . ... : ... .. 0 ... : ... .. . Z30 ...
ROW 02 : ... .. 7 ... ... : ... .. 7 ... ... : ... .. . ... : ... .. . ... : ... .. . Z30 ...
ROW 03 : ... .. 6 ... ... : ... .. 6 ... ... : ... .. . ... : ... .. . ... : ... .. . Z30 ...
ROW 04 : ... .. 5 ... ... : ... .. 5 ... ... : ... .. . ... : ... .. . ... : ... .. . Z30 ...
ROW 05 : ... .. . ... ... : ... .. . ... ... : ... .. . ... : ... .. . ... : ... .. . Z30 ...
ROW 06 : ... .. 4 ... ... : ... .. 4 ... ... : ... .. . ... : ... .. . ... : ... .. . Z30 ...
ROW 07 : ... .. . ... ... : ... .. . ... ... : ... .. . ... : ... .. . ... : ... .. . Z30 ...
ROW 08 : ... .. 0 ... ... : ... .. 0 ... ... : --- .. . ... : ... .. . ... : ... .. . Z30 ...
ROW 09 : D-4 00 0 P80 ... : F-4 00 0 P80 ... : ... .. . ... : ... .. . ... : ... .. . Z30 ...
ROW 0A : ... .. 8 ... ... : ... .. 8 ... ... : ... .. . ... : ... .. . ... : ... .. . Z30 ...
ROW 0B : ... .. 7 ... ... : ... .. 7 ... ... : ... .. . ... : ... .. . ... : ... .. . Z30 ...
ROW 0C : ... .. 6 ... ... : ... .. 6 ... ... : ... .. . ... : ... .. . ... : ... .. . Z30 ...
ROW 0D : ... .. 5 ... ... : ... .. 5 ... ... : ... .. . ... : ... .. . ... : ... .. . Z30 ...
ROW 0E : ... .. . ... ... : ... .. . ... ... : ... .. . ... : ... .. . ... : ... .. . Z30 ...
ROW 0F : ... .. 4 ... ... : ... .. 4 ... ... : ... .. . ... : ... .. . ... : ... .. . Z30 ...
ROW 10 : ... .. . ... ... : ... .. . ... ... : ... .. . ... : ... .. . ... : ... .. . Z30 ...
ROW 11 : ... .. 0 ... ... : ... .. 0 ... ... : ... .. . ... : ... .. . ... : ... .. . Z30 ...
ROW 12 : ... .. . ... ... : ... .. . ... ... : ... .. . ... : ... .. . ... : ... .. . Z30 ...
ROW 13 : ... .. . ... ... : ... .. . ... ... : ... .. . ... : ... .. . ... : ... .. . Z30 ...
ROW 14 : ... .. . ... ... : ... .. . ... ... : ... .. . ... : ... .. . ... : ... .. . Z30 ...
ROW 15 : ... .. . ... ... : ... .. . ... ... : ... .. . ... : ... .. . ... : ... .. . Z30 ...
ROW 16 : ... .. . ... ... : ... .. . ... ... : ... .. . ... : ... .. . ... : ... .. . Z30 ...
ROW 17 : ... .. . ... ... : ... .. . ... ... : ... .. . ... : ... .. . ... : ... .. . Z30 ...
ROW 18 : ... .. . ... ... : ... .. . ... ... : ... .. . ... : ... .. . ... : ... .. . Z30 ...
ROW 19 : ... .. . ... ... : ... .. . ... ... : ... .. . ... : ... .. . ... : ... .. . Z30 ...
ROW 1A : ... .. . ... ... : ... .. . ... ... : ... .. . ... : ... .. . ... : ... .. . Z30 ...
ROW 1B : ... .. . ... ... : ... .. . ... ... : G-3 00 . P80 : ... .. C ... : ... .. . Z30 ...
ROW 1C : ... .. 8 ... ... : ... .. 8 ... ... : ... .. . ... : ... .. 0 ... : ... .. . Z30 ...
ROW 1D : ... .. 7 ... ... : ... .. 7 ... ... : ... .. . ... : ... .. . ... : ... .. . Z30 ...
ROW 1E : ... .. 6 ... ... : ... .. 6 ... ... : ... .. . ... : ... .. . ... : ... .. . Z30 ...
ROW 1F : ... .. 5 ... ... : ... .. 5 ... ... : ... .. . ... : ... .. . ... : ... .. . Z30 ...
ROW 20 : ... .. . ... ... : ... .. . ... ... : ... .. . ... : ... .. . ... : ... .. . Z30 ...
ROW 21 : ... .. 4 ... ... : ... .. 4 ... ... : ... .. . ... : ... .. . ... : ... .. . Z30 ...
ROW 22 : ... .. . ... ... : ... .. . ... ... : ... .. . ... : ... .. . ... : ... .. . Z30 ...
ROW 23 : ... .. 0 ... ... : ... .. 0 ... ... : --- .. . ... : ... .. . ... : ... .. . Z30 ...
ROW 24 : ... .. . ... ... : ... .. . ... ... : G-3 00 . P80 : ... .. C ... : ... .. . Z30 ...
ROW 25 : ... .. 8 ... ... : ... .. 8 ... ... : ... .. . ... : ... .. . ... : ... .. . Z30 ...
ROW 26 : ... .. 7 ... ... : ... .. 7 ... ... : ... .. . ... : ... .. . ... : ... .. . Z30 ...
ROW 27 : ... .. 6 ... ... : ... .. 6 ... ... : ... .. . ... : ... .. . ... : ... .. . Z30 ...
ROW 28 : ... .. 5 ... ... : ... .. 5 ... ... : ... .. . ... : ... .. . ... : ... .. . Z30 ...
ROW 29 : ... .. . ... ... : ... .. . ... ... : ... .. . ... : ... .. 0 ... : ... .. . Z30 ...
ROW 2A : ... .. 4 ... ... : ... .. 4 ... ... : ... .. . ... : ... .. . ... : ... .. . Z30 ...
ROW 2B : ... .. . ... ... : ... .. . ... ... : ... .. . ... : ... .. . ... : ... .. . Z30 ...
ROW 2C : ... .. 0 ... ... : ... .. 0 ... ... : --- .. . ... : ... .. . ... : ... .. . Z30 ...
ROW 2D : ... .. . ... ... : ... .. . ... ... : ... .. . ... : ... .. . ... : ... .. . Z30 ...
ROW 2E : ... .. . ... ... : ... .. . ... ... : ... .. . ... : ... .. . ... : ... .. . Z30 ...
ROW 2F : ... .. . ... ... : ... .. . ... ... : ... .. . ... : ... .. . ... : ... .. . Z30 ...
ROW 30 : C-4 00 0 P80 ... : E-4 00 0 P7F ... : A-3 00 . P7E : ... .. . ... : ... .. . Z30 ...
ROW 31 : ... .. 8 ... ... : ... .. 8 ... ... : ... .. . ... : ... .. . ... : ... .. . Z30 ...
ROW 32 : ... .. 7 ... ... : ... .. 7 ... ... : ... .. . ... : ... .. . ... : ... .. . Z30 ...
ROW 33 : ... .. 6 ... ... : ... .. 6 ... ... : ... .. . ... : ... .. . ... : ... .. . Z30 ...
ROW 34 : ... .. 5 ... ... : ... .. 5 ... ... : ... .. . ... : ... .. . ... : ... .. . Z30 ...
ROW 35 : ... .. . ... ... : ... .. . ... ... : ... .. . ... : ... .. . ... : ... .. . Z30 ...
ROW 36 : ... .. 4 ... ... : ... .. 4 ... ... : ... .. . ... : ... .. C ... : ... .. . Z30 ...
ROW 37 : ... .. . ... ... : ... .. . ... ... : ... .. . ... : ... .. 0 ... : ... .. . Z30 ...
ROW 38 : ... .. 0 ... ... : ... .. 0 ... ... : --- .. . ... : ... .. . ... : ... .. . Z30 ...
ROW 39 : ... .. . ... ... : ... .. . ... ... : ... .. . ... : ... .. . ... : ... .. . Z30 ...
ROW 3A : ... .. . ... ... : ... .. . ... ... : ... .. . ... : ... .. . ... : ... .. . Z30 ...
ROW 3B : ... .. . ... ... : ... .. . ... ... : ... .. . ... : ... .. . ... : ... .. . Z30 ...
ROW 3C : B-3 00 0 P7E ... : D-4 00 0 P80 ... : B-3 00 . P7E : ... .. . ... : ... .. . Z30 ...
ROW 3D : ... .. 8 ... ... : ... .. 8 ... ... : ... .. . ... : ... .. . ... : ... .. . Z30 ...
ROW 3E : ... .. 7 ... ... : ... .. 7 ... ... : ... .. . ... : ... .. . ... : ... .. . Z30 ...
ROW 3F : ... .. 6 ... ... : ... .. 6 ... ... : ... .. . ... : ... .. . ... : ... .. . Z30 ...
ROW 40 : ... .. 5 ... ... : ... .. 5 ... ... : ... .. . ... : ... .. . ... : ... .. . Z30 ...
ROW 41 : ... .. . ... ... : ... .. . ... ... : ... .. . ... : ... .. . ... : ... .. . Z30 ...
ROW 42 : ... .. 4 ... ... : ... .. 4 ... ... : ... .. . ... : ... .. . ... : ... .. . Z30 ...
ROW 43 : ... .. . ... ... : ... .. . ... ... : ... .. . ... : ... .. . ... : ... .. . Z30 ...
ROW 44 : ... .. 0 ... ... : ... .. 0 ... ... : --- .. . ... : ... .. . ... : ... .. . Z30 ...
ROW 45 : ... .. . ... ... : ... .. . ... ... : ... .. . ... : ... .. . ... : ... .. . Z30 ...
ROW 46 : ... .. . ... ... : ... .. . ... ... : ... .. . ... : ... .. . ... : ... .. . Z30 ...
ROW 47 : ... .. . ... ... : ... .. . ... ... : ... .. . ... : ... .. . ... : ... .. . Z30 ...
ROW 48 : G-3 00 0 P80 ... : C-4 00 0 P80 ... : C-4 00 . P80 : ... .. C ... : ... .. . Z30 ...
ROW 49 : ... .. 8 ... ... : ... .. 8 ... ... : ... .. . ... : ... .. 0 ... : ... .. . Z30 ...
ROW 4A : ... .. 7 ... ... : ... .. 7 ... ... : ... .. . ... : ... .. . ... : ... .. . Z30 ...
ROW 4B : ... .. 6 ... ... : ... .. 6 ... ... : ... .. . ... : ... .. . ... : ... .. . Z30 ...
ROW 4C : ... .. 5 ... ... : ... .. 5 ... ... : ... .. . ... : ... .. . ... : ... .. . Z30 ...
ROW 4D : ... .. . ... ... : ... .. . ... ... : ... .. . ... : ... .. . ... : ... .. . Z30 ...
ROW 4E : ... .. 4 ... ... : ... .. 4 ... ... : ... .. . ... : ... .. . ... : ... .. . Z30 ...
ROW 4F : ... .. . ... ... : ... .. . ... ... : ... .. . ... : ... .. . ... : ... .. . Z30 ...
ROW 50 : ... .. 0 ... ... : ... .. 0 ... ... : --- .. . ... : ... .. . ... : ... .. . Z30 ...
ROW 51 : E-3 00 0 P7D ... : ... .. . ... ... : ... .. . ... : ... .. . ... : ... .. . Z30 ...
ROW 52 : ... .. 8 ... ... : ... .. . ... ... : ... .. . ... : ... .. . ... : ... .. . Z30 ...
ROW 53 : ... .. 7 ... ... : ... .. . ... ... : ... .. . ... : ... .. . ... : ... .. . Z30 ...
ROW 54 : ... .. 6 ... ... : ... .. . ... ... : ... .. . ... : ... .. . ... : ... .. . Z30 ...
ROW 55 : ... .. 5 ... ... : ... .. . ... ... : ... .. . ... : ... .. . ... : ... .. . Z30 ...
ROW 56 : ... .. . ... ... : ... .. . ... ... : ... .. . ... : ... .. . ... : ... .. . Z30 ...
ROW 57 : ... .. 4 ... ... : ... .. . ... ... : ... .. . ... : ... .. . ... : ... .. . Z30 ...
ROW 58 : ... .. . ... ... : ... .. . ... ... : ... .. . ... : ... .. . ... : ... .. . Z30 ...
ROW 59 : ... .. 0 ... ... : ... .. . ... ... : ... .. . ... : ... .. . ... : ... .. . Z30 ...
ROW 5A : ... .. . ... ... : ... .. . ... ... : G-3 00 . P80 : ... .. . ... : ... .. . Z30 ...
ROW 5B : ... .. . ... ... : ... .. . ... ... : ... .. . ... : ... .. . ... : ... .. . Z30 ...
ROW 5C : ... .. . ... ... : ... .. . ... ... : ... .. . ... : ... .. . ... : ... .. . Z30 ...
ROW 5D : ... .. . ... ... : ... .. . ... ... : ... .. . ... : ... .. . ... : ... .. . Z30 ...
ROW 5E : ... .. . ... ... : ... .. . ... ... : ... .. . ... : ... .. . ... : ... .. . Z30 ...
ROW 5F : ... .. . ... ... : ... .. . ... ... : ... .. . ... : ... .. . ... : ... .. . Z30 ...
ROW 60 : ... .. . ... ... : ... .. . ... ... : ... .. . ... : ... .. . ... : ... .. . Z30 ...
ROW 61 : ... .. . ... ... : ... .. . ... ... : ... .. . ... : ... .. . ... : ... .. . Z30 ...
ROW 62 : ... .. . ... ... : ... .. . ... ... : --- .. . ... : ... .. . ... : ... .. . Z30 ...
ROW 63 : ... .. . ... ... : ... .. . ... ... : ... .. . ... : ... .. C ... : ... .. . Z30 ...
ROW 64 : ... .. 8 ... ... : ... .. . ... ... : ... .. . ... : ... .. 0 ... : ... .. . Z30 ...
ROW 65 : ... .. 7 ... ... : ... .. . ... ... : ... .. . ... : ... .. . ... : ... .. . Z30 ...
ROW 66 : ... .. 6 ... ... : ... .. . ... ... : ... .. . ... : ... .. . ... : ... .. . Z30 ...
ROW 67 : ... .. 5 ... ... : ... .. . ... ... : ... .. . ... : ... .. . ... : ... .. . Z30 ...
ROW 68 : ... .. . ... ... : ... .. . ... ... : ... .. . ... : ... .. . ... : ... .. . Z30 ...
ROW 69 : ... .. 4 ... ... : ... .. . ... ... : ... .. . ... : ... .. . ... : ... .. . Z30 ...
ROW 6A : ... .. . ... ... : ... .. . ... ... : ... .. . ... : ... .. . ... : ... .. . Z30 ...
ROW 6B : ... .. 0 ... ... : ... .. . ... ... : ... .. . ... : ... .. . ... : ... .. . Z30 ...
ROW 6C : C-3 00 0 P80 ... : ... .. . ... ... : C-3 00 . P80 : ... .. C ... : ... .. . Z30 ...
ROW 6D : ... .. 8 ... ... : ... .. . ... ... : ... .. . ... : ... .. . ... : ... .. . Z30 ...
ROW 6E : ... .. 7 ... ... : ... .. . ... ... : ... .. . ... : ... .. . ... : ... .. . Z30 ...
ROW 6F : ... .. 6 ... ... : ... .. . ... ... : ... .. . ... : ... .. . ... : ... .. . Z30 ...
ROW 70 : ... .. 5 ... ... : ... .. . ... ... : ... .. . ... : ... .. . ... : ... .. . Z30 ...
ROW 71 : ... .. . ... ... : ... .. . ... ... : ... .. . ... : ... .. 0 ... : ... .. . Z30 ...
ROW 72 : ... .. 4 ... ... : ... .. . ... ... : ... .. . ... : ... .. . ... : ... .. . Z30 ...
ROW 73 : ... .. . ... ... : ... .. . ... ... : ... .. . ... : ... .. . ... : ... .. . Z30 ...
ROW 74 : ... .. 0 ... ... : ... .. . ... ... : --- .. . ... : ... .. . ... : ... .. . Z30 ...
ROW 75 : ... .. . ... ... : ... .. . ... ... : ... .. . ... : ... .. . ... : ... .. . Z30 ...
ROW 76 : ... .. . ... ... : ... .. . ... ... : ... .. . ... : ... .. . ... : ... .. . Z30 ...
ROW 77 : ... .. . ... ... : ... .. . ... ... : ... .. . ... : ... .. . ... : ... .. . Z30 ...
ROW 78 : ... .. . ... ... : ... .. . ... ... : ... .. . ... : ... .. . ... : ... .. . Z30 ...
ROW 79 : ... .. . ... ... : ... .. . ... ... : ... .. . ... : ... .. . ... : ... .. . Z30 ...
ROW 7A : ... .. . ... ... : ... .. . ... ... : ... .. . ... : ... .. . ... : ... .. . Z30 ...
ROW 7B : ... .. . ... ... : ... .. . ... ... : ... .. . ... : ... .. . ... : ... .. . Z30 ...
ROW 7C : ... .. . ... ... : ... .. . ... ... : ... .. . ... : ... .. . ... : ... .. . Z30 ...
ROW 7D : ... .. . ... ... : ... .. . ... ... : ... .. . ... : ... .. . ... : ... .. . Z30 ...
ROW 7E : ... .. . ... ... : ... .. . ... ... : ... .. . ... : ... .. C ... : ... .. . Z30 ...
ROW 7F : ... .. . ... ... : ... .. . ... ... : ... .. . ... : ... .. 0 ... : ... .. . Z30 ...
ROW 80 : ... .. . ... ... : ... .. . ... ... : ... .. . ... : ... .. . ... : ... .. . Z30 ...
ROW 81 : ... .. . ... ... : ... .. . ... ... : ... .. . ... : ... .. . ... : ... .. . Z30 ...
ROW 82 : ... .. . ... ... : ... .. . ... ... : ... .. . ... : ... .. . ... : ... .. . Z30 ...
ROW 83 : ... .. . ... ... : ... .. . ... ... : ... .. . ... : ... .. . ... : ... .. . Z30 ...
ROW 84 : ... .. . ... ... : ... .. . ... ... : ... .. . ... : ... .. . ... : ... .. . Z30 ...
ROW 85 : ... .. . ... ... : ... .. . ... ... : ... .. . ... : ... .. . ... : ... .. . Z30 ...
ROW 86 : ... .. . ... ... : ... .. . ... ... : ... .. . ... : ... .. . ... : ... .. . Z30 ...
ROW 87 : ... .. . ... ... : ... .. . ... ... : ... .. . ... : ... .. . ... : ... .. . Z30 ...
ROW 88 : ... .. . ... ... : ... .. . ... ... : ... .. . ... : ... .. . ... : ... .. . Z30 ...
ROW 89 : ... .. . ... ... : ... .. . ... ... : ... .. . ... : ... .. . ... : ... .. . Z30 ...
ROW 8A : ... .. . ... ... : ... .. . ... ... : ... .. . ... : ... .. . ... : ... .. . Z30 ...
ROW 8B : ... .. . ... ... : ... .. . ... ... : ... .. . ... : ... .. . ... : ... .. . Z30 ...
ROW 8C : ... .. . ... ... : ... .. . ... ... : ... .. . ... : ... .. . ... : ... .. . Z30 ...
ROW 8D : ... .. . ... ... : ... .. . ... ... : ... .. . ... : ... .. . ... : ... .. . Z30 ...
ROW 8E : ... .. . ... ... : ... .. . ... ... : ... .. . ... : ... .. . ... : ... .. . Z30 ...
ROW 8F : ... .. . ... ... : ... .. . ... ... : ... .. . ... : ... .. . ... : ... .. . Z30 ...

PATTERN 19
ROW 00 : C-4 00 0 P80 ... : E-4 00 0 P7F ... : C-3 00 . P80 : ... .. C ... : ... .. . Z30 ...
ROW 01 : ... .. 8 ... ... : ... .. 8 ... ... : ... .. . ... : ... .. 0 ... : ... .. . Z30 ...
ROW 02 : ... .. 7 ... ... : ... .. 7 ... ... : ... .. . ... : ... .. . ... : ... .. . Z30 ...
ROW 03 : ... .. 6 ... ... : ... .. 6 ... ... : ... .. . ... : ... .. . ... : ... .. . Z30 ...
ROW 04 : ... .. 5 ... ... : ... .. 5 ... ... : ... .. . ... : ... .. . ... : ... .. . Z30 ...
ROW 05 : ... .. . ... ... : ... .. . ... ... : ... .. . ... : ... .. . ... : ... .. . Z30 ...
ROW 06 : ... .. 4 ... ... : ... .. 4 ... ... : ... .. . ... : ... .. . ... : ... .. . Z30 ...
ROW 07 : ... .. . ... ... : ... .. . ... ... : ... .. . ... : ... .. . ... : ... .. . Z30 ...
ROW 08 : ... .. 0 ... ... : ... .. 0 ... ... : --- .. . ... : ... .. . ... : ... .. . Z30 ...
ROW 09 : A-3 00 0 P7E ... : C-4 00 0 P80 ... : ... .. . ... : ... .. . ... : ... .. . Z30 ...
ROW 0A : ... .. 8 ... ... : ... .. 8 ... ... : ... .. . ... : ... .. . ... : ... .. . Z30 ...
ROW 0B : ... .. 7 ... ... : ... .. 7 ... ... : ... .. . ... : ... .. . ... : ... .. . Z30 ...
ROW 0C : ... .. 6 ... ... : ... .. 6 ... ... : ... .. . ... : ... .. . ... : ... .. . Z30 ...
ROW 0D : ... .. 5 ... ... : ... .. 5 ... ... : ... .. . ... : ... .. . ... : ... .. . Z30 ...
ROW 0E : ... .. . ... ... : ... .. . ... ... : ... .. . ... : ... .. . ... : ... .. . Z30 ...
ROW 0F : ... .. 4 ... ... : ... .. 4 ... ... : ... .. . ... : ... .. . ... : ... .. . Z30 ...
ROW 10 : ... .. . ... ... : ... .. . ... ... : ... .. . ... : ... .. . ... : ... .. . Z30 ...
ROW 11 : ... .. 0 ... ... : ... .. 0 ... ... : ... .. . ... : ... .. . ... : ... .. . Z30 ...
ROW 12 : ... .. . ... ... : ... .. . ... ... : ... .. . ... : ... .. . ... : ... .. . Z30 ...
ROW 13 : ... .. . ... ... : ... .. . ... ... : ... .. . ... : ... .. . ... : ... .. . Z30 ...
ROW 14 : ... .. . ... ... : ... .. . ... ... : ... .. . ... : ... .. . ... : ... .. . Z30 ...
ROW 15 : ... .. . ... ... : ... .. . ... ... : ... .. . ... : ... .. . ... : ... .. . Z30 ...
ROW 16 : ... .. . ... ... : ... .. . ... ... : ... .. . ... : ... .. . ... : ... .. . Z30 ...
ROW 17 : ... .. . ... ... : ... .. . ... ... : ... .. . ... : ... .. . ... : ... .. . Z30 ...
ROW 18 : ... .. . ... ... : ... .. . ... ... : ... .. . ... : ... .. . ... : ... .. . Z30 ...
ROW 19 : ... .. . ... ... : ... .. . ... ... : ... .. . ... : ... .. . ... : ... .. . Z30 ...
ROW 1A : ... .. . ... ... : ... .. . ... ... : ... .. . ... : ... .. . ... : ... .. . Z30 ...
ROW 1B : E-3 00 0 P7D ... : G-3 00 0 P80 ... : F#3 00 . P7D : ... .. C ... : ... .. . Z30 ...
ROW 1C : ... .. 8 ... ... : ... .. 8 ... ... : ... .. . ... : ... .. 0 ... : ... .. . Z30 ...
ROW 1D : ... .. 7 ... ... : ... .. 7 ... ... : ... .. . ... : ... .. . ... : ... .. . Z30 ...
ROW 1E : ... .. 6 ... ... : ... .. 6 ... ... : ... .. . ... : ... .. . ... : ... .. . Z30 ...
ROW 1F : ... .. 5 ... ... : ... .. 5 ... ... : ... .. . ... : ... .. . ... : ... .. . Z30 ...
ROW 20 : ... .. . ... ... : ... .. . ... ... : ... .. . ... : ... .. . ... : ... .. . Z30 ...
ROW 21 : ... .. 4 ... ... : ... .. 4 ... ... : ... .. . ... : ... .. . ... : ... .. . Z30 ...
ROW 22 : ... .. . ... ... : ... .. . ... ... : ... .. . ... : ... .. . ... : ... .. . Z30 ...
ROW 23 : ... .. 0 ... ... : ... .. 0 ... ... : --- .. . ... : ... .. . ... : ... .. . Z30 ...
ROW 24 : ... .. . ... ... : ... .. . ... ... : G-3 00 . P80 : ... .. C ... : ... .. . Z30 ...
ROW 25 : ... .. . ... ... : ... .. . ... ... : ... .. . ... : ... .. . ... : ... .. . Z30 ...
ROW 26 : ... .. . ... ... : ... .. . ... ... : ... .. . ... : ... .. . ... : ... .. . Z30 ...
ROW 27 : ... .. . ... ... : ... .. . ... ... : ... .. . ... : ... .. . ... : ... .. . Z30 ...
ROW 28 : ... .. . ... ... : ... .. . ... ... : ... .. . ... : ... .. . ... : ... .. . Z30 ...
ROW 29 : ... .. . ... ... : ... .. . ... ... : ... .. . ... : ... .. 0 ... : ... .. . Z30 ...
ROW 2A : ... .. . ... ... : ... .. . ... ... : ... .. . ... : ... .. . ... : ... .. . Z30 ...
ROW 2B : ... .. . ... ... : ... .. . ... ... : ... .. . ... : ... .. . ... : ... .. . Z30 ...
ROW 2C : ... .. . ... ... : ... .. . ... ... : --- .. . ... : ... .. . ... : ... .. . Z30 ...
ROW 2D : ... .. . ... ... : ... .. . ... ... : ... .. . ... : ... .. . ... : ... .. . Z30 ...
ROW 2E : ... .. . ... ... : ... .. . ... ... : ... .. . ... : ... .. . ... : ... .. . Z30 ...
ROW 2F : ... .. . ... ... : ... .. . ... ... : ... .. . ... : ... .. . ... : ... .. . Z30 ...
ROW 30 : ... .. . ... ... : ... .. . ... ... : ... .. . ... : ... .. . ... : ... .. . Z30 ...
ROW 31 : ... .. . ... ... : ... .. . ... ... : ... .. . ... : ... .. . ... : ... .. . Z30 ...
ROW 32 : ... .. . ... ... : ... .. . ... ... : ... .. . ... : ... .. . ... : ... .. . Z30 ...
ROW 33 : ... .. . ... ... : ... .. . ... ... : ... .. . ... : ... .. . ... : ... .. . Z30 ...
ROW 34 : ... .. . ... ... : ... .. . ... ... : ... .. . ... : ... .. . ... : ... .. . Z30 ...
ROW 35 : ... .. . ... ... : ... .. . ... ... : ... .. . ... : ... .. . ... : ... .. . Z30 ...
ROW 36 : ... .. . ... ... : G#3 00 0 P82 ... : C-4 00 . P80 : ... .. C ... : ... .. . Z30 ...
ROW 37 : ... .. 8 ... ... : ... .. 8 ... ... : ... .. . ... : ... .. 0 ... : ... .. . Z30 ...
ROW 38 : ... .. 7 ... ... : ... .. 7 ... ... : ... .. . ... : ... .. . ... : ... .. . Z30 ...
ROW 39 : ... .. 6 ... ... : ... .. 6 ... ... : ... .. . ... : ... .. . ... : ... .. . Z30 ...
ROW 3A : ... .. 5 ... ... : ... .. 5 ... ... : ... .. . ... : ... .. . ... : ... .. . Z30 ...
ROW 3B : ... .. . ... ... : ... .. . ... ... : ... .. . ... : ... .. . ... : ... .. . Z30 ...
ROW 3C : ... .. 4 ... ... : ... .. 4 ... ... : ... .. . ... : ... .. . ... : ... .. . Z30 ...
ROW 3D : ... .. . ... ... : ... .. . ... ... : ... .. . ... : ... .. . ... : ... .. . Z30 ...
ROW 3E : ... .. 0 ... ... : ... .. 0 ... ... : --- .. . ... : ... .. . ... : ... .. . Z30 ...
ROW 3F : ... .. . ... ... : ... .. . ... ... : ... .. . ... : ... .. . ... : ... .. . Z30 ...
ROW 40 : ... .. . ... ... : ... .. . ... ... : ... .. . ... : ... .. . ... : ... .. . Z30 ...
ROW 41 : ... .. . ... ... : ... .. . ... ... : ... .. . ... : ... .. . ... : ... .. . Z30 ...
ROW 42 : ... .. . ... ... : ... .. . ... ... : ... .. . ... : ... .. . ... : ... .. . Z30 ...
ROW 43 : ... .. . ... ... : ... .. . ... ... : ... .. . ... : ... .. . ... : ... .. . Z30 ...
ROW 44 : ... .. . ... ... : ... .. . ... ... : ... .. . ... : ... .. . ... : ... .. . Z30 ...
ROW 45 : ... .. . ... ... : ... .. . ... ... : ... .. . ... : ... .. . ... : ... .. . Z30 ...
ROW 46 : ... .. . ... ... : ... .. . ... ... : ... .. . ... : ... .. . ... : ... .. . Z30 ...
ROW 47 : ... .. . ... ... : ... .. . ... ... : ... .. . ... : ... .. . ... : ... .. . Z30 ...
ROW 48 : F-3 00 0 P80 ... : A-3 00 0 P7E ... : F-3 00 . P80 : ... .. C ... : ... .. . Z30 ...
ROW 49 : ... .. 8 ... ... : ... .. 8 ... ... : ... .. . ... : ... .. 0 ... : ... .. . Z30 ...
ROW 4A : ... .. 7 ... ... : ... .. 7 ... ... : ... .. . ... : ... .. . ... : ... .. . Z30 ...
ROW 4B : ... .. 6 ... ... : ... .. 6 ... ... : ... .. . ... : ... .. . ... : ... .. . Z30 ...
ROW 4C : ... .. 5 ... ... : ... .. 5 ... ... : ... .. . ... : ... .. . ... : ... .. . Z30 ...
ROW 4D : ... .. . ... ... : ... .. . ... ... : ... .. . ... : ... .. . ... : ... .. . Z30 ...
ROW 4E : ... .. 4 ... ... : ... .. 4 ... ... : ... .. . ... : ... .. . ... : ... .. . Z30 ...
ROW 4F : ... .. . ... ... : ... .. . ... ... : ... .. . ... : ... .. . ... : ... .. . Z30 ...
ROW 50 : ... .. 0 ... ... : ... .. 0 ... ... : --- .. . ... : ... .. . ... : ... .. . Z30 ...
ROW 51 : C-4 00 0 P80 ... : F-4 00 0 P80 ... : ... .. . ... : ... .. . ... : ... .. . Z30 ...
ROW 52 : ... .. 8 ... ... : ... .. 8 ... ... : ... .. . ... : ... .. . ... : ... .. . Z30 ...
ROW 53 : ... .. 7 ... ... : ... .. 7 ... ... : ... .. . ... : ... .. . ... : ... .. . Z30 ...
ROW 54 : ... .. 6 ... ... : ... .. 6 ... ... : ... .. . ... : ... .. . ... : ... .. . Z30 ...
ROW 55 : ... .. 5 ... ... : ... .. 5 ... ... : ... .. . ... : ... .. . ... : ... .. . Z30 ...
ROW 56 : ... .. . ... ... : ... .. . ... ... : ... .. . ... : ... .. . ... : ... .. . Z30 ...
ROW 57 : ... .. 4 ... ... : ... .. 4 ... ... : ... .. . ... : ... .. . ... : ... .. . Z30 ...
ROW 58 : ... .. . ... ... : ... .. . ... ... : ... .. . ... : ... .. . ... : ... .. . Z30 ...
ROW 59 : ... .. 0 ... ... : ... .. 0 ... ... : ... .. . ... : ... .. . ... : ... .. . Z30 ...
ROW 5A : ... .. . ... ... : ... .. . ... ... : F-3 00 . P80 : ... .. . ... : ... .. . Z30 ...
ROW 5B : ... .. . ... ... : ... .. . ... ... : ... .. . ... : ... .. . ... : ... .. . Z30 ...
ROW 5C : ... .. . ... ... : ... .. . ... ... : ... .. . ... : ... .. . ... : ... .. . Z30 ...
ROW 5D : ... .. . ... ... : ... .. . ... ... : ... .. . ... : ... .. . ... : ... .. . Z30 ...
ROW 5E : ... .. . ... ... : ... .. . ... ... : ... .. . ... : ... .. . ... : ... .. . Z30 ...
ROW 5F : ... .. . ... ... : ... .. . ... ... : ... .. . ... : ... .. . ... : ... .. . Z30 ...
ROW 60 : ... .. . ... ... : ... .. . ... ... : ... .. . ... : ... .. . ... : ... .. . Z30 ...
ROW 61 : ... .. . ... ... : ... .. . ... ... : ... .. . ... : ... .. . ... : ... .. . Z30 ...
ROW 62 : ... .. . ... ... : ... .. . ... ... : --- .. . ... : ... .. . ... : ... .. . Z30 ...
ROW 63 : ... .. . ... ... : ... .. . ... ... : ... .. . ... : ... .. C ... : ... .. . Z30 ...
ROW 64 : ... .. 8 ... ... : ... .. 8 ... ... : ... .. . ... : ... .. 0 ... : ... .. . Z30 ...
ROW 65 : ... .. 7 ... ... : ... .. 7 ... ... : ... .. . ... : ... .. . ... : ... .. . Z30 ...
ROW 66 : ... .. 6 ... ... : ... .. 6 ... ... : ... .. . ... : ... .. . ... : ... .. . Z30 ...
ROW 67 : ... .. 5 ... ... : ... .. 5 ... ... : ... .. . ... : ... .. . ... : ... .. . Z30 ...
ROW 68 : ... .. . ... ... : ... .. . ... ... : ... .. . ... : ... .. . ... : ... .. . Z30 ...
ROW 69 : ... .. 4 ... ... : ... .. 4 ... ... : ... .. . ... : ... .. . ... : ... .. . Z30 ...
ROW 6A : ... .. . ... ... : ... .. . ... ... : ... .. . ... : ... .. . ... : ... .. . Z30 ...
ROW 6B : ... .. 0 ... ... : ... .. 0 ... ... : ... .. . ... : ... .. . ... : ... .. . Z30 ...
ROW 6C : F-3 00 0 P80 ... : A-3 00 0 P7E ... : C-4 00 . P80 : ... .. C ... : ... .. . Z30 ...
ROW 6D : ... .. 8 ... ... : ... .. 8 ... ... : ... .. . ... : ... .. . ... : ... .. . Z30 ...
ROW 6E : ... .. 7 ... ... : ... .. 7 ... ... : ... .. . ... : ... .. . ... : ... .. . Z30 ...
ROW 6F : ... .. 6 ... ... : ... .. 6 ... ... : ... .. . ... : ... .. . ... : ... .. . Z30 ...
ROW 70 : ... .. 5 ... ... : ... .. 5 ... ... : ... .. . ... : ... .. . ... : ... .. . Z30 ...
ROW 71 : ... .. . ... ... : ... .. . ... ... : ... .. . ... : ... .. 0 ... : ... .. . Z30 ...
ROW 72 : ... .. 4 ... ... : ... .. 4 ... ... : ... .. . ... : ... .. . ... : ... .. . Z30 ...
ROW 73 : ... .. . ... ... : ... .. . ... ... : ... .. . ... : ... .. . ... : ... .. . Z30 ...
ROW 74 : ... .. 0 ... ... : ... .. 0 ... ... : --- .. . ... : ... .. . ... : ... .. . Z30 ...
ROW 75 : ... .. . ... ... : ... .. . ... ... : C-4 00 . P80 : ... .. . ... : ... .. . Z30 ...
ROW 76 : ... .. . ... ... : ... .. . ... ... : ... .. . ... : ... .. . ... : ... .. . Z30 ...
ROW 77 : ... .. . ... ... : ... .. . ... ... : ... .. . ... : ... .. . ... : ... .. . Z30 ...
ROW 78 : ... .. . ... ... : ... .. . ... ... : ... .. . ... : ... .. . ... : ... .. . Z30 ...
ROW 79 : ... .. . ... ... : ... .. . ... ... : ... .. . ... : ... .. . ... : ... .. . Z30 ...
ROW 7A : ... .. . ... ... : ... .. . ... ... : ... .. . ... : ... .. . ... : ... .. . Z30 ...
ROW 7B : ... .. . ... ... : ... .. . ... ... : ... .. . ... : ... .. . ... : ... .. . Z30 ...
ROW 7C : ... .. . ... ... : ... .. . ... ... : ... .. . ... : ... .. . ... : ... .. . Z30 ...
ROW 7D : ... .. . ... ... : ... .. . ... ... : --- .. . ... : ... .. . ... : ... .. . Z30 ...
ROW 7E : ... .. . ... ... : ... .. . ... ... : F-3 00 . P80 : ... .. C ... : ... .. . Z30 ...
ROW 7F : ... .. . ... ... : ... .. . ... ... : ... .. . ... : ... .. 0 ... : ... .. . Z30 ...
ROW 80 : ... .. . ... ... : ... .. . ... ... : ... .. . ... : ... .. . ... : ... .. . Z30 ...
ROW 81 : ... .. . ... ... : ... .. . ... ... : ... .. . ... : ... .. . ... : ... .. . Z30 ...
ROW 82 : ... .. . ... ... : ... .. . ... ... : ... .. . ... : ... .. . ... : ... .. . Z30 ...
ROW 83 : ... .. . ... ... : ... .. . ... ... : ... .. . ... : ... .. . ... : ... .. . Z30 ...
ROW 84 : ... .. . ... ... : ... .. . ... ... : ... .. . ... : ... .. . ... : ... .. . Z30 ...
ROW 85 : ... .. . ... ... : ... .. . ... ... : ... .. . ... : ... .. . ... : ... .. . Z30 ...
ROW 86 : ... .. . ... ... : ... .. . ... ... : --- .. . ... : ... .. . ... : ... .. . Z30 ...
ROW 87 : ... .. . ... ... : ... .. . ... ... : ... .. . ... : ... .. . ... : ... .. . Z30 ...
ROW 88 : ... .. . ... ... : ... .. . ... ... : ... .. . ... : ... .. . ... : ... .. . Z30 ...
ROW 89 : ... .. . ... ... : ... .. . ... ... : ... .. . ... : ... .. . ... : ... .. . Z30 ...
ROW 8A : ... .. . ... ... : ... .. . ... ... : ... .. . ... : ... .. . ... : ... .. . Z30 ...
ROW 8B : ... .. . ... ... : ... .. . ... ... : ... .. . ... : ... .. . ... : ... .. . Z30 ...
ROW 8C : ... .. . ... ... : ... .. . ... ... : ... .. . ... : ... .. . ... : ... .. . Z30 ...
ROW 8D : ... .. . ... ... : ... .. . ... ... : ... .. . ... : ... .. . ... : ... .. . Z30 ...
ROW 8E : ... .. . ... ... : ... .. . ... ... : ... .. . ... : ... .. . ... : ... .. . Z30 ...
ROW 8F : ... .. . ... ... : ... .. . ... ... : ... .. . ... : ... .. . ... : ... .. . Z30 ...

PATTERN 1A
ROW 00 : G-3 00 0 P80 ... : B-3 00 0 P7E ... : D-3 00 . P81 : ... .. C ... : ... .. . Z30 ...
ROW 01 : ... .. 8 ... ... : ... .. 8 ... ... : ... .. . ... : ... .. 0 ... : ... .. . Z30 ...
ROW 02 : ... .. 7 ... ... : ... .. 7 ... ... : ... .. . ... : ... .. . ... : ... .. . Z30 ...
ROW 03 : ... .. 6 ... ... : ... .. 6 ... ... : ... .. . ... : ... .. . ... : ... .. . Z30 ...
ROW 04 : ... .. 5 ... ... : ... .. 5 ... ... : ... .. . ... : ... .. . ... : ... .. . Z30 ...
ROW 05 : ... .. . ... ... : ... .. . ... ... : ... .. . ... : ... .. . ... : ... .. . Z30 ...
ROW 06 : ... .. 4 ... ... : ... .. 4 ... ... : ... .. . ... : ... .. . ... : ... .. . Z30 ...
ROW 07 : ... .. . ... ... : ... .. . ... ... : ... .. . ... : ... .. . ... : ... .. . Z30 ...
ROW 08 : ... .. 0 ... ... : ... .. 0 ... ... : --- .. . ... : ... .. . ... : ... .. . Z30 ...
ROW 09 : ... .. . ... ... : ... .. . ... ... : ... .. . ... : ... .. . ... : ... .. . Z30 ...
ROW 0A : ... .. . ... ... : ... .. . ... ... : ... .. . ... : ... .. . ... : ... .. . Z30 ...
ROW 0B : ... .. . ... ... : ... .. . ... ... : ... .. . ... : ... .. . ... : ... .. . Z30 ...
ROW 0C : F-4 00 0 P80 ... : A-4 00 0 P7F ... : ... .. . ... : ... .. . ... : ... .. . Z30 ...
ROW 0D : ... .. 8 ... ... : ... .. 8 ... ... : ... .. . ... : ... .. . ... : ... .. . Z30 ...
ROW 0E : ... .. 7 ... ... : ... .. 7 ... ... : ... .. . ... : ... .. . ... : ... .. . Z30 ...
ROW 0F : ... .. 6 ... ... : ... .. 6 ... ... : ... .. . ... : ... .. . ... : ... .. . Z30 ...
ROW 10 : ... .. 5 ... ... : ... .. 5 ... ... : ... .. . ... : ... .. . ... : ... .. . Z30 ...
ROW 11 : ... .. . ... ... : ... .. . ... ... : ... .. . ... : ... .. . ... : ... .. . Z30 ...
ROW 12 : ... .. 4 ... ... : ... .. 4 ... ... : ... .. . ... : ... .. . ... : ... .. . Z30 ...
ROW 13 : ... .. . ... ... : ... .. . ... ... : ... .. . ... : ... .. . ... : ... .. . Z30 ...
ROW 14 : ... .. 0 ... ... : ... .. 0 ... ... : ... .. . ... : ... .. . ... : ... .. . Z30 ...
ROW 15 : ... .. . ... ... : ... .. . ... ... : ... .. . ... : ... .. . ... : ... .. . Z30 ...
ROW 16 : ... .. . ... ... : ... .. . ... ... : ... .. . ... : ... .. . ... : ... .. . Z30 ...
ROW 17 : ... .. . ... ... : ... .. . ... ... : ... .. . ... : ... .. . ... : ... .. . Z30 ...
ROW 18 : ... .. . ... ... : ... .. . ... ... : ... .. . ... : ... .. . ... : ... .. . Z30 ...
ROW 19 : ... .. 8 ... ... : ... .. 8 ... ... : ... .. . ... : ... .. . ... : ... .. . Z30 ...
ROW 1A : ... .. 7 ... ... : ... .. 7 ... ... : ... .. . ... : ... .. . ... : ... .. . Z30 ...
ROW 1B : ... .. 6 ... ... : ... .. 6 ... ... : F-3 00 . P80 : ... .. C ... : ... .. . Z30 ...
ROW 1C : ... .. 5 ... ... : ... .. 5 ... ... : ... .. . ... : ... .. 0 ... : ... .. . Z30 ...
ROW 1D : ... .. . ... ... : ... .. . ... ... : ... .. . ... : ... .. . ... : ... .. . Z30 ...
ROW 1E : ... .. 4 ... ... : ... .. 4 ... ... : ... .. . ... : ... .. . ... : ... .. . Z30 ...
ROW 1F : ... .. . ... ... : ... .. . ... ... : ... .. . ... : ... .. . ... : ... .. . Z30 ...
ROW 20 : ... .. 0 ... ... : ... .. 0 ... ... : ... .. . ... : ... .. . ... : ... .. . Z30 ...
ROW 21 : ... .. . ... ... : ... .. . ... ... : ... .. . ... : ... .. . ... : ... .. . Z30 ...
ROW 22 : ... .. . ... ... : ... .. . ... ... : ... .. . ... : ... .. . ... : ... .. . Z30 ...
ROW 23 : ... .. . ... ... : ... .. . ... ... : --- .. . ... : ... .. . ... : ... .. . Z30 ...
ROW 24 : ... .. . ... ... : ... .. . ... ... : G-3 00 . P80 : ... .. C ... : ... .. . Z30 ...
ROW 25 : ... .. 8 ... ... : ... .. 8 ... ... : ... .. . ... : ... .. . ... : ... .. . Z30 ...
ROW 26 : ... .. 7 ... ... : ... .. 7 ... ... : ... .. . ... : ... .. . ... : ... .. . Z30 ...
ROW 27 : ... .. 6 ... ... : ... .. 6 ... ... : ... .. . ... : ... .. . ... : ... .. . Z30 ...
ROW 28 : ... .. 5 ... ... : ... .. 5 ... ... : ... .. . ... : ... .. . ... : ... .. . Z30 ...
ROW 29 : ... .. . ... ... : ... .. . ... ... : ... .. . ... : ... .. 0 ... : ... .. . Z30 ...
ROW 2A : ... .. 4 ... ... : ... .. 4 ... ... : ... .. . ... : ... .. . ... : ... .. . Z30 ...
ROW 2B : ... .. . ... ... : ... .. . ... ... : ... .. . ... : ... .. . ... : ... .. . Z30 ...
ROW 2C : ... .. 0 ... ... : ... .. 0 ... ... : --- .. . ... : ... .. . ... : ... .. . Z30 ...
ROW 2D : ... .. . ... ... : ... .. . ... ... : ... .. . ... : ... .. . ... : ... .. . Z30 ...
ROW 2E : ... .. . ... ... : ... .. . ... ... : ... .. . ... : ... .. . ... : ... .. . Z30 ...
ROW 2F : ... .. . ... ... : ... .. . ... ... : ... .. . ... : ... .. . ... : ... .. . Z30 ...
ROW 30 : E-4 00 0 P7F ... : G-4 00 0 P80 ... : ... .. . ... : ... .. . ... : ... .. . Z30 ...
ROW 31 : ... .. 8 ... ... : ... .. 8 ... ... : ... .. . ... : ... .. . ... : ... .. . Z30 ...
ROW 32 : ... .. 7 ... ... : ... .. 7 ... ... : ... .. . ... : ... .. . ... : ... .. . Z30 ...
ROW 33 : ... .. 6 ... ... : ... .. 6 ... ... : ... .. . ... : ... .. . ... : ... .. . Z30 ...
ROW 34 : ... .. 5 ... ... : ... .. 5 ... ... : ... .. . ... : ... .. . ... : ... .. . Z30 ...
ROW 35 : ... .. . ... ... : ... .. . ... ... : ... .. . ... : ... .. . ... : ... .. . Z30 ...
ROW 36 : ... .. 4 ... ... : ... .. 4 ... ... : B-3 00 . P7E : ... .. C ... : ... .. . Z30 ...
ROW 37 : ... .. . ... ... : ... .. . ... ... : ... .. . ... : ... .. 0 ... : ... .. . Z30 ...
ROW 38 : ... .. 0 ... ... : ... .. 0 ... ... : ... .. . ... : ... .. . ... : ... .. . Z30 ...
ROW 39 : ... .. . ... ... : ... .. . ... ... : ... .. . ... : ... .. . ... : ... .. . Z30 ...
ROW 3A : ... .. . ... ... : ... .. . ... ... : ... .. . ... : ... .. . ... : ... .. . Z30 ...
ROW 3B : ... .. . ... ... : ... .. . ... ... : ... .. . ... : ... .. . ... : ... .. . Z30 ...
ROW 3C : D-4 00 0 P80 ... : F-4 00 0 P80 ... : ... .. . ... : ... .. . ... : ... .. . Z30 ...
ROW 3D : ... .. 8 ... ... : ... .. 8 ... ... : ... .. . ... : ... .. . ... : ... .. . Z30 ...
ROW 3E : ... .. 7 ... ... : ... .. 7 ... ... : --- .. . ... : ... .. . ... : ... .. . Z30 ...
ROW 3F : ... .. 6 ... ... : ... .. 6 ... ... : ... .. . ... : ... .. . ... : ... .. . Z30 ...
ROW 40 : ... .. 5 ... ... : ... .. 5 ... ... : ... .. . ... : ... .. . ... : ... .. . Z30 ...
ROW 41 : ... .. . ... ... : ... .. . ... ... : ... .. . ... : ... .. . ... : ... .. . Z30 ...
ROW 42 : ... .. 4 ... ... : ... .. 4 ... ... : ... .. . ... : ... .. . ... : ... .. . Z30 ...
ROW 43 : ... .. . ... ... : ... .. . ... ... : ... .. . ... : ... .. . ... : ... .. . Z30 ...
ROW 44 : ... .. 0 ... ... : ... .. 0 ... ... : ... .. . ... : ... .. . ... : ... .. . Z30 ...
ROW 45 : ... .. . ... ... : ... .. . ... ... : ... .. . ... : ... .. . ... : ... .. . Z30 ...
ROW 46 : ... .. . ... ... : ... .. . ... ... : ... .. . ... : ... .. . ... : ... .. . Z30 ...
ROW 47 : ... .. . ... ... : ... .. . ... ... : ... .. . ... : ... .. . ... : ... .. . Z30 ...
ROW 48 : C-4 00 0 P80 ... : E-4 00 0 P7F ... : G-3 00 . P80 : ... .. C ... : ... .. . Z30 ...
ROW 49 : ... .. 8 ... ... : ... .. 8 ... ... : ... .. . ... : ... .. 0 ... : ... .. . Z30 ...
ROW 4A : ... .. 7 ... ... : ... .. 7 ... ... : ... .. . ... : ... .. . ... : ... .. . Z30 ...
ROW 4B : ... .. 6 ... ... : ... .. 6 ... ... : ... .. . ... : ... .. . ... : ... .. . Z30 ...
ROW 4C : ... .. 5 ... ... : ... .. 5 ... ... : ... .. . ... : ... .. . ... : ... .. . Z30 ...
ROW 4D : ... .. . ... ... : ... .. . ... ... : ... .. . ... : ... .. . ... : ... .. . Z30 ...
ROW 4E : ... .. 4 ... ... : ... .. 4 ... ... : ... .. . ... : ... .. . ... : ... .. . Z30 ...
ROW 4F : ... .. . ... ... : ... .. . ... ... : ... .. . ... : ... .. . ... : ... .. . Z30 ...
ROW 50 : ... .. 0 ... ... : ... .. 0 ... ... : --- .. . ... : ... .. . ... : ... .. . Z30 ...
ROW 51 : A-3 00 0 P7E ... : C-4 00 0 P80 ... : ... .. . ... : ... .. . ... : ... .. . Z30 ...
ROW 52 : ... .. 8 ... ... : ... .. 8 ... ... : ... .. . ... : ... .. . ... : ... .. . Z30 ...
ROW 53 : ... .. 7 ... ... : ... .. 7 ... ... : ... .. . ... : ... .. . ... : ... .. . Z30 ...
ROW 54 : ... .. 6 ... ... : ... .. 6 ... ... : ... .. . ... : ... .. . ... : ... .. . Z30 ...
ROW 55 : ... .. 5 ... ... : ... .. 5 ... ... : ... .. . ... : ... .. . ... : ... .. . Z30 ...
ROW 56 : ... .. . ... ... : ... .. . ... ... : ... .. . ... : ... .. . ... : ... .. . Z30 ...
ROW 57 : ... .. 4 ... ... : ... .. 4 ... ... : ... .. . ... : ... .. . ... : ... .. . Z30 ...
ROW 58 : ... .. . ... ... : ... .. . ... ... : ... .. . ... : ... .. . ... : ... .. . Z30 ...
ROW 59 : ... .. 0 ... ... : ... .. 0 ... ... : ... .. . ... : ... .. . ... : ... .. . Z30 ...
ROW 5A : ... .. . ... ... : ... .. . ... ... : G-3 00 . P80 : ... .. . ... : ... .. . Z30 ...
ROW 5B : ... .. . ... ... : ... .. . ... ... : ... .. . ... : ... .. . ... : ... .. . Z30 ...
ROW 5C : ... .. . ... ... : ... .. . ... ... : ... .. . ... : ... .. . ... : ... .. . Z30 ...
ROW 5D : ... .. . ... ... : ... .. . ... ... : ... .. . ... : ... .. . ... : ... .. . Z30 ...
ROW 5E : ... .. . ... ... : ... .. . ... ... : ... .. . ... : ... .. . ... : ... .. . Z30 ...
ROW 5F : ... .. . ... ... : ... .. . ... ... : ... .. . ... : ... .. . ... : ... .. . Z30 ...
ROW 60 : ... .. . ... ... : ... .. . ... ... : ... .. . ... : ... .. . ... : ... .. . Z30 ...
ROW 61 : ... .. . ... ... : ... .. . ... ... : ... .. . ... : ... .. . ... : ... .. . Z30 ...
ROW 62 : ... .. . ... ... : ... .. . ... ... : --- .. . ... : ... .. . ... : ... .. . Z30 ...
ROW 63 : F-3 00 0 P80 ... : A-3 00 0 P7E ... : ... .. . ... : ... .. C ... : ... .. . Z30 ...
ROW 64 : ... .. 8 ... ... : ... .. 8 ... ... : ... .. . ... : ... .. 0 ... : ... .. . Z30 ...
ROW 65 : ... .. 7 ... ... : ... .. 7 ... ... : ... .. . ... : ... .. . ... : ... .. . Z30 ...
ROW 66 : ... .. 6 ... ... : ... .. 6 ... ... : ... .. . ... : ... .. . ... : ... .. . Z30 ...
ROW 67 : ... .. 5 ... ... : ... .. 5 ... ... : ... .. . ... : ... .. . ... : ... .. . Z30 ...
ROW 68 : ... .. . ... ... : ... .. . ... ... : ... .. . ... : ... .. . ... : ... .. . Z30 ...
ROW 69 : ... .. 4 ... ... : ... .. 4 ... ... : ... .. . ... : ... .. . ... : ... .. . Z30 ...
ROW 6A : ... .. . ... ... : ... .. . ... ... : ... .. . ... : ... .. . ... : ... .. . Z30 ...
ROW 6B : ... .. 0 ... ... : ... .. 0 ... ... : ... .. . ... : ... .. . ... : ... .. . Z30 ...
ROW 6C : E-3 00 0 P7D ... : G-3 00 0 P80 ... : C-4 00 . P80 : ... .. C ... : ... .. . Z30 ...
ROW 6D : ... .. 8 ... ... : ... .. 8 ... ... : ... .. . ... : ... .. . ... : ... .. . Z30 ...
ROW 6E : ... .. 7 ... ... : ... .. 7 ... ... : ... .. . ... : ... .. . ... : ... .. . Z30 ...
ROW 6F : ... .. 6 ... ... : ... .. 6 ... ... : ... .. . ... : ... .. . ... : ... .. . Z30 ...
ROW 70 : ... .. 5 ... ... : ... .. 5 ... ... : ... .. . ... : ... .. . ... : ... .. . Z30 ...
ROW 71 : ... .. . ... ... : ... .. . ... ... : ... .. . ... : ... .. 0 ... : ... .. . Z30 ...
ROW 72 : ... .. 4 ... ... : ... .. 4 ... ... : ... .. . ... : ... .. . ... : ... .. . Z30 ...
ROW 73 : ... .. . ... ... : ... .. . ... ... : ... .. . ... : ... .. . ... : ... .. . Z30 ...
ROW 74 : ... .. 0 ... ... : ... .. 0 ... ... : --- .. . ... : ... .. . ... : ... .. . Z30 ...
ROW 75 : ... .. . ... ... : ... .. . ... ... : C-4 00 . P80 : ... .. . ... : ... .. . Z30 ...
ROW 76 : ... .. . ... ... : ... .. . ... ... : ... .. . ... : ... .. . ... : ... .. . Z30 ...
ROW 77 : ... .. . ... ... : ... .. . ... ... : ... .. . ... : ... .. . ... : ... .. . Z30 ...
ROW 78 : ... .. . ... ... : ... .. . ... ... : ... .. . ... : ... .. . ... : ... .. . Z30 ...
ROW 79 : ... .. . ... ... : ... .. . ... ... : ... .. . ... : ... .. . ... : ... .. . Z30 ...
ROW 7A : ... .. . ... ... : ... .. . ... ... : ... .. . ... : ... .. . ... : ... .. . Z30 ...
ROW 7B : ... .. . ... ... : ... .. . ... ... : ... .. . ... : ... .. . ... : ... .. . Z30 ...
ROW 7C : ... .. . ... ... : ... .. . ... ... : ... .. . ... : ... .. . ... : ... .. . Z30 ...
ROW 7D : ... .. . ... ... : ... .. . ... ... : --- .. . ... : ... .. . ... : ... .. . Z30 ...
ROW 7E : ... .. . ... ... : ... .. . ... ... : G-3 00 . P80 : ... .. C ... : ... .. . Z30 ...
ROW 7F : ... .. . ... ... : ... .. . ... ... : ... .. . ... : ... .. 0 ... : ... .. . Z30 ...
ROW 80 : ... .. . ... ... : ... .. . ... ... : ... .. . ... : ... .. . ... : ... .. . Z30 ...
ROW 81 : ... .. . ... ... : ... .. . ... ... : ... .. . ... : ... .. . ... : ... .. . Z30 ...
ROW 82 : ... .. . ... ... : ... .. . ... ... : ... .. . ... : ... .. . ... : ... .. . Z30 ...
ROW 83 : ... .. . ... ... : ... .. . ... ... : ... .. . ... : ... .. . ... : ... .. . Z30 ...
ROW 84 : ... .. . ... ... : ... .. . ... ... : ... .. . ... : ... .. . ... : ... .. . Z30 ...
ROW 85 : ... .. . ... ... : ... .. . ... ... : ... .. . ... : ... .. . ... : ... .. . Z30 ...
ROW 86 : ... .. . ... ... : ... .. . ... ... : --- .. . ... : ... .. . ... : ... .. . Z30 ...
ROW 87 : ... .. . ... ... : ... .. . ... ... : ... .. . ... : ... .. . ... : ... .. . Z30 ...
ROW 88 : ... .. . ... ... : ... .. . ... ... : ... .. . ... : ... .. . ... : ... .. . Z30 ...
ROW 89 : ... .. . ... ... : ... .. . ... ... : ... .. . ... : ... .. . ... : ... .. . Z30 ...
ROW 8A : ... .. . ... ... : ... .. . ... ... : ... .. . ... : ... .. . ... : ... .. . Z30 ...
ROW 8B : ... .. . ... ... : ... .. . ... ... : ... .. . ... : ... .. . ... : ... .. . Z30 ...
ROW 8C : ... .. . ... ... : ... .. . ... ... : ... .. . ... : ... .. . ... : ... .. . Z30 ...
ROW 8D : ... .. . ... ... : ... .. . ... ... : ... .. . ... : ... .. . ... : ... .. . Z30 ...
ROW 8E : ... .. . ... ... : ... .. . ... ... : ... .. . ... : ... .. . ... : ... .. . Z30 ...
ROW 8F : ... .. . ... ... : ... .. . ... ... : ... .. . ... : ... .. . ... : ... .. . Z30 ...

PATTERN 1B
ROW 00 : C-4 00 0 P80 ... : E-4 00 0 P7F ... : C-3 00 . P80 : ... .. C ... : ... .. . Z30 ...
ROW 01 : ... .. 8 ... ... : ... .. 8 ... ... : ... .. . ... : ... .. 0 ... : ... .. . Z30 ...
ROW 02 : ... .. 7 ... ... : ... .. 7 ... ... : ... .. . ... : ... .. . ... : ... .. . Z30 ...
ROW 03 : ... .. 6 ... ... : ... .. 6 ... ... : ... .. . ... : ... .. . ... : ... .. . Z30 ...
ROW 04 : ... .. 5 ... ... : ... .. 5 ... ... : ... .. . ... : ... .. . ... : ... .. . Z30 ...
ROW 05 : ... .. . ... ... : ... .. . ... ... : ... .. . ... : ... .. . ... : ... .. . Z30 ...
ROW 06 : ... .. 4 ... ... : ... .. 4 ... ... : ... .. . ... : ... .. . ... : ... .. . Z30 ...
ROW 07 : ... .. . ... ... : ... .. . ... ... : ... .. . ... : ... .. . ... : ... .. . Z30 ...
ROW 08 : ... .. 0 ... ... : ... .. 0 ... ... : --- .. . ... : ... .. . ... : ... .. . Z30 ...
ROW 09 : A-3 00 0 P7E ... : C-4 00 0 P80 ... : ... .. . ... : ... .. . ... : ... .. . Z30 ...
ROW 0A : ... .. 8 ... ... : ... .. 8 ... ... : ... .. . ... : ... .. . ... : ... .. . Z30 ...
ROW 0B : ... .. 7 ... ... : ... .. 7 ... ... : ... .. . ... : ... .. . ... : ... .. . Z30 ...
ROW 0C : ... .. 6 ... ... : ... .. 6 ... ... : ... .. . ... : ... .. . ... : ... .. . Z30 ...
ROW 0D : ... .. 5 ... ... : ... .. 5 ... ... : ... .. . ... : ... .. . ... : ... .. . Z30 ...
ROW 0E : ... .. . ... ... : ... .. . ... ... : ... .. . ... : ... .. . ... : ... .. . Z30 ...
ROW 0F : ... .. 4 ... ... : ... .. 4 ... ... : ... .. . ... : ... .. . ... : ... .. . Z30 ...
ROW 10 : ... .. . ... ... : ... .. . ... ... : ... .. . ... : ... .. . ... : ... .. . Z30 ...
ROW 11 : ... .. 0 ... ... : ... .. 0 ... ... : ... .. . ... : ... .. . ... : ... .. . Z30 ...
ROW 12 : ... .. . ... ... : ... .. . ... ... : ... .. . ... : ... .. . ... : ... .. . Z30 ...
ROW 13 : ... .. . ... ... : ... .. . ... ... : ... .. . ... : ... .. . ... : ... .. . Z30 ...
ROW 14 : ... .. . ... ... : ... .. . ... ... : ... .. . ... : ... .. . ... : ... .. . Z30 ...
ROW 15 : ... .. . ... ... : ... .. . ... ... : ... .. . ... : ... .. . ... : ... .. . Z30 ...
ROW 16 : ... .. . ... ... : ... .. . ... ... : ... .. . ... : ... .. . ... : ... .. . Z30 ...
ROW 17 : ... .. . ... ... : ... .. . ... ... : ... .. . ... : ... .. . ... : ... .. . Z30 ...
ROW 18 : ... .. . ... ... : ... .. . ... ... : ... .. . ... : ... .. . ... : ... .. . Z30 ...
ROW 19 : ... .. . ... ... : ... .. . ... ... : ... .. . ... : ... .. . ... : ... .. . Z30 ...
ROW 1A : ... .. . ... ... : ... .. . ... ... : ... .. . ... : ... .. . ... : ... .. . Z30 ...
ROW 1B : E-3 00 0 P7D ... : G-3 00 0 P80 ... : F#3 00 . P7D : ... .. C ... : ... .. . Z30 ...
ROW 1C : ... .. 8 ... ... : ... .. 8 ... ... : ... .. . ... : ... .. 0 ... : ... .. . Z30 ...
ROW 1D : ... .. 7 ... ... : ... .. 7 ... ... : ... .. . ... : ... .. . ... : ... .. . Z30 ...
ROW 1E : ... .. 6 ... ... : ... .. 6 ... ... : ... .. . ... : ... .. . ... : ... .. . Z30 ...
ROW 1F : ... .. 5 ... ... : ... .. 5 ... ... : ... .. . ... : ... .. . ... : ... .. . Z30 ...
ROW 20 : ... .. . ... ... : ... .. . ... ... : ... .. . ... : ... .. . ... : ... .. . Z30 ...
ROW 21 : ... .. 4 ... ... : ... .. 4 ... ... : ... .. . ... : ... .. . ... : ... .. . Z30 ...
ROW 22 : ... .. . ... ... : ... .. . ... ... : ... .. . ... : ... .. . ... : ... .. . Z30 ...
ROW 23 : ... .. 0 ... ... : ... .. 0 ... ... : --- .. . ... : ... .. . ... : ... .. . Z30 ...
ROW 24 : ... .. . ... ... : ... .. . ... ... : G-3 00 . P80 : ... .. C ... : ... .. . Z30 ...
ROW 25 : ... .. . ... ... : ... .. . ... ... : ... .. . ... : ... .. . ... : ... .. . Z30 ...
ROW 26 : ... .. . ... ... : ... .. . ... ... : ... .. . ... : ... .. . ... : ... .. . Z30 ...
ROW 27 : ... .. . ... ... : ... .. . ... ... : ... .. . ... : ... .. . ... : ... .. . Z30 ...
ROW 28 : ... .. . ... ... : ... .. . ... ... : ... .. . ... : ... .. . ... : ... .. . Z30 ...
ROW 29 : ... .. . ... ... : ... .. . ... ... : ... .. . ... : ... .. 0 ... : ... .. . Z30 ...
ROW 2A : ... .. . ... ... : ... .. . ... ... : ... .. . ... : ... .. . ... : ... .. . Z30 ...
ROW 2B : ... .. . ... ... : ... .. . ... ... : ... .. . ... : ... .. . ... : ... .. . Z30 ...
ROW 2C : ... .. . ... ... : ... .. . ... ... : --- .. . ... : ... .. . ... : ... .. . Z30 ...
ROW 2D : ... .. . ... ... : ... .. . ... ... : ... .. . ... : ... .. . ... : ... .. . Z30 ...
ROW 2E : ... .. . ... ... : ... .. . ... ... : ... .. . ... : ... .. . ... : ... .. . Z30 ...
ROW 2F : ... .. . ... ... : ... .. . ... ... : ... .. . ... : ... .. . ... : ... .. . Z30 ...
ROW 30 : ... .. . ... ... : ... .. . ... ... : ... .. . ... : ... .. . ... : ... .. . Z30 ...
ROW 31 : ... .. . ... ... : ... .. . ... ... : ... .. . ... : ... .. . ... : ... .. . Z30 ...
ROW 32 : ... .. . ... ... : ... .. . ... ... : ... .. . ... : ... .. . ... : ... .. . Z30 ...
ROW 33 : ... .. . ... ... : ... .. . ... ... : ... .. . ... : ... .. . ... : ... .. . Z30 ...
ROW 34 : ... .. . ... ... : ... .. . ... ... : ... .. . ... : ... .. . ... : ... .. . Z30 ...
ROW 35 : ... .. . ... ... : ... .. . ... ... : ... .. . ... : ... .. . ... : ... .. . Z30 ...
ROW 36 : ... .. . ... ... : G#3 00 0 P82 ... : C-4 00 . P80 : ... .. C ... : ... .. . Z30 ...
ROW 37 : ... .. 8 ... ... : ... .. 8 ... ... : ... .. . ... : ... .. 0 ... : ... .. . Z30 ...
ROW 38 : ... .. 7 ... ... : ... .. 7 ... ... : ... .. . ... : ... .. . ... : ... .. . Z30 ...
ROW 39 : ... .. 6 ... ... : ... .. 6 ... ... : ... .. . ... : ... .. . ... : ... .. . Z30 ...
ROW 3A : ... .. 5 ... ... : ... .. 5 ... ... : ... .. . ... : ... .. . ... : ... .. . Z30 ...
ROW 3B : ... .. . ... ... : ... .. . ... ... : ... .. . ... : ... .. . ... : ... .. . Z30 ...
ROW 3C : ... .. 4 ... ... : ... .. 4 ... ... : ... .. . ... : ... .. . ... : ... .. . Z30 ...
ROW 3D : ... .. . ... ... : ... .. . ... ... : ... .. . ... : ... .. . ... : ... .. . Z30 ...
ROW 3E : ... .. 0 ... ... : ... .. 0 ... ... : --- .. . ... : ... .. . ... : ... .. . Z30 ...
ROW 3F : ... .. . ... ... : ... .. . ... ... : ... .. . ... : ... .. . ... : ... .. . Z30 ...
ROW 40 : ... .. . ... ... : ... .. . ... ... : ... .. . ... : ... .. . ... : ... .. . Z30 ...
ROW 41 : ... .. . ... ... : ... .. . ... ... : ... .. . ... : ... .. . ... : ... .. . Z30 ...
ROW 42 : ... .. . ... ... : ... .. . ... ... : ... .. . ... : ... .. . ... : ... .. . Z30 ...
ROW 43 : ... .. . ... ... : ... .. . ... ... : ... .. . ... : ... .. . ... : ... .. . Z30 ...
ROW 44 : ... .. . ... ... : ... .. . ... ... : ... .. . ... : ... .. . ... : ... .. . Z30 ...
ROW 45 : ... .. . ... ... : ... .. . ... ... : ... .. . ... : ... .. . ... : ... .. . Z30 ...
ROW 46 : ... .. . ... ... : ... .. . ... ... : ... .. . ... : ... .. . ... : ... .. . Z30 ...
ROW 47 : ... .. . ... ... : ... .. . ... ... : ... .. . ... : ... .. . ... : ... .. . Z30 ...
ROW 48 : F-3 00 0 P80 ... : A-3 00 0 P7E ... : F-3 00 . P80 : ... .. C ... : ... .. . Z30 ...
ROW 49 : ... .. 8 ... ... : ... .. 8 ... ... : ... .. . ... : ... .. 0 ... : ... .. . Z30 ...
ROW 4A : ... .. 7 ... ... : ... .. 7 ... ... : ... .. . ... : ... .. . ... : ... .. . Z30 ...
ROW 4B : ... .. 6 ... ... : ... .. 6 ... ... : ... .. . ... : ... .. . ... : ... .. . Z30 ...
ROW 4C : ... .. 5 ... ... : ... .. 5 ... ... : ... .. . ... : ... .. . ... : ... .. . Z30 ...
ROW 4D : ... .. . ... ... : ... .. . ... ... : ... .. . ... : ... .. . ... : ... .. . Z30 ...
ROW 4E : ... .. 4 ... ... : ... .. 4 ... ... : ... .. . ... : ... .. . ... : ... .. . Z30 ...
ROW 4F : ... .. . ... ... : ... .. . ... ... : ... .. . ... : ... .. . ... : ... .. . Z30 ...
ROW 50 : ... .. 0 ... ... : ... .. 0 ... ... : --- .. . ... : ... .. . ... : ... .. . Z30 ...
ROW 51 : C-4 00 0 P80 ... : F-4 00 0 P80 ... : ... .. . ... : ... .. . ... : ... .. . Z30 ...
ROW 52 : ... .. 8 ... ... : ... .. 8 ... ... : ... .. . ... : ... .. . ... : ... .. . Z30 ...
ROW 53 : ... .. 7 ... ... : ... .. 7 ... ... : ... .. . ... : ... .. . ... : ... .. . Z30 ...
ROW 54 : ... .. 6 ... ... : ... .. 6 ... ... : ... .. . ... : ... .. . ... : ... .. . Z30 ...
ROW 55 : ... .. 5 ... ... : ... .. 5 ... ... : ... .. . ... : ... .. . ... : ... .. . Z30 ...
ROW 56 : ... .. . ... ... : ... .. . ... ... : ... .. . ... : ... .. . ... : ... .. . Z30 ...
ROW 57 : ... .. 4 ... ... : ... .. 4 ... ... : ... .. . ... : ... .. . ... : ... .. . Z30 ...
ROW 58 : ... .. . ... ... : ... .. . ... ... : ... .. . ... : ... .. . ... : ... .. . Z30 ...
ROW 59 : ... .. 0 ... ... : ... .. 0 ... ... : ... .. . ... : ... .. . ... : ... .. . Z30 ...
ROW 5A : ... .. . ... ... : ... .. . ... ... : F-3 00 . P80 : ... .. . ... : ... .. . Z30 ...
ROW 5B : ... .. . ... ... : ... .. . ... ... : ... .. . ... : ... .. . ... : ... .. . Z30 ...
ROW 5C : ... .. . ... ... : ... .. . ... ... : ... .. . ... : ... .. . ... : ... .. . Z30 ...
ROW 5D : ... .. . ... ... : ... .. . ... ... : ... .. . ... : ... .. . ... : ... .. . Z30 ...
ROW 5E : ... .. . ... ... : ... .. . ... ... : ... .. . ... : ... .. . ... : ... .. . Z30 ...
ROW 5F : ... .. . ... ... : ... .. . ... ... : ... .. . ... : ... .. . ... : ... .. . Z30 ...
ROW 60 : ... .. . ... ... : ... .. . ... ... : ... .. . ... : ... .. . ... : ... .. . Z30 ...
ROW 61 : ... .. . ... ... : ... .. . ... ... : ... .. . ... : ... .. . ... : ... .. . Z30 ...
ROW 62 : ... .. . ... ... : ... .. . ... ... : --- .. . ... : ... .. . ... : ... .. . Z30 ...
ROW 63 : ... .. . ... ... : ... .. . ... ... : ... .. . ... : ... .. C ... : ... .. . Z30 ...
ROW 64 : ... .. 8 ... ... : ... .. 8 ... ... : ... .. . ... : ... .. 0 ... : ... .. . Z30 ...
ROW 65 : ... .. 7 ... ... : ... .. 7 ... ... : ... .. . ... : ... .. . ... : ... .. . Z30 ...
ROW 66 : ... .. 6 ... ... : ... .. 6 ... ... : ... .. . ... : ... .. . ... : ... .. . Z30 ...
ROW 67 : ... .. 5 ... ... : ... .. 5 ... ... : ... .. . ... : ... .. . ... : ... .. . Z30 ...
ROW 68 : ... .. . ... ... : ... .. . ... ... : ... .. . ... : ... .. . ... : ... .. . Z30 ...
ROW 69 : ... .. 4 ... ... : ... .. 4 ... ... : ... .. . ... : ... .. . ... : ... .. . Z30 ...
ROW 6A : ... .. . ... ... : ... .. . ... ... : ... .. . ... : ... .. . ... : ... .. . Z30 ...
ROW 6B : ... .. 0 ... ... : ... .. 0 ... ... : ... .. . ... : ... .. . ... : ... .. . Z30 ...
ROW 6C : F-3 00 0 P80 ... : A-3 00 0 P7E ... : C-4 00 . P80 : ... .. C ... : ... .. . Z30 ...
ROW 6D : ... .. 8 ... ... : ... .. 8 ... ... : ... .. . ... : ... .. . ... : ... .. . Z30 ...
ROW 6E : ... .. 7 ... ... : ... .. 7 ... ... : ... .. . ... : ... .. . ... : ... .. . Z30 ...
ROW 6F : ... .. 6 ... ... : ... .. 6 ... ... : ... .. . ... : ... .. . ... : ... .. . Z30 ...
ROW 70 : ... .. 5 ... ... : ... .. 5 ... ... : ... .. . ... : ... .. . ... : ... .. . Z30 ...
ROW 71 : ... .. . ... ... : ... .. . ... ... : ... .. . ... : ... .. 0 ... : ... .. . Z30 ...
ROW 72 : ... .. 4 ... ... : ... .. 4 ... ... : ... .. . ... : ... .. . ... : ... .. . Z30 ...
ROW 73 : ... .. . ... ... : ... .. . ... ... : ... .. . ... : ... .. . ... : ... .. . Z30 ...
ROW 74 : ... .. 0 ... ... : ... .. 0 ... ... : --- .. . ... : ... .. . ... : ... .. . Z30 ...
ROW 75 : ... .. . ... ... : ... .. . ... ... : C-4 00 . P80 : ... .. . ... : ... .. . Z30 ...
ROW 76 : ... .. . ... ... : ... .. . ... ... : ... .. . ... : ... .. . ... : ... .. . Z30 ...
ROW 77 : ... .. . ... ... : ... .. . ... ... : ... .. . ... : ... .. . ... : ... .. . Z30 ...
ROW 78 : ... .. . ... ... : ... .. . ... ... : ... .. . ... : ... .. . ... : ... .. . Z30 ...
ROW 79 : ... .. . ... ... : ... .. . ... ... : ... .. . ... : ... .. . ... : ... .. . Z30 ...
ROW 7A : ... .. . ... ... : ... .. . ... ... : ... .. . ... : ... .. . ... : ... .. . Z30 ...
ROW 7B : ... .. . ... ... : ... .. . ... ... : ... .. . ... : ... .. . ... : ... .. . Z30 ...
ROW 7C : ... .. . ... ... : ... .. . ... ... : ... .. . ... : ... .. . ... : ... .. . Z30 ...
ROW 7D : ... .. . ... ... : ... .. . ... ... : --- .. . ... : ... .. . ... : ... .. . Z30 ...
ROW 7E : ... .. . ... ... : ... .. . ... ... : F-3 00 . P80 : ... .. C ... : ... .. . Z30 ...
ROW 7F : ... .. . ... ... : ... .. . ... ... : ... .. . ... : ... .. 0 ... : ... .. . Z30 ...
ROW 80 : ... .. . ... ... : ... .. . ... ... : ... .. . ... : ... .. . ... : ... .. . Z30 ...
ROW 81 : ... .. . ... ... : ... .. . ... ... : ... .. . ... : ... .. . ... : ... .. . Z30 ...
ROW 82 : ... .. . ... ... : ... .. . ... ... : ... .. . ... : ... .. . ... : ... .. . Z30 ...
ROW 83 : ... .. . ... ... : ... .. . ... ... : ... .. . ... : ... .. . ... : ... .. . Z30 ...
ROW 84 : ... .. . ... ... : ... .. . ... ... : ... .. . ... : ... .. . ... : ... .. . Z30 ...
ROW 85 : ... .. . ... ... : ... .. . ... ... : ... .. . ... : ... .. . ... : ... .. . Z30 ...
ROW 86 : ... .. . ... ... : ... .. . ... ... : --- .. . ... : ... .. . ... : ... .. . Z30 ...
ROW 87 : ... .. . ... ... : ... .. . ... ... : ... .. . ... : ... .. . ... : ... .. . Z30 ...
ROW 88 : ... .. . ... ... : ... .. . ... ... : ... .. . ... : ... .. . ... : ... .. . Z30 ...
ROW 89 : ... .. . ... ... : ... .. . ... ... : ... .. . ... : ... .. . ... : ... .. . Z30 ...
ROW 8A : ... .. . ... ... : ... .. . ... ... : ... .. . ... : ... .. . ... : ... .. . Z30 ...
ROW 8B : ... .. . ... ... : ... .. . ... ... : ... .. . ... : ... .. . ... : ... .. . Z30 ...
ROW 8C : ... .. . ... ... : ... .. . ... ... : ... .. . ... : ... .. . ... : ... .. . Z30 ...
ROW 8D : ... .. . ... ... : ... .. . ... ... : ... .. . ... : ... .. . ... : ... .. . Z30 ...
ROW 8E : ... .. . ... ... : ... .. . ... ... : ... .. . ... : ... .. . ... : ... .. . Z30 ...
ROW 8F : ... .. . ... ... : ... .. . ... ... : ... .. . ... : ... .. . ... : ... .. . Z30 ...

PATTERN 1C
ROW 00 : G-3 00 0 P80 ... : B-3 00 0 P7E ... : G-3 00 . P80 : ... .. C ... : ... .. . Z30 ...
ROW 01 : ... .. 8 ... ... : ... .. 8 ... ... : ... .. . ... : ... .. 0 ... : ... .. . Z30 ...
ROW 02 : ... .. 7 ... ... : ... .. 7 ... ... : ... .. . ... : ... .. . ... : ... .. . Z30 ...
ROW 03 : ... .. 6 ... ... : ... .. 6 ... ... : ... .. . ... : ... .. . ... : ... .. . Z30 ...
ROW 04 : ... .. 5 ... ... : ... .. 5 ... ... : ... .. . ... : ... .. . ... : ... .. . Z30 ...
ROW 05 : ... .. . ... ... : ... .. . ... ... : ... .. . ... : ... .. . ... : ... .. . Z30 ...
ROW 06 : ... .. 4 ... ... : ... .. 4 ... ... : ... .. . ... : ... .. . ... : ... .. . Z30 ...
ROW 07 : ... .. . ... ... : ... .. . ... ... : ... .. . ... : ... .. . ... : ... .. . Z30 ...
ROW 08 : ... .. 0 ... ... : ... .. 0 ... ... : --- .. . ... : ... .. . ... : ... .. . Z30 ...
ROW 09 : D-4 00 0 P80 ... : F-4 00 0 P80 ... : ... .. . ... : ... .. . ... : ... .. . Z30 ...
ROW 0A : ... .. 8 ... ... : ... .. 8 ... ... : ... .. . ... : ... .. . ... : ... .. . Z30 ...
ROW 0B : ... .. 7 ... ... : ... .. 7 ... ... : ... .. . ... : ... .. . ... : ... .. . Z30 ...
ROW 0C : ... .. 6 ... ... : ... .. 6 ... ... : ... .. . ... : ... .. . ... : ... .. . Z30 ...
ROW 0D : ... .. 5 ... ... : ... .. 5 ... ... : ... .. . ... : ... .. . ... : ... .. . Z30 ...
ROW 0E : ... .. . ... ... : ... .. . ... ... : ... .. . ... : ... .. . ... : ... .. . Z30 ...
ROW 0F : ... .. 4 ... ... : ... .. 4 ... ... : ... .. . ... : ... .. . ... : ... .. . Z30 ...
ROW 10 : ... .. . ... ... : ... .. . ... ... : ... .. . ... : ... .. . ... : ... .. . Z30 ...
ROW 11 : ... .. 0 ... ... : ... .. 0 ... ... : ... .. . ... : ... .. . ... : ... .. . Z30 ...
ROW 12 : ... .. . ... ... : ... .. . ... ... : ... .. . ... : ... .. . ... : ... .. . Z30 ...
ROW 13 : ... .. . ... ... : ... .. . ... ... : ... .. . ... : ... .. . ... : ... .. . Z30 ...
ROW 14 : ... .. . ... ... : ... .. . ... ... : ... .. . ... : ... .. . ... : ... .. . Z30 ...
ROW 15 : ... .. . ... ... : ... .. . ... ... : ... .. . ... : ... .. . ... : ... .. . Z30 ...
ROW 16 : ... .. . ... ... : ... .. . ... ... : ... .. . ... : ... .. . ... : ... .. . Z30 ...
ROW 17 : ... .. . ... ... : ... .. . ... ... : ... .. . ... : ... .. . ... : ... .. . Z30 ...
ROW 18 : ... .. . ... ... : ... .. . ... ... : ... .. . ... : ... .. . ... : ... .. . Z30 ...
ROW 19 : ... .. . ... ... : ... .. . ... ... : ... .. . ... : ... .. . ... : ... .. . Z30 ...
ROW 1A : ... .. . ... ... : ... .. . ... ... : ... .. . ... : ... .. . ... : ... .. . Z30 ...
ROW 1B : ... .. . ... ... : ... .. . ... ... : G-3 00 . P80 : ... .. C ... : ... .. . Z30 ...
ROW 1C : ... .. 8 ... ... : ... .. 8 ... ... : ... .. . ... : ... .. 0 ... : ... .. . Z30 ...
ROW 1D : ... .. 7 ... ... : ... .. 7 ... ... : ... .. . ... : ... .. . ... : ... .. . Z30 ...
ROW 1E : ... .. 6 ... ... : ... .. 6 ... ... : ... .. . ... : ... .. . ... : ... .. . Z30 ...
ROW 1F : ... .. 5 ... ... : ... .. 5 ... ... : ... .. . ... : ... .. . ... : ... .. . Z30 ...
ROW 20 : ... .. . ... ... : ... .. . ... ... : ... .. . ... : ... .. . ... : ... .. . Z30 ...
ROW 21 : ... .. 4 ... ... : ... .. 4 ... ... : ... .. . ... : ... .. . ... : ... .. . Z30 ...
ROW 22 : ... .. . ... ... : ... .. . ... ... : ... .. . ... : ... .. . ... : ... .. . Z30 ...
ROW 23 : ... .. 0 ... ... : ... .. 0 ... ... : --- .. . ... : ... .. . ... : ... .. . Z30 ...
ROW 24 : ... .. . ... ... : ... .. . ... ... : G-3 00 . P80 : ... .. C ... : ... .. . Z30 ...
ROW 25 : ... .. 8 ... ... : ... .. 8 ... ... : ... .. . ... : ... .. . ... : ... .. . Z30 ...
ROW 26 : ... .. 7 ... ... : ... .. 7 ... ... : ... .. . ... : ... .. . ... : ... .. . Z30 ...
ROW 27 : ... .. 6 ... ... : ... .. 6 ... ... : ... .. . ... : ... .. . ... : ... .. . Z30 ...
ROW 28 : ... .. 5 ... ... : ... .. 5 ... ... : ... .. . ... : ... .. . ... : ... .. . Z30 ...
ROW 29 : ... .. . ... ... : ... .. . ... ... : ... .. . ... : ... .. 0 ... : ... .. . Z30 ...
ROW 2A : ... .. 4 ... ... : ... .. 4 ... ... : ... .. . ... : ... .. . ... : ... .. . Z30 ...
ROW 2B : ... .. . ... ... : ... .. . ... ... : ... .. . ... : ... .. . ... : ... .. . Z30 ...
ROW 2C : ... .. 0 ... ... : ... .. 0 ... ... : --- .. . ... : ... .. . ... : ... .. . Z30 ...
ROW 2D : ... .. . ... ... : ... .. . ... ... : ... .. . ... : ... .. . ... : ... .. . Z30 ...
ROW 2E : ... .. . ... ... : ... .. . ... ... : ... .. . ... : ... .. . ... : ... .. . Z30 ...
ROW 2F : ... .. . ... ... : ... .. . ... ... : ... .. . ... : ... .. . ... : ... .. . Z30 ...
ROW 30 : C-4 00 0 P80 ... : E-4 00 0 P7F ... : A-3 00 . P7E : ... .. . ... : ... .. . Z30 ...
ROW 31 : ... .. 8 ... ... : ... .. 8 ... ... : ... .. . ... : ... .. . ... : ... .. . Z30 ...
ROW 32 : ... .. 7 ... ... : ... .. 7 ... ... : ... .. . ... : ... .. . ... : ... .. . Z30 ...
ROW 33 : ... .. 6 ... ... : ... .. 6 ... ... : ... .. . ... : ... .. . ... : ... .. . Z30 ...
ROW 34 : ... .. 5 ... ... : ... .. 5 ... ... : ... .. . ... : ... .. . ... : ... .. . Z30 ...
ROW 35 : ... .. . ... ... : ... .. . ... ... : ... .. . ... : ... .. . ... : ... .. . Z30 ...
ROW 36 : ... .. 4 ... ... : ... .. 4 ... ... : ... .. . ... : ... .. C ... : ... .. . Z30 ...
ROW 37 : ... .. . ... ... : ... .. . ... ... : ... .. . ... : ... .. 0 ... : ... .. . Z30 ...
ROW 38 : ... .. 0 ... ... : ... .. 0 ... ... : --- .. . ... : ... .. . ... : ... .. . Z30 ...
ROW 39 : ... .. . ... ... : ... .. . ... ... : ... .. . ... : ... .. . ... : ... .. . Z30 ...
ROW 3A : ... .. . ... ... : ... .. . ... ... : ... .. . ... : ... .. . ... : ... .. . Z30 ...
ROW 3B : ... .. . ... ... : ... .. . ... ... : ... .. . ... : ... .. . ... : ... .. . Z30 ...
ROW 3C : B-3 00 0 P7E ... : D-4 00 0 P80 ... : B-3 00 . P7E : ... .. . ... : ... .. . Z30 ...
ROW 3D : ... .. 8 ... ... : ... .. 8 ... ... : ... .. . ... : ... .. . ... : ... .. . Z30 ...
ROW 3E : ... .. 7 ... ... : ... .. 7 ... ... : ... .. . ... : ... .. . ... : ... .. . Z30 ...
ROW 3F : ... .. 6 ... ... : ... .. 6 ... ... : ... .. . ... : ... .. . ... : ... .. . Z30 ...
ROW 40 : ... .. 5 ... ... : ... .. 5 ... ... : ... .. . ... : ... .. . ... : ... .. . Z30 ...
ROW 41 : ... .. . ... ... : ... .. . ... ... : ... .. . ... : ... .. . ... : ... .. . Z30 ...
ROW 42 : ... .. 4 ... ... : ... .. 4 ... ... : ... .. . ... : ... .. . ... : ... .. . Z30 ...
ROW 43 : ... .. . ... ... : ... .. . ... ... : ... .. . ... : ... .. . ... : ... .. . Z30 ...
ROW 44 : ... .. 0 ... ... : ... .. 0 ... ... : --- .. . ... : ... .. . ... : ... .. . Z30 ...
ROW 45 : ... .. . ... ... : ... .. . ... ... : ... .. . ... : ... .. . ... : ... .. . Z30 ...
ROW 46 : ... .. . ... ... : ... .. . ... ... : ... .. . ... : ... .. . ... : ... .. . Z30 ...
ROW 47 : ... .. . ... ... : ... .. . ... ... : ... .. . ... : ... .. . ... : ... .. . Z30 ...
ROW 48 : G-3 00 0 P80 ... : C-4 00 0 P80 ... : C-4 00 . P80 : ... .. C ... : ... .. . Z30 ...
ROW 49 : ... .. 8 ... ... : ... .. 8 ... ... : ... .. . ... : ... .. 0 ... : ... .. . Z30 ...
ROW 4A : ... .. 7 ... ... : ... .. 7 ... ... : ... .. . ... : ... .. . ... : ... .. . Z30 ...
ROW 4B : ... .. 6 ... ... : ... .. 6 ... ... : ... .. . ... : ... .. . ... : ... .. . Z30 ...
ROW 4C : ... .. 5 ... ... : ... .. 5 ... ... : ... .. . ... : ... .. . ... : ... .. . Z30 ...
ROW 4D : ... .. . ... ... : ... .. . ... ... : ... .. . ... : ... .. . ... : ... .. . Z30 ...
ROW 4E : ... .. 4 ... ... : ... .. 4 ... ... : ... .. . ... : ... .. . ... : ... .. . Z30 ...
ROW 4F : ... .. . ... ... : ... .. . ... ... : ... .. . ... : ... .. . ... : ... .. . Z30 ...
ROW 50 : ... .. 0 ... ... : ... .. 0 ... ... : --- .. . ... : ... .. . ... : ... .. . Z30 ...
ROW 51 : E-3 00 0 P7D ... : ... .. . ... ... : ... .. . ... : ... .. . ... : ... .. . Z30 ...
ROW 52 : ... .. 8 ... ... : ... .. . ... ... : ... .. . ... : ... .. . ... : ... .. . Z30 ...
ROW 53 : ... .. 7 ... ... : ... .. . ... ... : ... .. . ... : ... .. . ... : ... .. . Z30 ...
ROW 54 : ... .. 6 ... ... : ... .. . ... ... : ... .. . ... : ... .. . ... : ... .. . Z30 ...
ROW 55 : ... .. 5 ... ... : ... .. . ... ... : ... .. . ... : ... .. . ... : ... .. . Z30 ...
ROW 56 : ... .. . ... ... : ... .. . ... ... : ... .. . ... : ... .. . ... : ... .. . Z30 ...
ROW 57 : ... .. 4 ... ... : ... .. . ... ... : ... .. . ... : ... .. . ... : ... .. . Z30 ...
ROW 58 : ... .. . ... ... : ... .. . ... ... : ... .. . ... : ... .. . ... : ... .. . Z30 ...
ROW 59 : ... .. 0 ... ... : ... .. . ... ... : ... .. . ... : ... .. . ... : ... .. . Z30 ...
ROW 5A : ... .. . ... ... : ... .. . ... ... : G-3 00 . P80 : ... .. . ... : ... .. . Z30 ...
ROW 5B : ... .. . ... ... : ... .. . ... ... : ... .. . ... : ... .. . ... : ... .. . Z30 ...
ROW 5C : ... .. . ... ... : ... .. . ... ... : ... .. . ... : ... .. . ... : ... .. . Z30 ...
ROW 5D : ... .. . ... ... : ... .. . ... ... : ... .. . ... : ... .. . ... : ... .. . Z30 ...
ROW 5E : ... .. . ... ... : ... .. . ... ... : ... .. . ... : ... .. . ... : ... .. . Z30 ...
ROW 5F : ... .. . ... ... : ... .. . ... ... : ... .. . ... : ... .. . ... : ... .. . Z30 ...
ROW 60 : ... .. . ... ... : ... .. . ... ... : ... .. . ... : ... .. . ... : ... .. . Z30 ...
ROW 61 : ... .. . ... ... : ... .. . ... ... : ... .. . ... : ... .. . ... : ... .. . Z30 ...
ROW 62 : ... .. . ... ... : ... .. . ... ... : --- .. . ... : ... .. . ... : ... .. . Z30 ...
ROW 63 : ... .. . ... ... : ... .. . ... ... : ... .. . ... : ... .. C ... : ... .. . Z30 ...
ROW 64 : ... .. 8 ... ... : ... .. . ... ... : ... .. . ... : ... .. 0 ... : ... .. . Z30 ...
ROW 65 : ... .. 7 ... ... : ... .. . ... ... : ... .. . ... : ... .. . ... : ... .. . Z30 ...
ROW 66 : ... .. 6 ... ... : ... .. . ... ... : ... .. . ... : ... .. . ... : ... .. . Z30 ...
ROW 67 : ... .. 5 ... ... : ... .. . ... ... : ... .. . ... : ... .. . ... : ... .. . Z30 ...
ROW 68 : ... .. . ... ... : ... .. . ... ... : ... .. . ... : ... .. . ... : ... .. . Z30 ...
ROW 69 : ... .. 4 ... ... : ... .. . ... ... : ... .. . ... : ... .. . ... : ... .. . Z30 ...
ROW 6A : ... .. . ... ... : ... .. . ... ... : ... .. . ... : ... .. . ... : ... .. . Z30 ...
ROW 6B : ... .. 0 ... ... : ... .. . ... ... : ... .. . ... : ... .. . ... : ... .. . Z30 ...
ROW 6C : C-3 00 0 P80 ... : ... .. . ... ... : C-3 00 . P80 : ... .. C ... : ... .. . Z30 ...
ROW 6D : ... .. 8 ... ... : ... .. . ... ... : ... .. . ... : ... .. . ... : ... .. . Z30 ...
ROW 6E : ... .. 7 ... ... : ... .. . ... ... : ... .. . ... : ... .. . ... : ... .. . Z30 ...
ROW 6F : ... .. 6 ... ... : ... .. . ... ... : ... .. . ... : ... .. . ... : ... .. . Z30 ...
ROW 70 : ... .. 5 ... ... : ... .. . ... ... : ... .. . ... : ... .. . ... : ... .. . Z30 ...
ROW 71 : ... .. . ... ... : ... .. . ... ... : ... .. . ... : ... .. 0 ... : ... .. . Z30 ...
ROW 72 : ... .. 4 ... ... : ... .. . ... ... : ... .. . ... : ... .. . ... : ... .. . Z30 ...
ROW 73 : ... .. . ... ... : ... .. . ... ... : ... .. . ... : ... .. . ... : ... .. . Z30 ...
ROW 74 : ... .. 0 ... ... : ... .. . ... ... : --- .. . ... : ... .. . ... : ... .. . Z30 ...
ROW 75 : ... .. . ... ... : ... .. . ... ... : ... .. . ... : ... .. . ... : ... .. . Z30 ...
ROW 76 : ... .. . ... ... : ... .. . ... ... : ... .. . ... : ... .. . ... : ... .. . Z30 ...
ROW 77 : ... .. . ... ... : ... .. . ... ... : ... .. . ... : ... .. . ... : ... .. . Z30 ...
ROW 78 : ... .. . ... ... : ... .. . ... ... : ... .. . ... : ... .. . ... : ... .. . Z30 ...
ROW 79 : ... .. . ... ... : ... .. . ... ... : ... .. . ... : ... .. . ... : ... .. . Z30 ...
ROW 7A : ... .. . ... ... : ... .. . ... ... : ... .. . ... : ... .. . ... : ... .. . Z30 ...
ROW 7B : ... .. . ... ... : ... .. . ... ... : ... .. . ... : ... .. . ... : ... .. . Z30 ...
ROW 7C : ... .. . ... ... : ... .. . ... ... : ... .. . ... : ... .. . ... : ... .. . Z30 ...
ROW 7D : ... .. . ... ... : ... .. . ... ... : ... .. . ... : ... .. . ... : ... .. . Z30 ...
ROW 7E : ... .. . ... ... : ... .. . ... ... : ... .. . ... : ... .. C ... : ... .. . Z30 ...
ROW 7F : ... .. . ... ... : ... .. . ... ... : ... .. . ... : ... .. 0 ... : ... .. . Z30 ...
ROW 80 : ... .. . ... ... : ... .. . ... ... : ... .. . ... : ... .. . ... : ... .. . Z30 ...
ROW 81 : ... .. . ... ... : ... .. . ... ... : ... .. . ... : ... .. . ... : ... .. . Z30 ...
ROW 82 : ... .. . ... ... : ... .. . ... ... : ... .. . ... : ... .. . ... : ... .. . Z30 ...
ROW 83 : ... .. . ... ... : ... .. . ... ... : ... .. . ... : ... .. . ... : ... .. . Z30 ...
ROW 84 : ... .. . ... ... : ... .. . ... ... : ... .. . ... : ... .. . ... : ... .. . Z30 ...
ROW 85 : ... .. . ... ... : ... .. . ... ... : ... .. . ... : ... .. . ... : ... .. . Z30 ...
ROW 86 : ... .. . ... ... : ... .. . ... ... : ... .. . ... : ... .. . ... : ... .. . Z30 ...
ROW 87 : ... .. . ... ... : ... .. . ... ... : ... .. . ... : ... .. . ... : ... .. . Z30 ...
ROW 88 : ... .. . ... ... : ... .. . ... ... : ... .. . ... : ... .. . ... : ... .. . Z30 ...
ROW 89 : ... .. . ... ... : ... .. . ... ... : ... .. . ... : ... .. . ... : ... .. . Z30 ...
ROW 8A : ... .. . ... ... : ... .. . ... ... : ... .. . ... : ... .. . ... : ... .. . Z30 ...
ROW 8B : ... .. . ... ... : ... .. . ... ... : ... .. . ... : ... .. . ... : ... .. . Z30 ...
ROW 8C : ... .. . ... ... : ... .. . ... ... : ... .. . ... : ... .. . ... : ... .. . Z30 ...
ROW 8D : ... .. . ... ... : ... .. . ... ... : ... .. . ... : ... .. . ... : ... .. . Z30 ...
ROW 8E : ... .. . ... ... : ... .. . ... ... : ... .. . ... : ... .. . ... : ... .. . Z30 ...
ROW 8F : ... .. . ... ... : ... .. . ... ... : ... .. . ... : ... .. . ... : ... .. . Z30 ...

PATTERN 1D
ROW 00 : G#3 00 0 P82 ... : ... .. . ... ... : G#2 00 . P84 : ... .. C ... : ... .. . Z30 ...
ROW 01 : ... .. 8 ... ... : ... .. 8 ... ... : ... .. . ... : ... .. . ... : ... .. . Z30 ...
ROW 02 : ... .. 7 ... ... : ... .. 7 ... ... : ... .. . ... : ... .. . ... : ... .. . Z30 ...
ROW 03 : ... .. 6 ... ... : ... .. 6 ... ... : ... .. . ... : ... .. . ... : ... .. . Z30 ...
ROW 04 : ... .. 5 ... ... : ... .. 5 ... ... : ... .. . ... : ... .. . ... : ... .. . Z30 ...
ROW 05 : ... .. . ... ... : ... .. . ... ... : ... .. . ... : ... .. 0 ... : ... .. . Z30 ...
ROW 06 : ... .. 4 ... ... : ... .. 4 ... ... : ... .. . ... : ... .. . ... : ... .. . Z30 ...
ROW 07 : ... .. . ... ... : ... .. . ... ... : ... .. . ... : ... .. . ... : ... .. . Z30 ...
ROW 08 : ... .. 0 ... ... : ... .. 0 ... ... : --- .. . ... : ... .. . ... : ... .. . Z30 ...
ROW 09 : ... .. . ... ... : ... .. . ... ... : ... .. . ... : ... .. . ... : ... .. . Z30 ...
ROW 0A : ... .. 8 ... ... : ... .. 8 ... ... : ... .. . ... : ... .. . ... : ... .. . Z30 ...
ROW 0B : ... .. 7 ... ... : ... .. 7 ... ... : ... .. . ... : ... .. . ... : ... .. . Z30 ...
ROW 0C : ... .. 6 ... ... : ... .. 6 ... ... : ... .. . ... : ... .. . ... : ... .. . Z30 ...
ROW 0D : ... .. 5 ... ... : ... .. 5 ... ... : ... .. . ... : ... .. . ... : ... .. . Z30 ...
ROW 0E : ... .. . ... ... : ... .. . ... ... : ... .. . ... : ... .. . ... : ... .. . Z30 ...
ROW 0F : ... .. 4 ... ... : ... .. 4 ... ... : ... .. . ... : ... .. . ... : ... .. . Z30 ...
ROW 10 : ... .. . ... ... : ... .. . ... ... : ... .. . ... : ... .. . ... : ... .. . Z30 ...
ROW 11 : ... .. 0 ... ... : ... .. 0 ... ... : ... .. . ... : ... .. . ... : ... .. . Z30 ...
ROW 12 : ... .. . ... ... : ... .. . ... ... : ... .. . ... : ... .. C ... : ... .. . Z30 ...
ROW 13 : ... .. . ... ... : ... .. . ... ... : ... .. . ... : ... .. 0 ... : ... .. . Z30 ...
ROW 14 : ... .. . ... ... : ... .. . ... ... : ... .. . ... : ... .. . ... : ... .. . Z30 ...
ROW 15 : ... .. . ... ... : ... .. . ... ... : ... .. . ... : ... .. . ... : ... .. . Z30 ...
ROW 16 : ... .. . ... ... : ... .. . ... ... : ... .. . ... : ... .. . ... : ... .. . Z30 ...
ROW 17 : ... .. . ... ... : ... .. . ... ... : ... .. . ... : ... .. . ... : ... .. . Z30 ...
ROW 18 : ... .. . ... ... : ... .. . ... ... : ... .. . ... : ... .. . ... : ... .. . Z30 ...
ROW 19 : ... .. . ... ... : ... .. . ... ... : ... .. . ... : ... .. . ... : ... .. . Z30 ...
ROW 1A : ... .. . ... ... : ... .. . ... ... : ... .. . ... : ... .. . ... : ... .. . Z30 ...
ROW 1B : ... .. . ... ... : ... .. . ... ... : D#3 00 . P83 : ... .. C ... : ... .. . Z30 ...
ROW 1C : ... .. 8 ... ... : ... .. 8 ... ... : ... .. . ... : ... .. . ... : ... .. . Z30 ...
ROW 1D : ... .. 7 ... ... : ... .. 7 ... ... : ... .. . ... : ... .. . ... : ... .. . Z30 ...
ROW 1E : ... .. 6 ... ... : ... .. 6 ... ... : ... .. . ... : ... .. . ... : ... .. . Z30 ...
ROW 1F : ... .. 5 ... ... : ... .. 5 ... ... : ... .. . ... : ... .. . ... : ... .. . Z30 ...
ROW 20 : ... .. . ... ... : ... .. . ... ... : ... .. . ... : ... .. 0 ... : ... .. . Z30 ...
ROW 21 : ... .. 4 ... ... : ... .. 4 ... ... : ... .. . ... : ... .. . ... : ... .. . Z30 ...
ROW 22 : ... .. . ... ... : ... .. . ... ... : ... .. . ... : ... .. . ... : ... .. . Z30 ...
ROW 23 : ... .. 0 ... ... : ... .. 0 ... ... : --- .. . ... : ... .. . ... : ... .. . Z30 ...
ROW 24 : ... .. . ... ... : ... .. . ... ... : ... .. . ... : ... .. . ... : ... .. . Z30 ...
ROW 25 : ... .. . ... ... : ... .. . ... ... : ... .. . ... : ... .. . ... : ... .. . Z30 ...
ROW 26 : ... .. . ... ... : ... .. . ... ... : ... .. . ... : ... .. . ... : ... .. . Z30 ...
ROW 27 : ... .. . ... ... : ... .. . ... ... : ... .. . ... : ... .. . ... : ... .. . Z30 ...
ROW 28 : ... .. . ... ... : ... .. . ... ... : ... .. . ... : ... .. . ... : ... .. . Z30 ...
ROW 29 : ... .. . ... ... : ... .. . ... ... : ... .. . ... : ... .. . ... : ... .. . Z30 ...
ROW 2A : ... .. . ... ... : ... .. . ... ... : ... .. . ... : ... .. . ... : ... .. . Z30 ...
ROW 2B : ... .. . ... ... : ... .. . ... ... : ... .. . ... : ... .. . ... : ... .. . Z30 ...
ROW 2C : ... .. . ... ... : ... .. . ... ... : ... .. . ... : ... .. . ... : ... .. . Z30 ...
ROW 2D : ... .. . ... ... : ... .. . ... ... : ... .. . ... : ... .. C ... : ... .. . Z30 ...
ROW 2E : ... .. 8 ... ... : ... .. 8 ... ... : ... .. . ... : ... .. 0 ... : ... .. . Z30 ...
ROW 2F : ... .. 7 ... ... : ... .. 7 ... ... : ... .. . ... : ... .. . ... : ... .. . Z30 ...
ROW 30 : ... .. 6 ... ... : ... .. 6 ... ... : ... .. . ... : ... .. . ... : ... .. . Z30 ...
ROW 31 : ... .. 5 ... ... : ... .. 5 ... ... : ... .. . ... : ... .. . ... : ... .. . Z30 ...
ROW 32 : ... .. . ... ... : ... .. . ... ... : ... .. . ... : ... .. . ... : ... .. . Z30 ...
ROW 33 : ... .. 4 ... ... : ... .. 4 ... ... : ... .. . ... : ... .. . ... : ... .. . Z30 ...
ROW 34 : ... .. . ... ... : ... .. . ... ... : ... .. . ... : ... .. . ... : ... .. . Z30 ...
ROW 35 : ... .. 0 ... ... : ... .. 0 ... ... : ... .. . ... : ... .. . ... : ... .. . Z30 ...
ROW 36 : A#3 00 0 P7C ... : D-4 00 0 P80 ... : G#3 00 . P82 : ... .. C ... : ... .. . Z30 ...
ROW 37 : ... .. 8 ... ... : ... .. 8 ... ... : ... .. . ... : ... .. . ... : ... .. . Z30 ...
ROW 38 : ... .. 7 ... ... : ... .. 7 ... ... : ... .. . ... : ... .. . ... : ... .. . Z30 ...
ROW 39 : ... .. 6 ... ... : ... .. 6 ... ... : ... .. . ... : ... .. . ... : ... .. . Z30 ...
ROW 3A : ... .. 5 ... ... : ... .. 5 ... ... : ... .. . ... : ... .. . ... : ... .. . Z30 ...
ROW 3B : ... .. . ... ... : ... .. . ... ... : ... .. . ... : ... .. 0 ... : ... .. . Z30 ...
ROW 3C : ... .. 4 ... ... : ... .. 4 ... ... : ... .. . ... : ... .. . ... : ... .. . Z30 ...
ROW 3D : ... .. . ... ... : ... .. . ... ... : ... .. . ... : ... .. . ... : ... .. . Z30 ...
ROW 3E : ... .. 0 ... ... : ... .. 0 ... ... : --- .. . ... : ... .. . ... : ... .. . Z30 ...
ROW 3F : ... .. . ... ... : ... .. . ... ... : ... .. . ... : ... .. . ... : ... .. . Z30 ...
ROW 40 : ... .. . ... ... : ... .. . ... ... : ... .. . ... : ... .. . ... : ... .. . Z30 ...
ROW 41 : ... .. . ... ... : ... .. . ... ... : ... .. . ... : ... .. . ... : ... .. . Z30 ...
ROW 42 : ... .. . ... ... : ... .. . ... ... : ... .. . ... : ... .. . ... : ... .. . Z30 ...
ROW 43 : ... .. . ... ... : ... .. . ... ... : ... .. . ... : ... .. . ... : ... .. . Z30 ...
ROW 44 : ... .. . ... ... : ... .. . ... ... : ... .. . ... : ... .. . ... : ... .. . Z30 ...
ROW 45 : ... .. . ... ... : ... .. . ... ... : ... .. . ... : ... .. . ... : ... .. . Z30 ...
ROW 46 : ... .. . ... ... : ... .. . ... ... : ... .. . ... : ... .. . ... : ... .. . Z30 ...
ROW 47 : ... .. . ... ... : ... .. . ... ... : ... .. . ... : ... .. . ... : ... .. . Z30 ...
ROW 48 : G-3 00 0 P80 ... : E-4 00 0 P7F ... : G-3 00 . P80 : ... .. C ... : ... .. . Z30 ...
ROW 49 : ... .. 8 ... ... : ... .. 8 ... ... : ... .. . ... : ... .. . ... : ... .. . Z30 ...
ROW 4A : ... .. 7 ... ... : ... .. 7 ... ... : ... .. . ... : ... .. . ... : ... .. . Z30 ...
ROW 4B : ... .. 6 ... ... : ... .. 6 ... ... : ... .. . ... : ... .. . ... : ... .. . Z30 ...
ROW 4C : ... .. 5 ... ... : ... .. 5 ... ... : ... .. . ... : ... .. . ... : ... .. . Z30 ...
ROW 4D : ... .. . ... ... : ... .. . ... ... : ... .. . ... : ... .. 0 ... : ... .. . Z30 ...
ROW 4E : ... .. 4 ... ... : ... .. 4 ... ... : ... .. . ... : ... .. . ... : ... .. . Z30 ...
ROW 4F : ... .. . ... ... : ... .. . ... ... : ... .. . ... : ... .. . ... : ... .. . Z30 ...
ROW 50 : ... .. 0 ... ... : ... .. 0 ... ... : --- .. . ... : ... .. . ... : ... .. . Z30 ...
ROW 51 : E-3 00 0 P7D ... : C-4 00 0 P80 ... : ... .. . ... : ... .. . ... : ... .. . Z30 ...
ROW 52 : ... .. 8 ... ... : ... .. 8 ... ... : ... .. . ... : ... .. . ... : ... .. . Z30 ...
ROW 53 : ... .. 7 ... ... : ... .. 7 ... ... : ... .. . ... : ... .. . ... : ... .. . Z30 ...
ROW 54 : ... .. 6 ... ... : ... .. 6 ... ... : ... .. . ... : ... .. . ... : ... .. . Z30 ...
ROW 55 : ... .. 5 ... ... : ... .. 5 ... ... : ... .. . ... : ... .. . ... : ... .. . Z30 ...
ROW 56 : ... .. . ... ... : ... .. . ... ... : ... .. . ... : ... .. . ... : ... .. . Z30 ...
ROW 57 : ... .. 4 ... ... : ... .. 4 ... ... : ... .. . ... : ... .. . ... : ... .. . Z30 ...
ROW 58 : ... .. . ... ... : ... .. . ... ... : ... .. . ... : ... .. . ... : ... .. . Z30 ...
ROW 59 : ... .. 0 ... ... : ... .. 0 ... ... : ... .. . ... : ... .. . ... : ... .. . Z30 ...
ROW 5A : ... .. . ... ... : ... .. . ... ... : ... .. . ... : ... .. . ... : ... .. . Z30 ...
ROW 5B : ... .. . ... ... : ... .. . ... ... : ... .. . ... : ... .. . ... : ... .. . Z30 ...
ROW 5C : ... .. . ... ... : ... .. . ... ... : ... .. . ... : ... .. . ... : ... .. . Z30 ...
ROW 5D : ... .. . ... ... : ... .. . ... ... : ... .. . ... : ... .. . ... : ... .. . Z30 ...
ROW 5E : ... .. . ... ... : ... .. . ... ... : ... .. . ... : ... .. . ... : ... .. . Z30 ...
ROW 5F : ... .. . ... ... : ... .. . ... ... : ... .. . ... : ... .. . ... : ... .. . Z30 ...
ROW 60 : ... .. . ... ... : ... .. . ... ... : ... .. . ... : ... .. . ... : ... .. . Z30 ...
ROW 61 : ... .. . ... ... : ... .. . ... ... : ... .. . ... : ... .. . ... : ... .. . Z30 ...
ROW 62 : ... .. . ... ... : ... .. . ... ... : ... .. . ... : ... .. . ... : ... .. . Z30 ...
ROW 63 : ... .. . ... ... : A-3 00 0 P7E ... : C-3 00 . P80 : ... .. C ... : ... .. . Z30 ...
ROW 64 : ... .. 8 ... ... : ... .. 8 ... ... : ... .. . ... : ... .. . ... : ... .. . Z30 ...
ROW 65 : ... .. 7 ... ... : ... .. 7 ... ... : ... .. . ... : ... .. . ... : ... .. . Z30 ...
ROW 66 : ... .. 6 ... ... : ... .. 6 ... ... : ... .. . ... : ... .. . ... : ... .. . Z30 ...
ROW 67 : ... .. 5 ... ... : ... .. 5 ... ... : ... .. . ... : ... .. . ... : ... .. . Z30 ...
ROW 68 : ... .. . ... ... : ... .. . ... ... : ... .. . ... : ... .. 0 ... : ... .. . Z30 ...
ROW 69 : ... .. 4 ... ... : ... .. 4 ... ... : ... .. . ... : ... .. . ... : ... .. . Z30 ...
ROW 6A : ... .. . ... ... : ... .. . ... ... : ... .. . ... : ... .. . ... : ... .. . Z30 ...
ROW 6B : ... .. 0 ... ... : ... .. 0 ... ... : --- .. . ... : ... .. . ... : ... .. . Z30 ...
ROW 6C : C-3 00 0 P80 ... : G-3 00 0 P80 ... : ... .. . ... : ... .. . ... : ... .. . Z30 ...
ROW 6D : ... .. 8 ... ... : ... .. 8 ... ... : ... .. . ... : ... .. . ... : ... .. . Z30 ...
ROW 6E : ... .. 7 ... ... : ... .. 7 ... ... : ... .. . ... : ... .. . ... : ... .. . Z30 ...
ROW 6F : ... .. 6 ... ... : ... .. 6 ... ... : ... .. . ... : ... .. . ... : ... .. . Z30 ...
ROW 70 : ... .. 5 ... ... : ... .. 5 ... ... : ... .. . ... : ... .. . ... : ... .. . Z30 ...
ROW 71 : ... .. . ... ... : ... .. . ... ... : ... .. . ... : ... .. . ... : ... .. . Z30 ...
ROW 72 : ... .. 4 ... ... : ... .. 4 ... ... : ... .. . ... : ... .. . ... : ... .. . Z30 ...
ROW 73 : ... .. . ... ... : ... .. . ... ... : ... .. . ... : ... .. . ... : ... .. . Z30 ...
ROW 74 : ... .. 0 ... ... : ... .. 0 ... ... : ... .. . ... : ... .. . ... : ... .. . Z30 ...
ROW 75 : ... .. . ... ... : ... .. . ... ... : ... .. . ... : ... .. C ... : ... .. . Z30 ...
ROW 76 : ... .. . ... ... : ... .. . ... ... : ... .. . ... : ... .. 0 ... : ... .. . Z30 ...
ROW 77 : ... .. . ... ... : ... .. . ... ... : ... .. . ... : ... .. . ... : ... .. . Z30 ...
ROW 78 : ... .. . ... ... : ... .. . ... ... : ... .. . ... : ... .. . ... : ... .. . Z30 ...
ROW 79 : ... .. . ... ... : ... .. . ... ... : ... .. . ... : ... .. . ... : ... .. . Z30 ...
ROW 7A : ... .. . ... ... : ... .. . ... ... : ... .. . ... : ... .. . ... : ... .. . Z30 ...
ROW 7B : ... .. . ... ... : ... .. . ... ... : ... .. . ... : ... .. . ... : ... .. . Z30 ...
ROW 7C : ... .. . ... ... : ... .. . ... ... : ... .. . ... : ... .. . ... : ... .. . Z30 ...
ROW 7D : ... .. . ... ... : ... .. . ... ... : ... .. . ... : ... .. . ... : ... .. . Z30 ...
ROW 7E : ... .. . ... ... : ... .. . ... ... : G-2 00 . P81 : ... .. C ... : ... .. . Z30 ...
ROW 7F : ... .. . ... ... : ... .. . ... ... : ... .. . ... : ... .. 0 ... : ... .. . Z30 ...
ROW 80 : ... .. . ... ... : ... .. . ... ... : ... .. . ... : ... .. . ... : ... .. . Z30 ...
ROW 81 : ... .. . ... ... : ... .. . ... ... : ... .. . ... : ... .. . ... : ... .. . Z30 ...
ROW 82 : ... .. . ... ... : ... .. . ... ... : ... .. . ... : ... .. . ... : ... .. . Z30 ...
ROW 83 : ... .. . ... ... : ... .. . ... ... : ... .. . ... : ... .. . ... : ... .. . Z30 ...
ROW 84 : ... .. . ... ... : ... .. . ... ... : ... .. . ... : ... .. . ... : ... .. . Z30 ...
ROW 85 : ... .. . ... ... : ... .. . ... ... : ... .. . ... : ... .. . ... : ... .. . Z30 ...
ROW 86 : ... .. . ... ... : ... .. . ... ... : --- .. . ... : ... .. . ... : ... .. . Z30 ...
ROW 87 : ... .. . ... ... : ... .. . ... ... : ... .. . ... : ... .. C ... : ... .. . Z30 ...
ROW 88 : ... .. . ... ... : ... .. . ... ... : ... .. . ... : ... .. 0 ... : ... .. . Z30 ...
ROW 89 : ... .. . ... ... : ... .. . ... ... : ... .. . ... : ... .. . ... : ... .. . Z30 ...
ROW 8A : ... .. . ... ... : ... .. . ... ... : ... .. . ... : ... .. . ... : ... .. . Z30 ...
ROW 8B : ... .. . ... ... : ... .. . ... ... : ... .. . ... : ... .. . ... : ... .. . Z30 ...
ROW 8C : ... .. . ... ... : ... .. . ... ... : ... .. . ... : ... .. . ... : ... .. . Z30 ...
ROW 8D : ... .. . ... ... : ... .. . ... ... : ... .. . ... : ... .. . ... : ... .. . Z30 ...
ROW 8E : ... .. . ... ... : ... .. . ... ... : ... .. . ... : ... .. . ... : ... .. . Z30 ...
ROW 8F : ... .. . ... ... : ... .. . ... ... : ... .. . ... : ... .. . ... : ... .. . Z30 ...

PATTERN 1E
ROW 00 : G#3 00 0 P82 ... : C-4 00 0 P80 ... : G#2 00 . P84 : ... .. C ... : ... .. . Z30 ...
ROW 01 : ... .. 8 ... ... : ... .. 8 ... ... : ... .. . ... : ... .. . ... : ... .. . Z30 ...
ROW 02 : ... .. 7 ... ... : ... .. 7 ... ... : ... .. . ... : ... .. . ... : ... .. . Z30 ...
ROW 03 : ... .. 6 ... ... : ... .. 6 ... ... : ... .. . ... : ... .. . ... : ... .. . Z30 ...
ROW 04 : ... .. 5 ... ... : ... .. 5 ... ... : ... .. . ... : ... .. . ... : ... .. . Z30 ...
ROW 05 : ... .. . ... ... : ... .. . ... ... : ... .. . ... : ... .. 0 ... : ... .. . Z30 ...
ROW 06 : ... .. 4 ... ... : ... .. 4 ... ... : ... .. . ... : ... .. . ... : ... .. . Z30 ...
ROW 07 : ... .. . ... ... : ... .. . ... ... : ... .. . ... : ... .. . ... : ... .. . Z30 ...
ROW 08 : ... .. 0 ... ... : ... .. 0 ... ... : --- .. . ... : ... .. . ... : ... .. . Z30 ...
ROW 09 : ... .. . ... ... : ... .. . ... ... : ... .. . ... : ... .. . ... : ... .. . Z30 ...
ROW 0A : ... .. 8 ... ... : ... .. 8 ... ... : ... .. . ... : ... .. . ... : ... .. . Z30 ...
ROW 0B : ... .. 7 ... ... : ... .. 7 ... ... : ... .. . ... : ... .. . ... : ... .. . Z30 ...
ROW 0C : ... .. 6 ... ... : ... .. 6 ... ... : ... .. . ... : ... .. . ... : ... .. . Z30 ...
ROW 0D : ... .. 5 ... ... : ... .. 5 ... ... : ... .. . ... : ... .. . ... : ... .. . Z30 ...
ROW 0E : ... .. . ... ... : ... .. . ... ... : ... .. . ... : ... .. . ... : ... .. . Z30 ...
ROW 0F : ... .. 4 ... ... : ... .. 4 ... ... : ... .. . ... : ... .. . ... : ... .. . Z30 ...
ROW 10 : ... .. . ... ... : ... .. . ... ... : ... .. . ... : ... .. . ... : ... .. . Z30 ...
ROW 11 : ... .. 0 ... ... : ... .. 0 ... ... : ... .. . ... : ... .. . ... : ... .. . Z30 ...
ROW 12 : ... .. . ... ... : ... .. . ... ... : ... .. . ... : ... .. C ... : ... .. . Z30 ...
ROW 13 : ... .. . ... ... : ... .. . ... ... : ... .. . ... : ... .. 0 ... : ... .. . Z30 ...
ROW 14 : ... .. . ... ... : ... .. . ... ... : ... .. . ... : ... .. . ... : ... .. . Z30 ...
ROW 15 : ... .. . ... ... : ... .. . ... ... : ... .. . ... : ... .. . ... : ... .. . Z30 ...
ROW 16 : ... .. . ... ... : ... .. . ... ... : ... .. . ... : ... .. . ... : ... .. . Z30 ...
ROW 17 : ... .. . ... ... : ... .. . ... ... : ... .. . ... : ... .. . ... : ... .. . Z30 ...
ROW 18 : ... .. . ... ... : ... .. . ... ... : ... .. . ... : ... .. . ... : ... .. . Z30 ...
ROW 19 : ... .. . ... ... : ... .. . ... ... : ... .. . ... : ... .. . ... : ... .. . Z30 ...
ROW 1A : ... .. . ... ... : ... .. . ... ... : ... .. . ... : ... .. . ... : ... .. . Z30 ...
ROW 1B : ... .. . ... ... : ... .. . ... ... : D#3 00 . P83 : ... .. C ... : ... .. . Z30 ...
ROW 1C : ... .. 8 ... ... : ... .. 8 ... ... : ... .. . ... : ... .. . ... : ... .. . Z30 ...
ROW 1D : ... .. 7 ... ... : ... .. 7 ... ... : ... .. . ... : ... .. . ... : ... .. . Z30 ...
ROW 1E : ... .. 6 ... ... : ... .. 6 ... ... : ... .. . ... : ... .. . ... : ... .. . Z30 ...
ROW 1F : ... .. 5 ... ... : ... .. 5 ... ... : ... .. . ... : ... .. . ... : ... .. . Z30 ...
ROW 20 : ... .. . ... ... : ... .. . ... ... : ... .. . ... : ... .. 0 ... : ... .. . Z30 ...
ROW 21 : ... .. 4 ... ... : ... .. 4 ... ... : ... .. . ... : ... .. . ... : ... .. . Z30 ...
ROW 22 : ... .. . ... ... : ... .. . ... ... : ... .. . ... : ... .. . ... : ... .. . Z30 ...
ROW 23 : ... .. 0 ... ... : ... .. 0 ... ... : --- .. . ... : ... .. . ... : ... .. . Z30 ...
ROW 24 : ... .. . ... ... : ... .. . ... ... : ... .. . ... : ... .. . ... : ... .. . Z30 ...
ROW 25 : ... .. . ... ... : ... .. . ... ... : ... .. . ... : ... .. . ... : ... .. . Z30 ...
ROW 26 : ... .. . ... ... : ... .. . ... ... : ... .. . ... : ... .. . ... : ... .. . Z30 ...
ROW 27 : ... .. . ... ... : ... .. . ... ... : ... .. . ... : ... .. . ... : ... .. . Z30 ...
ROW 28 : ... .. . ... ... : ... .. . ... ... : ... .. . ... : ... .. . ... : ... .. . Z30 ...
ROW 29 : ... .. . ... ... : ... .. . ... ... : ... .. . ... : ... .. . ... : ... .. . Z30 ...
ROW 2A : ... .. . ... ... : ... .. . ... ... : ... .. . ... : ... .. . ... : ... .. . Z30 ...
ROW 2B : ... .. . ... ... : ... .. . ... ... : ... .. . ... : ... .. . ... : ... .. . Z30 ...
ROW 2C : ... .. . ... ... : ... .. . ... ... : ... .. . ... : ... .. . ... : ... .. . Z30 ...
ROW 2D : ... .. . ... ... : ... .. . ... ... : ... .. . ... : ... .. C ... : ... .. . Z30 ...
ROW 2E : ... .. 8 ... ... : ... .. 8 ... ... : ... .. . ... : ... .. 0 ... : ... .. . Z30 ...
ROW 2F : ... .. 7 ... ... : ... .. 7 ... ... : ... .. . ... : ... .. . ... : ... .. . Z30 ...
ROW 30 : ... .. 6 ... ... : ... .. 6 ... ... : ... .. . ... : ... .. . ... : ... .. . Z30 ...
ROW 31 : ... .. 5 ... ... : ... .. 5 ... ... : ... .. . ... : ... .. . ... : ... .. . Z30 ...
ROW 32 : ... .. . ... ... : ... .. . ... ... : ... .. . ... : ... .. . ... : ... .. . Z30 ...
ROW 33 : ... .. 4 ... ... : ... .. 4 ... ... : ... .. . ... : ... .. . ... : ... .. . Z30 ...
ROW 34 : ... .. . ... ... : ... .. . ... ... : ... .. . ... : ... .. . ... : ... .. . Z30 ...
ROW 35 : ... .. 0 ... ... : ... .. 0 ... ... : ... .. . ... : ... .. . ... : ... .. . Z30 ...
ROW 36 : A#3 00 0 P7C ... : D-4 00 0 P80 ... : G#3 00 . P82 : ... .. C ... : ... .. . Z30 ...
ROW 37 : ... .. 8 ... ... : ... .. 8 ... ... : ... .. . ... : ... .. . ... : ... .. . Z30 ...
ROW 38 : ... .. 7 ... ... : ... .. 7 ... ... : ... .. . ... : ... .. . ... : ... .. . Z30 ...
ROW 39 : ... .. 6 ... ... : ... .. 6 ... ... : ... .. . ... : ... .. . ... : ... .. . Z30 ...
ROW 3A : ... .. 5 ... ... : ... .. 5 ... ... : ... .. . ... : ... .. . ... : ... .. . Z30 ...
ROW 3B : ... .. . ... ... : ... .. . ... ... : ... .. . ... : ... .. 0 ... : ... .. . Z30 ...
ROW 3C : ... .. 4 ... ... : ... .. 4 ... ... : ... .. . ... : ... .. . ... : ... .. . Z30 ...
ROW 3D : ... .. . ... ... : ... .. . ... ... : ... .. . ... : ... .. . ... : ... .. . Z30 ...
ROW 3E : ... .. 0 ... ... : ... .. 0 ... ... : --- .. . ... : ... .. . ... : ... .. . Z30 ...
ROW 3F : G-3 00 0 P80 ... : E-4 00 0 P7F ... : ... .. . ... : ... .. . ... : ... .. . Z30 ...
ROW 40 : ... .. 8 ... ... : ... .. 8 ... ... : ... .. . ... : ... .. . ... : ... .. . Z30 ...
ROW 41 : ... .. 7 ... ... : ... .. 7 ... ... : ... .. . ... : ... .. . ... : ... .. . Z30 ...
ROW 42 : ... .. 6 ... ... : ... .. 6 ... ... : ... .. . ... : ... .. . ... : ... .. . Z30 ...
ROW 43 : ... .. 5 ... ... : ... .. 5 ... ... : ... .. . ... : ... .. . ... : ... .. . Z30 ...
ROW 44 : ... .. . ... ... : ... .. . ... ... : ... .. . ... : ... .. . ... : ... .. . Z30 ...
ROW 45 : ... .. 4 ... ... : ... .. 4 ... ... : ... .. . ... : ... .. . ... : ... .. . Z30 ...
ROW 46 : ... .. . ... ... : ... .. . ... ... : ... .. . ... : ... .. . ... : ... .. . Z30 ...
ROW 47 : ... .. 0 ... ... : ... .. 0 ... ... : ... .. . ... : ... .. . ... : ... .. . Z30 ...
ROW 48 : ... .. . ... ... : ... .. . ... ... : G-3 00 . P80 : ... .. C ... : ... .. . Z30 ...
ROW 49 : ... .. . ... ... : ... .. . ... ... : ... .. . ... : ... .. . ... : ... .. . Z30 ...
ROW 4A : ... .. . ... ... : ... .. . ... ... : ... .. . ... : ... .. . ... : ... .. . Z30 ...
ROW 4B : ... .. . ... ... : ... .. . ... ... : ... .. . ... : ... .. . ... : ... .. . Z30 ...
ROW 4C : ... .. . ... ... : ... .. . ... ... : ... .. . ... : ... .. . ... : ... .. . Z30 ...
ROW 4D : ... .. . ... ... : ... .. . ... ... : ... .. . ... : ... .. 0 ... : ... .. . Z30 ...
ROW 4E : ... .. . ... ... : ... .. . ... ... : ... .. . ... : ... .. . ... : ... .. . Z30 ...
ROW 4F : ... .. . ... ... : ... .. . ... ... : ... .. . ... : ... .. . ... : ... .. . Z30 ...
ROW 50 : ... .. . ... ... : ... .. . ... ... : --- .. . ... : ... .. . ... : ... .. . Z30 ...
ROW 51 : ... .. . ... ... : ... .. . ... ... : ... .. . ... : ... .. . ... : ... .. . Z30 ...
ROW 52 : ... .. . ... ... : ... .. . ... ... : ... .. . ... : ... .. . ... : ... .. . Z30 ...
ROW 53 : ... .. . ... ... : ... .. . ... ... : ... .. . ... : ... .. . ... : ... .. . Z30 ...
ROW 54 : ... .. . ... ... : ... .. . ... ... : ... .. . ... : ... .. . ... : ... .. . Z30 ...
ROW 55 : ... .. . ... ... : ... .. . ... ... : ... .. . ... : ... .. . ... : ... .. . Z30 ...
ROW 56 : ... .. . ... ... : ... .. . ... ... : ... .. . ... : ... .. . ... : ... .. . Z30 ...
ROW 57 : ... .. . ... ... : ... .. . ... ... : ... .. . ... : ... .. . ... : ... .. . Z30 ...
ROW 58 : ... .. . ... ... : ... .. . ... ... : ... .. . ... : ... .. . ... : ... .. . Z30 ...
ROW 59 : ... .. . ... ... : ... .. . ... ... : ... .. . ... : ... .. . ... : ... .. . Z30 ...
ROW 5A : ... .. . ... ... : ... .. . ... ... : ... .. . ... : ... .. . ... : ... .. . Z30 ...
ROW 5B : ... .. . ... ... : ... .. . ... ... : ... .. . ... : ... .. . ... : ... .. . Z30 ...
ROW 5C : ... .. . ... ... : ... .. . ... ... : ... .. . ... : ... .. . ... : ... .. . Z30 ...
ROW 5D : ... .. . ... ... : ... .. . ... ... : ... .. . ... : ... .. . ... : ... .. . Z30 ...
ROW 5E : ... .. . ... ... : ... .. . ... ... : ... .. . ... : ... .. . ... : ... .. . Z30 ...
ROW 5F : ... .. . ... ... : ... .. . ... ... : ... .. . ... : ... .. . ... : ... .. . Z30 ...
ROW 60 : ... .. . ... ... : ... .. . ... ... : ... .. . ... : ... .. . ... : ... .. . Z30 ...
ROW 61 : ... .. . ... ... : ... .. . ... ... : ... .. . ... : ... .. . ... : ... .. . Z30 ...
ROW 62 : ... .. . ... ... : ... .. . ... ... : ... .. . ... : ... .. . ... : ... .. . Z30 ...
ROW 63 : ... .. . ... ... : ... .. . ... ... : C-3 00 . P80 : ... .. C ... : ... .. . Z30 ...
ROW 64 : ... .. . ... ... : ... .. . ... ... : ... .. . ... : ... .. . ... : ... .. . Z30 ...
ROW 65 : ... .. . ... ... : ... .. . ... ... : ... .. . ... : ... .. . ... : ... .. . Z30 ...
ROW 66 : ... .. . ... ... : ... .. . ... ... : ... .. . ... : ... .. . ... : ... .. . Z30 ...
ROW 67 : ... .. . ... ... : ... .. . ... ... : ... .. . ... : ... .. . ... : ... .. . Z30 ...
ROW 68 : ... .. . ... ... : ... .. . ... ... : ... .. . ... : ... .. 0 ... : ... .. . Z30 ...
ROW 69 : ... .. . ... ... : ... .. . ... ... : ... .. . ... : ... .. . ... : ... .. . Z30 ...
ROW 6A : ... .. . ... ... : ... .. . ... ... : ... .. . ... : ... .. . ... : ... .. . Z30 ...
ROW 6B : ... .. . ... ... : ... .. . ... ... : --- .. . ... : ... .. . ... : ... .. . Z30 ...
ROW 6C : ... .. . ... ... : ... .. . ... ... : ... .. . ... : ... .. . ... : ... .. . Z30 ...
ROW 6D : ... .. . ... ... : ... .. . ... ... : ... .. . ... : ... .. . ... : ... .. . Z30 ...
ROW 6E : ... .. . ... ... : ... .. . ... ... : ... .. . ... : ... .. . ... : ... .. . Z30 ...
ROW 6F : ... .. . ... ... : ... .. . ... ... : ... .. . ... : ... .. . ... : ... .. . Z30 ...
ROW 70 : ... .. . ... ... : ... .. . ... ... : ... .. . ... : ... .. . ... : ... .. . Z30 ...
ROW 71 : ... .. . ... ... : ... .. . ... ... : ... .. . ... : ... .. . ... : ... .. . Z30 ...
ROW 72 : ... .. . ... ... : ... .. . ... ... : ... .. . ... : ... .. . ... : ... .. . Z30 ...
ROW 73 : ... .. . ... ... : ... .. . ... ... : ... .. . ... : ... .. . ... : ... .. . Z30 ...
ROW 74 : ... .. . ... ... : ... .. . ... ... : ... .. . ... : ... .. . ... : ... .. . Z30 ...
ROW 75 : ... .. . ... ... : ... .. . ... ... : ... .. . ... : ... .. C ... : ... .. . Z30 ...
ROW 76 : ... .. . ... ... : ... .. . ... ... : ... .. . ... : ... .. 0 ... : ... .. . Z30 ...
ROW 77 : ... .. . ... ... : ... .. . ... ... : ... .. . ... : ... .. . ... : ... .. . Z30 ...
ROW 78 : ... .. . ... ... : ... .. . ... ... : ... .. . ... : ... .. . ... : ... .. . Z30 ...
ROW 79 : ... .. . ... ... : ... .. . ... ... : ... .. . ... : ... .. . ... : ... .. . Z30 ...
ROW 7A : ... .. . ... ... : ... .. . ... ... : ... .. . ... : ... .. . ... : ... .. . Z30 ...
ROW 7B : ... .. . ... ... : ... .. . ... ... : ... .. . ... : ... .. . ... : ... .. . Z30 ...
ROW 7C : ... .. . ... ... : ... .. . ... ... : ... .. . ... : ... .. . ... : ... .. . Z30 ...
ROW 7D : ... .. . ... ... : ... .. . ... ... : ... .. . ... : ... .. . ... : ... .. . Z30 ...
ROW 7E : ... .. . ... ... : ... .. . ... ... : G-2 00 . P81 : ... .. C ... : ... .. . Z30 ...
ROW 7F : ... .. . ... ... : ... .. . ... ... : ... .. . ... : ... .. 0 ... : ... .. . Z30 ...
ROW 80 : ... .. . ... ... : ... .. . ... ... : ... .. . ... : ... .. . ... : ... .. . Z30 ...
ROW 81 : ... .. . ... ... : ... .. . ... ... : ... .. . ... : ... .. . ... : ... .. . Z30 ...
ROW 82 : ... .. . ... ... : ... .. . ... ... : ... .. . ... : ... .. . ... : ... .. . Z30 ...
ROW 83 : ... .. . ... ... : ... .. . ... ... : ... .. . ... : ... .. . ... : ... .. . Z30 ...
ROW 84 : ... .. . ... ... : ... .. . ... ... : ... .. . ... : ... .. . ... : ... .. . Z30 ...
ROW 85 : ... .. . ... ... : ... .. . ... ... : ... .. . ... : ... .. . ... : ... .. . Z30 ...
ROW 86 : ... .. . ... ... : ... .. . ... ... : --- .. . ... : ... .. . ... : ... .. . Z30 ...
ROW 87 : ... .. . ... ... : ... .. . ... ... : ... .. . ... : ... .. C ... : ... .. . Z30 ...
ROW 88 : ... .. . ... ... : ... .. . ... ... : ... .. . ... : ... .. 0 ... : ... .. . Z30 ...
ROW 89 : ... .. . ... ... : ... .. . ... ... : ... .. . ... : ... .. . ... : ... .. . Z30 ...
ROW 8A : ... .. . ... ... : ... .. . ... ... : ... .. . ... : ... .. . ... : ... .. . Z30 ...
ROW 8B : ... .. . ... ... : ... .. . ... ... : ... .. . ... : ... .. . ... : ... .. . Z30 ...
ROW 8C : ... .. . ... ... : ... .. . ... ... : ... .. . ... : ... .. . ... : ... .. . Z30 ...
ROW 8D : ... .. . ... ... : ... .. . ... ... : ... .. . ... : ... .. . ... : ... .. . Z30 ...
ROW 8E : ... .. . ... ... : ... .. . ... ... : ... .. . ... : ... .. . ... : ... .. . Z30 ...
ROW 8F : ... .. . ... ... : ... .. . ... ... : ... .. . ... : ... .. . ... : ... .. . Z30 ...

PATTERN 1F
ROW 00 : G#3 00 0 P82 ... : C-4 00 0 P80 ... : G#2 00 . P84 : ... .. C ... : ... .. . Z30 ...
ROW 01 : ... .. 8 ... ... : ... .. 8 ... ... : ... .. . ... : ... .. . ... : ... .. . Z30 ...
ROW 02 : ... .. 7 ... ... : ... .. 7 ... ... : ... .. . ... : ... .. . ... : ... .. . Z30 ...
ROW 03 : ... .. 6 ... ... : ... .. 6 ... ... : ... .. . ... : ... .. . ... : ... .. . Z30 ...
ROW 04 : ... .. 5 ... ... : ... .. 5 ... ... : ... .. . ... : ... .. . ... : ... .. . Z30 ...
ROW 05 : ... .. . ... ... : ... .. . ... ... : ... .. . ... : ... .. 0 ... : ... .. . Z30 ...
ROW 06 : ... .. 4 ... ... : ... .. 4 ... ... : ... .. . ... : ... .. . ... : ... .. . Z30 ...
ROW 07 : ... .. . ... ... : ... .. . ... ... : ... .. . ... : ... .. . ... : ... .. . Z30 ...
ROW 08 : ... .. 0 ... ... : ... .. 0 ... ... : --- .. . ... : ... .. . ... : ... .. . Z30 ...
ROW 09 : ... .. . ... ... : ... .. . ... ... : ... .. . ... : ... .. . ... : ... .. . Z30 ...
ROW 0A : ... .. 8 ... ... : ... .. 8 ... ... : ... .. . ... : ... .. . ... : ... .. . Z30 ...
ROW 0B : ... .. 7 ... ... : ... .. 7 ... ... : ... .. . ... : ... .. . ... : ... .. . Z30 ...
ROW 0C : ... .. 6 ... ... : ... .. 6 ... ... : ... .. . ... : ... .. . ... : ... .. . Z30 ...
ROW 0D : ... .. 5 ... ... : ... .. 5 ... ... : ... .. . ... : ... .. . ... : ... .. . Z30 ...
ROW 0E : ... .. . ... ... : ... .. . ... ... : ... .. . ... : ... .. . ... : ... .. . Z30 ...
ROW 0F : ... .. 4 ... ... : ... .. 4 ... ... : ... .. . ... : ... .. . ... : ... .. . Z30 ...
ROW 10 : ... .. . ... ... : ... .. . ... ... : ... .. . ... : ... .. . ... : ... .. . Z30 ...
ROW 11 : ... .. 0 ... ... : ... .. 0 ... ... : ... .. . ... : ... .. . ... : ... .. . Z30 ...
ROW 12 : ... .. . ... ... : ... .. . ... ... : ... .. . ... : ... .. C ... : ... .. . Z30 ...
ROW 13 : ... .. . ... ... : ... .. . ... ... : ... .. . ... : ... .. 0 ... : ... .. . Z30 ...
ROW 14 : ... .. . ... ... : ... .. . ... ... : ... .. . ... : ... .. . ... : ... .. . Z30 ...
ROW 15 : ... .. . ... ... : ... .. . ... ... : ... .. . ... : ... .. . ... : ... .. . Z30 ...
ROW 16 : ... .. . ... ... : ... .. . ... ... : ... .. . ... : ... .. . ... : ... .. . Z30 ...
ROW 17 : ... .. . ... ... : ... .. . ... ... : ... .. . ... : ... .. . ... : ... .. . Z30 ...
ROW 18 : ... .. . ... ... : ... .. . ... ... : ... .. . ... : ... .. . ... : ... .. . Z30 ...
ROW 19 : ... .. . ... ... : ... .. . ... ... : ... .. . ... : ... .. . ... : ... .. . Z30 ...
ROW 1A : ... .. . ... ... : ... .. . ... ... : ... .. . ... : ... .. . ... : ... .. . Z30 ...
ROW 1B : ... .. . ... ... : ... .. . ... ... : D#3 00 . P83 : ... .. C ... : ... .. . Z30 ...
ROW 1C : ... .. 8 ... ... : ... .. 8 ... ... : ... .. . ... : ... .. . ... : ... .. . Z30 ...
ROW 1D : ... .. 7 ... ... : ... .. 7 ... ... : ... .. . ... : ... .. . ... : ... .. . Z30 ...
ROW 1E : ... .. 6 ... ... : ... .. 6 ... ... : ... .. . ... : ... .. . ... : ... .. . Z30 ...
ROW 1F : ... .. 5 ... ... : ... .. 5 ... ... : ... .. . ... : ... .. . ... : ... .. . Z30 ...
ROW 20 : ... .. . ... ... : ... .. . ... ... : ... .. . ... : ... .. 0 ... : ... .. . Z30 ...
ROW 21 : ... .. 4 ... ... : ... .. 4 ... ... : ... .. . ... : ... .. . ... : ... .. . Z30 ...
ROW 22 : ... .. . ... ... : ... .. . ... ... : ... .. . ... : ... .. . ... : ... .. . Z30 ...
ROW 23 : ... .. 0 ... ... : ... .. 0 ... ... : --- .. . ... : ... .. . ... : ... .. . Z30 ...
ROW 24 : ... .. . ... ... : ... .. . ... ... : ... .. . ... : ... .. . ... : ... .. . Z30 ...
ROW 25 : ... .. . ... ... : ... .. . ... ... : ... .. . ... : ... .. . ... : ... .. . Z30 ...
ROW 26 : ... .. . ... ... : ... .. . ... ... : ... .. . ... : ... .. . ... : ... .. . Z30 ...
ROW 27 : ... .. . ... ... : ... .. . ... ... : ... .. . ... : ... .. . ... : ... .. . Z30 ...
ROW 28 : ... .. . ... ... : ... .. . ... ... : ... .. . ... : ... .. . ... : ... .. . Z30 ...
ROW 29 : ... .. . ... ... : ... .. . ... ... : ... .. . ... : ... .. . ... : ... .. . Z30 ...
ROW 2A : ... .. . ... ... : ... .. . ... ... : ... .. . ... : ... .. . ... : ... .. . Z30 ...
ROW 2B : ... .. . ... ... : ... .. . ... ... : ... .. . ... : ... .. . ... : ... .. . Z30 ...
ROW 2C : ... .. . ... ... : ... .. . ... ... : ... .. . ... : ... .. . ... : ... .. . Z30 ...
ROW 2D : ... .. . ... ... : ... .. . ... ... : ... .. . ... : ... .. C ... : ... .. . Z30 ...
ROW 2E : ... .. 8 ... ... : ... .. 8 ... ... : ... .. . ... : ... .. 0 ... : ... .. . Z30 ...
ROW 2F : ... .. 7 ... ... : ... .. 7 ... ... : ... .. . ... : ... .. . ... : ... .. . Z30 ...
ROW 30 : ... .. 6 ... ... : ... .. 6 ... ... : ... .. . ... : ... .. . ... : ... .. . Z30 ...
ROW 31 : ... .. 5 ... ... : ... .. 5 ... ... : ... .. . ... : ... .. . ... : ... .. . Z30 ...
ROW 32 : ... .. . ... ... : ... .. . ... ... : ... .. . ... : ... .. . ... : ... .. . Z30 ...
ROW 33 : ... .. 4 ... ... : ... .. 4 ... ... : ... .. . ... : ... .. . ... : ... .. . Z30 ...
ROW 34 : ... .. . ... ... : ... .. . ... ... : ... .. . ... : ... .. . ... : ... .. . Z30 ...
ROW 35 : ... .. 0 ... ... : ... .. 0 ... ... : ... .. . ... : ... .. . ... : ... .. . Z30 ...
ROW 36 : A#3 00 0 P7C ... : D-4 00 0 P80 ... : G#3 00 . P82 : ... .. C ... : ... .. . Z30 ...
ROW 37 : ... .. 8 ... ... : ... .. 8 ... ... : ... .. . ... : ... .. . ... : ... .. . Z30 ...
ROW 38 : ... .. 7 ... ... : ... .. 7 ... ... : ... .. . ... : ... .. . ... : ... .. . Z30 ...
ROW 39 : ... .. 6 ... ... : ... .. 6 ... ... : ... .. . ... : ... .. . ... : ... .. . Z30 ...
ROW 3A : ... .. 5 ... ... : ... .. 5 ... ... : ... .. . ... : ... .. . ... : ... .. . Z30 ...
ROW 3B : ... .. . ... ... : ... .. . ... ... : ... .. . ... : ... .. 0 ... : ... .. . Z30 ...
ROW 3C : ... .. 4 ... ... : ... .. 4 ... ... : ... .. . ... : ... .. . ... : ... .. . Z30 ...
ROW 3D : ... .. . ... ... : ... .. . ... ... : ... .. . ... : ... .. . ... : ... .. . Z30 ...
ROW 3E : ... .. 0 ... ... : ... .. 0 ... ... : --- .. . ... : ... .. . ... : ... .. . Z30 ...
ROW 3F : ... .. . ... ... : ... .. . ... ... : ... .. . ... : ... .. . ... : ... .. . Z30 ...
ROW 40 : ... .. . ... ... : ... .. . ... ... : ... .. . ... : ... .. . ... : ... .. . Z30 ...
ROW 41 : ... .. . ... ... : ... .. . ... ... : ... .. . ... : ... .. . ... : ... .. . Z30 ...
ROW 42 : ... .. . ... ... : ... .. . ... ... : ... .. . ... : ... .. . ... : ... .. . Z30 ...
ROW 43 : ... .. . ... ... : ... .. . ... ... : ... .. . ... : ... .. . ... : ... .. . Z30 ...
ROW 44 : ... .. . ... ... : ... .. . ... ... : ... .. . ... : ... .. . ... : ... .. . Z30 ...
ROW 45 : ... .. . ... ... : ... .. . ... ... : ... .. . ... : ... .. . ... : ... .. . Z30 ...
ROW 46 : ... .. . ... ... : ... .. . ... ... : ... .. . ... : ... .. . ... : ... .. . Z30 ...
ROW 47 : ... .. . ... ... : ... .. . ... ... : ... .. . ... : ... .. . ... : ... .. . Z30 ...
ROW 48 : G-3 00 0 P80 ... : E-4 00 0 P7F ... : G-3 00 . P80 : ... .. C ... : ... .. . Z30 ...
ROW 49 : ... .. 8 ... ... : ... .. 8 ... ... : ... .. . ... : ... .. . ... : ... .. . Z30 ...
ROW 4A : ... .. 7 ... ... : ... .. 7 ... ... : ... .. . ... : ... .. . ... : ... .. . Z30 ...
ROW 4B : ... .. 6 ... ... : ... .. 6 ... ... : ... .. . ... : ... .. . ... : ... .. . Z30 ...
ROW 4C : ... .. 5 ... ... : ... .. 5 ... ... : ... .. . ... : ... .. . ... : ... .. . Z30 ...
ROW 4D : ... .. . ... ... : ... .. . ... ... : ... .. . ... : ... .. 0 ... : ... .. . Z30 ...
ROW 4E : ... .. 4 ... ... : ... .. 4 ... ... : ... .. . ... : ... .. . ... : ... .. . Z30 ...
ROW 4F : ... .. . ... ... : ... .. . ... ... : ... .. . ... : ... .. . ... : ... .. . Z30 ...
ROW 50 : ... .. 0 ... ... : ... .. 0 ... ... : --- .. . ... : ... .. . ... : ... .. . Z30 ...
ROW 51 : E-3 00 0 P7D ... : C-4 00 0 P80 ... : ... .. . ... : ... .. . ... : ... .. . Z30 ...
ROW 52 : ... .. 8 ... ... : ... .. 8 ... ... : ... .. . ... : ... .. . ... : ... .. . Z30 ...
ROW 53 : ... .. 7 ... ... : ... .. 7 ... ... : ... .. . ... : ... .. . ... : ... .. . Z30 ...
ROW 54 : ... .. 6 ... ... : ... .. 6 ... ... : ... .. . ... : ... .. . ... : ... .. . Z30 ...
ROW 55 : ... .. 5 ... ... : ... .. 5 ... ... : ... .. . ... : ... .. . ... : ... .. . Z30 ...
ROW 56 : ... .. . ... ... : ... .. . ... ... : ... .. . ... : ... .. . ... : ... .. . Z30 ...
ROW 57 : ... .. 4 ... ... : ... .. 4 ... ... : ... .. . ... : ... .. . ... : ... .. . Z30 ...
ROW 58 : ... .. . ... ... : ... .. . ... ... : ... .. . ... : ... .. . ... : ... .. . Z30 ...
ROW 59 : ... .. 0 ... ... : ... .. 0 ... ... : ... .. . ... : ... .. . ... : ... .. . Z30 ...
ROW 5A : ... .. . ... ... : ... .. . ... ... : ... .. . ... : ... .. . ... : ... .. . Z30 ...
ROW 5B : ... .. . ... ... : ... .. . ... ... : ... .. . ... : ... .. . ... : ... .. . Z30 ...
ROW 5C : ... .. . ... ... : ... .. . ... ... : ... .. . ... : ... .. . ... : ... .. . Z30 ...
ROW 5D : ... .. . ... ... : ... .. . ... ... : ... .. . ... : ... .. . ... : ... .. . Z30 ...
ROW 5E : ... .. . ... ... : ... .. . ... ... : ... .. . ... : ... .. . ... : ... .. . Z30 ...
ROW 5F : ... .. . ... ... : ... .. . ... ... : ... .. . ... : ... .. . ... : ... .. . Z30 ...
ROW 60 : ... .. . ... ... : ... .. . ... ... : ... .. . ... : ... .. . ... : ... .. . Z30 ...
ROW 61 : ... .. . ... ... : ... .. . ... ... : ... .. . ... : ... .. . ... : ... .. . Z30 ...
ROW 62 : ... .. . ... ... : ... .. . ... ... : ... .. . ... : ... .. . ... : ... .. . Z30 ...
ROW 63 : ... .. . ... ... : A-3 00 0 P7E ... : C-3 00 . P80 : ... .. C ... : ... .. . Z30 ...
ROW 64 : ... .. 8 ... ... : ... .. 8 ... ... : ... .. . ... : ... .. . ... : ... .. . Z30 ...
ROW 65 : ... .. 7 ... ... : ... .. 7 ... ... : ... .. . ... : ... .. . ... : ... .. . Z30 ...
ROW 66 : ... .. 6 ... ... : ... .. 6 ... ... : ... .. . ... : ... .. . ... : ... .. . Z30 ...
ROW 67 : ... .. 5 ... ... : ... .. 5 ... ... : ... .. . ... : ... .. . ... : ... .. . Z30 ...
ROW 68 : ... .. . ... ... : ... .. . ... ... : ... .. . ... : ... .. 0 ... : ... .. . Z30 ...
ROW 69 : ... .. 4 ... ... : ... .. 4 ... ... : ... .. . ... : ... .. . ... : ... .. . Z30 ...
ROW 6A : ... .. . ... ... : ... .. . ... ... : ... .. . ... : ... .. . ... : ... .. . Z30 ...
ROW 6B : ... .. 0 ... ... : ... .. 0 ... ... : --- .. . ... : ... .. . ... : ... .. . Z30 ...
ROW 6C : C-3 00 0 P80 ... : G-3 00 0 P80 ... : ... .. . ... : ... .. . ... : ... .. . Z30 ...
ROW 6D : ... .. 8 ... ... : ... .. 8 ... ... : ... .. . ... : ... .. . ... : ... .. . Z30 ...
ROW 6E : ... .. 7 ... ... : ... .. 7 ... ... : ... .. . ... : ... .. . ... : ... .. . Z30 ...
ROW 6F : ... .. 6 ... ... : ... .. 6 ... ... : ... .. . ... : ... .. . ... : ... .. . Z30 ...
ROW 70 : ... .. 5 ... ... : ... .. 5 ... ... : ... .. . ... : ... .. . ... : ... .. . Z30 ...
ROW 71 : ... .. . ... ... : ... .. . ... ... : ... .. . ... : ... .. . ... : ... .. . Z30 ...
ROW 72 : ... .. 4 ... ... : ... .. 4 ... ... : ... .. . ... : ... .. . ... : ... .. . Z30 ...
ROW 73 : ... .. . ... ... : ... .. . ... ... : ... .. . ... : ... .. . ... : ... .. . Z30 ...
ROW 74 : ... .. 0 ... ... : ... .. 0 ... ... : ... .. . ... : ... .. . ... : ... .. . Z30 ...
ROW 75 : ... .. . ... ... : ... .. . ... ... : ... .. . ... : ... .. C ... : ... .. . Z30 ...
ROW 76 : ... .. . ... ... : ... .. . ... ... : ... .. . ... : ... .. 0 ... : ... .. . Z30 ...
ROW 77 : ... .. . ... ... : ... .. . ... ... : ... .. . ... : ... .. . ... : ... .. . Z30 ...
ROW 78 : ... .. . ... ... : ... .. . ... ... : ... .. . ... : ... .. . ... : ... .. . Z30 ...
ROW 79 : ... .. . ... ... : ... .. . ... ... : ... .. . ... : ... .. . ... : ... .. . Z30 ...
ROW 7A : ... .. . ... ... : ... .. . ... ... : ... .. . ... : ... .. . ... : ... .. . Z30 ...
ROW 7B : ... .. . ... ... : ... .. . ... ... : ... .. . ... : ... .. . ... : ... .. . Z30 ...
ROW 7C : ... .. . ... ... : ... .. . ... ... : ... .. . ... : ... .. . ... : ... .. . Z30 ...
ROW 7D : ... .. . ... ... : ... .. . ... ... : ... .. . ... : ... .. . ... : ... .. . Z30 ...
ROW 7E : ... .. . ... ... : ... .. . ... ... : G-2 00 . P81 : ... .. C ... : ... .. . Z30 ...
ROW 7F : ... .. . ... ... : ... .. . ... ... : ... .. . ... : ... .. 0 ... : ... .. . Z30 ...
ROW 80 : ... .. . ... ... : ... .. . ... ... : ... .. . ... : ... .. . ... : ... .. . Z30 ...
ROW 81 : ... .. . ... ... : ... .. . ... ... : ... .. . ... : ... .. . ... : ... .. . Z30 ...
ROW 82 : ... .. . ... ... : ... .. . ... ... : ... .. . ... : ... .. . ... : ... .. . Z30 ...
ROW 83 : ... .. . ... ... : ... .. . ... ... : ... .. . ... : ... .. . ... : ... .. . Z30 ...
ROW 84 : ... .. . ... ... : ... .. . ... ... : ... .. . ... : ... .. . ... : ... .. . Z30 ...
ROW 85 : ... .. . ... ... : ... .. . ... ... : ... .. . ... : ... .. . ... : ... .. . Z30 ...
ROW 86 : ... .. . ... ... : ... .. . ... ... : --- .. . ... : ... .. . ... : ... .. . Z30 ...
ROW 87 : ... .. . ... ... : ... .. . ... ... : ... .. . ... : ... .. C ... : ... .. . Z30 ...
ROW 88 : ... .. . ... ... : ... .. . ... ... : ... .. . ... : ... .. 0 ... : ... .. . Z30 ...
ROW 89 : ... .. . ... ... : ... .. . ... ... : ... .. . ... : ... .. . ... : ... .. . Z30 ...
ROW 8A : ... .. . ... ... : ... .. . ... ... : ... .. . ... : ... .. . ... : ... .. . Z30 ...
ROW 8B : ... .. . ... ... : ... .. . ... ... : ... .. . ... : ... .. . ... : ... .. . Z30 ...
ROW 8C : ... .. . ... ... : ... .. . ... ... : ... .. . ... : ... .. . ... : ... .. . Z30 ...
ROW 8D : ... .. . ... ... : ... .. . ... ... : ... .. . ... : ... .. . ... : ... .. . Z30 ...
ROW 8E : ... .. . ... ... : ... .. . ... ... : ... .. . ... : ... .. . ... : ... .. . Z30 ...
ROW 8F : ... .. . ... ... : ... .. . ... ... : ... .. . ... : ... .. . ... : ... .. . Z30 ...

PATTERN 20
ROW 00 : F#3 00 0 P7D ... : E-4 00 0 P7F ... : D-3 00 . P81 : ... .. C ... : ... .. . Z30 ...
ROW 01 : ... .. 8 ... ... : ... .. 8 ... ... : ... .. . ... : ... .. . ... : ... .. . Z30 ...
ROW 02 : ... .. 7 ... ... : ... .. 7 ... ... : ... .. . ... : ... .. . ... : ... .. . Z30 ...
ROW 03 : ... .. 6 ... ... : ... .. 6 ... ... : ... .. . ... : ... .. . ... : ... .. . Z30 ...
ROW 04 : ... .. 5 ... ... : ... .. 5 ... ... : ... .. . ... : ... .. . ... : ... .. . Z30 ...
ROW 05 : ... .. . ... ... : ... .. . ... ... : ... .. . ... : ... .. 0 ... : ... .. . Z30 ...
ROW 06 : ... .. 4 ... ... : ... .. 4 ... ... : ... .. . ... : ... .. . ... : ... .. . Z30 ...
ROW 07 : ... .. . ... ... : ... .. . ... ... : ... .. . ... : ... .. . ... : ... .. . Z30 ...
ROW 08 : ... .. 0 ... ... : ... .. 0 ... ... : --- .. . ... : ... .. . ... : ... .. . Z30 ...
ROW 09 : ... .. . ... ... : ... .. . ... ... : D-3 00 . P81 : ... .. . ... : ... .. . Z30 ...
ROW 0A : ... .. 8 ... ... : ... .. 8 ... ... : ... .. . ... : ... .. . ... : ... .. . Z30 ...
ROW 0B : ... .. 7 ... ... : ... .. 7 ... ... : ... .. . ... : ... .. . ... : ... .. . Z30 ...
ROW 0C : ... .. 6 ... ... : ... .. 6 ... ... : ... .. . ... : ... .. . ... : ... .. . Z30 ...
ROW 0D : ... .. 5 ... ... : ... .. 5 ... ... : ... .. . ... : ... .. . ... : ... .. . Z30 ...
ROW 0E : ... .. . ... ... : ... .. . ... ... : ... .. . ... : ... .. . ... : ... .. . Z30 ...
ROW 0F : ... .. 4 ... ... : ... .. 4 ... ... : ... .. . ... : ... .. . ... : ... .. . Z30 ...
ROW 10 : ... .. . ... ... : ... .. . ... ... : ... .. . ... : ... .. . ... : ... .. . Z30 ...
ROW 11 : ... .. 0 ... ... : ... .. 0 ... ... : --- .. . ... : ... .. . ... : ... .. . Z30 ...
ROW 12 : ... .. . ... ... : ... .. . ... ... : ... .. . ... : ... .. C ... : ... .. . Z30 ...
ROW 13 : ... .. . ... ... : ... .. . ... ... : ... .. . ... : ... .. 0 ... : ... .. . Z30 ...
ROW 14 : ... .. . ... ... : ... .. . ... ... : ... .. . ... : ... .. . ... : ... .. . Z30 ...
ROW 15 : ... .. . ... ... : ... .. . ... ... : ... .. . ... : ... .. . ... : ... .. . Z30 ...
ROW 16 : ... .. . ... ... : ... .. . ... ... : ... .. . ... : ... .. . ... : ... .. . Z30 ...
ROW 17 : ... .. . ... ... : ... .. . ... ... : ... .. . ... : ... .. . ... : ... .. . Z30 ...
ROW 18 : ... .. . ... ... : ... .. . ... ... : ... .. . ... : ... .. . ... : ... .. . Z30 ...
ROW 19 : ... .. . ... ... : ... .. . ... ... : ... .. . ... : ... .. . ... : ... .. . Z30 ...
ROW 1A : ... .. . ... ... : ... .. . ... ... : ... .. . ... : ... .. . ... : ... .. . Z30 ...
ROW 1B : ... .. . ... ... : ... .. . ... ... : D-3 00 . P81 : ... .. C ... : ... .. . Z30 ...
ROW 1C : ... .. 8 ... ... : ... .. 8 ... ... : ... .. . ... : ... .. . ... : ... .. . Z30 ...
ROW 1D : ... .. 7 ... ... : ... .. 7 ... ... : ... .. . ... : ... .. . ... : ... .. . Z30 ...
ROW 1E : ... .. 6 ... ... : ... .. 6 ... ... : ... .. . ... : ... .. . ... : ... .. . Z30 ...
ROW 1F : ... .. 5 ... ... : ... .. 5 ... ... : ... .. . ... : ... .. . ... : ... .. . Z30 ...
ROW 20 : ... .. . ... ... : ... .. . ... ... : ... .. . ... : ... .. 0 ... : ... .. . Z30 ...
ROW 21 : ... .. 4 ... ... : ... .. 4 ... ... : ... .. . ... : ... .. . ... : ... .. . Z30 ...
ROW 22 : ... .. . ... ... : ... .. . ... ... : ... .. . ... : ... .. . ... : ... .. . Z30 ...
ROW 23 : ... .. 0 ... ... : ... .. 0 ... ... : --- .. . ... : ... .. . ... : ... .. . Z30 ...
ROW 24 : ... .. . ... ... : ... .. . ... ... : ... .. . ... : ... .. . ... : ... .. . Z30 ...
ROW 25 : ... .. . ... ... : ... .. . ... ... : ... .. . ... : ... .. . ... : ... .. . Z30 ...
ROW 26 : ... .. . ... ... : ... .. . ... ... : ... .. . ... : ... .. . ... : ... .. . Z30 ...
ROW 27 : ... .. . ... ... : ... .. . ... ... : ... .. . ... : ... .. . ... : ... .. . Z30 ...
ROW 28 : ... .. . ... ... : ... .. . ... ... : ... .. . ... : ... .. . ... : ... .. . Z30 ...
ROW 29 : ... .. . ... ... : ... .. . ... ... : ... .. . ... : ... .. . ... : ... .. . Z30 ...
ROW 2A : ... .. . ... ... : ... .. . ... ... : ... .. . ... : ... .. . ... : ... .. . Z30 ...
ROW 2B : ... .. . ... ... : ... .. . ... ... : ... .. . ... : ... .. . ... : ... .. . Z30 ...
ROW 2C : ... .. . ... ... : ... .. . ... ... : ... .. . ... : ... .. . ... : ... .. . Z30 ...
ROW 2D : ... .. . ... ... : C-4 00 0 P80 ... : D-3 00 . P81 : ... .. C ... : ... .. . Z30 ...
ROW 2E : ... .. 8 ... ... : ... .. 8 ... ... : ... .. . ... : ... .. 0 ... : ... .. . Z30 ...
ROW 2F : ... .. 7 ... ... : ... .. 7 ... ... : ... .. . ... : ... .. . ... : ... .. . Z30 ...
ROW 30 : ... .. 6 ... ... : ... .. 6 ... ... : ... .. . ... : ... .. . ... : ... .. . Z30 ...
ROW 31 : ... .. 5 ... ... : ... .. 5 ... ... : ... .. . ... : ... .. . ... : ... .. . Z30 ...
ROW 32 : ... .. . ... ... : ... .. . ... ... : ... .. . ... : ... .. . ... : ... .. . Z30 ...
ROW 33 : ... .. 4 ... ... : ... .. 4 ... ... : ... .. . ... : ... .. . ... : ... .. . Z30 ...
ROW 34 : ... .. . ... ... : ... .. . ... ... : ... .. . ... : ... .. . ... : ... .. . Z30 ...
ROW 35 : ... .. 0 ... ... : ... .. 0 ... ... : --- .. . ... : ... .. . ... : ... .. . Z30 ...
ROW 36 : ... .. . ... ... : E-4 00 0 P7F ... : D-3 00 . P81 : ... .. C ... : ... .. . Z30 ...
ROW 37 : ... .. 8 ... ... : ... .. 8 ... ... : ... .. . ... : ... .. . ... : ... .. . Z30 ...
ROW 38 : ... .. 7 ... ... : ... .. 7 ... ... : ... .. . ... : ... .. . ... : ... .. . Z30 ...
ROW 39 : ... .. 6 ... ... : ... .. 6 ... ... : ... .. . ... : ... .. . ... : ... .. . Z30 ...
ROW 3A : ... .. 5 ... ... : ... .. 5 ... ... : ... .. . ... : ... .. . ... : ... .. . Z30 ...
ROW 3B : ... .. . ... ... : ... .. . ... ... : ... .. . ... : ... .. 0 ... : ... .. . Z30 ...
ROW 3C : ... .. 4 ... ... : ... .. 4 ... ... : ... .. . ... : ... .. . ... : ... .. . Z30 ...
ROW 3D : ... .. . ... ... : ... .. . ... ... : ... .. . ... : ... .. . ... : ... .. . Z30 ...
ROW 3E : ... .. 0 ... ... : ... .. 0 ... ... : --- .. . ... : ... .. . ... : ... .. . Z30 ...
ROW 3F : ... .. . ... ... : ... .. . ... ... : ... .. . ... : ... .. . ... : ... .. . Z30 ...
ROW 40 : ... .. . ... ... : ... .. . ... ... : ... .. . ... : ... .. . ... : ... .. . Z30 ...
ROW 41 : ... .. . ... ... : ... .. . ... ... : ... .. . ... : ... .. . ... : ... .. . Z30 ...
ROW 42 : ... .. . ... ... : ... .. . ... ... : ... .. . ... : ... .. . ... : ... .. . Z30 ...
ROW 43 : ... .. . ... ... : ... .. . ... ... : ... .. . ... : ... .. . ... : ... .. . Z30 ...
ROW 44 : ... .. . ... ... : ... .. . ... ... : ... .. . ... : ... .. . ... : ... .. . Z30 ...
ROW 45 : ... .. . ... ... : ... .. . ... ... : ... .. . ... : ... .. . ... : ... .. . Z30 ...
ROW 46 : ... .. . ... ... : ... .. . ... ... : ... .. . ... : ... .. . ... : ... .. . Z30 ...
ROW 47 : ... .. . ... ... : ... .. . ... ... : ... .. . ... : ... .. . ... : ... .. . Z30 ...
ROW 48 : B-3 00 0 P7E ... : G-4 00 0 P80 ... : G-4 00 . P80 : ... .. C ... : ... .. . Z30 ...
ROW 49 : ... .. 8 ... ... : ... .. 8 ... ... : ... .. . ... : ... .. . ... : ... .. . Z30 ...
ROW 4A : ... .. 7 ... ... : ... .. 7 ... ... : ... .. . ... : ... .. . ... : ... .. . Z30 ...
ROW 4B : ... .. 6 ... ... : ... .. 6 ... ... : ... .. . ... : ... .. . ... : ... .. . Z30 ...
ROW 4C : ... .. 5 ... ... : ... .. 5 ... ... : ... .. . ... : ... .. . ... : ... .. . Z30 ...
ROW 4D : ... .. . ... ... : ... .. . ... ... : ... .. . ... : ... .. 0 ... : ... .. . Z30 ...
ROW 4E : ... .. 4 ... ... : ... .. 4 ... ... : ... .. . ... : ... .. . ... : ... .. . Z30 ...
ROW 4F : ... .. . ... ... : ... .. . ... ... : ... .. . ... : ... .. . ... : ... .. . Z30 ...
ROW 50 : ... .. 0 ... ... : ... .. 0 ... ... : --- .. . ... : ... .. . ... : ... .. . Z30 ...
ROW 51 : ... .. . ... ... : ... .. . ... ... : ... .. . ... : ... .. . ... : ... .. . Z30 ...
ROW 52 : ... .. . ... ... : ... .. . ... ... : ... .. . ... : ... .. . ... : ... .. . Z30 ...
ROW 53 : ... .. . ... ... : ... .. . ... ... : ... .. . ... : ... .. . ... : ... .. . Z30 ...
ROW 54 : ... .. . ... ... : ... .. . ... ... : ... .. . ... : ... .. . ... : ... .. . Z30 ...
ROW 55 : ... .. . ... ... : ... .. . ... ... : ... .. . ... : ... .. . ... : ... .. . Z30 ...
ROW 56 : ... .. . ... ... : ... .. . ... ... : ... .. . ... : ... .. . ... : ... .. . Z30 ...
ROW 57 : ... .. . ... ... : ... .. . ... ... : ... .. . ... : ... .. . ... : ... .. . Z30 ...
ROW 58 : ... .. . ... ... : ... .. . ... ... : ... .. . ... : ... .. . ... : ... .. . Z30 ...
ROW 59 : ... .. . ... ... : ... .. . ... ... : ... .. . ... : ... .. . ... : ... .. . Z30 ...
ROW 5A : ... .. . ... ... : ... .. . ... ... : ... .. . ... : ... .. . ... : ... .. . Z30 ...
ROW 5B : ... .. . ... ... : ... .. . ... ... : ... .. . ... : ... .. . ... : ... .. . Z30 ...
ROW 5C : ... .. . ... ... : ... .. . ... ... : ... .. . ... : ... .. . ... : ... .. . Z30 ...
ROW 5D : ... .. . ... ... : ... .. . ... ... : ... .. . ... : ... .. . ... : ... .. . Z30 ...
ROW 5E : ... .. . ... ... : ... .. . ... ... : ... .. . ... : ... .. . ... : ... .. . Z30 ...
ROW 5F : ... .. . ... ... : ... .. . ... ... : ... .. . ... : ... .. . ... : ... .. . Z30 ...
ROW 60 : ... .. . ... ... : ... .. . ... ... : ... .. . ... : ... .. . ... : ... .. . Z30 ...
ROW 61 : ... .. . ... ... : ... .. . ... ... : ... .. . ... : ... .. . ... : ... .. . Z30 ...
ROW 62 : ... .. . ... ... : ... .. . ... ... : ... .. . ... : ... .. . ... : ... .. . Z30 ...
ROW 63 : ... .. . ... ... : ... .. . ... ... : ... .. . ... : ... .. C ... : ... .. . Z30 ...
ROW 64 : ... .. . ... ... : ... .. . ... ... : ... .. . ... : ... .. . ... : ... .. . Z30 ...
ROW 65 : ... .. . ... ... : ... .. . ... ... : ... .. . ... : ... .. . ... : ... .. . Z30 ...
ROW 66 : ... .. . ... ... : ... .. . ... ... : ... .. . ... : ... .. . ... : ... .. . Z30 ...
ROW 67 : ... .. . ... ... : ... .. . ... ... : ... .. . ... : ... .. . ... : ... .. . Z30 ...
ROW 68 : ... .. . ... ... : ... .. . ... ... : ... .. . ... : ... .. 0 ... : ... .. . Z30 ...
ROW 69 : ... .. . ... ... : ... .. . ... ... : ... .. . ... : ... .. . ... : ... .. . Z30 ...
ROW 6A : ... .. . ... ... : ... .. . ... ... : ... .. . ... : ... .. . ... : ... .. . Z30 ...
ROW 6B : ... .. . ... ... : ... .. . ... ... : ... .. . ... : ... .. . ... : ... .. . Z30 ...
ROW 6C : G-3 00 0 P80 ... : ... .. . ... ... : G-3 00 . P80 : ... .. . ... : ... .. . Z30 ...
ROW 6D : ... .. 8 ... ... : ... .. . ... ... : ... .. . ... : ... .. . ... : ... .. . Z30 ...
ROW 6E : ... .. 7 ... ... : ... .. . ... ... : ... .. . ... : ... .. . ... : ... .. . Z30 ...
ROW 6F : ... .. 6 ... ... : ... .. . ... ... : ... .. . ... : ... .. . ... : ... .. . Z30 ...
ROW 70 : ... .. 5 ... ... : ... .. . ... ... : ... .. . ... : ... .. . ... : ... .. . Z30 ...
ROW 71 : ... .. . ... ... : ... .. . ... ... : ... .. . ... : ... .. . ... : ... .. . Z30 ...
ROW 72 : ... .. 4 ... ... : ... .. . ... ... : ... .. . ... : ... .. . ... : ... .. . Z30 ...
ROW 73 : ... .. . ... ... : ... .. . ... ... : ... .. . ... : ... .. . ... : ... .. . Z30 ...
ROW 74 : ... .. 0 ... ... : ... .. . ... ... : --- .. . ... : ... .. . ... : ... .. . Z30 ...
ROW 75 : ... .. . ... ... : ... .. . ... ... : ... .. . ... : ... .. C ... : ... .. . Z30 ...
ROW 76 : ... .. . ... ... : ... .. . ... ... : ... .. . ... : ... .. 0 ... : ... .. . Z30 ...
ROW 77 : ... .. . ... ... : ... .. . ... ... : ... .. . ... : ... .. . ... : ... .. . Z30 ...
ROW 78 : ... .. . ... ... : ... .. . ... ... : ... .. . ... : ... .. . ... : ... .. . Z30 ...
ROW 79 : ... .. . ... ... : ... .. . ... ... : ... .. . ... : ... .. . ... : ... .. . Z30 ...
ROW 7A : ... .. . ... ... : ... .. . ... ... : ... .. . ... : ... .. . ... : ... .. . Z30 ...
ROW 7B : ... .. . ... ... : ... .. . ... ... : ... .. . ... : ... .. . ... : ... .. . Z30 ...
ROW 7C : ... .. . ... ... : ... .. . ... ... : ... .. . ... : ... .. . ... : ... .. . Z30 ...
ROW 7D : ... .. . ... ... : ... .. . ... ... : ... .. . ... : ... .. . ... : ... .. . Z30 ...
ROW 7E : ... .. . ... ... : ... .. . ... ... : ... .. . ... : ... .. C ... : ... .. . Z30 ...
ROW 7F : ... .. . ... ... : ... .. . ... ... : ... .. . ... : ... .. 0 ... : ... .. . Z30 ...
ROW 80 : ... .. . ... ... : ... .. . ... ... : ... .. . ... : ... .. . ... : ... .. . Z30 ...
ROW 81 : ... .. . ... ... : ... .. . ... ... : ... .. . ... : ... .. . ... : ... .. . Z30 ...
ROW 82 : ... .. . ... ... : ... .. . ... ... : ... .. . ... : ... .. . ... : ... .. . Z30 ...
ROW 83 : ... .. . ... ... : ... .. . ... ... : ... .. . ... : ... .. . ... : ... .. . Z30 ...
ROW 84 : ... .. . ... ... : ... .. . ... ... : ... .. . ... : ... .. . ... : ... .. . Z30 ...
ROW 85 : ... .. . ... ... : ... .. . ... ... : ... .. . ... : ... .. . ... : ... .. . Z30 ...
ROW 86 : ... .. . ... ... : ... .. . ... ... : ... .. . ... : ... .. . ... : ... .. . Z30 ...
ROW 87 : ... .. . ... ... : ... .. . ... ... : ... .. . ... : ... .. C ... : ... .. . Z30 ...
ROW 88 : ... .. . ... ... : ... .. . ... ... : ... .. . ... : ... .. 0 ... : ... .. . Z30 ...
ROW 89 : ... .. . ... ... : ... .. . ... ... : ... .. . ... : ... .. . ... : ... .. . Z30 ...
ROW 8A : ... .. . ... ... : ... .. . ... ... : ... .. . ... : ... .. . ... : ... .. . Z30 ...
ROW 8B : ... .. . ... ... : ... .. . ... ... : ... .. . ... : ... .. . ... : ... .. . Z30 ...
ROW 8C : ... .. . ... ... : ... .. . ... ... : ... .. . ... : ... .. . ... : ... .. . Z30 ...
ROW 8D : ... .. . ... ... : ... .. . ... ... : ... .. . ... : ... .. . ... : ... .. . Z30 ...
ROW 8E : ... .. . ... ... : ... .. . ... ... : ... .. . ... : ... .. . ... : ... .. . Z30 ...
ROW 8F : ... .. . ... ... : ... .. . ... ... : ... .. . ... : ... .. . ... : ... .. . Z30 ...

PATTERN 21
ROW 00 : C-4 00 0 P80 ... : E-4 00 0 P7F ... : C-3 00 . P80 : ... .. C ... : ... .. . Z30 ...
ROW 01 : ... .. 8 ... ... : ... .. 8 ... ... : ... .. . ... : ... .. 0 ... : ... .. . Z30 ...
ROW 02 : ... .. 7 ... ... : ... .. 7 ... ... : ... .. . ... : ... .. . ... : ... .. . Z30 ...
ROW 03 : ... .. 6 ... ... : ... .. 6 ... ... : ... .. . ... : ... .. . ... : ... .. . Z30 ...
ROW 04 : ... .. 5 ... ... : ... .. 5 ... ... : ... .. . ... : ... .. . ... : ... .. . Z30 ...
ROW 05 : ... .. . ... ... : ... .. . ... ... : ... .. . ... : ... .. . ... : ... .. . Z30 ...
ROW 06 : ... .. 4 ... ... : ... .. 4 ... ... : ... .. . ... : ... .. . ... : ... .. . Z30 ...
ROW 07 : ... .. . ... ... : ... .. . ... ... : ... .. . ... : ... .. . ... : ... .. . Z30 ...
ROW 08 : ... .. 0 ... ... : ... .. 0 ... ... : --- .. . ... : ... .. . ... : ... .. . Z30 ...
ROW 09 : A-3 00 0 P7E ... : C-4 00 0 P80 ... : ... .. . ... : ... .. . ... : ... .. . Z30 ...
ROW 0A : ... .. 8 ... ... : ... .. 8 ... ... : ... .. . ... : ... .. . ... : ... .. . Z30 ...
ROW 0B : ... .. 7 ... ... : ... .. 7 ... ... : ... .. . ... : ... .. . ... : ... .. . Z30 ...
ROW 0C : ... .. 6 ... ... : ... .. 6 ... ... : ... .. . ... : ... .. . ... : ... .. . Z30 ...
ROW 0D : ... .. 5 ... ... : ... .. 5 ... ... : ... .. . ... : ... .. . ... : ... .. . Z30 ...
ROW 0E : ... .. . ... ... : ... .. . ... ... : ... .. . ... : ... .. . ... : ... .. . Z30 ...
ROW 0F : ... .. 4 ... ... : ... .. 4 ... ... : ... .. . ... : ... .. . ... : ... .. . Z30 ...
ROW 10 : ... .. . ... ... : ... .. . ... ... : ... .. . ... : ... .. . ... : ... .. . Z30 ...
ROW 11 : ... .. 0 ... ... : ... .. 0 ... ... : ... .. . ... : ... .. . ... : ... .. . Z30 ...
ROW 12 : ... .. . ... ... : ... .. . ... ... : ... .. . ... : ... .. . ... : ... .. . Z30 ...
ROW 13 : ... .. . ... ... : ... .. . ... ... : ... .. . ... : ... .. . ... : ... .. . Z30 ...
ROW 14 : ... .. . ... ... : ... .. . ... ... : ... .. . ... : ... .. . ... : ... .. . Z30 ...
ROW 15 : ... .. . ... ... : ... .. . ... ... : ... .. . ... : ... .. . ... : ... .. . Z30 ...
ROW 16 : ... .. . ... ... : ... .. . ... ... : ... .. . ... : ... .. . ... : ... .. . Z30 ...
ROW 17 : ... .. . ... ... : ... .. . ... ... : ... .. . ... : ... .. . ... : ... .. . Z30 ...
ROW 18 : ... .. . ... ... : ... .. . ... ... : ... .. . ... : ... .. . ... : ... .. . Z30 ...
ROW 19 : ... .. . ... ... : ... .. . ... ... : ... .. . ... : ... .. . ... : ... .. . Z30 ...
ROW 1A : ... .. . ... ... : ... .. . ... ... : ... .. . ... : ... .. . ... : ... .. . Z30 ...
ROW 1B : E-3 00 0 P7D ... : G-3 00 0 P80 ... : F#3 00 . P7D : ... .. C ... : ... .. . Z30 ...
ROW 1C : ... .. 8 ... ... : ... .. 8 ... ... : ... .. . ... : ... .. 0 ... : ... .. . Z30 ...
ROW 1D : ... .. 7 ... ... : ... .. 7 ... ... : ... .. . ... : ... .. . ... : ... .. . Z30 ...
ROW 1E : ... .. 6 ... ... : ... .. 6 ... ... : ... .. . ... : ... .. . ... : ... .. . Z30 ...
ROW 1F : ... .. 5 ... ... : ... .. 5 ... ... : ... .. . ... : ... .. . ... : ... .. . Z30 ...
ROW 20 : ... .. . ... ... : ... .. . ... ... : ... .. . ... : ... .. . ... : ... .. . Z30 ...
ROW 21 : ... .. 4 ... ... : ... .. 4 ... ... : ... .. . ... : ... .. . ... : ... .. . Z30 ...
ROW 22 : ... .. . ... ... : ... .. . ... ... : ... .. . ... : ... .. . ... : ... .. . Z30 ...
ROW 23 : ... .. 0 ... ... : ... .. 0 ... ... : --- .. . ... : ... .. . ... : ... .. . Z30 ...
ROW 24 : ... .. . ... ... : ... .. . ... ... : G-3 00 . P80 : ... .. C ... : ... .. . Z30 ...
ROW 25 : ... .. . ... ... : ... .. . ... ... : ... .. . ... : ... .. . ... : ... .. . Z30 ...
ROW 26 : ... .. . ... ... : ... .. . ... ... : ... .. . ... : ... .. . ... : ... .. . Z30 ...
ROW 27 : ... .. . ... ... : ... .. . ... ... : ... .. . ... : ... .. . ... : ... .. . Z30 ...
ROW 28 : ... .. . ... ... : ... .. . ... ... : ... .. . ... : ... .. . ... : ... .. . Z30 ...
ROW 29 : ... .. . ... ... : ... .. . ... ... : ... .. . ... : ... .. 0 ... : ... .. . Z30 ...
ROW 2A : ... .. . ... ... : ... .. . ... ... : ... .. . ... : ... .. . ... : ... .. . Z30 ...
ROW 2B : ... .. . ... ... : ... .. . ... ... : ... .. . ... : ... .. . ... : ... .. . Z30 ...
ROW 2C : ... .. . ... ... : ... .. . ... ... : --- .. . ... : ... .. . ... : ... .. . Z30 ...
ROW 2D : ... .. . ... ... : ... .. . ... ... : ... .. . ... : ... .. . ... : ... .. . Z30 ...
ROW 2E : ... .. . ... ... : ... .. . ... ... : ... .. . ... : ... .. . ... : ... .. . Z30 ...
ROW 2F : ... .. . ... ... : ... .. . ... ... : ... .. . ... : ... .. . ... : ... .. . Z30 ...
ROW 30 : ... .. . ... ... : ... .. . ... ... : ... .. . ... : ... .. . ... : ... .. . Z30 ...
ROW 31 : ... .. . ... ... : ... .. . ... ... : ... .. . ... : ... .. . ... : ... .. . Z30 ...
ROW 32 : ... .. . ... ... : ... .. . ... ... : ... .. . ... : ... .. . ... : ... .. . Z30 ...
ROW 33 : ... .. . ... ... : ... .. . ... ... : ... .. . ... : ... .. . ... : ... .. . Z30 ...
ROW 34 : ... .. . ... ... : ... .. . ... ... : ... .. . ... : ... .. . ... : ... .. . Z30 ...
ROW 35 : ... .. . ... ... : ... .. . ... ... : ... .. . ... : ... .. . ... : ... .. . Z30 ...
ROW 36 : ... .. . ... ... : G#3 00 0 P82 ... : C-4 00 . P80 : ... .. C ... : ... .. . Z30 ...
ROW 37 : ... .. 8 ... ... : ... .. 8 ... ... : ... .. . ... : ... .. 0 ... : ... .. . Z30 ...
ROW 38 : ... .. 7 ... ... : ... .. 7 ... ... : ... .. . ... : ... .. . ... : ... .. . Z30 ...
ROW 39 : ... .. 6 ... ... : ... .. 6 ... ... : ... .. . ... : ... .. . ... : ... .. . Z30 ...
ROW 3A : ... .. 5 ... ... : ... .. 5 ... ... : ... .. . ... : ... .. . ... : ... .. . Z30 ...
ROW 3B : ... .. . ... ... : ... .. . ... ... : ... .. . ... : ... .. . ... : ... .. . Z30 ...
ROW 3C : ... .. 4 ... ... : ... .. 4 ... ... : ... .. . ... : ... .. . ... : ... .. . Z30 ...
ROW 3D : ... .. . ... ... : ... .. . ... ... : ... .. . ... : ... .. . ... : ... .. . Z30 ...
ROW 3E : ... .. 0 ... ... : ... .. 0 ... ... : --- .. . ... : ... .. . ... : ... .. . Z30 ...
ROW 3F : ... .. . ... ... : ... .. . ... ... : ... .. . ... : ... .. . ... : ... .. . Z30 ...
ROW 40 : ... .. . ... ... : ... .. . ... ... : ... .. . ... : ... .. . ... : ... .. . Z30 ...
ROW 41 : ... .. . ... ... : ... .. . ... ... : ... .. . ... : ... .. . ... : ... .. . Z30 ...
ROW 42 : ... .. . ... ... : ... .. . ... ... : ... .. . ... : ... .. . ... : ... .. . Z30 ...
ROW 43 : ... .. . ... ... : ... .. . ... ... : ... .. . ... : ... .. . ... : ... .. . Z30 ...
ROW 44 : ... .. . ... ... : ... .. . ... ... : ... .. . ... : ... .. . ... : ... .. . Z30 ...
ROW 45 : ... .. . ... ... : ... .. . ... ... : ... .. . ... : ... .. . ... : ... .. . Z30 ...
ROW 46 : ... .. . ... ... : ... .. . ... ... : ... .. . ... : ... .. . ... : ... .. . Z30 ...
ROW 47 : ... .. . ... ... : ... .. . ... ... : ... .. . ... : ... .. . ... : ... .. . Z30 ...
ROW 48 : F-3 00 0 P80 ... : A-3 00 0 P7E ... : F-3 00 . P80 : ... .. C ... : ... .. . Z30 ...
ROW 49 : ... .. 8 ... ... : ... .. 8 ... ... : ... .. . ... : ... .. 0 ... : ... .. . Z30 ...
ROW 4A : ... .. 7 ... ... : ... .. 7 ... ... : ... .. . ... : ... .. . ... : ... .. . Z30 ...
ROW 4B : ... .. 6 ... ... : ... .. 6 ... ... : ... .. . ... : ... .. . ... : ... .. . Z30 ...
ROW 4C : ... .. 5 ... ... : ... .. 5 ... ... : ... .. . ... : ... .. . ... : ... .. . Z30 ...
ROW 4D : ... .. . ... ... : ... .. . ... ... : ... .. . ... : ... .. . ... : ... .. . Z30 ...
ROW 4E : ... .. 4 ... ... : ... .. 4 ... ... : ... .. . ... : ... .. . ... : ... .. . Z30 ...
ROW 4F : ... .. . ... ... : ... .. . ... ... : ... .. . ... : ... .. . ... : ... .. . Z30 ...
ROW 50 : ... .. 0 ... ... : ... .. 0 ... ... : --- .. . ... : ... .. . ... : ... .. . Z30 ...
ROW 51 : C-4 00 0 P80 ... : F-4 00 0 P80 ... : ... .. . ... : ... .. . ... : ... .. . Z30 ...
ROW 52 : ... .. 8 ... ... : ... .. 8 ... ... : ... .. . ... : ... .. . ... : ... .. . Z30 ...
ROW 53 : ... .. 7 ... ... : ... .. 7 ... ... : ... .. . ... : ... .. . ... : ... .. . Z30 ...
ROW 54 : ... .. 6 ... ... : ... .. 6 ... ... : ... .. . ... : ... .. . ... : ... .. . Z30 ...
ROW 55 : ... .. 5 ... ... : ... .. 5 ... ... : ... .. . ... : ... .. . ... : ... .. . Z30 ...
ROW 56 : ... .. . ... ... : ... .. . ... ... : ... .. . ... : ... .. . ... : ... .. . Z30 ...
ROW 57 : ... .. 4 ... ... : ... .. 4 ... ... : ... .. . ... : ... .. . ... : ... .. . Z30 ...
ROW 58 : ... .. . ... ... : ... .. . ... ... : ... .. . ... : ... .. . ... : ... .. . Z30 ...
ROW 59 : ... .. 0 ... ... : ... .. 0 ... ... : ... .. . ... : ... .. . ... : ... .. . Z30 ...
ROW 5A : ... .. . ... ... : ... .. . ... ... : F-3 00 . P80 : ... .. . ... : ... .. . Z30 ...
ROW 5B : ... .. . ... ... : ... .. . ... ... : ... .. . ... : ... .. . ... : ... .. . Z30 ...
ROW 5C : ... .. . ... ... : ... .. . ... ... : ... .. . ... : ... .. . ... : ... .. . Z30 ...
ROW 5D : ... .. . ... ... : ... .. . ... ... : ... .. . ... : ... .. . ... : ... .. . Z30 ...
ROW 5E : ... .. . ... ... : ... .. . ... ... : ... .. . ... : ... .. . ... : ... .. . Z30 ...
ROW 5F : ... .. . ... ... : ... .. . ... ... : ... .. . ... : ... .. . ... : ... .. . Z30 ...
ROW 60 : ... .. . ... ... : ... .. . ... ... : ... .. . ... : ... .. . ... : ... .. . Z30 ...
ROW 61 : ... .. . ... ... : ... .. . ... ... : ... .. . ... : ... .. . ... : ... .. . Z30 ...
ROW 62 : ... .. . ... ... : ... .. . ... ... : --- .. . ... : ... .. . ... : ... .. . Z30 ...
ROW 63 : ... .. . ... ... : ... .. . ... ... : ... .. . ... : ... .. C ... : ... .. . Z30 ...
ROW 64 : ... .. 8 ... ... : ... .. 8 ... ... : ... .. . ... : ... .. 0 ... : ... .. . Z30 ...
ROW 65 : ... .. 7 ... ... : ... .. 7 ... ... : ... .. . ... : ... .. . ... : ... .. . Z30 ...
ROW 66 : ... .. 6 ... ... : ... .. 6 ... ... : ... .. . ... : ... .. . ... : ... .. . Z30 ...
ROW 67 : ... .. 5 ... ... : ... .. 5 ... ... : ... .. . ... : ... .. . ... : ... .. . Z30 ...
ROW 68 : ... .. . ... ... : ... .. . ... ... : ... .. . ... : ... .. . ... : ... .. . Z30 ...
ROW 69 : ... .. 4 ... ... : ... .. 4 ... ... : ... .. . ... : ... .. . ... : ... .. . Z30 ...
ROW 6A : ... .. . ... ... : ... .. . ... ... : ... .. . ... : ... .. . ... : ... .. . Z30 ...
ROW 6B : ... .. 0 ... ... : ... .. 0 ... ... : ... .. . ... : ... .. . ... : ... .. . Z30 ...
ROW 6C : F-3 00 0 P80 ... : A-3 00 0 P7E ... : C-4 00 . P80 : ... .. C ... : ... .. . Z30 ...
ROW 6D : ... .. 8 ... ... : ... .. 8 ... ... : ... .. . ... : ... .. . ... : ... .. . Z30 ...
ROW 6E : ... .. 7 ... ... : ... .. 7 ... ... : ... .. . ... : ... .. . ... : ... .. . Z30 ...
ROW 6F : ... .. 6 ... ... : ... .. 6 ... ... : ... .. . ... : ... .. . ... : ... .. . Z30 ...
ROW 70 : ... .. 5 ... ... : ... .. 5 ... ... : ... .. . ... : ... .. . ... : ... .. . Z30 ...
ROW 71 : ... .. . ... ... : ... .. . ... ... : ... .. . ... : ... .. 0 ... : ... .. . Z30 ...
ROW 72 : ... .. 4 ... ... : ... .. 4 ... ... : ... .. . ... : ... .. . ... : ... .. . Z30 ...
ROW 73 : ... .. . ... ... : ... .. . ... ... : ... .. . ... : ... .. . ... : ... .. . Z30 ...
ROW 74 : ... .. 0 ... ... : ... .. 0 ... ... : --- .. . ... : ... .. . ... : ... .. . Z30 ...
ROW 75 : ... .. . ... ... : ... .. . ... ... : C-4 00 . P80 : ... .. . ... : ... .. . Z30 ...
ROW 76 : ... .. . ... ... : ... .. . ... ... : ... .. . ... : ... .. . ... : ... .. . Z30 ...
ROW 77 : ... .. . ... ... : ... .. . ... ... : ... .. . ... : ... .. . ... : ... .. . Z30 ...
ROW 78 : ... .. . ... ... : ... .. . ... ... : ... .. . ... : ... .. . ... : ... .. . Z30 ...
ROW 79 : ... .. . ... ... : ... .. . ... ... : ... .. . ... : ... .. . ... : ... .. . Z30 ...
ROW 7A : ... .. . ... ... : ... .. . ... ... : ... .. . ... : ... .. . ... : ... .. . Z30 ...
ROW 7B : ... .. . ... ... : ... .. . ... ... : ... .. . ... : ... .. . ... : ... .. . Z30 ...
ROW 7C : ... .. . ... ... : ... .. . ... ... : ... .. . ... : ... .. . ... : ... .. . Z30 ...
ROW 7D : ... .. . ... ... : ... .. . ... ... : --- .. . ... : ... .. . ... : ... .. . Z30 ...
ROW 7E : ... .. . ... ... : ... .. . ... ... : F-3 00 . P80 : ... .. C ... : ... .. . Z30 ...
ROW 7F : ... .. . ... ... : ... .. . ... ... : ... .. . ... : ... .. 0 ... : ... .. . Z30 ...
ROW 80 : ... .. . ... ... : ... .. . ... ... : ... .. . ... : ... .. . ... : ... .. . Z30 ...
ROW 81 : ... .. . ... ... : ... .. . ... ... : ... .. . ... : ... .. . ... : ... .. . Z30 ...
ROW 82 : ... .. . ... ... : ... .. . ... ... : ... .. . ... : ... .. . ... : ... .. . Z30 ...
ROW 83 : ... .. . ... ... : ... .. . ... ... : ... .. . ... : ... .. . ... : ... .. . Z30 ...
ROW 84 : ... .. . ... ... : ... .. . ... ... : ... .. . ... : ... .. . ... : ... .. . Z30 ...
ROW 85 : ... .. . ... ... : ... .. . ... ... : ... .. . ... : ... .. . ... : ... .. . Z30 ...
ROW 86 : ... .. . ... ... : ... .. . ... ... : --- .. . ... : ... .. . ... : ... .. . Z30 ...
ROW 87 : ... .. . ... ... : ... .. . ... ... : ... .. . ... : ... .. . ... : ... .. . Z30 ...
ROW 88 : ... .. . ... ... : ... .. . ... ... : ... .. . ... : ... .. . ... : ... .. . Z30 ...
ROW 89 : ... .. . ... ... : ... .. . ... ... : ... .. . ... : ... .. . ... : ... .. . Z30 ...
ROW 8A : ... .. . ... ... : ... .. . ... ... : ... .. . ... : ... .. . ... : ... .. . Z30 ...
ROW 8B : ... .. . ... ... : ... .. . ... ... : ... .. . ... : ... .. . ... : ... .. . Z30 ...
ROW 8C : ... .. . ... ... : ... .. . ... ... : ... .. . ... : ... .. . ... : ... .. . Z30 ...
ROW 8D : ... .. . ... ... : ... .. . ... ... : ... .. . ... : ... .. . ... : ... .. . Z30 ...
ROW 8E : ... .. . ... ... : ... .. . ... ... : ... .. . ... : ... .. . ... : ... .. . Z30 ...
ROW 8F : ... .. . ... ... : ... .. . ... ... : ... .. . ... : ... .. . ... : ... .. . Z30 ...

PATTERN 22
ROW 00 : G-3 00 0 P80 ... : B-3 00 0 P7E ... : D-3 00 . P81 : ... .. C ... : ... .. . Z30 ...
ROW 01 : ... .. 8 ... ... : ... .. 8 ... ... : ... .. . ... : ... .. 0 ... : ... .. . Z30 ...
ROW 02 : ... .. 7 ... ... : ... .. 7 ... ... : ... .. . ... : ... .. . ... : ... .. . Z30 ...
ROW 03 : ... .. 6 ... ... : ... .. 6 ... ... : ... .. . ... : ... .. . ... : ... .. . Z30 ...
ROW 04 : ... .. 5 ... ... : ... .. 5 ... ... : ... .. . ... : ... .. . ... : ... .. . Z30 ...
ROW 05 : ... .. . ... ... : ... .. . ... ... : ... .. . ... : ... .. . ... : ... .. . Z30 ...
ROW 06 : ... .. 4 ... ... : ... .. 4 ... ... : ... .. . ... : ... .. . ... : ... .. . Z30 ...
ROW 07 : ... .. . ... ... : ... .. . ... ... : ... .. . ... : ... .. . ... : ... .. . Z30 ...
ROW 08 : ... .. 0 ... ... : ... .. 0 ... ... : --- .. . ... : ... .. . ... : ... .. . Z30 ...
ROW 09 : ... .. . ... ... : ... .. . ... ... : ... .. . ... : ... .. . ... : ... .. . Z30 ...
ROW 0A : ... .. . ... ... : ... .. . ... ... : ... .. . ... : ... .. . ... : ... .. . Z30 ...
ROW 0B : ... .. . ... ... : ... .. . ... ... : ... .. . ... : ... .. . ... : ... .. . Z30 ...
ROW 0C : F-4 00 0 P80 ... : A-4 00 0 P7F ... : ... .. . ... : ... .. . ... : ... .. . Z30 ...
ROW 0D : ... .. 8 ... ... : ... .. 8 ... ... : ... .. . ... : ... .. . ... : ... .. . Z30 ...
ROW 0E : ... .. 7 ... ... : ... .. 7 ... ... : ... .. . ... : ... .. . ... : ... .. . Z30 ...
ROW 0F : ... .. 6 ... ... : ... .. 6 ... ... : ... .. . ... : ... .. . ... : ... .. . Z30 ...
ROW 10 : ... .. 5 ... ... : ... .. 5 ... ... : ... .. . ... : ... .. . ... : ... .. . Z30 ...
ROW 11 : ... .. . ... ... : ... .. . ... ... : ... .. . ... : ... .. . ... : ... .. . Z30 ...
ROW 12 : ... .. 4 ... ... : ... .. 4 ... ... : ... .. . ... : ... .. . ... : ... .. . Z30 ...
ROW 13 : ... .. . ... ... : ... .. . ... ... : ... .. . ... : ... .. . ... : ... .. . Z30 ...
ROW 14 : ... .. 0 ... ... : ... .. 0 ... ... : ... .. . ... : ... .. . ... : ... .. . Z30 ...
ROW 15 : ... .. . ... ... : ... .. . ... ... : ... .. . ... : ... .. . ... : ... .. . Z30 ...
ROW 16 : ... .. . ... ... : ... .. . ... ... : ... .. . ... : ... .. . ... : ... .. . Z30 ...
ROW 17 : ... .. . ... ... : ... .. . ... ... : ... .. . ... : ... .. . ... : ... .. . Z30 ...
ROW 18 : ... .. . ... ... : ... .. . ... ... : ... .. . ... : ... .. . ... : ... .. . Z30 ...
ROW 19 : ... .. 8 ... ... : ... .. 8 ... ... : ... .. . ... : ... .. . ... : ... .. . Z30 ...
ROW 1A : ... .. 7 ... ... : ... .. 7 ... ... : ... .. . ... : ... .. . ... : ... .. . Z30 ...
ROW 1B : ... .. 6 ... ... : ... .. 6 ... ... : F-3 00 . P80 : ... .. C ... : ... .. . Z30 ...
ROW 1C : ... .. 5 ... ... : ... .. 5 ... ... : ... .. . ... : ... .. 0 ... : ... .. . Z30 ...
ROW 1D : ... .. . ... ... : ... .. . ... ... : ... .. . ... : ... .. . ... : ... .. . Z30 ...
ROW 1E : ... .. 4 ... ... : ... .. 4 ... ... : ... .. . ... : ... .. . ... : ... .. . Z30 ...
ROW 1F : ... .. . ... ... : ... .. . ... ... : ... .. . ... : ... .. . ... : ... .. . Z30 ...
ROW 20 : ... .. 0 ... ... : ... .. 0 ... ... : ... .. . ... : ... .. . ... : ... .. . Z30 ...
ROW 21 : ... .. . ... ... : ... .. . ... ... : ... .. . ... : ... .. . ... : ... .. . Z30 ...
ROW 22 : ... .. . ... ... : ... .. . ... ... : ... .. . ... : ... .. . ... : ... .. . Z30 ...
ROW 23 : ... .. . ... ... : ... .. . ... ... : --- .. . ... : ... .. . ... : ... .. . Z30 ...
ROW 24 : ... .. . ... ... : ... .. . ... ... : G-3 00 . P80 : ... .. C ... : ... .. . Z30 ...
ROW 25 : ... .. 8 ... ... : ... .. 8 ... ... : ... .. . ... : ... .. . ... : ... .. . Z30 ...
ROW 26 : ... .. 7 ... ... : ... .. 7 ... ... : ... .. . ... : ... .. . ... : ... .. . Z30 ...
ROW 27 : ... .. 6 ... ... : ... .. 6 ... ... : ... .. . ... : ... .. . ... : ... .. . Z30 ...
ROW 28 : ... .. 5 ... ... : ... .. 5 ... ... : ... .. . ... : ... .. . ... : ... .. . Z30 ...
ROW 29 : ... .. . ... ... : ... .. . ... ... : ... .. . ... : ... .. 0 ... : ... .. . Z30 ...
ROW 2A : ... .. 4 ... ... : ... .. 4 ... ... : ... .. . ... : ... .. . ... : ... .. . Z30 ...
ROW 2B : ... .. . ... ... : ... .. . ... ... : ... .. . ... : ... .. . ... : ... .. . Z30 ...
ROW 2C : ... .. 0 ... ... : ... .. 0 ... ... : --- .. . ... : ... .. . ... : ... .. . Z30 ...
ROW 2D : ... .. . ... ... : ... .. . ... ... : ... .. . ... : ... .. . ... : ... .. . Z30 ...
ROW 2E : ... .. . ... ... : ... .. . ... ... : ... .. . ... : ... .. . ... : ... .. . Z30 ...
ROW 2F : ... .. . ... ... : ... .. . ... ... : ... .. . ... : ... .. . ... : ... .. . Z30 ...
ROW 30 : E-4 00 0 P7F ... : G-4 00 0 P80 ... : ... .. . ... : ... .. . ... : ... .. . Z30 ...
ROW 31 : ... .. 8 ... ... : ... .. 8 ... ... : ... .. . ... : ... .. . ... : ... .. . Z30 ...
ROW 32 : ... .. 7 ... ... : ... .. 7 ... ... : ... .. . ... : ... .. . ... : ... .. . Z30 ...
ROW 33 : ... .. 6 ... ... : ... .. 6 ... ... : ... .. . ... : ... .. . ... : ... .. . Z30 ...
ROW 34 : ... .. 5 ... ... : ... .. 5 ... ... : ... .. . ... : ... .. . ... : ... .. . Z30 ...
ROW 35 : ... .. . ... ... : ... .. . ... ... : ... .. . ... : ... .. . ... : ... .. . Z30 ...
ROW 36 : ... .. 4 ... ... : ... .. 4 ... ... : B-3 00 . P7E : ... .. C ... : ... .. . Z30 ...
ROW 37 : ... .. . ... ... : ... .. . ... ... : ... .. . ... : ... .. 0 ... : ... .. . Z30 ...
ROW 38 : ... .. 0 ... ... : ... .. 0 ... ... : ... .. . ... : ... .. . ... : ... .. . Z30 ...
ROW 39 : ... .. . ... ... : ... .. . ... ... : ... .. . ... : ... .. . ... : ... .. . Z30 ...
ROW 3A : ... .. . ... ... : ... .. . ... ... : ... .. . ... : ... .. . ... : ... .. . Z30 ...
ROW 3B : ... .. . ... ... : ... .. . ... ... : ... .. . ... : ... .. . ... : ... .. . Z30 ...
ROW 3C : D-4 00 0 P80 ... : F-4 00 0 P80 ... : ... .. . ... : ... .. . ... : ... .. . Z30 ...
ROW 3D : ... .. 8 ... ... : ... .. 8 ... ... : ... .. . ... : ... .. . ... : ... .. . Z30 ...
ROW 3E : ... .. 7 ... ... : ... .. 7 ... ... : --- .. . ... : ... .. . ... : ... .. . Z30 ...
ROW 3F : ... .. 6 ... ... : ... .. 6 ... ... : ... .. . ... : ... .. . ... : ... .. . Z30 ...
ROW 40 : ... .. 5 ... ... : ... .. 5 ... ... : ... .. . ... : ... .. . ... : ... .. . Z30 ...
ROW 41 : ... .. . ... ... : ... .. . ... ... : ... .. . ... : ... .. . ... : ... .. . Z30 ...
ROW 42 : ... .. 4 ... ... : ... .. 4 ... ... : ... .. . ... : ... .. . ... : ... .. . Z30 ...
ROW 43 : ... .. . ... ... : ... .. . ... ... : ... .. . ... : ... .. . ... : ... .. . Z30 ...
ROW 44 : ... .. 0 ... ... : ... .. 0 ... ... : ... .. . ... : ... .. . ... : ... .. . Z30 ...
ROW 45 : ... .. . ... ... : ... .. . ... ... : ... .. . ... : ... .. . ... : ... .. . Z30 ...
ROW 46 : ... .. . ... ... : ... .. . ... ... : ... .. . ... : ... .. . ... : ... .. . Z30 ...
ROW 47 : ... .. . ... ... : ... .. . ... ... : ... .. . ... : ... .. . ... : ... .. . Z30 ...
ROW 48 : C-4 00 0 P80 ... : E-4 00 0 P7F ... : G-3 00 . P80 : ... .. C ... : ... .. . Z30 ...
ROW 49 : ... .. 8 ... ... : ... .. 8 ... ... : ... .. . ... : ... .. 0 ... : ... .. . Z30 ...
ROW 4A : ... .. 7 ... ... : ... .. 7 ... ... : ... .. . ... : ... .. . ... : ... .. . Z30 ...
ROW 4B : ... .. 6 ... ... : ... .. 6 ... ... : ... .. . ... : ... .. . ... : ... .. . Z30 ...
ROW 4C : ... .. 5 ... ... : ... .. 5 ... ... : ... .. . ... : ... .. . ... : ... .. . Z30 ...
ROW 4D : ... .. . ... ... : ... .. . ... ... : ... .. . ... : ... .. . ... : ... .. . Z30 ...
ROW 4E : ... .. 4 ... ... : ... .. 4 ... ... : ... .. . ... : ... .. . ... : ... .. . Z30 ...
ROW 4F : ... .. . ... ... : ... .. . ... ... : ... .. . ... : ... .. . ... : ... .. . Z30 ...
ROW 50 : ... .. 0 ... ... : ... .. 0 ... ... : --- .. . ... : ... .. . ... : ... .. . Z30 ...
ROW 51 : A-3 00 0 P7E ... : C-4 00 0 P80 ... : ... .. . ... : ... .. . ... : ... .. . Z30 ...
ROW 52 : ... .. 8 ... ... : ... .. 8 ... ... : ... .. . ... : ... .. . ... : ... .. . Z30 ...
ROW 53 : ... .. 7 ... ... : ... .. 7 ... ... : ... .. . ... : ... .. . ... : ... .. . Z30 ...
ROW 54 : ... .. 6 ... ... : ... .. 6 ... ... : ... .. . ... : ... .. . ... : ... .. . Z30 ...
ROW 55 : ... .. 5 ... ... : ... .. 5 ... ... : ... .. . ... : ... .. . ... : ... .. . Z30 ...
ROW 56 : ... .. . ... ... : ... .. . ... ... : ... .. . ... : ... .. . ... : ... .. . Z30 ...
ROW 57 : ... .. 4 ... ... : ... .. 4 ... ... : ... .. . ... : ... .. . ... : ... .. . Z30 ...
ROW 58 : ... .. . ... ... : ... .. . ... ... : ... .. . ... : ... .. . ... : ... .. . Z30 ...
ROW 59 : ... .. 0 ... ... : ... .. 0 ... ... : ... .. . ... : ... .. . ... : ... .. . Z30 ...
ROW 5A : ... .. . ... ... : ... .. . ... ... : G-3 00 . P80 : ... .. . ... : ... .. . Z30 ...
ROW 5B : ... .. . ... ... : ... .. . ... ... : ... .. . ... : ... .. . ... : ... .. . Z30 ...
ROW 5C : ... .. . ... ... : ... .. . ... ... : ... .. . ... : ... .. . ... : ... .. . Z30 ...
ROW 5D : ... .. . ... ... : ... .. . ... ... : ... .. . ... : ... .. . ... : ... .. . Z30 ...
ROW 5E : ... .. . ... ... : ... .. . ... ... : ... .. . ... : ... .. . ... : ... .. . Z30 ...
ROW 5F : ... .. . ... ... : ... .. . ... ... : ... .. . ... : ... .. . ... : ... .. . Z30 ...
ROW 60 : ... .. . ... ... : ... .. . ... ... : ... .. . ... : ... .. . ... : ... .. . Z30 ...
ROW 61 : ... .. . ... ... : ... .. . ... ... : ... .. . ... : ... .. . ... : ... .. . Z30 ...
ROW 62 : ... .. . ... ... : ... .. . ... ... : --- .. . ... : ... .. . ... : ... .. . Z30 ...
ROW 63 : F-3 00 0 P80 ... : A-3 00 0 P7E ... : ... .. . ... : ... .. C ... : ... .. . Z30 ...
ROW 64 : ... .. 8 ... ... : ... .. 8 ... ... : ... .. . ... : ... .. 0 ... : ... .. . Z30 ...
ROW 65 : ... .. 7 ... ... : ... .. 7 ... ... : ... .. . ... : ... .. . ... : ... .. . Z30 ...
ROW 66 : ... .. 6 ... ... : ... .. 6 ... ... : ... .. . ... : ... .. . ... : ... .. . Z30 ...
ROW 67 : ... .. 5 ... ... : ... .. 5 ... ... : ... .. . ... : ... .. . ... : ... .. . Z30 ...
ROW 68 : ... .. . ... ... : ... .. . ... ... : ... .. . ... : ... .. . ... : ... .. . Z30 ...
ROW 69 : ... .. 4 ... ... : ... .. 4 ... ... : ... .. . ... : ... .. . ... : ... .. . Z30 ...
ROW 6A : ... .. . ... ... : ... .. . ... ... : ... .. . ... : ... .. . ... : ... .. . Z30 ...
ROW 6B : ... .. 0 ... ... : ... .. 0 ... ... : ... .. . ... : ... .. . ... : ... .. . Z30 ...
ROW 6C : E-3 00 0 P7D ... : G-3 00 0 P80 ... : C-4 00 . P80 : ... .. C ... : ... .. . Z30 ...
ROW 6D : ... .. 8 ... ... : ... .. 8 ... ... : ... .. . ... : ... .. . ... : ... .. . Z30 ...
ROW 6E : ... .. 7 ... ... : ... .. 7 ... ... : ... .. . ... : ... .. . ... : ... .. . Z30 ...
ROW 6F : ... .. 6 ... ... : ... .. 6 ... ... : ... .. . ... : ... .. . ... : ... .. . Z30 ...
ROW 70 : ... .. 5 ... ... : ... .. 5 ... ... : ... .. . ... : ... .. . ... : ... .. . Z30 ...
ROW 71 : ... .. . ... ... : ... .. . ... ... : ... .. . ... : ... .. 0 ... : ... .. . Z30 ...
ROW 72 : ... .. 4 ... ... : ... .. 4 ... ... : ... .. . ... : ... .. . ... : ... .. . Z30 ...
ROW 73 : ... .. . ... ... : ... .. . ... ... : ... .. . ... : ... .. . ... : ... .. . Z30 ...
ROW 74 : ... .. 0 ... ... : ... .. 0 ... ... : --- .. . ... : ... .. . ... : ... .. . Z30 ...
ROW 75 : ... .. . ... ... : ... .. . ... ... : C-4 00 . P80 : ... .. . ... : ... .. . Z30 ...
ROW 76 : ... .. . ... ... : ... .. . ... ... : ... .. . ... : ... .. . ... : ... .. . Z30 ...
ROW 77 : ... .. . ... ... : ... .. . ... ... : ... .. . ... : ... .. . ... : ... .. . Z30 ...
ROW 78 : ... .. . ... ... : ... .. . ... ... : ... .. . ... : ... .. . ... : ... .. . Z30 ...
ROW 79 : ... .. . ... ... : ... .. . ... ... : ... .. . ... : ... .. . ... : ... .. . Z30 ...
ROW 7A : ... .. . ... ... : ... .. . ... ... : ... .. . ... : ... .. . ... : ... .. . Z30 ...
ROW 7B : ... .. . ... ... : ... .. . ... ... : ... .. . ... : ... .. . ... : ... .. . Z30 ...
ROW 7C : ... .. . ... ... : ... .. . ... ... : ... .. . ... : ... .. . ... : ... .. . Z30 ...
ROW 7D : ... .. . ... ... : ... .. . ... ... : --- .. . ... : ... .. . ... : ... .. . Z30 ...
ROW 7E : ... .. . ... ... : ... .. . ... ... : G-3 00 . P80 : ... .. C ... : ... .. . Z30 ...
ROW 7F : ... .. . ... ... : ... .. . ... ... : ... .. . ... : ... .. 0 ... : ... .. . Z30 ...
ROW 80 : ... .. . ... ... : ... .. . ... ... : ... .. . ... : ... .. . ... : ... .. . Z30 ...
ROW 81 : ... .. . ... ... : ... .. . ... ... : ... .. . ... : ... .. . ... : ... .. . Z30 ...
ROW 82 : ... .. . ... ... : ... .. . ... ... : ... .. . ... : ... .. . ... : ... .. . Z30 ...
ROW 83 : ... .. . ... ... : ... .. . ... ... : ... .. . ... : ... .. . ... : ... .. . Z30 ...
ROW 84 : ... .. . ... ... : ... .. . ... ... : ... .. . ... : ... .. . ... : ... .. . Z30 ...
ROW 85 : ... .. . ... ... : ... .. . ... ... : ... .. . ... : ... .. . ... : ... .. . Z30 ...
ROW 86 : ... .. . ... ... : ... .. . ... ... : --- .. . ... : ... .. . ... : ... .. . Z30 ...
ROW 87 : ... .. . ... ... : ... .. . ... ... : ... .. . ... : ... .. . ... : ... .. . Z30 ...
ROW 88 : ... .. . ... ... : ... .. . ... ... : ... .. . ... : ... .. . ... : ... .. . Z30 ...
ROW 89 : ... .. . ... ... : ... .. . ... ... : ... .. . ... : ... .. . ... : ... .. . Z30 ...
ROW 8A : ... .. . ... ... : ... .. . ... ... : ... .. . ... : ... .. . ... : ... .. . Z30 ...
ROW 8B : ... .. . ... ... : ... .. . ... ... : ... .. . ... : ... .. . ... : ... .. . Z30 ...
ROW 8C : ... .. . ... ... : ... .. . ... ... : ... .. . ... : ... .. . ... : ... .. . Z30 ...
ROW 8D : ... .. . ... ... : ... .. . ... ... : ... .. . ... : ... .. . ... : ... .. . Z30 ...
ROW 8E : ... .. . ... ... : ... .. . ... ... : ... .. . ... : ... .. . ... : ... .. . Z30 ...
ROW 8F : ... .. . ... ... : ... .. . ... ... : ... .. . ... : ... .. . ... : ... .. . Z30 ...

PATTERN 23
ROW 00 : C-4 00 0 P80 ... : E-4 00 0 P7F ... : C-3 00 . P80 : ... .. C ... : ... .. . Z30 ...
ROW 01 : ... .. 8 ... ... : ... .. 8 ... ... : ... .. . ... : ... .. 0 ... : ... .. . Z30 ...
ROW 02 : ... .. 7 ... ... : ... .. 7 ... ... : ... .. . ... : ... .. . ... : ... .. . Z30 ...
ROW 03 : ... .. 6 ... ... : ... .. 6 ... ... : ... .. . ... : ... .. . ... : ... .. . Z30 ...
ROW 04 : ... .. 5 ... ... : ... .. 5 ... ... : ... .. . ... : ... .. . ... : ... .. . Z30 ...
ROW 05 : ... .. . ... ... : ... .. . ... ... : ... .. . ... : ... .. . ... : ... .. . Z30 ...
ROW 06 : ... .. 4 ... ... : ... .. 4 ... ... : ... .. . ... : ... .. . ... : ... .. . Z30 ...
ROW 07 : ... .. . ... ... : ... .. . ... ... : ... .. . ... : ... .. . ... : ... .. . Z30 ...
ROW 08 : ... .. 0 ... ... : ... .. 0 ... ... : --- .. . ... : ... .. . ... : ... .. . Z30 ...
ROW 09 : A-3 00 0 P7E ... : C-4 00 0 P80 ... : ... .. . ... : ... .. . ... : ... .. . Z30 ...
ROW 0A : ... .. 8 ... ... : ... .. 8 ... ... : ... .. . ... : ... .. . ... : ... .. . Z30 ...
ROW 0B : ... .. 7 ... ... : ... .. 7 ... ... : ... .. . ... : ... .. . ... : ... .. . Z30 ...
ROW 0C : ... .. 6 ... ... : ... .. 6 ... ... : ... .. . ... : ... .. . ... : ... .. . Z30 ...
ROW 0D : ... .. 5 ... ... : ... .. 5 ... ... : ... .. . ... : ... .. . ... : ... .. . Z30 ...
ROW 0E : ... .. . ... ... : ... .. . ... ... : ... .. . ... : ... .. . ... : ... .. . Z30 ...
ROW 0F : ... .. 4 ... ... : ... .. 4 ... ... : ... .. . ... : ... .. . ... : ... .. . Z30 ...
ROW 10 : ... .. . ... ... : ... .. . ... ... : ... .. . ... : ... .. . ... : ... .. . Z30 ...
ROW 11 : ... .. 0 ... ... : ... .. 0 ... ... : ... .. . ... : ... .. . ... : ... .. . Z30 ...
ROW 12 : ... .. . ... ... : ... .. . ... ... : ... .. . ... : ... .. . ... : ... .. . Z30 ...
ROW 13 : ... .. . ... ... : ... .. . ... ... : ... .. . ... : ... .. . ... : ... .. . Z30 ...
ROW 14 : ... .. . ... ... : ... .. . ... ... : ... .. . ... : ... .. . ... : ... .. . Z30 ...
ROW 15 : ... .. . ... ... : ... .. . ... ... : ... .. . ... : ... .. . ... : ... .. . Z30 ...
ROW 16 : ... .. . ... ... : ... .. . ... ... : ... .. . ... : ... .. . ... : ... .. . Z30 ...
ROW 17 : ... .. . ... ... : ... .. . ... ... : ... .. . ... : ... .. . ... : ... .. . Z30 ...
ROW 18 : ... .. . ... ... : ... .. . ... ... : ... .. . ... : ... .. . ... : ... .. . Z30 ...
ROW 19 : ... .. . ... ... : ... .. . ... ... : ... .. . ... : ... .. . ... : ... .. . Z30 ...
ROW 1A : ... .. . ... ... : ... .. . ... ... : ... .. . ... : ... .. . ... : ... .. . Z30 ...
ROW 1B : E-3 00 0 P7D ... : G-3 00 0 P80 ... : F#3 00 . P7D : ... .. C ... : ... .. . Z30 ...
ROW 1C : ... .. 8 ... ... : ... .. 8 ... ... : ... .. . ... : ... .. 0 ... : ... .. . Z30 ...
ROW 1D : ... .. 7 ... ... : ... .. 7 ... ... : ... .. . ... : ... .. . ... : ... .. . Z30 ...
ROW 1E : ... .. 6 ... ... : ... .. 6 ... ... : ... .. . ... : ... .. . ... : ... .. . Z30 ...
ROW 1F : ... .. 5 ... ... : ... .. 5 ... ... : ... .. . ... : ... .. . ... : ... .. . Z30 ...
ROW 20 : ... .. . ... ... : ... .. . ... ... : ... .. . ... : ... .. . ... : ... .. . Z30 ...
ROW 21 : ... .. 4 ... ... : ... .. 4 ... ... : ... .. . ... : ... .. . ... : ... .. . Z30 ...
ROW 22 : ... .. . ... ... : ... .. . ... ... : ... .. . ... : ... .. . ... : ... .. . Z30 ...
ROW 23 : ... .. 0 ... ... : ... .. 0 ... ... : --- .. . ... : ... .. . ... : ... .. . Z30 ...
ROW 24 : ... .. . ... ... : ... .. . ... ... : G-3 00 . P80 : ... .. C ... : ... .. . Z30 ...
ROW 25 : ... .. . ... ... : ... .. . ... ... : ... .. . ... : ... .. . ... : ... .. . Z30 ...
ROW 26 : ... .. . ... ... : ... .. . ... ... : ... .. . ... : ... .. . ... : ... .. . Z30 ...
ROW 27 : ... .. . ... ... : ... .. . ... ... : ... .. . ... : ... .. . ... : ... .. . Z30 ...
ROW 28 : ... .. . ... ... : ... .. . ... ... : ... .. . ... : ... .. . ... : ... .. . Z30 ...
ROW 29 : ... .. . ... ... : ... .. . ... ... : ... .. . ... : ... .. 0 ... : ... .. . Z30 ...
ROW 2A : ... .. . ... ... : ... .. . ... ... : ... .. . ... : ... .. . ... : ... .. . Z30 ...
ROW 2B : ... .. . ... ... : ... .. . ... ... : ... .. . ... : ... .. . ... : ... .. . Z30 ...
ROW 2C : ... .. . ... ... : ... .. . ... ... : --- .. . ... : ... .. . ... : ... .. . Z30 ...
ROW 2D : ... .. . ... ... : ... .. . ... ... : ... .. . ... : ... .. . ... : ... .. . Z30 ...
ROW 2E : ... .. . ... ... : ... .. . ... ... : ... .. . ... : ... .. . ... : ... .. . Z30 ...
ROW 2F : ... .. . ... ... : ... .. . ... ... : ... .. . ... : ... .. . ... : ... .. . Z30 ...
ROW 30 : ... .. . ... ... : ... .. . ... ... : ... .. . ... : ... .. . ... : ... .. . Z30 ...
ROW 31 : ... .. . ... ... : ... .. . ... ... : ... .. . ... : ... .. . ... : ... .. . Z30 ...
ROW 32 : ... .. . ... ... : ... .. . ... ... : ... .. . ... : ... .. . ... : ... .. . Z30 ...
ROW 33 : ... .. . ... ... : ... .. . ... ... : ... .. . ... : ... .. . ... : ... .. . Z30 ...
ROW 34 : ... .. . ... ... : ... .. . ... ... : ... .. . ... : ... .. . ... : ... .. . Z30 ...
ROW 35 : ... .. . ... ... : ... .. . ... ... : ... .. . ... : ... .. . ... : ... .. . Z30 ...
ROW 36 : ... .. . ... ... : G#3 00 0 P82 ... : C-4 00 . P80 : ... .. C ... : ... .. . Z30 ...
ROW 37 : ... .. 8 ... ... : ... .. 8 ... ... : ... .. . ... : ... .. 0 ... : ... .. . Z30 ...
ROW 38 : ... .. 7 ... ... : ... .. 7 ... ... : ... .. . ... : ... .. . ... : ... .. . Z30 ...
ROW 39 : ... .. 6 ... ... : ... .. 6 ... ... : ... .. . ... : ... .. . ... : ... .. . Z30 ...
ROW 3A : ... .. 5 ... ... : ... .. 5 ... ... : ... .. . ... : ... .. . ... : ... .. . Z30 ...
ROW 3B : ... .. . ... ... : ... .. . ... ... : ... .. . ... : ... .. . ... : ... .. . Z30 ...
ROW 3C : ... .. 4 ... ... : ... .. 4 ... ... : ... .. . ... : ... .. . ... : ... .. . Z30 ...
ROW 3D : ... .. . ... ... : ... .. . ... ... : ... .. . ... : ... .. . ... : ... .. . Z30 ...
ROW 3E : ... .. 0 ... ... : ... .. 0 ... ... : --- .. . ... : ... .. . ... : ... .. . Z30 ...
ROW 3F : ... .. . ... ... : ... .. . ... ... : ... .. . ... : ... .. . ... : ... .. . Z30 ...
ROW 40 : ... .. . ... ... : ... .. . ... ... : ... .. . ... : ... .. . ... : ... .. . Z30 ...
ROW 41 : ... .. . ... ... : ... .. . ... ... : ... .. . ... : ... .. . ... : ... .. . Z30 ...
ROW 42 : ... .. . ... ... : ... .. . ... ... : ... .. . ... : ... .. . ... : ... .. . Z30 ...
ROW 43 : ... .. . ... ... : ... .. . ... ... : ... .. . ... : ... .. . ... : ... .. . Z30 ...
ROW 44 : ... .. . ... ... : ... .. . ... ... : ... .. . ... : ... .. . ... : ... .. . Z30 ...
ROW 45 : ... .. . ... ... : ... .. . ... ... : ... .. . ... : ... .. . ... : ... .. . Z30 ...
ROW 46 : ... .. . ... ... : ... .. . ... ... : ... .. . ... : ... .. . ... : ... .. . Z30 ...
ROW 47 : ... .. . ... ... : ... .. . ... ... : ... .. . ... : ... .. . ... : ... .. . Z30 ...
ROW 48 : F-3 00 0 P80 ... : A-3 00 0 P7E ... : F-3 00 . P80 : ... .. C ... : ... .. . Z30 ...
ROW 49 : ... .. 8 ... ... : ... .. 8 ... ... : ... .. . ... : ... .. 0 ... : ... .. . Z30 ...
ROW 4A : ... .. 7 ... ... : ... .. 7 ... ... : ... .. . ... : ... .. . ... : ... .. . Z30 ...
ROW 4B : ... .. 6 ... ... : ... .. 6 ... ... : ... .. . ... : ... .. . ... : ... .. . Z30 ...
ROW 4C : ... .. 5 ... ... : ... .. 5 ... ... : ... .. . ... : ... .. . ... : ... .. . Z30 ...
ROW 4D : ... .. . ... ... : ... .. . ... ... : ... .. . ... : ... .. . ... : ... .. . Z30 ...
ROW 4E : ... .. 4 ... ... : ... .. 4 ... ... : ... .. . ... : ... .. . ... : ... .. . Z30 ...
ROW 4F : ... .. . ... ... : ... .. . ... ... : ... .. . ... : ... .. . ... : ... .. . Z30 ...
ROW 50 : ... .. 0 ... ... : ... .. 0 ... ... : --- .. . ... : ... .. . ... : ... .. . Z30 ...
ROW 51 : C-4 00 0 P80 ... : F-4 00 0 P80 ... : ... .. . ... : ... .. . ... : ... .. . Z30 ...
ROW 52 : ... .. 8 ... ... : ... .. 8 ... ... : ... .. . ... : ... .. . ... : ... .. . Z30 ...
ROW 53 : ... .. 7 ... ... : ... .. 7 ... ... : ... .. . ... : ... .. . ... : ... .. . Z30 ...
ROW 54 : ... .. 6 ... ... : ... .. 6 ... ... : ... .. . ... : ... .. . ... : ... .. . Z30 ...
ROW 55 : ... .. 5 ... ... : ... .. 5 ... ... : ... .. . ... : ... .. . ... : ... .. . Z30 ...
ROW 56 : ... .. . ... ... : ... .. . ... ... : ... .. . ... : ... .. . ... : ... .. . Z30 ...
ROW 57 : ... .. 4 ... ... : ... .. 4 ... ... : ... .. . ... : ... .. . ... : ... .. . Z30 ...
ROW 58 : ... .. . ... ... : ... .. . ... ... : ... .. . ... : ... .. . ... : ... .. . Z30 ...
ROW 59 : ... .. 0 ... ... : ... .. 0 ... ... : ... .. . ... : ... .. . ... : ... .. . Z30 ...
ROW 5A : ... .. . ... ... : ... .. . ... ... : F-3 00 . P80 : ... .. . ... : ... .. . Z30 ...
ROW 5B : ... .. . ... ... : ... .. . ... ... : ... .. . ... : ... .. . ... : ... .. . Z30 ...
ROW 5C : ... .. . ... ... : ... .. . ... ... : ... .. . ... : ... .. . ... : ... .. . Z30 ...
ROW 5D : ... .. . ... ... : ... .. . ... ... : ... .. . ... : ... .. . ... : ... .. . Z30 ...
ROW 5E : ... .. . ... ... : ... .. . ... ... : ... .. . ... : ... .. . ... : ... .. . Z30 ...
ROW 5F : ... .. . ... ... : ... .. . ... ... : ... .. . ... : ... .. . ... : ... .. . Z30 ...
ROW 60 : ... .. . ... ... : ... .. . ... ... : ... .. . ... : ... .. . ... : ... .. . Z30 ...
ROW 61 : ... .. . ... ... : ... .. . ... ... : ... .. . ... : ... .. . ... : ... .. . Z30 ...
ROW 62 : ... .. . ... ... : ... .. . ... ... : --- .. . ... : ... .. . ... : ... .. . Z30 ...
ROW 63 : ... .. . ... ... : ... .. . ... ... : ... .. . ... : ... .. C ... : ... .. . Z30 ...
ROW 64 : ... .. 8 ... ... : ... .. 8 ... ... : ... .. . ... : ... .. 0 ... : ... .. . Z30 ...
ROW 65 : ... .. 7 ... ... : ... .. 7 ... ... : ... .. . ... : ... .. . ... : ... .. . Z30 ...
ROW 66 : ... .. 6 ... ... : ... .. 6 ... ... : ... .. . ... : ... .. . ... : ... .. . Z30 ...
ROW 67 : ... .. 5 ... ... : ... .. 5 ... ... : ... .. . ... : ... .. . ... : ... .. . Z30 ...
ROW 68 : ... .. . ... ... : ... .. . ... ... : ... .. . ... : ... .. . ... : ... .. . Z30 ...
ROW 69 : ... .. 4 ... ... : ... .. 4 ... ... : ... .. . ... : ... .. . ... : ... .. . Z30 ...
ROW 6A : ... .. . ... ... : ... .. . ... ... : ... .. . ... : ... .. . ... : ... .. . Z30 ...
ROW 6B : ... .. 0 ... ... : ... .. 0 ... ... : ... .. . ... : ... .. . ... : ... .. . Z30 ...
ROW 6C : F-3 00 0 P80 ... : A-3 00 0 P7E ... : C-4 00 . P80 : ... .. C ... : ... .. . Z30 ...
ROW 6D : ... .. 8 ... ... : ... .. 8 ... ... : ... .. . ... : ... .. . ... : ... .. . Z30 ...
ROW 6E : ... .. 7 ... ... : ... .. 7 ... ... : ... .. . ... : ... .. . ... : ... .. . Z30 ...
ROW 6F : ... .. 6 ... ... : ... .. 6 ... ... : ... .. . ... : ... .. . ... : ... .. . Z30 ...
ROW 70 : ... .. 5 ... ... : ... .. 5 ... ... : ... .. . ... : ... .. . ... : ... .. . Z30 ...
ROW 71 : ... .. . ... ... : ... .. . ... ... : ... .. . ... : ... .. 0 ... : ... .. . Z30 ...
ROW 72 : ... .. 4 ... ... : ... .. 4 ... ... : ... .. . ... : ... .. . ... : ... .. . Z30 ...
ROW 73 : ... .. . ... ... : ... .. . ... ... : ... .. . ... : ... .. . ... : ... .. . Z30 ...
ROW 74 : ... .. 0 ... ... : ... .. 0 ... ... : --- .. . ... : ... .. . ... : ... .. . Z30 ...
ROW 75 : ... .. . ... ... : ... .. . ... ... : C-4 00 . P80 : ... .. . ... : ... .. . Z30 ...
ROW 76 : ... .. . ... ... : ... .. . ... ... : ... .. . ... : ... .. . ... : ... .. . Z30 ...
ROW 77 : ... .. . ... ... : ... .. . ... ... : ... .. . ... : ... .. . ... : ... .. . Z30 ...
ROW 78 : ... .. . ... ... : ... .. . ... ... : ... .. . ... : ... .. . ... : ... .. . Z30 ...
ROW 79 : ... .. . ... ... : ... .. . ... ... : ... .. . ... : ... .. . ... : ... .. . Z30 ...
ROW 7A : ... .. . ... ... : ... .. . ... ... : ... .. . ... : ... .. . ... : ... .. . Z30 ...
ROW 7B : ... .. . ... ... : ... .. . ... ... : ... .. . ... : ... .. . ... : ... .. . Z30 ...
ROW 7C : ... .. . ... ... : ... .. . ... ... : ... .. . ... : ... .. . ... : ... .. . Z30 ...
ROW 7D : ... .. . ... ... : ... .. . ... ... : --- .. . ... : ... .. . ... : ... .. . Z30 ...
ROW 7E : ... .. . ... ... : ... .. . ... ... : F-3 00 . P80 : ... .. C ... : ... .. . Z30 ...
ROW 7F : ... .. . ... ... : ... .. . ... ... : ... .. . ... : ... .. 0 ... : ... .. . Z30 ...
ROW 80 : ... .. . ... ... : ... .. . ... ... : ... .. . ... : ... .. . ... : ... .. . Z30 ...
ROW 81 : ... .. . ... ... : ... .. . ... ... : ... .. . ... : ... .. . ... : ... .. . Z30 ...
ROW 82 : ... .. . ... ... : ... .. . ... ... : ... .. . ... : ... .. . ... : ... .. . Z30 ...
ROW 83 : ... .. . ... ... : ... .. . ... ... : ... .. . ... : ... .. . ... : ... .. . Z30 ...
ROW 84 : ... .. . ... ... : ... .. . ... ... : ... .. . ... : ... .. . ... : ... .. . Z30 ...
ROW 85 : ... .. . ... ... : ... .. . ... ... : ... .. . ... : ... .. . ... : ... .. . Z30 ...
ROW 86 : ... .. . ... ... : ... .. . ... ... : --- .. . ... : ... .. . ... : ... .. . Z30 ...
ROW 87 : ... .. . ... ... : ... .. . ... ... : ... .. . ... : ... .. . ... : ... .. . Z30 ...
ROW 88 : ... .. . ... ... : ... .. . ... ... : ... .. . ... : ... .. . ... : ... .. . Z30 ...
ROW 89 : ... .. . ... ... : ... .. . ... ... : ... .. . ... : ... .. . ... : ... .. . Z30 ...
ROW 8A : ... .. . ... ... : ... .. . ... ... : ... .. . ... : ... .. . ... : ... .. . Z30 ...
ROW 8B : ... .. . ... ... : ... .. . ... ... : ... .. . ... : ... .. . ... : ... .. . Z30 ...
ROW 8C : ... .. . ... ... : ... .. . ... ... : ... .. . ... : ... .. . ... : ... .. . Z30 ...
ROW 8D : ... .. . ... ... : ... .. . ... ... : ... .. . ... : ... .. . ... : ... .. . Z30 ...
ROW 8E : ... .. . ... ... : ... .. . ... ... : ... .. . ... : ... .. . ... : ... .. . Z30 ...
ROW 8F : ... .. . ... ... : ... .. . ... ... : ... .. . ... : ... .. . ... : ... .. . Z30 ...

PATTERN 24
ROW 00 : G-3 00 0 P80 ... : B-3 00 0 P7E ... : G-3 00 . P80 : ... .. C ... : ... .. . Z30 ...
ROW 01 : ... .. 8 ... ... : ... .. 8 ... ... : ... .. . ... : ... .. 0 ... : ... .. . Z30 ...
ROW 02 : ... .. 7 ... ... : ... .. 7 ... ... : ... .. . ... : ... .. . ... : ... .. . Z30 ...
ROW 03 : ... .. 6 ... ... : ... .. 6 ... ... : ... .. . ... : ... .. . ... : ... .. . Z30 ...
ROW 04 : ... .. 5 ... ... : ... .. 5 ... ... : ... .. . ... : ... .. . ... : ... .. . Z30 ...
ROW 05 : ... .. . ... ... : ... .. . ... ... : ... .. . ... : ... .. . ... : ... .. . Z30 ...
ROW 06 : ... .. 4 ... ... : ... .. 4 ... ... : ... .. . ... : ... .. . ... : ... .. . Z30 ...
ROW 07 : ... .. . ... ... : ... .. . ... ... : ... .. . ... : ... .. . ... : ... .. . Z30 ...
ROW 08 : ... .. 0 ... ... : ... .. 0 ... ... : --- .. . ... : ... .. . ... : ... .. . Z30 ...
ROW 09 : D-4 00 0 P80 ... : F-4 00 0 P80 ... : ... .. . ... : ... .. . ... : ... .. . Z30 ...
ROW 0A : ... .. 8 ... ... : ... .. 8 ... ... : ... .. . ... : ... .. . ... : ... .. . Z30 ...
ROW 0B : ... .. 7 ... ... : ... .. 7 ... ... : ... .. . ... : ... .. . ... : ... .. . Z30 ...
ROW 0C : ... .. 6 ... ... : ... .. 6 ... ... : ... .. . ... : ... .. . ... : ... .. . Z30 ...
ROW 0D : ... .. 5 ... ... : ... .. 5 ... ... : ... .. . ... : ... .. . ... : ... .. . Z30 ...
ROW 0E : ... .. . ... ... : ... .. . ... ... : ... .. . ... : ... .. . ... : ... .. . Z30 ...
ROW 0F : ... .. 4 ... ... : ... .. 4 ... ... : ... .. . ... : ... .. . ... : ... .. . Z30 ...
ROW 10 : ... .. . ... ... : ... .. . ... ... : ... .. . ... : ... .. . ... : ... .. . Z30 ...
ROW 11 : ... .. 0 ... ... : ... .. 0 ... ... : ... .. . ... : ... .. . ... : ... .. . Z30 ...
ROW 12 : ... .. . ... ... : ... .. . ... ... : ... .. . ... : ... .. . ... : ... .. . Z30 ...
ROW 13 : ... .. . ... ... : ... .. . ... ... : ... .. . ... : ... .. . ... : ... .. . Z30 ...
ROW 14 : ... .. . ... ... : ... .. . ... ... : ... .. . ... : ... .. . ... : ... .. . Z30 ...
ROW 15 : ... .. . ... ... : ... .. . ... ... : ... .. . ... : ... .. . ... : ... .. . Z30 ...
ROW 16 : ... .. . ... ... : ... .. . ... ... : ... .. . ... : ... .. . ... : ... .. . Z30 ...
ROW 17 : ... .. . ... ... : ... .. . ... ... : ... .. . ... : ... .. . ... : ... .. . Z30 ...
ROW 18 : ... .. . ... ... : ... .. . ... ... : ... .. . ... : ... .. . ... : ... .. . Z30 ...
ROW 19 : ... .. . ... ... : ... .. . ... ... : ... .. . ... : ... .. . ... : ... .. . Z30 ...
ROW 1A : ... .. . ... ... : ... .. . ... ... : ... .. . ... : ... .. . ... : ... .. . Z30 ...
ROW 1B : ... .. . ... ... : ... .. . ... ... : G-3 00 . P80 : ... .. C ... : ... .. . Z30 ...
ROW 1C : ... .. 8 ... ... : ... .. 8 ... ... : ... .. . ... : ... .. 0 ... : ... .. . Z30 ...
ROW 1D : ... .. 7 ... ... : ... .. 7 ... ... : ... .. . ... : ... .. . ... : ... .. . Z30 ...
ROW 1E : ... .. 6 ... ... : ... .. 6 ... ... : ... .. . ... : ... .. . ... : ... .. . Z30 ...
ROW 1F : ... .. 5 ... ... : ... .. 5 ... ... : ... .. . ... : ... .. . ... : ... .. . Z30 ...
ROW 20 : ... .. . ... ... : ... .. . ... ... : ... .. . ... : ... .. . ... : ... .. . Z30 ...
ROW 21 : ... .. 4 ... ... : ... .. 4 ... ... : ... .. . ... : ... .. . ... : ... .. . Z30 ...
ROW 22 : ... .. . ... ... : ... .. . ... ... : ... .. . ... : ... .. . ... : ... .. . Z30 ...
ROW 23 : ... .. 0 ... ... : ... .. 0 ... ... : --- .. . ... : ... .. . ... : ... .. . Z30 ...
ROW 24 : ... .. . ... ... : ... .. . ... ... : G-3 00 . P80 : ... .. C ... : ... .. . Z30 ...
ROW 25 : ... .. 8 ... ... : ... .. 8 ... ... : ... .. . ... : ... .. . ... : ... .. . Z30 ...
ROW 26 : ... .. 7 ... ... : ... .. 7 ... ... : ... .. . ... : ... .. . ... : ... .. . Z30 ...
ROW 27 : ... .. 6 ... ... : ... .. 6 ... ... : ... .. . ... : ... .. . ... : ... .. . Z30 ...
ROW 28 : ... .. 5 ... ... : ... .. 5 ... ... : ... .. . ... : ... .. . ... : ... .. . Z30 ...
ROW 29 : ... .. . ... ... : ... .. . ... ... : ... .. . ... : ... .. 0 ... : ... .. . Z30 ...
ROW 2A : ... .. 4 ... ... : ... .. 4 ... ... : ... .. . ... : ... .. . ... : ... .. . Z30 ...
ROW 2B : ... .. . ... ... : ... .. . ... ... : ... .. . ... : ... .. . ... : ... .. . Z30 ...
ROW 2C : ... .. 0 ... ... : ... .. 0 ... ... : --- .. . ... : ... .. . ... : ... .. . Z30 ...
ROW 2D : ... .. . ... ... : ... .. . ... ... : ... .. . ... : ... .. . ... : ... .. . Z30 ...
ROW 2E : ... .. . ... ... : ... .. . ... ... : ... .. . ... : ... .. . ... : ... .. . Z30 ...
ROW 2F : ... .. . ... ... : ... .. . ... ... : ... .. . ... : ... .. . ... : ... .. . Z30 ...
ROW 30 : C-4 00 0 P80 ... : E-4 00 0 P7F ... : A-3 00 . P7E : ... .. . ... : ... .. . Z30 ...
ROW 31 : ... .. 8 ... ... : ... .. 8 ... ... : ... .. . ... : ... .. . ... : ... .. . Z30 ...
ROW 32 : ... .. 7 ... ... : ... .. 7 ... ... : ... .. . ... : ... .. . ... : ... .. . Z30 ...
ROW 33 : ... .. 6 ... ... : ... .. 6 ... ... : ... .. . ... : ... .. . ... : ... .. . Z30 ...
ROW 34 : ... .. 5 ... ... : ... .. 5 ... ... : ... .. . ... : ... .. . ... : ... .. . Z30 ...
ROW 35 : ... .. . ... ... : ... .. . ... ... : ... .. . ... : ... .. . ... : ... .. . Z30 ...
ROW 36 : ... .. 4 ... ... : ... .. 4 ... ... : ... .. . ... : ... .. C ... : ... .. . Z30 ...
ROW 37 : ... .. . ... ... : ... .. . ... ... : ... .. . ... : ... .. 0 ... : ... .. . Z30 ...
ROW 38 : ... .. 0 ... ... : ... .. 0 ... ... : --- .. . ... : ... .. . ... : ... .. . Z30 ...
ROW 39 : ... .. . ... ... : ... .. . ... ... : ... .. . ... : ... .. . ... : ... .. . Z30 ...
ROW 3A : ... .. . ... ... : ... .. . ... ... : ... .. . ... : ... .. . ... : ... .. . Z30 ...
ROW 3B : ... .. . ... ... : ... .. . ... ... : ... .. . ... : ... .. . ... : ... .. . Z30 ...
ROW 3C : B-3 00 0 P7E ... : D-4 00 0 P80 ... : B-3 00 . P7E : ... .. . ... : ... .. . Z30 ...
ROW 3D : ... .. 8 ... ... : ... .. 8 ... ... : ... .. . ... : ... .. . ... : ... .. . Z30 ...
ROW 3E : ... .. 7 ... ... : ... .. 7 ... ... : ... .. . ... : ... .. . ... : ... .. . Z30 ...
ROW 3F : ... .. 6 ... ... : ... .. 6 ... ... : ... .. . ... : ... .. . ... : ... .. . Z30 ...
ROW 40 : ... .. 5 ... ... : ... .. 5 ... ... : ... .. . ... : ... .. . ... : ... .. . Z30 ...
ROW 41 : ... .. . ... ... : ... .. . ... ... : ... .. . ... : ... .. . ... : ... .. . Z30 ...
ROW 42 : ... .. 4 ... ... : ... .. 4 ... ... : ... .. . ... : ... .. . ... : ... .. . Z30 ...
ROW 43 : ... .. . ... ... : ... .. . ... ... : ... .. . ... : ... .. . ... : ... .. . Z30 ...
ROW 44 : ... .. 0 ... ... : ... .. 0 ... ... : --- .. . ... : ... .. . ... : ... .. . Z30 ...
ROW 45 : ... .. . ... ... : ... .. . ... ... : ... .. . ... : ... .. . ... : ... .. . Z30 ...
ROW 46 : ... .. . ... ... : ... .. . ... ... : ... .. . ... : ... .. . ... : ... .. . Z30 ...
ROW 47 : ... .. . ... ... : ... .. . ... ... : ... .. . ... : ... .. . ... : ... .. . Z30 ...
ROW 48 : G-3 00 0 P80 ... : C-4 00 0 P80 ... : C-4 00 . P80 : ... .. C ... : ... .. . Z30 ...
ROW 49 : ... .. 8 ... ... : ... .. 8 ... ... : ... .. . ... : ... .. 0 ... : ... .. . Z30 ...
ROW 4A : ... .. 7 ... ... : ... .. 7 ... ... : ... .. . ... : ... .. . ... : ... .. . Z30 ...
ROW 4B : ... .. 6 ... ... : ... .. 6 ... ... : ... .. . ... : ... .. . ... : ... .. . Z30 ...
ROW 4C : ... .. 5 ... ... : ... .. 5 ... ... : ... .. . ... : ... .. . ... : ... .. . Z30 ...
ROW 4D : ... .. . ... ... : ... .. . ... ... : ... .. . ... : ... .. . ... : ... .. . Z30 ...
ROW 4E : ... .. 4 ... ... : ... .. 4 ... ... : ... .. . ... : ... .. . ... : ... .. . Z30 ...
ROW 4F : ... .. . ... ... : ... .. . ... ... : ... .. . ... : ... .. . ... : ... .. . Z30 ...
ROW 50 : ... .. 0 ... ... : ... .. 0 ... ... : --- .. . ... : ... .. . ... : ... .. . Z30 ...
ROW 51 : E-3 00 0 P7D ... : ... .. . ... ... : ... .. . ... : ... .. . ... : ... .. . Z30 ...
ROW 52 : ... .. 8 ... ... : ... .. . ... ... : ... .. . ... : ... .. . ... : ... .. . Z30 ...
ROW 53 : ... .. 7 ... ... : ... .. . ... ... : ... .. . ... : ... .. . ... : ... .. . Z30 ...
ROW 54 : ... .. 6 ... ... : ... .. . ... ... : ... .. . ... : ... .. . ... : ... .. . Z30 ...
ROW 55 : ... .. 5 ... ... : ... .. . ... ... : ... .. . ... : ... .. . ... : ... .. . Z30 ...
ROW 56 : ... .. . ... ... : ... .. . ... ... : ... .. . ... : ... .. . ... : ... .. . Z30 ...
ROW 57 : ... .. 4 ... ... : ... .. . ... ... : ... .. . ... : ... .. . ... : ... .. . Z30 ...
ROW 58 : ... .. . ... ... : ... .. . ... ... : ... .. . ... : ... .. . ... : ... .. . Z30 ...
ROW 59 : ... .. 0 ... ... : ... .. . ... ... : ... .. . ... : ... .. . ... : ... .. . Z30 ...
ROW 5A : ... .. . ... ... : ... .. . ... ... : G-3 00 . P80 : ... .. . ... : ... .. . Z30 ...
ROW 5B : ... .. . ... ... : ... .. . ... ... : ... .. . ... : ... .. . ... : ... .. . Z30 ...
ROW 5C : ... .. . ... ... : ... .. . ... ... : ... .. . ... : ... .. . ... : ... .. . Z30 ...
ROW 5D : ... .. . ... ... : ... .. . ... ... : ... .. . ... : ... .. . ... : ... .. . Z30 ...
ROW 5E : ... .. . ... ... : ... .. . ... ... : ... .. . ... : ... .. . ... : ... .. . Z30 ...
ROW 5F : ... .. . ... ... : ... .. . ... ... : ... .. . ... : ... .. . ... : ... .. . Z30 ...
ROW 60 : ... .. . ... ... : ... .. . ... ... : ... .. . ... : ... .. . ... : ... .. . Z30 ...
ROW 61 : ... .. . ... ... : ... .. . ... ... : ... .. . ... : ... .. . ... : ... .. . Z30 ...
ROW 62 : ... .. . ... ... : ... .. . ... ... : --- .. . ... : ... .. . ... : ... .. . Z30 ...
ROW 63 : ... .. . ... ... : ... .. . ... ... : ... .. . ... : ... .. C ... : ... .. . Z30 ...
ROW 64 : ... .. 8 ... ... : ... .. . ... ... : ... .. . ... : ... .. 0 ... : ... .. . Z30 ...
ROW 65 : ... .. 7 ... ... : ... .. . ... ... : ... .. . ... : ... .. . ... : ... .. . Z30 ...
ROW 66 : ... .. 6 ... ... : ... .. . ... ... : ... .. . ... : ... .. . ... : ... .. . Z30 ...
ROW 67 : ... .. 5 ... ... : ... .. . ... ... : ... .. . ... : ... .. . ... : ... .. . Z30 ...
ROW 68 : ... .. . ... ... : ... .. . ... ... : ... .. . ... : ... .. . ... : ... .. . Z30 ...
ROW 69 : ... .. 4 ... ... : ... .. . ... ... : ... .. . ... : ... .. . ... : ... .. . Z30 ...
ROW 6A : ... .. . ... ... : ... .. . ... ... : ... .. . ... : ... .. . ... : ... .. . Z30 ...
ROW 6B : ... .. 0 ... ... : ... .. . ... ... : ... .. . ... : ... .. . ... : ... .. . Z30 ...
ROW 6C : C-3 00 0 P80 ... : ... .. . ... ... : C-3 00 . P80 : ... .. C ... : ... .. . Z30 ...
ROW 6D : ... .. 8 ... ... : ... .. . ... ... : ... .. . ... : ... .. . ... : ... .. . Z30 ...
ROW 6E : ... .. 7 ... ... : ... .. . ... ... : ... .. . ... : ... .. . ... : ... .. . Z30 ...
ROW 6F : ... .. 6 ... ... : ... .. . ... ... : ... .. . ... : ... .. . ... : ... .. . Z30 ...
ROW 70 : ... .. 5 ... ... : ... .. . ... ... : ... .. . ... : ... .. . ... : ... .. . Z30 ...
ROW 71 : ... .. . ... ... : ... .. . ... ... : ... .. . ... : ... .. 0 ... : ... .. . Z30 ...
ROW 72 : ... .. 4 ... ... : ... .. . ... ... : ... .. . ... : ... .. . ... : ... .. . Z30 ...
ROW 73 : ... .. . ... ... : ... .. . ... ... : ... .. . ... : ... .. . ... : ... .. . Z30 ...
ROW 74 : ... .. 0 ... ... : ... .. . ... ... : --- .. . ... : ... .. . ... : ... .. . Z30 ...
ROW 75 : ... .. . ... ... : ... .. . ... ... : ... .. . ... : ... .. . ... : ... .. . Z30 ...
ROW 76 : ... .. . ... ... : ... .. . ... ... : ... .. . ... : ... .. . ... : ... .. . Z30 ...
ROW 77 : ... .. . ... ... : ... .. . ... ... : ... .. . ... : ... .. . ... : ... .. . Z30 ...
ROW 78 : ... .. . ... ... : ... .. . ... ... : ... .. . ... : ... .. . ... : ... .. . Z30 ...
ROW 79 : ... .. . ... ... : ... .. . ... ... : ... .. . ... : ... .. . ... : ... .. . Z30 ...
ROW 7A : ... .. . ... ... : ... .. . ... ... : ... .. . ... : ... .. . ... : ... .. . Z30 ...
ROW 7B : ... .. . ... ... : ... .. . ... ... : ... .. . ... : ... .. . ... : ... .. . Z30 ...
ROW 7C : ... .. . ... ... : ... .. . ... ... : ... .. . ... : ... .. . ... : ... .. . Z30 ...
ROW 7D : ... .. . ... ... : ... .. . ... ... : ... .. . ... : ... .. . ... : ... .. . Z30 ...
ROW 7E : ... .. . ... ... : ... .. . ... ... : ... .. . ... : ... .. C ... : ... .. . Z30 ...
ROW 7F : ... .. . ... ... : ... .. . ... ... : ... .. . ... : ... .. 0 ... : ... .. . Z30 ...
ROW 80 : ... .. . ... ... : ... .. . ... ... : ... .. . ... : ... .. . ... : ... .. . Z30 ...
ROW 81 : ... .. . ... ... : ... .. . ... ... : ... .. . ... : ... .. . ... : ... .. . Z30 ...
ROW 82 : ... .. . ... ... : ... .. . ... ... : ... .. . ... : ... .. . ... : ... .. . Z30 ...
ROW 83 : ... .. . ... ... : ... .. . ... ... : ... .. . ... : ... .. . ... : ... .. . Z30 ...
ROW 84 : ... .. . ... ... : ... .. . ... ... : ... .. . ... : ... .. . ... : ... .. . Z30 ...
ROW 85 : ... .. . ... ... : ... .. . ... ... : ... .. . ... : ... .. . ... : ... .. . Z30 ...
ROW 86 : ... .. . ... ... : ... .. . ... ... : ... .. . ... : ... .. . ... : ... .. . Z30 ...
ROW 87 : ... .. . ... ... : ... .. . ... ... : ... .. . ... : ... .. . ... : ... .. . Z30 ...
ROW 88 : ... .. . ... ... : ... .. . ... ... : ... .. . ... : ... .. . ... : ... .. . Z30 ...
ROW 89 : ... .. . ... ... : ... .. . ... ... : ... .. . ... : ... .. . ... : ... .. . Z30 ...
ROW 8A : ... .. . ... ... : ... .. . ... ... : ... .. . ... : ... .. . ... : ... .. . Z30 ...
ROW 8B : ... .. . ... ... : ... .. . ... ... : ... .. . ... : ... .. . ... : ... .. . Z30 ...
ROW 8C : ... .. . ... ... : ... .. . ... ... : ... .. . ... : ... .. . ... : ... .. . Z30 ...
ROW 8D : ... .. . ... ... : ... .. . ... ... : ... .. . ... : ... .. . ... : ... .. . Z30 ...
ROW 8E : ... .. . ... ... : ... .. . ... ... : ... .. . ... : ... .. . ... : ... .. . Z30 ...
ROW 8F : ... .. . ... ... : ... .. . ... ... : ... .. . ... : ... .. . ... : ... .. . Z30 B01

TRACK 108   1 150 "Underworld"
COLUMNS : 2 2 1 1 2

ORDER 00 : 00 00 00 00 00
ORDER 01 : 01 01 01 01 01
ORDER 02 : 02 02 02 02 02
ORDER 03 : 03 03 03 03 03
ORDER 04 : 04 04 04 04 04
ORDER 05 : 05 05 05 05 05
ORDER 06 : 06 06 06 06 06
ORDER 07 : 08 08 08 08 08

PATTERN 00
ROW 00 : --- .. 0 P80 V00 : C-3 00 0 P80 V02 : C-3 00 . P80 : F-# 00 0 V00 : --- .. . Z30 ...
ROW 01 : ... .. . ... ... : ... .. 8 ... ... : ... .. . ... : ... .. . ... : ... .. . Z2F ...
ROW 02 : ... .. . ... ... : ... .. 7 ... ... : ... .. . ... : ... .. . ... : ... .. . Z2E ...
ROW 03 : ... .. . ... ... : ... .. 6 ... ... : ... .. . ... : ... .. . ... : ... .. . Z2D ...
ROW 04 : ... .. . ... ... : ... .. 5 ... ... : ... .. . ... : ... .. . ... : ... .. . Z2C ...
ROW 05 : ... .. . ... ... : ... .. . ... ... : ... .. . ... : ... .. . ... : ... .. . Z2B ...
ROW 06 : ... .. . ... ... : ... .. 4 ... ... : ... .. . ... : ... .. . ... : ... .. . Z2A ...
ROW 07 : ... .. . ... ... : ... .. . ... ... : ... .. . ... : ... .. . ... : ... .. . Z29 ...
ROW 08 : ... .. . ... ... : ... .. 0 ... ... : --- .. . ... : ... .. . ... : ... .. . Z28 ...
ROW 09 : ... .. . ... ... : C-4 00 0 P80 ... : C-4 00 . P80 : ... .. . ... : ... .. . Z27 ...
ROW 0A : ... .. . ... ... : ... .. 8 ... ... : ... .. . ... : ... .. . ... : ... .. . Z26 ...
ROW 0B : ... .. . ... ... : ... .. 7 ... ... : ... .. . ... : ... .. . ... : ... .. . Z25 ...
ROW 0C : ... .. . ... ... : ... .. 6 ... ... : ... .. . ... : ... .. . ... : ... .. . Z24 ...
ROW 0D : ... .. . ... ... : ... .. 5 ... ... : ... .. . ... : ... .. . ... : ... .. . Z23 ...
ROW 0E : ... .. . ... ... : ... .. . ... ... : ... .. . ... : ... .. . ... : ... .. . Z22 ...
ROW 0F : ... .. . ... ... : ... .. 4 ... ... : ... .. . ... : ... .. . ... : ... .. . Z21 ...
ROW 10 : ... .. . ... ... : ... .. . ... ... : ... .. . ... : ... .. . ... : ... .. . Z20 ...
ROW 11 : ... .. . ... ... : ... .. 0 ... ... : --- .. . ... : ... .. . ... : ... .. . Z1F ...
ROW 12 : ... .. . ... ... : A-2 00 0 P7B ... : A-2 00 . P7B : ... .. . ... : ... .. . Z1E ...
ROW 13 : ... .. . ... ... : ... .. 8 ... ... : ... .. . ... : ... .. . ... : ... .. . Z1D ...
ROW 14 : ... .. . ... ... : ... .. 7 ... ... : ... .. . ... : ... .. . ... : ... .. . Z1C ...
ROW 15 : ... .. . ... ... : ... .. 6 ... ... : ... .. . ... : ... .. . ... : ... .. . Z1B ...
ROW 16 : ... .. . ... ... : ... .. 5 ... ... : ... .. . ... : ... .. . ... : ... .. . Z1A ...
ROW 17 : ... .. . ... ... : ... .. . ... ... : ... .. . ... : ... .. . ... : ... .. . Z19 ...
ROW 18 : ... .. . ... ... : ... .. 4 ... ... : ... .. . ... : ... .. . ... : ... .. . Z18 ...
ROW 19 : ... .. . ... ... : ... .. . ... ... : ... .. . ... : ... .. . ... : ... .. . Z17 ...
ROW 1A : ... .. . ... ... : ... .. 0 ... ... : --- .. . ... : ... .. . ... : ... .. . Z16 ...
ROW 1B : ... .. . ... ... : A-3 00 0 P7E ... : A-3 00 . P7E : ... .. . ... : ... .. . Z15 ...
ROW 1C : ... .. . ... ... : ... .. 8 ... ... : ... .. . ... : ... .. . ... : ... .. . Z14 ...
ROW 1D : ... .. . ... ... : ... .. 7 ... ... : ... .. . ... : ... .. . ... : ... .. . Z13 ...
ROW 1E : ... .. . ... ... : ... .. 6 ... ... : ... .. . ... : ... .. . ... : ... .. . Z12 ...
ROW 1F : ... .. . ... ... : ... .. 5 ... ... : ... .. . ... : ... .. . ... : ... .. . Z11 ...
ROW 20 : ... .. . ... ... : ... .. . ... ... : ... .. . ... : ... .. . ... : ... .. . Z10 ...
ROW 21 : ... .. . ... ... : ... .. 4 ... ... : ... .. . ... : ... .. . ... : ... .. . Z0F ...
ROW 22 : ... .. . ... ... : ... .. . ... ... : ... .. . ... : ... .. . ... : ... .. . Z0E ...
ROW 23 : ... .. . ... ... : ... .. 0 ... ... : --- .. . ... : ... .. . ... : ... .. . Z0D ...
ROW 24 : ... .. . ... ... : A#2 00 0 P77 ... : A#2 00 . P77 : ... .. . ... : ... .. . Z0C ...
ROW 25 : ... .. . ... ... : ... .. 8 ... ... : ... .. . ... : ... .. . ... : ... .. . Z0B ...
ROW 26 : ... .. . ... ... : ... .. 7 ... ... : ... .. . ... : ... .. . ... : ... .. . Z0A ...
ROW 27 : ... .. . ... ... : ... .. 6 ... ... : ... .. . ... : ... .. . ... : ... .. . Z09 ...
ROW 28 : ... .. . ... ... : ... .. 5 ... ... : ... .. . ... : ... .. . ... : ... .. . Z08 ...
ROW 29 : ... .. . ... ... : ... .. . ... ... : ... .. . ... : ... .. . ... : ... .. . Z07 ...
ROW 2A : ... .. . ... ... : ... .. 4 ... ... : ... .. . ... : ... .. . ... : ... .. . Z06 ...
ROW 2B : ... .. . ... ... : ... .. . ... ... : ... .. . ... : ... .. . ... : ... .. . Z05 ...
ROW 2C : ... .. . ... ... : ... .. 0 ... ... : --- .. . ... : ... .. . ... : ... .. . Z04 ...
ROW 2D : ... .. . ... ... : A#3 00 0 P7C ... : A#3 00 . P7C : ... .. . ... : ... .. . Z03 ...
ROW 2E : ... .. . ... ... : ... .. 8 ... ... : ... .. . ... : ... .. . ... : ... .. . Z02 ...
ROW 2F : ... .. . ... ... : ... .. 7 ... ... : ... .. . ... : ... .. . ... : ... .. . Z01 ...
ROW 30 : ... .. . ... ... : ... .. 6 ... ... : ... .. . ... : ... .. . ... : ... .. . Z00 ...
ROW 31 : ... .. . ... ... : ... .. 5 ... ... : ... .. . ... : ... .. . ... : ... .. . Z00 ...
ROW 32 : ... .. . ... ... : ... .. . ... ... : ... .. . ... : ... .. . ... : ... .. . Z00 ...
ROW 33 : ... .. . ... ... : ... .. 4 ... ... : ... .. . ... : ... .. . ... : ... .. . Z00 ...
ROW 34 : ... .. . ... ... : ... .. . ... ... : ... .. . ... : ... .. . ... : ... .. . Z00 ...
ROW 35 : ... .. . ... ... : ... .. 0 ... ... : --- .. . ... : ... .. . ... : ... .. . Z00 ...
ROW 36 : ... .. . ... ... : ... .. . ... ... : ... .. . ... : ... .. . ... : ... .. . Z00 ...
ROW 37 : ... .. . ... ... : ... .. . ... ... : ... .. . ... : ... .. . ... : ... .. . Z00 ...
ROW 38 : ... .. . ... ... : ... .. . ... ... : ... .. . ... : ... .. . ... : ... .. . Z00 ...
ROW 39 : ... .. . ... ... : ... .. . ... ... : ... .. . ... : ... .. . ... : ... .. . Z00 ...
ROW 3A : ... .. . ... ... : ... .. . ... ... : ... .. . ... : ... .. . ... : ... .. . Z00 ...
ROW 3B : ... .. . ... ... : ... .. . ... ... : ... .. . ... : ... .. . ... : ... .. . Z00 ...
ROW 3C : ... .. . ... ... : ... .. . ... ... : ... .. . ... : ... .. . ... : ... .. . Z00 ...
ROW 3D : ... .. . ... ... : ... .. . ... ... : ... .. . ... : ... .. . ... : ... .. . Z00 ...
ROW 3E : ... .. . ... ... : ... .. . ... ... : ... .. . ... : ... .. . ... : ... .. . Z00 ...
ROW 3F : ... .. . ... ... : ... .. . ... ... : ... .. . ... : ... .. . ... : ... .. . Z00 ...
ROW 40 : ... .. . ... ... : ... .. . ... ... : ... .. . ... : ... .. . ... : ... .. . Z00 ...
ROW 41 : ... .. . ... ... : ... .. . ... ... : ... .. . ... : ... .. . ... : ... .. . Z00 ...
ROW 42 : ... .. . ... ... : ... .. . ... ... : ... .. . ... : ... .. . ... : ... .. . Z00 ...
ROW 43 : ... .. . ... ... : ... .. . ... ... : ... .. . ... : ... .. . ... : ... .. . Z00 ...
ROW 44 : ... .. . ... ... : ... .. . ... ... : ... .. . ... : ... .. . ... : ... .. . Z00 ...
ROW 45 : ... .. . ... ... : ... .. . ... ... : ... .. . ... : ... .. . ... : ... .. . Z00 ...
ROW 46 : ... .. . ... ... : ... .. . ... ... : ... .. . ... : ... .. . ... : ... .. . Z00 ...
ROW 47 : ... .. . ... ... : ... .. . ... ... : ... .. . ... : ... .. . ... : ... .. . Z00 ...
ROW 48 : ... .. . ... ... : ... .. . ... ... : ... .. . ... : ... .. . ... : ... .. . Z00 ...
ROW 49 : ... .. . ... ... : ... .. . ... ... : ... .. . ... : ... .. . ... : ... .. . Z00 ...
ROW 4A : ... .. . ... ... : ... .. . ... ... : ... .. . ... : ... .. . ... : ... .. . Z00 ...
ROW 4B : ... .. . ... ... : ... .. . ... ... : ... .. . ... : ... .. . ... : ... .. . Z00 ...
ROW 4C : ... .. . ... ... : ... .. . ... ... : ... .. . ... : ... .. . ... : ... .. . Z00 ...
ROW 4D : ... .. . ... ... : ... .. . ... ... : ... .. . ... : ... .. . ... : ... .. . Z00 ...
ROW 4E : ... .. . ... ... : ... .. . ... ... : ... .. . ... : ... .. . ... : ... .. . Z00 ...
ROW 4F : ... .. . ... ... : ... .. . ... ... : ... .. . ... : ... .. . ... : ... .. . Z00 ...
ROW 50 : ... .. . ... ... : ... .. . ... ... : ... .. . ... : ... .. . ... : ... .. . Z00 ...
ROW 51 : ... .. . ... ... : ... .. . ... ... : ... .. . ... : ... .. . ... : ... .. . Z00 ...
ROW 52 : ... .. . ... ... : ... .. . ... ... : ... .. . ... : ... .. . ... : ... .. . Z00 ...
ROW 53 : ... .. . ... ... : ... .. . ... ... : ... .. . ... : ... .. . ... : ... .. . Z00 ...
ROW 54 : ... .. . ... ... : ... .. . ... ... : ... .. . ... : ... .. . ... : ... .. . Z00 ...
ROW 55 : ... .. . ... ... : ... .. . ... ... : ... .. . ... : ... .. . ... : ... .. . Z00 ...
ROW 56 : ... .. . ... ... : ... .. . ... ... : ... .. . ... : ... .. . ... : ... .. . Z00 ...
ROW 57 : ... .. . ... ... : ... .. . ... ... : ... .. . ... : ... .. . ... : ... .. . Z00 ...
ROW 58 : ... .. . ... ... : ... .. . ... ... : ... .. . ... : ... .. . ... : ... .. . Z00 ...
ROW 59 : ... .. . ... ... : ... .. . ... ... : ... .. . ... : ... .. . ... : ... .. . Z00 ...
ROW 5A : ... .. . ... ... : ... .. . ... ... : ... .. . ... : ... .. . ... : ... .. . Z00 ...
ROW 5B : ... .. . ... ... : ... .. . ... ... : ... .. . ... : ... .. . ... : ... .. . Z00 ...
ROW 5C : ... .. . ... ... : ... .. . ... ... : ... .. . ... : ... .. . ... : ... .. . Z00 ...
ROW 5D : ... .. . ... ... : ... .. . ... ... : ... .. . ... : ... .. . ... : ... .. . Z00 ...
ROW 5E : ... .. . ... ... : ... .. . ... ... : ... .. . ... : ... .. . ... : ... .. . Z00 ...
ROW 5F : ... .. . ... ... : ... .. . ... ... : ... .. . ... : ... .. . ... : ... .. . Z00 ...
ROW 60 : ... .. . ... ... : ... .. . ... ... : ... .. . ... : ... .. . ... : ... .. . Z00 ...
ROW 61 : ... .. . ... ... : ... .. . ... ... : ... .. . ... : ... .. . ... : ... .. . Z00 ...
ROW 62 : ... .. . ... ... : ... .. . ... ... : ... .. . ... : ... .. . ... : ... .. . Z00 ...
ROW 63 : ... .. . ... ... : ... .. . ... ... : ... .. . ... : ... .. . ... : ... .. . Z00 ...
ROW 64 : ... .. . ... ... : ... .. . ... ... : ... .. . ... : ... .. . ... : ... .. . Z00 ...
ROW 65 : ... .. . ... ... : ... .. . ... ... : ... .. . ... : ... .. . ... : ... .. . Z00 ...
ROW 66 : ... .. . ... ... : ... .. . ... ... : ... .. . ... : ... .. . ... : ... .. . Z00 ...
ROW 67 : ... .. . ... ... : ... .. . ... ... : ... .. . ... : ... .. . ... : ... .. . Z00 ...
ROW 68 : ... .. . ... ... : ... .. . ... ... : ... .. . ... : ... .. . ... : ... .. . Z00 ...
ROW 69 : ... .. . ... ... : ... .. . ... ... : ... .. . ... : ... .. . ... : ... .. . Z00 ...
ROW 6A : ... .. . ... ... : ... .. . ... ... : ... .. . ... : ... .. . ... : ... .. . Z00 ...
ROW 6B : ... .. . ... ... : ... .. . ... ... : ... .. . ... : ... .. . ... : ... .. . Z00 ...

PATTERN 01
ROW 00 : ... .. . ... ... : C-3 00 0 P80 ... : C-3 00 . P80 : ... .. . ... : ... .. . Z00 ...
ROW 01 : ... .. . ... ... : ... .. 8 ... ... : ... .. . ... : ... .. . ... : ... .. . Z00 ...
ROW 02 : ... .. . ... ... : ... .. 7 ... ... : ... .. . ... : ... .. . ... : ... .. . Z00 ...
ROW 03 : ... .. . ... ... : ... .. 6 ... ... : ... .. . ... : ... .. . ... : ... .. . Z00 ...
ROW 04 : ... .. . ... ... : ... .. 5 ... ... : ... .. . ... : ... .. . ... : ... .. . Z00 ...
ROW 05 : ... .. . ... ... : ... .. . ... ... : ... .. . ... : ... .. . ... : ... .. . Z00 ...
ROW 06 : ... .. . ... ... : ... .. 4 ... ... : ... .. . ... : ... .. . ... : ... .. . Z00 ...
ROW 07 : ... .. . ... ... : ... .. . ... ... : ... .. . ... : ... .. . ... : ... .. . Z00 ...
ROW 08 : ... .. . ... ... : ... .. 0 ... ... : --- .. . ... : ... .. . ... : ... .. . Z00 ...
ROW 09 : ... .. . ... ... : C-4 00 0 P80 ... : C-4 00 . P80 : ... .. . ... : ... .. . Z00 ...
ROW 0A : ... .. . ... ... : ... .. 8 ... ... : ... .. . ... : ... .. . ... : ... .. . Z00 ...
ROW 0B : ... .. . ... ... : ... .. 7 ... ... : ... .. . ... : ... .. . ... : ... .. . Z00 ...
ROW 0C : ... .. . ... ... : ... .. 6 ... ... : ... .. . ... : ... .. . ... : ... .. . Z00 ...
ROW 0D : ... .. . ... ... : ... .. 5 ... ... : ... .. . ... : ... .. . ... : ... .. . Z00 ...
ROW 0E : ... .. . ... ... : ... .. . ... ... : ... .. . ... : ... .. . ... : ... .. . Z00 ...
ROW 0F : ... .. . ... ... : ... .. 4 ... ... : ... .. . ... : ... .. . ... : ... .. . Z00 ...
ROW 10 : ... .. . ... ... : ... .. . ... ... : ... .. . ... : ... .. . ... : ... .. . Z00 ...
ROW 11 : ... .. . ... ... : ... .. 0 ... ... : --- .. . ... : ... .. . ... : ... .. . Z00 ...
ROW 12 : ... .. . ... ... : A-2 00 0 P7B ... : A-2 00 . P7B : ... .. . ... : ... .. . Z00 ...
ROW 13 : ... .. . ... ... : ... .. 8 ... ... : ... .. . ... : ... .. . ... : ... .. . Z00 ...
ROW 14 : ... .. . ... ... : ... .. 7 ... ... : ... .. . ... : ... .. . ... : ... .. . Z00 ...
ROW 15 : ... .. . ... ... : ... .. 6 ... ... : ... .. . ... : ... .. . ... : ... .. . Z00 ...
ROW 16 : ... .. . ... ... : ... .. 5 ... ... : ... .. . ... : ... .. . ... : ... .. . Z00 ...
ROW 17 : ... .. . ... ... : ... .. . ... ... : ... .. . ... : ... .. . ... : ... .. . Z00 ...
ROW 18 : ... .. . ... ... : ... .. 4 ... ... : ... .. . ... : ... .. . ... : ... .. . Z00 ...
ROW 19 : ... .. . ... ... : ... .. . ... ... : ... .. . ... : ... .. . ... : ... .. . Z00 ...
ROW 1A : ... .. . ... ... : ... .. 0 ... ... : --- .. . ... : ... .. . ... : ... .. . Z00 ...
ROW 1B : ... .. . ... ... : A-3 00 0 P7E ... : A-3 00 . P7E : ... .. . ... : ... .. . Z00 ...
ROW 1C : ... .. . ... ... : ... .. 8 ... ... : ... .. . ... : ... .. . ... : ... .. . Z00 ...
ROW 1D : ... .. . ... ... : ... .. 7 ... ... : ... .. . ... : ... .. . ... : ... .. . Z00 ...
ROW 1E : ... .. . ... ... : ... .. 6 ... ... : ... .. . ... : ... .. . ... : ... .. . Z00 ...
ROW 1F : ... .. . ... ... : ... .. 5 ... ... : ... .. . ... : ... .. . ... : ... .. . Z00 ...
ROW 20 : ... .. . ... ... : ... .. . ... ... : ... .. . ... : ... .. . ... : ... .. . Z00 ...
ROW 21 : ... .. . ... ... : ... .. 4 ... ... : ... .. . ... : ... .. . ... : ... .. . Z00 ...
ROW 22 : ... .. . ... ... : ... .. . ... ... : ... .. . ... : ... .. . ... : ... .. . Z00 ...
ROW 23 : ... .. . ... ... : ... .. 0 ... ... : --- .. . ... : ... .. . ... : ... .. . Z00 ...
ROW 24 : ... .. . ... ... : A#2 00 0 P77 ... : A#2 00 . P77 : ... .. . ... : ... .. . Z00 ...
ROW 25 : ... .. . ... ... : ... .. 8 ... ... : ... .. . ... : ... .. . ... : ... .. . Z00 ...
ROW 26 : ... .. . ... ... : ... .. 7 ... ... : ... .. . ... : ... .. . ... : ... .. . Z00 ...
ROW 27 : ... .. . ... ... : ... .. 6 ... ... : ... .. . ... : ... .. . ... : ... .. . Z00 ...
ROW 28 : ... .. . ... ... : ... .. 5 ... ... : ... .. . ... : ... .. . ... : ... .. . Z00 ...
ROW 29 : ... .. . ... ... : ... .. . ... ... : ... .. . ... : ... .. . ... : ... .. . Z00 ...
ROW 2A : ... .. . ... ... : ... .. 4 ... ... : ... .. . ... : ... .. . ... : ... .. . Z00 ...
ROW 2B : ... .. . ... ... : ... .. . ... ... : ... .. . ... : ... .. . ... : ... .. . Z00 ...
ROW 2C : ... .. . ... ... : ... .. 0 ... ... : --- .. . ... : ... .. . ... : ... .. . Z00 ...
ROW 2D : ... .. . ... ... : A#3 00 0 P7C ... : A#3 00 . P7C : ... .. . ... : ... .. . Z00 ...
ROW 2E : ... .. . ... ... : ... .. 8 ... ... : ... .. . ... : ... .. . ... : ... .. . Z00 ...
ROW 2F : ... .. . ... ... : ... .. 7 ... ... : ... .. . ... : ... .. . ... : ... .. . Z00 ...
ROW 30 : ... .. . ... ... : ... .. 6 ... ... : ... .. . ... : ... .. . ... : ... .. . Z00 ...
ROW 31 : ... .. . ... ... : ... .. 5 ... ... : ... .. . ... : ... .. . ... : ... .. . Z00 ...
ROW 32 : ... .. . ... ... : ... .. . ... ... : ... .. . ... : ... .. . ... : ... .. . Z00 ...
ROW 33 : ... .. . ... ... : ... .. 4 ... ... : ... .. . ... : ... .. . ... : ... .. . Z00 ...
ROW 34 : ... .. . ... ... : ... .. . ... ... : ... .. . ... : ... .. . ... : ... .. . Z00 ...
ROW 35 : ... .. . ... ... : ... .. 0 ... ... : --- .. . ... : ... .. . ... : ... .. . Z00 ...
ROW 36 : ... .. . ... ... : ... .. . ... ... : ... .. . ... : ... .. . ... : ... .. . Z00 ...
ROW 37 : ... .. . ... ... : ... .. . ... ... : ... .. . ... : ... .. . ... : ... .. . Z00 ...
ROW 38 : ... .. . ... ... : ... .. . ... ... : ... .. . ... : ... .. . ... : ... .. . Z00 ...
ROW 39 : ... .. . ... ... : ... .. . ... ... : ... .. . ... : ... .. . ... : ... .. . Z00 ...
ROW 3A : ... .. . ... ... : ... .. . ... ... : ... .. . ... : ... .. . ... : ... .. . Z00 ...
ROW 3B : ... .. . ... ... : ... .. . ... ... : ... .. . ... : ... .. . ... : ... .. . Z00 ...
ROW 3C : ... .. . ... ... : ... .. . ... ... : ... .. . ... : ... .. . ... : ... .. . Z00 ...
ROW 3D : ... .. . ... ... : ... .. . ... ... : ... .. . ... : ... .. . ... : ... .. . Z00 ...
ROW 3E : ... .. . ... ... : ... .. . ... ... : ... .. . ... : ... .. . ... : ... .. . Z00 ...
ROW 3F : ... .. . ... ... : ... .. . ... ... : ... .. . ... : ... .. . ... : ... .. . Z00 ...
ROW 40 : ... .. . ... ... : ... .. . ... ... : ... .. . ... : ... .. . ... : ... .. . Z00 ...
ROW 41 : ... .. . ... ... : ... .. . ... ... : ... .. . ... : ... .. . ... : ... .. . Z00 ...
ROW 42 : ... .. . ... ... : ... .. . ... ... : ... .. . ... : ... .. . ... : ... .. . Z00 ...
ROW 43 : ... .. . ... ... : ... .. . ... ... : ... .. . ... : ... .. . ... : ... .. . Z00 ...
ROW 44 : ... .. . ... ... : ... .. . ... ... : ... .. . ... : ... .. . ... : ... .. . Z00 ...
ROW 45 : ... .. . ... ... : ... .. . ... ... : ... .. . ... : ... .. . ... : ... .. . Z00 ...
ROW 46 : ... .. . ... ... : ... .. . ... ... : ... .. . ... : ... .. . ... : ... .. . Z00 ...
ROW 47 : ... .. . ... ... : ... .. . ... ... : ... .. . ... : ... .. . ... : ... .. . Z00 ...
ROW 48 : ... .. . ... ... : ... .. . ... ... : ... .. . ... : ... .. . ... : ... .. . Z00 ...
ROW 49 : ... .. . ... ... : ... .. . ... ... : ... .. . ... : ... .. . ... : ... .. . Z00 ...
ROW 4A : ... .. . ... ... : ... .. . ... ... : ... .. . ... : ... .. . ... : ... .. . Z00 ...
ROW 4B : ... .. . ... ... : ... .. . ... ... : ... .. . ... : ... .. . ... : ... .. . Z00 ...
ROW 4C : ... .. . ... ... : ... .. . ... ... : ... .. . ... : ... .. . ... : ... .. . Z00 ...
ROW 4D : ... .. . ... ... : ... .. . ... ... : ... .. . ... : ... .. . ... : ... .. . Z00 ...
ROW 4E : ... .. . ... ... : ... .. . ... ... : ... .. . ... : ... .. . ... : ... .. . Z00 ...
ROW 4F : ... .. . ... ... : ... .. . ... ... : ... .. . ... : ... .. . ... : ... .. . Z00 ...
ROW 50 : ... .. . ... ... : ... .. . ... ... : ... .. . ... : ... .. . ... : ... .. . Z00 ...
ROW 51 : ... .. . ... ... : ... .. . ... ... : ... .. . ... : ... .. . ... : ... .. . Z00 ...
ROW 52 : ... .. . ... ... : ... .. . ... ... : ... .. . ... : ... .. . ... : ... .. . Z00 ...
ROW 53 : ... .. . ... ... : ... .. . ... ... : ... .. . ... : ... .. . ... : ... .. . Z00 ...
ROW 54 : ... .. . ... ... : ... .. . ... ... : ... .. . ... : ... .. . ... : ... .. . Z00 ...
ROW 55 : ... .. . ... ... : ... .. . ... ... : ... .. . ... : ... .. . ... : ... .. . Z00 ...
ROW 56 : ... .. . ... ... : ... .. . ... ... : ... .. . ... : ... .. . ... : ... .. . Z00 ...
ROW 57 : ... .. . ... ... : ... .. . ... ... : ... .. . ... : ... .. . ... : ... .. . Z00 ...
ROW 58 : ... .. . ... ... : ... .. . ... ... : ... .. . ... : ... .. . ... : ... .. . Z00 ...
ROW 59 : ... .. . ... ... : ... .. . ... ... : ... .. . ... : ... .. . ... : ... .. . Z00 ...
ROW 5A : ... .. . ... ... : ... .. . ... ... : ... .. . ... : ... .. . ... : ... .. . Z00 ...
ROW 5B : ... .. . ... ... : ... .. . ... ... : ... .. . ... : ... .. . ... : ... .. . Z00 ...
ROW 5C : ... .. . ... ... : ... .. . ... ... : ... .. . ... : ... .. . ... : ... .. . Z00 ...
ROW 5D : ... .. . ... ... : ... .. . ... ... : ... .. . ... : ... .. . ... : ... .. . Z00 ...
ROW 5E : ... .. . ... ... : ... .. . ... ... : ... .. . ... : ... .. . ... : ... .. . Z00 ...
ROW 5F : ... .. . ... ... : ... .. . ... ... : ... .. . ... : ... .. . ... : ... .. . Z00 ...
ROW 60 : ... .. . ... ... : ... .. . ... ... : ... .. . ... : ... .. . ... : ... .. . Z00 ...
ROW 61 : ... .. . ... ... : ... .. . ... ... : ... .. . ... : ... .. . ... : ... .. . Z00 ...
ROW 62 : ... .. . ... ... : ... .. . ... ... : ... .. . ... : ... .. . ... : ... .. . Z00 ...
ROW 63 : ... .. . ... ... : ... .. . ... ... : ... .. . ... : ... .. . ... : ... .. . Z00 ...
ROW 64 : ... .. . ... ... : ... .. . ... ... : ... .. . ... : ... .. . ... : ... .. . Z00 ...
ROW 65 : ... .. . ... ... : ... .. . ... ... : ... .. . ... : ... .. . ... : ... .. . Z00 ...
ROW 66 : ... .. . ... ... : ... .. . ... ... : ... .. . ... : ... .. . ... : ... .. . Z00 ...
ROW 67 : ... .. . ... ... : ... .. . ... ... : ... .. . ... : ... .. . ... : ... .. . Z00 ...
ROW 68 : ... .. . ... ... : ... .. . ... ... : ... .. . ... : ... .. . ... : ... .. . Z00 ...
ROW 69 : ... .. . ... ... : ... .. . ... ... : ... .. . ... : ... .. . ... : ... .. . Z00 ...
ROW 6A : ... .. . ... ... : ... .. . ... ... : ... .. . ... : ... .. . ... : ... .. . Z00 ...
ROW 6B : ... .. . ... ... : ... .. . ... ... : ... .. . ... : ... .. . ... : ... .. . Z00 ...

PATTERN 02
ROW 00 : ... .. . ... ... : F-2 00 0 P7F ... : F-2 00 . P7F : ... .. . ... : ... .. . Z00 ...
ROW 01 : ... .. . ... ... : ... .. 8 ... ... : ... .. . ... : ... .. . ... : ... .. . Z00 ...
ROW 02 : ... .. . ... ... : ... .. 7 ... ... : ... .. . ... : ... .. . ... : ... .. . Z00 ...
ROW 03 : ... .. . ... ... : ... .. 6 ... ... : ... .. . ... : ... .. . ... : ... .. . Z00 ...
ROW 04 : ... .. . ... ... : ... .. 5 ... ... : ... .. . ... : ... .. . ... : ... .. . Z00 ...
ROW 05 : ... .. . ... ... : ... .. . ... ... : ... .. . ... : ... .. . ... : ... .. . Z00 ...
ROW 06 : ... .. . ... ... : ... .. 4 ... ... : ... .. . ... : ... .. . ... : ... .. . Z00 ...
ROW 07 : ... .. . ... ... : ... .. . ... ... : ... .. . ... : ... .. . ... : ... .. . Z00 ...
ROW 08 : ... .. . ... ... : ... .. 0 ... ... : --- .. . ... : ... .. . ... : ... .. . Z00 ...
ROW 09 : ... .. . ... ... : F-3 00 0 P80 ... : F-3 00 . P80 : ... .. . ... : ... .. . Z00 ...
ROW 0A : ... .. . ... ... : ... .. 8 ... ... : ... .. . ... : ... .. . ... : ... .. . Z00 ...
ROW 0B : ... .. . ... ... : ... .. 7 ... ... : ... .. . ... : ... .. . ... : ... .. . Z00 ...
ROW 0C : ... .. . ... ... : ... .. 6 ... ... : ... .. . ... : ... .. . ... : ... .. . Z00 ...
ROW 0D : ... .. . ... ... : ... .. 5 ... ... : ... .. . ... : ... .. . ... : ... .. . Z00 ...
ROW 0E : ... .. . ... ... : ... .. . ... ... : ... .. . ... : ... .. . ... : ... .. . Z00 ...
ROW 0F : ... .. . ... ... : ... .. 4 ... ... : ... .. . ... : ... .. . ... : ... .. . Z00 ...
ROW 10 : ... .. . ... ... : ... .. . ... ... : ... .. . ... : ... .. . ... : ... .. . Z00 ...
ROW 11 : ... .. . ... ... : ... .. 0 ... ... : --- .. . ... : ... .. . ... : ... .. . Z00 ...
ROW 12 : ... .. . ... ... : D-2 00 0 P82 ... : D-2 00 . P82 : ... .. . ... : ... .. . Z00 ...
ROW 13 : ... .. . ... ... : ... .. 8 ... ... : ... .. . ... : ... .. . ... : ... .. . Z00 ...
ROW 14 : ... .. . ... ... : ... .. 7 ... ... : ... .. . ... : ... .. . ... : ... .. . Z00 ...
ROW 15 : ... .. . ... ... : ... .. 6 ... ... : ... .. . ... : ... .. . ... : ... .. . Z00 ...
ROW 16 : ... .. . ... ... : ... .. 5 ... ... : ... .. . ... : ... .. . ... : ... .. . Z00 ...
ROW 17 : ... .. . ... ... : ... .. . ... ... : ... .. . ... : ... .. . ... : ... .. . Z00 ...
ROW 18 : ... .. . ... ... : ... .. 4 ... ... : ... .. . ... : ... .. . ... : ... .. . Z00 ...
ROW 19 : ... .. . ... ... : ... .. . ... ... : ... .. . ... : ... .. . ... : ... .. . Z00 ...
ROW 1A : ... .. . ... ... : ... .. 0 ... ... : --- .. . ... : ... .. . ... : ... .. . Z00 ...
ROW 1B : ... .. . ... ... : D-3 00 0 P81 ... : D-3 00 . P81 : ... .. . ... : ... .. . Z00 ...
ROW 1C : ... .. . ... ... : ... .. 8 ... ... : ... .. . ... : ... .. . ... : ... .. . Z00 ...
ROW 1D : ... .. . ... ... : ... .. 7 ... ... : ... .. . ... : ... .. . ... : ... .. . Z00 ...
ROW 1E : ... .. . ... ... : ... .. 6 ... ... : ... .. . ... : ... .. . ... : ... .. . Z00 ...
ROW 1F : ... .. . ... ... : ... .. 5 ... ... : ... .. . ... : ... .. . ... : ... .. . Z00 ...
ROW 20 : ... .. . ... ... : ... .. . ... ... : ... .. . ... : ... .. . ... : ... .. . Z00 ...
ROW 21 : ... .. . ... ... : ... .. 4 ... ... : ... .. . ... : ... .. . ... : ... .. . Z00 ...
ROW 22 : ... .. . ... ... : ... .. . ... ... : ... .. . ... : ... .. . ... : ... .. . Z00 ...
ROW 23 : ... .. . ... ... : ... .. 0 ... ... : --- .. . ... : ... .. . ... : ... .. . Z00 ...
ROW 24 : ... .. . ... ... : D#2 00 0 P87 ... : D#2 00 . P87 : ... .. . ... : ... .. . Z00 ...
ROW 25 : ... .. . ... ... : ... .. 8 ... ... : ... .. . ... : ... .. . ... : ... .. . Z00 ...
ROW 26 : ... .. . ... ... : ... .. 7 ... ... : ... .. . ... : ... .. . ... : ... .. . Z00 ...
ROW 27 : ... .. . ... ... : ... .. 6 ... ... : ... .. . ... : ... .. . ... : ... .. . Z00 ...
ROW 28 : ... .. . ... ... : ... .. 5 ... ... : ... .. . ... : ... .. . ... : ... .. . Z00 ...
ROW 29 : ... .. . ... ... : ... .. . ... ... : ... .. . ... : ... .. . ... : ... .. . Z00 ...
ROW 2A : ... .. . ... ... : ... .. 4 ... ... : ... .. . ... : ... .. . ... : ... .. . Z00 ...
ROW 2B : ... .. . ... ... : ... .. . ... ... : ... .. . ... : ... .. . ... : ... .. . Z00 ...
ROW 2C : ... .. . ... ... : ... .. 0 ... ... : --- .. . ... : ... .. . ... : ... .. . Z00 ...
ROW 2D : ... .. . ... ... : D#3 00 0 P83 ... : D#3 00 . P83 : ... .. . ... : ... .. . Z00 ...
ROW 2E : ... .. . ... ... : ... .. 8 ... ... : ... .. . ... : ... .. . ... : ... .. . Z00 ...
ROW 2F : ... .. . ... ... : ... .. 7 ... ... : ... .. . ... : ... .. . ... : ... .. . Z00 ...
ROW 30 : ... .. . ... ... : ... .. 6 ... ... : ... .. . ... : ... .. . ... : ... .. . Z00 ...
ROW 31 : ... .. . ... ... : ... .. 5 ... ... : ... .. . ... : ... .. . ... : ... .. . Z00 ...
ROW 32 : ... .. . ... ... : ... .. . ... ... : ... .. . ... : ... .. . ... : ... .. . Z00 ...
ROW 33 : ... .. . ... ... : ... .. 4 ... ... : ... .. . ... : ... .. . ... : ... .. . Z00 ...
ROW 34 : ... .. . ... ... : ... .. . ... ... : ... .. . ... : ... .. . ... : ... .. . Z00 ...
ROW 35 : ... .. . ... ... : ... .. 0 ... ... : --- .. . ... : ... .. . ... : ... .. . Z00 ...
ROW 36 : ... .. . ... ... : ... .. . ... ... : ... .. . ... : ... .. . ... : ... .. . Z00 ...
ROW 37 : ... .. . ... ... : ... .. . ... ... : ... .. . ... : ... .. . ... : ... .. . Z00 ...
ROW 38 : ... .. . ... ... : ... .. . ... ... : ... .. . ... : ... .. . ... : ... .. . Z00 ...
ROW 39 : ... .. . ... ... : ... .. . ... ... : ... .. . ... : ... .. . ... : ... .. . Z00 ...
ROW 3A : ... .. . ... ... : ... .. . ... ... : ... .. . ... : ... .. . ... : ... .. . Z00 ...
ROW 3B : ... .. . ... ... : ... .. . ... ... : ... .. . ... : ... .. . ... : ... .. . Z00 ...
ROW 3C : ... .. . ... ... : ... .. . ... ... : ... .. . ... : ... .. . ... : ... .. . Z00 ...
ROW 3D : ... .. . ... ... : ... .. . ... ... : ... .. . ... : ... .. . ... : ... .. . Z00 ...
ROW 3E : ... .. . ... ... : ... .. . ... ... : ... .. . ... : ... .. . ... : ... .. . Z00 ...
ROW 3F : ... .. . ... ... : ... .. . ... ... : ... .. . ... : ... .. . ... : ... .. . Z00 ...
ROW 40 : ... .. . ... ... : ... .. . ... ... : ... .. . ... : ... .. . ... : ... .. . Z00 ...
ROW 41 : ... .. . ... ... : ... .. . ... ... : ... .. . ... : ... .. . ... : ... .. . Z00 ...
ROW 42 : ... .. . ... ... : ... .. . ... ... : ... .. . ... : ... .. . ... : ... .. . Z00 ...
ROW 43 : ... .. . ... ... : ... .. . ... ... : ... .. . ... : ... .. . ... : ... .. . Z00 ...
ROW 44 : ... .. . ... ... : ... .. . ... ... : ... .. . ... : ... .. . ... : ... .. . Z00 ...
ROW 45 : ... .. . ... ... : ... .. . ... ... : ... .. . ... : ... .. . ... : ... .. . Z00 ...
ROW 46 : ... .. . ... ... : ... .. . ... ... : ... .. . ... : ... .. . ... : ... .. . Z00 ...
ROW 47 : ... .. . ... ... : ... .. . ... ... : ... .. . ... : ... .. . ... : ... .. . Z00 ...
ROW 48 : ... .. . ... ... : ... .. . ... ... : ... .. . ... : ... .. . ... : ... .. . Z00 ...
ROW 49 : ... .. . ... ... : ... .. . ... ... : ... .. . ... : ... .. . ... : ... .. . Z00 ...
ROW 4A : ... .. . ... ... : ... .. . ... ... : ... .. . ... : ... .. . ... : ... .. . Z00 ...
ROW 4B : ... .. . ... ... : ... .. . ... ... : ... .. . ... : ... .. . ... : ... .. . Z00 ...
ROW 4C : ... .. . ... ... : ... .. . ... ... : ... .. . ... : ... .. . ... : ... .. . Z00 ...
ROW 4D : ... .. . ... ... : ... .. . ... ... : ... .. . ... : ... .. . ... : ... .. . Z00 ...
ROW 4E : ... .. . ... ... : ... .. . ... ... : ... .. . ... : ... .. . ... : ... .. . Z00 ...
ROW 4F : ... .. . ... ... : ... .. . ... ... : ... .. . ... : ... .. . ... : ... .. . Z00 ...
ROW 50 : ... .. . ... ... : ... .. . ... ... : ... .. . ... : ... .. . ... : ... .. . Z00 ...
ROW 51 : ... .. . ... ... : ... .. . ... ... : ... .. . ... : ... .. . ... : ... .. . Z00 ...
ROW 52 : ... .. . ... ... : ... .. . ... ... : ... .. . ... : ... .. . ... : ... .. . Z00 ...
ROW 53 : ... .. . ... ... : ... .. . ... ... : ... .. . ... : ... .. . ... : ... .. . Z00 ...
ROW 54 : ... .. . ... ... : ... .. . ... ... : ... .. . ... : ... .. . ... : ... .. . Z00 ...
ROW 55 : ... .. . ... ... : ... .. . ... ... : ... .. . ... : ... .. . ... : ... .. . Z00 ...
ROW 56 : ... .. . ... ... : ... .. . ... ... : ... .. . ... : ... .. . ... : ... .. . Z00 ...
ROW 57 : ... .. . ... ... : ... .. . ... ... : ... .. . ... : ... .. . ... : ... .. . Z00 ...
ROW 58 : ... .. . ... ... : ... .. . ... ... : ... .. . ... : ... .. . ... : ... .. . Z00 ...
ROW 59 : ... .. . ... ... : ... .. . ... ... : ... .. . ... : ... .. . ... : ... .. . Z00 ...
ROW 5A : ... .. . ... ... : ... .. . ... ... : ... .. . ... : ... .. . ... : ... .. . Z00 ...
ROW 5B : ... .. . ... ... : ... .. . ... ... : ... .. . ... : ... .. . ... : ... .. . Z00 ...
ROW 5C : ... .. . ... ... : ... .. . ... ... : ... .. . ... : ... .. . ... : ... .. . Z00 ...
ROW 5D : ... .. . ... ... : ... .. . ... ... : ... .. . ... : ... .. . ... : ... .. . Z00 ...
ROW 5E : ... .. . ... ... : ... .. . ... ... : ... .. . ... : ... .. . ... : ... .. . Z00 ...
ROW 5F : ... .. . ... ... : ... .. . ... ... : ... .. . ... : ... .. . ... : ... .. . Z00 ...
ROW 60 : ... .. . ... ... : ... .. . ... ... : ... .. . ... : ... .. . ... : ... .. . Z00 ...
ROW 61 : ... .. . ... ... : ... .. . ... ... : ... .. . ... : ... .. . ... : ... .. . Z00 ...
ROW 62 : ... .. . ... ... : ... .. . ... ... : ... .. . ... : ... .. . ... : ... .. . Z00 ...
ROW 63 : ... .. . ... ... : ... .. . ... ... : ... .. . ... : ... .. . ... : ... .. . Z00 ...
ROW 64 : ... .. . ... ... : ... .. . ... ... : ... .. . ... : ... .. . ... : ... .. . Z00 ...
ROW 65 : ... .. . ... ... : ... .. . ... ... : ... .. . ... : ... .. . ... : ... .. . Z00 ...
ROW 66 : ... .. . ... ... : ... .. . ... ... : ... .. . ... : ... .. . ... : ... .. . Z00 ...
ROW 67 : ... .. . ... ... : ... .. . ... ... : ... .. . ... : ... .. . ... : ... .. . Z00 ...
ROW 68 : ... .. . ... ... : ... .. . ... ... : ... .. . ... : ... .. . ... : ... .. . Z00 ...
ROW 69 : ... .. . ... ... : ... .. . ... ... : ... .. . ... : ... .. . ... : ... .. . Z00 ...
ROW 6A : ... .. . ... ... : ... .. . ... ... : ... .. . ... : ... .. . ... : ... .. . Z00 ...
ROW 6B : ... .. . ... ... : ... .. . ... ... : ... .. . ... : ... .. . ... : ... .. . Z00 ...

PATTERN 03
ROW 00 : ... .. . ... ... : F-2 00 0 P7F ... : F-2 00 . P7F : ... .. . ... : ... .. . Z00 ...
ROW 01 : ... .. . ... ... : ... .. 8 ... ... : ... .. . ... : ... .. . ... : ... .. . Z00 ...
ROW 02 : ... .. . ... ... : ... .. 7 ... ... : ... .. . ... : ... .. . ... : ... .. . Z00 ...
ROW 03 : ... .. . ... ... : ... .. 6 ... ... : ... .. . ... : ... .. . ... : ... .. . Z00 ...
ROW 04 : ... .. . ... ... : ... .. 5 ... ... : ... .. . ... : ... .. . ... : ... .. . Z00 ...
ROW 05 : ... .. . ... ... : ... .. . ... ... : ... .. . ... : ... .. . ... : ... .. . Z00 ...
ROW 06 : ... .. . ... ... : ... .. 4 ... ... : ... .. . ... : ... .. . ... : ... .. . Z00 ...
ROW 07 : ... .. . ... ... : ... .. . ... ... : ... .. . ... : ... .. . ... : ... .. . Z00 ...
ROW 08 : ... .. . ... ... : ... .. 0 ... ... : --- .. . ... : ... .. . ... : ... .. . Z00 ...
ROW 09 : ... .. . ... ... : F-3 00 0 P80 ... : F-3 00 . P80 : ... .. . ... : ... .. . Z00 ...
ROW 0A : ... .. . ... ... : ... .. 8 ... ... : ... .. . ... : ... .. . ... : ... .. . Z00 ...
ROW 0B : ... .. . ... ... : ... .. 7 ... ... : ... .. . ... : ... .. . ... : ... .. . Z00 ...
ROW 0C : ... .. . ... ... : ... .. 6 ... ... : ... .. . ... : ... .. . ... : ... .. . Z00 ...
ROW 0D : ... .. . ... ... : ... .. 5 ... ... : ... .. . ... : ... .. . ... : ... .. . Z00 ...
ROW 0E : ... .. . ... ... : ... .. . ... ... : ... .. . ... : ... .. . ... : ... .. . Z00 ...
ROW 0F : ... .. . ... ... : ... .. 4 ... ... : ... .. . ... : ... .. . ... : ... .. . Z00 ...
ROW 10 : ... .. . ... ... : ... .. . ... ... : ... .. . ... : ... .. . ... : ... .. . Z00 ...
ROW 11 : ... .. . ... ... : ... .. 0 ... ... : --- .. . ... : ... .. . ... : ... .. . Z00 ...
ROW 12 : ... .. . ... ... : D-2 00 0 P82 ... : D-2 00 . P82 : ... .. . ... : ... .. . Z00 ...
ROW 13 : ... .. . ... ... : ... .. 8 ... ... : ... .. . ... : ... .. . ... : ... .. . Z00 ...
ROW 14 : ... .. . ... ... : ... .. 7 ... ... : ... .. . ... : ... .. . ... : ... .. . Z00 ...
ROW 15 : ... .. . ... ... : ... .. 6 ... ... : ... .. . ... : ... .. . ... : ... .. . Z00 ...
ROW 16 : ... .. . ... ... : ... .. 5 ... ... : ... .. . ... : ... .. . ... : ... .. . Z00 ...
ROW 17 : ... .. . ... ... : ... .. . ... ... : ... .. . ... : ... .. . ... : ... .. . Z00 ...
ROW 18 : ... .. . ... ... : ... .. 4 ... ... : ... .. . ... : ... .. . ... : ... .. . Z00 ...
ROW 19 : ... .. . ... ... : ... .. . ... ... : ... .. . ... : ... .. . ... : ... .. . Z00 ...
ROW 1A : ... .. . ... ... : ... .. 0 ... ... : --- .. . ... : ... .. . ... : ... .. . Z00 ...
ROW 1B : ... .. . ... ... : D-3 00 0 P81 ... : D-3 00 . P81 : ... .. . ... : ... .. . Z00 ...
ROW 1C : ... .. . ... ... : ... .. 8 ... ... : ... .. . ... : ... .. . ... : ... .. . Z00 ...
ROW 1D : ... .. . ... ... : ... .. 7 ... ... : ... .. . ... : ... .. . ... : ... .. . Z00 ...
ROW 1E : ... .. . ... ... : ... .. 6 ... ... : ... .. . ... : ... .. . ... : ... .. . Z00 ...
ROW 1F : ... .. . ... ... : ... .. 5 ... ... : ... .. . ... : ... .. . ... : ... .. . Z00 ...
ROW 20 : ... .. . ... ... : ... .. . ... ... : ... .. . ... : ... .. . ... : ... .. . Z00 ...
ROW 21 : ... .. . ... ... : ... .. 4 ... ... : ... .. . ... : ... .. . ... : ... .. . Z00 ...
ROW 22 : ... .. . ... ... : ... .. . ... ... : ... .. . ... : ... .. . ... : ... .. . Z00 ...
ROW 23 : ... .. . ... ... : ... .. 0 ... ... : --- .. . ... : ... .. . ... : ... .. . Z00 ...
ROW 24 : ... .. . ... ... : D#2 00 0 P87 ... : D#2 00 . P87 : ... .. . ... : ... .. . Z00 ...
ROW 25 : ... .. . ... ... : ... .. 8 ... ... : ... .. . ... : ... .. . ... : ... .. . Z00 ...
ROW 26 : ... .. . ... ... : ... .. 7 ... ... : ... .. . ... : ... .. . ... : ... .. . Z00 ...
ROW 27 : ... .. . ... ... : ... .. 6 ... ... : ... .. . ... : ... .. . ... : ... .. . Z00 ...
ROW 28 : ... .. . ... ... : ... .. 5 ... ... : ... .. . ... : ... .. . ... : ... .. . Z00 ...
ROW 29 : ... .. . ... ... : ... .. . ... ... : ... .. . ... : ... .. . ... : ... .. . Z00 ...
ROW 2A : ... .. . ... ... : ... .. 4 ... ... : ... .. . ... : ... .. . ... : ... .. . Z00 ...
ROW 2B : ... .. . ... ... : ... .. . ... ... : ... .. . ... : ... .. . ... : ... .. . Z00 ...
ROW 2C : ... .. . ... ... : ... .. 0 ... ... : --- .. . ... : ... .. . ... : ... .. . Z00 ...
ROW 2D : ... .. . ... ... : D#3 00 0 P83 ... : D#3 00 . P83 : ... .. . ... : ... .. . Z00 ...
ROW 2E : ... .. . ... ... : ... .. 8 ... ... : ... .. . ... : ... .. . ... : ... .. . Z00 ...
ROW 2F : ... .. . ... ... : ... .. 7 ... ... : ... .. . ... : ... .. . ... : ... .. . Z00 ...
ROW 30 : ... .. . ... ... : ... .. 6 ... ... : ... .. . ... : ... .. . ... : ... .. . Z00 ...
ROW 31 : ... .. . ... ... : ... .. 5 ... ... : ... .. . ... : ... .. . ... : ... .. . Z00 ...
ROW 32 : ... .. . ... ... : ... .. . ... ... : ... .. . ... : ... .. . ... : ... .. . Z00 ...
ROW 33 : ... .. . ... ... : ... .. 4 ... ... : ... .. . ... : ... .. . ... : ... .. . Z00 ...
ROW 34 : ... .. . ... ... : ... .. . ... ... : ... .. . ... : ... .. . ... : ... .. . Z00 ...
ROW 35 : ... .. . ... ... : ... .. 0 ... ... : --- .. . ... : ... .. . ... : ... .. . Z00 ...
ROW 36 : ... .. . ... ... : ... .. . ... ... : ... .. . ... : ... .. . ... : ... .. . Z00 ...
ROW 37 : ... .. . ... ... : ... .. . ... ... : ... .. . ... : ... .. . ... : ... .. . Z00 ...
ROW 38 : ... .. . ... ... : ... .. . ... ... : ... .. . ... : ... .. . ... : ... .. . Z00 ...
ROW 39 : ... .. . ... ... : ... .. . ... ... : ... .. . ... : ... .. . ... : ... .. . Z00 ...
ROW 3A : ... .. . ... ... : ... .. . ... ... : ... .. . ... : ... .. . ... : ... .. . Z00 ...
ROW 3B : ... .. . ... ... : ... .. . ... ... : ... .. . ... : ... .. . ... : ... .. . Z00 ...
ROW 3C : ... .. . ... ... : ... .. . ... ... : ... .. . ... : ... .. . ... : ... .. . Z00 ...
ROW 3D : ... .. . ... ... : ... .. . ... ... : ... .. . ... : ... .. . ... : ... .. . Z00 ...
ROW 3E : ... .. . ... ... : ... .. . ... ... : ... .. . ... : ... .. . ... : ... .. . Z00 ...
ROW 3F : ... .. . ... ... : ... .. . ... ... : ... .. . ... : ... .. . ... : ... .. . Z00 ...
ROW 40 : ... .. . ... ... : ... .. . ... ... : ... .. . ... : ... .. . ... : ... .. . Z00 ...
ROW 41 : ... .. . ... ... : ... .. . ... ... : ... .. . ... : ... .. . ... : ... .. . Z00 ...
ROW 42 : ... .. . ... ... : ... .. . ... ... : ... .. . ... : ... .. . ... : ... .. . Z00 ...
ROW 43 : ... .. . ... ... : ... .. . ... ... : ... .. . ... : ... .. . ... : ... .. . Z00 ...
ROW 44 : ... .. . ... ... : ... .. . ... ... : ... .. . ... : ... .. . ... : ... .. . Z00 ...
ROW 45 : ... .. . ... ... : ... .. . ... ... : ... .. . ... : ... .. . ... : ... .. . Z00 ...
ROW 46 : ... .. . ... ... : ... .. . ... ... : ... .. . ... : ... .. . ... : ... .. . Z00 ...
ROW 47 : ... .. . ... ... : ... .. . ... ... : ... .. . ... : ... .. . ... : ... .. . Z00 ...
ROW 48 : ... .. . ... ... : ... .. . ... ... : ... .. . ... : ... .. . ... : ... .. . Z00 ...
ROW 49 : ... .. . ... ... : ... .. . ... ... : ... .. . ... : ... .. . ... : ... .. . Z00 ...
ROW 4A : ... .. . ... ... : ... .. . ... ... : ... .. . ... : ... .. . ... : ... .. . Z00 ...
ROW 4B : ... .. . ... ... : ... .. . ... ... : ... .. . ... : ... .. . ... : ... .. . Z00 ...
ROW 4C : ... .. . ... ... : ... .. . ... ... : ... .. . ... : ... .. . ... : ... .. . Z00 ...
ROW 4D : ... .. . ... ... : ... .. . ... ... : ... .. . ... : ... .. . ... : ... .. . Z00 ...
ROW 4E : ... .. . ... ... : ... .. . ... ... : ... .. . ... : ... .. . ... : ... .. . Z00 ...
ROW 4F : ... .. . ... ... : ... .. . ... ... : ... .. . ... : ... .. . ... : ... .. . Z00 ...
ROW 50 : ... .. . ... ... : ... .. . ... ... : ... .. . ... : ... .. . ... : ... .. . Z00 ...
ROW 51 : ... .. . ... ... : ... .. . ... ... : ... .. . ... : ... .. . ... : ... .. . Z00 ...
ROW 52 : ... .. . ... ... : ... .. . ... ... : ... .. . ... : ... .. . ... : ... .. . Z00 ...
ROW 53 : ... .. . ... ... : ... .. . ... ... : ... .. . ... : ... .. . ... : ... .. . Z00 ...
ROW 54 : ... .. . ... ... : ... .. . ... ... : ... .. . ... : ... .. . ... : ... .. . Z00 ...
ROW 55 : ... .. . ... ... : ... .. . ... ... : ... .. . ... : ... .. . ... : ... .. . Z00 ...
ROW 56 : ... .. . ... ... : ... .. . ... ... : ... .. . ... : ... .. . ... : ... .. . Z00 ...
ROW 57 : ... .. . ... ... : ... .. . ... ... : ... .. . ... : ... .. . ... : ... .. . Z00 ...
ROW 58 : ... .. . ... ... : ... .. . ... ... : ... .. . ... : ... .. . ... : ... .. . Z00 ...
ROW 59 : ... .. . ... ... : ... .. . ... ... : ... .. . ... : ... .. . ... : ... .. . Z00 ...
ROW 5A : ... .. . ... ... : ... .. . ... ... : D#3 00 . P83 : ... .. . ... : ... .. . Z00 ...
ROW 5B : ... .. . ... ... : ... .. 8 ... ... : ... .. . ... : ... .. . ... : ... .. . Z00 ...
ROW 5C : ... .. . ... ... : ... .. 7 ... ... : ... .. . ... : ... .. . ... : ... .. . Z00 ...
ROW 5D : ... .. . ... ... : ... .. 6 ... ... : ... .. . ... : ... .. . ... : ... .. . Z00 ...
ROW 5E : ... .. . ... ... : ... .. 5 ... ... : ... .. . ... : ... .. . ... : ... .. . Z00 ...
ROW 5F : ... .. . ... ... : ... .. . ... ... : ... .. . ... : ... .. . ... : ... .. . Z00 ...
ROW 60 : ... .. . ... ... : D-3 00 0 P81 ... : D-3 00 . P81 : ... .. . ... : ... .. . Z00 ...
ROW 61 : ... .. . ... ... : ... .. 8 ... ... : ... .. . ... : ... .. . ... : ... .. . Z00 ...
ROW 62 : ... .. . ... ... : ... .. 7 ... ... : ... .. . ... : ... .. . ... : ... .. . Z00 ...
ROW 63 : ... .. . ... ... : ... .. 6 ... ... : ... .. . ... : ... .. . ... : ... .. . Z00 ...
ROW 64 : ... .. . ... ... : ... .. 5 ... ... : ... .. . ... : ... .. . ... : ... .. . Z00 ...
ROW 65 : ... .. . ... ... : ... .. . ... ... : ... .. . ... : ... .. . ... : ... .. . Z00 ...
ROW 66 : ... .. . ... ... : C#3 00 0 P83 ... : C#3 00 . P83 : ... .. . ... : ... .. . Z00 ...
ROW 67 : ... .. . ... ... : ... .. 8 ... ... : ... .. . ... : ... .. . ... : ... .. . Z00 ...
ROW 68 : ... .. . ... ... : ... .. 7 ... ... : ... .. . ... : ... .. . ... : ... .. . Z00 ...
ROW 69 : ... .. . ... ... : ... .. 6 ... ... : ... .. . ... : ... .. . ... : ... .. . Z00 ...
ROW 6A : ... .. . ... ... : ... .. 5 ... ... : ... .. . ... : ... .. . ... : ... .. . Z00 ...
ROW 6B : ... .. . ... ... : ... .. . ... ... : ... .. . ... : ... .. . ... : ... .. . Z00 ...

PATTERN 04
ROW 00 : ... .. . ... ... : C-3 00 0 P80 ... : C-3 00 . P80 : ... .. . ... : ... .. . Z00 ...
ROW 01 : ... .. . ... ... : ... .. 8 ... ... : ... .. . ... : ... .. . ... : ... .. . Z00 ...
ROW 02 : ... .. . ... ... : ... .. 7 ... ... : ... .. . ... : ... .. . ... : ... .. . Z00 ...
ROW 03 : ... .. . ... ... : ... .. 6 ... ... : ... .. . ... : ... .. . ... : ... .. . Z00 ...
ROW 04 : ... .. . ... ... : ... .. 5 ... ... : ... .. . ... : ... .. . ... : ... .. . Z00 ...
ROW 05 : ... .. . ... ... : ... .. . ... ... : ... .. . ... : ... .. . ... : ... .. . Z00 ...
ROW 06 : ... .. . ... ... : ... .. 4 ... ... : ... .. . ... : ... .. . ... : ... .. . Z00 ...
ROW 07 : ... .. . ... ... : ... .. . ... ... : ... .. . ... : ... .. . ... : ... .. . Z00 ...
ROW 08 : ... .. . ... ... : ... .. 0 ... ... : --- .. . ... : ... .. . ... : ... .. . Z00 ...
ROW 09 : ... .. . ... ... : ... .. . ... ... : ... .. . ... : ... .. . ... : ... .. . Z00 ...
ROW 0A : ... .. . ... ... : ... .. . ... ... : ... .. . ... : ... .. . ... : ... .. . Z00 ...
ROW 0B : ... .. . ... ... : ... .. . ... ... : ... .. . ... : ... .. . ... : ... .. . Z00 ...
ROW 0C : ... .. . ... ... : ... .. . ... ... : ... .. . ... : ... .. . ... : ... .. . Z00 ...
ROW 0D : ... .. . ... ... : ... .. . ... ... : ... .. . ... : ... .. . ... : ... .. . Z00 ...
ROW 0E : ... .. . ... ... : ... .. . ... ... : ... .. . ... : ... .. . ... : ... .. . Z00 ...
ROW 0F : ... .. . ... ... : ... .. . ... ... : ... .. . ... : ... .. . ... : ... .. . Z00 ...
ROW 10 : ... .. . ... ... : ... .. . ... ... : ... .. . ... : ... .. . ... : ... .. . Z00 ...
ROW 11 : ... .. . ... ... : ... .. . ... ... : ... .. . ... : ... .. . ... : ... .. . Z00 ...
ROW 12 : ... .. . ... ... : D#3 00 0 P83 ... : D#3 00 . P83 : ... .. . ... : ... .. . Z00 ...
ROW 13 : ... .. . ... ... : ... .. 8 ... ... : ... .. . ... : ... .. . ... : ... .. . Z00 ...
ROW 14 : ... .. . ... ... : ... .. 7 ... ... : ... .. . ... : ... .. . ... : ... .. . Z00 ...
ROW 15 : ... .. . ... ... : ... .. 6 ... ... : ... .. . ... : ... .. . ... : ... .. . Z00 ...
ROW 16 : ... .. . ... ... : ... .. 5 ... ... : ... .. . ... : ... .. . ... : ... .. . Z00 ...
ROW 17 : ... .. . ... ... : ... .. . ... ... : ... .. . ... : ... .. . ... : ... .. . Z00 ...
ROW 18 : ... .. . ... ... : ... .. 4 ... ... : ... .. . ... : ... .. . ... : ... .. . Z00 ...
ROW 19 : ... .. . ... ... : ... .. . ... ... : ... .. . ... : ... .. . ... : ... .. . Z00 ...
ROW 1A : ... .. . ... ... : ... .. 0 ... ... : --- .. . ... : ... .. . ... : ... .. . Z00 ...
ROW 1B : ... .. . ... ... : ... .. . ... ... : ... .. . ... : ... .. . ... : ... .. . Z00 ...
ROW 1C : ... .. . ... ... : ... .. . ... ... : ... .. . ... : ... .. . ... : ... .. . Z00 ...
ROW 1D : ... .. . ... ... : ... .. . ... ... : ... .. . ... : ... .. . ... : ... .. . Z00 ...
ROW 1E : ... .. . ... ... : ... .. . ... ... : ... .. . ... : ... .. . ... : ... .. . Z00 ...
ROW 1F : ... .. . ... ... : ... .. . ... ... : ... .. . ... : ... .. . ... : ... .. . Z00 ...
ROW 20 : ... .. . ... ... : ... .. . ... ... : ... .. . ... : ... .. . ... : ... .. . Z00 ...
ROW 21 : ... .. . ... ... : ... .. . ... ... : ... .. . ... : ... .. . ... : ... .. . Z00 ...
ROW 22 : ... .. . ... ... : ... .. . ... ... : ... .. . ... : ... .. . ... : ... .. . Z00 ...
ROW 23 : ... .. . ... ... : ... .. . ... ... : ... .. . ... : ... .. . ... : ... .. . Z00 ...
ROW 24 : ... .. . ... ... : D-3 00 0 P81 ... : D-3 00 . P81 : ... .. . ... : ... .. . Z00 ...
ROW 25 : ... .. . ... ... : ... .. 8 ... ... : ... .. . ... : ... .. . ... : ... .. . Z00 ...
ROW 26 : ... .. . ... ... : ... .. 7 ... ... : ... .. . ... : ... .. . ... : ... .. . Z00 ...
ROW 27 : ... .. . ... ... : ... .. 6 ... ... : ... .. . ... : ... .. . ... : ... .. . Z00 ...
ROW 28 : ... .. . ... ... : ... .. 5 ... ... : ... .. . ... : ... .. . ... : ... .. . Z00 ...
ROW 29 : ... .. . ... ... : ... .. . ... ... : ... .. . ... : ... .. . ... : ... .. . Z00 ...
ROW 2A : ... .. . ... ... : ... .. 4 ... ... : ... .. . ... : ... .. . ... : ... .. . Z00 ...
ROW 2B : ... .. . ... ... : ... .. . ... ... : ... .. . ... : ... .. . ... : ... .. . Z00 ...
ROW 2C : ... .. . ... ... : ... .. 0 ... ... : --- .. . ... : ... .. . ... : ... .. . Z00 ...
ROW 2D : ... .. . ... ... : ... .. . ... ... : ... .. . ... : ... .. . ... : ... .. . Z00 ...
ROW 2E : ... .. . ... ... : ... .. . ... ... : ... .. . ... : ... .. . ... : ... .. . Z00 ...
ROW 2F : ... .. . ... ... : ... .. . ... ... : ... .. . ... : ... .. . ... : ... .. . Z00 ...
ROW 30 : ... .. . ... ... : ... .. . ... ... : ... .. . ... : ... .. . ... : ... .. . Z00 ...
ROW 31 : ... .. . ... ... : ... .. . ... ... : ... .. . ... : ... .. . ... : ... .. . Z00 ...
ROW 32 : ... .. . ... ... : ... .. . ... ... : ... .. . ... : ... .. . ... : ... .. . Z00 ...
ROW 33 : ... .. . ... ... : ... .. . ... ... : ... .. . ... : ... .. . ... : ... .. . Z00 ...
ROW 34 : ... .. . ... ... : ... .. . ... ... : ... .. . ... : ... .. . ... : ... .. . Z00 ...
ROW 35 : ... .. . ... ... : ... .. . ... ... : ... .. . ... : ... .. . ... : ... .. . Z00 ...
ROW 36 : ... .. . ... ... : G#2 00 0 P84 ... : G#2 00 . P84 : ... .. . ... : ... .. . Z00 ...
ROW 37 : ... .. . ... ... : ... .. 8 ... ... : ... .. . ... : ... .. . ... : ... .. . Z00 ...
ROW 38 : ... .. . ... ... : ... .. 7 ... ... : ... .. . ... : ... .. . ... : ... .. . Z00 ...
ROW 39 : ... .. . ... ... : ... .. 6 ... ... : ... .. . ... : ... .. . ... : ... .. . Z00 ...
ROW 3A : ... .. . ... ... : ... .. 5 ... ... : ... .. . ... : ... .. . ... : ... .. . Z00 ...
ROW 3B : ... .. . ... ... : ... .. . ... ... : ... .. . ... : ... .. . ... : ... .. . Z00 ...
ROW 3C : ... .. . ... ... : ... .. 4 ... ... : ... .. . ... : ... .. . ... : ... .. . Z00 ...
ROW 3D : ... .. . ... ... : ... .. . ... ... : ... .. . ... : ... .. . ... : ... .. . Z00 ...
ROW 3E : ... .. . ... ... : ... .. 0 ... ... : --- .. . ... : ... .. . ... : ... .. . Z00 ...
ROW 3F : ... .. . ... ... : ... .. . ... ... : ... .. . ... : ... .. . ... : ... .. . Z00 ...
ROW 40 : ... .. . ... ... : ... .. . ... ... : ... .. . ... : ... .. . ... : ... .. . Z00 ...
ROW 41 : ... .. . ... ... : ... .. . ... ... : ... .. . ... : ... .. . ... : ... .. . Z00 ...
ROW 42 : ... .. . ... ... : ... .. . ... ... : ... .. . ... : ... .. . ... : ... .. . Z00 ...
ROW 43 : ... .. . ... ... : ... .. . ... ... : ... .. . ... : ... .. . ... : ... .. . Z00 ...
ROW 44 : ... .. . ... ... : ... .. . ... ... : ... .. . ... : ... .. . ... : ... .. . Z00 ...
ROW 45 : ... .. . ... ... : ... .. . ... ... : ... .. . ... : ... .. . ... : ... .. . Z00 ...
ROW 46 : ... .. . ... ... : ... .. . ... ... : ... .. . ... : ... .. . ... : ... .. . Z00 ...
ROW 47 : ... .. . ... ... : ... .. . ... ... : ... .. . ... : ... .. . ... : ... .. . Z00 ...
ROW 48 : ... .. . ... ... : G-2 00 0 P81 ... : G-2 00 . P81 : ... .. . ... : ... .. . Z00 ...
ROW 49 : ... .. . ... ... : ... .. 8 ... ... : ... .. . ... : ... .. . ... : ... .. . Z00 ...
ROW 4A : ... .. . ... ... : ... .. 7 ... ... : ... .. . ... : ... .. . ... : ... .. . Z00 ...
ROW 4B : ... .. . ... ... : ... .. 6 ... ... : ... .. . ... : ... .. . ... : ... .. . Z00 ...
ROW 4C : ... .. . ... ... : ... .. 5 ... ... : ... .. . ... : ... .. . ... : ... .. . Z00 ...
ROW 4D : ... .. . ... ... : ... .. . ... ... : ... .. . ... : ... .. . ... : ... .. . Z00 ...
ROW 4E : ... .. . ... ... : ... .. 4 ... ... : ... .. . ... : ... .. . ... : ... .. . Z00 ...
ROW 4F : ... .. . ... ... : ... .. . ... ... : ... .. . ... : ... .. . ... : ... .. . Z00 ...
ROW 50 : ... .. . ... ... : ... .. 0 ... ... : --- .. . ... : ... .. . ... : ... .. . Z00 ...
ROW 51 : ... .. . ... ... : ... .. . ... ... : ... .. . ... : ... .. . ... : ... .. . Z00 ...
ROW 52 : ... .. . ... ... : ... .. . ... ... : ... .. . ... : ... .. . ... : ... .. . Z00 ...
ROW 53 : ... .. . ... ... : ... .. . ... ... : ... .. . ... : ... .. . ... : ... .. . Z00 ...
ROW 54 : ... .. . ... ... : ... .. . ... ... : ... .. . ... : ... .. . ... : ... .. . Z00 ...
ROW 55 : ... .. . ... ... : ... .. . ... ... : ... .. . ... : ... .. . ... : ... .. . Z00 ...
ROW 56 : ... .. . ... ... : ... .. . ... ... : ... .. . ... : ... .. . ... : ... .. . Z00 ...
ROW 57 : ... .. . ... ... : ... .. . ... ... : ... .. . ... : ... .. . ... : ... .. . Z00 ...
ROW 58 : ... .. . ... ... : ... .. . ... ... : ... .. . ... : ... .. . ... : ... .. . Z00 ...
ROW 59 : ... .. . ... ... : ... .. . ... ... : ... .. . ... : ... .. . ... : ... .. . Z00 ...
ROW 5A : ... .. . ... ... : C#3 00 0 P83 ... : C#3 00 . P83 : ... .. . ... : ... .. . Z00 ...
ROW 5B : ... .. . ... ... : ... .. 8 ... ... : ... .. . ... : ... .. . ... : ... .. . Z00 ...
ROW 5C : ... .. . ... ... : ... .. 7 ... ... : ... .. . ... : ... .. . ... : ... .. . Z00 ...
ROW 5D : ... .. . ... ... : ... .. 6 ... ... : ... .. . ... : ... .. . ... : ... .. . Z00 ...
ROW 5E : ... .. . ... ... : ... .. 5 ... ... : ... .. . ... : ... .. . ... : ... .. . Z00 ...
ROW 5F : ... .. . ... ... : ... .. . ... ... : ... .. . ... : ... .. . ... : ... .. . Z00 ...
ROW 60 : ... .. . ... ... : ... .. 4 ... ... : ... .. . ... : ... .. . ... : ... .. . Z00 ...
ROW 61 : ... .. . ... ... : ... .. . ... ... : ... .. . ... : ... .. . ... : ... .. . Z00 ...
ROW 62 : ... .. . ... ... : ... .. 0 ... ... : --- .. . ... : ... .. . ... : ... .. . Z00 ...
ROW 63 : ... .. . ... ... : ... .. . ... ... : ... .. . ... : ... .. . ... : ... .. . Z00 ...
ROW 64 : ... .. . ... ... : ... .. . ... ... : ... .. . ... : ... .. . ... : ... .. . Z00 ...
ROW 65 : ... .. . ... ... : ... .. . ... ... : ... .. . ... : ... .. . ... : ... .. . Z00 ...
ROW 66 : ... .. . ... ... : ... .. . ... ... : ... .. . ... : ... .. . ... : ... .. . Z00 ...
ROW 67 : ... .. . ... ... : ... .. . ... ... : ... .. . ... : ... .. . ... : ... .. . Z00 ...
ROW 68 : ... .. . ... ... : ... .. . ... ... : ... .. . ... : ... .. . ... : ... .. . Z00 ...
ROW 69 : ... .. . ... ... : ... .. . ... ... : ... .. . ... : ... .. . ... : ... .. . Z00 ...
ROW 6A : ... .. . ... ... : ... .. . ... ... : ... .. . ... : ... .. . ... : ... .. . Z00 ...
ROW 6B : ... .. . ... ... : ... .. . ... ... : ... .. . ... : ... .. . ... : ... .. . Z00 ...

PATTERN 05
ROW 00 : ... .. . ... ... : C-3 00 0 P80 ... : C-3 00 . P80 : ... .. . ... : ... .. . Z00 ...
ROW 01 : ... .. . ... ... : ... .. 8 ... ... : ... .. . ... : ... .. . ... : ... .. . Z00 ...
ROW 02 : ... .. . ... ... : ... .. 7 ... ... : ... .. . ... : ... .. . ... : ... .. . Z00 ...
ROW 03 : ... .. . ... ... : ... .. 6 ... ... : ... .. . ... : ... .. . ... : ... .. . Z00 ...
ROW 04 : ... .. . ... ... : ... .. 5 ... ... : ... .. . ... : ... .. . ... : ... .. . Z00 ...
ROW 05 : ... .. . ... ... : ... .. . ... ... : ... .. . ... : ... .. . ... : ... .. . Z00 ...
ROW 06 : ... .. . ... ... : F#3 00 0 P7D ... : F#3 00 . P7D : ... .. . ... : ... .. . Z00 ...
ROW 07 : ... .. . ... ... : ... .. 8 ... ... : ... .. . ... : ... .. . ... : ... .. . Z00 ...
ROW 08 : ... .. . ... ... : ... .. 7 ... ... : ... .. . ... : ... .. . ... : ... .. . Z00 ...
ROW 09 : ... .. . ... ... : ... .. 6 ... ... : ... .. . ... : ... .. . ... : ... .. . Z00 ...
ROW 0A : ... .. . ... ... : ... .. 5 ... ... : ... .. . ... : ... .. . ... : ... .. . Z00 ...
ROW 0B : ... .. . ... ... : ... .. . ... ... : ... .. . ... : ... .. . ... : ... .. . Z00 ...
ROW 0C : ... .. . ... ... : F-3 00 0 P80 ... : F-3 00 . P80 : ... .. . ... : ... .. . Z00 ...
ROW 0D : ... .. . ... ... : ... .. 8 ... ... : ... .. . ... : ... .. . ... : ... .. . Z00 ...
ROW 0E : ... .. . ... ... : ... .. 7 ... ... : ... .. . ... : ... .. . ... : ... .. . Z00 ...
ROW 0F : ... .. . ... ... : ... .. 6 ... ... : ... .. . ... : ... .. . ... : ... .. . Z00 ...
ROW 10 : ... .. . ... ... : ... .. 5 ... ... : ... .. . ... : ... .. . ... : ... .. . Z00 ...
ROW 11 : ... .. . ... ... : ... .. . ... ... : ... .. . ... : ... .. . ... : ... .. . Z00 ...
ROW 12 : ... .. . ... ... : E-3 00 0 P7D ... : E-3 00 . P7D : ... .. . ... : ... .. . Z00 ...
ROW 13 : ... .. . ... ... : ... .. 8 ... ... : ... .. . ... : ... .. . ... : ... .. . Z00 ...
ROW 14 : ... .. . ... ... : ... .. 7 ... ... : ... .. . ... : ... .. . ... : ... .. . Z00 ...
ROW 15 : ... .. . ... ... : ... .. 6 ... ... : ... .. . ... : ... .. . ... : ... .. . Z00 ...
ROW 16 : ... .. . ... ... : ... .. 5 ... ... : ... .. . ... : ... .. . ... : ... .. . Z00 ...
ROW 17 : ... .. . ... ... : ... .. . ... ... : ... .. . ... : ... .. . ... : ... .. . Z00 ...
ROW 18 : ... .. . ... ... : A#3 00 0 P7C ... : A#3 00 . P7C : ... .. . ... : ... .. . Z00 ...
ROW 19 : ... .. . ... ... : ... .. 8 ... ... : ... .. . ... : ... .. . ... : ... .. . Z00 ...
ROW 1A : ... .. . ... ... : ... .. 7 ... ... : ... .. . ... : ... .. . ... : ... .. . Z00 ...
ROW 1B : ... .. . ... ... : ... .. 6 ... ... : ... .. . ... : ... .. . ... : ... .. . Z00 ...
ROW 1C : ... .. . ... ... : ... .. 5 ... ... : ... .. . ... : ... .. . ... : ... .. . Z00 ...
ROW 1D : ... .. . ... ... : ... .. . ... ... : ... .. . ... : ... .. . ... : ... .. . Z00 ...
ROW 1E : ... .. . ... ... : A-3 00 0 P7E ... : A-3 00 . P7E : ... .. . ... : ... .. . Z00 ...
ROW 1F : ... .. . ... ... : ... .. 8 ... ... : ... .. . ... : ... .. . ... : ... .. . Z00 ...
ROW 20 : ... .. . ... ... : ... .. 7 ... ... : ... .. . ... : ... .. . ... : ... .. . Z00 ...
ROW 21 : ... .. . ... ... : ... .. 6 ... ... : ... .. . ... : ... .. . ... : ... .. . Z00 ...
ROW 22 : ... .. . ... ... : ... .. 5 ... ... : ... .. . ... : ... .. . ... : ... .. . Z00 ...
ROW 23 : ... .. . ... ... : ... .. . ... ... : ... .. . ... : ... .. . ... : ... .. . Z00 ...
ROW 24 : ... .. . ... ... : G#3 00 0 P82 ... : G#3 00 . P82 : ... .. . ... : ... .. . Z00 ...
ROW 25 : ... .. . ... ... : ... .. 8 ... ... : ... .. . ... : ... .. . ... : ... .. . Z00 ...
ROW 26 : ... .. . ... ... : ... .. 7 ... ... : ... .. . ... : ... .. . ... : ... .. . Z00 ...
ROW 27 : ... .. . ... ... : ... .. 6 ... ... : ... .. . ... : ... .. . ... : ... .. . Z00 ...
ROW 28 : ... .. . ... ... : ... .. 5 ... ... : ... .. . ... : ... .. . ... : ... .. . Z00 ...
ROW 29 : ... .. . ... ... : ... .. . ... ... : ... .. . ... : ... .. . ... : ... .. . Z00 ...
ROW 2A : ... .. . ... ... : ... .. 4 ... ... : ... .. . ... : ... .. . ... : ... .. . Z00 ...
ROW 2B : ... .. . ... ... : ... .. . ... ... : ... .. . ... : ... .. . ... : ... .. . Z00 ...
ROW 2C : ... .. . ... ... : ... .. 0 ... ... : --- .. . ... : ... .. . ... : ... .. . Z00 ...
ROW 2D : ... .. . ... ... : ... .. . ... ... : ... .. . ... : ... .. . ... : ... .. . Z00 ...
ROW 2E : ... .. . ... ... : ... .. . ... ... : ... .. . ... : ... .. . ... : ... .. . Z00 ...
ROW 2F : ... .. . ... ... : ... .. . ... ... : ... .. . ... : ... .. . ... : ... .. . Z00 ...
ROW 30 : ... .. . ... ... : D#3 00 0 P83 ... : D#3 00 . P83 : ... .. . ... : ... .. . Z00 ...
ROW 31 : ... .. . ... ... : ... .. 8 ... ... : ... .. . ... : ... .. . ... : ... .. . Z00 ...
ROW 32 : ... .. . ... ... : ... .. 7 ... ... : ... .. . ... : ... .. . ... : ... .. . Z00 ...
ROW 33 : ... .. . ... ... : ... .. 6 ... ... : ... .. . ... : ... .. . ... : ... .. . Z00 ...
ROW 34 : ... .. . ... ... : ... .. 5 ... ... : ... .. . ... : ... .. . ... : ... .. . Z00 ...
ROW 35 : ... .. . ... ... : ... .. . ... ... : ... .. . ... : ... .. . ... : ... .. . Z00 ...
ROW 36 : ... .. . ... ... : ... .. 4 ... ... : ... .. . ... : ... .. . ... : ... .. . Z00 ...
ROW 37 : ... .. . ... ... : ... .. . ... ... : ... .. . ... : ... .. . ... : ... .. . Z00 ...
ROW 38 : ... .. . ... ... : ... .. 0 ... ... : --- .. . ... : ... .. . ... : ... .. . Z00 ...
ROW 39 : ... .. . ... ... : ... .. . ... ... : ... .. . ... : ... .. . ... : ... .. . Z00 ...
ROW 3A : ... .. . ... ... : ... .. . ... ... : ... .. . ... : ... .. . ... : ... .. . Z00 ...
ROW 3B : ... .. . ... ... : ... .. . ... ... : ... .. . ... : ... .. . ... : ... .. . Z00 ...
ROW 3C : ... .. . ... ... : B-2 00 0 P7D ... : B-2 00 . P7D : ... .. . ... : ... .. . Z00 ...
ROW 3D : ... .. . ... ... : ... .. 8 ... ... : ... .. . ... : ... .. . ... : ... .. . Z00 ...
ROW 3E : ... .. . ... ... : ... .. 7 ... ... : ... .. . ... : ... .. . ... : ... .. . Z00 ...
ROW 3F : ... .. . ... ... : ... .. 6 ... ... : ... .. . ... : ... .. . ... : ... .. . Z00 ...
ROW 40 : ... .. . ... ... : ... .. 5 ... ... : ... .. . ... : ... .. . ... : ... .. . Z00 ...
ROW 41 : ... .. . ... ... : ... .. . ... ... : ... .. . ... : ... .. . ... : ... .. . Z00 ...
ROW 42 : ... .. . ... ... : ... .. 4 ... ... : ... .. . ... : ... .. . ... : ... .. . Z00 ...
ROW 43 : ... .. . ... ... : ... .. . ... ... : ... .. . ... : ... .. . ... : ... .. . Z00 ...
ROW 44 : ... .. . ... ... : ... .. 0 ... ... : --- .. . ... : ... .. . ... : ... .. . Z00 ...
ROW 45 : ... .. . ... ... : ... .. . ... ... : ... .. . ... : ... .. . ... : ... .. . Z00 ...
ROW 46 : ... .. . ... ... : ... .. . ... ... : ... .. . ... : ... .. . ... : ... .. . Z00 ...
ROW 47 : ... .. . ... ... : ... .. . ... ... : ... .. . ... : ... .. . ... : ... .. . Z00 ...
ROW 48 : ... .. . ... ... : A#2 00 0 P77 ... : A#2 00 . P77 : ... .. . ... : ... .. . Z00 ...
ROW 49 : ... .. . ... ... : ... .. 8 ... ... : ... .. . ... : ... .. . ... : ... .. . Z00 ...
ROW 4A : ... .. . ... ... : ... .. 7 ... ... : ... .. . ... : ... .. . ... : ... .. . Z00 ...
ROW 4B : ... .. . ... ... : ... .. 6 ... ... : ... .. . ... : ... .. . ... : ... .. . Z00 ...
ROW 4C : ... .. . ... ... : ... .. 5 ... ... : ... .. . ... : ... .. . ... : ... .. . Z00 ...
ROW 4D : ... .. . ... ... : ... .. . ... ... : ... .. . ... : ... .. . ... : ... .. . Z00 ...
ROW 4E : ... .. . ... ... : ... .. 4 ... ... : ... .. . ... : ... .. . ... : ... .. . Z00 ...
ROW 4F : ... .. . ... ... : ... .. . ... ... : ... .. . ... : ... .. . ... : ... .. . Z00 ...
ROW 50 : ... .. . ... ... : ... .. 0 ... ... : --- .. . ... : ... .. . ... : ... .. . Z00 ...
ROW 51 : ... .. . ... ... : ... .. . ... ... : ... .. . ... : ... .. . ... : ... .. . Z00 ...
ROW 52 : ... .. . ... ... : ... .. . ... ... : ... .. . ... : ... .. . ... : ... .. . Z00 ...
ROW 53 : ... .. . ... ... : ... .. . ... ... : ... .. . ... : ... .. . ... : ... .. . Z00 ...
ROW 54 : ... .. . ... ... : A-2 00 0 P7B ... : A-2 00 . P7B : ... .. . ... : ... .. . Z00 ...
ROW 55 : ... .. . ... ... : ... .. 8 ... ... : ... .. . ... : ... .. . ... : ... .. . Z00 ...
ROW 56 : ... .. . ... ... : ... .. 7 ... ... : ... .. . ... : ... .. . ... : ... .. . Z00 ...
ROW 57 : ... .. . ... ... : ... .. 6 ... ... : ... .. . ... : ... .. . ... : ... .. . Z00 ...
ROW 58 : ... .. . ... ... : ... .. 5 ... ... : ... .. . ... : ... .. . ... : ... .. . Z00 ...
ROW 59 : ... .. . ... ... : ... .. . ... ... : ... .. . ... : ... .. . ... : ... .. . Z00 ...
ROW 5A : ... .. . ... ... : ... .. 4 ... ... : ... .. . ... : ... .. . ... : ... .. . Z00 ...
ROW 5B : ... .. . ... ... : ... .. . ... ... : ... .. . ... : ... .. . ... : ... .. . Z00 ...
ROW 5C : ... .. . ... ... : ... .. 0 ... ... : --- .. . ... : ... .. . ... : ... .. . Z00 ...
ROW 5D : ... .. . ... ... : ... .. . ... ... : ... .. . ... : ... .. . ... : ... .. . Z00 ...
ROW 5E : ... .. . ... ... : ... .. . ... ... : ... .. . ... : ... .. . ... : ... .. . Z00 ...
ROW 5F : ... .. . ... ... : ... .. . ... ... : ... .. . ... : ... .. . ... : ... .. . Z00 ...
ROW 60 : ... .. . ... ... : G#2 00 0 P84 ... : G#2 00 . P84 : ... .. . ... : ... .. . Z00 ...
ROW 61 : ... .. . ... ... : ... .. 8 ... ... : ... .. . ... : ... .. . ... : ... .. . Z00 ...
ROW 62 : ... .. . ... ... : ... .. 7 ... ... : ... .. . ... : ... .. . ... : ... .. . Z00 ...
ROW 63 : ... .. . ... ... : ... .. 6 ... ... : ... .. . ... : ... .. . ... : ... .. . Z00 ...
ROW 64 : ... .. . ... ... : ... .. 5 ... ... : ... .. . ... : ... .. . ... : ... .. . Z00 ...
ROW 65 : ... .. . ... ... : ... .. . ... ... : ... .. . ... : ... .. . ... : ... .. . Z00 ...
ROW 66 : ... .. . ... ... : ... .. 4 ... ... : ... .. . ... : ... .. . ... : ... .. . Z00 ...
ROW 67 : ... .. . ... ... : ... .. . ... ... : ... .. . ... : ... .. . ... : ... .. . Z00 ...
ROW 68 : ... .. . ... ... : ... .. 0 ... ... : --- .. . ... : ... .. . ... : ... .. . Z00 ...
ROW 69 : ... .. . ... ... : ... .. . ... ... : ... .. . ... : ... .. . ... : ... .. . Z00 ...
ROW 6A : ... .. . ... ... : ... .. . ... ... : ... .. . ... : ... .. . ... : ... .. . Z00 ...
ROW 6B : ... .. . ... ... : ... .. . ... ... : ... .. . ... : ... .. . ... : ... .. . Z00 ...

PATTERN 06
ROW 00 : ... .. . ... ... : ... .. . ... ... : ... .. . ... : ... .. . ... : ... .. . Z00 ...
ROW 01 : ... .. . ... ... : ... .. . ... ... : ... .. . ... : ... .. . ... : ... .. . Z00 ...
ROW 02 : ... .. . ... ... : ... .. . ... ... : ... .. . ... : ... .. . ... : ... .. . Z00 ...
ROW 03 : ... .. . ... ... : ... .. . ... ... : ... .. . ... : ... .. . ... : ... .. . Z00 ...
ROW 04 : ... .. . ... ... : ... .. . ... ... : ... .. . ... : ... .. . ... : ... .. . Z00 ...
ROW 05 : ... .. . ... ... : ... .. . ... ... : ... .. . ... : ... .. . ... : ... .. . Z00 ...
ROW 06 : ... .. . ... ... : ... .. . ... ... : ... .. . ... : ... .. . ... : ... .. . Z00 ...
ROW 07 : ... .. . ... ... : ... .. . ... ... : ... .. . ... : ... .. . ... : ... .. . Z00 ...
ROW 08 : ... .. . ... ... : ... .. . ... ... : ... .. . ... : ... .. . ... : ... .. . Z00 ...
ROW 09 : ... .. . ... ... : ... .. . ... ... : ... .. . ... : ... .. . ... : ... .. . Z00 ...
ROW 0A : ... .. . ... ... : ... .. . ... ... : ... .. . ... : ... .. . ... : ... .. . Z00 ...
ROW 0B : ... .. . ... ... : ... .. . ... ... : ... .. . ... : ... .. . ... : ... .. . Z00 ...
ROW 0C : ... .. . ... ... : ... .. . ... ... : ... .. . ... : ... .. . ... : ... .. . Z00 ...
ROW 0D : ... .. . ... ... : ... .. . ... ... : ... .. . ... : ... .. . ... : ... .. . Z00 ...
ROW 0E : ... .. . ... ... : ... .. . ... ... : ... .. . ... : ... .. . ... : ... .. . Z00 ...
ROW 0F : ... .. . ... ... : ... .. . ... ... : ... .. . ... : ... .. . ... : ... .. . Z00 ...
ROW 10 : ... .. . ... ... : ... .. . ... ... : ... .. . ... : ... .. . ... : ... .. . Z00 ...
ROW 11 : ... .. . ... ... : ... .. . ... ... : ... .. . ... : ... .. . ... : ... .. . Z00 ...
ROW 12 : ... .. . ... ... : ... .. . ... ... : ... .. . ... : ... .. . ... : ... .. . Z00 ...
ROW 13 : ... .. . ... ... : ... .. . ... ... : ... .. . ... : ... .. . ... : ... .. . Z00 ...
ROW 14 : ... .. . ... ... : ... .. . ... ... : ... .. . ... : ... .. . ... : ... .. . Z00 ...
ROW 15 : ... .. . ... ... : ... .. . ... ... : ... .. . ... : ... .. . ... : ... .. . Z00 ...
ROW 16 : ... .. . ... ... : ... .. . ... ... : ... .. . ... : ... .. . ... : ... .. . Z00 ...
ROW 17 : ... .. . ... ... : ... .. . ... ... : ... .. . ... : ... .. . ... : ... .. . Z00 ...
ROW 18 : ... .. . ... ... : ... .. . ... ... : ... .. . ... : ... .. . ... : ... .. . Z00 ...
ROW 19 : ... .. . ... ... : ... .. . ... ... : ... .. . ... : ... .. . ... : ... .. . Z00 ...
ROW 1A : ... .. . ... ... : ... .. . ... ... : ... .. . ... : ... .. . ... : ... .. . Z00 ...
ROW 1B : ... .. . ... ... : ... .. . ... ... : ... .. . ... : ... .. . ... : ... .. . Z00 ...
ROW 1C : ... .. . ... ... : ... .. . ... ... : ... .. . ... : ... .. . ... : ... .. . Z00 ...
ROW 1D : ... .. . ... ... : ... .. . ... ... : ... .. . ... : ... .. . ... : ... .. . Z00 ...
ROW 1E : ... .. . ... ... : ... .. . ... ... : ... .. . ... : ... .. . ... : ... .. . Z00 ...
ROW 1F : ... .. . ... ... : ... .. . ... ... : ... .. . ... : ... .. . ... : ... .. . Z00 ...
ROW 20 : ... .. . ... ... : ... .. . ... ... : ... .. . ... : ... .. . ... : ... .. . Z00 ...
ROW 21 : ... .. . ... ... : ... .. . ... ... : ... .. . ... : ... .. . ... : ... .. . Z00 ...
ROW 22 : ... .. . ... ... : ... .. . ... ... : ... .. . ... : ... .. . ... : ... .. . Z00 ...
ROW 23 : ... .. . ... ... : ... .. . ... ... : ... .. . ... : ... .. . ... : ... .. . Z00 ...
ROW 24 : ... .. . ... ... : ... .. . ... ... : ... .. . ... : ... .. . ... : ... .. . Z00 ...
ROW 25 : ... .. . ... ... : ... .. . ... ... : ... .. . ... : ... .. . ... : ... .. . Z00 ...
ROW 26 : ... .. . ... ... : ... .. . ... ... : ... .. . ... : ... .. . ... : ... .. . Z00 ...
ROW 27 : ... .. . ... ... : ... .. . ... ... : ... .. . ... : ... .. . ... : ... .. . Z00 ...
ROW 28 : ... .. . ... ... : ... .. . ... ... : ... .. . ... : ... .. . ... : ... .. . Z00 ...
ROW 29 : ... .. . ... ... : ... .. . ... ... : ... .. . ... : ... .. . ... : ... .. . Z00 ...
ROW 2A : ... .. . ... ... : ... .. . ... ... : ... .. . ... : ... .. . ... : ... .. . Z00 ...
ROW 2B : ... .. . ... ... : ... .. . ... ... : ... .. . ... : ... .. . ... : ... .. . Z00 ...
ROW 2C : ... .. . ... ... : ... .. . ... ... : ... .. . ... : ... .. . ... : ... .. . Z00 ...
ROW 2D : ... .. . ... ... : ... .. . ... ... : ... .. . ... : ... .. . ... : ... .. . Z00 ...
ROW 2E : ... .. . ... ... : ... .. . ... ... : ... .. . ... : ... .. . ... : ... .. . Z00 ...
ROW 2F : ... .. . ... ... : ... .. . ... ... : ... .. . ... : ... .. . ... : ... .. . Z00 ...
ROW 30 : ... .. . ... ... : ... .. . ... ... : ... .. . ... : ... .. . ... : ... .. . Z00 ...
ROW 31 : ... .. . ... ... : ... .. . ... ... : ... .. . ... : ... .. . ... : ... .. . Z00 ...
ROW 32 : ... .. . ... ... : ... .. . ... ... : ... .. . ... : ... .. . ... : ... .. . Z00 ...
ROW 33 : ... .. . ... ... : ... .. . ... ... : ... .. . ... : ... .. . ... : ... .. . Z00 ...
ROW 34 : ... .. . ... ... : ... .. . ... ... : ... .. . ... : ... .. . ... : ... .. . Z00 ...
ROW 35 : ... .. . ... ... : ... .. . ... ... : ... .. . ... : ... .. . ... : ... .. . Z00 ...
ROW 36 : ... .. . ... ... : ... .. . ... ... : ... .. . ... : ... .. . ... : ... .. . Z00 ...
ROW 37 : ... .. . ... ... : ... .. . ... ... : ... .. . ... : ... .. . ... : ... .. . Z00 ...
ROW 38 : ... .. . ... ... : ... .. . ... ... : ... .. . ... : ... .. . ... : ... .. . Z00 ...
ROW 39 : ... .. . ... ... : ... .. . ... ... : ... .. . ... : ... .. . ... : ... .. . Z00 ...
ROW 3A : ... .. . ... ... : ... .. . ... ... : ... .. . ... : ... .. . ... : ... .. . Z00 ...
ROW 3B : ... .. . ... ... : ... .. . ... ... : ... .. . ... : ... .. . ... : ... .. . Z00 ...
ROW 3C : ... .. . ... ... : ... .. . ... ... : ... .. . ... : ... .. . ... : ... .. . Z00 ...
ROW 3D : ... .. . ... ... : ... .. . ... ... : ... .. . ... : ... .. . ... : ... .. . Z00 ...
ROW 3E : ... .. . ... ... : ... .. . ... ... : ... .. . ... : ... .. . ... : ... .. . Z00 ...
ROW 3F : ... .. . ... ... : ... .. . ... ... : ... .. . ... : ... .. . ... : ... .. . Z00 ...
ROW 40 : ... .. . ... ... : ... .. . ... ... : ... .. . ... : ... .. . ... : ... .. . Z00 ...
ROW 41 : ... .. . ... ... : ... .. . ... ... : ... .. . ... : ... .. . ... : ... .. . Z00 ...
ROW 42 : ... .. . ... ... : ... .. . ... ... : ... .. . ... : ... .. . ... : ... .. . Z00 ...
ROW 43 : ... .. . ... ... : ... .. . ... ... : ... .. . ... : ... .. . ... : ... .. . Z00 ...
ROW 44 : ... .. . ... ... : ... .. . ... ... : ... .. . ... : ... .. . ... : ... .. . Z00 ...
ROW 45 : ... .. . ... ... : ... .. . ... ... : ... .. . ... : ... .. . ... : ... .. . Z00 ...
ROW 46 : ... .. . ... ... : ... .. . ... ... : ... .. . ... : ... .. . ... : ... .. . Z00 ...
ROW 47 : ... .. . ... ... : ... .. . ... ... : ... .. . ... : ... .. . ... : ... .. . Z00 ...
ROW 48 : ... .. . ... ... : ... .. . ... ... : ... .. . ... : ... .. . ... : ... .. . Z00 ...
ROW 49 : ... .. . ... ... : ... .. . ... ... : ... .. . ... : ... .. . ... : ... .. . Z00 ...
ROW 4A : ... .. . ... ... : ... .. . ... ... : ... .. . ... : ... .. . ... : ... .. . Z00 ...
ROW 4B : ... .. . ... ... : ... .. . ... ... : ... .. . ... : ... .. . ... : ... .. . Z00 ...
ROW 4C : ... .. . ... ... : ... .. . ... ... : ... .. . ... : ... .. . ... : ... .. . Z00 ...
ROW 4D : ... .. . ... ... : ... .. . ... ... : ... .. . ... : ... .. . ... : ... .. . Z00 ...
ROW 4E : ... .. . ... ... : ... .. . ... ... : ... .. . ... : ... .. . ... : ... .. . Z00 ...
ROW 4F : ... .. . ... ... : ... .. . ... ... : ... .. . ... : ... .. . ... : ... .. . Z00 ...
ROW 50 : ... .. . ... ... : ... .. . ... ... : ... .. . ... : ... .. . ... : ... .. . Z00 ...
ROW 51 : ... .. . ... ... : ... .. . ... ... : ... .. . ... : ... .. . ... : ... .. . Z00 ...
ROW 52 : ... .. . ... ... : ... .. . ... ... : ... .. . ... : ... .. . ... : ... .. . Z00 ...
ROW 53 : ... .. . ... ... : ... .. . ... ... : ... .. . ... : ... .. . ... : ... .. . Z00 ...
ROW 54 : ... .. . ... ... : ... .. . ... ... : ... .. . ... : ... .. . ... : ... .. . Z00 ...
ROW 55 : ... .. . ... ... : ... .. . ... ... : ... .. . ... : ... .. . ... : ... .. . Z00 ...
ROW 56 : ... .. . ... ... : ... .. . ... ... : ... .. . ... : ... .. . ... : ... .. . Z00 ...
ROW 57 : ... .. . ... ... : ... .. . ... ... : ... .. . ... : ... .. . ... : ... .. . Z00 ...
ROW 58 : ... .. . ... ... : ... .. . ... ... : ... .. . ... : ... .. . ... : ... .. . Z00 ...
ROW 59 : ... .. . ... ... : ... .. . ... ... : ... .. . ... : ... .. . ... : ... .. . Z00 ...
ROW 5A : ... .. . ... ... : ... .. . ... ... : ... .. . ... : ... .. . ... : ... .. . Z00 ...
ROW 5B : ... .. . ... ... : ... .. . ... ... : ... .. . ... : ... .. . ... : ... .. . Z00 ...
ROW 5C : ... .. . ... ... : ... .. . ... ... : ... .. . ... : ... .. . ... : ... .. . Z00 ...
ROW 5D : ... .. . ... ... : ... .. . ... ... : ... .. . ... : ... .. . ... : ... .. . Z00 ...
ROW 5E : ... .. . ... ... : ... .. . ... ... : ... .. . ... : ... .. . ... : ... .. . Z00 ...
ROW 5F : ... .. . ... ... : ... .. . ... ... : ... .. . ... : ... .. . ... : ... .. . Z00 ...
ROW 60 : ... .. . ... ... : ... .. . ... ... : ... .. . ... : ... .. . ... : ... .. . Z00 ...
ROW 61 : ... .. . ... ... : ... .. . ... ... : ... .. . ... : ... .. . ... : ... .. . Z00 ...
ROW 62 : ... .. . ... ... : ... .. . ... ... : ... .. . ... : ... .. . ... : ... .. . Z00 ...
ROW 63 : ... .. . ... ... : ... .. . ... ... : ... .. . ... : ... .. . ... : ... .. . Z00 ...
ROW 64 : ... .. . ... ... : ... .. . ... ... : ... .. . ... : ... .. . ... : ... .. . Z00 ...
ROW 65 : ... .. . ... ... : ... .. . ... ... : ... .. . ... : ... .. . ... : ... .. . Z00 ...
ROW 66 : ... .. . ... ... : ... .. . ... ... : ... .. . ... : ... .. . ... : ... .. . Z00 ...
ROW 67 : ... .. . ... ... : ... .. . ... ... : ... .. . ... : ... .. . ... : ... .. . Z00 ...
ROW 68 : ... .. . ... ... : ... .. . ... ... : ... .. . ... : ... .. . ... : ... .. . Z00 ...
ROW 69 : ... .. . ... ... : ... .. . ... ... : ... .. . ... : ... .. . ... : ... .. . Z00 ...
ROW 6A : ... .. . ... ... : ... .. . ... ... : ... .. . ... : ... .. . ... : ... .. . Z00 ...
ROW 6B : ... .. . ... ... : ... .. . ... ... : ... .. . ... : ... .. . ... : ... .. . Z00 ...

PATTERN 08
ROW 00 : ... .. . ... ... : C-3 00 0 P80 V02 : C-3 00 . P80 : F-# 00 0 V00 : ... .. . Z00 ...
ROW 01 : ... .. . ... ... : ... .. 8 ... ... : ... .. . ... : ... .. . ... : ... .. . Z00 ...
ROW 02 : ... .. . ... ... : ... .. 7 ... ... : ... .. . ... : ... .. . ... : ... .. . Z00 ...
ROW 03 : ... .. . ... ... : ... .. 6 ... ... : ... .. . ... : ... .. . ... : ... .. . Z00 ...
ROW 04 : ... .. . ... ... : ... .. 5 ... ... : ... .. . ... : ... .. . ... : ... .. . Z00 ...
ROW 05 : ... .. . ... ... : ... .. . ... ... : ... .. . ... : ... .. . ... : ... .. . Z00 ...
ROW 06 : ... .. . ... ... : ... .. 4 ... ... : ... .. . ... : ... .. . ... : ... .. . Z00 ...
ROW 07 : ... .. . ... ... : ... .. . ... ... : ... .. . ... : ... .. . ... : ... .. . Z00 ...
ROW 08 : ... .. . ... ... : ... .. 0 ... ... : --- .. . ... : ... .. . ... : ... .. . Z00 ...
ROW 09 : ... .. . ... ... : C-4 00 0 P80 ... : C-4 00 . P80 : ... .. . ... : ... .. . Z00 ...
ROW 0A : ... .. . ... ... : ... .. 8 ... ... : ... .. . ... : ... .. . ... : ... .. . Z00 ...
ROW 0B : ... .. . ... ... : ... .. 7 ... ... : ... .. . ... : ... .. . ... : ... .. . Z00 ...
ROW 0C : ... .. . ... ... : ... .. 6 ... ... : ... .. . ... : ... .. . ... : ... .. . Z00 ...
ROW 0D : ... .. . ... ... : ... .. 5 ... ... : ... .. . ... : ... .. . ... : ... .. . Z00 ...
ROW 0E : ... .. . ... ... : ... .. . ... ... : ... .. . ... : ... .. . ... : ... .. . Z00 ...
ROW 0F : ... .. . ... ... : ... .. 4 ... ... : ... .. . ... : ... .. . ... : ... .. . Z00 ...
ROW 10 : ... .. . ... ... : ... .. . ... ... : ... .. . ... : ... .. . ... : ... .. . Z00 ...
ROW 11 : ... .. . ... ... : ... .. 0 ... ... : --- .. . ... : ... .. . ... : ... .. . Z00 ...
ROW 12 : ... .. . ... ... : A-2 00 0 P7B ... : A-2 00 . P7B : ... .. . ... : ... .. . Z00 ...
ROW 13 : ... .. . ... ... : ... .. 8 ... ... : ... .. . ... : ... .. . ... : ... .. . Z00 ...
ROW 14 : ... .. . ... ... : ... .. 7 ... ... : ... .. . ... : ... .. . ... : ... .. . Z00 ...
ROW 15 : ... .. . ... ... : ... .. 6 ... ... : ... .. . ... : ... .. . ... : ... .. . Z00 ...
ROW 16 : ... .. . ... ... : ... .. 5 ... ... : ... .. . ... : ... .. . ... : ... .. . Z00 ...
ROW 17 : ... .. . ... ... : ... .. . ... ... : ... .. . ... : ... .. . ... : ... .. . Z00 ...
ROW 18 : ... .. . ... ... : ... .. 4 ... ... : ... .. . ... : ... .. . ... : ... .. . Z00 ...
ROW 19 : ... .. . ... ... : ... .. . ... ... : ... .. . ... : ... .. . ... : ... .. . Z00 ...
ROW 1A : ... .. . ... ... : ... .. 0 ... ... : --- .. . ... : ... .. . ... : ... .. . Z00 ...
ROW 1B : ... .. . ... ... : A-3 00 0 P7E ... : A-3 00 . P7E : ... .. . ... : ... .. . Z00 ...
ROW 1C : ... .. . ... ... : ... .. 8 ... ... : ... .. . ... : ... .. . ... : ... .. . Z00 ...
ROW 1D : ... .. . ... ... : ... .. 7 ... ... : ... .. . ... : ... .. . ... : ... .. . Z00 ...
ROW 1E : ... .. . ... ... : ... .. 6 ... ... : ... .. . ... : ... .. . ... : ... .. . Z00 ...
ROW 1F : ... .. . ... ... : ... .. 5 ... ... : ... .. . ... : ... .. . ... : ... .. . Z00 ...
ROW 20 : ... .. . ... ... : ... .. . ... ... : ... .. . ... : ... .. . ... : ... .. . Z00 ...
ROW 21 : ... .. . ... ... : ... .. 4 ... ... : ... .. . ... : ... .. . ... : ... .. . Z00 ...
ROW 22 : ... .. . ... ... : ... .. . ... ... : ... .. . ... : ... .. . ... : ... .. . Z00 ...
ROW 23 : ... .. . ... ... : ... .. 0 ... ... : --- .. . ... : ... .. . ... : ... .. . Z00 ...
ROW 24 : ... .. . ... ... : A#2 00 0 P77 ... : A#2 00 . P77 : ... .. . ... : ... .. . Z00 ...
ROW 25 : ... .. . ... ... : ... .. 8 ... ... : ... .. . ... : ... .. . ... : ... .. . Z00 ...
ROW 26 : ... .. . ... ... : ... .. 7 ... ... : ... .. . ... : ... .. . ... : ... .. . Z00 ...
ROW 27 : ... .. . ... ... : ... .. 6 ... ... : ... .. . ... : ... .. . ... : ... .. . Z00 ...
ROW 28 : ... .. . ... ... : ... .. 5 ... ... : ... .. . ... : ... .. . ... : ... .. . Z00 ...
ROW 29 : ... .. . ... ... : ... .. . ... ... : ... .. . ... : ... .. . ... : ... .. . Z00 ...
ROW 2A : ... .. . ... ... : ... .. 4 ... ... : ... .. . ... : ... .. . ... : ... .. . Z00 ...
ROW 2B : ... .. . ... ... : ... .. . ... ... : ... .. . ... : ... .. . ... : ... .. . Z00 ...
ROW 2C : ... .. . ... ... : ... .. 0 ... ... : --- .. . ... : ... .. . ... : ... .. . Z00 ...
ROW 2D : ... .. . ... ... : A#3 00 0 P7C ... : A#3 00 . P7C : ... .. . ... : ... .. . Z00 ...
ROW 2E : ... .. . ... ... : ... .. 8 ... ... : ... .. . ... : ... .. . ... : ... .. . Z00 ...
ROW 2F : ... .. . ... ... : ... .. 7 ... ... : ... .. . ... : ... .. . ... : ... .. . Z00 ...
ROW 30 : ... .. . ... ... : ... .. 6 ... ... : ... .. . ... : ... .. . ... : ... .. . Z00 ...
ROW 31 : ... .. . ... ... : ... .. 5 ... ... : ... .. . ... : ... .. . ... : ... .. . Z00 ...
ROW 32 : ... .. . ... ... : ... .. . ... ... : ... .. . ... : ... .. . ... : ... .. . Z00 ...
ROW 33 : ... .. . ... ... : ... .. 4 ... ... : ... .. . ... : ... .. . ... : ... .. . Z00 ...
ROW 34 : ... .. . ... ... : ... .. . ... ... : ... .. . ... : ... .. . ... : ... .. . Z00 ...
ROW 35 : ... .. . ... ... : ... .. 0 ... ... : --- .. . ... : ... .. . ... : ... .. . Z00 ...
ROW 36 : ... .. . ... ... : ... .. . ... ... : ... .. . ... : ... .. . ... : ... .. . Z00 ...
ROW 37 : ... .. . ... ... : ... .. . ... ... : ... .. . ... : ... .. . ... : ... .. . Z00 ...
ROW 38 : ... .. . ... ... : ... .. . ... ... : ... .. . ... : ... .. . ... : ... .. . Z00 ...
ROW 39 : ... .. . ... ... : ... .. . ... ... : ... .. . ... : ... .. . ... : ... .. . Z00 ...
ROW 3A : ... .. . ... ... : ... .. . ... ... : ... .. . ... : ... .. . ... : ... .. . Z00 ...
ROW 3B : ... .. . ... ... : ... .. . ... ... : ... .. . ... : ... .. . ... : ... .. . Z00 ...
ROW 3C : ... .. . ... ... : ... .. . ... ... : ... .. . ... : ... .. . ... : ... .. . Z00 ...
ROW 3D : ... .. . ... ... : ... .. . ... ... : ... .. . ... : ... .. . ... : ... .. . Z00 ...
ROW 3E : ... .. . ... ... : ... .. . ... ... : ... .. . ... : ... .. . ... : ... .. . Z00 ...
ROW 3F : ... .. . ... ... : ... .. . ... ... : ... .. . ... : ... .. . ... : ... .. . Z00 ...
ROW 40 : ... .. . ... ... : ... .. . ... ... : ... .. . ... : ... .. . ... : ... .. . Z00 ...
ROW 41 : ... .. . ... ... : ... .. . ... ... : ... .. . ... : ... .. . ... : ... .. . Z00 ...
ROW 42 : ... .. . ... ... : ... .. . ... ... : ... .. . ... : ... .. . ... : ... .. . Z00 ...
ROW 43 : ... .. . ... ... : ... .. . ... ... : ... .. . ... : ... .. . ... : ... .. . Z00 ...
ROW 44 : ... .. . ... ... : ... .. . ... ... : ... .. . ... : ... .. . ... : ... .. . Z00 ...
ROW 45 : ... .. . ... ... : ... .. . ... ... : ... .. . ... : ... .. . ... : ... .. . Z00 ...
ROW 46 : ... .. . ... ... : ... .. . ... ... : ... .. . ... : ... .. . ... : ... .. . Z00 ...
ROW 47 : ... .. . ... ... : ... .. . ... ... : ... .. . ... : ... .. . ... : ... .. . Z00 ...
ROW 48 : ... .. . ... ... : ... .. . ... ... : ... .. . ... : ... .. . ... : ... .. . Z00 ...
ROW 49 : ... .. . ... ... : ... .. . ... ... : ... .. . ... : ... .. . ... : ... .. . Z00 ...
ROW 4A : ... .. . ... ... : ... .. . ... ... : ... .. . ... : ... .. . ... : ... .. . Z00 ...
ROW 4B : ... .. . ... ... : ... .. . ... ... : ... .. . ... : ... .. . ... : ... .. . Z00 ...
ROW 4C : ... .. . ... ... : ... .. . ... ... : ... .. . ... : ... .. . ... : ... .. . Z00 ...
ROW 4D : ... .. . ... ... : ... .. . ... ... : ... .. . ... : ... .. . ... : ... .. . Z00 ...
ROW 4E : ... .. . ... ... : ... .. . ... ... : ... .. . ... : ... .. . ... : ... .. . Z00 ...
ROW 4F : ... .. . ... ... : ... .. . ... ... : ... .. . ... : ... .. . ... : ... .. . Z00 ...
ROW 50 : ... .. . ... ... : ... .. . ... ... : ... .. . ... : ... .. . ... : ... .. . Z00 ...
ROW 51 : ... .. . ... ... : ... .. . ... ... : ... .. . ... : ... .. . ... : ... .. . Z00 ...
ROW 52 : ... .. . ... ... : ... .. . ... ... : ... .. . ... : ... .. . ... : ... .. . Z00 ...
ROW 53 : ... .. . ... ... : ... .. . ... ... : ... .. . ... : ... .. . ... : ... .. . Z00 ...
ROW 54 : ... .. . ... ... : ... .. . ... ... : ... .. . ... : ... .. . ... : ... .. . Z00 ...
ROW 55 : ... .. . ... ... : ... .. . ... ... : ... .. . ... : ... .. . ... : ... .. . Z00 ...
ROW 56 : ... .. . ... ... : ... .. . ... ... : ... .. . ... : ... .. . ... : ... .. . Z00 ...
ROW 57 : ... .. . ... ... : ... .. . ... ... : ... .. . ... : ... .. . ... : ... .. . Z00 ...
ROW 58 : ... .. . ... ... : ... .. . ... ... : ... .. . ... : ... .. . ... : ... .. . Z00 ...
ROW 59 : ... .. . ... ... : ... .. . ... ... : ... .. . ... : ... .. . ... : ... .. . Z00 ...
ROW 5A : ... .. . ... ... : ... .. . ... ... : ... .. . ... : ... .. . ... : ... .. . Z00 ...
ROW 5B : ... .. . ... ... : ... .. . ... ... : ... .. . ... : ... .. . ... : ... .. . Z00 ...
ROW 5C : ... .. . ... ... : ... .. . ... ... : ... .. . ... : ... .. . ... : ... .. . Z00 ...
ROW 5D : ... .. . ... ... : ... .. . ... ... : ... .. . ... : ... .. . ... : ... .. . Z00 ...
ROW 5E : ... .. . ... ... : ... .. . ... ... : ... .. . ... : ... .. . ... : ... .. . Z00 ...
ROW 5F : ... .. . ... ... : ... .. . ... ... : ... .. . ... : ... .. . ... : ... .. . Z00 ...
ROW 60 : ... .. . ... ... : ... .. . ... ... : ... .. . ... : ... .. . ... : ... .. . Z00 ...
ROW 61 : ... .. . ... ... : ... .. . ... ... : ... .. . ... : ... .. . ... : ... .. . Z00 ...
ROW 62 : ... .. . ... ... : ... .. . ... ... : ... .. . ... : ... .. . ... : ... .. . Z00 ...
ROW 63 : ... .. . ... ... : ... .. . ... ... : ... .. . ... : ... .. . ... : ... .. . Z00 ...
ROW 64 : ... .. . ... ... : ... .. . ... ... : ... .. . ... : ... .. . ... : ... .. . Z00 ...
ROW 65 : ... .. . ... ... : ... .. . ... ... : ... .. . ... : ... .. . ... : ... .. . Z00 ...
ROW 66 : ... .. . ... ... : ... .. . ... ... : ... .. . ... : ... .. . ... : ... .. . Z00 ...
ROW 67 : ... .. . ... ... : ... .. . ... ... : ... .. . ... : ... .. . ... : ... .. . Z00 ...
ROW 68 : ... .. . ... ... : ... .. . ... ... : ... .. . ... : ... .. . ... : ... .. . Z00 ...
ROW 69 : ... .. . ... ... : ... .. . ... ... : ... .. . ... : ... .. . ... : ... .. . Z00 ...
ROW 6A : ... .. . ... ... : ... .. . ... ... : ... .. . ... : ... .. . ... : ... .. . Z00 ...
ROW 6B : ... .. . ... ... : ... .. . ... ... : ... .. . ... : ... .. . ... : ... .. . Z00 B01

TRACK 192   1 150 "Waterworld"
COLUMNS : 2 2 1 1 2

ORDER 00 : 00 00 00 00 00
ORDER 01 : 01 01 01 01 01
ORDER 02 : 02 02 02 02 02
ORDER 03 : 03 03 03 03 03
ORDER 04 : 04 04 04 04 04
ORDER 05 : 05 05 05 05 05
ORDER 06 : 06 06 06 06 06
ORDER 07 : 07 07 07 07 07

PATTERN 00
ROW 00 : D-3 00 5 P81 V00 : D-3 00 5 P81 V00 : --- .. . P7C : B-# 00 0 V01 : ... .. . Z30 ...
ROW 01 : ... .. 3 ... V02 : ... .. 3 ... V02 : ... .. . ... : ... .. . ... : ... .. . Z30 ...
ROW 02 : ... .. 4 ... ... : ... .. 4 ... ... : ... .. . ... : ... .. . ... : ... .. . Z30 ...
ROW 03 : ... .. 5 ... ... : ... .. 5 ... ... : ... .. . ... : ... .. . ... : ... .. . Z30 ...
ROW 04 : ... .. . ... ... : ... .. . ... ... : ... .. . ... : ... .. . ... : ... .. . Z30 ...
ROW 05 : ... .. 6 ... ... : ... .. 6 ... ... : ... .. . ... : ... .. . ... : ... .. . Z30 ...
ROW 06 : ... .. . ... ... : ... .. . ... ... : ... .. . ... : ... .. . ... : ... .. . Z30 ...
ROW 07 : ... .. . ... ... : ... .. . ... ... : ... .. . ... : ... .. . ... : ... .. . Z30 ...
ROW 08 : ... .. . ... ... : ... .. . ... ... : ... .. . ... : ... .. . ... : ... .. . Z30 ...
ROW 09 : ... .. . ... ... : ... .. . ... ... : ... .. . ... : ... .. . ... : ... .. . Z30 ...
ROW 0A : ... .. . ... ... : ... .. . ... ... : ... .. . ... : ... .. . ... : ... .. . Z30 ...
ROW 0B : ... .. . ... ... : ... .. . ... ... : ... .. . ... : ... .. . ... : ... .. . Z30 ...
ROW 0C : ... .. . ... ... : ... .. . ... ... : ... .. . ... : ... .. . ... : ... .. . Z30 ...
ROW 0D : ... .. . ... ... : ... .. . ... ... : ... .. . ... : ... .. . ... : ... .. . Z30 ...
ROW 0E : ... .. . ... ... : ... .. . ... ... : ... .. . ... : ... .. . ... : ... .. . Z30 ...
ROW 0F : ... .. . ... ... : ... .. . ... ... : ... .. . ... : ... .. . ... : ... .. . Z30 ...
ROW 10 : C#3 00 5 P83 V00 : E-3 00 5 P7D V00 : ... .. . ... : C-# 00 C V00 : ... .. . Z30 ...
ROW 11 : ... .. 3 ... V02 : ... .. 3 ... V02 : ... .. . ... : ... .. 0 ... : ... .. . Z30 ...
ROW 12 : ... .. 4 ... ... : ... .. 4 ... ... : ... .. . ... : ... .. . ... : ... .. . Z30 ...
ROW 13 : ... .. 5 ... ... : ... .. 5 ... ... : ... .. . ... : ... .. . ... : ... .. . Z30 ...
ROW 14 : ... .. . ... ... : ... .. . ... ... : ... .. . ... : ... .. . ... : ... .. . Z30 ...
ROW 15 : ... .. 6 ... ... : ... .. 6 ... ... : ... .. . ... : ... .. . ... : ... .. . Z30 ...
ROW 16 : ... .. . ... ... : ... .. . ... ... : ... .. . ... : ... .. . ... : ... .. . Z30 ...
ROW 17 : ... .. . ... ... : ... .. . ... ... : ... .. . ... : ... .. . ... : ... .. . Z30 ...
ROW 18 : ... .. . ... ... : ... .. . ... ... : ... .. . ... : ... .. . ... : ... .. . Z30 ...
ROW 19 : ... .. . ... ... : ... .. . ... ... : ... .. . ... : ... .. . ... : ... .. . Z30 ...
ROW 1A : ... .. . ... ... : ... .. . ... ... : ... .. . ... : ... .. . ... : ... .. . Z30 ...
ROW 1B : ... .. . ... ... : ... .. . ... ... : ... .. . ... : ... .. . ... : ... .. . Z30 ...
ROW 1C : ... .. . ... ... : ... .. . ... ... : ... .. . ... : ... .. . ... : ... .. . Z30 ...
ROW 1D : ... .. . ... ... : ... .. . ... ... : ... .. . ... : ... .. . ... : ... .. . Z30 ...
ROW 1E : ... .. . ... ... : ... .. . ... ... : ... .. . ... : ... .. . ... : ... .. . Z30 ...
ROW 1F : ... .. . ... ... : ... .. . ... ... : ... .. . ... : ... .. . ... : ... .. . Z30 ...
ROW 20 : C-3 00 5 P80 V00 : F#3 00 5 P7D V00 : ... .. . ... : ... .. C ... : ... .. . Z30 ...
ROW 21 : ... .. 3 ... V02 : ... .. 3 ... V02 : ... .. . ... : ... .. . ... : ... .. . Z30 ...
ROW 22 : ... .. 4 ... ... : ... .. 4 ... ... : ... .. . ... : ... .. . ... : ... .. . Z30 ...
ROW 23 : ... .. 5 ... ... : ... .. 5 ... ... : ... .. . ... : ... .. . ... : ... .. . Z30 ...
ROW 24 : ... .. . ... ... : ... .. . ... ... : ... .. . ... : ... .. . ... : ... .. . Z30 ...
ROW 25 : ... .. 6 ... ... : ... .. 6 ... ... : ... .. . ... : ... .. 0 ... : ... .. . Z30 ...
ROW 26 : ... .. . ... ... : ... .. . ... ... : ... .. . ... : ... .. . ... : ... .. . Z30 ...
ROW 27 : ... .. . ... ... : ... .. . ... ... : ... .. . ... : ... .. . ... : ... .. . Z30 ...
ROW 28 : ... .. . ... ... : ... .. . ... ... : ... .. . ... : ... .. . ... : ... .. . Z30 ...
ROW 29 : ... .. . ... ... : ... .. . ... ... : ... .. . ... : ... .. . ... : ... .. . Z30 ...
ROW 2A : ... .. . ... ... : ... .. . ... ... : ... .. . ... : ... .. . ... : ... .. . Z30 ...
ROW 2B : ... .. . ... ... : ... .. . ... ... : ... .. . ... : ... .. . ... : ... .. . Z30 ...
ROW 2C : ... .. . ... ... : ... .. . ... ... : ... .. . ... : ... .. . ... : ... .. . Z30 ...
ROW 2D : ... .. . ... ... : ... .. . ... ... : ... .. . ... : ... .. . ... : ... .. . Z30 ...
ROW 2E : ... .. . ... ... : ... .. . ... ... : ... .. . ... : ... .. . ... : ... .. . Z30 ...
ROW 2F : ... .. . ... ... : ... .. . ... ... : ... .. . ... : ... .. . ... : ... .. . Z30 ...
ROW 30 : B-2 00 5 P7D V00 : G-3 00 5 P80 V00 : ... .. . ... : B-# 00 0 V01 : ... .. . Z30 ...
ROW 31 : ... .. 3 ... V02 : ... .. 3 ... V02 : ... .. . ... : ... .. . ... : ... .. . Z30 ...
ROW 32 : ... .. 4 ... ... : ... .. 4 ... ... : ... .. . ... : ... .. . ... : ... .. . Z30 ...
ROW 33 : ... .. 5 ... ... : ... .. 5 ... ... : ... .. . ... : ... .. . ... : ... .. . Z30 ...
ROW 34 : ... .. . ... ... : ... .. . ... ... : ... .. . ... : ... .. . ... : ... .. . Z30 ...
ROW 35 : ... .. 6 ... ... : ... .. 6 ... ... : ... .. . ... : ... .. . ... : ... .. . Z30 ...
ROW 36 : ... .. . ... ... : ... .. . ... ... : ... .. . ... : ... .. . ... : ... .. . Z30 ...
ROW 37 : ... .. . ... ... : ... .. . ... ... : ... .. . ... : ... .. . ... : ... .. . Z30 ...
ROW 38 : ... .. . ... ... : ... .. . ... ... : ... .. . ... : ... .. . ... : ... .. . Z30 ...
ROW 39 : ... .. . ... ... : ... .. . ... ... : ... .. . ... : ... .. . ... : ... .. . Z30 ...
ROW 3A : ... .. . ... ... : ... .. . ... ... : ... .. . ... : ... .. . ... : ... .. . Z30 ...
ROW 3B : ... .. . ... ... : ... .. . ... ... : ... .. . ... : ... .. . ... : ... .. . Z30 ...
ROW 3C : ... .. . ... ... : ... .. . ... ... : ... .. . ... : ... .. . ... : ... .. . Z30 ...
ROW 3D : ... .. . ... ... : ... .. . ... ... : ... .. . ... : ... .. . ... : ... .. . Z30 ...
ROW 3E : ... .. . ... ... : ... .. . ... ... : ... .. . ... : ... .. . ... : ... .. . Z30 ...
ROW 3F : ... .. . ... ... : ... .. . ... ... : ... .. . ... : ... .. . ... : ... .. . Z30 ...
ROW 40 : C-3 00 5 P80 V00 : A-3 00 5 P7E V00 : ... .. . ... : C-# 00 C V00 : ... .. . Z30 ...
ROW 41 : ... .. 3 ... V02 : ... .. 3 ... V02 : ... .. . ... : ... .. 0 ... : ... .. . Z30 ...
ROW 42 : ... .. 4 ... ... : ... .. 4 ... ... : ... .. . ... : ... .. . ... : ... .. . Z30 ...
ROW 43 : ... .. 5 ... ... : ... .. 5 ... ... : ... .. . ... : ... .. . ... : ... .. . Z30 ...
ROW 44 : ... .. . ... ... : ... .. . ... ... : ... .. . ... : ... .. . ... : ... .. . Z30 ...
ROW 45 : ... .. 6 ... ... : ... .. 6 ... ... : ... .. . ... : ... .. . ... : ... .. . Z30 ...
ROW 46 : ... .. . ... ... : ... .. . ... ... : ... .. . ... : ... .. . ... : ... .. . Z30 ...
ROW 47 : ... .. . ... ... : ... .. . ... ... : ... .. . ... : ... .. . ... : ... .. . Z30 ...
ROW 48 : ... .. . ... ... : ... .. . ... ... : ... .. . ... : ... .. C ... : ... .. . Z30 ...
ROW 49 : ... .. . ... ... : ... .. . ... ... : ... .. . ... : ... .. 0 ... : ... .. . Z30 ...
ROW 4A : ... .. . ... ... : ... .. . ... ... : ... .. . ... : ... .. . ... : ... .. . Z30 ...
ROW 4B : ... .. . ... ... : ... .. . ... ... : ... .. . ... : ... .. . ... : ... .. . Z30 ...
ROW 4C : ... .. . ... ... : ... .. . ... ... : ... .. . ... : ... .. . ... : ... .. . Z30 ...
ROW 4D : ... .. . ... ... : ... .. . ... ... : ... .. . ... : ... .. . ... : ... .. . Z30 ...
ROW 4E : ... .. . ... ... : ... .. . ... ... : ... .. . ... : ... .. . ... : ... .. . Z30 ...
ROW 4F : ... .. . ... ... : ... .. . ... ... : ... .. . ... : ... .. . ... : ... .. . Z30 ...
ROW 50 : C#3 00 5 P83 V00 : A#3 00 5 P7C V00 : ... .. . ... : ... .. C ... : ... .. . Z30 ...
ROW 51 : ... .. 3 ... V02 : ... .. 3 ... V02 : ... .. . ... : ... .. . ... : ... .. . Z30 ...
ROW 52 : ... .. 4 ... ... : ... .. 4 ... ... : ... .. . ... : ... .. . ... : ... .. . Z30 ...
ROW 53 : ... .. 5 ... ... : ... .. 5 ... ... : ... .. . ... : ... .. . ... : ... .. . Z30 ...
ROW 54 : ... .. . ... ... : ... .. . ... ... : ... .. . ... : ... .. . ... : ... .. . Z30 ...
ROW 55 : ... .. 6 ... ... : ... .. 6 ... ... : ... .. . ... : ... .. 0 ... : ... .. . Z30 ...
ROW 56 : ... .. . ... ... : ... .. . ... ... : ... .. . ... : ... .. . ... : ... .. . Z30 ...
ROW 57 : ... .. . ... ... : ... .. . ... ... : ... .. . ... : ... .. . ... : ... .. . Z30 ...
ROW 58 : ... .. . ... ... : ... .. . ... ... : ... .. . ... : ... .. . ... : ... .. . Z30 ...
ROW 59 : ... .. . ... ... : ... .. . ... ... : ... .. . ... : ... .. . ... : ... .. . Z30 ...
ROW 5A : ... .. . ... ... : ... .. . ... ... : ... .. . ... : ... .. . ... : ... .. . Z30 ...
ROW 5B : ... .. . ... ... : ... .. . ... ... : ... .. . ... : ... .. . ... : ... .. . Z30 ...
ROW 5C : ... .. . ... ... : ... .. . ... ... : ... .. . ... : ... .. . ... : ... .. . Z30 ...
ROW 5D : ... .. . ... ... : ... .. . ... ... : ... .. . ... : ... .. . ... : ... .. . Z30 ...
ROW 5E : ... .. . ... ... : ... .. . ... ... : ... .. . ... : ... .. . ... : ... .. . Z30 ...
ROW 5F : ... .. . ... ... : ... .. . ... ... : ... .. . ... : ... .. . ... : ... .. . Z30 ...
ROW 60 : D-3 00 5 P81 V00 : B-3 00 5 P7E V00 : ... .. . ... : B-# 00 0 V01 : ... .. . Z30 ...
ROW 61 : ... .. 3 ... V02 : ... .. 3 ... V02 : ... .. . ... : ... .. . ... : ... .. . Z30 ...
ROW 62 : ... .. 4 ... ... : ... .. 4 ... ... : ... .. . ... : ... .. . ... : ... .. . Z30 ...
ROW 63 : ... .. 5 ... ... : ... .. 5 ... ... : ... .. . ... : ... .. . ... : ... .. . Z30 ...
ROW 64 : ... .. . ... ... : ... .. . ... ... : ... .. . ... : ... .. . ... : ... .. . Z30 ...
ROW 65 : ... .. 6 ... ... : ... .. 6 ... ... : ... .. . ... : ... .. . ... : ... .. . Z30 ...
ROW 66 : ... .. . ... ... : ... .. . ... ... : ... .. . ... : ... .. . ... : ... .. . Z30 ...
ROW 67 : ... .. . ... ... : ... .. . ... ... : ... .. . ... : ... .. . ... : ... .. . Z30 ...
ROW 68 : ... .. 5 ... V00 : ... .. 5 ... V00 : ... .. . ... : ... .. . ... : ... .. . Z30 ...
ROW 69 : ... .. 3 ... V02 : ... .. 3 ... V02 : ... .. . ... : ... .. . ... : ... .. . Z30 ...
ROW 6A : ... .. 4 ... ... : ... .. 4 ... ... : ... .. . ... : ... .. . ... : ... .. . Z30 ...
ROW 6B : ... .. 5 ... ... : ... .. 5 ... ... : ... .. . ... : ... .. . ... : ... .. . Z30 ...
ROW 6C : ... .. . ... ... : ... .. . ... ... : ... .. . ... : ... .. . ... : ... .. . Z30 ...
ROW 6D : ... .. 6 ... ... : ... .. 6 ... ... : ... .. . ... : ... .. . ... : ... .. . Z30 ...
ROW 6E : ... .. . ... ... : ... .. . ... ... : ... .. . ... : ... .. . ... : ... .. . Z30 ...
ROW 6F : ... .. . ... ... : ... .. . ... ... : ... .. . ... : ... .. . ... : ... .. . Z30 ...
ROW 70 : ... .. 5 ... V00 : ... .. 5 ... V00 : ... .. . ... : C-# 00 C V00 : ... .. . Z30 ...
ROW 71 : ... .. 3 ... V02 : ... .. 3 ... V02 : ... .. . ... : ... .. 0 ... : ... .. . Z30 ...
ROW 72 : ... .. 4 ... ... : ... .. 4 ... ... : ... .. . ... : ... .. . ... : ... .. . Z30 ...
ROW 73 : ... .. 5 ... ... : ... .. 5 ... ... : ... .. . ... : ... .. . ... : ... .. . Z30 ...
ROW 74 : ... .. . ... ... : ... .. . ... ... : ... .. . ... : ... .. . ... : ... .. . Z30 ...
ROW 75 : ... .. 6 ... ... : ... .. 6 ... ... : ... .. . ... : ... .. . ... : ... .. . Z30 ...
ROW 76 : ... .. . ... ... : ... .. . ... ... : ... .. . ... : ... .. . ... : ... .. . Z30 ...
ROW 77 : ... .. . ... ... : ... .. . ... ... : ... .. . ... : ... .. . ... : ... .. . Z30 ...
ROW 78 : ... .. 0 ... ... : ... .. 0 ... ... : ... .. . ... : ... .. . ... : ... .. . Z30 ...
ROW 79 : ... .. . ... ... : ... .. . ... ... : ... .. . ... : ... .. . ... : ... .. . Z30 ...
ROW 7A : ... .. . ... ... : ... .. . ... ... : ... .. . ... : ... .. . ... : ... .. . Z30 ...
ROW 7B : ... .. . ... ... : ... .. . ... ... : ... .. . ... : ... .. . ... : ... .. . Z30 ...
ROW 7C : ... .. . ... ... : ... .. . ... ... : ... .. . ... : ... .. . ... : ... .. . Z30 ...
ROW 7D : ... .. . ... ... : ... .. . ... ... : ... .. . ... : ... .. . ... : ... .. . Z30 ...
ROW 7E : ... .. . ... ... : ... .. . ... ... : ... .. . ... : ... .. . ... : ... .. . Z30 ...
ROW 7F : ... .. . ... ... : ... .. . ... ... : ... .. . ... : ... .. . ... : ... .. . Z30 ...
ROW 80 : E-3 00 5 P7D V00 : ... .. 5 ... V00 : G-3 00 . P80 : ... .. C ... : ... .. . Z30 ...
ROW 81 : ... .. 3 ... V02 : ... .. 3 ... V02 : ... .. . ... : ... .. . ... : ... .. . Z30 ...
ROW 82 : ... .. 4 ... ... : ... .. 4 ... ... : ... .. . ... : ... .. . ... : ... .. . Z30 ...
ROW 83 : ... .. 5 ... ... : ... .. 5 ... ... : ... .. . ... : ... .. . ... : ... .. . Z30 ...
ROW 84 : ... .. . ... ... : ... .. . ... ... : ... .. . ... : ... .. . ... : ... .. . Z30 ...
ROW 85 : ... .. 6 ... ... : ... .. 6 ... ... : ... .. . ... : ... .. 0 ... : ... .. . Z30 ...
ROW 86 : ... .. . ... ... : ... .. . ... ... : ... .. . ... : ... .. . ... : ... .. . Z30 ...
ROW 87 : ... .. . ... ... : ... .. . ... ... : ... .. . ... : ... .. . ... : ... .. . Z30 ...
ROW 88 : ... .. 0 ... ... : ... .. 0 ... ... : --- .. . ... : ... .. . ... : ... .. . Z30 ...
ROW 89 : ... .. . ... ... : ... .. . ... ... : ... .. . ... : ... .. . ... : ... .. . Z30 ...
ROW 8A : ... .. . ... ... : ... .. . ... ... : ... .. . ... : ... .. . ... : ... .. . Z30 ...
ROW 8B : ... .. . ... ... : ... .. . ... ... : ... .. . ... : ... .. . ... : ... .. . Z30 ...
ROW 8C : ... .. . ... ... : ... .. . ... ... : ... .. . ... : ... .. . ... : ... .. . Z30 ...
ROW 8D : ... .. . ... ... : ... .. . ... ... : ... .. . ... : ... .. . ... : ... .. . Z30 ...
ROW 8E : ... .. . ... ... : ... .. . ... ... : ... .. . ... : ... .. . ... : ... .. . Z30 ...
ROW 8F : ... .. . ... ... : ... .. . ... ... : ... .. . ... : ... .. . ... : ... .. . Z30 ...
ROW 90 : F-3 00 5 P80 V00 : ... .. 5 ... V00 : G-3 00 . P80 : B-# 00 0 V01 : ... .. . Z30 ...
ROW 91 : ... .. 3 ... V02 : ... .. 3 ... V02 : ... .. . ... : ... .. . ... : ... .. . Z30 ...
ROW 92 : ... .. 4 ... ... : ... .. 4 ... ... : ... .. . ... : ... .. . ... : ... .. . Z30 ...
ROW 93 : ... .. 5 ... ... : ... .. 5 ... ... : ... .. . ... : ... .. . ... : ... .. . Z30 ...
ROW 94 : ... .. . ... ... : ... .. . ... ... : ... .. . ... : ... .. . ... : ... .. . Z30 ...
ROW 95 : ... .. 6 ... ... : ... .. 6 ... ... : ... .. . ... : ... .. . ... : ... .. . Z30 ...
ROW 96 : ... .. . ... ... : ... .. . ... ... : ... .. . ... : ... .. . ... : ... .. . Z30 ...
ROW 97 : ... .. . ... ... : ... .. . ... ... : ... .. . ... : ... .. . ... : ... .. . Z30 ...
ROW 98 : ... .. . ... ... : ... .. . ... ... : ... .. . ... : ... .. . ... : ... .. . Z30 ...
ROW 99 : ... .. . ... ... : ... .. . ... ... : ... .. . ... : ... .. . ... : ... .. . Z30 ...
ROW 9A : ... .. . ... ... : ... .. . ... ... : ... .. . ... : ... .. . ... : ... .. . Z30 ...
ROW 9B : ... .. . ... ... : ... .. . ... ... : ... .. . ... : ... .. . ... : ... .. . Z30 ...
ROW 9C : ... .. . ... ... : ... .. . ... ... : ... .. . ... : ... .. . ... : ... .. . Z30 ...
ROW 9D : ... .. . ... ... : ... .. . ... ... : ... .. . ... : ... .. . ... : ... .. . Z30 ...
ROW 9E : ... .. . ... ... : ... .. . ... ... : ... .. . ... : ... .. . ... : ... .. . Z30 ...
ROW 9F : ... .. . ... ... : ... .. . ... ... : ... .. . ... : ... .. . ... : ... .. . Z30 ...
ROW A0 : ... .. . ... ... : ... .. . ... ... : ... .. . ... : C-# 00 C V00 : ... .. . Z30 ...
ROW A1 : ... .. . ... ... : ... .. . ... ... : ... .. . ... : ... .. 0 ... : ... .. . Z30 ...
ROW A2 : ... .. . ... ... : ... .. . ... ... : ... .. . ... : ... .. . ... : ... .. . Z30 ...
ROW A3 : ... .. . ... ... : ... .. . ... ... : ... .. . ... : ... .. . ... : ... .. . Z30 ...
ROW A4 : ... .. . ... ... : ... .. . ... ... : ... .. . ... : ... .. . ... : ... .. . Z30 ...
ROW A5 : ... .. . ... ... : ... .. . ... ... : ... .. . ... : ... .. . ... : ... .. . Z30 ...
ROW A6 : ... .. 5 ... ... : ... .. 5 ... ... : ... .. . ... : ... .. . ... : ... .. . Z30 ...
ROW A7 : ... .. . ... ... : ... .. . ... ... : ... .. . ... : ... .. . ... : ... .. . Z30 ...
ROW A8 : ... .. . ... ... : ... .. . ... ... : ... .. . ... : ... .. C ... : ... .. . Z30 ...
ROW A9 : ... .. . ... ... : ... .. . ... ... : ... .. . ... : ... .. 0 ... : ... .. . Z30 ...
ROW AA : ... .. . ... ... : ... .. . ... ... : ... .. . ... : ... .. . ... : ... .. . Z30 ...
ROW AB : ... .. . ... ... : ... .. . ... ... : ... .. . ... : ... .. . ... : ... .. . Z30 ...
ROW AC : ... .. 4 ... ... : ... .. 4 ... ... : ... .. . ... : ... .. . ... : ... .. . Z30 ...
ROW AD : ... .. . ... ... : ... .. . ... ... : ... .. . ... : ... .. . ... : ... .. . Z30 ...
ROW AE : ... .. . ... ... : ... .. . ... ... : ... .. . ... : ... .. . ... : ... .. . Z30 ...
ROW AF : ... .. . ... ... : ... .. . ... ... : ... .. . ... : ... .. . ... : ... .. . Z30 ...
ROW B0 : ... .. . ... ... : G-3 00 5 P80 V00 : ... .. . ... : ... .. C ... : ... .. . Z30 ...
ROW B1 : ... .. . ... ... : ... .. 3 ... V02 : ... .. . ... : ... .. . ... : ... .. . Z30 ...
ROW B2 : ... .. 3 ... ... : ... .. 4 ... ... : ... .. . ... : ... .. . ... : ... .. . Z30 ...
ROW B3 : ... .. . ... ... : ... .. 5 ... ... : ... .. . ... : ... .. . ... : ... .. . Z30 ...
ROW B4 : ... .. . ... ... : ... .. . ... ... : ... .. . ... : ... .. . ... : ... .. . Z30 ...
ROW B5 : ... .. 2 ... ... : ... .. 6 ... ... : ... .. . ... : ... .. 0 ... : ... .. . Z30 ...
ROW B6 : ... .. . ... ... : ... .. . ... ... : ... .. . ... : ... .. . ... : ... .. . Z30 ...
ROW B7 : ... .. 1 ... ... : ... .. . ... ... : ... .. . ... : ... .. . ... : ... .. . Z30 ...
ROW B8 : ... .. 0 ... ... : ... .. . ... ... : ... .. . ... : ... .. . ... : ... .. . Z30 ...
ROW B9 : ... .. . ... ... : ... .. . ... ... : ... .. . ... : ... .. . ... : ... .. . Z30 ...
ROW BA : ... .. . ... ... : ... .. . ... ... : ... .. . ... : ... .. . ... : ... .. . Z30 ...
ROW BB : ... .. . ... ... : ... .. . ... ... : ... .. . ... : ... .. . ... : ... .. . Z30 ...
ROW BC : ... .. . ... ... : ... .. . ... ... : ... .. . ... : ... .. . ... : ... .. . Z30 ...
ROW BD : ... .. . ... ... : ... .. . ... ... : ... .. . ... : ... .. . ... : ... .. . Z30 ...
ROW BE : ... .. . ... ... : ... .. . ... ... : ... .. . ... : ... .. . ... : ... .. . Z30 ...
ROW BF : ... .. . ... ... : ... .. . ... ... : ... .. . ... : ... .. . ... : ... .. . Z30 ...

PATTERN 01
ROW 00 : G-3 00 5 P80 V00 : E-4 00 5 P7F V00 : C-3 00 . P80 : B-# 00 0 V01 : ... .. . Z30 ...
ROW 01 : ... .. 3 ... V02 : ... .. 3 ... V02 : ... .. . ... : ... .. . ... : ... .. . Z30 ...
ROW 02 : ... .. 4 ... ... : ... .. 4 ... ... : ... .. . ... : ... .. . ... : ... .. . Z30 ...
ROW 03 : ... .. 5 ... ... : ... .. 5 ... ... : ... .. . ... : ... .. . ... : ... .. . Z30 ...
ROW 04 : ... .. . ... ... : ... .. . ... ... : ... .. . ... : ... .. . ... : ... .. . Z30 ...
ROW 05 : ... .. 6 ... ... : ... .. 6 ... ... : ... .. . ... : ... .. . ... : ... .. . Z30 ...
ROW 06 : ... .. . ... ... : ... .. . ... ... : ... .. . ... : ... .. . ... : ... .. . Z30 ...
ROW 07 : ... .. . ... ... : ... .. . ... ... : ... .. . ... : ... .. . ... : ... .. . Z30 ...
ROW 08 : ... .. . ... ... : ... .. . ... ... : --- .. . ... : ... .. . ... : ... .. . Z30 ...
ROW 09 : ... .. . ... ... : ... .. . ... ... : ... .. . ... : ... .. . ... : ... .. . Z30 ...
ROW 0A : ... .. . ... ... : ... .. . ... ... : ... .. . ... : ... .. . ... : ... .. . Z30 ...
ROW 0B : ... .. . ... ... : ... .. . ... ... : ... .. . ... : ... .. . ... : ... .. . Z30 ...
ROW 0C : ... .. . ... ... : ... .. . ... ... : ... .. . ... : ... .. . ... : ... .. . Z30 ...
ROW 0D : ... .. . ... ... : ... .. . ... ... : ... .. . ... : ... .. . ... : ... .. . Z30 ...
ROW 0E : ... .. . ... ... : ... .. . ... ... : ... .. . ... : ... .. . ... : ... .. . Z30 ...
ROW 0F : ... .. . ... ... : ... .. . ... ... : ... .. . ... : ... .. . ... : ... .. . Z30 ...
ROW 10 : ... .. . ... ... : ... .. . ... ... : G-3 00 . P80 : C-# 00 C V00 : ... .. . Z30 ...
ROW 11 : ... .. . ... ... : ... .. . ... ... : ... .. . ... : ... .. 0 ... : ... .. . Z30 ...
ROW 12 : ... .. . ... ... : ... .. . ... ... : ... .. . ... : ... .. . ... : ... .. . Z30 ...
ROW 13 : ... .. . ... ... : ... .. . ... ... : ... .. . ... : ... .. . ... : ... .. . Z30 ...
ROW 14 : ... .. . ... ... : ... .. . ... ... : ... .. . ... : ... .. . ... : ... .. . Z30 ...
ROW 15 : ... .. . ... ... : ... .. . ... ... : ... .. . ... : ... .. . ... : ... .. . Z30 ...
ROW 16 : ... .. 5 ... ... : ... .. 5 ... ... : ... .. . ... : ... .. . ... : ... .. . Z30 ...
ROW 17 : ... .. . ... ... : ... .. . ... ... : ... .. . ... : ... .. . ... : ... .. . Z30 ...
ROW 18 : ... .. . ... ... : ... .. . ... ... : --- .. . ... : ... .. . ... : ... .. . Z30 ...
ROW 19 : ... .. . ... ... : ... .. . ... ... : ... .. . ... : ... .. . ... : ... .. . Z30 ...
ROW 1A : ... .. . ... ... : ... .. . ... ... : ... .. . ... : ... .. . ... : ... .. . Z30 ...
ROW 1B : ... .. . ... ... : ... .. . ... ... : ... .. . ... : ... .. . ... : ... .. . Z30 ...
ROW 1C : ... .. 4 ... ... : ... .. 4 ... ... : ... .. . ... : ... .. . ... : ... .. . Z30 ...
ROW 1D : ... .. . ... ... : ... .. . ... ... : ... .. . ... : ... .. . ... : ... .. . Z30 ...
ROW 1E : ... .. . ... ... : ... .. . ... ... : ... .. . ... : ... .. . ... : ... .. . Z30 ...
ROW 1F : ... .. . ... ... : ... .. . ... ... : ... .. . ... : ... .. . ... : ... .. . Z30 ...
ROW 20 : ... .. . ... ... : ... .. . ... ... : C-4 00 . P80 : ... .. C ... : ... .. . Z30 ...
ROW 21 : ... .. . ... ... : ... .. . ... ... : ... .. . ... : ... .. . ... : ... .. . Z30 ...
ROW 22 : ... .. 3 ... ... : ... .. 3 ... ... : ... .. . ... : ... .. . ... : ... .. . Z30 ...
ROW 23 : ... .. . ... ... : ... .. . ... ... : ... .. . ... : ... .. . ... : ... .. . Z30 ...
ROW 24 : ... .. . ... ... : ... .. . ... ... : ... .. . ... : ... .. . ... : ... .. . Z30 ...
ROW 25 : ... .. 2 ... ... : ... .. 2 ... ... : ... .. . ... : ... .. 0 ... : ... .. . Z30 ...
ROW 26 : ... .. . ... ... : ... .. . ... ... : ... .. . ... : ... .. . ... : ... .. . Z30 ...
ROW 27 : ... .. 1 ... ... : ... .. 1 ... ... : ... .. . ... : ... .. . ... : ... .. . Z30 ...
ROW 28 : ... .. 0 ... ... : ... .. 0 ... ... : --- .. . ... : ... .. . ... : ... .. . Z30 ...
ROW 29 : ... .. . ... ... : ... .. . ... ... : ... .. . ... : ... .. . ... : ... .. . Z30 ...
ROW 2A : ... .. . ... ... : ... .. . ... ... : ... .. . ... : ... .. . ... : ... .. . Z30 ...
ROW 2B : ... .. . ... ... : ... .. . ... ... : ... .. . ... : ... .. . ... : ... .. . Z30 ...
ROW 2C : ... .. . ... ... : ... .. . ... ... : ... .. . ... : ... .. . ... : ... .. . Z30 ...
ROW 2D : ... .. . ... ... : ... .. . ... ... : ... .. . ... : ... .. . ... : ... .. . Z30 ...
ROW 2E : ... .. . ... ... : ... .. . ... ... : ... .. . ... : ... .. . ... : ... .. . Z30 ...
ROW 2F : ... .. . ... ... : ... .. . ... ... : ... .. . ... : ... .. . ... : ... .. . Z30 ...
ROW 30 : F#3 00 5 P7D V00 : D#4 00 5 P82 V00 : B-2 00 . P7D : B-# 00 0 V01 : ... .. . Z30 ...
ROW 31 : ... .. 3 ... V02 : ... .. 3 ... V02 : ... .. . ... : ... .. . ... : ... .. . Z30 ...
ROW 32 : ... .. 4 ... ... : ... .. 4 ... ... : ... .. . ... : ... .. . ... : ... .. . Z30 ...
ROW 33 : ... .. 5 ... ... : ... .. 5 ... ... : ... .. . ... : ... .. . ... : ... .. . Z30 ...
ROW 34 : ... .. . ... ... : ... .. . ... ... : ... .. . ... : ... .. . ... : ... .. . Z30 ...
ROW 35 : ... .. 6 ... ... : ... .. 6 ... ... : ... .. . ... : ... .. . ... : ... .. . Z30 ...
ROW 36 : ... .. . ... ... : ... .. . ... ... : ... .. . ... : ... .. . ... : ... .. . Z30 ...
ROW 37 : ... .. . ... ... : ... .. . ... ... : ... .. . ... : ... .. . ... : ... .. . Z30 ...
ROW 38 : ... .. . ... ... : ... .. . ... ... : --- .. . ... : ... .. . ... : ... .. . Z30 ...
ROW 39 : ... .. . ... ... : ... .. . ... ... : ... .. . ... : ... .. . ... : ... .. . Z30 ...
ROW 3A : ... .. . ... ... : ... .. . ... ... : ... .. . ... : ... .. . ... : ... .. . Z30 ...
ROW 3B : ... .. . ... ... : ... .. . ... ... : ... .. . ... : ... .. . ... : ... .. . Z30 ...
ROW 3C : ... .. . ... ... : ... .. . ... ... : ... .. . ... : ... .. . ... : ... .. . Z30 ...
ROW 3D : ... .. . ... ... : ... .. . ... ... : ... .. . ... : ... .. . ... : ... .. . Z30 ...
ROW 3E : ... .. . ... ... : ... .. . ... ... : ... .. . ... : ... .. . ... : ... .. . Z30 ...
ROW 3F : ... .. . ... ... : ... .. . ... ... : ... .. . ... : ... .. . ... : ... .. . Z30 ...
ROW 40 : ... .. . ... ... : ... .. . ... ... : G-3 00 . P80 : C-# 00 C V00 : ... .. . Z30 ...
ROW 41 : ... .. . ... ... : ... .. . ... ... : ... .. . ... : ... .. 0 ... : ... .. . Z30 ...
ROW 42 : ... .. . ... ... : ... .. . ... ... : ... .. . ... : ... .. . ... : ... .. . Z30 ...
ROW 43 : ... .. . ... ... : ... .. . ... ... : ... .. . ... : ... .. . ... : ... .. . Z30 ...
ROW 44 : ... .. . ... ... : ... .. . ... ... : ... .. . ... : ... .. . ... : ... .. . Z30 ...
ROW 45 : ... .. . ... ... : ... .. . ... ... : ... .. . ... : ... .. . ... : ... .. . Z30 ...
ROW 46 : ... .. 5 ... ... : ... .. 5 ... ... : ... .. . ... : ... .. . ... : ... .. . Z30 ...
ROW 47 : ... .. . ... ... : ... .. . ... ... : ... .. . ... : ... .. . ... : ... .. . Z30 ...
ROW 48 : ... .. . ... ... : ... .. . ... ... : --- .. . ... : ... .. C ... : ... .. . Z30 ...
ROW 49 : ... .. . ... ... : ... .. . ... ... : ... .. . ... : ... .. 0 ... : ... .. . Z30 ...
ROW 4A : ... .. . ... ... : ... .. . ... ... : ... .. . ... : ... .. . ... : ... .. . Z30 ...
ROW 4B : ... .. . ... ... : ... .. . ... ... : ... .. . ... : ... .. . ... : ... .. . Z30 ...
ROW 4C : ... .. 4 ... ... : ... .. 4 ... ... : ... .. . ... : ... .. . ... : ... .. . Z30 ...
ROW 4D : ... .. . ... ... : ... .. . ... ... : ... .. . ... : ... .. . ... : ... .. . Z30 ...
ROW 4E : ... .. . ... ... : ... .. . ... ... : ... .. . ... : ... .. . ... : ... .. . Z30 ...
ROW 4F : ... .. . ... ... : ... .. . ... ... : ... .. . ... : ... .. . ... : ... .. . Z30 ...
ROW 50 : ... .. . ... ... : ... .. . ... ... : B-3 00 . P7E : ... .. C ... : ... .. . Z30 ...
ROW 51 : ... .. . ... ... : ... .. . ... ... : ... .. . ... : ... .. . ... : ... .. . Z30 ...
ROW 52 : ... .. 3 ... ... : ... .. 3 ... ... : ... .. . ... : ... .. . ... : ... .. . Z30 ...
ROW 53 : ... .. . ... ... : ... .. . ... ... : ... .. . ... : ... .. . ... : ... .. . Z30 ...
ROW 54 : ... .. . ... ... : ... .. . ... ... : ... .. . ... : ... .. . ... : ... .. . Z30 ...
ROW 55 : ... .. 2 ... ... : ... .. 2 ... ... : ... .. . ... : ... .. 0 ... : ... .. . Z30 ...
ROW 56 : ... .. . ... ... : ... .. . ... ... : ... .. . ... : ... .. . ... : ... .. . Z30 ...
ROW 57 : ... .. 1 ... ... : ... .. 1 ... ... : ... .. . ... : ... .. . ... : ... .. . Z30 ...
ROW 58 : ... .. 0 ... ... : ... .. 0 ... ... : --- .. . ... : ... .. . ... : ... .. . Z30 ...
ROW 59 : ... .. . ... ... : ... .. . ... ... : ... .. . ... : ... .. . ... : ... .. . Z30 ...
ROW 5A : ... .. . ... ... : ... .. . ... ... : ... .. . ... : ... .. . ... : ... .. . Z30 ...
ROW 5B : ... .. . ... ... : ... .. . ... ... : ... .. . ... : ... .. . ... : ... .. . Z30 ...
ROW 5C : ... .. . ... ... : ... .. . ... ... : ... .. . ... : ... .. . ... : ... .. . Z30 ...
ROW 5D : ... .. . ... ... : ... .. . ... ... : ... .. . ... : ... .. . ... : ... .. . Z30 ...
ROW 5E : ... .. . ... ... : ... .. . ... ... : ... .. . ... : ... .. . ... : ... .. . Z30 ...
ROW 5F : ... .. . ... ... : ... .. . ... ... : ... .. . ... : ... .. . ... : ... .. . Z30 ...
ROW 60 : G-3 00 5 P80 V00 : E-4 00 5 P7F V00 : C-3 00 . P80 : B-# 00 0 V01 : ... .. . Z30 ...
ROW 61 : ... .. 3 ... V02 : ... .. 3 ... V02 : ... .. . ... : ... .. . ... : ... .. . Z30 ...
ROW 62 : ... .. 4 ... ... : ... .. 4 ... ... : ... .. . ... : ... .. . ... : ... .. . Z30 ...
ROW 63 : ... .. 5 ... ... : ... .. 5 ... ... : ... .. . ... : ... .. . ... : ... .. . Z30 ...
ROW 64 : ... .. . ... ... : ... .. . ... ... : ... .. . ... : ... .. . ... : ... .. . Z30 ...
ROW 65 : ... .. 6 ... ... : ... .. 6 ... ... : ... .. . ... : ... .. . ... : ... .. . Z30 ...
ROW 66 : ... .. . ... ... : ... .. . ... ... : ... .. . ... : ... .. . ... : ... .. . Z30 ...
ROW 67 : ... .. . ... ... : ... .. . ... ... : ... .. . ... : ... .. . ... : ... .. . Z30 ...
ROW 68 : ... .. . ... ... : ... .. . ... ... : --- .. . ... : ... .. . ... : ... .. . Z30 ...
ROW 69 : ... .. . ... ... : ... .. . ... ... : ... .. . ... : ... .. . ... : ... .. . Z30 ...
ROW 6A : ... .. . ... ... : ... .. . ... ... : ... .. . ... : ... .. . ... : ... .. . Z30 ...
ROW 6B : ... .. . ... ... : ... .. . ... ... : ... .. . ... : ... .. . ... : ... .. . Z30 ...
ROW 6C : ... .. . ... ... : ... .. . ... ... : ... .. . ... : ... .. . ... : ... .. . Z30 ...
ROW 6D : ... .. . ... ... : ... .. . ... ... : ... .. . ... : ... .. . ... : ... .. . Z30 ...
ROW 6E : ... .. . ... ... : ... .. . ... ... : ... .. . ... : ... .. . ... : ... .. . Z30 ...
ROW 6F : ... .. . ... ... : ... .. . ... ... : ... .. . ... : ... .. . ... : ... .. . Z30 ...
ROW 70 : ... .. . ... ... : ... .. . ... ... : G-3 00 . P80 : C-# 00 C V00 : ... .. . Z30 ...
ROW 71 : ... .. . ... ... : ... .. . ... ... : ... .. . ... : ... .. 0 ... : ... .. . Z30 ...
ROW 72 : ... .. . ... ... : ... .. . ... ... : ... .. . ... : ... .. . ... : ... .. . Z30 ...
ROW 73 : ... .. . ... ... : ... .. . ... ... : ... .. . ... : ... .. . ... : ... .. . Z30 ...
ROW 74 : ... .. . ... ... : ... .. . ... ... : ... .. . ... : ... .. . ... : ... .. . Z30 ...
ROW 75 : ... .. . ... ... : ... .. . ... ... : ... .. . ... : ... .. . ... : ... .. . Z30 ...
ROW 76 : ... .. 5 ... ... : ... .. 5 ... ... : ... .. . ... : ... .. . ... : ... .. . Z30 ...
ROW 77 : ... .. . ... ... : ... .. . ... ... : ... .. . ... : ... .. . ... : ... .. . Z30 ...
ROW 78 : ... .. . ... ... : ... .. . ... ... : --- .. . ... : ... .. . ... : ... .. . Z30 ...
ROW 79 : ... .. . ... ... : ... .. . ... ... : ... .. . ... : ... .. . ... : ... .. . Z30 ...
ROW 7A : ... .. . ... ... : ... .. . ... ... : ... .. . ... : ... .. . ... : ... .. . Z30 ...
ROW 7B : ... .. . ... ... : ... .. . ... ... : ... .. . ... : ... .. . ... : ... .. . Z30 ...
ROW 7C : ... .. 4 ... ... : ... .. 4 ... ... : ... .. . ... : ... .. . ... : ... .. . Z30 ...
ROW 7D : ... .. . ... ... : ... .. . ... ... : ... .. . ... : ... .. . ... : ... .. . Z30 ...
ROW 7E : ... .. . ... ... : ... .. . ... ... : ... .. . ... : ... .. . ... : ... .. . Z30 ...
ROW 7F : ... .. . ... ... : ... .. . ... ... : ... .. . ... : ... .. . ... : ... .. . Z30 ...
ROW 80 : ... .. . ... ... : ... .. . ... ... : C-4 00 . P80 : ... .. C ... : ... .. . Z30 ...
ROW 81 : ... .. . ... ... : ... .. . ... ... : ... .. . ... : ... .. . ... : ... .. . Z30 ...
ROW 82 : ... .. 3 ... ... : ... .. 3 ... ... : ... .. . ... : ... .. . ... : ... .. . Z30 ...
ROW 83 : ... .. . ... ... : ... .. . ... ... : ... .. . ... : ... .. . ... : ... .. . Z30 ...
ROW 84 : ... .. . ... ... : ... .. . ... ... : ... .. . ... : ... .. . ... : ... .. . Z30 ...
ROW 85 : ... .. 2 ... ... : ... .. 2 ... ... : ... .. . ... : ... .. 0 ... : ... .. . Z30 ...
ROW 86 : ... .. . ... ... : ... .. . ... ... : ... .. . ... : ... .. . ... : ... .. . Z30 ...
ROW 87 : ... .. 1 ... ... : ... .. 1 ... ... : ... .. . ... : ... .. . ... : ... .. . Z30 ...
ROW 88 : ... .. 0 ... ... : ... .. 0 ... ... : --- .. . ... : ... .. . ... : ... .. . Z30 ...
ROW 89 : ... .. . ... ... : ... .. . ... ... : ... .. . ... : ... .. . ... : ... .. . Z30 ...
ROW 8A : ... .. . ... ... : ... .. . ... ... : ... .. . ... : ... .. . ... : ... .. . Z30 ...
ROW 8B : ... .. . ... ... : ... .. . ... ... : ... .. . ... : ... .. . ... : ... .. . Z30 ...
ROW 8C : ... .. . ... ... : ... .. . ... ... : ... .. . ... : ... .. . ... : ... .. . Z30 ...
ROW 8D : ... .. . ... ... : ... .. . ... ... : ... .. . ... : ... .. . ... : ... .. . Z30 ...
ROW 8E : ... .. . ... ... : ... .. . ... ... : ... .. . ... : ... .. . ... : ... .. . Z30 ...
ROW 8F : ... .. . ... ... : ... .. . ... ... : ... .. . ... : ... .. . ... : ... .. . Z30 ...
ROW 90 : ... .. . ... ... : ... .. . ... ... : E-3 00 . P7D : B-# 00 0 V01 : ... .. . Z30 ...
ROW 91 : ... .. . ... ... : ... .. . ... ... : ... .. . ... : ... .. . ... : ... .. . Z30 ...
ROW 92 : ... .. . ... ... : ... .. . ... ... : ... .. . ... : ... .. . ... : ... .. . Z30 ...
ROW 93 : ... .. . ... ... : ... .. . ... ... : ... .. . ... : ... .. . ... : ... .. . Z30 ...
ROW 94 : ... .. . ... ... : ... .. . ... ... : ... .. . ... : ... .. . ... : ... .. . Z30 ...
ROW 95 : ... .. . ... ... : ... .. . ... ... : ... .. . ... : ... .. . ... : ... .. . Z30 ...
ROW 96 : ... .. . ... ... : ... .. . ... ... : ... .. . ... : ... .. . ... : ... .. . Z30 ...
ROW 97 : ... .. . ... ... : ... .. . ... ... : ... .. . ... : ... .. . ... : ... .. . Z30 ...
ROW 98 : ... .. . ... ... : G-3 00 5 P80 V00 : --- .. . ... : ... .. . ... : ... .. . Z30 ...
ROW 99 : ... .. . ... ... : ... .. 3 ... V02 : ... .. . ... : ... .. . ... : ... .. . Z30 ...
ROW 9A : ... .. . ... ... : ... .. 4 ... ... : ... .. . ... : ... .. . ... : ... .. . Z30 ...
ROW 9B : ... .. . ... ... : ... .. 5 ... ... : ... .. . ... : ... .. . ... : ... .. . Z30 ...
ROW 9C : ... .. . ... ... : ... .. . ... ... : ... .. . ... : ... .. . ... : ... .. . Z30 ...
ROW 9D : ... .. . ... ... : ... .. 6 ... ... : ... .. . ... : ... .. . ... : ... .. . Z30 ...
ROW 9E : ... .. . ... ... : ... .. . ... ... : ... .. . ... : ... .. . ... : ... .. . Z30 ...
ROW 9F : ... .. . ... ... : ... .. . ... ... : ... .. . ... : ... .. . ... : ... .. . Z30 ...
ROW A0 : ... .. . ... ... : A-3 00 5 P7E V00 : G-3 00 . P80 : C-# 00 C V00 : ... .. . Z30 ...
ROW A1 : ... .. . ... ... : ... .. 3 ... V02 : ... .. . ... : ... .. 0 ... : ... .. . Z30 ...
ROW A2 : ... .. . ... ... : ... .. 4 ... ... : ... .. . ... : ... .. . ... : ... .. . Z30 ...
ROW A3 : ... .. . ... ... : ... .. 5 ... ... : ... .. . ... : ... .. . ... : ... .. . Z30 ...
ROW A4 : ... .. . ... ... : ... .. . ... ... : ... .. . ... : ... .. . ... : ... .. . Z30 ...
ROW A5 : ... .. . ... ... : ... .. 6 ... ... : ... .. . ... : ... .. . ... : ... .. . Z30 ...
ROW A6 : ... .. . ... ... : ... .. . ... ... : ... .. . ... : ... .. . ... : ... .. . Z30 ...
ROW A7 : ... .. . ... ... : ... .. . ... ... : ... .. . ... : ... .. . ... : ... .. . Z30 ...
ROW A8 : ... .. . ... ... : B-3 00 5 P7E V00 : --- .. . ... : ... .. C ... : ... .. . Z30 ...
ROW A9 : ... .. . ... ... : ... .. 3 ... V02 : ... .. . ... : ... .. 0 ... : ... .. . Z30 ...
ROW AA : ... .. . ... ... : ... .. 4 ... ... : ... .. . ... : ... .. . ... : ... .. . Z30 ...
ROW AB : ... .. . ... ... : ... .. 5 ... ... : ... .. . ... : ... .. . ... : ... .. . Z30 ...
ROW AC : ... .. . ... ... : ... .. . ... ... : ... .. . ... : ... .. . ... : ... .. . Z30 ...
ROW AD : ... .. . ... ... : ... .. 6 ... ... : ... .. . ... : ... .. . ... : ... .. . Z30 ...
ROW AE : ... .. . ... ... : ... .. . ... ... : ... .. . ... : ... .. . ... : ... .. . Z30 ...
ROW AF : ... .. . ... ... : ... .. . ... ... : ... .. . ... : ... .. . ... : ... .. . Z30 ...
ROW B0 : ... .. . ... ... : C-4 00 5 P80 V00 : C-4 00 . P80 : ... .. C ... : ... .. . Z30 ...
ROW B1 : ... .. . ... ... : ... .. 3 ... V02 : ... .. . ... : ... .. . ... : ... .. . Z30 ...
ROW B2 : ... .. . ... ... : ... .. 4 ... ... : ... .. . ... : ... .. . ... : ... .. . Z30 ...
ROW B3 : ... .. . ... ... : ... .. 5 ... ... : ... .. . ... : ... .. . ... : ... .. . Z30 ...
ROW B4 : ... .. . ... ... : ... .. . ... ... : ... .. . ... : ... .. . ... : ... .. . Z30 ...
ROW B5 : ... .. . ... ... : ... .. 6 ... ... : ... .. . ... : ... .. 0 ... : ... .. . Z30 ...
ROW B6 : ... .. . ... ... : ... .. . ... ... : ... .. . ... : ... .. . ... : ... .. . Z30 ...
ROW B7 : ... .. . ... ... : ... .. . ... ... : ... .. . ... : ... .. . ... : ... .. . Z30 ...
ROW B8 : ... .. . ... ... : D-4 00 5 P80 V00 : --- .. . ... : ... .. . ... : ... .. . Z30 ...
ROW B9 : ... .. . ... ... : ... .. 3 ... V02 : ... .. . ... : ... .. . ... : ... .. . Z30 ...
ROW BA : ... .. . ... ... : ... .. 4 ... ... : ... .. . ... : ... .. . ... : ... .. . Z30 ...
ROW BB : ... .. . ... ... : ... .. 5 ... ... : ... .. . ... : ... .. . ... : ... .. . Z30 ...
ROW BC : ... .. . ... ... : ... .. . ... ... : ... .. . ... : ... .. . ... : ... .. . Z30 ...
ROW BD : ... .. . ... ... : ... .. 6 ... ... : ... .. . ... : ... .. . ... : ... .. . Z30 ...
ROW BE : ... .. . ... ... : ... .. . ... ... : ... .. . ... : ... .. . ... : ... .. . Z30 ...
ROW BF : ... .. . ... ... : ... .. . ... ... : ... .. . ... : ... .. . ... : ... .. . Z30 ...

PATTERN 02
ROW 00 : ... .. 5 ... V00 : E-4 00 5 P7F V00 : C-3 00 . P80 : B-# 00 0 V01 : ... .. . Z30 ...
ROW 01 : ... .. 3 ... V02 : ... .. 3 ... V02 : ... .. . ... : ... .. . ... : ... .. . Z30 ...
ROW 02 : ... .. 4 ... ... : ... .. 4 ... ... : ... .. . ... : ... .. . ... : ... .. . Z30 ...
ROW 03 : ... .. 5 ... ... : ... .. 5 ... ... : ... .. . ... : ... .. . ... : ... .. . Z30 ...
ROW 04 : ... .. . ... ... : ... .. . ... ... : ... .. . ... : ... .. . ... : ... .. . Z30 ...
ROW 05 : ... .. 6 ... ... : ... .. 6 ... ... : ... .. . ... : ... .. . ... : ... .. . Z30 ...
ROW 06 : ... .. . ... ... : ... .. . ... ... : ... .. . ... : ... .. . ... : ... .. . Z30 ...
ROW 07 : ... .. . ... ... : ... .. . ... ... : ... .. . ... : ... .. . ... : ... .. . Z30 ...
ROW 08 : ... .. . ... ... : ... .. . ... ... : --- .. . ... : ... .. . ... : ... .. . Z30 ...
ROW 09 : ... .. . ... ... : ... .. . ... ... : ... .. . ... : ... .. . ... : ... .. . Z30 ...
ROW 0A : ... .. . ... ... : ... .. . ... ... : ... .. . ... : ... .. . ... : ... .. . Z30 ...
ROW 0B : ... .. . ... ... : ... .. . ... ... : ... .. . ... : ... .. . ... : ... .. . Z30 ...
ROW 0C : ... .. . ... ... : ... .. . ... ... : ... .. . ... : ... .. . ... : ... .. . Z30 ...
ROW 0D : ... .. . ... ... : ... .. . ... ... : ... .. . ... : ... .. . ... : ... .. . Z30 ...
ROW 0E : ... .. . ... ... : ... .. . ... ... : ... .. . ... : ... .. . ... : ... .. . Z30 ...
ROW 0F : ... .. . ... ... : ... .. . ... ... : ... .. . ... : ... .. . ... : ... .. . Z30 ...
ROW 10 : ... .. . ... ... : ... .. . ... ... : G-3 00 . P80 : C-# 00 C V00 : ... .. . Z30 ...
ROW 11 : ... .. . ... ... : ... .. . ... ... : ... .. . ... : ... .. 0 ... : ... .. . Z30 ...
ROW 12 : ... .. . ... ... : ... .. . ... ... : ... .. . ... : ... .. . ... : ... .. . Z30 ...
ROW 13 : ... .. . ... ... : ... .. . ... ... : ... .. . ... : ... .. . ... : ... .. . Z30 ...
ROW 14 : ... .. . ... ... : ... .. . ... ... : ... .. . ... : ... .. . ... : ... .. . Z30 ...
ROW 15 : ... .. . ... ... : ... .. . ... ... : ... .. . ... : ... .. . ... : ... .. . Z30 ...
ROW 16 : ... .. 5 ... ... : ... .. 5 ... ... : ... .. . ... : ... .. . ... : ... .. . Z30 ...
ROW 17 : ... .. . ... ... : ... .. . ... ... : ... .. . ... : ... .. . ... : ... .. . Z30 ...
ROW 18 : ... .. . ... ... : ... .. . ... ... : --- .. . ... : ... .. . ... : ... .. . Z30 ...
ROW 19 : ... .. . ... ... : ... .. . ... ... : ... .. . ... : ... .. . ... : ... .. . Z30 ...
ROW 1A : ... .. . ... ... : ... .. . ... ... : ... .. . ... : ... .. . ... : ... .. . Z30 ...
ROW 1B : ... .. . ... ... : ... .. . ... ... : ... .. . ... : ... .. . ... : ... .. . Z30 ...
ROW 1C : ... .. 4 ... ... : ... .. 4 ... ... : ... .. . ... : ... .. . ... : ... .. . Z30 ...
ROW 1D : ... .. . ... ... : ... .. . ... ... : ... .. . ... : ... .. . ... : ... .. . Z30 ...
ROW 1E : ... .. . ... ... : ... .. . ... ... : ... .. . ... : ... .. . ... : ... .. . Z30 ...
ROW 1F : ... .. . ... ... : ... .. . ... ... : ... .. . ... : ... .. . ... : ... .. . Z30 ...
ROW 20 : ... .. . ... ... : ... .. . ... ... : C-4 00 . P80 : ... .. C ... : ... .. . Z30 ...
ROW 21 : ... .. . ... ... : ... .. . ... ... : ... .. . ... : ... .. . ... : ... .. . Z30 ...
ROW 22 : ... .. 3 ... ... : ... .. 3 ... ... : ... .. . ... : ... .. . ... : ... .. . Z30 ...
ROW 23 : ... .. . ... ... : ... .. . ... ... : ... .. . ... : ... .. . ... : ... .. . Z30 ...
ROW 24 : ... .. . ... ... : ... .. . ... ... : ... .. . ... : ... .. . ... : ... .. . Z30 ...
ROW 25 : ... .. 2 ... ... : ... .. 2 ... ... : ... .. . ... : ... .. 0 ... : ... .. . Z30 ...
ROW 26 : ... .. . ... ... : ... .. . ... ... : ... .. . ... : ... .. . ... : ... .. . Z30 ...
ROW 27 : ... .. 1 ... ... : ... .. 1 ... ... : ... .. . ... : ... .. . ... : ... .. . Z30 ...
ROW 28 : ... .. 0 ... ... : ... .. 0 ... ... : --- .. . ... : ... .. . ... : ... .. . Z30 ...
ROW 29 : ... .. . ... ... : ... .. . ... ... : ... .. . ... : ... .. . ... : ... .. . Z30 ...
ROW 2A : ... .. . ... ... : ... .. . ... ... : ... .. . ... : ... .. . ... : ... .. . Z30 ...
ROW 2B : ... .. . ... ... : ... .. . ... ... : ... .. . ... : ... .. . ... : ... .. . Z30 ...
ROW 2C : ... .. . ... ... : ... .. . ... ... : ... .. . ... : ... .. . ... : ... .. . Z30 ...
ROW 2D : ... .. . ... ... : ... .. . ... ... : ... .. . ... : ... .. . ... : ... .. . Z30 ...
ROW 2E : ... .. . ... ... : ... .. . ... ... : ... .. . ... : ... .. . ... : ... .. . Z30 ...
ROW 2F : ... .. . ... ... : ... .. . ... ... : ... .. . ... : ... .. . ... : ... .. . Z30 ...
ROW 30 : F#3 00 5 P7D V00 : D#4 00 5 P82 V00 : B-2 00 . P7D : B-# 00 0 V01 : ... .. . Z30 ...
ROW 31 : ... .. 3 ... V02 : ... .. 3 ... V02 : ... .. . ... : ... .. . ... : ... .. . Z30 ...
ROW 32 : ... .. 4 ... ... : ... .. 4 ... ... : ... .. . ... : ... .. . ... : ... .. . Z30 ...
ROW 33 : ... .. 5 ... ... : ... .. 5 ... ... : ... .. . ... : ... .. . ... : ... .. . Z30 ...
ROW 34 : ... .. . ... ... : ... .. . ... ... : ... .. . ... : ... .. . ... : ... .. . Z30 ...
ROW 35 : ... .. 6 ... ... : ... .. 6 ... ... : ... .. . ... : ... .. . ... : ... .. . Z30 ...
ROW 36 : ... .. . ... ... : ... .. . ... ... : ... .. . ... : ... .. . ... : ... .. . Z30 ...
ROW 37 : ... .. . ... ... : ... .. . ... ... : ... .. . ... : ... .. . ... : ... .. . Z30 ...
ROW 38 : ... .. . ... ... : ... .. . ... ... : --- .. . ... : ... .. . ... : ... .. . Z30 ...
ROW 39 : ... .. . ... ... : ... .. . ... ... : ... .. . ... : ... .. . ... : ... .. . Z30 ...
ROW 3A : ... .. . ... ... : ... .. . ... ... : ... .. . ... : ... .. . ... : ... .. . Z30 ...
ROW 3B : ... .. . ... ... : ... .. . ... ... : ... .. . ... : ... .. . ... : ... .. . Z30 ...
ROW 3C : ... .. . ... ... : ... .. . ... ... : ... .. . ... : ... .. . ... : ... .. . Z30 ...
ROW 3D : ... .. . ... ... : ... .. . ... ... : ... .. . ... : ... .. . ... : ... .. . Z30 ...
ROW 3E : ... .. . ... ... : ... .. . ... ... : ... .. . ... : ... .. . ... : ... .. . Z30 ...
ROW 3F : ... .. . ... ... : ... .. . ... ... : ... .. . ... : ... .. . ... : ... .. . Z30 ...
ROW 40 : ... .. . ... ... : ... .. . ... ... : G-3 00 . P80 : C-# 00 C V00 : ... .. . Z30 ...
ROW 41 : ... .. . ... ... : ... .. . ... ... : ... .. . ... : ... .. 0 ... : ... .. . Z30 ...
ROW 42 : ... .. . ... ... : ... .. . ... ... : ... .. . ... : ... .. . ... : ... .. . Z30 ...
ROW 43 : ... .. . ... ... : ... .. . ... ... : ... .. . ... : ... .. . ... : ... .. . Z30 ...
ROW 44 : ... .. . ... ... : ... .. . ... ... : ... .. . ... : ... .. . ... : ... .. . Z30 ...
ROW 45 : ... .. . ... ... : ... .. . ... ... : ... .. . ... : ... .. . ... : ... .. . Z30 ...
ROW 46 : ... .. 5 ... ... : ... .. 5 ... ... : ... .. . ... : ... .. . ... : ... .. . Z30 ...
ROW 47 : ... .. . ... ... : ... .. . ... ... : ... .. . ... : ... .. . ... : ... .. . Z30 ...
ROW 48 : ... .. . ... ... : ... .. . ... ... : --- .. . ... : ... .. C ... : ... .. . Z30 ...
ROW 49 : ... .. . ... ... : ... .. . ... ... : ... .. . ... : ... .. 0 ... : ... .. . Z30 ...
ROW 4A : ... .. . ... ... : ... .. . ... ... : ... .. . ... : ... .. . ... : ... .. . Z30 ...
ROW 4B : ... .. . ... ... : ... .. . ... ... : ... .. . ... : ... .. . ... : ... .. . Z30 ...
ROW 4C : ... .. 4 ... ... : ... .. 4 ... ... : ... .. . ... : ... .. . ... : ... .. . Z30 ...
ROW 4D : ... .. . ... ... : ... .. . ... ... : ... .. . ... : ... .. . ... : ... .. . Z30 ...
ROW 4E : ... .. . ... ... : ... .. . ... ... : ... .. . ... : ... .. . ... : ... .. . Z30 ...
ROW 4F : ... .. . ... ... : ... .. . ... ... : ... .. . ... : ... .. . ... : ... .. . Z30 ...
ROW 50 : A-3 00 5 P7E V00 : F-4 00 5 P80 V00 : B-3 00 . P7E : ... .. C ... : ... .. . Z30 ...
ROW 51 : ... .. 3 ... V02 : ... .. 3 ... V02 : ... .. . ... : ... .. . ... : ... .. . Z30 ...
ROW 52 : ... .. 4 ... ... : ... .. 4 ... ... : ... .. . ... : ... .. . ... : ... .. . Z30 ...
ROW 53 : ... .. 5 ... ... : ... .. 5 ... ... : ... .. . ... : ... .. . ... : ... .. . Z30 ...
ROW 54 : ... .. . ... ... : ... .. . ... ... : ... .. . ... : ... .. . ... : ... .. . Z30 ...
ROW 55 : ... .. 6 ... ... : ... .. 6 ... ... : ... .. . ... : ... .. 0 ... : ... .. . Z30 ...
ROW 56 : ... .. . ... ... : ... .. . ... ... : ... .. . ... : ... .. . ... : ... .. . Z30 ...
ROW 57 : ... .. . ... ... : ... .. . ... ... : ... .. . ... : ... .. . ... : ... .. . Z30 ...
ROW 58 : ... .. . ... ... : ... .. . ... ... : --- .. . ... : ... .. . ... : ... .. . Z30 ...
ROW 59 : ... .. . ... ... : ... .. . ... ... : ... .. . ... : ... .. . ... : ... .. . Z30 ...
ROW 5A : ... .. . ... ... : ... .. . ... ... : ... .. . ... : ... .. . ... : ... .. . Z30 ...
ROW 5B : ... .. . ... ... : ... .. . ... ... : ... .. . ... : ... .. . ... : ... .. . Z30 ...
ROW 5C : ... .. . ... ... : ... .. . ... ... : ... .. . ... : ... .. . ... : ... .. . Z30 ...
ROW 5D : ... .. . ... ... : ... .. . ... ... : ... .. . ... : ... .. . ... : ... .. . Z30 ...
ROW 5E : ... .. . ... ... : ... .. . ... ... : ... .. . ... : ... .. . ... : ... .. . Z30 ...
ROW 5F : ... .. . ... ... : ... .. . ... ... : ... .. . ... : ... .. . ... : ... .. . Z30 ...
ROW 60 : G-3 00 5 P80 V00 : E-4 00 5 P7F V00 : C-3 00 . P80 : B-# 00 0 V01 : ... .. . Z30 ...
ROW 61 : ... .. 3 ... V02 : ... .. 3 ... V02 : ... .. . ... : ... .. . ... : ... .. . Z30 ...
ROW 62 : ... .. 4 ... ... : ... .. 4 ... ... : ... .. . ... : ... .. . ... : ... .. . Z30 ...
ROW 63 : ... .. 5 ... ... : ... .. 5 ... ... : ... .. . ... : ... .. . ... : ... .. . Z30 ...
ROW 64 : ... .. . ... ... : ... .. . ... ... : ... .. . ... : ... .. . ... : ... .. . Z30 ...
ROW 65 : ... .. 6 ... ... : ... .. 6 ... ... : ... .. . ... : ... .. . ... : ... .. . Z30 ...
ROW 66 : ... .. . ... ... : ... .. . ... ... : ... .. . ... : ... .. . ... : ... .. . Z30 ...
ROW 67 : ... .. . ... ... : ... .. . ... ... : ... .. . ... : ... .. . ... : ... .. . Z30 ...
ROW 68 : ... .. . ... ... : ... .. . ... ... : --- .. . ... : ... .. . ... : ... .. . Z30 ...
ROW 69 : ... .. . ... ... : ... .. . ... ... : ... .. . ... : ... .. . ... : ... .. . Z30 ...
ROW 6A : ... .. . ... ... : ... .. . ... ... : ... .. . ... : ... .. . ... : ... .. . Z30 ...
ROW 6B : ... .. . ... ... : ... .. . ... ... : ... .. . ... : ... .. . ... : ... .. . Z30 ...
ROW 6C : ... .. . ... ... : ... .. . ... ... : ... .. . ... : ... .. . ... : ... .. . Z30 ...
ROW 6D : ... .. . ... ... : ... .. . ... ... : ... .. . ... : ... .. . ... : ... .. . Z30 ...
ROW 6E : ... .. . ... ... : ... .. . ... ... : ... .. . ... : ... .. . ... : ... .. . Z30 ...
ROW 6F : ... .. . ... ... : ... .. . ... ... : ... .. . ... : ... .. . ... : ... .. . Z30 ...
ROW 70 : ... .. . ... ... : ... .. . ... ... : G-3 00 . P80 : C-# 00 C V00 : ... .. . Z30 ...
ROW 71 : ... .. . ... ... : ... .. . ... ... : ... .. . ... : ... .. 0 ... : ... .. . Z30 ...
ROW 72 : ... .. . ... ... : ... .. . ... ... : ... .. . ... : ... .. . ... : ... .. . Z30 ...
ROW 73 : ... .. . ... ... : ... .. . ... ... : ... .. . ... : ... .. . ... : ... .. . Z30 ...
ROW 74 : ... .. . ... ... : ... .. . ... ... : ... .. . ... : ... .. . ... : ... .. . Z30 ...
ROW 75 : ... .. . ... ... : ... .. . ... ... : ... .. . ... : ... .. . ... : ... .. . Z30 ...
ROW 76 : ... .. 5 ... ... : ... .. 5 ... ... : ... .. . ... : ... .. . ... : ... .. . Z30 ...
ROW 77 : ... .. . ... ... : ... .. . ... ... : ... .. . ... : ... .. . ... : ... .. . Z30 ...
ROW 78 : ... .. . ... ... : ... .. . ... ... : --- .. . ... : ... .. . ... : ... .. . Z30 ...
ROW 79 : ... .. . ... ... : ... .. . ... ... : ... .. . ... : ... .. . ... : ... .. . Z30 ...
ROW 7A : ... .. . ... ... : ... .. . ... ... : ... .. . ... : ... .. . ... : ... .. . Z30 ...
ROW 7B : ... .. . ... ... : ... .. . ... ... : ... .. . ... : ... .. . ... : ... .. . Z30 ...
ROW 7C : ... .. 4 ... ... : ... .. 4 ... ... : ... .. . ... : ... .. . ... : ... .. . Z30 ...
ROW 7D : ... .. . ... ... : ... .. . ... ... : ... .. . ... : ... .. . ... : ... .. . Z30 ...
ROW 7E : ... .. . ... ... : ... .. . ... ... : ... .. . ... : ... .. . ... : ... .. . Z30 ...
ROW 7F : ... .. . ... ... : ... .. . ... ... : ... .. . ... : ... .. . ... : ... .. . Z30 ...
ROW 80 : ... .. . ... ... : ... .. . ... ... : C-4 00 . P80 : ... .. C ... : ... .. . Z30 ...
ROW 81 : ... .. . ... ... : ... .. . ... ... : ... .. . ... : ... .. . ... : ... .. . Z30 ...
ROW 82 : ... .. 3 ... ... : ... .. 3 ... ... : ... .. . ... : ... .. . ... : ... .. . Z30 ...
ROW 83 : ... .. . ... ... : ... .. . ... ... : ... .. . ... : ... .. . ... : ... .. . Z30 ...
ROW 84 : ... .. . ... ... : ... .. . ... ... : ... .. . ... : ... .. . ... : ... .. . Z30 ...
ROW 85 : ... .. 2 ... ... : ... .. 2 ... ... : ... .. . ... : ... .. 0 ... : ... .. . Z30 ...
ROW 86 : ... .. . ... ... : ... .. . ... ... : ... .. . ... : ... .. . ... : ... .. . Z30 ...
ROW 87 : ... .. 1 ... ... : ... .. 1 ... ... : ... .. . ... : ... .. . ... : ... .. . Z30 ...
ROW 88 : ... .. 0 ... ... : ... .. 0 ... ... : --- .. . ... : ... .. . ... : ... .. . Z30 ...
ROW 89 : ... .. . ... ... : ... .. . ... ... : ... .. . ... : ... .. . ... : ... .. . Z30 ...
ROW 8A : ... .. . ... ... : ... .. . ... ... : ... .. . ... : ... .. . ... : ... .. . Z30 ...
ROW 8B : ... .. . ... ... : ... .. . ... ... : ... .. . ... : ... .. . ... : ... .. . Z30 ...
ROW 8C : ... .. . ... ... : ... .. . ... ... : ... .. . ... : ... .. . ... : ... .. . Z30 ...
ROW 8D : ... .. . ... ... : ... .. . ... ... : ... .. . ... : ... .. . ... : ... .. . Z30 ...
ROW 8E : ... .. . ... ... : ... .. . ... ... : ... .. . ... : ... .. . ... : ... .. . Z30 ...
ROW 8F : ... .. . ... ... : ... .. . ... ... : ... .. . ... : ... .. . ... : ... .. . Z30 ...
ROW 90 : ... .. . ... ... : ... .. . ... ... : E-3 00 . P7D : B-# 00 0 V01 : ... .. . Z30 ...
ROW 91 : ... .. . ... ... : ... .. . ... ... : ... .. . ... : ... .. . ... : ... .. . Z30 ...
ROW 92 : ... .. . ... ... : ... .. . ... ... : ... .. . ... : ... .. . ... : ... .. . Z30 ...
ROW 93 : ... .. . ... ... : ... .. . ... ... : ... .. . ... : ... .. . ... : ... .. . Z30 ...
ROW 94 : ... .. . ... ... : ... .. . ... ... : ... .. . ... : ... .. . ... : ... .. . Z30 ...
ROW 95 : ... .. . ... ... : ... .. . ... ... : ... .. . ... : ... .. . ... : ... .. . Z30 ...
ROW 96 : ... .. . ... ... : ... .. . ... ... : ... .. . ... : ... .. . ... : ... .. . Z30 ...
ROW 97 : ... .. . ... ... : ... .. . ... ... : ... .. . ... : ... .. . ... : ... .. . Z30 ...
ROW 98 : ... .. . ... ... : ... .. . ... ... : --- .. . ... : ... .. . ... : ... .. . Z30 ...
ROW 99 : ... .. . ... ... : ... .. . ... ... : ... .. . ... : ... .. . ... : ... .. . Z30 ...
ROW 9A : ... .. . ... ... : ... .. . ... ... : ... .. . ... : ... .. . ... : ... .. . Z30 ...
ROW 9B : ... .. . ... ... : ... .. . ... ... : ... .. . ... : ... .. . ... : ... .. . Z30 ...
ROW 9C : ... .. . ... ... : ... .. . ... ... : ... .. . ... : ... .. . ... : ... .. . Z30 ...
ROW 9D : ... .. . ... ... : ... .. . ... ... : ... .. . ... : ... .. . ... : ... .. . Z30 ...
ROW 9E : ... .. . ... ... : ... .. . ... ... : ... .. . ... : ... .. . ... : ... .. . Z30 ...
ROW 9F : ... .. . ... ... : ... .. . ... ... : ... .. . ... : ... .. . ... : ... .. . Z30 ...
ROW A0 : ... .. . ... ... : ... .. . ... ... : G-3 00 . P80 : C-# 00 C V00 : ... .. . Z30 ...
ROW A1 : ... .. . ... ... : ... .. . ... ... : ... .. . ... : ... .. 0 ... : ... .. . Z30 ...
ROW A2 : ... .. . ... ... : ... .. . ... ... : ... .. . ... : ... .. . ... : ... .. . Z30 ...
ROW A3 : ... .. . ... ... : ... .. . ... ... : ... .. . ... : ... .. . ... : ... .. . Z30 ...
ROW A4 : ... .. . ... ... : ... .. . ... ... : ... .. . ... : ... .. . ... : ... .. . Z30 ...
ROW A5 : ... .. . ... ... : ... .. . ... ... : ... .. . ... : ... .. . ... : ... .. . Z30 ...
ROW A6 : ... .. . ... ... : ... .. . ... ... : ... .. . ... : ... .. . ... : ... .. . Z30 ...
ROW A7 : ... .. . ... ... : ... .. . ... ... : ... .. . ... : ... .. . ... : ... .. . Z30 ...
ROW A8 : ... .. . ... ... : ... .. . ... ... : --- .. . ... : ... .. C ... : ... .. . Z30 ...
ROW A9 : ... .. . ... ... : ... .. . ... ... : ... .. . ... : ... .. 0 ... : ... .. . Z30 ...
ROW AA : ... .. . ... ... : ... .. . ... ... : ... .. . ... : ... .. . ... : ... .. . Z30 ...
ROW AB : ... .. . ... ... : ... .. . ... ... : ... .. . ... : ... .. . ... : ... .. . Z30 ...
ROW AC : ... .. . ... ... : ... .. . ... ... : ... .. . ... : ... .. . ... : ... .. . Z30 ...
ROW AD : ... .. . ... ... : ... .. . ... ... : ... .. . ... : ... .. . ... : ... .. . Z30 ...
ROW AE : ... .. . ... ... : ... .. . ... ... : ... .. . ... : ... .. . ... : ... .. . Z30 ...
ROW AF : ... .. . ... ... : ... .. . ... ... : ... .. . ... : ... .. . ... : ... .. . Z30 ...
ROW B0 : ... .. . ... ... : ... .. . ... ... : C-4 00 . P80 : ... .. C ... : ... .. . Z30 ...
ROW B1 : ... .. . ... ... : ... .. . ... ... : ... .. . ... : ... .. . ... : ... .. . Z30 ...
ROW B2 : ... .. . ... ... : ... .. . ... ... : ... .. . ... : ... .. . ... : ... .. . Z30 ...
ROW B3 : ... .. . ... ... : ... .. . ... ... : ... .. . ... : ... .. . ... : ... .. . Z30 ...
ROW B4 : ... .. . ... ... : ... .. . ... ... : ... .. . ... : ... .. . ... : ... .. . Z30 ...
ROW B5 : ... .. . ... ... : ... .. . ... ... : ... .. . ... : ... .. 0 ... : ... .. . Z30 ...
ROW B6 : ... .. . ... ... : ... .. . ... ... : ... .. . ... : ... .. . ... : ... .. . Z30 ...
ROW B7 : ... .. . ... ... : ... .. . ... ... : ... .. . ... : ... .. . ... : ... .. . Z30 ...
ROW B8 : ... .. . ... ... : G-3 00 5 P80 V00 : --- .. . ... : ... .. . ... : ... .. . Z30 ...
ROW B9 : ... .. . ... ... : ... .. 3 ... V02 : ... .. . ... : ... .. . ... : ... .. . Z30 ...
ROW BA : ... .. . ... ... : ... .. 4 ... ... : ... .. . ... : ... .. . ... : ... .. . Z30 ...
ROW BB : ... .. . ... ... : ... .. 5 ... ... : ... .. . ... : ... .. . ... : ... .. . Z30 ...
ROW BC : ... .. . ... ... : ... .. . ... ... : ... .. . ... : ... .. . ... : ... .. . Z30 ...
ROW BD : ... .. . ... ... : ... .. 6 ... ... : ... .. . ... : ... .. . ... : ... .. . Z30 ...
ROW BE : ... .. . ... ... : ... .. . ... ... : ... .. . ... : ... .. . ... : ... .. . Z30 ...
ROW BF : ... .. . ... ... : ... .. . ... ... : ... .. . ... : ... .. . ... : ... .. . Z30 ...

PATTERN 03
ROW 00 : F-3 00 5 P80 V00 : D-4 00 5 P80 V00 : D-3 00 . P81 : B-# 00 0 V01 : ... .. . Z30 ...
ROW 01 : ... .. 3 ... V02 : ... .. 3 ... V02 : ... .. . ... : ... .. . ... : ... .. . Z30 ...
ROW 02 : ... .. 4 ... ... : ... .. 4 ... ... : ... .. . ... : ... .. . ... : ... .. . Z30 ...
ROW 03 : ... .. 5 ... ... : ... .. 5 ... ... : ... .. . ... : ... .. . ... : ... .. . Z30 ...
ROW 04 : ... .. . ... ... : ... .. . ... ... : ... .. . ... : ... .. . ... : ... .. . Z30 ...
ROW 05 : ... .. 6 ... ... : ... .. 6 ... ... : ... .. . ... : ... .. . ... : ... .. . Z30 ...
ROW 06 : ... .. . ... ... : ... .. . ... ... : ... .. . ... : ... .. . ... : ... .. . Z30 ...
ROW 07 : ... .. . ... ... : ... .. . ... ... : ... .. . ... : ... .. . ... : ... .. . Z30 ...
ROW 08 : ... .. . ... ... : ... .. . ... ... : --- .. . ... : ... .. . ... : ... .. . Z30 ...
ROW 09 : ... .. . ... ... : ... .. . ... ... : ... .. . ... : ... .. . ... : ... .. . Z30 ...
ROW 0A : ... .. . ... ... : ... .. . ... ... : ... .. . ... : ... .. . ... : ... .. . Z30 ...
ROW 0B : ... .. . ... ... : ... .. . ... ... : ... .. . ... : ... .. . ... : ... .. . Z30 ...
ROW 0C : ... .. . ... ... : ... .. . ... ... : ... .. . ... : ... .. . ... : ... .. . Z30 ...
ROW 0D : ... .. . ... ... : ... .. . ... ... : ... .. . ... : ... .. . ... : ... .. . Z30 ...
ROW 0E : ... .. . ... ... : ... .. . ... ... : ... .. . ... : ... .. . ... : ... .. . Z30 ...
ROW 0F : ... .. . ... ... : ... .. . ... ... : ... .. . ... : ... .. . ... : ... .. . Z30 ...
ROW 10 : ... .. . ... ... : ... .. . ... ... : G-3 00 . P80 : C-# 00 C V00 : ... .. . Z30 ...
ROW 11 : ... .. . ... ... : ... .. . ... ... : ... .. . ... : ... .. 0 ... : ... .. . Z30 ...
ROW 12 : ... .. . ... ... : ... .. . ... ... : ... .. . ... : ... .. . ... : ... .. . Z30 ...
ROW 13 : ... .. . ... ... : ... .. . ... ... : ... .. . ... : ... .. . ... : ... .. . Z30 ...
ROW 14 : ... .. . ... ... : ... .. . ... ... : ... .. . ... : ... .. . ... : ... .. . Z30 ...
ROW 15 : ... .. . ... ... : ... .. . ... ... : ... .. . ... : ... .. . ... : ... .. . Z30 ...
ROW 16 : ... .. 5 ... ... : ... .. 5 ... ... : ... .. . ... : ... .. . ... : ... .. . Z30 ...
ROW 17 : ... .. . ... ... : ... .. . ... ... : ... .. . ... : ... .. . ... : ... .. . Z30 ...
ROW 18 : ... .. . ... ... : ... .. . ... ... : --- .. . ... : ... .. . ... : ... .. . Z30 ...
ROW 19 : ... .. . ... ... : ... .. . ... ... : ... .. . ... : ... .. . ... : ... .. . Z30 ...
ROW 1A : ... .. . ... ... : ... .. . ... ... : ... .. . ... : ... .. . ... : ... .. . Z30 ...
ROW 1B : ... .. . ... ... : ... .. . ... ... : ... .. . ... : ... .. . ... : ... .. . Z30 ...
ROW 1C : ... .. 4 ... ... : ... .. 4 ... ... : ... .. . ... : ... .. . ... : ... .. . Z30 ...
ROW 1D : ... .. . ... ... : ... .. . ... ... : ... .. . ... : ... .. . ... : ... .. . Z30 ...
ROW 1E : ... .. . ... ... : ... .. . ... ... : ... .. . ... : ... .. . ... : ... .. . Z30 ...
ROW 1F : ... .. . ... ... : ... .. . ... ... : ... .. . ... : ... .. . ... : ... .. . Z30 ...
ROW 20 : ... .. . ... ... : ... .. . ... ... : B-3 00 . P7E : ... .. C ... : ... .. . Z30 ...
ROW 21 : ... .. . ... ... : ... .. . ... ... : ... .. . ... : ... .. . ... : ... .. . Z30 ...
ROW 22 : ... .. 3 ... ... : ... .. 3 ... ... : ... .. . ... : ... .. . ... : ... .. . Z30 ...
ROW 23 : ... .. . ... ... : ... .. . ... ... : ... .. . ... : ... .. . ... : ... .. . Z30 ...
ROW 24 : ... .. . ... ... : ... .. . ... ... : ... .. . ... : ... .. . ... : ... .. . Z30 ...
ROW 25 : ... .. 2 ... ... : ... .. 2 ... ... : ... .. . ... : ... .. 0 ... : ... .. . Z30 ...
ROW 26 : ... .. . ... ... : ... .. . ... ... : ... .. . ... : ... .. . ... : ... .. . Z30 ...
ROW 27 : ... .. 1 ... ... : ... .. 1 ... ... : ... .. . ... : ... .. . ... : ... .. . Z30 ...
ROW 28 : ... .. 0 ... ... : ... .. 0 ... ... : --- .. . ... : ... .. . ... : ... .. . Z30 ...
ROW 29 : ... .. . ... ... : ... .. . ... ... : ... .. . ... : ... .. . ... : ... .. . Z30 ...
ROW 2A : ... .. . ... ... : ... .. . ... ... : ... .. . ... : ... .. . ... : ... .. . Z30 ...
ROW 2B : ... .. . ... ... : ... .. . ... ... : ... .. . ... : ... .. . ... : ... .. . Z30 ...
ROW 2C : ... .. . ... ... : ... .. . ... ... : ... .. . ... : ... .. . ... : ... .. . Z30 ...
ROW 2D : ... .. . ... ... : ... .. . ... ... : ... .. . ... : ... .. . ... : ... .. . Z30 ...
ROW 2E : ... .. . ... ... : ... .. . ... ... : ... .. . ... : ... .. . ... : ... .. . Z30 ...
ROW 2F : ... .. . ... ... : ... .. . ... ... : ... .. . ... : ... .. . ... : ... .. . Z30 ...
ROW 30 : E-3 00 5 P7D V00 : C#4 00 5 P81 V00 : C#3 00 . P83 : B-# 00 0 V01 : ... .. . Z30 ...
ROW 31 : ... .. 3 ... V02 : ... .. 3 ... V02 : ... .. . ... : ... .. . ... : ... .. . Z30 ...
ROW 32 : ... .. 4 ... ... : ... .. 4 ... ... : ... .. . ... : ... .. . ... : ... .. . Z30 ...
ROW 33 : ... .. 5 ... ... : ... .. 5 ... ... : ... .. . ... : ... .. . ... : ... .. . Z30 ...
ROW 34 : ... .. . ... ... : ... .. . ... ... : ... .. . ... : ... .. . ... : ... .. . Z30 ...
ROW 35 : ... .. 6 ... ... : ... .. 6 ... ... : ... .. . ... : ... .. . ... : ... .. . Z30 ...
ROW 36 : ... .. . ... ... : ... .. . ... ... : ... .. . ... : ... .. . ... : ... .. . Z30 ...
ROW 37 : ... .. . ... ... : ... .. . ... ... : ... .. . ... : ... .. . ... : ... .. . Z30 ...
ROW 38 : ... .. . ... ... : ... .. . ... ... : --- .. . ... : ... .. . ... : ... .. . Z30 ...
ROW 39 : ... .. . ... ... : ... .. . ... ... : ... .. . ... : ... .. . ... : ... .. . Z30 ...
ROW 3A : ... .. . ... ... : ... .. . ... ... : ... .. . ... : ... .. . ... : ... .. . Z30 ...
ROW 3B : ... .. . ... ... : ... .. . ... ... : ... .. . ... : ... .. . ... : ... .. . Z30 ...
ROW 3C : ... .. . ... ... : ... .. . ... ... : ... .. . ... : ... .. . ... : ... .. . Z30 ...
ROW 3D : ... .. . ... ... : ... .. . ... ... : ... .. . ... : ... .. . ... : ... .. . Z30 ...
ROW 3E : ... .. . ... ... : ... .. . ... ... : ... .. . ... : ... .. . ... : ... .. . Z30 ...
ROW 3F : ... .. . ... ... : ... .. . ... ... : ... .. . ... : ... .. . ... : ... .. . Z30 ...
ROW 40 : ... .. . ... ... : ... .. . ... ... : F#3 00 . P7D : C-# 00 C V00 : ... .. . Z30 ...
ROW 41 : ... .. . ... ... : ... .. . ... ... : ... .. . ... : ... .. 0 ... : ... .. . Z30 ...
ROW 42 : ... .. . ... ... : ... .. . ... ... : ... .. . ... : ... .. . ... : ... .. . Z30 ...
ROW 43 : ... .. . ... ... : ... .. . ... ... : ... .. . ... : ... .. . ... : ... .. . Z30 ...
ROW 44 : ... .. . ... ... : ... .. . ... ... : ... .. . ... : ... .. . ... : ... .. . Z30 ...
ROW 45 : ... .. . ... ... : ... .. . ... ... : ... .. . ... : ... .. . ... : ... .. . Z30 ...
ROW 46 : ... .. 5 ... ... : ... .. 5 ... ... : ... .. . ... : ... .. . ... : ... .. . Z30 ...
ROW 47 : ... .. . ... ... : ... .. . ... ... : ... .. . ... : ... .. . ... : ... .. . Z30 ...
ROW 48 : ... .. . ... ... : ... .. . ... ... : --- .. . ... : ... .. C ... : ... .. . Z30 ...
ROW 49 : ... .. . ... ... : ... .. . ... ... : ... .. . ... : ... .. 0 ... : ... .. . Z30 ...
ROW 4A : ... .. . ... ... : ... .. . ... ... : ... .. . ... : ... .. . ... : ... .. . Z30 ...
ROW 4B : ... .. . ... ... : ... .. . ... ... : ... .. . ... : ... .. . ... : ... .. . Z30 ...
ROW 4C : ... .. 4 ... ... : ... .. 4 ... ... : ... .. . ... : ... .. . ... : ... .. . Z30 ...
ROW 4D : ... .. . ... ... : ... .. . ... ... : ... .. . ... : ... .. . ... : ... .. . Z30 ...
ROW 4E : ... .. . ... ... : ... .. . ... ... : ... .. . ... : ... .. . ... : ... .. . Z30 ...
ROW 4F : ... .. . ... ... : ... .. . ... ... : ... .. . ... : ... .. . ... : ... .. . Z30 ...
ROW 50 : ... .. . ... ... : ... .. . ... ... : A#3 00 . P7C : ... .. C ... : ... .. . Z30 ...
ROW 51 : ... .. . ... ... : ... .. . ... ... : ... .. . ... : ... .. . ... : ... .. . Z30 ...
ROW 52 : ... .. 3 ... ... : ... .. 3 ... ... : ... .. . ... : ... .. . ... : ... .. . Z30 ...
ROW 53 : ... .. . ... ... : ... .. . ... ... : ... .. . ... : ... .. . ... : ... .. . Z30 ...
ROW 54 : ... .. . ... ... : ... .. . ... ... : ... .. . ... : ... .. . ... : ... .. . Z30 ...
ROW 55 : ... .. 2 ... ... : ... .. 2 ... ... : ... .. . ... : ... .. 0 ... : ... .. . Z30 ...
ROW 56 : ... .. . ... ... : ... .. . ... ... : ... .. . ... : ... .. . ... : ... .. . Z30 ...
ROW 57 : ... .. 1 ... ... : ... .. 1 ... ... : ... .. . ... : ... .. . ... : ... .. . Z30 ...
ROW 58 : ... .. 0 ... ... : ... .. 0 ... ... : --- .. . ... : ... .. . ... : ... .. . Z30 ...
ROW 59 : ... .. . ... ... : ... .. . ... ... : ... .. . ... : ... .. . ... : ... .. . Z30 ...
ROW 5A : ... .. . ... ... : ... .. . ... ... : ... .. . ... : ... .. . ... : ... .. . Z30 ...
ROW 5B : ... .. . ... ... : ... .. . ... ... : ... .. . ... : ... .. . ... : ... .. . Z30 ...
ROW 5C : ... .. . ... ... : ... .. . ... ... : ... .. . ... : ... .. . ... : ... .. . Z30 ...
ROW 5D : ... .. . ... ... : ... .. . ... ... : ... .. . ... : ... .. . ... : ... .. . Z30 ...
ROW 5E : ... .. . ... ... : ... .. . ... ... : ... .. . ... : ... .. . ... : ... .. . Z30 ...
ROW 5F : ... .. . ... ... : ... .. . ... ... : ... .. . ... : ... .. . ... : ... .. . Z30 ...
ROW 60 : F-3 00 5 P80 V00 : D-4 00 5 P80 V00 : D-3 00 . P81 : B-# 00 0 V01 : ... .. . Z30 ...
ROW 61 : ... .. 3 ... V02 : ... .. 3 ... V02 : ... .. . ... : ... .. . ... : ... .. . Z30 ...
ROW 62 : ... .. 4 ... ... : ... .. 4 ... ... : ... .. . ... : ... .. . ... : ... .. . Z30 ...
ROW 63 : ... .. 5 ... ... : ... .. 5 ... ... : ... .. . ... : ... .. . ... : ... .. . Z30 ...
ROW 64 : ... .. . ... ... : ... .. . ... ... : ... .. . ... : ... .. . ... : ... .. . Z30 ...
ROW 65 : ... .. 6 ... ... : ... .. 6 ... ... : ... .. . ... : ... .. . ... : ... .. . Z30 ...
ROW 66 : ... .. . ... ... : ... .. . ... ... : ... .. . ... : ... .. . ... : ... .. . Z30 ...
ROW 67 : ... .. . ... ... : ... .. . ... ... : ... .. . ... : ... .. . ... : ... .. . Z30 ...
ROW 68 : ... .. . ... ... : ... .. . ... ... : --- .. . ... : ... .. . ... : ... .. . Z30 ...
ROW 69 : ... .. . ... ... : ... .. . ... ... : ... .. . ... : ... .. . ... : ... .. . Z30 ...
ROW 6A : ... .. . ... ... : ... .. . ... ... : ... .. . ... : ... .. . ... : ... .. . Z30 ...
ROW 6B : ... .. . ... ... : ... .. . ... ... : ... .. . ... : ... .. . ... : ... .. . Z30 ...
ROW 6C : ... .. . ... ... : ... .. . ... ... : ... .. . ... : ... .. . ... : ... .. . Z30 ...
ROW 6D : ... .. . ... ... : ... .. . ... ... : ... .. . ... : ... .. . ... : ... .. . Z30 ...
ROW 6E : ... .. . ... ... : ... .. . ... ... : ... .. . ... : ... .. . ... : ... .. . Z30 ...
ROW 6F : ... .. . ... ... : ... .. . ... ... : ... .. . ... : ... .. . ... : ... .. . Z30 ...
ROW 70 : ... .. . ... ... : ... .. . ... ... : G-3 00 . P80 : C-# 00 C V00 : ... .. . Z30 ...
ROW 71 : ... .. . ... ... : ... .. . ... ... : ... .. . ... : ... .. 0 ... : ... .. . Z30 ...
ROW 72 : ... .. . ... ... : ... .. . ... ... : ... .. . ... : ... .. . ... : ... .. . Z30 ...
ROW 73 : ... .. . ... ... : ... .. . ... ... : ... .. . ... : ... .. . ... : ... .. . Z30 ...
ROW 74 : ... .. . ... ... : ... .. . ... ... : ... .. . ... : ... .. . ... : ... .. . Z30 ...
ROW 75 : ... .. . ... ... : ... .. . ... ... : ... .. . ... : ... .. . ... : ... .. . Z30 ...
ROW 76 : ... .. 5 ... ... : ... .. 5 ... ... : ... .. . ... : ... .. . ... : ... .. . Z30 ...
ROW 77 : ... .. . ... ... : ... .. . ... ... : ... .. . ... : ... .. . ... : ... .. . Z30 ...
ROW 78 : ... .. . ... ... : ... .. . ... ... : --- .. . ... : ... .. . ... : ... .. . Z30 ...
ROW 79 : ... .. . ... ... : ... .. . ... ... : ... .. . ... : ... .. . ... : ... .. . Z30 ...
ROW 7A : ... .. . ... ... : ... .. . ... ... : ... .. . ... : ... .. . ... : ... .. . Z30 ...
ROW 7B : ... .. . ... ... : ... .. . ... ... : ... .. . ... : ... .. . ... : ... .. . Z30 ...
ROW 7C : ... .. 4 ... ... : ... .. 4 ... ... : ... .. . ... : ... .. . ... : ... .. . Z30 ...
ROW 7D : ... .. . ... ... : ... .. . ... ... : ... .. . ... : ... .. . ... : ... .. . Z30 ...
ROW 7E : ... .. . ... ... : ... .. . ... ... : ... .. . ... : ... .. . ... : ... .. . Z30 ...
ROW 7F : ... .. . ... ... : ... .. . ... ... : ... .. . ... : ... .. . ... : ... .. . Z30 ...
ROW 80 : ... .. . ... ... : ... .. . ... ... : B-3 00 . P7E : ... .. C ... : ... .. . Z30 ...
ROW 81 : ... .. . ... ... : ... .. . ... ... : ... .. . ... : ... .. . ... : ... .. . Z30 ...
ROW 82 : ... .. 3 ... ... : ... .. 3 ... ... : ... .. . ... : ... .. . ... : ... .. . Z30 ...
ROW 83 : ... .. . ... ... : ... .. . ... ... : ... .. . ... : ... .. . ... : ... .. . Z30 ...
ROW 84 : ... .. . ... ... : ... .. . ... ... : ... .. . ... : ... .. . ... : ... .. . Z30 ...
ROW 85 : ... .. 2 ... ... : ... .. 2 ... ... : ... .. . ... : ... .. 0 ... : ... .. . Z30 ...
ROW 86 : ... .. . ... ... : ... .. . ... ... : ... .. . ... : ... .. . ... : ... .. . Z30 ...
ROW 87 : ... .. 1 ... ... : ... .. 1 ... ... : ... .. . ... : ... .. . ... : ... .. . Z30 ...
ROW 88 : ... .. 0 ... ... : ... .. 0 ... ... : --- .. . ... : ... .. . ... : ... .. . Z30 ...
ROW 89 : ... .. . ... ... : ... .. . ... ... : ... .. . ... : ... .. . ... : ... .. . Z30 ...
ROW 8A : ... .. . ... ... : ... .. . ... ... : ... .. . ... : ... .. . ... : ... .. . Z30 ...
ROW 8B : ... .. . ... ... : ... .. . ... ... : ... .. . ... : ... .. . ... : ... .. . Z30 ...
ROW 8C : ... .. . ... ... : ... .. . ... ... : ... .. . ... : ... .. . ... : ... .. . Z30 ...
ROW 8D : ... .. . ... ... : ... .. . ... ... : ... .. . ... : ... .. . ... : ... .. . Z30 ...
ROW 8E : ... .. . ... ... : ... .. . ... ... : ... .. . ... : ... .. . ... : ... .. . Z30 ...
ROW 8F : ... .. . ... ... : ... .. . ... ... : ... .. . ... : ... .. . ... : ... .. . Z30 ...
ROW 90 : ... .. . ... ... : ... .. . ... ... : B-2 00 . P7D : B-# 00 0 V01 : ... .. . Z30 ...
ROW 91 : ... .. . ... ... : ... .. . ... ... : ... .. . ... : ... .. . ... : ... .. . Z30 ...
ROW 92 : ... .. . ... ... : ... .. . ... ... : ... .. . ... : ... .. . ... : ... .. . Z30 ...
ROW 93 : ... .. . ... ... : ... .. . ... ... : ... .. . ... : ... .. . ... : ... .. . Z30 ...
ROW 94 : ... .. . ... ... : ... .. . ... ... : ... .. . ... : ... .. . ... : ... .. . Z30 ...
ROW 95 : ... .. . ... ... : ... .. . ... ... : ... .. . ... : ... .. . ... : ... .. . Z30 ...
ROW 96 : ... .. . ... ... : ... .. . ... ... : ... .. . ... : ... .. . ... : ... .. . Z30 ...
ROW 97 : ... .. . ... ... : ... .. . ... ... : ... .. . ... : ... .. . ... : ... .. . Z30 ...
ROW 98 : ... .. . ... ... : G-3 00 5 P80 V00 : --- .. . ... : ... .. . ... : ... .. . Z30 ...
ROW 99 : ... .. . ... ... : ... .. 3 ... V02 : ... .. . ... : ... .. . ... : ... .. . Z30 ...
ROW 9A : ... .. . ... ... : ... .. 4 ... ... : ... .. . ... : ... .. . ... : ... .. . Z30 ...
ROW 9B : ... .. . ... ... : ... .. 5 ... ... : ... .. . ... : ... .. . ... : ... .. . Z30 ...
ROW 9C : ... .. . ... ... : ... .. . ... ... : ... .. . ... : ... .. . ... : ... .. . Z30 ...
ROW 9D : ... .. . ... ... : ... .. 6 ... ... : ... .. . ... : ... .. . ... : ... .. . Z30 ...
ROW 9E : ... .. . ... ... : ... .. . ... ... : ... .. . ... : ... .. . ... : ... .. . Z30 ...
ROW 9F : ... .. . ... ... : ... .. . ... ... : ... .. . ... : ... .. . ... : ... .. . Z30 ...
ROW A0 : ... .. . ... ... : A-3 00 5 P7E V00 : G-3 00 . P80 : C-# 00 C V00 : ... .. . Z30 ...
ROW A1 : ... .. . ... ... : ... .. 3 ... V02 : ... .. . ... : ... .. 0 ... : ... .. . Z30 ...
ROW A2 : ... .. . ... ... : ... .. 4 ... ... : ... .. . ... : ... .. . ... : ... .. . Z30 ...
ROW A3 : ... .. . ... ... : ... .. 5 ... ... : ... .. . ... : ... .. . ... : ... .. . Z30 ...
ROW A4 : ... .. . ... ... : ... .. . ... ... : ... .. . ... : ... .. . ... : ... .. . Z30 ...
ROW A5 : ... .. . ... ... : ... .. 6 ... ... : ... .. . ... : ... .. . ... : ... .. . Z30 ...
ROW A6 : ... .. . ... ... : ... .. . ... ... : ... .. . ... : ... .. . ... : ... .. . Z30 ...
ROW A7 : ... .. . ... ... : ... .. . ... ... : ... .. . ... : ... .. . ... : ... .. . Z30 ...
ROW A8 : ... .. . ... ... : B-3 00 5 P7E V00 : --- .. . ... : ... .. C ... : ... .. . Z30 ...
ROW A9 : ... .. . ... ... : ... .. 3 ... V02 : ... .. . ... : ... .. 0 ... : ... .. . Z30 ...
ROW AA : ... .. . ... ... : ... .. 4 ... ... : ... .. . ... : ... .. . ... : ... .. . Z30 ...
ROW AB : ... .. . ... ... : ... .. 5 ... ... : ... .. . ... : ... .. . ... : ... .. . Z30 ...
ROW AC : ... .. . ... ... : ... .. . ... ... : ... .. . ... : ... .. . ... : ... .. . Z30 ...
ROW AD : ... .. . ... ... : ... .. 6 ... ... : ... .. . ... : ... .. . ... : ... .. . Z30 ...
ROW AE : ... .. . ... ... : ... .. . ... ... : ... .. . ... : ... .. . ... : ... .. . Z30 ...
ROW AF : ... .. . ... ... : ... .. . ... ... : ... .. . ... : ... .. . ... : ... .. . Z30 ...
ROW B0 : ... .. . ... ... : C-4 00 5 P80 V00 : B-3 00 . P7E : ... .. C ... : ... .. . Z30 ...
ROW B1 : ... .. . ... ... : ... .. 3 ... V02 : ... .. . ... : ... .. . ... : ... .. . Z30 ...
ROW B2 : ... .. . ... ... : ... .. 4 ... ... : ... .. . ... : ... .. . ... : ... .. . Z30 ...
ROW B3 : ... .. . ... ... : ... .. 5 ... ... : ... .. . ... : ... .. . ... : ... .. . Z30 ...
ROW B4 : ... .. . ... ... : ... .. . ... ... : ... .. . ... : ... .. . ... : ... .. . Z30 ...
ROW B5 : ... .. . ... ... : ... .. 6 ... ... : ... .. . ... : ... .. 0 ... : ... .. . Z30 ...
ROW B6 : ... .. . ... ... : ... .. . ... ... : ... .. . ... : ... .. . ... : ... .. . Z30 ...
ROW B7 : ... .. . ... ... : ... .. . ... ... : ... .. . ... : ... .. . ... : ... .. . Z30 ...
ROW B8 : ... .. . ... ... : C#4 00 5 P81 V00 : --- .. . ... : ... .. . ... : ... .. . Z30 ...
ROW B9 : ... .. . ... ... : ... .. 3 ... V02 : ... .. . ... : ... .. . ... : ... .. . Z30 ...
ROW BA : ... .. . ... ... : ... .. 4 ... ... : ... .. . ... : ... .. . ... : ... .. . Z30 ...
ROW BB : ... .. . ... ... : ... .. 5 ... ... : ... .. . ... : ... .. . ... : ... .. . Z30 ...
ROW BC : ... .. . ... ... : ... .. . ... ... : ... .. . ... : ... .. . ... : ... .. . Z30 ...
ROW BD : ... .. . ... ... : ... .. 6 ... ... : ... .. . ... : ... .. . ... : ... .. . Z30 ...
ROW BE : ... .. . ... ... : ... .. . ... ... : ... .. . ... : ... .. . ... : ... .. . Z30 ...
ROW BF : ... .. . ... ... : ... .. . ... ... : ... .. . ... : ... .. . ... : ... .. . Z30 ...

PATTERN 04
ROW 00 : ... .. 5 ... V00 : D-4 00 5 P80 V00 : D-3 00 . P81 : B-# 00 0 V01 : ... .. . Z30 ...
ROW 01 : ... .. 3 ... V02 : ... .. 3 ... V02 : ... .. . ... : ... .. . ... : ... .. . Z30 ...
ROW 02 : ... .. 4 ... ... : ... .. 4 ... ... : ... .. . ... : ... .. . ... : ... .. . Z30 ...
ROW 03 : ... .. 5 ... ... : ... .. 5 ... ... : ... .. . ... : ... .. . ... : ... .. . Z30 ...
ROW 04 : ... .. . ... ... : ... .. . ... ... : ... .. . ... : ... .. . ... : ... .. . Z30 ...
ROW 05 : ... .. 6 ... ... : ... .. 6 ... ... : ... .. . ... : ... .. . ... : ... .. . Z30 ...
ROW 06 : ... .. . ... ... : ... .. . ... ... : ... .. . ... : ... .. . ... : ... .. . Z30 ...
ROW 07 : ... .. . ... ... : ... .. . ... ... : ... .. . ... : ... .. . ... : ... .. . Z30 ...
ROW 08 : ... .. . ... ... : ... .. . ... ... : --- .. . ... : ... .. . ... : ... .. . Z30 ...
ROW 09 : ... .. . ... ... : ... .. . ... ... : ... .. . ... : ... .. . ... : ... .. . Z30 ...
ROW 0A : ... .. . ... ... : ... .. . ... ... : ... .. . ... : ... .. . ... : ... .. . Z30 ...
ROW 0B : ... .. . ... ... : ... .. . ... ... : ... .. . ... : ... .. . ... : ... .. . Z30 ...
ROW 0C : ... .. . ... ... : ... .. . ... ... : ... .. . ... : ... .. . ... : ... .. . Z30 ...
ROW 0D : ... .. . ... ... : ... .. . ... ... : ... .. . ... : ... .. . ... : ... .. . Z30 ...
ROW 0E : ... .. . ... ... : ... .. . ... ... : ... .. . ... : ... .. . ... : ... .. . Z30 ...
ROW 0F : ... .. . ... ... : ... .. . ... ... : ... .. . ... : ... .. . ... : ... .. . Z30 ...
ROW 10 : ... .. . ... ... : ... .. . ... ... : G-3 00 . P80 : C-# 00 C V00 : ... .. . Z30 ...
ROW 11 : ... .. . ... ... : ... .. . ... ... : ... .. . ... : ... .. 0 ... : ... .. . Z30 ...
ROW 12 : ... .. . ... ... : ... .. . ... ... : ... .. . ... : ... .. . ... : ... .. . Z30 ...
ROW 13 : ... .. . ... ... : ... .. . ... ... : ... .. . ... : ... .. . ... : ... .. . Z30 ...
ROW 14 : ... .. . ... ... : ... .. . ... ... : ... .. . ... : ... .. . ... : ... .. . Z30 ...
ROW 15 : ... .. . ... ... : ... .. . ... ... : ... .. . ... : ... .. . ... : ... .. . Z30 ...
ROW 16 : ... .. 5 ... ... : ... .. 5 ... ... : ... .. . ... : ... .. . ... : ... .. . Z30 ...
ROW 17 : ... .. . ... ... : ... .. . ... ... : ... .. . ... : ... .. . ... : ... .. . Z30 ...
ROW 18 : ... .. . ... ... : ... .. . ... ... : --- .. . ... : ... .. . ... : ... .. . Z30 ...
ROW 19 : ... .. . ... ... : ... .. . ... ... : ... .. . ... : ... .. . ... : ... .. . Z30 ...
ROW 1A : ... .. . ... ... : ... .. . ... ... : ... .. . ... : ... .. . ... : ... .. . Z30 ...
ROW 1B : ... .. . ... ... : ... .. . ... ... : ... .. . ... : ... .. . ... : ... .. . Z30 ...
ROW 1C : ... .. 4 ... ... : ... .. 4 ... ... : ... .. . ... : ... .. . ... : ... .. . Z30 ...
ROW 1D : ... .. . ... ... : ... .. . ... ... : ... .. . ... : ... .. . ... : ... .. . Z30 ...
ROW 1E : ... .. . ... ... : ... .. . ... ... : ... .. . ... : ... .. . ... : ... .. . Z30 ...
ROW 1F : ... .. . ... ... : ... .. . ... ... : ... .. . ... : ... .. . ... : ... .. . Z30 ...
ROW 20 : ... .. . ... ... : ... .. . ... ... : B-3 00 . P7E : ... .. C ... : ... .. . Z30 ...
ROW 21 : ... .. . ... ... : ... .. . ... ... : ... .. . ... : ... .. . ... : ... .. . Z30 ...
ROW 22 : ... .. 3 ... ... : ... .. 3 ... ... : ... .. . ... : ... .. . ... : ... .. . Z30 ...
ROW 23 : ... .. . ... ... : ... .. . ... ... : ... .. . ... : ... .. . ... : ... .. . Z30 ...
ROW 24 : ... .. . ... ... : ... .. . ... ... : ... .. . ... : ... .. . ... : ... .. . Z30 ...
ROW 25 : ... .. 2 ... ... : ... .. 2 ... ... : ... .. . ... : ... .. 0 ... : ... .. . Z30 ...
ROW 26 : ... .. . ... ... : ... .. . ... ... : ... .. . ... : ... .. . ... : ... .. . Z30 ...
ROW 27 : ... .. 1 ... ... : ... .. 1 ... ... : ... .. . ... : ... .. . ... : ... .. . Z30 ...
ROW 28 : ... .. 0 ... ... : ... .. 0 ... ... : --- .. . ... : ... .. . ... : ... .. . Z30 ...
ROW 29 : ... .. . ... ... : ... .. . ... ... : ... .. . ... : ... .. . ... : ... .. . Z30 ...
ROW 2A : ... .. . ... ... : ... .. . ... ... : ... .. . ... : ... .. . ... : ... .. . Z30 ...
ROW 2B : ... .. . ... ... : ... .. . ... ... : ... .. . ... : ... .. . ... : ... .. . Z30 ...
ROW 2C : ... .. . ... ... : ... .. . ... ... : ... .. . ... : ... .. . ... : ... .. . Z30 ...
ROW 2D : ... .. . ... ... : ... .. . ... ... : ... .. . ... : ... .. . ... : ... .. . Z30 ...
ROW 2E : ... .. . ... ... : ... .. . ... ... : ... .. . ... : ... .. . ... : ... .. . Z30 ...
ROW 2F : ... .. . ... ... : ... .. . ... ... : ... .. . ... : ... .. . ... : ... .. . Z30 ...
ROW 30 : B-2 00 5 P7D V00 : G-3 00 5 P80 V00 : B-2 00 . P7D : B-# 00 0 V01 : ... .. . Z30 ...
ROW 31 : ... .. 3 ... V02 : ... .. 3 ... V02 : ... .. . ... : ... .. . ... : ... .. . Z30 ...
ROW 32 : ... .. 4 ... ... : ... .. 4 ... ... : ... .. . ... : ... .. . ... : ... .. . Z30 ...
ROW 33 : ... .. 5 ... ... : ... .. 5 ... ... : ... .. . ... : ... .. . ... : ... .. . Z30 ...
ROW 34 : ... .. . ... ... : ... .. . ... ... : ... .. . ... : ... .. . ... : ... .. . Z30 ...
ROW 35 : ... .. 6 ... ... : ... .. 6 ... ... : ... .. . ... : ... .. . ... : ... .. . Z30 ...
ROW 36 : ... .. . ... ... : ... .. . ... ... : ... .. . ... : ... .. . ... : ... .. . Z30 ...
ROW 37 : ... .. . ... ... : ... .. . ... ... : ... .. . ... : ... .. . ... : ... .. . Z30 ...
ROW 38 : ... .. . ... ... : ... .. . ... ... : --- .. . ... : ... .. . ... : ... .. . Z30 ...
ROW 39 : ... .. . ... ... : ... .. . ... ... : ... .. . ... : ... .. . ... : ... .. . Z30 ...
ROW 3A : ... .. . ... ... : ... .. . ... ... : ... .. . ... : ... .. . ... : ... .. . Z30 ...
ROW 3B : ... .. . ... ... : ... .. . ... ... : ... .. . ... : ... .. . ... : ... .. . Z30 ...
ROW 3C : ... .. . ... ... : ... .. . ... ... : ... .. . ... : ... .. . ... : ... .. . Z30 ...
ROW 3D : ... .. . ... ... : ... .. . ... ... : ... .. . ... : ... .. . ... : ... .. . Z30 ...
ROW 3E : ... .. . ... ... : ... .. . ... ... : ... .. . ... : ... .. . ... : ... .. . Z30 ...
ROW 3F : ... .. . ... ... : ... .. . ... ... : ... .. . ... : ... .. . ... : ... .. . Z30 ...
ROW 40 : ... .. . ... ... : ... .. . ... ... : G-3 00 . P80 : C-# 00 C V00 : ... .. . Z30 ...
ROW 41 : ... .. . ... ... : ... .. . ... ... : ... .. . ... : ... .. 0 ... : ... .. . Z30 ...
ROW 42 : ... .. . ... ... : ... .. . ... ... : ... .. . ... : ... .. . ... : ... .. . Z30 ...
ROW 43 : ... .. . ... ... : ... .. . ... ... : ... .. . ... : ... .. . ... : ... .. . Z30 ...
ROW 44 : ... .. . ... ... : ... .. . ... ... : ... .. . ... : ... .. . ... : ... .. . Z30 ...
ROW 45 : ... .. . ... ... : ... .. . ... ... : ... .. . ... : ... .. . ... : ... .. . Z30 ...
ROW 46 : ... .. 5 ... ... : ... .. 5 ... ... : ... .. . ... : ... .. . ... : ... .. . Z30 ...
ROW 47 : ... .. . ... ... : ... .. . ... ... : ... .. . ... : ... .. . ... : ... .. . Z30 ...
ROW 48 : ... .. . ... ... : ... .. . ... ... : --- .. . ... : ... .. C ... : ... .. . Z30 ...
ROW 49 : ... .. . ... ... : ... .. . ... ... : ... .. . ... : ... .. 0 ... : ... .. . Z30 ...
ROW 4A : ... .. . ... ... : ... .. . ... ... : ... .. . ... : ... .. . ... : ... .. . Z30 ...
ROW 4B : ... .. . ... ... : ... .. . ... ... : ... .. . ... : ... .. . ... : ... .. . Z30 ...
ROW 4C : ... .. 4 ... ... : ... .. 4 ... ... : ... .. . ... : ... .. . ... : ... .. . Z30 ...
ROW 4D : ... .. . ... ... : ... .. . ... ... : ... .. . ... : ... .. . ... : ... .. . Z30 ...
ROW 4E : ... .. . ... ... : ... .. . ... ... : ... .. . ... : ... .. . ... : ... .. . Z30 ...
ROW 4F : ... .. . ... ... : ... .. . ... ... : ... .. . ... : ... .. . ... : ... .. . Z30 ...
ROW 50 : A-3 00 5 P7E V00 : F-4 00 5 P80 V00 : B-3 00 . P7E : ... .. C ... : ... .. . Z30 ...
ROW 51 : ... .. 3 ... V02 : ... .. 3 ... V02 : ... .. . ... : ... .. . ... : ... .. . Z30 ...
ROW 52 : ... .. 4 ... ... : ... .. 4 ... ... : ... .. . ... : ... .. . ... : ... .. . Z30 ...
ROW 53 : ... .. 5 ... ... : ... .. 5 ... ... : ... .. . ... : ... .. . ... : ... .. . Z30 ...
ROW 54 : ... .. . ... ... : ... .. . ... ... : ... .. . ... : ... .. . ... : ... .. . Z30 ...
ROW 55 : ... .. 6 ... ... : ... .. 6 ... ... : ... .. . ... : ... .. 0 ... : ... .. . Z30 ...
ROW 56 : ... .. . ... ... : ... .. . ... ... : ... .. . ... : ... .. . ... : ... .. . Z30 ...
ROW 57 : ... .. . ... ... : ... .. . ... ... : ... .. . ... : ... .. . ... : ... .. . Z30 ...
ROW 58 : ... .. . ... ... : ... .. . ... ... : --- .. . ... : ... .. . ... : ... .. . Z30 ...
ROW 59 : ... .. . ... ... : ... .. . ... ... : ... .. . ... : ... .. . ... : ... .. . Z30 ...
ROW 5A : ... .. . ... ... : ... .. . ... ... : ... .. . ... : ... .. . ... : ... .. . Z30 ...
ROW 5B : ... .. . ... ... : ... .. . ... ... : ... .. . ... : ... .. . ... : ... .. . Z30 ...
ROW 5C : ... .. . ... ... : ... .. . ... ... : ... .. . ... : ... .. . ... : ... .. . Z30 ...
ROW 5D : ... .. . ... ... : ... .. . ... ... : ... .. . ... : ... .. . ... : ... .. . Z30 ...
ROW 5E : ... .. . ... ... : ... .. . ... ... : ... .. . ... : ... .. . ... : ... .. . Z30 ...
ROW 5F : ... .. . ... ... : ... .. . ... ... : ... .. . ... : ... .. . ... : ... .. . Z30 ...
ROW 60 : G-3 00 5 P80 V00 : E-4 00 5 P7F V00 : C-3 00 . P80 : B-# 00 0 V01 : ... .. . Z30 ...
ROW 61 : ... .. 3 ... V02 : ... .. 3 ... V02 : ... .. . ... : ... .. . ... : ... .. . Z30 ...
ROW 62 : ... .. 4 ... ... : ... .. 4 ... ... : ... .. . ... : ... .. . ... : ... .. . Z30 ...
ROW 63 : ... .. 5 ... ... : ... .. 5 ... ... : ... .. . ... : ... .. . ... : ... .. . Z30 ...
ROW 64 : ... .. . ... ... : ... .. . ... ... : ... .. . ... : ... .. . ... : ... .. . Z30 ...
ROW 65 : ... .. 6 ... ... : ... .. 6 ... ... : ... .. . ... : ... .. . ... : ... .. . Z30 ...
ROW 66 : ... .. . ... ... : ... .. . ... ... : ... .. . ... : ... .. . ... : ... .. . Z30 ...
ROW 67 : ... .. . ... ... : ... .. . ... ... : ... .. . ... : ... .. . ... : ... .. . Z30 ...
ROW 68 : ... .. . ... ... : ... .. . ... ... : --- .. . ... : ... .. . ... : ... .. . Z30 ...
ROW 69 : ... .. . ... ... : ... .. . ... ... : ... .. . ... : ... .. . ... : ... .. . Z30 ...
ROW 6A : ... .. . ... ... : ... .. . ... ... : ... .. . ... : ... .. . ... : ... .. . Z30 ...
ROW 6B : ... .. . ... ... : ... .. . ... ... : ... .. . ... : ... .. . ... : ... .. . Z30 ...
ROW 6C : ... .. . ... ... : ... .. . ... ... : ... .. . ... : ... .. . ... : ... .. . Z30 ...
ROW 6D : ... .. . ... ... : ... .. . ... ... : ... .. . ... : ... .. . ... : ... .. . Z30 ...
ROW 6E : ... .. . ... ... : ... .. . ... ... : ... .. . ... : ... .. . ... : ... .. . Z30 ...
ROW 6F : ... .. . ... ... : ... .. . ... ... : ... .. . ... : ... .. . ... : ... .. . Z30 ...
ROW 70 : ... .. . ... ... : ... .. . ... ... : G-3 00 . P80 : C-# 00 C V00 : ... .. . Z30 ...
ROW 71 : ... .. . ... ... : ... .. . ... ... : ... .. . ... : ... .. 0 ... : ... .. . Z30 ...
ROW 72 : ... .. . ... ... : ... .. . ... ... : ... .. . ... : ... .. . ... : ... .. . Z30 ...
ROW 73 : ... .. . ... ... : ... .. . ... ... : ... .. . ... : ... .. . ... : ... .. . Z30 ...
ROW 74 : ... .. . ... ... : ... .. . ... ... : ... .. . ... : ... .. . ... : ... .. . Z30 ...
ROW 75 : ... .. . ... ... : ... .. . ... ... : ... .. . ... : ... .. . ... : ... .. . Z30 ...
ROW 76 : ... .. 5 ... ... : ... .. 5 ... ... : ... .. . ... : ... .. . ... : ... .. . Z30 ...
ROW 77 : ... .. . ... ... : ... .. . ... ... : ... .. . ... : ... .. . ... : ... .. . Z30 ...
ROW 78 : ... .. . ... ... : ... .. . ... ... : --- .. . ... : ... .. . ... : ... .. . Z30 ...
ROW 79 : ... .. . ... ... : ... .. . ... ... : ... .. . ... : ... .. . ... : ... .. . Z30 ...
ROW 7A : ... .. . ... ... : ... .. . ... ... : ... .. . ... : ... .. . ... : ... .. . Z30 ...
ROW 7B : ... .. . ... ... : ... .. . ... ... : ... .. . ... : ... .. . ... : ... .. . Z30 ...
ROW 7C : ... .. 4 ... ... : ... .. 4 ... ... : ... .. . ... : ... .. . ... : ... .. . Z30 ...
ROW 7D : ... .. . ... ... : ... .. . ... ... : ... .. . ... : ... .. . ... : ... .. . Z30 ...
ROW 7E : ... .. . ... ... : ... .. . ... ... : ... .. . ... : ... .. . ... : ... .. . Z30 ...
ROW 7F : ... .. . ... ... : ... .. . ... ... : ... .. . ... : ... .. . ... : ... .. . Z30 ...
ROW 80 : ... .. . ... ... : ... .. . ... ... : C-4 00 . P80 : ... .. C ... : ... .. . Z30 ...
ROW 81 : ... .. . ... ... : ... .. . ... ... : ... .. . ... : ... .. . ... : ... .. . Z30 ...
ROW 82 : ... .. 3 ... ... : ... .. 3 ... ... : ... .. . ... : ... .. . ... : ... .. . Z30 ...
ROW 83 : ... .. . ... ... : ... .. . ... ... : ... .. . ... : ... .. . ... : ... .. . Z30 ...
ROW 84 : ... .. . ... ... : ... .. . ... ... : ... .. . ... : ... .. . ... : ... .. . Z30 ...
ROW 85 : ... .. 2 ... ... : ... .. 2 ... ... : ... .. . ... : ... .. 0 ... : ... .. . Z30 ...
ROW 86 : ... .. . ... ... : ... .. . ... ... : ... .. . ... : ... .. . ... : ... .. . Z30 ...
ROW 87 : ... .. 1 ... ... : ... .. 1 ... ... : ... .. . ... : ... .. . ... : ... .. . Z30 ...
ROW 88 : ... .. 0 ... ... : ... .. 0 ... ... : --- .. . ... : ... .. . ... : ... .. . Z30 ...
ROW 89 : ... .. . ... ... : ... .. . ... ... : ... .. . ... : ... .. . ... : ... .. . Z30 ...
ROW 8A : ... .. . ... ... : ... .. . ... ... : ... .. . ... : ... .. . ... : ... .. . Z30 ...
ROW 8B : ... .. . ... ... : ... .. . ... ... : ... .. . ... : ... .. . ... : ... .. . Z30 ...
ROW 8C : ... .. . ... ... : ... .. . ... ... : ... .. . ... : ... .. . ... : ... .. . Z30 ...
ROW 8D : ... .. . ... ... : ... .. . ... ... : ... .. . ... : ... .. . ... : ... .. . Z30 ...
ROW 8E : ... .. . ... ... : ... .. . ... ... : ... .. . ... : ... .. . ... : ... .. . Z30 ...
ROW 8F : ... .. . ... ... : ... .. . ... ... : ... .. . ... : ... .. . ... : ... .. . Z30 ...
ROW 90 : ... .. . ... ... : ... .. . ... ... : G-2 00 . P81 : B-# 00 0 V01 : ... .. . Z30 ...
ROW 91 : ... .. . ... ... : ... .. . ... ... : ... .. . ... : ... .. . ... : ... .. . Z30 ...
ROW 92 : ... .. . ... ... : ... .. . ... ... : ... .. . ... : ... .. . ... : ... .. . Z30 ...
ROW 93 : ... .. . ... ... : ... .. . ... ... : ... .. . ... : ... .. . ... : ... .. . Z30 ...
ROW 94 : ... .. . ... ... : ... .. . ... ... : ... .. . ... : ... .. . ... : ... .. . Z30 ...
ROW 95 : ... .. . ... ... : ... .. . ... ... : ... .. . ... : ... .. . ... : ... .. . Z30 ...
ROW 96 : ... .. . ... ... : ... .. . ... ... : ... .. . ... : ... .. . ... : ... .. . Z30 ...
ROW 97 : ... .. . ... ... : ... .. . ... ... : ... .. . ... : ... .. . ... : ... .. . Z30 ...
ROW 98 : ... .. . ... ... : ... .. . ... ... : --- .. . ... : ... .. . ... : ... .. . Z30 ...
ROW 99 : ... .. . ... ... : ... .. . ... ... : ... .. . ... : ... .. . ... : ... .. . Z30 ...
ROW 9A : ... .. . ... ... : ... .. . ... ... : ... .. . ... : ... .. . ... : ... .. . Z30 ...
ROW 9B : ... .. . ... ... : ... .. . ... ... : ... .. . ... : ... .. . ... : ... .. . Z30 ...
ROW 9C : ... .. . ... ... : ... .. . ... ... : ... .. . ... : ... .. . ... : ... .. . Z30 ...
ROW 9D : ... .. . ... ... : ... .. . ... ... : ... .. . ... : ... .. . ... : ... .. . Z30 ...
ROW 9E : ... .. . ... ... : ... .. . ... ... : ... .. . ... : ... .. . ... : ... .. . Z30 ...
ROW 9F : ... .. . ... ... : ... .. . ... ... : ... .. . ... : ... .. . ... : ... .. . Z30 ...
ROW A0 : ... .. . ... ... : ... .. . ... ... : G-3 00 . P80 : C-# 00 C V00 : ... .. . Z30 ...
ROW A1 : ... .. . ... ... : ... .. . ... ... : ... .. . ... : ... .. 0 ... : ... .. . Z30 ...
ROW A2 : ... .. . ... ... : ... .. . ... ... : ... .. . ... : ... .. . ... : ... .. . Z30 ...
ROW A3 : ... .. . ... ... : ... .. . ... ... : ... .. . ... : ... .. . ... : ... .. . Z30 ...
ROW A4 : ... .. . ... ... : ... .. . ... ... : ... .. . ... : ... .. . ... : ... .. . Z30 ...
ROW A5 : ... .. . ... ... : ... .. . ... ... : ... .. . ... : ... .. . ... : ... .. . Z30 ...
ROW A6 : ... .. . ... ... : ... .. . ... ... : ... .. . ... : ... .. . ... : ... .. . Z30 ...
ROW A7 : ... .. . ... ... : ... .. . ... ... : ... .. . ... : ... .. . ... : ... .. . Z30 ...
ROW A8 : ... .. . ... ... : ... .. . ... ... : --- .. . ... : ... .. C ... : ... .. . Z30 ...
ROW A9 : ... .. . ... ... : ... .. . ... ... : ... .. . ... : ... .. 0 ... : ... .. . Z30 ...
ROW AA : ... .. . ... ... : ... .. . ... ... : ... .. . ... : ... .. . ... : ... .. . Z30 ...
ROW AB : ... .. . ... ... : ... .. . ... ... : ... .. . ... : ... .. . ... : ... .. . Z30 ...
ROW AC : ... .. . ... ... : ... .. . ... ... : ... .. . ... : ... .. . ... : ... .. . Z30 ...
ROW AD : ... .. . ... ... : ... .. . ... ... : ... .. . ... : ... .. . ... : ... .. . Z30 ...
ROW AE : ... .. . ... ... : ... .. . ... ... : ... .. . ... : ... .. . ... : ... .. . Z30 ...
ROW AF : ... .. . ... ... : ... .. . ... ... : ... .. . ... : ... .. . ... : ... .. . Z30 ...
ROW B0 : ... .. . ... ... : ... .. . ... ... : C-4 00 . P80 : ... .. C ... : ... .. . Z30 ...
ROW B1 : ... .. . ... ... : ... .. . ... ... : ... .. . ... : ... .. . ... : ... .. . Z30 ...
ROW B2 : ... .. . ... ... : ... .. . ... ... : ... .. . ... : ... .. . ... : ... .. . Z30 ...
ROW B3 : ... .. . ... ... : ... .. . ... ... : ... .. . ... : ... .. . ... : ... .. . Z30 ...
ROW B4 : ... .. . ... ... : ... .. . ... ... : ... .. . ... : ... .. . ... : ... .. . Z30 ...
ROW B5 : ... .. . ... ... : ... .. . ... ... : ... .. . ... : ... .. 0 ... : ... .. . Z30 ...
ROW B6 : ... .. . ... ... : ... .. . ... ... : ... .. . ... : ... .. . ... : ... .. . Z30 ...
ROW B7 : ... .. . ... ... : ... .. . ... ... : ... .. . ... : ... .. . ... : ... .. . Z30 ...
ROW B8 : ... .. . ... ... : G-3 00 5 P80 V00 : --- .. . ... : ... .. . ... : ... .. . Z30 ...
ROW B9 : ... .. . ... ... : ... .. 3 ... V02 : ... .. . ... : ... .. . ... : ... .. . Z30 ...
ROW BA : ... .. . ... ... : ... .. 4 ... ... : ... .. . ... : ... .. . ... : ... .. . Z30 ...
ROW BB : ... .. . ... ... : ... .. 5 ... ... : ... .. . ... : ... .. . ... : ... .. . Z30 ...
ROW BC : ... .. . ... ... : ... .. . ... ... : ... .. . ... : ... .. . ... : ... .. . Z30 ...
ROW BD : ... .. . ... ... : ... .. 6 ... ... : ... .. . ... : ... .. . ... : ... .. . Z30 ...
ROW BE : ... .. . ... ... : ... .. . ... ... : ... .. . ... : ... .. . ... : ... .. . Z30 ...
ROW BF : ... .. . ... ... : ... .. . ... ... : ... .. . ... : ... .. . ... : ... .. . Z30 ...

PATTERN 05
ROW 00 : E-4 00 5 P7F V00 : G-4 00 5 P80 V00 : C-3 00 . P80 : B-# 00 0 V01 : ... .. . Z30 ...
ROW 01 : ... .. 3 ... V02 : ... .. 3 ... V02 : ... .. . ... : ... .. . ... : ... .. . Z30 ...
ROW 02 : ... .. 4 ... ... : ... .. 4 ... ... : ... .. . ... : ... .. . ... : ... .. . Z30 ...
ROW 03 : ... .. 5 ... ... : ... .. 5 ... ... : ... .. . ... : ... .. . ... : ... .. . Z30 ...
ROW 04 : ... .. . ... ... : ... .. . ... ... : ... .. . ... : ... .. . ... : ... .. . Z30 ...
ROW 05 : ... .. 6 ... ... : ... .. 6 ... ... : ... .. . ... : ... .. . ... : ... .. . Z30 ...
ROW 06 : ... .. . ... ... : ... .. . ... ... : ... .. . ... : ... .. . ... : ... .. . Z30 ...
ROW 07 : ... .. . ... ... : ... .. . ... ... : ... .. . ... : ... .. . ... : ... .. . Z30 ...
ROW 08 : ... .. . ... ... : ... .. . ... ... : --- .. . ... : ... .. . ... : ... .. . Z30 ...
ROW 09 : ... .. . ... ... : ... .. . ... ... : ... .. . ... : ... .. . ... : ... .. . Z30 ...
ROW 0A : ... .. . ... ... : ... .. . ... ... : ... .. . ... : ... .. . ... : ... .. . Z30 ...
ROW 0B : ... .. . ... ... : ... .. . ... ... : ... .. . ... : ... .. . ... : ... .. . Z30 ...
ROW 0C : ... .. . ... ... : ... .. . ... ... : ... .. . ... : ... .. . ... : ... .. . Z30 ...
ROW 0D : ... .. . ... ... : ... .. . ... ... : ... .. . ... : ... .. . ... : ... .. . Z30 ...
ROW 0E : ... .. . ... ... : ... .. . ... ... : ... .. . ... : ... .. . ... : ... .. . Z30 ...
ROW 0F : ... .. . ... ... : ... .. . ... ... : ... .. . ... : ... .. . ... : ... .. . Z30 ...
ROW 10 : ... .. . ... ... : ... .. . ... ... : G-3 00 . P80 : C-# 00 C V00 : ... .. . Z30 ...
ROW 11 : ... .. . ... ... : ... .. . ... ... : ... .. . ... : ... .. 0 ... : ... .. . Z30 ...
ROW 12 : ... .. . ... ... : ... .. . ... ... : ... .. . ... : ... .. . ... : ... .. . Z30 ...
ROW 13 : ... .. . ... ... : ... .. . ... ... : ... .. . ... : ... .. . ... : ... .. . Z30 ...
ROW 14 : ... .. . ... ... : ... .. . ... ... : ... .. . ... : ... .. . ... : ... .. . Z30 ...
ROW 15 : ... .. . ... ... : ... .. . ... ... : ... .. . ... : ... .. . ... : ... .. . Z30 ...
ROW 16 : ... .. 5 ... ... : ... .. 5 ... ... : ... .. . ... : ... .. . ... : ... .. . Z30 ...
ROW 17 : ... .. . ... ... : ... .. . ... ... : ... .. . ... : ... .. . ... : ... .. . Z30 ...
ROW 18 : ... .. . ... ... : ... .. . ... ... : --- .. . ... : ... .. . ... : ... .. . Z30 ...
ROW 19 : ... .. . ... ... : ... .. . ... ... : ... .. . ... : ... .. . ... : ... .. . Z30 ...
ROW 1A : ... .. . ... ... : ... .. . ... ... : ... .. . ... : ... .. . ... : ... .. . Z30 ...
ROW 1B : ... .. . ... ... : ... .. . ... ... : ... .. . ... : ... .. . ... : ... .. . Z30 ...
ROW 1C : ... .. 4 ... ... : ... .. 4 ... ... : ... .. . ... : ... .. . ... : ... .. . Z30 ...
ROW 1D : ... .. . ... ... : ... .. . ... ... : ... .. . ... : ... .. . ... : ... .. . Z30 ...
ROW 1E : ... .. . ... ... : ... .. . ... ... : ... .. . ... : ... .. . ... : ... .. . Z30 ...
ROW 1F : ... .. . ... ... : ... .. . ... ... : ... .. . ... : ... .. . ... : ... .. . Z30 ...
ROW 20 : ... .. . ... ... : ... .. . ... ... : E-4 00 . P7F : ... .. C ... : ... .. . Z30 ...
ROW 21 : ... .. . ... ... : ... .. . ... ... : ... .. . ... : ... .. . ... : ... .. . Z30 ...
ROW 22 : ... .. 3 ... ... : ... .. 3 ... ... : ... .. . ... : ... .. . ... : ... .. . Z30 ...
ROW 23 : ... .. . ... ... : ... .. . ... ... : ... .. . ... : ... .. . ... : ... .. . Z30 ...
ROW 24 : ... .. . ... ... : ... .. . ... ... : ... .. . ... : ... .. . ... : ... .. . Z30 ...
ROW 25 : ... .. 2 ... ... : ... .. 2 ... ... : ... .. . ... : ... .. 0 ... : ... .. . Z30 ...
ROW 26 : ... .. . ... ... : ... .. . ... ... : ... .. . ... : ... .. . ... : ... .. . Z30 ...
ROW 27 : ... .. 1 ... ... : ... .. 1 ... ... : ... .. . ... : ... .. . ... : ... .. . Z30 ...
ROW 28 : ... .. 0 ... ... : ... .. 0 ... ... : --- .. . ... : ... .. . ... : ... .. . Z30 ...
ROW 29 : ... .. . ... ... : ... .. . ... ... : ... .. . ... : ... .. . ... : ... .. . Z30 ...
ROW 2A : ... .. . ... ... : ... .. . ... ... : ... .. . ... : ... .. . ... : ... .. . Z30 ...
ROW 2B : ... .. . ... ... : ... .. . ... ... : ... .. . ... : ... .. . ... : ... .. . Z30 ...
ROW 2C : ... .. . ... ... : ... .. . ... ... : ... .. . ... : ... .. . ... : ... .. . Z30 ...
ROW 2D : ... .. . ... ... : ... .. . ... ... : ... .. . ... : ... .. . ... : ... .. . Z30 ...
ROW 2E : ... .. . ... ... : ... .. . ... ... : ... .. . ... : ... .. . ... : ... .. . Z30 ...
ROW 2F : ... .. . ... ... : ... .. . ... ... : ... .. . ... : ... .. . ... : ... .. . Z30 ...
ROW 30 : D-4 00 5 P80 V00 : ... .. 5 ... V00 : B-2 00 . P7D : B-# 00 0 V01 : ... .. . Z30 ...
ROW 31 : ... .. 3 ... V02 : ... .. 3 ... V02 : ... .. . ... : ... .. . ... : ... .. . Z30 ...
ROW 32 : ... .. 4 ... ... : ... .. 4 ... ... : ... .. . ... : ... .. . ... : ... .. . Z30 ...
ROW 33 : ... .. 5 ... ... : ... .. 5 ... ... : ... .. . ... : ... .. . ... : ... .. . Z30 ...
ROW 34 : ... .. . ... ... : ... .. . ... ... : ... .. . ... : ... .. . ... : ... .. . Z30 ...
ROW 35 : ... .. 6 ... ... : ... .. 6 ... ... : ... .. . ... : ... .. . ... : ... .. . Z30 ...
ROW 36 : ... .. . ... ... : ... .. . ... ... : ... .. . ... : ... .. . ... : ... .. . Z30 ...
ROW 37 : ... .. . ... ... : ... .. . ... ... : ... .. . ... : ... .. . ... : ... .. . Z30 ...
ROW 38 : ... .. . ... ... : ... .. . ... ... : --- .. . ... : ... .. . ... : ... .. . Z30 ...
ROW 39 : ... .. . ... ... : ... .. . ... ... : ... .. . ... : ... .. . ... : ... .. . Z30 ...
ROW 3A : ... .. . ... ... : ... .. . ... ... : ... .. . ... : ... .. . ... : ... .. . Z30 ...
ROW 3B : ... .. . ... ... : ... .. . ... ... : ... .. . ... : ... .. . ... : ... .. . Z30 ...
ROW 3C : ... .. . ... ... : ... .. . ... ... : ... .. . ... : ... .. . ... : ... .. . Z30 ...
ROW 3D : ... .. . ... ... : ... .. . ... ... : ... .. . ... : ... .. . ... : ... .. . Z30 ...
ROW 3E : ... .. . ... ... : ... .. . ... ... : ... .. . ... : ... .. . ... : ... .. . Z30 ...
ROW 3F : ... .. . ... ... : ... .. . ... ... : ... .. . ... : ... .. . ... : ... .. . Z30 ...
ROW 40 : ... .. . ... ... : ... .. . ... ... : G-3 00 . P80 : C-# 00 C V00 : ... .. . Z30 ...
ROW 41 : ... .. . ... ... : ... .. . ... ... : ... .. . ... : ... .. 0 ... : ... .. . Z30 ...
ROW 42 : ... .. . ... ... : ... .. . ... ... : ... .. . ... : ... .. . ... : ... .. . Z30 ...
ROW 43 : ... .. . ... ... : ... .. . ... ... : ... .. . ... : ... .. . ... : ... .. . Z30 ...
ROW 44 : ... .. . ... ... : ... .. . ... ... : ... .. . ... : ... .. . ... : ... .. . Z30 ...
ROW 45 : ... .. . ... ... : ... .. . ... ... : ... .. . ... : ... .. . ... : ... .. . Z30 ...
ROW 46 : ... .. 5 ... ... : ... .. 5 ... ... : ... .. . ... : ... .. . ... : ... .. . Z30 ...
ROW 47 : ... .. . ... ... : ... .. . ... ... : ... .. . ... : ... .. . ... : ... .. . Z30 ...
ROW 48 : ... .. . ... ... : ... .. . ... ... : --- .. . ... : ... .. C ... : ... .. . Z30 ...
ROW 49 : ... .. . ... ... : ... .. . ... ... : ... .. . ... : ... .. 0 ... : ... .. . Z30 ...
ROW 4A : ... .. . ... ... : ... .. . ... ... : ... .. . ... : ... .. . ... : ... .. . Z30 ...
ROW 4B : ... .. . ... ... : ... .. . ... ... : ... .. . ... : ... .. . ... : ... .. . Z30 ...
ROW 4C : ... .. 4 ... ... : ... .. 4 ... ... : ... .. . ... : ... .. . ... : ... .. . Z30 ...
ROW 4D : ... .. . ... ... : ... .. . ... ... : ... .. . ... : ... .. . ... : ... .. . Z30 ...
ROW 4E : ... .. . ... ... : ... .. . ... ... : ... .. . ... : ... .. . ... : ... .. . Z30 ...
ROW 4F : ... .. . ... ... : ... .. . ... ... : ... .. . ... : ... .. . ... : ... .. . Z30 ...
ROW 50 : ... .. . ... ... : ... .. . ... ... : D-4 00 . P80 : ... .. C ... : ... .. . Z30 ...
ROW 51 : ... .. . ... ... : ... .. . ... ... : ... .. . ... : ... .. . ... : ... .. . Z30 ...
ROW 52 : ... .. 3 ... ... : ... .. 3 ... ... : ... .. . ... : ... .. . ... : ... .. . Z30 ...
ROW 53 : ... .. . ... ... : ... .. . ... ... : ... .. . ... : ... .. . ... : ... .. . Z30 ...
ROW 54 : ... .. . ... ... : ... .. . ... ... : ... .. . ... : ... .. . ... : ... .. . Z30 ...
ROW 55 : ... .. 2 ... ... : ... .. 2 ... ... : ... .. . ... : ... .. 0 ... : ... .. . Z30 ...
ROW 56 : ... .. . ... ... : ... .. . ... ... : ... .. . ... : ... .. . ... : ... .. . Z30 ...
ROW 57 : ... .. 1 ... ... : ... .. 1 ... ... : ... .. . ... : ... .. . ... : ... .. . Z30 ...
ROW 58 : ... .. 0 ... ... : ... .. 0 ... ... : --- .. . ... : ... .. . ... : ... .. . Z30 ...
ROW 59 : ... .. . ... ... : ... .. . ... ... : ... .. . ... : ... .. . ... : ... .. . Z30 ...
ROW 5A : ... .. . ... ... : ... .. . ... ... : ... .. . ... : ... .. . ... : ... .. . Z30 ...
ROW 5B : ... .. . ... ... : ... .. . ... ... : ... .. . ... : ... .. . ... : ... .. . Z30 ...
ROW 5C : ... .. . ... ... : ... .. . ... ... : ... .. . ... : ... .. . ... : ... .. . Z30 ...
ROW 5D : ... .. . ... ... : ... .. . ... ... : ... .. . ... : ... .. . ... : ... .. . Z30 ...
ROW 5E : ... .. . ... ... : ... .. . ... ... : ... .. . ... : ... .. . ... : ... .. . Z30 ...
ROW 5F : ... .. . ... ... : ... .. . ... ... : ... .. . ... : ... .. . ... : ... .. . Z30 ...
ROW 60 : C#4 00 5 P81 V00 : ... .. 5 ... V00 : A#2 00 . P77 : B-# 00 0 V01 : ... .. . Z30 ...
ROW 61 : ... .. 3 ... V02 : ... .. 3 ... V02 : ... .. . ... : ... .. . ... : ... .. . Z30 ...
ROW 62 : ... .. 4 ... ... : ... .. 4 ... ... : ... .. . ... : ... .. . ... : ... .. . Z30 ...
ROW 63 : ... .. 5 ... ... : ... .. 5 ... ... : ... .. . ... : ... .. . ... : ... .. . Z30 ...
ROW 64 : ... .. . ... ... : ... .. . ... ... : ... .. . ... : ... .. . ... : ... .. . Z30 ...
ROW 65 : ... .. 6 ... ... : ... .. 6 ... ... : ... .. . ... : ... .. . ... : ... .. . Z30 ...
ROW 66 : ... .. . ... ... : ... .. . ... ... : ... .. . ... : ... .. . ... : ... .. . Z30 ...
ROW 67 : ... .. . ... ... : ... .. . ... ... : ... .. . ... : ... .. . ... : ... .. . Z30 ...
ROW 68 : ... .. . ... ... : ... .. . ... ... : --- .. . ... : ... .. . ... : ... .. . Z30 ...
ROW 69 : ... .. . ... ... : ... .. . ... ... : ... .. . ... : ... .. . ... : ... .. . Z30 ...
ROW 6A : ... .. . ... ... : ... .. . ... ... : ... .. . ... : ... .. . ... : ... .. . Z30 ...
ROW 6B : ... .. . ... ... : ... .. . ... ... : ... .. . ... : ... .. . ... : ... .. . Z30 ...
ROW 6C : ... .. . ... ... : ... .. . ... ... : ... .. . ... : ... .. . ... : ... .. . Z30 ...
ROW 6D : ... .. . ... ... : ... .. . ... ... : ... .. . ... : ... .. . ... : ... .. . Z30 ...
ROW 6E : ... .. . ... ... : ... .. . ... ... : ... .. . ... : ... .. . ... : ... .. . Z30 ...
ROW 6F : ... .. . ... ... : ... .. . ... ... : ... .. . ... : ... .. . ... : ... .. . Z30 ...
ROW 70 : ... .. . ... ... : ... .. . ... ... : G-3 00 . P80 : C-# 00 C V00 : ... .. . Z30 ...
ROW 71 : ... .. . ... ... : ... .. . ... ... : ... .. . ... : ... .. 0 ... : ... .. . Z30 ...
ROW 72 : ... .. . ... ... : ... .. . ... ... : ... .. . ... : ... .. . ... : ... .. . Z30 ...
ROW 73 : ... .. . ... ... : ... .. . ... ... : ... .. . ... : ... .. . ... : ... .. . Z30 ...
ROW 74 : ... .. . ... ... : ... .. . ... ... : ... .. . ... : ... .. . ... : ... .. . Z30 ...
ROW 75 : ... .. . ... ... : ... .. . ... ... : ... .. . ... : ... .. . ... : ... .. . Z30 ...
ROW 76 : ... .. 5 ... ... : ... .. 5 ... ... : ... .. . ... : ... .. . ... : ... .. . Z30 ...
ROW 77 : ... .. . ... ... : ... .. . ... ... : ... .. . ... : ... .. . ... : ... .. . Z30 ...
ROW 78 : ... .. . ... ... : ... .. . ... ... : --- .. . ... : ... .. . ... : ... .. . Z30 ...
ROW 79 : ... .. . ... ... : ... .. . ... ... : ... .. . ... : ... .. . ... : ... .. . Z30 ...
ROW 7A : ... .. . ... ... : ... .. . ... ... : ... .. . ... : ... .. . ... : ... .. . Z30 ...
ROW 7B : ... .. . ... ... : ... .. . ... ... : ... .. . ... : ... .. . ... : ... .. . Z30 ...
ROW 7C : ... .. 4 ... ... : ... .. 4 ... ... : ... .. . ... : ... .. . ... : ... .. . Z30 ...
ROW 7D : ... .. . ... ... : ... .. . ... ... : ... .. . ... : ... .. . ... : ... .. . Z30 ...
ROW 7E : ... .. . ... ... : ... .. . ... ... : ... .. . ... : ... .. . ... : ... .. . Z30 ...
ROW 7F : ... .. . ... ... : ... .. . ... ... : ... .. . ... : ... .. . ... : ... .. . Z30 ...
ROW 80 : ... .. . ... ... : ... .. . ... ... : C#4 00 . P81 : ... .. C ... : ... .. . Z30 ...
ROW 81 : ... .. . ... ... : ... .. . ... ... : ... .. . ... : ... .. . ... : ... .. . Z30 ...
ROW 82 : ... .. 3 ... ... : ... .. 3 ... ... : ... .. . ... : ... .. . ... : ... .. . Z30 ...
ROW 83 : ... .. . ... ... : ... .. . ... ... : ... .. . ... : ... .. . ... : ... .. . Z30 ...
ROW 84 : ... .. . ... ... : ... .. . ... ... : ... .. . ... : ... .. . ... : ... .. . Z30 ...
ROW 85 : ... .. 2 ... ... : ... .. 2 ... ... : ... .. . ... : ... .. 0 ... : ... .. . Z30 ...
ROW 86 : ... .. . ... ... : ... .. . ... ... : ... .. . ... : ... .. . ... : ... .. . Z30 ...
ROW 87 : ... .. 1 ... ... : ... .. 1 ... ... : ... .. . ... : ... .. . ... : ... .. . Z30 ...
ROW 88 : ... .. 0 ... ... : ... .. 0 ... ... : --- .. . ... : ... .. . ... : ... .. . Z30 ...
ROW 89 : ... .. . ... ... : ... .. . ... ... : ... .. . ... : ... .. . ... : ... .. . Z30 ...
ROW 8A : ... .. . ... ... : ... .. . ... ... : ... .. . ... : ... .. . ... : ... .. . Z30 ...
ROW 8B : ... .. . ... ... : ... .. . ... ... : ... .. . ... : ... .. . ... : ... .. . Z30 ...
ROW 8C : ... .. . ... ... : ... .. . ... ... : ... .. . ... : ... .. . ... : ... .. . Z30 ...
ROW 8D : ... .. . ... ... : ... .. . ... ... : ... .. . ... : ... .. . ... : ... .. . Z30 ...
ROW 8E : ... .. . ... ... : ... .. . ... ... : ... .. . ... : ... .. . ... : ... .. . Z30 ...
ROW 8F : ... .. . ... ... : ... .. . ... ... : ... .. . ... : ... .. . ... : ... .. . Z30 ...
ROW 90 : ... .. . ... ... : ... .. 5 ... V00 : C#3 00 . P83 : B-# 00 0 V01 : ... .. . Z30 ...
ROW 91 : ... .. . ... ... : ... .. 3 ... V02 : ... .. . ... : ... .. . ... : ... .. . Z30 ...
ROW 92 : ... .. . ... ... : ... .. 4 ... ... : ... .. . ... : ... .. . ... : ... .. . Z30 ...
ROW 93 : ... .. . ... ... : ... .. 5 ... ... : ... .. . ... : ... .. . ... : ... .. . Z30 ...
ROW 94 : ... .. . ... ... : ... .. . ... ... : ... .. . ... : ... .. . ... : ... .. . Z30 ...
ROW 95 : ... .. . ... ... : ... .. 6 ... ... : ... .. . ... : ... .. . ... : ... .. . Z30 ...
ROW 96 : ... .. . ... ... : ... .. . ... ... : ... .. . ... : ... .. . ... : ... .. . Z30 ...
ROW 97 : ... .. . ... ... : ... .. . ... ... : ... .. . ... : ... .. . ... : ... .. . Z30 ...
ROW 98 : ... .. . ... ... : ... .. . ... ... : --- .. . ... : ... .. . ... : ... .. . Z30 ...
ROW 99 : ... .. . ... ... : ... .. . ... ... : ... .. . ... : ... .. . ... : ... .. . Z30 ...
ROW 9A : ... .. . ... ... : ... .. . ... ... : ... .. . ... : ... .. . ... : ... .. . Z30 ...
ROW 9B : ... .. . ... ... : ... .. . ... ... : ... .. . ... : ... .. . ... : ... .. . Z30 ...
ROW 9C : ... .. . ... ... : ... .. . ... ... : ... .. . ... : ... .. . ... : ... .. . Z30 ...
ROW 9D : ... .. . ... ... : ... .. . ... ... : ... .. . ... : ... .. . ... : ... .. . Z30 ...
ROW 9E : ... .. . ... ... : ... .. . ... ... : ... .. . ... : ... .. . ... : ... .. . Z30 ...
ROW 9F : ... .. . ... ... : ... .. . ... ... : ... .. . ... : ... .. . ... : ... .. . Z30 ...
ROW A0 : ... .. . ... ... : A-4 00 5 P7F V00 : G-3 00 . P80 : C-# 00 C V00 : ... .. . Z30 ...
ROW A1 : ... .. . ... ... : ... .. 3 ... V02 : ... .. . ... : ... .. 0 ... : ... .. . Z30 ...
ROW A2 : ... .. . ... ... : ... .. 4 ... ... : ... .. . ... : ... .. . ... : ... .. . Z30 ...
ROW A3 : ... .. . ... ... : ... .. 5 ... ... : ... .. . ... : ... .. . ... : ... .. . Z30 ...
ROW A4 : ... .. . ... ... : ... .. . ... ... : ... .. . ... : ... .. . ... : ... .. . Z30 ...
ROW A5 : ... .. . ... ... : ... .. 6 ... ... : ... .. . ... : ... .. . ... : ... .. . Z30 ...
ROW A6 : ... .. . ... ... : ... .. . ... ... : ... .. . ... : ... .. . ... : ... .. . Z30 ...
ROW A7 : ... .. . ... ... : ... .. . ... ... : ... .. . ... : ... .. . ... : ... .. . Z30 ...
ROW A8 : ... .. . ... ... : ... .. 0 ... ... : --- .. . ... : ... .. C ... : ... .. . Z30 ...
ROW A9 : ... .. . ... ... : ... .. . ... ... : ... .. . ... : ... .. 0 ... : ... .. . Z30 ...
ROW AA : ... .. . ... ... : ... .. . ... ... : ... .. . ... : ... .. . ... : ... .. . Z30 ...
ROW AB : ... .. . ... ... : ... .. . ... ... : ... .. . ... : ... .. . ... : ... .. . Z30 ...
ROW AC : ... .. . ... ... : ... .. . ... ... : ... .. . ... : ... .. . ... : ... .. . Z30 ...
ROW AD : ... .. . ... ... : ... .. . ... ... : ... .. . ... : ... .. . ... : ... .. . Z30 ...
ROW AE : ... .. . ... ... : ... .. . ... ... : ... .. . ... : ... .. . ... : ... .. . Z30 ...
ROW AF : ... .. . ... ... : ... .. . ... ... : ... .. . ... : ... .. . ... : ... .. . Z30 ...
ROW B0 : ... .. . ... ... : ... .. . ... ... : E-4 00 . P7F : ... .. C ... : ... .. . Z30 ...
ROW B1 : ... .. . ... ... : ... .. . ... ... : ... .. . ... : ... .. . ... : ... .. . Z30 ...
ROW B2 : ... .. . ... ... : ... .. . ... ... : ... .. . ... : ... .. . ... : ... .. . Z30 ...
ROW B3 : ... .. . ... ... : ... .. . ... ... : ... .. . ... : ... .. . ... : ... .. . Z30 ...
ROW B4 : ... .. . ... ... : ... .. . ... ... : ... .. . ... : ... .. . ... : ... .. . Z30 ...
ROW B5 : ... .. . ... ... : ... .. . ... ... : ... .. . ... : ... .. 0 ... : ... .. . Z30 ...
ROW B6 : ... .. . ... ... : ... .. . ... ... : ... .. . ... : ... .. . ... : ... .. . Z30 ...
ROW B7 : ... .. . ... ... : ... .. . ... ... : ... .. . ... : ... .. . ... : ... .. . Z30 ...
ROW B8 : ... .. . ... ... : G-4 00 5 P80 V00 : --- .. . ... : ... .. . ... : ... .. . Z30 ...
ROW B9 : ... .. . ... ... : ... .. 3 ... V02 : ... .. . ... : ... .. . ... : ... .. . Z30 ...
ROW BA : ... .. . ... ... : ... .. 4 ... ... : ... .. . ... : ... .. . ... : ... .. . Z30 ...
ROW BB : ... .. . ... ... : ... .. 5 ... ... : ... .. . ... : ... .. . ... : ... .. . Z30 ...
ROW BC : ... .. . ... ... : ... .. . ... ... : ... .. . ... : ... .. . ... : ... .. . Z30 ...
ROW BD : ... .. . ... ... : ... .. 6 ... ... : ... .. . ... : ... .. . ... : ... .. . Z30 ...
ROW BE : ... .. . ... ... : ... .. . ... ... : ... .. . ... : ... .. . ... : ... .. . Z30 ...
ROW BF : ... .. . ... ... : ... .. . ... ... : ... .. . ... : ... .. . ... : ... .. . Z30 ...

PATTERN 06
ROW 00 : D-4 00 5 P80 V00 : F-4 00 5 P80 V00 : D-3 00 . P81 : B-# 00 0 V01 : ... .. . Z30 ...
ROW 01 : ... .. 3 ... V02 : ... .. 3 ... V02 : ... .. . ... : ... .. . ... : ... .. . Z30 ...
ROW 02 : ... .. 4 ... ... : ... .. 4 ... ... : ... .. . ... : ... .. . ... : ... .. . Z30 ...
ROW 03 : ... .. 5 ... ... : ... .. 5 ... ... : ... .. . ... : ... .. . ... : ... .. . Z30 ...
ROW 04 : ... .. . ... ... : ... .. . ... ... : ... .. . ... : ... .. . ... : ... .. . Z30 ...
ROW 05 : ... .. 6 ... ... : ... .. 6 ... ... : ... .. . ... : ... .. . ... : ... .. . Z30 ...
ROW 06 : ... .. . ... ... : ... .. . ... ... : ... .. . ... : ... .. . ... : ... .. . Z30 ...
ROW 07 : ... .. . ... ... : ... .. . ... ... : ... .. . ... : ... .. . ... : ... .. . Z30 ...
ROW 08 : ... .. . ... ... : ... .. . ... ... : --- .. . ... : ... .. . ... : ... .. . Z30 ...
ROW 09 : ... .. . ... ... : ... .. . ... ... : ... .. . ... : ... .. . ... : ... .. . Z30 ...
ROW 0A : ... .. . ... ... : ... .. . ... ... : ... .. . ... : ... .. . ... : ... .. . Z30 ...
ROW 0B : ... .. . ... ... : ... .. . ... ... : ... .. . ... : ... .. . ... : ... .. . Z30 ...
ROW 0C : ... .. . ... ... : ... .. . ... ... : ... .. . ... : ... .. . ... : ... .. . Z30 ...
ROW 0D : ... .. . ... ... : ... .. . ... ... : ... .. . ... : ... .. . ... : ... .. . Z30 ...
ROW 0E : ... .. . ... ... : ... .. . ... ... : ... .. . ... : ... .. . ... : ... .. . Z30 ...
ROW 0F : ... .. . ... ... : ... .. . ... ... : ... .. . ... : ... .. . ... : ... .. . Z30 ...
ROW 10 : ... .. . ... ... : ... .. . ... ... : A-3 00 . P7E : C-# 00 C V00 : ... .. . Z30 ...
ROW 11 : ... .. . ... ... : ... .. . ... ... : ... .. . ... : ... .. 0 ... : ... .. . Z30 ...
ROW 12 : ... .. . ... ... : ... .. . ... ... : ... .. . ... : ... .. . ... : ... .. . Z30 ...
ROW 13 : ... .. . ... ... : ... .. . ... ... : ... .. . ... : ... .. . ... : ... .. . Z30 ...
ROW 14 : ... .. . ... ... : ... .. . ... ... : ... .. . ... : ... .. . ... : ... .. . Z30 ...
ROW 15 : ... .. . ... ... : ... .. . ... ... : ... .. . ... : ... .. . ... : ... .. . Z30 ...
ROW 16 : ... .. 5 ... ... : ... .. 5 ... ... : ... .. . ... : ... .. . ... : ... .. . Z30 ...
ROW 17 : ... .. . ... ... : ... .. . ... ... : ... .. . ... : ... .. . ... : ... .. . Z30 ...
ROW 18 : ... .. . ... ... : ... .. . ... ... : --- .. . ... : ... .. . ... : ... .. . Z30 ...
ROW 19 : ... .. . ... ... : ... .. . ... ... : ... .. . ... : ... .. . ... : ... .. . Z30 ...
ROW 1A : ... .. . ... ... : ... .. . ... ... : ... .. . ... : ... .. . ... : ... .. . Z30 ...
ROW 1B : ... .. . ... ... : ... .. . ... ... : ... .. . ... : ... .. . ... : ... .. . Z30 ...
ROW 1C : ... .. 4 ... ... : ... .. 4 ... ... : ... .. . ... : ... .. . ... : ... .. . Z30 ...
ROW 1D : ... .. . ... ... : ... .. . ... ... : ... .. . ... : ... .. . ... : ... .. . Z30 ...
ROW 1E : ... .. . ... ... : ... .. . ... ... : ... .. . ... : ... .. . ... : ... .. . Z30 ...
ROW 1F : ... .. . ... ... : ... .. . ... ... : ... .. . ... : ... .. . ... : ... .. . Z30 ...
ROW 20 : ... .. . ... ... : ... .. . ... ... : F-4 00 . P80 : ... .. C ... : ... .. . Z30 ...
ROW 21 : ... .. . ... ... : ... .. . ... ... : ... .. . ... : ... .. . ... : ... .. . Z30 ...
ROW 22 : ... .. 3 ... ... : ... .. 3 ... ... : ... .. . ... : ... .. . ... : ... .. . Z30 ...
ROW 23 : ... .. . ... ... : ... .. . ... ... : ... .. . ... : ... .. . ... : ... .. . Z30 ...
ROW 24 : ... .. . ... ... : ... .. . ... ... : ... .. . ... : ... .. . ... : ... .. . Z30 ...
ROW 25 : ... .. 2 ... ... : ... .. 2 ... ... : ... .. . ... : ... .. 0 ... : ... .. . Z30 ...
ROW 26 : ... .. . ... ... : ... .. . ... ... : ... .. . ... : ... .. . ... : ... .. . Z30 ...
ROW 27 : ... .. 1 ... ... : ... .. 1 ... ... : ... .. . ... : ... .. . ... : ... .. . Z30 ...
ROW 28 : ... .. 0 ... ... : ... .. 0 ... ... : --- .. . ... : ... .. . ... : ... .. . Z30 ...
ROW 29 : ... .. . ... ... : ... .. . ... ... : ... .. . ... : ... .. . ... : ... .. . Z30 ...
ROW 2A : ... .. . ... ... : ... .. . ... ... : ... .. . ... : ... .. . ... : ... .. . Z30 ...
ROW 2B : ... .. . ... ... : ... .. . ... ... : ... .. . ... : ... .. . ... : ... .. . Z30 ...
ROW 2C : ... .. . ... ... : ... .. . ... ... : ... .. . ... : ... .. . ... : ... .. . Z30 ...
ROW 2D : ... .. . ... ... : ... .. . ... ... : ... .. . ... : ... .. . ... : ... .. . Z30 ...
ROW 2E : ... .. . ... ... : ... .. . ... ... : ... .. . ... : ... .. . ... : ... .. . Z30 ...
ROW 2F : ... .. . ... ... : ... .. . ... ... : ... .. . ... : ... .. . ... : ... .. . Z30 ...
ROW 30 : C#4 00 5 P81 V00 : ... .. 5 ... V00 : C#3 00 . P83 : B-# 00 0 V01 : ... .. . Z30 ...
ROW 31 : ... .. 3 ... V02 : ... .. 3 ... V02 : ... .. . ... : ... .. . ... : ... .. . Z30 ...
ROW 32 : ... .. 4 ... ... : ... .. 4 ... ... : ... .. . ... : ... .. . ... : ... .. . Z30 ...
ROW 33 : ... .. 5 ... ... : ... .. 5 ... ... : ... .. . ... : ... .. . ... : ... .. . Z30 ...
ROW 34 : ... .. . ... ... : ... .. . ... ... : ... .. . ... : ... .. . ... : ... .. . Z30 ...
ROW 35 : ... .. 6 ... ... : ... .. 6 ... ... : ... .. . ... : ... .. . ... : ... .. . Z30 ...
ROW 36 : ... .. . ... ... : ... .. . ... ... : ... .. . ... : ... .. . ... : ... .. . Z30 ...
ROW 37 : ... .. . ... ... : ... .. . ... ... : ... .. . ... : ... .. . ... : ... .. . Z30 ...
ROW 38 : ... .. . ... ... : ... .. . ... ... : --- .. . ... : ... .. . ... : ... .. . Z30 ...
ROW 39 : ... .. . ... ... : ... .. . ... ... : ... .. . ... : ... .. . ... : ... .. . Z30 ...
ROW 3A : ... .. . ... ... : ... .. . ... ... : ... .. . ... : ... .. . ... : ... .. . Z30 ...
ROW 3B : ... .. . ... ... : ... .. . ... ... : ... .. . ... : ... .. . ... : ... .. . Z30 ...
ROW 3C : ... .. . ... ... : ... .. . ... ... : ... .. . ... : ... .. . ... : ... .. . Z30 ...
ROW 3D : ... .. . ... ... : ... .. . ... ... : ... .. . ... : ... .. . ... : ... .. . Z30 ...
ROW 3E : ... .. . ... ... : ... .. . ... ... : ... .. . ... : ... .. . ... : ... .. . Z30 ...
ROW 3F : ... .. . ... ... : ... .. . ... ... : ... .. . ... : ... .. . ... : ... .. . Z30 ...
ROW 40 : ... .. . ... ... : ... .. . ... ... : A-3 00 . P7E : C-# 00 C V00 : ... .. . Z30 ...
ROW 41 : ... .. . ... ... : ... .. . ... ... : ... .. . ... : ... .. 0 ... : ... .. . Z30 ...
ROW 42 : ... .. . ... ... : ... .. . ... ... : ... .. . ... : ... .. . ... : ... .. . Z30 ...
ROW 43 : ... .. . ... ... : ... .. . ... ... : ... .. . ... : ... .. . ... : ... .. . Z30 ...
ROW 44 : ... .. . ... ... : ... .. . ... ... : ... .. . ... : ... .. . ... : ... .. . Z30 ...
ROW 45 : ... .. . ... ... : ... .. . ... ... : ... .. . ... : ... .. . ... : ... .. . Z30 ...
ROW 46 : ... .. 5 ... ... : ... .. 5 ... ... : ... .. . ... : ... .. . ... : ... .. . Z30 ...
ROW 47 : ... .. . ... ... : ... .. . ... ... : ... .. . ... : ... .. . ... : ... .. . Z30 ...
ROW 48 : ... .. . ... ... : ... .. . ... ... : --- .. . ... : ... .. C ... : ... .. . Z30 ...
ROW 49 : ... .. . ... ... : ... .. . ... ... : ... .. . ... : ... .. 0 ... : ... .. . Z30 ...
ROW 4A : ... .. . ... ... : ... .. . ... ... : ... .. . ... : ... .. . ... : ... .. . Z30 ...
ROW 4B : ... .. . ... ... : ... .. . ... ... : ... .. . ... : ... .. . ... : ... .. . Z30 ...
ROW 4C : ... .. 4 ... ... : ... .. 4 ... ... : ... .. . ... : ... .. . ... : ... .. . Z30 ...
ROW 4D : ... .. . ... ... : ... .. . ... ... : ... .. . ... : ... .. . ... : ... .. . Z30 ...
ROW 4E : ... .. . ... ... : ... .. . ... ... : ... .. . ... : ... .. . ... : ... .. . Z30 ...
ROW 4F : ... .. . ... ... : ... .. . ... ... : ... .. . ... : ... .. . ... : ... .. . Z30 ...
ROW 50 : ... .. . ... ... : ... .. . ... ... : F-4 00 . P80 : ... .. C ... : ... .. . Z30 ...
ROW 51 : ... .. . ... ... : ... .. . ... ... : ... .. . ... : ... .. . ... : ... .. . Z30 ...
ROW 52 : ... .. 3 ... ... : ... .. 3 ... ... : ... .. . ... : ... .. . ... : ... .. . Z30 ...
ROW 53 : ... .. . ... ... : ... .. . ... ... : ... .. . ... : ... .. . ... : ... .. . Z30 ...
ROW 54 : ... .. . ... ... : ... .. . ... ... : ... .. . ... : ... .. . ... : ... .. . Z30 ...
ROW 55 : ... .. 2 ... ... : ... .. 2 ... ... : ... .. . ... : ... .. 0 ... : ... .. . Z30 ...
ROW 56 : ... .. . ... ... : ... .. . ... ... : ... .. . ... : ... .. . ... : ... .. . Z30 ...
ROW 57 : ... .. 1 ... ... : ... .. 1 ... ... : ... .. . ... : ... .. . ... : ... .. . Z30 ...
ROW 58 : ... .. 0 ... ... : ... .. 0 ... ... : --- .. . ... : ... .. . ... : ... .. . Z30 ...
ROW 59 : ... .. . ... ... : ... .. . ... ... : ... .. . ... : ... .. . ... : ... .. . Z30 ...
ROW 5A : ... .. . ... ... : ... .. . ... ... : ... .. . ... : ... .. . ... : ... .. . Z30 ...
ROW 5B : ... .. . ... ... : ... .. . ... ... : ... .. . ... : ... .. . ... : ... .. . Z30 ...
ROW 5C : ... .. . ... ... : ... .. . ... ... : ... .. . ... : ... .. . ... : ... .. . Z30 ...
ROW 5D : ... .. . ... ... : ... .. . ... ... : ... .. . ... : ... .. . ... : ... .. . Z30 ...
ROW 5E : ... .. . ... ... : ... .. . ... ... : ... .. . ... : ... .. . ... : ... .. . Z30 ...
ROW 5F : ... .. . ... ... : ... .. . ... ... : ... .. . ... : ... .. . ... : ... .. . Z30 ...
ROW 60 : C-4 00 5 P80 V00 : ... .. 5 ... V00 : C-3 00 . P80 : B-# 00 0 V01 : ... .. . Z30 ...
ROW 61 : ... .. 3 ... V02 : ... .. 3 ... V02 : ... .. . ... : ... .. . ... : ... .. . Z30 ...
ROW 62 : ... .. 4 ... ... : ... .. 4 ... ... : ... .. . ... : ... .. . ... : ... .. . Z30 ...
ROW 63 : ... .. 5 ... ... : ... .. 5 ... ... : ... .. . ... : ... .. . ... : ... .. . Z30 ...
ROW 64 : ... .. . ... ... : ... .. . ... ... : ... .. . ... : ... .. . ... : ... .. . Z30 ...
ROW 65 : ... .. 6 ... ... : ... .. 6 ... ... : ... .. . ... : ... .. . ... : ... .. . Z30 ...
ROW 66 : ... .. . ... ... : ... .. . ... ... : ... .. . ... : ... .. . ... : ... .. . Z30 ...
ROW 67 : ... .. . ... ... : ... .. . ... ... : ... .. . ... : ... .. . ... : ... .. . Z30 ...
ROW 68 : ... .. . ... ... : ... .. . ... ... : --- .. . ... : ... .. . ... : ... .. . Z30 ...
ROW 69 : ... .. . ... ... : ... .. . ... ... : ... .. . ... : ... .. . ... : ... .. . Z30 ...
ROW 6A : ... .. . ... ... : ... .. . ... ... : ... .. . ... : ... .. . ... : ... .. . Z30 ...
ROW 6B : ... .. . ... ... : ... .. . ... ... : ... .. . ... : ... .. . ... : ... .. . Z30 ...
ROW 6C : ... .. . ... ... : ... .. . ... ... : ... .. . ... : ... .. . ... : ... .. . Z30 ...
ROW 6D : ... .. . ... ... : ... .. . ... ... : ... .. . ... : ... .. . ... : ... .. . Z30 ...
ROW 6E : ... .. . ... ... : ... .. . ... ... : ... .. . ... : ... .. . ... : ... .. . Z30 ...
ROW 6F : ... .. . ... ... : ... .. . ... ... : ... .. . ... : ... .. . ... : ... .. . Z30 ...
ROW 70 : ... .. . ... ... : ... .. . ... ... : A-3 00 . P7E : C-# 00 C V00 : ... .. . Z30 ...
ROW 71 : ... .. . ... ... : ... .. . ... ... : ... .. . ... : ... .. 0 ... : ... .. . Z30 ...
ROW 72 : ... .. . ... ... : ... .. . ... ... : ... .. . ... : ... .. . ... : ... .. . Z30 ...
ROW 73 : ... .. . ... ... : ... .. . ... ... : ... .. . ... : ... .. . ... : ... .. . Z30 ...
ROW 74 : ... .. . ... ... : ... .. . ... ... : ... .. . ... : ... .. . ... : ... .. . Z30 ...
ROW 75 : ... .. . ... ... : ... .. . ... ... : ... .. . ... : ... .. . ... : ... .. . Z30 ...
ROW 76 : ... .. 5 ... ... : ... .. 5 ... ... : ... .. . ... : ... .. . ... : ... .. . Z30 ...
ROW 77 : ... .. . ... ... : ... .. . ... ... : ... .. . ... : ... .. . ... : ... .. . Z30 ...
ROW 78 : ... .. . ... ... : ... .. . ... ... : --- .. . ... : ... .. . ... : ... .. . Z30 ...
ROW 79 : ... .. . ... ... : ... .. . ... ... : ... .. . ... : ... .. . ... : ... .. . Z30 ...
ROW 7A : ... .. . ... ... : ... .. . ... ... : ... .. . ... : ... .. . ... : ... .. . Z30 ...
ROW 7B : ... .. . ... ... : ... .. . ... ... : ... .. . ... : ... .. . ... : ... .. . Z30 ...
ROW 7C : ... .. 4 ... ... : ... .. 4 ... ... : ... .. . ... : ... .. . ... : ... .. . Z30 ...
ROW 7D : ... .. . ... ... : ... .. . ... ... : ... .. . ... : ... .. . ... : ... .. . Z30 ...
ROW 7E : ... .. . ... ... : ... .. . ... ... : ... .. . ... : ... .. . ... : ... .. . Z30 ...
ROW 7F : ... .. . ... ... : ... .. . ... ... : ... .. . ... : ... .. . ... : ... .. . Z30 ...
ROW 80 : ... .. . ... ... : ... .. . ... ... : F-4 00 . P80 : ... .. C ... : ... .. . Z30 ...
ROW 81 : ... .. . ... ... : ... .. . ... ... : ... .. . ... : ... .. . ... : ... .. . Z30 ...
ROW 82 : ... .. 3 ... ... : ... .. 3 ... ... : ... .. . ... : ... .. . ... : ... .. . Z30 ...
ROW 83 : ... .. . ... ... : ... .. . ... ... : ... .. . ... : ... .. . ... : ... .. . Z30 ...
ROW 84 : ... .. . ... ... : ... .. . ... ... : ... .. . ... : ... .. . ... : ... .. . Z30 ...
ROW 85 : ... .. 2 ... ... : ... .. 2 ... ... : ... .. . ... : ... .. 0 ... : ... .. . Z30 ...
ROW 86 : ... .. . ... ... : ... .. . ... ... : ... .. . ... : ... .. . ... : ... .. . Z30 ...
ROW 87 : ... .. 1 ... ... : ... .. 1 ... ... : ... .. . ... : ... .. . ... : ... .. . Z30 ...
ROW 88 : ... .. 0 ... ... : ... .. 0 ... ... : --- .. . ... : ... .. . ... : ... .. . Z30 ...
ROW 89 : ... .. . ... ... : ... .. . ... ... : ... .. . ... : ... .. . ... : ... .. . Z30 ...
ROW 8A : ... .. . ... ... : ... .. . ... ... : ... .. . ... : ... .. . ... : ... .. . Z30 ...
ROW 8B : ... .. . ... ... : ... .. . ... ... : ... .. . ... : ... .. . ... : ... .. . Z30 ...
ROW 8C : ... .. . ... ... : ... .. . ... ... : ... .. . ... : ... .. . ... : ... .. . Z30 ...
ROW 8D : ... .. . ... ... : ... .. . ... ... : ... .. . ... : ... .. . ... : ... .. . Z30 ...
ROW 8E : ... .. . ... ... : ... .. . ... ... : ... .. . ... : ... .. . ... : ... .. . Z30 ...
ROW 8F : ... .. . ... ... : ... .. . ... ... : ... .. . ... : ... .. . ... : ... .. . Z30 ...
ROW 90 : ... .. . ... ... : ... .. 5 ... V00 : B-2 00 . P7D : B-# 00 0 V01 : ... .. . Z30 ...
ROW 91 : ... .. . ... ... : ... .. 3 ... V02 : ... .. . ... : ... .. . ... : ... .. . Z30 ...
ROW 92 : ... .. . ... ... : ... .. 4 ... ... : ... .. . ... : ... .. . ... : ... .. . Z30 ...
ROW 93 : ... .. . ... ... : ... .. 5 ... ... : ... .. . ... : ... .. . ... : ... .. . Z30 ...
ROW 94 : ... .. . ... ... : ... .. . ... ... : ... .. . ... : ... .. . ... : ... .. . Z30 ...
ROW 95 : ... .. . ... ... : ... .. 6 ... ... : ... .. . ... : ... .. . ... : ... .. . Z30 ...
ROW 96 : ... .. . ... ... : ... .. . ... ... : ... .. . ... : ... .. . ... : ... .. . Z30 ...
ROW 97 : ... .. . ... ... : ... .. . ... ... : ... .. . ... : ... .. . ... : ... .. . Z30 ...
ROW 98 : ... .. . ... ... : ... .. . ... ... : --- .. . ... : ... .. . ... : ... .. . Z30 ...
ROW 99 : ... .. . ... ... : ... .. . ... ... : ... .. . ... : ... .. . ... : ... .. . Z30 ...
ROW 9A : ... .. . ... ... : ... .. . ... ... : ... .. . ... : ... .. . ... : ... .. . Z30 ...
ROW 9B : ... .. . ... ... : ... .. . ... ... : ... .. . ... : ... .. . ... : ... .. . Z30 ...
ROW 9C : ... .. . ... ... : ... .. . ... ... : ... .. . ... : ... .. . ... : ... .. . Z30 ...
ROW 9D : ... .. . ... ... : ... .. . ... ... : ... .. . ... : ... .. . ... : ... .. . Z30 ...
ROW 9E : ... .. . ... ... : ... .. . ... ... : ... .. . ... : ... .. . ... : ... .. . Z30 ...
ROW 9F : ... .. . ... ... : ... .. . ... ... : ... .. . ... : ... .. . ... : ... .. . Z30 ...
ROW A0 : ... .. . ... ... : G-4 00 5 P80 V00 : G-3 00 . P80 : C-# 00 C V00 : ... .. . Z30 ...
ROW A1 : ... .. . ... ... : ... .. 3 ... V02 : ... .. . ... : ... .. 0 ... : ... .. . Z30 ...
ROW A2 : ... .. . ... ... : ... .. 4 ... ... : ... .. . ... : ... .. . ... : ... .. . Z30 ...
ROW A3 : ... .. . ... ... : ... .. 5 ... ... : ... .. . ... : ... .. . ... : ... .. . Z30 ...
ROW A4 : ... .. . ... ... : ... .. . ... ... : ... .. . ... : ... .. . ... : ... .. . Z30 ...
ROW A5 : ... .. . ... ... : ... .. 6 ... ... : ... .. . ... : ... .. . ... : ... .. . Z30 ...
ROW A6 : ... .. . ... ... : ... .. . ... ... : ... .. . ... : ... .. . ... : ... .. . Z30 ...
ROW A7 : ... .. . ... ... : ... .. . ... ... : ... .. . ... : ... .. . ... : ... .. . Z30 ...
ROW A8 : ... .. . ... ... : ... .. 0 ... ... : --- .. . ... : ... .. C ... : ... .. . Z30 ...
ROW A9 : ... .. . ... ... : ... .. . ... ... : ... .. . ... : ... .. 0 ... : ... .. . Z30 ...
ROW AA : ... .. . ... ... : ... .. . ... ... : ... .. . ... : ... .. . ... : ... .. . Z30 ...
ROW AB : ... .. . ... ... : ... .. . ... ... : ... .. . ... : ... .. . ... : ... .. . Z30 ...
ROW AC : ... .. . ... ... : ... .. . ... ... : ... .. . ... : ... .. . ... : ... .. . Z30 ...
ROW AD : ... .. . ... ... : ... .. . ... ... : ... .. . ... : ... .. . ... : ... .. . Z30 ...
ROW AE : ... .. . ... ... : ... .. . ... ... : ... .. . ... : ... .. . ... : ... .. . Z30 ...
ROW AF : ... .. . ... ... : ... .. . ... ... : ... .. . ... : ... .. . ... : ... .. . Z30 ...
ROW B0 : ... .. . ... ... : ... .. . ... ... : F-4 00 . P80 : ... .. C ... : ... .. . Z30 ...
ROW B1 : ... .. . ... ... : ... .. . ... ... : ... .. . ... : ... .. . ... : ... .. . Z30 ...
ROW B2 : ... .. . ... ... : ... .. . ... ... : ... .. . ... : ... .. . ... : ... .. . Z30 ...
ROW B3 : ... .. . ... ... : ... .. . ... ... : ... .. . ... : ... .. . ... : ... .. . Z30 ...
ROW B4 : ... .. . ... ... : ... .. . ... ... : ... .. . ... : ... .. . ... : ... .. . Z30 ...
ROW B5 : ... .. . ... ... : ... .. . ... ... : ... .. . ... : ... .. 0 ... : ... .. . Z30 ...
ROW B6 : ... .. . ... ... : ... .. . ... ... : ... .. . ... : ... .. . ... : ... .. . Z30 ...
ROW B7 : ... .. . ... ... : ... .. . ... ... : ... .. . ... : ... .. . ... : ... .. . Z30 ...
ROW B8 : ... .. . ... ... : F-4 00 5 P80 V00 : --- .. . ... : ... .. . ... : ... .. . Z30 ...
ROW B9 : ... .. . ... ... : ... .. 3 ... V02 : ... .. . ... : ... .. . ... : ... .. . Z30 ...
ROW BA : ... .. . ... ... : ... .. 4 ... ... : ... .. . ... : ... .. . ... : ... .. . Z30 ...
ROW BB : ... .. . ... ... : ... .. 5 ... ... : ... .. . ... : ... .. . ... : ... .. . Z30 ...
ROW BC : ... .. . ... ... : ... .. . ... ... : ... .. . ... : ... .. . ... : ... .. . Z30 ...
ROW BD : ... .. . ... ... : ... .. 6 ... ... : ... .. . ... : ... .. . ... : ... .. . Z30 ...
ROW BE : ... .. . ... ... : ... .. . ... ... : ... .. . ... : ... .. . ... : ... .. . Z30 ...
ROW BF : ... .. . ... ... : ... .. . ... ... : ... .. . ... : ... .. . ... : ... .. . Z30 ...

PATTERN 07
ROW 00 : C-3 00 5 P80 V00 : E-4 00 5 P7F V00 : C-2 00 . P80 : B-# 00 0 V01 : ... .. . Z30 ...
ROW 01 : ... .. 3 ... V02 : ... .. 3 ... V02 : ... .. . ... : ... .. . ... : ... .. . Z30 ...
ROW 02 : ... .. 4 ... ... : ... .. 4 ... ... : ... .. . ... : ... .. . ... : ... .. . Z30 ...
ROW 03 : ... .. 5 ... ... : ... .. 5 ... ... : ... .. . ... : ... .. . ... : ... .. . Z30 ...
ROW 04 : ... .. . ... ... : ... .. . ... ... : ... .. . ... : ... .. . ... : ... .. . Z30 ...
ROW 05 : ... .. 6 ... ... : ... .. 6 ... ... : ... .. . ... : ... .. . ... : ... .. . Z30 ...
ROW 06 : ... .. . ... ... : ... .. . ... ... : ... .. . ... : ... .. . ... : ... .. . Z30 ...
ROW 07 : ... .. . ... ... : ... .. . ... ... : ... .. . ... : ... .. . ... : ... .. . Z30 ...
ROW 08 : ... .. . ... ... : ... .. . ... ... : --- .. . ... : ... .. . ... : ... .. . Z30 ...
ROW 09 : ... .. . ... ... : ... .. . ... ... : ... .. . ... : ... .. . ... : ... .. . Z30 ...
ROW 0A : ... .. . ... ... : ... .. . ... ... : ... .. . ... : ... .. . ... : ... .. . Z30 ...
ROW 0B : ... .. . ... ... : ... .. . ... ... : ... .. . ... : ... .. . ... : ... .. . Z30 ...
ROW 0C : ... .. . ... ... : ... .. . ... ... : ... .. . ... : ... .. . ... : ... .. . Z30 ...
ROW 0D : ... .. . ... ... : ... .. . ... ... : ... .. . ... : ... .. . ... : ... .. . Z30 ...
ROW 0E : ... .. . ... ... : ... .. . ... ... : ... .. . ... : ... .. . ... : ... .. . Z30 ...
ROW 0F : ... .. . ... ... : ... .. . ... ... : ... .. . ... : ... .. . ... : ... .. . Z30 ...
ROW 10 : ... .. . ... ... : ... .. . ... ... : G-3 00 . P80 : C-# 00 C V00 : ... .. . Z30 ...
ROW 11 : ... .. . ... ... : ... .. . ... ... : ... .. . ... : ... .. 0 ... : ... .. . Z30 ...
ROW 12 : ... .. . ... ... : ... .. . ... ... : ... .. . ... : ... .. . ... : ... .. . Z30 ...
ROW 13 : ... .. . ... ... : ... .. . ... ... : ... .. . ... : ... .. . ... : ... .. . Z30 ...
ROW 14 : ... .. . ... ... : ... .. . ... ... : ... .. . ... : ... .. . ... : ... .. . Z30 ...
ROW 15 : ... .. . ... ... : ... .. . ... ... : ... .. . ... : ... .. . ... : ... .. . Z30 ...
ROW 16 : ... .. 5 ... ... : ... .. 5 ... ... : ... .. . ... : ... .. . ... : ... .. . Z30 ...
ROW 17 : ... .. . ... ... : ... .. . ... ... : ... .. . ... : ... .. . ... : ... .. . Z30 ...
ROW 18 : ... .. . ... ... : ... .. . ... ... : --- .. . ... : ... .. . ... : ... .. . Z30 ...
ROW 19 : ... .. . ... ... : ... .. . ... ... : ... .. . ... : ... .. . ... : ... .. . Z30 ...
ROW 1A : ... .. . ... ... : ... .. . ... ... : ... .. . ... : ... .. . ... : ... .. . Z30 ...
ROW 1B : ... .. . ... ... : ... .. . ... ... : ... .. . ... : ... .. . ... : ... .. . Z30 ...
ROW 1C : ... .. 4 ... ... : ... .. 4 ... ... : ... .. . ... : ... .. . ... : ... .. . Z30 ...
ROW 1D : ... .. . ... ... : ... .. . ... ... : ... .. . ... : ... .. . ... : ... .. . Z30 ...
ROW 1E : ... .. . ... ... : ... .. . ... ... : ... .. . ... : ... .. . ... : ... .. . Z30 ...
ROW 1F : ... .. . ... ... : ... .. . ... ... : ... .. . ... : ... .. . ... : ... .. . Z30 ...
ROW 20 : ... .. . ... ... : ... .. . ... ... : E-4 00 . P7F : ... .. C ... : ... .. . Z30 ...
ROW 21 : ... .. . ... ... : ... .. . ... ... : ... .. . ... : ... .. . ... : ... .. . Z30 ...
ROW 22 : ... .. 3 ... ... : ... .. 3 ... ... : ... .. . ... : ... .. . ... : ... .. . Z30 ...
ROW 23 : ... .. . ... ... : ... .. . ... ... : ... .. . ... : ... .. . ... : ... .. . Z30 ...
ROW 24 : ... .. . ... ... : ... .. . ... ... : ... .. . ... : ... .. . ... : ... .. . Z30 ...
ROW 25 : ... .. 2 ... ... : ... .. 2 ... ... : ... .. . ... : ... .. 0 ... : ... .. . Z30 ...
ROW 26 : ... .. . ... ... : ... .. . ... ... : ... .. . ... : ... .. . ... : ... .. . Z30 ...
ROW 27 : ... .. 1 ... ... : ... .. 1 ... ... : ... .. . ... : ... .. . ... : ... .. . Z30 ...
ROW 28 : ... .. 0 ... ... : ... .. 0 ... ... : --- .. . ... : ... .. . ... : ... .. . Z30 ...
ROW 29 : ... .. . ... ... : ... .. . ... ... : ... .. . ... : ... .. . ... : ... .. . Z30 ...
ROW 2A : ... .. . ... ... : ... .. . ... ... : ... .. . ... : ... .. . ... : ... .. . Z30 ...
ROW 2B : ... .. . ... ... : ... .. . ... ... : ... .. . ... : ... .. . ... : ... .. . Z30 ...
ROW 2C : ... .. . ... ... : ... .. . ... ... : ... .. . ... : ... .. . ... : ... .. . Z30 ...
ROW 2D : ... .. . ... ... : ... .. . ... ... : ... .. . ... : ... .. . ... : ... .. . Z30 ...
ROW 2E : ... .. . ... ... : ... .. . ... ... : ... .. . ... : ... .. . ... : ... .. . Z30 ...
ROW 2F : ... .. . ... ... : ... .. . ... ... : ... .. . ... : ... .. . ... : ... .. . Z30 ...
ROW 30 : F-3 00 5 P80 V00 : A-3 00 5 P7E V00 : G-2 00 . P81 : B-# 00 0 V01 : ... .. . Z30 ...
ROW 31 : ... .. 3 ... V02 : ... .. 3 ... V02 : ... .. . ... : ... .. . ... : ... .. . Z30 ...
ROW 32 : ... .. 4 ... ... : ... .. 4 ... ... : ... .. . ... : ... .. . ... : ... .. . Z30 ...
ROW 33 : ... .. 5 ... ... : ... .. 5 ... ... : ... .. . ... : ... .. . ... : ... .. . Z30 ...
ROW 34 : ... .. . ... ... : ... .. . ... ... : ... .. . ... : ... .. . ... : ... .. . Z30 ...
ROW 35 : ... .. 6 ... ... : ... .. 6 ... ... : ... .. . ... : ... .. . ... : ... .. . Z30 ...
ROW 36 : ... .. . ... ... : ... .. . ... ... : ... .. . ... : ... .. . ... : ... .. . Z30 ...
ROW 37 : ... .. . ... ... : ... .. . ... ... : ... .. . ... : ... .. . ... : ... .. . Z30 ...
ROW 38 : ... .. . ... ... : ... .. . ... ... : --- .. . ... : ... .. . ... : ... .. . Z30 ...
ROW 39 : ... .. . ... ... : ... .. . ... ... : ... .. . ... : ... .. . ... : ... .. . Z30 ...
ROW 3A : ... .. . ... ... : ... .. . ... ... : ... .. . ... : ... .. . ... : ... .. . Z30 ...
ROW 3B : ... .. . ... ... : ... .. . ... ... : ... .. . ... : ... .. . ... : ... .. . Z30 ...
ROW 3C : ... .. . ... ... : ... .. . ... ... : ... .. . ... : ... .. . ... : ... .. . Z30 ...
ROW 3D : ... .. . ... ... : ... .. . ... ... : ... .. . ... : ... .. . ... : ... .. . Z30 ...
ROW 3E : ... .. . ... ... : ... .. . ... ... : ... .. . ... : ... .. . ... : ... .. . Z30 ...
ROW 3F : ... .. . ... ... : ... .. . ... ... : ... .. . ... : ... .. . ... : ... .. . Z30 ...
ROW 40 : G-3 00 5 P80 V00 : B-3 00 5 P7E V00 : G-3 00 . P80 : C-# 00 C V00 : ... .. . Z30 ...
ROW 41 : ... .. 3 ... V02 : ... .. 3 ... V02 : ... .. . ... : ... .. 0 ... : ... .. . Z30 ...
ROW 42 : ... .. 4 ... ... : ... .. 4 ... ... : ... .. . ... : ... .. . ... : ... .. . Z30 ...
ROW 43 : ... .. 5 ... ... : ... .. 5 ... ... : ... .. . ... : ... .. . ... : ... .. . Z30 ...
ROW 44 : ... .. . ... ... : ... .. . ... ... : ... .. . ... : ... .. . ... : ... .. . Z30 ...
ROW 45 : ... .. 6 ... ... : ... .. 6 ... ... : ... .. . ... : ... .. . ... : ... .. . Z30 ...
ROW 46 : ... .. . ... ... : ... .. . ... ... : ... .. . ... : ... .. . ... : ... .. . Z30 ...
ROW 47 : ... .. . ... ... : ... .. . ... ... : ... .. . ... : ... .. . ... : ... .. . Z30 ...
ROW 48 : ... .. . ... ... : ... .. . ... ... : --- .. . ... : ... .. C ... : ... .. . Z30 ...
ROW 49 : ... .. . ... ... : ... .. . ... ... : ... .. . ... : ... .. 0 ... : ... .. . Z30 ...
ROW 4A : ... .. . ... ... : ... .. . ... ... : ... .. . ... : ... .. . ... : ... .. . Z30 ...
ROW 4B : ... .. . ... ... : ... .. . ... ... : ... .. . ... : ... .. . ... : ... .. . Z30 ...
ROW 4C : ... .. . ... ... : ... .. . ... ... : ... .. . ... : ... .. . ... : ... .. . Z30 ...
ROW 4D : ... .. . ... ... : ... .. . ... ... : ... .. . ... : ... .. . ... : ... .. . Z30 ...
ROW 4E : ... .. . ... ... : ... .. . ... ... : ... .. . ... : ... .. . ... : ... .. . Z30 ...
ROW 4F : ... .. . ... ... : ... .. . ... ... : ... .. . ... : ... .. . ... : ... .. . Z30 ...
ROW 50 : B-3 00 5 P7E V00 : F-4 00 5 P80 V00 : G-3 00 . P80 : ... .. C ... : ... .. . Z30 ...
ROW 51 : ... .. 3 ... V02 : ... .. 3 ... V02 : ... .. . ... : ... .. . ... : ... .. . Z30 ...
ROW 52 : ... .. 4 ... ... : ... .. 4 ... ... : ... .. . ... : ... .. . ... : ... .. . Z30 ...
ROW 53 : ... .. 5 ... ... : ... .. 5 ... ... : ... .. . ... : ... .. . ... : ... .. . Z30 ...
ROW 54 : ... .. . ... ... : ... .. . ... ... : ... .. . ... : ... .. . ... : ... .. . Z30 ...
ROW 55 : ... .. 6 ... ... : ... .. 6 ... ... : ... .. . ... : ... .. 0 ... : ... .. . Z30 ...
ROW 56 : ... .. . ... ... : ... .. . ... ... : ... .. . ... : ... .. . ... : ... .. . Z30 ...
ROW 57 : ... .. . ... ... : ... .. . ... ... : ... .. . ... : ... .. . ... : ... .. . Z30 ...
ROW 58 : ... .. . ... ... : ... .. . ... ... : --- .. . ... : ... .. . ... : ... .. . Z30 ...
ROW 59 : ... .. . ... ... : ... .. . ... ... : ... .. . ... : ... .. . ... : ... .. . Z30 ...
ROW 5A : ... .. . ... ... : ... .. . ... ... : ... .. . ... : ... .. . ... : ... .. . Z30 ...
ROW 5B : ... .. . ... ... : ... .. . ... ... : ... .. . ... : ... .. . ... : ... .. . Z30 ...
ROW 5C : ... .. . ... ... : ... .. . ... ... : ... .. . ... : ... .. . ... : ... .. . Z30 ...
ROW 5D : ... .. . ... ... : ... .. . ... ... : ... .. . ... : ... .. . ... : ... .. . Z30 ...
ROW 5E : ... .. . ... ... : ... .. . ... ... : ... .. . ... : ... .. . ... : ... .. . Z30 ...
ROW 5F : ... .. . ... ... : ... .. . ... ... : ... .. . ... : ... .. . ... : ... .. . Z30 ...
ROW 60 : ... .. 5 ... V00 : E-4 00 5 P7F V00 : F-3 00 . P80 : B-# 00 0 V01 : ... .. . Z30 ...
ROW 61 : ... .. 3 ... V02 : ... .. 3 ... V02 : ... .. . ... : ... .. . ... : ... .. . Z30 ...
ROW 62 : ... .. 4 ... ... : ... .. 4 ... ... : ... .. . ... : ... .. . ... : ... .. . Z30 ...
ROW 63 : ... .. 5 ... ... : ... .. 5 ... ... : ... .. . ... : ... .. . ... : ... .. . Z30 ...
ROW 64 : ... .. . ... ... : ... .. . ... ... : ... .. . ... : ... .. . ... : ... .. . Z30 ...
ROW 65 : ... .. 6 ... ... : ... .. 6 ... ... : ... .. . ... : ... .. . ... : ... .. . Z30 ...
ROW 66 : ... .. . ... ... : ... .. . ... ... : ... .. . ... : ... .. . ... : ... .. . Z30 ...
ROW 67 : ... .. . ... ... : ... .. . ... ... : ... .. . ... : ... .. . ... : ... .. . Z30 ...
ROW 68 : ... .. 5 ... V00 : ... .. 5 ... V00 : ... .. . ... : ... .. . ... : ... .. . Z30 ...
ROW 69 : ... .. 3 ... V02 : ... .. 3 ... V02 : ... .. . ... : ... .. . ... : ... .. . Z30 ...
ROW 6A : ... .. 4 ... ... : ... .. 4 ... ... : ... .. . ... : ... .. . ... : ... .. . Z30 ...
ROW 6B : ... .. 5 ... ... : ... .. 5 ... ... : ... .. . ... : ... .. . ... : ... .. . Z30 ...
ROW 6C : ... .. . ... ... : ... .. . ... ... : ... .. . ... : ... .. . ... : ... .. . Z30 ...
ROW 6D : ... .. 6 ... ... : ... .. 6 ... ... : ... .. . ... : ... .. . ... : ... .. . Z30 ...
ROW 6E : ... .. . ... ... : ... .. . ... ... : ... .. . ... : ... .. . ... : ... .. . Z30 ...
ROW 6F : ... .. . ... ... : ... .. . ... ... : ... .. . ... : ... .. . ... : ... .. . Z30 ...
ROW 70 : ... .. 5 ... V00 : ... .. 5 ... V00 : ... .. . ... : C-# 00 C V00 : ... .. . Z30 ...
ROW 71 : ... .. 3 ... V02 : ... .. 3 ... V02 : ... .. . ... : ... .. 0 ... : ... .. . Z30 ...
ROW 72 : ... .. 4 ... ... : ... .. 4 ... ... : ... .. . ... : ... .. . ... : ... .. . Z30 ...
ROW 73 : ... .. 5 ... ... : ... .. 5 ... ... : ... .. . ... : ... .. . ... : ... .. . Z30 ...
ROW 74 : ... .. . ... ... : ... .. . ... ... : ... .. . ... : ... .. . ... : ... .. . Z30 ...
ROW 75 : ... .. 6 ... ... : ... .. 6 ... ... : ... .. . ... : ... .. . ... : ... .. . Z30 ...
ROW 76 : ... .. . ... ... : ... .. . ... ... : ... .. . ... : ... .. . ... : ... .. . Z30 ...
ROW 77 : ... .. . ... ... : ... .. . ... ... : ... .. . ... : ... .. . ... : ... .. . Z30 ...
ROW 78 : ... .. . ... ... : ... .. . ... ... : ... .. . ... : ... .. . ... : ... .. . Z30 ...
ROW 79 : ... .. . ... ... : ... .. . ... ... : ... .. . ... : ... .. . ... : ... .. . Z30 ...
ROW 7A : ... .. . ... ... : ... .. . ... ... : ... .. . ... : ... .. . ... : ... .. . Z30 ...
ROW 7B : ... .. . ... ... : ... .. . ... ... : ... .. . ... : ... .. . ... : ... .. . Z30 ...
ROW 7C : ... .. . ... ... : ... .. . ... ... : ... .. . ... : ... .. . ... : ... .. . Z30 ...
ROW 7D : ... .. . ... ... : ... .. . ... ... : ... .. . ... : ... .. . ... : ... .. . Z30 ...
ROW 7E : ... .. . ... ... : ... .. . ... ... : ... .. . ... : ... .. . ... : ... .. . Z30 ...
ROW 7F : ... .. . ... ... : ... .. . ... ... : ... .. . ... : ... .. . ... : ... .. . Z30 ...
ROW 80 : ... .. . ... ... : ... .. . ... ... : ... .. . ... : ... .. C ... : ... .. . Z30 ...
ROW 81 : ... .. . ... ... : ... .. . ... ... : ... .. . ... : ... .. . ... : ... .. . Z30 ...
ROW 82 : ... .. . ... ... : ... .. . ... ... : ... .. . ... : ... .. . ... : ... .. . Z30 ...
ROW 83 : ... .. . ... ... : ... .. . ... ... : ... .. . ... : ... .. . ... : ... .. . Z30 ...
ROW 84 : ... .. . ... ... : ... .. . ... ... : ... .. . ... : ... .. . ... : ... .. . Z30 ...
ROW 85 : ... .. . ... ... : ... .. . ... ... : ... .. . ... : ... .. 0 ... : ... .. . Z30 ...
ROW 86 : ... .. 5 ... ... : ... .. 5 ... ... : ... .. . ... : ... .. . ... : ... .. . Z30 ...
ROW 87 : ... .. . ... ... : ... .. . ... ... : ... .. . ... : ... .. . ... : ... .. . Z30 ...
ROW 88 : F-3 00 5 P80 V00 : B-3 00 5 P7E V00 : B-2 00 . P7D : ... .. . ... : ... .. . Z30 ...
ROW 89 : ... .. 3 ... V02 : ... .. 3 ... V02 : ... .. . ... : ... .. . ... : ... .. . Z30 ...
ROW 8A : ... .. 4 ... ... : ... .. 4 ... ... : ... .. . ... : ... .. . ... : ... .. . Z30 ...
ROW 8B : ... .. 5 ... ... : ... .. 5 ... ... : ... .. . ... : ... .. . ... : ... .. . Z30 ...
ROW 8C : ... .. . ... ... : ... .. . ... ... : ... .. . ... : ... .. . ... : ... .. . Z30 ...
ROW 8D : ... .. 6 ... ... : ... .. 6 ... ... : ... .. . ... : ... .. . ... : ... .. . Z30 ...
ROW 8E : ... .. . ... ... : ... .. . ... ... : ... .. . ... : ... .. . ... : ... .. . Z30 ...
ROW 8F : ... .. . ... ... : ... .. . ... ... : ... .. . ... : ... .. . ... : ... .. . Z30 ...
ROW 90 : E-3 00 5 P7D V00 : C-4 00 5 P80 V00 : C-3 00 . P80 : B-# 00 0 V01 : ... .. . Z30 ...
ROW 91 : ... .. 3 ... V02 : ... .. 3 ... V02 : ... .. . ... : ... .. . ... : ... .. . Z30 ...
ROW 92 : ... .. 4 ... ... : ... .. 4 ... ... : ... .. . ... : ... .. . ... : ... .. . Z30 ...
ROW 93 : ... .. 5 ... ... : ... .. 5 ... ... : ... .. . ... : ... .. . ... : ... .. . Z30 ...
ROW 94 : ... .. . ... ... : ... .. . ... ... : ... .. . ... : ... .. . ... : ... .. . Z30 ...
ROW 95 : ... .. 6 ... ... : ... .. 6 ... ... : ... .. . ... : ... .. . ... : ... .. . Z30 ...
ROW 96 : ... .. . ... ... : ... .. . ... ... : ... .. . ... : ... .. . ... : ... .. . Z30 ...
ROW 97 : ... .. . ... ... : ... .. . ... ... : ... .. . ... : ... .. . ... : ... .. . Z30 ...
ROW 98 : ... .. . ... ... : ... .. . ... ... : ... .. . ... : ... .. . ... : ... .. . Z30 ...
ROW 99 : ... .. . ... ... : ... .. . ... ... : ... .. . ... : ... .. . ... : ... .. . Z30 ...
ROW 9A : ... .. . ... ... : ... .. . ... ... : ... .. . ... : ... .. . ... : ... .. . Z30 ...
ROW 9B : ... .. . ... ... : ... .. . ... ... : ... .. . ... : ... .. . ... : ... .. . Z30 ...
ROW 9C : ... .. . ... ... : ... .. . ... ... : ... .. . ... : ... .. . ... : ... .. . Z30 ...
ROW 9D : ... .. . ... ... : ... .. . ... ... : ... .. . ... : ... .. . ... : ... .. . Z30 ...
ROW 9E : ... .. . ... ... : ... .. . ... ... : ... .. . ... : ... .. . ... : ... .. . Z30 ...
ROW 9F : ... .. . ... ... : ... .. . ... ... : ... .. . ... : ... .. . ... : ... .. . Z30 ...
ROW A0 : ... .. . ... ... : ... .. . ... ... : ... .. . ... : C-# 00 C V00 : ... .. . Z30 ...
ROW A1 : ... .. . ... ... : ... .. . ... ... : ... .. . ... : ... .. 0 ... : ... .. . Z30 ...
ROW A2 : ... .. . ... ... : ... .. . ... ... : ... .. . ... : ... .. . ... : ... .. . Z30 ...
ROW A3 : ... .. . ... ... : ... .. . ... ... : ... .. . ... : ... .. . ... : ... .. . Z30 ...
ROW A4 : ... .. . ... ... : ... .. . ... ... : ... .. . ... : ... .. . ... : ... .. . Z30 ...
ROW A5 : ... .. . ... ... : ... .. . ... ... : ... .. . ... : ... .. . ... : ... .. . Z30 ...
ROW A6 : ... .. 5 ... ... : ... .. 5 ... ... : ... .. . ... : ... .. . ... : ... .. . Z30 ...
ROW A7 : ... .. . ... ... : ... .. . ... ... : ... .. . ... : ... .. . ... : ... .. . Z30 ...
ROW A8 : ... .. . ... ... : ... .. . ... ... : ... .. . ... : ... .. C ... : ... .. . Z30 ...
ROW A9 : ... .. . ... ... : ... .. . ... ... : ... .. . ... : ... .. 0 ... : ... .. . Z30 ...
ROW AA : ... .. . ... ... : ... .. . ... ... : ... .. . ... : ... .. . ... : ... .. . Z30 ...
ROW AB : ... .. . ... ... : ... .. . ... ... : ... .. . ... : ... .. . ... : ... .. . Z30 ...
ROW AC : ... .. 4 ... ... : ... .. 4 ... ... : ... .. . ... : ... .. . ... : ... .. . Z30 ...
ROW AD : ... .. . ... ... : ... .. . ... ... : ... .. . ... : ... .. . ... : ... .. . Z30 ...
ROW AE : ... .. . ... ... : ... .. . ... ... : ... .. . ... : ... .. . ... : ... .. . Z30 ...
ROW AF : ... .. . ... ... : ... .. . ... ... : ... .. . ... : ... .. . ... : ... .. . Z30 ...
ROW B0 : ... .. . ... ... : ... .. . ... ... : ... .. . ... : ... .. C ... : ... .. . Z30 ...
ROW B1 : ... .. . ... ... : ... .. . ... ... : ... .. . ... : ... .. . ... : ... .. . Z30 ...
ROW B2 : ... .. 3 ... ... : ... .. 3 ... ... : ... .. . ... : ... .. . ... : ... .. . Z30 ...
ROW B3 : ... .. . ... ... : ... .. . ... ... : ... .. . ... : ... .. . ... : ... .. . Z30 ...
ROW B4 : ... .. . ... ... : ... .. . ... ... : ... .. . ... : ... .. . ... : ... .. . Z30 ...
ROW B5 : ... .. 2 ... ... : ... .. 2 ... ... : ... .. . ... : ... .. 0 ... : ... .. . Z30 ...
ROW B6 : ... .. . ... ... : ... .. . ... ... : ... .. . ... : ... .. . ... : ... .. . Z30 ...
ROW B7 : ... .. 1 ... ... : ... .. 1 ... ... : ... .. . ... : ... .. . ... : ... .. . Z30 ...
ROW B8 : ... .. 0 ... ... : ... .. 0 ... ... : ... .. . ... : ... .. . ... : ... .. . Z30 ...
ROW B9 : ... .. . ... ... : ... .. . ... ... : ... .. . ... : ... .. . ... : ... .. . Z30 ...
ROW BA : ... .. . ... ... : ... .. . ... ... : ... .. . ... : ... .. . ... : ... .. . Z30 ...
ROW BB : ... .. . ... ... : ... .. . ... ... : ... .. . ... : ... .. . ... : ... .. . Z30 ...
ROW BC : ... .. . ... ... : ... .. . ... ... : ... .. . ... : ... .. . ... : ... .. . Z30 ...
ROW BD : ... .. . ... ... : ... .. . ... ... : ... .. . ... : ... .. . ... : ... .. . Z30 ...
ROW BE : ... .. . ... ... : ... .. . ... ... : ... .. . ... : ... .. . ... : ... .. . Z30 ...
ROW BF : ... .. . ... ... : ... .. . ... ... : ... .. . ... : ... .. . ... : ... .. . Z30 ...

TRACK  80   1 150 "Castleworld"
COLUMNS : 2 2 1 1 2

ORDER 00 : 00 00 00 00 00
ORDER 01 : 01 01 01 01 01
ORDER 02 : 02 02 02 02 02
ORDER 03 : 03 03 03 03 03
ORDER 04 : 04 04 04 04 04
ORDER 05 : 05 05 05 05 05
ORDER 06 : 06 06 06 06 06

PATTERN 00
ROW 00 : --- .. 0 P7D V02 : G-3 00 0 P80 V02 : D#3 00 . P83 : F-# 00 0 V00 : --- .. . Z30 ...
ROW 01 : ... .. . ... ... : ... .. 8 ... ... : ... .. . ... : ... .. . ... : ... .. . Z2F ...
ROW 02 : ... .. . ... ... : ... .. 7 ... ... : ... .. . ... : ... .. . ... : ... .. . Z2E ...
ROW 03 : ... .. . ... ... : ... .. 6 ... ... : ... .. . ... : ... .. . ... : ... .. . Z2D ...
ROW 04 : ... .. . ... ... : ... .. 5 ... ... : ... .. . ... : ... .. . ... : ... .. . Z2C ...
ROW 05 : D-4 00 0 P80 ... : A#3 00 0 P7C ... : ... .. . ... : ... .. . ... : ... .. . Z2B ...
ROW 06 : ... .. 8 ... ... : ... .. 8 ... ... : ... .. . ... : ... .. . ... : ... .. . Z2A ...
ROW 07 : ... .. 7 ... ... : ... .. 7 ... ... : ... .. . ... : ... .. . ... : ... .. . Z29 ...
ROW 08 : ... .. 6 ... ... : ... .. 6 ... ... : ... .. . ... : ... .. . ... : ... .. . Z28 ...
ROW 09 : ... .. 5 ... ... : ... .. 5 ... ... : ... .. . ... : ... .. . ... : ... .. . Z27 ...
ROW 0A : ... .. . ... ... : G-3 00 0 P80 ... : ... .. . ... : ... .. . ... : ... .. . Z26 ...
ROW 0B : ... .. 4 ... ... : ... .. 8 ... ... : ... .. . ... : ... .. . ... : ... .. . Z25 ...
ROW 0C : ... .. . ... ... : ... .. 7 ... ... : ... .. . ... : ... .. . ... : ... .. . Z24 ...
ROW 0D : ... .. 0 ... ... : ... .. 6 ... ... : ... .. . ... : ... .. . ... : ... .. . Z23 ...
ROW 0E : ... .. . ... ... : ... .. 5 ... ... : ... .. . ... : ... .. . ... : ... .. . Z22 ...
ROW 0F : C#4 00 0 P81 ... : A-3 00 0 P7E ... : ... .. . ... : ... .. . ... : ... .. . Z21 ...
ROW 10 : ... .. 8 ... ... : ... .. 8 ... ... : ... .. . ... : ... .. . ... : ... .. . Z20 ...
ROW 11 : ... .. 7 ... ... : ... .. 7 ... ... : ... .. . ... : ... .. . ... : ... .. . Z1F ...
ROW 12 : ... .. 6 ... ... : ... .. 6 ... ... : ... .. . ... : ... .. . ... : ... .. . Z1E ...
ROW 13 : ... .. 5 ... ... : ... .. 5 ... ... : ... .. . ... : ... .. . ... : ... .. . Z1D ...
ROW 14 : ... .. . ... ... : G-3 00 0 P80 ... : ... .. . ... : ... .. . ... : ... .. . Z1C ...
ROW 15 : ... .. 4 ... ... : ... .. 8 ... ... : ... .. . ... : ... .. . ... : ... .. . Z1B ...
ROW 16 : ... .. . ... ... : ... .. 7 ... ... : ... .. . ... : ... .. . ... : ... .. . Z1A ...
ROW 17 : ... .. 0 ... ... : ... .. 6 ... ... : ... .. . ... : ... .. . ... : ... .. . Z19 ...
ROW 18 : ... .. . ... ... : ... .. 5 ... ... : ... .. . ... : ... .. . ... : ... .. . Z18 ...
ROW 19 : C-4 00 0 P80 ... : G#3 00 0 P82 ... : ... .. . ... : ... .. . ... : ... .. . Z17 ...
ROW 1A : ... .. 8 ... ... : ... .. 8 ... ... : ... .. . ... : ... .. . ... : ... .. . Z16 ...
ROW 1B : ... .. 7 ... ... : ... .. 7 ... ... : ... .. . ... : ... .. . ... : ... .. . Z15 ...
ROW 1C : ... .. 6 ... ... : ... .. 6 ... ... : ... .. . ... : ... .. . ... : ... .. . Z14 ...
ROW 1D : ... .. 5 ... ... : ... .. 5 ... ... : ... .. . ... : ... .. . ... : ... .. . Z13 ...
ROW 1E : ... .. . ... ... : G-3 00 0 P80 ... : ... .. . ... : ... .. . ... : ... .. . Z12 ...
ROW 1F : ... .. 4 ... ... : ... .. 8 ... ... : ... .. . ... : ... .. . ... : ... .. . Z11 ...
ROW 20 : ... .. . ... ... : ... .. 7 ... ... : ... .. . ... : ... .. . ... : ... .. . Z10 ...
ROW 21 : ... .. 0 ... ... : ... .. 6 ... ... : ... .. . ... : ... .. . ... : ... .. . Z0F ...
ROW 22 : ... .. . ... ... : ... .. 5 ... ... : ... .. . ... : ... .. . ... : ... .. . Z0E ...
ROW 23 : C#4 00 0 P81 ... : A-3 00 0 P7E ... : ... .. . ... : ... .. . ... : ... .. . Z0D ...
ROW 24 : ... .. 8 ... ... : ... .. 8 ... ... : ... .. . ... : ... .. . ... : ... .. . Z0C ...
ROW 25 : ... .. 7 ... ... : ... .. 7 ... ... : ... .. . ... : ... .. . ... : ... .. . Z0B ...
ROW 26 : ... .. 6 ... ... : ... .. 6 ... ... : ... .. . ... : ... .. . ... : ... .. . Z0A ...
ROW 27 : ... .. 5 ... ... : ... .. 5 ... ... : ... .. . ... : ... .. . ... : ... .. . Z09 ...
ROW 28 : ... .. . ... ... : G-3 00 0 P80 ... : ... .. . ... : ... .. . ... : ... .. . Z08 ...
ROW 29 : ... .. 4 ... ... : ... .. 8 ... ... : ... .. . ... : ... .. . ... : ... .. . Z07 ...
ROW 2A : ... .. . ... ... : ... .. 7 ... ... : ... .. . ... : ... .. . ... : ... .. . Z06 ...
ROW 2B : ... .. 0 ... ... : ... .. 6 ... ... : ... .. . ... : ... .. . ... : ... .. . Z05 ...
ROW 2C : ... .. . ... ... : ... .. 5 ... ... : ... .. . ... : ... .. . ... : ... .. . Z04 ...
ROW 2D : D-4 00 0 P80 ... : A#3 00 0 P7C ... : ... .. . ... : ... .. . ... : ... .. . Z03 ...
ROW 2E : ... .. 8 ... ... : ... .. 8 ... ... : ... .. . ... : ... .. . ... : ... .. . Z02 ...
ROW 2F : ... .. 7 ... ... : ... .. 7 ... ... : ... .. . ... : ... .. . ... : ... .. . Z01 ...
ROW 30 : ... .. 6 ... ... : ... .. 6 ... ... : ... .. . ... : ... .. . ... : ... .. . Z00 ...
ROW 31 : ... .. 5 ... ... : ... .. 5 ... ... : ... .. . ... : ... .. . ... : ... .. . Z00 ...
ROW 32 : ... .. . ... ... : G-3 00 0 P80 ... : ... .. . ... : ... .. . ... : ... .. . Z00 ...
ROW 33 : ... .. 4 ... ... : ... .. 8 ... ... : ... .. . ... : ... .. . ... : ... .. . Z00 ...
ROW 34 : ... .. . ... ... : ... .. 7 ... ... : ... .. . ... : ... .. . ... : ... .. . Z00 ...
ROW 35 : ... .. 0 ... ... : ... .. 6 ... ... : ... .. . ... : ... .. . ... : ... .. . Z00 ...
ROW 36 : ... .. . ... ... : ... .. 5 ... ... : ... .. . ... : ... .. . ... : ... .. . Z00 ...
ROW 37 : D#4 00 0 P82 ... : B-3 00 0 P7E ... : ... .. . ... : ... .. . ... : ... .. . Z00 ...
ROW 38 : ... .. 8 ... ... : ... .. 8 ... ... : ... .. . ... : ... .. . ... : ... .. . Z00 ...
ROW 39 : ... .. 7 ... ... : ... .. 7 ... ... : ... .. . ... : ... .. . ... : ... .. . Z00 ...
ROW 3A : ... .. 6 ... ... : ... .. 6 ... ... : ... .. . ... : ... .. . ... : ... .. . Z00 ...
ROW 3B : ... .. 5 ... ... : ... .. 5 ... ... : ... .. . ... : ... .. . ... : ... .. . Z00 ...
ROW 3C : ... .. . ... ... : G-3 00 0 P80 ... : ... .. . ... : ... .. . ... : ... .. . Z00 ...
ROW 3D : ... .. 4 ... ... : ... .. 8 ... ... : ... .. . ... : ... .. . ... : ... .. . Z00 ...
ROW 3E : ... .. . ... ... : ... .. 7 ... ... : ... .. . ... : ... .. . ... : ... .. . Z00 ...
ROW 3F : ... .. 0 ... ... : ... .. 6 ... ... : ... .. . ... : ... .. . ... : ... .. . Z00 ...
ROW 40 : ... .. . ... ... : ... .. 5 ... ... : ... .. . ... : ... .. . ... : ... .. . Z00 ...
ROW 41 : D-4 00 0 P80 ... : A#3 00 0 P7C ... : ... .. . ... : ... .. . ... : ... .. . Z00 ...
ROW 42 : ... .. 8 ... ... : ... .. 8 ... ... : ... .. . ... : ... .. . ... : ... .. . Z00 ...
ROW 43 : ... .. 7 ... ... : ... .. 7 ... ... : ... .. . ... : ... .. . ... : ... .. . Z00 ...
ROW 44 : ... .. 6 ... ... : ... .. 6 ... ... : ... .. . ... : ... .. . ... : ... .. . Z00 ...
ROW 45 : ... .. 5 ... ... : ... .. 5 ... ... : ... .. . ... : ... .. . ... : ... .. . Z00 ...
ROW 46 : ... .. . ... ... : G-3 00 0 P80 ... : ... .. . ... : ... .. . ... : ... .. . Z00 ...
ROW 47 : ... .. 4 ... ... : ... .. 8 ... ... : ... .. . ... : ... .. . ... : ... .. . Z00 ...
ROW 48 : ... .. . ... ... : ... .. 7 ... ... : ... .. . ... : ... .. . ... : ... .. . Z00 ...
ROW 49 : ... .. 0 ... ... : ... .. 6 ... ... : ... .. . ... : ... .. . ... : ... .. . Z00 ...
ROW 4A : ... .. . ... ... : ... .. 5 ... ... : ... .. . ... : ... .. . ... : ... .. . Z00 ...
ROW 4B : C#4 00 0 P81 ... : A-3 00 0 P7E ... : ... .. . ... : ... .. . ... : ... .. . Z00 ...
ROW 4C : ... .. 8 ... ... : ... .. 8 ... ... : ... .. . ... : ... .. . ... : ... .. . Z00 ...
ROW 4D : ... .. 7 ... ... : ... .. 7 ... ... : ... .. . ... : ... .. . ... : ... .. . Z00 ...
ROW 4E : ... .. 6 ... ... : ... .. 6 ... ... : ... .. . ... : ... .. . ... : ... .. . Z00 ...
ROW 4F : ... .. 5 ... ... : ... .. 5 ... ... : ... .. . ... : ... .. . ... : ... .. . Z00 ...

PATTERN 01
ROW 00 : ... .. . ... ... : G-3 00 0 P80 ... : D-3 00 . P81 : ... .. . ... : ... .. . Z00 ...
ROW 01 : ... .. 4 ... ... : ... .. 8 ... ... : ... .. . ... : ... .. . ... : ... .. . Z00 ...
ROW 02 : ... .. . ... ... : ... .. 7 ... ... : ... .. . ... : ... .. . ... : ... .. . Z00 ...
ROW 03 : ... .. 0 ... ... : ... .. 6 ... ... : ... .. . ... : ... .. . ... : ... .. . Z00 ...
ROW 04 : ... .. . ... ... : ... .. 5 ... ... : ... .. . ... : ... .. . ... : ... .. . Z00 ...
ROW 05 : D-4 00 0 P80 ... : A#3 00 0 P7C ... : ... .. . ... : ... .. . ... : ... .. . Z00 ...
ROW 06 : ... .. 8 ... ... : ... .. 8 ... ... : ... .. . ... : ... .. . ... : ... .. . Z00 ...
ROW 07 : ... .. 7 ... ... : ... .. 7 ... ... : ... .. . ... : ... .. . ... : ... .. . Z00 ...
ROW 08 : ... .. 6 ... ... : ... .. 6 ... ... : ... .. . ... : ... .. . ... : ... .. . Z00 ...
ROW 09 : ... .. 5 ... ... : ... .. 5 ... ... : ... .. . ... : ... .. . ... : ... .. . Z00 ...
ROW 0A : ... .. . ... ... : G-3 00 0 P80 ... : ... .. . ... : ... .. . ... : ... .. . Z00 ...
ROW 0B : ... .. 4 ... ... : ... .. 8 ... ... : ... .. . ... : ... .. . ... : ... .. . Z00 ...
ROW 0C : ... .. . ... ... : ... .. 7 ... ... : ... .. . ... : ... .. . ... : ... .. . Z00 ...
ROW 0D : ... .. 0 ... ... : ... .. 6 ... ... : ... .. . ... : ... .. . ... : ... .. . Z00 ...
ROW 0E : ... .. . ... ... : ... .. 5 ... ... : ... .. . ... : ... .. . ... : ... .. . Z00 ...
ROW 0F : C#4 00 0 P81 ... : A-3 00 0 P7E ... : ... .. . ... : ... .. . ... : ... .. . Z00 ...
ROW 10 : ... .. 8 ... ... : ... .. 8 ... ... : ... .. . ... : ... .. . ... : ... .. . Z00 ...
ROW 11 : ... .. 7 ... ... : ... .. 7 ... ... : ... .. . ... : ... .. . ... : ... .. . Z00 ...
ROW 12 : ... .. 6 ... ... : ... .. 6 ... ... : ... .. . ... : ... .. . ... : ... .. . Z00 ...
ROW 13 : ... .. 5 ... ... : ... .. 5 ... ... : ... .. . ... : ... .. . ... : ... .. . Z00 ...
ROW 14 : ... .. . ... ... : G-3 00 0 P80 ... : ... .. . ... : ... .. . ... : ... .. . Z00 ...
ROW 15 : ... .. 4 ... ... : ... .. 8 ... ... : ... .. . ... : ... .. . ... : ... .. . Z00 ...
ROW 16 : ... .. . ... ... : ... .. 7 ... ... : ... .. . ... : ... .. . ... : ... .. . Z00 ...
ROW 17 : ... .. 0 ... ... : ... .. 6 ... ... : ... .. . ... : ... .. . ... : ... .. . Z00 ...
ROW 18 : ... .. . ... ... : ... .. 5 ... ... : ... .. . ... : ... .. . ... : ... .. . Z00 ...
ROW 19 : C-4 00 0 P80 ... : G#3 00 0 P82 ... : ... .. . ... : ... .. . ... : ... .. . Z00 ...
ROW 1A : ... .. 8 ... ... : ... .. 8 ... ... : ... .. . ... : ... .. . ... : ... .. . Z00 ...
ROW 1B : ... .. 7 ... ... : ... .. 7 ... ... : ... .. . ... : ... .. . ... : ... .. . Z00 ...
ROW 1C : ... .. 6 ... ... : ... .. 6 ... ... : ... .. . ... : ... .. . ... : ... .. . Z00 ...
ROW 1D : ... .. 5 ... ... : ... .. 5 ... ... : ... .. . ... : ... .. . ... : ... .. . Z00 ...
ROW 1E : ... .. . ... ... : G-3 00 0 P80 ... : ... .. . ... : ... .. . ... : ... .. . Z00 ...
ROW 1F : ... .. 4 ... ... : ... .. 8 ... ... : ... .. . ... : ... .. . ... : ... .. . Z00 ...
ROW 20 : ... .. . ... ... : ... .. 7 ... ... : ... .. . ... : ... .. . ... : ... .. . Z00 ...
ROW 21 : ... .. 0 ... ... : ... .. 6 ... ... : ... .. . ... : ... .. . ... : ... .. . Z00 ...
ROW 22 : ... .. . ... ... : ... .. 5 ... ... : ... .. . ... : ... .. . ... : ... .. . Z00 ...
ROW 23 : C#4 00 0 P81 ... : A-3 00 0 P7E ... : ... .. . ... : ... .. . ... : ... .. . Z00 ...
ROW 24 : ... .. 8 ... ... : ... .. 8 ... ... : ... .. . ... : ... .. . ... : ... .. . Z00 ...
ROW 25 : ... .. 7 ... ... : ... .. 7 ... ... : ... .. . ... : ... .. . ... : ... .. . Z00 ...
ROW 26 : ... .. 6 ... ... : ... .. 6 ... ... : ... .. . ... : ... .. . ... : ... .. . Z00 ...
ROW 27 : ... .. 5 ... ... : ... .. 5 ... ... : ... .. . ... : ... .. . ... : ... .. . Z00 ...
ROW 28 : ... .. . ... ... : G-3 00 0 P80 ... : F#3 00 . P7D : ... .. . ... : ... .. . Z00 ...
ROW 29 : ... .. 4 ... ... : ... .. 8 ... ... : ... .. . ... : ... .. . ... : ... .. . Z00 ...
ROW 2A : ... .. . ... ... : ... .. 7 ... ... : ... .. . ... : ... .. . ... : ... .. . Z00 ...
ROW 2B : ... .. 0 ... ... : ... .. 6 ... ... : ... .. . ... : ... .. . ... : ... .. . Z00 ...
ROW 2C : ... .. . ... ... : ... .. 5 ... ... : ... .. . ... : ... .. . ... : ... .. . Z00 ...
ROW 2D : D-4 00 0 P80 ... : A#3 00 0 P7C ... : ... .. . ... : ... .. . ... : ... .. . Z00 ...
ROW 2E : ... .. 8 ... ... : ... .. 8 ... ... : ... .. . ... : ... .. . ... : ... .. . Z00 ...
ROW 2F : ... .. 7 ... ... : ... .. 7 ... ... : ... .. . ... : ... .. . ... : ... .. . Z00 ...
ROW 30 : ... .. 6 ... ... : ... .. 6 ... ... : ... .. . ... : ... .. . ... : ... .. . Z00 ...
ROW 31 : ... .. 5 ... ... : ... .. 5 ... ... : ... .. . ... : ... .. . ... : ... .. . Z00 ...
ROW 32 : ... .. . ... ... : G-3 00 0 P80 ... : ... .. . ... : ... .. . ... : ... .. . Z00 ...
ROW 33 : ... .. 4 ... ... : ... .. 8 ... ... : ... .. . ... : ... .. . ... : ... .. . Z00 ...
ROW 34 : ... .. . ... ... : ... .. 7 ... ... : ... .. . ... : ... .. . ... : ... .. . Z00 ...
ROW 35 : ... .. 0 ... ... : ... .. 6 ... ... : ... .. . ... : ... .. . ... : ... .. . Z00 ...
ROW 36 : ... .. . ... ... : ... .. 5 ... ... : ... .. . ... : ... .. . ... : ... .. . Z00 ...
ROW 37 : D#4 00 0 P82 ... : B-3 00 0 P7E ... : ... .. . ... : ... .. . ... : ... .. . Z00 ...
ROW 38 : ... .. 8 ... ... : ... .. 8 ... ... : ... .. . ... : ... .. . ... : ... .. . Z00 ...
ROW 39 : ... .. 7 ... ... : ... .. 7 ... ... : ... .. . ... : ... .. . ... : ... .. . Z00 ...
ROW 3A : ... .. 6 ... ... : ... .. 6 ... ... : ... .. . ... : ... .. . ... : ... .. . Z00 ...
ROW 3B : ... .. 5 ... ... : ... .. 5 ... ... : ... .. . ... : ... .. . ... : ... .. . Z00 ...
ROW 3C : ... .. . ... ... : G-3 00 0 P80 ... : ... .. . ... : ... .. . ... : ... .. . Z00 ...
ROW 3D : ... .. 4 ... ... : ... .. 8 ... ... : ... .. . ... : ... .. . ... : ... .. . Z00 ...
ROW 3E : ... .. . ... ... : ... .. 7 ... ... : ... .. . ... : ... .. . ... : ... .. . Z00 ...
ROW 3F : ... .. 0 ... ... : ... .. 6 ... ... : ... .. . ... : ... .. . ... : ... .. . Z00 ...
ROW 40 : ... .. . ... ... : ... .. 5 ... ... : ... .. . ... : ... .. . ... : ... .. . Z00 ...
ROW 41 : D-4 00 0 P80 ... : A#3 00 0 P7C ... : ... .. . ... : ... .. . ... : ... .. . Z00 ...
ROW 42 : ... .. 8 ... ... : ... .. 8 ... ... : ... .. . ... : ... .. . ... : ... .. . Z00 ...
ROW 43 : ... .. 7 ... ... : ... .. 7 ... ... : ... .. . ... : ... .. . ... : ... .. . Z00 ...
ROW 44 : ... .. 6 ... ... : ... .. 6 ... ... : ... .. . ... : ... .. . ... : ... .. . Z00 ...
ROW 45 : ... .. 5 ... ... : ... .. 5 ... ... : ... .. . ... : ... .. . ... : ... .. . Z00 ...
ROW 46 : ... .. . ... ... : G-3 00 0 P80 ... : ... .. . ... : ... .. . ... : ... .. . Z00 ...
ROW 47 : ... .. 4 ... ... : ... .. 8 ... ... : ... .. . ... : ... .. . ... : ... .. . Z00 ...
ROW 48 : ... .. . ... ... : ... .. 7 ... ... : ... .. . ... : ... .. . ... : ... .. . Z00 ...
ROW 49 : ... .. 0 ... ... : ... .. 6 ... ... : ... .. . ... : ... .. . ... : ... .. . Z00 ...
ROW 4A : ... .. . ... ... : ... .. 5 ... ... : ... .. . ... : ... .. . ... : ... .. . Z00 ...
ROW 4B : C#4 00 0 P81 ... : A-3 00 0 P7E ... : ... .. . ... : ... .. . ... : ... .. . Z00 ...
ROW 4C : ... .. 8 ... ... : ... .. 8 ... ... : ... .. . ... : ... .. . ... : ... .. . Z00 ...
ROW 4D : ... .. 7 ... ... : ... .. 7 ... ... : ... .. . ... : ... .. . ... : ... .. . Z00 ...
ROW 4E : ... .. 6 ... ... : ... .. 6 ... ... : ... .. . ... : ... .. . ... : ... .. . Z00 ...
ROW 4F : ... .. 5 ... ... : ... .. 5 ... ... : ... .. . ... : ... .. . ... : ... .. . Z00 ...

PATTERN 02
ROW 00 : ... .. . ... ... : F#3 00 0 P7D ... : F-3 00 . P80 : ... .. . ... : ... .. . Z00 ...
ROW 01 : ... .. 4 ... ... : ... .. 8 ... ... : ... .. . ... : ... .. . ... : ... .. . Z00 ...
ROW 02 : ... .. . ... ... : ... .. 7 ... ... : ... .. . ... : ... .. . ... : ... .. . Z00 ...
ROW 03 : ... .. 0 ... ... : ... .. 6 ... ... : ... .. . ... : ... .. . ... : ... .. . Z00 ...
ROW 04 : ... .. . ... ... : ... .. 5 ... ... : ... .. . ... : ... .. . ... : ... .. . Z00 ...
ROW 05 : ... .. . ... ... : A-3 00 0 P7E ... : ... .. . ... : ... .. . ... : ... .. . Z00 ...
ROW 06 : ... .. 8 ... ... : ... .. 8 ... ... : ... .. . ... : ... .. . ... : ... .. . Z00 ...
ROW 07 : ... .. 7 ... ... : ... .. 7 ... ... : ... .. . ... : ... .. . ... : ... .. . Z00 ...
ROW 08 : ... .. 6 ... ... : ... .. 6 ... ... : ... .. . ... : ... .. . ... : ... .. . Z00 ...
ROW 09 : ... .. 5 ... ... : ... .. 5 ... ... : ... .. . ... : ... .. . ... : ... .. . Z00 ...
ROW 0A : ... .. . ... ... : F#3 00 0 P7D ... : ... .. . ... : ... .. . ... : ... .. . Z00 ...
ROW 0B : ... .. 4 ... ... : ... .. 8 ... ... : ... .. . ... : ... .. . ... : ... .. . Z00 ...
ROW 0C : ... .. . ... ... : ... .. 7 ... ... : ... .. . ... : ... .. . ... : ... .. . Z00 ...
ROW 0D : ... .. 0 ... ... : ... .. 6 ... ... : ... .. . ... : ... .. . ... : ... .. . Z00 ...
ROW 0E : ... .. . ... ... : ... .. 5 ... ... : ... .. . ... : ... .. . ... : ... .. . Z00 ...
ROW 0F : C-4 00 0 P80 ... : G#3 00 0 P82 ... : ... .. . ... : ... .. . ... : ... .. . Z00 ...
ROW 10 : ... .. 8 ... ... : ... .. 8 ... ... : ... .. . ... : ... .. . ... : ... .. . Z00 ...
ROW 11 : ... .. 7 ... ... : ... .. 7 ... ... : ... .. . ... : ... .. . ... : ... .. . Z00 ...
ROW 12 : ... .. 6 ... ... : ... .. 6 ... ... : ... .. . ... : ... .. . ... : ... .. . Z00 ...
ROW 13 : ... .. 5 ... ... : ... .. 5 ... ... : ... .. . ... : ... .. . ... : ... .. . Z00 ...
ROW 14 : ... .. . ... ... : F#3 00 0 P7D ... : ... .. . ... : ... .. . ... : ... .. . Z00 ...
ROW 15 : ... .. 4 ... ... : ... .. 8 ... ... : ... .. . ... : ... .. . ... : ... .. . Z00 ...
ROW 16 : ... .. . ... ... : ... .. 7 ... ... : ... .. . ... : ... .. . ... : ... .. . Z00 ...
ROW 17 : ... .. 0 ... ... : ... .. 6 ... ... : ... .. . ... : ... .. . ... : ... .. . Z00 ...
ROW 18 : ... .. . ... ... : ... .. 5 ... ... : ... .. . ... : ... .. . ... : ... .. . Z00 ...
ROW 19 : C#4 00 0 P81 ... : A-3 00 0 P7E ... : ... .. . ... : ... .. . ... : ... .. . Z00 ...
ROW 1A : ... .. 8 ... ... : ... .. 8 ... ... : ... .. . ... : ... .. . ... : ... .. . Z00 ...
ROW 1B : ... .. 7 ... ... : ... .. 7 ... ... : ... .. . ... : ... .. . ... : ... .. . Z00 ...
ROW 1C : ... .. 6 ... ... : ... .. 6 ... ... : ... .. . ... : ... .. . ... : ... .. . Z00 ...
ROW 1D : ... .. 5 ... ... : ... .. 5 ... ... : ... .. . ... : ... .. . ... : ... .. . Z00 ...
ROW 1E : ... .. . ... ... : F#3 00 0 P7D ... : ... .. . ... : ... .. . ... : ... .. . Z00 ...
ROW 1F : ... .. 4 ... ... : ... .. 8 ... ... : ... .. . ... : ... .. . ... : ... .. . Z00 ...
ROW 20 : ... .. . ... ... : ... .. 7 ... ... : ... .. . ... : ... .. . ... : ... .. . Z00 ...
ROW 21 : ... .. 0 ... ... : ... .. 6 ... ... : ... .. . ... : ... .. . ... : ... .. . Z00 ...
ROW 22 : ... .. . ... ... : ... .. 5 ... ... : ... .. . ... : ... .. . ... : ... .. . Z00 ...
ROW 23 : D-4 00 0 P80 ... : A#3 00 0 P7C ... : ... .. . ... : ... .. . ... : ... .. . Z00 ...
ROW 24 : ... .. 8 ... ... : ... .. 8 ... ... : ... .. . ... : ... .. . ... : ... .. . Z00 ...
ROW 25 : ... .. 7 ... ... : ... .. 7 ... ... : ... .. . ... : ... .. . ... : ... .. . Z00 ...
ROW 26 : ... .. 6 ... ... : ... .. 6 ... ... : ... .. . ... : ... .. . ... : ... .. . Z00 ...
ROW 27 : ... .. 5 ... ... : ... .. 5 ... ... : ... .. . ... : ... .. . ... : ... .. . Z00 ...
ROW 28 : ... .. . ... ... : F#3 00 0 P7D ... : ... .. . ... : ... .. . ... : ... .. . Z00 ...
ROW 29 : ... .. 4 ... ... : ... .. 8 ... ... : ... .. . ... : ... .. . ... : ... .. . Z00 ...
ROW 2A : ... .. . ... ... : ... .. 7 ... ... : ... .. . ... : ... .. . ... : ... .. . Z00 ...
ROW 2B : ... .. 0 ... ... : ... .. 6 ... ... : ... .. . ... : ... .. . ... : ... .. . Z00 ...
ROW 2C : ... .. . ... ... : ... .. 5 ... ... : ... .. . ... : ... .. . ... : ... .. . Z00 ...
ROW 2D : C#4 00 0 P81 ... : A-3 00 0 P7E ... : ... .. . ... : ... .. . ... : ... .. . Z00 ...
ROW 2E : ... .. 8 ... ... : ... .. 8 ... ... : ... .. . ... : ... .. . ... : ... .. . Z00 ...
ROW 2F : ... .. 7 ... ... : ... .. 7 ... ... : ... .. . ... : ... .. . ... : ... .. . Z00 ...
ROW 30 : ... .. 6 ... ... : ... .. 6 ... ... : ... .. . ... : ... .. . ... : ... .. . Z00 ...
ROW 31 : ... .. 5 ... ... : ... .. 5 ... ... : ... .. . ... : ... .. . ... : ... .. . Z00 ...
ROW 32 : ... .. . ... ... : F#3 00 0 P7D ... : ... .. . ... : ... .. . ... : ... .. . Z00 ...
ROW 33 : ... .. 4 ... ... : ... .. 8 ... ... : ... .. . ... : ... .. . ... : ... .. . Z00 ...
ROW 34 : ... .. . ... ... : ... .. 7 ... ... : ... .. . ... : ... .. . ... : ... .. . Z00 ...
ROW 35 : ... .. 0 ... ... : ... .. 6 ... ... : ... .. . ... : ... .. . ... : ... .. . Z00 ...
ROW 36 : ... .. . ... ... : ... .. 5 ... ... : ... .. . ... : ... .. . ... : ... .. . Z00 ...
ROW 37 : D-4 00 0 P80 ... : A#3 00 0 P7C ... : ... .. . ... : ... .. . ... : ... .. . Z00 ...
ROW 38 : ... .. 8 ... ... : ... .. 8 ... ... : ... .. . ... : ... .. . ... : ... .. . Z00 ...
ROW 39 : ... .. 7 ... ... : ... .. 7 ... ... : ... .. . ... : ... .. . ... : ... .. . Z00 ...
ROW 3A : ... .. 6 ... ... : ... .. 6 ... ... : ... .. . ... : ... .. . ... : ... .. . Z00 ...
ROW 3B : ... .. 5 ... ... : ... .. 5 ... ... : ... .. . ... : ... .. . ... : ... .. . Z00 ...
ROW 3C : ... .. . ... ... : F#3 00 0 P7D ... : ... .. . ... : ... .. . ... : ... .. . Z00 ...
ROW 3D : ... .. 4 ... ... : ... .. 8 ... ... : ... .. . ... : ... .. . ... : ... .. . Z00 ...
ROW 3E : ... .. . ... ... : ... .. 7 ... ... : ... .. . ... : ... .. . ... : ... .. . Z00 ...
ROW 3F : ... .. 0 ... ... : ... .. 6 ... ... : ... .. . ... : ... .. . ... : ... .. . Z00 ...
ROW 40 : ... .. . ... ... : ... .. 5 ... ... : ... .. . ... : ... .. . ... : ... .. . Z00 ...
ROW 41 : C#4 00 0 P81 ... : A-3 00 0 P7E ... : ... .. . ... : ... .. . ... : ... .. . Z00 ...
ROW 42 : ... .. 8 ... ... : ... .. 8 ... ... : ... .. . ... : ... .. . ... : ... .. . Z00 ...
ROW 43 : ... .. 7 ... ... : ... .. 7 ... ... : ... .. . ... : ... .. . ... : ... .. . Z00 ...
ROW 44 : ... .. 6 ... ... : ... .. 6 ... ... : ... .. . ... : ... .. . ... : ... .. . Z00 ...
ROW 45 : ... .. 5 ... ... : ... .. 5 ... ... : ... .. . ... : ... .. . ... : ... .. . Z00 ...
ROW 46 : ... .. . ... ... : F#3 00 0 P7D ... : ... .. . ... : ... .. . ... : ... .. . Z00 ...
ROW 47 : ... .. 4 ... ... : ... .. 8 ... ... : ... .. . ... : ... .. . ... : ... .. . Z00 ...
ROW 48 : ... .. . ... ... : ... .. 7 ... ... : ... .. . ... : ... .. . ... : ... .. . Z00 ...
ROW 49 : ... .. 0 ... ... : ... .. 6 ... ... : ... .. . ... : ... .. . ... : ... .. . Z00 ...
ROW 4A : ... .. . ... ... : ... .. 5 ... ... : ... .. . ... : ... .. . ... : ... .. . Z00 ...
ROW 4B : C-4 00 0 P80 ... : G#3 00 0 P82 ... : ... .. . ... : ... .. . ... : ... .. . Z00 ...
ROW 4C : ... .. 8 ... ... : ... .. 8 ... ... : ... .. . ... : ... .. . ... : ... .. . Z00 ...
ROW 4D : ... .. 7 ... ... : ... .. 7 ... ... : ... .. . ... : ... .. . ... : ... .. . Z00 ...
ROW 4E : ... .. 6 ... ... : ... .. 6 ... ... : ... .. . ... : ... .. . ... : ... .. . Z00 ...
ROW 4F : ... .. 5 ... ... : ... .. 5 ... ... : ... .. . ... : ... .. . ... : ... .. . Z00 ...

PATTERN 03
ROW 00 : ... .. . ... ... : F#3 00 0 P7D ... : E-3 00 . P7D : ... .. . ... : ... .. . Z00 ...
ROW 01 : ... .. 4 ... ... : ... .. 8 ... ... : ... .. . ... : ... .. . ... : ... .. . Z00 ...
ROW 02 : ... .. . ... ... : ... .. 7 ... ... : ... .. . ... : ... .. . ... : ... .. . Z00 ...
ROW 03 : ... .. 0 ... ... : ... .. 6 ... ... : ... .. . ... : ... .. . ... : ... .. . Z00 ...
ROW 04 : ... .. . ... ... : ... .. 5 ... ... : ... .. . ... : ... .. . ... : ... .. . Z00 ...
ROW 05 : C#4 00 0 P81 ... : A-3 00 0 P7E ... : ... .. . ... : ... .. . ... : ... .. . Z00 ...
ROW 06 : ... .. 8 ... ... : ... .. 8 ... ... : ... .. . ... : ... .. . ... : ... .. . Z00 ...
ROW 07 : ... .. 7 ... ... : ... .. 7 ... ... : ... .. . ... : ... .. . ... : ... .. . Z00 ...
ROW 08 : ... .. 6 ... ... : ... .. 6 ... ... : ... .. . ... : ... .. . ... : ... .. . Z00 ...
ROW 09 : ... .. 5 ... ... : ... .. 5 ... ... : ... .. . ... : ... .. . ... : ... .. . Z00 ...
ROW 0A : ... .. . ... ... : F#3 00 0 P7D ... : ... .. . ... : ... .. . ... : ... .. . Z00 ...
ROW 0B : ... .. 4 ... ... : ... .. 8 ... ... : ... .. . ... : ... .. . ... : ... .. . Z00 ...
ROW 0C : ... .. . ... ... : ... .. 7 ... ... : ... .. . ... : ... .. . ... : ... .. . Z00 ...
ROW 0D : ... .. 0 ... ... : ... .. 6 ... ... : ... .. . ... : ... .. . ... : ... .. . Z00 ...
ROW 0E : ... .. . ... ... : ... .. 5 ... ... : ... .. . ... : ... .. . ... : ... .. . Z00 ...
ROW 0F : C-4 00 0 P80 ... : G#3 00 0 P82 ... : ... .. . ... : ... .. . ... : ... .. . Z00 ...
ROW 10 : ... .. 8 ... ... : ... .. 8 ... ... : ... .. . ... : ... .. . ... : ... .. . Z00 ...
ROW 11 : ... .. 7 ... ... : ... .. 7 ... ... : ... .. . ... : ... .. . ... : ... .. . Z00 ...
ROW 12 : ... .. 6 ... ... : ... .. 6 ... ... : ... .. . ... : ... .. . ... : ... .. . Z00 ...
ROW 13 : ... .. 5 ... ... : ... .. 5 ... ... : ... .. . ... : ... .. . ... : ... .. . Z00 ...
ROW 14 : ... .. . ... ... : F#3 00 0 P7D ... : ... .. . ... : ... .. . ... : ... .. . Z00 ...
ROW 15 : ... .. 4 ... ... : ... .. 8 ... ... : ... .. . ... : ... .. . ... : ... .. . Z00 ...
ROW 16 : ... .. . ... ... : ... .. 7 ... ... : ... .. . ... : ... .. . ... : ... .. . Z00 ...
ROW 17 : ... .. 0 ... ... : ... .. 6 ... ... : ... .. . ... : ... .. . ... : ... .. . Z00 ...
ROW 18 : ... .. . ... ... : ... .. 5 ... ... : ... .. . ... : ... .. . ... : ... .. . Z00 ...
ROW 19 : C#4 00 0 P81 ... : A-3 00 0 P7E ... : ... .. . ... : ... .. . ... : ... .. . Z00 ...
ROW 1A : ... .. 8 ... ... : ... .. 8 ... ... : ... .. . ... : ... .. . ... : ... .. . Z00 ...
ROW 1B : ... .. 7 ... ... : ... .. 7 ... ... : ... .. . ... : ... .. . ... : ... .. . Z00 ...
ROW 1C : ... .. 6 ... ... : ... .. 6 ... ... : ... .. . ... : ... .. . ... : ... .. . Z00 ...
ROW 1D : ... .. 5 ... ... : ... .. 5 ... ... : ... .. . ... : ... .. . ... : ... .. . Z00 ...
ROW 1E : ... .. . ... ... : F#3 00 0 P7D ... : ... .. . ... : ... .. . ... : ... .. . Z00 ...
ROW 1F : ... .. 4 ... ... : ... .. 8 ... ... : ... .. . ... : ... .. . ... : ... .. . Z00 ...
ROW 20 : ... .. . ... ... : ... .. 7 ... ... : ... .. . ... : ... .. . ... : ... .. . Z00 ...
ROW 21 : ... .. 0 ... ... : ... .. 6 ... ... : ... .. . ... : ... .. . ... : ... .. . Z00 ...
ROW 22 : ... .. . ... ... : ... .. 5 ... ... : ... .. . ... : ... .. . ... : ... .. . Z00 ...
ROW 23 : D-4 00 0 P80 ... : A#3 00 0 P7C ... : ... .. . ... : ... .. . ... : ... .. . Z00 ...
ROW 24 : ... .. 8 ... ... : ... .. 8 ... ... : ... .. . ... : ... .. . ... : ... .. . Z00 ...
ROW 25 : ... .. 7 ... ... : ... .. 7 ... ... : ... .. . ... : ... .. . ... : ... .. . Z00 ...
ROW 26 : ... .. 6 ... ... : ... .. 6 ... ... : ... .. . ... : ... .. . ... : ... .. . Z00 ...
ROW 27 : ... .. 5 ... ... : ... .. 5 ... ... : ... .. . ... : ... .. . ... : ... .. . Z00 ...
ROW 28 : ... .. . ... ... : F#3 00 0 P7D ... : A#3 00 . P7C : ... .. . ... : ... .. . Z00 ...
ROW 29 : ... .. 4 ... ... : ... .. 8 ... ... : ... .. . ... : ... .. . ... : ... .. . Z00 ...
ROW 2A : ... .. . ... ... : ... .. 7 ... ... : ... .. . ... : ... .. . ... : ... .. . Z00 ...
ROW 2B : ... .. 0 ... ... : ... .. 6 ... ... : ... .. . ... : ... .. . ... : ... .. . Z00 ...
ROW 2C : ... .. . ... ... : ... .. 5 ... ... : ... .. . ... : ... .. . ... : ... .. . Z00 ...
ROW 2D : C#4 00 0 P81 ... : A-3 00 0 P7E ... : ... .. . ... : ... .. . ... : ... .. . Z00 ...
ROW 2E : ... .. 8 ... ... : ... .. 8 ... ... : ... .. . ... : ... .. . ... : ... .. . Z00 ...
ROW 2F : ... .. 7 ... ... : ... .. 7 ... ... : ... .. . ... : ... .. . ... : ... .. . Z00 ...
ROW 30 : ... .. 6 ... ... : ... .. 6 ... ... : ... .. . ... : ... .. . ... : ... .. . Z00 ...
ROW 31 : ... .. 5 ... ... : ... .. 5 ... ... : ... .. . ... : ... .. . ... : ... .. . Z00 ...
ROW 32 : ... .. . ... ... : F#3 00 0 P7D ... : ... .. . ... : ... .. . ... : ... .. . Z00 ...
ROW 33 : ... .. 4 ... ... : ... .. 8 ... ... : ... .. . ... : ... .. . ... : ... .. . Z00 ...
ROW 34 : ... .. . ... ... : ... .. 7 ... ... : ... .. . ... : ... .. . ... : ... .. . Z00 ...
ROW 35 : ... .. 0 ... ... : ... .. 6 ... ... : ... .. . ... : ... .. . ... : ... .. . Z00 ...
ROW 36 : ... .. . ... ... : ... .. 5 ... ... : ... .. . ... : ... .. . ... : ... .. . Z00 ...
ROW 37 : D-4 00 0 P80 ... : A#3 00 0 P7C ... : ... .. . ... : ... .. . ... : ... .. . Z00 ...
ROW 38 : ... .. 8 ... ... : ... .. 8 ... ... : ... .. . ... : ... .. . ... : ... .. . Z00 ...
ROW 39 : ... .. 7 ... ... : ... .. 7 ... ... : ... .. . ... : ... .. . ... : ... .. . Z00 ...
ROW 3A : ... .. 6 ... ... : ... .. 6 ... ... : ... .. . ... : ... .. . ... : ... .. . Z00 ...
ROW 3B : ... .. 5 ... ... : ... .. 5 ... ... : ... .. . ... : ... .. . ... : ... .. . Z00 ...
ROW 3C : ... .. . ... ... : F#3 00 0 P7D ... : ... .. . ... : ... .. . ... : ... .. . Z00 ...
ROW 3D : ... .. 4 ... ... : ... .. 8 ... ... : ... .. . ... : ... .. . ... : ... .. . Z00 ...
ROW 3E : ... .. . ... ... : ... .. 7 ... ... : ... .. . ... : ... .. . ... : ... .. . Z00 ...
ROW 3F : ... .. 0 ... ... : ... .. 6 ... ... : ... .. . ... : ... .. . ... : ... .. . Z00 ...
ROW 40 : ... .. . ... ... : ... .. 5 ... ... : ... .. . ... : ... .. . ... : ... .. . Z00 ...
ROW 41 : C#4 00 0 P81 ... : A-3 00 0 P7E ... : ... .. . ... : ... .. . ... : ... .. . Z00 ...
ROW 42 : ... .. 8 ... ... : ... .. 8 ... ... : ... .. . ... : ... .. . ... : ... .. . Z00 ...
ROW 43 : ... .. 7 ... ... : ... .. 7 ... ... : ... .. . ... : ... .. . ... : ... .. . Z00 ...
ROW 44 : ... .. 6 ... ... : ... .. 6 ... ... : ... .. . ... : ... .. . ... : ... .. . Z00 ...
ROW 45 : ... .. 5 ... ... : ... .. 5 ... ... : ... .. . ... : ... .. . ... : ... .. . Z00 ...
ROW 46 : ... .. . ... ... : F#3 00 0 P7D ... : ... .. . ... : ... .. . ... : ... .. . Z00 ...
ROW 47 : ... .. 4 ... ... : ... .. 8 ... ... : ... .. . ... : ... .. . ... : ... .. . Z00 ...
ROW 48 : ... .. . ... ... : ... .. 7 ... ... : ... .. . ... : ... .. . ... : ... .. . Z00 ...
ROW 49 : ... .. 0 ... ... : ... .. 6 ... ... : ... .. . ... : ... .. . ... : ... .. . Z00 ...
ROW 4A : ... .. . ... ... : ... .. 5 ... ... : ... .. . ... : ... .. . ... : ... .. . Z00 ...
ROW 4B : C-4 00 0 P80 ... : G#3 00 0 P82 ... : ... .. . ... : ... .. . ... : ... .. . Z00 ...
ROW 4C : ... .. 8 ... ... : ... .. 8 ... ... : ... .. . ... : ... .. . ... : ... .. . Z00 ...
ROW 4D : ... .. 7 ... ... : ... .. 7 ... ... : ... .. . ... : ... .. . ... : ... .. . Z00 ...
ROW 4E : ... .. 6 ... ... : ... .. 6 ... ... : ... .. . ... : ... .. . ... : ... .. . Z00 ...
ROW 4F : ... .. 5 ... ... : ... .. 5 ... ... : ... .. . ... : ... .. . ... : ... .. . Z00 ...

PATTERN 04
ROW 00 : ... .. . ... ... : A#3 00 0 P7C ... : A-3 00 . P7E : ... .. . ... : ... .. . Z00 ...
ROW 01 : ... .. 4 ... ... : ... .. 8 ... ... : ... .. . ... : ... .. . ... : ... .. . Z00 ...
ROW 02 : ... .. . ... ... : ... .. 7 ... ... : ... .. . ... : ... .. . ... : ... .. . Z00 ...
ROW 03 : ... .. 0 ... ... : ... .. 6 ... ... : ... .. . ... : ... .. . ... : ... .. . Z00 ...
ROW 04 : ... .. . ... ... : ... .. 5 ... ... : ... .. . ... : ... .. . ... : ... .. . Z00 ...
ROW 05 : F-4 00 0 P80 ... : D-4 00 0 P80 ... : ... .. . ... : ... .. . ... : ... .. . Z00 ...
ROW 06 : ... .. 8 ... ... : ... .. 8 ... ... : ... .. . ... : ... .. . ... : ... .. . Z00 ...
ROW 07 : ... .. 7 ... ... : ... .. 7 ... ... : ... .. . ... : ... .. . ... : ... .. . Z00 ...
ROW 08 : ... .. 6 ... ... : ... .. 6 ... ... : ... .. . ... : ... .. . ... : ... .. . Z00 ...
ROW 09 : ... .. 5 ... ... : ... .. 5 ... ... : ... .. . ... : ... .. . ... : ... .. . Z00 ...
ROW 0A : ... .. . ... ... : A#3 00 0 P7C ... : ... .. . ... : ... .. . ... : ... .. . Z00 ...
ROW 0B : ... .. 4 ... ... : ... .. 8 ... ... : ... .. . ... : ... .. . ... : ... .. . Z00 ...
ROW 0C : ... .. . ... ... : ... .. 7 ... ... : ... .. . ... : ... .. . ... : ... .. . Z00 ...
ROW 0D : ... .. 0 ... ... : ... .. 6 ... ... : ... .. . ... : ... .. . ... : ... .. . Z00 ...
ROW 0E : ... .. . ... ... : ... .. 5 ... ... : ... .. . ... : ... .. . ... : ... .. . Z00 ...
ROW 0F : F#4 00 0 P7E ... : D#4 00 0 P82 ... : ... .. . ... : ... .. . ... : ... .. . Z00 ...
ROW 10 : ... .. 8 ... ... : ... .. 8 ... ... : ... .. . ... : ... .. . ... : ... .. . Z00 ...
ROW 11 : ... .. 7 ... ... : ... .. 7 ... ... : ... .. . ... : ... .. . ... : ... .. . Z00 ...
ROW 12 : ... .. 6 ... ... : ... .. 6 ... ... : ... .. . ... : ... .. . ... : ... .. . Z00 ...
ROW 13 : ... .. 5 ... ... : ... .. 5 ... ... : ... .. . ... : ... .. . ... : ... .. . Z00 ...
ROW 14 : ... .. . ... ... : A#3 00 0 P7C ... : ... .. . ... : ... .. . ... : ... .. . Z00 ...
ROW 15 : ... .. 4 ... ... : ... .. 8 ... ... : ... .. . ... : ... .. . ... : ... .. . Z00 ...
ROW 16 : ... .. . ... ... : ... .. 7 ... ... : ... .. . ... : ... .. . ... : ... .. . Z00 ...
ROW 17 : ... .. 0 ... ... : ... .. 6 ... ... : ... .. . ... : ... .. . ... : ... .. . Z00 ...
ROW 18 : ... .. . ... ... : ... .. 5 ... ... : ... .. . ... : ... .. . ... : ... .. . Z00 ...
ROW 19 : F-4 00 0 P80 ... : D-4 00 0 P80 ... : ... .. . ... : ... .. . ... : ... .. . Z00 ...
ROW 1A : ... .. 8 ... ... : ... .. 8 ... ... : ... .. . ... : ... .. . ... : ... .. . Z00 ...
ROW 1B : ... .. 7 ... ... : ... .. 7 ... ... : ... .. . ... : ... .. . ... : ... .. . Z00 ...
ROW 1C : ... .. 6 ... ... : ... .. 6 ... ... : ... .. . ... : ... .. . ... : ... .. . Z00 ...
ROW 1D : ... .. 5 ... ... : ... .. 5 ... ... : ... .. . ... : ... .. . ... : ... .. . Z00 ...
ROW 1E : ... .. . ... ... : A#3 00 0 P7C ... : ... .. . ... : ... .. . ... : ... .. . Z00 ...
ROW 1F : ... .. 4 ... ... : ... .. 8 ... ... : ... .. . ... : ... .. . ... : ... .. . Z00 ...
ROW 20 : ... .. . ... ... : ... .. 7 ... ... : ... .. . ... : ... .. . ... : ... .. . Z00 ...
ROW 21 : ... .. 0 ... ... : ... .. 6 ... ... : ... .. . ... : ... .. . ... : ... .. . Z00 ...
ROW 22 : ... .. . ... ... : ... .. 5 ... ... : ... .. . ... : ... .. . ... : ... .. . Z00 ...
ROW 23 : E-4 00 0 P7F ... : C#4 00 0 P81 ... : ... .. . ... : ... .. . ... : ... .. . Z00 ...
ROW 24 : ... .. 8 ... ... : ... .. 8 ... ... : ... .. . ... : ... .. . ... : ... .. . Z00 ...
ROW 25 : ... .. 7 ... ... : ... .. 7 ... ... : ... .. . ... : ... .. . ... : ... .. . Z00 ...
ROW 26 : ... .. 6 ... ... : ... .. 6 ... ... : ... .. . ... : ... .. . ... : ... .. . Z00 ...
ROW 27 : ... .. 5 ... ... : ... .. 5 ... ... : ... .. . ... : ... .. . ... : ... .. . Z00 ...
ROW 28 : ... .. . ... ... : A#3 00 0 P7C ... : E-3 00 . P7D : ... .. . ... : ... .. . Z00 ...
ROW 29 : ... .. 4 ... ... : ... .. 8 ... ... : ... .. . ... : ... .. . ... : ... .. . Z00 ...
ROW 2A : ... .. . ... ... : ... .. 7 ... ... : ... .. . ... : ... .. . ... : ... .. . Z00 ...
ROW 2B : ... .. 0 ... ... : ... .. 6 ... ... : ... .. . ... : ... .. . ... : ... .. . Z00 ...
ROW 2C : ... .. . ... ... : ... .. 5 ... ... : ... .. . ... : ... .. . ... : ... .. . Z00 ...
ROW 2D : F-4 00 0 P80 ... : D-4 00 0 P80 ... : ... .. . ... : ... .. . ... : ... .. . Z00 ...
ROW 2E : ... .. 8 ... ... : ... .. 8 ... ... : ... .. . ... : ... .. . ... : ... .. . Z00 ...
ROW 2F : ... .. 7 ... ... : ... .. 7 ... ... : ... .. . ... : ... .. . ... : ... .. . Z00 ...
ROW 30 : ... .. 6 ... ... : ... .. 6 ... ... : ... .. . ... : ... .. . ... : ... .. . Z00 ...
ROW 31 : ... .. 5 ... ... : ... .. 5 ... ... : ... .. . ... : ... .. . ... : ... .. . Z00 ...
ROW 32 : ... .. . ... ... : A#3 00 0 P7C ... : ... .. . ... : ... .. . ... : ... .. . Z00 ...
ROW 33 : ... .. 4 ... ... : ... .. 8 ... ... : ... .. . ... : ... .. . ... : ... .. . Z00 ...
ROW 34 : ... .. . ... ... : ... .. 7 ... ... : ... .. . ... : ... .. . ... : ... .. . Z00 ...
ROW 35 : ... .. 0 ... ... : ... .. 6 ... ... : ... .. . ... : ... .. . ... : ... .. . Z00 ...
ROW 36 : ... .. . ... ... : ... .. 5 ... ... : ... .. . ... : ... .. . ... : ... .. . Z00 ...
ROW 37 : E-4 00 0 P7F ... : C#4 00 0 P81 ... : ... .. . ... : ... .. . ... : ... .. . Z00 ...
ROW 38 : ... .. 8 ... ... : ... .. 8 ... ... : ... .. . ... : ... .. . ... : ... .. . Z00 ...
ROW 39 : ... .. 7 ... ... : ... .. 7 ... ... : ... .. . ... : ... .. . ... : ... .. . Z00 ...
ROW 3A : ... .. 6 ... ... : ... .. 6 ... ... : ... .. . ... : ... .. . ... : ... .. . Z00 ...
ROW 3B : ... .. 5 ... ... : ... .. 5 ... ... : ... .. . ... : ... .. . ... : ... .. . Z00 ...
ROW 3C : ... .. . ... ... : A#3 00 0 P7C ... : ... .. . ... : ... .. . ... : ... .. . Z00 ...
ROW 3D : ... .. 4 ... ... : ... .. 8 ... ... : ... .. . ... : ... .. . ... : ... .. . Z00 ...
ROW 3E : ... .. . ... ... : ... .. 7 ... ... : ... .. . ... : ... .. . ... : ... .. . Z00 ...
ROW 3F : ... .. 0 ... ... : ... .. 6 ... ... : ... .. . ... : ... .. . ... : ... .. . Z00 ...
ROW 40 : ... .. . ... ... : ... .. 5 ... ... : ... .. . ... : ... .. . ... : ... .. . Z00 ...
ROW 41 : D#4 00 0 P82 ... : C-4 00 0 P80 ... : ... .. . ... : ... .. . ... : ... .. . Z00 ...
ROW 42 : ... .. 8 ... ... : ... .. 8 ... ... : ... .. . ... : ... .. . ... : ... .. . Z00 ...
ROW 43 : ... .. 7 ... ... : ... .. 7 ... ... : ... .. . ... : ... .. . ... : ... .. . Z00 ...
ROW 44 : ... .. 6 ... ... : ... .. 6 ... ... : ... .. . ... : ... .. . ... : ... .. . Z00 ...
ROW 45 : ... .. 5 ... ... : ... .. 5 ... ... : ... .. . ... : ... .. . ... : ... .. . Z00 ...
ROW 46 : ... .. . ... ... : A#3 00 0 P7C ... : ... .. . ... : ... .. . ... : ... .. . Z00 ...
ROW 47 : ... .. 4 ... ... : ... .. 8 ... ... : ... .. . ... : ... .. . ... : ... .. . Z00 ...
ROW 48 : ... .. . ... ... : ... .. 7 ... ... : ... .. . ... : ... .. . ... : ... .. . Z00 ...
ROW 49 : ... .. 0 ... ... : ... .. 6 ... ... : ... .. . ... : ... .. . ... : ... .. . Z00 ...
ROW 4A : ... .. . ... ... : ... .. 5 ... ... : ... .. . ... : ... .. . ... : ... .. . Z00 ...
ROW 4B : E-4 00 0 P7F ... : C#4 00 0 P81 ... : ... .. . ... : ... .. . ... : ... .. . Z00 ...
ROW 4C : ... .. 8 ... ... : ... .. 8 ... ... : ... .. . ... : ... .. . ... : ... .. . Z00 ...
ROW 4D : ... .. 7 ... ... : ... .. 7 ... ... : ... .. . ... : ... .. . ... : ... .. . Z00 ...
ROW 4E : ... .. 6 ... ... : ... .. 6 ... ... : ... .. . ... : ... .. . ... : ... .. . Z00 ...
ROW 4F : ... .. 5 ... ... : ... .. 5 ... ... : ... .. . ... : ... .. . ... : ... .. . Z00 ...

PATTERN 05
ROW 00 : ... .. . ... ... : A#3 00 0 P7C ... : D#3 00 . P83 : ... .. . ... : ... .. . Z00 ...
ROW 01 : ... .. 4 ... ... : ... .. 8 ... ... : ... .. . ... : ... .. . ... : ... .. . Z00 ...
ROW 02 : ... .. . ... ... : ... .. 7 ... ... : ... .. . ... : ... .. . ... : ... .. . Z00 ...
ROW 03 : ... .. 0 ... ... : ... .. 6 ... ... : ... .. . ... : ... .. . ... : ... .. . Z00 ...
ROW 04 : ... .. . ... ... : ... .. 5 ... ... : ... .. . ... : ... .. . ... : ... .. . Z00 ...
ROW 05 : F-4 00 0 P80 ... : D-4 00 0 P80 ... : ... .. . ... : ... .. . ... : ... .. . Z00 ...
ROW 06 : ... .. 8 ... ... : ... .. 8 ... ... : ... .. . ... : ... .. . ... : ... .. . Z00 ...
ROW 07 : ... .. 7 ... ... : ... .. 7 ... ... : ... .. . ... : ... .. . ... : ... .. . Z00 ...
ROW 08 : ... .. 6 ... ... : ... .. 6 ... ... : ... .. . ... : ... .. . ... : ... .. . Z00 ...
ROW 09 : ... .. 5 ... ... : ... .. 5 ... ... : ... .. . ... : ... .. . ... : ... .. . Z00 ...
ROW 0A : ... .. . ... ... : A#3 00 0 P7C ... : ... .. . ... : ... .. . ... : ... .. . Z00 ...
ROW 0B : ... .. 4 ... ... : ... .. 8 ... ... : ... .. . ... : ... .. . ... : ... .. . Z00 ...
ROW 0C : ... .. . ... ... : ... .. 7 ... ... : ... .. . ... : ... .. . ... : ... .. . Z00 ...
ROW 0D : ... .. 0 ... ... : ... .. 6 ... ... : ... .. . ... : ... .. . ... : ... .. . Z00 ...
ROW 0E : ... .. . ... ... : ... .. 5 ... ... : ... .. . ... : ... .. . ... : ... .. . Z00 ...
ROW 0F : F#4 00 0 P7E ... : D#4 00 0 P82 ... : ... .. . ... : ... .. . ... : ... .. . Z00 ...
ROW 10 : ... .. 8 ... ... : ... .. 8 ... ... : ... .. . ... : ... .. . ... : ... .. . Z00 ...
ROW 11 : ... .. 7 ... ... : ... .. 7 ... ... : ... .. . ... : ... .. . ... : ... .. . Z00 ...
ROW 12 : ... .. 6 ... ... : ... .. 6 ... ... : ... .. . ... : ... .. . ... : ... .. . Z00 ...
ROW 13 : ... .. 5 ... ... : ... .. 5 ... ... : ... .. . ... : ... .. . ... : ... .. . Z00 ...
ROW 14 : ... .. . ... ... : A#3 00 0 P7C ... : ... .. . ... : ... .. . ... : ... .. . Z00 ...
ROW 15 : ... .. 4 ... ... : ... .. 8 ... ... : ... .. . ... : ... .. . ... : ... .. . Z00 ...
ROW 16 : ... .. . ... ... : ... .. 7 ... ... : ... .. . ... : ... .. . ... : ... .. . Z00 ...
ROW 17 : ... .. 0 ... ... : ... .. 6 ... ... : ... .. . ... : ... .. . ... : ... .. . Z00 ...
ROW 18 : ... .. . ... ... : ... .. 5 ... ... : ... .. . ... : ... .. . ... : ... .. . Z00 ...
ROW 19 : F-4 00 0 P80 ... : D-4 00 0 P80 ... : ... .. . ... : ... .. . ... : ... .. . Z00 ...
ROW 1A : ... .. 8 ... ... : ... .. 8 ... ... : ... .. . ... : ... .. . ... : ... .. . Z00 ...
ROW 1B : ... .. 7 ... ... : ... .. 7 ... ... : ... .. . ... : ... .. . ... : ... .. . Z00 ...
ROW 1C : ... .. 6 ... ... : ... .. 6 ... ... : ... .. . ... : ... .. . ... : ... .. . Z00 ...
ROW 1D : ... .. 5 ... ... : ... .. 5 ... ... : ... .. . ... : ... .. . ... : ... .. . Z00 ...
ROW 1E : ... .. . ... ... : A#3 00 0 P7C ... : ... .. . ... : ... .. . ... : ... .. . Z00 ...
ROW 1F : ... .. 4 ... ... : ... .. 8 ... ... : ... .. . ... : ... .. . ... : ... .. . Z00 ...
ROW 20 : ... .. . ... ... : ... .. 7 ... ... : ... .. . ... : ... .. . ... : ... .. . Z00 ...
ROW 21 : ... .. 0 ... ... : ... .. 6 ... ... : ... .. . ... : ... .. . ... : ... .. . Z00 ...
ROW 22 : ... .. . ... ... : ... .. 5 ... ... : ... .. . ... : ... .. . ... : ... .. . Z00 ...
ROW 23 : E-4 00 0 P7F ... : C#4 00 0 P81 ... : ... .. . ... : ... .. . ... : ... .. . Z00 ...
ROW 24 : ... .. 8 ... ... : ... .. 8 ... ... : ... .. . ... : ... .. . ... : ... .. . Z00 ...
ROW 25 : ... .. 7 ... ... : ... .. 7 ... ... : ... .. . ... : ... .. . ... : ... .. . Z00 ...
ROW 26 : ... .. 6 ... ... : ... .. 6 ... ... : ... .. . ... : ... .. . ... : ... .. . Z00 ...
ROW 27 : ... .. 5 ... ... : ... .. 5 ... ... : ... .. . ... : ... .. . ... : ... .. . Z00 ...
ROW 28 : ... .. . ... ... : A#3 00 0 P7C ... : E-3 00 . P7D : ... .. . ... : ... .. . Z00 ...
ROW 29 : ... .. 4 ... ... : ... .. 8 ... ... : ... .. . ... : ... .. . ... : ... .. . Z00 ...
ROW 2A : ... .. . ... ... : ... .. 7 ... ... : ... .. . ... : ... .. . ... : ... .. . Z00 ...
ROW 2B : ... .. 0 ... ... : ... .. 6 ... ... : ... .. . ... : ... .. . ... : ... .. . Z00 ...
ROW 2C : ... .. . ... ... : ... .. 5 ... ... : ... .. . ... : ... .. . ... : ... .. . Z00 ...
ROW 2D : F-4 00 0 P80 ... : D-4 00 0 P80 ... : ... .. . ... : ... .. . ... : ... .. . Z00 ...
ROW 2E : ... .. 8 ... ... : ... .. 8 ... ... : ... .. . ... : ... .. . ... : ... .. . Z00 ...
ROW 2F : ... .. 7 ... ... : ... .. 7 ... ... : ... .. . ... : ... .. . ... : ... .. . Z00 ...
ROW 30 : ... .. 6 ... ... : ... .. 6 ... ... : ... .. . ... : ... .. . ... : ... .. . Z00 ...
ROW 31 : ... .. 5 ... ... : ... .. 5 ... ... : ... .. . ... : ... .. . ... : ... .. . Z00 ...
ROW 32 : ... .. . ... ... : A#3 00 0 P7C ... : ... .. . ... : ... .. . ... : ... .. . Z00 ...
ROW 33 : ... .. 4 ... ... : ... .. 8 ... ... : ... .. . ... : ... .. . ... : ... .. . Z00 ...
ROW 34 : ... .. . ... ... : ... .. 7 ... ... : ... .. . ... : ... .. . ... : ... .. . Z00 ...
ROW 35 : ... .. 0 ... ... : ... .. 6 ... ... : ... .. . ... : ... .. . ... : ... .. . Z00 ...
ROW 36 : ... .. . ... ... : ... .. 5 ... ... : ... .. . ... : ... .. . ... : ... .. . Z00 ...
ROW 37 : E-4 00 0 P7F ... : C#4 00 0 P81 ... : ... .. . ... : ... .. . ... : ... .. . Z00 ...
ROW 38 : ... .. 8 ... ... : ... .. 8 ... ... : ... .. . ... : ... .. . ... : ... .. . Z00 ...
ROW 39 : ... .. 7 ... ... : ... .. 7 ... ... : ... .. . ... : ... .. . ... : ... .. . Z00 ...
ROW 3A : ... .. 6 ... ... : ... .. 6 ... ... : ... .. . ... : ... .. . ... : ... .. . Z00 ...
ROW 3B : ... .. 5 ... ... : ... .. 5 ... ... : ... .. . ... : ... .. . ... : ... .. . Z00 ...
ROW 3C : ... .. . ... ... : A#3 00 0 P7C ... : ... .. . ... : ... .. . ... : ... .. . Z00 ...
ROW 3D : ... .. 4 ... ... : ... .. 8 ... ... : ... .. . ... : ... .. . ... : ... .. . Z00 ...
ROW 3E : ... .. . ... ... : ... .. 7 ... ... : ... .. . ... : ... .. . ... : ... .. . Z00 ...
ROW 3F : ... .. 0 ... ... : ... .. 6 ... ... : ... .. . ... : ... .. . ... : ... .. . Z00 ...
ROW 40 : ... .. . ... ... : ... .. 5 ... ... : ... .. . ... : ... .. . ... : ... .. . Z00 ...
ROW 41 : D#4 00 0 P82 ... : C-4 00 0 P80 ... : ... .. . ... : ... .. . ... : ... .. . Z00 ...
ROW 42 : ... .. 8 ... ... : ... .. 8 ... ... : ... .. . ... : ... .. . ... : ... .. . Z00 ...
ROW 43 : ... .. 7 ... ... : ... .. 7 ... ... : ... .. . ... : ... .. . ... : ... .. . Z00 ...
ROW 44 : ... .. 6 ... ... : ... .. 6 ... ... : ... .. . ... : ... .. . ... : ... .. . Z00 ...
ROW 45 : ... .. 5 ... ... : ... .. 5 ... ... : ... .. . ... : ... .. . ... : ... .. . Z00 ...
ROW 46 : ... .. . ... ... : A#3 00 0 P7C ... : ... .. . ... : ... .. . ... : ... .. . Z00 ...
ROW 47 : ... .. 4 ... ... : ... .. 8 ... ... : ... .. . ... : ... .. . ... : ... .. . Z00 ...
ROW 48 : ... .. . ... ... : ... .. 7 ... ... : ... .. . ... : ... .. . ... : ... .. . Z00 ...
ROW 49 : ... .. 0 ... ... : ... .. 6 ... ... : ... .. . ... : ... .. . ... : ... .. . Z00 ...
ROW 4A : ... .. . ... ... : ... .. 5 ... ... : ... .. . ... : ... .. . ... : ... .. . Z00 ...
ROW 4B : E-4 00 0 P7F ... : C#4 00 0 P81 ... : ... .. . ... : ... .. . ... : ... .. . Z00 ...
ROW 4C : ... .. 8 ... ... : ... .. 8 ... ... : ... .. . ... : ... .. . ... : ... .. . Z00 ...
ROW 4D : ... .. 7 ... ... : ... .. 7 ... ... : ... .. . ... : ... .. . ... : ... .. . Z00 ...
ROW 4E : ... .. 6 ... ... : ... .. 6 ... ... : ... .. . ... : ... .. . ... : ... .. . Z00 ...
ROW 4F : ... .. 5 ... ... : ... .. 5 ... ... : ... .. . ... : ... .. . ... : ... .. . Z00 ...

PATTERN 06
ROW 00 : ... .. 0 ... ... : G-3 00 0 P80 ... : D#3 00 . P83 : ... .. . ... : ... .. . Z00 ...
ROW 01 : ... .. . ... ... : ... .. 8 ... ... : ... .. . ... : ... .. . ... : ... .. . Z00 ...
ROW 02 : ... .. . ... ... : ... .. 7 ... ... : ... .. . ... : ... .. . ... : ... .. . Z00 ...
ROW 03 : ... .. . ... ... : ... .. 6 ... ... : ... .. . ... : ... .. . ... : ... .. . Z00 ...
ROW 04 : ... .. . ... ... : ... .. 5 ... ... : ... .. . ... : ... .. . ... : ... .. . Z00 ...
ROW 05 : D-4 00 0 P80 ... : A#3 00 0 P7C ... : ... .. . ... : ... .. . ... : ... .. . Z00 ...
ROW 06 : ... .. 8 ... ... : ... .. 8 ... ... : ... .. . ... : ... .. . ... : ... .. . Z00 ...
ROW 07 : ... .. 7 ... ... : ... .. 7 ... ... : ... .. . ... : ... .. . ... : ... .. . Z00 ...
ROW 08 : ... .. 6 ... ... : ... .. 6 ... ... : ... .. . ... : ... .. . ... : ... .. . Z00 ...
ROW 09 : ... .. 5 ... ... : ... .. 5 ... ... : ... .. . ... : ... .. . ... : ... .. . Z00 ...
ROW 0A : ... .. . ... ... : G-3 00 0 P80 ... : ... .. . ... : ... .. . ... : ... .. . Z00 ...
ROW 0B : ... .. 4 ... ... : ... .. 8 ... ... : ... .. . ... : ... .. . ... : ... .. . Z00 ...
ROW 0C : ... .. . ... ... : ... .. 7 ... ... : ... .. . ... : ... .. . ... : ... .. . Z00 ...
ROW 0D : ... .. 0 ... ... : ... .. 6 ... ... : ... .. . ... : ... .. . ... : ... .. . Z00 ...
ROW 0E : ... .. . ... ... : ... .. 5 ... ... : ... .. . ... : ... .. . ... : ... .. . Z00 ...
ROW 0F : C#4 00 0 P81 ... : A-3 00 0 P7E ... : ... .. . ... : ... .. . ... : ... .. . Z00 ...
ROW 10 : ... .. 8 ... ... : ... .. 8 ... ... : ... .. . ... : ... .. . ... : ... .. . Z00 ...
ROW 11 : ... .. 7 ... ... : ... .. 7 ... ... : ... .. . ... : ... .. . ... : ... .. . Z00 ...
ROW 12 : ... .. 6 ... ... : ... .. 6 ... ... : ... .. . ... : ... .. . ... : ... .. . Z00 ...
ROW 13 : ... .. 5 ... ... : ... .. 5 ... ... : ... .. . ... : ... .. . ... : ... .. . Z00 ...
ROW 14 : ... .. . ... ... : G-3 00 0 P80 ... : ... .. . ... : ... .. . ... : ... .. . Z00 ...
ROW 15 : ... .. 4 ... ... : ... .. 8 ... ... : ... .. . ... : ... .. . ... : ... .. . Z00 ...
ROW 16 : ... .. . ... ... : ... .. 7 ... ... : ... .. . ... : ... .. . ... : ... .. . Z00 ...
ROW 17 : ... .. 0 ... ... : ... .. 6 ... ... : ... .. . ... : ... .. . ... : ... .. . Z00 ...
ROW 18 : ... .. . ... ... : ... .. 5 ... ... : ... .. . ... : ... .. . ... : ... .. . Z00 ...
ROW 19 : C-4 00 0 P80 ... : G#3 00 0 P82 ... : ... .. . ... : ... .. . ... : ... .. . Z00 ...
ROW 1A : ... .. 8 ... ... : ... .. 8 ... ... : ... .. . ... : ... .. . ... : ... .. . Z00 ...
ROW 1B : ... .. 7 ... ... : ... .. 7 ... ... : ... .. . ... : ... .. . ... : ... .. . Z00 ...
ROW 1C : ... .. 6 ... ... : ... .. 6 ... ... : ... .. . ... : ... .. . ... : ... .. . Z00 ...
ROW 1D : ... .. 5 ... ... : ... .. 5 ... ... : ... .. . ... : ... .. . ... : ... .. . Z00 ...
ROW 1E : ... .. . ... ... : G-3 00 0 P80 ... : ... .. . ... : ... .. . ... : ... .. . Z00 ...
ROW 1F : ... .. 4 ... ... : ... .. 8 ... ... : ... .. . ... : ... .. . ... : ... .. . Z00 ...
ROW 20 : ... .. . ... ... : ... .. 7 ... ... : ... .. . ... : ... .. . ... : ... .. . Z00 ...
ROW 21 : ... .. 0 ... ... : ... .. 6 ... ... : ... .. . ... : ... .. . ... : ... .. . Z00 ...
ROW 22 : ... .. . ... ... : ... .. 5 ... ... : ... .. . ... : ... .. . ... : ... .. . Z00 ...
ROW 23 : C#4 00 0 P81 ... : A-3 00 0 P7E ... : ... .. . ... : ... .. . ... : ... .. . Z00 ...
ROW 24 : ... .. 8 ... ... : ... .. 8 ... ... : ... .. . ... : ... .. . ... : ... .. . Z00 ...
ROW 25 : ... .. 7 ... ... : ... .. 7 ... ... : ... .. . ... : ... .. . ... : ... .. . Z00 ...
ROW 26 : ... .. 6 ... ... : ... .. 6 ... ... : ... .. . ... : ... .. . ... : ... .. . Z00 ...
ROW 27 : ... .. 5 ... ... : ... .. 5 ... ... : ... .. . ... : ... .. . ... : ... .. . Z00 ...
ROW 28 : ... .. . ... ... : G-3 00 0 P80 ... : ... .. . ... : ... .. . ... : ... .. . Z00 ...
ROW 29 : ... .. 4 ... ... : ... .. 8 ... ... : ... .. . ... : ... .. . ... : ... .. . Z00 ...
ROW 2A : ... .. . ... ... : ... .. 7 ... ... : ... .. . ... : ... .. . ... : ... .. . Z00 ...
ROW 2B : ... .. 0 ... ... : ... .. 6 ... ... : ... .. . ... : ... .. . ... : ... .. . Z00 ...
ROW 2C : ... .. . ... ... : ... .. 5 ... ... : ... .. . ... : ... .. . ... : ... .. . Z00 ...
ROW 2D : D-4 00 0 P80 ... : A#3 00 0 P7C ... : ... .. . ... : ... .. . ... : ... .. . Z00 ...
ROW 2E : ... .. 8 ... ... : ... .. 8 ... ... : ... .. . ... : ... .. . ... : ... .. . Z00 ...
ROW 2F : ... .. 7 ... ... : ... .. 7 ... ... : ... .. . ... : ... .. . ... : ... .. . Z00 ...
ROW 30 : ... .. 6 ... ... : ... .. 6 ... ... : ... .. . ... : ... .. . ... : ... .. . Z00 ...
ROW 31 : ... .. 5 ... ... : ... .. 5 ... ... : ... .. . ... : ... .. . ... : ... .. . Z00 ...
ROW 32 : ... .. . ... ... : G-3 00 0 P80 ... : ... .. . ... : ... .. . ... : ... .. . Z00 ...
ROW 33 : ... .. 4 ... ... : ... .. 8 ... ... : ... .. . ... : ... .. . ... : ... .. . Z00 ...
ROW 34 : ... .. . ... ... : ... .. 7 ... ... : ... .. . ... : ... .. . ... : ... .. . Z00 ...
ROW 35 : ... .. 0 ... ... : ... .. 6 ... ... : ... .. . ... : ... .. . ... : ... .. . Z00 ...
ROW 36 : ... .. . ... ... : ... .. 5 ... ... : ... .. . ... : ... .. . ... : ... .. . Z00 ...
ROW 37 : D#4 00 0 P82 ... : B-3 00 0 P7E ... : ... .. . ... : ... .. . ... : ... .. . Z00 ...
ROW 38 : ... .. 8 ... ... : ... .. 8 ... ... : ... .. . ... : ... .. . ... : ... .. . Z00 ...
ROW 39 : ... .. 7 ... ... : ... .. 7 ... ... : ... .. . ... : ... .. . ... : ... .. . Z00 ...
ROW 3A : ... .. 6 ... ... : ... .. 6 ... ... : ... .. . ... : ... .. . ... : ... .. . Z00 ...
ROW 3B : ... .. 5 ... ... : ... .. 5 ... ... : ... .. . ... : ... .. . ... : ... .. . Z00 ...
ROW 3C : ... .. . ... ... : G-3 00 0 P80 ... : ... .. . ... : ... .. . ... : ... .. . Z00 ...
ROW 3D : ... .. 4 ... ... : ... .. 8 ... ... : ... .. . ... : ... .. . ... : ... .. . Z00 ...
ROW 3E : ... .. . ... ... : ... .. 7 ... ... : ... .. . ... : ... .. . ... : ... .. . Z00 ...
ROW 3F : ... .. 0 ... ... : ... .. 6 ... ... : ... .. . ... : ... .. . ... : ... .. . Z00 ...
ROW 40 : ... .. . ... ... : ... .. 5 ... ... : ... .. . ... : ... .. . ... : ... .. . Z00 ...
ROW 41 : D-4 00 0 P80 ... : A#3 00 0 P7C ... : ... .. . ... : ... .. . ... : ... .. . Z00 ...
ROW 42 : ... .. 8 ... ... : ... .. 8 ... ... : ... .. . ... : ... .. . ... : ... .. . Z00 ...
ROW 43 : ... .. 7 ... ... : ... .. 7 ... ... : ... .. . ... : ... .. . ... : ... .. . Z00 ...
ROW 44 : ... .. 6 ... ... : ... .. 6 ... ... : ... .. . ... : ... .. . ... : ... .. . Z00 ...
ROW 45 : ... .. 5 ... ... : ... .. 5 ... ... : ... .. . ... : ... .. . ... : ... .. . Z00 ...
ROW 46 : ... .. . ... ... : G-3 00 0 P80 ... : ... .. . ... : ... .. . ... : ... .. . Z00 ...
ROW 47 : ... .. 4 ... ... : ... .. 8 ... ... : ... .. . ... : ... .. . ... : ... .. . Z00 ...
ROW 48 : ... .. . ... ... : ... .. 7 ... ... : ... .. . ... : ... .. . ... : ... .. . Z00 ...
ROW 49 : ... .. 0 ... ... : ... .. 6 ... ... : ... .. . ... : ... .. . ... : ... .. . Z00 ...
ROW 4A : ... .. . ... ... : ... .. 5 ... ... : ... .. . ... : ... .. . ... : ... .. . Z00 ...
ROW 4B : C#4 00 0 P81 ... : A-3 00 0 P7E ... : ... .. . ... : ... .. . ... : ... .. . Z00 ...
ROW 4C : ... .. 8 ... ... : ... .. 8 ... ... : ... .. . ... : ... .. . ... : ... .. . Z00 ...
ROW 4D : ... .. 7 ... ... : ... .. 7 ... ... : ... .. . ... : ... .. . ... : ... .. . Z00 ...
ROW 4E : ... .. 6 ... ... : ... .. 6 ... ... : ... .. . ... : ... .. . ... : ... .. . Z00 ...
ROW 4F : ... .. 5 ... ... : ... .. 5 ... ... : ... .. . ... : ... .. . ... : ... .. . Z00 B01

TRACK 192   1 150 "Invincibleworld"
COLUMNS : 2 2 1 1 2

ORDER 00 : 00 00 00 00 00
ORDER 01 : 00 00 00 00 01

PATTERN 00
ROW 00 : F-3 00 0 P80 V02 : C-4 00 0 P80 V02 : D-3 00 . P81 : 3-# 00 C V00 : --- .. . Z30 ...
ROW 01 : ... .. 8 ... ... : ... .. 8 ... ... : ... .. . ... : ... .. 0 ... : ... .. . Z2F ...
ROW 02 : ... .. 7 ... ... : ... .. 7 ... ... : ... .. . ... : ... .. . ... : ... .. . Z2E ...
ROW 03 : ... .. 6 ... ... : ... .. 6 ... ... : ... .. . ... : ... .. . ... : ... .. . Z2D ...
ROW 04 : ... .. 5 ... ... : ... .. 5 ... ... : ... .. . ... : ... .. . ... : ... .. . Z2C ...
ROW 05 : ... .. . ... ... : ... .. . ... ... : ... .. . ... : ... .. . ... : ... .. . Z2B ...
ROW 06 : ... .. 4 ... ... : ... .. 4 ... ... : ... .. . ... : ... .. . ... : ... .. . Z2A ...
ROW 07 : ... .. . ... ... : ... .. . ... ... : ... .. . ... : ... .. . ... : ... .. . Z29 ...
ROW 08 : ... .. 0 ... ... : ... .. 0 ... ... : --- .. . ... : ... .. . ... : ... .. . Z28 ...
ROW 09 : ... .. . ... ... : ... .. . ... ... : ... .. . ... : ... .. . ... : ... .. . Z27 ...
ROW 0A : ... .. . ... ... : ... .. . ... ... : ... .. . ... : ... .. . ... : ... .. . Z26 ...
ROW 0B : ... .. . ... ... : ... .. . ... ... : ... .. . ... : ... .. . ... : ... .. . Z25 ...
ROW 0C : ... .. . ... ... : ... .. . ... ... : ... .. . ... : C-# 00 C ... : ... .. . Z24 ...
ROW 0D : ... .. 8 ... ... : ... .. 8 ... ... : ... .. . ... : ... .. 0 ... : ... .. . Z23 ...
ROW 0E : ... .. 7 ... ... : ... .. 7 ... ... : ... .. . ... : ... .. . ... : ... .. . Z22 ...
ROW 0F : ... .. 6 ... ... : ... .. 6 ... ... : ... .. . ... : ... .. . ... : ... .. . Z21 ...
ROW 10 : ... .. 5 ... ... : ... .. 5 ... ... : ... .. . ... : B-# 00 0 V01 : ... .. . Z20 ...
ROW 11 : ... .. . ... ... : ... .. . ... ... : ... .. . ... : ... .. . ... : ... .. . Z1F ...
ROW 12 : ... .. 4 ... ... : ... .. 4 ... ... : ... .. . ... : ... .. . ... : ... .. . Z1E ...
ROW 13 : ... .. . ... ... : ... .. . ... ... : ... .. . ... : ... .. . ... : ... .. . Z1D ...
ROW 14 : ... .. 0 ... ... : ... .. 0 ... ... : ... .. . ... : C-# 00 C V00 : ... .. . Z1C ...
ROW 15 : ... .. . ... ... : ... .. . ... ... : ... .. . ... : ... .. 0 ... : ... .. . Z1B ...
ROW 16 : ... .. . ... ... : ... .. . ... ... : ... .. . ... : ... .. . ... : ... .. . Z1A ...
ROW 17 : ... .. . ... ... : ... .. . ... ... : ... .. . ... : ... .. . ... : ... .. . Z19 ...
ROW 18 : ... .. . ... ... : ... .. . ... ... : A-3 00 . P7E : ... .. C ... : ... .. . Z18 ...
ROW 19 : ... .. 8 ... ... : ... .. 8 ... ... : ... .. . ... : ... .. . ... : ... .. . Z17 ...
ROW 1A : ... .. 7 ... ... : ... .. 7 ... ... : ... .. . ... : ... .. . ... : ... .. . Z16 ...
ROW 1B : ... .. 6 ... ... : ... .. 6 ... ... : ... .. . ... : ... .. . ... : ... .. . Z15 ...
ROW 1C : ... .. 5 ... ... : ... .. 5 ... ... : ... .. . ... : ... .. . ... : ... .. . Z14 ...
ROW 1D : ... .. . ... ... : ... .. . ... ... : ... .. . ... : ... .. 0 ... : ... .. . Z13 ...
ROW 1E : ... .. 4 ... ... : ... .. 4 ... ... : ... .. . ... : ... .. . ... : ... .. . Z12 ...
ROW 1F : ... .. . ... ... : ... .. . ... ... : ... .. . ... : ... .. . ... : ... .. . Z11 ...
ROW 20 : ... .. 0 ... ... : ... .. 0 ... ... : --- .. . ... : ... .. . ... : ... .. . Z10 ...
ROW 21 : ... .. . ... ... : ... .. . ... ... : ... .. . ... : ... .. . ... : ... .. . Z0F ...
ROW 22 : ... .. . ... ... : ... .. . ... ... : ... .. . ... : ... .. . ... : ... .. . Z0E ...
ROW 23 : ... .. . ... ... : ... .. . ... ... : ... .. . ... : ... .. . ... : ... .. . Z0D ...
ROW 24 : D-3 00 0 P81 ... : ... .. . ... ... : ... .. . ... : ... .. C ... : ... .. . Z0C ...
ROW 25 : ... .. 8 ... ... : ... .. . ... ... : ... .. . ... : ... .. 0 ... : ... .. . Z0B ...
ROW 26 : ... .. 7 ... ... : ... .. . ... ... : ... .. . ... : ... .. . ... : ... .. . Z0A ...
ROW 27 : ... .. 6 ... ... : ... .. . ... ... : ... .. . ... : ... .. . ... : ... .. . Z09 ...
ROW 28 : ... .. 5 ... ... : ... .. . ... ... : ... .. . ... : B-# 00 0 V01 : ... .. . Z08 ...
ROW 29 : ... .. . ... ... : ... .. . ... ... : ... .. . ... : ... .. . ... : ... .. . Z07 ...
ROW 2A : F-3 00 0 P80 ... : ... .. . ... ... : D-4 00 . P80 : ... .. . ... : ... .. . Z06 ...
ROW 2B : ... .. 8 ... ... : ... .. 8 ... ... : ... .. . ... : ... .. . ... : ... .. . Z05 ...
ROW 2C : ... .. 7 ... ... : ... .. 7 ... ... : ... .. . ... : C-# 00 C V00 : ... .. . Z04 ...
ROW 2D : ... .. 6 ... ... : ... .. 6 ... ... : ... .. . ... : ... .. 0 ... : ... .. . Z03 ...
ROW 2E : ... .. 5 ... ... : ... .. 5 ... ... : ... .. . ... : ... .. . ... : ... .. . Z02 ...
ROW 2F : ... .. . ... ... : ... .. . ... ... : ... .. . ... : ... .. . ... : ... .. . Z01 ...
ROW 30 : ... .. 4 ... ... : ... .. 0 ... ... : ... .. . ... : 3-# 00 C ... : ... .. . Z00 ...
ROW 31 : ... .. . ... ... : ... .. . ... ... : ... .. . ... : ... .. 0 ... : ... .. . Z00 ...
ROW 32 : ... .. 0 ... ... : ... .. . ... ... : --- .. . ... : ... .. . ... : ... .. . Z00 ...
ROW 33 : ... .. . ... ... : ... .. . ... ... : ... .. . ... : ... .. . ... : ... .. . Z00 ...
ROW 34 : ... .. . ... ... : ... .. . ... ... : ... .. . ... : ... .. . ... : ... .. . Z00 ...
ROW 35 : ... .. . ... ... : ... .. . ... ... : ... .. . ... : ... .. . ... : ... .. . Z00 ...
ROW 36 : ... .. . ... ... : ... .. . ... ... : ... .. . ... : ... .. . ... : ... .. . Z00 ...
ROW 37 : ... .. 8 ... ... : ... .. 8 ... ... : ... .. . ... : ... .. . ... : ... .. . Z00 ...
ROW 38 : ... .. 7 ... ... : ... .. 7 ... ... : ... .. . ... : ... .. . ... : ... .. . Z00 ...
ROW 39 : ... .. 6 ... ... : ... .. 6 ... ... : ... .. . ... : ... .. . ... : ... .. . Z00 ...
ROW 3A : ... .. 5 ... ... : ... .. 5 ... ... : ... .. . ... : ... .. . ... : ... .. . Z00 ...
ROW 3B : ... .. . ... ... : ... .. . ... ... : ... .. . ... : ... .. . ... : ... .. . Z00 ...
ROW 3C : ... .. 4 ... ... : ... .. 4 ... ... : ... .. . ... : C-# 00 C ... : ... .. . Z00 ...
ROW 3D : ... .. . ... ... : ... .. . ... ... : ... .. . ... : ... .. 0 ... : ... .. . Z00 ...
ROW 3E : ... .. 0 ... ... : ... .. 0 ... ... : ... .. . ... : ... .. . ... : ... .. . Z00 ...
ROW 3F : ... .. . ... ... : ... .. . ... ... : ... .. . ... : ... .. . ... : ... .. . Z00 ...
ROW 40 : ... .. . ... ... : ... .. . ... ... : ... .. . ... : B-# 00 0 V01 : ... .. . Z00 ...
ROW 41 : ... .. . ... ... : ... .. . ... ... : ... .. . ... : ... .. . ... : ... .. . Z00 ...
ROW 42 : D-3 00 0 P81 ... : ... .. . ... ... : ... .. . ... : ... .. . ... : ... .. . Z00 ...
ROW 43 : ... .. 8 ... ... : ... .. . ... ... : ... .. . ... : ... .. . ... : ... .. . Z00 ...
ROW 44 : ... .. 7 ... ... : ... .. . ... ... : ... .. . ... : C-# 00 C V00 : ... .. . Z00 ...
ROW 45 : ... .. 6 ... ... : ... .. . ... ... : ... .. . ... : ... .. 0 ... : ... .. . Z00 ...
ROW 46 : ... .. 5 ... ... : ... .. . ... ... : ... .. . ... : ... .. . ... : ... .. . Z00 ...
ROW 47 : ... .. . ... ... : ... .. . ... ... : ... .. . ... : ... .. . ... : ... .. . Z00 ...
ROW 48 : F-3 00 0 P80 ... : ... .. . ... ... : A-3 00 . P7E : ... .. C ... : ... .. . Z00 ...
ROW 49 : ... .. 8 ... ... : ... .. 8 ... ... : ... .. . ... : ... .. . ... : ... .. . Z00 ...
ROW 4A : ... .. 7 ... ... : ... .. 7 ... ... : ... .. . ... : ... .. . ... : ... .. . Z00 ...
ROW 4B : ... .. 6 ... ... : ... .. 6 ... ... : ... .. . ... : ... .. . ... : ... .. . Z00 ...
ROW 4C : ... .. 5 ... ... : ... .. 5 ... ... : ... .. . ... : ... .. . ... : ... .. . Z00 ...
ROW 4D : ... .. . ... ... : ... .. . ... ... : ... .. . ... : ... .. 0 ... : ... .. . Z00 ...
ROW 4E : D-3 00 0 P81 ... : ... .. 4 ... ... : ... .. . ... : ... .. . ... : ... .. . Z00 ...
ROW 4F : ... .. 8 ... ... : ... .. . ... ... : ... .. . ... : ... .. . ... : ... .. . Z00 ...
ROW 50 : ... .. 7 ... ... : ... .. 0 ... ... : --- .. . ... : ... .. . ... : ... .. . Z00 ...
ROW 51 : ... .. 6 ... ... : ... .. . ... ... : ... .. . ... : ... .. . ... : ... .. . Z00 ...
ROW 52 : ... .. 5 ... ... : ... .. . ... ... : ... .. . ... : ... .. . ... : ... .. . Z00 ...
ROW 53 : ... .. . ... ... : ... .. . ... ... : ... .. . ... : ... .. . ... : ... .. . Z00 ...
ROW 54 : F-3 00 0 P80 ... : ... .. . ... ... : D-4 00 . P80 : ... .. C ... : ... .. . Z00 ...
ROW 55 : ... .. 8 ... ... : ... .. 8 ... ... : ... .. . ... : ... .. 0 ... : ... .. . Z00 ...
ROW 56 : ... .. 7 ... ... : ... .. 7 ... ... : ... .. . ... : ... .. . ... : ... .. . Z00 ...
ROW 57 : ... .. 6 ... ... : ... .. 6 ... ... : ... .. . ... : ... .. . ... : ... .. . Z00 ...
ROW 58 : ... .. 5 ... ... : ... .. 5 ... ... : ... .. . ... : B-# 00 0 V01 : ... .. . Z00 ...
ROW 59 : ... .. . ... ... : ... .. . ... ... : ... .. . ... : ... .. . ... : ... .. . Z00 ...
ROW 5A : ... .. 4 ... ... : ... .. 4 ... ... : ... .. . ... : ... .. . ... : ... .. . Z00 ...
ROW 5B : ... .. . ... ... : ... .. . ... ... : ... .. . ... : ... .. . ... : ... .. . Z00 ...
ROW 5C : ... .. 0 ... ... : ... .. 0 ... ... : --- .. . ... : C-# 00 C V00 : ... .. . Z00 ...
ROW 5D : ... .. . ... ... : ... .. . ... ... : ... .. . ... : ... .. 0 ... : ... .. . Z00 ...
ROW 5E : ... .. . ... ... : ... .. . ... ... : ... .. . ... : ... .. . ... : ... .. . Z00 ...
ROW 5F : ... .. . ... ... : ... .. . ... ... : ... .. . ... : ... .. . ... : ... .. . Z00 ...
ROW 60 : E-3 00 0 P7D ... : B-3 00 0 P7E ... : C-3 00 . P80 : 3-# 00 C ... : ... .. . Z00 ...
ROW 61 : ... .. 8 ... ... : ... .. 8 ... ... : ... .. . ... : ... .. 0 ... : ... .. . Z00 ...
ROW 62 : ... .. 7 ... ... : ... .. 7 ... ... : ... .. . ... : ... .. . ... : ... .. . Z00 ...
ROW 63 : ... .. 6 ... ... : ... .. 6 ... ... : ... .. . ... : ... .. . ... : ... .. . Z00 ...
ROW 64 : ... .. 5 ... ... : ... .. 5 ... ... : ... .. . ... : ... .. . ... : ... .. . Z00 ...
ROW 65 : ... .. . ... ... : ... .. . ... ... : ... .. . ... : ... .. . ... : ... .. . Z00 ...
ROW 66 : ... .. 4 ... ... : ... .. 4 ... ... : ... .. . ... : ... .. . ... : ... .. . Z00 ...
ROW 67 : ... .. . ... ... : ... .. . ... ... : ... .. . ... : ... .. . ... : ... .. . Z00 ...
ROW 68 : ... .. 0 ... ... : ... .. 0 ... ... : --- .. . ... : ... .. . ... : ... .. . Z00 ...
ROW 69 : ... .. . ... ... : ... .. . ... ... : ... .. . ... : ... .. . ... : ... .. . Z00 ...
ROW 6A : ... .. . ... ... : ... .. . ... ... : ... .. . ... : ... .. . ... : ... .. . Z00 ...
ROW 6B : ... .. . ... ... : ... .. . ... ... : ... .. . ... : ... .. . ... : ... .. . Z00 ...
ROW 6C : ... .. . ... ... : ... .. . ... ... : ... .. . ... : C-# 00 C ... : ... .. . Z00 ...
ROW 6D : ... .. 8 ... ... : ... .. 8 ... ... : ... .. . ... : ... .. 0 ... : ... .. . Z00 ...
ROW 6E : ... .. 7 ... ... : ... .. 7 ... ... : ... .. . ... : ... .. . ... : ... .. . Z00 ...
ROW 6F : ... .. 6 ... ... : ... .. 6 ... ... : ... .. . ... : ... .. . ... : ... .. . Z00 ...
ROW 70 : ... .. 5 ... ... : ... .. 5 ... ... : ... .. . ... : B-# 00 0 V01 : ... .. . Z00 ...
ROW 71 : ... .. . ... ... : ... .. . ... ... : ... .. . ... : ... .. . ... : ... .. . Z00 ...
ROW 72 : ... .. 4 ... ... : ... .. 4 ... ... : ... .. . ... : ... .. . ... : ... .. . Z00 ...
ROW 73 : ... .. . ... ... : ... .. . ... ... : ... .. . ... : ... .. . ... : ... .. . Z00 ...
ROW 74 : ... .. 0 ... ... : ... .. 0 ... ... : ... .. . ... : C-# 00 C V00 : ... .. . Z00 ...
ROW 75 : ... .. . ... ... : ... .. . ... ... : ... .. . ... : ... .. 0 ... : ... .. . Z00 ...
ROW 76 : ... .. . ... ... : ... .. . ... ... : ... .. . ... : ... .. . ... : ... .. . Z00 ...
ROW 77 : ... .. . ... ... : ... .. . ... ... : ... .. . ... : ... .. . ... : ... .. . Z00 ...
ROW 78 : ... .. . ... ... : ... .. . ... ... : G-3 00 . P80 : ... .. C ... : ... .. . Z00 ...
ROW 79 : ... .. 8 ... ... : ... .. 8 ... ... : ... .. . ... : ... .. . ... : ... .. . Z00 ...
ROW 7A : ... .. 7 ... ... : ... .. 7 ... ... : ... .. . ... : ... .. . ... : ... .. . Z00 ...
ROW 7B : ... .. 6 ... ... : ... .. 6 ... ... : ... .. . ... : ... .. . ... : ... .. . Z00 ...
ROW 7C : ... .. 5 ... ... : ... .. 5 ... ... : ... .. . ... : ... .. . ... : ... .. . Z00 ...
ROW 7D : ... .. . ... ... : ... .. . ... ... : ... .. . ... : ... .. 0 ... : ... .. . Z00 ...
ROW 7E : ... .. 4 ... ... : ... .. 4 ... ... : ... .. . ... : ... .. . ... : ... .. . Z00 ...
ROW 7F : ... .. . ... ... : ... .. . ... ... : ... .. . ... : ... .. . ... : ... .. . Z00 ...
ROW 80 : ... .. 0 ... ... : ... .. 0 ... ... : --- .. . ... : ... .. . ... : ... .. . Z00 ...
ROW 81 : ... .. . ... ... : ... .. . ... ... : ... .. . ... : ... .. . ... : ... .. . Z00 ...
ROW 82 : ... .. . ... ... : ... .. . ... ... : ... .. . ... : ... .. . ... : ... .. . Z00 ...
ROW 83 : ... .. . ... ... : ... .. . ... ... : ... .. . ... : ... .. . ... : ... .. . Z00 ...
ROW 84 : C-3 00 0 P80 ... : ... .. . ... ... : ... .. . ... : ... .. C ... : ... .. . Z00 ...
ROW 85 : ... .. 8 ... ... : ... .. . ... ... : ... .. . ... : ... .. 0 ... : ... .. . Z00 ...
ROW 86 : ... .. 7 ... ... : ... .. . ... ... : ... .. . ... : ... .. . ... : ... .. . Z00 ...
ROW 87 : ... .. 6 ... ... : ... .. . ... ... : ... .. . ... : ... .. . ... : ... .. . Z00 ...
ROW 88 : ... .. 5 ... ... : ... .. . ... ... : ... .. . ... : B-# 00 0 V01 : ... .. . Z00 ...
ROW 89 : ... .. . ... ... : ... .. . ... ... : ... .. . ... : ... .. . ... : ... .. . Z00 ...
ROW 8A : E-3 00 0 P7D ... : ... .. . ... ... : C-4 00 . P80 : ... .. . ... : ... .. . Z00 ...
ROW 8B : ... .. 8 ... ... : ... .. 8 ... ... : ... .. . ... : ... .. . ... : ... .. . Z00 ...
ROW 8C : ... .. 7 ... ... : ... .. 7 ... ... : ... .. . ... : C-# 00 C V00 : ... .. . Z00 ...
ROW 8D : ... .. 6 ... ... : ... .. 6 ... ... : ... .. . ... : ... .. 0 ... : ... .. . Z00 ...
ROW 8E : ... .. 5 ... ... : ... .. 5 ... ... : ... .. . ... : ... .. . ... : ... .. . Z00 ...
ROW 8F : ... .. . ... ... : ... .. . ... ... : ... .. . ... : ... .. . ... : ... .. . Z00 ...
ROW 90 : ... .. 4 ... ... : ... .. 0 ... ... : ... .. . ... : 3-# 00 C ... : ... .. . Z00 ...
ROW 91 : ... .. . ... ... : ... .. . ... ... : ... .. . ... : ... .. 0 ... : ... .. . Z00 ...
ROW 92 : ... .. 0 ... ... : ... .. . ... ... : --- .. . ... : ... .. . ... : ... .. . Z00 ...
ROW 93 : ... .. . ... ... : ... .. . ... ... : ... .. . ... : ... .. . ... : ... .. . Z00 ...
ROW 94 : ... .. . ... ... : ... .. . ... ... : ... .. . ... : ... .. . ... : ... .. . Z00 ...
ROW 95 : ... .. . ... ... : ... .. . ... ... : ... .. . ... : ... .. . ... : ... .. . Z00 ...
ROW 96 : ... .. . ... ... : ... .. . ... ... : ... .. . ... : ... .. . ... : ... .. . Z00 ...
ROW 97 : ... .. 8 ... ... : ... .. 8 ... ... : ... .. . ... : ... .. . ... : ... .. . Z00 ...
ROW 98 : ... .. 7 ... ... : ... .. 7 ... ... : ... .. . ... : ... .. . ... : ... .. . Z00 ...
ROW 99 : ... .. 6 ... ... : ... .. 6 ... ... : ... .. . ... : ... .. . ... : ... .. . Z00 ...
ROW 9A : ... .. 5 ... ... : ... .. 5 ... ... : ... .. . ... : ... .. . ... : ... .. . Z00 ...
ROW 9B : ... .. . ... ... : ... .. . ... ... : ... .. . ... : ... .. . ... : ... .. . Z00 ...
ROW 9C : ... .. 4 ... ... : ... .. 4 ... ... : ... .. . ... : C-# 00 C ... : ... .. . Z00 ...
ROW 9D : ... .. . ... ... : ... .. . ... ... : ... .. . ... : ... .. 0 ... : ... .. . Z00 ...
ROW 9E : ... .. 0 ... ... : ... .. 0 ... ... : ... .. . ... : ... .. . ... : ... .. . Z00 ...
ROW 9F : ... .. . ... ... : ... .. . ... ... : ... .. . ... : ... .. . ... : ... .. . Z00 ...
ROW A0 : ... .. . ... ... : ... .. . ... ... : ... .. . ... : B-# 00 0 V01 : ... .. . Z00 ...
ROW A1 : ... .. . ... ... : ... .. . ... ... : ... .. . ... : ... .. . ... : ... .. . Z00 ...
ROW A2 : C-3 00 0 P80 ... : ... .. . ... ... : ... .. . ... : ... .. . ... : ... .. . Z00 ...
ROW A3 : ... .. 8 ... ... : ... .. . ... ... : ... .. . ... : ... .. . ... : ... .. . Z00 ...
ROW A4 : ... .. 7 ... ... : ... .. . ... ... : ... .. . ... : C-# 00 C V00 : ... .. . Z00 ...
ROW A5 : ... .. 6 ... ... : ... .. . ... ... : ... .. . ... : ... .. 0 ... : ... .. . Z00 ...
ROW A6 : ... .. 5 ... ... : ... .. . ... ... : ... .. . ... : ... .. . ... : ... .. . Z00 ...
ROW A7 : ... .. . ... ... : ... .. . ... ... : ... .. . ... : ... .. . ... : ... .. . Z00 ...
ROW A8 : E-3 00 0 P7D ... : ... .. . ... ... : G-3 00 . P80 : ... .. C ... : ... .. . Z00 ...
ROW A9 : ... .. 8 ... ... : ... .. 8 ... ... : ... .. . ... : ... .. . ... : ... .. . Z00 ...
ROW AA : ... .. 7 ... ... : ... .. 7 ... ... : ... .. . ... : ... .. . ... : ... .. . Z00 ...
ROW AB : ... .. 6 ... ... : ... .. 6 ... ... : ... .. . ... : ... .. . ... : ... .. . Z00 ...
ROW AC : ... .. 5 ... ... : ... .. 5 ... ... : ... .. . ... : ... .. . ... : ... .. . Z00 ...
ROW AD : ... .. . ... ... : ... .. . ... ... : ... .. . ... : ... .. 0 ... : ... .. . Z00 ...
ROW AE : C-3 00 0 P80 ... : ... .. 4 ... ... : ... .. . ... : ... .. . ... : ... .. . Z00 ...
ROW AF : ... .. 8 ... ... : ... .. . ... ... : ... .. . ... : ... .. . ... : ... .. . Z00 ...
ROW B0 : ... .. 7 ... ... : ... .. 0 ... ... : --- .. . ... : ... .. . ... : ... .. . Z00 ...
ROW B1 : ... .. 6 ... ... : ... .. . ... ... : ... .. . ... : ... .. . ... : ... .. . Z00 ...
ROW B2 : ... .. 5 ... ... : ... .. . ... ... : ... .. . ... : ... .. . ... : ... .. . Z00 ...
ROW B3 : ... .. . ... ... : ... .. . ... ... : ... .. . ... : ... .. . ... : ... .. . Z00 ...
ROW B4 : E-3 00 0 P7D ... : ... .. . ... ... : C-4 00 . P80 : ... .. C ... : ... .. . Z00 ...
ROW B5 : ... .. 8 ... ... : ... .. 8 ... ... : ... .. . ... : ... .. 0 ... : ... .. . Z00 ...
ROW B6 : ... .. 7 ... ... : ... .. 7 ... ... : ... .. . ... : ... .. . ... : ... .. . Z00 ...
ROW B7 : ... .. 6 ... ... : ... .. 6 ... ... : ... .. . ... : ... .. . ... : ... .. . Z00 ...
ROW B8 : ... .. 5 ... ... : ... .. 5 ... ... : ... .. . ... : B-# 00 0 V01 : ... .. . Z00 ...
ROW B9 : ... .. . ... ... : ... .. . ... ... : ... .. . ... : ... .. . ... : ... .. . Z00 ...
ROW BA : ... .. 4 ... ... : ... .. 4 ... ... : ... .. . ... : ... .. . ... : ... .. . Z00 ...
ROW BB : ... .. . ... ... : ... .. . ... ... : ... .. . ... : ... .. . ... : ... .. . Z00 ...
ROW BC : ... .. 0 ... ... : ... .. 0 ... ... : --- .. . ... : C-# 00 C V00 : ... .. . Z00 ...
ROW BD : ... .. . ... ... : ... .. . ... ... : ... .. . ... : ... .. 0 ... : ... .. . Z00 ...
ROW BE : ... .. . ... ... : ... .. . ... ... : ... .. . ... : ... .. . ... : ... .. . Z00 ...
ROW BF : ... .. . ... ... : ... .. . ... ... : ... .. . ... : ... .. . ... : ... .. . Z00 ...

PATTERN 01
ROW 00 : ... .. . ... ... : ... .. . ... ... : ... .. . ... : ... .. . ... : ... .. . Z00 ...
ROW 01 : ... .. . ... ... : ... .. . ... ... : ... .. . ... : ... .. . ... : ... .. . Z00 ...
ROW 02 : ... .. . ... ... : ... .. . ... ... : ... .. . ... : ... .. . ... : ... .. . Z00 ...
ROW 03 : ... .. . ... ... : ... .. . ... ... : ... .. . ... : ... .. . ... : ... .. . Z00 ...
ROW 04 : ... .. . ... ... : ... .. . ... ... : ... .. . ... : ... .. . ... : ... .. . Z00 ...
ROW 05 : ... .. . ... ... : ... .. . ... ... : ... .. . ... : ... .. . ... : ... .. . Z00 ...
ROW 06 : ... .. . ... ... : ... .. . ... ... : ... .. . ... : ... .. . ... : ... .. . Z00 ...
ROW 07 : ... .. . ... ... : ... .. . ... ... : ... .. . ... : ... .. . ... : ... .. . Z00 ...
ROW 08 : ... .. . ... ... : ... .. . ... ... : ... .. . ... : ... .. . ... : ... .. . Z00 ...
ROW 09 : ... .. . ... ... : ... .. . ... ... : ... .. . ... : ... .. . ... : ... .. . Z00 ...
ROW 0A : ... .. . ... ... : ... .. . ... ... : ... .. . ... : ... .. . ... : ... .. . Z00 ...
ROW 0B : ... .. . ... ... : ... .. . ... ... : ... .. . ... : ... .. . ... : ... .. . Z00 ...
ROW 0C : ... .. . ... ... : ... .. . ... ... : ... .. . ... : ... .. . ... : ... .. . Z00 ...
ROW 0D : ... .. . ... ... : ... .. . ... ... : ... .. . ... : ... .. . ... : ... .. . Z00 ...
ROW 0E : ... .. . ... ... : ... .. . ... ... : ... .. . ... : ... .. . ... : ... .. . Z00 ...
ROW 0F : ... .. . ... ... : ... .. . ... ... : ... .. . ... : ... .. . ... : ... .. . Z00 ...
ROW 10 : ... .. . ... ... : ... .. . ... ... : ... .. . ... : ... .. . ... : ... .. . Z00 ...
ROW 11 : ... .. . ... ... : ... .. . ... ... : ... .. . ... : ... .. . ... : ... .. . Z00 ...
ROW 12 : ... .. . ... ... : ... .. . ... ... : ... .. . ... : ... .. . ... : ... .. . Z00 ...
ROW 13 : ... .. . ... ... : ... .. . ... ... : ... .. . ... : ... .. . ... : ... .. . Z00 ...
ROW 14 : ... .. . ... ... : ... .. . ... ... : ... .. . ... : ... .. . ... : ... .. . Z00 ...
ROW 15 : ... .. . ... ... : ... .. . ... ... : ... .. . ... : ... .. . ... : ... .. . Z00 ...
ROW 16 : ... .. . ... ... : ... .. . ... ... : ... .. . ... : ... .. . ... : ... .. . Z00 ...
ROW 17 : ... .. . ... ... : ... .. . ... ... : ... .. . ... : ... .. . ... : ... .. . Z00 ...
ROW 18 : ... .. . ... ... : ... .. . ... ... : ... .. . ... : ... .. . ... : ... .. . Z00 ...
ROW 19 : ... .. . ... ... : ... .. . ... ... : ... .. . ... : ... .. . ... : ... .. . Z00 ...
ROW 1A : ... .. . ... ... : ... .. . ... ... : ... .. . ... : ... .. . ... : ... .. . Z00 ...
ROW 1B : ... .. . ... ... : ... .. . ... ... : ... .. . ... : ... .. . ... : ... .. . Z00 ...
ROW 1C : ... .. . ... ... : ... .. . ... ... : ... .. . ... : ... .. . ... : ... .. . Z00 ...
ROW 1D : ... .. . ... ... : ... .. . ... ... : ... .. . ... : ... .. . ... : ... .. . Z00 ...
ROW 1E : ... .. . ... ... : ... .. . ... ... : ... .. . ... : ... .. . ... : ... .. . Z00 ...
ROW 1F : ... .. . ... ... : ... .. . ... ... : ... .. . ... : ... .. . ... : ... .. . Z00 ...
ROW 20 : ... .. . ... ... : ... .. . ... ... : ... .. . ... : ... .. . ... : ... .. . Z00 ...
ROW 21 : ... .. . ... ... : ... .. . ... ... : ... .. . ... : ... .. . ... : ... .. . Z00 ...
ROW 22 : ... .. . ... ... : ... .. . ... ... : ... .. . ... : ... .. . ... : ... .. . Z00 ...
ROW 23 : ... .. . ... ... : ... .. . ... ... : ... .. . ... : ... .. . ... : ... .. . Z00 ...
ROW 24 : ... .. . ... ... : ... .. . ... ... : ... .. . ... : ... .. . ... : ... .. . Z00 ...
ROW 25 : ... .. . ... ... : ... .. . ... ... : ... .. . ... : ... .. . ... : ... .. . Z00 ...
ROW 26 : ... .. . ... ... : ... .. . ... ... : ... .. . ... : ... .. . ... : ... .. . Z00 ...
ROW 27 : ... .. . ... ... : ... .. . ... ... : ... .. . ... : ... .. . ... : ... .. . Z00 ...
ROW 28 : ... .. . ... ... : ... .. . ... ... : ... .. . ... : ... .. . ... : ... .. . Z00 ...
ROW 29 : ... .. . ... ... : ... .. . ... ... : ... .. . ... : ... .. . ... : ... .. . Z00 ...
ROW 2A : ... .. . ... ... : ... .. . ... ... : ... .. . ... : ... .. . ... : ... .. . Z00 ...
ROW 2B : ... .. . ... ... : ... .. . ... ... : ... .. . ... : ... .. . ... : ... .. . Z00 ...
ROW 2C : ... .. . ... ... : ... .. . ... ... : ... .. . ... : ... .. . ... : ... .. . Z00 ...
ROW 2D : ... .. . ... ... : ... .. . ... ... : ... .. . ... : ... .. . ... : ... .. . Z00 ...
ROW 2E : ... .. . ... ... : ... .. . ... ... : ... .. . ... : ... .. . ... : ... .. . Z00 ...
ROW 2F : ... .. . ... ... : ... .. . ... ... : ... .. . ... : ... .. . ... : ... .. . Z00 ...
ROW 30 : ... .. . ... ... : ... .. . ... ... : ... .. . ... : ... .. . ... : ... .. . Z00 ...
ROW 31 : ... .. . ... ... : ... .. . ... ... : ... .. . ... : ... .. . ... : ... .. . Z00 ...
ROW 32 : ... .. . ... ... : ... .. . ... ... : ... .. . ... : ... .. . ... : ... .. . Z00 ...
ROW 33 : ... .. . ... ... : ... .. . ... ... : ... .. . ... : ... .. . ... : ... .. . Z00 ...
ROW 34 : ... .. . ... ... : ... .. . ... ... : ... .. . ... : ... .. . ... : ... .. . Z00 ...
ROW 35 : ... .. . ... ... : ... .. . ... ... : ... .. . ... : ... .. . ... : ... .. . Z00 ...
ROW 36 : ... .. . ... ... : ... .. . ... ... : ... .. . ... : ... .. . ... : ... .. . Z00 ...
ROW 37 : ... .. . ... ... : ... .. . ... ... : ... .. . ... : ... .. . ... : ... .. . Z00 ...
ROW 38 : ... .. . ... ... : ... .. . ... ... : ... .. . ... : ... .. . ... : ... .. . Z00 ...
ROW 39 : ... .. . ... ... : ... .. . ... ... : ... .. . ... : ... .. . ... : ... .. . Z00 ...
ROW 3A : ... .. . ... ... : ... .. . ... ... : ... .. . ... : ... .. . ... : ... .. . Z00 ...
ROW 3B : ... .. . ... ... : ... .. . ... ... : ... .. . ... : ... .. . ... : ... .. . Z00 ...
ROW 3C : ... .. . ... ... : ... .. . ... ... : ... .. . ... : ... .. . ... : ... .. . Z00 ...
ROW 3D : ... .. . ... ... : ... .. . ... ... : ... .. . ... : ... .. . ... : ... .. . Z00 ...
ROW 3E : ... .. . ... ... : ... .. . ... ... : ... .. . ... : ... .. . ... : ... .. . Z00 ...
ROW 3F : ... .. . ... ... : ... .. . ... ... : ... .. . ... : ... .. . ... : ... .. . Z00 ...
ROW 40 : ... .. . ... ... : ... .. . ... ... : ... .. . ... : ... .. . ... : ... .. . Z00 ...
ROW 41 : ... .. . ... ... : ... .. . ... ... : ... .. . ... : ... .. . ... : ... .. . Z00 ...
ROW 42 : ... .. . ... ... : ... .. . ... ... : ... .. . ... : ... .. . ... : ... .. . Z00 ...
ROW 43 : ... .. . ... ... : ... .. . ... ... : ... .. . ... : ... .. . ... : ... .. . Z00 ...
ROW 44 : ... .. . ... ... : ... .. . ... ... : ... .. . ... : ... .. . ... : ... .. . Z00 ...
ROW 45 : ... .. . ... ... : ... .. . ... ... : ... .. . ... : ... .. . ... : ... .. . Z00 ...
ROW 46 : ... .. . ... ... : ... .. . ... ... : ... .. . ... : ... .. . ... : ... .. . Z00 ...
ROW 47 : ... .. . ... ... : ... .. . ... ... : ... .. . ... : ... .. . ... : ... .. . Z00 ...
ROW 48 : ... .. . ... ... : ... .. . ... ... : ... .. . ... : ... .. . ... : ... .. . Z00 ...
ROW 49 : ... .. . ... ... : ... .. . ... ... : ... .. . ... : ... .. . ... : ... .. . Z00 ...
ROW 4A : ... .. . ... ... : ... .. . ... ... : ... .. . ... : ... .. . ... : ... .. . Z00 ...
ROW 4B : ... .. . ... ... : ... .. . ... ... : ... .. . ... : ... .. . ... : ... .. . Z00 ...
ROW 4C : ... .. . ... ... : ... .. . ... ... : ... .. . ... : ... .. . ... : ... .. . Z00 ...
ROW 4D : ... .. . ... ... : ... .. . ... ... : ... .. . ... : ... .. . ... : ... .. . Z00 ...
ROW 4E : ... .. . ... ... : ... .. . ... ... : ... .. . ... : ... .. . ... : ... .. . Z00 ...
ROW 4F : ... .. . ... ... : ... .. . ... ... : ... .. . ... : ... .. . ... : ... .. . Z00 ...
ROW 50 : ... .. . ... ... : ... .. . ... ... : ... .. . ... : ... .. . ... : ... .. . Z00 ...
ROW 51 : ... .. . ... ... : ... .. . ... ... : ... .. . ... : ... .. . ... : ... .. . Z00 ...
ROW 52 : ... .. . ... ... : ... .. . ... ... : ... .. . ... : ... .. . ... : ... .. . Z00 ...
ROW 53 : ... .. . ... ... : ... .. . ... ... : ... .. . ... : ... .. . ... : ... .. . Z00 ...
ROW 54 : ... .. . ... ... : ... .. . ... ... : ... .. . ... : ... .. . ... : ... .. . Z00 ...
ROW 55 : ... .. . ... ... : ... .. . ... ... : ... .. . ... : ... .. . ... : ... .. . Z00 ...
ROW 56 : ... .. . ... ... : ... .. . ... ... : ... .. . ... : ... .. . ... : ... .. . Z00 ...
ROW 57 : ... .. . ... ... : ... .. . ... ... : ... .. . ... : ... .. . ... : ... .. . Z00 ...
ROW 58 : ... .. . ... ... : ... .. . ... ... : ... .. . ... : ... .. . ... : ... .. . Z00 ...
ROW 59 : ... .. . ... ... : ... .. . ... ... : ... .. . ... : ... .. . ... : ... .. . Z00 ...
ROW 5A : ... .. . ... ... : ... .. . ... ... : ... .. . ... : ... .. . ... : ... .. . Z00 ...
ROW 5B : ... .. . ... ... : ... .. . ... ... : ... .. . ... : ... .. . ... : ... .. . Z00 ...
ROW 5C : ... .. . ... ... : ... .. . ... ... : ... .. . ... : ... .. . ... : ... .. . Z00 ...
ROW 5D : ... .. . ... ... : ... .. . ... ... : ... .. . ... : ... .. . ... : ... .. . Z00 ...
ROW 5E : ... .. . ... ... : ... .. . ... ... : ... .. . ... : ... .. . ... : ... .. . Z00 ...
ROW 5F : ... .. . ... ... : ... .. . ... ... : ... .. . ... : ... .. . ... : ... .. . Z00 ...
ROW 60 : ... .. . ... ... : ... .. . ... ... : ... .. . ... : ... .. . ... : ... .. . Z00 ...
ROW 61 : ... .. . ... ... : ... .. . ... ... : ... .. . ... : ... .. . ... : ... .. . Z00 ...
ROW 62 : ... .. . ... ... : ... .. . ... ... : ... .. . ... : ... .. . ... : ... .. . Z00 ...
ROW 63 : ... .. . ... ... : ... .. . ... ... : ... .. . ... : ... .. . ... : ... .. . Z00 ...
ROW 64 : ... .. . ... ... : ... .. . ... ... : ... .. . ... : ... .. . ... : ... .. . Z00 ...
ROW 65 : ... .. . ... ... : ... .. . ... ... : ... .. . ... : ... .. . ... : ... .. . Z00 ...
ROW 66 : ... .. . ... ... : ... .. . ... ... : ... .. . ... : ... .. . ... : ... .. . Z00 ...
ROW 67 : ... .. . ... ... : ... .. . ... ... : ... .. . ... : ... .. . ... : ... .. . Z00 ...
ROW 68 : ... .. . ... ... : ... .. . ... ... : ... .. . ... : ... .. . ... : ... .. . Z00 ...
ROW 69 : ... .. . ... ... : ... .. . ... ... : ... .. . ... : ... .. . ... : ... .. . Z00 ...
ROW 6A : ... .. . ... ... : ... .. . ... ... : ... .. . ... : ... .. . ... : ... .. . Z00 ...
ROW 6B : ... .. . ... ... : ... .. . ... ... : ... .. . ... : ... .. . ... : ... .. . Z00 ...
ROW 6C : ... .. . ... ... : ... .. . ... ... : ... .. . ... : ... .. . ... : ... .. . Z00 ...
ROW 6D : ... .. . ... ... : ... .. . ... ... : ... .. . ... : ... .. . ... : ... .. . Z00 ...
ROW 6E : ... .. . ... ... : ... .. . ... ... : ... .. . ... : ... .. . ... : ... .. . Z00 ...
ROW 6F : ... .. . ... ... : ... .. . ... ... : ... .. . ... : ... .. . ... : ... .. . Z00 ...
ROW 70 : ... .. . ... ... : ... .. . ... ... : ... .. . ... : ... .. . ... : ... .. . Z00 ...
ROW 71 : ... .. . ... ... : ... .. . ... ... : ... .. . ... : ... .. . ... : ... .. . Z00 ...
ROW 72 : ... .. . ... ... : ... .. . ... ... : ... .. . ... : ... .. . ... : ... .. . Z00 ...
ROW 73 : ... .. . ... ... : ... .. . ... ... : ... .. . ... : ... .. . ... : ... .. . Z00 ...
ROW 74 : ... .. . ... ... : ... .. . ... ... : ... .. . ... : ... .. . ... : ... .. . Z00 ...
ROW 75 : ... .. . ... ... : ... .. . ... ... : ... .. . ... : ... .. . ... : ... .. . Z00 ...
ROW 76 : ... .. . ... ... : ... .. . ... ... : ... .. . ... : ... .. . ... : ... .. . Z00 ...
ROW 77 : ... .. . ... ... : ... .. . ... ... : ... .. . ... : ... .. . ... : ... .. . Z00 ...
ROW 78 : ... .. . ... ... : ... .. . ... ... : ... .. . ... : ... .. . ... : ... .. . Z00 ...
ROW 79 : ... .. . ... ... : ... .. . ... ... : ... .. . ... : ... .. . ... : ... .. . Z00 ...
ROW 7A : ... .. . ... ... : ... .. . ... ... : ... .. . ... : ... .. . ... : ... .. . Z00 ...
ROW 7B : ... .. . ... ... : ... .. . ... ... : ... .. . ... : ... .. . ... : ... .. . Z00 ...
ROW 7C : ... .. . ... ... : ... .. . ... ... : ... .. . ... : ... .. . ... : ... .. . Z00 ...
ROW 7D : ... .. . ... ... : ... .. . ... ... : ... .. . ... : ... .. . ... : ... .. . Z00 ...
ROW 7E : ... .. . ... ... : ... .. . ... ... : ... .. . ... : ... .. . ... : ... .. . Z00 ...
ROW 7F : ... .. . ... ... : ... .. . ... ... : ... .. . ... : ... .. . ... : ... .. . Z00 ...
ROW 80 : ... .. . ... ... : ... .. . ... ... : ... .. . ... : ... .. . ... : ... .. . Z00 ...
ROW 81 : ... .. . ... ... : ... .. . ... ... : ... .. . ... : ... .. . ... : ... .. . Z00 ...
ROW 82 : ... .. . ... ... : ... .. . ... ... : ... .. . ... : ... .. . ... : ... .. . Z00 ...
ROW 83 : ... .. . ... ... : ... .. . ... ... : ... .. . ... : ... .. . ... : ... .. . Z00 ...
ROW 84 : ... .. . ... ... : ... .. . ... ... : ... .. . ... : ... .. . ... : ... .. . Z00 ...
ROW 85 : ... .. . ... ... : ... .. . ... ... : ... .. . ... : ... .. . ... : ... .. . Z00 ...
ROW 86 : ... .. . ... ... : ... .. . ... ... : ... .. . ... : ... .. . ... : ... .. . Z00 ...
ROW 87 : ... .. . ... ... : ... .. . ... ... : ... .. . ... : ... .. . ... : ... .. . Z00 ...
ROW 88 : ... .. . ... ... : ... .. . ... ... : ... .. . ... : ... .. . ... : ... .. . Z00 ...
ROW 89 : ... .. . ... ... : ... .. . ... ... : ... .. . ... : ... .. . ... : ... .. . Z00 ...
ROW 8A : ... .. . ... ... : ... .. . ... ... : ... .. . ... : ... .. . ... : ... .. . Z00 ...
ROW 8B : ... .. . ... ... : ... .. . ... ... : ... .. . ... : ... .. . ... : ... .. . Z00 ...
ROW 8C : ... .. . ... ... : ... .. . ... ... : ... .. . ... : ... .. . ... : ... .. . Z00 ...
ROW 8D : ... .. . ... ... : ... .. . ... ... : ... .. . ... : ... .. . ... : ... .. . Z00 ...
ROW 8E : ... .. . ... ... : ... .. . ... ... : ... .. . ... : ... .. . ... : ... .. . Z00 ...
ROW 8F : ... .. . ... ... : ... .. . ... ... : ... .. . ... : ... .. . ... : ... .. . Z00 ...
ROW 90 : ... .. . ... ... : ... .. . ... ... : ... .. . ... : ... .. . ... : ... .. . Z00 ...
ROW 91 : ... .. . ... ... : ... .. . ... ... : ... .. . ... : ... .. . ... : ... .. . Z00 ...
ROW 92 : ... .. . ... ... : ... .. . ... ... : ... .. . ... : ... .. . ... : ... .. . Z00 ...
ROW 93 : ... .. . ... ... : ... .. . ... ... : ... .. . ... : ... .. . ... : ... .. . Z00 ...
ROW 94 : ... .. . ... ... : ... .. . ... ... : ... .. . ... : ... .. . ... : ... .. . Z00 ...
ROW 95 : ... .. . ... ... : ... .. . ... ... : ... .. . ... : ... .. . ... : ... .. . Z00 ...
ROW 96 : ... .. . ... ... : ... .. . ... ... : ... .. . ... : ... .. . ... : ... .. . Z00 ...
ROW 97 : ... .. . ... ... : ... .. . ... ... : ... .. . ... : ... .. . ... : ... .. . Z00 ...
ROW 98 : ... .. . ... ... : ... .. . ... ... : ... .. . ... : ... .. . ... : ... .. . Z00 ...
ROW 99 : ... .. . ... ... : ... .. . ... ... : ... .. . ... : ... .. . ... : ... .. . Z00 ...
ROW 9A : ... .. . ... ... : ... .. . ... ... : ... .. . ... : ... .. . ... : ... .. . Z00 ...
ROW 9B : ... .. . ... ... : ... .. . ... ... : ... .. . ... : ... .. . ... : ... .. . Z00 ...
ROW 9C : ... .. . ... ... : ... .. . ... ... : ... .. . ... : ... .. . ... : ... .. . Z00 ...
ROW 9D : ... .. . ... ... : ... .. . ... ... : ... .. . ... : ... .. . ... : ... .. . Z00 ...
ROW 9E : ... .. . ... ... : ... .. . ... ... : ... .. . ... : ... .. . ... : ... .. . Z00 ...
ROW 9F : ... .. . ... ... : ... .. . ... ... : ... .. . ... : ... .. . ... : ... .. . Z00 ...
ROW A0 : ... .. . ... ... : ... .. . ... ... : ... .. . ... : ... .. . ... : ... .. . Z00 ...
ROW A1 : ... .. . ... ... : ... .. . ... ... : ... .. . ... : ... .. . ... : ... .. . Z00 ...
ROW A2 : ... .. . ... ... : ... .. . ... ... : ... .. . ... : ... .. . ... : ... .. . Z00 ...
ROW A3 : ... .. . ... ... : ... .. . ... ... : ... .. . ... : ... .. . ... : ... .. . Z00 ...
ROW A4 : ... .. . ... ... : ... .. . ... ... : ... .. . ... : ... .. . ... : ... .. . Z00 ...
ROW A5 : ... .. . ... ... : ... .. . ... ... : ... .. . ... : ... .. . ... : ... .. . Z00 ...
ROW A6 : ... .. . ... ... : ... .. . ... ... : ... .. . ... : ... .. . ... : ... .. . Z00 ...
ROW A7 : ... .. . ... ... : ... .. . ... ... : ... .. . ... : ... .. . ... : ... .. . Z00 ...
ROW A8 : ... .. . ... ... : ... .. . ... ... : ... .. . ... : ... .. . ... : ... .. . Z00 ...
ROW A9 : ... .. . ... ... : ... .. . ... ... : ... .. . ... : ... .. . ... : ... .. . Z00 ...
ROW AA : ... .. . ... ... : ... .. . ... ... : ... .. . ... : ... .. . ... : ... .. . Z00 ...
ROW AB : ... .. . ... ... : ... .. . ... ... : ... .. . ... : ... .. . ... : ... .. . Z00 ...
ROW AC : ... .. . ... ... : ... .. . ... ... : ... .. . ... : ... .. . ... : ... .. . Z00 ...
ROW AD : ... .. . ... ... : ... .. . ... ... : ... .. . ... : ... .. . ... : ... .. . Z00 ...
ROW AE : ... .. . ... ... : ... .. . ... ... : ... .. . ... : ... .. . ... : ... .. . Z00 ...
ROW AF : ... .. . ... ... : ... .. . ... ... : ... .. . ... : ... .. . ... : ... .. . Z00 ...
ROW B0 : ... .. . ... ... : ... .. . ... ... : ... .. . ... : ... .. . ... : ... .. . Z00 ...
ROW B1 : ... .. . ... ... : ... .. . ... ... : ... .. . ... : ... .. . ... : ... .. . Z00 ...
ROW B2 : ... .. . ... ... : ... .. . ... ... : ... .. . ... : ... .. . ... : ... .. . Z00 ...
ROW B3 : ... .. . ... ... : ... .. . ... ... : ... .. . ... : ... .. . ... : ... .. . Z00 ...
ROW B4 : ... .. . ... ... : ... .. . ... ... : ... .. . ... : ... .. . ... : ... .. . Z00 ...
ROW B5 : ... .. . ... ... : ... .. . ... ... : ... .. . ... : ... .. . ... : ... .. . Z00 ...
ROW B6 : ... .. . ... ... : ... .. . ... ... : ... .. . ... : ... .. . ... : ... .. . Z00 ...
ROW B7 : ... .. . ... ... : ... .. . ... ... : ... .. . ... : ... .. . ... : ... .. . Z00 ...
ROW B8 : ... .. . ... ... : ... .. . ... ... : ... .. . ... : ... .. . ... : ... .. . Z00 ...
ROW B9 : ... .. . ... ... : ... .. . ... ... : ... .. . ... : ... .. . ... : ... .. . Z00 ...
ROW BA : ... .. . ... ... : ... .. . ... ... : ... .. . ... : ... .. . ... : ... .. . Z00 ...
ROW BB : ... .. . ... ... : ... .. . ... ... : ... .. . ... : ... .. . ... : ... .. . Z00 ...
ROW BC : ... .. . ... ... : ... .. . ... ... : ... .. . ... : ... .. . ... : ... .. . Z00 ...
ROW BD : ... .. . ... ... : ... .. . ... ... : ... .. . ... : ... .. . ... : ... .. . Z00 ...
ROW BE : ... .. . ... ... : ... .. . ... ... : ... .. . ... : ... .. . ... : ... .. . Z00 ...
ROW BF : ... .. . ... ... : ... .. . ... ... : ... .. . ... : ... .. . ... : ... .. . Z00 B01

TRACK 192   1 150 "Victoryworld"
COLUMNS : 2 2 1 1 2

ORDER 00 : 00 00 00 00 00
ORDER 01 : 01 01 01 01 01

PATTERN 00
ROW 00 : G-2 00 5 P81 V00 : --- .. 0 P7E V02 : --- .. . P80 : F-# 00 0 V00 : --- .. . Z30 ...
ROW 01 : ... .. 3 ... V02 : ... .. . ... ... : ... .. . ... : ... .. . ... : ... .. . Z2F ...
ROW 02 : ... .. 4 ... ... : ... .. . ... ... : ... .. . ... : ... .. . ... : ... .. . Z2E ...
ROW 03 : ... .. 5 ... ... : ... .. . ... ... : ... .. . ... : ... .. . ... : ... .. . Z2D ...
ROW 04 : ... .. . ... ... : ... .. . ... ... : ... .. . ... : ... .. . ... : ... .. . Z2C ...
ROW 05 : ... .. 6 ... ... : ... .. . ... ... : ... .. . ... : ... .. . ... : ... .. . Z2B ...
ROW 06 : ... .. . ... ... : ... .. . ... ... : ... .. . ... : ... .. . ... : ... .. . Z2A ...
ROW 07 : ... .. . ... ... : ... .. . ... ... : ... .. . ... : ... .. . ... : ... .. . Z29 ...
ROW 08 : C-3 00 5 P80 V00 : E-2 00 5 P7B V00 : ... .. . ... : ... .. . ... : ... .. . Z28 ...
ROW 09 : ... .. 3 ... V02 : ... .. 3 ... V02 : ... .. . ... : ... .. . ... : ... .. . Z27 ...
ROW 0A : ... .. 4 ... ... : ... .. 4 ... ... : ... .. . ... : ... .. . ... : ... .. . Z26 ...
ROW 0B : ... .. 5 ... ... : ... .. 5 ... ... : ... .. . ... : ... .. . ... : ... .. . Z25 ...
ROW 0C : ... .. . ... ... : ... .. . ... ... : ... .. . ... : ... .. . ... : ... .. . Z24 ...
ROW 0D : ... .. 6 ... ... : ... .. 6 ... ... : ... .. . ... : ... .. . ... : ... .. . Z23 ...
ROW 0E : ... .. . ... ... : ... .. . ... ... : ... .. . ... : ... .. . ... : ... .. . Z22 ...
ROW 0F : ... .. . ... ... : ... .. . ... ... : ... .. . ... : ... .. . ... : ... .. . Z21 ...
ROW 10 : E-3 00 5 P7D V00 : G-2 00 5 P81 V00 : ... .. . ... : ... .. . ... : ... .. . Z20 ...
ROW 11 : ... .. 3 ... V02 : ... .. 3 ... V02 : ... .. . ... : ... .. . ... : ... .. . Z1F ...
ROW 12 : ... .. 4 ... ... : ... .. 4 ... ... : ... .. . ... : ... .. . ... : ... .. . Z1E ...
ROW 13 : ... .. 5 ... ... : ... .. 5 ... ... : ... .. . ... : ... .. . ... : ... .. . Z1D ...
ROW 14 : ... .. . ... ... : ... .. . ... ... : ... .. . ... : ... .. . ... : ... .. . Z1C ...
ROW 15 : ... .. 6 ... ... : ... .. 6 ... ... : ... .. . ... : ... .. . ... : ... .. . Z1B ...
ROW 16 : ... .. . ... ... : ... .. . ... ... : ... .. . ... : ... .. . ... : ... .. . Z1A ...
ROW 17 : ... .. . ... ... : ... .. . ... ... : ... .. . ... : ... .. . ... : ... .. . Z19 ...
ROW 18 : G-3 00 5 P80 V00 : C-3 00 5 P80 V00 : C-3 00 . P80 : ... .. . ... : ... .. . Z18 ...
ROW 19 : ... .. 3 ... V02 : ... .. 3 ... V02 : ... .. . ... : ... .. . ... : ... .. . Z17 ...
ROW 1A : ... .. 4 ... ... : ... .. 4 ... ... : ... .. . ... : ... .. . ... : ... .. . Z16 ...
ROW 1B : ... .. 5 ... ... : ... .. 5 ... ... : ... .. . ... : ... .. . ... : ... .. . Z15 ...
ROW 1C : ... .. . ... ... : ... .. . ... ... : ... .. . ... : ... .. . ... : ... .. . Z14 ...
ROW 1D : ... .. 6 ... ... : ... .. 6 ... ... : ... .. . ... : ... .. . ... : ... .. . Z13 ...
ROW 1E : ... .. . ... ... : ... .. . ... ... : ... .. . ... : ... .. . ... : ... .. . Z12 ...
ROW 1F : ... .. . ... ... : ... .. . ... ... : ... .. . ... : ... .. . ... : ... .. . Z11 ...
ROW 20 : C-4 00 5 P80 V00 : E-3 00 5 P7D V00 : E-3 00 . P7D : ... .. . ... : ... .. . Z10 ...
ROW 21 : ... .. 3 ... V02 : ... .. 3 ... V02 : ... .. . ... : ... .. . ... : ... .. . Z0F ...
ROW 22 : ... .. 4 ... ... : ... .. 4 ... ... : ... .. . ... : ... .. . ... : ... .. . Z0E ...
ROW 23 : ... .. 5 ... ... : ... .. 5 ... ... : ... .. . ... : ... .. . ... : ... .. . Z0D ...
ROW 24 : ... .. . ... ... : ... .. . ... ... : ... .. . ... : ... .. . ... : ... .. . Z0C ...
ROW 25 : ... .. 6 ... ... : ... .. 6 ... ... : ... .. . ... : ... .. . ... : ... .. . Z0B ...
ROW 26 : ... .. . ... ... : ... .. . ... ... : ... .. . ... : ... .. . ... : ... .. . Z0A ...
ROW 27 : ... .. . ... ... : ... .. . ... ... : ... .. . ... : ... .. . ... : ... .. . Z09 ...
ROW 28 : E-4 00 5 P7F V00 : G-3 00 5 P80 V00 : G-3 00 . P80 : ... .. . ... : ... .. . Z08 ...
ROW 29 : ... .. 3 ... V02 : ... .. 3 ... V02 : ... .. . ... : ... .. . ... : ... .. . Z07 ...
ROW 2A : ... .. 4 ... ... : ... .. 4 ... ... : ... .. . ... : ... .. . ... : ... .. . Z06 ...
ROW 2B : ... .. 5 ... ... : ... .. 5 ... ... : ... .. . ... : ... .. . ... : ... .. . Z05 ...
ROW 2C : ... .. . ... ... : ... .. . ... ... : ... .. . ... : ... .. . ... : ... .. . Z04 ...
ROW 2D : ... .. 6 ... ... : ... .. 6 ... ... : ... .. . ... : ... .. . ... : ... .. . Z03 ...
ROW 2E : ... .. . ... ... : ... .. . ... ... : ... .. . ... : ... .. . ... : ... .. . Z02 ...
ROW 2F : ... .. . ... ... : ... .. . ... ... : ... .. . ... : ... .. . ... : ... .. . Z01 ...
ROW 30 : G-4 00 5 P80 V00 : C-4 00 5 P80 V00 : E-4 00 . P7F : ... .. . ... : ... .. . Z00 ...
ROW 31 : ... .. 3 ... V02 : ... .. 3 ... V02 : ... .. . ... : ... .. . ... : ... .. . Z00 ...
ROW 32 : ... .. 4 ... ... : ... .. 4 ... ... : ... .. . ... : ... .. . ... : ... .. . Z00 ...
ROW 33 : ... .. 5 ... ... : ... .. 5 ... ... : ... .. . ... : ... .. . ... : ... .. . Z00 ...
ROW 34 : ... .. . ... ... : ... .. . ... ... : ... .. . ... : ... .. . ... : ... .. . Z00 ...
ROW 35 : ... .. 6 ... ... : ... .. 6 ... ... : ... .. . ... : ... .. . ... : ... .. . Z00 ...
ROW 36 : ... .. . ... ... : ... .. . ... ... : ... .. . ... : ... .. . ... : ... .. . Z00 ...
ROW 37 : ... .. . ... ... : ... .. . ... ... : ... .. . ... : ... .. . ... : ... .. . Z00 ...
ROW 38 : ... .. . ... ... : ... .. . ... ... : ... .. . ... : ... .. . ... : ... .. . Z00 ...
ROW 39 : ... .. . ... ... : ... .. . ... ... : ... .. . ... : ... .. . ... : ... .. . Z00 ...
ROW 3A : ... .. . ... ... : ... .. . ... ... : ... .. . ... : ... .. . ... : ... .. . Z00 ...
ROW 3B : ... .. . ... ... : ... .. . ... ... : ... .. . ... : ... .. . ... : ... .. . Z00 ...
ROW 3C : ... .. . ... ... : ... .. . ... ... : ... .. . ... : ... .. . ... : ... .. . Z00 ...
ROW 3D : ... .. . ... ... : ... .. . ... ... : ... .. . ... : ... .. . ... : ... .. . Z00 ...
ROW 3E : ... .. . ... ... : ... .. . ... ... : ... .. . ... : ... .. . ... : ... .. . Z00 ...
ROW 3F : ... .. . ... ... : ... .. . ... ... : ... .. . ... : ... .. . ... : ... .. . Z00 ...
ROW 40 : ... .. . ... ... : ... .. . ... ... : ... .. . ... : ... .. . ... : ... .. . Z00 ...
ROW 41 : ... .. . ... ... : ... .. . ... ... : ... .. . ... : ... .. . ... : ... .. . Z00 ...
ROW 42 : ... .. . ... ... : ... .. . ... ... : ... .. . ... : ... .. . ... : ... .. . Z00 ...
ROW 43 : ... .. . ... ... : ... .. . ... ... : ... .. . ... : ... .. . ... : ... .. . Z00 ...
ROW 44 : ... .. . ... ... : ... .. . ... ... : ... .. . ... : ... .. . ... : ... .. . Z00 ...
ROW 45 : ... .. . ... ... : ... .. . ... ... : ... .. . ... : ... .. . ... : ... .. . Z00 ...
ROW 46 : ... .. 5 ... ... : ... .. 5 ... ... : ... .. . ... : ... .. . ... : ... .. . Z00 ...
ROW 47 : ... .. . ... ... : ... .. . ... ... : ... .. . ... : ... .. . ... : ... .. . Z00 ...
ROW 48 : E-4 00 5 P7F V00 : G-3 00 5 P80 V00 : C-4 00 . P80 : ... .. . ... : ... .. . Z00 ...
ROW 49 : ... .. 3 ... V02 : ... .. 3 ... V02 : ... .. . ... : ... .. . ... : ... .. . Z00 ...
ROW 4A : ... .. 4 ... ... : ... .. 4 ... ... : ... .. . ... : ... .. . ... : ... .. . Z00 ...
ROW 4B : ... .. 5 ... ... : ... .. 5 ... ... : ... .. . ... : ... .. . ... : ... .. . Z00 ...
ROW 4C : ... .. . ... ... : ... .. . ... ... : ... .. . ... : ... .. . ... : ... .. . Z00 ...
ROW 4D : ... .. 6 ... ... : ... .. 6 ... ... : ... .. . ... : ... .. . ... : ... .. . Z00 ...
ROW 4E : ... .. . ... ... : ... .. . ... ... : ... .. . ... : ... .. . ... : ... .. . Z00 ...
ROW 4F : ... .. . ... ... : ... .. . ... ... : ... .. . ... : ... .. . ... : ... .. . Z00 ...
ROW 50 : ... .. . ... ... : ... .. . ... ... : --- .. . ... : ... .. . ... : ... .. . Z00 ...
ROW 51 : ... .. . ... ... : ... .. . ... ... : ... .. . ... : ... .. . ... : ... .. . Z00 ...
ROW 52 : ... .. . ... ... : ... .. . ... ... : ... .. . ... : ... .. . ... : ... .. . Z00 ...
ROW 53 : ... .. . ... ... : ... .. . ... ... : ... .. . ... : ... .. . ... : ... .. . Z00 ...
ROW 54 : ... .. . ... ... : ... .. . ... ... : ... .. . ... : ... .. . ... : ... .. . Z00 ...
ROW 55 : ... .. . ... ... : ... .. . ... ... : ... .. . ... : ... .. . ... : ... .. . Z00 ...
ROW 56 : ... .. . ... ... : ... .. . ... ... : ... .. . ... : ... .. . ... : ... .. . Z00 ...
ROW 57 : ... .. . ... ... : ... .. . ... ... : ... .. . ... : ... .. . ... : ... .. . Z00 ...
ROW 58 : ... .. . ... ... : ... .. . ... ... : ... .. . ... : ... .. . ... : ... .. . Z00 ...
ROW 59 : ... .. . ... ... : ... .. . ... ... : ... .. . ... : ... .. . ... : ... .. . Z00 ...
ROW 5A : ... .. . ... ... : ... .. . ... ... : ... .. . ... : ... .. . ... : ... .. . Z00 ...
ROW 5B : ... .. . ... ... : ... .. . ... ... : ... .. . ... : ... .. . ... : ... .. . Z00 ...
ROW 5C : ... .. . ... ... : ... .. . ... ... : ... .. . ... : ... .. . ... : ... .. . Z00 ...
ROW 5D : ... .. . ... ... : ... .. . ... ... : ... .. . ... : ... .. . ... : ... .. . Z00 ...
ROW 5E : ... .. 5 ... ... : ... .. 5 ... ... : ... .. . ... : ... .. . ... : ... .. . Z00 ...
ROW 5F : ... .. . ... ... : ... .. . ... ... : ... .. . ... : ... .. . ... : ... .. . Z00 ...
ROW 60 : G#2 00 5 P84 V00 : ... .. 0 ... ... : ... .. . ... : ... .. . ... : ... .. . Z00 ...
ROW 61 : ... .. 3 ... V02 : ... .. . ... ... : ... .. . ... : ... .. . ... : ... .. . Z00 ...
ROW 62 : ... .. 4 ... ... : ... .. . ... ... : ... .. . ... : ... .. . ... : ... .. . Z00 ...
ROW 63 : ... .. 5 ... ... : ... .. . ... ... : ... .. . ... : ... .. . ... : ... .. . Z00 ...
ROW 64 : ... .. . ... ... : ... .. . ... ... : ... .. . ... : ... .. . ... : ... .. . Z00 ...
ROW 65 : ... .. 6 ... ... : ... .. . ... ... : ... .. . ... : ... .. . ... : ... .. . Z00 ...
ROW 66 : ... .. . ... ... : ... .. . ... ... : ... .. . ... : ... .. . ... : ... .. . Z00 ...
ROW 67 : ... .. . ... ... : ... .. . ... ... : ... .. . ... : ... .. . ... : ... .. . Z00 ...
ROW 68 : C-3 00 5 P80 V00 : D#2 00 5 P87 V00 : ... .. . ... : ... .. . ... : ... .. . Z00 ...
ROW 69 : ... .. 3 ... V02 : ... .. 3 ... V02 : ... .. . ... : ... .. . ... : ... .. . Z00 ...
ROW 6A : ... .. 4 ... ... : ... .. 4 ... ... : ... .. . ... : ... .. . ... : ... .. . Z00 ...
ROW 6B : ... .. 5 ... ... : ... .. 5 ... ... : ... .. . ... : ... .. . ... : ... .. . Z00 ...
ROW 6C : ... .. . ... ... : ... .. . ... ... : ... .. . ... : ... .. . ... : ... .. . Z00 ...
ROW 6D : ... .. 6 ... ... : ... .. 6 ... ... : ... .. . ... : ... .. . ... : ... .. . Z00 ...
ROW 6E : ... .. . ... ... : ... .. . ... ... : ... .. . ... : ... .. . ... : ... .. . Z00 ...
ROW 6F : ... .. . ... ... : ... .. . ... ... : ... .. . ... : ... .. . ... : ... .. . Z00 ...
ROW 70 : D#3 00 5 P83 V00 : G#2 00 5 P84 V00 : ... .. . ... : ... .. . ... : ... .. . Z00 ...
ROW 71 : ... .. 3 ... V02 : ... .. 3 ... V02 : ... .. . ... : ... .. . ... : ... .. . Z00 ...
ROW 72 : ... .. 4 ... ... : ... .. 4 ... ... : ... .. . ... : ... .. . ... : ... .. . Z00 ...
ROW 73 : ... .. 5 ... ... : ... .. 5 ... ... : ... .. . ... : ... .. . ... : ... .. . Z00 ...
ROW 74 : ... .. . ... ... : ... .. . ... ... : ... .. . ... : ... .. . ... : ... .. . Z00 ...
ROW 75 : ... .. 6 ... ... : ... .. 6 ... ... : ... .. . ... : ... .. . ... : ... .. . Z00 ...
ROW 76 : ... .. . ... ... : ... .. . ... ... : ... .. . ... : ... .. . ... : ... .. . Z00 ...
ROW 77 : ... .. . ... ... : ... .. . ... ... : ... .. . ... : ... .. . ... : ... .. . Z00 ...
ROW 78 : G#3 00 5 P82 V00 : C-3 00 5 P80 V00 : C-3 00 . P80 : ... .. . ... : ... .. . Z00 ...
ROW 79 : ... .. 3 ... V02 : ... .. 3 ... V02 : ... .. . ... : ... .. . ... : ... .. . Z00 ...
ROW 7A : ... .. 4 ... ... : ... .. 4 ... ... : ... .. . ... : ... .. . ... : ... .. . Z00 ...
ROW 7B : ... .. 5 ... ... : ... .. 5 ... ... : ... .. . ... : ... .. . ... : ... .. . Z00 ...
ROW 7C : ... .. . ... ... : ... .. . ... ... : ... .. . ... : ... .. . ... : ... .. . Z00 ...
ROW 7D : ... .. 6 ... ... : ... .. 6 ... ... : ... .. . ... : ... .. . ... : ... .. . Z00 ...
ROW 7E : ... .. . ... ... : ... .. . ... ... : ... .. . ... : ... .. . ... : ... .. . Z00 ...
ROW 7F : ... .. . ... ... : ... .. . ... ... : ... .. . ... : ... .. . ... : ... .. . Z00 ...
ROW 80 : C-4 00 5 P80 V00 : D#3 00 5 P83 V00 : D#3 00 . P83 : ... .. . ... : ... .. . Z00 ...
ROW 81 : ... .. 3 ... V02 : ... .. 3 ... V02 : ... .. . ... : ... .. . ... : ... .. . Z00 ...
ROW 82 : ... .. 4 ... ... : ... .. 4 ... ... : ... .. . ... : ... .. . ... : ... .. . Z00 ...
ROW 83 : ... .. 5 ... ... : ... .. 5 ... ... : ... .. . ... : ... .. . ... : ... .. . Z00 ...
ROW 84 : ... .. . ... ... : ... .. . ... ... : ... .. . ... : ... .. . ... : ... .. . Z00 ...
ROW 85 : ... .. 6 ... ... : ... .. 6 ... ... : ... .. . ... : ... .. . ... : ... .. . Z00 ...
ROW 86 : ... .. . ... ... : ... .. . ... ... : ... .. . ... : ... .. . ... : ... .. . Z00 ...
ROW 87 : ... .. . ... ... : ... .. . ... ... : ... .. . ... : ... .. . ... : ... .. . Z00 ...
ROW 88 : D#4 00 5 P82 V00 : G#3 00 5 P82 V00 : G#3 00 . P82 : ... .. . ... : ... .. . Z00 ...
ROW 89 : ... .. 3 ... V02 : ... .. 3 ... V02 : ... .. . ... : ... .. . ... : ... .. . Z00 ...
ROW 8A : ... .. 4 ... ... : ... .. 4 ... ... : ... .. . ... : ... .. . ... : ... .. . Z00 ...
ROW 8B : ... .. 5 ... ... : ... .. 5 ... ... : ... .. . ... : ... .. . ... : ... .. . Z00 ...
ROW 8C : ... .. . ... ... : ... .. . ... ... : ... .. . ... : ... .. . ... : ... .. . Z00 ...
ROW 8D : ... .. 6 ... ... : ... .. 6 ... ... : ... .. . ... : ... .. . ... : ... .. . Z00 ...
ROW 8E : ... .. . ... ... : ... .. . ... ... : ... .. . ... : ... .. . ... : ... .. . Z00 ...
ROW 8F : ... .. . ... ... : ... .. . ... ... : ... .. . ... : ... .. . ... : ... .. . Z00 ...
ROW 90 : G#4 00 5 P81 V00 : C-4 00 5 P80 V00 : D#4 00 . P82 : ... .. . ... : ... .. . Z00 ...
ROW 91 : ... .. 3 ... V02 : ... .. 3 ... V02 : ... .. . ... : ... .. . ... : ... .. . Z00 ...
ROW 92 : ... .. 4 ... ... : ... .. 4 ... ... : ... .. . ... : ... .. . ... : ... .. . Z00 ...
ROW 93 : ... .. 5 ... ... : ... .. 5 ... ... : ... .. . ... : ... .. . ... : ... .. . Z00 ...
ROW 94 : ... .. . ... ... : ... .. . ... ... : ... .. . ... : ... .. . ... : ... .. . Z00 ...
ROW 95 : ... .. 6 ... ... : ... .. 6 ... ... : ... .. . ... : ... .. . ... : ... .. . Z00 ...
ROW 96 : ... .. . ... ... : ... .. . ... ... : ... .. . ... : ... .. . ... : ... .. . Z00 ...
ROW 97 : ... .. . ... ... : ... .. . ... ... : ... .. . ... : ... .. . ... : ... .. . Z00 ...
ROW 98 : ... .. . ... ... : ... .. . ... ... : ... .. . ... : ... .. . ... : ... .. . Z00 ...
ROW 99 : ... .. . ... ... : ... .. . ... ... : ... .. . ... : ... .. . ... : ... .. . Z00 ...
ROW 9A : ... .. . ... ... : ... .. . ... ... : ... .. . ... : ... .. . ... : ... .. . Z00 ...
ROW 9B : ... .. . ... ... : ... .. . ... ... : ... .. . ... : ... .. . ... : ... .. . Z00 ...
ROW 9C : ... .. . ... ... : ... .. . ... ... : ... .. . ... : ... .. . ... : ... .. . Z00 ...
ROW 9D : ... .. . ... ... : ... .. . ... ... : ... .. . ... : ... .. . ... : ... .. . Z00 ...
ROW 9E : ... .. . ... ... : ... .. . ... ... : ... .. . ... : ... .. . ... : ... .. . Z00 ...
ROW 9F : ... .. . ... ... : ... .. . ... ... : ... .. . ... : ... .. . ... : ... .. . Z00 ...
ROW A0 : ... .. . ... ... : ... .. . ... ... : ... .. . ... : ... .. . ... : ... .. . Z00 ...
ROW A1 : ... .. . ... ... : ... .. . ... ... : ... .. . ... : ... .. . ... : ... .. . Z00 ...
ROW A2 : ... .. . ... ... : ... .. . ... ... : ... .. . ... : ... .. . ... : ... .. . Z00 ...
ROW A3 : ... .. . ... ... : ... .. . ... ... : ... .. . ... : ... .. . ... : ... .. . Z00 ...
ROW A4 : ... .. . ... ... : ... .. . ... ... : ... .. . ... : ... .. . ... : ... .. . Z00 ...
ROW A5 : ... .. . ... ... : ... .. . ... ... : ... .. . ... : ... .. . ... : ... .. . Z00 ...
ROW A6 : ... .. 5 ... ... : ... .. 5 ... ... : ... .. . ... : ... .. . ... : ... .. . Z00 ...
ROW A7 : ... .. . ... ... : ... .. . ... ... : ... .. . ... : ... .. . ... : ... .. . Z00 ...
ROW A8 : D#4 00 5 P82 V00 : G#3 00 5 P82 V00 : C-4 00 . P80 : ... .. . ... : ... .. . Z00 ...
ROW A9 : ... .. 3 ... V02 : ... .. 3 ... V02 : ... .. . ... : ... .. . ... : ... .. . Z00 ...
ROW AA : ... .. 4 ... ... : ... .. 4 ... ... : ... .. . ... : ... .. . ... : ... .. . Z00 ...
ROW AB : ... .. 5 ... ... : ... .. 5 ... ... : ... .. . ... : ... .. . ... : ... .. . Z00 ...
ROW AC : ... .. . ... ... : ... .. . ... ... : ... .. . ... : ... .. . ... : ... .. . Z00 ...
ROW AD : ... .. 6 ... ... : ... .. 6 ... ... : ... .. . ... : ... .. . ... : ... .. . Z00 ...
ROW AE : ... .. . ... ... : ... .. . ... ... : ... .. . ... : ... .. . ... : ... .. . Z00 ...
ROW AF : ... .. . ... ... : ... .. . ... ... : ... .. . ... : ... .. . ... : ... .. . Z00 ...
ROW B0 : ... .. . ... ... : ... .. . ... ... : --- .. . ... : ... .. . ... : ... .. . Z00 ...
ROW B1 : ... .. . ... ... : ... .. . ... ... : ... .. . ... : ... .. . ... : ... .. . Z00 ...
ROW B2 : ... .. . ... ... : ... .. . ... ... : ... .. . ... : ... .. . ... : ... .. . Z00 ...
ROW B3 : ... .. . ... ... : ... .. . ... ... : ... .. . ... : ... .. . ... : ... .. . Z00 ...
ROW B4 : ... .. . ... ... : ... .. . ... ... : ... .. . ... : ... .. . ... : ... .. . Z00 ...
ROW B5 : ... .. . ... ... : ... .. . ... ... : ... .. . ... : ... .. . ... : ... .. . Z00 ...
ROW B6 : ... .. . ... ... : ... .. . ... ... : ... .. . ... : ... .. . ... : ... .. . Z00 ...
ROW B7 : ... .. . ... ... : ... .. . ... ... : ... .. . ... : ... .. . ... : ... .. . Z00 ...
ROW B8 : ... .. . ... ... : ... .. . ... ... : ... .. . ... : ... .. . ... : ... .. . Z00 ...
ROW B9 : ... .. . ... ... : ... .. . ... ... : ... .. . ... : ... .. . ... : ... .. . Z00 ...
ROW BA : ... .. . ... ... : ... .. . ... ... : ... .. . ... : ... .. . ... : ... .. . Z00 ...
ROW BB : ... .. . ... ... : ... .. . ... ... : ... .. . ... : ... .. . ... : ... .. . Z00 ...
ROW BC : ... .. . ... ... : ... .. . ... ... : ... .. . ... : ... .. . ... : ... .. . Z00 ...
ROW BD : ... .. . ... ... : ... .. . ... ... : ... .. . ... : ... .. . ... : ... .. . Z00 ...
ROW BE : ... .. 5 ... ... : ... .. 5 ... ... : ... .. . ... : ... .. . ... : ... .. . Z00 ...
ROW BF : ... .. . ... ... : ... .. . ... ... : ... .. . ... : ... .. . ... : ... .. . Z00 ...

PATTERN 01
ROW 00 : A#2 00 5 P77 V00 : ... .. 0 ... ... : ... .. . ... : ... .. . ... : ... .. . Z00 ...
ROW 01 : ... .. 3 ... V02 : ... .. . ... ... : ... .. . ... : ... .. . ... : ... .. . Z00 ...
ROW 02 : ... .. 4 ... ... : ... .. . ... ... : ... .. . ... : ... .. . ... : ... .. . Z00 ...
ROW 03 : ... .. 5 ... ... : ... .. . ... ... : ... .. . ... : ... .. . ... : ... .. . Z00 ...
ROW 04 : ... .. . ... ... : ... .. . ... ... : ... .. . ... : ... .. . ... : ... .. . Z00 ...
ROW 05 : ... .. 6 ... ... : ... .. . ... ... : ... .. . ... : ... .. . ... : ... .. . Z00 ...
ROW 06 : ... .. . ... ... : ... .. . ... ... : ... .. . ... : ... .. . ... : ... .. . Z00 ...
ROW 07 : ... .. . ... ... : ... .. . ... ... : ... .. . ... : ... .. . ... : ... .. . Z00 ...
ROW 08 : D-3 00 5 P81 V00 : F-2 00 5 P7F V00 : ... .. . ... : ... .. . ... : ... .. . Z00 ...
ROW 09 : ... .. 3 ... V02 : ... .. 3 ... V02 : ... .. . ... : ... .. . ... : ... .. . Z00 ...
ROW 0A : ... .. 4 ... ... : ... .. 4 ... ... : ... .. . ... : ... .. . ... : ... .. . Z00 ...
ROW 0B : ... .. 5 ... ... : ... .. 5 ... ... : ... .. . ... : ... .. . ... : ... .. . Z00 ...
ROW 0C : ... .. . ... ... : ... .. . ... ... : ... .. . ... : ... .. . ... : ... .. . Z00 ...
ROW 0D : ... .. 6 ... ... : ... .. 6 ... ... : ... .. . ... : ... .. . ... : ... .. . Z00 ...
ROW 0E : ... .. . ... ... : ... .. . ... ... : ... .. . ... : ... .. . ... : ... .. . Z00 ...
ROW 0F : ... .. . ... ... : ... .. . ... ... : ... .. . ... : ... .. . ... : ... .. . Z00 ...
ROW 10 : F-3 00 5 P80 V00 : A#2 00 5 P77 V00 : ... .. . ... : ... .. . ... : ... .. . Z00 ...
ROW 11 : ... .. 3 ... V02 : ... .. 3 ... V02 : ... .. . ... : ... .. . ... : ... .. . Z00 ...
ROW 12 : ... .. 4 ... ... : ... .. 4 ... ... : ... .. . ... : ... .. . ... : ... .. . Z00 ...
ROW 13 : ... .. 5 ... ... : ... .. 5 ... ... : ... .. . ... : ... .. . ... : ... .. . Z00 ...
ROW 14 : ... .. . ... ... : ... .. . ... ... : ... .. . ... : ... .. . ... : ... .. . Z00 ...
ROW 15 : ... .. 6 ... ... : ... .. 6 ... ... : ... .. . ... : ... .. . ... : ... .. . Z00 ...
ROW 16 : ... .. . ... ... : ... .. . ... ... : ... .. . ... : ... .. . ... : ... .. . Z00 ...
ROW 17 : ... .. . ... ... : ... .. . ... ... : ... .. . ... : ... .. . ... : ... .. . Z00 ...
ROW 18 : A#3 00 5 P7C V00 : D-3 00 5 P81 V00 : D-3 00 . P81 : ... .. . ... : ... .. . Z00 ...
ROW 19 : ... .. 3 ... V02 : ... .. 3 ... V02 : ... .. . ... : ... .. . ... : ... .. . Z00 ...
ROW 1A : ... .. 4 ... ... : ... .. 4 ... ... : ... .. . ... : ... .. . ... : ... .. . Z00 ...
ROW 1B : ... .. 5 ... ... : ... .. 5 ... ... : ... .. . ... : ... .. . ... : ... .. . Z00 ...
ROW 1C : ... .. . ... ... : ... .. . ... ... : ... .. . ... : ... .. . ... : ... .. . Z00 ...
ROW 1D : ... .. 6 ... ... : ... .. 6 ... ... : ... .. . ... : ... .. . ... : ... .. . Z00 ...
ROW 1E : ... .. . ... ... : ... .. . ... ... : ... .. . ... : ... .. . ... : ... .. . Z00 ...
ROW 1F : ... .. . ... ... : ... .. . ... ... : ... .. . ... : ... .. . ... : ... .. . Z00 ...
ROW 20 : D-4 00 5 P80 V00 : F-3 00 5 P80 V00 : F-3 00 . P80 : ... .. . ... : ... .. . Z00 ...
ROW 21 : ... .. 3 ... V02 : ... .. 3 ... V02 : ... .. . ... : ... .. . ... : ... .. . Z00 ...
ROW 22 : ... .. 4 ... ... : ... .. 4 ... ... : ... .. . ... : ... .. . ... : ... .. . Z00 ...
ROW 23 : ... .. 5 ... ... : ... .. 5 ... ... : ... .. . ... : ... .. . ... : ... .. . Z00 ...
ROW 24 : ... .. . ... ... : ... .. . ... ... : ... .. . ... : ... .. . ... : ... .. . Z00 ...
ROW 25 : ... .. 6 ... ... : ... .. 6 ... ... : ... .. . ... : ... .. . ... : ... .. . Z00 ...
ROW 26 : ... .. . ... ... : ... .. . ... ... : ... .. . ... : ... .. . ... : ... .. . Z00 ...
ROW 27 : ... .. . ... ... : ... .. . ... ... : ... .. . ... : ... .. . ... : ... .. . Z00 ...
ROW 28 : F-4 00 5 P80 V00 : A#3 00 5 P7C V00 : A#3 00 . P7C : ... .. . ... : ... .. . Z00 ...
ROW 29 : ... .. 3 ... V02 : ... .. 3 ... V02 : ... .. . ... : ... .. . ... : ... .. . Z00 ...
ROW 2A : ... .. 4 ... ... : ... .. 4 ... ... : ... .. . ... : ... .. . ... : ... .. . Z00 ...
ROW 2B : ... .. 5 ... ... : ... .. 5 ... ... : ... .. . ... : ... .. . ... : ... .. . Z00 ...
ROW 2C : ... .. . ... ... : ... .. . ... ... : ... .. . ... : ... .. . ... : ... .. . Z00 ...
ROW 2D : ... .. 6 ... ... : ... .. 6 ... ... : ... .. . ... : ... .. . ... : ... .. . Z00 ...
ROW 2E : ... .. . ... ... : ... .. . ... ... : ... .. . ... : ... .. . ... : ... .. . Z00 ...
ROW 2F : ... .. . ... ... : ... .. . ... ... : ... .. . ... : ... .. . ... : ... .. . Z00 ...
ROW 30 : A#4 00 5 P7E V00 : D-4 00 5 P80 V00 : F-4 00 . P80 : ... .. . ... : ... .. . Z00 ...
ROW 31 : ... .. 3 ... V02 : ... .. 3 ... V02 : ... .. . ... : ... .. . ... : ... .. . Z00 ...
ROW 32 : ... .. 4 ... ... : ... .. 4 ... ... : ... .. . ... : ... .. . ... : ... .. . Z00 ...
ROW 33 : ... .. 5 ... ... : ... .. 5 ... ... : ... .. . ... : ... .. . ... : ... .. . Z00 ...
ROW 34 : ... .. . ... ... : ... .. . ... ... : ... .. . ... : ... .. . ... : ... .. . Z00 ...
ROW 35 : ... .. 6 ... ... : ... .. 6 ... ... : ... .. . ... : ... .. . ... : ... .. . Z00 ...
ROW 36 : ... .. . ... ... : ... .. . ... ... : ... .. . ... : ... .. . ... : ... .. . Z00 ...
ROW 37 : ... .. . ... ... : ... .. . ... ... : ... .. . ... : ... .. . ... : ... .. . Z00 ...
ROW 38 : ... .. . ... ... : ... .. . ... ... : ... .. . ... : ... .. . ... : ... .. . Z00 ...
ROW 39 : ... .. . ... ... : ... .. . ... ... : ... .. . ... : ... .. . ... : ... .. . Z00 ...
ROW 3A : ... .. . ... ... : ... .. . ... ... : ... .. . ... : ... .. . ... : ... .. . Z00 ...
ROW 3B : ... .. . ... ... : ... .. . ... ... : ... .. . ... : ... .. . ... : ... .. . Z00 ...
ROW 3C : ... .. . ... ... : ... .. . ... ... : ... .. . ... : ... .. . ... : ... .. . Z00 ...
ROW 3D : ... .. . ... ... : ... .. . ... ... : ... .. . ... : ... .. . ... : ... .. . Z00 ...
ROW 3E : ... .. . ... ... : ... .. . ... ... : ... .. . ... : ... .. . ... : ... .. . Z00 ...
ROW 3F : ... .. . ... ... : ... .. . ... ... : ... .. . ... : ... .. . ... : ... .. . Z00 ...
ROW 40 : ... .. . ... ... : ... .. . ... ... : ... .. . ... : ... .. . ... : ... .. . Z00 ...
ROW 41 : ... .. . ... ... : ... .. . ... ... : ... .. . ... : ... .. . ... : ... .. . Z00 ...
ROW 42 : ... .. . ... ... : ... .. . ... ... : ... .. . ... : ... .. . ... : ... .. . Z00 ...
ROW 43 : ... .. . ... ... : ... .. . ... ... : ... .. . ... : ... .. . ... : ... .. . Z00 ...
ROW 44 : ... .. . ... ... : ... .. . ... ... : ... .. . ... : ... .. . ... : ... .. . Z00 ...
ROW 45 : ... .. . ... ... : ... .. . ... ... : ... .. . ... : ... .. . ... : ... .. . Z00 ...
ROW 46 : ... .. 5 ... ... : ... .. 5 ... ... : ... .. . ... : ... .. . ... : ... .. . Z00 ...
ROW 47 : ... .. . ... ... : ... .. . ... ... : ... .. . ... : ... .. . ... : ... .. . Z00 ...
ROW 48 : ... .. . ... V00 : ... .. . ... V00 : D-4 00 . P80 : ... .. . ... : ... .. . Z00 ...
ROW 49 : ... .. 3 ... V02 : ... .. 3 ... V02 : ... .. . ... : ... .. . ... : ... .. . Z00 ...
ROW 4A : ... .. 4 ... ... : ... .. 4 ... ... : ... .. . ... : ... .. . ... : ... .. . Z00 ...
ROW 4B : ... .. 5 ... ... : ... .. 5 ... ... : ... .. . ... : ... .. . ... : ... .. . Z00 ...
ROW 4C : ... .. . ... ... : ... .. . ... ... : ... .. . ... : ... .. . ... : ... .. . Z00 ...
ROW 4D : ... .. 6 ... ... : ... .. 6 ... ... : ... .. . ... : ... .. . ... : ... .. . Z00 ...
ROW 4E : ... .. . ... ... : ... .. . ... ... : ... .. . ... : ... .. . ... : ... .. . Z00 ...
ROW 4F : ... .. . ... ... : ... .. . ... ... : ... .. . ... : ... .. . ... : ... .. . Z00 ...
ROW 50 : ... .. 5 ... V00 : ... .. . ... ... : ... .. . ... : ... .. . ... : ... .. . Z00 ...
ROW 51 : ... .. 3 ... V02 : ... .. . ... ... : ... .. . ... : ... .. . ... : ... .. . Z00 ...
ROW 52 : ... .. 4 ... ... : ... .. . ... ... : ... .. . ... : ... .. . ... : ... .. . Z00 ...
ROW 53 : ... .. 5 ... ... : ... .. . ... ... : ... .. . ... : ... .. . ... : ... .. . Z00 ...
ROW 54 : ... .. . ... ... : ... .. . ... ... : ... .. . ... : ... .. . ... : ... .. . Z00 ...
ROW 55 : ... .. 6 ... ... : ... .. . ... ... : ... .. . ... : ... .. . ... : ... .. . Z00 ...
ROW 56 : ... .. . ... ... : ... .. . ... ... : ... .. . ... : ... .. . ... : ... .. . Z00 ...
ROW 57 : ... .. . ... ... : ... .. . ... ... : ... .. . ... : ... .. . ... : ... .. . Z00 ...
ROW 58 : ... .. 5 ... V00 : ... .. . ... ... : ... .. . ... : ... .. . ... : ... .. . Z00 ...
ROW 59 : ... .. 3 ... V02 : ... .. . ... ... : ... .. . ... : ... .. . ... : ... .. . Z00 ...
ROW 5A : ... .. 4 ... ... : ... .. . ... ... : ... .. . ... : ... .. . ... : ... .. . Z00 ...
ROW 5B : ... .. 5 ... ... : ... .. . ... ... : ... .. . ... : ... .. . ... : ... .. . Z00 ...
ROW 5C : ... .. . ... ... : ... .. . ... ... : ... .. . ... : ... .. . ... : ... .. . Z00 ...
ROW 5D : ... .. 6 ... ... : ... .. . ... ... : ... .. . ... : ... .. . ... : ... .. . Z00 ...
ROW 5E : ... .. . ... ... : ... .. 5 ... ... : ... .. . ... : ... .. . ... : ... .. . Z00 ...
ROW 5F : ... .. . ... ... : ... .. . ... ... : ... .. . ... : ... .. . ... : ... .. . Z00 ...
ROW 60 : E-4 00 5 P7F V00 : C-5 00 5 P80 V00 : C-4 00 . P80 : ... .. . ... : ... .. . Z00 ...
ROW 61 : ... .. 3 ... V02 : ... .. 3 ... V02 : ... .. . ... : ... .. . ... : ... .. . Z00 ...
ROW 62 : ... .. 4 ... ... : ... .. 4 ... ... : ... .. . ... : ... .. . ... : ... .. . Z00 ...
ROW 63 : ... .. 5 ... ... : ... .. 5 ... ... : ... .. . ... : ... .. . ... : ... .. . Z00 ...
ROW 64 : ... .. . ... ... : ... .. . ... ... : ... .. . ... : ... .. . ... : ... .. . Z00 ...
ROW 65 : ... .. 6 ... ... : ... .. 6 ... ... : ... .. . ... : ... .. . ... : ... .. . Z00 ...
ROW 66 : ... .. . ... ... : ... .. . ... ... : ... .. . ... : ... .. . ... : ... .. . Z00 ...
ROW 67 : ... .. . ... ... : ... .. . ... ... : ... .. . ... : ... .. . ... : ... .. . Z00 ...
ROW 68 : ... .. . ... ... : ... .. . ... ... : ... .. . ... : ... .. . ... : ... .. . Z00 ...
ROW 69 : ... .. . ... ... : ... .. . ... ... : ... .. . ... : ... .. . ... : ... .. . Z00 ...
ROW 6A : ... .. . ... ... : ... .. . ... ... : ... .. . ... : ... .. . ... : ... .. . Z00 ...
ROW 6B : ... .. . ... ... : ... .. . ... ... : ... .. . ... : ... .. . ... : ... .. . Z00 ...
ROW 6C : ... .. . ... ... : ... .. . ... ... : ... .. . ... : ... .. . ... : ... .. . Z00 ...
ROW 6D : ... .. . ... ... : ... .. . ... ... : ... .. . ... : ... .. . ... : ... .. . Z00 ...
ROW 6E : ... .. . ... ... : ... .. . ... ... : ... .. . ... : ... .. . ... : ... .. . Z00 ...
ROW 6F : ... .. . ... ... : ... .. . ... ... : ... .. . ... : ... .. . ... : ... .. . Z00 ...
ROW 70 : ... .. . ... ... : ... .. . ... ... : ... .. . ... : ... .. . ... : ... .. . Z00 ...
ROW 71 : ... .. . ... ... : ... .. . ... ... : ... .. . ... : ... .. . ... : ... .. . Z00 ...
ROW 72 : ... .. . ... ... : ... .. . ... ... : ... .. . ... : ... .. . ... : ... .. . Z00 ...
ROW 73 : ... .. . ... ... : ... .. . ... ... : ... .. . ... : ... .. . ... : ... .. . Z00 ...
ROW 74 : ... .. . ... ... : ... .. . ... ... : ... .. . ... : ... .. . ... : ... .. . Z00 ...
ROW 75 : ... .. . ... ... : ... .. . ... ... : ... .. . ... : ... .. . ... : ... .. . Z00 ...
ROW 76 : ... .. 5 ... ... : ... .. 5 ... ... : ... .. . ... : ... .. . ... : ... .. . Z00 ...
ROW 77 : ... .. . ... ... : ... .. . ... ... : ... .. . ... : ... .. . ... : ... .. . Z00 ...
ROW 78 : ... .. . ... ... : ... .. . ... ... : ... .. . ... : ... .. . ... : ... .. . Z00 ...
ROW 79 : ... .. . ... ... : ... .. . ... ... : ... .. . ... : ... .. . ... : ... .. . Z00 ...
ROW 7A : ... .. . ... ... : ... .. . ... ... : ... .. . ... : ... .. . ... : ... .. . Z00 ...
ROW 7B : ... .. . ... ... : ... .. . ... ... : ... .. . ... : ... .. . ... : ... .. . Z00 ...
ROW 7C : ... .. 4 ... ... : ... .. 4 ... ... : ... .. . ... : ... .. . ... : ... .. . Z00 ...
ROW 7D : ... .. . ... ... : ... .. . ... ... : ... .. . ... : ... .. . ... : ... .. . Z00 ...
ROW 7E : ... .. . ... ... : ... .. . ... ... : ... .. . ... : ... .. . ... : ... .. . Z00 ...
ROW 7F : ... .. . ... ... : ... .. . ... ... : ... .. . ... : ... .. . ... : ... .. . Z00 ...
ROW 80 : ... .. . ... ... : ... .. . ... ... : ... .. . ... : ... .. . ... : ... .. . Z00 ...
ROW 81 : ... .. . ... ... : ... .. . ... ... : ... .. . ... : ... .. . ... : ... .. . Z00 ...
ROW 82 : ... .. 3 ... ... : ... .. 3 ... ... : ... .. . ... : ... .. . ... : ... .. . Z00 ...
ROW 83 : ... .. . ... ... : ... .. . ... ... : ... .. . ... : ... .. . ... : ... .. . Z00 ...
ROW 84 : ... .. 0 ... ... : ... .. 0 ... ... : --- .. . ... : ... .. . ... : ... .. . Z00 ...
ROW 85 : ... .. . ... ... : ... .. . ... ... : ... .. . ... : ... .. . ... : ... .. . Z00 ...
ROW 86 : ... .. . ... ... : ... .. . ... ... : ... .. . ... : ... .. . ... : ... .. . Z00 ...
ROW 87 : ... .. . ... ... : ... .. . ... ... : ... .. . ... : ... .. . ... : ... .. . Z00 ...
ROW 88 : ... .. . ... ... : ... .. . ... ... : ... .. . ... : ... .. . ... : ... .. . Z00 ...
ROW 89 : ... .. . ... ... : ... .. . ... ... : ... .. . ... : ... .. . ... : ... .. . Z00 ...
ROW 8A : ... .. . ... ... : ... .. . ... ... : ... .. . ... : ... .. . ... : ... .. . Z00 ...
ROW 8B : ... .. . ... ... : ... .. . ... ... : ... .. . ... : ... .. . ... : ... .. . Z00 ...
ROW 8C : ... .. . ... ... : ... .. . ... ... : ... .. . ... : ... .. . ... : ... .. . Z00 ...
ROW 8D : ... .. . ... ... : ... .. . ... ... : ... .. . ... : ... .. . ... : ... .. . Z00 ...
ROW 8E : ... .. . ... ... : ... .. . ... ... : ... .. . ... : ... .. . ... : ... .. . Z00 ...
ROW 8F : ... .. . ... ... : ... .. . ... ... : ... .. . ... : ... .. . ... : ... .. . Z00 ...
ROW 90 : ... .. . ... ... : ... .. . ... ... : ... .. . ... : ... .. . ... : ... .. . Z00 ...
ROW 91 : ... .. . ... ... : ... .. . ... ... : ... .. . ... : ... .. . ... : ... .. . Z00 ...
ROW 92 : ... .. . ... ... : ... .. . ... ... : ... .. . ... : ... .. . ... : ... .. . Z00 ...
ROW 93 : ... .. . ... ... : ... .. . ... ... : ... .. . ... : ... .. . ... : ... .. . Z00 ...
ROW 94 : ... .. . ... ... : ... .. . ... ... : ... .. . ... : ... .. . ... : ... .. . Z00 ...
ROW 95 : ... .. . ... ... : ... .. . ... ... : ... .. . ... : ... .. . ... : ... .. . Z00 ...
ROW 96 : ... .. . ... ... : ... .. . ... ... : ... .. . ... : ... .. . ... : ... .. . Z00 ...
ROW 97 : ... .. . ... ... : ... .. . ... ... : ... .. . ... : ... .. . ... : ... .. . Z00 ...
ROW 98 : ... .. . ... ... : ... .. . ... ... : ... .. . ... : ... .. . ... : ... .. . Z00 ...
ROW 99 : ... .. . ... ... : ... .. . ... ... : ... .. . ... : ... .. . ... : ... .. . Z00 ...
ROW 9A : ... .. . ... ... : ... .. . ... ... : ... .. . ... : ... .. . ... : ... .. . Z00 ...
ROW 9B : ... .. . ... ... : ... .. . ... ... : ... .. . ... : ... .. . ... : ... .. . Z00 ...
ROW 9C : ... .. . ... ... : ... .. . ... ... : ... .. . ... : ... .. . ... : ... .. . Z00 ...
ROW 9D : ... .. . ... ... : ... .. . ... ... : ... .. . ... : ... .. . ... : ... .. . Z00 ...
ROW 9E : ... .. . ... ... : ... .. . ... ... : ... .. . ... : ... .. . ... : ... .. . Z00 ...
ROW 9F : ... .. . ... ... : ... .. . ... ... : ... .. . ... : ... .. . ... : ... .. . Z00 ...
ROW A0 : ... .. . ... ... : ... .. . ... ... : ... .. . ... : ... .. . ... : ... .. . Z00 ...
ROW A1 : ... .. . ... ... : ... .. . ... ... : ... .. . ... : ... .. . ... : ... .. . Z00 ...
ROW A2 : ... .. . ... ... : ... .. . ... ... : ... .. . ... : ... .. . ... : ... .. . Z00 ...
ROW A3 : ... .. . ... ... : ... .. . ... ... : ... .. . ... : ... .. . ... : ... .. . Z00 ...
ROW A4 : ... .. . ... ... : ... .. . ... ... : ... .. . ... : ... .. . ... : ... .. . Z00 ...
ROW A5 : ... .. . ... ... : ... .. . ... ... : ... .. . ... : ... .. . ... : ... .. . Z00 ...
ROW A6 : ... .. . ... ... : ... .. . ... ... : ... .. . ... : ... .. . ... : ... .. . Z00 ...
ROW A7 : ... .. . ... ... : ... .. . ... ... : ... .. . ... : ... .. . ... : ... .. . Z00 ...
ROW A8 : ... .. . ... ... : ... .. . ... ... : ... .. . ... : ... .. . ... : ... .. . Z00 ...
ROW A9 : ... .. . ... ... : ... .. . ... ... : ... .. . ... : ... .. . ... : ... .. . Z00 ...
ROW AA : ... .. . ... ... : ... .. . ... ... : ... .. . ... : ... .. . ... : ... .. . Z00 ...
ROW AB : ... .. . ... ... : ... .. . ... ... : ... .. . ... : ... .. . ... : ... .. . Z00 ...
ROW AC : ... .. . ... ... : ... .. . ... ... : ... .. . ... : ... .. . ... : ... .. . Z00 ...
ROW AD : ... .. . ... ... : ... .. . ... ... : ... .. . ... : ... .. . ... : ... .. . Z00 ...
ROW AE : ... .. . ... ... : ... .. . ... ... : ... .. . ... : ... .. . ... : ... .. . Z00 ...
ROW AF : ... .. . ... ... : ... .. . ... ... : ... .. . ... : ... .. . ... : ... .. . Z00 ...
ROW B0 : ... .. . ... ... : ... .. . ... ... : ... .. . ... : ... .. . ... : ... .. . Z00 ...
ROW B1 : ... .. . ... ... : ... .. . ... ... : ... .. . ... : ... .. . ... : ... .. . Z00 ...
ROW B2 : ... .. . ... ... : ... .. . ... ... : ... .. . ... : ... .. . ... : ... .. . Z00 ...
ROW B3 : ... .. . ... ... : ... .. . ... ... : ... .. . ... : ... .. . ... : ... .. . Z00 ...
ROW B4 : ... .. . ... ... : ... .. . ... ... : ... .. . ... : ... .. . ... : ... .. . Z00 ...
ROW B5 : ... .. . ... ... : ... .. . ... ... : ... .. . ... : ... .. . ... : ... .. . Z00 ...
ROW B6 : ... .. . ... ... : ... .. . ... ... : ... .. . ... : ... .. . ... : ... .. . Z00 ...
ROW B7 : ... .. . ... ... : ... .. . ... ... : ... .. . ... : ... .. . ... : ... .. . Z00 ...
ROW B8 : ... .. . ... ... : ... .. . ... ... : ... .. . ... : ... .. . ... : ... .. . Z00 ...
ROW B9 : ... .. . ... ... : ... .. . ... ... : ... .. . ... : ... .. . ... : ... .. . Z00 ...
ROW BA : ... .. . ... ... : ... .. . ... ... : ... .. . ... : ... .. . ... : ... .. . Z00 ...
ROW BB : ... .. . ... ... : ... .. . ... ... : ... .. . ... : ... .. . ... : ... .. . Z00 ...
ROW BC : ... .. . ... ... : ... .. . ... ... : ... .. . ... : ... .. . ... : ... .. . Z00 ...
ROW BD : ... .. . ... ... : ... .. . ... ... : ... .. . ... : ... .. . ... : ... .. . Z00 ...
ROW BE : ... .. . ... ... : ... .. . ... ... : ... .. . ... : ... .. . ... : ... .. . Z00 ...
ROW BF : ... .. . ... ... : ... .. . ... ... : ... .. . ... : ... .. . ... : ... .. . C00 ...

TRACK 192   1 150 "Othercastleworld"
COLUMNS : 2 2 1 1 2

ORDER 00 : 00 00 00 00 00
ORDER 01 : 01 01 01 01 01

PATTERN 00
ROW 00 : E-3 00 0 P7D V02 : C-4 00 0 P80 V02 : C-3 00 . P80 : F-# 00 0 V00 : --- .. . Z30 ...
ROW 01 : ... .. B ... ... : ... .. B ... ... : ... .. . ... : ... .. . ... : ... .. . Z2F ...
ROW 02 : ... .. A ... ... : ... .. A ... ... : ... .. . ... : ... .. . ... : ... .. . Z2E ...
ROW 03 : ... .. 9 ... ... : ... .. 9 ... ... : ... .. . ... : ... .. . ... : ... .. . Z2D ...
ROW 04 : ... .. 8 ... ... : ... .. 8 ... ... : ... .. . ... : ... .. . ... : ... .. . Z2C ...
ROW 05 : ... .. . ... ... : ... .. . ... ... : ... .. . ... : ... .. . ... : ... .. . Z2B ...
ROW 06 : ... .. . ... ... : ... .. . ... ... : ... .. . ... : ... .. . ... : ... .. . Z2A ...
ROW 07 : ... .. . ... ... : ... .. . ... ... : ... .. . ... : ... .. . ... : ... .. . Z29 ...
ROW 08 : C-3 00 0 P80 ... : G-3 00 0 P80 ... : ... .. . ... : ... .. . ... : ... .. . Z28 ...
ROW 09 : ... .. B ... ... : ... .. B ... ... : ... .. . ... : ... .. . ... : ... .. . Z27 ...
ROW 0A : ... .. A ... ... : ... .. A ... ... : ... .. . ... : ... .. . ... : ... .. . Z26 ...
ROW 0B : ... .. 9 ... ... : ... .. 9 ... ... : ... .. . ... : ... .. . ... : ... .. . Z25 ...
ROW 0C : ... .. 8 ... ... : ... .. 8 ... ... : ... .. . ... : ... .. . ... : ... .. . Z24 ...
ROW 0D : ... .. . ... ... : ... .. . ... ... : ... .. . ... : ... .. . ... : ... .. . Z23 ...
ROW 0E : ... .. . ... ... : ... .. . ... ... : ... .. . ... : ... .. . ... : ... .. . Z22 ...
ROW 0F : ... .. . ... ... : ... .. . ... ... : ... .. . ... : ... .. . ... : ... .. . Z21 ...
ROW 10 : G-2 00 0 P81 ... : E-3 00 0 P7D ... : ... .. . ... : ... .. . ... : ... .. . Z20 ...
ROW 11 : ... .. B ... ... : ... .. B ... ... : ... .. . ... : ... .. . ... : ... .. . Z1F ...
ROW 12 : ... .. A ... ... : ... .. A ... ... : ... .. . ... : ... .. . ... : ... .. . Z1E ...
ROW 13 : ... .. 9 ... ... : ... .. 9 ... ... : ... .. . ... : ... .. . ... : ... .. . Z1D ...
ROW 14 : ... .. 8 ... ... : ... .. 8 ... ... : ... .. . ... : ... .. . ... : ... .. . Z1C ...
ROW 15 : ... .. . ... ... : ... .. . ... ... : ... .. . ... : ... .. . ... : ... .. . Z1B ...
ROW 16 : ... .. . ... ... : ... .. . ... ... : ... .. . ... : ... .. . ... : ... .. . Z1A ...
ROW 17 : ... .. . ... ... : ... .. . ... ... : ... .. . ... : ... .. . ... : ... .. . Z19 ...
ROW 18 : E-3 00 0 P7D ... : C-4 00 0 P80 ... : ... .. . ... : ... .. . ... : ... .. . Z18 ...
ROW 19 : ... .. B ... ... : ... .. B ... ... : ... .. . ... : ... .. . ... : ... .. . Z17 ...
ROW 1A : ... .. A ... ... : ... .. A ... ... : ... .. . ... : ... .. . ... : ... .. . Z16 ...
ROW 1B : ... .. 9 ... ... : ... .. 9 ... ... : ... .. . ... : ... .. . ... : ... .. . Z15 ...
ROW 1C : ... .. 8 ... ... : ... .. 8 ... ... : ... .. . ... : ... .. . ... : ... .. . Z14 ...
ROW 1D : ... .. . ... ... : ... .. . ... ... : ... .. . ... : ... .. . ... : ... .. . Z13 ...
ROW 1E : ... .. . ... ... : ... .. . ... ... : ... .. . ... : ... .. . ... : ... .. . Z12 ...
ROW 1F : ... .. . ... ... : ... .. . ... ... : ... .. . ... : ... .. . ... : ... .. . Z11 ...
ROW 20 : C-3 00 0 P80 ... : G-3 00 0 P80 ... : ... .. . ... : ... .. . ... : ... .. . Z10 ...
ROW 21 : ... .. B ... ... : ... .. B ... ... : ... .. . ... : ... .. . ... : ... .. . Z0F ...
ROW 22 : ... .. A ... ... : ... .. A ... ... : ... .. . ... : ... .. . ... : ... .. . Z0E ...
ROW 23 : ... .. 9 ... ... : ... .. 9 ... ... : ... .. . ... : ... .. . ... : ... .. . Z0D ...
ROW 24 : ... .. 8 ... ... : ... .. 8 ... ... : ... .. . ... : ... .. . ... : ... .. . Z0C ...
ROW 25 : ... .. . ... ... : ... .. . ... ... : ... .. . ... : ... .. . ... : ... .. . Z0B ...
ROW 26 : ... .. . ... ... : ... .. . ... ... : ... .. . ... : ... .. . ... : ... .. . Z0A ...
ROW 27 : ... .. . ... ... : ... .. . ... ... : ... .. . ... : ... .. . ... : ... .. . Z09 ...
ROW 28 : G-2 00 0 P81 ... : E-3 00 0 P7D ... : ... .. . ... : ... .. . ... : ... .. . Z08 ...
ROW 29 : ... .. B ... ... : ... .. B ... ... : ... .. . ... : ... .. . ... : ... .. . Z07 ...
ROW 2A : ... .. A ... ... : ... .. A ... ... : ... .. . ... : ... .. . ... : ... .. . Z06 ...
ROW 2B : ... .. 9 ... ... : ... .. 9 ... ... : ... .. . ... : ... .. . ... : ... .. . Z05 ...
ROW 2C : ... .. 8 ... ... : ... .. 8 ... ... : ... .. . ... : ... .. . ... : ... .. . Z04 ...
ROW 2D : ... .. . ... ... : ... .. . ... ... : ... .. . ... : ... .. . ... : ... .. . Z03 ...
ROW 2E : ... .. . ... ... : ... .. . ... ... : ... .. . ... : ... .. . ... : ... .. . Z02 ...
ROW 2F : ... .. . ... ... : ... .. . ... ... : ... .. . ... : ... .. . ... : ... .. . Z01 ...
ROW 30 : E-3 00 0 P7D ... : C-4 00 0 P80 ... : ... .. . ... : ... .. . ... : ... .. . Z00 ...
ROW 31 : ... .. B ... ... : ... .. B ... ... : ... .. . ... : ... .. . ... : ... .. . Z00 ...
ROW 32 : ... .. A ... ... : ... .. A ... ... : ... .. . ... : ... .. . ... : ... .. . Z00 ...
ROW 33 : ... .. 9 ... ... : ... .. 9 ... ... : ... .. . ... : ... .. . ... : ... .. . Z00 ...
ROW 34 : ... .. 8 ... ... : ... .. 8 ... ... : --- .. . ... : ... .. . ... : ... .. . Z00 ...
ROW 35 : ... .. . ... ... : ... .. . ... ... : ... .. . ... : ... .. . ... : ... .. . Z00 ...
ROW 36 : ... .. . ... ... : ... .. . ... ... : ... .. . ... : ... .. . ... : ... .. . Z00 ...
ROW 37 : ... .. . ... ... : ... .. . ... ... : ... .. . ... : ... .. . ... : ... .. . Z00 ...
ROW 38 : ... .. 0 ... ... : ... .. . ... ... : C-3 00 . P80 : ... .. . ... : ... .. . Z00 ...
ROW 39 : ... .. B ... ... : ... .. . ... ... : ... .. . ... : ... .. . ... : ... .. . Z00 ...
ROW 3A : ... .. A ... ... : ... .. . ... ... : ... .. . ... : ... .. . ... : ... .. . Z00 ...
ROW 3B : ... .. 9 ... ... : ... .. . ... ... : ... .. . ... : ... .. . ... : ... .. . Z00 ...
ROW 3C : ... .. 0 ... ... : ... .. . ... ... : ... .. . ... : ... .. . ... : ... .. . Z00 ...
ROW 3D : ... .. B ... ... : ... .. . ... ... : ... .. . ... : ... .. . ... : ... .. . Z00 ...
ROW 3E : ... .. A ... ... : ... .. . ... ... : ... .. . ... : ... .. . ... : ... .. . Z00 ...
ROW 3F : ... .. 9 ... ... : ... .. . ... ... : ... .. . ... : ... .. . ... : ... .. . Z00 ...
ROW 40 : ... .. 0 ... ... : ... .. . ... ... : ... .. . ... : ... .. . ... : ... .. . Z00 ...
ROW 41 : ... .. B ... ... : ... .. . ... ... : ... .. . ... : ... .. . ... : ... .. . Z00 ...
ROW 42 : ... .. A ... ... : ... .. . ... ... : ... .. . ... : ... .. . ... : ... .. . Z00 ...
ROW 43 : ... .. 9 ... ... : ... .. . ... ... : ... .. . ... : ... .. . ... : ... .. . Z00 ...
ROW 44 : ... .. 8 ... ... : ... .. . ... ... : --- .. . ... : ... .. . ... : ... .. . Z00 ...
ROW 45 : ... .. . ... ... : ... .. . ... ... : ... .. . ... : ... .. . ... : ... .. . Z00 ...
ROW 46 : ... .. . ... ... : ... .. . ... ... : ... .. . ... : ... .. . ... : ... .. . Z00 ...
ROW 47 : ... .. . ... ... : ... .. . ... ... : ... .. . ... : ... .. . ... : ... .. . Z00 ...
ROW 48 : ... .. 0 ... ... : ... .. . ... ... : C-3 00 . P80 : ... .. . ... : ... .. . Z00 ...
ROW 49 : ... .. B ... ... : ... .. . ... ... : ... .. . ... : ... .. . ... : ... .. . Z00 ...
ROW 4A : ... .. A ... ... : ... .. . ... ... : ... .. . ... : ... .. . ... : ... .. . Z00 ...
ROW 4B : ... .. 9 ... ... : ... .. . ... ... : ... .. . ... : ... .. . ... : ... .. . Z00 ...
ROW 4C : ... .. 8 ... ... : ... .. . ... ... : --- .. . ... : ... .. . ... : ... .. . Z00 ...
ROW 4D : ... .. . ... ... : ... .. . ... ... : ... .. . ... : ... .. . ... : ... .. . Z00 ...
ROW 4E : ... .. . ... ... : ... .. . ... ... : ... .. . ... : ... .. . ... : ... .. . Z00 ...
ROW 4F : ... .. . ... ... : ... .. . ... ... : ... .. . ... : ... .. . ... : ... .. . Z00 ...
ROW 50 : ... .. 0 ... ... : ... .. . ... ... : C-3 00 . P80 : ... .. . ... : ... .. . Z00 ...
ROW 51 : ... .. B ... ... : ... .. . ... ... : ... .. . ... : ... .. . ... : ... .. . Z00 ...
ROW 52 : ... .. A ... ... : ... .. . ... ... : ... .. . ... : ... .. . ... : ... .. . Z00 ...
ROW 53 : ... .. 9 ... ... : ... .. . ... ... : ... .. . ... : ... .. . ... : ... .. . Z00 ...
ROW 54 : ... .. 8 ... ... : ... .. . ... ... : --- .. . ... : ... .. . ... : ... .. . Z00 ...
ROW 55 : ... .. . ... ... : ... .. . ... ... : ... .. . ... : ... .. . ... : ... .. . Z00 ...
ROW 56 : ... .. . ... ... : ... .. . ... ... : ... .. . ... : ... .. . ... : ... .. . Z00 ...
ROW 57 : ... .. . ... ... : ... .. . ... ... : ... .. . ... : ... .. . ... : ... .. . Z00 ...
ROW 58 : ... .. 0 ... ... : ... .. . ... ... : C-3 00 . P80 : ... .. . ... : ... .. . Z00 ...
ROW 59 : ... .. B ... ... : ... .. . ... ... : ... .. . ... : ... .. . ... : ... .. . Z00 ...
ROW 5A : ... .. A ... ... : ... .. . ... ... : ... .. . ... : ... .. . ... : ... .. . Z00 ...
ROW 5B : ... .. 9 ... ... : ... .. . ... ... : ... .. . ... : ... .. . ... : ... .. . Z00 ...
ROW 5C : ... .. 8 ... ... : ... .. . ... ... : --- .. . ... : ... .. . ... : ... .. . Z00 ...
ROW 5D : ... .. . ... ... : ... .. . ... ... : ... .. . ... : ... .. . ... : ... .. . Z00 ...
ROW 5E : ... .. . ... ... : ... .. . ... ... : ... .. . ... : ... .. . ... : ... .. . Z00 ...
ROW 5F : ... .. . ... ... : ... .. . ... ... : ... .. . ... : ... .. . ... : ... .. . Z00 ...
ROW 60 : F-3 00 0 P80 ... : C#4 00 0 P81 ... : C#3 00 . P83 : ... .. . ... : ... .. . Z00 ...
ROW 61 : ... .. B ... ... : ... .. B ... ... : ... .. . ... : ... .. . ... : ... .. . Z00 ...
ROW 62 : ... .. A ... ... : ... .. A ... ... : ... .. . ... : ... .. . ... : ... .. . Z00 ...
ROW 63 : ... .. 9 ... ... : ... .. 9 ... ... : ... .. . ... : ... .. . ... : ... .. . Z00 ...
ROW 64 : ... .. 8 ... ... : ... .. 8 ... ... : ... .. . ... : ... .. . ... : ... .. . Z00 ...
ROW 65 : ... .. . ... ... : ... .. . ... ... : ... .. . ... : ... .. . ... : ... .. . Z00 ...
ROW 66 : ... .. . ... ... : ... .. . ... ... : ... .. . ... : ... .. . ... : ... .. . Z00 ...
ROW 67 : ... .. . ... ... : ... .. . ... ... : ... .. . ... : ... .. . ... : ... .. . Z00 ...
ROW 68 : C#3 00 0 P83 ... : G#3 00 0 P82 ... : ... .. . ... : ... .. . ... : ... .. . Z00 ...
ROW 69 : ... .. B ... ... : ... .. B ... ... : ... .. . ... : ... .. . ... : ... .. . Z00 ...
ROW 6A : ... .. A ... ... : ... .. A ... ... : ... .. . ... : ... .. . ... : ... .. . Z00 ...
ROW 6B : ... .. 9 ... ... : ... .. 9 ... ... : ... .. . ... : ... .. . ... : ... .. . Z00 ...
ROW 6C : ... .. 8 ... ... : ... .. 8 ... ... : ... .. . ... : ... .. . ... : ... .. . Z00 ...
ROW 6D : ... .. . ... ... : ... .. . ... ... : ... .. . ... : ... .. . ... : ... .. . Z00 ...
ROW 6E : ... .. . ... ... : ... .. . ... ... : ... .. . ... : ... .. . ... : ... .. . Z00 ...
ROW 6F : ... .. . ... ... : ... .. . ... ... : ... .. . ... : ... .. . ... : ... .. . Z00 ...
ROW 70 : G#2 00 0 P84 ... : F-3 00 0 P80 ... : ... .. . ... : ... .. . ... : ... .. . Z00 ...
ROW 71 : ... .. B ... ... : ... .. B ... ... : ... .. . ... : ... .. . ... : ... .. . Z00 ...
ROW 72 : ... .. A ... ... : ... .. A ... ... : ... .. . ... : ... .. . ... : ... .. . Z00 ...
ROW 73 : ... .. 9 ... ... : ... .. 9 ... ... : ... .. . ... : ... .. . ... : ... .. . Z00 ...
ROW 74 : ... .. 8 ... ... : ... .. 8 ... ... : ... .. . ... : ... .. . ... : ... .. . Z00 ...
ROW 75 : ... .. . ... ... : ... .. . ... ... : ... .. . ... : ... .. . ... : ... .. . Z00 ...
ROW 76 : ... .. . ... ... : ... .. . ... ... : ... .. . ... : ... .. . ... : ... .. . Z00 ...
ROW 77 : ... .. . ... ... : ... .. . ... ... : ... .. . ... : ... .. . ... : ... .. . Z00 ...
ROW 78 : F-3 00 0 P80 ... : C#4 00 0 P81 ... : ... .. . ... : ... .. . ... : ... .. . Z00 ...
ROW 79 : ... .. B ... ... : ... .. B ... ... : ... .. . ... : ... .. . ... : ... .. . Z00 ...
ROW 7A : ... .. A ... ... : ... .. A ... ... : ... .. . ... : ... .. . ... : ... .. . Z00 ...
ROW 7B : ... .. 9 ... ... : ... .. 9 ... ... : ... .. . ... : ... .. . ... : ... .. . Z00 ...
ROW 7C : ... .. 8 ... ... : ... .. 8 ... ... : ... .. . ... : ... .. . ... : ... .. . Z00 ...
ROW 7D : ... .. . ... ... : ... .. . ... ... : ... .. . ... : ... .. . ... : ... .. . Z00 ...
ROW 7E : ... .. . ... ... : ... .. . ... ... : ... .. . ... : ... .. . ... : ... .. . Z00 ...
ROW 7F : ... .. . ... ... : ... .. . ... ... : ... .. . ... : ... .. . ... : ... .. . Z00 ...
ROW 80 : C#3 00 0 P83 ... : G#3 00 0 P82 ... : ... .. . ... : ... .. . ... : ... .. . Z00 ...
ROW 81 : ... .. B ... ... : ... .. B ... ... : ... .. . ... : ... .. . ... : ... .. . Z00 ...
ROW 82 : ... .. A ... ... : ... .. A ... ... : ... .. . ... : ... .. . ... : ... .. . Z00 ...
ROW 83 : ... .. 9 ... ... : ... .. 9 ... ... : ... .. . ... : ... .. . ... : ... .. . Z00 ...
ROW 84 : ... .. 8 ... ... : ... .. 8 ... ... : ... .. . ... : ... .. . ... : ... .. . Z00 ...
ROW 85 : ... .. . ... ... : ... .. . ... ... : ... .. . ... : ... .. . ... : ... .. . Z00 ...
ROW 86 : ... .. . ... ... : ... .. . ... ... : ... .. . ... : ... .. . ... : ... .. . Z00 ...
ROW 87 : ... .. . ... ... : ... .. . ... ... : ... .. . ... : ... .. . ... : ... .. . Z00 ...
ROW 88 : G#2 00 0 P84 ... : F-3 00 0 P80 ... : ... .. . ... : ... .. . ... : ... .. . Z00 ...
ROW 89 : ... .. B ... ... : ... .. B ... ... : ... .. . ... : ... .. . ... : ... .. . Z00 ...
ROW 8A : ... .. A ... ... : ... .. A ... ... : ... .. . ... : ... .. . ... : ... .. . Z00 ...
ROW 8B : ... .. 9 ... ... : ... .. 9 ... ... : ... .. . ... : ... .. . ... : ... .. . Z00 ...
ROW 8C : ... .. 8 ... ... : ... .. 8 ... ... : ... .. . ... : ... .. . ... : ... .. . Z00 ...
ROW 8D : ... .. . ... ... : ... .. . ... ... : ... .. . ... : ... .. . ... : ... .. . Z00 ...
ROW 8E : ... .. . ... ... : ... .. . ... ... : ... .. . ... : ... .. . ... : ... .. . Z00 ...
ROW 8F : ... .. . ... ... : ... .. . ... ... : ... .. . ... : ... .. . ... : ... .. . Z00 ...
ROW 90 : F-3 00 0 P80 ... : C#4 00 0 P81 ... : ... .. . ... : ... .. . ... : ... .. . Z00 ...
ROW 91 : ... .. B ... ... : ... .. B ... ... : ... .. . ... : ... .. . ... : ... .. . Z00 ...
ROW 92 : ... .. A ... ... : ... .. A ... ... : ... .. . ... : ... .. . ... : ... .. . Z00 ...
ROW 93 : ... .. 9 ... ... : ... .. 9 ... ... : ... .. . ... : ... .. . ... : ... .. . Z00 ...
ROW 94 : ... .. 8 ... ... : ... .. 8 ... ... : --- .. . ... : ... .. . ... : ... .. . Z00 ...
ROW 95 : ... .. . ... ... : ... .. . ... ... : ... .. . ... : ... .. . ... : ... .. . Z00 ...
ROW 96 : ... .. . ... ... : ... .. . ... ... : ... .. . ... : ... .. . ... : ... .. . Z00 ...
ROW 97 : ... .. . ... ... : ... .. . ... ... : ... .. . ... : ... .. . ... : ... .. . Z00 ...
ROW 98 : ... .. 0 ... ... : ... .. . ... ... : C#3 00 . P83 : ... .. . ... : ... .. . Z00 ...
ROW 99 : ... .. B ... ... : ... .. . ... ... : ... .. . ... : ... .. . ... : ... .. . Z00 ...
ROW 9A : ... .. A ... ... : ... .. . ... ... : ... .. . ... : ... .. . ... : ... .. . Z00 ...
ROW 9B : ... .. 9 ... ... : ... .. . ... ... : ... .. . ... : ... .. . ... : ... .. . Z00 ...
ROW 9C : ... .. 0 ... ... : ... .. . ... ... : ... .. . ... : ... .. . ... : ... .. . Z00 ...
ROW 9D : ... .. B ... ... : ... .. . ... ... : ... .. . ... : ... .. . ... : ... .. . Z00 ...
ROW 9E : ... .. A ... ... : ... .. . ... ... : ... .. . ... : ... .. . ... : ... .. . Z00 ...
ROW 9F : ... .. 9 ... ... : ... .. . ... ... : ... .. . ... : ... .. . ... : ... .. . Z00 ...
ROW A0 : ... .. 0 ... ... : ... .. . ... ... : ... .. . ... : ... .. . ... : ... .. . Z00 ...
ROW A1 : ... .. B ... ... : ... .. . ... ... : ... .. . ... : ... .. . ... : ... .. . Z00 ...
ROW A2 : ... .. A ... ... : ... .. . ... ... : ... .. . ... : ... .. . ... : ... .. . Z00 ...
ROW A3 : ... .. 9 ... ... : ... .. . ... ... : ... .. . ... : ... .. . ... : ... .. . Z00 ...
ROW A4 : ... .. 8 ... ... : ... .. . ... ... : --- .. . ... : ... .. . ... : ... .. . Z00 ...
ROW A5 : ... .. . ... ... : ... .. . ... ... : ... .. . ... : ... .. . ... : ... .. . Z00 ...
ROW A6 : ... .. . ... ... : ... .. . ... ... : ... .. . ... : ... .. . ... : ... .. . Z00 ...
ROW A7 : ... .. . ... ... : ... .. . ... ... : ... .. . ... : ... .. . ... : ... .. . Z00 ...
ROW A8 : ... .. 0 ... ... : ... .. . ... ... : C#3 00 . P83 : ... .. . ... : ... .. . Z00 ...
ROW A9 : ... .. B ... ... : ... .. . ... ... : ... .. . ... : ... .. . ... : ... .. . Z00 ...
ROW AA : ... .. A ... ... : ... .. . ... ... : ... .. . ... : ... .. . ... : ... .. . Z00 ...
ROW AB : ... .. 9 ... ... : ... .. . ... ... : ... .. . ... : ... .. . ... : ... .. . Z00 ...
ROW AC : ... .. 8 ... ... : ... .. . ... ... : --- .. . ... : ... .. . ... : ... .. . Z00 ...
ROW AD : ... .. . ... ... : ... .. . ... ... : ... .. . ... : ... .. . ... : ... .. . Z00 ...
ROW AE : ... .. . ... ... : ... .. . ... ... : ... .. . ... : ... .. . ... : ... .. . Z00 ...
ROW AF : ... .. . ... ... : ... .. . ... ... : ... .. . ... : ... .. . ... : ... .. . Z00 ...
ROW B0 : ... .. 0 ... ... : ... .. . ... ... : C#3 00 . P83 : ... .. . ... : ... .. . Z00 ...
ROW B1 : ... .. B ... ... : ... .. . ... ... : ... .. . ... : ... .. . ... : ... .. . Z00 ...
ROW B2 : ... .. A ... ... : ... .. . ... ... : ... .. . ... : ... .. . ... : ... .. . Z00 ...
ROW B3 : ... .. 9 ... ... : ... .. . ... ... : ... .. . ... : ... .. . ... : ... .. . Z00 ...
ROW B4 : ... .. 8 ... ... : ... .. . ... ... : --- .. . ... : ... .. . ... : ... .. . Z00 ...
ROW B5 : ... .. . ... ... : ... .. . ... ... : ... .. . ... : ... .. . ... : ... .. . Z00 ...
ROW B6 : ... .. . ... ... : ... .. . ... ... : ... .. . ... : ... .. . ... : ... .. . Z00 ...
ROW B7 : ... .. . ... ... : ... .. . ... ... : ... .. . ... : ... .. . ... : ... .. . Z00 ...
ROW B8 : ... .. 0 ... ... : ... .. . ... ... : C#3 00 . P83 : ... .. . ... : ... .. . Z00 ...
ROW B9 : ... .. B ... ... : ... .. . ... ... : ... .. . ... : ... .. . ... : ... .. . Z00 ...
ROW BA : ... .. A ... ... : ... .. . ... ... : ... .. . ... : ... .. . ... : ... .. . Z00 ...
ROW BB : ... .. 9 ... ... : ... .. . ... ... : ... .. . ... : ... .. . ... : ... .. . Z00 ...
ROW BC : ... .. 8 ... ... : ... .. . ... ... : --- .. . ... : ... .. . ... : ... .. . Z00 ...
ROW BD : ... .. . ... ... : ... .. . ... ... : ... .. . ... : ... .. . ... : ... .. . Z00 ...
ROW BE : ... .. . ... ... : ... .. . ... ... : ... .. . ... : ... .. . ... : ... .. . Z00 ...
ROW BF : ... .. . ... ... : ... .. . ... ... : ... .. . ... : ... .. . ... : ... .. . Z00 ...

PATTERN 01
ROW 00 : G-3 00 0 P80 ... : D#4 00 0 P82 ... : A#3 00 . P7C : ... .. . ... : ... .. . Z00 ...
ROW 01 : ... .. B ... ... : ... .. B ... ... : ... .. . ... : ... .. . ... : ... .. . Z00 ...
ROW 02 : ... .. A ... ... : ... .. A ... ... : ... .. . ... : ... .. . ... : ... .. . Z00 ...
ROW 03 : ... .. 9 ... ... : ... .. 9 ... ... : ... .. . ... : ... .. . ... : ... .. . Z00 ...
ROW 04 : ... .. 8 ... ... : ... .. 8 ... ... : --- .. . ... : ... .. . ... : ... .. . Z00 ...
ROW 05 : ... .. . ... ... : ... .. . ... ... : ... .. . ... : ... .. . ... : ... .. . Z00 ...
ROW 06 : ... .. . ... ... : ... .. . ... ... : ... .. . ... : ... .. . ... : ... .. . Z00 ...
ROW 07 : ... .. . ... ... : ... .. . ... ... : ... .. . ... : ... .. . ... : ... .. . Z00 ...
ROW 08 : D#3 00 0 P83 ... : A#3 00 0 P7C ... : G-3 00 . P80 : ... .. . ... : ... .. . Z00 ...
ROW 09 : ... .. B ... ... : ... .. B ... ... : ... .. . ... : ... .. . ... : ... .. . Z00 ...
ROW 0A : ... .. A ... ... : ... .. A ... ... : ... .. . ... : ... .. . ... : ... .. . Z00 ...
ROW 0B : ... .. 9 ... ... : ... .. 9 ... ... : ... .. . ... : ... .. . ... : ... .. . Z00 ...
ROW 0C : ... .. 8 ... ... : ... .. 8 ... ... : --- .. . ... : ... .. . ... : ... .. . Z00 ...
ROW 0D : ... .. . ... ... : ... .. . ... ... : ... .. . ... : ... .. . ... : ... .. . Z00 ...
ROW 0E : ... .. . ... ... : ... .. . ... ... : ... .. . ... : ... .. . ... : ... .. . Z00 ...
ROW 0F : ... .. . ... ... : ... .. . ... ... : ... .. . ... : ... .. . ... : ... .. . Z00 ...
ROW 10 : A#2 00 0 P77 ... : G-3 00 0 P80 ... : D#3 00 . P83 : ... .. . ... : ... .. . Z00 ...
ROW 11 : ... .. B ... ... : ... .. B ... ... : ... .. . ... : ... .. . ... : ... .. . Z00 ...
ROW 12 : ... .. A ... ... : ... .. A ... ... : ... .. . ... : ... .. . ... : ... .. . Z00 ...
ROW 13 : ... .. 9 ... ... : ... .. 9 ... ... : ... .. . ... : ... .. . ... : ... .. . Z00 ...
ROW 14 : ... .. 8 ... ... : ... .. 8 ... ... : --- .. . ... : ... .. . ... : ... .. . Z00 ...
ROW 15 : ... .. . ... ... : ... .. . ... ... : ... .. . ... : ... .. . ... : ... .. . Z00 ...
ROW 16 : ... .. . ... ... : ... .. . ... ... : ... .. . ... : ... .. . ... : ... .. . Z00 ...
ROW 17 : ... .. . ... ... : ... .. . ... ... : ... .. . ... : ... .. . ... : ... .. . Z00 ...
ROW 18 : G-3 00 0 P80 ... : D#4 00 0 P82 ... : A#3 00 . P7C : ... .. . ... : ... .. . Z00 ...
ROW 19 : ... .. B ... ... : ... .. B ... ... : ... .. . ... : ... .. . ... : ... .. . Z00 ...
ROW 1A : ... .. A ... ... : ... .. A ... ... : ... .. . ... : ... .. . ... : ... .. . Z00 ...
ROW 1B : ... .. 9 ... ... : ... .. 9 ... ... : ... .. . ... : ... .. . ... : ... .. . Z00 ...
ROW 1C : ... .. 8 ... ... : ... .. 8 ... ... : --- .. . ... : ... .. . ... : ... .. . Z00 ...
ROW 1D : ... .. . ... ... : ... .. . ... ... : ... .. . ... : ... .. . ... : ... .. . Z00 ...
ROW 1E : ... .. . ... ... : ... .. . ... ... : ... .. . ... : ... .. . ... : ... .. . Z00 ...
ROW 1F : ... .. . ... ... : ... .. . ... ... : ... .. . ... : ... .. . ... : ... .. . Z00 ...
ROW 20 : D#3 00 0 P83 ... : A#3 00 0 P7C ... : G-3 00 . P80 : ... .. . ... : ... .. . Z00 ...
ROW 21 : ... .. B ... ... : ... .. B ... ... : ... .. . ... : ... .. . ... : ... .. . Z00 ...
ROW 22 : ... .. A ... ... : ... .. A ... ... : ... .. . ... : ... .. . ... : ... .. . Z00 ...
ROW 23 : ... .. 9 ... ... : ... .. 9 ... ... : ... .. . ... : ... .. . ... : ... .. . Z00 ...
ROW 24 : ... .. 8 ... ... : ... .. 8 ... ... : --- .. . ... : ... .. . ... : ... .. . Z00 ...
ROW 25 : ... .. . ... ... : ... .. . ... ... : ... .. . ... : ... .. . ... : ... .. . Z00 ...
ROW 26 : ... .. . ... ... : ... .. . ... ... : ... .. . ... : ... .. . ... : ... .. . Z00 ...
ROW 27 : ... .. . ... ... : ... .. . ... ... : ... .. . ... : ... .. . ... : ... .. . Z00 ...
ROW 28 : A#2 00 0 P77 ... : G-3 00 0 P80 ... : D#3 00 . P83 : ... .. . ... : ... .. . Z00 ...
ROW 29 : ... .. B ... ... : ... .. B ... ... : ... .. . ... : ... .. . ... : ... .. . Z00 ...
ROW 2A : ... .. A ... ... : ... .. A ... ... : ... .. . ... : ... .. . ... : ... .. . Z00 ...
ROW 2B : ... .. 9 ... ... : ... .. 9 ... ... : ... .. . ... : ... .. . ... : ... .. . Z00 ...
ROW 2C : ... .. 8 ... ... : ... .. 8 ... ... : --- .. . ... : ... .. . ... : ... .. . Z00 ...
ROW 2D : ... .. . ... ... : ... .. . ... ... : ... .. . ... : ... .. . ... : ... .. . Z00 ...
ROW 2E : ... .. . ... ... : ... .. . ... ... : ... .. . ... : ... .. . ... : ... .. . Z00 ...
ROW 2F : ... .. . ... ... : ... .. . ... ... : ... .. . ... : ... .. . ... : ... .. . Z00 ...
ROW 30 : G-3 00 0 P80 ... : D#4 00 0 P82 ... : A#3 00 . P7C : ... .. . ... : ... .. . Z00 ...
ROW 31 : ... .. B ... ... : ... .. B ... ... : ... .. . ... : ... .. . ... : ... .. . Z00 ...
ROW 32 : ... .. A ... ... : ... .. A ... ... : ... .. . ... : ... .. . ... : ... .. . Z00 ...
ROW 33 : ... .. 9 ... ... : ... .. 9 ... ... : ... .. . ... : ... .. . ... : ... .. . Z00 ...
ROW 34 : ... .. 8 ... ... : ... .. 8 ... ... : --- .. . ... : ... .. . ... : ... .. . Z00 ...
ROW 35 : ... .. . ... ... : ... .. . ... ... : ... .. . ... : ... .. . ... : ... .. . Z00 ...
ROW 36 : ... .. . ... ... : ... .. . ... ... : ... .. . ... : ... .. . ... : ... .. . Z00 ...
ROW 37 : ... .. . ... ... : ... .. . ... ... : ... .. . ... : ... .. . ... : ... .. . Z00 ...
ROW 38 : ... .. 0 ... ... : ... .. . ... ... : A#3 00 . P7C : ... .. . ... : ... .. . Z00 ...
ROW 39 : ... .. B ... ... : ... .. . ... ... : ... .. . ... : ... .. . ... : ... .. . Z00 ...
ROW 3A : ... .. A ... ... : ... .. . ... ... : ... .. . ... : ... .. . ... : ... .. . Z00 ...
ROW 3B : ... .. 9 ... ... : ... .. . ... ... : ... .. . ... : ... .. . ... : ... .. . Z00 ...
ROW 3C : ... .. 0 ... ... : ... .. . ... ... : ... .. . ... : ... .. . ... : ... .. . Z00 ...
ROW 3D : ... .. B ... ... : ... .. . ... ... : ... .. . ... : ... .. . ... : ... .. . Z00 ...
ROW 3E : ... .. A ... ... : ... .. . ... ... : ... .. . ... : ... .. . ... : ... .. . Z00 ...
ROW 3F : ... .. 9 ... ... : ... .. . ... ... : ... .. . ... : ... .. . ... : ... .. . Z00 ...
ROW 40 : ... .. 0 ... ... : ... .. . ... ... : ... .. . ... : ... .. . ... : ... .. . Z00 ...
ROW 41 : ... .. B ... ... : ... .. . ... ... : ... .. . ... : ... .. . ... : ... .. . Z00 ...
ROW 42 : ... .. A ... ... : ... .. . ... ... : ... .. . ... : ... .. . ... : ... .. . Z00 ...
ROW 43 : ... .. 9 ... ... : ... .. . ... ... : ... .. . ... : ... .. . ... : ... .. . Z00 ...
ROW 44 : ... .. 8 ... ... : ... .. . ... ... : --- .. . ... : ... .. . ... : ... .. . Z00 ...
ROW 45 : ... .. . ... ... : ... .. . ... ... : ... .. . ... : ... .. . ... : ... .. . Z00 ...
ROW 46 : ... .. . ... ... : ... .. . ... ... : ... .. . ... : ... .. . ... : ... .. . Z00 ...
ROW 47 : ... .. . ... ... : ... .. . ... ... : ... .. . ... : ... .. . ... : ... .. . Z00 ...
ROW 48 : A-3 00 0 P7E ... : F-4 00 0 P80 ... : C-4 00 . P80 : ... .. . ... : ... .. . Z00 ...
ROW 49 : ... .. B ... ... : ... .. B ... ... : ... .. . ... : ... .. . ... : ... .. . Z00 ...
ROW 4A : ... .. A ... ... : ... .. A ... ... : ... .. . ... : ... .. . ... : ... .. . Z00 ...
ROW 4B : ... .. 9 ... ... : ... .. 9 ... ... : ... .. . ... : ... .. . ... : ... .. . Z00 ...
ROW 4C : ... .. 8 ... ... : ... .. 8 ... ... : --- .. . ... : ... .. . ... : ... .. . Z00 ...
ROW 4D : ... .. . ... ... : ... .. . ... ... : ... .. . ... : ... .. . ... : ... .. . Z00 ...
ROW 4E : ... .. . ... ... : ... .. . ... ... : ... .. . ... : ... .. . ... : ... .. . Z00 ...
ROW 4F : ... .. . ... ... : ... .. . ... ... : ... .. . ... : ... .. . ... : ... .. . Z00 ...
ROW 50 : ... .. . ... ... : ... .. . ... ... : ... .. . ... : ... .. . ... : ... .. . Z00 ...
ROW 51 : ... .. . ... ... : ... .. . ... ... : ... .. . ... : ... .. . ... : ... .. . Z00 ...
ROW 52 : ... .. . ... ... : ... .. . ... ... : ... .. . ... : ... .. . ... : ... .. . Z00 ...
ROW 53 : ... .. . ... ... : ... .. . ... ... : ... .. . ... : ... .. . ... : ... .. . Z00 ...
ROW 54 : ... .. 0 ... ... : ... .. 0 ... ... : C-4 00 . P80 : ... .. . ... : ... .. . Z00 ...
ROW 55 : ... .. B ... ... : ... .. B ... ... : ... .. . ... : ... .. . ... : ... .. . Z00 ...
ROW 56 : ... .. A ... ... : ... .. A ... ... : ... .. . ... : ... .. . ... : ... .. . Z00 ...
ROW 57 : ... .. 9 ... ... : ... .. 9 ... ... : ... .. . ... : ... .. . ... : ... .. . Z00 ...
ROW 58 : ... .. 8 ... ... : ... .. 8 ... ... : --- .. . ... : ... .. . ... : ... .. . Z00 ...
ROW 59 : ... .. . ... ... : ... .. . ... ... : ... .. . ... : ... .. . ... : ... .. . Z00 ...
ROW 5A : ... .. . ... ... : ... .. . ... ... : ... .. . ... : ... .. . ... : ... .. . Z00 ...
ROW 5B : ... .. . ... ... : ... .. . ... ... : ... .. . ... : ... .. . ... : ... .. . Z00 ...
ROW 5C : ... .. . ... ... : ... .. . ... ... : ... .. . ... : ... .. . ... : ... .. . Z00 ...
ROW 5D : ... .. . ... ... : ... .. . ... ... : ... .. . ... : ... .. . ... : ... .. . Z00 ...
ROW 5E : ... .. . ... ... : ... .. . ... ... : ... .. . ... : ... .. . ... : ... .. . Z00 ...
ROW 5F : ... .. . ... ... : ... .. . ... ... : ... .. . ... : ... .. . ... : ... .. . Z00 ...
ROW 60 : ... .. 0 ... ... : ... .. 0 ... ... : C-4 00 . P80 : ... .. . ... : ... .. . Z00 ...
ROW 61 : ... .. B ... ... : ... .. B ... ... : ... .. . ... : ... .. . ... : ... .. . Z00 ...
ROW 62 : ... .. A ... ... : ... .. A ... ... : ... .. . ... : ... .. . ... : ... .. . Z00 ...
ROW 63 : ... .. 9 ... ... : ... .. 9 ... ... : ... .. . ... : ... .. . ... : ... .. . Z00 ...
ROW 64 : ... .. 8 ... ... : ... .. 8 ... ... : --- .. . ... : ... .. . ... : ... .. . Z00 ...
ROW 65 : ... .. . ... ... : ... .. . ... ... : ... .. . ... : ... .. . ... : ... .. . Z00 ...
ROW 66 : ... .. . ... ... : ... .. . ... ... : ... .. . ... : ... .. . ... : ... .. . Z00 ...
ROW 67 : ... .. . ... ... : ... .. . ... ... : ... .. . ... : ... .. . ... : ... .. . Z00 ...
ROW 68 : ... .. . ... ... : ... .. . ... ... : ... .. . ... : ... .. . ... : ... .. . Z00 ...
ROW 69 : ... .. . ... ... : ... .. . ... ... : ... .. . ... : ... .. . ... : ... .. . Z00 ...
ROW 6A : ... .. . ... ... : ... .. . ... ... : ... .. . ... : ... .. . ... : ... .. . Z00 ...
ROW 6B : ... .. . ... ... : ... .. . ... ... : ... .. . ... : ... .. . ... : ... .. . Z00 ...
ROW 6C : B-3 00 0 P7E ... : G-4 00 0 P80 ... : D-4 00 . P80 : ... .. . ... : ... .. . Z00 ...
ROW 6D : ... .. B ... ... : ... .. B ... ... : ... .. . ... : ... .. . ... : ... .. . Z00 ...
ROW 6E : ... .. A ... ... : ... .. A ... ... : ... .. . ... : ... .. . ... : ... .. . Z00 ...
ROW 6F : ... .. 9 ... ... : ... .. 9 ... ... : ... .. . ... : ... .. . ... : ... .. . Z00 ...
ROW 70 : ... .. 8 ... ... : ... .. 8 ... ... : ... .. . ... : ... .. . ... : ... .. . Z00 ...
ROW 71 : ... .. . ... ... : ... .. . ... ... : ... .. . ... : ... .. . ... : ... .. . Z00 ...
ROW 72 : ... .. . ... ... : ... .. . ... ... : ... .. . ... : ... .. . ... : ... .. . Z00 ...
ROW 73 : ... .. . ... ... : ... .. . ... ... : ... .. . ... : ... .. . ... : ... .. . Z00 ...
ROW 74 : ... .. . ... ... : ... .. . ... ... : ... .. . ... : ... .. . ... : ... .. . Z00 ...
ROW 75 : ... .. . ... ... : ... .. . ... ... : ... .. . ... : ... .. . ... : ... .. . Z00 ...
ROW 76 : ... .. . ... ... : ... .. . ... ... : ... .. . ... : ... .. . ... : ... .. . Z00 ...
ROW 77 : ... .. . ... ... : ... .. . ... ... : ... .. . ... : ... .. . ... : ... .. . Z00 ...
ROW 78 : ... .. . ... ... : ... .. . ... ... : ... .. . ... : ... .. . ... : ... .. . Z00 ...
ROW 79 : ... .. . ... ... : ... .. . ... ... : ... .. . ... : ... .. . ... : ... .. . Z00 ...
ROW 7A : ... .. . ... ... : ... .. . ... ... : ... .. . ... : ... .. . ... : ... .. . Z00 ...
ROW 7B : ... .. . ... ... : ... .. . ... ... : ... .. . ... : ... .. . ... : ... .. . Z00 ...
ROW 7C : ... .. . ... ... : ... .. . ... ... : ... .. . ... : ... .. . ... : ... .. . Z00 ...
ROW 7D : ... .. . ... ... : ... .. . ... ... : ... .. . ... : ... .. . ... : ... .. . Z00 ...
ROW 7E : ... .. . ... ... : ... .. . ... ... : ... .. . ... : ... .. . ... : ... .. . Z00 ...
ROW 7F : ... .. . ... ... : ... .. . ... ... : ... .. . ... : ... .. . ... : ... .. . Z00 ...
ROW 80 : ... .. . ... ... : ... .. . ... ... : ... .. . ... : ... .. . ... : ... .. . Z00 ...
ROW 81 : ... .. . ... ... : ... .. . ... ... : ... .. . ... : ... .. . ... : ... .. . Z00 ...
ROW 82 : ... .. . ... ... : ... .. . ... ... : ... .. . ... : ... .. . ... : ... .. . Z00 ...
ROW 83 : ... .. . ... ... : ... .. . ... ... : ... .. . ... : ... .. . ... : ... .. . Z00 ...
ROW 84 : ... .. . ... ... : ... .. . ... ... : ... .. . ... : ... .. . ... : ... .. . Z00 ...
ROW 85 : ... .. . ... ... : ... .. . ... ... : ... .. . ... : ... .. . ... : ... .. . Z00 ...
ROW 86 : ... .. . ... ... : ... .. . ... ... : ... .. . ... : ... .. . ... : ... .. . Z00 ...
ROW 87 : ... .. . ... ... : ... .. . ... ... : ... .. . ... : ... .. . ... : ... .. . Z00 ...
ROW 88 : ... .. . ... ... : ... .. . ... ... : ... .. . ... : ... .. . ... : ... .. . Z00 ...
ROW 89 : ... .. . ... ... : ... .. . ... ... : ... .. . ... : ... .. . ... : ... .. . Z00 ...
ROW 8A : ... .. . ... ... : ... .. . ... ... : ... .. . ... : ... .. . ... : ... .. . Z00 ...
ROW 8B : ... .. . ... ... : ... .. . ... ... : ... .. . ... : ... .. . ... : ... .. . Z00 ...
ROW 8C : ... .. . ... ... : ... .. . ... ... : ... .. . ... : ... .. . ... : ... .. . Z00 ...
ROW 8D : ... .. . ... ... : ... .. . ... ... : ... .. . ... : ... .. . ... : ... .. . Z00 ...
ROW 8E : ... .. . ... ... : ... .. . ... ... : ... .. . ... : ... .. . ... : ... .. . Z00 ...
ROW 8F : ... .. . ... ... : ... .. . ... ... : ... .. . ... : ... .. . ... : ... .. . Z00 ...
ROW 90 : ... .. . ... ... : ... .. . ... ... : ... .. . ... : ... .. . ... : ... .. . Z00 ...
ROW 91 : ... .. . ... ... : ... .. . ... ... : ... .. . ... : ... .. . ... : ... .. . Z00 ...
ROW 92 : ... .. . ... ... : ... .. . ... ... : ... .. . ... : ... .. . ... : ... .. . Z00 ...
ROW 93 : ... .. . ... ... : ... .. . ... ... : ... .. . ... : ... .. . ... : ... .. . Z00 ...
ROW 94 : ... .. . ... ... : ... .. . ... ... : ... .. . ... : ... .. . ... : ... .. . Z00 ...
ROW 95 : ... .. . ... ... : ... .. . ... ... : ... .. . ... : ... .. . ... : ... .. . Z00 ...
ROW 96 : ... .. . ... ... : ... .. . ... ... : ... .. . ... : ... .. . ... : ... .. . Z00 ...
ROW 97 : ... .. . ... ... : ... .. . ... ... : ... .. . ... : ... .. . ... : ... .. . Z00 ...
ROW 98 : ... .. . ... ... : ... .. . ... ... : ... .. . ... : ... .. . ... : ... .. . Z00 ...
ROW 99 : ... .. . ... ... : ... .. . ... ... : ... .. . ... : ... .. . ... : ... .. . Z00 ...
ROW 9A : ... .. . ... ... : ... .. . ... ... : ... .. . ... : ... .. . ... : ... .. . Z00 ...
ROW 9B : ... .. . ... ... : ... .. . ... ... : ... .. . ... : ... .. . ... : ... .. . Z00 ...
ROW 9C : ... .. . ... ... : ... .. . ... ... : ... .. . ... : ... .. . ... : ... .. . Z00 ...
ROW 9D : ... .. . ... ... : ... .. . ... ... : ... .. . ... : ... .. . ... : ... .. . Z00 ...
ROW 9E : ... .. . ... ... : ... .. . ... ... : ... .. . ... : ... .. . ... : ... .. . Z00 ...
ROW 9F : ... .. . ... ... : ... .. . ... ... : ... .. . ... : ... .. . ... : ... .. . Z00 ...
ROW A0 : ... .. . ... ... : ... .. . ... ... : ... .. . ... : ... .. . ... : ... .. . Z00 ...
ROW A1 : ... .. . ... ... : ... .. . ... ... : ... .. . ... : ... .. . ... : ... .. . Z00 ...
ROW A2 : ... .. . ... ... : ... .. . ... ... : ... .. . ... : ... .. . ... : ... .. . Z00 ...
ROW A3 : ... .. . ... ... : ... .. . ... ... : ... .. . ... : ... .. . ... : ... .. . Z00 ...
ROW A4 : ... .. . ... ... : ... .. . ... ... : ... .. . ... : ... .. . ... : ... .. . Z00 ...
ROW A5 : ... .. . ... ... : ... .. . ... ... : ... .. . ... : ... .. . ... : ... .. . Z00 ...
ROW A6 : ... .. . ... ... : ... .. . ... ... : ... .. . ... : ... .. . ... : ... .. . Z00 ...
ROW A7 : ... .. . ... ... : ... .. . ... ... : ... .. . ... : ... .. . ... : ... .. . Z00 ...
ROW A8 : ... .. . ... ... : ... .. . ... ... : ... .. . ... : ... .. . ... : ... .. . Z00 ...
ROW A9 : ... .. . ... ... : ... .. . ... ... : ... .. . ... : ... .. . ... : ... .. . Z00 ...
ROW AA : ... .. . ... ... : ... .. . ... ... : ... .. . ... : ... .. . ... : ... .. . Z00 ...
ROW AB : ... .. . ... ... : ... .. . ... ... : ... .. . ... : ... .. . ... : ... .. . Z00 ...
ROW AC : ... .. 0 ... ... : ... .. 0 ... ... : --- .. . ... : ... .. . ... : ... .. . Z00 ...
ROW AD : ... .. . ... ... : ... .. . ... ... : ... .. . ... : ... .. . ... : ... .. . Z00 ...
ROW AE : ... .. . ... ... : ... .. . ... ... : ... .. . ... : ... .. . ... : ... .. . Z00 ...
ROW AF : ... .. . ... ... : ... .. . ... ... : ... .. . ... : ... .. . ... : ... .. . Z00 ...
ROW B0 : ... .. . ... ... : ... .. . ... ... : ... .. . ... : ... .. . ... : ... .. . Z00 ...
ROW B1 : ... .. . ... ... : ... .. . ... ... : ... .. . ... : ... .. . ... : ... .. . Z00 ...
ROW B2 : ... .. . ... ... : ... .. . ... ... : ... .. . ... : ... .. . ... : ... .. . Z00 ...
ROW B3 : ... .. . ... ... : ... .. . ... ... : ... .. . ... : ... .. . ... : ... .. . Z00 ...
ROW B4 : ... .. . ... ... : ... .. . ... ... : ... .. . ... : ... .. . ... : ... .. . Z00 ...
ROW B5 : ... .. . ... ... : ... .. . ... ... : ... .. . ... : ... .. . ... : ... .. . Z00 ...
ROW B6 : ... .. . ... ... : ... .. . ... ... : ... .. . ... : ... .. . ... : ... .. . Z00 ...
ROW B7 : ... .. . ... ... : ... .. . ... ... : ... .. . ... : ... .. . ... : ... .. . Z00 ...
ROW B8 : ... .. . ... ... : ... .. . ... ... : ... .. . ... : ... .. . ... : ... .. . Z00 ...
ROW B9 : ... .. . ... ... : ... .. . ... ... : ... .. . ... : ... .. . ... : ... .. . Z00 ...
ROW BA : ... .. . ... ... : ... .. . ... ... : ... .. . ... : ... .. . ... : ... .. . Z00 ...
ROW BB : ... .. . ... ... : ... .. . ... ... : ... .. . ... : ... .. . ... : ... .. . Z00 ...
ROW BC : ... .. . ... ... : ... .. . ... ... : ... .. . ... : ... .. . ... : ... .. . Z00 ...
ROW BD : ... .. . ... ... : ... .. . ... ... : ... .. . ... : ... .. . ... : ... .. . Z00 ...
ROW BE : ... .. . ... ... : ... .. . ... ... : ... .. . ... : ... .. . ... : ... .. . Z00 ...
ROW BF : ... .. . ... ... : ... .. . ... ... : ... .. . ... : ... .. . ... : ... .. . C00 ...

TRACK 136   1 150 "Deathworld"
COLUMNS : 2 2 1 1 2

ORDER 00 : 00 00 00 00 00
ORDER 01 : 01 01 01 01 01

PATTERN 00
ROW 00 : A-3 00 E P7E V02 : --- .. 0 P80 V00 : --- .. . P80 : F-# 00 0 V00 : --- .. . Z30 ...
ROW 01 : G#3 00 C P82 ... : ... .. . ... ... : ... .. . ... : ... .. . ... : ... .. . Z2F ...
ROW 02 : G-3 00 B P80 ... : ... .. . ... ... : ... .. . ... : ... .. . ... : ... .. . Z2E ...
ROW 03 : A#3 00 E P7C ... : ... .. . ... ... : ... .. . ... : ... .. . ... : ... .. . Z2D ...
ROW 04 : A-3 00 C P7E ... : ... .. . ... ... : ... .. . ... : ... .. . ... : ... .. . Z2C ...
ROW 05 : G#3 00 B P82 ... : ... .. . ... ... : ... .. . ... : ... .. . ... : ... .. . Z2B ...
ROW 06 : B-3 00 E P7E ... : ... .. . ... ... : ... .. . ... : ... .. . ... : ... .. . Z2A ...
ROW 07 : A#3 00 C P7C ... : ... .. . ... ... : ... .. . ... : ... .. . ... : ... .. . Z29 ...
ROW 08 : A-3 00 B P7E ... : ... .. . ... ... : ... .. . ... : ... .. . ... : ... .. . Z28 ...
ROW 09 : G#3 00 8 P82 V00 : ... .. . ... ... : ... .. . ... : ... .. . ... : ... .. . Z27 ...
ROW 0A : G-3 00 4 P80 ... : ... .. . ... ... : ... .. . ... : ... .. . ... : ... .. . Z26 ...
ROW 0B : F#3 00 0 P7D ... : ... .. . ... ... : ... .. . ... : ... .. . ... : ... .. . Z25 ...
ROW 0C : F-3 00 0 P80 ... : ... .. . ... ... : ... .. . ... : ... .. . ... : ... .. . Z24 ...
ROW 0D : E-3 00 0 P7D ... : ... .. . ... ... : ... .. . ... : ... .. . ... : ... .. . Z23 ...
ROW 0E : D#3 00 0 P83 ... : ... .. . ... ... : ... .. . ... : ... .. . ... : ... .. . Z22 ...
ROW 0F : D-3 00 0 P81 ... : ... .. . ... ... : ... .. . ... : ... .. . ... : ... .. . Z21 ...
ROW 10 : C#3 00 0 P83 ... : ... .. . ... ... : ... .. . ... : ... .. . ... : ... .. . Z20 ...
ROW 11 : C-3 00 0 P80 ... : ... .. . ... ... : ... .. . ... : ... .. . ... : ... .. . Z1F ...
ROW 12 : B-2 00 0 P7D ... : ... .. . ... ... : ... .. . ... : ... .. . ... : ... .. . Z1E ...
ROW 13 : A#2 00 0 P77 ... : ... .. . ... ... : ... .. . ... : ... .. . ... : ... .. . Z1D ...
ROW 14 : A-2 00 0 P7B ... : ... .. . ... ... : ... .. . ... : ... .. . ... : ... .. . Z1C ...
ROW 15 : G#2 00 0 P84 ... : ... .. . ... ... : ... .. . ... : ... .. . ... : ... .. . Z1B ...
ROW 16 : G-2 00 0 P81 ... : ... .. . ... ... : ... .. . ... : ... .. . ... : ... .. . Z1A ...
ROW 17 : F#2 00 0 P7A ... : ... .. . ... ... : ... .. . ... : ... .. . ... : ... .. . Z19 ...
ROW 18 : F-2 00 0 P7F ... : ... .. . ... ... : ... .. . ... : ... .. . ... : ... .. . Z18 ...
ROW 19 : D#2 00 0 P87 ... : ... .. . ... ... : ... .. . ... : ... .. . ... : ... .. . Z17 ...
ROW 1A : D-2 00 0 P82 ... : ... .. . ... ... : ... .. . ... : ... .. . ... : ... .. . Z16 ...
ROW 1B : C#2 00 0 P85 ... : ... .. . ... ... : ... .. . ... : ... .. . ... : ... .. . Z15 ...
ROW 1C : C-2 00 0 P80 ... : ... .. . ... ... : ... .. . ... : ... .. . ... : ... .. . Z14 ...
ROW 1D : B-1 00 0 P7A ... : ... .. . ... ... : ... .. . ... : ... .. . ... : ... .. . Z13 ...
ROW 1E : A#1 00 0 P6F ... : ... .. . ... ... : ... .. . ... : ... .. . ... : ... .. . Z12 ...
ROW 1F : A-1 00 0 P77 ... : ... .. . ... ... : ... .. . ... : ... .. . ... : ... .. . Z11 ...
ROW 20 : G#1 00 0 P89 ... : ... .. . ... ... : ... .. . ... : ... .. . ... : ... .. . Z10 ...
ROW 21 : G-1 00 0 P81 ... : ... .. . ... ... : ... .. . ... : ... .. . ... : ... .. . Z0F ...
ROW 22 : F#1 00 0 P74 ... : ... .. . ... ... : ... .. . ... : ... .. . ... : ... .. . Z0E ...
ROW 23 : F-1 00 0 P7F ... : ... .. . ... ... : ... .. . ... : ... .. . ... : ... .. . Z0D D00
ROW 24 : ... .. . ... ... : ... .. . ... ... : ... .. . ... : ... .. . ... : ... .. . ... ...
ROW 25 : ... .. . ... ... : ... .. . ... ... : ... .. . ... : ... .. . ... : ... .. . ... ...
ROW 26 : ... .. . ... ... : ... .. . ... ... : ... .. . ... : ... .. . ... : ... .. . ... ...
ROW 27 : ... .. . ... ... : ... .. . ... ... : ... .. . ... : ... .. . ... : ... .. . ... ...
ROW 28 : ... .. . ... ... : ... .. . ... ... : ... .. . ... : ... .. . ... : ... .. . ... ...
ROW 29 : ... .. . ... ... : ... .. . ... ... : ... .. . ... : ... .. . ... : ... .. . ... ...
ROW 2A : ... .. . ... ... : ... .. . ... ... : ... .. . ... : ... .. . ... : ... .. . ... ...
ROW 2B : ... .. . ... ... : ... .. . ... ... : ... .. . ... : ... .. . ... : ... .. . ... ...
ROW 2C : ... .. . ... ... : ... .. . ... ... : ... .. . ... : ... .. . ... : ... .. . ... ...
ROW 2D : ... .. . ... ... : ... .. . ... ... : ... .. . ... : ... .. . ... : ... .. . ... ...
ROW 2E : ... .. . ... ... : ... .. . ... ... : ... .. . ... : ... .. . ... : ... .. . ... ...
ROW 2F : ... .. . ... ... : ... .. . ... ... : ... .. . ... : ... .. . ... : ... .. . ... ...
ROW 30 : ... .. . ... ... : ... .. . ... ... : ... .. . ... : ... .. . ... : ... .. . ... ...
ROW 31 : ... .. . ... ... : ... .. . ... ... : ... .. . ... : ... .. . ... : ... .. . ... ...
ROW 32 : ... .. . ... ... : ... .. . ... ... : ... .. . ... : ... .. . ... : ... .. . ... ...
ROW 33 : ... .. . ... ... : ... .. . ... ... : ... .. . ... : ... .. . ... : ... .. . ... ...
ROW 34 : ... .. . ... ... : ... .. . ... ... : ... .. . ... : ... .. . ... : ... .. . ... ...
ROW 35 : ... .. . ... ... : ... .. . ... ... : ... .. . ... : ... .. . ... : ... .. . ... ...
ROW 36 : ... .. . ... ... : ... .. . ... ... : ... .. . ... : ... .. . ... : ... .. . ... ...
ROW 37 : ... .. . ... ... : ... .. . ... ... : ... .. . ... : ... .. . ... : ... .. . ... ...
ROW 38 : ... .. . ... ... : ... .. . ... ... : ... .. . ... : ... .. . ... : ... .. . ... ...
ROW 39 : ... .. . ... ... : ... .. . ... ... : ... .. . ... : ... .. . ... : ... .. . ... ...
ROW 3A : ... .. . ... ... : ... .. . ... ... : ... .. . ... : ... .. . ... : ... .. . ... ...
ROW 3B : ... .. . ... ... : ... .. . ... ... : ... .. . ... : ... .. . ... : ... .. . ... ...
ROW 3C : ... .. . ... ... : ... .. . ... ... : ... .. . ... : ... .. . ... : ... .. . ... ...
ROW 3D : ... .. . ... ... : ... .. . ... ... : ... .. . ... : ... .. . ... : ... .. . ... ...
ROW 3E : ... .. . ... ... : ... .. . ... ... : ... .. . ... : ... .. . ... : ... .. . ... ...
ROW 3F : ... .. . ... ... : ... .. . ... ... : ... .. . ... : ... .. . ... : ... .. . ... ...
ROW 40 : ... .. . ... ... : ... .. . ... ... : ... .. . ... : ... .. . ... : ... .. . ... ...
ROW 41 : ... .. . ... ... : ... .. . ... ... : ... .. . ... : ... .. . ... : ... .. . ... ...
ROW 42 : ... .. . ... ... : ... .. . ... ... : ... .. . ... : ... .. . ... : ... .. . ... ...
ROW 43 : ... .. . ... ... : ... .. . ... ... : ... .. . ... : ... .. . ... : ... .. . ... ...
ROW 44 : ... .. . ... ... : ... .. . ... ... : ... .. . ... : ... .. . ... : ... .. . ... ...
ROW 45 : ... .. . ... ... : ... .. . ... ... : ... .. . ... : ... .. . ... : ... .. . ... ...
ROW 46 : ... .. . ... ... : ... .. . ... ... : ... .. . ... : ... .. . ... : ... .. . ... ...
ROW 47 : ... .. . ... ... : ... .. . ... ... : ... .. . ... : ... .. . ... : ... .. . ... ...
ROW 48 : ... .. . ... ... : ... .. . ... ... : ... .. . ... : ... .. . ... : ... .. . ... ...
ROW 49 : ... .. . ... ... : ... .. . ... ... : ... .. . ... : ... .. . ... : ... .. . ... ...
ROW 4A : ... .. . ... ... : ... .. . ... ... : ... .. . ... : ... .. . ... : ... .. . ... ...
ROW 4B : ... .. . ... ... : ... .. . ... ... : ... .. . ... : ... .. . ... : ... .. . ... ...
ROW 4C : ... .. . ... ... : ... .. . ... ... : ... .. . ... : ... .. . ... : ... .. . ... ...
ROW 4D : ... .. . ... ... : ... .. . ... ... : ... .. . ... : ... .. . ... : ... .. . ... ...
ROW 4E : ... .. . ... ... : ... .. . ... ... : ... .. . ... : ... .. . ... : ... .. . ... ...
ROW 4F : ... .. . ... ... : ... .. . ... ... : ... .. . ... : ... .. . ... : ... .. . ... ...
ROW 50 : ... .. . ... ... : ... .. . ... ... : ... .. . ... : ... .. . ... : ... .. . ... ...
ROW 51 : ... .. . ... ... : ... .. . ... ... : ... .. . ... : ... .. . ... : ... .. . ... ...
ROW 52 : ... .. . ... ... : ... .. . ... ... : ... .. . ... : ... .. . ... : ... .. . ... ...
ROW 53 : ... .. . ... ... : ... .. . ... ... : ... .. . ... : ... .. . ... : ... .. . ... ...
ROW 54 : ... .. . ... ... : ... .. . ... ... : ... .. . ... : ... .. . ... : ... .. . ... ...
ROW 55 : ... .. . ... ... : ... .. . ... ... : ... .. . ... : ... .. . ... : ... .. . ... ...
ROW 56 : ... .. . ... ... : ... .. . ... ... : ... .. . ... : ... .. . ... : ... .. . ... ...
ROW 57 : ... .. . ... ... : ... .. . ... ... : ... .. . ... : ... .. . ... : ... .. . ... ...
ROW 58 : ... .. . ... ... : ... .. . ... ... : ... .. . ... : ... .. . ... : ... .. . ... ...
ROW 59 : ... .. . ... ... : ... .. . ... ... : ... .. . ... : ... .. . ... : ... .. . ... ...
ROW 5A : ... .. . ... ... : ... .. . ... ... : ... .. . ... : ... .. . ... : ... .. . ... ...
ROW 5B : ... .. . ... ... : ... .. . ... ... : ... .. . ... : ... .. . ... : ... .. . ... ...
ROW 5C : ... .. . ... ... : ... .. . ... ... : ... .. . ... : ... .. . ... : ... .. . ... ...
ROW 5D : ... .. . ... ... : ... .. . ... ... : ... .. . ... : ... .. . ... : ... .. . ... ...
ROW 5E : ... .. . ... ... : ... .. . ... ... : ... .. . ... : ... .. . ... : ... .. . ... ...
ROW 5F : ... .. . ... ... : ... .. . ... ... : ... .. . ... : ... .. . ... : ... .. . ... ...
ROW 60 : ... .. . ... ... : ... .. . ... ... : ... .. . ... : ... .. . ... : ... .. . ... ...
ROW 61 : ... .. . ... ... : ... .. . ... ... : ... .. . ... : ... .. . ... : ... .. . ... ...
ROW 62 : ... .. . ... ... : ... .. . ... ... : ... .. . ... : ... .. . ... : ... .. . ... ...
ROW 63 : ... .. . ... ... : ... .. . ... ... : ... .. . ... : ... .. . ... : ... .. . ... ...
ROW 64 : ... .. . ... ... : ... .. . ... ... : ... .. . ... : ... .. . ... : ... .. . ... ...
ROW 65 : ... .. . ... ... : ... .. . ... ... : ... .. . ... : ... .. . ... : ... .. . ... ...
ROW 66 : ... .. . ... ... : ... .. . ... ... : ... .. . ... : ... .. . ... : ... .. . ... ...
ROW 67 : ... .. . ... ... : ... .. . ... ... : ... .. . ... : ... .. . ... : ... .. . ... ...
ROW 68 : ... .. . ... ... : ... .. . ... ... : ... .. . ... : ... .. . ... : ... .. . ... ...
ROW 69 : ... .. . ... ... : ... .. . ... ... : ... .. . ... : ... .. . ... : ... .. . ... ...
ROW 6A : ... .. . ... ... : ... .. . ... ... : ... .. . ... : ... .. . ... : ... .. . ... ...
ROW 6B : ... .. . ... ... : ... .. . ... ... : ... .. . ... : ... .. . ... : ... .. . ... ...
ROW 6C : ... .. . ... ... : ... .. . ... ... : ... .. . ... : ... .. . ... : ... .. . ... ...
ROW 6D : ... .. . ... ... : ... .. . ... ... : ... .. . ... : ... .. . ... : ... .. . ... ...
ROW 6E : ... .. . ... ... : ... .. . ... ... : ... .. . ... : ... .. . ... : ... .. . ... ...
ROW 6F : ... .. . ... ... : ... .. . ... ... : ... .. . ... : ... .. . ... : ... .. . ... ...
ROW 70 : ... .. . ... ... : ... .. . ... ... : ... .. . ... : ... .. . ... : ... .. . ... ...
ROW 71 : ... .. . ... ... : ... .. . ... ... : ... .. . ... : ... .. . ... : ... .. . ... ...
ROW 72 : ... .. . ... ... : ... .. . ... ... : ... .. . ... : ... .. . ... : ... .. . ... ...
ROW 73 : ... .. . ... ... : ... .. . ... ... : ... .. . ... : ... .. . ... : ... .. . ... ...
ROW 74 : ... .. . ... ... : ... .. . ... ... : ... .. . ... : ... .. . ... : ... .. . ... ...
ROW 75 : ... .. . ... ... : ... .. . ... ... : ... .. . ... : ... .. . ... : ... .. . ... ...
ROW 76 : ... .. . ... ... : ... .. . ... ... : ... .. . ... : ... .. . ... : ... .. . ... ...
ROW 77 : ... .. . ... ... : ... .. . ... ... : ... .. . ... : ... .. . ... : ... .. . ... ...
ROW 78 : ... .. . ... ... : ... .. . ... ... : ... .. . ... : ... .. . ... : ... .. . ... ...
ROW 79 : ... .. . ... ... : ... .. . ... ... : ... .. . ... : ... .. . ... : ... .. . ... ...
ROW 7A : ... .. . ... ... : ... .. . ... ... : ... .. . ... : ... .. . ... : ... .. . ... ...
ROW 7B : ... .. . ... ... : ... .. . ... ... : ... .. . ... : ... .. . ... : ... .. . ... ...
ROW 7C : ... .. . ... ... : ... .. . ... ... : ... .. . ... : ... .. . ... : ... .. . ... ...
ROW 7D : ... .. . ... ... : ... .. . ... ... : ... .. . ... : ... .. . ... : ... .. . ... ...
ROW 7E : ... .. . ... ... : ... .. . ... ... : ... .. . ... : ... .. . ... : ... .. . ... ...
ROW 7F : ... .. . ... ... : ... .. . ... ... : ... .. . ... : ... .. . ... : ... .. . ... ...
ROW 80 : ... .. . ... ... : ... .. . ... ... : ... .. . ... : ... .. . ... : ... .. . ... ...
ROW 81 : ... .. . ... ... : ... .. . ... ... : ... .. . ... : ... .. . ... : ... .. . ... ...
ROW 82 : ... .. . ... ... : ... .. . ... ... : ... .. . ... : ... .. . ... : ... .. . ... ...
ROW 83 : ... .. . ... ... : ... .. . ... ... : ... .. . ... : ... .. . ... : ... .. . ... ...
ROW 84 : ... .. . ... ... : ... .. . ... ... : ... .. . ... : ... .. . ... : ... .. . ... ...
ROW 85 : ... .. . ... ... : ... .. . ... ... : ... .. . ... : ... .. . ... : ... .. . ... ...
ROW 86 : ... .. . ... ... : ... .. . ... ... : ... .. . ... : ... .. . ... : ... .. . ... ...
ROW 87 : ... .. . ... ... : ... .. . ... ... : ... .. . ... : ... .. . ... : ... .. . ... ...

PATTERN 01
ROW 00 : F#3 00 E P7D V02 : B-3 00 E P7E V02 : G-3 00 . P80 : ... .. . ... : ... .. . Z0C ...
ROW 01 : F-3 00 C P80 ... : ... .. D ... ... : ... .. . ... : ... .. . ... : ... .. . Z0B ...
ROW 02 : E-3 00 B P7D ... : ... .. B ... ... : ... .. . ... : ... .. . ... : ... .. . Z0A ...
ROW 03 : D#3 00 A P83 ... : ... .. A ... ... : ... .. . ... : ... .. . ... : ... .. . Z09 ...
ROW 04 : D-3 00 8 P81 ... : ... .. 9 ... ... : ... .. . ... : ... .. . ... : ... .. . Z08 ...
ROW 05 : C#3 00 7 P83 ... : ... .. 7 ... ... : ... .. . ... : ... .. . ... : ... .. . Z07 ...
ROW 06 : C-3 00 6 P80 ... : ... .. 6 ... ... : ... .. . ... : ... .. . ... : ... .. . Z06 ...
ROW 07 : B-2 00 4 P7D ... : ... .. 5 ... ... : ... .. . ... : ... .. . ... : ... .. . Z05 ...
ROW 08 : A#2 00 3 P77 ... : ... .. 3 ... ... : --- .. . ... : ... .. . ... : ... .. . Z04 ...
ROW 09 : C#4 00 E P81 ... : F-4 00 E P80 ... : ... .. . ... : ... .. . ... : ... .. . Z03 ...
ROW 0A : C-4 00 C P80 ... : ... .. D ... ... : ... .. . ... : ... .. . ... : ... .. . Z02 ...
ROW 0B : B-3 00 B P7E ... : ... .. B ... ... : ... .. . ... : ... .. . ... : ... .. . Z01 ...
ROW 0C : A#3 00 A P7C ... : ... .. A ... ... : ... .. . ... : ... .. . ... : ... .. . Z00 ...
ROW 0D : A-3 00 8 P7E ... : ... .. 9 ... ... : ... .. . ... : ... .. . ... : ... .. . Z00 ...
ROW 0E : G#3 00 7 P82 ... : ... .. 7 ... ... : ... .. . ... : ... .. . ... : ... .. . Z00 ...
ROW 0F : G-3 00 6 P80 ... : ... .. 6 ... ... : ... .. . ... : ... .. . ... : ... .. . Z00 ...
ROW 10 : F#3 00 4 P7D ... : ... .. 5 ... ... : ... .. . ... : ... .. . ... : ... .. . Z00 ...
ROW 11 : F-3 00 3 P80 ... : ... .. 3 ... ... : ... .. . ... : ... .. . ... : ... .. . Z00 ...
ROW 12 : E-3 00 2 P7D ... : ... .. 2 ... V00 : ... .. . ... : ... .. . ... : ... .. . Z00 ...
ROW 13 : D#3 00 0 P83 ... : ... .. 1 ... ... : ... .. . ... : ... .. . ... : ... .. . Z00 ...
ROW 14 : D-3 00 0 P81 ... : ... .. . ... ... : ... .. . ... : ... .. . ... : ... .. . Z00 ...
ROW 15 : C#3 00 0 P83 ... : ... .. 0 ... ... : ... .. . ... : ... .. . ... : ... .. . Z00 ...
ROW 16 : C-3 00 0 P80 ... : ... .. . ... ... : ... .. . ... : ... .. . ... : ... .. . Z00 ...
ROW 17 : B-2 00 0 P7D ... : ... .. . ... ... : ... .. . ... : ... .. . ... : ... .. . Z00 ...
ROW 18 : A#2 00 0 P77 ... : ... .. . ... ... : ... .. . ... : ... .. . ... : ... .. . Z00 ...
ROW 19 : A-2 00 0 P7B ... : ... .. . ... ... : ... .. . ... : ... .. . ... : ... .. . Z00 ...
ROW 1A : G#2 00 0 P84 ... : ... .. . ... ... : ... .. . ... : ... .. . ... : ... .. . Z00 ...
ROW 1B : C#4 00 E P81 ... : ... .. E ... V02 : G-3 00 . P80 : ... .. . ... : ... .. . Z00 ...
ROW 1C : C-4 00 C P80 ... : ... .. C ... ... : ... .. . ... : ... .. . ... : ... .. . Z00 ...
ROW 1D : B-3 00 B P7E ... : ... .. B ... ... : ... .. . ... : ... .. . ... : ... .. . Z00 ...
ROW 1E : A#3 00 A P7C ... : ... .. A ... ... : ... .. . ... : ... .. . ... : ... .. . Z00 ...
ROW 1F : A-3 00 8 P7E ... : ... .. 8 ... ... : ... .. . ... : ... .. . ... : ... .. . Z00 ...
ROW 20 : G#3 00 7 P82 ... : ... .. 7 ... ... : ... .. . ... : ... .. . ... : ... .. . Z00 ...
ROW 21 : G-3 00 6 P80 ... : ... .. 6 ... ... : ... .. . ... : ... .. . ... : ... .. . Z00 ...
ROW 22 : F#3 00 4 P7D ... : ... .. 4 ... ... : ... .. . ... : ... .. . ... : ... .. . Z00 ...
ROW 23 : F-3 00 3 P80 ... : ... .. 3 ... ... : --- .. . ... : ... .. . ... : ... .. . Z00 ...
ROW 24 : C#4 00 E P81 ... : ... .. E ... ... : G-3 00 . P80 : ... .. . ... : ... .. . Z00 ...
ROW 25 : C-4 00 C P80 ... : ... .. C ... ... : ... .. . ... : ... .. . ... : ... .. . Z00 ...
ROW 26 : B-3 00 B P7E ... : ... .. B ... ... : ... .. . ... : ... .. . ... : ... .. . Z00 ...
ROW 27 : A#3 00 A P7C ... : ... .. A ... ... : ... .. . ... : ... .. . ... : ... .. . Z00 ...
ROW 28 : A-3 00 8 P7E ... : ... .. 8 ... ... : ... .. . ... : ... .. . ... : ... .. . Z00 ...
ROW 29 : G#3 00 7 P82 ... : ... .. 7 ... ... : ... .. . ... : ... .. . ... : ... .. . Z00 ...
ROW 2A : G-3 00 6 P80 ... : ... .. 6 ... ... : ... .. . ... : ... .. . ... : ... .. . Z00 ...
ROW 2B : F#3 00 4 P7D ... : ... .. 4 ... ... : ... .. . ... : ... .. . ... : ... .. . Z00 ...
ROW 2C : F-3 00 3 P80 ... : ... .. 3 ... ... : --- .. . ... : ... .. . ... : ... .. . Z00 ...
ROW 2D : E-3 00 2 P7D ... : ... .. 2 ... ... : ... .. . ... : ... .. . ... : ... .. . Z00 ...
ROW 2E : D#3 00 0 P83 ... : ... .. 0 ... ... : ... .. . ... : ... .. . ... : ... .. . Z00 ...
ROW 2F : D-3 00 0 P81 ... : ... .. . ... ... : ... .. . ... : ... .. . ... : ... .. . Z00 ...
ROW 30 : B-3 00 E P7E ... : E-4 00 E P7F ... : A-3 00 . P7E : ... .. . ... : ... .. . Z00 ...
ROW 31 : A#3 00 C P7C ... : ... .. C ... ... : ... .. . ... : ... .. . ... : ... .. . Z00 ...
ROW 32 : A-3 00 B P7E ... : ... .. B ... ... : ... .. . ... : ... .. . ... : ... .. . Z00 ...
ROW 33 : G#3 00 A P82 ... : ... .. A ... ... : ... .. . ... : ... .. . ... : ... .. . Z00 ...
ROW 34 : G-3 00 8 P80 ... : ... .. 8 ... ... : ... .. . ... : ... .. . ... : ... .. . Z00 ...
ROW 35 : F#3 00 7 P7D ... : ... .. 7 ... ... : ... .. . ... : ... .. . ... : ... .. . Z00 ...
ROW 36 : F-3 00 6 P80 ... : ... .. 6 ... ... : ... .. . ... : ... .. . ... : ... .. . Z00 ...
ROW 37 : E-3 00 4 P7D ... : ... .. 4 ... ... : ... .. . ... : ... .. . ... : ... .. . Z00 ...
ROW 38 : D#3 00 3 P83 ... : ... .. 3 ... ... : --- .. . ... : ... .. . ... : ... .. . Z00 ...
ROW 39 : D-3 00 2 P81 ... : ... .. 2 ... ... : ... .. . ... : ... .. . ... : ... .. . Z00 ...
ROW 3A : C#3 00 0 P83 ... : ... .. 0 ... ... : ... .. . ... : ... .. . ... : ... .. . Z00 ...
ROW 3B : C-3 00 0 P80 ... : ... .. . ... ... : ... .. . ... : ... .. . ... : ... .. . Z00 ...
ROW 3C : A#3 00 E P7C ... : D-4 00 E P80 ... : B-3 00 . P7E : ... .. . ... : ... .. . Z00 ...
ROW 3D : A-3 00 C P7E ... : ... .. C ... ... : ... .. . ... : ... .. . ... : ... .. . Z00 ...
ROW 3E : G#3 00 B P82 ... : ... .. B ... ... : ... .. . ... : ... .. . ... : ... .. . Z00 ...
ROW 3F : G-3 00 A P80 ... : ... .. A ... ... : ... .. . ... : ... .. . ... : ... .. . Z00 ...
ROW 40 : F#3 00 8 P7D ... : ... .. 8 ... ... : ... .. . ... : ... .. . ... : ... .. . Z00 ...
ROW 41 : F-3 00 7 P80 ... : ... .. 7 ... ... : ... .. . ... : ... .. . ... : ... .. . Z00 ...
ROW 42 : E-3 00 6 P7D ... : ... .. 6 ... ... : ... .. . ... : ... .. . ... : ... .. . Z00 ...
ROW 43 : D#3 00 4 P83 ... : ... .. 4 ... ... : ... .. . ... : ... .. . ... : ... .. . Z00 ...
ROW 44 : D-3 00 3 P81 ... : ... .. 3 ... ... : --- .. . ... : ... .. . ... : ... .. . Z00 ...
ROW 45 : C#3 00 2 P83 ... : ... .. 2 ... ... : ... .. . ... : ... .. . ... : ... .. . Z00 ...
ROW 46 : C-3 00 0 P80 ... : ... .. 0 ... ... : ... .. . ... : ... .. . ... : ... .. . Z00 ...
ROW 47 : B-2 00 0 P7D ... : ... .. . ... ... : ... .. . ... : ... .. . ... : ... .. . Z00 ...
ROW 48 : F#3 00 E P7D ... : C-4 00 E P80 ... : C-4 00 . P80 : ... .. . ... : ... .. . Z00 ...
ROW 49 : F-3 00 C P80 ... : ... .. C ... ... : ... .. . ... : ... .. . ... : ... .. . Z00 ...
ROW 4A : E-3 00 B P7D ... : ... .. B ... ... : ... .. . ... : ... .. . ... : ... .. . Z00 ...
ROW 4B : D#3 00 A P83 ... : ... .. A ... ... : ... .. . ... : ... .. . ... : ... .. . Z00 ...
ROW 4C : D-3 00 8 P81 ... : ... .. 8 ... ... : ... .. . ... : ... .. . ... : ... .. . Z00 ...
ROW 4D : C#3 00 7 P83 ... : ... .. 7 ... ... : ... .. . ... : ... .. . ... : ... .. . Z00 ...
ROW 4E : C-3 00 6 P80 ... : ... .. 6 ... ... : ... .. . ... : ... .. . ... : ... .. . Z00 ...
ROW 4F : B-2 00 4 P7D ... : ... .. 4 ... ... : ... .. . ... : ... .. . ... : ... .. . Z00 ...
ROW 50 : A#2 00 3 P77 ... : ... .. 3 ... ... : --- .. . ... : ... .. . ... : ... .. . Z00 ...
ROW 51 : D#3 00 E P83 ... : ... .. 2 ... ... : ... .. . ... : ... .. . ... : ... .. . Z00 ...
ROW 52 : D-3 00 C P81 ... : ... .. 0 ... ... : ... .. . ... : ... .. . ... : ... .. . Z00 ...
ROW 53 : C#3 00 B P83 ... : ... .. . ... ... : ... .. . ... : ... .. . ... : ... .. . Z00 ...
ROW 54 : C-3 00 A P80 ... : ... .. . ... ... : ... .. . ... : ... .. . ... : ... .. . Z00 ...
ROW 55 : B-2 00 8 P7D ... : ... .. . ... ... : ... .. . ... : ... .. . ... : ... .. . Z00 ...
ROW 56 : A#2 00 7 P77 ... : ... .. . ... ... : ... .. . ... : ... .. . ... : ... .. . Z00 ...
ROW 57 : A-2 00 6 P7B ... : ... .. . ... ... : ... .. . ... : ... .. . ... : ... .. . Z00 ...
ROW 58 : G#2 00 4 P84 ... : ... .. . ... ... : ... .. . ... : ... .. . ... : ... .. . Z00 ...
ROW 59 : G-2 00 3 P81 ... : ... .. . ... ... : ... .. . ... : ... .. . ... : ... .. . Z00 ...
ROW 5A : F#2 00 2 P7A ... : ... .. . ... ... : G-3 00 . P80 : ... .. . ... : ... .. . Z00 ...
ROW 5B : F-2 00 0 P7F ... : ... .. . ... ... : ... .. . ... : ... .. . ... : ... .. . Z00 ...
ROW 5C : E-2 00 0 P7B ... : ... .. . ... ... : ... .. . ... : ... .. . ... : ... .. . Z00 ...
ROW 5D : D#2 00 0 P87 ... : ... .. . ... ... : ... .. . ... : ... .. . ... : ... .. . Z00 ...
ROW 5E : D-2 00 0 P82 ... : ... .. . ... ... : ... .. . ... : ... .. . ... : ... .. . Z00 ...
ROW 5F : C-2 00 0 P80 ... : ... .. . ... ... : ... .. . ... : ... .. . ... : ... .. . Z00 ...
ROW 60 : B-1 00 0 P7A ... : ... .. . ... ... : ... .. . ... : ... .. . ... : ... .. . Z00 ...
ROW 61 : A#1 00 0 P6F ... : ... .. . ... ... : ... .. . ... : ... .. . ... : ... .. . Z00 ...
ROW 62 : A-1 00 0 P77 ... : ... .. . ... ... : --- .. . ... : ... .. . ... : ... .. . Z00 ...
ROW 63 : D#3 00 E P83 ... : ... .. . ... ... : ... .. . ... : ... .. . ... : ... .. . Z00 ...
ROW 64 : D-3 00 C P81 ... : ... .. . ... ... : ... .. . ... : ... .. . ... : ... .. . Z00 ...
ROW 65 : C#3 00 B P83 ... : ... .. . ... ... : ... .. . ... : ... .. . ... : ... .. . Z00 ...
ROW 66 : C-3 00 A P80 ... : ... .. . ... ... : ... .. . ... : ... .. . ... : ... .. . Z00 ...
ROW 67 : B-2 00 8 P7D ... : ... .. . ... ... : ... .. . ... : ... .. . ... : ... .. . Z00 ...
ROW 68 : A#2 00 7 P77 ... : ... .. . ... ... : ... .. . ... : ... .. . ... : ... .. . Z00 ...
ROW 69 : A-2 00 6 P7B ... : ... .. . ... ... : ... .. . ... : ... .. . ... : ... .. . Z00 ...
ROW 6A : G#2 00 4 P84 ... : ... .. . ... ... : ... .. . ... : ... .. . ... : ... .. . Z00 ...
ROW 6B : G-2 00 3 P81 ... : ... .. . ... ... : ... .. . ... : ... .. . ... : ... .. . Z00 ...
ROW 6C : B-2 00 E P7D ... : ... .. . ... V00 : C-3 00 . P80 : ... .. . ... : ... .. . Z00 ...
ROW 6D : A#2 00 C P77 ... : ... .. . ... ... : ... .. . ... : ... .. . ... : ... .. . Z00 ...
ROW 6E : A-2 00 B P7B ... : ... .. . ... ... : ... .. . ... : ... .. . ... : ... .. . Z00 ...
ROW 6F : G#2 00 A P84 ... : ... .. . ... ... : ... .. . ... : ... .. . ... : ... .. . Z00 ...
ROW 70 : G-2 00 8 P81 ... : ... .. . ... ... : ... .. . ... : ... .. . ... : ... .. . Z00 ...
ROW 71 : F#2 00 7 P7A ... : ... .. . ... ... : ... .. . ... : ... .. . ... : ... .. . Z00 ...
ROW 72 : F-2 00 6 P7F ... : ... .. . ... ... : ... .. . ... : ... .. . ... : ... .. . Z00 ...
ROW 73 : E-2 00 4 P7B ... : ... .. . ... ... : ... .. . ... : ... .. . ... : ... .. . Z00 ...
ROW 74 : D#2 00 3 P87 ... : ... .. . ... ... : --- .. . ... : ... .. . ... : ... .. . Z00 ...
ROW 75 : D-2 00 2 P82 ... : ... .. . ... ... : ... .. . ... : ... .. . ... : ... .. . Z00 ...
ROW 76 : C#2 00 0 P85 ... : ... .. . ... ... : ... .. . ... : ... .. . ... : ... .. . Z00 ...
ROW 77 : C-2 00 0 P80 ... : ... .. . ... ... : ... .. . ... : ... .. . ... : ... .. . Z00 ...
ROW 78 : B-1 00 0 P7A ... : ... .. . ... ... : ... .. . ... : ... .. . ... : ... .. . Z00 ...
ROW 79 : A#1 00 0 P6F ... : ... .. . ... ... : ... .. . ... : ... .. . ... : ... .. . Z00 ...
ROW 7A : G#1 00 0 P89 ... : ... .. . ... ... : ... .. . ... : ... .. . ... : ... .. . Z00 ...
ROW 7B : G-1 00 0 P81 ... : ... .. . ... ... : ... .. . ... : ... .. . ... : ... .. . Z00 ...
ROW 7C : F#1 00 0 P74 ... : ... .. . ... ... : ... .. . ... : ... .. . ... : ... .. . Z00 ...
ROW 7D : F-1 00 0 P7F ... : ... .. . ... ... : ... .. . ... : ... .. . ... : ... .. . Z00 ...
ROW 7E : E-1 00 0 P75 ... : ... .. . ... ... : ... .. . ... : ... .. . ... : ... .. . Z00 ...
ROW 7F : D#1 00 0 P8D ... : ... .. . ... ... : ... .. . ... : ... .. . ... : ... .. . Z00 ...
ROW 80 : D-1 00 0 P83 ... : ... .. . ... ... : ... .. . ... : ... .. . ... : ... .. . Z00 ...
ROW 81 : C#1 00 0 P8B ... : ... .. . ... ... : ... .. . ... : ... .. . ... : ... .. . Z00 ...
ROW 82 : C-1 00 0 P80 ... : ... .. . ... ... : ... .. . ... : ... .. . ... : ... .. . Z00 ...
ROW 83 : B-0 00 0 P74 ... : ... .. . ... ... : ... .. . ... : ... .. . ... : ... .. . Z00 ...
ROW 84 : A#0 00 0 P5E ... : ... .. . ... ... : ... .. . ... : ... .. . ... : ... .. . Z00 ...
ROW 85 : A-0 00 0 P6E ... : ... .. . ... ... : ... .. . ... : ... .. . ... : ... .. . Z00 ...
ROW 86 : ... .. . ... ... : ... .. . ... ... : ... .. . ... : ... .. . ... : ... .. . Z00 ...
ROW 87 : ... .. . ... ... : ... .. . ... ... : ... .. . ... : ... .. . ... : ... .. . C00 ...

TRACK 256   1 150 "Finalworld1"
COLUMNS : 2 2 1 1 2

ORDER 00 : 00 00 00 00 00

PATTERN 00
ROW 00 : E-3 00 5 P7D V00 : C-4 00 5 P80 V00 : G-3 00 . P80 : F-# 00 0 V00 : --- .. . Z30 ...
ROW 01 : ... .. 3 ... V02 : ... .. 3 ... V02 : ... .. . ... : ... .. . ... : ... .. . Z2F ...
ROW 02 : ... .. 4 ... ... : ... .. 4 ... ... : ... .. . ... : ... .. . ... : ... .. . Z2E ...
ROW 03 : ... .. 5 ... ... : ... .. 5 ... ... : ... .. . ... : ... .. . ... : ... .. . Z2D ...
ROW 04 : ... .. . ... ... : ... .. . ... ... : ... .. . ... : ... .. . ... : ... .. . Z2C ...
ROW 05 : ... .. 6 ... ... : ... .. 6 ... ... : ... .. . ... : ... .. . ... : ... .. . Z2B ...
ROW 06 : ... .. . ... ... : ... .. . ... ... : ... .. . ... : ... .. . ... : ... .. . Z2A ...
ROW 07 : ... .. . ... ... : ... .. . ... ... : ... .. . ... : ... .. . ... : ... .. . Z29 ...
ROW 08 : ... .. . ... ... : ... .. . ... ... : --- .. . ... : ... .. . ... : ... .. . Z28 ...
ROW 09 : ... .. 0 ... ... : ... .. 0 ... ... : ... .. . ... : ... .. . ... : ... .. . Z27 ...
ROW 0A : ... .. . ... ... : ... .. . ... ... : ... .. . ... : ... .. . ... : ... .. . Z26 ...
ROW 0B : ... .. . ... ... : ... .. . ... ... : ... .. . ... : ... .. . ... : ... .. . Z25 ...
ROW 0C : ... .. . ... ... : ... .. . ... ... : ... .. . ... : ... .. . ... : ... .. . Z24 ...
ROW 0D : ... .. . ... ... : ... .. . ... ... : ... .. . ... : ... .. . ... : ... .. . Z23 ...
ROW 0E : ... .. . ... ... : ... .. . ... ... : ... .. . ... : ... .. . ... : ... .. . Z22 ...
ROW 0F : ... .. . ... ... : ... .. . ... ... : ... .. . ... : ... .. . ... : ... .. . Z21 ...
ROW 10 : ... .. . ... ... : ... .. . ... ... : ... .. . ... : ... .. . ... : ... .. . Z20 ...
ROW 11 : ... .. . ... ... : ... .. . ... ... : ... .. . ... : ... .. . ... : ... .. . Z1F ...
ROW 12 : ... .. . ... ... : ... .. . ... ... : ... .. . ... : ... .. . ... : ... .. . Z1E ...
ROW 13 : ... .. . ... ... : ... .. . ... ... : ... .. . ... : ... .. . ... : ... .. . Z1D ...
ROW 14 : ... .. . ... ... : ... .. . ... ... : ... .. . ... : ... .. . ... : ... .. . Z1C ...
ROW 15 : ... .. . ... ... : ... .. . ... ... : ... .. . ... : ... .. . ... : ... .. . Z1B ...
ROW 16 : ... .. . ... ... : ... .. . ... ... : ... .. . ... : ... .. . ... : ... .. . Z1A ...
ROW 17 : ... .. . ... ... : ... .. . ... ... : ... .. . ... : ... .. . ... : ... .. . Z19 ...
ROW 18 : ... .. . ... ... : ... .. . ... ... : ... .. . ... : ... .. . ... : ... .. . Z18 ...
ROW 19 : ... .. . ... ... : ... .. . ... ... : ... .. . ... : ... .. . ... : ... .. . Z17 ...
ROW 1A : ... .. . ... ... : ... .. . ... ... : ... .. . ... : ... .. . ... : ... .. . Z16 ...
ROW 1B : C-3 00 5 P80 V00 : G-3 00 5 P80 V00 : E-3 00 . P7D : ... .. . ... : ... .. . Z15 ...
ROW 1C : ... .. 3 ... V02 : ... .. 3 ... V02 : ... .. . ... : ... .. . ... : ... .. . Z14 ...
ROW 1D : ... .. 4 ... ... : ... .. 4 ... ... : ... .. . ... : ... .. . ... : ... .. . Z13 ...
ROW 1E : ... .. 5 ... ... : ... .. 5 ... ... : ... .. . ... : ... .. . ... : ... .. . Z12 ...
ROW 1F : ... .. . ... ... : ... .. . ... ... : ... .. . ... : ... .. . ... : ... .. . Z11 ...
ROW 20 : ... .. 6 ... ... : ... .. 6 ... ... : ... .. . ... : ... .. . ... : ... .. . Z10 ...
ROW 21 : ... .. . ... ... : ... .. . ... ... : ... .. . ... : ... .. . ... : ... .. . Z0F ...
ROW 22 : ... .. . ... ... : ... .. . ... ... : ... .. . ... : ... .. . ... : ... .. . Z0E ...
ROW 23 : ... .. . ... ... : ... .. . ... ... : --- .. . ... : ... .. . ... : ... .. . Z0D ...
ROW 24 : ... .. 0 ... ... : ... .. 0 ... ... : ... .. . ... : ... .. . ... : ... .. . Z0C ...
ROW 25 : ... .. . ... ... : ... .. . ... ... : ... .. . ... : ... .. . ... : ... .. . Z0B ...
ROW 26 : ... .. . ... ... : ... .. . ... ... : ... .. . ... : ... .. . ... : ... .. . Z0A ...
ROW 27 : ... .. . ... ... : ... .. . ... ... : ... .. . ... : ... .. . ... : ... .. . Z09 ...
ROW 28 : ... .. . ... ... : ... .. . ... ... : ... .. . ... : ... .. . ... : ... .. . Z08 ...
ROW 29 : ... .. . ... ... : ... .. . ... ... : ... .. . ... : ... .. . ... : ... .. . Z07 ...
ROW 2A : ... .. . ... ... : ... .. . ... ... : ... .. . ... : ... .. . ... : ... .. . Z06 ...
ROW 2B : ... .. . ... ... : ... .. . ... ... : ... .. . ... : ... .. . ... : ... .. . Z05 ...
ROW 2C : ... .. . ... ... : ... .. . ... ... : ... .. . ... : ... .. . ... : ... .. . Z04 ...
ROW 2D : ... .. . ... ... : ... .. . ... ... : ... .. . ... : ... .. . ... : ... .. . Z03 ...
ROW 2E : ... .. . ... ... : ... .. . ... ... : ... .. . ... : ... .. . ... : ... .. . Z02 ...
ROW 2F : ... .. . ... ... : ... .. . ... ... : ... .. . ... : ... .. . ... : ... .. . Z01 ...
ROW 30 : ... .. . ... ... : ... .. . ... ... : ... .. . ... : ... .. . ... : ... .. . Z00 ...
ROW 31 : ... .. . ... ... : ... .. . ... ... : ... .. . ... : ... .. . ... : ... .. . Z00 ...
ROW 32 : ... .. . ... ... : ... .. . ... ... : ... .. . ... : ... .. . ... : ... .. . Z00 ...
ROW 33 : ... .. . ... ... : ... .. . ... ... : ... .. . ... : ... .. . ... : ... .. . Z00 ...
ROW 34 : ... .. . ... ... : ... .. . ... ... : ... .. . ... : ... .. . ... : ... .. . Z00 ...
ROW 35 : ... .. . ... ... : ... .. . ... ... : ... .. . ... : ... .. . ... : ... .. . Z00 ...
ROW 36 : G-2 00 5 P81 V00 : E-3 00 5 P7D V00 : C-3 00 . P80 : ... .. . ... : ... .. . Z00 ...
ROW 37 : ... .. 3 ... V02 : ... .. 3 ... V02 : ... .. . ... : ... .. . ... : ... .. . Z00 ...
ROW 38 : ... .. 4 ... ... : ... .. 4 ... ... : ... .. . ... : ... .. . ... : ... .. . Z00 ...
ROW 39 : ... .. 5 ... ... : ... .. 5 ... ... : ... .. . ... : ... .. . ... : ... .. . Z00 ...
ROW 3A : ... .. . ... ... : ... .. . ... ... : ... .. . ... : ... .. . ... : ... .. . Z00 ...
ROW 3B : ... .. 6 ... ... : ... .. 6 ... ... : ... .. . ... : ... .. . ... : ... .. . Z00 ...
ROW 3C : ... .. . ... ... : ... .. . ... ... : ... .. . ... : ... .. . ... : ... .. . Z00 ...
ROW 3D : ... .. . ... ... : ... .. . ... ... : ... .. . ... : ... .. . ... : ... .. . Z00 ...
ROW 3E : ... .. . ... ... : ... .. . ... ... : ... .. . ... : ... .. . ... : ... .. . Z00 ...
ROW 3F : ... .. . ... ... : ... .. . ... ... : ... .. . ... : ... .. . ... : ... .. . Z00 ...
ROW 40 : ... .. . ... ... : ... .. . ... ... : ... .. . ... : ... .. . ... : ... .. . Z00 ...
ROW 41 : ... .. . ... ... : ... .. . ... ... : ... .. . ... : ... .. . ... : ... .. . Z00 ...
ROW 42 : ... .. . ... ... : ... .. . ... ... : ... .. . ... : ... .. . ... : ... .. . Z00 ...
ROW 43 : ... .. . ... ... : ... .. . ... ... : ... .. . ... : ... .. . ... : ... .. . Z00 ...
ROW 44 : ... .. . ... ... : ... .. . ... ... : ... .. . ... : ... .. . ... : ... .. . Z00 ...
ROW 45 : ... .. . ... ... : ... .. . ... ... : ... .. . ... : ... .. . ... : ... .. . Z00 ...
ROW 46 : ... .. . ... ... : ... .. . ... ... : ... .. . ... : ... .. . ... : ... .. . Z00 ...
ROW 47 : ... .. . ... ... : ... .. . ... ... : ... .. . ... : ... .. . ... : ... .. . Z00 ...
ROW 48 : F-3 00 5 P80 V00 : A-3 00 5 P7E V00 : F-3 00 . P80 : ... .. . ... : ... .. . Z00 ...
ROW 49 : ... .. 3 ... V02 : ... .. 3 ... V02 : ... .. . ... : ... .. . ... : ... .. . Z00 ...
ROW 4A : ... .. 4 ... ... : ... .. 4 ... ... : ... .. . ... : ... .. . ... : ... .. . Z00 ...
ROW 4B : ... .. 5 ... ... : ... .. 5 ... ... : ... .. . ... : ... .. . ... : ... .. . Z00 ...
ROW 4C : ... .. . ... ... : ... .. . ... ... : ... .. . ... : ... .. . ... : ... .. . Z00 ...
ROW 4D : ... .. 6 ... ... : ... .. 6 ... ... : ... .. . ... : ... .. . ... : ... .. . Z00 ...
ROW 4E : ... .. . ... ... : ... .. . ... ... : ... .. . ... : ... .. . ... : ... .. . Z00 ...
ROW 4F : ... .. . ... ... : ... .. . ... ... : ... .. . ... : ... .. . ... : ... .. . Z00 ...
ROW 50 : ... .. . ... ... : ... .. . ... ... : ... .. . ... : ... .. . ... : ... .. . Z00 ...
ROW 51 : ... .. . ... ... : ... .. . ... ... : ... .. . ... : ... .. . ... : ... .. . Z00 ...
ROW 52 : ... .. . ... ... : ... .. . ... ... : ... .. . ... : ... .. . ... : ... .. . Z00 ...
ROW 53 : ... .. . ... ... : ... .. . ... ... : ... .. . ... : ... .. . ... : ... .. . Z00 ...
ROW 54 : ... .. . ... ... : B-3 00 5 P7E V00 : ... .. . ... : ... .. . ... : ... .. . Z00 ...
ROW 55 : ... .. . ... ... : ... .. 3 ... V02 : ... .. . ... : ... .. . ... : ... .. . Z00 ...
ROW 56 : ... .. . ... ... : ... .. 4 ... ... : ... .. . ... : ... .. . ... : ... .. . Z00 ...
ROW 57 : ... .. . ... ... : ... .. 5 ... ... : ... .. . ... : ... .. . ... : ... .. . Z00 ...
ROW 58 : ... .. . ... ... : ... .. . ... ... : ... .. . ... : ... .. . ... : ... .. . Z00 ...
ROW 59 : ... .. . ... ... : ... .. 6 ... ... : ... .. . ... : ... .. . ... : ... .. . Z00 ...
ROW 5A : ... .. . ... ... : ... .. . ... ... : ... .. . ... : ... .. . ... : ... .. . Z00 ...
ROW 5B : ... .. . ... ... : ... .. . ... ... : ... .. . ... : ... .. . ... : ... .. . Z00 ...
ROW 5C : ... .. . ... ... : ... .. . ... ... : ... .. . ... : ... .. . ... : ... .. . Z00 ...
ROW 5D : ... .. . ... ... : ... .. . ... ... : ... .. . ... : ... .. . ... : ... .. . Z00 ...
ROW 5E : ... .. 5 ... ... : ... .. . ... ... : ... .. . ... : ... .. . ... : ... .. . Z00 ...
ROW 5F : ... .. . ... ... : ... .. . ... ... : ... .. . ... : ... .. . ... : ... .. . Z00 ...
ROW 60 : ... .. . ... ... : A-3 00 5 P7E V00 : ... .. . ... : ... .. . ... : ... .. . Z00 ...
ROW 61 : ... .. . ... ... : ... .. 3 ... V02 : ... .. . ... : ... .. . ... : ... .. . Z00 ...
ROW 62 : ... .. . ... ... : ... .. 4 ... ... : ... .. . ... : ... .. . ... : ... .. . Z00 ...
ROW 63 : ... .. . ... ... : ... .. 5 ... ... : ... .. . ... : ... .. . ... : ... .. . Z00 ...
ROW 64 : ... .. 4 ... ... : ... .. . ... ... : ... .. . ... : ... .. . ... : ... .. . Z00 ...
ROW 65 : ... .. . ... ... : ... .. 6 ... ... : ... .. . ... : ... .. . ... : ... .. . Z00 ...
ROW 66 : ... .. . ... ... : ... .. . ... ... : ... .. . ... : ... .. . ... : ... .. . Z00 ...
ROW 67 : ... .. . ... ... : ... .. . ... ... : ... .. . ... : ... .. . ... : ... .. . Z00 ...
ROW 68 : ... .. . ... ... : ... .. . ... ... : ... .. . ... : ... .. . ... : ... .. . Z00 ...
ROW 69 : ... .. . ... ... : ... .. . ... ... : ... .. . ... : ... .. . ... : ... .. . Z00 ...
ROW 6A : ... .. 3 ... ... : ... .. . ... ... : ... .. . ... : ... .. . ... : ... .. . Z00 ...
ROW 6B : ... .. . ... ... : ... .. . ... ... : ... .. . ... : ... .. . ... : ... .. . Z00 ...
ROW 6C : ... .. 5 ... V00 : G#3 00 5 P82 V00 : C#3 00 . P83 : ... .. . ... : ... .. . Z00 ...
ROW 6D : ... .. 3 ... V02 : ... .. 3 ... V02 : ... .. . ... : ... .. . ... : ... .. . Z00 ...
ROW 6E : ... .. 4 ... ... : ... .. 4 ... ... : ... .. . ... : ... .. . ... : ... .. . Z00 ...
ROW 6F : ... .. 5 ... ... : ... .. 5 ... ... : ... .. . ... : ... .. . ... : ... .. . Z00 ...
ROW 70 : ... .. . ... ... : ... .. . ... ... : ... .. . ... : ... .. . ... : ... .. . Z00 ...
ROW 71 : ... .. 6 ... ... : ... .. 6 ... ... : ... .. . ... : ... .. . ... : ... .. . Z00 ...
ROW 72 : ... .. . ... ... : ... .. . ... ... : ... .. . ... : ... .. . ... : ... .. . Z00 ...
ROW 73 : ... .. . ... ... : ... .. . ... ... : ... .. . ... : ... .. . ... : ... .. . Z00 ...
ROW 74 : ... .. . ... ... : ... .. . ... ... : ... .. . ... : ... .. . ... : ... .. . Z00 ...
ROW 75 : ... .. . ... ... : ... .. . ... ... : ... .. . ... : ... .. . ... : ... .. . Z00 ...
ROW 76 : ... .. . ... ... : ... .. . ... ... : ... .. . ... : ... .. . ... : ... .. . Z00 ...
ROW 77 : ... .. . ... ... : ... .. . ... ... : ... .. . ... : ... .. . ... : ... .. . Z00 ...
ROW 78 : ... .. . ... ... : ... .. . ... ... : ... .. . ... : ... .. . ... : ... .. . Z00 ...
ROW 79 : ... .. . ... ... : ... .. . ... ... : ... .. . ... : ... .. . ... : ... .. . Z00 ...
ROW 7A : ... .. . ... ... : ... .. . ... ... : ... .. . ... : ... .. . ... : ... .. . Z00 ...
ROW 7B : ... .. . ... ... : ... .. . ... ... : ... .. . ... : ... .. . ... : ... .. . Z00 ...
ROW 7C : ... .. . ... ... : ... .. . ... ... : ... .. . ... : ... .. . ... : ... .. . Z00 ...
ROW 7D : ... .. . ... ... : ... .. . ... ... : ... .. . ... : ... .. . ... : ... .. . Z00 ...
ROW 7E : ... .. . ... ... : A#3 00 5 P7C V00 : ... .. . ... : ... .. . ... : ... .. . Z00 ...
ROW 7F : ... .. . ... ... : ... .. 3 ... V02 : ... .. . ... : ... .. . ... : ... .. . Z00 ...
ROW 80 : ... .. . ... ... : ... .. 4 ... ... : ... .. . ... : ... .. . ... : ... .. . Z00 ...
ROW 81 : ... .. . ... ... : ... .. 5 ... ... : ... .. . ... : ... .. . ... : ... .. . Z00 ...
ROW 82 : ... .. 5 ... ... : ... .. . ... ... : ... .. . ... : ... .. . ... : ... .. . Z00 ...
ROW 83 : ... .. . ... ... : ... .. 6 ... ... : ... .. . ... : ... .. . ... : ... .. . Z00 ...
ROW 84 : ... .. . ... ... : ... .. . ... ... : ... .. . ... : ... .. . ... : ... .. . Z00 ...
ROW 85 : ... .. . ... ... : ... .. . ... ... : ... .. . ... : ... .. . ... : ... .. . Z00 ...
ROW 86 : ... .. . ... ... : ... .. . ... ... : ... .. . ... : ... .. . ... : ... .. . Z00 ...
ROW 87 : ... .. . ... ... : ... .. . ... ... : ... .. . ... : ... .. . ... : ... .. . Z00 ...
ROW 88 : ... .. 4 ... ... : ... .. . ... ... : ... .. . ... : ... .. . ... : ... .. . Z00 ...
ROW 89 : ... .. . ... ... : ... .. . ... ... : ... .. . ... : ... .. . ... : ... .. . Z00 ...
ROW 8A : ... .. . ... ... : ... .. . ... ... : ... .. . ... : ... .. . ... : ... .. . Z00 ...
ROW 8B : ... .. . ... ... : ... .. . ... ... : ... .. . ... : ... .. . ... : ... .. . Z00 ...
ROW 8C : ... .. . ... ... : ... .. . ... ... : ... .. . ... : ... .. . ... : ... .. . Z00 ...
ROW 8D : ... .. . ... ... : ... .. . ... ... : ... .. . ... : ... .. . ... : ... .. . Z00 ...
ROW 8E : ... .. 3 ... ... : ... .. . ... ... : ... .. . ... : ... .. . ... : ... .. . Z00 ...
ROW 8F : ... .. . ... ... : ... .. . ... ... : ... .. . ... : ... .. . ... : ... .. . Z00 ...
ROW 90 : ... .. . ... ... : G#3 00 5 P82 V00 : ... .. . ... : ... .. . ... : ... .. . Z00 ...
ROW 91 : ... .. 2 ... ... : ... .. 3 ... V02 : ... .. . ... : ... .. . ... : ... .. . Z00 ...
ROW 92 : ... .. . ... ... : ... .. 4 ... ... : ... .. . ... : ... .. . ... : ... .. . Z00 ...
ROW 93 : ... .. 1 ... ... : ... .. 5 ... ... : ... .. . ... : ... .. . ... : ... .. . Z00 ...
ROW 94 : ... .. 0 ... ... : ... .. . ... ... : ... .. . ... : ... .. . ... : ... .. . Z00 ...
ROW 95 : ... .. . ... ... : ... .. 6 ... ... : ... .. . ... : ... .. . ... : ... .. . Z00 ...
ROW 96 : ... .. . ... ... : ... .. . ... ... : ... .. . ... : ... .. . ... : ... .. . Z00 ...
ROW 97 : ... .. . ... ... : ... .. . ... ... : ... .. . ... : ... .. . ... : ... .. . Z00 ...
ROW 98 : ... .. . ... ... : ... .. . ... ... : ... .. . ... : ... .. . ... : ... .. . Z00 ...
ROW 99 : ... .. . ... ... : ... .. . ... ... : ... .. . ... : ... .. . ... : ... .. . Z00 ...
ROW 9A : ... .. . ... ... : ... .. . ... ... : ... .. . ... : ... .. . ... : ... .. . Z00 ...
ROW 9B : ... .. . ... ... : ... .. . ... ... : ... .. . ... : ... .. . ... : ... .. . Z00 ...
ROW 9C : ... .. . ... ... : ... .. . ... ... : ... .. . ... : ... .. . ... : ... .. . Z00 ...
ROW 9D : ... .. . ... ... : ... .. . ... ... : ... .. . ... : ... .. . ... : ... .. . Z00 ...
ROW 9E : ... .. . ... ... : ... .. . ... ... : ... .. . ... : ... .. . ... : ... .. . Z00 ...
ROW 9F : ... .. . ... ... : ... .. . ... ... : ... .. . ... : ... .. . ... : ... .. . Z00 ...
ROW A0 : ... .. . ... ... : ... .. . ... ... : ... .. . ... : ... .. . ... : ... .. . Z00 ...
ROW A1 : ... .. . ... ... : ... .. . ... ... : ... .. . ... : ... .. . ... : ... .. . Z00 ...
ROW A2 : E-3 00 5 P7D V00 : G-3 00 5 P80 V00 : C-3 00 . P80 : ... .. . ... : ... .. . Z00 ...
ROW A3 : ... .. 3 ... V02 : ... .. 3 ... V02 : ... .. . ... : ... .. . ... : ... .. . Z00 ...
ROW A4 : ... .. 4 ... ... : ... .. 4 ... ... : ... .. . ... : ... .. . ... : ... .. . Z00 ...
ROW A5 : ... .. 5 ... ... : ... .. 5 ... ... : ... .. . ... : ... .. . ... : ... .. . Z00 ...
ROW A6 : ... .. . ... ... : ... .. . ... ... : ... .. . ... : ... .. . ... : ... .. . Z00 ...
ROW A7 : ... .. 6 ... ... : ... .. 6 ... ... : ... .. . ... : ... .. . ... : ... .. . Z00 ...
ROW A8 : ... .. . ... ... : ... .. . ... ... : ... .. . ... : ... .. . ... : ... .. . Z00 ...
ROW A9 : ... .. . ... ... : ... .. . ... ... : ... .. . ... : ... .. . ... : ... .. . Z00 ...
ROW AA : ... .. . ... ... : ... .. . ... ... : ... .. . ... : ... .. . ... : ... .. . Z00 ...
ROW AB : D-3 00 5 P81 V00 : ... .. . ... ... : ... .. . ... : ... .. . ... : ... .. . Z00 ...
ROW AC : ... .. 3 ... V02 : ... .. . ... ... : ... .. . ... : ... .. . ... : ... .. . Z00 ...
ROW AD : ... .. 4 ... ... : ... .. . ... ... : ... .. . ... : ... .. . ... : ... .. . Z00 ...
ROW AE : ... .. 5 ... ... : ... .. . ... ... : ... .. . ... : ... .. . ... : ... .. . Z00 ...
ROW AF : ... .. . ... ... : ... .. . ... ... : ... .. . ... : ... .. . ... : ... .. . Z00 ...
ROW B0 : ... .. 6 ... ... : ... .. . ... ... : ... .. . ... : ... .. . ... : ... .. . Z00 ...
ROW B1 : ... .. . ... ... : ... .. . ... ... : ... .. . ... : ... .. . ... : ... .. . Z00 ...
ROW B2 : ... .. . ... ... : ... .. . ... ... : ... .. . ... : ... .. . ... : ... .. . Z00 ...
ROW B3 : ... .. . ... ... : ... .. . ... ... : ... .. . ... : ... .. . ... : ... .. . Z00 ...
ROW B4 : E-3 00 5 P7D V00 : ... .. . ... ... : ... .. . ... : ... .. . ... : ... .. . Z00 ...
ROW B5 : ... .. 3 ... V02 : ... .. . ... ... : ... .. . ... : ... .. . ... : ... .. . Z00 ...
ROW B6 : ... .. 4 ... ... : ... .. . ... ... : ... .. . ... : ... .. . ... : ... .. . Z00 ...
ROW B7 : ... .. 5 ... ... : ... .. . ... ... : ... .. . ... : ... .. . ... : ... .. . Z00 ...
ROW B8 : ... .. . ... ... : ... .. 5 ... ... : ... .. . ... : ... .. . ... : ... .. . Z00 ...
ROW B9 : ... .. 6 ... ... : ... .. . ... ... : ... .. . ... : ... .. . ... : ... .. . Z00 ...
ROW BA : ... .. . ... ... : ... .. . ... ... : ... .. . ... : ... .. . ... : ... .. . Z00 ...
ROW BB : ... .. . ... ... : ... .. . ... ... : ... .. . ... : ... .. . ... : ... .. . Z00 ...
ROW BC : ... .. . ... ... : ... .. . ... ... : ... .. . ... : ... .. . ... : ... .. . Z00 ...
ROW BD : ... .. . ... ... : ... .. . ... ... : ... .. . ... : ... .. . ... : ... .. . Z00 ...
ROW BE : ... .. . ... ... : ... .. 4 ... ... : ... .. . ... : ... .. . ... : ... .. . Z00 ...
ROW BF : ... .. . ... ... : ... .. . ... ... : ... .. . ... : ... .. . ... : ... .. . Z00 ...
ROW C0 : ... .. . ... ... : ... .. . ... ... : ... .. . ... : ... .. . ... : ... .. . Z00 ...
ROW C1 : ... .. . ... ... : ... .. . ... ... : ... .. . ... : ... .. . ... : ... .. . Z00 ...
ROW C2 : ... .. . ... ... : ... .. . ... ... : ... .. . ... : ... .. . ... : ... .. . Z00 ...
ROW C3 : ... .. . ... ... : ... .. . ... ... : ... .. . ... : ... .. . ... : ... .. . Z00 ...
ROW C4 : ... .. . ... ... : ... .. 3 ... ... : ... .. . ... : ... .. . ... : ... .. . Z00 ...
ROW C5 : ... .. . ... ... : ... .. . ... ... : ... .. . ... : ... .. . ... : ... .. . Z00 ...
ROW C6 : ... .. . ... ... : ... .. . ... ... : ... .. . ... : ... .. . ... : ... .. . Z00 ...
ROW C7 : ... .. . ... ... : ... .. 2 ... ... : ... .. . ... : ... .. . ... : ... .. . Z00 ...
ROW C8 : ... .. . ... ... : ... .. . ... ... : ... .. . ... : ... .. . ... : ... .. . Z00 ...
ROW C9 : ... .. . ... ... : ... .. 1 ... ... : ... .. . ... : ... .. . ... : ... .. . Z00 ...
ROW CA : ... .. 5 ... ... : ... .. 0 ... ... : ... .. . ... : ... .. . ... : ... .. . Z00 ...
ROW CB : ... .. . ... ... : ... .. . ... ... : ... .. . ... : ... .. . ... : ... .. . Z00 ...
ROW CC : ... .. . ... ... : ... .. . ... ... : ... .. . ... : ... .. . ... : ... .. . Z00 ...
ROW CD : ... .. . ... ... : ... .. . ... ... : ... .. . ... : ... .. . ... : ... .. . Z00 ...
ROW CE : ... .. . ... ... : ... .. . ... ... : ... .. . ... : ... .. . ... : ... .. . Z00 ...
ROW CF : ... .. . ... ... : ... .. . ... ... : ... .. . ... : ... .. . ... : ... .. . Z00 ...
ROW D0 : ... .. 4 ... ... : ... .. . ... ... : ... .. . ... : ... .. . ... : ... .. . Z00 ...
ROW D1 : ... .. . ... ... : ... .. . ... ... : ... .. . ... : ... .. . ... : ... .. . Z00 ...
ROW D2 : ... .. . ... ... : ... .. . ... ... : ... .. . ... : ... .. . ... : ... .. . Z00 ...
ROW D3 : ... .. . ... ... : ... .. . ... ... : ... .. . ... : ... .. . ... : ... .. . Z00 ...
ROW D4 : ... .. . ... ... : ... .. . ... ... : ... .. . ... : ... .. . ... : ... .. . Z00 ...
ROW D5 : ... .. . ... ... : ... .. . ... ... : ... .. . ... : ... .. . ... : ... .. . Z00 ...
ROW D6 : ... .. 3 ... ... : ... .. . ... ... : ... .. . ... : ... .. . ... : ... .. . Z00 ...
ROW D7 : ... .. . ... ... : ... .. . ... ... : ... .. . ... : ... .. . ... : ... .. . Z00 ...
ROW D8 : ... .. 0 ... ... : ... .. . ... ... : --- .. . ... : ... .. . ... : ... .. . Z00 ...
ROW D9 : ... .. . ... ... : ... .. . ... ... : ... .. . ... : ... .. . ... : ... .. . Z00 ...
ROW DA : ... .. . ... ... : ... .. . ... ... : ... .. . ... : ... .. . ... : ... .. . Z00 ...
ROW DB : ... .. . ... ... : ... .. . ... ... : ... .. . ... : ... .. . ... : ... .. . Z00 ...
ROW DC : ... .. . ... ... : ... .. . ... ... : ... .. . ... : ... .. . ... : ... .. . Z00 ...
ROW DD : ... .. . ... ... : ... .. . ... ... : ... .. . ... : ... .. . ... : ... .. . Z00 ...
ROW DE : ... .. . ... ... : ... .. . ... ... : ... .. . ... : ... .. . ... : ... .. . Z00 ...
ROW DF : ... .. . ... ... : ... .. . ... ... : ... .. . ... : ... .. . ... : ... .. . Z00 ...
ROW E0 : ... .. . ... ... : ... .. . ... ... : ... .. . ... : ... .. . ... : ... .. . C00 ...
ROW E1 : ... .. . ... ... : ... .. . ... ... : ... .. . ... : ... .. . ... : ... .. . Z00 ...
ROW E2 : ... .. . ... ... : ... .. . ... ... : ... .. . ... : ... .. . ... : ... .. . Z00 ...
ROW E3 : ... .. . ... ... : ... .. . ... ... : ... .. . ... : ... .. . ... : ... .. . Z00 ...
ROW E4 : ... .. . ... ... : ... .. . ... ... : ... .. . ... : ... .. . ... : ... .. . Z00 ...
ROW E5 : ... .. . ... ... : ... .. . ... ... : ... .. . ... : ... .. . ... : ... .. . Z00 ...
ROW E6 : ... .. . ... ... : ... .. . ... ... : ... .. . ... : ... .. . ... : ... .. . Z00 ...
ROW E7 : ... .. . ... ... : ... .. . ... ... : ... .. . ... : ... .. . ... : ... .. . Z00 ...
ROW E8 : ... .. . ... ... : ... .. . ... ... : ... .. . ... : ... .. . ... : ... .. . Z00 ...
ROW E9 : ... .. . ... ... : ... .. . ... ... : ... .. . ... : ... .. . ... : ... .. . Z00 ...
ROW EA : ... .. . ... ... : ... .. . ... ... : ... .. . ... : ... .. . ... : ... .. . Z00 ...
ROW EB : ... .. . ... ... : ... .. . ... ... : ... .. . ... : ... .. . ... : ... .. . Z00 ...
ROW EC : ... .. . ... ... : ... .. . ... ... : ... .. . ... : ... .. . ... : ... .. . Z00 ...
ROW ED : ... .. . ... ... : ... .. . ... ... : ... .. . ... : ... .. . ... : ... .. . Z00 ...
ROW EE : ... .. . ... ... : ... .. . ... ... : ... .. . ... : ... .. . ... : ... .. . Z00 ...
ROW EF : ... .. . ... ... : ... .. . ... ... : ... .. . ... : ... .. . ... : ... .. . ... ...
ROW F0 : ... .. . ... ... : ... .. . ... ... : ... .. . ... : ... .. . ... : ... .. . ... ...
ROW F1 : ... .. . ... ... : ... .. . ... ... : ... .. . ... : ... .. . ... : ... .. . ... ...
ROW F2 : ... .. . ... ... : ... .. . ... ... : ... .. . ... : ... .. . ... : ... .. . ... ...
ROW F3 : ... .. . ... ... : ... .. . ... ... : ... .. . ... : ... .. . ... : ... .. . ... ...
ROW F4 : ... .. . ... ... : ... .. . ... ... : ... .. . ... : ... .. . ... : ... .. . ... ...
ROW F5 : ... .. . ... ... : ... .. . ... ... : ... .. . ... : ... .. . ... : ... .. . ... ...
ROW F6 : ... .. . ... ... : ... .. . ... ... : ... .. . ... : ... .. . ... : ... .. . ... ...
ROW F7 : ... .. . ... ... : ... .. . ... ... : ... .. . ... : ... .. . ... : ... .. . ... ...
ROW F8 : ... .. . ... ... : ... .. . ... ... : ... .. . ... : ... .. . ... : ... .. . ... ...
ROW F9 : ... .. . ... ... : ... .. . ... ... : ... .. . ... : ... .. . ... : ... .. . ... ...
ROW FA : ... .. . ... ... : ... .. . ... ... : ... .. . ... : ... .. . ... : ... .. . ... ...
ROW FB : ... .. . ... ... : ... .. . ... ... : ... .. . ... : ... .. . ... : ... .. . ... ...
ROW FC : ... .. . ... ... : ... .. . ... ... : ... .. . ... : ... .. . ... : ... .. . ... ...
ROW FD : ... .. . ... ... : ... .. . ... ... : ... .. . ... : ... .. . ... : ... .. . ... ...
ROW FE : ... .. . ... ... : ... .. . ... ... : ... .. . ... : ... .. . ... : ... .. . ... ...
ROW FF : ... .. . ... ... : ... .. . ... ... : ... .. . ... : ... .. . ... : ... .. . ... ...

TRACK 256   1 150 "Finalworld2"
COLUMNS : 2 2 1 1 2

ORDER 00 : 00 00 00 00 00

PATTERN 00
ROW 00 : E-3 00 E P7D V02 : C-4 00 E P80 V02 : G-3 00 . P80 : F-# 00 0 V00 : --- .. . Z30 ...
ROW 01 : ... .. C ... ... : ... .. C ... ... : ... .. . ... : ... .. . ... : ... .. . Z2F ...
ROW 02 : ... .. B ... ... : ... .. B ... ... : ... .. . ... : ... .. . ... : ... .. . Z2E ...
ROW 03 : ... .. A ... ... : ... .. A ... ... : ... .. . ... : ... .. . ... : ... .. . Z2D ...
ROW 04 : ... .. 8 ... ... : ... .. 8 ... ... : ... .. . ... : ... .. . ... : ... .. . Z2C ...
ROW 05 : ... .. 7 ... ... : ... .. 7 ... ... : ... .. . ... : ... .. . ... : ... .. . Z2B ...
ROW 06 : ... .. 6 ... ... : ... .. 6 ... ... : ... .. . ... : ... .. . ... : ... .. . Z2A ...
ROW 07 : ... .. 4 ... ... : ... .. 4 ... ... : ... .. . ... : ... .. . ... : ... .. . Z29 ...
ROW 08 : ... .. 3 ... ... : ... .. 3 ... ... : --- .. . ... : ... .. . ... : ... .. . Z28 ...
ROW 09 : ... .. 0 ... V00 : ... .. 2 ... V00 : ... .. . ... : ... .. . ... : ... .. . Z27 ...
ROW 0A : ... .. . ... ... : ... .. 1 ... ... : ... .. . ... : ... .. . ... : ... .. . Z26 ...
ROW 0B : ... .. . ... ... : ... .. 0 ... ... : ... .. . ... : ... .. . ... : ... .. . Z25 ...
ROW 0C : ... .. . ... ... : ... .. . ... ... : ... .. . ... : ... .. . ... : ... .. . Z24 ...
ROW 0D : ... .. . ... ... : ... .. . ... ... : ... .. . ... : ... .. . ... : ... .. . Z23 ...
ROW 0E : ... .. . ... ... : ... .. . ... ... : ... .. . ... : ... .. . ... : ... .. . Z22 ...
ROW 0F : ... .. . ... ... : ... .. . ... ... : ... .. . ... : ... .. . ... : ... .. . Z21 ...
ROW 10 : ... .. . ... ... : ... .. . ... ... : ... .. . ... : ... .. . ... : ... .. . Z20 ...
ROW 11 : ... .. . ... ... : ... .. . ... ... : ... .. . ... : ... .. . ... : ... .. . Z1F ...
ROW 12 : ... .. . ... ... : ... .. . ... ... : ... .. . ... : ... .. . ... : ... .. . Z1E ...
ROW 13 : ... .. . ... ... : ... .. . ... ... : ... .. . ... : ... .. . ... : ... .. . Z1D ...
ROW 14 : ... .. . ... ... : ... .. . ... ... : ... .. . ... : ... .. . ... : ... .. . Z1C ...
ROW 15 : ... .. . ... ... : ... .. . ... ... : ... .. . ... : ... .. . ... : ... .. . Z1B ...
ROW 16 : ... .. . ... ... : ... .. . ... ... : ... .. . ... : ... .. . ... : ... .. . Z1A ...
ROW 17 : ... .. . ... ... : ... .. . ... ... : ... .. . ... : ... .. . ... : ... .. . Z19 ...
ROW 18 : ... .. . ... ... : ... .. . ... ... : ... .. . ... : ... .. . ... : ... .. . Z18 ...
ROW 19 : ... .. . ... ... : ... .. . ... ... : ... .. . ... : ... .. . ... : ... .. . Z17 ...
ROW 1A : ... .. . ... ... : ... .. . ... ... : ... .. . ... : ... .. . ... : ... .. . Z16 ...
ROW 1B : C-3 00 E P80 V02 : G-3 00 0 P80 V02 : E-3 00 . P7D : ... .. . ... : ... .. . Z15 ...
ROW 1C : ... .. C ... ... : ... .. D ... ... : ... .. . ... : ... .. . ... : ... .. . Z14 ...
ROW 1D : ... .. B ... ... : ... .. C ... ... : ... .. . ... : ... .. . ... : ... .. . Z13 ...
ROW 1E : ... .. A ... ... : ... .. B ... ... : ... .. . ... : ... .. . ... : ... .. . Z12 ...
ROW 1F : ... .. 8 ... ... : ... .. 9 ... ... : ... .. . ... : ... .. . ... : ... .. . Z11 ...
ROW 20 : ... .. 7 ... ... : ... .. 8 ... ... : ... .. . ... : ... .. . ... : ... .. . Z10 ...
ROW 21 : ... .. 6 ... ... : ... .. 7 ... ... : ... .. . ... : ... .. . ... : ... .. . Z0F ...
ROW 22 : ... .. 4 ... ... : ... .. 5 ... ... : ... .. . ... : ... .. . ... : ... .. . Z0E ...
ROW 23 : ... .. 3 ... ... : ... .. 4 ... ... : --- .. . ... : ... .. . ... : ... .. . Z0D ...
ROW 24 : ... .. 0 ... V00 : ... .. 3 ... V00 : ... .. . ... : ... .. . ... : ... .. . Z0C ...
ROW 25 : ... .. . ... ... : ... .. 2 ... ... : ... .. . ... : ... .. . ... : ... .. . Z0B ...
ROW 26 : ... .. . ... ... : ... .. 1 ... ... : ... .. . ... : ... .. . ... : ... .. . Z0A ...
ROW 27 : ... .. . ... ... : ... .. . ... ... : ... .. . ... : ... .. . ... : ... .. . Z09 ...
ROW 28 : ... .. . ... ... : ... .. 0 ... ... : ... .. . ... : ... .. . ... : ... .. . Z08 ...
ROW 29 : ... .. . ... ... : ... .. . ... ... : ... .. . ... : ... .. . ... : ... .. . Z07 ...
ROW 2A : ... .. . ... ... : ... .. . ... ... : ... .. . ... : ... .. . ... : ... .. . Z06 ...
ROW 2B : ... .. . ... ... : ... .. . ... ... : ... .. . ... : ... .. . ... : ... .. . Z05 ...
ROW 2C : ... .. . ... ... : ... .. . ... ... : ... .. . ... : ... .. . ... : ... .. . Z04 ...
ROW 2D : ... .. . ... ... : ... .. . ... ... : ... .. . ... : ... .. . ... : ... .. . Z03 ...
ROW 2E : ... .. . ... ... : ... .. . ... ... : ... .. . ... : ... .. . ... : ... .. . Z02 ...
ROW 2F : ... .. . ... ... : ... .. . ... ... : ... .. . ... : ... .. . ... : ... .. . Z01 ...
ROW 30 : ... .. . ... ... : ... .. . ... ... : ... .. . ... : ... .. . ... : ... .. . Z00 ...
ROW 31 : ... .. . ... ... : ... .. . ... ... : ... .. . ... : ... .. . ... : ... .. . Z00 ...
ROW 32 : ... .. . ... ... : ... .. . ... ... : ... .. . ... : ... .. . ... : ... .. . Z00 ...
ROW 33 : ... .. . ... ... : ... .. . ... ... : ... .. . ... : ... .. . ... : ... .. . Z00 ...
ROW 34 : ... .. . ... ... : ... .. . ... ... : ... .. . ... : ... .. . ... : ... .. . Z00 ...
ROW 35 : ... .. . ... ... : ... .. . ... ... : ... .. . ... : ... .. . ... : ... .. . Z00 ...
ROW 36 : G-2 00 E P81 V02 : E-3 00 0 P7D V02 : C-3 00 . P80 : ... .. . ... : ... .. . Z00 ...
ROW 37 : ... .. C ... ... : ... .. D ... ... : ... .. . ... : ... .. . ... : ... .. . Z00 ...
ROW 38 : ... .. B ... ... : ... .. C ... ... : ... .. . ... : ... .. . ... : ... .. . Z00 ...
ROW 39 : ... .. A ... ... : ... .. B ... ... : ... .. . ... : ... .. . ... : ... .. . Z00 ...
ROW 3A : ... .. 8 ... ... : ... .. 9 ... ... : ... .. . ... : ... .. . ... : ... .. . Z00 ...
ROW 3B : ... .. 7 ... ... : ... .. 8 ... ... : ... .. . ... : ... .. . ... : ... .. . Z00 ...
ROW 3C : ... .. 6 ... ... : ... .. 7 ... ... : ... .. . ... : ... .. . ... : ... .. . Z00 ...
ROW 3D : ... .. 4 ... ... : ... .. 5 ... ... : ... .. . ... : ... .. . ... : ... .. . Z00 ...
ROW 3E : ... .. 3 ... ... : ... .. 4 ... ... : --- .. . ... : ... .. . ... : ... .. . Z00 ...
ROW 3F : ... .. 2 ... ... : ... .. 3 ... ... : ... .. . ... : ... .. . ... : ... .. . Z00 ...
ROW 40 : ... .. 0 ... ... : ... .. 1 ... ... : ... .. . ... : ... .. . ... : ... .. . Z00 ...
ROW 41 : ... .. . ... ... : ... .. 0 ... ... : ... .. . ... : ... .. . ... : ... .. . Z00 ...
ROW 42 : ... .. . ... ... : ... .. . ... ... : ... .. . ... : ... .. . ... : ... .. . Z00 ...
ROW 43 : ... .. . ... ... : ... .. . ... ... : ... .. . ... : ... .. . ... : ... .. . Z00 ...
ROW 44 : ... .. . ... ... : ... .. . ... ... : ... .. . ... : ... .. . ... : ... .. . Z00 ...
ROW 45 : ... .. . ... ... : ... .. . ... ... : ... .. . ... : ... .. . ... : ... .. . Z00 ...
ROW 46 : ... .. . ... ... : ... .. . ... ... : ... .. . ... : ... .. . ... : ... .. . Z00 ...
ROW 47 : ... .. . ... ... : ... .. . ... ... : ... .. . ... : ... .. . ... : ... .. . Z00 ...
ROW 48 : F-3 00 E P80 ... : A-3 00 E P7E ... : F-3 00 . P80 : ... .. . ... : ... .. . Z00 ...
ROW 49 : ... .. C ... ... : ... .. C ... ... : ... .. . ... : ... .. . ... : ... .. . Z00 ...
ROW 4A : ... .. B ... ... : ... .. B ... ... : ... .. . ... : ... .. . ... : ... .. . Z00 ...
ROW 4B : ... .. A ... ... : ... .. A ... ... : ... .. . ... : ... .. . ... : ... .. . Z00 ...
ROW 4C : ... .. 8 ... ... : ... .. 8 ... ... : ... .. . ... : ... .. . ... : ... .. . Z00 ...
ROW 4D : ... .. 7 ... ... : ... .. 7 ... ... : ... .. . ... : ... .. . ... : ... .. . Z00 ...
ROW 4E : ... .. 6 ... ... : ... .. 6 ... ... : ... .. . ... : ... .. . ... : ... .. . Z00 ...
ROW 4F : ... .. 4 ... ... : ... .. 4 ... ... : ... .. . ... : ... .. . ... : ... .. . Z00 ...
ROW 50 : ... .. 3 ... ... : ... .. 3 ... ... : --- .. . ... : ... .. . ... : ... .. . Z00 ...
ROW 51 : ... .. 2 ... ... : ... .. 2 ... ... : ... .. . ... : ... .. . ... : ... .. . Z00 ...
ROW 52 : ... .. 0 ... ... : ... .. 0 ... ... : ... .. . ... : ... .. . ... : ... .. . Z00 ...
ROW 53 : ... .. . ... ... : ... .. . ... ... : ... .. . ... : ... .. . ... : ... .. . Z00 ...
ROW 54 : ... .. . ... ... : B-3 00 E P7E ... : ... .. . ... : ... .. . ... : ... .. . Z00 ...
ROW 55 : ... .. . ... ... : ... .. C ... ... : ... .. . ... : ... .. . ... : ... .. . Z00 ...
ROW 56 : ... .. . ... ... : ... .. B ... ... : ... .. . ... : ... .. . ... : ... .. . Z00 ...
ROW 57 : ... .. . ... ... : ... .. A ... ... : ... .. . ... : ... .. . ... : ... .. . Z00 ...
ROW 58 : ... .. . ... ... : ... .. 8 ... ... : ... .. . ... : ... .. . ... : ... .. . Z00 ...
ROW 59 : ... .. . ... ... : ... .. 7 ... ... : ... .. . ... : ... .. . ... : ... .. . Z00 ...
ROW 5A : ... .. . ... ... : ... .. 6 ... ... : ... .. . ... : ... .. . ... : ... .. . Z00 ...
ROW 5B : ... .. . ... ... : ... .. 4 ... ... : ... .. . ... : ... .. . ... : ... .. . Z00 ...
ROW 5C : ... .. . ... ... : ... .. 3 ... ... : ... .. . ... : ... .. . ... : ... .. . Z00 ...
ROW 5D : ... .. . ... ... : ... .. 2 ... ... : ... .. . ... : ... .. . ... : ... .. . Z00 ...
ROW 5E : ... .. . ... ... : ... .. 0 ... ... : ... .. . ... : ... .. . ... : ... .. . Z00 ...
ROW 5F : ... .. . ... ... : ... .. . ... ... : ... .. . ... : ... .. . ... : ... .. . Z00 ...
ROW 60 : ... .. . ... ... : A-3 00 E P7E ... : ... .. . ... : ... .. . ... : ... .. . Z00 ...
ROW 61 : ... .. . ... ... : ... .. C ... ... : ... .. . ... : ... .. . ... : ... .. . Z00 ...
ROW 62 : ... .. . ... ... : ... .. B ... ... : ... .. . ... : ... .. . ... : ... .. . Z00 ...
ROW 63 : ... .. . ... ... : ... .. A ... ... : ... .. . ... : ... .. . ... : ... .. . Z00 ...
ROW 64 : ... .. . ... ... : ... .. 8 ... ... : ... .. . ... : ... .. . ... : ... .. . Z00 ...
ROW 65 : ... .. . ... ... : ... .. 7 ... ... : ... .. . ... : ... .. . ... : ... .. . Z00 ...
ROW 66 : ... .. . ... ... : ... .. 6 ... ... : ... .. . ... : ... .. . ... : ... .. . Z00 ...
ROW 67 : ... .. . ... ... : ... .. 4 ... ... : ... .. . ... : ... .. . ... : ... .. . Z00 ...
ROW 68 : ... .. . ... ... : ... .. 3 ... ... : ... .. . ... : ... .. . ... : ... .. . Z00 ...
ROW 69 : ... .. . ... ... : ... .. 2 ... ... : ... .. . ... : ... .. . ... : ... .. . Z00 ...
ROW 6A : ... .. . ... ... : ... .. 0 ... ... : ... .. . ... : ... .. . ... : ... .. . Z00 ...
ROW 6B : ... .. . ... ... : ... .. . ... ... : ... .. . ... : ... .. . ... : ... .. . Z00 ...
ROW 6C : ... .. E ... ... : G#3 00 E P82 ... : C#3 00 . P83 : ... .. . ... : ... .. . Z00 ...
ROW 6D : ... .. C ... ... : ... .. C ... ... : ... .. . ... : ... .. . ... : ... .. . Z00 ...
ROW 6E : ... .. B ... ... : ... .. B ... ... : ... .. . ... : ... .. . ... : ... .. . Z00 ...
ROW 6F : ... .. A ... ... : ... .. A ... ... : ... .. . ... : ... .. . ... : ... .. . Z00 ...
ROW 70 : ... .. 8 ... ... : ... .. 8 ... ... : ... .. . ... : ... .. . ... : ... .. . Z00 ...
ROW 71 : ... .. 7 ... ... : ... .. 7 ... ... : ... .. . ... : ... .. . ... : ... .. . Z00 ...
ROW 72 : ... .. 6 ... ... : ... .. 6 ... ... : ... .. . ... : ... .. . ... : ... .. . Z00 ...
ROW 73 : ... .. 4 ... ... : ... .. 4 ... ... : ... .. . ... : ... .. . ... : ... .. . Z00 ...
ROW 74 : ... .. 3 ... ... : ... .. 3 ... ... : --- .. . ... : ... .. . ... : ... .. . Z00 ...
ROW 75 : ... .. 2 ... ... : ... .. 2 ... ... : ... .. . ... : ... .. . ... : ... .. . Z00 ...
ROW 76 : ... .. 0 ... ... : ... .. 0 ... ... : ... .. . ... : ... .. . ... : ... .. . Z00 ...
ROW 77 : ... .. . ... ... : ... .. . ... ... : ... .. . ... : ... .. . ... : ... .. . Z00 ...
ROW 78 : ... .. . ... ... : ... .. . ... ... : ... .. . ... : ... .. . ... : ... .. . Z00 ...
ROW 79 : ... .. . ... ... : ... .. . ... ... : ... .. . ... : ... .. . ... : ... .. . Z00 ...
ROW 7A : ... .. . ... ... : ... .. . ... ... : ... .. . ... : ... .. . ... : ... .. . Z00 ...
ROW 7B : ... .. . ... ... : ... .. . ... ... : ... .. . ... : ... .. . ... : ... .. . Z00 ...
ROW 7C : ... .. . ... ... : ... .. . ... ... : ... .. . ... : ... .. . ... : ... .. . Z00 ...
ROW 7D : ... .. . ... ... : ... .. . ... ... : ... .. . ... : ... .. . ... : ... .. . Z00 ...
ROW 7E : ... .. . ... ... : A#3 00 E P7C ... : ... .. . ... : ... .. . ... : ... .. . Z00 ...
ROW 7F : ... .. . ... ... : ... .. C ... ... : ... .. . ... : ... .. . ... : ... .. . Z00 ...
ROW 80 : ... .. . ... ... : ... .. B ... ... : ... .. . ... : ... .. . ... : ... .. . Z00 ...
ROW 81 : ... .. . ... ... : ... .. A ... ... : ... .. . ... : ... .. . ... : ... .. . Z00 ...
ROW 82 : ... .. . ... ... : ... .. 8 ... ... : ... .. . ... : ... .. . ... : ... .. . Z00 ...
ROW 83 : ... .. . ... ... : ... .. 7 ... ... : ... .. . ... : ... .. . ... : ... .. . Z00 ...
ROW 84 : ... .. . ... ... : ... .. 6 ... ... : ... .. . ... : ... .. . ... : ... .. . Z00 ...
ROW 85 : ... .. . ... ... : ... .. 4 ... ... : ... .. . ... : ... .. . ... : ... .. . Z00 ...
ROW 86 : ... .. . ... ... : ... .. 3 ... ... : ... .. . ... : ... .. . ... : ... .. . Z00 ...
ROW 87 : ... .. . ... ... : ... .. 2 ... ... : ... .. . ... : ... .. . ... : ... .. . Z00 ...
ROW 88 : ... .. . ... ... : ... .. 0 ... ... : ... .. . ... : ... .. . ... : ... .. . Z00 ...
ROW 89 : ... .. . ... ... : ... .. . ... ... : ... .. . ... : ... .. . ... : ... .. . Z00 ...
ROW 8A : ... .. . ... ... : ... .. . ... ... : ... .. . ... : ... .. . ... : ... .. . Z00 ...
ROW 8B : ... .. . ... ... : ... .. . ... ... : ... .. . ... : ... .. . ... : ... .. . Z00 ...
ROW 8C : ... .. . ... ... : ... .. . ... ... : ... .. . ... : ... .. . ... : ... .. . Z00 ...
ROW 8D : ... .. . ... ... : ... .. . ... ... : ... .. . ... : ... .. . ... : ... .. . Z00 ...
ROW 8E : ... .. . ... ... : ... .. . ... ... : ... .. . ... : ... .. . ... : ... .. . Z00 ...
ROW 8F : ... .. . ... ... : ... .. . ... ... : ... .. . ... : ... .. . ... : ... .. . Z00 ...
ROW 90 : ... .. . ... ... : G#3 00 E P82 ... : ... .. . ... : ... .. . ... : ... .. . Z00 ...
ROW 91 : ... .. . ... ... : ... .. C ... ... : ... .. . ... : ... .. . ... : ... .. . Z00 ...
ROW 92 : ... .. . ... ... : ... .. B ... ... : ... .. . ... : ... .. . ... : ... .. . Z00 ...
ROW 93 : ... .. . ... ... : ... .. A ... ... : ... .. . ... : ... .. . ... : ... .. . Z00 ...
ROW 94 : ... .. . ... ... : ... .. 8 ... ... : ... .. . ... : ... .. . ... : ... .. . Z00 ...
ROW 95 : ... .. . ... ... : ... .. 7 ... ... : ... .. . ... : ... .. . ... : ... .. . Z00 ...
ROW 96 : ... .. . ... ... : ... .. 6 ... ... : ... .. . ... : ... .. . ... : ... .. . Z00 ...
ROW 97 : ... .. . ... ... : ... .. 4 ... ... : ... .. . ... : ... .. . ... : ... .. . Z00 ...
ROW 98 : ... .. . ... ... : ... .. 3 ... ... : ... .. . ... : ... .. . ... : ... .. . Z00 ...
ROW 99 : ... .. . ... ... : ... .. 2 ... ... : ... .. . ... : ... .. . ... : ... .. . Z00 ...
ROW 9A : ... .. . ... ... : ... .. 0 ... ... : ... .. . ... : ... .. . ... : ... .. . Z00 ...
ROW 9B : ... .. . ... ... : ... .. . ... ... : ... .. . ... : ... .. . ... : ... .. . Z00 ...
ROW 9C : ... .. . ... ... : ... .. . ... ... : ... .. . ... : ... .. . ... : ... .. . Z00 ...
ROW 9D : ... .. . ... ... : ... .. . ... ... : ... .. . ... : ... .. . ... : ... .. . Z00 ...
ROW 9E : ... .. . ... ... : ... .. . ... ... : ... .. . ... : ... .. . ... : ... .. . Z00 ...
ROW 9F : ... .. . ... ... : ... .. . ... ... : ... .. . ... : ... .. . ... : ... .. . Z00 ...
ROW A0 : ... .. . ... ... : ... .. . ... ... : ... .. . ... : ... .. . ... : ... .. . Z00 ...
ROW A1 : ... .. . ... ... : ... .. . ... ... : ... .. . ... : ... .. . ... : ... .. . Z00 ...
ROW A2 : E-3 00 E P7D ... : G-3 00 E P80 ... : C-3 00 . P80 : ... .. . ... : ... .. . Z00 ...
ROW A3 : ... .. C ... ... : ... .. C ... ... : ... .. . ... : ... .. . ... : ... .. . Z00 ...
ROW A4 : ... .. B ... ... : ... .. B ... ... : ... .. . ... : ... .. . ... : ... .. . Z00 ...
ROW A5 : ... .. A ... ... : ... .. A ... ... : ... .. . ... : ... .. . ... : ... .. . Z00 ...
ROW A6 : ... .. 8 ... ... : ... .. 8 ... ... : ... .. . ... : ... .. . ... : ... .. . Z00 ...
ROW A7 : ... .. 7 ... ... : ... .. 7 ... ... : ... .. . ... : ... .. . ... : ... .. . Z00 ...
ROW A8 : ... .. 6 ... ... : ... .. 6 ... ... : ... .. . ... : ... .. . ... : ... .. . Z00 ...
ROW A9 : ... .. 4 ... ... : ... .. 4 ... ... : ... .. . ... : ... .. . ... : ... .. . Z00 ...
ROW AA : ... .. 3 ... ... : ... .. 3 ... ... : --- .. . ... : ... .. . ... : ... .. . Z00 ...
ROW AB : D-3 00 E P81 ... : ... .. 2 ... ... : ... .. . ... : ... .. . ... : ... .. . Z00 ...
ROW AC : ... .. C ... ... : ... .. 0 ... ... : ... .. . ... : ... .. . ... : ... .. . Z00 ...
ROW AD : ... .. B ... ... : ... .. . ... ... : ... .. . ... : ... .. . ... : ... .. . Z00 ...
ROW AE : ... .. A ... ... : ... .. . ... ... : ... .. . ... : ... .. . ... : ... .. . Z00 ...
ROW AF : ... .. 8 ... ... : ... .. . ... ... : ... .. . ... : ... .. . ... : ... .. . Z00 ...
ROW B0 : ... .. 7 ... ... : ... .. . ... ... : ... .. . ... : ... .. . ... : ... .. . Z00 ...
ROW B1 : ... .. 6 ... ... : ... .. . ... ... : ... .. . ... : ... .. . ... : ... .. . Z00 ...
ROW B2 : ... .. 4 ... ... : ... .. . ... ... : ... .. . ... : ... .. . ... : ... .. . Z00 ...
ROW B3 : ... .. 3 ... ... : ... .. . ... ... : ... .. . ... : ... .. . ... : ... .. . Z00 ...
ROW B4 : E-3 00 E P7D ... : ... .. . ... ... : ... .. . ... : ... .. . ... : ... .. . Z00 ...
ROW B5 : ... .. C ... ... : ... .. . ... ... : ... .. . ... : ... .. . ... : ... .. . Z00 ...
ROW B6 : ... .. B ... ... : ... .. . ... ... : ... .. . ... : ... .. . ... : ... .. . Z00 ...
ROW B7 : ... .. A ... ... : ... .. . ... ... : ... .. . ... : ... .. . ... : ... .. . Z00 ...
ROW B8 : ... .. 8 ... ... : ... .. . ... ... : ... .. . ... : ... .. . ... : ... .. . Z00 ...
ROW B9 : ... .. 7 ... ... : ... .. . ... ... : ... .. . ... : ... .. . ... : ... .. . Z00 ...
ROW BA : ... .. 6 ... ... : ... .. . ... ... : ... .. . ... : ... .. . ... : ... .. . Z00 ...
ROW BB : ... .. 4 ... ... : ... .. . ... ... : ... .. . ... : ... .. . ... : ... .. . Z00 ...
ROW BC : ... .. 3 ... ... : ... .. . ... ... : ... .. . ... : ... .. . ... : ... .. . Z00 ...
ROW BD : ... .. 2 ... ... : ... .. . ... ... : ... .. . ... : ... .. . ... : ... .. . Z00 ...
ROW BE : ... .. 0 ... ... : ... .. . ... ... : ... .. . ... : ... .. . ... : ... .. . Z00 ...
ROW BF : ... .. . ... ... : ... .. . ... ... : ... .. . ... : ... .. . ... : ... .. . Z00 ...
ROW C0 : ... .. . ... ... : ... .. . ... ... : ... .. . ... : ... .. . ... : ... .. . C00 ...
ROW C1 : ... .. . ... ... : ... .. . ... ... : ... .. . ... : ... .. . ... : ... .. . Z00 ...
ROW C2 : ... .. . ... ... : ... .. . ... ... : ... .. . ... : ... .. . ... : ... .. . Z00 ...
ROW C3 : ... .. . ... ... : ... .. . ... ... : ... .. . ... : ... .. . ... : ... .. . Z00 ...
ROW C4 : ... .. . ... ... : ... .. . ... ... : ... .. . ... : ... .. . ... : ... .. . Z00 ...
ROW C5 : ... .. . ... ... : ... .. . ... ... : ... .. . ... : ... .. . ... : ... .. . Z00 ...
ROW C6 : ... .. . ... ... : ... .. . ... ... : ... .. . ... : ... .. . ... : ... .. . Z00 ...
ROW C7 : ... .. . ... ... : ... .. . ... ... : ... .. . ... : ... .. . ... : ... .. . Z00 ...
ROW C8 : ... .. . ... ... : ... .. . ... ... : ... .. . ... : ... .. . ... : ... .. . Z00 ...
ROW C9 : ... .. . ... ... : ... .. . ... ... : ... .. . ... : ... .. . ... : ... .. . Z00 ...
ROW CA : ... .. . ... ... : ... .. . ... ... : ... .. . ... : ... .. . ... : ... .. . Z00 ...
ROW CB : ... .. . ... ... : ... .. . ... ... : ... .. . ... : ... .. . ... : ... .. . Z00 ...
ROW CC : ... .. . ... ... : ... .. . ... ... : ... .. . ... : ... .. . ... : ... .. . Z00 ...
ROW CD : ... .. . ... ... : ... .. . ... ... : ... .. . ... : ... .. . ... : ... .. . Z00 ...
ROW CE : ... .. . ... ... : ... .. . ... ... : ... .. . ... : ... .. . ... : ... .. . Z00 ...
ROW CF : ... .. . ... ... : ... .. . ... ... : ... .. . ... : ... .. . ... : ... .. . Z00 ...
ROW D0 : ... .. . ... ... : ... .. . ... ... : ... .. . ... : ... .. . ... : ... .. . Z00 ...
ROW D1 : ... .. . ... ... : ... .. . ... ... : ... .. . ... : ... .. . ... : ... .. . Z00 ...
ROW D2 : ... .. . ... ... : ... .. . ... ... : ... .. . ... : ... .. . ... : ... .. . Z00 ...
ROW D3 : ... .. . ... ... : ... .. . ... ... : ... .. . ... : ... .. . ... : ... .. . Z00 ...
ROW D4 : ... .. . ... ... : ... .. . ... ... : ... .. . ... : ... .. . ... : ... .. . Z00 ...
ROW D5 : ... .. . ... ... : ... .. . ... ... : ... .. . ... : ... .. . ... : ... .. . Z00 ...
ROW D6 : ... .. . ... ... : ... .. . ... ... : ... .. . ... : ... .. . ... : ... .. . Z00 ...
ROW D7 : ... .. . ... ... : ... .. . ... ... : ... .. . ... : ... .. . ... : ... .. . Z00 ...
ROW D8 : ... .. . ... ... : ... .. . ... ... : ... .. . ... : ... .. . ... : ... .. . Z00 ...
ROW D9 : ... .. . ... ... : ... .. . ... ... : ... .. . ... : ... .. . ... : ... .. . Z00 ...
ROW DA : ... .. . ... ... : ... .. . ... ... : ... .. . ... : ... .. . ... : ... .. . Z00 ...
ROW DB : ... .. . ... ... : ... .. . ... ... : ... .. . ... : ... .. . ... : ... .. . Z00 ...
ROW DC : ... .. . ... ... : ... .. . ... ... : ... .. . ... : ... .. . ... : ... .. . Z00 ...
ROW DD : ... .. . ... ... : ... .. . ... ... : ... .. . ... : ... .. . ... : ... .. . Z00 ...
ROW DE : ... .. . ... ... : ... .. . ... ... : ... .. . ... : ... .. . ... : ... .. . Z00 ...
ROW DF : ... .. . ... ... : ... .. . ... ... : ... .. . ... : ... .. . ... : ... .. . Z00 ...
ROW E0 : ... .. . ... ... : ... .. . ... ... : ... .. . ... : ... .. . ... : ... .. . Z00 ...
ROW E1 : ... .. . ... ... : ... .. . ... ... : ... .. . ... : ... .. . ... : ... .. . Z00 ...
ROW E2 : ... .. . ... ... : ... .. . ... ... : ... .. . ... : ... .. . ... : ... .. . Z00 ...
ROW E3 : ... .. . ... ... : ... .. . ... ... : ... .. . ... : ... .. . ... : ... .. . Z00 ...
ROW E4 : ... .. . ... ... : ... .. . ... ... : ... .. . ... : ... .. . ... : ... .. . Z00 ...
ROW E5 : ... .. . ... ... : ... .. . ... ... : ... .. . ... : ... .. . ... : ... .. . Z00 ...
ROW E6 : ... .. . ... ... : ... .. . ... ... : ... .. . ... : ... .. . ... : ... .. . Z00 ...
ROW E7 : ... .. . ... ... : ... .. . ... ... : ... .. . ... : ... .. . ... : ... .. . Z00 ...
ROW E8 : ... .. . ... ... : ... .. . ... ... : ... .. . ... : ... .. . ... : ... .. . Z00 ...
ROW E9 : ... .. . ... ... : ... .. . ... ... : ... .. . ... : ... .. . ... : ... .. . Z00 ...
ROW EA : ... .. . ... ... : ... .. . ... ... : ... .. . ... : ... .. . ... : ... .. . Z00 ...
ROW EB : ... .. . ... ... : ... .. . ... ... : ... .. . ... : ... .. . ... : ... .. . Z00 ...
ROW EC : ... .. . ... ... : ... .. . ... ... : ... .. . ... : ... .. . ... : ... .. . Z00 ...
ROW ED : ... .. . ... ... : ... .. . ... ... : ... .. . ... : ... .. . ... : ... .. . Z00 ...
ROW EE : ... .. . ... ... : ... .. . ... ... : ... .. . ... : ... .. . ... : ... .. . Z00 ...
ROW EF : ... .. . ... ... : ... .. . ... ... : ... .. . ... : ... .. . ... : ... .. . ... ...
ROW F0 : ... .. . ... ... : ... .. . ... ... : ... .. . ... : ... .. . ... : ... .. . ... ...
ROW F1 : ... .. . ... ... : ... .. . ... ... : ... .. . ... : ... .. . ... : ... .. . ... ...
ROW F2 : ... .. . ... ... : ... .. . ... ... : ... .. . ... : ... .. . ... : ... .. . ... ...
ROW F3 : ... .. . ... ... : ... .. . ... ... : ... .. . ... : ... .. . ... : ... .. . ... ...
ROW F4 : ... .. . ... ... : ... .. . ... ... : ... .. . ... : ... .. . ... : ... .. . ... ...
ROW F5 : ... .. . ... ... : ... .. . ... ... : ... .. . ... : ... .. . ... : ... .. . ... ...
ROW F6 : ... .. . ... ... : ... .. . ... ... : ... .. . ... : ... .. . ... : ... .. . ... ...
ROW F7 : ... .. . ... ... : ... .. . ... ... : ... .. . ... : ... .. . ... : ... .. . ... ...
ROW F8 : ... .. . ... ... : ... .. . ... ... : ... .. . ... : ... .. . ... : ... .. . ... ...
ROW F9 : ... .. . ... ... : ... .. . ... ... : ... .. . ... : ... .. . ... : ... .. . ... ...
ROW FA : ... .. . ... ... : ... .. . ... ... : ... .. . ... : ... .. . ... : ... .. . ... ...
ROW FB : ... .. . ... ... : ... .. . ... ... : ... .. . ... : ... .. . ... : ... .. . ... ...
ROW FC : ... .. . ... ... : ... .. . ... ... : ... .. . ... : ... .. . ... : ... .. . ... ...
ROW FD : ... .. . ... ... : ... .. . ... ... : ... .. . ... : ... .. . ... : ... .. . ... ...
ROW FE : ... .. . ... ... : ... .. . ... ... : ... .. . ... : ... .. . ... : ... .. . ... ...
ROW FF : ... .. . ... ... : ... .. . ... ... : ... .. . ... : ... .. . ... : ... .. . ... ...

TRACK 144   1 150 "Pipeworld"
COLUMNS : 2 2 1 1 1

ORDER 00 : 00 00 00 00 00

PATTERN 00
ROW 00 : F#3 00 0 P7D V02 : E-4 00 0 P7F V02 : D-3 00 . P81 : C-# 00 C V00 : --- .. . Z30
ROW 01 : ... .. 8 ... ... : ... .. 8 ... ... : ... .. . ... : ... .. . ... : ... .. . Z30
ROW 02 : ... .. 7 ... ... : ... .. 7 ... ... : ... .. . ... : ... .. . ... : ... .. . Z30
ROW 03 : ... .. 6 ... ... : ... .. 6 ... ... : ... .. . ... : ... .. . ... : ... .. . Z30
ROW 04 : ... .. 5 ... ... : ... .. 5 ... ... : ... .. . ... : ... .. . ... : ... .. . Z30
ROW 05 : ... .. . ... ... : ... .. . ... ... : ... .. . ... : ... .. 0 ... : ... .. . Z30
ROW 06 : ... .. 4 ... ... : ... .. 4 ... ... : ... .. . ... : ... .. . ... : ... .. . Z30
ROW 07 : ... .. . ... ... : ... .. . ... ... : ... .. . ... : ... .. . ... : ... .. . Z30
ROW 08 : ... .. 0 ... ... : ... .. 0 ... ... : --- .. . ... : ... .. . ... : ... .. . Z30
ROW 09 : ... .. . ... ... : ... .. . ... ... : D-3 00 . P81 : ... .. . ... : ... .. . Z30
ROW 0A : ... .. 8 ... ... : ... .. 8 ... ... : ... .. . ... : ... .. . ... : ... .. . Z30
ROW 0B : ... .. 7 ... ... : ... .. 7 ... ... : ... .. . ... : ... .. . ... : ... .. . Z30
ROW 0C : ... .. 6 ... ... : ... .. 6 ... ... : ... .. . ... : ... .. . ... : ... .. . Z30
ROW 0D : ... .. 5 ... ... : ... .. 5 ... ... : ... .. . ... : ... .. . ... : ... .. . Z30
ROW 0E : ... .. . ... ... : ... .. . ... ... : ... .. . ... : ... .. . ... : ... .. . Z30
ROW 0F : ... .. 4 ... ... : ... .. 4 ... ... : ... .. . ... : ... .. . ... : ... .. . Z30
ROW 10 : ... .. . ... ... : ... .. . ... ... : ... .. . ... : ... .. . ... : ... .. . Z30
ROW 11 : ... .. 0 ... ... : ... .. 0 ... ... : --- .. . ... : ... .. . ... : ... .. . Z30
ROW 12 : ... .. . ... ... : ... .. . ... ... : ... .. . ... : ... .. C ... : ... .. . Z30
ROW 13 : ... .. . ... ... : ... .. . ... ... : ... .. . ... : ... .. 0 ... : ... .. . Z30
ROW 14 : ... .. . ... ... : ... .. . ... ... : ... .. . ... : ... .. . ... : ... .. . Z30
ROW 15 : ... .. . ... ... : ... .. . ... ... : ... .. . ... : ... .. . ... : ... .. . Z30
ROW 16 : ... .. . ... ... : ... .. . ... ... : ... .. . ... : ... .. . ... : ... .. . Z30
ROW 17 : ... .. . ... ... : ... .. . ... ... : ... .. . ... : ... .. . ... : ... .. . Z30
ROW 18 : ... .. . ... ... : ... .. . ... ... : ... .. . ... : ... .. . ... : ... .. . Z30
ROW 19 : ... .. . ... ... : ... .. . ... ... : ... .. . ... : ... .. . ... : ... .. . Z30
ROW 1A : ... .. . ... ... : ... .. . ... ... : ... .. . ... : ... .. . ... : ... .. . Z30
ROW 1B : ... .. . ... ... : ... .. . ... ... : D-3 00 . P81 : ... .. C ... : ... .. . Z30
ROW 1C : ... .. 8 ... ... : ... .. 8 ... ... : ... .. . ... : ... .. . ... : ... .. . Z30
ROW 1D : ... .. 7 ... ... : ... .. 7 ... ... : ... .. . ... : ... .. . ... : ... .. . Z30
ROW 1E : ... .. 6 ... ... : ... .. 6 ... ... : ... .. . ... : ... .. . ... : ... .. . Z30
ROW 1F : ... .. 5 ... ... : ... .. 5 ... ... : ... .. . ... : ... .. . ... : ... .. . Z30
ROW 20 : ... .. . ... ... : ... .. . ... ... : ... .. . ... : ... .. 0 ... : ... .. . Z30
ROW 21 : ... .. 4 ... ... : ... .. 4 ... ... : ... .. . ... : ... .. . ... : ... .. . Z30
ROW 22 : ... .. . ... ... : ... .. . ... ... : ... .. . ... : ... .. . ... : ... .. . Z30
ROW 23 : ... .. 0 ... ... : ... .. 0 ... ... : --- .. . ... : ... .. . ... : ... .. . Z30
ROW 24 : ... .. . ... ... : ... .. . ... ... : ... .. . ... : ... .. . ... : ... .. . Z30
ROW 25 : ... .. . ... ... : ... .. . ... ... : ... .. . ... : ... .. . ... : ... .. . Z30
ROW 26 : ... .. . ... ... : ... .. . ... ... : ... .. . ... : ... .. . ... : ... .. . Z30
ROW 27 : ... .. . ... ... : ... .. . ... ... : ... .. . ... : ... .. . ... : ... .. . Z30
ROW 28 : ... .. . ... ... : ... .. . ... ... : ... .. . ... : ... .. . ... : ... .. . Z30
ROW 29 : ... .. . ... ... : ... .. . ... ... : ... .. . ... : ... .. . ... : ... .. . Z30
ROW 2A : ... .. . ... ... : ... .. . ... ... : ... .. . ... : ... .. . ... : ... .. . Z30
ROW 2B : ... .. . ... ... : ... .. . ... ... : ... .. . ... : ... .. . ... : ... .. . Z30
ROW 2C : ... .. . ... ... : ... .. . ... ... : ... .. . ... : ... .. . ... : ... .. . Z30
ROW 2D : ... .. . ... ... : C-4 00 0 P80 ... : D-3 00 . P81 : ... .. C ... : ... .. . Z30
ROW 2E : ... .. 8 ... ... : ... .. 8 ... ... : ... .. . ... : ... .. 0 ... : ... .. . Z30
ROW 2F : ... .. 7 ... ... : ... .. 7 ... ... : ... .. . ... : ... .. . ... : ... .. . Z30
ROW 30 : ... .. 6 ... ... : ... .. 6 ... ... : ... .. . ... : ... .. . ... : ... .. . Z30
ROW 31 : ... .. 5 ... ... : ... .. 5 ... ... : ... .. . ... : ... .. . ... : ... .. . Z30
ROW 32 : ... .. . ... ... : ... .. . ... ... : ... .. . ... : ... .. . ... : ... .. . Z30
ROW 33 : ... .. 4 ... ... : ... .. 4 ... ... : ... .. . ... : ... .. . ... : ... .. . Z30
ROW 34 : ... .. . ... ... : ... .. . ... ... : ... .. . ... : ... .. . ... : ... .. . Z30
ROW 35 : ... .. 0 ... ... : ... .. 0 ... ... : --- .. . ... : ... .. . ... : ... .. . Z30
ROW 36 : ... .. . ... ... : E-4 00 0 P7F ... : D-3 00 . P81 : ... .. C ... : ... .. . Z30
ROW 37 : ... .. 8 ... ... : ... .. 8 ... ... : ... .. . ... : ... .. . ... : ... .. . Z30
ROW 38 : ... .. 7 ... ... : ... .. 7 ... ... : ... .. . ... : ... .. . ... : ... .. . Z30
ROW 39 : ... .. 6 ... ... : ... .. 6 ... ... : ... .. . ... : ... .. . ... : ... .. . Z30
ROW 3A : ... .. 5 ... ... : ... .. 5 ... ... : ... .. . ... : ... .. . ... : ... .. . Z30
ROW 3B : ... .. . ... ... : ... .. . ... ... : ... .. . ... : ... .. 0 ... : ... .. . Z30
ROW 3C : ... .. 4 ... ... : ... .. 4 ... ... : ... .. . ... : ... .. . ... : ... .. . Z30
ROW 3D : ... .. . ... ... : ... .. . ... ... : ... .. . ... : ... .. . ... : ... .. . Z30
ROW 3E : ... .. 0 ... ... : ... .. 0 ... ... : --- .. . ... : ... .. . ... : ... .. . Z30
ROW 3F : ... .. . ... ... : ... .. . ... ... : ... .. . ... : ... .. . ... : ... .. . Z30
ROW 40 : ... .. . ... ... : ... .. . ... ... : ... .. . ... : ... .. . ... : ... .. . Z30
ROW 41 : ... .. . ... ... : ... .. . ... ... : ... .. . ... : ... .. . ... : ... .. . Z30
ROW 42 : ... .. . ... ... : ... .. . ... ... : ... .. . ... : ... .. . ... : ... .. . Z30
ROW 43 : ... .. . ... ... : ... .. . ... ... : ... .. . ... : ... .. . ... : ... .. . Z30
ROW 44 : ... .. . ... ... : ... .. . ... ... : ... .. . ... : ... .. . ... : ... .. . Z30
ROW 45 : ... .. . ... ... : ... .. . ... ... : ... .. . ... : ... .. . ... : ... .. . Z30
ROW 46 : ... .. . ... ... : ... .. . ... ... : ... .. . ... : ... .. . ... : ... .. . Z30
ROW 47 : ... .. . ... ... : ... .. . ... ... : ... .. . ... : ... .. . ... : ... .. . Z30
ROW 48 : B-3 00 0 P7E ... : G-4 00 0 P80 ... : G-4 00 . P80 : ... .. C ... : ... .. . Z30
ROW 49 : ... .. 8 ... ... : ... .. 8 ... ... : ... .. . ... : ... .. . ... : ... .. . Z30
ROW 4A : ... .. 7 ... ... : ... .. 7 ... ... : ... .. . ... : ... .. . ... : ... .. . Z30
ROW 4B : ... .. 6 ... ... : ... .. 6 ... ... : ... .. . ... : ... .. . ... : ... .. . Z30
ROW 4C : ... .. 5 ... ... : ... .. 5 ... ... : ... .. . ... : ... .. . ... : ... .. . Z30
ROW 4D : ... .. . ... ... : ... .. . ... ... : ... .. . ... : ... .. 0 ... : ... .. . Z30
ROW 4E : ... .. 4 ... ... : ... .. 4 ... ... : ... .. . ... : ... .. . ... : ... .. . Z30
ROW 4F : ... .. . ... ... : ... .. . ... ... : ... .. . ... : ... .. . ... : ... .. . Z30
ROW 50 : ... .. 0 ... ... : ... .. 0 ... ... : --- .. . ... : ... .. . ... : ... .. . Z30
ROW 51 : ... .. . ... ... : ... .. . ... ... : ... .. . ... : ... .. . ... : ... .. . Z30
ROW 52 : ... .. . ... ... : ... .. . ... ... : ... .. . ... : ... .. . ... : ... .. . Z30
ROW 53 : ... .. . ... ... : ... .. . ... ... : ... .. . ... : ... .. . ... : ... .. . Z30
ROW 54 : ... .. . ... ... : ... .. . ... ... : ... .. . ... : ... .. . ... : ... .. . Z30
ROW 55 : ... .. . ... ... : ... .. . ... ... : ... .. . ... : ... .. . ... : ... .. . Z30
ROW 56 : ... .. . ... ... : ... .. . ... ... : ... .. . ... : ... .. . ... : ... .. . Z30
ROW 57 : ... .. . ... ... : ... .. . ... ... : ... .. . ... : ... .. . ... : ... .. . Z30
ROW 58 : ... .. . ... ... : ... .. . ... ... : ... .. . ... : ... .. . ... : ... .. . Z30
ROW 59 : ... .. . ... ... : ... .. . ... ... : ... .. . ... : ... .. . ... : ... .. . Z30
ROW 5A : ... .. . ... ... : ... .. . ... ... : ... .. . ... : ... .. . ... : ... .. . Z30
ROW 5B : ... .. . ... ... : ... .. . ... ... : ... .. . ... : ... .. . ... : ... .. . Z30
ROW 5C : ... .. . ... ... : ... .. . ... ... : ... .. . ... : ... .. . ... : ... .. . Z30
ROW 5D : ... .. . ... ... : ... .. . ... ... : ... .. . ... : ... .. . ... : ... .. . Z30
ROW 5E : ... .. . ... ... : ... .. . ... ... : ... .. . ... : ... .. . ... : ... .. . Z30
ROW 5F : ... .. . ... ... : ... .. . ... ... : ... .. . ... : ... .. . ... : ... .. . Z30
ROW 60 : ... .. . ... ... : ... .. . ... ... : ... .. . ... : ... .. . ... : ... .. . Z30
ROW 61 : ... .. . ... ... : ... .. . ... ... : ... .. . ... : ... .. . ... : ... .. . Z30
ROW 62 : ... .. . ... ... : ... .. . ... ... : ... .. . ... : ... .. . ... : ... .. . Z30
ROW 63 : ... .. . ... ... : ... .. . ... ... : ... .. . ... : ... .. C ... : ... .. . Z30
ROW 64 : ... .. . ... ... : ... .. . ... ... : ... .. . ... : ... .. . ... : ... .. . Z30
ROW 65 : ... .. . ... ... : ... .. . ... ... : ... .. . ... : ... .. . ... : ... .. . Z30
ROW 66 : ... .. . ... ... : ... .. . ... ... : ... .. . ... : ... .. . ... : ... .. . Z30
ROW 67 : ... .. . ... ... : ... .. . ... ... : ... .. . ... : ... .. . ... : ... .. . Z30
ROW 68 : ... .. . ... ... : ... .. . ... ... : ... .. . ... : ... .. 0 ... : ... .. . Z30
ROW 69 : ... .. . ... ... : ... .. . ... ... : ... .. . ... : ... .. . ... : ... .. . Z30
ROW 6A : ... .. . ... ... : ... .. . ... ... : ... .. . ... : ... .. . ... : ... .. . Z30
ROW 6B : ... .. . ... ... : ... .. . ... ... : ... .. . ... : ... .. . ... : ... .. . Z30
ROW 6C : G-3 00 0 P80 ... : ... .. . ... ... : G-3 00 . P80 : ... .. . ... : ... .. . Z30
ROW 6D : ... .. 8 ... ... : ... .. . ... ... : ... .. . ... : ... .. . ... : ... .. . Z30
ROW 6E : ... .. 7 ... ... : ... .. . ... ... : ... .. . ... : ... .. . ... : ... .. . Z30
ROW 6F : ... .. 6 ... ... : ... .. . ... ... : ... .. . ... : ... .. . ... : ... .. . Z30
ROW 70 : ... .. 5 ... ... : ... .. . ... ... : ... .. . ... : ... .. . ... : ... .. . Z30
ROW 71 : ... .. . ... ... : ... .. . ... ... : ... .. . ... : ... .. . ... : ... .. . Z30
ROW 72 : ... .. 4 ... ... : ... .. . ... ... : ... .. . ... : ... .. . ... : ... .. . Z30
ROW 73 : ... .. . ... ... : ... .. . ... ... : ... .. . ... : ... .. . ... : ... .. . Z30
ROW 74 : ... .. 0 ... ... : ... .. . ... ... : --- .. . ... : ... .. . ... : ... .. . Z30
ROW 75 : ... .. . ... ... : ... .. . ... ... : ... .. . ... : ... .. C ... : ... .. . Z30
ROW 76 : ... .. . ... ... : ... .. . ... ... : ... .. . ... : ... .. 0 ... : ... .. . Z30
ROW 77 : ... .. . ... ... : ... .. . ... ... : ... .. . ... : ... .. . ... : ... .. . Z30
ROW 78 : ... .. . ... ... : ... .. . ... ... : ... .. . ... : ... .. . ... : ... .. . Z30
ROW 79 : ... .. . ... ... : ... .. . ... ... : ... .. . ... : ... .. . ... : ... .. . Z30
ROW 7A : ... .. . ... ... : ... .. . ... ... : ... .. . ... : ... .. . ... : ... .. . Z30
ROW 7B : ... .. . ... ... : ... .. . ... ... : ... .. . ... : ... .. . ... : ... .. . Z30
ROW 7C : ... .. . ... ... : ... .. . ... ... : ... .. . ... : ... .. . ... : ... .. . Z30
ROW 7D : ... .. . ... ... : ... .. . ... ... : ... .. . ... : ... .. . ... : ... .. . Z30
ROW 7E : ... .. . ... ... : ... .. . ... ... : ... .. . ... : ... .. C ... : ... .. . Z30
ROW 7F : ... .. . ... ... : ... .. . ... ... : ... .. . ... : ... .. 0 ... : ... .. . Z30
ROW 80 : ... .. . ... ... : ... .. . ... ... : ... .. . ... : ... .. . ... : ... .. . Z30
ROW 81 : ... .. . ... ... : ... .. . ... ... : ... .. . ... : ... .. . ... : ... .. . Z30
ROW 82 : ... .. . ... ... : ... .. . ... ... : ... .. . ... : ... .. . ... : ... .. . Z30
ROW 83 : ... .. . ... ... : ... .. . ... ... : ... .. . ... : ... .. . ... : ... .. . Z30
ROW 84 : ... .. . ... ... : ... .. . ... ... : ... .. . ... : ... .. . ... : ... .. . Z30
ROW 85 : ... .. . ... ... : ... .. . ... ... : ... .. . ... : ... .. . ... : ... .. . Z30
ROW 86 : ... .. . ... ... : ... .. . ... ... : ... .. . ... : ... .. . ... : ... .. . Z30
ROW 87 : ... .. . ... ... : ... .. . ... ... : ... .. . ... : ... .. C ... : ... .. . Z30
ROW 88 : ... .. . ... ... : ... .. . ... ... : ... .. . ... : ... .. 0 ... : ... .. . Z30
ROW 89 : ... .. . ... ... : ... .. . ... ... : ... .. . ... : ... .. . ... : ... .. . Z30
ROW 8A : ... .. . ... ... : ... .. . ... ... : ... .. . ... : ... .. . ... : ... .. . Z30
ROW 8B : ... .. . ... ... : ... .. . ... ... : ... .. . ... : ... .. . ... : ... .. . Z30
ROW 8C : ... .. . ... ... : ... .. . ... ... : ... .. . ... : ... .. . ... : ... .. . Z30
ROW 8D : ... .. . ... ... : ... .. . ... ... : ... .. . ... : ... .. . ... : ... .. . Z30
ROW 8E : ... .. . ... ... : ... .. . ... ... : ... .. . ... : ... .. . ... : ... .. . Z30
ROW 8F : ... .. . ... ... : ... .. . ... ... : ... .. . ... : ... .. . ... : ... .. . C00

TRACK 192   1 150 "Princessworld"
COLUMNS : 2 2 1 1 2

ORDER 00 : 00 00 00 00 00
ORDER 01 : 01 01 01 01 01
ORDER 02 : 02 02 02 02 02
ORDER 03 : 01 01 01 01 03

PATTERN 00
ROW 00 : G-3 00 5 P80 V00 : --- .. 0 P80 V02 : B-2 00 . P7D : F-# 00 0 V00 : --- .. . Z30 ...
ROW 01 : ... .. 3 ... V02 : ... .. . ... ... : ... .. . ... : ... .. . ... : ... .. . Z2F ...
ROW 02 : ... .. 4 ... ... : ... .. . ... ... : ... .. . ... : ... .. . ... : ... .. . Z2E ...
ROW 03 : ... .. 5 ... ... : ... .. . ... ... : ... .. . ... : ... .. . ... : ... .. . Z2D ...
ROW 04 : ... .. . ... ... : ... .. . ... ... : ... .. . ... : ... .. . ... : ... .. . Z2C ...
ROW 05 : ... .. 6 ... ... : ... .. . ... ... : ... .. . ... : ... .. . ... : ... .. . Z2B ...
ROW 06 : ... .. . ... ... : ... .. . ... ... : ... .. . ... : ... .. . ... : ... .. . Z2A ...
ROW 07 : ... .. . ... ... : ... .. . ... ... : ... .. . ... : ... .. . ... : ... .. . Z29 ...
ROW 08 : F#3 00 5 P7D V00 : ... .. . ... ... : ... .. . ... : ... .. . ... : ... .. . Z28 ...
ROW 09 : ... .. 3 ... V02 : ... .. . ... ... : ... .. . ... : ... .. . ... : ... .. . Z27 ...
ROW 0A : ... .. 4 ... ... : ... .. . ... ... : ... .. . ... : ... .. . ... : ... .. . Z26 ...
ROW 0B : ... .. 5 ... ... : ... .. . ... ... : ... .. . ... : ... .. . ... : ... .. . Z25 ...
ROW 0C : ... .. . ... ... : ... .. . ... ... : ... .. . ... : ... .. . ... : ... .. . Z24 ...
ROW 0D : ... .. 6 ... ... : ... .. . ... ... : ... .. . ... : ... .. . ... : ... .. . Z23 ...
ROW 0E : ... .. . ... ... : ... .. . ... ... : ... .. . ... : ... .. . ... : ... .. . Z22 ...
ROW 0F : ... .. . ... ... : ... .. . ... ... : ... .. . ... : ... .. . ... : ... .. . Z21 ...
ROW 10 : G-3 00 5 P80 V00 : ... .. . ... ... : ... .. . ... : ... .. . ... : ... .. . Z20 ...
ROW 11 : ... .. 3 ... V02 : ... .. . ... ... : ... .. . ... : ... .. . ... : ... .. . Z1F ...
ROW 12 : ... .. 4 ... ... : ... .. . ... ... : ... .. . ... : ... .. . ... : ... .. . Z1E ...
ROW 13 : ... .. 5 ... ... : ... .. . ... ... : ... .. . ... : ... .. . ... : ... .. . Z1D ...
ROW 14 : ... .. . ... ... : ... .. . ... ... : ... .. . ... : ... .. . ... : ... .. . Z1C ...
ROW 15 : ... .. 6 ... ... : ... .. . ... ... : ... .. . ... : ... .. . ... : ... .. . Z1B ...
ROW 16 : ... .. . ... ... : ... .. . ... ... : ... .. . ... : ... .. . ... : ... .. . Z1A ...
ROW 17 : ... .. . ... ... : ... .. . ... ... : ... .. . ... : ... .. . ... : ... .. . Z19 D00
ROW 18 : ... .. . ... ... : ... .. . ... ... : ... .. . ... : ... .. . ... : ... .. . ... ...
ROW 19 : ... .. . ... ... : ... .. . ... ... : ... .. . ... : ... .. . ... : ... .. . ... ...
ROW 1A : ... .. . ... ... : ... .. . ... ... : ... .. . ... : ... .. . ... : ... .. . ... ...
ROW 1B : ... .. . ... ... : ... .. . ... ... : ... .. . ... : ... .. . ... : ... .. . ... ...
ROW 1C : ... .. . ... ... : ... .. . ... ... : ... .. . ... : ... .. . ... : ... .. . ... ...
ROW 1D : ... .. . ... ... : ... .. . ... ... : ... .. . ... : ... .. . ... : ... .. . ... ...
ROW 1E : ... .. . ... ... : ... .. . ... ... : ... .. . ... : ... .. . ... : ... .. . ... ...
ROW 1F : ... .. . ... ... : ... .. . ... ... : ... .. . ... : ... .. . ... : ... .. . ... ...
ROW 20 : ... .. . ... ... : ... .. . ... ... : ... .. . ... : ... .. . ... : ... .. . ... ...
ROW 21 : ... .. . ... ... : ... .. . ... ... : ... .. . ... : ... .. . ... : ... .. . ... ...
ROW 22 : ... .. . ... ... : ... .. . ... ... : ... .. . ... : ... .. . ... : ... .. . ... ...
ROW 23 : ... .. . ... ... : ... .. . ... ... : ... .. . ... : ... .. . ... : ... .. . ... ...
ROW 24 : ... .. . ... ... : ... .. . ... ... : ... .. . ... : ... .. . ... : ... .. . ... ...
ROW 25 : ... .. . ... ... : ... .. . ... ... : ... .. . ... : ... .. . ... : ... .. . ... ...
ROW 26 : ... .. . ... ... : ... .. . ... ... : ... .. . ... : ... .. . ... : ... .. . ... ...
ROW 27 : ... .. . ... ... : ... .. . ... ... : ... .. . ... : ... .. . ... : ... .. . ... ...
ROW 28 : ... .. . ... ... : ... .. . ... ... : ... .. . ... : ... .. . ... : ... .. . ... ...
ROW 29 : ... .. . ... ... : ... .. . ... ... : ... .. . ... : ... .. . ... : ... .. . ... ...
ROW 2A : ... .. . ... ... : ... .. . ... ... : ... .. . ... : ... .. . ... : ... .. . ... ...
ROW 2B : ... .. . ... ... : ... .. . ... ... : ... .. . ... : ... .. . ... : ... .. . ... ...
ROW 2C : ... .. . ... ... : ... .. . ... ... : ... .. . ... : ... .. . ... : ... .. . ... ...
ROW 2D : ... .. . ... ... : ... .. . ... ... : ... .. . ... : ... .. . ... : ... .. . ... ...
ROW 2E : ... .. . ... ... : ... .. . ... ... : ... .. . ... : ... .. . ... : ... .. . ... ...
ROW 2F : ... .. . ... ... : ... .. . ... ... : ... .. . ... : ... .. . ... : ... .. . ... ...
ROW 30 : ... .. . ... ... : ... .. . ... ... : ... .. . ... : ... .. . ... : ... .. . ... ...
ROW 31 : ... .. . ... ... : ... .. . ... ... : ... .. . ... : ... .. . ... : ... .. . ... ...
ROW 32 : ... .. . ... ... : ... .. . ... ... : ... .. . ... : ... .. . ... : ... .. . ... ...
ROW 33 : ... .. . ... ... : ... .. . ... ... : ... .. . ... : ... .. . ... : ... .. . ... ...
ROW 34 : ... .. . ... ... : ... .. . ... ... : ... .. . ... : ... .. . ... : ... .. . ... ...
ROW 35 : ... .. . ... ... : ... .. . ... ... : ... .. . ... : ... .. . ... : ... .. . ... ...
ROW 36 : ... .. . ... ... : ... .. . ... ... : ... .. . ... : ... .. . ... : ... .. . ... ...
ROW 37 : ... .. . ... ... : ... .. . ... ... : ... .. . ... : ... .. . ... : ... .. . ... ...
ROW 38 : ... .. . ... ... : ... .. . ... ... : ... .. . ... : ... .. . ... : ... .. . ... ...
ROW 39 : ... .. . ... ... : ... .. . ... ... : ... .. . ... : ... .. . ... : ... .. . ... ...
ROW 3A : ... .. . ... ... : ... .. . ... ... : ... .. . ... : ... .. . ... : ... .. . ... ...
ROW 3B : ... .. . ... ... : ... .. . ... ... : ... .. . ... : ... .. . ... : ... .. . ... ...
ROW 3C : ... .. . ... ... : ... .. . ... ... : ... .. . ... : ... .. . ... : ... .. . ... ...
ROW 3D : ... .. . ... ... : ... .. . ... ... : ... .. . ... : ... .. . ... : ... .. . ... ...
ROW 3E : ... .. . ... ... : ... .. . ... ... : ... .. . ... : ... .. . ... : ... .. . ... ...
ROW 3F : ... .. . ... ... : ... .. . ... ... : ... .. . ... : ... .. . ... : ... .. . ... ...
ROW 40 : ... .. . ... ... : ... .. . ... ... : ... .. . ... : ... .. . ... : ... .. . ... ...
ROW 41 : ... .. . ... ... : ... .. . ... ... : ... .. . ... : ... .. . ... : ... .. . ... ...
ROW 42 : ... .. . ... ... : ... .. . ... ... : ... .. . ... : ... .. . ... : ... .. . ... ...
ROW 43 : ... .. . ... ... : ... .. . ... ... : ... .. . ... : ... .. . ... : ... .. . ... ...
ROW 44 : ... .. . ... ... : ... .. . ... ... : ... .. . ... : ... .. . ... : ... .. . ... ...
ROW 45 : ... .. . ... ... : ... .. . ... ... : ... .. . ... : ... .. . ... : ... .. . ... ...
ROW 46 : ... .. . ... ... : ... .. . ... ... : ... .. . ... : ... .. . ... : ... .. . ... ...
ROW 47 : ... .. . ... ... : ... .. . ... ... : ... .. . ... : ... .. . ... : ... .. . ... ...
ROW 48 : ... .. . ... ... : ... .. . ... ... : ... .. . ... : ... .. . ... : ... .. . ... ...
ROW 49 : ... .. . ... ... : ... .. . ... ... : ... .. . ... : ... .. . ... : ... .. . ... ...
ROW 4A : ... .. . ... ... : ... .. . ... ... : ... .. . ... : ... .. . ... : ... .. . ... ...
ROW 4B : ... .. . ... ... : ... .. . ... ... : ... .. . ... : ... .. . ... : ... .. . ... ...
ROW 4C : ... .. . ... ... : ... .. . ... ... : ... .. . ... : ... .. . ... : ... .. . ... ...
ROW 4D : ... .. . ... ... : ... .. . ... ... : ... .. . ... : ... .. . ... : ... .. . ... ...
ROW 4E : ... .. . ... ... : ... .. . ... ... : ... .. . ... : ... .. . ... : ... .. . ... ...
ROW 4F : ... .. . ... ... : ... .. . ... ... : ... .. . ... : ... .. . ... : ... .. . ... ...
ROW 50 : ... .. . ... ... : ... .. . ... ... : ... .. . ... : ... .. . ... : ... .. . ... ...
ROW 51 : ... .. . ... ... : ... .. . ... ... : ... .. . ... : ... .. . ... : ... .. . ... ...
ROW 52 : ... .. . ... ... : ... .. . ... ... : ... .. . ... : ... .. . ... : ... .. . ... ...
ROW 53 : ... .. . ... ... : ... .. . ... ... : ... .. . ... : ... .. . ... : ... .. . ... ...
ROW 54 : ... .. . ... ... : ... .. . ... ... : ... .. . ... : ... .. . ... : ... .. . ... ...
ROW 55 : ... .. . ... ... : ... .. . ... ... : ... .. . ... : ... .. . ... : ... .. . ... ...
ROW 56 : ... .. . ... ... : ... .. . ... ... : ... .. . ... : ... .. . ... : ... .. . ... ...
ROW 57 : ... .. . ... ... : ... .. . ... ... : ... .. . ... : ... .. . ... : ... .. . ... ...
ROW 58 : ... .. . ... ... : ... .. . ... ... : ... .. . ... : ... .. . ... : ... .. . ... ...
ROW 59 : ... .. . ... ... : ... .. . ... ... : ... .. . ... : ... .. . ... : ... .. . ... ...
ROW 5A : ... .. . ... ... : ... .. . ... ... : ... .. . ... : ... .. . ... : ... .. . ... ...
ROW 5B : ... .. . ... ... : ... .. . ... ... : ... .. . ... : ... .. . ... : ... .. . ... ...
ROW 5C : ... .. . ... ... : ... .. . ... ... : ... .. . ... : ... .. . ... : ... .. . ... ...
ROW 5D : ... .. . ... ... : ... .. . ... ... : ... .. . ... : ... .. . ... : ... .. . ... ...
ROW 5E : ... .. . ... ... : ... .. . ... ... : ... .. . ... : ... .. . ... : ... .. . ... ...
ROW 5F : ... .. . ... ... : ... .. . ... ... : ... .. . ... : ... .. . ... : ... .. . ... ...
ROW 60 : ... .. . ... ... : ... .. . ... ... : ... .. . ... : ... .. . ... : ... .. . ... ...
ROW 61 : ... .. . ... ... : ... .. . ... ... : ... .. . ... : ... .. . ... : ... .. . ... ...
ROW 62 : ... .. . ... ... : ... .. . ... ... : ... .. . ... : ... .. . ... : ... .. . ... ...
ROW 63 : ... .. . ... ... : ... .. . ... ... : ... .. . ... : ... .. . ... : ... .. . ... ...
ROW 64 : ... .. . ... ... : ... .. . ... ... : ... .. . ... : ... .. . ... : ... .. . ... ...
ROW 65 : ... .. . ... ... : ... .. . ... ... : ... .. . ... : ... .. . ... : ... .. . ... ...
ROW 66 : ... .. . ... ... : ... .. . ... ... : ... .. . ... : ... .. . ... : ... .. . ... ...
ROW 67 : ... .. . ... ... : ... .. . ... ... : ... .. . ... : ... .. . ... : ... .. . ... ...
ROW 68 : ... .. . ... ... : ... .. . ... ... : ... .. . ... : ... .. . ... : ... .. . ... ...
ROW 69 : ... .. . ... ... : ... .. . ... ... : ... .. . ... : ... .. . ... : ... .. . ... ...
ROW 6A : ... .. . ... ... : ... .. . ... ... : ... .. . ... : ... .. . ... : ... .. . ... ...
ROW 6B : ... .. . ... ... : ... .. . ... ... : ... .. . ... : ... .. . ... : ... .. . ... ...
ROW 6C : ... .. . ... ... : ... .. . ... ... : ... .. . ... : ... .. . ... : ... .. . ... ...
ROW 6D : ... .. . ... ... : ... .. . ... ... : ... .. . ... : ... .. . ... : ... .. . ... ...
ROW 6E : ... .. . ... ... : ... .. . ... ... : ... .. . ... : ... .. . ... : ... .. . ... ...
ROW 6F : ... .. . ... ... : ... .. . ... ... : ... .. . ... : ... .. . ... : ... .. . ... ...
ROW 70 : ... .. . ... ... : ... .. . ... ... : ... .. . ... : ... .. . ... : ... .. . ... ...
ROW 71 : ... .. . ... ... : ... .. . ... ... : ... .. . ... : ... .. . ... : ... .. . ... ...
ROW 72 : ... .. . ... ... : ... .. . ... ... : ... .. . ... : ... .. . ... : ... .. . ... ...
ROW 73 : ... .. . ... ... : ... .. . ... ... : ... .. . ... : ... .. . ... : ... .. . ... ...
ROW 74 : ... .. . ... ... : ... .. . ... ... : ... .. . ... : ... .. . ... : ... .. . ... ...
ROW 75 : ... .. . ... ... : ... .. . ... ... : ... .. . ... : ... .. . ... : ... .. . ... ...
ROW 76 : ... .. . ... ... : ... .. . ... ... : ... .. . ... : ... .. . ... : ... .. . ... ...
ROW 77 : ... .. . ... ... : ... .. . ... ... : ... .. . ... : ... .. . ... : ... .. . ... ...
ROW 78 : ... .. . ... ... : ... .. . ... ... : ... .. . ... : ... .. . ... : ... .. . ... ...
ROW 79 : ... .. . ... ... : ... .. . ... ... : ... .. . ... : ... .. . ... : ... .. . ... ...
ROW 7A : ... .. . ... ... : ... .. . ... ... : ... .. . ... : ... .. . ... : ... .. . ... ...
ROW 7B : ... .. . ... ... : ... .. . ... ... : ... .. . ... : ... .. . ... : ... .. . ... ...
ROW 7C : ... .. . ... ... : ... .. . ... ... : ... .. . ... : ... .. . ... : ... .. . ... ...
ROW 7D : ... .. . ... ... : ... .. . ... ... : ... .. . ... : ... .. . ... : ... .. . ... ...
ROW 7E : ... .. . ... ... : ... .. . ... ... : ... .. . ... : ... .. . ... : ... .. . ... ...
ROW 7F : ... .. . ... ... : ... .. . ... ... : ... .. . ... : ... .. . ... : ... .. . ... ...
ROW 80 : ... .. . ... ... : ... .. . ... ... : ... .. . ... : ... .. . ... : ... .. . ... ...
ROW 81 : ... .. . ... ... : ... .. . ... ... : ... .. . ... : ... .. . ... : ... .. . ... ...
ROW 82 : ... .. . ... ... : ... .. . ... ... : ... .. . ... : ... .. . ... : ... .. . ... ...
ROW 83 : ... .. . ... ... : ... .. . ... ... : ... .. . ... : ... .. . ... : ... .. . ... ...
ROW 84 : ... .. . ... ... : ... .. . ... ... : ... .. . ... : ... .. . ... : ... .. . ... ...
ROW 85 : ... .. . ... ... : ... .. . ... ... : ... .. . ... : ... .. . ... : ... .. . ... ...
ROW 86 : ... .. . ... ... : ... .. . ... ... : ... .. . ... : ... .. . ... : ... .. . ... ...
ROW 87 : ... .. . ... ... : ... .. . ... ... : ... .. . ... : ... .. . ... : ... .. . ... ...
ROW 88 : ... .. . ... ... : ... .. . ... ... : ... .. . ... : ... .. . ... : ... .. . ... ...
ROW 89 : ... .. . ... ... : ... .. . ... ... : ... .. . ... : ... .. . ... : ... .. . ... ...
ROW 8A : ... .. . ... ... : ... .. . ... ... : ... .. . ... : ... .. . ... : ... .. . ... ...
ROW 8B : ... .. . ... ... : ... .. . ... ... : ... .. . ... : ... .. . ... : ... .. . ... ...
ROW 8C : ... .. . ... ... : ... .. . ... ... : ... .. . ... : ... .. . ... : ... .. . ... ...
ROW 8D : ... .. . ... ... : ... .. . ... ... : ... .. . ... : ... .. . ... : ... .. . ... ...
ROW 8E : ... .. . ... ... : ... .. . ... ... : ... .. . ... : ... .. . ... : ... .. . ... ...
ROW 8F : ... .. . ... ... : ... .. . ... ... : ... .. . ... : ... .. . ... : ... .. . ... ...
ROW 90 : ... .. . ... ... : ... .. . ... ... : ... .. . ... : ... .. . ... : ... .. . ... ...
ROW 91 : ... .. . ... ... : ... .. . ... ... : ... .. . ... : ... .. . ... : ... .. . ... ...
ROW 92 : ... .. . ... ... : ... .. . ... ... : ... .. . ... : ... .. . ... : ... .. . ... ...
ROW 93 : ... .. . ... ... : ... .. . ... ... : ... .. . ... : ... .. . ... : ... .. . ... ...
ROW 94 : ... .. . ... ... : ... .. . ... ... : ... .. . ... : ... .. . ... : ... .. . ... ...
ROW 95 : ... .. . ... ... : ... .. . ... ... : ... .. . ... : ... .. . ... : ... .. . ... ...
ROW 96 : ... .. . ... ... : ... .. . ... ... : ... .. . ... : ... .. . ... : ... .. . ... ...
ROW 97 : ... .. . ... ... : ... .. . ... ... : ... .. . ... : ... .. . ... : ... .. . ... ...
ROW 98 : ... .. . ... ... : ... .. . ... ... : ... .. . ... : ... .. . ... : ... .. . ... ...
ROW 99 : ... .. . ... ... : ... .. . ... ... : ... .. . ... : ... .. . ... : ... .. . ... ...
ROW 9A : ... .. . ... ... : ... .. . ... ... : ... .. . ... : ... .. . ... : ... .. . ... ...
ROW 9B : ... .. . ... ... : ... .. . ... ... : ... .. . ... : ... .. . ... : ... .. . ... ...
ROW 9C : ... .. . ... ... : ... .. . ... ... : ... .. . ... : ... .. . ... : ... .. . ... ...
ROW 9D : ... .. . ... ... : ... .. . ... ... : ... .. . ... : ... .. . ... : ... .. . ... ...
ROW 9E : ... .. . ... ... : ... .. . ... ... : ... .. . ... : ... .. . ... : ... .. . ... ...
ROW 9F : ... .. . ... ... : ... .. . ... ... : ... .. . ... : ... .. . ... : ... .. . ... ...
ROW A0 : ... .. . ... ... : ... .. . ... ... : ... .. . ... : ... .. . ... : ... .. . ... ...
ROW A1 : ... .. . ... ... : ... .. . ... ... : ... .. . ... : ... .. . ... : ... .. . ... ...
ROW A2 : ... .. . ... ... : ... .. . ... ... : ... .. . ... : ... .. . ... : ... .. . ... ...
ROW A3 : ... .. . ... ... : ... .. . ... ... : ... .. . ... : ... .. . ... : ... .. . ... ...
ROW A4 : ... .. . ... ... : ... .. . ... ... : ... .. . ... : ... .. . ... : ... .. . ... ...
ROW A5 : ... .. . ... ... : ... .. . ... ... : ... .. . ... : ... .. . ... : ... .. . ... ...
ROW A6 : ... .. . ... ... : ... .. . ... ... : ... .. . ... : ... .. . ... : ... .. . ... ...
ROW A7 : ... .. . ... ... : ... .. . ... ... : ... .. . ... : ... .. . ... : ... .. . ... ...
ROW A8 : ... .. . ... ... : ... .. . ... ... : ... .. . ... : ... .. . ... : ... .. . ... ...
ROW A9 : ... .. . ... ... : ... .. . ... ... : ... .. . ... : ... .. . ... : ... .. . ... ...
ROW AA : ... .. . ... ... : ... .. . ... ... : ... .. . ... : ... .. . ... : ... .. . ... ...
ROW AB : ... .. . ... ... : ... .. . ... ... : ... .. . ... : ... .. . ... : ... .. . ... ...
ROW AC : ... .. . ... ... : ... .. . ... ... : ... .. . ... : ... .. . ... : ... .. . ... ...
ROW AD : ... .. . ... ... : ... .. . ... ... : ... .. . ... : ... .. . ... : ... .. . ... ...
ROW AE : ... .. . ... ... : ... .. . ... ... : ... .. . ... : ... .. . ... : ... .. . ... ...
ROW AF : ... .. . ... ... : ... .. . ... ... : ... .. . ... : ... .. . ... : ... .. . ... ...
ROW B0 : ... .. . ... ... : ... .. . ... ... : ... .. . ... : ... .. . ... : ... .. . ... ...
ROW B1 : ... .. . ... ... : ... .. . ... ... : ... .. . ... : ... .. . ... : ... .. . ... ...
ROW B2 : ... .. . ... ... : ... .. . ... ... : ... .. . ... : ... .. . ... : ... .. . ... ...
ROW B3 : ... .. . ... ... : ... .. . ... ... : ... .. . ... : ... .. . ... : ... .. . ... ...
ROW B4 : ... .. . ... ... : ... .. . ... ... : ... .. . ... : ... .. . ... : ... .. . ... ...
ROW B5 : ... .. . ... ... : ... .. . ... ... : ... .. . ... : ... .. . ... : ... .. . ... ...
ROW B6 : ... .. . ... ... : ... .. . ... ... : ... .. . ... : ... .. . ... : ... .. . ... ...
ROW B7 : ... .. . ... ... : ... .. . ... ... : ... .. . ... : ... .. . ... : ... .. . ... ...
ROW B8 : ... .. . ... ... : ... .. . ... ... : ... .. . ... : ... .. . ... : ... .. . ... ...
ROW B9 : ... .. . ... ... : ... .. . ... ... : ... .. . ... : ... .. . ... : ... .. . ... ...
ROW BA : ... .. . ... ... : ... .. . ... ... : ... .. . ... : ... .. . ... : ... .. . ... ...
ROW BB : ... .. . ... ... : ... .. . ... ... : ... .. . ... : ... .. . ... : ... .. . ... ...
ROW BC : ... .. . ... ... : ... .. . ... ... : ... .. . ... : ... .. . ... : ... .. . ... ...
ROW BD : ... .. . ... ... : ... .. . ... ... : ... .. . ... : ... .. . ... : ... .. . ... ...
ROW BE : ... .. . ... ... : ... .. . ... ... : ... .. . ... : ... .. . ... : ... .. . ... ...
ROW BF : ... .. . ... ... : ... .. . ... ... : ... .. . ... : ... .. . ... : ... .. . ... ...

PATTERN 01
ROW 00 : E-3 00 5 P7D V00 : G-2 00 5 P81 V00 : C-3 00 . P80 : ... .. . ... : ... .. . Z18 ...
ROW 01 : ... .. 3 ... V02 : ... .. 3 ... V02 : ... .. . ... : ... .. . ... : ... .. . Z17 ...
ROW 02 : ... .. 4 ... ... : ... .. 4 ... ... : ... .. . ... : ... .. . ... : ... .. . Z16 ...
ROW 03 : ... .. 5 ... ... : ... .. 5 ... ... : ... .. . ... : ... .. . ... : ... .. . Z15 ...
ROW 04 : ... .. . ... ... : ... .. . ... ... : ... .. . ... : ... .. . ... : ... .. . Z14 ...
ROW 05 : ... .. 6 ... ... : ... .. 6 ... ... : ... .. . ... : ... .. . ... : ... .. . Z13 ...
ROW 06 : ... .. . ... ... : ... .. . ... ... : ... .. . ... : ... .. . ... : ... .. . Z12 ...
ROW 07 : ... .. . ... ... : ... .. . ... ... : ... .. . ... : ... .. . ... : ... .. . Z11 ...
ROW 08 : ... .. . ... ... : ... .. . ... ... : ... .. . ... : ... .. . ... : ... .. . Z10 ...
ROW 09 : ... .. . ... ... : ... .. . ... ... : ... .. . ... : ... .. . ... : ... .. . Z0F ...
ROW 0A : ... .. . ... ... : ... .. . ... ... : ... .. . ... : ... .. . ... : ... .. . Z0E ...
ROW 0B : ... .. . ... ... : ... .. . ... ... : ... .. . ... : ... .. . ... : ... .. . Z0D ...
ROW 0C : ... .. . ... ... : ... .. . ... ... : ... .. . ... : ... .. . ... : ... .. . Z0C ...
ROW 0D : ... .. . ... ... : ... .. . ... ... : ... .. . ... : ... .. . ... : ... .. . Z0B ...
ROW 0E : ... .. . ... ... : ... .. . ... ... : ... .. . ... : ... .. . ... : ... .. . Z0A ...
ROW 0F : ... .. . ... ... : ... .. . ... ... : ... .. . ... : ... .. . ... : ... .. . Z09 ...
ROW 10 : ... .. . ... ... : ... .. . ... ... : ... .. . ... : ... .. . ... : ... .. . Z08 ...
ROW 11 : ... .. . ... ... : ... .. . ... ... : ... .. . ... : ... .. . ... : ... .. . Z07 ...
ROW 12 : ... .. . ... ... : ... .. . ... ... : ... .. . ... : ... .. . ... : ... .. . Z06 ...
ROW 13 : ... .. . ... ... : ... .. . ... ... : ... .. . ... : ... .. . ... : ... .. . Z05 ...
ROW 14 : ... .. . ... ... : ... .. . ... ... : ... .. . ... : ... .. . ... : ... .. . Z04 ...
ROW 15 : ... .. . ... ... : ... .. . ... ... : ... .. . ... : ... .. . ... : ... .. . Z03 ...
ROW 16 : ... .. 5 ... ... : ... .. 5 ... ... : ... .. . ... : ... .. . ... : ... .. . Z02 ...
ROW 17 : ... .. . ... ... : ... .. . ... ... : ... .. . ... : ... .. . ... : ... .. . Z01 ...
ROW 18 : ... .. . ... ... : ... .. . ... ... : ... .. . ... : ... .. . ... : ... .. . Z00 ...
ROW 19 : ... .. . ... ... : ... .. . ... ... : ... .. . ... : ... .. . ... : ... .. . Z00 ...
ROW 1A : ... .. . ... ... : ... .. . ... ... : ... .. . ... : ... .. . ... : ... .. . Z00 ...
ROW 1B : ... .. . ... ... : ... .. . ... ... : ... .. . ... : ... .. . ... : ... .. . Z00 ...
ROW 1C : ... .. 4 ... ... : ... .. 4 ... ... : ... .. . ... : ... .. . ... : ... .. . Z00 ...
ROW 1D : ... .. . ... ... : ... .. . ... ... : ... .. . ... : ... .. . ... : ... .. . Z00 ...
ROW 1E : ... .. . ... ... : ... .. . ... ... : ... .. . ... : ... .. . ... : ... .. . Z00 ...
ROW 1F : ... .. . ... ... : ... .. . ... ... : ... .. . ... : ... .. . ... : ... .. . Z00 ...
ROW 20 : ... .. . ... ... : ... .. . ... ... : ... .. . ... : ... .. . ... : ... .. . Z00 ...
ROW 21 : ... .. . ... ... : ... .. . ... ... : ... .. . ... : ... .. . ... : ... .. . Z00 ...
ROW 22 : ... .. 3 ... ... : ... .. 3 ... ... : ... .. . ... : ... .. . ... : ... .. . Z00 ...
ROW 23 : ... .. . ... ... : ... .. . ... ... : ... .. . ... : ... .. . ... : ... .. . Z00 ...
ROW 24 : ... .. . ... ... : ... .. . ... ... : ... .. . ... : ... .. . ... : ... .. . Z00 ...
ROW 25 : ... .. 2 ... ... : ... .. 2 ... ... : ... .. . ... : ... .. . ... : ... .. . Z00 ...
ROW 26 : ... .. . ... ... : ... .. . ... ... : ... .. . ... : ... .. . ... : ... .. . Z00 ...
ROW 27 : ... .. 1 ... ... : ... .. 1 ... ... : ... .. . ... : ... .. . ... : ... .. . Z00 ...
ROW 28 : ... .. 0 ... ... : ... .. 0 ... ... : ... .. . ... : ... .. . ... : ... .. . Z00 ...
ROW 29 : ... .. . ... ... : ... .. . ... ... : ... .. . ... : ... .. . ... : ... .. . Z00 ...
ROW 2A : ... .. . ... ... : ... .. . ... ... : ... .. . ... : ... .. . ... : ... .. . Z00 ...
ROW 2B : ... .. . ... ... : ... .. . ... ... : ... .. . ... : ... .. . ... : ... .. . Z00 ...
ROW 2C : ... .. . ... ... : ... .. . ... ... : ... .. . ... : ... .. . ... : ... .. . Z00 ...
ROW 2D : ... .. . ... ... : ... .. . ... ... : ... .. . ... : ... .. . ... : ... .. . Z00 ...
ROW 2E : ... .. . ... ... : ... .. . ... ... : ... .. . ... : ... .. . ... : ... .. . Z00 ...
ROW 2F : ... .. . ... ... : ... .. . ... ... : ... .. . ... : ... .. . ... : ... .. . Z00 ...
ROW 30 : F-3 00 5 P80 V00 : A-2 00 5 P7B V00 : D-3 00 . P81 : ... .. . ... : ... .. . Z00 ...
ROW 31 : ... .. 3 ... V02 : ... .. 3 ... V02 : ... .. . ... : ... .. . ... : ... .. . Z00 ...
ROW 32 : ... .. 4 ... ... : ... .. 4 ... ... : ... .. . ... : ... .. . ... : ... .. . Z00 ...
ROW 33 : ... .. 5 ... ... : ... .. 5 ... ... : ... .. . ... : ... .. . ... : ... .. . Z00 ...
ROW 34 : ... .. . ... ... : ... .. . ... ... : ... .. . ... : ... .. . ... : ... .. . Z00 ...
ROW 35 : ... .. 6 ... ... : ... .. 6 ... ... : ... .. . ... : ... .. . ... : ... .. . Z00 ...
ROW 36 : ... .. . ... ... : ... .. . ... ... : ... .. . ... : ... .. . ... : ... .. . Z00 ...
ROW 37 : ... .. . ... ... : ... .. . ... ... : ... .. . ... : ... .. . ... : ... .. . Z00 ...
ROW 38 : ... .. . ... ... : ... .. . ... ... : ... .. . ... : ... .. . ... : ... .. . Z00 ...
ROW 39 : ... .. . ... ... : ... .. . ... ... : ... .. . ... : ... .. . ... : ... .. . Z00 ...
ROW 3A : ... .. . ... ... : ... .. . ... ... : ... .. . ... : ... .. . ... : ... .. . Z00 ...
ROW 3B : ... .. . ... ... : ... .. . ... ... : ... .. . ... : ... .. . ... : ... .. . Z00 ...
ROW 3C : ... .. . ... ... : ... .. . ... ... : ... .. . ... : ... .. . ... : ... .. . Z00 ...
ROW 3D : ... .. . ... ... : ... .. . ... ... : ... .. . ... : ... .. . ... : ... .. . Z00 ...
ROW 3E : ... .. . ... ... : ... .. . ... ... : ... .. . ... : ... .. . ... : ... .. . Z00 ...
ROW 3F : ... .. . ... ... : ... .. . ... ... : ... .. . ... : ... .. . ... : ... .. . Z00 ...
ROW 40 : ... .. . ... ... : ... .. . ... ... : ... .. . ... : ... .. . ... : ... .. . Z00 ...
ROW 41 : ... .. . ... ... : ... .. . ... ... : ... .. . ... : ... .. . ... : ... .. . Z00 ...
ROW 42 : ... .. . ... ... : ... .. . ... ... : ... .. . ... : ... .. . ... : ... .. . Z00 ...
ROW 43 : ... .. . ... ... : ... .. . ... ... : ... .. . ... : ... .. . ... : ... .. . Z00 ...
ROW 44 : ... .. . ... ... : ... .. . ... ... : ... .. . ... : ... .. . ... : ... .. . Z00 ...
ROW 45 : ... .. . ... ... : ... .. . ... ... : ... .. . ... : ... .. . ... : ... .. . Z00 ...
ROW 46 : ... .. 5 ... ... : ... .. 5 ... ... : ... .. . ... : ... .. . ... : ... .. . Z00 ...
ROW 47 : ... .. . ... ... : ... .. . ... ... : ... .. . ... : ... .. . ... : ... .. . Z00 ...
ROW 48 : F#3 00 5 P7D V00 : A#2 00 5 P77 V00 : D#3 00 . P83 : ... .. . ... : ... .. . Z00 ...
ROW 49 : ... .. 3 ... V02 : ... .. 3 ... V02 : ... .. . ... : ... .. . ... : ... .. . Z00 ...
ROW 4A : ... .. 4 ... ... : ... .. 4 ... ... : ... .. . ... : ... .. . ... : ... .. . Z00 ...
ROW 4B : ... .. 5 ... ... : ... .. 5 ... ... : ... .. . ... : ... .. . ... : ... .. . Z00 ...
ROW 4C : ... .. . ... ... : ... .. . ... ... : ... .. . ... : ... .. . ... : ... .. . Z00 ...
ROW 4D : ... .. 6 ... ... : ... .. 6 ... ... : ... .. . ... : ... .. . ... : ... .. . Z00 ...
ROW 4E : ... .. . ... ... : ... .. . ... ... : ... .. . ... : ... .. . ... : ... .. . Z00 ...
ROW 4F : ... .. . ... ... : ... .. . ... ... : ... .. . ... : ... .. . ... : ... .. . Z00 ...
ROW 50 : ... .. . ... ... : ... .. . ... ... : ... .. . ... : ... .. . ... : ... .. . Z00 ...
ROW 51 : ... .. . ... ... : ... .. . ... ... : ... .. . ... : ... .. . ... : ... .. . Z00 ...
ROW 52 : ... .. . ... ... : ... .. . ... ... : ... .. . ... : ... .. . ... : ... .. . Z00 ...
ROW 53 : ... .. . ... ... : ... .. . ... ... : ... .. . ... : ... .. . ... : ... .. . Z00 ...
ROW 54 : ... .. . ... ... : ... .. . ... ... : ... .. . ... : ... .. . ... : ... .. . Z00 ...
ROW 55 : ... .. . ... ... : ... .. . ... ... : ... .. . ... : ... .. . ... : ... .. . Z00 ...
ROW 56 : ... .. . ... ... : ... .. . ... ... : ... .. . ... : ... .. . ... : ... .. . Z00 ...
ROW 57 : ... .. . ... ... : ... .. . ... ... : ... .. . ... : ... .. . ... : ... .. . Z00 ...
ROW 58 : ... .. . ... ... : ... .. . ... ... : ... .. . ... : ... .. . ... : ... .. . Z00 ...
ROW 59 : ... .. . ... ... : ... .. . ... ... : ... .. . ... : ... .. . ... : ... .. . Z00 ...
ROW 5A : ... .. . ... ... : ... .. . ... ... : ... .. . ... : ... .. . ... : ... .. . Z00 ...
ROW 5B : ... .. . ... ... : ... .. . ... ... : ... .. . ... : ... .. . ... : ... .. . Z00 ...
ROW 5C : ... .. . ... ... : ... .. . ... ... : ... .. . ... : ... .. . ... : ... .. . Z00 ...
ROW 5D : ... .. . ... ... : ... .. . ... ... : ... .. . ... : ... .. . ... : ... .. . Z00 ...
ROW 5E : ... .. 5 ... ... : ... .. 5 ... ... : ... .. . ... : ... .. . ... : ... .. . Z00 ...
ROW 5F : ... .. . ... ... : ... .. . ... ... : ... .. . ... : ... .. . ... : ... .. . Z00 ...
ROW 60 : G-3 00 5 P80 V00 : B-2 00 5 P7D V00 : E-3 00 . P7D : ... .. . ... : ... .. . Z00 ...
ROW 61 : ... .. 3 ... V02 : ... .. 3 ... V02 : ... .. . ... : ... .. . ... : ... .. . Z00 ...
ROW 62 : ... .. 4 ... ... : ... .. 4 ... ... : ... .. . ... : ... .. . ... : ... .. . Z00 ...
ROW 63 : ... .. 5 ... ... : ... .. 5 ... ... : ... .. . ... : ... .. . ... : ... .. . Z00 ...
ROW 64 : ... .. . ... ... : ... .. . ... ... : ... .. . ... : ... .. . ... : ... .. . Z00 ...
ROW 65 : ... .. 6 ... ... : ... .. 6 ... ... : ... .. . ... : ... .. . ... : ... .. . Z00 ...
ROW 66 : ... .. . ... ... : ... .. . ... ... : ... .. . ... : ... .. . ... : ... .. . Z00 ...
ROW 67 : ... .. . ... ... : ... .. . ... ... : ... .. . ... : ... .. . ... : ... .. . Z00 ...
ROW 68 : ... .. . ... ... : ... .. . ... ... : ... .. . ... : ... .. . ... : ... .. . Z00 ...
ROW 69 : ... .. . ... ... : ... .. . ... ... : ... .. . ... : ... .. . ... : ... .. . Z00 ...
ROW 6A : ... .. . ... ... : ... .. . ... ... : ... .. . ... : ... .. . ... : ... .. . Z00 ...
ROW 6B : ... .. . ... ... : ... .. . ... ... : ... .. . ... : ... .. . ... : ... .. . Z00 ...
ROW 6C : ... .. . ... ... : ... .. . ... ... : ... .. . ... : ... .. . ... : ... .. . Z00 ...
ROW 6D : ... .. . ... ... : ... .. . ... ... : ... .. . ... : ... .. . ... : ... .. . Z00 ...
ROW 6E : ... .. . ... ... : ... .. . ... ... : ... .. . ... : ... .. . ... : ... .. . Z00 ...
ROW 6F : ... .. . ... ... : ... .. . ... ... : ... .. . ... : ... .. . ... : ... .. . Z00 ...
ROW 70 : ... .. . ... ... : ... .. . ... ... : ... .. . ... : ... .. . ... : ... .. . Z00 ...
ROW 71 : ... .. . ... ... : ... .. . ... ... : ... .. . ... : ... .. . ... : ... .. . Z00 ...
ROW 72 : ... .. . ... ... : ... .. . ... ... : ... .. . ... : ... .. . ... : ... .. . Z00 ...
ROW 73 : ... .. . ... ... : ... .. . ... ... : ... .. . ... : ... .. . ... : ... .. . Z00 ...
ROW 74 : ... .. . ... ... : ... .. . ... ... : ... .. . ... : ... .. . ... : ... .. . Z00 ...
ROW 75 : ... .. . ... ... : ... .. . ... ... : ... .. . ... : ... .. . ... : ... .. . Z00 ...
ROW 76 : ... .. 5 ... ... : ... .. 5 ... ... : ... .. . ... : ... .. . ... : ... .. . Z00 ...
ROW 77 : ... .. . ... ... : ... .. . ... ... : ... .. . ... : ... .. . ... : ... .. . Z00 ...
ROW 78 : ... .. . ... ... : ... .. . ... ... : C-3 00 . P80 : ... .. . ... : ... .. . Z00 ...
ROW 79 : ... .. . ... ... : ... .. . ... ... : ... .. . ... : ... .. . ... : ... .. . Z00 ...
ROW 7A : ... .. . ... ... : ... .. . ... ... : ... .. . ... : ... .. . ... : ... .. . Z00 ...
ROW 7B : ... .. . ... ... : ... .. . ... ... : ... .. . ... : ... .. . ... : ... .. . Z00 ...
ROW 7C : ... .. 4 ... ... : ... .. 4 ... ... : ... .. . ... : ... .. . ... : ... .. . Z00 ...
ROW 7D : ... .. . ... ... : ... .. . ... ... : ... .. . ... : ... .. . ... : ... .. . Z00 ...
ROW 7E : ... .. . ... ... : ... .. . ... ... : ... .. . ... : ... .. . ... : ... .. . Z00 ...
ROW 7F : ... .. . ... ... : ... .. . ... ... : ... .. . ... : ... .. . ... : ... .. . Z00 ...
ROW 80 : ... .. . ... ... : ... .. . ... ... : ... .. . ... : ... .. . ... : ... .. . Z00 ...
ROW 81 : ... .. . ... ... : ... .. . ... ... : ... .. . ... : ... .. . ... : ... .. . Z00 ...
ROW 82 : ... .. 3 ... ... : ... .. 3 ... ... : ... .. . ... : ... .. . ... : ... .. . Z00 ...
ROW 83 : ... .. . ... ... : ... .. . ... ... : ... .. . ... : ... .. . ... : ... .. . Z00 ...
ROW 84 : ... .. . ... ... : ... .. . ... ... : ... .. . ... : ... .. . ... : ... .. . Z00 ...
ROW 85 : ... .. 2 ... ... : ... .. 2 ... ... : ... .. . ... : ... .. . ... : ... .. . Z00 ...
ROW 86 : ... .. . ... ... : ... .. . ... ... : ... .. . ... : ... .. . ... : ... .. . Z00 ...
ROW 87 : ... .. 1 ... ... : ... .. 1 ... ... : ... .. . ... : ... .. . ... : ... .. . Z00 ...
ROW 88 : ... .. 0 ... ... : ... .. 0 ... ... : ... .. . ... : ... .. . ... : ... .. . Z00 ...
ROW 89 : ... .. . ... ... : ... .. . ... ... : ... .. . ... : ... .. . ... : ... .. . Z00 ...
ROW 8A : ... .. . ... ... : ... .. . ... ... : ... .. . ... : ... .. . ... : ... .. . Z00 ...
ROW 8B : ... .. . ... ... : ... .. . ... ... : ... .. . ... : ... .. . ... : ... .. . Z00 ...
ROW 8C : ... .. . ... ... : ... .. . ... ... : ... .. . ... : ... .. . ... : ... .. . Z00 ...
ROW 8D : ... .. . ... ... : ... .. . ... ... : ... .. . ... : ... .. . ... : ... .. . Z00 ...
ROW 8E : ... .. . ... ... : ... .. . ... ... : ... .. . ... : ... .. . ... : ... .. . Z00 ...
ROW 8F : ... .. . ... ... : ... .. . ... ... : ... .. . ... : ... .. . ... : ... .. . Z00 ...
ROW 90 : C-4 00 5 P80 V00 : E-3 00 5 P7D V00 : A-3 00 . P7E : ... .. . ... : ... .. . Z00 ...
ROW 91 : ... .. 3 ... V02 : ... .. 3 ... V02 : ... .. . ... : ... .. . ... : ... .. . Z00 ...
ROW 92 : ... .. 4 ... ... : ... .. 4 ... ... : ... .. . ... : ... .. . ... : ... .. . Z00 ...
ROW 93 : ... .. 5 ... ... : ... .. 5 ... ... : ... .. . ... : ... .. . ... : ... .. . Z00 ...
ROW 94 : ... .. . ... ... : ... .. . ... ... : ... .. . ... : ... .. . ... : ... .. . Z00 ...
ROW 95 : ... .. 6 ... ... : ... .. 6 ... ... : ... .. . ... : ... .. . ... : ... .. . Z00 ...
ROW 96 : ... .. . ... ... : ... .. . ... ... : ... .. . ... : ... .. . ... : ... .. . Z00 ...
ROW 97 : ... .. . ... ... : ... .. . ... ... : ... .. . ... : ... .. . ... : ... .. . Z00 ...
ROW 98 : ... .. . ... ... : ... .. . ... ... : ... .. . ... : ... .. . ... : ... .. . Z00 ...
ROW 99 : ... .. . ... ... : ... .. . ... ... : ... .. . ... : ... .. . ... : ... .. . Z00 ...
ROW 9A : ... .. . ... ... : ... .. . ... ... : ... .. . ... : ... .. . ... : ... .. . Z00 ...
ROW 9B : ... .. . ... ... : ... .. . ... ... : ... .. . ... : ... .. . ... : ... .. . Z00 ...
ROW 9C : ... .. . ... ... : ... .. . ... ... : ... .. . ... : ... .. . ... : ... .. . Z00 ...
ROW 9D : ... .. . ... ... : ... .. . ... ... : ... .. . ... : ... .. . ... : ... .. . Z00 ...
ROW 9E : ... .. . ... ... : ... .. . ... ... : ... .. . ... : ... .. . ... : ... .. . Z00 ...
ROW 9F : ... .. . ... ... : ... .. . ... ... : ... .. . ... : ... .. . ... : ... .. . Z00 ...
ROW A0 : ... .. . ... ... : ... .. . ... ... : ... .. . ... : ... .. . ... : ... .. . Z00 ...
ROW A1 : ... .. . ... ... : ... .. . ... ... : ... .. . ... : ... .. . ... : ... .. . Z00 ...
ROW A2 : ... .. . ... ... : ... .. . ... ... : ... .. . ... : ... .. . ... : ... .. . Z00 ...
ROW A3 : ... .. . ... ... : ... .. . ... ... : ... .. . ... : ... .. . ... : ... .. . Z00 ...
ROW A4 : ... .. . ... ... : ... .. . ... ... : ... .. . ... : ... .. . ... : ... .. . Z00 ...
ROW A5 : ... .. . ... ... : ... .. . ... ... : ... .. . ... : ... .. . ... : ... .. . Z00 ...
ROW A6 : ... .. 5 ... ... : ... .. 5 ... ... : ... .. . ... : ... .. . ... : ... .. . Z00 ...
ROW A7 : ... .. . ... ... : ... .. . ... ... : ... .. . ... : ... .. . ... : ... .. . Z00 ...
ROW A8 : E-4 00 5 P7F V00 : G-3 00 5 P80 V00 : G-3 00 . P80 : ... .. . ... : ... .. . Z00 ...
ROW A9 : ... .. 3 ... V02 : ... .. 3 ... V02 : ... .. . ... : ... .. . ... : ... .. . Z00 ...
ROW AA : ... .. 4 ... ... : ... .. 4 ... ... : ... .. . ... : ... .. . ... : ... .. . Z00 ...
ROW AB : ... .. 5 ... ... : ... .. 5 ... ... : ... .. . ... : ... .. . ... : ... .. . Z00 ...
ROW AC : ... .. . ... ... : ... .. . ... ... : ... .. . ... : ... .. . ... : ... .. . Z00 ...
ROW AD : ... .. 6 ... ... : ... .. 6 ... ... : ... .. . ... : ... .. . ... : ... .. . Z00 ...
ROW AE : ... .. . ... ... : ... .. . ... ... : ... .. . ... : ... .. . ... : ... .. . Z00 ...
ROW AF : ... .. . ... ... : ... .. . ... ... : ... .. . ... : ... .. . ... : ... .. . Z00 ...
ROW B0 : ... .. . ... ... : ... .. . ... ... : ... .. . ... : ... .. . ... : ... .. . Z00 ...
ROW B1 : ... .. . ... ... : ... .. . ... ... : ... .. . ... : ... .. . ... : ... .. . Z00 ...
ROW B2 : ... .. . ... ... : ... .. . ... ... : ... .. . ... : ... .. . ... : ... .. . Z00 ...
ROW B3 : ... .. . ... ... : ... .. . ... ... : ... .. . ... : ... .. . ... : ... .. . Z00 ...
ROW B4 : ... .. . ... ... : ... .. . ... ... : ... .. . ... : ... .. . ... : ... .. . Z00 ...
ROW B5 : ... .. . ... ... : ... .. . ... ... : ... .. . ... : ... .. . ... : ... .. . Z00 ...
ROW B6 : ... .. . ... ... : ... .. . ... ... : ... .. . ... : ... .. . ... : ... .. . Z00 ...
ROW B7 : ... .. . ... ... : ... .. . ... ... : ... .. . ... : ... .. . ... : ... .. . Z00 ...
ROW B8 : ... .. . ... ... : ... .. . ... ... : ... .. . ... : ... .. . ... : ... .. . Z00 ...
ROW B9 : ... .. . ... ... : ... .. . ... ... : ... .. . ... : ... .. . ... : ... .. . Z00 ...
ROW BA : ... .. 5 ... V00 : ... .. . ... ... : ... .. . ... : ... .. . ... : ... .. . Z00 ...
ROW BB : ... .. 3 ... V02 : ... .. . ... ... : ... .. . ... : ... .. . ... : ... .. . Z00 ...
ROW BC : ... .. 4 ... ... : ... .. . ... ... : ... .. . ... : ... .. . ... : ... .. . Z00 ...
ROW BD : ... .. 5 ... ... : ... .. . ... ... : ... .. . ... : ... .. . ... : ... .. . Z00 ...
ROW BE : ... .. . ... ... : ... .. 5 ... ... : ... .. . ... : ... .. . ... : ... .. . Z00 ...
ROW BF : ... .. 6 ... ... : ... .. . ... ... : ... .. . ... : ... .. . ... : ... .. . Z00 ...

PATTERN 02
ROW 00 : D-4 00 5 P80 V00 : F-3 00 5 P80 V00 : F-3 00 . P80 : ... .. . ... : ... .. . Z00 ...
ROW 01 : ... .. 3 ... V02 : ... .. 3 ... V02 : ... .. . ... : ... .. . ... : ... .. . Z00 ...
ROW 02 : ... .. 4 ... ... : ... .. 4 ... ... : ... .. . ... : ... .. . ... : ... .. . Z00 ...
ROW 03 : ... .. 5 ... ... : ... .. 5 ... ... : ... .. . ... : ... .. . ... : ... .. . Z00 ...
ROW 04 : ... .. . ... ... : ... .. . ... ... : ... .. . ... : ... .. . ... : ... .. . Z00 ...
ROW 05 : ... .. 6 ... ... : ... .. 6 ... ... : ... .. . ... : ... .. . ... : ... .. . Z00 ...
ROW 06 : ... .. . ... ... : ... .. . ... ... : ... .. . ... : ... .. . ... : ... .. . Z00 ...
ROW 07 : ... .. . ... ... : ... .. . ... ... : ... .. . ... : ... .. . ... : ... .. . Z00 ...
ROW 08 : ... .. . ... ... : ... .. . ... ... : ... .. . ... : ... .. . ... : ... .. . Z00 ...
ROW 09 : ... .. . ... ... : ... .. . ... ... : ... .. . ... : ... .. . ... : ... .. . Z00 ...
ROW 0A : ... .. . ... ... : ... .. . ... ... : ... .. . ... : ... .. . ... : ... .. . Z00 ...
ROW 0B : ... .. . ... ... : ... .. . ... ... : ... .. . ... : ... .. . ... : ... .. . Z00 ...
ROW 0C : ... .. . ... ... : ... .. . ... ... : ... .. . ... : ... .. . ... : ... .. . Z00 ...
ROW 0D : ... .. . ... ... : ... .. . ... ... : ... .. . ... : ... .. . ... : ... .. . Z00 ...
ROW 0E : ... .. . ... ... : ... .. . ... ... : ... .. . ... : ... .. . ... : ... .. . Z00 ...
ROW 0F : ... .. . ... ... : ... .. . ... ... : ... .. . ... : ... .. . ... : ... .. . Z00 ...
ROW 10 : ... .. . ... ... : ... .. . ... ... : ... .. . ... : ... .. . ... : ... .. . Z00 ...
ROW 11 : ... .. . ... ... : ... .. . ... ... : ... .. . ... : ... .. . ... : ... .. . Z00 ...
ROW 12 : ... .. . ... ... : ... .. . ... ... : ... .. . ... : ... .. . ... : ... .. . Z00 ...
ROW 13 : ... .. . ... ... : ... .. . ... ... : ... .. . ... : ... .. . ... : ... .. . Z00 ...
ROW 14 : ... .. . ... ... : ... .. . ... ... : ... .. . ... : ... .. . ... : ... .. . Z00 ...
ROW 15 : ... .. . ... ... : ... .. . ... ... : ... .. . ... : ... .. . ... : ... .. . Z00 ...
ROW 16 : ... .. 5 ... ... : ... .. 5 ... ... : ... .. . ... : ... .. . ... : ... .. . Z00 ...
ROW 17 : ... .. . ... ... : ... .. . ... ... : ... .. . ... : ... .. . ... : ... .. . Z00 ...
ROW 18 : E-4 00 5 P7F V00 : G-3 00 5 P80 V00 : E-3 00 . P7D : ... .. . ... : ... .. . Z00 ...
ROW 19 : ... .. 3 ... V02 : ... .. 3 ... V02 : ... .. . ... : ... .. . ... : ... .. . Z00 ...
ROW 1A : ... .. 4 ... ... : ... .. 4 ... ... : ... .. . ... : ... .. . ... : ... .. . Z00 ...
ROW 1B : ... .. 5 ... ... : ... .. 5 ... ... : ... .. . ... : ... .. . ... : ... .. . Z00 ...
ROW 1C : ... .. . ... ... : ... .. . ... ... : ... .. . ... : ... .. . ... : ... .. . Z00 ...
ROW 1D : ... .. 6 ... ... : ... .. 6 ... ... : ... .. . ... : ... .. . ... : ... .. . Z00 ...
ROW 1E : ... .. . ... ... : ... .. . ... ... : ... .. . ... : ... .. . ... : ... .. . Z00 ...
ROW 1F : ... .. . ... ... : ... .. . ... ... : ... .. . ... : ... .. . ... : ... .. . Z00 ...
ROW 20 : ... .. . ... ... : ... .. . ... ... : ... .. . ... : ... .. . ... : ... .. . Z00 ...
ROW 21 : ... .. . ... ... : ... .. . ... ... : ... .. . ... : ... .. . ... : ... .. . Z00 ...
ROW 22 : ... .. . ... ... : ... .. . ... ... : ... .. . ... : ... .. . ... : ... .. . Z00 ...
ROW 23 : ... .. . ... ... : ... .. . ... ... : ... .. . ... : ... .. . ... : ... .. . Z00 ...
ROW 24 : ... .. . ... ... : ... .. . ... ... : ... .. . ... : ... .. . ... : ... .. . Z00 ...
ROW 25 : ... .. . ... ... : ... .. . ... ... : ... .. . ... : ... .. . ... : ... .. . Z00 ...
ROW 26 : ... .. . ... ... : ... .. . ... ... : ... .. . ... : ... .. . ... : ... .. . Z00 ...
ROW 27 : ... .. . ... ... : ... .. . ... ... : ... .. . ... : ... .. . ... : ... .. . Z00 ...
ROW 28 : ... .. . ... ... : ... .. . ... ... : ... .. . ... : ... .. . ... : ... .. . Z00 ...
ROW 29 : ... .. . ... ... : ... .. . ... ... : ... .. . ... : ... .. . ... : ... .. . Z00 ...
ROW 2A : ... .. . ... ... : ... .. . ... ... : ... .. . ... : ... .. . ... : ... .. . Z00 ...
ROW 2B : ... .. . ... ... : ... .. . ... ... : ... .. . ... : ... .. . ... : ... .. . Z00 ...
ROW 2C : ... .. . ... ... : ... .. . ... ... : ... .. . ... : ... .. . ... : ... .. . Z00 ...
ROW 2D : ... .. . ... ... : ... .. . ... ... : ... .. . ... : ... .. . ... : ... .. . Z00 ...
ROW 2E : ... .. 5 ... ... : ... .. 5 ... ... : ... .. . ... : ... .. . ... : ... .. . Z00 ...
ROW 2F : ... .. . ... ... : ... .. . ... ... : ... .. . ... : ... .. . ... : ... .. . Z00 ...
ROW 30 : F-4 00 5 P80 V00 : A-3 00 5 P7E V00 : D-3 00 . P81 : ... .. . ... : ... .. . Z00 ...
ROW 31 : ... .. 3 ... V02 : ... .. 3 ... V02 : ... .. . ... : ... .. . ... : ... .. . Z00 ...
ROW 32 : ... .. 4 ... ... : ... .. 4 ... ... : ... .. . ... : ... .. . ... : ... .. . Z00 ...
ROW 33 : ... .. 5 ... ... : ... .. 5 ... ... : ... .. . ... : ... .. . ... : ... .. . Z00 ...
ROW 34 : ... .. . ... ... : ... .. . ... ... : ... .. . ... : ... .. . ... : ... .. . Z00 ...
ROW 35 : ... .. 6 ... ... : ... .. 6 ... ... : ... .. . ... : ... .. . ... : ... .. . Z00 ...
ROW 36 : ... .. . ... ... : ... .. . ... ... : ... .. . ... : ... .. . ... : ... .. . Z00 ...
ROW 37 : ... .. . ... ... : ... .. . ... ... : ... .. . ... : ... .. . ... : ... .. . Z00 ...
ROW 38 : ... .. . ... ... : ... .. . ... ... : ... .. . ... : ... .. . ... : ... .. . Z00 ...
ROW 39 : ... .. . ... ... : ... .. . ... ... : ... .. . ... : ... .. . ... : ... .. . Z00 ...
ROW 3A : ... .. . ... ... : ... .. . ... ... : ... .. . ... : ... .. . ... : ... .. . Z00 ...
ROW 3B : ... .. . ... ... : ... .. . ... ... : ... .. . ... : ... .. . ... : ... .. . Z00 ...
ROW 3C : ... .. . ... ... : ... .. . ... ... : ... .. . ... : ... .. . ... : ... .. . Z00 ...
ROW 3D : ... .. . ... ... : ... .. . ... ... : ... .. . ... : ... .. . ... : ... .. . Z00 ...
ROW 3E : ... .. . ... ... : ... .. . ... ... : ... .. . ... : ... .. . ... : ... .. . Z00 ...
ROW 3F : ... .. . ... ... : ... .. . ... ... : ... .. . ... : ... .. . ... : ... .. . Z00 ...
ROW 40 : ... .. . ... ... : ... .. . ... ... : ... .. . ... : ... .. . ... : ... .. . Z00 ...
ROW 41 : ... .. . ... ... : ... .. . ... ... : ... .. . ... : ... .. . ... : ... .. . Z00 ...
ROW 42 : ... .. . ... ... : ... .. . ... ... : ... .. . ... : ... .. . ... : ... .. . Z00 ...
ROW 43 : ... .. . ... ... : ... .. . ... ... : ... .. . ... : ... .. . ... : ... .. . Z00 ...
ROW 44 : ... .. . ... ... : ... .. . ... ... : ... .. . ... : ... .. . ... : ... .. . Z00 ...
ROW 45 : ... .. . ... ... : ... .. . ... ... : ... .. . ... : ... .. . ... : ... .. . Z00 ...
ROW 46 : ... .. 5 ... ... : ... .. 5 ... ... : ... .. . ... : ... .. . ... : ... .. . Z00 ...
ROW 47 : ... .. . ... ... : ... .. . ... ... : ... .. . ... : ... .. . ... : ... .. . Z00 ...
ROW 48 : B-3 00 5 P7E V00 : D-3 00 5 P81 V00 : F-3 00 . P80 : ... .. . ... : ... .. . Z00 ...
ROW 49 : ... .. 3 ... V02 : ... .. 3 ... V02 : ... .. . ... : ... .. . ... : ... .. . Z00 ...
ROW 4A : ... .. 4 ... ... : ... .. 4 ... ... : ... .. . ... : ... .. . ... : ... .. . Z00 ...
ROW 4B : ... .. 5 ... ... : ... .. 5 ... ... : ... .. . ... : ... .. . ... : ... .. . Z00 ...
ROW 4C : ... .. . ... ... : ... .. . ... ... : ... .. . ... : ... .. . ... : ... .. . Z00 ...
ROW 4D : ... .. 6 ... ... : ... .. 6 ... ... : ... .. . ... : ... .. . ... : ... .. . Z00 ...
ROW 4E : ... .. . ... ... : ... .. . ... ... : ... .. . ... : ... .. . ... : ... .. . Z00 ...
ROW 4F : ... .. . ... ... : ... .. . ... ... : ... .. . ... : ... .. . ... : ... .. . Z00 ...
ROW 50 : ... .. . ... ... : ... .. . ... ... : ... .. . ... : ... .. . ... : ... .. . Z00 ...
ROW 51 : ... .. . ... ... : ... .. . ... ... : ... .. . ... : ... .. . ... : ... .. . Z00 ...
ROW 52 : ... .. . ... ... : ... .. . ... ... : ... .. . ... : ... .. . ... : ... .. . Z00 ...
ROW 53 : ... .. . ... ... : ... .. . ... ... : ... .. . ... : ... .. . ... : ... .. . Z00 ...
ROW 54 : ... .. . ... ... : ... .. . ... ... : ... .. . ... : ... .. . ... : ... .. . Z00 ...
ROW 55 : ... .. . ... ... : ... .. . ... ... : ... .. . ... : ... .. . ... : ... .. . Z00 ...
ROW 56 : ... .. . ... ... : ... .. . ... ... : ... .. . ... : ... .. . ... : ... .. . Z00 ...
ROW 57 : ... .. . ... ... : ... .. . ... ... : ... .. . ... : ... .. . ... : ... .. . Z00 ...
ROW 58 : ... .. . ... ... : ... .. . ... ... : ... .. . ... : ... .. . ... : ... .. . Z00 ...
ROW 59 : ... .. . ... ... : ... .. . ... ... : ... .. . ... : ... .. . ... : ... .. . Z00 ...
ROW 5A : ... .. . ... ... : ... .. . ... ... : ... .. . ... : ... .. . ... : ... .. . Z00 ...
ROW 5B : ... .. . ... ... : ... .. . ... ... : ... .. . ... : ... .. . ... : ... .. . Z00 ...
ROW 5C : ... .. . ... ... : ... .. . ... ... : ... .. . ... : ... .. . ... : ... .. . Z00 ...
ROW 5D : ... .. . ... ... : ... .. . ... ... : ... .. . ... : ... .. . ... : ... .. . Z00 ...
ROW 5E : ... .. 5 ... ... : ... .. 5 ... ... : ... .. . ... : ... .. . ... : ... .. . Z00 ...
ROW 5F : ... .. . ... ... : ... .. . ... ... : ... .. . ... : ... .. . ... : ... .. . Z00 ...
ROW 60 : D-4 00 5 P80 V00 : F-3 00 5 P80 V00 : G-3 00 . P80 : ... .. . ... : ... .. . Z00 ...
ROW 61 : ... .. 3 ... V02 : ... .. 3 ... V02 : ... .. . ... : ... .. . ... : ... .. . Z00 ...
ROW 62 : ... .. 4 ... ... : ... .. 4 ... ... : ... .. . ... : ... .. . ... : ... .. . Z00 ...
ROW 63 : ... .. 5 ... ... : ... .. 5 ... ... : ... .. . ... : ... .. . ... : ... .. . Z00 ...
ROW 64 : ... .. . ... ... : ... .. . ... ... : ... .. . ... : ... .. . ... : ... .. . Z00 ...
ROW 65 : ... .. 6 ... ... : ... .. 6 ... ... : ... .. . ... : ... .. . ... : ... .. . Z00 ...
ROW 66 : ... .. . ... ... : ... .. . ... ... : ... .. . ... : ... .. . ... : ... .. . Z00 ...
ROW 67 : ... .. . ... ... : ... .. . ... ... : ... .. . ... : ... .. . ... : ... .. . Z00 ...
ROW 68 : ... .. . ... ... : ... .. . ... ... : ... .. . ... : ... .. . ... : ... .. . Z00 ...
ROW 69 : ... .. . ... ... : ... .. . ... ... : ... .. . ... : ... .. . ... : ... .. . Z00 ...
ROW 6A : ... .. . ... ... : ... .. . ... ... : ... .. . ... : ... .. . ... : ... .. . Z00 ...
ROW 6B : ... .. . ... ... : ... .. . ... ... : ... .. . ... : ... .. . ... : ... .. . Z00 ...
ROW 6C : ... .. . ... ... : ... .. . ... ... : ... .. . ... : ... .. . ... : ... .. . Z00 ...
ROW 6D : ... .. . ... ... : ... .. . ... ... : ... .. . ... : ... .. . ... : ... .. . Z00 ...
ROW 6E : ... .. . ... ... : ... .. . ... ... : ... .. . ... : ... .. . ... : ... .. . Z00 ...
ROW 6F : ... .. . ... ... : ... .. . ... ... : ... .. . ... : ... .. . ... : ... .. . Z00 ...
ROW 70 : ... .. . ... ... : ... .. . ... ... : ... .. . ... : ... .. . ... : ... .. . Z00 ...
ROW 71 : ... .. . ... ... : ... .. . ... ... : ... .. . ... : ... .. . ... : ... .. . Z00 ...
ROW 72 : ... .. . ... ... : ... .. . ... ... : ... .. . ... : ... .. . ... : ... .. . Z00 ...
ROW 73 : ... .. . ... ... : ... .. . ... ... : ... .. . ... : ... .. . ... : ... .. . Z00 ...
ROW 74 : ... .. . ... ... : ... .. . ... ... : ... .. . ... : ... .. . ... : ... .. . Z00 ...
ROW 75 : ... .. . ... ... : ... .. . ... ... : ... .. . ... : ... .. . ... : ... .. . Z00 ...
ROW 76 : ... .. 5 ... ... : ... .. 5 ... ... : ... .. . ... : ... .. . ... : ... .. . Z00 ...
ROW 77 : ... .. . ... ... : ... .. . ... ... : ... .. . ... : ... .. . ... : ... .. . Z00 ...
ROW 78 : ... .. . ... ... : ... .. 0 ... ... : G-2 00 . P81 : ... .. . ... : ... .. . Z00 ...
ROW 79 : ... .. . ... ... : ... .. . ... ... : ... .. . ... : ... .. . ... : ... .. . Z00 ...
ROW 7A : ... .. . ... ... : ... .. . ... ... : ... .. . ... : ... .. . ... : ... .. . Z00 ...
ROW 7B : ... .. . ... ... : ... .. . ... ... : ... .. . ... : ... .. . ... : ... .. . Z00 ...
ROW 7C : ... .. 4 ... ... : ... .. . ... ... : ... .. . ... : ... .. . ... : ... .. . Z00 ...
ROW 7D : ... .. . ... ... : ... .. . ... ... : ... .. . ... : ... .. . ... : ... .. . Z00 ...
ROW 7E : ... .. . ... ... : ... .. . ... ... : ... .. . ... : ... .. . ... : ... .. . Z00 ...
ROW 7F : ... .. . ... ... : ... .. . ... ... : ... .. . ... : ... .. . ... : ... .. . Z00 ...
ROW 80 : ... .. . ... ... : ... .. . ... ... : ... .. . ... : ... .. . ... : ... .. . Z00 ...
ROW 81 : ... .. . ... ... : ... .. . ... ... : ... .. . ... : ... .. . ... : ... .. . Z00 ...
ROW 82 : ... .. 3 ... ... : ... .. . ... ... : ... .. . ... : ... .. . ... : ... .. . Z00 ...
ROW 83 : ... .. . ... ... : ... .. . ... ... : ... .. . ... : ... .. . ... : ... .. . Z00 ...
ROW 84 : ... .. . ... ... : ... .. . ... ... : ... .. . ... : ... .. . ... : ... .. . Z00 ...
ROW 85 : ... .. 2 ... ... : ... .. . ... ... : ... .. . ... : ... .. . ... : ... .. . Z00 ...
ROW 86 : ... .. . ... ... : ... .. . ... ... : ... .. . ... : ... .. . ... : ... .. . Z00 ...
ROW 87 : ... .. 1 ... ... : ... .. . ... ... : ... .. . ... : ... .. . ... : ... .. . Z00 ...
ROW 88 : ... .. 0 ... ... : ... .. . ... ... : ... .. . ... : ... .. . ... : ... .. . Z00 ...
ROW 89 : ... .. . ... ... : ... .. . ... ... : ... .. . ... : ... .. . ... : ... .. . Z00 ...
ROW 8A : ... .. . ... ... : ... .. . ... ... : ... .. . ... : ... .. . ... : ... .. . Z00 ...
ROW 8B : ... .. . ... ... : ... .. . ... ... : ... .. . ... : ... .. . ... : ... .. . Z00 ...
ROW 8C : ... .. . ... ... : ... .. . ... ... : ... .. . ... : ... .. . ... : ... .. . Z00 ...
ROW 8D : ... .. . ... ... : ... .. . ... ... : ... .. . ... : ... .. . ... : ... .. . Z00 ...
ROW 8E : ... .. . ... ... : ... .. . ... ... : ... .. . ... : ... .. . ... : ... .. . Z00 ...
ROW 8F : ... .. . ... ... : ... .. . ... ... : ... .. . ... : ... .. . ... : ... .. . Z00 ...
ROW 90 : C-4 00 5 P80 V00 : E-3 00 5 P7D V00 : C-3 00 . P80 : ... .. . ... : ... .. . Z00 ...
ROW 91 : ... .. 3 ... V02 : ... .. 3 ... V02 : ... .. . ... : ... .. . ... : ... .. . Z00 ...
ROW 92 : ... .. 4 ... ... : ... .. 4 ... ... : ... .. . ... : ... .. . ... : ... .. . Z00 ...
ROW 93 : ... .. 5 ... ... : ... .. 5 ... ... : ... .. . ... : ... .. . ... : ... .. . Z00 ...
ROW 94 : ... .. . ... ... : ... .. . ... ... : ... .. . ... : ... .. . ... : ... .. . Z00 ...
ROW 95 : ... .. 6 ... ... : ... .. 6 ... ... : ... .. . ... : ... .. . ... : ... .. . Z00 ...
ROW 96 : ... .. . ... ... : ... .. . ... ... : ... .. . ... : ... .. . ... : ... .. . Z00 ...
ROW 97 : ... .. . ... ... : ... .. . ... ... : ... .. . ... : ... .. . ... : ... .. . Z00 ...
ROW 98 : ... .. . ... ... : ... .. . ... ... : ... .. . ... : ... .. . ... : ... .. . Z00 ...
ROW 99 : ... .. . ... ... : ... .. . ... ... : ... .. . ... : ... .. . ... : ... .. . Z00 ...
ROW 9A : ... .. . ... ... : ... .. . ... ... : ... .. . ... : ... .. . ... : ... .. . Z00 ...
ROW 9B : ... .. . ... ... : ... .. . ... ... : ... .. . ... : ... .. . ... : ... .. . Z00 ...
ROW 9C : ... .. . ... ... : ... .. . ... ... : ... .. . ... : ... .. . ... : ... .. . Z00 ...
ROW 9D : ... .. . ... ... : ... .. . ... ... : ... .. . ... : ... .. . ... : ... .. . Z00 ...
ROW 9E : ... .. . ... ... : ... .. . ... ... : ... .. . ... : ... .. . ... : ... .. . Z00 ...
ROW 9F : ... .. . ... ... : ... .. . ... ... : ... .. . ... : ... .. . ... : ... .. . Z00 ...
ROW A0 : ... .. . ... ... : ... .. . ... ... : ... .. . ... : ... .. . ... : ... .. . Z00 ...
ROW A1 : ... .. . ... ... : ... .. . ... ... : ... .. . ... : ... .. . ... : ... .. . Z00 ...
ROW A2 : ... .. . ... ... : ... .. . ... ... : ... .. . ... : ... .. . ... : ... .. . Z00 ...
ROW A3 : ... .. . ... ... : ... .. . ... ... : ... .. . ... : ... .. . ... : ... .. . Z00 ...
ROW A4 : ... .. . ... ... : ... .. . ... ... : ... .. . ... : ... .. . ... : ... .. . Z00 ...
ROW A5 : ... .. . ... ... : ... .. . ... ... : ... .. . ... : ... .. . ... : ... .. . Z00 ...
ROW A6 : ... .. 5 ... ... : ... .. 5 ... ... : ... .. . ... : ... .. . ... : ... .. . Z00 ...
ROW A7 : ... .. . ... ... : ... .. . ... ... : ... .. . ... : ... .. . ... : ... .. . Z00 ...
ROW A8 : G-3 00 5 P80 V00 : ... .. 0 ... ... : B-2 00 . P7D : ... .. . ... : ... .. . Z00 ...
ROW A9 : ... .. 3 ... V02 : ... .. . ... ... : ... .. . ... : ... .. . ... : ... .. . Z00 ...
ROW AA : ... .. 4 ... ... : ... .. . ... ... : ... .. . ... : ... .. . ... : ... .. . Z00 ...
ROW AB : ... .. 5 ... ... : ... .. . ... ... : ... .. . ... : ... .. . ... : ... .. . Z00 ...
ROW AC : ... .. . ... ... : ... .. . ... ... : ... .. . ... : ... .. . ... : ... .. . Z00 ...
ROW AD : ... .. 6 ... ... : ... .. . ... ... : ... .. . ... : ... .. . ... : ... .. . Z00 ...
ROW AE : ... .. . ... ... : ... .. . ... ... : ... .. . ... : ... .. . ... : ... .. . Z00 ...
ROW AF : ... .. . ... ... : ... .. . ... ... : ... .. . ... : ... .. . ... : ... .. . Z00 ...
ROW B0 : F#3 00 5 P7D V00 : ... .. . ... ... : ... .. . ... : ... .. . ... : ... .. . Z00 ...
ROW B1 : ... .. 3 ... V02 : ... .. . ... ... : ... .. . ... : ... .. . ... : ... .. . Z00 ...
ROW B2 : ... .. 4 ... ... : ... .. . ... ... : ... .. . ... : ... .. . ... : ... .. . Z00 ...
ROW B3 : ... .. 5 ... ... : ... .. . ... ... : ... .. . ... : ... .. . ... : ... .. . Z00 ...
ROW B4 : ... .. . ... ... : ... .. . ... ... : ... .. . ... : ... .. . ... : ... .. . Z00 ...
ROW B5 : ... .. 6 ... ... : ... .. . ... ... : ... .. . ... : ... .. . ... : ... .. . Z00 ...
ROW B6 : ... .. . ... ... : ... .. . ... ... : ... .. . ... : ... .. . ... : ... .. . Z00 ...
ROW B7 : ... .. . ... ... : ... .. . ... ... : ... .. . ... : ... .. . ... : ... .. . Z00 ...
ROW B8 : G-3 00 5 P80 V00 : ... .. . ... ... : ... .. . ... : ... .. . ... : ... .. . Z00 ...
ROW B9 : ... .. 3 ... V02 : ... .. . ... ... : ... .. . ... : ... .. . ... : ... .. . Z00 ...
ROW BA : ... .. 4 ... ... : ... .. . ... ... : ... .. . ... : ... .. . ... : ... .. . Z00 ...
ROW BB : ... .. 5 ... ... : ... .. . ... ... : ... .. . ... : ... .. . ... : ... .. . Z00 ...
ROW BC : ... .. . ... ... : ... .. . ... ... : ... .. . ... : ... .. . ... : ... .. . Z00 ...
ROW BD : ... .. 6 ... ... : ... .. . ... ... : ... .. . ... : ... .. . ... : ... .. . Z00 ...
ROW BE : ... .. . ... ... : ... .. . ... ... : ... .. . ... : ... .. . ... : ... .. . Z00 ...
ROW BF : ... .. . ... ... : ... .. . ... ... : ... .. . ... : ... .. . ... : ... .. . Z00 ...

PATTERN 03
ROW 00 : ... .. . ... ... : ... .. . ... ... : ... .. . ... : ... .. . ... : ... .. . Z00 ...
ROW 01 : ... .. . ... ... : ... .. . ... ... : ... .. . ... : ... .. . ... : ... .. . Z00 ...
ROW 02 : ... .. . ... ... : ... .. . ... ... : ... .. . ... : ... .. . ... : ... .. . Z00 ...
ROW 03 : ... .. . ... ... : ... .. . ... ... : ... .. . ... : ... .. . ... : ... .. . Z00 ...
ROW 04 : ... .. . ... ... : ... .. . ... ... : ... .. . ... : ... .. . ... : ... .. . Z00 ...
ROW 05 : ... .. . ... ... : ... .. . ... ... : ... .. . ... : ... .. . ... : ... .. . Z00 ...
ROW 06 : ... .. . ... ... : ... .. . ... ... : ... .. . ... : ... .. . ... : ... .. . Z00 ...
ROW 07 : ... .. . ... ... : ... .. . ... ... : ... .. . ... : ... .. . ... : ... .. . Z00 ...
ROW 08 : ... .. . ... ... : ... .. . ... ... : ... .. . ... : ... .. . ... : ... .. . Z00 ...
ROW 09 : ... .. . ... ... : ... .. . ... ... : ... .. . ... : ... .. . ... : ... .. . Z00 ...
ROW 0A : ... .. . ... ... : ... .. . ... ... : ... .. . ... : ... .. . ... : ... .. . Z00 ...
ROW 0B : ... .. . ... ... : ... .. . ... ... : ... .. . ... : ... .. . ... : ... .. . Z00 ...
ROW 0C : ... .. . ... ... : ... .. . ... ... : ... .. . ... : ... .. . ... : ... .. . Z00 ...
ROW 0D : ... .. . ... ... : ... .. . ... ... : ... .. . ... : ... .. . ... : ... .. . Z00 ...
ROW 0E : ... .. . ... ... : ... .. . ... ... : ... .. . ... : ... .. . ... : ... .. . Z00 ...
ROW 0F : ... .. . ... ... : ... .. . ... ... : ... .. . ... : ... .. . ... : ... .. . Z00 ...
ROW 10 : ... .. . ... ... : ... .. . ... ... : ... .. . ... : ... .. . ... : ... .. . Z00 ...
ROW 11 : ... .. . ... ... : ... .. . ... ... : ... .. . ... : ... .. . ... : ... .. . Z00 ...
ROW 12 : ... .. . ... ... : ... .. . ... ... : ... .. . ... : ... .. . ... : ... .. . Z00 ...
ROW 13 : ... .. . ... ... : ... .. . ... ... : ... .. . ... : ... .. . ... : ... .. . Z00 ...
ROW 14 : ... .. . ... ... : ... .. . ... ... : ... .. . ... : ... .. . ... : ... .. . Z00 ...
ROW 15 : ... .. . ... ... : ... .. . ... ... : ... .. . ... : ... .. . ... : ... .. . Z00 ...
ROW 16 : ... .. . ... ... : ... .. . ... ... : ... .. . ... : ... .. . ... : ... .. . Z00 ...
ROW 17 : ... .. . ... ... : ... .. . ... ... : ... .. . ... : ... .. . ... : ... .. . Z00 ...
ROW 18 : ... .. . ... ... : ... .. . ... ... : ... .. . ... : ... .. . ... : ... .. . Z00 ...
ROW 19 : ... .. . ... ... : ... .. . ... ... : ... .. . ... : ... .. . ... : ... .. . Z00 ...
ROW 1A : ... .. . ... ... : ... .. . ... ... : ... .. . ... : ... .. . ... : ... .. . Z00 ...
ROW 1B : ... .. . ... ... : ... .. . ... ... : ... .. . ... : ... .. . ... : ... .. . Z00 ...
ROW 1C : ... .. . ... ... : ... .. . ... ... : ... .. . ... : ... .. . ... : ... .. . Z00 ...
ROW 1D : ... .. . ... ... : ... .. . ... ... : ... .. . ... : ... .. . ... : ... .. . Z00 ...
ROW 1E : ... .. . ... ... : ... .. . ... ... : ... .. . ... : ... .. . ... : ... .. . Z00 ...
ROW 1F : ... .. . ... ... : ... .. . ... ... : ... .. . ... : ... .. . ... : ... .. . Z00 ...
ROW 20 : ... .. . ... ... : ... .. . ... ... : ... .. . ... : ... .. . ... : ... .. . Z00 ...
ROW 21 : ... .. . ... ... : ... .. . ... ... : ... .. . ... : ... .. . ... : ... .. . Z00 ...
ROW 22 : ... .. . ... ... : ... .. . ... ... : ... .. . ... : ... .. . ... : ... .. . Z00 ...
ROW 23 : ... .. . ... ... : ... .. . ... ... : ... .. . ... : ... .. . ... : ... .. . Z00 ...
ROW 24 : ... .. . ... ... : ... .. . ... ... : ... .. . ... : ... .. . ... : ... .. . Z00 ...
ROW 25 : ... .. . ... ... : ... .. . ... ... : ... .. . ... : ... .. . ... : ... .. . Z00 ...
ROW 26 : ... .. . ... ... : ... .. . ... ... : ... .. . ... : ... .. . ... : ... .. . Z00 ...
ROW 27 : ... .. . ... ... : ... .. . ... ... : ... .. . ... : ... .. . ... : ... .. . Z00 ...
ROW 28 : ... .. . ... ... : ... .. . ... ... : ... .. . ... : ... .. . ... : ... .. . Z00 ...
ROW 29 : ... .. . ... ... : ... .. . ... ... : ... .. . ... : ... .. . ... : ... .. . Z00 ...
ROW 2A : ... .. . ... ... : ... .. . ... ... : ... .. . ... : ... .. . ... : ... .. . Z00 ...
ROW 2B : ... .. . ... ... : ... .. . ... ... : ... .. . ... : ... .. . ... : ... .. . Z00 ...
ROW 2C : ... .. . ... ... : ... .. . ... ... : ... .. . ... : ... .. . ... : ... .. . Z00 ...
ROW 2D : ... .. . ... ... : ... .. . ... ... : ... .. . ... : ... .. . ... : ... .. . Z00 ...
ROW 2E : ... .. . ... ... : ... .. . ... ... : ... .. . ... : ... .. . ... : ... .. . Z00 ...
ROW 2F : ... .. . ... ... : ... .. . ... ... : ... .. . ... : ... .. . ... : ... .. . Z00 ...
ROW 30 : ... .. . ... ... : ... .. . ... ... : ... .. . ... : ... .. . ... : ... .. . Z00 ...
ROW 31 : ... .. . ... ... : ... .. . ... ... : ... .. . ... : ... .. . ... : ... .. . Z00 ...
ROW 32 : ... .. . ... ... : ... .. . ... ... : ... .. . ... : ... .. . ... : ... .. . Z00 ...
ROW 33 : ... .. . ... ... : ... .. . ... ... : ... .. . ... : ... .. . ... : ... .. . Z00 ...
ROW 34 : ... .. . ... ... : ... .. . ... ... : ... .. . ... : ... .. . ... : ... .. . Z00 ...
ROW 35 : ... .. . ... ... : ... .. . ... ... : ... .. . ... : ... .. . ... : ... .. . Z00 ...
ROW 36 : ... .. . ... ... : ... .. . ... ... : ... .. . ... : ... .. . ... : ... .. . Z00 ...
ROW 37 : ... .. . ... ... : ... .. . ... ... : ... .. . ... : ... .. . ... : ... .. . Z00 ...
ROW 38 : ... .. . ... ... : ... .. . ... ... : ... .. . ... : ... .. . ... : ... .. . Z00 ...
ROW 39 : ... .. . ... ... : ... .. . ... ... : ... .. . ... : ... .. . ... : ... .. . Z00 ...
ROW 3A : ... .. . ... ... : ... .. . ... ... : ... .. . ... : ... .. . ... : ... .. . Z00 ...
ROW 3B : ... .. . ... ... : ... .. . ... ... : ... .. . ... : ... .. . ... : ... .. . Z00 ...
ROW 3C : ... .. . ... ... : ... .. . ... ... : ... .. . ... : ... .. . ... : ... .. . Z00 ...
ROW 3D : ... .. . ... ... : ... .. . ... ... : ... .. . ... : ... .. . ... : ... .. . Z00 ...
ROW 3E : ... .. . ... ... : ... .. . ... ... : ... .. . ... : ... .. . ... : ... .. . Z00 ...
ROW 3F : ... .. . ... ... : ... .. . ... ... : ... .. . ... : ... .. . ... : ... .. . Z00 ...
ROW 40 : ... .. . ... ... : ... .. . ... ... : ... .. . ... : ... .. . ... : ... .. . Z00 ...
ROW 41 : ... .. . ... ... : ... .. . ... ... : ... .. . ... : ... .. . ... : ... .. . Z00 ...
ROW 42 : ... .. . ... ... : ... .. . ... ... : ... .. . ... : ... .. . ... : ... .. . Z00 ...
ROW 43 : ... .. . ... ... : ... .. . ... ... : ... .. . ... : ... .. . ... : ... .. . Z00 ...
ROW 44 : ... .. . ... ... : ... .. . ... ... : ... .. . ... : ... .. . ... : ... .. . Z00 ...
ROW 45 : ... .. . ... ... : ... .. . ... ... : ... .. . ... : ... .. . ... : ... .. . Z00 ...
ROW 46 : ... .. . ... ... : ... .. . ... ... : ... .. . ... : ... .. . ... : ... .. . Z00 ...
ROW 47 : ... .. . ... ... : ... .. . ... ... : ... .. . ... : ... .. . ... : ... .. . Z00 ...
ROW 48 : ... .. . ... ... : ... .. . ... ... : ... .. . ... : ... .. . ... : ... .. . Z00 ...
ROW 49 : ... .. . ... ... : ... .. . ... ... : ... .. . ... : ... .. . ... : ... .. . Z00 ...
ROW 4A : ... .. . ... ... : ... .. . ... ... : ... .. . ... : ... .. . ... : ... .. . Z00 ...
ROW 4B : ... .. . ... ... : ... .. . ... ... : ... .. . ... : ... .. . ... : ... .. . Z00 ...
ROW 4C : ... .. . ... ... : ... .. . ... ... : ... .. . ... : ... .. . ... : ... .. . Z00 ...
ROW 4D : ... .. . ... ... : ... .. . ... ... : ... .. . ... : ... .. . ... : ... .. . Z00 ...
ROW 4E : ... .. . ... ... : ... .. . ... ... : ... .. . ... : ... .. . ... : ... .. . Z00 ...
ROW 4F : ... .. . ... ... : ... .. . ... ... : ... .. . ... : ... .. . ... : ... .. . Z00 ...
ROW 50 : ... .. . ... ... : ... .. . ... ... : ... .. . ... : ... .. . ... : ... .. . Z00 ...
ROW 51 : ... .. . ... ... : ... .. . ... ... : ... .. . ... : ... .. . ... : ... .. . Z00 ...
ROW 52 : ... .. . ... ... : ... .. . ... ... : ... .. . ... : ... .. . ... : ... .. . Z00 ...
ROW 53 : ... .. . ... ... : ... .. . ... ... : ... .. . ... : ... .. . ... : ... .. . Z00 ...
ROW 54 : ... .. . ... ... : ... .. . ... ... : ... .. . ... : ... .. . ... : ... .. . Z00 ...
ROW 55 : ... .. . ... ... : ... .. . ... ... : ... .. . ... : ... .. . ... : ... .. . Z00 ...
ROW 56 : ... .. . ... ... : ... .. . ... ... : ... .. . ... : ... .. . ... : ... .. . Z00 ...
ROW 57 : ... .. . ... ... : ... .. . ... ... : ... .. . ... : ... .. . ... : ... .. . Z00 ...
ROW 58 : ... .. . ... ... : ... .. . ... ... : ... .. . ... : ... .. . ... : ... .. . Z00 ...
ROW 59 : ... .. . ... ... : ... .. . ... ... : ... .. . ... : ... .. . ... : ... .. . Z00 ...
ROW 5A : ... .. . ... ... : ... .. . ... ... : ... .. . ... : ... .. . ... : ... .. . Z00 ...
ROW 5B : ... .. . ... ... : ... .. . ... ... : ... .. . ... : ... .. . ... : ... .. . Z00 ...
ROW 5C : ... .. . ... ... : ... .. . ... ... : ... .. . ... : ... .. . ... : ... .. . Z00 ...
ROW 5D : ... .. . ... ... : ... .. . ... ... : ... .. . ... : ... .. . ... : ... .. . Z00 ...
ROW 5E : ... .. . ... ... : ... .. . ... ... : ... .. . ... : ... .. . ... : ... .. . Z00 ...
ROW 5F : ... .. . ... ... : ... .. . ... ... : ... .. . ... : ... .. . ... : ... .. . Z00 ...
ROW 60 : ... .. . ... ... : ... .. . ... ... : ... .. . ... : ... .. . ... : ... .. . Z00 ...
ROW 61 : ... .. . ... ... : ... .. . ... ... : ... .. . ... : ... .. . ... : ... .. . Z00 ...
ROW 62 : ... .. . ... ... : ... .. . ... ... : ... .. . ... : ... .. . ... : ... .. . Z00 ...
ROW 63 : ... .. . ... ... : ... .. . ... ... : ... .. . ... : ... .. . ... : ... .. . Z00 ...
ROW 64 : ... .. . ... ... : ... .. . ... ... : ... .. . ... : ... .. . ... : ... .. . Z00 ...
ROW 65 : ... .. . ... ... : ... .. . ... ... : ... .. . ... : ... .. . ... : ... .. . Z00 ...
ROW 66 : ... .. . ... ... : ... .. . ... ... : ... .. . ... : ... .. . ... : ... .. . Z00 ...
ROW 67 : ... .. . ... ... : ... .. . ... ... : ... .. . ... : ... .. . ... : ... .. . Z00 ...
ROW 68 : ... .. . ... ... : ... .. . ... ... : ... .. . ... : ... .. . ... : ... .. . Z00 ...
ROW 69 : ... .. . ... ... : ... .. . ... ... : ... .. . ... : ... .. . ... : ... .. . Z00 ...
ROW 6A : ... .. . ... ... : ... .. . ... ... : ... .. . ... : ... .. . ... : ... .. . Z00 ...
ROW 6B : ... .. . ... ... : ... .. . ... ... : ... .. . ... : ... .. . ... : ... .. . Z00 ...
ROW 6C : ... .. . ... ... : ... .. . ... ... : ... .. . ... : ... .. . ... : ... .. . Z00 ...
ROW 6D : ... .. . ... ... : ... .. . ... ... : ... .. . ... : ... .. . ... : ... .. . Z00 ...
ROW 6E : ... .. . ... ... : ... .. . ... ... : ... .. . ... : ... .. . ... : ... .. . Z00 ...
ROW 6F : ... .. . ... ... : ... .. . ... ... : ... .. . ... : ... .. . ... : ... .. . Z00 ...
ROW 70 : ... .. . ... ... : ... .. . ... ... : ... .. . ... : ... .. . ... : ... .. . Z00 ...
ROW 71 : ... .. . ... ... : ... .. . ... ... : ... .. . ... : ... .. . ... : ... .. . Z00 ...
ROW 72 : ... .. . ... ... : ... .. . ... ... : ... .. . ... : ... .. . ... : ... .. . Z00 ...
ROW 73 : ... .. . ... ... : ... .. . ... ... : ... .. . ... : ... .. . ... : ... .. . Z00 ...
ROW 74 : ... .. . ... ... : ... .. . ... ... : ... .. . ... : ... .. . ... : ... .. . Z00 ...
ROW 75 : ... .. . ... ... : ... .. . ... ... : ... .. . ... : ... .. . ... : ... .. . Z00 ...
ROW 76 : ... .. . ... ... : ... .. . ... ... : ... .. . ... : ... .. . ... : ... .. . Z00 ...
ROW 77 : ... .. . ... ... : ... .. . ... ... : ... .. . ... : ... .. . ... : ... .. . Z00 ...
ROW 78 : ... .. . ... ... : ... .. . ... ... : ... .. . ... : ... .. . ... : ... .. . Z00 ...
ROW 79 : ... .. . ... ... : ... .. . ... ... : ... .. . ... : ... .. . ... : ... .. . Z00 ...
ROW 7A : ... .. . ... ... : ... .. . ... ... : ... .. . ... : ... .. . ... : ... .. . Z00 ...
ROW 7B : ... .. . ... ... : ... .. . ... ... : ... .. . ... : ... .. . ... : ... .. . Z00 ...
ROW 7C : ... .. . ... ... : ... .. . ... ... : ... .. . ... : ... .. . ... : ... .. . Z00 ...
ROW 7D : ... .. . ... ... : ... .. . ... ... : ... .. . ... : ... .. . ... : ... .. . Z00 ...
ROW 7E : ... .. . ... ... : ... .. . ... ... : ... .. . ... : ... .. . ... : ... .. . Z00 ...
ROW 7F : ... .. . ... ... : ... .. . ... ... : ... .. . ... : ... .. . ... : ... .. . Z00 ...
ROW 80 : ... .. . ... ... : ... .. . ... ... : ... .. . ... : ... .. . ... : ... .. . Z00 ...
ROW 81 : ... .. . ... ... : ... .. . ... ... : ... .. . ... : ... .. . ... : ... .. . Z00 ...
ROW 82 : ... .. . ... ... : ... .. . ... ... : ... .. . ... : ... .. . ... : ... .. . Z00 ...
ROW 83 : ... .. . ... ... : ... .. . ... ... : ... .. . ... : ... .. . ... : ... .. . Z00 ...
ROW 84 : ... .. . ... ... : ... .. . ... ... : ... .. . ... : ... .. . ... : ... .. . Z00 ...
ROW 85 : ... .. . ... ... : ... .. . ... ... : ... .. . ... : ... .. . ... : ... .. . Z00 ...
ROW 86 : ... .. . ... ... : ... .. . ... ... : ... .. . ... : ... .. . ... : ... .. . Z00 ...
ROW 87 : ... .. . ... ... : ... .. . ... ... : ... .. . ... : ... .. . ... : ... .. . Z00 ...
ROW 88 : ... .. . ... ... : ... .. . ... ... : ... .. . ... : ... .. . ... : ... .. . Z00 ...
ROW 89 : ... .. . ... ... : ... .. . ... ... : ... .. . ... : ... .. . ... : ... .. . Z00 ...
ROW 8A : ... .. . ... ... : ... .. . ... ... : ... .. . ... : ... .. . ... : ... .. . Z00 ...
ROW 8B : ... .. . ... ... : ... .. . ... ... : ... .. . ... : ... .. . ... : ... .. . Z00 ...
ROW 8C : ... .. . ... ... : ... .. . ... ... : ... .. . ... : ... .. . ... : ... .. . Z00 ...
ROW 8D : ... .. . ... ... : ... .. . ... ... : ... .. . ... : ... .. . ... : ... .. . Z00 ...
ROW 8E : ... .. . ... ... : ... .. . ... ... : ... .. . ... : ... .. . ... : ... .. . Z00 ...
ROW 8F : ... .. . ... ... : ... .. . ... ... : ... .. . ... : ... .. . ... : ... .. . Z00 ...
ROW 90 : ... .. . ... ... : ... .. . ... ... : ... .. . ... : ... .. . ... : ... .. . Z00 ...
ROW 91 : ... .. . ... ... : ... .. . ... ... : ... .. . ... : ... .. . ... : ... .. . Z00 ...
ROW 92 : ... .. . ... ... : ... .. . ... ... : ... .. . ... : ... .. . ... : ... .. . Z00 ...
ROW 93 : ... .. . ... ... : ... .. . ... ... : ... .. . ... : ... .. . ... : ... .. . Z00 ...
ROW 94 : ... .. . ... ... : ... .. . ... ... : ... .. . ... : ... .. . ... : ... .. . Z00 ...
ROW 95 : ... .. . ... ... : ... .. . ... ... : ... .. . ... : ... .. . ... : ... .. . Z00 ...
ROW 96 : ... .. . ... ... : ... .. . ... ... : ... .. . ... : ... .. . ... : ... .. . Z00 ...
ROW 97 : ... .. . ... ... : ... .. . ... ... : ... .. . ... : ... .. . ... : ... .. . Z00 ...
ROW 98 : ... .. . ... ... : ... .. . ... ... : ... .. . ... : ... .. . ... : ... .. . Z00 ...
ROW 99 : ... .. . ... ... : ... .. . ... ... : ... .. . ... : ... .. . ... : ... .. . Z00 ...
ROW 9A : ... .. . ... ... : ... .. . ... ... : ... .. . ... : ... .. . ... : ... .. . Z00 ...
ROW 9B : ... .. . ... ... : ... .. . ... ... : ... .. . ... : ... .. . ... : ... .. . Z00 ...
ROW 9C : ... .. . ... ... : ... .. . ... ... : ... .. . ... : ... .. . ... : ... .. . Z00 ...
ROW 9D : ... .. . ... ... : ... .. . ... ... : ... .. . ... : ... .. . ... : ... .. . Z00 ...
ROW 9E : ... .. . ... ... : ... .. . ... ... : ... .. . ... : ... .. . ... : ... .. . Z00 ...
ROW 9F : ... .. . ... ... : ... .. . ... ... : ... .. . ... : ... .. . ... : ... .. . Z00 ...
ROW A0 : ... .. . ... ... : ... .. . ... ... : ... .. . ... : ... .. . ... : ... .. . Z00 ...
ROW A1 : ... .. . ... ... : ... .. . ... ... : ... .. . ... : ... .. . ... : ... .. . Z00 ...
ROW A2 : ... .. . ... ... : ... .. . ... ... : ... .. . ... : ... .. . ... : ... .. . Z00 ...
ROW A3 : ... .. . ... ... : ... .. . ... ... : ... .. . ... : ... .. . ... : ... .. . Z00 ...
ROW A4 : ... .. . ... ... : ... .. . ... ... : ... .. . ... : ... .. . ... : ... .. . Z00 ...
ROW A5 : ... .. . ... ... : ... .. . ... ... : ... .. . ... : ... .. . ... : ... .. . Z00 ...
ROW A6 : ... .. . ... ... : ... .. . ... ... : ... .. . ... : ... .. . ... : ... .. . Z00 ...
ROW A7 : ... .. . ... ... : ... .. . ... ... : ... .. . ... : ... .. . ... : ... .. . Z00 ...
ROW A8 : ... .. . ... ... : ... .. . ... ... : ... .. . ... : ... .. . ... : ... .. . Z00 ...
ROW A9 : ... .. . ... ... : ... .. . ... ... : ... .. . ... : ... .. . ... : ... .. . Z00 ...
ROW AA : ... .. . ... ... : ... .. . ... ... : ... .. . ... : ... .. . ... : ... .. . Z00 ...
ROW AB : ... .. . ... ... : ... .. . ... ... : ... .. . ... : ... .. . ... : ... .. . Z00 ...
ROW AC : ... .. . ... ... : ... .. . ... ... : ... .. . ... : ... .. . ... : ... .. . Z00 ...
ROW AD : ... .. . ... ... : ... .. . ... ... : ... .. . ... : ... .. . ... : ... .. . Z00 ...
ROW AE : ... .. . ... ... : ... .. . ... ... : ... .. . ... : ... .. . ... : ... .. . Z00 ...
ROW AF : ... .. . ... ... : ... .. . ... ... : ... .. . ... : ... .. . ... : ... .. . Z00 ...
ROW B0 : ... .. . ... ... : ... .. . ... ... : ... .. . ... : ... .. . ... : ... .. . Z00 ...
ROW B1 : ... .. . ... ... : ... .. . ... ... : ... .. . ... : ... .. . ... : ... .. . Z00 ...
ROW B2 : ... .. . ... ... : ... .. . ... ... : ... .. . ... : ... .. . ... : ... .. . Z00 ...
ROW B3 : ... .. . ... ... : ... .. . ... ... : ... .. . ... : ... .. . ... : ... .. . Z00 ...
ROW B4 : ... .. . ... ... : ... .. . ... ... : ... .. . ... : ... .. . ... : ... .. . Z00 ...
ROW B5 : ... .. . ... ... : ... .. . ... ... : ... .. . ... : ... .. . ... : ... .. . Z00 ...
ROW B6 : ... .. . ... ... : ... .. . ... ... : ... .. . ... : ... .. . ... : ... .. . Z00 ...
ROW B7 : ... .. . ... ... : ... .. . ... ... : ... .. . ... : ... .. . ... : ... .. . Z00 ...
ROW B8 : ... .. . ... ... : ... .. . ... ... : ... .. . ... : ... .. . ... : ... .. . Z00 ...
ROW B9 : ... .. . ... ... : ... .. . ... ... : ... .. . ... : ... .. . ... : ... .. . Z00 ...
ROW BA : ... .. . ... ... : ... .. . ... ... : ... .. . ... : ... .. . ... : ... .. . Z00 ...
ROW BB : ... .. . ... ... : ... .. . ... ... : ... .. . ... : ... .. . ... : ... .. . Z00 ...
ROW BC : ... .. . ... ... : ... .. . ... ... : ... .. . ... : ... .. . ... : ... .. . Z00 ...
ROW BD : ... .. . ... ... : ... .. . ... ... : ... .. . ... : ... .. . ... : ... .. . Z00 ...
ROW BE : ... .. . ... ... : ... .. . ... ... : ... .. . ... : ... .. . ... : ... .. . Z00 ...
ROW BF : ... .. . ... ... : ... .. . ... ... : ... .. . ... : ... .. . ... : ... .. . Z00 B02

TRACK 168   1 150 "Hurryworld"
COLUMNS : 2 2 1 1 2

ORDER 00 : 00 00 00 00 00

PATTERN 00
ROW 00 : E-2 00 5 P7B V00 : E-3 00 5 P7D V00 : B-3 00 . P7E : F-# 00 0 V00 : --- .. . Z30 ...
ROW 01 : ... .. 3 ... V02 : ... .. 3 ... V02 : ... .. . ... : ... .. . ... : ... .. . Z2F ...
ROW 02 : ... .. 4 ... ... : ... .. 4 ... ... : ... .. . ... : ... .. . ... : ... .. . Z2E ...
ROW 03 : ... .. 5 ... ... : ... .. 5 ... ... : ... .. . ... : ... .. . ... : ... .. . Z2D ...
ROW 04 : ... .. . ... ... : ... .. . ... ... : ... .. . ... : ... .. . ... : ... .. . Z2C ...
ROW 05 : ... .. 6 ... ... : ... .. 6 ... ... : ... .. . ... : ... .. . ... : ... .. . Z2B ...
ROW 06 : G#3 00 5 P82 V00 : D-4 00 5 P80 V00 : B-4 00 . P7F : ... .. . ... : ... .. . Z2A ...
ROW 07 : ... .. 3 ... V02 : ... .. 3 ... V02 : ... .. . ... : ... .. . ... : ... .. . Z29 ...
ROW 08 : ... .. 4 ... ... : ... .. 4 ... ... : ... .. . ... : ... .. . ... : ... .. . Z28 ...
ROW 09 : ... .. 5 ... ... : ... .. 5 ... ... : ... .. . ... : ... .. . ... : ... .. . Z27 ...
ROW 0A : ... .. . ... ... : ... .. . ... ... : ... .. . ... : ... .. . ... : ... .. . Z26 ...
ROW 0B : ... .. 6 ... ... : ... .. 6 ... ... : ... .. . ... : ... .. . ... : ... .. . Z25 ...
ROW 0C : ... .. . ... ... : ... .. 0 ... ... : ... .. . ... : ... .. . ... : ... .. . Z24 ...
ROW 0D : ... .. . ... ... : ... .. . ... ... : ... .. . ... : ... .. . ... : ... .. . Z23 ...
ROW 0E : ... .. . ... ... : ... .. . ... ... : --- .. . ... : ... .. . ... : ... .. . Z22 ...
ROW 0F : ... .. . ... ... : ... .. . ... ... : ... .. . ... : ... .. . ... : ... .. . Z21 ...
ROW 10 : ... .. . ... ... : ... .. . ... ... : ... .. . ... : ... .. . ... : ... .. . Z20 ...
ROW 11 : ... .. . ... ... : ... .. . ... ... : ... .. . ... : ... .. . ... : ... .. . Z1F ...
ROW 12 : ... .. 5 ... V00 : ... .. 5 ... V00 : B-4 00 . P7F : ... .. . ... : ... .. . Z1E ...
ROW 13 : ... .. 3 ... V02 : ... .. 3 ... V02 : ... .. . ... : ... .. . ... : ... .. . Z1D ...
ROW 14 : ... .. 4 ... ... : ... .. 4 ... ... : ... .. . ... : ... .. . ... : ... .. . Z1C ...
ROW 15 : ... .. 5 ... ... : ... .. 5 ... ... : ... .. . ... : ... .. . ... : ... .. . Z1B ...
ROW 16 : ... .. . ... ... : ... .. . ... ... : ... .. . ... : ... .. . ... : ... .. . Z1A ...
ROW 17 : ... .. 6 ... ... : ... .. 6 ... ... : ... .. . ... : ... .. . ... : ... .. . Z19 ...
ROW 18 : ... .. 5 ... V00 : ... .. 5 ... V00 : ... .. . ... : ... .. . ... : ... .. . Z18 ...
ROW 19 : ... .. 3 ... V02 : ... .. 3 ... V02 : ... .. . ... : ... .. . ... : ... .. . Z17 ...
ROW 1A : ... .. 4 ... ... : ... .. 4 ... ... : ... .. . ... : ... .. . ... : ... .. . Z16 ...
ROW 1B : ... .. 5 ... ... : ... .. 5 ... ... : ... .. . ... : ... .. . ... : ... .. . Z15 ...
ROW 1C : ... .. . ... ... : ... .. . ... ... : ... .. . ... : ... .. . ... : ... .. . Z14 ...
ROW 1D : ... .. 6 ... ... : ... .. 6 ... ... : ... .. . ... : ... .. . ... : ... .. . Z13 ...
ROW 1E : ... .. . ... ... : ... .. 0 ... ... : ... .. . ... : ... .. . ... : ... .. . Z12 ...
ROW 1F : ... .. . ... ... : ... .. . ... ... : ... .. . ... : ... .. . ... : ... .. . Z11 ...
ROW 20 : ... .. . ... ... : ... .. . ... ... : --- .. . ... : ... .. . ... : ... .. . Z10 ...
ROW 21 : ... .. . ... ... : ... .. . ... ... : ... .. . ... : ... .. . ... : ... .. . Z0F ...
ROW 22 : ... .. . ... ... : ... .. . ... ... : ... .. . ... : ... .. . ... : ... .. . Z0E ...
ROW 23 : ... .. . ... ... : ... .. . ... ... : ... .. . ... : ... .. . ... : ... .. . Z0D ...
ROW 24 : F-2 00 5 P7F V00 : F-3 00 5 P80 V00 : C-4 00 . P80 : ... .. . ... : ... .. . Z0C ...
ROW 25 : ... .. 3 ... V02 : ... .. 3 ... V02 : ... .. . ... : ... .. . ... : ... .. . Z0B ...
ROW 26 : ... .. 4 ... ... : ... .. 4 ... ... : ... .. . ... : ... .. . ... : ... .. . Z0A ...
ROW 27 : ... .. 5 ... ... : ... .. 5 ... ... : ... .. . ... : ... .. . ... : ... .. . Z09 ...
ROW 28 : ... .. . ... ... : ... .. . ... ... : ... .. . ... : ... .. . ... : ... .. . Z08 ...
ROW 29 : ... .. 6 ... ... : ... .. 6 ... ... : ... .. . ... : ... .. . ... : ... .. . Z07 ...
ROW 2A : A-3 00 5 P7E V00 : D#4 00 5 P82 V00 : C-5 00 . P80 : ... .. . ... : ... .. . Z06 ...
ROW 2B : ... .. 3 ... V02 : ... .. 3 ... V02 : ... .. . ... : ... .. . ... : ... .. . Z05 ...
ROW 2C : ... .. 4 ... ... : ... .. 4 ... ... : ... .. . ... : ... .. . ... : ... .. . Z04 ...
ROW 2D : ... .. 5 ... ... : ... .. 5 ... ... : ... .. . ... : ... .. . ... : ... .. . Z03 ...
ROW 2E : ... .. . ... ... : ... .. . ... ... : ... .. . ... : ... .. . ... : ... .. . Z02 ...
ROW 2F : ... .. 6 ... ... : ... .. 6 ... ... : ... .. . ... : ... .. . ... : ... .. . Z01 ...
ROW 30 : ... .. . ... ... : ... .. 0 ... ... : ... .. . ... : ... .. . ... : ... .. . Z00 ...
ROW 31 : ... .. . ... ... : ... .. . ... ... : ... .. . ... : ... .. . ... : ... .. . Z00 ...
ROW 32 : ... .. . ... ... : ... .. . ... ... : --- .. . ... : ... .. . ... : ... .. . Z00 ...
ROW 33 : ... .. . ... ... : ... .. . ... ... : ... .. . ... : ... .. . ... : ... .. . Z00 ...
ROW 34 : ... .. . ... ... : ... .. . ... ... : ... .. . ... : ... .. . ... : ... .. . Z00 ...
ROW 35 : ... .. . ... ... : ... .. . ... ... : ... .. . ... : ... .. . ... : ... .. . Z00 ...
ROW 36 : ... .. 5 ... V00 : ... .. 5 ... V00 : C-5 00 . P80 : ... .. . ... : ... .. . Z00 ...
ROW 37 : ... .. 3 ... V02 : ... .. 3 ... V02 : ... .. . ... : ... .. . ... : ... .. . Z00 ...
ROW 38 : ... .. 4 ... ... : ... .. 4 ... ... : ... .. . ... : ... .. . ... : ... .. . Z00 ...
ROW 39 : ... .. 5 ... ... : ... .. 5 ... ... : ... .. . ... : ... .. . ... : ... .. . Z00 ...
ROW 3A : ... .. . ... ... : ... .. . ... ... : ... .. . ... : ... .. . ... : ... .. . Z00 ...
ROW 3B : ... .. 6 ... ... : ... .. 6 ... ... : ... .. . ... : ... .. . ... : ... .. . Z00 ...
ROW 3C : ... .. 5 ... V00 : ... .. 5 ... V00 : ... .. . ... : ... .. . ... : ... .. . Z00 ...
ROW 3D : ... .. 3 ... V02 : ... .. 3 ... V02 : ... .. . ... : ... .. . ... : ... .. . Z00 ...
ROW 3E : ... .. 4 ... ... : ... .. 4 ... ... : ... .. . ... : ... .. . ... : ... .. . Z00 ...
ROW 3F : ... .. 5 ... ... : ... .. 5 ... ... : ... .. . ... : ... .. . ... : ... .. . Z00 ...
ROW 40 : ... .. . ... ... : ... .. . ... ... : ... .. . ... : ... .. . ... : ... .. . Z00 ...
ROW 41 : ... .. 6 ... ... : ... .. 6 ... ... : ... .. . ... : ... .. . ... : ... .. . Z00 ...
ROW 42 : ... .. . ... ... : ... .. 0 ... ... : ... .. . ... : ... .. . ... : ... .. . Z00 ...
ROW 43 : ... .. . ... ... : ... .. . ... ... : ... .. . ... : ... .. . ... : ... .. . Z00 ...
ROW 44 : ... .. . ... ... : ... .. . ... ... : --- .. . ... : ... .. . ... : ... .. . Z00 ...
ROW 45 : ... .. . ... ... : ... .. . ... ... : ... .. . ... : ... .. . ... : ... .. . Z00 ...
ROW 46 : ... .. . ... ... : ... .. . ... ... : ... .. . ... : ... .. . ... : ... .. . Z00 ...
ROW 47 : ... .. . ... ... : ... .. . ... ... : ... .. . ... : ... .. . ... : ... .. . Z00 ...
ROW 48 : F#2 00 5 P7A V00 : F#3 00 5 P7D V00 : C#4 00 . P81 : ... .. . ... : ... .. . Z00 ...
ROW 49 : ... .. 3 ... V02 : ... .. 3 ... V02 : ... .. . ... : ... .. . ... : ... .. . Z00 ...
ROW 4A : ... .. 4 ... ... : ... .. 4 ... ... : ... .. . ... : ... .. . ... : ... .. . Z00 ...
ROW 4B : ... .. 5 ... ... : ... .. 5 ... ... : ... .. . ... : ... .. . ... : ... .. . Z00 ...
ROW 4C : ... .. . ... ... : ... .. . ... ... : ... .. . ... : ... .. . ... : ... .. . Z00 ...
ROW 4D : ... .. 6 ... ... : ... .. 6 ... ... : ... .. . ... : ... .. . ... : ... .. . Z00 ...
ROW 4E : A#3 00 5 P7C V00 : E-4 00 5 P7F V00 : C#5 00 . P81 : ... .. . ... : ... .. . Z00 ...
ROW 4F : ... .. 3 ... V02 : ... .. 3 ... V02 : ... .. . ... : ... .. . ... : ... .. . Z00 ...
ROW 50 : ... .. 4 ... ... : ... .. 4 ... ... : ... .. . ... : ... .. . ... : ... .. . Z00 ...
ROW 51 : ... .. 5 ... ... : ... .. 5 ... ... : ... .. . ... : ... .. . ... : ... .. . Z00 ...
ROW 52 : ... .. . ... ... : ... .. . ... ... : ... .. . ... : ... .. . ... : ... .. . Z00 ...
ROW 53 : ... .. 6 ... ... : ... .. 6 ... ... : ... .. . ... : ... .. . ... : ... .. . Z00 ...
ROW 54 : ... .. . ... ... : ... .. 0 ... ... : ... .. . ... : ... .. . ... : ... .. . Z00 ...
ROW 55 : ... .. . ... ... : ... .. . ... ... : ... .. . ... : ... .. . ... : ... .. . Z00 ...
ROW 56 : ... .. . ... ... : ... .. . ... ... : --- .. . ... : ... .. . ... : ... .. . Z00 ...
ROW 57 : ... .. . ... ... : ... .. . ... ... : ... .. . ... : ... .. . ... : ... .. . Z00 ...
ROW 58 : ... .. . ... ... : ... .. . ... ... : ... .. . ... : ... .. . ... : ... .. . Z00 ...
ROW 59 : ... .. . ... ... : ... .. . ... ... : ... .. . ... : ... .. . ... : ... .. . Z00 ...
ROW 5A : ... .. 5 ... V00 : ... .. 5 ... V00 : C#5 00 . P81 : ... .. . ... : ... .. . Z00 ...
ROW 5B : ... .. 3 ... V02 : ... .. 3 ... V02 : ... .. . ... : ... .. . ... : ... .. . Z00 ...
ROW 5C : ... .. 4 ... ... : ... .. 4 ... ... : ... .. . ... : ... .. . ... : ... .. . Z00 ...
ROW 5D : ... .. 5 ... ... : ... .. 5 ... ... : ... .. . ... : ... .. . ... : ... .. . Z00 ...
ROW 5E : ... .. . ... ... : ... .. . ... ... : ... .. . ... : ... .. . ... : ... .. . Z00 ...
ROW 5F : ... .. 6 ... ... : ... .. 6 ... ... : ... .. . ... : ... .. . ... : ... .. . Z00 ...
ROW 60 : ... .. 5 ... V00 : ... .. 5 ... V00 : ... .. . ... : ... .. . ... : ... .. . Z00 ...
ROW 61 : ... .. 3 ... V02 : ... .. 3 ... V02 : ... .. . ... : ... .. . ... : ... .. . Z00 ...
ROW 62 : ... .. 4 ... ... : ... .. 4 ... ... : ... .. . ... : ... .. . ... : ... .. . Z00 ...
ROW 63 : ... .. 5 ... ... : ... .. 5 ... ... : ... .. . ... : ... .. . ... : ... .. . Z00 ...
ROW 64 : ... .. . ... ... : ... .. . ... ... : ... .. . ... : ... .. . ... : ... .. . Z00 ...
ROW 65 : ... .. 6 ... ... : ... .. 6 ... ... : ... .. . ... : ... .. . ... : ... .. . Z00 ...
ROW 66 : ... .. . ... ... : ... .. 0 ... ... : ... .. . ... : ... .. . ... : ... .. . Z00 ...
ROW 67 : ... .. . ... ... : ... .. . ... ... : ... .. . ... : ... .. . ... : ... .. . Z00 ...
ROW 68 : ... .. . ... ... : ... .. . ... ... : --- .. . ... : ... .. . ... : ... .. . Z00 ...
ROW 69 : ... .. . ... ... : ... .. . ... ... : ... .. . ... : ... .. . ... : ... .. . Z00 ...
ROW 6A : ... .. . ... ... : ... .. . ... ... : ... .. . ... : ... .. . ... : ... .. . Z00 ...
ROW 6B : ... .. . ... ... : ... .. . ... ... : ... .. . ... : ... .. . ... : ... .. . Z00 ...
ROW 6C : B-3 00 5 P7E V00 : F-4 00 5 P80 V00 : G-3 00 . P80 : ... .. . ... : ... .. . Z00 ...
ROW 6D : ... .. 3 ... V02 : ... .. 3 ... V02 : ... .. . ... : ... .. . ... : ... .. . Z00 ...
ROW 6E : ... .. 4 ... ... : ... .. 4 ... ... : ... .. . ... : ... .. . ... : ... .. . Z00 ...
ROW 6F : ... .. 5 ... ... : ... .. 5 ... ... : ... .. . ... : ... .. . ... : ... .. . Z00 ...
ROW 70 : ... .. . ... ... : ... .. . ... ... : ... .. . ... : ... .. . ... : ... .. . Z00 ...
ROW 71 : ... .. 6 ... ... : ... .. 6 ... ... : ... .. . ... : ... .. . ... : ... .. . Z00 ...
ROW 72 : ... .. 0 ... ... : ... .. 0 ... ... : ... .. . ... : ... .. . ... : ... .. . Z00 ...
ROW 73 : ... .. . ... ... : ... .. . ... ... : ... .. . ... : ... .. . ... : ... .. . Z00 ...
ROW 74 : ... .. . ... ... : ... .. . ... ... : --- .. . ... : ... .. . ... : ... .. . Z00 ...
ROW 75 : ... .. . ... ... : ... .. . ... ... : ... .. . ... : ... .. . ... : ... .. . Z00 ...
ROW 76 : ... .. . ... ... : ... .. . ... ... : ... .. . ... : ... .. . ... : ... .. . Z00 ...
ROW 77 : ... .. . ... ... : ... .. . ... ... : ... .. . ... : ... .. . ... : ... .. . Z00 ...
ROW 78 : ... .. 5 ... V00 : ... .. 5 ... V00 : G-3 00 . P80 : ... .. . ... : ... .. . Z00 ...
ROW 79 : ... .. 3 ... V02 : ... .. 3 ... V02 : ... .. . ... : ... .. . ... : ... .. . Z00 ...
ROW 7A : ... .. 4 ... ... : ... .. 4 ... ... : ... .. . ... : ... .. . ... : ... .. . Z00 ...
ROW 7B : ... .. 5 ... ... : ... .. 5 ... ... : ... .. . ... : ... .. . ... : ... .. . Z00 ...
ROW 7C : ... .. . ... ... : ... .. . ... ... : ... .. . ... : ... .. . ... : ... .. . Z00 ...
ROW 7D : ... .. 6 ... ... : ... .. 6 ... ... : ... .. . ... : ... .. . ... : ... .. . Z00 ...
ROW 7E : ... .. . ... ... : ... .. . ... ... : ... .. . ... : ... .. . ... : ... .. . Z00 ...
ROW 7F : ... .. . ... ... : ... .. . ... ... : ... .. . ... : ... .. . ... : ... .. . Z00 ...
ROW 80 : ... .. . ... ... : ... .. . ... ... : ... .. . ... : ... .. . ... : ... .. . Z00 ...
ROW 81 : ... .. . ... ... : ... .. . ... ... : ... .. . ... : ... .. . ... : ... .. . Z00 ...
ROW 82 : ... .. . ... ... : ... .. . ... ... : ... .. . ... : ... .. . ... : ... .. . Z00 ...
ROW 83 : ... .. . ... ... : ... .. . ... ... : ... .. . ... : ... .. . ... : ... .. . Z00 ...
ROW 84 : ... .. . ... ... : ... .. . ... ... : ... .. . ... : ... .. . ... : ... .. . Z00 ...
ROW 85 : ... .. . ... ... : ... .. . ... ... : ... .. . ... : ... .. . ... : ... .. . Z00 ...
ROW 86 : ... .. . ... ... : ... .. . ... ... : ... .. . ... : ... .. . ... : ... .. . Z00 ...
ROW 87 : ... .. . ... ... : ... .. . ... ... : ... .. . ... : ... .. . ... : ... .. . Z00 ...
ROW 88 : ... .. . ... ... : ... .. . ... ... : ... .. . ... : ... .. . ... : ... .. . Z00 ...
ROW 89 : ... .. . ... ... : ... .. . ... ... : ... .. . ... : ... .. . ... : ... .. . Z00 ...
ROW 8A : ... .. . ... ... : ... .. . ... ... : ... .. . ... : ... .. . ... : ... .. . Z00 ...
ROW 8B : ... .. . ... ... : ... .. . ... ... : ... .. . ... : ... .. . ... : ... .. . Z00 ...
ROW 8C : ... .. . ... ... : ... .. . ... ... : ... .. . ... : ... .. . ... : ... .. . Z00 ...
ROW 8D : ... .. . ... ... : ... .. . ... ... : ... .. . ... : ... .. . ... : ... .. . Z00 ...
ROW 8E : ... .. 5 ... ... : ... .. 5 ... ... : ... .. . ... : ... .. . ... : ... .. . Z00 ...
ROW 8F : ... .. . ... ... : ... .. . ... ... : ... .. . ... : ... .. . ... : ... .. . Z00 ...
ROW 90 : ... .. . ... ... : ... .. . ... ... : ... .. . ... : ... .. . ... : ... .. . Z00 ...
ROW 91 : ... .. . ... ... : ... .. . ... ... : ... .. . ... : ... .. . ... : ... .. . Z00 ...
ROW 92 : ... .. . ... ... : ... .. . ... ... : ... .. . ... : ... .. . ... : ... .. . Z00 ...
ROW 93 : ... .. . ... ... : ... .. . ... ... : ... .. . ... : ... .. . ... : ... .. . Z00 ...
ROW 94 : ... .. 4 ... ... : ... .. 4 ... ... : ... .. . ... : ... .. . ... : ... .. . Z00 ...
ROW 95 : ... .. . ... ... : ... .. . ... ... : ... .. . ... : ... .. . ... : ... .. . Z00 ...
ROW 96 : ... .. . ... ... : ... .. . ... ... : ... .. . ... : ... .. . ... : ... .. . Z00 ...
ROW 97 : ... .. . ... ... : ... .. . ... ... : ... .. . ... : ... .. . ... : ... .. . Z00 ...
ROW 98 : ... .. . ... ... : ... .. . ... ... : ... .. . ... : ... .. . ... : ... .. . Z00 ...
ROW 99 : ... .. . ... ... : ... .. . ... ... : ... .. . ... : ... .. . ... : ... .. . Z00 ...
ROW 9A : ... .. 3 ... ... : ... .. 3 ... ... : ... .. . ... : ... .. . ... : ... .. . Z00 ...
ROW 9B : ... .. . ... ... : ... .. . ... ... : ... .. . ... : ... .. . ... : ... .. . Z00 ...
ROW 9C : ... .. . ... ... : ... .. . ... ... : ... .. . ... : ... .. . ... : ... .. . Z00 ...
ROW 9D : ... .. 2 ... ... : ... .. 2 ... ... : ... .. . ... : ... .. . ... : ... .. . Z00 ...
ROW 9E : ... .. . ... ... : ... .. . ... ... : ... .. . ... : ... .. . ... : ... .. . Z00 ...
ROW 9F : ... .. 1 ... ... : ... .. 1 ... ... : ... .. . ... : ... .. . ... : ... .. . Z00 ...
ROW A0 : ... .. 0 ... ... : ... .. 0 ... ... : ... .. . ... : ... .. . ... : ... .. . Z00 ...
ROW A1 : ... .. . ... ... : ... .. . ... ... : ... .. . ... : ... .. . ... : ... .. . Z00 ...
ROW A2 : ... .. . ... ... : ... .. . ... ... : ... .. . ... : ... .. . ... : ... .. . Z00 ...
ROW A3 : ... .. . ... ... : ... .. . ... ... : ... .. . ... : ... .. . ... : ... .. . Z00 ...
ROW A4 : ... .. . ... ... : ... .. . ... ... : ... .. . ... : ... .. . ... : ... .. . Z00 ...
ROW A5 : ... .. . ... ... : ... .. . ... ... : ... .. . ... : ... .. . ... : ... .. . Z00 ...
ROW A6 : ... .. . ... ... : ... .. . ... ... : ... .. . ... : ... .. . ... : ... .. . Z00 ...
ROW A7 : ... .. . ... ... : ... .. . ... ... : ... .. . ... : ... .. . ... : ... .. . C00 ...

# End of export
