# FamiTracker text export 0.4.2

# Song information
TITLE           "Super Mario Bros."
AUTHOR          "Koji Kondo"
COPYRIGHT       "1985 Nintendo"

# Song comment
COMMENT ""

# Global settings
MACHINE         0
FRAMERATE       0
EXPANSION       0
VIBRATO         1
SPLIT           21

# Macros
MACRO       4   0  -1  -1   0 : 2

# DPCM samples

# Instruments
INST2A03   0    -1  -1  -1  -1  -1 "blank"

# Tracks

TRACK 192   1 150 "Waterworld"
COLUMNS : 2 2 1 1 2

ORDER 00 : 00 00 00 00 00
ORDER 01 : 01 01 01 01 01
ORDER 02 : 02 02 02 02 02
ORDER 03 : 03 03 03 03 03
ORDER 04 : 04 04 04 04 04
ORDER 05 : 05 05 05 05 05
ORDER 06 : 06 06 06 06 06
ORDER 07 : 07 07 07 07 07

PATTERN 00
ROW 00 : D-3 00 5 P80 V00 : D-3 00 5 P80 V00 : --- .. . P80 : B-# 00 0 V00 : ... .. . Z30 ...
ROW 01 : ... .. 3 ... V02 : ... .. 3 ... V02 : ... .. . ... : ... .. . ... : ... .. . Z30 ...
ROW 02 : ... .. 4 ... ... : ... .. 4 ... ... : ... .. . ... : ... .. . ... : ... .. . Z30 ...
ROW 03 : ... .. 5 ... ... : ... .. 5 ... ... : ... .. . ... : ... .. . ... : ... .. . Z30 ...
ROW 04 : ... .. . ... ... : ... .. . ... ... : ... .. . ... : ... .. . ... : ... .. . Z30 ...
ROW 05 : ... .. 6 ... ... : ... .. 6 ... ... : ... .. . ... : ... .. . ... : ... .. . Z30 ...
ROW 06 : ... .. . ... ... : ... .. . ... ... : ... .. . ... : ... .. . ... : ... .. . Z30 ...
ROW 07 : ... .. . ... ... : ... .. . ... ... : ... .. . ... : ... .. . ... : ... .. . Z30 ...
ROW 08 : ... .. . ... ... : ... .. . ... ... : ... .. . ... : ... .. . ... : ... .. . Z30 ...
ROW 09 : ... .. . ... ... : ... .. . ... ... : ... .. . ... : ... .. . ... : ... .. . Z30 ...
ROW 0A : ... .. . ... ... : ... .. . ... ... : ... .. . ... : ... .. . ... : ... .. . Z30 ...
ROW 0B : ... .. . ... ... : ... .. . ... ... : ... .. . ... : ... .. . ... : ... .. . Z30 ...
ROW 0C : ... .. . ... ... : ... .. . ... ... : ... .. . ... : ... .. . ... : ... .. . Z30 ...
ROW 0D : ... .. . ... ... : ... .. . ... ... : ... .. . ... : ... .. . ... : ... .. . Z30 ...
ROW 0E : ... .. . ... ... : ... .. . ... ... : ... .. . ... : ... .. . ... : ... .. . Z30 ...
ROW 0F : ... .. . ... ... : ... .. . ... ... : ... .. . ... : ... .. . ... : ... .. . Z30 ...
ROW 10 : C-3 00 5 ... V00 : F#3 00 5 ... V00 : ... .. . ... : ... .. C ... : ... .. . Z30 ...
ROW 11 : ... .. 3 ... V02 : ... .. 3 ... V02 : ... .. . ... : ... .. . ... : ... .. . Z30 ...
ROW 12 : ... .. 4 ... ... : ... .. 4 ... ... : ... .. . ... : ... .. . ... : ... .. . Z30 ...
ROW 13 : ... .. 5 ... ... : ... .. 5 ... ... : ... .. . ... : ... .. . ... : ... .. . Z30 ...
ROW 14 : ... .. . ... ... : ... .. . ... ... : ... .. . ... : ... .. . ... : ... .. . Z30 ...
ROW 15 : ... .. 6 ... ... : ... .. 6 ... ... : ... .. . ... : ... .. 0 ... : ... .. . Z30 ...
ROW 16 : ... .. . ... ... : ... .. . ... ... : ... .. . ... : ... .. . ... : ... .. . Z30 ...
ROW 17 : ... .. . ... ... : ... .. . ... ... : ... .. . ... : ... .. . ... : ... .. . Z30 ...
ROW 18 : ... .. . ... ... : ... .. . ... ... : ... .. . ... : ... .. . ... : ... .. . Z30 ...
ROW 19 : ... .. . ... ... : ... .. . ... ... : ... .. . ... : ... .. . ... : ... .. . Z30 ...
ROW 1A : ... .. . ... ... : ... .. . ... ... : ... .. . ... : ... .. . ... : ... .. . Z30 ...
ROW 1B : ... .. . ... ... : ... .. . ... ... : ... .. . ... : ... .. . ... : ... .. . Z30 ...
ROW 1C : ... .. . ... ... : ... .. . ... ... : ... .. . ... : ... .. . ... : ... .. . Z30 ...
ROW 1D : ... .. . ... ... : ... .. . ... ... : ... .. . ... : ... .. . ... : ... .. . Z30 ...
ROW 1E : ... .. . ... ... : ... .. . ... ... : ... .. . ... : ... .. . ... : ... .. . Z30 ...
ROW 1F : ... .. . ... ... : ... .. . ... ... : ... .. . ... : ... .. . ... : ... .. . Z30 ...
ROW 20 : A#2 00 5 ... V00 : G-3 00 5 ... V00 : ... .. . ... : B-# 00 0 V00 : ... .. . Z30 ...
ROW 21 : ... .. 3 ... V02 : ... .. 3 ... V02 : ... .. . ... : ... .. . ... : ... .. . Z30 ...
ROW 22 : ... .. 4 ... ... : ... .. 4 ... ... : ... .. . ... : ... .. . ... : ... .. . Z30 ...
ROW 23 : ... .. 5 ... ... : ... .. 5 ... ... : ... .. . ... : ... .. . ... : ... .. . Z30 ...
ROW 24 : ... .. . ... ... : ... .. . ... ... : ... .. . ... : ... .. . ... : ... .. . Z30 ...
ROW 25 : ... .. 6 ... ... : ... .. 6 ... ... : ... .. . ... : ... .. . ... : ... .. . Z30 ...
ROW 26 : ... .. . ... ... : ... .. . ... ... : ... .. . ... : ... .. . ... : ... .. . Z30 ...
ROW 27 : ... .. . ... ... : ... .. . ... ... : ... .. . ... : ... .. . ... : ... .. . Z30 ...
ROW 28 : ... .. . ... ... : ... .. . ... ... : ... .. . ... : ... .. . ... : ... .. . Z30 ...
ROW 29 : ... .. . ... ... : ... .. . ... ... : ... .. . ... : ... .. . ... : ... .. . Z30 ...
ROW 2A : ... .. . ... ... : ... .. . ... ... : ... .. . ... : ... .. . ... : ... .. . Z30 ...
ROW 2B : ... .. . ... ... : ... .. . ... ... : ... .. . ... : ... .. . ... : ... .. . Z30 ...
ROW 2C : ... .. . ... ... : ... .. . ... ... : ... .. . ... : ... .. . ... : ... .. . Z30 ...
ROW 2D : ... .. . ... ... : ... .. . ... ... : ... .. . ... : ... .. . ... : ... .. . Z30 ...
ROW 2E : ... .. . ... ... : ... .. . ... ... : ... .. . ... : ... .. . ... : ... .. . Z30 ...
ROW 2F : ... .. . ... ... : ... .. . ... ... : ... .. . ... : ... .. . ... : ... .. . Z30 ...
ROW 30 : C#3 00 5 ... V00 : B-3 00 5 P80 V00 : ... .. . ... : ... .. C ... : ... .. . Z30 ...
ROW 31 : ... .. 3 ... V02 : ... .. 3 ... V02 : ... .. . ... : ... .. . ... : ... .. . Z30 ...
ROW 32 : ... .. 4 ... ... : ... .. 4 ... ... : ... .. . ... : ... .. . ... : ... .. . Z30 ...
ROW 33 : ... .. 5 ... ... : ... .. 5 ... ... : ... .. . ... : ... .. . ... : ... .. . Z30 ...
ROW 34 : ... .. . ... ... : ... .. . ... ... : ... .. . ... : ... .. . ... : ... .. . Z30 ...
ROW 35 : ... .. 6 ... ... : ... .. 6 ... ... : ... .. . ... : ... .. 0 ... : ... .. . Z30 ...
ROW 36 : ... .. . ... ... : ... .. . ... ... : ... .. . ... : ... .. . ... : ... .. . Z30 ...
ROW 37 : ... .. . ... ... : ... .. . ... ... : ... .. . ... : ... .. . ... : ... .. . Z30 ...
ROW 38 : ... .. . ... ... : ... .. . ... ... : ... .. . ... : ... .. . ... : ... .. . Z30 ...
ROW 39 : ... .. . ... ... : ... .. . ... ... : ... .. . ... : ... .. . ... : ... .. . Z30 ...
ROW 3A : ... .. . ... ... : ... .. . ... ... : ... .. . ... : ... .. . ... : ... .. . Z30 ...
ROW 3B : ... .. . ... ... : ... .. . ... ... : ... .. . ... : ... .. . ... : ... .. . Z30 ...
ROW 3C : ... .. . ... ... : ... .. . ... ... : ... .. . ... : ... .. . ... : ... .. . Z30 ...
ROW 3D : ... .. . ... ... : ... .. . ... ... : ... .. . ... : ... .. . ... : ... .. . Z30 ...
ROW 3E : ... .. . ... ... : ... .. . ... ... : ... .. . ... : ... .. . ... : ... .. . Z30 ...
ROW 3F : ... .. . ... ... : ... .. . ... ... : ... .. . ... : ... .. . ... : ... .. . Z30 ...
ROW 40 : D-3 00 5 ... V00 : A#3 00 5 P7F V00 : ... .. . ... : B-# 00 0 V00 : ... .. . Z30 ...
ROW 41 : ... .. 3 ... V02 : ... .. 3 ... V02 : ... .. . ... : ... .. . ... : ... .. . Z30 ...
ROW 42 : ... .. 4 ... ... : ... .. 4 ... ... : ... .. . ... : ... .. . ... : ... .. . Z30 ...
ROW 43 : ... .. 5 ... ... : ... .. 5 ... ... : ... .. . ... : ... .. . ... : ... .. . Z30 ...
ROW 44 : ... .. . ... ... : ... .. . ... ... : ... .. . ... : ... .. . ... : ... .. . Z30 ...
ROW 45 : ... .. 6 ... ... : ... .. 6 ... ... : ... .. . ... : ... .. . ... : ... .. . Z30 ...
ROW 46 : ... .. . ... ... : ... .. . ... ... : ... .. . ... : ... .. . ... : ... .. . Z30 ...
ROW 47 : ... .. . ... ... : ... .. . ... ... : ... .. . ... : ... .. . ... : ... .. . Z30 ...
ROW 48 : ... .. 5 ... V00 : ... .. 5 ... V00 : ... .. . ... : ... .. . ... : ... .. . Z30 ...
ROW 49 : ... .. 3 ... V02 : ... .. 3 ... V02 : ... .. . ... : ... .. . ... : ... .. . Z30 ...
ROW 4A : ... .. 4 ... ... : ... .. 4 ... ... : ... .. . ... : ... .. . ... : ... .. . Z30 ...
ROW 4B : ... .. 5 ... ... : ... .. 5 ... ... : ... .. . ... : ... .. . ... : ... .. . Z30 ...
ROW 4C : ... .. . ... ... : ... .. . ... ... : ... .. . ... : ... .. . ... : ... .. . Z30 ...
ROW 4D : ... .. 6 ... ... : ... .. 6 ... ... : ... .. . ... : ... .. . ... : ... .. . Z30 ...
ROW 4E : ... .. . ... ... : ... .. . ... ... : ... .. . ... : ... .. . ... : ... .. . Z30 ...
ROW 4F : ... .. . ... ... : ... .. . ... ... : ... .. . ... : ... .. . ... : ... .. . Z30 ...
ROW 50 : D#3 00 5 P7F V00 : ... .. 5 ... V00 : G-3 00 . P7F : ... .. C ... : ... .. . Z30 ...
ROW 51 : ... .. 3 ... V02 : ... .. 3 ... V02 : ... .. . ... : ... .. . ... : ... .. . Z30 ...
ROW 52 : ... .. 4 ... ... : ... .. 4 ... ... : ... .. . ... : ... .. . ... : ... .. . Z30 ...
ROW 53 : ... .. 5 ... ... : ... .. 5 ... ... : ... .. . ... : ... .. . ... : ... .. . Z30 ...
ROW 54 : ... .. . ... ... : ... .. . ... ... : ... .. . ... : ... .. . ... : ... .. . Z30 ...
ROW 55 : ... .. 6 ... ... : ... .. 6 ... ... : ... .. . ... : ... .. 0 ... : ... .. . Z30 ...
ROW 56 : ... .. . ... ... : ... .. . ... ... : ... .. . ... : ... .. . ... : ... .. . Z30 ...
ROW 57 : ... .. . ... ... : ... .. . ... ... : ... .. . ... : ... .. . ... : ... .. . Z30 ...
ROW 58 : ... .. 0 ... ... : ... .. 0 ... ... : --- .. . ... : ... .. . ... : ... .. . Z30 ...
ROW 59 : ... .. . ... ... : ... .. . ... ... : ... .. . ... : ... .. . ... : ... .. . Z30 ...
ROW 5A : ... .. . ... ... : ... .. . ... ... : ... .. . ... : ... .. . ... : ... .. . Z30 ...
ROW 5B : ... .. . ... ... : ... .. . ... ... : ... .. . ... : ... .. . ... : ... .. . Z30 ...
ROW 5C : ... .. . ... ... : ... .. . ... ... : ... .. . ... : ... .. . ... : ... .. . Z30 ...
ROW 5D : ... .. . ... ... : ... .. . ... ... : ... .. . ... : ... .. . ... : ... .. . Z30 ...
ROW 5E : ... .. . ... ... : ... .. . ... ... : ... .. . ... : ... .. . ... : ... .. . Z30 ...
ROW 5F : ... .. . ... ... : ... .. . ... ... : ... .. . ... : ... .. . ... : ... .. . Z30 ...
ROW 60 : F-3 00 5 ... V00 : ... .. 5 ... V00 : G-3 00 . ... : B-# 00 0 V00 : ... .. . Z30 ...
ROW 61 : ... .. 3 ... V02 : ... .. 3 ... V02 : ... .. . ... : ... .. . ... : ... .. . Z30 ...
ROW 62 : ... .. 4 ... ... : ... .. 4 ... ... : ... .. . ... : ... .. . ... : ... .. . Z30 ...
ROW 63 : ... .. 5 ... ... : ... .. 5 ... ... : ... .. . ... : ... .. . ... : ... .. . Z30 ...
ROW 64 : ... .. . ... ... : ... .. . ... ... : ... .. . ... : ... .. . ... : ... .. . Z30 ...
ROW 65 : ... .. 6 ... ... : ... .. 6 ... ... : ... .. . ... : ... .. . ... : ... .. . Z30 ...
ROW 66 : ... .. . ... ... : ... .. . ... ... : ... .. . ... : ... .. . ... : ... .. . Z30 ...
ROW 67 : ... .. . ... ... : ... .. . ... ... : ... .. . ... : ... .. . ... : ... .. . Z30 ...
ROW 68 : ... .. . ... ... : ... .. . ... ... : ... .. . ... : ... .. . ... : ... .. . Z30 ...
ROW 69 : ... .. . ... ... : ... .. . ... ... : ... .. . ... : ... .. . ... : ... .. . Z30 ...
ROW 6A : ... .. . ... ... : ... .. . ... ... : ... .. . ... : ... .. . ... : ... .. . Z30 ...
ROW 6B : ... .. . ... ... : ... .. . ... ... : ... .. . ... : ... .. . ... : ... .. . Z30 ...
ROW 6C : ... .. . ... ... : ... .. . ... ... : ... .. . ... : ... .. . ... : ... .. . Z30 ...
ROW 6D : ... .. . ... ... : ... .. . ... ... : ... .. . ... : ... .. . ... : ... .. . Z30 ...
ROW 6E : ... .. . ... ... : ... .. . ... ... : ... .. . ... : ... .. . ... : ... .. . Z30 ...
ROW 6F : ... .. . ... ... : ... .. . ... ... : ... .. . ... : ... .. . ... : ... .. . Z30 ...
ROW 70 : ... .. . ... ... : G-3 00 5 ... V00 : ... .. . ... : ... .. C ... : ... .. . Z30 ...
ROW 71 : ... .. . ... ... : ... .. 3 ... V02 : ... .. . ... : ... .. . ... : ... .. . Z30 ...
ROW 72 : ... .. 3 ... ... : ... .. 4 ... ... : ... .. . ... : ... .. . ... : ... .. . Z30 ...
ROW 73 : ... .. . ... ... : ... .. 5 ... ... : ... .. . ... : ... .. . ... : ... .. . Z30 ...
ROW 74 : ... .. . ... ... : ... .. . ... ... : ... .. . ... : ... .. . ... : ... .. . Z30 ...
ROW 75 : ... .. 2 ... ... : ... .. 6 ... ... : ... .. . ... : ... .. 0 ... : ... .. . Z30 ...
ROW 76 : ... .. . ... ... : ... .. . ... ... : ... .. . ... : ... .. . ... : ... .. . Z30 ...
ROW 77 : ... .. 1 ... ... : ... .. . ... ... : ... .. . ... : ... .. . ... : ... .. . Z30 ...
ROW 78 : ... .. 0 ... ... : ... .. . ... ... : ... .. . ... : ... .. . ... : ... .. . Z30 ...
ROW 79 : ... .. . ... ... : ... .. . ... ... : ... .. . ... : ... .. . ... : ... .. . Z30 ...
ROW 7A : ... .. . ... ... : ... .. . ... ... : ... .. . ... : ... .. . ... : ... .. . Z30 ...
ROW 7B : ... .. . ... ... : ... .. . ... ... : ... .. . ... : ... .. . ... : ... .. . Z30 ...
ROW 7C : ... .. . ... ... : ... .. . ... ... : ... .. . ... : ... .. . ... : ... .. . Z30 ...
ROW 7D : ... .. . ... ... : ... .. . ... ... : ... .. . ... : ... .. . ... : ... .. . Z30 ...
ROW 7E : ... .. . ... ... : ... .. . ... ... : ... .. . ... : ... .. . ... : ... .. . Z30 ...
ROW 7F : ... .. . ... ... : ... .. . ... ... : ... .. . ... : ... .. . ... : ... .. . Z30 ...
ROW 80 : G-3 00 5 ... V00 : D#4 00 5 P80 V00 : C-3 00 . P80 : B-# 00 0 V00 : ... .. . Z30 ...
ROW 81 : ... .. 3 ... V02 : ... .. 3 ... V02 : ... .. . ... : ... .. . ... : ... .. . Z30 ...
ROW 82 : ... .. 4 ... ... : ... .. 4 ... ... : ... .. . ... : ... .. . ... : ... .. . Z30 ...
ROW 83 : ... .. 5 ... ... : ... .. 5 ... ... : ... .. . ... : ... .. . ... : ... .. . Z30 ...
ROW 84 : ... .. . ... ... : ... .. . ... ... : ... .. . ... : ... .. . ... : ... .. . Z30 ...
ROW 85 : ... .. 6 ... ... : ... .. 6 ... ... : ... .. . ... : ... .. . ... : ... .. . Z30 ...
ROW 86 : ... .. . ... ... : ... .. . ... ... : ... .. . ... : ... .. . ... : ... .. . Z30 ...
ROW 87 : ... .. . ... ... : ... .. . ... ... : ... .. . ... : ... .. . ... : ... .. . Z30 ...
ROW 88 : ... .. . ... ... : ... .. . ... ... : --- .. . ... : ... .. . ... : ... .. . Z30 ...
ROW 89 : ... .. . ... ... : ... .. . ... ... : ... .. . ... : ... .. . ... : ... .. . Z30 ...
ROW 8A : ... .. . ... ... : ... .. . ... ... : ... .. . ... : ... .. . ... : ... .. . Z30 ...
ROW 8B : ... .. . ... ... : ... .. . ... ... : ... .. . ... : ... .. . ... : ... .. . Z30 ...
ROW 8C : ... .. . ... ... : ... .. . ... ... : ... .. . ... : ... .. . ... : ... .. . Z30 ...
ROW 8D : ... .. . ... ... : ... .. . ... ... : ... .. . ... : ... .. . ... : ... .. . Z30 ...
ROW 8E : ... .. . ... ... : ... .. . ... ... : ... .. . ... : ... .. . ... : ... .. . Z30 ...
ROW 8F : ... .. . ... ... : ... .. . ... ... : ... .. . ... : ... .. . ... : ... .. . Z30 ...
ROW 90 : ... .. . ... ... : ... .. . ... ... : C-4 00 . P80 : ... .. C ... : ... .. . Z30 ...
ROW 91 : ... .. . ... ... : ... .. . ... ... : ... .. . ... : ... .. . ... : ... .. . Z30 ...
ROW 92 : ... .. 3 ... ... : ... .. 3 ... ... : ... .. . ... : ... .. . ... : ... .. . Z30 ...
ROW 93 : ... .. . ... ... : ... .. . ... ... : ... .. . ... : ... .. . ... : ... .. . Z30 ...
ROW 94 : ... .. . ... ... : ... .. . ... ... : ... .. . ... : ... .. . ... : ... .. . Z30 ...
ROW 95 : ... .. 2 ... ... : ... .. 2 ... ... : ... .. . ... : ... .. 0 ... : ... .. . Z30 ...
ROW 96 : ... .. . ... ... : ... .. . ... ... : ... .. . ... : ... .. . ... : ... .. . Z30 ...
ROW 97 : ... .. 1 ... ... : ... .. 1 ... ... : ... .. . ... : ... .. . ... : ... .. . Z30 ...
ROW 98 : ... .. 0 ... ... : ... .. 0 ... ... : --- .. . ... : ... .. . ... : ... .. . Z30 ...
ROW 99 : ... .. . ... ... : ... .. . ... ... : ... .. . ... : ... .. . ... : ... .. . Z30 ...
ROW 9A : ... .. . ... ... : ... .. . ... ... : ... .. . ... : ... .. . ... : ... .. . Z30 ...
ROW 9B : ... .. . ... ... : ... .. . ... ... : ... .. . ... : ... .. . ... : ... .. . Z30 ...
ROW 9C : ... .. . ... ... : ... .. . ... ... : ... .. . ... : ... .. . ... : ... .. . Z30 ...
ROW 9D : ... .. . ... ... : ... .. . ... ... : ... .. . ... : ... .. . ... : ... .. . Z30 ...
ROW 9E : ... .. . ... ... : ... .. . ... ... : ... .. . ... : ... .. . ... : ... .. . Z30 ...
ROW 9F : ... .. . ... ... : ... .. . ... ... : ... .. . ... : ... .. . ... : ... .. . Z30 ...
ROW A0 : F#3 00 5 ... V00 : E-4 00 5 ... V00 : A#2 00 . ... : B-# 00 0 V00 : ... .. . Z30 ...
ROW A1 : ... .. 3 ... V02 : ... .. 3 ... V02 : ... .. . ... : ... .. . ... : ... .. . Z30 ...
ROW A2 : ... .. 4 ... ... : ... .. 4 ... ... : ... .. . ... : ... .. . ... : ... .. . Z30 ...
ROW A3 : ... .. 5 ... ... : ... .. 5 ... ... : ... .. . ... : ... .. . ... : ... .. . Z30 ...
ROW A4 : ... .. . ... ... : ... .. . ... ... : ... .. . ... : ... .. . ... : ... .. . Z30 ...
ROW A5 : ... .. 6 ... ... : ... .. 6 ... ... : ... .. . ... : ... .. . ... : ... .. . Z30 ...
ROW A6 : ... .. . ... ... : ... .. . ... ... : ... .. . ... : ... .. . ... : ... .. . Z30 ...
ROW A7 : ... .. . ... ... : ... .. . ... ... : ... .. . ... : ... .. . ... : ... .. . Z30 ...
ROW A8 : ... .. . ... ... : ... .. . ... ... : --- .. . ... : ... .. . ... : ... .. . Z30 ...
ROW A9 : ... .. . ... ... : ... .. . ... ... : ... .. . ... : ... .. . ... : ... .. . Z30 ...
ROW AA : ... .. . ... ... : ... .. . ... ... : ... .. . ... : ... .. . ... : ... .. . Z30 ...
ROW AB : ... .. . ... ... : ... .. . ... ... : ... .. . ... : ... .. . ... : ... .. . Z30 ...
ROW AC : ... .. . ... ... : ... .. . ... ... : ... .. . ... : ... .. . ... : ... .. . Z30 ...
ROW AD : ... .. . ... ... : ... .. . ... ... : ... .. . ... : ... .. . ... : ... .. . Z30 ...
ROW AE : ... .. . ... ... : ... .. . ... ... : ... .. . ... : ... .. . ... : ... .. . Z30 ...
ROW AF : ... .. . ... ... : ... .. . ... ... : ... .. . ... : ... .. . ... : ... .. . Z30 ...
ROW B0 : ... .. . ... ... : ... .. . ... ... : A#3 00 . ... : ... .. C ... : ... .. . Z30 ...
ROW B1 : ... .. . ... ... : ... .. . ... ... : ... .. . ... : ... .. . ... : ... .. . Z30 ...
ROW B2 : ... .. 3 ... ... : ... .. 3 ... ... : ... .. . ... : ... .. . ... : ... .. . Z30 ...
ROW B3 : ... .. . ... ... : ... .. . ... ... : ... .. . ... : ... .. . ... : ... .. . Z30 ...
ROW B4 : ... .. . ... ... : ... .. . ... ... : ... .. . ... : ... .. . ... : ... .. . Z30 ...
ROW B5 : ... .. 2 ... ... : ... .. 2 ... ... : ... .. . ... : ... .. 0 ... : ... .. . Z30 ...
ROW B6 : ... .. . ... ... : ... .. . ... ... : ... .. . ... : ... .. . ... : ... .. . Z30 ...
ROW B7 : ... .. 1 ... ... : ... .. 1 ... ... : ... .. . ... : ... .. . ... : ... .. . Z30 ...
ROW B8 : ... .. 0 ... ... : ... .. 0 ... ... : --- .. . ... : ... .. . ... : ... .. . Z30 ...
ROW B9 : ... .. . ... ... : ... .. . ... ... : ... .. . ... : ... .. . ... : ... .. . Z30 ...
ROW BA : ... .. . ... ... : ... .. . ... ... : ... .. . ... : ... .. . ... : ... .. . Z30 ...
ROW BB : ... .. . ... ... : ... .. . ... ... : ... .. . ... : ... .. . ... : ... .. . Z30 ...
ROW BC : ... .. . ... ... : ... .. . ... ... : ... .. . ... : ... .. . ... : ... .. . Z30 ...
ROW BD : ... .. . ... ... : ... .. . ... ... : ... .. . ... : ... .. . ... : ... .. . Z30 ...
ROW BE : ... .. . ... ... : ... .. . ... ... : ... .. . ... : ... .. . ... : ... .. . Z30 ...
ROW BF : ... .. . ... ... : ... .. . ... ... : ... .. . ... : ... .. . ... : ... .. . Z30 ...

PATTERN 01
ROW 00 : G-3 00 5 ... V00 : D#4 00 5 ... V00 : C-3 00 . P80 : B-# 00 0 V00 : ... .. . Z30 ...
ROW 01 : ... .. 3 ... V02 : ... .. 3 ... V02 : ... .. . ... : ... .. . ... : ... .. . Z30 ...
ROW 02 : ... .. 4 ... ... : ... .. 4 ... ... : ... .. . ... : ... .. . ... : ... .. . Z30 ...
ROW 03 : ... .. 5 ... ... : ... .. 5 ... ... : ... .. . ... : ... .. . ... : ... .. . Z30 ...
ROW 04 : ... .. . ... ... : ... .. . ... ... : ... .. . ... : ... .. . ... : ... .. . Z30 ...
ROW 05 : ... .. 6 ... ... : ... .. 6 ... ... : ... .. . ... : ... .. . ... : ... .. . Z30 ...
ROW 06 : ... .. . ... ... : ... .. . ... ... : ... .. . ... : ... .. . ... : ... .. . Z30 ...
ROW 07 : ... .. . ... ... : ... .. . ... ... : ... .. . ... : ... .. . ... : ... .. . Z30 ...
ROW 08 : ... .. . ... ... : ... .. . ... ... : --- .. . ... : ... .. . ... : ... .. . Z30 ...
ROW 09 : ... .. . ... ... : ... .. . ... ... : ... .. . ... : ... .. . ... : ... .. . Z30 ...
ROW 0A : ... .. . ... ... : ... .. . ... ... : ... .. . ... : ... .. . ... : ... .. . Z30 ...
ROW 0B : ... .. . ... ... : ... .. . ... ... : ... .. . ... : ... .. . ... : ... .. . Z30 ...
ROW 0C : ... .. . ... ... : ... .. . ... ... : ... .. . ... : ... .. . ... : ... .. . Z30 ...
ROW 0D : ... .. . ... ... : ... .. . ... ... : ... .. . ... : ... .. . ... : ... .. . Z30 ...
ROW 0E : ... .. . ... ... : ... .. . ... ... : ... .. . ... : ... .. . ... : ... .. . Z30 ...
ROW 0F : ... .. . ... ... : ... .. . ... ... : ... .. . ... : ... .. . ... : ... .. . Z30 ...
ROW 10 : ... .. . ... ... : ... .. . ... ... : C-4 00 . P80 : ... .. C ... : ... .. . Z30 ...
ROW 11 : ... .. . ... ... : ... .. . ... ... : ... .. . ... : ... .. . ... : ... .. . Z30 ...
ROW 12 : ... .. 3 ... ... : ... .. 3 ... ... : ... .. . ... : ... .. . ... : ... .. . Z30 ...
ROW 13 : ... .. . ... ... : ... .. . ... ... : ... .. . ... : ... .. . ... : ... .. . Z30 ...
ROW 14 : ... .. . ... ... : ... .. . ... ... : ... .. . ... : ... .. . ... : ... .. . Z30 ...
ROW 15 : ... .. 2 ... ... : ... .. 2 ... ... : ... .. . ... : ... .. 0 ... : ... .. . Z30 ...
ROW 16 : ... .. . ... ... : ... .. . ... ... : ... .. . ... : ... .. . ... : ... .. . Z30 ...
ROW 17 : ... .. 1 ... ... : ... .. 1 ... ... : ... .. . ... : ... .. . ... : ... .. . Z30 ...
ROW 18 : ... .. 0 ... ... : ... .. 0 ... ... : --- .. . ... : ... .. . ... : ... .. . Z30 ...
ROW 19 : ... .. . ... ... : ... .. . ... ... : ... .. . ... : ... .. . ... : ... .. . Z30 ...
ROW 1A : ... .. . ... ... : ... .. . ... ... : ... .. . ... : ... .. . ... : ... .. . Z30 ...
ROW 1B : ... .. . ... ... : ... .. . ... ... : ... .. . ... : ... .. . ... : ... .. . Z30 ...
ROW 1C : ... .. . ... ... : ... .. . ... ... : ... .. . ... : ... .. . ... : ... .. . Z30 ...
ROW 1D : ... .. . ... ... : ... .. . ... ... : ... .. . ... : ... .. . ... : ... .. . Z30 ...
ROW 1E : ... .. . ... ... : ... .. . ... ... : ... .. . ... : ... .. . ... : ... .. . Z30 ...
ROW 1F : ... .. . ... ... : ... .. . ... ... : ... .. . ... : ... .. . ... : ... .. . Z30 ...
ROW 20 : ... .. . ... ... : ... .. . ... ... : D#3 00 . P7F : B-# 00 0 V00 : ... .. . Z30 ...
ROW 21 : ... .. . ... ... : ... .. . ... ... : ... .. . ... : ... .. . ... : ... .. . Z30 ...
ROW 22 : ... .. . ... ... : ... .. . ... ... : ... .. . ... : ... .. . ... : ... .. . Z30 ...
ROW 23 : ... .. . ... ... : ... .. . ... ... : ... .. . ... : ... .. . ... : ... .. . Z30 ...
ROW 24 : ... .. . ... ... : ... .. . ... ... : ... .. . ... : ... .. . ... : ... .. . Z30 ...
ROW 25 : ... .. . ... ... : ... .. . ... ... : ... .. . ... : ... .. . ... : ... .. . Z30 ...
ROW 26 : ... .. . ... ... : ... .. . ... ... : ... .. . ... : ... .. . ... : ... .. . Z30 ...
ROW 27 : ... .. . ... ... : ... .. . ... ... : ... .. . ... : ... .. . ... : ... .. . Z30 ...
ROW 28 : ... .. . ... ... : G-3 00 5 P7F V00 : --- .. . ... : ... .. . ... : ... .. . Z30 ...
ROW 29 : ... .. . ... ... : ... .. 3 ... V02 : ... .. . ... : ... .. . ... : ... .. . Z30 ...
ROW 2A : ... .. . ... ... : ... .. 4 ... ... : ... .. . ... : ... .. . ... : ... .. . Z30 ...
ROW 2B : ... .. . ... ... : ... .. 5 ... ... : ... .. . ... : ... .. . ... : ... .. . Z30 ...
ROW 2C : ... .. . ... ... : ... .. . ... ... : ... .. . ... : ... .. . ... : ... .. . Z30 ...
ROW 2D : ... .. . ... ... : ... .. 6 ... ... : ... .. . ... : ... .. . ... : ... .. . Z30 ...
ROW 2E : ... .. . ... ... : ... .. . ... ... : ... .. . ... : ... .. . ... : ... .. . Z30 ...
ROW 2F : ... .. . ... ... : ... .. . ... ... : ... .. . ... : ... .. . ... : ... .. . Z30 ...
ROW 30 : ... .. . ... ... : C-4 00 5 P80 V00 : C-4 00 . P80 : ... .. C ... : ... .. . Z30 ...
ROW 31 : ... .. . ... ... : ... .. 3 ... V02 : ... .. . ... : ... .. . ... : ... .. . Z30 ...
ROW 32 : ... .. . ... ... : ... .. 4 ... ... : ... .. . ... : ... .. . ... : ... .. . Z30 ...
ROW 33 : ... .. . ... ... : ... .. 5 ... ... : ... .. . ... : ... .. . ... : ... .. . Z30 ...
ROW 34 : ... .. . ... ... : ... .. . ... ... : ... .. . ... : ... .. . ... : ... .. . Z30 ...
ROW 35 : ... .. . ... ... : ... .. 6 ... ... : ... .. . ... : ... .. 0 ... : ... .. . Z30 ...
ROW 36 : ... .. . ... ... : ... .. . ... ... : ... .. . ... : ... .. . ... : ... .. . Z30 ...
ROW 37 : ... .. . ... ... : ... .. . ... ... : ... .. . ... : ... .. . ... : ... .. . Z30 ...
ROW 38 : ... .. . ... ... : D-4 00 5 P7F V00 : --- .. . ... : ... .. . ... : ... .. . Z30 ...
ROW 39 : ... .. . ... ... : ... .. 3 ... V02 : ... .. . ... : ... .. . ... : ... .. . Z30 ...
ROW 3A : ... .. . ... ... : ... .. 4 ... ... : ... .. . ... : ... .. . ... : ... .. . Z30 ...
ROW 3B : ... .. . ... ... : ... .. 5 ... ... : ... .. . ... : ... .. . ... : ... .. . Z30 ...
ROW 3C : ... .. . ... ... : ... .. . ... ... : ... .. . ... : ... .. . ... : ... .. . Z30 ...
ROW 3D : ... .. . ... ... : ... .. 6 ... ... : ... .. . ... : ... .. . ... : ... .. . Z30 ...
ROW 3E : ... .. . ... ... : ... .. . ... ... : ... .. . ... : ... .. . ... : ... .. . Z30 ...
ROW 3F : ... .. . ... ... : ... .. . ... ... : ... .. . ... : ... .. . ... : ... .. . Z30 ...
ROW 40 : ... .. 5 ... V00 : D#4 00 5 P80 V00 : C-3 00 . ... : B-# 00 0 V00 : ... .. . Z30 ...
ROW 41 : ... .. 3 ... V02 : ... .. 3 ... V02 : ... .. . ... : ... .. . ... : ... .. . Z30 ...
ROW 42 : ... .. 4 ... ... : ... .. 4 ... ... : ... .. . ... : ... .. . ... : ... .. . Z30 ...
ROW 43 : ... .. 5 ... ... : ... .. 5 ... ... : ... .. . ... : ... .. . ... : ... .. . Z30 ...
ROW 44 : ... .. . ... ... : ... .. . ... ... : ... .. . ... : ... .. . ... : ... .. . Z30 ...
ROW 45 : ... .. 6 ... ... : ... .. 6 ... ... : ... .. . ... : ... .. . ... : ... .. . Z30 ...
ROW 46 : ... .. . ... ... : ... .. . ... ... : ... .. . ... : ... .. . ... : ... .. . Z30 ...
ROW 47 : ... .. . ... ... : ... .. . ... ... : ... .. . ... : ... .. . ... : ... .. . Z30 ...
ROW 48 : ... .. . ... ... : ... .. . ... ... : --- .. . ... : ... .. . ... : ... .. . Z30 ...
ROW 49 : ... .. . ... ... : ... .. . ... ... : ... .. . ... : ... .. . ... : ... .. . Z30 ...
ROW 4A : ... .. . ... ... : ... .. . ... ... : ... .. . ... : ... .. . ... : ... .. . Z30 ...
ROW 4B : ... .. . ... ... : ... .. . ... ... : ... .. . ... : ... .. . ... : ... .. . Z30 ...
ROW 4C : ... .. . ... ... : ... .. . ... ... : ... .. . ... : ... .. . ... : ... .. . Z30 ...
ROW 4D : ... .. . ... ... : ... .. . ... ... : ... .. . ... : ... .. . ... : ... .. . Z30 ...
ROW 4E : ... .. . ... ... : ... .. . ... ... : ... .. . ... : ... .. . ... : ... .. . Z30 ...
ROW 4F : ... .. . ... ... : ... .. . ... ... : ... .. . ... : ... .. . ... : ... .. . Z30 ...
ROW 50 : ... .. . ... ... : ... .. . ... ... : C-4 00 . P80 : ... .. C ... : ... .. . Z30 ...
ROW 51 : ... .. . ... ... : ... .. . ... ... : ... .. . ... : ... .. . ... : ... .. . Z30 ...
ROW 52 : ... .. 3 ... ... : ... .. 3 ... ... : ... .. . ... : ... .. . ... : ... .. . Z30 ...
ROW 53 : ... .. . ... ... : ... .. . ... ... : ... .. . ... : ... .. . ... : ... .. . Z30 ...
ROW 54 : ... .. . ... ... : ... .. . ... ... : ... .. . ... : ... .. . ... : ... .. . Z30 ...
ROW 55 : ... .. 2 ... ... : ... .. 2 ... ... : ... .. . ... : ... .. 0 ... : ... .. . Z30 ...
ROW 56 : ... .. . ... ... : ... .. . ... ... : ... .. . ... : ... .. . ... : ... .. . Z30 ...
ROW 57 : ... .. 1 ... ... : ... .. 1 ... ... : ... .. . ... : ... .. . ... : ... .. . Z30 ...
ROW 58 : ... .. 0 ... ... : ... .. 0 ... ... : --- .. . ... : ... .. . ... : ... .. . Z30 ...
ROW 59 : ... .. . ... ... : ... .. . ... ... : ... .. . ... : ... .. . ... : ... .. . Z30 ...
ROW 5A : ... .. . ... ... : ... .. . ... ... : ... .. . ... : ... .. . ... : ... .. . Z30 ...
ROW 5B : ... .. . ... ... : ... .. . ... ... : ... .. . ... : ... .. . ... : ... .. . Z30 ...
ROW 5C : ... .. . ... ... : ... .. . ... ... : ... .. . ... : ... .. . ... : ... .. . Z30 ...
ROW 5D : ... .. . ... ... : ... .. . ... ... : ... .. . ... : ... .. . ... : ... .. . Z30 ...
ROW 5E : ... .. . ... ... : ... .. . ... ... : ... .. . ... : ... .. . ... : ... .. . Z30 ...
ROW 5F : ... .. . ... ... : ... .. . ... ... : ... .. . ... : ... .. . ... : ... .. . Z30 ...
ROW 60 : F#3 00 5 ... V00 : E-4 00 5 ... V00 : A#2 00 . ... : B-# 00 0 V00 : ... .. . Z30 ...
ROW 61 : ... .. 3 ... V02 : ... .. 3 ... V02 : ... .. . ... : ... .. . ... : ... .. . Z30 ...
ROW 62 : ... .. 4 ... ... : ... .. 4 ... ... : ... .. . ... : ... .. . ... : ... .. . Z30 ...
ROW 63 : ... .. 5 ... ... : ... .. 5 ... ... : ... .. . ... : ... .. . ... : ... .. . Z30 ...
ROW 64 : ... .. . ... ... : ... .. . ... ... : ... .. . ... : ... .. . ... : ... .. . Z30 ...
ROW 65 : ... .. 6 ... ... : ... .. 6 ... ... : ... .. . ... : ... .. . ... : ... .. . Z30 ...
ROW 66 : ... .. . ... ... : ... .. . ... ... : ... .. . ... : ... .. . ... : ... .. . Z30 ...
ROW 67 : ... .. . ... ... : ... .. . ... ... : ... .. . ... : ... .. . ... : ... .. . Z30 ...
ROW 68 : ... .. . ... ... : ... .. . ... ... : --- .. . ... : ... .. . ... : ... .. . Z30 ...
ROW 69 : ... .. . ... ... : ... .. . ... ... : ... .. . ... : ... .. . ... : ... .. . Z30 ...
ROW 6A : ... .. . ... ... : ... .. . ... ... : ... .. . ... : ... .. . ... : ... .. . Z30 ...
ROW 6B : ... .. . ... ... : ... .. . ... ... : ... .. . ... : ... .. . ... : ... .. . Z30 ...
ROW 6C : ... .. . ... ... : ... .. . ... ... : ... .. . ... : ... .. . ... : ... .. . Z30 ...
ROW 6D : ... .. . ... ... : ... .. . ... ... : ... .. . ... : ... .. . ... : ... .. . Z30 ...
ROW 6E : ... .. . ... ... : ... .. . ... ... : ... .. . ... : ... .. . ... : ... .. . Z30 ...
ROW 6F : ... .. . ... ... : ... .. . ... ... : ... .. . ... : ... .. . ... : ... .. . Z30 ...
ROW 70 : G#3 00 5 ... V00 : F-4 00 5 P7F V00 : A#3 00 . ... : ... .. C ... : ... .. . Z30 ...
ROW 71 : ... .. 3 ... V02 : ... .. 3 ... V02 : ... .. . ... : ... .. . ... : ... .. . Z30 ...
ROW 72 : ... .. 4 ... ... : ... .. 4 ... ... : ... .. . ... : ... .. . ... : ... .. . Z30 ...
ROW 73 : ... .. 5 ... ... : ... .. 5 ... ... : ... .. . ... : ... .. . ... : ... .. . Z30 ...
ROW 74 : ... .. . ... ... : ... .. . ... ... : ... .. . ... : ... .. . ... : ... .. . Z30 ...
ROW 75 : ... .. 6 ... ... : ... .. 6 ... ... : ... .. . ... : ... .. 0 ... : ... .. . Z30 ...
ROW 76 : ... .. . ... ... : ... .. . ... ... : ... .. . ... : ... .. . ... : ... .. . Z30 ...
ROW 77 : ... .. . ... ... : ... .. . ... ... : ... .. . ... : ... .. . ... : ... .. . Z30 ...
ROW 78 : ... .. . ... ... : ... .. . ... ... : --- .. . ... : ... .. . ... : ... .. . Z30 ...
ROW 79 : ... .. . ... ... : ... .. . ... ... : ... .. . ... : ... .. . ... : ... .. . Z30 ...
ROW 7A : ... .. . ... ... : ... .. . ... ... : ... .. . ... : ... .. . ... : ... .. . Z30 ...
ROW 7B : ... .. . ... ... : ... .. . ... ... : ... .. . ... : ... .. . ... : ... .. . Z30 ...
ROW 7C : ... .. . ... ... : ... .. . ... ... : ... .. . ... : ... .. . ... : ... .. . Z30 ...
ROW 7D : ... .. . ... ... : ... .. . ... ... : ... .. . ... : ... .. . ... : ... .. . Z30 ...
ROW 7E : ... .. . ... ... : ... .. . ... ... : ... .. . ... : ... .. . ... : ... .. . Z30 ...
ROW 7F : ... .. . ... ... : ... .. . ... ... : ... .. . ... : ... .. . ... : ... .. . Z30 ...
ROW 80 : G-3 00 5 ... V00 : D#4 00 5 P80 V00 : C-3 00 . P80 : B-# 00 0 V00 : ... .. . Z30 ...
ROW 81 : ... .. 3 ... V02 : ... .. 3 ... V02 : ... .. . ... : ... .. . ... : ... .. . Z30 ...
ROW 82 : ... .. 4 ... ... : ... .. 4 ... ... : ... .. . ... : ... .. . ... : ... .. . Z30 ...
ROW 83 : ... .. 5 ... ... : ... .. 5 ... ... : ... .. . ... : ... .. . ... : ... .. . Z30 ...
ROW 84 : ... .. . ... ... : ... .. . ... ... : ... .. . ... : ... .. . ... : ... .. . Z30 ...
ROW 85 : ... .. 6 ... ... : ... .. 6 ... ... : ... .. . ... : ... .. . ... : ... .. . Z30 ...
ROW 86 : ... .. . ... ... : ... .. . ... ... : ... .. . ... : ... .. . ... : ... .. . Z30 ...
ROW 87 : ... .. . ... ... : ... .. . ... ... : ... .. . ... : ... .. . ... : ... .. . Z30 ...
ROW 88 : ... .. . ... ... : ... .. . ... ... : --- .. . ... : ... .. . ... : ... .. . Z30 ...
ROW 89 : ... .. . ... ... : ... .. . ... ... : ... .. . ... : ... .. . ... : ... .. . Z30 ...
ROW 8A : ... .. . ... ... : ... .. . ... ... : ... .. . ... : ... .. . ... : ... .. . Z30 ...
ROW 8B : ... .. . ... ... : ... .. . ... ... : ... .. . ... : ... .. . ... : ... .. . Z30 ...
ROW 8C : ... .. . ... ... : ... .. . ... ... : ... .. . ... : ... .. . ... : ... .. . Z30 ...
ROW 8D : ... .. . ... ... : ... .. . ... ... : ... .. . ... : ... .. . ... : ... .. . Z30 ...
ROW 8E : ... .. . ... ... : ... .. . ... ... : ... .. . ... : ... .. . ... : ... .. . Z30 ...
ROW 8F : ... .. . ... ... : ... .. . ... ... : ... .. . ... : ... .. . ... : ... .. . Z30 ...
ROW 90 : ... .. . ... ... : ... .. . ... ... : C-4 00 . P80 : ... .. C ... : ... .. . Z30 ...
ROW 91 : ... .. . ... ... : ... .. . ... ... : ... .. . ... : ... .. . ... : ... .. . Z30 ...
ROW 92 : ... .. 3 ... ... : ... .. 3 ... ... : ... .. . ... : ... .. . ... : ... .. . Z30 ...
ROW 93 : ... .. . ... ... : ... .. . ... ... : ... .. . ... : ... .. . ... : ... .. . Z30 ...
ROW 94 : ... .. . ... ... : ... .. . ... ... : ... .. . ... : ... .. . ... : ... .. . Z30 ...
ROW 95 : ... .. 2 ... ... : ... .. 2 ... ... : ... .. . ... : ... .. 0 ... : ... .. . Z30 ...
ROW 96 : ... .. . ... ... : ... .. . ... ... : ... .. . ... : ... .. . ... : ... .. . Z30 ...
ROW 97 : ... .. 1 ... ... : ... .. 1 ... ... : ... .. . ... : ... .. . ... : ... .. . Z30 ...
ROW 98 : ... .. 0 ... ... : ... .. 0 ... ... : --- .. . ... : ... .. . ... : ... .. . Z30 ...
ROW 99 : ... .. . ... ... : ... .. . ... ... : ... .. . ... : ... .. . ... : ... .. . Z30 ...
ROW 9A : ... .. . ... ... : ... .. . ... ... : ... .. . ... : ... .. . ... : ... .. . Z30 ...
ROW 9B : ... .. . ... ... : ... .. . ... ... : ... .. . ... : ... .. . ... : ... .. . Z30 ...
ROW 9C : ... .. . ... ... : ... .. . ... ... : ... .. . ... : ... .. . ... : ... .. . Z30 ...
ROW 9D : ... .. . ... ... : ... .. . ... ... : ... .. . ... : ... .. . ... : ... .. . Z30 ...
ROW 9E : ... .. . ... ... : ... .. . ... ... : ... .. . ... : ... .. . ... : ... .. . Z30 ...
ROW 9F : ... .. . ... ... : ... .. . ... ... : ... .. . ... : ... .. . ... : ... .. . Z30 ...
ROW A0 : ... .. . ... ... : ... .. . ... ... : D#3 00 . P7F : B-# 00 0 V00 : ... .. . Z30 ...
ROW A1 : ... .. . ... ... : ... .. . ... ... : ... .. . ... : ... .. . ... : ... .. . Z30 ...
ROW A2 : ... .. . ... ... : ... .. . ... ... : ... .. . ... : ... .. . ... : ... .. . Z30 ...
ROW A3 : ... .. . ... ... : ... .. . ... ... : ... .. . ... : ... .. . ... : ... .. . Z30 ...
ROW A4 : ... .. . ... ... : ... .. . ... ... : ... .. . ... : ... .. . ... : ... .. . Z30 ...
ROW A5 : ... .. . ... ... : ... .. . ... ... : ... .. . ... : ... .. . ... : ... .. . Z30 ...
ROW A6 : ... .. . ... ... : ... .. . ... ... : ... .. . ... : ... .. . ... : ... .. . Z30 ...
ROW A7 : ... .. . ... ... : ... .. . ... ... : ... .. . ... : ... .. . ... : ... .. . Z30 ...
ROW A8 : ... .. . ... ... : ... .. . ... ... : --- .. . ... : ... .. . ... : ... .. . Z30 ...
ROW A9 : ... .. . ... ... : ... .. . ... ... : ... .. . ... : ... .. . ... : ... .. . Z30 ...
ROW AA : ... .. . ... ... : ... .. . ... ... : ... .. . ... : ... .. . ... : ... .. . Z30 ...
ROW AB : ... .. . ... ... : ... .. . ... ... : ... .. . ... : ... .. . ... : ... .. . Z30 ...
ROW AC : ... .. . ... ... : ... .. . ... ... : ... .. . ... : ... .. . ... : ... .. . Z30 ...
ROW AD : ... .. . ... ... : ... .. . ... ... : ... .. . ... : ... .. . ... : ... .. . Z30 ...
ROW AE : ... .. . ... ... : ... .. . ... ... : ... .. . ... : ... .. . ... : ... .. . Z30 ...
ROW AF : ... .. . ... ... : ... .. . ... ... : ... .. . ... : ... .. . ... : ... .. . Z30 ...
ROW B0 : ... .. . ... ... : ... .. . ... ... : C-4 00 . P80 : ... .. C ... : ... .. . Z30 ...
ROW B1 : ... .. . ... ... : ... .. . ... ... : ... .. . ... : ... .. . ... : ... .. . Z30 ...
ROW B2 : ... .. . ... ... : ... .. . ... ... : ... .. . ... : ... .. . ... : ... .. . Z30 ...
ROW B3 : ... .. . ... ... : ... .. . ... ... : ... .. . ... : ... .. . ... : ... .. . Z30 ...
ROW B4 : ... .. . ... ... : ... .. . ... ... : ... .. . ... : ... .. . ... : ... .. . Z30 ...
ROW B5 : ... .. . ... ... : ... .. . ... ... : ... .. . ... : ... .. 0 ... : ... .. . Z30 ...
ROW B6 : ... .. . ... ... : ... .. . ... ... : ... .. . ... : ... .. . ... : ... .. . Z30 ...
ROW B7 : ... .. . ... ... : ... .. . ... ... : ... .. . ... : ... .. . ... : ... .. . Z30 ...
ROW B8 : ... .. . ... ... : G-3 00 5 P7F V00 : --- .. . ... : ... .. . ... : ... .. . Z30 ...
ROW B9 : ... .. . ... ... : ... .. 3 ... V02 : ... .. . ... : ... .. . ... : ... .. . Z30 ...
ROW BA : ... .. . ... ... : ... .. 4 ... ... : ... .. . ... : ... .. . ... : ... .. . Z30 ...
ROW BB : ... .. . ... ... : ... .. 5 ... ... : ... .. . ... : ... .. . ... : ... .. . Z30 ...
ROW BC : ... .. . ... ... : ... .. . ... ... : ... .. . ... : ... .. . ... : ... .. . Z30 ...
ROW BD : ... .. . ... ... : ... .. 6 ... ... : ... .. . ... : ... .. . ... : ... .. . Z30 ...
ROW BE : ... .. . ... ... : ... .. . ... ... : ... .. . ... : ... .. . ... : ... .. . Z30 ...
ROW BF : ... .. . ... ... : ... .. . ... ... : ... .. . ... : ... .. . ... : ... .. . Z30 ...

PATTERN 02
ROW 00 : F-3 00 5 ... V00 : D-4 00 5 ... V00 : D-3 00 . ... : B-# 00 0 V00 : ... .. . Z30 ...
ROW 01 : ... .. 3 ... V02 : ... .. 3 ... V02 : ... .. . ... : ... .. . ... : ... .. . Z30 ...
ROW 02 : ... .. 4 ... ... : ... .. 4 ... ... : ... .. . ... : ... .. . ... : ... .. . Z30 ...
ROW 03 : ... .. 5 ... ... : ... .. 5 ... ... : ... .. . ... : ... .. . ... : ... .. . Z30 ...
ROW 04 : ... .. . ... ... : ... .. . ... ... : ... .. . ... : ... .. . ... : ... .. . Z30 ...
ROW 05 : ... .. 6 ... ... : ... .. 6 ... ... : ... .. . ... : ... .. . ... : ... .. . Z30 ...
ROW 06 : ... .. . ... ... : ... .. . ... ... : ... .. . ... : ... .. . ... : ... .. . Z30 ...
ROW 07 : ... .. . ... ... : ... .. . ... ... : ... .. . ... : ... .. . ... : ... .. . Z30 ...
ROW 08 : ... .. . ... ... : ... .. . ... ... : --- .. . ... : ... .. . ... : ... .. . Z30 ...
ROW 09 : ... .. . ... ... : ... .. . ... ... : ... .. . ... : ... .. . ... : ... .. . Z30 ...
ROW 0A : ... .. . ... ... : ... .. . ... ... : ... .. . ... : ... .. . ... : ... .. . Z30 ...
ROW 0B : ... .. . ... ... : ... .. . ... ... : ... .. . ... : ... .. . ... : ... .. . Z30 ...
ROW 0C : ... .. . ... ... : ... .. . ... ... : ... .. . ... : ... .. . ... : ... .. . Z30 ...
ROW 0D : ... .. . ... ... : ... .. . ... ... : ... .. . ... : ... .. . ... : ... .. . Z30 ...
ROW 0E : ... .. . ... ... : ... .. . ... ... : ... .. . ... : ... .. . ... : ... .. . Z30 ...
ROW 0F : ... .. . ... ... : ... .. . ... ... : ... .. . ... : ... .. . ... : ... .. . Z30 ...
ROW 10 : ... .. . ... ... : ... .. . ... ... : A#3 00 . ... : ... .. C ... : ... .. . Z30 ...
ROW 11 : ... .. . ... ... : ... .. . ... ... : ... .. . ... : ... .. . ... : ... .. . Z30 ...
ROW 12 : ... .. 3 ... ... : ... .. 3 ... ... : ... .. . ... : ... .. . ... : ... .. . Z30 ...
ROW 13 : ... .. . ... ... : ... .. . ... ... : ... .. . ... : ... .. . ... : ... .. . Z30 ...
ROW 14 : ... .. . ... ... : ... .. . ... ... : ... .. . ... : ... .. . ... : ... .. . Z30 ...
ROW 15 : ... .. 2 ... ... : ... .. 2 ... ... : ... .. . ... : ... .. 0 ... : ... .. . Z30 ...
ROW 16 : ... .. . ... ... : ... .. . ... ... : ... .. . ... : ... .. . ... : ... .. . Z30 ...
ROW 17 : ... .. 1 ... ... : ... .. 1 ... ... : ... .. . ... : ... .. . ... : ... .. . Z30 ...
ROW 18 : ... .. 0 ... ... : ... .. 0 ... ... : --- .. . ... : ... .. . ... : ... .. . Z30 ...
ROW 19 : ... .. . ... ... : ... .. . ... ... : ... .. . ... : ... .. . ... : ... .. . Z30 ...
ROW 1A : ... .. . ... ... : ... .. . ... ... : ... .. . ... : ... .. . ... : ... .. . Z30 ...
ROW 1B : ... .. . ... ... : ... .. . ... ... : ... .. . ... : ... .. . ... : ... .. . Z30 ...
ROW 1C : ... .. . ... ... : ... .. . ... ... : ... .. . ... : ... .. . ... : ... .. . Z30 ...
ROW 1D : ... .. . ... ... : ... .. . ... ... : ... .. . ... : ... .. . ... : ... .. . Z30 ...
ROW 1E : ... .. . ... ... : ... .. . ... ... : ... .. . ... : ... .. . ... : ... .. . Z30 ...
ROW 1F : ... .. . ... ... : ... .. . ... ... : ... .. . ... : ... .. . ... : ... .. . Z30 ...
ROW 20 : D#3 00 5 ... V00 : C#4 00 5 P80 V00 : C#3 00 . P80 : B-# 00 0 V00 : ... .. . Z30 ...
ROW 21 : ... .. 3 ... V02 : ... .. 3 ... V02 : ... .. . ... : ... .. . ... : ... .. . Z30 ...
ROW 22 : ... .. 4 ... ... : ... .. 4 ... ... : ... .. . ... : ... .. . ... : ... .. . Z30 ...
ROW 23 : ... .. 5 ... ... : ... .. 5 ... ... : ... .. . ... : ... .. . ... : ... .. . Z30 ...
ROW 24 : ... .. . ... ... : ... .. . ... ... : ... .. . ... : ... .. . ... : ... .. . Z30 ...
ROW 25 : ... .. 6 ... ... : ... .. 6 ... ... : ... .. . ... : ... .. . ... : ... .. . Z30 ...
ROW 26 : ... .. . ... ... : ... .. . ... ... : ... .. . ... : ... .. . ... : ... .. . Z30 ...
ROW 27 : ... .. . ... ... : ... .. . ... ... : ... .. . ... : ... .. . ... : ... .. . Z30 ...
ROW 28 : ... .. . ... ... : ... .. . ... ... : --- .. . ... : ... .. . ... : ... .. . Z30 ...
ROW 29 : ... .. . ... ... : ... .. . ... ... : ... .. . ... : ... .. . ... : ... .. . Z30 ...
ROW 2A : ... .. . ... ... : ... .. . ... ... : ... .. . ... : ... .. . ... : ... .. . Z30 ...
ROW 2B : ... .. . ... ... : ... .. . ... ... : ... .. . ... : ... .. . ... : ... .. . Z30 ...
ROW 2C : ... .. . ... ... : ... .. . ... ... : ... .. . ... : ... .. . ... : ... .. . Z30 ...
ROW 2D : ... .. . ... ... : ... .. . ... ... : ... .. . ... : ... .. . ... : ... .. . Z30 ...
ROW 2E : ... .. . ... ... : ... .. . ... ... : ... .. . ... : ... .. . ... : ... .. . Z30 ...
ROW 2F : ... .. . ... ... : ... .. . ... ... : ... .. . ... : ... .. . ... : ... .. . Z30 ...
ROW 30 : ... .. . ... ... : ... .. . ... ... : B-3 00 . P80 : ... .. C ... : ... .. . Z30 ...
ROW 31 : ... .. . ... ... : ... .. . ... ... : ... .. . ... : ... .. . ... : ... .. . Z30 ...
ROW 32 : ... .. 3 ... ... : ... .. 3 ... ... : ... .. . ... : ... .. . ... : ... .. . Z30 ...
ROW 33 : ... .. . ... ... : ... .. . ... ... : ... .. . ... : ... .. . ... : ... .. . Z30 ...
ROW 34 : ... .. . ... ... : ... .. . ... ... : ... .. . ... : ... .. . ... : ... .. . Z30 ...
ROW 35 : ... .. 2 ... ... : ... .. 2 ... ... : ... .. . ... : ... .. 0 ... : ... .. . Z30 ...
ROW 36 : ... .. . ... ... : ... .. . ... ... : ... .. . ... : ... .. . ... : ... .. . Z30 ...
ROW 37 : ... .. 1 ... ... : ... .. 1 ... ... : ... .. . ... : ... .. . ... : ... .. . Z30 ...
ROW 38 : ... .. 0 ... ... : ... .. 0 ... ... : --- .. . ... : ... .. . ... : ... .. . Z30 ...
ROW 39 : ... .. . ... ... : ... .. . ... ... : ... .. . ... : ... .. . ... : ... .. . Z30 ...
ROW 3A : ... .. . ... ... : ... .. . ... ... : ... .. . ... : ... .. . ... : ... .. . Z30 ...
ROW 3B : ... .. . ... ... : ... .. . ... ... : ... .. . ... : ... .. . ... : ... .. . Z30 ...
ROW 3C : ... .. . ... ... : ... .. . ... ... : ... .. . ... : ... .. . ... : ... .. . Z30 ...
ROW 3D : ... .. . ... ... : ... .. . ... ... : ... .. . ... : ... .. . ... : ... .. . Z30 ...
ROW 3E : ... .. . ... ... : ... .. . ... ... : ... .. . ... : ... .. . ... : ... .. . Z30 ...
ROW 3F : ... .. . ... ... : ... .. . ... ... : ... .. . ... : ... .. . ... : ... .. . Z30 ...
ROW 40 : F-3 00 5 ... V00 : D-4 00 5 P7F V00 : D-3 00 . ... : B-# 00 0 V00 : ... .. . Z30 ...
ROW 41 : ... .. 3 ... V02 : ... .. 3 ... V02 : ... .. . ... : ... .. . ... : ... .. . Z30 ...
ROW 42 : ... .. 4 ... ... : ... .. 4 ... ... : ... .. . ... : ... .. . ... : ... .. . Z30 ...
ROW 43 : ... .. 5 ... ... : ... .. 5 ... ... : ... .. . ... : ... .. . ... : ... .. . Z30 ...
ROW 44 : ... .. . ... ... : ... .. . ... ... : ... .. . ... : ... .. . ... : ... .. . Z30 ...
ROW 45 : ... .. 6 ... ... : ... .. 6 ... ... : ... .. . ... : ... .. . ... : ... .. . Z30 ...
ROW 46 : ... .. . ... ... : ... .. . ... ... : ... .. . ... : ... .. . ... : ... .. . Z30 ...
ROW 47 : ... .. . ... ... : ... .. . ... ... : ... .. . ... : ... .. . ... : ... .. . Z30 ...
ROW 48 : ... .. . ... ... : ... .. . ... ... : --- .. . ... : ... .. . ... : ... .. . Z30 ...
ROW 49 : ... .. . ... ... : ... .. . ... ... : ... .. . ... : ... .. . ... : ... .. . Z30 ...
ROW 4A : ... .. . ... ... : ... .. . ... ... : ... .. . ... : ... .. . ... : ... .. . Z30 ...
ROW 4B : ... .. . ... ... : ... .. . ... ... : ... .. . ... : ... .. . ... : ... .. . Z30 ...
ROW 4C : ... .. . ... ... : ... .. . ... ... : ... .. . ... : ... .. . ... : ... .. . Z30 ...
ROW 4D : ... .. . ... ... : ... .. . ... ... : ... .. . ... : ... .. . ... : ... .. . Z30 ...
ROW 4E : ... .. . ... ... : ... .. . ... ... : ... .. . ... : ... .. . ... : ... .. . Z30 ...
ROW 4F : ... .. . ... ... : ... .. . ... ... : ... .. . ... : ... .. . ... : ... .. . Z30 ...
ROW 50 : ... .. . ... ... : ... .. . ... ... : A#3 00 . ... : ... .. C ... : ... .. . Z30 ...
ROW 51 : ... .. . ... ... : ... .. . ... ... : ... .. . ... : ... .. . ... : ... .. . Z30 ...
ROW 52 : ... .. 3 ... ... : ... .. 3 ... ... : ... .. . ... : ... .. . ... : ... .. . Z30 ...
ROW 53 : ... .. . ... ... : ... .. . ... ... : ... .. . ... : ... .. . ... : ... .. . Z30 ...
ROW 54 : ... .. . ... ... : ... .. . ... ... : ... .. . ... : ... .. . ... : ... .. . Z30 ...
ROW 55 : ... .. 2 ... ... : ... .. 2 ... ... : ... .. . ... : ... .. 0 ... : ... .. . Z30 ...
ROW 56 : ... .. . ... ... : ... .. . ... ... : ... .. . ... : ... .. . ... : ... .. . Z30 ...
ROW 57 : ... .. 1 ... ... : ... .. 1 ... ... : ... .. . ... : ... .. . ... : ... .. . Z30 ...
ROW 58 : ... .. 0 ... ... : ... .. 0 ... ... : --- .. . ... : ... .. . ... : ... .. . Z30 ...
ROW 59 : ... .. . ... ... : ... .. . ... ... : ... .. . ... : ... .. . ... : ... .. . Z30 ...
ROW 5A : ... .. . ... ... : ... .. . ... ... : ... .. . ... : ... .. . ... : ... .. . Z30 ...
ROW 5B : ... .. . ... ... : ... .. . ... ... : ... .. . ... : ... .. . ... : ... .. . Z30 ...
ROW 5C : ... .. . ... ... : ... .. . ... ... : ... .. . ... : ... .. . ... : ... .. . Z30 ...
ROW 5D : ... .. . ... ... : ... .. . ... ... : ... .. . ... : ... .. . ... : ... .. . Z30 ...
ROW 5E : ... .. . ... ... : ... .. . ... ... : ... .. . ... : ... .. . ... : ... .. . Z30 ...
ROW 5F : ... .. . ... ... : ... .. . ... ... : ... .. . ... : ... .. . ... : ... .. . Z30 ...
ROW 60 : ... .. . ... ... : ... .. . ... ... : A#2 00 . P80 : B-# 00 0 V00 : ... .. . Z30 ...
ROW 61 : ... .. . ... ... : ... .. . ... ... : ... .. . ... : ... .. . ... : ... .. . Z30 ...
ROW 62 : ... .. . ... ... : ... .. . ... ... : ... .. . ... : ... .. . ... : ... .. . Z30 ...
ROW 63 : ... .. . ... ... : ... .. . ... ... : ... .. . ... : ... .. . ... : ... .. . Z30 ...
ROW 64 : ... .. . ... ... : ... .. . ... ... : ... .. . ... : ... .. . ... : ... .. . Z30 ...
ROW 65 : ... .. . ... ... : ... .. . ... ... : ... .. . ... : ... .. . ... : ... .. . Z30 ...
ROW 66 : ... .. . ... ... : ... .. . ... ... : ... .. . ... : ... .. . ... : ... .. . Z30 ...
ROW 67 : ... .. . ... ... : ... .. . ... ... : ... .. . ... : ... .. . ... : ... .. . Z30 ...
ROW 68 : ... .. . ... ... : G-3 00 5 ... V00 : --- .. . ... : ... .. . ... : ... .. . Z30 ...
ROW 69 : ... .. . ... ... : ... .. 3 ... V02 : ... .. . ... : ... .. . ... : ... .. . Z30 ...
ROW 6A : ... .. . ... ... : ... .. 4 ... ... : ... .. . ... : ... .. . ... : ... .. . Z30 ...
ROW 6B : ... .. . ... ... : ... .. 5 ... ... : ... .. . ... : ... .. . ... : ... .. . Z30 ...
ROW 6C : ... .. . ... ... : ... .. . ... ... : ... .. . ... : ... .. . ... : ... .. . Z30 ...
ROW 6D : ... .. . ... ... : ... .. 6 ... ... : ... .. . ... : ... .. . ... : ... .. . Z30 ...
ROW 6E : ... .. . ... ... : ... .. . ... ... : ... .. . ... : ... .. . ... : ... .. . Z30 ...
ROW 6F : ... .. . ... ... : ... .. . ... ... : ... .. . ... : ... .. . ... : ... .. . Z30 ...
ROW 70 : ... .. . ... ... : C-4 00 5 P80 V00 : A#3 00 . ... : ... .. C ... : ... .. . Z30 ...
ROW 71 : ... .. . ... ... : ... .. 3 ... V02 : ... .. . ... : ... .. . ... : ... .. . Z30 ...
ROW 72 : ... .. . ... ... : ... .. 4 ... ... : ... .. . ... : ... .. . ... : ... .. . Z30 ...
ROW 73 : ... .. . ... ... : ... .. 5 ... ... : ... .. . ... : ... .. . ... : ... .. . Z30 ...
ROW 74 : ... .. . ... ... : ... .. . ... ... : ... .. . ... : ... .. . ... : ... .. . Z30 ...
ROW 75 : ... .. . ... ... : ... .. 6 ... ... : ... .. . ... : ... .. 0 ... : ... .. . Z30 ...
ROW 76 : ... .. . ... ... : ... .. . ... ... : ... .. . ... : ... .. . ... : ... .. . Z30 ...
ROW 77 : ... .. . ... ... : ... .. . ... ... : ... .. . ... : ... .. . ... : ... .. . Z30 ...
ROW 78 : ... .. . ... ... : C#4 00 5 ... V00 : --- .. . ... : ... .. . ... : ... .. . Z30 ...
ROW 79 : ... .. . ... ... : ... .. 3 ... V02 : ... .. . ... : ... .. . ... : ... .. . Z30 ...
ROW 7A : ... .. . ... ... : ... .. 4 ... ... : ... .. . ... : ... .. . ... : ... .. . Z30 ...
ROW 7B : ... .. . ... ... : ... .. 5 ... ... : ... .. . ... : ... .. . ... : ... .. . Z30 ...
ROW 7C : ... .. . ... ... : ... .. . ... ... : ... .. . ... : ... .. . ... : ... .. . Z30 ...
ROW 7D : ... .. . ... ... : ... .. 6 ... ... : ... .. . ... : ... .. . ... : ... .. . Z30 ...
ROW 7E : ... .. . ... ... : ... .. . ... ... : ... .. . ... : ... .. . ... : ... .. . Z30 ...
ROW 7F : ... .. . ... ... : ... .. . ... ... : ... .. . ... : ... .. . ... : ... .. . Z30 ...
ROW 80 : ... .. 5 ... V00 : D-4 00 5 P7F V00 : D-3 00 . P80 : B-# 00 0 V00 : ... .. . Z30 ...
ROW 81 : ... .. 3 ... V02 : ... .. 3 ... V02 : ... .. . ... : ... .. . ... : ... .. . Z30 ...
ROW 82 : ... .. 4 ... ... : ... .. 4 ... ... : ... .. . ... : ... .. . ... : ... .. . Z30 ...
ROW 83 : ... .. 5 ... ... : ... .. 5 ... ... : ... .. . ... : ... .. . ... : ... .. . Z30 ...
ROW 84 : ... .. . ... ... : ... .. . ... ... : ... .. . ... : ... .. . ... : ... .. . Z30 ...
ROW 85 : ... .. 6 ... ... : ... .. 6 ... ... : ... .. . ... : ... .. . ... : ... .. . Z30 ...
ROW 86 : ... .. . ... ... : ... .. . ... ... : ... .. . ... : ... .. . ... : ... .. . Z30 ...
ROW 87 : ... .. . ... ... : ... .. . ... ... : ... .. . ... : ... .. . ... : ... .. . Z30 ...
ROW 88 : ... .. . ... ... : ... .. . ... ... : --- .. . ... : ... .. . ... : ... .. . Z30 ...
ROW 89 : ... .. . ... ... : ... .. . ... ... : ... .. . ... : ... .. . ... : ... .. . Z30 ...
ROW 8A : ... .. . ... ... : ... .. . ... ... : ... .. . ... : ... .. . ... : ... .. . Z30 ...
ROW 8B : ... .. . ... ... : ... .. . ... ... : ... .. . ... : ... .. . ... : ... .. . Z30 ...
ROW 8C : ... .. . ... ... : ... .. . ... ... : ... .. . ... : ... .. . ... : ... .. . Z30 ...
ROW 8D : ... .. . ... ... : ... .. . ... ... : ... .. . ... : ... .. . ... : ... .. . Z30 ...
ROW 8E : ... .. . ... ... : ... .. . ... ... : ... .. . ... : ... .. . ... : ... .. . Z30 ...
ROW 8F : ... .. . ... ... : ... .. . ... ... : ... .. . ... : ... .. . ... : ... .. . Z30 ...
ROW 90 : ... .. . ... ... : ... .. . ... ... : A#3 00 . ... : ... .. C ... : ... .. . Z30 ...
ROW 91 : ... .. . ... ... : ... .. . ... ... : ... .. . ... : ... .. . ... : ... .. . Z30 ...
ROW 92 : ... .. 3 ... ... : ... .. 3 ... ... : ... .. . ... : ... .. . ... : ... .. . Z30 ...
ROW 93 : ... .. . ... ... : ... .. . ... ... : ... .. . ... : ... .. . ... : ... .. . Z30 ...
ROW 94 : ... .. . ... ... : ... .. . ... ... : ... .. . ... : ... .. . ... : ... .. . Z30 ...
ROW 95 : ... .. 2 ... ... : ... .. 2 ... ... : ... .. . ... : ... .. 0 ... : ... .. . Z30 ...
ROW 96 : ... .. . ... ... : ... .. . ... ... : ... .. . ... : ... .. . ... : ... .. . Z30 ...
ROW 97 : ... .. 1 ... ... : ... .. 1 ... ... : ... .. . ... : ... .. . ... : ... .. . Z30 ...
ROW 98 : ... .. 0 ... ... : ... .. 0 ... ... : --- .. . ... : ... .. . ... : ... .. . Z30 ...
ROW 99 : ... .. . ... ... : ... .. . ... ... : ... .. . ... : ... .. . ... : ... .. . Z30 ...
ROW 9A : ... .. . ... ... : ... .. . ... ... : ... .. . ... : ... .. . ... : ... .. . Z30 ...
ROW 9B : ... .. . ... ... : ... .. . ... ... : ... .. . ... : ... .. . ... : ... .. . Z30 ...
ROW 9C : ... .. . ... ... : ... .. . ... ... : ... .. . ... : ... .. . ... : ... .. . Z30 ...
ROW 9D : ... .. . ... ... : ... .. . ... ... : ... .. . ... : ... .. . ... : ... .. . Z30 ...
ROW 9E : ... .. . ... ... : ... .. . ... ... : ... .. . ... : ... .. . ... : ... .. . Z30 ...
ROW 9F : ... .. . ... ... : ... .. . ... ... : ... .. . ... : ... .. . ... : ... .. . Z30 ...
ROW A0 : A#2 00 5 P80 V00 : G-3 00 5 ... V00 : A#2 00 . P80 : B-# 00 0 V00 : ... .. . Z30 ...
ROW A1 : ... .. 3 ... V02 : ... .. 3 ... V02 : ... .. . ... : ... .. . ... : ... .. . Z30 ...
ROW A2 : ... .. 4 ... ... : ... .. 4 ... ... : ... .. . ... : ... .. . ... : ... .. . Z30 ...
ROW A3 : ... .. 5 ... ... : ... .. 5 ... ... : ... .. . ... : ... .. . ... : ... .. . Z30 ...
ROW A4 : ... .. . ... ... : ... .. . ... ... : ... .. . ... : ... .. . ... : ... .. . Z30 ...
ROW A5 : ... .. 6 ... ... : ... .. 6 ... ... : ... .. . ... : ... .. . ... : ... .. . Z30 ...
ROW A6 : ... .. . ... ... : ... .. . ... ... : ... .. . ... : ... .. . ... : ... .. . Z30 ...
ROW A7 : ... .. . ... ... : ... .. . ... ... : ... .. . ... : ... .. . ... : ... .. . Z30 ...
ROW A8 : ... .. . ... ... : ... .. . ... ... : --- .. . ... : ... .. . ... : ... .. . Z30 ...
ROW A9 : ... .. . ... ... : ... .. . ... ... : ... .. . ... : ... .. . ... : ... .. . Z30 ...
ROW AA : ... .. . ... ... : ... .. . ... ... : ... .. . ... : ... .. . ... : ... .. . Z30 ...
ROW AB : ... .. . ... ... : ... .. . ... ... : ... .. . ... : ... .. . ... : ... .. . Z30 ...
ROW AC : ... .. . ... ... : ... .. . ... ... : ... .. . ... : ... .. . ... : ... .. . Z30 ...
ROW AD : ... .. . ... ... : ... .. . ... ... : ... .. . ... : ... .. . ... : ... .. . Z30 ...
ROW AE : ... .. . ... ... : ... .. . ... ... : ... .. . ... : ... .. . ... : ... .. . Z30 ...
ROW AF : ... .. . ... ... : ... .. . ... ... : ... .. . ... : ... .. . ... : ... .. . Z30 ...
ROW B0 : G#3 00 5 P7F V00 : F-4 00 5 ... V00 : A#3 00 . ... : ... .. C ... : ... .. . Z30 ...
ROW B1 : ... .. 3 ... V02 : ... .. 3 ... V02 : ... .. . ... : ... .. . ... : ... .. . Z30 ...
ROW B2 : ... .. 4 ... ... : ... .. 4 ... ... : ... .. . ... : ... .. . ... : ... .. . Z30 ...
ROW B3 : ... .. 5 ... ... : ... .. 5 ... ... : ... .. . ... : ... .. . ... : ... .. . Z30 ...
ROW B4 : ... .. . ... ... : ... .. . ... ... : ... .. . ... : ... .. . ... : ... .. . Z30 ...
ROW B5 : ... .. 6 ... ... : ... .. 6 ... ... : ... .. . ... : ... .. 0 ... : ... .. . Z30 ...
ROW B6 : ... .. . ... ... : ... .. . ... ... : ... .. . ... : ... .. . ... : ... .. . Z30 ...
ROW B7 : ... .. . ... ... : ... .. . ... ... : ... .. . ... : ... .. . ... : ... .. . Z30 ...
ROW B8 : ... .. . ... ... : ... .. . ... ... : --- .. . ... : ... .. . ... : ... .. . Z30 ...
ROW B9 : ... .. . ... ... : ... .. . ... ... : ... .. . ... : ... .. . ... : ... .. . Z30 ...
ROW BA : ... .. . ... ... : ... .. . ... ... : ... .. . ... : ... .. . ... : ... .. . Z30 ...
ROW BB : ... .. . ... ... : ... .. . ... ... : ... .. . ... : ... .. . ... : ... .. . Z30 ...
ROW BC : ... .. . ... ... : ... .. . ... ... : ... .. . ... : ... .. . ... : ... .. . Z30 ...
ROW BD : ... .. . ... ... : ... .. . ... ... : ... .. . ... : ... .. . ... : ... .. . Z30 ...
ROW BE : ... .. . ... ... : ... .. . ... ... : ... .. . ... : ... .. . ... : ... .. . Z30 ...
ROW BF : ... .. . ... ... : ... .. . ... ... : ... .. . ... : ... .. . ... : ... .. . Z30 ...

PATTERN 03
ROW 00 : G-3 00 5 ... V00 : D#4 00 5 P80 V00 : C-3 00 . P80 : B-# 00 0 V00 : ... .. . Z30 ...
ROW 01 : ... .. 3 ... V02 : ... .. 3 ... V02 : ... .. . ... : ... .. . ... : ... .. . Z30 ...
ROW 02 : ... .. 4 ... ... : ... .. 4 ... ... : ... .. . ... : ... .. . ... : ... .. . Z30 ...
ROW 03 : ... .. 5 ... ... : ... .. 5 ... ... : ... .. . ... : ... .. . ... : ... .. . Z30 ...
ROW 04 : ... .. . ... ... : ... .. . ... ... : ... .. . ... : ... .. . ... : ... .. . Z30 ...
ROW 05 : ... .. 6 ... ... : ... .. 6 ... ... : ... .. . ... : ... .. . ... : ... .. . Z30 ...
ROW 06 : ... .. . ... ... : ... .. . ... ... : ... .. . ... : ... .. . ... : ... .. . Z30 ...
ROW 07 : ... .. . ... ... : ... .. . ... ... : ... .. . ... : ... .. . ... : ... .. . Z30 ...
ROW 08 : ... .. . ... ... : ... .. . ... ... : --- .. . ... : ... .. . ... : ... .. . Z30 ...
ROW 09 : ... .. . ... ... : ... .. . ... ... : ... .. . ... : ... .. . ... : ... .. . Z30 ...
ROW 0A : ... .. . ... ... : ... .. . ... ... : ... .. . ... : ... .. . ... : ... .. . Z30 ...
ROW 0B : ... .. . ... ... : ... .. . ... ... : ... .. . ... : ... .. . ... : ... .. . Z30 ...
ROW 0C : ... .. . ... ... : ... .. . ... ... : ... .. . ... : ... .. . ... : ... .. . Z30 ...
ROW 0D : ... .. . ... ... : ... .. . ... ... : ... .. . ... : ... .. . ... : ... .. . Z30 ...
ROW 0E : ... .. . ... ... : ... .. . ... ... : ... .. . ... : ... .. . ... : ... .. . Z30 ...
ROW 0F : ... .. . ... ... : ... .. . ... ... : ... .. . ... : ... .. . ... : ... .. . Z30 ...
ROW 10 : ... .. . ... ... : ... .. . ... ... : C-4 00 . P80 : ... .. C ... : ... .. . Z30 ...
ROW 11 : ... .. . ... ... : ... .. . ... ... : ... .. . ... : ... .. . ... : ... .. . Z30 ...
ROW 12 : ... .. 3 ... ... : ... .. 3 ... ... : ... .. . ... : ... .. . ... : ... .. . Z30 ...
ROW 13 : ... .. . ... ... : ... .. . ... ... : ... .. . ... : ... .. . ... : ... .. . Z30 ...
ROW 14 : ... .. . ... ... : ... .. . ... ... : ... .. . ... : ... .. . ... : ... .. . Z30 ...
ROW 15 : ... .. 2 ... ... : ... .. 2 ... ... : ... .. . ... : ... .. 0 ... : ... .. . Z30 ...
ROW 16 : ... .. . ... ... : ... .. . ... ... : ... .. . ... : ... .. . ... : ... .. . Z30 ...
ROW 17 : ... .. 1 ... ... : ... .. 1 ... ... : ... .. . ... : ... .. . ... : ... .. . Z30 ...
ROW 18 : ... .. 0 ... ... : ... .. 0 ... ... : --- .. . ... : ... .. . ... : ... .. . Z30 ...
ROW 19 : ... .. . ... ... : ... .. . ... ... : ... .. . ... : ... .. . ... : ... .. . Z30 ...
ROW 1A : ... .. . ... ... : ... .. . ... ... : ... .. . ... : ... .. . ... : ... .. . Z30 ...
ROW 1B : ... .. . ... ... : ... .. . ... ... : ... .. . ... : ... .. . ... : ... .. . Z30 ...
ROW 1C : ... .. . ... ... : ... .. . ... ... : ... .. . ... : ... .. . ... : ... .. . Z30 ...
ROW 1D : ... .. . ... ... : ... .. . ... ... : ... .. . ... : ... .. . ... : ... .. . Z30 ...
ROW 1E : ... .. . ... ... : ... .. . ... ... : ... .. . ... : ... .. . ... : ... .. . Z30 ...
ROW 1F : ... .. . ... ... : ... .. . ... ... : ... .. . ... : ... .. . ... : ... .. . Z30 ...
ROW 20 : ... .. . ... ... : ... .. . ... ... : G-2 00 . ... : B-# 00 0 V00 : ... .. . Z30 ...
ROW 21 : ... .. . ... ... : ... .. . ... ... : ... .. . ... : ... .. . ... : ... .. . Z30 ...
ROW 22 : ... .. . ... ... : ... .. . ... ... : ... .. . ... : ... .. . ... : ... .. . Z30 ...
ROW 23 : ... .. . ... ... : ... .. . ... ... : ... .. . ... : ... .. . ... : ... .. . Z30 ...
ROW 24 : ... .. . ... ... : ... .. . ... ... : ... .. . ... : ... .. . ... : ... .. . Z30 ...
ROW 25 : ... .. . ... ... : ... .. . ... ... : ... .. . ... : ... .. . ... : ... .. . Z30 ...
ROW 26 : ... .. . ... ... : ... .. . ... ... : ... .. . ... : ... .. . ... : ... .. . Z30 ...
ROW 27 : ... .. . ... ... : ... .. . ... ... : ... .. . ... : ... .. . ... : ... .. . Z30 ...
ROW 28 : ... .. . ... ... : ... .. . ... ... : --- .. . ... : ... .. . ... : ... .. . Z30 ...
ROW 29 : ... .. . ... ... : ... .. . ... ... : ... .. . ... : ... .. . ... : ... .. . Z30 ...
ROW 2A : ... .. . ... ... : ... .. . ... ... : ... .. . ... : ... .. . ... : ... .. . Z30 ...
ROW 2B : ... .. . ... ... : ... .. . ... ... : ... .. . ... : ... .. . ... : ... .. . Z30 ...
ROW 2C : ... .. . ... ... : ... .. . ... ... : ... .. . ... : ... .. . ... : ... .. . Z30 ...
ROW 2D : ... .. . ... ... : ... .. . ... ... : ... .. . ... : ... .. . ... : ... .. . Z30 ...
ROW 2E : ... .. . ... ... : ... .. . ... ... : ... .. . ... : ... .. . ... : ... .. . Z30 ...
ROW 2F : ... .. . ... ... : ... .. . ... ... : ... .. . ... : ... .. . ... : ... .. . Z30 ...
ROW 30 : ... .. . ... ... : ... .. . ... ... : C-4 00 . P80 : ... .. C ... : ... .. . Z30 ...
ROW 31 : ... .. . ... ... : ... .. . ... ... : ... .. . ... : ... .. . ... : ... .. . Z30 ...
ROW 32 : ... .. . ... ... : ... .. . ... ... : ... .. . ... : ... .. . ... : ... .. . Z30 ...
ROW 33 : ... .. . ... ... : ... .. . ... ... : ... .. . ... : ... .. . ... : ... .. . Z30 ...
ROW 34 : ... .. . ... ... : ... .. . ... ... : ... .. . ... : ... .. . ... : ... .. . Z30 ...
ROW 35 : ... .. . ... ... : ... .. . ... ... : ... .. . ... : ... .. 0 ... : ... .. . Z30 ...
ROW 36 : ... .. . ... ... : ... .. . ... ... : ... .. . ... : ... .. . ... : ... .. . Z30 ...
ROW 37 : ... .. . ... ... : ... .. . ... ... : ... .. . ... : ... .. . ... : ... .. . Z30 ...
ROW 38 : ... .. . ... ... : G-3 00 5 P7F V00 : --- .. . ... : ... .. . ... : ... .. . Z30 ...
ROW 39 : ... .. . ... ... : ... .. 3 ... V02 : ... .. . ... : ... .. . ... : ... .. . Z30 ...
ROW 3A : ... .. . ... ... : ... .. 4 ... ... : ... .. . ... : ... .. . ... : ... .. . Z30 ...
ROW 3B : ... .. . ... ... : ... .. 5 ... ... : ... .. . ... : ... .. . ... : ... .. . Z30 ...
ROW 3C : ... .. . ... ... : ... .. . ... ... : ... .. . ... : ... .. . ... : ... .. . Z30 ...
ROW 3D : ... .. . ... ... : ... .. 6 ... ... : ... .. . ... : ... .. . ... : ... .. . Z30 ...
ROW 3E : ... .. . ... ... : ... .. . ... ... : ... .. . ... : ... .. . ... : ... .. . Z30 ...
ROW 3F : ... .. . ... ... : ... .. . ... ... : ... .. . ... : ... .. . ... : ... .. . Z30 ...
ROW 40 : D#4 00 5 P80 V00 : G-4 00 5 P80 V00 : C-3 00 . ... : B-# 00 0 V00 : ... .. . Z30 ...
ROW 41 : ... .. 3 ... V02 : ... .. 3 ... V02 : ... .. . ... : ... .. . ... : ... .. . Z30 ...
ROW 42 : ... .. 4 ... ... : ... .. 4 ... ... : ... .. . ... : ... .. . ... : ... .. . Z30 ...
ROW 43 : ... .. 5 ... ... : ... .. 5 ... ... : ... .. . ... : ... .. . ... : ... .. . Z30 ...
ROW 44 : ... .. . ... ... : ... .. . ... ... : ... .. . ... : ... .. . ... : ... .. . Z30 ...
ROW 45 : ... .. 6 ... ... : ... .. 6 ... ... : ... .. . ... : ... .. . ... : ... .. . Z30 ...
ROW 46 : ... .. . ... ... : ... .. . ... ... : ... .. . ... : ... .. . ... : ... .. . Z30 ...
ROW 47 : ... .. . ... ... : ... .. . ... ... : ... .. . ... : ... .. . ... : ... .. . Z30 ...
ROW 48 : ... .. . ... ... : ... .. . ... ... : --- .. . ... : ... .. . ... : ... .. . Z30 ...
ROW 49 : ... .. . ... ... : ... .. . ... ... : ... .. . ... : ... .. . ... : ... .. . Z30 ...
ROW 4A : ... .. . ... ... : ... .. . ... ... : ... .. . ... : ... .. . ... : ... .. . Z30 ...
ROW 4B : ... .. . ... ... : ... .. . ... ... : ... .. . ... : ... .. . ... : ... .. . Z30 ...
ROW 4C : ... .. . ... ... : ... .. . ... ... : ... .. . ... : ... .. . ... : ... .. . Z30 ...
ROW 4D : ... .. . ... ... : ... .. . ... ... : ... .. . ... : ... .. . ... : ... .. . Z30 ...
ROW 4E : ... .. . ... ... : ... .. . ... ... : ... .. . ... : ... .. . ... : ... .. . Z30 ...
ROW 4F : ... .. . ... ... : ... .. . ... ... : ... .. . ... : ... .. . ... : ... .. . Z30 ...
ROW 50 : ... .. . ... ... : ... .. . ... ... : D#4 00 . P80 : ... .. C ... : ... .. . Z30 ...
ROW 51 : ... .. . ... ... : ... .. . ... ... : ... .. . ... : ... .. . ... : ... .. . Z30 ...
ROW 52 : ... .. 3 ... ... : ... .. 3 ... ... : ... .. . ... : ... .. . ... : ... .. . Z30 ...
ROW 53 : ... .. . ... ... : ... .. . ... ... : ... .. . ... : ... .. . ... : ... .. . Z30 ...
ROW 54 : ... .. . ... ... : ... .. . ... ... : ... .. . ... : ... .. . ... : ... .. . Z30 ...
ROW 55 : ... .. 2 ... ... : ... .. 2 ... ... : ... .. . ... : ... .. 0 ... : ... .. . Z30 ...
ROW 56 : ... .. . ... ... : ... .. . ... ... : ... .. . ... : ... .. . ... : ... .. . Z30 ...
ROW 57 : ... .. 1 ... ... : ... .. 1 ... ... : ... .. . ... : ... .. . ... : ... .. . Z30 ...
ROW 58 : ... .. 0 ... ... : ... .. 0 ... ... : --- .. . ... : ... .. . ... : ... .. . Z30 ...
ROW 59 : ... .. . ... ... : ... .. . ... ... : ... .. . ... : ... .. . ... : ... .. . Z30 ...
ROW 5A : ... .. . ... ... : ... .. . ... ... : ... .. . ... : ... .. . ... : ... .. . Z30 ...
ROW 5B : ... .. . ... ... : ... .. . ... ... : ... .. . ... : ... .. . ... : ... .. . Z30 ...
ROW 5C : ... .. . ... ... : ... .. . ... ... : ... .. . ... : ... .. . ... : ... .. . Z30 ...
ROW 5D : ... .. . ... ... : ... .. . ... ... : ... .. . ... : ... .. . ... : ... .. . Z30 ...
ROW 5E : ... .. . ... ... : ... .. . ... ... : ... .. . ... : ... .. . ... : ... .. . Z30 ...
ROW 5F : ... .. . ... ... : ... .. . ... ... : ... .. . ... : ... .. . ... : ... .. . Z30 ...
ROW 60 : D-4 00 5 P7F V00 : ... .. 5 ... V00 : A#2 00 . ... : B-# 00 0 V00 : ... .. . Z30 ...
ROW 61 : ... .. 3 ... V02 : ... .. 3 ... V02 : ... .. . ... : ... .. . ... : ... .. . Z30 ...
ROW 62 : ... .. 4 ... ... : ... .. 4 ... ... : ... .. . ... : ... .. . ... : ... .. . Z30 ...
ROW 63 : ... .. 5 ... ... : ... .. 5 ... ... : ... .. . ... : ... .. . ... : ... .. . Z30 ...
ROW 64 : ... .. . ... ... : ... .. . ... ... : ... .. . ... : ... .. . ... : ... .. . Z30 ...
ROW 65 : ... .. 6 ... ... : ... .. 6 ... ... : ... .. . ... : ... .. . ... : ... .. . Z30 ...
ROW 66 : ... .. . ... ... : ... .. . ... ... : ... .. . ... : ... .. . ... : ... .. . Z30 ...
ROW 67 : ... .. . ... ... : ... .. . ... ... : ... .. . ... : ... .. . ... : ... .. . Z30 ...
ROW 68 : ... .. . ... ... : ... .. . ... ... : --- .. . ... : ... .. . ... : ... .. . Z30 ...
ROW 69 : ... .. . ... ... : ... .. . ... ... : ... .. . ... : ... .. . ... : ... .. . Z30 ...
ROW 6A : ... .. . ... ... : ... .. . ... ... : ... .. . ... : ... .. . ... : ... .. . Z30 ...
ROW 6B : ... .. . ... ... : ... .. . ... ... : ... .. . ... : ... .. . ... : ... .. . Z30 ...
ROW 6C : ... .. . ... ... : ... .. . ... ... : ... .. . ... : ... .. . ... : ... .. . Z30 ...
ROW 6D : ... .. . ... ... : ... .. . ... ... : ... .. . ... : ... .. . ... : ... .. . Z30 ...
ROW 6E : ... .. . ... ... : ... .. . ... ... : ... .. . ... : ... .. . ... : ... .. . Z30 ...
ROW 6F : ... .. . ... ... : ... .. . ... ... : ... .. . ... : ... .. . ... : ... .. . Z30 ...
ROW 70 : ... .. . ... ... : ... .. . ... ... : D-4 00 . ... : ... .. C ... : ... .. . Z30 ...
ROW 71 : ... .. . ... ... : ... .. . ... ... : ... .. . ... : ... .. . ... : ... .. . Z30 ...
ROW 72 : ... .. 3 ... ... : ... .. 3 ... ... : ... .. . ... : ... .. . ... : ... .. . Z30 ...
ROW 73 : ... .. . ... ... : ... .. . ... ... : ... .. . ... : ... .. . ... : ... .. . Z30 ...
ROW 74 : ... .. . ... ... : ... .. . ... ... : ... .. . ... : ... .. . ... : ... .. . Z30 ...
ROW 75 : ... .. 2 ... ... : ... .. 2 ... ... : ... .. . ... : ... .. 0 ... : ... .. . Z30 ...
ROW 76 : ... .. . ... ... : ... .. . ... ... : ... .. . ... : ... .. . ... : ... .. . Z30 ...
ROW 77 : ... .. 1 ... ... : ... .. 1 ... ... : ... .. . ... : ... .. . ... : ... .. . Z30 ...
ROW 78 : ... .. 0 ... ... : ... .. 0 ... ... : --- .. . ... : ... .. . ... : ... .. . Z30 ...
ROW 79 : ... .. . ... ... : ... .. . ... ... : ... .. . ... : ... .. . ... : ... .. . Z30 ...
ROW 7A : ... .. . ... ... : ... .. . ... ... : ... .. . ... : ... .. . ... : ... .. . Z30 ...
ROW 7B : ... .. . ... ... : ... .. . ... ... : ... .. . ... : ... .. . ... : ... .. . Z30 ...
ROW 7C : ... .. . ... ... : ... .. . ... ... : ... .. . ... : ... .. . ... : ... .. . Z30 ...
ROW 7D : ... .. . ... ... : ... .. . ... ... : ... .. . ... : ... .. . ... : ... .. . Z30 ...
ROW 7E : ... .. . ... ... : ... .. . ... ... : ... .. . ... : ... .. . ... : ... .. . Z30 ...
ROW 7F : ... .. . ... ... : ... .. . ... ... : ... .. . ... : ... .. . ... : ... .. . Z30 ...
ROW 80 : C#4 00 5 P80 V00 : ... .. 5 ... V00 : B-2 00 . P80 : B-# 00 0 V00 : ... .. . Z30 ...
ROW 81 : ... .. 3 ... V02 : ... .. 3 ... V02 : ... .. . ... : ... .. . ... : ... .. . Z30 ...
ROW 82 : ... .. 4 ... ... : ... .. 4 ... ... : ... .. . ... : ... .. . ... : ... .. . Z30 ...
ROW 83 : ... .. 5 ... ... : ... .. 5 ... ... : ... .. . ... : ... .. . ... : ... .. . Z30 ...
ROW 84 : ... .. . ... ... : ... .. . ... ... : ... .. . ... : ... .. . ... : ... .. . Z30 ...
ROW 85 : ... .. 6 ... ... : ... .. 6 ... ... : ... .. . ... : ... .. . ... : ... .. . Z30 ...
ROW 86 : ... .. . ... ... : ... .. . ... ... : ... .. . ... : ... .. . ... : ... .. . Z30 ...
ROW 87 : ... .. . ... ... : ... .. . ... ... : ... .. . ... : ... .. . ... : ... .. . Z30 ...
ROW 88 : ... .. . ... ... : ... .. . ... ... : --- .. . ... : ... .. . ... : ... .. . Z30 ...
ROW 89 : ... .. . ... ... : ... .. . ... ... : ... .. . ... : ... .. . ... : ... .. . Z30 ...
ROW 8A : ... .. . ... ... : ... .. . ... ... : ... .. . ... : ... .. . ... : ... .. . Z30 ...
ROW 8B : ... .. . ... ... : ... .. . ... ... : ... .. . ... : ... .. . ... : ... .. . Z30 ...
ROW 8C : ... .. . ... ... : ... .. . ... ... : ... .. . ... : ... .. . ... : ... .. . Z30 ...
ROW 8D : ... .. . ... ... : ... .. . ... ... : ... .. . ... : ... .. . ... : ... .. . Z30 ...
ROW 8E : ... .. . ... ... : ... .. . ... ... : ... .. . ... : ... .. . ... : ... .. . Z30 ...
ROW 8F : ... .. . ... ... : ... .. . ... ... : ... .. . ... : ... .. . ... : ... .. . Z30 ...
ROW 90 : ... .. . ... ... : ... .. . ... ... : C#4 00 . P80 : ... .. C ... : ... .. . Z30 ...
ROW 91 : ... .. . ... ... : ... .. . ... ... : ... .. . ... : ... .. . ... : ... .. . Z30 ...
ROW 92 : ... .. 3 ... ... : ... .. 3 ... ... : ... .. . ... : ... .. . ... : ... .. . Z30 ...
ROW 93 : ... .. . ... ... : ... .. . ... ... : ... .. . ... : ... .. . ... : ... .. . Z30 ...
ROW 94 : ... .. . ... ... : ... .. . ... ... : ... .. . ... : ... .. . ... : ... .. . Z30 ...
ROW 95 : ... .. 2 ... ... : ... .. 2 ... ... : ... .. . ... : ... .. 0 ... : ... .. . Z30 ...
ROW 96 : ... .. . ... ... : ... .. . ... ... : ... .. . ... : ... .. . ... : ... .. . Z30 ...
ROW 97 : ... .. 1 ... ... : ... .. 1 ... ... : ... .. . ... : ... .. . ... : ... .. . Z30 ...
ROW 98 : ... .. 0 ... ... : ... .. 0 ... ... : --- .. . ... : ... .. . ... : ... .. . Z30 ...
ROW 99 : ... .. . ... ... : ... .. . ... ... : ... .. . ... : ... .. . ... : ... .. . Z30 ...
ROW 9A : ... .. . ... ... : ... .. . ... ... : ... .. . ... : ... .. . ... : ... .. . Z30 ...
ROW 9B : ... .. . ... ... : ... .. . ... ... : ... .. . ... : ... .. . ... : ... .. . Z30 ...
ROW 9C : ... .. . ... ... : ... .. . ... ... : ... .. . ... : ... .. . ... : ... .. . Z30 ...
ROW 9D : ... .. . ... ... : ... .. . ... ... : ... .. . ... : ... .. . ... : ... .. . Z30 ...
ROW 9E : ... .. . ... ... : ... .. . ... ... : ... .. . ... : ... .. . ... : ... .. . Z30 ...
ROW 9F : ... .. . ... ... : ... .. . ... ... : ... .. . ... : ... .. . ... : ... .. . Z30 ...
ROW A0 : ... .. . ... ... : ... .. 5 ... V00 : C#3 00 . ... : B-# 00 0 V00 : ... .. . Z30 ...
ROW A1 : ... .. . ... ... : ... .. 3 ... V02 : ... .. . ... : ... .. . ... : ... .. . Z30 ...
ROW A2 : ... .. . ... ... : ... .. 4 ... ... : ... .. . ... : ... .. . ... : ... .. . Z30 ...
ROW A3 : ... .. . ... ... : ... .. 5 ... ... : ... .. . ... : ... .. . ... : ... .. . Z30 ...
ROW A4 : ... .. . ... ... : ... .. . ... ... : ... .. . ... : ... .. . ... : ... .. . Z30 ...
ROW A5 : ... .. . ... ... : ... .. 6 ... ... : ... .. . ... : ... .. . ... : ... .. . Z30 ...
ROW A6 : ... .. . ... ... : ... .. . ... ... : ... .. . ... : ... .. . ... : ... .. . Z30 ...
ROW A7 : ... .. . ... ... : ... .. . ... ... : ... .. . ... : ... .. . ... : ... .. . Z30 ...
ROW A8 : ... .. . ... ... : ... .. . ... ... : --- .. . ... : ... .. . ... : ... .. . Z30 ...
ROW A9 : ... .. . ... ... : ... .. . ... ... : ... .. . ... : ... .. . ... : ... .. . Z30 ...
ROW AA : ... .. . ... ... : ... .. . ... ... : ... .. . ... : ... .. . ... : ... .. . Z30 ...
ROW AB : ... .. . ... ... : ... .. . ... ... : ... .. . ... : ... .. . ... : ... .. . Z30 ...
ROW AC : ... .. . ... ... : ... .. . ... ... : ... .. . ... : ... .. . ... : ... .. . Z30 ...
ROW AD : ... .. . ... ... : ... .. . ... ... : ... .. . ... : ... .. . ... : ... .. . Z30 ...
ROW AE : ... .. . ... ... : ... .. . ... ... : ... .. . ... : ... .. . ... : ... .. . Z30 ...
ROW AF : ... .. . ... ... : ... .. . ... ... : ... .. . ... : ... .. . ... : ... .. . Z30 ...
ROW B0 : ... .. . ... ... : ... .. . ... ... : D#4 00 . P80 : ... .. C ... : ... .. . Z30 ...
ROW B1 : ... .. . ... ... : ... .. . ... ... : ... .. . ... : ... .. . ... : ... .. . Z30 ...
ROW B2 : ... .. . ... ... : ... .. . ... ... : ... .. . ... : ... .. . ... : ... .. . Z30 ...
ROW B3 : ... .. . ... ... : ... .. . ... ... : ... .. . ... : ... .. . ... : ... .. . Z30 ...
ROW B4 : ... .. . ... ... : ... .. . ... ... : ... .. . ... : ... .. . ... : ... .. . Z30 ...
ROW B5 : ... .. . ... ... : ... .. . ... ... : ... .. . ... : ... .. 0 ... : ... .. . Z30 ...
ROW B6 : ... .. . ... ... : ... .. . ... ... : ... .. . ... : ... .. . ... : ... .. . Z30 ...
ROW B7 : ... .. . ... ... : ... .. . ... ... : ... .. . ... : ... .. . ... : ... .. . Z30 ...
ROW B8 : ... .. . ... ... : G-4 00 5 ... V00 : --- .. . ... : ... .. . ... : ... .. . Z30 ...
ROW B9 : ... .. . ... ... : ... .. 3 ... V02 : ... .. . ... : ... .. . ... : ... .. . Z30 ...
ROW BA : ... .. . ... ... : ... .. 4 ... ... : ... .. . ... : ... .. . ... : ... .. . Z30 ...
ROW BB : ... .. . ... ... : ... .. 5 ... ... : ... .. . ... : ... .. . ... : ... .. . Z30 ...
ROW BC : ... .. . ... ... : ... .. . ... ... : ... .. . ... : ... .. . ... : ... .. . Z30 ...
ROW BD : ... .. . ... ... : ... .. 6 ... ... : ... .. . ... : ... .. . ... : ... .. . Z30 ...
ROW BE : ... .. . ... ... : ... .. . ... ... : ... .. . ... : ... .. . ... : ... .. . Z30 ...
ROW BF : ... .. . ... ... : ... .. . ... ... : ... .. . ... : ... .. . ... : ... .. . Z30 ...

PATTERN 04
ROW 00 : D-4 00 5 P7F V00 : F-4 00 5 P7F V00 : D-3 00 . ... : B-# 00 0 V00 : ... .. . Z30 ...
ROW 01 : ... .. 3 ... V02 : ... .. 3 ... V02 : ... .. . ... : ... .. . ... : ... .. . Z30 ...
ROW 02 : ... .. 4 ... ... : ... .. 4 ... ... : ... .. . ... : ... .. . ... : ... .. . Z30 ...
ROW 03 : ... .. 5 ... ... : ... .. 5 ... ... : ... .. . ... : ... .. . ... : ... .. . Z30 ...
ROW 04 : ... .. . ... ... : ... .. . ... ... : ... .. . ... : ... .. . ... : ... .. . Z30 ...
ROW 05 : ... .. 6 ... ... : ... .. 6 ... ... : ... .. . ... : ... .. . ... : ... .. . Z30 ...
ROW 06 : ... .. . ... ... : ... .. . ... ... : ... .. . ... : ... .. . ... : ... .. . Z30 ...
ROW 07 : ... .. . ... ... : ... .. . ... ... : ... .. . ... : ... .. . ... : ... .. . Z30 ...
ROW 08 : ... .. . ... ... : ... .. . ... ... : --- .. . ... : ... .. . ... : ... .. . Z30 ...
ROW 09 : ... .. . ... ... : ... .. . ... ... : ... .. . ... : ... .. . ... : ... .. . Z30 ...
ROW 0A : ... .. . ... ... : ... .. . ... ... : ... .. . ... : ... .. . ... : ... .. . Z30 ...
ROW 0B : ... .. . ... ... : ... .. . ... ... : ... .. . ... : ... .. . ... : ... .. . Z30 ...
ROW 0C : ... .. . ... ... : ... .. . ... ... : ... .. . ... : ... .. . ... : ... .. . Z30 ...
ROW 0D : ... .. . ... ... : ... .. . ... ... : ... .. . ... : ... .. . ... : ... .. . Z30 ...
ROW 0E : ... .. . ... ... : ... .. . ... ... : ... .. . ... : ... .. . ... : ... .. . Z30 ...
ROW 0F : ... .. . ... ... : ... .. . ... ... : ... .. . ... : ... .. . ... : ... .. . Z30 ...
ROW 10 : ... .. . ... ... : ... .. . ... ... : F-4 00 . ... : ... .. C ... : ... .. . Z30 ...
ROW 11 : ... .. . ... ... : ... .. . ... ... : ... .. . ... : ... .. . ... : ... .. . Z30 ...
ROW 12 : ... .. 3 ... ... : ... .. 3 ... ... : ... .. . ... : ... .. . ... : ... .. . Z30 ...
ROW 13 : ... .. . ... ... : ... .. . ... ... : ... .. . ... : ... .. . ... : ... .. . Z30 ...
ROW 14 : ... .. . ... ... : ... .. . ... ... : ... .. . ... : ... .. . ... : ... .. . Z30 ...
ROW 15 : ... .. 2 ... ... : ... .. 2 ... ... : ... .. . ... : ... .. 0 ... : ... .. . Z30 ...
ROW 16 : ... .. . ... ... : ... .. . ... ... : ... .. . ... : ... .. . ... : ... .. . Z30 ...
ROW 17 : ... .. 1 ... ... : ... .. 1 ... ... : ... .. . ... : ... .. . ... : ... .. . Z30 ...
ROW 18 : ... .. 0 ... ... : ... .. 0 ... ... : --- .. . ... : ... .. . ... : ... .. . Z30 ...
ROW 19 : ... .. . ... ... : ... .. . ... ... : ... .. . ... : ... .. . ... : ... .. . Z30 ...
ROW 1A : ... .. . ... ... : ... .. . ... ... : ... .. . ... : ... .. . ... : ... .. . Z30 ...
ROW 1B : ... .. . ... ... : ... .. . ... ... : ... .. . ... : ... .. . ... : ... .. . Z30 ...
ROW 1C : ... .. . ... ... : ... .. . ... ... : ... .. . ... : ... .. . ... : ... .. . Z30 ...
ROW 1D : ... .. . ... ... : ... .. . ... ... : ... .. . ... : ... .. . ... : ... .. . Z30 ...
ROW 1E : ... .. . ... ... : ... .. . ... ... : ... .. . ... : ... .. . ... : ... .. . Z30 ...
ROW 1F : ... .. . ... ... : ... .. . ... ... : ... .. . ... : ... .. . ... : ... .. . Z30 ...
ROW 20 : C#4 00 5 P80 V00 : ... .. 5 ... V00 : C#3 00 . P80 : B-# 00 0 V00 : ... .. . Z30 ...
ROW 21 : ... .. 3 ... V02 : ... .. 3 ... V02 : ... .. . ... : ... .. . ... : ... .. . Z30 ...
ROW 22 : ... .. 4 ... ... : ... .. 4 ... ... : ... .. . ... : ... .. . ... : ... .. . Z30 ...
ROW 23 : ... .. 5 ... ... : ... .. 5 ... ... : ... .. . ... : ... .. . ... : ... .. . Z30 ...
ROW 24 : ... .. . ... ... : ... .. . ... ... : ... .. . ... : ... .. . ... : ... .. . Z30 ...
ROW 25 : ... .. 6 ... ... : ... .. 6 ... ... : ... .. . ... : ... .. . ... : ... .. . Z30 ...
ROW 26 : ... .. . ... ... : ... .. . ... ... : ... .. . ... : ... .. . ... : ... .. . Z30 ...
ROW 27 : ... .. . ... ... : ... .. . ... ... : ... .. . ... : ... .. . ... : ... .. . Z30 ...
ROW 28 : ... .. . ... ... : ... .. . ... ... : --- .. . ... : ... .. . ... : ... .. . Z30 ...
ROW 29 : ... .. . ... ... : ... .. . ... ... : ... .. . ... : ... .. . ... : ... .. . Z30 ...
ROW 2A : ... .. . ... ... : ... .. . ... ... : ... .. . ... : ... .. . ... : ... .. . Z30 ...
ROW 2B : ... .. . ... ... : ... .. . ... ... : ... .. . ... : ... .. . ... : ... .. . Z30 ...
ROW 2C : ... .. . ... ... : ... .. . ... ... : ... .. . ... : ... .. . ... : ... .. . Z30 ...
ROW 2D : ... .. . ... ... : ... .. . ... ... : ... .. . ... : ... .. . ... : ... .. . Z30 ...
ROW 2E : ... .. . ... ... : ... .. . ... ... : ... .. . ... : ... .. . ... : ... .. . Z30 ...
ROW 2F : ... .. . ... ... : ... .. . ... ... : ... .. . ... : ... .. . ... : ... .. . Z30 ...
ROW 30 : ... .. . ... ... : ... .. . ... ... : F-4 00 . ... : ... .. C ... : ... .. . Z30 ...
ROW 31 : ... .. . ... ... : ... .. . ... ... : ... .. . ... : ... .. . ... : ... .. . Z30 ...
ROW 32 : ... .. 3 ... ... : ... .. 3 ... ... : ... .. . ... : ... .. . ... : ... .. . Z30 ...
ROW 33 : ... .. . ... ... : ... .. . ... ... : ... .. . ... : ... .. . ... : ... .. . Z30 ...
ROW 34 : ... .. . ... ... : ... .. . ... ... : ... .. . ... : ... .. . ... : ... .. . Z30 ...
ROW 35 : ... .. 2 ... ... : ... .. 2 ... ... : ... .. . ... : ... .. 0 ... : ... .. . Z30 ...
ROW 36 : ... .. . ... ... : ... .. . ... ... : ... .. . ... : ... .. . ... : ... .. . Z30 ...
ROW 37 : ... .. 1 ... ... : ... .. 1 ... ... : ... .. . ... : ... .. . ... : ... .. . Z30 ...
ROW 38 : ... .. 0 ... ... : ... .. 0 ... ... : --- .. . ... : ... .. . ... : ... .. . Z30 ...
ROW 39 : ... .. . ... ... : ... .. . ... ... : ... .. . ... : ... .. . ... : ... .. . Z30 ...
ROW 3A : ... .. . ... ... : ... .. . ... ... : ... .. . ... : ... .. . ... : ... .. . Z30 ...
ROW 3B : ... .. . ... ... : ... .. . ... ... : ... .. . ... : ... .. . ... : ... .. . Z30 ...
ROW 3C : ... .. . ... ... : ... .. . ... ... : ... .. . ... : ... .. . ... : ... .. . Z30 ...
ROW 3D : ... .. . ... ... : ... .. . ... ... : ... .. . ... : ... .. . ... : ... .. . Z30 ...
ROW 3E : ... .. . ... ... : ... .. . ... ... : ... .. . ... : ... .. . ... : ... .. . Z30 ...
ROW 3F : ... .. . ... ... : ... .. . ... ... : ... .. . ... : ... .. . ... : ... .. . Z30 ...
ROW 40 : C-4 00 5 ... V00 : ... .. 5 ... V00 : C-3 00 . P80 : B-# 00 0 V00 : ... .. . Z30 ...
ROW 41 : ... .. 3 ... V02 : ... .. 3 ... V02 : ... .. . ... : ... .. . ... : ... .. . Z30 ...
ROW 42 : ... .. 4 ... ... : ... .. 4 ... ... : ... .. . ... : ... .. . ... : ... .. . Z30 ...
ROW 43 : ... .. 5 ... ... : ... .. 5 ... ... : ... .. . ... : ... .. . ... : ... .. . Z30 ...
ROW 44 : ... .. . ... ... : ... .. . ... ... : ... .. . ... : ... .. . ... : ... .. . Z30 ...
ROW 45 : ... .. 6 ... ... : ... .. 6 ... ... : ... .. . ... : ... .. . ... : ... .. . Z30 ...
ROW 46 : ... .. . ... ... : ... .. . ... ... : ... .. . ... : ... .. . ... : ... .. . Z30 ...
ROW 47 : ... .. . ... ... : ... .. . ... ... : ... .. . ... : ... .. . ... : ... .. . Z30 ...
ROW 48 : ... .. . ... ... : ... .. . ... ... : --- .. . ... : ... .. . ... : ... .. . Z30 ...
ROW 49 : ... .. . ... ... : ... .. . ... ... : ... .. . ... : ... .. . ... : ... .. . Z30 ...
ROW 4A : ... .. . ... ... : ... .. . ... ... : ... .. . ... : ... .. . ... : ... .. . Z30 ...
ROW 4B : ... .. . ... ... : ... .. . ... ... : ... .. . ... : ... .. . ... : ... .. . Z30 ...
ROW 4C : ... .. . ... ... : ... .. . ... ... : ... .. . ... : ... .. . ... : ... .. . Z30 ...
ROW 4D : ... .. . ... ... : ... .. . ... ... : ... .. . ... : ... .. . ... : ... .. . Z30 ...
ROW 4E : ... .. . ... ... : ... .. . ... ... : ... .. . ... : ... .. . ... : ... .. . Z30 ...
ROW 4F : ... .. . ... ... : ... .. . ... ... : ... .. . ... : ... .. . ... : ... .. . Z30 ...
ROW 50 : ... .. . ... ... : ... .. . ... ... : F-4 00 . ... : ... .. C ... : ... .. . Z30 ...
ROW 51 : ... .. . ... ... : ... .. . ... ... : ... .. . ... : ... .. . ... : ... .. . Z30 ...
ROW 52 : ... .. 3 ... ... : ... .. 3 ... ... : ... .. . ... : ... .. . ... : ... .. . Z30 ...
ROW 53 : ... .. . ... ... : ... .. . ... ... : ... .. . ... : ... .. . ... : ... .. . Z30 ...
ROW 54 : ... .. . ... ... : ... .. . ... ... : ... .. . ... : ... .. . ... : ... .. . Z30 ...
ROW 55 : ... .. 2 ... ... : ... .. 2 ... ... : ... .. . ... : ... .. 0 ... : ... .. . Z30 ...
ROW 56 : ... .. . ... ... : ... .. . ... ... : ... .. . ... : ... .. . ... : ... .. . Z30 ...
ROW 57 : ... .. 1 ... ... : ... .. 1 ... ... : ... .. . ... : ... .. . ... : ... .. . Z30 ...
ROW 58 : ... .. 0 ... ... : ... .. 0 ... ... : --- .. . ... : ... .. . ... : ... .. . Z30 ...
ROW 59 : ... .. . ... ... : ... .. . ... ... : ... .. . ... : ... .. . ... : ... .. . Z30 ...
ROW 5A : ... .. . ... ... : ... .. . ... ... : ... .. . ... : ... .. . ... : ... .. . Z30 ...
ROW 5B : ... .. . ... ... : ... .. . ... ... : ... .. . ... : ... .. . ... : ... .. . Z30 ...
ROW 5C : ... .. . ... ... : ... .. . ... ... : ... .. . ... : ... .. . ... : ... .. . Z30 ...
ROW 5D : ... .. . ... ... : ... .. . ... ... : ... .. . ... : ... .. . ... : ... .. . Z30 ...
ROW 5E : ... .. . ... ... : ... .. . ... ... : ... .. . ... : ... .. . ... : ... .. . Z30 ...
ROW 5F : ... .. . ... ... : ... .. . ... ... : ... .. . ... : ... .. . ... : ... .. . Z30 ...
ROW 60 : ... .. . ... ... : ... .. 5 ... V00 : A#2 00 . P80 : B-# 00 0 V00 : ... .. . Z30 ...
ROW 61 : ... .. . ... ... : ... .. 3 ... V02 : ... .. . ... : ... .. . ... : ... .. . Z30 ...
ROW 62 : ... .. . ... ... : ... .. 4 ... ... : ... .. . ... : ... .. . ... : ... .. . Z30 ...
ROW 63 : ... .. . ... ... : ... .. 5 ... ... : ... .. . ... : ... .. . ... : ... .. . Z30 ...
ROW 64 : ... .. . ... ... : ... .. . ... ... : ... .. . ... : ... .. . ... : ... .. . Z30 ...
ROW 65 : ... .. . ... ... : ... .. 6 ... ... : ... .. . ... : ... .. . ... : ... .. . Z30 ...
ROW 66 : ... .. . ... ... : ... .. . ... ... : ... .. . ... : ... .. . ... : ... .. . Z30 ...
ROW 67 : ... .. . ... ... : ... .. . ... ... : ... .. . ... : ... .. . ... : ... .. . Z30 ...
ROW 68 : ... .. . ... ... : ... .. . ... ... : --- .. . ... : ... .. . ... : ... .. . Z30 ...
ROW 69 : ... .. . ... ... : ... .. . ... ... : ... .. . ... : ... .. . ... : ... .. . Z30 ...
ROW 6A : ... .. . ... ... : ... .. . ... ... : ... .. . ... : ... .. . ... : ... .. . Z30 ...
ROW 6B : ... .. . ... ... : ... .. . ... ... : ... .. . ... : ... .. . ... : ... .. . Z30 ...
ROW 6C : ... .. . ... ... : ... .. . ... ... : ... .. . ... : ... .. . ... : ... .. . Z30 ...
ROW 6D : ... .. . ... ... : ... .. . ... ... : ... .. . ... : ... .. . ... : ... .. . Z30 ...
ROW 6E : ... .. . ... ... : ... .. . ... ... : ... .. . ... : ... .. . ... : ... .. . Z30 ...
ROW 6F : ... .. . ... ... : ... .. . ... ... : ... .. . ... : ... .. . ... : ... .. . Z30 ...
ROW 70 : ... .. . ... ... : ... .. . ... ... : F-4 00 . ... : ... .. C ... : ... .. . Z30 ...
ROW 71 : ... .. . ... ... : ... .. . ... ... : ... .. . ... : ... .. . ... : ... .. . Z30 ...
ROW 72 : ... .. . ... ... : ... .. . ... ... : ... .. . ... : ... .. . ... : ... .. . Z30 ...
ROW 73 : ... .. . ... ... : ... .. . ... ... : ... .. . ... : ... .. . ... : ... .. . Z30 ...
ROW 74 : ... .. . ... ... : ... .. . ... ... : ... .. . ... : ... .. . ... : ... .. . Z30 ...
ROW 75 : ... .. . ... ... : ... .. . ... ... : ... .. . ... : ... .. 0 ... : ... .. . Z30 ...
ROW 76 : ... .. . ... ... : ... .. . ... ... : ... .. . ... : ... .. . ... : ... .. . Z30 ...
ROW 77 : ... .. . ... ... : ... .. . ... ... : ... .. . ... : ... .. . ... : ... .. . Z30 ...
ROW 78 : ... .. . ... ... : F-4 00 5 P7F V00 : --- .. . ... : ... .. . ... : ... .. . Z30 ...
ROW 79 : ... .. . ... ... : ... .. 3 ... V02 : ... .. . ... : ... .. . ... : ... .. . Z30 ...
ROW 7A : ... .. . ... ... : ... .. 4 ... ... : ... .. . ... : ... .. . ... : ... .. . Z30 ...
ROW 7B : ... .. . ... ... : ... .. 5 ... ... : ... .. . ... : ... .. . ... : ... .. . Z30 ...
ROW 7C : ... .. . ... ... : ... .. . ... ... : ... .. . ... : ... .. . ... : ... .. . Z30 ...
ROW 7D : ... .. . ... ... : ... .. 6 ... ... : ... .. . ... : ... .. . ... : ... .. . Z30 ...
ROW 7E : ... .. . ... ... : ... .. . ... ... : ... .. . ... : ... .. . ... : ... .. . Z30 ...
ROW 7F : ... .. . ... ... : ... .. . ... ... : ... .. . ... : ... .. . ... : ... .. . Z30 ...
ROW 80 : C-3 00 5 ... V00 : D#4 00 5 P80 V00 : C-2 00 . ... : B-# 00 0 V00 : ... .. . Z30 ...
ROW 81 : ... .. 3 ... V02 : ... .. 3 ... V02 : ... .. . ... : ... .. . ... : ... .. . Z30 ...
ROW 82 : ... .. 4 ... ... : ... .. 4 ... ... : ... .. . ... : ... .. . ... : ... .. . Z30 ...
ROW 83 : ... .. 5 ... ... : ... .. 5 ... ... : ... .. . ... : ... .. . ... : ... .. . Z30 ...
ROW 84 : ... .. . ... ... : ... .. . ... ... : ... .. . ... : ... .. . ... : ... .. . Z30 ...
ROW 85 : ... .. 6 ... ... : ... .. 6 ... ... : ... .. . ... : ... .. . ... : ... .. . Z30 ...
ROW 86 : ... .. . ... ... : ... .. . ... ... : ... .. . ... : ... .. . ... : ... .. . Z30 ...
ROW 87 : ... .. . ... ... : ... .. . ... ... : ... .. . ... : ... .. . ... : ... .. . Z30 ...
ROW 88 : ... .. . ... ... : ... .. . ... ... : --- .. . ... : ... .. . ... : ... .. . Z30 ...
ROW 89 : ... .. . ... ... : ... .. . ... ... : ... .. . ... : ... .. . ... : ... .. . Z30 ...
ROW 8A : ... .. . ... ... : ... .. . ... ... : ... .. . ... : ... .. . ... : ... .. . Z30 ...
ROW 8B : ... .. . ... ... : ... .. . ... ... : ... .. . ... : ... .. . ... : ... .. . Z30 ...
ROW 8C : ... .. . ... ... : ... .. . ... ... : ... .. . ... : ... .. . ... : ... .. . Z30 ...
ROW 8D : ... .. . ... ... : ... .. . ... ... : ... .. . ... : ... .. . ... : ... .. . Z30 ...
ROW 8E : ... .. . ... ... : ... .. . ... ... : ... .. . ... : ... .. . ... : ... .. . Z30 ...
ROW 8F : ... .. . ... ... : ... .. . ... ... : ... .. . ... : ... .. . ... : ... .. . Z30 ...
ROW 90 : ... .. . ... ... : ... .. . ... ... : D#4 00 . P80 : ... .. C ... : ... .. . Z30 ...
ROW 91 : ... .. . ... ... : ... .. . ... ... : ... .. . ... : ... .. . ... : ... .. . Z30 ...
ROW 92 : ... .. 3 ... ... : ... .. 3 ... ... : ... .. . ... : ... .. . ... : ... .. . Z30 ...
ROW 93 : ... .. . ... ... : ... .. . ... ... : ... .. . ... : ... .. . ... : ... .. . Z30 ...
ROW 94 : ... .. . ... ... : ... .. . ... ... : ... .. . ... : ... .. . ... : ... .. . Z30 ...
ROW 95 : ... .. 2 ... ... : ... .. 2 ... ... : ... .. . ... : ... .. 0 ... : ... .. . Z30 ...
ROW 96 : ... .. . ... ... : ... .. . ... ... : ... .. . ... : ... .. . ... : ... .. . Z30 ...
ROW 97 : ... .. 1 ... ... : ... .. 1 ... ... : ... .. . ... : ... .. . ... : ... .. . Z30 ...
ROW 98 : ... .. 0 ... ... : ... .. 0 ... ... : --- .. . ... : ... .. . ... : ... .. . Z30 ...
ROW 99 : ... .. . ... ... : ... .. . ... ... : ... .. . ... : ... .. . ... : ... .. . Z30 ...
ROW 9A : ... .. . ... ... : ... .. . ... ... : ... .. . ... : ... .. . ... : ... .. . Z30 ...
ROW 9B : ... .. . ... ... : ... .. . ... ... : ... .. . ... : ... .. . ... : ... .. . Z30 ...
ROW 9C : ... .. . ... ... : ... .. . ... ... : ... .. . ... : ... .. . ... : ... .. . Z30 ...
ROW 9D : ... .. . ... ... : ... .. . ... ... : ... .. . ... : ... .. . ... : ... .. . Z30 ...
ROW 9E : ... .. . ... ... : ... .. . ... ... : ... .. . ... : ... .. . ... : ... .. . Z30 ...
ROW 9F : ... .. . ... ... : ... .. . ... ... : ... .. . ... : ... .. . ... : ... .. . Z30 ...
ROW A0 : F-3 00 5 P7F V00 : G#3 00 5 P7F V00 : G-2 00 . ... : B-# 00 0 V00 : ... .. . Z30 ...
ROW A1 : ... .. 3 ... V02 : ... .. 3 ... V02 : ... .. . ... : ... .. . ... : ... .. . Z30 ...
ROW A2 : ... .. 4 ... ... : ... .. 4 ... ... : ... .. . ... : ... .. . ... : ... .. . Z30 ...
ROW A3 : ... .. 5 ... ... : ... .. 5 ... ... : ... .. . ... : ... .. . ... : ... .. . Z30 ...
ROW A4 : ... .. . ... ... : ... .. . ... ... : ... .. . ... : ... .. . ... : ... .. . Z30 ...
ROW A5 : ... .. 6 ... ... : ... .. 6 ... ... : ... .. . ... : ... .. . ... : ... .. . Z30 ...
ROW A6 : ... .. . ... ... : ... .. . ... ... : ... .. . ... : ... .. . ... : ... .. . Z30 ...
ROW A7 : ... .. . ... ... : ... .. . ... ... : ... .. . ... : ... .. . ... : ... .. . Z30 ...
ROW A8 : ... .. . ... ... : ... .. . ... ... : --- .. . ... : ... .. . ... : ... .. . Z30 ...
ROW A9 : ... .. . ... ... : ... .. . ... ... : ... .. . ... : ... .. . ... : ... .. . Z30 ...
ROW AA : ... .. . ... ... : ... .. . ... ... : ... .. . ... : ... .. . ... : ... .. . Z30 ...
ROW AB : ... .. . ... ... : ... .. . ... ... : ... .. . ... : ... .. . ... : ... .. . Z30 ...
ROW AC : ... .. . ... ... : ... .. . ... ... : ... .. . ... : ... .. . ... : ... .. . Z30 ...
ROW AD : ... .. . ... ... : ... .. . ... ... : ... .. . ... : ... .. . ... : ... .. . Z30 ...
ROW AE : ... .. . ... ... : ... .. . ... ... : ... .. . ... : ... .. . ... : ... .. . Z30 ...
ROW AF : ... .. . ... ... : ... .. . ... ... : ... .. . ... : ... .. . ... : ... .. . Z30 ...
ROW B0 : A#3 00 5 ... V00 : F-4 00 5 ... V00 : G-3 00 . ... : ... .. C ... : ... .. . Z30 ...
ROW B1 : ... .. 3 ... V02 : ... .. 3 ... V02 : ... .. . ... : ... .. . ... : ... .. . Z30 ...
ROW B2 : ... .. 4 ... ... : ... .. 4 ... ... : ... .. . ... : ... .. . ... : ... .. . Z30 ...
ROW B3 : ... .. 5 ... ... : ... .. 5 ... ... : ... .. . ... : ... .. . ... : ... .. . Z30 ...
ROW B4 : ... .. . ... ... : ... .. . ... ... : ... .. . ... : ... .. . ... : ... .. . Z30 ...
ROW B5 : ... .. 6 ... ... : ... .. 6 ... ... : ... .. . ... : ... .. 0 ... : ... .. . Z30 ...
ROW B6 : ... .. . ... ... : ... .. . ... ... : ... .. . ... : ... .. . ... : ... .. . Z30 ...
ROW B7 : ... .. . ... ... : ... .. . ... ... : ... .. . ... : ... .. . ... : ... .. . Z30 ...
ROW B8 : ... .. . ... ... : ... .. . ... ... : --- .. . ... : ... .. . ... : ... .. . Z30 ...
ROW B9 : ... .. . ... ... : ... .. . ... ... : ... .. . ... : ... .. . ... : ... .. . Z30 ...
ROW BA : ... .. . ... ... : ... .. . ... ... : ... .. . ... : ... .. . ... : ... .. . Z30 ...
ROW BB : ... .. . ... ... : ... .. . ... ... : ... .. . ... : ... .. . ... : ... .. . Z30 ...
ROW BC : ... .. . ... ... : ... .. . ... ... : ... .. . ... : ... .. . ... : ... .. . Z30 ...
ROW BD : ... .. . ... ... : ... .. . ... ... : ... .. . ... : ... .. . ... : ... .. . Z30 ...
ROW BE : ... .. . ... ... : ... .. . ... ... : ... .. . ... : ... .. . ... : ... .. . Z30 ...
ROW BF : ... .. . ... ... : ... .. . ... ... : ... .. . ... : ... .. . ... : ... .. . Z30 ...

PATTERN 05
ROW 00 : ... .. 5 ... V00 : D#4 00 5 P80 V00 : F-3 00 . ... : B-# 00 0 V00 : ... .. . Z30 ...
ROW 01 : ... .. 3 ... V02 : ... .. 3 ... V02 : ... .. . ... : ... .. . ... : ... .. . Z30 ...
ROW 02 : ... .. 4 ... ... : ... .. 4 ... ... : ... .. . ... : ... .. . ... : ... .. . Z30 ...
ROW 03 : ... .. 5 ... ... : ... .. 5 ... ... : ... .. . ... : ... .. . ... : ... .. . Z30 ...
ROW 04 : ... .. . ... ... : ... .. . ... ... : ... .. . ... : ... .. . ... : ... .. . Z30 ...
ROW 05 : ... .. 6 ... ... : ... .. 6 ... ... : ... .. . ... : ... .. . ... : ... .. . Z30 ...
ROW 06 : ... .. . ... ... : ... .. . ... ... : ... .. . ... : ... .. . ... : ... .. . Z30 ...
ROW 07 : ... .. . ... ... : ... .. . ... ... : ... .. . ... : ... .. . ... : ... .. . Z30 ...
ROW 08 : ... .. 5 ... V00 : ... .. 5 ... V00 : ... .. . ... : ... .. . ... : ... .. . Z30 ...
ROW 09 : ... .. 3 ... V02 : ... .. 3 ... V02 : ... .. . ... : ... .. . ... : ... .. . Z30 ...
ROW 0A : ... .. 4 ... ... : ... .. 4 ... ... : ... .. . ... : ... .. . ... : ... .. . Z30 ...
ROW 0B : ... .. 5 ... ... : ... .. 5 ... ... : ... .. . ... : ... .. . ... : ... .. . Z30 ...
ROW 0C : ... .. . ... ... : ... .. . ... ... : ... .. . ... : ... .. . ... : ... .. . Z30 ...
ROW 0D : ... .. 6 ... ... : ... .. 6 ... ... : ... .. . ... : ... .. . ... : ... .. . Z30 ...
ROW 0E : ... .. . ... ... : ... .. . ... ... : ... .. . ... : ... .. . ... : ... .. . Z30 ...
ROW 0F : ... .. . ... ... : ... .. . ... ... : ... .. . ... : ... .. . ... : ... .. . Z30 ...
ROW 10 : ... .. . ... ... : ... .. . ... ... : ... .. . ... : ... .. C ... : ... .. . Z30 ...
ROW 11 : ... .. . ... ... : ... .. . ... ... : ... .. . ... : ... .. . ... : ... .. . Z30 ...
ROW 12 : ... .. . ... ... : ... .. . ... ... : ... .. . ... : ... .. . ... : ... .. . Z30 ...
ROW 13 : ... .. . ... ... : ... .. . ... ... : ... .. . ... : ... .. . ... : ... .. . Z30 ...
ROW 14 : ... .. . ... ... : ... .. . ... ... : ... .. . ... : ... .. . ... : ... .. . Z30 ...
ROW 15 : ... .. . ... ... : ... .. . ... ... : ... .. . ... : ... .. 0 ... : ... .. . Z30 ...
ROW 16 : ... .. 5 ... ... : ... .. 5 ... ... : ... .. . ... : ... .. . ... : ... .. . Z30 ...
ROW 17 : ... .. . ... ... : ... .. . ... ... : ... .. . ... : ... .. . ... : ... .. . Z30 ...
ROW 18 : F-3 00 5 ... V00 : A#3 00 5 P7F V00 : A#2 00 . P80 : ... .. . ... : ... .. . Z30 ...
ROW 19 : ... .. 3 ... V02 : ... .. 3 ... V02 : ... .. . ... : ... .. . ... : ... .. . Z30 ...
ROW 1A : ... .. 4 ... ... : ... .. 4 ... ... : ... .. . ... : ... .. . ... : ... .. . Z30 ...
ROW 1B : ... .. 5 ... ... : ... .. 5 ... ... : ... .. . ... : ... .. . ... : ... .. . Z30 ...
ROW 1C : ... .. . ... ... : ... .. . ... ... : ... .. . ... : ... .. . ... : ... .. . Z30 ...
ROW 1D : ... .. 6 ... ... : ... .. 6 ... ... : ... .. . ... : ... .. . ... : ... .. . Z30 ...
ROW 1E : ... .. . ... ... : ... .. . ... ... : ... .. . ... : ... .. . ... : ... .. . Z30 ...
ROW 1F : ... .. . ... ... : ... .. . ... ... : ... .. . ... : ... .. . ... : ... .. . Z30 ...
ROW 20 : D#3 00 5 ... V00 : C-4 00 5 P80 V00 : C-3 00 . ... : B-# 00 0 V00 : ... .. . Z30 ...
ROW 21 : ... .. 3 ... V02 : ... .. 3 ... V02 : ... .. . ... : ... .. . ... : ... .. . Z30 ...
ROW 22 : ... .. 4 ... ... : ... .. 4 ... ... : ... .. . ... : ... .. . ... : ... .. . Z30 ...
ROW 23 : ... .. 5 ... ... : ... .. 5 ... ... : ... .. . ... : ... .. . ... : ... .. . Z30 ...
ROW 24 : ... .. . ... ... : ... .. . ... ... : ... .. . ... : ... .. . ... : ... .. . Z30 ...
ROW 25 : ... .. 6 ... ... : ... .. 6 ... ... : ... .. . ... : ... .. . ... : ... .. . Z30 ...
ROW 26 : ... .. . ... ... : ... .. . ... ... : ... .. . ... : ... .. . ... : ... .. . Z30 ...
ROW 27 : ... .. . ... ... : ... .. . ... ... : ... .. . ... : ... .. . ... : ... .. . Z30 ...
ROW 28 : ... .. . ... ... : ... .. . ... ... : ... .. . ... : ... .. . ... : ... .. . Z30 ...
ROW 29 : ... .. . ... ... : ... .. . ... ... : ... .. . ... : ... .. . ... : ... .. . Z30 ...
ROW 2A : ... .. . ... ... : ... .. . ... ... : ... .. . ... : ... .. . ... : ... .. . Z30 ...
ROW 2B : ... .. . ... ... : ... .. . ... ... : ... .. . ... : ... .. . ... : ... .. . Z30 ...
ROW 2C : ... .. . ... ... : ... .. . ... ... : ... .. . ... : ... .. . ... : ... .. . Z30 ...
ROW 2D : ... .. . ... ... : ... .. . ... ... : ... .. . ... : ... .. . ... : ... .. . Z30 ...
ROW 2E : ... .. . ... ... : ... .. . ... ... : ... .. . ... : ... .. . ... : ... .. . Z30 ...
ROW 2F : ... .. . ... ... : ... .. . ... ... : ... .. . ... : ... .. . ... : ... .. . Z30 ...
ROW 30 : ... .. . ... ... : ... .. . ... ... : ... .. . ... : ... .. C ... : ... .. . Z30 ...
ROW 31 : ... .. . ... ... : ... .. . ... ... : ... .. . ... : ... .. . ... : ... .. . Z30 ...
ROW 32 : ... .. 3 ... ... : ... .. 3 ... ... : ... .. . ... : ... .. . ... : ... .. . Z30 ...
ROW 33 : ... .. . ... ... : ... .. . ... ... : ... .. . ... : ... .. . ... : ... .. . Z30 ...
ROW 34 : ... .. . ... ... : ... .. . ... ... : ... .. . ... : ... .. . ... : ... .. . Z30 ...
ROW 35 : ... .. 2 ... ... : ... .. 2 ... ... : ... .. . ... : ... .. 0 ... : ... .. . Z30 ...
ROW 36 : ... .. . ... ... : ... .. . ... ... : ... .. . ... : ... .. . ... : ... .. . Z30 ...
ROW 37 : ... .. 1 ... ... : ... .. 1 ... ... : ... .. . ... : ... .. . ... : ... .. . Z30 ...
ROW 38 : ... .. 0 ... ... : ... .. 0 ... ... : ... .. . ... : ... .. . ... : ... .. . Z30 ...
ROW 39 : ... .. . ... ... : ... .. . ... ... : ... .. . ... : ... .. . ... : ... .. . Z30 ...
ROW 3A : ... .. . ... ... : ... .. . ... ... : ... .. . ... : ... .. . ... : ... .. . Z30 ...
ROW 3B : ... .. . ... ... : ... .. . ... ... : ... .. . ... : ... .. . ... : ... .. . Z30 ...
ROW 3C : ... .. . ... ... : ... .. . ... ... : ... .. . ... : ... .. . ... : ... .. . Z30 ...
ROW 3D : ... .. . ... ... : ... .. . ... ... : ... .. . ... : ... .. . ... : ... .. . Z30 ...
ROW 3E : ... .. . ... ... : ... .. . ... ... : ... .. . ... : ... .. . ... : ... .. . Z30 ...
ROW 3F : ... .. . ... ... : ... .. . ... ... : ... .. . ... : ... .. . ... : ... .. . Z30 ...
ROW 40 : D-3 00 5 P80 V00 : D-3 00 5 P80 V00 : --- .. . P80 : B-# 00 0 V00 : ... .. . Z30 ...
ROW 41 : ... .. 3 ... V02 : ... .. 3 ... V02 : ... .. . ... : ... .. . ... : ... .. . Z30 ...
ROW 42 : ... .. 4 ... ... : ... .. 4 ... ... : ... .. . ... : ... .. . ... : ... .. . Z30 ...
ROW 43 : ... .. 5 ... ... : ... .. 5 ... ... : ... .. . ... : ... .. . ... : ... .. . Z30 ...
ROW 44 : ... .. . ... ... : ... .. . ... ... : ... .. . ... : ... .. . ... : ... .. . Z30 ...
ROW 45 : ... .. 6 ... ... : ... .. 6 ... ... : ... .. . ... : ... .. . ... : ... .. . Z30 ...
ROW 46 : ... .. . ... ... : ... .. . ... ... : ... .. . ... : ... .. . ... : ... .. . Z30 ...
ROW 47 : ... .. . ... ... : ... .. . ... ... : ... .. . ... : ... .. . ... : ... .. . Z30 ...
ROW 48 : ... .. . ... ... : ... .. . ... ... : ... .. . ... : ... .. . ... : ... .. . Z30 ...
ROW 49 : ... .. . ... ... : ... .. . ... ... : ... .. . ... : ... .. . ... : ... .. . Z30 ...
ROW 4A : ... .. . ... ... : ... .. . ... ... : ... .. . ... : ... .. . ... : ... .. . Z30 ...
ROW 4B : ... .. . ... ... : ... .. . ... ... : ... .. . ... : ... .. . ... : ... .. . Z30 ...
ROW 4C : ... .. . ... ... : ... .. . ... ... : ... .. . ... : ... .. . ... : ... .. . Z30 ...
ROW 4D : ... .. . ... ... : ... .. . ... ... : ... .. . ... : ... .. . ... : ... .. . Z30 ...
ROW 4E : ... .. . ... ... : ... .. . ... ... : ... .. . ... : ... .. . ... : ... .. . Z30 ...
ROW 4F : ... .. . ... ... : ... .. . ... ... : ... .. . ... : ... .. . ... : ... .. . Z30 ...
ROW 50 : C-3 00 5 ... V00 : F#3 00 5 ... V00 : ... .. . ... : ... .. C ... : ... .. . Z30 ...
ROW 51 : ... .. 3 ... V02 : ... .. 3 ... V02 : ... .. . ... : ... .. . ... : ... .. . Z30 ...
ROW 52 : ... .. 4 ... ... : ... .. 4 ... ... : ... .. . ... : ... .. . ... : ... .. . Z30 ...
ROW 53 : ... .. 5 ... ... : ... .. 5 ... ... : ... .. . ... : ... .. . ... : ... .. . Z30 ...
ROW 54 : ... .. . ... ... : ... .. . ... ... : ... .. . ... : ... .. . ... : ... .. . Z30 ...
ROW 55 : ... .. 6 ... ... : ... .. 6 ... ... : ... .. . ... : ... .. 0 ... : ... .. . Z30 ...
ROW 56 : ... .. . ... ... : ... .. . ... ... : ... .. . ... : ... .. . ... : ... .. . Z30 ...
ROW 57 : ... .. . ... ... : ... .. . ... ... : ... .. . ... : ... .. . ... : ... .. . Z30 ...
ROW 58 : ... .. . ... ... : ... .. . ... ... : ... .. . ... : ... .. . ... : ... .. . Z30 ...
ROW 59 : ... .. . ... ... : ... .. . ... ... : ... .. . ... : ... .. . ... : ... .. . Z30 ...
ROW 5A : ... .. . ... ... : ... .. . ... ... : ... .. . ... : ... .. . ... : ... .. . Z30 ...
ROW 5B : ... .. . ... ... : ... .. . ... ... : ... .. . ... : ... .. . ... : ... .. . Z30 ...
ROW 5C : ... .. . ... ... : ... .. . ... ... : ... .. . ... : ... .. . ... : ... .. . Z30 ...
ROW 5D : ... .. . ... ... : ... .. . ... ... : ... .. . ... : ... .. . ... : ... .. . Z30 ...
ROW 5E : ... .. . ... ... : ... .. . ... ... : ... .. . ... : ... .. . ... : ... .. . Z30 ...
ROW 5F : ... .. . ... ... : ... .. . ... ... : ... .. . ... : ... .. . ... : ... .. . Z30 ...
ROW 60 : A#2 00 5 ... V00 : G-3 00 5 ... V00 : ... .. . ... : B-# 00 0 V00 : ... .. . Z30 ...
ROW 61 : ... .. 3 ... V02 : ... .. 3 ... V02 : ... .. . ... : ... .. . ... : ... .. . Z30 ...
ROW 62 : ... .. 4 ... ... : ... .. 4 ... ... : ... .. . ... : ... .. . ... : ... .. . Z30 ...
ROW 63 : ... .. 5 ... ... : ... .. 5 ... ... : ... .. . ... : ... .. . ... : ... .. . Z30 ...
ROW 64 : ... .. . ... ... : ... .. . ... ... : ... .. . ... : ... .. . ... : ... .. . Z30 ...
ROW 65 : ... .. 6 ... ... : ... .. 6 ... ... : ... .. . ... : ... .. . ... : ... .. . Z30 ...
ROW 66 : ... .. . ... ... : ... .. . ... ... : ... .. . ... : ... .. . ... : ... .. . Z30 ...
ROW 67 : ... .. . ... ... : ... .. . ... ... : ... .. . ... : ... .. . ... : ... .. . Z30 ...
ROW 68 : ... .. . ... ... : ... .. . ... ... : ... .. . ... : ... .. . ... : ... .. . Z30 ...
ROW 69 : ... .. . ... ... : ... .. . ... ... : ... .. . ... : ... .. . ... : ... .. . Z30 ...
ROW 6A : ... .. . ... ... : ... .. . ... ... : ... .. . ... : ... .. . ... : ... .. . Z30 ...
ROW 6B : ... .. . ... ... : ... .. . ... ... : ... .. . ... : ... .. . ... : ... .. . Z30 ...
ROW 6C : ... .. . ... ... : ... .. . ... ... : ... .. . ... : ... .. . ... : ... .. . Z30 ...
ROW 6D : ... .. . ... ... : ... .. . ... ... : ... .. . ... : ... .. . ... : ... .. . Z30 ...
ROW 6E : ... .. . ... ... : ... .. . ... ... : ... .. . ... : ... .. . ... : ... .. . Z30 ...
ROW 6F : ... .. . ... ... : ... .. . ... ... : ... .. . ... : ... .. . ... : ... .. . Z30 ...
ROW 70 : C#3 00 5 ... V00 : B-3 00 5 P80 V00 : ... .. . ... : ... .. C ... : ... .. . Z30 ...
ROW 71 : ... .. 3 ... V02 : ... .. 3 ... V02 : ... .. . ... : ... .. . ... : ... .. . Z30 ...
ROW 72 : ... .. 4 ... ... : ... .. 4 ... ... : ... .. . ... : ... .. . ... : ... .. . Z30 ...
ROW 73 : ... .. 5 ... ... : ... .. 5 ... ... : ... .. . ... : ... .. . ... : ... .. . Z30 ...
ROW 74 : ... .. . ... ... : ... .. . ... ... : ... .. . ... : ... .. . ... : ... .. . Z30 ...
ROW 75 : ... .. 6 ... ... : ... .. 6 ... ... : ... .. . ... : ... .. 0 ... : ... .. . Z30 ...
ROW 76 : ... .. . ... ... : ... .. . ... ... : ... .. . ... : ... .. . ... : ... .. . Z30 ...
ROW 77 : ... .. . ... ... : ... .. . ... ... : ... .. . ... : ... .. . ... : ... .. . Z30 ...
ROW 78 : ... .. . ... ... : ... .. . ... ... : ... .. . ... : ... .. . ... : ... .. . Z30 ...
ROW 79 : ... .. . ... ... : ... .. . ... ... : ... .. . ... : ... .. . ... : ... .. . Z30 ...
ROW 7A : ... .. . ... ... : ... .. . ... ... : ... .. . ... : ... .. . ... : ... .. . Z30 ...
ROW 7B : ... .. . ... ... : ... .. . ... ... : ... .. . ... : ... .. . ... : ... .. . Z30 ...
ROW 7C : ... .. . ... ... : ... .. . ... ... : ... .. . ... : ... .. . ... : ... .. . Z30 ...
ROW 7D : ... .. . ... ... : ... .. . ... ... : ... .. . ... : ... .. . ... : ... .. . Z30 ...
ROW 7E : ... .. . ... ... : ... .. . ... ... : ... .. . ... : ... .. . ... : ... .. . Z30 ...
ROW 7F : ... .. . ... ... : ... .. . ... ... : ... .. . ... : ... .. . ... : ... .. . Z30 ...
ROW 80 : D-3 00 5 ... V00 : A#3 00 5 P7F V00 : ... .. . ... : B-# 00 0 V00 : ... .. . Z30 ...
ROW 81 : ... .. 3 ... V02 : ... .. 3 ... V02 : ... .. . ... : ... .. . ... : ... .. . Z30 ...
ROW 82 : ... .. 4 ... ... : ... .. 4 ... ... : ... .. . ... : ... .. . ... : ... .. . Z30 ...
ROW 83 : ... .. 5 ... ... : ... .. 5 ... ... : ... .. . ... : ... .. . ... : ... .. . Z30 ...
ROW 84 : ... .. . ... ... : ... .. . ... ... : ... .. . ... : ... .. . ... : ... .. . Z30 ...
ROW 85 : ... .. 6 ... ... : ... .. 6 ... ... : ... .. . ... : ... .. . ... : ... .. . Z30 ...
ROW 86 : ... .. . ... ... : ... .. . ... ... : ... .. . ... : ... .. . ... : ... .. . Z30 ...
ROW 87 : ... .. . ... ... : ... .. . ... ... : ... .. . ... : ... .. . ... : ... .. . Z30 ...
ROW 88 : ... .. 5 ... V00 : ... .. 5 ... V00 : ... .. . ... : ... .. . ... : ... .. . Z30 ...
ROW 89 : ... .. 3 ... V02 : ... .. 3 ... V02 : ... .. . ... : ... .. . ... : ... .. . Z30 ...
ROW 8A : ... .. 4 ... ... : ... .. 4 ... ... : ... .. . ... : ... .. . ... : ... .. . Z30 ...
ROW 8B : ... .. 5 ... ... : ... .. 5 ... ... : ... .. . ... : ... .. . ... : ... .. . Z30 ...
ROW 8C : ... .. . ... ... : ... .. . ... ... : ... .. . ... : ... .. . ... : ... .. . Z30 ...
ROW 8D : ... .. 6 ... ... : ... .. 6 ... ... : ... .. . ... : ... .. . ... : ... .. . Z30 ...
ROW 8E : ... .. . ... ... : ... .. . ... ... : ... .. . ... : ... .. . ... : ... .. . Z30 ...
ROW 8F : ... .. . ... ... : ... .. . ... ... : ... .. . ... : ... .. . ... : ... .. . Z30 ...
ROW 90 : D#3 00 5 P7F V00 : ... .. 5 ... V00 : G-3 00 . P7F : ... .. C ... : ... .. . Z30 ...
ROW 91 : ... .. 3 ... V02 : ... .. 3 ... V02 : ... .. . ... : ... .. . ... : ... .. . Z30 ...
ROW 92 : ... .. 4 ... ... : ... .. 4 ... ... : ... .. . ... : ... .. . ... : ... .. . Z30 ...
ROW 93 : ... .. 5 ... ... : ... .. 5 ... ... : ... .. . ... : ... .. . ... : ... .. . Z30 ...
ROW 94 : ... .. . ... ... : ... .. . ... ... : ... .. . ... : ... .. . ... : ... .. . Z30 ...
ROW 95 : ... .. 6 ... ... : ... .. 6 ... ... : ... .. . ... : ... .. 0 ... : ... .. . Z30 ...
ROW 96 : ... .. . ... ... : ... .. . ... ... : ... .. . ... : ... .. . ... : ... .. . Z30 ...
ROW 97 : ... .. . ... ... : ... .. . ... ... : ... .. . ... : ... .. . ... : ... .. . Z30 ...
ROW 98 : ... .. 0 ... ... : ... .. 0 ... ... : --- .. . ... : ... .. . ... : ... .. . Z30 ...
ROW 99 : ... .. . ... ... : ... .. . ... ... : ... .. . ... : ... .. . ... : ... .. . Z30 ...
ROW 9A : ... .. . ... ... : ... .. . ... ... : ... .. . ... : ... .. . ... : ... .. . Z30 ...
ROW 9B : ... .. . ... ... : ... .. . ... ... : ... .. . ... : ... .. . ... : ... .. . Z30 ...
ROW 9C : ... .. . ... ... : ... .. . ... ... : ... .. . ... : ... .. . ... : ... .. . Z30 ...
ROW 9D : ... .. . ... ... : ... .. . ... ... : ... .. . ... : ... .. . ... : ... .. . Z30 ...
ROW 9E : ... .. . ... ... : ... .. . ... ... : ... .. . ... : ... .. . ... : ... .. . Z30 ...
ROW 9F : ... .. . ... ... : ... .. . ... ... : ... .. . ... : ... .. . ... : ... .. . Z30 ...
ROW A0 : F-3 00 5 ... V00 : ... .. 5 ... V00 : G-3 00 . ... : B-# 00 0 V00 : ... .. . Z30 ...
ROW A1 : ... .. 3 ... V02 : ... .. 3 ... V02 : ... .. . ... : ... .. . ... : ... .. . Z30 ...
ROW A2 : ... .. 4 ... ... : ... .. 4 ... ... : ... .. . ... : ... .. . ... : ... .. . Z30 ...
ROW A3 : ... .. 5 ... ... : ... .. 5 ... ... : ... .. . ... : ... .. . ... : ... .. . Z30 ...
ROW A4 : ... .. . ... ... : ... .. . ... ... : ... .. . ... : ... .. . ... : ... .. . Z30 ...
ROW A5 : ... .. 6 ... ... : ... .. 6 ... ... : ... .. . ... : ... .. . ... : ... .. . Z30 ...
ROW A6 : ... .. . ... ... : ... .. . ... ... : ... .. . ... : ... .. . ... : ... .. . Z30 ...
ROW A7 : ... .. . ... ... : ... .. . ... ... : ... .. . ... : ... .. . ... : ... .. . Z30 ...
ROW A8 : ... .. . ... ... : ... .. . ... ... : ... .. . ... : ... .. . ... : ... .. . Z30 ...
ROW A9 : ... .. . ... ... : ... .. . ... ... : ... .. . ... : ... .. . ... : ... .. . Z30 ...
ROW AA : ... .. . ... ... : ... .. . ... ... : ... .. . ... : ... .. . ... : ... .. . Z30 ...
ROW AB : ... .. . ... ... : ... .. . ... ... : ... .. . ... : ... .. . ... : ... .. . Z30 ...
ROW AC : ... .. . ... ... : ... .. . ... ... : ... .. . ... : ... .. . ... : ... .. . Z30 ...
ROW AD : ... .. . ... ... : ... .. . ... ... : ... .. . ... : ... .. . ... : ... .. . Z30 ...
ROW AE : ... .. . ... ... : ... .. . ... ... : ... .. . ... : ... .. . ... : ... .. . Z30 ...
ROW AF : ... .. . ... ... : ... .. . ... ... : ... .. . ... : ... .. . ... : ... .. . Z30 ...
ROW B0 : ... .. . ... ... : G-3 00 5 ... V00 : ... .. . ... : ... .. C ... : ... .. . Z30 ...
ROW B1 : ... .. . ... ... : ... .. 3 ... V02 : ... .. . ... : ... .. . ... : ... .. . Z30 ...
ROW B2 : ... .. 3 ... ... : ... .. 4 ... ... : ... .. . ... : ... .. . ... : ... .. . Z30 ...
ROW B3 : ... .. . ... ... : ... .. 5 ... ... : ... .. . ... : ... .. . ... : ... .. . Z30 ...
ROW B4 : ... .. . ... ... : ... .. . ... ... : ... .. . ... : ... .. . ... : ... .. . Z30 ...
ROW B5 : ... .. 2 ... ... : ... .. 6 ... ... : ... .. . ... : ... .. 0 ... : ... .. . Z30 ...
ROW B6 : ... .. . ... ... : ... .. . ... ... : ... .. . ... : ... .. . ... : ... .. . Z30 ...
ROW B7 : ... .. 1 ... ... : ... .. . ... ... : ... .. . ... : ... .. . ... : ... .. . Z30 ...
ROW B8 : ... .. 0 ... ... : ... .. . ... ... : ... .. . ... : ... .. . ... : ... .. . Z30 ...
ROW B9 : ... .. . ... ... : ... .. . ... ... : ... .. . ... : ... .. . ... : ... .. . Z30 ...
ROW BA : ... .. . ... ... : ... .. . ... ... : ... .. . ... : ... .. . ... : ... .. . Z30 ...
ROW BB : ... .. . ... ... : ... .. . ... ... : ... .. . ... : ... .. . ... : ... .. . Z30 ...
ROW BC : ... .. . ... ... : ... .. . ... ... : ... .. . ... : ... .. . ... : ... .. . Z30 ...
ROW BD : ... .. . ... ... : ... .. . ... ... : ... .. . ... : ... .. . ... : ... .. . Z30 ...
ROW BE : ... .. . ... ... : ... .. . ... ... : ... .. . ... : ... .. . ... : ... .. . Z30 ...
ROW BF : ... .. . ... ... : ... .. . ... ... : ... .. . ... : ... .. . ... : ... .. . Z30 ...

PATTERN 06
ROW 00 : G-3 00 5 ... V00 : D#4 00 5 P80 V00 : C-3 00 . P80 : B-# 00 0 V00 : ... .. . Z30 ...
ROW 01 : ... .. 3 ... V02 : ... .. 3 ... V02 : ... .. . ... : ... .. . ... : ... .. . Z30 ...
ROW 02 : ... .. 4 ... ... : ... .. 4 ... ... : ... .. . ... : ... .. . ... : ... .. . Z30 ...
ROW 03 : ... .. 5 ... ... : ... .. 5 ... ... : ... .. . ... : ... .. . ... : ... .. . Z30 ...
ROW 04 : ... .. . ... ... : ... .. . ... ... : ... .. . ... : ... .. . ... : ... .. . Z30 ...
ROW 05 : ... .. 6 ... ... : ... .. 6 ... ... : ... .. . ... : ... .. . ... : ... .. . Z30 ...
ROW 06 : ... .. . ... ... : ... .. . ... ... : ... .. . ... : ... .. . ... : ... .. . Z30 ...
ROW 07 : ... .. . ... ... : ... .. . ... ... : ... .. . ... : ... .. . ... : ... .. . Z30 ...
ROW 08 : ... .. . ... ... : ... .. . ... ... : --- .. . ... : ... .. . ... : ... .. . Z30 ...
ROW 09 : ... .. . ... ... : ... .. . ... ... : ... .. . ... : ... .. . ... : ... .. . Z30 ...
ROW 0A : ... .. . ... ... : ... .. . ... ... : ... .. . ... : ... .. . ... : ... .. . Z30 ...
ROW 0B : ... .. . ... ... : ... .. . ... ... : ... .. . ... : ... .. . ... : ... .. . Z30 ...
ROW 0C : ... .. . ... ... : ... .. . ... ... : ... .. . ... : ... .. . ... : ... .. . Z30 ...
ROW 0D : ... .. . ... ... : ... .. . ... ... : ... .. . ... : ... .. . ... : ... .. . Z30 ...
ROW 0E : ... .. . ... ... : ... .. . ... ... : ... .. . ... : ... .. . ... : ... .. . Z30 ...
ROW 0F : ... .. . ... ... : ... .. . ... ... : ... .. . ... : ... .. . ... : ... .. . Z30 ...
ROW 10 : ... .. . ... ... : ... .. . ... ... : C-4 00 . P80 : ... .. C ... : ... .. . Z30 ...
ROW 11 : ... .. . ... ... : ... .. . ... ... : ... .. . ... : ... .. . ... : ... .. . Z30 ...
ROW 12 : ... .. 3 ... ... : ... .. 3 ... ... : ... .. . ... : ... .. . ... : ... .. . Z30 ...
ROW 13 : ... .. . ... ... : ... .. . ... ... : ... .. . ... : ... .. . ... : ... .. . Z30 ...
ROW 14 : ... .. . ... ... : ... .. . ... ... : ... .. . ... : ... .. . ... : ... .. . Z30 ...
ROW 15 : ... .. 2 ... ... : ... .. 2 ... ... : ... .. . ... : ... .. 0 ... : ... .. . Z30 ...
ROW 16 : ... .. . ... ... : ... .. . ... ... : ... .. . ... : ... .. . ... : ... .. . Z30 ...
ROW 17 : ... .. 1 ... ... : ... .. 1 ... ... : ... .. . ... : ... .. . ... : ... .. . Z30 ...
ROW 18 : ... .. 0 ... ... : ... .. 0 ... ... : --- .. . ... : ... .. . ... : ... .. . Z30 ...
ROW 19 : ... .. . ... ... : ... .. . ... ... : ... .. . ... : ... .. . ... : ... .. . Z30 ...
ROW 1A : ... .. . ... ... : ... .. . ... ... : ... .. . ... : ... .. . ... : ... .. . Z30 ...
ROW 1B : ... .. . ... ... : ... .. . ... ... : ... .. . ... : ... .. . ... : ... .. . Z30 ...
ROW 1C : ... .. . ... ... : ... .. . ... ... : ... .. . ... : ... .. . ... : ... .. . Z30 ...
ROW 1D : ... .. . ... ... : ... .. . ... ... : ... .. . ... : ... .. . ... : ... .. . Z30 ...
ROW 1E : ... .. . ... ... : ... .. . ... ... : ... .. . ... : ... .. . ... : ... .. . Z30 ...
ROW 1F : ... .. . ... ... : ... .. . ... ... : ... .. . ... : ... .. . ... : ... .. . Z30 ...
ROW 20 : F#3 00 5 ... V00 : E-4 00 5 ... V00 : A#2 00 . ... : B-# 00 0 V00 : ... .. . Z30 ...
ROW 21 : ... .. 3 ... V02 : ... .. 3 ... V02 : ... .. . ... : ... .. . ... : ... .. . Z30 ...
ROW 22 : ... .. 4 ... ... : ... .. 4 ... ... : ... .. . ... : ... .. . ... : ... .. . Z30 ...
ROW 23 : ... .. 5 ... ... : ... .. 5 ... ... : ... .. . ... : ... .. . ... : ... .. . Z30 ...
ROW 24 : ... .. . ... ... : ... .. . ... ... : ... .. . ... : ... .. . ... : ... .. . Z30 ...
ROW 25 : ... .. 6 ... ... : ... .. 6 ... ... : ... .. . ... : ... .. . ... : ... .. . Z30 ...
ROW 26 : ... .. . ... ... : ... .. . ... ... : ... .. . ... : ... .. . ... : ... .. . Z30 ...
ROW 27 : ... .. . ... ... : ... .. . ... ... : ... .. . ... : ... .. . ... : ... .. . Z30 ...
ROW 28 : ... .. . ... ... : ... .. . ... ... : --- .. . ... : ... .. . ... : ... .. . Z30 ...
ROW 29 : ... .. . ... ... : ... .. . ... ... : ... .. . ... : ... .. . ... : ... .. . Z30 ...
ROW 2A : ... .. . ... ... : ... .. . ... ... : ... .. . ... : ... .. . ... : ... .. . Z30 ...
ROW 2B : ... .. . ... ... : ... .. . ... ... : ... .. . ... : ... .. . ... : ... .. . Z30 ...
ROW 2C : ... .. . ... ... : ... .. . ... ... : ... .. . ... : ... .. . ... : ... .. . Z30 ...
ROW 2D : ... .. . ... ... : ... .. . ... ... : ... .. . ... : ... .. . ... : ... .. . Z30 ...
ROW 2E : ... .. . ... ... : ... .. . ... ... : ... .. . ... : ... .. . ... : ... .. . Z30 ...
ROW 2F : ... .. . ... ... : ... .. . ... ... : ... .. . ... : ... .. . ... : ... .. . Z30 ...
ROW 30 : ... .. . ... ... : ... .. . ... ... : A#3 00 . ... : ... .. C ... : ... .. . Z30 ...
ROW 31 : ... .. . ... ... : ... .. . ... ... : ... .. . ... : ... .. . ... : ... .. . Z30 ...
ROW 32 : ... .. 3 ... ... : ... .. 3 ... ... : ... .. . ... : ... .. . ... : ... .. . Z30 ...
ROW 33 : ... .. . ... ... : ... .. . ... ... : ... .. . ... : ... .. . ... : ... .. . Z30 ...
ROW 34 : ... .. . ... ... : ... .. . ... ... : ... .. . ... : ... .. . ... : ... .. . Z30 ...
ROW 35 : ... .. 2 ... ... : ... .. 2 ... ... : ... .. . ... : ... .. 0 ... : ... .. . Z30 ...
ROW 36 : ... .. . ... ... : ... .. . ... ... : ... .. . ... : ... .. . ... : ... .. . Z30 ...
ROW 37 : ... .. 1 ... ... : ... .. 1 ... ... : ... .. . ... : ... .. . ... : ... .. . Z30 ...
ROW 38 : ... .. 0 ... ... : ... .. 0 ... ... : --- .. . ... : ... .. . ... : ... .. . Z30 ...
ROW 39 : ... .. . ... ... : ... .. . ... ... : ... .. . ... : ... .. . ... : ... .. . Z30 ...
ROW 3A : ... .. . ... ... : ... .. . ... ... : ... .. . ... : ... .. . ... : ... .. . Z30 ...
ROW 3B : ... .. . ... ... : ... .. . ... ... : ... .. . ... : ... .. . ... : ... .. . Z30 ...
ROW 3C : ... .. . ... ... : ... .. . ... ... : ... .. . ... : ... .. . ... : ... .. . Z30 ...
ROW 3D : ... .. . ... ... : ... .. . ... ... : ... .. . ... : ... .. . ... : ... .. . Z30 ...
ROW 3E : ... .. . ... ... : ... .. . ... ... : ... .. . ... : ... .. . ... : ... .. . Z30 ...
ROW 3F : ... .. . ... ... : ... .. . ... ... : ... .. . ... : ... .. . ... : ... .. . Z30 ...
ROW 40 : G-3 00 5 ... V00 : D#4 00 5 ... V00 : C-3 00 . P80 : B-# 00 0 V00 : ... .. . Z30 ...
ROW 41 : ... .. 3 ... V02 : ... .. 3 ... V02 : ... .. . ... : ... .. . ... : ... .. . Z30 ...
ROW 42 : ... .. 4 ... ... : ... .. 4 ... ... : ... .. . ... : ... .. . ... : ... .. . Z30 ...
ROW 43 : ... .. 5 ... ... : ... .. 5 ... ... : ... .. . ... : ... .. . ... : ... .. . Z30 ...
ROW 44 : ... .. . ... ... : ... .. . ... ... : ... .. . ... : ... .. . ... : ... .. . Z30 ...
ROW 45 : ... .. 6 ... ... : ... .. 6 ... ... : ... .. . ... : ... .. . ... : ... .. . Z30 ...
ROW 46 : ... .. . ... ... : ... .. . ... ... : ... .. . ... : ... .. . ... : ... .. . Z30 ...
ROW 47 : ... .. . ... ... : ... .. . ... ... : ... .. . ... : ... .. . ... : ... .. . Z30 ...
ROW 48 : ... .. . ... ... : ... .. . ... ... : --- .. . ... : ... .. . ... : ... .. . Z30 ...
ROW 49 : ... .. . ... ... : ... .. . ... ... : ... .. . ... : ... .. . ... : ... .. . Z30 ...
ROW 4A : ... .. . ... ... : ... .. . ... ... : ... .. . ... : ... .. . ... : ... .. . Z30 ...
ROW 4B : ... .. . ... ... : ... .. . ... ... : ... .. . ... : ... .. . ... : ... .. . Z30 ...
ROW 4C : ... .. . ... ... : ... .. . ... ... : ... .. . ... : ... .. . ... : ... .. . Z30 ...
ROW 4D : ... .. . ... ... : ... .. . ... ... : ... .. . ... : ... .. . ... : ... .. . Z30 ...
ROW 4E : ... .. . ... ... : ... .. . ... ... : ... .. . ... : ... .. . ... : ... .. . Z30 ...
ROW 4F : ... .. . ... ... : ... .. . ... ... : ... .. . ... : ... .. . ... : ... .. . Z30 ...
ROW 50 : ... .. . ... ... : ... .. . ... ... : C-4 00 . P80 : ... .. C ... : ... .. . Z30 ...
ROW 51 : ... .. . ... ... : ... .. . ... ... : ... .. . ... : ... .. . ... : ... .. . Z30 ...
ROW 52 : ... .. 3 ... ... : ... .. 3 ... ... : ... .. . ... : ... .. . ... : ... .. . Z30 ...
ROW 53 : ... .. . ... ... : ... .. . ... ... : ... .. . ... : ... .. . ... : ... .. . Z30 ...
ROW 54 : ... .. . ... ... : ... .. . ... ... : ... .. . ... : ... .. . ... : ... .. . Z30 ...
ROW 55 : ... .. 2 ... ... : ... .. 2 ... ... : ... .. . ... : ... .. 0 ... : ... .. . Z30 ...
ROW 56 : ... .. . ... ... : ... .. . ... ... : ... .. . ... : ... .. . ... : ... .. . Z30 ...
ROW 57 : ... .. 1 ... ... : ... .. 1 ... ... : ... .. . ... : ... .. . ... : ... .. . Z30 ...
ROW 58 : ... .. 0 ... ... : ... .. 0 ... ... : --- .. . ... : ... .. . ... : ... .. . Z30 ...
ROW 59 : ... .. . ... ... : ... .. . ... ... : ... .. . ... : ... .. . ... : ... .. . Z30 ...
ROW 5A : ... .. . ... ... : ... .. . ... ... : ... .. . ... : ... .. . ... : ... .. . Z30 ...
ROW 5B : ... .. . ... ... : ... .. . ... ... : ... .. . ... : ... .. . ... : ... .. . Z30 ...
ROW 5C : ... .. . ... ... : ... .. . ... ... : ... .. . ... : ... .. . ... : ... .. . Z30 ...
ROW 5D : ... .. . ... ... : ... .. . ... ... : ... .. . ... : ... .. . ... : ... .. . Z30 ...
ROW 5E : ... .. . ... ... : ... .. . ... ... : ... .. . ... : ... .. . ... : ... .. . Z30 ...
ROW 5F : ... .. . ... ... : ... .. . ... ... : ... .. . ... : ... .. . ... : ... .. . Z30 ...
ROW 60 : ... .. . ... ... : ... .. . ... ... : D#3 00 . P7F : B-# 00 0 V00 : ... .. . Z30 ...
ROW 61 : ... .. . ... ... : ... .. . ... ... : ... .. . ... : ... .. . ... : ... .. . Z30 ...
ROW 62 : ... .. . ... ... : ... .. . ... ... : ... .. . ... : ... .. . ... : ... .. . Z30 ...
ROW 63 : ... .. . ... ... : ... .. . ... ... : ... .. . ... : ... .. . ... : ... .. . Z30 ...
ROW 64 : ... .. . ... ... : ... .. . ... ... : ... .. . ... : ... .. . ... : ... .. . Z30 ...
ROW 65 : ... .. . ... ... : ... .. . ... ... : ... .. . ... : ... .. . ... : ... .. . Z30 ...
ROW 66 : ... .. . ... ... : ... .. . ... ... : ... .. . ... : ... .. . ... : ... .. . Z30 ...
ROW 67 : ... .. . ... ... : ... .. . ... ... : ... .. . ... : ... .. . ... : ... .. . Z30 ...
ROW 68 : ... .. . ... ... : G-3 00 5 P7F V00 : --- .. . ... : ... .. . ... : ... .. . Z30 ...
ROW 69 : ... .. . ... ... : ... .. 3 ... V02 : ... .. . ... : ... .. . ... : ... .. . Z30 ...
ROW 6A : ... .. . ... ... : ... .. 4 ... ... : ... .. . ... : ... .. . ... : ... .. . Z30 ...
ROW 6B : ... .. . ... ... : ... .. 5 ... ... : ... .. . ... : ... .. . ... : ... .. . Z30 ...
ROW 6C : ... .. . ... ... : ... .. . ... ... : ... .. . ... : ... .. . ... : ... .. . Z30 ...
ROW 6D : ... .. . ... ... : ... .. 6 ... ... : ... .. . ... : ... .. . ... : ... .. . Z30 ...
ROW 6E : ... .. . ... ... : ... .. . ... ... : ... .. . ... : ... .. . ... : ... .. . Z30 ...
ROW 6F : ... .. . ... ... : ... .. . ... ... : ... .. . ... : ... .. . ... : ... .. . Z30 ...
ROW 70 : ... .. . ... ... : C-4 00 5 P80 V00 : C-4 00 . P80 : ... .. C ... : ... .. . Z30 ...
ROW 71 : ... .. . ... ... : ... .. 3 ... V02 : ... .. . ... : ... .. . ... : ... .. . Z30 ...
ROW 72 : ... .. . ... ... : ... .. 4 ... ... : ... .. . ... : ... .. . ... : ... .. . Z30 ...
ROW 73 : ... .. . ... ... : ... .. 5 ... ... : ... .. . ... : ... .. . ... : ... .. . Z30 ...
ROW 74 : ... .. . ... ... : ... .. . ... ... : ... .. . ... : ... .. . ... : ... .. . Z30 ...
ROW 75 : ... .. . ... ... : ... .. 6 ... ... : ... .. . ... : ... .. 0 ... : ... .. . Z30 ...
ROW 76 : ... .. . ... ... : ... .. . ... ... : ... .. . ... : ... .. . ... : ... .. . Z30 ...
ROW 77 : ... .. . ... ... : ... .. . ... ... : ... .. . ... : ... .. . ... : ... .. . Z30 ...
ROW 78 : ... .. . ... ... : D-4 00 5 P7F V00 : --- .. . ... : ... .. . ... : ... .. . Z30 ...
ROW 79 : ... .. . ... ... : ... .. 3 ... V02 : ... .. . ... : ... .. . ... : ... .. . Z30 ...
ROW 7A : ... .. . ... ... : ... .. 4 ... ... : ... .. . ... : ... .. . ... : ... .. . Z30 ...
ROW 7B : ... .. . ... ... : ... .. 5 ... ... : ... .. . ... : ... .. . ... : ... .. . Z30 ...
ROW 7C : ... .. . ... ... : ... .. . ... ... : ... .. . ... : ... .. . ... : ... .. . Z30 ...
ROW 7D : ... .. . ... ... : ... .. 6 ... ... : ... .. . ... : ... .. . ... : ... .. . Z30 ...
ROW 7E : ... .. . ... ... : ... .. . ... ... : ... .. . ... : ... .. . ... : ... .. . Z30 ...
ROW 7F : ... .. . ... ... : ... .. . ... ... : ... .. . ... : ... .. . ... : ... .. . Z30 ...
ROW 80 : ... .. 5 ... V00 : D#4 00 5 P80 V00 : C-3 00 . ... : B-# 00 0 V00 : ... .. . Z30 ...
ROW 81 : ... .. 3 ... V02 : ... .. 3 ... V02 : ... .. . ... : ... .. . ... : ... .. . Z30 ...
ROW 82 : ... .. 4 ... ... : ... .. 4 ... ... : ... .. . ... : ... .. . ... : ... .. . Z30 ...
ROW 83 : ... .. 5 ... ... : ... .. 5 ... ... : ... .. . ... : ... .. . ... : ... .. . Z30 ...
ROW 84 : ... .. . ... ... : ... .. . ... ... : ... .. . ... : ... .. . ... : ... .. . Z30 ...
ROW 85 : ... .. 6 ... ... : ... .. 6 ... ... : ... .. . ... : ... .. . ... : ... .. . Z30 ...
ROW 86 : ... .. . ... ... : ... .. . ... ... : ... .. . ... : ... .. . ... : ... .. . Z30 ...
ROW 87 : ... .. . ... ... : ... .. . ... ... : ... .. . ... : ... .. . ... : ... .. . Z30 ...
ROW 88 : ... .. . ... ... : ... .. . ... ... : --- .. . ... : ... .. . ... : ... .. . Z30 ...
ROW 89 : ... .. . ... ... : ... .. . ... ... : ... .. . ... : ... .. . ... : ... .. . Z30 ...
ROW 8A : ... .. . ... ... : ... .. . ... ... : ... .. . ... : ... .. . ... : ... .. . Z30 ...
ROW 8B : ... .. . ... ... : ... .. . ... ... : ... .. . ... : ... .. . ... : ... .. . Z30 ...
ROW 8C : ... .. . ... ... : ... .. . ... ... : ... .. . ... : ... .. . ... : ... .. . Z30 ...
ROW 8D : ... .. . ... ... : ... .. . ... ... : ... .. . ... : ... .. . ... : ... .. . Z30 ...
ROW 8E : ... .. . ... ... : ... .. . ... ... : ... .. . ... : ... .. . ... : ... .. . Z30 ...
ROW 8F : ... .. . ... ... : ... .. . ... ... : ... .. . ... : ... .. . ... : ... .. . Z30 ...
ROW 90 : ... .. . ... ... : ... .. . ... ... : C-4 00 . P80 : ... .. C ... : ... .. . Z30 ...
ROW 91 : ... .. . ... ... : ... .. . ... ... : ... .. . ... : ... .. . ... : ... .. . Z30 ...
ROW 92 : ... .. 3 ... ... : ... .. 3 ... ... : ... .. . ... : ... .. . ... : ... .. . Z30 ...
ROW 93 : ... .. . ... ... : ... .. . ... ... : ... .. . ... : ... .. . ... : ... .. . Z30 ...
ROW 94 : ... .. . ... ... : ... .. . ... ... : ... .. . ... : ... .. . ... : ... .. . Z30 ...
ROW 95 : ... .. 2 ... ... : ... .. 2 ... ... : ... .. . ... : ... .. 0 ... : ... .. . Z30 ...
ROW 96 : ... .. . ... ... : ... .. . ... ... : ... .. . ... : ... .. . ... : ... .. . Z30 ...
ROW 97 : ... .. 1 ... ... : ... .. 1 ... ... : ... .. . ... : ... .. . ... : ... .. . Z30 ...
ROW 98 : ... .. 0 ... ... : ... .. 0 ... ... : --- .. . ... : ... .. . ... : ... .. . Z30 ...
ROW 99 : ... .. . ... ... : ... .. . ... ... : ... .. . ... : ... .. . ... : ... .. . Z30 ...
ROW 9A : ... .. . ... ... : ... .. . ... ... : ... .. . ... : ... .. . ... : ... .. . Z30 ...
ROW 9B : ... .. . ... ... : ... .. . ... ... : ... .. . ... : ... .. . ... : ... .. . Z30 ...
ROW 9C : ... .. . ... ... : ... .. . ... ... : ... .. . ... : ... .. . ... : ... .. . Z30 ...
ROW 9D : ... .. . ... ... : ... .. . ... ... : ... .. . ... : ... .. . ... : ... .. . Z30 ...
ROW 9E : ... .. . ... ... : ... .. . ... ... : ... .. . ... : ... .. . ... : ... .. . Z30 ...
ROW 9F : ... .. . ... ... : ... .. . ... ... : ... .. . ... : ... .. . ... : ... .. . Z30 ...
ROW A0 : F#3 00 5 ... V00 : E-4 00 5 ... V00 : A#2 00 . ... : B-# 00 0 V00 : ... .. . Z30 ...
ROW A1 : ... .. 3 ... V02 : ... .. 3 ... V02 : ... .. . ... : ... .. . ... : ... .. . Z30 ...
ROW A2 : ... .. 4 ... ... : ... .. 4 ... ... : ... .. . ... : ... .. . ... : ... .. . Z30 ...
ROW A3 : ... .. 5 ... ... : ... .. 5 ... ... : ... .. . ... : ... .. . ... : ... .. . Z30 ...
ROW A4 : ... .. . ... ... : ... .. . ... ... : ... .. . ... : ... .. . ... : ... .. . Z30 ...
ROW A5 : ... .. 6 ... ... : ... .. 6 ... ... : ... .. . ... : ... .. . ... : ... .. . Z30 ...
ROW A6 : ... .. . ... ... : ... .. . ... ... : ... .. . ... : ... .. . ... : ... .. . Z30 ...
ROW A7 : ... .. . ... ... : ... .. . ... ... : ... .. . ... : ... .. . ... : ... .. . Z30 ...
ROW A8 : ... .. . ... ... : ... .. . ... ... : --- .. . ... : ... .. . ... : ... .. . Z30 ...
ROW A9 : ... .. . ... ... : ... .. . ... ... : ... .. . ... : ... .. . ... : ... .. . Z30 ...
ROW AA : ... .. . ... ... : ... .. . ... ... : ... .. . ... : ... .. . ... : ... .. . Z30 ...
ROW AB : ... .. . ... ... : ... .. . ... ... : ... .. . ... : ... .. . ... : ... .. . Z30 ...
ROW AC : ... .. . ... ... : ... .. . ... ... : ... .. . ... : ... .. . ... : ... .. . Z30 ...
ROW AD : ... .. . ... ... : ... .. . ... ... : ... .. . ... : ... .. . ... : ... .. . Z30 ...
ROW AE : ... .. . ... ... : ... .. . ... ... : ... .. . ... : ... .. . ... : ... .. . Z30 ...
ROW AF : ... .. . ... ... : ... .. . ... ... : ... .. . ... : ... .. . ... : ... .. . Z30 ...
ROW B0 : G#3 00 5 ... V00 : F-4 00 5 P7F V00 : A#3 00 . ... : ... .. C ... : ... .. . Z30 ...
ROW B1 : ... .. 3 ... V02 : ... .. 3 ... V02 : ... .. . ... : ... .. . ... : ... .. . Z30 ...
ROW B2 : ... .. 4 ... ... : ... .. 4 ... ... : ... .. . ... : ... .. . ... : ... .. . Z30 ...
ROW B3 : ... .. 5 ... ... : ... .. 5 ... ... : ... .. . ... : ... .. . ... : ... .. . Z30 ...
ROW B4 : ... .. . ... ... : ... .. . ... ... : ... .. . ... : ... .. . ... : ... .. . Z30 ...
ROW B5 : ... .. 6 ... ... : ... .. 6 ... ... : ... .. . ... : ... .. 0 ... : ... .. . Z30 ...
ROW B6 : ... .. . ... ... : ... .. . ... ... : ... .. . ... : ... .. . ... : ... .. . Z30 ...
ROW B7 : ... .. . ... ... : ... .. . ... ... : ... .. . ... : ... .. . ... : ... .. . Z30 ...
ROW B8 : ... .. . ... ... : ... .. . ... ... : --- .. . ... : ... .. . ... : ... .. . Z30 ...
ROW B9 : ... .. . ... ... : ... .. . ... ... : ... .. . ... : ... .. . ... : ... .. . Z30 ...
ROW BA : ... .. . ... ... : ... .. . ... ... : ... .. . ... : ... .. . ... : ... .. . Z30 ...
ROW BB : ... .. . ... ... : ... .. . ... ... : ... .. . ... : ... .. . ... : ... .. . Z30 ...
ROW BC : ... .. . ... ... : ... .. . ... ... : ... .. . ... : ... .. . ... : ... .. . Z30 ...
ROW BD : ... .. . ... ... : ... .. . ... ... : ... .. . ... : ... .. . ... : ... .. . Z30 ...
ROW BE : ... .. . ... ... : ... .. . ... ... : ... .. . ... : ... .. . ... : ... .. . Z30 ...
ROW BF : ... .. . ... ... : ... .. . ... ... : ... .. . ... : ... .. . ... : ... .. . Z30 ...

PATTERN 07
ROW 00 : G-3 00 5 ... V00 : D#4 00 5 P80 V00 : C-3 00 . P80 : B-# 00 0 V00 : ... .. . Z30 ...
ROW 01 : ... .. 3 ... V02 : ... .. 3 ... V02 : ... .. . ... : ... .. . ... : ... .. . Z30 ...
ROW 02 : ... .. 4 ... ... : ... .. 4 ... ... : ... .. . ... : ... .. . ... : ... .. . Z30 ...
ROW 03 : ... .. 5 ... ... : ... .. 5 ... ... : ... .. . ... : ... .. . ... : ... .. . Z30 ...
ROW 04 : ... .. . ... ... : ... .. . ... ... : ... .. . ... : ... .. . ... : ... .. . Z30 ...
ROW 05 : ... .. 6 ... ... : ... .. 6 ... ... : ... .. . ... : ... .. . ... : ... .. . Z30 ...
ROW 06 : ... .. . ... ... : ... .. . ... ... : ... .. . ... : ... .. . ... : ... .. . Z30 ...
ROW 07 : ... .. . ... ... : ... .. . ... ... : ... .. . ... : ... .. . ... : ... .. . Z30 ...
ROW 08 : ... .. . ... ... : ... .. . ... ... : --- .. . ... : ... .. . ... : ... .. . Z30 ...
ROW 09 : ... .. . ... ... : ... .. . ... ... : ... .. . ... : ... .. . ... : ... .. . Z30 ...
ROW 0A : ... .. . ... ... : ... .. . ... ... : ... .. . ... : ... .. . ... : ... .. . Z30 ...
ROW 0B : ... .. . ... ... : ... .. . ... ... : ... .. . ... : ... .. . ... : ... .. . Z30 ...
ROW 0C : ... .. . ... ... : ... .. . ... ... : ... .. . ... : ... .. . ... : ... .. . Z30 ...
ROW 0D : ... .. . ... ... : ... .. . ... ... : ... .. . ... : ... .. . ... : ... .. . Z30 ...
ROW 0E : ... .. . ... ... : ... .. . ... ... : ... .. . ... : ... .. . ... : ... .. . Z30 ...
ROW 0F : ... .. . ... ... : ... .. . ... ... : ... .. . ... : ... .. . ... : ... .. . Z30 ...
ROW 10 : ... .. . ... ... : ... .. . ... ... : C-4 00 . P80 : ... .. C ... : ... .. . Z30 ...
ROW 11 : ... .. . ... ... : ... .. . ... ... : ... .. . ... : ... .. . ... : ... .. . Z30 ...
ROW 12 : ... .. 3 ... ... : ... .. 3 ... ... : ... .. . ... : ... .. . ... : ... .. . Z30 ...
ROW 13 : ... .. . ... ... : ... .. . ... ... : ... .. . ... : ... .. . ... : ... .. . Z30 ...
ROW 14 : ... .. . ... ... : ... .. . ... ... : ... .. . ... : ... .. . ... : ... .. . Z30 ...
ROW 15 : ... .. 2 ... ... : ... .. 2 ... ... : ... .. . ... : ... .. 0 ... : ... .. . Z30 ...
ROW 16 : ... .. . ... ... : ... .. . ... ... : ... .. . ... : ... .. . ... : ... .. . Z30 ...
ROW 17 : ... .. 1 ... ... : ... .. 1 ... ... : ... .. . ... : ... .. . ... : ... .. . Z30 ...
ROW 18 : ... .. 0 ... ... : ... .. 0 ... ... : --- .. . ... : ... .. . ... : ... .. . Z30 ...
ROW 19 : ... .. . ... ... : ... .. . ... ... : ... .. . ... : ... .. . ... : ... .. . Z30 ...
ROW 1A : ... .. . ... ... : ... .. . ... ... : ... .. . ... : ... .. . ... : ... .. . Z30 ...
ROW 1B : ... .. . ... ... : ... .. . ... ... : ... .. . ... : ... .. . ... : ... .. . Z30 ...
ROW 1C : ... .. . ... ... : ... .. . ... ... : ... .. . ... : ... .. . ... : ... .. . Z30 ...
ROW 1D : ... .. . ... ... : ... .. . ... ... : ... .. . ... : ... .. . ... : ... .. . Z30 ...
ROW 1E : ... .. . ... ... : ... .. . ... ... : ... .. . ... : ... .. . ... : ... .. . Z30 ...
ROW 1F : ... .. . ... ... : ... .. . ... ... : ... .. . ... : ... .. . ... : ... .. . Z30 ...
ROW 20 : ... .. . ... ... : ... .. . ... ... : D#3 00 . P7F : B-# 00 0 V00 : ... .. . Z30 ...
ROW 21 : ... .. . ... ... : ... .. . ... ... : ... .. . ... : ... .. . ... : ... .. . Z30 ...
ROW 22 : ... .. . ... ... : ... .. . ... ... : ... .. . ... : ... .. . ... : ... .. . Z30 ...
ROW 23 : ... .. . ... ... : ... .. . ... ... : ... .. . ... : ... .. . ... : ... .. . Z30 ...
ROW 24 : ... .. . ... ... : ... .. . ... ... : ... .. . ... : ... .. . ... : ... .. . Z30 ...
ROW 25 : ... .. . ... ... : ... .. . ... ... : ... .. . ... : ... .. . ... : ... .. . Z30 ...
ROW 26 : ... .. . ... ... : ... .. . ... ... : ... .. . ... : ... .. . ... : ... .. . Z30 ...
ROW 27 : ... .. . ... ... : ... .. . ... ... : ... .. . ... : ... .. . ... : ... .. . Z30 ...
ROW 28 : ... .. . ... ... : ... .. . ... ... : --- .. . ... : ... .. . ... : ... .. . Z30 ...
ROW 29 : ... .. . ... ... : ... .. . ... ... : ... .. . ... : ... .. . ... : ... .. . Z30 ...
ROW 2A : ... .. . ... ... : ... .. . ... ... : ... .. . ... : ... .. . ... : ... .. . Z30 ...
ROW 2B : ... .. . ... ... : ... .. . ... ... : ... .. . ... : ... .. . ... : ... .. . Z30 ...
ROW 2C : ... .. . ... ... : ... .. . ... ... : ... .. . ... : ... .. . ... : ... .. . Z30 ...
ROW 2D : ... .. . ... ... : ... .. . ... ... : ... .. . ... : ... .. . ... : ... .. . Z30 ...
ROW 2E : ... .. . ... ... : ... .. . ... ... : ... .. . ... : ... .. . ... : ... .. . Z30 ...
ROW 2F : ... .. . ... ... : ... .. . ... ... : ... .. . ... : ... .. . ... : ... .. . Z30 ...
ROW 30 : ... .. . ... ... : ... .. . ... ... : C-4 00 . P80 : ... .. C ... : ... .. . Z30 ...
ROW 31 : ... .. . ... ... : ... .. . ... ... : ... .. . ... : ... .. . ... : ... .. . Z30 ...
ROW 32 : ... .. . ... ... : ... .. . ... ... : ... .. . ... : ... .. . ... : ... .. . Z30 ...
ROW 33 : ... .. . ... ... : ... .. . ... ... : ... .. . ... : ... .. . ... : ... .. . Z30 ...
ROW 34 : ... .. . ... ... : ... .. . ... ... : ... .. . ... : ... .. . ... : ... .. . Z30 ...
ROW 35 : ... .. . ... ... : ... .. . ... ... : ... .. . ... : ... .. 0 ... : ... .. . Z30 ...
ROW 36 : ... .. . ... ... : ... .. . ... ... : ... .. . ... : ... .. . ... : ... .. . Z30 ...
ROW 37 : ... .. . ... ... : ... .. . ... ... : ... .. . ... : ... .. . ... : ... .. . Z30 ...
ROW 38 : ... .. . ... ... : G-3 00 5 P7F V00 : --- .. . ... : ... .. . ... : ... .. . Z30 ...
ROW 39 : ... .. . ... ... : ... .. 3 ... V02 : ... .. . ... : ... .. . ... : ... .. . Z30 ...
ROW 3A : ... .. . ... ... : ... .. 4 ... ... : ... .. . ... : ... .. . ... : ... .. . Z30 ...
ROW 3B : ... .. . ... ... : ... .. 5 ... ... : ... .. . ... : ... .. . ... : ... .. . Z30 ...
ROW 3C : ... .. . ... ... : ... .. . ... ... : ... .. . ... : ... .. . ... : ... .. . Z30 ...
ROW 3D : ... .. . ... ... : ... .. 6 ... ... : ... .. . ... : ... .. . ... : ... .. . Z30 ...
ROW 3E : ... .. . ... ... : ... .. . ... ... : ... .. . ... : ... .. . ... : ... .. . Z30 ...
ROW 3F : ... .. . ... ... : ... .. . ... ... : ... .. . ... : ... .. . ... : ... .. . Z30 ...
ROW 40 : F-3 00 5 ... V00 : D-4 00 5 ... V00 : D-3 00 . ... : B-# 00 0 V00 : ... .. . Z30 ...
ROW 41 : ... .. 3 ... V02 : ... .. 3 ... V02 : ... .. . ... : ... .. . ... : ... .. . Z30 ...
ROW 42 : ... .. 4 ... ... : ... .. 4 ... ... : ... .. . ... : ... .. . ... : ... .. . Z30 ...
ROW 43 : ... .. 5 ... ... : ... .. 5 ... ... : ... .. . ... : ... .. . ... : ... .. . Z30 ...
ROW 44 : ... .. . ... ... : ... .. . ... ... : ... .. . ... : ... .. . ... : ... .. . Z30 ...
ROW 45 : ... .. 6 ... ... : ... .. 6 ... ... : ... .. . ... : ... .. . ... : ... .. . Z30 ...
ROW 46 : ... .. . ... ... : ... .. . ... ... : ... .. . ... : ... .. . ... : ... .. . Z30 ...
ROW 47 : ... .. . ... ... : ... .. . ... ... : ... .. . ... : ... .. . ... : ... .. . Z30 ...
ROW 48 : ... .. . ... ... : ... .. . ... ... : --- .. . ... : ... .. . ... : ... .. . Z30 ...
ROW 49 : ... .. . ... ... : ... .. . ... ... : ... .. . ... : ... .. . ... : ... .. . Z30 ...
ROW 4A : ... .. . ... ... : ... .. . ... ... : ... .. . ... : ... .. . ... : ... .. . Z30 ...
ROW 4B : ... .. . ... ... : ... .. . ... ... : ... .. . ... : ... .. . ... : ... .. . Z30 ...
ROW 4C : ... .. . ... ... : ... .. . ... ... : ... .. . ... : ... .. . ... : ... .. . Z30 ...
ROW 4D : ... .. . ... ... : ... .. . ... ... : ... .. . ... : ... .. . ... : ... .. . Z30 ...
ROW 4E : ... .. . ... ... : ... .. . ... ... : ... .. . ... : ... .. . ... : ... .. . Z30 ...
ROW 4F : ... .. . ... ... : ... .. . ... ... : ... .. . ... : ... .. . ... : ... .. . Z30 ...
ROW 50 : ... .. . ... ... : ... .. . ... ... : A#3 00 . ... : ... .. C ... : ... .. . Z30 ...
ROW 51 : ... .. . ... ... : ... .. . ... ... : ... .. . ... : ... .. . ... : ... .. . Z30 ...
ROW 52 : ... .. 3 ... ... : ... .. 3 ... ... : ... .. . ... : ... .. . ... : ... .. . Z30 ...
ROW 53 : ... .. . ... ... : ... .. . ... ... : ... .. . ... : ... .. . ... : ... .. . Z30 ...
ROW 54 : ... .. . ... ... : ... .. . ... ... : ... .. . ... : ... .. . ... : ... .. . Z30 ...
ROW 55 : ... .. 2 ... ... : ... .. 2 ... ... : ... .. . ... : ... .. 0 ... : ... .. . Z30 ...
ROW 56 : ... .. . ... ... : ... .. . ... ... : ... .. . ... : ... .. . ... : ... .. . Z30 ...
ROW 57 : ... .. 1 ... ... : ... .. 1 ... ... : ... .. . ... : ... .. . ... : ... .. . Z30 ...
ROW 58 : ... .. 0 ... ... : ... .. 0 ... ... : --- .. . ... : ... .. . ... : ... .. . Z30 ...
ROW 59 : ... .. . ... ... : ... .. . ... ... : ... .. . ... : ... .. . ... : ... .. . Z30 ...
ROW 5A : ... .. . ... ... : ... .. . ... ... : ... .. . ... : ... .. . ... : ... .. . Z30 ...
ROW 5B : ... .. . ... ... : ... .. . ... ... : ... .. . ... : ... .. . ... : ... .. . Z30 ...
ROW 5C : ... .. . ... ... : ... .. . ... ... : ... .. . ... : ... .. . ... : ... .. . Z30 ...
ROW 5D : ... .. . ... ... : ... .. . ... ... : ... .. . ... : ... .. . ... : ... .. . Z30 ...
ROW 5E : ... .. . ... ... : ... .. . ... ... : ... .. . ... : ... .. . ... : ... .. . Z30 ...
ROW 5F : ... .. . ... ... : ... .. . ... ... : ... .. . ... : ... .. . ... : ... .. . Z30 ...
ROW 60 : D#3 00 5 ... V00 : C#4 00 5 P80 V00 : C#3 00 . P80 : B-# 00 0 V00 : ... .. . Z30 ...
ROW 61 : ... .. 3 ... V02 : ... .. 3 ... V02 : ... .. . ... : ... .. . ... : ... .. . Z30 ...
ROW 62 : ... .. 4 ... ... : ... .. 4 ... ... : ... .. . ... : ... .. . ... : ... .. . Z30 ...
ROW 63 : ... .. 5 ... ... : ... .. 5 ... ... : ... .. . ... : ... .. . ... : ... .. . Z30 ...
ROW 64 : ... .. . ... ... : ... .. . ... ... : ... .. . ... : ... .. . ... : ... .. . Z30 ...
ROW 65 : ... .. 6 ... ... : ... .. 6 ... ... : ... .. . ... : ... .. . ... : ... .. . Z30 ...
ROW 66 : ... .. . ... ... : ... .. . ... ... : ... .. . ... : ... .. . ... : ... .. . Z30 ...
ROW 67 : ... .. . ... ... : ... .. . ... ... : ... .. . ... : ... .. . ... : ... .. . Z30 ...
ROW 68 : ... .. . ... ... : ... .. . ... ... : --- .. . ... : ... .. . ... : ... .. . Z30 ...
ROW 69 : ... .. . ... ... : ... .. . ... ... : ... .. . ... : ... .. . ... : ... .. . Z30 ...
ROW 6A : ... .. . ... ... : ... .. . ... ... : ... .. . ... : ... .. . ... : ... .. . Z30 ...
ROW 6B : ... .. . ... ... : ... .. . ... ... : ... .. . ... : ... .. . ... : ... .. . Z30 ...
ROW 6C : ... .. . ... ... : ... .. . ... ... : ... .. . ... : ... .. . ... : ... .. . Z30 ...
ROW 6D : ... .. . ... ... : ... .. . ... ... : ... .. . ... : ... .. . ... : ... .. . Z30 ...
ROW 6E : ... .. . ... ... : ... .. . ... ... : ... .. . ... : ... .. . ... : ... .. . Z30 ...
ROW 6F : ... .. . ... ... : ... .. . ... ... : ... .. . ... : ... .. . ... : ... .. . Z30 ...
ROW 70 : ... .. . ... ... : ... .. . ... ... : B-3 00 . P80 : ... .. C ... : ... .. . Z30 ...
ROW 71 : ... .. . ... ... : ... .. . ... ... : ... .. . ... : ... .. . ... : ... .. . Z30 ...
ROW 72 : ... .. 3 ... ... : ... .. 3 ... ... : ... .. . ... : ... .. . ... : ... .. . Z30 ...
ROW 73 : ... .. . ... ... : ... .. . ... ... : ... .. . ... : ... .. . ... : ... .. . Z30 ...
ROW 74 : ... .. . ... ... : ... .. . ... ... : ... .. . ... : ... .. . ... : ... .. . Z30 ...
ROW 75 : ... .. 2 ... ... : ... .. 2 ... ... : ... .. . ... : ... .. 0 ... : ... .. . Z30 ...
ROW 76 : ... .. . ... ... : ... .. . ... ... : ... .. . ... : ... .. . ... : ... .. . Z30 ...
ROW 77 : ... .. 1 ... ... : ... .. 1 ... ... : ... .. . ... : ... .. . ... : ... .. . Z30 ...
ROW 78 : ... .. 0 ... ... : ... .. 0 ... ... : --- .. . ... : ... .. . ... : ... .. . Z30 ...
ROW 79 : ... .. . ... ... : ... .. . ... ... : ... .. . ... : ... .. . ... : ... .. . Z30 ...
ROW 7A : ... .. . ... ... : ... .. . ... ... : ... .. . ... : ... .. . ... : ... .. . Z30 ...
ROW 7B : ... .. . ... ... : ... .. . ... ... : ... .. . ... : ... .. . ... : ... .. . Z30 ...
ROW 7C : ... .. . ... ... : ... .. . ... ... : ... .. . ... : ... .. . ... : ... .. . Z30 ...
ROW 7D : ... .. . ... ... : ... .. . ... ... : ... .. . ... : ... .. . ... : ... .. . Z30 ...
ROW 7E : ... .. . ... ... : ... .. . ... ... : ... .. . ... : ... .. . ... : ... .. . Z30 ...
ROW 7F : ... .. . ... ... : ... .. . ... ... : ... .. . ... : ... .. . ... : ... .. . Z30 ...
ROW 80 : F-3 00 5 ... V00 : D-4 00 5 P7F V00 : D-3 00 . ... : B-# 00 0 V00 : ... .. . Z30 ...
ROW 81 : ... .. 3 ... V02 : ... .. 3 ... V02 : ... .. . ... : ... .. . ... : ... .. . Z30 ...
ROW 82 : ... .. 4 ... ... : ... .. 4 ... ... : ... .. . ... : ... .. . ... : ... .. . Z30 ...
ROW 83 : ... .. 5 ... ... : ... .. 5 ... ... : ... .. . ... : ... .. . ... : ... .. . Z30 ...
ROW 84 : ... .. . ... ... : ... .. . ... ... : ... .. . ... : ... .. . ... : ... .. . Z30 ...
ROW 85 : ... .. 6 ... ... : ... .. 6 ... ... : ... .. . ... : ... .. . ... : ... .. . Z30 ...
ROW 86 : ... .. . ... ... : ... .. . ... ... : ... .. . ... : ... .. . ... : ... .. . Z30 ...
ROW 87 : ... .. . ... ... : ... .. . ... ... : ... .. . ... : ... .. . ... : ... .. . Z30 ...
ROW 88 : ... .. . ... ... : ... .. . ... ... : --- .. . ... : ... .. . ... : ... .. . Z30 ...
ROW 89 : ... .. . ... ... : ... .. . ... ... : ... .. . ... : ... .. . ... : ... .. . Z30 ...
ROW 8A : ... .. . ... ... : ... .. . ... ... : ... .. . ... : ... .. . ... : ... .. . Z30 ...
ROW 8B : ... .. . ... ... : ... .. . ... ... : ... .. . ... : ... .. . ... : ... .. . Z30 ...
ROW 8C : ... .. . ... ... : ... .. . ... ... : ... .. . ... : ... .. . ... : ... .. . Z30 ...
ROW 8D : ... .. . ... ... : ... .. . ... ... : ... .. . ... : ... .. . ... : ... .. . Z30 ...
ROW 8E : ... .. . ... ... : ... .. . ... ... : ... .. . ... : ... .. . ... : ... .. . Z30 ...
ROW 8F : ... .. . ... ... : ... .. . ... ... : ... .. . ... : ... .. . ... : ... .. . Z30 ...
ROW 90 : ... .. . ... ... : ... .. . ... ... : A#3 00 . ... : ... .. C ... : ... .. . Z30 ...
ROW 91 : ... .. . ... ... : ... .. . ... ... : ... .. . ... : ... .. . ... : ... .. . Z30 ...
ROW 92 : ... .. 3 ... ... : ... .. 3 ... ... : ... .. . ... : ... .. . ... : ... .. . Z30 ...
ROW 93 : ... .. . ... ... : ... .. . ... ... : ... .. . ... : ... .. . ... : ... .. . Z30 ...
ROW 94 : ... .. . ... ... : ... .. . ... ... : ... .. . ... : ... .. . ... : ... .. . Z30 ...
ROW 95 : ... .. 2 ... ... : ... .. 2 ... ... : ... .. . ... : ... .. 0 ... : ... .. . Z30 ...
ROW 96 : ... .. . ... ... : ... .. . ... ... : ... .. . ... : ... .. . ... : ... .. . Z30 ...
ROW 97 : ... .. 1 ... ... : ... .. 1 ... ... : ... .. . ... : ... .. . ... : ... .. . Z30 ...
ROW 98 : ... .. 0 ... ... : ... .. 0 ... ... : --- .. . ... : ... .. . ... : ... .. . Z30 ...
ROW 99 : ... .. . ... ... : ... .. . ... ... : ... .. . ... : ... .. . ... : ... .. . Z30 ...
ROW 9A : ... .. . ... ... : ... .. . ... ... : ... .. . ... : ... .. . ... : ... .. . Z30 ...
ROW 9B : ... .. . ... ... : ... .. . ... ... : ... .. . ... : ... .. . ... : ... .. . Z30 ...
ROW 9C : ... .. . ... ... : ... .. . ... ... : ... .. . ... : ... .. . ... : ... .. . Z30 ...
ROW 9D : ... .. . ... ... : ... .. . ... ... : ... .. . ... : ... .. . ... : ... .. . Z30 ...
ROW 9E : ... .. . ... ... : ... .. . ... ... : ... .. . ... : ... .. . ... : ... .. . Z30 ...
ROW 9F : ... .. . ... ... : ... .. . ... ... : ... .. . ... : ... .. . ... : ... .. . Z30 ...
ROW A0 : ... .. . ... ... : ... .. . ... ... : A#2 00 . P80 : B-# 00 0 V00 : ... .. . Z30 ...
ROW A1 : ... .. . ... ... : ... .. . ... ... : ... .. . ... : ... .. . ... : ... .. . Z30 ...
ROW A2 : ... .. . ... ... : ... .. . ... ... : ... .. . ... : ... .. . ... : ... .. . Z30 ...
ROW A3 : ... .. . ... ... : ... .. . ... ... : ... .. . ... : ... .. . ... : ... .. . Z30 ...
ROW A4 : ... .. . ... ... : ... .. . ... ... : ... .. . ... : ... .. . ... : ... .. . Z30 ...
ROW A5 : ... .. . ... ... : ... .. . ... ... : ... .. . ... : ... .. . ... : ... .. . Z30 ...
ROW A6 : ... .. . ... ... : ... .. . ... ... : ... .. . ... : ... .. . ... : ... .. . Z30 ...
ROW A7 : ... .. . ... ... : ... .. . ... ... : ... .. . ... : ... .. . ... : ... .. . Z30 ...
ROW A8 : ... .. . ... ... : G-3 00 5 ... V00 : --- .. . ... : ... .. . ... : ... .. . Z30 ...
ROW A9 : ... .. . ... ... : ... .. 3 ... V02 : ... .. . ... : ... .. . ... : ... .. . Z30 ...
ROW AA : ... .. . ... ... : ... .. 4 ... ... : ... .. . ... : ... .. . ... : ... .. . Z30 ...
ROW AB : ... .. . ... ... : ... .. 5 ... ... : ... .. . ... : ... .. . ... : ... .. . Z30 ...
ROW AC : ... .. . ... ... : ... .. . ... ... : ... .. . ... : ... .. . ... : ... .. . Z30 ...
ROW AD : ... .. . ... ... : ... .. 6 ... ... : ... .. . ... : ... .. . ... : ... .. . Z30 ...
ROW AE : ... .. . ... ... : ... .. . ... ... : ... .. . ... : ... .. . ... : ... .. . Z30 ...
ROW AF : ... .. . ... ... : ... .. . ... ... : ... .. . ... : ... .. . ... : ... .. . Z30 ...
ROW B0 : ... .. . ... ... : C-4 00 5 P80 V00 : A#3 00 . ... : ... .. C ... : ... .. . Z30 ...
ROW B1 : ... .. . ... ... : ... .. 3 ... V02 : ... .. . ... : ... .. . ... : ... .. . Z30 ...
ROW B2 : ... .. . ... ... : ... .. 4 ... ... : ... .. . ... : ... .. . ... : ... .. . Z30 ...
ROW B3 : ... .. . ... ... : ... .. 5 ... ... : ... .. . ... : ... .. . ... : ... .. . Z30 ...
ROW B4 : ... .. . ... ... : ... .. . ... ... : ... .. . ... : ... .. . ... : ... .. . Z30 ...
ROW B5 : ... .. . ... ... : ... .. 6 ... ... : ... .. . ... : ... .. 0 ... : ... .. . Z30 ...
ROW B6 : ... .. . ... ... : ... .. . ... ... : ... .. . ... : ... .. . ... : ... .. . Z30 ...
ROW B7 : ... .. . ... ... : ... .. . ... ... : ... .. . ... : ... .. . ... : ... .. . Z30 ...
ROW B8 : ... .. . ... ... : C#4 00 5 ... V00 : --- .. . ... : ... .. . ... : ... .. . Z30 ...
ROW B9 : ... .. . ... ... : ... .. 3 ... V02 : ... .. . ... : ... .. . ... : ... .. . Z30 ...
ROW BA : ... .. . ... ... : ... .. 4 ... ... : ... .. . ... : ... .. . ... : ... .. . Z30 ...
ROW BB : ... .. . ... ... : ... .. 5 ... ... : ... .. . ... : ... .. . ... : ... .. . Z30 ...
ROW BC : ... .. . ... ... : ... .. . ... ... : ... .. . ... : ... .. . ... : ... .. . Z30 ...
ROW BD : ... .. . ... ... : ... .. 6 ... ... : ... .. . ... : ... .. . ... : ... .. . Z30 ...
ROW BE : ... .. . ... ... : ... .. . ... ... : ... .. . ... : ... .. . ... : ... .. . Z30 ...
ROW BF : ... .. . ... ... : ... .. . ... ... : ... .. . ... : ... .. . ... : ... .. . Z30 ...

# End of export
